<?xml version="1.0" encoding="utf-8" standalone="no"?>
<!DOCTYPE svg PUBLIC "-//W3C//DTD SVG 1.1//EN"
  "http://www.w3.org/Graphics/SVG/1.1/DTD/svg11.dtd">
<!-- Created with matplotlib (https://matplotlib.org/) -->
<svg height="504pt" version="1.1" viewBox="0 0 612 504" width="612pt" xmlns="http://www.w3.org/2000/svg" xmlns:xlink="http://www.w3.org/1999/xlink">
 <defs>
  <style type="text/css">
*{stroke-linecap:butt;stroke-linejoin:round;}
  </style>
 </defs>
 <g id="figure_1">
  <g id="patch_1">
   <path d="M 0 504 
L 612 504 
L 612 0 
L 0 0 
z
" style="fill:#ffffff;"/>
  </g>
  <g id="axes_1">
   <g id="patch_2">
    <path d="M 76.5 448.56 
L 550.8 448.56 
L 550.8 60.48 
L 76.5 60.48 
z
" style="fill:#ffffff;"/>
   </g>
   <g id="matplotlib.axis_1">
    <g id="xtick_1">
     <g id="line2d_1">
      <path clip-path="url(#pbf802c7677)" d="M 76.5 448.56 
L 76.5 60.48 
" style="fill:none;stroke:#b0b0b0;stroke-linecap:square;stroke-width:0.8;"/>
     </g>
     <g id="line2d_2">
      <defs>
       <path d="M 0 0 
L 0 3.5 
" id="mede5c514bf" style="stroke:#000000;stroke-width:0.8;"/>
      </defs>
      <g>
       <use style="stroke:#000000;stroke-width:0.8;" x="76.5" xlink:href="#mede5c514bf" y="448.56"/>
      </g>
     </g>
     <g id="text_1">
      <!-- 0.0 -->
      <defs>
       <path d="M 31.78125 66.40625 
Q 24.171875 66.40625 20.328125 58.90625 
Q 16.5 51.421875 16.5 36.375 
Q 16.5 21.390625 20.328125 13.890625 
Q 24.171875 6.390625 31.78125 6.390625 
Q 39.453125 6.390625 43.28125 13.890625 
Q 47.125 21.390625 47.125 36.375 
Q 47.125 51.421875 43.28125 58.90625 
Q 39.453125 66.40625 31.78125 66.40625 
z
M 31.78125 74.21875 
Q 44.046875 74.21875 50.515625 64.515625 
Q 56.984375 54.828125 56.984375 36.375 
Q 56.984375 17.96875 50.515625 8.265625 
Q 44.046875 -1.421875 31.78125 -1.421875 
Q 19.53125 -1.421875 13.0625 8.265625 
Q 6.59375 17.96875 6.59375 36.375 
Q 6.59375 54.828125 13.0625 64.515625 
Q 19.53125 74.21875 31.78125 74.21875 
z
" id="DejaVuSans-48"/>
       <path d="M 10.6875 12.40625 
L 21 12.40625 
L 21 0 
L 10.6875 0 
z
" id="DejaVuSans-46"/>
      </defs>
      <g transform="translate(68.548438 463.158437)scale(0.1 -0.1)">
       <use xlink:href="#DejaVuSans-48"/>
       <use x="63.623047" xlink:href="#DejaVuSans-46"/>
       <use x="95.410156" xlink:href="#DejaVuSans-48"/>
      </g>
     </g>
    </g>
    <g id="xtick_2">
     <g id="line2d_3">
      <path clip-path="url(#pbf802c7677)" d="M 123.93 448.56 
L 123.93 60.48 
" style="fill:none;stroke:#b0b0b0;stroke-linecap:square;stroke-width:0.8;"/>
     </g>
     <g id="line2d_4">
      <g>
       <use style="stroke:#000000;stroke-width:0.8;" x="123.93" xlink:href="#mede5c514bf" y="448.56"/>
      </g>
     </g>
     <g id="text_2">
      <!-- 0.1 -->
      <defs>
       <path d="M 12.40625 8.296875 
L 28.515625 8.296875 
L 28.515625 63.921875 
L 10.984375 60.40625 
L 10.984375 69.390625 
L 28.421875 72.90625 
L 38.28125 72.90625 
L 38.28125 8.296875 
L 54.390625 8.296875 
L 54.390625 0 
L 12.40625 0 
z
" id="DejaVuSans-49"/>
      </defs>
      <g transform="translate(115.978438 463.158437)scale(0.1 -0.1)">
       <use xlink:href="#DejaVuSans-48"/>
       <use x="63.623047" xlink:href="#DejaVuSans-46"/>
       <use x="95.410156" xlink:href="#DejaVuSans-49"/>
      </g>
     </g>
    </g>
    <g id="xtick_3">
     <g id="line2d_5">
      <path clip-path="url(#pbf802c7677)" d="M 171.36 448.56 
L 171.36 60.48 
" style="fill:none;stroke:#b0b0b0;stroke-linecap:square;stroke-width:0.8;"/>
     </g>
     <g id="line2d_6">
      <g>
       <use style="stroke:#000000;stroke-width:0.8;" x="171.36" xlink:href="#mede5c514bf" y="448.56"/>
      </g>
     </g>
     <g id="text_3">
      <!-- 0.2 -->
      <defs>
       <path d="M 19.1875 8.296875 
L 53.609375 8.296875 
L 53.609375 0 
L 7.328125 0 
L 7.328125 8.296875 
Q 12.9375 14.109375 22.625 23.890625 
Q 32.328125 33.6875 34.8125 36.53125 
Q 39.546875 41.84375 41.421875 45.53125 
Q 43.3125 49.21875 43.3125 52.78125 
Q 43.3125 58.59375 39.234375 62.25 
Q 35.15625 65.921875 28.609375 65.921875 
Q 23.96875 65.921875 18.8125 64.3125 
Q 13.671875 62.703125 7.8125 59.421875 
L 7.8125 69.390625 
Q 13.765625 71.78125 18.9375 73 
Q 24.125 74.21875 28.421875 74.21875 
Q 39.75 74.21875 46.484375 68.546875 
Q 53.21875 62.890625 53.21875 53.421875 
Q 53.21875 48.921875 51.53125 44.890625 
Q 49.859375 40.875 45.40625 35.40625 
Q 44.1875 33.984375 37.640625 27.21875 
Q 31.109375 20.453125 19.1875 8.296875 
z
" id="DejaVuSans-50"/>
      </defs>
      <g transform="translate(163.408438 463.158437)scale(0.1 -0.1)">
       <use xlink:href="#DejaVuSans-48"/>
       <use x="63.623047" xlink:href="#DejaVuSans-46"/>
       <use x="95.410156" xlink:href="#DejaVuSans-50"/>
      </g>
     </g>
    </g>
    <g id="xtick_4">
     <g id="line2d_7">
      <path clip-path="url(#pbf802c7677)" d="M 218.79 448.56 
L 218.79 60.48 
" style="fill:none;stroke:#b0b0b0;stroke-linecap:square;stroke-width:0.8;"/>
     </g>
     <g id="line2d_8">
      <g>
       <use style="stroke:#000000;stroke-width:0.8;" x="218.79" xlink:href="#mede5c514bf" y="448.56"/>
      </g>
     </g>
     <g id="text_4">
      <!-- 0.3 -->
      <defs>
       <path d="M 40.578125 39.3125 
Q 47.65625 37.796875 51.625 33 
Q 55.609375 28.21875 55.609375 21.1875 
Q 55.609375 10.40625 48.1875 4.484375 
Q 40.765625 -1.421875 27.09375 -1.421875 
Q 22.515625 -1.421875 17.65625 -0.515625 
Q 12.796875 0.390625 7.625 2.203125 
L 7.625 11.71875 
Q 11.71875 9.328125 16.59375 8.109375 
Q 21.484375 6.890625 26.8125 6.890625 
Q 36.078125 6.890625 40.9375 10.546875 
Q 45.796875 14.203125 45.796875 21.1875 
Q 45.796875 27.640625 41.28125 31.265625 
Q 36.765625 34.90625 28.71875 34.90625 
L 20.21875 34.90625 
L 20.21875 43.015625 
L 29.109375 43.015625 
Q 36.375 43.015625 40.234375 45.921875 
Q 44.09375 48.828125 44.09375 54.296875 
Q 44.09375 59.90625 40.109375 62.90625 
Q 36.140625 65.921875 28.71875 65.921875 
Q 24.65625 65.921875 20.015625 65.03125 
Q 15.375 64.15625 9.8125 62.3125 
L 9.8125 71.09375 
Q 15.4375 72.65625 20.34375 73.4375 
Q 25.25 74.21875 29.59375 74.21875 
Q 40.828125 74.21875 47.359375 69.109375 
Q 53.90625 64.015625 53.90625 55.328125 
Q 53.90625 49.265625 50.4375 45.09375 
Q 46.96875 40.921875 40.578125 39.3125 
z
" id="DejaVuSans-51"/>
      </defs>
      <g transform="translate(210.838438 463.158437)scale(0.1 -0.1)">
       <use xlink:href="#DejaVuSans-48"/>
       <use x="63.623047" xlink:href="#DejaVuSans-46"/>
       <use x="95.410156" xlink:href="#DejaVuSans-51"/>
      </g>
     </g>
    </g>
    <g id="xtick_5">
     <g id="line2d_9">
      <path clip-path="url(#pbf802c7677)" d="M 266.22 448.56 
L 266.22 60.48 
" style="fill:none;stroke:#b0b0b0;stroke-linecap:square;stroke-width:0.8;"/>
     </g>
     <g id="line2d_10">
      <g>
       <use style="stroke:#000000;stroke-width:0.8;" x="266.22" xlink:href="#mede5c514bf" y="448.56"/>
      </g>
     </g>
     <g id="text_5">
      <!-- 0.4 -->
      <defs>
       <path d="M 37.796875 64.3125 
L 12.890625 25.390625 
L 37.796875 25.390625 
z
M 35.203125 72.90625 
L 47.609375 72.90625 
L 47.609375 25.390625 
L 58.015625 25.390625 
L 58.015625 17.1875 
L 47.609375 17.1875 
L 47.609375 0 
L 37.796875 0 
L 37.796875 17.1875 
L 4.890625 17.1875 
L 4.890625 26.703125 
z
" id="DejaVuSans-52"/>
      </defs>
      <g transform="translate(258.268438 463.158437)scale(0.1 -0.1)">
       <use xlink:href="#DejaVuSans-48"/>
       <use x="63.623047" xlink:href="#DejaVuSans-46"/>
       <use x="95.410156" xlink:href="#DejaVuSans-52"/>
      </g>
     </g>
    </g>
    <g id="xtick_6">
     <g id="line2d_11">
      <path clip-path="url(#pbf802c7677)" d="M 313.65 448.56 
L 313.65 60.48 
" style="fill:none;stroke:#b0b0b0;stroke-linecap:square;stroke-width:0.8;"/>
     </g>
     <g id="line2d_12">
      <g>
       <use style="stroke:#000000;stroke-width:0.8;" x="313.65" xlink:href="#mede5c514bf" y="448.56"/>
      </g>
     </g>
     <g id="text_6">
      <!-- 0.5 -->
      <defs>
       <path d="M 10.796875 72.90625 
L 49.515625 72.90625 
L 49.515625 64.59375 
L 19.828125 64.59375 
L 19.828125 46.734375 
Q 21.96875 47.46875 24.109375 47.828125 
Q 26.265625 48.1875 28.421875 48.1875 
Q 40.625 48.1875 47.75 41.5 
Q 54.890625 34.8125 54.890625 23.390625 
Q 54.890625 11.625 47.5625 5.09375 
Q 40.234375 -1.421875 26.90625 -1.421875 
Q 22.3125 -1.421875 17.546875 -0.640625 
Q 12.796875 0.140625 7.71875 1.703125 
L 7.71875 11.625 
Q 12.109375 9.234375 16.796875 8.0625 
Q 21.484375 6.890625 26.703125 6.890625 
Q 35.15625 6.890625 40.078125 11.328125 
Q 45.015625 15.765625 45.015625 23.390625 
Q 45.015625 31 40.078125 35.4375 
Q 35.15625 39.890625 26.703125 39.890625 
Q 22.75 39.890625 18.8125 39.015625 
Q 14.890625 38.140625 10.796875 36.28125 
z
" id="DejaVuSans-53"/>
      </defs>
      <g transform="translate(305.698438 463.158437)scale(0.1 -0.1)">
       <use xlink:href="#DejaVuSans-48"/>
       <use x="63.623047" xlink:href="#DejaVuSans-46"/>
       <use x="95.410156" xlink:href="#DejaVuSans-53"/>
      </g>
     </g>
    </g>
    <g id="xtick_7">
     <g id="line2d_13">
      <path clip-path="url(#pbf802c7677)" d="M 361.08 448.56 
L 361.08 60.48 
" style="fill:none;stroke:#b0b0b0;stroke-linecap:square;stroke-width:0.8;"/>
     </g>
     <g id="line2d_14">
      <g>
       <use style="stroke:#000000;stroke-width:0.8;" x="361.08" xlink:href="#mede5c514bf" y="448.56"/>
      </g>
     </g>
     <g id="text_7">
      <!-- 0.6 -->
      <defs>
       <path d="M 33.015625 40.375 
Q 26.375 40.375 22.484375 35.828125 
Q 18.609375 31.296875 18.609375 23.390625 
Q 18.609375 15.53125 22.484375 10.953125 
Q 26.375 6.390625 33.015625 6.390625 
Q 39.65625 6.390625 43.53125 10.953125 
Q 47.40625 15.53125 47.40625 23.390625 
Q 47.40625 31.296875 43.53125 35.828125 
Q 39.65625 40.375 33.015625 40.375 
z
M 52.59375 71.296875 
L 52.59375 62.3125 
Q 48.875 64.0625 45.09375 64.984375 
Q 41.3125 65.921875 37.59375 65.921875 
Q 27.828125 65.921875 22.671875 59.328125 
Q 17.53125 52.734375 16.796875 39.40625 
Q 19.671875 43.65625 24.015625 45.921875 
Q 28.375 48.1875 33.59375 48.1875 
Q 44.578125 48.1875 50.953125 41.515625 
Q 57.328125 34.859375 57.328125 23.390625 
Q 57.328125 12.15625 50.6875 5.359375 
Q 44.046875 -1.421875 33.015625 -1.421875 
Q 20.359375 -1.421875 13.671875 8.265625 
Q 6.984375 17.96875 6.984375 36.375 
Q 6.984375 53.65625 15.1875 63.9375 
Q 23.390625 74.21875 37.203125 74.21875 
Q 40.921875 74.21875 44.703125 73.484375 
Q 48.484375 72.75 52.59375 71.296875 
z
" id="DejaVuSans-54"/>
      </defs>
      <g transform="translate(353.128438 463.158437)scale(0.1 -0.1)">
       <use xlink:href="#DejaVuSans-48"/>
       <use x="63.623047" xlink:href="#DejaVuSans-46"/>
       <use x="95.410156" xlink:href="#DejaVuSans-54"/>
      </g>
     </g>
    </g>
    <g id="xtick_8">
     <g id="line2d_15">
      <path clip-path="url(#pbf802c7677)" d="M 408.51 448.56 
L 408.51 60.48 
" style="fill:none;stroke:#b0b0b0;stroke-linecap:square;stroke-width:0.8;"/>
     </g>
     <g id="line2d_16">
      <g>
       <use style="stroke:#000000;stroke-width:0.8;" x="408.51" xlink:href="#mede5c514bf" y="448.56"/>
      </g>
     </g>
     <g id="text_8">
      <!-- 0.7 -->
      <defs>
       <path d="M 8.203125 72.90625 
L 55.078125 72.90625 
L 55.078125 68.703125 
L 28.609375 0 
L 18.3125 0 
L 43.21875 64.59375 
L 8.203125 64.59375 
z
" id="DejaVuSans-55"/>
      </defs>
      <g transform="translate(400.558438 463.158437)scale(0.1 -0.1)">
       <use xlink:href="#DejaVuSans-48"/>
       <use x="63.623047" xlink:href="#DejaVuSans-46"/>
       <use x="95.410156" xlink:href="#DejaVuSans-55"/>
      </g>
     </g>
    </g>
    <g id="xtick_9">
     <g id="line2d_17">
      <path clip-path="url(#pbf802c7677)" d="M 455.94 448.56 
L 455.94 60.48 
" style="fill:none;stroke:#b0b0b0;stroke-linecap:square;stroke-width:0.8;"/>
     </g>
     <g id="line2d_18">
      <g>
       <use style="stroke:#000000;stroke-width:0.8;" x="455.94" xlink:href="#mede5c514bf" y="448.56"/>
      </g>
     </g>
     <g id="text_9">
      <!-- 0.8 -->
      <defs>
       <path d="M 31.78125 34.625 
Q 24.75 34.625 20.71875 30.859375 
Q 16.703125 27.09375 16.703125 20.515625 
Q 16.703125 13.921875 20.71875 10.15625 
Q 24.75 6.390625 31.78125 6.390625 
Q 38.8125 6.390625 42.859375 10.171875 
Q 46.921875 13.96875 46.921875 20.515625 
Q 46.921875 27.09375 42.890625 30.859375 
Q 38.875 34.625 31.78125 34.625 
z
M 21.921875 38.8125 
Q 15.578125 40.375 12.03125 44.71875 
Q 8.5 49.078125 8.5 55.328125 
Q 8.5 64.0625 14.71875 69.140625 
Q 20.953125 74.21875 31.78125 74.21875 
Q 42.671875 74.21875 48.875 69.140625 
Q 55.078125 64.0625 55.078125 55.328125 
Q 55.078125 49.078125 51.53125 44.71875 
Q 48 40.375 41.703125 38.8125 
Q 48.828125 37.15625 52.796875 32.3125 
Q 56.78125 27.484375 56.78125 20.515625 
Q 56.78125 9.90625 50.3125 4.234375 
Q 43.84375 -1.421875 31.78125 -1.421875 
Q 19.734375 -1.421875 13.25 4.234375 
Q 6.78125 9.90625 6.78125 20.515625 
Q 6.78125 27.484375 10.78125 32.3125 
Q 14.796875 37.15625 21.921875 38.8125 
z
M 18.3125 54.390625 
Q 18.3125 48.734375 21.84375 45.5625 
Q 25.390625 42.390625 31.78125 42.390625 
Q 38.140625 42.390625 41.71875 45.5625 
Q 45.3125 48.734375 45.3125 54.390625 
Q 45.3125 60.0625 41.71875 63.234375 
Q 38.140625 66.40625 31.78125 66.40625 
Q 25.390625 66.40625 21.84375 63.234375 
Q 18.3125 60.0625 18.3125 54.390625 
z
" id="DejaVuSans-56"/>
      </defs>
      <g transform="translate(447.988438 463.158437)scale(0.1 -0.1)">
       <use xlink:href="#DejaVuSans-48"/>
       <use x="63.623047" xlink:href="#DejaVuSans-46"/>
       <use x="95.410156" xlink:href="#DejaVuSans-56"/>
      </g>
     </g>
    </g>
    <g id="xtick_10">
     <g id="line2d_19">
      <path clip-path="url(#pbf802c7677)" d="M 503.37 448.56 
L 503.37 60.48 
" style="fill:none;stroke:#b0b0b0;stroke-linecap:square;stroke-width:0.8;"/>
     </g>
     <g id="line2d_20">
      <g>
       <use style="stroke:#000000;stroke-width:0.8;" x="503.37" xlink:href="#mede5c514bf" y="448.56"/>
      </g>
     </g>
     <g id="text_10">
      <!-- 0.9 -->
      <defs>
       <path d="M 10.984375 1.515625 
L 10.984375 10.5 
Q 14.703125 8.734375 18.5 7.8125 
Q 22.3125 6.890625 25.984375 6.890625 
Q 35.75 6.890625 40.890625 13.453125 
Q 46.046875 20.015625 46.78125 33.40625 
Q 43.953125 29.203125 39.59375 26.953125 
Q 35.25 24.703125 29.984375 24.703125 
Q 19.046875 24.703125 12.671875 31.3125 
Q 6.296875 37.9375 6.296875 49.421875 
Q 6.296875 60.640625 12.9375 67.421875 
Q 19.578125 74.21875 30.609375 74.21875 
Q 43.265625 74.21875 49.921875 64.515625 
Q 56.59375 54.828125 56.59375 36.375 
Q 56.59375 19.140625 48.40625 8.859375 
Q 40.234375 -1.421875 26.421875 -1.421875 
Q 22.703125 -1.421875 18.890625 -0.6875 
Q 15.09375 0.046875 10.984375 1.515625 
z
M 30.609375 32.421875 
Q 37.25 32.421875 41.125 36.953125 
Q 45.015625 41.5 45.015625 49.421875 
Q 45.015625 57.28125 41.125 61.84375 
Q 37.25 66.40625 30.609375 66.40625 
Q 23.96875 66.40625 20.09375 61.84375 
Q 16.21875 57.28125 16.21875 49.421875 
Q 16.21875 41.5 20.09375 36.953125 
Q 23.96875 32.421875 30.609375 32.421875 
z
" id="DejaVuSans-57"/>
      </defs>
      <g transform="translate(495.418438 463.158437)scale(0.1 -0.1)">
       <use xlink:href="#DejaVuSans-48"/>
       <use x="63.623047" xlink:href="#DejaVuSans-46"/>
       <use x="95.410156" xlink:href="#DejaVuSans-57"/>
      </g>
     </g>
    </g>
    <g id="xtick_11">
     <g id="line2d_21">
      <path clip-path="url(#pbf802c7677)" d="M 550.8 448.56 
L 550.8 60.48 
" style="fill:none;stroke:#b0b0b0;stroke-linecap:square;stroke-width:0.8;"/>
     </g>
     <g id="line2d_22">
      <g>
       <use style="stroke:#000000;stroke-width:0.8;" x="550.8" xlink:href="#mede5c514bf" y="448.56"/>
      </g>
     </g>
     <g id="text_11">
      <!-- 1.0 -->
      <g transform="translate(542.848438 463.158437)scale(0.1 -0.1)">
       <use xlink:href="#DejaVuSans-49"/>
       <use x="63.623047" xlink:href="#DejaVuSans-46"/>
       <use x="95.410156" xlink:href="#DejaVuSans-48"/>
      </g>
     </g>
    </g>
    <g id="text_12">
     <!-- 1-precision -->
     <defs>
      <path d="M 4.890625 31.390625 
L 31.203125 31.390625 
L 31.203125 23.390625 
L 4.890625 23.390625 
z
" id="DejaVuSans-45"/>
      <path d="M 18.109375 8.203125 
L 18.109375 -20.796875 
L 9.078125 -20.796875 
L 9.078125 54.6875 
L 18.109375 54.6875 
L 18.109375 46.390625 
Q 20.953125 51.265625 25.265625 53.625 
Q 29.59375 56 35.59375 56 
Q 45.5625 56 51.78125 48.09375 
Q 58.015625 40.1875 58.015625 27.296875 
Q 58.015625 14.40625 51.78125 6.484375 
Q 45.5625 -1.421875 35.59375 -1.421875 
Q 29.59375 -1.421875 25.265625 0.953125 
Q 20.953125 3.328125 18.109375 8.203125 
z
M 48.6875 27.296875 
Q 48.6875 37.203125 44.609375 42.84375 
Q 40.53125 48.484375 33.40625 48.484375 
Q 26.265625 48.484375 22.1875 42.84375 
Q 18.109375 37.203125 18.109375 27.296875 
Q 18.109375 17.390625 22.1875 11.75 
Q 26.265625 6.109375 33.40625 6.109375 
Q 40.53125 6.109375 44.609375 11.75 
Q 48.6875 17.390625 48.6875 27.296875 
z
" id="DejaVuSans-112"/>
      <path d="M 41.109375 46.296875 
Q 39.59375 47.171875 37.8125 47.578125 
Q 36.03125 48 33.890625 48 
Q 26.265625 48 22.1875 43.046875 
Q 18.109375 38.09375 18.109375 28.8125 
L 18.109375 0 
L 9.078125 0 
L 9.078125 54.6875 
L 18.109375 54.6875 
L 18.109375 46.1875 
Q 20.953125 51.171875 25.484375 53.578125 
Q 30.03125 56 36.53125 56 
Q 37.453125 56 38.578125 55.875 
Q 39.703125 55.765625 41.0625 55.515625 
z
" id="DejaVuSans-114"/>
      <path d="M 56.203125 29.59375 
L 56.203125 25.203125 
L 14.890625 25.203125 
Q 15.484375 15.921875 20.484375 11.0625 
Q 25.484375 6.203125 34.421875 6.203125 
Q 39.59375 6.203125 44.453125 7.46875 
Q 49.3125 8.734375 54.109375 11.28125 
L 54.109375 2.78125 
Q 49.265625 0.734375 44.1875 -0.34375 
Q 39.109375 -1.421875 33.890625 -1.421875 
Q 20.796875 -1.421875 13.15625 6.1875 
Q 5.515625 13.8125 5.515625 26.8125 
Q 5.515625 40.234375 12.765625 48.109375 
Q 20.015625 56 32.328125 56 
Q 43.359375 56 49.78125 48.890625 
Q 56.203125 41.796875 56.203125 29.59375 
z
M 47.21875 32.234375 
Q 47.125 39.59375 43.09375 43.984375 
Q 39.0625 48.390625 32.421875 48.390625 
Q 24.90625 48.390625 20.390625 44.140625 
Q 15.875 39.890625 15.1875 32.171875 
z
" id="DejaVuSans-101"/>
      <path d="M 48.78125 52.59375 
L 48.78125 44.1875 
Q 44.96875 46.296875 41.140625 47.34375 
Q 37.3125 48.390625 33.40625 48.390625 
Q 24.65625 48.390625 19.8125 42.84375 
Q 14.984375 37.3125 14.984375 27.296875 
Q 14.984375 17.28125 19.8125 11.734375 
Q 24.65625 6.203125 33.40625 6.203125 
Q 37.3125 6.203125 41.140625 7.25 
Q 44.96875 8.296875 48.78125 10.40625 
L 48.78125 2.09375 
Q 45.015625 0.34375 40.984375 -0.53125 
Q 36.96875 -1.421875 32.421875 -1.421875 
Q 20.0625 -1.421875 12.78125 6.34375 
Q 5.515625 14.109375 5.515625 27.296875 
Q 5.515625 40.671875 12.859375 48.328125 
Q 20.21875 56 33.015625 56 
Q 37.15625 56 41.109375 55.140625 
Q 45.0625 54.296875 48.78125 52.59375 
z
" id="DejaVuSans-99"/>
      <path d="M 9.421875 54.6875 
L 18.40625 54.6875 
L 18.40625 0 
L 9.421875 0 
z
M 9.421875 75.984375 
L 18.40625 75.984375 
L 18.40625 64.59375 
L 9.421875 64.59375 
z
" id="DejaVuSans-105"/>
      <path d="M 44.28125 53.078125 
L 44.28125 44.578125 
Q 40.484375 46.53125 36.375 47.5 
Q 32.28125 48.484375 27.875 48.484375 
Q 21.1875 48.484375 17.84375 46.4375 
Q 14.5 44.390625 14.5 40.28125 
Q 14.5 37.15625 16.890625 35.375 
Q 19.28125 33.59375 26.515625 31.984375 
L 29.59375 31.296875 
Q 39.15625 29.25 43.1875 25.515625 
Q 47.21875 21.78125 47.21875 15.09375 
Q 47.21875 7.46875 41.1875 3.015625 
Q 35.15625 -1.421875 24.609375 -1.421875 
Q 20.21875 -1.421875 15.453125 -0.5625 
Q 10.6875 0.296875 5.421875 2 
L 5.421875 11.28125 
Q 10.40625 8.6875 15.234375 7.390625 
Q 20.0625 6.109375 24.8125 6.109375 
Q 31.15625 6.109375 34.5625 8.28125 
Q 37.984375 10.453125 37.984375 14.40625 
Q 37.984375 18.0625 35.515625 20.015625 
Q 33.0625 21.96875 24.703125 23.78125 
L 21.578125 24.515625 
Q 13.234375 26.265625 9.515625 29.90625 
Q 5.8125 33.546875 5.8125 39.890625 
Q 5.8125 47.609375 11.28125 51.796875 
Q 16.75 56 26.8125 56 
Q 31.78125 56 36.171875 55.265625 
Q 40.578125 54.546875 44.28125 53.078125 
z
" id="DejaVuSans-115"/>
      <path d="M 30.609375 48.390625 
Q 23.390625 48.390625 19.1875 42.75 
Q 14.984375 37.109375 14.984375 27.296875 
Q 14.984375 17.484375 19.15625 11.84375 
Q 23.34375 6.203125 30.609375 6.203125 
Q 37.796875 6.203125 41.984375 11.859375 
Q 46.1875 17.53125 46.1875 27.296875 
Q 46.1875 37.015625 41.984375 42.703125 
Q 37.796875 48.390625 30.609375 48.390625 
z
M 30.609375 56 
Q 42.328125 56 49.015625 48.375 
Q 55.71875 40.765625 55.71875 27.296875 
Q 55.71875 13.875 49.015625 6.21875 
Q 42.328125 -1.421875 30.609375 -1.421875 
Q 18.84375 -1.421875 12.171875 6.21875 
Q 5.515625 13.875 5.515625 27.296875 
Q 5.515625 40.765625 12.171875 48.375 
Q 18.84375 56 30.609375 56 
z
" id="DejaVuSans-111"/>
      <path d="M 54.890625 33.015625 
L 54.890625 0 
L 45.90625 0 
L 45.90625 32.71875 
Q 45.90625 40.484375 42.875 44.328125 
Q 39.84375 48.1875 33.796875 48.1875 
Q 26.515625 48.1875 22.3125 43.546875 
Q 18.109375 38.921875 18.109375 30.90625 
L 18.109375 0 
L 9.078125 0 
L 9.078125 54.6875 
L 18.109375 54.6875 
L 18.109375 46.1875 
Q 21.34375 51.125 25.703125 53.5625 
Q 30.078125 56 35.796875 56 
Q 45.21875 56 50.046875 50.171875 
Q 54.890625 44.34375 54.890625 33.015625 
z
" id="DejaVuSans-110"/>
     </defs>
     <g transform="translate(286.110938 476.836563)scale(0.1 -0.1)">
      <use xlink:href="#DejaVuSans-49"/>
      <use x="63.623047" xlink:href="#DejaVuSans-45"/>
      <use x="99.707031" xlink:href="#DejaVuSans-112"/>
      <use x="163.183594" xlink:href="#DejaVuSans-114"/>
      <use x="202.046875" xlink:href="#DejaVuSans-101"/>
      <use x="263.570312" xlink:href="#DejaVuSans-99"/>
      <use x="318.550781" xlink:href="#DejaVuSans-105"/>
      <use x="346.333984" xlink:href="#DejaVuSans-115"/>
      <use x="398.433594" xlink:href="#DejaVuSans-105"/>
      <use x="426.216797" xlink:href="#DejaVuSans-111"/>
      <use x="487.398438" xlink:href="#DejaVuSans-110"/>
     </g>
    </g>
   </g>
   <g id="matplotlib.axis_2">
    <g id="ytick_1">
     <g id="line2d_23">
      <path clip-path="url(#pbf802c7677)" d="M 76.5 448.56 
L 550.8 448.56 
" style="fill:none;stroke:#b0b0b0;stroke-linecap:square;stroke-width:0.8;"/>
     </g>
     <g id="line2d_24">
      <defs>
       <path d="M 0 0 
L -3.5 0 
" id="mf4509b7239" style="stroke:#000000;stroke-width:0.8;"/>
      </defs>
      <g>
       <use style="stroke:#000000;stroke-width:0.8;" x="76.5" xlink:href="#mf4509b7239" y="448.56"/>
      </g>
     </g>
     <g id="text_13">
      <!-- 0.0 -->
      <g transform="translate(53.596875 452.359219)scale(0.1 -0.1)">
       <use xlink:href="#DejaVuSans-48"/>
       <use x="63.623047" xlink:href="#DejaVuSans-46"/>
       <use x="95.410156" xlink:href="#DejaVuSans-48"/>
      </g>
     </g>
    </g>
    <g id="ytick_2">
     <g id="line2d_25">
      <path clip-path="url(#pbf802c7677)" d="M 76.5 409.752 
L 550.8 409.752 
" style="fill:none;stroke:#b0b0b0;stroke-linecap:square;stroke-width:0.8;"/>
     </g>
     <g id="line2d_26">
      <g>
       <use style="stroke:#000000;stroke-width:0.8;" x="76.5" xlink:href="#mf4509b7239" y="409.752"/>
      </g>
     </g>
     <g id="text_14">
      <!-- 0.1 -->
      <g transform="translate(53.596875 413.551219)scale(0.1 -0.1)">
       <use xlink:href="#DejaVuSans-48"/>
       <use x="63.623047" xlink:href="#DejaVuSans-46"/>
       <use x="95.410156" xlink:href="#DejaVuSans-49"/>
      </g>
     </g>
    </g>
    <g id="ytick_3">
     <g id="line2d_27">
      <path clip-path="url(#pbf802c7677)" d="M 76.5 370.944 
L 550.8 370.944 
" style="fill:none;stroke:#b0b0b0;stroke-linecap:square;stroke-width:0.8;"/>
     </g>
     <g id="line2d_28">
      <g>
       <use style="stroke:#000000;stroke-width:0.8;" x="76.5" xlink:href="#mf4509b7239" y="370.944"/>
      </g>
     </g>
     <g id="text_15">
      <!-- 0.2 -->
      <g transform="translate(53.596875 374.743219)scale(0.1 -0.1)">
       <use xlink:href="#DejaVuSans-48"/>
       <use x="63.623047" xlink:href="#DejaVuSans-46"/>
       <use x="95.410156" xlink:href="#DejaVuSans-50"/>
      </g>
     </g>
    </g>
    <g id="ytick_4">
     <g id="line2d_29">
      <path clip-path="url(#pbf802c7677)" d="M 76.5 332.136 
L 550.8 332.136 
" style="fill:none;stroke:#b0b0b0;stroke-linecap:square;stroke-width:0.8;"/>
     </g>
     <g id="line2d_30">
      <g>
       <use style="stroke:#000000;stroke-width:0.8;" x="76.5" xlink:href="#mf4509b7239" y="332.136"/>
      </g>
     </g>
     <g id="text_16">
      <!-- 0.3 -->
      <g transform="translate(53.596875 335.935219)scale(0.1 -0.1)">
       <use xlink:href="#DejaVuSans-48"/>
       <use x="63.623047" xlink:href="#DejaVuSans-46"/>
       <use x="95.410156" xlink:href="#DejaVuSans-51"/>
      </g>
     </g>
    </g>
    <g id="ytick_5">
     <g id="line2d_31">
      <path clip-path="url(#pbf802c7677)" d="M 76.5 293.328 
L 550.8 293.328 
" style="fill:none;stroke:#b0b0b0;stroke-linecap:square;stroke-width:0.8;"/>
     </g>
     <g id="line2d_32">
      <g>
       <use style="stroke:#000000;stroke-width:0.8;" x="76.5" xlink:href="#mf4509b7239" y="293.328"/>
      </g>
     </g>
     <g id="text_17">
      <!-- 0.4 -->
      <g transform="translate(53.596875 297.127219)scale(0.1 -0.1)">
       <use xlink:href="#DejaVuSans-48"/>
       <use x="63.623047" xlink:href="#DejaVuSans-46"/>
       <use x="95.410156" xlink:href="#DejaVuSans-52"/>
      </g>
     </g>
    </g>
    <g id="ytick_6">
     <g id="line2d_33">
      <path clip-path="url(#pbf802c7677)" d="M 76.5 254.52 
L 550.8 254.52 
" style="fill:none;stroke:#b0b0b0;stroke-linecap:square;stroke-width:0.8;"/>
     </g>
     <g id="line2d_34">
      <g>
       <use style="stroke:#000000;stroke-width:0.8;" x="76.5" xlink:href="#mf4509b7239" y="254.52"/>
      </g>
     </g>
     <g id="text_18">
      <!-- 0.5 -->
      <g transform="translate(53.596875 258.319219)scale(0.1 -0.1)">
       <use xlink:href="#DejaVuSans-48"/>
       <use x="63.623047" xlink:href="#DejaVuSans-46"/>
       <use x="95.410156" xlink:href="#DejaVuSans-53"/>
      </g>
     </g>
    </g>
    <g id="ytick_7">
     <g id="line2d_35">
      <path clip-path="url(#pbf802c7677)" d="M 76.5 215.712 
L 550.8 215.712 
" style="fill:none;stroke:#b0b0b0;stroke-linecap:square;stroke-width:0.8;"/>
     </g>
     <g id="line2d_36">
      <g>
       <use style="stroke:#000000;stroke-width:0.8;" x="76.5" xlink:href="#mf4509b7239" y="215.712"/>
      </g>
     </g>
     <g id="text_19">
      <!-- 0.6 -->
      <g transform="translate(53.596875 219.511219)scale(0.1 -0.1)">
       <use xlink:href="#DejaVuSans-48"/>
       <use x="63.623047" xlink:href="#DejaVuSans-46"/>
       <use x="95.410156" xlink:href="#DejaVuSans-54"/>
      </g>
     </g>
    </g>
    <g id="ytick_8">
     <g id="line2d_37">
      <path clip-path="url(#pbf802c7677)" d="M 76.5 176.904 
L 550.8 176.904 
" style="fill:none;stroke:#b0b0b0;stroke-linecap:square;stroke-width:0.8;"/>
     </g>
     <g id="line2d_38">
      <g>
       <use style="stroke:#000000;stroke-width:0.8;" x="76.5" xlink:href="#mf4509b7239" y="176.904"/>
      </g>
     </g>
     <g id="text_20">
      <!-- 0.7 -->
      <g transform="translate(53.596875 180.703219)scale(0.1 -0.1)">
       <use xlink:href="#DejaVuSans-48"/>
       <use x="63.623047" xlink:href="#DejaVuSans-46"/>
       <use x="95.410156" xlink:href="#DejaVuSans-55"/>
      </g>
     </g>
    </g>
    <g id="ytick_9">
     <g id="line2d_39">
      <path clip-path="url(#pbf802c7677)" d="M 76.5 138.096 
L 550.8 138.096 
" style="fill:none;stroke:#b0b0b0;stroke-linecap:square;stroke-width:0.8;"/>
     </g>
     <g id="line2d_40">
      <g>
       <use style="stroke:#000000;stroke-width:0.8;" x="76.5" xlink:href="#mf4509b7239" y="138.096"/>
      </g>
     </g>
     <g id="text_21">
      <!-- 0.8 -->
      <g transform="translate(53.596875 141.895219)scale(0.1 -0.1)">
       <use xlink:href="#DejaVuSans-48"/>
       <use x="63.623047" xlink:href="#DejaVuSans-46"/>
       <use x="95.410156" xlink:href="#DejaVuSans-56"/>
      </g>
     </g>
    </g>
    <g id="ytick_10">
     <g id="line2d_41">
      <path clip-path="url(#pbf802c7677)" d="M 76.5 99.288 
L 550.8 99.288 
" style="fill:none;stroke:#b0b0b0;stroke-linecap:square;stroke-width:0.8;"/>
     </g>
     <g id="line2d_42">
      <g>
       <use style="stroke:#000000;stroke-width:0.8;" x="76.5" xlink:href="#mf4509b7239" y="99.288"/>
      </g>
     </g>
     <g id="text_22">
      <!-- 0.9 -->
      <g transform="translate(53.596875 103.087219)scale(0.1 -0.1)">
       <use xlink:href="#DejaVuSans-48"/>
       <use x="63.623047" xlink:href="#DejaVuSans-46"/>
       <use x="95.410156" xlink:href="#DejaVuSans-57"/>
      </g>
     </g>
    </g>
    <g id="ytick_11">
     <g id="line2d_43">
      <path clip-path="url(#pbf802c7677)" d="M 76.5 60.48 
L 550.8 60.48 
" style="fill:none;stroke:#b0b0b0;stroke-linecap:square;stroke-width:0.8;"/>
     </g>
     <g id="line2d_44">
      <g>
       <use style="stroke:#000000;stroke-width:0.8;" x="76.5" xlink:href="#mf4509b7239" y="60.48"/>
      </g>
     </g>
     <g id="text_23">
      <!-- 1.0 -->
      <g transform="translate(53.596875 64.279219)scale(0.1 -0.1)">
       <use xlink:href="#DejaVuSans-49"/>
       <use x="63.623047" xlink:href="#DejaVuSans-46"/>
       <use x="95.410156" xlink:href="#DejaVuSans-48"/>
      </g>
     </g>
    </g>
    <g id="text_24">
     <!-- #correct/887 -->
     <defs>
      <path d="M 51.125 44 
L 36.921875 44 
L 32.8125 27.6875 
L 47.125 27.6875 
z
M 43.796875 71.78125 
L 38.71875 51.515625 
L 52.984375 51.515625 
L 58.109375 71.78125 
L 65.921875 71.78125 
L 60.890625 51.515625 
L 76.125 51.515625 
L 76.125 44 
L 58.984375 44 
L 54.984375 27.6875 
L 70.515625 27.6875 
L 70.515625 20.21875 
L 53.078125 20.21875 
L 48 0 
L 40.1875 0 
L 45.21875 20.21875 
L 30.90625 20.21875 
L 25.875 0 
L 18.015625 0 
L 23.09375 20.21875 
L 7.71875 20.21875 
L 7.71875 27.6875 
L 24.90625 27.6875 
L 29 44 
L 13.28125 44 
L 13.28125 51.515625 
L 30.90625 51.515625 
L 35.890625 71.78125 
z
" id="DejaVuSans-35"/>
      <path d="M 18.3125 70.21875 
L 18.3125 54.6875 
L 36.8125 54.6875 
L 36.8125 47.703125 
L 18.3125 47.703125 
L 18.3125 18.015625 
Q 18.3125 11.328125 20.140625 9.421875 
Q 21.96875 7.515625 27.59375 7.515625 
L 36.8125 7.515625 
L 36.8125 0 
L 27.59375 0 
Q 17.1875 0 13.234375 3.875 
Q 9.28125 7.765625 9.28125 18.015625 
L 9.28125 47.703125 
L 2.6875 47.703125 
L 2.6875 54.6875 
L 9.28125 54.6875 
L 9.28125 70.21875 
z
" id="DejaVuSans-116"/>
      <path d="M 25.390625 72.90625 
L 33.6875 72.90625 
L 8.296875 -9.28125 
L 0 -9.28125 
z
" id="DejaVuSans-47"/>
     </defs>
     <g transform="translate(47.517187 287.443438)rotate(-90)scale(0.1 -0.1)">
      <use xlink:href="#DejaVuSans-35"/>
      <use x="83.789062" xlink:href="#DejaVuSans-99"/>
      <use x="138.769531" xlink:href="#DejaVuSans-111"/>
      <use x="199.951172" xlink:href="#DejaVuSans-114"/>
      <use x="239.314453" xlink:href="#DejaVuSans-114"/>
      <use x="278.177734" xlink:href="#DejaVuSans-101"/>
      <use x="339.701172" xlink:href="#DejaVuSans-99"/>
      <use x="394.681641" xlink:href="#DejaVuSans-116"/>
      <use x="433.890625" xlink:href="#DejaVuSans-47"/>
      <use x="467.582031" xlink:href="#DejaVuSans-56"/>
      <use x="531.205078" xlink:href="#DejaVuSans-56"/>
      <use x="594.828125" xlink:href="#DejaVuSans-55"/>
     </g>
    </g>
   </g>
   <g id="line2d_45">
    <path clip-path="url(#pbf802c7677)" d="M 76.5 448.12248 
L 76.5 206.17407 
L 77.354595 206.17407 
L 77.336508 200.923833 
L 78.17007 200.923833 
L 78.164211 200.048794 
L 78.991944 200.048794 
L 78.961765 196.986156 
L 79.776684 196.986156 
L 79.759794 195.673596 
L 80.567753 195.673596 
L 80.560788 195.236077 
L 81.364615 195.236077 
L 81.331579 193.485998 
L 82.127288 193.485998 
L 82.08 191.298399 
L 82.866443 191.298399 
L 82.855779 190.860879 
L 83.638294 190.860879 
L 83.6145 189.98584 
L 84.391847 189.98584 
L 84.326733 187.798241 
L 85.095222 187.798241 
L 85.066995 186.923202 
L 85.830492 186.923202 
L 85.769707 185.173123 
L 87.279545 185.173123 
L 87.24466 184.298083 
L 87.993538 184.298083 
L 87.919743 182.548005 
L 88.661538 182.548005 
L 88.64208 182.110485 
L 89.380351 182.110485 
L 89.318919 180.797926 
L 90.051429 180.797926 
L 90.029952 180.360406 
L 92.210252 180.360406 
L 92.160849 179.485366 
L 95.027344 179.485366 
L 94.99844 179.047847 
L 95.708411 179.047847 
L 95.678538 178.610327 
L 97.792105 178.610327 
L 97.628571 176.422728 
L 99.707339 176.422728 
L 99.636585 175.547689 
L 101.69044 175.547689 
L 101.652273 175.110169 
L 103.009215 175.110169 
L 102.929367 174.23513 
L 104.274324 174.23513 
L 104.149776 172.92257 
L 104.816418 172.92257 
L 104.732143 172.047531 
L 105.394948 172.047531 
L 105.352077 171.610011 
L 108.632253 171.610011 
L 108.585 171.172492 
L 109.234361 171.172492 
L 109.186364 170.734972 
L 110.477632 170.734972 
L 110.378571 169.859932 
L 111.658866 169.859932 
L 111.607837 169.422413 
L 114.772046 169.422413 
L 114.716978 168.984893 
L 116.591261 168.984893 
L 116.533906 168.547373 
L 117.772896 168.547373 
L 117.714103 168.109853 
L 118.330156 168.109853 
L 118.270739 167.672334 
L 118.884255 167.672334 
L 118.764356 166.797294 
L 119.983075 166.797294 
L 119.79986 165.484735 
L 124.58875 165.484735 
L 124.522053 165.047215 
L 126.288398 165.047215 
L 126.219724 164.609696 
L 132.565353 164.609696 
L 132.489281 164.172176 
L 133.056098 164.172176 
L 132.979567 163.734656 
L 136.900134 163.734656 
L 136.819277 163.297136 
L 137.9247 163.297136 
L 137.8428 162.859617 
L 139.488048 162.859617 
L 139.404509 162.422097 
L 141.575462 162.422097 
L 141.489723 161.984577 
L 145.758931 161.984577 
L 145.578804 161.109538 
L 146.105065 161.109538 
L 146.014786 160.672018 
L 146.539119 160.672018 
L 146.448512 160.234498 
L 146.97093 160.234498 
L 146.88 159.796979 
L 148.437532 159.796979 
L 148.345186 159.359459 
L 149.88913 159.359459 
L 149.795402 158.921939 
L 150.81707 158.921939 
L 150.722519 158.484419 
L 152.748228 158.484419 
L 152.651833 158.0469 
L 155.152764 158.0469 
L 154.955639 157.17186 
L 158.397764 157.17186 
L 158.296154 156.73434 
L 167.799879 156.73434 
L 167.579348 155.859301 
L 172.603695 155.859301 
L 172.489286 155.421781 
L 174.282227 155.421781 
L 174.166509 154.984262 
L 181.165505 154.984262 
L 181.044084 154.546742 
L 182.751963 154.546742 
L 182.629412 154.109222 
L 183.476755 154.109222 
L 183.108716 152.796663 
L 190.949495 152.796663 
L 190.821188 152.359143 
L 192.428237 152.359143 
L 192.298997 151.921623 
L 195.075 151.921623 
L 194.943978 151.484104 
L 196.509901 151.484104 
L 196.378022 151.046584 
L 199.848966 151.046584 
L 199.714891 150.609064 
L 200.096091 150.609064 
L 199.962039 150.171545 
L 200.721429 150.171545 
L 200.453132 149.296505 
L 211.801881 149.296505 
L 211.660647 148.858985 
L 220.285758 148.858985 
L 219.993807 147.983946 
L 221.664545 147.983946 
L 221.371875 147.108906 
L 224.984746 147.108906 
L 224.541948 145.796347 
L 246.332839 145.796347 
L 246.17544 145.358828 
L 252.803717 145.358828 
L 252.644022 144.921308 
L 253.988278 144.921308 
L 253.828378 144.483788 
L 262.906114 144.483788 
L 262.743455 144.046268 
L 263.745391 144.046268 
L 263.582711 143.608749 
L 265.318912 143.608749 
L 265.155997 143.171229 
L 267.357021 143.171229 
L 267.193755 142.733709 
L 269.599237 142.733709 
L 269.435593 142.296189 
L 276.864356 142.296189 
L 276.699176 141.85867 
L 280.92638 141.85867 
L 280.760584 141.42115 
L 283.57801 141.42115 
L 283.411949 140.98363 
L 289.897887 140.98363 
L 289.73104 140.54611 
L 297.648218 140.54611 
L 297.480682 140.108591 
L 303.293338 140.108591 
L 303.125592 139.671071 
L 304.763409 139.671071 
L 304.595815 139.233551 
L 305.854711 139.233551 
L 305.687299 138.796032 
L 313.146497 138.796032 
L 312.979137 138.358512 
L 314.483275 138.358512 
L 314.316152 137.920992 
L 319.354639 137.920992 
L 319.187843 137.483472 
L 320.138372 137.483472 
L 319.971839 137.045953 
L 326.56255 137.045953 
L 326.396616 136.608433 
L 326.84245 136.608433 
L 326.67677 136.170913 
L 327.268515 136.170913 
L 327.1031 135.733393 
L 329.43936 135.733393 
L 329.274364 135.295874 
L 342.7125 135.295874 
L 342.549479 134.858354 
L 343.816981 134.858354 
L 343.65438 134.420834 
L 346.389796 134.420834 
L 346.227894 133.983315 
L 350.08093 133.983315 
L 349.92 133.545795 
L 350.038095 133.545795 
L 371.537008 133.545795 
L 371.382214 133.108275 
L 371.476298 133.108275 
L 381.591539 133.108275 
L 381.440653 132.670755 
L 381.52437 132.670755 
L 383.017246 132.670755 
L 382.86714 132.233236 
L 382.949339 132.233236 
L 388.586708 132.233236 
L 388.439149 131.795716 
L 388.515879 131.795716 
L 390.035393 131.795716 
L 389.888676 131.358196 
L 389.963938 131.358196 
L 392.772656 131.358196 
L 392.627377 130.920676 
L 392.7 130.920676 
L 411.896491 130.920676 
L 411.76125 130.483157 
L 411.873288 130.483157 
L 416.525818 130.483157 
L 416.39346 130.045637 
L 416.498016 130.045637 
L 436.161753 130.045637 
L 436.042383 129.608117 
L 436.156532 129.608117 
" style="fill:none;stroke:#1f77b4;stroke-linecap:square;stroke-width:2;"/>
   </g>
   <g id="line2d_46">
    <path clip-path="url(#pbf802c7677)" d="M 76.5 448.12248 
L 76.5 447.247441 
L 313.65 447.247441 
L 254.3625 446.372401 
L 287.3 446.372401 
L 266.22 445.934882 
L 361.08 445.934882 
L 327.6 445.059842 
L 301.168421 444.184803 
L 344.582609 444.184803 
L 333.4125 443.747283 
L 342.108 443.747283 
L 331.892308 443.309763 
L 340 443.309763 
L 330.589286 442.872244 
L 432.225 442.872244 
L 425.513208 442.434724 
L 427.833333 442.434724 
L 421.445455 441.997204 
L 425.984211 441.997204 
L 419.958621 441.559684 
L 422.176271 441.559684 
L 416.415 441.122165 
L 418.618033 441.122165 
L 413.1 440.684645 
L 436.968 440.684645 
L 432.225 440.247125 
L 454.930851 440.247125 
L 450.947368 439.809605 
L 470.410169 439.809605 
L 467.1 439.372086 
L 467.7975 439.372086 
L 468.483471 439.372086 
L 465.270492 438.934566 
L 465.965854 438.934566 
L 467.985714 438.934566 
L 464.90315 438.497046 
L 465.574219 438.497046 
L 466.234884 438.497046 
L 463.236923 438.059526 
L 463.905344 438.059526 
L 464.563636 438.059526 
L 459.453333 437.184487 
L 468.588 437.184487 
L 465.991391 436.746967 
L 466.549342 436.746967 
L 467.643506 436.746967 
L 463.190446 435.871928 
L 478.406842 435.871928 
L 476.302618 435.434408 
L 476.690625 435.434408 
L 479.655 435.434408 
L 477.649254 434.996888 
L 478.011386 434.996888 
L 480.449282 434.996888 
L 478.525714 434.559369 
L 478.868246 434.559369 
L 495.204396 434.559369 
L 493.676277 434.121849 
L 493.884 434.121849 
L 496.453125 434.121849 
L 495 433.684329 
L 495.383505 433.684329 
L 501.180923 433.684329 
L 498.583486 432.80929 
L 498.900912 432.80929 
L 502.701972 432.80929 
L 501.504775 432.37177 
L 501.780168 432.37177 
L 508.715827 432.37177 
L 507.681818 431.93425 
L 507.887143 431.93425 
L 508.291981 431.93425 
L 507.276 431.496731 
L 507.479859 431.496731 
L 511.105365 431.496731 
L 510.174732 431.059211 
L 510.434043 431.059211 
L 510.774684 431.059211 
L 509.037736 430.184171 
L 509.125105 430.184171 
L 514.046125 430.184171 
L 513.240331 429.746652 
L 513.446703 429.746652 
L 514.25 429.746652 
L 513.466905 429.309132 
L 513.666192 429.309132 
L 515.368421 429.309132 
L 514.624576 428.871612 
L 514.807589 428.871612 
L 515.695559 428.871612 
L 514.974384 428.434092 
L 515.15 428.434092 
L 518.525148 428.434092 
L 517.87223 427.996573 
L 518.065639 427.996573 
L 518.209211 427.996573 
L 517.56438 427.559053 
L 517.757329 427.559053 
L 519.698361 427.559053 
L 518.490736 426.684014 
L 518.665854 426.684014 
L 519.347745 426.684014 
L 518.761192 426.246494 
L 518.93004 426.246494 
L 519.547674 426.246494 
L 518.976 425.808974 
L 519.139409 425.808974 
L 519.18 425.808974 
L 518.172994 424.933935 
L 518.214504 424.933935 
L 518.255909 424.933935 
L 517.695305 424.496415 
L 517.8625 424.496415 
L 518.11015 424.496415 
L 517.557447 424.058895 
L 517.723039 424.058895 
L 517.805217 424.058895 
L 517.257692 423.621375 
L 517.423333 423.621375 
L 519.689413 423.621375 
L 519.18 423.183856 
L 519.324714 423.183856 
L 520.06324 423.183856 
L 519.568192 422.746336 
L 519.707 422.746336 
L 521.250158 422.746336 
L 520.781013 422.308816 
L 520.93851 422.308816 
L 521.094363 422.308816 
L 520.630761 421.871297 
L 520.787241 421.871297 
L 521.277245 421.871297 
L 520.823853 421.433777 
L 520.975862 421.433777 
L 521.096364 421.433777 
L 520.64773 420.996257 
L 520.799096 420.996257 
L 521.126812 420.996257 
L 520.685714 420.558737 
L 520.834353 420.558737 
L 523.304348 420.558737 
L 522.572949 419.683698 
L 522.623762 419.683698 
L 523.146466 419.683698 
L 522.041916 418.371139 
L 522.092368 418.371139 
L 522.804534 418.371139 
L 522.423077 417.933619 
L 522.567857 417.933619 
L 523.224419 417.933619 
L 522.853693 417.496099 
L 522.992155 417.496099 
L 523.038005 417.496099 
L 522.442998 416.62106 
L 522.741734 416.62106 
L 522.380405 416.18354 
L 522.517808 416.18354 
L 522.653889 416.18354 
L 522.296394 415.74602 
L 522.432775 415.74602 
L 522.612599 415.74602 
L 522.259382 415.308501 
L 522.394326 415.308501 
L 523.050346 415.308501 
L 522.429294 414.433461 
L 522.494415 414.433461 
L 522.921025 414.433461 
L 522.334884 413.558422 
L 522.377528 413.558422 
L 522.525782 413.558422 
L 521.862054 412.683382 
L 521.990667 412.683382 
L 522.160383 412.683382 
L 521.83245 412.245862 
L 521.95978 412.245862 
L 522.820682 412.245862 
L 522.503693 411.808343 
L 522.623762 411.808343 
L 522.723044 411.808343 
L 522.408803 411.370823 
L 522.528261 411.370823 
L 522.977019 411.370823 
L 522.669103 410.933303 
L 522.804255 410.933303 
L 522.957133 410.933303 
L 522.652592 410.495784 
L 522.786354 410.495784 
L 522.975253 410.495784 
L 522.674394 410.058264 
L 522.806439 410.058264 
L 523.484293 410.058264 
L 522.972751 409.183224 
L 523.027066 409.183224 
L 523.188745 409.183224 
L 522.9 408.745705 
L 523.025676 408.745705 
L 523.167926 408.745705 
L 522.650734 407.870665 
L 522.722406 407.870665 
L 523.317196 407.870665 
L 523.038979 407.433145 
L 523.159454 407.433145 
L 523.548044 407.433145 
L 523.274954 406.995626 
L 523.392153 406.995626 
L 523.475258 406.995626 
L 523.204364 406.558106 
L 523.320941 406.558106 
L 524.327442 406.558106 
L 524.067228 406.120586 
L 524.19092 406.120586 
L 525.367662 406.120586 
L 525.119669 405.683067 
L 525.246729 405.683067 
L 525.850242 405.683067 
L 525.422793 404.808027 
L 525.490502 404.808027 
L 525.651538 404.808027 
L 525.229915 403.932988 
L 525.297312 403.932988 
L 525.523824 403.932988 
L 525.289347 403.495468 
L 525.40868 403.495468 
L 525.474495 403.495468 
L 525.022826 402.620428 
L 525.129124 402.620428 
L 525.507212 402.620428 
L 525.279289 402.182909 
L 525.395351 402.182909 
L 525.636937 402.182909 
L 525.412256 401.745389 
L 525.526046 401.745389 
L 525.676188 401.745389 
L 525.269778 400.870349 
L 525.345199 400.870349 
L 525.679155 400.870349 
L 525.341925 399.99531 
L 525.366522 399.99531 
L 525.500961 399.99531 
L 525.119166 399.120271 
L 525.192785 399.120271 
L 525.253813 399.120271 
L 524.863481 398.245231 
L 524.949526 398.245231 
L 524.961772 398.245231 
L 524.749432 397.807711 
L 524.872196 397.807711 
L 525.005907 397.807711 
L 524.795736 397.370192 
L 524.917024 397.370192 
L 525.013243 397.370192 
L 524.498706 396.057632 
L 524.510855 396.057632 
L 524.905551 396.057632 
L 524.60507 395.182593 
L 524.616923 395.182593 
L 524.652418 395.182593 
L 524.259747 394.307554 
L 524.367101 394.307554 
L 524.6608 394.307554 
L 524.182192 392.994994 
L 524.34585 392.994994 
L 524.149254 392.557475 
L 524.265734 392.557475 
L 524.3697 392.557475 
L 524.01503 391.682435 
L 524.096232 391.682435 
L 524.640051 391.682435 
L 524.45 391.244915 
L 524.561275 391.244915 
L 524.726437 391.244915 
L 524.538423 390.807396 
L 524.65904 390.807396 
L 524.789364 390.807396 
L 524.417186 389.932356 
L 524.537107 389.932356 
L 524.677435 389.932356 
L 524.147375 388.619797 
L 524.245403 388.619797 
L 524.277918 388.619797 
L 523.818285 387.307238 
L 523.840195 387.307238 
L 523.872993 387.307238 
L 523.429177 385.994679 
L 523.440218 385.994679 
L 523.593863 385.994679 
L 523.334545 385.119639 
L 523.345509 385.119639 
L 523.356464 385.119639 
L 523.178221 384.68212 
L 523.287962 384.68212 
L 523.353389 384.68212 
L 522.855872 383.36956 
L 522.933005 383.36956 
L 523.129405 383.36956 
L 522.704287 382.057001 
L 522.715232 382.057001 
L 522.791608 382.057001 
L 522.554756 381.181962 
L 522.771527 381.181962 
L 522.537662 380.306922 
L 522.548454 380.306922 
L 522.580778 380.306922 
L 522.262529 379.431883 
L 522.349203 379.431883 
L 522.446084 379.431883 
L 522.277421 378.994363 
L 522.395593 378.994363 
L 522.523397 378.994363 
L 522.189172 378.119324 
L 522.306604 378.119324 
L 522.961028 378.119324 
L 522.798324 377.681804 
L 522.910127 377.681804 
L 522.950562 377.681804 
L 522.557669 376.369245 
L 522.578038 376.369245 
L 522.588212 376.369245 
L 522.307878 375.494205 
L 522.37944 375.494205 
L 522.511393 375.494205 
L 522.193041 374.619166 
L 522.304906 374.619166 
L 522.615506 374.619166 
L 522.458699 374.181646 
L 522.567857 374.181646 
L 522.783669 374.181646 
L 522.628656 373.744126 
L 522.74559 373.744126 
L 523.081169 373.744126 
L 522.928596 373.306607 
L 523.042395 373.306607 
L 523.451827 373.306607 
L 523.302044 372.869087 
L 523.412183 372.869087 
L 523.5938 372.869087 
L 523.5938 372.869087 
" style="fill:none;stroke:#ff7f0e;stroke-linecap:square;stroke-width:2;"/>
   </g>
   <g id="line2d_47">
    <path clip-path="url(#pbf802c7677)" d="M 76.5 448.12248 
L 76.5 440.684645 
L 101.463158 440.684645 
L 99.085714 439.809605 
L 96.2625 438.497046 
L 95.472 438.059526 
L 112.984615 438.059526 
L 109.210345 436.746967 
L 106.14375 435.434408 
L 119.618182 435.434408 
L 116.025 434.121849 
L 112.984615 432.80929 
L 111.204878 431.93425 
L 121.671429 431.93425 
L 117.743478 430.184171 
L 114.444 428.434092 
L 112.984615 427.559053 
L 121.245283 427.559053 
L 118.105263 425.808974 
L 117.387931 425.371454 
L 124.733898 425.371454 
L 122.4 424.058895 
L 135.7875 424.058895 
L 133.132836 422.746336 
L 139.275 422.746336 
L 137.481429 421.871297 
L 143.302817 421.871297 
L 142.375 421.433777 
L 158.712 421.433777 
L 157.630263 420.996257 
L 162.736364 420.996257 
L 159.5025 419.683698 
L 173.645783 419.683698 
L 171.36 418.808658 
L 180.082759 418.808658 
L 177.755056 417.933619 
L 181.9 417.933619 
L 179.608696 417.058579 
L 183.6 417.058579 
L 182.460638 416.62106 
L 193.852577 416.62106 
L 189.20495 414.870981 
L 202.98 414.870981 
L 201.786792 414.433461 
L 205.048598 414.433461 
L 198.223009 411.808343 
L 197.155263 411.370823 
L 200.230435 411.370823 
L 199.163793 410.933303 
L 213.694215 410.933303 
L 211.463415 410.058264 
L 222.151181 410.058264 
L 219.893023 409.183224 
L 224.945038 409.183224 
L 222.712782 408.308185 
L 229.95 408.308185 
L 228.829927 407.870665 
L 233.46259 407.870665 
L 232.341429 407.433145 
L 239.022378 407.433145 
L 237.89375 406.995626 
L 244.279592 406.995626 
L 243.145946 406.558106 
L 249.258278 406.558106 
L 245.892857 405.245547 
L 251.719108 405.245547 
L 248.43375 403.932988 
L 250.311801 403.932988 
L 249.238889 403.495468 
L 252.916463 403.495468 
L 251.847273 403.057948 
L 257.185714 403.057948 
L 255.06 402.182909 
L 256.789474 402.182909 
L 255.741279 401.745389 
L 262.447159 401.745389 
L 260.357865 400.870349 
L 263.585 400.870349 
L 262.551381 400.43283 
L 267.251087 400.43283 
L 266.22 399.99531 
L 272.242857 399.99531 
L 271.212632 399.55779 
L 272.67644 399.55779 
L 271.654688 399.120271 
L 288.075 399.120271 
L 284.00625 397.370192 
L 297.406849 397.370192 
L 295.407692 396.495152 
L 297.698206 396.495152 
L 295.732 395.620113 
L 303.428017 395.620113 
L 302.454077 395.182593 
L 310.697925 395.182593 
L 309.730165 394.745073 
L 310.722222 394.745073 
L 309.762295 394.307554 
L 313.65 394.307554 
L 312.69759 393.870034 
L 318.3 393.870034 
L 317.355469 393.432514 
L 319.165116 393.432514 
L 318.228185 392.994994 
L 326.873978 392.994994 
L 325.946667 392.557475 
L 329.229197 392.557475 
L 328.310182 392.119955 
L 329.116304 392.119955 
L 328.204332 391.682435 
L 331.372954 391.682435 
L 330.469149 391.244915 
L 334.307666 391.244915 
L 332.523529 390.369876 
L 334.023711 390.369876 
L 333.141781 389.932356 
L 336.083108 389.932356 
L 335.209091 389.494837 
L 335.93255 389.494837 
L 334.203 388.619797 
L 336.347525 388.619797 
L 335.492763 388.182277 
L 338.976699 388.182277 
L 338.13 387.744758 
L 338.813826 387.744758 
L 337.973077 387.307238 
L 344.582609 387.307238 
L 343.752632 386.869718 
L 346.908841 386.869718 
L 346.08693 386.432198 
L 347.323867 386.432198 
L 345.697297 385.557159 
L 346.311377 385.557159 
L 344.705357 384.68212 
L 345.316914 384.68212 
L 344.521598 384.2446 
L 348.706957 384.2446 
L 347.920231 383.80708 
L 349.664183 383.80708 
L 348.883714 383.36956 
L 353.945682 383.36956 
L 353.175 382.932041 
L 355.346703 382.932041 
L 354.58274 382.494521 
L 357.756065 382.494521 
L 357 382.057001 
L 360.07619 382.057001 
L 359.327968 381.619481 
L 360.831675 381.619481 
L 360.089295 381.181962 
L 363.512308 381.181962 
L 362.778261 380.744442 
L 364.682278 380.744442 
L 363.954545 380.306922 
L 365.823 380.306922 
L 364.383582 379.431883 
L 364.846154 379.431883 
L 364.132426 378.994363 
L 365.508354 378.994363 
L 364.8 378.556843 
L 367.051816 378.556843 
L 366.35 378.119324 
L 369.416865 378.119324 
L 368.722749 377.681804 
L 376.567347 377.681804 
L 375.888462 377.244284 
L 378.615367 377.244284 
L 377.944 376.806764 
L 379.088742 376.806764 
L 378.422247 376.369245 
L 379.927729 376.369245 
L 379.266667 375.931725 
L 383.281277 375.931725 
L 382.629936 375.494205 
L 388.48832 375.494205 
L 387.850307 375.056685 
L 388.182857 375.056685 
L 386.915854 374.181646 
L 387.248276 374.181646 
L 386.619231 373.744126 
L 387.937952 373.744126 
L 387.313828 373.306607 
L 387.966467 373.306607 
L 386.1125 371.994047 
L 388.05 371.994047 
L 387.440313 371.556528 
L 389.33617 371.556528 
L 388.732239 371.119008 
L 389.044509 371.119008 
L 388.443462 370.681488 
L 389.065517 370.681488 
L 388.467878 370.243968 
L 389.393726 370.243968 
L 388.8 369.806449 
L 389.716981 369.806449 
L 389.127119 369.368929 
L 389.733771 369.368929 
L 389.147191 368.931409 
L 389.449346 368.931409 
L 388.865485 368.49389 
L 389.467472 368.49389 
L 388.886827 368.05637 
L 390.669358 368.05637 
L 390.093956 367.61885 
L 393.55 367.61885 
L 392.982826 367.18133 
L 396.028421 367.18133 
L 395.468827 366.743811 
L 397.615026 366.743811 
L 396.509639 365.868771 
L 397.826109 365.868771 
L 397.278705 365.431251 
L 400.605 365.431251 
L 400.065724 364.993732 
L 400.316113 364.993732 
L 399.243874 364.118692 
L 399.49438 364.118692 
L 397.900658 362.806133 
L 399.640976 362.806133 
L 399.116396 362.368613 
L 400.095 362.368613 
L 399.573913 361.931094 
L 401.497297 361.931094 
L 400.981429 361.493574 
L 404.917929 361.493574 
L 404.411111 361.056054 
L 405.975573 361.056054 
L 405.473323 360.618534 
L 406.572617 360.618534 
L 406.074018 360.181015 
L 406.943243 360.181015 
L 406.447826 359.743495 
L 409.622727 359.743495 
L 408.648684 358.868455 
L 411.3 358.868455 
L 410.820344 358.430936 
L 411.815932 358.430936 
L 411.339631 357.993416 
L 411.734703 357.993416 
L 411.260537 357.555896 
L 412.240449 357.555896 
L 411.769565 357.118377 
L 411.964286 357.118377 
L 411.027235 356.243337 
L 411.80375 356.243337 
L 411.338696 355.805817 
L 411.531856 355.805817 
L 410.606354 354.930778 
L 410.799724 354.930778 
L 410.339256 354.493258 
L 412.24769 354.493258 
L 411.79213 354.055738 
L 412.355676 354.055738 
L 411.902429 353.618219 
L 419.184783 353.618219 
L 418.747126 353.180699 
L 420.247727 353.180699 
L 419.81425 352.743179 
L 421.284165 352.743179 
L 420.854795 352.30566 
L 427.895406 352.30566 
L 427.482 351.86814 
L 427.62691 351.86814 
L 427.771479 351.86814 
L 427.359672 351.43062 
L 427.504215 351.43062 
L 430.600685 351.43062 
L 430.196921 350.9931 
L 430.334282 350.9931 
L 432.622458 350.9931 
L 431.828428 350.118061 
L 431.960913 350.118061 
L 432.749668 350.118061 
L 432.356022 349.680541 
L 432.486755 349.680541 
L 432.6172 349.680541 
L 432.225 349.243021 
L 432.355446 349.243021 
L 432.615477 349.243021 
L 431.835378 348.367982 
L 431.965536 348.367982 
L 432.354308 348.367982 
L 431.966667 347.930462 
L 432.095974 347.930462 
L 432.482213 347.930462 
L 432.096533 347.492943 
L 432.225 347.492943 
L 434.243298 347.492943 
L 433.863124 347.055423 
L 433.987261 347.055423 
L 435.214286 347.055423 
L 434.83788 346.617903 
L 434.959434 346.617903 
L 436.516753 346.617903 
L 435.773684 345.742864 
L 435.892268 345.742864 
L 436.832209 345.742864 
L 436.464147 345.305344 
L 436.580816 345.305344 
L 436.9294 345.305344 
L 436.56311 344.867824 
L 436.679086 344.867824 
L 437.025607 344.867824 
L 436.661072 344.430304 
L 436.776364 344.430304 
L 437.120846 344.430304 
L 436.758048 343.992785 
L 436.872663 343.992785 
L 437.101204 343.992785 
L 436.73988 343.555265 
L 436.854054 343.555265 
L 437.308475 343.555265 
L 436.949104 343.117745 
L 437.062388 343.117745 
L 437.288282 343.117745 
L 436.930357 342.680225 
L 437.043211 342.680225 
L 437.155842 342.680225 
L 436.79911 342.242706 
L 436.911759 342.242706 
L 437.471681 342.242706 
L 436.763199 341.367666 
L 436.875 341.367666 
L 438.526087 341.367666 
L 438.176641 340.930147 
L 438.285246 340.930147 
L 439.678286 340.930147 
L 439.332731 340.492627 
L 439.438688 340.492627 
L 440.487288 340.492627 
L 440.144873 340.055107 
L 440.248872 340.055107 
L 440.662921 340.055107 
L 440.322264 339.617587 
L 440.425514 339.617587 
L 441.142897 339.617587 
L 440.804638 339.180068 
L 440.90658 339.180068 
L 442.015596 339.180068 
L 441.446295 338.305028 
L 443.121081 338.305028 
L 442.791089 337.867508 
L 442.888219 337.867508 
L 443.081957 337.867508 
L 442.097404 336.554949 
L 442.194633 336.554949 
L 442.291689 336.554949 
L 441.965089 336.11743 
L 442.062177 336.11743 
L 442.159091 336.11743 
L 441.6056 335.24239 
L 441.702575 335.24239 
L 441.378527 334.80487 
L 441.475532 334.80487 
L 442.053968 334.80487 
L 441.731894 334.367351 
L 441.827905 334.367351 
L 442.966986 334.367351 
L 442.648042 333.929831 
L 442.742087 333.929831 
L 442.835969 333.929831 
L 442.517969 333.492311 
L 442.611882 333.492311 
L 442.705633 333.492311 
L 442.072059 332.617272 
L 442.166033 332.617272 
L 442.259845 332.617272 
L 441.944262 332.179752 
L 442.038103 332.179752 
L 442.59777 332.179752 
L 442.284062 331.742232 
L 442.376969 331.742232 
L 443.38855 331.742232 
L 443.077627 331.304713 
L 443.16884 331.304713 
L 443.71289 331.304713 
L 443.185714 330.429673 
L 443.456329 330.429673 
L 443.148995 329.992153 
L 443.239079 329.992153 
L 443.508431 329.992153 
L 443.202335 329.554634 
L 443.292 329.554634 
L 443.470882 329.554634 
L 443.165835 329.117114 
L 443.255233 329.117114 
L 445.271149 329.117114 
L 444.970847 328.679594 
L 445.056957 328.679594 
L 445.142927 328.679594 
L 444.630657 327.804555 
L 445.144794 327.804555 
L 444.8475 327.367035 
L 444.932877 327.367035 
L 446.030383 327.367035 
L 445.525776 326.491995 
L 445.859715 326.491995 
L 445.567036 326.054476 
L 445.650356 326.054476 
L 446.229921 326.054476 
L 445.939024 325.616956 
L 446.021462 325.616956 
L 447.483488 325.616956 
L 447.196127 325.179436 
L 447.276316 325.179436 
L 448.698779 325.179436 
L 448.414874 324.741917 
L 448.492912 324.741917 
L 448.803875 324.741917 
L 448.521185 324.304397 
L 448.598786 324.304397 
L 449.291937 324.304397 
L 448.807669 323.429357 
L 450.61551 323.429357 
L 450.33941 322.991838 
L 450.413496 322.991838 
L 450.782292 322.991838 
L 450.507489 322.554318 
L 450.581071 322.554318 
L 450.727912 322.554318 
L 450.453953 322.116798 
L 450.527359 322.116798 
L 450.96555 322.116798 
L 450.693013 321.679278 
L 450.765818 321.679278 
L 451.272504 321.679278 
L 450.803177 320.804239 
L 450.875325 320.804239 
L 450.335879 319.9292 
L 450.408207 319.9292 
L 450.480432 319.9292 
L 450.211574 319.49168 
L 450.283836 319.49168 
L 451.071917 319.49168 
L 450.805128 319.05416 
L 450.876299 319.05416 
L 451.652542 319.05416 
L 451.193658 318.179121 
L 451.890693 318.179121 
L 451.628182 317.741601 
L 451.697484 317.741601 
L 451.76669 317.741601 
L 451.504815 317.304081 
L 451.574059 317.304081 
L 452.056072 317.304081 
L 451.795631 316.866561 
L 451.864241 316.866561 
L 452.273913 316.866561 
L 452.014759 316.429042 
L 452.082839 316.429042 
L 452.421841 316.429042 
L 452.16383 315.991522 
L 452.231481 315.991522 
L 453.102583 315.991522 
L 452.846739 315.554002 
L 452.913238 315.554002 
L 453.112195 315.554002 
L 452.857211 315.116483 
L 452.923478 315.116483 
L 453.776861 315.116483 
L 453.523995 314.678963 
L 453.589149 314.678963 
L 453.978252 314.678963 
L 453.7266 314.241443 
L 453.791272 314.241443 
L 454.049103 314.241443 
L 453.798406 313.803923 
L 453.862774 313.803923 
L 454.055364 313.803923 
L 453.805493 313.366404 
L 453.869643 313.366404 
L 456.184958 313.366404 
L 455.94 312.928884 
L 456.062242 312.928884 
L 456.366474 312.928884 
L 456.122657 312.491364 
L 456.244038 312.491364 
L 458.318934 312.491364 
L 457.840764 311.616325 
L 457.957036 311.616325 
L 458.304112 311.616325 
L 458.066376 311.178805 
L 458.181716 311.178805 
L 458.526022 311.178805 
L 458.289474 310.741285 
L 458.403896 310.741285 
L 458.518036 310.741285 
L 458.282222 310.303766 
L 458.396301 310.303766 
L 458.736855 310.303766 
L 458.50221 309.866246 
L 458.615389 309.866246 
L 459.621649 309.866246 
L 459.157541 308.991206 
L 459.268421 308.991206 
L 459.654398 308.991206 
L 459.303425 308.116167 
L 460.228733 308.116167 
L 460.000595 307.678647 
L 460.108432 307.678647 
L 461.695799 307.678647 
L 461.471195 307.241127 
L 461.575248 307.241127 
L 461.782626 307.241127 
L 461.558885 306.803608 
L 461.662413 306.803608 
L 462.278571 306.803608 
L 461.885796 305.928568 
L 461.936897 305.928568 
L 462.140711 305.928568 
L 461.800915 305.053529 
L 462.00411 305.053529 
L 461.784199 304.616009 
L 461.885641 304.616009 
L 462.738657 304.616009 
L 462.520812 304.178489 
L 462.620282 304.178489 
L 463.651336 304.178489 
L 463.435893 303.74097 
L 463.533018 303.74097 
L 463.629928 303.74097 
L 463.297562 302.86593 
L 463.827588 302.86593 
L 463.614419 302.42841 
L 463.71028 302.42841 
L 463.805931 302.42841 
L 463.593359 301.990891 
L 463.68898 301.990891 
L 463.83202 301.990891 
L 463.620131 301.553371 
L 463.71541 301.553371 
L 464.188696 301.553371 
L 463.97811 301.115851 
L 464.072328 301.115851 
L 464.11936 301.115851 
L 463.909268 300.678331 
L 464.003357 300.678331 
L 464.050325 300.678331 
L 463.840725 300.240812 
L 463.934684 300.240812 
L 464.121995 300.240812 
L 463.913147 299.803292 
L 464.006674 299.803292 
L 464.1 299.803292 
L 463.891725 299.365772 
L 463.985024 299.365772 
L 464.448532 299.365772 
L 464.241515 298.928253 
L 464.333795 298.928253 
L 464.517766 298.928253 
L 463.991777 297.615693 
L 464.267213 297.615693 
L 464.062262 297.178174 
L 464.153854 297.178174 
L 464.427474 297.178174 
L 464.06516 296.303134 
L 464.110714 296.303134 
L 464.833125 296.303134 
L 464.630973 295.865614 
L 464.720593 295.865614 
L 464.810026 295.865614 
L 464.608411 295.428095 
L 464.697822 295.428095 
L 464.742457 295.428095 
L 464.429798 294.553055 
L 464.51907 294.553055 
L 464.163158 293.678016 
L 464.207839 293.678016 
L 464.297063 293.678016 
L 464.097374 293.240496 
L 464.186574 293.240496 
L 464.231105 293.240496 
L 464.03186 292.802976 
L 464.120945 292.802976 
L 464.651633 292.802976 
L 464.453697 292.365457 
L 464.541671 292.365457 
L 464.935345 292.365457 
L 464.738469 291.927937 
L 464.82562 291.927937 
L 465.042727 291.927937 
L 464.846593 291.490417 
L 464.933283 291.490417 
L 465.278302 291.490417 
L 464.974286 290.615378 
L 466.120326 290.615378 
L 465.927731 290.177858 
L 466.011556 290.177858 
L 467.208666 290.177858 
L 467.01854 289.740338 
L 467.1 289.740338 
L 467.262445 289.740338 
L 467.072939 289.302818 
L 467.15407 289.302818 
L 467.717613 289.302818 
L 467.529437 288.865299 
L 467.649424 288.865299 
L 468.086431 288.865299 
L 467.899427 288.427779 
L 468.018026 288.427779 
L 468.332637 288.427779 
L 468.146581 287.990259 
L 468.264154 287.990259 
L 468.692406 287.990259 
L 468.507496 287.55274 
L 468.623729 287.55274 
L 469.085393 287.55274 
L 468.901685 287.11522 
L 469.016495 287.11522 
L 470.332552 287.11522 
L 470.151563 286.6777 
L 470.262598 286.6777 
L 470.299541 286.6777 
L 470.118982 286.24018 
L 470.229808 286.24018 
L 470.377102 286.24018 
L 470.127907 285.365141 
L 470.421127 285.365141 
L 469.958296 284.052582 
L 469.994925 284.052582 
L 470.359405 284.052582 
L 470.040811 283.177542 
L 470.113501 283.177542 
L 470.654537 283.177542 
L 470.478418 282.740023 
L 470.585944 282.740023 
L 471.505911 282.740023 
L 471.331746 282.302503 
L 471.436724 282.302503 
L 472.12955 282.302503 
L 471.956937 281.864983 
L 472.06 281.864983 
L 472.740259 281.864983 
L 472.569171 281.427463 
L 472.670375 281.427463 
L 472.704052 281.427463 
L 472.533348 280.989944 
L 472.63438 280.989944 
L 472.701591 280.989944 
L 472.531328 280.552424 
L 472.632103 280.552424 
L 472.899572 280.552424 
L 472.491937 279.239865 
L 472.95687 279.239865 
L 472.788809 278.802345 
L 472.887892 278.802345 
L 473.509618 278.802345 
L 473.107792 277.489786 
L 474.35676 277.489786 
L 474.060642 276.614746 
L 474.123776 276.614746 
L 474.186806 276.614746 
L 473.95484 275.739707 
L 474.143494 275.739707 
L 473.980859 275.302187 
L 474.075 275.302187 
L 474.387144 275.302187 
L 474.157125 274.427148 
L 474.590311 274.427148 
L 474.330834 273.552108 
L 474.361644 273.552108 
L 475.184217 273.552108 
L 475.025378 273.114589 
L 475.115838 273.114589 
L 475.266124 273.114589 
L 475.107821 272.677069 
L 475.197859 272.677069 
L 475.822179 272.677069 
L 475.665212 272.239549 
L 475.783163 272.239549 
L 475.930082 272.239549 
L 475.773688 271.802029 
L 475.891009 271.802029 
L 476.269778 271.802029 
L 476.114347 271.36451 
L 476.230318 271.36451 
L 476.259255 271.36451 
L 476.104189 270.92699 
L 476.219907 270.92699 
L 477.608894 270.92699 
L 477.456497 270.48947 
L 477.567792 270.48947 
L 478.146594 270.48947 
L 477.995485 270.05195 
L 478.104884 270.05195 
L 482.323567 270.05195 
L 482.180014 269.614431 
L 482.276969 269.614431 
L 482.971783 269.614431 
L 482.82971 269.176911 
L 482.924607 269.176911 
L 486.322878 269.176911 
L 486.322878 269.176911 
" style="fill:none;stroke:#2ca02c;stroke-linecap:square;stroke-width:2;"/>
   </g>
   <g id="patch_3">
    <path d="M 76.5 448.56 
L 76.5 60.48 
" style="fill:none;stroke:#000000;stroke-linecap:square;stroke-linejoin:miter;stroke-width:0.8;"/>
   </g>
   <g id="patch_4">
    <path d="M 550.8 448.56 
L 550.8 60.48 
" style="fill:none;stroke:#000000;stroke-linecap:square;stroke-linejoin:miter;stroke-width:0.8;"/>
   </g>
   <g id="patch_5">
    <path d="M 76.5 448.56 
L 550.8 448.56 
" style="fill:none;stroke:#000000;stroke-linecap:square;stroke-linejoin:miter;stroke-width:0.8;"/>
   </g>
   <g id="patch_6">
    <path d="M 76.5 60.48 
L 550.8 60.48 
" style="fill:none;stroke:#000000;stroke-linecap:square;stroke-linejoin:miter;stroke-width:0.8;"/>
   </g>
   <g id="text_25">
    <!-- bark: img1-img2 -->
    <defs>
     <path d="M 48.6875 27.296875 
Q 48.6875 37.203125 44.609375 42.84375 
Q 40.53125 48.484375 33.40625 48.484375 
Q 26.265625 48.484375 22.1875 42.84375 
Q 18.109375 37.203125 18.109375 27.296875 
Q 18.109375 17.390625 22.1875 11.75 
Q 26.265625 6.109375 33.40625 6.109375 
Q 40.53125 6.109375 44.609375 11.75 
Q 48.6875 17.390625 48.6875 27.296875 
z
M 18.109375 46.390625 
Q 20.953125 51.265625 25.265625 53.625 
Q 29.59375 56 35.59375 56 
Q 45.5625 56 51.78125 48.09375 
Q 58.015625 40.1875 58.015625 27.296875 
Q 58.015625 14.40625 51.78125 6.484375 
Q 45.5625 -1.421875 35.59375 -1.421875 
Q 29.59375 -1.421875 25.265625 0.953125 
Q 20.953125 3.328125 18.109375 8.203125 
L 18.109375 0 
L 9.078125 0 
L 9.078125 75.984375 
L 18.109375 75.984375 
z
" id="DejaVuSans-98"/>
     <path d="M 34.28125 27.484375 
Q 23.390625 27.484375 19.1875 25 
Q 14.984375 22.515625 14.984375 16.5 
Q 14.984375 11.71875 18.140625 8.90625 
Q 21.296875 6.109375 26.703125 6.109375 
Q 34.1875 6.109375 38.703125 11.40625 
Q 43.21875 16.703125 43.21875 25.484375 
L 43.21875 27.484375 
z
M 52.203125 31.203125 
L 52.203125 0 
L 43.21875 0 
L 43.21875 8.296875 
Q 40.140625 3.328125 35.546875 0.953125 
Q 30.953125 -1.421875 24.3125 -1.421875 
Q 15.921875 -1.421875 10.953125 3.296875 
Q 6 8.015625 6 15.921875 
Q 6 25.140625 12.171875 29.828125 
Q 18.359375 34.515625 30.609375 34.515625 
L 43.21875 34.515625 
L 43.21875 35.40625 
Q 43.21875 41.609375 39.140625 45 
Q 35.0625 48.390625 27.6875 48.390625 
Q 23 48.390625 18.546875 47.265625 
Q 14.109375 46.140625 10.015625 43.890625 
L 10.015625 52.203125 
Q 14.9375 54.109375 19.578125 55.046875 
Q 24.21875 56 28.609375 56 
Q 40.484375 56 46.34375 49.84375 
Q 52.203125 43.703125 52.203125 31.203125 
z
" id="DejaVuSans-97"/>
     <path d="M 9.078125 75.984375 
L 18.109375 75.984375 
L 18.109375 31.109375 
L 44.921875 54.6875 
L 56.390625 54.6875 
L 27.390625 29.109375 
L 57.625 0 
L 45.90625 0 
L 18.109375 26.703125 
L 18.109375 0 
L 9.078125 0 
z
" id="DejaVuSans-107"/>
     <path d="M 11.71875 12.40625 
L 22.015625 12.40625 
L 22.015625 0 
L 11.71875 0 
z
M 11.71875 51.703125 
L 22.015625 51.703125 
L 22.015625 39.3125 
L 11.71875 39.3125 
z
" id="DejaVuSans-58"/>
     <path id="DejaVuSans-32"/>
     <path d="M 52 44.1875 
Q 55.375 50.25 60.0625 53.125 
Q 64.75 56 71.09375 56 
Q 79.640625 56 84.28125 50.015625 
Q 88.921875 44.046875 88.921875 33.015625 
L 88.921875 0 
L 79.890625 0 
L 79.890625 32.71875 
Q 79.890625 40.578125 77.09375 44.375 
Q 74.3125 48.1875 68.609375 48.1875 
Q 61.625 48.1875 57.5625 43.546875 
Q 53.515625 38.921875 53.515625 30.90625 
L 53.515625 0 
L 44.484375 0 
L 44.484375 32.71875 
Q 44.484375 40.625 41.703125 44.40625 
Q 38.921875 48.1875 33.109375 48.1875 
Q 26.21875 48.1875 22.15625 43.53125 
Q 18.109375 38.875 18.109375 30.90625 
L 18.109375 0 
L 9.078125 0 
L 9.078125 54.6875 
L 18.109375 54.6875 
L 18.109375 46.1875 
Q 21.1875 51.21875 25.484375 53.609375 
Q 29.78125 56 35.6875 56 
Q 41.65625 56 45.828125 52.96875 
Q 50 49.953125 52 44.1875 
z
" id="DejaVuSans-109"/>
     <path d="M 45.40625 27.984375 
Q 45.40625 37.75 41.375 43.109375 
Q 37.359375 48.484375 30.078125 48.484375 
Q 22.859375 48.484375 18.828125 43.109375 
Q 14.796875 37.75 14.796875 27.984375 
Q 14.796875 18.265625 18.828125 12.890625 
Q 22.859375 7.515625 30.078125 7.515625 
Q 37.359375 7.515625 41.375 12.890625 
Q 45.40625 18.265625 45.40625 27.984375 
z
M 54.390625 6.78125 
Q 54.390625 -7.171875 48.1875 -13.984375 
Q 42 -20.796875 29.203125 -20.796875 
Q 24.46875 -20.796875 20.265625 -20.09375 
Q 16.0625 -19.390625 12.109375 -17.921875 
L 12.109375 -9.1875 
Q 16.0625 -11.328125 19.921875 -12.34375 
Q 23.78125 -13.375 27.78125 -13.375 
Q 36.625 -13.375 41.015625 -8.765625 
Q 45.40625 -4.15625 45.40625 5.171875 
L 45.40625 9.625 
Q 42.625 4.78125 38.28125 2.390625 
Q 33.9375 0 27.875 0 
Q 17.828125 0 11.671875 7.65625 
Q 5.515625 15.328125 5.515625 27.984375 
Q 5.515625 40.671875 11.671875 48.328125 
Q 17.828125 56 27.875 56 
Q 33.9375 56 38.28125 53.609375 
Q 42.625 51.21875 45.40625 46.390625 
L 45.40625 54.6875 
L 54.390625 54.6875 
z
" id="DejaVuSans-103"/>
    </defs>
    <g transform="translate(263.854688 41.042625)scale(0.12 -0.12)">
     <use xlink:href="#DejaVuSans-98"/>
     <use x="63.476562" xlink:href="#DejaVuSans-97"/>
     <use x="124.755859" xlink:href="#DejaVuSans-114"/>
     <use x="165.869141" xlink:href="#DejaVuSans-107"/>
     <use x="223.779297" xlink:href="#DejaVuSans-58"/>
     <use x="257.470703" xlink:href="#DejaVuSans-32"/>
     <use x="289.257812" xlink:href="#DejaVuSans-105"/>
     <use x="317.041016" xlink:href="#DejaVuSans-109"/>
     <use x="414.453125" xlink:href="#DejaVuSans-103"/>
     <use x="477.929688" xlink:href="#DejaVuSans-49"/>
     <use x="541.552734" xlink:href="#DejaVuSans-45"/>
     <use x="577.636719" xlink:href="#DejaVuSans-105"/>
     <use x="605.419922" xlink:href="#DejaVuSans-109"/>
     <use x="702.832031" xlink:href="#DejaVuSans-103"/>
     <use x="766.308594" xlink:href="#DejaVuSans-50"/>
    </g>
    <!-- NearestNeighbours -->
    <defs>
     <path d="M 9.8125 72.90625 
L 23.09375 72.90625 
L 55.421875 11.921875 
L 55.421875 72.90625 
L 64.984375 72.90625 
L 64.984375 0 
L 51.703125 0 
L 19.390625 60.984375 
L 19.390625 0 
L 9.8125 0 
z
" id="DejaVuSans-78"/>
     <path d="M 54.890625 33.015625 
L 54.890625 0 
L 45.90625 0 
L 45.90625 32.71875 
Q 45.90625 40.484375 42.875 44.328125 
Q 39.84375 48.1875 33.796875 48.1875 
Q 26.515625 48.1875 22.3125 43.546875 
Q 18.109375 38.921875 18.109375 30.90625 
L 18.109375 0 
L 9.078125 0 
L 9.078125 75.984375 
L 18.109375 75.984375 
L 18.109375 46.1875 
Q 21.34375 51.125 25.703125 53.5625 
Q 30.078125 56 35.796875 56 
Q 45.21875 56 50.046875 50.171875 
Q 54.890625 44.34375 54.890625 33.015625 
z
" id="DejaVuSans-104"/>
     <path d="M 8.5 21.578125 
L 8.5 54.6875 
L 17.484375 54.6875 
L 17.484375 21.921875 
Q 17.484375 14.15625 20.5 10.265625 
Q 23.53125 6.390625 29.59375 6.390625 
Q 36.859375 6.390625 41.078125 11.03125 
Q 45.3125 15.671875 45.3125 23.6875 
L 45.3125 54.6875 
L 54.296875 54.6875 
L 54.296875 0 
L 45.3125 0 
L 45.3125 8.40625 
Q 42.046875 3.421875 37.71875 1 
Q 33.40625 -1.421875 27.6875 -1.421875 
Q 18.265625 -1.421875 13.375 4.4375 
Q 8.5 10.296875 8.5 21.578125 
z
M 31.109375 56 
z
" id="DejaVuSans-117"/>
    </defs>
    <g transform="translate(255.957188 54.48)scale(0.12 -0.12)">
     <use xlink:href="#DejaVuSans-78"/>
     <use x="74.804688" xlink:href="#DejaVuSans-101"/>
     <use x="136.328125" xlink:href="#DejaVuSans-97"/>
     <use x="197.607422" xlink:href="#DejaVuSans-114"/>
     <use x="236.470703" xlink:href="#DejaVuSans-101"/>
     <use x="297.994141" xlink:href="#DejaVuSans-115"/>
     <use x="350.09375" xlink:href="#DejaVuSans-116"/>
     <use x="389.302734" xlink:href="#DejaVuSans-78"/>
     <use x="464.107422" xlink:href="#DejaVuSans-101"/>
     <use x="525.630859" xlink:href="#DejaVuSans-105"/>
     <use x="553.414062" xlink:href="#DejaVuSans-103"/>
     <use x="616.890625" xlink:href="#DejaVuSans-104"/>
     <use x="680.269531" xlink:href="#DejaVuSans-98"/>
     <use x="743.746094" xlink:href="#DejaVuSans-111"/>
     <use x="804.927734" xlink:href="#DejaVuSans-117"/>
     <use x="868.306641" xlink:href="#DejaVuSans-114"/>
     <use x="909.419922" xlink:href="#DejaVuSans-115"/>
    </g>
   </g>
   <g id="legend_1">
    <g id="patch_7">
     <path d="M 362.659375 112.514375 
L 543.8 112.514375 
Q 545.8 112.514375 545.8 110.514375 
L 545.8 67.48 
Q 545.8 65.48 543.8 65.48 
L 362.659375 65.48 
Q 360.659375 65.48 360.659375 67.48 
L 360.659375 110.514375 
Q 360.659375 112.514375 362.659375 112.514375 
z
" style="fill:#ffffff;opacity:0.8;stroke:#cccccc;stroke-linejoin:miter;"/>
    </g>
    <g id="line2d_48">
     <path d="M 364.659375 73.578438 
L 384.659375 73.578438 
" style="fill:none;stroke:#1f77b4;stroke-linecap:square;stroke-width:2;"/>
    </g>
    <g id="line2d_49"/>
    <g id="text_26">
     <!-- root-cvsift AP: 78.5, %In: 24.2 -->
     <defs>
      <path d="M 2.984375 54.6875 
L 12.5 54.6875 
L 29.59375 8.796875 
L 46.6875 54.6875 
L 56.203125 54.6875 
L 35.6875 0 
L 23.484375 0 
z
" id="DejaVuSans-118"/>
      <path d="M 37.109375 75.984375 
L 37.109375 68.5 
L 28.515625 68.5 
Q 23.6875 68.5 21.796875 66.546875 
Q 19.921875 64.59375 19.921875 59.515625 
L 19.921875 54.6875 
L 34.71875 54.6875 
L 34.71875 47.703125 
L 19.921875 47.703125 
L 19.921875 0 
L 10.890625 0 
L 10.890625 47.703125 
L 2.296875 47.703125 
L 2.296875 54.6875 
L 10.890625 54.6875 
L 10.890625 58.5 
Q 10.890625 67.625 15.140625 71.796875 
Q 19.390625 75.984375 28.609375 75.984375 
z
" id="DejaVuSans-102"/>
      <path d="M 34.1875 63.1875 
L 20.796875 26.90625 
L 47.609375 26.90625 
z
M 28.609375 72.90625 
L 39.796875 72.90625 
L 67.578125 0 
L 57.328125 0 
L 50.6875 18.703125 
L 17.828125 18.703125 
L 11.1875 0 
L 0.78125 0 
z
" id="DejaVuSans-65"/>
      <path d="M 19.671875 64.796875 
L 19.671875 37.40625 
L 32.078125 37.40625 
Q 38.96875 37.40625 42.71875 40.96875 
Q 46.484375 44.53125 46.484375 51.125 
Q 46.484375 57.671875 42.71875 61.234375 
Q 38.96875 64.796875 32.078125 64.796875 
z
M 9.8125 72.90625 
L 32.078125 72.90625 
Q 44.34375 72.90625 50.609375 67.359375 
Q 56.890625 61.8125 56.890625 51.125 
Q 56.890625 40.328125 50.609375 34.8125 
Q 44.34375 29.296875 32.078125 29.296875 
L 19.671875 29.296875 
L 19.671875 0 
L 9.8125 0 
z
" id="DejaVuSans-80"/>
      <path d="M 11.71875 12.40625 
L 22.015625 12.40625 
L 22.015625 4 
L 14.015625 -11.625 
L 7.71875 -11.625 
L 11.71875 4 
z
" id="DejaVuSans-44"/>
      <path d="M 72.703125 32.078125 
Q 68.453125 32.078125 66.03125 28.46875 
Q 63.625 24.859375 63.625 18.40625 
Q 63.625 12.0625 66.03125 8.421875 
Q 68.453125 4.78125 72.703125 4.78125 
Q 76.859375 4.78125 79.265625 8.421875 
Q 81.6875 12.0625 81.6875 18.40625 
Q 81.6875 24.8125 79.265625 28.4375 
Q 76.859375 32.078125 72.703125 32.078125 
z
M 72.703125 38.28125 
Q 80.421875 38.28125 84.953125 32.90625 
Q 89.5 27.546875 89.5 18.40625 
Q 89.5 9.28125 84.9375 3.921875 
Q 80.375 -1.421875 72.703125 -1.421875 
Q 64.890625 -1.421875 60.34375 3.921875 
Q 55.8125 9.28125 55.8125 18.40625 
Q 55.8125 27.59375 60.375 32.9375 
Q 64.9375 38.28125 72.703125 38.28125 
z
M 22.3125 68.015625 
Q 18.109375 68.015625 15.6875 64.375 
Q 13.28125 60.75 13.28125 54.390625 
Q 13.28125 47.953125 15.671875 44.328125 
Q 18.0625 40.71875 22.3125 40.71875 
Q 26.5625 40.71875 28.96875 44.328125 
Q 31.390625 47.953125 31.390625 54.390625 
Q 31.390625 60.6875 28.953125 64.34375 
Q 26.515625 68.015625 22.3125 68.015625 
z
M 66.40625 74.21875 
L 74.21875 74.21875 
L 28.609375 -1.421875 
L 20.796875 -1.421875 
z
M 22.3125 74.21875 
Q 30.03125 74.21875 34.609375 68.875 
Q 39.203125 63.53125 39.203125 54.390625 
Q 39.203125 45.171875 34.640625 39.84375 
Q 30.078125 34.515625 22.3125 34.515625 
Q 14.546875 34.515625 10.03125 39.859375 
Q 5.515625 45.21875 5.515625 54.390625 
Q 5.515625 63.484375 10.046875 68.84375 
Q 14.59375 74.21875 22.3125 74.21875 
z
" id="DejaVuSans-37"/>
      <path d="M 9.8125 72.90625 
L 19.671875 72.90625 
L 19.671875 0 
L 9.8125 0 
z
" id="DejaVuSans-73"/>
     </defs>
     <g transform="translate(392.659375 77.078438)scale(0.1 -0.1)">
      <use xlink:href="#DejaVuSans-114"/>
      <use x="38.863281" xlink:href="#DejaVuSans-111"/>
      <use x="100.044922" xlink:href="#DejaVuSans-111"/>
      <use x="161.226562" xlink:href="#DejaVuSans-116"/>
      <use x="200.435547" xlink:href="#DejaVuSans-45"/>
      <use x="236.519531" xlink:href="#DejaVuSans-99"/>
      <use x="291.5" xlink:href="#DejaVuSans-118"/>
      <use x="350.679688" xlink:href="#DejaVuSans-115"/>
      <use x="402.779297" xlink:href="#DejaVuSans-105"/>
      <use x="430.5625" xlink:href="#DejaVuSans-102"/>
      <use x="464.017578" xlink:href="#DejaVuSans-116"/>
      <use x="503.226562" xlink:href="#DejaVuSans-32"/>
      <use x="535.013672" xlink:href="#DejaVuSans-65"/>
      <use x="603.421875" xlink:href="#DejaVuSans-80"/>
      <use x="663.724609" xlink:href="#DejaVuSans-58"/>
      <use x="697.416016" xlink:href="#DejaVuSans-32"/>
      <use x="729.203125" xlink:href="#DejaVuSans-55"/>
      <use x="792.826172" xlink:href="#DejaVuSans-56"/>
      <use x="856.449219" xlink:href="#DejaVuSans-46"/>
      <use x="888.236328" xlink:href="#DejaVuSans-53"/>
      <use x="951.859375" xlink:href="#DejaVuSans-44"/>
      <use x="983.646484" xlink:href="#DejaVuSans-32"/>
      <use x="1015.433594" xlink:href="#DejaVuSans-37"/>
      <use x="1110.453125" xlink:href="#DejaVuSans-73"/>
      <use x="1139.945312" xlink:href="#DejaVuSans-110"/>
      <use x="1203.324219" xlink:href="#DejaVuSans-58"/>
      <use x="1237.015625" xlink:href="#DejaVuSans-32"/>
      <use x="1268.802734" xlink:href="#DejaVuSans-50"/>
      <use x="1332.425781" xlink:href="#DejaVuSans-52"/>
      <use x="1396.048828" xlink:href="#DejaVuSans-46"/>
      <use x="1427.835938" xlink:href="#DejaVuSans-50"/>
     </g>
    </g>
    <g id="line2d_50">
     <path d="M 364.659375 88.256563 
L 384.659375 88.256563 
" style="fill:none;stroke:#ff7f0e;stroke-linecap:square;stroke-width:2;"/>
    </g>
    <g id="line2d_51"/>
    <g id="text_27">
     <!-- tfeat AP: 2.2, %In: 5.7 -->
     <g transform="translate(392.659375 91.756563)scale(0.1 -0.1)">
      <use xlink:href="#DejaVuSans-116"/>
      <use x="39.208984" xlink:href="#DejaVuSans-102"/>
      <use x="74.414062" xlink:href="#DejaVuSans-101"/>
      <use x="135.9375" xlink:href="#DejaVuSans-97"/>
      <use x="197.216797" xlink:href="#DejaVuSans-116"/>
      <use x="236.425781" xlink:href="#DejaVuSans-32"/>
      <use x="268.212891" xlink:href="#DejaVuSans-65"/>
      <use x="336.621094" xlink:href="#DejaVuSans-80"/>
      <use x="396.923828" xlink:href="#DejaVuSans-58"/>
      <use x="430.615234" xlink:href="#DejaVuSans-32"/>
      <use x="462.402344" xlink:href="#DejaVuSans-50"/>
      <use x="526.025391" xlink:href="#DejaVuSans-46"/>
      <use x="557.8125" xlink:href="#DejaVuSans-50"/>
      <use x="621.435547" xlink:href="#DejaVuSans-44"/>
      <use x="653.222656" xlink:href="#DejaVuSans-32"/>
      <use x="685.009766" xlink:href="#DejaVuSans-37"/>
      <use x="780.029297" xlink:href="#DejaVuSans-73"/>
      <use x="809.521484" xlink:href="#DejaVuSans-110"/>
      <use x="872.900391" xlink:href="#DejaVuSans-58"/>
      <use x="906.591797" xlink:href="#DejaVuSans-32"/>
      <use x="938.378906" xlink:href="#DejaVuSans-53"/>
      <use x="1002.001953" xlink:href="#DejaVuSans-46"/>
      <use x="1033.789062" xlink:href="#DejaVuSans-55"/>
     </g>
    </g>
    <g id="line2d_52">
     <path d="M 364.659375 102.934687 
L 384.659375 102.934687 
" style="fill:none;stroke:#2ca02c;stroke-linecap:square;stroke-width:2;"/>
    </g>
    <g id="line2d_53"/>
    <g id="text_28">
     <!-- hardnet AP: 19.4, %In: 13.6 -->
     <defs>
      <path d="M 45.40625 46.390625 
L 45.40625 75.984375 
L 54.390625 75.984375 
L 54.390625 0 
L 45.40625 0 
L 45.40625 8.203125 
Q 42.578125 3.328125 38.25 0.953125 
Q 33.9375 -1.421875 27.875 -1.421875 
Q 17.96875 -1.421875 11.734375 6.484375 
Q 5.515625 14.40625 5.515625 27.296875 
Q 5.515625 40.1875 11.734375 48.09375 
Q 17.96875 56 27.875 56 
Q 33.9375 56 38.25 53.625 
Q 42.578125 51.265625 45.40625 46.390625 
z
M 14.796875 27.296875 
Q 14.796875 17.390625 18.875 11.75 
Q 22.953125 6.109375 30.078125 6.109375 
Q 37.203125 6.109375 41.296875 11.75 
Q 45.40625 17.390625 45.40625 27.296875 
Q 45.40625 37.203125 41.296875 42.84375 
Q 37.203125 48.484375 30.078125 48.484375 
Q 22.953125 48.484375 18.875 42.84375 
Q 14.796875 37.203125 14.796875 27.296875 
z
" id="DejaVuSans-100"/>
     </defs>
     <g transform="translate(392.659375 106.434687)scale(0.1 -0.1)">
      <use xlink:href="#DejaVuSans-104"/>
      <use x="63.378906" xlink:href="#DejaVuSans-97"/>
      <use x="124.658203" xlink:href="#DejaVuSans-114"/>
      <use x="164.021484" xlink:href="#DejaVuSans-100"/>
      <use x="227.498047" xlink:href="#DejaVuSans-110"/>
      <use x="290.876953" xlink:href="#DejaVuSans-101"/>
      <use x="352.400391" xlink:href="#DejaVuSans-116"/>
      <use x="391.609375" xlink:href="#DejaVuSans-32"/>
      <use x="423.396484" xlink:href="#DejaVuSans-65"/>
      <use x="491.804688" xlink:href="#DejaVuSans-80"/>
      <use x="552.107422" xlink:href="#DejaVuSans-58"/>
      <use x="585.798828" xlink:href="#DejaVuSans-32"/>
      <use x="617.585938" xlink:href="#DejaVuSans-49"/>
      <use x="681.208984" xlink:href="#DejaVuSans-57"/>
      <use x="744.832031" xlink:href="#DejaVuSans-46"/>
      <use x="776.619141" xlink:href="#DejaVuSans-52"/>
      <use x="840.242188" xlink:href="#DejaVuSans-44"/>
      <use x="872.029297" xlink:href="#DejaVuSans-32"/>
      <use x="903.816406" xlink:href="#DejaVuSans-37"/>
      <use x="998.835938" xlink:href="#DejaVuSans-73"/>
      <use x="1028.328125" xlink:href="#DejaVuSans-110"/>
      <use x="1091.707031" xlink:href="#DejaVuSans-58"/>
      <use x="1125.398438" xlink:href="#DejaVuSans-32"/>
      <use x="1157.185547" xlink:href="#DejaVuSans-49"/>
      <use x="1220.808594" xlink:href="#DejaVuSans-51"/>
      <use x="1284.431641" xlink:href="#DejaVuSans-46"/>
      <use x="1316.21875" xlink:href="#DejaVuSans-54"/>
     </g>
    </g>
   </g>
  </g>
 </g>
 <defs>
  <clipPath id="pbf802c7677">
   <rect height="388.08" width="474.3" x="76.5" y="60.48"/>
  </clipPath>
 </defs>
</svg>
