<?xml version="1.0" encoding="utf-8" standalone="no"?>
<!DOCTYPE svg PUBLIC "-//W3C//DTD SVG 1.1//EN"
  "http://www.w3.org/Graphics/SVG/1.1/DTD/svg11.dtd">
<!-- Created with matplotlib (https://matplotlib.org/) -->
<svg height="504pt" version="1.1" viewBox="0 0 612 504" width="612pt" xmlns="http://www.w3.org/2000/svg" xmlns:xlink="http://www.w3.org/1999/xlink">
 <defs>
  <style type="text/css">
*{stroke-linecap:butt;stroke-linejoin:round;}
  </style>
 </defs>
 <g id="figure_1">
  <g id="patch_1">
   <path d="M 0 504 
L 612 504 
L 612 0 
L 0 0 
z
" style="fill:#ffffff;"/>
  </g>
  <g id="axes_1">
   <g id="patch_2">
    <path d="M 76.5 448.56 
L 550.8 448.56 
L 550.8 60.48 
L 76.5 60.48 
z
" style="fill:#ffffff;"/>
   </g>
   <g id="matplotlib.axis_1">
    <g id="xtick_1">
     <g id="line2d_1">
      <path clip-path="url(#pb2f9c64f42)" d="M 76.5 448.56 
L 76.5 60.48 
" style="fill:none;stroke:#b0b0b0;stroke-linecap:square;stroke-width:0.8;"/>
     </g>
     <g id="line2d_2">
      <defs>
       <path d="M 0 0 
L 0 3.5 
" id="m94e2340c84" style="stroke:#000000;stroke-width:0.8;"/>
      </defs>
      <g>
       <use style="stroke:#000000;stroke-width:0.8;" x="76.5" xlink:href="#m94e2340c84" y="448.56"/>
      </g>
     </g>
     <g id="text_1">
      <!-- 0.0 -->
      <defs>
       <path d="M 31.78125 66.40625 
Q 24.171875 66.40625 20.328125 58.90625 
Q 16.5 51.421875 16.5 36.375 
Q 16.5 21.390625 20.328125 13.890625 
Q 24.171875 6.390625 31.78125 6.390625 
Q 39.453125 6.390625 43.28125 13.890625 
Q 47.125 21.390625 47.125 36.375 
Q 47.125 51.421875 43.28125 58.90625 
Q 39.453125 66.40625 31.78125 66.40625 
z
M 31.78125 74.21875 
Q 44.046875 74.21875 50.515625 64.515625 
Q 56.984375 54.828125 56.984375 36.375 
Q 56.984375 17.96875 50.515625 8.265625 
Q 44.046875 -1.421875 31.78125 -1.421875 
Q 19.53125 -1.421875 13.0625 8.265625 
Q 6.59375 17.96875 6.59375 36.375 
Q 6.59375 54.828125 13.0625 64.515625 
Q 19.53125 74.21875 31.78125 74.21875 
z
" id="DejaVuSans-48"/>
       <path d="M 10.6875 12.40625 
L 21 12.40625 
L 21 0 
L 10.6875 0 
z
" id="DejaVuSans-46"/>
      </defs>
      <g transform="translate(68.548438 463.158437)scale(0.1 -0.1)">
       <use xlink:href="#DejaVuSans-48"/>
       <use x="63.623047" xlink:href="#DejaVuSans-46"/>
       <use x="95.410156" xlink:href="#DejaVuSans-48"/>
      </g>
     </g>
    </g>
    <g id="xtick_2">
     <g id="line2d_3">
      <path clip-path="url(#pb2f9c64f42)" d="M 123.93 448.56 
L 123.93 60.48 
" style="fill:none;stroke:#b0b0b0;stroke-linecap:square;stroke-width:0.8;"/>
     </g>
     <g id="line2d_4">
      <g>
       <use style="stroke:#000000;stroke-width:0.8;" x="123.93" xlink:href="#m94e2340c84" y="448.56"/>
      </g>
     </g>
     <g id="text_2">
      <!-- 0.1 -->
      <defs>
       <path d="M 12.40625 8.296875 
L 28.515625 8.296875 
L 28.515625 63.921875 
L 10.984375 60.40625 
L 10.984375 69.390625 
L 28.421875 72.90625 
L 38.28125 72.90625 
L 38.28125 8.296875 
L 54.390625 8.296875 
L 54.390625 0 
L 12.40625 0 
z
" id="DejaVuSans-49"/>
      </defs>
      <g transform="translate(115.978438 463.158437)scale(0.1 -0.1)">
       <use xlink:href="#DejaVuSans-48"/>
       <use x="63.623047" xlink:href="#DejaVuSans-46"/>
       <use x="95.410156" xlink:href="#DejaVuSans-49"/>
      </g>
     </g>
    </g>
    <g id="xtick_3">
     <g id="line2d_5">
      <path clip-path="url(#pb2f9c64f42)" d="M 171.36 448.56 
L 171.36 60.48 
" style="fill:none;stroke:#b0b0b0;stroke-linecap:square;stroke-width:0.8;"/>
     </g>
     <g id="line2d_6">
      <g>
       <use style="stroke:#000000;stroke-width:0.8;" x="171.36" xlink:href="#m94e2340c84" y="448.56"/>
      </g>
     </g>
     <g id="text_3">
      <!-- 0.2 -->
      <defs>
       <path d="M 19.1875 8.296875 
L 53.609375 8.296875 
L 53.609375 0 
L 7.328125 0 
L 7.328125 8.296875 
Q 12.9375 14.109375 22.625 23.890625 
Q 32.328125 33.6875 34.8125 36.53125 
Q 39.546875 41.84375 41.421875 45.53125 
Q 43.3125 49.21875 43.3125 52.78125 
Q 43.3125 58.59375 39.234375 62.25 
Q 35.15625 65.921875 28.609375 65.921875 
Q 23.96875 65.921875 18.8125 64.3125 
Q 13.671875 62.703125 7.8125 59.421875 
L 7.8125 69.390625 
Q 13.765625 71.78125 18.9375 73 
Q 24.125 74.21875 28.421875 74.21875 
Q 39.75 74.21875 46.484375 68.546875 
Q 53.21875 62.890625 53.21875 53.421875 
Q 53.21875 48.921875 51.53125 44.890625 
Q 49.859375 40.875 45.40625 35.40625 
Q 44.1875 33.984375 37.640625 27.21875 
Q 31.109375 20.453125 19.1875 8.296875 
z
" id="DejaVuSans-50"/>
      </defs>
      <g transform="translate(163.408438 463.158437)scale(0.1 -0.1)">
       <use xlink:href="#DejaVuSans-48"/>
       <use x="63.623047" xlink:href="#DejaVuSans-46"/>
       <use x="95.410156" xlink:href="#DejaVuSans-50"/>
      </g>
     </g>
    </g>
    <g id="xtick_4">
     <g id="line2d_7">
      <path clip-path="url(#pb2f9c64f42)" d="M 218.79 448.56 
L 218.79 60.48 
" style="fill:none;stroke:#b0b0b0;stroke-linecap:square;stroke-width:0.8;"/>
     </g>
     <g id="line2d_8">
      <g>
       <use style="stroke:#000000;stroke-width:0.8;" x="218.79" xlink:href="#m94e2340c84" y="448.56"/>
      </g>
     </g>
     <g id="text_4">
      <!-- 0.3 -->
      <defs>
       <path d="M 40.578125 39.3125 
Q 47.65625 37.796875 51.625 33 
Q 55.609375 28.21875 55.609375 21.1875 
Q 55.609375 10.40625 48.1875 4.484375 
Q 40.765625 -1.421875 27.09375 -1.421875 
Q 22.515625 -1.421875 17.65625 -0.515625 
Q 12.796875 0.390625 7.625 2.203125 
L 7.625 11.71875 
Q 11.71875 9.328125 16.59375 8.109375 
Q 21.484375 6.890625 26.8125 6.890625 
Q 36.078125 6.890625 40.9375 10.546875 
Q 45.796875 14.203125 45.796875 21.1875 
Q 45.796875 27.640625 41.28125 31.265625 
Q 36.765625 34.90625 28.71875 34.90625 
L 20.21875 34.90625 
L 20.21875 43.015625 
L 29.109375 43.015625 
Q 36.375 43.015625 40.234375 45.921875 
Q 44.09375 48.828125 44.09375 54.296875 
Q 44.09375 59.90625 40.109375 62.90625 
Q 36.140625 65.921875 28.71875 65.921875 
Q 24.65625 65.921875 20.015625 65.03125 
Q 15.375 64.15625 9.8125 62.3125 
L 9.8125 71.09375 
Q 15.4375 72.65625 20.34375 73.4375 
Q 25.25 74.21875 29.59375 74.21875 
Q 40.828125 74.21875 47.359375 69.109375 
Q 53.90625 64.015625 53.90625 55.328125 
Q 53.90625 49.265625 50.4375 45.09375 
Q 46.96875 40.921875 40.578125 39.3125 
z
" id="DejaVuSans-51"/>
      </defs>
      <g transform="translate(210.838438 463.158437)scale(0.1 -0.1)">
       <use xlink:href="#DejaVuSans-48"/>
       <use x="63.623047" xlink:href="#DejaVuSans-46"/>
       <use x="95.410156" xlink:href="#DejaVuSans-51"/>
      </g>
     </g>
    </g>
    <g id="xtick_5">
     <g id="line2d_9">
      <path clip-path="url(#pb2f9c64f42)" d="M 266.22 448.56 
L 266.22 60.48 
" style="fill:none;stroke:#b0b0b0;stroke-linecap:square;stroke-width:0.8;"/>
     </g>
     <g id="line2d_10">
      <g>
       <use style="stroke:#000000;stroke-width:0.8;" x="266.22" xlink:href="#m94e2340c84" y="448.56"/>
      </g>
     </g>
     <g id="text_5">
      <!-- 0.4 -->
      <defs>
       <path d="M 37.796875 64.3125 
L 12.890625 25.390625 
L 37.796875 25.390625 
z
M 35.203125 72.90625 
L 47.609375 72.90625 
L 47.609375 25.390625 
L 58.015625 25.390625 
L 58.015625 17.1875 
L 47.609375 17.1875 
L 47.609375 0 
L 37.796875 0 
L 37.796875 17.1875 
L 4.890625 17.1875 
L 4.890625 26.703125 
z
" id="DejaVuSans-52"/>
      </defs>
      <g transform="translate(258.268438 463.158437)scale(0.1 -0.1)">
       <use xlink:href="#DejaVuSans-48"/>
       <use x="63.623047" xlink:href="#DejaVuSans-46"/>
       <use x="95.410156" xlink:href="#DejaVuSans-52"/>
      </g>
     </g>
    </g>
    <g id="xtick_6">
     <g id="line2d_11">
      <path clip-path="url(#pb2f9c64f42)" d="M 313.65 448.56 
L 313.65 60.48 
" style="fill:none;stroke:#b0b0b0;stroke-linecap:square;stroke-width:0.8;"/>
     </g>
     <g id="line2d_12">
      <g>
       <use style="stroke:#000000;stroke-width:0.8;" x="313.65" xlink:href="#m94e2340c84" y="448.56"/>
      </g>
     </g>
     <g id="text_6">
      <!-- 0.5 -->
      <defs>
       <path d="M 10.796875 72.90625 
L 49.515625 72.90625 
L 49.515625 64.59375 
L 19.828125 64.59375 
L 19.828125 46.734375 
Q 21.96875 47.46875 24.109375 47.828125 
Q 26.265625 48.1875 28.421875 48.1875 
Q 40.625 48.1875 47.75 41.5 
Q 54.890625 34.8125 54.890625 23.390625 
Q 54.890625 11.625 47.5625 5.09375 
Q 40.234375 -1.421875 26.90625 -1.421875 
Q 22.3125 -1.421875 17.546875 -0.640625 
Q 12.796875 0.140625 7.71875 1.703125 
L 7.71875 11.625 
Q 12.109375 9.234375 16.796875 8.0625 
Q 21.484375 6.890625 26.703125 6.890625 
Q 35.15625 6.890625 40.078125 11.328125 
Q 45.015625 15.765625 45.015625 23.390625 
Q 45.015625 31 40.078125 35.4375 
Q 35.15625 39.890625 26.703125 39.890625 
Q 22.75 39.890625 18.8125 39.015625 
Q 14.890625 38.140625 10.796875 36.28125 
z
" id="DejaVuSans-53"/>
      </defs>
      <g transform="translate(305.698438 463.158437)scale(0.1 -0.1)">
       <use xlink:href="#DejaVuSans-48"/>
       <use x="63.623047" xlink:href="#DejaVuSans-46"/>
       <use x="95.410156" xlink:href="#DejaVuSans-53"/>
      </g>
     </g>
    </g>
    <g id="xtick_7">
     <g id="line2d_13">
      <path clip-path="url(#pb2f9c64f42)" d="M 361.08 448.56 
L 361.08 60.48 
" style="fill:none;stroke:#b0b0b0;stroke-linecap:square;stroke-width:0.8;"/>
     </g>
     <g id="line2d_14">
      <g>
       <use style="stroke:#000000;stroke-width:0.8;" x="361.08" xlink:href="#m94e2340c84" y="448.56"/>
      </g>
     </g>
     <g id="text_7">
      <!-- 0.6 -->
      <defs>
       <path d="M 33.015625 40.375 
Q 26.375 40.375 22.484375 35.828125 
Q 18.609375 31.296875 18.609375 23.390625 
Q 18.609375 15.53125 22.484375 10.953125 
Q 26.375 6.390625 33.015625 6.390625 
Q 39.65625 6.390625 43.53125 10.953125 
Q 47.40625 15.53125 47.40625 23.390625 
Q 47.40625 31.296875 43.53125 35.828125 
Q 39.65625 40.375 33.015625 40.375 
z
M 52.59375 71.296875 
L 52.59375 62.3125 
Q 48.875 64.0625 45.09375 64.984375 
Q 41.3125 65.921875 37.59375 65.921875 
Q 27.828125 65.921875 22.671875 59.328125 
Q 17.53125 52.734375 16.796875 39.40625 
Q 19.671875 43.65625 24.015625 45.921875 
Q 28.375 48.1875 33.59375 48.1875 
Q 44.578125 48.1875 50.953125 41.515625 
Q 57.328125 34.859375 57.328125 23.390625 
Q 57.328125 12.15625 50.6875 5.359375 
Q 44.046875 -1.421875 33.015625 -1.421875 
Q 20.359375 -1.421875 13.671875 8.265625 
Q 6.984375 17.96875 6.984375 36.375 
Q 6.984375 53.65625 15.1875 63.9375 
Q 23.390625 74.21875 37.203125 74.21875 
Q 40.921875 74.21875 44.703125 73.484375 
Q 48.484375 72.75 52.59375 71.296875 
z
" id="DejaVuSans-54"/>
      </defs>
      <g transform="translate(353.128438 463.158437)scale(0.1 -0.1)">
       <use xlink:href="#DejaVuSans-48"/>
       <use x="63.623047" xlink:href="#DejaVuSans-46"/>
       <use x="95.410156" xlink:href="#DejaVuSans-54"/>
      </g>
     </g>
    </g>
    <g id="xtick_8">
     <g id="line2d_15">
      <path clip-path="url(#pb2f9c64f42)" d="M 408.51 448.56 
L 408.51 60.48 
" style="fill:none;stroke:#b0b0b0;stroke-linecap:square;stroke-width:0.8;"/>
     </g>
     <g id="line2d_16">
      <g>
       <use style="stroke:#000000;stroke-width:0.8;" x="408.51" xlink:href="#m94e2340c84" y="448.56"/>
      </g>
     </g>
     <g id="text_8">
      <!-- 0.7 -->
      <defs>
       <path d="M 8.203125 72.90625 
L 55.078125 72.90625 
L 55.078125 68.703125 
L 28.609375 0 
L 18.3125 0 
L 43.21875 64.59375 
L 8.203125 64.59375 
z
" id="DejaVuSans-55"/>
      </defs>
      <g transform="translate(400.558438 463.158437)scale(0.1 -0.1)">
       <use xlink:href="#DejaVuSans-48"/>
       <use x="63.623047" xlink:href="#DejaVuSans-46"/>
       <use x="95.410156" xlink:href="#DejaVuSans-55"/>
      </g>
     </g>
    </g>
    <g id="xtick_9">
     <g id="line2d_17">
      <path clip-path="url(#pb2f9c64f42)" d="M 455.94 448.56 
L 455.94 60.48 
" style="fill:none;stroke:#b0b0b0;stroke-linecap:square;stroke-width:0.8;"/>
     </g>
     <g id="line2d_18">
      <g>
       <use style="stroke:#000000;stroke-width:0.8;" x="455.94" xlink:href="#m94e2340c84" y="448.56"/>
      </g>
     </g>
     <g id="text_9">
      <!-- 0.8 -->
      <defs>
       <path d="M 31.78125 34.625 
Q 24.75 34.625 20.71875 30.859375 
Q 16.703125 27.09375 16.703125 20.515625 
Q 16.703125 13.921875 20.71875 10.15625 
Q 24.75 6.390625 31.78125 6.390625 
Q 38.8125 6.390625 42.859375 10.171875 
Q 46.921875 13.96875 46.921875 20.515625 
Q 46.921875 27.09375 42.890625 30.859375 
Q 38.875 34.625 31.78125 34.625 
z
M 21.921875 38.8125 
Q 15.578125 40.375 12.03125 44.71875 
Q 8.5 49.078125 8.5 55.328125 
Q 8.5 64.0625 14.71875 69.140625 
Q 20.953125 74.21875 31.78125 74.21875 
Q 42.671875 74.21875 48.875 69.140625 
Q 55.078125 64.0625 55.078125 55.328125 
Q 55.078125 49.078125 51.53125 44.71875 
Q 48 40.375 41.703125 38.8125 
Q 48.828125 37.15625 52.796875 32.3125 
Q 56.78125 27.484375 56.78125 20.515625 
Q 56.78125 9.90625 50.3125 4.234375 
Q 43.84375 -1.421875 31.78125 -1.421875 
Q 19.734375 -1.421875 13.25 4.234375 
Q 6.78125 9.90625 6.78125 20.515625 
Q 6.78125 27.484375 10.78125 32.3125 
Q 14.796875 37.15625 21.921875 38.8125 
z
M 18.3125 54.390625 
Q 18.3125 48.734375 21.84375 45.5625 
Q 25.390625 42.390625 31.78125 42.390625 
Q 38.140625 42.390625 41.71875 45.5625 
Q 45.3125 48.734375 45.3125 54.390625 
Q 45.3125 60.0625 41.71875 63.234375 
Q 38.140625 66.40625 31.78125 66.40625 
Q 25.390625 66.40625 21.84375 63.234375 
Q 18.3125 60.0625 18.3125 54.390625 
z
" id="DejaVuSans-56"/>
      </defs>
      <g transform="translate(447.988438 463.158437)scale(0.1 -0.1)">
       <use xlink:href="#DejaVuSans-48"/>
       <use x="63.623047" xlink:href="#DejaVuSans-46"/>
       <use x="95.410156" xlink:href="#DejaVuSans-56"/>
      </g>
     </g>
    </g>
    <g id="xtick_10">
     <g id="line2d_19">
      <path clip-path="url(#pb2f9c64f42)" d="M 503.37 448.56 
L 503.37 60.48 
" style="fill:none;stroke:#b0b0b0;stroke-linecap:square;stroke-width:0.8;"/>
     </g>
     <g id="line2d_20">
      <g>
       <use style="stroke:#000000;stroke-width:0.8;" x="503.37" xlink:href="#m94e2340c84" y="448.56"/>
      </g>
     </g>
     <g id="text_10">
      <!-- 0.9 -->
      <defs>
       <path d="M 10.984375 1.515625 
L 10.984375 10.5 
Q 14.703125 8.734375 18.5 7.8125 
Q 22.3125 6.890625 25.984375 6.890625 
Q 35.75 6.890625 40.890625 13.453125 
Q 46.046875 20.015625 46.78125 33.40625 
Q 43.953125 29.203125 39.59375 26.953125 
Q 35.25 24.703125 29.984375 24.703125 
Q 19.046875 24.703125 12.671875 31.3125 
Q 6.296875 37.9375 6.296875 49.421875 
Q 6.296875 60.640625 12.9375 67.421875 
Q 19.578125 74.21875 30.609375 74.21875 
Q 43.265625 74.21875 49.921875 64.515625 
Q 56.59375 54.828125 56.59375 36.375 
Q 56.59375 19.140625 48.40625 8.859375 
Q 40.234375 -1.421875 26.421875 -1.421875 
Q 22.703125 -1.421875 18.890625 -0.6875 
Q 15.09375 0.046875 10.984375 1.515625 
z
M 30.609375 32.421875 
Q 37.25 32.421875 41.125 36.953125 
Q 45.015625 41.5 45.015625 49.421875 
Q 45.015625 57.28125 41.125 61.84375 
Q 37.25 66.40625 30.609375 66.40625 
Q 23.96875 66.40625 20.09375 61.84375 
Q 16.21875 57.28125 16.21875 49.421875 
Q 16.21875 41.5 20.09375 36.953125 
Q 23.96875 32.421875 30.609375 32.421875 
z
" id="DejaVuSans-57"/>
      </defs>
      <g transform="translate(495.418438 463.158437)scale(0.1 -0.1)">
       <use xlink:href="#DejaVuSans-48"/>
       <use x="63.623047" xlink:href="#DejaVuSans-46"/>
       <use x="95.410156" xlink:href="#DejaVuSans-57"/>
      </g>
     </g>
    </g>
    <g id="xtick_11">
     <g id="line2d_21">
      <path clip-path="url(#pb2f9c64f42)" d="M 550.8 448.56 
L 550.8 60.48 
" style="fill:none;stroke:#b0b0b0;stroke-linecap:square;stroke-width:0.8;"/>
     </g>
     <g id="line2d_22">
      <g>
       <use style="stroke:#000000;stroke-width:0.8;" x="550.8" xlink:href="#m94e2340c84" y="448.56"/>
      </g>
     </g>
     <g id="text_11">
      <!-- 1.0 -->
      <g transform="translate(542.848438 463.158437)scale(0.1 -0.1)">
       <use xlink:href="#DejaVuSans-49"/>
       <use x="63.623047" xlink:href="#DejaVuSans-46"/>
       <use x="95.410156" xlink:href="#DejaVuSans-48"/>
      </g>
     </g>
    </g>
    <g id="text_12">
     <!-- 1-precision -->
     <defs>
      <path d="M 4.890625 31.390625 
L 31.203125 31.390625 
L 31.203125 23.390625 
L 4.890625 23.390625 
z
" id="DejaVuSans-45"/>
      <path d="M 18.109375 8.203125 
L 18.109375 -20.796875 
L 9.078125 -20.796875 
L 9.078125 54.6875 
L 18.109375 54.6875 
L 18.109375 46.390625 
Q 20.953125 51.265625 25.265625 53.625 
Q 29.59375 56 35.59375 56 
Q 45.5625 56 51.78125 48.09375 
Q 58.015625 40.1875 58.015625 27.296875 
Q 58.015625 14.40625 51.78125 6.484375 
Q 45.5625 -1.421875 35.59375 -1.421875 
Q 29.59375 -1.421875 25.265625 0.953125 
Q 20.953125 3.328125 18.109375 8.203125 
z
M 48.6875 27.296875 
Q 48.6875 37.203125 44.609375 42.84375 
Q 40.53125 48.484375 33.40625 48.484375 
Q 26.265625 48.484375 22.1875 42.84375 
Q 18.109375 37.203125 18.109375 27.296875 
Q 18.109375 17.390625 22.1875 11.75 
Q 26.265625 6.109375 33.40625 6.109375 
Q 40.53125 6.109375 44.609375 11.75 
Q 48.6875 17.390625 48.6875 27.296875 
z
" id="DejaVuSans-112"/>
      <path d="M 41.109375 46.296875 
Q 39.59375 47.171875 37.8125 47.578125 
Q 36.03125 48 33.890625 48 
Q 26.265625 48 22.1875 43.046875 
Q 18.109375 38.09375 18.109375 28.8125 
L 18.109375 0 
L 9.078125 0 
L 9.078125 54.6875 
L 18.109375 54.6875 
L 18.109375 46.1875 
Q 20.953125 51.171875 25.484375 53.578125 
Q 30.03125 56 36.53125 56 
Q 37.453125 56 38.578125 55.875 
Q 39.703125 55.765625 41.0625 55.515625 
z
" id="DejaVuSans-114"/>
      <path d="M 56.203125 29.59375 
L 56.203125 25.203125 
L 14.890625 25.203125 
Q 15.484375 15.921875 20.484375 11.0625 
Q 25.484375 6.203125 34.421875 6.203125 
Q 39.59375 6.203125 44.453125 7.46875 
Q 49.3125 8.734375 54.109375 11.28125 
L 54.109375 2.78125 
Q 49.265625 0.734375 44.1875 -0.34375 
Q 39.109375 -1.421875 33.890625 -1.421875 
Q 20.796875 -1.421875 13.15625 6.1875 
Q 5.515625 13.8125 5.515625 26.8125 
Q 5.515625 40.234375 12.765625 48.109375 
Q 20.015625 56 32.328125 56 
Q 43.359375 56 49.78125 48.890625 
Q 56.203125 41.796875 56.203125 29.59375 
z
M 47.21875 32.234375 
Q 47.125 39.59375 43.09375 43.984375 
Q 39.0625 48.390625 32.421875 48.390625 
Q 24.90625 48.390625 20.390625 44.140625 
Q 15.875 39.890625 15.1875 32.171875 
z
" id="DejaVuSans-101"/>
      <path d="M 48.78125 52.59375 
L 48.78125 44.1875 
Q 44.96875 46.296875 41.140625 47.34375 
Q 37.3125 48.390625 33.40625 48.390625 
Q 24.65625 48.390625 19.8125 42.84375 
Q 14.984375 37.3125 14.984375 27.296875 
Q 14.984375 17.28125 19.8125 11.734375 
Q 24.65625 6.203125 33.40625 6.203125 
Q 37.3125 6.203125 41.140625 7.25 
Q 44.96875 8.296875 48.78125 10.40625 
L 48.78125 2.09375 
Q 45.015625 0.34375 40.984375 -0.53125 
Q 36.96875 -1.421875 32.421875 -1.421875 
Q 20.0625 -1.421875 12.78125 6.34375 
Q 5.515625 14.109375 5.515625 27.296875 
Q 5.515625 40.671875 12.859375 48.328125 
Q 20.21875 56 33.015625 56 
Q 37.15625 56 41.109375 55.140625 
Q 45.0625 54.296875 48.78125 52.59375 
z
" id="DejaVuSans-99"/>
      <path d="M 9.421875 54.6875 
L 18.40625 54.6875 
L 18.40625 0 
L 9.421875 0 
z
M 9.421875 75.984375 
L 18.40625 75.984375 
L 18.40625 64.59375 
L 9.421875 64.59375 
z
" id="DejaVuSans-105"/>
      <path d="M 44.28125 53.078125 
L 44.28125 44.578125 
Q 40.484375 46.53125 36.375 47.5 
Q 32.28125 48.484375 27.875 48.484375 
Q 21.1875 48.484375 17.84375 46.4375 
Q 14.5 44.390625 14.5 40.28125 
Q 14.5 37.15625 16.890625 35.375 
Q 19.28125 33.59375 26.515625 31.984375 
L 29.59375 31.296875 
Q 39.15625 29.25 43.1875 25.515625 
Q 47.21875 21.78125 47.21875 15.09375 
Q 47.21875 7.46875 41.1875 3.015625 
Q 35.15625 -1.421875 24.609375 -1.421875 
Q 20.21875 -1.421875 15.453125 -0.5625 
Q 10.6875 0.296875 5.421875 2 
L 5.421875 11.28125 
Q 10.40625 8.6875 15.234375 7.390625 
Q 20.0625 6.109375 24.8125 6.109375 
Q 31.15625 6.109375 34.5625 8.28125 
Q 37.984375 10.453125 37.984375 14.40625 
Q 37.984375 18.0625 35.515625 20.015625 
Q 33.0625 21.96875 24.703125 23.78125 
L 21.578125 24.515625 
Q 13.234375 26.265625 9.515625 29.90625 
Q 5.8125 33.546875 5.8125 39.890625 
Q 5.8125 47.609375 11.28125 51.796875 
Q 16.75 56 26.8125 56 
Q 31.78125 56 36.171875 55.265625 
Q 40.578125 54.546875 44.28125 53.078125 
z
" id="DejaVuSans-115"/>
      <path d="M 30.609375 48.390625 
Q 23.390625 48.390625 19.1875 42.75 
Q 14.984375 37.109375 14.984375 27.296875 
Q 14.984375 17.484375 19.15625 11.84375 
Q 23.34375 6.203125 30.609375 6.203125 
Q 37.796875 6.203125 41.984375 11.859375 
Q 46.1875 17.53125 46.1875 27.296875 
Q 46.1875 37.015625 41.984375 42.703125 
Q 37.796875 48.390625 30.609375 48.390625 
z
M 30.609375 56 
Q 42.328125 56 49.015625 48.375 
Q 55.71875 40.765625 55.71875 27.296875 
Q 55.71875 13.875 49.015625 6.21875 
Q 42.328125 -1.421875 30.609375 -1.421875 
Q 18.84375 -1.421875 12.171875 6.21875 
Q 5.515625 13.875 5.515625 27.296875 
Q 5.515625 40.765625 12.171875 48.375 
Q 18.84375 56 30.609375 56 
z
" id="DejaVuSans-111"/>
      <path d="M 54.890625 33.015625 
L 54.890625 0 
L 45.90625 0 
L 45.90625 32.71875 
Q 45.90625 40.484375 42.875 44.328125 
Q 39.84375 48.1875 33.796875 48.1875 
Q 26.515625 48.1875 22.3125 43.546875 
Q 18.109375 38.921875 18.109375 30.90625 
L 18.109375 0 
L 9.078125 0 
L 9.078125 54.6875 
L 18.109375 54.6875 
L 18.109375 46.1875 
Q 21.34375 51.125 25.703125 53.5625 
Q 30.078125 56 35.796875 56 
Q 45.21875 56 50.046875 50.171875 
Q 54.890625 44.34375 54.890625 33.015625 
z
" id="DejaVuSans-110"/>
     </defs>
     <g transform="translate(286.110938 476.836563)scale(0.1 -0.1)">
      <use xlink:href="#DejaVuSans-49"/>
      <use x="63.623047" xlink:href="#DejaVuSans-45"/>
      <use x="99.707031" xlink:href="#DejaVuSans-112"/>
      <use x="163.183594" xlink:href="#DejaVuSans-114"/>
      <use x="202.046875" xlink:href="#DejaVuSans-101"/>
      <use x="263.570312" xlink:href="#DejaVuSans-99"/>
      <use x="318.550781" xlink:href="#DejaVuSans-105"/>
      <use x="346.333984" xlink:href="#DejaVuSans-115"/>
      <use x="398.433594" xlink:href="#DejaVuSans-105"/>
      <use x="426.216797" xlink:href="#DejaVuSans-111"/>
      <use x="487.398438" xlink:href="#DejaVuSans-110"/>
     </g>
    </g>
   </g>
   <g id="matplotlib.axis_2">
    <g id="ytick_1">
     <g id="line2d_23">
      <path clip-path="url(#pb2f9c64f42)" d="M 76.5 448.56 
L 550.8 448.56 
" style="fill:none;stroke:#b0b0b0;stroke-linecap:square;stroke-width:0.8;"/>
     </g>
     <g id="line2d_24">
      <defs>
       <path d="M 0 0 
L -3.5 0 
" id="m893f160060" style="stroke:#000000;stroke-width:0.8;"/>
      </defs>
      <g>
       <use style="stroke:#000000;stroke-width:0.8;" x="76.5" xlink:href="#m893f160060" y="448.56"/>
      </g>
     </g>
     <g id="text_13">
      <!-- 0.0 -->
      <g transform="translate(53.596875 452.359219)scale(0.1 -0.1)">
       <use xlink:href="#DejaVuSans-48"/>
       <use x="63.623047" xlink:href="#DejaVuSans-46"/>
       <use x="95.410156" xlink:href="#DejaVuSans-48"/>
      </g>
     </g>
    </g>
    <g id="ytick_2">
     <g id="line2d_25">
      <path clip-path="url(#pb2f9c64f42)" d="M 76.5 409.752 
L 550.8 409.752 
" style="fill:none;stroke:#b0b0b0;stroke-linecap:square;stroke-width:0.8;"/>
     </g>
     <g id="line2d_26">
      <g>
       <use style="stroke:#000000;stroke-width:0.8;" x="76.5" xlink:href="#m893f160060" y="409.752"/>
      </g>
     </g>
     <g id="text_14">
      <!-- 0.1 -->
      <g transform="translate(53.596875 413.551219)scale(0.1 -0.1)">
       <use xlink:href="#DejaVuSans-48"/>
       <use x="63.623047" xlink:href="#DejaVuSans-46"/>
       <use x="95.410156" xlink:href="#DejaVuSans-49"/>
      </g>
     </g>
    </g>
    <g id="ytick_3">
     <g id="line2d_27">
      <path clip-path="url(#pb2f9c64f42)" d="M 76.5 370.944 
L 550.8 370.944 
" style="fill:none;stroke:#b0b0b0;stroke-linecap:square;stroke-width:0.8;"/>
     </g>
     <g id="line2d_28">
      <g>
       <use style="stroke:#000000;stroke-width:0.8;" x="76.5" xlink:href="#m893f160060" y="370.944"/>
      </g>
     </g>
     <g id="text_15">
      <!-- 0.2 -->
      <g transform="translate(53.596875 374.743219)scale(0.1 -0.1)">
       <use xlink:href="#DejaVuSans-48"/>
       <use x="63.623047" xlink:href="#DejaVuSans-46"/>
       <use x="95.410156" xlink:href="#DejaVuSans-50"/>
      </g>
     </g>
    </g>
    <g id="ytick_4">
     <g id="line2d_29">
      <path clip-path="url(#pb2f9c64f42)" d="M 76.5 332.136 
L 550.8 332.136 
" style="fill:none;stroke:#b0b0b0;stroke-linecap:square;stroke-width:0.8;"/>
     </g>
     <g id="line2d_30">
      <g>
       <use style="stroke:#000000;stroke-width:0.8;" x="76.5" xlink:href="#m893f160060" y="332.136"/>
      </g>
     </g>
     <g id="text_16">
      <!-- 0.3 -->
      <g transform="translate(53.596875 335.935219)scale(0.1 -0.1)">
       <use xlink:href="#DejaVuSans-48"/>
       <use x="63.623047" xlink:href="#DejaVuSans-46"/>
       <use x="95.410156" xlink:href="#DejaVuSans-51"/>
      </g>
     </g>
    </g>
    <g id="ytick_5">
     <g id="line2d_31">
      <path clip-path="url(#pb2f9c64f42)" d="M 76.5 293.328 
L 550.8 293.328 
" style="fill:none;stroke:#b0b0b0;stroke-linecap:square;stroke-width:0.8;"/>
     </g>
     <g id="line2d_32">
      <g>
       <use style="stroke:#000000;stroke-width:0.8;" x="76.5" xlink:href="#m893f160060" y="293.328"/>
      </g>
     </g>
     <g id="text_17">
      <!-- 0.4 -->
      <g transform="translate(53.596875 297.127219)scale(0.1 -0.1)">
       <use xlink:href="#DejaVuSans-48"/>
       <use x="63.623047" xlink:href="#DejaVuSans-46"/>
       <use x="95.410156" xlink:href="#DejaVuSans-52"/>
      </g>
     </g>
    </g>
    <g id="ytick_6">
     <g id="line2d_33">
      <path clip-path="url(#pb2f9c64f42)" d="M 76.5 254.52 
L 550.8 254.52 
" style="fill:none;stroke:#b0b0b0;stroke-linecap:square;stroke-width:0.8;"/>
     </g>
     <g id="line2d_34">
      <g>
       <use style="stroke:#000000;stroke-width:0.8;" x="76.5" xlink:href="#m893f160060" y="254.52"/>
      </g>
     </g>
     <g id="text_18">
      <!-- 0.5 -->
      <g transform="translate(53.596875 258.319219)scale(0.1 -0.1)">
       <use xlink:href="#DejaVuSans-48"/>
       <use x="63.623047" xlink:href="#DejaVuSans-46"/>
       <use x="95.410156" xlink:href="#DejaVuSans-53"/>
      </g>
     </g>
    </g>
    <g id="ytick_7">
     <g id="line2d_35">
      <path clip-path="url(#pb2f9c64f42)" d="M 76.5 215.712 
L 550.8 215.712 
" style="fill:none;stroke:#b0b0b0;stroke-linecap:square;stroke-width:0.8;"/>
     </g>
     <g id="line2d_36">
      <g>
       <use style="stroke:#000000;stroke-width:0.8;" x="76.5" xlink:href="#m893f160060" y="215.712"/>
      </g>
     </g>
     <g id="text_19">
      <!-- 0.6 -->
      <g transform="translate(53.596875 219.511219)scale(0.1 -0.1)">
       <use xlink:href="#DejaVuSans-48"/>
       <use x="63.623047" xlink:href="#DejaVuSans-46"/>
       <use x="95.410156" xlink:href="#DejaVuSans-54"/>
      </g>
     </g>
    </g>
    <g id="ytick_8">
     <g id="line2d_37">
      <path clip-path="url(#pb2f9c64f42)" d="M 76.5 176.904 
L 550.8 176.904 
" style="fill:none;stroke:#b0b0b0;stroke-linecap:square;stroke-width:0.8;"/>
     </g>
     <g id="line2d_38">
      <g>
       <use style="stroke:#000000;stroke-width:0.8;" x="76.5" xlink:href="#m893f160060" y="176.904"/>
      </g>
     </g>
     <g id="text_20">
      <!-- 0.7 -->
      <g transform="translate(53.596875 180.703219)scale(0.1 -0.1)">
       <use xlink:href="#DejaVuSans-48"/>
       <use x="63.623047" xlink:href="#DejaVuSans-46"/>
       <use x="95.410156" xlink:href="#DejaVuSans-55"/>
      </g>
     </g>
    </g>
    <g id="ytick_9">
     <g id="line2d_39">
      <path clip-path="url(#pb2f9c64f42)" d="M 76.5 138.096 
L 550.8 138.096 
" style="fill:none;stroke:#b0b0b0;stroke-linecap:square;stroke-width:0.8;"/>
     </g>
     <g id="line2d_40">
      <g>
       <use style="stroke:#000000;stroke-width:0.8;" x="76.5" xlink:href="#m893f160060" y="138.096"/>
      </g>
     </g>
     <g id="text_21">
      <!-- 0.8 -->
      <g transform="translate(53.596875 141.895219)scale(0.1 -0.1)">
       <use xlink:href="#DejaVuSans-48"/>
       <use x="63.623047" xlink:href="#DejaVuSans-46"/>
       <use x="95.410156" xlink:href="#DejaVuSans-56"/>
      </g>
     </g>
    </g>
    <g id="ytick_10">
     <g id="line2d_41">
      <path clip-path="url(#pb2f9c64f42)" d="M 76.5 99.288 
L 550.8 99.288 
" style="fill:none;stroke:#b0b0b0;stroke-linecap:square;stroke-width:0.8;"/>
     </g>
     <g id="line2d_42">
      <g>
       <use style="stroke:#000000;stroke-width:0.8;" x="76.5" xlink:href="#m893f160060" y="99.288"/>
      </g>
     </g>
     <g id="text_22">
      <!-- 0.9 -->
      <g transform="translate(53.596875 103.087219)scale(0.1 -0.1)">
       <use xlink:href="#DejaVuSans-48"/>
       <use x="63.623047" xlink:href="#DejaVuSans-46"/>
       <use x="95.410156" xlink:href="#DejaVuSans-57"/>
      </g>
     </g>
    </g>
    <g id="ytick_11">
     <g id="line2d_43">
      <path clip-path="url(#pb2f9c64f42)" d="M 76.5 60.48 
L 550.8 60.48 
" style="fill:none;stroke:#b0b0b0;stroke-linecap:square;stroke-width:0.8;"/>
     </g>
     <g id="line2d_44">
      <g>
       <use style="stroke:#000000;stroke-width:0.8;" x="76.5" xlink:href="#m893f160060" y="60.48"/>
      </g>
     </g>
     <g id="text_23">
      <!-- 1.0 -->
      <g transform="translate(53.596875 64.279219)scale(0.1 -0.1)">
       <use xlink:href="#DejaVuSans-49"/>
       <use x="63.623047" xlink:href="#DejaVuSans-46"/>
       <use x="95.410156" xlink:href="#DejaVuSans-48"/>
      </g>
     </g>
    </g>
    <g id="text_24">
     <!-- #correct/873 -->
     <defs>
      <path d="M 51.125 44 
L 36.921875 44 
L 32.8125 27.6875 
L 47.125 27.6875 
z
M 43.796875 71.78125 
L 38.71875 51.515625 
L 52.984375 51.515625 
L 58.109375 71.78125 
L 65.921875 71.78125 
L 60.890625 51.515625 
L 76.125 51.515625 
L 76.125 44 
L 58.984375 44 
L 54.984375 27.6875 
L 70.515625 27.6875 
L 70.515625 20.21875 
L 53.078125 20.21875 
L 48 0 
L 40.1875 0 
L 45.21875 20.21875 
L 30.90625 20.21875 
L 25.875 0 
L 18.015625 0 
L 23.09375 20.21875 
L 7.71875 20.21875 
L 7.71875 27.6875 
L 24.90625 27.6875 
L 29 44 
L 13.28125 44 
L 13.28125 51.515625 
L 30.90625 51.515625 
L 35.890625 71.78125 
z
" id="DejaVuSans-35"/>
      <path d="M 18.3125 70.21875 
L 18.3125 54.6875 
L 36.8125 54.6875 
L 36.8125 47.703125 
L 18.3125 47.703125 
L 18.3125 18.015625 
Q 18.3125 11.328125 20.140625 9.421875 
Q 21.96875 7.515625 27.59375 7.515625 
L 36.8125 7.515625 
L 36.8125 0 
L 27.59375 0 
Q 17.1875 0 13.234375 3.875 
Q 9.28125 7.765625 9.28125 18.015625 
L 9.28125 47.703125 
L 2.6875 47.703125 
L 2.6875 54.6875 
L 9.28125 54.6875 
L 9.28125 70.21875 
z
" id="DejaVuSans-116"/>
      <path d="M 25.390625 72.90625 
L 33.6875 72.90625 
L 8.296875 -9.28125 
L 0 -9.28125 
z
" id="DejaVuSans-47"/>
     </defs>
     <g transform="translate(47.517187 287.443438)rotate(-90)scale(0.1 -0.1)">
      <use xlink:href="#DejaVuSans-35"/>
      <use x="83.789062" xlink:href="#DejaVuSans-99"/>
      <use x="138.769531" xlink:href="#DejaVuSans-111"/>
      <use x="199.951172" xlink:href="#DejaVuSans-114"/>
      <use x="239.314453" xlink:href="#DejaVuSans-114"/>
      <use x="278.177734" xlink:href="#DejaVuSans-101"/>
      <use x="339.701172" xlink:href="#DejaVuSans-99"/>
      <use x="394.681641" xlink:href="#DejaVuSans-116"/>
      <use x="433.890625" xlink:href="#DejaVuSans-47"/>
      <use x="467.582031" xlink:href="#DejaVuSans-56"/>
      <use x="531.205078" xlink:href="#DejaVuSans-55"/>
      <use x="594.828125" xlink:href="#DejaVuSans-51"/>
     </g>
    </g>
   </g>
   <g id="line2d_45">
    <path clip-path="url(#pb2f9c64f42)" d="M 76.5 448.115464 
L 76.5 292.972371 
L 77.851282 292.972371 
L 77.751451 280.525361 
L 78.996316 280.525361 
L 78.932308 276.08 
L 82.534351 276.08 
L 82.214458 266.300206 
L 83.340865 266.300206 
L 83.275714 264.522062 
L 84.386223 264.522062 
L 84.367536 264.077526 
L 85.470213 264.077526 
L 85.365421 261.854845 
L 86.45035 261.854845 
L 86.028348 253.40866 
L 87.063474 253.40866 
L 86.279381 237.405361 
L 88.187064 237.405361 
L 88.068293 235.18268 
L 89.006897 235.18268 
L 88.856513 232.515464 
L 89.7804 232.515464 
L 89.622925 229.848247 
L 90.532544 229.848247 
L 90.181731 224.069278 
L 91.065835 224.069278 
L 90.818491 220.068454 
L 92.547744 220.068454 
L 92.022545 212.066804 
L 93.684783 212.066804 
L 93.289381 206.287835 
L 94.097703 206.287835 
L 93.381864 195.618969 
L 94.155838 195.618969 
L 93.63399 187.61732 
L 95.130442 187.61732 
L 94.86 183.616495 
L 96.326045 183.616495 
L 96.136624 180.949278 
L 96.859459 180.949278 
L 96.794929 180.060206 
L 97.513291 180.060206 
L 97.283099 176.948454 
L 97.991719 176.948454 
L 97.825116 174.725773 
L 99.225348 174.725773 
L 99.085714 172.947629 
L 99.778528 172.947629 
L 99.742879 172.503093 
L 100.432569 172.503093 
L 100.359604 171.614021 
L 101.045205 171.614021 
L 101.007903 171.169485 
L 101.69044 171.169485 
L 101.313901 166.724124 
L 101.984776 166.724124 
L 101.61 162.278763 
L 102.269604 162.278763 
L 102.081778 160.056082 
L 102.734934 160.056082 
L 102.545376 157.833402 
L 103.192208 157.833402 
L 103.153746 157.388866 
L 103.797842 157.388866 
L 103.719512 156.499794 
L 104.998712 156.499794 
L 104.876923 155.166186 
L 105.511238 155.166186 
L 105.470028 154.721649 
L 106.101702 154.721649 
L 106.017963 153.832577 
L 107.272638 153.832577 
L 107.229296 153.388041 
L 108.475281 153.388041 
L 108.252301 151.165361 
L 108.868663 151.165361 
L 108.689335 149.387216 
L 109.30083 149.387216 
L 109.255525 148.94268 
L 109.864552 148.94268 
L 109.681481 147.164536 
L 110.285753 147.164536 
L 110.193443 146.275464 
L 111.394005 146.275464 
L 111.111081 143.608247 
L 112.886406 143.608247 
L 112.74008 142.274639 
L 113.911364 142.274639 
L 113.712367 140.496495 
L 114.871751 140.496495 
L 114.719683 139.162887 
L 115.294987 139.162887 
L 115.192895 138.273814 
L 115.765309 138.273814 
L 115.611126 136.940206 
L 116.747389 136.940206 
L 116.694915 136.49567 
L 117.260156 136.49567 
L 117.207152 136.051134 
L 119.450841 136.051134 
L 119.395349 135.606598 
L 121.061004 135.606598 
L 120.946598 134.717526 
L 123.68801 134.717526 
L 123.567939 133.828454 
L 124.652284 133.828454 
L 124.591255 133.383918 
L 125.6689 133.383918 
L 125.606818 132.939381 
L 126.677834 132.939381 
L 126.551759 132.050309 
L 127.084065 132.050309 
L 126.957447 131.161237 
L 129.068742 131.161237 
L 128.938137 130.272165 
L 129.461538 130.272165 
L 129.395911 129.827629 
L 130.437701 129.827629 
L 130.172325 128.049485 
L 130.689066 128.049485 
L 130.622577 127.604948 
L 131.1375 127.604948 
L 131.070624 127.160412 
L 131.583741 127.160412 
L 131.516484 126.715876 
L 133.046715 126.715876 
L 132.909466 125.826804 
L 134.928261 125.826804 
L 134.577551 123.604124 
L 136.071172 123.604124 
L 136 123.159588 
L 136.988796 123.159588 
L 136.773278 121.825979 
L 137.754384 121.825979 
L 137.681893 121.381443 
L 138.170213 121.381443 
L 138.097403 120.936907 
L 138.58408 120.936907 
L 138.510954 120.492371 
L 139.479906 120.492371 
L 139.405986 120.047835 
L 141.328388 120.047835 
L 141.252742 119.603299 
L 141.73007 119.603299 
L 141.578372 118.714227 
L 143.943815 118.714227 
L 143.865935 118.269691 
L 146.201952 118.269691 
L 146.042268 117.380619 
L 146.505378 117.380619 
L 146.425371 116.936082 
L 146.886986 116.936082 
L 146.806727 116.491546 
L 147.266856 116.491546 
L 147.186348 116.04701 
L 148.102611 116.04701 
L 148.021429 115.602474 
L 150.291883 115.602474 
L 150.208784 115.157938 
L 151.108989 115.157938 
L 151.025253 114.713402 
L 151.920605 114.713402 
L 151.836242 114.268866 
L 152.726786 114.268866 
L 152.557016 113.379794 
L 153.442 113.379794 
L 153.356604 112.935258 
L 154.675553 112.935258 
L 154.589171 112.490722 
L 155.02649 112.490722 
L 154.939912 112.046186 
L 156.678046 112.046186 
L 156.590132 111.601649 
L 157.882623 111.601649 
L 157.793777 111.157113 
L 158.222356 111.157113 
L 158.133333 110.712577 
L 160.683117 110.712577 
L 160.592108 110.268041 
L 161.853556 110.268041 
L 161.761679 109.823505 
L 162.597422 109.823505 
L 162.505043 109.378969 
L 165.399681 109.378969 
L 165.305106 108.934433 
L 165.714772 108.934433 
L 165.525557 108.045361 
L 165.933686 108.045361 
L 165.839048 107.600825 
L 167.865158 107.600825 
L 167.769085 107.156289 
L 168.572928 107.156289 
L 168.476415 106.711753 
L 171.655821 106.711753 
L 171.557009 106.267216 
L 173.12575 106.267216 
L 173.02593 105.82268 
L 175.35308 105.82268 
L 175.049539 104.489072 
L 179.608696 104.489072 
L 179.504545 104.044536 
L 180.998692 104.044536 
L 180.893668 103.6 
L 182.7432 103.6 
L 182.637063 103.155464 
L 183.737151 103.155464 
L 183.523956 102.266392 
L 187.49646 102.266392 
L 187.387426 101.821856 
L 188.1 101.821856 
L 187.990695 101.37732 
L 189.406537 101.37732 
L 189.296491 100.932784 
L 190.350437 100.932784 
L 190.239903 100.488247 
L 190.938663 100.488247 
L 190.82788 100.043711 
L 193.937044 100.043711 
L 193.824449 99.599175 
L 194.166379 99.599175 
L 193.941396 98.710103 
L 200.964855 98.710103 
L 200.848315 98.265567 
L 202.803352 98.265567 
L 202.68586 97.821031 
L 207.791109 97.821031 
L 207.670879 97.376495 
L 208.610959 97.376495 
L 208.49042 96.931959 
L 212.503066 96.931959 
L 212.380541 96.487423 
L 216.29813 96.487423 
L 216.173754 96.042887 
L 217.360372 96.042887 
L 217.235607 95.598351 
L 218.413239 95.598351 
L 218.288095 95.153814 
L 220.906299 95.153814 
L 220.78007 94.709278 
L 222.216188 94.709278 
L 222.089478 94.264742 
L 223.512468 94.264742 
L 223.385294 93.820206 
L 223.66828 93.820206 
L 223.541192 93.37567 
L 224.386822 93.37567 
L 224.259552 92.931134 
L 227.321739 92.931134 
L 227.193271 92.486598 
L 232.347108 92.486598 
L 232.216583 92.042062 
L 234.6 92.042062 
L 234.468688 91.597526 
L 236.815746 91.597526 
L 236.68369 91.15299 
L 243.517808 91.15299 
L 243.383333 90.708454 
L 244.615958 90.708454 
L 244.48125 90.263918 
L 248.597787 90.263918 
L 248.461848 89.819381 
L 248.700474 89.819381 
L 248.564669 89.374845 
L 256.908589 89.374845 
L 256.770345 88.930309 
L 259.22804 88.930309 
L 259.089294 88.485773 
L 264.949554 88.485773 
L 264.809442 88.041237 
L 274.465733 88.041237 
L 274.323618 87.596701 
L 274.72 87.596701 
L 274.578009 87.152165 
L 276.347402 87.152165 
L 276.205263 86.707629 
L 286.723256 86.707629 
L 286.579563 86.263093 
L 294.464125 86.263093 
L 294.319682 85.818557 
L 306.309286 85.818557 
L 306.164205 85.374021 
L 306.626654 85.374021 
L 306.481738 84.929485 
L 326.276042 84.929485 
L 326.276042 84.929485 
" style="fill:none;stroke:#1f77b4;stroke-linecap:square;stroke-width:2;"/>
   </g>
   <g id="line2d_46">
    <path clip-path="url(#pb2f9c64f42)" d="M 76.5 448.115464 
L 76.5 445.448247 
L 135.7875 445.448247 
L 123.93 444.559175 
L 116.025 443.670103 
L 110.378571 442.781031 
L 106.14375 441.891959 
L 102.85 441.002887 
L 100.215 440.113814 
L 98.059091 439.224742 
L 135.7875 439.224742 
L 133.416 438.780206 
L 149.469231 438.780206 
L 146.766667 438.33567 
L 161.196429 438.33567 
L 158.275862 437.891134 
L 171.36 437.891134 
L 162.736364 436.557526 
L 160.2 436.11299 
L 171.36 436.11299 
L 168.725 435.668454 
L 179.051351 435.668454 
L 173.792308 434.779381 
L 192.182927 434.779381 
L 184.295455 433.445773 
L 200.230435 433.445773 
L 190.332 431.667629 
L 188.1 431.223093 
L 195.075 431.223093 
L 186.605357 429.444948 
L 181.00678 428.11134 
L 198.9 428.11134 
L 196.957143 427.666804 
L 202.485938 427.666804 
L 195.075 425.88866 
L 200.230435 425.88866 
L 195.075 424.555052 
L 199.947945 424.555052 
L 196.656 423.665979 
L 201.315789 423.665979 
L 199.694805 423.221443 
L 208.583544 423.221443 
L 203.75122 421.887835 
L 207.93253 421.887835 
L 201.889655 420.109691 
L 205.854545 420.109691 
L 204.401124 419.665155 
L 208.25 419.665155 
L 206.802198 419.220619 
L 210.541304 419.220619 
L 206.308421 417.88701 
L 220.227273 417.88701 
L 217.381188 416.997938 
L 230.082857 416.997938 
L 225.816667 415.66433 
L 242.921053 415.66433 
L 237.279661 413.886186 
L 239.914286 413.886186 
L 238.5525 413.441649 
L 255.762992 413.441649 
L 252.983721 412.552577 
L 255.274615 412.552577 
L 253.909924 412.108041 
L 258.374436 412.108041 
L 257.017164 411.663505 
L 265.532609 411.663505 
L 261.510638 410.329897 
L 263.547887 410.329897 
L 262.23986 409.885361 
L 264.24375 409.885361 
L 260.412245 408.551753 
L 264.310067 408.551753 
L 263.058 408.107216 
L 282.717391 408.107216 
L 280.187117 407.218144 
L 281.837195 407.218144 
L 278.148503 405.884536 
L 284.526316 405.884536 
L 283.31686 405.44 
L 287.902286 405.44 
L 286.701136 404.995464 
L 292.57 404.995464 
L 291.376243 404.550928 
L 299.7 404.550928 
L 298.512766 404.106392 
L 299.847619 404.106392 
L 298.672105 403.661856 
L 306.390306 403.661856 
L 305.22335 403.21732 
L 312.481773 403.21732 
L 311.325 402.772784 
L 312.493171 402.772784 
L 310.213043 401.883711 
L 332.372368 401.883711 
L 331.255022 401.439175 
L 333.155844 401.439175 
L 332.049569 400.994639 
L 335.757203 400.994639 
L 334.663291 400.550103 
L 340 400.550103 
L 338.920082 400.105567 
L 339.784898 400.105567 
L 338.714634 399.661031 
L 342.939442 399.661031 
L 341.882143 399.216495 
L 344.34 399.216495 
L 343.29375 398.771959 
L 363.752113 398.771959 
L 362.744211 398.327423 
L 363.401748 398.327423 
L 362.402091 397.882887 
L 364.991753 397.882887 
L 364.003767 397.438351 
L 365.90339 397.438351 
L 364.925676 396.993814 
L 366.173154 396.993814 
L 365.204348 396.549278 
L 366.437542 396.549278 
L 365.477483 396.104742 
L 366.089109 396.104742 
L 364.190164 395.21567 
L 366.007792 395.21567 
L 365.070874 394.771134 
L 371.455313 394.771134 
L 370.536449 394.326598 
L 375.452727 394.326598 
L 373.651807 393.437526 
L 374.712575 393.437526 
L 373.822388 392.99299 
L 375.393195 392.99299 
L 374.511504 392.548454 
L 381.022159 392.548454 
L 380.15949 392.103918 
L 381.597472 392.103918 
L 380.742857 391.659381 
L 381.217877 391.659381 
L 380.369081 391.214845 
L 382.710165 391.214845 
L 381.871233 390.770309 
L 382.332787 390.770309 
L 381.499455 390.325773 
L 383.324798 390.325773 
L 382.5 389.881237 
L 390.678261 389.881237 
L 389.876786 389.436701 
L 392.7 389.436701 
L 391.9095 388.992165 
L 396.910896 388.992165 
L 396.136957 388.547629 
L 396.509639 388.547629 
L 395.740385 388.103093 
L 399.024 388.103093 
L 398.266901 387.658557 
L 399.333566 387.658557 
L 398.582791 387.214021 
L 401.703417 387.214021 
L 400.964318 386.769485 
L 402.647865 386.769485 
L 401.916592 386.324948 
L 405.817467 386.324948 
L 405.1 385.880412 
L 407.901923 385.880412 
L 407.195309 385.435876 
L 407.500851 385.435876 
L 406.798089 384.99134 
L 410.954845 384.99134 
L 410.266667 384.546804 
L 411.69776 384.546804 
L 411.016463 384.102268 
L 414.344643 384.102268 
L 413.675644 383.657732 
L 414.485433 383.657732 
L 413.821415 383.213196 
L 417.488145 383.213196 
L 416.837405 382.76866 
L 418.103592 382.76866 
L 417.459057 382.324124 
L 417.960338 382.324124 
L 417.3197 381.879588 
L 419.536162 381.879588 
L 418.90442 381.435052 
L 422.219569 381.435052 
L 421.6 380.990515 
L 423.426148 380.990515 
L 422.814286 380.545979 
L 423.710858 380.545979 
L 423.103846 380.101443 
L 425.297938 380.101443 
L 424.699657 379.656907 
L 425.130769 379.656907 
L 424.535836 379.212371 
L 426.862312 379.212371 
L 426.276421 378.767835 
L 426.898003 378.767835 
L 426.315947 378.323299 
L 426.522388 378.323299 
L 425.942881 377.878763 
L 428.771359 377.878763 
L 428.202262 377.434227 
L 430.724051 377.434227 
L 430.164455 376.989691 
L 431.855607 376.989691 
L 431.302955 376.545155 
L 431.857895 376.545155 
L 431.308655 376.100619 
L 433.306231 376.100619 
L 432.764795 375.656082 
L 434.35509 375.656082 
L 433.820179 375.211546 
L 434.168852 375.211546 
L 433.636607 374.76701 
L 434.50192 374.76701 
L 433.973894 374.322474 
L 434.14595 374.322474 
L 438.607224 374.322474 
L 438.09505 373.877938 
L 438.254237 373.877938 
L 438.412976 373.877938 
L 437.903239 373.433402 
L 438.062025 373.433402 
L 438.220365 373.433402 
L 437.713043 372.988866 
L 437.871429 372.988866 
L 438.500557 372.988866 
L 437.997079 372.54433 
L 438.15375 372.54433 
L 441.049932 372.54433 
L 439.576011 371.210722 
L 439.725707 371.210722 
L 441.346154 371.210722 
L 440.862914 370.766186 
L 441.008333 370.766186 
L 441.153369 370.766186 
L 440.672296 370.321649 
L 440.817391 370.321649 
L 441.393971 370.321649 
L 440.916361 369.877113 
L 441.06 369.877113 
L 441.203264 369.877113 
L 440.727771 369.432577 
L 440.871094 369.432577 
L 441.440674 369.432577 
L 439.702703 367.654433 
L 439.845501 367.654433 
L 439.379076 367.209897 
L 439.521923 367.209897 
L 440.371374 367.209897 
L 439.909022 366.765361 
L 440.049746 366.765361 
L 443.057778 366.765361 
L 442.605795 366.320825 
L 442.739039 366.320825 
L 443.004545 366.320825 
L 442.554847 365.876289 
L 442.6875 365.876289 
L 445.901308 365.876289 
L 445.462589 365.431753 
L 445.587544 365.431753 
L 448.144792 365.431753 
L 447.715145 364.987216 
L 447.83418 364.987216 
L 449.009589 364.987216 
L 448.584835 364.54268 
L 448.701253 364.54268 
L 449.279388 364.54268 
L 448.436949 363.653608 
L 448.552483 363.653608 
L 449.353975 363.653608 
L 448.634933 362.764536 
L 448.862472 362.764536 
L 448.448276 362.32 
L 448.562 362.32 
L 448.675472 362.32 
L 448.26286 361.875464 
L 448.376412 361.875464 
L 450.92041 361.875464 
L 450.516505 361.430928 
L 450.624569 361.430928 
L 451.586766 361.430928 
L 451.186887 360.986392 
L 451.292971 360.986392 
L 451.39883 360.986392 
L 451.000425 360.541856 
L 451.106369 360.541856 
L 451.317585 360.541856 
L 450.920952 360.09732 
L 451.026533 360.09732 
L 451.446632 360.09732 
L 451.052366 359.652784 
L 451.157143 359.652784 
L 452.702792 359.652784 
L 451.926316 358.763711 
L 452.028247 358.763711 
L 452.129969 358.763711 
L 451.743519 358.319175 
L 451.845324 358.319175 
L 453.838369 358.319175 
L 453.458753 357.874639 
L 453.556583 357.874639 
L 453.654217 357.874639 
L 453.275928 357.430103 
L 453.373647 357.430103 
L 453.471171 357.430103 
L 453.0942 356.985567 
L 453.191808 356.985567 
L 455.662902 356.985567 
L 455.294066 356.541031 
L 455.38688 356.541031 
L 456.577255 356.541031 
L 456.212848 356.096495 
L 456.303448 356.096495 
L 457.28872 356.096495 
L 456.208979 354.762887 
L 456.2983 354.762887 
L 456.653904 354.762887 
L 456.296617 354.318351 
L 456.385352 354.318351 
L 457.437326 354.318351 
L 457.083952 353.873814 
L 457.170806 353.873814 
L 457.774309 353.873814 
L 457.423551 353.429278 
L 457.509375 353.429278 
L 457.68055 353.429278 
L 457.331164 352.984742 
L 457.416758 352.984742 
L 457.927049 352.984742 
L 456.972958 351.651134 
L 457.733033 351.651134 
L 457.047978 350.762062 
L 457.132136 350.762062 
L 457.383706 350.762062 
L 457.043023 350.317526 
L 457.12681 350.317526 
L 457.210446 350.317526 
L 456.87083 349.87299 
L 456.954545 349.87299 
L 457.701326 349.87299 
L 457.364576 349.428454 
L 457.447043 349.428454 
L 458.666812 349.428454 
L 458.082798 348.539381 
L 458.881395 348.539381 
L 458.552324 348.094845 
L 458.631642 348.094845 
L 458.868782 348.094845 
L 458.541131 347.650309 
L 458.62012 347.650309 
L 459.402632 347.650309 
L 459.077863 347.205773 
L 459.155593 347.205773 
L 460.230151 347.205773 
L 459.909038 346.761237 
L 459.985033 346.761237 
L 460.513466 346.761237 
L 460.194518 346.316701 
L 460.26971 346.316701 
L 461.235961 346.316701 
L 460.050859 344.538557 
L 460.420358 344.538557 
L 459.870024 343.649485 
L 459.943831 343.649485 
L 459.08665 342.315876 
L 459.3825 342.315876 
L 459.073973 341.87134 
L 459.147826 341.87134 
L 459.442055 341.87134 
L 458.902002 340.982268 
L 459.268421 340.982268 
L 458.73222 340.093196 
L 459.169596 340.093196 
L 458.866851 339.64866 
L 458.939526 339.64866 
L 459.08453 339.64866 
L 458.782808 339.204124 
L 458.855319 339.204124 
L 459.359718 339.204124 
L 458.832525 338.315052 
L 459.616744 338.315052 
L 459.319985 337.870515 
L 459.390789 337.870515 
L 459.813328 337.870515 
L 459.518245 337.425979 
L 459.588462 337.425979 
L 460.970455 337.425979 
L 460.67941 336.981443 
L 460.747579 336.981443 
L 460.88361 336.981443 
L 460.593509 336.536907 
L 460.661538 336.536907 
L 461.00015 336.536907 
L 460.711486 336.092371 
L 460.77907 336.092371 
L 461.18245 336.092371 
L 460.608725 335.203299 
L 460.675931 335.203299 
L 461.010468 335.203299 
L 460.4404 334.314227 
L 460.507333 334.314227 
L 460.640902 334.314227 
L 460.356984 333.869691 
L 460.423781 333.869691 
L 460.623581 333.869691 
L 460.340722 333.425155 
L 460.407285 333.425155 
L 460.540118 333.425155 
L 460.043182 332.536082 
L 461.290022 332.536082 
L 461.011994 332.091546 
L 461.141558 332.091546 
L 461.528017 332.091546 
L 461.251615 331.64701 
L 461.38 331.64701 
L 461.571888 331.64701 
L 461.29664 331.202474 
L 461.424411 331.202474 
L 461.86875 331.202474 
L 461.049398 329.868866 
L 461.176433 329.868866 
L 461.239816 329.868866 
L 460.823484 328.979794 
L 461.703142 328.979794 
L 461.290738 328.090722 
L 461.663176 328.090722 
L 461.396258 327.646186 
L 461.52 327.646186 
L 461.581743 327.646186 
L 461.111801 326.757113 
L 461.173655 326.757113 
L 462.091331 326.757113 
L 461.828308 326.312577 
L 461.949523 326.312577 
L 462.070408 326.312577 
L 461.808294 325.868041 
L 461.929124 325.868041 
L 462.109756 325.868041 
L 461.84868 325.423505 
L 461.968966 325.423505 
L 462.208564 325.423505 
L 461.48998 324.089897 
L 461.55 324.089897 
L 461.908434 324.089897 
L 461.51255 323.200825 
L 462.862722 323.200825 
L 462.60887 322.756289 
L 462.724606 322.756289 
L 463.412695 322.756289 
L 463.160963 322.311753 
L 463.274854 322.311753 
L 463.614757 322.311753 
L 463.36436 321.867216 
L 463.477326 321.867216 
L 463.646228 321.867216 
L 463.14765 320.978144 
L 463.260386 320.978144 
L 463.540962 320.978144 
L 463.293017 320.533608 
L 463.40499 320.533608 
L 464.235741 320.533608 
L 463.555183 319.2 
L 463.610297 319.2 
L 464.482739 319.2 
L 464.106363 318.310928 
L 464.160411 318.310928 
L 463.918879 317.866392 
L 464.027007 317.866392 
L 464.242458 317.866392 
L 464.001923 317.421856 
L 464.10948 317.421856 
L 464.163158 317.421856 
L 463.923267 316.97732 
L 464.030655 316.97732 
L 464.669448 316.97732 
L 464.431453 316.532784 
L 464.537232 316.532784 
L 464.905427 316.532784 
L 464.668739 316.088247 
L 464.773585 316.088247 
L 464.982514 316.088247 
L 464.276182 314.754639 
L 464.380932 314.754639 
L 464.433212 314.754639 
L 464.19867 314.310103 
L 464.303261 314.310103 
L 465.182188 314.310103 
L 464.769451 313.421031 
L 464.820751 313.421031 
L 464.87199 313.421031 
L 464.640679 312.976495 
L 464.743189 312.976495 
L 464.794352 312.976495 
L 464.563636 312.531959 
L 464.665994 312.531959 
L 466.809375 312.531959 
L 466.809375 312.531959 
" style="fill:none;stroke:#ff7f0e;stroke-linecap:square;stroke-width:2;"/>
   </g>
   <g id="line2d_47">
    <path clip-path="url(#pb2f9c64f42)" d="M 76.5 448.115464 
L 76.5 433.001237 
L 89.675 433.001237 
L 88.3575 431.223093 
L 87.04 429.000412 
L 85.986 426.777732 
L 84.969643 424.110515 
L 84.028571 420.998763 
L 83.579104 419.220619 
L 90.45 419.220619 
L 89.148 416.108866 
L 87.928916 412.552577 
L 86.81087 408.551753 
L 85.8 404.106392 
L 84.969643 399.661031 
L 89.092035 399.661031 
L 88.661538 397.882887 
L 92.577966 397.882887 
L 91.206977 392.99299 
L 89.955319 387.658557 
L 88.74 381.435052 
L 94.626115 381.435052 
L 94.175776 379.656907 
L 96.994444 379.656907 
L 96.744512 378.767835 
L 99.496364 378.767835 
L 98.952071 376.989691 
L 101.61 376.989691 
L 101.032759 375.211546 
L 103.602857 375.211546 
L 101.863636 369.877113 
L 101.728723 369.432577 
L 104.104762 369.432577 
L 103.673438 368.098969 
L 105.990155 368.098969 
L 105.391371 366.320825 
L 109.867839 366.320825 
L 109.535821 365.431753 
L 111.720297 365.431753 
L 111.546798 364.987216 
L 115.832195 364.987216 
L 114.533491 361.875464 
L 116.58169 361.875464 
L 116.394393 361.430928 
L 124.365138 361.430928 
L 123.502703 359.652784 
L 125.418834 359.652784 
L 125.200446 359.208247 
L 128.966814 359.208247 
L 128.506579 358.319175 
L 132.178696 358.319175 
L 131.698707 357.430103 
L 137.048936 357.430103 
L 135.055556 353.873814 
L 136.759426 353.873814 
L 136.02753 352.540206 
L 139.359036 352.540206 
L 138.858167 351.651134 
L 148.475486 351.651134 
L 147.372414 349.87299 
L 151.956818 349.87299 
L 151.672075 349.428454 
L 153.172556 349.428454 
L 152.036667 347.650309 
L 153.508118 347.650309 
L 153.225 347.205773 
L 157.562182 347.205773 
L 157.268478 346.761237 
L 161.5 346.761237 
L 160.895018 345.872165 
L 166.367368 345.872165 
L 164.514433 343.204948 
L 169.752203 343.204948 
L 168.813423 341.87134 
L 171.36 341.87134 
L 171.04485 341.426804 
L 172.302318 341.426804 
L 171.986139 340.982268 
L 173.232237 340.982268 
L 172.915082 340.537732 
L 175.376873 340.537732 
L 175.055844 340.093196 
L 177.48 340.093196 
L 177.155305 339.64866 
L 180.725159 339.64866 
L 180.065506 338.759588 
L 183.552038 338.759588 
L 182.885047 337.870515 
L 185.163158 337.870515 
L 184.16319 336.536907 
L 185.284404 336.536907 
L 184.6231 335.647835 
L 185.732727 335.647835 
L 185.074699 334.758763 
L 186.172973 334.758763 
L 185.518209 333.869691 
L 187.686053 333.869691 
L 187.357101 333.425155 
L 188.429204 333.425155 
L 187.772727 332.536082 
L 194.049856 332.536082 
L 193.712069 332.091546 
L 195.752571 332.091546 
L 194.739093 330.757938 
L 196.74507 330.757938 
L 196.407303 330.313402 
L 198.387151 330.313402 
L 196.378022 327.646186 
L 198.314754 327.646186 
L 197.982834 327.201649 
L 200.843514 327.201649 
L 199.843432 325.868041 
L 205.399472 325.868041 
L 204.722835 324.978969 
L 205.628796 324.978969 
L 204.95625 324.089897 
L 210.276923 324.089897 
L 209.594388 323.200825 
L 211.326396 323.200825 
L 210.985063 322.756289 
L 211.843182 322.756289 
L 211.163065 321.867216 
L 212.014286 321.867216 
L 211.6755 321.42268 
L 212.521197 321.42268 
L 211.846154 320.533608 
L 213.52 320.533608 
L 213.182512 320.089072 
L 215.658924 320.089072 
L 215.319512 319.644536 
L 216.135766 319.644536 
L 215.796845 319.2 
L 219.018029 319.2 
L 218.676259 318.755464 
L 221.831829 318.755464 
L 221.487441 318.310928 
L 222.265957 318.310928 
L 221.58 317.421856 
L 222.352817 317.421856 
L 222.011241 316.97732 
L 223.544056 316.97732 
L 223.202093 316.532784 
L 224.71875 316.532784 
L 224.035714 315.643711 
L 224.786897 315.643711 
L 224.446789 315.199175 
L 225.936986 315.199175 
L 225.257727 314.310103 
L 228.915506 314.310103 
L 228.573767 313.865567 
L 229.294631 313.865567 
L 228.614031 312.976495 
L 230.042794 312.976495 
L 229.703097 312.531959 
L 231.117621 312.531959 
L 230.777802 312.087423 
L 232.178337 312.087423 
L 231.838428 311.642887 
L 235.282937 311.642887 
L 234.940733 311.198351 
L 235.62 311.198351 
L 235.278541 310.753814 
L 235.954176 310.753814 
L 234.936383 309.420206 
L 238.917857 309.420206 
L 238.577358 308.97567 
L 240.52875 308.97567 
L 240.187734 308.531134 
L 243.383333 308.531134 
L 243.040657 308.086598 
L 244.299387 308.086598 
L 243.956939 307.642062 
L 247.66875 307.642062 
L 246.981325 306.75299 
L 247.59018 306.75299 
L 247.248 306.308454 
L 248.457371 306.308454 
L 248.115507 305.863918 
L 249.314257 305.863918 
L 248.632544 304.974845 
L 251.583398 304.974845 
L 251.242105 304.530309 
L 253.559768 304.530309 
L 252.877457 303.641237 
L 257.955682 303.641237 
L 257.612665 303.196701 
L 258.165849 303.196701 
L 257.823729 302.752165 
L 258.374436 302.752165 
L 257.693258 301.863093 
L 259.330726 301.863093 
L 258.990892 301.418557 
L 261.144465 301.418557 
L 260.465625 300.529485 
L 263.109836 300.529485 
L 262.095652 299.195876 
L 263.656216 299.195876 
L 263.319604 298.75134 
L 265.373036 298.75134 
L 265.036364 298.306804 
L 266.556383 298.306804 
L 266.22 297.862268 
L 266.722792 297.862268 
L 265.387895 296.084124 
L 266.385839 296.084124 
L 265.39513 294.750515 
L 266.384402 294.750515 
L 265.728497 293.861443 
L 267.197938 293.861443 
L 266.87084 293.416907 
L 267.357021 293.416907 
L 267.030769 292.972371 
L 268.957895 292.972371 
L 268.631695 292.527835 
L 270.531818 292.527835 
L 269.880705 291.638763 
L 271.7535 291.638763 
L 271.428619 291.194227 
L 272.816225 291.194227 
L 272.491736 290.749691 
L 273.408731 290.749691 
L 273.084868 290.305155 
L 273.99541 290.305155 
L 273.35 289.416082 
L 279.12096 289.416082 
L 278.153025 288.082474 
L 279.018571 288.082474 
L 278.697623 287.637938 
L 279.557346 287.637938 
L 279.237066 287.193402 
L 282.202652 287.193402 
L 281.882243 286.748866 
L 283.547368 286.748866 
L 282.908333 285.859794 
L 287.779091 285.859794 
L 287.459455 285.415258 
L 289.436486 285.415258 
L 289.117241 284.970722 
L 289.899552 284.970722 
L 289.263487 284.081649 
L 290.813333 284.081649 
L 290.496302 283.637113 
L 291.264159 283.637113 
L 290.6325 282.748041 
L 291.014537 282.748041 
L 290.7 282.303505 
L 292.968314 282.303505 
L 292.654136 281.858969 
L 293.773266 281.858969 
L 293.147118 280.969897 
L 295.719971 280.969897 
L 295.407692 280.525361 
L 296.854674 280.525361 
L 296.232203 279.636289 
L 297.306329 279.636289 
L 296.996208 279.191753 
L 298.061119 279.191753 
L 297.751676 278.747216 
L 298.80751 278.747216 
L 298.49875 278.30268 
L 299.89268 278.30268 
L 299.277273 277.413608 
L 300.312346 277.413608 
L 300.005753 276.969072 
L 302.050272 276.969072 
L 301.439024 276.08 
L 305.755526 276.08 
L 305.450665 275.635464 
L 306.425563 275.635464 
L 306.121429 275.190928 
L 309.630508 275.190928 
L 309.024187 274.301856 
L 310.275291 274.301856 
L 309.973256 273.85732 
L 312.131754 273.85732 
L 311.529885 272.968247 
L 312.13949 272.968247 
L 311.839695 272.523711 
L 312.446193 272.523711 
L 312.147148 272.079175 
L 313.350946 272.079175 
L 313.052645 271.634639 
L 313.947553 271.634639 
L 313.65 271.190103 
L 315.12665 271.190103 
L 314.238462 269.856495 
L 315.696917 269.856495 
L 315.40234 269.411959 
L 315.980713 269.411959 
L 315.39375 268.522887 
L 315.969315 268.522887 
L 315.676923 268.078351 
L 316.249695 268.078351 
L 315.37682 266.744742 
L 317.359928 266.744742 
L 316.493525 265.411134 
L 317.333333 265.411134 
L 317.045943 264.966598 
L 317.879786 264.966598 
L 317.593112 264.522062 
L 318.695745 264.522062 
L 318.409799 264.077526 
L 318.683844 264.077526 
L 318.398587 263.63299 
L 320.836364 263.63299 
L 320.26814 262.743918 
L 320.803016 262.743918 
L 320.51993 262.299381 
L 321.846429 262.299381 
L 321.564097 261.854845 
L 322.875515 261.854845 
L 322.593943 261.410309 
L 324.917308 261.410309 
L 324.63661 260.965773 
L 325.654218 260.965773 
L 325.37427 260.521237 
L 325.627273 260.521237 
L 325.347982 260.076701 
L 329.076516 260.076701 
L 328.520792 259.187629 
L 329.008782 259.187629 
L 328.731908 258.743093 
L 329.701638 258.743093 
L 329.15 257.854021 
L 329.871987 257.854021 
L 329.59718 257.409485 
L 329.836836 257.409485 
L 329.562662 256.964948 
L 330.278641 256.964948 
L 330.005172 256.520412 
L 333.055473 256.520412 
L 332.783121 256.075876 
L 333.245021 256.075876 
L 332.973333 255.63134 
L 333.433369 255.63134 
L 333.162342 255.186804 
L 333.620526 255.186804 
L 333.350158 254.742268 
L 333.578571 254.742268 
L 333.039623 253.853196 
L 333.722257 253.853196 
L 333.453758 253.40866 
L 334.582243 253.40866 
L 334.314523 252.964124 
L 336.316958 252.964124 
L 335.51834 251.630515 
L 337.485381 251.630515 
L 336.956535 250.741443 
L 337.172976 250.741443 
L 336.383855 249.407835 
L 337.245829 249.407835 
L 336.984036 248.963299 
L 338.687749 248.963299 
L 338.426866 248.518763 
L 339.058929 248.518763 
L 338.798712 248.074227 
L 339.218101 248.074227 
L 338.958498 247.629691 
L 339.79252 247.629691 
L 339.533628 247.185155 
L 341.997376 247.185155 
L 341.739612 246.740619 
L 343.15082 246.740619 
L 342.893931 246.296082 
L 343.094033 246.296082 
L 342.837692 245.851546 
L 343.435858 245.851546 
L 343.180172 245.40701 
L 344.562988 245.40701 
L 344.308175 244.962474 
L 344.7 244.962474 
L 344.445782 244.517938 
L 344.641193 244.517938 
L 344.13431 243.628866 
L 347.780223 243.628866 
L 347.528571 243.18433 
L 347.71696 243.18433 
L 347.465833 242.739794 
L 349.146281 242.739794 
L 348.896147 242.295258 
L 349.634369 242.295258 
L 349.135949 241.406186 
L 350.778462 241.406186 
L 350.53047 240.961649 
L 350.891968 240.961649 
L 350.644545 240.517113 
L 351.9 240.517113 
L 351.653447 240.072577 
L 352.186875 240.072577 
L 351.695455 239.183505 
L 352.929938 239.183505 
L 352.441114 238.294433 
L 353.140176 238.294433 
L 352.896655 237.849897 
L 353.41791 237.849897 
L 353.175 237.405361 
L 354.037991 237.405361 
L 353.795812 236.960825 
L 358.494378 236.960825 
L 358.014796 236.071753 
L 359.155537 236.071753 
L 358.916807 235.627216 
L 359.723717 235.627216 
L 359.485714 235.18268 
L 361.86722 235.18268 
L 361.630597 234.738144 
L 362.877183 234.738144 
L 362.641481 234.293608 
L 362.796217 234.293608 
L 362.56097 233.849072 
L 363.331178 233.849072 
L 363.096648 233.404536 
L 365.968116 233.404536 
L 365.735237 232.96 
L 366.180819 232.96 
L 365.948516 232.515464 
L 367.273089 232.515464 
L 367.041766 232.070928 
L 367.914727 232.070928 
L 367.684177 231.626392 
L 369.264 231.626392 
L 369.034561 231.181856 
L 369.602578 231.181856 
L 369.37377 230.73732 
L 369.656586 230.73732 
L 369.428271 230.292784 
L 371.660538 230.292784 
L 371.433666 229.848247 
L 373.34327 229.848247 
L 373.117705 229.403711 
L 373.387329 229.403711 
L 373.162244 228.959175 
L 378.136625 228.959175 
L 377.914507 228.514639 
L 379.803277 228.514639 
L 379.582533 228.070103 
L 380.079536 228.070103 
L 379.859391 227.625567 
L 379.983261 227.625567 
L 383.142034 227.625567 
L 382.924094 227.181031 
L 383.043324 227.181031 
L 386.657262 227.181031 
L 386.226787 226.291959 
L 386.340915 226.291959 
L 387.022376 226.291959 
L 386.808075 225.847423 
L 386.921172 225.847423 
L 389.370448 225.847423 
L 388.843902 224.513814 
L 389.063058 224.513814 
L 388.851724 224.069278 
L 388.961149 224.069278 
L 389.179555 224.069278 
L 388.758154 223.180206 
L 388.867273 223.180206 
L 390.057955 223.180206 
L 389.848497 222.73567 
L 389.955941 222.73567 
L 390.063242 222.73567 
L 389.8542 222.291134 
L 389.961426 222.291134 
L 391.552836 222.291134 
L 391.345155 221.846598 
L 391.450198 221.846598 
L 391.555102 221.846598 
L 391.347829 221.402062 
L 391.452663 221.402062 
L 391.557359 221.402062 
L 391.350492 220.957526 
L 391.455118 220.957526 
L 393.008187 220.957526 
L 392.802662 220.51299 
L 392.905191 220.51299 
L 393.007588 220.51299 
L 392.802463 220.068454 
L 392.904793 220.068454 
L 393.617408 220.068454 
L 393.41308 219.623918 
L 393.514424 219.623918 
L 398.988626 219.623918 
L 398.788323 219.179381 
L 398.882682 219.179381 
L 400.469042 219.179381 
L 400.270166 218.734845 
L 400.362515 218.734845 
L 401.643613 218.734845 
L 401.445957 218.290309 
L 401.536695 218.290309 
L 404.295886 218.290309 
L 404.100536 217.845773 
L 404.187909 217.845773 
L 408.345313 217.845773 
L 408.345313 217.845773 
" style="fill:none;stroke:#2ca02c;stroke-linecap:square;stroke-width:2;"/>
   </g>
   <g id="patch_3">
    <path d="M 76.5 448.56 
L 76.5 60.48 
" style="fill:none;stroke:#000000;stroke-linecap:square;stroke-linejoin:miter;stroke-width:0.8;"/>
   </g>
   <g id="patch_4">
    <path d="M 550.8 448.56 
L 550.8 60.48 
" style="fill:none;stroke:#000000;stroke-linecap:square;stroke-linejoin:miter;stroke-width:0.8;"/>
   </g>
   <g id="patch_5">
    <path d="M 76.5 448.56 
L 550.8 448.56 
" style="fill:none;stroke:#000000;stroke-linecap:square;stroke-linejoin:miter;stroke-width:0.8;"/>
   </g>
   <g id="patch_6">
    <path d="M 76.5 60.48 
L 550.8 60.48 
" style="fill:none;stroke:#000000;stroke-linecap:square;stroke-linejoin:miter;stroke-width:0.8;"/>
   </g>
   <g id="text_25">
    <!-- bikes: img1-img2 -->
    <defs>
     <path d="M 48.6875 27.296875 
Q 48.6875 37.203125 44.609375 42.84375 
Q 40.53125 48.484375 33.40625 48.484375 
Q 26.265625 48.484375 22.1875 42.84375 
Q 18.109375 37.203125 18.109375 27.296875 
Q 18.109375 17.390625 22.1875 11.75 
Q 26.265625 6.109375 33.40625 6.109375 
Q 40.53125 6.109375 44.609375 11.75 
Q 48.6875 17.390625 48.6875 27.296875 
z
M 18.109375 46.390625 
Q 20.953125 51.265625 25.265625 53.625 
Q 29.59375 56 35.59375 56 
Q 45.5625 56 51.78125 48.09375 
Q 58.015625 40.1875 58.015625 27.296875 
Q 58.015625 14.40625 51.78125 6.484375 
Q 45.5625 -1.421875 35.59375 -1.421875 
Q 29.59375 -1.421875 25.265625 0.953125 
Q 20.953125 3.328125 18.109375 8.203125 
L 18.109375 0 
L 9.078125 0 
L 9.078125 75.984375 
L 18.109375 75.984375 
z
" id="DejaVuSans-98"/>
     <path d="M 9.078125 75.984375 
L 18.109375 75.984375 
L 18.109375 31.109375 
L 44.921875 54.6875 
L 56.390625 54.6875 
L 27.390625 29.109375 
L 57.625 0 
L 45.90625 0 
L 18.109375 26.703125 
L 18.109375 0 
L 9.078125 0 
z
" id="DejaVuSans-107"/>
     <path d="M 11.71875 12.40625 
L 22.015625 12.40625 
L 22.015625 0 
L 11.71875 0 
z
M 11.71875 51.703125 
L 22.015625 51.703125 
L 22.015625 39.3125 
L 11.71875 39.3125 
z
" id="DejaVuSans-58"/>
     <path id="DejaVuSans-32"/>
     <path d="M 52 44.1875 
Q 55.375 50.25 60.0625 53.125 
Q 64.75 56 71.09375 56 
Q 79.640625 56 84.28125 50.015625 
Q 88.921875 44.046875 88.921875 33.015625 
L 88.921875 0 
L 79.890625 0 
L 79.890625 32.71875 
Q 79.890625 40.578125 77.09375 44.375 
Q 74.3125 48.1875 68.609375 48.1875 
Q 61.625 48.1875 57.5625 43.546875 
Q 53.515625 38.921875 53.515625 30.90625 
L 53.515625 0 
L 44.484375 0 
L 44.484375 32.71875 
Q 44.484375 40.625 41.703125 44.40625 
Q 38.921875 48.1875 33.109375 48.1875 
Q 26.21875 48.1875 22.15625 43.53125 
Q 18.109375 38.875 18.109375 30.90625 
L 18.109375 0 
L 9.078125 0 
L 9.078125 54.6875 
L 18.109375 54.6875 
L 18.109375 46.1875 
Q 21.1875 51.21875 25.484375 53.609375 
Q 29.78125 56 35.6875 56 
Q 41.65625 56 45.828125 52.96875 
Q 50 49.953125 52 44.1875 
z
" id="DejaVuSans-109"/>
     <path d="M 45.40625 27.984375 
Q 45.40625 37.75 41.375 43.109375 
Q 37.359375 48.484375 30.078125 48.484375 
Q 22.859375 48.484375 18.828125 43.109375 
Q 14.796875 37.75 14.796875 27.984375 
Q 14.796875 18.265625 18.828125 12.890625 
Q 22.859375 7.515625 30.078125 7.515625 
Q 37.359375 7.515625 41.375 12.890625 
Q 45.40625 18.265625 45.40625 27.984375 
z
M 54.390625 6.78125 
Q 54.390625 -7.171875 48.1875 -13.984375 
Q 42 -20.796875 29.203125 -20.796875 
Q 24.46875 -20.796875 20.265625 -20.09375 
Q 16.0625 -19.390625 12.109375 -17.921875 
L 12.109375 -9.1875 
Q 16.0625 -11.328125 19.921875 -12.34375 
Q 23.78125 -13.375 27.78125 -13.375 
Q 36.625 -13.375 41.015625 -8.765625 
Q 45.40625 -4.15625 45.40625 5.171875 
L 45.40625 9.625 
Q 42.625 4.78125 38.28125 2.390625 
Q 33.9375 0 27.875 0 
Q 17.828125 0 11.671875 7.65625 
Q 5.515625 15.328125 5.515625 27.984375 
Q 5.515625 40.671875 11.671875 48.328125 
Q 17.828125 56 27.875 56 
Q 33.9375 56 38.28125 53.609375 
Q 42.625 51.21875 45.40625 46.390625 
L 45.40625 54.6875 
L 54.390625 54.6875 
z
" id="DejaVuSans-103"/>
    </defs>
    <g transform="translate(261.73125 41.042625)scale(0.12 -0.12)">
     <use xlink:href="#DejaVuSans-98"/>
     <use x="63.476562" xlink:href="#DejaVuSans-105"/>
     <use x="91.259766" xlink:href="#DejaVuSans-107"/>
     <use x="145.544922" xlink:href="#DejaVuSans-101"/>
     <use x="207.068359" xlink:href="#DejaVuSans-115"/>
     <use x="259.167969" xlink:href="#DejaVuSans-58"/>
     <use x="292.859375" xlink:href="#DejaVuSans-32"/>
     <use x="324.646484" xlink:href="#DejaVuSans-105"/>
     <use x="352.429688" xlink:href="#DejaVuSans-109"/>
     <use x="449.841797" xlink:href="#DejaVuSans-103"/>
     <use x="513.318359" xlink:href="#DejaVuSans-49"/>
     <use x="576.941406" xlink:href="#DejaVuSans-45"/>
     <use x="613.025391" xlink:href="#DejaVuSans-105"/>
     <use x="640.808594" xlink:href="#DejaVuSans-109"/>
     <use x="738.220703" xlink:href="#DejaVuSans-103"/>
     <use x="801.697266" xlink:href="#DejaVuSans-50"/>
    </g>
    <!-- NearestNeighbours -->
    <defs>
     <path d="M 9.8125 72.90625 
L 23.09375 72.90625 
L 55.421875 11.921875 
L 55.421875 72.90625 
L 64.984375 72.90625 
L 64.984375 0 
L 51.703125 0 
L 19.390625 60.984375 
L 19.390625 0 
L 9.8125 0 
z
" id="DejaVuSans-78"/>
     <path d="M 34.28125 27.484375 
Q 23.390625 27.484375 19.1875 25 
Q 14.984375 22.515625 14.984375 16.5 
Q 14.984375 11.71875 18.140625 8.90625 
Q 21.296875 6.109375 26.703125 6.109375 
Q 34.1875 6.109375 38.703125 11.40625 
Q 43.21875 16.703125 43.21875 25.484375 
L 43.21875 27.484375 
z
M 52.203125 31.203125 
L 52.203125 0 
L 43.21875 0 
L 43.21875 8.296875 
Q 40.140625 3.328125 35.546875 0.953125 
Q 30.953125 -1.421875 24.3125 -1.421875 
Q 15.921875 -1.421875 10.953125 3.296875 
Q 6 8.015625 6 15.921875 
Q 6 25.140625 12.171875 29.828125 
Q 18.359375 34.515625 30.609375 34.515625 
L 43.21875 34.515625 
L 43.21875 35.40625 
Q 43.21875 41.609375 39.140625 45 
Q 35.0625 48.390625 27.6875 48.390625 
Q 23 48.390625 18.546875 47.265625 
Q 14.109375 46.140625 10.015625 43.890625 
L 10.015625 52.203125 
Q 14.9375 54.109375 19.578125 55.046875 
Q 24.21875 56 28.609375 56 
Q 40.484375 56 46.34375 49.84375 
Q 52.203125 43.703125 52.203125 31.203125 
z
" id="DejaVuSans-97"/>
     <path d="M 54.890625 33.015625 
L 54.890625 0 
L 45.90625 0 
L 45.90625 32.71875 
Q 45.90625 40.484375 42.875 44.328125 
Q 39.84375 48.1875 33.796875 48.1875 
Q 26.515625 48.1875 22.3125 43.546875 
Q 18.109375 38.921875 18.109375 30.90625 
L 18.109375 0 
L 9.078125 0 
L 9.078125 75.984375 
L 18.109375 75.984375 
L 18.109375 46.1875 
Q 21.34375 51.125 25.703125 53.5625 
Q 30.078125 56 35.796875 56 
Q 45.21875 56 50.046875 50.171875 
Q 54.890625 44.34375 54.890625 33.015625 
z
" id="DejaVuSans-104"/>
     <path d="M 8.5 21.578125 
L 8.5 54.6875 
L 17.484375 54.6875 
L 17.484375 21.921875 
Q 17.484375 14.15625 20.5 10.265625 
Q 23.53125 6.390625 29.59375 6.390625 
Q 36.859375 6.390625 41.078125 11.03125 
Q 45.3125 15.671875 45.3125 23.6875 
L 45.3125 54.6875 
L 54.296875 54.6875 
L 54.296875 0 
L 45.3125 0 
L 45.3125 8.40625 
Q 42.046875 3.421875 37.71875 1 
Q 33.40625 -1.421875 27.6875 -1.421875 
Q 18.265625 -1.421875 13.375 4.4375 
Q 8.5 10.296875 8.5 21.578125 
z
M 31.109375 56 
z
" id="DejaVuSans-117"/>
    </defs>
    <g transform="translate(255.957188 54.48)scale(0.12 -0.12)">
     <use xlink:href="#DejaVuSans-78"/>
     <use x="74.804688" xlink:href="#DejaVuSans-101"/>
     <use x="136.328125" xlink:href="#DejaVuSans-97"/>
     <use x="197.607422" xlink:href="#DejaVuSans-114"/>
     <use x="236.470703" xlink:href="#DejaVuSans-101"/>
     <use x="297.994141" xlink:href="#DejaVuSans-115"/>
     <use x="350.09375" xlink:href="#DejaVuSans-116"/>
     <use x="389.302734" xlink:href="#DejaVuSans-78"/>
     <use x="464.107422" xlink:href="#DejaVuSans-101"/>
     <use x="525.630859" xlink:href="#DejaVuSans-105"/>
     <use x="553.414062" xlink:href="#DejaVuSans-103"/>
     <use x="616.890625" xlink:href="#DejaVuSans-104"/>
     <use x="680.269531" xlink:href="#DejaVuSans-98"/>
     <use x="743.746094" xlink:href="#DejaVuSans-111"/>
     <use x="804.927734" xlink:href="#DejaVuSans-117"/>
     <use x="868.306641" xlink:href="#DejaVuSans-114"/>
     <use x="909.419922" xlink:href="#DejaVuSans-115"/>
    </g>
   </g>
   <g id="legend_1">
    <g id="patch_7">
     <path d="M 362.659375 112.514375 
L 543.8 112.514375 
Q 545.8 112.514375 545.8 110.514375 
L 545.8 67.48 
Q 545.8 65.48 543.8 65.48 
L 362.659375 65.48 
Q 360.659375 65.48 360.659375 67.48 
L 360.659375 110.514375 
Q 360.659375 112.514375 362.659375 112.514375 
z
" style="fill:#ffffff;opacity:0.8;stroke:#cccccc;stroke-linejoin:miter;"/>
    </g>
    <g id="line2d_48">
     <path d="M 364.659375 73.578438 
L 384.659375 73.578438 
" style="fill:none;stroke:#1f77b4;stroke-linecap:square;stroke-width:2;"/>
    </g>
    <g id="line2d_49"/>
    <g id="text_26">
     <!-- root-cvsift AP: 89.4, %In: 47.3 -->
     <defs>
      <path d="M 2.984375 54.6875 
L 12.5 54.6875 
L 29.59375 8.796875 
L 46.6875 54.6875 
L 56.203125 54.6875 
L 35.6875 0 
L 23.484375 0 
z
" id="DejaVuSans-118"/>
      <path d="M 37.109375 75.984375 
L 37.109375 68.5 
L 28.515625 68.5 
Q 23.6875 68.5 21.796875 66.546875 
Q 19.921875 64.59375 19.921875 59.515625 
L 19.921875 54.6875 
L 34.71875 54.6875 
L 34.71875 47.703125 
L 19.921875 47.703125 
L 19.921875 0 
L 10.890625 0 
L 10.890625 47.703125 
L 2.296875 47.703125 
L 2.296875 54.6875 
L 10.890625 54.6875 
L 10.890625 58.5 
Q 10.890625 67.625 15.140625 71.796875 
Q 19.390625 75.984375 28.609375 75.984375 
z
" id="DejaVuSans-102"/>
      <path d="M 34.1875 63.1875 
L 20.796875 26.90625 
L 47.609375 26.90625 
z
M 28.609375 72.90625 
L 39.796875 72.90625 
L 67.578125 0 
L 57.328125 0 
L 50.6875 18.703125 
L 17.828125 18.703125 
L 11.1875 0 
L 0.78125 0 
z
" id="DejaVuSans-65"/>
      <path d="M 19.671875 64.796875 
L 19.671875 37.40625 
L 32.078125 37.40625 
Q 38.96875 37.40625 42.71875 40.96875 
Q 46.484375 44.53125 46.484375 51.125 
Q 46.484375 57.671875 42.71875 61.234375 
Q 38.96875 64.796875 32.078125 64.796875 
z
M 9.8125 72.90625 
L 32.078125 72.90625 
Q 44.34375 72.90625 50.609375 67.359375 
Q 56.890625 61.8125 56.890625 51.125 
Q 56.890625 40.328125 50.609375 34.8125 
Q 44.34375 29.296875 32.078125 29.296875 
L 19.671875 29.296875 
L 19.671875 0 
L 9.8125 0 
z
" id="DejaVuSans-80"/>
      <path d="M 11.71875 12.40625 
L 22.015625 12.40625 
L 22.015625 4 
L 14.015625 -11.625 
L 7.71875 -11.625 
L 11.71875 4 
z
" id="DejaVuSans-44"/>
      <path d="M 72.703125 32.078125 
Q 68.453125 32.078125 66.03125 28.46875 
Q 63.625 24.859375 63.625 18.40625 
Q 63.625 12.0625 66.03125 8.421875 
Q 68.453125 4.78125 72.703125 4.78125 
Q 76.859375 4.78125 79.265625 8.421875 
Q 81.6875 12.0625 81.6875 18.40625 
Q 81.6875 24.8125 79.265625 28.4375 
Q 76.859375 32.078125 72.703125 32.078125 
z
M 72.703125 38.28125 
Q 80.421875 38.28125 84.953125 32.90625 
Q 89.5 27.546875 89.5 18.40625 
Q 89.5 9.28125 84.9375 3.921875 
Q 80.375 -1.421875 72.703125 -1.421875 
Q 64.890625 -1.421875 60.34375 3.921875 
Q 55.8125 9.28125 55.8125 18.40625 
Q 55.8125 27.59375 60.375 32.9375 
Q 64.9375 38.28125 72.703125 38.28125 
z
M 22.3125 68.015625 
Q 18.109375 68.015625 15.6875 64.375 
Q 13.28125 60.75 13.28125 54.390625 
Q 13.28125 47.953125 15.671875 44.328125 
Q 18.0625 40.71875 22.3125 40.71875 
Q 26.5625 40.71875 28.96875 44.328125 
Q 31.390625 47.953125 31.390625 54.390625 
Q 31.390625 60.6875 28.953125 64.34375 
Q 26.515625 68.015625 22.3125 68.015625 
z
M 66.40625 74.21875 
L 74.21875 74.21875 
L 28.609375 -1.421875 
L 20.796875 -1.421875 
z
M 22.3125 74.21875 
Q 30.03125 74.21875 34.609375 68.875 
Q 39.203125 63.53125 39.203125 54.390625 
Q 39.203125 45.171875 34.640625 39.84375 
Q 30.078125 34.515625 22.3125 34.515625 
Q 14.546875 34.515625 10.03125 39.859375 
Q 5.515625 45.21875 5.515625 54.390625 
Q 5.515625 63.484375 10.046875 68.84375 
Q 14.59375 74.21875 22.3125 74.21875 
z
" id="DejaVuSans-37"/>
      <path d="M 9.8125 72.90625 
L 19.671875 72.90625 
L 19.671875 0 
L 9.8125 0 
z
" id="DejaVuSans-73"/>
     </defs>
     <g transform="translate(392.659375 77.078438)scale(0.1 -0.1)">
      <use xlink:href="#DejaVuSans-114"/>
      <use x="38.863281" xlink:href="#DejaVuSans-111"/>
      <use x="100.044922" xlink:href="#DejaVuSans-111"/>
      <use x="161.226562" xlink:href="#DejaVuSans-116"/>
      <use x="200.435547" xlink:href="#DejaVuSans-45"/>
      <use x="236.519531" xlink:href="#DejaVuSans-99"/>
      <use x="291.5" xlink:href="#DejaVuSans-118"/>
      <use x="350.679688" xlink:href="#DejaVuSans-115"/>
      <use x="402.779297" xlink:href="#DejaVuSans-105"/>
      <use x="430.5625" xlink:href="#DejaVuSans-102"/>
      <use x="464.017578" xlink:href="#DejaVuSans-116"/>
      <use x="503.226562" xlink:href="#DejaVuSans-32"/>
      <use x="535.013672" xlink:href="#DejaVuSans-65"/>
      <use x="603.421875" xlink:href="#DejaVuSans-80"/>
      <use x="663.724609" xlink:href="#DejaVuSans-58"/>
      <use x="697.416016" xlink:href="#DejaVuSans-32"/>
      <use x="729.203125" xlink:href="#DejaVuSans-56"/>
      <use x="792.826172" xlink:href="#DejaVuSans-57"/>
      <use x="856.449219" xlink:href="#DejaVuSans-46"/>
      <use x="888.236328" xlink:href="#DejaVuSans-52"/>
      <use x="951.859375" xlink:href="#DejaVuSans-44"/>
      <use x="983.646484" xlink:href="#DejaVuSans-32"/>
      <use x="1015.433594" xlink:href="#DejaVuSans-37"/>
      <use x="1110.453125" xlink:href="#DejaVuSans-73"/>
      <use x="1139.945312" xlink:href="#DejaVuSans-110"/>
      <use x="1203.324219" xlink:href="#DejaVuSans-58"/>
      <use x="1237.015625" xlink:href="#DejaVuSans-32"/>
      <use x="1268.802734" xlink:href="#DejaVuSans-52"/>
      <use x="1332.425781" xlink:href="#DejaVuSans-55"/>
      <use x="1396.048828" xlink:href="#DejaVuSans-46"/>
      <use x="1427.835938" xlink:href="#DejaVuSans-51"/>
     </g>
    </g>
    <g id="line2d_50">
     <path d="M 364.659375 88.256563 
L 384.659375 88.256563 
" style="fill:none;stroke:#ff7f0e;stroke-linecap:square;stroke-width:2;"/>
    </g>
    <g id="line2d_51"/>
    <g id="text_27">
     <!-- tfeat AP: 14.4, %In: 17.7 -->
     <g transform="translate(392.659375 91.756563)scale(0.1 -0.1)">
      <use xlink:href="#DejaVuSans-116"/>
      <use x="39.208984" xlink:href="#DejaVuSans-102"/>
      <use x="74.414062" xlink:href="#DejaVuSans-101"/>
      <use x="135.9375" xlink:href="#DejaVuSans-97"/>
      <use x="197.216797" xlink:href="#DejaVuSans-116"/>
      <use x="236.425781" xlink:href="#DejaVuSans-32"/>
      <use x="268.212891" xlink:href="#DejaVuSans-65"/>
      <use x="336.621094" xlink:href="#DejaVuSans-80"/>
      <use x="396.923828" xlink:href="#DejaVuSans-58"/>
      <use x="430.615234" xlink:href="#DejaVuSans-32"/>
      <use x="462.402344" xlink:href="#DejaVuSans-49"/>
      <use x="526.025391" xlink:href="#DejaVuSans-52"/>
      <use x="589.648438" xlink:href="#DejaVuSans-46"/>
      <use x="621.435547" xlink:href="#DejaVuSans-52"/>
      <use x="685.058594" xlink:href="#DejaVuSans-44"/>
      <use x="716.845703" xlink:href="#DejaVuSans-32"/>
      <use x="748.632812" xlink:href="#DejaVuSans-37"/>
      <use x="843.652344" xlink:href="#DejaVuSans-73"/>
      <use x="873.144531" xlink:href="#DejaVuSans-110"/>
      <use x="936.523438" xlink:href="#DejaVuSans-58"/>
      <use x="970.214844" xlink:href="#DejaVuSans-32"/>
      <use x="1002.001953" xlink:href="#DejaVuSans-49"/>
      <use x="1065.625" xlink:href="#DejaVuSans-55"/>
      <use x="1129.248047" xlink:href="#DejaVuSans-46"/>
      <use x="1161.035156" xlink:href="#DejaVuSans-55"/>
     </g>
    </g>
    <g id="line2d_52">
     <path d="M 364.659375 102.934687 
L 384.659375 102.934687 
" style="fill:none;stroke:#2ca02c;stroke-linecap:square;stroke-width:2;"/>
    </g>
    <g id="line2d_53"/>
    <g id="text_28">
     <!-- hardnet AP: 43.6, %In: 30.0 -->
     <defs>
      <path d="M 45.40625 46.390625 
L 45.40625 75.984375 
L 54.390625 75.984375 
L 54.390625 0 
L 45.40625 0 
L 45.40625 8.203125 
Q 42.578125 3.328125 38.25 0.953125 
Q 33.9375 -1.421875 27.875 -1.421875 
Q 17.96875 -1.421875 11.734375 6.484375 
Q 5.515625 14.40625 5.515625 27.296875 
Q 5.515625 40.1875 11.734375 48.09375 
Q 17.96875 56 27.875 56 
Q 33.9375 56 38.25 53.625 
Q 42.578125 51.265625 45.40625 46.390625 
z
M 14.796875 27.296875 
Q 14.796875 17.390625 18.875 11.75 
Q 22.953125 6.109375 30.078125 6.109375 
Q 37.203125 6.109375 41.296875 11.75 
Q 45.40625 17.390625 45.40625 27.296875 
Q 45.40625 37.203125 41.296875 42.84375 
Q 37.203125 48.484375 30.078125 48.484375 
Q 22.953125 48.484375 18.875 42.84375 
Q 14.796875 37.203125 14.796875 27.296875 
z
" id="DejaVuSans-100"/>
     </defs>
     <g transform="translate(392.659375 106.434687)scale(0.1 -0.1)">
      <use xlink:href="#DejaVuSans-104"/>
      <use x="63.378906" xlink:href="#DejaVuSans-97"/>
      <use x="124.658203" xlink:href="#DejaVuSans-114"/>
      <use x="164.021484" xlink:href="#DejaVuSans-100"/>
      <use x="227.498047" xlink:href="#DejaVuSans-110"/>
      <use x="290.876953" xlink:href="#DejaVuSans-101"/>
      <use x="352.400391" xlink:href="#DejaVuSans-116"/>
      <use x="391.609375" xlink:href="#DejaVuSans-32"/>
      <use x="423.396484" xlink:href="#DejaVuSans-65"/>
      <use x="491.804688" xlink:href="#DejaVuSans-80"/>
      <use x="552.107422" xlink:href="#DejaVuSans-58"/>
      <use x="585.798828" xlink:href="#DejaVuSans-32"/>
      <use x="617.585938" xlink:href="#DejaVuSans-52"/>
      <use x="681.208984" xlink:href="#DejaVuSans-51"/>
      <use x="744.832031" xlink:href="#DejaVuSans-46"/>
      <use x="776.619141" xlink:href="#DejaVuSans-54"/>
      <use x="840.242188" xlink:href="#DejaVuSans-44"/>
      <use x="872.029297" xlink:href="#DejaVuSans-32"/>
      <use x="903.816406" xlink:href="#DejaVuSans-37"/>
      <use x="998.835938" xlink:href="#DejaVuSans-73"/>
      <use x="1028.328125" xlink:href="#DejaVuSans-110"/>
      <use x="1091.707031" xlink:href="#DejaVuSans-58"/>
      <use x="1125.398438" xlink:href="#DejaVuSans-32"/>
      <use x="1157.185547" xlink:href="#DejaVuSans-51"/>
      <use x="1220.808594" xlink:href="#DejaVuSans-48"/>
      <use x="1284.431641" xlink:href="#DejaVuSans-46"/>
      <use x="1316.21875" xlink:href="#DejaVuSans-48"/>
     </g>
    </g>
   </g>
  </g>
 </g>
 <defs>
  <clipPath id="pb2f9c64f42">
   <rect height="388.08" width="474.3" x="76.5" y="60.48"/>
  </clipPath>
 </defs>
</svg>
