<?xml version="1.0" encoding="utf-8" standalone="no"?>
<!DOCTYPE svg PUBLIC "-//W3C//DTD SVG 1.1//EN"
  "http://www.w3.org/Graphics/SVG/1.1/DTD/svg11.dtd">
<!-- Created with matplotlib (https://matplotlib.org/) -->
<svg height="504pt" version="1.1" viewBox="0 0 612 504" width="612pt" xmlns="http://www.w3.org/2000/svg" xmlns:xlink="http://www.w3.org/1999/xlink">
 <defs>
  <style type="text/css">
*{stroke-linecap:butt;stroke-linejoin:round;}
  </style>
 </defs>
 <g id="figure_1">
  <g id="patch_1">
   <path d="M 0 504 
L 612 504 
L 612 0 
L 0 0 
z
" style="fill:#ffffff;"/>
  </g>
  <g id="axes_1">
   <g id="patch_2">
    <path d="M 76.5 448.56 
L 550.8 448.56 
L 550.8 60.48 
L 76.5 60.48 
z
" style="fill:#ffffff;"/>
   </g>
   <g id="matplotlib.axis_1">
    <g id="xtick_1">
     <g id="line2d_1">
      <path clip-path="url(#p005ccf1742)" d="M 76.5 448.56 
L 76.5 60.48 
" style="fill:none;stroke:#b0b0b0;stroke-linecap:square;stroke-width:0.8;"/>
     </g>
     <g id="line2d_2">
      <defs>
       <path d="M 0 0 
L 0 3.5 
" id="m59c3d27ca6" style="stroke:#000000;stroke-width:0.8;"/>
      </defs>
      <g>
       <use style="stroke:#000000;stroke-width:0.8;" x="76.5" xlink:href="#m59c3d27ca6" y="448.56"/>
      </g>
     </g>
     <g id="text_1">
      <!-- 0.0 -->
      <defs>
       <path d="M 31.78125 66.40625 
Q 24.171875 66.40625 20.328125 58.90625 
Q 16.5 51.421875 16.5 36.375 
Q 16.5 21.390625 20.328125 13.890625 
Q 24.171875 6.390625 31.78125 6.390625 
Q 39.453125 6.390625 43.28125 13.890625 
Q 47.125 21.390625 47.125 36.375 
Q 47.125 51.421875 43.28125 58.90625 
Q 39.453125 66.40625 31.78125 66.40625 
z
M 31.78125 74.21875 
Q 44.046875 74.21875 50.515625 64.515625 
Q 56.984375 54.828125 56.984375 36.375 
Q 56.984375 17.96875 50.515625 8.265625 
Q 44.046875 -1.421875 31.78125 -1.421875 
Q 19.53125 -1.421875 13.0625 8.265625 
Q 6.59375 17.96875 6.59375 36.375 
Q 6.59375 54.828125 13.0625 64.515625 
Q 19.53125 74.21875 31.78125 74.21875 
z
" id="DejaVuSans-48"/>
       <path d="M 10.6875 12.40625 
L 21 12.40625 
L 21 0 
L 10.6875 0 
z
" id="DejaVuSans-46"/>
      </defs>
      <g transform="translate(68.548438 463.158437)scale(0.1 -0.1)">
       <use xlink:href="#DejaVuSans-48"/>
       <use x="63.623047" xlink:href="#DejaVuSans-46"/>
       <use x="95.410156" xlink:href="#DejaVuSans-48"/>
      </g>
     </g>
    </g>
    <g id="xtick_2">
     <g id="line2d_3">
      <path clip-path="url(#p005ccf1742)" d="M 123.93 448.56 
L 123.93 60.48 
" style="fill:none;stroke:#b0b0b0;stroke-linecap:square;stroke-width:0.8;"/>
     </g>
     <g id="line2d_4">
      <g>
       <use style="stroke:#000000;stroke-width:0.8;" x="123.93" xlink:href="#m59c3d27ca6" y="448.56"/>
      </g>
     </g>
     <g id="text_2">
      <!-- 0.1 -->
      <defs>
       <path d="M 12.40625 8.296875 
L 28.515625 8.296875 
L 28.515625 63.921875 
L 10.984375 60.40625 
L 10.984375 69.390625 
L 28.421875 72.90625 
L 38.28125 72.90625 
L 38.28125 8.296875 
L 54.390625 8.296875 
L 54.390625 0 
L 12.40625 0 
z
" id="DejaVuSans-49"/>
      </defs>
      <g transform="translate(115.978438 463.158437)scale(0.1 -0.1)">
       <use xlink:href="#DejaVuSans-48"/>
       <use x="63.623047" xlink:href="#DejaVuSans-46"/>
       <use x="95.410156" xlink:href="#DejaVuSans-49"/>
      </g>
     </g>
    </g>
    <g id="xtick_3">
     <g id="line2d_5">
      <path clip-path="url(#p005ccf1742)" d="M 171.36 448.56 
L 171.36 60.48 
" style="fill:none;stroke:#b0b0b0;stroke-linecap:square;stroke-width:0.8;"/>
     </g>
     <g id="line2d_6">
      <g>
       <use style="stroke:#000000;stroke-width:0.8;" x="171.36" xlink:href="#m59c3d27ca6" y="448.56"/>
      </g>
     </g>
     <g id="text_3">
      <!-- 0.2 -->
      <defs>
       <path d="M 19.1875 8.296875 
L 53.609375 8.296875 
L 53.609375 0 
L 7.328125 0 
L 7.328125 8.296875 
Q 12.9375 14.109375 22.625 23.890625 
Q 32.328125 33.6875 34.8125 36.53125 
Q 39.546875 41.84375 41.421875 45.53125 
Q 43.3125 49.21875 43.3125 52.78125 
Q 43.3125 58.59375 39.234375 62.25 
Q 35.15625 65.921875 28.609375 65.921875 
Q 23.96875 65.921875 18.8125 64.3125 
Q 13.671875 62.703125 7.8125 59.421875 
L 7.8125 69.390625 
Q 13.765625 71.78125 18.9375 73 
Q 24.125 74.21875 28.421875 74.21875 
Q 39.75 74.21875 46.484375 68.546875 
Q 53.21875 62.890625 53.21875 53.421875 
Q 53.21875 48.921875 51.53125 44.890625 
Q 49.859375 40.875 45.40625 35.40625 
Q 44.1875 33.984375 37.640625 27.21875 
Q 31.109375 20.453125 19.1875 8.296875 
z
" id="DejaVuSans-50"/>
      </defs>
      <g transform="translate(163.408438 463.158437)scale(0.1 -0.1)">
       <use xlink:href="#DejaVuSans-48"/>
       <use x="63.623047" xlink:href="#DejaVuSans-46"/>
       <use x="95.410156" xlink:href="#DejaVuSans-50"/>
      </g>
     </g>
    </g>
    <g id="xtick_4">
     <g id="line2d_7">
      <path clip-path="url(#p005ccf1742)" d="M 218.79 448.56 
L 218.79 60.48 
" style="fill:none;stroke:#b0b0b0;stroke-linecap:square;stroke-width:0.8;"/>
     </g>
     <g id="line2d_8">
      <g>
       <use style="stroke:#000000;stroke-width:0.8;" x="218.79" xlink:href="#m59c3d27ca6" y="448.56"/>
      </g>
     </g>
     <g id="text_4">
      <!-- 0.3 -->
      <defs>
       <path d="M 40.578125 39.3125 
Q 47.65625 37.796875 51.625 33 
Q 55.609375 28.21875 55.609375 21.1875 
Q 55.609375 10.40625 48.1875 4.484375 
Q 40.765625 -1.421875 27.09375 -1.421875 
Q 22.515625 -1.421875 17.65625 -0.515625 
Q 12.796875 0.390625 7.625 2.203125 
L 7.625 11.71875 
Q 11.71875 9.328125 16.59375 8.109375 
Q 21.484375 6.890625 26.8125 6.890625 
Q 36.078125 6.890625 40.9375 10.546875 
Q 45.796875 14.203125 45.796875 21.1875 
Q 45.796875 27.640625 41.28125 31.265625 
Q 36.765625 34.90625 28.71875 34.90625 
L 20.21875 34.90625 
L 20.21875 43.015625 
L 29.109375 43.015625 
Q 36.375 43.015625 40.234375 45.921875 
Q 44.09375 48.828125 44.09375 54.296875 
Q 44.09375 59.90625 40.109375 62.90625 
Q 36.140625 65.921875 28.71875 65.921875 
Q 24.65625 65.921875 20.015625 65.03125 
Q 15.375 64.15625 9.8125 62.3125 
L 9.8125 71.09375 
Q 15.4375 72.65625 20.34375 73.4375 
Q 25.25 74.21875 29.59375 74.21875 
Q 40.828125 74.21875 47.359375 69.109375 
Q 53.90625 64.015625 53.90625 55.328125 
Q 53.90625 49.265625 50.4375 45.09375 
Q 46.96875 40.921875 40.578125 39.3125 
z
" id="DejaVuSans-51"/>
      </defs>
      <g transform="translate(210.838438 463.158437)scale(0.1 -0.1)">
       <use xlink:href="#DejaVuSans-48"/>
       <use x="63.623047" xlink:href="#DejaVuSans-46"/>
       <use x="95.410156" xlink:href="#DejaVuSans-51"/>
      </g>
     </g>
    </g>
    <g id="xtick_5">
     <g id="line2d_9">
      <path clip-path="url(#p005ccf1742)" d="M 266.22 448.56 
L 266.22 60.48 
" style="fill:none;stroke:#b0b0b0;stroke-linecap:square;stroke-width:0.8;"/>
     </g>
     <g id="line2d_10">
      <g>
       <use style="stroke:#000000;stroke-width:0.8;" x="266.22" xlink:href="#m59c3d27ca6" y="448.56"/>
      </g>
     </g>
     <g id="text_5">
      <!-- 0.4 -->
      <defs>
       <path d="M 37.796875 64.3125 
L 12.890625 25.390625 
L 37.796875 25.390625 
z
M 35.203125 72.90625 
L 47.609375 72.90625 
L 47.609375 25.390625 
L 58.015625 25.390625 
L 58.015625 17.1875 
L 47.609375 17.1875 
L 47.609375 0 
L 37.796875 0 
L 37.796875 17.1875 
L 4.890625 17.1875 
L 4.890625 26.703125 
z
" id="DejaVuSans-52"/>
      </defs>
      <g transform="translate(258.268438 463.158437)scale(0.1 -0.1)">
       <use xlink:href="#DejaVuSans-48"/>
       <use x="63.623047" xlink:href="#DejaVuSans-46"/>
       <use x="95.410156" xlink:href="#DejaVuSans-52"/>
      </g>
     </g>
    </g>
    <g id="xtick_6">
     <g id="line2d_11">
      <path clip-path="url(#p005ccf1742)" d="M 313.65 448.56 
L 313.65 60.48 
" style="fill:none;stroke:#b0b0b0;stroke-linecap:square;stroke-width:0.8;"/>
     </g>
     <g id="line2d_12">
      <g>
       <use style="stroke:#000000;stroke-width:0.8;" x="313.65" xlink:href="#m59c3d27ca6" y="448.56"/>
      </g>
     </g>
     <g id="text_6">
      <!-- 0.5 -->
      <defs>
       <path d="M 10.796875 72.90625 
L 49.515625 72.90625 
L 49.515625 64.59375 
L 19.828125 64.59375 
L 19.828125 46.734375 
Q 21.96875 47.46875 24.109375 47.828125 
Q 26.265625 48.1875 28.421875 48.1875 
Q 40.625 48.1875 47.75 41.5 
Q 54.890625 34.8125 54.890625 23.390625 
Q 54.890625 11.625 47.5625 5.09375 
Q 40.234375 -1.421875 26.90625 -1.421875 
Q 22.3125 -1.421875 17.546875 -0.640625 
Q 12.796875 0.140625 7.71875 1.703125 
L 7.71875 11.625 
Q 12.109375 9.234375 16.796875 8.0625 
Q 21.484375 6.890625 26.703125 6.890625 
Q 35.15625 6.890625 40.078125 11.328125 
Q 45.015625 15.765625 45.015625 23.390625 
Q 45.015625 31 40.078125 35.4375 
Q 35.15625 39.890625 26.703125 39.890625 
Q 22.75 39.890625 18.8125 39.015625 
Q 14.890625 38.140625 10.796875 36.28125 
z
" id="DejaVuSans-53"/>
      </defs>
      <g transform="translate(305.698438 463.158437)scale(0.1 -0.1)">
       <use xlink:href="#DejaVuSans-48"/>
       <use x="63.623047" xlink:href="#DejaVuSans-46"/>
       <use x="95.410156" xlink:href="#DejaVuSans-53"/>
      </g>
     </g>
    </g>
    <g id="xtick_7">
     <g id="line2d_13">
      <path clip-path="url(#p005ccf1742)" d="M 361.08 448.56 
L 361.08 60.48 
" style="fill:none;stroke:#b0b0b0;stroke-linecap:square;stroke-width:0.8;"/>
     </g>
     <g id="line2d_14">
      <g>
       <use style="stroke:#000000;stroke-width:0.8;" x="361.08" xlink:href="#m59c3d27ca6" y="448.56"/>
      </g>
     </g>
     <g id="text_7">
      <!-- 0.6 -->
      <defs>
       <path d="M 33.015625 40.375 
Q 26.375 40.375 22.484375 35.828125 
Q 18.609375 31.296875 18.609375 23.390625 
Q 18.609375 15.53125 22.484375 10.953125 
Q 26.375 6.390625 33.015625 6.390625 
Q 39.65625 6.390625 43.53125 10.953125 
Q 47.40625 15.53125 47.40625 23.390625 
Q 47.40625 31.296875 43.53125 35.828125 
Q 39.65625 40.375 33.015625 40.375 
z
M 52.59375 71.296875 
L 52.59375 62.3125 
Q 48.875 64.0625 45.09375 64.984375 
Q 41.3125 65.921875 37.59375 65.921875 
Q 27.828125 65.921875 22.671875 59.328125 
Q 17.53125 52.734375 16.796875 39.40625 
Q 19.671875 43.65625 24.015625 45.921875 
Q 28.375 48.1875 33.59375 48.1875 
Q 44.578125 48.1875 50.953125 41.515625 
Q 57.328125 34.859375 57.328125 23.390625 
Q 57.328125 12.15625 50.6875 5.359375 
Q 44.046875 -1.421875 33.015625 -1.421875 
Q 20.359375 -1.421875 13.671875 8.265625 
Q 6.984375 17.96875 6.984375 36.375 
Q 6.984375 53.65625 15.1875 63.9375 
Q 23.390625 74.21875 37.203125 74.21875 
Q 40.921875 74.21875 44.703125 73.484375 
Q 48.484375 72.75 52.59375 71.296875 
z
" id="DejaVuSans-54"/>
      </defs>
      <g transform="translate(353.128438 463.158437)scale(0.1 -0.1)">
       <use xlink:href="#DejaVuSans-48"/>
       <use x="63.623047" xlink:href="#DejaVuSans-46"/>
       <use x="95.410156" xlink:href="#DejaVuSans-54"/>
      </g>
     </g>
    </g>
    <g id="xtick_8">
     <g id="line2d_15">
      <path clip-path="url(#p005ccf1742)" d="M 408.51 448.56 
L 408.51 60.48 
" style="fill:none;stroke:#b0b0b0;stroke-linecap:square;stroke-width:0.8;"/>
     </g>
     <g id="line2d_16">
      <g>
       <use style="stroke:#000000;stroke-width:0.8;" x="408.51" xlink:href="#m59c3d27ca6" y="448.56"/>
      </g>
     </g>
     <g id="text_8">
      <!-- 0.7 -->
      <defs>
       <path d="M 8.203125 72.90625 
L 55.078125 72.90625 
L 55.078125 68.703125 
L 28.609375 0 
L 18.3125 0 
L 43.21875 64.59375 
L 8.203125 64.59375 
z
" id="DejaVuSans-55"/>
      </defs>
      <g transform="translate(400.558438 463.158437)scale(0.1 -0.1)">
       <use xlink:href="#DejaVuSans-48"/>
       <use x="63.623047" xlink:href="#DejaVuSans-46"/>
       <use x="95.410156" xlink:href="#DejaVuSans-55"/>
      </g>
     </g>
    </g>
    <g id="xtick_9">
     <g id="line2d_17">
      <path clip-path="url(#p005ccf1742)" d="M 455.94 448.56 
L 455.94 60.48 
" style="fill:none;stroke:#b0b0b0;stroke-linecap:square;stroke-width:0.8;"/>
     </g>
     <g id="line2d_18">
      <g>
       <use style="stroke:#000000;stroke-width:0.8;" x="455.94" xlink:href="#m59c3d27ca6" y="448.56"/>
      </g>
     </g>
     <g id="text_9">
      <!-- 0.8 -->
      <defs>
       <path d="M 31.78125 34.625 
Q 24.75 34.625 20.71875 30.859375 
Q 16.703125 27.09375 16.703125 20.515625 
Q 16.703125 13.921875 20.71875 10.15625 
Q 24.75 6.390625 31.78125 6.390625 
Q 38.8125 6.390625 42.859375 10.171875 
Q 46.921875 13.96875 46.921875 20.515625 
Q 46.921875 27.09375 42.890625 30.859375 
Q 38.875 34.625 31.78125 34.625 
z
M 21.921875 38.8125 
Q 15.578125 40.375 12.03125 44.71875 
Q 8.5 49.078125 8.5 55.328125 
Q 8.5 64.0625 14.71875 69.140625 
Q 20.953125 74.21875 31.78125 74.21875 
Q 42.671875 74.21875 48.875 69.140625 
Q 55.078125 64.0625 55.078125 55.328125 
Q 55.078125 49.078125 51.53125 44.71875 
Q 48 40.375 41.703125 38.8125 
Q 48.828125 37.15625 52.796875 32.3125 
Q 56.78125 27.484375 56.78125 20.515625 
Q 56.78125 9.90625 50.3125 4.234375 
Q 43.84375 -1.421875 31.78125 -1.421875 
Q 19.734375 -1.421875 13.25 4.234375 
Q 6.78125 9.90625 6.78125 20.515625 
Q 6.78125 27.484375 10.78125 32.3125 
Q 14.796875 37.15625 21.921875 38.8125 
z
M 18.3125 54.390625 
Q 18.3125 48.734375 21.84375 45.5625 
Q 25.390625 42.390625 31.78125 42.390625 
Q 38.140625 42.390625 41.71875 45.5625 
Q 45.3125 48.734375 45.3125 54.390625 
Q 45.3125 60.0625 41.71875 63.234375 
Q 38.140625 66.40625 31.78125 66.40625 
Q 25.390625 66.40625 21.84375 63.234375 
Q 18.3125 60.0625 18.3125 54.390625 
z
" id="DejaVuSans-56"/>
      </defs>
      <g transform="translate(447.988438 463.158437)scale(0.1 -0.1)">
       <use xlink:href="#DejaVuSans-48"/>
       <use x="63.623047" xlink:href="#DejaVuSans-46"/>
       <use x="95.410156" xlink:href="#DejaVuSans-56"/>
      </g>
     </g>
    </g>
    <g id="xtick_10">
     <g id="line2d_19">
      <path clip-path="url(#p005ccf1742)" d="M 503.37 448.56 
L 503.37 60.48 
" style="fill:none;stroke:#b0b0b0;stroke-linecap:square;stroke-width:0.8;"/>
     </g>
     <g id="line2d_20">
      <g>
       <use style="stroke:#000000;stroke-width:0.8;" x="503.37" xlink:href="#m59c3d27ca6" y="448.56"/>
      </g>
     </g>
     <g id="text_10">
      <!-- 0.9 -->
      <defs>
       <path d="M 10.984375 1.515625 
L 10.984375 10.5 
Q 14.703125 8.734375 18.5 7.8125 
Q 22.3125 6.890625 25.984375 6.890625 
Q 35.75 6.890625 40.890625 13.453125 
Q 46.046875 20.015625 46.78125 33.40625 
Q 43.953125 29.203125 39.59375 26.953125 
Q 35.25 24.703125 29.984375 24.703125 
Q 19.046875 24.703125 12.671875 31.3125 
Q 6.296875 37.9375 6.296875 49.421875 
Q 6.296875 60.640625 12.9375 67.421875 
Q 19.578125 74.21875 30.609375 74.21875 
Q 43.265625 74.21875 49.921875 64.515625 
Q 56.59375 54.828125 56.59375 36.375 
Q 56.59375 19.140625 48.40625 8.859375 
Q 40.234375 -1.421875 26.421875 -1.421875 
Q 22.703125 -1.421875 18.890625 -0.6875 
Q 15.09375 0.046875 10.984375 1.515625 
z
M 30.609375 32.421875 
Q 37.25 32.421875 41.125 36.953125 
Q 45.015625 41.5 45.015625 49.421875 
Q 45.015625 57.28125 41.125 61.84375 
Q 37.25 66.40625 30.609375 66.40625 
Q 23.96875 66.40625 20.09375 61.84375 
Q 16.21875 57.28125 16.21875 49.421875 
Q 16.21875 41.5 20.09375 36.953125 
Q 23.96875 32.421875 30.609375 32.421875 
z
" id="DejaVuSans-57"/>
      </defs>
      <g transform="translate(495.418438 463.158437)scale(0.1 -0.1)">
       <use xlink:href="#DejaVuSans-48"/>
       <use x="63.623047" xlink:href="#DejaVuSans-46"/>
       <use x="95.410156" xlink:href="#DejaVuSans-57"/>
      </g>
     </g>
    </g>
    <g id="xtick_11">
     <g id="line2d_21">
      <path clip-path="url(#p005ccf1742)" d="M 550.8 448.56 
L 550.8 60.48 
" style="fill:none;stroke:#b0b0b0;stroke-linecap:square;stroke-width:0.8;"/>
     </g>
     <g id="line2d_22">
      <g>
       <use style="stroke:#000000;stroke-width:0.8;" x="550.8" xlink:href="#m59c3d27ca6" y="448.56"/>
      </g>
     </g>
     <g id="text_11">
      <!-- 1.0 -->
      <g transform="translate(542.848438 463.158437)scale(0.1 -0.1)">
       <use xlink:href="#DejaVuSans-49"/>
       <use x="63.623047" xlink:href="#DejaVuSans-46"/>
       <use x="95.410156" xlink:href="#DejaVuSans-48"/>
      </g>
     </g>
    </g>
    <g id="text_12">
     <!-- 1-precision -->
     <defs>
      <path d="M 4.890625 31.390625 
L 31.203125 31.390625 
L 31.203125 23.390625 
L 4.890625 23.390625 
z
" id="DejaVuSans-45"/>
      <path d="M 18.109375 8.203125 
L 18.109375 -20.796875 
L 9.078125 -20.796875 
L 9.078125 54.6875 
L 18.109375 54.6875 
L 18.109375 46.390625 
Q 20.953125 51.265625 25.265625 53.625 
Q 29.59375 56 35.59375 56 
Q 45.5625 56 51.78125 48.09375 
Q 58.015625 40.1875 58.015625 27.296875 
Q 58.015625 14.40625 51.78125 6.484375 
Q 45.5625 -1.421875 35.59375 -1.421875 
Q 29.59375 -1.421875 25.265625 0.953125 
Q 20.953125 3.328125 18.109375 8.203125 
z
M 48.6875 27.296875 
Q 48.6875 37.203125 44.609375 42.84375 
Q 40.53125 48.484375 33.40625 48.484375 
Q 26.265625 48.484375 22.1875 42.84375 
Q 18.109375 37.203125 18.109375 27.296875 
Q 18.109375 17.390625 22.1875 11.75 
Q 26.265625 6.109375 33.40625 6.109375 
Q 40.53125 6.109375 44.609375 11.75 
Q 48.6875 17.390625 48.6875 27.296875 
z
" id="DejaVuSans-112"/>
      <path d="M 41.109375 46.296875 
Q 39.59375 47.171875 37.8125 47.578125 
Q 36.03125 48 33.890625 48 
Q 26.265625 48 22.1875 43.046875 
Q 18.109375 38.09375 18.109375 28.8125 
L 18.109375 0 
L 9.078125 0 
L 9.078125 54.6875 
L 18.109375 54.6875 
L 18.109375 46.1875 
Q 20.953125 51.171875 25.484375 53.578125 
Q 30.03125 56 36.53125 56 
Q 37.453125 56 38.578125 55.875 
Q 39.703125 55.765625 41.0625 55.515625 
z
" id="DejaVuSans-114"/>
      <path d="M 56.203125 29.59375 
L 56.203125 25.203125 
L 14.890625 25.203125 
Q 15.484375 15.921875 20.484375 11.0625 
Q 25.484375 6.203125 34.421875 6.203125 
Q 39.59375 6.203125 44.453125 7.46875 
Q 49.3125 8.734375 54.109375 11.28125 
L 54.109375 2.78125 
Q 49.265625 0.734375 44.1875 -0.34375 
Q 39.109375 -1.421875 33.890625 -1.421875 
Q 20.796875 -1.421875 13.15625 6.1875 
Q 5.515625 13.8125 5.515625 26.8125 
Q 5.515625 40.234375 12.765625 48.109375 
Q 20.015625 56 32.328125 56 
Q 43.359375 56 49.78125 48.890625 
Q 56.203125 41.796875 56.203125 29.59375 
z
M 47.21875 32.234375 
Q 47.125 39.59375 43.09375 43.984375 
Q 39.0625 48.390625 32.421875 48.390625 
Q 24.90625 48.390625 20.390625 44.140625 
Q 15.875 39.890625 15.1875 32.171875 
z
" id="DejaVuSans-101"/>
      <path d="M 48.78125 52.59375 
L 48.78125 44.1875 
Q 44.96875 46.296875 41.140625 47.34375 
Q 37.3125 48.390625 33.40625 48.390625 
Q 24.65625 48.390625 19.8125 42.84375 
Q 14.984375 37.3125 14.984375 27.296875 
Q 14.984375 17.28125 19.8125 11.734375 
Q 24.65625 6.203125 33.40625 6.203125 
Q 37.3125 6.203125 41.140625 7.25 
Q 44.96875 8.296875 48.78125 10.40625 
L 48.78125 2.09375 
Q 45.015625 0.34375 40.984375 -0.53125 
Q 36.96875 -1.421875 32.421875 -1.421875 
Q 20.0625 -1.421875 12.78125 6.34375 
Q 5.515625 14.109375 5.515625 27.296875 
Q 5.515625 40.671875 12.859375 48.328125 
Q 20.21875 56 33.015625 56 
Q 37.15625 56 41.109375 55.140625 
Q 45.0625 54.296875 48.78125 52.59375 
z
" id="DejaVuSans-99"/>
      <path d="M 9.421875 54.6875 
L 18.40625 54.6875 
L 18.40625 0 
L 9.421875 0 
z
M 9.421875 75.984375 
L 18.40625 75.984375 
L 18.40625 64.59375 
L 9.421875 64.59375 
z
" id="DejaVuSans-105"/>
      <path d="M 44.28125 53.078125 
L 44.28125 44.578125 
Q 40.484375 46.53125 36.375 47.5 
Q 32.28125 48.484375 27.875 48.484375 
Q 21.1875 48.484375 17.84375 46.4375 
Q 14.5 44.390625 14.5 40.28125 
Q 14.5 37.15625 16.890625 35.375 
Q 19.28125 33.59375 26.515625 31.984375 
L 29.59375 31.296875 
Q 39.15625 29.25 43.1875 25.515625 
Q 47.21875 21.78125 47.21875 15.09375 
Q 47.21875 7.46875 41.1875 3.015625 
Q 35.15625 -1.421875 24.609375 -1.421875 
Q 20.21875 -1.421875 15.453125 -0.5625 
Q 10.6875 0.296875 5.421875 2 
L 5.421875 11.28125 
Q 10.40625 8.6875 15.234375 7.390625 
Q 20.0625 6.109375 24.8125 6.109375 
Q 31.15625 6.109375 34.5625 8.28125 
Q 37.984375 10.453125 37.984375 14.40625 
Q 37.984375 18.0625 35.515625 20.015625 
Q 33.0625 21.96875 24.703125 23.78125 
L 21.578125 24.515625 
Q 13.234375 26.265625 9.515625 29.90625 
Q 5.8125 33.546875 5.8125 39.890625 
Q 5.8125 47.609375 11.28125 51.796875 
Q 16.75 56 26.8125 56 
Q 31.78125 56 36.171875 55.265625 
Q 40.578125 54.546875 44.28125 53.078125 
z
" id="DejaVuSans-115"/>
      <path d="M 30.609375 48.390625 
Q 23.390625 48.390625 19.1875 42.75 
Q 14.984375 37.109375 14.984375 27.296875 
Q 14.984375 17.484375 19.15625 11.84375 
Q 23.34375 6.203125 30.609375 6.203125 
Q 37.796875 6.203125 41.984375 11.859375 
Q 46.1875 17.53125 46.1875 27.296875 
Q 46.1875 37.015625 41.984375 42.703125 
Q 37.796875 48.390625 30.609375 48.390625 
z
M 30.609375 56 
Q 42.328125 56 49.015625 48.375 
Q 55.71875 40.765625 55.71875 27.296875 
Q 55.71875 13.875 49.015625 6.21875 
Q 42.328125 -1.421875 30.609375 -1.421875 
Q 18.84375 -1.421875 12.171875 6.21875 
Q 5.515625 13.875 5.515625 27.296875 
Q 5.515625 40.765625 12.171875 48.375 
Q 18.84375 56 30.609375 56 
z
" id="DejaVuSans-111"/>
      <path d="M 54.890625 33.015625 
L 54.890625 0 
L 45.90625 0 
L 45.90625 32.71875 
Q 45.90625 40.484375 42.875 44.328125 
Q 39.84375 48.1875 33.796875 48.1875 
Q 26.515625 48.1875 22.3125 43.546875 
Q 18.109375 38.921875 18.109375 30.90625 
L 18.109375 0 
L 9.078125 0 
L 9.078125 54.6875 
L 18.109375 54.6875 
L 18.109375 46.1875 
Q 21.34375 51.125 25.703125 53.5625 
Q 30.078125 56 35.796875 56 
Q 45.21875 56 50.046875 50.171875 
Q 54.890625 44.34375 54.890625 33.015625 
z
" id="DejaVuSans-110"/>
     </defs>
     <g transform="translate(286.110938 476.836563)scale(0.1 -0.1)">
      <use xlink:href="#DejaVuSans-49"/>
      <use x="63.623047" xlink:href="#DejaVuSans-45"/>
      <use x="99.707031" xlink:href="#DejaVuSans-112"/>
      <use x="163.183594" xlink:href="#DejaVuSans-114"/>
      <use x="202.046875" xlink:href="#DejaVuSans-101"/>
      <use x="263.570312" xlink:href="#DejaVuSans-99"/>
      <use x="318.550781" xlink:href="#DejaVuSans-105"/>
      <use x="346.333984" xlink:href="#DejaVuSans-115"/>
      <use x="398.433594" xlink:href="#DejaVuSans-105"/>
      <use x="426.216797" xlink:href="#DejaVuSans-111"/>
      <use x="487.398438" xlink:href="#DejaVuSans-110"/>
     </g>
    </g>
   </g>
   <g id="matplotlib.axis_2">
    <g id="ytick_1">
     <g id="line2d_23">
      <path clip-path="url(#p005ccf1742)" d="M 76.5 448.56 
L 550.8 448.56 
" style="fill:none;stroke:#b0b0b0;stroke-linecap:square;stroke-width:0.8;"/>
     </g>
     <g id="line2d_24">
      <defs>
       <path d="M 0 0 
L -3.5 0 
" id="m8696d104b4" style="stroke:#000000;stroke-width:0.8;"/>
      </defs>
      <g>
       <use style="stroke:#000000;stroke-width:0.8;" x="76.5" xlink:href="#m8696d104b4" y="448.56"/>
      </g>
     </g>
     <g id="text_13">
      <!-- 0.0 -->
      <g transform="translate(53.596875 452.359219)scale(0.1 -0.1)">
       <use xlink:href="#DejaVuSans-48"/>
       <use x="63.623047" xlink:href="#DejaVuSans-46"/>
       <use x="95.410156" xlink:href="#DejaVuSans-48"/>
      </g>
     </g>
    </g>
    <g id="ytick_2">
     <g id="line2d_25">
      <path clip-path="url(#p005ccf1742)" d="M 76.5 409.752 
L 550.8 409.752 
" style="fill:none;stroke:#b0b0b0;stroke-linecap:square;stroke-width:0.8;"/>
     </g>
     <g id="line2d_26">
      <g>
       <use style="stroke:#000000;stroke-width:0.8;" x="76.5" xlink:href="#m8696d104b4" y="409.752"/>
      </g>
     </g>
     <g id="text_14">
      <!-- 0.1 -->
      <g transform="translate(53.596875 413.551219)scale(0.1 -0.1)">
       <use xlink:href="#DejaVuSans-48"/>
       <use x="63.623047" xlink:href="#DejaVuSans-46"/>
       <use x="95.410156" xlink:href="#DejaVuSans-49"/>
      </g>
     </g>
    </g>
    <g id="ytick_3">
     <g id="line2d_27">
      <path clip-path="url(#p005ccf1742)" d="M 76.5 370.944 
L 550.8 370.944 
" style="fill:none;stroke:#b0b0b0;stroke-linecap:square;stroke-width:0.8;"/>
     </g>
     <g id="line2d_28">
      <g>
       <use style="stroke:#000000;stroke-width:0.8;" x="76.5" xlink:href="#m8696d104b4" y="370.944"/>
      </g>
     </g>
     <g id="text_15">
      <!-- 0.2 -->
      <g transform="translate(53.596875 374.743219)scale(0.1 -0.1)">
       <use xlink:href="#DejaVuSans-48"/>
       <use x="63.623047" xlink:href="#DejaVuSans-46"/>
       <use x="95.410156" xlink:href="#DejaVuSans-50"/>
      </g>
     </g>
    </g>
    <g id="ytick_4">
     <g id="line2d_29">
      <path clip-path="url(#p005ccf1742)" d="M 76.5 332.136 
L 550.8 332.136 
" style="fill:none;stroke:#b0b0b0;stroke-linecap:square;stroke-width:0.8;"/>
     </g>
     <g id="line2d_30">
      <g>
       <use style="stroke:#000000;stroke-width:0.8;" x="76.5" xlink:href="#m8696d104b4" y="332.136"/>
      </g>
     </g>
     <g id="text_16">
      <!-- 0.3 -->
      <g transform="translate(53.596875 335.935219)scale(0.1 -0.1)">
       <use xlink:href="#DejaVuSans-48"/>
       <use x="63.623047" xlink:href="#DejaVuSans-46"/>
       <use x="95.410156" xlink:href="#DejaVuSans-51"/>
      </g>
     </g>
    </g>
    <g id="ytick_5">
     <g id="line2d_31">
      <path clip-path="url(#p005ccf1742)" d="M 76.5 293.328 
L 550.8 293.328 
" style="fill:none;stroke:#b0b0b0;stroke-linecap:square;stroke-width:0.8;"/>
     </g>
     <g id="line2d_32">
      <g>
       <use style="stroke:#000000;stroke-width:0.8;" x="76.5" xlink:href="#m8696d104b4" y="293.328"/>
      </g>
     </g>
     <g id="text_17">
      <!-- 0.4 -->
      <g transform="translate(53.596875 297.127219)scale(0.1 -0.1)">
       <use xlink:href="#DejaVuSans-48"/>
       <use x="63.623047" xlink:href="#DejaVuSans-46"/>
       <use x="95.410156" xlink:href="#DejaVuSans-52"/>
      </g>
     </g>
    </g>
    <g id="ytick_6">
     <g id="line2d_33">
      <path clip-path="url(#p005ccf1742)" d="M 76.5 254.52 
L 550.8 254.52 
" style="fill:none;stroke:#b0b0b0;stroke-linecap:square;stroke-width:0.8;"/>
     </g>
     <g id="line2d_34">
      <g>
       <use style="stroke:#000000;stroke-width:0.8;" x="76.5" xlink:href="#m8696d104b4" y="254.52"/>
      </g>
     </g>
     <g id="text_18">
      <!-- 0.5 -->
      <g transform="translate(53.596875 258.319219)scale(0.1 -0.1)">
       <use xlink:href="#DejaVuSans-48"/>
       <use x="63.623047" xlink:href="#DejaVuSans-46"/>
       <use x="95.410156" xlink:href="#DejaVuSans-53"/>
      </g>
     </g>
    </g>
    <g id="ytick_7">
     <g id="line2d_35">
      <path clip-path="url(#p005ccf1742)" d="M 76.5 215.712 
L 550.8 215.712 
" style="fill:none;stroke:#b0b0b0;stroke-linecap:square;stroke-width:0.8;"/>
     </g>
     <g id="line2d_36">
      <g>
       <use style="stroke:#000000;stroke-width:0.8;" x="76.5" xlink:href="#m8696d104b4" y="215.712"/>
      </g>
     </g>
     <g id="text_19">
      <!-- 0.6 -->
      <g transform="translate(53.596875 219.511219)scale(0.1 -0.1)">
       <use xlink:href="#DejaVuSans-48"/>
       <use x="63.623047" xlink:href="#DejaVuSans-46"/>
       <use x="95.410156" xlink:href="#DejaVuSans-54"/>
      </g>
     </g>
    </g>
    <g id="ytick_8">
     <g id="line2d_37">
      <path clip-path="url(#p005ccf1742)" d="M 76.5 176.904 
L 550.8 176.904 
" style="fill:none;stroke:#b0b0b0;stroke-linecap:square;stroke-width:0.8;"/>
     </g>
     <g id="line2d_38">
      <g>
       <use style="stroke:#000000;stroke-width:0.8;" x="76.5" xlink:href="#m8696d104b4" y="176.904"/>
      </g>
     </g>
     <g id="text_20">
      <!-- 0.7 -->
      <g transform="translate(53.596875 180.703219)scale(0.1 -0.1)">
       <use xlink:href="#DejaVuSans-48"/>
       <use x="63.623047" xlink:href="#DejaVuSans-46"/>
       <use x="95.410156" xlink:href="#DejaVuSans-55"/>
      </g>
     </g>
    </g>
    <g id="ytick_9">
     <g id="line2d_39">
      <path clip-path="url(#p005ccf1742)" d="M 76.5 138.096 
L 550.8 138.096 
" style="fill:none;stroke:#b0b0b0;stroke-linecap:square;stroke-width:0.8;"/>
     </g>
     <g id="line2d_40">
      <g>
       <use style="stroke:#000000;stroke-width:0.8;" x="76.5" xlink:href="#m8696d104b4" y="138.096"/>
      </g>
     </g>
     <g id="text_21">
      <!-- 0.8 -->
      <g transform="translate(53.596875 141.895219)scale(0.1 -0.1)">
       <use xlink:href="#DejaVuSans-48"/>
       <use x="63.623047" xlink:href="#DejaVuSans-46"/>
       <use x="95.410156" xlink:href="#DejaVuSans-56"/>
      </g>
     </g>
    </g>
    <g id="ytick_10">
     <g id="line2d_41">
      <path clip-path="url(#p005ccf1742)" d="M 76.5 99.288 
L 550.8 99.288 
" style="fill:none;stroke:#b0b0b0;stroke-linecap:square;stroke-width:0.8;"/>
     </g>
     <g id="line2d_42">
      <g>
       <use style="stroke:#000000;stroke-width:0.8;" x="76.5" xlink:href="#m8696d104b4" y="99.288"/>
      </g>
     </g>
     <g id="text_22">
      <!-- 0.9 -->
      <g transform="translate(53.596875 103.087219)scale(0.1 -0.1)">
       <use xlink:href="#DejaVuSans-48"/>
       <use x="63.623047" xlink:href="#DejaVuSans-46"/>
       <use x="95.410156" xlink:href="#DejaVuSans-57"/>
      </g>
     </g>
    </g>
    <g id="ytick_11">
     <g id="line2d_43">
      <path clip-path="url(#p005ccf1742)" d="M 76.5 60.48 
L 550.8 60.48 
" style="fill:none;stroke:#b0b0b0;stroke-linecap:square;stroke-width:0.8;"/>
     </g>
     <g id="line2d_44">
      <g>
       <use style="stroke:#000000;stroke-width:0.8;" x="76.5" xlink:href="#m8696d104b4" y="60.48"/>
      </g>
     </g>
     <g id="text_23">
      <!-- 1.0 -->
      <g transform="translate(53.596875 64.279219)scale(0.1 -0.1)">
       <use xlink:href="#DejaVuSans-49"/>
       <use x="63.623047" xlink:href="#DejaVuSans-46"/>
       <use x="95.410156" xlink:href="#DejaVuSans-48"/>
      </g>
     </g>
    </g>
    <g id="text_24">
     <!-- #correct/647 -->
     <defs>
      <path d="M 51.125 44 
L 36.921875 44 
L 32.8125 27.6875 
L 47.125 27.6875 
z
M 43.796875 71.78125 
L 38.71875 51.515625 
L 52.984375 51.515625 
L 58.109375 71.78125 
L 65.921875 71.78125 
L 60.890625 51.515625 
L 76.125 51.515625 
L 76.125 44 
L 58.984375 44 
L 54.984375 27.6875 
L 70.515625 27.6875 
L 70.515625 20.21875 
L 53.078125 20.21875 
L 48 0 
L 40.1875 0 
L 45.21875 20.21875 
L 30.90625 20.21875 
L 25.875 0 
L 18.015625 0 
L 23.09375 20.21875 
L 7.71875 20.21875 
L 7.71875 27.6875 
L 24.90625 27.6875 
L 29 44 
L 13.28125 44 
L 13.28125 51.515625 
L 30.90625 51.515625 
L 35.890625 71.78125 
z
" id="DejaVuSans-35"/>
      <path d="M 18.3125 70.21875 
L 18.3125 54.6875 
L 36.8125 54.6875 
L 36.8125 47.703125 
L 18.3125 47.703125 
L 18.3125 18.015625 
Q 18.3125 11.328125 20.140625 9.421875 
Q 21.96875 7.515625 27.59375 7.515625 
L 36.8125 7.515625 
L 36.8125 0 
L 27.59375 0 
Q 17.1875 0 13.234375 3.875 
Q 9.28125 7.765625 9.28125 18.015625 
L 9.28125 47.703125 
L 2.6875 47.703125 
L 2.6875 54.6875 
L 9.28125 54.6875 
L 9.28125 70.21875 
z
" id="DejaVuSans-116"/>
      <path d="M 25.390625 72.90625 
L 33.6875 72.90625 
L 8.296875 -9.28125 
L 0 -9.28125 
z
" id="DejaVuSans-47"/>
     </defs>
     <g transform="translate(47.517187 287.443438)rotate(-90)scale(0.1 -0.1)">
      <use xlink:href="#DejaVuSans-35"/>
      <use x="83.789062" xlink:href="#DejaVuSans-99"/>
      <use x="138.769531" xlink:href="#DejaVuSans-111"/>
      <use x="199.951172" xlink:href="#DejaVuSans-114"/>
      <use x="239.314453" xlink:href="#DejaVuSans-114"/>
      <use x="278.177734" xlink:href="#DejaVuSans-101"/>
      <use x="339.701172" xlink:href="#DejaVuSans-99"/>
      <use x="394.681641" xlink:href="#DejaVuSans-116"/>
      <use x="433.890625" xlink:href="#DejaVuSans-47"/>
      <use x="467.582031" xlink:href="#DejaVuSans-54"/>
      <use x="531.205078" xlink:href="#DejaVuSans-52"/>
      <use x="594.828125" xlink:href="#DejaVuSans-55"/>
     </g>
    </g>
   </g>
   <g id="line2d_45">
    <path clip-path="url(#p005ccf1742)" d="M 76.5 447.960185 
L 76.5 288.409521 
L 78.269776 288.409521 
L 78.193929 281.211747 
L 79.875801 281.211747 
L 79.79375 277.013045 
L 81.423529 277.013045 
L 81.372945 275.213601 
L 82.975085 275.213601 
L 82.887879 272.814343 
L 84.458054 272.814343 
L 84.378738 271.0149 
L 85.923179 271.0149 
L 85.534286 263.217311 
L 87.006646 263.217311 
L 86.747222 258.418794 
L 88.175077 258.418794 
L 87.128571 239.22473 
L 88.423743 239.22473 
L 88.3575 238.0251 
L 90.912431 238.0251 
L 90.525 232.026955 
L 91.758981 232.026955 
L 91.517414 228.428068 
L 92.726053 228.428068 
L 92.557031 226.02881 
L 93.747273 226.02881 
L 92.656204 210.433632 
L 93.768204 210.433632 
L 93.24 202.636043 
L 94.314085 202.636043 
L 94.230841 201.436414 
L 95.295105 201.436414 
L 94.660135 192.439196 
L 95.685169 192.439196 
L 95.556696 190.639753 
L 96.570601 190.639753 
L 95.921767 181.642535 
L 96.9 181.642535 
L 96.640127 178.043648 
L 98.560465 178.043648 
L 98.375472 175.644389 
L 99.321967 175.644389 
L 99.226875 174.44476 
L 101.100622 174.44476 
L 100.798156 170.845873 
L 101.718405 170.845873 
L 101.463158 167.846801 
L 102.370909 167.846801 
L 102.266801 166.647172 
L 103.16747 166.647172 
L 102.489041 158.849583 
L 103.364648 158.849583 
L 103.312281 158.249768 
L 105.050097 158.249768 
L 104.939652 157.050139 
L 105.800386 157.050139 
L 105.687692 155.85051 
L 106.542035 155.85051 
L 106.427151 154.650881 
L 108.961597 154.650881 
L 108.9 154.051066 
L 110.570699 154.051066 
L 110.378571 152.251623 
L 111.204878 152.251623 
L 110.755 148.052921 
L 111.568392 148.052921 
L 111.183729 144.454034 
L 111.985949 144.454034 
L 111.921311 143.854219 
L 113.514338 143.854219 
L 113.447283 143.254405 
L 115.026173 143.254405 
L 114.88759 142.054776 
L 116.45 142.054776 
L 116.165658 139.655518 
L 116.937655 139.655518 
L 116.865957 139.055703 
L 118.399293 139.055703 
L 118.178383 137.25626 
L 120.447378 137.25626 
L 120.218087 135.456816 
L 123.192746 135.456816 
L 123.032014 134.257187 
L 128.12449 134.257187 
L 128.036842 133.657372 
L 129.467513 133.657372 
L 129.378041 133.057558 
L 131.502857 133.057558 
L 131.226923 131.258114 
L 133.321298 131.258114 
L 133.039073 129.458671 
L 133.729587 129.458671 
L 133.635149 128.858856 
L 134.322405 128.858856 
L 134.038033 127.059413 
L 134.720131 127.059413 
L 134.625 126.459598 
L 135.303915 126.459598 
L 135.208143 125.859784 
L 137.898058 125.859784 
L 137.798869 125.259969 
L 139.790836 125.259969 
L 139.587981 124.06034 
L 140.24592 124.06034 
L 140.144089 123.460526 
L 140.799043 123.460526 
L 140.189573 119.861638 
L 140.837224 119.861638 
L 140.634906 118.662009 
L 142.560563 118.662009 
L 142.354446 117.46238 
L 144.257143 117.46238 
L 143.942968 115.662937 
L 144.570833 115.662937 
L 144.465948 115.063122 
L 145.091077 115.063122 
L 144.985714 114.463308 
L 145.608129 114.463308 
L 145.502297 113.863493 
L 146.122018 113.863493 
L 145.909756 112.663864 
L 148.363636 112.663864 
L 148.254917 112.064049 
L 149.469231 112.064049 
L 149.249774 110.86442 
L 149.852703 110.86442 
L 149.633084 109.664791 
L 152.020982 109.664791 
L 151.796884 108.465162 
L 153.564993 108.465162 
L 153.451327 107.865348 
L 154.036524 107.865348 
L 153.9225 107.265533 
L 157.966376 107.265533 
L 157.847965 106.665719 
L 158.418287 106.665719 
L 158.299565 106.065904 
L 158.867583 106.065904 
L 158.62987 104.866275 
L 160.880488 104.866275 
L 160.759599 104.266461 
L 174.766575 104.266461 
L 174.495868 103.066832 
L 177.580328 103.066832 
L 177.442428 102.467017 
L 190.232016 102.467017 
L 189.933114 101.267388 
L 200.51977 101.267388 
L 200.361783 100.667573 
L 201.252351 100.667573 
L 200.936122 99.467944 
L 217.415217 99.467944 
L 217.245235 98.86813 
L 218.048014 98.86813 
L 217.877885 98.268315 
L 220.655542 98.268315 
L 220.483929 97.668501 
L 220.876694 97.668501 
L 220.534164 96.468872 
L 220.925474 96.468872 
L 220.754556 95.869057 
L 233.520819 95.869057 
L 233.342386 95.269243 
L 241.428239 95.269243 
L 241.245796 94.669428 
L 245.301092 94.669428 
L 245.117012 94.069614 
L 260.622671 94.069614 
L 260.432265 93.469799 
L 277.927697 93.469799 
L 277.732136 92.869985 
L 282.165903 92.869985 
L 281.969656 92.27017 
L 286.756701 92.27017 
L 286.559831 91.670355 
L 294.246818 91.670355 
L 294.049046 91.070541 
L 298.629795 91.070541 
L 298.431818 90.470726 
L 309.198379 90.470726 
L 309 89.870912 
L 320.952836 89.870912 
L 320.952836 89.870912 
" style="fill:none;stroke:#1f77b4;stroke-linecap:square;stroke-width:2;"/>
   </g>
   <g id="line2d_46">
    <path clip-path="url(#p005ccf1742)" d="M 76.5 447.960185 
L 76.5 445.560927 
L 212.014286 445.560927 
L 195.075 444.961113 
L 181.9 444.361298 
L 162.736364 443.161669 
L 149.469231 441.96204 
L 224.71875 441.96204 
L 216 441.362226 
L 234.6 441.362226 
L 218.79 440.162597 
L 205.854545 438.962968 
L 234.6 438.962968 
L 222.438462 437.763338 
L 217.033333 437.163524 
L 228.953571 437.163524 
L 218.79 435.963895 
L 214.2 435.36408 
L 224.71875 435.36408 
L 212.014286 433.564637 
L 208.25 432.964822 
L 234.6 432.964822 
L 230.6475 432.365008 
L 259.752273 432.365008 
L 251.784783 431.165379 
L 258.146809 431.165379 
L 250.732653 429.96575 
L 256.734 429.96575 
L 253.2 429.365935 
L 269.733333 429.365935 
L 266.22 428.766121 
L 298.35 428.766121 
L 294.828571 428.166306 
L 320.425714 428.166306 
L 316.990141 427.566491 
L 343.29375 427.566491 
L 340 426.966677 
L 367.2 426.966677 
L 361.08 425.767048 
L 392.7 425.767048 
L 389.950435 425.167233 
L 392.7 425.167233 
L 387.385714 423.967604 
L 392.7 423.967604 
L 390.15 423.36779 
L 395.170313 423.36779 
L 390.267692 422.168161 
L 395.059701 422.168161 
L 392.7 421.568346 
L 403.603448 421.568346 
L 401.363014 420.968532 
L 408.2 420.968532 
L 406.046104 420.368717 
L 406.98 420.368717 
L 404.861538 419.768903 
L 408.51 419.768903 
L 404.411111 418.569274 
L 405.309202 418.569274 
L 403.304268 417.969459 
L 404.198182 417.969459 
L 402.224096 417.369645 
L 403.992857 417.369645 
L 402.05503 416.76983 
L 412.67967 416.76983 
L 410.842623 416.170015 
L 412.355676 416.170015 
L 410.55 415.570201 
L 414.221466 415.570201 
L 412.4625 414.970386 
L 419.958621 414.970386 
L 418.275 414.370572 
L 434.769528 414.370572 
L 433.238462 413.770757 
L 435.214286 413.770757 
L 433.713389 413.170943 
L 438.415663 413.170943 
L 435.531873 411.971314 
L 436.443083 411.971314 
L 435.025984 411.371499 
L 435.48 411.371499 
L 434.077734 410.771685 
L 436.750763 410.771685 
L 435.380989 410.17187 
L 444.662937 410.17187 
L 443.380139 409.572056 
L 445.219521 409.572056 
L 442.711224 408.372427 
L 443.441554 408.372427 
L 442.206061 407.772612 
L 444.706579 407.772612 
L 443.499344 407.172798 
L 445.906731 407.172798 
L 444.726518 406.572983 
L 448.327778 406.572983 
L 447.183692 405.973168 
L 450.575893 405.973168 
L 449.465875 405.373354 
L 450.654545 405.373354 
L 449.560526 404.773539 
L 456.968293 404.773539 
L 455.94 404.173725 
L 456.195687 404.173725 
L 455.175 403.57391 
L 456.192287 403.57391 
L 455.185146 402.974096 
L 456.188976 402.974096 
L 455.195026 402.374281 
L 457.870992 402.374281 
L 456.903046 401.774467 
L 458.3115 401.774467 
L 457.359352 401.174652 
L 458.053218 401.174652 
L 456.173645 399.975023 
L 458.448317 399.975023 
L 457.532374 399.375209 
L 461.185714 399.375209 
L 460.301379 398.775394 
L 461.935666 398.775394 
L 461.067568 398.17558 
L 461.669799 398.17558 
L 460.810045 397.575765 
L 462.582276 397.575765 
L 461.739301 396.975951 
L 464.380932 396.975951 
L 463.560888 396.376136 
L 463.744937 396.376136 
L 464.833125 396.376136 
L 464.02578 395.776321 
L 464.205809 395.776321 
L 465.619592 395.776321 
L 464.827088 395.176507 
L 465.001829 395.176507 
L 465.34919 395.176507 
L 464.563636 394.576692 
L 464.7375 394.576692 
L 469.33626 394.576692 
L 468.588 393.976878 
L 468.744297 393.976878 
L 471.019409 393.976878 
L 470.291513 393.377063 
L 470.439779 393.377063 
L 471.172993 393.377063 
L 470.454098 392.777249 
L 470.600182 392.777249 
L 472.867314 392.777249 
L 472.168254 392.177434 
L 472.30669 392.177434 
L 472.719089 392.177434 
L 470.787652 390.377991 
L 471.477414 390.377991 
L 470.258491 389.178362 
L 470.943367 389.178362 
L 469.743655 387.978733 
L 471.092346 387.978733 
L 470.436877 387.378918 
L 470.570149 387.378918 
L 473.517891 387.378918 
L 472.884689 386.779104 
L 473.008758 386.779104 
L 473.987264 386.779104 
L 473.363265 386.179289 
L 473.484639 386.179289 
L 473.72625 386.179289 
L 473.106552 385.579474 
L 473.22757 385.579474 
L 475.571148 385.579474 
L 474.969231 384.97966 
L 475.083434 384.97966 
L 475.423988 384.97966 
L 474.23139 383.780031 
L 474.345672 383.780031 
L 476.561739 383.780031 
L 475.982779 383.180216 
L 476.090896 383.180216 
L 477.779237 383.180216 
L 477.213258 382.580402 
L 477.316901 382.580402 
L 477.523315 382.580402 
L 476.96087 381.980587 
L 477.064286 381.980587 
L 479.073433 381.980587 
L 478.525714 381.380773 
L 478.623913 381.380773 
L 480.533333 381.380773 
L 479.999604 380.780958 
L 480.093008 380.780958 
L 480.464173 380.780958 
L 479.934731 380.181144 
L 480.027487 380.181144 
L 480.396094 380.181144 
L 479.870871 379.581329 
L 479.962987 379.581329 
L 480.146503 379.581329 
L 479.624321 378.981515 
L 479.716279 378.981515 
L 479.808 378.981515 
L 479.288273 378.3817 
L 479.380309 378.3817 
L 480.287802 378.3817 
L 479.775381 377.781886 
L 479.865399 377.781886 
L 481.102117 377.781886 
L 480.096894 376.582257 
L 480.184615 376.582257 
L 480.964417 376.582257 
L 480.46875 375.982442 
L 480.554835 375.982442 
L 481.404232 375.982442 
L 480.915217 375.382628 
L 480.999517 375.382628 
L 482.563443 375.382628 
L 481.608 374.182998 
L 481.689307 374.182998 
L 481.932084 374.182998 
L 481.457895 373.583184 
L 481.538902 373.583184 
L 482.100695 373.583184 
L 481.63125 372.983369 
L 481.711214 372.983369 
L 481.790993 372.983369 
L 481.323529 372.383555 
L 481.403571 372.383555 
L 481.801031 372.383555 
L 481.3373 371.78374 
L 481.416686 371.78374 
L 481.653759 371.78374 
L 481.192833 371.183926 
L 481.271932 371.183926 
L 481.586538 371.183926 
L 480.672122 369.984297 
L 480.751184 369.984297 
L 480.830068 369.984297 
L 480.375253 369.384482 
L 480.454382 369.384482 
L 480.690705 369.384482 
L 480.238591 368.784668 
L 480.31743 368.784668 
L 481.40297 368.784668 
L 480.958022 368.184853 
L 481.034687 368.184853 
L 481.187514 368.184853 
L 480.302951 366.985224 
L 480.379913 366.985224 
L 480.533333 366.985224 
L 480.093689 366.38541 
L 480.170543 366.38541 
L 480.779418 366.38541 
L 480.344241 365.785595 
L 480.42 365.785595 
L 481.020256 365.785595 
L 480.589457 365.185781 
L 480.664149 365.185781 
L 481.475394 365.185781 
L 481.05 364.585966 
L 481.12319 364.585966 
L 481.26911 364.585966 
L 480.845711 363.986151 
L 480.918809 363.986151 
L 481.064546 363.986151 
L 480.643125 363.386337 
L 480.716129 363.386337 
L 481.366392 363.386337 
L 480.949434 362.786522 
L 481.021296 362.786522 
L 481.236 362.786522 
L 480.821311 362.186708 
L 480.892938 362.186708 
L 481.601216 362.186708 
L 481.191194 361.586893 
L 481.261577 361.586893 
L 481.401917 361.586893 
L 480.99375 360.987079 
L 481.064048 360.987079 
L 481.134205 360.987079 
L 480.727538 360.387264 
L 480.797892 360.387264 
L 481.904644 360.387264 
L 481.504442 359.78745 
L 481.572781 359.78745 
L 481.640985 359.78745 
L 480.912967 358.587821 
L 480.981551 358.587821 
L 480.585 357.988006 
L 480.653771 357.988006 
L 480.790909 357.988006 
L 480.396094 357.388192 
L 480.46478 357.388192 
L 480.533333 357.388192 
L 480.139922 356.788377 
L 480.208658 356.788377 
L 481.753473 356.788377 
L 481.368251 356.188563 
L 481.5 356.188563 
L 481.95721 356.188563 
L 481.259774 354.988934 
L 481.32507 354.988934 
L 481.714286 354.988934 
L 481.336287 354.389119 
L 481.465642 354.389119 
L 481.658774 354.389119 
L 481.282931 353.789304 
L 481.411667 353.789304 
L 481.603878 353.789304 
L 480.857143 352.589675 
L 480.985833 352.589675 
L 481.748135 352.589675 
L 481.379727 351.989861 
L 481.505717 351.989861 
L 482.128867 351.989861 
L 481.76442 351.390046 
L 481.888251 351.390046 
L 482.561456 351.390046 
L 482.201154 350.790232 
L 482.322675 350.790232 
L 482.624603 350.790232 
L 481.553034 348.990788 
L 481.674627 348.990788 
L 482.216551 348.990788 
L 481.863446 348.390974 
L 481.983232 348.390974 
L 482.162132 348.390974 
L 481.810909 347.791159 
L 481.930164 347.791159 
L 481.989637 347.791159 
L 481.639776 347.191345 
L 481.758915 347.191345 
L 482.29 347.191345 
L 481.943467 346.59153 
L 482.06087 346.59153 
L 483.156544 346.59153 
L 482.815675 345.991716 
L 482.929456 345.991716 
L 483.380798 345.991716 
L 483.042857 345.391901 
L 483.155224 345.391901 
L 483.378843 345.391901 
L 483.042857 344.792087 
L 483.154575 344.792087 
L 484.305754 344.792087 
L 484.305754 344.792087 
" style="fill:none;stroke:#ff7f0e;stroke-linecap:square;stroke-width:2;"/>
   </g>
   <g id="line2d_47">
    <path clip-path="url(#p005ccf1742)" d="M 76.5 447.960185 
L 76.5 442.561855 
L 119.618182 442.561855 
L 112.984615 441.362226 
L 108.12 440.162597 
L 104.4 438.962968 
L 101.463158 437.763338 
L 123.93 437.763338 
L 119.618182 436.563709 
L 116.025 435.36408 
L 112.984615 434.164451 
L 110.378571 432.964822 
L 107.1 431.165379 
L 104.4 429.365935 
L 102.137838 427.566491 
L 100.215 425.767048 
L 98.560465 423.967604 
L 96.682979 421.568346 
L 95.1 419.169088 
L 93.439286 416.170015 
L 92.05082 413.170943 
L 90.658209 409.572056 
L 89.494521 405.973168 
L 89.318919 405.373354 
L 95.472 405.373354 
L 94.28625 402.374281 
L 99.922222 402.374281 
L 99.085714 400.574838 
L 104.4 400.574838 
L 102.56044 396.975951 
L 102.277174 396.376136 
L 116.441053 396.376136 
L 116.025 395.776321 
L 124.897959 395.776321 
L 124.409091 395.176507 
L 128.673 395.176507 
L 127.65 393.976878 
L 135.7875 393.976878 
L 134.668868 392.777249 
L 138.557944 392.777249 
L 137.983333 392.177434 
L 141.770642 392.177434 
L 141.177273 391.57762 
L 144.867568 391.57762 
L 141.361538 387.978733 
L 138.197561 384.379845 
L 136.728571 382.580402 
L 139.988976 382.580402 
L 137.124812 378.981515 
L 136.672388 378.3817 
L 142.7625 378.3817 
L 141.802174 377.182071 
L 144.744604 377.182071 
L 144.257143 376.582257 
L 155.55 376.582257 
L 155.004828 375.982442 
L 157.715753 375.982442 
L 156.618243 374.782813 
L 164.449669 374.782813 
L 163.3 373.583184 
L 165.816234 373.583184 
L 165.24 372.983369 
L 167.711538 372.983369 
L 167.130573 372.383555 
L 169.558861 372.383555 
L 168.395625 371.183926 
L 177.722561 371.183926 
L 177.109091 370.584111 
L 188.1 370.584111 
L 187.447368 369.984297 
L 191.647977 369.984297 
L 190.332 368.784668 
L 192.380114 368.784668 
L 191.725424 368.184853 
L 195.73743 368.184853 
L 195.075 367.585039 
L 206.55 367.585039 
L 204.485714 365.785595 
L 208.112042 365.785595 
L 206.076804 363.986151 
L 207.844615 363.986151 
L 207.17449 363.386337 
L 212.354774 363.386337 
L 211.6755 362.786522 
L 213.362687 362.786522 
L 212.014286 361.586893 
L 213.675 361.586893 
L 212.343204 360.387264 
L 213.978261 360.387264 
L 212.014286 358.587821 
L 222.942857 358.587821 
L 220.945909 356.788377 
L 223.917568 356.788377 
L 221.952 354.988934 
L 223.40708 354.988934 
L 222.759912 354.389119 
L 225.624891 354.389119 
L 224.976522 353.789304 
L 226.387013 353.789304 
L 225.740948 353.18949 
L 228.519231 353.18949 
L 227.87234 352.589675 
L 229.240678 352.589675 
L 228.596203 351.989861 
L 232.62375 351.989861 
L 231.975934 351.390046 
L 233.293388 351.390046 
L 232.648148 350.790232 
L 235.245306 350.790232 
L 234.6 350.190417 
L 238.409639 350.190417 
L 237.762 349.590603 
L 239.009163 349.590603 
L 238.364286 348.990788 
L 247.977692 348.990788 
L 246.668702 347.791159 
L 248.972727 347.791159 
L 248.321887 347.191345 
L 250.58764 347.191345 
L 249.93806 346.59153 
L 255.448352 346.59153 
L 254.795255 345.991716 
L 263.192553 345.991716 
L 262.532862 345.391901 
L 268.517647 345.391901 
L 267.855517 344.792087 
L 269.793493 344.792087 
L 267.827797 342.992643 
L 269.733333 342.992643 
L 269.084899 342.392828 
L 272.816225 342.392828 
L 272.168317 341.793014 
L 275.798697 341.793014 
L 275.151623 341.193199 
L 276.93 341.193199 
L 275.645192 339.99357 
L 276.524281 339.99357 
L 275.887261 339.393756 
L 277.627215 339.393756 
L 276.992744 338.793941 
L 277.853774 338.793941 
L 277.222571 338.194127 
L 278.927103 338.194127 
L 277.673684 336.994498 
L 280.187117 336.994498 
L 278.329787 335.195054 
L 283.209851 335.195054 
L 282.594643 334.59524 
L 283.390504 334.59524 
L 282.778402 333.995425 
L 285.136364 333.995425 
L 284.526316 333.395611 
L 286.841739 333.395611 
L 286.233815 332.795796 
L 288.508023 332.795796 
L 287.3 331.596167 
L 288.04858 331.596167 
L 287.449292 330.996352 
L 291.850696 330.996352 
L 290.657618 329.796723 
L 292.090909 329.796723 
L 291.498626 329.196909 
L 292.915574 329.196909 
L 292.325886 328.597094 
L 296.483646 328.597094 
L 295.895455 327.99728 
L 300.57874 327.99728 
L 299.992147 327.397465 
L 300.646997 327.397465 
L 300.063281 326.797651 
L 302.648196 326.797651 
L 302.066838 326.197836 
L 308.300752 326.197836 
L 307.72125 325.598022 
L 308.327431 325.598022 
L 307.750746 324.998207 
L 308.353846 324.998207 
L 307.77995 324.398393 
L 308.38 324.398393 
L 307.808867 323.798578 
L 309.591198 323.798578 
L 309.022683 323.198764 
L 310.778935 323.198764 
L 310.213043 322.598949 
L 310.792771 322.598949 
L 310.229567 321.999134 
L 312.520714 321.999134 
L 311.960095 321.39932 
L 313.089362 321.39932 
L 312.531368 320.799505 
L 313.65 320.799505 
L 313.094614 320.199691 
L 315.845833 320.199691 
L 315.293072 319.599876 
L 319.565306 319.599876 
L 319.015385 319.000062 
L 326.623195 319.000062 
L 326.077074 318.400247 
L 327.05413 318.400247 
L 326.510629 317.800433 
L 328.917167 317.800433 
L 328.37666 317.200618 
L 329.796383 317.200618 
L 328.723093 316.000989 
L 329.1926 316.000989 
L 328.128632 314.80136 
L 331.362448 314.80136 
L 330.309298 313.601731 
L 335.209091 313.601731 
L 334.6875 313.001917 
L 335.555422 313.001917 
L 335.036273 312.402102 
L 340.514648 312.402102 
L 340 311.802287 
L 340.818641 311.802287 
L 340.306395 311.202473 
L 341.925577 311.202473 
L 340.908621 310.002844 
L 342.108 310.002844 
L 341.603042 309.403029 
L 345.50597 309.403029 
L 344.505948 308.2034 
L 344.888683 308.2034 
L 344.391667 307.603586 
L 347.404927 307.603586 
L 346.911475 307.003771 
L 347.282182 307.003771 
L 346.301087 305.804142 
L 347.772302 305.804142 
L 346.8 304.604513 
L 350.038095 304.604513 
L 349.556514 304.004699 
L 351.312565 304.004699 
L 350.833798 303.404884 
L 352.560622 303.404884 
L 352.084655 302.80507 
L 352.767526 302.80507 
L 352.293654 302.205255 
L 356.297143 302.205255 
L 355.827685 301.60544 
L 357.1275 301.60544 
L 356.660566 301.005626 
L 360.461011 301.005626 
L 359.998534 300.405811 
L 360.926256 300.405811 
L 360.466019 299.805997 
L 361.385507 299.805997 
L 360.927492 299.206182 
L 361.232263 299.206182 
L 360.32112 298.006553 
L 361.231051 298.006553 
L 360.778378 297.406739 
L 361.08 297.406739 
L 360.629002 296.806924 
L 361.826929 296.806924 
L 361.378302 296.20711 
L 363.440435 296.20711 
L 362.994876 295.607295 
L 363.865688 295.607295 
L 362.980123 294.407666 
L 364.700611 294.407666 
L 364.26128 293.807852 
L 366.508735 293.807852 
L 366.072632 293.208037 
L 367.451194 293.208037 
L 367.017586 292.608223 
L 372.594798 292.608223 
L 372.167532 292.008408 
L 374.708535 292.008408 
L 374.284943 291.408594 
L 375.033946 291.408594 
L 374.612288 290.808779 
L 378.267635 290.808779 
L 377.850829 290.208964 
L 378.801099 290.208964 
L 378.38642 289.60915 
L 379.327285 289.60915 
L 378.914714 289.009335 
L 379.614383 289.009335 
L 378.794046 287.809706 
L 379.2583 287.809706 
L 378.85027 287.209892 
L 379.081696 287.209892 
L 378.675 286.610077 
L 379.595455 286.610077 
L 379.190788 286.010263 
L 382.999347 286.010263 
L 382.599739 285.410448 
L 383.037191 285.410448 
L 382.639091 284.810634 
L 389.147191 284.810634 
L 388.757357 284.210819 
L 390.55561 284.210819 
L 390.168842 283.611005 
L 391.151897 283.611005 
L 390.383516 282.411376 
L 390.579146 282.411376 
L 390.19659 281.811561 
L 390.586877 281.811561 
L 390.205704 281.211747 
L 390.400364 281.211747 
L 390.020339 280.611932 
L 391.56259 280.611932 
L 391.185269 280.012117 
L 392.887322 280.012117 
L 392.512899 279.412303 
L 393.258657 279.412303 
L 392.886 278.812488 
L 394.540512 278.812488 
L 393.801742 277.612859 
L 394.165585 277.612859 
L 393.797917 277.013045 
L 394.160508 277.013045 
L 393.794118 276.41323 
L 394.155466 276.41323 
L 393.790345 275.813416 
L 394.865753 275.813416 
L 394.502737 275.213601 
L 395.212372 275.213601 
L 394.85102 274.613787 
L 396.426263 274.613787 
L 395.709742 273.414158 
L 395.883221 273.414158 
L 395.526369 272.814343 
L 397.072235 272.814343 
L 396.718011 272.214529 
L 397.057773 272.214529 
L 396.704736 271.614714 
L 397.380592 271.614714 
L 397.029135 271.0149 
L 397.365246 271.0149 
L 397.014956 270.415085 
L 397.516975 270.415085 
L 397.168043 269.81527 
L 398.328155 269.81527 
L 397.981358 269.215456 
L 398.145856 269.215456 
L 397.8 268.615641 
L 400.387738 268.615641 
L 399.70443 267.416012 
L 401.437539 267.416012 
L 401.099063 266.816198 
L 401.874715 266.816198 
L 401.537888 266.216383 
L 402.306488 266.216383 
L 401.971296 265.616569 
L 402.124255 265.616569 
L 401.789938 265.016754 
L 404.346115 265.016754 
L 404.015625 264.41694 
L 404.163444 264.41694 
L 403.833803 263.817125 
L 404.422846 263.817125 
L 404.094595 263.217311 
L 405.404464 263.217311 
L 405.078494 262.617496 
L 405.510474 262.617496 
L 405.185686 262.017682 
L 405.61565 262.017682 
L 405.292035 261.417867 
L 407.822609 261.417867 
L 407.502799 260.818053 
L 410.216761 260.818053 
L 409.901041 260.218238 
L 411.090619 260.218238 
L 410.777038 259.618423 
L 411.430131 259.618423 
L 411.117987 259.018609 
L 411.248045 259.018609 
L 410.936651 258.418794 
L 411.196379 258.418794 
L 410.8859 257.81898 
L 411.01557 257.81898 
L 410.39667 256.619351 
L 414.555835 256.619351 
L 414.252646 256.019536 
L 414.375 256.019536 
L 414.497135 256.019536 
L 414.194812 255.419722 
L 414.31689 255.419722 
L 416.240881 255.419722 
L 415.643272 254.220093 
L 415.762039 254.220093 
L 420.678747 254.220093 
L 420.387563 253.620278 
L 420.497802 253.620278 
L 425.883063 253.620278 
L 425.883063 253.620278 
" style="fill:none;stroke:#2ca02c;stroke-linecap:square;stroke-width:2;"/>
   </g>
   <g id="patch_3">
    <path d="M 76.5 448.56 
L 76.5 60.48 
" style="fill:none;stroke:#000000;stroke-linecap:square;stroke-linejoin:miter;stroke-width:0.8;"/>
   </g>
   <g id="patch_4">
    <path d="M 550.8 448.56 
L 550.8 60.48 
" style="fill:none;stroke:#000000;stroke-linecap:square;stroke-linejoin:miter;stroke-width:0.8;"/>
   </g>
   <g id="patch_5">
    <path d="M 76.5 448.56 
L 550.8 448.56 
" style="fill:none;stroke:#000000;stroke-linecap:square;stroke-linejoin:miter;stroke-width:0.8;"/>
   </g>
   <g id="patch_6">
    <path d="M 76.5 60.48 
L 550.8 60.48 
" style="fill:none;stroke:#000000;stroke-linecap:square;stroke-linejoin:miter;stroke-width:0.8;"/>
   </g>
   <g id="text_25">
    <!-- bikes: img1-img3 -->
    <defs>
     <path d="M 48.6875 27.296875 
Q 48.6875 37.203125 44.609375 42.84375 
Q 40.53125 48.484375 33.40625 48.484375 
Q 26.265625 48.484375 22.1875 42.84375 
Q 18.109375 37.203125 18.109375 27.296875 
Q 18.109375 17.390625 22.1875 11.75 
Q 26.265625 6.109375 33.40625 6.109375 
Q 40.53125 6.109375 44.609375 11.75 
Q 48.6875 17.390625 48.6875 27.296875 
z
M 18.109375 46.390625 
Q 20.953125 51.265625 25.265625 53.625 
Q 29.59375 56 35.59375 56 
Q 45.5625 56 51.78125 48.09375 
Q 58.015625 40.1875 58.015625 27.296875 
Q 58.015625 14.40625 51.78125 6.484375 
Q 45.5625 -1.421875 35.59375 -1.421875 
Q 29.59375 -1.421875 25.265625 0.953125 
Q 20.953125 3.328125 18.109375 8.203125 
L 18.109375 0 
L 9.078125 0 
L 9.078125 75.984375 
L 18.109375 75.984375 
z
" id="DejaVuSans-98"/>
     <path d="M 9.078125 75.984375 
L 18.109375 75.984375 
L 18.109375 31.109375 
L 44.921875 54.6875 
L 56.390625 54.6875 
L 27.390625 29.109375 
L 57.625 0 
L 45.90625 0 
L 18.109375 26.703125 
L 18.109375 0 
L 9.078125 0 
z
" id="DejaVuSans-107"/>
     <path d="M 11.71875 12.40625 
L 22.015625 12.40625 
L 22.015625 0 
L 11.71875 0 
z
M 11.71875 51.703125 
L 22.015625 51.703125 
L 22.015625 39.3125 
L 11.71875 39.3125 
z
" id="DejaVuSans-58"/>
     <path id="DejaVuSans-32"/>
     <path d="M 52 44.1875 
Q 55.375 50.25 60.0625 53.125 
Q 64.75 56 71.09375 56 
Q 79.640625 56 84.28125 50.015625 
Q 88.921875 44.046875 88.921875 33.015625 
L 88.921875 0 
L 79.890625 0 
L 79.890625 32.71875 
Q 79.890625 40.578125 77.09375 44.375 
Q 74.3125 48.1875 68.609375 48.1875 
Q 61.625 48.1875 57.5625 43.546875 
Q 53.515625 38.921875 53.515625 30.90625 
L 53.515625 0 
L 44.484375 0 
L 44.484375 32.71875 
Q 44.484375 40.625 41.703125 44.40625 
Q 38.921875 48.1875 33.109375 48.1875 
Q 26.21875 48.1875 22.15625 43.53125 
Q 18.109375 38.875 18.109375 30.90625 
L 18.109375 0 
L 9.078125 0 
L 9.078125 54.6875 
L 18.109375 54.6875 
L 18.109375 46.1875 
Q 21.1875 51.21875 25.484375 53.609375 
Q 29.78125 56 35.6875 56 
Q 41.65625 56 45.828125 52.96875 
Q 50 49.953125 52 44.1875 
z
" id="DejaVuSans-109"/>
     <path d="M 45.40625 27.984375 
Q 45.40625 37.75 41.375 43.109375 
Q 37.359375 48.484375 30.078125 48.484375 
Q 22.859375 48.484375 18.828125 43.109375 
Q 14.796875 37.75 14.796875 27.984375 
Q 14.796875 18.265625 18.828125 12.890625 
Q 22.859375 7.515625 30.078125 7.515625 
Q 37.359375 7.515625 41.375 12.890625 
Q 45.40625 18.265625 45.40625 27.984375 
z
M 54.390625 6.78125 
Q 54.390625 -7.171875 48.1875 -13.984375 
Q 42 -20.796875 29.203125 -20.796875 
Q 24.46875 -20.796875 20.265625 -20.09375 
Q 16.0625 -19.390625 12.109375 -17.921875 
L 12.109375 -9.1875 
Q 16.0625 -11.328125 19.921875 -12.34375 
Q 23.78125 -13.375 27.78125 -13.375 
Q 36.625 -13.375 41.015625 -8.765625 
Q 45.40625 -4.15625 45.40625 5.171875 
L 45.40625 9.625 
Q 42.625 4.78125 38.28125 2.390625 
Q 33.9375 0 27.875 0 
Q 17.828125 0 11.671875 7.65625 
Q 5.515625 15.328125 5.515625 27.984375 
Q 5.515625 40.671875 11.671875 48.328125 
Q 17.828125 56 27.875 56 
Q 33.9375 56 38.28125 53.609375 
Q 42.625 51.21875 45.40625 46.390625 
L 45.40625 54.6875 
L 54.390625 54.6875 
z
" id="DejaVuSans-103"/>
    </defs>
    <g transform="translate(261.73125 41.042625)scale(0.12 -0.12)">
     <use xlink:href="#DejaVuSans-98"/>
     <use x="63.476562" xlink:href="#DejaVuSans-105"/>
     <use x="91.259766" xlink:href="#DejaVuSans-107"/>
     <use x="145.544922" xlink:href="#DejaVuSans-101"/>
     <use x="207.068359" xlink:href="#DejaVuSans-115"/>
     <use x="259.167969" xlink:href="#DejaVuSans-58"/>
     <use x="292.859375" xlink:href="#DejaVuSans-32"/>
     <use x="324.646484" xlink:href="#DejaVuSans-105"/>
     <use x="352.429688" xlink:href="#DejaVuSans-109"/>
     <use x="449.841797" xlink:href="#DejaVuSans-103"/>
     <use x="513.318359" xlink:href="#DejaVuSans-49"/>
     <use x="576.941406" xlink:href="#DejaVuSans-45"/>
     <use x="613.025391" xlink:href="#DejaVuSans-105"/>
     <use x="640.808594" xlink:href="#DejaVuSans-109"/>
     <use x="738.220703" xlink:href="#DejaVuSans-103"/>
     <use x="801.697266" xlink:href="#DejaVuSans-51"/>
    </g>
    <!-- NearestNeighbours -->
    <defs>
     <path d="M 9.8125 72.90625 
L 23.09375 72.90625 
L 55.421875 11.921875 
L 55.421875 72.90625 
L 64.984375 72.90625 
L 64.984375 0 
L 51.703125 0 
L 19.390625 60.984375 
L 19.390625 0 
L 9.8125 0 
z
" id="DejaVuSans-78"/>
     <path d="M 34.28125 27.484375 
Q 23.390625 27.484375 19.1875 25 
Q 14.984375 22.515625 14.984375 16.5 
Q 14.984375 11.71875 18.140625 8.90625 
Q 21.296875 6.109375 26.703125 6.109375 
Q 34.1875 6.109375 38.703125 11.40625 
Q 43.21875 16.703125 43.21875 25.484375 
L 43.21875 27.484375 
z
M 52.203125 31.203125 
L 52.203125 0 
L 43.21875 0 
L 43.21875 8.296875 
Q 40.140625 3.328125 35.546875 0.953125 
Q 30.953125 -1.421875 24.3125 -1.421875 
Q 15.921875 -1.421875 10.953125 3.296875 
Q 6 8.015625 6 15.921875 
Q 6 25.140625 12.171875 29.828125 
Q 18.359375 34.515625 30.609375 34.515625 
L 43.21875 34.515625 
L 43.21875 35.40625 
Q 43.21875 41.609375 39.140625 45 
Q 35.0625 48.390625 27.6875 48.390625 
Q 23 48.390625 18.546875 47.265625 
Q 14.109375 46.140625 10.015625 43.890625 
L 10.015625 52.203125 
Q 14.9375 54.109375 19.578125 55.046875 
Q 24.21875 56 28.609375 56 
Q 40.484375 56 46.34375 49.84375 
Q 52.203125 43.703125 52.203125 31.203125 
z
" id="DejaVuSans-97"/>
     <path d="M 54.890625 33.015625 
L 54.890625 0 
L 45.90625 0 
L 45.90625 32.71875 
Q 45.90625 40.484375 42.875 44.328125 
Q 39.84375 48.1875 33.796875 48.1875 
Q 26.515625 48.1875 22.3125 43.546875 
Q 18.109375 38.921875 18.109375 30.90625 
L 18.109375 0 
L 9.078125 0 
L 9.078125 75.984375 
L 18.109375 75.984375 
L 18.109375 46.1875 
Q 21.34375 51.125 25.703125 53.5625 
Q 30.078125 56 35.796875 56 
Q 45.21875 56 50.046875 50.171875 
Q 54.890625 44.34375 54.890625 33.015625 
z
" id="DejaVuSans-104"/>
     <path d="M 8.5 21.578125 
L 8.5 54.6875 
L 17.484375 54.6875 
L 17.484375 21.921875 
Q 17.484375 14.15625 20.5 10.265625 
Q 23.53125 6.390625 29.59375 6.390625 
Q 36.859375 6.390625 41.078125 11.03125 
Q 45.3125 15.671875 45.3125 23.6875 
L 45.3125 54.6875 
L 54.296875 54.6875 
L 54.296875 0 
L 45.3125 0 
L 45.3125 8.40625 
Q 42.046875 3.421875 37.71875 1 
Q 33.40625 -1.421875 27.6875 -1.421875 
Q 18.265625 -1.421875 13.375 4.4375 
Q 8.5 10.296875 8.5 21.578125 
z
M 31.109375 56 
z
" id="DejaVuSans-117"/>
    </defs>
    <g transform="translate(255.957188 54.48)scale(0.12 -0.12)">
     <use xlink:href="#DejaVuSans-78"/>
     <use x="74.804688" xlink:href="#DejaVuSans-101"/>
     <use x="136.328125" xlink:href="#DejaVuSans-97"/>
     <use x="197.607422" xlink:href="#DejaVuSans-114"/>
     <use x="236.470703" xlink:href="#DejaVuSans-101"/>
     <use x="297.994141" xlink:href="#DejaVuSans-115"/>
     <use x="350.09375" xlink:href="#DejaVuSans-116"/>
     <use x="389.302734" xlink:href="#DejaVuSans-78"/>
     <use x="464.107422" xlink:href="#DejaVuSans-101"/>
     <use x="525.630859" xlink:href="#DejaVuSans-105"/>
     <use x="553.414062" xlink:href="#DejaVuSans-103"/>
     <use x="616.890625" xlink:href="#DejaVuSans-104"/>
     <use x="680.269531" xlink:href="#DejaVuSans-98"/>
     <use x="743.746094" xlink:href="#DejaVuSans-111"/>
     <use x="804.927734" xlink:href="#DejaVuSans-117"/>
     <use x="868.306641" xlink:href="#DejaVuSans-114"/>
     <use x="909.419922" xlink:href="#DejaVuSans-115"/>
    </g>
   </g>
   <g id="legend_1">
    <g id="patch_7">
     <path d="M 362.659375 112.514375 
L 543.8 112.514375 
Q 545.8 112.514375 545.8 110.514375 
L 545.8 67.48 
Q 545.8 65.48 543.8 65.48 
L 362.659375 65.48 
Q 360.659375 65.48 360.659375 67.48 
L 360.659375 110.514375 
Q 360.659375 112.514375 362.659375 112.514375 
z
" style="fill:#ffffff;opacity:0.8;stroke:#cccccc;stroke-linejoin:miter;"/>
    </g>
    <g id="line2d_48">
     <path d="M 364.659375 73.578438 
L 384.659375 73.578438 
" style="fill:none;stroke:#1f77b4;stroke-linecap:square;stroke-width:2;"/>
    </g>
    <g id="line2d_49"/>
    <g id="text_26">
     <!-- root-cvsift AP: 88.4, %In: 48.5 -->
     <defs>
      <path d="M 2.984375 54.6875 
L 12.5 54.6875 
L 29.59375 8.796875 
L 46.6875 54.6875 
L 56.203125 54.6875 
L 35.6875 0 
L 23.484375 0 
z
" id="DejaVuSans-118"/>
      <path d="M 37.109375 75.984375 
L 37.109375 68.5 
L 28.515625 68.5 
Q 23.6875 68.5 21.796875 66.546875 
Q 19.921875 64.59375 19.921875 59.515625 
L 19.921875 54.6875 
L 34.71875 54.6875 
L 34.71875 47.703125 
L 19.921875 47.703125 
L 19.921875 0 
L 10.890625 0 
L 10.890625 47.703125 
L 2.296875 47.703125 
L 2.296875 54.6875 
L 10.890625 54.6875 
L 10.890625 58.5 
Q 10.890625 67.625 15.140625 71.796875 
Q 19.390625 75.984375 28.609375 75.984375 
z
" id="DejaVuSans-102"/>
      <path d="M 34.1875 63.1875 
L 20.796875 26.90625 
L 47.609375 26.90625 
z
M 28.609375 72.90625 
L 39.796875 72.90625 
L 67.578125 0 
L 57.328125 0 
L 50.6875 18.703125 
L 17.828125 18.703125 
L 11.1875 0 
L 0.78125 0 
z
" id="DejaVuSans-65"/>
      <path d="M 19.671875 64.796875 
L 19.671875 37.40625 
L 32.078125 37.40625 
Q 38.96875 37.40625 42.71875 40.96875 
Q 46.484375 44.53125 46.484375 51.125 
Q 46.484375 57.671875 42.71875 61.234375 
Q 38.96875 64.796875 32.078125 64.796875 
z
M 9.8125 72.90625 
L 32.078125 72.90625 
Q 44.34375 72.90625 50.609375 67.359375 
Q 56.890625 61.8125 56.890625 51.125 
Q 56.890625 40.328125 50.609375 34.8125 
Q 44.34375 29.296875 32.078125 29.296875 
L 19.671875 29.296875 
L 19.671875 0 
L 9.8125 0 
z
" id="DejaVuSans-80"/>
      <path d="M 11.71875 12.40625 
L 22.015625 12.40625 
L 22.015625 4 
L 14.015625 -11.625 
L 7.71875 -11.625 
L 11.71875 4 
z
" id="DejaVuSans-44"/>
      <path d="M 72.703125 32.078125 
Q 68.453125 32.078125 66.03125 28.46875 
Q 63.625 24.859375 63.625 18.40625 
Q 63.625 12.0625 66.03125 8.421875 
Q 68.453125 4.78125 72.703125 4.78125 
Q 76.859375 4.78125 79.265625 8.421875 
Q 81.6875 12.0625 81.6875 18.40625 
Q 81.6875 24.8125 79.265625 28.4375 
Q 76.859375 32.078125 72.703125 32.078125 
z
M 72.703125 38.28125 
Q 80.421875 38.28125 84.953125 32.90625 
Q 89.5 27.546875 89.5 18.40625 
Q 89.5 9.28125 84.9375 3.921875 
Q 80.375 -1.421875 72.703125 -1.421875 
Q 64.890625 -1.421875 60.34375 3.921875 
Q 55.8125 9.28125 55.8125 18.40625 
Q 55.8125 27.59375 60.375 32.9375 
Q 64.9375 38.28125 72.703125 38.28125 
z
M 22.3125 68.015625 
Q 18.109375 68.015625 15.6875 64.375 
Q 13.28125 60.75 13.28125 54.390625 
Q 13.28125 47.953125 15.671875 44.328125 
Q 18.0625 40.71875 22.3125 40.71875 
Q 26.5625 40.71875 28.96875 44.328125 
Q 31.390625 47.953125 31.390625 54.390625 
Q 31.390625 60.6875 28.953125 64.34375 
Q 26.515625 68.015625 22.3125 68.015625 
z
M 66.40625 74.21875 
L 74.21875 74.21875 
L 28.609375 -1.421875 
L 20.796875 -1.421875 
z
M 22.3125 74.21875 
Q 30.03125 74.21875 34.609375 68.875 
Q 39.203125 63.53125 39.203125 54.390625 
Q 39.203125 45.171875 34.640625 39.84375 
Q 30.078125 34.515625 22.3125 34.515625 
Q 14.546875 34.515625 10.03125 39.859375 
Q 5.515625 45.21875 5.515625 54.390625 
Q 5.515625 63.484375 10.046875 68.84375 
Q 14.59375 74.21875 22.3125 74.21875 
z
" id="DejaVuSans-37"/>
      <path d="M 9.8125 72.90625 
L 19.671875 72.90625 
L 19.671875 0 
L 9.8125 0 
z
" id="DejaVuSans-73"/>
     </defs>
     <g transform="translate(392.659375 77.078438)scale(0.1 -0.1)">
      <use xlink:href="#DejaVuSans-114"/>
      <use x="38.863281" xlink:href="#DejaVuSans-111"/>
      <use x="100.044922" xlink:href="#DejaVuSans-111"/>
      <use x="161.226562" xlink:href="#DejaVuSans-116"/>
      <use x="200.435547" xlink:href="#DejaVuSans-45"/>
      <use x="236.519531" xlink:href="#DejaVuSans-99"/>
      <use x="291.5" xlink:href="#DejaVuSans-118"/>
      <use x="350.679688" xlink:href="#DejaVuSans-115"/>
      <use x="402.779297" xlink:href="#DejaVuSans-105"/>
      <use x="430.5625" xlink:href="#DejaVuSans-102"/>
      <use x="464.017578" xlink:href="#DejaVuSans-116"/>
      <use x="503.226562" xlink:href="#DejaVuSans-32"/>
      <use x="535.013672" xlink:href="#DejaVuSans-65"/>
      <use x="603.421875" xlink:href="#DejaVuSans-80"/>
      <use x="663.724609" xlink:href="#DejaVuSans-58"/>
      <use x="697.416016" xlink:href="#DejaVuSans-32"/>
      <use x="729.203125" xlink:href="#DejaVuSans-56"/>
      <use x="792.826172" xlink:href="#DejaVuSans-56"/>
      <use x="856.449219" xlink:href="#DejaVuSans-46"/>
      <use x="888.236328" xlink:href="#DejaVuSans-52"/>
      <use x="951.859375" xlink:href="#DejaVuSans-44"/>
      <use x="983.646484" xlink:href="#DejaVuSans-32"/>
      <use x="1015.433594" xlink:href="#DejaVuSans-37"/>
      <use x="1110.453125" xlink:href="#DejaVuSans-73"/>
      <use x="1139.945312" xlink:href="#DejaVuSans-110"/>
      <use x="1203.324219" xlink:href="#DejaVuSans-58"/>
      <use x="1237.015625" xlink:href="#DejaVuSans-32"/>
      <use x="1268.802734" xlink:href="#DejaVuSans-52"/>
      <use x="1332.425781" xlink:href="#DejaVuSans-56"/>
      <use x="1396.048828" xlink:href="#DejaVuSans-46"/>
      <use x="1427.835938" xlink:href="#DejaVuSans-53"/>
     </g>
    </g>
    <g id="line2d_50">
     <path d="M 364.659375 88.256563 
L 384.659375 88.256563 
" style="fill:none;stroke:#ff7f0e;stroke-linecap:square;stroke-width:2;"/>
    </g>
    <g id="line2d_51"/>
    <g id="text_27">
     <!-- tfeat AP: 7.9, %In: 14.0 -->
     <g transform="translate(392.659375 91.756563)scale(0.1 -0.1)">
      <use xlink:href="#DejaVuSans-116"/>
      <use x="39.208984" xlink:href="#DejaVuSans-102"/>
      <use x="74.414062" xlink:href="#DejaVuSans-101"/>
      <use x="135.9375" xlink:href="#DejaVuSans-97"/>
      <use x="197.216797" xlink:href="#DejaVuSans-116"/>
      <use x="236.425781" xlink:href="#DejaVuSans-32"/>
      <use x="268.212891" xlink:href="#DejaVuSans-65"/>
      <use x="336.621094" xlink:href="#DejaVuSans-80"/>
      <use x="396.923828" xlink:href="#DejaVuSans-58"/>
      <use x="430.615234" xlink:href="#DejaVuSans-32"/>
      <use x="462.402344" xlink:href="#DejaVuSans-55"/>
      <use x="526.025391" xlink:href="#DejaVuSans-46"/>
      <use x="557.8125" xlink:href="#DejaVuSans-57"/>
      <use x="621.435547" xlink:href="#DejaVuSans-44"/>
      <use x="653.222656" xlink:href="#DejaVuSans-32"/>
      <use x="685.009766" xlink:href="#DejaVuSans-37"/>
      <use x="780.029297" xlink:href="#DejaVuSans-73"/>
      <use x="809.521484" xlink:href="#DejaVuSans-110"/>
      <use x="872.900391" xlink:href="#DejaVuSans-58"/>
      <use x="906.591797" xlink:href="#DejaVuSans-32"/>
      <use x="938.378906" xlink:href="#DejaVuSans-49"/>
      <use x="1002.001953" xlink:href="#DejaVuSans-52"/>
      <use x="1065.625" xlink:href="#DejaVuSans-46"/>
      <use x="1097.412109" xlink:href="#DejaVuSans-48"/>
     </g>
    </g>
    <g id="line2d_52">
     <path d="M 364.659375 102.934687 
L 384.659375 102.934687 
" style="fill:none;stroke:#2ca02c;stroke-linecap:square;stroke-width:2;"/>
    </g>
    <g id="line2d_53"/>
    <g id="text_28">
     <!-- hardnet AP: 32.8, %In: 26.3 -->
     <defs>
      <path d="M 45.40625 46.390625 
L 45.40625 75.984375 
L 54.390625 75.984375 
L 54.390625 0 
L 45.40625 0 
L 45.40625 8.203125 
Q 42.578125 3.328125 38.25 0.953125 
Q 33.9375 -1.421875 27.875 -1.421875 
Q 17.96875 -1.421875 11.734375 6.484375 
Q 5.515625 14.40625 5.515625 27.296875 
Q 5.515625 40.1875 11.734375 48.09375 
Q 17.96875 56 27.875 56 
Q 33.9375 56 38.25 53.625 
Q 42.578125 51.265625 45.40625 46.390625 
z
M 14.796875 27.296875 
Q 14.796875 17.390625 18.875 11.75 
Q 22.953125 6.109375 30.078125 6.109375 
Q 37.203125 6.109375 41.296875 11.75 
Q 45.40625 17.390625 45.40625 27.296875 
Q 45.40625 37.203125 41.296875 42.84375 
Q 37.203125 48.484375 30.078125 48.484375 
Q 22.953125 48.484375 18.875 42.84375 
Q 14.796875 37.203125 14.796875 27.296875 
z
" id="DejaVuSans-100"/>
     </defs>
     <g transform="translate(392.659375 106.434687)scale(0.1 -0.1)">
      <use xlink:href="#DejaVuSans-104"/>
      <use x="63.378906" xlink:href="#DejaVuSans-97"/>
      <use x="124.658203" xlink:href="#DejaVuSans-114"/>
      <use x="164.021484" xlink:href="#DejaVuSans-100"/>
      <use x="227.498047" xlink:href="#DejaVuSans-110"/>
      <use x="290.876953" xlink:href="#DejaVuSans-101"/>
      <use x="352.400391" xlink:href="#DejaVuSans-116"/>
      <use x="391.609375" xlink:href="#DejaVuSans-32"/>
      <use x="423.396484" xlink:href="#DejaVuSans-65"/>
      <use x="491.804688" xlink:href="#DejaVuSans-80"/>
      <use x="552.107422" xlink:href="#DejaVuSans-58"/>
      <use x="585.798828" xlink:href="#DejaVuSans-32"/>
      <use x="617.585938" xlink:href="#DejaVuSans-51"/>
      <use x="681.208984" xlink:href="#DejaVuSans-50"/>
      <use x="744.832031" xlink:href="#DejaVuSans-46"/>
      <use x="776.619141" xlink:href="#DejaVuSans-56"/>
      <use x="840.242188" xlink:href="#DejaVuSans-44"/>
      <use x="872.029297" xlink:href="#DejaVuSans-32"/>
      <use x="903.816406" xlink:href="#DejaVuSans-37"/>
      <use x="998.835938" xlink:href="#DejaVuSans-73"/>
      <use x="1028.328125" xlink:href="#DejaVuSans-110"/>
      <use x="1091.707031" xlink:href="#DejaVuSans-58"/>
      <use x="1125.398438" xlink:href="#DejaVuSans-32"/>
      <use x="1157.185547" xlink:href="#DejaVuSans-50"/>
      <use x="1220.808594" xlink:href="#DejaVuSans-54"/>
      <use x="1284.431641" xlink:href="#DejaVuSans-46"/>
      <use x="1316.21875" xlink:href="#DejaVuSans-51"/>
     </g>
    </g>
   </g>
  </g>
 </g>
 <defs>
  <clipPath id="p005ccf1742">
   <rect height="388.08" width="474.3" x="76.5" y="60.48"/>
  </clipPath>
 </defs>
</svg>
