<?xml version="1.0" encoding="utf-8" standalone="no"?>
<!DOCTYPE svg PUBLIC "-//W3C//DTD SVG 1.1//EN"
  "http://www.w3.org/Graphics/SVG/1.1/DTD/svg11.dtd">
<!-- Created with matplotlib (https://matplotlib.org/) -->
<svg height="504pt" version="1.1" viewBox="0 0 612 504" width="612pt" xmlns="http://www.w3.org/2000/svg" xmlns:xlink="http://www.w3.org/1999/xlink">
 <defs>
  <style type="text/css">
*{stroke-linecap:butt;stroke-linejoin:round;}
  </style>
 </defs>
 <g id="figure_1">
  <g id="patch_1">
   <path d="M 0 504 
L 612 504 
L 612 0 
L 0 0 
z
" style="fill:#ffffff;"/>
  </g>
  <g id="axes_1">
   <g id="patch_2">
    <path d="M 76.5 448.56 
L 550.8 448.56 
L 550.8 60.48 
L 76.5 60.48 
z
" style="fill:#ffffff;"/>
   </g>
   <g id="matplotlib.axis_1">
    <g id="xtick_1">
     <g id="line2d_1">
      <path clip-path="url(#p5f2d89be96)" d="M 76.5 448.56 
L 76.5 60.48 
" style="fill:none;stroke:#b0b0b0;stroke-linecap:square;stroke-width:0.8;"/>
     </g>
     <g id="line2d_2">
      <defs>
       <path d="M 0 0 
L 0 3.5 
" id="m1ff4568a8f" style="stroke:#000000;stroke-width:0.8;"/>
      </defs>
      <g>
       <use style="stroke:#000000;stroke-width:0.8;" x="76.5" xlink:href="#m1ff4568a8f" y="448.56"/>
      </g>
     </g>
     <g id="text_1">
      <!-- 0.0 -->
      <defs>
       <path d="M 31.78125 66.40625 
Q 24.171875 66.40625 20.328125 58.90625 
Q 16.5 51.421875 16.5 36.375 
Q 16.5 21.390625 20.328125 13.890625 
Q 24.171875 6.390625 31.78125 6.390625 
Q 39.453125 6.390625 43.28125 13.890625 
Q 47.125 21.390625 47.125 36.375 
Q 47.125 51.421875 43.28125 58.90625 
Q 39.453125 66.40625 31.78125 66.40625 
z
M 31.78125 74.21875 
Q 44.046875 74.21875 50.515625 64.515625 
Q 56.984375 54.828125 56.984375 36.375 
Q 56.984375 17.96875 50.515625 8.265625 
Q 44.046875 -1.421875 31.78125 -1.421875 
Q 19.53125 -1.421875 13.0625 8.265625 
Q 6.59375 17.96875 6.59375 36.375 
Q 6.59375 54.828125 13.0625 64.515625 
Q 19.53125 74.21875 31.78125 74.21875 
z
" id="DejaVuSans-48"/>
       <path d="M 10.6875 12.40625 
L 21 12.40625 
L 21 0 
L 10.6875 0 
z
" id="DejaVuSans-46"/>
      </defs>
      <g transform="translate(68.548438 463.158437)scale(0.1 -0.1)">
       <use xlink:href="#DejaVuSans-48"/>
       <use x="63.623047" xlink:href="#DejaVuSans-46"/>
       <use x="95.410156" xlink:href="#DejaVuSans-48"/>
      </g>
     </g>
    </g>
    <g id="xtick_2">
     <g id="line2d_3">
      <path clip-path="url(#p5f2d89be96)" d="M 123.93 448.56 
L 123.93 60.48 
" style="fill:none;stroke:#b0b0b0;stroke-linecap:square;stroke-width:0.8;"/>
     </g>
     <g id="line2d_4">
      <g>
       <use style="stroke:#000000;stroke-width:0.8;" x="123.93" xlink:href="#m1ff4568a8f" y="448.56"/>
      </g>
     </g>
     <g id="text_2">
      <!-- 0.1 -->
      <defs>
       <path d="M 12.40625 8.296875 
L 28.515625 8.296875 
L 28.515625 63.921875 
L 10.984375 60.40625 
L 10.984375 69.390625 
L 28.421875 72.90625 
L 38.28125 72.90625 
L 38.28125 8.296875 
L 54.390625 8.296875 
L 54.390625 0 
L 12.40625 0 
z
" id="DejaVuSans-49"/>
      </defs>
      <g transform="translate(115.978438 463.158437)scale(0.1 -0.1)">
       <use xlink:href="#DejaVuSans-48"/>
       <use x="63.623047" xlink:href="#DejaVuSans-46"/>
       <use x="95.410156" xlink:href="#DejaVuSans-49"/>
      </g>
     </g>
    </g>
    <g id="xtick_3">
     <g id="line2d_5">
      <path clip-path="url(#p5f2d89be96)" d="M 171.36 448.56 
L 171.36 60.48 
" style="fill:none;stroke:#b0b0b0;stroke-linecap:square;stroke-width:0.8;"/>
     </g>
     <g id="line2d_6">
      <g>
       <use style="stroke:#000000;stroke-width:0.8;" x="171.36" xlink:href="#m1ff4568a8f" y="448.56"/>
      </g>
     </g>
     <g id="text_3">
      <!-- 0.2 -->
      <defs>
       <path d="M 19.1875 8.296875 
L 53.609375 8.296875 
L 53.609375 0 
L 7.328125 0 
L 7.328125 8.296875 
Q 12.9375 14.109375 22.625 23.890625 
Q 32.328125 33.6875 34.8125 36.53125 
Q 39.546875 41.84375 41.421875 45.53125 
Q 43.3125 49.21875 43.3125 52.78125 
Q 43.3125 58.59375 39.234375 62.25 
Q 35.15625 65.921875 28.609375 65.921875 
Q 23.96875 65.921875 18.8125 64.3125 
Q 13.671875 62.703125 7.8125 59.421875 
L 7.8125 69.390625 
Q 13.765625 71.78125 18.9375 73 
Q 24.125 74.21875 28.421875 74.21875 
Q 39.75 74.21875 46.484375 68.546875 
Q 53.21875 62.890625 53.21875 53.421875 
Q 53.21875 48.921875 51.53125 44.890625 
Q 49.859375 40.875 45.40625 35.40625 
Q 44.1875 33.984375 37.640625 27.21875 
Q 31.109375 20.453125 19.1875 8.296875 
z
" id="DejaVuSans-50"/>
      </defs>
      <g transform="translate(163.408438 463.158437)scale(0.1 -0.1)">
       <use xlink:href="#DejaVuSans-48"/>
       <use x="63.623047" xlink:href="#DejaVuSans-46"/>
       <use x="95.410156" xlink:href="#DejaVuSans-50"/>
      </g>
     </g>
    </g>
    <g id="xtick_4">
     <g id="line2d_7">
      <path clip-path="url(#p5f2d89be96)" d="M 218.79 448.56 
L 218.79 60.48 
" style="fill:none;stroke:#b0b0b0;stroke-linecap:square;stroke-width:0.8;"/>
     </g>
     <g id="line2d_8">
      <g>
       <use style="stroke:#000000;stroke-width:0.8;" x="218.79" xlink:href="#m1ff4568a8f" y="448.56"/>
      </g>
     </g>
     <g id="text_4">
      <!-- 0.3 -->
      <defs>
       <path d="M 40.578125 39.3125 
Q 47.65625 37.796875 51.625 33 
Q 55.609375 28.21875 55.609375 21.1875 
Q 55.609375 10.40625 48.1875 4.484375 
Q 40.765625 -1.421875 27.09375 -1.421875 
Q 22.515625 -1.421875 17.65625 -0.515625 
Q 12.796875 0.390625 7.625 2.203125 
L 7.625 11.71875 
Q 11.71875 9.328125 16.59375 8.109375 
Q 21.484375 6.890625 26.8125 6.890625 
Q 36.078125 6.890625 40.9375 10.546875 
Q 45.796875 14.203125 45.796875 21.1875 
Q 45.796875 27.640625 41.28125 31.265625 
Q 36.765625 34.90625 28.71875 34.90625 
L 20.21875 34.90625 
L 20.21875 43.015625 
L 29.109375 43.015625 
Q 36.375 43.015625 40.234375 45.921875 
Q 44.09375 48.828125 44.09375 54.296875 
Q 44.09375 59.90625 40.109375 62.90625 
Q 36.140625 65.921875 28.71875 65.921875 
Q 24.65625 65.921875 20.015625 65.03125 
Q 15.375 64.15625 9.8125 62.3125 
L 9.8125 71.09375 
Q 15.4375 72.65625 20.34375 73.4375 
Q 25.25 74.21875 29.59375 74.21875 
Q 40.828125 74.21875 47.359375 69.109375 
Q 53.90625 64.015625 53.90625 55.328125 
Q 53.90625 49.265625 50.4375 45.09375 
Q 46.96875 40.921875 40.578125 39.3125 
z
" id="DejaVuSans-51"/>
      </defs>
      <g transform="translate(210.838438 463.158437)scale(0.1 -0.1)">
       <use xlink:href="#DejaVuSans-48"/>
       <use x="63.623047" xlink:href="#DejaVuSans-46"/>
       <use x="95.410156" xlink:href="#DejaVuSans-51"/>
      </g>
     </g>
    </g>
    <g id="xtick_5">
     <g id="line2d_9">
      <path clip-path="url(#p5f2d89be96)" d="M 266.22 448.56 
L 266.22 60.48 
" style="fill:none;stroke:#b0b0b0;stroke-linecap:square;stroke-width:0.8;"/>
     </g>
     <g id="line2d_10">
      <g>
       <use style="stroke:#000000;stroke-width:0.8;" x="266.22" xlink:href="#m1ff4568a8f" y="448.56"/>
      </g>
     </g>
     <g id="text_5">
      <!-- 0.4 -->
      <defs>
       <path d="M 37.796875 64.3125 
L 12.890625 25.390625 
L 37.796875 25.390625 
z
M 35.203125 72.90625 
L 47.609375 72.90625 
L 47.609375 25.390625 
L 58.015625 25.390625 
L 58.015625 17.1875 
L 47.609375 17.1875 
L 47.609375 0 
L 37.796875 0 
L 37.796875 17.1875 
L 4.890625 17.1875 
L 4.890625 26.703125 
z
" id="DejaVuSans-52"/>
      </defs>
      <g transform="translate(258.268438 463.158437)scale(0.1 -0.1)">
       <use xlink:href="#DejaVuSans-48"/>
       <use x="63.623047" xlink:href="#DejaVuSans-46"/>
       <use x="95.410156" xlink:href="#DejaVuSans-52"/>
      </g>
     </g>
    </g>
    <g id="xtick_6">
     <g id="line2d_11">
      <path clip-path="url(#p5f2d89be96)" d="M 313.65 448.56 
L 313.65 60.48 
" style="fill:none;stroke:#b0b0b0;stroke-linecap:square;stroke-width:0.8;"/>
     </g>
     <g id="line2d_12">
      <g>
       <use style="stroke:#000000;stroke-width:0.8;" x="313.65" xlink:href="#m1ff4568a8f" y="448.56"/>
      </g>
     </g>
     <g id="text_6">
      <!-- 0.5 -->
      <defs>
       <path d="M 10.796875 72.90625 
L 49.515625 72.90625 
L 49.515625 64.59375 
L 19.828125 64.59375 
L 19.828125 46.734375 
Q 21.96875 47.46875 24.109375 47.828125 
Q 26.265625 48.1875 28.421875 48.1875 
Q 40.625 48.1875 47.75 41.5 
Q 54.890625 34.8125 54.890625 23.390625 
Q 54.890625 11.625 47.5625 5.09375 
Q 40.234375 -1.421875 26.90625 -1.421875 
Q 22.3125 -1.421875 17.546875 -0.640625 
Q 12.796875 0.140625 7.71875 1.703125 
L 7.71875 11.625 
Q 12.109375 9.234375 16.796875 8.0625 
Q 21.484375 6.890625 26.703125 6.890625 
Q 35.15625 6.890625 40.078125 11.328125 
Q 45.015625 15.765625 45.015625 23.390625 
Q 45.015625 31 40.078125 35.4375 
Q 35.15625 39.890625 26.703125 39.890625 
Q 22.75 39.890625 18.8125 39.015625 
Q 14.890625 38.140625 10.796875 36.28125 
z
" id="DejaVuSans-53"/>
      </defs>
      <g transform="translate(305.698438 463.158437)scale(0.1 -0.1)">
       <use xlink:href="#DejaVuSans-48"/>
       <use x="63.623047" xlink:href="#DejaVuSans-46"/>
       <use x="95.410156" xlink:href="#DejaVuSans-53"/>
      </g>
     </g>
    </g>
    <g id="xtick_7">
     <g id="line2d_13">
      <path clip-path="url(#p5f2d89be96)" d="M 361.08 448.56 
L 361.08 60.48 
" style="fill:none;stroke:#b0b0b0;stroke-linecap:square;stroke-width:0.8;"/>
     </g>
     <g id="line2d_14">
      <g>
       <use style="stroke:#000000;stroke-width:0.8;" x="361.08" xlink:href="#m1ff4568a8f" y="448.56"/>
      </g>
     </g>
     <g id="text_7">
      <!-- 0.6 -->
      <defs>
       <path d="M 33.015625 40.375 
Q 26.375 40.375 22.484375 35.828125 
Q 18.609375 31.296875 18.609375 23.390625 
Q 18.609375 15.53125 22.484375 10.953125 
Q 26.375 6.390625 33.015625 6.390625 
Q 39.65625 6.390625 43.53125 10.953125 
Q 47.40625 15.53125 47.40625 23.390625 
Q 47.40625 31.296875 43.53125 35.828125 
Q 39.65625 40.375 33.015625 40.375 
z
M 52.59375 71.296875 
L 52.59375 62.3125 
Q 48.875 64.0625 45.09375 64.984375 
Q 41.3125 65.921875 37.59375 65.921875 
Q 27.828125 65.921875 22.671875 59.328125 
Q 17.53125 52.734375 16.796875 39.40625 
Q 19.671875 43.65625 24.015625 45.921875 
Q 28.375 48.1875 33.59375 48.1875 
Q 44.578125 48.1875 50.953125 41.515625 
Q 57.328125 34.859375 57.328125 23.390625 
Q 57.328125 12.15625 50.6875 5.359375 
Q 44.046875 -1.421875 33.015625 -1.421875 
Q 20.359375 -1.421875 13.671875 8.265625 
Q 6.984375 17.96875 6.984375 36.375 
Q 6.984375 53.65625 15.1875 63.9375 
Q 23.390625 74.21875 37.203125 74.21875 
Q 40.921875 74.21875 44.703125 73.484375 
Q 48.484375 72.75 52.59375 71.296875 
z
" id="DejaVuSans-54"/>
      </defs>
      <g transform="translate(353.128438 463.158437)scale(0.1 -0.1)">
       <use xlink:href="#DejaVuSans-48"/>
       <use x="63.623047" xlink:href="#DejaVuSans-46"/>
       <use x="95.410156" xlink:href="#DejaVuSans-54"/>
      </g>
     </g>
    </g>
    <g id="xtick_8">
     <g id="line2d_15">
      <path clip-path="url(#p5f2d89be96)" d="M 408.51 448.56 
L 408.51 60.48 
" style="fill:none;stroke:#b0b0b0;stroke-linecap:square;stroke-width:0.8;"/>
     </g>
     <g id="line2d_16">
      <g>
       <use style="stroke:#000000;stroke-width:0.8;" x="408.51" xlink:href="#m1ff4568a8f" y="448.56"/>
      </g>
     </g>
     <g id="text_8">
      <!-- 0.7 -->
      <defs>
       <path d="M 8.203125 72.90625 
L 55.078125 72.90625 
L 55.078125 68.703125 
L 28.609375 0 
L 18.3125 0 
L 43.21875 64.59375 
L 8.203125 64.59375 
z
" id="DejaVuSans-55"/>
      </defs>
      <g transform="translate(400.558438 463.158437)scale(0.1 -0.1)">
       <use xlink:href="#DejaVuSans-48"/>
       <use x="63.623047" xlink:href="#DejaVuSans-46"/>
       <use x="95.410156" xlink:href="#DejaVuSans-55"/>
      </g>
     </g>
    </g>
    <g id="xtick_9">
     <g id="line2d_17">
      <path clip-path="url(#p5f2d89be96)" d="M 455.94 448.56 
L 455.94 60.48 
" style="fill:none;stroke:#b0b0b0;stroke-linecap:square;stroke-width:0.8;"/>
     </g>
     <g id="line2d_18">
      <g>
       <use style="stroke:#000000;stroke-width:0.8;" x="455.94" xlink:href="#m1ff4568a8f" y="448.56"/>
      </g>
     </g>
     <g id="text_9">
      <!-- 0.8 -->
      <defs>
       <path d="M 31.78125 34.625 
Q 24.75 34.625 20.71875 30.859375 
Q 16.703125 27.09375 16.703125 20.515625 
Q 16.703125 13.921875 20.71875 10.15625 
Q 24.75 6.390625 31.78125 6.390625 
Q 38.8125 6.390625 42.859375 10.171875 
Q 46.921875 13.96875 46.921875 20.515625 
Q 46.921875 27.09375 42.890625 30.859375 
Q 38.875 34.625 31.78125 34.625 
z
M 21.921875 38.8125 
Q 15.578125 40.375 12.03125 44.71875 
Q 8.5 49.078125 8.5 55.328125 
Q 8.5 64.0625 14.71875 69.140625 
Q 20.953125 74.21875 31.78125 74.21875 
Q 42.671875 74.21875 48.875 69.140625 
Q 55.078125 64.0625 55.078125 55.328125 
Q 55.078125 49.078125 51.53125 44.71875 
Q 48 40.375 41.703125 38.8125 
Q 48.828125 37.15625 52.796875 32.3125 
Q 56.78125 27.484375 56.78125 20.515625 
Q 56.78125 9.90625 50.3125 4.234375 
Q 43.84375 -1.421875 31.78125 -1.421875 
Q 19.734375 -1.421875 13.25 4.234375 
Q 6.78125 9.90625 6.78125 20.515625 
Q 6.78125 27.484375 10.78125 32.3125 
Q 14.796875 37.15625 21.921875 38.8125 
z
M 18.3125 54.390625 
Q 18.3125 48.734375 21.84375 45.5625 
Q 25.390625 42.390625 31.78125 42.390625 
Q 38.140625 42.390625 41.71875 45.5625 
Q 45.3125 48.734375 45.3125 54.390625 
Q 45.3125 60.0625 41.71875 63.234375 
Q 38.140625 66.40625 31.78125 66.40625 
Q 25.390625 66.40625 21.84375 63.234375 
Q 18.3125 60.0625 18.3125 54.390625 
z
" id="DejaVuSans-56"/>
      </defs>
      <g transform="translate(447.988438 463.158437)scale(0.1 -0.1)">
       <use xlink:href="#DejaVuSans-48"/>
       <use x="63.623047" xlink:href="#DejaVuSans-46"/>
       <use x="95.410156" xlink:href="#DejaVuSans-56"/>
      </g>
     </g>
    </g>
    <g id="xtick_10">
     <g id="line2d_19">
      <path clip-path="url(#p5f2d89be96)" d="M 503.37 448.56 
L 503.37 60.48 
" style="fill:none;stroke:#b0b0b0;stroke-linecap:square;stroke-width:0.8;"/>
     </g>
     <g id="line2d_20">
      <g>
       <use style="stroke:#000000;stroke-width:0.8;" x="503.37" xlink:href="#m1ff4568a8f" y="448.56"/>
      </g>
     </g>
     <g id="text_10">
      <!-- 0.9 -->
      <defs>
       <path d="M 10.984375 1.515625 
L 10.984375 10.5 
Q 14.703125 8.734375 18.5 7.8125 
Q 22.3125 6.890625 25.984375 6.890625 
Q 35.75 6.890625 40.890625 13.453125 
Q 46.046875 20.015625 46.78125 33.40625 
Q 43.953125 29.203125 39.59375 26.953125 
Q 35.25 24.703125 29.984375 24.703125 
Q 19.046875 24.703125 12.671875 31.3125 
Q 6.296875 37.9375 6.296875 49.421875 
Q 6.296875 60.640625 12.9375 67.421875 
Q 19.578125 74.21875 30.609375 74.21875 
Q 43.265625 74.21875 49.921875 64.515625 
Q 56.59375 54.828125 56.59375 36.375 
Q 56.59375 19.140625 48.40625 8.859375 
Q 40.234375 -1.421875 26.421875 -1.421875 
Q 22.703125 -1.421875 18.890625 -0.6875 
Q 15.09375 0.046875 10.984375 1.515625 
z
M 30.609375 32.421875 
Q 37.25 32.421875 41.125 36.953125 
Q 45.015625 41.5 45.015625 49.421875 
Q 45.015625 57.28125 41.125 61.84375 
Q 37.25 66.40625 30.609375 66.40625 
Q 23.96875 66.40625 20.09375 61.84375 
Q 16.21875 57.28125 16.21875 49.421875 
Q 16.21875 41.5 20.09375 36.953125 
Q 23.96875 32.421875 30.609375 32.421875 
z
" id="DejaVuSans-57"/>
      </defs>
      <g transform="translate(495.418438 463.158437)scale(0.1 -0.1)">
       <use xlink:href="#DejaVuSans-48"/>
       <use x="63.623047" xlink:href="#DejaVuSans-46"/>
       <use x="95.410156" xlink:href="#DejaVuSans-57"/>
      </g>
     </g>
    </g>
    <g id="xtick_11">
     <g id="line2d_21">
      <path clip-path="url(#p5f2d89be96)" d="M 550.8 448.56 
L 550.8 60.48 
" style="fill:none;stroke:#b0b0b0;stroke-linecap:square;stroke-width:0.8;"/>
     </g>
     <g id="line2d_22">
      <g>
       <use style="stroke:#000000;stroke-width:0.8;" x="550.8" xlink:href="#m1ff4568a8f" y="448.56"/>
      </g>
     </g>
     <g id="text_11">
      <!-- 1.0 -->
      <g transform="translate(542.848438 463.158437)scale(0.1 -0.1)">
       <use xlink:href="#DejaVuSans-49"/>
       <use x="63.623047" xlink:href="#DejaVuSans-46"/>
       <use x="95.410156" xlink:href="#DejaVuSans-48"/>
      </g>
     </g>
    </g>
    <g id="text_12">
     <!-- 1-precision -->
     <defs>
      <path d="M 4.890625 31.390625 
L 31.203125 31.390625 
L 31.203125 23.390625 
L 4.890625 23.390625 
z
" id="DejaVuSans-45"/>
      <path d="M 18.109375 8.203125 
L 18.109375 -20.796875 
L 9.078125 -20.796875 
L 9.078125 54.6875 
L 18.109375 54.6875 
L 18.109375 46.390625 
Q 20.953125 51.265625 25.265625 53.625 
Q 29.59375 56 35.59375 56 
Q 45.5625 56 51.78125 48.09375 
Q 58.015625 40.1875 58.015625 27.296875 
Q 58.015625 14.40625 51.78125 6.484375 
Q 45.5625 -1.421875 35.59375 -1.421875 
Q 29.59375 -1.421875 25.265625 0.953125 
Q 20.953125 3.328125 18.109375 8.203125 
z
M 48.6875 27.296875 
Q 48.6875 37.203125 44.609375 42.84375 
Q 40.53125 48.484375 33.40625 48.484375 
Q 26.265625 48.484375 22.1875 42.84375 
Q 18.109375 37.203125 18.109375 27.296875 
Q 18.109375 17.390625 22.1875 11.75 
Q 26.265625 6.109375 33.40625 6.109375 
Q 40.53125 6.109375 44.609375 11.75 
Q 48.6875 17.390625 48.6875 27.296875 
z
" id="DejaVuSans-112"/>
      <path d="M 41.109375 46.296875 
Q 39.59375 47.171875 37.8125 47.578125 
Q 36.03125 48 33.890625 48 
Q 26.265625 48 22.1875 43.046875 
Q 18.109375 38.09375 18.109375 28.8125 
L 18.109375 0 
L 9.078125 0 
L 9.078125 54.6875 
L 18.109375 54.6875 
L 18.109375 46.1875 
Q 20.953125 51.171875 25.484375 53.578125 
Q 30.03125 56 36.53125 56 
Q 37.453125 56 38.578125 55.875 
Q 39.703125 55.765625 41.0625 55.515625 
z
" id="DejaVuSans-114"/>
      <path d="M 56.203125 29.59375 
L 56.203125 25.203125 
L 14.890625 25.203125 
Q 15.484375 15.921875 20.484375 11.0625 
Q 25.484375 6.203125 34.421875 6.203125 
Q 39.59375 6.203125 44.453125 7.46875 
Q 49.3125 8.734375 54.109375 11.28125 
L 54.109375 2.78125 
Q 49.265625 0.734375 44.1875 -0.34375 
Q 39.109375 -1.421875 33.890625 -1.421875 
Q 20.796875 -1.421875 13.15625 6.1875 
Q 5.515625 13.8125 5.515625 26.8125 
Q 5.515625 40.234375 12.765625 48.109375 
Q 20.015625 56 32.328125 56 
Q 43.359375 56 49.78125 48.890625 
Q 56.203125 41.796875 56.203125 29.59375 
z
M 47.21875 32.234375 
Q 47.125 39.59375 43.09375 43.984375 
Q 39.0625 48.390625 32.421875 48.390625 
Q 24.90625 48.390625 20.390625 44.140625 
Q 15.875 39.890625 15.1875 32.171875 
z
" id="DejaVuSans-101"/>
      <path d="M 48.78125 52.59375 
L 48.78125 44.1875 
Q 44.96875 46.296875 41.140625 47.34375 
Q 37.3125 48.390625 33.40625 48.390625 
Q 24.65625 48.390625 19.8125 42.84375 
Q 14.984375 37.3125 14.984375 27.296875 
Q 14.984375 17.28125 19.8125 11.734375 
Q 24.65625 6.203125 33.40625 6.203125 
Q 37.3125 6.203125 41.140625 7.25 
Q 44.96875 8.296875 48.78125 10.40625 
L 48.78125 2.09375 
Q 45.015625 0.34375 40.984375 -0.53125 
Q 36.96875 -1.421875 32.421875 -1.421875 
Q 20.0625 -1.421875 12.78125 6.34375 
Q 5.515625 14.109375 5.515625 27.296875 
Q 5.515625 40.671875 12.859375 48.328125 
Q 20.21875 56 33.015625 56 
Q 37.15625 56 41.109375 55.140625 
Q 45.0625 54.296875 48.78125 52.59375 
z
" id="DejaVuSans-99"/>
      <path d="M 9.421875 54.6875 
L 18.40625 54.6875 
L 18.40625 0 
L 9.421875 0 
z
M 9.421875 75.984375 
L 18.40625 75.984375 
L 18.40625 64.59375 
L 9.421875 64.59375 
z
" id="DejaVuSans-105"/>
      <path d="M 44.28125 53.078125 
L 44.28125 44.578125 
Q 40.484375 46.53125 36.375 47.5 
Q 32.28125 48.484375 27.875 48.484375 
Q 21.1875 48.484375 17.84375 46.4375 
Q 14.5 44.390625 14.5 40.28125 
Q 14.5 37.15625 16.890625 35.375 
Q 19.28125 33.59375 26.515625 31.984375 
L 29.59375 31.296875 
Q 39.15625 29.25 43.1875 25.515625 
Q 47.21875 21.78125 47.21875 15.09375 
Q 47.21875 7.46875 41.1875 3.015625 
Q 35.15625 -1.421875 24.609375 -1.421875 
Q 20.21875 -1.421875 15.453125 -0.5625 
Q 10.6875 0.296875 5.421875 2 
L 5.421875 11.28125 
Q 10.40625 8.6875 15.234375 7.390625 
Q 20.0625 6.109375 24.8125 6.109375 
Q 31.15625 6.109375 34.5625 8.28125 
Q 37.984375 10.453125 37.984375 14.40625 
Q 37.984375 18.0625 35.515625 20.015625 
Q 33.0625 21.96875 24.703125 23.78125 
L 21.578125 24.515625 
Q 13.234375 26.265625 9.515625 29.90625 
Q 5.8125 33.546875 5.8125 39.890625 
Q 5.8125 47.609375 11.28125 51.796875 
Q 16.75 56 26.8125 56 
Q 31.78125 56 36.171875 55.265625 
Q 40.578125 54.546875 44.28125 53.078125 
z
" id="DejaVuSans-115"/>
      <path d="M 30.609375 48.390625 
Q 23.390625 48.390625 19.1875 42.75 
Q 14.984375 37.109375 14.984375 27.296875 
Q 14.984375 17.484375 19.15625 11.84375 
Q 23.34375 6.203125 30.609375 6.203125 
Q 37.796875 6.203125 41.984375 11.859375 
Q 46.1875 17.53125 46.1875 27.296875 
Q 46.1875 37.015625 41.984375 42.703125 
Q 37.796875 48.390625 30.609375 48.390625 
z
M 30.609375 56 
Q 42.328125 56 49.015625 48.375 
Q 55.71875 40.765625 55.71875 27.296875 
Q 55.71875 13.875 49.015625 6.21875 
Q 42.328125 -1.421875 30.609375 -1.421875 
Q 18.84375 -1.421875 12.171875 6.21875 
Q 5.515625 13.875 5.515625 27.296875 
Q 5.515625 40.765625 12.171875 48.375 
Q 18.84375 56 30.609375 56 
z
" id="DejaVuSans-111"/>
      <path d="M 54.890625 33.015625 
L 54.890625 0 
L 45.90625 0 
L 45.90625 32.71875 
Q 45.90625 40.484375 42.875 44.328125 
Q 39.84375 48.1875 33.796875 48.1875 
Q 26.515625 48.1875 22.3125 43.546875 
Q 18.109375 38.921875 18.109375 30.90625 
L 18.109375 0 
L 9.078125 0 
L 9.078125 54.6875 
L 18.109375 54.6875 
L 18.109375 46.1875 
Q 21.34375 51.125 25.703125 53.5625 
Q 30.078125 56 35.796875 56 
Q 45.21875 56 50.046875 50.171875 
Q 54.890625 44.34375 54.890625 33.015625 
z
" id="DejaVuSans-110"/>
     </defs>
     <g transform="translate(286.110938 476.836563)scale(0.1 -0.1)">
      <use xlink:href="#DejaVuSans-49"/>
      <use x="63.623047" xlink:href="#DejaVuSans-45"/>
      <use x="99.707031" xlink:href="#DejaVuSans-112"/>
      <use x="163.183594" xlink:href="#DejaVuSans-114"/>
      <use x="202.046875" xlink:href="#DejaVuSans-101"/>
      <use x="263.570312" xlink:href="#DejaVuSans-99"/>
      <use x="318.550781" xlink:href="#DejaVuSans-105"/>
      <use x="346.333984" xlink:href="#DejaVuSans-115"/>
      <use x="398.433594" xlink:href="#DejaVuSans-105"/>
      <use x="426.216797" xlink:href="#DejaVuSans-111"/>
      <use x="487.398438" xlink:href="#DejaVuSans-110"/>
     </g>
    </g>
   </g>
   <g id="matplotlib.axis_2">
    <g id="ytick_1">
     <g id="line2d_23">
      <path clip-path="url(#p5f2d89be96)" d="M 76.5 448.56 
L 550.8 448.56 
" style="fill:none;stroke:#b0b0b0;stroke-linecap:square;stroke-width:0.8;"/>
     </g>
     <g id="line2d_24">
      <defs>
       <path d="M 0 0 
L -3.5 0 
" id="m58bc20d3b9" style="stroke:#000000;stroke-width:0.8;"/>
      </defs>
      <g>
       <use style="stroke:#000000;stroke-width:0.8;" x="76.5" xlink:href="#m58bc20d3b9" y="448.56"/>
      </g>
     </g>
     <g id="text_13">
      <!-- 0.0 -->
      <g transform="translate(53.596875 452.359219)scale(0.1 -0.1)">
       <use xlink:href="#DejaVuSans-48"/>
       <use x="63.623047" xlink:href="#DejaVuSans-46"/>
       <use x="95.410156" xlink:href="#DejaVuSans-48"/>
      </g>
     </g>
    </g>
    <g id="ytick_2">
     <g id="line2d_25">
      <path clip-path="url(#p5f2d89be96)" d="M 76.5 409.752 
L 550.8 409.752 
" style="fill:none;stroke:#b0b0b0;stroke-linecap:square;stroke-width:0.8;"/>
     </g>
     <g id="line2d_26">
      <g>
       <use style="stroke:#000000;stroke-width:0.8;" x="76.5" xlink:href="#m58bc20d3b9" y="409.752"/>
      </g>
     </g>
     <g id="text_14">
      <!-- 0.1 -->
      <g transform="translate(53.596875 413.551219)scale(0.1 -0.1)">
       <use xlink:href="#DejaVuSans-48"/>
       <use x="63.623047" xlink:href="#DejaVuSans-46"/>
       <use x="95.410156" xlink:href="#DejaVuSans-49"/>
      </g>
     </g>
    </g>
    <g id="ytick_3">
     <g id="line2d_27">
      <path clip-path="url(#p5f2d89be96)" d="M 76.5 370.944 
L 550.8 370.944 
" style="fill:none;stroke:#b0b0b0;stroke-linecap:square;stroke-width:0.8;"/>
     </g>
     <g id="line2d_28">
      <g>
       <use style="stroke:#000000;stroke-width:0.8;" x="76.5" xlink:href="#m58bc20d3b9" y="370.944"/>
      </g>
     </g>
     <g id="text_15">
      <!-- 0.2 -->
      <g transform="translate(53.596875 374.743219)scale(0.1 -0.1)">
       <use xlink:href="#DejaVuSans-48"/>
       <use x="63.623047" xlink:href="#DejaVuSans-46"/>
       <use x="95.410156" xlink:href="#DejaVuSans-50"/>
      </g>
     </g>
    </g>
    <g id="ytick_4">
     <g id="line2d_29">
      <path clip-path="url(#p5f2d89be96)" d="M 76.5 332.136 
L 550.8 332.136 
" style="fill:none;stroke:#b0b0b0;stroke-linecap:square;stroke-width:0.8;"/>
     </g>
     <g id="line2d_30">
      <g>
       <use style="stroke:#000000;stroke-width:0.8;" x="76.5" xlink:href="#m58bc20d3b9" y="332.136"/>
      </g>
     </g>
     <g id="text_16">
      <!-- 0.3 -->
      <g transform="translate(53.596875 335.935219)scale(0.1 -0.1)">
       <use xlink:href="#DejaVuSans-48"/>
       <use x="63.623047" xlink:href="#DejaVuSans-46"/>
       <use x="95.410156" xlink:href="#DejaVuSans-51"/>
      </g>
     </g>
    </g>
    <g id="ytick_5">
     <g id="line2d_31">
      <path clip-path="url(#p5f2d89be96)" d="M 76.5 293.328 
L 550.8 293.328 
" style="fill:none;stroke:#b0b0b0;stroke-linecap:square;stroke-width:0.8;"/>
     </g>
     <g id="line2d_32">
      <g>
       <use style="stroke:#000000;stroke-width:0.8;" x="76.5" xlink:href="#m58bc20d3b9" y="293.328"/>
      </g>
     </g>
     <g id="text_17">
      <!-- 0.4 -->
      <g transform="translate(53.596875 297.127219)scale(0.1 -0.1)">
       <use xlink:href="#DejaVuSans-48"/>
       <use x="63.623047" xlink:href="#DejaVuSans-46"/>
       <use x="95.410156" xlink:href="#DejaVuSans-52"/>
      </g>
     </g>
    </g>
    <g id="ytick_6">
     <g id="line2d_33">
      <path clip-path="url(#p5f2d89be96)" d="M 76.5 254.52 
L 550.8 254.52 
" style="fill:none;stroke:#b0b0b0;stroke-linecap:square;stroke-width:0.8;"/>
     </g>
     <g id="line2d_34">
      <g>
       <use style="stroke:#000000;stroke-width:0.8;" x="76.5" xlink:href="#m58bc20d3b9" y="254.52"/>
      </g>
     </g>
     <g id="text_18">
      <!-- 0.5 -->
      <g transform="translate(53.596875 258.319219)scale(0.1 -0.1)">
       <use xlink:href="#DejaVuSans-48"/>
       <use x="63.623047" xlink:href="#DejaVuSans-46"/>
       <use x="95.410156" xlink:href="#DejaVuSans-53"/>
      </g>
     </g>
    </g>
    <g id="ytick_7">
     <g id="line2d_35">
      <path clip-path="url(#p5f2d89be96)" d="M 76.5 215.712 
L 550.8 215.712 
" style="fill:none;stroke:#b0b0b0;stroke-linecap:square;stroke-width:0.8;"/>
     </g>
     <g id="line2d_36">
      <g>
       <use style="stroke:#000000;stroke-width:0.8;" x="76.5" xlink:href="#m58bc20d3b9" y="215.712"/>
      </g>
     </g>
     <g id="text_19">
      <!-- 0.6 -->
      <g transform="translate(53.596875 219.511219)scale(0.1 -0.1)">
       <use xlink:href="#DejaVuSans-48"/>
       <use x="63.623047" xlink:href="#DejaVuSans-46"/>
       <use x="95.410156" xlink:href="#DejaVuSans-54"/>
      </g>
     </g>
    </g>
    <g id="ytick_8">
     <g id="line2d_37">
      <path clip-path="url(#p5f2d89be96)" d="M 76.5 176.904 
L 550.8 176.904 
" style="fill:none;stroke:#b0b0b0;stroke-linecap:square;stroke-width:0.8;"/>
     </g>
     <g id="line2d_38">
      <g>
       <use style="stroke:#000000;stroke-width:0.8;" x="76.5" xlink:href="#m58bc20d3b9" y="176.904"/>
      </g>
     </g>
     <g id="text_20">
      <!-- 0.7 -->
      <g transform="translate(53.596875 180.703219)scale(0.1 -0.1)">
       <use xlink:href="#DejaVuSans-48"/>
       <use x="63.623047" xlink:href="#DejaVuSans-46"/>
       <use x="95.410156" xlink:href="#DejaVuSans-55"/>
      </g>
     </g>
    </g>
    <g id="ytick_9">
     <g id="line2d_39">
      <path clip-path="url(#p5f2d89be96)" d="M 76.5 138.096 
L 550.8 138.096 
" style="fill:none;stroke:#b0b0b0;stroke-linecap:square;stroke-width:0.8;"/>
     </g>
     <g id="line2d_40">
      <g>
       <use style="stroke:#000000;stroke-width:0.8;" x="76.5" xlink:href="#m58bc20d3b9" y="138.096"/>
      </g>
     </g>
     <g id="text_21">
      <!-- 0.8 -->
      <g transform="translate(53.596875 141.895219)scale(0.1 -0.1)">
       <use xlink:href="#DejaVuSans-48"/>
       <use x="63.623047" xlink:href="#DejaVuSans-46"/>
       <use x="95.410156" xlink:href="#DejaVuSans-56"/>
      </g>
     </g>
    </g>
    <g id="ytick_10">
     <g id="line2d_41">
      <path clip-path="url(#p5f2d89be96)" d="M 76.5 99.288 
L 550.8 99.288 
" style="fill:none;stroke:#b0b0b0;stroke-linecap:square;stroke-width:0.8;"/>
     </g>
     <g id="line2d_42">
      <g>
       <use style="stroke:#000000;stroke-width:0.8;" x="76.5" xlink:href="#m58bc20d3b9" y="99.288"/>
      </g>
     </g>
     <g id="text_22">
      <!-- 0.9 -->
      <g transform="translate(53.596875 103.087219)scale(0.1 -0.1)">
       <use xlink:href="#DejaVuSans-48"/>
       <use x="63.623047" xlink:href="#DejaVuSans-46"/>
       <use x="95.410156" xlink:href="#DejaVuSans-57"/>
      </g>
     </g>
    </g>
    <g id="ytick_11">
     <g id="line2d_43">
      <path clip-path="url(#p5f2d89be96)" d="M 76.5 60.48 
L 550.8 60.48 
" style="fill:none;stroke:#b0b0b0;stroke-linecap:square;stroke-width:0.8;"/>
     </g>
     <g id="line2d_44">
      <g>
       <use style="stroke:#000000;stroke-width:0.8;" x="76.5" xlink:href="#m58bc20d3b9" y="60.48"/>
      </g>
     </g>
     <g id="text_23">
      <!-- 1.0 -->
      <g transform="translate(53.596875 64.279219)scale(0.1 -0.1)">
       <use xlink:href="#DejaVuSans-49"/>
       <use x="63.623047" xlink:href="#DejaVuSans-46"/>
       <use x="95.410156" xlink:href="#DejaVuSans-48"/>
      </g>
     </g>
    </g>
    <g id="text_24">
     <!-- #correct/618 -->
     <defs>
      <path d="M 51.125 44 
L 36.921875 44 
L 32.8125 27.6875 
L 47.125 27.6875 
z
M 43.796875 71.78125 
L 38.71875 51.515625 
L 52.984375 51.515625 
L 58.109375 71.78125 
L 65.921875 71.78125 
L 60.890625 51.515625 
L 76.125 51.515625 
L 76.125 44 
L 58.984375 44 
L 54.984375 27.6875 
L 70.515625 27.6875 
L 70.515625 20.21875 
L 53.078125 20.21875 
L 48 0 
L 40.1875 0 
L 45.21875 20.21875 
L 30.90625 20.21875 
L 25.875 0 
L 18.015625 0 
L 23.09375 20.21875 
L 7.71875 20.21875 
L 7.71875 27.6875 
L 24.90625 27.6875 
L 29 44 
L 13.28125 44 
L 13.28125 51.515625 
L 30.90625 51.515625 
L 35.890625 71.78125 
z
" id="DejaVuSans-35"/>
      <path d="M 18.3125 70.21875 
L 18.3125 54.6875 
L 36.8125 54.6875 
L 36.8125 47.703125 
L 18.3125 47.703125 
L 18.3125 18.015625 
Q 18.3125 11.328125 20.140625 9.421875 
Q 21.96875 7.515625 27.59375 7.515625 
L 36.8125 7.515625 
L 36.8125 0 
L 27.59375 0 
Q 17.1875 0 13.234375 3.875 
Q 9.28125 7.765625 9.28125 18.015625 
L 9.28125 47.703125 
L 2.6875 47.703125 
L 2.6875 54.6875 
L 9.28125 54.6875 
L 9.28125 70.21875 
z
" id="DejaVuSans-116"/>
      <path d="M 25.390625 72.90625 
L 33.6875 72.90625 
L 8.296875 -9.28125 
L 0 -9.28125 
z
" id="DejaVuSans-47"/>
     </defs>
     <g transform="translate(47.517187 287.443438)rotate(-90)scale(0.1 -0.1)">
      <use xlink:href="#DejaVuSans-35"/>
      <use x="83.789062" xlink:href="#DejaVuSans-99"/>
      <use x="138.769531" xlink:href="#DejaVuSans-111"/>
      <use x="199.951172" xlink:href="#DejaVuSans-114"/>
      <use x="239.314453" xlink:href="#DejaVuSans-114"/>
      <use x="278.177734" xlink:href="#DejaVuSans-101"/>
      <use x="339.701172" xlink:href="#DejaVuSans-99"/>
      <use x="394.681641" xlink:href="#DejaVuSans-116"/>
      <use x="433.890625" xlink:href="#DejaVuSans-47"/>
      <use x="467.582031" xlink:href="#DejaVuSans-54"/>
      <use x="531.205078" xlink:href="#DejaVuSans-49"/>
      <use x="594.828125" xlink:href="#DejaVuSans-56"/>
     </g>
    </g>
   </g>
   <g id="line2d_45">
    <path clip-path="url(#p5f2d89be96)" d="M 550.8 448.56 
L 313.65 447.932039 
L 234.6 447.304078 
L 313.65 447.304078 
L 266.22 446.676117 
L 313.65 446.676117 
L 279.771429 446.048155 
L 361.08 446.048155 
L 335.209091 445.420194 
L 411.3 445.420194 
L 392.7 444.792233 
L 455.94 444.792233 
L 443.7 444.164272 
L 447.046875 444.164272 
L 435.818182 443.536311 
L 474.912 443.536311 
L 459.588462 442.280388 
L 494.335714 442.280388 
L 489.42 441.652427 
L 490.133721 441.652427 
L 493.467033 441.652427 
L 488.934783 441.024466 
L 489.6 441.024466 
L 492.123711 441.024466 
L 487.882653 440.396505 
L 488.518182 440.396505 
L 489.751485 440.396505 
L 485.7 439.768544 
L 486.332039 439.768544 
L 488.742056 439.768544 
L 484.925 439.140583 
L 485.529358 439.140583 
L 487.839823 439.140583 
L 484.231579 438.512621 
L 484.810435 438.512621 
L 490.571429 438.512621 
L 487.311024 437.88466 
L 487.807031 437.88466 
L 495.573288 437.88466 
L 492.722449 437.256699 
L 493.114865 437.256699 
L 499.36988 437.256699 
L 496.837725 436.628738 
L 497.158929 436.628738 
L 499.597159 436.628738 
L 497.20678 436.000777 
L 497.507865 436.000777 
L 498.39116 436.000777 
L 496.073077 435.372816 
L 496.372131 435.372816 
L 496.667935 435.372816 
L 494.396757 434.744854 
L 494.7 434.744854 
L 495.590476 434.744854 
L 493.384737 434.116893 
L 493.68534 434.116893 
L 497.585854 434.116893 
L 495.541748 433.488932 
L 495.808696 433.488932 
L 499.058182 433.488932 
L 497.146154 432.860971 
L 497.387838 432.860971 
L 501.187029 432.860971 
L 499.4175 432.23301 
L 499.630705 432.23301 
L 503.911027 432.23301 
L 500.873684 430.977087 
L 501.246269 430.977087 
L 499.667286 430.349126 
L 499.856667 430.349126 
L 501.5 430.349126 
L 499.982143 429.721165 
L 500.162989 429.721165 
L 501.39375 429.721165 
L 497.197603 427.837282 
L 498.627 427.837282 
L 497.224585 427.20932 
L 497.401987 427.20932 
L 497.578218 427.20932 
L 496.193092 426.581359 
L 496.372131 426.581359 
L 496.902273 426.581359 
L 495.541748 425.953398 
L 495.72 425.953398 
L 497.607477 425.953398 
L 496.299689 425.325437 
L 496.468421 425.325437 
L 496.802769 425.325437 
L 494.23211 424.069515 
L 494.404573 424.069515 
L 498.398584 424.069515 
L 497.20678 423.441553 
L 497.357746 423.441553 
L 499.524324 423.441553 
L 498.384097 422.813592 
L 498.525 422.813592 
L 499.218302 422.813592 
L 498.1 422.185631 
L 498.23905 422.185631 
L 499.058182 422.185631 
L 496.874419 420.929709 
L 497.013402 420.929709 
L 498.496241 420.929709 
L 497.44125 420.301748 
L 497.574314 420.301748 
L 500.697887 420.301748 
L 499.70445 419.673786 
L 499.823832 419.673786 
L 502.637086 419.673786 
L 500.763956 418.417864 
L 500.873684 418.417864 
L 501.307826 418.417864 
L 500.386334 417.789903 
L 500.495455 417.789903 
L 501.140385 417.789903 
L 498.435669 415.906019 
L 498.54661 415.906019 
L 498.985714 415.906019 
L 497.329854 414.650097 
L 497.772671 414.650097 
L 496.902273 414.022136 
L 497.013402 414.022136 
L 497.670672 414.022136 
L 496.814634 413.394175 
L 496.924138 413.394175 
L 497.033198 413.394175 
L 496.183636 412.766214 
L 496.29375 412.766214 
L 496.512651 412.766214 
L 495.670942 412.138252 
L 495.7812 412.138252 
L 497.175439 412.138252 
L 496.357004 411.510291 
L 496.462718 411.510291 
L 497.800568 411.510291 
L 497.004159 410.88233 
L 497.10566 410.88233 
L 497.40788 410.88233 
L 495.93694 409.626408 
L 496.039106 409.626408 
L 493.813863 407.742524 
L 494.335714 407.742524 
L 493.571846 407.114563 
L 493.676277 407.114563 
L 494.396757 407.114563 
L 492.15 405.23068 
L 492.254919 405.23068 
L 492.67087 405.23068 
L 491.932979 404.602718 
L 492.037168 404.602718 
L 492.756294 404.602718 
L 492.029843 403.974757 
L 492.13223 403.974757 
L 493.235385 403.974757 
L 492.524232 403.346796 
L 492.623509 403.346796 
L 493.017259 403.346796 
L 492.313682 402.718835 
L 492.41231 402.718835 
L 492.900502 402.718835 
L 492.205342 402.090874 
L 492.303 402.090874 
L 492.786446 402.090874 
L 492.099505 401.462913 
L 492.196211 401.462913 
L 492.292599 401.462913 
L 490.929344 400.20699 
L 491.027332 400.20699 
L 491.319381 400.20699 
L 490.071151 398.951068 
L 490.752404 398.951068 
L 490.0896 398.323107 
L 490.186581 398.323107 
L 491.045669 398.323107 
L 490.393868 397.695146 
L 490.488697 397.695146 
L 490.677465 397.695146 
L 490.030313 397.067184 
L 490.125117 397.067184 
L 492.577545 397.067184 
L 491.955605 396.439223 
L 492.043433 396.439223 
L 492.478667 396.439223 
L 491.249778 395.183301 
L 491.337611 395.183301 
L 491.686364 395.183301 
L 491.078477 394.55534 
L 491.165789 394.55534 
L 491.94026 394.55534 
L 491.341643 393.927379 
L 491.427194 393.927379 
L 492.269362 393.927379 
L 491.680453 393.299417 
L 491.764074 393.299417 
L 492.587448 393.299417 
L 492.007939 392.671456 
L 492.089708 392.671456 
L 492.735763 392.671456 
L 492.164011 392.043495 
L 492.244444 392.043495 
L 492.404651 392.043495 
L 491.836475 391.415534 
L 491.916917 391.415534 
L 492.315854 391.415534 
L 491.75318 390.787573 
L 491.832973 390.787573 
L 491.912551 390.787573 
L 491.352695 390.159612 
L 491.432705 390.159612 
L 492.376291 390.159612 
L 491.277543 388.903689 
L 491.356069 388.903689 
L 491.434387 388.903689 
L 490.888421 388.275728 
L 490.967148 388.275728 
L 491.202094 388.275728 
L 490.66 387.647767 
L 490.738512 387.647767 
L 492.042529 387.647767 
L 491.5125 387.019806 
L 491.588025 387.019806 
L 491.888213 387.019806 
L 491.362405 386.391845 
L 491.437547 386.391845 
L 492.83 386.391845 
L 492.316646 385.763883 
L 492.38867 385.763883 
L 492.532187 385.763883 
L 492.021718 385.135922 
L 492.09375 385.135922 
L 493.703099 385.135922 
L 492.848754 383.88 
L 493.460915 383.88 
L 492.972098 383.252039 
L 493.107368 383.252039 
L 493.376019 383.252039 
L 492.891279 382.624078 
L 493.025638 382.624078 
L 493.092584 382.624078 
L 491.717647 380.740194 
L 491.785714 380.740194 
L 491.921379 380.740194 
L 491.444432 380.112233 
L 491.580412 380.112233 
L 491.715771 380.112233 
L 491.241781 379.484272 
L 491.377449 379.484272 
L 491.445051 379.484272 
L 490.973523 378.856311 
L 491.109184 378.856311 
L 491.44566 378.856311 
L 490.978378 378.22835 
L 491.112809 378.22835 
L 491.446257 378.22835 
L 490.983147 377.600388 
L 491.11637 377.600388 
L 491.249 377.600388 
L 490.788679 376.972427 
L 490.921595 376.972427 
L 491.119868 376.972427 
L 490.662734 376.344466 
L 490.79505 376.344466 
L 490.926784 376.344466 
L 490.085449 375.088544 
L 490.151803 375.088544 
L 490.218013 375.088544 
L 489.766848 374.460583 
L 489.899674 374.460583 
L 489.96587 374.460583 
L 489.516938 373.832621 
L 489.649729 373.832621 
L 490.240236 373.832621 
L 489.796785 373.20466 
L 489.927273 373.20466 
L 489.992308 373.20466 
L 489.110661 371.948738 
L 489.241915 371.948738 
L 489.437752 371.948738 
L 488.56381 370.692816 
L 488.695248 370.692816 
L 488.760759 370.692816 
L 488.326344 370.064854 
L 488.457729 370.064854 
L 488.913257 370.064854 
L 488.483212 369.436893 
L 488.612903 369.436893 
L 488.998759 369.436893 
L 488.572624 368.808932 
L 488.700928 368.808932 
L 488.764882 368.808932 
L 488.340741 368.180971 
L 488.468994 368.180971 
L 488.532923 368.180971 
L 487.818386 366.925049 
L 488.010794 366.925049 
L 487.17439 365.669126 
L 487.303448 365.669126 
L 487.496057 365.669126 
L 486.73125 364.413204 
L 486.79577 364.413204 
L 486.988554 364.413204 
L 486.57683 363.785243 
L 486.705405 363.785243 
L 486.897305 363.785243 
L 485.736978 361.901359 
L 485.801589 361.901359 
L 486.377362 361.901359 
L 485.974336 361.273398 
L 486.10157 361.273398 
L 486.228306 361.273398 
L 485.827397 360.645437 
L 485.954297 360.645437 
L 486.767213 360.645437 
L 486.371965 360.017476 
L 486.495865 360.017476 
L 486.864723 360.017476 
L 486.472779 359.389515 
L 486.595424 359.389515 
L 486.717602 359.389515 
L 486.327662 358.761553 
L 486.45 358.761553 
L 486.571875 358.761553 
L 485.858074 357.505631 
L 485.91934 357.505631 
L 486.645616 357.505631 
L 486.263374 356.87767 
L 486.383442 356.87767 
L 486.503064 356.87767 
L 486.122727 356.249709 
L 486.2425 356.249709 
L 486.54 356.249709 
L 485.845313 354.993786 
L 485.904959 354.993786 
L 486.201554 354.993786 
L 485.827397 354.365825 
L 485.945852 354.365825 
L 486.063876 354.365825 
L 485.691545 353.737864 
L 485.80971 353.737864 
L 486.567444 353.737864 
L 486.2 353.109903 
L 486.315564 353.109903 
L 486.602671 353.109903 
L 485.625798 351.226019 
L 486.141689 351.226019 
L 485.781722 350.598058 
L 485.895789 350.598058 
L 486.179214 350.598058 
L 485.464865 349.342136 
L 485.57859 349.342136 
L 485.635304 349.342136 
L 484.685455 347.458252 
L 484.799741 347.458252 
L 484.44715 346.830291 
L 484.561552 346.830291 
L 484.618605 346.830291 
L 484.267384 346.20233 
L 484.381701 346.20233 
L 484.495626 346.20233 
L 483.85432 344.946408 
L 483.911538 344.946408 
L 484.309346 344.946408 
L 483.329721 343.062524 
L 483.386802 343.062524 
L 483.500676 343.062524 
L 482.814334 341.806602 
L 482.928788 341.806602 
L 483.099748 341.806602 
L 482.758641 341.178641 
L 482.872613 341.178641 
L 483.21225 341.178641 
L 482.873605 340.55068 
L 482.986534 340.55068 
L 483.042857 340.55068 
L 482.146154 338.666796 
L 482.372547 338.666796 
L 482.038221 338.038835 
L 482.151316 338.038835 
L 482.711256 338.038835 
L 482.380196 337.410874 
L 482.491538 337.410874 
L 482.823401 337.410874 
L 482.49466 336.782913 
L 482.605008 336.782913 
L 483.313669 336.782913 
L 482.988738 336.154951 
L 483.09689 336.154951 
L 483.738626 336.154951 
L 483.417206 335.52699 
L 483.523404 335.52699 
L 483.84 335.52699 
L 483.520768 334.899029 
L 483.626056 334.899029 
L 484.302479 334.899029 
L 483.986842 334.271068 
L 484.090108 334.271068 
L 484.703063 334.271068 
L 484.390742 333.643107 
L 484.492208 333.643107 
L 486.314933 333.643107 
L 486.01069 333.015146 
L 486.106746 333.015146 
L 487.65152 333.015146 
L 487.35423 332.387184 
L 487.445848 332.387184 
L 487.719123 332.387184 
L 487.128715 331.131262 
L 487.22 331.131262 
L 487.717425 331.131262 
L 487.42516 330.503301 
L 487.515117 330.503301 
L 487.694268 330.503301 
L 487.403465 329.87534 
L 487.493008 329.87534 
L 487.62685 329.87534 
L 487.337324 329.247379 
L 487.426582 329.247379 
L 488.693177 329.247379 
L 488.409298 328.619417 
L 488.495117 328.619417 
L 489.21516 328.619417 
L 488.934783 327.991456 
L 489.018725 327.991456 
L 489.227586 327.991456 
L 488.948716 327.363495 
L 489.032186 327.363495 
L 489.239879 327.363495 
L 488.9625 326.735534 
L 489.045503 326.735534 
L 490.304142 326.735534 
L 489.880734 325.479612 
L 489.960471 325.479612 
L 489.690059 324.85165 
L 489.809726 324.85165 
L 489.889244 324.85165 
L 489.350977 323.595728 
L 489.47076 323.595728 
L 489.510584 323.595728 
L 488.787961 321.711845 
L 490.084791 321.711845 
L 489.822863 321.083883 
L 489.938496 321.083883 
L 490.091992 321.083883 
L 489.609629 319.827961 
L 489.686549 319.827961 
L 489.724937 319.827961 
L 489.322167 318.572039 
L 489.399062 318.572039 
L 489.141 317.944078 
L 489.256394 317.944078 
L 489.409583 317.944078 
L 488.973184 316.688155 
L 489.011538 316.688155 
L 489.581192 316.688155 
L 489.327457 316.060194 
L 489.440527 316.060194 
L 489.515677 316.060194 
L 489.262913 315.432233 
L 489.375687 315.432233 
L 489.450641 315.432233 
L 489.022642 314.176311 
L 489.060219 314.176311 
L 489.39637 314.176311 
L 489.146735 313.54835 
L 489.258358 313.54835 
L 489.810467 313.54835 
L 489.353373 312.292427 
L 489.426655 312.292427 
L 489.609096 312.292427 
L 489.118468 311.036505 
L 489.228156 311.036505 
L 489.482586 311.036505 
L 489.238938 310.408544 
L 489.347703 310.408544 
L 489.383873 310.408544 
L 489.141 309.780583 
L 489.249618 309.780583 
L 489.644632 309.780583 
L 489.234866 308.52466 
L 489.270681 308.52466 
L 489.555704 308.52466 
L 489.316667 307.896699 
L 489.423224 307.896699 
L 489.635233 307.896699 
L 489.397526 307.268738 
L 489.503331 307.268738 
L 489.64384 307.268738 
L 489.407216 306.640777 
L 489.512521 306.640777 
L 489.582524 306.640777 
L 489.216629 305.384854 
L 489.944401 305.384854 
L 489.711867 304.756893 
L 489.814767 304.756893 
L 490.324109 304.756893 
L 490.093823 304.128932 
L 490.195 304.128932 
L 490.463164 304.128932 
L 490.234328 303.500971 
L 490.334603 303.500971 
L 490.467786 303.500971 
L 490.239956 302.87301 
L 490.33978 302.87301 
L 490.439276 302.87301 
L 490.212336 302.245049 
L 490.311823 302.245049 
L 490.377966 302.245049 
L 490.151803 301.617087 
L 490.251064 301.617087 
L 491.06577 301.617087 
L 490.842765 300.989126 
L 490.939366 300.989126 
L 491.386087 300.989126 
L 490.944249 299.733204 
L 491.039713 299.733204 
L 491.166525 299.733204 
L 490.94666 299.105243 
L 491.041715 299.105243 
L 492.82188 299.105243 
L 492.608162 298.477282 
L 492.697642 298.477282 
L 493.836332 298.477282 
L 493.474875 297.221359 
L 493.532315 297.221359 
L 493.58964 297.221359 
L 493.201349 295.965437 
L 493.287575 295.965437 
L 493.771351 295.965437 
L 493.564985 295.337476 
L 493.677986 295.337476 
L 493.762445 295.337476 
L 493.379823 294.081553 
L 493.464472 294.081553 
L 494.324782 294.081553 
L 493.920696 292.825631 
L 494.030502 292.825631 
L 494.492484 292.825631 
L 494.092683 291.569709 
L 494.200955 291.569709 
L 494.416262 291.569709 
L 494.217633 290.941748 
L 494.325 290.941748 
L 496.290247 290.941748 
L 496.098124 290.313786 
L 496.198081 290.313786 
L 496.618858 290.313786 
L 496.4285 289.685825 
L 496.526866 289.685825 
L 498.05367 289.685825 
L 497.776545 288.429903 
L 498.122953 288.429903 
L 497.939399 287.801942 
L 498.054214 287.801942 
L 498.777378 287.801942 
L 498.596531 287.173981 
L 498.708077 287.173981 
L 499.648049 287.173981 
L 499.470554 286.546019 
L 499.577982 286.546019 
L 499.770225 286.546019 
L 499.593789 285.918058 
L 499.700291 285.918058 
L 499.975134 285.918058 
L 499.8 285.290097 
L 499.905241 285.290097 
L 499.989122 285.290097 
L 499.814703 284.662136 
L 499.919482 284.662136 
L 500.313744 284.662136 
L 500.14097 284.034175 
L 500.24402 284.034175 
L 500.326158 284.034175 
L 500.15408 283.406214 
L 500.256686 283.406214 
L 500.662982 283.406214 
L 500.423447 282.150291 
L 500.483947 282.150291 
L 500.14476 280.894369 
L 500.245868 280.894369 
L 500.685991 280.894369 
L 500.518196 280.266408 
L 500.61745 280.266408 
L 501.282119 280.266408 
L 501.116706 279.638447 
L 501.213253 279.638447 
L 502.269494 279.638447 
L 502.107605 279.010485 
L 502.218437 279.010485 
L 502.872979 279.010485 
L 502.66209 277.754563 
L 503.335099 277.754563 
L 503.178117 277.126602 
L 503.282972 277.126602 
L 503.456709 277.126602 
L 503.300658 276.498641 
L 503.404595 276.498641 
L 503.968216 276.498641 
L 503.814229 275.87068 
L 503.915564 275.87068 
L 503.966068 275.87068 
L 503.812635 275.242718 
L 503.91361 275.242718 
L 504.21395 275.242718 
L 504.061793 274.614757 
L 504.161342 274.614757 
L 504.539049 274.614757 
L 504.388384 273.986796 
L 504.502458 273.986796 
L 506.118401 273.986796 
L 505.972866 273.358835 
L 506.078912 273.358835 
L 506.453586 273.358835 
L 506.309548 272.730874 
L 506.413636 272.730874 
L 506.737624 272.730874 
L 506.594925 272.102913 
L 506.69732 272.102913 
L 507.583949 272.102913 
L 507.374927 270.84699 
L 507.417033 270.84699 
L 507.998055 270.84699 
L 507.736763 269.591068 
L 507.832581 269.591068 
L 508.14443 269.591068 
L 507.91276 268.335146 
L 507.980214 268.335146 
L 507.993679 268.335146 
L 507.72247 267.079223 
L 507.830502 267.079223 
L 507.91117 267.079223 
L 507.776228 266.451262 
L 507.883619 266.451262 
L 507.897006 266.451262 
L 507.762488 265.823301 
L 507.86958 265.823301 
L 508.134992 265.823301 
L 508.001607 265.19534 
L 508.107152 265.19534 
L 508.575732 265.19534 
L 508.444041 264.567379 
L 508.547066 264.567379 
L 509.167316 264.567379 
L 509.037736 263.939417 
L 509.15 263.939417 
L 509.261662 263.939417 
L 509.132787 263.311456 
L 509.244164 263.311456 
L 509.586892 263.311456 
L 509.459364 262.683495 
L 509.568634 262.683495 
L 509.857218 262.683495 
L 509.730875 262.055534 
L 509.838354 262.055534 
L 512.385192 262.055534 
L 512.385192 262.055534 
" style="fill:none;stroke:#1f77b4;stroke-linecap:square;stroke-width:2;"/>
   </g>
   <g id="line2d_46">
    <path clip-path="url(#p5f2d89be96)" d="M 550.8 448.56 
L 541.120408 447.932039 
L 542.761017 447.932039 
L 544.719231 447.932039 
L 533.656627 446.676117 
L 533.860714 446.676117 
L 538.638462 446.676117 
L 531.361475 445.420194 
L 535.694904 445.420194 
L 532.788608 444.792233 
L 533.233333 444.792233 
L 533.552727 444.792233 
L 530.799398 444.164272 
L 531.27 444.164272 
L 533.139894 444.164272 
L 530.72381 443.536311 
L 531.139896 443.536311 
L 536.85 443.536311 
L 535.163736 442.90835 
L 535.444964 442.90835 
L 536.758224 442.90835 
L 532.320779 441.024466 
L 532.499035 441.024466 
L 533.178947 441.024466 
L 531.769444 440.396505 
L 532.001524 440.396505 
L 533.081897 440.396505 
L 530.472857 439.140583 
L 530.702542 439.140583 
L 530.759155 439.140583 
L 529.483146 438.512621 
L 529.72 438.512621 
L 530.28973 438.512621 
L 529.066577 437.88466 
L 529.2984 437.88466 
L 529.802344 437.88466 
L 528.624935 437.256699 
L 528.852956 437.256699 
L 529.403008 437.256699 
L 528.27075 436.628738 
L 528.493812 436.628738 
L 528.548889 436.628738 
L 526.447188 435.372816 
L 526.506585 435.372816 
L 526.624515 435.372816 
L 525.534625 434.744854 
L 525.716827 434.744854 
L 526.645833 434.744854 
L 524.751487 433.488932 
L 527.085 433.488932 
L 526.148233 432.860971 
L 526.301033 432.860971 
L 526.60102 432.860971 
L 525.684318 432.23301 
L 525.836842 432.23301 
L 527.4 432.23301 
L 526.546023 431.605049 
L 526.728383 431.605049 
L 527.085 431.605049 
L 525.469061 430.349126 
L 525.562018 430.349126 
L 525.927125 430.349126 
L 525.115884 429.721165 
L 525.254219 429.721165 
L 525.345617 429.721165 
L 524.544107 429.093204 
L 524.684014 429.093204 
L 525.004737 429.093204 
L 522.754435 427.20932 
L 522.803125 427.20932 
L 522.851646 427.20932 
L 521.461856 425.953398 
L 522.198995 425.953398 
L 521.453679 425.325437 
L 521.600166 425.325437 
L 521.745199 425.325437 
L 521.009256 424.697476 
L 521.15625 424.697476 
L 521.3018 424.697476 
L 520.575 424.069515 
L 520.722439 424.069515 
L 521.391892 424.069515 
L 520.685714 423.441553 
L 520.828436 423.441553 
L 521.657143 423.441553 
L 520.974387 422.813592 
L 521.110992 422.813592 
L 521.947923 422.813592 
L 521.288 422.185631 
L 521.418584 422.185631 
L 521.505 422.185631 
L 520.244802 420.929709 
L 520.334015 420.929709 
L 520.46686 420.929709 
L 519.822496 420.301748 
L 519.956792 420.301748 
L 520.134052 420.301748 
L 519.497561 419.673786 
L 519.631714 419.673786 
L 519.720513 419.673786 
L 518.507234 418.417864 
L 518.598586 418.417864 
L 518.914286 418.417864 
L 518.295524 417.789903 
L 518.431337 417.789903 
L 519.136921 417.789903 
L 518.534694 417.161942 
L 518.665854 417.161942 
L 519.305976 417.161942 
L 518.219287 415.906019 
L 518.262269 415.906019 
L 518.976 415.906019 
L 518.405799 415.278058 
L 518.530552 415.278058 
L 518.571923 415.278058 
L 518.00589 414.650097 
L 518.131378 414.650097 
L 518.214504 414.650097 
L 517.65324 414.022136 
L 517.779114 414.022136 
L 517.945466 414.022136 
L 517.390189 413.394175 
L 517.515789 413.394175 
L 517.723039 413.394175 
L 517.174254 412.766214 
L 517.299257 412.766214 
L 517.830366 412.766214 
L 516.839199 411.510291 
L 516.880364 411.510291 
L 518.486259 411.510291 
L 517.976471 410.88233 
L 518.089655 410.88233 
L 518.49807 410.88233 
L 517.996939 410.254369 
L 518.108136 410.254369 
L 518.328283 410.254369 
L 517.376174 408.998447 
L 517.450781 408.998447 
L 517.99989 408.998447 
L 517.515789 408.370485 
L 517.624918 408.370485 
L 517.769314 408.370485 
L 517.289674 407.742524 
L 517.398592 407.742524 
L 517.43474 407.742524 
L 516.958054 407.114563 
L 517.067457 407.114563 
L 518.089655 407.114563 
L 517.168717 405.858641 
L 517.273597 405.858641 
L 517.377824 405.858641 
L 516.11895 403.974757 
L 516.989458 403.974757 
L 516.547643 403.346796 
L 516.6504 403.346796 
L 516.752542 403.346796 
L 516.314044 402.718835 
L 516.416783 402.718835 
L 516.58666 402.718835 
L 515.822124 401.462913 
L 516.162707 401.462913 
L 515.735019 400.834951 
L 515.837051 400.834951 
L 516.338432 400.834951 
L 515.918338 400.20699 
L 516.051094 400.20699 
L 516.952827 400.20699 
L 516.545 399.579029 
L 516.671402 399.579029 
L 516.702857 399.579029 
L 515.957025 398.323107 
L 516.020898 398.323107 
L 516.084538 398.323107 
L 515.682724 397.695146 
L 515.810656 397.695146 
L 515.937659 397.695146 
L 515.539257 397.067184 
L 515.666667 397.067184 
L 516.862304 397.067184 
L 516.478378 396.439223 
L 516.597654 396.439223 
L 516.921429 396.439223 
L 516.542734 395.811262 
L 516.660154 395.811262 
L 516.863714 395.811262 
L 516.232373 394.55534 
L 516.551637 394.55534 
L 515.872469 393.299417 
L 515.930827 393.299417 
L 516.191045 393.299417 
L 515.492308 392.043495 
L 515.579703 392.043495 
L 515.724404 392.043495 
L 515.12085 390.787573 
L 515.208157 390.787573 
L 514.850611 390.159612 
L 514.967425 390.159612 
L 515.054538 390.159612 
L 514.699433 389.53165 
L 514.815981 389.53165 
L 515.046832 389.53165 
L 514.695433 388.903689 
L 514.810783 388.903689 
L 515.039286 388.903689 
L 514.691515 388.275728 
L 514.805692 388.275728 
L 514.947402 388.275728 
L 514.602439 387.647767 
L 514.716 387.647767 
L 514.800704 387.647767 
L 514.173089 386.391845 
L 514.23014 386.391845 
L 514.735714 386.391845 
L 514.399386 385.763883 
L 514.510788 385.763883 
L 514.84094 385.763883 
L 514.508864 385.135922 
L 514.618505 385.135922 
L 514.997085 385.135922 
L 514.669604 384.507961 
L 514.777215 384.507961 
L 515.253637 384.507961 
L 514.931498 383.88 
L 515.03653 383.88 
L 515.72972 383.88 
L 515.414634 383.252039 
L 515.51588 383.252039 
L 516.32956 383.252039 
L 516.022416 382.624078 
L 516.143424 382.624078 
L 516.191591 382.624078 
L 515.654501 381.368155 
L 515.703112 381.368155 
L 515.727367 381.368155 
L 515.424033 380.740194 
L 515.545767 380.740194 
L 515.690747 380.740194 
L 515.389932 380.112233 
L 515.510785 380.112233 
L 515.77378 380.112233 
L 515.476371 379.484272 
L 515.595547 379.484272 
L 515.784564 379.484272 
L 515.48994 378.856311 
L 515.607955 378.856311 
L 515.864831 378.856311 
L 515.376404 377.600388 
L 515.399802 377.600388 
L 515.861343 377.600388 
L 515.575114 376.972427 
L 515.689481 376.972427 
L 516.005792 376.972427 
L 515.508916 375.716505 
L 515.554132 375.716505 
L 515.644217 375.716505 
L 515.363793 375.088544 
L 515.476575 375.088544 
L 515.499046 375.088544 
L 515.219962 374.460583 
L 515.3327 374.460583 
L 515.798499 374.460583 
L 515.523938 373.832621 
L 515.633832 373.832621 
L 516.066646 373.832621 
L 515.612814 372.576699 
L 515.634375 372.576699 
L 515.677417 372.576699 
L 514.916412 370.692816 
L 514.981973 370.692816 
L 515.069016 370.692816 
L 514.802732 370.064854 
L 514.911683 370.064854 
L 514.933394 370.064854 
L 514.403565 368.808932 
L 514.513193 368.808932 
L 514.902443 368.808932 
L 514.467043 367.55301 
L 514.488605 367.55301 
L 514.766608 367.55301 
L 514.508652 366.925049 
L 514.615141 366.925049 
L 514.657562 366.925049 
L 514.400879 366.297087 
L 514.507185 366.297087 
L 514.633935 366.297087 
L 514.379058 365.669126 
L 514.484687 365.669126 
L 514.505739 365.669126 
L 513.852222 363.785243 
L 514.085264 363.785243 
L 513.669086 362.52932 
L 513.690291 362.52932 
L 513.963776 362.52932 
L 513.510577 361.273398 
L 513.573744 361.273398 
L 513.594752 361.273398 
L 513.348223 360.645437 
L 513.453543 360.645437 
L 513.495506 360.645437 
L 512.824132 358.761553 
L 512.866611 358.761553 
L 512.908994 358.761553 
L 512.665327 358.133592 
L 512.771492 358.133592 
L 512.834908 358.133592 
L 512.5925 357.505631 
L 512.698338 357.505631 
L 512.866464 357.505631 
L 512.427903 356.249709 
L 512.491154 356.249709 
L 512.512191 356.249709 
L 512.272887 355.621748 
L 512.378325 355.621748 
L 512.441311 355.621748 
L 512.071094 354.365825 
L 512.092165 354.365825 
L 511.855302 353.737864 
L 511.9609 353.737864 
L 512.044968 353.737864 
L 511.637615 352.481942 
L 511.679838 352.481942 
L 511.785 352.481942 
L 511.551102 351.853981 
L 511.65627 351.853981 
L 511.864925 351.853981 
L 511.632978 351.226019 
L 511.737035 351.226019 
L 511.840541 351.226019 
L 511.609958 350.598058 
L 511.713471 350.598058 
L 511.898423 350.598058 
L 511.669627 349.970097 
L 511.77217 349.970097 
L 512.116831 349.970097 
L 511.664712 348.714175 
L 511.765994 348.714175 
L 511.866753 348.714175 
L 511.642105 348.086214 
L 511.742872 348.086214 
L 512.160489 348.086214 
L 511.938779 347.458252 
L 512.037411 347.458252 
L 512.523158 347.458252 
L 512.304709 346.830291 
L 512.42008 346.830291 
L 513.061002 346.830291 
L 512.846686 346.20233 
L 512.95815 346.20233 
L 513.06896 346.20233 
L 512.856 345.574369 
L 512.966732 345.574369 
L 513.021855 345.574369 
L 512.809951 344.946408 
L 512.920281 344.946408 
L 512.993478 344.946408 
L 512.263125 342.434563 
L 512.373969 342.434563 
L 512.049259 341.178641 
L 512.067765 341.178641 
L 512.488569 341.178641 
L 512.28272 340.55068 
L 512.391525 340.55068 
L 512.802981 340.55068 
L 512.59986 339.922718 
L 512.706267 339.922718 
L 512.917313 339.922718 
L 512.219531 337.410874 
L 512.605687 337.410874 
L 512.407367 336.782913 
L 512.511837 336.782913 
L 512.650249 336.782913 
L 512.343243 335.52699 
L 512.360558 335.52699 
L 513.745313 335.52699 
L 513.555618 334.899029 
L 513.668382 334.899029 
L 513.684436 334.899029 
L 513.495506 334.271068 
L 513.608014 334.271068 
L 513.640034 334.271068 
L 513.451936 333.643107 
L 513.564093 333.643107 
L 513.62788 333.643107 
L 513.440753 333.015146 
L 513.552369 333.015146 
L 513.805002 333.015146 
L 513.619703 332.387184 
L 513.729658 332.387184 
L 513.760954 332.387184 
L 513.576456 331.759223 
L 513.686075 331.759223 
L 513.717276 331.759223 
L 513.094142 329.247379 
L 513.760543 329.247379 
L 513.5086 327.991456 
L 513.523864 327.991456 
L 513.197139 326.735534 
L 513.273817 326.735534 
L 513.441413 326.735534 
L 513.264083 326.107573 
L 513.370417 326.107573 
L 513.446002 326.107573 
L 513.2696 325.479612 
L 513.375362 325.479612 
L 513.540361 325.479612 
L 513.365264 324.85165 
L 513.469956 324.85165 
L 513.677592 324.85165 
L 513.503971 324.223689 
L 513.607366 324.223689 
L 514.130184 324.223689 
L 513.860748 322.967767 
L 513.889494 322.967767 
L 514.230995 322.967767 
L 513.978862 321.711845 
L 514.007143 321.711845 
L 514.063574 321.711845 
L 513.89586 321.083883 
L 514.008674 321.083883 
L 514.092833 321.083883 
L 513.691834 319.2 
L 513.705923 319.2 
L 513.748123 319.2 
L 513.582373 318.572039 
L 513.694898 318.572039 
L 513.862415 318.572039 
L 513.697932 317.944078 
L 513.809224 317.944078 
L 513.961165 317.944078 
L 513.690089 316.688155 
L 513.745313 316.688155 
L 513.82784 316.688155 
L 513.665566 316.060194 
L 513.775472 316.060194 
L 513.925534 316.060194 
L 513.76442 315.432233 
L 513.873228 315.432233 
L 514.102336 315.432233 
L 513.783151 314.176311 
L 513.890836 314.176311 
L 514.433035 314.176311 
L 513.91188 311.664466 
L 514.147253 311.664466 
L 513.837194 310.408544 
L 513.941646 310.408544 
L 513.980663 310.408544 
L 513.583638 308.52466 
L 513.622882 308.52466 
L 513.648999 308.52466 
L 513.495506 307.896699 
L 513.6 307.896699 
L 513.742728 307.896699 
L 513.437923 306.640777 
L 513.541814 306.640777 
L 513.709412 306.640777 
L 513.558181 306.012816 
L 513.660952 306.012816 
L 514.241053 306.012816 
L 513.943977 304.756893 
L 514.056191 304.756893 
L 514.167723 304.756893 
L 514.020162 304.128932 
L 514.131429 304.128932 
L 514.14375 304.128932 
L 513.996742 303.500971 
L 514.107669 303.500971 
L 514.205711 303.500971 
L 513.829247 301.617087 
L 513.878443 301.617087 
L 513.939754 301.617087 
L 513.72322 300.361165 
L 513.760026 300.361165 
L 514.184102 300.361165 
L 514.040974 299.733204 
L 514.148843 299.733204 
L 514.42165 299.733204 
L 514.209393 298.477282 
L 514.244792 298.477282 
L 514.641244 298.477282 
L 514.501531 297.84932 
L 514.605405 297.84932 
L 516.084538 297.84932 
L 515.950518 297.221359 
L 516.056444 297.221359 
L 516.235047 297.221359 
L 516.102116 296.593398 
L 516.206691 296.593398 
L 516.393345 296.593398 
L 516.261522 295.965437 
L 516.375 295.965437 
L 517.421807 295.965437 
L 517.294152 295.337476 
L 517.400519 295.337476 
L 517.77226 295.337476 
L 517.646362 294.709515 
L 517.759483 294.709515 
L 517.955596 294.709515 
L 517.830856 294.081553 
L 517.94227 294.081553 
L 518.981674 294.081553 
L 518.981674 294.081553 
" style="fill:none;stroke:#ff7f0e;stroke-linecap:square;stroke-width:2;"/>
   </g>
   <g id="line2d_47">
    <path clip-path="url(#p5f2d89be96)" d="M 550.8 448.56 
L 392.7 447.932039 
L 432.225 447.932039 
L 361.08 447.304078 
L 415.285714 447.304078 
L 372.9375 446.676117 
L 340 446.048155 
L 424.32 446.048155 
L 402.58125 445.420194 
L 419.05 445.420194 
L 401.021053 444.792233 
L 441.346154 444.792233 
L 427.833333 444.164272 
L 463.428947 444.164272 
L 444.0825 442.90835 
L 451.527907 442.90835 
L 443.004545 442.280388 
L 449.885106 442.280388 
L 442.10625 441.652427 
L 444.32449 441.652427 
L 436.968 441.024466 
L 439.2 441.024466 
L 432.225 440.396505 
L 436.616667 440.396505 
L 423.755357 439.140583 
L 441.346154 439.140583 
L 435.818182 438.512621 
L 439.2 438.512621 
L 433.943478 437.88466 
L 440.346575 437.88466 
L 430.644 436.628738 
L 435.265385 436.628738 
L 430.724051 436.000777 
L 435.117073 436.000777 
L 426.578571 434.744854 
L 428.04 434.744854 
L 423.952326 434.116893 
L 425.410345 434.116893 
L 421.445455 433.488932 
L 422.898876 433.488932 
L 415.285714 432.23301 
L 423.668041 432.23301 
L 416.654545 430.977087 
L 419.310891 430.977087 
L 415.95 430.349126 
L 419.802857 430.349126 
L 416.564151 429.721165 
L 428.136207 429.721165 
L 425.130769 429.093204 
L 426.195763 429.093204 
L 423.257143 428.465243 
L 427.404878 428.465243 
L 424.575 427.837282 
L 429.467442 427.837282 
L 426.752308 427.20932 
L 427.699237 427.20932 
L 422.418045 425.953398 
L 424.32 425.953398 
L 421.7625 425.325437 
L 423.632609 425.325437 
L 421.135252 424.697476 
L 430.644 424.697476 
L 423.7 422.813592 
L 425.34 422.813592 
L 423.103846 422.185631 
L 427.069565 422.185631 
L 424.905556 421.55767 
L 429.401786 421.55767 
L 425.25 420.301748 
L 425.984211 420.301748 
L 423.952326 419.673786 
L 424.685549 419.673786 
L 422.684483 419.045825 
L 428.315934 419.045825 
L 426.393443 418.417864 
L 428.4 418.417864 
L 426.518182 417.789903 
L 430.381865 417.789903 
L 428.557732 417.161942 
L 429.184615 417.161942 
L 425.604061 415.906019 
L 426.236364 415.906019 
L 424.478894 415.278058 
L 425.735821 415.278058 
L 424.006931 414.650097 
L 426.468932 414.650097 
L 424.778261 414.022136 
L 425.384135 414.022136 
L 423.714833 413.394175 
L 426.101408 413.394175 
L 424.467757 412.766214 
L 426.214286 412.766214 
L 424.610092 412.138252 
L 426.883784 412.138252 
L 425.312556 411.510291 
L 426.978319 411.510291 
L 425.434361 410.88233 
L 426.529258 410.88233 
L 425.007391 410.254369 
L 425.551948 410.254369 
L 424.047414 409.626408 
L 425.665532 409.626408 
L 424.186017 408.998447 
L 427.833333 408.998447 
L 426.393443 408.370485 
L 429.862948 408.370485 
L 427.069565 407.114563 
L 431.774144 407.114563 
L 430.428409 406.486602 
L 433.96875 406.486602 
L 432.659341 405.858641 
L 433.943478 405.858641 
L 432.653069 405.23068 
L 433.078058 405.23068 
L 430.531071 403.974757 
L 431.806007 403.974757 
L 429.312632 402.718835 
L 431.817526 402.718835 
L 430.600685 402.090874 
L 433.020805 402.090874 
L 431.828428 401.462913 
L 432.225 401.462913 
L 431.043189 400.834951 
L 434.143689 400.834951 
L 432.99 400.20699 
L 439.114679 400.20699 
L 436.910334 398.951068 
L 437.598489 398.951068 
L 436.510843 398.323107 
L 436.854054 398.323107 
L 435.77515 397.695146 
L 437.805 397.695146 
L 436.745455 397.067184 
L 437.410496 397.067184 
L 434.281214 395.183301 
L 437.235211 395.183301 
L 436.22191 394.55534 
L 438.431405 394.55534 
L 437.437088 393.927379 
L 437.747671 393.927379 
L 436.760656 393.299417 
L 437.07139 393.299417 
L 435.117073 392.043495 
L 436.968 392.043495 
L 436.009309 391.415534 
L 437.217632 391.415534 
L 435.329058 390.159612 
L 437.114691 390.159612 
L 436.187661 389.53165 
L 438.213636 389.53165 
L 437.302519 388.903689 
L 438.15375 388.903689 
L 436.354478 387.647767 
L 437.48202 387.647767 
L 436.595086 387.019806 
L 439.865871 387.019806 
L 437.282701 385.135922 
L 437.551064 385.135922 
L 436.699528 384.507961 
L 437.765888 384.507961 
L 436.923776 383.88 
L 437.452204 383.88 
L 436.616667 383.252039 
L 437.142857 383.252039 
L 436.313793 382.624078 
L 436.837757 382.624078 
L 436.015068 381.996117 
L 436.276538 381.996117 
L 435.458864 381.368155 
L 435.720408 381.368155 
L 434.907692 380.740194 
L 435.1693 380.740194 
L 434.361486 380.112233 
L 434.623146 380.112233 
L 433.820179 379.484272 
L 434.86 379.484272 
L 434.06541 378.856311 
L 435.345395 378.856311 
L 433.778384 377.600388 
L 434.033333 377.600388 
L 433.256087 376.972427 
L 434.017711 376.972427 
L 433.247198 376.344466 
L 434.747872 376.344466 
L 433.229873 375.088544 
L 433.478436 375.088544 
L 432.725316 374.460583 
L 434.443659 374.460583 
L 433.701037 373.832621 
L 434.903285 373.832621 
L 433.437423 372.576699 
L 436.930357 372.576699 
L 436.216634 371.948738 
L 436.443083 371.948738 
L 435.733136 371.320777 
L 436.633855 371.320777 
L 435.930469 370.692816 
L 442.6875 370.692816 
L 441.346154 369.436893 
L 442.53587 369.436893 
L 441.87396 368.808932 
L 442.266486 368.808932 
L 441.608633 368.180971 
L 442.194633 368.180971 
L 441.541607 367.55301 
L 442.699823 367.55301 
L 442.053968 366.925049 
L 442.245423 366.925049 
L 440.962105 365.669126 
L 442.294627 365.669126 
L 441.661765 365.041165 
L 441.850259 365.041165 
L 441.220345 364.413204 
L 442.156923 364.413204 
L 441.532935 363.785243 
L 441.71908 363.785243 
L 439.862034 361.901359 
L 440.423272 361.901359 
L 439.810606 361.273398 
L 441.648179 361.273398 
L 440.443069 360.017476 
L 442.410535 360.017476 
L 440.64 358.133592 
L 441.170465 358.133592 
L 440.586058 357.505631 
L 440.7624 357.505631 
L 440.180511 356.87767 
L 440.356938 356.87767 
L 439.2 355.621748 
L 439.377143 355.621748 
L 438.80206 354.993786 
L 440.377031 354.993786 
L 439.80936 354.365825 
L 440.83864 354.365825 
L 439.715871 353.109903 
L 440.226994 353.109903 
L 439.669985 352.481942 
L 440.346575 352.481942 
L 439.793617 351.853981 
L 439.962064 351.853981 
L 439.411364 351.226019 
L 439.579879 351.226019 
L 439.03142 350.598058 
L 439.535639 350.598058 
L 438.990541 349.970097 
L 441.2925 349.970097 
L 440.756828 349.342136 
L 441.717904 349.342136 
L 441.187064 348.714175 
L 441.662952 348.714175 
L 441.13526 348.086214 
L 442.697436 348.086214 
L 442.176529 347.458252 
L 443.99958 347.458252 
L 442.974477 346.20233 
L 443.124652 346.20233 
L 442.614743 345.574369 
L 442.765 345.574369 
L 441.750416 344.318447 
L 441.901245 344.318447 
L 441.396547 343.690485 
L 441.547448 343.690485 
L 441.044628 343.062524 
L 442.240872 343.062524 
L 441.743265 342.434563 
L 443.495181 342.434563 
L 442.51522 341.178641 
L 443.941897 341.178641 
L 443.458421 340.55068 
L 444.714694 340.55068 
L 444.236494 339.922718 
L 444.374708 339.922718 
L 445.871739 339.922718 
L 445.4 339.294757 
L 445.534439 339.294757 
L 445.80229 339.294757 
L 445.333037 338.666796 
L 445.466878 338.666796 
L 446.39434 338.666796 
L 445.929648 338.038835 
L 446.06123 338.038835 
L 446.714214 338.038835 
L 445.923727 336.782913 
L 446.053846 336.782913 
L 445.595911 336.154951 
L 445.726114 336.154951 
L 446.243719 336.154951 
L 445.464663 334.899029 
L 446.867433 334.899029 
L 446.419589 334.271068 
L 446.545652 334.271068 
L 447.543301 334.271068 
L 447.1 333.643107 
L 447.223747 333.643107 
L 448.324321 333.643107 
L 447.885849 333.015146 
L 448.007067 333.015146 
L 448.128 333.015146 
L 447.691304 332.387184 
L 447.812324 332.387184 
L 449.007077 332.387184 
L 448.144792 331.131262 
L 448.263468 331.131262 
L 448.617857 331.131262 
L 448.189643 330.503301 
L 448.307586 330.503301 
L 448.659794 330.503301 
L 448.233982 329.87534 
L 448.3512 329.87534 
L 450.3037 329.87534 
L 449.164286 327.991456 
L 449.277592 327.991456 
L 448.862472 327.363495 
L 448.975862 327.363495 
L 449.089 327.363495 
L 448.675472 326.735534 
L 448.788692 326.735534 
L 448.901661 326.735534 
L 448.489712 326.107573 
L 448.602762 326.107573 
L 449.498248 326.107573 
L 448.276638 324.223689 
L 448.388441 324.223689 
L 450.144695 324.223689 
L 449.744647 323.595728 
L 449.852727 323.595728 
L 450.389681 323.595728 
L 449.992349 322.967767 
L 450.099363 322.967767 
L 451.366038 322.967767 
L 450.973508 322.339806 
L 451.077929 322.339806 
L 451.286117 322.339806 
L 449.83271 319.827961 
L 450.146273 319.827961 
L 449.759876 319.2 
L 449.864256 319.2 
L 450.486037 319.2 
L 449.823132 317.944078 
L 450.029418 317.944078 
L 449.648265 317.316117 
L 449.751376 317.316117 
L 450.871875 317.316117 
L 450.494864 316.688155 
L 450.595775 316.688155 
L 451.395808 316.688155 
L 451.022034 316.060194 
L 451.121414 316.060194 
L 451.319583 316.060194 
L 450.947368 315.432233 
L 451.046429 315.432233 
L 451.145292 315.432233 
L 450.774356 314.804272 
L 450.873294 314.804272 
L 450.972036 314.804272 
L 450.332512 313.54835 
L 450.530088 313.54835 
L 450.162672 312.920388 
L 450.261433 312.920388 
L 450.458374 312.920388 
L 450.092466 312.292427 
L 450.190909 312.292427 
L 450.38722 312.292427 
L 449.659104 311.036505 
L 449.75749 311.036505 
L 449.953689 311.036505 
L 449.591465 310.408544 
L 449.689535 310.408544 
L 449.787415 310.408544 
L 449.426402 309.780583 
L 449.524348 309.780583 
L 451.066127 309.780583 
L 450.710076 309.152621 
L 450.805128 309.152621 
L 450.9 309.152621 
L 450.545118 308.52466 
L 450.640057 308.52466 
L 451.205932 308.52466 
L 450.501598 307.268738 
L 450.595775 307.268738 
L 451.34287 307.268738 
L 450.993855 306.640777 
L 451.086698 306.640777 
L 451.548333 306.640777 
L 451.201388 306.012816 
L 451.293438 306.012816 
L 451.75115 306.012816 
L 451.153486 304.756893 
L 451.42699 304.756893 
L 450.742192 303.500971 
L 450.833485 303.500971 
L 451.377768 303.500971 
L 451.037897 302.87301 
L 451.128261 302.87301 
L 451.308499 302.87301 
L 450.969919 302.245049 
L 451.060018 302.245049 
L 451.508086 302.245049 
L 451.171454 301.617087 
L 451.260807 301.617087 
L 451.969902 301.617087 
L 451.058119 299.733204 
L 451.58632 299.733204 
L 451.255556 299.105243 
L 451.34326 299.105243 
L 452.725804 299.105243 
L 452.399219 298.477282 
L 452.484562 298.477282 
L 453.329923 298.477282 
L 453.006186 297.84932 
L 453.090129 297.84932 
L 454.004082 297.84932 
L 453.683347 297.221359 
L 453.765789 297.221359 
L 455.54475 297.221359 
L 455.229142 296.593398 
L 455.308652 296.593398 
L 455.38803 296.593398 
L 455.073339 295.965437 
L 455.15278 295.965437 
L 455.783594 295.965437 
L 455.47117 295.337476 
L 455.54963 295.337476 
L 455.706163 295.337476 
L 455.394828 294.709515 
L 455.473093 294.709515 
L 455.629238 294.709515 
L 455.318985 294.081553 
L 455.397056 294.081553 
L 455.552816 294.081553 
L 454.705045 292.19767 
L 455.094408 292.19767 
L 454.481796 290.941748 
L 454.55966 290.941748 
L 456.015525 290.941748 
L 455.713604 290.313786 
L 455.789189 290.313786 
L 455.864654 290.313786 
L 455.563571 289.685825 
L 455.639096 289.685825 
L 455.714501 289.685825 
L 455.414252 289.057864 
L 455.489715 289.057864 
L 456.38605 289.057864 
L 456.088567 288.429903 
L 456.162676 288.429903 
L 456.531489 288.429903 
L 456.235514 287.801942 
L 456.309105 287.801942 
L 456.529193 287.801942 
L 456.234368 287.173981 
L 456.307674 287.173981 
L 457.10661 287.173981 
L 456.814286 286.546019 
L 456.886416 286.546019 
L 457.102144 286.546019 
L 456.810941 285.918058 
L 456.882798 285.918058 
L 460.00643 285.918058 
L 459.723191 285.290097 
L 459.790406 285.290097 
L 460.457143 285.290097 
L 459.895391 284.034175 
L 459.961842 284.034175 
L 460.028196 284.034175 
L 459.748248 283.406214 
L 459.814661 283.406214 
L 460.013319 283.406214 
L 459.7344 282.778252 
L 459.800581 282.778252 
L 460.064348 282.778252 
L 459.575271 281.52233 
L 460.230151 281.52233 
L 459.954878 280.894369 
L 460.02 280.894369 
L 460.214807 280.894369 
L 459.940529 280.266408 
L 460.005429 280.266408 
L 461.031356 280.266408 
L 460.759986 279.638447 
L 460.823484 279.638447 
L 461.516095 279.638447 
L 461.246853 279.010485 
L 461.309434 279.010485 
L 461.558885 279.010485 
L 461.290738 278.382524 
L 461.353027 278.382524 
L 461.477345 278.382524 
L 461.21 277.754563 
L 461.272172 277.754563 
L 462.497741 277.754563 
L 462.233721 277.126602 
L 462.294258 277.126602 
L 462.775595 277.126602 
L 462.513179 276.498641 
L 462.632972 276.498641 
L 462.22977 275.242718 
L 461.968966 274.614757 
L 462.088926 274.614757 
L 462.148785 274.614757 
L 461.629043 273.358835 
L 461.689091 273.358835 
L 462.166577 273.358835 
L 461.769739 272.102913 
L 461.255704 270.84699 
L 461.375017 270.84699 
L 462.782361 270.84699 
L 462.529227 270.219029 
L 462.644764 270.219029 
L 462.874935 270.219029 
L 462.622896 269.591068 
L 462.737785 269.591068 
L 463.194362 269.591068 
L 462.807692 268.335146 
L 462.921304 268.335146 
L 462.672 267.707184 
L 462.785567 267.707184 
L 464.4 267.707184 
L 464.154804 267.079223 
L 464.264205 267.079223 
L 464.373329 267.079223 
L 464.128922 266.451262 
L 464.238011 266.451262 
L 464.725532 266.451262 
L 464.482739 265.823301 
L 464.590568 265.823301 
L 464.644382 265.823301 
L 464.402246 265.19534 
L 464.509907 265.19534 
L 465.414303 265.19534 
L 464.988185 263.939417 
L 465.040959 263.939417 
L 465.617227 263.939417 
L 465.37967 263.311456 
L 465.483841 263.311456 
L 466.714363 263.311456 
L 466.48 262.683495 
L 466.581164 262.683495 
L 466.682085 262.683495 
L 466.215081 261.427573 
L 466.316198 261.427573 
L 466.718263 261.427573 
L 466.123665 259.543689 
L 466.173859 259.543689 
L 465.532584 257.659806 
L 465.582979 257.659806 
L 466.627671 257.659806 
L 466.271287 256.403883 
L 466.418721 256.403883 
L 466.192156 255.775922 
L 466.290366 255.775922 
L 466.437254 255.775922 
L 466.034991 254.52 
L 466.083988 254.52 
L 466.181813 254.52 
L 465.732353 253.264078 
L 465.830357 253.264078 
L 466.461921 253.264078 
L 466.239086 252.636117 
L 466.335616 252.636117 
L 466.48 252.636117 
L 466.257916 252.008155 
L 466.354096 252.008155 
L 466.784211 252.008155 
L 466.218284 250.124272 
L 466.645705 250.124272 
L 466.426768 249.496311 
L 466.521357 249.496311 
L 466.662843 249.496311 
L 466.008939 247.612427 
L 466.103571 247.612427 
L 466.48 247.612427 
L 466.263465 246.984466 
L 466.357238 246.984466 
L 466.497508 246.984466 
L 466.281682 246.356505 
L 466.375124 246.356505 
L 467.023478 246.356505 
L 466.809375 245.728544 
L 466.901369 245.728544 
L 467.900162 245.728544 
L 467.68848 245.100583 
L 467.778282 245.100583 
L 467.86789 245.100583 
L 467.656796 244.472621 
L 467.74639 244.472621 
L 468.058454 244.472621 
L 467.848391 243.84466 
L 467.937299 243.84466 
L 468.641764 243.84466 
L 468.43351 243.216699 
L 468.520902 243.216699 
L 468.651642 243.216699 
L 468.444044 242.588738 
L 468.531148 242.588738 
L 469.434728 242.588738 
L 469.229326 241.960777 
L 469.314517 241.960777 
L 469.484367 241.960777 
L 469.279688 241.332816 
L 469.364516 241.332816 
L 469.449168 241.332816 
L 469.245039 240.704854 
L 469.329683 240.704854 
L 469.456321 240.704854 
L 469.252822 240.076893 
L 469.337196 240.076893 
L 470.459388 240.076893 
L 470.258491 239.448932 
L 470.34055 239.448932 
L 471.868516 239.448932 
L 471.671029 238.820971 
L 471.75 238.820971 
L 471.98597 238.820971 
L 471.789309 238.19301 
L 471.867809 238.19301 
L 472.335556 238.19301 
L 472.140178 237.565049 
L 472.256481 237.565049 
L 472.603337 237.565049 
L 472.409073 236.937087 
L 472.524241 236.937087 
L 472.981548 236.937087 
L 472.788613 236.309126 
L 472.902332 236.309126 
L 472.977961 236.309126 
L 472.78559 235.681165 
L 472.898983 235.681165 
L 473.978356 235.681165 
L 473.672532 234.425243 
L 473.709295 234.425243 
L 474.184036 234.425243 
L 473.995739 233.797282 
L 474.104681 233.797282 
L 474.249457 233.797282 
L 474.06184 233.16932 
L 474.170278 233.16932 
L 474.814526 233.16932 
L 474.44279 231.913398 
L 474.549534 231.913398 
L 475.008661 231.913398 
L 474.824167 231.285437 
L 474.929542 231.285437 
L 474.99963 231.285437 
L 474.815651 230.657476 
L 474.920747 230.657476 
L 477.846941 230.657476 
L 477.669118 230.029515 
L 477.766195 230.029515 
L 478.533625 230.029515 
L 478.357681 229.401553 
L 478.452666 229.401553 
L 479.665191 229.401553 
L 479.49201 228.773592 
L 479.583784 228.773592 
L 479.705782 228.773592 
L 479.421804 227.51767 
L 479.452308 227.51767 
L 479.906752 227.51767 
L 479.735526 226.889709 
L 479.825901 226.889709 
L 480.540705 226.889709 
L 480.371225 226.261748 
L 480.45974 226.261748 
L 480.811588 226.261748 
L 480.643125 225.633786 
L 480.730712 225.633786 
L 481.021094 225.633786 
L 480.853521 225.005825 
L 480.940339 225.005825 
L 483.070036 225.005825 
L 482.771394 223.749903 
L 482.853061 223.749903 
L 482.907397 223.749903 
L 482.744964 223.121942 
L 482.853591 223.121942 
L 484.078331 223.121942 
L 483.918684 222.493981 
L 484.023309 222.493981 
L 486.220575 222.493981 
L 486.065671 221.866019 
L 486.16342 221.866019 
L 486.503229 221.866019 
L 486.349324 221.238058 
L 486.445952 221.238058 
L 486.518233 221.238058 
L 486.364783 220.610097 
L 486.461099 220.610097 
L 490.516071 220.610097 
L 490.371159 219.982136 
L 490.47673 219.982136 
L 490.665831 219.982136 
L 490.521623 219.354175 
L 490.626382 219.354175 
L 490.938485 219.354175 
L 490.79523 218.726214 
L 490.898758 218.726214 
L 490.960703 218.726214 
L 490.817884 218.098252 
L 490.921053 218.098252 
L 491.146779 218.098252 
L 491.004728 217.470291 
L 491.106977 217.470291 
L 492.307239 217.470291 
L 492.087722 216.214369 
L 492.126981 216.214369 
L 492.613329 216.214369 
L 492.475406 215.586408 
L 492.571906 215.586408 
L 492.744804 215.586408 
L 492.60752 214.958447 
L 492.703326 214.958447 
L 493.177662 214.958447 
L 493.041626 214.330485 
L 493.154545 214.330485 
L 494.583317 214.330485 
L 494.450508 213.702524 
L 494.557705 213.702524 
L 496.767652 213.702524 
L 496.639677 213.074563 
L 496.73845 213.074563 
L 497.817426 213.074563 
L 497.691959 212.446602 
L 497.802437 212.446602 
L 498.16222 212.446602 
L 498.037799 211.818641 
L 498.146555 211.818641 
L 499.638026 211.818641 
L 499.516991 211.19068 
L 499.619469 211.19068 
L 500.168709 211.19068 
L 500.049097 210.562718 
L 500.149197 210.562718 
L 501.779084 210.562718 
L 501.779084 210.562718 
" style="fill:none;stroke:#2ca02c;stroke-linecap:square;stroke-width:2;"/>
   </g>
   <g id="patch_3">
    <path d="M 76.5 448.56 
L 76.5 60.48 
" style="fill:none;stroke:#000000;stroke-linecap:square;stroke-linejoin:miter;stroke-width:0.8;"/>
   </g>
   <g id="patch_4">
    <path d="M 550.8 448.56 
L 550.8 60.48 
" style="fill:none;stroke:#000000;stroke-linecap:square;stroke-linejoin:miter;stroke-width:0.8;"/>
   </g>
   <g id="patch_5">
    <path d="M 76.5 448.56 
L 550.8 448.56 
" style="fill:none;stroke:#000000;stroke-linecap:square;stroke-linejoin:miter;stroke-width:0.8;"/>
   </g>
   <g id="patch_6">
    <path d="M 76.5 60.48 
L 550.8 60.48 
" style="fill:none;stroke:#000000;stroke-linecap:square;stroke-linejoin:miter;stroke-width:0.8;"/>
   </g>
   <g id="text_25">
    <!-- graf: img1-img4 -->
    <defs>
     <path d="M 45.40625 27.984375 
Q 45.40625 37.75 41.375 43.109375 
Q 37.359375 48.484375 30.078125 48.484375 
Q 22.859375 48.484375 18.828125 43.109375 
Q 14.796875 37.75 14.796875 27.984375 
Q 14.796875 18.265625 18.828125 12.890625 
Q 22.859375 7.515625 30.078125 7.515625 
Q 37.359375 7.515625 41.375 12.890625 
Q 45.40625 18.265625 45.40625 27.984375 
z
M 54.390625 6.78125 
Q 54.390625 -7.171875 48.1875 -13.984375 
Q 42 -20.796875 29.203125 -20.796875 
Q 24.46875 -20.796875 20.265625 -20.09375 
Q 16.0625 -19.390625 12.109375 -17.921875 
L 12.109375 -9.1875 
Q 16.0625 -11.328125 19.921875 -12.34375 
Q 23.78125 -13.375 27.78125 -13.375 
Q 36.625 -13.375 41.015625 -8.765625 
Q 45.40625 -4.15625 45.40625 5.171875 
L 45.40625 9.625 
Q 42.625 4.78125 38.28125 2.390625 
Q 33.9375 0 27.875 0 
Q 17.828125 0 11.671875 7.65625 
Q 5.515625 15.328125 5.515625 27.984375 
Q 5.515625 40.671875 11.671875 48.328125 
Q 17.828125 56 27.875 56 
Q 33.9375 56 38.28125 53.609375 
Q 42.625 51.21875 45.40625 46.390625 
L 45.40625 54.6875 
L 54.390625 54.6875 
z
" id="DejaVuSans-103"/>
     <path d="M 34.28125 27.484375 
Q 23.390625 27.484375 19.1875 25 
Q 14.984375 22.515625 14.984375 16.5 
Q 14.984375 11.71875 18.140625 8.90625 
Q 21.296875 6.109375 26.703125 6.109375 
Q 34.1875 6.109375 38.703125 11.40625 
Q 43.21875 16.703125 43.21875 25.484375 
L 43.21875 27.484375 
z
M 52.203125 31.203125 
L 52.203125 0 
L 43.21875 0 
L 43.21875 8.296875 
Q 40.140625 3.328125 35.546875 0.953125 
Q 30.953125 -1.421875 24.3125 -1.421875 
Q 15.921875 -1.421875 10.953125 3.296875 
Q 6 8.015625 6 15.921875 
Q 6 25.140625 12.171875 29.828125 
Q 18.359375 34.515625 30.609375 34.515625 
L 43.21875 34.515625 
L 43.21875 35.40625 
Q 43.21875 41.609375 39.140625 45 
Q 35.0625 48.390625 27.6875 48.390625 
Q 23 48.390625 18.546875 47.265625 
Q 14.109375 46.140625 10.015625 43.890625 
L 10.015625 52.203125 
Q 14.9375 54.109375 19.578125 55.046875 
Q 24.21875 56 28.609375 56 
Q 40.484375 56 46.34375 49.84375 
Q 52.203125 43.703125 52.203125 31.203125 
z
" id="DejaVuSans-97"/>
     <path d="M 37.109375 75.984375 
L 37.109375 68.5 
L 28.515625 68.5 
Q 23.6875 68.5 21.796875 66.546875 
Q 19.921875 64.59375 19.921875 59.515625 
L 19.921875 54.6875 
L 34.71875 54.6875 
L 34.71875 47.703125 
L 19.921875 47.703125 
L 19.921875 0 
L 10.890625 0 
L 10.890625 47.703125 
L 2.296875 47.703125 
L 2.296875 54.6875 
L 10.890625 54.6875 
L 10.890625 58.5 
Q 10.890625 67.625 15.140625 71.796875 
Q 19.390625 75.984375 28.609375 75.984375 
z
" id="DejaVuSans-102"/>
     <path d="M 11.71875 12.40625 
L 22.015625 12.40625 
L 22.015625 0 
L 11.71875 0 
z
M 11.71875 51.703125 
L 22.015625 51.703125 
L 22.015625 39.3125 
L 11.71875 39.3125 
z
" id="DejaVuSans-58"/>
     <path id="DejaVuSans-32"/>
     <path d="M 52 44.1875 
Q 55.375 50.25 60.0625 53.125 
Q 64.75 56 71.09375 56 
Q 79.640625 56 84.28125 50.015625 
Q 88.921875 44.046875 88.921875 33.015625 
L 88.921875 0 
L 79.890625 0 
L 79.890625 32.71875 
Q 79.890625 40.578125 77.09375 44.375 
Q 74.3125 48.1875 68.609375 48.1875 
Q 61.625 48.1875 57.5625 43.546875 
Q 53.515625 38.921875 53.515625 30.90625 
L 53.515625 0 
L 44.484375 0 
L 44.484375 32.71875 
Q 44.484375 40.625 41.703125 44.40625 
Q 38.921875 48.1875 33.109375 48.1875 
Q 26.21875 48.1875 22.15625 43.53125 
Q 18.109375 38.875 18.109375 30.90625 
L 18.109375 0 
L 9.078125 0 
L 9.078125 54.6875 
L 18.109375 54.6875 
L 18.109375 46.1875 
Q 21.1875 51.21875 25.484375 53.609375 
Q 29.78125 56 35.6875 56 
Q 41.65625 56 45.828125 52.96875 
Q 50 49.953125 52 44.1875 
z
" id="DejaVuSans-109"/>
    </defs>
    <g transform="translate(265.434375 41.042625)scale(0.12 -0.12)">
     <use xlink:href="#DejaVuSans-103"/>
     <use x="63.476562" xlink:href="#DejaVuSans-114"/>
     <use x="104.589844" xlink:href="#DejaVuSans-97"/>
     <use x="165.869141" xlink:href="#DejaVuSans-102"/>
     <use x="197.449219" xlink:href="#DejaVuSans-58"/>
     <use x="231.140625" xlink:href="#DejaVuSans-32"/>
     <use x="262.927734" xlink:href="#DejaVuSans-105"/>
     <use x="290.710938" xlink:href="#DejaVuSans-109"/>
     <use x="388.123047" xlink:href="#DejaVuSans-103"/>
     <use x="451.599609" xlink:href="#DejaVuSans-49"/>
     <use x="515.222656" xlink:href="#DejaVuSans-45"/>
     <use x="551.306641" xlink:href="#DejaVuSans-105"/>
     <use x="579.089844" xlink:href="#DejaVuSans-109"/>
     <use x="676.501953" xlink:href="#DejaVuSans-103"/>
     <use x="739.978516" xlink:href="#DejaVuSans-52"/>
    </g>
    <!-- NearestNeighbours -->
    <defs>
     <path d="M 9.8125 72.90625 
L 23.09375 72.90625 
L 55.421875 11.921875 
L 55.421875 72.90625 
L 64.984375 72.90625 
L 64.984375 0 
L 51.703125 0 
L 19.390625 60.984375 
L 19.390625 0 
L 9.8125 0 
z
" id="DejaVuSans-78"/>
     <path d="M 54.890625 33.015625 
L 54.890625 0 
L 45.90625 0 
L 45.90625 32.71875 
Q 45.90625 40.484375 42.875 44.328125 
Q 39.84375 48.1875 33.796875 48.1875 
Q 26.515625 48.1875 22.3125 43.546875 
Q 18.109375 38.921875 18.109375 30.90625 
L 18.109375 0 
L 9.078125 0 
L 9.078125 75.984375 
L 18.109375 75.984375 
L 18.109375 46.1875 
Q 21.34375 51.125 25.703125 53.5625 
Q 30.078125 56 35.796875 56 
Q 45.21875 56 50.046875 50.171875 
Q 54.890625 44.34375 54.890625 33.015625 
z
" id="DejaVuSans-104"/>
     <path d="M 48.6875 27.296875 
Q 48.6875 37.203125 44.609375 42.84375 
Q 40.53125 48.484375 33.40625 48.484375 
Q 26.265625 48.484375 22.1875 42.84375 
Q 18.109375 37.203125 18.109375 27.296875 
Q 18.109375 17.390625 22.1875 11.75 
Q 26.265625 6.109375 33.40625 6.109375 
Q 40.53125 6.109375 44.609375 11.75 
Q 48.6875 17.390625 48.6875 27.296875 
z
M 18.109375 46.390625 
Q 20.953125 51.265625 25.265625 53.625 
Q 29.59375 56 35.59375 56 
Q 45.5625 56 51.78125 48.09375 
Q 58.015625 40.1875 58.015625 27.296875 
Q 58.015625 14.40625 51.78125 6.484375 
Q 45.5625 -1.421875 35.59375 -1.421875 
Q 29.59375 -1.421875 25.265625 0.953125 
Q 20.953125 3.328125 18.109375 8.203125 
L 18.109375 0 
L 9.078125 0 
L 9.078125 75.984375 
L 18.109375 75.984375 
z
" id="DejaVuSans-98"/>
     <path d="M 8.5 21.578125 
L 8.5 54.6875 
L 17.484375 54.6875 
L 17.484375 21.921875 
Q 17.484375 14.15625 20.5 10.265625 
Q 23.53125 6.390625 29.59375 6.390625 
Q 36.859375 6.390625 41.078125 11.03125 
Q 45.3125 15.671875 45.3125 23.6875 
L 45.3125 54.6875 
L 54.296875 54.6875 
L 54.296875 0 
L 45.3125 0 
L 45.3125 8.40625 
Q 42.046875 3.421875 37.71875 1 
Q 33.40625 -1.421875 27.6875 -1.421875 
Q 18.265625 -1.421875 13.375 4.4375 
Q 8.5 10.296875 8.5 21.578125 
z
M 31.109375 56 
z
" id="DejaVuSans-117"/>
    </defs>
    <g transform="translate(255.957188 54.48)scale(0.12 -0.12)">
     <use xlink:href="#DejaVuSans-78"/>
     <use x="74.804688" xlink:href="#DejaVuSans-101"/>
     <use x="136.328125" xlink:href="#DejaVuSans-97"/>
     <use x="197.607422" xlink:href="#DejaVuSans-114"/>
     <use x="236.470703" xlink:href="#DejaVuSans-101"/>
     <use x="297.994141" xlink:href="#DejaVuSans-115"/>
     <use x="350.09375" xlink:href="#DejaVuSans-116"/>
     <use x="389.302734" xlink:href="#DejaVuSans-78"/>
     <use x="464.107422" xlink:href="#DejaVuSans-101"/>
     <use x="525.630859" xlink:href="#DejaVuSans-105"/>
     <use x="553.414062" xlink:href="#DejaVuSans-103"/>
     <use x="616.890625" xlink:href="#DejaVuSans-104"/>
     <use x="680.269531" xlink:href="#DejaVuSans-98"/>
     <use x="743.746094" xlink:href="#DejaVuSans-111"/>
     <use x="804.927734" xlink:href="#DejaVuSans-117"/>
     <use x="868.306641" xlink:href="#DejaVuSans-114"/>
     <use x="909.419922" xlink:href="#DejaVuSans-115"/>
    </g>
   </g>
   <g id="legend_1">
    <g id="patch_7">
     <path d="M 373.820313 112.514375 
L 543.8 112.514375 
Q 545.8 112.514375 545.8 110.514375 
L 545.8 67.48 
Q 545.8 65.48 543.8 65.48 
L 373.820313 65.48 
Q 371.820313 65.48 371.820313 67.48 
L 371.820313 110.514375 
Q 371.820313 112.514375 373.820313 112.514375 
z
" style="fill:#ffffff;opacity:0.8;stroke:#cccccc;stroke-linejoin:miter;"/>
    </g>
    <g id="line2d_48">
     <path d="M 375.820313 73.578438 
L 395.820313 73.578438 
" style="fill:none;stroke:#1f77b4;stroke-linecap:square;stroke-width:2;"/>
    </g>
    <g id="line2d_49"/>
    <g id="text_26">
     <!-- root-cvsift AP: 6.2, %In: 8.1 -->
     <defs>
      <path d="M 2.984375 54.6875 
L 12.5 54.6875 
L 29.59375 8.796875 
L 46.6875 54.6875 
L 56.203125 54.6875 
L 35.6875 0 
L 23.484375 0 
z
" id="DejaVuSans-118"/>
      <path d="M 34.1875 63.1875 
L 20.796875 26.90625 
L 47.609375 26.90625 
z
M 28.609375 72.90625 
L 39.796875 72.90625 
L 67.578125 0 
L 57.328125 0 
L 50.6875 18.703125 
L 17.828125 18.703125 
L 11.1875 0 
L 0.78125 0 
z
" id="DejaVuSans-65"/>
      <path d="M 19.671875 64.796875 
L 19.671875 37.40625 
L 32.078125 37.40625 
Q 38.96875 37.40625 42.71875 40.96875 
Q 46.484375 44.53125 46.484375 51.125 
Q 46.484375 57.671875 42.71875 61.234375 
Q 38.96875 64.796875 32.078125 64.796875 
z
M 9.8125 72.90625 
L 32.078125 72.90625 
Q 44.34375 72.90625 50.609375 67.359375 
Q 56.890625 61.8125 56.890625 51.125 
Q 56.890625 40.328125 50.609375 34.8125 
Q 44.34375 29.296875 32.078125 29.296875 
L 19.671875 29.296875 
L 19.671875 0 
L 9.8125 0 
z
" id="DejaVuSans-80"/>
      <path d="M 11.71875 12.40625 
L 22.015625 12.40625 
L 22.015625 4 
L 14.015625 -11.625 
L 7.71875 -11.625 
L 11.71875 4 
z
" id="DejaVuSans-44"/>
      <path d="M 72.703125 32.078125 
Q 68.453125 32.078125 66.03125 28.46875 
Q 63.625 24.859375 63.625 18.40625 
Q 63.625 12.0625 66.03125 8.421875 
Q 68.453125 4.78125 72.703125 4.78125 
Q 76.859375 4.78125 79.265625 8.421875 
Q 81.6875 12.0625 81.6875 18.40625 
Q 81.6875 24.8125 79.265625 28.4375 
Q 76.859375 32.078125 72.703125 32.078125 
z
M 72.703125 38.28125 
Q 80.421875 38.28125 84.953125 32.90625 
Q 89.5 27.546875 89.5 18.40625 
Q 89.5 9.28125 84.9375 3.921875 
Q 80.375 -1.421875 72.703125 -1.421875 
Q 64.890625 -1.421875 60.34375 3.921875 
Q 55.8125 9.28125 55.8125 18.40625 
Q 55.8125 27.59375 60.375 32.9375 
Q 64.9375 38.28125 72.703125 38.28125 
z
M 22.3125 68.015625 
Q 18.109375 68.015625 15.6875 64.375 
Q 13.28125 60.75 13.28125 54.390625 
Q 13.28125 47.953125 15.671875 44.328125 
Q 18.0625 40.71875 22.3125 40.71875 
Q 26.5625 40.71875 28.96875 44.328125 
Q 31.390625 47.953125 31.390625 54.390625 
Q 31.390625 60.6875 28.953125 64.34375 
Q 26.515625 68.015625 22.3125 68.015625 
z
M 66.40625 74.21875 
L 74.21875 74.21875 
L 28.609375 -1.421875 
L 20.796875 -1.421875 
z
M 22.3125 74.21875 
Q 30.03125 74.21875 34.609375 68.875 
Q 39.203125 63.53125 39.203125 54.390625 
Q 39.203125 45.171875 34.640625 39.84375 
Q 30.078125 34.515625 22.3125 34.515625 
Q 14.546875 34.515625 10.03125 39.859375 
Q 5.515625 45.21875 5.515625 54.390625 
Q 5.515625 63.484375 10.046875 68.84375 
Q 14.59375 74.21875 22.3125 74.21875 
z
" id="DejaVuSans-37"/>
      <path d="M 9.8125 72.90625 
L 19.671875 72.90625 
L 19.671875 0 
L 9.8125 0 
z
" id="DejaVuSans-73"/>
     </defs>
     <g transform="translate(403.820313 77.078438)scale(0.1 -0.1)">
      <use xlink:href="#DejaVuSans-114"/>
      <use x="38.863281" xlink:href="#DejaVuSans-111"/>
      <use x="100.044922" xlink:href="#DejaVuSans-111"/>
      <use x="161.226562" xlink:href="#DejaVuSans-116"/>
      <use x="200.435547" xlink:href="#DejaVuSans-45"/>
      <use x="236.519531" xlink:href="#DejaVuSans-99"/>
      <use x="291.5" xlink:href="#DejaVuSans-118"/>
      <use x="350.679688" xlink:href="#DejaVuSans-115"/>
      <use x="402.779297" xlink:href="#DejaVuSans-105"/>
      <use x="430.5625" xlink:href="#DejaVuSans-102"/>
      <use x="464.017578" xlink:href="#DejaVuSans-116"/>
      <use x="503.226562" xlink:href="#DejaVuSans-32"/>
      <use x="535.013672" xlink:href="#DejaVuSans-65"/>
      <use x="603.421875" xlink:href="#DejaVuSans-80"/>
      <use x="663.724609" xlink:href="#DejaVuSans-58"/>
      <use x="697.416016" xlink:href="#DejaVuSans-32"/>
      <use x="729.203125" xlink:href="#DejaVuSans-54"/>
      <use x="792.826172" xlink:href="#DejaVuSans-46"/>
      <use x="824.613281" xlink:href="#DejaVuSans-50"/>
      <use x="888.236328" xlink:href="#DejaVuSans-44"/>
      <use x="920.023438" xlink:href="#DejaVuSans-32"/>
      <use x="951.810547" xlink:href="#DejaVuSans-37"/>
      <use x="1046.830078" xlink:href="#DejaVuSans-73"/>
      <use x="1076.322266" xlink:href="#DejaVuSans-110"/>
      <use x="1139.701172" xlink:href="#DejaVuSans-58"/>
      <use x="1173.392578" xlink:href="#DejaVuSans-32"/>
      <use x="1205.179688" xlink:href="#DejaVuSans-56"/>
      <use x="1268.802734" xlink:href="#DejaVuSans-46"/>
      <use x="1300.589844" xlink:href="#DejaVuSans-49"/>
     </g>
    </g>
    <g id="line2d_50">
     <path d="M 375.820313 88.256563 
L 395.820313 88.256563 
" style="fill:none;stroke:#ff7f0e;stroke-linecap:square;stroke-width:2;"/>
    </g>
    <g id="line2d_51"/>
    <g id="text_27">
     <!-- tfeat AP: 2.8, %In: 6.7 -->
     <g transform="translate(403.820313 91.756563)scale(0.1 -0.1)">
      <use xlink:href="#DejaVuSans-116"/>
      <use x="39.208984" xlink:href="#DejaVuSans-102"/>
      <use x="74.414062" xlink:href="#DejaVuSans-101"/>
      <use x="135.9375" xlink:href="#DejaVuSans-97"/>
      <use x="197.216797" xlink:href="#DejaVuSans-116"/>
      <use x="236.425781" xlink:href="#DejaVuSans-32"/>
      <use x="268.212891" xlink:href="#DejaVuSans-65"/>
      <use x="336.621094" xlink:href="#DejaVuSans-80"/>
      <use x="396.923828" xlink:href="#DejaVuSans-58"/>
      <use x="430.615234" xlink:href="#DejaVuSans-32"/>
      <use x="462.402344" xlink:href="#DejaVuSans-50"/>
      <use x="526.025391" xlink:href="#DejaVuSans-46"/>
      <use x="557.8125" xlink:href="#DejaVuSans-56"/>
      <use x="621.435547" xlink:href="#DejaVuSans-44"/>
      <use x="653.222656" xlink:href="#DejaVuSans-32"/>
      <use x="685.009766" xlink:href="#DejaVuSans-37"/>
      <use x="780.029297" xlink:href="#DejaVuSans-73"/>
      <use x="809.521484" xlink:href="#DejaVuSans-110"/>
      <use x="872.900391" xlink:href="#DejaVuSans-58"/>
      <use x="906.591797" xlink:href="#DejaVuSans-32"/>
      <use x="938.378906" xlink:href="#DejaVuSans-54"/>
      <use x="1002.001953" xlink:href="#DejaVuSans-46"/>
      <use x="1033.789062" xlink:href="#DejaVuSans-55"/>
     </g>
    </g>
    <g id="line2d_52">
     <path d="M 375.820313 102.934687 
L 395.820313 102.934687 
" style="fill:none;stroke:#2ca02c;stroke-linecap:square;stroke-width:2;"/>
    </g>
    <g id="line2d_53"/>
    <g id="text_28">
     <!-- hardnet AP: 13.1, %In: 10.3 -->
     <defs>
      <path d="M 45.40625 46.390625 
L 45.40625 75.984375 
L 54.390625 75.984375 
L 54.390625 0 
L 45.40625 0 
L 45.40625 8.203125 
Q 42.578125 3.328125 38.25 0.953125 
Q 33.9375 -1.421875 27.875 -1.421875 
Q 17.96875 -1.421875 11.734375 6.484375 
Q 5.515625 14.40625 5.515625 27.296875 
Q 5.515625 40.1875 11.734375 48.09375 
Q 17.96875 56 27.875 56 
Q 33.9375 56 38.25 53.625 
Q 42.578125 51.265625 45.40625 46.390625 
z
M 14.796875 27.296875 
Q 14.796875 17.390625 18.875 11.75 
Q 22.953125 6.109375 30.078125 6.109375 
Q 37.203125 6.109375 41.296875 11.75 
Q 45.40625 17.390625 45.40625 27.296875 
Q 45.40625 37.203125 41.296875 42.84375 
Q 37.203125 48.484375 30.078125 48.484375 
Q 22.953125 48.484375 18.875 42.84375 
Q 14.796875 37.203125 14.796875 27.296875 
z
" id="DejaVuSans-100"/>
     </defs>
     <g transform="translate(403.820313 106.434687)scale(0.1 -0.1)">
      <use xlink:href="#DejaVuSans-104"/>
      <use x="63.378906" xlink:href="#DejaVuSans-97"/>
      <use x="124.658203" xlink:href="#DejaVuSans-114"/>
      <use x="164.021484" xlink:href="#DejaVuSans-100"/>
      <use x="227.498047" xlink:href="#DejaVuSans-110"/>
      <use x="290.876953" xlink:href="#DejaVuSans-101"/>
      <use x="352.400391" xlink:href="#DejaVuSans-116"/>
      <use x="391.609375" xlink:href="#DejaVuSans-32"/>
      <use x="423.396484" xlink:href="#DejaVuSans-65"/>
      <use x="491.804688" xlink:href="#DejaVuSans-80"/>
      <use x="552.107422" xlink:href="#DejaVuSans-58"/>
      <use x="585.798828" xlink:href="#DejaVuSans-32"/>
      <use x="617.585938" xlink:href="#DejaVuSans-49"/>
      <use x="681.208984" xlink:href="#DejaVuSans-51"/>
      <use x="744.832031" xlink:href="#DejaVuSans-46"/>
      <use x="776.619141" xlink:href="#DejaVuSans-49"/>
      <use x="840.242188" xlink:href="#DejaVuSans-44"/>
      <use x="872.029297" xlink:href="#DejaVuSans-32"/>
      <use x="903.816406" xlink:href="#DejaVuSans-37"/>
      <use x="998.835938" xlink:href="#DejaVuSans-73"/>
      <use x="1028.328125" xlink:href="#DejaVuSans-110"/>
      <use x="1091.707031" xlink:href="#DejaVuSans-58"/>
      <use x="1125.398438" xlink:href="#DejaVuSans-32"/>
      <use x="1157.185547" xlink:href="#DejaVuSans-49"/>
      <use x="1220.808594" xlink:href="#DejaVuSans-48"/>
      <use x="1284.431641" xlink:href="#DejaVuSans-46"/>
      <use x="1316.21875" xlink:href="#DejaVuSans-51"/>
     </g>
    </g>
   </g>
  </g>
 </g>
 <defs>
  <clipPath id="p5f2d89be96">
   <rect height="388.08" width="474.3" x="76.5" y="60.48"/>
  </clipPath>
 </defs>
</svg>
