<?xml version="1.0" encoding="utf-8" standalone="no"?>
<!DOCTYPE svg PUBLIC "-//W3C//DTD SVG 1.1//EN"
  "http://www.w3.org/Graphics/SVG/1.1/DTD/svg11.dtd">
<!-- Created with matplotlib (https://matplotlib.org/) -->
<svg height="504pt" version="1.1" viewBox="0 0 612 504" width="612pt" xmlns="http://www.w3.org/2000/svg" xmlns:xlink="http://www.w3.org/1999/xlink">
 <defs>
  <style type="text/css">
*{stroke-linecap:butt;stroke-linejoin:round;}
  </style>
 </defs>
 <g id="figure_1">
  <g id="patch_1">
   <path d="M 0 504 
L 612 504 
L 612 0 
L 0 0 
z
" style="fill:#ffffff;"/>
  </g>
  <g id="axes_1">
   <g id="patch_2">
    <path d="M 76.5 448.56 
L 550.8 448.56 
L 550.8 60.48 
L 76.5 60.48 
z
" style="fill:#ffffff;"/>
   </g>
   <g id="matplotlib.axis_1">
    <g id="xtick_1">
     <g id="line2d_1">
      <path clip-path="url(#p1f70cf2bf6)" d="M 76.5 448.56 
L 76.5 60.48 
" style="fill:none;stroke:#b0b0b0;stroke-linecap:square;stroke-width:0.8;"/>
     </g>
     <g id="line2d_2">
      <defs>
       <path d="M 0 0 
L 0 3.5 
" id="m9c06428e9f" style="stroke:#000000;stroke-width:0.8;"/>
      </defs>
      <g>
       <use style="stroke:#000000;stroke-width:0.8;" x="76.5" xlink:href="#m9c06428e9f" y="448.56"/>
      </g>
     </g>
     <g id="text_1">
      <!-- 0.0 -->
      <defs>
       <path d="M 31.78125 66.40625 
Q 24.171875 66.40625 20.328125 58.90625 
Q 16.5 51.421875 16.5 36.375 
Q 16.5 21.390625 20.328125 13.890625 
Q 24.171875 6.390625 31.78125 6.390625 
Q 39.453125 6.390625 43.28125 13.890625 
Q 47.125 21.390625 47.125 36.375 
Q 47.125 51.421875 43.28125 58.90625 
Q 39.453125 66.40625 31.78125 66.40625 
z
M 31.78125 74.21875 
Q 44.046875 74.21875 50.515625 64.515625 
Q 56.984375 54.828125 56.984375 36.375 
Q 56.984375 17.96875 50.515625 8.265625 
Q 44.046875 -1.421875 31.78125 -1.421875 
Q 19.53125 -1.421875 13.0625 8.265625 
Q 6.59375 17.96875 6.59375 36.375 
Q 6.59375 54.828125 13.0625 64.515625 
Q 19.53125 74.21875 31.78125 74.21875 
z
" id="DejaVuSans-48"/>
       <path d="M 10.6875 12.40625 
L 21 12.40625 
L 21 0 
L 10.6875 0 
z
" id="DejaVuSans-46"/>
      </defs>
      <g transform="translate(68.548438 463.158437)scale(0.1 -0.1)">
       <use xlink:href="#DejaVuSans-48"/>
       <use x="63.623047" xlink:href="#DejaVuSans-46"/>
       <use x="95.410156" xlink:href="#DejaVuSans-48"/>
      </g>
     </g>
    </g>
    <g id="xtick_2">
     <g id="line2d_3">
      <path clip-path="url(#p1f70cf2bf6)" d="M 123.93 448.56 
L 123.93 60.48 
" style="fill:none;stroke:#b0b0b0;stroke-linecap:square;stroke-width:0.8;"/>
     </g>
     <g id="line2d_4">
      <g>
       <use style="stroke:#000000;stroke-width:0.8;" x="123.93" xlink:href="#m9c06428e9f" y="448.56"/>
      </g>
     </g>
     <g id="text_2">
      <!-- 0.1 -->
      <defs>
       <path d="M 12.40625 8.296875 
L 28.515625 8.296875 
L 28.515625 63.921875 
L 10.984375 60.40625 
L 10.984375 69.390625 
L 28.421875 72.90625 
L 38.28125 72.90625 
L 38.28125 8.296875 
L 54.390625 8.296875 
L 54.390625 0 
L 12.40625 0 
z
" id="DejaVuSans-49"/>
      </defs>
      <g transform="translate(115.978438 463.158437)scale(0.1 -0.1)">
       <use xlink:href="#DejaVuSans-48"/>
       <use x="63.623047" xlink:href="#DejaVuSans-46"/>
       <use x="95.410156" xlink:href="#DejaVuSans-49"/>
      </g>
     </g>
    </g>
    <g id="xtick_3">
     <g id="line2d_5">
      <path clip-path="url(#p1f70cf2bf6)" d="M 171.36 448.56 
L 171.36 60.48 
" style="fill:none;stroke:#b0b0b0;stroke-linecap:square;stroke-width:0.8;"/>
     </g>
     <g id="line2d_6">
      <g>
       <use style="stroke:#000000;stroke-width:0.8;" x="171.36" xlink:href="#m9c06428e9f" y="448.56"/>
      </g>
     </g>
     <g id="text_3">
      <!-- 0.2 -->
      <defs>
       <path d="M 19.1875 8.296875 
L 53.609375 8.296875 
L 53.609375 0 
L 7.328125 0 
L 7.328125 8.296875 
Q 12.9375 14.109375 22.625 23.890625 
Q 32.328125 33.6875 34.8125 36.53125 
Q 39.546875 41.84375 41.421875 45.53125 
Q 43.3125 49.21875 43.3125 52.78125 
Q 43.3125 58.59375 39.234375 62.25 
Q 35.15625 65.921875 28.609375 65.921875 
Q 23.96875 65.921875 18.8125 64.3125 
Q 13.671875 62.703125 7.8125 59.421875 
L 7.8125 69.390625 
Q 13.765625 71.78125 18.9375 73 
Q 24.125 74.21875 28.421875 74.21875 
Q 39.75 74.21875 46.484375 68.546875 
Q 53.21875 62.890625 53.21875 53.421875 
Q 53.21875 48.921875 51.53125 44.890625 
Q 49.859375 40.875 45.40625 35.40625 
Q 44.1875 33.984375 37.640625 27.21875 
Q 31.109375 20.453125 19.1875 8.296875 
z
" id="DejaVuSans-50"/>
      </defs>
      <g transform="translate(163.408438 463.158437)scale(0.1 -0.1)">
       <use xlink:href="#DejaVuSans-48"/>
       <use x="63.623047" xlink:href="#DejaVuSans-46"/>
       <use x="95.410156" xlink:href="#DejaVuSans-50"/>
      </g>
     </g>
    </g>
    <g id="xtick_4">
     <g id="line2d_7">
      <path clip-path="url(#p1f70cf2bf6)" d="M 218.79 448.56 
L 218.79 60.48 
" style="fill:none;stroke:#b0b0b0;stroke-linecap:square;stroke-width:0.8;"/>
     </g>
     <g id="line2d_8">
      <g>
       <use style="stroke:#000000;stroke-width:0.8;" x="218.79" xlink:href="#m9c06428e9f" y="448.56"/>
      </g>
     </g>
     <g id="text_4">
      <!-- 0.3 -->
      <defs>
       <path d="M 40.578125 39.3125 
Q 47.65625 37.796875 51.625 33 
Q 55.609375 28.21875 55.609375 21.1875 
Q 55.609375 10.40625 48.1875 4.484375 
Q 40.765625 -1.421875 27.09375 -1.421875 
Q 22.515625 -1.421875 17.65625 -0.515625 
Q 12.796875 0.390625 7.625 2.203125 
L 7.625 11.71875 
Q 11.71875 9.328125 16.59375 8.109375 
Q 21.484375 6.890625 26.8125 6.890625 
Q 36.078125 6.890625 40.9375 10.546875 
Q 45.796875 14.203125 45.796875 21.1875 
Q 45.796875 27.640625 41.28125 31.265625 
Q 36.765625 34.90625 28.71875 34.90625 
L 20.21875 34.90625 
L 20.21875 43.015625 
L 29.109375 43.015625 
Q 36.375 43.015625 40.234375 45.921875 
Q 44.09375 48.828125 44.09375 54.296875 
Q 44.09375 59.90625 40.109375 62.90625 
Q 36.140625 65.921875 28.71875 65.921875 
Q 24.65625 65.921875 20.015625 65.03125 
Q 15.375 64.15625 9.8125 62.3125 
L 9.8125 71.09375 
Q 15.4375 72.65625 20.34375 73.4375 
Q 25.25 74.21875 29.59375 74.21875 
Q 40.828125 74.21875 47.359375 69.109375 
Q 53.90625 64.015625 53.90625 55.328125 
Q 53.90625 49.265625 50.4375 45.09375 
Q 46.96875 40.921875 40.578125 39.3125 
z
" id="DejaVuSans-51"/>
      </defs>
      <g transform="translate(210.838438 463.158437)scale(0.1 -0.1)">
       <use xlink:href="#DejaVuSans-48"/>
       <use x="63.623047" xlink:href="#DejaVuSans-46"/>
       <use x="95.410156" xlink:href="#DejaVuSans-51"/>
      </g>
     </g>
    </g>
    <g id="xtick_5">
     <g id="line2d_9">
      <path clip-path="url(#p1f70cf2bf6)" d="M 266.22 448.56 
L 266.22 60.48 
" style="fill:none;stroke:#b0b0b0;stroke-linecap:square;stroke-width:0.8;"/>
     </g>
     <g id="line2d_10">
      <g>
       <use style="stroke:#000000;stroke-width:0.8;" x="266.22" xlink:href="#m9c06428e9f" y="448.56"/>
      </g>
     </g>
     <g id="text_5">
      <!-- 0.4 -->
      <defs>
       <path d="M 37.796875 64.3125 
L 12.890625 25.390625 
L 37.796875 25.390625 
z
M 35.203125 72.90625 
L 47.609375 72.90625 
L 47.609375 25.390625 
L 58.015625 25.390625 
L 58.015625 17.1875 
L 47.609375 17.1875 
L 47.609375 0 
L 37.796875 0 
L 37.796875 17.1875 
L 4.890625 17.1875 
L 4.890625 26.703125 
z
" id="DejaVuSans-52"/>
      </defs>
      <g transform="translate(258.268438 463.158437)scale(0.1 -0.1)">
       <use xlink:href="#DejaVuSans-48"/>
       <use x="63.623047" xlink:href="#DejaVuSans-46"/>
       <use x="95.410156" xlink:href="#DejaVuSans-52"/>
      </g>
     </g>
    </g>
    <g id="xtick_6">
     <g id="line2d_11">
      <path clip-path="url(#p1f70cf2bf6)" d="M 313.65 448.56 
L 313.65 60.48 
" style="fill:none;stroke:#b0b0b0;stroke-linecap:square;stroke-width:0.8;"/>
     </g>
     <g id="line2d_12">
      <g>
       <use style="stroke:#000000;stroke-width:0.8;" x="313.65" xlink:href="#m9c06428e9f" y="448.56"/>
      </g>
     </g>
     <g id="text_6">
      <!-- 0.5 -->
      <defs>
       <path d="M 10.796875 72.90625 
L 49.515625 72.90625 
L 49.515625 64.59375 
L 19.828125 64.59375 
L 19.828125 46.734375 
Q 21.96875 47.46875 24.109375 47.828125 
Q 26.265625 48.1875 28.421875 48.1875 
Q 40.625 48.1875 47.75 41.5 
Q 54.890625 34.8125 54.890625 23.390625 
Q 54.890625 11.625 47.5625 5.09375 
Q 40.234375 -1.421875 26.90625 -1.421875 
Q 22.3125 -1.421875 17.546875 -0.640625 
Q 12.796875 0.140625 7.71875 1.703125 
L 7.71875 11.625 
Q 12.109375 9.234375 16.796875 8.0625 
Q 21.484375 6.890625 26.703125 6.890625 
Q 35.15625 6.890625 40.078125 11.328125 
Q 45.015625 15.765625 45.015625 23.390625 
Q 45.015625 31 40.078125 35.4375 
Q 35.15625 39.890625 26.703125 39.890625 
Q 22.75 39.890625 18.8125 39.015625 
Q 14.890625 38.140625 10.796875 36.28125 
z
" id="DejaVuSans-53"/>
      </defs>
      <g transform="translate(305.698438 463.158437)scale(0.1 -0.1)">
       <use xlink:href="#DejaVuSans-48"/>
       <use x="63.623047" xlink:href="#DejaVuSans-46"/>
       <use x="95.410156" xlink:href="#DejaVuSans-53"/>
      </g>
     </g>
    </g>
    <g id="xtick_7">
     <g id="line2d_13">
      <path clip-path="url(#p1f70cf2bf6)" d="M 361.08 448.56 
L 361.08 60.48 
" style="fill:none;stroke:#b0b0b0;stroke-linecap:square;stroke-width:0.8;"/>
     </g>
     <g id="line2d_14">
      <g>
       <use style="stroke:#000000;stroke-width:0.8;" x="361.08" xlink:href="#m9c06428e9f" y="448.56"/>
      </g>
     </g>
     <g id="text_7">
      <!-- 0.6 -->
      <defs>
       <path d="M 33.015625 40.375 
Q 26.375 40.375 22.484375 35.828125 
Q 18.609375 31.296875 18.609375 23.390625 
Q 18.609375 15.53125 22.484375 10.953125 
Q 26.375 6.390625 33.015625 6.390625 
Q 39.65625 6.390625 43.53125 10.953125 
Q 47.40625 15.53125 47.40625 23.390625 
Q 47.40625 31.296875 43.53125 35.828125 
Q 39.65625 40.375 33.015625 40.375 
z
M 52.59375 71.296875 
L 52.59375 62.3125 
Q 48.875 64.0625 45.09375 64.984375 
Q 41.3125 65.921875 37.59375 65.921875 
Q 27.828125 65.921875 22.671875 59.328125 
Q 17.53125 52.734375 16.796875 39.40625 
Q 19.671875 43.65625 24.015625 45.921875 
Q 28.375 48.1875 33.59375 48.1875 
Q 44.578125 48.1875 50.953125 41.515625 
Q 57.328125 34.859375 57.328125 23.390625 
Q 57.328125 12.15625 50.6875 5.359375 
Q 44.046875 -1.421875 33.015625 -1.421875 
Q 20.359375 -1.421875 13.671875 8.265625 
Q 6.984375 17.96875 6.984375 36.375 
Q 6.984375 53.65625 15.1875 63.9375 
Q 23.390625 74.21875 37.203125 74.21875 
Q 40.921875 74.21875 44.703125 73.484375 
Q 48.484375 72.75 52.59375 71.296875 
z
" id="DejaVuSans-54"/>
      </defs>
      <g transform="translate(353.128438 463.158437)scale(0.1 -0.1)">
       <use xlink:href="#DejaVuSans-48"/>
       <use x="63.623047" xlink:href="#DejaVuSans-46"/>
       <use x="95.410156" xlink:href="#DejaVuSans-54"/>
      </g>
     </g>
    </g>
    <g id="xtick_8">
     <g id="line2d_15">
      <path clip-path="url(#p1f70cf2bf6)" d="M 408.51 448.56 
L 408.51 60.48 
" style="fill:none;stroke:#b0b0b0;stroke-linecap:square;stroke-width:0.8;"/>
     </g>
     <g id="line2d_16">
      <g>
       <use style="stroke:#000000;stroke-width:0.8;" x="408.51" xlink:href="#m9c06428e9f" y="448.56"/>
      </g>
     </g>
     <g id="text_8">
      <!-- 0.7 -->
      <defs>
       <path d="M 8.203125 72.90625 
L 55.078125 72.90625 
L 55.078125 68.703125 
L 28.609375 0 
L 18.3125 0 
L 43.21875 64.59375 
L 8.203125 64.59375 
z
" id="DejaVuSans-55"/>
      </defs>
      <g transform="translate(400.558438 463.158437)scale(0.1 -0.1)">
       <use xlink:href="#DejaVuSans-48"/>
       <use x="63.623047" xlink:href="#DejaVuSans-46"/>
       <use x="95.410156" xlink:href="#DejaVuSans-55"/>
      </g>
     </g>
    </g>
    <g id="xtick_9">
     <g id="line2d_17">
      <path clip-path="url(#p1f70cf2bf6)" d="M 455.94 448.56 
L 455.94 60.48 
" style="fill:none;stroke:#b0b0b0;stroke-linecap:square;stroke-width:0.8;"/>
     </g>
     <g id="line2d_18">
      <g>
       <use style="stroke:#000000;stroke-width:0.8;" x="455.94" xlink:href="#m9c06428e9f" y="448.56"/>
      </g>
     </g>
     <g id="text_9">
      <!-- 0.8 -->
      <defs>
       <path d="M 31.78125 34.625 
Q 24.75 34.625 20.71875 30.859375 
Q 16.703125 27.09375 16.703125 20.515625 
Q 16.703125 13.921875 20.71875 10.15625 
Q 24.75 6.390625 31.78125 6.390625 
Q 38.8125 6.390625 42.859375 10.171875 
Q 46.921875 13.96875 46.921875 20.515625 
Q 46.921875 27.09375 42.890625 30.859375 
Q 38.875 34.625 31.78125 34.625 
z
M 21.921875 38.8125 
Q 15.578125 40.375 12.03125 44.71875 
Q 8.5 49.078125 8.5 55.328125 
Q 8.5 64.0625 14.71875 69.140625 
Q 20.953125 74.21875 31.78125 74.21875 
Q 42.671875 74.21875 48.875 69.140625 
Q 55.078125 64.0625 55.078125 55.328125 
Q 55.078125 49.078125 51.53125 44.71875 
Q 48 40.375 41.703125 38.8125 
Q 48.828125 37.15625 52.796875 32.3125 
Q 56.78125 27.484375 56.78125 20.515625 
Q 56.78125 9.90625 50.3125 4.234375 
Q 43.84375 -1.421875 31.78125 -1.421875 
Q 19.734375 -1.421875 13.25 4.234375 
Q 6.78125 9.90625 6.78125 20.515625 
Q 6.78125 27.484375 10.78125 32.3125 
Q 14.796875 37.15625 21.921875 38.8125 
z
M 18.3125 54.390625 
Q 18.3125 48.734375 21.84375 45.5625 
Q 25.390625 42.390625 31.78125 42.390625 
Q 38.140625 42.390625 41.71875 45.5625 
Q 45.3125 48.734375 45.3125 54.390625 
Q 45.3125 60.0625 41.71875 63.234375 
Q 38.140625 66.40625 31.78125 66.40625 
Q 25.390625 66.40625 21.84375 63.234375 
Q 18.3125 60.0625 18.3125 54.390625 
z
" id="DejaVuSans-56"/>
      </defs>
      <g transform="translate(447.988438 463.158437)scale(0.1 -0.1)">
       <use xlink:href="#DejaVuSans-48"/>
       <use x="63.623047" xlink:href="#DejaVuSans-46"/>
       <use x="95.410156" xlink:href="#DejaVuSans-56"/>
      </g>
     </g>
    </g>
    <g id="xtick_10">
     <g id="line2d_19">
      <path clip-path="url(#p1f70cf2bf6)" d="M 503.37 448.56 
L 503.37 60.48 
" style="fill:none;stroke:#b0b0b0;stroke-linecap:square;stroke-width:0.8;"/>
     </g>
     <g id="line2d_20">
      <g>
       <use style="stroke:#000000;stroke-width:0.8;" x="503.37" xlink:href="#m9c06428e9f" y="448.56"/>
      </g>
     </g>
     <g id="text_10">
      <!-- 0.9 -->
      <defs>
       <path d="M 10.984375 1.515625 
L 10.984375 10.5 
Q 14.703125 8.734375 18.5 7.8125 
Q 22.3125 6.890625 25.984375 6.890625 
Q 35.75 6.890625 40.890625 13.453125 
Q 46.046875 20.015625 46.78125 33.40625 
Q 43.953125 29.203125 39.59375 26.953125 
Q 35.25 24.703125 29.984375 24.703125 
Q 19.046875 24.703125 12.671875 31.3125 
Q 6.296875 37.9375 6.296875 49.421875 
Q 6.296875 60.640625 12.9375 67.421875 
Q 19.578125 74.21875 30.609375 74.21875 
Q 43.265625 74.21875 49.921875 64.515625 
Q 56.59375 54.828125 56.59375 36.375 
Q 56.59375 19.140625 48.40625 8.859375 
Q 40.234375 -1.421875 26.421875 -1.421875 
Q 22.703125 -1.421875 18.890625 -0.6875 
Q 15.09375 0.046875 10.984375 1.515625 
z
M 30.609375 32.421875 
Q 37.25 32.421875 41.125 36.953125 
Q 45.015625 41.5 45.015625 49.421875 
Q 45.015625 57.28125 41.125 61.84375 
Q 37.25 66.40625 30.609375 66.40625 
Q 23.96875 66.40625 20.09375 61.84375 
Q 16.21875 57.28125 16.21875 49.421875 
Q 16.21875 41.5 20.09375 36.953125 
Q 23.96875 32.421875 30.609375 32.421875 
z
" id="DejaVuSans-57"/>
      </defs>
      <g transform="translate(495.418438 463.158437)scale(0.1 -0.1)">
       <use xlink:href="#DejaVuSans-48"/>
       <use x="63.623047" xlink:href="#DejaVuSans-46"/>
       <use x="95.410156" xlink:href="#DejaVuSans-57"/>
      </g>
     </g>
    </g>
    <g id="xtick_11">
     <g id="line2d_21">
      <path clip-path="url(#p1f70cf2bf6)" d="M 550.8 448.56 
L 550.8 60.48 
" style="fill:none;stroke:#b0b0b0;stroke-linecap:square;stroke-width:0.8;"/>
     </g>
     <g id="line2d_22">
      <g>
       <use style="stroke:#000000;stroke-width:0.8;" x="550.8" xlink:href="#m9c06428e9f" y="448.56"/>
      </g>
     </g>
     <g id="text_11">
      <!-- 1.0 -->
      <g transform="translate(542.848438 463.158437)scale(0.1 -0.1)">
       <use xlink:href="#DejaVuSans-49"/>
       <use x="63.623047" xlink:href="#DejaVuSans-46"/>
       <use x="95.410156" xlink:href="#DejaVuSans-48"/>
      </g>
     </g>
    </g>
    <g id="text_12">
     <!-- 1-precision -->
     <defs>
      <path d="M 4.890625 31.390625 
L 31.203125 31.390625 
L 31.203125 23.390625 
L 4.890625 23.390625 
z
" id="DejaVuSans-45"/>
      <path d="M 18.109375 8.203125 
L 18.109375 -20.796875 
L 9.078125 -20.796875 
L 9.078125 54.6875 
L 18.109375 54.6875 
L 18.109375 46.390625 
Q 20.953125 51.265625 25.265625 53.625 
Q 29.59375 56 35.59375 56 
Q 45.5625 56 51.78125 48.09375 
Q 58.015625 40.1875 58.015625 27.296875 
Q 58.015625 14.40625 51.78125 6.484375 
Q 45.5625 -1.421875 35.59375 -1.421875 
Q 29.59375 -1.421875 25.265625 0.953125 
Q 20.953125 3.328125 18.109375 8.203125 
z
M 48.6875 27.296875 
Q 48.6875 37.203125 44.609375 42.84375 
Q 40.53125 48.484375 33.40625 48.484375 
Q 26.265625 48.484375 22.1875 42.84375 
Q 18.109375 37.203125 18.109375 27.296875 
Q 18.109375 17.390625 22.1875 11.75 
Q 26.265625 6.109375 33.40625 6.109375 
Q 40.53125 6.109375 44.609375 11.75 
Q 48.6875 17.390625 48.6875 27.296875 
z
" id="DejaVuSans-112"/>
      <path d="M 41.109375 46.296875 
Q 39.59375 47.171875 37.8125 47.578125 
Q 36.03125 48 33.890625 48 
Q 26.265625 48 22.1875 43.046875 
Q 18.109375 38.09375 18.109375 28.8125 
L 18.109375 0 
L 9.078125 0 
L 9.078125 54.6875 
L 18.109375 54.6875 
L 18.109375 46.1875 
Q 20.953125 51.171875 25.484375 53.578125 
Q 30.03125 56 36.53125 56 
Q 37.453125 56 38.578125 55.875 
Q 39.703125 55.765625 41.0625 55.515625 
z
" id="DejaVuSans-114"/>
      <path d="M 56.203125 29.59375 
L 56.203125 25.203125 
L 14.890625 25.203125 
Q 15.484375 15.921875 20.484375 11.0625 
Q 25.484375 6.203125 34.421875 6.203125 
Q 39.59375 6.203125 44.453125 7.46875 
Q 49.3125 8.734375 54.109375 11.28125 
L 54.109375 2.78125 
Q 49.265625 0.734375 44.1875 -0.34375 
Q 39.109375 -1.421875 33.890625 -1.421875 
Q 20.796875 -1.421875 13.15625 6.1875 
Q 5.515625 13.8125 5.515625 26.8125 
Q 5.515625 40.234375 12.765625 48.109375 
Q 20.015625 56 32.328125 56 
Q 43.359375 56 49.78125 48.890625 
Q 56.203125 41.796875 56.203125 29.59375 
z
M 47.21875 32.234375 
Q 47.125 39.59375 43.09375 43.984375 
Q 39.0625 48.390625 32.421875 48.390625 
Q 24.90625 48.390625 20.390625 44.140625 
Q 15.875 39.890625 15.1875 32.171875 
z
" id="DejaVuSans-101"/>
      <path d="M 48.78125 52.59375 
L 48.78125 44.1875 
Q 44.96875 46.296875 41.140625 47.34375 
Q 37.3125 48.390625 33.40625 48.390625 
Q 24.65625 48.390625 19.8125 42.84375 
Q 14.984375 37.3125 14.984375 27.296875 
Q 14.984375 17.28125 19.8125 11.734375 
Q 24.65625 6.203125 33.40625 6.203125 
Q 37.3125 6.203125 41.140625 7.25 
Q 44.96875 8.296875 48.78125 10.40625 
L 48.78125 2.09375 
Q 45.015625 0.34375 40.984375 -0.53125 
Q 36.96875 -1.421875 32.421875 -1.421875 
Q 20.0625 -1.421875 12.78125 6.34375 
Q 5.515625 14.109375 5.515625 27.296875 
Q 5.515625 40.671875 12.859375 48.328125 
Q 20.21875 56 33.015625 56 
Q 37.15625 56 41.109375 55.140625 
Q 45.0625 54.296875 48.78125 52.59375 
z
" id="DejaVuSans-99"/>
      <path d="M 9.421875 54.6875 
L 18.40625 54.6875 
L 18.40625 0 
L 9.421875 0 
z
M 9.421875 75.984375 
L 18.40625 75.984375 
L 18.40625 64.59375 
L 9.421875 64.59375 
z
" id="DejaVuSans-105"/>
      <path d="M 44.28125 53.078125 
L 44.28125 44.578125 
Q 40.484375 46.53125 36.375 47.5 
Q 32.28125 48.484375 27.875 48.484375 
Q 21.1875 48.484375 17.84375 46.4375 
Q 14.5 44.390625 14.5 40.28125 
Q 14.5 37.15625 16.890625 35.375 
Q 19.28125 33.59375 26.515625 31.984375 
L 29.59375 31.296875 
Q 39.15625 29.25 43.1875 25.515625 
Q 47.21875 21.78125 47.21875 15.09375 
Q 47.21875 7.46875 41.1875 3.015625 
Q 35.15625 -1.421875 24.609375 -1.421875 
Q 20.21875 -1.421875 15.453125 -0.5625 
Q 10.6875 0.296875 5.421875 2 
L 5.421875 11.28125 
Q 10.40625 8.6875 15.234375 7.390625 
Q 20.0625 6.109375 24.8125 6.109375 
Q 31.15625 6.109375 34.5625 8.28125 
Q 37.984375 10.453125 37.984375 14.40625 
Q 37.984375 18.0625 35.515625 20.015625 
Q 33.0625 21.96875 24.703125 23.78125 
L 21.578125 24.515625 
Q 13.234375 26.265625 9.515625 29.90625 
Q 5.8125 33.546875 5.8125 39.890625 
Q 5.8125 47.609375 11.28125 51.796875 
Q 16.75 56 26.8125 56 
Q 31.78125 56 36.171875 55.265625 
Q 40.578125 54.546875 44.28125 53.078125 
z
" id="DejaVuSans-115"/>
      <path d="M 30.609375 48.390625 
Q 23.390625 48.390625 19.1875 42.75 
Q 14.984375 37.109375 14.984375 27.296875 
Q 14.984375 17.484375 19.15625 11.84375 
Q 23.34375 6.203125 30.609375 6.203125 
Q 37.796875 6.203125 41.984375 11.859375 
Q 46.1875 17.53125 46.1875 27.296875 
Q 46.1875 37.015625 41.984375 42.703125 
Q 37.796875 48.390625 30.609375 48.390625 
z
M 30.609375 56 
Q 42.328125 56 49.015625 48.375 
Q 55.71875 40.765625 55.71875 27.296875 
Q 55.71875 13.875 49.015625 6.21875 
Q 42.328125 -1.421875 30.609375 -1.421875 
Q 18.84375 -1.421875 12.171875 6.21875 
Q 5.515625 13.875 5.515625 27.296875 
Q 5.515625 40.765625 12.171875 48.375 
Q 18.84375 56 30.609375 56 
z
" id="DejaVuSans-111"/>
      <path d="M 54.890625 33.015625 
L 54.890625 0 
L 45.90625 0 
L 45.90625 32.71875 
Q 45.90625 40.484375 42.875 44.328125 
Q 39.84375 48.1875 33.796875 48.1875 
Q 26.515625 48.1875 22.3125 43.546875 
Q 18.109375 38.921875 18.109375 30.90625 
L 18.109375 0 
L 9.078125 0 
L 9.078125 54.6875 
L 18.109375 54.6875 
L 18.109375 46.1875 
Q 21.34375 51.125 25.703125 53.5625 
Q 30.078125 56 35.796875 56 
Q 45.21875 56 50.046875 50.171875 
Q 54.890625 44.34375 54.890625 33.015625 
z
" id="DejaVuSans-110"/>
     </defs>
     <g transform="translate(286.110938 476.836563)scale(0.1 -0.1)">
      <use xlink:href="#DejaVuSans-49"/>
      <use x="63.623047" xlink:href="#DejaVuSans-45"/>
      <use x="99.707031" xlink:href="#DejaVuSans-112"/>
      <use x="163.183594" xlink:href="#DejaVuSans-114"/>
      <use x="202.046875" xlink:href="#DejaVuSans-101"/>
      <use x="263.570312" xlink:href="#DejaVuSans-99"/>
      <use x="318.550781" xlink:href="#DejaVuSans-105"/>
      <use x="346.333984" xlink:href="#DejaVuSans-115"/>
      <use x="398.433594" xlink:href="#DejaVuSans-105"/>
      <use x="426.216797" xlink:href="#DejaVuSans-111"/>
      <use x="487.398438" xlink:href="#DejaVuSans-110"/>
     </g>
    </g>
   </g>
   <g id="matplotlib.axis_2">
    <g id="ytick_1">
     <g id="line2d_23">
      <path clip-path="url(#p1f70cf2bf6)" d="M 76.5 448.56 
L 550.8 448.56 
" style="fill:none;stroke:#b0b0b0;stroke-linecap:square;stroke-width:0.8;"/>
     </g>
     <g id="line2d_24">
      <defs>
       <path d="M 0 0 
L -3.5 0 
" id="m7bedce6a6e" style="stroke:#000000;stroke-width:0.8;"/>
      </defs>
      <g>
       <use style="stroke:#000000;stroke-width:0.8;" x="76.5" xlink:href="#m7bedce6a6e" y="448.56"/>
      </g>
     </g>
     <g id="text_13">
      <!-- 0.0 -->
      <g transform="translate(53.596875 452.359219)scale(0.1 -0.1)">
       <use xlink:href="#DejaVuSans-48"/>
       <use x="63.623047" xlink:href="#DejaVuSans-46"/>
       <use x="95.410156" xlink:href="#DejaVuSans-48"/>
      </g>
     </g>
    </g>
    <g id="ytick_2">
     <g id="line2d_25">
      <path clip-path="url(#p1f70cf2bf6)" d="M 76.5 409.752 
L 550.8 409.752 
" style="fill:none;stroke:#b0b0b0;stroke-linecap:square;stroke-width:0.8;"/>
     </g>
     <g id="line2d_26">
      <g>
       <use style="stroke:#000000;stroke-width:0.8;" x="76.5" xlink:href="#m7bedce6a6e" y="409.752"/>
      </g>
     </g>
     <g id="text_14">
      <!-- 0.1 -->
      <g transform="translate(53.596875 413.551219)scale(0.1 -0.1)">
       <use xlink:href="#DejaVuSans-48"/>
       <use x="63.623047" xlink:href="#DejaVuSans-46"/>
       <use x="95.410156" xlink:href="#DejaVuSans-49"/>
      </g>
     </g>
    </g>
    <g id="ytick_3">
     <g id="line2d_27">
      <path clip-path="url(#p1f70cf2bf6)" d="M 76.5 370.944 
L 550.8 370.944 
" style="fill:none;stroke:#b0b0b0;stroke-linecap:square;stroke-width:0.8;"/>
     </g>
     <g id="line2d_28">
      <g>
       <use style="stroke:#000000;stroke-width:0.8;" x="76.5" xlink:href="#m7bedce6a6e" y="370.944"/>
      </g>
     </g>
     <g id="text_15">
      <!-- 0.2 -->
      <g transform="translate(53.596875 374.743219)scale(0.1 -0.1)">
       <use xlink:href="#DejaVuSans-48"/>
       <use x="63.623047" xlink:href="#DejaVuSans-46"/>
       <use x="95.410156" xlink:href="#DejaVuSans-50"/>
      </g>
     </g>
    </g>
    <g id="ytick_4">
     <g id="line2d_29">
      <path clip-path="url(#p1f70cf2bf6)" d="M 76.5 332.136 
L 550.8 332.136 
" style="fill:none;stroke:#b0b0b0;stroke-linecap:square;stroke-width:0.8;"/>
     </g>
     <g id="line2d_30">
      <g>
       <use style="stroke:#000000;stroke-width:0.8;" x="76.5" xlink:href="#m7bedce6a6e" y="332.136"/>
      </g>
     </g>
     <g id="text_16">
      <!-- 0.3 -->
      <g transform="translate(53.596875 335.935219)scale(0.1 -0.1)">
       <use xlink:href="#DejaVuSans-48"/>
       <use x="63.623047" xlink:href="#DejaVuSans-46"/>
       <use x="95.410156" xlink:href="#DejaVuSans-51"/>
      </g>
     </g>
    </g>
    <g id="ytick_5">
     <g id="line2d_31">
      <path clip-path="url(#p1f70cf2bf6)" d="M 76.5 293.328 
L 550.8 293.328 
" style="fill:none;stroke:#b0b0b0;stroke-linecap:square;stroke-width:0.8;"/>
     </g>
     <g id="line2d_32">
      <g>
       <use style="stroke:#000000;stroke-width:0.8;" x="76.5" xlink:href="#m7bedce6a6e" y="293.328"/>
      </g>
     </g>
     <g id="text_17">
      <!-- 0.4 -->
      <g transform="translate(53.596875 297.127219)scale(0.1 -0.1)">
       <use xlink:href="#DejaVuSans-48"/>
       <use x="63.623047" xlink:href="#DejaVuSans-46"/>
       <use x="95.410156" xlink:href="#DejaVuSans-52"/>
      </g>
     </g>
    </g>
    <g id="ytick_6">
     <g id="line2d_33">
      <path clip-path="url(#p1f70cf2bf6)" d="M 76.5 254.52 
L 550.8 254.52 
" style="fill:none;stroke:#b0b0b0;stroke-linecap:square;stroke-width:0.8;"/>
     </g>
     <g id="line2d_34">
      <g>
       <use style="stroke:#000000;stroke-width:0.8;" x="76.5" xlink:href="#m7bedce6a6e" y="254.52"/>
      </g>
     </g>
     <g id="text_18">
      <!-- 0.5 -->
      <g transform="translate(53.596875 258.319219)scale(0.1 -0.1)">
       <use xlink:href="#DejaVuSans-48"/>
       <use x="63.623047" xlink:href="#DejaVuSans-46"/>
       <use x="95.410156" xlink:href="#DejaVuSans-53"/>
      </g>
     </g>
    </g>
    <g id="ytick_7">
     <g id="line2d_35">
      <path clip-path="url(#p1f70cf2bf6)" d="M 76.5 215.712 
L 550.8 215.712 
" style="fill:none;stroke:#b0b0b0;stroke-linecap:square;stroke-width:0.8;"/>
     </g>
     <g id="line2d_36">
      <g>
       <use style="stroke:#000000;stroke-width:0.8;" x="76.5" xlink:href="#m7bedce6a6e" y="215.712"/>
      </g>
     </g>
     <g id="text_19">
      <!-- 0.6 -->
      <g transform="translate(53.596875 219.511219)scale(0.1 -0.1)">
       <use xlink:href="#DejaVuSans-48"/>
       <use x="63.623047" xlink:href="#DejaVuSans-46"/>
       <use x="95.410156" xlink:href="#DejaVuSans-54"/>
      </g>
     </g>
    </g>
    <g id="ytick_8">
     <g id="line2d_37">
      <path clip-path="url(#p1f70cf2bf6)" d="M 76.5 176.904 
L 550.8 176.904 
" style="fill:none;stroke:#b0b0b0;stroke-linecap:square;stroke-width:0.8;"/>
     </g>
     <g id="line2d_38">
      <g>
       <use style="stroke:#000000;stroke-width:0.8;" x="76.5" xlink:href="#m7bedce6a6e" y="176.904"/>
      </g>
     </g>
     <g id="text_20">
      <!-- 0.7 -->
      <g transform="translate(53.596875 180.703219)scale(0.1 -0.1)">
       <use xlink:href="#DejaVuSans-48"/>
       <use x="63.623047" xlink:href="#DejaVuSans-46"/>
       <use x="95.410156" xlink:href="#DejaVuSans-55"/>
      </g>
     </g>
    </g>
    <g id="ytick_9">
     <g id="line2d_39">
      <path clip-path="url(#p1f70cf2bf6)" d="M 76.5 138.096 
L 550.8 138.096 
" style="fill:none;stroke:#b0b0b0;stroke-linecap:square;stroke-width:0.8;"/>
     </g>
     <g id="line2d_40">
      <g>
       <use style="stroke:#000000;stroke-width:0.8;" x="76.5" xlink:href="#m7bedce6a6e" y="138.096"/>
      </g>
     </g>
     <g id="text_21">
      <!-- 0.8 -->
      <g transform="translate(53.596875 141.895219)scale(0.1 -0.1)">
       <use xlink:href="#DejaVuSans-48"/>
       <use x="63.623047" xlink:href="#DejaVuSans-46"/>
       <use x="95.410156" xlink:href="#DejaVuSans-56"/>
      </g>
     </g>
    </g>
    <g id="ytick_10">
     <g id="line2d_41">
      <path clip-path="url(#p1f70cf2bf6)" d="M 76.5 99.288 
L 550.8 99.288 
" style="fill:none;stroke:#b0b0b0;stroke-linecap:square;stroke-width:0.8;"/>
     </g>
     <g id="line2d_42">
      <g>
       <use style="stroke:#000000;stroke-width:0.8;" x="76.5" xlink:href="#m7bedce6a6e" y="99.288"/>
      </g>
     </g>
     <g id="text_22">
      <!-- 0.9 -->
      <g transform="translate(53.596875 103.087219)scale(0.1 -0.1)">
       <use xlink:href="#DejaVuSans-48"/>
       <use x="63.623047" xlink:href="#DejaVuSans-46"/>
       <use x="95.410156" xlink:href="#DejaVuSans-57"/>
      </g>
     </g>
    </g>
    <g id="ytick_11">
     <g id="line2d_43">
      <path clip-path="url(#p1f70cf2bf6)" d="M 76.5 60.48 
L 550.8 60.48 
" style="fill:none;stroke:#b0b0b0;stroke-linecap:square;stroke-width:0.8;"/>
     </g>
     <g id="line2d_44">
      <g>
       <use style="stroke:#000000;stroke-width:0.8;" x="76.5" xlink:href="#m7bedce6a6e" y="60.48"/>
      </g>
     </g>
     <g id="text_23">
      <!-- 1.0 -->
      <g transform="translate(53.596875 64.279219)scale(0.1 -0.1)">
       <use xlink:href="#DejaVuSans-49"/>
       <use x="63.623047" xlink:href="#DejaVuSans-46"/>
       <use x="95.410156" xlink:href="#DejaVuSans-48"/>
      </g>
     </g>
    </g>
    <g id="text_24">
     <!-- #correct/1258 -->
     <defs>
      <path d="M 51.125 44 
L 36.921875 44 
L 32.8125 27.6875 
L 47.125 27.6875 
z
M 43.796875 71.78125 
L 38.71875 51.515625 
L 52.984375 51.515625 
L 58.109375 71.78125 
L 65.921875 71.78125 
L 60.890625 51.515625 
L 76.125 51.515625 
L 76.125 44 
L 58.984375 44 
L 54.984375 27.6875 
L 70.515625 27.6875 
L 70.515625 20.21875 
L 53.078125 20.21875 
L 48 0 
L 40.1875 0 
L 45.21875 20.21875 
L 30.90625 20.21875 
L 25.875 0 
L 18.015625 0 
L 23.09375 20.21875 
L 7.71875 20.21875 
L 7.71875 27.6875 
L 24.90625 27.6875 
L 29 44 
L 13.28125 44 
L 13.28125 51.515625 
L 30.90625 51.515625 
L 35.890625 71.78125 
z
" id="DejaVuSans-35"/>
      <path d="M 18.3125 70.21875 
L 18.3125 54.6875 
L 36.8125 54.6875 
L 36.8125 47.703125 
L 18.3125 47.703125 
L 18.3125 18.015625 
Q 18.3125 11.328125 20.140625 9.421875 
Q 21.96875 7.515625 27.59375 7.515625 
L 36.8125 7.515625 
L 36.8125 0 
L 27.59375 0 
Q 17.1875 0 13.234375 3.875 
Q 9.28125 7.765625 9.28125 18.015625 
L 9.28125 47.703125 
L 2.6875 47.703125 
L 2.6875 54.6875 
L 9.28125 54.6875 
L 9.28125 70.21875 
z
" id="DejaVuSans-116"/>
      <path d="M 25.390625 72.90625 
L 33.6875 72.90625 
L 8.296875 -9.28125 
L 0 -9.28125 
z
" id="DejaVuSans-47"/>
     </defs>
     <g transform="translate(47.517187 290.624688)rotate(-90)scale(0.1 -0.1)">
      <use xlink:href="#DejaVuSans-35"/>
      <use x="83.789062" xlink:href="#DejaVuSans-99"/>
      <use x="138.769531" xlink:href="#DejaVuSans-111"/>
      <use x="199.951172" xlink:href="#DejaVuSans-114"/>
      <use x="239.314453" xlink:href="#DejaVuSans-114"/>
      <use x="278.177734" xlink:href="#DejaVuSans-101"/>
      <use x="339.701172" xlink:href="#DejaVuSans-99"/>
      <use x="394.681641" xlink:href="#DejaVuSans-116"/>
      <use x="433.890625" xlink:href="#DejaVuSans-47"/>
      <use x="467.582031" xlink:href="#DejaVuSans-49"/>
      <use x="531.205078" xlink:href="#DejaVuSans-50"/>
      <use x="594.828125" xlink:href="#DejaVuSans-53"/>
      <use x="658.451172" xlink:href="#DejaVuSans-56"/>
     </g>
    </g>
   </g>
   <g id="line2d_45">
    <path clip-path="url(#p1f70cf2bf6)" d="M 76.5 448.25151 
L 76.5 267.476566 
L 77.306633 267.476566 
L 77.243417 252.052083 
L 77.984507 252.052083 
L 77.975272 250.818124 
L 78.709472 250.818124 
L 78.669055 247.116248 
L 79.387671 247.116248 
L 79.07422 222.437075 
L 79.713415 222.437075 
L 79.696092 221.203116 
L 80.330148 221.203116 
L 80.205469 213.490874 
L 80.817425 213.490874 
L 80.795084 212.256916 
L 81.402326 212.256916 
L 81.333631 208.863529 
L 81.930916 208.863529 
L 81.835875 204.544674 
L 82.421348 204.544674 
L 82.221351 195.906963 
L 82.785904 195.906963 
L 82.630787 189.42868 
L 83.180282 189.42868 
L 82.960386 180.48248 
L 83.490816 180.48248 
L 83.459255 179.248521 
L 83.986133 179.248521 
L 83.845354 174.004197 
L 84.876159 174.004197 
L 84.802845 171.53628 
L 85.312131 171.53628 
L 84.864212 156.420286 
L 85.347047 156.420286 
L 85.337888 156.111797 
L 85.819235 156.111797 
L 85.723849 153.0269 
L 86.199387 153.0269 
L 86.12069 150.558983 
L 86.591489 150.558983 
L 86.400895 144.697679 
L 86.862066 144.697679 
L 86.831287 143.77221 
L 87.290208 143.77221 
L 87.17407 140.378824 
L 87.627273 140.378824 
L 87.605561 139.761844 
L 88.057018 139.761844 
L 87.989826 137.910906 
L 88.88501 137.910906 
L 88.813558 136.059968 
L 89.257349 136.059968 
L 89.208517 134.82601 
L 89.649809 134.82601 
L 89.599714 133.592051 
L 90.038535 133.592051 
L 90.025665 133.283561 
L 90.9 133.283561 
L 90.872727 132.666582 
L 91.307852 132.666582 
L 91.265943 131.741113 
L 92.131356 131.741113 
L 92.014486 129.273196 
L 92.442857 129.273196 
L 92.368773 127.730747 
L 92.794429 127.730747 
L 92.629688 124.337361 
L 93.050413 124.337361 
L 93.020073 123.720382 
L 93.439286 123.720382 
L 93.209756 119.093037 
L 93.622744 119.093037 
L 93.607304 118.784547 
L 94.019189 118.784547 
L 94.00342 118.476057 
L 94.414209 118.476057 
L 94.35 117.242099 
L 94.758639 117.242099 
L 94.742308 116.933609 
L 95.149866 116.933609 
L 95.0504 115.082671 
L 95.859184 115.082671 
L 95.824889 114.465692 
L 97.030654 114.465692 
L 96.904478 112.306264 
L 97.302632 112.306264 
L 97.068083 108.295898 
L 97.461265 108.295898 
L 97.425 107.678919 
L 97.816854 107.678919 
L 97.798446 107.370429 
L 98.189301 107.370429 
L 98.114703 106.136471 
L 98.891845 106.136471 
L 98.834332 105.211002 
L 99.220958 105.211002 
L 99.201538 104.902512 
L 99.58719 104.902512 
L 99.547826 104.285533 
L 99.932198 104.285533 
L 99.872472 103.360064 
L 101.018898 103.360064 
L 100.977411 102.743084 
L 101.35765 102.743084 
L 101.336655 102.434595 
L 102.094604 102.434595 
L 102.030025 101.509126 
L 102.783627 101.509126 
L 102.761577 101.200636 
L 103.137133 101.200636 
L 103.114824 100.892146 
L 104.236842 100.892146 
L 104.121464 99.349698 
L 104.492768 99.349698 
L 104.446307 98.732719 
L 104.816418 98.732719 
L 104.769536 98.115739 
L 105.138462 98.115739 
L 105.114793 97.80725 
L 105.482824 97.80725 
L 105.387407 96.573291 
L 106.119392 96.573291 
L 106.095074 96.264801 
L 106.459885 96.264801 
L 106.410811 95.647822 
L 107.137531 95.647822 
L 106.987958 93.796884 
L 107.34878 93.796884 
L 107.298701 93.179905 
L 108.017504 93.179905 
L 107.966505 92.562925 
L 108.324495 92.562925 
L 108.298788 92.254436 
L 109.0125 92.254436 
L 108.907958 91.020477 
L 109.262892 91.020477 
L 109.236597 90.711987 
L 110.6496 90.711987 
L 110.595048 90.095008 
L 111.297129 90.095008 
L 111.24172 89.478029 
L 111.940541 89.478029 
L 111.912391 89.169539 
L 112.260714 89.169539 
L 112.175772 88.24407 
L 112.869249 88.24407 
L 112.811839 87.627091 
L 113.157256 87.627091 
L 113.128369 87.318601 
L 113.472992 87.318601 
L 113.443902 87.010111 
L 113.787736 87.010111 
L 113.758445 86.701622 
L 114.444 86.701622 
L 114.414263 86.393132 
L 115.097183 86.393132 
L 115.067005 86.084642 
L 118.111724 86.084642 
L 118.047209 85.467663 
L 118.382417 85.467663 
L 118.35 85.159173 
L 119.018393 85.159173 
L 118.952778 84.542194 
L 119.618182 84.542194 
L 119.551846 83.925215 
L 119.883321 83.925215 
L 119.816731 83.308235 
L 121.46422 83.308235 
L 121.42987 82.999746 
L 124.038041 82.999746 
L 123.965959 82.382766 
L 124.289318 82.382766 
L 124.21702 81.765787 
L 127.101503 81.765787 
L 127.063514 81.457297 
L 127.381395 81.457297 
L 127.343253 81.148808 
L 127.977171 81.148808 
L 127.938669 80.840318 
L 128.570276 80.840318 
L 128.531418 80.531828 
L 129.16073 80.531828 
L 129.121519 80.223339 
L 129.74855 80.223339 
L 129.70899 79.914849 
L 130.645441 79.914849 
L 130.605333 79.606359 
L 133.388079 79.606359 
L 133.304482 78.98938 
L 133.611013 78.98938 
L 133.569112 78.68089 
L 135.094079 78.68089 
L 135.051278 78.372401 
L 135.354745 78.372401 
L 135.183406 77.138442 
L 136.088889 77.138442 
L 136.045646 76.829952 
L 136.34641 76.829952 
L 136.259739 76.212973 
L 141.007516 76.212973 
L 140.915297 75.595994 
L 142.375 75.595994 
L 142.281294 74.979014 
L 142.861577 74.979014 
L 142.767447 74.362035 
L 144.496398 74.362035 
L 144.448412 74.053545 
L 145.592259 74.053545 
L 145.543671 73.745056 
L 146.680435 73.745056 
L 146.631254 73.436566 
L 147.761006 73.436566 
L 147.711243 73.128076 
L 148.273431 73.128076 
L 148.223415 72.819587 
L 148.783716 72.819587 
L 148.733449 72.511097 
L 150.681176 72.511097 
L 150.578645 71.894118 
L 151.131056 71.894118 
L 151.079586 71.585628 
L 154.902049 71.585628 
L 154.848532 71.277138 
L 159.390486 71.277138 
L 159.334592 70.968649 
L 160.65 70.968649 
L 160.593486 70.660159 
L 169.304596 70.660159 
L 169.243701 70.351669 
L 169.743775 70.351669 
L 169.682711 70.04318 
L 171.174364 70.04318 
L 171.112647 69.73469 
L 172.591948 69.73469 
L 172.529591 69.4262 
L 173.019896 69.4262 
L 172.957383 69.117711 
L 174.662669 69.117711 
L 174.59942 68.809221 
L 175.083591 68.809221 
L 174.956877 68.192242 
L 177.833227 68.192242 
L 177.768642 67.883752 
L 179.661002 67.883752 
L 179.595627 67.575262 
L 182.628724 67.575262 
L 182.56206 67.266773 
L 185.544673 67.266773 
L 185.476775 66.958283 
L 190.192071 66.958283 
L 190.122236 66.649793 
L 195.577132 66.649793 
L 195.505139 66.341304 
L 198.48723 66.341304 
L 198.41414 66.032814 
L 212.793103 66.032814 
L 212.714819 65.724324 
L 217.689474 65.724324 
L 217.609615 65.415835 
L 263.863517 65.415835 
L 263.772298 65.107345 
L 270.193194 65.107345 
L 270.101047 64.798855 
L 272.089939 64.798855 
L 272.089939 64.798855 
" style="fill:none;stroke:#1f77b4;stroke-linecap:square;stroke-width:2;"/>
   </g>
   <g id="line2d_46">
    <path clip-path="url(#p1f70cf2bf6)" d="M 76.5 448.25151 
L 76.5 435.294944 
L 87.279545 435.294944 
L 86.38125 434.060986 
L 95.859184 434.060986 
L 94.066667 432.518537 
L 92.577966 430.976089 
L 100.215 430.976089 
L 98.732812 429.74213 
L 105.687692 429.74213 
L 103.221127 427.891192 
L 101.138961 426.040254 
L 99.085714 423.880827 
L 97.348352 421.721399 
L 96.9 421.10442 
L 101.728723 421.10442 
L 99.75 418.636502 
L 98.059091 416.168585 
L 96.428571 413.392178 
L 94.883721 410.307281 
L 93.439286 406.913895 
L 92.101974 403.212019 
L 91.701923 401.97806 
L 94.626115 401.97806 
L 94.398113 401.361081 
L 97.250625 401.361081 
L 95.691329 397.350715 
L 94.254545 393.03186 
L 92.855172 388.096025 
L 91.523077 382.543211 
L 90.628085 378.224356 
L 92.577966 378.224356 
L 91.617131 373.597011 
L 93.439286 373.597011 
L 93.24 372.671542 
L 95.027344 372.671542 
L 94.330827 369.586645 
L 97.737313 369.586645 
L 97.047292 366.810238 
L 98.679496 366.810238 
L 97.121739 360.331955 
L 96.074286 355.396121 
L 97.513291 355.396121 
L 97.185981 353.853672 
L 98.59472 353.853672 
L 97.548817 348.917838 
L 98.885841 348.917838 
L 98.496522 347.0669 
L 99.803757 347.0669 
L 99.406534 345.215962 
L 100.685269 345.215962 
L 100.019008 342.131065 
L 101.257418 342.131065 
L 100.215 337.195231 
L 101.397638 337.195231 
L 100.097015 330.716948 
L 101.215385 330.716948 
L 99.609745 322.079237 
L 98.983747 318.377361 
L 100.001351 318.377361 
L 99.948539 318.068871 
L 100.959417 318.068871 
L 100.795991 317.143402 
L 101.796 317.143402 
L 101.739911 316.834913 
L 102.733407 316.834913 
L 102.165584 313.750016 
L 104.099353 313.750016 
L 103.631568 311.282099 
L 104.576956 311.282099 
L 104.225261 309.431161 
L 105.155625 309.431161 
L 104.628221 306.654754 
L 105.538776 306.654754 
L 105.362069 305.729285 
L 106.263765 305.729285 
L 105.33 300.79345 
L 107.070117 300.79345 
L 106.427151 297.400064 
L 107.275191 297.400064 
L 106.198343 291.53876 
L 107.829908 291.53876 
L 106.720885 285.368967 
L 107.505477 285.368967 
L 107.180245 283.518029 
L 107.95445 283.518029 
L 107.521343 281.050111 
L 108.28299 281.050111 
L 107.798985 278.273704 
L 109.293086 278.273704 
L 109.237879 277.965215 
L 109.98 277.965215 
L 109.590698 275.805787 
L 110.322388 275.805787 
L 109.662439 272.103911 
L 110.378571 272.103911 
L 110.323663 271.795421 
L 111.036408 271.795421 
L 110.324881 267.785056 
L 111.021835 267.785056 
L 110.85874 266.859587 
L 112.240031 266.859587 
L 111.796744 264.391669 
L 112.476316 264.391669 
L 111.501054 258.838855 
L 112.161654 258.838855 
L 112.001497 257.913386 
L 112.657399 257.913386 
L 112.603433 257.604897 
L 113.256483 257.604897 
L 113.201786 257.296407 
L 114.500297 257.296407 
L 113.727035 252.977552 
L 114.361393 252.977552 
L 114.251809 252.360572 
L 114.882659 252.360572 
L 114.827273 252.052083 
L 115.455476 252.052083 
L 115.287805 251.126614 
L 115.911748 251.126614 
L 115.410042 248.350207 
L 116.025 248.350207 
L 115.858228 247.424738 
L 117.078261 247.424738 
L 116.572438 244.648331 
L 117.173029 244.648331 
L 117.060828 244.031351 
L 118.254058 244.031351 
L 118.139506 243.414372 
L 119.323256 243.414372 
L 119.148229 242.488903 
L 119.73551 242.488903 
L 119.618182 241.871924 
L 120.202439 241.871924 
L 120.025506 240.946455 
L 120.606065 240.946455 
L 120.546703 240.637965 
L 121.125 240.637965 
L 120.243083 236.01062 
L 120.809605 236.01062 
L 120.693307 235.393641 
L 121.257012 235.393641 
L 121.14 234.776661 
L 121.700914 234.776661 
L 121.407782 233.234213 
L 122.518758 233.234213 
L 122.459302 232.925723 
L 123.012 232.925723 
L 122.952062 232.617234 
L 123.502703 232.617234 
L 123.261972 231.383275 
L 123.808696 231.383275 
L 123.32962 228.915358 
L 123.870038 228.915358 
L 123.631698 227.681399 
L 124.168342 227.681399 
L 124.048872 227.06442 
L 125.11575 227.06442 
L 124.45635 223.671033 
L 124.981404 223.671033 
L 124.74375 222.437075 
L 125.265239 222.437075 
L 125.205623 222.128585 
L 126.243659 222.128585 
L 126.122628 221.511606 
L 126.638639 221.511606 
L 126.517091 220.894626 
L 127.030751 220.894626 
L 126.426316 217.80973 
L 126.933333 217.80973 
L 126.87315 217.50124 
L 127.378427 217.50124 
L 127.317857 217.19275 
L 128.323753 217.19275 
L 128.262278 216.884261 
L 129.262367 216.884261 
L 129.075708 215.958792 
L 130.068 215.958792 
L 129.817096 214.724833 
L 130.309474 214.724833 
L 130.246612 214.416343 
L 130.73734 214.416343 
L 130.54814 213.490874 
L 131.036237 213.490874 
L 130.846875 212.565405 
L 131.33237 212.565405 
L 131.205882 211.948426 
L 132.171577 211.948426 
L 131.916495 210.714467 
L 132.873943 210.714467 
L 132.553636 209.172019 
L 133.028377 209.172019 
L 132.836538 208.24655 
L 133.308814 208.24655 
L 131.992053 201.768267 
L 132.453804 201.768267 
L 132.330693 201.151288 
L 133.707237 201.151288 
L 133.644578 200.842798 
L 134.100985 200.842798 
L 133.477597 197.757901 
L 135.276401 197.757901 
L 134.4644 193.747536 
L 134.906369 193.747536 
L 134.353628 190.971129 
L 134.791071 190.971129 
L 134.425992 189.120191 
L 134.860167 189.120191 
L 134.497306 187.269253 
L 134.928261 187.269253 
L 134.867839 186.960763 
L 135.297521 186.960763 
L 134.636874 183.567377 
L 136.330315 183.567377 
L 135.907273 181.407949 
L 136.325933 181.407949 
L 136.265625 181.099459 
L 136.683082 181.099459 
L 136.321622 179.248521 
L 136.7361 179.248521 
L 136.675924 178.940032 
L 137.089222 178.940032 
L 136.908358 178.014563 
L 137.319781 178.014563 
L 136.95919 176.163625 
L 137.36772 176.163625 
L 137.068762 174.621176 
L 137.474779 174.621176 
L 137.117854 172.770238 
L 137.923466 172.770238 
L 137.448696 170.302321 
L 137.847683 170.302321 
L 137.670549 169.376852 
L 138.067788 169.376852 
L 138.008646 169.068362 
L 138.404798 169.068362 
L 138.227081 168.142893 
L 138.621511 168.142893 
L 138.562178 167.834404 
L 138.955534 167.834404 
L 138.77726 166.908935 
L 139.168916 166.908935 
L 139.05 166.291955 
L 139.440284 166.291955 
L 139.143396 164.749507 
L 139.918644 164.749507 
L 139.385714 161.9731 
L 140.534916 161.9731 
L 140.475349 161.66461 
L 140.856691 161.66461 
L 140.499815 159.813672 
L 140.87867 159.813672 
L 140.700829 158.888203 
L 141.078105 158.888203 
L 140.664899 156.728776 
L 141.039452 156.728776 
L 140.980566 156.420286 
L 141.354148 156.420286 
L 141.295082 156.111797 
L 141.667698 156.111797 
L 141.608455 155.803307 
L 141.980109 155.803307 
L 141.802174 154.877838 
L 142.910569 154.877838 
L 142.61196 153.33539 
L 142.978706 153.33539 
L 142.919031 153.0269 
L 143.284843 153.0269 
L 142.927386 151.175962 
L 143.290909 151.175962 
L 143.172064 150.558983 
L 143.5344 150.558983 
L 143.474867 150.250493 
L 144.197074 150.250493 
L 144.137112 149.942003 
L 144.496991 149.942003 
L 144.316946 149.016534 
L 144.675397 149.016534 
L 144.138583 146.240127 
L 144.848908 146.240127 
L 144.670296 145.314658 
L 145.376609 145.314658 
L 145.316768 145.006169 
L 146.370884 145.006169 
L 146.129534 143.77221 
L 146.827241 143.77221 
L 146.766667 143.46372 
L 147.461479 143.46372 
L 147.157705 141.921272 
L 147.502994 141.921272 
L 147.381725 141.304293 
L 147.725939 141.304293 
L 147.665217 140.995803 
L 148.008603 140.995803 
L 147.705344 139.453355 
L 148.046949 139.453355 
L 147.925888 138.836375 
L 148.945823 138.836375 
L 148.884739 138.527886 
L 149.561364 138.527886 
L 149.37733 137.602417 
L 149.714094 137.602417 
L 149.652724 137.293927 
L 149.988693 137.293927 
L 149.804511 136.368458 
L 150.473394 136.368458 
L 150.41175 136.059968 
L 150.745129 136.059968 
L 150.621696 135.442989 
L 150.95407 135.442989 
L 150.892282 135.134499 
L 151.55493 135.134499 
L 151.307019 133.900541 
L 151.636634 133.900541 
L 151.451111 132.975072 
L 152.107395 132.975072 
L 152.04532 132.666582 
L 153.675552 132.666582 
L 153.549551 132.049603 
L 154.197066 132.049603 
L 154.070627 131.432623 
L 154.715191 131.432623 
L 154.651705 131.124134 
L 154.972993 131.124134 
L 154.782524 130.198665 
L 155.422294 130.198665 
L 154.852686 127.422258 
L 155.169952 127.422258 
L 155.106966 127.113768 
L 155.42352 127.113768 
L 155.297444 126.496789 
L 155.613089 126.496789 
L 155.55 126.188299 
L 156.806757 126.188299 
L 156.425554 124.337361 
L 157.048578 124.337361 
L 156.985004 124.028871 
L 157.295584 124.028871 
L 157.231915 123.720382 
L 157.541811 123.720382 
L 157.478049 123.411892 
L 157.787264 123.411892 
L 157.153198 120.326995 
L 157.460016 120.326995 
L 157.396963 120.018506 
L 157.703113 120.018506 
L 157.639969 119.710016 
L 157.945455 119.710016 
L 157.88222 119.401526 
L 158.187044 119.401526 
L 157.934339 118.167568 
L 158.237944 118.167568 
L 158.111806 117.550588 
L 158.414572 117.550588 
L 158.1 116.00814 
L 158.401381 116.00814 
L 158.275862 115.391161 
L 158.576417 115.391161 
L 158.513619 115.082671 
L 159.112987 115.082671 
L 158.986957 114.465692 
L 160.178783 114.465692 
L 160.051708 113.848712 
L 160.939773 113.848712 
L 160.812027 113.231733 
L 163.449061 113.231733 
L 163.383784 112.923243 
L 163.964618 112.923243 
L 163.768362 111.997774 
L 164.346453 111.997774 
L 164.150075 111.072305 
L 164.437975 111.072305 
L 164.307212 110.455326 
L 164.594354 110.455326 
L 164.528953 110.146836 
L 165.672613 110.146836 
L 165.409373 108.912878 
L 166.543709 108.912878 
L 166.411389 108.295898 
L 167.256818 108.295898 
L 167.19033 107.987409 
L 168.869147 107.987409 
L 168.734596 107.370429 
L 169.290327 107.370429 
L 169.222892 107.06194 
L 169.776705 107.06194 
L 169.641522 106.44496 
L 169.917524 106.44496 
L 169.78243 105.827981 
L 170.607143 105.827981 
L 170.539293 105.519491 
L 171.36 105.519491 
L 171.291804 105.211002 
L 171.836683 105.211002 
L 171.768293 104.902512 
L 172.582248 104.902512 
L 172.513519 104.594022 
L 175.998795 104.594022 
L 175.857962 103.977043 
L 176.652331 103.977043 
L 176.511072 103.360064 
L 177.826212 103.360064 
L 177.755056 103.051574 
L 178.016842 103.051574 
L 177.945652 102.743084 
L 178.728411 102.743084 
L 178.656923 102.434595 
L 180.72726 102.434595 
L 180.65483 102.126105 
L 181.168563 102.126105 
L 181.095978 101.817615 
L 181.352183 101.817615 
L 181.279571 101.509126 
L 181.790664 101.509126 
L 181.717899 101.200636 
L 183.747216 101.200636 
L 183.673558 100.892146 
L 184.17716 100.892146 
L 184.103358 100.583657 
L 184.354521 100.583657 
L 184.206977 99.966677 
L 184.457553 99.966677 
L 184.16319 98.732719 
L 184.412943 98.732719 
L 184.339483 98.424229 
L 184.837729 98.424229 
L 184.76413 98.115739 
L 186.00325 98.115739 
L 185.929161 97.80725 
L 187.40438 97.80725 
L 187.329697 97.49876 
L 187.818561 97.49876 
L 187.74375 97.19027 
L 188.717091 97.19027 
L 188.641929 96.881781 
L 188.884337 96.881781 
L 188.809164 96.573291 
L 189.051136 96.573291 
L 188.975952 96.264801 
L 189.6996 96.264801 
L 189.624184 95.956312 
L 190.58412 95.956312 
L 190.432714 95.339332 
L 190.910338 95.339332 
L 190.83457 95.030843 
L 194.608781 95.030843 
L 194.531434 94.722353 
L 194.764594 94.722353 
L 194.532854 93.796884 
L 195.229596 93.796884 
L 195.152248 93.488394 
L 196.996176 93.488394 
L 196.918135 93.179905 
L 197.375938 93.179905 
L 197.297802 92.871415 
L 197.526163 92.871415 
L 197.448031 92.562925 
L 200.836957 92.562925 
L 200.678161 91.945946 
L 202.236236 91.945946 
L 202.156353 91.637456 
L 202.598794 91.637456 
L 202.518833 91.328967 
L 206.449279 91.328967 
L 206.367857 91.020477 
L 207.443535 91.020477 
L 207.361798 90.711987 
L 207.576045 90.711987 
L 207.41271 90.095008 
L 207.840075 90.095008 
L 207.758396 89.786518 
L 212.180663 89.786518 
L 212.097423 89.478029 
L 212.305089 89.478029 
L 212.221875 89.169539 
L 212.636291 89.169539 
L 212.553028 88.861049 
L 212.75978 88.861049 
L 212.676542 88.55256 
L 213.295061 88.55256 
L 213.2117 88.24407 
L 215.053091 88.24407 
L 214.96917 87.93558 
L 215.375499 87.93558 
L 215.291536 87.627091 
L 216.100965 87.627091 
L 216.016817 87.318601 
L 218.619797 87.318601 
L 218.534848 87.010111 
L 218.733333 87.010111 
L 218.648418 86.701622 
L 219.044544 86.701622 
L 218.959595 86.393132 
L 221.120782 86.393132 
L 221.035207 86.084642 
L 221.619551 86.084642 
L 221.533884 85.776153 
L 228.385665 85.776153 
L 228.29792 85.467663 
L 230.150316 85.467663 
L 230.062113 85.159173 
L 230.246127 85.159173 
L 230.15797 84.850684 
L 231.257314 84.850684 
L 231.168932 84.542194 
L 231.35137 84.542194 
L 231.263035 84.233704 
L 233.794737 84.233704 
L 233.705769 83.925215 
L 235.489201 83.925215 
L 235.399831 83.616725 
L 235.577022 83.616725 
L 235.487704 83.308235 
L 240.710988 83.308235 
L 240.620364 82.999746 
L 245.174388 82.999746 
L 244.991146 82.382766 
L 245.157166 82.382766 
L 244.974241 81.765787 
L 248.417855 81.765787 
L 248.325723 81.457297 
L 255.757135 81.457297 
L 255.66348 81.148808 
L 257.654541 81.148808 
L 257.560581 80.840318 
L 258.319089 80.840318 
L 258.225078 80.531828 
L 266.886352 80.531828 
L 266.790873 80.223339 
L 267.784408 80.223339 
L 267.688861 79.914849 
L 268.112469 79.914849 
L 268.016949 79.606359 
L 272.183694 79.606359 
L 272.087629 79.29787 
L 274.259766 79.29787 
L 274.163486 78.98938 
L 282.395938 78.98938 
L 282.395938 78.98938 
" style="fill:none;stroke:#ff7f0e;stroke-linecap:square;stroke-width:2;"/>
   </g>
   <g id="line2d_47">
    <path clip-path="url(#p1f70cf2bf6)" d="M 76.5 448.25151 
L 76.5 432.210048 
L 85.283333 432.210048 
L 84.27541 430.05062 
L 83.373913 427.582703 
L 82.503797 424.497806 
L 81.712088 420.79593 
L 80.974528 416.168585 
L 80.325 410.615771 
L 79.726531 403.520509 
L 79.427778 398.893164 
L 82.319632 398.893164 
L 81.829213 394.265819 
L 84.449162 394.265819 
L 83.544059 387.170556 
L 82.880717 380.692273 
L 84.969643 380.692273 
L 84.058566 372.363052 
L 83.349097 364.342321 
L 85.030576 364.342321 
L 84.850352 362.491383 
L 86.485263 362.491383 
L 85.861184 356.630079 
L 87.385574 356.630079 
L 86.81087 351.385755 
L 88.247368 351.385755 
L 87.963444 348.917838 
L 89.35753 348.917838 
L 88.195068 338.737679 
L 89.459016 338.737679 
L 88.417085 328.86601 
L 89.57594 328.86601 
L 89.225122 325.472623 
L 90.348175 325.472623 
L 90.051429 322.696216 
L 91.145843 322.696216 
L 90.26317 314.366995 
L 91.288864 314.366995 
L 91.158278 313.133037 
L 93.178681 313.133037 
L 93.142105 312.824547 
L 94.143545 312.824547 
L 93.403774 306.654754 
L 94.360669 306.654754 
L 94.175776 305.112305 
L 95.119215 305.112305 
L 95.004517 304.186836 
L 95.938525 304.186836 
L 95.586519 301.410429 
L 96.500602 301.410429 
L 95.840388 296.166105 
L 96.722093 296.166105 
L 96.11391 291.23027 
L 96.966979 291.23027 
L 96.370492 286.294436 
L 97.196727 286.294436 
L 97.047292 285.060477 
L 97.864865 285.060477 
L 96.803938 276.114277 
L 97.58 276.114277 
L 97.472449 275.188808 
L 98.242105 275.188808 
L 97.597364 269.635994 
L 98.342763 269.635994 
L 97.954604 266.242607 
L 98.685 266.242607 
L 98.57817 265.317138 
L 99.302885 265.317138 
L 98.424499 257.604897 
L 99.120462 257.604897 
L 98.98211 256.370938 
L 99.671908 256.370938 
L 99.496364 254.82849 
L 100.179123 254.82849 
L 99.895964 252.360572 
L 100.568955 252.360572 
L 100.497321 251.743593 
L 101.166419 251.743593 
L 99.55625 237.244579 
L 99.33425 235.085151 
L 99.954396 235.085151 
L 99.82623 233.851192 
L 100.441473 233.851192 
L 100.182996 231.383275 
L 100.790296 231.383275 
L 100.660054 230.149316 
L 101.863636 230.149316 
L 101.332461 225.213482 
L 101.92 225.213482 
L 101.689508 223.054054 
L 102.270505 223.054054 
L 101.779949 218.426709 
L 102.349049 218.426709 
L 102.283692 217.80973 
L 102.85 217.80973 
L 102.489041 214.416343 
L 103.046642 214.416343 
L 102.592298 210.097488 
L 103.13956 210.097488 
L 102.411876 203.002226 
L 102.943772 203.002226 
L 102.271214 196.215453 
L 102.789145 196.215453 
L 102.608257 194.364515 
L 103.121649 194.364515 
L 103.09119 194.056025 
L 103.602857 194.056025 
L 103.510251 193.130556 
L 104.019113 193.130556 
L 103.95664 192.513577 
L 104.463265 192.513577 
L 104.4 191.896598 
L 104.904407 191.896598 
L 104.338206 186.343784 
L 104.83208 186.343784 
L 104.645275 184.492846 
L 105.135016 184.492846 
L 104.429872 177.397583 
L 104.907273 177.397583 
L 104.666278 174.929666 
L 105.138877 174.929666 
L 105.048152 174.004197 
L 105.518354 174.004197 
L 105.305654 171.844769 
L 106.236677 171.844769 
L 105.990155 169.376852 
L 106.450621 169.376852 
L 106.296395 167.834404 
L 106.753704 167.834404 
L 106.691581 167.217424 
L 107.147077 167.217424 
L 106.959633 165.366486 
L 107.862665 165.366486 
L 107.546828 162.28159 
L 108.437789 162.28159 
L 108.405723 161.9731 
L 108.849448 161.9731 
L 108.784685 161.356121 
L 109.2267 161.356121 
L 109.194006 161.047631 
L 109.634731 161.047631 
L 109.568725 160.430652 
L 110.445924 160.430652 
L 110.244664 158.579714 
L 110.679566 158.579714 
L 110.578642 157.654245 
L 111.011504 157.654245 
L 110.742146 155.186328 
L 111.171053 155.186328 
L 111.103599 154.569348 
L 111.530904 154.569348 
L 111.361509 153.0269 
L 112.632787 153.0269 
L 112.493948 151.792941 
L 113.33442 151.792941 
L 113.299138 151.484452 
L 113.717799 151.484452 
L 113.61126 150.558983 
L 114.028027 150.558983 
L 113.85 149.016534 
L 114.264171 149.016534 
L 114.12153 147.782576 
L 114.533491 147.782576 
L 114.461864 147.165596 
L 114.872342 147.165596 
L 114.764353 146.240127 
L 115.173008 146.240127 
L 114.885209 143.77221 
L 115.290335 143.77221 
L 114.933149 140.687313 
L 115.734375 140.687313 
L 115.483562 138.527886 
L 115.880748 138.527886 
L 115.737545 137.293927 
L 116.132698 137.293927 
L 116.060834 136.676948 
L 116.45462 136.676948 
L 116.310379 135.442989 
L 116.702164 135.442989 
L 116.665946 135.134499 
L 117.056706 135.134499 
L 116.947487 134.20903 
L 117.336592 134.20903 
L 117.3 133.900541 
L 118.075492 133.900541 
L 117.853559 132.049603 
L 119.006034 132.049603 
L 118.930735 131.432623 
L 119.31292 131.432623 
L 119.275066 131.124134 
L 119.656272 131.124134 
L 119.618182 130.815644 
L 119.998413 130.815644 
L 119.921831 130.198665 
L 120.300792 130.198665 
L 120.262302 129.890175 
L 120.640299 129.890175 
L 120.524343 128.964706 
L 120.900787 128.964706 
L 120.861976 128.656216 
L 121.612304 128.656216 
L 121.572973 128.347727 
L 121.946864 128.347727 
L 121.907311 128.039237 
L 122.652563 128.039237 
L 122.019794 123.103402 
L 122.386901 123.103402 
L 122.269342 122.177933 
L 122.634983 122.177933 
L 122.24467 119.093037 
L 122.606932 119.093037 
L 122.490304 118.167568 
L 123.211364 118.167568 
L 123.132857 117.550588 
L 123.49194 117.550588 
L 123.41316 116.933609 
L 123.771106 116.933609 
L 123.731548 116.625119 
L 124.088629 116.625119 
L 124.009182 116.00814 
L 124.365138 116.00814 
L 124.32525 115.69965 
L 125.034859 115.69965 
L 124.873881 114.465692 
L 125.226761 114.465692 
L 125.186424 114.157202 
L 125.538462 114.157202 
L 125.457473 113.540223 
L 125.808416 113.540223 
L 125.727183 112.923243 
L 126.077037 112.923243 
L 125.954926 111.997774 
L 126.303445 111.997774 
L 126.262623 111.689285 
L 127.65 111.689285 
L 127.524939 110.763816 
L 128.213751 110.763816 
L 128.129732 110.146836 
L 128.472808 110.146836 
L 128.220921 108.295898 
L 128.561985 108.295898 
L 128.436232 107.370429 
L 128.776026 107.370429 
L 128.60834 106.136471 
L 128.946635 106.136471 
L 128.779073 104.902512 
L 129.452153 104.902512 
L 129.367834 104.285533 
L 130.037838 104.285533 
L 129.910468 103.360064 
L 130.243978 103.360064 
L 130.201425 103.051574 
L 130.534177 103.051574 
L 130.406235 102.126105 
L 131.068794 102.126105 
L 130.897329 100.892146 
L 131.226923 100.892146 
L 131.184 100.583657 
L 131.84119 100.583657 
L 131.754652 99.966677 
L 132.408899 99.966677 
L 132.234864 98.732719 
L 132.560342 98.732719 
L 132.429868 97.80725 
L 132.754186 97.80725 
L 132.710612 97.49876 
L 133.357309 97.49876 
L 133.313369 97.19027 
L 134.920323 97.19027 
L 134.875385 96.881781 
L 136.786217 96.881781 
L 136.740092 96.573291 
L 137.372727 96.573291 
L 137.32626 96.264801 
L 137.641648 96.264801 
L 137.595046 95.956312 
L 137.909749 95.956312 
L 137.630402 94.105374 
L 137.943409 94.105374 
L 137.896896 93.796884 
L 138.209228 93.796884 
L 137.884199 91.637456 
L 138.194662 91.637456 
L 138.14831 91.328967 
L 138.458108 91.328967 
L 138.411628 91.020477 
L 139.029438 91.020477 
L 138.889238 90.095008 
L 139.196863 90.095008 
L 139.150075 89.786518 
L 140.06962 89.786518 
L 140.022321 89.478029 
L 140.327732 89.478029 
L 140.280312 89.169539 
L 143.608032 89.169539 
L 143.509272 88.55256 
L 144.406388 88.55256 
L 144.356566 88.24407 
L 144.654545 88.24407 
L 144.554758 87.627091 
L 145.148684 87.627091 
L 144.948542 86.393132 
L 145.244137 86.393132 
L 145.194105 86.084642 
L 145.489091 86.084642 
L 145.438953 85.776153 
L 147.782081 85.776153 
L 147.679221 85.159173 
L 147.969863 85.159173 
L 147.866955 84.542194 
L 148.735345 84.542194 
L 148.683489 84.233704 
L 148.971951 84.233704 
L 148.92 83.925215 
L 149.782403 83.925215 
L 149.730021 83.616725 
L 150.30257 83.616725 
L 150.144872 82.691256 
L 150.430036 82.691256 
L 150.377454 82.382766 
L 150.946236 82.382766 
L 150.840638 81.765787 
L 151.124096 81.765787 
L 151.071246 81.457297 
L 151.636634 81.457297 
L 151.583534 81.148808 
L 152.147001 81.148808 
L 152.093653 80.840318 
L 154.885714 80.840318 
L 154.830861 80.531828 
L 156.211506 80.531828 
L 156.155958 80.223339 
L 156.705219 80.223339 
L 156.649444 79.914849 
L 158.015177 79.914849 
L 157.958726 79.606359 
L 158.773186 79.606359 
L 158.659627 78.98938 
L 159.469835 78.98938 
L 159.412732 78.68089 
L 159.681912 78.68089 
L 159.624742 78.372401 
L 162.82454 78.372401 
L 162.707012 77.755421 
L 163.23467 77.755421 
L 163.116904 77.138442 
L 163.904878 77.138442 
L 163.786604 76.521463 
L 164.831174 76.521463 
L 164.771612 76.212973 
L 165.550942 76.212973 
L 165.491056 75.904483 
L 166.524748 75.904483 
L 166.46441 75.595994 
L 166.978916 75.595994 
L 166.918395 75.287504 
L 167.942762 75.287504 
L 167.8818 74.979014 
L 168.900199 74.979014 
L 168.838804 74.670525 
L 169.851292 74.670525 
L 169.78947 74.362035 
L 171.046931 74.362035 
L 170.984565 74.053545 
L 171.734694 74.053545 
L 171.672039 73.745056 
L 174.15 73.745056 
L 174.086218 73.436566 
L 182.270415 73.436566 
L 182.202874 73.128076 
L 184.541688 73.128076 
L 184.473177 72.819587 
L 184.705323 72.819587 
L 184.636795 72.511097 
L 186.482609 72.511097 
L 186.41335 72.202607 
L 191.392547 72.202607 
L 191.321229 71.894118 
L 191.544231 71.894118 
L 191.472908 71.585628 
L 194.564843 71.585628 
L 194.492322 71.277138 
L 195.800673 71.277138 
L 195.727706 70.968649 
L 199.80653 70.968649 
L 199.657609 70.351669 
L 204.879833 70.351669 
L 204.803508 70.04318 
L 220.137443 70.04318 
L 220.055877 69.73469 
L 262.463168 69.73469 
L 262.371153 69.4262 
L 270.417749 69.4262 
L 270.324519 69.117711 
L 275.226547 69.117711 
L 275.226547 69.117711 
" style="fill:none;stroke:#2ca02c;stroke-linecap:square;stroke-width:2;"/>
   </g>
   <g id="patch_3">
    <path d="M 76.5 448.56 
L 76.5 60.48 
" style="fill:none;stroke:#000000;stroke-linecap:square;stroke-linejoin:miter;stroke-width:0.8;"/>
   </g>
   <g id="patch_4">
    <path d="M 550.8 448.56 
L 550.8 60.48 
" style="fill:none;stroke:#000000;stroke-linecap:square;stroke-linejoin:miter;stroke-width:0.8;"/>
   </g>
   <g id="patch_5">
    <path d="M 76.5 448.56 
L 550.8 448.56 
" style="fill:none;stroke:#000000;stroke-linecap:square;stroke-linejoin:miter;stroke-width:0.8;"/>
   </g>
   <g id="patch_6">
    <path d="M 76.5 60.48 
L 550.8 60.48 
" style="fill:none;stroke:#000000;stroke-linecap:square;stroke-linejoin:miter;stroke-width:0.8;"/>
   </g>
   <g id="text_25">
    <!-- leuven: img1-img2 -->
    <defs>
     <path d="M 9.421875 75.984375 
L 18.40625 75.984375 
L 18.40625 0 
L 9.421875 0 
z
" id="DejaVuSans-108"/>
     <path d="M 8.5 21.578125 
L 8.5 54.6875 
L 17.484375 54.6875 
L 17.484375 21.921875 
Q 17.484375 14.15625 20.5 10.265625 
Q 23.53125 6.390625 29.59375 6.390625 
Q 36.859375 6.390625 41.078125 11.03125 
Q 45.3125 15.671875 45.3125 23.6875 
L 45.3125 54.6875 
L 54.296875 54.6875 
L 54.296875 0 
L 45.3125 0 
L 45.3125 8.40625 
Q 42.046875 3.421875 37.71875 1 
Q 33.40625 -1.421875 27.6875 -1.421875 
Q 18.265625 -1.421875 13.375 4.4375 
Q 8.5 10.296875 8.5 21.578125 
z
M 31.109375 56 
z
" id="DejaVuSans-117"/>
     <path d="M 2.984375 54.6875 
L 12.5 54.6875 
L 29.59375 8.796875 
L 46.6875 54.6875 
L 56.203125 54.6875 
L 35.6875 0 
L 23.484375 0 
z
" id="DejaVuSans-118"/>
     <path d="M 11.71875 12.40625 
L 22.015625 12.40625 
L 22.015625 0 
L 11.71875 0 
z
M 11.71875 51.703125 
L 22.015625 51.703125 
L 22.015625 39.3125 
L 11.71875 39.3125 
z
" id="DejaVuSans-58"/>
     <path id="DejaVuSans-32"/>
     <path d="M 52 44.1875 
Q 55.375 50.25 60.0625 53.125 
Q 64.75 56 71.09375 56 
Q 79.640625 56 84.28125 50.015625 
Q 88.921875 44.046875 88.921875 33.015625 
L 88.921875 0 
L 79.890625 0 
L 79.890625 32.71875 
Q 79.890625 40.578125 77.09375 44.375 
Q 74.3125 48.1875 68.609375 48.1875 
Q 61.625 48.1875 57.5625 43.546875 
Q 53.515625 38.921875 53.515625 30.90625 
L 53.515625 0 
L 44.484375 0 
L 44.484375 32.71875 
Q 44.484375 40.625 41.703125 44.40625 
Q 38.921875 48.1875 33.109375 48.1875 
Q 26.21875 48.1875 22.15625 43.53125 
Q 18.109375 38.875 18.109375 30.90625 
L 18.109375 0 
L 9.078125 0 
L 9.078125 54.6875 
L 18.109375 54.6875 
L 18.109375 46.1875 
Q 21.1875 51.21875 25.484375 53.609375 
Q 29.78125 56 35.6875 56 
Q 41.65625 56 45.828125 52.96875 
Q 50 49.953125 52 44.1875 
z
" id="DejaVuSans-109"/>
     <path d="M 45.40625 27.984375 
Q 45.40625 37.75 41.375 43.109375 
Q 37.359375 48.484375 30.078125 48.484375 
Q 22.859375 48.484375 18.828125 43.109375 
Q 14.796875 37.75 14.796875 27.984375 
Q 14.796875 18.265625 18.828125 12.890625 
Q 22.859375 7.515625 30.078125 7.515625 
Q 37.359375 7.515625 41.375 12.890625 
Q 45.40625 18.265625 45.40625 27.984375 
z
M 54.390625 6.78125 
Q 54.390625 -7.171875 48.1875 -13.984375 
Q 42 -20.796875 29.203125 -20.796875 
Q 24.46875 -20.796875 20.265625 -20.09375 
Q 16.0625 -19.390625 12.109375 -17.921875 
L 12.109375 -9.1875 
Q 16.0625 -11.328125 19.921875 -12.34375 
Q 23.78125 -13.375 27.78125 -13.375 
Q 36.625 -13.375 41.015625 -8.765625 
Q 45.40625 -4.15625 45.40625 5.171875 
L 45.40625 9.625 
Q 42.625 4.78125 38.28125 2.390625 
Q 33.9375 0 27.875 0 
Q 17.828125 0 11.671875 7.65625 
Q 5.515625 15.328125 5.515625 27.984375 
Q 5.515625 40.671875 11.671875 48.328125 
Q 17.828125 56 27.875 56 
Q 33.9375 56 38.28125 53.609375 
Q 42.625 51.21875 45.40625 46.390625 
L 45.40625 54.6875 
L 54.390625 54.6875 
z
" id="DejaVuSans-103"/>
    </defs>
    <g transform="translate(257.074688 41.042625)scale(0.12 -0.12)">
     <use xlink:href="#DejaVuSans-108"/>
     <use x="27.783203" xlink:href="#DejaVuSans-101"/>
     <use x="89.306641" xlink:href="#DejaVuSans-117"/>
     <use x="152.685547" xlink:href="#DejaVuSans-118"/>
     <use x="211.865234" xlink:href="#DejaVuSans-101"/>
     <use x="273.388672" xlink:href="#DejaVuSans-110"/>
     <use x="336.767578" xlink:href="#DejaVuSans-58"/>
     <use x="370.458984" xlink:href="#DejaVuSans-32"/>
     <use x="402.246094" xlink:href="#DejaVuSans-105"/>
     <use x="430.029297" xlink:href="#DejaVuSans-109"/>
     <use x="527.441406" xlink:href="#DejaVuSans-103"/>
     <use x="590.917969" xlink:href="#DejaVuSans-49"/>
     <use x="654.541016" xlink:href="#DejaVuSans-45"/>
     <use x="690.625" xlink:href="#DejaVuSans-105"/>
     <use x="718.408203" xlink:href="#DejaVuSans-109"/>
     <use x="815.820312" xlink:href="#DejaVuSans-103"/>
     <use x="879.296875" xlink:href="#DejaVuSans-50"/>
    </g>
    <!-- NearestNeighbours -->
    <defs>
     <path d="M 9.8125 72.90625 
L 23.09375 72.90625 
L 55.421875 11.921875 
L 55.421875 72.90625 
L 64.984375 72.90625 
L 64.984375 0 
L 51.703125 0 
L 19.390625 60.984375 
L 19.390625 0 
L 9.8125 0 
z
" id="DejaVuSans-78"/>
     <path d="M 34.28125 27.484375 
Q 23.390625 27.484375 19.1875 25 
Q 14.984375 22.515625 14.984375 16.5 
Q 14.984375 11.71875 18.140625 8.90625 
Q 21.296875 6.109375 26.703125 6.109375 
Q 34.1875 6.109375 38.703125 11.40625 
Q 43.21875 16.703125 43.21875 25.484375 
L 43.21875 27.484375 
z
M 52.203125 31.203125 
L 52.203125 0 
L 43.21875 0 
L 43.21875 8.296875 
Q 40.140625 3.328125 35.546875 0.953125 
Q 30.953125 -1.421875 24.3125 -1.421875 
Q 15.921875 -1.421875 10.953125 3.296875 
Q 6 8.015625 6 15.921875 
Q 6 25.140625 12.171875 29.828125 
Q 18.359375 34.515625 30.609375 34.515625 
L 43.21875 34.515625 
L 43.21875 35.40625 
Q 43.21875 41.609375 39.140625 45 
Q 35.0625 48.390625 27.6875 48.390625 
Q 23 48.390625 18.546875 47.265625 
Q 14.109375 46.140625 10.015625 43.890625 
L 10.015625 52.203125 
Q 14.9375 54.109375 19.578125 55.046875 
Q 24.21875 56 28.609375 56 
Q 40.484375 56 46.34375 49.84375 
Q 52.203125 43.703125 52.203125 31.203125 
z
" id="DejaVuSans-97"/>
     <path d="M 54.890625 33.015625 
L 54.890625 0 
L 45.90625 0 
L 45.90625 32.71875 
Q 45.90625 40.484375 42.875 44.328125 
Q 39.84375 48.1875 33.796875 48.1875 
Q 26.515625 48.1875 22.3125 43.546875 
Q 18.109375 38.921875 18.109375 30.90625 
L 18.109375 0 
L 9.078125 0 
L 9.078125 75.984375 
L 18.109375 75.984375 
L 18.109375 46.1875 
Q 21.34375 51.125 25.703125 53.5625 
Q 30.078125 56 35.796875 56 
Q 45.21875 56 50.046875 50.171875 
Q 54.890625 44.34375 54.890625 33.015625 
z
" id="DejaVuSans-104"/>
     <path d="M 48.6875 27.296875 
Q 48.6875 37.203125 44.609375 42.84375 
Q 40.53125 48.484375 33.40625 48.484375 
Q 26.265625 48.484375 22.1875 42.84375 
Q 18.109375 37.203125 18.109375 27.296875 
Q 18.109375 17.390625 22.1875 11.75 
Q 26.265625 6.109375 33.40625 6.109375 
Q 40.53125 6.109375 44.609375 11.75 
Q 48.6875 17.390625 48.6875 27.296875 
z
M 18.109375 46.390625 
Q 20.953125 51.265625 25.265625 53.625 
Q 29.59375 56 35.59375 56 
Q 45.5625 56 51.78125 48.09375 
Q 58.015625 40.1875 58.015625 27.296875 
Q 58.015625 14.40625 51.78125 6.484375 
Q 45.5625 -1.421875 35.59375 -1.421875 
Q 29.59375 -1.421875 25.265625 0.953125 
Q 20.953125 3.328125 18.109375 8.203125 
L 18.109375 0 
L 9.078125 0 
L 9.078125 75.984375 
L 18.109375 75.984375 
z
" id="DejaVuSans-98"/>
    </defs>
    <g transform="translate(255.957188 54.48)scale(0.12 -0.12)">
     <use xlink:href="#DejaVuSans-78"/>
     <use x="74.804688" xlink:href="#DejaVuSans-101"/>
     <use x="136.328125" xlink:href="#DejaVuSans-97"/>
     <use x="197.607422" xlink:href="#DejaVuSans-114"/>
     <use x="236.470703" xlink:href="#DejaVuSans-101"/>
     <use x="297.994141" xlink:href="#DejaVuSans-115"/>
     <use x="350.09375" xlink:href="#DejaVuSans-116"/>
     <use x="389.302734" xlink:href="#DejaVuSans-78"/>
     <use x="464.107422" xlink:href="#DejaVuSans-101"/>
     <use x="525.630859" xlink:href="#DejaVuSans-105"/>
     <use x="553.414062" xlink:href="#DejaVuSans-103"/>
     <use x="616.890625" xlink:href="#DejaVuSans-104"/>
     <use x="680.269531" xlink:href="#DejaVuSans-98"/>
     <use x="743.746094" xlink:href="#DejaVuSans-111"/>
     <use x="804.927734" xlink:href="#DejaVuSans-117"/>
     <use x="868.306641" xlink:href="#DejaVuSans-114"/>
     <use x="909.419922" xlink:href="#DejaVuSans-115"/>
    </g>
   </g>
   <g id="legend_1">
    <g id="patch_7">
     <path d="M 362.659375 112.514375 
L 543.8 112.514375 
Q 545.8 112.514375 545.8 110.514375 
L 545.8 67.48 
Q 545.8 65.48 543.8 65.48 
L 362.659375 65.48 
Q 360.659375 65.48 360.659375 67.48 
L 360.659375 110.514375 
Q 360.659375 112.514375 362.659375 112.514375 
z
" style="fill:#ffffff;opacity:0.8;stroke:#cccccc;stroke-linejoin:miter;"/>
    </g>
    <g id="line2d_48">
     <path d="M 364.659375 73.578438 
L 384.659375 73.578438 
" style="fill:none;stroke:#1f77b4;stroke-linecap:square;stroke-width:2;"/>
    </g>
    <g id="line2d_49"/>
    <g id="text_26">
     <!-- root-cvsift AP: 96.9, %In: 58.8 -->
     <defs>
      <path d="M 37.109375 75.984375 
L 37.109375 68.5 
L 28.515625 68.5 
Q 23.6875 68.5 21.796875 66.546875 
Q 19.921875 64.59375 19.921875 59.515625 
L 19.921875 54.6875 
L 34.71875 54.6875 
L 34.71875 47.703125 
L 19.921875 47.703125 
L 19.921875 0 
L 10.890625 0 
L 10.890625 47.703125 
L 2.296875 47.703125 
L 2.296875 54.6875 
L 10.890625 54.6875 
L 10.890625 58.5 
Q 10.890625 67.625 15.140625 71.796875 
Q 19.390625 75.984375 28.609375 75.984375 
z
" id="DejaVuSans-102"/>
      <path d="M 34.1875 63.1875 
L 20.796875 26.90625 
L 47.609375 26.90625 
z
M 28.609375 72.90625 
L 39.796875 72.90625 
L 67.578125 0 
L 57.328125 0 
L 50.6875 18.703125 
L 17.828125 18.703125 
L 11.1875 0 
L 0.78125 0 
z
" id="DejaVuSans-65"/>
      <path d="M 19.671875 64.796875 
L 19.671875 37.40625 
L 32.078125 37.40625 
Q 38.96875 37.40625 42.71875 40.96875 
Q 46.484375 44.53125 46.484375 51.125 
Q 46.484375 57.671875 42.71875 61.234375 
Q 38.96875 64.796875 32.078125 64.796875 
z
M 9.8125 72.90625 
L 32.078125 72.90625 
Q 44.34375 72.90625 50.609375 67.359375 
Q 56.890625 61.8125 56.890625 51.125 
Q 56.890625 40.328125 50.609375 34.8125 
Q 44.34375 29.296875 32.078125 29.296875 
L 19.671875 29.296875 
L 19.671875 0 
L 9.8125 0 
z
" id="DejaVuSans-80"/>
      <path d="M 11.71875 12.40625 
L 22.015625 12.40625 
L 22.015625 4 
L 14.015625 -11.625 
L 7.71875 -11.625 
L 11.71875 4 
z
" id="DejaVuSans-44"/>
      <path d="M 72.703125 32.078125 
Q 68.453125 32.078125 66.03125 28.46875 
Q 63.625 24.859375 63.625 18.40625 
Q 63.625 12.0625 66.03125 8.421875 
Q 68.453125 4.78125 72.703125 4.78125 
Q 76.859375 4.78125 79.265625 8.421875 
Q 81.6875 12.0625 81.6875 18.40625 
Q 81.6875 24.8125 79.265625 28.4375 
Q 76.859375 32.078125 72.703125 32.078125 
z
M 72.703125 38.28125 
Q 80.421875 38.28125 84.953125 32.90625 
Q 89.5 27.546875 89.5 18.40625 
Q 89.5 9.28125 84.9375 3.921875 
Q 80.375 -1.421875 72.703125 -1.421875 
Q 64.890625 -1.421875 60.34375 3.921875 
Q 55.8125 9.28125 55.8125 18.40625 
Q 55.8125 27.59375 60.375 32.9375 
Q 64.9375 38.28125 72.703125 38.28125 
z
M 22.3125 68.015625 
Q 18.109375 68.015625 15.6875 64.375 
Q 13.28125 60.75 13.28125 54.390625 
Q 13.28125 47.953125 15.671875 44.328125 
Q 18.0625 40.71875 22.3125 40.71875 
Q 26.5625 40.71875 28.96875 44.328125 
Q 31.390625 47.953125 31.390625 54.390625 
Q 31.390625 60.6875 28.953125 64.34375 
Q 26.515625 68.015625 22.3125 68.015625 
z
M 66.40625 74.21875 
L 74.21875 74.21875 
L 28.609375 -1.421875 
L 20.796875 -1.421875 
z
M 22.3125 74.21875 
Q 30.03125 74.21875 34.609375 68.875 
Q 39.203125 63.53125 39.203125 54.390625 
Q 39.203125 45.171875 34.640625 39.84375 
Q 30.078125 34.515625 22.3125 34.515625 
Q 14.546875 34.515625 10.03125 39.859375 
Q 5.515625 45.21875 5.515625 54.390625 
Q 5.515625 63.484375 10.046875 68.84375 
Q 14.59375 74.21875 22.3125 74.21875 
z
" id="DejaVuSans-37"/>
      <path d="M 9.8125 72.90625 
L 19.671875 72.90625 
L 19.671875 0 
L 9.8125 0 
z
" id="DejaVuSans-73"/>
     </defs>
     <g transform="translate(392.659375 77.078438)scale(0.1 -0.1)">
      <use xlink:href="#DejaVuSans-114"/>
      <use x="38.863281" xlink:href="#DejaVuSans-111"/>
      <use x="100.044922" xlink:href="#DejaVuSans-111"/>
      <use x="161.226562" xlink:href="#DejaVuSans-116"/>
      <use x="200.435547" xlink:href="#DejaVuSans-45"/>
      <use x="236.519531" xlink:href="#DejaVuSans-99"/>
      <use x="291.5" xlink:href="#DejaVuSans-118"/>
      <use x="350.679688" xlink:href="#DejaVuSans-115"/>
      <use x="402.779297" xlink:href="#DejaVuSans-105"/>
      <use x="430.5625" xlink:href="#DejaVuSans-102"/>
      <use x="464.017578" xlink:href="#DejaVuSans-116"/>
      <use x="503.226562" xlink:href="#DejaVuSans-32"/>
      <use x="535.013672" xlink:href="#DejaVuSans-65"/>
      <use x="603.421875" xlink:href="#DejaVuSans-80"/>
      <use x="663.724609" xlink:href="#DejaVuSans-58"/>
      <use x="697.416016" xlink:href="#DejaVuSans-32"/>
      <use x="729.203125" xlink:href="#DejaVuSans-57"/>
      <use x="792.826172" xlink:href="#DejaVuSans-54"/>
      <use x="856.449219" xlink:href="#DejaVuSans-46"/>
      <use x="888.236328" xlink:href="#DejaVuSans-57"/>
      <use x="951.859375" xlink:href="#DejaVuSans-44"/>
      <use x="983.646484" xlink:href="#DejaVuSans-32"/>
      <use x="1015.433594" xlink:href="#DejaVuSans-37"/>
      <use x="1110.453125" xlink:href="#DejaVuSans-73"/>
      <use x="1139.945312" xlink:href="#DejaVuSans-110"/>
      <use x="1203.324219" xlink:href="#DejaVuSans-58"/>
      <use x="1237.015625" xlink:href="#DejaVuSans-32"/>
      <use x="1268.802734" xlink:href="#DejaVuSans-53"/>
      <use x="1332.425781" xlink:href="#DejaVuSans-56"/>
      <use x="1396.048828" xlink:href="#DejaVuSans-46"/>
      <use x="1427.835938" xlink:href="#DejaVuSans-56"/>
     </g>
    </g>
    <g id="line2d_50">
     <path d="M 364.659375 88.256563 
L 384.659375 88.256563 
" style="fill:none;stroke:#ff7f0e;stroke-linecap:square;stroke-width:2;"/>
    </g>
    <g id="line2d_51"/>
    <g id="text_27">
     <!-- tfeat AP: 85.9, %In: 56.6 -->
     <g transform="translate(392.659375 91.756563)scale(0.1 -0.1)">
      <use xlink:href="#DejaVuSans-116"/>
      <use x="39.208984" xlink:href="#DejaVuSans-102"/>
      <use x="74.414062" xlink:href="#DejaVuSans-101"/>
      <use x="135.9375" xlink:href="#DejaVuSans-97"/>
      <use x="197.216797" xlink:href="#DejaVuSans-116"/>
      <use x="236.425781" xlink:href="#DejaVuSans-32"/>
      <use x="268.212891" xlink:href="#DejaVuSans-65"/>
      <use x="336.621094" xlink:href="#DejaVuSans-80"/>
      <use x="396.923828" xlink:href="#DejaVuSans-58"/>
      <use x="430.615234" xlink:href="#DejaVuSans-32"/>
      <use x="462.402344" xlink:href="#DejaVuSans-56"/>
      <use x="526.025391" xlink:href="#DejaVuSans-53"/>
      <use x="589.648438" xlink:href="#DejaVuSans-46"/>
      <use x="621.435547" xlink:href="#DejaVuSans-57"/>
      <use x="685.058594" xlink:href="#DejaVuSans-44"/>
      <use x="716.845703" xlink:href="#DejaVuSans-32"/>
      <use x="748.632812" xlink:href="#DejaVuSans-37"/>
      <use x="843.652344" xlink:href="#DejaVuSans-73"/>
      <use x="873.144531" xlink:href="#DejaVuSans-110"/>
      <use x="936.523438" xlink:href="#DejaVuSans-58"/>
      <use x="970.214844" xlink:href="#DejaVuSans-32"/>
      <use x="1002.001953" xlink:href="#DejaVuSans-53"/>
      <use x="1065.625" xlink:href="#DejaVuSans-54"/>
      <use x="1129.248047" xlink:href="#DejaVuSans-46"/>
      <use x="1161.035156" xlink:href="#DejaVuSans-54"/>
     </g>
    </g>
    <g id="line2d_52">
     <path d="M 364.659375 102.934687 
L 384.659375 102.934687 
" style="fill:none;stroke:#2ca02c;stroke-linecap:square;stroke-width:2;"/>
    </g>
    <g id="line2d_53"/>
    <g id="text_28">
     <!-- hardnet AP: 92.4, %In: 58.1 -->
     <defs>
      <path d="M 45.40625 46.390625 
L 45.40625 75.984375 
L 54.390625 75.984375 
L 54.390625 0 
L 45.40625 0 
L 45.40625 8.203125 
Q 42.578125 3.328125 38.25 0.953125 
Q 33.9375 -1.421875 27.875 -1.421875 
Q 17.96875 -1.421875 11.734375 6.484375 
Q 5.515625 14.40625 5.515625 27.296875 
Q 5.515625 40.1875 11.734375 48.09375 
Q 17.96875 56 27.875 56 
Q 33.9375 56 38.25 53.625 
Q 42.578125 51.265625 45.40625 46.390625 
z
M 14.796875 27.296875 
Q 14.796875 17.390625 18.875 11.75 
Q 22.953125 6.109375 30.078125 6.109375 
Q 37.203125 6.109375 41.296875 11.75 
Q 45.40625 17.390625 45.40625 27.296875 
Q 45.40625 37.203125 41.296875 42.84375 
Q 37.203125 48.484375 30.078125 48.484375 
Q 22.953125 48.484375 18.875 42.84375 
Q 14.796875 37.203125 14.796875 27.296875 
z
" id="DejaVuSans-100"/>
     </defs>
     <g transform="translate(392.659375 106.434687)scale(0.1 -0.1)">
      <use xlink:href="#DejaVuSans-104"/>
      <use x="63.378906" xlink:href="#DejaVuSans-97"/>
      <use x="124.658203" xlink:href="#DejaVuSans-114"/>
      <use x="164.021484" xlink:href="#DejaVuSans-100"/>
      <use x="227.498047" xlink:href="#DejaVuSans-110"/>
      <use x="290.876953" xlink:href="#DejaVuSans-101"/>
      <use x="352.400391" xlink:href="#DejaVuSans-116"/>
      <use x="391.609375" xlink:href="#DejaVuSans-32"/>
      <use x="423.396484" xlink:href="#DejaVuSans-65"/>
      <use x="491.804688" xlink:href="#DejaVuSans-80"/>
      <use x="552.107422" xlink:href="#DejaVuSans-58"/>
      <use x="585.798828" xlink:href="#DejaVuSans-32"/>
      <use x="617.585938" xlink:href="#DejaVuSans-57"/>
      <use x="681.208984" xlink:href="#DejaVuSans-50"/>
      <use x="744.832031" xlink:href="#DejaVuSans-46"/>
      <use x="776.619141" xlink:href="#DejaVuSans-52"/>
      <use x="840.242188" xlink:href="#DejaVuSans-44"/>
      <use x="872.029297" xlink:href="#DejaVuSans-32"/>
      <use x="903.816406" xlink:href="#DejaVuSans-37"/>
      <use x="998.835938" xlink:href="#DejaVuSans-73"/>
      <use x="1028.328125" xlink:href="#DejaVuSans-110"/>
      <use x="1091.707031" xlink:href="#DejaVuSans-58"/>
      <use x="1125.398438" xlink:href="#DejaVuSans-32"/>
      <use x="1157.185547" xlink:href="#DejaVuSans-53"/>
      <use x="1220.808594" xlink:href="#DejaVuSans-56"/>
      <use x="1284.431641" xlink:href="#DejaVuSans-46"/>
      <use x="1316.21875" xlink:href="#DejaVuSans-49"/>
     </g>
    </g>
   </g>
  </g>
 </g>
 <defs>
  <clipPath id="p1f70cf2bf6">
   <rect height="388.08" width="474.3" x="76.5" y="60.48"/>
  </clipPath>
 </defs>
</svg>
