<?xml version="1.0" encoding="utf-8" standalone="no"?>
<!DOCTYPE svg PUBLIC "-//W3C//DTD SVG 1.1//EN"
  "http://www.w3.org/Graphics/SVG/1.1/DTD/svg11.dtd">
<!-- Created with matplotlib (https://matplotlib.org/) -->
<svg height="504pt" version="1.1" viewBox="0 0 612 504" width="612pt" xmlns="http://www.w3.org/2000/svg" xmlns:xlink="http://www.w3.org/1999/xlink">
 <defs>
  <style type="text/css">
*{stroke-linecap:butt;stroke-linejoin:round;}
  </style>
 </defs>
 <g id="figure_1">
  <g id="patch_1">
   <path d="M 0 504 
L 612 504 
L 612 0 
L 0 0 
z
" style="fill:#ffffff;"/>
  </g>
  <g id="axes_1">
   <g id="patch_2">
    <path d="M 76.5 448.56 
L 550.8 448.56 
L 550.8 60.48 
L 76.5 60.48 
z
" style="fill:#ffffff;"/>
   </g>
   <g id="matplotlib.axis_1">
    <g id="xtick_1">
     <g id="line2d_1">
      <path clip-path="url(#p70c8813e2a)" d="M 76.5 448.56 
L 76.5 60.48 
" style="fill:none;stroke:#b0b0b0;stroke-linecap:square;stroke-width:0.8;"/>
     </g>
     <g id="line2d_2">
      <defs>
       <path d="M 0 0 
L 0 3.5 
" id="m00f0348c39" style="stroke:#000000;stroke-width:0.8;"/>
      </defs>
      <g>
       <use style="stroke:#000000;stroke-width:0.8;" x="76.5" xlink:href="#m00f0348c39" y="448.56"/>
      </g>
     </g>
     <g id="text_1">
      <!-- 0.0 -->
      <defs>
       <path d="M 31.78125 66.40625 
Q 24.171875 66.40625 20.328125 58.90625 
Q 16.5 51.421875 16.5 36.375 
Q 16.5 21.390625 20.328125 13.890625 
Q 24.171875 6.390625 31.78125 6.390625 
Q 39.453125 6.390625 43.28125 13.890625 
Q 47.125 21.390625 47.125 36.375 
Q 47.125 51.421875 43.28125 58.90625 
Q 39.453125 66.40625 31.78125 66.40625 
z
M 31.78125 74.21875 
Q 44.046875 74.21875 50.515625 64.515625 
Q 56.984375 54.828125 56.984375 36.375 
Q 56.984375 17.96875 50.515625 8.265625 
Q 44.046875 -1.421875 31.78125 -1.421875 
Q 19.53125 -1.421875 13.0625 8.265625 
Q 6.59375 17.96875 6.59375 36.375 
Q 6.59375 54.828125 13.0625 64.515625 
Q 19.53125 74.21875 31.78125 74.21875 
z
" id="DejaVuSans-48"/>
       <path d="M 10.6875 12.40625 
L 21 12.40625 
L 21 0 
L 10.6875 0 
z
" id="DejaVuSans-46"/>
      </defs>
      <g transform="translate(68.548438 463.158437)scale(0.1 -0.1)">
       <use xlink:href="#DejaVuSans-48"/>
       <use x="63.623047" xlink:href="#DejaVuSans-46"/>
       <use x="95.410156" xlink:href="#DejaVuSans-48"/>
      </g>
     </g>
    </g>
    <g id="xtick_2">
     <g id="line2d_3">
      <path clip-path="url(#p70c8813e2a)" d="M 123.93 448.56 
L 123.93 60.48 
" style="fill:none;stroke:#b0b0b0;stroke-linecap:square;stroke-width:0.8;"/>
     </g>
     <g id="line2d_4">
      <g>
       <use style="stroke:#000000;stroke-width:0.8;" x="123.93" xlink:href="#m00f0348c39" y="448.56"/>
      </g>
     </g>
     <g id="text_2">
      <!-- 0.1 -->
      <defs>
       <path d="M 12.40625 8.296875 
L 28.515625 8.296875 
L 28.515625 63.921875 
L 10.984375 60.40625 
L 10.984375 69.390625 
L 28.421875 72.90625 
L 38.28125 72.90625 
L 38.28125 8.296875 
L 54.390625 8.296875 
L 54.390625 0 
L 12.40625 0 
z
" id="DejaVuSans-49"/>
      </defs>
      <g transform="translate(115.978438 463.158437)scale(0.1 -0.1)">
       <use xlink:href="#DejaVuSans-48"/>
       <use x="63.623047" xlink:href="#DejaVuSans-46"/>
       <use x="95.410156" xlink:href="#DejaVuSans-49"/>
      </g>
     </g>
    </g>
    <g id="xtick_3">
     <g id="line2d_5">
      <path clip-path="url(#p70c8813e2a)" d="M 171.36 448.56 
L 171.36 60.48 
" style="fill:none;stroke:#b0b0b0;stroke-linecap:square;stroke-width:0.8;"/>
     </g>
     <g id="line2d_6">
      <g>
       <use style="stroke:#000000;stroke-width:0.8;" x="171.36" xlink:href="#m00f0348c39" y="448.56"/>
      </g>
     </g>
     <g id="text_3">
      <!-- 0.2 -->
      <defs>
       <path d="M 19.1875 8.296875 
L 53.609375 8.296875 
L 53.609375 0 
L 7.328125 0 
L 7.328125 8.296875 
Q 12.9375 14.109375 22.625 23.890625 
Q 32.328125 33.6875 34.8125 36.53125 
Q 39.546875 41.84375 41.421875 45.53125 
Q 43.3125 49.21875 43.3125 52.78125 
Q 43.3125 58.59375 39.234375 62.25 
Q 35.15625 65.921875 28.609375 65.921875 
Q 23.96875 65.921875 18.8125 64.3125 
Q 13.671875 62.703125 7.8125 59.421875 
L 7.8125 69.390625 
Q 13.765625 71.78125 18.9375 73 
Q 24.125 74.21875 28.421875 74.21875 
Q 39.75 74.21875 46.484375 68.546875 
Q 53.21875 62.890625 53.21875 53.421875 
Q 53.21875 48.921875 51.53125 44.890625 
Q 49.859375 40.875 45.40625 35.40625 
Q 44.1875 33.984375 37.640625 27.21875 
Q 31.109375 20.453125 19.1875 8.296875 
z
" id="DejaVuSans-50"/>
      </defs>
      <g transform="translate(163.408438 463.158437)scale(0.1 -0.1)">
       <use xlink:href="#DejaVuSans-48"/>
       <use x="63.623047" xlink:href="#DejaVuSans-46"/>
       <use x="95.410156" xlink:href="#DejaVuSans-50"/>
      </g>
     </g>
    </g>
    <g id="xtick_4">
     <g id="line2d_7">
      <path clip-path="url(#p70c8813e2a)" d="M 218.79 448.56 
L 218.79 60.48 
" style="fill:none;stroke:#b0b0b0;stroke-linecap:square;stroke-width:0.8;"/>
     </g>
     <g id="line2d_8">
      <g>
       <use style="stroke:#000000;stroke-width:0.8;" x="218.79" xlink:href="#m00f0348c39" y="448.56"/>
      </g>
     </g>
     <g id="text_4">
      <!-- 0.3 -->
      <defs>
       <path d="M 40.578125 39.3125 
Q 47.65625 37.796875 51.625 33 
Q 55.609375 28.21875 55.609375 21.1875 
Q 55.609375 10.40625 48.1875 4.484375 
Q 40.765625 -1.421875 27.09375 -1.421875 
Q 22.515625 -1.421875 17.65625 -0.515625 
Q 12.796875 0.390625 7.625 2.203125 
L 7.625 11.71875 
Q 11.71875 9.328125 16.59375 8.109375 
Q 21.484375 6.890625 26.8125 6.890625 
Q 36.078125 6.890625 40.9375 10.546875 
Q 45.796875 14.203125 45.796875 21.1875 
Q 45.796875 27.640625 41.28125 31.265625 
Q 36.765625 34.90625 28.71875 34.90625 
L 20.21875 34.90625 
L 20.21875 43.015625 
L 29.109375 43.015625 
Q 36.375 43.015625 40.234375 45.921875 
Q 44.09375 48.828125 44.09375 54.296875 
Q 44.09375 59.90625 40.109375 62.90625 
Q 36.140625 65.921875 28.71875 65.921875 
Q 24.65625 65.921875 20.015625 65.03125 
Q 15.375 64.15625 9.8125 62.3125 
L 9.8125 71.09375 
Q 15.4375 72.65625 20.34375 73.4375 
Q 25.25 74.21875 29.59375 74.21875 
Q 40.828125 74.21875 47.359375 69.109375 
Q 53.90625 64.015625 53.90625 55.328125 
Q 53.90625 49.265625 50.4375 45.09375 
Q 46.96875 40.921875 40.578125 39.3125 
z
" id="DejaVuSans-51"/>
      </defs>
      <g transform="translate(210.838438 463.158437)scale(0.1 -0.1)">
       <use xlink:href="#DejaVuSans-48"/>
       <use x="63.623047" xlink:href="#DejaVuSans-46"/>
       <use x="95.410156" xlink:href="#DejaVuSans-51"/>
      </g>
     </g>
    </g>
    <g id="xtick_5">
     <g id="line2d_9">
      <path clip-path="url(#p70c8813e2a)" d="M 266.22 448.56 
L 266.22 60.48 
" style="fill:none;stroke:#b0b0b0;stroke-linecap:square;stroke-width:0.8;"/>
     </g>
     <g id="line2d_10">
      <g>
       <use style="stroke:#000000;stroke-width:0.8;" x="266.22" xlink:href="#m00f0348c39" y="448.56"/>
      </g>
     </g>
     <g id="text_5">
      <!-- 0.4 -->
      <defs>
       <path d="M 37.796875 64.3125 
L 12.890625 25.390625 
L 37.796875 25.390625 
z
M 35.203125 72.90625 
L 47.609375 72.90625 
L 47.609375 25.390625 
L 58.015625 25.390625 
L 58.015625 17.1875 
L 47.609375 17.1875 
L 47.609375 0 
L 37.796875 0 
L 37.796875 17.1875 
L 4.890625 17.1875 
L 4.890625 26.703125 
z
" id="DejaVuSans-52"/>
      </defs>
      <g transform="translate(258.268438 463.158437)scale(0.1 -0.1)">
       <use xlink:href="#DejaVuSans-48"/>
       <use x="63.623047" xlink:href="#DejaVuSans-46"/>
       <use x="95.410156" xlink:href="#DejaVuSans-52"/>
      </g>
     </g>
    </g>
    <g id="xtick_6">
     <g id="line2d_11">
      <path clip-path="url(#p70c8813e2a)" d="M 313.65 448.56 
L 313.65 60.48 
" style="fill:none;stroke:#b0b0b0;stroke-linecap:square;stroke-width:0.8;"/>
     </g>
     <g id="line2d_12">
      <g>
       <use style="stroke:#000000;stroke-width:0.8;" x="313.65" xlink:href="#m00f0348c39" y="448.56"/>
      </g>
     </g>
     <g id="text_6">
      <!-- 0.5 -->
      <defs>
       <path d="M 10.796875 72.90625 
L 49.515625 72.90625 
L 49.515625 64.59375 
L 19.828125 64.59375 
L 19.828125 46.734375 
Q 21.96875 47.46875 24.109375 47.828125 
Q 26.265625 48.1875 28.421875 48.1875 
Q 40.625 48.1875 47.75 41.5 
Q 54.890625 34.8125 54.890625 23.390625 
Q 54.890625 11.625 47.5625 5.09375 
Q 40.234375 -1.421875 26.90625 -1.421875 
Q 22.3125 -1.421875 17.546875 -0.640625 
Q 12.796875 0.140625 7.71875 1.703125 
L 7.71875 11.625 
Q 12.109375 9.234375 16.796875 8.0625 
Q 21.484375 6.890625 26.703125 6.890625 
Q 35.15625 6.890625 40.078125 11.328125 
Q 45.015625 15.765625 45.015625 23.390625 
Q 45.015625 31 40.078125 35.4375 
Q 35.15625 39.890625 26.703125 39.890625 
Q 22.75 39.890625 18.8125 39.015625 
Q 14.890625 38.140625 10.796875 36.28125 
z
" id="DejaVuSans-53"/>
      </defs>
      <g transform="translate(305.698438 463.158437)scale(0.1 -0.1)">
       <use xlink:href="#DejaVuSans-48"/>
       <use x="63.623047" xlink:href="#DejaVuSans-46"/>
       <use x="95.410156" xlink:href="#DejaVuSans-53"/>
      </g>
     </g>
    </g>
    <g id="xtick_7">
     <g id="line2d_13">
      <path clip-path="url(#p70c8813e2a)" d="M 361.08 448.56 
L 361.08 60.48 
" style="fill:none;stroke:#b0b0b0;stroke-linecap:square;stroke-width:0.8;"/>
     </g>
     <g id="line2d_14">
      <g>
       <use style="stroke:#000000;stroke-width:0.8;" x="361.08" xlink:href="#m00f0348c39" y="448.56"/>
      </g>
     </g>
     <g id="text_7">
      <!-- 0.6 -->
      <defs>
       <path d="M 33.015625 40.375 
Q 26.375 40.375 22.484375 35.828125 
Q 18.609375 31.296875 18.609375 23.390625 
Q 18.609375 15.53125 22.484375 10.953125 
Q 26.375 6.390625 33.015625 6.390625 
Q 39.65625 6.390625 43.53125 10.953125 
Q 47.40625 15.53125 47.40625 23.390625 
Q 47.40625 31.296875 43.53125 35.828125 
Q 39.65625 40.375 33.015625 40.375 
z
M 52.59375 71.296875 
L 52.59375 62.3125 
Q 48.875 64.0625 45.09375 64.984375 
Q 41.3125 65.921875 37.59375 65.921875 
Q 27.828125 65.921875 22.671875 59.328125 
Q 17.53125 52.734375 16.796875 39.40625 
Q 19.671875 43.65625 24.015625 45.921875 
Q 28.375 48.1875 33.59375 48.1875 
Q 44.578125 48.1875 50.953125 41.515625 
Q 57.328125 34.859375 57.328125 23.390625 
Q 57.328125 12.15625 50.6875 5.359375 
Q 44.046875 -1.421875 33.015625 -1.421875 
Q 20.359375 -1.421875 13.671875 8.265625 
Q 6.984375 17.96875 6.984375 36.375 
Q 6.984375 53.65625 15.1875 63.9375 
Q 23.390625 74.21875 37.203125 74.21875 
Q 40.921875 74.21875 44.703125 73.484375 
Q 48.484375 72.75 52.59375 71.296875 
z
" id="DejaVuSans-54"/>
      </defs>
      <g transform="translate(353.128438 463.158437)scale(0.1 -0.1)">
       <use xlink:href="#DejaVuSans-48"/>
       <use x="63.623047" xlink:href="#DejaVuSans-46"/>
       <use x="95.410156" xlink:href="#DejaVuSans-54"/>
      </g>
     </g>
    </g>
    <g id="xtick_8">
     <g id="line2d_15">
      <path clip-path="url(#p70c8813e2a)" d="M 408.51 448.56 
L 408.51 60.48 
" style="fill:none;stroke:#b0b0b0;stroke-linecap:square;stroke-width:0.8;"/>
     </g>
     <g id="line2d_16">
      <g>
       <use style="stroke:#000000;stroke-width:0.8;" x="408.51" xlink:href="#m00f0348c39" y="448.56"/>
      </g>
     </g>
     <g id="text_8">
      <!-- 0.7 -->
      <defs>
       <path d="M 8.203125 72.90625 
L 55.078125 72.90625 
L 55.078125 68.703125 
L 28.609375 0 
L 18.3125 0 
L 43.21875 64.59375 
L 8.203125 64.59375 
z
" id="DejaVuSans-55"/>
      </defs>
      <g transform="translate(400.558438 463.158437)scale(0.1 -0.1)">
       <use xlink:href="#DejaVuSans-48"/>
       <use x="63.623047" xlink:href="#DejaVuSans-46"/>
       <use x="95.410156" xlink:href="#DejaVuSans-55"/>
      </g>
     </g>
    </g>
    <g id="xtick_9">
     <g id="line2d_17">
      <path clip-path="url(#p70c8813e2a)" d="M 455.94 448.56 
L 455.94 60.48 
" style="fill:none;stroke:#b0b0b0;stroke-linecap:square;stroke-width:0.8;"/>
     </g>
     <g id="line2d_18">
      <g>
       <use style="stroke:#000000;stroke-width:0.8;" x="455.94" xlink:href="#m00f0348c39" y="448.56"/>
      </g>
     </g>
     <g id="text_9">
      <!-- 0.8 -->
      <defs>
       <path d="M 31.78125 34.625 
Q 24.75 34.625 20.71875 30.859375 
Q 16.703125 27.09375 16.703125 20.515625 
Q 16.703125 13.921875 20.71875 10.15625 
Q 24.75 6.390625 31.78125 6.390625 
Q 38.8125 6.390625 42.859375 10.171875 
Q 46.921875 13.96875 46.921875 20.515625 
Q 46.921875 27.09375 42.890625 30.859375 
Q 38.875 34.625 31.78125 34.625 
z
M 21.921875 38.8125 
Q 15.578125 40.375 12.03125 44.71875 
Q 8.5 49.078125 8.5 55.328125 
Q 8.5 64.0625 14.71875 69.140625 
Q 20.953125 74.21875 31.78125 74.21875 
Q 42.671875 74.21875 48.875 69.140625 
Q 55.078125 64.0625 55.078125 55.328125 
Q 55.078125 49.078125 51.53125 44.71875 
Q 48 40.375 41.703125 38.8125 
Q 48.828125 37.15625 52.796875 32.3125 
Q 56.78125 27.484375 56.78125 20.515625 
Q 56.78125 9.90625 50.3125 4.234375 
Q 43.84375 -1.421875 31.78125 -1.421875 
Q 19.734375 -1.421875 13.25 4.234375 
Q 6.78125 9.90625 6.78125 20.515625 
Q 6.78125 27.484375 10.78125 32.3125 
Q 14.796875 37.15625 21.921875 38.8125 
z
M 18.3125 54.390625 
Q 18.3125 48.734375 21.84375 45.5625 
Q 25.390625 42.390625 31.78125 42.390625 
Q 38.140625 42.390625 41.71875 45.5625 
Q 45.3125 48.734375 45.3125 54.390625 
Q 45.3125 60.0625 41.71875 63.234375 
Q 38.140625 66.40625 31.78125 66.40625 
Q 25.390625 66.40625 21.84375 63.234375 
Q 18.3125 60.0625 18.3125 54.390625 
z
" id="DejaVuSans-56"/>
      </defs>
      <g transform="translate(447.988438 463.158437)scale(0.1 -0.1)">
       <use xlink:href="#DejaVuSans-48"/>
       <use x="63.623047" xlink:href="#DejaVuSans-46"/>
       <use x="95.410156" xlink:href="#DejaVuSans-56"/>
      </g>
     </g>
    </g>
    <g id="xtick_10">
     <g id="line2d_19">
      <path clip-path="url(#p70c8813e2a)" d="M 503.37 448.56 
L 503.37 60.48 
" style="fill:none;stroke:#b0b0b0;stroke-linecap:square;stroke-width:0.8;"/>
     </g>
     <g id="line2d_20">
      <g>
       <use style="stroke:#000000;stroke-width:0.8;" x="503.37" xlink:href="#m00f0348c39" y="448.56"/>
      </g>
     </g>
     <g id="text_10">
      <!-- 0.9 -->
      <defs>
       <path d="M 10.984375 1.515625 
L 10.984375 10.5 
Q 14.703125 8.734375 18.5 7.8125 
Q 22.3125 6.890625 25.984375 6.890625 
Q 35.75 6.890625 40.890625 13.453125 
Q 46.046875 20.015625 46.78125 33.40625 
Q 43.953125 29.203125 39.59375 26.953125 
Q 35.25 24.703125 29.984375 24.703125 
Q 19.046875 24.703125 12.671875 31.3125 
Q 6.296875 37.9375 6.296875 49.421875 
Q 6.296875 60.640625 12.9375 67.421875 
Q 19.578125 74.21875 30.609375 74.21875 
Q 43.265625 74.21875 49.921875 64.515625 
Q 56.59375 54.828125 56.59375 36.375 
Q 56.59375 19.140625 48.40625 8.859375 
Q 40.234375 -1.421875 26.421875 -1.421875 
Q 22.703125 -1.421875 18.890625 -0.6875 
Q 15.09375 0.046875 10.984375 1.515625 
z
M 30.609375 32.421875 
Q 37.25 32.421875 41.125 36.953125 
Q 45.015625 41.5 45.015625 49.421875 
Q 45.015625 57.28125 41.125 61.84375 
Q 37.25 66.40625 30.609375 66.40625 
Q 23.96875 66.40625 20.09375 61.84375 
Q 16.21875 57.28125 16.21875 49.421875 
Q 16.21875 41.5 20.09375 36.953125 
Q 23.96875 32.421875 30.609375 32.421875 
z
" id="DejaVuSans-57"/>
      </defs>
      <g transform="translate(495.418438 463.158437)scale(0.1 -0.1)">
       <use xlink:href="#DejaVuSans-48"/>
       <use x="63.623047" xlink:href="#DejaVuSans-46"/>
       <use x="95.410156" xlink:href="#DejaVuSans-57"/>
      </g>
     </g>
    </g>
    <g id="xtick_11">
     <g id="line2d_21">
      <path clip-path="url(#p70c8813e2a)" d="M 550.8 448.56 
L 550.8 60.48 
" style="fill:none;stroke:#b0b0b0;stroke-linecap:square;stroke-width:0.8;"/>
     </g>
     <g id="line2d_22">
      <g>
       <use style="stroke:#000000;stroke-width:0.8;" x="550.8" xlink:href="#m00f0348c39" y="448.56"/>
      </g>
     </g>
     <g id="text_11">
      <!-- 1.0 -->
      <g transform="translate(542.848438 463.158437)scale(0.1 -0.1)">
       <use xlink:href="#DejaVuSans-49"/>
       <use x="63.623047" xlink:href="#DejaVuSans-46"/>
       <use x="95.410156" xlink:href="#DejaVuSans-48"/>
      </g>
     </g>
    </g>
    <g id="text_12">
     <!-- 1-precision -->
     <defs>
      <path d="M 4.890625 31.390625 
L 31.203125 31.390625 
L 31.203125 23.390625 
L 4.890625 23.390625 
z
" id="DejaVuSans-45"/>
      <path d="M 18.109375 8.203125 
L 18.109375 -20.796875 
L 9.078125 -20.796875 
L 9.078125 54.6875 
L 18.109375 54.6875 
L 18.109375 46.390625 
Q 20.953125 51.265625 25.265625 53.625 
Q 29.59375 56 35.59375 56 
Q 45.5625 56 51.78125 48.09375 
Q 58.015625 40.1875 58.015625 27.296875 
Q 58.015625 14.40625 51.78125 6.484375 
Q 45.5625 -1.421875 35.59375 -1.421875 
Q 29.59375 -1.421875 25.265625 0.953125 
Q 20.953125 3.328125 18.109375 8.203125 
z
M 48.6875 27.296875 
Q 48.6875 37.203125 44.609375 42.84375 
Q 40.53125 48.484375 33.40625 48.484375 
Q 26.265625 48.484375 22.1875 42.84375 
Q 18.109375 37.203125 18.109375 27.296875 
Q 18.109375 17.390625 22.1875 11.75 
Q 26.265625 6.109375 33.40625 6.109375 
Q 40.53125 6.109375 44.609375 11.75 
Q 48.6875 17.390625 48.6875 27.296875 
z
" id="DejaVuSans-112"/>
      <path d="M 41.109375 46.296875 
Q 39.59375 47.171875 37.8125 47.578125 
Q 36.03125 48 33.890625 48 
Q 26.265625 48 22.1875 43.046875 
Q 18.109375 38.09375 18.109375 28.8125 
L 18.109375 0 
L 9.078125 0 
L 9.078125 54.6875 
L 18.109375 54.6875 
L 18.109375 46.1875 
Q 20.953125 51.171875 25.484375 53.578125 
Q 30.03125 56 36.53125 56 
Q 37.453125 56 38.578125 55.875 
Q 39.703125 55.765625 41.0625 55.515625 
z
" id="DejaVuSans-114"/>
      <path d="M 56.203125 29.59375 
L 56.203125 25.203125 
L 14.890625 25.203125 
Q 15.484375 15.921875 20.484375 11.0625 
Q 25.484375 6.203125 34.421875 6.203125 
Q 39.59375 6.203125 44.453125 7.46875 
Q 49.3125 8.734375 54.109375 11.28125 
L 54.109375 2.78125 
Q 49.265625 0.734375 44.1875 -0.34375 
Q 39.109375 -1.421875 33.890625 -1.421875 
Q 20.796875 -1.421875 13.15625 6.1875 
Q 5.515625 13.8125 5.515625 26.8125 
Q 5.515625 40.234375 12.765625 48.109375 
Q 20.015625 56 32.328125 56 
Q 43.359375 56 49.78125 48.890625 
Q 56.203125 41.796875 56.203125 29.59375 
z
M 47.21875 32.234375 
Q 47.125 39.59375 43.09375 43.984375 
Q 39.0625 48.390625 32.421875 48.390625 
Q 24.90625 48.390625 20.390625 44.140625 
Q 15.875 39.890625 15.1875 32.171875 
z
" id="DejaVuSans-101"/>
      <path d="M 48.78125 52.59375 
L 48.78125 44.1875 
Q 44.96875 46.296875 41.140625 47.34375 
Q 37.3125 48.390625 33.40625 48.390625 
Q 24.65625 48.390625 19.8125 42.84375 
Q 14.984375 37.3125 14.984375 27.296875 
Q 14.984375 17.28125 19.8125 11.734375 
Q 24.65625 6.203125 33.40625 6.203125 
Q 37.3125 6.203125 41.140625 7.25 
Q 44.96875 8.296875 48.78125 10.40625 
L 48.78125 2.09375 
Q 45.015625 0.34375 40.984375 -0.53125 
Q 36.96875 -1.421875 32.421875 -1.421875 
Q 20.0625 -1.421875 12.78125 6.34375 
Q 5.515625 14.109375 5.515625 27.296875 
Q 5.515625 40.671875 12.859375 48.328125 
Q 20.21875 56 33.015625 56 
Q 37.15625 56 41.109375 55.140625 
Q 45.0625 54.296875 48.78125 52.59375 
z
" id="DejaVuSans-99"/>
      <path d="M 9.421875 54.6875 
L 18.40625 54.6875 
L 18.40625 0 
L 9.421875 0 
z
M 9.421875 75.984375 
L 18.40625 75.984375 
L 18.40625 64.59375 
L 9.421875 64.59375 
z
" id="DejaVuSans-105"/>
      <path d="M 44.28125 53.078125 
L 44.28125 44.578125 
Q 40.484375 46.53125 36.375 47.5 
Q 32.28125 48.484375 27.875 48.484375 
Q 21.1875 48.484375 17.84375 46.4375 
Q 14.5 44.390625 14.5 40.28125 
Q 14.5 37.15625 16.890625 35.375 
Q 19.28125 33.59375 26.515625 31.984375 
L 29.59375 31.296875 
Q 39.15625 29.25 43.1875 25.515625 
Q 47.21875 21.78125 47.21875 15.09375 
Q 47.21875 7.46875 41.1875 3.015625 
Q 35.15625 -1.421875 24.609375 -1.421875 
Q 20.21875 -1.421875 15.453125 -0.5625 
Q 10.6875 0.296875 5.421875 2 
L 5.421875 11.28125 
Q 10.40625 8.6875 15.234375 7.390625 
Q 20.0625 6.109375 24.8125 6.109375 
Q 31.15625 6.109375 34.5625 8.28125 
Q 37.984375 10.453125 37.984375 14.40625 
Q 37.984375 18.0625 35.515625 20.015625 
Q 33.0625 21.96875 24.703125 23.78125 
L 21.578125 24.515625 
Q 13.234375 26.265625 9.515625 29.90625 
Q 5.8125 33.546875 5.8125 39.890625 
Q 5.8125 47.609375 11.28125 51.796875 
Q 16.75 56 26.8125 56 
Q 31.78125 56 36.171875 55.265625 
Q 40.578125 54.546875 44.28125 53.078125 
z
" id="DejaVuSans-115"/>
      <path d="M 30.609375 48.390625 
Q 23.390625 48.390625 19.1875 42.75 
Q 14.984375 37.109375 14.984375 27.296875 
Q 14.984375 17.484375 19.15625 11.84375 
Q 23.34375 6.203125 30.609375 6.203125 
Q 37.796875 6.203125 41.984375 11.859375 
Q 46.1875 17.53125 46.1875 27.296875 
Q 46.1875 37.015625 41.984375 42.703125 
Q 37.796875 48.390625 30.609375 48.390625 
z
M 30.609375 56 
Q 42.328125 56 49.015625 48.375 
Q 55.71875 40.765625 55.71875 27.296875 
Q 55.71875 13.875 49.015625 6.21875 
Q 42.328125 -1.421875 30.609375 -1.421875 
Q 18.84375 -1.421875 12.171875 6.21875 
Q 5.515625 13.875 5.515625 27.296875 
Q 5.515625 40.765625 12.171875 48.375 
Q 18.84375 56 30.609375 56 
z
" id="DejaVuSans-111"/>
      <path d="M 54.890625 33.015625 
L 54.890625 0 
L 45.90625 0 
L 45.90625 32.71875 
Q 45.90625 40.484375 42.875 44.328125 
Q 39.84375 48.1875 33.796875 48.1875 
Q 26.515625 48.1875 22.3125 43.546875 
Q 18.109375 38.921875 18.109375 30.90625 
L 18.109375 0 
L 9.078125 0 
L 9.078125 54.6875 
L 18.109375 54.6875 
L 18.109375 46.1875 
Q 21.34375 51.125 25.703125 53.5625 
Q 30.078125 56 35.796875 56 
Q 45.21875 56 50.046875 50.171875 
Q 54.890625 44.34375 54.890625 33.015625 
z
" id="DejaVuSans-110"/>
     </defs>
     <g transform="translate(286.110938 476.836563)scale(0.1 -0.1)">
      <use xlink:href="#DejaVuSans-49"/>
      <use x="63.623047" xlink:href="#DejaVuSans-45"/>
      <use x="99.707031" xlink:href="#DejaVuSans-112"/>
      <use x="163.183594" xlink:href="#DejaVuSans-114"/>
      <use x="202.046875" xlink:href="#DejaVuSans-101"/>
      <use x="263.570312" xlink:href="#DejaVuSans-99"/>
      <use x="318.550781" xlink:href="#DejaVuSans-105"/>
      <use x="346.333984" xlink:href="#DejaVuSans-115"/>
      <use x="398.433594" xlink:href="#DejaVuSans-105"/>
      <use x="426.216797" xlink:href="#DejaVuSans-111"/>
      <use x="487.398438" xlink:href="#DejaVuSans-110"/>
     </g>
    </g>
   </g>
   <g id="matplotlib.axis_2">
    <g id="ytick_1">
     <g id="line2d_23">
      <path clip-path="url(#p70c8813e2a)" d="M 76.5 448.56 
L 550.8 448.56 
" style="fill:none;stroke:#b0b0b0;stroke-linecap:square;stroke-width:0.8;"/>
     </g>
     <g id="line2d_24">
      <defs>
       <path d="M 0 0 
L -3.5 0 
" id="md8bd0aedf7" style="stroke:#000000;stroke-width:0.8;"/>
      </defs>
      <g>
       <use style="stroke:#000000;stroke-width:0.8;" x="76.5" xlink:href="#md8bd0aedf7" y="448.56"/>
      </g>
     </g>
     <g id="text_13">
      <!-- 0.0 -->
      <g transform="translate(53.596875 452.359219)scale(0.1 -0.1)">
       <use xlink:href="#DejaVuSans-48"/>
       <use x="63.623047" xlink:href="#DejaVuSans-46"/>
       <use x="95.410156" xlink:href="#DejaVuSans-48"/>
      </g>
     </g>
    </g>
    <g id="ytick_2">
     <g id="line2d_25">
      <path clip-path="url(#p70c8813e2a)" d="M 76.5 409.752 
L 550.8 409.752 
" style="fill:none;stroke:#b0b0b0;stroke-linecap:square;stroke-width:0.8;"/>
     </g>
     <g id="line2d_26">
      <g>
       <use style="stroke:#000000;stroke-width:0.8;" x="76.5" xlink:href="#md8bd0aedf7" y="409.752"/>
      </g>
     </g>
     <g id="text_14">
      <!-- 0.1 -->
      <g transform="translate(53.596875 413.551219)scale(0.1 -0.1)">
       <use xlink:href="#DejaVuSans-48"/>
       <use x="63.623047" xlink:href="#DejaVuSans-46"/>
       <use x="95.410156" xlink:href="#DejaVuSans-49"/>
      </g>
     </g>
    </g>
    <g id="ytick_3">
     <g id="line2d_27">
      <path clip-path="url(#p70c8813e2a)" d="M 76.5 370.944 
L 550.8 370.944 
" style="fill:none;stroke:#b0b0b0;stroke-linecap:square;stroke-width:0.8;"/>
     </g>
     <g id="line2d_28">
      <g>
       <use style="stroke:#000000;stroke-width:0.8;" x="76.5" xlink:href="#md8bd0aedf7" y="370.944"/>
      </g>
     </g>
     <g id="text_15">
      <!-- 0.2 -->
      <g transform="translate(53.596875 374.743219)scale(0.1 -0.1)">
       <use xlink:href="#DejaVuSans-48"/>
       <use x="63.623047" xlink:href="#DejaVuSans-46"/>
       <use x="95.410156" xlink:href="#DejaVuSans-50"/>
      </g>
     </g>
    </g>
    <g id="ytick_4">
     <g id="line2d_29">
      <path clip-path="url(#p70c8813e2a)" d="M 76.5 332.136 
L 550.8 332.136 
" style="fill:none;stroke:#b0b0b0;stroke-linecap:square;stroke-width:0.8;"/>
     </g>
     <g id="line2d_30">
      <g>
       <use style="stroke:#000000;stroke-width:0.8;" x="76.5" xlink:href="#md8bd0aedf7" y="332.136"/>
      </g>
     </g>
     <g id="text_16">
      <!-- 0.3 -->
      <g transform="translate(53.596875 335.935219)scale(0.1 -0.1)">
       <use xlink:href="#DejaVuSans-48"/>
       <use x="63.623047" xlink:href="#DejaVuSans-46"/>
       <use x="95.410156" xlink:href="#DejaVuSans-51"/>
      </g>
     </g>
    </g>
    <g id="ytick_5">
     <g id="line2d_31">
      <path clip-path="url(#p70c8813e2a)" d="M 76.5 293.328 
L 550.8 293.328 
" style="fill:none;stroke:#b0b0b0;stroke-linecap:square;stroke-width:0.8;"/>
     </g>
     <g id="line2d_32">
      <g>
       <use style="stroke:#000000;stroke-width:0.8;" x="76.5" xlink:href="#md8bd0aedf7" y="293.328"/>
      </g>
     </g>
     <g id="text_17">
      <!-- 0.4 -->
      <g transform="translate(53.596875 297.127219)scale(0.1 -0.1)">
       <use xlink:href="#DejaVuSans-48"/>
       <use x="63.623047" xlink:href="#DejaVuSans-46"/>
       <use x="95.410156" xlink:href="#DejaVuSans-52"/>
      </g>
     </g>
    </g>
    <g id="ytick_6">
     <g id="line2d_33">
      <path clip-path="url(#p70c8813e2a)" d="M 76.5 254.52 
L 550.8 254.52 
" style="fill:none;stroke:#b0b0b0;stroke-linecap:square;stroke-width:0.8;"/>
     </g>
     <g id="line2d_34">
      <g>
       <use style="stroke:#000000;stroke-width:0.8;" x="76.5" xlink:href="#md8bd0aedf7" y="254.52"/>
      </g>
     </g>
     <g id="text_18">
      <!-- 0.5 -->
      <g transform="translate(53.596875 258.319219)scale(0.1 -0.1)">
       <use xlink:href="#DejaVuSans-48"/>
       <use x="63.623047" xlink:href="#DejaVuSans-46"/>
       <use x="95.410156" xlink:href="#DejaVuSans-53"/>
      </g>
     </g>
    </g>
    <g id="ytick_7">
     <g id="line2d_35">
      <path clip-path="url(#p70c8813e2a)" d="M 76.5 215.712 
L 550.8 215.712 
" style="fill:none;stroke:#b0b0b0;stroke-linecap:square;stroke-width:0.8;"/>
     </g>
     <g id="line2d_36">
      <g>
       <use style="stroke:#000000;stroke-width:0.8;" x="76.5" xlink:href="#md8bd0aedf7" y="215.712"/>
      </g>
     </g>
     <g id="text_19">
      <!-- 0.6 -->
      <g transform="translate(53.596875 219.511219)scale(0.1 -0.1)">
       <use xlink:href="#DejaVuSans-48"/>
       <use x="63.623047" xlink:href="#DejaVuSans-46"/>
       <use x="95.410156" xlink:href="#DejaVuSans-54"/>
      </g>
     </g>
    </g>
    <g id="ytick_8">
     <g id="line2d_37">
      <path clip-path="url(#p70c8813e2a)" d="M 76.5 176.904 
L 550.8 176.904 
" style="fill:none;stroke:#b0b0b0;stroke-linecap:square;stroke-width:0.8;"/>
     </g>
     <g id="line2d_38">
      <g>
       <use style="stroke:#000000;stroke-width:0.8;" x="76.5" xlink:href="#md8bd0aedf7" y="176.904"/>
      </g>
     </g>
     <g id="text_20">
      <!-- 0.7 -->
      <g transform="translate(53.596875 180.703219)scale(0.1 -0.1)">
       <use xlink:href="#DejaVuSans-48"/>
       <use x="63.623047" xlink:href="#DejaVuSans-46"/>
       <use x="95.410156" xlink:href="#DejaVuSans-55"/>
      </g>
     </g>
    </g>
    <g id="ytick_9">
     <g id="line2d_39">
      <path clip-path="url(#p70c8813e2a)" d="M 76.5 138.096 
L 550.8 138.096 
" style="fill:none;stroke:#b0b0b0;stroke-linecap:square;stroke-width:0.8;"/>
     </g>
     <g id="line2d_40">
      <g>
       <use style="stroke:#000000;stroke-width:0.8;" x="76.5" xlink:href="#md8bd0aedf7" y="138.096"/>
      </g>
     </g>
     <g id="text_21">
      <!-- 0.8 -->
      <g transform="translate(53.596875 141.895219)scale(0.1 -0.1)">
       <use xlink:href="#DejaVuSans-48"/>
       <use x="63.623047" xlink:href="#DejaVuSans-46"/>
       <use x="95.410156" xlink:href="#DejaVuSans-56"/>
      </g>
     </g>
    </g>
    <g id="ytick_10">
     <g id="line2d_41">
      <path clip-path="url(#p70c8813e2a)" d="M 76.5 99.288 
L 550.8 99.288 
" style="fill:none;stroke:#b0b0b0;stroke-linecap:square;stroke-width:0.8;"/>
     </g>
     <g id="line2d_42">
      <g>
       <use style="stroke:#000000;stroke-width:0.8;" x="76.5" xlink:href="#md8bd0aedf7" y="99.288"/>
      </g>
     </g>
     <g id="text_22">
      <!-- 0.9 -->
      <g transform="translate(53.596875 103.087219)scale(0.1 -0.1)">
       <use xlink:href="#DejaVuSans-48"/>
       <use x="63.623047" xlink:href="#DejaVuSans-46"/>
       <use x="95.410156" xlink:href="#DejaVuSans-57"/>
      </g>
     </g>
    </g>
    <g id="ytick_11">
     <g id="line2d_43">
      <path clip-path="url(#p70c8813e2a)" d="M 76.5 60.48 
L 550.8 60.48 
" style="fill:none;stroke:#b0b0b0;stroke-linecap:square;stroke-width:0.8;"/>
     </g>
     <g id="line2d_44">
      <g>
       <use style="stroke:#000000;stroke-width:0.8;" x="76.5" xlink:href="#md8bd0aedf7" y="60.48"/>
      </g>
     </g>
     <g id="text_23">
      <!-- 1.0 -->
      <g transform="translate(53.596875 64.279219)scale(0.1 -0.1)">
       <use xlink:href="#DejaVuSans-49"/>
       <use x="63.623047" xlink:href="#DejaVuSans-46"/>
       <use x="95.410156" xlink:href="#DejaVuSans-48"/>
      </g>
     </g>
    </g>
    <g id="text_24">
     <!-- #correct/3296 -->
     <defs>
      <path d="M 51.125 44 
L 36.921875 44 
L 32.8125 27.6875 
L 47.125 27.6875 
z
M 43.796875 71.78125 
L 38.71875 51.515625 
L 52.984375 51.515625 
L 58.109375 71.78125 
L 65.921875 71.78125 
L 60.890625 51.515625 
L 76.125 51.515625 
L 76.125 44 
L 58.984375 44 
L 54.984375 27.6875 
L 70.515625 27.6875 
L 70.515625 20.21875 
L 53.078125 20.21875 
L 48 0 
L 40.1875 0 
L 45.21875 20.21875 
L 30.90625 20.21875 
L 25.875 0 
L 18.015625 0 
L 23.09375 20.21875 
L 7.71875 20.21875 
L 7.71875 27.6875 
L 24.90625 27.6875 
L 29 44 
L 13.28125 44 
L 13.28125 51.515625 
L 30.90625 51.515625 
L 35.890625 71.78125 
z
" id="DejaVuSans-35"/>
      <path d="M 18.3125 70.21875 
L 18.3125 54.6875 
L 36.8125 54.6875 
L 36.8125 47.703125 
L 18.3125 47.703125 
L 18.3125 18.015625 
Q 18.3125 11.328125 20.140625 9.421875 
Q 21.96875 7.515625 27.59375 7.515625 
L 36.8125 7.515625 
L 36.8125 0 
L 27.59375 0 
Q 17.1875 0 13.234375 3.875 
Q 9.28125 7.765625 9.28125 18.015625 
L 9.28125 47.703125 
L 2.6875 47.703125 
L 2.6875 54.6875 
L 9.28125 54.6875 
L 9.28125 70.21875 
z
" id="DejaVuSans-116"/>
      <path d="M 25.390625 72.90625 
L 33.6875 72.90625 
L 8.296875 -9.28125 
L 0 -9.28125 
z
" id="DejaVuSans-47"/>
     </defs>
     <g transform="translate(47.517187 290.624688)rotate(-90)scale(0.1 -0.1)">
      <use xlink:href="#DejaVuSans-35"/>
      <use x="83.789062" xlink:href="#DejaVuSans-99"/>
      <use x="138.769531" xlink:href="#DejaVuSans-111"/>
      <use x="199.951172" xlink:href="#DejaVuSans-114"/>
      <use x="239.314453" xlink:href="#DejaVuSans-114"/>
      <use x="278.177734" xlink:href="#DejaVuSans-101"/>
      <use x="339.701172" xlink:href="#DejaVuSans-99"/>
      <use x="394.681641" xlink:href="#DejaVuSans-116"/>
      <use x="433.890625" xlink:href="#DejaVuSans-47"/>
      <use x="467.582031" xlink:href="#DejaVuSans-51"/>
      <use x="531.205078" xlink:href="#DejaVuSans-50"/>
      <use x="594.828125" xlink:href="#DejaVuSans-57"/>
      <use x="658.451172" xlink:href="#DejaVuSans-54"/>
     </g>
    </g>
   </g>
   <g id="line2d_45">
    <path clip-path="url(#p70c8813e2a)" d="M 76.5 448.442257 
L 76.5 440.435752 
L 83.275714 440.435752 
L 82.355556 439.140583 
L 81.545745 437.609927 
L 80.811818 435.726044 
L 80.148462 433.371189 
L 79.56 430.427621 
L 79.077717 427.013083 
L 81.627568 427.013083 
L 80.912093 423.480801 
L 80.606494 421.596917 
L 82.63319 421.596917 
L 82.146429 419.242063 
L 83.998814 419.242063 
L 83.94 419.006578 
L 85.763672 419.006578 
L 85.51711 418.182379 
L 87.279545 418.182379 
L 86.212628 414.76784 
L 86.179592 414.650097 
L 87.754576 414.650097 
L 86.842991 411.588786 
L 88.283851 411.588786 
L 88.211111 411.353301 
L 89.634462 411.353301 
L 89.12929 409.822646 
L 90.49115 409.822646 
L 90.051429 408.527476 
L 91.364103 408.527476 
L 90.086719 404.641966 
L 89.843478 403.817767 
L 91.019388 403.817767 
L 90.982443 403.700024 
L 92.149492 403.700024 
L 92.109873 403.582282 
L 93.268182 403.582282 
L 92.936139 402.64034 
L 94.066667 402.64034 
L 94.023399 402.522597 
L 95.1457 402.522597 
L 95.1 402.404854 
L 96.214181 402.404854 
L 95.835971 401.462913 
L 96.924402 401.462913 
L 96.827143 401.227427 
L 100.046809 401.227427 
L 99.717483 400.520971 
L 101.810673 400.520971 
L 101.014382 398.872573 
L 102.02287 398.872573 
L 101.739911 398.283859 
L 102.733407 398.283859 
L 102.675497 398.166117 
L 103.662555 398.166117 
L 102.626695 396.046748 
L 103.574207 396.046748 
L 102.423279 393.57415 
L 103.329091 393.57415 
L 102.387719 391.454782 
L 103.260117 391.454782 
L 103.208155 391.337039 
L 104.075581 391.337039 
L 103.81094 390.748325 
L 104.667241 390.748325 
L 104.613384 390.630583 
L 105.464885 390.630583 
L 104.869346 389.335413 
L 107.355948 389.335413 
L 107.298701 389.21767 
L 108.12 389.21767 
L 107.715356 388.393471 
L 108.523905 388.393471 
L 108.407455 388.157985 
L 109.210345 388.157985 
L 108.627273 386.980558 
L 109.414057 386.980558 
L 108.952105 386.038617 
L 109.725919 386.038617 
L 109.552265 385.685388 
L 110.319652 385.685388 
L 110.260938 385.567646 
L 111.024437 385.567646 
L 110.964706 385.449903 
L 112.481379 385.449903 
L 112.296226 385.096675 
L 113.047089 385.096675 
L 112.798469 384.625704 
L 114.28322 384.625704 
L 114.219289 384.507961 
L 114.956757 384.507961 
L 114.891906 384.390218 
L 115.625758 384.390218 
L 115.56 384.272476 
L 117.01809 384.272476 
L 116.089689 382.624078 
L 116.8 382.624078 
L 116.66873 382.388592 
L 118.078247 382.388592 
L 117.545192 381.44665 
L 118.2384 381.44665 
L 117.645899 380.386966 
L 118.328031 380.386966 
L 118.262264 380.269223 
L 118.941287 380.269223 
L 117.964877 378.503083 
L 119.288532 378.503083 
L 119.223206 378.38534 
L 120.536986 378.38534 
L 120.470061 378.267597 
L 121.123065 378.267597 
L 121.055455 378.149854 
L 121.705598 378.149854 
L 121.569231 377.914369 
L 122.86015 377.914369 
L 122.721139 377.678883 
L 123.361976 377.678883 
L 123.152459 377.325655 
L 123.788839 377.325655 
L 123.648516 377.09017 
L 124.281333 377.09017 
L 124.069912 376.736942 
L 125.325 376.736942 
L 124.827511 375.912743 
L 125.446657 375.912743 
L 125.163728 375.441772 
L 125.777922 375.441772 
L 125.706916 375.324029 
L 126.318561 375.324029 
L 126.246983 375.206286 
L 127.463467 375.206286 
L 127.100996 374.617573 
L 127.702841 374.617573 
L 127.55779 374.382087 
L 129.34866 374.382087 
L 129.274225 374.264345 
L 129.867089 374.264345 
L 129.792135 374.146602 
L 130.971429 374.146602 
L 130.819274 373.911117 
L 131.405021 373.911117 
L 131.252295 373.675631 
L 132.416089 373.675631 
L 132.261411 373.440146 
L 133.990909 373.440146 
L 133.832967 373.20466 
L 134.975342 373.20466 
L 134.815574 372.969175 
L 135.383083 372.969175 
L 135.302861 372.851432 
L 138.114073 372.851432 
L 137.617852 372.144976 
L 138.724096 372.144976 
L 138.146419 371.320777 
L 138.69298 371.320777 
L 138.446834 370.967549 
L 140.611417 370.967549 
L 140.276632 370.496578 
L 140.811864 370.496578 
L 140.728125 370.378835 
L 141.261378 370.378835 
L 140.926261 369.907864 
L 143.036293 369.907864 
L 142.865469 369.672379 
L 143.388462 369.672379 
L 143.047194 369.201408 
L 144.601525 369.201408 
L 144.515102 369.083665 
L 146.056005 369.083665 
L 145.793199 368.730437 
L 146.810804 368.730437 
L 146.546809 368.377209 
L 149.060821 368.377209 
L 148.970683 368.259466 
L 149.469231 368.259466 
L 149.288614 368.023981 
L 150.28 368.023981 
L 150.007749 367.670752 
L 150.500123 367.670752 
L 150.409325 367.55301 
L 150.9 367.55301 
L 150.446894 366.964296 
L 151.419806 366.964296 
L 151.238182 366.728811 
L 152.68587 366.728811 
L 152.502289 366.493325 
L 153.936735 366.493325 
L 153.843885 366.375583 
L 154.319281 366.375583 
L 154.133333 366.140097 
L 155.078903 366.140097 
L 154.985357 366.022354 
L 155.925534 366.022354 
L 155.55 365.551383 
L 157.872268 365.551383 
L 157.776761 365.433641 
L 159.613318 365.433641 
L 159.41958 365.198155 
L 160.783275 365.198155 
L 160.685499 365.080413 
L 161.137543 365.080413 
L 161.039583 364.96267 
L 163.282163 364.96267 
L 163.182414 364.844927 
L 168.889128 364.844927 
L 168.784615 364.727184 
L 169.646953 364.727184 
L 169.541939 364.609442 
L 172.103583 364.609442 
L 171.996644 364.491699 
L 174.103448 364.491699 
L 173.886792 364.256214 
L 175.137611 364.256214 
L 175.028619 364.138471 
L 175.857222 364.138471 
L 175.747797 364.020728 
L 179.023362 364.020728 
L 178.8 363.785243 
L 179.204788 363.785243 
L 178.981759 363.549757 
L 180.188961 363.549757 
L 180.076865 363.432015 
L 180.477214 363.432015 
L 180.365049 363.314272 
L 180.764224 363.314272 
L 180.54 363.078786 
L 180.937701 363.078786 
L 180.825644 362.961044 
L 181.222186 362.961044 
L 181.110064 362.843301 
L 183.078594 362.843301 
L 182.965213 362.725558 
L 183.356111 362.725558 
L 183.242675 362.607816 
L 183.63245 362.607816 
L 183.518962 362.490073 
L 187.368868 362.490073 
L 187.252775 362.37233 
L 189.14625 362.37233 
L 189.029032 362.254587 
L 190.901553 362.254587 
L 190.783247 362.136845 
L 191.155165 362.136845 
L 190.800927 361.783617 
L 193.011771 361.783617 
L 192.655102 361.430388 
L 193.748118 361.430388 
L 193.628963 361.312646 
L 197.577588 361.312646 
L 197.456024 361.194903 
L 200.620299 361.194903 
L 200.496918 361.07716 
L 201.884257 361.07716 
L 201.636462 360.841675 
L 201.981145 360.841675 
L 201.857396 360.723932 
L 203.228487 360.723932 
L 203.104122 360.606189 
L 204.124755 360.606189 
L 204 360.488447 
L 208.681967 360.488447 
L 208.300673 360.135218 
L 210.265296 360.135218 
L 210.010019 359.899733 
L 210.982778 359.899733 
L 210.854943 359.78199 
L 213.738549 359.78199 
L 213.609322 359.664248 
L 214.243139 359.664248 
L 214.113803 359.546505 
L 215.687103 359.546505 
L 215.29795 359.193277 
L 216.854082 359.193277 
L 216.724004 359.075534 
L 218.264945 359.075534 
L 218.003867 358.840049 
L 219.529056 358.840049 
L 219.398077 358.722306 
L 220.607573 358.722306 
L 220.214195 358.369078 
L 222.30651 358.369078 
L 222.174797 358.251335 
L 224.239767 358.251335 
L 224.107265 358.133592 
L 225.565714 358.133592 
L 225.432739 358.01585 
L 226.5896 358.01585 
L 226.456306 357.898107 
L 228.460194 357.898107 
L 228.32619 357.780364 
L 231.145017 357.780364 
L 231.009956 357.662621 
L 231.289005 357.662621 
L 231.154054 357.544879 
L 231.710444 357.544879 
L 231.440747 357.309393 
L 234.191473 357.309393 
L 234.055766 357.19165 
L 234.871416 357.19165 
L 234.735592 357.073908 
L 235.006427 357.073908 
L 234.870719 356.956165 
L 235.948976 356.956165 
L 235.813043 356.838422 
L 236.349191 356.838422 
L 236.213265 356.72068 
L 237.279661 356.72068 
L 237.143522 356.602937 
L 237.408883 356.602937 
L 237.272866 356.485194 
L 240.680769 356.485194 
L 240.543609 356.367451 
L 244.130388 356.367451 
L 243.853998 356.131966 
L 245.364807 356.131966 
L 245.226393 356.014223 
L 248.693193 356.014223 
L 248.553765 355.896481 
L 251.702163 355.896481 
L 251.56189 355.778738 
L 252.755024 355.778738 
L 252.614582 355.660995 
L 254.033386 355.660995 
L 253.89271 355.543252 
L 256.226887 355.543252 
L 256.085703 355.42551 
L 257.468256 355.42551 
L 257.326875 355.307767 
L 258.468794 355.307767 
L 258.186014 355.072282 
L 258.413199 355.072282 
L 258.272071 354.954539 
L 260.076407 354.954539 
L 259.934977 354.836796 
L 260.605688 354.836796 
L 260.464286 354.719053 
L 262.896649 354.719053 
L 262.754795 354.601311 
L 264.064091 354.601311 
L 263.780333 354.365825 
L 265.721112 354.365825 
L 265.579054 354.248083 
L 265.793023 354.248083 
L 265.651124 354.13034 
L 266.077994 354.13034 
L 265.9362 354.012597 
L 266.361688 354.012597 
L 266.22 353.894854 
L 266.432215 353.894854 
L 266.290686 353.777112 
L 269.435593 353.777112 
L 269.29352 353.659369 
L 272.166035 353.659369 
L 271.881223 353.423883 
L 272.286628 353.423883 
L 272.144444 353.306141 
L 272.548586 353.306141 
L 272.406522 353.188398 
L 274.806466 353.188398 
L 274.664106 353.070655 
L 275.651717 353.070655 
L 275.509364 352.952913 
L 279.006351 352.952913 
L 278.72093 352.717427 
L 281.190922 352.717427 
L 281.048081 352.599684 
L 281.986022 352.599684 
L 281.843224 352.481942 
L 284.06754 352.481942 
L 283.924587 352.364199 
L 286.653374 352.364199 
L 286.510218 352.246456 
L 287.764475 352.246456 
L 287.621341 352.128714 
L 295.910433 352.128714 
L 295.766557 352.010971 
L 295.933683 352.010971 
L 296.931854 352.010971 
L 296.788063 351.893228 
L 296.953651 351.893228 
L 297.778363 351.893228 
L 297.634675 351.775485 
L 297.798962 351.775485 
L 298.943023 351.775485 
L 298.799419 351.657743 
L 298.962 351.657743 
L 302.32839 351.657743 
L 302.184733 351.54 
L 302.342784 351.54 
L 306.5355 351.54 
L 306.391818 351.422257 
L 306.544382 351.422257 
L 308.059615 351.422257 
L 307.923158 351.186772 
L 310.747307 351.186772 
L 310.604037 351.069029 
L 310.750856 351.069029 
L 312.643299 351.069029 
L 312.357238 350.833544 
L 312.501574 350.833544 
L 313.507052 350.833544 
L 313.364277 350.715801 
L 313.507225 350.715801 
L 313.65 350.715801 
L 313.507396 350.598058 
L 313.65 350.598058 
L 316.327273 350.598058 
L 316.184857 350.480316 
L 316.324095 350.480316 
L 317.707434 350.480316 
L 317.565212 350.362573 
L 317.702652 350.362573 
L 318.250794 350.362573 
L 318.108754 350.24483 
L 318.24539 350.24483 
L 318.654338 350.24483 
L 318.512478 350.127087 
L 318.648478 350.127087 
L 318.784318 350.127087 
L 318.642632 350.009345 
L 318.778317 350.009345 
L 319.049212 350.009345 
L 318.907701 349.891602 
L 319.042915 349.891602 
L 324.968523 349.891602 
L 324.814748 349.656117 
L 325.070822 349.656117 
L 324.930068 349.538374 
L 325.057895 349.538374 
L 326.454499 349.538374 
L 326.173652 349.302888 
L 326.299775 349.302888 
L 326.802857 349.302888 
L 326.648154 349.067403 
L 328.389623 349.067403 
L 328.249917 348.94966 
L 328.373282 348.94966 
L 330.691498 348.94966 
L 330.412932 348.714175 
L 330.533625 348.714175 
L 331.852586 348.714175 
L 331.713656 348.596432 
L 331.83279 348.596432 
L 333.017036 348.596432 
L 332.878378 348.478689 
L 332.99611 348.478689 
L 333.231193 348.478689 
L 333.071767 348.243204 
L 333.773362 348.243204 
L 333.635266 348.125461 
L 333.75177 348.125461 
L 336.283616 348.125461 
L 336.145946 348.007718 
L 336.25964 348.007718 
L 336.713214 348.007718 
L 336.575753 347.889976 
L 336.68886 347.889976 
L 338.926176 347.889976 
L 338.789138 347.772233 
L 338.899791 347.772233 
L 340.218672 347.772233 
L 340.08196 347.65449 
L 340.19114 347.65449 
L 342.458073 347.65449 
L 342.321824 347.536748 
L 342.428571 347.536748 
L 342.641739 347.536748 
L 342.4762 347.301262 
L 344.269367 347.301262 
L 344.133856 347.183519 
L 344.238392 347.183519 
L 344.967188 347.183519 
L 344.83194 347.065777 
L 344.93565 347.065777 
L 345.246154 347.065777 
L 345.111106 346.948034 
L 345.214415 346.948034 
L 345.31762 346.948034 
L 345.151128 346.712549 
L 346.176808 346.712549 
L 346.01011 346.477063 
L 347.629002 346.477063 
L 347.495111 346.35932 
L 347.595459 346.35932 
L 348.195472 346.35932 
L 347.928319 346.123835 
L 348.02801 346.123835 
L 348.624106 346.123835 
L 348.490842 346.006092 
L 348.589868 346.006092 
L 349.476754 346.006092 
L 349.34379 345.88835 
L 349.44187 345.88835 
L 351.767469 345.88835 
L 351.635065 345.770607 
L 351.730817 345.770607 
L 352.303404 345.770607 
L 352.171251 345.652864 
L 352.266379 345.652864 
L 352.361417 345.652864 
L 352.229426 345.535121 
L 352.32439 345.535121 
L 353.363035 345.535121 
L 353.231384 345.417379 
L 353.325285 345.417379 
L 353.886825 345.417379 
L 353.755424 345.299636 
L 353.848722 345.299636 
L 354.499339 345.299636 
L 354.368208 345.181893 
L 354.46082 345.181893 
L 355.656888 345.181893 
L 355.526136 345.06415 
L 355.617556 345.06415 
L 355.891304 345.06415 
L 355.760748 344.946408 
L 355.851845 344.946408 
L 355.942857 344.946408 
L 355.812459 344.828665 
L 355.903405 344.828665 
L 356.988173 344.828665 
L 356.858136 344.710922 
L 356.948007 344.710922 
L 357.217122 344.710922 
L 357.08728 344.59318 
L 357.176838 344.59318 
L 357.534241 344.59318 
L 357.404613 344.475437 
L 357.493776 344.475437 
L 358.821429 344.475437 
L 358.69222 344.357694 
L 358.780101 344.357694 
L 363.241689 344.357694 
L 363.113622 344.239951 
L 363.197411 344.239951 
L 365.513492 344.239951 
L 365.386117 344.122209 
L 365.549406 344.122209 
L 367.805611 344.122209 
L 367.678957 344.004466 
L 367.838054 344.004466 
L 368.471688 344.004466 
L 368.345348 343.886723 
L 368.503113 343.886723 
L 371.449638 343.886723 
L 371.324235 343.768981 
L 371.47672 343.768981 
L 372.008386 343.768981 
L 371.883277 343.651238 
L 372.034645 343.651238 
L 372.261217 343.651238 
L 372.136318 343.533495 
L 372.287089 343.533495 
L 374.371476 343.533495 
L 374.247311 343.415752 
L 374.394377 343.415752 
L 375.198881 343.415752 
L 375.096978 343.180267 
L 375.387397 343.180267 
L 375.263941 343.062524 
L 375.408832 343.062524 
L 375.553485 343.062524 
L 375.430214 342.944782 
L 375.574671 342.944782 
L 376.078398 342.944782 
L 375.955419 342.827039 
L 376.098852 342.827039 
L 376.31356 342.827039 
L 376.190786 342.709296 
L 376.333674 342.709296 
L 376.547568 342.709296 
L 376.44492 342.473811 
L 377.153393 342.473811 
L 377.031275 342.356068 
L 377.172321 342.356068 
L 377.313139 342.356068 
L 377.191204 342.238325 
L 377.331835 342.238325 
L 378.309907 342.238325 
L 378.188406 342.120583 
L 378.327273 342.120583 
L 378.949419 342.120583 
L 378.828245 342.00284 
L 378.965933 342.00284 
L 381.540733 342.00284 
L 381.420497 341.885097 
L 381.553919 341.885097 
L 381.952927 341.885097 
L 381.832954 341.767354 
L 381.965581 341.767354 
L 383.01915 341.767354 
L 382.780242 341.531869 
L 382.911098 341.531869 
L 383.756722 341.531869 
L 383.637723 341.414126 
L 383.767105 341.414126 
L 385.936364 341.414126 
L 385.818213 341.296383 
L 385.944105 341.296383 
L 386.006979 341.296383 
L 385.888982 341.178641 
L 386.014629 341.178641 
L 386.07738 341.178641 
L 385.959536 341.060898 
L 386.084937 341.060898 
L 389.879933 341.060898 
L 389.763522 340.943155 
L 389.883073 340.943155 
L 390.359511 340.943155 
L 390.186765 340.70767 
L 390.24612 340.70767 
L 390.660376 340.70767 
L 390.54462 340.589927 
L 390.662629 340.589927 
L 390.780464 340.589927 
L 390.664877 340.472184 
L 390.78258 340.472184 
L 390.958811 340.472184 
L 390.843413 340.354442 
L 390.960726 340.354442 
L 391.136374 340.354442 
L 391.021164 340.236699 
L 391.13809 340.236699 
L 391.604086 340.236699 
L 391.489168 340.118956 
L 391.605284 340.118956 
L 392.125717 340.118956 
L 392.011111 340.001214 
L 392.126343 340.001214 
L 393.947561 340.001214 
L 393.83374 339.883471 
L 393.94622 339.883471 
L 394.951335 339.883471 
L 394.838007 339.765728 
L 394.948933 339.765728 
L 395.61119 339.765728 
L 395.49823 339.647985 
L 395.6081 339.647985 
L 397.559518 339.647985 
L 397.447416 339.530243 
L 397.554431 339.530243 
L 399.298862 339.530243 
L 399.187552 339.4125 
L 399.29204 339.4125 
L 400.174409 339.4125 
L 400.063562 339.294757 
L 400.166735 339.294757 
L 400.629273 339.294757 
L 400.518724 339.177015 
L 400.621166 339.177015 
L 402.541353 339.177015 
L 402.322091 338.941529 
L 402.471716 338.941529 
L 402.918788 338.941529 
L 402.809508 338.823786 
L 402.957993 338.823786 
L 403.204808 338.823786 
L 403.095761 338.706044 
L 403.243515 338.706044 
L 404.026567 338.706044 
L 403.917971 338.588301 
L 404.063928 338.588301 
L 404.500066 338.588301 
L 404.391779 338.470558 
L 404.536642 338.470558 
L 405.590275 338.470558 
L 405.482553 338.352816 
L 405.625114 338.352816 
L 406.474642 338.352816 
L 406.367403 338.235073 
L 406.508084 338.235073 
L 406.60172 338.235073 
L 406.387646 337.999587 
L 406.527988 337.999587 
L 407.133 337.999587 
L 407.026379 337.881845 
L 407.165335 337.881845 
L 408.585646 337.881845 
L 408.51 337.646359 
L 409.051713 337.646359 
L 408.946242 337.528617 
L 409.081084 337.528617 
L 409.125974 337.528617 
L 409.020646 337.410874 
L 409.155204 337.410874 
L 410.354831 337.410874 
L 410.250141 337.293131 
L 410.382237 337.293131 
L 410.470163 337.293131 
L 410.365634 337.175388 
L 410.497373 337.175388 
L 411.36936 337.175388 
L 411.291343 336.939903 
L 411.894717 336.939903 
L 411.791137 336.82216 
L 411.919809 336.82216 
L 412.005458 336.82216 
L 411.823823 336.468932 
L 413.847134 336.468932 
L 413.744845 336.351189 
L 413.869403 336.351189 
L 414.241722 336.351189 
L 414.139716 336.233447 
L 414.263428 336.233447 
L 415.366836 336.233447 
L 415.26544 336.115704 
L 415.386996 336.115704 
L 416.111775 336.115704 
L 416.01082 335.997961 
L 416.130918 335.997961 
L 416.489929 335.997961 
L 416.389251 335.880218 
L 416.50855 335.880218 
L 416.54827 335.880218 
L 416.447723 335.762476 
L 416.566795 335.762476 
L 416.685655 335.762476 
L 416.484956 335.52699 
L 416.603714 335.52699 
L 417.311873 335.52699 
L 417.112159 335.291505 
L 417.229567 335.291505 
L 417.929703 335.291505 
L 417.830306 335.173762 
L 417.946335 335.173762 
L 418.370049 335.173762 
L 418.270957 335.056019 
L 418.386099 335.056019 
L 418.844675 335.056019 
L 418.745903 334.938277 
L 418.860104 334.938277 
L 419.05 334.938277 
L 418.951424 334.820534 
L 419.065152 334.820534 
L 421.809628 334.820534 
L 421.71244 334.702791 
L 421.821344 334.702791 
L 422.255129 334.702791 
L 422.158252 334.585049 
L 422.266293 334.585049 
L 422.625126 334.585049 
L 422.528524 334.467306 
L 422.671564 334.467306 
L 422.778635 334.467306 
L 422.682206 334.349563 
L 422.824757 334.349563 
L 423.17975 334.349563 
L 423.083611 334.23182 
L 423.225125 334.23182 
L 423.401577 334.23182 
L 423.315497 333.996335 
L 423.350704 333.996335 
L 423.526448 333.996335 
L 423.430769 333.878592 
L 423.571082 333.878592 
L 424.302683 333.878592 
L 424.207473 333.76085 
L 424.345939 333.76085 
L 424.44959 333.76085 
L 424.363138 333.525364 
L 424.397627 333.525364 
L 426.2325 333.525364 
L 426.138511 333.407621 
L 426.272376 333.407621 
L 426.305797 333.407621 
L 426.21194 333.289879 
L 426.345511 333.289879 
L 428.056225 333.289879 
L 427.963319 333.172136 
L 428.093031 333.172136 
L 428.512707 333.172136 
L 428.420121 333.054393 
L 428.548739 333.054393 
L 433.74634 333.054393 
L 433.596154 332.818908 
L 433.684476 332.818908 
L 434.386292 332.818908 
L 434.296955 332.701165 
L 434.413167 332.701165 
L 435.220208 332.701165 
L 435.131394 332.583422 
L 435.245832 332.583422 
L 436.796706 332.583422 
L 436.708807 332.46568 
L 436.820034 332.46568 
L 436.931045 332.46568 
L 436.843306 332.347937 
L 436.981838 332.347937 
L 437.80601 332.347937 
L 437.718822 332.230194 
L 437.855098 332.230194 
L 440.823844 332.230194 
L 440.738362 332.112451 
L 440.867331 332.112451 
L 442.291395 332.112451 
L 442.206799 331.994709 
L 442.332225 331.994709 
L 442.582208 331.994709 
L 442.497857 331.876966 
L 442.622486 331.876966 
L 443.093469 331.876966 
L 443.009485 331.759223 
L 443.132815 331.759223 
L 443.329557 331.759223 
L 443.245787 331.641481 
L 443.368453 331.641481 
L 443.686081 331.641481 
L 443.602592 331.523738 
L 443.724324 331.523738 
L 444.256678 331.523738 
L 444.173588 331.405995 
L 444.293907 331.405995 
L 444.724815 331.405995 
L 444.678568 331.17051 
L 444.963585 331.17051 
L 444.881137 331.052767 
L 444.999508 331.052767 
L 446.006686 331.052767 
L 445.9249 330.935024 
L 446.040836 330.935024 
L 447.05012 330.935024 
L 446.969002 330.817282 
L 447.082528 330.817282 
L 448.690205 330.817282 
L 448.610095 330.699539 
L 448.741896 330.699539 
L 449.65507 330.699539 
L 449.575591 330.581796 
L 449.704786 330.581796 
L 449.855098 330.581796 
L 449.775812 330.464053 
L 449.904369 330.464053 
L 450.117905 330.464053 
L 450.038849 330.346311 
L 450.16661 330.346311 
L 451.385136 330.346311 
L 451.306888 330.228568 
L 451.431332 330.228568 
L 452.314153 330.228568 
L 452.236521 330.110825 
L 452.358531 330.110825 
L 452.439703 330.110825 
L 452.362222 329.993083 
L 452.4838 329.993083 
L 455.065364 329.993083 
L 454.989499 329.87534 
L 455.104564 329.87534 
L 455.20024 329.87534 
L 455.12453 329.757597 
L 455.239157 329.757597 
L 455.770473 329.757597 
L 455.695176 329.639854 
L 455.808328 329.639854 
L 456.033828 329.639854 
L 455.958762 329.522112 
L 456.089887 329.522112 
L 456.72166 329.522112 
L 456.647077 329.404369 
L 456.77618 329.404369 
L 457.234386 329.404369 
L 457.160183 329.286626 
L 457.287758 329.286626 
L 457.433133 329.286626 
L 457.359122 329.168883 
L 457.48603 329.168883 
L 457.954402 329.168883 
L 457.880776 329.051141 
L 458.006149 329.051141 
L 459.032082 329.051141 
L 458.959177 328.933398 
L 459.081538 328.933398 
L 460.185333 328.933398 
L 460.160353 328.697913 
L 460.852645 328.697913 
L 460.781058 328.58017 
L 460.89827 328.58017 
L 461.098497 328.58017 
L 461.005767 328.344684 
L 461.072318 328.344684 
L 461.387094 328.344684 
L 461.316042 328.226942 
L 461.431527 328.226942 
L 461.759846 328.226942 
L 461.689091 328.109199 
L 461.803503 328.109199 
L 461.966441 328.109199 
L 461.798337 327.638228 
L 462.379942 327.638228 
L 462.309909 327.520485 
L 462.438202 327.520485 
L 464.242145 327.520485 
L 464.173323 327.402743 
L 464.296154 327.402743 
L 466.288364 327.402743 
L 466.22088 327.285 
L 466.337863 327.285 
L 466.381649 327.285 
L 466.314288 327.167257 
L 466.430901 327.167257 
L 468.337386 327.167257 
L 468.236667 326.814029 
L 468.264456 326.814029 
L 468.278344 326.814029 
L 468.188231 326.578544 
L 468.271481 326.578544 
L 468.368395 326.578544 
L 468.302667 326.460801 
L 468.427014 326.460801 
L 468.592228 326.460801 
L 468.526705 326.343058 
L 468.650259 326.343058 
L 469.865691 326.343058 
L 469.801036 326.225316 
L 469.920679 326.225316 
L 470.251177 326.225316 
L 470.186828 326.107573 
L 470.305222 326.107573 
L 471.175787 326.107573 
L 471.112088 325.98983 
L 471.227671 325.98983 
L 472.203009 325.98983 
L 472.140029 325.872087 
L 472.265025 325.872087 
L 472.551013 325.872087 
L 472.488317 325.754345 
L 472.612091 325.754345 
L 473.091093 325.754345 
L 472.9776 325.401117 
L 473.026399 325.401117 
L 473.135974 325.401117 
L 473.073893 325.283374 
L 473.195359 325.283374 
L 473.72533 325.283374 
L 473.663687 325.165631 
L 473.783204 325.165631 
L 473.949907 325.165631 
L 473.888468 325.047888 
L 474.007177 325.047888 
L 474.909106 325.047888 
L 474.848345 324.930146 
L 474.964002 324.930146 
L 477.40059 324.930146 
L 477.341512 324.812403 
L 477.460394 324.812403 
L 477.814744 324.812403 
L 477.755995 324.69466 
L 477.873429 324.69466 
L 477.884086 324.69466 
L 477.825438 324.576917 
L 477.942538 324.576917 
L 478.175614 324.576917 
L 478.117214 324.459175 
L 478.23327 324.459175 
L 479.117723 324.459175 
L 479.06 324.341432 
L 479.183212 324.341432 
L 480.2833 324.341432 
L 480.25897 324.105947 
L 480.288734 324.105947 
L 480.849519 324.105947 
L 480.793108 323.988204 
L 480.910111 323.988204 
L 482.058986 323.988204 
L 482.003438 323.870461 
L 482.125718 323.870461 
L 482.978814 323.870461 
L 482.905734 323.634976 
L 482.988074 323.634976 
L 483.612777 323.634976 
L 483.55843 323.517233 
L 483.67492 323.517233 
L 483.906693 323.517233 
L 483.852596 323.39949 
L 483.967961 323.39949 
L 484.530166 323.39949 
L 484.476541 323.281748 
L 484.598347 323.281748 
L 486.009244 323.281748 
L 485.956675 323.164005 
L 486.073001 323.164005 
L 486.599504 323.164005 
L 486.547388 323.046262 
L 486.661499 323.046262 
L 486.88851 323.046262 
L 486.836641 322.928519 
L 486.957676 322.928519 
L 487.286182 322.928519 
L 487.234634 322.810777 
L 487.354058 322.810777 
L 487.999058 322.810777 
L 487.948048 322.693034 
L 488.064699 322.693034 
L 488.149969 322.693034 
L 488.09911 322.575291 
L 488.215094 322.575291 
L 488.712772 322.575291 
L 488.662349 322.457549 
L 488.776154 322.457549 
L 489.130059 322.457549 
L 489.079971 322.339806 
L 489.199612 322.339806 
L 489.702956 322.339806 
L 489.65331 322.222063 
L 489.770632 322.222063 
L 490.721627 322.222063 
L 490.672734 322.10432 
L 490.786074 322.10432 
L 491.916842 322.10432 
L 491.868828 321.986578 
L 491.984393 321.986578 
L 492.099505 321.986578 
L 492.051663 321.868835 
L 492.166406 321.868835 
L 493.618286 321.868835 
L 493.576116 321.63335 
L 493.640089 321.63335 
L 494.102794 321.63335 
L 494.056492 321.515607 
L 494.17578 321.515607 
L 495.341645 321.515607 
L 495.296262 321.397864 
L 495.410294 321.397864 
L 495.642899 321.397864 
L 495.576434 321.162379 
L 495.67135 321.162379 
L 496.12361 321.162379 
L 496.078907 321.044636 
L 496.195248 321.044636 
L 497.904634 321.044636 
L 497.861244 320.926893 
L 497.975465 320.926893 
L 498.960799 320.926893 
L 498.918207 320.80915 
L 499.033025 320.80915 
L 500.063975 320.80915 
L 500.063975 320.80915 
" style="fill:none;stroke:#1f77b4;stroke-linecap:square;stroke-width:2;"/>
   </g>
   <g id="line2d_46">
    <path clip-path="url(#p70c8813e2a)" d="M 76.5 448.442257 
L 540.26 448.442257 
L 530.178261 448.324515 
L 539.64 448.324515 
L 544.87125 448.324515 
L 540.654545 448.089029 
L 541.765714 448.089029 
L 545.960204 448.089029 
L 543.006338 447.735801 
L 543.503077 447.735801 
L 545.124615 447.735801 
L 544.161275 447.500316 
L 544.282901 447.500316 
L 544.586463 447.500316 
L 543.7875 447.26483 
L 543.871315 447.26483 
L 543.89881 447.26483 
L 543.281374 447.147087 
L 543.867479 447.147087 
L 545.379429 447.147087 
L 544.933302 447.029345 
L 545.367489 447.029345 
L 545.839501 447.029345 
L 545.462219 446.911602 
L 545.833508 446.911602 
L 546.364329 446.911602 
L 545.61139 446.558374 
L 545.738418 446.558374 
L 545.747932 446.558374 
L 545.454101 446.440631 
L 545.751271 446.440631 
L 546.306632 446.440631 
L 545.892602 446.205146 
L 546.068828 446.205146 
L 546.101634 446.205146 
L 545.319403 445.734175 
L 545.415326 445.734175 
L 545.695426 445.734175 
L 545.493718 445.498689 
L 545.500559 445.498689 
L 545.886932 445.498689 
L 545.7 445.380947 
L 545.908442 445.380947 
L 547.483217 445.380947 
L 547.361264 445.263204 
L 547.520889 445.263204 
L 547.540206 445.263204 
L 547.433783 445.027718 
L 547.464557 445.027718 
L 547.4708 445.027718 
L 547.271967 444.792233 
L 547.402283 444.792233 
L 547.61878 444.792233 
L 547.473639 444.556748 
L 547.565704 444.556748 
L 547.821939 444.556748 
L 547.558964 444.085777 
L 547.611711 444.085777 
L 547.622951 444.085777 
L 547.340892 443.497063 
L 547.343237 443.497063 
L 547.382624 443.497063 
L 547.14855 443.026092 
L 547.200436 443.026092 
L 547.221239 443.026092 
L 547.042731 442.555121 
L 547.050883 442.555121 
L 547.063624 442.555121 
L 546.99095 442.437379 
L 547.121062 442.437379 
L 547.18946 442.437379 
L 547.120565 442.319636 
L 547.248948 442.319636 
L 547.265425 442.319636 
L 547.038802 441.730922 
L 547.061802 441.730922 
L 547.138914 441.730922 
L 547.038161 441.377694 
L 547.076409 441.377694 
L 547.080239 441.377694 
L 546.877218 440.788981 
L 546.902615 440.788981 
L 546.955269 440.788981 
L 546.858609 440.553495 
L 546.963169 440.553495 
L 546.987209 440.553495 
L 546.88986 440.31801 
L 546.997778 440.31801 
L 546.922008 440.082524 
L 547.011913 440.082524 
L 547.02948 440.082524 
L 546.783524 439.258325 
L 546.786966 439.258325 
L 546.804084 439.258325 
L 546.610506 438.551869 
L 546.623526 438.551869 
L 546.668043 438.551869 
L 546.489053 437.963155 
L 546.547036 437.963155 
L 546.54746 437.963155 
L 546.337879 437.374442 
L 546.357675 437.374442 
" style="fill:none;stroke:#ff7f0e;stroke-linecap:square;stroke-width:2;"/>
   </g>
   <g id="line2d_47">
    <path clip-path="url(#p70c8813e2a)" d="M 76.5 448.442257 
L 313.65 448.442257 
L 195.075 448.206772 
L 144.257143 447.853544 
L 195.075 447.853544 
L 181.9 447.735801 
L 218.79 447.735801 
L 205.854545 447.618058 
L 234.6 447.618058 
L 222.438462 447.500316 
L 245.892857 447.500316 
L 234.6 447.382573 
L 254.3625 447.382573 
L 243.9 447.26483 
L 260.95 447.26483 
L 251.242105 447.147087 
L 266.22 447.147087 
L 257.185714 447.029345 
L 270.531818 447.029345 
L 254.3625 446.793859 
L 266.22 446.793859 
L 258.923077 446.676117 
L 269.733333 446.676117 
L 262.832143 446.558374 
L 290.7 446.558374 
L 277.718182 446.322888 
L 331.002439 446.322888 
L 324.429545 446.087403 
L 351.594 446.087403 
L 341.013462 445.851917 
L 344.971698 445.851917 
L 401.363014 445.851917 
L 396.972973 445.734175 
L 401.021053 445.734175 
L 411.980488 445.734175 
L 407.938554 445.616432 
L 411.3 445.616432 
L 414.506897 445.616432 
L 410.665909 445.498689 
L 413.78 445.498689 
L 432.225 445.498689 
L 428.837143 445.380947 
L 431.116822 445.380947 
L 449.964567 445.380947 
L 447.046875 445.263204 
L 449.422901 445.263204 
L 451.692537 445.263204 
L 445.020863 444.909976 
L 445.776429 444.909976 
L 464.31 444.909976 
L 462.042105 444.792233 
L 464.070857 444.792233 
L 466.48 444.792233 
L 462.194505 444.556748 
L 464.1 444.556748 
L 498.1 444.556748 
L 496.72671 444.439005 
L 497.932166 444.439005 
L 505.319178 444.439005 
L 504.147541 444.321262 
L 505.145455 444.321262 
L 514.000862 444.321262 
L 513.06 444.203519 
L 513.932143 444.203519 
L 516.524414 444.203519 
L 515.499046 443.968034 
L 515.566286 443.968034 
L 519.553885 443.968034 
L 518.806745 443.850291 
L 519.493069 443.850291 
L 521.967173 443.850291 
L 520.844211 443.614806 
L 521.244214 443.614806 
L 524.274567 443.614806 
L 523.679122 443.497063 
L 524.244141 443.497063 
L 526.316327 443.497063 
L 525.269498 443.261578 
L 525.748944 443.261578 
L 532.650765 443.261578 
L 532.263212 443.143835 
L 532.633639 443.143835 
L 534.886214 443.143835 
L 534.552114 443.026092 
L 534.877071 443.026092 
L 537.914393 443.026092 
L 537.647834 442.90835 
L 537.915789 442.90835 
L 538.284112 442.90835 
L 537.596234 442.555121 
L 537.781001 442.555121 
L 538.29907 442.555121 
L 538.033164 442.319636 
L 538.071949 442.319636 
L 538.155181 442.319636 
L 537.802242 442.08415 
L 537.930488 442.08415 
L 538.155065 442.08415 
L 537.931395 441.966408 
L 538.164034 441.966408 
L 538.56 441.966408 
L 538.335387 441.730922 
L 538.363562 441.730922 
L 538.557276 441.730922 
L 538.351735 441.61318 
L 538.574705 441.61318 
L 538.897108 441.61318 
L 538.566469 441.377694 
L 538.719708 441.377694 
L 538.97642 441.377694 
L 538.7875 441.259951 
L 538.994862 441.259951 
L 539.597486 441.259951 
L 539.421135 441.142209 
L 539.621212 441.142209 
L 539.691859 441.142209 
L 539.519732 441.024466 
L 539.713367 441.024466 
L 539.813681 441.024466 
L 539.646056 440.906723 
L 539.836451 440.906723 
L 540.331579 440.906723 
L 540.171873 440.671238 
L 540.200233 440.671238 
L 540.401407 440.671238 
L 540.249657 440.553495 
L 540.429453 440.553495 
L 540.583845 440.553495 
L 540.43689 440.435752 
L 540.614286 440.435752 
L 540.779577 440.435752 
L 540.637466 440.31801 
L 540.808727 440.31801 
L 541.089266 440.31801 
L 540.953421 440.200267 
L 541.120408 440.200267 
L 541.192211 440.200267 
L 541.055024 439.964782 
L 541.093272 439.964782 
L 541.222158 439.964782 
L 540.897033 439.611553 
L 540.999347 439.611553 
L 541.18752 439.611553 
L 540.999894 439.376068 
L 541.100105 439.376068 
L 541.205757 439.376068 
L 541.085274 439.258325 
L 541.243841 439.258325 
L 541.49307 439.258325 
L 541.381442 439.02284 
L 541.41595 439.02284 
L 541.62 439.02284 
L 541.305064 438.551869 
L 541.327373 438.551869 
L 541.463386 438.551869 
L 541.268509 438.198641 
L 541.290226 438.198641 
L 541.418476 438.198641 
L 541.314 438.080898 
L 541.460907 438.080898 
L 541.504096 438.080898 
L 541.401717 437.963155 
L 541.548375 437.963155 
L 541.556388 437.963155 
L 541.380846 437.609927 
L 541.398913 437.609927 
L 541.577775 437.609927 
L 541.48056 437.492184 
L 541.624408 437.492184 
L 542.001066 437.492184 
L 541.756926 437.021214 
L 541.774485 437.021214 
L 541.786736 437.021214 
L 541.743288 436.785728 
L 541.745017 436.785728 
L 541.769155 436.785728 
L 541.680583 436.667985 
L 541.819066 436.667985 
L 541.824115 436.667985 
L 541.433056 435.961529 
L 541.43824 435.961529 
L 541.586111 435.961529 
L 541.45461 435.726044 
L 541.553228 435.726044 
L 541.627058 435.726044 
L 541.5 435.372816 
L 541.51463 435.372816 
L 541.579101 435.372816 
L 541.520748 435.13733 
L 541.550907 435.13733 
L 541.555651 435.13733 
L 541.302732 434.666359 
L 541.37153 434.666359 
L 541.393714 434.666359 
L 541.315594 434.548617 
L 541.447606 434.548617 
L 541.459987 434.548617 
L 541.353037 434.313131 
L 541.437798 434.313131 
L 541.489439 434.313131 
L 541.324698 433.959903 
L 541.394403 433.959903 
L 541.448243 433.959903 
L 541.409397 433.724417 
L 541.431478 433.724417 
L 541.441748 433.724417 
L 541.203268 433.253447 
L 541.280315 433.253447 
L 541.384975 433.253447 
L 541.298283 432.900218 
L 541.301144 432.900218 
L 541.306862 432.900218 
L 541.075828 432.311505 
L 541.085931 432.311505 
L 541.088813 432.311505 
L 540.93756 431.840534 
L 540.940448 431.840534 
L 540.957738 431.840534 
L 540.73345 431.369563 
L 540.813297 431.369563 
L 540.889051 431.369563 
L 540.810474 431.134078 
L 540.882453 431.134078 
L 540.938185 431.134078 
L 540.707107 430.545364 
L 540.737895 430.545364 
L 540.743473 430.545364 
L 540.521657 429.95665 
L 540.548372 429.95665 
L 540.583313 429.95665 
L 540.433486 429.48568 
L 540.455816 429.48568 
L 540.519481 429.48568 
L 540.244642 428.779223 
L 540.272533 428.779223 
L 540.290583 428.779223 
L 540.220128 428.425995 
L 540.231157 428.425995 
L 540.243538 428.425995 
L 540.128404 428.19051 
L 540.246444 428.19051 
L 540.293739 428.19051 
L 540.118649 427.601796 
L 540.12 427.601796 
L 540.167078 427.601796 
L 540.039267 427.130825 
L 540.056677 427.130825 
L 540.144204 427.130825 
L 539.912527 426.424369 
L 539.923152 426.424369 
L 539.924479 426.424369 
L 539.737776 425.835655 
L 539.764448 425.835655 
L 539.775081 425.835655 
L 539.490906 425.129199 
L 539.562269 425.129199 
L 539.594289 425.129199 
L 539.316008 424.305 
L 539.330837 424.305 
L 539.348312 424.305 
L 539.08821 423.480801 
L 539.090925 423.480801 
L 539.100417 423.480801 
L 538.907039 422.892087 
L 538.953368 422.892087 
L 538.954726 422.892087 
L 538.758382 422.185631 
L 538.797831 422.185631 
L 538.604472 421.479175 
L 538.605835 421.479175 
L 538.609923 421.479175 
L 538.363989 420.654976 
L 538.36949 420.654976 
L 538.373613 420.654976 
L 538.281359 420.301748 
L 538.34028 420.301748 
L 538.426957 420.301748 
L 538.304889 419.948519 
L 538.39633 419.948519 
L 538.413659 419.948519 
L 538.285222 419.359806 
L 538.291876 419.359806 
L 538.178712 418.888835 
L 538.214594 418.888835 
L 538.252908 418.888835 
L 538.224984 418.535607 
L 538.227599 418.535607 
L 538.23935 418.535607 
L 538.122632 418.064636 
L 538.166958 418.064636 
L 538.179936 418.064636 
L 538.09079 417.593665 
L 538.108892 417.593665 
L 538.125655 417.593665 
L 538.105373 417.35818 
L 538.151364 417.35818 
L 538.152636 417.35818 
L 538.063287 417.004951 
L 538.131832 417.004951 
L 538.267968 417.004951 
L 538.267968 417.004951 
" style="fill:none;stroke:#2ca02c;stroke-linecap:square;stroke-width:2;"/>
   </g>
   <g id="patch_3">
    <path d="M 76.5 448.56 
L 76.5 60.48 
" style="fill:none;stroke:#000000;stroke-linecap:square;stroke-linejoin:miter;stroke-width:0.8;"/>
   </g>
   <g id="patch_4">
    <path d="M 550.8 448.56 
L 550.8 60.48 
" style="fill:none;stroke:#000000;stroke-linecap:square;stroke-linejoin:miter;stroke-width:0.8;"/>
   </g>
   <g id="patch_5">
    <path d="M 76.5 448.56 
L 550.8 448.56 
" style="fill:none;stroke:#000000;stroke-linecap:square;stroke-linejoin:miter;stroke-width:0.8;"/>
   </g>
   <g id="patch_6">
    <path d="M 76.5 60.48 
L 550.8 60.48 
" style="fill:none;stroke:#000000;stroke-linecap:square;stroke-linejoin:miter;stroke-width:0.8;"/>
   </g>
   <g id="text_25">
    <!-- trees: img1-img4 -->
    <defs>
     <path d="M 11.71875 12.40625 
L 22.015625 12.40625 
L 22.015625 0 
L 11.71875 0 
z
M 11.71875 51.703125 
L 22.015625 51.703125 
L 22.015625 39.3125 
L 11.71875 39.3125 
z
" id="DejaVuSans-58"/>
     <path id="DejaVuSans-32"/>
     <path d="M 52 44.1875 
Q 55.375 50.25 60.0625 53.125 
Q 64.75 56 71.09375 56 
Q 79.640625 56 84.28125 50.015625 
Q 88.921875 44.046875 88.921875 33.015625 
L 88.921875 0 
L 79.890625 0 
L 79.890625 32.71875 
Q 79.890625 40.578125 77.09375 44.375 
Q 74.3125 48.1875 68.609375 48.1875 
Q 61.625 48.1875 57.5625 43.546875 
Q 53.515625 38.921875 53.515625 30.90625 
L 53.515625 0 
L 44.484375 0 
L 44.484375 32.71875 
Q 44.484375 40.625 41.703125 44.40625 
Q 38.921875 48.1875 33.109375 48.1875 
Q 26.21875 48.1875 22.15625 43.53125 
Q 18.109375 38.875 18.109375 30.90625 
L 18.109375 0 
L 9.078125 0 
L 9.078125 54.6875 
L 18.109375 54.6875 
L 18.109375 46.1875 
Q 21.1875 51.21875 25.484375 53.609375 
Q 29.78125 56 35.6875 56 
Q 41.65625 56 45.828125 52.96875 
Q 50 49.953125 52 44.1875 
z
" id="DejaVuSans-109"/>
     <path d="M 45.40625 27.984375 
Q 45.40625 37.75 41.375 43.109375 
Q 37.359375 48.484375 30.078125 48.484375 
Q 22.859375 48.484375 18.828125 43.109375 
Q 14.796875 37.75 14.796875 27.984375 
Q 14.796875 18.265625 18.828125 12.890625 
Q 22.859375 7.515625 30.078125 7.515625 
Q 37.359375 7.515625 41.375 12.890625 
Q 45.40625 18.265625 45.40625 27.984375 
z
M 54.390625 6.78125 
Q 54.390625 -7.171875 48.1875 -13.984375 
Q 42 -20.796875 29.203125 -20.796875 
Q 24.46875 -20.796875 20.265625 -20.09375 
Q 16.0625 -19.390625 12.109375 -17.921875 
L 12.109375 -9.1875 
Q 16.0625 -11.328125 19.921875 -12.34375 
Q 23.78125 -13.375 27.78125 -13.375 
Q 36.625 -13.375 41.015625 -8.765625 
Q 45.40625 -4.15625 45.40625 5.171875 
L 45.40625 9.625 
Q 42.625 4.78125 38.28125 2.390625 
Q 33.9375 0 27.875 0 
Q 17.828125 0 11.671875 7.65625 
Q 5.515625 15.328125 5.515625 27.984375 
Q 5.515625 40.671875 11.671875 48.328125 
Q 17.828125 56 27.875 56 
Q 33.9375 56 38.28125 53.609375 
Q 42.625 51.21875 45.40625 46.390625 
L 45.40625 54.6875 
L 54.390625 54.6875 
z
" id="DejaVuSans-103"/>
    </defs>
    <g transform="translate(262.088438 41.042625)scale(0.12 -0.12)">
     <use xlink:href="#DejaVuSans-116"/>
     <use x="39.208984" xlink:href="#DejaVuSans-114"/>
     <use x="78.072266" xlink:href="#DejaVuSans-101"/>
     <use x="139.595703" xlink:href="#DejaVuSans-101"/>
     <use x="201.119141" xlink:href="#DejaVuSans-115"/>
     <use x="253.21875" xlink:href="#DejaVuSans-58"/>
     <use x="286.910156" xlink:href="#DejaVuSans-32"/>
     <use x="318.697266" xlink:href="#DejaVuSans-105"/>
     <use x="346.480469" xlink:href="#DejaVuSans-109"/>
     <use x="443.892578" xlink:href="#DejaVuSans-103"/>
     <use x="507.369141" xlink:href="#DejaVuSans-49"/>
     <use x="570.992188" xlink:href="#DejaVuSans-45"/>
     <use x="607.076172" xlink:href="#DejaVuSans-105"/>
     <use x="634.859375" xlink:href="#DejaVuSans-109"/>
     <use x="732.271484" xlink:href="#DejaVuSans-103"/>
     <use x="795.748047" xlink:href="#DejaVuSans-52"/>
    </g>
    <!-- NearestNeighbours -->
    <defs>
     <path d="M 9.8125 72.90625 
L 23.09375 72.90625 
L 55.421875 11.921875 
L 55.421875 72.90625 
L 64.984375 72.90625 
L 64.984375 0 
L 51.703125 0 
L 19.390625 60.984375 
L 19.390625 0 
L 9.8125 0 
z
" id="DejaVuSans-78"/>
     <path d="M 34.28125 27.484375 
Q 23.390625 27.484375 19.1875 25 
Q 14.984375 22.515625 14.984375 16.5 
Q 14.984375 11.71875 18.140625 8.90625 
Q 21.296875 6.109375 26.703125 6.109375 
Q 34.1875 6.109375 38.703125 11.40625 
Q 43.21875 16.703125 43.21875 25.484375 
L 43.21875 27.484375 
z
M 52.203125 31.203125 
L 52.203125 0 
L 43.21875 0 
L 43.21875 8.296875 
Q 40.140625 3.328125 35.546875 0.953125 
Q 30.953125 -1.421875 24.3125 -1.421875 
Q 15.921875 -1.421875 10.953125 3.296875 
Q 6 8.015625 6 15.921875 
Q 6 25.140625 12.171875 29.828125 
Q 18.359375 34.515625 30.609375 34.515625 
L 43.21875 34.515625 
L 43.21875 35.40625 
Q 43.21875 41.609375 39.140625 45 
Q 35.0625 48.390625 27.6875 48.390625 
Q 23 48.390625 18.546875 47.265625 
Q 14.109375 46.140625 10.015625 43.890625 
L 10.015625 52.203125 
Q 14.9375 54.109375 19.578125 55.046875 
Q 24.21875 56 28.609375 56 
Q 40.484375 56 46.34375 49.84375 
Q 52.203125 43.703125 52.203125 31.203125 
z
" id="DejaVuSans-97"/>
     <path d="M 54.890625 33.015625 
L 54.890625 0 
L 45.90625 0 
L 45.90625 32.71875 
Q 45.90625 40.484375 42.875 44.328125 
Q 39.84375 48.1875 33.796875 48.1875 
Q 26.515625 48.1875 22.3125 43.546875 
Q 18.109375 38.921875 18.109375 30.90625 
L 18.109375 0 
L 9.078125 0 
L 9.078125 75.984375 
L 18.109375 75.984375 
L 18.109375 46.1875 
Q 21.34375 51.125 25.703125 53.5625 
Q 30.078125 56 35.796875 56 
Q 45.21875 56 50.046875 50.171875 
Q 54.890625 44.34375 54.890625 33.015625 
z
" id="DejaVuSans-104"/>
     <path d="M 48.6875 27.296875 
Q 48.6875 37.203125 44.609375 42.84375 
Q 40.53125 48.484375 33.40625 48.484375 
Q 26.265625 48.484375 22.1875 42.84375 
Q 18.109375 37.203125 18.109375 27.296875 
Q 18.109375 17.390625 22.1875 11.75 
Q 26.265625 6.109375 33.40625 6.109375 
Q 40.53125 6.109375 44.609375 11.75 
Q 48.6875 17.390625 48.6875 27.296875 
z
M 18.109375 46.390625 
Q 20.953125 51.265625 25.265625 53.625 
Q 29.59375 56 35.59375 56 
Q 45.5625 56 51.78125 48.09375 
Q 58.015625 40.1875 58.015625 27.296875 
Q 58.015625 14.40625 51.78125 6.484375 
Q 45.5625 -1.421875 35.59375 -1.421875 
Q 29.59375 -1.421875 25.265625 0.953125 
Q 20.953125 3.328125 18.109375 8.203125 
L 18.109375 0 
L 9.078125 0 
L 9.078125 75.984375 
L 18.109375 75.984375 
z
" id="DejaVuSans-98"/>
     <path d="M 8.5 21.578125 
L 8.5 54.6875 
L 17.484375 54.6875 
L 17.484375 21.921875 
Q 17.484375 14.15625 20.5 10.265625 
Q 23.53125 6.390625 29.59375 6.390625 
Q 36.859375 6.390625 41.078125 11.03125 
Q 45.3125 15.671875 45.3125 23.6875 
L 45.3125 54.6875 
L 54.296875 54.6875 
L 54.296875 0 
L 45.3125 0 
L 45.3125 8.40625 
Q 42.046875 3.421875 37.71875 1 
Q 33.40625 -1.421875 27.6875 -1.421875 
Q 18.265625 -1.421875 13.375 4.4375 
Q 8.5 10.296875 8.5 21.578125 
z
M 31.109375 56 
z
" id="DejaVuSans-117"/>
    </defs>
    <g transform="translate(255.957188 54.48)scale(0.12 -0.12)">
     <use xlink:href="#DejaVuSans-78"/>
     <use x="74.804688" xlink:href="#DejaVuSans-101"/>
     <use x="136.328125" xlink:href="#DejaVuSans-97"/>
     <use x="197.607422" xlink:href="#DejaVuSans-114"/>
     <use x="236.470703" xlink:href="#DejaVuSans-101"/>
     <use x="297.994141" xlink:href="#DejaVuSans-115"/>
     <use x="350.09375" xlink:href="#DejaVuSans-116"/>
     <use x="389.302734" xlink:href="#DejaVuSans-78"/>
     <use x="464.107422" xlink:href="#DejaVuSans-101"/>
     <use x="525.630859" xlink:href="#DejaVuSans-105"/>
     <use x="553.414062" xlink:href="#DejaVuSans-103"/>
     <use x="616.890625" xlink:href="#DejaVuSans-104"/>
     <use x="680.269531" xlink:href="#DejaVuSans-98"/>
     <use x="743.746094" xlink:href="#DejaVuSans-111"/>
     <use x="804.927734" xlink:href="#DejaVuSans-117"/>
     <use x="868.306641" xlink:href="#DejaVuSans-114"/>
     <use x="909.419922" xlink:href="#DejaVuSans-115"/>
    </g>
   </g>
   <g id="legend_1">
    <g id="patch_7">
     <path d="M 362.659375 112.514375 
L 543.8 112.514375 
Q 545.8 112.514375 545.8 110.514375 
L 545.8 67.48 
Q 545.8 65.48 543.8 65.48 
L 362.659375 65.48 
Q 360.659375 65.48 360.659375 67.48 
L 360.659375 110.514375 
Q 360.659375 112.514375 362.659375 112.514375 
z
" style="fill:#ffffff;opacity:0.8;stroke:#cccccc;stroke-linejoin:miter;"/>
    </g>
    <g id="line2d_48">
     <path d="M 364.659375 73.578438 
L 384.659375 73.578438 
" style="fill:none;stroke:#1f77b4;stroke-linecap:square;stroke-width:2;"/>
    </g>
    <g id="line2d_49"/>
    <g id="text_26">
     <!-- root-cvsift AP: 25.2, %In: 10.7 -->
     <defs>
      <path d="M 2.984375 54.6875 
L 12.5 54.6875 
L 29.59375 8.796875 
L 46.6875 54.6875 
L 56.203125 54.6875 
L 35.6875 0 
L 23.484375 0 
z
" id="DejaVuSans-118"/>
      <path d="M 37.109375 75.984375 
L 37.109375 68.5 
L 28.515625 68.5 
Q 23.6875 68.5 21.796875 66.546875 
Q 19.921875 64.59375 19.921875 59.515625 
L 19.921875 54.6875 
L 34.71875 54.6875 
L 34.71875 47.703125 
L 19.921875 47.703125 
L 19.921875 0 
L 10.890625 0 
L 10.890625 47.703125 
L 2.296875 47.703125 
L 2.296875 54.6875 
L 10.890625 54.6875 
L 10.890625 58.5 
Q 10.890625 67.625 15.140625 71.796875 
Q 19.390625 75.984375 28.609375 75.984375 
z
" id="DejaVuSans-102"/>
      <path d="M 34.1875 63.1875 
L 20.796875 26.90625 
L 47.609375 26.90625 
z
M 28.609375 72.90625 
L 39.796875 72.90625 
L 67.578125 0 
L 57.328125 0 
L 50.6875 18.703125 
L 17.828125 18.703125 
L 11.1875 0 
L 0.78125 0 
z
" id="DejaVuSans-65"/>
      <path d="M 19.671875 64.796875 
L 19.671875 37.40625 
L 32.078125 37.40625 
Q 38.96875 37.40625 42.71875 40.96875 
Q 46.484375 44.53125 46.484375 51.125 
Q 46.484375 57.671875 42.71875 61.234375 
Q 38.96875 64.796875 32.078125 64.796875 
z
M 9.8125 72.90625 
L 32.078125 72.90625 
Q 44.34375 72.90625 50.609375 67.359375 
Q 56.890625 61.8125 56.890625 51.125 
Q 56.890625 40.328125 50.609375 34.8125 
Q 44.34375 29.296875 32.078125 29.296875 
L 19.671875 29.296875 
L 19.671875 0 
L 9.8125 0 
z
" id="DejaVuSans-80"/>
      <path d="M 11.71875 12.40625 
L 22.015625 12.40625 
L 22.015625 4 
L 14.015625 -11.625 
L 7.71875 -11.625 
L 11.71875 4 
z
" id="DejaVuSans-44"/>
      <path d="M 72.703125 32.078125 
Q 68.453125 32.078125 66.03125 28.46875 
Q 63.625 24.859375 63.625 18.40625 
Q 63.625 12.0625 66.03125 8.421875 
Q 68.453125 4.78125 72.703125 4.78125 
Q 76.859375 4.78125 79.265625 8.421875 
Q 81.6875 12.0625 81.6875 18.40625 
Q 81.6875 24.8125 79.265625 28.4375 
Q 76.859375 32.078125 72.703125 32.078125 
z
M 72.703125 38.28125 
Q 80.421875 38.28125 84.953125 32.90625 
Q 89.5 27.546875 89.5 18.40625 
Q 89.5 9.28125 84.9375 3.921875 
Q 80.375 -1.421875 72.703125 -1.421875 
Q 64.890625 -1.421875 60.34375 3.921875 
Q 55.8125 9.28125 55.8125 18.40625 
Q 55.8125 27.59375 60.375 32.9375 
Q 64.9375 38.28125 72.703125 38.28125 
z
M 22.3125 68.015625 
Q 18.109375 68.015625 15.6875 64.375 
Q 13.28125 60.75 13.28125 54.390625 
Q 13.28125 47.953125 15.671875 44.328125 
Q 18.0625 40.71875 22.3125 40.71875 
Q 26.5625 40.71875 28.96875 44.328125 
Q 31.390625 47.953125 31.390625 54.390625 
Q 31.390625 60.6875 28.953125 64.34375 
Q 26.515625 68.015625 22.3125 68.015625 
z
M 66.40625 74.21875 
L 74.21875 74.21875 
L 28.609375 -1.421875 
L 20.796875 -1.421875 
z
M 22.3125 74.21875 
Q 30.03125 74.21875 34.609375 68.875 
Q 39.203125 63.53125 39.203125 54.390625 
Q 39.203125 45.171875 34.640625 39.84375 
Q 30.078125 34.515625 22.3125 34.515625 
Q 14.546875 34.515625 10.03125 39.859375 
Q 5.515625 45.21875 5.515625 54.390625 
Q 5.515625 63.484375 10.046875 68.84375 
Q 14.59375 74.21875 22.3125 74.21875 
z
" id="DejaVuSans-37"/>
      <path d="M 9.8125 72.90625 
L 19.671875 72.90625 
L 19.671875 0 
L 9.8125 0 
z
" id="DejaVuSans-73"/>
     </defs>
     <g transform="translate(392.659375 77.078438)scale(0.1 -0.1)">
      <use xlink:href="#DejaVuSans-114"/>
      <use x="38.863281" xlink:href="#DejaVuSans-111"/>
      <use x="100.044922" xlink:href="#DejaVuSans-111"/>
      <use x="161.226562" xlink:href="#DejaVuSans-116"/>
      <use x="200.435547" xlink:href="#DejaVuSans-45"/>
      <use x="236.519531" xlink:href="#DejaVuSans-99"/>
      <use x="291.5" xlink:href="#DejaVuSans-118"/>
      <use x="350.679688" xlink:href="#DejaVuSans-115"/>
      <use x="402.779297" xlink:href="#DejaVuSans-105"/>
      <use x="430.5625" xlink:href="#DejaVuSans-102"/>
      <use x="464.017578" xlink:href="#DejaVuSans-116"/>
      <use x="503.226562" xlink:href="#DejaVuSans-32"/>
      <use x="535.013672" xlink:href="#DejaVuSans-65"/>
      <use x="603.421875" xlink:href="#DejaVuSans-80"/>
      <use x="663.724609" xlink:href="#DejaVuSans-58"/>
      <use x="697.416016" xlink:href="#DejaVuSans-32"/>
      <use x="729.203125" xlink:href="#DejaVuSans-50"/>
      <use x="792.826172" xlink:href="#DejaVuSans-53"/>
      <use x="856.449219" xlink:href="#DejaVuSans-46"/>
      <use x="888.236328" xlink:href="#DejaVuSans-50"/>
      <use x="951.859375" xlink:href="#DejaVuSans-44"/>
      <use x="983.646484" xlink:href="#DejaVuSans-32"/>
      <use x="1015.433594" xlink:href="#DejaVuSans-37"/>
      <use x="1110.453125" xlink:href="#DejaVuSans-73"/>
      <use x="1139.945312" xlink:href="#DejaVuSans-110"/>
      <use x="1203.324219" xlink:href="#DejaVuSans-58"/>
      <use x="1237.015625" xlink:href="#DejaVuSans-32"/>
      <use x="1268.802734" xlink:href="#DejaVuSans-49"/>
      <use x="1332.425781" xlink:href="#DejaVuSans-48"/>
      <use x="1396.048828" xlink:href="#DejaVuSans-46"/>
      <use x="1427.835938" xlink:href="#DejaVuSans-55"/>
     </g>
    </g>
    <g id="line2d_50">
     <path d="M 364.659375 88.256563 
L 384.659375 88.256563 
" style="fill:none;stroke:#ff7f0e;stroke-linecap:square;stroke-width:2;"/>
    </g>
    <g id="line2d_51"/>
    <g id="text_27">
     <!-- tfeat AP: 0.0, %In: 0.9 -->
     <g transform="translate(392.659375 91.756563)scale(0.1 -0.1)">
      <use xlink:href="#DejaVuSans-116"/>
      <use x="39.208984" xlink:href="#DejaVuSans-102"/>
      <use x="74.414062" xlink:href="#DejaVuSans-101"/>
      <use x="135.9375" xlink:href="#DejaVuSans-97"/>
      <use x="197.216797" xlink:href="#DejaVuSans-116"/>
      <use x="236.425781" xlink:href="#DejaVuSans-32"/>
      <use x="268.212891" xlink:href="#DejaVuSans-65"/>
      <use x="336.621094" xlink:href="#DejaVuSans-80"/>
      <use x="396.923828" xlink:href="#DejaVuSans-58"/>
      <use x="430.615234" xlink:href="#DejaVuSans-32"/>
      <use x="462.402344" xlink:href="#DejaVuSans-48"/>
      <use x="526.025391" xlink:href="#DejaVuSans-46"/>
      <use x="557.8125" xlink:href="#DejaVuSans-48"/>
      <use x="621.435547" xlink:href="#DejaVuSans-44"/>
      <use x="653.222656" xlink:href="#DejaVuSans-32"/>
      <use x="685.009766" xlink:href="#DejaVuSans-37"/>
      <use x="780.029297" xlink:href="#DejaVuSans-73"/>
      <use x="809.521484" xlink:href="#DejaVuSans-110"/>
      <use x="872.900391" xlink:href="#DejaVuSans-58"/>
      <use x="906.591797" xlink:href="#DejaVuSans-32"/>
      <use x="938.378906" xlink:href="#DejaVuSans-48"/>
      <use x="1002.001953" xlink:href="#DejaVuSans-46"/>
      <use x="1033.789062" xlink:href="#DejaVuSans-57"/>
     </g>
    </g>
    <g id="line2d_52">
     <path d="M 364.659375 102.934687 
L 384.659375 102.934687 
" style="fill:none;stroke:#2ca02c;stroke-linecap:square;stroke-width:2;"/>
    </g>
    <g id="line2d_53"/>
    <g id="text_28">
     <!-- hardnet AP: 0.7, %In: 2.6 -->
     <defs>
      <path d="M 45.40625 46.390625 
L 45.40625 75.984375 
L 54.390625 75.984375 
L 54.390625 0 
L 45.40625 0 
L 45.40625 8.203125 
Q 42.578125 3.328125 38.25 0.953125 
Q 33.9375 -1.421875 27.875 -1.421875 
Q 17.96875 -1.421875 11.734375 6.484375 
Q 5.515625 14.40625 5.515625 27.296875 
Q 5.515625 40.1875 11.734375 48.09375 
Q 17.96875 56 27.875 56 
Q 33.9375 56 38.25 53.625 
Q 42.578125 51.265625 45.40625 46.390625 
z
M 14.796875 27.296875 
Q 14.796875 17.390625 18.875 11.75 
Q 22.953125 6.109375 30.078125 6.109375 
Q 37.203125 6.109375 41.296875 11.75 
Q 45.40625 17.390625 45.40625 27.296875 
Q 45.40625 37.203125 41.296875 42.84375 
Q 37.203125 48.484375 30.078125 48.484375 
Q 22.953125 48.484375 18.875 42.84375 
Q 14.796875 37.203125 14.796875 27.296875 
z
" id="DejaVuSans-100"/>
     </defs>
     <g transform="translate(392.659375 106.434687)scale(0.1 -0.1)">
      <use xlink:href="#DejaVuSans-104"/>
      <use x="63.378906" xlink:href="#DejaVuSans-97"/>
      <use x="124.658203" xlink:href="#DejaVuSans-114"/>
      <use x="164.021484" xlink:href="#DejaVuSans-100"/>
      <use x="227.498047" xlink:href="#DejaVuSans-110"/>
      <use x="290.876953" xlink:href="#DejaVuSans-101"/>
      <use x="352.400391" xlink:href="#DejaVuSans-116"/>
      <use x="391.609375" xlink:href="#DejaVuSans-32"/>
      <use x="423.396484" xlink:href="#DejaVuSans-65"/>
      <use x="491.804688" xlink:href="#DejaVuSans-80"/>
      <use x="552.107422" xlink:href="#DejaVuSans-58"/>
      <use x="585.798828" xlink:href="#DejaVuSans-32"/>
      <use x="617.585938" xlink:href="#DejaVuSans-48"/>
      <use x="681.208984" xlink:href="#DejaVuSans-46"/>
      <use x="712.996094" xlink:href="#DejaVuSans-55"/>
      <use x="776.619141" xlink:href="#DejaVuSans-44"/>
      <use x="808.40625" xlink:href="#DejaVuSans-32"/>
      <use x="840.193359" xlink:href="#DejaVuSans-37"/>
      <use x="935.212891" xlink:href="#DejaVuSans-73"/>
      <use x="964.705078" xlink:href="#DejaVuSans-110"/>
      <use x="1028.083984" xlink:href="#DejaVuSans-58"/>
      <use x="1061.775391" xlink:href="#DejaVuSans-32"/>
      <use x="1093.5625" xlink:href="#DejaVuSans-50"/>
      <use x="1157.185547" xlink:href="#DejaVuSans-46"/>
      <use x="1188.972656" xlink:href="#DejaVuSans-54"/>
     </g>
    </g>
   </g>
  </g>
 </g>
 <defs>
  <clipPath id="p70c8813e2a">
   <rect height="388.08" width="474.3" x="76.5" y="60.48"/>
  </clipPath>
 </defs>
</svg>
