<?xml version="1.0" encoding="utf-8" standalone="no"?>
<!DOCTYPE svg PUBLIC "-//W3C//DTD SVG 1.1//EN"
  "http://www.w3.org/Graphics/SVG/1.1/DTD/svg11.dtd">
<!-- Created with matplotlib (https://matplotlib.org/) -->
<svg height="504pt" version="1.1" viewBox="0 0 612 504" width="612pt" xmlns="http://www.w3.org/2000/svg" xmlns:xlink="http://www.w3.org/1999/xlink">
 <defs>
  <style type="text/css">
*{stroke-linecap:butt;stroke-linejoin:round;}
  </style>
 </defs>
 <g id="figure_1">
  <g id="patch_1">
   <path d="M 0 504 
L 612 504 
L 612 0 
L 0 0 
z
" style="fill:#ffffff;"/>
  </g>
  <g id="axes_1">
   <g id="patch_2">
    <path d="M 76.5 448.56 
L 550.8 448.56 
L 550.8 60.48 
L 76.5 60.48 
z
" style="fill:#ffffff;"/>
   </g>
   <g id="matplotlib.axis_1">
    <g id="xtick_1">
     <g id="line2d_1">
      <path clip-path="url(#pc3ac12759c)" d="M 76.5 448.56 
L 76.5 60.48 
" style="fill:none;stroke:#b0b0b0;stroke-linecap:square;stroke-width:0.8;"/>
     </g>
     <g id="line2d_2">
      <defs>
       <path d="M 0 0 
L 0 3.5 
" id="m5b6bd0c203" style="stroke:#000000;stroke-width:0.8;"/>
      </defs>
      <g>
       <use style="stroke:#000000;stroke-width:0.8;" x="76.5" xlink:href="#m5b6bd0c203" y="448.56"/>
      </g>
     </g>
     <g id="text_1">
      <!-- 0.0 -->
      <defs>
       <path d="M 31.78125 66.40625 
Q 24.171875 66.40625 20.328125 58.90625 
Q 16.5 51.421875 16.5 36.375 
Q 16.5 21.390625 20.328125 13.890625 
Q 24.171875 6.390625 31.78125 6.390625 
Q 39.453125 6.390625 43.28125 13.890625 
Q 47.125 21.390625 47.125 36.375 
Q 47.125 51.421875 43.28125 58.90625 
Q 39.453125 66.40625 31.78125 66.40625 
z
M 31.78125 74.21875 
Q 44.046875 74.21875 50.515625 64.515625 
Q 56.984375 54.828125 56.984375 36.375 
Q 56.984375 17.96875 50.515625 8.265625 
Q 44.046875 -1.421875 31.78125 -1.421875 
Q 19.53125 -1.421875 13.0625 8.265625 
Q 6.59375 17.96875 6.59375 36.375 
Q 6.59375 54.828125 13.0625 64.515625 
Q 19.53125 74.21875 31.78125 74.21875 
z
" id="DejaVuSans-48"/>
       <path d="M 10.6875 12.40625 
L 21 12.40625 
L 21 0 
L 10.6875 0 
z
" id="DejaVuSans-46"/>
      </defs>
      <g transform="translate(68.548438 463.158437)scale(0.1 -0.1)">
       <use xlink:href="#DejaVuSans-48"/>
       <use x="63.623047" xlink:href="#DejaVuSans-46"/>
       <use x="95.410156" xlink:href="#DejaVuSans-48"/>
      </g>
     </g>
    </g>
    <g id="xtick_2">
     <g id="line2d_3">
      <path clip-path="url(#pc3ac12759c)" d="M 123.93 448.56 
L 123.93 60.48 
" style="fill:none;stroke:#b0b0b0;stroke-linecap:square;stroke-width:0.8;"/>
     </g>
     <g id="line2d_4">
      <g>
       <use style="stroke:#000000;stroke-width:0.8;" x="123.93" xlink:href="#m5b6bd0c203" y="448.56"/>
      </g>
     </g>
     <g id="text_2">
      <!-- 0.1 -->
      <defs>
       <path d="M 12.40625 8.296875 
L 28.515625 8.296875 
L 28.515625 63.921875 
L 10.984375 60.40625 
L 10.984375 69.390625 
L 28.421875 72.90625 
L 38.28125 72.90625 
L 38.28125 8.296875 
L 54.390625 8.296875 
L 54.390625 0 
L 12.40625 0 
z
" id="DejaVuSans-49"/>
      </defs>
      <g transform="translate(115.978438 463.158437)scale(0.1 -0.1)">
       <use xlink:href="#DejaVuSans-48"/>
       <use x="63.623047" xlink:href="#DejaVuSans-46"/>
       <use x="95.410156" xlink:href="#DejaVuSans-49"/>
      </g>
     </g>
    </g>
    <g id="xtick_3">
     <g id="line2d_5">
      <path clip-path="url(#pc3ac12759c)" d="M 171.36 448.56 
L 171.36 60.48 
" style="fill:none;stroke:#b0b0b0;stroke-linecap:square;stroke-width:0.8;"/>
     </g>
     <g id="line2d_6">
      <g>
       <use style="stroke:#000000;stroke-width:0.8;" x="171.36" xlink:href="#m5b6bd0c203" y="448.56"/>
      </g>
     </g>
     <g id="text_3">
      <!-- 0.2 -->
      <defs>
       <path d="M 19.1875 8.296875 
L 53.609375 8.296875 
L 53.609375 0 
L 7.328125 0 
L 7.328125 8.296875 
Q 12.9375 14.109375 22.625 23.890625 
Q 32.328125 33.6875 34.8125 36.53125 
Q 39.546875 41.84375 41.421875 45.53125 
Q 43.3125 49.21875 43.3125 52.78125 
Q 43.3125 58.59375 39.234375 62.25 
Q 35.15625 65.921875 28.609375 65.921875 
Q 23.96875 65.921875 18.8125 64.3125 
Q 13.671875 62.703125 7.8125 59.421875 
L 7.8125 69.390625 
Q 13.765625 71.78125 18.9375 73 
Q 24.125 74.21875 28.421875 74.21875 
Q 39.75 74.21875 46.484375 68.546875 
Q 53.21875 62.890625 53.21875 53.421875 
Q 53.21875 48.921875 51.53125 44.890625 
Q 49.859375 40.875 45.40625 35.40625 
Q 44.1875 33.984375 37.640625 27.21875 
Q 31.109375 20.453125 19.1875 8.296875 
z
" id="DejaVuSans-50"/>
      </defs>
      <g transform="translate(163.408438 463.158437)scale(0.1 -0.1)">
       <use xlink:href="#DejaVuSans-48"/>
       <use x="63.623047" xlink:href="#DejaVuSans-46"/>
       <use x="95.410156" xlink:href="#DejaVuSans-50"/>
      </g>
     </g>
    </g>
    <g id="xtick_4">
     <g id="line2d_7">
      <path clip-path="url(#pc3ac12759c)" d="M 218.79 448.56 
L 218.79 60.48 
" style="fill:none;stroke:#b0b0b0;stroke-linecap:square;stroke-width:0.8;"/>
     </g>
     <g id="line2d_8">
      <g>
       <use style="stroke:#000000;stroke-width:0.8;" x="218.79" xlink:href="#m5b6bd0c203" y="448.56"/>
      </g>
     </g>
     <g id="text_4">
      <!-- 0.3 -->
      <defs>
       <path d="M 40.578125 39.3125 
Q 47.65625 37.796875 51.625 33 
Q 55.609375 28.21875 55.609375 21.1875 
Q 55.609375 10.40625 48.1875 4.484375 
Q 40.765625 -1.421875 27.09375 -1.421875 
Q 22.515625 -1.421875 17.65625 -0.515625 
Q 12.796875 0.390625 7.625 2.203125 
L 7.625 11.71875 
Q 11.71875 9.328125 16.59375 8.109375 
Q 21.484375 6.890625 26.8125 6.890625 
Q 36.078125 6.890625 40.9375 10.546875 
Q 45.796875 14.203125 45.796875 21.1875 
Q 45.796875 27.640625 41.28125 31.265625 
Q 36.765625 34.90625 28.71875 34.90625 
L 20.21875 34.90625 
L 20.21875 43.015625 
L 29.109375 43.015625 
Q 36.375 43.015625 40.234375 45.921875 
Q 44.09375 48.828125 44.09375 54.296875 
Q 44.09375 59.90625 40.109375 62.90625 
Q 36.140625 65.921875 28.71875 65.921875 
Q 24.65625 65.921875 20.015625 65.03125 
Q 15.375 64.15625 9.8125 62.3125 
L 9.8125 71.09375 
Q 15.4375 72.65625 20.34375 73.4375 
Q 25.25 74.21875 29.59375 74.21875 
Q 40.828125 74.21875 47.359375 69.109375 
Q 53.90625 64.015625 53.90625 55.328125 
Q 53.90625 49.265625 50.4375 45.09375 
Q 46.96875 40.921875 40.578125 39.3125 
z
" id="DejaVuSans-51"/>
      </defs>
      <g transform="translate(210.838438 463.158437)scale(0.1 -0.1)">
       <use xlink:href="#DejaVuSans-48"/>
       <use x="63.623047" xlink:href="#DejaVuSans-46"/>
       <use x="95.410156" xlink:href="#DejaVuSans-51"/>
      </g>
     </g>
    </g>
    <g id="xtick_5">
     <g id="line2d_9">
      <path clip-path="url(#pc3ac12759c)" d="M 266.22 448.56 
L 266.22 60.48 
" style="fill:none;stroke:#b0b0b0;stroke-linecap:square;stroke-width:0.8;"/>
     </g>
     <g id="line2d_10">
      <g>
       <use style="stroke:#000000;stroke-width:0.8;" x="266.22" xlink:href="#m5b6bd0c203" y="448.56"/>
      </g>
     </g>
     <g id="text_5">
      <!-- 0.4 -->
      <defs>
       <path d="M 37.796875 64.3125 
L 12.890625 25.390625 
L 37.796875 25.390625 
z
M 35.203125 72.90625 
L 47.609375 72.90625 
L 47.609375 25.390625 
L 58.015625 25.390625 
L 58.015625 17.1875 
L 47.609375 17.1875 
L 47.609375 0 
L 37.796875 0 
L 37.796875 17.1875 
L 4.890625 17.1875 
L 4.890625 26.703125 
z
" id="DejaVuSans-52"/>
      </defs>
      <g transform="translate(258.268438 463.158437)scale(0.1 -0.1)">
       <use xlink:href="#DejaVuSans-48"/>
       <use x="63.623047" xlink:href="#DejaVuSans-46"/>
       <use x="95.410156" xlink:href="#DejaVuSans-52"/>
      </g>
     </g>
    </g>
    <g id="xtick_6">
     <g id="line2d_11">
      <path clip-path="url(#pc3ac12759c)" d="M 313.65 448.56 
L 313.65 60.48 
" style="fill:none;stroke:#b0b0b0;stroke-linecap:square;stroke-width:0.8;"/>
     </g>
     <g id="line2d_12">
      <g>
       <use style="stroke:#000000;stroke-width:0.8;" x="313.65" xlink:href="#m5b6bd0c203" y="448.56"/>
      </g>
     </g>
     <g id="text_6">
      <!-- 0.5 -->
      <defs>
       <path d="M 10.796875 72.90625 
L 49.515625 72.90625 
L 49.515625 64.59375 
L 19.828125 64.59375 
L 19.828125 46.734375 
Q 21.96875 47.46875 24.109375 47.828125 
Q 26.265625 48.1875 28.421875 48.1875 
Q 40.625 48.1875 47.75 41.5 
Q 54.890625 34.8125 54.890625 23.390625 
Q 54.890625 11.625 47.5625 5.09375 
Q 40.234375 -1.421875 26.90625 -1.421875 
Q 22.3125 -1.421875 17.546875 -0.640625 
Q 12.796875 0.140625 7.71875 1.703125 
L 7.71875 11.625 
Q 12.109375 9.234375 16.796875 8.0625 
Q 21.484375 6.890625 26.703125 6.890625 
Q 35.15625 6.890625 40.078125 11.328125 
Q 45.015625 15.765625 45.015625 23.390625 
Q 45.015625 31 40.078125 35.4375 
Q 35.15625 39.890625 26.703125 39.890625 
Q 22.75 39.890625 18.8125 39.015625 
Q 14.890625 38.140625 10.796875 36.28125 
z
" id="DejaVuSans-53"/>
      </defs>
      <g transform="translate(305.698438 463.158437)scale(0.1 -0.1)">
       <use xlink:href="#DejaVuSans-48"/>
       <use x="63.623047" xlink:href="#DejaVuSans-46"/>
       <use x="95.410156" xlink:href="#DejaVuSans-53"/>
      </g>
     </g>
    </g>
    <g id="xtick_7">
     <g id="line2d_13">
      <path clip-path="url(#pc3ac12759c)" d="M 361.08 448.56 
L 361.08 60.48 
" style="fill:none;stroke:#b0b0b0;stroke-linecap:square;stroke-width:0.8;"/>
     </g>
     <g id="line2d_14">
      <g>
       <use style="stroke:#000000;stroke-width:0.8;" x="361.08" xlink:href="#m5b6bd0c203" y="448.56"/>
      </g>
     </g>
     <g id="text_7">
      <!-- 0.6 -->
      <defs>
       <path d="M 33.015625 40.375 
Q 26.375 40.375 22.484375 35.828125 
Q 18.609375 31.296875 18.609375 23.390625 
Q 18.609375 15.53125 22.484375 10.953125 
Q 26.375 6.390625 33.015625 6.390625 
Q 39.65625 6.390625 43.53125 10.953125 
Q 47.40625 15.53125 47.40625 23.390625 
Q 47.40625 31.296875 43.53125 35.828125 
Q 39.65625 40.375 33.015625 40.375 
z
M 52.59375 71.296875 
L 52.59375 62.3125 
Q 48.875 64.0625 45.09375 64.984375 
Q 41.3125 65.921875 37.59375 65.921875 
Q 27.828125 65.921875 22.671875 59.328125 
Q 17.53125 52.734375 16.796875 39.40625 
Q 19.671875 43.65625 24.015625 45.921875 
Q 28.375 48.1875 33.59375 48.1875 
Q 44.578125 48.1875 50.953125 41.515625 
Q 57.328125 34.859375 57.328125 23.390625 
Q 57.328125 12.15625 50.6875 5.359375 
Q 44.046875 -1.421875 33.015625 -1.421875 
Q 20.359375 -1.421875 13.671875 8.265625 
Q 6.984375 17.96875 6.984375 36.375 
Q 6.984375 53.65625 15.1875 63.9375 
Q 23.390625 74.21875 37.203125 74.21875 
Q 40.921875 74.21875 44.703125 73.484375 
Q 48.484375 72.75 52.59375 71.296875 
z
" id="DejaVuSans-54"/>
      </defs>
      <g transform="translate(353.128438 463.158437)scale(0.1 -0.1)">
       <use xlink:href="#DejaVuSans-48"/>
       <use x="63.623047" xlink:href="#DejaVuSans-46"/>
       <use x="95.410156" xlink:href="#DejaVuSans-54"/>
      </g>
     </g>
    </g>
    <g id="xtick_8">
     <g id="line2d_15">
      <path clip-path="url(#pc3ac12759c)" d="M 408.51 448.56 
L 408.51 60.48 
" style="fill:none;stroke:#b0b0b0;stroke-linecap:square;stroke-width:0.8;"/>
     </g>
     <g id="line2d_16">
      <g>
       <use style="stroke:#000000;stroke-width:0.8;" x="408.51" xlink:href="#m5b6bd0c203" y="448.56"/>
      </g>
     </g>
     <g id="text_8">
      <!-- 0.7 -->
      <defs>
       <path d="M 8.203125 72.90625 
L 55.078125 72.90625 
L 55.078125 68.703125 
L 28.609375 0 
L 18.3125 0 
L 43.21875 64.59375 
L 8.203125 64.59375 
z
" id="DejaVuSans-55"/>
      </defs>
      <g transform="translate(400.558438 463.158437)scale(0.1 -0.1)">
       <use xlink:href="#DejaVuSans-48"/>
       <use x="63.623047" xlink:href="#DejaVuSans-46"/>
       <use x="95.410156" xlink:href="#DejaVuSans-55"/>
      </g>
     </g>
    </g>
    <g id="xtick_9">
     <g id="line2d_17">
      <path clip-path="url(#pc3ac12759c)" d="M 455.94 448.56 
L 455.94 60.48 
" style="fill:none;stroke:#b0b0b0;stroke-linecap:square;stroke-width:0.8;"/>
     </g>
     <g id="line2d_18">
      <g>
       <use style="stroke:#000000;stroke-width:0.8;" x="455.94" xlink:href="#m5b6bd0c203" y="448.56"/>
      </g>
     </g>
     <g id="text_9">
      <!-- 0.8 -->
      <defs>
       <path d="M 31.78125 34.625 
Q 24.75 34.625 20.71875 30.859375 
Q 16.703125 27.09375 16.703125 20.515625 
Q 16.703125 13.921875 20.71875 10.15625 
Q 24.75 6.390625 31.78125 6.390625 
Q 38.8125 6.390625 42.859375 10.171875 
Q 46.921875 13.96875 46.921875 20.515625 
Q 46.921875 27.09375 42.890625 30.859375 
Q 38.875 34.625 31.78125 34.625 
z
M 21.921875 38.8125 
Q 15.578125 40.375 12.03125 44.71875 
Q 8.5 49.078125 8.5 55.328125 
Q 8.5 64.0625 14.71875 69.140625 
Q 20.953125 74.21875 31.78125 74.21875 
Q 42.671875 74.21875 48.875 69.140625 
Q 55.078125 64.0625 55.078125 55.328125 
Q 55.078125 49.078125 51.53125 44.71875 
Q 48 40.375 41.703125 38.8125 
Q 48.828125 37.15625 52.796875 32.3125 
Q 56.78125 27.484375 56.78125 20.515625 
Q 56.78125 9.90625 50.3125 4.234375 
Q 43.84375 -1.421875 31.78125 -1.421875 
Q 19.734375 -1.421875 13.25 4.234375 
Q 6.78125 9.90625 6.78125 20.515625 
Q 6.78125 27.484375 10.78125 32.3125 
Q 14.796875 37.15625 21.921875 38.8125 
z
M 18.3125 54.390625 
Q 18.3125 48.734375 21.84375 45.5625 
Q 25.390625 42.390625 31.78125 42.390625 
Q 38.140625 42.390625 41.71875 45.5625 
Q 45.3125 48.734375 45.3125 54.390625 
Q 45.3125 60.0625 41.71875 63.234375 
Q 38.140625 66.40625 31.78125 66.40625 
Q 25.390625 66.40625 21.84375 63.234375 
Q 18.3125 60.0625 18.3125 54.390625 
z
" id="DejaVuSans-56"/>
      </defs>
      <g transform="translate(447.988438 463.158437)scale(0.1 -0.1)">
       <use xlink:href="#DejaVuSans-48"/>
       <use x="63.623047" xlink:href="#DejaVuSans-46"/>
       <use x="95.410156" xlink:href="#DejaVuSans-56"/>
      </g>
     </g>
    </g>
    <g id="xtick_10">
     <g id="line2d_19">
      <path clip-path="url(#pc3ac12759c)" d="M 503.37 448.56 
L 503.37 60.48 
" style="fill:none;stroke:#b0b0b0;stroke-linecap:square;stroke-width:0.8;"/>
     </g>
     <g id="line2d_20">
      <g>
       <use style="stroke:#000000;stroke-width:0.8;" x="503.37" xlink:href="#m5b6bd0c203" y="448.56"/>
      </g>
     </g>
     <g id="text_10">
      <!-- 0.9 -->
      <defs>
       <path d="M 10.984375 1.515625 
L 10.984375 10.5 
Q 14.703125 8.734375 18.5 7.8125 
Q 22.3125 6.890625 25.984375 6.890625 
Q 35.75 6.890625 40.890625 13.453125 
Q 46.046875 20.015625 46.78125 33.40625 
Q 43.953125 29.203125 39.59375 26.953125 
Q 35.25 24.703125 29.984375 24.703125 
Q 19.046875 24.703125 12.671875 31.3125 
Q 6.296875 37.9375 6.296875 49.421875 
Q 6.296875 60.640625 12.9375 67.421875 
Q 19.578125 74.21875 30.609375 74.21875 
Q 43.265625 74.21875 49.921875 64.515625 
Q 56.59375 54.828125 56.59375 36.375 
Q 56.59375 19.140625 48.40625 8.859375 
Q 40.234375 -1.421875 26.421875 -1.421875 
Q 22.703125 -1.421875 18.890625 -0.6875 
Q 15.09375 0.046875 10.984375 1.515625 
z
M 30.609375 32.421875 
Q 37.25 32.421875 41.125 36.953125 
Q 45.015625 41.5 45.015625 49.421875 
Q 45.015625 57.28125 41.125 61.84375 
Q 37.25 66.40625 30.609375 66.40625 
Q 23.96875 66.40625 20.09375 61.84375 
Q 16.21875 57.28125 16.21875 49.421875 
Q 16.21875 41.5 20.09375 36.953125 
Q 23.96875 32.421875 30.609375 32.421875 
z
" id="DejaVuSans-57"/>
      </defs>
      <g transform="translate(495.418438 463.158437)scale(0.1 -0.1)">
       <use xlink:href="#DejaVuSans-48"/>
       <use x="63.623047" xlink:href="#DejaVuSans-46"/>
       <use x="95.410156" xlink:href="#DejaVuSans-57"/>
      </g>
     </g>
    </g>
    <g id="xtick_11">
     <g id="line2d_21">
      <path clip-path="url(#pc3ac12759c)" d="M 550.8 448.56 
L 550.8 60.48 
" style="fill:none;stroke:#b0b0b0;stroke-linecap:square;stroke-width:0.8;"/>
     </g>
     <g id="line2d_22">
      <g>
       <use style="stroke:#000000;stroke-width:0.8;" x="550.8" xlink:href="#m5b6bd0c203" y="448.56"/>
      </g>
     </g>
     <g id="text_11">
      <!-- 1.0 -->
      <g transform="translate(542.848438 463.158437)scale(0.1 -0.1)">
       <use xlink:href="#DejaVuSans-49"/>
       <use x="63.623047" xlink:href="#DejaVuSans-46"/>
       <use x="95.410156" xlink:href="#DejaVuSans-48"/>
      </g>
     </g>
    </g>
    <g id="text_12">
     <!-- 1-precision -->
     <defs>
      <path d="M 4.890625 31.390625 
L 31.203125 31.390625 
L 31.203125 23.390625 
L 4.890625 23.390625 
z
" id="DejaVuSans-45"/>
      <path d="M 18.109375 8.203125 
L 18.109375 -20.796875 
L 9.078125 -20.796875 
L 9.078125 54.6875 
L 18.109375 54.6875 
L 18.109375 46.390625 
Q 20.953125 51.265625 25.265625 53.625 
Q 29.59375 56 35.59375 56 
Q 45.5625 56 51.78125 48.09375 
Q 58.015625 40.1875 58.015625 27.296875 
Q 58.015625 14.40625 51.78125 6.484375 
Q 45.5625 -1.421875 35.59375 -1.421875 
Q 29.59375 -1.421875 25.265625 0.953125 
Q 20.953125 3.328125 18.109375 8.203125 
z
M 48.6875 27.296875 
Q 48.6875 37.203125 44.609375 42.84375 
Q 40.53125 48.484375 33.40625 48.484375 
Q 26.265625 48.484375 22.1875 42.84375 
Q 18.109375 37.203125 18.109375 27.296875 
Q 18.109375 17.390625 22.1875 11.75 
Q 26.265625 6.109375 33.40625 6.109375 
Q 40.53125 6.109375 44.609375 11.75 
Q 48.6875 17.390625 48.6875 27.296875 
z
" id="DejaVuSans-112"/>
      <path d="M 41.109375 46.296875 
Q 39.59375 47.171875 37.8125 47.578125 
Q 36.03125 48 33.890625 48 
Q 26.265625 48 22.1875 43.046875 
Q 18.109375 38.09375 18.109375 28.8125 
L 18.109375 0 
L 9.078125 0 
L 9.078125 54.6875 
L 18.109375 54.6875 
L 18.109375 46.1875 
Q 20.953125 51.171875 25.484375 53.578125 
Q 30.03125 56 36.53125 56 
Q 37.453125 56 38.578125 55.875 
Q 39.703125 55.765625 41.0625 55.515625 
z
" id="DejaVuSans-114"/>
      <path d="M 56.203125 29.59375 
L 56.203125 25.203125 
L 14.890625 25.203125 
Q 15.484375 15.921875 20.484375 11.0625 
Q 25.484375 6.203125 34.421875 6.203125 
Q 39.59375 6.203125 44.453125 7.46875 
Q 49.3125 8.734375 54.109375 11.28125 
L 54.109375 2.78125 
Q 49.265625 0.734375 44.1875 -0.34375 
Q 39.109375 -1.421875 33.890625 -1.421875 
Q 20.796875 -1.421875 13.15625 6.1875 
Q 5.515625 13.8125 5.515625 26.8125 
Q 5.515625 40.234375 12.765625 48.109375 
Q 20.015625 56 32.328125 56 
Q 43.359375 56 49.78125 48.890625 
Q 56.203125 41.796875 56.203125 29.59375 
z
M 47.21875 32.234375 
Q 47.125 39.59375 43.09375 43.984375 
Q 39.0625 48.390625 32.421875 48.390625 
Q 24.90625 48.390625 20.390625 44.140625 
Q 15.875 39.890625 15.1875 32.171875 
z
" id="DejaVuSans-101"/>
      <path d="M 48.78125 52.59375 
L 48.78125 44.1875 
Q 44.96875 46.296875 41.140625 47.34375 
Q 37.3125 48.390625 33.40625 48.390625 
Q 24.65625 48.390625 19.8125 42.84375 
Q 14.984375 37.3125 14.984375 27.296875 
Q 14.984375 17.28125 19.8125 11.734375 
Q 24.65625 6.203125 33.40625 6.203125 
Q 37.3125 6.203125 41.140625 7.25 
Q 44.96875 8.296875 48.78125 10.40625 
L 48.78125 2.09375 
Q 45.015625 0.34375 40.984375 -0.53125 
Q 36.96875 -1.421875 32.421875 -1.421875 
Q 20.0625 -1.421875 12.78125 6.34375 
Q 5.515625 14.109375 5.515625 27.296875 
Q 5.515625 40.671875 12.859375 48.328125 
Q 20.21875 56 33.015625 56 
Q 37.15625 56 41.109375 55.140625 
Q 45.0625 54.296875 48.78125 52.59375 
z
" id="DejaVuSans-99"/>
      <path d="M 9.421875 54.6875 
L 18.40625 54.6875 
L 18.40625 0 
L 9.421875 0 
z
M 9.421875 75.984375 
L 18.40625 75.984375 
L 18.40625 64.59375 
L 9.421875 64.59375 
z
" id="DejaVuSans-105"/>
      <path d="M 44.28125 53.078125 
L 44.28125 44.578125 
Q 40.484375 46.53125 36.375 47.5 
Q 32.28125 48.484375 27.875 48.484375 
Q 21.1875 48.484375 17.84375 46.4375 
Q 14.5 44.390625 14.5 40.28125 
Q 14.5 37.15625 16.890625 35.375 
Q 19.28125 33.59375 26.515625 31.984375 
L 29.59375 31.296875 
Q 39.15625 29.25 43.1875 25.515625 
Q 47.21875 21.78125 47.21875 15.09375 
Q 47.21875 7.46875 41.1875 3.015625 
Q 35.15625 -1.421875 24.609375 -1.421875 
Q 20.21875 -1.421875 15.453125 -0.5625 
Q 10.6875 0.296875 5.421875 2 
L 5.421875 11.28125 
Q 10.40625 8.6875 15.234375 7.390625 
Q 20.0625 6.109375 24.8125 6.109375 
Q 31.15625 6.109375 34.5625 8.28125 
Q 37.984375 10.453125 37.984375 14.40625 
Q 37.984375 18.0625 35.515625 20.015625 
Q 33.0625 21.96875 24.703125 23.78125 
L 21.578125 24.515625 
Q 13.234375 26.265625 9.515625 29.90625 
Q 5.8125 33.546875 5.8125 39.890625 
Q 5.8125 47.609375 11.28125 51.796875 
Q 16.75 56 26.8125 56 
Q 31.78125 56 36.171875 55.265625 
Q 40.578125 54.546875 44.28125 53.078125 
z
" id="DejaVuSans-115"/>
      <path d="M 30.609375 48.390625 
Q 23.390625 48.390625 19.1875 42.75 
Q 14.984375 37.109375 14.984375 27.296875 
Q 14.984375 17.484375 19.15625 11.84375 
Q 23.34375 6.203125 30.609375 6.203125 
Q 37.796875 6.203125 41.984375 11.859375 
Q 46.1875 17.53125 46.1875 27.296875 
Q 46.1875 37.015625 41.984375 42.703125 
Q 37.796875 48.390625 30.609375 48.390625 
z
M 30.609375 56 
Q 42.328125 56 49.015625 48.375 
Q 55.71875 40.765625 55.71875 27.296875 
Q 55.71875 13.875 49.015625 6.21875 
Q 42.328125 -1.421875 30.609375 -1.421875 
Q 18.84375 -1.421875 12.171875 6.21875 
Q 5.515625 13.875 5.515625 27.296875 
Q 5.515625 40.765625 12.171875 48.375 
Q 18.84375 56 30.609375 56 
z
" id="DejaVuSans-111"/>
      <path d="M 54.890625 33.015625 
L 54.890625 0 
L 45.90625 0 
L 45.90625 32.71875 
Q 45.90625 40.484375 42.875 44.328125 
Q 39.84375 48.1875 33.796875 48.1875 
Q 26.515625 48.1875 22.3125 43.546875 
Q 18.109375 38.921875 18.109375 30.90625 
L 18.109375 0 
L 9.078125 0 
L 9.078125 54.6875 
L 18.109375 54.6875 
L 18.109375 46.1875 
Q 21.34375 51.125 25.703125 53.5625 
Q 30.078125 56 35.796875 56 
Q 45.21875 56 50.046875 50.171875 
Q 54.890625 44.34375 54.890625 33.015625 
z
" id="DejaVuSans-110"/>
     </defs>
     <g transform="translate(286.110938 476.836563)scale(0.1 -0.1)">
      <use xlink:href="#DejaVuSans-49"/>
      <use x="63.623047" xlink:href="#DejaVuSans-45"/>
      <use x="99.707031" xlink:href="#DejaVuSans-112"/>
      <use x="163.183594" xlink:href="#DejaVuSans-114"/>
      <use x="202.046875" xlink:href="#DejaVuSans-101"/>
      <use x="263.570312" xlink:href="#DejaVuSans-99"/>
      <use x="318.550781" xlink:href="#DejaVuSans-105"/>
      <use x="346.333984" xlink:href="#DejaVuSans-115"/>
      <use x="398.433594" xlink:href="#DejaVuSans-105"/>
      <use x="426.216797" xlink:href="#DejaVuSans-111"/>
      <use x="487.398438" xlink:href="#DejaVuSans-110"/>
     </g>
    </g>
   </g>
   <g id="matplotlib.axis_2">
    <g id="ytick_1">
     <g id="line2d_23">
      <path clip-path="url(#pc3ac12759c)" d="M 76.5 448.56 
L 550.8 448.56 
" style="fill:none;stroke:#b0b0b0;stroke-linecap:square;stroke-width:0.8;"/>
     </g>
     <g id="line2d_24">
      <defs>
       <path d="M 0 0 
L -3.5 0 
" id="mcc7b4b86a2" style="stroke:#000000;stroke-width:0.8;"/>
      </defs>
      <g>
       <use style="stroke:#000000;stroke-width:0.8;" x="76.5" xlink:href="#mcc7b4b86a2" y="448.56"/>
      </g>
     </g>
     <g id="text_13">
      <!-- 0.0 -->
      <g transform="translate(53.596875 452.359219)scale(0.1 -0.1)">
       <use xlink:href="#DejaVuSans-48"/>
       <use x="63.623047" xlink:href="#DejaVuSans-46"/>
       <use x="95.410156" xlink:href="#DejaVuSans-48"/>
      </g>
     </g>
    </g>
    <g id="ytick_2">
     <g id="line2d_25">
      <path clip-path="url(#pc3ac12759c)" d="M 76.5 409.752 
L 550.8 409.752 
" style="fill:none;stroke:#b0b0b0;stroke-linecap:square;stroke-width:0.8;"/>
     </g>
     <g id="line2d_26">
      <g>
       <use style="stroke:#000000;stroke-width:0.8;" x="76.5" xlink:href="#mcc7b4b86a2" y="409.752"/>
      </g>
     </g>
     <g id="text_14">
      <!-- 0.1 -->
      <g transform="translate(53.596875 413.551219)scale(0.1 -0.1)">
       <use xlink:href="#DejaVuSans-48"/>
       <use x="63.623047" xlink:href="#DejaVuSans-46"/>
       <use x="95.410156" xlink:href="#DejaVuSans-49"/>
      </g>
     </g>
    </g>
    <g id="ytick_3">
     <g id="line2d_27">
      <path clip-path="url(#pc3ac12759c)" d="M 76.5 370.944 
L 550.8 370.944 
" style="fill:none;stroke:#b0b0b0;stroke-linecap:square;stroke-width:0.8;"/>
     </g>
     <g id="line2d_28">
      <g>
       <use style="stroke:#000000;stroke-width:0.8;" x="76.5" xlink:href="#mcc7b4b86a2" y="370.944"/>
      </g>
     </g>
     <g id="text_15">
      <!-- 0.2 -->
      <g transform="translate(53.596875 374.743219)scale(0.1 -0.1)">
       <use xlink:href="#DejaVuSans-48"/>
       <use x="63.623047" xlink:href="#DejaVuSans-46"/>
       <use x="95.410156" xlink:href="#DejaVuSans-50"/>
      </g>
     </g>
    </g>
    <g id="ytick_4">
     <g id="line2d_29">
      <path clip-path="url(#pc3ac12759c)" d="M 76.5 332.136 
L 550.8 332.136 
" style="fill:none;stroke:#b0b0b0;stroke-linecap:square;stroke-width:0.8;"/>
     </g>
     <g id="line2d_30">
      <g>
       <use style="stroke:#000000;stroke-width:0.8;" x="76.5" xlink:href="#mcc7b4b86a2" y="332.136"/>
      </g>
     </g>
     <g id="text_16">
      <!-- 0.3 -->
      <g transform="translate(53.596875 335.935219)scale(0.1 -0.1)">
       <use xlink:href="#DejaVuSans-48"/>
       <use x="63.623047" xlink:href="#DejaVuSans-46"/>
       <use x="95.410156" xlink:href="#DejaVuSans-51"/>
      </g>
     </g>
    </g>
    <g id="ytick_5">
     <g id="line2d_31">
      <path clip-path="url(#pc3ac12759c)" d="M 76.5 293.328 
L 550.8 293.328 
" style="fill:none;stroke:#b0b0b0;stroke-linecap:square;stroke-width:0.8;"/>
     </g>
     <g id="line2d_32">
      <g>
       <use style="stroke:#000000;stroke-width:0.8;" x="76.5" xlink:href="#mcc7b4b86a2" y="293.328"/>
      </g>
     </g>
     <g id="text_17">
      <!-- 0.4 -->
      <g transform="translate(53.596875 297.127219)scale(0.1 -0.1)">
       <use xlink:href="#DejaVuSans-48"/>
       <use x="63.623047" xlink:href="#DejaVuSans-46"/>
       <use x="95.410156" xlink:href="#DejaVuSans-52"/>
      </g>
     </g>
    </g>
    <g id="ytick_6">
     <g id="line2d_33">
      <path clip-path="url(#pc3ac12759c)" d="M 76.5 254.52 
L 550.8 254.52 
" style="fill:none;stroke:#b0b0b0;stroke-linecap:square;stroke-width:0.8;"/>
     </g>
     <g id="line2d_34">
      <g>
       <use style="stroke:#000000;stroke-width:0.8;" x="76.5" xlink:href="#mcc7b4b86a2" y="254.52"/>
      </g>
     </g>
     <g id="text_18">
      <!-- 0.5 -->
      <g transform="translate(53.596875 258.319219)scale(0.1 -0.1)">
       <use xlink:href="#DejaVuSans-48"/>
       <use x="63.623047" xlink:href="#DejaVuSans-46"/>
       <use x="95.410156" xlink:href="#DejaVuSans-53"/>
      </g>
     </g>
    </g>
    <g id="ytick_7">
     <g id="line2d_35">
      <path clip-path="url(#pc3ac12759c)" d="M 76.5 215.712 
L 550.8 215.712 
" style="fill:none;stroke:#b0b0b0;stroke-linecap:square;stroke-width:0.8;"/>
     </g>
     <g id="line2d_36">
      <g>
       <use style="stroke:#000000;stroke-width:0.8;" x="76.5" xlink:href="#mcc7b4b86a2" y="215.712"/>
      </g>
     </g>
     <g id="text_19">
      <!-- 0.6 -->
      <g transform="translate(53.596875 219.511219)scale(0.1 -0.1)">
       <use xlink:href="#DejaVuSans-48"/>
       <use x="63.623047" xlink:href="#DejaVuSans-46"/>
       <use x="95.410156" xlink:href="#DejaVuSans-54"/>
      </g>
     </g>
    </g>
    <g id="ytick_8">
     <g id="line2d_37">
      <path clip-path="url(#pc3ac12759c)" d="M 76.5 176.904 
L 550.8 176.904 
" style="fill:none;stroke:#b0b0b0;stroke-linecap:square;stroke-width:0.8;"/>
     </g>
     <g id="line2d_38">
      <g>
       <use style="stroke:#000000;stroke-width:0.8;" x="76.5" xlink:href="#mcc7b4b86a2" y="176.904"/>
      </g>
     </g>
     <g id="text_20">
      <!-- 0.7 -->
      <g transform="translate(53.596875 180.703219)scale(0.1 -0.1)">
       <use xlink:href="#DejaVuSans-48"/>
       <use x="63.623047" xlink:href="#DejaVuSans-46"/>
       <use x="95.410156" xlink:href="#DejaVuSans-55"/>
      </g>
     </g>
    </g>
    <g id="ytick_9">
     <g id="line2d_39">
      <path clip-path="url(#pc3ac12759c)" d="M 76.5 138.096 
L 550.8 138.096 
" style="fill:none;stroke:#b0b0b0;stroke-linecap:square;stroke-width:0.8;"/>
     </g>
     <g id="line2d_40">
      <g>
       <use style="stroke:#000000;stroke-width:0.8;" x="76.5" xlink:href="#mcc7b4b86a2" y="138.096"/>
      </g>
     </g>
     <g id="text_21">
      <!-- 0.8 -->
      <g transform="translate(53.596875 141.895219)scale(0.1 -0.1)">
       <use xlink:href="#DejaVuSans-48"/>
       <use x="63.623047" xlink:href="#DejaVuSans-46"/>
       <use x="95.410156" xlink:href="#DejaVuSans-56"/>
      </g>
     </g>
    </g>
    <g id="ytick_10">
     <g id="line2d_41">
      <path clip-path="url(#pc3ac12759c)" d="M 76.5 99.288 
L 550.8 99.288 
" style="fill:none;stroke:#b0b0b0;stroke-linecap:square;stroke-width:0.8;"/>
     </g>
     <g id="line2d_42">
      <g>
       <use style="stroke:#000000;stroke-width:0.8;" x="76.5" xlink:href="#mcc7b4b86a2" y="99.288"/>
      </g>
     </g>
     <g id="text_22">
      <!-- 0.9 -->
      <g transform="translate(53.596875 103.087219)scale(0.1 -0.1)">
       <use xlink:href="#DejaVuSans-48"/>
       <use x="63.623047" xlink:href="#DejaVuSans-46"/>
       <use x="95.410156" xlink:href="#DejaVuSans-57"/>
      </g>
     </g>
    </g>
    <g id="ytick_11">
     <g id="line2d_43">
      <path clip-path="url(#pc3ac12759c)" d="M 76.5 60.48 
L 550.8 60.48 
" style="fill:none;stroke:#b0b0b0;stroke-linecap:square;stroke-width:0.8;"/>
     </g>
     <g id="line2d_44">
      <g>
       <use style="stroke:#000000;stroke-width:0.8;" x="76.5" xlink:href="#mcc7b4b86a2" y="60.48"/>
      </g>
     </g>
     <g id="text_23">
      <!-- 1.0 -->
      <g transform="translate(53.596875 64.279219)scale(0.1 -0.1)">
       <use xlink:href="#DejaVuSans-49"/>
       <use x="63.623047" xlink:href="#DejaVuSans-46"/>
       <use x="95.410156" xlink:href="#DejaVuSans-48"/>
      </g>
     </g>
    </g>
    <g id="text_24">
     <!-- #correct/887 -->
     <defs>
      <path d="M 51.125 44 
L 36.921875 44 
L 32.8125 27.6875 
L 47.125 27.6875 
z
M 43.796875 71.78125 
L 38.71875 51.515625 
L 52.984375 51.515625 
L 58.109375 71.78125 
L 65.921875 71.78125 
L 60.890625 51.515625 
L 76.125 51.515625 
L 76.125 44 
L 58.984375 44 
L 54.984375 27.6875 
L 70.515625 27.6875 
L 70.515625 20.21875 
L 53.078125 20.21875 
L 48 0 
L 40.1875 0 
L 45.21875 20.21875 
L 30.90625 20.21875 
L 25.875 0 
L 18.015625 0 
L 23.09375 20.21875 
L 7.71875 20.21875 
L 7.71875 27.6875 
L 24.90625 27.6875 
L 29 44 
L 13.28125 44 
L 13.28125 51.515625 
L 30.90625 51.515625 
L 35.890625 71.78125 
z
" id="DejaVuSans-35"/>
      <path d="M 18.3125 70.21875 
L 18.3125 54.6875 
L 36.8125 54.6875 
L 36.8125 47.703125 
L 18.3125 47.703125 
L 18.3125 18.015625 
Q 18.3125 11.328125 20.140625 9.421875 
Q 21.96875 7.515625 27.59375 7.515625 
L 36.8125 7.515625 
L 36.8125 0 
L 27.59375 0 
Q 17.1875 0 13.234375 3.875 
Q 9.28125 7.765625 9.28125 18.015625 
L 9.28125 47.703125 
L 2.6875 47.703125 
L 2.6875 54.6875 
L 9.28125 54.6875 
L 9.28125 70.21875 
z
" id="DejaVuSans-116"/>
      <path d="M 25.390625 72.90625 
L 33.6875 72.90625 
L 8.296875 -9.28125 
L 0 -9.28125 
z
" id="DejaVuSans-47"/>
     </defs>
     <g transform="translate(47.517187 287.443438)rotate(-90)scale(0.1 -0.1)">
      <use xlink:href="#DejaVuSans-35"/>
      <use x="83.789062" xlink:href="#DejaVuSans-99"/>
      <use x="138.769531" xlink:href="#DejaVuSans-111"/>
      <use x="199.951172" xlink:href="#DejaVuSans-114"/>
      <use x="239.314453" xlink:href="#DejaVuSans-114"/>
      <use x="278.177734" xlink:href="#DejaVuSans-101"/>
      <use x="339.701172" xlink:href="#DejaVuSans-99"/>
      <use x="394.681641" xlink:href="#DejaVuSans-116"/>
      <use x="433.890625" xlink:href="#DejaVuSans-47"/>
      <use x="467.582031" xlink:href="#DejaVuSans-56"/>
      <use x="531.205078" xlink:href="#DejaVuSans-56"/>
      <use x="594.828125" xlink:href="#DejaVuSans-55"/>
     </g>
    </g>
   </g>
   <g id="line2d_45">
    <path clip-path="url(#pc3ac12759c)" d="M 76.5 448.12248 
L 76.5 206.17407 
L 77.354595 206.17407 
L 77.336508 200.923833 
L 78.17007 200.923833 
L 78.164211 200.048794 
L 78.991944 200.048794 
L 78.961765 196.986156 
L 79.776684 196.986156 
L 79.759794 195.673596 
L 80.567753 195.673596 
L 80.560788 195.236077 
L 81.364615 195.236077 
L 81.331579 193.485998 
L 82.127288 193.485998 
L 82.08 191.298399 
L 82.866443 191.298399 
L 82.855779 190.860879 
L 83.638294 190.860879 
L 83.6145 189.98584 
L 84.391847 189.98584 
L 84.326733 187.798241 
L 85.095222 187.798241 
L 85.066995 186.923202 
L 85.830492 186.923202 
L 85.769707 185.173123 
L 87.279545 185.173123 
L 87.24466 184.298083 
L 87.993538 184.298083 
L 87.919743 182.548005 
L 88.661538 182.548005 
L 88.64208 182.110485 
L 89.380351 182.110485 
L 89.318919 180.797926 
L 90.051429 180.797926 
L 90.029952 180.360406 
L 92.210252 180.360406 
L 92.160849 179.485366 
L 95.027344 179.485366 
L 94.99844 179.047847 
L 95.708411 179.047847 
L 95.678538 178.610327 
L 97.792105 178.610327 
L 97.628571 176.422728 
L 99.707339 176.422728 
L 99.636585 175.547689 
L 101.69044 175.547689 
L 101.652273 175.110169 
L 103.009215 175.110169 
L 102.929367 174.23513 
L 104.274324 174.23513 
L 104.149776 172.92257 
L 104.816418 172.92257 
L 104.732143 172.047531 
L 105.394948 172.047531 
L 105.352077 171.610011 
L 108.632253 171.610011 
L 108.585 171.172492 
L 109.234361 171.172492 
L 109.186364 170.734972 
L 110.477632 170.734972 
L 110.378571 169.859932 
L 111.658866 169.859932 
L 111.607837 169.422413 
L 114.772046 169.422413 
L 114.716978 168.984893 
L 116.591261 168.984893 
L 116.533906 168.547373 
L 117.772896 168.547373 
L 117.714103 168.109853 
L 118.330156 168.109853 
L 118.270739 167.672334 
L 118.884255 167.672334 
L 118.764356 166.797294 
L 119.983075 166.797294 
L 119.79986 165.484735 
L 124.58875 165.484735 
L 124.522053 165.047215 
L 126.288398 165.047215 
L 126.219724 164.609696 
L 132.565353 164.609696 
L 132.489281 164.172176 
L 133.056098 164.172176 
L 132.979567 163.734656 
L 136.900134 163.734656 
L 136.819277 163.297136 
L 137.9247 163.297136 
L 137.8428 162.859617 
L 139.488048 162.859617 
L 139.404509 162.422097 
L 141.575462 162.422097 
L 141.489723 161.984577 
L 145.758931 161.984577 
L 145.578804 161.109538 
L 146.105065 161.109538 
L 146.014786 160.672018 
L 146.539119 160.672018 
L 146.448512 160.234498 
L 146.97093 160.234498 
L 146.88 159.796979 
L 148.437532 159.796979 
L 148.345186 159.359459 
L 149.88913 159.359459 
L 149.795402 158.921939 
L 150.81707 158.921939 
L 150.722519 158.484419 
L 152.748228 158.484419 
L 152.651833 158.0469 
L 155.152764 158.0469 
L 154.955639 157.17186 
L 158.397764 157.17186 
L 158.296154 156.73434 
L 167.799879 156.73434 
L 167.579348 155.859301 
L 172.603695 155.859301 
L 172.489286 155.421781 
L 174.282227 155.421781 
L 174.166509 154.984262 
L 181.165505 154.984262 
L 181.044084 154.546742 
L 182.751963 154.546742 
L 182.629412 154.109222 
L 183.476755 154.109222 
L 183.108716 152.796663 
L 190.949495 152.796663 
L 190.821188 152.359143 
L 192.428237 152.359143 
L 192.298997 151.921623 
L 195.075 151.921623 
L 194.943978 151.484104 
L 196.509901 151.484104 
L 196.378022 151.046584 
L 199.848966 151.046584 
L 199.714891 150.609064 
L 200.096091 150.609064 
L 199.962039 150.171545 
L 200.721429 150.171545 
L 200.453132 149.296505 
L 211.801881 149.296505 
L 211.660647 148.858985 
L 220.285758 148.858985 
L 219.993807 147.983946 
L 221.664545 147.983946 
L 221.371875 147.108906 
L 224.984746 147.108906 
L 224.541948 145.796347 
L 246.332839 145.796347 
L 246.17544 145.358828 
L 252.803717 145.358828 
L 252.644022 144.921308 
L 253.988278 144.921308 
L 253.828378 144.483788 
L 262.906114 144.483788 
L 262.743455 144.046268 
L 263.745391 144.046268 
L 263.582711 143.608749 
L 265.318912 143.608749 
L 265.155997 143.171229 
L 267.357021 143.171229 
L 267.193755 142.733709 
L 269.599237 142.733709 
L 269.435593 142.296189 
L 276.864356 142.296189 
L 276.699176 141.85867 
L 280.92638 141.85867 
L 280.760584 141.42115 
L 283.57801 141.42115 
L 283.411949 140.98363 
L 289.897887 140.98363 
L 289.73104 140.54611 
L 297.648218 140.54611 
L 297.480682 140.108591 
L 303.293338 140.108591 
L 303.125592 139.671071 
L 304.763409 139.671071 
L 304.595815 139.233551 
L 305.854711 139.233551 
L 305.687299 138.796032 
L 313.146497 138.796032 
L 312.979137 138.358512 
L 314.483275 138.358512 
L 314.316152 137.920992 
L 319.354639 137.920992 
L 319.187843 137.483472 
L 320.138372 137.483472 
L 319.971839 137.045953 
L 326.56255 137.045953 
L 326.396616 136.608433 
L 326.84245 136.608433 
L 326.67677 136.170913 
L 327.268515 136.170913 
L 327.1031 135.733393 
L 329.43936 135.733393 
L 329.274364 135.295874 
L 342.7125 135.295874 
L 342.549479 134.858354 
L 343.816981 134.858354 
L 343.65438 134.420834 
L 346.389796 134.420834 
L 346.227894 133.983315 
L 350.08093 133.983315 
L 349.92 133.545795 
L 350.038095 133.545795 
L 371.537008 133.545795 
L 371.382214 133.108275 
L 371.476298 133.108275 
L 381.591539 133.108275 
L 381.440653 132.670755 
L 381.52437 132.670755 
L 383.017246 132.670755 
L 382.86714 132.233236 
L 382.949339 132.233236 
L 388.586708 132.233236 
L 388.439149 131.795716 
L 388.515879 131.795716 
L 390.035393 131.795716 
L 389.888676 131.358196 
L 389.963938 131.358196 
L 392.772656 131.358196 
L 392.627377 130.920676 
L 392.7 130.920676 
L 411.896491 130.920676 
L 411.76125 130.483157 
L 411.873288 130.483157 
L 416.525818 130.483157 
L 416.39346 130.045637 
L 416.498016 130.045637 
L 436.161753 130.045637 
L 436.042383 129.608117 
L 436.156532 129.608117 
" style="fill:none;stroke:#1f77b4;stroke-linecap:square;stroke-width:2;"/>
   </g>
   <g id="line2d_46">
    <path clip-path="url(#pc3ac12759c)" d="M 76.5 448.12248 
L 76.5 406.995626 
L 81.440625 406.995626 
L 80.734821 399.99531 
L 84.89469 399.99531 
L 84.15 395.182593 
L 87.8832 395.182593 
L 87.616406 393.870034 
L 91.206977 393.870034 
L 90.45 390.807396 
L 93.810219 390.807396 
L 93.684783 390.369876 
L 96.973381 390.369876 
L 95.859184 386.869718 
L 98.933108 386.869718 
L 98.487417 385.557159 
L 101.463158 385.557159 
L 100.51519 382.932041 
L 103.34717 382.932041 
L 102.21506 379.869402 
L 104.901198 379.869402 
L 104.565089 378.994363 
L 107.19 378.994363 
L 106.657803 377.681804 
L 109.210345 377.681804 
L 109.023429 377.244284 
L 116.469101 377.244284 
L 114.343085 372.869087 
L 113.554688 371.119008 
L 115.820207 371.119008 
L 115.416923 370.243968 
L 117.638265 370.243968 
L 117.429442 369.806449 
L 119.618182 369.806449 
L 119.401508 369.368929 
L 121.5585 369.368929 
L 119.209479 364.556212 
L 118.808451 363.681172 
L 120.827103 363.681172 
L 120.214286 362.368613 
L 122.18945 362.368613 
L 121.569231 361.056054 
L 123.502703 361.056054 
L 123.291928 360.618534 
L 125.200446 360.618534 
L 124.346053 358.868455 
L 126.208297 358.868455 
L 125.777922 357.993416 
L 127.609914 357.993416 
L 126.743644 356.243337 
L 128.532911 356.243337 
L 128.09749 355.368298 
L 129.85875 355.368298 
L 129.2 354.055738 
L 142.63745 354.055738 
L 142.375 353.618219 
L 145.590945 353.618219 
L 145.32 353.180699 
L 146.903906 353.180699 
L 146.629961 352.743179 
L 151.293462 352.743179 
L 151.006897 352.30566 
L 154.047148 352.30566 
L 153.753409 351.86814 
L 155.251698 351.86814 
L 154.080669 350.118061 
L 155.55 350.118061 
L 154.96875 349.243021 
L 156.418681 349.243021 
L 156.127007 348.805502 
L 163.2 348.805502 
L 162.582918 347.930462 
L 165.326502 347.930462 
L 164.394755 346.617903 
L 165.741115 346.617903 
L 165.43125 346.180383 
L 170.710274 346.180383 
L 170.388737 345.742864 
L 171.682653 345.742864 
L 171.36 345.305344 
L 176.43612 345.305344 
L 176.103 344.867824 
L 182.245574 344.867824 
L 181.215584 343.555265 
L 184.780707 343.555265 
L 184.088818 342.680225 
L 186.417143 342.680225 
L 186.069304 342.242706 
L 187.219874 342.242706 
L 186.525705 341.367666 
L 188.795327 341.367666 
L 188.1 340.492627 
L 191.43773 340.492627 
L 191.086239 340.055107 
L 195.433233 340.055107 
L 195.075 339.617587 
L 196.143243 339.617587 
L 195.78503 339.180068 
L 198.945401 339.180068 
L 198.223009 338.305028 
L 199.26 338.305028 
L 198.9 337.867508 
L 199.928947 337.867508 
L 199.569096 337.429989 
L 202.614451 337.429989 
L 202.251009 336.992469 
L 205.238571 336.992469 
L 204.871795 336.554949 
L 207.80339 336.554949 
L 207.433521 336.11743 
L 214.073204 336.11743 
L 213.694215 335.67991 
L 221.85 335.67991 
L 221.460322 335.24239 
L 224.088032 335.24239 
L 223.696552 334.80487 
L 227.97801 334.80487 
L 227.582507 334.367351 
L 230.09456 334.367351 
L 229.697674 333.929831 
L 232.167692 333.929831 
L 231.769565 333.492311 
L 232.583418 333.492311 
L 231.791117 332.617272 
L 235.788722 332.617272 
L 234.994264 331.742232 
L 235.779851 331.742232 
L 235.384615 331.304713 
L 239.25 331.304713 
L 238.852078 330.867193 
L 247.022143 330.867193 
L 245.812766 329.554634 
L 247.248 329.554634 
L 245.655944 327.804555 
L 247.071926 327.804555 
L 246.677083 327.367035 
L 248.078571 327.367035 
L 247.684138 326.929515 
L 249.760274 326.929515 
L 249.365604 326.491995 
L 252.760135 326.491995 
L 252.364045 326.054476 
L 255.68 326.054476 
L 255.282705 325.616956 
L 262.941901 325.616956 
L 262.540086 325.179436 
L 265.61322 325.179436 
L 265.210851 324.741917 
L 265.817197 324.741917 
L 263.435849 322.116798 
L 264.037029 322.116798 
L 263.645511 321.679278 
L 264.839501 321.679278 
L 264.059627 320.804239 
L 268.155918 320.804239 
L 266.604049 319.05416 
L 268.886747 319.05416 
L 268.501202 318.61664 
L 273.502559 318.61664 
L 273.115521 318.179121 
L 293.347541 318.179121 
L 292.560436 317.304081 
L 295.34219 317.304081 
L 294.95 316.866561 
L 295.86375 316.866561 
L 295.472727 316.429042 
L 297.280354 316.429042 
L 296.890283 315.991522 
L 297.784331 315.991522 
L 297.395431 315.554002 
L 301.341176 315.554002 
L 300.95285 315.116483 
L 304.777041 315.116483 
L 304.389474 314.678963 
L 309.710631 314.678963 
L 309.323881 314.241443 
L 313.65 314.241443 
L 313.26439 313.803923 
L 314.03436 313.803923 
L 313.65 313.366404 
L 320.723548 313.366404 
L 320.340752 312.928884 
L 325.289264 312.928884 
L 324.90827 312.491364 
L 326.964947 312.491364 
L 326.585455 312.053844 
L 327.936145 312.053844 
L 327.558045 311.616325 
L 328.560629 311.616325 
L 328.183857 311.178805 
L 336.819828 311.178805 
L 336.446341 310.741285 
L 336.753438 310.741285 
L 336.381116 310.303766 
L 337.903977 310.303766 
L 337.533191 309.866246 
L 341.97625 309.866246 
L 341.608044 309.428726 
L 344.187123 309.428726 
L 343.091542 308.116167 
L 344.21886 308.116167 
L 343.494317 307.241127 
L 345.714458 307.241127 
L 345.354545 306.803608 
L 345.628838 306.803608 
L 345.27 306.366088 
L 346.90119 306.366088 
L 346.543989 305.928568 
L 348.150197 305.928568 
L 347.794634 305.491048 
L 351.19112 305.491048 
L 350.838046 305.053529 
L 352.114943 305.053529 
L 351.763393 304.616009 
L 352.269847 304.616009 
L 351.919441 304.178489 
L 352.423574 304.178489 
L 352.074304 303.74097 
L 353.324151 303.74097 
L 352.976382 303.30345 
L 354.944776 303.30345 
L 354.598882 302.86593 
L 355.327351 302.86593 
L 354.638889 301.990891 
L 355.362731 301.990891 
L 355.020147 301.553371 
L 355.5 301.553371 
L 354.817848 300.678331 
L 355.295854 300.678331 
L 354.956273 300.240812 
L 355.669296 300.240812 
L 355.330909 299.803292 
L 355.803628 299.803292 
L 355.466304 299.365772 
L 358.941993 299.365772 
L 358.273491 298.490733 
L 358.501064 298.490733 
L 358.168123 298.053213 
L 358.848 298.053213 
L 358.516216 297.615693 
L 359.862427 297.615693 
L 359.532168 297.178174 
L 361.517647 297.178174 
L 361.189286 296.740654 
L 362.490961 296.740654 
L 362.164114 296.303134 
L 362.379452 296.303134 
L 362.053478 295.865614 
L 364.810449 295.865614 
L 364.486869 295.428095 
L 366.75898 295.428095 
L 366.437542 294.990575 
L 369.054039 294.990575 
L 368.735005 294.553055 
L 368.933333 294.553055 
L 368.615125 294.115536 
L 368.813152 294.115536 
L 368.495765 293.678016 
L 375.901875 293.678016 
L 375.279418 292.802976 
L 376.906282 292.802976 
L 376.597222 292.365457 
L 377.133231 292.365457 
L 376.825205 291.927937 
L 377.003275 291.927937 
L 376.696012 291.490417 
L 377.405193 291.490417 
L 377.099084 291.052897 
L 380.562712 291.052897 
L 380.259861 290.615378 
L 381.27297 290.615378 
L 380.971513 290.177858 
L 382.634868 290.177858 
L 382.335323 289.740338 
L 383.31858 289.740338 
L 382.722816 288.865299 
L 384.498847 288.865299 
L 384.203263 288.427779 
L 385.629876 288.427779 
L 385.336027 287.990259 
L 386.584811 287.990259 
L 386.292554 287.55274 
L 387.828571 287.55274 
L 387.538153 287.11522 
L 389.939063 287.11522 
L 389.65124 286.6777 
L 395.084827 286.6777 
L 394.802394 286.24018 
L 394.940567 286.24018 
L 394.658761 285.802661 
L 395.892537 285.802661 
L 395.612368 285.365141 
L 395.884151 285.365141 
L 395.604724 284.927621 
L 396.415144 284.927621 
L 396.136957 284.490101 
L 400.45131 284.490101 
L 400.031788 283.615062 
L 400.664736 283.615062 
L 400.392785 283.177542 
L 400.51886 283.177542 
L 400.644724 283.177542 
L 400.373473 282.740023 
L 400.499247 282.740023 
L 401.992301 282.740023 
L 401.723077 282.302503 
L 401.846281 282.302503 
L 402.337068 282.302503 
L 402.068889 281.864983 
L 402.191201 281.864983 
L 402.920867 281.864983 
L 402.508653 280.989944 
L 403.828398 280.989944 
L 403.563783 280.552424 
L 403.682714 280.552424 
L 404.038356 280.552424 
L 403.774638 280.114904 
L 403.89292 280.114904 
L 404.011013 280.114904 
L 403.747952 279.677384 
L 403.865971 279.677384 
L 405.843705 279.677384 
L 405.583149 279.239865 
L 405.697945 279.239865 
L 406.155319 279.239865 
L 405.895748 278.802345 
L 406.009756 278.802345 
L 407.027813 278.802345 
L 406.769789 278.364825 
L 406.882137 278.364825 
L 407.774651 278.364825 
L 407.518048 277.927306 
L 407.628947 277.927306 
L 408.290755 277.927306 
L 407.890238 277.052266 
L 408.109593 277.052266 
L 407.855291 276.614746 
L 407.964828 276.614746 
L 409.266287 276.614746 
L 408.869318 275.739707 
L 409.298112 275.739707 
L 409.046943 275.302187 
L 409.153846 275.302187 
L 409.57985 275.302187 
L 409.329602 274.864667 
L 409.435811 274.864667 
L 409.647751 274.864667 
L 409.398202 274.427148 
L 409.504042 274.427148 
L 410.030872 274.427148 
L 409.78234 273.989628 
L 409.887342 273.989628 
L 413.366667 273.989628 
L 412.978043 273.114589 
L 414.557665 273.114589 
L 414.315676 272.677069 
L 414.413305 272.677069 
L 414.510793 272.677069 
L 414.269357 272.239549 
L 414.366809 272.239549 
L 418.245978 272.239549 
L 417.772645 271.36451 
L 417.864706 271.36451 
L 423.671277 271.36451 
L 423.441667 270.92699 
L 423.525843 270.92699 
L 424.028571 270.92699 
L 423.655191 270.05195 
L 424.237279 270.05195 
L 423.865927 269.176911 
L 424.525325 269.176911 
L 424.299481 268.739391 
L 424.381518 268.739391 
L 424.708603 268.739391 
L 424.483516 268.301871 
L 424.565116 268.301871 
L 426.175255 268.301871 
L 425.95239 267.864352 
L 426.031911 267.864352 
L 426.9 267.864352 
L 426.678508 267.426832 
L 426.756917 267.426832 
L 427.303019 267.426832 
L 427.082527 266.989312 
L 427.160239 266.989312 
L 427.701501 266.989312 
L 427.482 266.551793 
L 427.559026 266.551793 
L 428.853894 266.551793 
L 428.636257 266.114273 
L 428.711667 266.114273 
L 429.979536 266.114273 
L 429.763736 265.676753 
L 429.837584 265.676753 
L 430.352005 265.676753 
L 430.137158 265.239233 
L 430.210376 265.239233 
L 430.792935 265.239233 
L 430.579119 264.801714 
L 430.651628 264.801714 
L 432.786967 264.801714 
L 432.365325 263.926674 
L 432.435364 263.926674 
L 435.636249 263.926674 
L 435.42973 263.489154 
L 435.496034 263.489154 
L 436.220388 263.489154 
L 436.015068 263.051635 
L 436.080548 263.051635 
L 436.536818 263.051635 
L 436.12815 262.176595 
L 436.193193 262.176595 
L 436.839594 262.176595 
L 436.497973 261.301556 
L 437.455276 261.301556 
L 437.25385 260.864036 
L 437.317178 260.864036 
L 440.275991 260.864036 
L 440.078502 260.426516 
L 440.19859 260.426516 
L 441.852885 260.426516 
L 441.657822 259.988997 
L 441.77424 259.988997 
L 445.045577 259.988997 
L 444.719473 259.113957 
L 444.774239 259.113957 
L 445.264594 259.113957 
L 445.075193 258.676437 
L 445.183684 258.676437 
L 446.679514 258.676437 
L 446.492366 258.238918 
L 446.597727 258.238918 
L 447.433016 258.238918 
L 447.247271 257.801398 
L 447.350875 257.801398 
L 447.865804 257.801398 
L 447.681045 257.363878 
L 447.783549 257.363878 
L 449.14767 257.363878 
L 448.965 256.926359 
L 449.06474 256.926359 
L 451.638473 256.926359 
L 451.459494 256.488839 
L 451.554194 256.488839 
L 453.136914 256.488839 
L 452.960338 256.051319 
L 453.051991 256.051319 
L 456.326483 256.051319 
L 456.154615 255.613799 
L 456.24019 255.613799 
L 457.380482 255.613799 
L 457.210446 255.17628 
L 457.293934 255.17628 
L 458.569204 255.17628 
L 458.401187 254.73876 
L 458.482381 254.73876 
L 459.126832 254.73876 
L 458.959965 254.30124 
L 459.04 254.30124 
L 459.635844 254.30124 
L 459.470056 253.86372 
L 459.588462 253.86372 
L 460.370051 253.86372 
L 460.119033 252.988681 
L 460.157802 252.988681 
L 461.531747 252.988681 
L 461.369697 252.551161 
L 461.482472 252.551161 
L 461.70717 252.551161 
L 461.545725 252.113641 
L 461.657807 252.113641 
L 462.944926 252.113641 
L 462.785567 251.676122 
L 462.894316 251.676122 
L 464.7375 251.676122 
L 464.581016 251.238602 
L 464.685145 251.238602 
L 468.049787 251.238602 
L 467.898376 250.801082 
L 467.994438 250.801082 
L 469.3782 250.801082 
L 469.229043 250.363563 
L 469.321843 250.363563 
L 471.662652 250.363563 
L 471.517158 249.926043 
L 471.63375 249.926043 
L 471.691918 249.926043 
L 471.546787 249.488523 
L 471.663036 249.488523 
L 472.038504 249.488523 
L 471.894199 249.051003 
L 472.00918 249.051003 
L 477.756839 249.051003 
L 477.621371 248.613484 
L 477.720061 248.613484 
L 478.403507 248.613484 
L 478.269316 248.175964 
L 478.366055 248.175964 
L 478.774337 248.175964 
L 478.774337 248.175964 
" style="fill:none;stroke:#ff7f0e;stroke-linecap:square;stroke-width:2;"/>
   </g>
   <g id="line2d_47">
    <path clip-path="url(#pc3ac12759c)" d="M 76.5 448.12248 
L 76.5 229.800135 
L 77.446707 229.800135 
L 77.437352 227.612537 
L 78.371006 227.612537 
L 78.349123 224.987418 
L 79.268288 224.987418 
L 79.257558 224.112379 
L 80.169632 224.112379 
L 80.162548 223.674859 
L 81.069364 223.674859 
L 81.060577 223.237339 
L 81.962188 223.237339 
L 81.930916 221.92478 
L 83.713688 221.92478 
L 83.605618 218.424622 
L 84.478879 218.424622 
L 84.390388 215.799504 
L 85.250923 215.799504 
L 85.21875 214.924464 
L 86.073028 214.924464 
L 85.986 212.736866 
L 87.670109 212.736866 
L 87.64991 212.299346 
L 89.318919 212.299346 
L 89.295863 211.861826 
L 90.95 211.861826 
L 90.898393 210.986787 
L 93.349023 210.986787 
L 93.319149 210.549267 
L 94.12885 210.549267 
L 94.004921 208.799188 
L 97.983972 208.799188 
L 97.909375 207.924149 
L 98.694281 207.924149 
L 98.617617 207.049109 
L 99.397241 207.049109 
L 99.162799 204.423991 
L 99.932198 204.423991 
L 99.813051 203.111432 
L 100.576142 203.111432 
L 100.535473 202.673912 
L 101.294772 202.673912 
L 101.046411 200.048794 
L 105.506777 200.048794 
L 105.411203 199.173754 
L 106.14375 199.173754 
L 106.095074 198.736234 
L 108.9969 198.736234 
L 108.943974 198.298715 
L 109.662439 198.298715 
L 109.554943 197.423675 
L 110.268932 197.423675 
L 110.105797 196.111116 
L 114.322967 196.111116 
L 114.083201 194.361037 
L 115.463033 194.361037 
L 115.218367 192.610958 
L 116.58169 192.610958 
L 116.519063 192.173439 
L 117.871963 192.173439 
L 117.743478 191.298399 
L 118.414884 191.298399 
L 118.285317 190.42336 
L 118.952778 190.42336 
L 118.822154 189.54832 
L 119.485714 189.54832 
L 119.419785 189.1108 
L 120.738991 189.1108 
L 120.536986 187.798241 
L 123.140696 187.798241 
L 123.070242 187.360722 
L 123.715385 187.360722 
L 123.644277 186.923202 
L 124.286617 186.923202 
L 124.214865 186.485682 
L 124.854423 186.485682 
L 124.782036 186.048162 
L 131.065487 186.048162 
L 130.985125 185.610643 
L 131.6025 185.610643 
L 131.521586 185.173123 
L 133.969927 185.173123 
L 133.886152 184.735603 
L 134.493013 184.735603 
L 134.408721 184.298083 
L 135.013062 184.298083 
L 134.928261 183.860564 
L 136.130202 183.860564 
L 136.044156 183.423044 
L 137.237698 183.423044 
L 137.150431 182.985524 
L 138.335673 182.985524 
L 137.895875 180.797926 
L 139.650425 180.797926 
L 139.472034 179.922886 
L 140.052186 179.922886 
L 139.962676 179.485366 
L 141.116713 179.485366 
L 140.845594 178.172807 
L 141.989121 178.172807 
L 141.897911 177.735287 
L 143.03375 177.735287 
L 142.849446 176.860248 
L 143.976381 176.860248 
L 143.88331 176.422728 
L 144.443802 176.422728 
L 144.257143 175.547689 
L 150.308525 175.547689 
L 150.109312 174.672649 
L 150.649326 174.672649 
L 150.45 173.79761 
L 151.523324 173.79761 
L 151.322727 172.92257 
L 157.112253 172.92257 
L 156.794882 171.610011 
L 158.85235 171.610011 
L 158.74498 171.172492 
L 159.255469 171.172492 
L 159.147854 170.734972 
L 160.163813 170.734972 
L 160.05544 170.297452 
L 163.068895 170.297452 
L 162.846923 169.422413 
L 163.343662 169.422413 
L 163.232609 168.984893 
L 163.727586 168.984893 
L 163.616327 168.547373 
L 165.092249 168.547373 
L 164.979822 168.109853 
L 165.956582 168.109853 
L 165.843489 167.672334 
L 166.814376 167.672334 
L 166.70063 167.234814 
L 167.183774 167.234814 
L 166.956211 166.359775 
L 169.824284 166.359775 
L 169.708209 165.922255 
L 171.124907 165.922255 
L 171.007797 165.484735 
L 173.343542 165.484735 
L 173.22457 165.047215 
L 174.611016 165.047215 
L 174.491076 164.609696 
L 175.866139 164.609696 
L 175.745255 164.172176 
L 178.463043 164.172176 
L 178.340048 163.734656 
L 179.683053 163.734656 
L 179.312335 162.422097 
L 180.642243 162.422097 
L 180.518117 161.984577 
L 185.739483 161.984577 
L 185.611268 161.547057 
L 186.892632 161.547057 
L 186.763668 161.109538 
L 191.382353 161.109538 
L 191.25 160.672018 
L 191.663751 160.672018 
L 191.531379 160.234498 
L 191.943858 160.234498 
L 191.679381 159.359459 
L 192.090275 159.359459 
L 191.958171 158.921939 
L 194.402043 158.921939 
L 194.268367 158.484419 
L 196.278129 158.484419 
L 196.143243 158.0469 
L 198.917095 158.0469 
L 198.780469 157.60938 
L 200.733962 157.60938 
L 200.596231 157.17186 
L 203.293069 157.17186 
L 203.014709 156.296821 
L 203.776561 156.296821 
L 203.637309 155.859301 
L 207.022427 155.859301 
L 206.881169 155.421781 
L 207.623974 155.421781 
L 207.482524 154.984262 
L 208.59 154.984262 
L 208.44812 154.546742 
L 214.587342 154.546742 
L 214.441834 154.109222 
L 220.36118 154.109222 
L 220.21241 153.671702 
L 220.894737 153.671702 
L 220.745876 153.234183 
L 231.286527 153.234183 
L 231.132203 152.796663 
L 231.450598 152.796663 
L 231.296418 152.359143 
L 231.614016 152.359143 
L 231.45998 151.921623 
L 237.373684 151.921623 
L 237.21704 151.484104 
L 245.828693 151.484104 
L 245.668496 151.046584 
L 247.960563 151.046584 
L 247.639175 150.171545 
L 255.391233 150.171545 
L 255.228011 149.734025 
L 259.742588 149.734025 
L 259.578097 149.296505 
L 262.681705 149.296505 
L 262.516504 148.858985 
L 263.027192 148.858985 
L 262.862124 148.421466 
L 265.887741 148.421466 
L 265.556643 147.546426 
L 269.491034 147.546426 
L 269.324806 147.108906 
L 274.559341 147.108906 
L 274.392061 146.671387 
L 274.858179 146.671387 
L 274.69107 146.233867 
L 276.309799 146.233867 
L 276.142594 145.796347 
L 279.098344 145.796347 
L 278.930769 145.358828 
L 280.717913 145.358828 
L 280.550246 144.921308 
L 281.214251 144.921308 
L 281.046727 144.483788 
L 285.39058 144.483788 
L 285.222526 144.046268 
L 290.253197 144.046268 
L 290.084621 143.608749 
L 293.533774 143.608749 
L 293.365008 143.171229 
L 294.758701 143.171229 
L 294.590031 142.733709 
L 299.255463 142.733709 
L 299.086581 142.296189 
L 300.03716 142.296189 
L 299.868453 141.85867 
L 302.492084 141.85867 
L 302.323433 141.42115 
L 304.892614 141.42115 
L 304.724059 140.98363 
L 307.773105 140.98363 
L 307.604661 140.54611 
L 312.294857 140.54611 
L 311.958488 139.671071 
L 313.817834 139.671071 
L 313.65 139.233551 
L 316.794348 139.233551 
L 316.626778 138.796032 
L 317.278164 138.796032 
L 317.110841 138.358512 
L 317.273125 138.358512 
L 317.106037 137.920992 
L 318.075052 137.920992 
L 317.908218 137.483472 
L 319.346809 137.483472 
L 319.180247 137.045953 
L 323.85 137.045953 
L 323.683882 136.608433 
L 327.286517 136.608433 
L 327.120872 136.170913 
L 328.150296 136.170913 
L 327.984954 135.733393 
L 328.423279 135.733393 
L 328.258191 135.295874 
L 329.707031 135.295874 
L 329.54229 134.858354 
L 331.680735 134.858354 
L 331.51642 134.420834 
L 334.990494 134.420834 
L 334.826789 133.983315 
L 335.780013 133.983315 
L 335.616635 133.545795 
L 338.558856 133.545795 
L 338.396087 133.108275 
L 344.66962 133.108275 
L 344.508072 132.670755 
L 348.767788 132.670755 
L 348.607252 132.233236 
L 354.17219 132.233236 
L 354.013066 131.795716 
L 354.125773 131.795716 
L 366.872201 131.795716 
L 366.716756 131.358196 
L 366.815249 131.358196 
L 375.803817 131.358196 
L 375.651577 130.920676 
L 375.74062 130.920676 
L 379.229596 130.920676 
L 379.078835 130.483157 
L 379.164311 130.483157 
L 380.436314 130.483157 
L 380.286222 130.045637 
L 380.370385 130.045637 
L 388.615688 130.045637 
L 388.469155 129.608117 
L 388.545331 129.608117 
L 389.22771 129.608117 
L 389.081644 129.170598 
L 389.157143 129.170598 
L 404.953749 129.170598 
L 404.815453 128.733078 
L 404.876894 128.733078 
L 406.03453 128.733078 
L 405.820058 127.858038 
L 422.179245 127.858038 
L 422.051405 127.420519 
L 422.146563 127.420519 
L 425.751078 127.420519 
L 425.625673 126.982999 
L 425.715501 126.982999 
L 435.212964 126.982999 
L 435.212964 126.982999 
" style="fill:none;stroke:#2ca02c;stroke-linecap:square;stroke-width:2;"/>
   </g>
   <g id="patch_3">
    <path d="M 76.5 448.56 
L 76.5 60.48 
" style="fill:none;stroke:#000000;stroke-linecap:square;stroke-linejoin:miter;stroke-width:0.8;"/>
   </g>
   <g id="patch_4">
    <path d="M 550.8 448.56 
L 550.8 60.48 
" style="fill:none;stroke:#000000;stroke-linecap:square;stroke-linejoin:miter;stroke-width:0.8;"/>
   </g>
   <g id="patch_5">
    <path d="M 76.5 448.56 
L 550.8 448.56 
" style="fill:none;stroke:#000000;stroke-linecap:square;stroke-linejoin:miter;stroke-width:0.8;"/>
   </g>
   <g id="patch_6">
    <path d="M 76.5 60.48 
L 550.8 60.48 
" style="fill:none;stroke:#000000;stroke-linecap:square;stroke-linejoin:miter;stroke-width:0.8;"/>
   </g>
   <g id="text_25">
    <!-- bark: img1-img2 -->
    <defs>
     <path d="M 48.6875 27.296875 
Q 48.6875 37.203125 44.609375 42.84375 
Q 40.53125 48.484375 33.40625 48.484375 
Q 26.265625 48.484375 22.1875 42.84375 
Q 18.109375 37.203125 18.109375 27.296875 
Q 18.109375 17.390625 22.1875 11.75 
Q 26.265625 6.109375 33.40625 6.109375 
Q 40.53125 6.109375 44.609375 11.75 
Q 48.6875 17.390625 48.6875 27.296875 
z
M 18.109375 46.390625 
Q 20.953125 51.265625 25.265625 53.625 
Q 29.59375 56 35.59375 56 
Q 45.5625 56 51.78125 48.09375 
Q 58.015625 40.1875 58.015625 27.296875 
Q 58.015625 14.40625 51.78125 6.484375 
Q 45.5625 -1.421875 35.59375 -1.421875 
Q 29.59375 -1.421875 25.265625 0.953125 
Q 20.953125 3.328125 18.109375 8.203125 
L 18.109375 0 
L 9.078125 0 
L 9.078125 75.984375 
L 18.109375 75.984375 
z
" id="DejaVuSans-98"/>
     <path d="M 34.28125 27.484375 
Q 23.390625 27.484375 19.1875 25 
Q 14.984375 22.515625 14.984375 16.5 
Q 14.984375 11.71875 18.140625 8.90625 
Q 21.296875 6.109375 26.703125 6.109375 
Q 34.1875 6.109375 38.703125 11.40625 
Q 43.21875 16.703125 43.21875 25.484375 
L 43.21875 27.484375 
z
M 52.203125 31.203125 
L 52.203125 0 
L 43.21875 0 
L 43.21875 8.296875 
Q 40.140625 3.328125 35.546875 0.953125 
Q 30.953125 -1.421875 24.3125 -1.421875 
Q 15.921875 -1.421875 10.953125 3.296875 
Q 6 8.015625 6 15.921875 
Q 6 25.140625 12.171875 29.828125 
Q 18.359375 34.515625 30.609375 34.515625 
L 43.21875 34.515625 
L 43.21875 35.40625 
Q 43.21875 41.609375 39.140625 45 
Q 35.0625 48.390625 27.6875 48.390625 
Q 23 48.390625 18.546875 47.265625 
Q 14.109375 46.140625 10.015625 43.890625 
L 10.015625 52.203125 
Q 14.9375 54.109375 19.578125 55.046875 
Q 24.21875 56 28.609375 56 
Q 40.484375 56 46.34375 49.84375 
Q 52.203125 43.703125 52.203125 31.203125 
z
" id="DejaVuSans-97"/>
     <path d="M 9.078125 75.984375 
L 18.109375 75.984375 
L 18.109375 31.109375 
L 44.921875 54.6875 
L 56.390625 54.6875 
L 27.390625 29.109375 
L 57.625 0 
L 45.90625 0 
L 18.109375 26.703125 
L 18.109375 0 
L 9.078125 0 
z
" id="DejaVuSans-107"/>
     <path d="M 11.71875 12.40625 
L 22.015625 12.40625 
L 22.015625 0 
L 11.71875 0 
z
M 11.71875 51.703125 
L 22.015625 51.703125 
L 22.015625 39.3125 
L 11.71875 39.3125 
z
" id="DejaVuSans-58"/>
     <path id="DejaVuSans-32"/>
     <path d="M 52 44.1875 
Q 55.375 50.25 60.0625 53.125 
Q 64.75 56 71.09375 56 
Q 79.640625 56 84.28125 50.015625 
Q 88.921875 44.046875 88.921875 33.015625 
L 88.921875 0 
L 79.890625 0 
L 79.890625 32.71875 
Q 79.890625 40.578125 77.09375 44.375 
Q 74.3125 48.1875 68.609375 48.1875 
Q 61.625 48.1875 57.5625 43.546875 
Q 53.515625 38.921875 53.515625 30.90625 
L 53.515625 0 
L 44.484375 0 
L 44.484375 32.71875 
Q 44.484375 40.625 41.703125 44.40625 
Q 38.921875 48.1875 33.109375 48.1875 
Q 26.21875 48.1875 22.15625 43.53125 
Q 18.109375 38.875 18.109375 30.90625 
L 18.109375 0 
L 9.078125 0 
L 9.078125 54.6875 
L 18.109375 54.6875 
L 18.109375 46.1875 
Q 21.1875 51.21875 25.484375 53.609375 
Q 29.78125 56 35.6875 56 
Q 41.65625 56 45.828125 52.96875 
Q 50 49.953125 52 44.1875 
z
" id="DejaVuSans-109"/>
     <path d="M 45.40625 27.984375 
Q 45.40625 37.75 41.375 43.109375 
Q 37.359375 48.484375 30.078125 48.484375 
Q 22.859375 48.484375 18.828125 43.109375 
Q 14.796875 37.75 14.796875 27.984375 
Q 14.796875 18.265625 18.828125 12.890625 
Q 22.859375 7.515625 30.078125 7.515625 
Q 37.359375 7.515625 41.375 12.890625 
Q 45.40625 18.265625 45.40625 27.984375 
z
M 54.390625 6.78125 
Q 54.390625 -7.171875 48.1875 -13.984375 
Q 42 -20.796875 29.203125 -20.796875 
Q 24.46875 -20.796875 20.265625 -20.09375 
Q 16.0625 -19.390625 12.109375 -17.921875 
L 12.109375 -9.1875 
Q 16.0625 -11.328125 19.921875 -12.34375 
Q 23.78125 -13.375 27.78125 -13.375 
Q 36.625 -13.375 41.015625 -8.765625 
Q 45.40625 -4.15625 45.40625 5.171875 
L 45.40625 9.625 
Q 42.625 4.78125 38.28125 2.390625 
Q 33.9375 0 27.875 0 
Q 17.828125 0 11.671875 7.65625 
Q 5.515625 15.328125 5.515625 27.984375 
Q 5.515625 40.671875 11.671875 48.328125 
Q 17.828125 56 27.875 56 
Q 33.9375 56 38.28125 53.609375 
Q 42.625 51.21875 45.40625 46.390625 
L 45.40625 54.6875 
L 54.390625 54.6875 
z
" id="DejaVuSans-103"/>
    </defs>
    <g transform="translate(263.854688 41.042625)scale(0.12 -0.12)">
     <use xlink:href="#DejaVuSans-98"/>
     <use x="63.476562" xlink:href="#DejaVuSans-97"/>
     <use x="124.755859" xlink:href="#DejaVuSans-114"/>
     <use x="165.869141" xlink:href="#DejaVuSans-107"/>
     <use x="223.779297" xlink:href="#DejaVuSans-58"/>
     <use x="257.470703" xlink:href="#DejaVuSans-32"/>
     <use x="289.257812" xlink:href="#DejaVuSans-105"/>
     <use x="317.041016" xlink:href="#DejaVuSans-109"/>
     <use x="414.453125" xlink:href="#DejaVuSans-103"/>
     <use x="477.929688" xlink:href="#DejaVuSans-49"/>
     <use x="541.552734" xlink:href="#DejaVuSans-45"/>
     <use x="577.636719" xlink:href="#DejaVuSans-105"/>
     <use x="605.419922" xlink:href="#DejaVuSans-109"/>
     <use x="702.832031" xlink:href="#DejaVuSans-103"/>
     <use x="766.308594" xlink:href="#DejaVuSans-50"/>
    </g>
    <!-- NearestNeighbours -->
    <defs>
     <path d="M 9.8125 72.90625 
L 23.09375 72.90625 
L 55.421875 11.921875 
L 55.421875 72.90625 
L 64.984375 72.90625 
L 64.984375 0 
L 51.703125 0 
L 19.390625 60.984375 
L 19.390625 0 
L 9.8125 0 
z
" id="DejaVuSans-78"/>
     <path d="M 54.890625 33.015625 
L 54.890625 0 
L 45.90625 0 
L 45.90625 32.71875 
Q 45.90625 40.484375 42.875 44.328125 
Q 39.84375 48.1875 33.796875 48.1875 
Q 26.515625 48.1875 22.3125 43.546875 
Q 18.109375 38.921875 18.109375 30.90625 
L 18.109375 0 
L 9.078125 0 
L 9.078125 75.984375 
L 18.109375 75.984375 
L 18.109375 46.1875 
Q 21.34375 51.125 25.703125 53.5625 
Q 30.078125 56 35.796875 56 
Q 45.21875 56 50.046875 50.171875 
Q 54.890625 44.34375 54.890625 33.015625 
z
" id="DejaVuSans-104"/>
     <path d="M 8.5 21.578125 
L 8.5 54.6875 
L 17.484375 54.6875 
L 17.484375 21.921875 
Q 17.484375 14.15625 20.5 10.265625 
Q 23.53125 6.390625 29.59375 6.390625 
Q 36.859375 6.390625 41.078125 11.03125 
Q 45.3125 15.671875 45.3125 23.6875 
L 45.3125 54.6875 
L 54.296875 54.6875 
L 54.296875 0 
L 45.3125 0 
L 45.3125 8.40625 
Q 42.046875 3.421875 37.71875 1 
Q 33.40625 -1.421875 27.6875 -1.421875 
Q 18.265625 -1.421875 13.375 4.4375 
Q 8.5 10.296875 8.5 21.578125 
z
M 31.109375 56 
z
" id="DejaVuSans-117"/>
    </defs>
    <g transform="translate(255.957188 54.48)scale(0.12 -0.12)">
     <use xlink:href="#DejaVuSans-78"/>
     <use x="74.804688" xlink:href="#DejaVuSans-101"/>
     <use x="136.328125" xlink:href="#DejaVuSans-97"/>
     <use x="197.607422" xlink:href="#DejaVuSans-114"/>
     <use x="236.470703" xlink:href="#DejaVuSans-101"/>
     <use x="297.994141" xlink:href="#DejaVuSans-115"/>
     <use x="350.09375" xlink:href="#DejaVuSans-116"/>
     <use x="389.302734" xlink:href="#DejaVuSans-78"/>
     <use x="464.107422" xlink:href="#DejaVuSans-101"/>
     <use x="525.630859" xlink:href="#DejaVuSans-105"/>
     <use x="553.414062" xlink:href="#DejaVuSans-103"/>
     <use x="616.890625" xlink:href="#DejaVuSans-104"/>
     <use x="680.269531" xlink:href="#DejaVuSans-98"/>
     <use x="743.746094" xlink:href="#DejaVuSans-111"/>
     <use x="804.927734" xlink:href="#DejaVuSans-117"/>
     <use x="868.306641" xlink:href="#DejaVuSans-114"/>
     <use x="909.419922" xlink:href="#DejaVuSans-115"/>
    </g>
   </g>
   <g id="legend_1">
    <g id="patch_7">
     <path d="M 362.659375 112.514375 
L 543.8 112.514375 
Q 545.8 112.514375 545.8 110.514375 
L 545.8 67.48 
Q 545.8 65.48 543.8 65.48 
L 362.659375 65.48 
Q 360.659375 65.48 360.659375 67.48 
L 360.659375 110.514375 
Q 360.659375 112.514375 362.659375 112.514375 
z
" style="fill:#ffffff;opacity:0.8;stroke:#cccccc;stroke-linejoin:miter;"/>
    </g>
    <g id="line2d_48">
     <path d="M 364.659375 73.578438 
L 384.659375 73.578438 
" style="fill:none;stroke:#1f77b4;stroke-linecap:square;stroke-width:2;"/>
    </g>
    <g id="line2d_49"/>
    <g id="text_26">
     <!-- root-cvsift AP: 78.5, %In: 24.2 -->
     <defs>
      <path d="M 2.984375 54.6875 
L 12.5 54.6875 
L 29.59375 8.796875 
L 46.6875 54.6875 
L 56.203125 54.6875 
L 35.6875 0 
L 23.484375 0 
z
" id="DejaVuSans-118"/>
      <path d="M 37.109375 75.984375 
L 37.109375 68.5 
L 28.515625 68.5 
Q 23.6875 68.5 21.796875 66.546875 
Q 19.921875 64.59375 19.921875 59.515625 
L 19.921875 54.6875 
L 34.71875 54.6875 
L 34.71875 47.703125 
L 19.921875 47.703125 
L 19.921875 0 
L 10.890625 0 
L 10.890625 47.703125 
L 2.296875 47.703125 
L 2.296875 54.6875 
L 10.890625 54.6875 
L 10.890625 58.5 
Q 10.890625 67.625 15.140625 71.796875 
Q 19.390625 75.984375 28.609375 75.984375 
z
" id="DejaVuSans-102"/>
      <path d="M 34.1875 63.1875 
L 20.796875 26.90625 
L 47.609375 26.90625 
z
M 28.609375 72.90625 
L 39.796875 72.90625 
L 67.578125 0 
L 57.328125 0 
L 50.6875 18.703125 
L 17.828125 18.703125 
L 11.1875 0 
L 0.78125 0 
z
" id="DejaVuSans-65"/>
      <path d="M 19.671875 64.796875 
L 19.671875 37.40625 
L 32.078125 37.40625 
Q 38.96875 37.40625 42.71875 40.96875 
Q 46.484375 44.53125 46.484375 51.125 
Q 46.484375 57.671875 42.71875 61.234375 
Q 38.96875 64.796875 32.078125 64.796875 
z
M 9.8125 72.90625 
L 32.078125 72.90625 
Q 44.34375 72.90625 50.609375 67.359375 
Q 56.890625 61.8125 56.890625 51.125 
Q 56.890625 40.328125 50.609375 34.8125 
Q 44.34375 29.296875 32.078125 29.296875 
L 19.671875 29.296875 
L 19.671875 0 
L 9.8125 0 
z
" id="DejaVuSans-80"/>
      <path d="M 11.71875 12.40625 
L 22.015625 12.40625 
L 22.015625 4 
L 14.015625 -11.625 
L 7.71875 -11.625 
L 11.71875 4 
z
" id="DejaVuSans-44"/>
      <path d="M 72.703125 32.078125 
Q 68.453125 32.078125 66.03125 28.46875 
Q 63.625 24.859375 63.625 18.40625 
Q 63.625 12.0625 66.03125 8.421875 
Q 68.453125 4.78125 72.703125 4.78125 
Q 76.859375 4.78125 79.265625 8.421875 
Q 81.6875 12.0625 81.6875 18.40625 
Q 81.6875 24.8125 79.265625 28.4375 
Q 76.859375 32.078125 72.703125 32.078125 
z
M 72.703125 38.28125 
Q 80.421875 38.28125 84.953125 32.90625 
Q 89.5 27.546875 89.5 18.40625 
Q 89.5 9.28125 84.9375 3.921875 
Q 80.375 -1.421875 72.703125 -1.421875 
Q 64.890625 -1.421875 60.34375 3.921875 
Q 55.8125 9.28125 55.8125 18.40625 
Q 55.8125 27.59375 60.375 32.9375 
Q 64.9375 38.28125 72.703125 38.28125 
z
M 22.3125 68.015625 
Q 18.109375 68.015625 15.6875 64.375 
Q 13.28125 60.75 13.28125 54.390625 
Q 13.28125 47.953125 15.671875 44.328125 
Q 18.0625 40.71875 22.3125 40.71875 
Q 26.5625 40.71875 28.96875 44.328125 
Q 31.390625 47.953125 31.390625 54.390625 
Q 31.390625 60.6875 28.953125 64.34375 
Q 26.515625 68.015625 22.3125 68.015625 
z
M 66.40625 74.21875 
L 74.21875 74.21875 
L 28.609375 -1.421875 
L 20.796875 -1.421875 
z
M 22.3125 74.21875 
Q 30.03125 74.21875 34.609375 68.875 
Q 39.203125 63.53125 39.203125 54.390625 
Q 39.203125 45.171875 34.640625 39.84375 
Q 30.078125 34.515625 22.3125 34.515625 
Q 14.546875 34.515625 10.03125 39.859375 
Q 5.515625 45.21875 5.515625 54.390625 
Q 5.515625 63.484375 10.046875 68.84375 
Q 14.59375 74.21875 22.3125 74.21875 
z
" id="DejaVuSans-37"/>
      <path d="M 9.8125 72.90625 
L 19.671875 72.90625 
L 19.671875 0 
L 9.8125 0 
z
" id="DejaVuSans-73"/>
     </defs>
     <g transform="translate(392.659375 77.078438)scale(0.1 -0.1)">
      <use xlink:href="#DejaVuSans-114"/>
      <use x="38.863281" xlink:href="#DejaVuSans-111"/>
      <use x="100.044922" xlink:href="#DejaVuSans-111"/>
      <use x="161.226562" xlink:href="#DejaVuSans-116"/>
      <use x="200.435547" xlink:href="#DejaVuSans-45"/>
      <use x="236.519531" xlink:href="#DejaVuSans-99"/>
      <use x="291.5" xlink:href="#DejaVuSans-118"/>
      <use x="350.679688" xlink:href="#DejaVuSans-115"/>
      <use x="402.779297" xlink:href="#DejaVuSans-105"/>
      <use x="430.5625" xlink:href="#DejaVuSans-102"/>
      <use x="464.017578" xlink:href="#DejaVuSans-116"/>
      <use x="503.226562" xlink:href="#DejaVuSans-32"/>
      <use x="535.013672" xlink:href="#DejaVuSans-65"/>
      <use x="603.421875" xlink:href="#DejaVuSans-80"/>
      <use x="663.724609" xlink:href="#DejaVuSans-58"/>
      <use x="697.416016" xlink:href="#DejaVuSans-32"/>
      <use x="729.203125" xlink:href="#DejaVuSans-55"/>
      <use x="792.826172" xlink:href="#DejaVuSans-56"/>
      <use x="856.449219" xlink:href="#DejaVuSans-46"/>
      <use x="888.236328" xlink:href="#DejaVuSans-53"/>
      <use x="951.859375" xlink:href="#DejaVuSans-44"/>
      <use x="983.646484" xlink:href="#DejaVuSans-32"/>
      <use x="1015.433594" xlink:href="#DejaVuSans-37"/>
      <use x="1110.453125" xlink:href="#DejaVuSans-73"/>
      <use x="1139.945312" xlink:href="#DejaVuSans-110"/>
      <use x="1203.324219" xlink:href="#DejaVuSans-58"/>
      <use x="1237.015625" xlink:href="#DejaVuSans-32"/>
      <use x="1268.802734" xlink:href="#DejaVuSans-50"/>
      <use x="1332.425781" xlink:href="#DejaVuSans-52"/>
      <use x="1396.048828" xlink:href="#DejaVuSans-46"/>
      <use x="1427.835938" xlink:href="#DejaVuSans-50"/>
     </g>
    </g>
    <g id="line2d_50">
     <path d="M 364.659375 88.256563 
L 384.659375 88.256563 
" style="fill:none;stroke:#ff7f0e;stroke-linecap:square;stroke-width:2;"/>
    </g>
    <g id="line2d_51"/>
    <g id="text_27">
     <!-- tfeat AP: 36.0, %In: 15.2 -->
     <g transform="translate(392.659375 91.756563)scale(0.1 -0.1)">
      <use xlink:href="#DejaVuSans-116"/>
      <use x="39.208984" xlink:href="#DejaVuSans-102"/>
      <use x="74.414062" xlink:href="#DejaVuSans-101"/>
      <use x="135.9375" xlink:href="#DejaVuSans-97"/>
      <use x="197.216797" xlink:href="#DejaVuSans-116"/>
      <use x="236.425781" xlink:href="#DejaVuSans-32"/>
      <use x="268.212891" xlink:href="#DejaVuSans-65"/>
      <use x="336.621094" xlink:href="#DejaVuSans-80"/>
      <use x="396.923828" xlink:href="#DejaVuSans-58"/>
      <use x="430.615234" xlink:href="#DejaVuSans-32"/>
      <use x="462.402344" xlink:href="#DejaVuSans-51"/>
      <use x="526.025391" xlink:href="#DejaVuSans-54"/>
      <use x="589.648438" xlink:href="#DejaVuSans-46"/>
      <use x="621.435547" xlink:href="#DejaVuSans-48"/>
      <use x="685.058594" xlink:href="#DejaVuSans-44"/>
      <use x="716.845703" xlink:href="#DejaVuSans-32"/>
      <use x="748.632812" xlink:href="#DejaVuSans-37"/>
      <use x="843.652344" xlink:href="#DejaVuSans-73"/>
      <use x="873.144531" xlink:href="#DejaVuSans-110"/>
      <use x="936.523438" xlink:href="#DejaVuSans-58"/>
      <use x="970.214844" xlink:href="#DejaVuSans-32"/>
      <use x="1002.001953" xlink:href="#DejaVuSans-49"/>
      <use x="1065.625" xlink:href="#DejaVuSans-53"/>
      <use x="1129.248047" xlink:href="#DejaVuSans-46"/>
      <use x="1161.035156" xlink:href="#DejaVuSans-50"/>
     </g>
    </g>
    <g id="line2d_52">
     <path d="M 364.659375 102.934687 
L 384.659375 102.934687 
" style="fill:none;stroke:#2ca02c;stroke-linecap:square;stroke-width:2;"/>
    </g>
    <g id="line2d_53"/>
    <g id="text_28">
     <!-- hardnet AP: 77.3, %In: 24.4 -->
     <defs>
      <path d="M 45.40625 46.390625 
L 45.40625 75.984375 
L 54.390625 75.984375 
L 54.390625 0 
L 45.40625 0 
L 45.40625 8.203125 
Q 42.578125 3.328125 38.25 0.953125 
Q 33.9375 -1.421875 27.875 -1.421875 
Q 17.96875 -1.421875 11.734375 6.484375 
Q 5.515625 14.40625 5.515625 27.296875 
Q 5.515625 40.1875 11.734375 48.09375 
Q 17.96875 56 27.875 56 
Q 33.9375 56 38.25 53.625 
Q 42.578125 51.265625 45.40625 46.390625 
z
M 14.796875 27.296875 
Q 14.796875 17.390625 18.875 11.75 
Q 22.953125 6.109375 30.078125 6.109375 
Q 37.203125 6.109375 41.296875 11.75 
Q 45.40625 17.390625 45.40625 27.296875 
Q 45.40625 37.203125 41.296875 42.84375 
Q 37.203125 48.484375 30.078125 48.484375 
Q 22.953125 48.484375 18.875 42.84375 
Q 14.796875 37.203125 14.796875 27.296875 
z
" id="DejaVuSans-100"/>
     </defs>
     <g transform="translate(392.659375 106.434687)scale(0.1 -0.1)">
      <use xlink:href="#DejaVuSans-104"/>
      <use x="63.378906" xlink:href="#DejaVuSans-97"/>
      <use x="124.658203" xlink:href="#DejaVuSans-114"/>
      <use x="164.021484" xlink:href="#DejaVuSans-100"/>
      <use x="227.498047" xlink:href="#DejaVuSans-110"/>
      <use x="290.876953" xlink:href="#DejaVuSans-101"/>
      <use x="352.400391" xlink:href="#DejaVuSans-116"/>
      <use x="391.609375" xlink:href="#DejaVuSans-32"/>
      <use x="423.396484" xlink:href="#DejaVuSans-65"/>
      <use x="491.804688" xlink:href="#DejaVuSans-80"/>
      <use x="552.107422" xlink:href="#DejaVuSans-58"/>
      <use x="585.798828" xlink:href="#DejaVuSans-32"/>
      <use x="617.585938" xlink:href="#DejaVuSans-55"/>
      <use x="681.208984" xlink:href="#DejaVuSans-55"/>
      <use x="744.832031" xlink:href="#DejaVuSans-46"/>
      <use x="776.619141" xlink:href="#DejaVuSans-51"/>
      <use x="840.242188" xlink:href="#DejaVuSans-44"/>
      <use x="872.029297" xlink:href="#DejaVuSans-32"/>
      <use x="903.816406" xlink:href="#DejaVuSans-37"/>
      <use x="998.835938" xlink:href="#DejaVuSans-73"/>
      <use x="1028.328125" xlink:href="#DejaVuSans-110"/>
      <use x="1091.707031" xlink:href="#DejaVuSans-58"/>
      <use x="1125.398438" xlink:href="#DejaVuSans-32"/>
      <use x="1157.185547" xlink:href="#DejaVuSans-50"/>
      <use x="1220.808594" xlink:href="#DejaVuSans-52"/>
      <use x="1284.431641" xlink:href="#DejaVuSans-46"/>
      <use x="1316.21875" xlink:href="#DejaVuSans-52"/>
     </g>
    </g>
   </g>
  </g>
 </g>
 <defs>
  <clipPath id="pc3ac12759c">
   <rect height="388.08" width="474.3" x="76.5" y="60.48"/>
  </clipPath>
 </defs>
</svg>
