<?xml version="1.0" encoding="utf-8" standalone="no"?>
<!DOCTYPE svg PUBLIC "-//W3C//DTD SVG 1.1//EN"
  "http://www.w3.org/Graphics/SVG/1.1/DTD/svg11.dtd">
<!-- Created with matplotlib (https://matplotlib.org/) -->
<svg height="504pt" version="1.1" viewBox="0 0 612 504" width="612pt" xmlns="http://www.w3.org/2000/svg" xmlns:xlink="http://www.w3.org/1999/xlink">
 <defs>
  <style type="text/css">
*{stroke-linecap:butt;stroke-linejoin:round;}
  </style>
 </defs>
 <g id="figure_1">
  <g id="patch_1">
   <path d="M 0 504 
L 612 504 
L 612 0 
L 0 0 
z
" style="fill:#ffffff;"/>
  </g>
  <g id="axes_1">
   <g id="patch_2">
    <path d="M 76.5 448.56 
L 550.8 448.56 
L 550.8 60.48 
L 76.5 60.48 
z
" style="fill:#ffffff;"/>
   </g>
   <g id="matplotlib.axis_1">
    <g id="xtick_1">
     <g id="line2d_1">
      <path clip-path="url(#p7f8c826d6e)" d="M 76.5 448.56 
L 76.5 60.48 
" style="fill:none;stroke:#b0b0b0;stroke-linecap:square;stroke-width:0.8;"/>
     </g>
     <g id="line2d_2">
      <defs>
       <path d="M 0 0 
L 0 3.5 
" id="ma4ff303169" style="stroke:#000000;stroke-width:0.8;"/>
      </defs>
      <g>
       <use style="stroke:#000000;stroke-width:0.8;" x="76.5" xlink:href="#ma4ff303169" y="448.56"/>
      </g>
     </g>
     <g id="text_1">
      <!-- 0.0 -->
      <defs>
       <path d="M 31.78125 66.40625 
Q 24.171875 66.40625 20.328125 58.90625 
Q 16.5 51.421875 16.5 36.375 
Q 16.5 21.390625 20.328125 13.890625 
Q 24.171875 6.390625 31.78125 6.390625 
Q 39.453125 6.390625 43.28125 13.890625 
Q 47.125 21.390625 47.125 36.375 
Q 47.125 51.421875 43.28125 58.90625 
Q 39.453125 66.40625 31.78125 66.40625 
z
M 31.78125 74.21875 
Q 44.046875 74.21875 50.515625 64.515625 
Q 56.984375 54.828125 56.984375 36.375 
Q 56.984375 17.96875 50.515625 8.265625 
Q 44.046875 -1.421875 31.78125 -1.421875 
Q 19.53125 -1.421875 13.0625 8.265625 
Q 6.59375 17.96875 6.59375 36.375 
Q 6.59375 54.828125 13.0625 64.515625 
Q 19.53125 74.21875 31.78125 74.21875 
z
" id="DejaVuSans-48"/>
       <path d="M 10.6875 12.40625 
L 21 12.40625 
L 21 0 
L 10.6875 0 
z
" id="DejaVuSans-46"/>
      </defs>
      <g transform="translate(68.548438 463.158437)scale(0.1 -0.1)">
       <use xlink:href="#DejaVuSans-48"/>
       <use x="63.623047" xlink:href="#DejaVuSans-46"/>
       <use x="95.410156" xlink:href="#DejaVuSans-48"/>
      </g>
     </g>
    </g>
    <g id="xtick_2">
     <g id="line2d_3">
      <path clip-path="url(#p7f8c826d6e)" d="M 123.93 448.56 
L 123.93 60.48 
" style="fill:none;stroke:#b0b0b0;stroke-linecap:square;stroke-width:0.8;"/>
     </g>
     <g id="line2d_4">
      <g>
       <use style="stroke:#000000;stroke-width:0.8;" x="123.93" xlink:href="#ma4ff303169" y="448.56"/>
      </g>
     </g>
     <g id="text_2">
      <!-- 0.1 -->
      <defs>
       <path d="M 12.40625 8.296875 
L 28.515625 8.296875 
L 28.515625 63.921875 
L 10.984375 60.40625 
L 10.984375 69.390625 
L 28.421875 72.90625 
L 38.28125 72.90625 
L 38.28125 8.296875 
L 54.390625 8.296875 
L 54.390625 0 
L 12.40625 0 
z
" id="DejaVuSans-49"/>
      </defs>
      <g transform="translate(115.978438 463.158437)scale(0.1 -0.1)">
       <use xlink:href="#DejaVuSans-48"/>
       <use x="63.623047" xlink:href="#DejaVuSans-46"/>
       <use x="95.410156" xlink:href="#DejaVuSans-49"/>
      </g>
     </g>
    </g>
    <g id="xtick_3">
     <g id="line2d_5">
      <path clip-path="url(#p7f8c826d6e)" d="M 171.36 448.56 
L 171.36 60.48 
" style="fill:none;stroke:#b0b0b0;stroke-linecap:square;stroke-width:0.8;"/>
     </g>
     <g id="line2d_6">
      <g>
       <use style="stroke:#000000;stroke-width:0.8;" x="171.36" xlink:href="#ma4ff303169" y="448.56"/>
      </g>
     </g>
     <g id="text_3">
      <!-- 0.2 -->
      <defs>
       <path d="M 19.1875 8.296875 
L 53.609375 8.296875 
L 53.609375 0 
L 7.328125 0 
L 7.328125 8.296875 
Q 12.9375 14.109375 22.625 23.890625 
Q 32.328125 33.6875 34.8125 36.53125 
Q 39.546875 41.84375 41.421875 45.53125 
Q 43.3125 49.21875 43.3125 52.78125 
Q 43.3125 58.59375 39.234375 62.25 
Q 35.15625 65.921875 28.609375 65.921875 
Q 23.96875 65.921875 18.8125 64.3125 
Q 13.671875 62.703125 7.8125 59.421875 
L 7.8125 69.390625 
Q 13.765625 71.78125 18.9375 73 
Q 24.125 74.21875 28.421875 74.21875 
Q 39.75 74.21875 46.484375 68.546875 
Q 53.21875 62.890625 53.21875 53.421875 
Q 53.21875 48.921875 51.53125 44.890625 
Q 49.859375 40.875 45.40625 35.40625 
Q 44.1875 33.984375 37.640625 27.21875 
Q 31.109375 20.453125 19.1875 8.296875 
z
" id="DejaVuSans-50"/>
      </defs>
      <g transform="translate(163.408438 463.158437)scale(0.1 -0.1)">
       <use xlink:href="#DejaVuSans-48"/>
       <use x="63.623047" xlink:href="#DejaVuSans-46"/>
       <use x="95.410156" xlink:href="#DejaVuSans-50"/>
      </g>
     </g>
    </g>
    <g id="xtick_4">
     <g id="line2d_7">
      <path clip-path="url(#p7f8c826d6e)" d="M 218.79 448.56 
L 218.79 60.48 
" style="fill:none;stroke:#b0b0b0;stroke-linecap:square;stroke-width:0.8;"/>
     </g>
     <g id="line2d_8">
      <g>
       <use style="stroke:#000000;stroke-width:0.8;" x="218.79" xlink:href="#ma4ff303169" y="448.56"/>
      </g>
     </g>
     <g id="text_4">
      <!-- 0.3 -->
      <defs>
       <path d="M 40.578125 39.3125 
Q 47.65625 37.796875 51.625 33 
Q 55.609375 28.21875 55.609375 21.1875 
Q 55.609375 10.40625 48.1875 4.484375 
Q 40.765625 -1.421875 27.09375 -1.421875 
Q 22.515625 -1.421875 17.65625 -0.515625 
Q 12.796875 0.390625 7.625 2.203125 
L 7.625 11.71875 
Q 11.71875 9.328125 16.59375 8.109375 
Q 21.484375 6.890625 26.8125 6.890625 
Q 36.078125 6.890625 40.9375 10.546875 
Q 45.796875 14.203125 45.796875 21.1875 
Q 45.796875 27.640625 41.28125 31.265625 
Q 36.765625 34.90625 28.71875 34.90625 
L 20.21875 34.90625 
L 20.21875 43.015625 
L 29.109375 43.015625 
Q 36.375 43.015625 40.234375 45.921875 
Q 44.09375 48.828125 44.09375 54.296875 
Q 44.09375 59.90625 40.109375 62.90625 
Q 36.140625 65.921875 28.71875 65.921875 
Q 24.65625 65.921875 20.015625 65.03125 
Q 15.375 64.15625 9.8125 62.3125 
L 9.8125 71.09375 
Q 15.4375 72.65625 20.34375 73.4375 
Q 25.25 74.21875 29.59375 74.21875 
Q 40.828125 74.21875 47.359375 69.109375 
Q 53.90625 64.015625 53.90625 55.328125 
Q 53.90625 49.265625 50.4375 45.09375 
Q 46.96875 40.921875 40.578125 39.3125 
z
" id="DejaVuSans-51"/>
      </defs>
      <g transform="translate(210.838438 463.158437)scale(0.1 -0.1)">
       <use xlink:href="#DejaVuSans-48"/>
       <use x="63.623047" xlink:href="#DejaVuSans-46"/>
       <use x="95.410156" xlink:href="#DejaVuSans-51"/>
      </g>
     </g>
    </g>
    <g id="xtick_5">
     <g id="line2d_9">
      <path clip-path="url(#p7f8c826d6e)" d="M 266.22 448.56 
L 266.22 60.48 
" style="fill:none;stroke:#b0b0b0;stroke-linecap:square;stroke-width:0.8;"/>
     </g>
     <g id="line2d_10">
      <g>
       <use style="stroke:#000000;stroke-width:0.8;" x="266.22" xlink:href="#ma4ff303169" y="448.56"/>
      </g>
     </g>
     <g id="text_5">
      <!-- 0.4 -->
      <defs>
       <path d="M 37.796875 64.3125 
L 12.890625 25.390625 
L 37.796875 25.390625 
z
M 35.203125 72.90625 
L 47.609375 72.90625 
L 47.609375 25.390625 
L 58.015625 25.390625 
L 58.015625 17.1875 
L 47.609375 17.1875 
L 47.609375 0 
L 37.796875 0 
L 37.796875 17.1875 
L 4.890625 17.1875 
L 4.890625 26.703125 
z
" id="DejaVuSans-52"/>
      </defs>
      <g transform="translate(258.268438 463.158437)scale(0.1 -0.1)">
       <use xlink:href="#DejaVuSans-48"/>
       <use x="63.623047" xlink:href="#DejaVuSans-46"/>
       <use x="95.410156" xlink:href="#DejaVuSans-52"/>
      </g>
     </g>
    </g>
    <g id="xtick_6">
     <g id="line2d_11">
      <path clip-path="url(#p7f8c826d6e)" d="M 313.65 448.56 
L 313.65 60.48 
" style="fill:none;stroke:#b0b0b0;stroke-linecap:square;stroke-width:0.8;"/>
     </g>
     <g id="line2d_12">
      <g>
       <use style="stroke:#000000;stroke-width:0.8;" x="313.65" xlink:href="#ma4ff303169" y="448.56"/>
      </g>
     </g>
     <g id="text_6">
      <!-- 0.5 -->
      <defs>
       <path d="M 10.796875 72.90625 
L 49.515625 72.90625 
L 49.515625 64.59375 
L 19.828125 64.59375 
L 19.828125 46.734375 
Q 21.96875 47.46875 24.109375 47.828125 
Q 26.265625 48.1875 28.421875 48.1875 
Q 40.625 48.1875 47.75 41.5 
Q 54.890625 34.8125 54.890625 23.390625 
Q 54.890625 11.625 47.5625 5.09375 
Q 40.234375 -1.421875 26.90625 -1.421875 
Q 22.3125 -1.421875 17.546875 -0.640625 
Q 12.796875 0.140625 7.71875 1.703125 
L 7.71875 11.625 
Q 12.109375 9.234375 16.796875 8.0625 
Q 21.484375 6.890625 26.703125 6.890625 
Q 35.15625 6.890625 40.078125 11.328125 
Q 45.015625 15.765625 45.015625 23.390625 
Q 45.015625 31 40.078125 35.4375 
Q 35.15625 39.890625 26.703125 39.890625 
Q 22.75 39.890625 18.8125 39.015625 
Q 14.890625 38.140625 10.796875 36.28125 
z
" id="DejaVuSans-53"/>
      </defs>
      <g transform="translate(305.698438 463.158437)scale(0.1 -0.1)">
       <use xlink:href="#DejaVuSans-48"/>
       <use x="63.623047" xlink:href="#DejaVuSans-46"/>
       <use x="95.410156" xlink:href="#DejaVuSans-53"/>
      </g>
     </g>
    </g>
    <g id="xtick_7">
     <g id="line2d_13">
      <path clip-path="url(#p7f8c826d6e)" d="M 361.08 448.56 
L 361.08 60.48 
" style="fill:none;stroke:#b0b0b0;stroke-linecap:square;stroke-width:0.8;"/>
     </g>
     <g id="line2d_14">
      <g>
       <use style="stroke:#000000;stroke-width:0.8;" x="361.08" xlink:href="#ma4ff303169" y="448.56"/>
      </g>
     </g>
     <g id="text_7">
      <!-- 0.6 -->
      <defs>
       <path d="M 33.015625 40.375 
Q 26.375 40.375 22.484375 35.828125 
Q 18.609375 31.296875 18.609375 23.390625 
Q 18.609375 15.53125 22.484375 10.953125 
Q 26.375 6.390625 33.015625 6.390625 
Q 39.65625 6.390625 43.53125 10.953125 
Q 47.40625 15.53125 47.40625 23.390625 
Q 47.40625 31.296875 43.53125 35.828125 
Q 39.65625 40.375 33.015625 40.375 
z
M 52.59375 71.296875 
L 52.59375 62.3125 
Q 48.875 64.0625 45.09375 64.984375 
Q 41.3125 65.921875 37.59375 65.921875 
Q 27.828125 65.921875 22.671875 59.328125 
Q 17.53125 52.734375 16.796875 39.40625 
Q 19.671875 43.65625 24.015625 45.921875 
Q 28.375 48.1875 33.59375 48.1875 
Q 44.578125 48.1875 50.953125 41.515625 
Q 57.328125 34.859375 57.328125 23.390625 
Q 57.328125 12.15625 50.6875 5.359375 
Q 44.046875 -1.421875 33.015625 -1.421875 
Q 20.359375 -1.421875 13.671875 8.265625 
Q 6.984375 17.96875 6.984375 36.375 
Q 6.984375 53.65625 15.1875 63.9375 
Q 23.390625 74.21875 37.203125 74.21875 
Q 40.921875 74.21875 44.703125 73.484375 
Q 48.484375 72.75 52.59375 71.296875 
z
" id="DejaVuSans-54"/>
      </defs>
      <g transform="translate(353.128438 463.158437)scale(0.1 -0.1)">
       <use xlink:href="#DejaVuSans-48"/>
       <use x="63.623047" xlink:href="#DejaVuSans-46"/>
       <use x="95.410156" xlink:href="#DejaVuSans-54"/>
      </g>
     </g>
    </g>
    <g id="xtick_8">
     <g id="line2d_15">
      <path clip-path="url(#p7f8c826d6e)" d="M 408.51 448.56 
L 408.51 60.48 
" style="fill:none;stroke:#b0b0b0;stroke-linecap:square;stroke-width:0.8;"/>
     </g>
     <g id="line2d_16">
      <g>
       <use style="stroke:#000000;stroke-width:0.8;" x="408.51" xlink:href="#ma4ff303169" y="448.56"/>
      </g>
     </g>
     <g id="text_8">
      <!-- 0.7 -->
      <defs>
       <path d="M 8.203125 72.90625 
L 55.078125 72.90625 
L 55.078125 68.703125 
L 28.609375 0 
L 18.3125 0 
L 43.21875 64.59375 
L 8.203125 64.59375 
z
" id="DejaVuSans-55"/>
      </defs>
      <g transform="translate(400.558438 463.158437)scale(0.1 -0.1)">
       <use xlink:href="#DejaVuSans-48"/>
       <use x="63.623047" xlink:href="#DejaVuSans-46"/>
       <use x="95.410156" xlink:href="#DejaVuSans-55"/>
      </g>
     </g>
    </g>
    <g id="xtick_9">
     <g id="line2d_17">
      <path clip-path="url(#p7f8c826d6e)" d="M 455.94 448.56 
L 455.94 60.48 
" style="fill:none;stroke:#b0b0b0;stroke-linecap:square;stroke-width:0.8;"/>
     </g>
     <g id="line2d_18">
      <g>
       <use style="stroke:#000000;stroke-width:0.8;" x="455.94" xlink:href="#ma4ff303169" y="448.56"/>
      </g>
     </g>
     <g id="text_9">
      <!-- 0.8 -->
      <defs>
       <path d="M 31.78125 34.625 
Q 24.75 34.625 20.71875 30.859375 
Q 16.703125 27.09375 16.703125 20.515625 
Q 16.703125 13.921875 20.71875 10.15625 
Q 24.75 6.390625 31.78125 6.390625 
Q 38.8125 6.390625 42.859375 10.171875 
Q 46.921875 13.96875 46.921875 20.515625 
Q 46.921875 27.09375 42.890625 30.859375 
Q 38.875 34.625 31.78125 34.625 
z
M 21.921875 38.8125 
Q 15.578125 40.375 12.03125 44.71875 
Q 8.5 49.078125 8.5 55.328125 
Q 8.5 64.0625 14.71875 69.140625 
Q 20.953125 74.21875 31.78125 74.21875 
Q 42.671875 74.21875 48.875 69.140625 
Q 55.078125 64.0625 55.078125 55.328125 
Q 55.078125 49.078125 51.53125 44.71875 
Q 48 40.375 41.703125 38.8125 
Q 48.828125 37.15625 52.796875 32.3125 
Q 56.78125 27.484375 56.78125 20.515625 
Q 56.78125 9.90625 50.3125 4.234375 
Q 43.84375 -1.421875 31.78125 -1.421875 
Q 19.734375 -1.421875 13.25 4.234375 
Q 6.78125 9.90625 6.78125 20.515625 
Q 6.78125 27.484375 10.78125 32.3125 
Q 14.796875 37.15625 21.921875 38.8125 
z
M 18.3125 54.390625 
Q 18.3125 48.734375 21.84375 45.5625 
Q 25.390625 42.390625 31.78125 42.390625 
Q 38.140625 42.390625 41.71875 45.5625 
Q 45.3125 48.734375 45.3125 54.390625 
Q 45.3125 60.0625 41.71875 63.234375 
Q 38.140625 66.40625 31.78125 66.40625 
Q 25.390625 66.40625 21.84375 63.234375 
Q 18.3125 60.0625 18.3125 54.390625 
z
" id="DejaVuSans-56"/>
      </defs>
      <g transform="translate(447.988438 463.158437)scale(0.1 -0.1)">
       <use xlink:href="#DejaVuSans-48"/>
       <use x="63.623047" xlink:href="#DejaVuSans-46"/>
       <use x="95.410156" xlink:href="#DejaVuSans-56"/>
      </g>
     </g>
    </g>
    <g id="xtick_10">
     <g id="line2d_19">
      <path clip-path="url(#p7f8c826d6e)" d="M 503.37 448.56 
L 503.37 60.48 
" style="fill:none;stroke:#b0b0b0;stroke-linecap:square;stroke-width:0.8;"/>
     </g>
     <g id="line2d_20">
      <g>
       <use style="stroke:#000000;stroke-width:0.8;" x="503.37" xlink:href="#ma4ff303169" y="448.56"/>
      </g>
     </g>
     <g id="text_10">
      <!-- 0.9 -->
      <defs>
       <path d="M 10.984375 1.515625 
L 10.984375 10.5 
Q 14.703125 8.734375 18.5 7.8125 
Q 22.3125 6.890625 25.984375 6.890625 
Q 35.75 6.890625 40.890625 13.453125 
Q 46.046875 20.015625 46.78125 33.40625 
Q 43.953125 29.203125 39.59375 26.953125 
Q 35.25 24.703125 29.984375 24.703125 
Q 19.046875 24.703125 12.671875 31.3125 
Q 6.296875 37.9375 6.296875 49.421875 
Q 6.296875 60.640625 12.9375 67.421875 
Q 19.578125 74.21875 30.609375 74.21875 
Q 43.265625 74.21875 49.921875 64.515625 
Q 56.59375 54.828125 56.59375 36.375 
Q 56.59375 19.140625 48.40625 8.859375 
Q 40.234375 -1.421875 26.421875 -1.421875 
Q 22.703125 -1.421875 18.890625 -0.6875 
Q 15.09375 0.046875 10.984375 1.515625 
z
M 30.609375 32.421875 
Q 37.25 32.421875 41.125 36.953125 
Q 45.015625 41.5 45.015625 49.421875 
Q 45.015625 57.28125 41.125 61.84375 
Q 37.25 66.40625 30.609375 66.40625 
Q 23.96875 66.40625 20.09375 61.84375 
Q 16.21875 57.28125 16.21875 49.421875 
Q 16.21875 41.5 20.09375 36.953125 
Q 23.96875 32.421875 30.609375 32.421875 
z
" id="DejaVuSans-57"/>
      </defs>
      <g transform="translate(495.418438 463.158437)scale(0.1 -0.1)">
       <use xlink:href="#DejaVuSans-48"/>
       <use x="63.623047" xlink:href="#DejaVuSans-46"/>
       <use x="95.410156" xlink:href="#DejaVuSans-57"/>
      </g>
     </g>
    </g>
    <g id="xtick_11">
     <g id="line2d_21">
      <path clip-path="url(#p7f8c826d6e)" d="M 550.8 448.56 
L 550.8 60.48 
" style="fill:none;stroke:#b0b0b0;stroke-linecap:square;stroke-width:0.8;"/>
     </g>
     <g id="line2d_22">
      <g>
       <use style="stroke:#000000;stroke-width:0.8;" x="550.8" xlink:href="#ma4ff303169" y="448.56"/>
      </g>
     </g>
     <g id="text_11">
      <!-- 1.0 -->
      <g transform="translate(542.848438 463.158437)scale(0.1 -0.1)">
       <use xlink:href="#DejaVuSans-49"/>
       <use x="63.623047" xlink:href="#DejaVuSans-46"/>
       <use x="95.410156" xlink:href="#DejaVuSans-48"/>
      </g>
     </g>
    </g>
    <g id="text_12">
     <!-- 1-precision -->
     <defs>
      <path d="M 4.890625 31.390625 
L 31.203125 31.390625 
L 31.203125 23.390625 
L 4.890625 23.390625 
z
" id="DejaVuSans-45"/>
      <path d="M 18.109375 8.203125 
L 18.109375 -20.796875 
L 9.078125 -20.796875 
L 9.078125 54.6875 
L 18.109375 54.6875 
L 18.109375 46.390625 
Q 20.953125 51.265625 25.265625 53.625 
Q 29.59375 56 35.59375 56 
Q 45.5625 56 51.78125 48.09375 
Q 58.015625 40.1875 58.015625 27.296875 
Q 58.015625 14.40625 51.78125 6.484375 
Q 45.5625 -1.421875 35.59375 -1.421875 
Q 29.59375 -1.421875 25.265625 0.953125 
Q 20.953125 3.328125 18.109375 8.203125 
z
M 48.6875 27.296875 
Q 48.6875 37.203125 44.609375 42.84375 
Q 40.53125 48.484375 33.40625 48.484375 
Q 26.265625 48.484375 22.1875 42.84375 
Q 18.109375 37.203125 18.109375 27.296875 
Q 18.109375 17.390625 22.1875 11.75 
Q 26.265625 6.109375 33.40625 6.109375 
Q 40.53125 6.109375 44.609375 11.75 
Q 48.6875 17.390625 48.6875 27.296875 
z
" id="DejaVuSans-112"/>
      <path d="M 41.109375 46.296875 
Q 39.59375 47.171875 37.8125 47.578125 
Q 36.03125 48 33.890625 48 
Q 26.265625 48 22.1875 43.046875 
Q 18.109375 38.09375 18.109375 28.8125 
L 18.109375 0 
L 9.078125 0 
L 9.078125 54.6875 
L 18.109375 54.6875 
L 18.109375 46.1875 
Q 20.953125 51.171875 25.484375 53.578125 
Q 30.03125 56 36.53125 56 
Q 37.453125 56 38.578125 55.875 
Q 39.703125 55.765625 41.0625 55.515625 
z
" id="DejaVuSans-114"/>
      <path d="M 56.203125 29.59375 
L 56.203125 25.203125 
L 14.890625 25.203125 
Q 15.484375 15.921875 20.484375 11.0625 
Q 25.484375 6.203125 34.421875 6.203125 
Q 39.59375 6.203125 44.453125 7.46875 
Q 49.3125 8.734375 54.109375 11.28125 
L 54.109375 2.78125 
Q 49.265625 0.734375 44.1875 -0.34375 
Q 39.109375 -1.421875 33.890625 -1.421875 
Q 20.796875 -1.421875 13.15625 6.1875 
Q 5.515625 13.8125 5.515625 26.8125 
Q 5.515625 40.234375 12.765625 48.109375 
Q 20.015625 56 32.328125 56 
Q 43.359375 56 49.78125 48.890625 
Q 56.203125 41.796875 56.203125 29.59375 
z
M 47.21875 32.234375 
Q 47.125 39.59375 43.09375 43.984375 
Q 39.0625 48.390625 32.421875 48.390625 
Q 24.90625 48.390625 20.390625 44.140625 
Q 15.875 39.890625 15.1875 32.171875 
z
" id="DejaVuSans-101"/>
      <path d="M 48.78125 52.59375 
L 48.78125 44.1875 
Q 44.96875 46.296875 41.140625 47.34375 
Q 37.3125 48.390625 33.40625 48.390625 
Q 24.65625 48.390625 19.8125 42.84375 
Q 14.984375 37.3125 14.984375 27.296875 
Q 14.984375 17.28125 19.8125 11.734375 
Q 24.65625 6.203125 33.40625 6.203125 
Q 37.3125 6.203125 41.140625 7.25 
Q 44.96875 8.296875 48.78125 10.40625 
L 48.78125 2.09375 
Q 45.015625 0.34375 40.984375 -0.53125 
Q 36.96875 -1.421875 32.421875 -1.421875 
Q 20.0625 -1.421875 12.78125 6.34375 
Q 5.515625 14.109375 5.515625 27.296875 
Q 5.515625 40.671875 12.859375 48.328125 
Q 20.21875 56 33.015625 56 
Q 37.15625 56 41.109375 55.140625 
Q 45.0625 54.296875 48.78125 52.59375 
z
" id="DejaVuSans-99"/>
      <path d="M 9.421875 54.6875 
L 18.40625 54.6875 
L 18.40625 0 
L 9.421875 0 
z
M 9.421875 75.984375 
L 18.40625 75.984375 
L 18.40625 64.59375 
L 9.421875 64.59375 
z
" id="DejaVuSans-105"/>
      <path d="M 44.28125 53.078125 
L 44.28125 44.578125 
Q 40.484375 46.53125 36.375 47.5 
Q 32.28125 48.484375 27.875 48.484375 
Q 21.1875 48.484375 17.84375 46.4375 
Q 14.5 44.390625 14.5 40.28125 
Q 14.5 37.15625 16.890625 35.375 
Q 19.28125 33.59375 26.515625 31.984375 
L 29.59375 31.296875 
Q 39.15625 29.25 43.1875 25.515625 
Q 47.21875 21.78125 47.21875 15.09375 
Q 47.21875 7.46875 41.1875 3.015625 
Q 35.15625 -1.421875 24.609375 -1.421875 
Q 20.21875 -1.421875 15.453125 -0.5625 
Q 10.6875 0.296875 5.421875 2 
L 5.421875 11.28125 
Q 10.40625 8.6875 15.234375 7.390625 
Q 20.0625 6.109375 24.8125 6.109375 
Q 31.15625 6.109375 34.5625 8.28125 
Q 37.984375 10.453125 37.984375 14.40625 
Q 37.984375 18.0625 35.515625 20.015625 
Q 33.0625 21.96875 24.703125 23.78125 
L 21.578125 24.515625 
Q 13.234375 26.265625 9.515625 29.90625 
Q 5.8125 33.546875 5.8125 39.890625 
Q 5.8125 47.609375 11.28125 51.796875 
Q 16.75 56 26.8125 56 
Q 31.78125 56 36.171875 55.265625 
Q 40.578125 54.546875 44.28125 53.078125 
z
" id="DejaVuSans-115"/>
      <path d="M 30.609375 48.390625 
Q 23.390625 48.390625 19.1875 42.75 
Q 14.984375 37.109375 14.984375 27.296875 
Q 14.984375 17.484375 19.15625 11.84375 
Q 23.34375 6.203125 30.609375 6.203125 
Q 37.796875 6.203125 41.984375 11.859375 
Q 46.1875 17.53125 46.1875 27.296875 
Q 46.1875 37.015625 41.984375 42.703125 
Q 37.796875 48.390625 30.609375 48.390625 
z
M 30.609375 56 
Q 42.328125 56 49.015625 48.375 
Q 55.71875 40.765625 55.71875 27.296875 
Q 55.71875 13.875 49.015625 6.21875 
Q 42.328125 -1.421875 30.609375 -1.421875 
Q 18.84375 -1.421875 12.171875 6.21875 
Q 5.515625 13.875 5.515625 27.296875 
Q 5.515625 40.765625 12.171875 48.375 
Q 18.84375 56 30.609375 56 
z
" id="DejaVuSans-111"/>
      <path d="M 54.890625 33.015625 
L 54.890625 0 
L 45.90625 0 
L 45.90625 32.71875 
Q 45.90625 40.484375 42.875 44.328125 
Q 39.84375 48.1875 33.796875 48.1875 
Q 26.515625 48.1875 22.3125 43.546875 
Q 18.109375 38.921875 18.109375 30.90625 
L 18.109375 0 
L 9.078125 0 
L 9.078125 54.6875 
L 18.109375 54.6875 
L 18.109375 46.1875 
Q 21.34375 51.125 25.703125 53.5625 
Q 30.078125 56 35.796875 56 
Q 45.21875 56 50.046875 50.171875 
Q 54.890625 44.34375 54.890625 33.015625 
z
" id="DejaVuSans-110"/>
     </defs>
     <g transform="translate(286.110938 476.836563)scale(0.1 -0.1)">
      <use xlink:href="#DejaVuSans-49"/>
      <use x="63.623047" xlink:href="#DejaVuSans-45"/>
      <use x="99.707031" xlink:href="#DejaVuSans-112"/>
      <use x="163.183594" xlink:href="#DejaVuSans-114"/>
      <use x="202.046875" xlink:href="#DejaVuSans-101"/>
      <use x="263.570312" xlink:href="#DejaVuSans-99"/>
      <use x="318.550781" xlink:href="#DejaVuSans-105"/>
      <use x="346.333984" xlink:href="#DejaVuSans-115"/>
      <use x="398.433594" xlink:href="#DejaVuSans-105"/>
      <use x="426.216797" xlink:href="#DejaVuSans-111"/>
      <use x="487.398438" xlink:href="#DejaVuSans-110"/>
     </g>
    </g>
   </g>
   <g id="matplotlib.axis_2">
    <g id="ytick_1">
     <g id="line2d_23">
      <path clip-path="url(#p7f8c826d6e)" d="M 76.5 448.56 
L 550.8 448.56 
" style="fill:none;stroke:#b0b0b0;stroke-linecap:square;stroke-width:0.8;"/>
     </g>
     <g id="line2d_24">
      <defs>
       <path d="M 0 0 
L -3.5 0 
" id="m575ecf431a" style="stroke:#000000;stroke-width:0.8;"/>
      </defs>
      <g>
       <use style="stroke:#000000;stroke-width:0.8;" x="76.5" xlink:href="#m575ecf431a" y="448.56"/>
      </g>
     </g>
     <g id="text_13">
      <!-- 0.0 -->
      <g transform="translate(53.596875 452.359219)scale(0.1 -0.1)">
       <use xlink:href="#DejaVuSans-48"/>
       <use x="63.623047" xlink:href="#DejaVuSans-46"/>
       <use x="95.410156" xlink:href="#DejaVuSans-48"/>
      </g>
     </g>
    </g>
    <g id="ytick_2">
     <g id="line2d_25">
      <path clip-path="url(#p7f8c826d6e)" d="M 76.5 409.752 
L 550.8 409.752 
" style="fill:none;stroke:#b0b0b0;stroke-linecap:square;stroke-width:0.8;"/>
     </g>
     <g id="line2d_26">
      <g>
       <use style="stroke:#000000;stroke-width:0.8;" x="76.5" xlink:href="#m575ecf431a" y="409.752"/>
      </g>
     </g>
     <g id="text_14">
      <!-- 0.1 -->
      <g transform="translate(53.596875 413.551219)scale(0.1 -0.1)">
       <use xlink:href="#DejaVuSans-48"/>
       <use x="63.623047" xlink:href="#DejaVuSans-46"/>
       <use x="95.410156" xlink:href="#DejaVuSans-49"/>
      </g>
     </g>
    </g>
    <g id="ytick_3">
     <g id="line2d_27">
      <path clip-path="url(#p7f8c826d6e)" d="M 76.5 370.944 
L 550.8 370.944 
" style="fill:none;stroke:#b0b0b0;stroke-linecap:square;stroke-width:0.8;"/>
     </g>
     <g id="line2d_28">
      <g>
       <use style="stroke:#000000;stroke-width:0.8;" x="76.5" xlink:href="#m575ecf431a" y="370.944"/>
      </g>
     </g>
     <g id="text_15">
      <!-- 0.2 -->
      <g transform="translate(53.596875 374.743219)scale(0.1 -0.1)">
       <use xlink:href="#DejaVuSans-48"/>
       <use x="63.623047" xlink:href="#DejaVuSans-46"/>
       <use x="95.410156" xlink:href="#DejaVuSans-50"/>
      </g>
     </g>
    </g>
    <g id="ytick_4">
     <g id="line2d_29">
      <path clip-path="url(#p7f8c826d6e)" d="M 76.5 332.136 
L 550.8 332.136 
" style="fill:none;stroke:#b0b0b0;stroke-linecap:square;stroke-width:0.8;"/>
     </g>
     <g id="line2d_30">
      <g>
       <use style="stroke:#000000;stroke-width:0.8;" x="76.5" xlink:href="#m575ecf431a" y="332.136"/>
      </g>
     </g>
     <g id="text_16">
      <!-- 0.3 -->
      <g transform="translate(53.596875 335.935219)scale(0.1 -0.1)">
       <use xlink:href="#DejaVuSans-48"/>
       <use x="63.623047" xlink:href="#DejaVuSans-46"/>
       <use x="95.410156" xlink:href="#DejaVuSans-51"/>
      </g>
     </g>
    </g>
    <g id="ytick_5">
     <g id="line2d_31">
      <path clip-path="url(#p7f8c826d6e)" d="M 76.5 293.328 
L 550.8 293.328 
" style="fill:none;stroke:#b0b0b0;stroke-linecap:square;stroke-width:0.8;"/>
     </g>
     <g id="line2d_32">
      <g>
       <use style="stroke:#000000;stroke-width:0.8;" x="76.5" xlink:href="#m575ecf431a" y="293.328"/>
      </g>
     </g>
     <g id="text_17">
      <!-- 0.4 -->
      <g transform="translate(53.596875 297.127219)scale(0.1 -0.1)">
       <use xlink:href="#DejaVuSans-48"/>
       <use x="63.623047" xlink:href="#DejaVuSans-46"/>
       <use x="95.410156" xlink:href="#DejaVuSans-52"/>
      </g>
     </g>
    </g>
    <g id="ytick_6">
     <g id="line2d_33">
      <path clip-path="url(#p7f8c826d6e)" d="M 76.5 254.52 
L 550.8 254.52 
" style="fill:none;stroke:#b0b0b0;stroke-linecap:square;stroke-width:0.8;"/>
     </g>
     <g id="line2d_34">
      <g>
       <use style="stroke:#000000;stroke-width:0.8;" x="76.5" xlink:href="#m575ecf431a" y="254.52"/>
      </g>
     </g>
     <g id="text_18">
      <!-- 0.5 -->
      <g transform="translate(53.596875 258.319219)scale(0.1 -0.1)">
       <use xlink:href="#DejaVuSans-48"/>
       <use x="63.623047" xlink:href="#DejaVuSans-46"/>
       <use x="95.410156" xlink:href="#DejaVuSans-53"/>
      </g>
     </g>
    </g>
    <g id="ytick_7">
     <g id="line2d_35">
      <path clip-path="url(#p7f8c826d6e)" d="M 76.5 215.712 
L 550.8 215.712 
" style="fill:none;stroke:#b0b0b0;stroke-linecap:square;stroke-width:0.8;"/>
     </g>
     <g id="line2d_36">
      <g>
       <use style="stroke:#000000;stroke-width:0.8;" x="76.5" xlink:href="#m575ecf431a" y="215.712"/>
      </g>
     </g>
     <g id="text_19">
      <!-- 0.6 -->
      <g transform="translate(53.596875 219.511219)scale(0.1 -0.1)">
       <use xlink:href="#DejaVuSans-48"/>
       <use x="63.623047" xlink:href="#DejaVuSans-46"/>
       <use x="95.410156" xlink:href="#DejaVuSans-54"/>
      </g>
     </g>
    </g>
    <g id="ytick_8">
     <g id="line2d_37">
      <path clip-path="url(#p7f8c826d6e)" d="M 76.5 176.904 
L 550.8 176.904 
" style="fill:none;stroke:#b0b0b0;stroke-linecap:square;stroke-width:0.8;"/>
     </g>
     <g id="line2d_38">
      <g>
       <use style="stroke:#000000;stroke-width:0.8;" x="76.5" xlink:href="#m575ecf431a" y="176.904"/>
      </g>
     </g>
     <g id="text_20">
      <!-- 0.7 -->
      <g transform="translate(53.596875 180.703219)scale(0.1 -0.1)">
       <use xlink:href="#DejaVuSans-48"/>
       <use x="63.623047" xlink:href="#DejaVuSans-46"/>
       <use x="95.410156" xlink:href="#DejaVuSans-55"/>
      </g>
     </g>
    </g>
    <g id="ytick_9">
     <g id="line2d_39">
      <path clip-path="url(#p7f8c826d6e)" d="M 76.5 138.096 
L 550.8 138.096 
" style="fill:none;stroke:#b0b0b0;stroke-linecap:square;stroke-width:0.8;"/>
     </g>
     <g id="line2d_40">
      <g>
       <use style="stroke:#000000;stroke-width:0.8;" x="76.5" xlink:href="#m575ecf431a" y="138.096"/>
      </g>
     </g>
     <g id="text_21">
      <!-- 0.8 -->
      <g transform="translate(53.596875 141.895219)scale(0.1 -0.1)">
       <use xlink:href="#DejaVuSans-48"/>
       <use x="63.623047" xlink:href="#DejaVuSans-46"/>
       <use x="95.410156" xlink:href="#DejaVuSans-56"/>
      </g>
     </g>
    </g>
    <g id="ytick_10">
     <g id="line2d_41">
      <path clip-path="url(#p7f8c826d6e)" d="M 76.5 99.288 
L 550.8 99.288 
" style="fill:none;stroke:#b0b0b0;stroke-linecap:square;stroke-width:0.8;"/>
     </g>
     <g id="line2d_42">
      <g>
       <use style="stroke:#000000;stroke-width:0.8;" x="76.5" xlink:href="#m575ecf431a" y="99.288"/>
      </g>
     </g>
     <g id="text_22">
      <!-- 0.9 -->
      <g transform="translate(53.596875 103.087219)scale(0.1 -0.1)">
       <use xlink:href="#DejaVuSans-48"/>
       <use x="63.623047" xlink:href="#DejaVuSans-46"/>
       <use x="95.410156" xlink:href="#DejaVuSans-57"/>
      </g>
     </g>
    </g>
    <g id="ytick_11">
     <g id="line2d_43">
      <path clip-path="url(#p7f8c826d6e)" d="M 76.5 60.48 
L 550.8 60.48 
" style="fill:none;stroke:#b0b0b0;stroke-linecap:square;stroke-width:0.8;"/>
     </g>
     <g id="line2d_44">
      <g>
       <use style="stroke:#000000;stroke-width:0.8;" x="76.5" xlink:href="#m575ecf431a" y="60.48"/>
      </g>
     </g>
     <g id="text_23">
      <!-- 1.0 -->
      <g transform="translate(53.596875 64.279219)scale(0.1 -0.1)">
       <use xlink:href="#DejaVuSans-49"/>
       <use x="63.623047" xlink:href="#DejaVuSans-46"/>
       <use x="95.410156" xlink:href="#DejaVuSans-48"/>
      </g>
     </g>
    </g>
    <g id="text_24">
     <!-- #correct/873 -->
     <defs>
      <path d="M 51.125 44 
L 36.921875 44 
L 32.8125 27.6875 
L 47.125 27.6875 
z
M 43.796875 71.78125 
L 38.71875 51.515625 
L 52.984375 51.515625 
L 58.109375 71.78125 
L 65.921875 71.78125 
L 60.890625 51.515625 
L 76.125 51.515625 
L 76.125 44 
L 58.984375 44 
L 54.984375 27.6875 
L 70.515625 27.6875 
L 70.515625 20.21875 
L 53.078125 20.21875 
L 48 0 
L 40.1875 0 
L 45.21875 20.21875 
L 30.90625 20.21875 
L 25.875 0 
L 18.015625 0 
L 23.09375 20.21875 
L 7.71875 20.21875 
L 7.71875 27.6875 
L 24.90625 27.6875 
L 29 44 
L 13.28125 44 
L 13.28125 51.515625 
L 30.90625 51.515625 
L 35.890625 71.78125 
z
" id="DejaVuSans-35"/>
      <path d="M 18.3125 70.21875 
L 18.3125 54.6875 
L 36.8125 54.6875 
L 36.8125 47.703125 
L 18.3125 47.703125 
L 18.3125 18.015625 
Q 18.3125 11.328125 20.140625 9.421875 
Q 21.96875 7.515625 27.59375 7.515625 
L 36.8125 7.515625 
L 36.8125 0 
L 27.59375 0 
Q 17.1875 0 13.234375 3.875 
Q 9.28125 7.765625 9.28125 18.015625 
L 9.28125 47.703125 
L 2.6875 47.703125 
L 2.6875 54.6875 
L 9.28125 54.6875 
L 9.28125 70.21875 
z
" id="DejaVuSans-116"/>
      <path d="M 25.390625 72.90625 
L 33.6875 72.90625 
L 8.296875 -9.28125 
L 0 -9.28125 
z
" id="DejaVuSans-47"/>
     </defs>
     <g transform="translate(47.517187 287.443438)rotate(-90)scale(0.1 -0.1)">
      <use xlink:href="#DejaVuSans-35"/>
      <use x="83.789062" xlink:href="#DejaVuSans-99"/>
      <use x="138.769531" xlink:href="#DejaVuSans-111"/>
      <use x="199.951172" xlink:href="#DejaVuSans-114"/>
      <use x="239.314453" xlink:href="#DejaVuSans-114"/>
      <use x="278.177734" xlink:href="#DejaVuSans-101"/>
      <use x="339.701172" xlink:href="#DejaVuSans-99"/>
      <use x="394.681641" xlink:href="#DejaVuSans-116"/>
      <use x="433.890625" xlink:href="#DejaVuSans-47"/>
      <use x="467.582031" xlink:href="#DejaVuSans-56"/>
      <use x="531.205078" xlink:href="#DejaVuSans-55"/>
      <use x="594.828125" xlink:href="#DejaVuSans-51"/>
     </g>
    </g>
   </g>
   <g id="line2d_45">
    <path clip-path="url(#p7f8c826d6e)" d="M 76.5 448.115464 
L 76.5 292.972371 
L 77.851282 292.972371 
L 77.751451 280.525361 
L 78.996316 280.525361 
L 78.932308 276.08 
L 82.534351 276.08 
L 82.214458 266.300206 
L 83.340865 266.300206 
L 83.275714 264.522062 
L 84.386223 264.522062 
L 84.367536 264.077526 
L 85.470213 264.077526 
L 85.365421 261.854845 
L 86.45035 261.854845 
L 86.028348 253.40866 
L 87.063474 253.40866 
L 86.279381 237.405361 
L 88.187064 237.405361 
L 88.068293 235.18268 
L 89.006897 235.18268 
L 88.856513 232.515464 
L 89.7804 232.515464 
L 89.622925 229.848247 
L 90.532544 229.848247 
L 90.181731 224.069278 
L 91.065835 224.069278 
L 90.818491 220.068454 
L 92.547744 220.068454 
L 92.022545 212.066804 
L 93.684783 212.066804 
L 93.289381 206.287835 
L 94.097703 206.287835 
L 93.381864 195.618969 
L 94.155838 195.618969 
L 93.63399 187.61732 
L 95.130442 187.61732 
L 94.86 183.616495 
L 96.326045 183.616495 
L 96.136624 180.949278 
L 96.859459 180.949278 
L 96.794929 180.060206 
L 97.513291 180.060206 
L 97.283099 176.948454 
L 97.991719 176.948454 
L 97.825116 174.725773 
L 99.225348 174.725773 
L 99.085714 172.947629 
L 99.778528 172.947629 
L 99.742879 172.503093 
L 100.432569 172.503093 
L 100.359604 171.614021 
L 101.045205 171.614021 
L 101.007903 171.169485 
L 101.69044 171.169485 
L 101.313901 166.724124 
L 101.984776 166.724124 
L 101.61 162.278763 
L 102.269604 162.278763 
L 102.081778 160.056082 
L 102.734934 160.056082 
L 102.545376 157.833402 
L 103.192208 157.833402 
L 103.153746 157.388866 
L 103.797842 157.388866 
L 103.719512 156.499794 
L 104.998712 156.499794 
L 104.876923 155.166186 
L 105.511238 155.166186 
L 105.470028 154.721649 
L 106.101702 154.721649 
L 106.017963 153.832577 
L 107.272638 153.832577 
L 107.229296 153.388041 
L 108.475281 153.388041 
L 108.252301 151.165361 
L 108.868663 151.165361 
L 108.689335 149.387216 
L 109.30083 149.387216 
L 109.255525 148.94268 
L 109.864552 148.94268 
L 109.681481 147.164536 
L 110.285753 147.164536 
L 110.193443 146.275464 
L 111.394005 146.275464 
L 111.111081 143.608247 
L 112.886406 143.608247 
L 112.74008 142.274639 
L 113.911364 142.274639 
L 113.712367 140.496495 
L 114.871751 140.496495 
L 114.719683 139.162887 
L 115.294987 139.162887 
L 115.192895 138.273814 
L 115.765309 138.273814 
L 115.611126 136.940206 
L 116.747389 136.940206 
L 116.694915 136.49567 
L 117.260156 136.49567 
L 117.207152 136.051134 
L 119.450841 136.051134 
L 119.395349 135.606598 
L 121.061004 135.606598 
L 120.946598 134.717526 
L 123.68801 134.717526 
L 123.567939 133.828454 
L 124.652284 133.828454 
L 124.591255 133.383918 
L 125.6689 133.383918 
L 125.606818 132.939381 
L 126.677834 132.939381 
L 126.551759 132.050309 
L 127.084065 132.050309 
L 126.957447 131.161237 
L 129.068742 131.161237 
L 128.938137 130.272165 
L 129.461538 130.272165 
L 129.395911 129.827629 
L 130.437701 129.827629 
L 130.172325 128.049485 
L 130.689066 128.049485 
L 130.622577 127.604948 
L 131.1375 127.604948 
L 131.070624 127.160412 
L 131.583741 127.160412 
L 131.516484 126.715876 
L 133.046715 126.715876 
L 132.909466 125.826804 
L 134.928261 125.826804 
L 134.577551 123.604124 
L 136.071172 123.604124 
L 136 123.159588 
L 136.988796 123.159588 
L 136.773278 121.825979 
L 137.754384 121.825979 
L 137.681893 121.381443 
L 138.170213 121.381443 
L 138.097403 120.936907 
L 138.58408 120.936907 
L 138.510954 120.492371 
L 139.479906 120.492371 
L 139.405986 120.047835 
L 141.328388 120.047835 
L 141.252742 119.603299 
L 141.73007 119.603299 
L 141.578372 118.714227 
L 143.943815 118.714227 
L 143.865935 118.269691 
L 146.201952 118.269691 
L 146.042268 117.380619 
L 146.505378 117.380619 
L 146.425371 116.936082 
L 146.886986 116.936082 
L 146.806727 116.491546 
L 147.266856 116.491546 
L 147.186348 116.04701 
L 148.102611 116.04701 
L 148.021429 115.602474 
L 150.291883 115.602474 
L 150.208784 115.157938 
L 151.108989 115.157938 
L 151.025253 114.713402 
L 151.920605 114.713402 
L 151.836242 114.268866 
L 152.726786 114.268866 
L 152.557016 113.379794 
L 153.442 113.379794 
L 153.356604 112.935258 
L 154.675553 112.935258 
L 154.589171 112.490722 
L 155.02649 112.490722 
L 154.939912 112.046186 
L 156.678046 112.046186 
L 156.590132 111.601649 
L 157.882623 111.601649 
L 157.793777 111.157113 
L 158.222356 111.157113 
L 158.133333 110.712577 
L 160.683117 110.712577 
L 160.592108 110.268041 
L 161.853556 110.268041 
L 161.761679 109.823505 
L 162.597422 109.823505 
L 162.505043 109.378969 
L 165.399681 109.378969 
L 165.305106 108.934433 
L 165.714772 108.934433 
L 165.525557 108.045361 
L 165.933686 108.045361 
L 165.839048 107.600825 
L 167.865158 107.600825 
L 167.769085 107.156289 
L 168.572928 107.156289 
L 168.476415 106.711753 
L 171.655821 106.711753 
L 171.557009 106.267216 
L 173.12575 106.267216 
L 173.02593 105.82268 
L 175.35308 105.82268 
L 175.049539 104.489072 
L 179.608696 104.489072 
L 179.504545 104.044536 
L 180.998692 104.044536 
L 180.893668 103.6 
L 182.7432 103.6 
L 182.637063 103.155464 
L 183.737151 103.155464 
L 183.523956 102.266392 
L 187.49646 102.266392 
L 187.387426 101.821856 
L 188.1 101.821856 
L 187.990695 101.37732 
L 189.406537 101.37732 
L 189.296491 100.932784 
L 190.350437 100.932784 
L 190.239903 100.488247 
L 190.938663 100.488247 
L 190.82788 100.043711 
L 193.937044 100.043711 
L 193.824449 99.599175 
L 194.166379 99.599175 
L 193.941396 98.710103 
L 200.964855 98.710103 
L 200.848315 98.265567 
L 202.803352 98.265567 
L 202.68586 97.821031 
L 207.791109 97.821031 
L 207.670879 97.376495 
L 208.610959 97.376495 
L 208.49042 96.931959 
L 212.503066 96.931959 
L 212.380541 96.487423 
L 216.29813 96.487423 
L 216.173754 96.042887 
L 217.360372 96.042887 
L 217.235607 95.598351 
L 218.413239 95.598351 
L 218.288095 95.153814 
L 220.906299 95.153814 
L 220.78007 94.709278 
L 222.216188 94.709278 
L 222.089478 94.264742 
L 223.512468 94.264742 
L 223.385294 93.820206 
L 223.66828 93.820206 
L 223.541192 93.37567 
L 224.386822 93.37567 
L 224.259552 92.931134 
L 227.321739 92.931134 
L 227.193271 92.486598 
L 232.347108 92.486598 
L 232.216583 92.042062 
L 234.6 92.042062 
L 234.468688 91.597526 
L 236.815746 91.597526 
L 236.68369 91.15299 
L 243.517808 91.15299 
L 243.383333 90.708454 
L 244.615958 90.708454 
L 244.48125 90.263918 
L 248.597787 90.263918 
L 248.461848 89.819381 
L 248.700474 89.819381 
L 248.564669 89.374845 
L 256.908589 89.374845 
L 256.770345 88.930309 
L 259.22804 88.930309 
L 259.089294 88.485773 
L 264.949554 88.485773 
L 264.809442 88.041237 
L 274.465733 88.041237 
L 274.323618 87.596701 
L 274.72 87.596701 
L 274.578009 87.152165 
L 276.347402 87.152165 
L 276.205263 86.707629 
L 286.723256 86.707629 
L 286.579563 86.263093 
L 294.464125 86.263093 
L 294.319682 85.818557 
L 306.309286 85.818557 
L 306.164205 85.374021 
L 306.626654 85.374021 
L 306.481738 84.929485 
L 326.276042 84.929485 
L 326.276042 84.929485 
" style="fill:none;stroke:#1f77b4;stroke-linecap:square;stroke-width:2;"/>
   </g>
   <g id="line2d_46">
    <path clip-path="url(#p7f8c826d6e)" d="M 76.5 448.115464 
L 76.5 388.992165 
L 80.013333 388.992165 
L 79.445963 377.434227 
L 79.036364 365.876289 
L 81.545745 365.876289 
L 81.266834 360.986392 
L 83.6145 360.986392 
L 83.11814 354.318351 
L 85.283333 354.318351 
L 85.202752 353.429278 
L 89.435455 353.429278 
L 89.376923 352.984742 
L 91.455405 352.984742 
L 90.56822 346.761237 
L 92.510127 346.761237 
L 91.861943 342.315876 
L 93.7125 342.315876 
L 93.24 339.204124 
L 95.027344 339.204124 
L 94.672414 336.981443 
L 96.413359 336.981443 
L 96.040449 334.758763 
L 97.737313 334.758763 
L 96.9 329.868866 
L 98.521071 329.868866 
L 97.121739 321.42268 
L 100.136213 321.42268 
L 99.302885 316.532784 
L 102.178662 316.532784 
L 101.386111 312.087423 
L 102.768923 312.087423 
L 102.370909 309.864742 
L 105.072289 309.864742 
L 104.565089 307.197526 
L 107.19 307.197526 
L 107.010526 306.308454 
L 108.304373 306.308454 
L 107.937752 304.530309 
L 109.210345 304.530309 
L 109.023429 303.641237 
L 110.282051 303.641237 
L 109.807584 301.418557 
L 111.042857 301.418557 
L 110.565746 299.195876 
L 112.984615 299.195876 
L 112.686376 297.862268 
L 113.876902 297.862268 
L 113.674865 296.973196 
L 114.8531 296.973196 
L 114.444 295.195052 
L 116.758886 295.195052 
L 116.128198 292.527835 
L 117.260156 292.527835 
L 115.826382 286.30433 
L 116.916541 286.30433 
L 116.8155 285.859794 
L 117.897756 285.859794 
L 117.794776 285.415258 
L 118.869231 285.415258 
L 118.66 284.526186 
L 119.724384 284.526186 
L 119.19854 282.303505 
L 120.246117 282.303505 
L 119.825481 280.525361 
L 120.858993 280.525361 
L 120.229787 277.858144 
L 121.245283 277.858144 
L 120.723776 275.635464 
L 122.71949 275.635464 
L 122.6125 275.190928 
L 125.565517 275.190928 
L 125.452982 274.746392 
L 128.359681 274.746392 
L 127.431544 271.190103 
L 128.376563 271.190103 
L 128.261024 270.745567 
L 129.2 270.745567 
L 128.735683 268.967423 
L 131.506346 268.967423 
L 131.386245 268.522887 
L 132.3 268.522887 
L 132.057918 267.633814 
L 136.550858 267.633814 
L 136.166738 266.300206 
L 137.048936 266.300206 
L 136.537975 264.522062 
L 137.410105 264.522062 
L 137.027824 263.188454 
L 138.751875 263.188454 
L 138.622453 262.743918 
L 142.021856 262.743918 
L 141.887037 262.299381 
L 144.395706 262.299381 
L 144.119145 261.410309 
L 144.945732 261.410309 
L 144.668623 260.521237 
L 145.489091 260.521237 
L 145.35 260.076701 
L 146.165795 260.076701 
L 146.025904 259.632165 
L 147.645 259.632165 
L 147.220676 258.298557 
L 148.021429 258.298557 
L 147.598225 256.964948 
L 150.754403 256.964948 
L 150.321012 255.63134 
L 151.098641 255.63134 
L 149.957553 252.075052 
L 151.484571 252.075052 
L 151.2 251.185979 
L 153.461887 251.185979 
L 153.028705 249.852371 
L 153.773596 249.852371 
L 153.341899 248.518763 
L 154.080669 248.518763 
L 153.936735 248.074227 
L 154.671667 248.074227 
L 154.527172 247.629691 
L 155.258303 247.629691 
L 154.96875 246.740619 
L 156.418681 246.740619 
L 156.272578 246.296082 
L 159.846196 246.296082 
L 159.395676 244.962474 
L 160.09964 244.962474 
L 159.949551 244.517938 
L 162.043393 244.517938 
L 161.890909 244.073402 
L 166.683803 244.073402 
L 166.525308 243.628866 
L 167.199474 243.628866 
L 167.04063 243.18433 
L 167.711538 243.18433 
L 167.552356 242.739794 
L 170.209185 242.739794 
L 170.047059 242.295258 
L 170.704663 242.295258 
L 170.542241 241.850722 
L 171.19673 241.850722 
L 171.034021 241.406186 
L 176.18339 241.406186 
L 175.846622 240.517113 
L 179.608696 240.517113 
L 179.436561 240.072577 
L 185.534483 240.072577 
L 185.355738 239.628041 
L 187.736482 239.628041 
L 187.55561 239.183505 
L 188.145292 239.183505 
L 187.964344 238.738969 
L 188.551456 238.738969 
L 188.370436 238.294433 
L 191.274519 238.294433 
L 190.907827 237.405361 
L 192.053981 237.405361 
L 191.87027 236.960825 
L 192.44 236.960825 
L 192.25626 236.516289 
L 195.075 236.516289 
L 194.888854 236.071753 
L 197.660748 236.071753 
L 197.284472 235.18268 
L 198.378947 235.18268 
L 198.190572 234.738144 
L 199.277196 234.738144 
L 199.088308 234.293608 
L 199.628571 234.293608 
L 199.439724 233.849072 
L 201.582165 233.849072 
L 201.391781 233.404536 
L 202.4522 233.404536 
L 202.261364 232.96 
L 205.91919 232.96 
L 205.725449 232.515464 
L 206.241256 232.515464 
L 206.047612 232.070928 
L 206.561401 232.070928 
L 206.367857 231.626392 
L 207.898667 231.626392 
L 207.70429 231.181856 
L 209.7225 231.181856 
L 209.526872 230.73732 
L 210.027273 230.73732 
L 209.831772 230.292784 
L 217.159169 230.292784 
L 216.95794 229.848247 
L 220.267989 229.848247 
L 220.064639 229.403711 
L 221.462113 229.403711 
L 221.258228 228.959175 
L 221.721067 228.959175 
L 221.517391 228.514639 
L 222.897067 228.514639 
L 222.692887 228.070103 
L 224.513176 228.070103 
L 224.308172 227.625567 
L 231.386585 227.625567 
L 231.176996 227.181031 
L 233.325 227.181031 
L 232.904558 226.291959 
L 233.33012 226.291959 
L 233.120455 225.847423 
L 233.544593 225.847423 
L 233.3352 225.402887 
L 235.437616 225.402887 
L 235.017701 224.513814 
L 236.264211 224.513814 
L 236.054271 224.069278 
L 237.290183 224.069278 
L 237.08 223.624742 
L 237.898044 223.624742 
L 237.687891 223.180206 
L 238.501169 223.180206 
L 238.291051 222.73567 
L 239.502326 222.73567 
L 239.082216 221.846598 
L 239.483398 221.846598 
L 239.273907 221.402062 
L 242.051847 221.402062 
L 241.841221 220.957526 
L 243.01597 220.957526 
L 242.80519 220.51299 
L 243.582955 220.51299 
L 243.372257 220.068454 
L 243.759446 220.068454 
L 243.549057 219.623918 
L 247.742308 219.623918 
L 247.530112 219.179381 
L 255.578287 219.179381 
L 255.36253 218.734845 
L 255.718051 218.734845 
L 255.502644 218.290309 
L 257.616945 218.290309 
L 257.401073 217.845773 
L 257.750357 217.845773 
L 257.534839 217.401237 
L 264.67935 217.401237 
L 264.461298 216.956701 
L 266.110714 216.956701 
L 265.89252 216.512165 
L 268.491448 216.512165 
L 268.272779 216.067629 
L 268.914886 216.067629 
L 268.696481 215.623093 
L 269.016327 215.623093 
L 268.798301 215.178557 
L 270.386149 215.178557 
L 270.168054 214.734021 
L 270.483371 214.734021 
L 270.265657 214.289485 
L 270.893953 214.289485 
L 270.67651 213.844948 
L 274.386755 213.844948 
L 274.168578 213.400412 
L 275.383205 213.400412 
L 275.165132 212.955876 
L 279.625243 212.955876 
L 279.187944 212.066804 
L 280.062232 212.066804 
L 279.844051 211.622268 
L 280.134154 211.622268 
L 279.916364 211.177732 
L 284.193474 211.177732 
L 283.975079 210.733196 
L 286.200938 210.733196 
L 285.764516 209.844124 
L 286.314953 209.844124 
L 286.097303 209.399588 
L 286.918511 209.399588 
L 286.701136 208.955052 
L 286.973684 208.955052 
L 286.756701 208.510515 
L 288.110769 208.510515 
L 287.893955 208.065979 
L 293.431595 208.065979 
L 292.997297 207.176907 
L 297.808939 207.176907 
L 297.591757 206.732371 
L 298.087757 206.732371 
L 297.870939 206.287835 
L 302.963471 206.287835 
L 302.098281 204.509691 
L 302.335592 204.509691 
L 302.120305 204.065155 
L 303.3 204.065155 
L 303.085024 203.620619 
L 304.949294 203.620619 
L 304.734586 203.176082 
L 305.65618 203.176082 
L 305.22785 202.28701 
L 309.95472 202.28701 
L 309.527539 201.397938 
L 313.008476 201.397938 
L 312.795405 200.953402 
L 313.436927 200.953402 
L 313.224237 200.508866 
L 314.918182 200.508866 
L 314.705877 200.06433 
L 315.1256 200.06433 
L 314.913677 199.619794 
L 315.748673 199.619794 
L 315.325972 198.730722 
L 318.60784 198.730722 
L 318.397128 198.286186 
L 320.40233 198.286186 
L 320.192069 197.841649 
L 322.163077 197.841649 
L 321.953288 197.397113 
L 323.313158 197.397113 
L 323.103817 196.952577 
L 323.489416 196.952577 
L 323.280457 196.508041 
L 324.429545 196.508041 
L 324.221026 196.063505 
L 325.735338 196.063505 
L 325.527295 195.618969 
L 328.129455 195.618969 
L 327.922012 195.174433 
L 331.537226 195.174433 
L 331.330551 194.729897 
L 332.568493 194.729897 
L 332.362319 194.285361 
L 336.672455 194.285361 
L 336.467271 193.840825 
L 341.097917 193.840825 
L 340.893909 193.396289 
L 343.767148 193.396289 
L 343.564058 192.951753 
L 343.878528 192.951753 
L 343.675815 192.507216 
L 344.613736 192.507216 
L 344.411538 192.06268 
L 345.64925 192.06268 
L 345.44764 191.618144 
L 351.1311 191.618144 
L 350.931223 191.173608 
L 351.22173 191.173608 
L 350.823004 190.284536 
L 355.083878 190.284536 
L 354.88616 189.84 
L 356.266808 189.84 
L 355.873047 188.950928 
L 359.771586 188.950928 
L 359.576361 188.506392 
L 361.144839 188.506392 
L 360.95041 188.061856 
L 361.33865 188.061856 
L 361.144619 187.61732 
L 363.18942 187.61732 
L 362.996364 187.172784 
L 370.523077 187.172784 
L 370.33314 186.728247 
L 370.449645 186.728247 
L 370.79826 186.728247 
L 370.608757 186.283711 
L 370.72471 186.283711 
L 374.358008 186.283711 
L 374.170321 185.839175 
L 374.281549 185.839175 
L 374.835593 185.839175 
L 374.571992 184.950103 
L 375.232022 184.950103 
L 374.859539 184.061031 
L 374.969159 184.061031 
L 376.704688 184.061031 
L 376.519605 183.616495 
L 376.626987 183.616495 
L 387.210417 183.616495 
L 387.210417 183.616495 
" style="fill:none;stroke:#ff7f0e;stroke-linecap:square;stroke-width:2;"/>
   </g>
   <g id="line2d_47">
    <path clip-path="url(#p7f8c826d6e)" d="M 76.5 448.115464 
L 76.5 323.200825 
L 78.175972 323.200825 
L 78.05 312.976495 
L 79.589902 312.976495 
L 79.257558 296.52866 
L 80.624348 296.52866 
L 80.387705 287.193402 
L 82.944293 287.193402 
L 82.675781 280.080825 
L 83.891688 280.080825 
L 83.741221 276.524536 
L 84.92665 276.524536 
L 84.905316 276.08 
L 86.081818 276.08 
L 85.621154 267.189278 
L 86.736691 267.189278 
L 86.520423 263.188454 
L 87.607728 263.188454 
L 86.855895 249.407835 
L 87.866667 249.407835 
L 87.792857 248.074227 
L 88.792873 248.074227 
L 88.713734 246.740619 
L 89.703212 246.740619 
L 89.345625 240.961649 
L 90.30499 240.961649 
L 89.701193 231.181856 
L 90.616071 231.181856 
L 90.588119 230.73732 
L 91.497628 230.73732 
L 91.264202 227.181031 
L 92.156505 227.181031 
L 91.571215 218.290309 
L 93.281564 218.290309 
L 92.825543 211.622268 
L 93.653707 211.622268 
L 93.5 209.399588 
L 94.318068 209.399588 
L 93.852439 202.731546 
L 94.64713 202.731546 
L 94.552941 201.397938 
L 95.340933 201.397938 
L 95.243814 200.06433 
L 96.025214 200.06433 
L 95.892164 198.286186 
L 96.665816 198.286186 
L 96.295492 193.396289 
L 97.053 193.396289 
L 96.916887 191.618144 
L 97.667107 191.618144 
L 97.562664 190.284536 
L 98.306897 190.284536 
L 98.235516 189.395464 
L 98.975 189.395464 
L 98.756796 186.728247 
L 99.487076 186.728247 
L 99.45 186.283711 
L 100.176812 186.283711 
L 100.062981 184.950103 
L 102.219617 184.950103 
L 102.178662 184.505567 
L 103.602857 184.505567 
L 103.389449 182.282887 
L 104.092925 182.282887 
L 104.006426 181.393814 
L 105.402656 181.393814 
L 105.357566 180.949278 
L 106.051402 180.949278 
L 106.005443 180.504742 
L 106.696118 180.504742 
L 106.509722 178.726598 
L 107.194299 178.726598 
L 107.1 177.837526 
L 107.780521 177.837526 
L 107.401364 174.281237 
L 108.740937 174.281237 
L 108.595489 172.947629 
L 109.259459 172.947629 
L 108.966964 170.280412 
L 110.278042 170.280412 
L 110.029308 168.057732 
L 110.6775 168.057732 
L 110.627313 167.613196 
L 111.272727 167.613196 
L 111.221816 167.16866 
L 113.144169 167.16866 
L 112.984615 165.835052 
L 113.61913 165.835052 
L 113.51185 164.945979 
L 114.142857 164.945979 
L 113.873209 162.723299 
L 115.121571 162.723299 
L 114.470646 157.388866 
L 115.082609 157.388866 
L 114.444 152.054433 
L 116.24217 152.054433 
L 115.917302 149.387216 
L 116.50898 149.387216 
L 116.131536 146.275464 
L 117.3 146.275464 
L 117.245235 145.830928 
L 117.826408 145.830928 
L 117.715909 144.941856 
L 118.294126 144.941856 
L 118.2384 144.49732 
L 119.38883 144.49732 
L 119.331873 144.052784 
L 119.904111 144.052784 
L 119.789286 143.163711 
L 120.926517 143.163711 
L 120.635387 140.941031 
L 121.198429 140.941031 
L 121.023598 139.607423 
L 121.583203 139.607423 
L 121.466104 138.718351 
L 122.022957 138.718351 
L 121.96399 138.273814 
L 123.624 138.273814 
L 123.502703 137.384742 
L 125.146154 137.384742 
L 125.021739 136.49567 
L 126.107908 136.49567 
L 125.6689 133.383918 
L 126.205682 133.383918 
L 126.080479 132.494845 
L 127.147613 132.494845 
L 126.581366 128.494021 
L 127.107692 128.494021 
L 127.044981 128.049485 
L 127.569431 128.049485 
L 127.443333 127.160412 
L 129.005535 127.160412 
L 128.941032 126.715876 
L 131.003912 126.715876 
L 130.937363 126.27134 
L 131.44939 126.27134 
L 131.315693 125.382268 
L 132.333859 125.382268 
L 132.131318 124.04866 
L 133.141375 124.04866 
L 133.005054 123.159588 
L 133.507212 123.159588 
L 133.302395 121.825979 
L 133.801794 121.825979 
L 133.528929 120.047835 
L 134.025089 120.047835 
L 133.95677 119.603299 
L 134.451246 119.603299 
L 134.382583 119.158763 
L 135.367021 119.158763 
L 135.297521 118.714227 
L 137.735915 118.714227 
L 137.664127 118.269691 
L 138.147892 118.269691 
L 138.075789 117.825155 
L 138.557944 117.825155 
L 138.269302 116.04701 
L 139.22645 116.04701 
L 139.153766 115.602474 
L 140.105549 115.602474 
L 139.958824 114.713402 
L 140.432143 114.713402 
L 140.358573 114.268866 
L 141.301033 114.268866 
L 141.152577 113.379794 
L 142.088914 113.379794 
L 142.014041 112.935258 
L 142.48016 112.935258 
L 142.18059 111.157113 
L 145.401689 111.157113 
L 145.324184 110.712577 
L 148.940468 110.712577 
L 148.77931 109.823505 
L 150.560133 109.823505 
L 150.478208 109.378969 
L 151.361921 109.378969 
L 151.197026 108.489897 
L 152.075275 108.489897 
L 151.992316 108.045361 
L 153.301313 108.045361 
L 153.133624 107.156289 
L 154 107.156289 
L 153.915669 106.711753 
L 154.777524 106.711753 
L 154.692625 106.267216 
L 155.55 106.267216 
L 155.464541 105.82268 
L 157.166738 105.82268 
L 156.993448 104.933608 
L 157.837621 104.933608 
L 157.663636 104.044536 
L 160.585032 104.044536 
L 160.495864 103.6 
L 161.733615 103.6 
L 161.643611 103.155464 
L 163.280442 103.155464 
L 163.189286 102.710928 
L 166.018561 102.710928 
L 165.925313 102.266392 
L 171.457392 102.266392 
L 171.36 101.821856 
L 171.74877 101.821856 
L 171.651279 101.37732 
L 172.425843 101.37732 
L 171.938415 99.154639 
L 172.706897 99.154639 
L 172.609422 98.710103 
L 173.374216 98.710103 
L 173.276364 98.265567 
L 174.416918 98.265567 
L 174.31841 97.821031 
L 174.696784 97.821031 
L 174.598193 97.376495 
L 177.967164 97.376495 
L 177.866302 96.931959 
L 178.236643 96.931959 
L 178.135714 96.487423 
L 178.505055 96.487423 
L 178.404059 96.042887 
L 179.873077 96.042887 
L 179.771232 95.598351 
L 180.136417 95.598351 
L 180.034513 95.153814 
L 182.209091 95.153814 
L 182.002829 94.264742 
L 183.079086 94.264742 
L 182.97551 93.820206 
L 183.68904 93.820206 
L 183.48151 92.931134 
L 184.191304 92.931134 
L 184.087355 92.486598 
L 187.593212 92.486598 
L 187.487106 92.042062 
L 187.833779 92.042062 
L 187.727645 91.597526 
L 189.792512 91.597526 
L 189.685227 91.15299 
L 190.026868 91.15299 
L 189.812465 90.263918 
L 190.153019 90.263918 
L 190.0459 89.819381 
L 191.063064 89.819381 
L 190.955493 89.374845 
L 195.624467 89.374845 
L 195.514167 88.930309 
L 198.77367 88.930309 
L 198.661595 88.485773 
L 208.085459 88.485773 
L 207.968182 88.041237 
L 209.791755 88.041237 
L 209.555841 87.152165 
L 211.358187 87.152165 
L 211.239578 86.707629 
L 213.317308 86.707629 
L 213.197817 86.263093 
L 214.665652 86.263093 
L 214.545613 85.818557 
L 215.128881 85.818557 
L 215.008752 85.374021 
L 219.033647 85.374021 
L 218.911719 84.929485 
L 221.447368 84.929485 
L 221.324427 84.484948 
L 232.396967 84.484948 
L 232.269287 84.040412 
L 233.568352 84.040412 
L 233.440342 83.595876 
L 237.020548 83.595876 
L 236.891304 83.15134 
L 240.142948 83.15134 
L 240.012659 82.706804 
L 246.789953 82.706804 
L 246.657432 82.262268 
L 251.776894 82.262268 
L 251.64289 81.817732 
L 252.32746 81.817732 
L 252.193445 81.373196 
L 255.12317 81.373196 
L 254.988462 80.92866 
L 263.44022 80.92866 
L 263.303367 80.484124 
L 268.875808 80.484124 
L 268.737805 80.039588 
L 275.453571 80.039588 
L 275.314346 79.595052 
L 287.3 79.595052 
L 287.158997 79.150515 
L 287.335227 79.150515 
L 287.194389 78.705979 
L 290.669743 78.705979 
L 290.528656 78.261443 
L 291.893119 78.261443 
L 291.752063 77.816907 
L 291.921597 77.816907 
L 291.780706 77.372371 
L 321.609896 77.372371 
L 321.609896 77.372371 
" style="fill:none;stroke:#2ca02c;stroke-linecap:square;stroke-width:2;"/>
   </g>
   <g id="patch_3">
    <path d="M 76.5 448.56 
L 76.5 60.48 
" style="fill:none;stroke:#000000;stroke-linecap:square;stroke-linejoin:miter;stroke-width:0.8;"/>
   </g>
   <g id="patch_4">
    <path d="M 550.8 448.56 
L 550.8 60.48 
" style="fill:none;stroke:#000000;stroke-linecap:square;stroke-linejoin:miter;stroke-width:0.8;"/>
   </g>
   <g id="patch_5">
    <path d="M 76.5 448.56 
L 550.8 448.56 
" style="fill:none;stroke:#000000;stroke-linecap:square;stroke-linejoin:miter;stroke-width:0.8;"/>
   </g>
   <g id="patch_6">
    <path d="M 76.5 60.48 
L 550.8 60.48 
" style="fill:none;stroke:#000000;stroke-linecap:square;stroke-linejoin:miter;stroke-width:0.8;"/>
   </g>
   <g id="text_25">
    <!-- bikes: img1-img2 -->
    <defs>
     <path d="M 48.6875 27.296875 
Q 48.6875 37.203125 44.609375 42.84375 
Q 40.53125 48.484375 33.40625 48.484375 
Q 26.265625 48.484375 22.1875 42.84375 
Q 18.109375 37.203125 18.109375 27.296875 
Q 18.109375 17.390625 22.1875 11.75 
Q 26.265625 6.109375 33.40625 6.109375 
Q 40.53125 6.109375 44.609375 11.75 
Q 48.6875 17.390625 48.6875 27.296875 
z
M 18.109375 46.390625 
Q 20.953125 51.265625 25.265625 53.625 
Q 29.59375 56 35.59375 56 
Q 45.5625 56 51.78125 48.09375 
Q 58.015625 40.1875 58.015625 27.296875 
Q 58.015625 14.40625 51.78125 6.484375 
Q 45.5625 -1.421875 35.59375 -1.421875 
Q 29.59375 -1.421875 25.265625 0.953125 
Q 20.953125 3.328125 18.109375 8.203125 
L 18.109375 0 
L 9.078125 0 
L 9.078125 75.984375 
L 18.109375 75.984375 
z
" id="DejaVuSans-98"/>
     <path d="M 9.078125 75.984375 
L 18.109375 75.984375 
L 18.109375 31.109375 
L 44.921875 54.6875 
L 56.390625 54.6875 
L 27.390625 29.109375 
L 57.625 0 
L 45.90625 0 
L 18.109375 26.703125 
L 18.109375 0 
L 9.078125 0 
z
" id="DejaVuSans-107"/>
     <path d="M 11.71875 12.40625 
L 22.015625 12.40625 
L 22.015625 0 
L 11.71875 0 
z
M 11.71875 51.703125 
L 22.015625 51.703125 
L 22.015625 39.3125 
L 11.71875 39.3125 
z
" id="DejaVuSans-58"/>
     <path id="DejaVuSans-32"/>
     <path d="M 52 44.1875 
Q 55.375 50.25 60.0625 53.125 
Q 64.75 56 71.09375 56 
Q 79.640625 56 84.28125 50.015625 
Q 88.921875 44.046875 88.921875 33.015625 
L 88.921875 0 
L 79.890625 0 
L 79.890625 32.71875 
Q 79.890625 40.578125 77.09375 44.375 
Q 74.3125 48.1875 68.609375 48.1875 
Q 61.625 48.1875 57.5625 43.546875 
Q 53.515625 38.921875 53.515625 30.90625 
L 53.515625 0 
L 44.484375 0 
L 44.484375 32.71875 
Q 44.484375 40.625 41.703125 44.40625 
Q 38.921875 48.1875 33.109375 48.1875 
Q 26.21875 48.1875 22.15625 43.53125 
Q 18.109375 38.875 18.109375 30.90625 
L 18.109375 0 
L 9.078125 0 
L 9.078125 54.6875 
L 18.109375 54.6875 
L 18.109375 46.1875 
Q 21.1875 51.21875 25.484375 53.609375 
Q 29.78125 56 35.6875 56 
Q 41.65625 56 45.828125 52.96875 
Q 50 49.953125 52 44.1875 
z
" id="DejaVuSans-109"/>
     <path d="M 45.40625 27.984375 
Q 45.40625 37.75 41.375 43.109375 
Q 37.359375 48.484375 30.078125 48.484375 
Q 22.859375 48.484375 18.828125 43.109375 
Q 14.796875 37.75 14.796875 27.984375 
Q 14.796875 18.265625 18.828125 12.890625 
Q 22.859375 7.515625 30.078125 7.515625 
Q 37.359375 7.515625 41.375 12.890625 
Q 45.40625 18.265625 45.40625 27.984375 
z
M 54.390625 6.78125 
Q 54.390625 -7.171875 48.1875 -13.984375 
Q 42 -20.796875 29.203125 -20.796875 
Q 24.46875 -20.796875 20.265625 -20.09375 
Q 16.0625 -19.390625 12.109375 -17.921875 
L 12.109375 -9.1875 
Q 16.0625 -11.328125 19.921875 -12.34375 
Q 23.78125 -13.375 27.78125 -13.375 
Q 36.625 -13.375 41.015625 -8.765625 
Q 45.40625 -4.15625 45.40625 5.171875 
L 45.40625 9.625 
Q 42.625 4.78125 38.28125 2.390625 
Q 33.9375 0 27.875 0 
Q 17.828125 0 11.671875 7.65625 
Q 5.515625 15.328125 5.515625 27.984375 
Q 5.515625 40.671875 11.671875 48.328125 
Q 17.828125 56 27.875 56 
Q 33.9375 56 38.28125 53.609375 
Q 42.625 51.21875 45.40625 46.390625 
L 45.40625 54.6875 
L 54.390625 54.6875 
z
" id="DejaVuSans-103"/>
    </defs>
    <g transform="translate(261.73125 41.042625)scale(0.12 -0.12)">
     <use xlink:href="#DejaVuSans-98"/>
     <use x="63.476562" xlink:href="#DejaVuSans-105"/>
     <use x="91.259766" xlink:href="#DejaVuSans-107"/>
     <use x="145.544922" xlink:href="#DejaVuSans-101"/>
     <use x="207.068359" xlink:href="#DejaVuSans-115"/>
     <use x="259.167969" xlink:href="#DejaVuSans-58"/>
     <use x="292.859375" xlink:href="#DejaVuSans-32"/>
     <use x="324.646484" xlink:href="#DejaVuSans-105"/>
     <use x="352.429688" xlink:href="#DejaVuSans-109"/>
     <use x="449.841797" xlink:href="#DejaVuSans-103"/>
     <use x="513.318359" xlink:href="#DejaVuSans-49"/>
     <use x="576.941406" xlink:href="#DejaVuSans-45"/>
     <use x="613.025391" xlink:href="#DejaVuSans-105"/>
     <use x="640.808594" xlink:href="#DejaVuSans-109"/>
     <use x="738.220703" xlink:href="#DejaVuSans-103"/>
     <use x="801.697266" xlink:href="#DejaVuSans-50"/>
    </g>
    <!-- NearestNeighbours -->
    <defs>
     <path d="M 9.8125 72.90625 
L 23.09375 72.90625 
L 55.421875 11.921875 
L 55.421875 72.90625 
L 64.984375 72.90625 
L 64.984375 0 
L 51.703125 0 
L 19.390625 60.984375 
L 19.390625 0 
L 9.8125 0 
z
" id="DejaVuSans-78"/>
     <path d="M 34.28125 27.484375 
Q 23.390625 27.484375 19.1875 25 
Q 14.984375 22.515625 14.984375 16.5 
Q 14.984375 11.71875 18.140625 8.90625 
Q 21.296875 6.109375 26.703125 6.109375 
Q 34.1875 6.109375 38.703125 11.40625 
Q 43.21875 16.703125 43.21875 25.484375 
L 43.21875 27.484375 
z
M 52.203125 31.203125 
L 52.203125 0 
L 43.21875 0 
L 43.21875 8.296875 
Q 40.140625 3.328125 35.546875 0.953125 
Q 30.953125 -1.421875 24.3125 -1.421875 
Q 15.921875 -1.421875 10.953125 3.296875 
Q 6 8.015625 6 15.921875 
Q 6 25.140625 12.171875 29.828125 
Q 18.359375 34.515625 30.609375 34.515625 
L 43.21875 34.515625 
L 43.21875 35.40625 
Q 43.21875 41.609375 39.140625 45 
Q 35.0625 48.390625 27.6875 48.390625 
Q 23 48.390625 18.546875 47.265625 
Q 14.109375 46.140625 10.015625 43.890625 
L 10.015625 52.203125 
Q 14.9375 54.109375 19.578125 55.046875 
Q 24.21875 56 28.609375 56 
Q 40.484375 56 46.34375 49.84375 
Q 52.203125 43.703125 52.203125 31.203125 
z
" id="DejaVuSans-97"/>
     <path d="M 54.890625 33.015625 
L 54.890625 0 
L 45.90625 0 
L 45.90625 32.71875 
Q 45.90625 40.484375 42.875 44.328125 
Q 39.84375 48.1875 33.796875 48.1875 
Q 26.515625 48.1875 22.3125 43.546875 
Q 18.109375 38.921875 18.109375 30.90625 
L 18.109375 0 
L 9.078125 0 
L 9.078125 75.984375 
L 18.109375 75.984375 
L 18.109375 46.1875 
Q 21.34375 51.125 25.703125 53.5625 
Q 30.078125 56 35.796875 56 
Q 45.21875 56 50.046875 50.171875 
Q 54.890625 44.34375 54.890625 33.015625 
z
" id="DejaVuSans-104"/>
     <path d="M 8.5 21.578125 
L 8.5 54.6875 
L 17.484375 54.6875 
L 17.484375 21.921875 
Q 17.484375 14.15625 20.5 10.265625 
Q 23.53125 6.390625 29.59375 6.390625 
Q 36.859375 6.390625 41.078125 11.03125 
Q 45.3125 15.671875 45.3125 23.6875 
L 45.3125 54.6875 
L 54.296875 54.6875 
L 54.296875 0 
L 45.3125 0 
L 45.3125 8.40625 
Q 42.046875 3.421875 37.71875 1 
Q 33.40625 -1.421875 27.6875 -1.421875 
Q 18.265625 -1.421875 13.375 4.4375 
Q 8.5 10.296875 8.5 21.578125 
z
M 31.109375 56 
z
" id="DejaVuSans-117"/>
    </defs>
    <g transform="translate(255.957188 54.48)scale(0.12 -0.12)">
     <use xlink:href="#DejaVuSans-78"/>
     <use x="74.804688" xlink:href="#DejaVuSans-101"/>
     <use x="136.328125" xlink:href="#DejaVuSans-97"/>
     <use x="197.607422" xlink:href="#DejaVuSans-114"/>
     <use x="236.470703" xlink:href="#DejaVuSans-101"/>
     <use x="297.994141" xlink:href="#DejaVuSans-115"/>
     <use x="350.09375" xlink:href="#DejaVuSans-116"/>
     <use x="389.302734" xlink:href="#DejaVuSans-78"/>
     <use x="464.107422" xlink:href="#DejaVuSans-101"/>
     <use x="525.630859" xlink:href="#DejaVuSans-105"/>
     <use x="553.414062" xlink:href="#DejaVuSans-103"/>
     <use x="616.890625" xlink:href="#DejaVuSans-104"/>
     <use x="680.269531" xlink:href="#DejaVuSans-98"/>
     <use x="743.746094" xlink:href="#DejaVuSans-111"/>
     <use x="804.927734" xlink:href="#DejaVuSans-117"/>
     <use x="868.306641" xlink:href="#DejaVuSans-114"/>
     <use x="909.419922" xlink:href="#DejaVuSans-115"/>
    </g>
   </g>
   <g id="legend_1">
    <g id="patch_7">
     <path d="M 362.659375 112.514375 
L 543.8 112.514375 
Q 545.8 112.514375 545.8 110.514375 
L 545.8 67.48 
Q 545.8 65.48 543.8 65.48 
L 362.659375 65.48 
Q 360.659375 65.48 360.659375 67.48 
L 360.659375 110.514375 
Q 360.659375 112.514375 362.659375 112.514375 
z
" style="fill:#ffffff;opacity:0.8;stroke:#cccccc;stroke-linejoin:miter;"/>
    </g>
    <g id="line2d_48">
     <path d="M 364.659375 73.578438 
L 384.659375 73.578438 
" style="fill:none;stroke:#1f77b4;stroke-linecap:square;stroke-width:2;"/>
    </g>
    <g id="line2d_49"/>
    <g id="text_26">
     <!-- root-cvsift AP: 89.4, %In: 47.3 -->
     <defs>
      <path d="M 2.984375 54.6875 
L 12.5 54.6875 
L 29.59375 8.796875 
L 46.6875 54.6875 
L 56.203125 54.6875 
L 35.6875 0 
L 23.484375 0 
z
" id="DejaVuSans-118"/>
      <path d="M 37.109375 75.984375 
L 37.109375 68.5 
L 28.515625 68.5 
Q 23.6875 68.5 21.796875 66.546875 
Q 19.921875 64.59375 19.921875 59.515625 
L 19.921875 54.6875 
L 34.71875 54.6875 
L 34.71875 47.703125 
L 19.921875 47.703125 
L 19.921875 0 
L 10.890625 0 
L 10.890625 47.703125 
L 2.296875 47.703125 
L 2.296875 54.6875 
L 10.890625 54.6875 
L 10.890625 58.5 
Q 10.890625 67.625 15.140625 71.796875 
Q 19.390625 75.984375 28.609375 75.984375 
z
" id="DejaVuSans-102"/>
      <path d="M 34.1875 63.1875 
L 20.796875 26.90625 
L 47.609375 26.90625 
z
M 28.609375 72.90625 
L 39.796875 72.90625 
L 67.578125 0 
L 57.328125 0 
L 50.6875 18.703125 
L 17.828125 18.703125 
L 11.1875 0 
L 0.78125 0 
z
" id="DejaVuSans-65"/>
      <path d="M 19.671875 64.796875 
L 19.671875 37.40625 
L 32.078125 37.40625 
Q 38.96875 37.40625 42.71875 40.96875 
Q 46.484375 44.53125 46.484375 51.125 
Q 46.484375 57.671875 42.71875 61.234375 
Q 38.96875 64.796875 32.078125 64.796875 
z
M 9.8125 72.90625 
L 32.078125 72.90625 
Q 44.34375 72.90625 50.609375 67.359375 
Q 56.890625 61.8125 56.890625 51.125 
Q 56.890625 40.328125 50.609375 34.8125 
Q 44.34375 29.296875 32.078125 29.296875 
L 19.671875 29.296875 
L 19.671875 0 
L 9.8125 0 
z
" id="DejaVuSans-80"/>
      <path d="M 11.71875 12.40625 
L 22.015625 12.40625 
L 22.015625 4 
L 14.015625 -11.625 
L 7.71875 -11.625 
L 11.71875 4 
z
" id="DejaVuSans-44"/>
      <path d="M 72.703125 32.078125 
Q 68.453125 32.078125 66.03125 28.46875 
Q 63.625 24.859375 63.625 18.40625 
Q 63.625 12.0625 66.03125 8.421875 
Q 68.453125 4.78125 72.703125 4.78125 
Q 76.859375 4.78125 79.265625 8.421875 
Q 81.6875 12.0625 81.6875 18.40625 
Q 81.6875 24.8125 79.265625 28.4375 
Q 76.859375 32.078125 72.703125 32.078125 
z
M 72.703125 38.28125 
Q 80.421875 38.28125 84.953125 32.90625 
Q 89.5 27.546875 89.5 18.40625 
Q 89.5 9.28125 84.9375 3.921875 
Q 80.375 -1.421875 72.703125 -1.421875 
Q 64.890625 -1.421875 60.34375 3.921875 
Q 55.8125 9.28125 55.8125 18.40625 
Q 55.8125 27.59375 60.375 32.9375 
Q 64.9375 38.28125 72.703125 38.28125 
z
M 22.3125 68.015625 
Q 18.109375 68.015625 15.6875 64.375 
Q 13.28125 60.75 13.28125 54.390625 
Q 13.28125 47.953125 15.671875 44.328125 
Q 18.0625 40.71875 22.3125 40.71875 
Q 26.5625 40.71875 28.96875 44.328125 
Q 31.390625 47.953125 31.390625 54.390625 
Q 31.390625 60.6875 28.953125 64.34375 
Q 26.515625 68.015625 22.3125 68.015625 
z
M 66.40625 74.21875 
L 74.21875 74.21875 
L 28.609375 -1.421875 
L 20.796875 -1.421875 
z
M 22.3125 74.21875 
Q 30.03125 74.21875 34.609375 68.875 
Q 39.203125 63.53125 39.203125 54.390625 
Q 39.203125 45.171875 34.640625 39.84375 
Q 30.078125 34.515625 22.3125 34.515625 
Q 14.546875 34.515625 10.03125 39.859375 
Q 5.515625 45.21875 5.515625 54.390625 
Q 5.515625 63.484375 10.046875 68.84375 
Q 14.59375 74.21875 22.3125 74.21875 
z
" id="DejaVuSans-37"/>
      <path d="M 9.8125 72.90625 
L 19.671875 72.90625 
L 19.671875 0 
L 9.8125 0 
z
" id="DejaVuSans-73"/>
     </defs>
     <g transform="translate(392.659375 77.078438)scale(0.1 -0.1)">
      <use xlink:href="#DejaVuSans-114"/>
      <use x="38.863281" xlink:href="#DejaVuSans-111"/>
      <use x="100.044922" xlink:href="#DejaVuSans-111"/>
      <use x="161.226562" xlink:href="#DejaVuSans-116"/>
      <use x="200.435547" xlink:href="#DejaVuSans-45"/>
      <use x="236.519531" xlink:href="#DejaVuSans-99"/>
      <use x="291.5" xlink:href="#DejaVuSans-118"/>
      <use x="350.679688" xlink:href="#DejaVuSans-115"/>
      <use x="402.779297" xlink:href="#DejaVuSans-105"/>
      <use x="430.5625" xlink:href="#DejaVuSans-102"/>
      <use x="464.017578" xlink:href="#DejaVuSans-116"/>
      <use x="503.226562" xlink:href="#DejaVuSans-32"/>
      <use x="535.013672" xlink:href="#DejaVuSans-65"/>
      <use x="603.421875" xlink:href="#DejaVuSans-80"/>
      <use x="663.724609" xlink:href="#DejaVuSans-58"/>
      <use x="697.416016" xlink:href="#DejaVuSans-32"/>
      <use x="729.203125" xlink:href="#DejaVuSans-56"/>
      <use x="792.826172" xlink:href="#DejaVuSans-57"/>
      <use x="856.449219" xlink:href="#DejaVuSans-46"/>
      <use x="888.236328" xlink:href="#DejaVuSans-52"/>
      <use x="951.859375" xlink:href="#DejaVuSans-44"/>
      <use x="983.646484" xlink:href="#DejaVuSans-32"/>
      <use x="1015.433594" xlink:href="#DejaVuSans-37"/>
      <use x="1110.453125" xlink:href="#DejaVuSans-73"/>
      <use x="1139.945312" xlink:href="#DejaVuSans-110"/>
      <use x="1203.324219" xlink:href="#DejaVuSans-58"/>
      <use x="1237.015625" xlink:href="#DejaVuSans-32"/>
      <use x="1268.802734" xlink:href="#DejaVuSans-52"/>
      <use x="1332.425781" xlink:href="#DejaVuSans-55"/>
      <use x="1396.048828" xlink:href="#DejaVuSans-46"/>
      <use x="1427.835938" xlink:href="#DejaVuSans-51"/>
     </g>
    </g>
    <g id="line2d_50">
     <path d="M 364.659375 88.256563 
L 384.659375 88.256563 
" style="fill:none;stroke:#ff7f0e;stroke-linecap:square;stroke-width:2;"/>
    </g>
    <g id="line2d_51"/>
    <g id="text_27">
     <!-- tfeat AP: 59.4, %In: 34.5 -->
     <g transform="translate(392.659375 91.756563)scale(0.1 -0.1)">
      <use xlink:href="#DejaVuSans-116"/>
      <use x="39.208984" xlink:href="#DejaVuSans-102"/>
      <use x="74.414062" xlink:href="#DejaVuSans-101"/>
      <use x="135.9375" xlink:href="#DejaVuSans-97"/>
      <use x="197.216797" xlink:href="#DejaVuSans-116"/>
      <use x="236.425781" xlink:href="#DejaVuSans-32"/>
      <use x="268.212891" xlink:href="#DejaVuSans-65"/>
      <use x="336.621094" xlink:href="#DejaVuSans-80"/>
      <use x="396.923828" xlink:href="#DejaVuSans-58"/>
      <use x="430.615234" xlink:href="#DejaVuSans-32"/>
      <use x="462.402344" xlink:href="#DejaVuSans-53"/>
      <use x="526.025391" xlink:href="#DejaVuSans-57"/>
      <use x="589.648438" xlink:href="#DejaVuSans-46"/>
      <use x="621.435547" xlink:href="#DejaVuSans-52"/>
      <use x="685.058594" xlink:href="#DejaVuSans-44"/>
      <use x="716.845703" xlink:href="#DejaVuSans-32"/>
      <use x="748.632812" xlink:href="#DejaVuSans-37"/>
      <use x="843.652344" xlink:href="#DejaVuSans-73"/>
      <use x="873.144531" xlink:href="#DejaVuSans-110"/>
      <use x="936.523438" xlink:href="#DejaVuSans-58"/>
      <use x="970.214844" xlink:href="#DejaVuSans-32"/>
      <use x="1002.001953" xlink:href="#DejaVuSans-51"/>
      <use x="1065.625" xlink:href="#DejaVuSans-52"/>
      <use x="1129.248047" xlink:href="#DejaVuSans-46"/>
      <use x="1161.035156" xlink:href="#DejaVuSans-53"/>
     </g>
    </g>
    <g id="line2d_52">
     <path d="M 364.659375 102.934687 
L 384.659375 102.934687 
" style="fill:none;stroke:#2ca02c;stroke-linecap:square;stroke-width:2;"/>
    </g>
    <g id="line2d_53"/>
    <g id="text_28">
     <!-- hardnet AP: 90.8, %In: 48.3 -->
     <defs>
      <path d="M 45.40625 46.390625 
L 45.40625 75.984375 
L 54.390625 75.984375 
L 54.390625 0 
L 45.40625 0 
L 45.40625 8.203125 
Q 42.578125 3.328125 38.25 0.953125 
Q 33.9375 -1.421875 27.875 -1.421875 
Q 17.96875 -1.421875 11.734375 6.484375 
Q 5.515625 14.40625 5.515625 27.296875 
Q 5.515625 40.1875 11.734375 48.09375 
Q 17.96875 56 27.875 56 
Q 33.9375 56 38.25 53.625 
Q 42.578125 51.265625 45.40625 46.390625 
z
M 14.796875 27.296875 
Q 14.796875 17.390625 18.875 11.75 
Q 22.953125 6.109375 30.078125 6.109375 
Q 37.203125 6.109375 41.296875 11.75 
Q 45.40625 17.390625 45.40625 27.296875 
Q 45.40625 37.203125 41.296875 42.84375 
Q 37.203125 48.484375 30.078125 48.484375 
Q 22.953125 48.484375 18.875 42.84375 
Q 14.796875 37.203125 14.796875 27.296875 
z
" id="DejaVuSans-100"/>
     </defs>
     <g transform="translate(392.659375 106.434687)scale(0.1 -0.1)">
      <use xlink:href="#DejaVuSans-104"/>
      <use x="63.378906" xlink:href="#DejaVuSans-97"/>
      <use x="124.658203" xlink:href="#DejaVuSans-114"/>
      <use x="164.021484" xlink:href="#DejaVuSans-100"/>
      <use x="227.498047" xlink:href="#DejaVuSans-110"/>
      <use x="290.876953" xlink:href="#DejaVuSans-101"/>
      <use x="352.400391" xlink:href="#DejaVuSans-116"/>
      <use x="391.609375" xlink:href="#DejaVuSans-32"/>
      <use x="423.396484" xlink:href="#DejaVuSans-65"/>
      <use x="491.804688" xlink:href="#DejaVuSans-80"/>
      <use x="552.107422" xlink:href="#DejaVuSans-58"/>
      <use x="585.798828" xlink:href="#DejaVuSans-32"/>
      <use x="617.585938" xlink:href="#DejaVuSans-57"/>
      <use x="681.208984" xlink:href="#DejaVuSans-48"/>
      <use x="744.832031" xlink:href="#DejaVuSans-46"/>
      <use x="776.619141" xlink:href="#DejaVuSans-56"/>
      <use x="840.242188" xlink:href="#DejaVuSans-44"/>
      <use x="872.029297" xlink:href="#DejaVuSans-32"/>
      <use x="903.816406" xlink:href="#DejaVuSans-37"/>
      <use x="998.835938" xlink:href="#DejaVuSans-73"/>
      <use x="1028.328125" xlink:href="#DejaVuSans-110"/>
      <use x="1091.707031" xlink:href="#DejaVuSans-58"/>
      <use x="1125.398438" xlink:href="#DejaVuSans-32"/>
      <use x="1157.185547" xlink:href="#DejaVuSans-52"/>
      <use x="1220.808594" xlink:href="#DejaVuSans-56"/>
      <use x="1284.431641" xlink:href="#DejaVuSans-46"/>
      <use x="1316.21875" xlink:href="#DejaVuSans-51"/>
     </g>
    </g>
   </g>
  </g>
 </g>
 <defs>
  <clipPath id="p7f8c826d6e">
   <rect height="388.08" width="474.3" x="76.5" y="60.48"/>
  </clipPath>
 </defs>
</svg>
