<?xml version="1.0" encoding="utf-8" standalone="no"?>
<!DOCTYPE svg PUBLIC "-//W3C//DTD SVG 1.1//EN"
  "http://www.w3.org/Graphics/SVG/1.1/DTD/svg11.dtd">
<!-- Created with matplotlib (https://matplotlib.org/) -->
<svg height="504pt" version="1.1" viewBox="0 0 612 504" width="612pt" xmlns="http://www.w3.org/2000/svg" xmlns:xlink="http://www.w3.org/1999/xlink">
 <defs>
  <style type="text/css">
*{stroke-linecap:butt;stroke-linejoin:round;}
  </style>
 </defs>
 <g id="figure_1">
  <g id="patch_1">
   <path d="M 0 504 
L 612 504 
L 612 0 
L 0 0 
z
" style="fill:#ffffff;"/>
  </g>
  <g id="axes_1">
   <g id="patch_2">
    <path d="M 76.5 448.56 
L 550.8 448.56 
L 550.8 60.48 
L 76.5 60.48 
z
" style="fill:#ffffff;"/>
   </g>
   <g id="matplotlib.axis_1">
    <g id="xtick_1">
     <g id="line2d_1">
      <path clip-path="url(#p9c50f8f3d5)" d="M 76.5 448.56 
L 76.5 60.48 
" style="fill:none;stroke:#b0b0b0;stroke-linecap:square;stroke-width:0.8;"/>
     </g>
     <g id="line2d_2">
      <defs>
       <path d="M 0 0 
L 0 3.5 
" id="m3daadf26ab" style="stroke:#000000;stroke-width:0.8;"/>
      </defs>
      <g>
       <use style="stroke:#000000;stroke-width:0.8;" x="76.5" xlink:href="#m3daadf26ab" y="448.56"/>
      </g>
     </g>
     <g id="text_1">
      <!-- 0.0 -->
      <defs>
       <path d="M 31.78125 66.40625 
Q 24.171875 66.40625 20.328125 58.90625 
Q 16.5 51.421875 16.5 36.375 
Q 16.5 21.390625 20.328125 13.890625 
Q 24.171875 6.390625 31.78125 6.390625 
Q 39.453125 6.390625 43.28125 13.890625 
Q 47.125 21.390625 47.125 36.375 
Q 47.125 51.421875 43.28125 58.90625 
Q 39.453125 66.40625 31.78125 66.40625 
z
M 31.78125 74.21875 
Q 44.046875 74.21875 50.515625 64.515625 
Q 56.984375 54.828125 56.984375 36.375 
Q 56.984375 17.96875 50.515625 8.265625 
Q 44.046875 -1.421875 31.78125 -1.421875 
Q 19.53125 -1.421875 13.0625 8.265625 
Q 6.59375 17.96875 6.59375 36.375 
Q 6.59375 54.828125 13.0625 64.515625 
Q 19.53125 74.21875 31.78125 74.21875 
z
" id="DejaVuSans-48"/>
       <path d="M 10.6875 12.40625 
L 21 12.40625 
L 21 0 
L 10.6875 0 
z
" id="DejaVuSans-46"/>
      </defs>
      <g transform="translate(68.548438 463.158437)scale(0.1 -0.1)">
       <use xlink:href="#DejaVuSans-48"/>
       <use x="63.623047" xlink:href="#DejaVuSans-46"/>
       <use x="95.410156" xlink:href="#DejaVuSans-48"/>
      </g>
     </g>
    </g>
    <g id="xtick_2">
     <g id="line2d_3">
      <path clip-path="url(#p9c50f8f3d5)" d="M 123.93 448.56 
L 123.93 60.48 
" style="fill:none;stroke:#b0b0b0;stroke-linecap:square;stroke-width:0.8;"/>
     </g>
     <g id="line2d_4">
      <g>
       <use style="stroke:#000000;stroke-width:0.8;" x="123.93" xlink:href="#m3daadf26ab" y="448.56"/>
      </g>
     </g>
     <g id="text_2">
      <!-- 0.1 -->
      <defs>
       <path d="M 12.40625 8.296875 
L 28.515625 8.296875 
L 28.515625 63.921875 
L 10.984375 60.40625 
L 10.984375 69.390625 
L 28.421875 72.90625 
L 38.28125 72.90625 
L 38.28125 8.296875 
L 54.390625 8.296875 
L 54.390625 0 
L 12.40625 0 
z
" id="DejaVuSans-49"/>
      </defs>
      <g transform="translate(115.978438 463.158437)scale(0.1 -0.1)">
       <use xlink:href="#DejaVuSans-48"/>
       <use x="63.623047" xlink:href="#DejaVuSans-46"/>
       <use x="95.410156" xlink:href="#DejaVuSans-49"/>
      </g>
     </g>
    </g>
    <g id="xtick_3">
     <g id="line2d_5">
      <path clip-path="url(#p9c50f8f3d5)" d="M 171.36 448.56 
L 171.36 60.48 
" style="fill:none;stroke:#b0b0b0;stroke-linecap:square;stroke-width:0.8;"/>
     </g>
     <g id="line2d_6">
      <g>
       <use style="stroke:#000000;stroke-width:0.8;" x="171.36" xlink:href="#m3daadf26ab" y="448.56"/>
      </g>
     </g>
     <g id="text_3">
      <!-- 0.2 -->
      <defs>
       <path d="M 19.1875 8.296875 
L 53.609375 8.296875 
L 53.609375 0 
L 7.328125 0 
L 7.328125 8.296875 
Q 12.9375 14.109375 22.625 23.890625 
Q 32.328125 33.6875 34.8125 36.53125 
Q 39.546875 41.84375 41.421875 45.53125 
Q 43.3125 49.21875 43.3125 52.78125 
Q 43.3125 58.59375 39.234375 62.25 
Q 35.15625 65.921875 28.609375 65.921875 
Q 23.96875 65.921875 18.8125 64.3125 
Q 13.671875 62.703125 7.8125 59.421875 
L 7.8125 69.390625 
Q 13.765625 71.78125 18.9375 73 
Q 24.125 74.21875 28.421875 74.21875 
Q 39.75 74.21875 46.484375 68.546875 
Q 53.21875 62.890625 53.21875 53.421875 
Q 53.21875 48.921875 51.53125 44.890625 
Q 49.859375 40.875 45.40625 35.40625 
Q 44.1875 33.984375 37.640625 27.21875 
Q 31.109375 20.453125 19.1875 8.296875 
z
" id="DejaVuSans-50"/>
      </defs>
      <g transform="translate(163.408438 463.158437)scale(0.1 -0.1)">
       <use xlink:href="#DejaVuSans-48"/>
       <use x="63.623047" xlink:href="#DejaVuSans-46"/>
       <use x="95.410156" xlink:href="#DejaVuSans-50"/>
      </g>
     </g>
    </g>
    <g id="xtick_4">
     <g id="line2d_7">
      <path clip-path="url(#p9c50f8f3d5)" d="M 218.79 448.56 
L 218.79 60.48 
" style="fill:none;stroke:#b0b0b0;stroke-linecap:square;stroke-width:0.8;"/>
     </g>
     <g id="line2d_8">
      <g>
       <use style="stroke:#000000;stroke-width:0.8;" x="218.79" xlink:href="#m3daadf26ab" y="448.56"/>
      </g>
     </g>
     <g id="text_4">
      <!-- 0.3 -->
      <defs>
       <path d="M 40.578125 39.3125 
Q 47.65625 37.796875 51.625 33 
Q 55.609375 28.21875 55.609375 21.1875 
Q 55.609375 10.40625 48.1875 4.484375 
Q 40.765625 -1.421875 27.09375 -1.421875 
Q 22.515625 -1.421875 17.65625 -0.515625 
Q 12.796875 0.390625 7.625 2.203125 
L 7.625 11.71875 
Q 11.71875 9.328125 16.59375 8.109375 
Q 21.484375 6.890625 26.8125 6.890625 
Q 36.078125 6.890625 40.9375 10.546875 
Q 45.796875 14.203125 45.796875 21.1875 
Q 45.796875 27.640625 41.28125 31.265625 
Q 36.765625 34.90625 28.71875 34.90625 
L 20.21875 34.90625 
L 20.21875 43.015625 
L 29.109375 43.015625 
Q 36.375 43.015625 40.234375 45.921875 
Q 44.09375 48.828125 44.09375 54.296875 
Q 44.09375 59.90625 40.109375 62.90625 
Q 36.140625 65.921875 28.71875 65.921875 
Q 24.65625 65.921875 20.015625 65.03125 
Q 15.375 64.15625 9.8125 62.3125 
L 9.8125 71.09375 
Q 15.4375 72.65625 20.34375 73.4375 
Q 25.25 74.21875 29.59375 74.21875 
Q 40.828125 74.21875 47.359375 69.109375 
Q 53.90625 64.015625 53.90625 55.328125 
Q 53.90625 49.265625 50.4375 45.09375 
Q 46.96875 40.921875 40.578125 39.3125 
z
" id="DejaVuSans-51"/>
      </defs>
      <g transform="translate(210.838438 463.158437)scale(0.1 -0.1)">
       <use xlink:href="#DejaVuSans-48"/>
       <use x="63.623047" xlink:href="#DejaVuSans-46"/>
       <use x="95.410156" xlink:href="#DejaVuSans-51"/>
      </g>
     </g>
    </g>
    <g id="xtick_5">
     <g id="line2d_9">
      <path clip-path="url(#p9c50f8f3d5)" d="M 266.22 448.56 
L 266.22 60.48 
" style="fill:none;stroke:#b0b0b0;stroke-linecap:square;stroke-width:0.8;"/>
     </g>
     <g id="line2d_10">
      <g>
       <use style="stroke:#000000;stroke-width:0.8;" x="266.22" xlink:href="#m3daadf26ab" y="448.56"/>
      </g>
     </g>
     <g id="text_5">
      <!-- 0.4 -->
      <defs>
       <path d="M 37.796875 64.3125 
L 12.890625 25.390625 
L 37.796875 25.390625 
z
M 35.203125 72.90625 
L 47.609375 72.90625 
L 47.609375 25.390625 
L 58.015625 25.390625 
L 58.015625 17.1875 
L 47.609375 17.1875 
L 47.609375 0 
L 37.796875 0 
L 37.796875 17.1875 
L 4.890625 17.1875 
L 4.890625 26.703125 
z
" id="DejaVuSans-52"/>
      </defs>
      <g transform="translate(258.268438 463.158437)scale(0.1 -0.1)">
       <use xlink:href="#DejaVuSans-48"/>
       <use x="63.623047" xlink:href="#DejaVuSans-46"/>
       <use x="95.410156" xlink:href="#DejaVuSans-52"/>
      </g>
     </g>
    </g>
    <g id="xtick_6">
     <g id="line2d_11">
      <path clip-path="url(#p9c50f8f3d5)" d="M 313.65 448.56 
L 313.65 60.48 
" style="fill:none;stroke:#b0b0b0;stroke-linecap:square;stroke-width:0.8;"/>
     </g>
     <g id="line2d_12">
      <g>
       <use style="stroke:#000000;stroke-width:0.8;" x="313.65" xlink:href="#m3daadf26ab" y="448.56"/>
      </g>
     </g>
     <g id="text_6">
      <!-- 0.5 -->
      <defs>
       <path d="M 10.796875 72.90625 
L 49.515625 72.90625 
L 49.515625 64.59375 
L 19.828125 64.59375 
L 19.828125 46.734375 
Q 21.96875 47.46875 24.109375 47.828125 
Q 26.265625 48.1875 28.421875 48.1875 
Q 40.625 48.1875 47.75 41.5 
Q 54.890625 34.8125 54.890625 23.390625 
Q 54.890625 11.625 47.5625 5.09375 
Q 40.234375 -1.421875 26.90625 -1.421875 
Q 22.3125 -1.421875 17.546875 -0.640625 
Q 12.796875 0.140625 7.71875 1.703125 
L 7.71875 11.625 
Q 12.109375 9.234375 16.796875 8.0625 
Q 21.484375 6.890625 26.703125 6.890625 
Q 35.15625 6.890625 40.078125 11.328125 
Q 45.015625 15.765625 45.015625 23.390625 
Q 45.015625 31 40.078125 35.4375 
Q 35.15625 39.890625 26.703125 39.890625 
Q 22.75 39.890625 18.8125 39.015625 
Q 14.890625 38.140625 10.796875 36.28125 
z
" id="DejaVuSans-53"/>
      </defs>
      <g transform="translate(305.698438 463.158437)scale(0.1 -0.1)">
       <use xlink:href="#DejaVuSans-48"/>
       <use x="63.623047" xlink:href="#DejaVuSans-46"/>
       <use x="95.410156" xlink:href="#DejaVuSans-53"/>
      </g>
     </g>
    </g>
    <g id="xtick_7">
     <g id="line2d_13">
      <path clip-path="url(#p9c50f8f3d5)" d="M 361.08 448.56 
L 361.08 60.48 
" style="fill:none;stroke:#b0b0b0;stroke-linecap:square;stroke-width:0.8;"/>
     </g>
     <g id="line2d_14">
      <g>
       <use style="stroke:#000000;stroke-width:0.8;" x="361.08" xlink:href="#m3daadf26ab" y="448.56"/>
      </g>
     </g>
     <g id="text_7">
      <!-- 0.6 -->
      <defs>
       <path d="M 33.015625 40.375 
Q 26.375 40.375 22.484375 35.828125 
Q 18.609375 31.296875 18.609375 23.390625 
Q 18.609375 15.53125 22.484375 10.953125 
Q 26.375 6.390625 33.015625 6.390625 
Q 39.65625 6.390625 43.53125 10.953125 
Q 47.40625 15.53125 47.40625 23.390625 
Q 47.40625 31.296875 43.53125 35.828125 
Q 39.65625 40.375 33.015625 40.375 
z
M 52.59375 71.296875 
L 52.59375 62.3125 
Q 48.875 64.0625 45.09375 64.984375 
Q 41.3125 65.921875 37.59375 65.921875 
Q 27.828125 65.921875 22.671875 59.328125 
Q 17.53125 52.734375 16.796875 39.40625 
Q 19.671875 43.65625 24.015625 45.921875 
Q 28.375 48.1875 33.59375 48.1875 
Q 44.578125 48.1875 50.953125 41.515625 
Q 57.328125 34.859375 57.328125 23.390625 
Q 57.328125 12.15625 50.6875 5.359375 
Q 44.046875 -1.421875 33.015625 -1.421875 
Q 20.359375 -1.421875 13.671875 8.265625 
Q 6.984375 17.96875 6.984375 36.375 
Q 6.984375 53.65625 15.1875 63.9375 
Q 23.390625 74.21875 37.203125 74.21875 
Q 40.921875 74.21875 44.703125 73.484375 
Q 48.484375 72.75 52.59375 71.296875 
z
" id="DejaVuSans-54"/>
      </defs>
      <g transform="translate(353.128438 463.158437)scale(0.1 -0.1)">
       <use xlink:href="#DejaVuSans-48"/>
       <use x="63.623047" xlink:href="#DejaVuSans-46"/>
       <use x="95.410156" xlink:href="#DejaVuSans-54"/>
      </g>
     </g>
    </g>
    <g id="xtick_8">
     <g id="line2d_15">
      <path clip-path="url(#p9c50f8f3d5)" d="M 408.51 448.56 
L 408.51 60.48 
" style="fill:none;stroke:#b0b0b0;stroke-linecap:square;stroke-width:0.8;"/>
     </g>
     <g id="line2d_16">
      <g>
       <use style="stroke:#000000;stroke-width:0.8;" x="408.51" xlink:href="#m3daadf26ab" y="448.56"/>
      </g>
     </g>
     <g id="text_8">
      <!-- 0.7 -->
      <defs>
       <path d="M 8.203125 72.90625 
L 55.078125 72.90625 
L 55.078125 68.703125 
L 28.609375 0 
L 18.3125 0 
L 43.21875 64.59375 
L 8.203125 64.59375 
z
" id="DejaVuSans-55"/>
      </defs>
      <g transform="translate(400.558438 463.158437)scale(0.1 -0.1)">
       <use xlink:href="#DejaVuSans-48"/>
       <use x="63.623047" xlink:href="#DejaVuSans-46"/>
       <use x="95.410156" xlink:href="#DejaVuSans-55"/>
      </g>
     </g>
    </g>
    <g id="xtick_9">
     <g id="line2d_17">
      <path clip-path="url(#p9c50f8f3d5)" d="M 455.94 448.56 
L 455.94 60.48 
" style="fill:none;stroke:#b0b0b0;stroke-linecap:square;stroke-width:0.8;"/>
     </g>
     <g id="line2d_18">
      <g>
       <use style="stroke:#000000;stroke-width:0.8;" x="455.94" xlink:href="#m3daadf26ab" y="448.56"/>
      </g>
     </g>
     <g id="text_9">
      <!-- 0.8 -->
      <defs>
       <path d="M 31.78125 34.625 
Q 24.75 34.625 20.71875 30.859375 
Q 16.703125 27.09375 16.703125 20.515625 
Q 16.703125 13.921875 20.71875 10.15625 
Q 24.75 6.390625 31.78125 6.390625 
Q 38.8125 6.390625 42.859375 10.171875 
Q 46.921875 13.96875 46.921875 20.515625 
Q 46.921875 27.09375 42.890625 30.859375 
Q 38.875 34.625 31.78125 34.625 
z
M 21.921875 38.8125 
Q 15.578125 40.375 12.03125 44.71875 
Q 8.5 49.078125 8.5 55.328125 
Q 8.5 64.0625 14.71875 69.140625 
Q 20.953125 74.21875 31.78125 74.21875 
Q 42.671875 74.21875 48.875 69.140625 
Q 55.078125 64.0625 55.078125 55.328125 
Q 55.078125 49.078125 51.53125 44.71875 
Q 48 40.375 41.703125 38.8125 
Q 48.828125 37.15625 52.796875 32.3125 
Q 56.78125 27.484375 56.78125 20.515625 
Q 56.78125 9.90625 50.3125 4.234375 
Q 43.84375 -1.421875 31.78125 -1.421875 
Q 19.734375 -1.421875 13.25 4.234375 
Q 6.78125 9.90625 6.78125 20.515625 
Q 6.78125 27.484375 10.78125 32.3125 
Q 14.796875 37.15625 21.921875 38.8125 
z
M 18.3125 54.390625 
Q 18.3125 48.734375 21.84375 45.5625 
Q 25.390625 42.390625 31.78125 42.390625 
Q 38.140625 42.390625 41.71875 45.5625 
Q 45.3125 48.734375 45.3125 54.390625 
Q 45.3125 60.0625 41.71875 63.234375 
Q 38.140625 66.40625 31.78125 66.40625 
Q 25.390625 66.40625 21.84375 63.234375 
Q 18.3125 60.0625 18.3125 54.390625 
z
" id="DejaVuSans-56"/>
      </defs>
      <g transform="translate(447.988438 463.158437)scale(0.1 -0.1)">
       <use xlink:href="#DejaVuSans-48"/>
       <use x="63.623047" xlink:href="#DejaVuSans-46"/>
       <use x="95.410156" xlink:href="#DejaVuSans-56"/>
      </g>
     </g>
    </g>
    <g id="xtick_10">
     <g id="line2d_19">
      <path clip-path="url(#p9c50f8f3d5)" d="M 503.37 448.56 
L 503.37 60.48 
" style="fill:none;stroke:#b0b0b0;stroke-linecap:square;stroke-width:0.8;"/>
     </g>
     <g id="line2d_20">
      <g>
       <use style="stroke:#000000;stroke-width:0.8;" x="503.37" xlink:href="#m3daadf26ab" y="448.56"/>
      </g>
     </g>
     <g id="text_10">
      <!-- 0.9 -->
      <defs>
       <path d="M 10.984375 1.515625 
L 10.984375 10.5 
Q 14.703125 8.734375 18.5 7.8125 
Q 22.3125 6.890625 25.984375 6.890625 
Q 35.75 6.890625 40.890625 13.453125 
Q 46.046875 20.015625 46.78125 33.40625 
Q 43.953125 29.203125 39.59375 26.953125 
Q 35.25 24.703125 29.984375 24.703125 
Q 19.046875 24.703125 12.671875 31.3125 
Q 6.296875 37.9375 6.296875 49.421875 
Q 6.296875 60.640625 12.9375 67.421875 
Q 19.578125 74.21875 30.609375 74.21875 
Q 43.265625 74.21875 49.921875 64.515625 
Q 56.59375 54.828125 56.59375 36.375 
Q 56.59375 19.140625 48.40625 8.859375 
Q 40.234375 -1.421875 26.421875 -1.421875 
Q 22.703125 -1.421875 18.890625 -0.6875 
Q 15.09375 0.046875 10.984375 1.515625 
z
M 30.609375 32.421875 
Q 37.25 32.421875 41.125 36.953125 
Q 45.015625 41.5 45.015625 49.421875 
Q 45.015625 57.28125 41.125 61.84375 
Q 37.25 66.40625 30.609375 66.40625 
Q 23.96875 66.40625 20.09375 61.84375 
Q 16.21875 57.28125 16.21875 49.421875 
Q 16.21875 41.5 20.09375 36.953125 
Q 23.96875 32.421875 30.609375 32.421875 
z
" id="DejaVuSans-57"/>
      </defs>
      <g transform="translate(495.418438 463.158437)scale(0.1 -0.1)">
       <use xlink:href="#DejaVuSans-48"/>
       <use x="63.623047" xlink:href="#DejaVuSans-46"/>
       <use x="95.410156" xlink:href="#DejaVuSans-57"/>
      </g>
     </g>
    </g>
    <g id="xtick_11">
     <g id="line2d_21">
      <path clip-path="url(#p9c50f8f3d5)" d="M 550.8 448.56 
L 550.8 60.48 
" style="fill:none;stroke:#b0b0b0;stroke-linecap:square;stroke-width:0.8;"/>
     </g>
     <g id="line2d_22">
      <g>
       <use style="stroke:#000000;stroke-width:0.8;" x="550.8" xlink:href="#m3daadf26ab" y="448.56"/>
      </g>
     </g>
     <g id="text_11">
      <!-- 1.0 -->
      <g transform="translate(542.848438 463.158437)scale(0.1 -0.1)">
       <use xlink:href="#DejaVuSans-49"/>
       <use x="63.623047" xlink:href="#DejaVuSans-46"/>
       <use x="95.410156" xlink:href="#DejaVuSans-48"/>
      </g>
     </g>
    </g>
    <g id="text_12">
     <!-- 1-precision -->
     <defs>
      <path d="M 4.890625 31.390625 
L 31.203125 31.390625 
L 31.203125 23.390625 
L 4.890625 23.390625 
z
" id="DejaVuSans-45"/>
      <path d="M 18.109375 8.203125 
L 18.109375 -20.796875 
L 9.078125 -20.796875 
L 9.078125 54.6875 
L 18.109375 54.6875 
L 18.109375 46.390625 
Q 20.953125 51.265625 25.265625 53.625 
Q 29.59375 56 35.59375 56 
Q 45.5625 56 51.78125 48.09375 
Q 58.015625 40.1875 58.015625 27.296875 
Q 58.015625 14.40625 51.78125 6.484375 
Q 45.5625 -1.421875 35.59375 -1.421875 
Q 29.59375 -1.421875 25.265625 0.953125 
Q 20.953125 3.328125 18.109375 8.203125 
z
M 48.6875 27.296875 
Q 48.6875 37.203125 44.609375 42.84375 
Q 40.53125 48.484375 33.40625 48.484375 
Q 26.265625 48.484375 22.1875 42.84375 
Q 18.109375 37.203125 18.109375 27.296875 
Q 18.109375 17.390625 22.1875 11.75 
Q 26.265625 6.109375 33.40625 6.109375 
Q 40.53125 6.109375 44.609375 11.75 
Q 48.6875 17.390625 48.6875 27.296875 
z
" id="DejaVuSans-112"/>
      <path d="M 41.109375 46.296875 
Q 39.59375 47.171875 37.8125 47.578125 
Q 36.03125 48 33.890625 48 
Q 26.265625 48 22.1875 43.046875 
Q 18.109375 38.09375 18.109375 28.8125 
L 18.109375 0 
L 9.078125 0 
L 9.078125 54.6875 
L 18.109375 54.6875 
L 18.109375 46.1875 
Q 20.953125 51.171875 25.484375 53.578125 
Q 30.03125 56 36.53125 56 
Q 37.453125 56 38.578125 55.875 
Q 39.703125 55.765625 41.0625 55.515625 
z
" id="DejaVuSans-114"/>
      <path d="M 56.203125 29.59375 
L 56.203125 25.203125 
L 14.890625 25.203125 
Q 15.484375 15.921875 20.484375 11.0625 
Q 25.484375 6.203125 34.421875 6.203125 
Q 39.59375 6.203125 44.453125 7.46875 
Q 49.3125 8.734375 54.109375 11.28125 
L 54.109375 2.78125 
Q 49.265625 0.734375 44.1875 -0.34375 
Q 39.109375 -1.421875 33.890625 -1.421875 
Q 20.796875 -1.421875 13.15625 6.1875 
Q 5.515625 13.8125 5.515625 26.8125 
Q 5.515625 40.234375 12.765625 48.109375 
Q 20.015625 56 32.328125 56 
Q 43.359375 56 49.78125 48.890625 
Q 56.203125 41.796875 56.203125 29.59375 
z
M 47.21875 32.234375 
Q 47.125 39.59375 43.09375 43.984375 
Q 39.0625 48.390625 32.421875 48.390625 
Q 24.90625 48.390625 20.390625 44.140625 
Q 15.875 39.890625 15.1875 32.171875 
z
" id="DejaVuSans-101"/>
      <path d="M 48.78125 52.59375 
L 48.78125 44.1875 
Q 44.96875 46.296875 41.140625 47.34375 
Q 37.3125 48.390625 33.40625 48.390625 
Q 24.65625 48.390625 19.8125 42.84375 
Q 14.984375 37.3125 14.984375 27.296875 
Q 14.984375 17.28125 19.8125 11.734375 
Q 24.65625 6.203125 33.40625 6.203125 
Q 37.3125 6.203125 41.140625 7.25 
Q 44.96875 8.296875 48.78125 10.40625 
L 48.78125 2.09375 
Q 45.015625 0.34375 40.984375 -0.53125 
Q 36.96875 -1.421875 32.421875 -1.421875 
Q 20.0625 -1.421875 12.78125 6.34375 
Q 5.515625 14.109375 5.515625 27.296875 
Q 5.515625 40.671875 12.859375 48.328125 
Q 20.21875 56 33.015625 56 
Q 37.15625 56 41.109375 55.140625 
Q 45.0625 54.296875 48.78125 52.59375 
z
" id="DejaVuSans-99"/>
      <path d="M 9.421875 54.6875 
L 18.40625 54.6875 
L 18.40625 0 
L 9.421875 0 
z
M 9.421875 75.984375 
L 18.40625 75.984375 
L 18.40625 64.59375 
L 9.421875 64.59375 
z
" id="DejaVuSans-105"/>
      <path d="M 44.28125 53.078125 
L 44.28125 44.578125 
Q 40.484375 46.53125 36.375 47.5 
Q 32.28125 48.484375 27.875 48.484375 
Q 21.1875 48.484375 17.84375 46.4375 
Q 14.5 44.390625 14.5 40.28125 
Q 14.5 37.15625 16.890625 35.375 
Q 19.28125 33.59375 26.515625 31.984375 
L 29.59375 31.296875 
Q 39.15625 29.25 43.1875 25.515625 
Q 47.21875 21.78125 47.21875 15.09375 
Q 47.21875 7.46875 41.1875 3.015625 
Q 35.15625 -1.421875 24.609375 -1.421875 
Q 20.21875 -1.421875 15.453125 -0.5625 
Q 10.6875 0.296875 5.421875 2 
L 5.421875 11.28125 
Q 10.40625 8.6875 15.234375 7.390625 
Q 20.0625 6.109375 24.8125 6.109375 
Q 31.15625 6.109375 34.5625 8.28125 
Q 37.984375 10.453125 37.984375 14.40625 
Q 37.984375 18.0625 35.515625 20.015625 
Q 33.0625 21.96875 24.703125 23.78125 
L 21.578125 24.515625 
Q 13.234375 26.265625 9.515625 29.90625 
Q 5.8125 33.546875 5.8125 39.890625 
Q 5.8125 47.609375 11.28125 51.796875 
Q 16.75 56 26.8125 56 
Q 31.78125 56 36.171875 55.265625 
Q 40.578125 54.546875 44.28125 53.078125 
z
" id="DejaVuSans-115"/>
      <path d="M 30.609375 48.390625 
Q 23.390625 48.390625 19.1875 42.75 
Q 14.984375 37.109375 14.984375 27.296875 
Q 14.984375 17.484375 19.15625 11.84375 
Q 23.34375 6.203125 30.609375 6.203125 
Q 37.796875 6.203125 41.984375 11.859375 
Q 46.1875 17.53125 46.1875 27.296875 
Q 46.1875 37.015625 41.984375 42.703125 
Q 37.796875 48.390625 30.609375 48.390625 
z
M 30.609375 56 
Q 42.328125 56 49.015625 48.375 
Q 55.71875 40.765625 55.71875 27.296875 
Q 55.71875 13.875 49.015625 6.21875 
Q 42.328125 -1.421875 30.609375 -1.421875 
Q 18.84375 -1.421875 12.171875 6.21875 
Q 5.515625 13.875 5.515625 27.296875 
Q 5.515625 40.765625 12.171875 48.375 
Q 18.84375 56 30.609375 56 
z
" id="DejaVuSans-111"/>
      <path d="M 54.890625 33.015625 
L 54.890625 0 
L 45.90625 0 
L 45.90625 32.71875 
Q 45.90625 40.484375 42.875 44.328125 
Q 39.84375 48.1875 33.796875 48.1875 
Q 26.515625 48.1875 22.3125 43.546875 
Q 18.109375 38.921875 18.109375 30.90625 
L 18.109375 0 
L 9.078125 0 
L 9.078125 54.6875 
L 18.109375 54.6875 
L 18.109375 46.1875 
Q 21.34375 51.125 25.703125 53.5625 
Q 30.078125 56 35.796875 56 
Q 45.21875 56 50.046875 50.171875 
Q 54.890625 44.34375 54.890625 33.015625 
z
" id="DejaVuSans-110"/>
     </defs>
     <g transform="translate(286.110938 476.836563)scale(0.1 -0.1)">
      <use xlink:href="#DejaVuSans-49"/>
      <use x="63.623047" xlink:href="#DejaVuSans-45"/>
      <use x="99.707031" xlink:href="#DejaVuSans-112"/>
      <use x="163.183594" xlink:href="#DejaVuSans-114"/>
      <use x="202.046875" xlink:href="#DejaVuSans-101"/>
      <use x="263.570312" xlink:href="#DejaVuSans-99"/>
      <use x="318.550781" xlink:href="#DejaVuSans-105"/>
      <use x="346.333984" xlink:href="#DejaVuSans-115"/>
      <use x="398.433594" xlink:href="#DejaVuSans-105"/>
      <use x="426.216797" xlink:href="#DejaVuSans-111"/>
      <use x="487.398438" xlink:href="#DejaVuSans-110"/>
     </g>
    </g>
   </g>
   <g id="matplotlib.axis_2">
    <g id="ytick_1">
     <g id="line2d_23">
      <path clip-path="url(#p9c50f8f3d5)" d="M 76.5 448.56 
L 550.8 448.56 
" style="fill:none;stroke:#b0b0b0;stroke-linecap:square;stroke-width:0.8;"/>
     </g>
     <g id="line2d_24">
      <defs>
       <path d="M 0 0 
L -3.5 0 
" id="m5d4c943dbc" style="stroke:#000000;stroke-width:0.8;"/>
      </defs>
      <g>
       <use style="stroke:#000000;stroke-width:0.8;" x="76.5" xlink:href="#m5d4c943dbc" y="448.56"/>
      </g>
     </g>
     <g id="text_13">
      <!-- 0.0 -->
      <g transform="translate(53.596875 452.359219)scale(0.1 -0.1)">
       <use xlink:href="#DejaVuSans-48"/>
       <use x="63.623047" xlink:href="#DejaVuSans-46"/>
       <use x="95.410156" xlink:href="#DejaVuSans-48"/>
      </g>
     </g>
    </g>
    <g id="ytick_2">
     <g id="line2d_25">
      <path clip-path="url(#p9c50f8f3d5)" d="M 76.5 409.752 
L 550.8 409.752 
" style="fill:none;stroke:#b0b0b0;stroke-linecap:square;stroke-width:0.8;"/>
     </g>
     <g id="line2d_26">
      <g>
       <use style="stroke:#000000;stroke-width:0.8;" x="76.5" xlink:href="#m5d4c943dbc" y="409.752"/>
      </g>
     </g>
     <g id="text_14">
      <!-- 0.1 -->
      <g transform="translate(53.596875 413.551219)scale(0.1 -0.1)">
       <use xlink:href="#DejaVuSans-48"/>
       <use x="63.623047" xlink:href="#DejaVuSans-46"/>
       <use x="95.410156" xlink:href="#DejaVuSans-49"/>
      </g>
     </g>
    </g>
    <g id="ytick_3">
     <g id="line2d_27">
      <path clip-path="url(#p9c50f8f3d5)" d="M 76.5 370.944 
L 550.8 370.944 
" style="fill:none;stroke:#b0b0b0;stroke-linecap:square;stroke-width:0.8;"/>
     </g>
     <g id="line2d_28">
      <g>
       <use style="stroke:#000000;stroke-width:0.8;" x="76.5" xlink:href="#m5d4c943dbc" y="370.944"/>
      </g>
     </g>
     <g id="text_15">
      <!-- 0.2 -->
      <g transform="translate(53.596875 374.743219)scale(0.1 -0.1)">
       <use xlink:href="#DejaVuSans-48"/>
       <use x="63.623047" xlink:href="#DejaVuSans-46"/>
       <use x="95.410156" xlink:href="#DejaVuSans-50"/>
      </g>
     </g>
    </g>
    <g id="ytick_4">
     <g id="line2d_29">
      <path clip-path="url(#p9c50f8f3d5)" d="M 76.5 332.136 
L 550.8 332.136 
" style="fill:none;stroke:#b0b0b0;stroke-linecap:square;stroke-width:0.8;"/>
     </g>
     <g id="line2d_30">
      <g>
       <use style="stroke:#000000;stroke-width:0.8;" x="76.5" xlink:href="#m5d4c943dbc" y="332.136"/>
      </g>
     </g>
     <g id="text_16">
      <!-- 0.3 -->
      <g transform="translate(53.596875 335.935219)scale(0.1 -0.1)">
       <use xlink:href="#DejaVuSans-48"/>
       <use x="63.623047" xlink:href="#DejaVuSans-46"/>
       <use x="95.410156" xlink:href="#DejaVuSans-51"/>
      </g>
     </g>
    </g>
    <g id="ytick_5">
     <g id="line2d_31">
      <path clip-path="url(#p9c50f8f3d5)" d="M 76.5 293.328 
L 550.8 293.328 
" style="fill:none;stroke:#b0b0b0;stroke-linecap:square;stroke-width:0.8;"/>
     </g>
     <g id="line2d_32">
      <g>
       <use style="stroke:#000000;stroke-width:0.8;" x="76.5" xlink:href="#m5d4c943dbc" y="293.328"/>
      </g>
     </g>
     <g id="text_17">
      <!-- 0.4 -->
      <g transform="translate(53.596875 297.127219)scale(0.1 -0.1)">
       <use xlink:href="#DejaVuSans-48"/>
       <use x="63.623047" xlink:href="#DejaVuSans-46"/>
       <use x="95.410156" xlink:href="#DejaVuSans-52"/>
      </g>
     </g>
    </g>
    <g id="ytick_6">
     <g id="line2d_33">
      <path clip-path="url(#p9c50f8f3d5)" d="M 76.5 254.52 
L 550.8 254.52 
" style="fill:none;stroke:#b0b0b0;stroke-linecap:square;stroke-width:0.8;"/>
     </g>
     <g id="line2d_34">
      <g>
       <use style="stroke:#000000;stroke-width:0.8;" x="76.5" xlink:href="#m5d4c943dbc" y="254.52"/>
      </g>
     </g>
     <g id="text_18">
      <!-- 0.5 -->
      <g transform="translate(53.596875 258.319219)scale(0.1 -0.1)">
       <use xlink:href="#DejaVuSans-48"/>
       <use x="63.623047" xlink:href="#DejaVuSans-46"/>
       <use x="95.410156" xlink:href="#DejaVuSans-53"/>
      </g>
     </g>
    </g>
    <g id="ytick_7">
     <g id="line2d_35">
      <path clip-path="url(#p9c50f8f3d5)" d="M 76.5 215.712 
L 550.8 215.712 
" style="fill:none;stroke:#b0b0b0;stroke-linecap:square;stroke-width:0.8;"/>
     </g>
     <g id="line2d_36">
      <g>
       <use style="stroke:#000000;stroke-width:0.8;" x="76.5" xlink:href="#m5d4c943dbc" y="215.712"/>
      </g>
     </g>
     <g id="text_19">
      <!-- 0.6 -->
      <g transform="translate(53.596875 219.511219)scale(0.1 -0.1)">
       <use xlink:href="#DejaVuSans-48"/>
       <use x="63.623047" xlink:href="#DejaVuSans-46"/>
       <use x="95.410156" xlink:href="#DejaVuSans-54"/>
      </g>
     </g>
    </g>
    <g id="ytick_8">
     <g id="line2d_37">
      <path clip-path="url(#p9c50f8f3d5)" d="M 76.5 176.904 
L 550.8 176.904 
" style="fill:none;stroke:#b0b0b0;stroke-linecap:square;stroke-width:0.8;"/>
     </g>
     <g id="line2d_38">
      <g>
       <use style="stroke:#000000;stroke-width:0.8;" x="76.5" xlink:href="#m5d4c943dbc" y="176.904"/>
      </g>
     </g>
     <g id="text_20">
      <!-- 0.7 -->
      <g transform="translate(53.596875 180.703219)scale(0.1 -0.1)">
       <use xlink:href="#DejaVuSans-48"/>
       <use x="63.623047" xlink:href="#DejaVuSans-46"/>
       <use x="95.410156" xlink:href="#DejaVuSans-55"/>
      </g>
     </g>
    </g>
    <g id="ytick_9">
     <g id="line2d_39">
      <path clip-path="url(#p9c50f8f3d5)" d="M 76.5 138.096 
L 550.8 138.096 
" style="fill:none;stroke:#b0b0b0;stroke-linecap:square;stroke-width:0.8;"/>
     </g>
     <g id="line2d_40">
      <g>
       <use style="stroke:#000000;stroke-width:0.8;" x="76.5" xlink:href="#m5d4c943dbc" y="138.096"/>
      </g>
     </g>
     <g id="text_21">
      <!-- 0.8 -->
      <g transform="translate(53.596875 141.895219)scale(0.1 -0.1)">
       <use xlink:href="#DejaVuSans-48"/>
       <use x="63.623047" xlink:href="#DejaVuSans-46"/>
       <use x="95.410156" xlink:href="#DejaVuSans-56"/>
      </g>
     </g>
    </g>
    <g id="ytick_10">
     <g id="line2d_41">
      <path clip-path="url(#p9c50f8f3d5)" d="M 76.5 99.288 
L 550.8 99.288 
" style="fill:none;stroke:#b0b0b0;stroke-linecap:square;stroke-width:0.8;"/>
     </g>
     <g id="line2d_42">
      <g>
       <use style="stroke:#000000;stroke-width:0.8;" x="76.5" xlink:href="#m5d4c943dbc" y="99.288"/>
      </g>
     </g>
     <g id="text_22">
      <!-- 0.9 -->
      <g transform="translate(53.596875 103.087219)scale(0.1 -0.1)">
       <use xlink:href="#DejaVuSans-48"/>
       <use x="63.623047" xlink:href="#DejaVuSans-46"/>
       <use x="95.410156" xlink:href="#DejaVuSans-57"/>
      </g>
     </g>
    </g>
    <g id="ytick_11">
     <g id="line2d_43">
      <path clip-path="url(#p9c50f8f3d5)" d="M 76.5 60.48 
L 550.8 60.48 
" style="fill:none;stroke:#b0b0b0;stroke-linecap:square;stroke-width:0.8;"/>
     </g>
     <g id="line2d_44">
      <g>
       <use style="stroke:#000000;stroke-width:0.8;" x="76.5" xlink:href="#m5d4c943dbc" y="60.48"/>
      </g>
     </g>
     <g id="text_23">
      <!-- 1.0 -->
      <g transform="translate(53.596875 64.279219)scale(0.1 -0.1)">
       <use xlink:href="#DejaVuSans-49"/>
       <use x="63.623047" xlink:href="#DejaVuSans-46"/>
       <use x="95.410156" xlink:href="#DejaVuSans-48"/>
      </g>
     </g>
    </g>
    <g id="text_24">
     <!-- #correct/1039 -->
     <defs>
      <path d="M 51.125 44 
L 36.921875 44 
L 32.8125 27.6875 
L 47.125 27.6875 
z
M 43.796875 71.78125 
L 38.71875 51.515625 
L 52.984375 51.515625 
L 58.109375 71.78125 
L 65.921875 71.78125 
L 60.890625 51.515625 
L 76.125 51.515625 
L 76.125 44 
L 58.984375 44 
L 54.984375 27.6875 
L 70.515625 27.6875 
L 70.515625 20.21875 
L 53.078125 20.21875 
L 48 0 
L 40.1875 0 
L 45.21875 20.21875 
L 30.90625 20.21875 
L 25.875 0 
L 18.015625 0 
L 23.09375 20.21875 
L 7.71875 20.21875 
L 7.71875 27.6875 
L 24.90625 27.6875 
L 29 44 
L 13.28125 44 
L 13.28125 51.515625 
L 30.90625 51.515625 
L 35.890625 71.78125 
z
" id="DejaVuSans-35"/>
      <path d="M 18.3125 70.21875 
L 18.3125 54.6875 
L 36.8125 54.6875 
L 36.8125 47.703125 
L 18.3125 47.703125 
L 18.3125 18.015625 
Q 18.3125 11.328125 20.140625 9.421875 
Q 21.96875 7.515625 27.59375 7.515625 
L 36.8125 7.515625 
L 36.8125 0 
L 27.59375 0 
Q 17.1875 0 13.234375 3.875 
Q 9.28125 7.765625 9.28125 18.015625 
L 9.28125 47.703125 
L 2.6875 47.703125 
L 2.6875 54.6875 
L 9.28125 54.6875 
L 9.28125 70.21875 
z
" id="DejaVuSans-116"/>
      <path d="M 25.390625 72.90625 
L 33.6875 72.90625 
L 8.296875 -9.28125 
L 0 -9.28125 
z
" id="DejaVuSans-47"/>
     </defs>
     <g transform="translate(47.517187 290.624688)rotate(-90)scale(0.1 -0.1)">
      <use xlink:href="#DejaVuSans-35"/>
      <use x="83.789062" xlink:href="#DejaVuSans-99"/>
      <use x="138.769531" xlink:href="#DejaVuSans-111"/>
      <use x="199.951172" xlink:href="#DejaVuSans-114"/>
      <use x="239.314453" xlink:href="#DejaVuSans-114"/>
      <use x="278.177734" xlink:href="#DejaVuSans-101"/>
      <use x="339.701172" xlink:href="#DejaVuSans-99"/>
      <use x="394.681641" xlink:href="#DejaVuSans-116"/>
      <use x="433.890625" xlink:href="#DejaVuSans-47"/>
      <use x="467.582031" xlink:href="#DejaVuSans-49"/>
      <use x="531.205078" xlink:href="#DejaVuSans-48"/>
      <use x="594.828125" xlink:href="#DejaVuSans-51"/>
      <use x="658.451172" xlink:href="#DejaVuSans-57"/>
     </g>
    </g>
   </g>
   <g id="line2d_45">
    <path clip-path="url(#p9c50f8f3d5)" d="M 76.5 448.186487 
L 76.5 370.869297 
L 78.769378 370.869297 
L 78.317241 351.446622 
L 78.146875 341.361771 
L 79.782353 341.361771 
L 79.348649 324.927199 
L 80.76018 324.927199 
L 80.553846 318.577478 
L 81.889773 318.577478 
L 81.844225 317.456939 
L 83.161517 317.456939 
L 83.069252 315.589374 
L 84.361326 315.589374 
L 84.233152 313.348296 
L 85.497561 313.348296 
L 85.401072 311.854244 
L 86.645455 311.854244 
L 86.591489 311.107218 
L 87.822812 311.107218 
L 87.703937 309.613167 
L 88.91623 309.613167 
L 88.538071 305.131011 
L 89.708354 305.131011 
L 89.510723 302.889933 
L 91.8 302.889933 
L 91.724444 302.142907 
L 92.855172 302.142907 
L 92.347733 297.287238 
L 94.525653 297.287238 
L 94.230841 294.672647 
L 95.295105 294.672647 
L 95.035862 292.431569 
L 96.081193 292.431569 
L 95.815385 290.190491 
L 99.895964 290.190491 
L 99.739644 289.069952 
L 101.739911 289.069952 
L 101.408534 286.828874 
L 102.389738 286.828874 
L 102.165584 285.334822 
L 104.099353 285.334822 
L 103.980901 284.587796 
L 105.890385 284.587796 
L 105.579704 282.720231 
L 107.454316 282.720231 
L 106.941615 279.732127 
L 107.858678 279.732127 
L 107.794021 279.358614 
L 108.705556 279.358614 
L 108.639425 278.985101 
L 109.545492 278.985101 
L 109.477914 278.611588 
L 111.27556 278.611588 
L 110.925 276.744023 
L 111.81006 276.744023 
L 111.668537 275.996997 
L 114.292829 275.996997 
L 114.068317 274.876458 
L 116.647441 274.876458 
L 116.25614 273.008893 
L 117.101556 273.008893 
L 117.022718 272.63538 
L 118.700774 272.63538 
L 118.619305 272.261867 
L 119.452023 272.261867 
L 119.28714 271.514841 
L 120.937285 271.514841 
L 120.768 270.767815 
L 122.4 270.767815 
L 122.226465 270.020789 
L 123.840678 270.020789 
L 123.663039 269.273763 
L 124.462921 269.273763 
L 124.017996 267.406198 
L 126.380258 267.406198 
L 125.924314 265.538633 
L 126.699635 265.538633 
L 126.33587 264.044581 
L 129.389568 264.044581 
L 129.294614 263.671068 
L 131.552679 263.671068 
L 131.356762 262.924042 
L 133.583894 262.924042 
L 133.483039 262.550529 
L 134.219048 262.550529 
L 133.71451 260.682964 
L 135.890609 260.682964 
L 135.378621 258.815399 
L 136.093632 258.815399 
L 135.991237 258.441886 
L 136.702744 258.441886 
L 136.496923 257.69486 
L 138.610714 257.69486 
L 138.505263 257.321347 
L 139.204068 257.321347 
L 139.09797 256.947834 
L 140.486509 256.947834 
L 139.951505 255.080269 
L 144.705124 255.080269 
L 144.592574 254.706756 
L 145.261779 254.706756 
L 145.035961 253.959731 
L 145.701148 253.959731 
L 145.587889 253.586218 
L 146.25 253.586218 
L 146.022801 252.839192 
L 149.292407 252.839192 
L 149.175 252.465679 
L 149.821739 252.465679 
L 149.703859 252.092166 
L 150.347673 252.092166 
L 150.229327 251.718653 
L 150.87024 251.718653 
L 150.751438 251.34514 
L 152.659459 251.34514 
L 152.538571 250.971627 
L 153.798892 250.971627 
L 153.192151 249.104062 
L 156.288785 249.104062 
L 156.040994 248.357036 
L 157.871406 248.357036 
L 157.745833 247.983523 
L 158.351464 247.983523 
L 157.974847 246.862984 
L 158.576417 246.862984 
L 158.450917 246.489471 
L 159.049924 246.489471 
L 158.79863 245.742445 
L 159.394377 245.742445 
L 159.268589 245.368932 
L 159.861818 245.368932 
L 159.60997 244.621906 
L 161.374737 244.621906 
L 161.247297 244.248393 
L 162.99417 244.248393 
L 162.736364 243.501367 
L 163.889599 243.501367 
L 163.759941 243.127854 
L 164.90503 243.127854 
L 164.774446 242.754341 
L 168.165593 242.754341 
L 167.764723 241.633802 
L 168.878198 241.633802 
L 168.744122 241.260289 
L 169.297826 241.260289 
L 169.163531 240.886776 
L 170.813256 240.886776 
L 170.407317 239.766237 
L 172.037571 239.766237 
L 171.494744 238.272185 
L 172.032766 238.272185 
L 171.627966 237.151646 
L 172.162764 237.151646 
L 172.028028 236.778133 
L 173.091994 236.778133 
L 172.956522 236.40462 
L 175.064435 236.40462 
L 174.790264 235.657594 
L 175.3125 235.657594 
L 174.90249 234.537055 
L 176.970702 234.537055 
L 176.557808 233.416516 
L 177.069767 233.416516 
L 176.795362 232.66949 
L 179.831935 232.66949 
L 179.692297 232.295977 
L 180.193117 232.295977 
L 180.053369 231.922464 
L 180.552355 231.922464 
L 180.27302 231.175438 
L 181.26506 231.175438 
L 181.125 230.801925 
L 181.618558 230.801925 
L 181.4784 230.428412 
L 182.949801 230.428412 
L 182.808621 230.054899 
L 189.045763 230.054899 
L 188.899219 229.681386 
L 189.369831 229.681386 
L 189.223247 229.307873 
L 192.94126 229.307873 
L 192.791784 228.93436 
L 193.250769 228.93436 
L 192.952174 228.187334 
L 201.87606 228.187334 
L 201.564179 227.440308 
L 203.722621 227.440308 
L 203.565556 227.066795 
L 203.993711 227.066795 
L 203.8367 226.693282 
L 205.113865 226.693282 
L 204.95625 226.319769 
L 205.801834 226.319769 
L 205.486463 225.572743 
L 207.162743 225.572743 
L 207.004364 225.19923 
L 209.486643 225.19923 
L 209.167347 224.452204 
L 209.576978 224.452204 
L 209.417605 224.078691 
L 209.825957 224.078691 
L 209.666667 223.705178 
L 210.073747 223.705178 
L 209.914541 223.331665 
L 210.725208 223.331665 
L 210.406762 222.584639 
L 211.61383 222.584639 
L 211.454309 222.211126 
L 213.049354 222.211126 
L 212.729191 221.4641 
L 213.914019 221.4641 
L 213.434109 220.343561 
L 216.547059 220.343561 
L 216.385714 219.970048 
L 218.301031 219.970048 
L 218.138787 219.596535 
L 218.518971 219.596535 
L 218.356849 219.223022 
L 219.491468 219.223022 
L 219.328977 218.849509 
L 219.705221 218.849509 
L 219.542857 218.475996 
L 221.038375 218.475996 
L 220.875423 218.102483 
L 221.246959 218.102483 
L 221.084139 217.72897 
L 222.193049 217.72897 
L 222.029899 217.355457 
L 222.397651 217.355457 
L 222.234637 216.981944 
L 222.601339 216.981944 
L 222.438462 216.608431 
L 222.80412 216.608431 
L 222.641379 216.234918 
L 224.095017 216.234918 
L 223.931748 215.861405 
L 224.292928 215.861405 
L 224.129801 215.487892 
L 224.489967 215.487892 
L 224.326982 215.114379 
L 225.044505 215.114379 
L 224.881449 214.740866 
L 229.466883 214.740866 
L 229.301514 214.367353 
L 230.685791 214.367353 
L 230.52 213.99384 
L 230.864017 213.99384 
L 230.698391 213.620327 
L 231.725455 213.620327 
L 231.559615 213.246814 
L 232.240299 213.246814 
L 232.074441 212.873301 
L 234.766948 212.873301 
L 234.6 212.499788 
L 235.265684 212.499788 
L 235.098738 212.126275 
L 236.749895 212.126275 
L 236.415344 211.379249 
L 236.74317 211.379249 
L 236.57625 211.005736 
L 237.55514 211.005736 
L 237.388071 210.632223 
L 239.005263 210.632223 
L 238.670546 209.885197 
L 241.537041 209.885197 
L 241.368807 209.511684 
L 241.68391 209.511684 
L 241.180812 208.391145 
L 242.433064 208.391145 
L 242.265455 208.017632 
L 244.124096 208.017632 
L 243.955968 207.644119 
L 244.8765 207.644119 
L 244.708292 207.270606 
L 245.926567 207.270606 
L 245.758151 206.897093 
L 246.665114 206.897093 
L 246.496634 206.52358 
L 247.098024 206.52358 
L 246.761538 205.776554 
L 247.360039 205.776554 
L 247.192035 205.403041 
L 247.787929 205.403041 
L 247.62 205.029528 
L 250.854704 205.029528 
L 250.685756 204.656015 
L 250.976283 204.656015 
L 250.807544 204.282502 
L 251.963584 204.282502 
L 251.794706 203.908989 
L 254.927143 203.908989 
L 254.587928 203.161963 
L 257.100566 203.161963 
L 256.760771 202.414937 
L 257.588274 202.414937 
L 257.418557 202.041424 
L 257.693258 202.041424 
L 257.523761 201.667911 
L 258.617055 201.667911 
L 258.278233 200.920885 
L 260.439058 200.920885 
L 260.269373 200.547372 
L 261.3375 200.547372 
L 261.167769 200.173859 
L 262.227722 200.173859 
L 262.057952 199.800346 
L 266.22 199.800346 
L 266.049235 199.426833 
L 269.091986 199.426833 
L 268.920641 199.053321 
L 270.665252 199.053321 
L 270.493728 198.679808 
L 270.988095 198.679808 
L 270.81674 198.306295 
L 271.063204 198.306295 
L 270.892084 197.932782 
L 273.574129 197.932782 
L 273.402611 197.559269 
L 273.643826 197.559269 
L 273.472546 197.185756 
L 274.910717 197.185756 
L 274.739378 196.812243 
L 275.926225 196.812243 
L 275.754897 196.43873 
L 277.399061 196.43873 
L 277.227645 196.065217 
L 286.474526 196.065217 
L 286.301565 195.691704 
L 287.602377 195.691704 
L 287.429484 195.318191 
L 290.625728 195.318191 
L 290.452627 194.944678 
L 294.594988 194.944678 
L 294.421622 194.571165 
L 297.84 194.571165 
L 297.666536 194.197652 
L 300.607668 194.197652 
L 300.434211 193.824139 
L 309.041704 193.824139 
L 308.868036 193.450626 
L 315.030786 193.450626 
L 314.857309 193.077113 
L 317.403453 193.077113 
L 317.230266 192.7036 
L 320.37766 192.7036 
L 320.204819 192.330087 
L 321.019068 192.330087 
L 320.846507 191.956574 
L 321.170613 191.956574 
L 320.826249 191.209548 
L 321.149473 191.209548 
L 320.806105 190.462522 
L 321.449895 190.462522 
L 321.278601 190.089009 
L 322.8725 190.089009 
L 322.701527 189.715496 
L 327.505231 189.715496 
L 327.334827 189.341983 
L 331.064219 189.341983 
L 330.894396 188.96847 
L 331.916534 188.96847 
L 331.747047 188.594957 
L 332.61573 188.594957 
L 332.446565 188.221444 
L 333.451479 188.221444 
L 333.282654 187.847931 
L 338.581154 187.847931 
L 338.413261 187.474418 
L 339.765181 187.474418 
L 339.59771 187.100905 
L 340.133756 187.100905 
L 339.966582 186.727392 
L 344.799814 186.727392 
L 344.633684 186.353879 
L 346.405525 186.353879 
L 346.239939 185.980366 
L 352.328036 185.980366 
L 352.16395 185.606853 
L 352.282045 185.606853 
L 355.418373 185.606853 
L 355.255263 185.23334 
L 355.36955 185.23334 
L 355.71161 185.23334 
L 355.548805 184.859827 
L 355.662587 184.859827 
L 356.003141 184.859827 
L 355.84064 184.486314 
L 355.953922 184.486314 
L 357.6375 184.486314 
L 357.475648 184.112801 
L 357.586881 184.112801 
L 358.251606 184.112801 
L 358.090143 183.739288 
L 358.200515 183.739288 
L 360.812034 183.739288 
L 360.651496 183.365775 
L 360.758804 183.365775 
L 363.506897 183.365775 
L 363.34736 182.992262 
L 363.4515 182.992262 
L 366.119113 182.992262 
L 365.960591 182.618749 
L 366.061707 182.618749 
L 367.166721 182.618749 
L 367.00875 182.245236 
L 367.108582 182.245236 
L 370.6317 182.245236 
L 370.47508 181.871723 
L 370.571048 181.871723 
L 372.09277 181.871723 
L 371.936867 181.49821 
L 372.031154 181.49821 
L 373.526346 181.49821 
L 373.30882 180.751184 
L 377.910778 180.751184 
L 377.757622 180.377671 
L 377.845505 180.377671 
L 380.013942 180.377671 
L 379.70982 179.630645 
L 379.795493 179.630645 
L 384.216585 179.630645 
L 384.066553 179.257132 
L 384.147807 179.257132 
L 392.846051 179.257132 
L 392.7 178.883619 
L 392.772958 178.883619 
L 394.859836 178.883619 
L 394.714929 178.510106 
L 394.785942 178.510106 
L 394.998592 178.510106 
L 394.853951 178.136593 
L 394.924739 178.136593 
L 396.048671 178.136593 
L 395.90473 177.76308 
L 395.974471 177.76308 
L 397.21916 177.76308 
L 397.075982 177.389567 
L 397.144578 177.389567 
L 398.503759 177.389567 
L 398.361406 177.016054 
L 398.428767 177.016054 
L 404.319074 177.016054 
L 404.179873 176.642541 
L 404.242105 176.642541 
L 405.659016 176.642541 
L 405.520714 176.269028 
L 405.58173 176.269028 
L 406.731375 176.269028 
L 406.593836 175.895515 
L 406.653872 175.895515 
L 415.179553 175.895515 
L 414.967606 175.148489 
L 415.020727 175.148489 
L 418.939916 175.148489 
L 418.809909 174.774976 
L 418.910053 174.774976 
L 422.889073 174.774976 
L 422.761677 174.401463 
L 422.855788 174.401463 
L 426.109384 174.401463 
L 425.984211 174.02795 
L 426.073524 174.02795 
L 426.95968 174.02795 
L 426.835227 173.654437 
L 426.923208 173.654437 
L 427.404878 173.654437 
L 427.280883 173.280924 
L 427.368114 173.280924 
L 427.62907 173.280924 
L 427.505389 172.907411 
L 427.592186 172.907411 
L 429.218409 172.907411 
L 429.095938 172.533898 
L 429.180396 172.533898 
L 429.222581 172.533898 
L 429.100277 172.160385 
L 429.184615 172.160385 
L 429.436929 172.160385 
L 429.314933 171.786872 
L 429.39886 171.786872 
L 439.297367 171.786872 
L 439.182303 171.413359 
L 439.288403 171.413359 
L 439.5 171.413359 
L 439.385236 171.039846 
L 439.490809 171.039846 
L 441.391462 171.039846 
L 441.278212 170.666333 
L 441.380093 170.666333 
L 442.58804 170.666333 
L 442.475812 170.29282 
L 442.575345 170.29282 
L 444.528271 170.29282 
L 444.417619 169.919307 
L 444.513488 169.919307 
L 450.593883 169.919307 
L 450.487967 169.545794 
L 450.601442 169.545794 
L 450.629771 169.545794 
L 450.524025 169.172281 
L 450.637267 169.172281 
L 456.469662 169.172281 
L 456.36866 168.798768 
L 456.468959 168.798768 
L 456.544044 168.798768 
L 456.443236 168.425255 
L 456.543243 168.425255 
L 459.611843 168.425255 
L 459.51366 168.051742 
L 459.607143 168.051742 
L 462.588187 168.051742 
L 462.492597 167.678229 
L 462.60178 167.678229 
L 462.992614 167.678229 
L 462.89749 167.304716 
L 463.005531 167.304716 
L 464.469833 167.304716 
L 464.376075 166.931203 
L 464.480377 166.931203 
L 466.255745 166.931203 
L 466.163626 166.55769 
L 466.263527 166.55769 
L 468.949371 166.55769 
L 468.859689 166.184177 
L 468.971885 166.184177 
L 469.546703 166.184177 
L 469.457657 165.810664 
L 469.568077 165.810664 
L 472.268701 165.810664 
L 472.182156 165.437151 
L 472.285171 165.437151 
L 473.015621 165.437151 
L 472.929851 165.063638 
L 473.030784 165.063638 
L 473.248578 165.063638 
L 473.163127 164.690125 
L 473.263325 164.690125 
L 473.908362 164.690125 
L 473.823608 164.316612 
L 473.921981 164.316612 
L 474.003766 164.316612 
L 473.919209 163.943099 
L 474.017208 163.943099 
L 474.422866 163.943099 
L 474.335514 163.196073 
L 474.367771 163.196073 
L 474.383889 163.196073 
L 474.3 162.82256 
L 474.412737 162.82256 
L 475.443925 162.82256 
L 475.361088 162.449047 
L 475.470578 162.449047 
L 479.729225 162.449047 
L 479.650362 162.075534 
L 479.761511 162.075534 
L 480.746447 162.075534 
L 480.668618 161.702021 
L 480.776471 161.702021 
L 481.666882 161.702021 
L 481.666882 161.702021 
" style="fill:none;stroke:#1f77b4;stroke-linecap:square;stroke-width:2;"/>
   </g>
   <g id="line2d_46">
    <path clip-path="url(#p9c50f8f3d5)" d="M 76.5 448.186487 
L 76.5 436.234071 
L 90.45 436.234071 
L 88.981579 434.740019 
L 87.792857 433.245967 
L 86.591489 431.378402 
L 85.449057 429.137324 
L 102.370909 429.137324 
L 100.215 427.269759 
L 98.390769 425.402194 
L 105.245455 425.402194 
L 103.221127 423.534629 
L 102.85 423.161116 
L 108.986301 423.161116 
L 106.518987 420.920038 
L 104.4 418.678961 
L 102.56044 416.437883 
L 101.463158 414.943831 
L 106.14375 414.943831 
L 105.538776 414.196805 
L 110.036364 414.196805 
L 109.701 413.823292 
L 114.068317 413.823292 
L 113.7 413.449779 
L 117.943689 413.449779 
L 117.154286 412.702753 
L 125.259813 412.702753 
L 123.083036 410.835188 
L 126.868142 410.835188 
L 124.733898 408.967623 
L 128.314286 408.967623 
L 125.435714 406.353032 
L 124.297674 405.232493 
L 130.80916 405.232493 
L 128.054348 402.617902 
L 127.683453 402.244389 
L 145.191724 402.244389 
L 141.6 399.256285 
L 140.76 398.509259 
L 143.388462 398.509259 
L 142.96242 398.135746 
L 145.543671 398.135746 
L 145.109434 397.762233 
L 147.645 397.762233 
L 146.766667 397.015207 
L 149.245399 397.015207 
L 148.801829 396.641694 
L 156.023353 396.641694 
L 155.55 396.268181 
L 160.2 396.268181 
L 159.710526 395.894668 
L 161.984302 395.894668 
L 161.001724 395.147642 
L 163.229143 395.147642 
L 162.249153 394.400616 
L 166.590503 394.400616 
L 166.09 394.027103 
L 178.5 394.027103 
L 177.954545 393.65359 
L 179.937766 393.65359 
L 179.390476 393.280077 
L 185.19375 393.280077 
L 184.63057 392.906564 
L 190.235204 392.906564 
L 189.086364 392.159538 
L 199.725 392.159538 
L 198.528641 391.412512 
L 201.915865 391.412512 
L 201.315789 391.038999 
L 202.98 391.038999 
L 202.380569 390.665486 
L 207.264953 390.665486 
L 206.054167 389.91846 
L 210.776712 389.91846 
L 209.561538 389.171434 
L 217.111062 389.171434 
L 215.877632 388.424408 
L 224.465385 388.424408 
L 223.835745 388.050895 
L 225.221186 388.050895 
L 224.593671 387.677382 
L 227.323431 387.677382 
L 226.695 387.303869 
L 228.039834 387.303869 
L 226.176639 386.18333 
L 228.815854 386.18333 
L 228.19919 385.809817 
L 230.790361 385.809817 
L 229.560956 385.062791 
L 237.0607 385.062791 
L 235.208077 383.942252 
L 238.807985 383.942252 
L 238.193182 383.568739 
L 241.705618 383.568739 
L 240.477323 382.821713 
L 246.140146 382.821713 
L 245.523273 382.4482 
L 247.727437 382.4482 
L 246.5 381.701174 
L 248.665836 381.701174 
L 247.449117 380.954148 
L 249.577895 380.954148 
L 248.972727 380.580635 
L 268.7 380.580635 
L 268.073941 380.207122 
L 286.979635 380.207122 
L 286.341818 379.833609 
L 291.835015 379.833609 
L 291.197929 379.460096 
L 293.481818 379.460096 
L 292.847368 379.086583 
L 295.090435 379.086583 
L 294.458671 378.71307 
L 297.388286 378.71307 
L 296.133239 377.966044 
L 299.7 377.966044 
L 299.076536 377.592531 
L 307.897035 377.592531 
L 307.275 377.219018 
L 309.2232 377.219018 
L 307.988594 376.471992 
L 310.537795 376.471992 
L 309.925131 376.098479 
L 314.866154 376.098479 
L 314.256522 375.724966 
L 316.057614 375.724966 
L 314.847727 374.97794 
L 315.442065 374.97794 
L 314.841709 374.604427 
L 317.189552 374.604427 
L 316.592308 374.230914 
L 318.322906 374.230914 
L 317.728747 373.857401 
L 322.771154 373.857401 
L 322.180576 373.483888 
L 323.813571 373.483888 
L 323.226128 373.110375 
L 327.46993 373.110375 
L 326.886279 372.736862 
L 327.922917 372.736862 
L 326.764286 371.989836 
L 330.819231 371.989836 
L 329.673649 371.24281 
L 332.13608 371.24281 
L 331.002439 370.495784 
L 331.488717 370.495784 
L 330.925828 370.122271 
L 343.725156 370.122271 
L 343.170747 369.748758 
L 343.600621 369.748758 
L 343.04876 369.375245 
L 345.592653 369.375245 
L 345.044603 369.001732 
L 347.936747 369.001732 
L 347.392786 368.628219 
L 349.410714 368.628219 
L 348.870297 368.254706 
L 352.406031 368.254706 
L 351.870291 367.881193 
L 356.030418 367.881193 
L 355.5 367.50768 
L 356.971186 367.50768 
L 356.443985 367.134167 
L 357.17191 367.134167 
L 356.64729 366.760654 
L 358.088126 366.760654 
L 357.566667 366.387141 
L 358.279705 366.387141 
L 357.760773 366.013628 
L 358.469174 366.013628 
L 357.952747 365.640115 
L 359.006557 365.640115 
L 358.492909 365.266603 
L 362.933393 365.266603 
L 362.425532 364.89309 
L 364.080844 364.89309 
L 363.073555 364.146064 
L 363.401748 364.146064 
L 362.901047 363.772551 
L 367.694388 363.772551 
L 366.707288 363.025525 
L 370.676119 363.025525 
L 370.189073 362.652012 
L 371.671921 362.652012 
L 370.705728 361.904986 
L 374.174639 361.904986 
L 373.697596 361.531473 
L 377.85493 361.531473 
L 377.384063 361.15796 
L 378.994737 361.15796 
L 378.527202 360.784447 
L 383.942964 360.784447 
L 383.483408 360.410934 
L 384.724629 360.410934 
L 384.268 360.037421 
L 387.41468 360.037421 
L 386.963425 359.663908 
L 387.20087 359.663908 
L 386.75123 359.290395 
L 387.460375 359.290395 
L 386.56681 358.543369 
L 387.271674 358.543369 
L 385.94359 357.42283 
L 387.109477 357.42283 
L 386.670763 357.049317 
L 388.05 357.049317 
L 387.614266 356.675804 
L 388.972261 356.675804 
L 388.539474 356.302291 
L 389.210897 356.302291 
L 388.780165 355.928778 
L 389.888372 355.928778 
L 389.460246 355.555265 
L 390.771951 355.555265 
L 390.346685 355.181752 
L 393.538727 355.181752 
L 393.118808 354.808239 
L 393.949802 354.808239 
L 393.532105 354.434726 
L 395.170313 354.434726 
L 394.755917 354.061213 
L 395.362306 354.061213 
L 394.949806 353.6877 
L 400.585287 353.6877 
L 400.181694 353.314187 
L 400.742308 353.314187 
L 400.34052 352.940674 
L 401.817423 352.940674 
L 401.41875 352.567161 
L 402.509124 352.567161 
L 402.113001 352.193648 
L 403.897959 352.193648 
L 403.113772 351.446622 
L 404.16742 351.446622 
L 403.778266 351.073109 
L 405.162 351.073109 
L 404.775793 350.699596 
L 407.80046 350.699596 
L 407.419655 350.326083 
L 410.008916 350.326083 
L 409.63292 349.95257 
L 411.050893 349.95257 
L 410.677926 349.579057 
L 410.833964 349.579057 
L 417.087766 349.579057 
L 416.725824 349.205544 
L 416.868153 349.205544 
L 417.434461 349.205544 
L 417.074446 348.832031 
L 417.215506 348.832031 
L 421.31319 348.832031 
L 420.960981 348.458518 
L 421.093469 348.458518 
L 422.6625 348.458518 
L 421.965996 347.711492 
L 422.095477 347.711492 
L 422.994611 347.711492 
L 422.649153 347.337979 
L 422.776793 347.337979 
L 424.039349 347.337979 
L 423.480531 346.590953 
L 423.605599 346.590953 
L 423.264966 346.21744 
L 423.39 346.21744 
L 424.62699 346.21744 
L 424.289331 345.843927 
L 424.411919 345.843927 
L 428.097742 345.843927 
L 427.767293 345.470414 
L 427.882817 345.470414 
L 428.34275 345.470414 
L 428.013925 345.096901 
L 428.128571 345.096901 
L 429.711429 345.096901 
L 429.386188 344.723388 
L 429.497884 344.723388 
L 429.720661 344.723388 
L 429.396606 344.349875 
L 429.507883 344.349875 
L 431.584054 344.349875 
L 431.264446 343.976362 
L 431.371942 343.976362 
L 434.100527 343.976362 
L 433.26331 342.855823 
L 433.877613 342.855823 
L 433.56658 342.48231 
L 433.668522 342.48231 
L 434.377182 342.48231 
L 434.068135 342.108797 
L 434.168852 342.108797 
L 437.015909 342.108797 
L 436.7127 341.735284 
L 436.808571 341.735284 
L 437.569783 341.735284 
L 437.268641 341.361771 
L 437.36325 341.361771 
L 438.671417 341.361771 
L 438.373333 340.988258 
L 438.465789 340.988258 
L 438.742248 340.988258 
L 438.445328 340.614745 
L 438.537346 340.614745 
L 442.527725 340.614745 
L 442.238832 340.241232 
L 442.324448 340.241232 
L 444.668056 340.241232 
L 444.384194 339.867719 
L 444.466179 339.867719 
L 445.760959 339.867719 
L 445.480152 339.494206 
L 445.560182 339.494206 
L 446.511145 339.494206 
L 446.232731 339.120693 
L 446.311353 339.120693 
L 446.624663 339.120693 
L 446.347416 338.74718 
L 446.425599 338.74718 
L 447.277951 338.74718 
L 447.002893 338.373667 
L 447.079837 338.373667 
L 448.744201 338.373667 
L 448.472886 338.000154 
L 448.547414 338.000154 
L 448.844444 338.000154 
L 448.574238 337.626641 
L 448.648368 337.626641 
L 452.015217 337.626641 
L 451.558782 336.879615 
L 456.757759 336.879615 
L 456.505765 336.506102 
L 456.630576 336.506102 
L 457.249704 336.506102 
L 456.99954 336.132589 
L 457.122638 336.132589 
L 458.812693 336.132589 
L 458.566516 335.759076 
L 458.685145 335.759076 
L 458.980385 335.759076 
L 458.735362 335.385563 
L 458.853167 335.385563 
L 459.02931 335.385563 
L 458.785195 335.01205 
L 458.902486 335.01205 
L 459.715224 335.01205 
L 459.34707 334.265024 
L 460.090125 334.265024 
L 459.850531 333.891511 
L 459.964005 333.891511 
L 461.303934 333.891511 
L 461.067568 333.517998 
L 461.177669 333.517998 
L 461.232618 333.517998 
L 460.996875 333.144485 
L 461.106793 333.144485 
L 461.760693 333.144485 
L 461.526776 332.770972 
L 461.635052 332.770972 
L 462.172514 332.770972 
L 461.940181 332.397459 
L 462.047112 332.397459 
L 462.998036 332.397459 
L 462.768114 332.023946 
L 462.872727 332.023946 
L 463.443684 332.023946 
L 463.215398 331.650433 
L 463.318621 331.650433 
L 463.575617 331.650433 
L 463.348326 331.27692 
L 463.450909 331.27692 
L 464.31324 331.27692 
L 464.08816 330.903407 
L 464.188696 330.903407 
L 464.588517 330.903407 
L 464.364706 330.529894 
L 464.464286 330.529894 
L 465.007899 330.529894 
L 464.785641 330.156381 
L 464.883943 330.156381 
L 467.131052 330.156381 
L 466.913793 329.782868 
L 467.007 329.782868 
L 467.745264 329.782868 
L 467.529939 329.409355 
L 467.621495 329.409355 
L 468.526101 329.409355 
L 468.313043 329.035842 
L 468.402606 329.035842 
L 469.636364 329.035842 
L 469.426243 328.662329 
L 469.513134 328.662329 
L 470.583825 328.662329 
L 470.376303 328.288816 
L 470.503155 328.288816 
L 471.297345 328.288816 
L 471.091935 327.915303 
L 471.216156 327.915303 
L 472.796487 327.915303 
L 472.594809 327.54179 
L 472.714024 327.54179 
L 473.030162 327.54179 
L 472.82959 327.168277 
L 472.947727 327.168277 
L 473.571794 327.168277 
L 473.372959 326.794764 
L 473.4891 326.794764 
L 473.758744 326.794764 
L 473.560906 326.421251 
L 473.676131 326.421251 
L 473.867411 326.421251 
L 473.670402 326.047738 
L 473.78495 326.047738 
L 474.315044 326.047738 
L 474.119558 325.674225 
L 474.232434 325.674225 
L 475.850576 325.674225 
L 475.467322 324.927199 
L 475.575611 324.927199 
L 476.076868 324.927199 
L 475.886775 324.553686 
L 475.993539 324.553686 
L 477.044684 324.553686 
L 476.857163 324.180173 
L 476.96087 324.180173 
L 477.338651 324.180173 
L 477.152301 323.80666 
L 477.254875 323.80666 
L 477.391196 323.80666 
L 477.205512 323.433147 
L 477.307632 323.433147 
L 477.578571 323.433147 
L 477.310759 322.686121 
L 478.767959 322.686121 
L 478.586757 322.312608 
L 478.684211 322.312608 
L 478.81374 322.312608 
L 478.633169 321.939095 
L 478.730211 321.939095 
L 479.275222 321.939095 
L 478.949134 321.192069 
L 479.012916 321.192069 
L 480.203623 321.192069 
L 480.027487 320.818556 
L 480.12 320.818556 
L 480.150784 320.818556 
L 479.830361 320.07153 
L 479.892047 320.07153 
L 480.684315 320.07153 
L 480.510696 319.698017 
L 480.631261 319.698017 
L 480.960691 319.698017 
L 480.78814 319.324504 
L 480.907411 319.324504 
L 481.085556 319.324504 
L 480.913758 318.950991 
L 481.032259 318.950991 
L 481.994774 318.950991 
L 481.825324 318.577478 
L 481.940426 318.577478 
L 482.425352 318.577478 
L 482.257267 318.203965 
L 482.370608 318.203965 
L 483.070581 318.203965 
L 482.904294 317.830452 
L 483.01519 317.830452 
L 483.153301 317.830452 
L 482.987658 317.456939 
L 483.097967 317.456939 
L 483.508448 317.456939 
L 483.234262 316.709913 
L 483.28875 316.709913 
L 484.5444 316.709913 
L 484.382991 316.3364 
L 484.487915 316.3364 
L 484.74878 316.3364 
L 484.588242 315.962887 
L 484.692226 315.962887 
L 484.718171 315.962887 
L 484.398 315.215861 
L 484.501997 315.215861 
L 484.527945 315.215861 
L 484.075498 314.095322 
L 484.15363 314.095322 
L 484.438554 314.095322 
L 484.28007 313.721809 
L 484.383282 313.721809 
L 484.639915 313.721809 
L 484.350405 312.974783 
L 484.427255 312.974783 
L 484.605882 312.974783 
L 484.449039 312.60127 
L 484.550883 312.60127 
L 484.778891 312.60127 
L 484.622821 312.227757 
L 484.723855 312.227757 
L 485.422545 312.227757 
L 485.268177 311.854244 
L 485.366981 311.854244 
L 485.51463 311.854244 
L 485.360865 311.480731 
L 485.459122 311.480731 
L 486.401887 311.480731 
L 486.098817 310.733705 
L 486.218192 310.733705 
L 486.526515 310.733705 
L 486.375991 310.360192 
L 486.494027 310.360192 
L 486.868852 310.360192 
L 486.71941 309.986679 
L 486.835878 309.986679 
L 487.182755 309.986679 
L 486.978247 309.239654 
L 487.001262 309.239654 
L 487.139007 309.239654 
L 486.935548 308.492628 
L 486.958471 308.492628 
L 487.458654 308.492628 
L 487.312353 308.119115 
L 487.42516 308.119115 
L 487.582418 308.119115 
L 487.38104 307.372089 
L 487.403465 307.372089 
L 487.582299 307.372089 
L 487.437399 306.998576 
L 487.548874 306.998576 
L 487.858929 306.998576 
L 487.714946 306.625063 
L 487.825157 306.625063 
L 488.413707 306.625063 
L 488.271176 306.25155 
L 488.379171 306.25155 
L 488.78617 306.25155 
L 488.644734 305.878037 
L 488.751164 305.878037 
L 489.110317 305.878037 
L 488.969877 305.504524 
L 489.074924 305.504524 
L 489.574216 305.504524 
L 489.43504 305.131011 
L 489.538244 305.131011 
L 492.611118 305.131011 
L 492.478218 304.757498 
L 492.589767 304.757498 
L 492.71937 304.757498 
L 492.587027 304.383985 
L 492.697874 304.383985 
L 492.734729 304.383985 
L 492.563165 303.636959 
L 492.581588 303.636959 
L 493.201127 303.636959 
L 493.070745 303.263446 
L 493.178919 303.263446 
L 493.942465 303.263446 
L 493.813863 302.889933 
L 493.919004 302.889933 
L 494.110757 302.889933 
L 493.796972 301.769394 
L 493.831815 301.769394 
L 494.212295 301.769394 
L 493.958829 301.022368 
L 494.062114 301.022368 
L 494.539189 301.022368 
L 494.41369 300.648855 
L 494.515073 300.648855 
L 495 300.648855 
L 494.875705 300.275342 
L 494.991731 300.275342 
L 496.062471 300.275342 
L 495.940541 299.901829 
L 496.051914 299.901829 
L 496.067788 299.901829 
L 495.946174 299.528316 
L 496.057246 299.528316 
L 496.199394 299.528316 
L 495.883929 298.407777 
L 495.947123 298.407777 
L 496.229708 298.407777 
L 496.109614 298.034264 
L 496.218932 298.034264 
L 496.54428 298.034264 
L 496.305957 297.287238 
L 496.413958 297.287238 
L 496.917391 297.287238 
L 496.799495 296.913725 
L 496.90529 296.913725 
L 497.722326 296.913725 
L 497.606255 296.540212 
L 497.708663 296.540212 
L 497.926787 296.540212 
L 497.811391 296.166699 
L 497.927213 296.166699 
L 498.1 296.166699 
L 497.985216 295.793186 
L 498.1 295.793186 
L 498.624449 295.793186 
L 498.510944 295.419673 
L 498.623182 295.419673 
L 499.880126 295.419673 
L 499.769293 295.04616 
L 499.87594 295.04616 
L 500.035078 295.04616 
L 499.924811 294.672647 
L 500.030553 294.672647 
L 500.148989 294.672647 
L 500.039207 294.299134 
L 500.14422 294.299134 
L 500.157316 294.299134 
L 500.030204 293.552108 
L 500.043296 293.552108 
L 500.069459 293.552108 
L 499.96032 293.178595 
L 500.064901 293.178595 
L 500.721624 293.178595 
L 500.613981 292.805082 
L 500.728329 292.805082 
L 501.354225 292.805082 
L 501.228611 292.058056 
L 501.253328 292.058056 
L 502.103185 292.058056 
L 501.906685 291.31103 
L 502.002273 291.31103 
L 503.098065 291.31103 
L 502.996179 290.937517 
L 503.110079 290.937517 
L 503.336258 290.937517 
L 503.133918 290.190491 
L 503.24663 290.190491 
L 503.269109 290.190491 
L 503.168266 289.816978 
L 503.280552 289.816978 
L 503.558964 289.816978 
L 503.458903 289.443465 
L 503.569565 289.443465 
L 503.679711 289.443465 
L 503.580112 289.069952 
L 503.689951 289.069952 
L 503.821086 289.069952 
L 503.721985 288.696439 
L 503.830912 288.696439 
L 504.778599 288.696439 
L 504.681528 288.322926 
L 504.796224 288.322926 
L 505.188097 288.322926 
L 505.092022 287.949413 
L 505.204427 287.949413 
L 505.265506 287.949413 
L 505.169799 287.5759 
L 505.281563 287.5759 
L 505.392781 287.5759 
L 505.283178 286.828874 
L 505.313422 286.828874 
L 505.712865 286.828874 
L 505.554276 286.081848 
L 505.633516 286.081848 
L 506.22871 286.081848 
L 506.072098 285.334822 
L 506.149181 285.334822 
L 506.728322 285.334822 
L 506.6393 284.587796 
L 506.658024 284.587796 
L 506.704765 284.587796 
L 506.613678 284.214283 
L 506.72566 284.214283 
L 506.734966 284.214283 
L 506.644142 283.84077 
L 506.755717 283.84077 
L 507.059661 283.84077 
L 506.969642 283.467257 
L 507.079333 283.467257 
L 508.456918 283.467257 
L 508.325373 282.720231 
L 508.393798 282.720231 
L 509.386195 282.720231 
L 509.301081 282.346718 
L 509.415 282.346718 
L 509.632943 282.346718 
L 509.544483 281.599692 
L 509.57657 281.599692 
L 509.696452 281.599692 
L 509.612483 281.226179 
L 509.723951 281.226179 
L 510.472348 281.226179 
L 510.472348 281.226179 
" style="fill:none;stroke:#ff7f0e;stroke-linecap:square;stroke-width:2;"/>
   </g>
   <g id="line2d_47">
    <path clip-path="url(#p9c50f8f3d5)" d="M 76.5 448.186487 
L 76.5 381.327661 
L 79.120442 381.327661 
L 78.626906 365.640115 
L 78.617411 365.266603 
L 80.716 365.266603 
L 80.309639 356.302291 
L 82.1916 356.302291 
L 81.869434 350.699596 
L 83.632331 350.699596 
L 83.449451 348.085005 
L 85.155109 348.085005 
L 84.969643 345.843927 
L 86.627402 345.843927 
L 86.017726 339.120693 
L 87.567 339.120693 
L 87.279545 336.132589 
L 90.27 336.132589 
L 90.181731 335.385563 
L 91.653355 335.385563 
L 91.093846 330.903407 
L 93.905505 330.903407 
L 93.540719 328.288816 
L 94.905672 328.288816 
L 94.850893 327.915303 
L 96.203858 327.915303 
L 95.915789 326.047738 
L 98.560465 326.047738 
L 98.059091 323.059634 
L 99.341643 323.059634 
L 98.959889 320.818556 
L 100.215 320.818556 
L 99.954396 319.324504 
L 101.189589 319.324504 
L 100.921951 317.830452 
L 102.137838 317.830452 
L 102 317.083426 
L 104.4 317.083426 
L 103.959474 314.842348 
L 105.132283 314.842348 
L 104.328827 310.733705 
L 105.464885 310.733705 
L 104.887032 307.745602 
L 107.1 307.745602 
L 107.024257 307.372089 
L 108.12 307.372089 
L 107.582767 304.757498 
L 108.655932 304.757498 
L 108.500964 304.010472 
L 109.564183 304.010472 
L 109.405981 303.263446 
L 110.459427 303.263446 
L 110.378571 302.889933 
L 111.424703 302.889933 
L 111.341943 302.51642 
L 114.444 302.51642 
L 114.35493 302.142907 
L 115.377049 302.142907 
L 115.286215 301.769394 
L 116.301399 301.769394 
L 115.662385 299.154803 
L 116.658124 299.154803 
L 116.475171 298.407777 
L 117.462273 298.407777 
L 116.911211 296.166699 
L 121.721508 296.166699 
L 121.62146 295.793186 
L 126.317068 295.793186 
L 126.208297 295.419673 
L 128.971367 295.419673 
L 128.632112 294.299134 
L 129.54 294.299134 
L 129.312848 293.552108 
L 130.213462 293.552108 
L 129.984894 292.805082 
L 133.536076 292.805082 
L 133.416 292.431569 
L 134.292857 292.431569 
L 134.171698 292.058056 
L 135.043305 292.058056 
L 134.799375 291.31103 
L 136.525519 291.31103 
L 136.154227 290.190491 
L 137.857084 290.190491 
L 137.731352 289.816978 
L 138.576074 289.816978 
L 137.947773 287.949413 
L 138.781818 287.949413 
L 138.531187 287.202387 
L 140.183567 287.202387 
L 139.426931 284.961309 
L 140.239921 284.961309 
L 140.114201 284.587796 
L 142.53 284.587796 
L 142.400783 284.214283 
L 143.198438 284.214283 
L 143.068421 283.84077 
L 143.861673 283.84077 
L 143.730874 283.467257 
L 144.519767 283.467257 
L 144.388201 283.093744 
L 145.954335 283.093744 
L 145.820769 282.720231 
L 147.372414 282.720231 
L 147.236902 282.346718 
L 148.007061 282.346718 
L 147.870857 281.973205 
L 149.4 281.973205 
L 149.124386 281.226179 
L 149.882264 281.226179 
L 149.469231 280.10564 
L 151.715485 280.10564 
L 151.575419 279.732127 
L 152.317472 279.732127 
L 152.036667 278.985101 
L 153.508118 278.985101 
L 153.08422 277.864562 
L 154.538391 277.864562 
L 154.254098 277.117536 
L 154.975091 277.117536 
L 154.549367 275.996997 
L 155.264621 275.996997 
L 154.840395 274.876458 
L 155.55 274.876458 
L 155.267679 274.129432 
L 158.072872 274.129432 
L 157.784629 273.382406 
L 158.477778 273.382406 
L 158.046316 272.261867 
L 159.41958 272.261867 
L 159.274869 271.888354 
L 159.956969 271.888354 
L 159.811826 271.514841 
L 160.490625 271.514841 
L 160.345061 271.141328 
L 161.693782 271.141328 
L 161.546897 270.767815 
L 164.213014 270.767815 
L 164.063077 270.394302 
L 164.723038 270.394302 
L 164.572743 270.020789 
L 166.53661 270.020789 
L 166.384264 269.647276 
L 167.680776 269.647276 
L 167.374286 268.90025 
L 168.658794 268.90025 
L 168.198 267.779711 
L 170.731788 267.779711 
L 170.266063 266.659172 
L 172.757283 266.659172 
L 172.44323 265.912146 
L 174.285877 265.912146 
L 174.127391 265.538633 
L 174.736893 265.538633 
L 173.792308 263.297555 
L 174.39552 263.297555 
L 173.927866 262.177016 
L 175.124286 262.177016 
L 174.967987 261.803503 
L 177.922642 261.803503 
L 177.763422 261.42999 
L 178.930986 261.42999 
L 178.611388 260.682964 
L 180.345186 260.682964 
L 180.184186 260.309451 
L 180.757895 260.309451 
L 180.596754 259.935938 
L 181.168056 259.935938 
L 180.846 259.188912 
L 181.980828 259.188912 
L 181.819296 258.815399 
L 182.383486 258.815399 
L 181.739818 257.321347 
L 182.299848 257.321347 
L 181.979728 256.574321 
L 184.748649 256.574321 
L 184.263229 255.453782 
L 184.810299 255.453782 
L 184.648882 255.080269 
L 189.495 255.080269 
L 188.998682 253.959731 
L 190.580904 253.959731 
L 190.249273 253.212705 
L 191.294348 253.212705 
L 191.12822 252.839192 
L 192.682997 252.839192 
L 192.349138 252.092166 
L 192.863415 252.092166 
L 192.696705 251.718653 
L 194.229244 251.718653 
L 193.89431 250.971627 
L 196.914669 250.971627 
L 196.74507 250.598114 
L 197.243038 250.598114 
L 197.073455 250.224601 
L 199.540167 250.224601 
L 199.368802 249.851088 
L 199.85758 249.851088 
L 199.345014 248.730549 
L 199.83112 248.730549 
L 199.660773 248.357036 
L 200.145103 248.357036 
L 199.974793 247.983523 
L 200.457359 247.983523 
L 200.287088 247.61001 
L 201.247397 247.61001 
L 201.076744 247.236497 
L 201.554508 247.236497 
L 201.044082 246.115958 
L 201.519293 246.115958 
L 201.349661 245.742445 
L 201.823171 245.742445 
L 201.653586 245.368932 
L 203.533244 245.368932 
L 203.3625 244.995419 
L 205.220455 244.995419 
L 205.048598 244.621906 
L 205.5096 244.621906 
L 205.166489 243.87488 
L 206.539868 243.87488 
L 206.367857 243.501367 
L 208.180658 243.501367 
L 208.007622 243.127854 
L 210.689179 243.127854 
L 210.340182 242.380828 
L 216.427586 242.380828 
L 216.249107 242.007315 
L 217.100382 242.007315 
L 216.921728 241.633802 
L 217.345431 241.633802 
L 217.16692 241.260289 
L 217.589241 241.260289 
L 217.410872 240.886776 
L 218.251702 240.886776 
L 218.073174 240.513263 
L 218.909171 240.513263 
L 218.730489 240.13975 
L 221.211706 240.13975 
L 221.031716 239.766237 
L 221.85 239.766237 
L 221.669888 239.392724 
L 225.3 239.392724 
L 225.11787 239.019211 
L 234.41201 239.019211 
L 234.224466 238.645698 
L 235.721277 238.645698 
L 235.533294 238.272185 
L 237.750879 238.272185 
L 237.373684 237.525159 
L 239.19593 237.525159 
L 239.006969 237.151646 
L 240.807159 237.151646 
L 240.617647 236.778133 
L 242.396216 236.778133 
L 242.206186 236.40462 
L 242.559268 236.40462 
L 242.369486 236.031107 
L 248.247646 236.031107 
L 248.055319 235.657594 
L 248.39396 235.657594 
L 248.201899 235.284081 
L 250.550222 235.284081 
L 250.357475 234.910568 
L 252.995829 234.910568 
L 252.802303 234.537055 
L 262.292675 234.537055 
L 262.095652 234.163542 
L 263.618354 234.163542 
L 263.224421 233.416516 
L 263.526814 233.416516 
L 263.330357 233.043003 
L 263.632004 233.043003 
L 263.435849 232.66949 
L 265.825572 232.66949 
L 265.628972 232.295977 
L 267.101963 232.295977 
L 266.905263 231.922464 
L 268.652308 231.922464 
L 268.45543 231.548951 
L 273.56831 231.548951 
L 273.370251 231.175438 
L 276.130746 231.175438 
L 275.932306 230.801925 
L 284.14918 230.801925 
L 283.949133 230.428412 
L 291.201874 230.428412 
L 291.000843 230.054899 
L 291.486449 230.054899 
L 291.285714 229.681386 
L 291.527799 229.681386 
L 291.3274 229.307873 
L 296.308135 229.307873 
L 296.107397 228.93436 
L 297.495368 228.93436 
L 297.294828 228.560847 
L 300.699105 228.560847 
L 300.498569 228.187334 
L 300.945536 228.187334 
L 300.745317 227.813821 
L 301.6344 227.813821 
L 301.434458 227.440308 
L 303.411806 227.440308 
L 303.21206 227.066795 
L 303.864179 227.066795 
L 303.465644 226.319769 
L 304.114248 226.319769 
L 303.915459 225.946256 
L 304.13089 225.946256 
L 303.932432 225.572743 
L 305.003906 225.572743 
L 304.805724 225.19923 
L 313.053646 225.19923 
L 312.460284 224.078691 
L 316.95726 224.078691 
L 316.760164 223.705178 
L 317.33426 223.705178 
L 317.1375 223.331665 
L 319.593129 223.331665 
L 319.396769 222.958152 
L 321.984345 222.958152 
L 321.788428 222.584639 
L 323.060714 222.584639 
L 322.865186 222.211126 
L 323.406171 222.211126 
L 323.210988 221.837613 
L 324.285366 221.837613 
L 324.090566 221.4641 
L 325.331353 221.4641 
L 325.136953 221.090587 
L 325.489002 221.090587 
L 325.294934 220.717074 
L 328.585714 220.717074 
L 328.392249 220.343561 
L 337.085177 220.343561 
L 336.893147 219.970048 
L 338.613158 219.970048 
L 338.230511 219.223022 
L 340.076266 219.223022 
L 339.885683 218.849509 
L 345.525897 218.849509 
L 345.336709 218.475996 
L 347.056067 218.475996 
L 346.867526 218.102483 
L 347.85749 218.102483 
L 347.669439 217.72897 
L 348.650069 217.72897 
L 348.462509 217.355457 
L 349.984884 217.355457 
L 349.797949 216.981944 
L 352.240918 216.981944 
L 352.054858 216.608431 
L 352.188874 216.608431 
L 352.0031 216.234918 
L 353.861015 216.234918 
L 353.675984 215.861405 
L 357.29057 215.861405 
L 357.106806 215.487892 
L 363.718331 215.487892 
L 363.536892 215.114379 
L 363.655114 215.114379 
L 365.294681 215.114379 
L 365.114071 214.740866 
L 365.230125 214.740866 
L 365.808224 214.740866 
L 365.628082 214.367353 
L 365.743311 214.367353 
L 366.887755 214.367353 
L 366.708282 213.99384 
L 366.821989 213.99384 
L 369.177805 213.99384 
L 368.999452 213.620327 
L 369.110171 213.620327 
L 379.145972 213.620327 
L 378.971938 213.246814 
L 379.07069 213.246814 
L 379.464564 213.246814 
L 379.290946 212.873301 
L 379.389175 212.873301 
L 379.585297 212.873301 
L 379.412007 212.499788 
L 379.509943 212.499788 
L 381.827283 212.499788 
L 381.655268 212.126275 
L 381.750507 212.126275 
L 382.697032 212.126275 
L 382.525686 211.752762 
L 382.619799 211.752762 
L 383.182274 211.752762 
L 383.011421 211.379249 
L 383.104844 211.379249 
L 385.225234 211.379249 
L 385.055604 211.005736 
L 385.146623 211.005736 
L 386.141266 211.005736 
L 385.97234 210.632223 
L 386.062214 210.632223 
L 389.836175 210.632223 
L 389.669329 210.25871 
L 389.755082 210.25871 
L 390.437838 210.25871 
L 390.105453 209.511684 
L 390.190476 209.511684 
L 391.287651 209.511684 
L 391.122321 209.138171 
L 391.206142 209.138171 
L 392.12239 209.138171 
L 391.957746 208.764658 
L 392.040563 208.764658 
L 397.707692 208.764658 
L 397.546281 208.391145 
L 397.623255 208.391145 
L 399.297317 208.391145 
L 399.137041 208.017632 
L 399.212308 208.017632 
L 399.960889 208.017632 
L 399.801234 207.644119 
L 399.875728 207.644119 
L 399.950148 207.644119 
L 399.790734 207.270606 
L 399.865123 207.270606 
L 402.063204 207.270606 
L 401.90524 206.897093 
L 401.977449 206.897093 
L 402.480957 206.897093 
L 402.237886 206.150067 
L 403.517368 206.150067 
L 403.360976 205.776554 
L 403.431453 205.776554 
L 403.922916 205.776554 
L 403.767 205.403041 
L 403.836982 205.403041 
L 404.53316 205.403041 
L 404.377841 205.029528 
L 404.447137 205.029528 
L 404.654631 205.029528 
L 404.499622 204.656015 
L 404.568697 204.656015 
L 405.324237 204.656015 
L 405.084006 203.908989 
L 407.833364 203.908989 
L 407.680957 203.535476 
L 407.746759 203.535476 
L 410.520108 203.535476 
L 410.369581 203.161963 
L 410.432838 203.161963 
L 412.978195 203.161963 
L 412.829443 202.78845 
L 412.890411 202.78845 
L 413.617846 202.78845 
L 413.469728 202.414937 
L 413.53004 202.414937 
L 414.130258 202.414937 
L 413.982692 202.041424 
L 414.042464 202.041424 
L 418.660701 202.041424 
L 418.516329 201.667911 
L 418.627867 201.667911 
L 420.495636 201.667911 
L 420.264134 200.920885 
L 420.318299 200.920885 
L 422.028133 200.920885 
L 421.886697 200.547372 
L 421.992147 200.547372 
L 422.621245 200.547372 
L 422.480431 200.173859 
L 422.584756 200.173859 
L 424.027693 200.173859 
L 423.888067 199.800346 
L 423.989964 199.800346 
L 425.100119 199.800346 
L 424.961456 199.426833 
L 425.061486 199.426833 
L 425.360626 199.426833 
L 425.222354 199.053321 
L 425.321822 199.053321 
L 425.964539 199.053321 
L 425.8269 198.679808 
L 425.925266 198.679808 
L 426.170503 198.679808 
L 426.033216 198.306295 
L 426.13111 198.306295 
L 426.228851 198.306295 
L 426.09181 197.932782 
L 426.189468 197.932782 
L 427.30163 197.932782 
L 427.165555 197.559269 
L 427.261395 197.559269 
L 430.796386 197.559269 
L 430.663041 197.185756 
L 430.753404 197.185756 
L 431.382155 197.185756 
L 431.249439 196.812243 
L 431.338789 196.812243 
L 431.561581 196.812243 
L 431.429195 196.43873 
L 431.518145 196.43873 
L 432.923527 196.43873 
L 432.792344 196.065217 
L 432.879147 196.065217 
L 433.225083 196.065217 
L 433.094318 195.691704 
L 433.180549 195.691704 
L 434.795267 195.691704 
L 434.665872 195.318191 
L 434.749693 195.318191 
L 437.048532 195.318191 
L 436.793637 194.571165 
L 436.874179 194.571165 
L 437.434798 194.571165 
L 437.307976 194.197652 
L 437.387676 194.197652 
L 437.942453 194.197652 
L 437.690049 193.450626 
L 437.768981 193.450626 
L 438.396495 193.450626 
L 438.270968 193.077113 
L 438.387942 193.077113 
L 441.235258 193.077113 
L 441.11212 192.7036 
L 441.223103 192.7036 
L 442.645706 192.7036 
L 442.52386 192.330087 
L 442.631848 192.330087 
L 444.504737 192.330087 
L 444.384553 191.956574 
L 444.488711 191.956574 
L 444.972101 191.956574 
L 444.732911 191.209548 
L 444.836089 191.209548 
L 445.518847 191.209548 
L 445.4 190.836035 
L 445.501737 190.836035 
L 446.208437 190.836035 
L 446.090319 190.462522 
L 446.190584 190.462522 
L 446.755143 190.462522 
L 446.637639 190.089009 
L 446.736715 190.089009 
L 448.679403 190.089009 
L 448.563639 189.715496 
L 448.65895 189.715496 
L 448.975372 189.715496 
L 448.860019 189.341983 
L 448.954641 189.341983 
L 459.618781 189.341983 
L 459.512683 188.96847 
L 459.613693 188.96847 
L 459.664114 188.96847 
L 459.558209 188.594957 
L 459.658973 188.594957 
L 461.532071 188.594957 
L 461.427981 188.221444 
L 461.524521 188.221444 
L 462.218248 188.221444 
L 462.114921 187.847931 
L 462.209847 187.847931 
L 462.257235 187.847931 
L 462.154091 187.474418 
L 462.248798 187.474418 
L 462.555204 187.474418 
L 462.452475 187.100905 
L 462.546411 187.100905 
L 463.451934 187.100905 
L 463.350158 186.727392 
L 463.465012 186.727392 
L 463.487946 186.727392 
L 463.386348 186.353879 
L 463.500944 186.353879 
L 465.904895 186.353879 
L 465.805633 185.980366 
L 465.913824 185.980366 
L 466.896402 185.980366 
L 466.742308 185.23334 
L 466.805652 185.23334 
L 467.204625 185.23334 
L 467.106973 184.859827 
L 467.211433 184.859827 
L 469.995029 184.859827 
L 469.900097 184.486314 
L 469.997566 184.486314 
L 471.205863 184.486314 
L 471.112197 184.112801 
L 471.225498 184.112801 
L 472.194101 184.112801 
L 472.101498 183.739288 
L 472.211849 183.739288 
L 472.55926 183.739288 
L 472.467132 183.365775 
L 472.576307 183.365775 
L 472.703293 183.365775 
L 472.611431 182.992262 
L 472.720051 182.992262 
L 475.188498 182.992262 
L 475.099126 182.618749 
L 475.200806 182.618749 
L 475.655007 182.618749 
L 475.566207 182.245236 
L 475.666496 182.245236 
L 477.538323 182.245236 
L 477.451462 181.871723 
L 477.5625 181.871723 
L 478.577735 181.871723 
L 478.492004 181.49821 
L 478.599766 181.49821 
L 478.6612 181.49821 
L 478.57567 181.124697 
L 478.683032 181.124697 
L 483.218149 181.124697 
L 483.137226 180.751184 
L 483.244756 180.751184 
L 486.257753 180.751184 
L 486.257753 180.751184 
" style="fill:none;stroke:#2ca02c;stroke-linecap:square;stroke-width:2;"/>
   </g>
   <g id="patch_3">
    <path d="M 76.5 448.56 
L 76.5 60.48 
" style="fill:none;stroke:#000000;stroke-linecap:square;stroke-linejoin:miter;stroke-width:0.8;"/>
   </g>
   <g id="patch_4">
    <path d="M 550.8 448.56 
L 550.8 60.48 
" style="fill:none;stroke:#000000;stroke-linecap:square;stroke-linejoin:miter;stroke-width:0.8;"/>
   </g>
   <g id="patch_5">
    <path d="M 76.5 448.56 
L 550.8 448.56 
" style="fill:none;stroke:#000000;stroke-linecap:square;stroke-linejoin:miter;stroke-width:0.8;"/>
   </g>
   <g id="patch_6">
    <path d="M 76.5 60.48 
L 550.8 60.48 
" style="fill:none;stroke:#000000;stroke-linecap:square;stroke-linejoin:miter;stroke-width:0.8;"/>
   </g>
   <g id="text_25">
    <!-- boat: img1-img4 -->
    <defs>
     <path d="M 48.6875 27.296875 
Q 48.6875 37.203125 44.609375 42.84375 
Q 40.53125 48.484375 33.40625 48.484375 
Q 26.265625 48.484375 22.1875 42.84375 
Q 18.109375 37.203125 18.109375 27.296875 
Q 18.109375 17.390625 22.1875 11.75 
Q 26.265625 6.109375 33.40625 6.109375 
Q 40.53125 6.109375 44.609375 11.75 
Q 48.6875 17.390625 48.6875 27.296875 
z
M 18.109375 46.390625 
Q 20.953125 51.265625 25.265625 53.625 
Q 29.59375 56 35.59375 56 
Q 45.5625 56 51.78125 48.09375 
Q 58.015625 40.1875 58.015625 27.296875 
Q 58.015625 14.40625 51.78125 6.484375 
Q 45.5625 -1.421875 35.59375 -1.421875 
Q 29.59375 -1.421875 25.265625 0.953125 
Q 20.953125 3.328125 18.109375 8.203125 
L 18.109375 0 
L 9.078125 0 
L 9.078125 75.984375 
L 18.109375 75.984375 
z
" id="DejaVuSans-98"/>
     <path d="M 34.28125 27.484375 
Q 23.390625 27.484375 19.1875 25 
Q 14.984375 22.515625 14.984375 16.5 
Q 14.984375 11.71875 18.140625 8.90625 
Q 21.296875 6.109375 26.703125 6.109375 
Q 34.1875 6.109375 38.703125 11.40625 
Q 43.21875 16.703125 43.21875 25.484375 
L 43.21875 27.484375 
z
M 52.203125 31.203125 
L 52.203125 0 
L 43.21875 0 
L 43.21875 8.296875 
Q 40.140625 3.328125 35.546875 0.953125 
Q 30.953125 -1.421875 24.3125 -1.421875 
Q 15.921875 -1.421875 10.953125 3.296875 
Q 6 8.015625 6 15.921875 
Q 6 25.140625 12.171875 29.828125 
Q 18.359375 34.515625 30.609375 34.515625 
L 43.21875 34.515625 
L 43.21875 35.40625 
Q 43.21875 41.609375 39.140625 45 
Q 35.0625 48.390625 27.6875 48.390625 
Q 23 48.390625 18.546875 47.265625 
Q 14.109375 46.140625 10.015625 43.890625 
L 10.015625 52.203125 
Q 14.9375 54.109375 19.578125 55.046875 
Q 24.21875 56 28.609375 56 
Q 40.484375 56 46.34375 49.84375 
Q 52.203125 43.703125 52.203125 31.203125 
z
" id="DejaVuSans-97"/>
     <path d="M 11.71875 12.40625 
L 22.015625 12.40625 
L 22.015625 0 
L 11.71875 0 
z
M 11.71875 51.703125 
L 22.015625 51.703125 
L 22.015625 39.3125 
L 11.71875 39.3125 
z
" id="DejaVuSans-58"/>
     <path id="DejaVuSans-32"/>
     <path d="M 52 44.1875 
Q 55.375 50.25 60.0625 53.125 
Q 64.75 56 71.09375 56 
Q 79.640625 56 84.28125 50.015625 
Q 88.921875 44.046875 88.921875 33.015625 
L 88.921875 0 
L 79.890625 0 
L 79.890625 32.71875 
Q 79.890625 40.578125 77.09375 44.375 
Q 74.3125 48.1875 68.609375 48.1875 
Q 61.625 48.1875 57.5625 43.546875 
Q 53.515625 38.921875 53.515625 30.90625 
L 53.515625 0 
L 44.484375 0 
L 44.484375 32.71875 
Q 44.484375 40.625 41.703125 44.40625 
Q 38.921875 48.1875 33.109375 48.1875 
Q 26.21875 48.1875 22.15625 43.53125 
Q 18.109375 38.875 18.109375 30.90625 
L 18.109375 0 
L 9.078125 0 
L 9.078125 54.6875 
L 18.109375 54.6875 
L 18.109375 46.1875 
Q 21.1875 51.21875 25.484375 53.609375 
Q 29.78125 56 35.6875 56 
Q 41.65625 56 45.828125 52.96875 
Q 50 49.953125 52 44.1875 
z
" id="DejaVuSans-109"/>
     <path d="M 45.40625 27.984375 
Q 45.40625 37.75 41.375 43.109375 
Q 37.359375 48.484375 30.078125 48.484375 
Q 22.859375 48.484375 18.828125 43.109375 
Q 14.796875 37.75 14.796875 27.984375 
Q 14.796875 18.265625 18.828125 12.890625 
Q 22.859375 7.515625 30.078125 7.515625 
Q 37.359375 7.515625 41.375 12.890625 
Q 45.40625 18.265625 45.40625 27.984375 
z
M 54.390625 6.78125 
Q 54.390625 -7.171875 48.1875 -13.984375 
Q 42 -20.796875 29.203125 -20.796875 
Q 24.46875 -20.796875 20.265625 -20.09375 
Q 16.0625 -19.390625 12.109375 -17.921875 
L 12.109375 -9.1875 
Q 16.0625 -11.328125 19.921875 -12.34375 
Q 23.78125 -13.375 27.78125 -13.375 
Q 36.625 -13.375 41.015625 -8.765625 
Q 45.40625 -4.15625 45.40625 5.171875 
L 45.40625 9.625 
Q 42.625 4.78125 38.28125 2.390625 
Q 33.9375 0 27.875 0 
Q 17.828125 0 11.671875 7.65625 
Q 5.515625 15.328125 5.515625 27.984375 
Q 5.515625 40.671875 11.671875 48.328125 
Q 17.828125 56 27.875 56 
Q 33.9375 56 38.28125 53.609375 
Q 42.625 51.21875 45.40625 46.390625 
L 45.40625 54.6875 
L 54.390625 54.6875 
z
" id="DejaVuSans-103"/>
    </defs>
    <g transform="translate(263.772188 41.042625)scale(0.12 -0.12)">
     <use xlink:href="#DejaVuSans-98"/>
     <use x="63.476562" xlink:href="#DejaVuSans-111"/>
     <use x="124.658203" xlink:href="#DejaVuSans-97"/>
     <use x="185.9375" xlink:href="#DejaVuSans-116"/>
     <use x="225.146484" xlink:href="#DejaVuSans-58"/>
     <use x="258.837891" xlink:href="#DejaVuSans-32"/>
     <use x="290.625" xlink:href="#DejaVuSans-105"/>
     <use x="318.408203" xlink:href="#DejaVuSans-109"/>
     <use x="415.820312" xlink:href="#DejaVuSans-103"/>
     <use x="479.296875" xlink:href="#DejaVuSans-49"/>
     <use x="542.919922" xlink:href="#DejaVuSans-45"/>
     <use x="579.003906" xlink:href="#DejaVuSans-105"/>
     <use x="606.787109" xlink:href="#DejaVuSans-109"/>
     <use x="704.199219" xlink:href="#DejaVuSans-103"/>
     <use x="767.675781" xlink:href="#DejaVuSans-52"/>
    </g>
    <!-- NearestNeighbours -->
    <defs>
     <path d="M 9.8125 72.90625 
L 23.09375 72.90625 
L 55.421875 11.921875 
L 55.421875 72.90625 
L 64.984375 72.90625 
L 64.984375 0 
L 51.703125 0 
L 19.390625 60.984375 
L 19.390625 0 
L 9.8125 0 
z
" id="DejaVuSans-78"/>
     <path d="M 54.890625 33.015625 
L 54.890625 0 
L 45.90625 0 
L 45.90625 32.71875 
Q 45.90625 40.484375 42.875 44.328125 
Q 39.84375 48.1875 33.796875 48.1875 
Q 26.515625 48.1875 22.3125 43.546875 
Q 18.109375 38.921875 18.109375 30.90625 
L 18.109375 0 
L 9.078125 0 
L 9.078125 75.984375 
L 18.109375 75.984375 
L 18.109375 46.1875 
Q 21.34375 51.125 25.703125 53.5625 
Q 30.078125 56 35.796875 56 
Q 45.21875 56 50.046875 50.171875 
Q 54.890625 44.34375 54.890625 33.015625 
z
" id="DejaVuSans-104"/>
     <path d="M 8.5 21.578125 
L 8.5 54.6875 
L 17.484375 54.6875 
L 17.484375 21.921875 
Q 17.484375 14.15625 20.5 10.265625 
Q 23.53125 6.390625 29.59375 6.390625 
Q 36.859375 6.390625 41.078125 11.03125 
Q 45.3125 15.671875 45.3125 23.6875 
L 45.3125 54.6875 
L 54.296875 54.6875 
L 54.296875 0 
L 45.3125 0 
L 45.3125 8.40625 
Q 42.046875 3.421875 37.71875 1 
Q 33.40625 -1.421875 27.6875 -1.421875 
Q 18.265625 -1.421875 13.375 4.4375 
Q 8.5 10.296875 8.5 21.578125 
z
M 31.109375 56 
z
" id="DejaVuSans-117"/>
    </defs>
    <g transform="translate(255.957188 54.48)scale(0.12 -0.12)">
     <use xlink:href="#DejaVuSans-78"/>
     <use x="74.804688" xlink:href="#DejaVuSans-101"/>
     <use x="136.328125" xlink:href="#DejaVuSans-97"/>
     <use x="197.607422" xlink:href="#DejaVuSans-114"/>
     <use x="236.470703" xlink:href="#DejaVuSans-101"/>
     <use x="297.994141" xlink:href="#DejaVuSans-115"/>
     <use x="350.09375" xlink:href="#DejaVuSans-116"/>
     <use x="389.302734" xlink:href="#DejaVuSans-78"/>
     <use x="464.107422" xlink:href="#DejaVuSans-101"/>
     <use x="525.630859" xlink:href="#DejaVuSans-105"/>
     <use x="553.414062" xlink:href="#DejaVuSans-103"/>
     <use x="616.890625" xlink:href="#DejaVuSans-104"/>
     <use x="680.269531" xlink:href="#DejaVuSans-98"/>
     <use x="743.746094" xlink:href="#DejaVuSans-111"/>
     <use x="804.927734" xlink:href="#DejaVuSans-117"/>
     <use x="868.306641" xlink:href="#DejaVuSans-114"/>
     <use x="909.419922" xlink:href="#DejaVuSans-115"/>
    </g>
   </g>
   <g id="legend_1">
    <g id="patch_7">
     <path d="M 362.659375 112.514375 
L 543.8 112.514375 
Q 545.8 112.514375 545.8 110.514375 
L 545.8 67.48 
Q 545.8 65.48 543.8 65.48 
L 362.659375 65.48 
Q 360.659375 65.48 360.659375 67.48 
L 360.659375 110.514375 
Q 360.659375 112.514375 362.659375 112.514375 
z
" style="fill:#ffffff;opacity:0.8;stroke:#cccccc;stroke-linejoin:miter;"/>
    </g>
    <g id="line2d_48">
     <path d="M 364.659375 73.578438 
L 384.659375 73.578438 
" style="fill:none;stroke:#1f77b4;stroke-linecap:square;stroke-width:2;"/>
    </g>
    <g id="line2d_49"/>
    <g id="text_26">
     <!-- root-cvsift AP: 62.8, %In: 14.6 -->
     <defs>
      <path d="M 2.984375 54.6875 
L 12.5 54.6875 
L 29.59375 8.796875 
L 46.6875 54.6875 
L 56.203125 54.6875 
L 35.6875 0 
L 23.484375 0 
z
" id="DejaVuSans-118"/>
      <path d="M 37.109375 75.984375 
L 37.109375 68.5 
L 28.515625 68.5 
Q 23.6875 68.5 21.796875 66.546875 
Q 19.921875 64.59375 19.921875 59.515625 
L 19.921875 54.6875 
L 34.71875 54.6875 
L 34.71875 47.703125 
L 19.921875 47.703125 
L 19.921875 0 
L 10.890625 0 
L 10.890625 47.703125 
L 2.296875 47.703125 
L 2.296875 54.6875 
L 10.890625 54.6875 
L 10.890625 58.5 
Q 10.890625 67.625 15.140625 71.796875 
Q 19.390625 75.984375 28.609375 75.984375 
z
" id="DejaVuSans-102"/>
      <path d="M 34.1875 63.1875 
L 20.796875 26.90625 
L 47.609375 26.90625 
z
M 28.609375 72.90625 
L 39.796875 72.90625 
L 67.578125 0 
L 57.328125 0 
L 50.6875 18.703125 
L 17.828125 18.703125 
L 11.1875 0 
L 0.78125 0 
z
" id="DejaVuSans-65"/>
      <path d="M 19.671875 64.796875 
L 19.671875 37.40625 
L 32.078125 37.40625 
Q 38.96875 37.40625 42.71875 40.96875 
Q 46.484375 44.53125 46.484375 51.125 
Q 46.484375 57.671875 42.71875 61.234375 
Q 38.96875 64.796875 32.078125 64.796875 
z
M 9.8125 72.90625 
L 32.078125 72.90625 
Q 44.34375 72.90625 50.609375 67.359375 
Q 56.890625 61.8125 56.890625 51.125 
Q 56.890625 40.328125 50.609375 34.8125 
Q 44.34375 29.296875 32.078125 29.296875 
L 19.671875 29.296875 
L 19.671875 0 
L 9.8125 0 
z
" id="DejaVuSans-80"/>
      <path d="M 11.71875 12.40625 
L 22.015625 12.40625 
L 22.015625 4 
L 14.015625 -11.625 
L 7.71875 -11.625 
L 11.71875 4 
z
" id="DejaVuSans-44"/>
      <path d="M 72.703125 32.078125 
Q 68.453125 32.078125 66.03125 28.46875 
Q 63.625 24.859375 63.625 18.40625 
Q 63.625 12.0625 66.03125 8.421875 
Q 68.453125 4.78125 72.703125 4.78125 
Q 76.859375 4.78125 79.265625 8.421875 
Q 81.6875 12.0625 81.6875 18.40625 
Q 81.6875 24.8125 79.265625 28.4375 
Q 76.859375 32.078125 72.703125 32.078125 
z
M 72.703125 38.28125 
Q 80.421875 38.28125 84.953125 32.90625 
Q 89.5 27.546875 89.5 18.40625 
Q 89.5 9.28125 84.9375 3.921875 
Q 80.375 -1.421875 72.703125 -1.421875 
Q 64.890625 -1.421875 60.34375 3.921875 
Q 55.8125 9.28125 55.8125 18.40625 
Q 55.8125 27.59375 60.375 32.9375 
Q 64.9375 38.28125 72.703125 38.28125 
z
M 22.3125 68.015625 
Q 18.109375 68.015625 15.6875 64.375 
Q 13.28125 60.75 13.28125 54.390625 
Q 13.28125 47.953125 15.671875 44.328125 
Q 18.0625 40.71875 22.3125 40.71875 
Q 26.5625 40.71875 28.96875 44.328125 
Q 31.390625 47.953125 31.390625 54.390625 
Q 31.390625 60.6875 28.953125 64.34375 
Q 26.515625 68.015625 22.3125 68.015625 
z
M 66.40625 74.21875 
L 74.21875 74.21875 
L 28.609375 -1.421875 
L 20.796875 -1.421875 
z
M 22.3125 74.21875 
Q 30.03125 74.21875 34.609375 68.875 
Q 39.203125 63.53125 39.203125 54.390625 
Q 39.203125 45.171875 34.640625 39.84375 
Q 30.078125 34.515625 22.3125 34.515625 
Q 14.546875 34.515625 10.03125 39.859375 
Q 5.515625 45.21875 5.515625 54.390625 
Q 5.515625 63.484375 10.046875 68.84375 
Q 14.59375 74.21875 22.3125 74.21875 
z
" id="DejaVuSans-37"/>
      <path d="M 9.8125 72.90625 
L 19.671875 72.90625 
L 19.671875 0 
L 9.8125 0 
z
" id="DejaVuSans-73"/>
     </defs>
     <g transform="translate(392.659375 77.078438)scale(0.1 -0.1)">
      <use xlink:href="#DejaVuSans-114"/>
      <use x="38.863281" xlink:href="#DejaVuSans-111"/>
      <use x="100.044922" xlink:href="#DejaVuSans-111"/>
      <use x="161.226562" xlink:href="#DejaVuSans-116"/>
      <use x="200.435547" xlink:href="#DejaVuSans-45"/>
      <use x="236.519531" xlink:href="#DejaVuSans-99"/>
      <use x="291.5" xlink:href="#DejaVuSans-118"/>
      <use x="350.679688" xlink:href="#DejaVuSans-115"/>
      <use x="402.779297" xlink:href="#DejaVuSans-105"/>
      <use x="430.5625" xlink:href="#DejaVuSans-102"/>
      <use x="464.017578" xlink:href="#DejaVuSans-116"/>
      <use x="503.226562" xlink:href="#DejaVuSans-32"/>
      <use x="535.013672" xlink:href="#DejaVuSans-65"/>
      <use x="603.421875" xlink:href="#DejaVuSans-80"/>
      <use x="663.724609" xlink:href="#DejaVuSans-58"/>
      <use x="697.416016" xlink:href="#DejaVuSans-32"/>
      <use x="729.203125" xlink:href="#DejaVuSans-54"/>
      <use x="792.826172" xlink:href="#DejaVuSans-50"/>
      <use x="856.449219" xlink:href="#DejaVuSans-46"/>
      <use x="888.236328" xlink:href="#DejaVuSans-56"/>
      <use x="951.859375" xlink:href="#DejaVuSans-44"/>
      <use x="983.646484" xlink:href="#DejaVuSans-32"/>
      <use x="1015.433594" xlink:href="#DejaVuSans-37"/>
      <use x="1110.453125" xlink:href="#DejaVuSans-73"/>
      <use x="1139.945312" xlink:href="#DejaVuSans-110"/>
      <use x="1203.324219" xlink:href="#DejaVuSans-58"/>
      <use x="1237.015625" xlink:href="#DejaVuSans-32"/>
      <use x="1268.802734" xlink:href="#DejaVuSans-49"/>
      <use x="1332.425781" xlink:href="#DejaVuSans-52"/>
      <use x="1396.048828" xlink:href="#DejaVuSans-46"/>
      <use x="1427.835938" xlink:href="#DejaVuSans-54"/>
     </g>
    </g>
    <g id="line2d_50">
     <path d="M 364.659375 88.256563 
L 384.659375 88.256563 
" style="fill:none;stroke:#ff7f0e;stroke-linecap:square;stroke-width:2;"/>
    </g>
    <g id="line2d_51"/>
    <g id="text_27">
     <!-- tfeat AP: 21.5, %In: 8.5 -->
     <g transform="translate(392.659375 91.756563)scale(0.1 -0.1)">
      <use xlink:href="#DejaVuSans-116"/>
      <use x="39.208984" xlink:href="#DejaVuSans-102"/>
      <use x="74.414062" xlink:href="#DejaVuSans-101"/>
      <use x="135.9375" xlink:href="#DejaVuSans-97"/>
      <use x="197.216797" xlink:href="#DejaVuSans-116"/>
      <use x="236.425781" xlink:href="#DejaVuSans-32"/>
      <use x="268.212891" xlink:href="#DejaVuSans-65"/>
      <use x="336.621094" xlink:href="#DejaVuSans-80"/>
      <use x="396.923828" xlink:href="#DejaVuSans-58"/>
      <use x="430.615234" xlink:href="#DejaVuSans-32"/>
      <use x="462.402344" xlink:href="#DejaVuSans-50"/>
      <use x="526.025391" xlink:href="#DejaVuSans-49"/>
      <use x="589.648438" xlink:href="#DejaVuSans-46"/>
      <use x="621.435547" xlink:href="#DejaVuSans-53"/>
      <use x="685.058594" xlink:href="#DejaVuSans-44"/>
      <use x="716.845703" xlink:href="#DejaVuSans-32"/>
      <use x="748.632812" xlink:href="#DejaVuSans-37"/>
      <use x="843.652344" xlink:href="#DejaVuSans-73"/>
      <use x="873.144531" xlink:href="#DejaVuSans-110"/>
      <use x="936.523438" xlink:href="#DejaVuSans-58"/>
      <use x="970.214844" xlink:href="#DejaVuSans-32"/>
      <use x="1002.001953" xlink:href="#DejaVuSans-56"/>
      <use x="1065.625" xlink:href="#DejaVuSans-46"/>
      <use x="1097.412109" xlink:href="#DejaVuSans-53"/>
     </g>
    </g>
    <g id="line2d_52">
     <path d="M 364.659375 102.934687 
L 384.659375 102.934687 
" style="fill:none;stroke:#2ca02c;stroke-linecap:square;stroke-width:2;"/>
    </g>
    <g id="line2d_53"/>
    <g id="text_28">
     <!-- hardnet AP: 55.9, %In: 13.6 -->
     <defs>
      <path d="M 45.40625 46.390625 
L 45.40625 75.984375 
L 54.390625 75.984375 
L 54.390625 0 
L 45.40625 0 
L 45.40625 8.203125 
Q 42.578125 3.328125 38.25 0.953125 
Q 33.9375 -1.421875 27.875 -1.421875 
Q 17.96875 -1.421875 11.734375 6.484375 
Q 5.515625 14.40625 5.515625 27.296875 
Q 5.515625 40.1875 11.734375 48.09375 
Q 17.96875 56 27.875 56 
Q 33.9375 56 38.25 53.625 
Q 42.578125 51.265625 45.40625 46.390625 
z
M 14.796875 27.296875 
Q 14.796875 17.390625 18.875 11.75 
Q 22.953125 6.109375 30.078125 6.109375 
Q 37.203125 6.109375 41.296875 11.75 
Q 45.40625 17.390625 45.40625 27.296875 
Q 45.40625 37.203125 41.296875 42.84375 
Q 37.203125 48.484375 30.078125 48.484375 
Q 22.953125 48.484375 18.875 42.84375 
Q 14.796875 37.203125 14.796875 27.296875 
z
" id="DejaVuSans-100"/>
     </defs>
     <g transform="translate(392.659375 106.434687)scale(0.1 -0.1)">
      <use xlink:href="#DejaVuSans-104"/>
      <use x="63.378906" xlink:href="#DejaVuSans-97"/>
      <use x="124.658203" xlink:href="#DejaVuSans-114"/>
      <use x="164.021484" xlink:href="#DejaVuSans-100"/>
      <use x="227.498047" xlink:href="#DejaVuSans-110"/>
      <use x="290.876953" xlink:href="#DejaVuSans-101"/>
      <use x="352.400391" xlink:href="#DejaVuSans-116"/>
      <use x="391.609375" xlink:href="#DejaVuSans-32"/>
      <use x="423.396484" xlink:href="#DejaVuSans-65"/>
      <use x="491.804688" xlink:href="#DejaVuSans-80"/>
      <use x="552.107422" xlink:href="#DejaVuSans-58"/>
      <use x="585.798828" xlink:href="#DejaVuSans-32"/>
      <use x="617.585938" xlink:href="#DejaVuSans-53"/>
      <use x="681.208984" xlink:href="#DejaVuSans-53"/>
      <use x="744.832031" xlink:href="#DejaVuSans-46"/>
      <use x="776.619141" xlink:href="#DejaVuSans-57"/>
      <use x="840.242188" xlink:href="#DejaVuSans-44"/>
      <use x="872.029297" xlink:href="#DejaVuSans-32"/>
      <use x="903.816406" xlink:href="#DejaVuSans-37"/>
      <use x="998.835938" xlink:href="#DejaVuSans-73"/>
      <use x="1028.328125" xlink:href="#DejaVuSans-110"/>
      <use x="1091.707031" xlink:href="#DejaVuSans-58"/>
      <use x="1125.398438" xlink:href="#DejaVuSans-32"/>
      <use x="1157.185547" xlink:href="#DejaVuSans-49"/>
      <use x="1220.808594" xlink:href="#DejaVuSans-51"/>
      <use x="1284.431641" xlink:href="#DejaVuSans-46"/>
      <use x="1316.21875" xlink:href="#DejaVuSans-54"/>
     </g>
    </g>
   </g>
  </g>
 </g>
 <defs>
  <clipPath id="p9c50f8f3d5">
   <rect height="388.08" width="474.3" x="76.5" y="60.48"/>
  </clipPath>
 </defs>
</svg>
