<?xml version="1.0" encoding="utf-8" standalone="no"?>
<!DOCTYPE svg PUBLIC "-//W3C//DTD SVG 1.1//EN"
  "http://www.w3.org/Graphics/SVG/1.1/DTD/svg11.dtd">
<!-- Created with matplotlib (https://matplotlib.org/) -->
<svg height="504pt" version="1.1" viewBox="0 0 612 504" width="612pt" xmlns="http://www.w3.org/2000/svg" xmlns:xlink="http://www.w3.org/1999/xlink">
 <defs>
  <style type="text/css">
*{stroke-linecap:butt;stroke-linejoin:round;}
  </style>
 </defs>
 <g id="figure_1">
  <g id="patch_1">
   <path d="M 0 504 
L 612 504 
L 612 0 
L 0 0 
z
" style="fill:#ffffff;"/>
  </g>
  <g id="axes_1">
   <g id="patch_2">
    <path d="M 76.5 448.56 
L 550.8 448.56 
L 550.8 60.48 
L 76.5 60.48 
z
" style="fill:#ffffff;"/>
   </g>
   <g id="matplotlib.axis_1">
    <g id="xtick_1">
     <g id="line2d_1">
      <path clip-path="url(#p15a4a359c2)" d="M 76.5 448.56 
L 76.5 60.48 
" style="fill:none;stroke:#b0b0b0;stroke-linecap:square;stroke-width:0.8;"/>
     </g>
     <g id="line2d_2">
      <defs>
       <path d="M 0 0 
L 0 3.5 
" id="ma980fffd6f" style="stroke:#000000;stroke-width:0.8;"/>
      </defs>
      <g>
       <use style="stroke:#000000;stroke-width:0.8;" x="76.5" xlink:href="#ma980fffd6f" y="448.56"/>
      </g>
     </g>
     <g id="text_1">
      <!-- 0.0 -->
      <defs>
       <path d="M 31.78125 66.40625 
Q 24.171875 66.40625 20.328125 58.90625 
Q 16.5 51.421875 16.5 36.375 
Q 16.5 21.390625 20.328125 13.890625 
Q 24.171875 6.390625 31.78125 6.390625 
Q 39.453125 6.390625 43.28125 13.890625 
Q 47.125 21.390625 47.125 36.375 
Q 47.125 51.421875 43.28125 58.90625 
Q 39.453125 66.40625 31.78125 66.40625 
z
M 31.78125 74.21875 
Q 44.046875 74.21875 50.515625 64.515625 
Q 56.984375 54.828125 56.984375 36.375 
Q 56.984375 17.96875 50.515625 8.265625 
Q 44.046875 -1.421875 31.78125 -1.421875 
Q 19.53125 -1.421875 13.0625 8.265625 
Q 6.59375 17.96875 6.59375 36.375 
Q 6.59375 54.828125 13.0625 64.515625 
Q 19.53125 74.21875 31.78125 74.21875 
z
" id="DejaVuSans-48"/>
       <path d="M 10.6875 12.40625 
L 21 12.40625 
L 21 0 
L 10.6875 0 
z
" id="DejaVuSans-46"/>
      </defs>
      <g transform="translate(68.548438 463.158437)scale(0.1 -0.1)">
       <use xlink:href="#DejaVuSans-48"/>
       <use x="63.623047" xlink:href="#DejaVuSans-46"/>
       <use x="95.410156" xlink:href="#DejaVuSans-48"/>
      </g>
     </g>
    </g>
    <g id="xtick_2">
     <g id="line2d_3">
      <path clip-path="url(#p15a4a359c2)" d="M 123.93 448.56 
L 123.93 60.48 
" style="fill:none;stroke:#b0b0b0;stroke-linecap:square;stroke-width:0.8;"/>
     </g>
     <g id="line2d_4">
      <g>
       <use style="stroke:#000000;stroke-width:0.8;" x="123.93" xlink:href="#ma980fffd6f" y="448.56"/>
      </g>
     </g>
     <g id="text_2">
      <!-- 0.1 -->
      <defs>
       <path d="M 12.40625 8.296875 
L 28.515625 8.296875 
L 28.515625 63.921875 
L 10.984375 60.40625 
L 10.984375 69.390625 
L 28.421875 72.90625 
L 38.28125 72.90625 
L 38.28125 8.296875 
L 54.390625 8.296875 
L 54.390625 0 
L 12.40625 0 
z
" id="DejaVuSans-49"/>
      </defs>
      <g transform="translate(115.978438 463.158437)scale(0.1 -0.1)">
       <use xlink:href="#DejaVuSans-48"/>
       <use x="63.623047" xlink:href="#DejaVuSans-46"/>
       <use x="95.410156" xlink:href="#DejaVuSans-49"/>
      </g>
     </g>
    </g>
    <g id="xtick_3">
     <g id="line2d_5">
      <path clip-path="url(#p15a4a359c2)" d="M 171.36 448.56 
L 171.36 60.48 
" style="fill:none;stroke:#b0b0b0;stroke-linecap:square;stroke-width:0.8;"/>
     </g>
     <g id="line2d_6">
      <g>
       <use style="stroke:#000000;stroke-width:0.8;" x="171.36" xlink:href="#ma980fffd6f" y="448.56"/>
      </g>
     </g>
     <g id="text_3">
      <!-- 0.2 -->
      <defs>
       <path d="M 19.1875 8.296875 
L 53.609375 8.296875 
L 53.609375 0 
L 7.328125 0 
L 7.328125 8.296875 
Q 12.9375 14.109375 22.625 23.890625 
Q 32.328125 33.6875 34.8125 36.53125 
Q 39.546875 41.84375 41.421875 45.53125 
Q 43.3125 49.21875 43.3125 52.78125 
Q 43.3125 58.59375 39.234375 62.25 
Q 35.15625 65.921875 28.609375 65.921875 
Q 23.96875 65.921875 18.8125 64.3125 
Q 13.671875 62.703125 7.8125 59.421875 
L 7.8125 69.390625 
Q 13.765625 71.78125 18.9375 73 
Q 24.125 74.21875 28.421875 74.21875 
Q 39.75 74.21875 46.484375 68.546875 
Q 53.21875 62.890625 53.21875 53.421875 
Q 53.21875 48.921875 51.53125 44.890625 
Q 49.859375 40.875 45.40625 35.40625 
Q 44.1875 33.984375 37.640625 27.21875 
Q 31.109375 20.453125 19.1875 8.296875 
z
" id="DejaVuSans-50"/>
      </defs>
      <g transform="translate(163.408438 463.158437)scale(0.1 -0.1)">
       <use xlink:href="#DejaVuSans-48"/>
       <use x="63.623047" xlink:href="#DejaVuSans-46"/>
       <use x="95.410156" xlink:href="#DejaVuSans-50"/>
      </g>
     </g>
    </g>
    <g id="xtick_4">
     <g id="line2d_7">
      <path clip-path="url(#p15a4a359c2)" d="M 218.79 448.56 
L 218.79 60.48 
" style="fill:none;stroke:#b0b0b0;stroke-linecap:square;stroke-width:0.8;"/>
     </g>
     <g id="line2d_8">
      <g>
       <use style="stroke:#000000;stroke-width:0.8;" x="218.79" xlink:href="#ma980fffd6f" y="448.56"/>
      </g>
     </g>
     <g id="text_4">
      <!-- 0.3 -->
      <defs>
       <path d="M 40.578125 39.3125 
Q 47.65625 37.796875 51.625 33 
Q 55.609375 28.21875 55.609375 21.1875 
Q 55.609375 10.40625 48.1875 4.484375 
Q 40.765625 -1.421875 27.09375 -1.421875 
Q 22.515625 -1.421875 17.65625 -0.515625 
Q 12.796875 0.390625 7.625 2.203125 
L 7.625 11.71875 
Q 11.71875 9.328125 16.59375 8.109375 
Q 21.484375 6.890625 26.8125 6.890625 
Q 36.078125 6.890625 40.9375 10.546875 
Q 45.796875 14.203125 45.796875 21.1875 
Q 45.796875 27.640625 41.28125 31.265625 
Q 36.765625 34.90625 28.71875 34.90625 
L 20.21875 34.90625 
L 20.21875 43.015625 
L 29.109375 43.015625 
Q 36.375 43.015625 40.234375 45.921875 
Q 44.09375 48.828125 44.09375 54.296875 
Q 44.09375 59.90625 40.109375 62.90625 
Q 36.140625 65.921875 28.71875 65.921875 
Q 24.65625 65.921875 20.015625 65.03125 
Q 15.375 64.15625 9.8125 62.3125 
L 9.8125 71.09375 
Q 15.4375 72.65625 20.34375 73.4375 
Q 25.25 74.21875 29.59375 74.21875 
Q 40.828125 74.21875 47.359375 69.109375 
Q 53.90625 64.015625 53.90625 55.328125 
Q 53.90625 49.265625 50.4375 45.09375 
Q 46.96875 40.921875 40.578125 39.3125 
z
" id="DejaVuSans-51"/>
      </defs>
      <g transform="translate(210.838438 463.158437)scale(0.1 -0.1)">
       <use xlink:href="#DejaVuSans-48"/>
       <use x="63.623047" xlink:href="#DejaVuSans-46"/>
       <use x="95.410156" xlink:href="#DejaVuSans-51"/>
      </g>
     </g>
    </g>
    <g id="xtick_5">
     <g id="line2d_9">
      <path clip-path="url(#p15a4a359c2)" d="M 266.22 448.56 
L 266.22 60.48 
" style="fill:none;stroke:#b0b0b0;stroke-linecap:square;stroke-width:0.8;"/>
     </g>
     <g id="line2d_10">
      <g>
       <use style="stroke:#000000;stroke-width:0.8;" x="266.22" xlink:href="#ma980fffd6f" y="448.56"/>
      </g>
     </g>
     <g id="text_5">
      <!-- 0.4 -->
      <defs>
       <path d="M 37.796875 64.3125 
L 12.890625 25.390625 
L 37.796875 25.390625 
z
M 35.203125 72.90625 
L 47.609375 72.90625 
L 47.609375 25.390625 
L 58.015625 25.390625 
L 58.015625 17.1875 
L 47.609375 17.1875 
L 47.609375 0 
L 37.796875 0 
L 37.796875 17.1875 
L 4.890625 17.1875 
L 4.890625 26.703125 
z
" id="DejaVuSans-52"/>
      </defs>
      <g transform="translate(258.268438 463.158437)scale(0.1 -0.1)">
       <use xlink:href="#DejaVuSans-48"/>
       <use x="63.623047" xlink:href="#DejaVuSans-46"/>
       <use x="95.410156" xlink:href="#DejaVuSans-52"/>
      </g>
     </g>
    </g>
    <g id="xtick_6">
     <g id="line2d_11">
      <path clip-path="url(#p15a4a359c2)" d="M 313.65 448.56 
L 313.65 60.48 
" style="fill:none;stroke:#b0b0b0;stroke-linecap:square;stroke-width:0.8;"/>
     </g>
     <g id="line2d_12">
      <g>
       <use style="stroke:#000000;stroke-width:0.8;" x="313.65" xlink:href="#ma980fffd6f" y="448.56"/>
      </g>
     </g>
     <g id="text_6">
      <!-- 0.5 -->
      <defs>
       <path d="M 10.796875 72.90625 
L 49.515625 72.90625 
L 49.515625 64.59375 
L 19.828125 64.59375 
L 19.828125 46.734375 
Q 21.96875 47.46875 24.109375 47.828125 
Q 26.265625 48.1875 28.421875 48.1875 
Q 40.625 48.1875 47.75 41.5 
Q 54.890625 34.8125 54.890625 23.390625 
Q 54.890625 11.625 47.5625 5.09375 
Q 40.234375 -1.421875 26.90625 -1.421875 
Q 22.3125 -1.421875 17.546875 -0.640625 
Q 12.796875 0.140625 7.71875 1.703125 
L 7.71875 11.625 
Q 12.109375 9.234375 16.796875 8.0625 
Q 21.484375 6.890625 26.703125 6.890625 
Q 35.15625 6.890625 40.078125 11.328125 
Q 45.015625 15.765625 45.015625 23.390625 
Q 45.015625 31 40.078125 35.4375 
Q 35.15625 39.890625 26.703125 39.890625 
Q 22.75 39.890625 18.8125 39.015625 
Q 14.890625 38.140625 10.796875 36.28125 
z
" id="DejaVuSans-53"/>
      </defs>
      <g transform="translate(305.698438 463.158437)scale(0.1 -0.1)">
       <use xlink:href="#DejaVuSans-48"/>
       <use x="63.623047" xlink:href="#DejaVuSans-46"/>
       <use x="95.410156" xlink:href="#DejaVuSans-53"/>
      </g>
     </g>
    </g>
    <g id="xtick_7">
     <g id="line2d_13">
      <path clip-path="url(#p15a4a359c2)" d="M 361.08 448.56 
L 361.08 60.48 
" style="fill:none;stroke:#b0b0b0;stroke-linecap:square;stroke-width:0.8;"/>
     </g>
     <g id="line2d_14">
      <g>
       <use style="stroke:#000000;stroke-width:0.8;" x="361.08" xlink:href="#ma980fffd6f" y="448.56"/>
      </g>
     </g>
     <g id="text_7">
      <!-- 0.6 -->
      <defs>
       <path d="M 33.015625 40.375 
Q 26.375 40.375 22.484375 35.828125 
Q 18.609375 31.296875 18.609375 23.390625 
Q 18.609375 15.53125 22.484375 10.953125 
Q 26.375 6.390625 33.015625 6.390625 
Q 39.65625 6.390625 43.53125 10.953125 
Q 47.40625 15.53125 47.40625 23.390625 
Q 47.40625 31.296875 43.53125 35.828125 
Q 39.65625 40.375 33.015625 40.375 
z
M 52.59375 71.296875 
L 52.59375 62.3125 
Q 48.875 64.0625 45.09375 64.984375 
Q 41.3125 65.921875 37.59375 65.921875 
Q 27.828125 65.921875 22.671875 59.328125 
Q 17.53125 52.734375 16.796875 39.40625 
Q 19.671875 43.65625 24.015625 45.921875 
Q 28.375 48.1875 33.59375 48.1875 
Q 44.578125 48.1875 50.953125 41.515625 
Q 57.328125 34.859375 57.328125 23.390625 
Q 57.328125 12.15625 50.6875 5.359375 
Q 44.046875 -1.421875 33.015625 -1.421875 
Q 20.359375 -1.421875 13.671875 8.265625 
Q 6.984375 17.96875 6.984375 36.375 
Q 6.984375 53.65625 15.1875 63.9375 
Q 23.390625 74.21875 37.203125 74.21875 
Q 40.921875 74.21875 44.703125 73.484375 
Q 48.484375 72.75 52.59375 71.296875 
z
" id="DejaVuSans-54"/>
      </defs>
      <g transform="translate(353.128438 463.158437)scale(0.1 -0.1)">
       <use xlink:href="#DejaVuSans-48"/>
       <use x="63.623047" xlink:href="#DejaVuSans-46"/>
       <use x="95.410156" xlink:href="#DejaVuSans-54"/>
      </g>
     </g>
    </g>
    <g id="xtick_8">
     <g id="line2d_15">
      <path clip-path="url(#p15a4a359c2)" d="M 408.51 448.56 
L 408.51 60.48 
" style="fill:none;stroke:#b0b0b0;stroke-linecap:square;stroke-width:0.8;"/>
     </g>
     <g id="line2d_16">
      <g>
       <use style="stroke:#000000;stroke-width:0.8;" x="408.51" xlink:href="#ma980fffd6f" y="448.56"/>
      </g>
     </g>
     <g id="text_8">
      <!-- 0.7 -->
      <defs>
       <path d="M 8.203125 72.90625 
L 55.078125 72.90625 
L 55.078125 68.703125 
L 28.609375 0 
L 18.3125 0 
L 43.21875 64.59375 
L 8.203125 64.59375 
z
" id="DejaVuSans-55"/>
      </defs>
      <g transform="translate(400.558438 463.158437)scale(0.1 -0.1)">
       <use xlink:href="#DejaVuSans-48"/>
       <use x="63.623047" xlink:href="#DejaVuSans-46"/>
       <use x="95.410156" xlink:href="#DejaVuSans-55"/>
      </g>
     </g>
    </g>
    <g id="xtick_9">
     <g id="line2d_17">
      <path clip-path="url(#p15a4a359c2)" d="M 455.94 448.56 
L 455.94 60.48 
" style="fill:none;stroke:#b0b0b0;stroke-linecap:square;stroke-width:0.8;"/>
     </g>
     <g id="line2d_18">
      <g>
       <use style="stroke:#000000;stroke-width:0.8;" x="455.94" xlink:href="#ma980fffd6f" y="448.56"/>
      </g>
     </g>
     <g id="text_9">
      <!-- 0.8 -->
      <defs>
       <path d="M 31.78125 34.625 
Q 24.75 34.625 20.71875 30.859375 
Q 16.703125 27.09375 16.703125 20.515625 
Q 16.703125 13.921875 20.71875 10.15625 
Q 24.75 6.390625 31.78125 6.390625 
Q 38.8125 6.390625 42.859375 10.171875 
Q 46.921875 13.96875 46.921875 20.515625 
Q 46.921875 27.09375 42.890625 30.859375 
Q 38.875 34.625 31.78125 34.625 
z
M 21.921875 38.8125 
Q 15.578125 40.375 12.03125 44.71875 
Q 8.5 49.078125 8.5 55.328125 
Q 8.5 64.0625 14.71875 69.140625 
Q 20.953125 74.21875 31.78125 74.21875 
Q 42.671875 74.21875 48.875 69.140625 
Q 55.078125 64.0625 55.078125 55.328125 
Q 55.078125 49.078125 51.53125 44.71875 
Q 48 40.375 41.703125 38.8125 
Q 48.828125 37.15625 52.796875 32.3125 
Q 56.78125 27.484375 56.78125 20.515625 
Q 56.78125 9.90625 50.3125 4.234375 
Q 43.84375 -1.421875 31.78125 -1.421875 
Q 19.734375 -1.421875 13.25 4.234375 
Q 6.78125 9.90625 6.78125 20.515625 
Q 6.78125 27.484375 10.78125 32.3125 
Q 14.796875 37.15625 21.921875 38.8125 
z
M 18.3125 54.390625 
Q 18.3125 48.734375 21.84375 45.5625 
Q 25.390625 42.390625 31.78125 42.390625 
Q 38.140625 42.390625 41.71875 45.5625 
Q 45.3125 48.734375 45.3125 54.390625 
Q 45.3125 60.0625 41.71875 63.234375 
Q 38.140625 66.40625 31.78125 66.40625 
Q 25.390625 66.40625 21.84375 63.234375 
Q 18.3125 60.0625 18.3125 54.390625 
z
" id="DejaVuSans-56"/>
      </defs>
      <g transform="translate(447.988438 463.158437)scale(0.1 -0.1)">
       <use xlink:href="#DejaVuSans-48"/>
       <use x="63.623047" xlink:href="#DejaVuSans-46"/>
       <use x="95.410156" xlink:href="#DejaVuSans-56"/>
      </g>
     </g>
    </g>
    <g id="xtick_10">
     <g id="line2d_19">
      <path clip-path="url(#p15a4a359c2)" d="M 503.37 448.56 
L 503.37 60.48 
" style="fill:none;stroke:#b0b0b0;stroke-linecap:square;stroke-width:0.8;"/>
     </g>
     <g id="line2d_20">
      <g>
       <use style="stroke:#000000;stroke-width:0.8;" x="503.37" xlink:href="#ma980fffd6f" y="448.56"/>
      </g>
     </g>
     <g id="text_10">
      <!-- 0.9 -->
      <defs>
       <path d="M 10.984375 1.515625 
L 10.984375 10.5 
Q 14.703125 8.734375 18.5 7.8125 
Q 22.3125 6.890625 25.984375 6.890625 
Q 35.75 6.890625 40.890625 13.453125 
Q 46.046875 20.015625 46.78125 33.40625 
Q 43.953125 29.203125 39.59375 26.953125 
Q 35.25 24.703125 29.984375 24.703125 
Q 19.046875 24.703125 12.671875 31.3125 
Q 6.296875 37.9375 6.296875 49.421875 
Q 6.296875 60.640625 12.9375 67.421875 
Q 19.578125 74.21875 30.609375 74.21875 
Q 43.265625 74.21875 49.921875 64.515625 
Q 56.59375 54.828125 56.59375 36.375 
Q 56.59375 19.140625 48.40625 8.859375 
Q 40.234375 -1.421875 26.421875 -1.421875 
Q 22.703125 -1.421875 18.890625 -0.6875 
Q 15.09375 0.046875 10.984375 1.515625 
z
M 30.609375 32.421875 
Q 37.25 32.421875 41.125 36.953125 
Q 45.015625 41.5 45.015625 49.421875 
Q 45.015625 57.28125 41.125 61.84375 
Q 37.25 66.40625 30.609375 66.40625 
Q 23.96875 66.40625 20.09375 61.84375 
Q 16.21875 57.28125 16.21875 49.421875 
Q 16.21875 41.5 20.09375 36.953125 
Q 23.96875 32.421875 30.609375 32.421875 
z
" id="DejaVuSans-57"/>
      </defs>
      <g transform="translate(495.418438 463.158437)scale(0.1 -0.1)">
       <use xlink:href="#DejaVuSans-48"/>
       <use x="63.623047" xlink:href="#DejaVuSans-46"/>
       <use x="95.410156" xlink:href="#DejaVuSans-57"/>
      </g>
     </g>
    </g>
    <g id="xtick_11">
     <g id="line2d_21">
      <path clip-path="url(#p15a4a359c2)" d="M 550.8 448.56 
L 550.8 60.48 
" style="fill:none;stroke:#b0b0b0;stroke-linecap:square;stroke-width:0.8;"/>
     </g>
     <g id="line2d_22">
      <g>
       <use style="stroke:#000000;stroke-width:0.8;" x="550.8" xlink:href="#ma980fffd6f" y="448.56"/>
      </g>
     </g>
     <g id="text_11">
      <!-- 1.0 -->
      <g transform="translate(542.848438 463.158437)scale(0.1 -0.1)">
       <use xlink:href="#DejaVuSans-49"/>
       <use x="63.623047" xlink:href="#DejaVuSans-46"/>
       <use x="95.410156" xlink:href="#DejaVuSans-48"/>
      </g>
     </g>
    </g>
    <g id="text_12">
     <!-- 1-precision -->
     <defs>
      <path d="M 4.890625 31.390625 
L 31.203125 31.390625 
L 31.203125 23.390625 
L 4.890625 23.390625 
z
" id="DejaVuSans-45"/>
      <path d="M 18.109375 8.203125 
L 18.109375 -20.796875 
L 9.078125 -20.796875 
L 9.078125 54.6875 
L 18.109375 54.6875 
L 18.109375 46.390625 
Q 20.953125 51.265625 25.265625 53.625 
Q 29.59375 56 35.59375 56 
Q 45.5625 56 51.78125 48.09375 
Q 58.015625 40.1875 58.015625 27.296875 
Q 58.015625 14.40625 51.78125 6.484375 
Q 45.5625 -1.421875 35.59375 -1.421875 
Q 29.59375 -1.421875 25.265625 0.953125 
Q 20.953125 3.328125 18.109375 8.203125 
z
M 48.6875 27.296875 
Q 48.6875 37.203125 44.609375 42.84375 
Q 40.53125 48.484375 33.40625 48.484375 
Q 26.265625 48.484375 22.1875 42.84375 
Q 18.109375 37.203125 18.109375 27.296875 
Q 18.109375 17.390625 22.1875 11.75 
Q 26.265625 6.109375 33.40625 6.109375 
Q 40.53125 6.109375 44.609375 11.75 
Q 48.6875 17.390625 48.6875 27.296875 
z
" id="DejaVuSans-112"/>
      <path d="M 41.109375 46.296875 
Q 39.59375 47.171875 37.8125 47.578125 
Q 36.03125 48 33.890625 48 
Q 26.265625 48 22.1875 43.046875 
Q 18.109375 38.09375 18.109375 28.8125 
L 18.109375 0 
L 9.078125 0 
L 9.078125 54.6875 
L 18.109375 54.6875 
L 18.109375 46.1875 
Q 20.953125 51.171875 25.484375 53.578125 
Q 30.03125 56 36.53125 56 
Q 37.453125 56 38.578125 55.875 
Q 39.703125 55.765625 41.0625 55.515625 
z
" id="DejaVuSans-114"/>
      <path d="M 56.203125 29.59375 
L 56.203125 25.203125 
L 14.890625 25.203125 
Q 15.484375 15.921875 20.484375 11.0625 
Q 25.484375 6.203125 34.421875 6.203125 
Q 39.59375 6.203125 44.453125 7.46875 
Q 49.3125 8.734375 54.109375 11.28125 
L 54.109375 2.78125 
Q 49.265625 0.734375 44.1875 -0.34375 
Q 39.109375 -1.421875 33.890625 -1.421875 
Q 20.796875 -1.421875 13.15625 6.1875 
Q 5.515625 13.8125 5.515625 26.8125 
Q 5.515625 40.234375 12.765625 48.109375 
Q 20.015625 56 32.328125 56 
Q 43.359375 56 49.78125 48.890625 
Q 56.203125 41.796875 56.203125 29.59375 
z
M 47.21875 32.234375 
Q 47.125 39.59375 43.09375 43.984375 
Q 39.0625 48.390625 32.421875 48.390625 
Q 24.90625 48.390625 20.390625 44.140625 
Q 15.875 39.890625 15.1875 32.171875 
z
" id="DejaVuSans-101"/>
      <path d="M 48.78125 52.59375 
L 48.78125 44.1875 
Q 44.96875 46.296875 41.140625 47.34375 
Q 37.3125 48.390625 33.40625 48.390625 
Q 24.65625 48.390625 19.8125 42.84375 
Q 14.984375 37.3125 14.984375 27.296875 
Q 14.984375 17.28125 19.8125 11.734375 
Q 24.65625 6.203125 33.40625 6.203125 
Q 37.3125 6.203125 41.140625 7.25 
Q 44.96875 8.296875 48.78125 10.40625 
L 48.78125 2.09375 
Q 45.015625 0.34375 40.984375 -0.53125 
Q 36.96875 -1.421875 32.421875 -1.421875 
Q 20.0625 -1.421875 12.78125 6.34375 
Q 5.515625 14.109375 5.515625 27.296875 
Q 5.515625 40.671875 12.859375 48.328125 
Q 20.21875 56 33.015625 56 
Q 37.15625 56 41.109375 55.140625 
Q 45.0625 54.296875 48.78125 52.59375 
z
" id="DejaVuSans-99"/>
      <path d="M 9.421875 54.6875 
L 18.40625 54.6875 
L 18.40625 0 
L 9.421875 0 
z
M 9.421875 75.984375 
L 18.40625 75.984375 
L 18.40625 64.59375 
L 9.421875 64.59375 
z
" id="DejaVuSans-105"/>
      <path d="M 44.28125 53.078125 
L 44.28125 44.578125 
Q 40.484375 46.53125 36.375 47.5 
Q 32.28125 48.484375 27.875 48.484375 
Q 21.1875 48.484375 17.84375 46.4375 
Q 14.5 44.390625 14.5 40.28125 
Q 14.5 37.15625 16.890625 35.375 
Q 19.28125 33.59375 26.515625 31.984375 
L 29.59375 31.296875 
Q 39.15625 29.25 43.1875 25.515625 
Q 47.21875 21.78125 47.21875 15.09375 
Q 47.21875 7.46875 41.1875 3.015625 
Q 35.15625 -1.421875 24.609375 -1.421875 
Q 20.21875 -1.421875 15.453125 -0.5625 
Q 10.6875 0.296875 5.421875 2 
L 5.421875 11.28125 
Q 10.40625 8.6875 15.234375 7.390625 
Q 20.0625 6.109375 24.8125 6.109375 
Q 31.15625 6.109375 34.5625 8.28125 
Q 37.984375 10.453125 37.984375 14.40625 
Q 37.984375 18.0625 35.515625 20.015625 
Q 33.0625 21.96875 24.703125 23.78125 
L 21.578125 24.515625 
Q 13.234375 26.265625 9.515625 29.90625 
Q 5.8125 33.546875 5.8125 39.890625 
Q 5.8125 47.609375 11.28125 51.796875 
Q 16.75 56 26.8125 56 
Q 31.78125 56 36.171875 55.265625 
Q 40.578125 54.546875 44.28125 53.078125 
z
" id="DejaVuSans-115"/>
      <path d="M 30.609375 48.390625 
Q 23.390625 48.390625 19.1875 42.75 
Q 14.984375 37.109375 14.984375 27.296875 
Q 14.984375 17.484375 19.15625 11.84375 
Q 23.34375 6.203125 30.609375 6.203125 
Q 37.796875 6.203125 41.984375 11.859375 
Q 46.1875 17.53125 46.1875 27.296875 
Q 46.1875 37.015625 41.984375 42.703125 
Q 37.796875 48.390625 30.609375 48.390625 
z
M 30.609375 56 
Q 42.328125 56 49.015625 48.375 
Q 55.71875 40.765625 55.71875 27.296875 
Q 55.71875 13.875 49.015625 6.21875 
Q 42.328125 -1.421875 30.609375 -1.421875 
Q 18.84375 -1.421875 12.171875 6.21875 
Q 5.515625 13.875 5.515625 27.296875 
Q 5.515625 40.765625 12.171875 48.375 
Q 18.84375 56 30.609375 56 
z
" id="DejaVuSans-111"/>
      <path d="M 54.890625 33.015625 
L 54.890625 0 
L 45.90625 0 
L 45.90625 32.71875 
Q 45.90625 40.484375 42.875 44.328125 
Q 39.84375 48.1875 33.796875 48.1875 
Q 26.515625 48.1875 22.3125 43.546875 
Q 18.109375 38.921875 18.109375 30.90625 
L 18.109375 0 
L 9.078125 0 
L 9.078125 54.6875 
L 18.109375 54.6875 
L 18.109375 46.1875 
Q 21.34375 51.125 25.703125 53.5625 
Q 30.078125 56 35.796875 56 
Q 45.21875 56 50.046875 50.171875 
Q 54.890625 44.34375 54.890625 33.015625 
z
" id="DejaVuSans-110"/>
     </defs>
     <g transform="translate(286.110938 476.836563)scale(0.1 -0.1)">
      <use xlink:href="#DejaVuSans-49"/>
      <use x="63.623047" xlink:href="#DejaVuSans-45"/>
      <use x="99.707031" xlink:href="#DejaVuSans-112"/>
      <use x="163.183594" xlink:href="#DejaVuSans-114"/>
      <use x="202.046875" xlink:href="#DejaVuSans-101"/>
      <use x="263.570312" xlink:href="#DejaVuSans-99"/>
      <use x="318.550781" xlink:href="#DejaVuSans-105"/>
      <use x="346.333984" xlink:href="#DejaVuSans-115"/>
      <use x="398.433594" xlink:href="#DejaVuSans-105"/>
      <use x="426.216797" xlink:href="#DejaVuSans-111"/>
      <use x="487.398438" xlink:href="#DejaVuSans-110"/>
     </g>
    </g>
   </g>
   <g id="matplotlib.axis_2">
    <g id="ytick_1">
     <g id="line2d_23">
      <path clip-path="url(#p15a4a359c2)" d="M 76.5 448.56 
L 550.8 448.56 
" style="fill:none;stroke:#b0b0b0;stroke-linecap:square;stroke-width:0.8;"/>
     </g>
     <g id="line2d_24">
      <defs>
       <path d="M 0 0 
L -3.5 0 
" id="m0199350454" style="stroke:#000000;stroke-width:0.8;"/>
      </defs>
      <g>
       <use style="stroke:#000000;stroke-width:0.8;" x="76.5" xlink:href="#m0199350454" y="448.56"/>
      </g>
     </g>
     <g id="text_13">
      <!-- 0.0 -->
      <g transform="translate(53.596875 452.359219)scale(0.1 -0.1)">
       <use xlink:href="#DejaVuSans-48"/>
       <use x="63.623047" xlink:href="#DejaVuSans-46"/>
       <use x="95.410156" xlink:href="#DejaVuSans-48"/>
      </g>
     </g>
    </g>
    <g id="ytick_2">
     <g id="line2d_25">
      <path clip-path="url(#p15a4a359c2)" d="M 76.5 409.752 
L 550.8 409.752 
" style="fill:none;stroke:#b0b0b0;stroke-linecap:square;stroke-width:0.8;"/>
     </g>
     <g id="line2d_26">
      <g>
       <use style="stroke:#000000;stroke-width:0.8;" x="76.5" xlink:href="#m0199350454" y="409.752"/>
      </g>
     </g>
     <g id="text_14">
      <!-- 0.1 -->
      <g transform="translate(53.596875 413.551219)scale(0.1 -0.1)">
       <use xlink:href="#DejaVuSans-48"/>
       <use x="63.623047" xlink:href="#DejaVuSans-46"/>
       <use x="95.410156" xlink:href="#DejaVuSans-49"/>
      </g>
     </g>
    </g>
    <g id="ytick_3">
     <g id="line2d_27">
      <path clip-path="url(#p15a4a359c2)" d="M 76.5 370.944 
L 550.8 370.944 
" style="fill:none;stroke:#b0b0b0;stroke-linecap:square;stroke-width:0.8;"/>
     </g>
     <g id="line2d_28">
      <g>
       <use style="stroke:#000000;stroke-width:0.8;" x="76.5" xlink:href="#m0199350454" y="370.944"/>
      </g>
     </g>
     <g id="text_15">
      <!-- 0.2 -->
      <g transform="translate(53.596875 374.743219)scale(0.1 -0.1)">
       <use xlink:href="#DejaVuSans-48"/>
       <use x="63.623047" xlink:href="#DejaVuSans-46"/>
       <use x="95.410156" xlink:href="#DejaVuSans-50"/>
      </g>
     </g>
    </g>
    <g id="ytick_4">
     <g id="line2d_29">
      <path clip-path="url(#p15a4a359c2)" d="M 76.5 332.136 
L 550.8 332.136 
" style="fill:none;stroke:#b0b0b0;stroke-linecap:square;stroke-width:0.8;"/>
     </g>
     <g id="line2d_30">
      <g>
       <use style="stroke:#000000;stroke-width:0.8;" x="76.5" xlink:href="#m0199350454" y="332.136"/>
      </g>
     </g>
     <g id="text_16">
      <!-- 0.3 -->
      <g transform="translate(53.596875 335.935219)scale(0.1 -0.1)">
       <use xlink:href="#DejaVuSans-48"/>
       <use x="63.623047" xlink:href="#DejaVuSans-46"/>
       <use x="95.410156" xlink:href="#DejaVuSans-51"/>
      </g>
     </g>
    </g>
    <g id="ytick_5">
     <g id="line2d_31">
      <path clip-path="url(#p15a4a359c2)" d="M 76.5 293.328 
L 550.8 293.328 
" style="fill:none;stroke:#b0b0b0;stroke-linecap:square;stroke-width:0.8;"/>
     </g>
     <g id="line2d_32">
      <g>
       <use style="stroke:#000000;stroke-width:0.8;" x="76.5" xlink:href="#m0199350454" y="293.328"/>
      </g>
     </g>
     <g id="text_17">
      <!-- 0.4 -->
      <g transform="translate(53.596875 297.127219)scale(0.1 -0.1)">
       <use xlink:href="#DejaVuSans-48"/>
       <use x="63.623047" xlink:href="#DejaVuSans-46"/>
       <use x="95.410156" xlink:href="#DejaVuSans-52"/>
      </g>
     </g>
    </g>
    <g id="ytick_6">
     <g id="line2d_33">
      <path clip-path="url(#p15a4a359c2)" d="M 76.5 254.52 
L 550.8 254.52 
" style="fill:none;stroke:#b0b0b0;stroke-linecap:square;stroke-width:0.8;"/>
     </g>
     <g id="line2d_34">
      <g>
       <use style="stroke:#000000;stroke-width:0.8;" x="76.5" xlink:href="#m0199350454" y="254.52"/>
      </g>
     </g>
     <g id="text_18">
      <!-- 0.5 -->
      <g transform="translate(53.596875 258.319219)scale(0.1 -0.1)">
       <use xlink:href="#DejaVuSans-48"/>
       <use x="63.623047" xlink:href="#DejaVuSans-46"/>
       <use x="95.410156" xlink:href="#DejaVuSans-53"/>
      </g>
     </g>
    </g>
    <g id="ytick_7">
     <g id="line2d_35">
      <path clip-path="url(#p15a4a359c2)" d="M 76.5 215.712 
L 550.8 215.712 
" style="fill:none;stroke:#b0b0b0;stroke-linecap:square;stroke-width:0.8;"/>
     </g>
     <g id="line2d_36">
      <g>
       <use style="stroke:#000000;stroke-width:0.8;" x="76.5" xlink:href="#m0199350454" y="215.712"/>
      </g>
     </g>
     <g id="text_19">
      <!-- 0.6 -->
      <g transform="translate(53.596875 219.511219)scale(0.1 -0.1)">
       <use xlink:href="#DejaVuSans-48"/>
       <use x="63.623047" xlink:href="#DejaVuSans-46"/>
       <use x="95.410156" xlink:href="#DejaVuSans-54"/>
      </g>
     </g>
    </g>
    <g id="ytick_8">
     <g id="line2d_37">
      <path clip-path="url(#p15a4a359c2)" d="M 76.5 176.904 
L 550.8 176.904 
" style="fill:none;stroke:#b0b0b0;stroke-linecap:square;stroke-width:0.8;"/>
     </g>
     <g id="line2d_38">
      <g>
       <use style="stroke:#000000;stroke-width:0.8;" x="76.5" xlink:href="#m0199350454" y="176.904"/>
      </g>
     </g>
     <g id="text_20">
      <!-- 0.7 -->
      <g transform="translate(53.596875 180.703219)scale(0.1 -0.1)">
       <use xlink:href="#DejaVuSans-48"/>
       <use x="63.623047" xlink:href="#DejaVuSans-46"/>
       <use x="95.410156" xlink:href="#DejaVuSans-55"/>
      </g>
     </g>
    </g>
    <g id="ytick_9">
     <g id="line2d_39">
      <path clip-path="url(#p15a4a359c2)" d="M 76.5 138.096 
L 550.8 138.096 
" style="fill:none;stroke:#b0b0b0;stroke-linecap:square;stroke-width:0.8;"/>
     </g>
     <g id="line2d_40">
      <g>
       <use style="stroke:#000000;stroke-width:0.8;" x="76.5" xlink:href="#m0199350454" y="138.096"/>
      </g>
     </g>
     <g id="text_21">
      <!-- 0.8 -->
      <g transform="translate(53.596875 141.895219)scale(0.1 -0.1)">
       <use xlink:href="#DejaVuSans-48"/>
       <use x="63.623047" xlink:href="#DejaVuSans-46"/>
       <use x="95.410156" xlink:href="#DejaVuSans-56"/>
      </g>
     </g>
    </g>
    <g id="ytick_10">
     <g id="line2d_41">
      <path clip-path="url(#p15a4a359c2)" d="M 76.5 99.288 
L 550.8 99.288 
" style="fill:none;stroke:#b0b0b0;stroke-linecap:square;stroke-width:0.8;"/>
     </g>
     <g id="line2d_42">
      <g>
       <use style="stroke:#000000;stroke-width:0.8;" x="76.5" xlink:href="#m0199350454" y="99.288"/>
      </g>
     </g>
     <g id="text_22">
      <!-- 0.9 -->
      <g transform="translate(53.596875 103.087219)scale(0.1 -0.1)">
       <use xlink:href="#DejaVuSans-48"/>
       <use x="63.623047" xlink:href="#DejaVuSans-46"/>
       <use x="95.410156" xlink:href="#DejaVuSans-57"/>
      </g>
     </g>
    </g>
    <g id="ytick_11">
     <g id="line2d_43">
      <path clip-path="url(#p15a4a359c2)" d="M 76.5 60.48 
L 550.8 60.48 
" style="fill:none;stroke:#b0b0b0;stroke-linecap:square;stroke-width:0.8;"/>
     </g>
     <g id="line2d_44">
      <g>
       <use style="stroke:#000000;stroke-width:0.8;" x="76.5" xlink:href="#m0199350454" y="60.48"/>
      </g>
     </g>
     <g id="text_23">
      <!-- 1.0 -->
      <g transform="translate(53.596875 64.279219)scale(0.1 -0.1)">
       <use xlink:href="#DejaVuSans-49"/>
       <use x="63.623047" xlink:href="#DejaVuSans-46"/>
       <use x="95.410156" xlink:href="#DejaVuSans-48"/>
      </g>
     </g>
    </g>
    <g id="text_24">
     <!-- #correct/751 -->
     <defs>
      <path d="M 51.125 44 
L 36.921875 44 
L 32.8125 27.6875 
L 47.125 27.6875 
z
M 43.796875 71.78125 
L 38.71875 51.515625 
L 52.984375 51.515625 
L 58.109375 71.78125 
L 65.921875 71.78125 
L 60.890625 51.515625 
L 76.125 51.515625 
L 76.125 44 
L 58.984375 44 
L 54.984375 27.6875 
L 70.515625 27.6875 
L 70.515625 20.21875 
L 53.078125 20.21875 
L 48 0 
L 40.1875 0 
L 45.21875 20.21875 
L 30.90625 20.21875 
L 25.875 0 
L 18.015625 0 
L 23.09375 20.21875 
L 7.71875 20.21875 
L 7.71875 27.6875 
L 24.90625 27.6875 
L 29 44 
L 13.28125 44 
L 13.28125 51.515625 
L 30.90625 51.515625 
L 35.890625 71.78125 
z
" id="DejaVuSans-35"/>
      <path d="M 18.3125 70.21875 
L 18.3125 54.6875 
L 36.8125 54.6875 
L 36.8125 47.703125 
L 18.3125 47.703125 
L 18.3125 18.015625 
Q 18.3125 11.328125 20.140625 9.421875 
Q 21.96875 7.515625 27.59375 7.515625 
L 36.8125 7.515625 
L 36.8125 0 
L 27.59375 0 
Q 17.1875 0 13.234375 3.875 
Q 9.28125 7.765625 9.28125 18.015625 
L 9.28125 47.703125 
L 2.6875 47.703125 
L 2.6875 54.6875 
L 9.28125 54.6875 
L 9.28125 70.21875 
z
" id="DejaVuSans-116"/>
      <path d="M 25.390625 72.90625 
L 33.6875 72.90625 
L 8.296875 -9.28125 
L 0 -9.28125 
z
" id="DejaVuSans-47"/>
     </defs>
     <g transform="translate(47.517187 287.443438)rotate(-90)scale(0.1 -0.1)">
      <use xlink:href="#DejaVuSans-35"/>
      <use x="83.789062" xlink:href="#DejaVuSans-99"/>
      <use x="138.769531" xlink:href="#DejaVuSans-111"/>
      <use x="199.951172" xlink:href="#DejaVuSans-114"/>
      <use x="239.314453" xlink:href="#DejaVuSans-114"/>
      <use x="278.177734" xlink:href="#DejaVuSans-101"/>
      <use x="339.701172" xlink:href="#DejaVuSans-99"/>
      <use x="394.681641" xlink:href="#DejaVuSans-116"/>
      <use x="433.890625" xlink:href="#DejaVuSans-47"/>
      <use x="467.582031" xlink:href="#DejaVuSans-55"/>
      <use x="531.205078" xlink:href="#DejaVuSans-53"/>
      <use x="594.828125" xlink:href="#DejaVuSans-49"/>
     </g>
    </g>
   </g>
   <g id="line2d_45">
    <path clip-path="url(#p15a4a359c2)" d="M 76.5 448.043249 
L 76.5 354.511318 
L 79.091803 354.511318 
L 78.970313 349.860559 
L 81.415026 349.860559 
L 81.290909 347.276804 
L 83.650251 347.276804 
L 82.796018 333.324527 
L 82.606867 329.70727 
L 84.607692 329.70727 
L 84.405 326.606764 
L 86.340249 326.606764 
L 85.763672 318.855499 
L 87.573152 318.855499 
L 87.487645 317.821997 
L 92.792748 317.821997 
L 92.136264 312.137736 
L 95.472 312.137736 
L 95.335018 311.104234 
L 96.973381 311.104234 
L 96.754804 309.553981 
L 98.364894 309.553981 
L 98.059091 307.486977 
L 101.203125 307.486977 
L 99.599026 297.151957 
L 101.059223 297.151957 
L 100.98 296.635206 
L 103.863462 296.635206 
L 103.096262 291.984447 
L 105.868421 291.984447 
L 105.332827 288.883941 
L 108.024471 288.883941 
L 107.929518 288.36719 
L 110.581437 288.36719 
L 110.078761 285.783435 
L 112.663636 285.783435 
L 111.533523 280.099174 
L 112.777904 280.099174 
L 112.472191 278.548921 
L 116.135097 278.548921 
L 115.915512 277.515419 
L 117.116851 277.515419 
L 116.563488 274.931664 
L 117.743478 274.931664 
L 117.520541 273.898162 
L 118.68841 273.898162 
L 118.016976 270.797656 
L 120.300792 270.797656 
L 119.956806 269.247403 
L 121.081723 269.247403 
L 120.85013 268.213901 
L 121.96399 268.213901 
L 121.846512 267.69715 
L 122.952062 267.69715 
L 122.832648 267.180399 
L 125.021739 267.180399 
L 124.897959 266.663648 
L 127.059898 266.663648 
L 126.804545 265.630146 
L 127.872544 265.630146 
L 127.615038 264.596644 
L 128.673 264.596644 
L 128.413433 263.563142 
L 131.542222 263.563142 
L 131.271744 262.52964 
L 132.3 262.52964 
L 132.027805 261.496138 
L 133.046715 261.496138 
L 132.501687 259.429134 
L 134.507914 259.429134 
L 133.95677 257.36213 
L 135.92766 257.36213 
L 135.509155 255.811877 
L 137.449766 255.811877 
L 137.307692 255.295126 
L 138.269302 255.295126 
L 137.983333 254.261625 
L 139.885714 254.261625 
L 139.594954 253.228123 
L 140.535927 253.228123 
L 140.389726 252.711372 
L 141.324601 252.711372 
L 140.884615 251.161119 
L 141.809932 251.161119 
L 141.516404 250.127617 
L 144.257143 250.127617 
L 143.80643 248.577364 
L 145.603311 248.577364 
L 145.29956 247.543862 
L 146.188816 247.543862 
L 145.884498 246.51036 
L 147.645 246.51036 
L 147.184017 244.960107 
L 148.053879 244.960107 
L 147.9 244.443356 
L 148.764592 244.443356 
L 148.60985 243.926605 
L 149.469231 243.926605 
L 149.313646 243.409854 
L 154.385053 243.409854 
L 154.221429 242.893103 
L 155.05283 242.893103 
L 154.724843 241.859601 
L 155.55 241.859601 
L 155.221992 240.826099 
L 160.884663 240.826099 
L 160.712449 240.309348 
L 170.794235 240.309348 
L 170.420792 239.275846 
L 171.17253 239.275846 
L 170.985799 238.759095 
L 173.958904 238.759095 
L 173.768555 238.242344 
L 178.135714 238.242344 
L 177.744808 237.208842 
L 180.592557 237.208842 
L 180.394286 236.692091 
L 181.8 236.692091 
L 181.600568 236.17534 
L 185.063977 236.17534 
L 184.860674 235.658589 
L 186.226119 235.658589 
L 185.818216 234.625087 
L 186.495362 234.625087 
L 186.291667 234.108336 
L 188.305525 234.108336 
L 188.1 233.591585 
L 190.747445 233.591585 
L 190.539344 233.074834 
L 191.194364 233.074834 
L 190.986207 232.558083 
L 191.638043 232.558083 
L 191.429837 232.041332 
L 192.07852 232.041332 
L 191.87027 231.524581 
L 192.515827 231.524581 
L 192.30754 231.00783 
L 193.590161 231.00783 
L 193.172727 229.974328 
L 196.957143 229.974328 
L 196.533743 228.940826 
L 197.155263 228.940826 
L 196.943958 228.424075 
L 197.562587 228.424075 
L 197.351309 227.907324 
L 202.81701 227.907324 
L 202.600343 227.390573 
L 203.790769 227.390573 
L 203.573549 226.873822 
L 207.092736 226.873822 
L 206.434286 225.323569 
L 207.012081 225.323569 
L 206.793467 224.806818 
L 210.780298 224.806818 
L 210.558347 224.290067 
L 211.119802 224.290067 
L 210.898023 223.773316 
L 216.406969 223.773316 
L 216.180583 223.256565 
L 220.456869 223.256565 
L 219.542857 221.189561 
L 221.632808 221.189561 
L 221.404252 220.67281 
L 224.48752 220.67281 
L 224.257009 220.156059 
L 226.278947 220.156059 
L 226.04745 219.639308 
L 230.013893 219.639308 
L 229.546575 218.605806 
L 232.933283 218.605806 
L 232.698045 218.089055 
L 235.542474 218.089055 
L 235.305804 217.572304 
L 239.47533 217.572304 
L 239.236364 217.055553 
L 244.623631 217.055553 
L 244.381727 216.538802 
L 247.004422 216.538802 
L 246.761538 216.022051 
L 247.625284 216.022051 
L 247.382553 215.5053 
L 247.812323 215.5053 
L 247.570014 214.988549 
L 249.275949 214.988549 
L 249.033287 214.471798 
L 256.47411 214.471798 
L 255.982377 213.438296 
L 260.7375 213.438296 
L 260.490201 212.921545 
L 263.574502 212.921545 
L 263.326393 212.404794 
L 263.707152 212.404794 
L 263.459524 211.888043 
L 264.595257 211.888043 
L 264.347763 211.371292 
L 268.800389 211.371292 
L 268.551617 210.854541 
L 273.219847 210.854541 
L 272.969886 210.33779 
L 273.322462 210.33779 
L 273.073004 209.821039 
L 274.473897 209.821039 
L 274.224559 209.304288 
L 274.572453 209.304288 
L 274.323618 208.787537 
L 276.39202 208.787537 
L 276.143088 208.270786 
L 279.854668 208.270786 
L 279.605153 207.754035 
L 282.892364 207.754035 
L 282.642494 207.237284 
L 286.482458 207.237284 
L 285.9825 206.203782 
L 291.235589 206.203782 
L 290.985315 205.687031 
L 295.449485 205.687031 
L 294.949029 204.653529 
L 296.402727 204.653529 
L 295.904082 203.620027 
L 297.340924 203.620027 
L 297.09223 203.103276 
L 299.637793 203.103276 
L 299.38931 202.586525 
L 311.132484 202.586525 
L 310.883669 202.069774 
L 312.651474 202.069774 
L 312.155357 201.036272 
L 317.545688 201.036272 
L 317.298462 200.519521 
L 323.816949 200.519521 
L 323.570618 200.00277 
L 326.033202 200.00277 
L 325.787598 199.486019 
L 326.229666 199.486019 
L 325.984593 198.969268 
L 329.46 198.969268 
L 329.21583 198.452517 
L 334.436946 198.452517 
L 334.194068 197.935766 
L 334.804225 197.935766 
L 334.561914 197.419015 
L 336.770474 197.419015 
L 336.529035 196.902264 
L 336.727618 196.902264 
L 336.486667 196.385513 
L 337.277491 196.385513 
L 337.037143 195.868762 
L 337.233978 195.868762 
L 336.994112 195.352011 
L 338.167795 195.352011 
L 337.928611 194.83526 
L 340.428455 194.83526 
L 340.190253 194.318509 
L 342.26059 194.318509 
L 342.023304 193.801758 
L 343.320053 193.801758 
L 343.083511 193.285007 
L 343.634483 193.285007 
L 343.398498 192.768256 
L 344.310554 192.768256 
L 344.07522 192.251505 
L 347.82088 192.251505 
L 347.586983 191.734754 
L 353.868421 191.734754 
L 353.636895 191.218003 
L 354.782241 191.218003 
L 354.321127 190.184501 
L 361.835857 190.184501 
L 361.608678 189.66775 
L 364.71989 189.66775 
L 364.494366 189.150999 
L 366.940077 189.150999 
L 366.492213 188.117497 
L 367.2 188.117497 
L 366.976899 187.600746 
L 369.344318 187.600746 
L 369.122634 187.083995 
L 374.3325 187.083995 
L 374.113666 186.567244 
L 375.657902 186.567244 
L 375.222764 185.533742 
L 377.987759 185.533742 
L 377.772103 185.016991 
L 380.212553 185.016991 
L 379.99852 184.50024 
L 380.836957 184.50024 
L 380.410714 183.466738 
L 380.529951 183.466738 
L 382.531743 183.466738 
L 382.320249 182.949987 
L 382.436602 182.949987 
L 384.50382 182.949987 
L 384.293865 182.433236 
L 384.407289 182.433236 
L 387.193503 182.433236 
L 386.985542 181.916485 
L 387.095117 181.916485 
L 388.613917 181.916485 
L 388.407219 181.399734 
L 388.514692 181.399734 
L 389.049934 181.399734 
L 388.843902 180.882983 
L 388.950593 180.882983 
L 389.375953 180.882983 
L 389.170519 180.366232 
L 389.276575 180.366232 
L 390.850877 180.366232 
L 390.646753 179.849481 
L 390.750681 179.849481 
L 396.940986 179.849481 
L 396.741209 179.33273 
L 396.837196 179.33273 
L 397.88521 179.33273 
L 397.686456 178.815979 
L 397.781088 178.815979 
L 401.292391 178.815979 
L 401.096379 178.299228 
L 401.186671 178.299228 
L 408.482788 178.299228 
L 408.292431 177.782477 
L 408.374097 177.782477 
L 410.465048 177.782477 
L 410.27658 177.265726 
L 410.355838 177.265726 
L 411.143522 177.265726 
L 410.955942 176.748975 
L 411.034286 176.748975 
L 412.121957 176.748975 
L 411.9355 176.232224 
L 412.012604 176.232224 
L 419.244158 176.232224 
L 419.063861 175.715473 
L 419.133123 175.715473 
L 419.684607 175.715473 
L 419.505024 175.198722 
L 419.573692 175.198722 
L 424.016422 175.198722 
L 423.840909 174.681971 
L 423.904997 174.681971 
L 427.332908 174.681971 
L 427.160677 174.16522 
L 427.221344 174.16522 
L 428.24365 174.16522 
L 428.072568 173.648469 
L 428.132231 173.648469 
L 432.447467 173.648469 
L 432.280591 173.131718 
L 432.391616 173.131718 
L 434.032379 173.131718 
L 433.867313 172.614967 
L 433.975185 172.614967 
L 437.121275 172.614967 
L 436.959489 172.098216 
L 437.061542 172.098216 
L 437.770824 172.098216 
L 437.609973 171.581465 
L 437.710676 171.581465 
L 440.459375 171.581465 
L 440.301475 171.064714 
L 440.397269 171.064714 
L 441.861121 171.064714 
L 441.704917 170.547963 
L 441.79812 170.547963 
L 444.433431 170.547963 
L 444.280125 170.031212 
L 444.368818 170.031212 
L 444.766114 170.031212 
L 444.613433 169.514461 
L 444.701408 169.514461 
L 451.527907 169.514461 
L 451.382604 168.99771 
L 451.459582 168.99771 
L 465.125109 168.99771 
L 464.995394 168.480959 
L 465.1098 168.480959 
L 465.592642 168.480959 
L 465.463718 167.964208 
L 465.576671 167.964208 
L 466.081283 167.964208 
L 465.953173 167.447457 
L 466.064631 167.447457 
L 468.837103 167.447457 
L 468.712512 166.930706 
L 468.816651 166.930706 
L 472.254421 166.930706 
L 472.134204 166.413955 
L 472.229672 166.413955 
L 472.514692 166.413955 
L 472.395014 165.897204 
L 472.489677 165.897204 
L 475.773366 165.897204 
L 475.657936 165.380453 
L 475.766397 165.380453 
L 480.228075 165.380453 
L 480.118485 164.863702 
L 480.214286 164.863702 
L 481.877104 164.863702 
L 481.769833 164.346951 
L 481.87926 164.346951 
L 483.445236 164.346951 
L 483.340191 163.8302 
L 483.44451 163.8302 
L 484.40282 163.8302 
L 484.299213 163.313449 
L 484.400406 163.313449 
L 488.210088 163.313449 
L 488.111687 162.796698 
L 488.216392 162.796698 
L 489.589288 162.796698 
L 489.492907 162.279947 
L 489.592872 162.279947 
L 489.635615 162.279947 
L 489.539469 161.763196 
L 489.639103 161.763196 
L 493.387459 161.763196 
L 493.296555 161.246445 
L 493.409184 161.246445 
L 493.434153 161.246445 
L 493.343475 160.729694 
L 493.45572 160.729694 
L 497.223626 160.729694 
L 497.223626 160.729694 
" style="fill:none;stroke:#1f77b4;stroke-linecap:square;stroke-width:2;"/>
   </g>
   <g id="line2d_46">
    <path clip-path="url(#p15a4a359c2)" d="M 76.5 448.043249 
L 76.5 447.009747 
L 195.075 447.009747 
L 171.36 446.492996 
L 279.771429 446.492996 
L 254.3625 445.976245 
L 287.3 445.976245 
L 248.972727 444.942743 
L 274.125 444.942743 
L 245.892857 443.909241 
L 266.22 443.909241 
L 243.9 442.875739 
L 260.95 442.875739 
L 242.505 441.842237 
L 234.6 441.325486 
L 248.972727 441.325486 
L 234.6 440.291984 
L 247.248 440.291984 
L 228.953571 438.741731 
L 214.2 437.191478 
L 202.05 435.641225 
L 198.462857 435.124474 
L 217.508108 435.124474 
L 210.276923 434.090972 
L 218.79 434.090972 
L 208.862791 432.540719 
L 200.230435 430.990466 
L 207.689362 430.990466 
L 204.95625 430.473715 
L 212.014286 430.473715 
L 204.196154 428.923462 
L 199.466667 427.88996 
L 205.854545 427.88996 
L 201.315789 426.856458 
L 213.162712 426.856458 
L 210.885 426.339707 
L 216.457377 426.339707 
L 207.844615 424.272703 
L 253.572 424.272703 
L 251.242105 423.755952 
L 258.923077 423.755952 
L 256.613924 423.239201 
L 263.877778 423.239201 
L 261.592683 422.72245 
L 271.8 422.72245 
L 269.52907 422.205699 
L 275.921591 422.205699 
L 273.680899 421.688948 
L 276.76 421.688948 
L 268.238298 419.621944 
L 285.192 419.621944 
L 283.125743 419.105193 
L 295.751887 419.105193 
L 291.691667 418.071691 
L 296.402727 418.071691 
L 292.475893 417.038189 
L 303.515385 417.038189 
L 301.591525 416.521438 
L 313.65 416.521438 
L 311.7528 416.004687 
L 315.517323 416.004687 
L 313.65 415.487936 
L 325.946667 415.487936 
L 324.1125 414.971185 
L 327.397826 414.971185 
L 325.592806 414.454434 
L 340.707383 414.454434 
L 337.207947 413.420932 
L 347.954717 413.420932 
L 346.258125 412.904181 
L 351.246951 412.904181 
L 349.581818 412.38743 
L 350.793976 412.38743 
L 349.151497 411.870679 
L 355.013372 411.870679 
L 353.403468 411.353928 
L 360.020112 411.353928 
L 358.445 410.837177 
L 361.598361 410.837177 
L 360.048913 410.320426 
L 371.727551 410.320426 
L 370.228934 409.803675 
L 371.140909 409.803675 
L 369.660302 409.286924 
L 379.148571 409.286924 
L 377.714218 408.770173 
L 391.319214 408.770173 
L 389.950435 408.253422 
L 396.007531 408.253422 
L 393.356017 407.21992 
L 394.006612 407.21992 
L 390.118776 405.669667 
L 391.419838 405.669667 
L 390.15 405.152916 
L 397.564615 405.152916 
L 396.334483 404.636165 
L 398.666038 404.636165 
L 396.252809 403.602663 
L 399.09375 403.602663 
L 397.912088 403.085912 
L 404.861538 403.085912 
L 403.717422 402.569161 
L 406.729352 402.569161 
L 405.606122 402.05241 
L 411.754397 402.05241 
L 410.665909 401.535659 
L 416.758696 401.535659 
L 415.705263 401.018908 
L 416.122222 401.018908 
L 415.077231 400.502157 
L 417.133636 400.502157 
L 416.104532 399.985406 
L 420.436842 399.985406 
L 418.437209 398.951904 
L 419.958621 398.951904 
L 418.974499 398.435153 
L 421.202535 398.435153 
L 420.23427 397.918402 
L 421.685 397.918402 
L 420.728809 397.401651 
L 422.855313 397.401651 
L 421.91413 396.8849 
L 433.107692 396.8849 
L 432.225 396.368149 
L 433.099017 396.368149 
L 432.225 395.851398 
L 433.660533 395.851398 
L 432.797826 395.334647 
L 436.923776 395.334647 
L 436.085581 394.817896 
L 441.427051 394.817896 
L 440.61969 394.301145 
L 443.929828 394.301145 
L 443.143041 393.784394 
L 446.276507 393.784394 
L 445.509336 393.267643 
L 447.439308 393.267643 
L 446.685366 392.750892 
L 452.668966 392.750892 
L 451.949713 392.234141 
L 452.138359 392.234141 
L 453.804315 392.234141 
L 453.097753 391.71739 
L 453.280374 391.71739 
L 456.62491 391.71739 
L 455.429084 390.683888 
L 457.93007 390.683888 
L 457.264398 390.167137 
L 457.427352 390.167137 
L 465.861965 390.167137 
L 465.245886 389.650386 
L 465.381043 389.650386 
L 467.229366 389.650386 
L 466.626389 389.133635 
L 466.756086 389.133635 
L 470.822727 389.133635 
L 470.245388 388.616884 
L 470.363158 388.616884 
L 470.480584 388.616884 
L 469.906268 388.100133 
L 470.024017 388.100133 
L 472.860253 388.100133 
L 472.304348 387.583382 
L 472.414286 387.583382 
L 473.0675 387.583382 
L 472.517476 387.066631 
L 472.6259 387.066631 
L 475.140885 387.066631 
L 474.607229 386.54988 
L 474.709091 386.54988 
L 481.559124 386.54988 
L 480.661091 385.516378 
L 482.563443 385.516378 
L 482.085159 384.999627 
L 482.166 384.999627 
L 483.666628 384.999627 
L 483.198621 384.482876 
L 483.276234 384.482876 
L 484.419413 384.482876 
L 483.959526 383.966125 
L 484.034797 383.966125 
L 484.259596 383.966125 
L 483.802466 383.449374 
L 483.877492 383.449374 
L 486.401509 383.449374 
L 485.96028 382.932623 
L 486.09957 382.932623 
L 486.445192 382.932623 
L 486.007684 382.415872 
L 486.145687 382.415872 
L 488.082645 382.415872 
L 487.657895 381.899121 
L 487.787951 381.899121 
L 488.174923 381.899121 
L 487.753988 381.38237 
L 487.882653 381.38237 
L 489.264072 381.38237 
L 488.565805 380.348868 
L 491.116873 380.348868 
L 490.722 379.832117 
L 490.836217 379.832117 
L 491.734551 379.832117 
L 491.346118 379.315366 
L 491.457143 379.315366 
L 494.255338 379.315366 
L 493.884 378.798615 
L 493.985004 378.798615 
L 495.838197 378.798615 
L 495.478559 378.281864 
L 495.573288 378.281864 
L 497.840394 378.281864 
L 497.49475 377.765113 
L 497.625614 377.765113 
L 498.185344 377.765113 
L 497.844175 377.248362 
L 497.972397 377.248362 
L 498.604306 377.248362 
L 498.267968 376.731611 
L 498.393243 376.731611 
L 499.010762 376.731611 
L 498.679121 376.21486 
L 498.801566 376.21486 
L 499.325581 376.21486 
L 498.671053 375.181358 
L 498.791815 375.181358 
L 499.229862 375.181358 
L 498.906427 374.664607 
L 499.025267 374.664607 
L 499.65 374.664607 
L 499.331123 374.147856 
L 499.447218 374.147856 
L 502.668076 374.147856 
L 502.367958 373.631105 
L 502.470063 373.631105 
L 502.773813 373.631105 
L 502.476343 373.114354 
L 502.577298 373.114354 
L 503.27234 373.114354 
L 502.720274 372.080852 
L 502.786047 372.080852 
L 504.678844 372.080852 
L 504.397702 371.564101 
L 504.519253 371.564101 
L 505.088034 371.564101 
L 504.623791 370.530599 
L 504.653544 370.530599 
L 506.672274 370.530599 
L 506.407389 370.013848 
L 506.516462 370.013848 
L 508.065205 370.013848 
L 507.809538 369.497097 
L 507.91117 369.497097 
L 508.682821 369.497097 
L 508.432135 368.980346 
L 508.554656 368.980346 
L 508.749223 368.980346 
L 508.500518 368.463595 
L 508.621859 368.463595 
L 509.798048 368.463595 
L 509.556522 367.946844 
L 509.671151 367.946844 
L 510.011246 367.946844 
L 509.772397 367.430093 
L 509.88511 367.430093 
L 511.607842 367.430093 
L 511.378958 366.913342 
L 511.482371 366.913342 
L 511.646708 366.913342 
L 511.419478 366.396591 
L 511.522031 366.396591 
L 512.165932 366.396591 
L 511.942857 365.87984 
L 512.061868 365.87984 
L 513.119762 365.87984 
L 512.903077 365.363089 
L 513.015586 365.363089 
L 513.312371 365.363089 
L 513.098037 364.846338 
L 513.208708 364.846338 
L 514.263338 364.846338 
L 514.055276 364.329587 
L 514.159763 364.329587 
L 514.774418 364.329587 
L 514.570284 363.812836 
L 514.688022 363.812836 
L 515.346399 363.812836 
L 515.146469 363.296085 
L 515.259809 363.296085 
L 515.674551 363.296085 
L 515.477524 362.779334 
L 515.588104 362.779334 
L 516.403408 362.779334 
L 516.21131 362.262583 
L 516.316717 362.262583 
L 516.732 362.262583 
L 516.542734 361.745832 
L 516.660154 361.745832 
L 518.103078 361.745832 
L 517.921944 361.229081 
L 518.029477 361.229081 
L 518.05625 361.229081 
L 517.875949 360.71233 
L 517.98315 360.71233 
L 518.221818 360.71233 
L 518.043417 360.195579 
L 518.148913 360.195579 
L 518.22759 360.195579 
L 518.050261 359.678828 
L 518.155102 359.678828 
L 518.298167 359.678828 
L 517.972554 358.645326 
L 518.050714 358.645326 
L 518.39788 358.645326 
L 518.224451 358.128575 
L 518.339108 358.128575 
L 519.323891 358.128575 
L 519.156027 357.611824 
L 519.263619 357.611824 
L 519.546986 357.611824 
L 519.381175 357.095073 
L 519.486647 357.095073 
L 519.707 357.095073 
L 519.54291 356.578322 
L 519.658207 356.578322 
L 520.35449 356.578322 
L 520.112006 355.54482 
L 520.145063 355.54482 
L 520.2 355.54482 
L 519.926395 354.511318 
L 519.992505 354.511318 
L 520.058333 354.511318 
L 519.852766 353.477816 
L 519.96212 353.477816 
L 519.805475 352.961065 
L 519.914572 352.961065 
L 519.957996 352.961065 
L 519.802178 352.444314 
L 519.910714 352.444314 
L 519.943127 352.444314 
L 519.788077 351.927563 
L 519.896132 351.927563 
L 520.046151 351.927563 
L 519.892409 351.410812 
L 519.999171 351.410812 
L 520.315077 351.410812 
L 520.127093 350.37731 
L 520.303553 350.37731 
L 520.096831 349.343808 
L 520.11752 349.343808 
L 520.261569 349.343808 
L 520.112806 348.827057 
L 520.225551 348.827057 
L 520.398173 348.827057 
L 520.250797 348.310306 
L 520.361958 348.310306 
L 521.098838 348.310306 
L 520.82167 347.276804 
L 520.918033 347.276804 
L 521.127865 347.276804 
L 520.901433 346.243302 
L 520.958437 346.243302 
L 521.10939 346.243302 
L 520.968869 345.726551 
L 521.081581 345.726551 
L 521.43295 345.726551 
L 521.294557 345.2098 
L 521.404276 345.2098 
L 521.531256 345.2098 
L 521.393985 344.693049 
L 521.502428 344.693049 
L 522.375939 344.693049 
L 522.169938 343.659547 
L 522.220926 343.659547 
L 522.572823 343.659547 
L 522.319772 342.626045 
L 522.419527 342.626045 
L 522.592428 342.626045 
L 522.463051 342.109294 
L 522.569489 342.109294 
L 522.788016 342.109294 
L 522.660103 341.592543 
L 522.772566 341.592543 
L 522.876195 341.592543 
L 522.749275 341.075792 
L 522.860493 341.075792 
L 523.095872 341.075792 
L 522.970494 340.559041 
L 523.079446 340.559041 
L 523.370919 340.559041 
L 523.247303 340.04229 
L 523.361157 340.04229 
L 523.93835 340.04229 
L 523.704446 339.008788 
L 523.806282 339.008788 
L 523.828004 339.008788 
L 523.708045 338.492037 
L 523.816587 338.492037 
L 524.172193 338.492037 
L 524.042062 337.458535 
L 524.049082 337.458535 
L 524.167851 337.458535 
L 523.852541 335.908282 
L 523.929574 335.908282 
L 524.281046 335.908282 
L 524.140317 334.87478 
L 524.160735 334.87478 
L 524.187911 334.87478 
L 524.073763 334.358029 
L 524.182351 334.358029 
L 524.229582 334.358029 
L 523.997982 332.807776 
L 525.510021 332.807776 
L 525.332716 331.774274 
L 525.405117 331.774274 
L 525.637606 331.774274 
L 525.532199 331.257523 
L 525.644369 331.257523 
L 525.894587 331.257523 
L 525.790657 330.740772 
L 525.900069 330.740772 
L 526.031241 330.740772 
L 525.928303 330.224021 
L 526.036047 330.224021 
L 526.215414 330.224021 
L 526.113646 329.70727 
L 526.22487 329.70727 
L 526.246995 329.70727 
L 526.105745 328.673768 
L 526.155521 328.673768 
L 526.216086 328.673768 
L 526.115635 328.157017 
L 526.225417 328.157017 
L 526.506331 328.157017 
L 526.30857 327.123515 
L 526.421063 327.123515 
L 526.521956 327.123515 
L 526.423955 326.606764 
L 526.534923 326.606764 
L 527.095044 326.606764 
L 526.99964 326.090013 
L 527.109989 326.090013 
L 527.149863 326.090013 
L 527.055069 325.573262 
L 527.164447 325.573262 
L 527.907402 325.573262 
L 527.907402 325.573262 
" style="fill:none;stroke:#ff7f0e;stroke-linecap:square;stroke-width:2;"/>
   </g>
   <g id="line2d_47">
    <path clip-path="url(#p15a4a359c2)" d="M 76.5 448.043249 
L 76.5 425.822956 
L 87.04 425.822956 
L 85.986 423.239201 
L 84.969643 420.138695 
L 84.028571 416.521438 
L 83.180282 412.38743 
L 82.740789 409.803675 
L 88.819481 409.803675 
L 87.792857 406.186418 
L 93.24 406.186418 
L 92.136264 403.085912 
L 97.121739 403.085912 
L 95.663636 399.468655 
L 95.284158 398.435153 
L 99.75 398.435153 
L 99.524272 397.918402 
L 103.863462 397.918402 
L 102.137838 394.301145 
L 100.414286 390.167137 
L 99.636585 388.100133 
L 103.275 388.100133 
L 101.463158 383.449374 
L 99.717483 378.281864 
L 98.059091 372.597603 
L 97.513291 370.530599 
L 100.364151 370.530599 
L 99.778528 368.463595 
L 105.245455 368.463595 
L 103.758621 363.812836 
L 106.313143 363.812836 
L 105.810674 362.262583 
L 110.755 362.262583 
L 109.12381 357.611824 
L 111.448421 357.611824 
L 110.206599 353.994567 
L 112.431818 353.994567 
L 111.895522 352.444314 
L 118.35 352.444314 
L 118.145854 351.927563 
L 122.326087 351.927563 
L 121.88756 350.894061 
L 123.93 350.894061 
L 122.826977 348.310306 
L 124.808333 348.310306 
L 123.291928 344.693049 
L 127.092 344.693049 
L 126.868142 344.176298 
L 128.735683 344.176298 
L 128.054348 342.626045 
L 129.884416 342.626045 
L 129.2 341.075792 
L 130.994043 341.075792 
L 129.417769 337.458535 
L 132.871721 337.458535 
L 132.641633 336.941784 
L 134.341463 336.941784 
L 133.644578 335.391531 
L 135.3132 335.391531 
L 135.078884 334.87478 
L 136.728571 334.87478 
L 136.254331 333.841278 
L 145.820769 333.841278 
L 144.770455 331.774274 
L 147.823308 331.774274 
L 147.291045 330.740772 
L 148.791078 330.740772 
L 148.523333 330.224021 
L 150.007749 330.224021 
L 149.469231 329.190519 
L 152.388 329.190519 
L 152.113043 328.673768 
L 153.552347 328.673768 
L 153.27518 328.157017 
L 156.114643 328.157017 
L 155.55 327.123515 
L 158.333451 327.123515 
L 158.046316 326.606764 
L 159.41958 326.606764 
L 158.558824 325.056511 
L 161.254639 325.056511 
L 160.964384 324.53976 
L 162.294881 324.53976 
L 162.003061 324.023009 
L 164.630068 324.023009 
L 164.333333 323.506258 
L 168.198 323.506258 
L 167.893355 322.989507 
L 172.915082 322.989507 
L 171.66699 320.922503 
L 175.3125 320.922503 
L 174.996805 320.405752 
L 176.193631 320.405752 
L 174.939623 318.338748 
L 176.117868 318.338748 
L 175.806563 317.821997 
L 176.974766 317.821997 
L 176.662733 317.305246 
L 177.821053 317.305246 
L 176.581651 315.238242 
L 179.983636 315.238242 
L 179.670997 314.721491 
L 181.9 314.721491 
L 181.584431 314.20474 
L 182.686567 314.20474 
L 182.370536 313.687989 
L 194.049856 313.687989 
L 193.712069 313.171238 
L 195.752571 313.171238 
L 195.075 312.137736 
L 197.084746 312.137736 
L 196.74507 311.620985 
L 197.739607 311.620985 
L 197.4 311.104234 
L 198.387151 311.104234 
L 197.71 310.070732 
L 198.688089 310.070732 
L 198.350552 309.553981 
L 201.247397 309.553981 
L 200.906557 309.03723 
L 201.859946 309.03723 
L 201.180488 308.003728 
L 202.125405 308.003728 
L 201.45 306.970226 
L 203.318182 306.970226 
L 202.643617 305.936724 
L 207.212598 305.936724 
L 205.51943 303.352969 
L 206.411628 303.352969 
L 206.076804 302.836218 
L 206.962982 302.836218 
L 206.628462 302.319467 
L 207.508696 302.319467 
L 207.17449 301.802716 
L 208.048855 301.802716 
L 207.714975 301.285965 
L 208.583544 301.285965 
L 207.918136 300.252463 
L 220.401699 300.252463 
L 220.053269 299.735712 
L 220.852174 299.735712 
L 220.504337 299.218961 
L 223.657518 299.218961 
L 223.307143 298.70221 
L 224.859242 298.70221 
L 224.508511 298.185459 
L 227.565105 298.185459 
L 227.21215 297.668708 
L 227.966434 297.668708 
L 227.614186 297.151957 
L 236.388462 297.151957 
L 236.02754 296.635206 
L 246.336681 296.635206 
L 245.598261 295.601704 
L 250.815385 295.601704 
L 250.44371 295.084953 
L 251.719108 295.084953 
L 251.347881 294.568202 
L 252.611392 294.568202 
L 252.240632 294.051451 
L 258.396495 294.051451 
L 257.649487 293.017949 
L 258.848466 293.017949 
L 258.476327 292.501198 
L 259.664634 292.501198 
L 259.293103 291.984447 
L 259.883198 291.984447 
L 259.14375 290.950945 
L 259.730584 290.950945 
L 259.362651 290.434194 
L 259.946693 290.434194 
L 259.5798 289.917443 
L 261.891071 289.917443 
L 261.52396 289.400692 
L 264.920548 289.400692 
L 264.552539 288.883941 
L 265.110526 288.883941 
L 264.74358 288.36719 
L 266.403482 288.36719 
L 266.036873 287.850439 
L 268.218966 287.850439 
L 267.85239 287.333688 
L 271.061626 287.333688 
L 270.328814 286.300186 
L 272.425794 286.300186 
L 272.060261 285.783435 
L 273.611688 285.783435 
L 273.246667 285.266684 
L 274.78011 285.266684 
L 273.330165 283.19968 
L 275.843478 283.19968 
L 275.483002 282.682929 
L 280.85266 282.682929 
L 280.490973 282.166178 
L 282.862105 282.166178 
L 282.500701 281.649427 
L 286.207772 281.649427 
L 285.846207 281.132676 
L 286.302238 281.132676 
L 285.941753 280.615925 
L 289.089474 280.615925 
L 288.729153 280.099174 
L 291.80201 280.099174 
L 291.441973 279.582423 
L 296.544098 279.582423 
L 296.183961 279.065672 
L 296.6 279.065672 
L 296.240946 278.548921 
L 297.06878 278.548921 
L 296.710714 278.03217 
L 304.700943 278.03217 
L 304.3427 277.515419 
L 305.497969 277.515419 
L 304.784579 276.481917 
L 314.713453 276.481917 
L 314.003428 275.448415 
L 319.181195 275.448415 
L 318.827948 274.931664 
L 323.136 274.931664 
L 322.784165 274.414913 
L 323.755824 274.414913 
L 323.405106 273.898162 
L 325.64073 273.898162 
L 325.291304 273.381411 
L 325.607143 273.381411 
L 325.258741 272.86466 
L 329.893151 272.86466 
L 329.546512 272.347909 
L 330.750612 272.347909 
L 330.405163 271.831158 
L 331.299865 271.831158 
L 330.955541 271.314407 
L 332.1375 271.314407 
L 331.452145 270.280905 
L 334.066887 270.280905 
L 333.72619 269.764154 
L 335.152431 269.764154 
L 334.474443 268.730652 
L 335.04 268.730652 
L 334.70248 268.213901 
L 336.381995 268.213901 
L 336.045796 267.69715 
L 337.151351 267.69715 
L 336.816324 267.180399 
L 338.724459 267.180399 
L 338.058069 266.146897 
L 340.990602 266.146897 
L 340.659574 265.630146 
L 341.18427 265.630146 
L 340.854239 265.113395 
L 341.896154 265.113395 
L 341.567286 264.596644 
L 343.875 264.596644 
L 343.547736 264.079893 
L 348.982241 264.079893 
L 348.657857 263.563142 
L 349.377224 263.563142 
L 349.05391 263.046391 
L 352.345804 263.046391 
L 352.02468 262.52964 
L 352.255814 262.52964 
L 351.93554 262.012889 
L 357.328475 262.012889 
L 357.011512 261.496138 
L 358.960223 261.496138 
L 358.644978 260.979387 
L 360.975413 260.979387 
L 360.662115 260.462636 
L 365.359398 260.462636 
L 365.049464 259.945885 
L 367.216225 259.945885 
L 366.908263 259.429134 
L 371.467562 259.429134 
L 371.163158 258.912383 
L 373.36055 258.912383 
L 373.058248 258.395632 
L 374.672452 258.395632 
L 374.371875 257.878881 
L 375.432565 257.878881 
L 375.133333 257.36213 
L 378.581158 257.36213 
L 378.285 256.845379 
L 380.45605 256.845379 
L 380.162089 256.328628 
L 382.762286 256.328628 
L 382.470885 255.811877 
L 383.1091 255.811877 
L 382.81875 255.295126 
L 384.861553 255.295126 
L 384.573364 254.778375 
L 384.728571 254.778375 
L 384.441045 254.261625 
L 391.143062 254.261625 
L 390.861628 253.744874 
L 392.138864 253.744874 
L 391.859043 253.228123 
L 393.11715 253.228123 
L 392.838928 252.711372 
L 398.461271 252.711372 
L 398.188654 252.194621 
L 401.228216 252.194621 
L 400.958955 251.67787 
L 401.083099 251.67787 
L 407.608003 251.67787 
L 407.345843 251.161119 
L 407.459335 251.161119 
L 407.685782 251.161119 
L 407.424388 250.644368 
L 407.537461 250.644368 
L 408.658451 250.644368 
L 408.398749 250.127617 
L 408.51 250.127617 
L 409.503491 250.127617 
L 409.245349 249.610866 
L 409.354996 249.610866 
L 411.936502 249.610866 
L 411.681611 249.094115 
L 411.787244 249.094115 
L 411.892716 249.094115 
L 411.638438 248.577364 
L 411.743864 248.577364 
L 417.306109 248.577364 
L 417.05843 248.060613 
L 417.155556 248.060613 
L 424.493617 248.060613 
L 424.254938 247.543862 
L 424.341672 247.543862 
L 427.7982 247.543862 
L 427.564157 247.027111 
L 427.646205 247.027111 
L 429.820929 247.027111 
L 429.59 246.51036 
L 429.66917 246.51036 
L 430.063477 246.51036 
L 429.833442 245.993609 
L 429.912094 245.993609 
L 431.540475 245.993609 
L 431.312885 245.476858 
L 431.38943 245.476858 
L 432.450857 245.476858 
L 432.225 244.960107 
L 432.30019 244.960107 
L 432.6 244.960107 
L 432.374905 244.443356 
L 432.449716 244.443356 
L 436.353757 244.443356 
L 436.134066 243.926605 
L 436.204027 243.926605 
L 436.829854 243.926605 
L 436.393091 242.893103 
L 436.462386 242.893103 
L 437.898445 242.893103 
L 437.682427 242.376352 
L 437.75 242.376352 
L 439.805455 242.376352 
L 439.592497 241.859601 
L 439.657645 241.859601 
L 443.552968 241.859601 
L 443.345593 241.34285 
L 443.406268 241.34285 
L 443.527411 241.34285 
L 443.320519 240.826099 
L 443.38107 240.826099 
L 444.042665 240.826099 
L 443.836989 240.309348 
L 443.956568 240.309348 
L 444.903657 240.309348 
L 444.699668 239.792597 
L 444.817035 239.792597 
L 445.919212 239.792597 
L 445.717123 239.275846 
L 445.831967 239.275846 
L 449.002703 239.275846 
L 448.805403 238.759095 
L 448.913333 238.759095 
L 449.768625 238.759095 
L 449.572889 238.242344 
L 449.678942 238.242344 
L 451.140681 238.242344 
L 450.947368 237.725593 
L 451.050309 237.725593 
L 452.269246 237.725593 
L 452.078015 237.208842 
L 452.178393 237.208842 
L 452.378539 237.208842 
L 452.187931 236.692091 
L 452.287842 236.692091 
L 452.586364 236.692091 
L 452.396517 236.17534 
L 452.495764 236.17534 
L 455.476137 236.17534 
L 455.152588 235.141838 
L 455.199268 235.141838 
L 455.571074 235.141838 
L 455.38688 234.625087 
L 455.479515 234.625087 
L 456.259701 234.625087 
L 456.076949 234.108336 
L 456.168029 234.108336 
L 456.213503 234.108336 
L 456.031124 233.591585 
L 456.122073 233.591585 
L 457.111111 233.591585 
L 456.93047 233.074834 
L 457.019488 233.074834 
L 457.285532 233.074834 
L 456.925791 232.041332 
L 457.014394 232.041332 
L 458.064722 232.041332 
L 457.886754 231.524581 
L 457.973346 231.524581 
L 468.415385 231.524581 
L 468.253369 231.00783 
L 468.355615 231.00783 
L 468.863069 231.00783 
L 468.702133 230.491079 
L 468.803032 230.491079 
L 470.706122 230.491079 
L 470.390884 229.457577 
L 470.48722 229.457577 
L 471.155168 229.457577 
L 470.998931 228.940826 
L 471.093594 228.940826 
L 472.699458 228.940826 
L 472.546011 228.424075 
L 472.636828 228.424075 
L 474.668953 228.424075 
L 474.518983 227.907324 
L 474.633734 227.907324 
L 477.127355 227.907324 
L 476.981673 227.390573 
L 477.088889 227.390573 
L 477.725702 227.390573 
L 477.581324 226.873822 
L 477.686561 226.873822 
L 480.46654 226.873822 
L 480.326952 226.357071 
L 480.424224 226.357071 
L 480.978364 226.357071 
L 480.839938 225.84032 
L 480.935578 225.84032 
L 481.173535 225.84032 
L 481.035751 225.323569 
L 481.130636 225.323569 
L 484.296397 225.323569 
L 484.118367 224.290067 
L 484.139961 224.290067 
L 484.590222 224.290067 
L 484.459003 223.773316 
L 484.56549 223.773316 
L 485.134659 223.773316 
L 485.004645 223.256565 
L 485.109149 223.256565 
L 486.297567 223.256565 
L 486.042082 222.223063 
L 486.142857 222.223063 
L 486.721221 222.223063 
L 486.594727 221.706312 
L 486.693565 221.706312 
L 490.253998 221.706312 
L 490.133721 221.189561 
L 490.23935 221.189561 
L 490.848262 221.189561 
L 490.729265 220.67281 
L 490.832597 220.67281 
L 497.386747 220.67281 
L 497.279295 220.156059 
L 497.388382 220.156059 
L 497.967188 220.156059 
L 497.860998 219.639308 
L 497.967488 219.639308 
L 498.610507 219.639308 
L 498.505687 219.122557 
L 498.609368 219.122557 
L 498.879586 219.122557 
L 498.775474 218.605806 
L 498.87786 218.605806 
L 499.843095 218.605806 
L 499.740912 218.089055 
L 499.85159 218.089055 
L 500.505706 218.089055 
L 500.40492 217.572304 
L 500.5125 217.572304 
L 501.066925 217.572304 
L 500.967355 217.055553 
L 501.072315 217.055553 
L 501.794834 217.055553 
L 501.696772 216.538802 
L 501.809731 216.538802 
L 502.618846 216.538802 
L 502.469837 215.5053 
L 502.535266 215.5053 
L 502.870513 215.5053 
L 502.775 214.988549 
L 502.882342 214.988549 
L 504.235361 214.988549 
L 504.142476 214.471798 
L 504.253661 214.471798 
L 504.76231 214.471798 
L 504.598651 213.438296 
L 504.6875 213.438296 
L 507.034739 213.438296 
L 507.034739 213.438296 
" style="fill:none;stroke:#2ca02c;stroke-linecap:square;stroke-width:2;"/>
   </g>
   <g id="patch_3">
    <path d="M 76.5 448.56 
L 76.5 60.48 
" style="fill:none;stroke:#000000;stroke-linecap:square;stroke-linejoin:miter;stroke-width:0.8;"/>
   </g>
   <g id="patch_4">
    <path d="M 550.8 448.56 
L 550.8 60.48 
" style="fill:none;stroke:#000000;stroke-linecap:square;stroke-linejoin:miter;stroke-width:0.8;"/>
   </g>
   <g id="patch_5">
    <path d="M 76.5 448.56 
L 550.8 448.56 
" style="fill:none;stroke:#000000;stroke-linecap:square;stroke-linejoin:miter;stroke-width:0.8;"/>
   </g>
   <g id="patch_6">
    <path d="M 76.5 60.48 
L 550.8 60.48 
" style="fill:none;stroke:#000000;stroke-linecap:square;stroke-linejoin:miter;stroke-width:0.8;"/>
   </g>
   <g id="text_25">
    <!-- boat: img1-img5 -->
    <defs>
     <path d="M 48.6875 27.296875 
Q 48.6875 37.203125 44.609375 42.84375 
Q 40.53125 48.484375 33.40625 48.484375 
Q 26.265625 48.484375 22.1875 42.84375 
Q 18.109375 37.203125 18.109375 27.296875 
Q 18.109375 17.390625 22.1875 11.75 
Q 26.265625 6.109375 33.40625 6.109375 
Q 40.53125 6.109375 44.609375 11.75 
Q 48.6875 17.390625 48.6875 27.296875 
z
M 18.109375 46.390625 
Q 20.953125 51.265625 25.265625 53.625 
Q 29.59375 56 35.59375 56 
Q 45.5625 56 51.78125 48.09375 
Q 58.015625 40.1875 58.015625 27.296875 
Q 58.015625 14.40625 51.78125 6.484375 
Q 45.5625 -1.421875 35.59375 -1.421875 
Q 29.59375 -1.421875 25.265625 0.953125 
Q 20.953125 3.328125 18.109375 8.203125 
L 18.109375 0 
L 9.078125 0 
L 9.078125 75.984375 
L 18.109375 75.984375 
z
" id="DejaVuSans-98"/>
     <path d="M 34.28125 27.484375 
Q 23.390625 27.484375 19.1875 25 
Q 14.984375 22.515625 14.984375 16.5 
Q 14.984375 11.71875 18.140625 8.90625 
Q 21.296875 6.109375 26.703125 6.109375 
Q 34.1875 6.109375 38.703125 11.40625 
Q 43.21875 16.703125 43.21875 25.484375 
L 43.21875 27.484375 
z
M 52.203125 31.203125 
L 52.203125 0 
L 43.21875 0 
L 43.21875 8.296875 
Q 40.140625 3.328125 35.546875 0.953125 
Q 30.953125 -1.421875 24.3125 -1.421875 
Q 15.921875 -1.421875 10.953125 3.296875 
Q 6 8.015625 6 15.921875 
Q 6 25.140625 12.171875 29.828125 
Q 18.359375 34.515625 30.609375 34.515625 
L 43.21875 34.515625 
L 43.21875 35.40625 
Q 43.21875 41.609375 39.140625 45 
Q 35.0625 48.390625 27.6875 48.390625 
Q 23 48.390625 18.546875 47.265625 
Q 14.109375 46.140625 10.015625 43.890625 
L 10.015625 52.203125 
Q 14.9375 54.109375 19.578125 55.046875 
Q 24.21875 56 28.609375 56 
Q 40.484375 56 46.34375 49.84375 
Q 52.203125 43.703125 52.203125 31.203125 
z
" id="DejaVuSans-97"/>
     <path d="M 11.71875 12.40625 
L 22.015625 12.40625 
L 22.015625 0 
L 11.71875 0 
z
M 11.71875 51.703125 
L 22.015625 51.703125 
L 22.015625 39.3125 
L 11.71875 39.3125 
z
" id="DejaVuSans-58"/>
     <path id="DejaVuSans-32"/>
     <path d="M 52 44.1875 
Q 55.375 50.25 60.0625 53.125 
Q 64.75 56 71.09375 56 
Q 79.640625 56 84.28125 50.015625 
Q 88.921875 44.046875 88.921875 33.015625 
L 88.921875 0 
L 79.890625 0 
L 79.890625 32.71875 
Q 79.890625 40.578125 77.09375 44.375 
Q 74.3125 48.1875 68.609375 48.1875 
Q 61.625 48.1875 57.5625 43.546875 
Q 53.515625 38.921875 53.515625 30.90625 
L 53.515625 0 
L 44.484375 0 
L 44.484375 32.71875 
Q 44.484375 40.625 41.703125 44.40625 
Q 38.921875 48.1875 33.109375 48.1875 
Q 26.21875 48.1875 22.15625 43.53125 
Q 18.109375 38.875 18.109375 30.90625 
L 18.109375 0 
L 9.078125 0 
L 9.078125 54.6875 
L 18.109375 54.6875 
L 18.109375 46.1875 
Q 21.1875 51.21875 25.484375 53.609375 
Q 29.78125 56 35.6875 56 
Q 41.65625 56 45.828125 52.96875 
Q 50 49.953125 52 44.1875 
z
" id="DejaVuSans-109"/>
     <path d="M 45.40625 27.984375 
Q 45.40625 37.75 41.375 43.109375 
Q 37.359375 48.484375 30.078125 48.484375 
Q 22.859375 48.484375 18.828125 43.109375 
Q 14.796875 37.75 14.796875 27.984375 
Q 14.796875 18.265625 18.828125 12.890625 
Q 22.859375 7.515625 30.078125 7.515625 
Q 37.359375 7.515625 41.375 12.890625 
Q 45.40625 18.265625 45.40625 27.984375 
z
M 54.390625 6.78125 
Q 54.390625 -7.171875 48.1875 -13.984375 
Q 42 -20.796875 29.203125 -20.796875 
Q 24.46875 -20.796875 20.265625 -20.09375 
Q 16.0625 -19.390625 12.109375 -17.921875 
L 12.109375 -9.1875 
Q 16.0625 -11.328125 19.921875 -12.34375 
Q 23.78125 -13.375 27.78125 -13.375 
Q 36.625 -13.375 41.015625 -8.765625 
Q 45.40625 -4.15625 45.40625 5.171875 
L 45.40625 9.625 
Q 42.625 4.78125 38.28125 2.390625 
Q 33.9375 0 27.875 0 
Q 17.828125 0 11.671875 7.65625 
Q 5.515625 15.328125 5.515625 27.984375 
Q 5.515625 40.671875 11.671875 48.328125 
Q 17.828125 56 27.875 56 
Q 33.9375 56 38.28125 53.609375 
Q 42.625 51.21875 45.40625 46.390625 
L 45.40625 54.6875 
L 54.390625 54.6875 
z
" id="DejaVuSans-103"/>
    </defs>
    <g transform="translate(263.772188 41.042625)scale(0.12 -0.12)">
     <use xlink:href="#DejaVuSans-98"/>
     <use x="63.476562" xlink:href="#DejaVuSans-111"/>
     <use x="124.658203" xlink:href="#DejaVuSans-97"/>
     <use x="185.9375" xlink:href="#DejaVuSans-116"/>
     <use x="225.146484" xlink:href="#DejaVuSans-58"/>
     <use x="258.837891" xlink:href="#DejaVuSans-32"/>
     <use x="290.625" xlink:href="#DejaVuSans-105"/>
     <use x="318.408203" xlink:href="#DejaVuSans-109"/>
     <use x="415.820312" xlink:href="#DejaVuSans-103"/>
     <use x="479.296875" xlink:href="#DejaVuSans-49"/>
     <use x="542.919922" xlink:href="#DejaVuSans-45"/>
     <use x="579.003906" xlink:href="#DejaVuSans-105"/>
     <use x="606.787109" xlink:href="#DejaVuSans-109"/>
     <use x="704.199219" xlink:href="#DejaVuSans-103"/>
     <use x="767.675781" xlink:href="#DejaVuSans-53"/>
    </g>
    <!-- NearestNeighbours -->
    <defs>
     <path d="M 9.8125 72.90625 
L 23.09375 72.90625 
L 55.421875 11.921875 
L 55.421875 72.90625 
L 64.984375 72.90625 
L 64.984375 0 
L 51.703125 0 
L 19.390625 60.984375 
L 19.390625 0 
L 9.8125 0 
z
" id="DejaVuSans-78"/>
     <path d="M 54.890625 33.015625 
L 54.890625 0 
L 45.90625 0 
L 45.90625 32.71875 
Q 45.90625 40.484375 42.875 44.328125 
Q 39.84375 48.1875 33.796875 48.1875 
Q 26.515625 48.1875 22.3125 43.546875 
Q 18.109375 38.921875 18.109375 30.90625 
L 18.109375 0 
L 9.078125 0 
L 9.078125 75.984375 
L 18.109375 75.984375 
L 18.109375 46.1875 
Q 21.34375 51.125 25.703125 53.5625 
Q 30.078125 56 35.796875 56 
Q 45.21875 56 50.046875 50.171875 
Q 54.890625 44.34375 54.890625 33.015625 
z
" id="DejaVuSans-104"/>
     <path d="M 8.5 21.578125 
L 8.5 54.6875 
L 17.484375 54.6875 
L 17.484375 21.921875 
Q 17.484375 14.15625 20.5 10.265625 
Q 23.53125 6.390625 29.59375 6.390625 
Q 36.859375 6.390625 41.078125 11.03125 
Q 45.3125 15.671875 45.3125 23.6875 
L 45.3125 54.6875 
L 54.296875 54.6875 
L 54.296875 0 
L 45.3125 0 
L 45.3125 8.40625 
Q 42.046875 3.421875 37.71875 1 
Q 33.40625 -1.421875 27.6875 -1.421875 
Q 18.265625 -1.421875 13.375 4.4375 
Q 8.5 10.296875 8.5 21.578125 
z
M 31.109375 56 
z
" id="DejaVuSans-117"/>
    </defs>
    <g transform="translate(255.957188 54.48)scale(0.12 -0.12)">
     <use xlink:href="#DejaVuSans-78"/>
     <use x="74.804688" xlink:href="#DejaVuSans-101"/>
     <use x="136.328125" xlink:href="#DejaVuSans-97"/>
     <use x="197.607422" xlink:href="#DejaVuSans-114"/>
     <use x="236.470703" xlink:href="#DejaVuSans-101"/>
     <use x="297.994141" xlink:href="#DejaVuSans-115"/>
     <use x="350.09375" xlink:href="#DejaVuSans-116"/>
     <use x="389.302734" xlink:href="#DejaVuSans-78"/>
     <use x="464.107422" xlink:href="#DejaVuSans-101"/>
     <use x="525.630859" xlink:href="#DejaVuSans-105"/>
     <use x="553.414062" xlink:href="#DejaVuSans-103"/>
     <use x="616.890625" xlink:href="#DejaVuSans-104"/>
     <use x="680.269531" xlink:href="#DejaVuSans-98"/>
     <use x="743.746094" xlink:href="#DejaVuSans-111"/>
     <use x="804.927734" xlink:href="#DejaVuSans-117"/>
     <use x="868.306641" xlink:href="#DejaVuSans-114"/>
     <use x="909.419922" xlink:href="#DejaVuSans-115"/>
    </g>
   </g>
   <g id="legend_1">
    <g id="patch_7">
     <path d="M 362.659375 112.514375 
L 543.8 112.514375 
Q 545.8 112.514375 545.8 110.514375 
L 545.8 67.48 
Q 545.8 65.48 543.8 65.48 
L 362.659375 65.48 
Q 360.659375 65.48 360.659375 67.48 
L 360.659375 110.514375 
Q 360.659375 112.514375 362.659375 112.514375 
z
" style="fill:#ffffff;opacity:0.8;stroke:#cccccc;stroke-linejoin:miter;"/>
    </g>
    <g id="line2d_48">
     <path d="M 364.659375 73.578438 
L 384.659375 73.578438 
" style="fill:none;stroke:#1f77b4;stroke-linecap:square;stroke-width:2;"/>
    </g>
    <g id="line2d_49"/>
    <g id="text_26">
     <!-- root-cvsift AP: 61.7, %In: 11.3 -->
     <defs>
      <path d="M 2.984375 54.6875 
L 12.5 54.6875 
L 29.59375 8.796875 
L 46.6875 54.6875 
L 56.203125 54.6875 
L 35.6875 0 
L 23.484375 0 
z
" id="DejaVuSans-118"/>
      <path d="M 37.109375 75.984375 
L 37.109375 68.5 
L 28.515625 68.5 
Q 23.6875 68.5 21.796875 66.546875 
Q 19.921875 64.59375 19.921875 59.515625 
L 19.921875 54.6875 
L 34.71875 54.6875 
L 34.71875 47.703125 
L 19.921875 47.703125 
L 19.921875 0 
L 10.890625 0 
L 10.890625 47.703125 
L 2.296875 47.703125 
L 2.296875 54.6875 
L 10.890625 54.6875 
L 10.890625 58.5 
Q 10.890625 67.625 15.140625 71.796875 
Q 19.390625 75.984375 28.609375 75.984375 
z
" id="DejaVuSans-102"/>
      <path d="M 34.1875 63.1875 
L 20.796875 26.90625 
L 47.609375 26.90625 
z
M 28.609375 72.90625 
L 39.796875 72.90625 
L 67.578125 0 
L 57.328125 0 
L 50.6875 18.703125 
L 17.828125 18.703125 
L 11.1875 0 
L 0.78125 0 
z
" id="DejaVuSans-65"/>
      <path d="M 19.671875 64.796875 
L 19.671875 37.40625 
L 32.078125 37.40625 
Q 38.96875 37.40625 42.71875 40.96875 
Q 46.484375 44.53125 46.484375 51.125 
Q 46.484375 57.671875 42.71875 61.234375 
Q 38.96875 64.796875 32.078125 64.796875 
z
M 9.8125 72.90625 
L 32.078125 72.90625 
Q 44.34375 72.90625 50.609375 67.359375 
Q 56.890625 61.8125 56.890625 51.125 
Q 56.890625 40.328125 50.609375 34.8125 
Q 44.34375 29.296875 32.078125 29.296875 
L 19.671875 29.296875 
L 19.671875 0 
L 9.8125 0 
z
" id="DejaVuSans-80"/>
      <path d="M 11.71875 12.40625 
L 22.015625 12.40625 
L 22.015625 4 
L 14.015625 -11.625 
L 7.71875 -11.625 
L 11.71875 4 
z
" id="DejaVuSans-44"/>
      <path d="M 72.703125 32.078125 
Q 68.453125 32.078125 66.03125 28.46875 
Q 63.625 24.859375 63.625 18.40625 
Q 63.625 12.0625 66.03125 8.421875 
Q 68.453125 4.78125 72.703125 4.78125 
Q 76.859375 4.78125 79.265625 8.421875 
Q 81.6875 12.0625 81.6875 18.40625 
Q 81.6875 24.8125 79.265625 28.4375 
Q 76.859375 32.078125 72.703125 32.078125 
z
M 72.703125 38.28125 
Q 80.421875 38.28125 84.953125 32.90625 
Q 89.5 27.546875 89.5 18.40625 
Q 89.5 9.28125 84.9375 3.921875 
Q 80.375 -1.421875 72.703125 -1.421875 
Q 64.890625 -1.421875 60.34375 3.921875 
Q 55.8125 9.28125 55.8125 18.40625 
Q 55.8125 27.59375 60.375 32.9375 
Q 64.9375 38.28125 72.703125 38.28125 
z
M 22.3125 68.015625 
Q 18.109375 68.015625 15.6875 64.375 
Q 13.28125 60.75 13.28125 54.390625 
Q 13.28125 47.953125 15.671875 44.328125 
Q 18.0625 40.71875 22.3125 40.71875 
Q 26.5625 40.71875 28.96875 44.328125 
Q 31.390625 47.953125 31.390625 54.390625 
Q 31.390625 60.6875 28.953125 64.34375 
Q 26.515625 68.015625 22.3125 68.015625 
z
M 66.40625 74.21875 
L 74.21875 74.21875 
L 28.609375 -1.421875 
L 20.796875 -1.421875 
z
M 22.3125 74.21875 
Q 30.03125 74.21875 34.609375 68.875 
Q 39.203125 63.53125 39.203125 54.390625 
Q 39.203125 45.171875 34.640625 39.84375 
Q 30.078125 34.515625 22.3125 34.515625 
Q 14.546875 34.515625 10.03125 39.859375 
Q 5.515625 45.21875 5.515625 54.390625 
Q 5.515625 63.484375 10.046875 68.84375 
Q 14.59375 74.21875 22.3125 74.21875 
z
" id="DejaVuSans-37"/>
      <path d="M 9.8125 72.90625 
L 19.671875 72.90625 
L 19.671875 0 
L 9.8125 0 
z
" id="DejaVuSans-73"/>
     </defs>
     <g transform="translate(392.659375 77.078438)scale(0.1 -0.1)">
      <use xlink:href="#DejaVuSans-114"/>
      <use x="38.863281" xlink:href="#DejaVuSans-111"/>
      <use x="100.044922" xlink:href="#DejaVuSans-111"/>
      <use x="161.226562" xlink:href="#DejaVuSans-116"/>
      <use x="200.435547" xlink:href="#DejaVuSans-45"/>
      <use x="236.519531" xlink:href="#DejaVuSans-99"/>
      <use x="291.5" xlink:href="#DejaVuSans-118"/>
      <use x="350.679688" xlink:href="#DejaVuSans-115"/>
      <use x="402.779297" xlink:href="#DejaVuSans-105"/>
      <use x="430.5625" xlink:href="#DejaVuSans-102"/>
      <use x="464.017578" xlink:href="#DejaVuSans-116"/>
      <use x="503.226562" xlink:href="#DejaVuSans-32"/>
      <use x="535.013672" xlink:href="#DejaVuSans-65"/>
      <use x="603.421875" xlink:href="#DejaVuSans-80"/>
      <use x="663.724609" xlink:href="#DejaVuSans-58"/>
      <use x="697.416016" xlink:href="#DejaVuSans-32"/>
      <use x="729.203125" xlink:href="#DejaVuSans-54"/>
      <use x="792.826172" xlink:href="#DejaVuSans-49"/>
      <use x="856.449219" xlink:href="#DejaVuSans-46"/>
      <use x="888.236328" xlink:href="#DejaVuSans-55"/>
      <use x="951.859375" xlink:href="#DejaVuSans-44"/>
      <use x="983.646484" xlink:href="#DejaVuSans-32"/>
      <use x="1015.433594" xlink:href="#DejaVuSans-37"/>
      <use x="1110.453125" xlink:href="#DejaVuSans-73"/>
      <use x="1139.945312" xlink:href="#DejaVuSans-110"/>
      <use x="1203.324219" xlink:href="#DejaVuSans-58"/>
      <use x="1237.015625" xlink:href="#DejaVuSans-32"/>
      <use x="1268.802734" xlink:href="#DejaVuSans-49"/>
      <use x="1332.425781" xlink:href="#DejaVuSans-49"/>
      <use x="1396.048828" xlink:href="#DejaVuSans-46"/>
      <use x="1427.835938" xlink:href="#DejaVuSans-51"/>
     </g>
    </g>
    <g id="line2d_50">
     <path d="M 364.659375 88.256563 
L 384.659375 88.256563 
" style="fill:none;stroke:#ff7f0e;stroke-linecap:square;stroke-width:2;"/>
    </g>
    <g id="line2d_51"/>
    <g id="text_27">
     <!-- tfeat AP: 9.0, %In: 4.8 -->
     <g transform="translate(392.659375 91.756563)scale(0.1 -0.1)">
      <use xlink:href="#DejaVuSans-116"/>
      <use x="39.208984" xlink:href="#DejaVuSans-102"/>
      <use x="74.414062" xlink:href="#DejaVuSans-101"/>
      <use x="135.9375" xlink:href="#DejaVuSans-97"/>
      <use x="197.216797" xlink:href="#DejaVuSans-116"/>
      <use x="236.425781" xlink:href="#DejaVuSans-32"/>
      <use x="268.212891" xlink:href="#DejaVuSans-65"/>
      <use x="336.621094" xlink:href="#DejaVuSans-80"/>
      <use x="396.923828" xlink:href="#DejaVuSans-58"/>
      <use x="430.615234" xlink:href="#DejaVuSans-32"/>
      <use x="462.402344" xlink:href="#DejaVuSans-57"/>
      <use x="526.025391" xlink:href="#DejaVuSans-46"/>
      <use x="557.8125" xlink:href="#DejaVuSans-48"/>
      <use x="621.435547" xlink:href="#DejaVuSans-44"/>
      <use x="653.222656" xlink:href="#DejaVuSans-32"/>
      <use x="685.009766" xlink:href="#DejaVuSans-37"/>
      <use x="780.029297" xlink:href="#DejaVuSans-73"/>
      <use x="809.521484" xlink:href="#DejaVuSans-110"/>
      <use x="872.900391" xlink:href="#DejaVuSans-58"/>
      <use x="906.591797" xlink:href="#DejaVuSans-32"/>
      <use x="938.378906" xlink:href="#DejaVuSans-52"/>
      <use x="1002.001953" xlink:href="#DejaVuSans-46"/>
      <use x="1033.789062" xlink:href="#DejaVuSans-56"/>
     </g>
    </g>
    <g id="line2d_52">
     <path d="M 364.659375 102.934687 
L 384.659375 102.934687 
" style="fill:none;stroke:#2ca02c;stroke-linecap:square;stroke-width:2;"/>
    </g>
    <g id="line2d_53"/>
    <g id="text_28">
     <!-- hardnet AP: 43.0, %In: 9.2 -->
     <defs>
      <path d="M 45.40625 46.390625 
L 45.40625 75.984375 
L 54.390625 75.984375 
L 54.390625 0 
L 45.40625 0 
L 45.40625 8.203125 
Q 42.578125 3.328125 38.25 0.953125 
Q 33.9375 -1.421875 27.875 -1.421875 
Q 17.96875 -1.421875 11.734375 6.484375 
Q 5.515625 14.40625 5.515625 27.296875 
Q 5.515625 40.1875 11.734375 48.09375 
Q 17.96875 56 27.875 56 
Q 33.9375 56 38.25 53.625 
Q 42.578125 51.265625 45.40625 46.390625 
z
M 14.796875 27.296875 
Q 14.796875 17.390625 18.875 11.75 
Q 22.953125 6.109375 30.078125 6.109375 
Q 37.203125 6.109375 41.296875 11.75 
Q 45.40625 17.390625 45.40625 27.296875 
Q 45.40625 37.203125 41.296875 42.84375 
Q 37.203125 48.484375 30.078125 48.484375 
Q 22.953125 48.484375 18.875 42.84375 
Q 14.796875 37.203125 14.796875 27.296875 
z
" id="DejaVuSans-100"/>
     </defs>
     <g transform="translate(392.659375 106.434687)scale(0.1 -0.1)">
      <use xlink:href="#DejaVuSans-104"/>
      <use x="63.378906" xlink:href="#DejaVuSans-97"/>
      <use x="124.658203" xlink:href="#DejaVuSans-114"/>
      <use x="164.021484" xlink:href="#DejaVuSans-100"/>
      <use x="227.498047" xlink:href="#DejaVuSans-110"/>
      <use x="290.876953" xlink:href="#DejaVuSans-101"/>
      <use x="352.400391" xlink:href="#DejaVuSans-116"/>
      <use x="391.609375" xlink:href="#DejaVuSans-32"/>
      <use x="423.396484" xlink:href="#DejaVuSans-65"/>
      <use x="491.804688" xlink:href="#DejaVuSans-80"/>
      <use x="552.107422" xlink:href="#DejaVuSans-58"/>
      <use x="585.798828" xlink:href="#DejaVuSans-32"/>
      <use x="617.585938" xlink:href="#DejaVuSans-52"/>
      <use x="681.208984" xlink:href="#DejaVuSans-51"/>
      <use x="744.832031" xlink:href="#DejaVuSans-46"/>
      <use x="776.619141" xlink:href="#DejaVuSans-48"/>
      <use x="840.242188" xlink:href="#DejaVuSans-44"/>
      <use x="872.029297" xlink:href="#DejaVuSans-32"/>
      <use x="903.816406" xlink:href="#DejaVuSans-37"/>
      <use x="998.835938" xlink:href="#DejaVuSans-73"/>
      <use x="1028.328125" xlink:href="#DejaVuSans-110"/>
      <use x="1091.707031" xlink:href="#DejaVuSans-58"/>
      <use x="1125.398438" xlink:href="#DejaVuSans-32"/>
      <use x="1157.185547" xlink:href="#DejaVuSans-57"/>
      <use x="1220.808594" xlink:href="#DejaVuSans-46"/>
      <use x="1252.595703" xlink:href="#DejaVuSans-50"/>
     </g>
    </g>
   </g>
  </g>
 </g>
 <defs>
  <clipPath id="p15a4a359c2">
   <rect height="388.08" width="474.3" x="76.5" y="60.48"/>
  </clipPath>
 </defs>
</svg>
