<?xml version="1.0" encoding="utf-8" standalone="no"?>
<!DOCTYPE svg PUBLIC "-//W3C//DTD SVG 1.1//EN"
  "http://www.w3.org/Graphics/SVG/1.1/DTD/svg11.dtd">
<!-- Created with matplotlib (https://matplotlib.org/) -->
<svg height="504pt" version="1.1" viewBox="0 0 612 504" width="612pt" xmlns="http://www.w3.org/2000/svg" xmlns:xlink="http://www.w3.org/1999/xlink">
 <defs>
  <style type="text/css">
*{stroke-linecap:butt;stroke-linejoin:round;}
  </style>
 </defs>
 <g id="figure_1">
  <g id="patch_1">
   <path d="M 0 504 
L 612 504 
L 612 0 
L 0 0 
z
" style="fill:#ffffff;"/>
  </g>
  <g id="axes_1">
   <g id="patch_2">
    <path d="M 76.5 448.56 
L 550.8 448.56 
L 550.8 60.48 
L 76.5 60.48 
z
" style="fill:#ffffff;"/>
   </g>
   <g id="matplotlib.axis_1">
    <g id="xtick_1">
     <g id="line2d_1">
      <path clip-path="url(#pe280a60785)" d="M 76.5 448.56 
L 76.5 60.48 
" style="fill:none;stroke:#b0b0b0;stroke-linecap:square;stroke-width:0.8;"/>
     </g>
     <g id="line2d_2">
      <defs>
       <path d="M 0 0 
L 0 3.5 
" id="mf1cbcbbfda" style="stroke:#000000;stroke-width:0.8;"/>
      </defs>
      <g>
       <use style="stroke:#000000;stroke-width:0.8;" x="76.5" xlink:href="#mf1cbcbbfda" y="448.56"/>
      </g>
     </g>
     <g id="text_1">
      <!-- 0.0 -->
      <defs>
       <path d="M 31.78125 66.40625 
Q 24.171875 66.40625 20.328125 58.90625 
Q 16.5 51.421875 16.5 36.375 
Q 16.5 21.390625 20.328125 13.890625 
Q 24.171875 6.390625 31.78125 6.390625 
Q 39.453125 6.390625 43.28125 13.890625 
Q 47.125 21.390625 47.125 36.375 
Q 47.125 51.421875 43.28125 58.90625 
Q 39.453125 66.40625 31.78125 66.40625 
z
M 31.78125 74.21875 
Q 44.046875 74.21875 50.515625 64.515625 
Q 56.984375 54.828125 56.984375 36.375 
Q 56.984375 17.96875 50.515625 8.265625 
Q 44.046875 -1.421875 31.78125 -1.421875 
Q 19.53125 -1.421875 13.0625 8.265625 
Q 6.59375 17.96875 6.59375 36.375 
Q 6.59375 54.828125 13.0625 64.515625 
Q 19.53125 74.21875 31.78125 74.21875 
z
" id="DejaVuSans-48"/>
       <path d="M 10.6875 12.40625 
L 21 12.40625 
L 21 0 
L 10.6875 0 
z
" id="DejaVuSans-46"/>
      </defs>
      <g transform="translate(68.548438 463.158437)scale(0.1 -0.1)">
       <use xlink:href="#DejaVuSans-48"/>
       <use x="63.623047" xlink:href="#DejaVuSans-46"/>
       <use x="95.410156" xlink:href="#DejaVuSans-48"/>
      </g>
     </g>
    </g>
    <g id="xtick_2">
     <g id="line2d_3">
      <path clip-path="url(#pe280a60785)" d="M 123.93 448.56 
L 123.93 60.48 
" style="fill:none;stroke:#b0b0b0;stroke-linecap:square;stroke-width:0.8;"/>
     </g>
     <g id="line2d_4">
      <g>
       <use style="stroke:#000000;stroke-width:0.8;" x="123.93" xlink:href="#mf1cbcbbfda" y="448.56"/>
      </g>
     </g>
     <g id="text_2">
      <!-- 0.1 -->
      <defs>
       <path d="M 12.40625 8.296875 
L 28.515625 8.296875 
L 28.515625 63.921875 
L 10.984375 60.40625 
L 10.984375 69.390625 
L 28.421875 72.90625 
L 38.28125 72.90625 
L 38.28125 8.296875 
L 54.390625 8.296875 
L 54.390625 0 
L 12.40625 0 
z
" id="DejaVuSans-49"/>
      </defs>
      <g transform="translate(115.978438 463.158437)scale(0.1 -0.1)">
       <use xlink:href="#DejaVuSans-48"/>
       <use x="63.623047" xlink:href="#DejaVuSans-46"/>
       <use x="95.410156" xlink:href="#DejaVuSans-49"/>
      </g>
     </g>
    </g>
    <g id="xtick_3">
     <g id="line2d_5">
      <path clip-path="url(#pe280a60785)" d="M 171.36 448.56 
L 171.36 60.48 
" style="fill:none;stroke:#b0b0b0;stroke-linecap:square;stroke-width:0.8;"/>
     </g>
     <g id="line2d_6">
      <g>
       <use style="stroke:#000000;stroke-width:0.8;" x="171.36" xlink:href="#mf1cbcbbfda" y="448.56"/>
      </g>
     </g>
     <g id="text_3">
      <!-- 0.2 -->
      <defs>
       <path d="M 19.1875 8.296875 
L 53.609375 8.296875 
L 53.609375 0 
L 7.328125 0 
L 7.328125 8.296875 
Q 12.9375 14.109375 22.625 23.890625 
Q 32.328125 33.6875 34.8125 36.53125 
Q 39.546875 41.84375 41.421875 45.53125 
Q 43.3125 49.21875 43.3125 52.78125 
Q 43.3125 58.59375 39.234375 62.25 
Q 35.15625 65.921875 28.609375 65.921875 
Q 23.96875 65.921875 18.8125 64.3125 
Q 13.671875 62.703125 7.8125 59.421875 
L 7.8125 69.390625 
Q 13.765625 71.78125 18.9375 73 
Q 24.125 74.21875 28.421875 74.21875 
Q 39.75 74.21875 46.484375 68.546875 
Q 53.21875 62.890625 53.21875 53.421875 
Q 53.21875 48.921875 51.53125 44.890625 
Q 49.859375 40.875 45.40625 35.40625 
Q 44.1875 33.984375 37.640625 27.21875 
Q 31.109375 20.453125 19.1875 8.296875 
z
" id="DejaVuSans-50"/>
      </defs>
      <g transform="translate(163.408438 463.158437)scale(0.1 -0.1)">
       <use xlink:href="#DejaVuSans-48"/>
       <use x="63.623047" xlink:href="#DejaVuSans-46"/>
       <use x="95.410156" xlink:href="#DejaVuSans-50"/>
      </g>
     </g>
    </g>
    <g id="xtick_4">
     <g id="line2d_7">
      <path clip-path="url(#pe280a60785)" d="M 218.79 448.56 
L 218.79 60.48 
" style="fill:none;stroke:#b0b0b0;stroke-linecap:square;stroke-width:0.8;"/>
     </g>
     <g id="line2d_8">
      <g>
       <use style="stroke:#000000;stroke-width:0.8;" x="218.79" xlink:href="#mf1cbcbbfda" y="448.56"/>
      </g>
     </g>
     <g id="text_4">
      <!-- 0.3 -->
      <defs>
       <path d="M 40.578125 39.3125 
Q 47.65625 37.796875 51.625 33 
Q 55.609375 28.21875 55.609375 21.1875 
Q 55.609375 10.40625 48.1875 4.484375 
Q 40.765625 -1.421875 27.09375 -1.421875 
Q 22.515625 -1.421875 17.65625 -0.515625 
Q 12.796875 0.390625 7.625 2.203125 
L 7.625 11.71875 
Q 11.71875 9.328125 16.59375 8.109375 
Q 21.484375 6.890625 26.8125 6.890625 
Q 36.078125 6.890625 40.9375 10.546875 
Q 45.796875 14.203125 45.796875 21.1875 
Q 45.796875 27.640625 41.28125 31.265625 
Q 36.765625 34.90625 28.71875 34.90625 
L 20.21875 34.90625 
L 20.21875 43.015625 
L 29.109375 43.015625 
Q 36.375 43.015625 40.234375 45.921875 
Q 44.09375 48.828125 44.09375 54.296875 
Q 44.09375 59.90625 40.109375 62.90625 
Q 36.140625 65.921875 28.71875 65.921875 
Q 24.65625 65.921875 20.015625 65.03125 
Q 15.375 64.15625 9.8125 62.3125 
L 9.8125 71.09375 
Q 15.4375 72.65625 20.34375 73.4375 
Q 25.25 74.21875 29.59375 74.21875 
Q 40.828125 74.21875 47.359375 69.109375 
Q 53.90625 64.015625 53.90625 55.328125 
Q 53.90625 49.265625 50.4375 45.09375 
Q 46.96875 40.921875 40.578125 39.3125 
z
" id="DejaVuSans-51"/>
      </defs>
      <g transform="translate(210.838438 463.158437)scale(0.1 -0.1)">
       <use xlink:href="#DejaVuSans-48"/>
       <use x="63.623047" xlink:href="#DejaVuSans-46"/>
       <use x="95.410156" xlink:href="#DejaVuSans-51"/>
      </g>
     </g>
    </g>
    <g id="xtick_5">
     <g id="line2d_9">
      <path clip-path="url(#pe280a60785)" d="M 266.22 448.56 
L 266.22 60.48 
" style="fill:none;stroke:#b0b0b0;stroke-linecap:square;stroke-width:0.8;"/>
     </g>
     <g id="line2d_10">
      <g>
       <use style="stroke:#000000;stroke-width:0.8;" x="266.22" xlink:href="#mf1cbcbbfda" y="448.56"/>
      </g>
     </g>
     <g id="text_5">
      <!-- 0.4 -->
      <defs>
       <path d="M 37.796875 64.3125 
L 12.890625 25.390625 
L 37.796875 25.390625 
z
M 35.203125 72.90625 
L 47.609375 72.90625 
L 47.609375 25.390625 
L 58.015625 25.390625 
L 58.015625 17.1875 
L 47.609375 17.1875 
L 47.609375 0 
L 37.796875 0 
L 37.796875 17.1875 
L 4.890625 17.1875 
L 4.890625 26.703125 
z
" id="DejaVuSans-52"/>
      </defs>
      <g transform="translate(258.268438 463.158437)scale(0.1 -0.1)">
       <use xlink:href="#DejaVuSans-48"/>
       <use x="63.623047" xlink:href="#DejaVuSans-46"/>
       <use x="95.410156" xlink:href="#DejaVuSans-52"/>
      </g>
     </g>
    </g>
    <g id="xtick_6">
     <g id="line2d_11">
      <path clip-path="url(#pe280a60785)" d="M 313.65 448.56 
L 313.65 60.48 
" style="fill:none;stroke:#b0b0b0;stroke-linecap:square;stroke-width:0.8;"/>
     </g>
     <g id="line2d_12">
      <g>
       <use style="stroke:#000000;stroke-width:0.8;" x="313.65" xlink:href="#mf1cbcbbfda" y="448.56"/>
      </g>
     </g>
     <g id="text_6">
      <!-- 0.5 -->
      <defs>
       <path d="M 10.796875 72.90625 
L 49.515625 72.90625 
L 49.515625 64.59375 
L 19.828125 64.59375 
L 19.828125 46.734375 
Q 21.96875 47.46875 24.109375 47.828125 
Q 26.265625 48.1875 28.421875 48.1875 
Q 40.625 48.1875 47.75 41.5 
Q 54.890625 34.8125 54.890625 23.390625 
Q 54.890625 11.625 47.5625 5.09375 
Q 40.234375 -1.421875 26.90625 -1.421875 
Q 22.3125 -1.421875 17.546875 -0.640625 
Q 12.796875 0.140625 7.71875 1.703125 
L 7.71875 11.625 
Q 12.109375 9.234375 16.796875 8.0625 
Q 21.484375 6.890625 26.703125 6.890625 
Q 35.15625 6.890625 40.078125 11.328125 
Q 45.015625 15.765625 45.015625 23.390625 
Q 45.015625 31 40.078125 35.4375 
Q 35.15625 39.890625 26.703125 39.890625 
Q 22.75 39.890625 18.8125 39.015625 
Q 14.890625 38.140625 10.796875 36.28125 
z
" id="DejaVuSans-53"/>
      </defs>
      <g transform="translate(305.698438 463.158437)scale(0.1 -0.1)">
       <use xlink:href="#DejaVuSans-48"/>
       <use x="63.623047" xlink:href="#DejaVuSans-46"/>
       <use x="95.410156" xlink:href="#DejaVuSans-53"/>
      </g>
     </g>
    </g>
    <g id="xtick_7">
     <g id="line2d_13">
      <path clip-path="url(#pe280a60785)" d="M 361.08 448.56 
L 361.08 60.48 
" style="fill:none;stroke:#b0b0b0;stroke-linecap:square;stroke-width:0.8;"/>
     </g>
     <g id="line2d_14">
      <g>
       <use style="stroke:#000000;stroke-width:0.8;" x="361.08" xlink:href="#mf1cbcbbfda" y="448.56"/>
      </g>
     </g>
     <g id="text_7">
      <!-- 0.6 -->
      <defs>
       <path d="M 33.015625 40.375 
Q 26.375 40.375 22.484375 35.828125 
Q 18.609375 31.296875 18.609375 23.390625 
Q 18.609375 15.53125 22.484375 10.953125 
Q 26.375 6.390625 33.015625 6.390625 
Q 39.65625 6.390625 43.53125 10.953125 
Q 47.40625 15.53125 47.40625 23.390625 
Q 47.40625 31.296875 43.53125 35.828125 
Q 39.65625 40.375 33.015625 40.375 
z
M 52.59375 71.296875 
L 52.59375 62.3125 
Q 48.875 64.0625 45.09375 64.984375 
Q 41.3125 65.921875 37.59375 65.921875 
Q 27.828125 65.921875 22.671875 59.328125 
Q 17.53125 52.734375 16.796875 39.40625 
Q 19.671875 43.65625 24.015625 45.921875 
Q 28.375 48.1875 33.59375 48.1875 
Q 44.578125 48.1875 50.953125 41.515625 
Q 57.328125 34.859375 57.328125 23.390625 
Q 57.328125 12.15625 50.6875 5.359375 
Q 44.046875 -1.421875 33.015625 -1.421875 
Q 20.359375 -1.421875 13.671875 8.265625 
Q 6.984375 17.96875 6.984375 36.375 
Q 6.984375 53.65625 15.1875 63.9375 
Q 23.390625 74.21875 37.203125 74.21875 
Q 40.921875 74.21875 44.703125 73.484375 
Q 48.484375 72.75 52.59375 71.296875 
z
" id="DejaVuSans-54"/>
      </defs>
      <g transform="translate(353.128438 463.158437)scale(0.1 -0.1)">
       <use xlink:href="#DejaVuSans-48"/>
       <use x="63.623047" xlink:href="#DejaVuSans-46"/>
       <use x="95.410156" xlink:href="#DejaVuSans-54"/>
      </g>
     </g>
    </g>
    <g id="xtick_8">
     <g id="line2d_15">
      <path clip-path="url(#pe280a60785)" d="M 408.51 448.56 
L 408.51 60.48 
" style="fill:none;stroke:#b0b0b0;stroke-linecap:square;stroke-width:0.8;"/>
     </g>
     <g id="line2d_16">
      <g>
       <use style="stroke:#000000;stroke-width:0.8;" x="408.51" xlink:href="#mf1cbcbbfda" y="448.56"/>
      </g>
     </g>
     <g id="text_8">
      <!-- 0.7 -->
      <defs>
       <path d="M 8.203125 72.90625 
L 55.078125 72.90625 
L 55.078125 68.703125 
L 28.609375 0 
L 18.3125 0 
L 43.21875 64.59375 
L 8.203125 64.59375 
z
" id="DejaVuSans-55"/>
      </defs>
      <g transform="translate(400.558438 463.158437)scale(0.1 -0.1)">
       <use xlink:href="#DejaVuSans-48"/>
       <use x="63.623047" xlink:href="#DejaVuSans-46"/>
       <use x="95.410156" xlink:href="#DejaVuSans-55"/>
      </g>
     </g>
    </g>
    <g id="xtick_9">
     <g id="line2d_17">
      <path clip-path="url(#pe280a60785)" d="M 455.94 448.56 
L 455.94 60.48 
" style="fill:none;stroke:#b0b0b0;stroke-linecap:square;stroke-width:0.8;"/>
     </g>
     <g id="line2d_18">
      <g>
       <use style="stroke:#000000;stroke-width:0.8;" x="455.94" xlink:href="#mf1cbcbbfda" y="448.56"/>
      </g>
     </g>
     <g id="text_9">
      <!-- 0.8 -->
      <defs>
       <path d="M 31.78125 34.625 
Q 24.75 34.625 20.71875 30.859375 
Q 16.703125 27.09375 16.703125 20.515625 
Q 16.703125 13.921875 20.71875 10.15625 
Q 24.75 6.390625 31.78125 6.390625 
Q 38.8125 6.390625 42.859375 10.171875 
Q 46.921875 13.96875 46.921875 20.515625 
Q 46.921875 27.09375 42.890625 30.859375 
Q 38.875 34.625 31.78125 34.625 
z
M 21.921875 38.8125 
Q 15.578125 40.375 12.03125 44.71875 
Q 8.5 49.078125 8.5 55.328125 
Q 8.5 64.0625 14.71875 69.140625 
Q 20.953125 74.21875 31.78125 74.21875 
Q 42.671875 74.21875 48.875 69.140625 
Q 55.078125 64.0625 55.078125 55.328125 
Q 55.078125 49.078125 51.53125 44.71875 
Q 48 40.375 41.703125 38.8125 
Q 48.828125 37.15625 52.796875 32.3125 
Q 56.78125 27.484375 56.78125 20.515625 
Q 56.78125 9.90625 50.3125 4.234375 
Q 43.84375 -1.421875 31.78125 -1.421875 
Q 19.734375 -1.421875 13.25 4.234375 
Q 6.78125 9.90625 6.78125 20.515625 
Q 6.78125 27.484375 10.78125 32.3125 
Q 14.796875 37.15625 21.921875 38.8125 
z
M 18.3125 54.390625 
Q 18.3125 48.734375 21.84375 45.5625 
Q 25.390625 42.390625 31.78125 42.390625 
Q 38.140625 42.390625 41.71875 45.5625 
Q 45.3125 48.734375 45.3125 54.390625 
Q 45.3125 60.0625 41.71875 63.234375 
Q 38.140625 66.40625 31.78125 66.40625 
Q 25.390625 66.40625 21.84375 63.234375 
Q 18.3125 60.0625 18.3125 54.390625 
z
" id="DejaVuSans-56"/>
      </defs>
      <g transform="translate(447.988438 463.158437)scale(0.1 -0.1)">
       <use xlink:href="#DejaVuSans-48"/>
       <use x="63.623047" xlink:href="#DejaVuSans-46"/>
       <use x="95.410156" xlink:href="#DejaVuSans-56"/>
      </g>
     </g>
    </g>
    <g id="xtick_10">
     <g id="line2d_19">
      <path clip-path="url(#pe280a60785)" d="M 503.37 448.56 
L 503.37 60.48 
" style="fill:none;stroke:#b0b0b0;stroke-linecap:square;stroke-width:0.8;"/>
     </g>
     <g id="line2d_20">
      <g>
       <use style="stroke:#000000;stroke-width:0.8;" x="503.37" xlink:href="#mf1cbcbbfda" y="448.56"/>
      </g>
     </g>
     <g id="text_10">
      <!-- 0.9 -->
      <defs>
       <path d="M 10.984375 1.515625 
L 10.984375 10.5 
Q 14.703125 8.734375 18.5 7.8125 
Q 22.3125 6.890625 25.984375 6.890625 
Q 35.75 6.890625 40.890625 13.453125 
Q 46.046875 20.015625 46.78125 33.40625 
Q 43.953125 29.203125 39.59375 26.953125 
Q 35.25 24.703125 29.984375 24.703125 
Q 19.046875 24.703125 12.671875 31.3125 
Q 6.296875 37.9375 6.296875 49.421875 
Q 6.296875 60.640625 12.9375 67.421875 
Q 19.578125 74.21875 30.609375 74.21875 
Q 43.265625 74.21875 49.921875 64.515625 
Q 56.59375 54.828125 56.59375 36.375 
Q 56.59375 19.140625 48.40625 8.859375 
Q 40.234375 -1.421875 26.421875 -1.421875 
Q 22.703125 -1.421875 18.890625 -0.6875 
Q 15.09375 0.046875 10.984375 1.515625 
z
M 30.609375 32.421875 
Q 37.25 32.421875 41.125 36.953125 
Q 45.015625 41.5 45.015625 49.421875 
Q 45.015625 57.28125 41.125 61.84375 
Q 37.25 66.40625 30.609375 66.40625 
Q 23.96875 66.40625 20.09375 61.84375 
Q 16.21875 57.28125 16.21875 49.421875 
Q 16.21875 41.5 20.09375 36.953125 
Q 23.96875 32.421875 30.609375 32.421875 
z
" id="DejaVuSans-57"/>
      </defs>
      <g transform="translate(495.418438 463.158437)scale(0.1 -0.1)">
       <use xlink:href="#DejaVuSans-48"/>
       <use x="63.623047" xlink:href="#DejaVuSans-46"/>
       <use x="95.410156" xlink:href="#DejaVuSans-57"/>
      </g>
     </g>
    </g>
    <g id="xtick_11">
     <g id="line2d_21">
      <path clip-path="url(#pe280a60785)" d="M 550.8 448.56 
L 550.8 60.48 
" style="fill:none;stroke:#b0b0b0;stroke-linecap:square;stroke-width:0.8;"/>
     </g>
     <g id="line2d_22">
      <g>
       <use style="stroke:#000000;stroke-width:0.8;" x="550.8" xlink:href="#mf1cbcbbfda" y="448.56"/>
      </g>
     </g>
     <g id="text_11">
      <!-- 1.0 -->
      <g transform="translate(542.848438 463.158437)scale(0.1 -0.1)">
       <use xlink:href="#DejaVuSans-49"/>
       <use x="63.623047" xlink:href="#DejaVuSans-46"/>
       <use x="95.410156" xlink:href="#DejaVuSans-48"/>
      </g>
     </g>
    </g>
    <g id="text_12">
     <!-- 1-precision -->
     <defs>
      <path d="M 4.890625 31.390625 
L 31.203125 31.390625 
L 31.203125 23.390625 
L 4.890625 23.390625 
z
" id="DejaVuSans-45"/>
      <path d="M 18.109375 8.203125 
L 18.109375 -20.796875 
L 9.078125 -20.796875 
L 9.078125 54.6875 
L 18.109375 54.6875 
L 18.109375 46.390625 
Q 20.953125 51.265625 25.265625 53.625 
Q 29.59375 56 35.59375 56 
Q 45.5625 56 51.78125 48.09375 
Q 58.015625 40.1875 58.015625 27.296875 
Q 58.015625 14.40625 51.78125 6.484375 
Q 45.5625 -1.421875 35.59375 -1.421875 
Q 29.59375 -1.421875 25.265625 0.953125 
Q 20.953125 3.328125 18.109375 8.203125 
z
M 48.6875 27.296875 
Q 48.6875 37.203125 44.609375 42.84375 
Q 40.53125 48.484375 33.40625 48.484375 
Q 26.265625 48.484375 22.1875 42.84375 
Q 18.109375 37.203125 18.109375 27.296875 
Q 18.109375 17.390625 22.1875 11.75 
Q 26.265625 6.109375 33.40625 6.109375 
Q 40.53125 6.109375 44.609375 11.75 
Q 48.6875 17.390625 48.6875 27.296875 
z
" id="DejaVuSans-112"/>
      <path d="M 41.109375 46.296875 
Q 39.59375 47.171875 37.8125 47.578125 
Q 36.03125 48 33.890625 48 
Q 26.265625 48 22.1875 43.046875 
Q 18.109375 38.09375 18.109375 28.8125 
L 18.109375 0 
L 9.078125 0 
L 9.078125 54.6875 
L 18.109375 54.6875 
L 18.109375 46.1875 
Q 20.953125 51.171875 25.484375 53.578125 
Q 30.03125 56 36.53125 56 
Q 37.453125 56 38.578125 55.875 
Q 39.703125 55.765625 41.0625 55.515625 
z
" id="DejaVuSans-114"/>
      <path d="M 56.203125 29.59375 
L 56.203125 25.203125 
L 14.890625 25.203125 
Q 15.484375 15.921875 20.484375 11.0625 
Q 25.484375 6.203125 34.421875 6.203125 
Q 39.59375 6.203125 44.453125 7.46875 
Q 49.3125 8.734375 54.109375 11.28125 
L 54.109375 2.78125 
Q 49.265625 0.734375 44.1875 -0.34375 
Q 39.109375 -1.421875 33.890625 -1.421875 
Q 20.796875 -1.421875 13.15625 6.1875 
Q 5.515625 13.8125 5.515625 26.8125 
Q 5.515625 40.234375 12.765625 48.109375 
Q 20.015625 56 32.328125 56 
Q 43.359375 56 49.78125 48.890625 
Q 56.203125 41.796875 56.203125 29.59375 
z
M 47.21875 32.234375 
Q 47.125 39.59375 43.09375 43.984375 
Q 39.0625 48.390625 32.421875 48.390625 
Q 24.90625 48.390625 20.390625 44.140625 
Q 15.875 39.890625 15.1875 32.171875 
z
" id="DejaVuSans-101"/>
      <path d="M 48.78125 52.59375 
L 48.78125 44.1875 
Q 44.96875 46.296875 41.140625 47.34375 
Q 37.3125 48.390625 33.40625 48.390625 
Q 24.65625 48.390625 19.8125 42.84375 
Q 14.984375 37.3125 14.984375 27.296875 
Q 14.984375 17.28125 19.8125 11.734375 
Q 24.65625 6.203125 33.40625 6.203125 
Q 37.3125 6.203125 41.140625 7.25 
Q 44.96875 8.296875 48.78125 10.40625 
L 48.78125 2.09375 
Q 45.015625 0.34375 40.984375 -0.53125 
Q 36.96875 -1.421875 32.421875 -1.421875 
Q 20.0625 -1.421875 12.78125 6.34375 
Q 5.515625 14.109375 5.515625 27.296875 
Q 5.515625 40.671875 12.859375 48.328125 
Q 20.21875 56 33.015625 56 
Q 37.15625 56 41.109375 55.140625 
Q 45.0625 54.296875 48.78125 52.59375 
z
" id="DejaVuSans-99"/>
      <path d="M 9.421875 54.6875 
L 18.40625 54.6875 
L 18.40625 0 
L 9.421875 0 
z
M 9.421875 75.984375 
L 18.40625 75.984375 
L 18.40625 64.59375 
L 9.421875 64.59375 
z
" id="DejaVuSans-105"/>
      <path d="M 44.28125 53.078125 
L 44.28125 44.578125 
Q 40.484375 46.53125 36.375 47.5 
Q 32.28125 48.484375 27.875 48.484375 
Q 21.1875 48.484375 17.84375 46.4375 
Q 14.5 44.390625 14.5 40.28125 
Q 14.5 37.15625 16.890625 35.375 
Q 19.28125 33.59375 26.515625 31.984375 
L 29.59375 31.296875 
Q 39.15625 29.25 43.1875 25.515625 
Q 47.21875 21.78125 47.21875 15.09375 
Q 47.21875 7.46875 41.1875 3.015625 
Q 35.15625 -1.421875 24.609375 -1.421875 
Q 20.21875 -1.421875 15.453125 -0.5625 
Q 10.6875 0.296875 5.421875 2 
L 5.421875 11.28125 
Q 10.40625 8.6875 15.234375 7.390625 
Q 20.0625 6.109375 24.8125 6.109375 
Q 31.15625 6.109375 34.5625 8.28125 
Q 37.984375 10.453125 37.984375 14.40625 
Q 37.984375 18.0625 35.515625 20.015625 
Q 33.0625 21.96875 24.703125 23.78125 
L 21.578125 24.515625 
Q 13.234375 26.265625 9.515625 29.90625 
Q 5.8125 33.546875 5.8125 39.890625 
Q 5.8125 47.609375 11.28125 51.796875 
Q 16.75 56 26.8125 56 
Q 31.78125 56 36.171875 55.265625 
Q 40.578125 54.546875 44.28125 53.078125 
z
" id="DejaVuSans-115"/>
      <path d="M 30.609375 48.390625 
Q 23.390625 48.390625 19.1875 42.75 
Q 14.984375 37.109375 14.984375 27.296875 
Q 14.984375 17.484375 19.15625 11.84375 
Q 23.34375 6.203125 30.609375 6.203125 
Q 37.796875 6.203125 41.984375 11.859375 
Q 46.1875 17.53125 46.1875 27.296875 
Q 46.1875 37.015625 41.984375 42.703125 
Q 37.796875 48.390625 30.609375 48.390625 
z
M 30.609375 56 
Q 42.328125 56 49.015625 48.375 
Q 55.71875 40.765625 55.71875 27.296875 
Q 55.71875 13.875 49.015625 6.21875 
Q 42.328125 -1.421875 30.609375 -1.421875 
Q 18.84375 -1.421875 12.171875 6.21875 
Q 5.515625 13.875 5.515625 27.296875 
Q 5.515625 40.765625 12.171875 48.375 
Q 18.84375 56 30.609375 56 
z
" id="DejaVuSans-111"/>
      <path d="M 54.890625 33.015625 
L 54.890625 0 
L 45.90625 0 
L 45.90625 32.71875 
Q 45.90625 40.484375 42.875 44.328125 
Q 39.84375 48.1875 33.796875 48.1875 
Q 26.515625 48.1875 22.3125 43.546875 
Q 18.109375 38.921875 18.109375 30.90625 
L 18.109375 0 
L 9.078125 0 
L 9.078125 54.6875 
L 18.109375 54.6875 
L 18.109375 46.1875 
Q 21.34375 51.125 25.703125 53.5625 
Q 30.078125 56 35.796875 56 
Q 45.21875 56 50.046875 50.171875 
Q 54.890625 44.34375 54.890625 33.015625 
z
" id="DejaVuSans-110"/>
     </defs>
     <g transform="translate(286.110938 476.836563)scale(0.1 -0.1)">
      <use xlink:href="#DejaVuSans-49"/>
      <use x="63.623047" xlink:href="#DejaVuSans-45"/>
      <use x="99.707031" xlink:href="#DejaVuSans-112"/>
      <use x="163.183594" xlink:href="#DejaVuSans-114"/>
      <use x="202.046875" xlink:href="#DejaVuSans-101"/>
      <use x="263.570312" xlink:href="#DejaVuSans-99"/>
      <use x="318.550781" xlink:href="#DejaVuSans-105"/>
      <use x="346.333984" xlink:href="#DejaVuSans-115"/>
      <use x="398.433594" xlink:href="#DejaVuSans-105"/>
      <use x="426.216797" xlink:href="#DejaVuSans-111"/>
      <use x="487.398438" xlink:href="#DejaVuSans-110"/>
     </g>
    </g>
   </g>
   <g id="matplotlib.axis_2">
    <g id="ytick_1">
     <g id="line2d_23">
      <path clip-path="url(#pe280a60785)" d="M 76.5 448.56 
L 550.8 448.56 
" style="fill:none;stroke:#b0b0b0;stroke-linecap:square;stroke-width:0.8;"/>
     </g>
     <g id="line2d_24">
      <defs>
       <path d="M 0 0 
L -3.5 0 
" id="m2e5cdc292f" style="stroke:#000000;stroke-width:0.8;"/>
      </defs>
      <g>
       <use style="stroke:#000000;stroke-width:0.8;" x="76.5" xlink:href="#m2e5cdc292f" y="448.56"/>
      </g>
     </g>
     <g id="text_13">
      <!-- 0.0 -->
      <g transform="translate(53.596875 452.359219)scale(0.1 -0.1)">
       <use xlink:href="#DejaVuSans-48"/>
       <use x="63.623047" xlink:href="#DejaVuSans-46"/>
       <use x="95.410156" xlink:href="#DejaVuSans-48"/>
      </g>
     </g>
    </g>
    <g id="ytick_2">
     <g id="line2d_25">
      <path clip-path="url(#pe280a60785)" d="M 76.5 409.752 
L 550.8 409.752 
" style="fill:none;stroke:#b0b0b0;stroke-linecap:square;stroke-width:0.8;"/>
     </g>
     <g id="line2d_26">
      <g>
       <use style="stroke:#000000;stroke-width:0.8;" x="76.5" xlink:href="#m2e5cdc292f" y="409.752"/>
      </g>
     </g>
     <g id="text_14">
      <!-- 0.1 -->
      <g transform="translate(53.596875 413.551219)scale(0.1 -0.1)">
       <use xlink:href="#DejaVuSans-48"/>
       <use x="63.623047" xlink:href="#DejaVuSans-46"/>
       <use x="95.410156" xlink:href="#DejaVuSans-49"/>
      </g>
     </g>
    </g>
    <g id="ytick_3">
     <g id="line2d_27">
      <path clip-path="url(#pe280a60785)" d="M 76.5 370.944 
L 550.8 370.944 
" style="fill:none;stroke:#b0b0b0;stroke-linecap:square;stroke-width:0.8;"/>
     </g>
     <g id="line2d_28">
      <g>
       <use style="stroke:#000000;stroke-width:0.8;" x="76.5" xlink:href="#m2e5cdc292f" y="370.944"/>
      </g>
     </g>
     <g id="text_15">
      <!-- 0.2 -->
      <g transform="translate(53.596875 374.743219)scale(0.1 -0.1)">
       <use xlink:href="#DejaVuSans-48"/>
       <use x="63.623047" xlink:href="#DejaVuSans-46"/>
       <use x="95.410156" xlink:href="#DejaVuSans-50"/>
      </g>
     </g>
    </g>
    <g id="ytick_4">
     <g id="line2d_29">
      <path clip-path="url(#pe280a60785)" d="M 76.5 332.136 
L 550.8 332.136 
" style="fill:none;stroke:#b0b0b0;stroke-linecap:square;stroke-width:0.8;"/>
     </g>
     <g id="line2d_30">
      <g>
       <use style="stroke:#000000;stroke-width:0.8;" x="76.5" xlink:href="#m2e5cdc292f" y="332.136"/>
      </g>
     </g>
     <g id="text_16">
      <!-- 0.3 -->
      <g transform="translate(53.596875 335.935219)scale(0.1 -0.1)">
       <use xlink:href="#DejaVuSans-48"/>
       <use x="63.623047" xlink:href="#DejaVuSans-46"/>
       <use x="95.410156" xlink:href="#DejaVuSans-51"/>
      </g>
     </g>
    </g>
    <g id="ytick_5">
     <g id="line2d_31">
      <path clip-path="url(#pe280a60785)" d="M 76.5 293.328 
L 550.8 293.328 
" style="fill:none;stroke:#b0b0b0;stroke-linecap:square;stroke-width:0.8;"/>
     </g>
     <g id="line2d_32">
      <g>
       <use style="stroke:#000000;stroke-width:0.8;" x="76.5" xlink:href="#m2e5cdc292f" y="293.328"/>
      </g>
     </g>
     <g id="text_17">
      <!-- 0.4 -->
      <g transform="translate(53.596875 297.127219)scale(0.1 -0.1)">
       <use xlink:href="#DejaVuSans-48"/>
       <use x="63.623047" xlink:href="#DejaVuSans-46"/>
       <use x="95.410156" xlink:href="#DejaVuSans-52"/>
      </g>
     </g>
    </g>
    <g id="ytick_6">
     <g id="line2d_33">
      <path clip-path="url(#pe280a60785)" d="M 76.5 254.52 
L 550.8 254.52 
" style="fill:none;stroke:#b0b0b0;stroke-linecap:square;stroke-width:0.8;"/>
     </g>
     <g id="line2d_34">
      <g>
       <use style="stroke:#000000;stroke-width:0.8;" x="76.5" xlink:href="#m2e5cdc292f" y="254.52"/>
      </g>
     </g>
     <g id="text_18">
      <!-- 0.5 -->
      <g transform="translate(53.596875 258.319219)scale(0.1 -0.1)">
       <use xlink:href="#DejaVuSans-48"/>
       <use x="63.623047" xlink:href="#DejaVuSans-46"/>
       <use x="95.410156" xlink:href="#DejaVuSans-53"/>
      </g>
     </g>
    </g>
    <g id="ytick_7">
     <g id="line2d_35">
      <path clip-path="url(#pe280a60785)" d="M 76.5 215.712 
L 550.8 215.712 
" style="fill:none;stroke:#b0b0b0;stroke-linecap:square;stroke-width:0.8;"/>
     </g>
     <g id="line2d_36">
      <g>
       <use style="stroke:#000000;stroke-width:0.8;" x="76.5" xlink:href="#m2e5cdc292f" y="215.712"/>
      </g>
     </g>
     <g id="text_19">
      <!-- 0.6 -->
      <g transform="translate(53.596875 219.511219)scale(0.1 -0.1)">
       <use xlink:href="#DejaVuSans-48"/>
       <use x="63.623047" xlink:href="#DejaVuSans-46"/>
       <use x="95.410156" xlink:href="#DejaVuSans-54"/>
      </g>
     </g>
    </g>
    <g id="ytick_8">
     <g id="line2d_37">
      <path clip-path="url(#pe280a60785)" d="M 76.5 176.904 
L 550.8 176.904 
" style="fill:none;stroke:#b0b0b0;stroke-linecap:square;stroke-width:0.8;"/>
     </g>
     <g id="line2d_38">
      <g>
       <use style="stroke:#000000;stroke-width:0.8;" x="76.5" xlink:href="#m2e5cdc292f" y="176.904"/>
      </g>
     </g>
     <g id="text_20">
      <!-- 0.7 -->
      <g transform="translate(53.596875 180.703219)scale(0.1 -0.1)">
       <use xlink:href="#DejaVuSans-48"/>
       <use x="63.623047" xlink:href="#DejaVuSans-46"/>
       <use x="95.410156" xlink:href="#DejaVuSans-55"/>
      </g>
     </g>
    </g>
    <g id="ytick_9">
     <g id="line2d_39">
      <path clip-path="url(#pe280a60785)" d="M 76.5 138.096 
L 550.8 138.096 
" style="fill:none;stroke:#b0b0b0;stroke-linecap:square;stroke-width:0.8;"/>
     </g>
     <g id="line2d_40">
      <g>
       <use style="stroke:#000000;stroke-width:0.8;" x="76.5" xlink:href="#m2e5cdc292f" y="138.096"/>
      </g>
     </g>
     <g id="text_21">
      <!-- 0.8 -->
      <g transform="translate(53.596875 141.895219)scale(0.1 -0.1)">
       <use xlink:href="#DejaVuSans-48"/>
       <use x="63.623047" xlink:href="#DejaVuSans-46"/>
       <use x="95.410156" xlink:href="#DejaVuSans-56"/>
      </g>
     </g>
    </g>
    <g id="ytick_10">
     <g id="line2d_41">
      <path clip-path="url(#pe280a60785)" d="M 76.5 99.288 
L 550.8 99.288 
" style="fill:none;stroke:#b0b0b0;stroke-linecap:square;stroke-width:0.8;"/>
     </g>
     <g id="line2d_42">
      <g>
       <use style="stroke:#000000;stroke-width:0.8;" x="76.5" xlink:href="#m2e5cdc292f" y="99.288"/>
      </g>
     </g>
     <g id="text_22">
      <!-- 0.9 -->
      <g transform="translate(53.596875 103.087219)scale(0.1 -0.1)">
       <use xlink:href="#DejaVuSans-48"/>
       <use x="63.623047" xlink:href="#DejaVuSans-46"/>
       <use x="95.410156" xlink:href="#DejaVuSans-57"/>
      </g>
     </g>
    </g>
    <g id="ytick_11">
     <g id="line2d_43">
      <path clip-path="url(#pe280a60785)" d="M 76.5 60.48 
L 550.8 60.48 
" style="fill:none;stroke:#b0b0b0;stroke-linecap:square;stroke-width:0.8;"/>
     </g>
     <g id="line2d_44">
      <g>
       <use style="stroke:#000000;stroke-width:0.8;" x="76.5" xlink:href="#m2e5cdc292f" y="60.48"/>
      </g>
     </g>
     <g id="text_23">
      <!-- 1.0 -->
      <g transform="translate(53.596875 64.279219)scale(0.1 -0.1)">
       <use xlink:href="#DejaVuSans-49"/>
       <use x="63.623047" xlink:href="#DejaVuSans-46"/>
       <use x="95.410156" xlink:href="#DejaVuSans-48"/>
      </g>
     </g>
    </g>
    <g id="text_24">
     <!-- #correct/1665 -->
     <defs>
      <path d="M 51.125 44 
L 36.921875 44 
L 32.8125 27.6875 
L 47.125 27.6875 
z
M 43.796875 71.78125 
L 38.71875 51.515625 
L 52.984375 51.515625 
L 58.109375 71.78125 
L 65.921875 71.78125 
L 60.890625 51.515625 
L 76.125 51.515625 
L 76.125 44 
L 58.984375 44 
L 54.984375 27.6875 
L 70.515625 27.6875 
L 70.515625 20.21875 
L 53.078125 20.21875 
L 48 0 
L 40.1875 0 
L 45.21875 20.21875 
L 30.90625 20.21875 
L 25.875 0 
L 18.015625 0 
L 23.09375 20.21875 
L 7.71875 20.21875 
L 7.71875 27.6875 
L 24.90625 27.6875 
L 29 44 
L 13.28125 44 
L 13.28125 51.515625 
L 30.90625 51.515625 
L 35.890625 71.78125 
z
" id="DejaVuSans-35"/>
      <path d="M 18.3125 70.21875 
L 18.3125 54.6875 
L 36.8125 54.6875 
L 36.8125 47.703125 
L 18.3125 47.703125 
L 18.3125 18.015625 
Q 18.3125 11.328125 20.140625 9.421875 
Q 21.96875 7.515625 27.59375 7.515625 
L 36.8125 7.515625 
L 36.8125 0 
L 27.59375 0 
Q 17.1875 0 13.234375 3.875 
Q 9.28125 7.765625 9.28125 18.015625 
L 9.28125 47.703125 
L 2.6875 47.703125 
L 2.6875 54.6875 
L 9.28125 54.6875 
L 9.28125 70.21875 
z
" id="DejaVuSans-116"/>
      <path d="M 25.390625 72.90625 
L 33.6875 72.90625 
L 8.296875 -9.28125 
L 0 -9.28125 
z
" id="DejaVuSans-47"/>
     </defs>
     <g transform="translate(47.517187 290.624688)rotate(-90)scale(0.1 -0.1)">
      <use xlink:href="#DejaVuSans-35"/>
      <use x="83.789062" xlink:href="#DejaVuSans-99"/>
      <use x="138.769531" xlink:href="#DejaVuSans-111"/>
      <use x="199.951172" xlink:href="#DejaVuSans-114"/>
      <use x="239.314453" xlink:href="#DejaVuSans-114"/>
      <use x="278.177734" xlink:href="#DejaVuSans-101"/>
      <use x="339.701172" xlink:href="#DejaVuSans-99"/>
      <use x="394.681641" xlink:href="#DejaVuSans-116"/>
      <use x="433.890625" xlink:href="#DejaVuSans-47"/>
      <use x="467.582031" xlink:href="#DejaVuSans-49"/>
      <use x="531.205078" xlink:href="#DejaVuSans-54"/>
      <use x="594.828125" xlink:href="#DejaVuSans-54"/>
      <use x="658.451172" xlink:href="#DejaVuSans-53"/>
     </g>
    </g>
   </g>
   <g id="line2d_45">
    <path clip-path="url(#pe280a60785)" d="M 550.8 448.56 
L 313.65 448.326919 
L 234.6 448.093838 
L 171.36 447.627676 
L 144.257143 447.161514 
L 129.2 446.695351 
L 123.93 446.46227 
L 162.736364 446.46227 
L 144.257143 445.763027 
L 132.3 445.063784 
L 123.93 444.364541 
L 117.743478 443.665297 
L 111.633333 442.732973 
L 107.1 441.800649 
L 103.602857 440.868324 
L 100.823077 439.936 
L 98.560465 439.003676 
L 108.838636 439.003676 
L 105.538776 437.83827 
L 103.863462 437.139027 
L 128.241818 437.139027 
L 123.93 435.973622 
L 120.281538 434.808216 
L 126.804545 434.808216 
L 122.6125 433.40973 
L 121.980822 433.176649 
L 127.775676 433.176649 
L 125.146154 432.244324 
L 130.534177 432.244324 
L 127.93012 431.312 
L 132.964286 431.312 
L 128.620879 429.680432 
L 124.897959 428.048865 
L 121.671429 426.417297 
L 118.473451 424.552649 
L 115.698347 422.688 
L 115.377049 422.454919 
L 118.917073 422.454919 
L 116.025 420.357189 
L 119.293985 420.357189 
L 118.35 419.657946 
L 121.506569 419.657946 
L 119.023448 417.793297 
L 121.980822 417.793297 
L 120.474834 416.627892 
L 123.305921 416.627892 
L 122.4 415.928649 
L 125.146154 415.928649 
L 122.215663 413.597838 
L 124.782036 413.597838 
L 122.054237 411.267027 
L 121.047514 410.334703 
L 123.408791 410.334703 
L 121.433684 408.470054 
L 123.681675 408.470054 
L 121.334328 406.139243 
L 123.460396 406.139243 
L 120.827103 403.34227 
L 122.826977 403.34227 
L 120.185526 400.312216 
L 119.618182 399.612973 
L 121.476724 399.612973 
L 119.618182 397.282162 
L 123.152459 397.282162 
L 122.4 396.349838 
L 124.120482 396.349838 
L 123.93 396.116757 
L 125.630677 396.116757 
L 125.242292 395.650595 
L 126.917717 395.650595 
L 125.754231 394.252108 
L 127.382759 394.252108 
L 126.239326 392.853622 
L 127.823507 392.853622 
L 126.33587 390.988973 
L 127.868231 390.988973 
L 127.683453 390.755892 
L 129.2 390.755892 
L 129.011786 390.522811 
L 130.512811 390.522811 
L 130.321277 390.28973 
L 131.807067 390.28973 
L 131.612324 390.056649 
L 133.083158 390.056649 
L 132.68885 389.590486 
L 134.140625 389.590486 
L 133.351027 388.658162 
L 134.775768 388.658162 
L 134.577551 388.425081 
L 135.988475 388.425081 
L 135.192642 387.492757 
L 136.578 387.492757 
L 135.593115 386.327351 
L 136.95 386.327351 
L 136.17 385.395027 
L 137.503215 385.395027 
L 137.113419 384.928865 
L 138.430892 384.928865 
L 137.844795 384.229622 
L 139.143396 384.229622 
L 138.557944 383.530378 
L 139.838199 383.530378 
L 139.253538 382.831135 
L 143.017683 382.831135 
L 142.815502 382.598054 
L 145.280665 382.598054 
L 144.662874 381.898811 
L 149.469231 381.898811 
L 149.253982 381.66573 
L 150.435 381.66573 
L 150.002632 381.199568 
L 153.487826 381.199568 
L 153.265318 380.966486 
L 155.55 380.966486 
L 154.651705 380.034162 
L 162.376045 380.034162 
L 161.900277 379.568 
L 164.042975 379.568 
L 163.088828 378.635676 
L 165.190244 378.635676 
L 164.950541 378.402595 
L 169.077273 378.402595 
L 168.8304 378.169514 
L 171.861905 378.169514 
L 171.61029 377.936432 
L 172.608158 377.936432 
L 172.355906 377.703351 
L 177.258031 377.703351 
L 176.997674 377.47027 
L 178.919537 377.47027 
L 178.656923 377.237189 
L 180.555612 377.237189 
L 180.027411 376.771027 
L 180.966076 376.771027 
L 180.702273 376.537946 
L 186.226119 376.537946 
L 185.953846 376.304865 
L 193.923786 376.304865 
L 193.07494 375.605622 
L 193.934856 375.605622 
L 193.372967 375.139459 
L 194.226014 375.139459 
L 193.945714 374.906378 
L 196.476596 374.906378 
L 195.912 374.440216 
L 199.220979 374.440216 
L 198.36875 373.740973 
L 202.401144 373.740973 
L 202.113699 373.507892 
L 207.598652 373.507892 
L 207.304709 373.274811 
L 208.073154 373.274811 
L 206.906208 372.342486 
L 209.178634 372.342486 
L 208.307659 371.643243 
L 210.541304 371.643243 
L 210.250542 371.410162 
L 210.987662 371.410162 
L 210.697192 371.177081 
L 213.610278 371.177081 
L 213.317308 370.944 
L 214.753404 370.944 
L 214.459873 370.710919 
L 217.292211 370.710919 
L 216.408577 370.011676 
L 217.801875 370.011676 
L 217.508108 369.778595 
L 218.888199 369.778595 
L 218.301031 369.312432 
L 221.020859 369.312432 
L 220.725918 369.079351 
L 226.028313 369.079351 
L 225.728657 368.84627 
L 228.953571 368.84627 
L 228.651683 368.613189 
L 231.183301 368.613189 
L 230.577886 368.147027 
L 231.826316 368.147027 
L 231.524125 367.913946 
L 233.376789 367.913946 
L 233.073938 367.680865 
L 234.903455 367.680865 
L 233.996565 366.981622 
L 234.6 366.981622 
L 234.29943 366.748541 
L 235.498295 366.748541 
L 235.197732 366.515459 
L 237.566229 366.515459 
L 237.264607 366.282378 
L 238.434515 366.282378 
L 238.132961 366.049297 
L 238.714126 366.049297 
L 238.113333 365.583135 
L 242.678102 365.583135 
L 242.073818 365.116973 
L 242.63412 365.116973 
L 242.333152 364.883892 
L 245.102154 364.883892 
L 244.498927 364.41773 
L 245.590909 364.41773 
L 245.290036 364.184649 
L 246.912212 364.184649 
L 246.611131 363.951568 
L 256.993003 363.951568 
L 256.68552 363.718486 
L 258.181017 363.718486 
L 257.873604 363.485405 
L 259.842857 363.485405 
L 259.228643 363.019243 
L 262.607781 363.019243 
L 262.300165 362.786162 
L 266.065253 362.786162 
L 265.756515 362.553081 
L 267.142464 362.553081 
L 266.833981 362.32 
L 267.29273 362.32 
L 266.985 362.086919 
L 267.897588 362.086919 
L 267.590369 361.853838 
L 272.504101 361.853838 
L 272.195433 361.620757 
L 272.633491 361.620757 
L 272.325589 361.387676 
L 272.762069 361.387676 
L 272.45493 361.154595 
L 275.044186 361.154595 
L 274.736842 360.921514 
L 277.696172 360.921514 
L 277.388532 360.688432 
L 279.874091 360.688432 
L 279.566415 360.455351 
L 280.384615 360.455351 
L 280.07756 360.22227 
L 285.276071 360.22227 
L 284.968142 359.989189 
L 286.139207 359.989189 
L 285.831818 359.756108 
L 287.760262 359.756108 
L 287.453198 359.523027 
L 290.105612 359.523027 
L 289.798707 359.289946 
L 290.546562 359.289946 
L 290.240343 359.056865 
L 291.722902 359.056865 
L 291.417188 358.823784 
L 296.474791 358.823784 
L 296.168846 358.590703 
L 301.37248 358.590703 
L 301.066531 358.357622 
L 303.088664 358.357622 
L 302.783288 358.124541 
L 307.37619 358.124541 
L 307.071202 357.891459 
L 307.713439 357.891459 
L 307.409211 357.658378 
L 316.651899 357.658378 
L 316.045455 357.192216 
L 323.784615 357.192216 
L 323.182217 356.726054 
L 325.37877 356.726054 
L 325.078916 356.492973 
L 326.698923 356.492973 
L 326.4 356.259892 
L 326.66778 356.259892 
L 326.369607 356.026811 
L 327.43452 356.026811 
L 327.137204 355.79373 
L 340.58686 355.79373 
L 340.293103 355.560649 
L 341.225581 355.560649 
L 340.932743 355.327568 
L 345.475325 355.327568 
L 345.184541 355.094486 
L 346.06986 355.094486 
L 345.78 354.861405 
L 347.961064 354.861405 
L 347.672582 354.628324 
L 350.440566 354.628324 
L 350.153717 354.395243 
L 350.363598 354.395243 
L 350.077429 354.162162 
L 353.783077 354.162162 
L 353.498975 353.929081 
L 353.700921 353.929081 
L 353.417485 353.696 
L 354.820203 353.696 
L 354.537931 353.462919 
L 360.145419 353.462919 
L 359.86624 353.229838 
L 361.911295 353.229838 
L 361.633658 352.996757 
L 362.000971 352.996757 
L 361.724054 352.763676 
L 366.896887 352.763676 
L 366.623186 352.530595 
L 367.142481 352.530595 
L 366.597186 352.064432 
L 367.628172 352.064432 
L 367.35685 351.831351 
L 372.991057 351.831351 
L 372.723466 351.59827 
L 372.88404 351.59827 
L 374.788582 351.59827 
L 374.522727 351.365189 
L 374.679697 351.365189 
L 375.148934 351.365189 
L 374.88394 351.132108 
L 375.039894 351.132108 
L 375.506101 351.132108 
L 375.241961 350.899027 
L 375.396911 350.899027 
L 378.289844 350.899027 
L 378.028101 350.665946 
L 378.177816 350.665946 
L 382.976917 350.665946 
L 382.718939 350.432865 
L 382.860303 350.432865 
L 383.563568 350.432865 
L 383.306611 350.199784 
L 383.446656 350.199784 
L 385.792086 350.199784 
L 385.537315 349.966703 
L 385.673333 349.966703 
L 386.484767 349.966703 
L 386.231097 349.733622 
L 386.365658 349.733622 
L 387.566883 349.733622 
L 387.314599 349.500541 
L 387.447083 349.500541 
L 388.106295 349.500541 
L 387.855 349.267459 
L 387.986301 349.267459 
L 388.509398 349.267459 
L 388.258989 349.034378 
L 388.389334 349.034378 
L 389.424622 349.034378 
L 389.175478 348.801297 
L 389.304057 348.801297 
L 390.705047 348.801297 
L 390.457447 348.568216 
L 390.583701 348.568216 
L 390.709756 348.568216 
L 390.462736 348.335135 
L 390.588688 348.335135 
L 391.215493 348.335135 
L 390.969429 348.102054 
L 391.094297 348.102054 
L 392.332326 348.102054 
L 392.087684 347.868973 
L 392.210526 347.868973 
L 397.088372 347.868973 
L 396.848051 347.635892 
L 396.963371 347.635892 
L 397.993527 347.635892 
L 397.754498 347.402811 
L 397.868202 347.402811 
L 400.984716 347.402811 
L 400.622222 346.936649 
L 401.704975 346.936649 
L 401.470677 346.703568 
L 401.578186 346.703568 
L 401.899784 346.703568 
L 401.666188 346.470486 
L 401.773171 346.470486 
L 405.117391 346.470486 
L 404.887106 346.237405 
L 404.989286 346.237405 
L 407.102484 346.237405 
L 406.874483 346.004324 
L 406.973673 346.004324 
L 408.832653 346.004324 
L 408.60673 345.771243 
L 408.703329 345.771243 
L 413.1 345.771243 
L 412.878553 345.538162 
L 412.969231 345.538162 
L 413.330754 345.538162 
L 413.110026 345.305081 
L 413.200196 345.305081 
L 414.891268 345.305081 
L 414.672527 345.072 
L 414.760465 345.072 
L 414.848289 345.072 
L 414.63 344.838919 
L 414.717795 344.838919 
L 418.139095 344.838919 
L 417.924497 344.605838 
L 418.00791 344.605838 
L 419.000748 344.605838 
L 418.787484 344.372757 
L 418.869633 344.372757 
L 421.445455 344.372757 
L 421.235122 344.139676 
L 421.314077 344.139676 
L 423.103846 344.139676 
L 422.895676 343.906595 
L 422.972449 343.906595 
L 423.202217 343.906595 
L 422.994611 343.673514 
L 423.071095 343.673514 
L 424.432327 343.673514 
L 424.22645 343.440432 
L 424.301301 343.440432 
L 424.376064 343.440432 
L 424.170585 343.207351 
L 424.245336 343.207351 
L 425.867832 343.207351 
L 425.664356 342.97427 
L 425.809948 342.97427 
L 427.672264 342.97427 
L 427.471134 342.741189 
L 427.612243 342.741189 
L 428.936842 342.741189 
L 428.7375 342.508108 
L 428.875424 342.508108 
L 429.560393 342.508108 
L 429.362156 342.275027 
L 429.498374 342.275027 
L 430.644 342.275027 
L 430.447363 342.041946 
L 430.580865 342.041946 
L 431.045801 342.041946 
L 430.850028 341.808865 
L 430.98235 341.808865 
L 431.24612 341.808865 
L 431.05099 341.575784 
L 431.182582 341.575784 
L 436.158768 341.575784 
L 435.969474 341.342703 
L 436.090221 341.342703 
L 436.150499 341.342703 
L 435.961607 341.109622 
L 436.082109 341.109622 
L 437.332278 341.109622 
L 437.145124 340.876541 
L 437.262902 340.876541 
L 437.673206 340.876541 
L 437.486842 340.643459 
L 437.60366 340.643459 
L 438.010632 340.643459 
L 437.825051 340.410378 
L 437.940923 340.410378 
L 446.449502 340.410378 
L 446.274171 340.177297 
L 446.373153 340.177297 
L 446.865269 340.177297 
L 446.690815 339.944216 
L 446.7888 339.944216 
L 447.469565 339.944216 
L 447.171429 339.478054 
L 447.219785 339.478054 
L 448.461411 339.478054 
L 448.29 339.244973 
L 448.384392 339.244973 
L 449.133318 339.244973 
L 448.963088 339.011892 
L 449.056047 339.011892 
L 450.790579 339.011892 
L 450.622735 338.778811 
L 450.757322 338.778811 
L 452.127164 338.778811 
L 451.961325 338.54573 
L 452.092063 338.54573 
L 452.265845 338.54573 
L 452.065613 338.079568 
L 452.195526 338.079568 
L 452.03082 337.846486 
L 452.160552 337.846486 
L 452.461938 337.846486 
L 452.297906 337.613405 
L 452.426667 337.613405 
L 453.654217 337.613405 
L 453.492 337.380324 
L 453.617397 337.380324 
L 454.280759 337.380324 
L 454.041184 336.914162 
L 454.082375 336.914162 
L 454.533178 336.914162 
L 454.373062 336.681081 
L 454.495431 336.681081 
L 456.995303 336.681081 
L 456.838591 336.448 
L 456.954545 336.448 
L 458.286496 336.448 
L 458.014702 335.981838 
L 458.089802 335.981838 
L 458.871067 335.981838 
L 458.71769 335.748757 
L 458.828365 335.748757 
L 459.776527 335.748757 
L 459.624614 335.515676 
L 459.732898 335.515676 
L 460.731284 335.515676 
L 460.5809 335.282595 
L 460.686708 335.282595 
L 461.107471 335.282595 
L 460.808398 334.816432 
L 460.913243 334.816432 
L 461.571627 334.816432 
L 461.423237 334.583351 
L 461.526443 334.583351 
L 461.834638 334.583351 
L 461.686887 334.35027 
L 461.789276 334.35027 
L 462.061168 334.35027 
L 461.914008 334.117189 
L 462.015669 334.117189 
L 463.184763 334.117189 
L 463.039338 333.884108 
L 463.138242 333.884108 
L 464.17951 333.884108 
L 464.035659 333.651027 
L 464.164246 333.651027 
L 464.196333 333.651027 
L 464.052795 333.417946 
L 464.181072 333.417946 
L 465.907174 333.417946 
L 465.766135 333.184865 
L 465.88915 333.184865 
L 466.164636 333.184865 
L 466.024216 332.951784 
L 466.14624 332.951784 
L 466.691026 332.951784 
L 466.551573 332.718703 
L 466.671842 332.718703 
L 466.791768 332.718703 
L 466.633677 332.252541 
L 467.755895 332.252541 
L 467.539909 331.786378 
L 467.598214 331.786378 
L 468.491618 331.786378 
L 468.355886 331.553297 
L 468.469917 331.553297 
L 471.565857 331.553297 
L 471.434431 331.320216 
L 471.5399 331.320216 
L 472.296249 331.320216 
L 472.166053 331.087135 
L 472.269382 331.087135 
L 473.363265 331.087135 
L 473.234747 330.854054 
L 473.360136 330.854054 
L 473.73388 330.854054 
L 473.606111 330.620973 
L 473.730058 330.620973 
L 474.755703 330.620973 
L 474.629553 330.387892 
L 474.75 330.387892 
L 474.774044 330.387892 
L 474.648167 330.154811 
L 474.768318 330.154811 
L 474.888091 330.154811 
L 474.762614 329.92173 
L 474.88217 329.92173 
L 475.120157 329.92173 
L 474.995237 329.688649 
L 475.11383 329.688649 
L 475.467393 329.688649 
L 475.343182 329.455568 
L 475.46046 329.455568 
L 476.34 329.455568 
L 476.186109 328.989405 
L 476.208982 328.989405 
L 476.43695 328.989405 
L 476.314757 328.756324 
L 476.428371 328.756324 
L 476.722151 328.756324 
L 476.600577 328.523243 
L 476.713103 328.523243 
L 479.252109 328.523243 
L 479.134173 328.290162 
L 479.238947 328.290162 
L 479.551441 328.290162 
L 479.434139 328.057081 
L 479.537838 328.057081 
L 479.949639 328.057081 
L 479.833102 327.824 
L 479.955882 327.824 
L 480.763683 327.824 
L 480.648475 327.590919 
L 480.768222 327.590919 
L 481.006493 327.590919 
L 480.891837 327.357838 
L 481.010526 327.357838 
L 483.061467 327.357838 
L 482.950014 326.891676 
L 483.521576 326.891676 
L 483.355441 326.425514 
L 483.410304 326.425514 
L 483.864045 326.425514 
L 483.662809 325.959351 
L 483.753023 325.959351 
L 484.799524 325.959351 
L 484.691537 325.72627 
L 484.813701 325.72627 
L 485.108515 325.72627 
L 484.928459 325.260108 
L 485.014814 325.260108 
L 487.456223 325.260108 
L 487.352499 325.027027 
L 487.464399 325.027027 
L 492.285335 325.027027 
L 492.188573 324.793946 
L 492.297491 324.793946 
L 496.203577 324.793946 
L 496.112614 324.560865 
L 496.230882 324.560865 
L 496.536 324.560865 
L 496.445689 324.327784 
L 496.562304 324.327784 
L 496.770955 324.327784 
L 496.681154 324.094703 
L 496.796546 324.094703 
L 499.005276 324.094703 
L 498.918892 323.861622 
L 499.035312 323.861622 
L 500.552376 323.861622 
L 500.552376 323.861622 
" style="fill:none;stroke:#1f77b4;stroke-linecap:square;stroke-width:2;"/>
   </g>
   <g id="line2d_46">
    <path clip-path="url(#pe280a60785)" d="M 550.8 448.56 
L 464.563636 448.093838 
L 432.225 447.860757 
L 441.346154 447.860757 
L 449.164286 447.860757 
L 411.3 447.394595 
L 425.984211 447.394595 
L 408.51 447.161514 
L 415.285714 447.161514 
L 452.668966 447.161514 
L 432.225 446.695351 
L 460.457143 446.695351 
L 437.380435 445.996108 
L 444.32449 445.996108 
L 429.9 445.529946 
L 432.225 445.529946 
L 444.491379 445.529946 
L 438.254237 445.296865 
L 440.13 445.296865 
L 441.944262 445.296865 
L 436.05 445.063784 
L 437.871429 445.063784 
L 454.658108 445.063784 
L 449.616 444.830703 
L 450.947368 444.830703 
L 479.876636 444.830703 
L 476.141667 444.597622 
L 477.499091 444.597622 
L 485.246341 444.597622 
L 479.278571 444.131459 
L 479.841732 444.131459 
L 492.66 444.131459 
L 489.992308 443.898378 
L 491.139623 443.898378 
L 498.679121 443.898378 
L 496.372131 443.665297 
L 497.25 443.665297 
L 506.134978 443.665297 
L 504.216964 443.432216 
L 505.034211 443.432216 
L 515.065068 443.432216 
L 513.568259 443.199135 
L 514.192953 443.199135 
L 514.315385 443.199135 
L 512.856 442.966054 
L 513.478033 442.966054 
L 522.342 442.966054 
L 521.230175 442.732973 
L 521.7375 442.732973 
L 522.01966 442.732973 
L 520.94092 442.499892 
L 521.438571 442.499892 
L 523.815755 442.499892 
L 521.15625 441.800649 
L 521.346681 441.800649 
L 522.614139 441.800649 
L 521.70184 441.567568 
L 522.1125 441.567568 
L 523.008984 441.567568 
L 522.138596 441.334486 
L 522.524423 441.334486 
L 522.952841 441.334486 
L 522.108885 441.101405 
L 522.483582 441.101405 
L 523.648658 441.101405 
L 522.850179 440.868324 
L 523.243838 440.868324 
L 525.716827 440.868324 
L 524.45 440.402162 
L 524.616246 440.402162 
L 524.65748 440.402162 
L 523.95283 440.169081 
L 524.286335 440.169081 
L 525.315224 440.169081 
L 524.646349 439.936 
L 524.954492 439.936 
L 526.627686 439.936 
L 526.008528 439.702919 
L 526.311685 439.702919 
L 526.344912 439.702919 
L 525.334228 439.236757 
L 525.436364 439.236757 
L 527.435468 439.236757 
L 526.880812 439.003676 
L 527.142701 439.003676 
L 531.157273 439.003676 
L 530.698486 438.770595 
L 530.938983 438.770595 
L 531.571622 438.770595 
L 531.132787 438.537514 
L 531.357769 438.537514 
L 532.6873 438.537514 
L 532.28252 438.304432 
L 532.493684 438.304432 
L 534.406284 438.304432 
L 534.04686 438.071351 
L 534.241815 438.071351 
L 536.201163 438.071351 
L 535.886945 437.83827 
L 536.068197 437.83827 
L 537.231716 437.83827 
L 536.94537 437.605189 
L 537.11547 437.605189 
L 537.190659 437.605189 
L 536.909579 437.372108 
L 537.077034 437.372108 
L 537.256633 437.372108 
L 536.982699 437.139027 
L 537.153083 437.139027 
L 537.169091 437.139027 
L 536.899062 436.905946 
L 537.068095 436.905946 
L 537.506839 436.905946 
L 537.248571 436.672865 
L 537.413558 436.672865 
L 538.994583 436.672865 
L 538.768976 436.439784 
L 538.919653 436.439784 
L 539.027399 436.439784 
L 538.806727 436.206703 
L 538.959256 436.206703 
L 539.337209 436.206703 
L 539.126253 435.973622 
L 539.273357 435.973622 
L 540.061132 435.973622 
L 539.672727 435.507459 
L 539.815385 435.507459 
L 540.029197 435.507459 
L 539.756483 435.041297 
L 539.791837 435.041297 
L 539.848806 435.041297 
L 539.664425 434.808216 
L 539.80444 434.808216 
L 540.012143 434.808216 
L 539.833526 434.575135 
L 539.971233 434.575135 
L 540.504052 434.575135 
L 540.336239 434.342054 
L 540.470725 434.342054 
L 540.891678 434.342054 
L 540.732694 434.108973 
L 540.865338 434.108973 
L 541.062715 434.108973 
L 540.908937 433.875892 
L 541.041378 433.875892 
L 541.110992 433.875892 
L 540.835714 433.40973 
L 540.94087 433.40973 
L 541.065393 433.40973 
L 540.91875 433.176649 
L 541.048037 433.176649 
L 541.557662 433.176649 
L 541.420396 432.943568 
L 541.548734 432.943568 
L 541.264963 432.244324 
L 541.270436 432.244324 
L 541.330234 432.244324 
L 541.19769 432.011243 
L 541.324676 432.011243 
L 541.654074 432.011243 
L 541.527776 431.778162 
L 541.651969 431.778162 
L 543.197685 431.778162 
L 542.833856 430.845838 
L 542.903658 430.845838 
L 542.956919 430.845838 
L 542.773226 430.379676 
L 542.874679 430.379676 
L 543.00493 430.379676 
L 542.906657 430.146595 
L 543.026203 430.146595 
L 543.380257 430.146595 
L 543.380257 430.146595 
" style="fill:none;stroke:#ff7f0e;stroke-linecap:square;stroke-width:2;"/>
   </g>
   <g id="line2d_47">
    <path clip-path="url(#pe280a60785)" d="M 550.8 448.56 
L 361.08 448.093838 
L 279.771429 447.627676 
L 313.65 447.627676 
L 266.22 447.161514 
L 222.438462 446.46227 
L 266.22 446.46227 
L 234.6 445.763027 
L 226.278947 445.529946 
L 242.505 445.529946 
L 220.852174 444.830703 
L 199.466667 443.898378 
L 183.6 442.966054 
L 180.253125 442.732973 
L 191.481818 442.732973 
L 188.1 442.499892 
L 198.462857 442.499892 
L 188.834211 441.800649 
L 206.9325 441.800649 
L 192.44 440.635243 
L 189.919565 440.402162 
L 197.597872 440.402162 
L 185.953846 439.236757 
L 183.888679 439.003676 
L 203.544643 439.003676 
L 201.315789 438.770595 
L 218.79 438.770595 
L 205.854545 437.372108 
L 211.002985 437.372108 
L 209.025 437.139027 
L 213.978261 437.139027 
L 210.105634 436.672865 
L 214.8375 436.672865 
L 212.942466 436.439784 
L 217.508108 436.439784 
L 215.628 436.206703 
L 220.038158 436.206703 
L 211.177778 435.041297 
L 215.319512 435.041297 
L 213.646988 434.808216 
L 229.148276 434.808216 
L 227.413636 434.575135 
L 231.047191 434.575135 
L 229.33 434.342054 
L 232.862637 434.342054 
L 231.163043 434.108973 
L 234.6 434.108973 
L 232.918085 433.875892 
L 236.264211 433.875892 
L 234.6 433.642811 
L 237.859794 433.642811 
L 231.469307 432.710486 
L 234.6 432.710486 
L 231.559615 432.244324 
L 237.583019 432.244324 
L 234.6 431.778162 
L 237.500917 431.778162 
L 233.188393 431.078919 
L 235.999115 431.078919 
L 234.6 430.845838 
L 237.349565 430.845838 
L 235.962931 430.612757 
L 246.4575 430.612757 
L 245.052893 430.379676 
L 247.559016 430.379676 
L 244.8 429.913514 
L 249.657143 429.913514 
L 246.951563 429.447351 
L 249.306977 429.447351 
L 246.668702 428.981189 
L 248.972727 428.981189 
L 247.67594 428.748108 
L 252.166667 428.748108 
L 250.875 428.515027 
L 255.221739 428.515027 
L 252.668571 428.048865 
L 260.95 428.048865 
L 259.677931 427.815784 
L 283.631013 427.815784 
L 282.328302 427.582703 
L 285.663354 427.582703 
L 284.372222 427.349622 
L 295.407692 427.349622 
L 294.12 427.116541 
L 318.695745 427.116541 
L 317.414286 426.883459 
L 319.858115 426.883459 
L 318.590625 426.650378 
L 322.163077 426.650378 
L 320.909694 426.417297 
L 322.07665 426.417297 
L 319.608543 425.951135 
L 321.908955 425.951135 
L 320.694059 425.718054 
L 326.252174 425.718054 
L 325.051442 425.484973 
L 326.131579 425.484973 
L 324.942857 425.251892 
L 335.209091 425.251892 
L 334.038462 425.018811 
L 335.982511 425.018811 
L 334.824107 424.78573 
L 341.368831 424.78573 
L 339.095279 424.319568 
L 350.282927 424.319568 
L 349.174494 424.086486 
L 357.019844 424.086486 
L 355.932558 423.853405 
L 360.361364 423.853405 
L 359.290189 423.620324 
L 360.01015 423.620324 
L 358.948315 423.387243 
L 382.851148 423.387243 
L 381.85 423.154162 
L 386.154459 423.154162 
L 385.171429 422.921081 
L 385.69557 422.921081 
L 384.720189 422.688 
L 388.308333 422.688 
L 386.395399 422.221838 
L 393.165 422.221838 
L 392.236364 421.988757 
L 395.87106 421.988757 
L 394.958571 421.755676 
L 395.402564 421.755676 
L 404.175 421.755676 
L 403.296515 421.522595 
L 403.690909 421.522595 
L 412.561809 421.522595 
L 410.047631 420.823351 
L 410.397761 420.823351 
L 411.092822 420.823351 
L 410.266667 420.59027 
L 410.612808 420.59027 
L 423.755357 420.59027 
L 422.98196 420.357189 
L 423.266 420.357189 
L 425.219475 420.357189 
L 424.458079 420.124108 
L 424.733333 420.124108 
L 429.997077 420.124108 
L 429.260625 419.891027 
L 429.513306 419.891027 
L 429.764938 419.891027 
L 429.03354 419.657946 
L 429.285124 419.657946 
L 430.281148 419.657946 
L 429.557669 419.424865 
L 429.805102 419.424865 
L 435.454669 419.424865 
L 434.75767 419.191784 
L 434.982558 419.191784 
L 437.614773 419.191784 
L 436.467797 418.725622 
L 441.016275 418.725622 
L 440.358303 418.492541 
L 440.557297 418.492541 
L 443.269772 418.492541 
L 442.626316 418.259459 
L 442.815762 418.259459 
L 445.038422 418.259459 
L 444.407363 418.026378 
L 444.589231 418.026378 
L 449.770244 418.026378 
L 449.164286 417.793297 
L 449.329011 417.793297 
L 449.493204 417.793297 
L 448.89063 417.560216 
L 449.055 417.560216 
L 449.707212 417.560216 
L 449.11008 417.327135 
L 449.272524 417.327135 
L 451.182132 417.327135 
L 450.595775 417.094054 
L 450.752344 417.094054 
L 450.908424 417.094054 
L 450.325234 416.860973 
L 450.481493 416.860973 
L 451.1017 416.860973 
L 450.523611 416.627892 
L 450.67812 416.627892 
L 452.495764 416.627892 
L 451.927795 416.394811 
L 452.076923 416.394811 
L 452.521622 416.394811 
L 451.395808 415.928649 
L 451.544395 415.928649 
L 457.276056 415.928649 
L 456.740506 415.695568 
L 457.004348 415.695568 
L 458.556828 415.695568 
L 458.030579 415.462486 
L 458.28544 415.462486 
L 460.275 415.462486 
L 459.759866 415.229405 
L 460.003614 415.229405 
L 462.829961 415.229405 
L 462.329534 414.996324 
L 462.55814 414.996324 
L 464.345316 414.996324 
L 463.854994 414.763243 
L 464.074275 414.763243 
L 470.363158 414.763243 
L 469.903037 414.530162 
L 470.091608 414.530162 
L 471.204828 414.530162 
L 470.751665 414.297081 
L 470.935052 414.297081 
L 471.839524 414.297081 
L 471.392308 414.064 
L 471.571558 414.064 
L 473.914567 414.064 
L 473.479759 413.830919 
L 473.648581 413.830919 
L 476.331401 413.830919 
L 475.910526 413.597838 
L 476.067857 413.597838 
L 477.680781 413.597838 
L 477.268891 413.364757 
L 477.41957 413.364757 
L 479.607853 413.364757 
L 479.207547 413.131676 
L 479.420198 413.131676 
L 479.490801 413.131676 
L 479.092589 412.898595 
L 479.304532 412.898595 
L 480.753764 412.898595 
L 480.363934 412.665514 
L 480.567115 412.665514 
L 481.103244 412.665514 
L 480.717541 412.432432 
L 480.917395 412.432432 
L 481.964326 412.432432 
L 481.585033 412.199351 
L 481.778731 412.199351 
L 482.353377 412.199351 
L 481.978281 411.96627 
L 482.168571 411.96627 
L 486.103997 411.96627 
L 485.748438 411.733189 
L 485.917403 411.733189 
L 494.916779 411.733189 
L 494.604993 411.500108 
L 494.771991 411.500108 
L 495.430176 411.500108 
L 495.122817 411.267027 
L 495.285735 411.267027 
L 496.787189 411.267027 
L 496.488265 411.033946 
L 496.64234 411.033946 
L 497.362421 411.033946 
L 496.849616 410.567784 
L 496.924808 410.567784 
L 497.665361 410.567784 
L 497.376099 410.334703 
L 497.522466 410.334703 
L 500.518681 410.334703 
L 500.244767 410.101622 
L 500.407534 410.101622 
L 501.205894 410.101622 
L 500.936922 409.868541 
L 501.094318 409.868541 
L 501.5606 409.868541 
L 501.294938 409.635459 
L 501.449159 409.635459 
L 501.541231 409.635459 
L 501.277067 409.402378 
L 501.430483 409.402378 
L 502.183527 409.402378 
L 501.664717 408.936216 
L 501.813973 408.936216 
L 502.021416 408.936216 
L 501.764148 408.703135 
L 501.911935 408.703135 
L 503.314461 408.703135 
L 502.927246 408.236973 
L 502.95516 408.236973 
L 503.094244 408.236973 
L 502.846368 408.003892 
L 502.985284 408.003892 
L 503.478784 408.003892 
L 503.234097 407.770811 
L 503.37 407.770811 
L 504.038028 407.770811 
L 503.797297 407.53773 
L 503.955556 407.53773 
L 504.034286 407.53773 
L 503.794905 407.304649 
L 503.952288 407.304649 
L 504.925082 407.304649 
L 504.507906 406.838486 
L 504.608651 406.838486 
L 505.927008 406.838486 
L 505.700158 406.605405 
L 505.842654 406.605405 
L 505.866316 406.605405 
L 505.640452 406.372324 
L 505.782538 406.372324 
L 506.775231 406.372324 
L 506.55469 406.139243 
L 506.690342 406.139243 
L 506.71287 406.139243 
L 506.296583 405.673081 
L 506.409766 405.673081 
L 508.963375 405.673081 
L 508.756157 405.44 
L 508.896705 405.44 
L 509.449623 405.44 
L 509.24569 405.206919 
L 509.382254 405.206919 
L 510.516986 405.206919 
L 510.213564 404.740757 
L 510.250477 404.740757 
L 511.275 404.740757 
L 511.082366 404.507676 
L 511.222649 404.507676 
L 511.309824 404.507676 
L 511.118362 404.274595 
L 511.257657 404.274595 
L 511.447598 404.274595 
L 511.154549 403.808432 
L 511.206261 403.808432 
L 511.223468 403.808432 
L 510.949762 403.34227 
L 510.984249 403.34227 
L 511.018677 403.34227 
L 510.660622 402.876108 
L 510.781576 402.876108 
L 513.2696 402.876108 
L 513.093341 402.643027 
L 513.229795 402.643027 
L 513.941183 402.643027 
L 513.768691 402.409946 
L 513.899646 402.409946 
L 513.91414 402.409946 
L 513.742403 402.176865 
L 513.872887 402.176865 
L 514.816127 402.176865 
L 514.649085 401.943784 
L 514.772655 401.943784 
L 515.111512 401.943784 
L 514.946559 401.710703 
L 515.080892 401.710703 
L 515.78924 401.710703 
L 515.518615 401.244541 
L 515.596015 401.244541 
L 515.813481 401.244541 
L 515.653905 401.011459 
L 515.781107 401.011459 
L 516.646382 401.011459 
L 516.491073 400.778378 
L 516.623726 400.778378 
L 517.615188 400.778378 
L 517.42811 400.312216 
L 517.43945 400.312216 
L 517.450781 400.312216 
L 517.301053 400.079135 
L 517.42571 400.079135 
L 517.838289 400.079135 
L 517.690882 399.846054 
L 517.81208 399.846054 
L 518.298787 399.846054 
L 517.950735 399.146811 
L 517.993605 399.146811 
L 518.457896 399.146811 
L 518.215666 398.680649 
L 518.299135 398.680649 
L 518.567482 398.680649 
L 518.427143 398.447568 
L 518.55 398.447568 
L 519.258243 398.447568 
L 518.994345 397.981405 
L 519.111853 397.981405 
L 519.592268 397.981405 
L 519.457957 397.748324 
L 519.580978 397.748324 
L 520.090941 397.748324 
L 519.959234 397.515243 
L 520.077817 397.515243 
L 521.181608 397.515243 
L 521.054846 397.282162 
L 521.173083 397.282162 
L 521.911296 397.282162 
L 521.788015 397.049081 
L 521.907966 397.049081 
L 523.474583 397.049081 
L 523.31328 396.582919 
L 523.363191 396.582919 
L 523.455403 396.582919 
L 523.339881 396.349838 
L 523.46001 396.349838 
L 523.572117 396.349838 
L 523.457571 396.116757 
L 523.576148 396.116757 
L 524.579484 396.116757 
L 524.469418 395.883676 
L 524.591736 395.883676 
L 525.192785 395.883676 
L 525.085622 395.650595 
L 525.207868 395.650595 
L 525.328957 395.650595 
L 525.2228 395.417514 
L 525.34322 395.417514 
L 525.533551 395.417514 
L 525.428662 395.184432 
L 525.54664 395.184432 
L 526.019097 395.184432 
L 525.893589 394.71827 
L 525.933159 394.71827 
L 526.851738 394.71827 
L 526.753322 394.485189 
L 526.873581 394.485189 
L 527.769946 394.485189 
L 527.675518 394.252108 
L 527.791068 394.252108 
L 527.952801 394.252108 
L 527.859487 394.019027 
L 527.977421 394.019027 
L 528.822535 394.019027 
L 528.822535 394.019027 
" style="fill:none;stroke:#2ca02c;stroke-linecap:square;stroke-width:2;"/>
   </g>
   <g id="patch_3">
    <path d="M 76.5 448.56 
L 76.5 60.48 
" style="fill:none;stroke:#000000;stroke-linecap:square;stroke-linejoin:miter;stroke-width:0.8;"/>
   </g>
   <g id="patch_4">
    <path d="M 550.8 448.56 
L 550.8 60.48 
" style="fill:none;stroke:#000000;stroke-linecap:square;stroke-linejoin:miter;stroke-width:0.8;"/>
   </g>
   <g id="patch_5">
    <path d="M 76.5 448.56 
L 550.8 448.56 
" style="fill:none;stroke:#000000;stroke-linecap:square;stroke-linejoin:miter;stroke-width:0.8;"/>
   </g>
   <g id="patch_6">
    <path d="M 76.5 60.48 
L 550.8 60.48 
" style="fill:none;stroke:#000000;stroke-linecap:square;stroke-linejoin:miter;stroke-width:0.8;"/>
   </g>
   <g id="text_25">
    <!-- trees: img1-img5 -->
    <defs>
     <path d="M 11.71875 12.40625 
L 22.015625 12.40625 
L 22.015625 0 
L 11.71875 0 
z
M 11.71875 51.703125 
L 22.015625 51.703125 
L 22.015625 39.3125 
L 11.71875 39.3125 
z
" id="DejaVuSans-58"/>
     <path id="DejaVuSans-32"/>
     <path d="M 52 44.1875 
Q 55.375 50.25 60.0625 53.125 
Q 64.75 56 71.09375 56 
Q 79.640625 56 84.28125 50.015625 
Q 88.921875 44.046875 88.921875 33.015625 
L 88.921875 0 
L 79.890625 0 
L 79.890625 32.71875 
Q 79.890625 40.578125 77.09375 44.375 
Q 74.3125 48.1875 68.609375 48.1875 
Q 61.625 48.1875 57.5625 43.546875 
Q 53.515625 38.921875 53.515625 30.90625 
L 53.515625 0 
L 44.484375 0 
L 44.484375 32.71875 
Q 44.484375 40.625 41.703125 44.40625 
Q 38.921875 48.1875 33.109375 48.1875 
Q 26.21875 48.1875 22.15625 43.53125 
Q 18.109375 38.875 18.109375 30.90625 
L 18.109375 0 
L 9.078125 0 
L 9.078125 54.6875 
L 18.109375 54.6875 
L 18.109375 46.1875 
Q 21.1875 51.21875 25.484375 53.609375 
Q 29.78125 56 35.6875 56 
Q 41.65625 56 45.828125 52.96875 
Q 50 49.953125 52 44.1875 
z
" id="DejaVuSans-109"/>
     <path d="M 45.40625 27.984375 
Q 45.40625 37.75 41.375 43.109375 
Q 37.359375 48.484375 30.078125 48.484375 
Q 22.859375 48.484375 18.828125 43.109375 
Q 14.796875 37.75 14.796875 27.984375 
Q 14.796875 18.265625 18.828125 12.890625 
Q 22.859375 7.515625 30.078125 7.515625 
Q 37.359375 7.515625 41.375 12.890625 
Q 45.40625 18.265625 45.40625 27.984375 
z
M 54.390625 6.78125 
Q 54.390625 -7.171875 48.1875 -13.984375 
Q 42 -20.796875 29.203125 -20.796875 
Q 24.46875 -20.796875 20.265625 -20.09375 
Q 16.0625 -19.390625 12.109375 -17.921875 
L 12.109375 -9.1875 
Q 16.0625 -11.328125 19.921875 -12.34375 
Q 23.78125 -13.375 27.78125 -13.375 
Q 36.625 -13.375 41.015625 -8.765625 
Q 45.40625 -4.15625 45.40625 5.171875 
L 45.40625 9.625 
Q 42.625 4.78125 38.28125 2.390625 
Q 33.9375 0 27.875 0 
Q 17.828125 0 11.671875 7.65625 
Q 5.515625 15.328125 5.515625 27.984375 
Q 5.515625 40.671875 11.671875 48.328125 
Q 17.828125 56 27.875 56 
Q 33.9375 56 38.28125 53.609375 
Q 42.625 51.21875 45.40625 46.390625 
L 45.40625 54.6875 
L 54.390625 54.6875 
z
" id="DejaVuSans-103"/>
    </defs>
    <g transform="translate(262.088438 41.042625)scale(0.12 -0.12)">
     <use xlink:href="#DejaVuSans-116"/>
     <use x="39.208984" xlink:href="#DejaVuSans-114"/>
     <use x="78.072266" xlink:href="#DejaVuSans-101"/>
     <use x="139.595703" xlink:href="#DejaVuSans-101"/>
     <use x="201.119141" xlink:href="#DejaVuSans-115"/>
     <use x="253.21875" xlink:href="#DejaVuSans-58"/>
     <use x="286.910156" xlink:href="#DejaVuSans-32"/>
     <use x="318.697266" xlink:href="#DejaVuSans-105"/>
     <use x="346.480469" xlink:href="#DejaVuSans-109"/>
     <use x="443.892578" xlink:href="#DejaVuSans-103"/>
     <use x="507.369141" xlink:href="#DejaVuSans-49"/>
     <use x="570.992188" xlink:href="#DejaVuSans-45"/>
     <use x="607.076172" xlink:href="#DejaVuSans-105"/>
     <use x="634.859375" xlink:href="#DejaVuSans-109"/>
     <use x="732.271484" xlink:href="#DejaVuSans-103"/>
     <use x="795.748047" xlink:href="#DejaVuSans-53"/>
    </g>
    <!-- NearestNeighbours -->
    <defs>
     <path d="M 9.8125 72.90625 
L 23.09375 72.90625 
L 55.421875 11.921875 
L 55.421875 72.90625 
L 64.984375 72.90625 
L 64.984375 0 
L 51.703125 0 
L 19.390625 60.984375 
L 19.390625 0 
L 9.8125 0 
z
" id="DejaVuSans-78"/>
     <path d="M 34.28125 27.484375 
Q 23.390625 27.484375 19.1875 25 
Q 14.984375 22.515625 14.984375 16.5 
Q 14.984375 11.71875 18.140625 8.90625 
Q 21.296875 6.109375 26.703125 6.109375 
Q 34.1875 6.109375 38.703125 11.40625 
Q 43.21875 16.703125 43.21875 25.484375 
L 43.21875 27.484375 
z
M 52.203125 31.203125 
L 52.203125 0 
L 43.21875 0 
L 43.21875 8.296875 
Q 40.140625 3.328125 35.546875 0.953125 
Q 30.953125 -1.421875 24.3125 -1.421875 
Q 15.921875 -1.421875 10.953125 3.296875 
Q 6 8.015625 6 15.921875 
Q 6 25.140625 12.171875 29.828125 
Q 18.359375 34.515625 30.609375 34.515625 
L 43.21875 34.515625 
L 43.21875 35.40625 
Q 43.21875 41.609375 39.140625 45 
Q 35.0625 48.390625 27.6875 48.390625 
Q 23 48.390625 18.546875 47.265625 
Q 14.109375 46.140625 10.015625 43.890625 
L 10.015625 52.203125 
Q 14.9375 54.109375 19.578125 55.046875 
Q 24.21875 56 28.609375 56 
Q 40.484375 56 46.34375 49.84375 
Q 52.203125 43.703125 52.203125 31.203125 
z
" id="DejaVuSans-97"/>
     <path d="M 54.890625 33.015625 
L 54.890625 0 
L 45.90625 0 
L 45.90625 32.71875 
Q 45.90625 40.484375 42.875 44.328125 
Q 39.84375 48.1875 33.796875 48.1875 
Q 26.515625 48.1875 22.3125 43.546875 
Q 18.109375 38.921875 18.109375 30.90625 
L 18.109375 0 
L 9.078125 0 
L 9.078125 75.984375 
L 18.109375 75.984375 
L 18.109375 46.1875 
Q 21.34375 51.125 25.703125 53.5625 
Q 30.078125 56 35.796875 56 
Q 45.21875 56 50.046875 50.171875 
Q 54.890625 44.34375 54.890625 33.015625 
z
" id="DejaVuSans-104"/>
     <path d="M 48.6875 27.296875 
Q 48.6875 37.203125 44.609375 42.84375 
Q 40.53125 48.484375 33.40625 48.484375 
Q 26.265625 48.484375 22.1875 42.84375 
Q 18.109375 37.203125 18.109375 27.296875 
Q 18.109375 17.390625 22.1875 11.75 
Q 26.265625 6.109375 33.40625 6.109375 
Q 40.53125 6.109375 44.609375 11.75 
Q 48.6875 17.390625 48.6875 27.296875 
z
M 18.109375 46.390625 
Q 20.953125 51.265625 25.265625 53.625 
Q 29.59375 56 35.59375 56 
Q 45.5625 56 51.78125 48.09375 
Q 58.015625 40.1875 58.015625 27.296875 
Q 58.015625 14.40625 51.78125 6.484375 
Q 45.5625 -1.421875 35.59375 -1.421875 
Q 29.59375 -1.421875 25.265625 0.953125 
Q 20.953125 3.328125 18.109375 8.203125 
L 18.109375 0 
L 9.078125 0 
L 9.078125 75.984375 
L 18.109375 75.984375 
z
" id="DejaVuSans-98"/>
     <path d="M 8.5 21.578125 
L 8.5 54.6875 
L 17.484375 54.6875 
L 17.484375 21.921875 
Q 17.484375 14.15625 20.5 10.265625 
Q 23.53125 6.390625 29.59375 6.390625 
Q 36.859375 6.390625 41.078125 11.03125 
Q 45.3125 15.671875 45.3125 23.6875 
L 45.3125 54.6875 
L 54.296875 54.6875 
L 54.296875 0 
L 45.3125 0 
L 45.3125 8.40625 
Q 42.046875 3.421875 37.71875 1 
Q 33.40625 -1.421875 27.6875 -1.421875 
Q 18.265625 -1.421875 13.375 4.4375 
Q 8.5 10.296875 8.5 21.578125 
z
M 31.109375 56 
z
" id="DejaVuSans-117"/>
    </defs>
    <g transform="translate(255.957188 54.48)scale(0.12 -0.12)">
     <use xlink:href="#DejaVuSans-78"/>
     <use x="74.804688" xlink:href="#DejaVuSans-101"/>
     <use x="136.328125" xlink:href="#DejaVuSans-97"/>
     <use x="197.607422" xlink:href="#DejaVuSans-114"/>
     <use x="236.470703" xlink:href="#DejaVuSans-101"/>
     <use x="297.994141" xlink:href="#DejaVuSans-115"/>
     <use x="350.09375" xlink:href="#DejaVuSans-116"/>
     <use x="389.302734" xlink:href="#DejaVuSans-78"/>
     <use x="464.107422" xlink:href="#DejaVuSans-101"/>
     <use x="525.630859" xlink:href="#DejaVuSans-105"/>
     <use x="553.414062" xlink:href="#DejaVuSans-103"/>
     <use x="616.890625" xlink:href="#DejaVuSans-104"/>
     <use x="680.269531" xlink:href="#DejaVuSans-98"/>
     <use x="743.746094" xlink:href="#DejaVuSans-111"/>
     <use x="804.927734" xlink:href="#DejaVuSans-117"/>
     <use x="868.306641" xlink:href="#DejaVuSans-114"/>
     <use x="909.419922" xlink:href="#DejaVuSans-115"/>
    </g>
   </g>
   <g id="legend_1">
    <g id="patch_7">
     <path d="M 362.659375 112.514375 
L 543.8 112.514375 
Q 545.8 112.514375 545.8 110.514375 
L 545.8 67.48 
Q 545.8 65.48 543.8 65.48 
L 362.659375 65.48 
Q 360.659375 65.48 360.659375 67.48 
L 360.659375 110.514375 
Q 360.659375 112.514375 362.659375 112.514375 
z
" style="fill:#ffffff;opacity:0.8;stroke:#cccccc;stroke-linejoin:miter;"/>
    </g>
    <g id="line2d_48">
     <path d="M 364.659375 73.578438 
L 384.659375 73.578438 
" style="fill:none;stroke:#1f77b4;stroke-linecap:square;stroke-width:2;"/>
    </g>
    <g id="line2d_49"/>
    <g id="text_26">
     <!-- root-cvsift AP: 22.0, %In: 10.6 -->
     <defs>
      <path d="M 2.984375 54.6875 
L 12.5 54.6875 
L 29.59375 8.796875 
L 46.6875 54.6875 
L 56.203125 54.6875 
L 35.6875 0 
L 23.484375 0 
z
" id="DejaVuSans-118"/>
      <path d="M 37.109375 75.984375 
L 37.109375 68.5 
L 28.515625 68.5 
Q 23.6875 68.5 21.796875 66.546875 
Q 19.921875 64.59375 19.921875 59.515625 
L 19.921875 54.6875 
L 34.71875 54.6875 
L 34.71875 47.703125 
L 19.921875 47.703125 
L 19.921875 0 
L 10.890625 0 
L 10.890625 47.703125 
L 2.296875 47.703125 
L 2.296875 54.6875 
L 10.890625 54.6875 
L 10.890625 58.5 
Q 10.890625 67.625 15.140625 71.796875 
Q 19.390625 75.984375 28.609375 75.984375 
z
" id="DejaVuSans-102"/>
      <path d="M 34.1875 63.1875 
L 20.796875 26.90625 
L 47.609375 26.90625 
z
M 28.609375 72.90625 
L 39.796875 72.90625 
L 67.578125 0 
L 57.328125 0 
L 50.6875 18.703125 
L 17.828125 18.703125 
L 11.1875 0 
L 0.78125 0 
z
" id="DejaVuSans-65"/>
      <path d="M 19.671875 64.796875 
L 19.671875 37.40625 
L 32.078125 37.40625 
Q 38.96875 37.40625 42.71875 40.96875 
Q 46.484375 44.53125 46.484375 51.125 
Q 46.484375 57.671875 42.71875 61.234375 
Q 38.96875 64.796875 32.078125 64.796875 
z
M 9.8125 72.90625 
L 32.078125 72.90625 
Q 44.34375 72.90625 50.609375 67.359375 
Q 56.890625 61.8125 56.890625 51.125 
Q 56.890625 40.328125 50.609375 34.8125 
Q 44.34375 29.296875 32.078125 29.296875 
L 19.671875 29.296875 
L 19.671875 0 
L 9.8125 0 
z
" id="DejaVuSans-80"/>
      <path d="M 11.71875 12.40625 
L 22.015625 12.40625 
L 22.015625 4 
L 14.015625 -11.625 
L 7.71875 -11.625 
L 11.71875 4 
z
" id="DejaVuSans-44"/>
      <path d="M 72.703125 32.078125 
Q 68.453125 32.078125 66.03125 28.46875 
Q 63.625 24.859375 63.625 18.40625 
Q 63.625 12.0625 66.03125 8.421875 
Q 68.453125 4.78125 72.703125 4.78125 
Q 76.859375 4.78125 79.265625 8.421875 
Q 81.6875 12.0625 81.6875 18.40625 
Q 81.6875 24.8125 79.265625 28.4375 
Q 76.859375 32.078125 72.703125 32.078125 
z
M 72.703125 38.28125 
Q 80.421875 38.28125 84.953125 32.90625 
Q 89.5 27.546875 89.5 18.40625 
Q 89.5 9.28125 84.9375 3.921875 
Q 80.375 -1.421875 72.703125 -1.421875 
Q 64.890625 -1.421875 60.34375 3.921875 
Q 55.8125 9.28125 55.8125 18.40625 
Q 55.8125 27.59375 60.375 32.9375 
Q 64.9375 38.28125 72.703125 38.28125 
z
M 22.3125 68.015625 
Q 18.109375 68.015625 15.6875 64.375 
Q 13.28125 60.75 13.28125 54.390625 
Q 13.28125 47.953125 15.671875 44.328125 
Q 18.0625 40.71875 22.3125 40.71875 
Q 26.5625 40.71875 28.96875 44.328125 
Q 31.390625 47.953125 31.390625 54.390625 
Q 31.390625 60.6875 28.953125 64.34375 
Q 26.515625 68.015625 22.3125 68.015625 
z
M 66.40625 74.21875 
L 74.21875 74.21875 
L 28.609375 -1.421875 
L 20.796875 -1.421875 
z
M 22.3125 74.21875 
Q 30.03125 74.21875 34.609375 68.875 
Q 39.203125 63.53125 39.203125 54.390625 
Q 39.203125 45.171875 34.640625 39.84375 
Q 30.078125 34.515625 22.3125 34.515625 
Q 14.546875 34.515625 10.03125 39.859375 
Q 5.515625 45.21875 5.515625 54.390625 
Q 5.515625 63.484375 10.046875 68.84375 
Q 14.59375 74.21875 22.3125 74.21875 
z
" id="DejaVuSans-37"/>
      <path d="M 9.8125 72.90625 
L 19.671875 72.90625 
L 19.671875 0 
L 9.8125 0 
z
" id="DejaVuSans-73"/>
     </defs>
     <g transform="translate(392.659375 77.078438)scale(0.1 -0.1)">
      <use xlink:href="#DejaVuSans-114"/>
      <use x="38.863281" xlink:href="#DejaVuSans-111"/>
      <use x="100.044922" xlink:href="#DejaVuSans-111"/>
      <use x="161.226562" xlink:href="#DejaVuSans-116"/>
      <use x="200.435547" xlink:href="#DejaVuSans-45"/>
      <use x="236.519531" xlink:href="#DejaVuSans-99"/>
      <use x="291.5" xlink:href="#DejaVuSans-118"/>
      <use x="350.679688" xlink:href="#DejaVuSans-115"/>
      <use x="402.779297" xlink:href="#DejaVuSans-105"/>
      <use x="430.5625" xlink:href="#DejaVuSans-102"/>
      <use x="464.017578" xlink:href="#DejaVuSans-116"/>
      <use x="503.226562" xlink:href="#DejaVuSans-32"/>
      <use x="535.013672" xlink:href="#DejaVuSans-65"/>
      <use x="603.421875" xlink:href="#DejaVuSans-80"/>
      <use x="663.724609" xlink:href="#DejaVuSans-58"/>
      <use x="697.416016" xlink:href="#DejaVuSans-32"/>
      <use x="729.203125" xlink:href="#DejaVuSans-50"/>
      <use x="792.826172" xlink:href="#DejaVuSans-50"/>
      <use x="856.449219" xlink:href="#DejaVuSans-46"/>
      <use x="888.236328" xlink:href="#DejaVuSans-48"/>
      <use x="951.859375" xlink:href="#DejaVuSans-44"/>
      <use x="983.646484" xlink:href="#DejaVuSans-32"/>
      <use x="1015.433594" xlink:href="#DejaVuSans-37"/>
      <use x="1110.453125" xlink:href="#DejaVuSans-73"/>
      <use x="1139.945312" xlink:href="#DejaVuSans-110"/>
      <use x="1203.324219" xlink:href="#DejaVuSans-58"/>
      <use x="1237.015625" xlink:href="#DejaVuSans-32"/>
      <use x="1268.802734" xlink:href="#DejaVuSans-49"/>
      <use x="1332.425781" xlink:href="#DejaVuSans-48"/>
      <use x="1396.048828" xlink:href="#DejaVuSans-46"/>
      <use x="1427.835938" xlink:href="#DejaVuSans-54"/>
     </g>
    </g>
    <g id="line2d_50">
     <path d="M 364.659375 88.256563 
L 384.659375 88.256563 
" style="fill:none;stroke:#ff7f0e;stroke-linecap:square;stroke-width:2;"/>
    </g>
    <g id="line2d_51"/>
    <g id="text_27">
     <!-- tfeat AP: 0.4, %In: 1.6 -->
     <g transform="translate(392.659375 91.756563)scale(0.1 -0.1)">
      <use xlink:href="#DejaVuSans-116"/>
      <use x="39.208984" xlink:href="#DejaVuSans-102"/>
      <use x="74.414062" xlink:href="#DejaVuSans-101"/>
      <use x="135.9375" xlink:href="#DejaVuSans-97"/>
      <use x="197.216797" xlink:href="#DejaVuSans-116"/>
      <use x="236.425781" xlink:href="#DejaVuSans-32"/>
      <use x="268.212891" xlink:href="#DejaVuSans-65"/>
      <use x="336.621094" xlink:href="#DejaVuSans-80"/>
      <use x="396.923828" xlink:href="#DejaVuSans-58"/>
      <use x="430.615234" xlink:href="#DejaVuSans-32"/>
      <use x="462.402344" xlink:href="#DejaVuSans-48"/>
      <use x="526.025391" xlink:href="#DejaVuSans-46"/>
      <use x="557.8125" xlink:href="#DejaVuSans-52"/>
      <use x="621.435547" xlink:href="#DejaVuSans-44"/>
      <use x="653.222656" xlink:href="#DejaVuSans-32"/>
      <use x="685.009766" xlink:href="#DejaVuSans-37"/>
      <use x="780.029297" xlink:href="#DejaVuSans-73"/>
      <use x="809.521484" xlink:href="#DejaVuSans-110"/>
      <use x="872.900391" xlink:href="#DejaVuSans-58"/>
      <use x="906.591797" xlink:href="#DejaVuSans-32"/>
      <use x="938.378906" xlink:href="#DejaVuSans-49"/>
      <use x="1002.001953" xlink:href="#DejaVuSans-46"/>
      <use x="1033.789062" xlink:href="#DejaVuSans-54"/>
     </g>
    </g>
    <g id="line2d_52">
     <path d="M 364.659375 102.934687 
L 384.659375 102.934687 
" style="fill:none;stroke:#2ca02c;stroke-linecap:square;stroke-width:2;"/>
    </g>
    <g id="line2d_53"/>
    <g id="text_28">
     <!-- hardnet AP: 5.2, %In: 4.6 -->
     <defs>
      <path d="M 45.40625 46.390625 
L 45.40625 75.984375 
L 54.390625 75.984375 
L 54.390625 0 
L 45.40625 0 
L 45.40625 8.203125 
Q 42.578125 3.328125 38.25 0.953125 
Q 33.9375 -1.421875 27.875 -1.421875 
Q 17.96875 -1.421875 11.734375 6.484375 
Q 5.515625 14.40625 5.515625 27.296875 
Q 5.515625 40.1875 11.734375 48.09375 
Q 17.96875 56 27.875 56 
Q 33.9375 56 38.25 53.625 
Q 42.578125 51.265625 45.40625 46.390625 
z
M 14.796875 27.296875 
Q 14.796875 17.390625 18.875 11.75 
Q 22.953125 6.109375 30.078125 6.109375 
Q 37.203125 6.109375 41.296875 11.75 
Q 45.40625 17.390625 45.40625 27.296875 
Q 45.40625 37.203125 41.296875 42.84375 
Q 37.203125 48.484375 30.078125 48.484375 
Q 22.953125 48.484375 18.875 42.84375 
Q 14.796875 37.203125 14.796875 27.296875 
z
" id="DejaVuSans-100"/>
     </defs>
     <g transform="translate(392.659375 106.434687)scale(0.1 -0.1)">
      <use xlink:href="#DejaVuSans-104"/>
      <use x="63.378906" xlink:href="#DejaVuSans-97"/>
      <use x="124.658203" xlink:href="#DejaVuSans-114"/>
      <use x="164.021484" xlink:href="#DejaVuSans-100"/>
      <use x="227.498047" xlink:href="#DejaVuSans-110"/>
      <use x="290.876953" xlink:href="#DejaVuSans-101"/>
      <use x="352.400391" xlink:href="#DejaVuSans-116"/>
      <use x="391.609375" xlink:href="#DejaVuSans-32"/>
      <use x="423.396484" xlink:href="#DejaVuSans-65"/>
      <use x="491.804688" xlink:href="#DejaVuSans-80"/>
      <use x="552.107422" xlink:href="#DejaVuSans-58"/>
      <use x="585.798828" xlink:href="#DejaVuSans-32"/>
      <use x="617.585938" xlink:href="#DejaVuSans-53"/>
      <use x="681.208984" xlink:href="#DejaVuSans-46"/>
      <use x="712.996094" xlink:href="#DejaVuSans-50"/>
      <use x="776.619141" xlink:href="#DejaVuSans-44"/>
      <use x="808.40625" xlink:href="#DejaVuSans-32"/>
      <use x="840.193359" xlink:href="#DejaVuSans-37"/>
      <use x="935.212891" xlink:href="#DejaVuSans-73"/>
      <use x="964.705078" xlink:href="#DejaVuSans-110"/>
      <use x="1028.083984" xlink:href="#DejaVuSans-58"/>
      <use x="1061.775391" xlink:href="#DejaVuSans-32"/>
      <use x="1093.5625" xlink:href="#DejaVuSans-52"/>
      <use x="1157.185547" xlink:href="#DejaVuSans-46"/>
      <use x="1188.972656" xlink:href="#DejaVuSans-54"/>
     </g>
    </g>
   </g>
  </g>
 </g>
 <defs>
  <clipPath id="pe280a60785">
   <rect height="388.08" width="474.3" x="76.5" y="60.48"/>
  </clipPath>
 </defs>
</svg>
