<?xml version="1.0" encoding="utf-8" standalone="no"?>
<!DOCTYPE svg PUBLIC "-//W3C//DTD SVG 1.1//EN"
  "http://www.w3.org/Graphics/SVG/1.1/DTD/svg11.dtd">
<!-- Created with matplotlib (https://matplotlib.org/) -->
<svg height="504pt" version="1.1" viewBox="0 0 612 504" width="612pt" xmlns="http://www.w3.org/2000/svg" xmlns:xlink="http://www.w3.org/1999/xlink">
 <defs>
  <style type="text/css">
*{stroke-linecap:butt;stroke-linejoin:round;}
  </style>
 </defs>
 <g id="figure_1">
  <g id="patch_1">
   <path d="M 0 504 
L 612 504 
L 612 0 
L 0 0 
z
" style="fill:#ffffff;"/>
  </g>
  <g id="axes_1">
   <g id="patch_2">
    <path d="M 76.5 448.56 
L 550.8 448.56 
L 550.8 60.48 
L 76.5 60.48 
z
" style="fill:#ffffff;"/>
   </g>
   <g id="matplotlib.axis_1">
    <g id="xtick_1">
     <g id="line2d_1">
      <path clip-path="url(#pd2948f2a6f)" d="M 76.5 448.56 
L 76.5 60.48 
" style="fill:none;stroke:#b0b0b0;stroke-linecap:square;stroke-width:0.8;"/>
     </g>
     <g id="line2d_2">
      <defs>
       <path d="M 0 0 
L 0 3.5 
" id="m84c288675f" style="stroke:#000000;stroke-width:0.8;"/>
      </defs>
      <g>
       <use style="stroke:#000000;stroke-width:0.8;" x="76.5" xlink:href="#m84c288675f" y="448.56"/>
      </g>
     </g>
     <g id="text_1">
      <!-- 0.0 -->
      <defs>
       <path d="M 31.78125 66.40625 
Q 24.171875 66.40625 20.328125 58.90625 
Q 16.5 51.421875 16.5 36.375 
Q 16.5 21.390625 20.328125 13.890625 
Q 24.171875 6.390625 31.78125 6.390625 
Q 39.453125 6.390625 43.28125 13.890625 
Q 47.125 21.390625 47.125 36.375 
Q 47.125 51.421875 43.28125 58.90625 
Q 39.453125 66.40625 31.78125 66.40625 
z
M 31.78125 74.21875 
Q 44.046875 74.21875 50.515625 64.515625 
Q 56.984375 54.828125 56.984375 36.375 
Q 56.984375 17.96875 50.515625 8.265625 
Q 44.046875 -1.421875 31.78125 -1.421875 
Q 19.53125 -1.421875 13.0625 8.265625 
Q 6.59375 17.96875 6.59375 36.375 
Q 6.59375 54.828125 13.0625 64.515625 
Q 19.53125 74.21875 31.78125 74.21875 
z
" id="DejaVuSans-48"/>
       <path d="M 10.6875 12.40625 
L 21 12.40625 
L 21 0 
L 10.6875 0 
z
" id="DejaVuSans-46"/>
      </defs>
      <g transform="translate(68.548438 463.158437)scale(0.1 -0.1)">
       <use xlink:href="#DejaVuSans-48"/>
       <use x="63.623047" xlink:href="#DejaVuSans-46"/>
       <use x="95.410156" xlink:href="#DejaVuSans-48"/>
      </g>
     </g>
    </g>
    <g id="xtick_2">
     <g id="line2d_3">
      <path clip-path="url(#pd2948f2a6f)" d="M 123.93 448.56 
L 123.93 60.48 
" style="fill:none;stroke:#b0b0b0;stroke-linecap:square;stroke-width:0.8;"/>
     </g>
     <g id="line2d_4">
      <g>
       <use style="stroke:#000000;stroke-width:0.8;" x="123.93" xlink:href="#m84c288675f" y="448.56"/>
      </g>
     </g>
     <g id="text_2">
      <!-- 0.1 -->
      <defs>
       <path d="M 12.40625 8.296875 
L 28.515625 8.296875 
L 28.515625 63.921875 
L 10.984375 60.40625 
L 10.984375 69.390625 
L 28.421875 72.90625 
L 38.28125 72.90625 
L 38.28125 8.296875 
L 54.390625 8.296875 
L 54.390625 0 
L 12.40625 0 
z
" id="DejaVuSans-49"/>
      </defs>
      <g transform="translate(115.978438 463.158437)scale(0.1 -0.1)">
       <use xlink:href="#DejaVuSans-48"/>
       <use x="63.623047" xlink:href="#DejaVuSans-46"/>
       <use x="95.410156" xlink:href="#DejaVuSans-49"/>
      </g>
     </g>
    </g>
    <g id="xtick_3">
     <g id="line2d_5">
      <path clip-path="url(#pd2948f2a6f)" d="M 171.36 448.56 
L 171.36 60.48 
" style="fill:none;stroke:#b0b0b0;stroke-linecap:square;stroke-width:0.8;"/>
     </g>
     <g id="line2d_6">
      <g>
       <use style="stroke:#000000;stroke-width:0.8;" x="171.36" xlink:href="#m84c288675f" y="448.56"/>
      </g>
     </g>
     <g id="text_3">
      <!-- 0.2 -->
      <defs>
       <path d="M 19.1875 8.296875 
L 53.609375 8.296875 
L 53.609375 0 
L 7.328125 0 
L 7.328125 8.296875 
Q 12.9375 14.109375 22.625 23.890625 
Q 32.328125 33.6875 34.8125 36.53125 
Q 39.546875 41.84375 41.421875 45.53125 
Q 43.3125 49.21875 43.3125 52.78125 
Q 43.3125 58.59375 39.234375 62.25 
Q 35.15625 65.921875 28.609375 65.921875 
Q 23.96875 65.921875 18.8125 64.3125 
Q 13.671875 62.703125 7.8125 59.421875 
L 7.8125 69.390625 
Q 13.765625 71.78125 18.9375 73 
Q 24.125 74.21875 28.421875 74.21875 
Q 39.75 74.21875 46.484375 68.546875 
Q 53.21875 62.890625 53.21875 53.421875 
Q 53.21875 48.921875 51.53125 44.890625 
Q 49.859375 40.875 45.40625 35.40625 
Q 44.1875 33.984375 37.640625 27.21875 
Q 31.109375 20.453125 19.1875 8.296875 
z
" id="DejaVuSans-50"/>
      </defs>
      <g transform="translate(163.408438 463.158437)scale(0.1 -0.1)">
       <use xlink:href="#DejaVuSans-48"/>
       <use x="63.623047" xlink:href="#DejaVuSans-46"/>
       <use x="95.410156" xlink:href="#DejaVuSans-50"/>
      </g>
     </g>
    </g>
    <g id="xtick_4">
     <g id="line2d_7">
      <path clip-path="url(#pd2948f2a6f)" d="M 218.79 448.56 
L 218.79 60.48 
" style="fill:none;stroke:#b0b0b0;stroke-linecap:square;stroke-width:0.8;"/>
     </g>
     <g id="line2d_8">
      <g>
       <use style="stroke:#000000;stroke-width:0.8;" x="218.79" xlink:href="#m84c288675f" y="448.56"/>
      </g>
     </g>
     <g id="text_4">
      <!-- 0.3 -->
      <defs>
       <path d="M 40.578125 39.3125 
Q 47.65625 37.796875 51.625 33 
Q 55.609375 28.21875 55.609375 21.1875 
Q 55.609375 10.40625 48.1875 4.484375 
Q 40.765625 -1.421875 27.09375 -1.421875 
Q 22.515625 -1.421875 17.65625 -0.515625 
Q 12.796875 0.390625 7.625 2.203125 
L 7.625 11.71875 
Q 11.71875 9.328125 16.59375 8.109375 
Q 21.484375 6.890625 26.8125 6.890625 
Q 36.078125 6.890625 40.9375 10.546875 
Q 45.796875 14.203125 45.796875 21.1875 
Q 45.796875 27.640625 41.28125 31.265625 
Q 36.765625 34.90625 28.71875 34.90625 
L 20.21875 34.90625 
L 20.21875 43.015625 
L 29.109375 43.015625 
Q 36.375 43.015625 40.234375 45.921875 
Q 44.09375 48.828125 44.09375 54.296875 
Q 44.09375 59.90625 40.109375 62.90625 
Q 36.140625 65.921875 28.71875 65.921875 
Q 24.65625 65.921875 20.015625 65.03125 
Q 15.375 64.15625 9.8125 62.3125 
L 9.8125 71.09375 
Q 15.4375 72.65625 20.34375 73.4375 
Q 25.25 74.21875 29.59375 74.21875 
Q 40.828125 74.21875 47.359375 69.109375 
Q 53.90625 64.015625 53.90625 55.328125 
Q 53.90625 49.265625 50.4375 45.09375 
Q 46.96875 40.921875 40.578125 39.3125 
z
" id="DejaVuSans-51"/>
      </defs>
      <g transform="translate(210.838438 463.158437)scale(0.1 -0.1)">
       <use xlink:href="#DejaVuSans-48"/>
       <use x="63.623047" xlink:href="#DejaVuSans-46"/>
       <use x="95.410156" xlink:href="#DejaVuSans-51"/>
      </g>
     </g>
    </g>
    <g id="xtick_5">
     <g id="line2d_9">
      <path clip-path="url(#pd2948f2a6f)" d="M 266.22 448.56 
L 266.22 60.48 
" style="fill:none;stroke:#b0b0b0;stroke-linecap:square;stroke-width:0.8;"/>
     </g>
     <g id="line2d_10">
      <g>
       <use style="stroke:#000000;stroke-width:0.8;" x="266.22" xlink:href="#m84c288675f" y="448.56"/>
      </g>
     </g>
     <g id="text_5">
      <!-- 0.4 -->
      <defs>
       <path d="M 37.796875 64.3125 
L 12.890625 25.390625 
L 37.796875 25.390625 
z
M 35.203125 72.90625 
L 47.609375 72.90625 
L 47.609375 25.390625 
L 58.015625 25.390625 
L 58.015625 17.1875 
L 47.609375 17.1875 
L 47.609375 0 
L 37.796875 0 
L 37.796875 17.1875 
L 4.890625 17.1875 
L 4.890625 26.703125 
z
" id="DejaVuSans-52"/>
      </defs>
      <g transform="translate(258.268438 463.158437)scale(0.1 -0.1)">
       <use xlink:href="#DejaVuSans-48"/>
       <use x="63.623047" xlink:href="#DejaVuSans-46"/>
       <use x="95.410156" xlink:href="#DejaVuSans-52"/>
      </g>
     </g>
    </g>
    <g id="xtick_6">
     <g id="line2d_11">
      <path clip-path="url(#pd2948f2a6f)" d="M 313.65 448.56 
L 313.65 60.48 
" style="fill:none;stroke:#b0b0b0;stroke-linecap:square;stroke-width:0.8;"/>
     </g>
     <g id="line2d_12">
      <g>
       <use style="stroke:#000000;stroke-width:0.8;" x="313.65" xlink:href="#m84c288675f" y="448.56"/>
      </g>
     </g>
     <g id="text_6">
      <!-- 0.5 -->
      <defs>
       <path d="M 10.796875 72.90625 
L 49.515625 72.90625 
L 49.515625 64.59375 
L 19.828125 64.59375 
L 19.828125 46.734375 
Q 21.96875 47.46875 24.109375 47.828125 
Q 26.265625 48.1875 28.421875 48.1875 
Q 40.625 48.1875 47.75 41.5 
Q 54.890625 34.8125 54.890625 23.390625 
Q 54.890625 11.625 47.5625 5.09375 
Q 40.234375 -1.421875 26.90625 -1.421875 
Q 22.3125 -1.421875 17.546875 -0.640625 
Q 12.796875 0.140625 7.71875 1.703125 
L 7.71875 11.625 
Q 12.109375 9.234375 16.796875 8.0625 
Q 21.484375 6.890625 26.703125 6.890625 
Q 35.15625 6.890625 40.078125 11.328125 
Q 45.015625 15.765625 45.015625 23.390625 
Q 45.015625 31 40.078125 35.4375 
Q 35.15625 39.890625 26.703125 39.890625 
Q 22.75 39.890625 18.8125 39.015625 
Q 14.890625 38.140625 10.796875 36.28125 
z
" id="DejaVuSans-53"/>
      </defs>
      <g transform="translate(305.698438 463.158437)scale(0.1 -0.1)">
       <use xlink:href="#DejaVuSans-48"/>
       <use x="63.623047" xlink:href="#DejaVuSans-46"/>
       <use x="95.410156" xlink:href="#DejaVuSans-53"/>
      </g>
     </g>
    </g>
    <g id="xtick_7">
     <g id="line2d_13">
      <path clip-path="url(#pd2948f2a6f)" d="M 361.08 448.56 
L 361.08 60.48 
" style="fill:none;stroke:#b0b0b0;stroke-linecap:square;stroke-width:0.8;"/>
     </g>
     <g id="line2d_14">
      <g>
       <use style="stroke:#000000;stroke-width:0.8;" x="361.08" xlink:href="#m84c288675f" y="448.56"/>
      </g>
     </g>
     <g id="text_7">
      <!-- 0.6 -->
      <defs>
       <path d="M 33.015625 40.375 
Q 26.375 40.375 22.484375 35.828125 
Q 18.609375 31.296875 18.609375 23.390625 
Q 18.609375 15.53125 22.484375 10.953125 
Q 26.375 6.390625 33.015625 6.390625 
Q 39.65625 6.390625 43.53125 10.953125 
Q 47.40625 15.53125 47.40625 23.390625 
Q 47.40625 31.296875 43.53125 35.828125 
Q 39.65625 40.375 33.015625 40.375 
z
M 52.59375 71.296875 
L 52.59375 62.3125 
Q 48.875 64.0625 45.09375 64.984375 
Q 41.3125 65.921875 37.59375 65.921875 
Q 27.828125 65.921875 22.671875 59.328125 
Q 17.53125 52.734375 16.796875 39.40625 
Q 19.671875 43.65625 24.015625 45.921875 
Q 28.375 48.1875 33.59375 48.1875 
Q 44.578125 48.1875 50.953125 41.515625 
Q 57.328125 34.859375 57.328125 23.390625 
Q 57.328125 12.15625 50.6875 5.359375 
Q 44.046875 -1.421875 33.015625 -1.421875 
Q 20.359375 -1.421875 13.671875 8.265625 
Q 6.984375 17.96875 6.984375 36.375 
Q 6.984375 53.65625 15.1875 63.9375 
Q 23.390625 74.21875 37.203125 74.21875 
Q 40.921875 74.21875 44.703125 73.484375 
Q 48.484375 72.75 52.59375 71.296875 
z
" id="DejaVuSans-54"/>
      </defs>
      <g transform="translate(353.128438 463.158437)scale(0.1 -0.1)">
       <use xlink:href="#DejaVuSans-48"/>
       <use x="63.623047" xlink:href="#DejaVuSans-46"/>
       <use x="95.410156" xlink:href="#DejaVuSans-54"/>
      </g>
     </g>
    </g>
    <g id="xtick_8">
     <g id="line2d_15">
      <path clip-path="url(#pd2948f2a6f)" d="M 408.51 448.56 
L 408.51 60.48 
" style="fill:none;stroke:#b0b0b0;stroke-linecap:square;stroke-width:0.8;"/>
     </g>
     <g id="line2d_16">
      <g>
       <use style="stroke:#000000;stroke-width:0.8;" x="408.51" xlink:href="#m84c288675f" y="448.56"/>
      </g>
     </g>
     <g id="text_8">
      <!-- 0.7 -->
      <defs>
       <path d="M 8.203125 72.90625 
L 55.078125 72.90625 
L 55.078125 68.703125 
L 28.609375 0 
L 18.3125 0 
L 43.21875 64.59375 
L 8.203125 64.59375 
z
" id="DejaVuSans-55"/>
      </defs>
      <g transform="translate(400.558438 463.158437)scale(0.1 -0.1)">
       <use xlink:href="#DejaVuSans-48"/>
       <use x="63.623047" xlink:href="#DejaVuSans-46"/>
       <use x="95.410156" xlink:href="#DejaVuSans-55"/>
      </g>
     </g>
    </g>
    <g id="xtick_9">
     <g id="line2d_17">
      <path clip-path="url(#pd2948f2a6f)" d="M 455.94 448.56 
L 455.94 60.48 
" style="fill:none;stroke:#b0b0b0;stroke-linecap:square;stroke-width:0.8;"/>
     </g>
     <g id="line2d_18">
      <g>
       <use style="stroke:#000000;stroke-width:0.8;" x="455.94" xlink:href="#m84c288675f" y="448.56"/>
      </g>
     </g>
     <g id="text_9">
      <!-- 0.8 -->
      <defs>
       <path d="M 31.78125 34.625 
Q 24.75 34.625 20.71875 30.859375 
Q 16.703125 27.09375 16.703125 20.515625 
Q 16.703125 13.921875 20.71875 10.15625 
Q 24.75 6.390625 31.78125 6.390625 
Q 38.8125 6.390625 42.859375 10.171875 
Q 46.921875 13.96875 46.921875 20.515625 
Q 46.921875 27.09375 42.890625 30.859375 
Q 38.875 34.625 31.78125 34.625 
z
M 21.921875 38.8125 
Q 15.578125 40.375 12.03125 44.71875 
Q 8.5 49.078125 8.5 55.328125 
Q 8.5 64.0625 14.71875 69.140625 
Q 20.953125 74.21875 31.78125 74.21875 
Q 42.671875 74.21875 48.875 69.140625 
Q 55.078125 64.0625 55.078125 55.328125 
Q 55.078125 49.078125 51.53125 44.71875 
Q 48 40.375 41.703125 38.8125 
Q 48.828125 37.15625 52.796875 32.3125 
Q 56.78125 27.484375 56.78125 20.515625 
Q 56.78125 9.90625 50.3125 4.234375 
Q 43.84375 -1.421875 31.78125 -1.421875 
Q 19.734375 -1.421875 13.25 4.234375 
Q 6.78125 9.90625 6.78125 20.515625 
Q 6.78125 27.484375 10.78125 32.3125 
Q 14.796875 37.15625 21.921875 38.8125 
z
M 18.3125 54.390625 
Q 18.3125 48.734375 21.84375 45.5625 
Q 25.390625 42.390625 31.78125 42.390625 
Q 38.140625 42.390625 41.71875 45.5625 
Q 45.3125 48.734375 45.3125 54.390625 
Q 45.3125 60.0625 41.71875 63.234375 
Q 38.140625 66.40625 31.78125 66.40625 
Q 25.390625 66.40625 21.84375 63.234375 
Q 18.3125 60.0625 18.3125 54.390625 
z
" id="DejaVuSans-56"/>
      </defs>
      <g transform="translate(447.988438 463.158437)scale(0.1 -0.1)">
       <use xlink:href="#DejaVuSans-48"/>
       <use x="63.623047" xlink:href="#DejaVuSans-46"/>
       <use x="95.410156" xlink:href="#DejaVuSans-56"/>
      </g>
     </g>
    </g>
    <g id="xtick_10">
     <g id="line2d_19">
      <path clip-path="url(#pd2948f2a6f)" d="M 503.37 448.56 
L 503.37 60.48 
" style="fill:none;stroke:#b0b0b0;stroke-linecap:square;stroke-width:0.8;"/>
     </g>
     <g id="line2d_20">
      <g>
       <use style="stroke:#000000;stroke-width:0.8;" x="503.37" xlink:href="#m84c288675f" y="448.56"/>
      </g>
     </g>
     <g id="text_10">
      <!-- 0.9 -->
      <defs>
       <path d="M 10.984375 1.515625 
L 10.984375 10.5 
Q 14.703125 8.734375 18.5 7.8125 
Q 22.3125 6.890625 25.984375 6.890625 
Q 35.75 6.890625 40.890625 13.453125 
Q 46.046875 20.015625 46.78125 33.40625 
Q 43.953125 29.203125 39.59375 26.953125 
Q 35.25 24.703125 29.984375 24.703125 
Q 19.046875 24.703125 12.671875 31.3125 
Q 6.296875 37.9375 6.296875 49.421875 
Q 6.296875 60.640625 12.9375 67.421875 
Q 19.578125 74.21875 30.609375 74.21875 
Q 43.265625 74.21875 49.921875 64.515625 
Q 56.59375 54.828125 56.59375 36.375 
Q 56.59375 19.140625 48.40625 8.859375 
Q 40.234375 -1.421875 26.421875 -1.421875 
Q 22.703125 -1.421875 18.890625 -0.6875 
Q 15.09375 0.046875 10.984375 1.515625 
z
M 30.609375 32.421875 
Q 37.25 32.421875 41.125 36.953125 
Q 45.015625 41.5 45.015625 49.421875 
Q 45.015625 57.28125 41.125 61.84375 
Q 37.25 66.40625 30.609375 66.40625 
Q 23.96875 66.40625 20.09375 61.84375 
Q 16.21875 57.28125 16.21875 49.421875 
Q 16.21875 41.5 20.09375 36.953125 
Q 23.96875 32.421875 30.609375 32.421875 
z
" id="DejaVuSans-57"/>
      </defs>
      <g transform="translate(495.418438 463.158437)scale(0.1 -0.1)">
       <use xlink:href="#DejaVuSans-48"/>
       <use x="63.623047" xlink:href="#DejaVuSans-46"/>
       <use x="95.410156" xlink:href="#DejaVuSans-57"/>
      </g>
     </g>
    </g>
    <g id="xtick_11">
     <g id="line2d_21">
      <path clip-path="url(#pd2948f2a6f)" d="M 550.8 448.56 
L 550.8 60.48 
" style="fill:none;stroke:#b0b0b0;stroke-linecap:square;stroke-width:0.8;"/>
     </g>
     <g id="line2d_22">
      <g>
       <use style="stroke:#000000;stroke-width:0.8;" x="550.8" xlink:href="#m84c288675f" y="448.56"/>
      </g>
     </g>
     <g id="text_11">
      <!-- 1.0 -->
      <g transform="translate(542.848438 463.158437)scale(0.1 -0.1)">
       <use xlink:href="#DejaVuSans-49"/>
       <use x="63.623047" xlink:href="#DejaVuSans-46"/>
       <use x="95.410156" xlink:href="#DejaVuSans-48"/>
      </g>
     </g>
    </g>
    <g id="text_12">
     <!-- 1-precision -->
     <defs>
      <path d="M 4.890625 31.390625 
L 31.203125 31.390625 
L 31.203125 23.390625 
L 4.890625 23.390625 
z
" id="DejaVuSans-45"/>
      <path d="M 18.109375 8.203125 
L 18.109375 -20.796875 
L 9.078125 -20.796875 
L 9.078125 54.6875 
L 18.109375 54.6875 
L 18.109375 46.390625 
Q 20.953125 51.265625 25.265625 53.625 
Q 29.59375 56 35.59375 56 
Q 45.5625 56 51.78125 48.09375 
Q 58.015625 40.1875 58.015625 27.296875 
Q 58.015625 14.40625 51.78125 6.484375 
Q 45.5625 -1.421875 35.59375 -1.421875 
Q 29.59375 -1.421875 25.265625 0.953125 
Q 20.953125 3.328125 18.109375 8.203125 
z
M 48.6875 27.296875 
Q 48.6875 37.203125 44.609375 42.84375 
Q 40.53125 48.484375 33.40625 48.484375 
Q 26.265625 48.484375 22.1875 42.84375 
Q 18.109375 37.203125 18.109375 27.296875 
Q 18.109375 17.390625 22.1875 11.75 
Q 26.265625 6.109375 33.40625 6.109375 
Q 40.53125 6.109375 44.609375 11.75 
Q 48.6875 17.390625 48.6875 27.296875 
z
" id="DejaVuSans-112"/>
      <path d="M 41.109375 46.296875 
Q 39.59375 47.171875 37.8125 47.578125 
Q 36.03125 48 33.890625 48 
Q 26.265625 48 22.1875 43.046875 
Q 18.109375 38.09375 18.109375 28.8125 
L 18.109375 0 
L 9.078125 0 
L 9.078125 54.6875 
L 18.109375 54.6875 
L 18.109375 46.1875 
Q 20.953125 51.171875 25.484375 53.578125 
Q 30.03125 56 36.53125 56 
Q 37.453125 56 38.578125 55.875 
Q 39.703125 55.765625 41.0625 55.515625 
z
" id="DejaVuSans-114"/>
      <path d="M 56.203125 29.59375 
L 56.203125 25.203125 
L 14.890625 25.203125 
Q 15.484375 15.921875 20.484375 11.0625 
Q 25.484375 6.203125 34.421875 6.203125 
Q 39.59375 6.203125 44.453125 7.46875 
Q 49.3125 8.734375 54.109375 11.28125 
L 54.109375 2.78125 
Q 49.265625 0.734375 44.1875 -0.34375 
Q 39.109375 -1.421875 33.890625 -1.421875 
Q 20.796875 -1.421875 13.15625 6.1875 
Q 5.515625 13.8125 5.515625 26.8125 
Q 5.515625 40.234375 12.765625 48.109375 
Q 20.015625 56 32.328125 56 
Q 43.359375 56 49.78125 48.890625 
Q 56.203125 41.796875 56.203125 29.59375 
z
M 47.21875 32.234375 
Q 47.125 39.59375 43.09375 43.984375 
Q 39.0625 48.390625 32.421875 48.390625 
Q 24.90625 48.390625 20.390625 44.140625 
Q 15.875 39.890625 15.1875 32.171875 
z
" id="DejaVuSans-101"/>
      <path d="M 48.78125 52.59375 
L 48.78125 44.1875 
Q 44.96875 46.296875 41.140625 47.34375 
Q 37.3125 48.390625 33.40625 48.390625 
Q 24.65625 48.390625 19.8125 42.84375 
Q 14.984375 37.3125 14.984375 27.296875 
Q 14.984375 17.28125 19.8125 11.734375 
Q 24.65625 6.203125 33.40625 6.203125 
Q 37.3125 6.203125 41.140625 7.25 
Q 44.96875 8.296875 48.78125 10.40625 
L 48.78125 2.09375 
Q 45.015625 0.34375 40.984375 -0.53125 
Q 36.96875 -1.421875 32.421875 -1.421875 
Q 20.0625 -1.421875 12.78125 6.34375 
Q 5.515625 14.109375 5.515625 27.296875 
Q 5.515625 40.671875 12.859375 48.328125 
Q 20.21875 56 33.015625 56 
Q 37.15625 56 41.109375 55.140625 
Q 45.0625 54.296875 48.78125 52.59375 
z
" id="DejaVuSans-99"/>
      <path d="M 9.421875 54.6875 
L 18.40625 54.6875 
L 18.40625 0 
L 9.421875 0 
z
M 9.421875 75.984375 
L 18.40625 75.984375 
L 18.40625 64.59375 
L 9.421875 64.59375 
z
" id="DejaVuSans-105"/>
      <path d="M 44.28125 53.078125 
L 44.28125 44.578125 
Q 40.484375 46.53125 36.375 47.5 
Q 32.28125 48.484375 27.875 48.484375 
Q 21.1875 48.484375 17.84375 46.4375 
Q 14.5 44.390625 14.5 40.28125 
Q 14.5 37.15625 16.890625 35.375 
Q 19.28125 33.59375 26.515625 31.984375 
L 29.59375 31.296875 
Q 39.15625 29.25 43.1875 25.515625 
Q 47.21875 21.78125 47.21875 15.09375 
Q 47.21875 7.46875 41.1875 3.015625 
Q 35.15625 -1.421875 24.609375 -1.421875 
Q 20.21875 -1.421875 15.453125 -0.5625 
Q 10.6875 0.296875 5.421875 2 
L 5.421875 11.28125 
Q 10.40625 8.6875 15.234375 7.390625 
Q 20.0625 6.109375 24.8125 6.109375 
Q 31.15625 6.109375 34.5625 8.28125 
Q 37.984375 10.453125 37.984375 14.40625 
Q 37.984375 18.0625 35.515625 20.015625 
Q 33.0625 21.96875 24.703125 23.78125 
L 21.578125 24.515625 
Q 13.234375 26.265625 9.515625 29.90625 
Q 5.8125 33.546875 5.8125 39.890625 
Q 5.8125 47.609375 11.28125 51.796875 
Q 16.75 56 26.8125 56 
Q 31.78125 56 36.171875 55.265625 
Q 40.578125 54.546875 44.28125 53.078125 
z
" id="DejaVuSans-115"/>
      <path d="M 30.609375 48.390625 
Q 23.390625 48.390625 19.1875 42.75 
Q 14.984375 37.109375 14.984375 27.296875 
Q 14.984375 17.484375 19.15625 11.84375 
Q 23.34375 6.203125 30.609375 6.203125 
Q 37.796875 6.203125 41.984375 11.859375 
Q 46.1875 17.53125 46.1875 27.296875 
Q 46.1875 37.015625 41.984375 42.703125 
Q 37.796875 48.390625 30.609375 48.390625 
z
M 30.609375 56 
Q 42.328125 56 49.015625 48.375 
Q 55.71875 40.765625 55.71875 27.296875 
Q 55.71875 13.875 49.015625 6.21875 
Q 42.328125 -1.421875 30.609375 -1.421875 
Q 18.84375 -1.421875 12.171875 6.21875 
Q 5.515625 13.875 5.515625 27.296875 
Q 5.515625 40.765625 12.171875 48.375 
Q 18.84375 56 30.609375 56 
z
" id="DejaVuSans-111"/>
      <path d="M 54.890625 33.015625 
L 54.890625 0 
L 45.90625 0 
L 45.90625 32.71875 
Q 45.90625 40.484375 42.875 44.328125 
Q 39.84375 48.1875 33.796875 48.1875 
Q 26.515625 48.1875 22.3125 43.546875 
Q 18.109375 38.921875 18.109375 30.90625 
L 18.109375 0 
L 9.078125 0 
L 9.078125 54.6875 
L 18.109375 54.6875 
L 18.109375 46.1875 
Q 21.34375 51.125 25.703125 53.5625 
Q 30.078125 56 35.796875 56 
Q 45.21875 56 50.046875 50.171875 
Q 54.890625 44.34375 54.890625 33.015625 
z
" id="DejaVuSans-110"/>
     </defs>
     <g transform="translate(286.110938 476.836563)scale(0.1 -0.1)">
      <use xlink:href="#DejaVuSans-49"/>
      <use x="63.623047" xlink:href="#DejaVuSans-45"/>
      <use x="99.707031" xlink:href="#DejaVuSans-112"/>
      <use x="163.183594" xlink:href="#DejaVuSans-114"/>
      <use x="202.046875" xlink:href="#DejaVuSans-101"/>
      <use x="263.570312" xlink:href="#DejaVuSans-99"/>
      <use x="318.550781" xlink:href="#DejaVuSans-105"/>
      <use x="346.333984" xlink:href="#DejaVuSans-115"/>
      <use x="398.433594" xlink:href="#DejaVuSans-105"/>
      <use x="426.216797" xlink:href="#DejaVuSans-111"/>
      <use x="487.398438" xlink:href="#DejaVuSans-110"/>
     </g>
    </g>
   </g>
   <g id="matplotlib.axis_2">
    <g id="ytick_1">
     <g id="line2d_23">
      <path clip-path="url(#pd2948f2a6f)" d="M 76.5 448.56 
L 550.8 448.56 
" style="fill:none;stroke:#b0b0b0;stroke-linecap:square;stroke-width:0.8;"/>
     </g>
     <g id="line2d_24">
      <defs>
       <path d="M 0 0 
L -3.5 0 
" id="m00ba683731" style="stroke:#000000;stroke-width:0.8;"/>
      </defs>
      <g>
       <use style="stroke:#000000;stroke-width:0.8;" x="76.5" xlink:href="#m00ba683731" y="448.56"/>
      </g>
     </g>
     <g id="text_13">
      <!-- 0.0 -->
      <g transform="translate(53.596875 452.359219)scale(0.1 -0.1)">
       <use xlink:href="#DejaVuSans-48"/>
       <use x="63.623047" xlink:href="#DejaVuSans-46"/>
       <use x="95.410156" xlink:href="#DejaVuSans-48"/>
      </g>
     </g>
    </g>
    <g id="ytick_2">
     <g id="line2d_25">
      <path clip-path="url(#pd2948f2a6f)" d="M 76.5 409.752 
L 550.8 409.752 
" style="fill:none;stroke:#b0b0b0;stroke-linecap:square;stroke-width:0.8;"/>
     </g>
     <g id="line2d_26">
      <g>
       <use style="stroke:#000000;stroke-width:0.8;" x="76.5" xlink:href="#m00ba683731" y="409.752"/>
      </g>
     </g>
     <g id="text_14">
      <!-- 0.1 -->
      <g transform="translate(53.596875 413.551219)scale(0.1 -0.1)">
       <use xlink:href="#DejaVuSans-48"/>
       <use x="63.623047" xlink:href="#DejaVuSans-46"/>
       <use x="95.410156" xlink:href="#DejaVuSans-49"/>
      </g>
     </g>
    </g>
    <g id="ytick_3">
     <g id="line2d_27">
      <path clip-path="url(#pd2948f2a6f)" d="M 76.5 370.944 
L 550.8 370.944 
" style="fill:none;stroke:#b0b0b0;stroke-linecap:square;stroke-width:0.8;"/>
     </g>
     <g id="line2d_28">
      <g>
       <use style="stroke:#000000;stroke-width:0.8;" x="76.5" xlink:href="#m00ba683731" y="370.944"/>
      </g>
     </g>
     <g id="text_15">
      <!-- 0.2 -->
      <g transform="translate(53.596875 374.743219)scale(0.1 -0.1)">
       <use xlink:href="#DejaVuSans-48"/>
       <use x="63.623047" xlink:href="#DejaVuSans-46"/>
       <use x="95.410156" xlink:href="#DejaVuSans-50"/>
      </g>
     </g>
    </g>
    <g id="ytick_4">
     <g id="line2d_29">
      <path clip-path="url(#pd2948f2a6f)" d="M 76.5 332.136 
L 550.8 332.136 
" style="fill:none;stroke:#b0b0b0;stroke-linecap:square;stroke-width:0.8;"/>
     </g>
     <g id="line2d_30">
      <g>
       <use style="stroke:#000000;stroke-width:0.8;" x="76.5" xlink:href="#m00ba683731" y="332.136"/>
      </g>
     </g>
     <g id="text_16">
      <!-- 0.3 -->
      <g transform="translate(53.596875 335.935219)scale(0.1 -0.1)">
       <use xlink:href="#DejaVuSans-48"/>
       <use x="63.623047" xlink:href="#DejaVuSans-46"/>
       <use x="95.410156" xlink:href="#DejaVuSans-51"/>
      </g>
     </g>
    </g>
    <g id="ytick_5">
     <g id="line2d_31">
      <path clip-path="url(#pd2948f2a6f)" d="M 76.5 293.328 
L 550.8 293.328 
" style="fill:none;stroke:#b0b0b0;stroke-linecap:square;stroke-width:0.8;"/>
     </g>
     <g id="line2d_32">
      <g>
       <use style="stroke:#000000;stroke-width:0.8;" x="76.5" xlink:href="#m00ba683731" y="293.328"/>
      </g>
     </g>
     <g id="text_17">
      <!-- 0.4 -->
      <g transform="translate(53.596875 297.127219)scale(0.1 -0.1)">
       <use xlink:href="#DejaVuSans-48"/>
       <use x="63.623047" xlink:href="#DejaVuSans-46"/>
       <use x="95.410156" xlink:href="#DejaVuSans-52"/>
      </g>
     </g>
    </g>
    <g id="ytick_6">
     <g id="line2d_33">
      <path clip-path="url(#pd2948f2a6f)" d="M 76.5 254.52 
L 550.8 254.52 
" style="fill:none;stroke:#b0b0b0;stroke-linecap:square;stroke-width:0.8;"/>
     </g>
     <g id="line2d_34">
      <g>
       <use style="stroke:#000000;stroke-width:0.8;" x="76.5" xlink:href="#m00ba683731" y="254.52"/>
      </g>
     </g>
     <g id="text_18">
      <!-- 0.5 -->
      <g transform="translate(53.596875 258.319219)scale(0.1 -0.1)">
       <use xlink:href="#DejaVuSans-48"/>
       <use x="63.623047" xlink:href="#DejaVuSans-46"/>
       <use x="95.410156" xlink:href="#DejaVuSans-53"/>
      </g>
     </g>
    </g>
    <g id="ytick_7">
     <g id="line2d_35">
      <path clip-path="url(#pd2948f2a6f)" d="M 76.5 215.712 
L 550.8 215.712 
" style="fill:none;stroke:#b0b0b0;stroke-linecap:square;stroke-width:0.8;"/>
     </g>
     <g id="line2d_36">
      <g>
       <use style="stroke:#000000;stroke-width:0.8;" x="76.5" xlink:href="#m00ba683731" y="215.712"/>
      </g>
     </g>
     <g id="text_19">
      <!-- 0.6 -->
      <g transform="translate(53.596875 219.511219)scale(0.1 -0.1)">
       <use xlink:href="#DejaVuSans-48"/>
       <use x="63.623047" xlink:href="#DejaVuSans-46"/>
       <use x="95.410156" xlink:href="#DejaVuSans-54"/>
      </g>
     </g>
    </g>
    <g id="ytick_8">
     <g id="line2d_37">
      <path clip-path="url(#pd2948f2a6f)" d="M 76.5 176.904 
L 550.8 176.904 
" style="fill:none;stroke:#b0b0b0;stroke-linecap:square;stroke-width:0.8;"/>
     </g>
     <g id="line2d_38">
      <g>
       <use style="stroke:#000000;stroke-width:0.8;" x="76.5" xlink:href="#m00ba683731" y="176.904"/>
      </g>
     </g>
     <g id="text_20">
      <!-- 0.7 -->
      <g transform="translate(53.596875 180.703219)scale(0.1 -0.1)">
       <use xlink:href="#DejaVuSans-48"/>
       <use x="63.623047" xlink:href="#DejaVuSans-46"/>
       <use x="95.410156" xlink:href="#DejaVuSans-55"/>
      </g>
     </g>
    </g>
    <g id="ytick_9">
     <g id="line2d_39">
      <path clip-path="url(#pd2948f2a6f)" d="M 76.5 138.096 
L 550.8 138.096 
" style="fill:none;stroke:#b0b0b0;stroke-linecap:square;stroke-width:0.8;"/>
     </g>
     <g id="line2d_40">
      <g>
       <use style="stroke:#000000;stroke-width:0.8;" x="76.5" xlink:href="#m00ba683731" y="138.096"/>
      </g>
     </g>
     <g id="text_21">
      <!-- 0.8 -->
      <g transform="translate(53.596875 141.895219)scale(0.1 -0.1)">
       <use xlink:href="#DejaVuSans-48"/>
       <use x="63.623047" xlink:href="#DejaVuSans-46"/>
       <use x="95.410156" xlink:href="#DejaVuSans-56"/>
      </g>
     </g>
    </g>
    <g id="ytick_10">
     <g id="line2d_41">
      <path clip-path="url(#pd2948f2a6f)" d="M 76.5 99.288 
L 550.8 99.288 
" style="fill:none;stroke:#b0b0b0;stroke-linecap:square;stroke-width:0.8;"/>
     </g>
     <g id="line2d_42">
      <g>
       <use style="stroke:#000000;stroke-width:0.8;" x="76.5" xlink:href="#m00ba683731" y="99.288"/>
      </g>
     </g>
     <g id="text_22">
      <!-- 0.9 -->
      <g transform="translate(53.596875 103.087219)scale(0.1 -0.1)">
       <use xlink:href="#DejaVuSans-48"/>
       <use x="63.623047" xlink:href="#DejaVuSans-46"/>
       <use x="95.410156" xlink:href="#DejaVuSans-57"/>
      </g>
     </g>
    </g>
    <g id="ytick_11">
     <g id="line2d_43">
      <path clip-path="url(#pd2948f2a6f)" d="M 76.5 60.48 
L 550.8 60.48 
" style="fill:none;stroke:#b0b0b0;stroke-linecap:square;stroke-width:0.8;"/>
     </g>
     <g id="line2d_44">
      <g>
       <use style="stroke:#000000;stroke-width:0.8;" x="76.5" xlink:href="#m00ba683731" y="60.48"/>
      </g>
     </g>
     <g id="text_23">
      <!-- 1.0 -->
      <g transform="translate(53.596875 64.279219)scale(0.1 -0.1)">
       <use xlink:href="#DejaVuSans-49"/>
       <use x="63.623047" xlink:href="#DejaVuSans-46"/>
       <use x="95.410156" xlink:href="#DejaVuSans-48"/>
      </g>
     </g>
    </g>
    <g id="text_24">
     <!-- #correct/971 -->
     <defs>
      <path d="M 51.125 44 
L 36.921875 44 
L 32.8125 27.6875 
L 47.125 27.6875 
z
M 43.796875 71.78125 
L 38.71875 51.515625 
L 52.984375 51.515625 
L 58.109375 71.78125 
L 65.921875 71.78125 
L 60.890625 51.515625 
L 76.125 51.515625 
L 76.125 44 
L 58.984375 44 
L 54.984375 27.6875 
L 70.515625 27.6875 
L 70.515625 20.21875 
L 53.078125 20.21875 
L 48 0 
L 40.1875 0 
L 45.21875 20.21875 
L 30.90625 20.21875 
L 25.875 0 
L 18.015625 0 
L 23.09375 20.21875 
L 7.71875 20.21875 
L 7.71875 27.6875 
L 24.90625 27.6875 
L 29 44 
L 13.28125 44 
L 13.28125 51.515625 
L 30.90625 51.515625 
L 35.890625 71.78125 
z
" id="DejaVuSans-35"/>
      <path d="M 18.3125 70.21875 
L 18.3125 54.6875 
L 36.8125 54.6875 
L 36.8125 47.703125 
L 18.3125 47.703125 
L 18.3125 18.015625 
Q 18.3125 11.328125 20.140625 9.421875 
Q 21.96875 7.515625 27.59375 7.515625 
L 36.8125 7.515625 
L 36.8125 0 
L 27.59375 0 
Q 17.1875 0 13.234375 3.875 
Q 9.28125 7.765625 9.28125 18.015625 
L 9.28125 47.703125 
L 2.6875 47.703125 
L 2.6875 54.6875 
L 9.28125 54.6875 
L 9.28125 70.21875 
z
" id="DejaVuSans-116"/>
      <path d="M 25.390625 72.90625 
L 33.6875 72.90625 
L 8.296875 -9.28125 
L 0 -9.28125 
z
" id="DejaVuSans-47"/>
     </defs>
     <g transform="translate(47.517187 287.443438)rotate(-90)scale(0.1 -0.1)">
      <use xlink:href="#DejaVuSans-35"/>
      <use x="83.789062" xlink:href="#DejaVuSans-99"/>
      <use x="138.769531" xlink:href="#DejaVuSans-111"/>
      <use x="199.951172" xlink:href="#DejaVuSans-114"/>
      <use x="239.314453" xlink:href="#DejaVuSans-114"/>
      <use x="278.177734" xlink:href="#DejaVuSans-101"/>
      <use x="339.701172" xlink:href="#DejaVuSans-99"/>
      <use x="394.681641" xlink:href="#DejaVuSans-116"/>
      <use x="433.890625" xlink:href="#DejaVuSans-47"/>
      <use x="467.582031" xlink:href="#DejaVuSans-57"/>
      <use x="531.205078" xlink:href="#DejaVuSans-55"/>
      <use x="594.828125" xlink:href="#DejaVuSans-49"/>
     </g>
    </g>
   </g>
   <g id="line2d_45">
    <path clip-path="url(#pd2948f2a6f)" d="M 76.5 448.16033 
L 76.5 407.393944 
L 81.060577 407.393944 
L 80.772973 404.596251 
L 84.969643 404.596251 
L 84.028571 399.000865 
L 83.632331 396.203172 
L 87.118657 396.203172 
L 86.9625 395.403831 
L 90.348175 395.403831 
L 89.148 390.208115 
L 88.74 388.209763 
L 94.626115 388.209763 
L 93.24 383.014047 
L 92.48764 379.816684 
L 95.048045 379.816684 
L 93.613918 373.821627 
L 93.1005 371.423605 
L 95.377612 371.423605 
L 95.191626 370.624264 
L 97.425 370.624264 
L 97.322927 370.224593 
L 101.704348 370.224593 
L 101.583173 369.824923 
L 103.732536 369.824923 
L 103.602857 369.425252 
L 105.722275 369.425252 
L 105.447887 368.625911 
L 107.528972 368.625911 
L 107.241667 367.826571 
L 109.285714 367.826571 
L 108.986301 367.02723 
L 110.994545 367.02723 
L 109.069957 361.831514 
L 110.957692 361.831514 
L 110.811064 361.431843 
L 112.675424 361.431843 
L 112.0725 359.833162 
L 113.892946 359.833162 
L 113.585185 359.033821 
L 115.377049 359.033821 
L 114.75 357.435139 
L 119.961753 357.435139 
L 119.28 355.836457 
L 120.965625 355.836457 
L 120.792607 355.436787 
L 124.113127 355.436787 
L 122.86015 352.639094 
L 124.462921 352.639094 
L 124.283955 352.239423 
L 127.443333 352.239423 
L 127.255351 351.839753 
L 128.8125 351.839753 
L 127.683453 349.44173 
L 129.2 349.44173 
L 128.824911 348.642389 
L 134.747368 348.642389 
L 134.543706 348.242719 
L 137.434375 348.242719 
L 137.014138 347.443378 
L 141.250853 347.443378 
L 140.594595 346.244367 
L 141.975758 346.244367 
L 141.75604 345.844696 
L 144.483 345.844696 
L 144.257143 345.445026 
L 146.940594 345.445026 
L 146.708882 345.045355 
L 148.03377 345.045355 
L 147.337013 343.846344 
L 149.94 343.846344 
L 149.703859 343.446674 
L 152.266773 343.446674 
L 151.547468 342.247662 
L 152.80694 342.247662 
L 152.566981 341.847992 
L 161.144308 341.847992 
L 160.884663 341.448321 
L 164.440122 341.448321 
L 164.173636 341.048651 
L 171.077679 341.048651 
L 170.797033 340.64898 
L 171.921302 340.64898 
L 171.639823 340.24931 
L 174.965789 340.24931 
L 174.678717 339.84964 
L 175.772093 339.84964 
L 175.198266 339.050299 
L 176.280692 339.050299 
L 175.993966 338.650628 
L 177.067908 338.650628 
L 176.780571 338.250958 
L 178.905682 338.250958 
L 178.615581 337.851287 
L 184.835933 337.851287 
L 184.535 337.451617 
L 187.561983 337.451617 
L 187.256868 337.051946 
L 188.252877 337.051946 
L 187.643869 336.252606 
L 189.612195 336.252606 
L 188.7 335.053594 
L 191.5968 335.053594 
L 191.290691 334.653924 
L 192.244297 334.653924 
L 191.938095 334.254253 
L 193.826842 334.254253 
L 193.518898 333.854583 
L 196.310156 333.854583 
L 195.689378 333.055242 
L 198.428021 333.055242 
L 198.115385 332.655572 
L 199.017391 332.655572 
L 198.704847 332.255901 
L 204.881955 332.255901 
L 204.561 331.856231 
L 207.989109 331.856231 
L 207.341379 331.05689 
L 208.185258 331.05689 
L 207.8625 330.657219 
L 208.700978 330.657219 
L 208.378537 330.257549 
L 214.126619 330.257549 
L 213.797368 329.857878 
L 231.373469 329.857878 
L 231.023077 329.458208 
L 232.463514 329.458208 
L 232.113034 329.058538 
L 232.827578 329.058538 
L 231.783073 327.859526 
L 232.492 327.859526 
L 232.14612 327.459856 
L 234.251762 327.459856 
L 233.216193 326.260844 
L 237.331749 326.260844 
L 236.985129 325.861174 
L 239.667308 325.861174 
L 239.319403 325.461504 
L 243.253895 325.461504 
L 242.903571 325.061833 
L 254.12247 325.061833 
L 253.763636 324.662163 
L 257.905578 324.662163 
L 257.54493 324.262492 
L 259.283597 324.262492 
L 258.923077 323.862822 
L 260.64 323.862822 
L 260.279648 323.463151 
L 262.536117 323.463151 
L 261.816441 322.663811 
L 268.371834 322.663811 
L 268.009811 322.26414 
L 268.542373 322.26414 
L 268.181391 321.86447 
L 273.395756 321.86447 
L 273.033149 321.464799 
L 274.559341 321.464799 
L 274.197258 321.065129 
L 276.205263 321.065129 
L 275.843478 320.665458 
L 276.340687 320.665458 
L 275.620541 319.866117 
L 276.608618 319.866117 
L 276.25 319.466447 
L 277.718182 319.466447 
L 276.293628 317.867765 
L 277.261905 317.867765 
L 276.556239 317.068424 
L 278.470681 317.068424 
L 277.768174 316.269083 
L 280.121897 316.269083 
L 279.771429 315.869413 
L 282.997959 315.869413 
L 282.297966 315.070072 
L 282.752284 315.070072 
L 282.403885 314.670402 
L 284.651759 314.670402 
L 284.303679 314.270731 
L 286.950993 314.270731 
L 286.60314 313.871061 
L 287.039109 313.871061 
L 286.692257 313.47139 
L 287.991148 313.47139 
L 287.645008 313.07172 
L 288.075 313.07172 
L 287.729853 312.672049 
L 294.013376 312.672049 
L 293.667568 312.272379 
L 294.888133 312.272379 
L 294.543128 311.872709 
L 294.947319 311.872709 
L 294.603307 311.473038 
L 300.129892 311.473038 
L 299.785846 311.073368 
L 300.555828 311.073368 
L 300.212711 310.673697 
L 300.595872 310.673697 
L 300.25374 310.274027 
L 300.635671 310.274027 
L 300.294521 309.874356 
L 300.675228 309.874356 
L 299.995909 309.075015 
L 304.107452 309.075015 
L 303.76875 308.675345 
L 308.456934 308.675345 
L 308.118805 308.275675 
L 309.175472 308.275675 
L 308.838261 307.876004 
L 310.924138 307.876004 
L 310.587805 307.476334 
L 310.931948 307.476334 
L 310.596567 307.076663 
L 314.982303 307.076663 
L 314.647826 306.676993 
L 314.978571 306.676993 
L 314.645035 306.277322 
L 319.813953 306.277322 
L 319.481557 305.877652 
L 321.982297 305.877652 
L 321.651012 305.477981 
L 327.966142 305.477981 
L 327.636566 305.078311 
L 334.716624 305.078311 
L 334.062911 304.27897 
L 334.88285 304.27897 
L 334.557431 303.8793 
L 338.566873 303.8793 
L 338.243333 303.479629 
L 338.766872 303.479629 
L 338.44428 303.079959 
L 338.965399 303.079959 
L 338.64375 302.680288 
L 339.420879 302.680288 
L 339.100244 302.280618 
L 340.383273 302.280618 
L 340.063801 301.880947 
L 344.06829 301.880947 
L 343.75089 301.481277 
L 347.843721 301.481277 
L 347.528571 301.081607 
L 349.399885 301.081607 
L 349.086207 300.681936 
L 351.378409 300.681936 
L 351.066402 300.282266 
L 357.431538 300.282266 
L 357.123161 299.882595 
L 357.335526 299.882595 
L 357.02793 299.482925 
L 358.293036 299.482925 
L 357.986739 299.083254 
L 359.028973 299.083254 
L 358.723866 298.683584 
L 362.784672 298.683584 
L 362.482365 298.283913 
L 363.864151 298.283913 
L 363.563246 297.884243 
L 367.404 297.884243 
L 367.105943 297.484573 
L 367.855714 297.484573 
L 367.558716 297.084902 
L 369.224545 297.084902 
L 368.929162 296.685232 
L 370.925749 296.685232 
L 370.632203 296.285561 
L 371.347865 296.285561 
L 371.055357 295.885891 
L 371.942547 295.885891 
L 371.651183 295.48622 
L 372.179646 295.48622 
L 371.889194 295.08655 
L 372.064769 295.08655 
L 371.775 294.68688 
L 375.217788 294.68688 
L 374.930836 294.287209 
L 376.272069 294.287209 
L 375.417205 293.088198 
L 375.75 293.088198 
L 375.466351 292.688527 
L 377.762582 292.688527 
L 377.481028 292.288857 
L 378.287163 292.288857 
L 378.006691 291.889186 
L 380.226055 291.889186 
L 379.947663 291.489516 
L 381.191356 291.489516 
L 380.914364 291.089846 
L 381.222686 291.089846 
L 380.946419 290.690175 
L 381.100272 290.690175 
L 380.824615 290.290505 
L 381.284838 290.290505 
L 381.010009 289.890834 
L 381.772083 289.890834 
L 381.498296 289.491164 
L 386.364983 289.491164 
L 386.0953 289.091493 
L 387.375389 289.091493 
L 387.107161 288.691823 
L 387.950215 288.691823 
L 387.683105 288.292152 
L 388.932511 288.292152 
L 388.666837 287.892482 
L 390.574286 287.892482 
L 390.310579 287.492812 
L 390.445218 287.492812 
L 390.182062 287.093141 
L 390.450879 287.093141 
L 389.926316 286.2938 
L 390.861628 286.2938 
L 390.600747 285.89413 
L 391.52599 285.89413 
L 391.266282 285.494459 
L 391.397694 285.494459 
L 395.116653 285.494459 
L 394.860531 285.094789 
L 394.985783 285.094789 
L 395.360337 285.094789 
L 395.105044 284.695118 
L 395.2296 284.695118 
L 397.558865 284.695118 
L 397.306063 284.295448 
L 397.426829 284.295448 
L 399.802866 284.295448 
L 399.552632 283.895778 
L 399.669606 283.895778 
L 401.516883 283.895778 
L 401.268779 283.496107 
L 401.382838 283.496107 
L 401.837338 283.496107 
L 401.590122 283.096437 
L 401.703417 283.096437 
L 403.160752 283.096437 
L 402.915327 282.696766 
L 403.026351 282.696766 
L 403.137209 282.696766 
L 402.892354 282.297096 
L 403.003146 282.297096 
L 403.992857 282.297096 
L 403.749368 281.897425 
L 403.858618 281.897425 
L 406.748216 281.897425 
L 406.50786 281.497755 
L 406.6128 281.497755 
L 409.69153 281.497755 
L 409.454552 281.098084 
L 409.555011 281.098084 
L 410.452754 281.098084 
L 410.217078 280.698414 
L 410.31622 280.698414 
L 411.883682 280.698414 
L 411.649965 280.298744 
L 411.746866 280.298744 
L 412.612941 280.298744 
L 412.380498 279.899073 
L 412.476158 279.899073 
L 415.651722 279.899073 
L 415.422874 279.499403 
L 415.51416 279.499403 
L 415.787281 279.499403 
L 415.559112 279.099732 
L 415.65 279.099732 
L 416.282809 279.099732 
L 416.055682 278.700062 
L 416.145691 278.700062 
L 416.415 278.700062 
L 416.188541 278.300391 
L 416.278162 278.300391 
L 416.813395 278.300391 
L 416.587873 277.900721 
L 416.676755 277.900721 
L 417.996 277.900721 
L 417.772215 277.50105 
L 417.859332 277.50105 
L 419.237848 277.50105 
L 419.015868 277.10138 
L 419.101165 277.10138 
L 419.695168 277.10138 
L 419.474179 276.70171 
L 419.558687 276.70171 
L 421.226302 276.70171 
L 421.007429 276.302039 
L 421.089784 276.302039 
L 421.744886 276.302039 
L 421.527066 275.902369 
L 421.608575 275.902369 
L 422.418045 275.902369 
L 422.065666 275.103028 
L 424.977139 275.103028 
L 424.764264 274.703357 
L 424.841209 274.703357 
L 425.681443 274.703357 
L 425.469818 274.303687 
L 425.54573 274.303687 
L 426.224819 274.303687 
L 426.014269 273.904016 
L 426.08935 273.904016 
L 426.164342 273.904016 
L 425.954207 273.504346 
L 426.029189 273.504346 
L 428.020213 273.504346 
L 427.812581 273.104676 
L 427.885183 273.104676 
L 429.248511 273.104676 
L 429.042707 272.705005 
L 429.113703 272.705005 
L 429.889224 272.705005 
L 429.684598 272.305335 
L 429.754688 272.305335 
L 433.224789 272.305335 
L 433.024382 271.905664 
L 433.090511 271.905664 
L 433.48573 271.905664 
L 433.286074 271.505994 
L 433.351761 271.505994 
L 435.034215 271.505994 
L 434.836784 271.106323 
L 434.900605 271.106323 
L 435.471851 271.106323 
L 435.275369 270.706653 
L 435.338567 270.706653 
L 435.527744 270.706653 
L 435.331769 270.306982 
L 435.394763 270.306982 
L 435.708705 270.306982 
L 435.318261 269.507642 
L 435.380989 269.507642 
L 436.252075 269.507642 
L 436.058244 269.107971 
L 436.120032 269.107971 
L 439.882969 269.107971 
L 439.693805 268.708301 
L 439.80936 268.708301 
L 440.497674 268.708301 
L 440.309659 268.30863 
L 440.423684 268.30863 
L 440.877441 268.30863 
L 440.690293 267.90896 
L 440.803284 267.90896 
L 442.086207 267.90896 
L 441.900912 267.509289 
L 442.01119 267.509289 
L 442.504688 267.509289 
L 442.136103 266.709949 
L 442.245423 266.709949 
L 443.273094 266.709949 
L 443.090438 266.310278 
L 443.197612 266.310278 
L 444.728004 266.310278 
L 444.5475 265.910608 
L 444.651567 265.910608 
L 446.790835 265.910608 
L 446.613237 265.510937 
L 446.713081 265.510937 
L 447.896447 265.510937 
L 447.720597 265.111267 
L 447.818117 265.111267 
L 450.01125 265.111267 
L 449.838408 264.711596 
L 449.931761 264.711596 
L 452.210755 264.711596 
L 452.041057 264.311926 
L 452.13019 264.311926 
L 457.158758 264.311926 
L 456.995805 263.912255 
L 457.076048 263.912255 
L 459.762775 263.912255 
L 459.603613 263.512585 
L 459.717088 263.512585 
L 464.512809 263.512585 
L 464.360408 263.112915 
L 464.462142 263.112915 
L 468.096054 263.112915 
L 467.948948 262.713244 
L 468.042214 262.713244 
L 468.780848 262.713244 
L 468.635019 262.313574 
L 468.72655 262.313574 
L 470.602685 262.313574 
L 470.459739 261.913903 
L 470.576132 261.913903 
L 471.296016 261.913903 
L 471.15436 261.514233 
L 471.268506 261.514233 
L 479.288273 261.514233 
L 479.158551 261.114562 
L 479.27373 261.114562 
L 482.291623 261.114562 
L 482.291623 261.114562 
" style="fill:none;stroke:#1f77b4;stroke-linecap:square;stroke-width:2;"/>
   </g>
   <g id="line2d_46">
    <path clip-path="url(#pd2948f2a6f)" d="M 76.5 448.16033 
L 76.5 428.576478 
L 85.8 428.576478 
L 84.821053 426.178455 
L 84.028571 423.780433 
L 91.321875 423.780433 
L 90.658209 422.581421 
L 97.425 422.581421 
L 97.121739 422.181751 
L 103.602857 422.181751 
L 102.137838 420.583069 
L 113.944737 420.583069 
L 113.458442 420.183399 
L 119.065385 420.183399 
L 118.526582 419.783728 
L 129.2 419.783728 
L 126.72 418.185046 
L 131.651163 418.185046 
L 129.792135 416.986035 
L 134.47 416.986035 
L 132.6 415.787024 
L 137.048936 415.787024 
L 135.176289 414.588012 
L 139.417347 414.588012 
L 138.781818 414.188342 
L 142.902 414.188342 
L 141.6 413.389001 
L 145.572816 413.389001 
L 141.770642 410.990978 
L 149.140541 410.990978 
L 148.491964 410.591308 
L 155.55 410.591308 
L 152.870339 408.992626 
L 156.214286 408.992626 
L 154.896694 408.193285 
L 158.141803 408.193285 
L 156.1824 406.994274 
L 159.314286 406.994274 
L 158.020313 406.194933 
L 164.063077 406.194933 
L 163.394656 405.795263 
L 166.329545 405.795263 
L 165.654135 405.395592 
L 168.528358 405.395592 
L 165.86087 403.79691 
L 168.630216 403.79691 
L 165.43125 401.798558 
L 170.710274 401.798558 
L 169.437162 400.999217 
L 179.473026 400.999217 
L 178.135714 400.199876 
L 180.54 400.199876 
L 179.873077 399.800206 
L 191.392547 399.800206 
L 190.683333 399.400536 
L 195.075 399.400536 
L 194.356364 399.000865 
L 196.503614 399.000865 
L 195.075 398.201524 
L 207.341379 398.201524 
L 205.854545 397.402183 
L 213.52 397.402183 
L 212.762983 397.002513 
L 214.62033 397.002513 
L 213.865574 396.602842 
L 215.696739 396.602842 
L 214.2 395.803502 
L 217.780851 395.803502 
L 216.293684 395.004161 
L 221.493264 395.004161 
L 220.006154 394.20482 
L 223.364467 394.20482 
L 222.622727 393.805149 
L 230.705911 393.805149 
L 229.95 393.405479 
L 240.594313 393.405479 
L 239.820283 393.005808 
L 241.280282 393.005808 
L 240.51028 392.606138 
L 241.953488 392.606138 
L 241.1875 392.206468 
L 242.614286 392.206468 
L 238.872973 390.208115 
L 247.081579 390.208115 
L 245.598261 389.408774 
L 248.22931 389.408774 
L 246.761538 388.609434 
L 248.055319 388.609434 
L 247.32839 388.209763 
L 248.608861 388.209763 
L 247.885714 387.810093 
L 249.153138 387.810093 
L 248.43375 387.410422 
L 249.688382 387.410422 
L 248.972727 387.010752 
L 256.275 387.010752 
L 255.553012 386.611081 
L 262.5 386.611081 
L 261.773438 386.211411 
L 262.898054 386.211411 
L 261.458687 385.41207 
L 264.771756 385.41207 
L 264.055894 385.0124 
L 266.22 385.0124 
L 265.506767 384.612729 
L 267.635821 384.612729 
L 266.925279 384.213059 
L 276.115468 384.213059 
L 275.4 383.813388 
L 276.383571 383.813388 
L 275.672242 383.413718 
L 276.647872 383.413718 
L 275.940636 383.014047 
L 287.121356 383.014047 
L 286.409797 382.614377 
L 291.662583 382.614377 
L 290.952475 382.214706 
L 297.636656 382.214706 
L 296.927885 381.815036 
L 301.717925 381.815036 
L 301.011912 381.415366 
L 304.105263 381.415366 
L 303.402778 381.015695 
L 305.672477 381.015695 
L 304.97378 380.616025 
L 309.38982 380.616025 
L 308.003571 379.816684 
L 319.696317 379.816684 
L 319.009322 379.417013 
L 321.599162 379.417013 
L 320.916435 379.017343 
L 328.95 379.017343 
L 327.6 378.218002 
L 336.756923 378.218002 
L 336.091304 377.818332 
L 336.639031 377.818332 
L 335.977099 377.418661 
L 342.855665 377.418661 
L 340.901956 376.21965 
L 344.433894 376.21965 
L 343.791367 375.819979 
L 344.286603 375.819979 
L 343.647494 375.420309 
L 344.140714 375.420309 
L 343.504988 375.020639 
L 346.417799 375.020639 
L 345.78715 374.620968 
L 348.154503 374.620968 
L 347.528571 374.221298 
L 350.755102 374.221298 
L 350.134615 373.821627 
L 352.379195 373.821627 
L 351.150334 373.022286 
L 351.594 373.022286 
L 350.984035 372.622616 
L 351.426106 372.622616 
L 350.819205 372.222945 
L 351.259692 372.222945 
L 350.655824 371.823275 
L 353.260738 371.823275 
L 352.661688 371.423605 
L 353.94 371.423605 
L 353.344635 371.023934 
L 359.89917 371.023934 
L 359.312422 370.624264 
L 359.708058 370.624264 
L 359.124124 370.224593 
L 363.752113 370.224593 
L 362.600802 369.425252 
L 364.097416 369.425252 
L 363.526786 369.025582 
L 363.897624 369.025582 
L 363.329644 368.625911 
L 364.434578 368.625911 
L 363.87 368.226241 
L 365.324708 368.226241 
L 364.763883 367.826571 
L 369.344318 367.826571 
L 368.790737 367.4269 
L 374.780073 367.4269 
L 374.235766 367.02723 
L 376.148014 367.02723 
L 375.608108 366.627559 
L 381.111518 366.627559 
L 380.580836 366.227889 
L 384.066553 366.227889 
L 382.5 365.028877 
L 387.221287 365.028877 
L 386.70939 364.629207 
L 387.248276 364.629207 
L 386.738852 364.229537 
L 387.807655 364.229537 
L 387.301463 363.829866 
L 389.659615 363.829866 
L 389.15856 363.430196 
L 396.797104 363.430196 
L 396.309589 363.030525 
L 398.16812 363.030525 
L 397.685135 362.630855 
L 409.951243 362.630855 
L 409.49131 362.231184 
L 411.413878 362.231184 
L 410.958832 361.831514 
L 412.276312 361.831514 
L 411.374899 361.032173 
L 417.116988 361.032173 
L 416.679177 360.632503 
L 417.365217 360.632503 
L 416.929885 360.232832 
L 417.44084 360.232832 
L 417.007624 359.833162 
L 417.684197 359.833162 
L 417.253409 359.433491 
L 423.673918 359.433491 
L 423.257143 359.033821 
L 423.410072 359.033821 
L 426.684112 359.033821 
L 426.275496 358.63415 
L 426.420629 358.63415 
L 427.711765 358.63415 
L 427.307143 358.23448 
L 427.449252 358.23448 
L 428.014433 358.23448 
L 427.612243 357.834809 
L 427.753029 357.834809 
L 432.094267 357.834809 
L 431.702643 357.435139 
L 431.833663 357.435139 
L 432.225 357.435139 
L 431.835378 357.035469 
L 431.965536 357.035469 
L 440.97725 357.035469 
L 440.609091 356.635798 
L 440.720283 356.635798 
L 442.469315 356.635798 
L 441.851881 355.836457 
L 446.794707 355.836457 
L 446.445042 355.436787 
L 446.543491 355.436787 
L 447.22746 355.436787 
L 446.533863 354.637446 
L 446.631308 354.637446 
L 446.922554 354.637446 
L 446.577654 354.237775 
L 446.674605 354.237775 
L 447.348244 354.237775 
L 447.005817 353.838105 
L 447.101568 353.838105 
L 450.434732 353.838105 
L 450.10116 353.438435 
L 450.190909 353.438435 
L 451.079682 353.438435 
L 450.749073 353.038764 
L 450.837302 353.038764 
L 452.569757 353.038764 
L 452.244156 352.639094 
L 452.329412 352.639094 
L 453.341096 352.639094 
L 453.018734 352.239423 
L 453.102308 352.239423 
L 453.848092 352.239423 
L 453.528305 351.839753 
L 453.610669 351.839753 
L 455.1495 351.839753 
L 454.834221 351.440082 
L 454.91406 351.440082 
L 455.23209 351.440082 
L 454.91831 351.040412 
L 454.997682 351.040412 
L 456.481174 351.040412 
L 456.171743 350.640742 
L 456.248739 350.640742 
L 457.011864 350.640742 
L 456.705 350.241071 
L 456.780822 350.241071 
L 457.532374 350.241071 
L 457.228035 349.841401 
L 457.302713 349.841401 
L 457.674324 349.841401 
L 457.371565 349.44173 
L 457.445714 349.44173 
L 457.814704 349.44173 
L 457.513507 349.04206 
L 457.587135 349.04206 
L 457.660647 349.04206 
L 457.360284 348.642389 
L 457.433858 348.642389 
L 458.667133 348.642389 
L 458.370419 348.242719 
L 458.442126 348.242719 
L 464.155677 348.242719 
L 463.873745 347.843048 
L 464 347.843048 
L 468.199032 347.843048 
L 467.928522 347.443378 
L 468.042828 347.443378 
L 468.270495 347.443378 
L 468.001237 347.043708 
L 468.114894 347.043708 
L 468.846122 347.043708 
L 468.579402 346.644037 
L 468.691039 346.644037 
L 468.857927 346.644037 
L 468.592282 346.244367 
L 468.703448 346.244367 
L 469.582074 346.244367 
L 469.319318 345.844696 
L 469.428104 345.844696 
L 471.28591 345.844696 
L 471.028553 345.445026 
L 471.132422 345.445026 
L 473.546591 345.445026 
L 473.296088 345.045355 
L 473.393762 345.045355 
L 473.830263 345.045355 
L 473.581465 344.645685 
L 473.678049 344.645685 
L 474.157365 344.645685 
L 473.910373 344.246014 
L 474.005769 344.246014 
L 476.894149 344.246014 
L 476.655251 343.846344 
L 476.743623 343.846344 
L 480.193977 343.846344 
L 479.964736 343.446674 
L 480.085204 343.446674 
L 481.228946 343.446674 
L 480.777994 342.647333 
L 480.894828 342.647333 
L 484.473087 342.647333 
L 484.257911 342.247662 
L 484.363033 342.247662 
L 486.887234 342.247662 
L 486.679443 341.847992 
L 486.776694 341.847992 
L 488.995168 341.847992 
L 488.793951 341.448321 
L 488.914703 341.448321 
L 489.48191 341.448321 
L 489.282787 341.048651 
L 489.401203 341.048651 
L 489.46024 341.048651 
L 489.261797 340.64898 
L 489.379856 340.64898 
L 490.705678 340.64898 
L 490.511398 340.24931 
L 490.624298 340.24931 
L 492.161633 340.24931 
L 491.972093 339.84964 
L 492.079199 339.84964 
L 493 339.84964 
L 492.81348 339.449969 
L 492.917166 339.449969 
L 493.783752 339.449969 
L 493.600088 339.050299 
L 493.700615 339.050299 
L 494.123942 339.050299 
L 493.76 338.250958 
L 493.859243 338.250958 
L 494.203891 338.250958 
L 494.023379 337.851287 
L 494.121355 337.851287 
L 498.289568 337.851287 
L 498.121055 337.451617 
L 498.226077 337.451617 
L 499.574126 337.451617 
L 499.409825 337.051946 
L 499.529291 337.051946 
L 500.939525 337.051946 
L 500.779661 336.652276 
L 500.892446 336.652276 
L 503.251128 336.652276 
L 503.098389 336.252606 
L 503.200607 336.252606 
L 503.605135 336.252606 
L 503.453947 335.852935 
L 503.570975 335.852935 
L 505.367731 335.852935 
L 505.222105 335.453265 
L 505.330183 335.453265 
L 506.265528 335.453265 
L 506.122985 335.053594 
L 506.226473 335.053594 
L 506.635672 335.053594 
L 506.49469 334.653924 
L 506.610559 334.653924 
L 507.096314 334.653924 
L 506.957143 334.254253 
L 507.070213 334.254253 
L 508.607216 334.254253 
L 508.472854 333.854583 
L 508.577885 333.854583 
L 508.590977 333.854583 
L 508.457037 333.454912 
L 508.561781 333.454912 
L 508.73089 333.454912 
L 508.73089 333.454912 
" style="fill:none;stroke:#ff7f0e;stroke-linecap:square;stroke-width:2;"/>
   </g>
   <g id="line2d_47">
    <path clip-path="url(#pd2948f2a6f)" d="M 76.5 448.16033 
L 76.5 415.787024 
L 82.214458 415.787024 
L 82.015116 414.588012 
L 87.403448 414.588012 
L 86.591489 411.790319 
L 91.477895 411.790319 
L 91.019388 410.591308 
L 100.215 410.591308 
L 98.458333 407.393944 
L 98.256881 406.994274 
L 102.370909 406.994274 
L 100.616949 403.79691 
L 100.414286 403.39724 
L 104.1675 403.39724 
L 102.64252 400.599547 
L 109.590698 400.599547 
L 109.085496 399.800206 
L 115.72782 399.800206 
L 115.146667 399.000865 
L 118.35 399.000865 
L 117.446763 397.801854 
L 120.542143 397.801854 
L 120.229787 397.402183 
L 123.261972 397.402183 
L 122.294483 396.203172 
L 125.229452 396.203172 
L 124.570946 395.403831 
L 127.431544 395.403831 
L 127.092 395.004161 
L 129.898013 395.004161 
L 129.546711 394.60449 
L 132.3 394.60449 
L 129.527329 391.407127 
L 129.2 391.007456 
L 131.786503 391.007456 
L 131.44939 390.607786 
L 136.501807 390.607786 
L 136.142515 390.208115 
L 143.46 390.208115 
L 142.681395 389.408774 
L 149.677714 389.408774 
L 148.850847 388.609434 
L 151.108989 388.609434 
L 149.070492 386.611081 
L 151.253804 386.611081 
L 150.84973 386.211411 
L 153 386.211411 
L 151.785714 385.0124 
L 153.885789 385.0124 
L 153.480628 384.612729 
L 155.55 384.612729 
L 154.333846 383.413718 
L 156.356633 383.413718 
L 155.951269 383.014047 
L 157.945455 383.014047 
L 155.55 380.616025 
L 157.478049 380.616025 
L 157.084951 380.216354 
L 158.986957 380.216354 
L 158.590385 379.816684 
L 160.466986 379.816684 
L 160.067143 379.417013 
L 161.918957 379.417013 
L 160.721495 378.218002 
L 166.114286 378.218002 
L 165.703211 377.818332 
L 169.204091 377.818332 
L 167.956951 376.61932 
L 171.36 376.61932 
L 170.940265 376.21965 
L 172.613656 376.21965 
L 172.192105 375.819979 
L 177.109091 375.819979 
L 176.675431 375.420309 
L 178.281116 375.420309 
L 177.846154 375.020639 
L 181.00678 375.020639 
L 180.565823 374.620968 
L 182.121429 374.620968 
L 181.679498 374.221298 
L 183.2175 374.221298 
L 182.774689 373.821627 
L 185.803704 373.821627 
L 184.033603 372.222945 
L 185.5125 372.222945 
L 184.209562 371.023934 
L 185.664286 371.023934 
L 184.38 369.824923 
L 187.231518 369.824923 
L 186.802326 369.425252 
L 189.602308 369.425252 
L 189.168966 369.025582 
L 193.278409 369.025582 
L 192.837736 368.625911 
L 195.519101 368.625911 
L 195.075 368.226241 
L 197.71 368.226241 
L 196.81875 367.4269 
L 200.680364 367.4269 
L 200.230435 367.02723 
L 201.496029 367.02723 
L 201.046403 366.627559 
L 202.3 366.627559 
L 201.850714 366.227889 
L 206.765493 366.227889 
L 206.308421 365.828218 
L 209.896875 365.828218 
L 209.435294 365.428548 
L 212.942466 365.428548 
L 212.014286 364.629207 
L 216.561745 364.629207 
L 216.093311 364.229537 
L 219.418212 364.229537 
L 218.477961 363.430196 
L 221.725407 363.430196 
L 221.253896 363.030525 
L 223.38 363.030525 
L 222.907717 362.630855 
L 225.002875 362.630855 
L 224.529936 362.231184 
L 228.633962 362.231184 
L 228.157053 361.831514 
L 229.165313 361.831514 
L 228.68972 361.431843 
L 229.690062 361.431843 
L 228.744444 360.632503 
L 233.638906 360.632503 
L 233.162727 360.232832 
L 239.760534 360.232832 
L 239.277515 359.833162 
L 241.11 359.833162 
L 240.627273 359.433491 
L 241.534211 359.433491 
L 241.053061 359.033821 
L 244.623631 359.033821 
L 244.140517 358.63415 
L 251.871429 358.63415 
L 251.381564 358.23448 
L 253.045 358.23448 
L 252.555956 357.834809 
L 255.824384 357.834809 
L 255.334426 357.435139 
L 256.940217 357.435139 
L 256.45122 357.035469 
L 259.607775 357.035469 
L 259.118182 356.635798 
L 260.669681 356.635798 
L 260.181167 356.236128 
L 260.95 356.236128 
L 260.463325 355.836457 
L 261.987402 355.836457 
L 261.501832 355.436787 
L 263.756104 355.436787 
L 263.270984 355.037116 
L 264.013953 355.037116 
L 263.53067 354.637446 
L 273.535075 354.637446 
L 273.046154 354.237775 
L 274.417778 354.237775 
L 273.930296 353.838105 
L 274.610565 353.838105 
L 273.641809 353.038764 
L 279.60933 353.038764 
L 279.124582 352.639094 
L 280.415202 352.639094 
L 279.931991 352.239423 
L 287.421429 352.239423 
L 286.936552 351.839753 
L 292.285135 351.839753 
L 291.317489 351.040412 
L 294.194235 351.040412 
L 293.712611 350.640742 
L 295.407692 350.640742 
L 294.927632 350.241071 
L 300.954604 350.241071 
L 300.475 349.841401 
L 305.198113 349.841401 
L 304.719665 349.44173 
L 308.77037 349.44173 
L 308.293429 349.04206 
L 309.778163 349.04206 
L 309.303055 348.642389 
L 309.793902 348.642389 
L 309.32069 348.242719 
L 311.745181 348.242719 
L 311.273747 347.843048 
L 314.119604 347.843048 
L 313.65 347.443378 
L 314.583661 347.443378 
L 313.65 346.644037 
L 314.576367 346.644037 
L 313.65 345.844696 
L 317.284483 345.844696 
L 316.824092 345.445026 
L 317.270611 345.445026 
L 316.355133 344.645685 
L 318.124528 344.645685 
L 317.669492 344.246014 
L 318.107707 344.246014 
L 317.654409 343.846344 
L 321.102033 343.846344 
L 320.650738 343.446674 
L 334.235938 343.446674 
L 333.344118 342.647333 
L 337.405263 342.647333 
L 336.963051 342.247662 
L 340.17596 342.247662 
L 339.7365 341.847992 
L 341.480826 341.847992 
L 341.043564 341.448321 
L 348.39172 341.448321 
L 347.959459 341.048651 
L 352.066822 341.048651 
L 351.638258 340.64898 
L 355.882192 340.64898 
L 355.457599 340.24931 
L 356.637915 340.24931 
L 356.215385 339.84964 
L 357.091892 339.84964 
L 356.671214 339.449969 
L 357.25157 339.449969 
L 356.832537 339.050299 
L 359.965639 339.050299 
L 359.55 338.650628 
L 362.040955 338.650628 
L 361.628324 338.250958 
L 362.173487 338.250958 
L 361.762446 337.851287 
L 363.647436 337.851287 
L 363.238976 337.451617 
L 366.386853 337.451617 
L 365.981983 337.051946 
L 367.00875 337.051946 
L 366.605825 336.652276 
L 368.376923 336.652276 
L 367.976543 336.252606 
L 368.72582 336.252606 
L 368.327149 335.852935 
L 371.986364 335.852935 
L 371.591856 335.453265 
L 375.11034 335.453265 
L 374.72 335.053594 
L 374.949869 335.053594 
L 374.560756 334.653924 
L 375.019116 334.653924 
L 374.631429 334.254253 
L 375.993557 334.254253 
L 375.608108 333.854583 
L 378.926136 333.854583 
L 378.544767 333.454912 
L 382.575369 333.454912 
L 382.198893 333.055242 
L 391.041608 333.055242 
L 390.675437 332.655572 
L 391.417613 332.655572 
L 391.053125 332.255901 
L 392.7 332.255901 
L 392.338215 331.856231 
L 393.77551 331.856231 
L 393.416195 331.45656 
L 393.594231 331.45656 
L 393.235932 331.05689 
L 395.343813 331.05689 
L 394.988753 330.657219 
L 395.679712 330.657219 
L 395.326246 330.257549 
L 395.84106 330.257549 
L 395.488975 329.857878 
L 397.014956 329.857878 
L 396.665431 329.458208 
L 400.596599 329.458208 
L 400.252548 329.058538 
L 402.146226 329.058538 
L 401.805236 328.658867 
L 402.271816 328.658867 
L 401.593125 327.859526 
L 402.519876 327.859526 
L 402.18273 327.459856 
L 402.642371 327.459856 
L 402.306488 327.060185 
L 402.76386 327.060185 
L 402.429231 326.660515 
L 403.186224 326.660515 
L 402.853211 326.260844 
L 404.641088 326.260844 
L 404.310966 325.861174 
L 406.202085 325.861174 
L 405.548563 325.061833 
L 407.815902 325.061833 
L 407.492982 324.662163 
L 407.632522 324.662163 
L 407.910787 324.662163 
L 407.589029 324.262492 
L 407.727934 324.262492 
L 408.28087 324.262492 
L 407.960618 323.862822 
L 408.098361 323.862822 
L 409.461318 323.862822 
L 409.143607 323.463151 
L 409.278646 323.463151 
L 409.816239 323.463151 
L 409.5 323.063481 
L 409.633934 323.063481 
L 412.517549 323.063481 
L 412.205844 322.663811 
L 412.334291 322.663811 
L 413.857287 322.663811 
L 413.548352 322.26414 
L 413.673925 322.26414 
L 416.138005 322.26414 
L 415.528789 321.464799 
L 415.65 321.464799 
L 416.611922 321.464799 
L 416.3096 321.065129 
L 416.429041 321.065129 
L 418.311646 321.065129 
L 418.012598 320.665458 
L 418.128671 320.665458 
L 419.05 320.665458 
L 418.752905 320.265788 
L 418.867331 320.265788 
L 420.560222 320.265788 
L 419.972588 319.466447 
L 420.084215 319.466447 
L 421.299662 319.466447 
L 421.008446 319.066777 
L 421.117975 319.066777 
L 421.771285 319.066777 
L 421.481628 318.667106 
L 421.590025 318.667106 
L 422.34375 318.667106 
L 422.055787 318.267436 
L 422.162895 318.267436 
L 423.434432 318.267436 
L 423.148889 317.867765 
L 423.253865 317.867765 
L 423.4633 317.867765 
L 423.178671 317.468095 
L 423.283279 317.468095 
L 424.729984 317.468095 
L 424.448016 317.068424 
L 424.550243 317.068424 
L 424.652304 317.068424 
L 424.1925 316.269083 
L 427.183228 316.269083 
L 426.907317 315.869413 
L 427.004717 315.869413 
L 428.921053 315.869413 
L 428.648492 315.469743 
L 428.74289 315.469743 
L 429.212702 315.469743 
L 428.941385 315.070072 
L 429.03505 315.070072 
L 430.787727 315.070072 
L 430.519531 314.670402 
L 430.610514 314.670402 
L 432.047758 314.670402 
L 431.782226 314.270731 
L 431.871045 314.270731 
L 432.401189 314.270731 
L 432.136971 313.871061 
L 432.225 313.871061 
L 433.529934 313.871061 
L 433.268182 313.47139 
L 433.354286 313.47139 
L 437.263598 313.47139 
L 437.00828 313.07172 
L 437.088755 313.07172 
L 438.045652 313.07172 
L 437.539286 312.272379 
L 437.618544 312.272379 
L 438.405073 312.272379 
L 438.15375 311.872709 
L 438.231922 311.872709 
L 438.930621 311.872709 
L 438.680841 311.473038 
L 438.758058 311.473038 
L 440.280367 311.473038 
L 440.033401 311.073368 
L 440.108548 311.073368 
L 441.809218 311.073368 
L 441.565354 310.673697 
L 441.638225 310.673697 
L 445.906731 310.673697 
L 445.670083 310.274027 
L 445.737388 310.274027 
L 449.185263 310.274027 
L 448.954641 309.874356 
L 449.080532 309.874356 
L 449.767403 309.874356 
L 449.538405 309.474686 
L 449.6625 309.474686 
L 451.428296 309.474686 
L 451.202708 309.075015 
L 451.322416 309.075015 
L 453.600528 309.075015 
L 453.379225 308.675345 
L 453.493435 308.675345 
L 453.607377 308.675345 
L 453.386717 308.275675 
L 453.500584 308.275675 
L 458.3115 308.275675 
L 457.887736 307.476334 
L 457.990743 307.476334 
L 458.806648 307.476334 
L 458.596705 307.076663 
L 458.697861 307.076663 
L 458.899507 307.076663 
L 458.690317 306.676993 
L 458.790984 306.676993 
L 459.687175 306.676993 
L 459.479935 306.277322 
L 459.578606 306.277322 
L 461.223979 306.277322 
L 461.019989 305.877652 
L 461.115095 305.877652 
L 461.304704 305.877652 
L 461.101426 305.477981 
L 461.196095 305.477981 
L 465.344841 305.477981 
L 465.149245 305.078311 
L 465.235327 305.078311 
L 467.495841 305.078311 
L 467.304645 304.678641 
L 467.426953 304.678641 
L 467.952838 304.678641 
L 467.762997 304.27897 
L 467.883632 304.27897 
L 473.428875 304.27897 
L 473.249593 303.8793 
L 473.354533 303.8793 
L 478.779614 303.8793 
L 478.610943 303.479629 
L 478.701633 303.479629 
L 482.478214 303.479629 
L 482.317176 303.079959 
L 482.425663 303.079959 
L 482.749074 303.079959 
L 482.589007 302.680288 
L 482.696341 302.680288 
L 484.13866 302.680288 
L 483.981755 302.280618 
L 484.084473 302.280618 
L 486.790487 302.280618 
L 486.639255 301.880947 
L 486.757285 301.880947 
L 497.191099 301.880947 
L 497.191099 301.880947 
" style="fill:none;stroke:#2ca02c;stroke-linecap:square;stroke-width:2;"/>
   </g>
   <g id="patch_3">
    <path d="M 76.5 448.56 
L 76.5 60.48 
" style="fill:none;stroke:#000000;stroke-linecap:square;stroke-linejoin:miter;stroke-width:0.8;"/>
   </g>
   <g id="patch_4">
    <path d="M 550.8 448.56 
L 550.8 60.48 
" style="fill:none;stroke:#000000;stroke-linecap:square;stroke-linejoin:miter;stroke-width:0.8;"/>
   </g>
   <g id="patch_5">
    <path d="M 76.5 448.56 
L 550.8 448.56 
" style="fill:none;stroke:#000000;stroke-linecap:square;stroke-linejoin:miter;stroke-width:0.8;"/>
   </g>
   <g id="patch_6">
    <path d="M 76.5 60.48 
L 550.8 60.48 
" style="fill:none;stroke:#000000;stroke-linecap:square;stroke-linejoin:miter;stroke-width:0.8;"/>
   </g>
   <g id="text_25">
    <!-- ubc: img1-img6 -->
    <defs>
     <path d="M 8.5 21.578125 
L 8.5 54.6875 
L 17.484375 54.6875 
L 17.484375 21.921875 
Q 17.484375 14.15625 20.5 10.265625 
Q 23.53125 6.390625 29.59375 6.390625 
Q 36.859375 6.390625 41.078125 11.03125 
Q 45.3125 15.671875 45.3125 23.6875 
L 45.3125 54.6875 
L 54.296875 54.6875 
L 54.296875 0 
L 45.3125 0 
L 45.3125 8.40625 
Q 42.046875 3.421875 37.71875 1 
Q 33.40625 -1.421875 27.6875 -1.421875 
Q 18.265625 -1.421875 13.375 4.4375 
Q 8.5 10.296875 8.5 21.578125 
z
M 31.109375 56 
z
" id="DejaVuSans-117"/>
     <path d="M 48.6875 27.296875 
Q 48.6875 37.203125 44.609375 42.84375 
Q 40.53125 48.484375 33.40625 48.484375 
Q 26.265625 48.484375 22.1875 42.84375 
Q 18.109375 37.203125 18.109375 27.296875 
Q 18.109375 17.390625 22.1875 11.75 
Q 26.265625 6.109375 33.40625 6.109375 
Q 40.53125 6.109375 44.609375 11.75 
Q 48.6875 17.390625 48.6875 27.296875 
z
M 18.109375 46.390625 
Q 20.953125 51.265625 25.265625 53.625 
Q 29.59375 56 35.59375 56 
Q 45.5625 56 51.78125 48.09375 
Q 58.015625 40.1875 58.015625 27.296875 
Q 58.015625 14.40625 51.78125 6.484375 
Q 45.5625 -1.421875 35.59375 -1.421875 
Q 29.59375 -1.421875 25.265625 0.953125 
Q 20.953125 3.328125 18.109375 8.203125 
L 18.109375 0 
L 9.078125 0 
L 9.078125 75.984375 
L 18.109375 75.984375 
z
" id="DejaVuSans-98"/>
     <path d="M 11.71875 12.40625 
L 22.015625 12.40625 
L 22.015625 0 
L 11.71875 0 
z
M 11.71875 51.703125 
L 22.015625 51.703125 
L 22.015625 39.3125 
L 11.71875 39.3125 
z
" id="DejaVuSans-58"/>
     <path id="DejaVuSans-32"/>
     <path d="M 52 44.1875 
Q 55.375 50.25 60.0625 53.125 
Q 64.75 56 71.09375 56 
Q 79.640625 56 84.28125 50.015625 
Q 88.921875 44.046875 88.921875 33.015625 
L 88.921875 0 
L 79.890625 0 
L 79.890625 32.71875 
Q 79.890625 40.578125 77.09375 44.375 
Q 74.3125 48.1875 68.609375 48.1875 
Q 61.625 48.1875 57.5625 43.546875 
Q 53.515625 38.921875 53.515625 30.90625 
L 53.515625 0 
L 44.484375 0 
L 44.484375 32.71875 
Q 44.484375 40.625 41.703125 44.40625 
Q 38.921875 48.1875 33.109375 48.1875 
Q 26.21875 48.1875 22.15625 43.53125 
Q 18.109375 38.875 18.109375 30.90625 
L 18.109375 0 
L 9.078125 0 
L 9.078125 54.6875 
L 18.109375 54.6875 
L 18.109375 46.1875 
Q 21.1875 51.21875 25.484375 53.609375 
Q 29.78125 56 35.6875 56 
Q 41.65625 56 45.828125 52.96875 
Q 50 49.953125 52 44.1875 
z
" id="DejaVuSans-109"/>
     <path d="M 45.40625 27.984375 
Q 45.40625 37.75 41.375 43.109375 
Q 37.359375 48.484375 30.078125 48.484375 
Q 22.859375 48.484375 18.828125 43.109375 
Q 14.796875 37.75 14.796875 27.984375 
Q 14.796875 18.265625 18.828125 12.890625 
Q 22.859375 7.515625 30.078125 7.515625 
Q 37.359375 7.515625 41.375 12.890625 
Q 45.40625 18.265625 45.40625 27.984375 
z
M 54.390625 6.78125 
Q 54.390625 -7.171875 48.1875 -13.984375 
Q 42 -20.796875 29.203125 -20.796875 
Q 24.46875 -20.796875 20.265625 -20.09375 
Q 16.0625 -19.390625 12.109375 -17.921875 
L 12.109375 -9.1875 
Q 16.0625 -11.328125 19.921875 -12.34375 
Q 23.78125 -13.375 27.78125 -13.375 
Q 36.625 -13.375 41.015625 -8.765625 
Q 45.40625 -4.15625 45.40625 5.171875 
L 45.40625 9.625 
Q 42.625 4.78125 38.28125 2.390625 
Q 33.9375 0 27.875 0 
Q 17.828125 0 11.671875 7.65625 
Q 5.515625 15.328125 5.515625 27.984375 
Q 5.515625 40.671875 11.671875 48.328125 
Q 17.828125 56 27.875 56 
Q 33.9375 56 38.28125 53.609375 
Q 42.625 51.21875 45.40625 46.390625 
L 45.40625 54.6875 
L 54.390625 54.6875 
z
" id="DejaVuSans-103"/>
    </defs>
    <g transform="translate(266.370938 41.042625)scale(0.12 -0.12)">
     <use xlink:href="#DejaVuSans-117"/>
     <use x="63.378906" xlink:href="#DejaVuSans-98"/>
     <use x="126.855469" xlink:href="#DejaVuSans-99"/>
     <use x="181.835938" xlink:href="#DejaVuSans-58"/>
     <use x="215.527344" xlink:href="#DejaVuSans-32"/>
     <use x="247.314453" xlink:href="#DejaVuSans-105"/>
     <use x="275.097656" xlink:href="#DejaVuSans-109"/>
     <use x="372.509766" xlink:href="#DejaVuSans-103"/>
     <use x="435.986328" xlink:href="#DejaVuSans-49"/>
     <use x="499.609375" xlink:href="#DejaVuSans-45"/>
     <use x="535.693359" xlink:href="#DejaVuSans-105"/>
     <use x="563.476562" xlink:href="#DejaVuSans-109"/>
     <use x="660.888672" xlink:href="#DejaVuSans-103"/>
     <use x="724.365234" xlink:href="#DejaVuSans-54"/>
    </g>
    <!-- NearestNeighbours -->
    <defs>
     <path d="M 9.8125 72.90625 
L 23.09375 72.90625 
L 55.421875 11.921875 
L 55.421875 72.90625 
L 64.984375 72.90625 
L 64.984375 0 
L 51.703125 0 
L 19.390625 60.984375 
L 19.390625 0 
L 9.8125 0 
z
" id="DejaVuSans-78"/>
     <path d="M 34.28125 27.484375 
Q 23.390625 27.484375 19.1875 25 
Q 14.984375 22.515625 14.984375 16.5 
Q 14.984375 11.71875 18.140625 8.90625 
Q 21.296875 6.109375 26.703125 6.109375 
Q 34.1875 6.109375 38.703125 11.40625 
Q 43.21875 16.703125 43.21875 25.484375 
L 43.21875 27.484375 
z
M 52.203125 31.203125 
L 52.203125 0 
L 43.21875 0 
L 43.21875 8.296875 
Q 40.140625 3.328125 35.546875 0.953125 
Q 30.953125 -1.421875 24.3125 -1.421875 
Q 15.921875 -1.421875 10.953125 3.296875 
Q 6 8.015625 6 15.921875 
Q 6 25.140625 12.171875 29.828125 
Q 18.359375 34.515625 30.609375 34.515625 
L 43.21875 34.515625 
L 43.21875 35.40625 
Q 43.21875 41.609375 39.140625 45 
Q 35.0625 48.390625 27.6875 48.390625 
Q 23 48.390625 18.546875 47.265625 
Q 14.109375 46.140625 10.015625 43.890625 
L 10.015625 52.203125 
Q 14.9375 54.109375 19.578125 55.046875 
Q 24.21875 56 28.609375 56 
Q 40.484375 56 46.34375 49.84375 
Q 52.203125 43.703125 52.203125 31.203125 
z
" id="DejaVuSans-97"/>
     <path d="M 54.890625 33.015625 
L 54.890625 0 
L 45.90625 0 
L 45.90625 32.71875 
Q 45.90625 40.484375 42.875 44.328125 
Q 39.84375 48.1875 33.796875 48.1875 
Q 26.515625 48.1875 22.3125 43.546875 
Q 18.109375 38.921875 18.109375 30.90625 
L 18.109375 0 
L 9.078125 0 
L 9.078125 75.984375 
L 18.109375 75.984375 
L 18.109375 46.1875 
Q 21.34375 51.125 25.703125 53.5625 
Q 30.078125 56 35.796875 56 
Q 45.21875 56 50.046875 50.171875 
Q 54.890625 44.34375 54.890625 33.015625 
z
" id="DejaVuSans-104"/>
    </defs>
    <g transform="translate(255.957188 54.48)scale(0.12 -0.12)">
     <use xlink:href="#DejaVuSans-78"/>
     <use x="74.804688" xlink:href="#DejaVuSans-101"/>
     <use x="136.328125" xlink:href="#DejaVuSans-97"/>
     <use x="197.607422" xlink:href="#DejaVuSans-114"/>
     <use x="236.470703" xlink:href="#DejaVuSans-101"/>
     <use x="297.994141" xlink:href="#DejaVuSans-115"/>
     <use x="350.09375" xlink:href="#DejaVuSans-116"/>
     <use x="389.302734" xlink:href="#DejaVuSans-78"/>
     <use x="464.107422" xlink:href="#DejaVuSans-101"/>
     <use x="525.630859" xlink:href="#DejaVuSans-105"/>
     <use x="553.414062" xlink:href="#DejaVuSans-103"/>
     <use x="616.890625" xlink:href="#DejaVuSans-104"/>
     <use x="680.269531" xlink:href="#DejaVuSans-98"/>
     <use x="743.746094" xlink:href="#DejaVuSans-111"/>
     <use x="804.927734" xlink:href="#DejaVuSans-117"/>
     <use x="868.306641" xlink:href="#DejaVuSans-114"/>
     <use x="909.419922" xlink:href="#DejaVuSans-115"/>
    </g>
   </g>
   <g id="legend_1">
    <g id="patch_7">
     <path d="M 362.659375 112.514375 
L 543.8 112.514375 
Q 545.8 112.514375 545.8 110.514375 
L 545.8 67.48 
Q 545.8 65.48 543.8 65.48 
L 362.659375 65.48 
Q 360.659375 65.48 360.659375 67.48 
L 360.659375 110.514375 
Q 360.659375 112.514375 362.659375 112.514375 
z
" style="fill:#ffffff;opacity:0.8;stroke:#cccccc;stroke-linejoin:miter;"/>
    </g>
    <g id="line2d_48">
     <path d="M 364.659375 73.578438 
L 384.659375 73.578438 
" style="fill:none;stroke:#1f77b4;stroke-linecap:square;stroke-width:2;"/>
    </g>
    <g id="line2d_49"/>
    <g id="text_26">
     <!-- root-cvsift AP: 36.0, %In: 14.4 -->
     <defs>
      <path d="M 2.984375 54.6875 
L 12.5 54.6875 
L 29.59375 8.796875 
L 46.6875 54.6875 
L 56.203125 54.6875 
L 35.6875 0 
L 23.484375 0 
z
" id="DejaVuSans-118"/>
      <path d="M 37.109375 75.984375 
L 37.109375 68.5 
L 28.515625 68.5 
Q 23.6875 68.5 21.796875 66.546875 
Q 19.921875 64.59375 19.921875 59.515625 
L 19.921875 54.6875 
L 34.71875 54.6875 
L 34.71875 47.703125 
L 19.921875 47.703125 
L 19.921875 0 
L 10.890625 0 
L 10.890625 47.703125 
L 2.296875 47.703125 
L 2.296875 54.6875 
L 10.890625 54.6875 
L 10.890625 58.5 
Q 10.890625 67.625 15.140625 71.796875 
Q 19.390625 75.984375 28.609375 75.984375 
z
" id="DejaVuSans-102"/>
      <path d="M 34.1875 63.1875 
L 20.796875 26.90625 
L 47.609375 26.90625 
z
M 28.609375 72.90625 
L 39.796875 72.90625 
L 67.578125 0 
L 57.328125 0 
L 50.6875 18.703125 
L 17.828125 18.703125 
L 11.1875 0 
L 0.78125 0 
z
" id="DejaVuSans-65"/>
      <path d="M 19.671875 64.796875 
L 19.671875 37.40625 
L 32.078125 37.40625 
Q 38.96875 37.40625 42.71875 40.96875 
Q 46.484375 44.53125 46.484375 51.125 
Q 46.484375 57.671875 42.71875 61.234375 
Q 38.96875 64.796875 32.078125 64.796875 
z
M 9.8125 72.90625 
L 32.078125 72.90625 
Q 44.34375 72.90625 50.609375 67.359375 
Q 56.890625 61.8125 56.890625 51.125 
Q 56.890625 40.328125 50.609375 34.8125 
Q 44.34375 29.296875 32.078125 29.296875 
L 19.671875 29.296875 
L 19.671875 0 
L 9.8125 0 
z
" id="DejaVuSans-80"/>
      <path d="M 11.71875 12.40625 
L 22.015625 12.40625 
L 22.015625 4 
L 14.015625 -11.625 
L 7.71875 -11.625 
L 11.71875 4 
z
" id="DejaVuSans-44"/>
      <path d="M 72.703125 32.078125 
Q 68.453125 32.078125 66.03125 28.46875 
Q 63.625 24.859375 63.625 18.40625 
Q 63.625 12.0625 66.03125 8.421875 
Q 68.453125 4.78125 72.703125 4.78125 
Q 76.859375 4.78125 79.265625 8.421875 
Q 81.6875 12.0625 81.6875 18.40625 
Q 81.6875 24.8125 79.265625 28.4375 
Q 76.859375 32.078125 72.703125 32.078125 
z
M 72.703125 38.28125 
Q 80.421875 38.28125 84.953125 32.90625 
Q 89.5 27.546875 89.5 18.40625 
Q 89.5 9.28125 84.9375 3.921875 
Q 80.375 -1.421875 72.703125 -1.421875 
Q 64.890625 -1.421875 60.34375 3.921875 
Q 55.8125 9.28125 55.8125 18.40625 
Q 55.8125 27.59375 60.375 32.9375 
Q 64.9375 38.28125 72.703125 38.28125 
z
M 22.3125 68.015625 
Q 18.109375 68.015625 15.6875 64.375 
Q 13.28125 60.75 13.28125 54.390625 
Q 13.28125 47.953125 15.671875 44.328125 
Q 18.0625 40.71875 22.3125 40.71875 
Q 26.5625 40.71875 28.96875 44.328125 
Q 31.390625 47.953125 31.390625 54.390625 
Q 31.390625 60.6875 28.953125 64.34375 
Q 26.515625 68.015625 22.3125 68.015625 
z
M 66.40625 74.21875 
L 74.21875 74.21875 
L 28.609375 -1.421875 
L 20.796875 -1.421875 
z
M 22.3125 74.21875 
Q 30.03125 74.21875 34.609375 68.875 
Q 39.203125 63.53125 39.203125 54.390625 
Q 39.203125 45.171875 34.640625 39.84375 
Q 30.078125 34.515625 22.3125 34.515625 
Q 14.546875 34.515625 10.03125 39.859375 
Q 5.515625 45.21875 5.515625 54.390625 
Q 5.515625 63.484375 10.046875 68.84375 
Q 14.59375 74.21875 22.3125 74.21875 
z
" id="DejaVuSans-37"/>
      <path d="M 9.8125 72.90625 
L 19.671875 72.90625 
L 19.671875 0 
L 9.8125 0 
z
" id="DejaVuSans-73"/>
     </defs>
     <g transform="translate(392.659375 77.078438)scale(0.1 -0.1)">
      <use xlink:href="#DejaVuSans-114"/>
      <use x="38.863281" xlink:href="#DejaVuSans-111"/>
      <use x="100.044922" xlink:href="#DejaVuSans-111"/>
      <use x="161.226562" xlink:href="#DejaVuSans-116"/>
      <use x="200.435547" xlink:href="#DejaVuSans-45"/>
      <use x="236.519531" xlink:href="#DejaVuSans-99"/>
      <use x="291.5" xlink:href="#DejaVuSans-118"/>
      <use x="350.679688" xlink:href="#DejaVuSans-115"/>
      <use x="402.779297" xlink:href="#DejaVuSans-105"/>
      <use x="430.5625" xlink:href="#DejaVuSans-102"/>
      <use x="464.017578" xlink:href="#DejaVuSans-116"/>
      <use x="503.226562" xlink:href="#DejaVuSans-32"/>
      <use x="535.013672" xlink:href="#DejaVuSans-65"/>
      <use x="603.421875" xlink:href="#DejaVuSans-80"/>
      <use x="663.724609" xlink:href="#DejaVuSans-58"/>
      <use x="697.416016" xlink:href="#DejaVuSans-32"/>
      <use x="729.203125" xlink:href="#DejaVuSans-51"/>
      <use x="792.826172" xlink:href="#DejaVuSans-54"/>
      <use x="856.449219" xlink:href="#DejaVuSans-46"/>
      <use x="888.236328" xlink:href="#DejaVuSans-48"/>
      <use x="951.859375" xlink:href="#DejaVuSans-44"/>
      <use x="983.646484" xlink:href="#DejaVuSans-32"/>
      <use x="1015.433594" xlink:href="#DejaVuSans-37"/>
      <use x="1110.453125" xlink:href="#DejaVuSans-73"/>
      <use x="1139.945312" xlink:href="#DejaVuSans-110"/>
      <use x="1203.324219" xlink:href="#DejaVuSans-58"/>
      <use x="1237.015625" xlink:href="#DejaVuSans-32"/>
      <use x="1268.802734" xlink:href="#DejaVuSans-49"/>
      <use x="1332.425781" xlink:href="#DejaVuSans-52"/>
      <use x="1396.048828" xlink:href="#DejaVuSans-46"/>
      <use x="1427.835938" xlink:href="#DejaVuSans-52"/>
     </g>
    </g>
    <g id="line2d_50">
     <path d="M 364.659375 88.256563 
L 384.659375 88.256563 
" style="fill:none;stroke:#ff7f0e;stroke-linecap:square;stroke-width:2;"/>
    </g>
    <g id="line2d_51"/>
    <g id="text_27">
     <!-- tfeat AP: 18.0, %In: 8.9 -->
     <g transform="translate(392.659375 91.756563)scale(0.1 -0.1)">
      <use xlink:href="#DejaVuSans-116"/>
      <use x="39.208984" xlink:href="#DejaVuSans-102"/>
      <use x="74.414062" xlink:href="#DejaVuSans-101"/>
      <use x="135.9375" xlink:href="#DejaVuSans-97"/>
      <use x="197.216797" xlink:href="#DejaVuSans-116"/>
      <use x="236.425781" xlink:href="#DejaVuSans-32"/>
      <use x="268.212891" xlink:href="#DejaVuSans-65"/>
      <use x="336.621094" xlink:href="#DejaVuSans-80"/>
      <use x="396.923828" xlink:href="#DejaVuSans-58"/>
      <use x="430.615234" xlink:href="#DejaVuSans-32"/>
      <use x="462.402344" xlink:href="#DejaVuSans-49"/>
      <use x="526.025391" xlink:href="#DejaVuSans-56"/>
      <use x="589.648438" xlink:href="#DejaVuSans-46"/>
      <use x="621.435547" xlink:href="#DejaVuSans-48"/>
      <use x="685.058594" xlink:href="#DejaVuSans-44"/>
      <use x="716.845703" xlink:href="#DejaVuSans-32"/>
      <use x="748.632812" xlink:href="#DejaVuSans-37"/>
      <use x="843.652344" xlink:href="#DejaVuSans-73"/>
      <use x="873.144531" xlink:href="#DejaVuSans-110"/>
      <use x="936.523438" xlink:href="#DejaVuSans-58"/>
      <use x="970.214844" xlink:href="#DejaVuSans-32"/>
      <use x="1002.001953" xlink:href="#DejaVuSans-56"/>
      <use x="1065.625" xlink:href="#DejaVuSans-46"/>
      <use x="1097.412109" xlink:href="#DejaVuSans-57"/>
     </g>
    </g>
    <g id="line2d_52">
     <path d="M 364.659375 102.934687 
L 384.659375 102.934687 
" style="fill:none;stroke:#2ca02c;stroke-linecap:square;stroke-width:2;"/>
    </g>
    <g id="line2d_53"/>
    <g id="text_28">
     <!-- hardnet AP: 26.1, %In: 11.3 -->
     <defs>
      <path d="M 45.40625 46.390625 
L 45.40625 75.984375 
L 54.390625 75.984375 
L 54.390625 0 
L 45.40625 0 
L 45.40625 8.203125 
Q 42.578125 3.328125 38.25 0.953125 
Q 33.9375 -1.421875 27.875 -1.421875 
Q 17.96875 -1.421875 11.734375 6.484375 
Q 5.515625 14.40625 5.515625 27.296875 
Q 5.515625 40.1875 11.734375 48.09375 
Q 17.96875 56 27.875 56 
Q 33.9375 56 38.25 53.625 
Q 42.578125 51.265625 45.40625 46.390625 
z
M 14.796875 27.296875 
Q 14.796875 17.390625 18.875 11.75 
Q 22.953125 6.109375 30.078125 6.109375 
Q 37.203125 6.109375 41.296875 11.75 
Q 45.40625 17.390625 45.40625 27.296875 
Q 45.40625 37.203125 41.296875 42.84375 
Q 37.203125 48.484375 30.078125 48.484375 
Q 22.953125 48.484375 18.875 42.84375 
Q 14.796875 37.203125 14.796875 27.296875 
z
" id="DejaVuSans-100"/>
     </defs>
     <g transform="translate(392.659375 106.434687)scale(0.1 -0.1)">
      <use xlink:href="#DejaVuSans-104"/>
      <use x="63.378906" xlink:href="#DejaVuSans-97"/>
      <use x="124.658203" xlink:href="#DejaVuSans-114"/>
      <use x="164.021484" xlink:href="#DejaVuSans-100"/>
      <use x="227.498047" xlink:href="#DejaVuSans-110"/>
      <use x="290.876953" xlink:href="#DejaVuSans-101"/>
      <use x="352.400391" xlink:href="#DejaVuSans-116"/>
      <use x="391.609375" xlink:href="#DejaVuSans-32"/>
      <use x="423.396484" xlink:href="#DejaVuSans-65"/>
      <use x="491.804688" xlink:href="#DejaVuSans-80"/>
      <use x="552.107422" xlink:href="#DejaVuSans-58"/>
      <use x="585.798828" xlink:href="#DejaVuSans-32"/>
      <use x="617.585938" xlink:href="#DejaVuSans-50"/>
      <use x="681.208984" xlink:href="#DejaVuSans-54"/>
      <use x="744.832031" xlink:href="#DejaVuSans-46"/>
      <use x="776.619141" xlink:href="#DejaVuSans-49"/>
      <use x="840.242188" xlink:href="#DejaVuSans-44"/>
      <use x="872.029297" xlink:href="#DejaVuSans-32"/>
      <use x="903.816406" xlink:href="#DejaVuSans-37"/>
      <use x="998.835938" xlink:href="#DejaVuSans-73"/>
      <use x="1028.328125" xlink:href="#DejaVuSans-110"/>
      <use x="1091.707031" xlink:href="#DejaVuSans-58"/>
      <use x="1125.398438" xlink:href="#DejaVuSans-32"/>
      <use x="1157.185547" xlink:href="#DejaVuSans-49"/>
      <use x="1220.808594" xlink:href="#DejaVuSans-49"/>
      <use x="1284.431641" xlink:href="#DejaVuSans-46"/>
      <use x="1316.21875" xlink:href="#DejaVuSans-51"/>
     </g>
    </g>
   </g>
  </g>
 </g>
 <defs>
  <clipPath id="pd2948f2a6f">
   <rect height="388.08" width="474.3" x="76.5" y="60.48"/>
  </clipPath>
 </defs>
</svg>
