<?xml version="1.0" encoding="utf-8" standalone="no"?>
<!DOCTYPE svg PUBLIC "-//W3C//DTD SVG 1.1//EN"
  "http://www.w3.org/Graphics/SVG/1.1/DTD/svg11.dtd">
<!-- Created with matplotlib (https://matplotlib.org/) -->
<svg height="504pt" version="1.1" viewBox="0 0 612 504" width="612pt" xmlns="http://www.w3.org/2000/svg" xmlns:xlink="http://www.w3.org/1999/xlink">
 <defs>
  <style type="text/css">
*{stroke-linecap:butt;stroke-linejoin:round;}
  </style>
 </defs>
 <g id="figure_1">
  <g id="patch_1">
   <path d="M 0 504 
L 612 504 
L 612 0 
L 0 0 
z
" style="fill:#ffffff;"/>
  </g>
  <g id="axes_1">
   <g id="patch_2">
    <path d="M 76.5 448.56 
L 550.8 448.56 
L 550.8 60.48 
L 76.5 60.48 
z
" style="fill:#ffffff;"/>
   </g>
   <g id="matplotlib.axis_1">
    <g id="xtick_1">
     <g id="line2d_1">
      <path clip-path="url(#pa73bc28dc4)" d="M 76.5 448.56 
L 76.5 60.48 
" style="fill:none;stroke:#b0b0b0;stroke-linecap:square;stroke-width:0.8;"/>
     </g>
     <g id="line2d_2">
      <defs>
       <path d="M 0 0 
L 0 3.5 
" id="mc4c6ccfafa" style="stroke:#000000;stroke-width:0.8;"/>
      </defs>
      <g>
       <use style="stroke:#000000;stroke-width:0.8;" x="76.5" xlink:href="#mc4c6ccfafa" y="448.56"/>
      </g>
     </g>
     <g id="text_1">
      <!-- 0.0 -->
      <defs>
       <path d="M 31.78125 66.40625 
Q 24.171875 66.40625 20.328125 58.90625 
Q 16.5 51.421875 16.5 36.375 
Q 16.5 21.390625 20.328125 13.890625 
Q 24.171875 6.390625 31.78125 6.390625 
Q 39.453125 6.390625 43.28125 13.890625 
Q 47.125 21.390625 47.125 36.375 
Q 47.125 51.421875 43.28125 58.90625 
Q 39.453125 66.40625 31.78125 66.40625 
z
M 31.78125 74.21875 
Q 44.046875 74.21875 50.515625 64.515625 
Q 56.984375 54.828125 56.984375 36.375 
Q 56.984375 17.96875 50.515625 8.265625 
Q 44.046875 -1.421875 31.78125 -1.421875 
Q 19.53125 -1.421875 13.0625 8.265625 
Q 6.59375 17.96875 6.59375 36.375 
Q 6.59375 54.828125 13.0625 64.515625 
Q 19.53125 74.21875 31.78125 74.21875 
z
" id="DejaVuSans-48"/>
       <path d="M 10.6875 12.40625 
L 21 12.40625 
L 21 0 
L 10.6875 0 
z
" id="DejaVuSans-46"/>
      </defs>
      <g transform="translate(68.548438 463.158437)scale(0.1 -0.1)">
       <use xlink:href="#DejaVuSans-48"/>
       <use x="63.623047" xlink:href="#DejaVuSans-46"/>
       <use x="95.410156" xlink:href="#DejaVuSans-48"/>
      </g>
     </g>
    </g>
    <g id="xtick_2">
     <g id="line2d_3">
      <path clip-path="url(#pa73bc28dc4)" d="M 123.93 448.56 
L 123.93 60.48 
" style="fill:none;stroke:#b0b0b0;stroke-linecap:square;stroke-width:0.8;"/>
     </g>
     <g id="line2d_4">
      <g>
       <use style="stroke:#000000;stroke-width:0.8;" x="123.93" xlink:href="#mc4c6ccfafa" y="448.56"/>
      </g>
     </g>
     <g id="text_2">
      <!-- 0.1 -->
      <defs>
       <path d="M 12.40625 8.296875 
L 28.515625 8.296875 
L 28.515625 63.921875 
L 10.984375 60.40625 
L 10.984375 69.390625 
L 28.421875 72.90625 
L 38.28125 72.90625 
L 38.28125 8.296875 
L 54.390625 8.296875 
L 54.390625 0 
L 12.40625 0 
z
" id="DejaVuSans-49"/>
      </defs>
      <g transform="translate(115.978438 463.158437)scale(0.1 -0.1)">
       <use xlink:href="#DejaVuSans-48"/>
       <use x="63.623047" xlink:href="#DejaVuSans-46"/>
       <use x="95.410156" xlink:href="#DejaVuSans-49"/>
      </g>
     </g>
    </g>
    <g id="xtick_3">
     <g id="line2d_5">
      <path clip-path="url(#pa73bc28dc4)" d="M 171.36 448.56 
L 171.36 60.48 
" style="fill:none;stroke:#b0b0b0;stroke-linecap:square;stroke-width:0.8;"/>
     </g>
     <g id="line2d_6">
      <g>
       <use style="stroke:#000000;stroke-width:0.8;" x="171.36" xlink:href="#mc4c6ccfafa" y="448.56"/>
      </g>
     </g>
     <g id="text_3">
      <!-- 0.2 -->
      <defs>
       <path d="M 19.1875 8.296875 
L 53.609375 8.296875 
L 53.609375 0 
L 7.328125 0 
L 7.328125 8.296875 
Q 12.9375 14.109375 22.625 23.890625 
Q 32.328125 33.6875 34.8125 36.53125 
Q 39.546875 41.84375 41.421875 45.53125 
Q 43.3125 49.21875 43.3125 52.78125 
Q 43.3125 58.59375 39.234375 62.25 
Q 35.15625 65.921875 28.609375 65.921875 
Q 23.96875 65.921875 18.8125 64.3125 
Q 13.671875 62.703125 7.8125 59.421875 
L 7.8125 69.390625 
Q 13.765625 71.78125 18.9375 73 
Q 24.125 74.21875 28.421875 74.21875 
Q 39.75 74.21875 46.484375 68.546875 
Q 53.21875 62.890625 53.21875 53.421875 
Q 53.21875 48.921875 51.53125 44.890625 
Q 49.859375 40.875 45.40625 35.40625 
Q 44.1875 33.984375 37.640625 27.21875 
Q 31.109375 20.453125 19.1875 8.296875 
z
" id="DejaVuSans-50"/>
      </defs>
      <g transform="translate(163.408438 463.158437)scale(0.1 -0.1)">
       <use xlink:href="#DejaVuSans-48"/>
       <use x="63.623047" xlink:href="#DejaVuSans-46"/>
       <use x="95.410156" xlink:href="#DejaVuSans-50"/>
      </g>
     </g>
    </g>
    <g id="xtick_4">
     <g id="line2d_7">
      <path clip-path="url(#pa73bc28dc4)" d="M 218.79 448.56 
L 218.79 60.48 
" style="fill:none;stroke:#b0b0b0;stroke-linecap:square;stroke-width:0.8;"/>
     </g>
     <g id="line2d_8">
      <g>
       <use style="stroke:#000000;stroke-width:0.8;" x="218.79" xlink:href="#mc4c6ccfafa" y="448.56"/>
      </g>
     </g>
     <g id="text_4">
      <!-- 0.3 -->
      <defs>
       <path d="M 40.578125 39.3125 
Q 47.65625 37.796875 51.625 33 
Q 55.609375 28.21875 55.609375 21.1875 
Q 55.609375 10.40625 48.1875 4.484375 
Q 40.765625 -1.421875 27.09375 -1.421875 
Q 22.515625 -1.421875 17.65625 -0.515625 
Q 12.796875 0.390625 7.625 2.203125 
L 7.625 11.71875 
Q 11.71875 9.328125 16.59375 8.109375 
Q 21.484375 6.890625 26.8125 6.890625 
Q 36.078125 6.890625 40.9375 10.546875 
Q 45.796875 14.203125 45.796875 21.1875 
Q 45.796875 27.640625 41.28125 31.265625 
Q 36.765625 34.90625 28.71875 34.90625 
L 20.21875 34.90625 
L 20.21875 43.015625 
L 29.109375 43.015625 
Q 36.375 43.015625 40.234375 45.921875 
Q 44.09375 48.828125 44.09375 54.296875 
Q 44.09375 59.90625 40.109375 62.90625 
Q 36.140625 65.921875 28.71875 65.921875 
Q 24.65625 65.921875 20.015625 65.03125 
Q 15.375 64.15625 9.8125 62.3125 
L 9.8125 71.09375 
Q 15.4375 72.65625 20.34375 73.4375 
Q 25.25 74.21875 29.59375 74.21875 
Q 40.828125 74.21875 47.359375 69.109375 
Q 53.90625 64.015625 53.90625 55.328125 
Q 53.90625 49.265625 50.4375 45.09375 
Q 46.96875 40.921875 40.578125 39.3125 
z
" id="DejaVuSans-51"/>
      </defs>
      <g transform="translate(210.838438 463.158437)scale(0.1 -0.1)">
       <use xlink:href="#DejaVuSans-48"/>
       <use x="63.623047" xlink:href="#DejaVuSans-46"/>
       <use x="95.410156" xlink:href="#DejaVuSans-51"/>
      </g>
     </g>
    </g>
    <g id="xtick_5">
     <g id="line2d_9">
      <path clip-path="url(#pa73bc28dc4)" d="M 266.22 448.56 
L 266.22 60.48 
" style="fill:none;stroke:#b0b0b0;stroke-linecap:square;stroke-width:0.8;"/>
     </g>
     <g id="line2d_10">
      <g>
       <use style="stroke:#000000;stroke-width:0.8;" x="266.22" xlink:href="#mc4c6ccfafa" y="448.56"/>
      </g>
     </g>
     <g id="text_5">
      <!-- 0.4 -->
      <defs>
       <path d="M 37.796875 64.3125 
L 12.890625 25.390625 
L 37.796875 25.390625 
z
M 35.203125 72.90625 
L 47.609375 72.90625 
L 47.609375 25.390625 
L 58.015625 25.390625 
L 58.015625 17.1875 
L 47.609375 17.1875 
L 47.609375 0 
L 37.796875 0 
L 37.796875 17.1875 
L 4.890625 17.1875 
L 4.890625 26.703125 
z
" id="DejaVuSans-52"/>
      </defs>
      <g transform="translate(258.268438 463.158437)scale(0.1 -0.1)">
       <use xlink:href="#DejaVuSans-48"/>
       <use x="63.623047" xlink:href="#DejaVuSans-46"/>
       <use x="95.410156" xlink:href="#DejaVuSans-52"/>
      </g>
     </g>
    </g>
    <g id="xtick_6">
     <g id="line2d_11">
      <path clip-path="url(#pa73bc28dc4)" d="M 313.65 448.56 
L 313.65 60.48 
" style="fill:none;stroke:#b0b0b0;stroke-linecap:square;stroke-width:0.8;"/>
     </g>
     <g id="line2d_12">
      <g>
       <use style="stroke:#000000;stroke-width:0.8;" x="313.65" xlink:href="#mc4c6ccfafa" y="448.56"/>
      </g>
     </g>
     <g id="text_6">
      <!-- 0.5 -->
      <defs>
       <path d="M 10.796875 72.90625 
L 49.515625 72.90625 
L 49.515625 64.59375 
L 19.828125 64.59375 
L 19.828125 46.734375 
Q 21.96875 47.46875 24.109375 47.828125 
Q 26.265625 48.1875 28.421875 48.1875 
Q 40.625 48.1875 47.75 41.5 
Q 54.890625 34.8125 54.890625 23.390625 
Q 54.890625 11.625 47.5625 5.09375 
Q 40.234375 -1.421875 26.90625 -1.421875 
Q 22.3125 -1.421875 17.546875 -0.640625 
Q 12.796875 0.140625 7.71875 1.703125 
L 7.71875 11.625 
Q 12.109375 9.234375 16.796875 8.0625 
Q 21.484375 6.890625 26.703125 6.890625 
Q 35.15625 6.890625 40.078125 11.328125 
Q 45.015625 15.765625 45.015625 23.390625 
Q 45.015625 31 40.078125 35.4375 
Q 35.15625 39.890625 26.703125 39.890625 
Q 22.75 39.890625 18.8125 39.015625 
Q 14.890625 38.140625 10.796875 36.28125 
z
" id="DejaVuSans-53"/>
      </defs>
      <g transform="translate(305.698438 463.158437)scale(0.1 -0.1)">
       <use xlink:href="#DejaVuSans-48"/>
       <use x="63.623047" xlink:href="#DejaVuSans-46"/>
       <use x="95.410156" xlink:href="#DejaVuSans-53"/>
      </g>
     </g>
    </g>
    <g id="xtick_7">
     <g id="line2d_13">
      <path clip-path="url(#pa73bc28dc4)" d="M 361.08 448.56 
L 361.08 60.48 
" style="fill:none;stroke:#b0b0b0;stroke-linecap:square;stroke-width:0.8;"/>
     </g>
     <g id="line2d_14">
      <g>
       <use style="stroke:#000000;stroke-width:0.8;" x="361.08" xlink:href="#mc4c6ccfafa" y="448.56"/>
      </g>
     </g>
     <g id="text_7">
      <!-- 0.6 -->
      <defs>
       <path d="M 33.015625 40.375 
Q 26.375 40.375 22.484375 35.828125 
Q 18.609375 31.296875 18.609375 23.390625 
Q 18.609375 15.53125 22.484375 10.953125 
Q 26.375 6.390625 33.015625 6.390625 
Q 39.65625 6.390625 43.53125 10.953125 
Q 47.40625 15.53125 47.40625 23.390625 
Q 47.40625 31.296875 43.53125 35.828125 
Q 39.65625 40.375 33.015625 40.375 
z
M 52.59375 71.296875 
L 52.59375 62.3125 
Q 48.875 64.0625 45.09375 64.984375 
Q 41.3125 65.921875 37.59375 65.921875 
Q 27.828125 65.921875 22.671875 59.328125 
Q 17.53125 52.734375 16.796875 39.40625 
Q 19.671875 43.65625 24.015625 45.921875 
Q 28.375 48.1875 33.59375 48.1875 
Q 44.578125 48.1875 50.953125 41.515625 
Q 57.328125 34.859375 57.328125 23.390625 
Q 57.328125 12.15625 50.6875 5.359375 
Q 44.046875 -1.421875 33.015625 -1.421875 
Q 20.359375 -1.421875 13.671875 8.265625 
Q 6.984375 17.96875 6.984375 36.375 
Q 6.984375 53.65625 15.1875 63.9375 
Q 23.390625 74.21875 37.203125 74.21875 
Q 40.921875 74.21875 44.703125 73.484375 
Q 48.484375 72.75 52.59375 71.296875 
z
" id="DejaVuSans-54"/>
      </defs>
      <g transform="translate(353.128438 463.158437)scale(0.1 -0.1)">
       <use xlink:href="#DejaVuSans-48"/>
       <use x="63.623047" xlink:href="#DejaVuSans-46"/>
       <use x="95.410156" xlink:href="#DejaVuSans-54"/>
      </g>
     </g>
    </g>
    <g id="xtick_8">
     <g id="line2d_15">
      <path clip-path="url(#pa73bc28dc4)" d="M 408.51 448.56 
L 408.51 60.48 
" style="fill:none;stroke:#b0b0b0;stroke-linecap:square;stroke-width:0.8;"/>
     </g>
     <g id="line2d_16">
      <g>
       <use style="stroke:#000000;stroke-width:0.8;" x="408.51" xlink:href="#mc4c6ccfafa" y="448.56"/>
      </g>
     </g>
     <g id="text_8">
      <!-- 0.7 -->
      <defs>
       <path d="M 8.203125 72.90625 
L 55.078125 72.90625 
L 55.078125 68.703125 
L 28.609375 0 
L 18.3125 0 
L 43.21875 64.59375 
L 8.203125 64.59375 
z
" id="DejaVuSans-55"/>
      </defs>
      <g transform="translate(400.558438 463.158437)scale(0.1 -0.1)">
       <use xlink:href="#DejaVuSans-48"/>
       <use x="63.623047" xlink:href="#DejaVuSans-46"/>
       <use x="95.410156" xlink:href="#DejaVuSans-55"/>
      </g>
     </g>
    </g>
    <g id="xtick_9">
     <g id="line2d_17">
      <path clip-path="url(#pa73bc28dc4)" d="M 455.94 448.56 
L 455.94 60.48 
" style="fill:none;stroke:#b0b0b0;stroke-linecap:square;stroke-width:0.8;"/>
     </g>
     <g id="line2d_18">
      <g>
       <use style="stroke:#000000;stroke-width:0.8;" x="455.94" xlink:href="#mc4c6ccfafa" y="448.56"/>
      </g>
     </g>
     <g id="text_9">
      <!-- 0.8 -->
      <defs>
       <path d="M 31.78125 34.625 
Q 24.75 34.625 20.71875 30.859375 
Q 16.703125 27.09375 16.703125 20.515625 
Q 16.703125 13.921875 20.71875 10.15625 
Q 24.75 6.390625 31.78125 6.390625 
Q 38.8125 6.390625 42.859375 10.171875 
Q 46.921875 13.96875 46.921875 20.515625 
Q 46.921875 27.09375 42.890625 30.859375 
Q 38.875 34.625 31.78125 34.625 
z
M 21.921875 38.8125 
Q 15.578125 40.375 12.03125 44.71875 
Q 8.5 49.078125 8.5 55.328125 
Q 8.5 64.0625 14.71875 69.140625 
Q 20.953125 74.21875 31.78125 74.21875 
Q 42.671875 74.21875 48.875 69.140625 
Q 55.078125 64.0625 55.078125 55.328125 
Q 55.078125 49.078125 51.53125 44.71875 
Q 48 40.375 41.703125 38.8125 
Q 48.828125 37.15625 52.796875 32.3125 
Q 56.78125 27.484375 56.78125 20.515625 
Q 56.78125 9.90625 50.3125 4.234375 
Q 43.84375 -1.421875 31.78125 -1.421875 
Q 19.734375 -1.421875 13.25 4.234375 
Q 6.78125 9.90625 6.78125 20.515625 
Q 6.78125 27.484375 10.78125 32.3125 
Q 14.796875 37.15625 21.921875 38.8125 
z
M 18.3125 54.390625 
Q 18.3125 48.734375 21.84375 45.5625 
Q 25.390625 42.390625 31.78125 42.390625 
Q 38.140625 42.390625 41.71875 45.5625 
Q 45.3125 48.734375 45.3125 54.390625 
Q 45.3125 60.0625 41.71875 63.234375 
Q 38.140625 66.40625 31.78125 66.40625 
Q 25.390625 66.40625 21.84375 63.234375 
Q 18.3125 60.0625 18.3125 54.390625 
z
" id="DejaVuSans-56"/>
      </defs>
      <g transform="translate(447.988438 463.158437)scale(0.1 -0.1)">
       <use xlink:href="#DejaVuSans-48"/>
       <use x="63.623047" xlink:href="#DejaVuSans-46"/>
       <use x="95.410156" xlink:href="#DejaVuSans-56"/>
      </g>
     </g>
    </g>
    <g id="xtick_10">
     <g id="line2d_19">
      <path clip-path="url(#pa73bc28dc4)" d="M 503.37 448.56 
L 503.37 60.48 
" style="fill:none;stroke:#b0b0b0;stroke-linecap:square;stroke-width:0.8;"/>
     </g>
     <g id="line2d_20">
      <g>
       <use style="stroke:#000000;stroke-width:0.8;" x="503.37" xlink:href="#mc4c6ccfafa" y="448.56"/>
      </g>
     </g>
     <g id="text_10">
      <!-- 0.9 -->
      <defs>
       <path d="M 10.984375 1.515625 
L 10.984375 10.5 
Q 14.703125 8.734375 18.5 7.8125 
Q 22.3125 6.890625 25.984375 6.890625 
Q 35.75 6.890625 40.890625 13.453125 
Q 46.046875 20.015625 46.78125 33.40625 
Q 43.953125 29.203125 39.59375 26.953125 
Q 35.25 24.703125 29.984375 24.703125 
Q 19.046875 24.703125 12.671875 31.3125 
Q 6.296875 37.9375 6.296875 49.421875 
Q 6.296875 60.640625 12.9375 67.421875 
Q 19.578125 74.21875 30.609375 74.21875 
Q 43.265625 74.21875 49.921875 64.515625 
Q 56.59375 54.828125 56.59375 36.375 
Q 56.59375 19.140625 48.40625 8.859375 
Q 40.234375 -1.421875 26.421875 -1.421875 
Q 22.703125 -1.421875 18.890625 -0.6875 
Q 15.09375 0.046875 10.984375 1.515625 
z
M 30.609375 32.421875 
Q 37.25 32.421875 41.125 36.953125 
Q 45.015625 41.5 45.015625 49.421875 
Q 45.015625 57.28125 41.125 61.84375 
Q 37.25 66.40625 30.609375 66.40625 
Q 23.96875 66.40625 20.09375 61.84375 
Q 16.21875 57.28125 16.21875 49.421875 
Q 16.21875 41.5 20.09375 36.953125 
Q 23.96875 32.421875 30.609375 32.421875 
z
" id="DejaVuSans-57"/>
      </defs>
      <g transform="translate(495.418438 463.158437)scale(0.1 -0.1)">
       <use xlink:href="#DejaVuSans-48"/>
       <use x="63.623047" xlink:href="#DejaVuSans-46"/>
       <use x="95.410156" xlink:href="#DejaVuSans-57"/>
      </g>
     </g>
    </g>
    <g id="xtick_11">
     <g id="line2d_21">
      <path clip-path="url(#pa73bc28dc4)" d="M 550.8 448.56 
L 550.8 60.48 
" style="fill:none;stroke:#b0b0b0;stroke-linecap:square;stroke-width:0.8;"/>
     </g>
     <g id="line2d_22">
      <g>
       <use style="stroke:#000000;stroke-width:0.8;" x="550.8" xlink:href="#mc4c6ccfafa" y="448.56"/>
      </g>
     </g>
     <g id="text_11">
      <!-- 1.0 -->
      <g transform="translate(542.848438 463.158437)scale(0.1 -0.1)">
       <use xlink:href="#DejaVuSans-49"/>
       <use x="63.623047" xlink:href="#DejaVuSans-46"/>
       <use x="95.410156" xlink:href="#DejaVuSans-48"/>
      </g>
     </g>
    </g>
    <g id="text_12">
     <!-- 1-precision -->
     <defs>
      <path d="M 4.890625 31.390625 
L 31.203125 31.390625 
L 31.203125 23.390625 
L 4.890625 23.390625 
z
" id="DejaVuSans-45"/>
      <path d="M 18.109375 8.203125 
L 18.109375 -20.796875 
L 9.078125 -20.796875 
L 9.078125 54.6875 
L 18.109375 54.6875 
L 18.109375 46.390625 
Q 20.953125 51.265625 25.265625 53.625 
Q 29.59375 56 35.59375 56 
Q 45.5625 56 51.78125 48.09375 
Q 58.015625 40.1875 58.015625 27.296875 
Q 58.015625 14.40625 51.78125 6.484375 
Q 45.5625 -1.421875 35.59375 -1.421875 
Q 29.59375 -1.421875 25.265625 0.953125 
Q 20.953125 3.328125 18.109375 8.203125 
z
M 48.6875 27.296875 
Q 48.6875 37.203125 44.609375 42.84375 
Q 40.53125 48.484375 33.40625 48.484375 
Q 26.265625 48.484375 22.1875 42.84375 
Q 18.109375 37.203125 18.109375 27.296875 
Q 18.109375 17.390625 22.1875 11.75 
Q 26.265625 6.109375 33.40625 6.109375 
Q 40.53125 6.109375 44.609375 11.75 
Q 48.6875 17.390625 48.6875 27.296875 
z
" id="DejaVuSans-112"/>
      <path d="M 41.109375 46.296875 
Q 39.59375 47.171875 37.8125 47.578125 
Q 36.03125 48 33.890625 48 
Q 26.265625 48 22.1875 43.046875 
Q 18.109375 38.09375 18.109375 28.8125 
L 18.109375 0 
L 9.078125 0 
L 9.078125 54.6875 
L 18.109375 54.6875 
L 18.109375 46.1875 
Q 20.953125 51.171875 25.484375 53.578125 
Q 30.03125 56 36.53125 56 
Q 37.453125 56 38.578125 55.875 
Q 39.703125 55.765625 41.0625 55.515625 
z
" id="DejaVuSans-114"/>
      <path d="M 56.203125 29.59375 
L 56.203125 25.203125 
L 14.890625 25.203125 
Q 15.484375 15.921875 20.484375 11.0625 
Q 25.484375 6.203125 34.421875 6.203125 
Q 39.59375 6.203125 44.453125 7.46875 
Q 49.3125 8.734375 54.109375 11.28125 
L 54.109375 2.78125 
Q 49.265625 0.734375 44.1875 -0.34375 
Q 39.109375 -1.421875 33.890625 -1.421875 
Q 20.796875 -1.421875 13.15625 6.1875 
Q 5.515625 13.8125 5.515625 26.8125 
Q 5.515625 40.234375 12.765625 48.109375 
Q 20.015625 56 32.328125 56 
Q 43.359375 56 49.78125 48.890625 
Q 56.203125 41.796875 56.203125 29.59375 
z
M 47.21875 32.234375 
Q 47.125 39.59375 43.09375 43.984375 
Q 39.0625 48.390625 32.421875 48.390625 
Q 24.90625 48.390625 20.390625 44.140625 
Q 15.875 39.890625 15.1875 32.171875 
z
" id="DejaVuSans-101"/>
      <path d="M 48.78125 52.59375 
L 48.78125 44.1875 
Q 44.96875 46.296875 41.140625 47.34375 
Q 37.3125 48.390625 33.40625 48.390625 
Q 24.65625 48.390625 19.8125 42.84375 
Q 14.984375 37.3125 14.984375 27.296875 
Q 14.984375 17.28125 19.8125 11.734375 
Q 24.65625 6.203125 33.40625 6.203125 
Q 37.3125 6.203125 41.140625 7.25 
Q 44.96875 8.296875 48.78125 10.40625 
L 48.78125 2.09375 
Q 45.015625 0.34375 40.984375 -0.53125 
Q 36.96875 -1.421875 32.421875 -1.421875 
Q 20.0625 -1.421875 12.78125 6.34375 
Q 5.515625 14.109375 5.515625 27.296875 
Q 5.515625 40.671875 12.859375 48.328125 
Q 20.21875 56 33.015625 56 
Q 37.15625 56 41.109375 55.140625 
Q 45.0625 54.296875 48.78125 52.59375 
z
" id="DejaVuSans-99"/>
      <path d="M 9.421875 54.6875 
L 18.40625 54.6875 
L 18.40625 0 
L 9.421875 0 
z
M 9.421875 75.984375 
L 18.40625 75.984375 
L 18.40625 64.59375 
L 9.421875 64.59375 
z
" id="DejaVuSans-105"/>
      <path d="M 44.28125 53.078125 
L 44.28125 44.578125 
Q 40.484375 46.53125 36.375 47.5 
Q 32.28125 48.484375 27.875 48.484375 
Q 21.1875 48.484375 17.84375 46.4375 
Q 14.5 44.390625 14.5 40.28125 
Q 14.5 37.15625 16.890625 35.375 
Q 19.28125 33.59375 26.515625 31.984375 
L 29.59375 31.296875 
Q 39.15625 29.25 43.1875 25.515625 
Q 47.21875 21.78125 47.21875 15.09375 
Q 47.21875 7.46875 41.1875 3.015625 
Q 35.15625 -1.421875 24.609375 -1.421875 
Q 20.21875 -1.421875 15.453125 -0.5625 
Q 10.6875 0.296875 5.421875 2 
L 5.421875 11.28125 
Q 10.40625 8.6875 15.234375 7.390625 
Q 20.0625 6.109375 24.8125 6.109375 
Q 31.15625 6.109375 34.5625 8.28125 
Q 37.984375 10.453125 37.984375 14.40625 
Q 37.984375 18.0625 35.515625 20.015625 
Q 33.0625 21.96875 24.703125 23.78125 
L 21.578125 24.515625 
Q 13.234375 26.265625 9.515625 29.90625 
Q 5.8125 33.546875 5.8125 39.890625 
Q 5.8125 47.609375 11.28125 51.796875 
Q 16.75 56 26.8125 56 
Q 31.78125 56 36.171875 55.265625 
Q 40.578125 54.546875 44.28125 53.078125 
z
" id="DejaVuSans-115"/>
      <path d="M 30.609375 48.390625 
Q 23.390625 48.390625 19.1875 42.75 
Q 14.984375 37.109375 14.984375 27.296875 
Q 14.984375 17.484375 19.15625 11.84375 
Q 23.34375 6.203125 30.609375 6.203125 
Q 37.796875 6.203125 41.984375 11.859375 
Q 46.1875 17.53125 46.1875 27.296875 
Q 46.1875 37.015625 41.984375 42.703125 
Q 37.796875 48.390625 30.609375 48.390625 
z
M 30.609375 56 
Q 42.328125 56 49.015625 48.375 
Q 55.71875 40.765625 55.71875 27.296875 
Q 55.71875 13.875 49.015625 6.21875 
Q 42.328125 -1.421875 30.609375 -1.421875 
Q 18.84375 -1.421875 12.171875 6.21875 
Q 5.515625 13.875 5.515625 27.296875 
Q 5.515625 40.765625 12.171875 48.375 
Q 18.84375 56 30.609375 56 
z
" id="DejaVuSans-111"/>
      <path d="M 54.890625 33.015625 
L 54.890625 0 
L 45.90625 0 
L 45.90625 32.71875 
Q 45.90625 40.484375 42.875 44.328125 
Q 39.84375 48.1875 33.796875 48.1875 
Q 26.515625 48.1875 22.3125 43.546875 
Q 18.109375 38.921875 18.109375 30.90625 
L 18.109375 0 
L 9.078125 0 
L 9.078125 54.6875 
L 18.109375 54.6875 
L 18.109375 46.1875 
Q 21.34375 51.125 25.703125 53.5625 
Q 30.078125 56 35.796875 56 
Q 45.21875 56 50.046875 50.171875 
Q 54.890625 44.34375 54.890625 33.015625 
z
" id="DejaVuSans-110"/>
     </defs>
     <g transform="translate(286 476.836563)scale(0.1 -0.1)">
      <use xlink:href="#DejaVuSans-49"/>
      <use x="63.623047" xlink:href="#DejaVuSans-45"/>
      <use x="99.707031" xlink:href="#DejaVuSans-112"/>
      <use x="163.183594" xlink:href="#DejaVuSans-114"/>
      <use x="204.265625" xlink:href="#DejaVuSans-101"/>
      <use x="265.789062" xlink:href="#DejaVuSans-99"/>
      <use x="320.769531" xlink:href="#DejaVuSans-105"/>
      <use x="348.552734" xlink:href="#DejaVuSans-115"/>
      <use x="400.652344" xlink:href="#DejaVuSans-105"/>
      <use x="428.435547" xlink:href="#DejaVuSans-111"/>
      <use x="489.617188" xlink:href="#DejaVuSans-110"/>
     </g>
    </g>
   </g>
   <g id="matplotlib.axis_2">
    <g id="ytick_1">
     <g id="line2d_23">
      <path clip-path="url(#pa73bc28dc4)" d="M 76.5 448.56 
L 550.8 448.56 
" style="fill:none;stroke:#b0b0b0;stroke-linecap:square;stroke-width:0.8;"/>
     </g>
     <g id="line2d_24">
      <defs>
       <path d="M 0 0 
L -3.5 0 
" id="m2042a8d45d" style="stroke:#000000;stroke-width:0.8;"/>
      </defs>
      <g>
       <use style="stroke:#000000;stroke-width:0.8;" x="76.5" xlink:href="#m2042a8d45d" y="448.56"/>
      </g>
     </g>
     <g id="text_13">
      <!-- 0.0 -->
      <g transform="translate(53.596875 452.359219)scale(0.1 -0.1)">
       <use xlink:href="#DejaVuSans-48"/>
       <use x="63.623047" xlink:href="#DejaVuSans-46"/>
       <use x="95.410156" xlink:href="#DejaVuSans-48"/>
      </g>
     </g>
    </g>
    <g id="ytick_2">
     <g id="line2d_25">
      <path clip-path="url(#pa73bc28dc4)" d="M 76.5 409.752 
L 550.8 409.752 
" style="fill:none;stroke:#b0b0b0;stroke-linecap:square;stroke-width:0.8;"/>
     </g>
     <g id="line2d_26">
      <g>
       <use style="stroke:#000000;stroke-width:0.8;" x="76.5" xlink:href="#m2042a8d45d" y="409.752"/>
      </g>
     </g>
     <g id="text_14">
      <!-- 0.1 -->
      <g transform="translate(53.596875 413.551219)scale(0.1 -0.1)">
       <use xlink:href="#DejaVuSans-48"/>
       <use x="63.623047" xlink:href="#DejaVuSans-46"/>
       <use x="95.410156" xlink:href="#DejaVuSans-49"/>
      </g>
     </g>
    </g>
    <g id="ytick_3">
     <g id="line2d_27">
      <path clip-path="url(#pa73bc28dc4)" d="M 76.5 370.944 
L 550.8 370.944 
" style="fill:none;stroke:#b0b0b0;stroke-linecap:square;stroke-width:0.8;"/>
     </g>
     <g id="line2d_28">
      <g>
       <use style="stroke:#000000;stroke-width:0.8;" x="76.5" xlink:href="#m2042a8d45d" y="370.944"/>
      </g>
     </g>
     <g id="text_15">
      <!-- 0.2 -->
      <g transform="translate(53.596875 374.743219)scale(0.1 -0.1)">
       <use xlink:href="#DejaVuSans-48"/>
       <use x="63.623047" xlink:href="#DejaVuSans-46"/>
       <use x="95.410156" xlink:href="#DejaVuSans-50"/>
      </g>
     </g>
    </g>
    <g id="ytick_4">
     <g id="line2d_29">
      <path clip-path="url(#pa73bc28dc4)" d="M 76.5 332.136 
L 550.8 332.136 
" style="fill:none;stroke:#b0b0b0;stroke-linecap:square;stroke-width:0.8;"/>
     </g>
     <g id="line2d_30">
      <g>
       <use style="stroke:#000000;stroke-width:0.8;" x="76.5" xlink:href="#m2042a8d45d" y="332.136"/>
      </g>
     </g>
     <g id="text_16">
      <!-- 0.3 -->
      <g transform="translate(53.596875 335.935219)scale(0.1 -0.1)">
       <use xlink:href="#DejaVuSans-48"/>
       <use x="63.623047" xlink:href="#DejaVuSans-46"/>
       <use x="95.410156" xlink:href="#DejaVuSans-51"/>
      </g>
     </g>
    </g>
    <g id="ytick_5">
     <g id="line2d_31">
      <path clip-path="url(#pa73bc28dc4)" d="M 76.5 293.328 
L 550.8 293.328 
" style="fill:none;stroke:#b0b0b0;stroke-linecap:square;stroke-width:0.8;"/>
     </g>
     <g id="line2d_32">
      <g>
       <use style="stroke:#000000;stroke-width:0.8;" x="76.5" xlink:href="#m2042a8d45d" y="293.328"/>
      </g>
     </g>
     <g id="text_17">
      <!-- 0.4 -->
      <g transform="translate(53.596875 297.127219)scale(0.1 -0.1)">
       <use xlink:href="#DejaVuSans-48"/>
       <use x="63.623047" xlink:href="#DejaVuSans-46"/>
       <use x="95.410156" xlink:href="#DejaVuSans-52"/>
      </g>
     </g>
    </g>
    <g id="ytick_6">
     <g id="line2d_33">
      <path clip-path="url(#pa73bc28dc4)" d="M 76.5 254.52 
L 550.8 254.52 
" style="fill:none;stroke:#b0b0b0;stroke-linecap:square;stroke-width:0.8;"/>
     </g>
     <g id="line2d_34">
      <g>
       <use style="stroke:#000000;stroke-width:0.8;" x="76.5" xlink:href="#m2042a8d45d" y="254.52"/>
      </g>
     </g>
     <g id="text_18">
      <!-- 0.5 -->
      <g transform="translate(53.596875 258.319219)scale(0.1 -0.1)">
       <use xlink:href="#DejaVuSans-48"/>
       <use x="63.623047" xlink:href="#DejaVuSans-46"/>
       <use x="95.410156" xlink:href="#DejaVuSans-53"/>
      </g>
     </g>
    </g>
    <g id="ytick_7">
     <g id="line2d_35">
      <path clip-path="url(#pa73bc28dc4)" d="M 76.5 215.712 
L 550.8 215.712 
" style="fill:none;stroke:#b0b0b0;stroke-linecap:square;stroke-width:0.8;"/>
     </g>
     <g id="line2d_36">
      <g>
       <use style="stroke:#000000;stroke-width:0.8;" x="76.5" xlink:href="#m2042a8d45d" y="215.712"/>
      </g>
     </g>
     <g id="text_19">
      <!-- 0.6 -->
      <g transform="translate(53.596875 219.511219)scale(0.1 -0.1)">
       <use xlink:href="#DejaVuSans-48"/>
       <use x="63.623047" xlink:href="#DejaVuSans-46"/>
       <use x="95.410156" xlink:href="#DejaVuSans-54"/>
      </g>
     </g>
    </g>
    <g id="ytick_8">
     <g id="line2d_37">
      <path clip-path="url(#pa73bc28dc4)" d="M 76.5 176.904 
L 550.8 176.904 
" style="fill:none;stroke:#b0b0b0;stroke-linecap:square;stroke-width:0.8;"/>
     </g>
     <g id="line2d_38">
      <g>
       <use style="stroke:#000000;stroke-width:0.8;" x="76.5" xlink:href="#m2042a8d45d" y="176.904"/>
      </g>
     </g>
     <g id="text_20">
      <!-- 0.7 -->
      <g transform="translate(53.596875 180.703219)scale(0.1 -0.1)">
       <use xlink:href="#DejaVuSans-48"/>
       <use x="63.623047" xlink:href="#DejaVuSans-46"/>
       <use x="95.410156" xlink:href="#DejaVuSans-55"/>
      </g>
     </g>
    </g>
    <g id="ytick_9">
     <g id="line2d_39">
      <path clip-path="url(#pa73bc28dc4)" d="M 76.5 138.096 
L 550.8 138.096 
" style="fill:none;stroke:#b0b0b0;stroke-linecap:square;stroke-width:0.8;"/>
     </g>
     <g id="line2d_40">
      <g>
       <use style="stroke:#000000;stroke-width:0.8;" x="76.5" xlink:href="#m2042a8d45d" y="138.096"/>
      </g>
     </g>
     <g id="text_21">
      <!-- 0.8 -->
      <g transform="translate(53.596875 141.895219)scale(0.1 -0.1)">
       <use xlink:href="#DejaVuSans-48"/>
       <use x="63.623047" xlink:href="#DejaVuSans-46"/>
       <use x="95.410156" xlink:href="#DejaVuSans-56"/>
      </g>
     </g>
    </g>
    <g id="ytick_10">
     <g id="line2d_41">
      <path clip-path="url(#pa73bc28dc4)" d="M 76.5 99.288 
L 550.8 99.288 
" style="fill:none;stroke:#b0b0b0;stroke-linecap:square;stroke-width:0.8;"/>
     </g>
     <g id="line2d_42">
      <g>
       <use style="stroke:#000000;stroke-width:0.8;" x="76.5" xlink:href="#m2042a8d45d" y="99.288"/>
      </g>
     </g>
     <g id="text_22">
      <!-- 0.9 -->
      <g transform="translate(53.596875 103.087219)scale(0.1 -0.1)">
       <use xlink:href="#DejaVuSans-48"/>
       <use x="63.623047" xlink:href="#DejaVuSans-46"/>
       <use x="95.410156" xlink:href="#DejaVuSans-57"/>
      </g>
     </g>
    </g>
    <g id="ytick_11">
     <g id="line2d_43">
      <path clip-path="url(#pa73bc28dc4)" d="M 76.5 60.48 
L 550.8 60.48 
" style="fill:none;stroke:#b0b0b0;stroke-linecap:square;stroke-width:0.8;"/>
     </g>
     <g id="line2d_44">
      <g>
       <use style="stroke:#000000;stroke-width:0.8;" x="76.5" xlink:href="#m2042a8d45d" y="60.48"/>
      </g>
     </g>
     <g id="text_23">
      <!-- 1.0 -->
      <g transform="translate(53.596875 64.279219)scale(0.1 -0.1)">
       <use xlink:href="#DejaVuSans-49"/>
       <use x="63.623047" xlink:href="#DejaVuSans-46"/>
       <use x="95.410156" xlink:href="#DejaVuSans-48"/>
      </g>
     </g>
    </g>
    <g id="text_24">
     <!-- #correct/353 -->
     <defs>
      <path d="M 51.125 44 
L 36.921875 44 
L 32.8125 27.6875 
L 47.125 27.6875 
z
M 43.796875 71.78125 
L 38.71875 51.515625 
L 52.984375 51.515625 
L 58.109375 71.78125 
L 65.921875 71.78125 
L 60.890625 51.515625 
L 76.125 51.515625 
L 76.125 44 
L 58.984375 44 
L 54.984375 27.6875 
L 70.515625 27.6875 
L 70.515625 20.21875 
L 53.078125 20.21875 
L 48 0 
L 40.1875 0 
L 45.21875 20.21875 
L 30.90625 20.21875 
L 25.875 0 
L 18.015625 0 
L 23.09375 20.21875 
L 7.71875 20.21875 
L 7.71875 27.6875 
L 24.90625 27.6875 
L 29 44 
L 13.28125 44 
L 13.28125 51.515625 
L 30.90625 51.515625 
L 35.890625 71.78125 
z
" id="DejaVuSans-35"/>
      <path d="M 18.3125 70.21875 
L 18.3125 54.6875 
L 36.8125 54.6875 
L 36.8125 47.703125 
L 18.3125 47.703125 
L 18.3125 18.015625 
Q 18.3125 11.328125 20.140625 9.421875 
Q 21.96875 7.515625 27.59375 7.515625 
L 36.8125 7.515625 
L 36.8125 0 
L 27.59375 0 
Q 17.1875 0 13.234375 3.875 
Q 9.28125 7.765625 9.28125 18.015625 
L 9.28125 47.703125 
L 2.6875 47.703125 
L 2.6875 54.6875 
L 9.28125 54.6875 
L 9.28125 70.21875 
z
" id="DejaVuSans-116"/>
      <path d="M 25.390625 72.90625 
L 33.6875 72.90625 
L 8.296875 -9.28125 
L 0 -9.28125 
z
" id="DejaVuSans-47"/>
     </defs>
     <g transform="translate(47.517187 287.641094)rotate(-90)scale(0.1 -0.1)">
      <use xlink:href="#DejaVuSans-35"/>
      <use x="83.789062" xlink:href="#DejaVuSans-99"/>
      <use x="138.769531" xlink:href="#DejaVuSans-111"/>
      <use x="199.951172" xlink:href="#DejaVuSans-114"/>
      <use x="241.048828" xlink:href="#DejaVuSans-114"/>
      <use x="282.130859" xlink:href="#DejaVuSans-101"/>
      <use x="343.654297" xlink:href="#DejaVuSans-99"/>
      <use x="398.634766" xlink:href="#DejaVuSans-116"/>
      <use x="437.84375" xlink:href="#DejaVuSans-47"/>
      <use x="471.535156" xlink:href="#DejaVuSans-51"/>
      <use x="535.158203" xlink:href="#DejaVuSans-53"/>
      <use x="598.78125" xlink:href="#DejaVuSans-51"/>
     </g>
    </g>
   </g>
   <g id="line2d_45">
    <path clip-path="url(#pa73bc28dc4)" d="M 550.8 448.56 
L 519.18 447.460623 
L 521.15625 447.460623 
L 542.895 447.460623 
L 535.24918 446.361246 
L 535.978125 446.361246 
L 544.796203 446.361246 
L 538.9425 444.162493 
L 539.160736 444.162493 
L 542.828571 444.162493 
L 540.877406 443.063116 
L 541.080738 443.063116 
L 542.207609 443.063116 
L 540.526354 441.963739 
L 540.708511 441.963739 
L 540.986897 441.963739 
L 537.805479 439.764986 
L 537.981081 439.764986 
L 538.979439 439.764986 
L 537.543168 438.665609 
L 537.705828 438.665609 
L 538.741525 438.665609 
L 537.439437 437.566232 
L 537.588301 437.566232 
L 538.792405 437.566232 
L 537.625 436.466856 
L 537.75675 436.466856 
L 539.231707 436.466856 
L 538.207965 435.367479 
L 538.345733 435.367479 
L 540.708511 435.367479 
L 539.886903 434.268102 
L 540.020455 434.268102 
L 540.540599 434.268102 
L 539.769767 433.168725 
L 539.896552 433.168725 
L 540.739091 433.168725 
L 540.036762 432.069348 
L 540.165471 432.069348 
L 541.146676 432.069348 
L 539.889175 429.870595 
L 540.006024 429.870595 
L 540.48913 429.870595 
L 539.378327 427.671841 
L 539.421591 427.671841 
L 540.853311 427.671841 
L 540.341345 426.572465 
L 540.455398 426.572465 
L 540.544865 426.572465 
L 539.567922 424.373711 
L 539.663821 424.373711 
L 540.075848 424.373711 
L 539.599897 423.274334 
L 539.71372 423.274334 
L 540.972162 423.274334 
L 540.554095 422.174958 
L 540.672598 422.174958 
L 540.823488 422.174958 
L 540.4169 421.075581 
L 540.533766 421.075581 
L 540.682679 421.075581 
L 540.286957 419.976204 
L 540.402192 419.976204 
L 542.004137 419.976204 
L 541.394618 417.77745 
L 541.454187 417.77745 
L 541.753406 417.77745 
L 541.436692 416.678074 
L 541.550034 416.678074 
L 541.648503 416.678074 
L 541.339229 415.578697 
L 541.451117 415.578697 
L 541.572374 415.578697 
L 541.045758 413.379943 
L 541.083227 413.379943 
L 541.378771 413.379943 
L 541.090385 412.280567 
L 541.203495 412.280567 
L 540.91875 411.18119 
L 541.032465 411.18119 
L 541.286018 411.18119 
L 541.011969 410.081813 
L 541.126049 410.081813 
L 541.758333 410.081813 
L 541.30887 407.883059 
L 541.365 407.883059 
L 541.558768 407.883059 
L 541.314 406.783683 
L 541.427457 406.783683 
L 542.155683 406.783683 
L 541.932454 405.684306 
L 542.045764 405.684306 
L 542.152174 405.684306 
L 541.934579 404.584929 
L 542.045039 404.584929 
L 542.219267 404.584929 
L 542.008725 403.485552 
L 542.118616 403.485552 
L 543.206755 403.485552 
L 543.02459 402.386176 
L 543.135283 402.386176 
L 543.35861 402.386176 
L 543.184279 401.286799 
L 543.296358 401.286799 
L 543.367456 401.286799 
L 543.197377 400.187422 
L 543.309261 400.187422 
L 543.601242 400.187422 
L 543.440172 399.088045 
L 543.55017 399.088045 
L 544.026436 399.088045 
L 543.878109 397.988669 
L 543.988323 397.988669 
L 544.15431 397.988669 
L 543.965296 395.789915 
L 543.979629 395.789915 
L 544.995207 395.789915 
L 544.995207 395.789915 
" style="fill:none;stroke:#1f77b4;stroke-linecap:square;stroke-width:2;"/>
   </g>
   <g id="line2d_46">
    <path clip-path="url(#pa73bc28dc4)" d="M 550.8 448.56 
L 432.225 447.460623 
L 471.75 447.460623 
L 415.285714 446.361246 
L 445.4 446.361246 
L 408.51 445.26187 
L 467.1 445.26187 
L 445.4 444.162493 
L 425.984211 443.063116 
L 524.45 443.063116 
L 519.527473 441.963739 
L 519.867391 441.963739 
L 536.571 441.963739 
L 534.28209 440.864363 
L 534.525 440.864363 
L 542.22093 440.864363 
L 541.020619 439.764986 
L 541.169543 439.764986 
L 545.544598 439.764986 
L 544.895851 438.665609 
L 545.023681 438.665609 
L 545.724257 438.665609 
L 545.166983 437.566232 
L 545.291289 437.566232 
L 546.759966 437.566232 
L 546.359745 436.466856 
L 546.477465 436.466856 
L 547.241132 436.466856 
L 546.920245 435.367479 
L 547.035714 435.367479 
L 548.672299 435.367479 
L 548.331524 433.168725 
L 548.431883 433.168725 
L 548.545263 433.168725 
L 548.385031 432.069348 
L 548.496827 432.069348 
L 548.503518 432.069348 
L 548.35121 430.969972 
L 548.462827 430.969972 
L 548.497573 430.969972 
L 548.215259 428.771218 
L 548.323238 428.771218 
L 548.353754 428.771218 
L 548.218591 427.671841 
L 548.330364 427.671841 
L 548.502269 427.671841 
L 548.502269 427.671841 
" style="fill:none;stroke:#ff7f0e;stroke-linecap:square;stroke-width:2;"/>
   </g>
   <g id="line2d_47">
    <path clip-path="url(#pa73bc28dc4)" d="M 550.8 448.56 
L 540.020455 447.460623 
L 540.91875 447.460623 
L 548.165 447.460623 
L 545.559116 446.361246 
L 545.833508 446.361246 
L 546.080597 446.361246 
L 539.175 443.063116 
L 539.343478 443.063116 
L 541.389286 443.063116 
L 537.830859 440.864363 
L 537.881323 440.864363 
L 543.322297 440.864363 
L 542.273258 439.764986 
L 542.423841 439.764986 
L 544.412121 439.764986 
L 543.625714 438.665609 
L 543.755941 438.665609 
L 545.277749 438.665609 
L 544.672093 437.566232 
L 544.796203 437.566232 
L 545.994529 437.566232 
L 545.519332 436.466856 
L 545.639466 436.466856 
L 546.652703 436.466856 
L 546.279269 435.367479 
L 546.394737 435.367479 
L 546.63643 435.367479 
L 546.292763 434.268102 
L 546.408333 434.268102 
L 546.754134 434.268102 
L 546.44577 433.168725 
L 546.55977 433.168725 
L 547.249091 433.168725 
L 546.767694 430.969972 
L 546.859813 430.969972 
L 546.976927 430.969972 
L 546.556759 428.771218 
L 546.615 428.771218 
L 546.795591 428.771218 
L 546.575105 427.671841 
L 546.686947 427.671841 
L 546.854422 427.671841 
L 546.504916 425.473088 
L 546.554348 425.473088 
L 546.8475 425.473088 
L 546.660928 424.373711 
L 546.772752 424.373711 
L 546.827941 424.373711 
L 546.648973 423.274334 
L 546.761163 423.274334 
L 546.838889 423.274334 
L 546.668167 422.174958 
L 546.780508 422.174958 
L 546.85435 422.174958 
L 546.691372 421.075581 
L 546.803539 421.075581 
L 547.336945 421.075581 
L 547.148417 418.876827 
L 547.173237 418.876827 
L 547.534804 418.876827 
L 547.534804 418.876827 
" style="fill:none;stroke:#2ca02c;stroke-linecap:square;stroke-width:2;"/>
   </g>
   <g id="line2d_48">
    <path clip-path="url(#pa73bc28dc4)" d="M 550.8 448.56 
L 514.315385 447.460623 
L 516.921429 447.460623 
L 543.926087 447.460623 
L 537.248571 446.361246 
L 537.805479 446.361246 
L 541.407921 446.361246 
L 536.85 445.26187 
L 537.248571 445.26187 
L 537.745872 445.26187 
L 533.552727 444.162493 
L 533.860714 444.162493 
L 534.010619 444.162493 
L 529.997368 443.063116 
L 530.356034 443.063116 
L 530.530769 443.063116 
L 522.9 440.864363 
L 523.1325 440.864363 
L 525.455725 440.864363 
L 522.054545 439.764986 
L 522.270677 439.764986 
L 524.631724 439.764986 
L 521.562329 438.665609 
L 521.761224 438.665609 
L 531.657848 438.665609 
L 529.625893 437.566232 
L 529.813274 437.566232 
L 532.834091 437.566232 
L 531.112075 436.466856 
L 531.259551 436.466856 
L 532.557692 436.466856 
L 530.968641 435.367479 
L 531.105882 435.367479 
L 531.571622 435.367479 
L 530.039394 434.268102 
L 530.178261 434.268102 
L 533.332861 434.268102 
L 532.042373 433.168725 
L 532.2 433.168725 
L 533.233333 433.168725 
L 532.028232 432.069348 
L 532.175654 432.069348 
L 532.834091 432.069348 
L 530.591729 429.870595 
L 530.692519 429.870595 
L 529.562687 428.771218 
L 529.72 428.771218 
L 531.440816 428.771218 
L 530.411538 427.671841 
L 530.548989 427.671841 
L 530.950441 427.671841 
L 529.951648 426.572465 
L 530.08821 426.572465 
L 531.597571 426.572465 
L 530.678182 425.473088 
L 530.799398 425.473088 
L 530.998211 425.473088 
L 530.096429 424.373711 
L 530.218935 424.373711 
L 531.61875 424.373711 
L 529.989762 422.174958 
L 530.065574 422.174958 
L 530.617021 422.174958 
L 529.813274 421.075581 
L 529.92412 421.075581 
L 531.0375 421.075581 
L 530.281198 419.976204 
L 530.383113 419.976204 
L 530.617021 419.976204 
L 529.875 418.876827 
L 529.977073 418.876827 
L 530.569194 418.876827 
L 529.852997 417.77745 
L 529.984326 417.77745 
L 530.368615 417.77745 
L 529.671429 416.678074 
L 529.800458 416.678074 
L 529.864384 416.678074 
L 529.17538 415.578697 
L 529.306042 415.578697 
L 530.297118 415.578697 
L 529.644173 414.47932 
L 529.765236 414.47932 
L 531.143182 414.47932 
L 530.536182 413.379943 
L 530.643825 413.379943 
L 531.16533 413.379943 
L 530.577907 412.280567 
L 530.681877 412.280567 
L 531.476667 412.280567 
L 530.91566 411.18119 
L 531.0375 411.18119 
L 531.276755 411.18119 
L 530.726844 410.081813 
L 530.847476 410.081813 
L 532.577717 410.081813 
L 532.077632 408.982436 
L 532.179716 408.982436 
L 532.499035 408.982436 
L 532.010814 407.883059 
L 532.130745 407.883059 
L 533.561198 407.883059 
L 533.112659 406.783683 
L 533.216195 406.783683 
L 533.352372 406.783683 
L 532.910542 405.684306 
L 533.01375 405.684306 
L 533.447561 405.684306 
L 533.019306 404.584929 
L 533.135196 404.584929 
L 533.16803 404.584929 
L 532.744011 403.485552 
L 532.860609 403.485552 
L 533.948787 403.485552 
L 533.552727 402.386176 
L 533.656627 402.386176 
L 534.68301 402.386176 
L 534.312611 401.286799 
L 534.418554 401.286799 
L 535.026682 401.286799 
L 534.672334 400.187422 
L 534.78373 400.187422 
L 535.364201 400.187422 
L 534.769287 397.988669 
L 534.79281 397.988669 
L 534.851316 397.988669 
L 534.516508 396.889292 
L 534.622859 396.889292 
L 534.63459 396.889292 
L 534.05598 394.690538 
L 534.080072 394.690538 
L 534.270341 394.690538 
L 533.944989 393.591161 
L 534.052119 393.591161 
L 535.588326 393.591161 
L 535.040511 391.392408 
L 535.110687 391.392408 
L 535.140571 391.392408 
L 534.589747 389.193654 
L 534.671411 389.193654 
L 534.77234 389.193654 
L 534.209869 386.994901 
L 534.312849 386.994901 
L 534.663426 386.994901 
L 534.385246 385.895524 
L 534.49415 385.895524 
L 534.850088 385.895524 
L 534.358343 383.696771 
L 534.416101 383.696771 
L 534.763496 383.696771 
L 534.257804 381.498017 
L 534.351848 381.498017 
L 535.058814 381.498017 
L 534.400648 378.199887 
L 534.418349 378.199887 
L 534.453635 378.199887 
L 534.207158 377.10051 
L 534.313636 377.10051 
L 534.505338 377.10051 
L 534.263391 376.001133 
L 534.37618 376.001133 
L 534.647368 376.001133 
L 534.411088 374.901756 
L 534.520236 374.901756 
L 535.076051 374.901756 
L 534.849258 373.80238 
L 534.958939 373.80238 
L 535.331223 373.80238 
L 535.111266 372.703003 
L 535.223275 372.703003 
L 535.725518 372.703003 
L 535.514088 371.603626 
L 535.625868 371.603626 
L 537.091908 371.603626 
L 536.769762 369.404873 
L 536.821449 369.404873 
L 537.952144 369.404873 
L 537.693876 367.206119 
L 537.713423 367.206119 
L 537.805479 367.206119 
L 537.634752 366.106742 
L 537.745872 366.106742 
L 538.149751 366.106742 
L 537.985638 365.007365 
L 538.094043 365.007365 
L 538.147561 365.007365 
L 537.985579 363.907989 
L 538.097009 363.907989 
L 538.461791 363.907989 
L 538.305775 362.808612 
L 538.41453 362.808612 
L 538.68228 362.808612 
L 538.530943 361.709235 
L 538.642408 361.709235 
L 538.759608 361.709235 
L 538.611115 360.609858 
L 538.719771 360.609858 
L 538.979439 360.609858 
L 538.691469 358.411105 
L 538.799815 358.411105 
L 538.992896 358.411105 
L 538.745174 356.212351 
L 538.821287 356.212351 
L 539.112936 356.212351 
L 538.794152 352.914221 
L 538.815074 352.914221 
L 538.849783 352.914221 
L 538.715924 351.814844 
L 538.82685 351.814844 
L 538.979439 351.814844 
L 538.848499 350.715467 
L 538.95913 350.715467 
L 538.992252 350.715467 
L 538.607879 347.417337 
L 538.715924 347.417337 
L 539.234773 347.417337 
L 539.112162 346.31796 
L 539.222598 346.31796 
L 539.553213 346.31796 
L 539.553213 346.31796 
" style="fill:none;stroke:#d62728;stroke-linecap:square;stroke-width:2;"/>
   </g>
   <g id="line2d_49">
    <path clip-path="url(#pa73bc28dc4)" d="M 550.8 448.56 
L 392.7 447.460623 
L 507.681818 447.460623 
L 471.75 446.361246 
L 483.042857 446.361246 
L 455.94 445.26187 
L 461.86875 445.26187 
L 439.2 444.162493 
L 419.05 443.063116 
L 447.691304 443.063116 
L 432.225 441.963739 
L 445.4 441.963739 
L 432.225 440.864363 
L 447.046875 440.864363 
L 435.818182 439.764986 
L 439.2 439.764986 
L 419.05 437.566232 
L 435.117073 437.566232 
L 426.578571 436.466856 
L 434.86 436.466856 
L 427.069565 435.367479 
L 450.947368 435.367479 
L 438.254237 433.168725 
L 450.190909 433.168725 
L 444.613433 432.069348 
L 447.691304 432.069348 
L 442.388571 430.969972 
L 453.507692 430.969972 
L 448.735443 429.870595 
L 452.469512 429.870595 
L 447.939759 428.771218 
L 454.874157 428.771218 
L 446.558242 426.572465 
L 450.947368 426.572465 
L 447.046875 425.473088 
L 450.190909 425.473088 
L 446.454 424.373711 
L 467.3232 424.373711 
L 464.221429 423.274334 
L 467.525954 423.274334 
L 461.645865 421.075581 
L 469.024138 421.075581 
L 466.335616 419.976204 
L 467.477027 419.976204 
L 464.85302 418.876827 
L 471.259006 418.876827 
L 468.822222 417.77745 
L 474.475862 417.77745 
L 472.201714 416.678074 
L 473.526404 416.678074 
L 471.30838 415.578697 
L 471.75 415.578697 
L 469.566298 414.47932 
L 473.414211 414.47932 
L 471.336126 413.379943 
L 475.289552 413.379943 
L 473.315347 412.280567 
L 476.267143 412.280567 
L 474.372512 411.18119 
L 485.775 411.18119 
L 484.131325 410.081813 
L 484.66255 410.081813 
L 483.042857 408.982436 
L 484.361089 408.982436 
L 482.780233 407.883059 
L 483.562069 407.883059 
L 482.008397 406.783683 
L 482.269962 406.783683 
L 480.732955 405.684306 
L 480.997358 405.684306 
L 479.476692 404.584929 
L 483.761131 404.584929 
L 479.489161 401.286799 
L 479.737631 401.286799 
L 476.947059 399.088045 
L 477.705822 399.088045 
L 476.336519 397.988669 
L 479.26623 397.988669 
L 477.95 396.889292 
L 484.256418 396.889292 
L 483.042857 395.789915 
L 483.642478 395.789915 
L 482.445 394.690538 
L 482.645455 394.690538 
L 481.457895 393.591161 
L 484.184831 393.591161 
L 483.042857 392.491785 
L 483.793629 392.491785 
L 480.436813 389.193654 
L 480.629589 389.193654 
L 479.52541 388.094278 
L 480.863003 388.094278 
L 478.7064 385.895524 
L 480.578961 385.895524 
L 479.532124 384.796147 
L 479.899485 384.796147 
L 478.862468 383.696771 
L 480.312091 383.696771 
L 479.297487 382.597394 
L 481.390244 382.597394 
L 480.405109 381.498017 
L 480.746005 381.498017 
L 479.769565 380.39864 
L 480.617184 380.39864 
L 479.655 379.299263 
L 481.147552 379.299263 
L 479.269838 377.10051 
L 479.927586 377.10051 
L 479.002294 376.001133 
L 479.16659 376.001133 
L 478.24726 374.901756 
L 479.866741 374.901756 
L 478.968374 373.80238 
L 479.286918 373.80238 
L 478.395796 372.703003 
L 480.721413 372.703003 
L 479.857692 371.603626 
L 480.159574 371.603626 
L 479.302548 370.504249 
L 481.078882 370.504249 
L 480.242975 369.404873 
L 484.746615 369.404873 
L 483.958494 368.305496 
L 484.087283 368.305496 
L 485.471887 368.305496 
L 484.701695 367.206119 
L 484.82594 367.206119 
L 485.073034 367.206119 
L 484.309346 366.106742 
L 484.433396 366.106742 
L 484.680112 366.106742 
L 483.92282 365.007365 
L 484.046667 365.007365 
L 484.292989 365.007365 
L 483.541989 363.907989 
L 483.665625 363.907989 
L 484.277049 363.907989 
L 483.535636 362.808612 
L 483.657713 362.808612 
L 483.900542 362.808612 
L 483.165162 361.709235 
L 483.287027 361.709235 
L 484.009091 361.709235 
L 482.561456 359.510482 
L 482.682447 359.510482 
L 484.332353 359.510482 
L 483.627979 358.411105 
L 483.743793 358.411105 
L 484.088851 358.411105 
L 483.390925 357.311728 
L 483.506154 357.311728 
L 484.18934 357.311728 
L 483.500676 356.212351 
L 483.614165 356.212351 
L 484.17592 356.212351 
L 483.495326 355.112975 
L 483.6075 355.112975 
L 483.941791 355.112975 
L 482.594876 352.914221 
L 482.707426 352.914221 
L 483.594625 352.914221 
L 482.383955 350.715467 
L 482.605008 350.715467 
L 481.95 349.616091 
L 482.06087 349.616091 
L 482.82707 349.616091 
L 482.181081 348.516714 
L 482.29 348.516714 
L 483.25493 348.516714 
L 482.619375 347.417337 
L 482.725741 347.417337 
L 483.042857 347.417337 
L 482.412558 346.31796 
L 482.518421 346.31796 
L 483.146779 346.31796 
L 481.903211 344.119207 
L 482.008397 344.119207 
L 482.838462 344.119207 
L 482.226506 343.01983 
L 482.329624 343.01983 
L 482.637126 343.01983 
L 481.424776 340.821076 
L 481.528167 340.821076 
L 483.435652 340.821076 
L 482.846744 339.7217 
L 482.944942 339.7217 
L 483.431707 339.7217 
L 482.848711 338.622323 
L 482.945923 338.622323 
L 483.139515 338.622323 
L 482.560256 337.522946 
L 482.657326 337.522946 
L 483.800979 337.522946 
L 483.232123 336.423569 
L 483.32636 336.423569 
L 483.700693 336.423569 
L 483.136704 335.324193 
L 483.23029 335.324193 
L 484.333469 335.324193 
L 483.779348 334.224816 
L 483.870285 334.224816 
L 485.29243 334.224816 
L 484.209536 332.026062 
L 484.297619 332.026062 
L 484.82126 332.026062 
L 484.286107 330.926686 
L 484.373168 330.926686 
L 487.756398 330.926686 
L 487.246154 329.827309 
L 487.324907 329.827309 
L 487.56 329.827309 
L 486.547537 327.628555 
L 486.626568 327.628555 
L 487.406318 327.628555 
L 485.992382 324.330425 
L 486.070652 324.330425 
L 485.576598 323.231048 
L 485.655181 323.231048 
L 485.733574 323.231048 
L 484.261511 319.932918 
L 484.341198 319.932918 
L 484.5 319.932918 
L 484.013126 318.833541 
L 484.092729 318.833541 
L 484.644681 318.833541 
L 484.16281 317.734164 
L 484.241392 317.734164 
L 484.709016 317.734164 
L 484.231579 316.634788 
L 484.309346 316.634788 
L 485.077136 316.634788 
L 484.212428 314.436034 
L 484.365327 314.436034 
L 483.897592 313.336657 
L 483.974227 313.336657 
L 484.050686 313.336657 
L 483.584914 312.23728 
L 483.661644 312.23728 
L 483.814579 312.23728 
L 482.965948 310.038527 
L 483.119592 310.038527 
L 482.659615 308.93915 
L 482.73661 308.93915 
L 482.813431 308.93915 
L 482.355355 307.839773 
L 482.432432 307.839773 
L 482.739013 307.839773 
L 482.284099 306.740397 
L 482.360738 306.740397 
L 482.741379 306.740397 
L 482.29 305.64102 
L 482.366038 305.64102 
L 482.968317 305.64102 
L 482.521648 304.541643 
L 482.596597 304.541643 
L 482.968886 304.541643 
L 482.525627 303.442266 
L 482.6 303.442266 
L 482.895879 303.442266 
L 482.45558 302.34289 
L 482.529545 302.34289 
L 483.476734 302.34289 
L 482.682447 300.144136 
L 483.399474 300.144136 
L 482.971609 299.044759 
L 483.042857 299.044759 
L 484.368692 299.044759 
L 483.949074 297.945382 
L 484.01778 297.945382 
L 484.898276 297.945382 
L 484.484498 296.846006 
L 484.551619 296.846006 
L 485.607371 296.846006 
L 485.200299 295.746629 
L 485.265507 295.746629 
L 486.480293 295.746629 
L 486.080702 294.647252 
L 486.14372 294.647252 
L 486.581431 294.647252 
L 486.185217 293.547875 
L 486.247587 293.547875 
L 487.649575 293.547875 
L 486.934746 291.349122 
L 487.70707 291.349122 
L 487.324907 290.249745 
L 487.383844 290.249745 
L 488.426301 290.249745 
L 488.050456 289.150368 
L 488.164754 289.150368 
L 488.561538 289.150368 
L 488.188969 288.050992 
L 488.301986 288.050992 
L 488.526799 288.050992 
L 488.156604 286.951615 
L 488.268969 286.951615 
L 488.989628 286.951615 
L 488.624269 285.852238 
L 488.734218 285.852238 
L 489.170149 285.852238 
L 488.808158 284.752861 
L 488.916725 284.752861 
L 489.293734 284.752861 
L 488.684389 282.554108 
L 489.847404 282.554108 
L 489.197368 280.355354 
L 489.249618 280.355354 
L 490.527658 280.355354 
L 490.184066 279.255977 
L 490.284507 279.255977 
L 490.831034 279.255977 
L 490.49114 278.156601 
L 490.589926 278.156601 
L 491.368715 278.156601 
L 491.033603 277.057224 
L 491.13 277.057224 
L 491.178082 277.057224 
L 490.844203 275.957847 
L 490.940595 275.957847 
L 491.323083 275.957847 
L 490.992019 274.85847 
L 491.087331 274.85847 
L 491.277045 274.85847 
L 490.947857 273.759093 
L 491.04271 273.759093 
L 491.325473 273.759093 
L 490.998582 272.659717 
L 491.092683 272.659717 
L 491.743191 272.659717 
L 491.420295 271.56034 
L 491.5125 271.56034 
L 491.832973 271.56034 
L 491.5125 270.460963 
L 491.603852 270.460963 
L 492.766314 270.460963 
L 492.452151 269.361586 
L 492.54009 269.361586 
L 492.671504 269.361586 
L 492.358828 268.26221 
L 492.446512 268.26221 
L 493.138621 268.26221 
L 492.83 267.162833 
L 492.915754 267.162833 
L 493.001256 267.162833 
L 492.693875 266.063456 
L 492.779514 266.063456 
L 493.455645 266.063456 
L 493.152183 264.964079 
L 493.235974 264.964079 
L 493.444388 264.964079 
L 493.142692 263.864703 
L 493.226012 263.864703 
L 494.046154 263.864703 
L 493.748968 262.765326 
L 493.830064 262.765326 
L 496.308702 262.765326 
L 496.023505 261.665949 
L 496.134915 261.665949 
L 496.6125 261.665949 
L 496.330356 260.566572 
L 496.439879 260.566572 
L 497.194382 260.566572 
L 496.916513 259.467195 
L 497.023072 259.467195 
L 497.826234 259.467195 
L 497.552823 258.367819 
L 497.656282 258.367819 
L 497.964263 258.367819 
L 497.69305 257.268442 
L 497.795376 257.268442 
L 499.252092 257.268442 
L 498.988202 256.169065 
L 499.085047 256.169065 
L 499.690086 256.169065 
L 499.232985 253.970312 
L 499.264641 253.970312 
L 499.485147 253.970312 
L 499.226756 252.870935 
L 499.321098 252.870935 
L 499.539891 252.870935 
L 499.283192 251.771558 
L 499.376802 251.771558 
L 499.717148 251.771558 
L 499.462658 250.672181 
L 499.555102 250.672181 
L 499.647214 250.672181 
L 499.393832 249.572805 
L 499.486013 249.572805 
L 500.032229 249.572805 
L 499.781915 248.473428 
L 499.872212 248.473428 
L 500.200586 248.473428 
L 499.952373 247.374051 
L 500.041579 247.374051 
L 500.395296 247.374051 
L 499.903538 245.175297 
L 499.991951 245.175297 
L 501.113986 245.175297 
L 500.873684 244.075921 
L 500.986448 244.075921 
L 501.432457 244.075921 
L 500.957406 241.877167 
L 501.0686 241.877167 
L 501.994089 241.877167 
L 501.761324 240.77779 
L 501.868395 240.77779 
L 502.785699 240.77779 
L 502.329535 238.579037 
L 502.433049 238.579037 
L 502.791892 238.579037 
L 502.566102 237.47966 
L 502.668076 237.47966 
L 503.171548 237.47966 
L 502.94851 236.380283 
L 503.048357 236.380283 
L 504.143578 236.380283 
L 503.925726 235.280907 
L 504.021047 235.280907 
L 505.021791 235.280907 
L 504.6875 233.082153 
L 505.028065 233.082153 
L 504.817175 231.982776 
L 504.930044 231.982776 
L 505.85671 231.982776 
L 505.46585 229.784023 
L 505.55278 229.784023 
L 506.04623 229.784023 
L 505.842654 228.684646 
L 505.948936 228.684646 
L 506.801855 228.684646 
L 506.602364 227.585269 
L 506.704579 227.585269 
L 507.327907 227.585269 
L 507.131541 226.485892 
L 507.230832 226.485892 
L 507.565072 226.485892 
L 507.370636 225.386516 
L 507.468362 225.386516 
L 510.139992 225.386516 
L 509.956944 224.287139 
L 510.060126 224.287139 
L 512.066133 224.287139 
L 511.764523 222.088385 
L 511.826805 222.088385 
L 512.07396 222.088385 
L 511.775316 219.889632 
L 511.836967 219.889632 
L 515.401938 219.889632 
L 515.244512 218.790255 
L 515.346245 218.790255 
L 515.46 218.790255 
L 515.303564 217.690878 
L 515.404478 217.690878 
L 516.967459 217.690878 
L 516.817895 216.591501 
L 516.921429 216.591501 
L 519.545378 216.591501 
L 519.407056 215.492125 
L 519.514499 215.492125 
L 520.613389 215.492125 
L 520.480102 214.392748 
L 520.588906 214.392748 
L 521.337795 214.392748 
L 521.208105 213.293371 
L 521.319837 213.293371 
L 522.062684 213.293371 
L 521.936569 212.193994 
L 522.042386 212.193994 
L 524.799363 212.193994 
L 524.799363 212.193994 
" style="fill:none;stroke:#9467bd;stroke-linecap:square;stroke-width:2;"/>
   </g>
   <g id="line2d_50">
    <path clip-path="url(#pa73bc28dc4)" d="M 550.8 448.56 
L 516.921429 447.460623 
L 487.56 446.361246 
L 527.085 446.361246 
L 505.628571 444.162493 
L 508.64 444.162493 
L 490.251064 441.963739 
L 510.145714 441.963739 
L 504.038028 440.864363 
L 515.479787 440.864363 
L 510.858947 439.764986 
L 511.275 439.764986 
L 524.45 439.764986 
L 521.36069 438.665609 
L 521.562329 438.665609 
L 536.758224 438.665609 
L 535.24918 437.566232 
L 535.400649 437.566232 
L 539.507143 437.566232 
L 538.407363 436.466856 
L 538.552817 436.466856 
L 540.785988 436.466856 
L 539.896552 435.367479 
L 540.020455 435.367479 
L 541.070769 435.367479 
L 540.277986 434.268102 
L 540.402192 434.268102 
L 542.016667 434.268102 
L 541.354481 433.168725 
L 541.473876 433.168725 
L 543.780761 433.168725 
L 543.287328 432.069348 
L 543.40447 432.069348 
L 544.39631 432.069348 
L 543.97554 430.969972 
L 544.090186 430.969972 
L 544.829268 430.969972 
L 544.135363 428.771218 
L 544.207413 428.771218 
L 545.490672 428.771218 
L 544.922677 426.572465 
L 545.019378 426.572465 
L 545.146841 426.572465 
L 544.867719 425.473088 
L 544.982068 425.473088 
L 545.84216 425.473088 
L 545.608657 424.373711 
L 545.719864 424.373711 
L 546.052684 424.373711 
L 545.839154 423.274334 
L 545.9516 423.274334 
L 547.558128 423.274334 
L 547.418182 422.174958 
L 547.529905 422.174958 
L 547.710936 422.174958 
L 547.583098 421.075581 
L 547.694316 421.075581 
L 547.77667 421.075581 
L 547.77667 421.075581 
" style="fill:none;stroke:#8c564b;stroke-linecap:square;stroke-width:2;"/>
   </g>
   <g id="patch_3">
    <path d="M 76.5 448.56 
L 76.5 60.48 
" style="fill:none;stroke:#000000;stroke-linecap:square;stroke-linejoin:miter;stroke-width:0.8;"/>
   </g>
   <g id="patch_4">
    <path d="M 550.8 448.56 
L 550.8 60.48 
" style="fill:none;stroke:#000000;stroke-linecap:square;stroke-linejoin:miter;stroke-width:0.8;"/>
   </g>
   <g id="patch_5">
    <path d="M 76.5 448.56 
L 550.8 448.56 
" style="fill:none;stroke:#000000;stroke-linecap:square;stroke-linejoin:miter;stroke-width:0.8;"/>
   </g>
   <g id="patch_6">
    <path d="M 76.5 60.48 
L 550.8 60.48 
" style="fill:none;stroke:#000000;stroke-linecap:square;stroke-linejoin:miter;stroke-width:0.8;"/>
   </g>
   <g id="text_25">
    <!-- graf: img1-img5 -->
    <defs>
     <path d="M 45.40625 27.984375 
Q 45.40625 37.75 41.375 43.109375 
Q 37.359375 48.484375 30.078125 48.484375 
Q 22.859375 48.484375 18.828125 43.109375 
Q 14.796875 37.75 14.796875 27.984375 
Q 14.796875 18.265625 18.828125 12.890625 
Q 22.859375 7.515625 30.078125 7.515625 
Q 37.359375 7.515625 41.375 12.890625 
Q 45.40625 18.265625 45.40625 27.984375 
z
M 54.390625 6.78125 
Q 54.390625 -7.171875 48.1875 -13.984375 
Q 42 -20.796875 29.203125 -20.796875 
Q 24.46875 -20.796875 20.265625 -20.09375 
Q 16.0625 -19.390625 12.109375 -17.921875 
L 12.109375 -9.1875 
Q 16.0625 -11.328125 19.921875 -12.34375 
Q 23.78125 -13.375 27.78125 -13.375 
Q 36.625 -13.375 41.015625 -8.765625 
Q 45.40625 -4.15625 45.40625 5.171875 
L 45.40625 9.625 
Q 42.625 4.78125 38.28125 2.390625 
Q 33.9375 0 27.875 0 
Q 17.828125 0 11.671875 7.65625 
Q 5.515625 15.328125 5.515625 27.984375 
Q 5.515625 40.671875 11.671875 48.328125 
Q 17.828125 56 27.875 56 
Q 33.9375 56 38.28125 53.609375 
Q 42.625 51.21875 45.40625 46.390625 
L 45.40625 54.6875 
L 54.390625 54.6875 
z
" id="DejaVuSans-103"/>
     <path d="M 34.28125 27.484375 
Q 23.390625 27.484375 19.1875 25 
Q 14.984375 22.515625 14.984375 16.5 
Q 14.984375 11.71875 18.140625 8.90625 
Q 21.296875 6.109375 26.703125 6.109375 
Q 34.1875 6.109375 38.703125 11.40625 
Q 43.21875 16.703125 43.21875 25.484375 
L 43.21875 27.484375 
z
M 52.203125 31.203125 
L 52.203125 0 
L 43.21875 0 
L 43.21875 8.296875 
Q 40.140625 3.328125 35.546875 0.953125 
Q 30.953125 -1.421875 24.3125 -1.421875 
Q 15.921875 -1.421875 10.953125 3.296875 
Q 6 8.015625 6 15.921875 
Q 6 25.140625 12.171875 29.828125 
Q 18.359375 34.515625 30.609375 34.515625 
L 43.21875 34.515625 
L 43.21875 35.40625 
Q 43.21875 41.609375 39.140625 45 
Q 35.0625 48.390625 27.6875 48.390625 
Q 23 48.390625 18.546875 47.265625 
Q 14.109375 46.140625 10.015625 43.890625 
L 10.015625 52.203125 
Q 14.9375 54.109375 19.578125 55.046875 
Q 24.21875 56 28.609375 56 
Q 40.484375 56 46.34375 49.84375 
Q 52.203125 43.703125 52.203125 31.203125 
z
" id="DejaVuSans-97"/>
     <path d="M 37.109375 75.984375 
L 37.109375 68.5 
L 28.515625 68.5 
Q 23.6875 68.5 21.796875 66.546875 
Q 19.921875 64.59375 19.921875 59.515625 
L 19.921875 54.6875 
L 34.71875 54.6875 
L 34.71875 47.703125 
L 19.921875 47.703125 
L 19.921875 0 
L 10.890625 0 
L 10.890625 47.703125 
L 2.296875 47.703125 
L 2.296875 54.6875 
L 10.890625 54.6875 
L 10.890625 58.5 
Q 10.890625 67.625 15.140625 71.796875 
Q 19.390625 75.984375 28.609375 75.984375 
z
" id="DejaVuSans-102"/>
     <path d="M 11.71875 12.40625 
L 22.015625 12.40625 
L 22.015625 0 
L 11.71875 0 
z
M 11.71875 51.703125 
L 22.015625 51.703125 
L 22.015625 39.3125 
L 11.71875 39.3125 
z
" id="DejaVuSans-58"/>
     <path id="DejaVuSans-32"/>
     <path d="M 52 44.1875 
Q 55.375 50.25 60.0625 53.125 
Q 64.75 56 71.09375 56 
Q 79.640625 56 84.28125 50.015625 
Q 88.921875 44.046875 88.921875 33.015625 
L 88.921875 0 
L 79.890625 0 
L 79.890625 32.71875 
Q 79.890625 40.578125 77.09375 44.375 
Q 74.3125 48.1875 68.609375 48.1875 
Q 61.625 48.1875 57.5625 43.546875 
Q 53.515625 38.921875 53.515625 30.90625 
L 53.515625 0 
L 44.484375 0 
L 44.484375 32.71875 
Q 44.484375 40.625 41.703125 44.40625 
Q 38.921875 48.1875 33.109375 48.1875 
Q 26.21875 48.1875 22.15625 43.53125 
Q 18.109375 38.875 18.109375 30.90625 
L 18.109375 0 
L 9.078125 0 
L 9.078125 54.6875 
L 18.109375 54.6875 
L 18.109375 46.1875 
Q 21.1875 51.21875 25.484375 53.609375 
Q 29.78125 56 35.6875 56 
Q 41.65625 56 45.828125 52.96875 
Q 50 49.953125 52 44.1875 
z
" id="DejaVuSans-109"/>
    </defs>
    <g transform="translate(265.219688 41.042625)scale(0.12 -0.12)">
     <use xlink:href="#DejaVuSans-103"/>
     <use x="63.476562" xlink:href="#DejaVuSans-114"/>
     <use x="104.589844" xlink:href="#DejaVuSans-97"/>
     <use x="165.869141" xlink:href="#DejaVuSans-102"/>
     <use x="201.027344" xlink:href="#DejaVuSans-58"/>
     <use x="234.71875" xlink:href="#DejaVuSans-32"/>
     <use x="266.505859" xlink:href="#DejaVuSans-105"/>
     <use x="294.289062" xlink:href="#DejaVuSans-109"/>
     <use x="391.701172" xlink:href="#DejaVuSans-103"/>
     <use x="455.177734" xlink:href="#DejaVuSans-49"/>
     <use x="518.800781" xlink:href="#DejaVuSans-45"/>
     <use x="554.884766" xlink:href="#DejaVuSans-105"/>
     <use x="582.667969" xlink:href="#DejaVuSans-109"/>
     <use x="680.080078" xlink:href="#DejaVuSans-103"/>
     <use x="743.556641" xlink:href="#DejaVuSans-53"/>
    </g>
    <!-- NearestNeighbours -->
    <defs>
     <path d="M 9.8125 72.90625 
L 23.09375 72.90625 
L 55.421875 11.921875 
L 55.421875 72.90625 
L 64.984375 72.90625 
L 64.984375 0 
L 51.703125 0 
L 19.390625 60.984375 
L 19.390625 0 
L 9.8125 0 
z
" id="DejaVuSans-78"/>
     <path d="M 54.890625 33.015625 
L 54.890625 0 
L 45.90625 0 
L 45.90625 32.71875 
Q 45.90625 40.484375 42.875 44.328125 
Q 39.84375 48.1875 33.796875 48.1875 
Q 26.515625 48.1875 22.3125 43.546875 
Q 18.109375 38.921875 18.109375 30.90625 
L 18.109375 0 
L 9.078125 0 
L 9.078125 75.984375 
L 18.109375 75.984375 
L 18.109375 46.1875 
Q 21.34375 51.125 25.703125 53.5625 
Q 30.078125 56 35.796875 56 
Q 45.21875 56 50.046875 50.171875 
Q 54.890625 44.34375 54.890625 33.015625 
z
" id="DejaVuSans-104"/>
     <path d="M 48.6875 27.296875 
Q 48.6875 37.203125 44.609375 42.84375 
Q 40.53125 48.484375 33.40625 48.484375 
Q 26.265625 48.484375 22.1875 42.84375 
Q 18.109375 37.203125 18.109375 27.296875 
Q 18.109375 17.390625 22.1875 11.75 
Q 26.265625 6.109375 33.40625 6.109375 
Q 40.53125 6.109375 44.609375 11.75 
Q 48.6875 17.390625 48.6875 27.296875 
z
M 18.109375 46.390625 
Q 20.953125 51.265625 25.265625 53.625 
Q 29.59375 56 35.59375 56 
Q 45.5625 56 51.78125 48.09375 
Q 58.015625 40.1875 58.015625 27.296875 
Q 58.015625 14.40625 51.78125 6.484375 
Q 45.5625 -1.421875 35.59375 -1.421875 
Q 29.59375 -1.421875 25.265625 0.953125 
Q 20.953125 3.328125 18.109375 8.203125 
L 18.109375 0 
L 9.078125 0 
L 9.078125 75.984375 
L 18.109375 75.984375 
z
" id="DejaVuSans-98"/>
     <path d="M 8.5 21.578125 
L 8.5 54.6875 
L 17.484375 54.6875 
L 17.484375 21.921875 
Q 17.484375 14.15625 20.5 10.265625 
Q 23.53125 6.390625 29.59375 6.390625 
Q 36.859375 6.390625 41.078125 11.03125 
Q 45.3125 15.671875 45.3125 23.6875 
L 45.3125 54.6875 
L 54.296875 54.6875 
L 54.296875 0 
L 45.3125 0 
L 45.3125 8.40625 
Q 42.046875 3.421875 37.71875 1 
Q 33.40625 -1.421875 27.6875 -1.421875 
Q 18.265625 -1.421875 13.375 4.4375 
Q 8.5 10.296875 8.5 21.578125 
z
M 31.109375 56 
z
" id="DejaVuSans-117"/>
    </defs>
    <g transform="translate(255.824063 54.48)scale(0.12 -0.12)">
     <use xlink:href="#DejaVuSans-78"/>
     <use x="74.804688" xlink:href="#DejaVuSans-101"/>
     <use x="136.328125" xlink:href="#DejaVuSans-97"/>
     <use x="197.607422" xlink:href="#DejaVuSans-114"/>
     <use x="238.689453" xlink:href="#DejaVuSans-101"/>
     <use x="300.212891" xlink:href="#DejaVuSans-115"/>
     <use x="352.3125" xlink:href="#DejaVuSans-116"/>
     <use x="391.521484" xlink:href="#DejaVuSans-78"/>
     <use x="466.326172" xlink:href="#DejaVuSans-101"/>
     <use x="527.849609" xlink:href="#DejaVuSans-105"/>
     <use x="555.632812" xlink:href="#DejaVuSans-103"/>
     <use x="619.109375" xlink:href="#DejaVuSans-104"/>
     <use x="682.488281" xlink:href="#DejaVuSans-98"/>
     <use x="745.964844" xlink:href="#DejaVuSans-111"/>
     <use x="807.146484" xlink:href="#DejaVuSans-117"/>
     <use x="870.525391" xlink:href="#DejaVuSans-114"/>
     <use x="911.638672" xlink:href="#DejaVuSans-115"/>
    </g>
   </g>
   <g id="legend_1">
    <g id="patch_7">
     <path d="M 374.989063 156.54875 
L 543.8 156.54875 
Q 545.8 156.54875 545.8 154.54875 
L 545.8 67.48 
Q 545.8 65.48 543.8 65.48 
L 374.989063 65.48 
Q 372.989063 65.48 372.989063 67.48 
L 372.989063 154.54875 
Q 372.989063 156.54875 374.989063 156.54875 
z
" style="fill:#ffffff;opacity:0.8;stroke:#cccccc;stroke-linejoin:miter;"/>
    </g>
    <g id="line2d_51">
     <path d="M 376.989063 73.578438 
L 396.989063 73.578438 
" style="fill:none;stroke:#1f77b4;stroke-linecap:square;stroke-width:2;"/>
    </g>
    <g id="line2d_52"/>
    <g id="text_26">
     <!-- root-cvsift AP: 0.3, %In: 1.2 -->
     <defs>
      <path d="M 2.984375 54.6875 
L 12.5 54.6875 
L 29.59375 8.796875 
L 46.6875 54.6875 
L 56.203125 54.6875 
L 35.6875 0 
L 23.484375 0 
z
" id="DejaVuSans-118"/>
      <path d="M 34.1875 63.1875 
L 20.796875 26.90625 
L 47.609375 26.90625 
z
M 28.609375 72.90625 
L 39.796875 72.90625 
L 67.578125 0 
L 57.328125 0 
L 50.6875 18.703125 
L 17.828125 18.703125 
L 11.1875 0 
L 0.78125 0 
z
" id="DejaVuSans-65"/>
      <path d="M 19.671875 64.796875 
L 19.671875 37.40625 
L 32.078125 37.40625 
Q 38.96875 37.40625 42.71875 40.96875 
Q 46.484375 44.53125 46.484375 51.125 
Q 46.484375 57.671875 42.71875 61.234375 
Q 38.96875 64.796875 32.078125 64.796875 
z
M 9.8125 72.90625 
L 32.078125 72.90625 
Q 44.34375 72.90625 50.609375 67.359375 
Q 56.890625 61.8125 56.890625 51.125 
Q 56.890625 40.328125 50.609375 34.8125 
Q 44.34375 29.296875 32.078125 29.296875 
L 19.671875 29.296875 
L 19.671875 0 
L 9.8125 0 
z
" id="DejaVuSans-80"/>
      <path d="M 11.71875 12.40625 
L 22.015625 12.40625 
L 22.015625 4 
L 14.015625 -11.625 
L 7.71875 -11.625 
L 11.71875 4 
z
" id="DejaVuSans-44"/>
      <path d="M 72.703125 32.078125 
Q 68.453125 32.078125 66.03125 28.46875 
Q 63.625 24.859375 63.625 18.40625 
Q 63.625 12.0625 66.03125 8.421875 
Q 68.453125 4.78125 72.703125 4.78125 
Q 76.859375 4.78125 79.265625 8.421875 
Q 81.6875 12.0625 81.6875 18.40625 
Q 81.6875 24.8125 79.265625 28.4375 
Q 76.859375 32.078125 72.703125 32.078125 
z
M 72.703125 38.28125 
Q 80.421875 38.28125 84.953125 32.90625 
Q 89.5 27.546875 89.5 18.40625 
Q 89.5 9.28125 84.9375 3.921875 
Q 80.375 -1.421875 72.703125 -1.421875 
Q 64.890625 -1.421875 60.34375 3.921875 
Q 55.8125 9.28125 55.8125 18.40625 
Q 55.8125 27.59375 60.375 32.9375 
Q 64.9375 38.28125 72.703125 38.28125 
z
M 22.3125 68.015625 
Q 18.109375 68.015625 15.6875 64.375 
Q 13.28125 60.75 13.28125 54.390625 
Q 13.28125 47.953125 15.671875 44.328125 
Q 18.0625 40.71875 22.3125 40.71875 
Q 26.5625 40.71875 28.96875 44.328125 
Q 31.390625 47.953125 31.390625 54.390625 
Q 31.390625 60.6875 28.953125 64.34375 
Q 26.515625 68.015625 22.3125 68.015625 
z
M 66.40625 74.21875 
L 74.21875 74.21875 
L 28.609375 -1.421875 
L 20.796875 -1.421875 
z
M 22.3125 74.21875 
Q 30.03125 74.21875 34.609375 68.875 
Q 39.203125 63.53125 39.203125 54.390625 
Q 39.203125 45.171875 34.640625 39.84375 
Q 30.078125 34.515625 22.3125 34.515625 
Q 14.546875 34.515625 10.03125 39.859375 
Q 5.515625 45.21875 5.515625 54.390625 
Q 5.515625 63.484375 10.046875 68.84375 
Q 14.59375 74.21875 22.3125 74.21875 
z
" id="DejaVuSans-37"/>
      <path d="M 9.8125 72.90625 
L 19.671875 72.90625 
L 19.671875 0 
L 9.8125 0 
z
" id="DejaVuSans-73"/>
     </defs>
     <g transform="translate(404.989063 77.078438)scale(0.1 -0.1)">
      <use xlink:href="#DejaVuSans-114"/>
      <use x="41.082031" xlink:href="#DejaVuSans-111"/>
      <use x="102.263672" xlink:href="#DejaVuSans-111"/>
      <use x="163.445312" xlink:href="#DejaVuSans-116"/>
      <use x="202.654297" xlink:href="#DejaVuSans-45"/>
      <use x="238.738281" xlink:href="#DejaVuSans-99"/>
      <use x="293.71875" xlink:href="#DejaVuSans-118"/>
      <use x="352.898438" xlink:href="#DejaVuSans-115"/>
      <use x="404.998047" xlink:href="#DejaVuSans-105"/>
      <use x="432.78125" xlink:href="#DejaVuSans-102"/>
      <use x="467.970703" xlink:href="#DejaVuSans-116"/>
      <use x="507.179688" xlink:href="#DejaVuSans-32"/>
      <use x="538.966797" xlink:href="#DejaVuSans-65"/>
      <use x="607.375" xlink:href="#DejaVuSans-80"/>
      <use x="667.677734" xlink:href="#DejaVuSans-58"/>
      <use x="701.369141" xlink:href="#DejaVuSans-32"/>
      <use x="733.15625" xlink:href="#DejaVuSans-48"/>
      <use x="796.779297" xlink:href="#DejaVuSans-46"/>
      <use x="828.566406" xlink:href="#DejaVuSans-51"/>
      <use x="892.189453" xlink:href="#DejaVuSans-44"/>
      <use x="923.976562" xlink:href="#DejaVuSans-32"/>
      <use x="955.763672" xlink:href="#DejaVuSans-37"/>
      <use x="1050.783203" xlink:href="#DejaVuSans-73"/>
      <use x="1080.275391" xlink:href="#DejaVuSans-110"/>
      <use x="1143.654297" xlink:href="#DejaVuSans-58"/>
      <use x="1177.345703" xlink:href="#DejaVuSans-32"/>
      <use x="1209.132812" xlink:href="#DejaVuSans-49"/>
      <use x="1272.755859" xlink:href="#DejaVuSans-46"/>
      <use x="1304.542969" xlink:href="#DejaVuSans-50"/>
     </g>
    </g>
    <g id="line2d_53">
     <path d="M 376.989063 88.256563 
L 396.989063 88.256563 
" style="fill:none;stroke:#ff7f0e;stroke-linecap:square;stroke-width:2;"/>
    </g>
    <g id="line2d_54"/>
    <g id="text_27">
     <!-- orb AP: 0.4, %In: 0.5 -->
     <g transform="translate(404.989063 91.756563)scale(0.1 -0.1)">
      <use xlink:href="#DejaVuSans-111"/>
      <use x="61.181641" xlink:href="#DejaVuSans-114"/>
      <use x="102.294922" xlink:href="#DejaVuSans-98"/>
      <use x="165.771484" xlink:href="#DejaVuSans-32"/>
      <use x="197.558594" xlink:href="#DejaVuSans-65"/>
      <use x="265.966797" xlink:href="#DejaVuSans-80"/>
      <use x="326.269531" xlink:href="#DejaVuSans-58"/>
      <use x="359.960938" xlink:href="#DejaVuSans-32"/>
      <use x="391.748047" xlink:href="#DejaVuSans-48"/>
      <use x="455.371094" xlink:href="#DejaVuSans-46"/>
      <use x="487.158203" xlink:href="#DejaVuSans-52"/>
      <use x="550.78125" xlink:href="#DejaVuSans-44"/>
      <use x="582.568359" xlink:href="#DejaVuSans-32"/>
      <use x="614.355469" xlink:href="#DejaVuSans-37"/>
      <use x="709.375" xlink:href="#DejaVuSans-73"/>
      <use x="738.867188" xlink:href="#DejaVuSans-110"/>
      <use x="802.246094" xlink:href="#DejaVuSans-58"/>
      <use x="835.9375" xlink:href="#DejaVuSans-32"/>
      <use x="867.724609" xlink:href="#DejaVuSans-48"/>
      <use x="931.347656" xlink:href="#DejaVuSans-46"/>
      <use x="963.134766" xlink:href="#DejaVuSans-53"/>
     </g>
    </g>
    <g id="line2d_55">
     <path d="M 376.989063 102.934687 
L 396.989063 102.934687 
" style="fill:none;stroke:#2ca02c;stroke-linecap:square;stroke-width:2;"/>
    </g>
    <g id="line2d_56"/>
    <g id="text_28">
     <!-- binboost AP: 0.1, %In: 0.7 -->
     <g transform="translate(404.989063 106.434687)scale(0.1 -0.1)">
      <use xlink:href="#DejaVuSans-98"/>
      <use x="63.476562" xlink:href="#DejaVuSans-105"/>
      <use x="91.259766" xlink:href="#DejaVuSans-110"/>
      <use x="154.638672" xlink:href="#DejaVuSans-98"/>
      <use x="218.115234" xlink:href="#DejaVuSans-111"/>
      <use x="279.296875" xlink:href="#DejaVuSans-111"/>
      <use x="340.478516" xlink:href="#DejaVuSans-115"/>
      <use x="392.578125" xlink:href="#DejaVuSans-116"/>
      <use x="431.787109" xlink:href="#DejaVuSans-32"/>
      <use x="463.574219" xlink:href="#DejaVuSans-65"/>
      <use x="531.982422" xlink:href="#DejaVuSans-80"/>
      <use x="592.285156" xlink:href="#DejaVuSans-58"/>
      <use x="625.976562" xlink:href="#DejaVuSans-32"/>
      <use x="657.763672" xlink:href="#DejaVuSans-48"/>
      <use x="721.386719" xlink:href="#DejaVuSans-46"/>
      <use x="753.173828" xlink:href="#DejaVuSans-49"/>
      <use x="816.796875" xlink:href="#DejaVuSans-44"/>
      <use x="848.583984" xlink:href="#DejaVuSans-32"/>
      <use x="880.371094" xlink:href="#DejaVuSans-37"/>
      <use x="975.390625" xlink:href="#DejaVuSans-73"/>
      <use x="1004.882812" xlink:href="#DejaVuSans-110"/>
      <use x="1068.261719" xlink:href="#DejaVuSans-58"/>
      <use x="1101.953125" xlink:href="#DejaVuSans-32"/>
      <use x="1133.740234" xlink:href="#DejaVuSans-48"/>
      <use x="1197.363281" xlink:href="#DejaVuSans-46"/>
      <use x="1229.150391" xlink:href="#DejaVuSans-55"/>
     </g>
    </g>
    <g id="line2d_57">
     <path d="M 376.989063 117.612813 
L 396.989063 117.612813 
" style="fill:none;stroke:#d62728;stroke-linecap:square;stroke-width:2;"/>
    </g>
    <g id="line2d_58"/>
    <g id="text_29">
     <!-- tfeat AP: 0.9, %In: 2.4 -->
     <g transform="translate(404.989063 121.112813)scale(0.1 -0.1)">
      <use xlink:href="#DejaVuSans-116"/>
      <use x="39.208984" xlink:href="#DejaVuSans-102"/>
      <use x="74.414062" xlink:href="#DejaVuSans-101"/>
      <use x="135.9375" xlink:href="#DejaVuSans-97"/>
      <use x="197.216797" xlink:href="#DejaVuSans-116"/>
      <use x="236.425781" xlink:href="#DejaVuSans-32"/>
      <use x="268.212891" xlink:href="#DejaVuSans-65"/>
      <use x="336.621094" xlink:href="#DejaVuSans-80"/>
      <use x="396.923828" xlink:href="#DejaVuSans-58"/>
      <use x="430.615234" xlink:href="#DejaVuSans-32"/>
      <use x="462.402344" xlink:href="#DejaVuSans-48"/>
      <use x="526.025391" xlink:href="#DejaVuSans-46"/>
      <use x="557.8125" xlink:href="#DejaVuSans-57"/>
      <use x="621.435547" xlink:href="#DejaVuSans-44"/>
      <use x="653.222656" xlink:href="#DejaVuSans-32"/>
      <use x="685.009766" xlink:href="#DejaVuSans-37"/>
      <use x="780.029297" xlink:href="#DejaVuSans-73"/>
      <use x="809.521484" xlink:href="#DejaVuSans-110"/>
      <use x="872.900391" xlink:href="#DejaVuSans-58"/>
      <use x="906.591797" xlink:href="#DejaVuSans-32"/>
      <use x="938.378906" xlink:href="#DejaVuSans-50"/>
      <use x="1002.001953" xlink:href="#DejaVuSans-46"/>
      <use x="1033.789062" xlink:href="#DejaVuSans-52"/>
     </g>
    </g>
    <g id="line2d_59">
     <path d="M 376.989063 132.290938 
L 396.989063 132.290938 
" style="fill:none;stroke:#9467bd;stroke-linecap:square;stroke-width:2;"/>
    </g>
    <g id="line2d_60"/>
    <g id="text_30">
     <!-- hardnet AP: 8.5, %In: 5.5 -->
     <defs>
      <path d="M 45.40625 46.390625 
L 45.40625 75.984375 
L 54.390625 75.984375 
L 54.390625 0 
L 45.40625 0 
L 45.40625 8.203125 
Q 42.578125 3.328125 38.25 0.953125 
Q 33.9375 -1.421875 27.875 -1.421875 
Q 17.96875 -1.421875 11.734375 6.484375 
Q 5.515625 14.40625 5.515625 27.296875 
Q 5.515625 40.1875 11.734375 48.09375 
Q 17.96875 56 27.875 56 
Q 33.9375 56 38.25 53.625 
Q 42.578125 51.265625 45.40625 46.390625 
z
M 14.796875 27.296875 
Q 14.796875 17.390625 18.875 11.75 
Q 22.953125 6.109375 30.078125 6.109375 
Q 37.203125 6.109375 41.296875 11.75 
Q 45.40625 17.390625 45.40625 27.296875 
Q 45.40625 37.203125 41.296875 42.84375 
Q 37.203125 48.484375 30.078125 48.484375 
Q 22.953125 48.484375 18.875 42.84375 
Q 14.796875 37.203125 14.796875 27.296875 
z
" id="DejaVuSans-100"/>
     </defs>
     <g transform="translate(404.989063 135.790938)scale(0.1 -0.1)">
      <use xlink:href="#DejaVuSans-104"/>
      <use x="63.378906" xlink:href="#DejaVuSans-97"/>
      <use x="124.658203" xlink:href="#DejaVuSans-114"/>
      <use x="165.755859" xlink:href="#DejaVuSans-100"/>
      <use x="229.232422" xlink:href="#DejaVuSans-110"/>
      <use x="292.611328" xlink:href="#DejaVuSans-101"/>
      <use x="354.134766" xlink:href="#DejaVuSans-116"/>
      <use x="393.34375" xlink:href="#DejaVuSans-32"/>
      <use x="425.130859" xlink:href="#DejaVuSans-65"/>
      <use x="493.539062" xlink:href="#DejaVuSans-80"/>
      <use x="553.841797" xlink:href="#DejaVuSans-58"/>
      <use x="587.533203" xlink:href="#DejaVuSans-32"/>
      <use x="619.320312" xlink:href="#DejaVuSans-56"/>
      <use x="682.943359" xlink:href="#DejaVuSans-46"/>
      <use x="714.730469" xlink:href="#DejaVuSans-53"/>
      <use x="778.353516" xlink:href="#DejaVuSans-44"/>
      <use x="810.140625" xlink:href="#DejaVuSans-32"/>
      <use x="841.927734" xlink:href="#DejaVuSans-37"/>
      <use x="936.947266" xlink:href="#DejaVuSans-73"/>
      <use x="966.439453" xlink:href="#DejaVuSans-110"/>
      <use x="1029.818359" xlink:href="#DejaVuSans-58"/>
      <use x="1063.509766" xlink:href="#DejaVuSans-32"/>
      <use x="1095.296875" xlink:href="#DejaVuSans-53"/>
      <use x="1158.919922" xlink:href="#DejaVuSans-46"/>
      <use x="1190.707031" xlink:href="#DejaVuSans-53"/>
     </g>
    </g>
    <g id="line2d_61">
     <path d="M 376.989063 146.969063 
L 396.989063 146.969063 
" style="fill:none;stroke:#8c564b;stroke-linecap:square;stroke-width:2;"/>
    </g>
    <g id="line2d_62"/>
    <g id="text_31">
     <!-- beblid AP: 0.3, %In: 0.6 -->
     <defs>
      <path d="M 9.421875 75.984375 
L 18.40625 75.984375 
L 18.40625 0 
L 9.421875 0 
z
" id="DejaVuSans-108"/>
     </defs>
     <g transform="translate(404.989063 150.469063)scale(0.1 -0.1)">
      <use xlink:href="#DejaVuSans-98"/>
      <use x="63.476562" xlink:href="#DejaVuSans-101"/>
      <use x="125" xlink:href="#DejaVuSans-98"/>
      <use x="188.476562" xlink:href="#DejaVuSans-108"/>
      <use x="216.259766" xlink:href="#DejaVuSans-105"/>
      <use x="244.042969" xlink:href="#DejaVuSans-100"/>
      <use x="307.519531" xlink:href="#DejaVuSans-32"/>
      <use x="339.306641" xlink:href="#DejaVuSans-65"/>
      <use x="407.714844" xlink:href="#DejaVuSans-80"/>
      <use x="468.017578" xlink:href="#DejaVuSans-58"/>
      <use x="501.708984" xlink:href="#DejaVuSans-32"/>
      <use x="533.496094" xlink:href="#DejaVuSans-48"/>
      <use x="597.119141" xlink:href="#DejaVuSans-46"/>
      <use x="628.90625" xlink:href="#DejaVuSans-51"/>
      <use x="692.529297" xlink:href="#DejaVuSans-44"/>
      <use x="724.316406" xlink:href="#DejaVuSans-32"/>
      <use x="756.103516" xlink:href="#DejaVuSans-37"/>
      <use x="851.123047" xlink:href="#DejaVuSans-73"/>
      <use x="880.615234" xlink:href="#DejaVuSans-110"/>
      <use x="943.994141" xlink:href="#DejaVuSans-58"/>
      <use x="977.685547" xlink:href="#DejaVuSans-32"/>
      <use x="1009.472656" xlink:href="#DejaVuSans-48"/>
      <use x="1073.095703" xlink:href="#DejaVuSans-46"/>
      <use x="1104.882812" xlink:href="#DejaVuSans-54"/>
     </g>
    </g>
   </g>
  </g>
 </g>
 <defs>
  <clipPath id="pa73bc28dc4">
   <rect height="388.08" width="474.3" x="76.5" y="60.48"/>
  </clipPath>
 </defs>
</svg>
