<?xml version="1.0" encoding="utf-8" standalone="no"?>
<!DOCTYPE svg PUBLIC "-//W3C//DTD SVG 1.1//EN"
  "http://www.w3.org/Graphics/SVG/1.1/DTD/svg11.dtd">
<!-- Created with matplotlib (https://matplotlib.org/) -->
<svg height="504pt" version="1.1" viewBox="0 0 612 504" width="612pt" xmlns="http://www.w3.org/2000/svg" xmlns:xlink="http://www.w3.org/1999/xlink">
 <defs>
  <style type="text/css">
*{stroke-linecap:butt;stroke-linejoin:round;}
  </style>
 </defs>
 <g id="figure_1">
  <g id="patch_1">
   <path d="M 0 504 
L 612 504 
L 612 0 
L 0 0 
z
" style="fill:#ffffff;"/>
  </g>
  <g id="axes_1">
   <g id="patch_2">
    <path d="M 76.5 448.56 
L 550.8 448.56 
L 550.8 60.48 
L 76.5 60.48 
z
" style="fill:#ffffff;"/>
   </g>
   <g id="matplotlib.axis_1">
    <g id="xtick_1">
     <g id="line2d_1">
      <path clip-path="url(#pf4478e3f48)" d="M 76.5 448.56 
L 76.5 60.48 
" style="fill:none;stroke:#b0b0b0;stroke-linecap:square;stroke-width:0.8;"/>
     </g>
     <g id="line2d_2">
      <defs>
       <path d="M 0 0 
L 0 3.5 
" id="mf0cba99a81" style="stroke:#000000;stroke-width:0.8;"/>
      </defs>
      <g>
       <use style="stroke:#000000;stroke-width:0.8;" x="76.5" xlink:href="#mf0cba99a81" y="448.56"/>
      </g>
     </g>
     <g id="text_1">
      <!-- 0.0 -->
      <defs>
       <path d="M 31.78125 66.40625 
Q 24.171875 66.40625 20.328125 58.90625 
Q 16.5 51.421875 16.5 36.375 
Q 16.5 21.390625 20.328125 13.890625 
Q 24.171875 6.390625 31.78125 6.390625 
Q 39.453125 6.390625 43.28125 13.890625 
Q 47.125 21.390625 47.125 36.375 
Q 47.125 51.421875 43.28125 58.90625 
Q 39.453125 66.40625 31.78125 66.40625 
z
M 31.78125 74.21875 
Q 44.046875 74.21875 50.515625 64.515625 
Q 56.984375 54.828125 56.984375 36.375 
Q 56.984375 17.96875 50.515625 8.265625 
Q 44.046875 -1.421875 31.78125 -1.421875 
Q 19.53125 -1.421875 13.0625 8.265625 
Q 6.59375 17.96875 6.59375 36.375 
Q 6.59375 54.828125 13.0625 64.515625 
Q 19.53125 74.21875 31.78125 74.21875 
z
" id="DejaVuSans-48"/>
       <path d="M 10.6875 12.40625 
L 21 12.40625 
L 21 0 
L 10.6875 0 
z
" id="DejaVuSans-46"/>
      </defs>
      <g transform="translate(68.548438 463.158437)scale(0.1 -0.1)">
       <use xlink:href="#DejaVuSans-48"/>
       <use x="63.623047" xlink:href="#DejaVuSans-46"/>
       <use x="95.410156" xlink:href="#DejaVuSans-48"/>
      </g>
     </g>
    </g>
    <g id="xtick_2">
     <g id="line2d_3">
      <path clip-path="url(#pf4478e3f48)" d="M 123.93 448.56 
L 123.93 60.48 
" style="fill:none;stroke:#b0b0b0;stroke-linecap:square;stroke-width:0.8;"/>
     </g>
     <g id="line2d_4">
      <g>
       <use style="stroke:#000000;stroke-width:0.8;" x="123.93" xlink:href="#mf0cba99a81" y="448.56"/>
      </g>
     </g>
     <g id="text_2">
      <!-- 0.1 -->
      <defs>
       <path d="M 12.40625 8.296875 
L 28.515625 8.296875 
L 28.515625 63.921875 
L 10.984375 60.40625 
L 10.984375 69.390625 
L 28.421875 72.90625 
L 38.28125 72.90625 
L 38.28125 8.296875 
L 54.390625 8.296875 
L 54.390625 0 
L 12.40625 0 
z
" id="DejaVuSans-49"/>
      </defs>
      <g transform="translate(115.978438 463.158437)scale(0.1 -0.1)">
       <use xlink:href="#DejaVuSans-48"/>
       <use x="63.623047" xlink:href="#DejaVuSans-46"/>
       <use x="95.410156" xlink:href="#DejaVuSans-49"/>
      </g>
     </g>
    </g>
    <g id="xtick_3">
     <g id="line2d_5">
      <path clip-path="url(#pf4478e3f48)" d="M 171.36 448.56 
L 171.36 60.48 
" style="fill:none;stroke:#b0b0b0;stroke-linecap:square;stroke-width:0.8;"/>
     </g>
     <g id="line2d_6">
      <g>
       <use style="stroke:#000000;stroke-width:0.8;" x="171.36" xlink:href="#mf0cba99a81" y="448.56"/>
      </g>
     </g>
     <g id="text_3">
      <!-- 0.2 -->
      <defs>
       <path d="M 19.1875 8.296875 
L 53.609375 8.296875 
L 53.609375 0 
L 7.328125 0 
L 7.328125 8.296875 
Q 12.9375 14.109375 22.625 23.890625 
Q 32.328125 33.6875 34.8125 36.53125 
Q 39.546875 41.84375 41.421875 45.53125 
Q 43.3125 49.21875 43.3125 52.78125 
Q 43.3125 58.59375 39.234375 62.25 
Q 35.15625 65.921875 28.609375 65.921875 
Q 23.96875 65.921875 18.8125 64.3125 
Q 13.671875 62.703125 7.8125 59.421875 
L 7.8125 69.390625 
Q 13.765625 71.78125 18.9375 73 
Q 24.125 74.21875 28.421875 74.21875 
Q 39.75 74.21875 46.484375 68.546875 
Q 53.21875 62.890625 53.21875 53.421875 
Q 53.21875 48.921875 51.53125 44.890625 
Q 49.859375 40.875 45.40625 35.40625 
Q 44.1875 33.984375 37.640625 27.21875 
Q 31.109375 20.453125 19.1875 8.296875 
z
" id="DejaVuSans-50"/>
      </defs>
      <g transform="translate(163.408438 463.158437)scale(0.1 -0.1)">
       <use xlink:href="#DejaVuSans-48"/>
       <use x="63.623047" xlink:href="#DejaVuSans-46"/>
       <use x="95.410156" xlink:href="#DejaVuSans-50"/>
      </g>
     </g>
    </g>
    <g id="xtick_4">
     <g id="line2d_7">
      <path clip-path="url(#pf4478e3f48)" d="M 218.79 448.56 
L 218.79 60.48 
" style="fill:none;stroke:#b0b0b0;stroke-linecap:square;stroke-width:0.8;"/>
     </g>
     <g id="line2d_8">
      <g>
       <use style="stroke:#000000;stroke-width:0.8;" x="218.79" xlink:href="#mf0cba99a81" y="448.56"/>
      </g>
     </g>
     <g id="text_4">
      <!-- 0.3 -->
      <defs>
       <path d="M 40.578125 39.3125 
Q 47.65625 37.796875 51.625 33 
Q 55.609375 28.21875 55.609375 21.1875 
Q 55.609375 10.40625 48.1875 4.484375 
Q 40.765625 -1.421875 27.09375 -1.421875 
Q 22.515625 -1.421875 17.65625 -0.515625 
Q 12.796875 0.390625 7.625 2.203125 
L 7.625 11.71875 
Q 11.71875 9.328125 16.59375 8.109375 
Q 21.484375 6.890625 26.8125 6.890625 
Q 36.078125 6.890625 40.9375 10.546875 
Q 45.796875 14.203125 45.796875 21.1875 
Q 45.796875 27.640625 41.28125 31.265625 
Q 36.765625 34.90625 28.71875 34.90625 
L 20.21875 34.90625 
L 20.21875 43.015625 
L 29.109375 43.015625 
Q 36.375 43.015625 40.234375 45.921875 
Q 44.09375 48.828125 44.09375 54.296875 
Q 44.09375 59.90625 40.109375 62.90625 
Q 36.140625 65.921875 28.71875 65.921875 
Q 24.65625 65.921875 20.015625 65.03125 
Q 15.375 64.15625 9.8125 62.3125 
L 9.8125 71.09375 
Q 15.4375 72.65625 20.34375 73.4375 
Q 25.25 74.21875 29.59375 74.21875 
Q 40.828125 74.21875 47.359375 69.109375 
Q 53.90625 64.015625 53.90625 55.328125 
Q 53.90625 49.265625 50.4375 45.09375 
Q 46.96875 40.921875 40.578125 39.3125 
z
" id="DejaVuSans-51"/>
      </defs>
      <g transform="translate(210.838438 463.158437)scale(0.1 -0.1)">
       <use xlink:href="#DejaVuSans-48"/>
       <use x="63.623047" xlink:href="#DejaVuSans-46"/>
       <use x="95.410156" xlink:href="#DejaVuSans-51"/>
      </g>
     </g>
    </g>
    <g id="xtick_5">
     <g id="line2d_9">
      <path clip-path="url(#pf4478e3f48)" d="M 266.22 448.56 
L 266.22 60.48 
" style="fill:none;stroke:#b0b0b0;stroke-linecap:square;stroke-width:0.8;"/>
     </g>
     <g id="line2d_10">
      <g>
       <use style="stroke:#000000;stroke-width:0.8;" x="266.22" xlink:href="#mf0cba99a81" y="448.56"/>
      </g>
     </g>
     <g id="text_5">
      <!-- 0.4 -->
      <defs>
       <path d="M 37.796875 64.3125 
L 12.890625 25.390625 
L 37.796875 25.390625 
z
M 35.203125 72.90625 
L 47.609375 72.90625 
L 47.609375 25.390625 
L 58.015625 25.390625 
L 58.015625 17.1875 
L 47.609375 17.1875 
L 47.609375 0 
L 37.796875 0 
L 37.796875 17.1875 
L 4.890625 17.1875 
L 4.890625 26.703125 
z
" id="DejaVuSans-52"/>
      </defs>
      <g transform="translate(258.268438 463.158437)scale(0.1 -0.1)">
       <use xlink:href="#DejaVuSans-48"/>
       <use x="63.623047" xlink:href="#DejaVuSans-46"/>
       <use x="95.410156" xlink:href="#DejaVuSans-52"/>
      </g>
     </g>
    </g>
    <g id="xtick_6">
     <g id="line2d_11">
      <path clip-path="url(#pf4478e3f48)" d="M 313.65 448.56 
L 313.65 60.48 
" style="fill:none;stroke:#b0b0b0;stroke-linecap:square;stroke-width:0.8;"/>
     </g>
     <g id="line2d_12">
      <g>
       <use style="stroke:#000000;stroke-width:0.8;" x="313.65" xlink:href="#mf0cba99a81" y="448.56"/>
      </g>
     </g>
     <g id="text_6">
      <!-- 0.5 -->
      <defs>
       <path d="M 10.796875 72.90625 
L 49.515625 72.90625 
L 49.515625 64.59375 
L 19.828125 64.59375 
L 19.828125 46.734375 
Q 21.96875 47.46875 24.109375 47.828125 
Q 26.265625 48.1875 28.421875 48.1875 
Q 40.625 48.1875 47.75 41.5 
Q 54.890625 34.8125 54.890625 23.390625 
Q 54.890625 11.625 47.5625 5.09375 
Q 40.234375 -1.421875 26.90625 -1.421875 
Q 22.3125 -1.421875 17.546875 -0.640625 
Q 12.796875 0.140625 7.71875 1.703125 
L 7.71875 11.625 
Q 12.109375 9.234375 16.796875 8.0625 
Q 21.484375 6.890625 26.703125 6.890625 
Q 35.15625 6.890625 40.078125 11.328125 
Q 45.015625 15.765625 45.015625 23.390625 
Q 45.015625 31 40.078125 35.4375 
Q 35.15625 39.890625 26.703125 39.890625 
Q 22.75 39.890625 18.8125 39.015625 
Q 14.890625 38.140625 10.796875 36.28125 
z
" id="DejaVuSans-53"/>
      </defs>
      <g transform="translate(305.698438 463.158437)scale(0.1 -0.1)">
       <use xlink:href="#DejaVuSans-48"/>
       <use x="63.623047" xlink:href="#DejaVuSans-46"/>
       <use x="95.410156" xlink:href="#DejaVuSans-53"/>
      </g>
     </g>
    </g>
    <g id="xtick_7">
     <g id="line2d_13">
      <path clip-path="url(#pf4478e3f48)" d="M 361.08 448.56 
L 361.08 60.48 
" style="fill:none;stroke:#b0b0b0;stroke-linecap:square;stroke-width:0.8;"/>
     </g>
     <g id="line2d_14">
      <g>
       <use style="stroke:#000000;stroke-width:0.8;" x="361.08" xlink:href="#mf0cba99a81" y="448.56"/>
      </g>
     </g>
     <g id="text_7">
      <!-- 0.6 -->
      <defs>
       <path d="M 33.015625 40.375 
Q 26.375 40.375 22.484375 35.828125 
Q 18.609375 31.296875 18.609375 23.390625 
Q 18.609375 15.53125 22.484375 10.953125 
Q 26.375 6.390625 33.015625 6.390625 
Q 39.65625 6.390625 43.53125 10.953125 
Q 47.40625 15.53125 47.40625 23.390625 
Q 47.40625 31.296875 43.53125 35.828125 
Q 39.65625 40.375 33.015625 40.375 
z
M 52.59375 71.296875 
L 52.59375 62.3125 
Q 48.875 64.0625 45.09375 64.984375 
Q 41.3125 65.921875 37.59375 65.921875 
Q 27.828125 65.921875 22.671875 59.328125 
Q 17.53125 52.734375 16.796875 39.40625 
Q 19.671875 43.65625 24.015625 45.921875 
Q 28.375 48.1875 33.59375 48.1875 
Q 44.578125 48.1875 50.953125 41.515625 
Q 57.328125 34.859375 57.328125 23.390625 
Q 57.328125 12.15625 50.6875 5.359375 
Q 44.046875 -1.421875 33.015625 -1.421875 
Q 20.359375 -1.421875 13.671875 8.265625 
Q 6.984375 17.96875 6.984375 36.375 
Q 6.984375 53.65625 15.1875 63.9375 
Q 23.390625 74.21875 37.203125 74.21875 
Q 40.921875 74.21875 44.703125 73.484375 
Q 48.484375 72.75 52.59375 71.296875 
z
" id="DejaVuSans-54"/>
      </defs>
      <g transform="translate(353.128438 463.158437)scale(0.1 -0.1)">
       <use xlink:href="#DejaVuSans-48"/>
       <use x="63.623047" xlink:href="#DejaVuSans-46"/>
       <use x="95.410156" xlink:href="#DejaVuSans-54"/>
      </g>
     </g>
    </g>
    <g id="xtick_8">
     <g id="line2d_15">
      <path clip-path="url(#pf4478e3f48)" d="M 408.51 448.56 
L 408.51 60.48 
" style="fill:none;stroke:#b0b0b0;stroke-linecap:square;stroke-width:0.8;"/>
     </g>
     <g id="line2d_16">
      <g>
       <use style="stroke:#000000;stroke-width:0.8;" x="408.51" xlink:href="#mf0cba99a81" y="448.56"/>
      </g>
     </g>
     <g id="text_8">
      <!-- 0.7 -->
      <defs>
       <path d="M 8.203125 72.90625 
L 55.078125 72.90625 
L 55.078125 68.703125 
L 28.609375 0 
L 18.3125 0 
L 43.21875 64.59375 
L 8.203125 64.59375 
z
" id="DejaVuSans-55"/>
      </defs>
      <g transform="translate(400.558438 463.158437)scale(0.1 -0.1)">
       <use xlink:href="#DejaVuSans-48"/>
       <use x="63.623047" xlink:href="#DejaVuSans-46"/>
       <use x="95.410156" xlink:href="#DejaVuSans-55"/>
      </g>
     </g>
    </g>
    <g id="xtick_9">
     <g id="line2d_17">
      <path clip-path="url(#pf4478e3f48)" d="M 455.94 448.56 
L 455.94 60.48 
" style="fill:none;stroke:#b0b0b0;stroke-linecap:square;stroke-width:0.8;"/>
     </g>
     <g id="line2d_18">
      <g>
       <use style="stroke:#000000;stroke-width:0.8;" x="455.94" xlink:href="#mf0cba99a81" y="448.56"/>
      </g>
     </g>
     <g id="text_9">
      <!-- 0.8 -->
      <defs>
       <path d="M 31.78125 34.625 
Q 24.75 34.625 20.71875 30.859375 
Q 16.703125 27.09375 16.703125 20.515625 
Q 16.703125 13.921875 20.71875 10.15625 
Q 24.75 6.390625 31.78125 6.390625 
Q 38.8125 6.390625 42.859375 10.171875 
Q 46.921875 13.96875 46.921875 20.515625 
Q 46.921875 27.09375 42.890625 30.859375 
Q 38.875 34.625 31.78125 34.625 
z
M 21.921875 38.8125 
Q 15.578125 40.375 12.03125 44.71875 
Q 8.5 49.078125 8.5 55.328125 
Q 8.5 64.0625 14.71875 69.140625 
Q 20.953125 74.21875 31.78125 74.21875 
Q 42.671875 74.21875 48.875 69.140625 
Q 55.078125 64.0625 55.078125 55.328125 
Q 55.078125 49.078125 51.53125 44.71875 
Q 48 40.375 41.703125 38.8125 
Q 48.828125 37.15625 52.796875 32.3125 
Q 56.78125 27.484375 56.78125 20.515625 
Q 56.78125 9.90625 50.3125 4.234375 
Q 43.84375 -1.421875 31.78125 -1.421875 
Q 19.734375 -1.421875 13.25 4.234375 
Q 6.78125 9.90625 6.78125 20.515625 
Q 6.78125 27.484375 10.78125 32.3125 
Q 14.796875 37.15625 21.921875 38.8125 
z
M 18.3125 54.390625 
Q 18.3125 48.734375 21.84375 45.5625 
Q 25.390625 42.390625 31.78125 42.390625 
Q 38.140625 42.390625 41.71875 45.5625 
Q 45.3125 48.734375 45.3125 54.390625 
Q 45.3125 60.0625 41.71875 63.234375 
Q 38.140625 66.40625 31.78125 66.40625 
Q 25.390625 66.40625 21.84375 63.234375 
Q 18.3125 60.0625 18.3125 54.390625 
z
" id="DejaVuSans-56"/>
      </defs>
      <g transform="translate(447.988438 463.158437)scale(0.1 -0.1)">
       <use xlink:href="#DejaVuSans-48"/>
       <use x="63.623047" xlink:href="#DejaVuSans-46"/>
       <use x="95.410156" xlink:href="#DejaVuSans-56"/>
      </g>
     </g>
    </g>
    <g id="xtick_10">
     <g id="line2d_19">
      <path clip-path="url(#pf4478e3f48)" d="M 503.37 448.56 
L 503.37 60.48 
" style="fill:none;stroke:#b0b0b0;stroke-linecap:square;stroke-width:0.8;"/>
     </g>
     <g id="line2d_20">
      <g>
       <use style="stroke:#000000;stroke-width:0.8;" x="503.37" xlink:href="#mf0cba99a81" y="448.56"/>
      </g>
     </g>
     <g id="text_10">
      <!-- 0.9 -->
      <defs>
       <path d="M 10.984375 1.515625 
L 10.984375 10.5 
Q 14.703125 8.734375 18.5 7.8125 
Q 22.3125 6.890625 25.984375 6.890625 
Q 35.75 6.890625 40.890625 13.453125 
Q 46.046875 20.015625 46.78125 33.40625 
Q 43.953125 29.203125 39.59375 26.953125 
Q 35.25 24.703125 29.984375 24.703125 
Q 19.046875 24.703125 12.671875 31.3125 
Q 6.296875 37.9375 6.296875 49.421875 
Q 6.296875 60.640625 12.9375 67.421875 
Q 19.578125 74.21875 30.609375 74.21875 
Q 43.265625 74.21875 49.921875 64.515625 
Q 56.59375 54.828125 56.59375 36.375 
Q 56.59375 19.140625 48.40625 8.859375 
Q 40.234375 -1.421875 26.421875 -1.421875 
Q 22.703125 -1.421875 18.890625 -0.6875 
Q 15.09375 0.046875 10.984375 1.515625 
z
M 30.609375 32.421875 
Q 37.25 32.421875 41.125 36.953125 
Q 45.015625 41.5 45.015625 49.421875 
Q 45.015625 57.28125 41.125 61.84375 
Q 37.25 66.40625 30.609375 66.40625 
Q 23.96875 66.40625 20.09375 61.84375 
Q 16.21875 57.28125 16.21875 49.421875 
Q 16.21875 41.5 20.09375 36.953125 
Q 23.96875 32.421875 30.609375 32.421875 
z
" id="DejaVuSans-57"/>
      </defs>
      <g transform="translate(495.418438 463.158437)scale(0.1 -0.1)">
       <use xlink:href="#DejaVuSans-48"/>
       <use x="63.623047" xlink:href="#DejaVuSans-46"/>
       <use x="95.410156" xlink:href="#DejaVuSans-57"/>
      </g>
     </g>
    </g>
    <g id="xtick_11">
     <g id="line2d_21">
      <path clip-path="url(#pf4478e3f48)" d="M 550.8 448.56 
L 550.8 60.48 
" style="fill:none;stroke:#b0b0b0;stroke-linecap:square;stroke-width:0.8;"/>
     </g>
     <g id="line2d_22">
      <g>
       <use style="stroke:#000000;stroke-width:0.8;" x="550.8" xlink:href="#mf0cba99a81" y="448.56"/>
      </g>
     </g>
     <g id="text_11">
      <!-- 1.0 -->
      <g transform="translate(542.848438 463.158437)scale(0.1 -0.1)">
       <use xlink:href="#DejaVuSans-49"/>
       <use x="63.623047" xlink:href="#DejaVuSans-46"/>
       <use x="95.410156" xlink:href="#DejaVuSans-48"/>
      </g>
     </g>
    </g>
    <g id="text_12">
     <!-- 1-precision -->
     <defs>
      <path d="M 4.890625 31.390625 
L 31.203125 31.390625 
L 31.203125 23.390625 
L 4.890625 23.390625 
z
" id="DejaVuSans-45"/>
      <path d="M 18.109375 8.203125 
L 18.109375 -20.796875 
L 9.078125 -20.796875 
L 9.078125 54.6875 
L 18.109375 54.6875 
L 18.109375 46.390625 
Q 20.953125 51.265625 25.265625 53.625 
Q 29.59375 56 35.59375 56 
Q 45.5625 56 51.78125 48.09375 
Q 58.015625 40.1875 58.015625 27.296875 
Q 58.015625 14.40625 51.78125 6.484375 
Q 45.5625 -1.421875 35.59375 -1.421875 
Q 29.59375 -1.421875 25.265625 0.953125 
Q 20.953125 3.328125 18.109375 8.203125 
z
M 48.6875 27.296875 
Q 48.6875 37.203125 44.609375 42.84375 
Q 40.53125 48.484375 33.40625 48.484375 
Q 26.265625 48.484375 22.1875 42.84375 
Q 18.109375 37.203125 18.109375 27.296875 
Q 18.109375 17.390625 22.1875 11.75 
Q 26.265625 6.109375 33.40625 6.109375 
Q 40.53125 6.109375 44.609375 11.75 
Q 48.6875 17.390625 48.6875 27.296875 
z
" id="DejaVuSans-112"/>
      <path d="M 41.109375 46.296875 
Q 39.59375 47.171875 37.8125 47.578125 
Q 36.03125 48 33.890625 48 
Q 26.265625 48 22.1875 43.046875 
Q 18.109375 38.09375 18.109375 28.8125 
L 18.109375 0 
L 9.078125 0 
L 9.078125 54.6875 
L 18.109375 54.6875 
L 18.109375 46.1875 
Q 20.953125 51.171875 25.484375 53.578125 
Q 30.03125 56 36.53125 56 
Q 37.453125 56 38.578125 55.875 
Q 39.703125 55.765625 41.0625 55.515625 
z
" id="DejaVuSans-114"/>
      <path d="M 56.203125 29.59375 
L 56.203125 25.203125 
L 14.890625 25.203125 
Q 15.484375 15.921875 20.484375 11.0625 
Q 25.484375 6.203125 34.421875 6.203125 
Q 39.59375 6.203125 44.453125 7.46875 
Q 49.3125 8.734375 54.109375 11.28125 
L 54.109375 2.78125 
Q 49.265625 0.734375 44.1875 -0.34375 
Q 39.109375 -1.421875 33.890625 -1.421875 
Q 20.796875 -1.421875 13.15625 6.1875 
Q 5.515625 13.8125 5.515625 26.8125 
Q 5.515625 40.234375 12.765625 48.109375 
Q 20.015625 56 32.328125 56 
Q 43.359375 56 49.78125 48.890625 
Q 56.203125 41.796875 56.203125 29.59375 
z
M 47.21875 32.234375 
Q 47.125 39.59375 43.09375 43.984375 
Q 39.0625 48.390625 32.421875 48.390625 
Q 24.90625 48.390625 20.390625 44.140625 
Q 15.875 39.890625 15.1875 32.171875 
z
" id="DejaVuSans-101"/>
      <path d="M 48.78125 52.59375 
L 48.78125 44.1875 
Q 44.96875 46.296875 41.140625 47.34375 
Q 37.3125 48.390625 33.40625 48.390625 
Q 24.65625 48.390625 19.8125 42.84375 
Q 14.984375 37.3125 14.984375 27.296875 
Q 14.984375 17.28125 19.8125 11.734375 
Q 24.65625 6.203125 33.40625 6.203125 
Q 37.3125 6.203125 41.140625 7.25 
Q 44.96875 8.296875 48.78125 10.40625 
L 48.78125 2.09375 
Q 45.015625 0.34375 40.984375 -0.53125 
Q 36.96875 -1.421875 32.421875 -1.421875 
Q 20.0625 -1.421875 12.78125 6.34375 
Q 5.515625 14.109375 5.515625 27.296875 
Q 5.515625 40.671875 12.859375 48.328125 
Q 20.21875 56 33.015625 56 
Q 37.15625 56 41.109375 55.140625 
Q 45.0625 54.296875 48.78125 52.59375 
z
" id="DejaVuSans-99"/>
      <path d="M 9.421875 54.6875 
L 18.40625 54.6875 
L 18.40625 0 
L 9.421875 0 
z
M 9.421875 75.984375 
L 18.40625 75.984375 
L 18.40625 64.59375 
L 9.421875 64.59375 
z
" id="DejaVuSans-105"/>
      <path d="M 44.28125 53.078125 
L 44.28125 44.578125 
Q 40.484375 46.53125 36.375 47.5 
Q 32.28125 48.484375 27.875 48.484375 
Q 21.1875 48.484375 17.84375 46.4375 
Q 14.5 44.390625 14.5 40.28125 
Q 14.5 37.15625 16.890625 35.375 
Q 19.28125 33.59375 26.515625 31.984375 
L 29.59375 31.296875 
Q 39.15625 29.25 43.1875 25.515625 
Q 47.21875 21.78125 47.21875 15.09375 
Q 47.21875 7.46875 41.1875 3.015625 
Q 35.15625 -1.421875 24.609375 -1.421875 
Q 20.21875 -1.421875 15.453125 -0.5625 
Q 10.6875 0.296875 5.421875 2 
L 5.421875 11.28125 
Q 10.40625 8.6875 15.234375 7.390625 
Q 20.0625 6.109375 24.8125 6.109375 
Q 31.15625 6.109375 34.5625 8.28125 
Q 37.984375 10.453125 37.984375 14.40625 
Q 37.984375 18.0625 35.515625 20.015625 
Q 33.0625 21.96875 24.703125 23.78125 
L 21.578125 24.515625 
Q 13.234375 26.265625 9.515625 29.90625 
Q 5.8125 33.546875 5.8125 39.890625 
Q 5.8125 47.609375 11.28125 51.796875 
Q 16.75 56 26.8125 56 
Q 31.78125 56 36.171875 55.265625 
Q 40.578125 54.546875 44.28125 53.078125 
z
" id="DejaVuSans-115"/>
      <path d="M 30.609375 48.390625 
Q 23.390625 48.390625 19.1875 42.75 
Q 14.984375 37.109375 14.984375 27.296875 
Q 14.984375 17.484375 19.15625 11.84375 
Q 23.34375 6.203125 30.609375 6.203125 
Q 37.796875 6.203125 41.984375 11.859375 
Q 46.1875 17.53125 46.1875 27.296875 
Q 46.1875 37.015625 41.984375 42.703125 
Q 37.796875 48.390625 30.609375 48.390625 
z
M 30.609375 56 
Q 42.328125 56 49.015625 48.375 
Q 55.71875 40.765625 55.71875 27.296875 
Q 55.71875 13.875 49.015625 6.21875 
Q 42.328125 -1.421875 30.609375 -1.421875 
Q 18.84375 -1.421875 12.171875 6.21875 
Q 5.515625 13.875 5.515625 27.296875 
Q 5.515625 40.765625 12.171875 48.375 
Q 18.84375 56 30.609375 56 
z
" id="DejaVuSans-111"/>
      <path d="M 54.890625 33.015625 
L 54.890625 0 
L 45.90625 0 
L 45.90625 32.71875 
Q 45.90625 40.484375 42.875 44.328125 
Q 39.84375 48.1875 33.796875 48.1875 
Q 26.515625 48.1875 22.3125 43.546875 
Q 18.109375 38.921875 18.109375 30.90625 
L 18.109375 0 
L 9.078125 0 
L 9.078125 54.6875 
L 18.109375 54.6875 
L 18.109375 46.1875 
Q 21.34375 51.125 25.703125 53.5625 
Q 30.078125 56 35.796875 56 
Q 45.21875 56 50.046875 50.171875 
Q 54.890625 44.34375 54.890625 33.015625 
z
" id="DejaVuSans-110"/>
     </defs>
     <g transform="translate(286 476.836563)scale(0.1 -0.1)">
      <use xlink:href="#DejaVuSans-49"/>
      <use x="63.623047" xlink:href="#DejaVuSans-45"/>
      <use x="99.707031" xlink:href="#DejaVuSans-112"/>
      <use x="163.183594" xlink:href="#DejaVuSans-114"/>
      <use x="204.265625" xlink:href="#DejaVuSans-101"/>
      <use x="265.789062" xlink:href="#DejaVuSans-99"/>
      <use x="320.769531" xlink:href="#DejaVuSans-105"/>
      <use x="348.552734" xlink:href="#DejaVuSans-115"/>
      <use x="400.652344" xlink:href="#DejaVuSans-105"/>
      <use x="428.435547" xlink:href="#DejaVuSans-111"/>
      <use x="489.617188" xlink:href="#DejaVuSans-110"/>
     </g>
    </g>
   </g>
   <g id="matplotlib.axis_2">
    <g id="ytick_1">
     <g id="line2d_23">
      <path clip-path="url(#pf4478e3f48)" d="M 76.5 448.56 
L 550.8 448.56 
" style="fill:none;stroke:#b0b0b0;stroke-linecap:square;stroke-width:0.8;"/>
     </g>
     <g id="line2d_24">
      <defs>
       <path d="M 0 0 
L -3.5 0 
" id="md415321493" style="stroke:#000000;stroke-width:0.8;"/>
      </defs>
      <g>
       <use style="stroke:#000000;stroke-width:0.8;" x="76.5" xlink:href="#md415321493" y="448.56"/>
      </g>
     </g>
     <g id="text_13">
      <!-- 0.0 -->
      <g transform="translate(53.596875 452.359219)scale(0.1 -0.1)">
       <use xlink:href="#DejaVuSans-48"/>
       <use x="63.623047" xlink:href="#DejaVuSans-46"/>
       <use x="95.410156" xlink:href="#DejaVuSans-48"/>
      </g>
     </g>
    </g>
    <g id="ytick_2">
     <g id="line2d_25">
      <path clip-path="url(#pf4478e3f48)" d="M 76.5 409.752 
L 550.8 409.752 
" style="fill:none;stroke:#b0b0b0;stroke-linecap:square;stroke-width:0.8;"/>
     </g>
     <g id="line2d_26">
      <g>
       <use style="stroke:#000000;stroke-width:0.8;" x="76.5" xlink:href="#md415321493" y="409.752"/>
      </g>
     </g>
     <g id="text_14">
      <!-- 0.1 -->
      <g transform="translate(53.596875 413.551219)scale(0.1 -0.1)">
       <use xlink:href="#DejaVuSans-48"/>
       <use x="63.623047" xlink:href="#DejaVuSans-46"/>
       <use x="95.410156" xlink:href="#DejaVuSans-49"/>
      </g>
     </g>
    </g>
    <g id="ytick_3">
     <g id="line2d_27">
      <path clip-path="url(#pf4478e3f48)" d="M 76.5 370.944 
L 550.8 370.944 
" style="fill:none;stroke:#b0b0b0;stroke-linecap:square;stroke-width:0.8;"/>
     </g>
     <g id="line2d_28">
      <g>
       <use style="stroke:#000000;stroke-width:0.8;" x="76.5" xlink:href="#md415321493" y="370.944"/>
      </g>
     </g>
     <g id="text_15">
      <!-- 0.2 -->
      <g transform="translate(53.596875 374.743219)scale(0.1 -0.1)">
       <use xlink:href="#DejaVuSans-48"/>
       <use x="63.623047" xlink:href="#DejaVuSans-46"/>
       <use x="95.410156" xlink:href="#DejaVuSans-50"/>
      </g>
     </g>
    </g>
    <g id="ytick_4">
     <g id="line2d_29">
      <path clip-path="url(#pf4478e3f48)" d="M 76.5 332.136 
L 550.8 332.136 
" style="fill:none;stroke:#b0b0b0;stroke-linecap:square;stroke-width:0.8;"/>
     </g>
     <g id="line2d_30">
      <g>
       <use style="stroke:#000000;stroke-width:0.8;" x="76.5" xlink:href="#md415321493" y="332.136"/>
      </g>
     </g>
     <g id="text_16">
      <!-- 0.3 -->
      <g transform="translate(53.596875 335.935219)scale(0.1 -0.1)">
       <use xlink:href="#DejaVuSans-48"/>
       <use x="63.623047" xlink:href="#DejaVuSans-46"/>
       <use x="95.410156" xlink:href="#DejaVuSans-51"/>
      </g>
     </g>
    </g>
    <g id="ytick_5">
     <g id="line2d_31">
      <path clip-path="url(#pf4478e3f48)" d="M 76.5 293.328 
L 550.8 293.328 
" style="fill:none;stroke:#b0b0b0;stroke-linecap:square;stroke-width:0.8;"/>
     </g>
     <g id="line2d_32">
      <g>
       <use style="stroke:#000000;stroke-width:0.8;" x="76.5" xlink:href="#md415321493" y="293.328"/>
      </g>
     </g>
     <g id="text_17">
      <!-- 0.4 -->
      <g transform="translate(53.596875 297.127219)scale(0.1 -0.1)">
       <use xlink:href="#DejaVuSans-48"/>
       <use x="63.623047" xlink:href="#DejaVuSans-46"/>
       <use x="95.410156" xlink:href="#DejaVuSans-52"/>
      </g>
     </g>
    </g>
    <g id="ytick_6">
     <g id="line2d_33">
      <path clip-path="url(#pf4478e3f48)" d="M 76.5 254.52 
L 550.8 254.52 
" style="fill:none;stroke:#b0b0b0;stroke-linecap:square;stroke-width:0.8;"/>
     </g>
     <g id="line2d_34">
      <g>
       <use style="stroke:#000000;stroke-width:0.8;" x="76.5" xlink:href="#md415321493" y="254.52"/>
      </g>
     </g>
     <g id="text_18">
      <!-- 0.5 -->
      <g transform="translate(53.596875 258.319219)scale(0.1 -0.1)">
       <use xlink:href="#DejaVuSans-48"/>
       <use x="63.623047" xlink:href="#DejaVuSans-46"/>
       <use x="95.410156" xlink:href="#DejaVuSans-53"/>
      </g>
     </g>
    </g>
    <g id="ytick_7">
     <g id="line2d_35">
      <path clip-path="url(#pf4478e3f48)" d="M 76.5 215.712 
L 550.8 215.712 
" style="fill:none;stroke:#b0b0b0;stroke-linecap:square;stroke-width:0.8;"/>
     </g>
     <g id="line2d_36">
      <g>
       <use style="stroke:#000000;stroke-width:0.8;" x="76.5" xlink:href="#md415321493" y="215.712"/>
      </g>
     </g>
     <g id="text_19">
      <!-- 0.6 -->
      <g transform="translate(53.596875 219.511219)scale(0.1 -0.1)">
       <use xlink:href="#DejaVuSans-48"/>
       <use x="63.623047" xlink:href="#DejaVuSans-46"/>
       <use x="95.410156" xlink:href="#DejaVuSans-54"/>
      </g>
     </g>
    </g>
    <g id="ytick_8">
     <g id="line2d_37">
      <path clip-path="url(#pf4478e3f48)" d="M 76.5 176.904 
L 550.8 176.904 
" style="fill:none;stroke:#b0b0b0;stroke-linecap:square;stroke-width:0.8;"/>
     </g>
     <g id="line2d_38">
      <g>
       <use style="stroke:#000000;stroke-width:0.8;" x="76.5" xlink:href="#md415321493" y="176.904"/>
      </g>
     </g>
     <g id="text_20">
      <!-- 0.7 -->
      <g transform="translate(53.596875 180.703219)scale(0.1 -0.1)">
       <use xlink:href="#DejaVuSans-48"/>
       <use x="63.623047" xlink:href="#DejaVuSans-46"/>
       <use x="95.410156" xlink:href="#DejaVuSans-55"/>
      </g>
     </g>
    </g>
    <g id="ytick_9">
     <g id="line2d_39">
      <path clip-path="url(#pf4478e3f48)" d="M 76.5 138.096 
L 550.8 138.096 
" style="fill:none;stroke:#b0b0b0;stroke-linecap:square;stroke-width:0.8;"/>
     </g>
     <g id="line2d_40">
      <g>
       <use style="stroke:#000000;stroke-width:0.8;" x="76.5" xlink:href="#md415321493" y="138.096"/>
      </g>
     </g>
     <g id="text_21">
      <!-- 0.8 -->
      <g transform="translate(53.596875 141.895219)scale(0.1 -0.1)">
       <use xlink:href="#DejaVuSans-48"/>
       <use x="63.623047" xlink:href="#DejaVuSans-46"/>
       <use x="95.410156" xlink:href="#DejaVuSans-56"/>
      </g>
     </g>
    </g>
    <g id="ytick_10">
     <g id="line2d_41">
      <path clip-path="url(#pf4478e3f48)" d="M 76.5 99.288 
L 550.8 99.288 
" style="fill:none;stroke:#b0b0b0;stroke-linecap:square;stroke-width:0.8;"/>
     </g>
     <g id="line2d_42">
      <g>
       <use style="stroke:#000000;stroke-width:0.8;" x="76.5" xlink:href="#md415321493" y="99.288"/>
      </g>
     </g>
     <g id="text_22">
      <!-- 0.9 -->
      <g transform="translate(53.596875 103.087219)scale(0.1 -0.1)">
       <use xlink:href="#DejaVuSans-48"/>
       <use x="63.623047" xlink:href="#DejaVuSans-46"/>
       <use x="95.410156" xlink:href="#DejaVuSans-57"/>
      </g>
     </g>
    </g>
    <g id="ytick_11">
     <g id="line2d_43">
      <path clip-path="url(#pf4478e3f48)" d="M 76.5 60.48 
L 550.8 60.48 
" style="fill:none;stroke:#b0b0b0;stroke-linecap:square;stroke-width:0.8;"/>
     </g>
     <g id="line2d_44">
      <g>
       <use style="stroke:#000000;stroke-width:0.8;" x="76.5" xlink:href="#md415321493" y="60.48"/>
      </g>
     </g>
     <g id="text_23">
      <!-- 1.0 -->
      <g transform="translate(53.596875 64.279219)scale(0.1 -0.1)">
       <use xlink:href="#DejaVuSans-49"/>
       <use x="63.623047" xlink:href="#DejaVuSans-46"/>
       <use x="95.410156" xlink:href="#DejaVuSans-48"/>
      </g>
     </g>
    </g>
    <g id="text_24">
     <!-- #correct/1001 -->
     <defs>
      <path d="M 51.125 44 
L 36.921875 44 
L 32.8125 27.6875 
L 47.125 27.6875 
z
M 43.796875 71.78125 
L 38.71875 51.515625 
L 52.984375 51.515625 
L 58.109375 71.78125 
L 65.921875 71.78125 
L 60.890625 51.515625 
L 76.125 51.515625 
L 76.125 44 
L 58.984375 44 
L 54.984375 27.6875 
L 70.515625 27.6875 
L 70.515625 20.21875 
L 53.078125 20.21875 
L 48 0 
L 40.1875 0 
L 45.21875 20.21875 
L 30.90625 20.21875 
L 25.875 0 
L 18.015625 0 
L 23.09375 20.21875 
L 7.71875 20.21875 
L 7.71875 27.6875 
L 24.90625 27.6875 
L 29 44 
L 13.28125 44 
L 13.28125 51.515625 
L 30.90625 51.515625 
L 35.890625 71.78125 
z
" id="DejaVuSans-35"/>
      <path d="M 18.3125 70.21875 
L 18.3125 54.6875 
L 36.8125 54.6875 
L 36.8125 47.703125 
L 18.3125 47.703125 
L 18.3125 18.015625 
Q 18.3125 11.328125 20.140625 9.421875 
Q 21.96875 7.515625 27.59375 7.515625 
L 36.8125 7.515625 
L 36.8125 0 
L 27.59375 0 
Q 17.1875 0 13.234375 3.875 
Q 9.28125 7.765625 9.28125 18.015625 
L 9.28125 47.703125 
L 2.6875 47.703125 
L 2.6875 54.6875 
L 9.28125 54.6875 
L 9.28125 70.21875 
z
" id="DejaVuSans-116"/>
      <path d="M 25.390625 72.90625 
L 33.6875 72.90625 
L 8.296875 -9.28125 
L 0 -9.28125 
z
" id="DejaVuSans-47"/>
     </defs>
     <g transform="translate(47.517187 290.822344)rotate(-90)scale(0.1 -0.1)">
      <use xlink:href="#DejaVuSans-35"/>
      <use x="83.789062" xlink:href="#DejaVuSans-99"/>
      <use x="138.769531" xlink:href="#DejaVuSans-111"/>
      <use x="199.951172" xlink:href="#DejaVuSans-114"/>
      <use x="241.048828" xlink:href="#DejaVuSans-114"/>
      <use x="282.130859" xlink:href="#DejaVuSans-101"/>
      <use x="343.654297" xlink:href="#DejaVuSans-99"/>
      <use x="398.634766" xlink:href="#DejaVuSans-116"/>
      <use x="437.84375" xlink:href="#DejaVuSans-47"/>
      <use x="471.535156" xlink:href="#DejaVuSans-49"/>
      <use x="535.158203" xlink:href="#DejaVuSans-48"/>
      <use x="598.78125" xlink:href="#DejaVuSans-48"/>
      <use x="662.404297" xlink:href="#DejaVuSans-49"/>
     </g>
    </g>
   </g>
   <g id="line2d_45">
    <path clip-path="url(#pf4478e3f48)" d="M 76.5 448.172308 
L 76.5 305.113846 
L 77.778437 305.113846 
L 77.716154 297.747692 
L 78.926087 297.747692 
L 78.895455 295.809231 
L 80.084131 295.809231 
L 79.953641 289.993846 
L 81.093705 289.993846 
L 80.744295 276.812308 
L 81.793527 276.812308 
L 81.735099 274.873846 
L 82.768282 274.873846 
L 82.391925 263.630769 
L 83.359711 263.630769 
L 83.275714 261.304615 
L 84.227902 261.304615 
L 83.579104 243.858462 
L 84.449162 243.858462 
L 84.177518 236.492308 
L 85.01526 236.492308 
L 84.924512 234.166154 
L 85.750532 234.166154 
L 85.210017 220.596923 
L 85.986 220.596923 
L 85.754634 214.781538 
L 86.509578 214.781538 
L 85.986 201.6 
L 87.41181 201.6 
L 87.263238 198.110769 
L 87.963444 198.110769 
L 87.911729 196.947692 
L 88.606757 196.947692 
L 88.151879 186.867692 
L 88.819481 186.867692 
L 88.731232 184.929231 
L 89.392275 184.929231 
L 89.192535 180.664615 
L 89.841772 180.664615 
L 89.804348 179.889231 
L 90.45 179.889231 
L 90.43049 179.501538 
L 91.073464 179.501538 
L 90.892552 176.012308 
L 91.526033 176.012308 
L 91.484753 175.236923 
L 92.114815 175.236923 
L 91.945319 172.135385 
L 92.567073 172.135385 
L 92.480458 170.584615 
L 93.097308 170.584615 
L 93.052752 169.809231 
L 93.666354 169.809231 
L 93.484218 166.707692 
L 94.089934 166.707692 
L 94.043461 165.932308 
L 94.646042 165.932308 
L 94.574507 164.769231 
L 96.365969 164.769231 
L 95.908696 157.790769 
L 96.489655 157.790769 
L 96.187925 153.138462 
L 96.759045 153.138462 
L 96.733626 152.750769 
L 97.302632 152.750769 
L 97.276596 152.363077 
L 97.8435 152.363077 
L 97.790274 151.587692 
L 98.354421 151.587692 
L 98.138841 148.486154 
L 98.696305 148.486154 
L 98.5875 146.935385 
L 99.141004 146.935385 
L 99.113325 146.547692 
L 99.664835 146.547692 
L 99.468523 143.833846 
L 100.014268 143.833846 
L 99.957539 143.058462 
L 101.583173 143.058462 
L 101.553061 142.670769 
L 102.629102 142.670769 
L 102.535561 141.507692 
L 103.069845 141.507692 
L 103.038214 141.12 
L 104.631673 141.12 
L 104.531915 139.956923 
L 106.108834 139.956923 
L 106.039248 139.181538 
L 106.561268 139.181538 
L 106.455789 138.018462 
L 106.974883 138.018462 
L 106.903846 137.243077 
L 107.420605 137.243077 
L 107.384651 136.855385 
L 107.899652 136.855385 
L 107.682353 134.529231 
L 108.192857 134.529231 
L 108.156387 134.141538 
L 109.17279 134.141538 
L 108.80193 130.264615 
L 109.303061 130.264615 
L 109.265912 129.876923 
L 110.263729 129.876923 
L 109.923826 126.387692 
L 110.416425 126.387692 
L 110.378571 126 
L 111.359465 126 
L 111.282 125.224615 
L 112.256541 125.224615 
L 112.138011 124.061538 
L 113.105292 124.061538 
L 113.064978 123.673846 
L 114.027033 123.673846 
L 113.781223 121.347692 
L 114.257797 121.347692 
L 114.175626 120.572308 
L 114.650217 120.572308 
L 114.403024 118.246154 
L 114.873786 118.246154 
L 114.832435 117.858462 
L 115.301722 117.858462 
L 115.13537 116.307692 
L 116.067273 116.307692 
L 115.982818 115.532308 
L 116.446375 115.532308 
L 116.403834 115.144615 
L 116.865957 115.144615 
L 116.823061 114.756923 
L 117.283758 114.756923 
L 117.240509 114.369231 
L 117.699788 114.369231 
L 117.65619 113.981538 
L 118.114059 113.981538 
L 118.070116 113.593846 
L 118.526582 113.593846 
L 118.482297 113.206154 
L 118.937368 113.206154 
L 118.848214 112.430769 
L 119.301469 112.430769 
L 119.122571 110.88 
L 119.573173 110.88 
L 119.43871 109.716923 
L 119.88711 109.716923 
L 119.797095 108.941538 
L 120.243731 108.941538 
L 120.153257 108.166154 
L 120.59814 108.166154 
L 120.507216 107.390769 
L 121.392593 107.390769 
L 121.300411 106.615385 
L 121.740923 106.615385 
L 121.602147 105.452308 
L 122.040552 105.452308 
L 121.994082 105.064615 
L 123.302747 105.064615 
L 123.255183 104.676923 
L 124.122414 104.676923 
L 123.93 103.126154 
L 124.790625 103.126154 
L 124.741994 102.738462 
L 125.170624 102.738462 
L 124.927027 100.8 
L 126.202096 100.8 
L 126.103088 100.024615 
L 127.788393 100.024615 
L 127.686832 99.249231 
L 129.355917 99.249231 
L 129.303842 98.861538 
L 129.718701 98.861538 
L 129.666372 98.473846 
L 130.492934 98.473846 
L 130.44 98.086154 
L 132.082031 98.086154 
L 131.973684 97.310769 
L 132.788521 97.310769 
L 132.733819 96.923077 
L 134.352662 96.923077 
L 134.296712 96.535385 
L 135.100772 96.535385 
L 134.931569 95.372308 
L 135.730548 95.372308 
L 135.560345 94.209231 
L 136.750143 94.209231 
L 136.692653 93.821538 
L 137.087417 93.821538 
L 136.914639 92.658462 
L 138.482386 92.658462 
L 138.423746 92.270769 
L 139.20255 92.270769 
L 139.143396 91.883077 
L 139.531385 91.883077 
L 139.472034 91.495385 
L 140.245207 91.495385 
L 140.065979 90.332308 
L 141.6 90.332308 
L 141.539272 89.944615 
L 141.92069 89.944615 
L 141.859777 89.556923 
L 142.240186 89.556923 
L 142.179089 89.169231 
L 144.445009 89.169231 
L 144.382271 88.781538 
L 145.877829 88.781538 
L 145.750413 88.006154 
L 147.969863 88.006154 
L 147.904653 87.618462 
L 149.734332 87.618462 
L 149.667877 87.230769 
L 150.756923 87.230769 
L 150.622764 86.455385 
L 150.983935 86.455385 
L 150.916772 86.067692 
L 154.490349 86.067692 
L 154.420714 85.68 
L 155.479608 85.68 
L 155.409342 85.292308 
L 156.111634 85.292308 
L 156.040994 84.904615 
L 157.437135 84.904615 
L 157.365636 84.516923 
L 159.095778 84.516923 
L 159.023199 84.129231 
L 163.448132 84.129231 
L 163.372656 83.741538 
L 164.378961 83.741538 
L 164.302941 83.353846 
L 171.521053 83.353846 
L 171.440458 82.966154 
L 172.403299 82.966154 
L 172.322232 82.578462 
L 175.179866 82.578462 
L 175.09715 82.190769 
L 177.28875 82.190769 
L 177.204829 81.803077 
L 186.013171 81.803077 
L 185.924208 81.415385 
L 189.737219 81.415385 
L 189.646265 81.027692 
L 196.476596 81.027692 
L 196.382126 80.64 
L 197.772 80.64 
L 197.582067 79.864615 
L 203.831308 79.864615 
L 203.733436 79.476923 
L 208.729091 79.476923 
L 208.628993 79.089231 
L 210.688713 79.089231 
L 210.58782 78.701538 
L 226.67235 78.701538 
L 226.564853 78.313846 
L 231.366643 78.313846 
L 231.257505 77.926154 
L 235.479555 77.926154 
L 235.369076 77.538462 
L 253.935971 77.538462 
L 253.82 77.150769 
L 298.926718 77.150769 
L 298.80349 76.763077 
L 305.595849 76.763077 
L 305.595849 76.763077 
" style="fill:none;stroke:#1f77b4;stroke-linecap:square;stroke-width:2;"/>
   </g>
   <g id="line2d_46">
    <path clip-path="url(#pf4478e3f48)" d="M 76.5 448.172308 
L 76.5 319.846154 
L 77.924324 319.846154 
L 77.847443 312.48 
L 79.187252 312.48 
L 79.084741 307.052308 
L 80.366576 307.052308 
L 80.195844 300.461538 
L 81.415026 300.461538 
L 80.72539 276.036923 
L 80.528025 267.507692 
L 82.51649 267.507692 
L 82.331557 261.692308 
L 83.289571 261.692308 
L 82.471403 235.716923 
L 82.324737 230.289231 
L 83.145184 230.289231 
L 82.887879 221.372308 
L 83.674286 221.372308 
L 83.6145 219.433846 
L 84.391847 219.433846 
L 84.365672 218.658462 
L 85.137914 218.658462 
L 84.781429 208.578462 
L 86.256171 208.578462 
L 86.179592 206.64 
L 86.907837 206.64 
L 86.545688 197.723077 
L 87.946154 197.723077 
L 87.792857 194.233846 
L 88.480832 194.233846 
L 88.427663 193.070769 
L 89.110635 193.070769 
L 88.909012 188.806154 
L 89.57939 188.806154 
L 89.503896 187.255385 
L 90.168588 187.255385 
L 89.993599 183.766154 
L 90.648153 183.766154 
L 89.978078 170.196923 
L 90.600811 170.196923 
L 90.468675 167.483077 
L 91.084091 167.483077 
L 91.0452 166.707692 
L 91.65739 166.707692 
L 91.537252 164.381538 
L 92.14314 164.381538 
L 92.061024 162.830769 
L 92.662254 162.830769 
L 92.641099 162.443077 
L 93.24 162.443077 
L 93.218146 162.055385 
L 95.003251 162.055385 
L 94.979221 161.667692 
L 95.570428 161.667692 
L 95.447552 159.729231 
L 96.033591 159.729231 
L 95.859184 157.015385 
L 96.438726 157.015385 
L 96.413359 156.627692 
L 96.990724 156.627692 
L 96.964721 156.24 
L 97.539924 156.24 
L 97.486726 155.464615 
L 98.059091 155.464615 
L 97.8435 152.363077 
L 98.408989 152.363077 
L 98.381671 151.975385 
L 98.945081 151.975385 
L 98.861538 150.812308 
L 99.421561 150.812308 
L 99.393193 150.424615 
L 101.063009 150.424615 
L 101.032759 150.036923 
L 102.137838 150.036923 
L 102.10638 149.649231 
L 103.204774 149.649231 
L 103.042336 147.710769 
L 103.586391 147.710769 
L 103.520727 146.935385 
L 104.602418 146.935385 
L 104.568478 146.547692 
L 105.106755 146.547692 
L 105.072289 146.16 
L 106.14375 146.16 
L 106.108163 145.772308 
L 106.641367 145.772308 
L 106.569258 144.996923 
L 107.629475 144.996923 
L 107.371598 142.283077 
L 107.895745 142.283077 
L 107.711281 140.344615 
L 108.231338 140.344615 
L 108.12 139.181538 
L 108.63715 139.181538 
L 108.562238 138.406154 
L 109.590698 138.406154 
L 109.552265 138.018462 
L 110.064153 138.018462 
L 109.832143 135.692308 
L 110.339586 135.692308 
L 110.30069 135.304615 
L 110.806429 135.304615 
L 110.767087 134.916923 
L 112.275771 134.916923 
L 112.234932 134.529231 
L 115.711665 134.529231 
L 115.534837 132.978462 
L 116.025 132.978462 
L 115.98054 132.590769 
L 116.469101 132.590769 
L 116.334826 131.427692 
L 116.820805 131.427692 
L 116.730804 130.652308 
L 117.69755 130.652308 
L 117.651724 130.264615 
L 118.133 130.264615 
L 118.086792 129.876923 
L 119.522788 129.876923 
L 119.475249 129.489231 
L 121.373267 129.489231 
L 121.225658 128.326154 
L 121.696166 128.326154 
L 121.499019 126.775385 
L 121.966667 126.775385 
L 121.769414 125.224615 
L 122.698052 125.224615 
L 122.498922 123.673846 
L 122.959957 123.673846 
L 122.760772 122.123077 
L 125.495847 122.123077 
L 125.443723 121.735385 
L 126.796925 121.735385 
L 126.743644 121.347692 
L 127.192381 121.347692 
L 127.138795 120.96 
L 127.586167 120.96 
L 127.478504 120.184615 
L 129.255299 120.184615 
L 129.2 119.796923 
L 129.641466 119.796923 
L 129.530408 119.021538 
L 130.408968 119.021538 
L 130.352812 118.633846 
L 131.226923 118.633846 
L 131.170093 118.246154 
L 132.039793 118.246154 
L 131.982298 117.858462 
L 133.709381 117.858462 
L 133.650463 117.470769 
L 134.507914 117.470769 
L 134.388923 116.695385 
L 135.241351 116.695385 
L 135.181288 116.307692 
L 135.605822 116.307692 
L 135.54551 115.92 
L 137.653401 115.92 
L 137.591379 115.532308 
L 139.260909 115.532308 
L 139.071299 114.369231 
L 142.361838 114.369231 
L 142.296108 113.981538 
L 143.109861 113.981538 
L 143.043582 113.593846 
L 143.448907 113.593846 
L 142.92071 110.492308 
L 145.71714 110.492308 
L 145.649413 110.104615 
L 146.045455 110.104615 
L 145.977539 109.716923 
L 146.766667 109.716923 
L 146.698247 109.329231 
L 152.897315 109.329231 
L 152.824138 108.941538 
L 153.96447 108.941538 
L 153.890553 108.553846 
L 155.775214 108.553846 
L 155.7 108.166154 
L 156.074502 108.166154 
L 155.999148 107.778462 
L 157.488962 107.778462 
L 157.41263 107.390769 
L 157.783051 107.390769 
L 157.706585 107.003077 
L 159.180225 107.003077 
L 159.102809 106.615385 
L 159.834953 106.615385 
L 159.679478 105.84 
L 160.770977 105.84 
L 160.692658 105.452308 
L 161.054875 105.452308 
L 160.898146 104.676923 
L 168.341727 104.676923 
L 168.175045 103.901538 
L 170.590171 103.901538 
L 170.505405 103.513846 
L 172.88863 103.513846 
L 172.802415 103.126154 
L 173.140214 103.126154 
L 173.053929 102.738462 
L 173.727273 102.738462 
L 173.640695 102.350769 
L 174.3112 102.350769 
L 174.224334 101.963077 
L 175.557345 101.963077 
L 175.469761 101.575385 
L 178.759246 101.575385 
L 178.669702 101.187692 
L 181.9 101.187692 
L 181.808586 100.8 
L 187.480529 100.8 
L 187.385836 100.412308 
L 188.621939 100.412308 
L 188.526678 100.024615 
L 190.972405 100.024615 
L 190.875885 99.636923 
L 192.687584 99.636923 
L 192.590193 99.249231 
L 200.804668 99.249231 
L 200.702946 98.861538 
L 201.275 98.861538 
L 201.173143 98.473846 
L 204.284709 98.473846 
L 204.181407 98.086154 
L 204.461389 98.086154 
L 204.358111 97.698462 
L 205.194928 97.698462 
L 205.091392 97.310769 
L 209.484829 97.310769 
L 209.379286 96.923077 
L 210.190261 96.923077 
L 209.978893 96.147692 
L 211.053191 96.147692 
L 210.947244 95.76 
L 211.481604 95.76 
L 211.37557 95.372308 
L 219.952144 95.372308 
L 219.842387 94.984615 
L 221.35476 94.984615 
L 221.244521 94.596923 
L 225.453719 94.596923 
L 225.341892 94.209231 
L 235.977778 94.209231 
L 235.862046 93.821538 
L 241.253281 93.821538 
L 241.135852 93.433846 
L 242.235511 93.433846 
L 242.117885 93.046154 
L 246.438139 93.046154 
L 246.319301 92.658462 
L 254.200954 92.658462 
L 254.079986 92.270769 
L 258.849766 92.270769 
L 258.727711 91.883077 
L 276.362264 91.883077 
L 276.236644 91.495385 
L 279.139366 91.495385 
L 279.013424 91.107692 
L 290.963636 91.107692 
L 290.836283 90.72 
L 301.353333 90.72 
L 301.225285 90.332308 
L 304.174676 90.332308 
L 304.046625 89.944615 
L 314.289218 89.944615 
L 314.289218 89.944615 
" style="fill:none;stroke:#ff7f0e;stroke-linecap:square;stroke-width:2;"/>
   </g>
   <g id="line2d_47">
    <path clip-path="url(#pf4478e3f48)" d="M 76.5 448.172308 
L 76.5 439.643077 
L 96.2625 439.643077 
L 94.066667 438.48 
L 92.31 437.316923 
L 90.45 435.766154 
L 89.675 434.990769 
L 102.137838 434.990769 
L 99.636585 433.44 
L 97.58 431.889231 
L 97.121739 431.501538 
L 106.774468 431.501538 
L 104.4 429.950769 
L 102.370909 428.4 
L 100.616949 426.849231 
L 108.12 426.849231 
L 105.687692 424.910769 
L 103.602857 422.972308 
L 101.463158 420.646154 
L 99.636585 418.32 
L 97.816854 415.606154 
L 96.2625 412.892308 
L 94.742308 409.790769 
L 93.289381 406.301538 
L 91.92439 402.424615 
L 90.658209 398.16 
L 90.247826 396.609231 
L 93.561151 396.609231 
L 93.439286 396.221538 
L 96.682979 396.221538 
L 95.222368 391.956923 
L 93.747273 386.916923 
L 93.643373 386.529231 
L 96.380838 386.529231 
L 95.802907 384.590769 
L 98.432948 384.590769 
L 96.9 379.550769 
L 95.859184 375.673846 
L 98.168528 375.673846 
L 97.737313 374.123077 
L 102.200985 374.123077 
L 100.542857 368.695385 
L 99.4837 364.818462 
L 101.463158 364.818462 
L 100.719574 362.104615 
L 104.517722 362.104615 
L 102.74585 355.901538 
L 101.276866 350.086154 
L 102.947955 350.086154 
L 102.370909 347.76 
L 103.995652 347.76 
L 103.315548 345.046154 
L 104.891197 345.046154 
L 104.019113 341.556923 
L 105.538776 341.556923 
L 103.776038 334.190769 
L 103.34717 332.252308 
L 104.749843 332.252308 
L 103.005 324.110769 
L 101.32562 315.193846 
L 100.725 311.704615 
L 101.931635 311.704615 
L 101.011628 306.276923 
L 102.170876 306.276923 
L 102.039231 305.501538 
L 104.328827 305.501538 
L 103.909296 303.175385 
L 105.029323 303.175385 
L 104.816418 302.012308 
L 105.923077 302.012308 
L 105.777778 301.236923 
L 107.964619 301.236923 
L 107.358072 298.135385 
L 108.424038 298.135385 
L 107.029655 290.769231 
L 109.060641 290.769231 
L 108.12 285.729231 
L 109.101552 285.729231 
L 108.188147 280.689231 
L 109.14 280.689231 
L 108.86162 279.138462 
L 109.801915 279.138462 
L 109.1762 275.649231 
L 110.09625 275.649231 
L 109.887578 274.486154 
L 110.798554 274.486154 
L 110.517418 272.935385 
L 111.417791 272.935385 
L 110.718036 269.058462 
L 111.5982 269.058462 
L 110.977603 265.569231 
L 111.84 265.569231 
L 111.633333 264.406154 
L 112.487743 264.406154 
L 112.348256 263.630769 
L 113.196325 263.630769 
L 112.228814 258.203077 
L 113.053195 258.203077 
L 112.78041 256.652308 
L 113.596089 256.652308 
L 113.458442 255.876923 
L 114.268333 255.876923 
L 113.447283 251.224615 
L 114.238156 251.224615 
L 112.296226 239.593846 
L 114.541126 239.593846 
L 114.47632 239.206154 
L 116.694915 239.206154 
L 116.559122 238.430769 
L 117.2914 238.430769 
L 117.222727 238.043077 
L 118.677685 238.043077 
L 118.11904 234.941538 
L 118.834215 234.941538 
L 118.625329 233.778462 
L 119.334975 233.778462 
L 117.972973 226.024615 
L 118.66 226.024615 
L 118.46019 224.861538 
L 122.519718 224.861538 
L 122.162422 222.923077 
L 123.489474 222.923077 
L 123.200308 221.372308 
L 123.857143 221.372308 
L 122.309064 212.843077 
L 124.210651 212.843077 
L 122.706877 204.313846 
L 123.319313 204.313846 
L 123.252429 203.926154 
L 124.470513 203.926154 
L 124.402276 203.538462 
L 125.007955 203.538462 
L 124.598028 201.212308 
L 126.391304 201.212308 
L 126.321429 200.824615 
L 126.915105 200.824615 
L 126.844693 200.436923 
L 128.025627 200.436923 
L 127.457851 197.335385 
L 128.620879 197.335385 
L 127.775676 192.683077 
L 128.915903 192.683077 
L 128.704832 191.52 
L 129.83494 191.52 
L 129.763636 191.132308 
L 130.8864 191.132308 
L 130.526225 189.193846 
L 131.082143 189.193846 
L 130.794868 187.643077 
L 131.897244 187.643077 
L 131.392978 184.929231 
L 131.937662 184.929231 
L 131.865759 184.541538 
L 133.489535 184.541538 
L 133.051154 182.215385 
L 133.586044 182.215385 
L 133.513043 181.827692 
L 134.045977 181.827692 
L 133.035132 176.4 
L 133.558647 176.4 
L 133.487234 176.012308 
L 134.008875 176.012308 
L 133.510037 173.298462 
L 135.568187 173.298462 
L 135.495443 172.910769 
L 136.515848 172.910769 
L 136.295471 171.747692 
L 136.8022 171.747692 
L 136.728571 171.36 
L 137.233537 171.36 
L 136.865455 169.421538 
L 137.366586 169.421538 
L 136.927644 167.095385 
L 137.920144 167.095385 
L 137.773206 166.32 
L 139.74 166.32 
L 139.440284 164.769231 
L 139.927101 164.769231 
L 138.676218 158.178462 
L 139.630208 158.178462 
L 139.557225 157.790769 
L 140.032102 157.790769 
L 139.667394 155.852308 
L 140.138876 155.852308 
L 139.632082 153.138462 
L 140.565494 153.138462 
L 140.060473 150.424615 
L 140.522497 150.424615 
L 140.450562 150.036923 
L 142.286577 150.036923 
L 142.139732 149.261538 
L 143.049889 149.261538 
L 142.975862 148.873846 
L 143.881132 148.873846 
L 143.80643 148.486154 
L 144.257143 148.486154 
L 143.884031 146.547692 
L 144.331683 146.547692 
L 144.257143 146.16 
L 145.59299 146.16 
L 145.291603 144.609231 
L 146.174102 144.609231 
L 145.947397 143.446154 
L 146.386024 143.446154 
L 146.009483 141.507692 
L 146.44521 141.507692 
L 146.294952 140.732308 
L 147.162058 140.732308 
L 146.935577 139.569231 
L 147.366596 139.569231 
L 147.215655 138.793846 
L 147.645 138.793846 
L 147.569394 138.406154 
L 148.850847 138.406154 
L 148.697886 137.630769 
L 149.122492 137.630769 
L 149.045886 137.243077 
L 149.469231 137.243077 
L 149.392421 136.855385 
L 150.235714 136.855385 
L 150.158342 136.467692 
L 150.578302 136.467692 
L 150.500733 136.08 
L 150.919456 136.08 
L 150.609375 134.529231 
L 151.441372 134.529231 
L 151.363551 134.141538 
L 151.777905 134.141538 
L 151.62205 133.366154 
L 152.446798 133.366154 
L 152.368421 132.978462 
L 153.189083 132.978462 
L 153.031449 132.203077 
L 153.847385 132.203077 
L 153.689048 131.427692 
L 154.904694 131.427692 
L 154.824771 131.04 
L 155.228004 131.04 
L 155.147915 130.652308 
L 155.55 130.652308 
L 155.469746 130.264615 
L 156.270821 130.264615 
L 156.109505 129.489231 
L 157.303125 129.489231 
L 157.059497 128.326154 
L 158.636036 128.326154 
L 158.5539 127.938462 
L 159.336826 127.938462 
L 159.089552 126.775385 
L 159.478926 126.775385 
L 159.396524 126.387692 
L 160.172349 126.387692 
L 160.089505 126 
L 160.475964 126 
L 160.392984 125.612308 
L 160.778381 125.612308 
L 160.612315 124.836923 
L 160.996358 124.836923 
L 160.913274 124.449231 
L 161.296267 124.449231 
L 161.213052 124.061538 
L 161.9762 124.061538 
L 161.725781 122.898462 
L 162.484211 122.898462 
L 162.400487 122.510769 
L 163.155394 122.510769 
L 163.071262 122.123077 
L 164.944348 122.123077 
L 164.77377 121.347692 
L 167.728995 121.347692 
L 167.641778 120.96 
L 168.007736 120.96 
L 167.92042 120.572308 
L 168.285415 120.572308 
L 167.936752 119.021538 
L 169.746125 119.021538 
L 169.658074 118.633846 
L 170.017642 118.633846 
L 169.841525 117.858462 
L 170.199906 117.858462 
L 170.111842 117.470769 
L 172.6 117.470769 
L 172.510354 117.083077 
L 173.916636 117.083077 
L 173.645783 115.92 
L 174.343571 115.92 
L 174.253142 115.532308 
L 174.600831 115.532308 
L 174.510332 115.144615 
L 174.857143 115.144615 
L 174.766575 114.756923 
L 176.146514 114.756923 
L 176.055179 114.369231 
L 177.764781 114.369231 
L 177.67247 113.981538 
L 179.028065 113.981538 
L 178.842158 113.206154 
L 181.852608 113.206154 
L 181.569148 112.043077 
L 181.9 112.043077 
L 181.80564 111.655385 
L 182.794018 111.655385 
L 182.604545 110.88 
L 183.912522 110.88 
L 183.817214 110.492308 
L 185.438163 110.492308 
L 185.342012 110.104615 
L 186.30713 110.104615 
L 185.825942 108.166154 
L 186.145534 108.166154 
L 186.049606 107.778462 
L 186.686725 107.778462 
L 186.494595 107.003077 
L 186.811934 107.003077 
L 186.715927 106.615385 
L 189.545596 106.615385 
L 189.448059 106.227692 
L 191.61741 106.227692 
L 191.518766 105.84 
L 191.82637 105.84 
L 191.727716 105.452308 
L 192.340991 105.452308 
L 192.044974 104.289231 
L 192.655102 104.289231 
L 192.556415 103.901538 
L 193.164122 103.901538 
L 193.065254 103.513846 
L 196.666611 103.513846 
L 196.565884 103.126154 
L 198.338532 103.126154 
L 198.237 102.738462 
L 200.571854 102.738462 
L 200.469231 102.350769 
L 201.336386 102.350769 
L 201.233471 101.963077 
L 204.091742 101.963077 
L 203.9875 101.575385 
L 205.117182 101.575385 
L 205.012531 101.187692 
L 205.293659 101.187692 
L 205.189033 100.8 
L 205.469562 100.8 
L 205.364964 100.412308 
L 206.481973 100.412308 
L 206.376979 100.024615 
L 209.136779 100.024615 
L 209.030584 99.636923 
L 209.304 99.636923 
L 208.986034 98.473846 
L 210.885 98.473846 
L 210.77843 98.086154 
L 211.585443 98.086154 
L 211.478656 97.698462 
L 213.345991 97.698462 
L 213.238492 97.310769 
L 214.822048 97.310769 
L 214.713984 96.923077 
L 217.577614 96.923077 
L 217.468421 96.535385 
L 218.240618 96.535385 
L 218.13125 96.147692 
L 219.918419 96.147692 
L 219.698621 95.372308 
L 220.205279 95.372308 
L 220.095413 94.984615 
L 222.105775 94.984615 
L 221.884825 94.209231 
L 223.622491 94.209231 
L 223.511538 93.821538 
L 226.93097 93.821538 
L 226.818792 93.433846 
L 232.048129 93.433846 
L 231.934091 93.046154 
L 235.631087 93.046154 
L 235.515858 92.658462 
L 236.426426 92.658462 
L 236.311039 92.270769 
L 236.764193 92.270769 
L 236.648812 91.883077 
L 241.766006 91.883077 
L 241.649045 91.495385 
L 245.963782 91.495385 
L 245.845607 91.107692 
L 248.167059 91.107692 
L 248.04834 90.72 
L 248.257567 90.72 
L 248.13895 90.332308 
L 252.058896 90.332308 
L 251.939305 89.944615 
L 256.746716 89.944615 
L 256.625988 89.556923 
L 256.822892 89.556923 
L 256.702274 89.169231 
L 261.729586 89.169231 
L 261.607884 88.781538 
L 264.24375 88.781538 
L 264.121601 88.393846 
L 267.985687 88.393846 
L 267.862861 88.006154 
L 274.248903 88.006154 
L 274.125 87.618462 
L 291.203704 87.618462 
L 291.077556 87.230769 
L 297.477593 87.230769 
L 297.351031 86.843077 
L 312.24372 86.843077 
L 312.24372 86.843077 
" style="fill:none;stroke:#2ca02c;stroke-linecap:square;stroke-width:2;"/>
   </g>
   <g id="line2d_48">
    <path clip-path="url(#pf4478e3f48)" d="M 76.5 448.172308 
L 76.5 435.766154 
L 90.45 435.766154 
L 88.981579 434.215385 
L 87.792857 432.664615 
L 86.591489 430.726154 
L 85.449057 428.4 
L 94.066667 428.4 
L 92.577966 426.461538 
L 100.215 426.461538 
L 98.732812 424.910769 
L 105.687692 424.910769 
L 103.602857 422.972308 
L 101.463158 420.646154 
L 99.636585 418.32 
L 97.816854 415.606154 
L 102.85 415.606154 
L 100.948454 412.892308 
L 99.302885 410.178462 
L 97.674107 407.076923 
L 96.099174 403.587692 
L 94.603053 399.710769 
L 93.200704 395.446154 
L 91.899351 390.793846 
L 91.701923 390.018462 
L 97.513291 390.018462 
L 97.121739 388.855385 
L 99.922222 388.855385 
L 99.085714 386.529231 
L 101.75858 386.529231 
L 100.892571 384.203077 
L 103.448864 384.203077 
L 101.728723 379.550769 
L 100.097015 374.510769 
L 99.085714 371.021538 
L 101.22654 371.021538 
L 99.585398 365.206154 
L 101.573128 365.206154 
L 99.922222 359.003077 
L 101.770082 359.003077 
L 100.124138 352.412308 
L 98.521071 345.046154 
L 97.330743 338.843077 
L 98.857576 338.843077 
L 98.129316 334.966154 
L 99.599026 334.966154 
L 99.014241 331.864615 
L 100.439432 331.864615 
L 98.82 322.947692 
L 97.291233 313.255385 
L 96.211169 305.501538 
L 97.38886 305.501538 
L 97.281186 304.726154 
L 98.447044 304.726154 
L 96.924402 293.483077 
L 96.682979 291.544615 
L 97.754009 291.544615 
L 97.604684 290.381538 
L 98.663551 290.381538 
L 97.257112 279.138462 
L 98.24738 279.138462 
L 97.207484 270.221538 
L 98.148548 270.221538 
L 97.081065 260.529231 
L 97.974213 260.529231 
L 97.641279 257.427692 
L 98.517795 257.427692 
L 98.348752 255.876923 
L 99.215517 255.876923 
L 98.788534 252 
L 100.481461 252 
L 99.699457 245.021538 
L 100.51519 245.021538 
L 100.471841 244.633846 
L 101.283243 244.633846 
L 100.462892 237.267692 
L 101.246087 237.267692 
L 101.07513 235.716923 
L 101.850517 235.716923 
L 101.720069 234.553846 
L 104.019113 234.553846 
L 103.694266 231.84 
L 104.44697 231.84 
L 104.121464 229.126154 
L 104.863455 229.126154 
L 104.72281 227.963077 
L 105.458911 227.963077 
L 104.179968 217.107692 
L 104.883307 217.107692 
L 104.749843 215.944615 
L 106.14375 215.944615 
L 105.868421 213.618462 
L 106.556105 213.618462 
L 106.279939 211.292308 
L 106.959633 211.292308 
L 106.820548 210.129231 
L 107.495289 210.129231 
L 107.031287 206.252308 
L 107.694619 206.252308 
L 107.235199 202.375385 
L 107.8875 202.375385 
L 107.795455 201.6 
L 108.44407 201.6 
L 107.847414 196.56 
L 109.116619 196.56 
L 108.930769 195.009231 
L 109.559317 195.009231 
L 109.512358 194.621538 
L 110.138298 194.621538 
L 110.090652 194.233846 
L 111.335593 194.233846 
L 110.565746 188.030769 
L 111.172966 188.030769 
L 111.125207 187.643077 
L 112.333104 187.643077 
L 112.234932 186.867692 
L 112.834884 186.867692 
L 112.686376 185.704615 
L 113.282449 185.704615 
L 113.132927 184.541538 
L 113.725169 184.541538 
L 113.674865 184.153846 
L 114.264777 184.153846 
L 114.213881 183.766154 
L 114.80148 183.766154 
L 114.75 183.378462 
L 115.335302 183.378462 
L 115.231325 182.603077 
L 115.813636 182.603077 
L 115.761148 182.215385 
L 116.3412 182.215385 
L 116.077351 180.276923 
L 117.225892 180.276923 
L 117.011827 178.726154 
L 117.581102 178.726154 
L 117.527261 178.338462 
L 118.094372 178.338462 
L 117.610091 174.849231 
L 118.169767 174.849231 
L 118.062371 174.073846 
L 119.174807 174.073846 
L 118.579848 169.809231 
L 119.126962 169.809231 
L 119.073072 169.421538 
L 119.618182 169.421538 
L 119.133708 165.932308 
L 119.671945 165.932308 
L 119.457692 164.381538 
L 119.992193 164.381538 
L 119.354945 159.729231 
L 119.881098 159.729231 
L 119.513906 157.015385 
L 120.034783 157.015385 
L 119.773469 155.076923 
L 120.290288 155.076923 
L 119.669149 150.424615 
L 120.178158 150.424615 
L 119.820141 147.710769 
L 120.324211 147.710769 
L 120.273014 147.323077 
L 120.775379 147.323077 
L 120.723776 146.935385 
L 121.224447 146.935385 
L 121.172442 146.547692 
L 121.671429 146.547692 
L 121.255581 143.446154 
L 121.74931 143.446154 
L 121.697359 143.058462 
L 122.18945 143.058462 
L 122.084897 142.283077 
L 122.574857 142.283077 
L 122.52226 141.895385 
L 123.010604 141.895385 
L 122.799432 140.344615 
L 123.284694 140.344615 
L 123.23171 139.956923 
L 125.639189 139.956923 
L 125.528764 139.181538 
L 126.006061 139.181538 
L 125.895185 138.406154 
L 126.37047 138.406154 
L 126.14833 136.855385 
L 127.092 136.855385 
L 126.868142 135.304615 
L 127.336575 135.304615 
L 127.280464 134.916923 
L 127.747409 134.916923 
L 127.634653 134.141538 
L 128.09967 134.141538 
L 128.04303 133.753846 
L 128.506579 133.753846 
L 128.392779 132.978462 
L 128.854426 132.978462 
L 128.74024 132.203077 
L 129.2 132.203077 
L 129.085435 131.427692 
L 129.543322 131.427692 
L 129.313946 129.876923 
L 129.769114 129.876923 
L 129.65431 129.101538 
L 130.107643 129.101538 
L 129.649947 126 
L 130.098934 126 
L 129.81474 124.061538 
L 130.260699 124.061538 
L 130.20381 123.673846 
L 130.648414 123.673846 
L 130.591235 123.286154 
L 131.476818 123.286154 
L 131.246065 121.735385 
L 131.685849 121.735385 
L 131.512853 120.572308 
L 133.6921 120.572308 
L 133.103704 116.695385 
L 133.532991 116.695385 
L 133.416 115.92 
L 134.27042 115.92 
L 134.1524 115.144615 
L 134.577551 115.144615 
L 134.165653 112.430769 
L 135.00819 112.430769 
L 134.949091 112.043077 
L 135.368718 112.043077 
L 135.250151 111.267692 
L 136.085427 111.267692 
L 135.965898 110.492308 
L 136.796396 110.492308 
L 136.7361 110.104615 
L 137.562575 110.104615 
L 137.440936 109.329231 
L 137.852239 109.329231 
L 137.791252 108.941538 
L 138.20139 108.941538 
L 138.140179 108.553846 
L 139.364688 108.553846 
L 139.302569 108.166154 
L 140.114201 108.166154 
L 139.864244 106.615385 
L 141.071694 106.615385 
L 140.945455 105.84 
L 142.938911 105.84 
L 142.809903 105.064615 
L 143.994773 105.064615 
L 143.799324 103.901538 
L 144.583526 103.901538 
L 144.517998 103.513846 
L 146.463793 103.513846 
L 146.130315 101.575385 
L 146.515714 101.575385 
L 146.449096 101.187692 
L 147.217094 101.187692 
L 147.15 100.8 
L 147.914489 100.8 
L 147.846925 100.412308 
L 148.607932 100.412308 
L 148.539906 100.024615 
L 148.919039 100.024615 
L 148.782785 99.249231 
L 149.16062 99.249231 
L 149.092394 98.861538 
L 149.469231 98.861538 
L 149.400843 98.473846 
L 150.151824 98.473846 
L 150.082991 98.086154 
L 150.457143 98.086154 
L 150.388153 97.698462 
L 150.761323 97.698462 
L 150.692179 97.310769 
L 151.064372 97.310769 
L 150.995074 96.923077 
L 152.106673 96.923077 
L 152.036667 96.535385 
L 152.40555 96.535385 
L 152.335397 96.147692 
L 153.437143 96.147692 
L 153.366298 95.76 
L 156.632877 95.76 
L 156.559763 95.372308 
L 157.277869 95.372308 
L 157.204368 94.984615 
L 157.562182 94.984615 
L 157.488556 94.596923 
L 159.620325 94.596923 
L 159.545307 94.209231 
L 161.302965 94.209231 
L 161.22684 93.821538 
L 161.925 93.821538 
L 161.848523 93.433846 
L 165.299734 93.433846 
L 165.221011 93.046154 
L 166.243767 93.046154 
L 166.164488 92.658462 
L 168.192443 92.658462 
L 168.11194 92.270769 
L 169.451181 92.270769 
L 169.36993 91.883077 
L 173.002597 91.883077 
L 172.919118 91.495385 
L 173.897239 91.495385 
L 173.813276 91.107692 
L 175.108763 91.107692 
L 175.02412 90.72 
L 176.63 90.72 
L 176.544492 90.332308 
L 176.863823 90.332308 
L 176.607574 89.169231 
L 176.925765 89.169231 
L 176.840442 88.781538 
L 180.614634 88.781538 
L 180.527143 88.393846 
L 180.838035 88.393846 
L 180.750503 88.006154 
L 181.060687 88.006154 
L 180.973116 87.618462 
L 181.282594 87.618462 
L 181.194983 87.230769 
L 182.733722 87.230769 
L 182.645341 86.843077 
L 186.584444 86.843077 
L 186.403533 86.067692 
L 188.191251 86.067692 
L 188.1 85.68 
L 190.747445 85.68 
L 190.654862 85.292308 
L 193.54992 85.292308 
L 193.455904 84.904615 
L 195.73743 84.904615 
L 195.642344 84.516923 
L 195.925339 84.516923 
L 195.830255 84.129231 
L 196.112649 84.129231 
L 196.017568 83.741538 
L 196.580714 83.741538 
L 196.485488 83.353846 
L 197.326424 83.353846 
L 197.230909 82.966154 
L 200.004 82.966154 
L 199.90721 82.578462 
L 208.753247 82.578462 
L 208.65229 82.190769 
L 210.470843 82.190769 
L 210.267703 81.415385 
L 212.575527 81.415385 
L 212.473138 81.027692 
L 213.993708 81.027692 
L 213.890793 80.64 
L 217.137509 80.64 
L 217.033333 80.252308 
L 219.974009 80.252308 
L 219.868745 79.864615 
L 226.530194 79.864615 
L 226.422414 79.476923 
L 230.108523 79.476923 
L 229.999503 79.089231 
L 240.141649 79.089231 
L 240.029258 78.701538 
L 242.149113 78.701538 
L 242.036196 78.313846 
L 242.246526 78.313846 
L 242.133696 77.926154 
L 261.252874 77.926154 
L 261.134971 77.538462 
L 272.330613 77.538462 
L 272.210546 77.150769 
L 304.523902 77.150769 
L 304.400379 76.763077 
L 305.595849 76.763077 
L 305.595849 76.763077 
" style="fill:none;stroke:#d62728;stroke-linecap:square;stroke-width:2;"/>
   </g>
   <g id="line2d_49">
    <path clip-path="url(#pf4478e3f48)" d="M 76.5 448.172308 
L 76.5 325.273846 
L 77.986834 325.273846 
L 77.803022 307.827692 
L 79.098904 307.827692 
L 78.612695 275.261538 
L 78.178938 230.289231 
L 78.05 212.067692 
L 78.821207 212.067692 
L 78.813659 211.292308 
L 79.57987 211.292308 
L 79.555072 209.353846 
L 80.312701 209.353846 
L 80.288339 207.803077 
L 81.038756 207.803077 
L 80.995735 205.476923 
L 81.736751 205.476923 
L 81.447988 191.132308 
L 82.146429 191.132308 
L 82.09646 188.806154 
L 82.786745 188.806154 
L 82.749927 187.255385 
L 83.434211 187.255385 
L 83.344156 183.766154 
L 84.017723 183.766154 
L 83.996121 182.990769 
L 84.665854 182.990769 
L 84.654155 182.603077 
L 85.32103 182.603077 
L 85.308429 182.215385 
L 85.972468 182.215385 
L 85.8 177.175385 
L 86.45035 177.175385 
L 86.340249 174.073846 
L 86.981768 174.073846 
L 86.96731 173.686154 
L 87.606198 173.686154 
L 87.590922 173.298462 
L 88.227198 173.298462 
L 87.928916 165.932308 
L 88.547727 165.932308 
L 88.499601 164.769231 
L 89.114362 164.769231 
L 88.9 159.729231 
L 89.503003 159.729231 
L 89.452276 158.566154 
L 90.051429 158.566154 
L 90.033852 158.178462 
L 92.412 158.178462 
L 92.31 156.24 
L 92.897055 156.24 
L 92.855172 155.464615 
L 93.439286 155.464615 
L 93.374714 154.301538 
L 93.955203 154.301538 
L 93.779774 151.2 
L 94.353199 151.2 
L 94.308511 150.424615 
L 94.879125 150.424615 
L 94.652222 146.547692 
L 95.214673 146.547692 
L 95.191626 146.16 
L 95.75203 146.16 
L 95.657772 144.609231 
L 96.214181 144.609231 
L 96.19011 144.221538 
L 96.744512 144.221538 
L 96.476534 139.956923 
L 97.022596 139.956923 
L 96.924402 138.406154 
L 97.466667 138.406154 
L 97.391786 137.243077 
L 97.930916 137.243077 
L 97.880071 136.467692 
L 98.416706 136.467692 
L 98.390769 136.08 
L 98.925532 136.08 
L 98.82 134.529231 
L 99.351116 134.529231 
L 99.164685 131.815385 
L 99.690454 131.815385 
L 99.529595 129.489231 
L 100.050693 129.489231 
L 100.023529 129.101538 
L 100.542857 129.101538 
L 100.51519 128.713846 
L 101.032759 128.713846 
L 100.836944 126 
L 101.349431 126 
L 101.32116 125.612308 
L 102.341544 125.612308 
L 102.224746 124.061538 
L 103.236189 124.061538 
L 103.206081 123.673846 
L 104.21191 123.673846 
L 104.149776 122.898462 
L 104.649944 122.898462 
L 104.338206 119.021538 
L 104.83208 119.021538 
L 104.800773 118.633846 
L 105.293046 118.633846 
L 105.19802 117.470769 
L 105.687692 117.470769 
L 105.655653 117.083077 
L 106.14375 117.083077 
L 105.982116 115.144615 
L 106.466667 115.144615 
L 106.434059 114.756923 
L 106.917065 114.756923 
L 106.78539 113.206154 
L 107.265405 113.206154 
L 107.1 111.267692 
L 107.576584 111.267692 
L 107.54324 110.88 
L 108.965455 110.88 
L 108.896158 110.104615 
L 109.367271 110.104615 
L 109.29734 109.329231 
L 109.766525 109.329231 
L 109.73121 108.941538 
L 110.665678 108.941538 
L 110.629524 108.553846 
L 111.559134 108.553846 
L 111.522152 108.166154 
L 111.985037 108.166154 
L 111.947684 107.778462 
L 112.409148 107.778462 
L 112.0725 104.289231 
L 112.529032 104.289231 
L 112.342547 102.350769 
L 113.24845 102.350769 
L 113.210526 101.963077 
L 113.661649 101.963077 
L 113.433197 99.636923 
L 113.88086 99.636923 
L 113.72844 98.086154 
L 114.617701 98.086154 
L 114.501724 96.923077 
L 115.825177 96.923077 
L 115.745812 96.147692 
L 116.184375 96.147692 
L 116.064724 94.984615 
L 117.805405 94.984615 
L 117.640678 93.433846 
L 119.789286 93.433846 
L 119.703564 92.658462 
L 120.12997 92.658462 
L 120.086858 92.270769 
L 120.512043 92.270769 
L 120.338938 90.72 
L 121.605 90.72 
L 121.560823 90.332308 
L 121.980822 90.332308 
L 121.936364 89.944615 
L 122.355176 89.944615 
L 122.176751 88.393846 
L 122.593294 88.393846 
L 122.50388 87.618462 
L 123.746518 87.618462 
L 123.70087 87.230769 
L 124.93526 87.230769 
L 124.888643 86.843077 
L 125.298173 86.843077 
L 125.204511 86.067692 
L 125.61256 86.067692 
L 125.565517 85.68 
L 125.97244 85.68 
L 125.877937 84.904615 
L 126.688084 84.904615 
L 126.640286 84.516923 
L 129.847543 84.516923 
L 129.797167 84.129231 
L 130.19434 84.129231 
L 130.09322 83.353846 
L 130.488993 83.353846 
L 130.337054 82.190769 
L 130.731115 82.190769 
L 130.680337 81.803077 
L 131.07334 81.803077 
L 130.920616 80.64 
L 132.481506 80.64 
L 132.429526 80.252308 
L 133.205005 80.252308 
L 132.94345 78.313846 
L 134.096688 78.313846 
L 134.04375 77.926154 
L 134.426446 77.926154 
L 134.320257 77.150769 
L 136.97541 77.150769 
L 136.920382 76.763077 
L 137.296636 76.763077 
L 137.241417 76.375385 
L 137.991296 76.375385 
L 137.824503 75.212308 
L 138.941659 75.212308 
L 138.829253 74.436923 
L 141.042167 74.436923 
L 140.984436 74.049231 
L 146.410062 74.049231 
L 146.348413 73.661538 
L 148.123881 73.661538 
L 148.061053 73.273846 
L 150.169634 73.273846 
L 150.105405 72.886154 
L 153.568626 72.886154 
L 153.502073 72.498462 
L 154.869707 72.498462 
L 154.802322 72.110769 
L 157.843259 72.110769 
L 157.773913 71.723077 
L 158.442894 71.723077 
L 158.373214 71.335385 
L 160.365228 71.335385 
L 160.294336 70.947692 
L 162.264929 70.947692 
L 162.192857 70.56 
L 165.109842 70.56 
L 165.036 70.172308 
L 165.357202 70.172308 
L 165.283278 69.784615 
L 169.093987 69.784615 
L 169.017778 69.396923 
L 171.204746 69.396923 
L 171.12731 69.009231 
L 177.536576 69.009231 
L 177.455422 68.621538 
L 184.804724 68.621538 
L 184.719512 68.233846 
L 187.577283 68.233846 
L 187.49064 67.846154 
L 190.302632 67.846154 
L 190.214617 67.458462 
L 214.894452 67.458462 
L 214.794816 67.070769 
L 216.95794 67.070769 
L 216.857541 66.683077 
L 228.825155 66.683077 
L 228.720248 66.295385 
L 231.578294 66.295385 
L 231.47251 65.907692 
L 252.625414 65.907692 
L 252.513304 65.52 
L 257.185714 65.52 
L 257.072574 65.132308 
L 266.851634 65.132308 
L 266.736479 64.744615 
L 297.669542 64.744615 
L 297.669542 64.744615 
" style="fill:none;stroke:#9467bd;stroke-linecap:square;stroke-width:2;"/>
   </g>
   <g id="line2d_50">
    <path clip-path="url(#pf4478e3f48)" d="M 76.5 448.172308 
L 76.5 327.987692 
L 78.020192 327.987692 
L 77.659658 290.381538 
L 77.626603 285.729231 
L 78.747867 285.729231 
L 78.670709 279.913846 
L 79.74863 279.913846 
L 79.262913 250.061538 
L 80.176744 250.061538 
L 80.019852 241.144615 
L 80.891667 241.144615 
L 80.851376 239.206154 
L 81.712088 239.206154 
L 81.693066 238.430769 
L 82.547541 238.430769 
L 82.514674 237.267692 
L 83.361483 237.267692 
L 83.215752 232.615385 
L 84.041873 232.615385 
L 83.747368 223.698462 
L 84.538983 223.698462 
L 84.288177 216.332308 
L 85.052951 216.332308 
L 84.983415 214.393846 
L 85.73961 214.393846 
L 85.709709 213.618462 
L 86.461066 213.618462 
L 86.119189 205.089231 
L 86.842991 205.089231 
L 86.715692 201.987692 
L 88.139264 201.987692 
L 87.980787 198.498462 
L 88.679909 198.498462 
L 88.588606 196.56 
L 89.280539 196.56 
L 89.242388 195.784615 
L 89.930253 195.784615 
L 89.890342 195.009231 
L 91.935799 195.009231 
L 91.755263 191.907692 
L 92.425401 191.907692 
L 92.379039 191.132308 
L 93.709724 191.132308 
L 93.684783 190.744615 
L 95.005925 190.744615 
L 94.664681 185.704615 
L 95.955021 185.704615 
L 95.900141 184.929231 
L 96.540845 184.929231 
L 96.428571 183.378462 
L 97.064056 183.378462 
L 96.949652 181.827692 
L 97.58 181.827692 
L 97.521607 181.052308 
L 98.148548 181.052308 
L 98.088828 180.276923 
L 98.712397 180.276923 
L 98.620988 179.113846 
L 99.240411 179.113846 
L 99.14734 177.950769 
L 99.76267 177.950769 
L 99.699457 177.175385 
L 100.311533 177.175385 
L 100.151078 175.236923 
L 100.757604 175.236923 
L 100.308983 169.809231 
L 102.087237 169.809231 
L 101.953272 168.258462 
L 102.54 168.258462 
L 102.039231 162.443077 
L 102.613828 162.443077 
L 102.251136 158.178462 
L 103.380982 158.178462 
L 103.34717 157.790769 
L 103.909296 157.790769 
L 103.336162 151.2 
L 103.885872 151.2 
L 103.81875 150.424615 
L 104.365851 150.424615 
L 104.230085 148.873846 
L 104.773358 148.873846 
L 104.739004 148.486154 
L 105.820364 148.486154 
L 105.784867 148.098462 
L 106.322975 148.098462 
L 106.215181 146.935385 
L 106.750181 146.935385 
L 106.713822 146.547692 
L 107.246939 146.547692 
L 106.91829 143.058462 
L 111.096 143.058462 
L 110.933958 141.507692 
L 111.961682 141.507692 
L 111.879021 140.732308 
L 112.899767 140.732308 
L 112.605882 138.018462 
L 113.110714 138.018462 
L 113.068585 137.630769 
L 113.571724 137.630769 
L 113.529162 137.243077 
L 114.530928 137.243077 
L 114.314351 135.304615 
L 116.293878 135.304615 
L 116.203846 134.529231 
L 116.694915 134.529231 
L 116.604284 133.753846 
L 117.093243 133.753846 
L 116.820805 131.427692 
L 119.234483 131.427692 
L 118.717912 127.163077 
L 119.665461 127.163077 
L 119.571007 126.387692 
L 120.042295 126.387692 
L 119.947328 125.612308 
L 120.416667 125.612308 
L 120.321196 124.836923 
L 120.788599 124.836923 
L 120.644805 123.673846 
L 121.109838 123.673846 
L 120.965625 122.510769 
L 121.42831 122.510769 
L 121.38 122.123077 
L 123.219058 122.123077 
L 123.119231 121.347692 
L 123.575667 121.347692 
L 123.375558 119.796923 
L 123.829299 119.796923 
L 123.529747 117.470769 
L 123.979979 117.470769 
L 123.780693 115.92 
L 125.120711 115.92 
L 124.968613 114.756923 
L 125.412188 114.756923 
L 125.36129 114.369231 
L 127.563354 114.369231 
L 127.248148 112.043077 
L 128.117864 112.043077 
L 128.01209 111.267692 
L 128.444831 111.267692 
L 128.338713 110.492308 
L 128.769796 110.492308 
L 128.716514 110.104615 
L 129.146334 110.104615 
L 129.039329 109.329231 
L 129.467513 109.329231 
L 129.413793 108.941538 
L 130.266802 108.941538 
L 129.888543 106.227692 
L 130.732899 106.227692 
L 130.408475 103.901538 
L 130.827191 103.901538 
L 130.719185 103.126154 
L 133.209783 103.126154 
L 133.097929 102.350769 
L 134.330088 102.350769 
L 134.216585 101.575385 
L 134.625 101.575385 
L 134.568071 101.187692 
L 136.19239 101.187692 
L 136.076144 100.412308 
L 140.471098 100.412308 
L 140.409528 100.024615 
L 141.197983 100.024615 
L 141.073921 99.249231 
L 142.249044 99.249231 
L 142.186246 98.861538 
L 142.9653 98.861538 
L 142.77576 97.698462 
L 145.855189 97.698462 
L 145.724576 96.923077 
L 146.105644 96.923077 
L 146.040226 96.535385 
L 147.178257 96.535385 
L 147.112079 96.147692 
L 147.48971 96.147692 
L 147.423364 95.76 
L 150.416883 95.76 
L 150.348378 95.372308 
L 151.458688 95.372308 
L 151.389474 94.984615 
L 152.492818 94.984615 
L 152.353125 94.209231 
L 154.900274 94.209231 
L 154.828741 93.821538 
L 156.268636 93.821538 
L 156.196185 93.433846 
L 156.911695 93.433846 
L 156.838859 93.046154 
L 158.615059 93.046154 
L 158.541081 92.658462 
L 158.894149 92.658462 
L 158.820054 92.270769 
L 160.225 92.270769 
L 160.150045 91.883077 
L 166.006349 91.883077 
L 165.927489 91.495385 
L 168.955332 91.495385 
L 168.874585 91.107692 
L 169.872648 91.107692 
L 169.710261 90.332308 
L 175.583219 90.332308 
L 175.49846 89.944615 
L 175.819231 89.944615 
L 175.734415 89.556923 
L 177.011234 89.556923 
L 176.925765 89.169231 
L 177.877099 89.169231 
L 177.791186 88.781538 
L 184.008 88.781538 
L 183.918485 88.393846 
L 186.647355 88.393846 
L 186.5564 88.006154 
L 198.202878 88.006154 
L 198.105671 87.618462 
L 207.963587 87.618462 
L 207.861598 87.230769 
L 212.325574 87.230769 
L 212.221653 86.843077 
L 222.031872 86.843077 
L 221.923831 86.455385 
L 234.147963 86.455385 
L 234.035357 86.067692 
L 234.937821 86.067692 
L 234.825053 85.68 
L 236.836209 85.68 
L 236.722898 85.292308 
L 237.828803 85.292308 
L 237.715271 84.904615 
L 242.274757 84.904615 
L 242.159875 84.516923 
L 243.225622 84.516923 
L 243.110559 84.129231 
L 247.918207 84.129231 
L 247.801833 83.741538 
L 250.047776 83.741538 
L 249.930909 83.353846 
L 256.858816 83.353846 
L 256.740237 82.966154 
L 259.801366 82.966154 
L 259.682185 82.578462 
L 260.813472 82.578462 
L 260.694175 82.190769 
L 309.175472 82.190769 
L 309.175472 82.190769 
" style="fill:none;stroke:#8c564b;stroke-linecap:square;stroke-width:2;"/>
   </g>
   <g id="patch_3">
    <path d="M 76.5 448.56 
L 76.5 60.48 
" style="fill:none;stroke:#000000;stroke-linecap:square;stroke-linejoin:miter;stroke-width:0.8;"/>
   </g>
   <g id="patch_4">
    <path d="M 550.8 448.56 
L 550.8 60.48 
" style="fill:none;stroke:#000000;stroke-linecap:square;stroke-linejoin:miter;stroke-width:0.8;"/>
   </g>
   <g id="patch_5">
    <path d="M 76.5 448.56 
L 550.8 448.56 
" style="fill:none;stroke:#000000;stroke-linecap:square;stroke-linejoin:miter;stroke-width:0.8;"/>
   </g>
   <g id="patch_6">
    <path d="M 76.5 60.48 
L 550.8 60.48 
" style="fill:none;stroke:#000000;stroke-linecap:square;stroke-linejoin:miter;stroke-width:0.8;"/>
   </g>
   <g id="text_25">
    <!-- leuven: img1-img3 -->
    <defs>
     <path d="M 9.421875 75.984375 
L 18.40625 75.984375 
L 18.40625 0 
L 9.421875 0 
z
" id="DejaVuSans-108"/>
     <path d="M 8.5 21.578125 
L 8.5 54.6875 
L 17.484375 54.6875 
L 17.484375 21.921875 
Q 17.484375 14.15625 20.5 10.265625 
Q 23.53125 6.390625 29.59375 6.390625 
Q 36.859375 6.390625 41.078125 11.03125 
Q 45.3125 15.671875 45.3125 23.6875 
L 45.3125 54.6875 
L 54.296875 54.6875 
L 54.296875 0 
L 45.3125 0 
L 45.3125 8.40625 
Q 42.046875 3.421875 37.71875 1 
Q 33.40625 -1.421875 27.6875 -1.421875 
Q 18.265625 -1.421875 13.375 4.4375 
Q 8.5 10.296875 8.5 21.578125 
z
M 31.109375 56 
z
" id="DejaVuSans-117"/>
     <path d="M 2.984375 54.6875 
L 12.5 54.6875 
L 29.59375 8.796875 
L 46.6875 54.6875 
L 56.203125 54.6875 
L 35.6875 0 
L 23.484375 0 
z
" id="DejaVuSans-118"/>
     <path d="M 11.71875 12.40625 
L 22.015625 12.40625 
L 22.015625 0 
L 11.71875 0 
z
M 11.71875 51.703125 
L 22.015625 51.703125 
L 22.015625 39.3125 
L 11.71875 39.3125 
z
" id="DejaVuSans-58"/>
     <path id="DejaVuSans-32"/>
     <path d="M 52 44.1875 
Q 55.375 50.25 60.0625 53.125 
Q 64.75 56 71.09375 56 
Q 79.640625 56 84.28125 50.015625 
Q 88.921875 44.046875 88.921875 33.015625 
L 88.921875 0 
L 79.890625 0 
L 79.890625 32.71875 
Q 79.890625 40.578125 77.09375 44.375 
Q 74.3125 48.1875 68.609375 48.1875 
Q 61.625 48.1875 57.5625 43.546875 
Q 53.515625 38.921875 53.515625 30.90625 
L 53.515625 0 
L 44.484375 0 
L 44.484375 32.71875 
Q 44.484375 40.625 41.703125 44.40625 
Q 38.921875 48.1875 33.109375 48.1875 
Q 26.21875 48.1875 22.15625 43.53125 
Q 18.109375 38.875 18.109375 30.90625 
L 18.109375 0 
L 9.078125 0 
L 9.078125 54.6875 
L 18.109375 54.6875 
L 18.109375 46.1875 
Q 21.1875 51.21875 25.484375 53.609375 
Q 29.78125 56 35.6875 56 
Q 41.65625 56 45.828125 52.96875 
Q 50 49.953125 52 44.1875 
z
" id="DejaVuSans-109"/>
     <path d="M 45.40625 27.984375 
Q 45.40625 37.75 41.375 43.109375 
Q 37.359375 48.484375 30.078125 48.484375 
Q 22.859375 48.484375 18.828125 43.109375 
Q 14.796875 37.75 14.796875 27.984375 
Q 14.796875 18.265625 18.828125 12.890625 
Q 22.859375 7.515625 30.078125 7.515625 
Q 37.359375 7.515625 41.375 12.890625 
Q 45.40625 18.265625 45.40625 27.984375 
z
M 54.390625 6.78125 
Q 54.390625 -7.171875 48.1875 -13.984375 
Q 42 -20.796875 29.203125 -20.796875 
Q 24.46875 -20.796875 20.265625 -20.09375 
Q 16.0625 -19.390625 12.109375 -17.921875 
L 12.109375 -9.1875 
Q 16.0625 -11.328125 19.921875 -12.34375 
Q 23.78125 -13.375 27.78125 -13.375 
Q 36.625 -13.375 41.015625 -8.765625 
Q 45.40625 -4.15625 45.40625 5.171875 
L 45.40625 9.625 
Q 42.625 4.78125 38.28125 2.390625 
Q 33.9375 0 27.875 0 
Q 17.828125 0 11.671875 7.65625 
Q 5.515625 15.328125 5.515625 27.984375 
Q 5.515625 40.671875 11.671875 48.328125 
Q 17.828125 56 27.875 56 
Q 33.9375 56 38.28125 53.609375 
Q 42.625 51.21875 45.40625 46.390625 
L 45.40625 54.6875 
L 54.390625 54.6875 
z
" id="DejaVuSans-103"/>
    </defs>
    <g transform="translate(257.074688 41.042625)scale(0.12 -0.12)">
     <use xlink:href="#DejaVuSans-108"/>
     <use x="27.783203" xlink:href="#DejaVuSans-101"/>
     <use x="89.306641" xlink:href="#DejaVuSans-117"/>
     <use x="152.685547" xlink:href="#DejaVuSans-118"/>
     <use x="211.865234" xlink:href="#DejaVuSans-101"/>
     <use x="273.388672" xlink:href="#DejaVuSans-110"/>
     <use x="336.767578" xlink:href="#DejaVuSans-58"/>
     <use x="370.458984" xlink:href="#DejaVuSans-32"/>
     <use x="402.246094" xlink:href="#DejaVuSans-105"/>
     <use x="430.029297" xlink:href="#DejaVuSans-109"/>
     <use x="527.441406" xlink:href="#DejaVuSans-103"/>
     <use x="590.917969" xlink:href="#DejaVuSans-49"/>
     <use x="654.541016" xlink:href="#DejaVuSans-45"/>
     <use x="690.625" xlink:href="#DejaVuSans-105"/>
     <use x="718.408203" xlink:href="#DejaVuSans-109"/>
     <use x="815.820312" xlink:href="#DejaVuSans-103"/>
     <use x="879.296875" xlink:href="#DejaVuSans-51"/>
    </g>
    <!-- NearestNeighbours -->
    <defs>
     <path d="M 9.8125 72.90625 
L 23.09375 72.90625 
L 55.421875 11.921875 
L 55.421875 72.90625 
L 64.984375 72.90625 
L 64.984375 0 
L 51.703125 0 
L 19.390625 60.984375 
L 19.390625 0 
L 9.8125 0 
z
" id="DejaVuSans-78"/>
     <path d="M 34.28125 27.484375 
Q 23.390625 27.484375 19.1875 25 
Q 14.984375 22.515625 14.984375 16.5 
Q 14.984375 11.71875 18.140625 8.90625 
Q 21.296875 6.109375 26.703125 6.109375 
Q 34.1875 6.109375 38.703125 11.40625 
Q 43.21875 16.703125 43.21875 25.484375 
L 43.21875 27.484375 
z
M 52.203125 31.203125 
L 52.203125 0 
L 43.21875 0 
L 43.21875 8.296875 
Q 40.140625 3.328125 35.546875 0.953125 
Q 30.953125 -1.421875 24.3125 -1.421875 
Q 15.921875 -1.421875 10.953125 3.296875 
Q 6 8.015625 6 15.921875 
Q 6 25.140625 12.171875 29.828125 
Q 18.359375 34.515625 30.609375 34.515625 
L 43.21875 34.515625 
L 43.21875 35.40625 
Q 43.21875 41.609375 39.140625 45 
Q 35.0625 48.390625 27.6875 48.390625 
Q 23 48.390625 18.546875 47.265625 
Q 14.109375 46.140625 10.015625 43.890625 
L 10.015625 52.203125 
Q 14.9375 54.109375 19.578125 55.046875 
Q 24.21875 56 28.609375 56 
Q 40.484375 56 46.34375 49.84375 
Q 52.203125 43.703125 52.203125 31.203125 
z
" id="DejaVuSans-97"/>
     <path d="M 54.890625 33.015625 
L 54.890625 0 
L 45.90625 0 
L 45.90625 32.71875 
Q 45.90625 40.484375 42.875 44.328125 
Q 39.84375 48.1875 33.796875 48.1875 
Q 26.515625 48.1875 22.3125 43.546875 
Q 18.109375 38.921875 18.109375 30.90625 
L 18.109375 0 
L 9.078125 0 
L 9.078125 75.984375 
L 18.109375 75.984375 
L 18.109375 46.1875 
Q 21.34375 51.125 25.703125 53.5625 
Q 30.078125 56 35.796875 56 
Q 45.21875 56 50.046875 50.171875 
Q 54.890625 44.34375 54.890625 33.015625 
z
" id="DejaVuSans-104"/>
     <path d="M 48.6875 27.296875 
Q 48.6875 37.203125 44.609375 42.84375 
Q 40.53125 48.484375 33.40625 48.484375 
Q 26.265625 48.484375 22.1875 42.84375 
Q 18.109375 37.203125 18.109375 27.296875 
Q 18.109375 17.390625 22.1875 11.75 
Q 26.265625 6.109375 33.40625 6.109375 
Q 40.53125 6.109375 44.609375 11.75 
Q 48.6875 17.390625 48.6875 27.296875 
z
M 18.109375 46.390625 
Q 20.953125 51.265625 25.265625 53.625 
Q 29.59375 56 35.59375 56 
Q 45.5625 56 51.78125 48.09375 
Q 58.015625 40.1875 58.015625 27.296875 
Q 58.015625 14.40625 51.78125 6.484375 
Q 45.5625 -1.421875 35.59375 -1.421875 
Q 29.59375 -1.421875 25.265625 0.953125 
Q 20.953125 3.328125 18.109375 8.203125 
L 18.109375 0 
L 9.078125 0 
L 9.078125 75.984375 
L 18.109375 75.984375 
z
" id="DejaVuSans-98"/>
    </defs>
    <g transform="translate(255.824063 54.48)scale(0.12 -0.12)">
     <use xlink:href="#DejaVuSans-78"/>
     <use x="74.804688" xlink:href="#DejaVuSans-101"/>
     <use x="136.328125" xlink:href="#DejaVuSans-97"/>
     <use x="197.607422" xlink:href="#DejaVuSans-114"/>
     <use x="238.689453" xlink:href="#DejaVuSans-101"/>
     <use x="300.212891" xlink:href="#DejaVuSans-115"/>
     <use x="352.3125" xlink:href="#DejaVuSans-116"/>
     <use x="391.521484" xlink:href="#DejaVuSans-78"/>
     <use x="466.326172" xlink:href="#DejaVuSans-101"/>
     <use x="527.849609" xlink:href="#DejaVuSans-105"/>
     <use x="555.632812" xlink:href="#DejaVuSans-103"/>
     <use x="619.109375" xlink:href="#DejaVuSans-104"/>
     <use x="682.488281" xlink:href="#DejaVuSans-98"/>
     <use x="745.964844" xlink:href="#DejaVuSans-111"/>
     <use x="807.146484" xlink:href="#DejaVuSans-117"/>
     <use x="870.525391" xlink:href="#DejaVuSans-114"/>
     <use x="911.638672" xlink:href="#DejaVuSans-115"/>
    </g>
   </g>
   <g id="legend_1">
    <g id="patch_7">
     <path d="M 362.264063 156.54875 
L 543.8 156.54875 
Q 545.8 156.54875 545.8 154.54875 
L 545.8 67.48 
Q 545.8 65.48 543.8 65.48 
L 362.264063 65.48 
Q 360.264063 65.48 360.264063 67.48 
L 360.264063 154.54875 
Q 360.264063 156.54875 362.264063 156.54875 
z
" style="fill:#ffffff;opacity:0.8;stroke:#cccccc;stroke-linejoin:miter;"/>
    </g>
    <g id="line2d_51">
     <path d="M 364.264063 73.578438 
L 384.264063 73.578438 
" style="fill:none;stroke:#1f77b4;stroke-linecap:square;stroke-width:2;"/>
    </g>
    <g id="line2d_52"/>
    <g id="text_26">
     <!-- root-cvsift AP: 92.9, %In: 51.7 -->
     <defs>
      <path d="M 37.109375 75.984375 
L 37.109375 68.5 
L 28.515625 68.5 
Q 23.6875 68.5 21.796875 66.546875 
Q 19.921875 64.59375 19.921875 59.515625 
L 19.921875 54.6875 
L 34.71875 54.6875 
L 34.71875 47.703125 
L 19.921875 47.703125 
L 19.921875 0 
L 10.890625 0 
L 10.890625 47.703125 
L 2.296875 47.703125 
L 2.296875 54.6875 
L 10.890625 54.6875 
L 10.890625 58.5 
Q 10.890625 67.625 15.140625 71.796875 
Q 19.390625 75.984375 28.609375 75.984375 
z
" id="DejaVuSans-102"/>
      <path d="M 34.1875 63.1875 
L 20.796875 26.90625 
L 47.609375 26.90625 
z
M 28.609375 72.90625 
L 39.796875 72.90625 
L 67.578125 0 
L 57.328125 0 
L 50.6875 18.703125 
L 17.828125 18.703125 
L 11.1875 0 
L 0.78125 0 
z
" id="DejaVuSans-65"/>
      <path d="M 19.671875 64.796875 
L 19.671875 37.40625 
L 32.078125 37.40625 
Q 38.96875 37.40625 42.71875 40.96875 
Q 46.484375 44.53125 46.484375 51.125 
Q 46.484375 57.671875 42.71875 61.234375 
Q 38.96875 64.796875 32.078125 64.796875 
z
M 9.8125 72.90625 
L 32.078125 72.90625 
Q 44.34375 72.90625 50.609375 67.359375 
Q 56.890625 61.8125 56.890625 51.125 
Q 56.890625 40.328125 50.609375 34.8125 
Q 44.34375 29.296875 32.078125 29.296875 
L 19.671875 29.296875 
L 19.671875 0 
L 9.8125 0 
z
" id="DejaVuSans-80"/>
      <path d="M 11.71875 12.40625 
L 22.015625 12.40625 
L 22.015625 4 
L 14.015625 -11.625 
L 7.71875 -11.625 
L 11.71875 4 
z
" id="DejaVuSans-44"/>
      <path d="M 72.703125 32.078125 
Q 68.453125 32.078125 66.03125 28.46875 
Q 63.625 24.859375 63.625 18.40625 
Q 63.625 12.0625 66.03125 8.421875 
Q 68.453125 4.78125 72.703125 4.78125 
Q 76.859375 4.78125 79.265625 8.421875 
Q 81.6875 12.0625 81.6875 18.40625 
Q 81.6875 24.8125 79.265625 28.4375 
Q 76.859375 32.078125 72.703125 32.078125 
z
M 72.703125 38.28125 
Q 80.421875 38.28125 84.953125 32.90625 
Q 89.5 27.546875 89.5 18.40625 
Q 89.5 9.28125 84.9375 3.921875 
Q 80.375 -1.421875 72.703125 -1.421875 
Q 64.890625 -1.421875 60.34375 3.921875 
Q 55.8125 9.28125 55.8125 18.40625 
Q 55.8125 27.59375 60.375 32.9375 
Q 64.9375 38.28125 72.703125 38.28125 
z
M 22.3125 68.015625 
Q 18.109375 68.015625 15.6875 64.375 
Q 13.28125 60.75 13.28125 54.390625 
Q 13.28125 47.953125 15.671875 44.328125 
Q 18.0625 40.71875 22.3125 40.71875 
Q 26.5625 40.71875 28.96875 44.328125 
Q 31.390625 47.953125 31.390625 54.390625 
Q 31.390625 60.6875 28.953125 64.34375 
Q 26.515625 68.015625 22.3125 68.015625 
z
M 66.40625 74.21875 
L 74.21875 74.21875 
L 28.609375 -1.421875 
L 20.796875 -1.421875 
z
M 22.3125 74.21875 
Q 30.03125 74.21875 34.609375 68.875 
Q 39.203125 63.53125 39.203125 54.390625 
Q 39.203125 45.171875 34.640625 39.84375 
Q 30.078125 34.515625 22.3125 34.515625 
Q 14.546875 34.515625 10.03125 39.859375 
Q 5.515625 45.21875 5.515625 54.390625 
Q 5.515625 63.484375 10.046875 68.84375 
Q 14.59375 74.21875 22.3125 74.21875 
z
" id="DejaVuSans-37"/>
      <path d="M 9.8125 72.90625 
L 19.671875 72.90625 
L 19.671875 0 
L 9.8125 0 
z
" id="DejaVuSans-73"/>
     </defs>
     <g transform="translate(392.264063 77.078438)scale(0.1 -0.1)">
      <use xlink:href="#DejaVuSans-114"/>
      <use x="41.082031" xlink:href="#DejaVuSans-111"/>
      <use x="102.263672" xlink:href="#DejaVuSans-111"/>
      <use x="163.445312" xlink:href="#DejaVuSans-116"/>
      <use x="202.654297" xlink:href="#DejaVuSans-45"/>
      <use x="238.738281" xlink:href="#DejaVuSans-99"/>
      <use x="293.71875" xlink:href="#DejaVuSans-118"/>
      <use x="352.898438" xlink:href="#DejaVuSans-115"/>
      <use x="404.998047" xlink:href="#DejaVuSans-105"/>
      <use x="432.78125" xlink:href="#DejaVuSans-102"/>
      <use x="467.970703" xlink:href="#DejaVuSans-116"/>
      <use x="507.179688" xlink:href="#DejaVuSans-32"/>
      <use x="538.966797" xlink:href="#DejaVuSans-65"/>
      <use x="607.375" xlink:href="#DejaVuSans-80"/>
      <use x="667.677734" xlink:href="#DejaVuSans-58"/>
      <use x="701.369141" xlink:href="#DejaVuSans-32"/>
      <use x="733.15625" xlink:href="#DejaVuSans-57"/>
      <use x="796.779297" xlink:href="#DejaVuSans-50"/>
      <use x="860.402344" xlink:href="#DejaVuSans-46"/>
      <use x="892.189453" xlink:href="#DejaVuSans-57"/>
      <use x="955.8125" xlink:href="#DejaVuSans-44"/>
      <use x="987.599609" xlink:href="#DejaVuSans-32"/>
      <use x="1019.386719" xlink:href="#DejaVuSans-37"/>
      <use x="1114.40625" xlink:href="#DejaVuSans-73"/>
      <use x="1143.898438" xlink:href="#DejaVuSans-110"/>
      <use x="1207.277344" xlink:href="#DejaVuSans-58"/>
      <use x="1240.96875" xlink:href="#DejaVuSans-32"/>
      <use x="1272.755859" xlink:href="#DejaVuSans-53"/>
      <use x="1336.378906" xlink:href="#DejaVuSans-49"/>
      <use x="1400.001953" xlink:href="#DejaVuSans-46"/>
      <use x="1431.789062" xlink:href="#DejaVuSans-55"/>
     </g>
    </g>
    <g id="line2d_53">
     <path d="M 364.264063 88.256563 
L 384.264063 88.256563 
" style="fill:none;stroke:#ff7f0e;stroke-linecap:square;stroke-width:2;"/>
    </g>
    <g id="line2d_54"/>
    <g id="text_27">
     <!-- orb AP: 89.2, %In: 49.9 -->
     <g transform="translate(392.264063 91.756563)scale(0.1 -0.1)">
      <use xlink:href="#DejaVuSans-111"/>
      <use x="61.181641" xlink:href="#DejaVuSans-114"/>
      <use x="102.294922" xlink:href="#DejaVuSans-98"/>
      <use x="165.771484" xlink:href="#DejaVuSans-32"/>
      <use x="197.558594" xlink:href="#DejaVuSans-65"/>
      <use x="265.966797" xlink:href="#DejaVuSans-80"/>
      <use x="326.269531" xlink:href="#DejaVuSans-58"/>
      <use x="359.960938" xlink:href="#DejaVuSans-32"/>
      <use x="391.748047" xlink:href="#DejaVuSans-56"/>
      <use x="455.371094" xlink:href="#DejaVuSans-57"/>
      <use x="518.994141" xlink:href="#DejaVuSans-46"/>
      <use x="550.78125" xlink:href="#DejaVuSans-50"/>
      <use x="614.404297" xlink:href="#DejaVuSans-44"/>
      <use x="646.191406" xlink:href="#DejaVuSans-32"/>
      <use x="677.978516" xlink:href="#DejaVuSans-37"/>
      <use x="772.998047" xlink:href="#DejaVuSans-73"/>
      <use x="802.490234" xlink:href="#DejaVuSans-110"/>
      <use x="865.869141" xlink:href="#DejaVuSans-58"/>
      <use x="899.560547" xlink:href="#DejaVuSans-32"/>
      <use x="931.347656" xlink:href="#DejaVuSans-52"/>
      <use x="994.970703" xlink:href="#DejaVuSans-57"/>
      <use x="1058.59375" xlink:href="#DejaVuSans-46"/>
      <use x="1090.380859" xlink:href="#DejaVuSans-57"/>
     </g>
    </g>
    <g id="line2d_55">
     <path d="M 364.264063 102.934687 
L 384.264063 102.934687 
" style="fill:none;stroke:#2ca02c;stroke-linecap:square;stroke-width:2;"/>
    </g>
    <g id="line2d_56"/>
    <g id="text_28">
     <!-- binboost AP: 84.1, %In: 50.3 -->
     <g transform="translate(392.264063 106.434687)scale(0.1 -0.1)">
      <use xlink:href="#DejaVuSans-98"/>
      <use x="63.476562" xlink:href="#DejaVuSans-105"/>
      <use x="91.259766" xlink:href="#DejaVuSans-110"/>
      <use x="154.638672" xlink:href="#DejaVuSans-98"/>
      <use x="218.115234" xlink:href="#DejaVuSans-111"/>
      <use x="279.296875" xlink:href="#DejaVuSans-111"/>
      <use x="340.478516" xlink:href="#DejaVuSans-115"/>
      <use x="392.578125" xlink:href="#DejaVuSans-116"/>
      <use x="431.787109" xlink:href="#DejaVuSans-32"/>
      <use x="463.574219" xlink:href="#DejaVuSans-65"/>
      <use x="531.982422" xlink:href="#DejaVuSans-80"/>
      <use x="592.285156" xlink:href="#DejaVuSans-58"/>
      <use x="625.976562" xlink:href="#DejaVuSans-32"/>
      <use x="657.763672" xlink:href="#DejaVuSans-56"/>
      <use x="721.386719" xlink:href="#DejaVuSans-52"/>
      <use x="785.009766" xlink:href="#DejaVuSans-46"/>
      <use x="816.796875" xlink:href="#DejaVuSans-49"/>
      <use x="880.419922" xlink:href="#DejaVuSans-44"/>
      <use x="912.207031" xlink:href="#DejaVuSans-32"/>
      <use x="943.994141" xlink:href="#DejaVuSans-37"/>
      <use x="1039.013672" xlink:href="#DejaVuSans-73"/>
      <use x="1068.505859" xlink:href="#DejaVuSans-110"/>
      <use x="1131.884766" xlink:href="#DejaVuSans-58"/>
      <use x="1165.576172" xlink:href="#DejaVuSans-32"/>
      <use x="1197.363281" xlink:href="#DejaVuSans-53"/>
      <use x="1260.986328" xlink:href="#DejaVuSans-48"/>
      <use x="1324.609375" xlink:href="#DejaVuSans-46"/>
      <use x="1356.396484" xlink:href="#DejaVuSans-51"/>
     </g>
    </g>
    <g id="line2d_57">
     <path d="M 364.264063 117.612813 
L 384.264063 117.612813 
" style="fill:none;stroke:#d62728;stroke-linecap:square;stroke-width:2;"/>
    </g>
    <g id="line2d_58"/>
    <g id="text_29">
     <!-- tfeat AP: 88.8, %In: 51.7 -->
     <g transform="translate(392.264063 121.112813)scale(0.1 -0.1)">
      <use xlink:href="#DejaVuSans-116"/>
      <use x="39.208984" xlink:href="#DejaVuSans-102"/>
      <use x="74.414062" xlink:href="#DejaVuSans-101"/>
      <use x="135.9375" xlink:href="#DejaVuSans-97"/>
      <use x="197.216797" xlink:href="#DejaVuSans-116"/>
      <use x="236.425781" xlink:href="#DejaVuSans-32"/>
      <use x="268.212891" xlink:href="#DejaVuSans-65"/>
      <use x="336.621094" xlink:href="#DejaVuSans-80"/>
      <use x="396.923828" xlink:href="#DejaVuSans-58"/>
      <use x="430.615234" xlink:href="#DejaVuSans-32"/>
      <use x="462.402344" xlink:href="#DejaVuSans-56"/>
      <use x="526.025391" xlink:href="#DejaVuSans-56"/>
      <use x="589.648438" xlink:href="#DejaVuSans-46"/>
      <use x="621.435547" xlink:href="#DejaVuSans-56"/>
      <use x="685.058594" xlink:href="#DejaVuSans-44"/>
      <use x="716.845703" xlink:href="#DejaVuSans-32"/>
      <use x="748.632812" xlink:href="#DejaVuSans-37"/>
      <use x="843.652344" xlink:href="#DejaVuSans-73"/>
      <use x="873.144531" xlink:href="#DejaVuSans-110"/>
      <use x="936.523438" xlink:href="#DejaVuSans-58"/>
      <use x="970.214844" xlink:href="#DejaVuSans-32"/>
      <use x="1002.001953" xlink:href="#DejaVuSans-53"/>
      <use x="1065.625" xlink:href="#DejaVuSans-49"/>
      <use x="1129.248047" xlink:href="#DejaVuSans-46"/>
      <use x="1161.035156" xlink:href="#DejaVuSans-55"/>
     </g>
    </g>
    <g id="line2d_59">
     <path d="M 364.264063 132.290938 
L 384.264063 132.290938 
" style="fill:none;stroke:#9467bd;stroke-linecap:square;stroke-width:2;"/>
    </g>
    <g id="line2d_60"/>
    <g id="text_30">
     <!-- hardnet AP: 96.4, %In: 53.4 -->
     <defs>
      <path d="M 45.40625 46.390625 
L 45.40625 75.984375 
L 54.390625 75.984375 
L 54.390625 0 
L 45.40625 0 
L 45.40625 8.203125 
Q 42.578125 3.328125 38.25 0.953125 
Q 33.9375 -1.421875 27.875 -1.421875 
Q 17.96875 -1.421875 11.734375 6.484375 
Q 5.515625 14.40625 5.515625 27.296875 
Q 5.515625 40.1875 11.734375 48.09375 
Q 17.96875 56 27.875 56 
Q 33.9375 56 38.25 53.625 
Q 42.578125 51.265625 45.40625 46.390625 
z
M 14.796875 27.296875 
Q 14.796875 17.390625 18.875 11.75 
Q 22.953125 6.109375 30.078125 6.109375 
Q 37.203125 6.109375 41.296875 11.75 
Q 45.40625 17.390625 45.40625 27.296875 
Q 45.40625 37.203125 41.296875 42.84375 
Q 37.203125 48.484375 30.078125 48.484375 
Q 22.953125 48.484375 18.875 42.84375 
Q 14.796875 37.203125 14.796875 27.296875 
z
" id="DejaVuSans-100"/>
     </defs>
     <g transform="translate(392.264063 135.790938)scale(0.1 -0.1)">
      <use xlink:href="#DejaVuSans-104"/>
      <use x="63.378906" xlink:href="#DejaVuSans-97"/>
      <use x="124.658203" xlink:href="#DejaVuSans-114"/>
      <use x="165.755859" xlink:href="#DejaVuSans-100"/>
      <use x="229.232422" xlink:href="#DejaVuSans-110"/>
      <use x="292.611328" xlink:href="#DejaVuSans-101"/>
      <use x="354.134766" xlink:href="#DejaVuSans-116"/>
      <use x="393.34375" xlink:href="#DejaVuSans-32"/>
      <use x="425.130859" xlink:href="#DejaVuSans-65"/>
      <use x="493.539062" xlink:href="#DejaVuSans-80"/>
      <use x="553.841797" xlink:href="#DejaVuSans-58"/>
      <use x="587.533203" xlink:href="#DejaVuSans-32"/>
      <use x="619.320312" xlink:href="#DejaVuSans-57"/>
      <use x="682.943359" xlink:href="#DejaVuSans-54"/>
      <use x="746.566406" xlink:href="#DejaVuSans-46"/>
      <use x="778.353516" xlink:href="#DejaVuSans-52"/>
      <use x="841.976562" xlink:href="#DejaVuSans-44"/>
      <use x="873.763672" xlink:href="#DejaVuSans-32"/>
      <use x="905.550781" xlink:href="#DejaVuSans-37"/>
      <use x="1000.570312" xlink:href="#DejaVuSans-73"/>
      <use x="1030.0625" xlink:href="#DejaVuSans-110"/>
      <use x="1093.441406" xlink:href="#DejaVuSans-58"/>
      <use x="1127.132812" xlink:href="#DejaVuSans-32"/>
      <use x="1158.919922" xlink:href="#DejaVuSans-53"/>
      <use x="1222.542969" xlink:href="#DejaVuSans-51"/>
      <use x="1286.166016" xlink:href="#DejaVuSans-46"/>
      <use x="1317.953125" xlink:href="#DejaVuSans-52"/>
     </g>
    </g>
    <g id="line2d_61">
     <path d="M 364.264063 146.969063 
L 384.264063 146.969063 
" style="fill:none;stroke:#8c564b;stroke-linecap:square;stroke-width:2;"/>
    </g>
    <g id="line2d_62"/>
    <g id="text_31">
     <!-- beblid AP: 91.2, %In: 50.9 -->
     <g transform="translate(392.264063 150.469063)scale(0.1 -0.1)">
      <use xlink:href="#DejaVuSans-98"/>
      <use x="63.476562" xlink:href="#DejaVuSans-101"/>
      <use x="125" xlink:href="#DejaVuSans-98"/>
      <use x="188.476562" xlink:href="#DejaVuSans-108"/>
      <use x="216.259766" xlink:href="#DejaVuSans-105"/>
      <use x="244.042969" xlink:href="#DejaVuSans-100"/>
      <use x="307.519531" xlink:href="#DejaVuSans-32"/>
      <use x="339.306641" xlink:href="#DejaVuSans-65"/>
      <use x="407.714844" xlink:href="#DejaVuSans-80"/>
      <use x="468.017578" xlink:href="#DejaVuSans-58"/>
      <use x="501.708984" xlink:href="#DejaVuSans-32"/>
      <use x="533.496094" xlink:href="#DejaVuSans-57"/>
      <use x="597.119141" xlink:href="#DejaVuSans-49"/>
      <use x="660.742188" xlink:href="#DejaVuSans-46"/>
      <use x="692.529297" xlink:href="#DejaVuSans-50"/>
      <use x="756.152344" xlink:href="#DejaVuSans-44"/>
      <use x="787.939453" xlink:href="#DejaVuSans-32"/>
      <use x="819.726562" xlink:href="#DejaVuSans-37"/>
      <use x="914.746094" xlink:href="#DejaVuSans-73"/>
      <use x="944.238281" xlink:href="#DejaVuSans-110"/>
      <use x="1007.617188" xlink:href="#DejaVuSans-58"/>
      <use x="1041.308594" xlink:href="#DejaVuSans-32"/>
      <use x="1073.095703" xlink:href="#DejaVuSans-53"/>
      <use x="1136.71875" xlink:href="#DejaVuSans-48"/>
      <use x="1200.341797" xlink:href="#DejaVuSans-46"/>
      <use x="1232.128906" xlink:href="#DejaVuSans-57"/>
     </g>
    </g>
   </g>
  </g>
 </g>
 <defs>
  <clipPath id="pf4478e3f48">
   <rect height="388.08" width="474.3" x="76.5" y="60.48"/>
  </clipPath>
 </defs>
</svg>
