<?xml version="1.0" encoding="utf-8" standalone="no"?>
<!DOCTYPE svg PUBLIC "-//W3C//DTD SVG 1.1//EN"
  "http://www.w3.org/Graphics/SVG/1.1/DTD/svg11.dtd">
<!-- Created with matplotlib (https://matplotlib.org/) -->
<svg height="504pt" version="1.1" viewBox="0 0 612 504" width="612pt" xmlns="http://www.w3.org/2000/svg" xmlns:xlink="http://www.w3.org/1999/xlink">
 <defs>
  <style type="text/css">
*{stroke-linecap:butt;stroke-linejoin:round;}
  </style>
 </defs>
 <g id="figure_1">
  <g id="patch_1">
   <path d="M 0 504 
L 612 504 
L 612 0 
L 0 0 
z
" style="fill:#ffffff;"/>
  </g>
  <g id="axes_1">
   <g id="patch_2">
    <path d="M 76.5 448.56 
L 550.8 448.56 
L 550.8 60.48 
L 76.5 60.48 
z
" style="fill:#ffffff;"/>
   </g>
   <g id="matplotlib.axis_1">
    <g id="xtick_1">
     <g id="line2d_1">
      <path clip-path="url(#p0241dd1214)" d="M 76.5 448.56 
L 76.5 60.48 
" style="fill:none;stroke:#b0b0b0;stroke-linecap:square;stroke-width:0.8;"/>
     </g>
     <g id="line2d_2">
      <defs>
       <path d="M 0 0 
L 0 3.5 
" id="m2a3e1a33c6" style="stroke:#000000;stroke-width:0.8;"/>
      </defs>
      <g>
       <use style="stroke:#000000;stroke-width:0.8;" x="76.5" xlink:href="#m2a3e1a33c6" y="448.56"/>
      </g>
     </g>
     <g id="text_1">
      <!-- 0.0 -->
      <defs>
       <path d="M 31.78125 66.40625 
Q 24.171875 66.40625 20.328125 58.90625 
Q 16.5 51.421875 16.5 36.375 
Q 16.5 21.390625 20.328125 13.890625 
Q 24.171875 6.390625 31.78125 6.390625 
Q 39.453125 6.390625 43.28125 13.890625 
Q 47.125 21.390625 47.125 36.375 
Q 47.125 51.421875 43.28125 58.90625 
Q 39.453125 66.40625 31.78125 66.40625 
z
M 31.78125 74.21875 
Q 44.046875 74.21875 50.515625 64.515625 
Q 56.984375 54.828125 56.984375 36.375 
Q 56.984375 17.96875 50.515625 8.265625 
Q 44.046875 -1.421875 31.78125 -1.421875 
Q 19.53125 -1.421875 13.0625 8.265625 
Q 6.59375 17.96875 6.59375 36.375 
Q 6.59375 54.828125 13.0625 64.515625 
Q 19.53125 74.21875 31.78125 74.21875 
z
" id="DejaVuSans-48"/>
       <path d="M 10.6875 12.40625 
L 21 12.40625 
L 21 0 
L 10.6875 0 
z
" id="DejaVuSans-46"/>
      </defs>
      <g transform="translate(68.548438 463.158437)scale(0.1 -0.1)">
       <use xlink:href="#DejaVuSans-48"/>
       <use x="63.623047" xlink:href="#DejaVuSans-46"/>
       <use x="95.410156" xlink:href="#DejaVuSans-48"/>
      </g>
     </g>
    </g>
    <g id="xtick_2">
     <g id="line2d_3">
      <path clip-path="url(#p0241dd1214)" d="M 123.93 448.56 
L 123.93 60.48 
" style="fill:none;stroke:#b0b0b0;stroke-linecap:square;stroke-width:0.8;"/>
     </g>
     <g id="line2d_4">
      <g>
       <use style="stroke:#000000;stroke-width:0.8;" x="123.93" xlink:href="#m2a3e1a33c6" y="448.56"/>
      </g>
     </g>
     <g id="text_2">
      <!-- 0.1 -->
      <defs>
       <path d="M 12.40625 8.296875 
L 28.515625 8.296875 
L 28.515625 63.921875 
L 10.984375 60.40625 
L 10.984375 69.390625 
L 28.421875 72.90625 
L 38.28125 72.90625 
L 38.28125 8.296875 
L 54.390625 8.296875 
L 54.390625 0 
L 12.40625 0 
z
" id="DejaVuSans-49"/>
      </defs>
      <g transform="translate(115.978438 463.158437)scale(0.1 -0.1)">
       <use xlink:href="#DejaVuSans-48"/>
       <use x="63.623047" xlink:href="#DejaVuSans-46"/>
       <use x="95.410156" xlink:href="#DejaVuSans-49"/>
      </g>
     </g>
    </g>
    <g id="xtick_3">
     <g id="line2d_5">
      <path clip-path="url(#p0241dd1214)" d="M 171.36 448.56 
L 171.36 60.48 
" style="fill:none;stroke:#b0b0b0;stroke-linecap:square;stroke-width:0.8;"/>
     </g>
     <g id="line2d_6">
      <g>
       <use style="stroke:#000000;stroke-width:0.8;" x="171.36" xlink:href="#m2a3e1a33c6" y="448.56"/>
      </g>
     </g>
     <g id="text_3">
      <!-- 0.2 -->
      <defs>
       <path d="M 19.1875 8.296875 
L 53.609375 8.296875 
L 53.609375 0 
L 7.328125 0 
L 7.328125 8.296875 
Q 12.9375 14.109375 22.625 23.890625 
Q 32.328125 33.6875 34.8125 36.53125 
Q 39.546875 41.84375 41.421875 45.53125 
Q 43.3125 49.21875 43.3125 52.78125 
Q 43.3125 58.59375 39.234375 62.25 
Q 35.15625 65.921875 28.609375 65.921875 
Q 23.96875 65.921875 18.8125 64.3125 
Q 13.671875 62.703125 7.8125 59.421875 
L 7.8125 69.390625 
Q 13.765625 71.78125 18.9375 73 
Q 24.125 74.21875 28.421875 74.21875 
Q 39.75 74.21875 46.484375 68.546875 
Q 53.21875 62.890625 53.21875 53.421875 
Q 53.21875 48.921875 51.53125 44.890625 
Q 49.859375 40.875 45.40625 35.40625 
Q 44.1875 33.984375 37.640625 27.21875 
Q 31.109375 20.453125 19.1875 8.296875 
z
" id="DejaVuSans-50"/>
      </defs>
      <g transform="translate(163.408438 463.158437)scale(0.1 -0.1)">
       <use xlink:href="#DejaVuSans-48"/>
       <use x="63.623047" xlink:href="#DejaVuSans-46"/>
       <use x="95.410156" xlink:href="#DejaVuSans-50"/>
      </g>
     </g>
    </g>
    <g id="xtick_4">
     <g id="line2d_7">
      <path clip-path="url(#p0241dd1214)" d="M 218.79 448.56 
L 218.79 60.48 
" style="fill:none;stroke:#b0b0b0;stroke-linecap:square;stroke-width:0.8;"/>
     </g>
     <g id="line2d_8">
      <g>
       <use style="stroke:#000000;stroke-width:0.8;" x="218.79" xlink:href="#m2a3e1a33c6" y="448.56"/>
      </g>
     </g>
     <g id="text_4">
      <!-- 0.3 -->
      <defs>
       <path d="M 40.578125 39.3125 
Q 47.65625 37.796875 51.625 33 
Q 55.609375 28.21875 55.609375 21.1875 
Q 55.609375 10.40625 48.1875 4.484375 
Q 40.765625 -1.421875 27.09375 -1.421875 
Q 22.515625 -1.421875 17.65625 -0.515625 
Q 12.796875 0.390625 7.625 2.203125 
L 7.625 11.71875 
Q 11.71875 9.328125 16.59375 8.109375 
Q 21.484375 6.890625 26.8125 6.890625 
Q 36.078125 6.890625 40.9375 10.546875 
Q 45.796875 14.203125 45.796875 21.1875 
Q 45.796875 27.640625 41.28125 31.265625 
Q 36.765625 34.90625 28.71875 34.90625 
L 20.21875 34.90625 
L 20.21875 43.015625 
L 29.109375 43.015625 
Q 36.375 43.015625 40.234375 45.921875 
Q 44.09375 48.828125 44.09375 54.296875 
Q 44.09375 59.90625 40.109375 62.90625 
Q 36.140625 65.921875 28.71875 65.921875 
Q 24.65625 65.921875 20.015625 65.03125 
Q 15.375 64.15625 9.8125 62.3125 
L 9.8125 71.09375 
Q 15.4375 72.65625 20.34375 73.4375 
Q 25.25 74.21875 29.59375 74.21875 
Q 40.828125 74.21875 47.359375 69.109375 
Q 53.90625 64.015625 53.90625 55.328125 
Q 53.90625 49.265625 50.4375 45.09375 
Q 46.96875 40.921875 40.578125 39.3125 
z
" id="DejaVuSans-51"/>
      </defs>
      <g transform="translate(210.838438 463.158437)scale(0.1 -0.1)">
       <use xlink:href="#DejaVuSans-48"/>
       <use x="63.623047" xlink:href="#DejaVuSans-46"/>
       <use x="95.410156" xlink:href="#DejaVuSans-51"/>
      </g>
     </g>
    </g>
    <g id="xtick_5">
     <g id="line2d_9">
      <path clip-path="url(#p0241dd1214)" d="M 266.22 448.56 
L 266.22 60.48 
" style="fill:none;stroke:#b0b0b0;stroke-linecap:square;stroke-width:0.8;"/>
     </g>
     <g id="line2d_10">
      <g>
       <use style="stroke:#000000;stroke-width:0.8;" x="266.22" xlink:href="#m2a3e1a33c6" y="448.56"/>
      </g>
     </g>
     <g id="text_5">
      <!-- 0.4 -->
      <defs>
       <path d="M 37.796875 64.3125 
L 12.890625 25.390625 
L 37.796875 25.390625 
z
M 35.203125 72.90625 
L 47.609375 72.90625 
L 47.609375 25.390625 
L 58.015625 25.390625 
L 58.015625 17.1875 
L 47.609375 17.1875 
L 47.609375 0 
L 37.796875 0 
L 37.796875 17.1875 
L 4.890625 17.1875 
L 4.890625 26.703125 
z
" id="DejaVuSans-52"/>
      </defs>
      <g transform="translate(258.268438 463.158437)scale(0.1 -0.1)">
       <use xlink:href="#DejaVuSans-48"/>
       <use x="63.623047" xlink:href="#DejaVuSans-46"/>
       <use x="95.410156" xlink:href="#DejaVuSans-52"/>
      </g>
     </g>
    </g>
    <g id="xtick_6">
     <g id="line2d_11">
      <path clip-path="url(#p0241dd1214)" d="M 313.65 448.56 
L 313.65 60.48 
" style="fill:none;stroke:#b0b0b0;stroke-linecap:square;stroke-width:0.8;"/>
     </g>
     <g id="line2d_12">
      <g>
       <use style="stroke:#000000;stroke-width:0.8;" x="313.65" xlink:href="#m2a3e1a33c6" y="448.56"/>
      </g>
     </g>
     <g id="text_6">
      <!-- 0.5 -->
      <defs>
       <path d="M 10.796875 72.90625 
L 49.515625 72.90625 
L 49.515625 64.59375 
L 19.828125 64.59375 
L 19.828125 46.734375 
Q 21.96875 47.46875 24.109375 47.828125 
Q 26.265625 48.1875 28.421875 48.1875 
Q 40.625 48.1875 47.75 41.5 
Q 54.890625 34.8125 54.890625 23.390625 
Q 54.890625 11.625 47.5625 5.09375 
Q 40.234375 -1.421875 26.90625 -1.421875 
Q 22.3125 -1.421875 17.546875 -0.640625 
Q 12.796875 0.140625 7.71875 1.703125 
L 7.71875 11.625 
Q 12.109375 9.234375 16.796875 8.0625 
Q 21.484375 6.890625 26.703125 6.890625 
Q 35.15625 6.890625 40.078125 11.328125 
Q 45.015625 15.765625 45.015625 23.390625 
Q 45.015625 31 40.078125 35.4375 
Q 35.15625 39.890625 26.703125 39.890625 
Q 22.75 39.890625 18.8125 39.015625 
Q 14.890625 38.140625 10.796875 36.28125 
z
" id="DejaVuSans-53"/>
      </defs>
      <g transform="translate(305.698438 463.158437)scale(0.1 -0.1)">
       <use xlink:href="#DejaVuSans-48"/>
       <use x="63.623047" xlink:href="#DejaVuSans-46"/>
       <use x="95.410156" xlink:href="#DejaVuSans-53"/>
      </g>
     </g>
    </g>
    <g id="xtick_7">
     <g id="line2d_13">
      <path clip-path="url(#p0241dd1214)" d="M 361.08 448.56 
L 361.08 60.48 
" style="fill:none;stroke:#b0b0b0;stroke-linecap:square;stroke-width:0.8;"/>
     </g>
     <g id="line2d_14">
      <g>
       <use style="stroke:#000000;stroke-width:0.8;" x="361.08" xlink:href="#m2a3e1a33c6" y="448.56"/>
      </g>
     </g>
     <g id="text_7">
      <!-- 0.6 -->
      <defs>
       <path d="M 33.015625 40.375 
Q 26.375 40.375 22.484375 35.828125 
Q 18.609375 31.296875 18.609375 23.390625 
Q 18.609375 15.53125 22.484375 10.953125 
Q 26.375 6.390625 33.015625 6.390625 
Q 39.65625 6.390625 43.53125 10.953125 
Q 47.40625 15.53125 47.40625 23.390625 
Q 47.40625 31.296875 43.53125 35.828125 
Q 39.65625 40.375 33.015625 40.375 
z
M 52.59375 71.296875 
L 52.59375 62.3125 
Q 48.875 64.0625 45.09375 64.984375 
Q 41.3125 65.921875 37.59375 65.921875 
Q 27.828125 65.921875 22.671875 59.328125 
Q 17.53125 52.734375 16.796875 39.40625 
Q 19.671875 43.65625 24.015625 45.921875 
Q 28.375 48.1875 33.59375 48.1875 
Q 44.578125 48.1875 50.953125 41.515625 
Q 57.328125 34.859375 57.328125 23.390625 
Q 57.328125 12.15625 50.6875 5.359375 
Q 44.046875 -1.421875 33.015625 -1.421875 
Q 20.359375 -1.421875 13.671875 8.265625 
Q 6.984375 17.96875 6.984375 36.375 
Q 6.984375 53.65625 15.1875 63.9375 
Q 23.390625 74.21875 37.203125 74.21875 
Q 40.921875 74.21875 44.703125 73.484375 
Q 48.484375 72.75 52.59375 71.296875 
z
" id="DejaVuSans-54"/>
      </defs>
      <g transform="translate(353.128438 463.158437)scale(0.1 -0.1)">
       <use xlink:href="#DejaVuSans-48"/>
       <use x="63.623047" xlink:href="#DejaVuSans-46"/>
       <use x="95.410156" xlink:href="#DejaVuSans-54"/>
      </g>
     </g>
    </g>
    <g id="xtick_8">
     <g id="line2d_15">
      <path clip-path="url(#p0241dd1214)" d="M 408.51 448.56 
L 408.51 60.48 
" style="fill:none;stroke:#b0b0b0;stroke-linecap:square;stroke-width:0.8;"/>
     </g>
     <g id="line2d_16">
      <g>
       <use style="stroke:#000000;stroke-width:0.8;" x="408.51" xlink:href="#m2a3e1a33c6" y="448.56"/>
      </g>
     </g>
     <g id="text_8">
      <!-- 0.7 -->
      <defs>
       <path d="M 8.203125 72.90625 
L 55.078125 72.90625 
L 55.078125 68.703125 
L 28.609375 0 
L 18.3125 0 
L 43.21875 64.59375 
L 8.203125 64.59375 
z
" id="DejaVuSans-55"/>
      </defs>
      <g transform="translate(400.558438 463.158437)scale(0.1 -0.1)">
       <use xlink:href="#DejaVuSans-48"/>
       <use x="63.623047" xlink:href="#DejaVuSans-46"/>
       <use x="95.410156" xlink:href="#DejaVuSans-55"/>
      </g>
     </g>
    </g>
    <g id="xtick_9">
     <g id="line2d_17">
      <path clip-path="url(#p0241dd1214)" d="M 455.94 448.56 
L 455.94 60.48 
" style="fill:none;stroke:#b0b0b0;stroke-linecap:square;stroke-width:0.8;"/>
     </g>
     <g id="line2d_18">
      <g>
       <use style="stroke:#000000;stroke-width:0.8;" x="455.94" xlink:href="#m2a3e1a33c6" y="448.56"/>
      </g>
     </g>
     <g id="text_9">
      <!-- 0.8 -->
      <defs>
       <path d="M 31.78125 34.625 
Q 24.75 34.625 20.71875 30.859375 
Q 16.703125 27.09375 16.703125 20.515625 
Q 16.703125 13.921875 20.71875 10.15625 
Q 24.75 6.390625 31.78125 6.390625 
Q 38.8125 6.390625 42.859375 10.171875 
Q 46.921875 13.96875 46.921875 20.515625 
Q 46.921875 27.09375 42.890625 30.859375 
Q 38.875 34.625 31.78125 34.625 
z
M 21.921875 38.8125 
Q 15.578125 40.375 12.03125 44.71875 
Q 8.5 49.078125 8.5 55.328125 
Q 8.5 64.0625 14.71875 69.140625 
Q 20.953125 74.21875 31.78125 74.21875 
Q 42.671875 74.21875 48.875 69.140625 
Q 55.078125 64.0625 55.078125 55.328125 
Q 55.078125 49.078125 51.53125 44.71875 
Q 48 40.375 41.703125 38.8125 
Q 48.828125 37.15625 52.796875 32.3125 
Q 56.78125 27.484375 56.78125 20.515625 
Q 56.78125 9.90625 50.3125 4.234375 
Q 43.84375 -1.421875 31.78125 -1.421875 
Q 19.734375 -1.421875 13.25 4.234375 
Q 6.78125 9.90625 6.78125 20.515625 
Q 6.78125 27.484375 10.78125 32.3125 
Q 14.796875 37.15625 21.921875 38.8125 
z
M 18.3125 54.390625 
Q 18.3125 48.734375 21.84375 45.5625 
Q 25.390625 42.390625 31.78125 42.390625 
Q 38.140625 42.390625 41.71875 45.5625 
Q 45.3125 48.734375 45.3125 54.390625 
Q 45.3125 60.0625 41.71875 63.234375 
Q 38.140625 66.40625 31.78125 66.40625 
Q 25.390625 66.40625 21.84375 63.234375 
Q 18.3125 60.0625 18.3125 54.390625 
z
" id="DejaVuSans-56"/>
      </defs>
      <g transform="translate(447.988438 463.158437)scale(0.1 -0.1)">
       <use xlink:href="#DejaVuSans-48"/>
       <use x="63.623047" xlink:href="#DejaVuSans-46"/>
       <use x="95.410156" xlink:href="#DejaVuSans-56"/>
      </g>
     </g>
    </g>
    <g id="xtick_10">
     <g id="line2d_19">
      <path clip-path="url(#p0241dd1214)" d="M 503.37 448.56 
L 503.37 60.48 
" style="fill:none;stroke:#b0b0b0;stroke-linecap:square;stroke-width:0.8;"/>
     </g>
     <g id="line2d_20">
      <g>
       <use style="stroke:#000000;stroke-width:0.8;" x="503.37" xlink:href="#m2a3e1a33c6" y="448.56"/>
      </g>
     </g>
     <g id="text_10">
      <!-- 0.9 -->
      <defs>
       <path d="M 10.984375 1.515625 
L 10.984375 10.5 
Q 14.703125 8.734375 18.5 7.8125 
Q 22.3125 6.890625 25.984375 6.890625 
Q 35.75 6.890625 40.890625 13.453125 
Q 46.046875 20.015625 46.78125 33.40625 
Q 43.953125 29.203125 39.59375 26.953125 
Q 35.25 24.703125 29.984375 24.703125 
Q 19.046875 24.703125 12.671875 31.3125 
Q 6.296875 37.9375 6.296875 49.421875 
Q 6.296875 60.640625 12.9375 67.421875 
Q 19.578125 74.21875 30.609375 74.21875 
Q 43.265625 74.21875 49.921875 64.515625 
Q 56.59375 54.828125 56.59375 36.375 
Q 56.59375 19.140625 48.40625 8.859375 
Q 40.234375 -1.421875 26.421875 -1.421875 
Q 22.703125 -1.421875 18.890625 -0.6875 
Q 15.09375 0.046875 10.984375 1.515625 
z
M 30.609375 32.421875 
Q 37.25 32.421875 41.125 36.953125 
Q 45.015625 41.5 45.015625 49.421875 
Q 45.015625 57.28125 41.125 61.84375 
Q 37.25 66.40625 30.609375 66.40625 
Q 23.96875 66.40625 20.09375 61.84375 
Q 16.21875 57.28125 16.21875 49.421875 
Q 16.21875 41.5 20.09375 36.953125 
Q 23.96875 32.421875 30.609375 32.421875 
z
" id="DejaVuSans-57"/>
      </defs>
      <g transform="translate(495.418438 463.158437)scale(0.1 -0.1)">
       <use xlink:href="#DejaVuSans-48"/>
       <use x="63.623047" xlink:href="#DejaVuSans-46"/>
       <use x="95.410156" xlink:href="#DejaVuSans-57"/>
      </g>
     </g>
    </g>
    <g id="xtick_11">
     <g id="line2d_21">
      <path clip-path="url(#p0241dd1214)" d="M 550.8 448.56 
L 550.8 60.48 
" style="fill:none;stroke:#b0b0b0;stroke-linecap:square;stroke-width:0.8;"/>
     </g>
     <g id="line2d_22">
      <g>
       <use style="stroke:#000000;stroke-width:0.8;" x="550.8" xlink:href="#m2a3e1a33c6" y="448.56"/>
      </g>
     </g>
     <g id="text_11">
      <!-- 1.0 -->
      <g transform="translate(542.848438 463.158437)scale(0.1 -0.1)">
       <use xlink:href="#DejaVuSans-49"/>
       <use x="63.623047" xlink:href="#DejaVuSans-46"/>
       <use x="95.410156" xlink:href="#DejaVuSans-48"/>
      </g>
     </g>
    </g>
    <g id="text_12">
     <!-- 1-precision -->
     <defs>
      <path d="M 4.890625 31.390625 
L 31.203125 31.390625 
L 31.203125 23.390625 
L 4.890625 23.390625 
z
" id="DejaVuSans-45"/>
      <path d="M 18.109375 8.203125 
L 18.109375 -20.796875 
L 9.078125 -20.796875 
L 9.078125 54.6875 
L 18.109375 54.6875 
L 18.109375 46.390625 
Q 20.953125 51.265625 25.265625 53.625 
Q 29.59375 56 35.59375 56 
Q 45.5625 56 51.78125 48.09375 
Q 58.015625 40.1875 58.015625 27.296875 
Q 58.015625 14.40625 51.78125 6.484375 
Q 45.5625 -1.421875 35.59375 -1.421875 
Q 29.59375 -1.421875 25.265625 0.953125 
Q 20.953125 3.328125 18.109375 8.203125 
z
M 48.6875 27.296875 
Q 48.6875 37.203125 44.609375 42.84375 
Q 40.53125 48.484375 33.40625 48.484375 
Q 26.265625 48.484375 22.1875 42.84375 
Q 18.109375 37.203125 18.109375 27.296875 
Q 18.109375 17.390625 22.1875 11.75 
Q 26.265625 6.109375 33.40625 6.109375 
Q 40.53125 6.109375 44.609375 11.75 
Q 48.6875 17.390625 48.6875 27.296875 
z
" id="DejaVuSans-112"/>
      <path d="M 41.109375 46.296875 
Q 39.59375 47.171875 37.8125 47.578125 
Q 36.03125 48 33.890625 48 
Q 26.265625 48 22.1875 43.046875 
Q 18.109375 38.09375 18.109375 28.8125 
L 18.109375 0 
L 9.078125 0 
L 9.078125 54.6875 
L 18.109375 54.6875 
L 18.109375 46.1875 
Q 20.953125 51.171875 25.484375 53.578125 
Q 30.03125 56 36.53125 56 
Q 37.453125 56 38.578125 55.875 
Q 39.703125 55.765625 41.0625 55.515625 
z
" id="DejaVuSans-114"/>
      <path d="M 56.203125 29.59375 
L 56.203125 25.203125 
L 14.890625 25.203125 
Q 15.484375 15.921875 20.484375 11.0625 
Q 25.484375 6.203125 34.421875 6.203125 
Q 39.59375 6.203125 44.453125 7.46875 
Q 49.3125 8.734375 54.109375 11.28125 
L 54.109375 2.78125 
Q 49.265625 0.734375 44.1875 -0.34375 
Q 39.109375 -1.421875 33.890625 -1.421875 
Q 20.796875 -1.421875 13.15625 6.1875 
Q 5.515625 13.8125 5.515625 26.8125 
Q 5.515625 40.234375 12.765625 48.109375 
Q 20.015625 56 32.328125 56 
Q 43.359375 56 49.78125 48.890625 
Q 56.203125 41.796875 56.203125 29.59375 
z
M 47.21875 32.234375 
Q 47.125 39.59375 43.09375 43.984375 
Q 39.0625 48.390625 32.421875 48.390625 
Q 24.90625 48.390625 20.390625 44.140625 
Q 15.875 39.890625 15.1875 32.171875 
z
" id="DejaVuSans-101"/>
      <path d="M 48.78125 52.59375 
L 48.78125 44.1875 
Q 44.96875 46.296875 41.140625 47.34375 
Q 37.3125 48.390625 33.40625 48.390625 
Q 24.65625 48.390625 19.8125 42.84375 
Q 14.984375 37.3125 14.984375 27.296875 
Q 14.984375 17.28125 19.8125 11.734375 
Q 24.65625 6.203125 33.40625 6.203125 
Q 37.3125 6.203125 41.140625 7.25 
Q 44.96875 8.296875 48.78125 10.40625 
L 48.78125 2.09375 
Q 45.015625 0.34375 40.984375 -0.53125 
Q 36.96875 -1.421875 32.421875 -1.421875 
Q 20.0625 -1.421875 12.78125 6.34375 
Q 5.515625 14.109375 5.515625 27.296875 
Q 5.515625 40.671875 12.859375 48.328125 
Q 20.21875 56 33.015625 56 
Q 37.15625 56 41.109375 55.140625 
Q 45.0625 54.296875 48.78125 52.59375 
z
" id="DejaVuSans-99"/>
      <path d="M 9.421875 54.6875 
L 18.40625 54.6875 
L 18.40625 0 
L 9.421875 0 
z
M 9.421875 75.984375 
L 18.40625 75.984375 
L 18.40625 64.59375 
L 9.421875 64.59375 
z
" id="DejaVuSans-105"/>
      <path d="M 44.28125 53.078125 
L 44.28125 44.578125 
Q 40.484375 46.53125 36.375 47.5 
Q 32.28125 48.484375 27.875 48.484375 
Q 21.1875 48.484375 17.84375 46.4375 
Q 14.5 44.390625 14.5 40.28125 
Q 14.5 37.15625 16.890625 35.375 
Q 19.28125 33.59375 26.515625 31.984375 
L 29.59375 31.296875 
Q 39.15625 29.25 43.1875 25.515625 
Q 47.21875 21.78125 47.21875 15.09375 
Q 47.21875 7.46875 41.1875 3.015625 
Q 35.15625 -1.421875 24.609375 -1.421875 
Q 20.21875 -1.421875 15.453125 -0.5625 
Q 10.6875 0.296875 5.421875 2 
L 5.421875 11.28125 
Q 10.40625 8.6875 15.234375 7.390625 
Q 20.0625 6.109375 24.8125 6.109375 
Q 31.15625 6.109375 34.5625 8.28125 
Q 37.984375 10.453125 37.984375 14.40625 
Q 37.984375 18.0625 35.515625 20.015625 
Q 33.0625 21.96875 24.703125 23.78125 
L 21.578125 24.515625 
Q 13.234375 26.265625 9.515625 29.90625 
Q 5.8125 33.546875 5.8125 39.890625 
Q 5.8125 47.609375 11.28125 51.796875 
Q 16.75 56 26.8125 56 
Q 31.78125 56 36.171875 55.265625 
Q 40.578125 54.546875 44.28125 53.078125 
z
" id="DejaVuSans-115"/>
      <path d="M 30.609375 48.390625 
Q 23.390625 48.390625 19.1875 42.75 
Q 14.984375 37.109375 14.984375 27.296875 
Q 14.984375 17.484375 19.15625 11.84375 
Q 23.34375 6.203125 30.609375 6.203125 
Q 37.796875 6.203125 41.984375 11.859375 
Q 46.1875 17.53125 46.1875 27.296875 
Q 46.1875 37.015625 41.984375 42.703125 
Q 37.796875 48.390625 30.609375 48.390625 
z
M 30.609375 56 
Q 42.328125 56 49.015625 48.375 
Q 55.71875 40.765625 55.71875 27.296875 
Q 55.71875 13.875 49.015625 6.21875 
Q 42.328125 -1.421875 30.609375 -1.421875 
Q 18.84375 -1.421875 12.171875 6.21875 
Q 5.515625 13.875 5.515625 27.296875 
Q 5.515625 40.765625 12.171875 48.375 
Q 18.84375 56 30.609375 56 
z
" id="DejaVuSans-111"/>
      <path d="M 54.890625 33.015625 
L 54.890625 0 
L 45.90625 0 
L 45.90625 32.71875 
Q 45.90625 40.484375 42.875 44.328125 
Q 39.84375 48.1875 33.796875 48.1875 
Q 26.515625 48.1875 22.3125 43.546875 
Q 18.109375 38.921875 18.109375 30.90625 
L 18.109375 0 
L 9.078125 0 
L 9.078125 54.6875 
L 18.109375 54.6875 
L 18.109375 46.1875 
Q 21.34375 51.125 25.703125 53.5625 
Q 30.078125 56 35.796875 56 
Q 45.21875 56 50.046875 50.171875 
Q 54.890625 44.34375 54.890625 33.015625 
z
" id="DejaVuSans-110"/>
     </defs>
     <g transform="translate(286 476.836563)scale(0.1 -0.1)">
      <use xlink:href="#DejaVuSans-49"/>
      <use x="63.623047" xlink:href="#DejaVuSans-45"/>
      <use x="99.707031" xlink:href="#DejaVuSans-112"/>
      <use x="163.183594" xlink:href="#DejaVuSans-114"/>
      <use x="204.265625" xlink:href="#DejaVuSans-101"/>
      <use x="265.789062" xlink:href="#DejaVuSans-99"/>
      <use x="320.769531" xlink:href="#DejaVuSans-105"/>
      <use x="348.552734" xlink:href="#DejaVuSans-115"/>
      <use x="400.652344" xlink:href="#DejaVuSans-105"/>
      <use x="428.435547" xlink:href="#DejaVuSans-111"/>
      <use x="489.617188" xlink:href="#DejaVuSans-110"/>
     </g>
    </g>
   </g>
   <g id="matplotlib.axis_2">
    <g id="ytick_1">
     <g id="line2d_23">
      <path clip-path="url(#p0241dd1214)" d="M 76.5 448.56 
L 550.8 448.56 
" style="fill:none;stroke:#b0b0b0;stroke-linecap:square;stroke-width:0.8;"/>
     </g>
     <g id="line2d_24">
      <defs>
       <path d="M 0 0 
L -3.5 0 
" id="m1fab6410c1" style="stroke:#000000;stroke-width:0.8;"/>
      </defs>
      <g>
       <use style="stroke:#000000;stroke-width:0.8;" x="76.5" xlink:href="#m1fab6410c1" y="448.56"/>
      </g>
     </g>
     <g id="text_13">
      <!-- 0.0 -->
      <g transform="translate(53.596875 452.359219)scale(0.1 -0.1)">
       <use xlink:href="#DejaVuSans-48"/>
       <use x="63.623047" xlink:href="#DejaVuSans-46"/>
       <use x="95.410156" xlink:href="#DejaVuSans-48"/>
      </g>
     </g>
    </g>
    <g id="ytick_2">
     <g id="line2d_25">
      <path clip-path="url(#p0241dd1214)" d="M 76.5 409.752 
L 550.8 409.752 
" style="fill:none;stroke:#b0b0b0;stroke-linecap:square;stroke-width:0.8;"/>
     </g>
     <g id="line2d_26">
      <g>
       <use style="stroke:#000000;stroke-width:0.8;" x="76.5" xlink:href="#m1fab6410c1" y="409.752"/>
      </g>
     </g>
     <g id="text_14">
      <!-- 0.1 -->
      <g transform="translate(53.596875 413.551219)scale(0.1 -0.1)">
       <use xlink:href="#DejaVuSans-48"/>
       <use x="63.623047" xlink:href="#DejaVuSans-46"/>
       <use x="95.410156" xlink:href="#DejaVuSans-49"/>
      </g>
     </g>
    </g>
    <g id="ytick_3">
     <g id="line2d_27">
      <path clip-path="url(#p0241dd1214)" d="M 76.5 370.944 
L 550.8 370.944 
" style="fill:none;stroke:#b0b0b0;stroke-linecap:square;stroke-width:0.8;"/>
     </g>
     <g id="line2d_28">
      <g>
       <use style="stroke:#000000;stroke-width:0.8;" x="76.5" xlink:href="#m1fab6410c1" y="370.944"/>
      </g>
     </g>
     <g id="text_15">
      <!-- 0.2 -->
      <g transform="translate(53.596875 374.743219)scale(0.1 -0.1)">
       <use xlink:href="#DejaVuSans-48"/>
       <use x="63.623047" xlink:href="#DejaVuSans-46"/>
       <use x="95.410156" xlink:href="#DejaVuSans-50"/>
      </g>
     </g>
    </g>
    <g id="ytick_4">
     <g id="line2d_29">
      <path clip-path="url(#p0241dd1214)" d="M 76.5 332.136 
L 550.8 332.136 
" style="fill:none;stroke:#b0b0b0;stroke-linecap:square;stroke-width:0.8;"/>
     </g>
     <g id="line2d_30">
      <g>
       <use style="stroke:#000000;stroke-width:0.8;" x="76.5" xlink:href="#m1fab6410c1" y="332.136"/>
      </g>
     </g>
     <g id="text_16">
      <!-- 0.3 -->
      <g transform="translate(53.596875 335.935219)scale(0.1 -0.1)">
       <use xlink:href="#DejaVuSans-48"/>
       <use x="63.623047" xlink:href="#DejaVuSans-46"/>
       <use x="95.410156" xlink:href="#DejaVuSans-51"/>
      </g>
     </g>
    </g>
    <g id="ytick_5">
     <g id="line2d_31">
      <path clip-path="url(#p0241dd1214)" d="M 76.5 293.328 
L 550.8 293.328 
" style="fill:none;stroke:#b0b0b0;stroke-linecap:square;stroke-width:0.8;"/>
     </g>
     <g id="line2d_32">
      <g>
       <use style="stroke:#000000;stroke-width:0.8;" x="76.5" xlink:href="#m1fab6410c1" y="293.328"/>
      </g>
     </g>
     <g id="text_17">
      <!-- 0.4 -->
      <g transform="translate(53.596875 297.127219)scale(0.1 -0.1)">
       <use xlink:href="#DejaVuSans-48"/>
       <use x="63.623047" xlink:href="#DejaVuSans-46"/>
       <use x="95.410156" xlink:href="#DejaVuSans-52"/>
      </g>
     </g>
    </g>
    <g id="ytick_6">
     <g id="line2d_33">
      <path clip-path="url(#p0241dd1214)" d="M 76.5 254.52 
L 550.8 254.52 
" style="fill:none;stroke:#b0b0b0;stroke-linecap:square;stroke-width:0.8;"/>
     </g>
     <g id="line2d_34">
      <g>
       <use style="stroke:#000000;stroke-width:0.8;" x="76.5" xlink:href="#m1fab6410c1" y="254.52"/>
      </g>
     </g>
     <g id="text_18">
      <!-- 0.5 -->
      <g transform="translate(53.596875 258.319219)scale(0.1 -0.1)">
       <use xlink:href="#DejaVuSans-48"/>
       <use x="63.623047" xlink:href="#DejaVuSans-46"/>
       <use x="95.410156" xlink:href="#DejaVuSans-53"/>
      </g>
     </g>
    </g>
    <g id="ytick_7">
     <g id="line2d_35">
      <path clip-path="url(#p0241dd1214)" d="M 76.5 215.712 
L 550.8 215.712 
" style="fill:none;stroke:#b0b0b0;stroke-linecap:square;stroke-width:0.8;"/>
     </g>
     <g id="line2d_36">
      <g>
       <use style="stroke:#000000;stroke-width:0.8;" x="76.5" xlink:href="#m1fab6410c1" y="215.712"/>
      </g>
     </g>
     <g id="text_19">
      <!-- 0.6 -->
      <g transform="translate(53.596875 219.511219)scale(0.1 -0.1)">
       <use xlink:href="#DejaVuSans-48"/>
       <use x="63.623047" xlink:href="#DejaVuSans-46"/>
       <use x="95.410156" xlink:href="#DejaVuSans-54"/>
      </g>
     </g>
    </g>
    <g id="ytick_8">
     <g id="line2d_37">
      <path clip-path="url(#p0241dd1214)" d="M 76.5 176.904 
L 550.8 176.904 
" style="fill:none;stroke:#b0b0b0;stroke-linecap:square;stroke-width:0.8;"/>
     </g>
     <g id="line2d_38">
      <g>
       <use style="stroke:#000000;stroke-width:0.8;" x="76.5" xlink:href="#m1fab6410c1" y="176.904"/>
      </g>
     </g>
     <g id="text_20">
      <!-- 0.7 -->
      <g transform="translate(53.596875 180.703219)scale(0.1 -0.1)">
       <use xlink:href="#DejaVuSans-48"/>
       <use x="63.623047" xlink:href="#DejaVuSans-46"/>
       <use x="95.410156" xlink:href="#DejaVuSans-55"/>
      </g>
     </g>
    </g>
    <g id="ytick_9">
     <g id="line2d_39">
      <path clip-path="url(#p0241dd1214)" d="M 76.5 138.096 
L 550.8 138.096 
" style="fill:none;stroke:#b0b0b0;stroke-linecap:square;stroke-width:0.8;"/>
     </g>
     <g id="line2d_40">
      <g>
       <use style="stroke:#000000;stroke-width:0.8;" x="76.5" xlink:href="#m1fab6410c1" y="138.096"/>
      </g>
     </g>
     <g id="text_21">
      <!-- 0.8 -->
      <g transform="translate(53.596875 141.895219)scale(0.1 -0.1)">
       <use xlink:href="#DejaVuSans-48"/>
       <use x="63.623047" xlink:href="#DejaVuSans-46"/>
       <use x="95.410156" xlink:href="#DejaVuSans-56"/>
      </g>
     </g>
    </g>
    <g id="ytick_10">
     <g id="line2d_41">
      <path clip-path="url(#p0241dd1214)" d="M 76.5 99.288 
L 550.8 99.288 
" style="fill:none;stroke:#b0b0b0;stroke-linecap:square;stroke-width:0.8;"/>
     </g>
     <g id="line2d_42">
      <g>
       <use style="stroke:#000000;stroke-width:0.8;" x="76.5" xlink:href="#m1fab6410c1" y="99.288"/>
      </g>
     </g>
     <g id="text_22">
      <!-- 0.9 -->
      <g transform="translate(53.596875 103.087219)scale(0.1 -0.1)">
       <use xlink:href="#DejaVuSans-48"/>
       <use x="63.623047" xlink:href="#DejaVuSans-46"/>
       <use x="95.410156" xlink:href="#DejaVuSans-57"/>
      </g>
     </g>
    </g>
    <g id="ytick_11">
     <g id="line2d_43">
      <path clip-path="url(#p0241dd1214)" d="M 76.5 60.48 
L 550.8 60.48 
" style="fill:none;stroke:#b0b0b0;stroke-linecap:square;stroke-width:0.8;"/>
     </g>
     <g id="line2d_44">
      <g>
       <use style="stroke:#000000;stroke-width:0.8;" x="76.5" xlink:href="#m1fab6410c1" y="60.48"/>
      </g>
     </g>
     <g id="text_23">
      <!-- 1.0 -->
      <g transform="translate(53.596875 64.279219)scale(0.1 -0.1)">
       <use xlink:href="#DejaVuSans-49"/>
       <use x="63.623047" xlink:href="#DejaVuSans-46"/>
       <use x="95.410156" xlink:href="#DejaVuSans-48"/>
      </g>
     </g>
    </g>
    <g id="text_24">
     <!-- #correct/516 -->
     <defs>
      <path d="M 51.125 44 
L 36.921875 44 
L 32.8125 27.6875 
L 47.125 27.6875 
z
M 43.796875 71.78125 
L 38.71875 51.515625 
L 52.984375 51.515625 
L 58.109375 71.78125 
L 65.921875 71.78125 
L 60.890625 51.515625 
L 76.125 51.515625 
L 76.125 44 
L 58.984375 44 
L 54.984375 27.6875 
L 70.515625 27.6875 
L 70.515625 20.21875 
L 53.078125 20.21875 
L 48 0 
L 40.1875 0 
L 45.21875 20.21875 
L 30.90625 20.21875 
L 25.875 0 
L 18.015625 0 
L 23.09375 20.21875 
L 7.71875 20.21875 
L 7.71875 27.6875 
L 24.90625 27.6875 
L 29 44 
L 13.28125 44 
L 13.28125 51.515625 
L 30.90625 51.515625 
L 35.890625 71.78125 
z
" id="DejaVuSans-35"/>
      <path d="M 18.3125 70.21875 
L 18.3125 54.6875 
L 36.8125 54.6875 
L 36.8125 47.703125 
L 18.3125 47.703125 
L 18.3125 18.015625 
Q 18.3125 11.328125 20.140625 9.421875 
Q 21.96875 7.515625 27.59375 7.515625 
L 36.8125 7.515625 
L 36.8125 0 
L 27.59375 0 
Q 17.1875 0 13.234375 3.875 
Q 9.28125 7.765625 9.28125 18.015625 
L 9.28125 47.703125 
L 2.6875 47.703125 
L 2.6875 54.6875 
L 9.28125 54.6875 
L 9.28125 70.21875 
z
" id="DejaVuSans-116"/>
      <path d="M 25.390625 72.90625 
L 33.6875 72.90625 
L 8.296875 -9.28125 
L 0 -9.28125 
z
" id="DejaVuSans-47"/>
     </defs>
     <g transform="translate(47.517187 287.641094)rotate(-90)scale(0.1 -0.1)">
      <use xlink:href="#DejaVuSans-35"/>
      <use x="83.789062" xlink:href="#DejaVuSans-99"/>
      <use x="138.769531" xlink:href="#DejaVuSans-111"/>
      <use x="199.951172" xlink:href="#DejaVuSans-114"/>
      <use x="241.048828" xlink:href="#DejaVuSans-114"/>
      <use x="282.130859" xlink:href="#DejaVuSans-101"/>
      <use x="343.654297" xlink:href="#DejaVuSans-99"/>
      <use x="398.634766" xlink:href="#DejaVuSans-116"/>
      <use x="437.84375" xlink:href="#DejaVuSans-47"/>
      <use x="471.535156" xlink:href="#DejaVuSans-53"/>
      <use x="535.158203" xlink:href="#DejaVuSans-49"/>
      <use x="598.78125" xlink:href="#DejaVuSans-54"/>
     </g>
    </g>
   </g>
   <g id="line2d_45">
    <path clip-path="url(#p0241dd1214)" d="M 76.5 447.807907 
L 76.5 388.392558 
L 82.355556 388.392558 
L 81.6 379.367442 
L 80.891667 368.086047 
L 80.734821 365.077674 
L 84.89469 365.077674 
L 83.969291 354.548372 
L 83.475 347.779535 
L 86.886131 347.779535 
L 85.861184 336.49814 
L 85.229448 328.225116 
L 88.068293 328.225116 
L 87.218644 318.447907 
L 89.823034 318.447907 
L 89.318919 313.183256 
L 91.8 313.183256 
L 91.718182 312.431163 
L 94.160106 312.431163 
L 93.792188 309.422791 
L 96.160104 309.422791 
L 96.058763 308.670698 
L 100.69898 308.670698 
L 100.097015 304.910233 
L 102.328218 304.910233 
L 100.654167 294.38093 
L 99.183913 283.851628 
L 101.138961 283.851628 
L 100.51519 279.33907 
L 102.407143 279.33907 
L 100.775197 267.305581 
L 100.215 262.793023 
L 103.65458 262.793023 
L 102.752768 256.024186 
L 104.4 256.024186 
L 103.410638 248.503256 
L 104.991519 248.503256 
L 103.287708 234.965581 
L 102.936393 231.957209 
L 104.4 231.957209 
L 104.309121 231.205116 
L 107.199029 231.205116 
L 107.1 230.453023 
L 108.526688 230.453023 
L 108.019937 226.692558 
L 110.804717 226.692558 
L 110.590313 225.188372 
L 111.961682 225.188372 
L 111.204878 219.923721 
L 113.869091 219.923721 
L 113.756193 219.171628 
L 115.07259 219.171628 
L 114.276106 213.906977 
L 115.56 213.906977 
L 115.331579 212.402791 
L 117.863372 212.402791 
L 117.743478 211.650698 
L 118.995087 211.650698 
L 118.872622 210.898605 
L 120.113793 210.898605 
L 119.864571 209.394419 
L 122.313068 209.394419 
L 121.925915 207.13814 
L 123.130618 207.13814 
L 123 206.386047 
L 124.194972 206.386047 
L 124.062117 205.633953 
L 125.2475 205.633953 
L 124.844628 203.377674 
L 127.17863 203.377674 
L 126.091689 197.36093 
L 128.3568 197.36093 
L 128.081698 195.856744 
L 129.2 195.856744 
L 129.06095 195.104651 
L 130.170789 195.104651 
L 130.029921 194.352558 
L 131.131414 194.352558 
L 130.425581 190.592093 
L 131.509021 190.592093 
L 131.367609 189.84 
L 134.577551 189.84 
L 133.70201 185.327442 
L 134.747368 185.327442 
L 134.60175 184.575349 
L 135.639651 184.575349 
L 134.91133 180.814884 
L 137.961858 180.814884 
L 137.366586 177.806512 
L 138.365217 177.806512 
L 137.920144 175.550233 
L 139.890931 175.550233 
L 139.291489 172.54186 
L 140.262028 172.54186 
L 139.962676 171.037674 
L 140.924824 171.037674 
L 140.774299 170.285581 
L 141.73007 170.285581 
L 141.578372 169.533488 
L 143.472917 169.533488 
L 143.318245 168.781395 
L 144.257143 168.781395 
L 143.94633 167.277209 
L 145.80411 167.277209 
L 145.646241 166.525116 
L 146.567045 166.525116 
L 146.408163 165.773023 
L 148.23386 165.773023 
L 148.072297 165.02093 
L 148.977303 165.02093 
L 148.814798 164.268837 
L 149.714094 164.268837 
L 149.55067 163.516744 
L 153.101549 163.516744 
L 152.93245 162.764651 
L 154.681319 162.764651 
L 154.509868 162.012558 
L 156.240393 162.012558 
L 156.066667 161.260465 
L 157.779176 161.260465 
L 157.603247 160.508372 
L 160.978326 160.508372 
L 160.617308 159.004186 
L 161.449254 159.004186 
L 160.909322 156.747907 
L 162.55443 156.747907 
L 162.192857 155.243721 
L 163.007547 155.243721 
L 162.646347 153.739535 
L 169.804918 153.739535 
L 169.61411 152.987442 
L 171.938415 152.987442 
L 171.744828 152.235349 
L 173.276364 152.235349 
L 173.08125 151.483256 
L 174.598193 151.483256 
L 174.401603 150.731163 
L 175.1544 150.731163 
L 174.957485 149.97907 
L 176.451889 149.97907 
L 176.253571 149.226977 
L 176.995248 149.226977 
L 176.598817 147.722791 
L 179.527984 147.722791 
L 179.126316 146.218605 
L 181.287209 146.218605 
L 180.882625 144.714419 
L 181.595376 144.714419 
L 181.393269 143.962326 
L 182.102303 143.962326 
L 181.49771 141.706047 
L 182.901901 141.706047 
L 182.7 140.953953 
L 183.397159 140.953953 
L 183.195085 140.20186 
L 183.888679 140.20186 
L 183.686441 139.449767 
L 185.063977 139.449767 
L 184.658131 137.945581 
L 185.341231 137.945581 
L 184.735436 135.689302 
L 187.432044 135.689302 
L 187.228125 134.937209 
L 187.895229 134.937209 
L 187.487934 133.433023 
L 190.125408 133.433023 
L 189.919565 132.68093 
L 191.222383 132.68093 
L 191.015676 131.928837 
L 192.30754 131.928837 
L 192.1 131.176744 
L 192.741682 131.176744 
L 192.534107 130.424651 
L 193.809075 130.424651 
L 193.60071 129.672558 
L 194.865133 129.672558 
L 194.656007 128.920465 
L 195.910035 128.920465 
L 195.700176 128.168372 
L 198.179058 128.168372 
L 197.967073 127.416279 
L 200.408824 127.416279 
L 200.194819 126.664186 
L 202.600343 126.664186 
L 202.169231 125.16 
L 206.872513 125.16 
L 206.65303 124.407907 
L 212.910248 124.407907 
L 212.685149 123.655814 
L 213.242175 123.655814 
L 213.01727 122.903721 
L 214.675777 122.903721 
L 214.45 122.151628 
L 219.324638 122.151628 
L 219.095016 121.399535 
L 222.786486 121.399535 
L 222.554286 120.647442 
L 224.109953 120.647442 
L 223.877129 119.895349 
L 228.453033 119.895349 
L 228.217081 119.143256 
L 235.080547 119.143256 
L 234.839909 118.391163 
L 235.318636 118.391163 
L 235.078366 117.63907 
L 236.030769 117.63907 
L 235.790512 116.886977 
L 236.264211 116.886977 
L 236.024324 116.134884 
L 239.760534 116.134884 
L 239.277515 114.630698 
L 245.155298 114.630698 
L 244.91087 113.878605 
L 258.468283 113.878605 
L 258.216598 113.126512 
L 266.092328 113.126512 
L 265.8375 112.374419 
L 268.1172 112.374419 
L 267.862051 111.622326 
L 268.987798 111.622326 
L 268.732848 110.870233 
L 273.86801 110.870233 
L 273.611688 110.11814 
L 275.044186 110.11814 
L 274.788 109.366047 
L 275.852314 109.366047 
L 275.596406 108.613953 
L 278.739594 108.613953 
L 278.48327 107.86186 
L 287.170675 107.86186 
L 286.9125 107.109767 
L 290.736957 107.109767 
L 290.478528 106.357674 
L 317.999029 106.357674 
L 317.738793 105.605581 
L 322.414784 105.605581 
L 322.15538 104.853488 
L 362.644531 104.853488 
L 362.644531 104.853488 
" style="fill:none;stroke:#1f77b4;stroke-linecap:square;stroke-width:2;"/>
   </g>
   <g id="line2d_46">
    <path clip-path="url(#p0241dd1214)" d="M 76.5 447.807907 
L 76.5 371.846512 
L 81.104854 371.846512 
L 80.93271 368.83814 
L 85.283333 368.83814 
L 85.045946 366.58186 
L 89.204464 366.58186 
L 88.068293 358.308837 
L 87.616406 354.548372 
L 94.742308 354.548372 
L 93.319149 346.275349 
L 93.083916 344.771163 
L 96.2625 344.771163 
L 96.126207 344.01907 
L 102.312245 344.01907 
L 100.668153 336.49814 
L 99.636585 331.233488 
L 102.370909 331.233488 
L 100.753977 322.960465 
L 99.205851 313.935349 
L 97.632178 303.406047 
L 96.540845 295.133023 
L 100.766512 295.133023 
L 99.183913 283.851628 
L 101.138961 283.851628 
L 101.032759 283.099535 
L 102.96309 283.099535 
L 102.516456 280.091163 
L 104.4 280.091163 
L 103.938843 277.082791 
L 105.777778 277.082791 
L 105.420732 274.826512 
L 107.223887 274.826512 
L 105.464885 263.545116 
L 105.245455 262.04093 
L 108.595489 262.04093 
L 108.237546 259.784651 
L 109.876667 259.784651 
L 109.50989 257.528372 
L 111.120438 257.528372 
L 110.994545 256.776279 
L 112.588043 256.776279 
L 111.695406 251.511628 
L 113.241549 251.511628 
L 112.605882 247.751163 
L 114.116897 247.751163 
L 113.107047 241.734419 
L 114.570903 241.734419 
L 113.821967 237.22186 
L 116.66873 237.22186 
L 116.28 234.965581 
L 117.67717 234.965581 
L 117.283758 232.709302 
L 118.66 232.709302 
L 118.262264 230.453023 
L 119.618182 230.453023 
L 118.563303 224.436279 
L 119.881098 224.436279 
L 119.74924 223.684186 
L 121.055455 223.684186 
L 120.787048 222.18 
L 122.078378 222.18 
L 121.941916 221.427907 
L 124.494643 221.427907 
L 124.210651 219.923721 
L 125.469027 219.923721 
L 125.181818 218.419535 
L 126.426316 218.419535 
L 126.280758 217.667442 
L 127.514826 217.667442 
L 127.219942 216.163256 
L 128.440634 216.163256 
L 128.291379 215.411163 
L 129.502006 215.411163 
L 129.350571 214.65907 
L 130.551282 214.65907 
L 130.397727 213.906977 
L 131.588669 213.906977 
L 131.433051 213.154884 
L 137.273816 213.154884 
L 136.439011 209.394419 
L 137.574247 209.394419 
L 137.241417 207.890233 
L 141.70027 207.890233 
L 141.35067 206.386047 
L 142.445455 206.386047 
L 142.094681 204.88186 
L 144.257143 204.88186 
L 144.078364 204.129767 
L 145.148684 204.129767 
L 144.968504 203.377674 
L 147.087728 203.377674 
L 146.539119 201.121395 
L 147.583721 201.121395 
L 147.400515 200.369302 
L 148.437532 200.369302 
L 147.165909 195.104651 
L 149.194221 195.104651 
L 149.01203 194.352558 
L 150.0165 194.352558 
L 149.650746 192.848372 
L 150.646154 192.848372 
L 150.462624 192.096279 
L 153.413514 192.096279 
L 152.850732 189.84 
L 153.818978 189.84 
L 153.258696 187.583721 
L 157.062919 187.583721 
L 156.488836 185.327442 
L 161.116901 185.327442 
L 160.918735 184.575349 
L 161.829673 184.575349 
L 161.630769 183.823256 
L 162.535814 183.823256 
L 162.336195 183.071163 
L 163.235417 183.071163 
L 162.835714 181.566977 
L 164.615367 181.566977 
L 163.814318 178.558605 
L 165.565385 178.558605 
L 165.164189 177.054419 
L 169.458575 177.054419 
L 169.252 176.302326 
L 170.098004 176.302326 
L 169.890929 175.550233 
L 170.731788 175.550233 
L 170.317582 174.046047 
L 176.082468 174.046047 
L 175.867387 173.293953 
L 181.451489 173.293953 
L 181.228662 172.54186 
L 182.011653 172.54186 
L 181.788584 171.789767 
L 185.648536 171.789767 
L 185.420668 171.037674 
L 195.075 171.037674 
L 194.594939 169.533488 
L 195.314545 169.533488 
L 195.075 168.781395 
L 195.790744 168.781395 
L 195.551205 168.029302 
L 197.678443 168.029302 
L 197.437052 167.277209 
L 198.139563 167.277209 
L 197.657822 165.773023 
L 198.355731 165.773023 
L 198.115385 165.02093 
L 199.501179 165.02093 
L 199.26 164.268837 
L 202.67301 164.268837 
L 202.428488 163.516744 
L 205.771785 163.516744 
L 205.524138 162.764651 
L 206.184321 162.764651 
L 205.936832 162.012558 
L 207.248099 162.012558 
L 207 161.260465 
L 207.651136 161.260465 
L 207.156226 159.756279 
L 208.44812 159.756279 
L 207.953933 158.252093 
L 209.233209 158.252093 
L 208.739777 156.747907 
L 209.374397 156.747907 
L 209.128333 155.995814 
L 213.500731 155.995814 
L 213.25073 155.243721 
L 214.478182 155.243721 
L 214.227768 154.491628 
L 215.445027 154.491628 
L 215.194224 153.739535 
L 221.728142 153.739535 
L 221.471555 152.987442 
L 223.782632 152.987442 
L 223.524694 152.235349 
L 224.096853 152.235349 
L 223.839267 151.483256 
L 227.785345 151.483256 
L 227.524957 150.731163 
L 228.080412 150.731163 
L 227.561301 149.226977 
L 231.389848 149.226977 
L 231.128209 148.474884 
L 236.438372 148.474884 
L 235.645289 146.218605 
L 238.740098 146.218605 
L 238.475 145.466512 
L 238.984502 145.466512 
L 238.71987 144.714419 
L 249.515094 144.714419 
L 248.972727 143.210233 
L 254.088444 143.210233 
L 253.815231 142.45814 
L 256.531555 142.45814 
L 256.257534 141.706047 
L 258.482175 141.706047 
L 257.934036 140.20186 
L 259.687725 140.20186 
L 259.413901 139.449767 
L 261.575519 139.449767 
L 261.301333 138.697674 
L 261.729586 138.697674 
L 261.455982 137.945581 
L 263.997804 137.945581 
L 263.723684 137.193488 
L 265.806967 137.193488 
L 265.259045 135.689302 
L 276.76 135.689302 
L 276.482247 134.937209 
L 286.03012 134.937209 
L 285.75 134.185116 
L 289.591304 134.185116 
L 289.310921 133.433023 
L 292.371261 133.433023 
L 292.090909 132.68093 
L 306.37546 132.68093 
L 305.532396 130.424651 
L 312.523397 130.424651 
L 312.243416 129.672558 
L 319.380898 129.672558 
L 319.101724 128.920465 
L 319.367738 128.920465 
L 319.08922 128.168372 
L 321.975764 128.168372 
L 321.698077 127.416279 
L 324.513855 127.416279 
L 324.237054 126.664186 
L 328.211842 126.664186 
L 327.936145 125.912093 
L 333.644504 125.912093 
L 333.370362 125.16 
L 338.353125 125.16 
L 338.080645 124.407907 
L 354.804506 124.407907 
L 354.537931 123.655814 
L 357.134972 123.655814 
L 356.869972 122.903721 
L 360.464597 122.903721 
L 360.201667 122.151628 
L 372.114063 122.151628 
L 372.114063 122.151628 
" style="fill:none;stroke:#ff7f0e;stroke-linecap:square;stroke-width:2;"/>
   </g>
   <g id="line2d_47">
    <path clip-path="url(#p0241dd1214)" d="M 76.5 447.807907 
L 76.5 429.757674 
L 111.633333 429.757674 
L 109.210345 428.253488 
L 107.1 426.749302 
L 104.4 424.493023 
L 103.602857 423.74093 
L 116.025 423.74093 
L 114.956757 422.988837 
L 126.426316 422.988837 
L 125.146154 422.236744 
L 135.7875 422.236744 
L 134.341463 421.484651 
L 144.257143 421.484651 
L 139.74 419.228372 
L 138.365217 418.476279 
L 147.140426 418.476279 
L 142.902 416.22 
L 139.143396 413.963721 
L 135.7875 411.707442 
L 132.772881 409.451163 
L 139.74 409.451163 
L 138.703279 408.69907 
L 145.35 408.69907 
L 144.257143 407.946977 
L 150.609375 407.946977 
L 146.25 404.938605 
L 142.375 401.930233 
L 138.907895 398.92186 
L 135.7875 395.913488 
L 133.644578 393.657209 
L 143.46 393.657209 
L 140.450562 390.648837 
L 145.01 390.648837 
L 142.094681 387.640465 
L 141.404211 386.888372 
L 145.66875 386.888372 
L 142.244554 383.127907 
L 139.143396 379.367442 
L 142.990654 379.367442 
L 142.375 378.615349 
L 149.800909 378.615349 
L 146.613913 374.854884 
L 150.098276 374.854884 
L 149.469231 374.102791 
L 156.214286 374.102791 
L 153 370.342326 
L 149.469231 365.829767 
L 152.532824 365.829767 
L 150.28 362.821395 
L 161.805755 362.821395 
L 161.196429 362.069302 
L 163.959574 362.069302 
L 163.343662 361.317209 
L 166.053147 361.317209 
L 162.44698 356.804651 
L 161.874 356.052558 
L 166.991447 356.052558 
L 166.4 355.300465 
L 168.896104 355.300465 
L 168.3 354.548372 
L 170.751923 354.548372 
L 167.261111 350.035814 
L 164.019643 345.523256 
L 162.99 344.01907 
L 165.257895 344.01907 
L 162.736364 340.258605 
L 169.240223 340.258605 
L 166.232432 335.746047 
L 168.3 335.746047 
L 167.323404 334.24186 
L 171.36 334.24186 
L 167.98934 328.977209 
L 165.285222 324.464651 
L 170.899515 324.464651 
L 169.544498 322.208372 
L 171.36 322.208372 
L 170.023944 319.952093 
L 171.803271 319.952093 
L 171.36 319.2 
L 174.857143 319.2 
L 172.641892 315.439535 
L 174.337668 315.439535 
L 173.468 313.935349 
L 175.137611 313.935349 
L 173.845415 311.67907 
L 177.109091 311.67907 
L 174.977542 307.918605 
L 181.24125 307.918605 
L 180.806639 307.166512 
L 183.851852 307.166512 
L 182.97551 305.662326 
L 184.470732 305.662326 
L 184.033603 304.910233 
L 185.5125 304.910233 
L 183.358103 301.149767 
L 184.804724 301.149767 
L 183.540467 298.893488 
L 184.963953 298.893488 
L 181.70188 292.876744 
L 183.08427 292.876744 
L 181.51107 289.868372 
L 182.86875 289.868372 
L 181.708364 287.612093 
L 185.691367 287.612093 
L 185.3 286.86 
L 187.901423 286.86 
L 187.114134 285.355814 
L 188.394718 285.355814 
L 187.225087 283.099535 
L 188.4875 283.099535 
L 188.1 282.347442 
L 189.35069 282.347442 
L 187.437966 278.586977 
L 188.665541 278.586977 
L 188.287879 277.834884 
L 190.712709 277.834884 
L 189.578146 275.578605 
L 195.461238 275.578605 
L 194.691262 274.074419 
L 195.84 274.074419 
L 195.45627 273.322326 
L 196.595192 273.322326 
L 195.451429 271.066047 
L 198.803774 271.066047 
L 198.420376 270.313953 
L 202.784211 270.313953 
L 202.394444 269.56186 
L 204.531902 269.56186 
L 203.75122 268.057674 
L 204.806079 268.057674 
L 204.030816 266.553488 
L 206.113514 266.553488 
L 204.95625 264.297209 
L 205.982493 264.297209 
L 205.599408 263.545116 
L 206.617699 263.545116 
L 205.476316 261.288837 
L 208.47913 261.288837 
L 207.718444 259.784651 
L 209.684527 259.784651 
L 208.925641 258.280465 
L 209.896875 258.280465 
L 207.661173 253.767907 
L 209.5675 253.767907 
L 208.83232 252.263721 
L 209.77438 252.263721 
L 209.408242 251.511628 
L 210.343562 251.511628 
L 206.427926 243.238605 
L 206.083289 242.486512 
L 207.902375 242.486512 
L 207.556579 241.734419 
L 208.45748 241.734419 
L 208.112042 240.982326 
L 209.006789 240.982326 
L 207.637209 237.973953 
L 209.401542 237.973953 
L 208.721739 236.469767 
L 213.040909 236.469767 
L 212.696977 235.717674 
L 215.23275 235.717674 
L 214.542537 234.213488 
L 215.376923 234.213488 
L 215.033168 233.461395 
L 215.862222 233.461395 
L 214.8375 231.205116 
L 218.099272 231.205116 
L 217.415217 229.70093 
L 219.018029 229.70093 
L 218.676259 228.948837 
L 221.048571 228.948837 
L 219.684906 225.940465 
L 221.239437 225.940465 
L 220.900468 225.188372 
L 221.671262 225.188372 
L 220.327083 222.18 
L 224.108238 222.18 
L 223.771233 221.427907 
L 225.257727 221.427907 
L 223.917568 218.419535 
L 225.383408 218.419535 
L 224.388641 216.163256 
L 226.555088 216.163256 
L 226.223841 215.411163 
L 227.650549 215.411163 
L 227.319079 214.65907 
L 230.827549 214.65907 
L 229.5 211.650698 
L 231.559615 211.650698 
L 231.228998 210.898605 
L 235.265684 210.898605 
L 234.932143 210.146512 
L 236.253766 210.146512 
L 235.588125 208.642326 
L 236.243451 208.642326 
L 235.581988 207.13814 
L 236.233264 207.13814 
L 235.575926 205.633953 
L 236.223203 205.633953 
L 235.895902 204.88186 
L 237.181224 204.88186 
L 236.853971 204.129767 
L 240.644064 204.129767 
L 239.986172 202.625581 
L 240.6078 202.625581 
L 240.28024 201.873488 
L 241.514911 201.873488 
L 241.1875 201.121395 
L 243.019527 201.121395 
L 242.691732 200.369302 
L 243.9 200.369302 
L 242.921053 198.113023 
L 243.520039 198.113023 
L 243.195728 197.36093 
L 244.385687 197.36093 
L 243.738728 195.856744 
L 249.543289 195.856744 
L 248.891525 194.352558 
L 250.02439 194.352558 
L 249.699438 193.600465 
L 250.822948 193.600465 
L 250.498324 192.848372 
L 255.448352 192.848372 
L 254.470492 190.592093 
L 255.009273 190.592093 
L 254.3625 189.087907 
L 257.55 189.087907 
L 257.226118 188.335814 
L 260.343717 188.335814 
L 259.372711 186.079535 
L 262.920522 186.079535 
L 262.596875 185.327442 
L 263.594118 185.327442 
L 263.270984 184.575349 
L 264.260757 184.575349 
L 263.616638 183.071163 
L 265.08686 183.071163 
L 264.765588 182.31907 
L 266.701523 182.31907 
L 266.380236 181.566977 
L 266.859865 181.566977 
L 266.539394 180.814884 
L 267.017143 180.814884 
L 266.697483 180.062791 
L 270.923802 180.062791 
L 270.60297 179.310698 
L 275.151623 179.310698 
L 274.508738 177.806512 
L 275.843478 177.806512 
L 275.52299 177.054419 
L 276.405288 177.054419 
L 276.08544 176.302326 
L 280.836792 176.302326 
L 280.196238 174.79814 
L 281.041875 174.79814 
L 280.404673 173.293953 
L 285.366055 173.293953 
L 285.047176 172.54186 
L 285.452287 172.54186 
L 285.134247 171.789767 
L 285.940516 171.789767 
L 285.623182 171.037674 
L 287.616992 171.037674 
L 287.3 170.285581 
L 294.234211 170.285581 
L 293.91635 169.533488 
L 294.290816 169.533488 
L 293.973799 168.781395 
L 295.82948 168.781395 
L 295.512987 168.029302 
L 295.880836 168.029302 
L 294.936585 165.773023 
L 296.396576 165.773023 
L 296.083333 165.02093 
L 300.013043 165.02093 
L 299.387832 163.516744 
L 300.438301 163.516744 
L 300.126843 162.764651 
L 302.201379 162.764651 
L 301.890496 162.012558 
L 306.269147 162.012558 
L 305.958649 161.260465 
L 306.289069 161.260465 
L 305.97938 160.508372 
L 307.618072 160.508372 
L 307.309091 159.756279 
L 308.925896 159.756279 
L 308.617639 159.004186 
L 308.938411 159.004186 
L 308.630952 158.252093 
L 308.950859 158.252093 
L 308.644195 157.5 
L 311.173238 157.5 
L 310.867275 156.747907 
L 312.421244 156.747907 
L 312.116041 155.995814 
L 314.560948 155.995814 
L 314.256522 155.243721 
L 320.155362 155.243721 
L 319.85193 154.491628 
L 321.281064 154.491628 
L 320.978492 153.739535 
L 321.545253 153.739535 
L 321.243473 152.987442 
L 323.483049 152.987442 
L 323.182217 152.235349 
L 328.595244 152.235349 
L 328.295843 151.483256 
L 328.823104 151.483256 
L 328.524497 150.731163 
L 328.787234 150.731163 
L 328.489374 149.97907 
L 331.083431 149.97907 
L 330.786713 149.226977 
L 333.821379 149.226977 
L 333.525947 148.474884 
L 337.925197 148.474884 
L 337.631461 147.722791 
L 341.164641 147.722791 
L 340.872517 146.970698 
L 342.024698 146.970698 
L 341.733553 146.218605 
L 344.448701 146.218605 
L 344.159027 145.466512 
L 344.382181 145.466512 
L 344.093204 144.714419 
L 345.422508 144.714419 
L 345.134582 143.962326 
L 347.097455 143.962326 
L 346.810805 143.210233 
L 348.312303 143.210233 
L 348.026786 142.45814 
L 354.421465 142.45814 
L 354.139024 141.706047 
L 356.313166 141.706047 
L 356.032229 140.953953 
L 357.198503 140.953953 
L 356.918644 140.20186 
L 357.304478 140.20186 
L 356.746773 138.697674 
L 361.08 138.697674 
L 360.803977 137.945581 
L 362.629107 137.945581 
L 362.354511 137.193488 
L 363.433397 137.193488 
L 363.159867 136.441395 
L 373.311722 136.441395 
L 373.044324 135.689302 
L 376.344828 135.689302 
L 376.079947 134.937209 
L 379.113281 134.937209 
L 379.113281 134.937209 
" style="fill:none;stroke:#2ca02c;stroke-linecap:square;stroke-width:2;"/>
   </g>
   <g id="line2d_48">
    <path clip-path="url(#p0241dd1214)" d="M 76.5 447.807907 
L 76.5 433.51814 
L 99.085714 433.51814 
L 97.121739 432.013953 
L 95.472 430.509767 
L 94.066667 429.005581 
L 92.31 426.749302 
L 91.8 425.997209 
L 106.14375 425.997209 
L 103.602857 423.74093 
L 101.463158 421.484651 
L 99.636585 419.228372 
L 98.059091 416.972093 
L 96.2625 413.963721 
L 95.859184 413.211628 
L 104.958 413.211628 
L 102.85 410.203256 
L 102.370909 409.451163 
L 110.378571 409.451163 
L 108.12 406.442791 
L 106.14375 403.434419 
L 104.4 400.426047 
L 103.221127 398.169767 
L 109.4375 398.169767 
L 108.12 395.913488 
L 113.944737 395.913488 
L 111.633333 392.153023 
L 109.590698 388.392558 
L 109.210345 387.640465 
L 114.228409 387.640465 
L 113.804494 386.888372 
L 118.66 386.888372 
L 116.441053 383.127907 
L 114.827273 380.119535 
L 119.187 380.119535 
L 118.35 378.615349 
L 122.548544 378.615349 
L 120.013761 374.102791 
L 123.93 374.102791 
L 123.083036 372.598605 
L 126.868142 372.598605 
L 124.328571 368.086047 
L 127.8825 368.086047 
L 125.435714 363.573488 
L 123.93 360.565116 
L 127.18855 360.565116 
L 124.968613 356.052558 
L 128.054348 356.052558 
L 125.565517 350.787907 
L 123.305921 345.523256 
L 122.698052 344.01907 
L 128.186538 344.01907 
L 126.272222 339.506512 
L 131.44939 339.506512 
L 128.893605 333.489767 
L 128.291379 331.985581 
L 130.705714 331.985581 
L 130.397727 331.233488 
L 132.772881 331.233488 
L 130.339459 325.216744 
L 129.480319 322.960465 
L 131.709524 322.960465 
L 130.565285 319.952093 
L 132.731443 319.952093 
L 130.238424 313.183256 
L 129.714146 311.67907 
L 131.758252 311.67907 
L 130.448815 307.918605 
L 134.395775 307.918605 
L 133.06789 304.15814 
L 134.975342 304.15814 
L 134.185135 301.90186 
L 136.053363 301.90186 
L 134.24087 296.637209 
L 136.044156 296.637209 
L 133.337603 288.364186 
L 132.187045 284.603721 
L 133.875 284.603721 
L 132.741107 280.843256 
L 134.387008 280.843256 
L 133.711284 278.586977 
L 138.523846 278.586977 
L 138.050382 277.082791 
L 139.619772 277.082791 
L 139.143396 275.578605 
L 140.690977 275.578605 
L 139.275 271.066047 
L 140.782418 271.066047 
L 139.854152 268.057674 
L 141.332374 268.057674 
L 139.74 262.793023 
L 141.177273 262.793023 
L 139.632082 257.528372 
L 141.030612 257.528372 
L 140.594595 256.024186 
L 143.347651 256.024186 
L 143.12408 255.272093 
L 144.483 255.272093 
L 144.257143 254.52 
L 145.603311 254.52 
L 145.375248 253.767907 
L 146.708882 253.767907 
L 144.908654 247.751163 
L 146.205431 247.751163 
L 145.762857 246.246977 
L 148.318297 246.246977 
L 148.092453 245.494884 
L 149.354859 245.494884 
L 148.009846 240.982326 
L 149.245399 240.982326 
L 148.363636 237.973953 
L 149.579456 237.973953 
L 148.706866 234.965581 
L 149.903571 234.965581 
L 149.253982 232.709302 
L 151.609091 232.709302 
L 151.389474 231.957209 
L 152.553936 231.957209 
L 151.461207 228.196744 
L 152.605444 228.196744 
L 151.319155 223.684186 
L 153.557143 223.684186 
L 153.341899 222.932093 
L 155.55 222.932093 
L 155.331025 222.18 
L 156.423481 222.18 
L 156.203306 221.427907 
L 157.287363 221.427907 
L 156.845902 219.923721 
L 158.986957 219.923721 
L 158.763415 219.171628 
L 160.876819 219.171628 
L 160.2 216.915349 
L 161.2416 216.915349 
L 160.792042 215.411163 
L 161.82381 215.411163 
L 161.598681 214.65907 
L 162.622895 214.65907 
L 162.39685 213.906977 
L 163.413613 213.906977 
L 162.960938 212.402791 
L 163.968312 212.402791 
L 163.74171 211.650698 
L 164.74186 211.650698 
L 164.514433 210.898605 
L 165.507455 210.898605 
L 165.052174 209.394419 
L 166.036224 209.394419 
L 165.808397 208.642326 
L 166.785533 208.642326 
L 165.878141 205.633953 
L 166.842857 205.633953 
L 166.617 204.88186 
L 167.575062 204.88186 
L 167.348507 204.129767 
L 168.3 204.129767 
L 166.732683 198.865116 
L 167.667153 198.865116 
L 167.445874 198.113023 
L 170.217108 198.113023 
L 169.991827 197.36093 
L 170.905036 197.36093 
L 170.230714 195.104651 
L 171.134679 195.104651 
L 170.687234 193.600465 
L 171.583726 193.600465 
L 170.695093 190.592093 
L 171.581119 190.592093 
L 170.702771 187.583721 
L 173.318119 187.583721 
L 172.437955 184.575349 
L 174.15 184.575349 
L 173.929571 183.823256 
L 174.778378 183.823256 
L 174.337668 182.31907 
L 176.853007 182.31907 
L 175.52967 177.806512 
L 177.171991 177.806512 
L 176.515435 175.550233 
L 177.327332 175.550233 
L 176.891793 174.046047 
L 177.697629 174.046047 
L 177.48 173.293953 
L 178.281116 173.293953 
L 176.987288 168.781395 
L 177.77759 168.781395 
L 177.563924 168.029302 
L 178.349684 168.029302 
L 177.922642 166.525116 
L 178.70272 166.525116 
L 178.276875 165.02093 
L 183.631417 165.02093 
L 182.327586 160.508372 
L 184.55625 160.508372 
L 184.122289 159.004186 
L 186.317964 159.004186 
L 186.099203 158.252093 
L 187.546429 158.252093 
L 187.326535 157.5 
L 189.473031 157.5 
L 189.03 155.995814 
L 189.737965 155.995814 
L 189.516797 155.243721 
L 190.922568 155.243721 
L 190.700388 154.491628 
L 194.162885 154.491628 
L 193.712069 152.987442 
L 195.075 152.987442 
L 194.849143 152.235349 
L 200.191745 152.235349 
L 199.729346 150.731163 
L 201.036872 150.731163 
L 200.80539 149.97907 
L 202.746211 149.97907 
L 202.281215 148.474884 
L 204.196154 148.474884 
L 203.962706 147.722791 
L 204.59562 147.722791 
L 204.362295 146.970698 
L 205.619782 146.970698 
L 205.152803 145.466512 
L 211.894149 145.466512 
L 211.654513 144.714419 
L 212.850794 144.714419 
L 212.610739 143.962326 
L 218.461765 143.962326 
L 218.21658 143.210233 
L 220.498456 143.210233 
L 220.251884 142.45814 
L 223.057895 142.45814 
L 222.809492 141.706047 
L 226.111409 141.706047 
L 225.860804 140.953953 
L 236.393679 140.953953 
L 235.87706 139.449767 
L 241.866086 139.449767 
L 241.60443 138.697674 
L 242.092891 138.697674 
L 241.831703 137.945581 
L 244.249296 137.945581 
L 243.987188 137.193488 
L 252.83308 137.193488 
L 252.565909 136.441395 
L 253.915385 136.441395 
L 253.648193 135.689302 
L 254.095038 135.689302 
L 253.828378 134.937209 
L 258.653619 134.937209 
L 258.384956 134.185116 
L 260.1 134.185116 
L 259.295912 131.928837 
L 259.720845 131.928837 
L 259.454148 131.176744 
L 261.559249 131.176744 
L 261.292208 130.424651 
L 264.187286 130.424651 
L 263.386344 128.168372 
L 265.012447 128.168372 
L 264.746186 127.416279 
L 268.730223 127.416279 
L 268.462865 126.664186 
L 270.799448 126.664186 
L 270.531818 125.912093 
L 272.448837 125.912093 
L 272.181148 125.16 
L 273.318367 125.16 
L 273.050951 124.407907 
L 275.667699 124.407907 
L 275.4 123.655814 
L 277.6032 123.655814 
L 277.335419 122.903721 
L 287.502692 122.903721 
L 287.232522 122.151628 
L 289.904943 122.151628 
L 289.63481 121.399535 
L 295.452847 121.399535 
L 295.1822 120.647442 
L 295.812577 120.647442 
L 295.273063 119.143256 
L 296.524113 119.143256 
L 296.255134 118.391163 
L 310.641176 118.391163 
L 310.371429 117.63907 
L 318.403563 117.63907 
L 318.134483 116.886977 
L 318.650943 116.886977 
L 318.382483 116.134884 
L 321.68459 116.134884 
L 321.416921 115.382791 
L 323.648757 115.382791 
L 323.381857 114.630698 
L 325.088103 114.630698 
L 324.821949 113.878605 
L 336.739655 113.878605 
L 336.475988 113.126512 
L 336.909403 113.126512 
L 336.646364 112.374419 
L 341.301877 112.374419 
L 341.040474 111.622326 
L 354.053333 111.622326 
L 353.796577 110.870233 
L 365.938281 110.870233 
L 365.938281 110.870233 
" style="fill:none;stroke:#d62728;stroke-linecap:square;stroke-width:2;"/>
   </g>
   <g id="line2d_49">
    <path clip-path="url(#p0241dd1214)" d="M 76.5 447.807907 
L 76.5 321.456279 
L 79.29 321.456279 
L 78.780288 292.876744 
L 78.571179 277.082791 
L 80.624348 277.082791 
L 80.502532 271.81814 
L 82.478571 271.81814 
L 81.972692 255.272093 
L 85.551527 255.272093 
L 85.51711 254.52 
L 87.279545 254.52 
L 87.118657 251.511628 
L 88.842379 251.511628 
L 88.573091 246.99907 
L 90.247826 246.99907 
L 90.148921 245.494884 
L 91.8 245.494884 
L 91.745357 244.742791 
L 93.379004 244.742791 
L 93.259717 243.238605 
L 94.870775 243.238605 
L 94.306485 236.469767 
L 97.401356 236.469767 
L 96.782566 229.70093 
L 98.271148 229.70093 
L 97.647134 222.932093 
L 99.085714 222.932093 
L 98.872642 220.675814 
L 100.289342 220.675814 
L 100.215 219.923721 
L 101.618692 219.923721 
L 101.386111 217.667442 
L 102.768923 217.667442 
L 102.688344 216.915349 
L 104.058716 216.915349 
L 103.974695 216.163256 
L 106.682727 216.163256 
L 105.538776 206.386047 
L 106.83314 206.386047 
L 106.657803 204.88186 
L 109.210345 204.88186 
L 108.565352 199.617209 
L 109.807584 199.617209 
L 109.714286 198.865116 
L 110.946369 198.865116 
L 110.755 197.36093 
L 111.973961 197.36093 
L 110.378571 184.575349 
L 111.540633 184.575349 
L 111.448421 183.823256 
L 112.601575 183.823256 
L 111.859126 177.806512 
L 112.984615 177.806512 
L 112.706107 175.550233 
L 116.025 175.550233 
L 115.925441 174.79814 
L 117.01809 174.79814 
L 116.614925 171.789767 
L 119.831111 171.789767 
L 119.5125 169.533488 
L 124.733898 169.533488 
L 124.617391 168.781395 
L 126.666346 168.781395 
L 126.426316 167.277209 
L 129.450356 167.277209 
L 128.952 164.268837 
L 129.942254 164.268837 
L 129.445116 161.260465 
L 131.395833 161.260465 
L 130.643836 156.747907 
L 131.600911 156.747907 
L 130.980405 152.987442 
L 131.92382 152.987442 
L 131.308 149.226977 
L 133.164159 149.226977 
L 132.544201 145.466512 
L 133.457424 145.466512 
L 132.964286 142.45814 
L 133.866739 142.45814 
L 133.62 140.953953 
L 134.515236 140.953953 
L 134.391006 140.20186 
L 136.166738 140.20186 
L 135.662156 137.193488 
L 136.537975 137.193488 
L 136.285714 135.689302 
L 138.881837 135.689302 
L 138.751875 134.937209 
L 140.461618 134.937209 
L 140.329193 134.185116 
L 141.177273 134.185116 
L 140.77885 131.928837 
L 142.455828 131.928837 
L 142.187169 130.424651 
L 143.844828 130.424651 
L 143.572727 128.920465 
L 146.025904 128.920465 
L 145.609581 126.664186 
L 147.220676 126.664186 
L 146.801383 124.407907 
L 147.598225 124.407907 
L 147.041683 121.399535 
L 151.727466 121.399535 
L 151.149904 118.391163 
L 152.678203 118.391163 
L 152.532824 117.63907 
L 154.047148 117.63907 
L 153.9 116.886977 
L 154.651705 116.886977 
L 154.50397 116.134884 
L 156.738722 116.134884 
L 156.288785 113.878605 
L 161.383948 113.878605 
L 161.227624 113.126512 
L 162.657248 113.126512 
L 162.499451 112.374419 
L 163.209324 112.374419 
L 162.736364 110.11814 
L 163.440653 110.11814 
L 163.283152 109.366047 
L 166.071043 109.366047 
L 165.910233 108.613953 
L 167.287299 108.613953 
L 167.125179 107.86186 
L 175.174301 107.86186 
L 175.002094 107.109767 
L 181.448027 107.109767 
L 181.089231 105.605581 
L 181.720137 105.605581 
L 181.540886 104.853488 
L 182.168878 104.853488 
L 181.989474 104.101395 
L 184.477234 104.101395 
L 184.295455 103.349302 
L 185.525336 103.349302 
L 185.342714 102.597209 
L 186.562938 102.597209 
L 186.3795 101.845116 
L 186.985857 101.845116 
L 186.802326 101.093023 
L 187.40597 101.093023 
L 187.222351 100.34093 
L 190.798525 100.34093 
L 190.611457 99.588837 
L 194.1141 99.588837 
L 193.923786 98.836744 
L 195.647826 98.836744 
L 195.265329 97.332558 
L 203.079278 97.332558 
L 202.880878 96.580465 
L 205.048598 96.580465 
L 204.848678 95.828372 
L 205.921395 95.828372 
L 205.721053 95.076279 
L 213.551891 95.076279 
L 212.932681 92.82 
L 220.8825 92.82 
L 220.670485 92.067907 
L 222.118421 92.067907 
L 221.905839 91.315814 
L 222.863319 91.315814 
L 222.650581 90.563721 
L 225.955683 90.563721 
L 225.740948 89.811628 
L 242.149113 89.811628 
L 241.923433 89.059535 
L 248.5128 89.059535 
L 248.283755 88.307442 
L 255.748442 88.307442 
L 255.515953 87.555349 
L 271.8 87.555349 
L 271.560955 86.803256 
L 281.451358 86.803256 
L 281.20967 86.051163 
L 309.901581 86.051163 
L 309.655895 85.29907 
L 351.939844 85.29907 
L 351.939844 85.29907 
" style="fill:none;stroke:#9467bd;stroke-linecap:square;stroke-width:2;"/>
   </g>
   <g id="line2d_50">
    <path clip-path="url(#p0241dd1214)" d="M 76.5 447.807907 
L 76.5 375.606977 
L 81.339796 375.606977 
L 80.660526 363.573488 
L 80.039552 348.531628 
L 79.683221 337.250233 
L 82.824 337.250233 
L 82.503797 331.233488 
L 85.449057 331.233488 
L 85.020359 325.216744 
L 87.792857 325.216744 
L 87.341143 319.952093 
L 92.577966 319.952093 
L 92.136264 316.191628 
L 94.642623 316.191628 
L 93.268182 304.910233 
L 92.462019 297.389302 
L 94.655024 297.389302 
L 94.398113 295.133023 
L 96.540845 295.133023 
L 96.2625 292.876744 
L 98.357143 292.876744 
L 98.157534 291.372558 
L 100.215 291.372558 
L 99.791518 288.364186 
L 101.796 288.364186 
L 101.463158 286.107907 
L 103.425328 286.107907 
L 102.298745 278.586977 
L 107.858678 278.586977 
L 106.14375 268.057674 
L 107.87393 268.057674 
L 107.752326 267.305581 
L 109.462934 267.305581 
L 108.961597 264.297209 
L 110.635227 264.297209 
L 110.000743 260.536744 
L 113.253875 260.536744 
L 112.984615 259.032558 
L 114.582482 259.032558 
L 113.241549 251.511628 
L 114.776842 251.511628 
L 113.731741 245.494884 
L 115.218367 245.494884 
L 114.956757 243.990698 
L 116.424242 243.990698 
L 115.377049 237.973953 
L 116.8 237.973953 
L 116.66873 237.22186 
L 118.078247 237.22186 
L 117.943689 236.469767 
L 119.34 236.469767 
L 119.202251 235.717674 
L 121.960064 235.717674 
L 121.671429 234.213488 
L 123.02943 234.213488 
L 122.736792 232.709302 
L 126.737383 232.709302 
L 125.966871 228.948837 
L 128.557317 228.948837 
L 127.775676 225.188372 
L 129.042216 225.188372 
L 128.885373 224.436279 
L 131.389318 224.436279 
L 130.905 222.18 
L 132.136364 222.18 
L 131.973684 221.427907 
L 133.194752 221.427907 
L 133.029942 220.675814 
L 134.24087 220.675814 
L 134.073988 219.923721 
L 135.274928 219.923721 
L 134.938109 218.419535 
L 136.126286 218.419535 
L 135.121348 213.906977 
L 136.285714 213.906977 
L 135.7875 211.650698 
L 136.937119 211.650698 
L 136.274795 208.642326 
L 137.407377 208.642326 
L 137.241417 207.890233 
L 138.365217 207.890233 
L 138.197561 207.13814 
L 139.312703 207.13814 
L 138.807507 204.88186 
L 142.094681 204.88186 
L 141.064398 200.369302 
L 143.198438 200.369302 
L 142.85285 198.865116 
L 144.95567 198.865116 
L 143.572727 192.848372 
L 144.598489 192.848372 
L 144.427387 192.096279 
L 146.45925 192.096279 
L 145.595556 188.335814 
L 146.593596 188.335814 
L 146.25 186.831628 
L 147.23912 186.831628 
L 147.066585 186.079535 
L 149.026456 186.079535 
L 148.156835 182.31907 
L 152.927488 182.31907 
L 151.68042 177.054419 
L 152.608605 177.054419 
L 152.25625 175.550233 
L 155.004828 175.550233 
L 154.467123 173.293953 
L 157.163265 173.293953 
L 156.980769 172.54186 
L 157.869752 172.54186 
L 157.504045 171.037674 
L 159.263758 171.037674 
L 159.079018 170.285581 
L 159.951448 170.285581 
L 159.581375 168.781395 
L 160.446903 168.781395 
L 160.261589 168.029302 
L 161.978242 168.029302 
L 161.790789 167.277209 
L 163.48952 167.277209 
L 163.3 166.525116 
L 165.816234 166.525116 
L 165.43125 165.02093 
L 167.085193 165.02093 
L 166.505757 162.764651 
L 170.559494 162.764651 
L 169.967925 160.508372 
L 170.764644 160.508372 
L 170.176715 158.252093 
L 170.96639 158.252093 
L 170.770807 157.5 
L 172.337938 157.5 
L 172.140741 156.747907 
L 172.918275 156.747907 
L 172.327959 154.491628 
L 174.631034 154.491628 
L 174.432389 153.739535 
L 175.192727 153.739535 
L 174.795573 152.235349 
L 180.752079 152.235349 
L 180.546047 151.483256 
L 183.45 151.483256 
L 182.617704 148.474884 
L 185.460811 148.474884 
L 185.250867 147.722791 
L 185.953846 147.722791 
L 185.743762 146.970698 
L 187.833779 146.970698 
L 187.410456 145.466512 
L 192.854494 145.466512 
L 192.637009 144.714419 
L 195.294991 144.714419 
L 195.075 143.962326 
L 201.542727 143.962326 
L 201.315789 143.210233 
L 214.146503 143.210233 
L 213.428348 140.953953 
L 217.486082 140.953953 
L 217.244254 140.20186 
L 225.066332 140.20186 
L 224.817893 139.449767 
L 228.056126 139.449767 
L 227.80562 138.697674 
L 232.020881 138.697674 
L 231.76759 137.945581 
L 232.803409 137.945581 
L 232.550081 137.193488 
L 233.065049 137.193488 
L 232.812116 136.441395 
L 237.867568 136.441395 
L 237.611429 135.689302 
L 238.602532 135.689302 
L 238.346445 134.937209 
L 243.205754 134.937209 
L 242.946894 134.185116 
L 246.257143 134.185116 
L 245.996779 133.433023 
L 246.463553 133.433023 
L 246.20367 132.68093 
L 248.972727 132.68093 
L 248.451662 131.176744 
L 252.507004 131.176744 
L 252.245089 130.424651 
L 257.911095 130.424651 
L 257.646647 129.672558 
L 258.073362 129.672558 
L 257.809448 128.920465 
L 260.760432 128.920465 
L 260.49569 128.168372 
L 263.794602 128.168372 
L 263.528936 127.416279 
L 265.149647 127.416279 
L 264.883944 126.664186 
L 266.086957 126.664186 
L 265.821429 125.912093 
L 271.301786 125.912093 
L 270.768082 124.407907 
L 274.552297 124.407907 
L 274.28502 123.655814 
L 277.238451 123.655814 
L 276.9708 122.903721 
L 277.335419 122.903721 
L 277.068351 122.151628 
L 278.876354 122.151628 
L 278.609367 121.399535 
L 281.452089 121.399535 
L 281.184876 120.647442 
L 286.017926 120.647442 
L 285.75 119.895349 
L 294.912222 119.895349 
L 294.374261 118.391163 
L 298.414909 118.391163 
L 298.146247 117.63907 
L 303.241281 117.63907 
L 302.97263 116.886977 
L 307.583372 116.886977 
L 307.314983 116.134884 
L 314.983802 116.134884 
L 314.715843 115.382791 
L 323.402922 115.382791 
L 323.136 114.630698 
L 339.788778 114.630698 
L 339.525225 113.878605 
L 353.912407 113.878605 
L 353.653868 113.126512 
L 360.568165 113.126512 
L 360.312938 112.374419 
L 360.654619 112.374419 
L 360.4 111.622326 
L 366.35 111.622326 
L 366.35 111.622326 
" style="fill:none;stroke:#8c564b;stroke-linecap:square;stroke-width:2;"/>
   </g>
   <g id="patch_3">
    <path d="M 76.5 448.56 
L 76.5 60.48 
" style="fill:none;stroke:#000000;stroke-linecap:square;stroke-linejoin:miter;stroke-width:0.8;"/>
   </g>
   <g id="patch_4">
    <path d="M 550.8 448.56 
L 550.8 60.48 
" style="fill:none;stroke:#000000;stroke-linecap:square;stroke-linejoin:miter;stroke-width:0.8;"/>
   </g>
   <g id="patch_5">
    <path d="M 76.5 448.56 
L 550.8 448.56 
" style="fill:none;stroke:#000000;stroke-linecap:square;stroke-linejoin:miter;stroke-width:0.8;"/>
   </g>
   <g id="patch_6">
    <path d="M 76.5 60.48 
L 550.8 60.48 
" style="fill:none;stroke:#000000;stroke-linecap:square;stroke-linejoin:miter;stroke-width:0.8;"/>
   </g>
   <g id="text_25">
    <!-- leuven: img1-img6 -->
    <defs>
     <path d="M 9.421875 75.984375 
L 18.40625 75.984375 
L 18.40625 0 
L 9.421875 0 
z
" id="DejaVuSans-108"/>
     <path d="M 8.5 21.578125 
L 8.5 54.6875 
L 17.484375 54.6875 
L 17.484375 21.921875 
Q 17.484375 14.15625 20.5 10.265625 
Q 23.53125 6.390625 29.59375 6.390625 
Q 36.859375 6.390625 41.078125 11.03125 
Q 45.3125 15.671875 45.3125 23.6875 
L 45.3125 54.6875 
L 54.296875 54.6875 
L 54.296875 0 
L 45.3125 0 
L 45.3125 8.40625 
Q 42.046875 3.421875 37.71875 1 
Q 33.40625 -1.421875 27.6875 -1.421875 
Q 18.265625 -1.421875 13.375 4.4375 
Q 8.5 10.296875 8.5 21.578125 
z
M 31.109375 56 
z
" id="DejaVuSans-117"/>
     <path d="M 2.984375 54.6875 
L 12.5 54.6875 
L 29.59375 8.796875 
L 46.6875 54.6875 
L 56.203125 54.6875 
L 35.6875 0 
L 23.484375 0 
z
" id="DejaVuSans-118"/>
     <path d="M 11.71875 12.40625 
L 22.015625 12.40625 
L 22.015625 0 
L 11.71875 0 
z
M 11.71875 51.703125 
L 22.015625 51.703125 
L 22.015625 39.3125 
L 11.71875 39.3125 
z
" id="DejaVuSans-58"/>
     <path id="DejaVuSans-32"/>
     <path d="M 52 44.1875 
Q 55.375 50.25 60.0625 53.125 
Q 64.75 56 71.09375 56 
Q 79.640625 56 84.28125 50.015625 
Q 88.921875 44.046875 88.921875 33.015625 
L 88.921875 0 
L 79.890625 0 
L 79.890625 32.71875 
Q 79.890625 40.578125 77.09375 44.375 
Q 74.3125 48.1875 68.609375 48.1875 
Q 61.625 48.1875 57.5625 43.546875 
Q 53.515625 38.921875 53.515625 30.90625 
L 53.515625 0 
L 44.484375 0 
L 44.484375 32.71875 
Q 44.484375 40.625 41.703125 44.40625 
Q 38.921875 48.1875 33.109375 48.1875 
Q 26.21875 48.1875 22.15625 43.53125 
Q 18.109375 38.875 18.109375 30.90625 
L 18.109375 0 
L 9.078125 0 
L 9.078125 54.6875 
L 18.109375 54.6875 
L 18.109375 46.1875 
Q 21.1875 51.21875 25.484375 53.609375 
Q 29.78125 56 35.6875 56 
Q 41.65625 56 45.828125 52.96875 
Q 50 49.953125 52 44.1875 
z
" id="DejaVuSans-109"/>
     <path d="M 45.40625 27.984375 
Q 45.40625 37.75 41.375 43.109375 
Q 37.359375 48.484375 30.078125 48.484375 
Q 22.859375 48.484375 18.828125 43.109375 
Q 14.796875 37.75 14.796875 27.984375 
Q 14.796875 18.265625 18.828125 12.890625 
Q 22.859375 7.515625 30.078125 7.515625 
Q 37.359375 7.515625 41.375 12.890625 
Q 45.40625 18.265625 45.40625 27.984375 
z
M 54.390625 6.78125 
Q 54.390625 -7.171875 48.1875 -13.984375 
Q 42 -20.796875 29.203125 -20.796875 
Q 24.46875 -20.796875 20.265625 -20.09375 
Q 16.0625 -19.390625 12.109375 -17.921875 
L 12.109375 -9.1875 
Q 16.0625 -11.328125 19.921875 -12.34375 
Q 23.78125 -13.375 27.78125 -13.375 
Q 36.625 -13.375 41.015625 -8.765625 
Q 45.40625 -4.15625 45.40625 5.171875 
L 45.40625 9.625 
Q 42.625 4.78125 38.28125 2.390625 
Q 33.9375 0 27.875 0 
Q 17.828125 0 11.671875 7.65625 
Q 5.515625 15.328125 5.515625 27.984375 
Q 5.515625 40.671875 11.671875 48.328125 
Q 17.828125 56 27.875 56 
Q 33.9375 56 38.28125 53.609375 
Q 42.625 51.21875 45.40625 46.390625 
L 45.40625 54.6875 
L 54.390625 54.6875 
z
" id="DejaVuSans-103"/>
    </defs>
    <g transform="translate(257.074688 41.042625)scale(0.12 -0.12)">
     <use xlink:href="#DejaVuSans-108"/>
     <use x="27.783203" xlink:href="#DejaVuSans-101"/>
     <use x="89.306641" xlink:href="#DejaVuSans-117"/>
     <use x="152.685547" xlink:href="#DejaVuSans-118"/>
     <use x="211.865234" xlink:href="#DejaVuSans-101"/>
     <use x="273.388672" xlink:href="#DejaVuSans-110"/>
     <use x="336.767578" xlink:href="#DejaVuSans-58"/>
     <use x="370.458984" xlink:href="#DejaVuSans-32"/>
     <use x="402.246094" xlink:href="#DejaVuSans-105"/>
     <use x="430.029297" xlink:href="#DejaVuSans-109"/>
     <use x="527.441406" xlink:href="#DejaVuSans-103"/>
     <use x="590.917969" xlink:href="#DejaVuSans-49"/>
     <use x="654.541016" xlink:href="#DejaVuSans-45"/>
     <use x="690.625" xlink:href="#DejaVuSans-105"/>
     <use x="718.408203" xlink:href="#DejaVuSans-109"/>
     <use x="815.820312" xlink:href="#DejaVuSans-103"/>
     <use x="879.296875" xlink:href="#DejaVuSans-54"/>
    </g>
    <!-- NearestNeighbours -->
    <defs>
     <path d="M 9.8125 72.90625 
L 23.09375 72.90625 
L 55.421875 11.921875 
L 55.421875 72.90625 
L 64.984375 72.90625 
L 64.984375 0 
L 51.703125 0 
L 19.390625 60.984375 
L 19.390625 0 
L 9.8125 0 
z
" id="DejaVuSans-78"/>
     <path d="M 34.28125 27.484375 
Q 23.390625 27.484375 19.1875 25 
Q 14.984375 22.515625 14.984375 16.5 
Q 14.984375 11.71875 18.140625 8.90625 
Q 21.296875 6.109375 26.703125 6.109375 
Q 34.1875 6.109375 38.703125 11.40625 
Q 43.21875 16.703125 43.21875 25.484375 
L 43.21875 27.484375 
z
M 52.203125 31.203125 
L 52.203125 0 
L 43.21875 0 
L 43.21875 8.296875 
Q 40.140625 3.328125 35.546875 0.953125 
Q 30.953125 -1.421875 24.3125 -1.421875 
Q 15.921875 -1.421875 10.953125 3.296875 
Q 6 8.015625 6 15.921875 
Q 6 25.140625 12.171875 29.828125 
Q 18.359375 34.515625 30.609375 34.515625 
L 43.21875 34.515625 
L 43.21875 35.40625 
Q 43.21875 41.609375 39.140625 45 
Q 35.0625 48.390625 27.6875 48.390625 
Q 23 48.390625 18.546875 47.265625 
Q 14.109375 46.140625 10.015625 43.890625 
L 10.015625 52.203125 
Q 14.9375 54.109375 19.578125 55.046875 
Q 24.21875 56 28.609375 56 
Q 40.484375 56 46.34375 49.84375 
Q 52.203125 43.703125 52.203125 31.203125 
z
" id="DejaVuSans-97"/>
     <path d="M 54.890625 33.015625 
L 54.890625 0 
L 45.90625 0 
L 45.90625 32.71875 
Q 45.90625 40.484375 42.875 44.328125 
Q 39.84375 48.1875 33.796875 48.1875 
Q 26.515625 48.1875 22.3125 43.546875 
Q 18.109375 38.921875 18.109375 30.90625 
L 18.109375 0 
L 9.078125 0 
L 9.078125 75.984375 
L 18.109375 75.984375 
L 18.109375 46.1875 
Q 21.34375 51.125 25.703125 53.5625 
Q 30.078125 56 35.796875 56 
Q 45.21875 56 50.046875 50.171875 
Q 54.890625 44.34375 54.890625 33.015625 
z
" id="DejaVuSans-104"/>
     <path d="M 48.6875 27.296875 
Q 48.6875 37.203125 44.609375 42.84375 
Q 40.53125 48.484375 33.40625 48.484375 
Q 26.265625 48.484375 22.1875 42.84375 
Q 18.109375 37.203125 18.109375 27.296875 
Q 18.109375 17.390625 22.1875 11.75 
Q 26.265625 6.109375 33.40625 6.109375 
Q 40.53125 6.109375 44.609375 11.75 
Q 48.6875 17.390625 48.6875 27.296875 
z
M 18.109375 46.390625 
Q 20.953125 51.265625 25.265625 53.625 
Q 29.59375 56 35.59375 56 
Q 45.5625 56 51.78125 48.09375 
Q 58.015625 40.1875 58.015625 27.296875 
Q 58.015625 14.40625 51.78125 6.484375 
Q 45.5625 -1.421875 35.59375 -1.421875 
Q 29.59375 -1.421875 25.265625 0.953125 
Q 20.953125 3.328125 18.109375 8.203125 
L 18.109375 0 
L 9.078125 0 
L 9.078125 75.984375 
L 18.109375 75.984375 
z
" id="DejaVuSans-98"/>
    </defs>
    <g transform="translate(255.824063 54.48)scale(0.12 -0.12)">
     <use xlink:href="#DejaVuSans-78"/>
     <use x="74.804688" xlink:href="#DejaVuSans-101"/>
     <use x="136.328125" xlink:href="#DejaVuSans-97"/>
     <use x="197.607422" xlink:href="#DejaVuSans-114"/>
     <use x="238.689453" xlink:href="#DejaVuSans-101"/>
     <use x="300.212891" xlink:href="#DejaVuSans-115"/>
     <use x="352.3125" xlink:href="#DejaVuSans-116"/>
     <use x="391.521484" xlink:href="#DejaVuSans-78"/>
     <use x="466.326172" xlink:href="#DejaVuSans-101"/>
     <use x="527.849609" xlink:href="#DejaVuSans-105"/>
     <use x="555.632812" xlink:href="#DejaVuSans-103"/>
     <use x="619.109375" xlink:href="#DejaVuSans-104"/>
     <use x="682.488281" xlink:href="#DejaVuSans-98"/>
     <use x="745.964844" xlink:href="#DejaVuSans-111"/>
     <use x="807.146484" xlink:href="#DejaVuSans-117"/>
     <use x="870.525391" xlink:href="#DejaVuSans-114"/>
     <use x="911.638672" xlink:href="#DejaVuSans-115"/>
    </g>
   </g>
   <g id="legend_1">
    <g id="patch_7">
     <path d="M 362.264063 443.56 
L 543.8 443.56 
Q 545.8 443.56 545.8 441.56 
L 545.8 354.49125 
Q 545.8 352.49125 543.8 352.49125 
L 362.264063 352.49125 
Q 360.264063 352.49125 360.264063 354.49125 
L 360.264063 441.56 
Q 360.264063 443.56 362.264063 443.56 
z
" style="fill:#ffffff;opacity:0.8;stroke:#cccccc;stroke-linejoin:miter;"/>
    </g>
    <g id="line2d_51">
     <path d="M 364.264063 360.589688 
L 384.264063 360.589688 
" style="fill:none;stroke:#1f77b4;stroke-linecap:square;stroke-width:2;"/>
    </g>
    <g id="line2d_52"/>
    <g id="text_26">
     <!-- root-cvsift AP: 81.0, %In: 39.7 -->
     <defs>
      <path d="M 37.109375 75.984375 
L 37.109375 68.5 
L 28.515625 68.5 
Q 23.6875 68.5 21.796875 66.546875 
Q 19.921875 64.59375 19.921875 59.515625 
L 19.921875 54.6875 
L 34.71875 54.6875 
L 34.71875 47.703125 
L 19.921875 47.703125 
L 19.921875 0 
L 10.890625 0 
L 10.890625 47.703125 
L 2.296875 47.703125 
L 2.296875 54.6875 
L 10.890625 54.6875 
L 10.890625 58.5 
Q 10.890625 67.625 15.140625 71.796875 
Q 19.390625 75.984375 28.609375 75.984375 
z
" id="DejaVuSans-102"/>
      <path d="M 34.1875 63.1875 
L 20.796875 26.90625 
L 47.609375 26.90625 
z
M 28.609375 72.90625 
L 39.796875 72.90625 
L 67.578125 0 
L 57.328125 0 
L 50.6875 18.703125 
L 17.828125 18.703125 
L 11.1875 0 
L 0.78125 0 
z
" id="DejaVuSans-65"/>
      <path d="M 19.671875 64.796875 
L 19.671875 37.40625 
L 32.078125 37.40625 
Q 38.96875 37.40625 42.71875 40.96875 
Q 46.484375 44.53125 46.484375 51.125 
Q 46.484375 57.671875 42.71875 61.234375 
Q 38.96875 64.796875 32.078125 64.796875 
z
M 9.8125 72.90625 
L 32.078125 72.90625 
Q 44.34375 72.90625 50.609375 67.359375 
Q 56.890625 61.8125 56.890625 51.125 
Q 56.890625 40.328125 50.609375 34.8125 
Q 44.34375 29.296875 32.078125 29.296875 
L 19.671875 29.296875 
L 19.671875 0 
L 9.8125 0 
z
" id="DejaVuSans-80"/>
      <path d="M 11.71875 12.40625 
L 22.015625 12.40625 
L 22.015625 4 
L 14.015625 -11.625 
L 7.71875 -11.625 
L 11.71875 4 
z
" id="DejaVuSans-44"/>
      <path d="M 72.703125 32.078125 
Q 68.453125 32.078125 66.03125 28.46875 
Q 63.625 24.859375 63.625 18.40625 
Q 63.625 12.0625 66.03125 8.421875 
Q 68.453125 4.78125 72.703125 4.78125 
Q 76.859375 4.78125 79.265625 8.421875 
Q 81.6875 12.0625 81.6875 18.40625 
Q 81.6875 24.8125 79.265625 28.4375 
Q 76.859375 32.078125 72.703125 32.078125 
z
M 72.703125 38.28125 
Q 80.421875 38.28125 84.953125 32.90625 
Q 89.5 27.546875 89.5 18.40625 
Q 89.5 9.28125 84.9375 3.921875 
Q 80.375 -1.421875 72.703125 -1.421875 
Q 64.890625 -1.421875 60.34375 3.921875 
Q 55.8125 9.28125 55.8125 18.40625 
Q 55.8125 27.59375 60.375 32.9375 
Q 64.9375 38.28125 72.703125 38.28125 
z
M 22.3125 68.015625 
Q 18.109375 68.015625 15.6875 64.375 
Q 13.28125 60.75 13.28125 54.390625 
Q 13.28125 47.953125 15.671875 44.328125 
Q 18.0625 40.71875 22.3125 40.71875 
Q 26.5625 40.71875 28.96875 44.328125 
Q 31.390625 47.953125 31.390625 54.390625 
Q 31.390625 60.6875 28.953125 64.34375 
Q 26.515625 68.015625 22.3125 68.015625 
z
M 66.40625 74.21875 
L 74.21875 74.21875 
L 28.609375 -1.421875 
L 20.796875 -1.421875 
z
M 22.3125 74.21875 
Q 30.03125 74.21875 34.609375 68.875 
Q 39.203125 63.53125 39.203125 54.390625 
Q 39.203125 45.171875 34.640625 39.84375 
Q 30.078125 34.515625 22.3125 34.515625 
Q 14.546875 34.515625 10.03125 39.859375 
Q 5.515625 45.21875 5.515625 54.390625 
Q 5.515625 63.484375 10.046875 68.84375 
Q 14.59375 74.21875 22.3125 74.21875 
z
" id="DejaVuSans-37"/>
      <path d="M 9.8125 72.90625 
L 19.671875 72.90625 
L 19.671875 0 
L 9.8125 0 
z
" id="DejaVuSans-73"/>
     </defs>
     <g transform="translate(392.264063 364.089688)scale(0.1 -0.1)">
      <use xlink:href="#DejaVuSans-114"/>
      <use x="41.082031" xlink:href="#DejaVuSans-111"/>
      <use x="102.263672" xlink:href="#DejaVuSans-111"/>
      <use x="163.445312" xlink:href="#DejaVuSans-116"/>
      <use x="202.654297" xlink:href="#DejaVuSans-45"/>
      <use x="238.738281" xlink:href="#DejaVuSans-99"/>
      <use x="293.71875" xlink:href="#DejaVuSans-118"/>
      <use x="352.898438" xlink:href="#DejaVuSans-115"/>
      <use x="404.998047" xlink:href="#DejaVuSans-105"/>
      <use x="432.78125" xlink:href="#DejaVuSans-102"/>
      <use x="467.970703" xlink:href="#DejaVuSans-116"/>
      <use x="507.179688" xlink:href="#DejaVuSans-32"/>
      <use x="538.966797" xlink:href="#DejaVuSans-65"/>
      <use x="607.375" xlink:href="#DejaVuSans-80"/>
      <use x="667.677734" xlink:href="#DejaVuSans-58"/>
      <use x="701.369141" xlink:href="#DejaVuSans-32"/>
      <use x="733.15625" xlink:href="#DejaVuSans-56"/>
      <use x="796.779297" xlink:href="#DejaVuSans-49"/>
      <use x="860.402344" xlink:href="#DejaVuSans-46"/>
      <use x="892.189453" xlink:href="#DejaVuSans-48"/>
      <use x="955.8125" xlink:href="#DejaVuSans-44"/>
      <use x="987.599609" xlink:href="#DejaVuSans-32"/>
      <use x="1019.386719" xlink:href="#DejaVuSans-37"/>
      <use x="1114.40625" xlink:href="#DejaVuSans-73"/>
      <use x="1143.898438" xlink:href="#DejaVuSans-110"/>
      <use x="1207.277344" xlink:href="#DejaVuSans-58"/>
      <use x="1240.96875" xlink:href="#DejaVuSans-32"/>
      <use x="1272.755859" xlink:href="#DejaVuSans-51"/>
      <use x="1336.378906" xlink:href="#DejaVuSans-57"/>
      <use x="1400.001953" xlink:href="#DejaVuSans-46"/>
      <use x="1431.789062" xlink:href="#DejaVuSans-55"/>
     </g>
    </g>
    <g id="line2d_53">
     <path d="M 364.264063 375.267812 
L 384.264063 375.267812 
" style="fill:none;stroke:#ff7f0e;stroke-linecap:square;stroke-width:2;"/>
    </g>
    <g id="line2d_54"/>
    <g id="text_27">
     <!-- orb AP: 75.1, %In: 37.7 -->
     <g transform="translate(392.264063 378.767812)scale(0.1 -0.1)">
      <use xlink:href="#DejaVuSans-111"/>
      <use x="61.181641" xlink:href="#DejaVuSans-114"/>
      <use x="102.294922" xlink:href="#DejaVuSans-98"/>
      <use x="165.771484" xlink:href="#DejaVuSans-32"/>
      <use x="197.558594" xlink:href="#DejaVuSans-65"/>
      <use x="265.966797" xlink:href="#DejaVuSans-80"/>
      <use x="326.269531" xlink:href="#DejaVuSans-58"/>
      <use x="359.960938" xlink:href="#DejaVuSans-32"/>
      <use x="391.748047" xlink:href="#DejaVuSans-55"/>
      <use x="455.371094" xlink:href="#DejaVuSans-53"/>
      <use x="518.994141" xlink:href="#DejaVuSans-46"/>
      <use x="550.78125" xlink:href="#DejaVuSans-49"/>
      <use x="614.404297" xlink:href="#DejaVuSans-44"/>
      <use x="646.191406" xlink:href="#DejaVuSans-32"/>
      <use x="677.978516" xlink:href="#DejaVuSans-37"/>
      <use x="772.998047" xlink:href="#DejaVuSans-73"/>
      <use x="802.490234" xlink:href="#DejaVuSans-110"/>
      <use x="865.869141" xlink:href="#DejaVuSans-58"/>
      <use x="899.560547" xlink:href="#DejaVuSans-32"/>
      <use x="931.347656" xlink:href="#DejaVuSans-51"/>
      <use x="994.970703" xlink:href="#DejaVuSans-55"/>
      <use x="1058.59375" xlink:href="#DejaVuSans-46"/>
      <use x="1090.380859" xlink:href="#DejaVuSans-55"/>
     </g>
    </g>
    <g id="line2d_55">
     <path d="M 364.264063 389.945938 
L 384.264063 389.945938 
" style="fill:none;stroke:#2ca02c;stroke-linecap:square;stroke-width:2;"/>
    </g>
    <g id="line2d_56"/>
    <g id="text_28">
     <!-- binboost AP: 60.1, %In: 36.2 -->
     <g transform="translate(392.264063 393.445938)scale(0.1 -0.1)">
      <use xlink:href="#DejaVuSans-98"/>
      <use x="63.476562" xlink:href="#DejaVuSans-105"/>
      <use x="91.259766" xlink:href="#DejaVuSans-110"/>
      <use x="154.638672" xlink:href="#DejaVuSans-98"/>
      <use x="218.115234" xlink:href="#DejaVuSans-111"/>
      <use x="279.296875" xlink:href="#DejaVuSans-111"/>
      <use x="340.478516" xlink:href="#DejaVuSans-115"/>
      <use x="392.578125" xlink:href="#DejaVuSans-116"/>
      <use x="431.787109" xlink:href="#DejaVuSans-32"/>
      <use x="463.574219" xlink:href="#DejaVuSans-65"/>
      <use x="531.982422" xlink:href="#DejaVuSans-80"/>
      <use x="592.285156" xlink:href="#DejaVuSans-58"/>
      <use x="625.976562" xlink:href="#DejaVuSans-32"/>
      <use x="657.763672" xlink:href="#DejaVuSans-54"/>
      <use x="721.386719" xlink:href="#DejaVuSans-48"/>
      <use x="785.009766" xlink:href="#DejaVuSans-46"/>
      <use x="816.796875" xlink:href="#DejaVuSans-49"/>
      <use x="880.419922" xlink:href="#DejaVuSans-44"/>
      <use x="912.207031" xlink:href="#DejaVuSans-32"/>
      <use x="943.994141" xlink:href="#DejaVuSans-37"/>
      <use x="1039.013672" xlink:href="#DejaVuSans-73"/>
      <use x="1068.505859" xlink:href="#DejaVuSans-110"/>
      <use x="1131.884766" xlink:href="#DejaVuSans-58"/>
      <use x="1165.576172" xlink:href="#DejaVuSans-32"/>
      <use x="1197.363281" xlink:href="#DejaVuSans-51"/>
      <use x="1260.986328" xlink:href="#DejaVuSans-54"/>
      <use x="1324.609375" xlink:href="#DejaVuSans-46"/>
      <use x="1356.396484" xlink:href="#DejaVuSans-50"/>
     </g>
    </g>
    <g id="line2d_57">
     <path d="M 364.264063 404.624063 
L 384.264063 404.624063 
" style="fill:none;stroke:#d62728;stroke-linecap:square;stroke-width:2;"/>
    </g>
    <g id="line2d_58"/>
    <g id="text_29">
     <!-- tfeat AP: 73.1, %In: 39.0 -->
     <g transform="translate(392.264063 408.124063)scale(0.1 -0.1)">
      <use xlink:href="#DejaVuSans-116"/>
      <use x="39.208984" xlink:href="#DejaVuSans-102"/>
      <use x="74.414062" xlink:href="#DejaVuSans-101"/>
      <use x="135.9375" xlink:href="#DejaVuSans-97"/>
      <use x="197.216797" xlink:href="#DejaVuSans-116"/>
      <use x="236.425781" xlink:href="#DejaVuSans-32"/>
      <use x="268.212891" xlink:href="#DejaVuSans-65"/>
      <use x="336.621094" xlink:href="#DejaVuSans-80"/>
      <use x="396.923828" xlink:href="#DejaVuSans-58"/>
      <use x="430.615234" xlink:href="#DejaVuSans-32"/>
      <use x="462.402344" xlink:href="#DejaVuSans-55"/>
      <use x="526.025391" xlink:href="#DejaVuSans-51"/>
      <use x="589.648438" xlink:href="#DejaVuSans-46"/>
      <use x="621.435547" xlink:href="#DejaVuSans-49"/>
      <use x="685.058594" xlink:href="#DejaVuSans-44"/>
      <use x="716.845703" xlink:href="#DejaVuSans-32"/>
      <use x="748.632812" xlink:href="#DejaVuSans-37"/>
      <use x="843.652344" xlink:href="#DejaVuSans-73"/>
      <use x="873.144531" xlink:href="#DejaVuSans-110"/>
      <use x="936.523438" xlink:href="#DejaVuSans-58"/>
      <use x="970.214844" xlink:href="#DejaVuSans-32"/>
      <use x="1002.001953" xlink:href="#DejaVuSans-51"/>
      <use x="1065.625" xlink:href="#DejaVuSans-57"/>
      <use x="1129.248047" xlink:href="#DejaVuSans-46"/>
      <use x="1161.035156" xlink:href="#DejaVuSans-48"/>
     </g>
    </g>
    <g id="line2d_59">
     <path d="M 364.264063 419.302188 
L 384.264063 419.302188 
" style="fill:none;stroke:#9467bd;stroke-linecap:square;stroke-width:2;"/>
    </g>
    <g id="line2d_60"/>
    <g id="text_30">
     <!-- hardnet AP: 88.2, %In: 41.9 -->
     <defs>
      <path d="M 45.40625 46.390625 
L 45.40625 75.984375 
L 54.390625 75.984375 
L 54.390625 0 
L 45.40625 0 
L 45.40625 8.203125 
Q 42.578125 3.328125 38.25 0.953125 
Q 33.9375 -1.421875 27.875 -1.421875 
Q 17.96875 -1.421875 11.734375 6.484375 
Q 5.515625 14.40625 5.515625 27.296875 
Q 5.515625 40.1875 11.734375 48.09375 
Q 17.96875 56 27.875 56 
Q 33.9375 56 38.25 53.625 
Q 42.578125 51.265625 45.40625 46.390625 
z
M 14.796875 27.296875 
Q 14.796875 17.390625 18.875 11.75 
Q 22.953125 6.109375 30.078125 6.109375 
Q 37.203125 6.109375 41.296875 11.75 
Q 45.40625 17.390625 45.40625 27.296875 
Q 45.40625 37.203125 41.296875 42.84375 
Q 37.203125 48.484375 30.078125 48.484375 
Q 22.953125 48.484375 18.875 42.84375 
Q 14.796875 37.203125 14.796875 27.296875 
z
" id="DejaVuSans-100"/>
     </defs>
     <g transform="translate(392.264063 422.802188)scale(0.1 -0.1)">
      <use xlink:href="#DejaVuSans-104"/>
      <use x="63.378906" xlink:href="#DejaVuSans-97"/>
      <use x="124.658203" xlink:href="#DejaVuSans-114"/>
      <use x="165.755859" xlink:href="#DejaVuSans-100"/>
      <use x="229.232422" xlink:href="#DejaVuSans-110"/>
      <use x="292.611328" xlink:href="#DejaVuSans-101"/>
      <use x="354.134766" xlink:href="#DejaVuSans-116"/>
      <use x="393.34375" xlink:href="#DejaVuSans-32"/>
      <use x="425.130859" xlink:href="#DejaVuSans-65"/>
      <use x="493.539062" xlink:href="#DejaVuSans-80"/>
      <use x="553.841797" xlink:href="#DejaVuSans-58"/>
      <use x="587.533203" xlink:href="#DejaVuSans-32"/>
      <use x="619.320312" xlink:href="#DejaVuSans-56"/>
      <use x="682.943359" xlink:href="#DejaVuSans-56"/>
      <use x="746.566406" xlink:href="#DejaVuSans-46"/>
      <use x="778.353516" xlink:href="#DejaVuSans-50"/>
      <use x="841.976562" xlink:href="#DejaVuSans-44"/>
      <use x="873.763672" xlink:href="#DejaVuSans-32"/>
      <use x="905.550781" xlink:href="#DejaVuSans-37"/>
      <use x="1000.570312" xlink:href="#DejaVuSans-73"/>
      <use x="1030.0625" xlink:href="#DejaVuSans-110"/>
      <use x="1093.441406" xlink:href="#DejaVuSans-58"/>
      <use x="1127.132812" xlink:href="#DejaVuSans-32"/>
      <use x="1158.919922" xlink:href="#DejaVuSans-52"/>
      <use x="1222.542969" xlink:href="#DejaVuSans-49"/>
      <use x="1286.166016" xlink:href="#DejaVuSans-46"/>
      <use x="1317.953125" xlink:href="#DejaVuSans-57"/>
     </g>
    </g>
    <g id="line2d_61">
     <path d="M 364.264063 433.980313 
L 384.264063 433.980313 
" style="fill:none;stroke:#8c564b;stroke-linecap:square;stroke-width:2;"/>
    </g>
    <g id="line2d_62"/>
    <g id="text_31">
     <!-- beblid AP: 78.2, %In: 38.9 -->
     <g transform="translate(392.264063 437.480313)scale(0.1 -0.1)">
      <use xlink:href="#DejaVuSans-98"/>
      <use x="63.476562" xlink:href="#DejaVuSans-101"/>
      <use x="125" xlink:href="#DejaVuSans-98"/>
      <use x="188.476562" xlink:href="#DejaVuSans-108"/>
      <use x="216.259766" xlink:href="#DejaVuSans-105"/>
      <use x="244.042969" xlink:href="#DejaVuSans-100"/>
      <use x="307.519531" xlink:href="#DejaVuSans-32"/>
      <use x="339.306641" xlink:href="#DejaVuSans-65"/>
      <use x="407.714844" xlink:href="#DejaVuSans-80"/>
      <use x="468.017578" xlink:href="#DejaVuSans-58"/>
      <use x="501.708984" xlink:href="#DejaVuSans-32"/>
      <use x="533.496094" xlink:href="#DejaVuSans-55"/>
      <use x="597.119141" xlink:href="#DejaVuSans-56"/>
      <use x="660.742188" xlink:href="#DejaVuSans-46"/>
      <use x="692.529297" xlink:href="#DejaVuSans-50"/>
      <use x="756.152344" xlink:href="#DejaVuSans-44"/>
      <use x="787.939453" xlink:href="#DejaVuSans-32"/>
      <use x="819.726562" xlink:href="#DejaVuSans-37"/>
      <use x="914.746094" xlink:href="#DejaVuSans-73"/>
      <use x="944.238281" xlink:href="#DejaVuSans-110"/>
      <use x="1007.617188" xlink:href="#DejaVuSans-58"/>
      <use x="1041.308594" xlink:href="#DejaVuSans-32"/>
      <use x="1073.095703" xlink:href="#DejaVuSans-51"/>
      <use x="1136.71875" xlink:href="#DejaVuSans-56"/>
      <use x="1200.341797" xlink:href="#DejaVuSans-46"/>
      <use x="1232.128906" xlink:href="#DejaVuSans-57"/>
     </g>
    </g>
   </g>
  </g>
 </g>
 <defs>
  <clipPath id="p0241dd1214">
   <rect height="388.08" width="474.3" x="76.5" y="60.48"/>
  </clipPath>
 </defs>
</svg>
