<?xml version="1.0" encoding="utf-8" standalone="no"?>
<!DOCTYPE svg PUBLIC "-//W3C//DTD SVG 1.1//EN"
  "http://www.w3.org/Graphics/SVG/1.1/DTD/svg11.dtd">
<!-- Created with matplotlib (https://matplotlib.org/) -->
<svg height="504pt" version="1.1" viewBox="0 0 612 504" width="612pt" xmlns="http://www.w3.org/2000/svg" xmlns:xlink="http://www.w3.org/1999/xlink">
 <defs>
  <style type="text/css">
*{stroke-linecap:butt;stroke-linejoin:round;}
  </style>
 </defs>
 <g id="figure_1">
  <g id="patch_1">
   <path d="M 0 504 
L 612 504 
L 612 0 
L 0 0 
z
" style="fill:#ffffff;"/>
  </g>
  <g id="axes_1">
   <g id="patch_2">
    <path d="M 76.5 448.56 
L 550.8 448.56 
L 550.8 60.48 
L 76.5 60.48 
z
" style="fill:#ffffff;"/>
   </g>
   <g id="matplotlib.axis_1">
    <g id="xtick_1">
     <g id="line2d_1">
      <path clip-path="url(#pbbda2bde82)" d="M 76.5 448.56 
L 76.5 60.48 
" style="fill:none;stroke:#b0b0b0;stroke-linecap:square;stroke-width:0.8;"/>
     </g>
     <g id="line2d_2">
      <defs>
       <path d="M 0 0 
L 0 3.5 
" id="m6a2613d5c1" style="stroke:#000000;stroke-width:0.8;"/>
      </defs>
      <g>
       <use style="stroke:#000000;stroke-width:0.8;" x="76.5" xlink:href="#m6a2613d5c1" y="448.56"/>
      </g>
     </g>
     <g id="text_1">
      <!-- 0.0 -->
      <defs>
       <path d="M 31.78125 66.40625 
Q 24.171875 66.40625 20.328125 58.90625 
Q 16.5 51.421875 16.5 36.375 
Q 16.5 21.390625 20.328125 13.890625 
Q 24.171875 6.390625 31.78125 6.390625 
Q 39.453125 6.390625 43.28125 13.890625 
Q 47.125 21.390625 47.125 36.375 
Q 47.125 51.421875 43.28125 58.90625 
Q 39.453125 66.40625 31.78125 66.40625 
z
M 31.78125 74.21875 
Q 44.046875 74.21875 50.515625 64.515625 
Q 56.984375 54.828125 56.984375 36.375 
Q 56.984375 17.96875 50.515625 8.265625 
Q 44.046875 -1.421875 31.78125 -1.421875 
Q 19.53125 -1.421875 13.0625 8.265625 
Q 6.59375 17.96875 6.59375 36.375 
Q 6.59375 54.828125 13.0625 64.515625 
Q 19.53125 74.21875 31.78125 74.21875 
z
" id="DejaVuSans-48"/>
       <path d="M 10.6875 12.40625 
L 21 12.40625 
L 21 0 
L 10.6875 0 
z
" id="DejaVuSans-46"/>
      </defs>
      <g transform="translate(68.548438 463.158437)scale(0.1 -0.1)">
       <use xlink:href="#DejaVuSans-48"/>
       <use x="63.623047" xlink:href="#DejaVuSans-46"/>
       <use x="95.410156" xlink:href="#DejaVuSans-48"/>
      </g>
     </g>
    </g>
    <g id="xtick_2">
     <g id="line2d_3">
      <path clip-path="url(#pbbda2bde82)" d="M 123.93 448.56 
L 123.93 60.48 
" style="fill:none;stroke:#b0b0b0;stroke-linecap:square;stroke-width:0.8;"/>
     </g>
     <g id="line2d_4">
      <g>
       <use style="stroke:#000000;stroke-width:0.8;" x="123.93" xlink:href="#m6a2613d5c1" y="448.56"/>
      </g>
     </g>
     <g id="text_2">
      <!-- 0.1 -->
      <defs>
       <path d="M 12.40625 8.296875 
L 28.515625 8.296875 
L 28.515625 63.921875 
L 10.984375 60.40625 
L 10.984375 69.390625 
L 28.421875 72.90625 
L 38.28125 72.90625 
L 38.28125 8.296875 
L 54.390625 8.296875 
L 54.390625 0 
L 12.40625 0 
z
" id="DejaVuSans-49"/>
      </defs>
      <g transform="translate(115.978438 463.158437)scale(0.1 -0.1)">
       <use xlink:href="#DejaVuSans-48"/>
       <use x="63.623047" xlink:href="#DejaVuSans-46"/>
       <use x="95.410156" xlink:href="#DejaVuSans-49"/>
      </g>
     </g>
    </g>
    <g id="xtick_3">
     <g id="line2d_5">
      <path clip-path="url(#pbbda2bde82)" d="M 171.36 448.56 
L 171.36 60.48 
" style="fill:none;stroke:#b0b0b0;stroke-linecap:square;stroke-width:0.8;"/>
     </g>
     <g id="line2d_6">
      <g>
       <use style="stroke:#000000;stroke-width:0.8;" x="171.36" xlink:href="#m6a2613d5c1" y="448.56"/>
      </g>
     </g>
     <g id="text_3">
      <!-- 0.2 -->
      <defs>
       <path d="M 19.1875 8.296875 
L 53.609375 8.296875 
L 53.609375 0 
L 7.328125 0 
L 7.328125 8.296875 
Q 12.9375 14.109375 22.625 23.890625 
Q 32.328125 33.6875 34.8125 36.53125 
Q 39.546875 41.84375 41.421875 45.53125 
Q 43.3125 49.21875 43.3125 52.78125 
Q 43.3125 58.59375 39.234375 62.25 
Q 35.15625 65.921875 28.609375 65.921875 
Q 23.96875 65.921875 18.8125 64.3125 
Q 13.671875 62.703125 7.8125 59.421875 
L 7.8125 69.390625 
Q 13.765625 71.78125 18.9375 73 
Q 24.125 74.21875 28.421875 74.21875 
Q 39.75 74.21875 46.484375 68.546875 
Q 53.21875 62.890625 53.21875 53.421875 
Q 53.21875 48.921875 51.53125 44.890625 
Q 49.859375 40.875 45.40625 35.40625 
Q 44.1875 33.984375 37.640625 27.21875 
Q 31.109375 20.453125 19.1875 8.296875 
z
" id="DejaVuSans-50"/>
      </defs>
      <g transform="translate(163.408438 463.158437)scale(0.1 -0.1)">
       <use xlink:href="#DejaVuSans-48"/>
       <use x="63.623047" xlink:href="#DejaVuSans-46"/>
       <use x="95.410156" xlink:href="#DejaVuSans-50"/>
      </g>
     </g>
    </g>
    <g id="xtick_4">
     <g id="line2d_7">
      <path clip-path="url(#pbbda2bde82)" d="M 218.79 448.56 
L 218.79 60.48 
" style="fill:none;stroke:#b0b0b0;stroke-linecap:square;stroke-width:0.8;"/>
     </g>
     <g id="line2d_8">
      <g>
       <use style="stroke:#000000;stroke-width:0.8;" x="218.79" xlink:href="#m6a2613d5c1" y="448.56"/>
      </g>
     </g>
     <g id="text_4">
      <!-- 0.3 -->
      <defs>
       <path d="M 40.578125 39.3125 
Q 47.65625 37.796875 51.625 33 
Q 55.609375 28.21875 55.609375 21.1875 
Q 55.609375 10.40625 48.1875 4.484375 
Q 40.765625 -1.421875 27.09375 -1.421875 
Q 22.515625 -1.421875 17.65625 -0.515625 
Q 12.796875 0.390625 7.625 2.203125 
L 7.625 11.71875 
Q 11.71875 9.328125 16.59375 8.109375 
Q 21.484375 6.890625 26.8125 6.890625 
Q 36.078125 6.890625 40.9375 10.546875 
Q 45.796875 14.203125 45.796875 21.1875 
Q 45.796875 27.640625 41.28125 31.265625 
Q 36.765625 34.90625 28.71875 34.90625 
L 20.21875 34.90625 
L 20.21875 43.015625 
L 29.109375 43.015625 
Q 36.375 43.015625 40.234375 45.921875 
Q 44.09375 48.828125 44.09375 54.296875 
Q 44.09375 59.90625 40.109375 62.90625 
Q 36.140625 65.921875 28.71875 65.921875 
Q 24.65625 65.921875 20.015625 65.03125 
Q 15.375 64.15625 9.8125 62.3125 
L 9.8125 71.09375 
Q 15.4375 72.65625 20.34375 73.4375 
Q 25.25 74.21875 29.59375 74.21875 
Q 40.828125 74.21875 47.359375 69.109375 
Q 53.90625 64.015625 53.90625 55.328125 
Q 53.90625 49.265625 50.4375 45.09375 
Q 46.96875 40.921875 40.578125 39.3125 
z
" id="DejaVuSans-51"/>
      </defs>
      <g transform="translate(210.838438 463.158437)scale(0.1 -0.1)">
       <use xlink:href="#DejaVuSans-48"/>
       <use x="63.623047" xlink:href="#DejaVuSans-46"/>
       <use x="95.410156" xlink:href="#DejaVuSans-51"/>
      </g>
     </g>
    </g>
    <g id="xtick_5">
     <g id="line2d_9">
      <path clip-path="url(#pbbda2bde82)" d="M 266.22 448.56 
L 266.22 60.48 
" style="fill:none;stroke:#b0b0b0;stroke-linecap:square;stroke-width:0.8;"/>
     </g>
     <g id="line2d_10">
      <g>
       <use style="stroke:#000000;stroke-width:0.8;" x="266.22" xlink:href="#m6a2613d5c1" y="448.56"/>
      </g>
     </g>
     <g id="text_5">
      <!-- 0.4 -->
      <defs>
       <path d="M 37.796875 64.3125 
L 12.890625 25.390625 
L 37.796875 25.390625 
z
M 35.203125 72.90625 
L 47.609375 72.90625 
L 47.609375 25.390625 
L 58.015625 25.390625 
L 58.015625 17.1875 
L 47.609375 17.1875 
L 47.609375 0 
L 37.796875 0 
L 37.796875 17.1875 
L 4.890625 17.1875 
L 4.890625 26.703125 
z
" id="DejaVuSans-52"/>
      </defs>
      <g transform="translate(258.268438 463.158437)scale(0.1 -0.1)">
       <use xlink:href="#DejaVuSans-48"/>
       <use x="63.623047" xlink:href="#DejaVuSans-46"/>
       <use x="95.410156" xlink:href="#DejaVuSans-52"/>
      </g>
     </g>
    </g>
    <g id="xtick_6">
     <g id="line2d_11">
      <path clip-path="url(#pbbda2bde82)" d="M 313.65 448.56 
L 313.65 60.48 
" style="fill:none;stroke:#b0b0b0;stroke-linecap:square;stroke-width:0.8;"/>
     </g>
     <g id="line2d_12">
      <g>
       <use style="stroke:#000000;stroke-width:0.8;" x="313.65" xlink:href="#m6a2613d5c1" y="448.56"/>
      </g>
     </g>
     <g id="text_6">
      <!-- 0.5 -->
      <defs>
       <path d="M 10.796875 72.90625 
L 49.515625 72.90625 
L 49.515625 64.59375 
L 19.828125 64.59375 
L 19.828125 46.734375 
Q 21.96875 47.46875 24.109375 47.828125 
Q 26.265625 48.1875 28.421875 48.1875 
Q 40.625 48.1875 47.75 41.5 
Q 54.890625 34.8125 54.890625 23.390625 
Q 54.890625 11.625 47.5625 5.09375 
Q 40.234375 -1.421875 26.90625 -1.421875 
Q 22.3125 -1.421875 17.546875 -0.640625 
Q 12.796875 0.140625 7.71875 1.703125 
L 7.71875 11.625 
Q 12.109375 9.234375 16.796875 8.0625 
Q 21.484375 6.890625 26.703125 6.890625 
Q 35.15625 6.890625 40.078125 11.328125 
Q 45.015625 15.765625 45.015625 23.390625 
Q 45.015625 31 40.078125 35.4375 
Q 35.15625 39.890625 26.703125 39.890625 
Q 22.75 39.890625 18.8125 39.015625 
Q 14.890625 38.140625 10.796875 36.28125 
z
" id="DejaVuSans-53"/>
      </defs>
      <g transform="translate(305.698438 463.158437)scale(0.1 -0.1)">
       <use xlink:href="#DejaVuSans-48"/>
       <use x="63.623047" xlink:href="#DejaVuSans-46"/>
       <use x="95.410156" xlink:href="#DejaVuSans-53"/>
      </g>
     </g>
    </g>
    <g id="xtick_7">
     <g id="line2d_13">
      <path clip-path="url(#pbbda2bde82)" d="M 361.08 448.56 
L 361.08 60.48 
" style="fill:none;stroke:#b0b0b0;stroke-linecap:square;stroke-width:0.8;"/>
     </g>
     <g id="line2d_14">
      <g>
       <use style="stroke:#000000;stroke-width:0.8;" x="361.08" xlink:href="#m6a2613d5c1" y="448.56"/>
      </g>
     </g>
     <g id="text_7">
      <!-- 0.6 -->
      <defs>
       <path d="M 33.015625 40.375 
Q 26.375 40.375 22.484375 35.828125 
Q 18.609375 31.296875 18.609375 23.390625 
Q 18.609375 15.53125 22.484375 10.953125 
Q 26.375 6.390625 33.015625 6.390625 
Q 39.65625 6.390625 43.53125 10.953125 
Q 47.40625 15.53125 47.40625 23.390625 
Q 47.40625 31.296875 43.53125 35.828125 
Q 39.65625 40.375 33.015625 40.375 
z
M 52.59375 71.296875 
L 52.59375 62.3125 
Q 48.875 64.0625 45.09375 64.984375 
Q 41.3125 65.921875 37.59375 65.921875 
Q 27.828125 65.921875 22.671875 59.328125 
Q 17.53125 52.734375 16.796875 39.40625 
Q 19.671875 43.65625 24.015625 45.921875 
Q 28.375 48.1875 33.59375 48.1875 
Q 44.578125 48.1875 50.953125 41.515625 
Q 57.328125 34.859375 57.328125 23.390625 
Q 57.328125 12.15625 50.6875 5.359375 
Q 44.046875 -1.421875 33.015625 -1.421875 
Q 20.359375 -1.421875 13.671875 8.265625 
Q 6.984375 17.96875 6.984375 36.375 
Q 6.984375 53.65625 15.1875 63.9375 
Q 23.390625 74.21875 37.203125 74.21875 
Q 40.921875 74.21875 44.703125 73.484375 
Q 48.484375 72.75 52.59375 71.296875 
z
" id="DejaVuSans-54"/>
      </defs>
      <g transform="translate(353.128438 463.158437)scale(0.1 -0.1)">
       <use xlink:href="#DejaVuSans-48"/>
       <use x="63.623047" xlink:href="#DejaVuSans-46"/>
       <use x="95.410156" xlink:href="#DejaVuSans-54"/>
      </g>
     </g>
    </g>
    <g id="xtick_8">
     <g id="line2d_15">
      <path clip-path="url(#pbbda2bde82)" d="M 408.51 448.56 
L 408.51 60.48 
" style="fill:none;stroke:#b0b0b0;stroke-linecap:square;stroke-width:0.8;"/>
     </g>
     <g id="line2d_16">
      <g>
       <use style="stroke:#000000;stroke-width:0.8;" x="408.51" xlink:href="#m6a2613d5c1" y="448.56"/>
      </g>
     </g>
     <g id="text_8">
      <!-- 0.7 -->
      <defs>
       <path d="M 8.203125 72.90625 
L 55.078125 72.90625 
L 55.078125 68.703125 
L 28.609375 0 
L 18.3125 0 
L 43.21875 64.59375 
L 8.203125 64.59375 
z
" id="DejaVuSans-55"/>
      </defs>
      <g transform="translate(400.558438 463.158437)scale(0.1 -0.1)">
       <use xlink:href="#DejaVuSans-48"/>
       <use x="63.623047" xlink:href="#DejaVuSans-46"/>
       <use x="95.410156" xlink:href="#DejaVuSans-55"/>
      </g>
     </g>
    </g>
    <g id="xtick_9">
     <g id="line2d_17">
      <path clip-path="url(#pbbda2bde82)" d="M 455.94 448.56 
L 455.94 60.48 
" style="fill:none;stroke:#b0b0b0;stroke-linecap:square;stroke-width:0.8;"/>
     </g>
     <g id="line2d_18">
      <g>
       <use style="stroke:#000000;stroke-width:0.8;" x="455.94" xlink:href="#m6a2613d5c1" y="448.56"/>
      </g>
     </g>
     <g id="text_9">
      <!-- 0.8 -->
      <defs>
       <path d="M 31.78125 34.625 
Q 24.75 34.625 20.71875 30.859375 
Q 16.703125 27.09375 16.703125 20.515625 
Q 16.703125 13.921875 20.71875 10.15625 
Q 24.75 6.390625 31.78125 6.390625 
Q 38.8125 6.390625 42.859375 10.171875 
Q 46.921875 13.96875 46.921875 20.515625 
Q 46.921875 27.09375 42.890625 30.859375 
Q 38.875 34.625 31.78125 34.625 
z
M 21.921875 38.8125 
Q 15.578125 40.375 12.03125 44.71875 
Q 8.5 49.078125 8.5 55.328125 
Q 8.5 64.0625 14.71875 69.140625 
Q 20.953125 74.21875 31.78125 74.21875 
Q 42.671875 74.21875 48.875 69.140625 
Q 55.078125 64.0625 55.078125 55.328125 
Q 55.078125 49.078125 51.53125 44.71875 
Q 48 40.375 41.703125 38.8125 
Q 48.828125 37.15625 52.796875 32.3125 
Q 56.78125 27.484375 56.78125 20.515625 
Q 56.78125 9.90625 50.3125 4.234375 
Q 43.84375 -1.421875 31.78125 -1.421875 
Q 19.734375 -1.421875 13.25 4.234375 
Q 6.78125 9.90625 6.78125 20.515625 
Q 6.78125 27.484375 10.78125 32.3125 
Q 14.796875 37.15625 21.921875 38.8125 
z
M 18.3125 54.390625 
Q 18.3125 48.734375 21.84375 45.5625 
Q 25.390625 42.390625 31.78125 42.390625 
Q 38.140625 42.390625 41.71875 45.5625 
Q 45.3125 48.734375 45.3125 54.390625 
Q 45.3125 60.0625 41.71875 63.234375 
Q 38.140625 66.40625 31.78125 66.40625 
Q 25.390625 66.40625 21.84375 63.234375 
Q 18.3125 60.0625 18.3125 54.390625 
z
" id="DejaVuSans-56"/>
      </defs>
      <g transform="translate(447.988438 463.158437)scale(0.1 -0.1)">
       <use xlink:href="#DejaVuSans-48"/>
       <use x="63.623047" xlink:href="#DejaVuSans-46"/>
       <use x="95.410156" xlink:href="#DejaVuSans-56"/>
      </g>
     </g>
    </g>
    <g id="xtick_10">
     <g id="line2d_19">
      <path clip-path="url(#pbbda2bde82)" d="M 503.37 448.56 
L 503.37 60.48 
" style="fill:none;stroke:#b0b0b0;stroke-linecap:square;stroke-width:0.8;"/>
     </g>
     <g id="line2d_20">
      <g>
       <use style="stroke:#000000;stroke-width:0.8;" x="503.37" xlink:href="#m6a2613d5c1" y="448.56"/>
      </g>
     </g>
     <g id="text_10">
      <!-- 0.9 -->
      <defs>
       <path d="M 10.984375 1.515625 
L 10.984375 10.5 
Q 14.703125 8.734375 18.5 7.8125 
Q 22.3125 6.890625 25.984375 6.890625 
Q 35.75 6.890625 40.890625 13.453125 
Q 46.046875 20.015625 46.78125 33.40625 
Q 43.953125 29.203125 39.59375 26.953125 
Q 35.25 24.703125 29.984375 24.703125 
Q 19.046875 24.703125 12.671875 31.3125 
Q 6.296875 37.9375 6.296875 49.421875 
Q 6.296875 60.640625 12.9375 67.421875 
Q 19.578125 74.21875 30.609375 74.21875 
Q 43.265625 74.21875 49.921875 64.515625 
Q 56.59375 54.828125 56.59375 36.375 
Q 56.59375 19.140625 48.40625 8.859375 
Q 40.234375 -1.421875 26.421875 -1.421875 
Q 22.703125 -1.421875 18.890625 -0.6875 
Q 15.09375 0.046875 10.984375 1.515625 
z
M 30.609375 32.421875 
Q 37.25 32.421875 41.125 36.953125 
Q 45.015625 41.5 45.015625 49.421875 
Q 45.015625 57.28125 41.125 61.84375 
Q 37.25 66.40625 30.609375 66.40625 
Q 23.96875 66.40625 20.09375 61.84375 
Q 16.21875 57.28125 16.21875 49.421875 
Q 16.21875 41.5 20.09375 36.953125 
Q 23.96875 32.421875 30.609375 32.421875 
z
" id="DejaVuSans-57"/>
      </defs>
      <g transform="translate(495.418438 463.158437)scale(0.1 -0.1)">
       <use xlink:href="#DejaVuSans-48"/>
       <use x="63.623047" xlink:href="#DejaVuSans-46"/>
       <use x="95.410156" xlink:href="#DejaVuSans-57"/>
      </g>
     </g>
    </g>
    <g id="xtick_11">
     <g id="line2d_21">
      <path clip-path="url(#pbbda2bde82)" d="M 550.8 448.56 
L 550.8 60.48 
" style="fill:none;stroke:#b0b0b0;stroke-linecap:square;stroke-width:0.8;"/>
     </g>
     <g id="line2d_22">
      <g>
       <use style="stroke:#000000;stroke-width:0.8;" x="550.8" xlink:href="#m6a2613d5c1" y="448.56"/>
      </g>
     </g>
     <g id="text_11">
      <!-- 1.0 -->
      <g transform="translate(542.848438 463.158437)scale(0.1 -0.1)">
       <use xlink:href="#DejaVuSans-49"/>
       <use x="63.623047" xlink:href="#DejaVuSans-46"/>
       <use x="95.410156" xlink:href="#DejaVuSans-48"/>
      </g>
     </g>
    </g>
    <g id="text_12">
     <!-- 1-precision -->
     <defs>
      <path d="M 4.890625 31.390625 
L 31.203125 31.390625 
L 31.203125 23.390625 
L 4.890625 23.390625 
z
" id="DejaVuSans-45"/>
      <path d="M 18.109375 8.203125 
L 18.109375 -20.796875 
L 9.078125 -20.796875 
L 9.078125 54.6875 
L 18.109375 54.6875 
L 18.109375 46.390625 
Q 20.953125 51.265625 25.265625 53.625 
Q 29.59375 56 35.59375 56 
Q 45.5625 56 51.78125 48.09375 
Q 58.015625 40.1875 58.015625 27.296875 
Q 58.015625 14.40625 51.78125 6.484375 
Q 45.5625 -1.421875 35.59375 -1.421875 
Q 29.59375 -1.421875 25.265625 0.953125 
Q 20.953125 3.328125 18.109375 8.203125 
z
M 48.6875 27.296875 
Q 48.6875 37.203125 44.609375 42.84375 
Q 40.53125 48.484375 33.40625 48.484375 
Q 26.265625 48.484375 22.1875 42.84375 
Q 18.109375 37.203125 18.109375 27.296875 
Q 18.109375 17.390625 22.1875 11.75 
Q 26.265625 6.109375 33.40625 6.109375 
Q 40.53125 6.109375 44.609375 11.75 
Q 48.6875 17.390625 48.6875 27.296875 
z
" id="DejaVuSans-112"/>
      <path d="M 41.109375 46.296875 
Q 39.59375 47.171875 37.8125 47.578125 
Q 36.03125 48 33.890625 48 
Q 26.265625 48 22.1875 43.046875 
Q 18.109375 38.09375 18.109375 28.8125 
L 18.109375 0 
L 9.078125 0 
L 9.078125 54.6875 
L 18.109375 54.6875 
L 18.109375 46.1875 
Q 20.953125 51.171875 25.484375 53.578125 
Q 30.03125 56 36.53125 56 
Q 37.453125 56 38.578125 55.875 
Q 39.703125 55.765625 41.0625 55.515625 
z
" id="DejaVuSans-114"/>
      <path d="M 56.203125 29.59375 
L 56.203125 25.203125 
L 14.890625 25.203125 
Q 15.484375 15.921875 20.484375 11.0625 
Q 25.484375 6.203125 34.421875 6.203125 
Q 39.59375 6.203125 44.453125 7.46875 
Q 49.3125 8.734375 54.109375 11.28125 
L 54.109375 2.78125 
Q 49.265625 0.734375 44.1875 -0.34375 
Q 39.109375 -1.421875 33.890625 -1.421875 
Q 20.796875 -1.421875 13.15625 6.1875 
Q 5.515625 13.8125 5.515625 26.8125 
Q 5.515625 40.234375 12.765625 48.109375 
Q 20.015625 56 32.328125 56 
Q 43.359375 56 49.78125 48.890625 
Q 56.203125 41.796875 56.203125 29.59375 
z
M 47.21875 32.234375 
Q 47.125 39.59375 43.09375 43.984375 
Q 39.0625 48.390625 32.421875 48.390625 
Q 24.90625 48.390625 20.390625 44.140625 
Q 15.875 39.890625 15.1875 32.171875 
z
" id="DejaVuSans-101"/>
      <path d="M 48.78125 52.59375 
L 48.78125 44.1875 
Q 44.96875 46.296875 41.140625 47.34375 
Q 37.3125 48.390625 33.40625 48.390625 
Q 24.65625 48.390625 19.8125 42.84375 
Q 14.984375 37.3125 14.984375 27.296875 
Q 14.984375 17.28125 19.8125 11.734375 
Q 24.65625 6.203125 33.40625 6.203125 
Q 37.3125 6.203125 41.140625 7.25 
Q 44.96875 8.296875 48.78125 10.40625 
L 48.78125 2.09375 
Q 45.015625 0.34375 40.984375 -0.53125 
Q 36.96875 -1.421875 32.421875 -1.421875 
Q 20.0625 -1.421875 12.78125 6.34375 
Q 5.515625 14.109375 5.515625 27.296875 
Q 5.515625 40.671875 12.859375 48.328125 
Q 20.21875 56 33.015625 56 
Q 37.15625 56 41.109375 55.140625 
Q 45.0625 54.296875 48.78125 52.59375 
z
" id="DejaVuSans-99"/>
      <path d="M 9.421875 54.6875 
L 18.40625 54.6875 
L 18.40625 0 
L 9.421875 0 
z
M 9.421875 75.984375 
L 18.40625 75.984375 
L 18.40625 64.59375 
L 9.421875 64.59375 
z
" id="DejaVuSans-105"/>
      <path d="M 44.28125 53.078125 
L 44.28125 44.578125 
Q 40.484375 46.53125 36.375 47.5 
Q 32.28125 48.484375 27.875 48.484375 
Q 21.1875 48.484375 17.84375 46.4375 
Q 14.5 44.390625 14.5 40.28125 
Q 14.5 37.15625 16.890625 35.375 
Q 19.28125 33.59375 26.515625 31.984375 
L 29.59375 31.296875 
Q 39.15625 29.25 43.1875 25.515625 
Q 47.21875 21.78125 47.21875 15.09375 
Q 47.21875 7.46875 41.1875 3.015625 
Q 35.15625 -1.421875 24.609375 -1.421875 
Q 20.21875 -1.421875 15.453125 -0.5625 
Q 10.6875 0.296875 5.421875 2 
L 5.421875 11.28125 
Q 10.40625 8.6875 15.234375 7.390625 
Q 20.0625 6.109375 24.8125 6.109375 
Q 31.15625 6.109375 34.5625 8.28125 
Q 37.984375 10.453125 37.984375 14.40625 
Q 37.984375 18.0625 35.515625 20.015625 
Q 33.0625 21.96875 24.703125 23.78125 
L 21.578125 24.515625 
Q 13.234375 26.265625 9.515625 29.90625 
Q 5.8125 33.546875 5.8125 39.890625 
Q 5.8125 47.609375 11.28125 51.796875 
Q 16.75 56 26.8125 56 
Q 31.78125 56 36.171875 55.265625 
Q 40.578125 54.546875 44.28125 53.078125 
z
" id="DejaVuSans-115"/>
      <path d="M 30.609375 48.390625 
Q 23.390625 48.390625 19.1875 42.75 
Q 14.984375 37.109375 14.984375 27.296875 
Q 14.984375 17.484375 19.15625 11.84375 
Q 23.34375 6.203125 30.609375 6.203125 
Q 37.796875 6.203125 41.984375 11.859375 
Q 46.1875 17.53125 46.1875 27.296875 
Q 46.1875 37.015625 41.984375 42.703125 
Q 37.796875 48.390625 30.609375 48.390625 
z
M 30.609375 56 
Q 42.328125 56 49.015625 48.375 
Q 55.71875 40.765625 55.71875 27.296875 
Q 55.71875 13.875 49.015625 6.21875 
Q 42.328125 -1.421875 30.609375 -1.421875 
Q 18.84375 -1.421875 12.171875 6.21875 
Q 5.515625 13.875 5.515625 27.296875 
Q 5.515625 40.765625 12.171875 48.375 
Q 18.84375 56 30.609375 56 
z
" id="DejaVuSans-111"/>
      <path d="M 54.890625 33.015625 
L 54.890625 0 
L 45.90625 0 
L 45.90625 32.71875 
Q 45.90625 40.484375 42.875 44.328125 
Q 39.84375 48.1875 33.796875 48.1875 
Q 26.515625 48.1875 22.3125 43.546875 
Q 18.109375 38.921875 18.109375 30.90625 
L 18.109375 0 
L 9.078125 0 
L 9.078125 54.6875 
L 18.109375 54.6875 
L 18.109375 46.1875 
Q 21.34375 51.125 25.703125 53.5625 
Q 30.078125 56 35.796875 56 
Q 45.21875 56 50.046875 50.171875 
Q 54.890625 44.34375 54.890625 33.015625 
z
" id="DejaVuSans-110"/>
     </defs>
     <g transform="translate(286.110938 476.836563)scale(0.1 -0.1)">
      <use xlink:href="#DejaVuSans-49"/>
      <use x="63.623047" xlink:href="#DejaVuSans-45"/>
      <use x="99.707031" xlink:href="#DejaVuSans-112"/>
      <use x="163.183594" xlink:href="#DejaVuSans-114"/>
      <use x="202.046875" xlink:href="#DejaVuSans-101"/>
      <use x="263.570312" xlink:href="#DejaVuSans-99"/>
      <use x="318.550781" xlink:href="#DejaVuSans-105"/>
      <use x="346.333984" xlink:href="#DejaVuSans-115"/>
      <use x="398.433594" xlink:href="#DejaVuSans-105"/>
      <use x="426.216797" xlink:href="#DejaVuSans-111"/>
      <use x="487.398438" xlink:href="#DejaVuSans-110"/>
     </g>
    </g>
   </g>
   <g id="matplotlib.axis_2">
    <g id="ytick_1">
     <g id="line2d_23">
      <path clip-path="url(#pbbda2bde82)" d="M 76.5 448.56 
L 550.8 448.56 
" style="fill:none;stroke:#b0b0b0;stroke-linecap:square;stroke-width:0.8;"/>
     </g>
     <g id="line2d_24">
      <defs>
       <path d="M 0 0 
L -3.5 0 
" id="m572c6113d2" style="stroke:#000000;stroke-width:0.8;"/>
      </defs>
      <g>
       <use style="stroke:#000000;stroke-width:0.8;" x="76.5" xlink:href="#m572c6113d2" y="448.56"/>
      </g>
     </g>
     <g id="text_13">
      <!-- 0.0 -->
      <g transform="translate(53.596875 452.359219)scale(0.1 -0.1)">
       <use xlink:href="#DejaVuSans-48"/>
       <use x="63.623047" xlink:href="#DejaVuSans-46"/>
       <use x="95.410156" xlink:href="#DejaVuSans-48"/>
      </g>
     </g>
    </g>
    <g id="ytick_2">
     <g id="line2d_25">
      <path clip-path="url(#pbbda2bde82)" d="M 76.5 409.752 
L 550.8 409.752 
" style="fill:none;stroke:#b0b0b0;stroke-linecap:square;stroke-width:0.8;"/>
     </g>
     <g id="line2d_26">
      <g>
       <use style="stroke:#000000;stroke-width:0.8;" x="76.5" xlink:href="#m572c6113d2" y="409.752"/>
      </g>
     </g>
     <g id="text_14">
      <!-- 0.1 -->
      <g transform="translate(53.596875 413.551219)scale(0.1 -0.1)">
       <use xlink:href="#DejaVuSans-48"/>
       <use x="63.623047" xlink:href="#DejaVuSans-46"/>
       <use x="95.410156" xlink:href="#DejaVuSans-49"/>
      </g>
     </g>
    </g>
    <g id="ytick_3">
     <g id="line2d_27">
      <path clip-path="url(#pbbda2bde82)" d="M 76.5 370.944 
L 550.8 370.944 
" style="fill:none;stroke:#b0b0b0;stroke-linecap:square;stroke-width:0.8;"/>
     </g>
     <g id="line2d_28">
      <g>
       <use style="stroke:#000000;stroke-width:0.8;" x="76.5" xlink:href="#m572c6113d2" y="370.944"/>
      </g>
     </g>
     <g id="text_15">
      <!-- 0.2 -->
      <g transform="translate(53.596875 374.743219)scale(0.1 -0.1)">
       <use xlink:href="#DejaVuSans-48"/>
       <use x="63.623047" xlink:href="#DejaVuSans-46"/>
       <use x="95.410156" xlink:href="#DejaVuSans-50"/>
      </g>
     </g>
    </g>
    <g id="ytick_4">
     <g id="line2d_29">
      <path clip-path="url(#pbbda2bde82)" d="M 76.5 332.136 
L 550.8 332.136 
" style="fill:none;stroke:#b0b0b0;stroke-linecap:square;stroke-width:0.8;"/>
     </g>
     <g id="line2d_30">
      <g>
       <use style="stroke:#000000;stroke-width:0.8;" x="76.5" xlink:href="#m572c6113d2" y="332.136"/>
      </g>
     </g>
     <g id="text_16">
      <!-- 0.3 -->
      <g transform="translate(53.596875 335.935219)scale(0.1 -0.1)">
       <use xlink:href="#DejaVuSans-48"/>
       <use x="63.623047" xlink:href="#DejaVuSans-46"/>
       <use x="95.410156" xlink:href="#DejaVuSans-51"/>
      </g>
     </g>
    </g>
    <g id="ytick_5">
     <g id="line2d_31">
      <path clip-path="url(#pbbda2bde82)" d="M 76.5 293.328 
L 550.8 293.328 
" style="fill:none;stroke:#b0b0b0;stroke-linecap:square;stroke-width:0.8;"/>
     </g>
     <g id="line2d_32">
      <g>
       <use style="stroke:#000000;stroke-width:0.8;" x="76.5" xlink:href="#m572c6113d2" y="293.328"/>
      </g>
     </g>
     <g id="text_17">
      <!-- 0.4 -->
      <g transform="translate(53.596875 297.127219)scale(0.1 -0.1)">
       <use xlink:href="#DejaVuSans-48"/>
       <use x="63.623047" xlink:href="#DejaVuSans-46"/>
       <use x="95.410156" xlink:href="#DejaVuSans-52"/>
      </g>
     </g>
    </g>
    <g id="ytick_6">
     <g id="line2d_33">
      <path clip-path="url(#pbbda2bde82)" d="M 76.5 254.52 
L 550.8 254.52 
" style="fill:none;stroke:#b0b0b0;stroke-linecap:square;stroke-width:0.8;"/>
     </g>
     <g id="line2d_34">
      <g>
       <use style="stroke:#000000;stroke-width:0.8;" x="76.5" xlink:href="#m572c6113d2" y="254.52"/>
      </g>
     </g>
     <g id="text_18">
      <!-- 0.5 -->
      <g transform="translate(53.596875 258.319219)scale(0.1 -0.1)">
       <use xlink:href="#DejaVuSans-48"/>
       <use x="63.623047" xlink:href="#DejaVuSans-46"/>
       <use x="95.410156" xlink:href="#DejaVuSans-53"/>
      </g>
     </g>
    </g>
    <g id="ytick_7">
     <g id="line2d_35">
      <path clip-path="url(#pbbda2bde82)" d="M 76.5 215.712 
L 550.8 215.712 
" style="fill:none;stroke:#b0b0b0;stroke-linecap:square;stroke-width:0.8;"/>
     </g>
     <g id="line2d_36">
      <g>
       <use style="stroke:#000000;stroke-width:0.8;" x="76.5" xlink:href="#m572c6113d2" y="215.712"/>
      </g>
     </g>
     <g id="text_19">
      <!-- 0.6 -->
      <g transform="translate(53.596875 219.511219)scale(0.1 -0.1)">
       <use xlink:href="#DejaVuSans-48"/>
       <use x="63.623047" xlink:href="#DejaVuSans-46"/>
       <use x="95.410156" xlink:href="#DejaVuSans-54"/>
      </g>
     </g>
    </g>
    <g id="ytick_8">
     <g id="line2d_37">
      <path clip-path="url(#pbbda2bde82)" d="M 76.5 176.904 
L 550.8 176.904 
" style="fill:none;stroke:#b0b0b0;stroke-linecap:square;stroke-width:0.8;"/>
     </g>
     <g id="line2d_38">
      <g>
       <use style="stroke:#000000;stroke-width:0.8;" x="76.5" xlink:href="#m572c6113d2" y="176.904"/>
      </g>
     </g>
     <g id="text_20">
      <!-- 0.7 -->
      <g transform="translate(53.596875 180.703219)scale(0.1 -0.1)">
       <use xlink:href="#DejaVuSans-48"/>
       <use x="63.623047" xlink:href="#DejaVuSans-46"/>
       <use x="95.410156" xlink:href="#DejaVuSans-55"/>
      </g>
     </g>
    </g>
    <g id="ytick_9">
     <g id="line2d_39">
      <path clip-path="url(#pbbda2bde82)" d="M 76.5 138.096 
L 550.8 138.096 
" style="fill:none;stroke:#b0b0b0;stroke-linecap:square;stroke-width:0.8;"/>
     </g>
     <g id="line2d_40">
      <g>
       <use style="stroke:#000000;stroke-width:0.8;" x="76.5" xlink:href="#m572c6113d2" y="138.096"/>
      </g>
     </g>
     <g id="text_21">
      <!-- 0.8 -->
      <g transform="translate(53.596875 141.895219)scale(0.1 -0.1)">
       <use xlink:href="#DejaVuSans-48"/>
       <use x="63.623047" xlink:href="#DejaVuSans-46"/>
       <use x="95.410156" xlink:href="#DejaVuSans-56"/>
      </g>
     </g>
    </g>
    <g id="ytick_10">
     <g id="line2d_41">
      <path clip-path="url(#pbbda2bde82)" d="M 76.5 99.288 
L 550.8 99.288 
" style="fill:none;stroke:#b0b0b0;stroke-linecap:square;stroke-width:0.8;"/>
     </g>
     <g id="line2d_42">
      <g>
       <use style="stroke:#000000;stroke-width:0.8;" x="76.5" xlink:href="#m572c6113d2" y="99.288"/>
      </g>
     </g>
     <g id="text_22">
      <!-- 0.9 -->
      <g transform="translate(53.596875 103.087219)scale(0.1 -0.1)">
       <use xlink:href="#DejaVuSans-48"/>
       <use x="63.623047" xlink:href="#DejaVuSans-46"/>
       <use x="95.410156" xlink:href="#DejaVuSans-57"/>
      </g>
     </g>
    </g>
    <g id="ytick_11">
     <g id="line2d_43">
      <path clip-path="url(#pbbda2bde82)" d="M 76.5 60.48 
L 550.8 60.48 
" style="fill:none;stroke:#b0b0b0;stroke-linecap:square;stroke-width:0.8;"/>
     </g>
     <g id="line2d_44">
      <g>
       <use style="stroke:#000000;stroke-width:0.8;" x="76.5" xlink:href="#m572c6113d2" y="60.48"/>
      </g>
     </g>
     <g id="text_23">
      <!-- 1.0 -->
      <g transform="translate(53.596875 64.279219)scale(0.1 -0.1)">
       <use xlink:href="#DejaVuSans-49"/>
       <use x="63.623047" xlink:href="#DejaVuSans-46"/>
       <use x="95.410156" xlink:href="#DejaVuSans-48"/>
      </g>
     </g>
    </g>
    <g id="text_24">
     <!-- #correct/1154 -->
     <defs>
      <path d="M 51.125 44 
L 36.921875 44 
L 32.8125 27.6875 
L 47.125 27.6875 
z
M 43.796875 71.78125 
L 38.71875 51.515625 
L 52.984375 51.515625 
L 58.109375 71.78125 
L 65.921875 71.78125 
L 60.890625 51.515625 
L 76.125 51.515625 
L 76.125 44 
L 58.984375 44 
L 54.984375 27.6875 
L 70.515625 27.6875 
L 70.515625 20.21875 
L 53.078125 20.21875 
L 48 0 
L 40.1875 0 
L 45.21875 20.21875 
L 30.90625 20.21875 
L 25.875 0 
L 18.015625 0 
L 23.09375 20.21875 
L 7.71875 20.21875 
L 7.71875 27.6875 
L 24.90625 27.6875 
L 29 44 
L 13.28125 44 
L 13.28125 51.515625 
L 30.90625 51.515625 
L 35.890625 71.78125 
z
" id="DejaVuSans-35"/>
      <path d="M 18.3125 70.21875 
L 18.3125 54.6875 
L 36.8125 54.6875 
L 36.8125 47.703125 
L 18.3125 47.703125 
L 18.3125 18.015625 
Q 18.3125 11.328125 20.140625 9.421875 
Q 21.96875 7.515625 27.59375 7.515625 
L 36.8125 7.515625 
L 36.8125 0 
L 27.59375 0 
Q 17.1875 0 13.234375 3.875 
Q 9.28125 7.765625 9.28125 18.015625 
L 9.28125 47.703125 
L 2.6875 47.703125 
L 2.6875 54.6875 
L 9.28125 54.6875 
L 9.28125 70.21875 
z
" id="DejaVuSans-116"/>
      <path d="M 25.390625 72.90625 
L 33.6875 72.90625 
L 8.296875 -9.28125 
L 0 -9.28125 
z
" id="DejaVuSans-47"/>
     </defs>
     <g transform="translate(47.517187 290.624688)rotate(-90)scale(0.1 -0.1)">
      <use xlink:href="#DejaVuSans-35"/>
      <use x="83.789062" xlink:href="#DejaVuSans-99"/>
      <use x="138.769531" xlink:href="#DejaVuSans-111"/>
      <use x="199.951172" xlink:href="#DejaVuSans-114"/>
      <use x="239.314453" xlink:href="#DejaVuSans-114"/>
      <use x="278.177734" xlink:href="#DejaVuSans-101"/>
      <use x="339.701172" xlink:href="#DejaVuSans-99"/>
      <use x="394.681641" xlink:href="#DejaVuSans-116"/>
      <use x="433.890625" xlink:href="#DejaVuSans-47"/>
      <use x="467.582031" xlink:href="#DejaVuSans-49"/>
      <use x="531.205078" xlink:href="#DejaVuSans-49"/>
      <use x="594.828125" xlink:href="#DejaVuSans-53"/>
      <use x="658.451172" xlink:href="#DejaVuSans-52"/>
     </g>
    </g>
   </g>
   <g id="line2d_45">
    <path clip-path="url(#pbbda2bde82)" d="M 76.5 448.223709 
L 76.5 415.267175 
L 81.243 415.267175 
L 80.553846 409.550225 
L 79.936957 402.488111 
L 79.662 398.452617 
L 82.782119 398.452617 
L 82.214458 393.40825 
L 85.020359 393.40825 
L 84.677586 391.054211 
L 87.341143 391.054211 
L 86.279381 384.664679 
L 85.283333 377.266274 
L 84.821053 373.23078 
L 86.855895 373.23078 
L 86.721983 372.221906 
L 88.713734 372.221906 
L 88.211111 368.858995 
L 90.106967 368.858995 
L 89.996341 368.186412 
L 91.861943 368.186412 
L 90.605576 360.788007 
L 89.406122 352.380728 
L 88.981579 349.017816 
L 90.495738 349.017816 
L 90.40456 348.345234 
L 93.384466 348.345234 
L 93.33 348.008943 
L 94.800965 348.008943 
L 93.439286 339.601664 
L 93.289381 338.59279 
L 94.635 338.59279 
L 93.255163 329.176638 
L 91.953383 318.751612 
L 91.6125 315.724991 
L 92.735208 315.724991 
L 92.31 312.025789 
L 93.39905 312.025789 
L 92.817661 306.981421 
L 93.865675 306.981421 
L 93.326608 302.273345 
L 94.338717 302.273345 
L 92.988957 289.830572 
L 92.248242 282.095875 
L 93.142105 282.095875 
L 92.981467 280.414419 
L 93.863584 280.414419 
L 93.004945 271.334558 
L 93.841865 271.334558 
L 93.778689 270.661976 
L 94.609636 270.661976 
L 93.584563 259.564367 
L 94.367466 259.564367 
L 93.833223 253.511127 
L 94.591045 253.511127 
L 94.151942 248.466759 
L 94.889661 248.466759 
L 94.539937 244.431265 
L 95.261867 244.431265 
L 94.826893 239.386898 
L 95.530556 239.386898 
L 95.1 234.34253 
L 95.786295 234.34253 
L 95.670808 232.997366 
L 96.351121 232.997366 
L 96.116544 230.307036 
L 96.787168 230.307036 
L 96.638653 228.625581 
L 97.302632 228.625581 
L 97.272263 228.289289 
L 97.933382 228.289289 
L 97.747543 226.271542 
L 98.401299 226.271542 
L 97.96761 221.563466 
L 98.607203 221.563466 
L 98.299304 218.200555 
L 98.928651 218.200555 
L 98.743034 216.182808 
L 99.986657 216.182808 
L 99.922222 215.510225 
L 100.539863 215.510225 
L 100.408856 214.165061 
L 101.021633 214.165061 
L 100.855946 212.483605 
L 101.463158 212.483605 
L 100.648433 204.076326 
L 101.235332 204.076326 
L 101.203125 203.740035 
L 101.787776 203.740035 
L 101.722179 203.067452 
L 102.884088 203.067452 
L 102.680873 201.049705 
L 103.255385 201.049705 
L 103.221127 200.713414 
L 104.933801 200.713414 
L 104.157692 193.315009 
L 105.263243 193.315009 
L 105.192222 192.642426 
L 105.741677 192.642426 
L 105.633907 191.633553 
L 106.180123 191.633553 
L 105.643735 186.589185 
L 106.179422 186.589185 
L 106.037246 185.244021 
L 106.569258 185.244021 
L 106.319573 182.889983 
L 107.371598 182.889983 
L 107.335106 182.553692 
L 108.381014 182.553692 
L 108.194138 180.872236 
L 109.229474 180.872236 
L 109.153092 180.199653 
L 109.667832 180.199653 
L 109.552265 179.19078 
L 110.064153 179.19078 
L 109.870588 177.509324 
L 110.378571 177.509324 
L 110.145995 175.491577 
L 110.6496 175.491577 
L 110.417026 173.47383 
L 111.911538 173.47383 
L 111.752027 172.128666 
L 112.245894 172.128666 
L 112.165657 171.456083 
L 113.14804 171.456083 
L 113.025335 170.44721 
L 113.513378 170.44721 
L 113.186188 167.75688 
L 113.669205 167.75688 
L 113.384228 165.402842 
L 113.862801 165.402842 
L 113.740567 164.393969 
L 114.216667 164.393969 
L 114.134674 163.721386 
L 114.608795 163.721386 
L 114.403024 162.039931 
L 114.873786 162.039931 
L 114.832435 161.70364 
L 115.77 161.70364 
L 115.68573 161.031057 
L 116.15209 161.031057 
L 115.940725 159.349601 
L 116.403834 159.349601 
L 116.234571 158.004437 
L 118.070116 158.004437 
L 117.982508 157.331854 
L 118.438105 157.331854 
L 118.35 156.659272 
L 118.803778 156.659272 
L 118.759434 156.322981 
L 120.113793 156.322981 
L 120.068267 155.98669 
L 120.517414 155.98669 
L 120.471563 155.650399 
L 121.81215 155.650399 
L 121.346454 152.287487 
L 121.787372 152.287487 
L 121.740923 151.951196 
L 122.180533 151.951196 
L 122.133777 151.614905 
L 122.572086 151.614905 
L 122.525026 151.278614 
L 123.398165 151.278614 
L 123.255183 150.26974 
L 123.689239 150.26974 
L 123.641379 149.933449 
L 124.074164 149.933449 
L 123.882139 148.588284 
L 124.3125 148.588284 
L 124.216298 147.915702 
L 124.645025 147.915702 
L 124.596687 147.579411 
L 125.024173 147.579411 
L 124.975551 147.24312 
L 125.8272 147.24312 
L 125.728743 146.570537 
L 126.575498 146.570537 
L 126.525672 146.234246 
L 126.947416 146.234246 
L 126.847321 145.561664 
L 128.105341 145.561664 
L 128.054348 145.225373 
L 129.303842 145.225373 
L 129.25187 144.889081 
L 131.726712 144.889081 
L 131.672727 144.55279 
L 132.082031 144.55279 
L 132.027805 144.216499 
L 132.435965 144.216499 
L 132.32714 143.543917 
L 133.544811 143.543917 
L 133.489535 143.207626 
L 133.893514 143.207626 
L 133.838008 142.871334 
L 134.24087 142.871334 
L 134.185135 142.535043 
L 134.987861 142.535043 
L 134.931569 142.198752 
L 135.331442 142.198752 
L 135.162224 141.189879 
L 135.957703 141.189879 
L 135.7875 140.181005 
L 136.578 140.181005 
L 136.520837 139.844714 
L 137.307692 139.844714 
L 137.25 139.508423 
L 138.033239 139.508423 
L 137.975024 139.172132 
L 138.365217 139.172132 
L 138.248491 138.499549 
L 139.412794 138.499549 
L 139.176945 137.154385 
L 139.56236 137.154385 
L 139.503368 136.818094 
L 139.887757 136.818094 
L 139.710531 135.80922 
L 140.475349 135.80922 
L 140.415892 135.472929 
L 141.177273 135.472929 
L 141.117331 135.136638 
L 141.496667 135.136638 
L 141.43654 134.800347 
L 141.81488 134.800347 
L 141.574309 133.455182 
L 141.950782 133.455182 
L 141.770642 132.446308 
L 144.009854 132.446308 
L 143.948314 132.110017 
L 144.318852 132.110017 
L 144.257143 131.773726 
L 146.09837 131.773726 
L 145.909756 130.764853 
L 147.730306 130.764853 
L 147.666307 130.428562 
L 149.827882 130.428562 
L 149.762411 130.09227 
L 150.120161 130.09227 
L 150.054545 129.755979 
L 150.767616 129.755979 
L 150.7016 129.419688 
L 151.765691 129.419688 
L 151.632478 128.747106 
L 151.985411 128.747106 
L 151.918728 128.410815 
L 152.622222 128.410815 
L 152.555154 128.074523 
L 152.905722 128.074523 
L 152.838522 127.738232 
L 153.188225 127.738232 
L 153.120896 127.401941 
L 153.469737 127.401941 
L 153.402279 127.06565 
L 153.750263 127.06565 
L 153.682677 126.729359 
L 154.722251 126.729359 
L 154.585976 126.056776 
L 154.930809 126.056776 
L 154.726562 125.047903 
L 155.070078 125.047903 
L 155.001993 124.711612 
L 156.369171 124.711612 
L 156.300259 124.375321 
L 156.640345 124.375321 
L 156.50241 123.702738 
L 157.517768 123.702738 
L 157.448285 123.366447 
L 158.121832 123.366447 
L 158.05201 123.030156 
L 158.722801 123.030156 
L 158.582609 122.357574 
L 160.578626 122.357574 
L 160.507373 122.021282 
L 161.167766 122.021282 
L 161.096196 121.684991 
L 161.425338 121.684991 
L 161.353671 121.3487 
L 161.68204 121.3487 
L 161.610278 121.012409 
L 162.264929 121.012409 
L 162.192857 120.676118 
L 164.142391 120.676118 
L 164.069173 120.339827 
L 164.391987 120.339827 
L 164.318682 120.003536 
L 165.603741 120.003536 
L 165.529734 119.667244 
L 165.849461 119.667244 
L 165.701408 118.994662 
L 166.020199 118.994662 
L 165.946154 118.658371 
L 166.264215 118.658371 
L 166.190091 118.32208 
L 166.824237 118.32208 
L 166.749835 117.985789 
L 167.065926 117.985789 
L 166.768745 116.640624 
L 167.711538 116.640624 
L 167.636958 116.304333 
L 167.95 116.304333 
L 167.652117 114.959168 
L 170.439774 114.959168 
L 170.288136 114.286586 
L 170.90137 114.286586 
L 170.825362 113.950295 
L 171.131054 113.950295 
L 171.054984 113.614003 
L 171.36 113.614003 
L 171.207859 112.941421 
L 172.421583 112.941421 
L 172.344968 112.60513 
L 174.15 112.60513 
L 174.072438 112.268839 
L 174.967987 112.268839 
L 174.890024 111.932548 
L 176.372319 111.932548 
L 176.293617 111.596256 
L 176.882927 111.596256 
L 176.804009 111.259965 
L 177.684 111.259965 
L 177.604702 110.923674 
L 178.188732 110.923674 
L 178.109226 110.587383 
L 178.400391 110.587383 
L 178.16212 109.57851 
L 179.32028 109.57851 
L 179.24045 109.242218 
L 180.963292 109.242218 
L 180.721665 108.233345 
L 181.291455 108.233345 
L 181.210846 107.897054 
L 182.344555 107.897054 
L 182.263448 107.560763 
L 183.108716 107.560763 
L 183.027273 107.224471 
L 183.58833 107.224471 
L 183.343836 106.215598 
L 184.459029 106.215598 
L 184.37718 105.879307 
L 184.654773 105.879307 
L 184.572899 105.543016 
L 185.402719 105.543016 
L 185.320528 105.206724 
L 186.14616 105.206724 
L 186.063657 104.870433 
L 186.337895 104.870433 
L 186.255372 104.534142 
L 186.529054 104.534142 
L 186.446512 104.197851 
L 186.71964 104.197851 
L 186.637079 103.86156 
L 187.181825 103.86156 
L 186.93403 102.852686 
L 190.696307 102.852686 
L 190.61203 102.516395 
L 191.142889 102.516395 
L 190.974172 101.843813 
L 191.23875 101.843813 
L 190.902273 100.498648 
L 191.954605 100.498648 
L 191.87027 100.162357 
L 192.655102 100.162357 
L 192.570503 99.826066 
L 194.387609 99.826066 
L 194.302245 99.489775 
L 194.817787 99.489775 
L 194.732298 99.153484 
L 195.502451 99.153484 
L 195.416715 98.817192 
L 196.437931 98.817192 
L 196.351831 98.480901 
L 198.124071 98.480901 
L 198.037259 98.14461 
L 201.774153 98.14461 
L 201.685745 97.808319 
L 202.668473 97.808319 
L 202.579747 97.472028 
L 203.79986 97.472028 
L 203.710714 97.135737 
L 204.196154 97.135737 
L 204.017807 96.463154 
L 204.501464 96.463154 
L 204.412265 96.126863 
L 204.894363 96.126863 
L 204.805076 95.790572 
L 206.242729 95.790572 
L 206.152941 95.454281 
L 207.578084 95.454281 
L 207.39766 94.781698 
L 211.830163 94.781698 
L 211.738289 94.445407 
L 212.885318 94.445407 
L 212.793103 94.109116 
L 213.477328 94.109116 
L 213.384963 93.772825 
L 214.51875 93.772825 
L 214.426058 93.436534 
L 216.446996 93.436534 
L 216.353636 93.100243 
L 219.667173 93.100243 
L 219.572673 92.763951 
L 219.791161 92.763951 
L 219.696704 92.42766 
L 220.784428 92.42766 
L 220.689691 92.091369 
L 222.414631 92.091369 
L 222.319386 91.755078 
L 227.177942 91.755078 
L 227.081105 91.418787 
L 229.763289 91.418787 
L 229.665669 91.082496 
L 231.293726 91.082496 
L 231.195693 90.746205 
L 232.204545 90.746205 
L 232.106309 90.409913 
L 232.708375 90.409913 
L 232.610069 90.073622 
L 233.40904 90.073622 
L 233.310602 89.737331 
L 236.855769 89.737331 
L 236.756355 89.40104 
L 238.113333 89.40104 
L 237.914057 88.728458 
L 238.875599 88.728458 
L 238.77586 88.392166 
L 239.349785 88.392166 
L 239.25 88.055875 
L 240.201588 88.055875 
L 240.101648 87.719584 
L 241.235584 87.719584 
L 241.135441 87.383293 
L 244.302888 87.383293 
L 244.201984 87.047002 
L 246.216667 87.047002 
L 246.115343 86.710711 
L 247.202855 86.710711 
L 247.101367 86.374419 
L 249.608314 86.374419 
L 249.506305 86.038128 
L 252.494632 86.038128 
L 252.392012 85.701837 
L 255.831873 85.701837 
L 255.728571 85.365546 
L 261.233013 85.365546 
L 261.128644 85.029255 
L 262.756011 85.029255 
L 262.651432 84.692964 
L 262.813131 84.692964 
L 262.708637 84.356672 
L 265.904326 84.356672 
L 265.799335 84.020381 
L 275.26881 84.020381 
L 275.162346 83.68409 
L 296.417647 83.68409 
L 296.308992 83.347799 
L 305.16824 83.347799 
L 305.059247 83.011508 
L 308.29572 83.011508 
L 308.186742 82.675217 
L 308.300752 82.675217 
L 314.95064 82.675217 
L 314.841709 82.338925 
L 314.949452 82.338925 
L 321.544474 82.338925 
L 321.435759 82.002634 
L 321.537472 82.002634 
L 322.04469 82.002634 
L 321.93609 81.666343 
L 322.037268 81.666343 
L 345.131757 81.666343 
L 345.02503 81.330052 
L 345.106751 81.330052 
L 381.54 81.330052 
L 381.54 81.330052 
" style="fill:none;stroke:#1f77b4;stroke-linecap:square;stroke-width:2;"/>
   </g>
   <g id="line2d_46">
    <path clip-path="url(#pbbda2bde82)" d="M 76.5 448.223709 
L 76.5 423.001872 
L 82.65974 423.001872 
L 81.889773 419.302669 
L 81.440625 416.61234 
L 86.279381 416.61234 
L 85.283333 412.913137 
L 84.339669 408.541352 
L 83.424088 403.160693 
L 82.580769 396.771161 
L 81.799441 389.036464 
L 81.6 386.682426 
L 84.109091 386.682426 
L 83.243602 378.611438 
L 82.909459 374.912236 
L 85.007623 374.912236 
L 84.0888 365.832374 
L 83.882101 363.478336 
L 85.69186 363.478336 
L 84.734375 353.389601 
L 83.981073 343.637158 
L 85.449057 343.637158 
L 84.94451 337.247626 
L 86.322781 337.247626 
L 85.932102 332.539549 
L 87.249008 332.539549 
L 86.204348 319.760485 
L 87.389541 319.760485 
L 86.81087 312.36208 
L 87.928916 312.36208 
L 86.855895 297.90156 
L 86.443396 291.512028 
L 87.414854 291.512028 
L 86.893028 283.44104 
L 87.815308 283.44104 
L 87.445385 277.72409 
L 88.334741 277.72409 
L 87.451865 263.599861 
L 88.273404 263.599861 
L 88.231802 262.927279 
L 89.047619 262.927279 
L 88.724227 257.882912 
L 89.51681 257.882912 
L 89.450171 256.874038 
L 90.236116 256.874038 
L 90.143147 255.528873 
L 90.921284 255.528873 
L 90.752755 253.174835 
L 93.045349 253.174835 
L 92.990563 252.502253 
L 93.747273 252.502253 
L 93.411831 248.466759 
L 94.151942 248.466759 
L 93.95424 246.112721 
L 94.684026 246.112721 
L 93.826027 235.687695 
L 94.520517 235.687695 
L 94.277361 232.661075 
L 94.960778 232.661075 
L 94.933184 232.324783 
L 95.613582 232.324783 
L 95.52838 231.31591 
L 96.203858 231.31591 
L 96.03 229.298163 
L 96.697797 229.298163 
L 96.492297 226.944125 
L 97.151669 226.944125 
L 96.973381 224.926378 
L 97.625431 224.926378 
L 97.092857 218.873137 
L 97.727413 218.873137 
L 97.550763 216.85539 
L 98.178532 216.85539 
L 97.911628 213.828769 
L 98.530328 213.828769 
L 98.410598 212.483605 
L 99.636585 212.483605 
L 99.480888 210.802149 
L 100.0875 210.802149 
L 100.024263 210.129567 
L 100.627711 210.129567 
L 100.595455 209.793276 
L 102.393875 209.793276 
L 101.986632 205.757782 
L 102.574084 205.757782 
L 102.204 202.058579 
L 102.782088 202.058579 
L 102.680873 201.049705 
L 103.255385 201.049705 
L 103.017408 198.695667 
L 103.58566 198.695667 
L 103.112843 193.987591 
L 103.670361 193.987591 
L 103.636567 193.6513 
L 104.19205 193.6513 
L 104.021111 191.969844 
L 104.57201 191.969844 
L 104.230085 188.606932 
L 104.773358 188.606932 
L 104.739004 188.270641 
L 105.28034 188.270641 
L 105.175937 187.261768 
L 105.71413 187.261768 
L 105.67889 186.925477 
L 106.215181 186.925477 
L 106.037246 185.244021 
L 107.1 185.244021 
L 106.91829 183.562565 
L 107.44484 183.562565 
L 106.974883 179.19078 
L 107.492765 179.19078 
L 107.312993 177.509324 
L 107.826883 177.509324 
L 107.71836 176.500451 
L 108.229412 176.500451 
L 108.01134 174.482704 
L 108.517963 174.482704 
L 108.444863 173.810121 
L 108.949259 173.810121 
L 108.912301 173.47383 
L 110.417026 173.47383 
L 110.263729 172.128666 
L 111.257046 172.128666 
L 111.10101 170.783501 
L 111.593946 170.783501 
L 111.476313 169.774627 
L 111.966629 169.774627 
L 111.887639 169.102045 
L 112.375862 169.102045 
L 112.256541 168.093172 
L 112.742193 168.093172 
L 112.702102 167.75688 
L 113.186188 167.75688 
L 113.105292 167.084298 
L 113.587335 167.084298 
L 113.424671 165.739133 
L 114.381729 165.739133 
L 114.299017 165.066551 
L 114.775027 165.066551 
L 114.733333 164.73026 
L 116.153746 164.73026 
L 116.110738 164.393969 
L 116.58169 164.393969 
L 116.408738 163.048804 
L 116.876832 163.048804 
L 116.703541 161.70364 
L 117.16881 161.70364 
L 117.125268 161.367348 
L 118.051923 161.367348 
L 118.007577 161.031057 
L 118.468977 161.031057 
L 118.424281 160.694766 
L 118.884255 160.694766 
L 118.839214 160.358475 
L 119.297771 160.358475 
L 119.207097 159.685893 
L 120.119556 159.685893 
L 120.073495 159.349601 
L 120.527848 159.349601 
L 120.388959 158.340728 
L 120.841071 158.340728 
L 120.794544 158.004437 
L 121.695079 158.004437 
L 121.647803 157.668146 
L 122.096238 157.668146 
L 121.765145 155.314107 
L 122.209741 155.314107 
L 122.068079 154.305234 
L 123.392688 154.305234 
L 123.344444 153.968943 
L 123.783762 153.968943 
L 123.735216 153.632652 
L 124.610348 153.632652 
L 124.511963 152.960069 
L 125.381939 152.960069 
L 125.33211 152.623778 
L 125.765377 152.623778 
L 125.665244 151.951196 
L 126.527586 151.951196 
L 126.4769 151.614905 
L 126.906377 151.614905 
L 126.703125 150.26974 
L 127.130211 150.26974 
L 126.7758 147.915702 
L 127.199401 147.915702 
L 127.148802 147.579411 
L 127.571186 147.579411 
L 127.418887 146.570537 
L 127.839325 146.570537 
L 127.535242 144.55279 
L 128.785039 144.55279 
L 128.528991 142.871334 
L 128.942172 142.871334 
L 128.839746 142.198752 
L 129.662281 142.198752 
L 129.610516 141.862461 
L 130.020233 141.862461 
L 129.916311 141.189879 
L 130.324539 141.189879 
L 130.272384 140.853588 
L 131.085783 140.853588 
L 130.980405 140.181005 
L 131.385246 140.181005 
L 130.965072 137.490676 
L 132.166889 137.490676 
L 132.060857 136.818094 
L 132.459277 136.818094 
L 132.406084 136.481802 
L 132.803419 136.481802 
L 132.696682 135.80922 
L 133.487796 135.80922 
L 133.27295 134.464055 
L 134.058514 134.464055 
L 133.896529 133.455182 
L 135.066511 133.455182 
L 134.902612 132.446308 
L 135.290214 132.446308 
L 135.180837 131.773726 
L 135.5671 131.773726 
L 135.348333 130.428562 
L 136.499169 130.428562 
L 136.333425 129.419688 
L 136.714719 129.419688 
L 136.659375 129.083397 
L 137.419266 129.083397 
L 137.252059 128.074523 
L 137.630073 128.074523 
L 137.351956 126.393068 
L 138.851315 126.393068 
L 138.794837 126.056776 
L 139.539873 126.056776 
L 139.426083 125.384194 
L 141.274124 125.384194 
L 141.215978 125.047903 
L 143.046113 125.047903 
L 142.927386 124.375321 
L 143.653785 124.375321 
L 143.594039 124.039029 
L 143.956 124.039029 
L 143.896092 123.702738 
L 144.257143 123.702738 
L 144.137112 123.030156 
L 144.856233 123.030156 
L 144.795848 122.693865 
L 145.154192 122.693865 
L 145.093651 122.357574 
L 145.451101 122.357574 
L 145.390405 122.021282 
L 146.1029 122.021282 
L 145.798425 120.339827 
L 146.152448 120.339827 
L 146.091616 120.003536 
L 147.500522 120.003536 
L 147.438783 119.667244 
L 147.789227 119.667244 
L 147.665568 118.994662 
L 148.363636 118.994662 
L 148.301471 118.658371 
L 148.649352 118.658371 
L 148.524849 117.985789 
L 148.871638 117.985789 
L 148.622938 116.640624 
L 149.312779 116.640624 
L 149.250386 116.304333 
L 149.594178 116.304333 
L 149.469231 115.63175 
L 149.811956 115.63175 
L 149.500255 113.950295 
L 149.841206 113.950295 
L 149.778947 113.614003 
L 150.797629 113.614003 
L 150.734772 113.277712 
L 151.07295 113.277712 
L 151.009966 112.941421 
L 151.347342 112.941421 
L 151.22123 112.268839 
L 151.893356 112.268839 
L 151.83 111.932548 
L 152.164987 111.932548 
L 152.038139 111.259965 
L 154.033611 111.259965 
L 153.969 110.923674 
L 154.629285 110.923674 
L 154.564339 110.587383 
L 154.893439 110.587383 
L 154.828382 110.251092 
L 155.156716 110.251092 
L 154.961538 109.242218 
L 156.266859 109.242218 
L 156.004684 107.897054 
L 159.222249 107.897054 
L 159.154886 107.560763 
L 160.426461 107.560763 
L 160.358394 107.224471 
L 160.674797 107.224471 
L 160.538592 106.551889 
L 161.169063 106.551889 
L 161.100726 106.215598 
L 161.728767 106.215598 
L 161.660145 105.879307 
L 161.97321 105.879307 
L 161.904502 105.543016 
L 163.150962 105.543016 
L 163.081585 105.206724 
L 163.39176 105.206724 
L 163.322302 104.870433 
L 164.557291 104.870433 
L 164.487182 104.534142 
L 164.794511 104.534142 
L 164.724324 104.197851 
L 165.030977 104.197851 
L 164.890563 103.525269 
L 165.806487 103.525269 
L 165.665403 102.852686 
L 166.878425 102.852686 
L 166.736321 102.180104 
L 168.539437 102.180104 
L 168.323888 101.171231 
L 168.622231 101.171231 
L 168.550429 100.834939 
L 170.034317 100.834939 
L 169.961753 100.498648 
L 170.846053 100.498648 
L 170.773086 100.162357 
L 171.06677 100.162357 
L 170.993745 99.826066 
L 173.035714 99.826066 
L 172.961627 99.489775 
L 175.267277 99.489775 
L 175.191997 99.153484 
L 175.478065 99.153484 
L 175.40274 98.817192 
L 181.584431 98.817192 
L 181.505834 98.480901 
L 184.247439 98.480901 
L 184.167507 98.14461 
L 185.252219 98.14461 
L 185.17184 97.808319 
L 185.441876 97.808319 
L 185.361476 97.472028 
L 185.630973 97.472028 
L 185.47025 96.799445 
L 186.0075 96.799445 
L 185.927039 96.463154 
L 186.194934 96.463154 
L 186.114453 96.126863 
L 186.915373 96.126863 
L 186.834601 95.790572 
L 189.739985 95.790572 
L 189.57587 95.11799 
L 192.174604 95.11799 
L 192.091445 94.781698 
L 192.606461 94.781698 
L 192.523171 94.445407 
L 193.292555 94.445407 
L 193.209013 94.109116 
L 196.25234 94.109116 
L 196.16747 93.772825 
L 205.467702 93.772825 
L 205.378759 93.436534 
L 207.509527 93.436534 
L 207.419795 93.100243 
L 209.058282 93.100243 
L 208.967984 92.763951 
L 212.881212 92.763951 
L 212.789435 92.42766 
L 215.720814 92.42766 
L 215.628 92.091369 
L 218.946535 92.091369 
L 218.852573 91.755078 
L 219.726118 91.755078 
L 219.537911 91.082496 
L 221.05448 91.082496 
L 220.96 90.746205 
L 223.101818 90.746205 
L 223.006684 90.409913 
L 225.329961 90.409913 
L 225.234127 90.073622 
L 226.695 90.073622 
L 226.598783 89.737331 
L 227.220652 89.737331 
L 227.124345 89.40104 
L 229.179429 89.40104 
L 229.082551 89.064749 
L 229.286557 89.064749 
L 229.189734 88.728458 
L 230.205559 88.728458 
L 230.108523 88.392166 
L 230.714745 88.392166 
L 230.617632 88.055875 
L 237.329223 88.055875 
L 237.230129 87.719584 
L 242.548092 87.719584 
L 242.447579 87.383293 
L 242.820435 87.383293 
L 242.71994 87.047002 
L 243.091792 87.047002 
L 242.890958 86.374419 
L 262.526242 86.374419 
L 262.42132 86.038128 
L 262.583878 86.038128 
L 262.479042 85.701837 
L 262.803545 85.701837 
L 262.698763 85.365546 
L 264.78995 85.365546 
L 264.684877 85.029255 
L 265.480968 85.029255 
L 265.375862 84.692964 
L 274.295366 84.692964 
L 274.188853 84.356672 
L 275.52299 84.356672 
L 275.41639 84.020381 
L 275.711075 84.020381 
L 275.604545 83.68409 
L 277.504461 83.68409 
L 277.397771 83.347799 
L 280.695228 83.347799 
L 280.588208 83.011508 
L 282.695944 83.011508 
L 282.588773 82.675217 
L 289.117241 82.675217 
L 289.009478 82.338925 
L 291.76655 82.338925 
L 291.658647 82.002634 
L 297.250711 82.002634 
L 297.1425 81.666343 
L 304.154957 81.666343 
L 304.046498 81.330052 
L 309.450699 81.330052 
L 309.342198 80.993761 
L 309.454609 80.993761 
L 314.514722 80.993761 
L 314.406287 80.65747 
L 314.513934 80.65747 
L 315.157766 80.65747 
L 315.049433 80.321179 
L 315.156397 80.321179 
L 316.643778 80.321179 
L 316.535557 79.984887 
L 316.641081 79.984887 
L 320.479752 79.984887 
L 320.371701 79.648596 
L 320.473705 79.648596 
L 325.363648 79.648596 
L 325.255868 79.312305 
L 325.353506 79.312305 
L 336.574825 79.312305 
L 336.467887 78.976014 
L 336.55598 78.976014 
L 342.547623 78.976014 
L 342.441374 78.639723 
L 342.524551 78.639723 
L 353.100114 78.639723 
L 352.995341 78.303432 
L 353.070239 78.303432 
L 362.956727 78.303432 
L 362.853722 77.96714 
L 362.92128 77.96714 
L 377.956548 77.96714 
L 377.856893 77.630849 
L 377.97116 77.630849 
L 379.835 77.630849 
L 379.835 77.630849 
" style="fill:none;stroke:#ff7f0e;stroke-linecap:square;stroke-width:2;"/>
   </g>
   <g id="line2d_47">
    <path clip-path="url(#pbbda2bde82)" d="M 76.5 448.223709 
L 76.5 281.087002 
L 77.450501 281.087002 
L 77.345455 260.23695 
L 78.1879 260.23695 
L 78.184902 259.900659 
L 79.022872 259.900659 
L 79.009524 258.891785 
L 79.840141 258.891785 
L 79.29823 221.899757 
L 80.685 221.899757 
L 80.49691 211.13844 
L 81.156522 211.13844 
L 80.862812 194.996464 
L 81.479528 194.996464 
L 81.440625 192.978718 
L 82.65974 192.978718 
L 82.635834 191.969844 
L 83.240698 191.969844 
L 82.981118 181.544818 
L 83.561538 181.544818 
L 83.357349 173.47383 
L 83.919856 173.47383 
L 83.779693 168.093172 
L 84.330425 168.093172 
L 84.045682 157.331854 
L 84.575482 157.331854 
L 84.566327 156.995563 
L 85.094337 156.995563 
L 85.026742 154.641525 
L 86.071076 154.641525 
L 85.964967 151.278614 
L 86.479734 151.278614 
L 86.45768 150.606031 
L 86.970199 150.606031 
L 86.912733 148.924575 
L 87.421382 148.924575 
L 87.314658 145.897955 
L 87.817354 145.897955 
L 87.744181 143.880208 
L 88.242626 143.880208 
L 88.080573 139.508423 
L 88.571262 139.508423 
L 88.545714 138.835841 
L 89.034355 138.835841 
L 88.877349 134.800347 
L 89.35902 134.800347 
L 89.305607 133.455182 
L 89.784336 133.455182 
L 89.661459 130.428562 
L 90.134908 130.428562 
L 90.09304 129.419688 
L 91.034219 129.419688 
L 90.814889 124.375321 
L 91.277186 124.375321 
L 91.232766 123.366447 
L 91.692793 123.366447 
L 91.617131 121.684991 
L 92.53002 121.684991 
L 92.514101 121.3487 
L 92.96875 121.3487 
L 92.919881 120.339827 
L 93.372332 120.339827 
L 93.207241 116.976915 
L 94.100977 116.976915 
L 94.066667 116.304333 
L 94.511392 116.304333 
L 94.476385 115.63175 
L 94.919417 115.63175 
L 94.830435 113.950295 
L 95.27056 113.950295 
L 95.252459 113.614003 
L 95.691329 113.614003 
L 95.672859 113.277712 
L 96.110481 113.277712 
L 96.091643 112.941421 
L 96.528023 112.941421 
L 96.508821 112.60513 
L 96.943966 112.60513 
L 96.885387 111.596256 
L 97.318511 111.596256 
L 97.259087 110.587383 
L 98.120513 110.587383 
L 98.1 110.251092 
L 98.5291 110.251092 
L 98.508239 109.914801 
L 98.93614 109.914801 
L 98.914934 109.57851 
L 99.767547 109.57851 
L 99.745617 109.242218 
L 100.170339 109.242218 
L 100.148071 108.905927 
L 100.571617 108.905927 
L 100.549014 108.569636 
L 101.392971 108.569636 
L 101.3 107.224471 
L 102.137838 107.224471 
L 102.09014 106.551889 
L 102.507156 106.551889 
L 102.483008 106.215598 
L 102.898887 106.215598 
L 102.874421 105.879307 
L 103.289167 105.879307 
L 103.239649 105.206724 
L 104.065406 105.206724 
L 104.04 104.870433 
L 106.089358 104.870433 
L 106.035165 104.197851 
L 107.253699 104.197851 
L 107.225639 103.86156 
L 108.838636 103.86156 
L 108.75068 102.852686 
L 109.151087 102.852686 
L 109.092043 102.180104 
L 109.491057 102.180104 
L 109.461282 101.843813 
L 110.653015 101.843813 
L 110.622302 101.507522 
L 111.01779 101.507522 
L 110.740909 98.480901 
L 111.523932 98.480901 
L 111.430701 97.472028 
L 112.209035 97.472028 
L 112.145889 96.799445 
L 112.533392 96.799445 
L 112.406514 95.454281 
L 113.176977 95.454281 
L 113.112632 94.781698 
L 115.404188 94.781698 
L 115.37027 94.445407 
L 116.128198 94.445407 
L 116.093739 94.109116 
L 116.848438 94.109116 
L 116.813443 93.772825 
L 117.564935 93.772825 
L 117.529412 93.436534 
L 118.27772 93.436534 
L 118.20569 92.763951 
L 118.578295 92.763951 
L 118.542083 92.42766 
L 118.913758 92.42766 
L 118.840944 91.755078 
L 120.318991 91.755078 
L 120.206826 90.746205 
L 123.48823 90.746205 
L 123.448477 90.409913 
L 124.170355 90.409913 
L 124.130127 90.073622 
L 126.279597 90.073622 
L 126.237836 89.737331 
L 126.948995 89.737331 
L 126.906778 89.40104 
L 129.375374 89.40104 
L 129.331421 89.064749 
L 130.379851 89.064749 
L 130.290646 88.392166 
L 130.638462 88.392166 
L 130.593719 88.055875 
L 131.978254 88.055875 
L 131.887007 87.383293 
L 132.917966 87.383293 
L 132.825553 86.710711 
L 133.167594 86.710711 
L 133.121259 86.374419 
L 133.803184 86.374419 
L 133.61668 85.029255 
L 133.955854 85.029255 
L 133.90918 84.692964 
L 135.931285 84.692964 
L 135.883279 84.356672 
L 137.884486 84.356672 
L 137.835181 84.020381 
L 140.471828 84.020381 
L 140.420813 83.68409 
L 141.400239 83.68409 
L 141.348649 83.347799 
L 145.855189 83.347799 
L 145.800707 83.011508 
L 149.582802 83.011508 
L 149.525972 82.675217 
L 153.847385 82.675217 
L 153.787932 82.338925 
L 154.397314 82.338925 
L 154.337577 82.002634 
L 157.055141 82.002634 
L 156.993836 81.666343 
L 157.293308 81.666343 
L 157.231915 81.330052 
L 164.280896 81.330052 
L 164.215436 80.993761 
L 169.61625 80.993761 
L 169.547832 80.65747 
L 170.943338 80.65747 
L 170.87425 80.321179 
L 175.269631 80.321179 
L 175.198266 79.984887 
L 184.978184 79.984887 
L 184.901899 79.648596 
L 185.928261 79.648596 
L 185.851577 79.312305 
L 187.379623 79.312305 
L 187.302301 78.976014 
L 189.819598 78.976014 
L 189.662863 78.303432 
L 192.389362 78.303432 
L 192.309877 77.96714 
L 196.921462 77.96714 
L 196.839986 77.630849 
L 204.341126 77.630849 
L 204.256519 77.294558 
L 216.64097 77.294558 
L 216.551594 76.958267 
L 228.077401 76.958267 
L 227.984123 76.621976 
L 234.790482 76.621976 
L 234.695184 76.285685 
L 236.021763 76.285685 
L 235.926183 75.949393 
L 236.67902 75.949393 
L 236.583333 75.613102 
L 243.557769 75.613102 
L 243.460245 75.276811 
L 244.532984 75.276811 
L 244.435291 74.94052 
L 247.433679 74.94052 
L 247.335328 74.604229 
L 251.808163 74.604229 
L 251.708839 74.267938 
L 271.49 74.267938 
L 271.386885 73.931646 
L 283.676542 73.931646 
L 283.571854 73.595355 
L 290.413737 73.595355 
L 290.308465 73.259064 
L 299.342138 73.259064 
L 299.236325 72.922773 
L 320.855078 72.922773 
L 320.749067 72.586482 
L 320.848829 72.586482 
L 339.958091 72.586482 
L 339.853378 72.250191 
L 339.937187 72.250191 
L 344.526506 72.250191 
L 344.422378 71.913899 
L 344.502524 71.913899 
L 345.061813 71.913899 
L 344.95784 71.577608 
L 345.0375 71.577608 
L 374.626938 71.577608 
L 374.528188 71.241317 
L 374.586556 71.241317 
L 376.89 71.241317 
L 376.89 71.241317 
" style="fill:none;stroke:#2ca02c;stroke-linecap:square;stroke-width:2;"/>
   </g>
   <g id="patch_3">
    <path d="M 76.5 448.56 
L 76.5 60.48 
" style="fill:none;stroke:#000000;stroke-linecap:square;stroke-linejoin:miter;stroke-width:0.8;"/>
   </g>
   <g id="patch_4">
    <path d="M 550.8 448.56 
L 550.8 60.48 
" style="fill:none;stroke:#000000;stroke-linecap:square;stroke-linejoin:miter;stroke-width:0.8;"/>
   </g>
   <g id="patch_5">
    <path d="M 76.5 448.56 
L 550.8 448.56 
" style="fill:none;stroke:#000000;stroke-linecap:square;stroke-linejoin:miter;stroke-width:0.8;"/>
   </g>
   <g id="patch_6">
    <path d="M 76.5 60.48 
L 550.8 60.48 
" style="fill:none;stroke:#000000;stroke-linecap:square;stroke-linejoin:miter;stroke-width:0.8;"/>
   </g>
   <g id="text_25">
    <!-- graf: img1-img2 -->
    <defs>
     <path d="M 45.40625 27.984375 
Q 45.40625 37.75 41.375 43.109375 
Q 37.359375 48.484375 30.078125 48.484375 
Q 22.859375 48.484375 18.828125 43.109375 
Q 14.796875 37.75 14.796875 27.984375 
Q 14.796875 18.265625 18.828125 12.890625 
Q 22.859375 7.515625 30.078125 7.515625 
Q 37.359375 7.515625 41.375 12.890625 
Q 45.40625 18.265625 45.40625 27.984375 
z
M 54.390625 6.78125 
Q 54.390625 -7.171875 48.1875 -13.984375 
Q 42 -20.796875 29.203125 -20.796875 
Q 24.46875 -20.796875 20.265625 -20.09375 
Q 16.0625 -19.390625 12.109375 -17.921875 
L 12.109375 -9.1875 
Q 16.0625 -11.328125 19.921875 -12.34375 
Q 23.78125 -13.375 27.78125 -13.375 
Q 36.625 -13.375 41.015625 -8.765625 
Q 45.40625 -4.15625 45.40625 5.171875 
L 45.40625 9.625 
Q 42.625 4.78125 38.28125 2.390625 
Q 33.9375 0 27.875 0 
Q 17.828125 0 11.671875 7.65625 
Q 5.515625 15.328125 5.515625 27.984375 
Q 5.515625 40.671875 11.671875 48.328125 
Q 17.828125 56 27.875 56 
Q 33.9375 56 38.28125 53.609375 
Q 42.625 51.21875 45.40625 46.390625 
L 45.40625 54.6875 
L 54.390625 54.6875 
z
" id="DejaVuSans-103"/>
     <path d="M 34.28125 27.484375 
Q 23.390625 27.484375 19.1875 25 
Q 14.984375 22.515625 14.984375 16.5 
Q 14.984375 11.71875 18.140625 8.90625 
Q 21.296875 6.109375 26.703125 6.109375 
Q 34.1875 6.109375 38.703125 11.40625 
Q 43.21875 16.703125 43.21875 25.484375 
L 43.21875 27.484375 
z
M 52.203125 31.203125 
L 52.203125 0 
L 43.21875 0 
L 43.21875 8.296875 
Q 40.140625 3.328125 35.546875 0.953125 
Q 30.953125 -1.421875 24.3125 -1.421875 
Q 15.921875 -1.421875 10.953125 3.296875 
Q 6 8.015625 6 15.921875 
Q 6 25.140625 12.171875 29.828125 
Q 18.359375 34.515625 30.609375 34.515625 
L 43.21875 34.515625 
L 43.21875 35.40625 
Q 43.21875 41.609375 39.140625 45 
Q 35.0625 48.390625 27.6875 48.390625 
Q 23 48.390625 18.546875 47.265625 
Q 14.109375 46.140625 10.015625 43.890625 
L 10.015625 52.203125 
Q 14.9375 54.109375 19.578125 55.046875 
Q 24.21875 56 28.609375 56 
Q 40.484375 56 46.34375 49.84375 
Q 52.203125 43.703125 52.203125 31.203125 
z
" id="DejaVuSans-97"/>
     <path d="M 37.109375 75.984375 
L 37.109375 68.5 
L 28.515625 68.5 
Q 23.6875 68.5 21.796875 66.546875 
Q 19.921875 64.59375 19.921875 59.515625 
L 19.921875 54.6875 
L 34.71875 54.6875 
L 34.71875 47.703125 
L 19.921875 47.703125 
L 19.921875 0 
L 10.890625 0 
L 10.890625 47.703125 
L 2.296875 47.703125 
L 2.296875 54.6875 
L 10.890625 54.6875 
L 10.890625 58.5 
Q 10.890625 67.625 15.140625 71.796875 
Q 19.390625 75.984375 28.609375 75.984375 
z
" id="DejaVuSans-102"/>
     <path d="M 11.71875 12.40625 
L 22.015625 12.40625 
L 22.015625 0 
L 11.71875 0 
z
M 11.71875 51.703125 
L 22.015625 51.703125 
L 22.015625 39.3125 
L 11.71875 39.3125 
z
" id="DejaVuSans-58"/>
     <path id="DejaVuSans-32"/>
     <path d="M 52 44.1875 
Q 55.375 50.25 60.0625 53.125 
Q 64.75 56 71.09375 56 
Q 79.640625 56 84.28125 50.015625 
Q 88.921875 44.046875 88.921875 33.015625 
L 88.921875 0 
L 79.890625 0 
L 79.890625 32.71875 
Q 79.890625 40.578125 77.09375 44.375 
Q 74.3125 48.1875 68.609375 48.1875 
Q 61.625 48.1875 57.5625 43.546875 
Q 53.515625 38.921875 53.515625 30.90625 
L 53.515625 0 
L 44.484375 0 
L 44.484375 32.71875 
Q 44.484375 40.625 41.703125 44.40625 
Q 38.921875 48.1875 33.109375 48.1875 
Q 26.21875 48.1875 22.15625 43.53125 
Q 18.109375 38.875 18.109375 30.90625 
L 18.109375 0 
L 9.078125 0 
L 9.078125 54.6875 
L 18.109375 54.6875 
L 18.109375 46.1875 
Q 21.1875 51.21875 25.484375 53.609375 
Q 29.78125 56 35.6875 56 
Q 41.65625 56 45.828125 52.96875 
Q 50 49.953125 52 44.1875 
z
" id="DejaVuSans-109"/>
    </defs>
    <g transform="translate(265.434375 41.042625)scale(0.12 -0.12)">
     <use xlink:href="#DejaVuSans-103"/>
     <use x="63.476562" xlink:href="#DejaVuSans-114"/>
     <use x="104.589844" xlink:href="#DejaVuSans-97"/>
     <use x="165.869141" xlink:href="#DejaVuSans-102"/>
     <use x="197.449219" xlink:href="#DejaVuSans-58"/>
     <use x="231.140625" xlink:href="#DejaVuSans-32"/>
     <use x="262.927734" xlink:href="#DejaVuSans-105"/>
     <use x="290.710938" xlink:href="#DejaVuSans-109"/>
     <use x="388.123047" xlink:href="#DejaVuSans-103"/>
     <use x="451.599609" xlink:href="#DejaVuSans-49"/>
     <use x="515.222656" xlink:href="#DejaVuSans-45"/>
     <use x="551.306641" xlink:href="#DejaVuSans-105"/>
     <use x="579.089844" xlink:href="#DejaVuSans-109"/>
     <use x="676.501953" xlink:href="#DejaVuSans-103"/>
     <use x="739.978516" xlink:href="#DejaVuSans-50"/>
    </g>
    <!-- NearestNeighbours -->
    <defs>
     <path d="M 9.8125 72.90625 
L 23.09375 72.90625 
L 55.421875 11.921875 
L 55.421875 72.90625 
L 64.984375 72.90625 
L 64.984375 0 
L 51.703125 0 
L 19.390625 60.984375 
L 19.390625 0 
L 9.8125 0 
z
" id="DejaVuSans-78"/>
     <path d="M 54.890625 33.015625 
L 54.890625 0 
L 45.90625 0 
L 45.90625 32.71875 
Q 45.90625 40.484375 42.875 44.328125 
Q 39.84375 48.1875 33.796875 48.1875 
Q 26.515625 48.1875 22.3125 43.546875 
Q 18.109375 38.921875 18.109375 30.90625 
L 18.109375 0 
L 9.078125 0 
L 9.078125 75.984375 
L 18.109375 75.984375 
L 18.109375 46.1875 
Q 21.34375 51.125 25.703125 53.5625 
Q 30.078125 56 35.796875 56 
Q 45.21875 56 50.046875 50.171875 
Q 54.890625 44.34375 54.890625 33.015625 
z
" id="DejaVuSans-104"/>
     <path d="M 48.6875 27.296875 
Q 48.6875 37.203125 44.609375 42.84375 
Q 40.53125 48.484375 33.40625 48.484375 
Q 26.265625 48.484375 22.1875 42.84375 
Q 18.109375 37.203125 18.109375 27.296875 
Q 18.109375 17.390625 22.1875 11.75 
Q 26.265625 6.109375 33.40625 6.109375 
Q 40.53125 6.109375 44.609375 11.75 
Q 48.6875 17.390625 48.6875 27.296875 
z
M 18.109375 46.390625 
Q 20.953125 51.265625 25.265625 53.625 
Q 29.59375 56 35.59375 56 
Q 45.5625 56 51.78125 48.09375 
Q 58.015625 40.1875 58.015625 27.296875 
Q 58.015625 14.40625 51.78125 6.484375 
Q 45.5625 -1.421875 35.59375 -1.421875 
Q 29.59375 -1.421875 25.265625 0.953125 
Q 20.953125 3.328125 18.109375 8.203125 
L 18.109375 0 
L 9.078125 0 
L 9.078125 75.984375 
L 18.109375 75.984375 
z
" id="DejaVuSans-98"/>
     <path d="M 8.5 21.578125 
L 8.5 54.6875 
L 17.484375 54.6875 
L 17.484375 21.921875 
Q 17.484375 14.15625 20.5 10.265625 
Q 23.53125 6.390625 29.59375 6.390625 
Q 36.859375 6.390625 41.078125 11.03125 
Q 45.3125 15.671875 45.3125 23.6875 
L 45.3125 54.6875 
L 54.296875 54.6875 
L 54.296875 0 
L 45.3125 0 
L 45.3125 8.40625 
Q 42.046875 3.421875 37.71875 1 
Q 33.40625 -1.421875 27.6875 -1.421875 
Q 18.265625 -1.421875 13.375 4.4375 
Q 8.5 10.296875 8.5 21.578125 
z
M 31.109375 56 
z
" id="DejaVuSans-117"/>
    </defs>
    <g transform="translate(255.957188 54.48)scale(0.12 -0.12)">
     <use xlink:href="#DejaVuSans-78"/>
     <use x="74.804688" xlink:href="#DejaVuSans-101"/>
     <use x="136.328125" xlink:href="#DejaVuSans-97"/>
     <use x="197.607422" xlink:href="#DejaVuSans-114"/>
     <use x="236.470703" xlink:href="#DejaVuSans-101"/>
     <use x="297.994141" xlink:href="#DejaVuSans-115"/>
     <use x="350.09375" xlink:href="#DejaVuSans-116"/>
     <use x="389.302734" xlink:href="#DejaVuSans-78"/>
     <use x="464.107422" xlink:href="#DejaVuSans-101"/>
     <use x="525.630859" xlink:href="#DejaVuSans-105"/>
     <use x="553.414062" xlink:href="#DejaVuSans-103"/>
     <use x="616.890625" xlink:href="#DejaVuSans-104"/>
     <use x="680.269531" xlink:href="#DejaVuSans-98"/>
     <use x="743.746094" xlink:href="#DejaVuSans-111"/>
     <use x="804.927734" xlink:href="#DejaVuSans-117"/>
     <use x="868.306641" xlink:href="#DejaVuSans-114"/>
     <use x="909.419922" xlink:href="#DejaVuSans-115"/>
    </g>
   </g>
   <g id="legend_1">
    <g id="patch_7">
     <path d="M 362.659375 443.56 
L 543.8 443.56 
Q 545.8 443.56 545.8 441.56 
L 545.8 398.525625 
Q 545.8 396.525625 543.8 396.525625 
L 362.659375 396.525625 
Q 360.659375 396.525625 360.659375 398.525625 
L 360.659375 441.56 
Q 360.659375 443.56 362.659375 443.56 
z
" style="fill:#ffffff;opacity:0.8;stroke:#cccccc;stroke-linejoin:miter;"/>
    </g>
    <g id="line2d_48">
     <path d="M 364.659375 404.624063 
L 384.659375 404.624063 
" style="fill:none;stroke:#1f77b4;stroke-linecap:square;stroke-width:2;"/>
    </g>
    <g id="line2d_49"/>
    <g id="text_26">
     <!-- root-cvsift AP: 88.0, %In: 35.7 -->
     <defs>
      <path d="M 2.984375 54.6875 
L 12.5 54.6875 
L 29.59375 8.796875 
L 46.6875 54.6875 
L 56.203125 54.6875 
L 35.6875 0 
L 23.484375 0 
z
" id="DejaVuSans-118"/>
      <path d="M 34.1875 63.1875 
L 20.796875 26.90625 
L 47.609375 26.90625 
z
M 28.609375 72.90625 
L 39.796875 72.90625 
L 67.578125 0 
L 57.328125 0 
L 50.6875 18.703125 
L 17.828125 18.703125 
L 11.1875 0 
L 0.78125 0 
z
" id="DejaVuSans-65"/>
      <path d="M 19.671875 64.796875 
L 19.671875 37.40625 
L 32.078125 37.40625 
Q 38.96875 37.40625 42.71875 40.96875 
Q 46.484375 44.53125 46.484375 51.125 
Q 46.484375 57.671875 42.71875 61.234375 
Q 38.96875 64.796875 32.078125 64.796875 
z
M 9.8125 72.90625 
L 32.078125 72.90625 
Q 44.34375 72.90625 50.609375 67.359375 
Q 56.890625 61.8125 56.890625 51.125 
Q 56.890625 40.328125 50.609375 34.8125 
Q 44.34375 29.296875 32.078125 29.296875 
L 19.671875 29.296875 
L 19.671875 0 
L 9.8125 0 
z
" id="DejaVuSans-80"/>
      <path d="M 11.71875 12.40625 
L 22.015625 12.40625 
L 22.015625 4 
L 14.015625 -11.625 
L 7.71875 -11.625 
L 11.71875 4 
z
" id="DejaVuSans-44"/>
      <path d="M 72.703125 32.078125 
Q 68.453125 32.078125 66.03125 28.46875 
Q 63.625 24.859375 63.625 18.40625 
Q 63.625 12.0625 66.03125 8.421875 
Q 68.453125 4.78125 72.703125 4.78125 
Q 76.859375 4.78125 79.265625 8.421875 
Q 81.6875 12.0625 81.6875 18.40625 
Q 81.6875 24.8125 79.265625 28.4375 
Q 76.859375 32.078125 72.703125 32.078125 
z
M 72.703125 38.28125 
Q 80.421875 38.28125 84.953125 32.90625 
Q 89.5 27.546875 89.5 18.40625 
Q 89.5 9.28125 84.9375 3.921875 
Q 80.375 -1.421875 72.703125 -1.421875 
Q 64.890625 -1.421875 60.34375 3.921875 
Q 55.8125 9.28125 55.8125 18.40625 
Q 55.8125 27.59375 60.375 32.9375 
Q 64.9375 38.28125 72.703125 38.28125 
z
M 22.3125 68.015625 
Q 18.109375 68.015625 15.6875 64.375 
Q 13.28125 60.75 13.28125 54.390625 
Q 13.28125 47.953125 15.671875 44.328125 
Q 18.0625 40.71875 22.3125 40.71875 
Q 26.5625 40.71875 28.96875 44.328125 
Q 31.390625 47.953125 31.390625 54.390625 
Q 31.390625 60.6875 28.953125 64.34375 
Q 26.515625 68.015625 22.3125 68.015625 
z
M 66.40625 74.21875 
L 74.21875 74.21875 
L 28.609375 -1.421875 
L 20.796875 -1.421875 
z
M 22.3125 74.21875 
Q 30.03125 74.21875 34.609375 68.875 
Q 39.203125 63.53125 39.203125 54.390625 
Q 39.203125 45.171875 34.640625 39.84375 
Q 30.078125 34.515625 22.3125 34.515625 
Q 14.546875 34.515625 10.03125 39.859375 
Q 5.515625 45.21875 5.515625 54.390625 
Q 5.515625 63.484375 10.046875 68.84375 
Q 14.59375 74.21875 22.3125 74.21875 
z
" id="DejaVuSans-37"/>
      <path d="M 9.8125 72.90625 
L 19.671875 72.90625 
L 19.671875 0 
L 9.8125 0 
z
" id="DejaVuSans-73"/>
     </defs>
     <g transform="translate(392.659375 408.124063)scale(0.1 -0.1)">
      <use xlink:href="#DejaVuSans-114"/>
      <use x="38.863281" xlink:href="#DejaVuSans-111"/>
      <use x="100.044922" xlink:href="#DejaVuSans-111"/>
      <use x="161.226562" xlink:href="#DejaVuSans-116"/>
      <use x="200.435547" xlink:href="#DejaVuSans-45"/>
      <use x="236.519531" xlink:href="#DejaVuSans-99"/>
      <use x="291.5" xlink:href="#DejaVuSans-118"/>
      <use x="350.679688" xlink:href="#DejaVuSans-115"/>
      <use x="402.779297" xlink:href="#DejaVuSans-105"/>
      <use x="430.5625" xlink:href="#DejaVuSans-102"/>
      <use x="464.017578" xlink:href="#DejaVuSans-116"/>
      <use x="503.226562" xlink:href="#DejaVuSans-32"/>
      <use x="535.013672" xlink:href="#DejaVuSans-65"/>
      <use x="603.421875" xlink:href="#DejaVuSans-80"/>
      <use x="663.724609" xlink:href="#DejaVuSans-58"/>
      <use x="697.416016" xlink:href="#DejaVuSans-32"/>
      <use x="729.203125" xlink:href="#DejaVuSans-56"/>
      <use x="792.826172" xlink:href="#DejaVuSans-56"/>
      <use x="856.449219" xlink:href="#DejaVuSans-46"/>
      <use x="888.236328" xlink:href="#DejaVuSans-48"/>
      <use x="951.859375" xlink:href="#DejaVuSans-44"/>
      <use x="983.646484" xlink:href="#DejaVuSans-32"/>
      <use x="1015.433594" xlink:href="#DejaVuSans-37"/>
      <use x="1110.453125" xlink:href="#DejaVuSans-73"/>
      <use x="1139.945312" xlink:href="#DejaVuSans-110"/>
      <use x="1203.324219" xlink:href="#DejaVuSans-58"/>
      <use x="1237.015625" xlink:href="#DejaVuSans-32"/>
      <use x="1268.802734" xlink:href="#DejaVuSans-51"/>
      <use x="1332.425781" xlink:href="#DejaVuSans-53"/>
      <use x="1396.048828" xlink:href="#DejaVuSans-46"/>
      <use x="1427.835938" xlink:href="#DejaVuSans-55"/>
     </g>
    </g>
    <g id="line2d_50">
     <path d="M 364.659375 419.302188 
L 384.659375 419.302188 
" style="fill:none;stroke:#ff7f0e;stroke-linecap:square;stroke-width:2;"/>
    </g>
    <g id="line2d_51"/>
    <g id="text_27">
     <!-- tfeat AP: 89.3, %In: 36.0 -->
     <g transform="translate(392.659375 422.802188)scale(0.1 -0.1)">
      <use xlink:href="#DejaVuSans-116"/>
      <use x="39.208984" xlink:href="#DejaVuSans-102"/>
      <use x="74.414062" xlink:href="#DejaVuSans-101"/>
      <use x="135.9375" xlink:href="#DejaVuSans-97"/>
      <use x="197.216797" xlink:href="#DejaVuSans-116"/>
      <use x="236.425781" xlink:href="#DejaVuSans-32"/>
      <use x="268.212891" xlink:href="#DejaVuSans-65"/>
      <use x="336.621094" xlink:href="#DejaVuSans-80"/>
      <use x="396.923828" xlink:href="#DejaVuSans-58"/>
      <use x="430.615234" xlink:href="#DejaVuSans-32"/>
      <use x="462.402344" xlink:href="#DejaVuSans-56"/>
      <use x="526.025391" xlink:href="#DejaVuSans-57"/>
      <use x="589.648438" xlink:href="#DejaVuSans-46"/>
      <use x="621.435547" xlink:href="#DejaVuSans-51"/>
      <use x="685.058594" xlink:href="#DejaVuSans-44"/>
      <use x="716.845703" xlink:href="#DejaVuSans-32"/>
      <use x="748.632812" xlink:href="#DejaVuSans-37"/>
      <use x="843.652344" xlink:href="#DejaVuSans-73"/>
      <use x="873.144531" xlink:href="#DejaVuSans-110"/>
      <use x="936.523438" xlink:href="#DejaVuSans-58"/>
      <use x="970.214844" xlink:href="#DejaVuSans-32"/>
      <use x="1002.001953" xlink:href="#DejaVuSans-51"/>
      <use x="1065.625" xlink:href="#DejaVuSans-54"/>
      <use x="1129.248047" xlink:href="#DejaVuSans-46"/>
      <use x="1161.035156" xlink:href="#DejaVuSans-48"/>
     </g>
    </g>
    <g id="line2d_52">
     <path d="M 364.659375 433.980313 
L 384.659375 433.980313 
" style="fill:none;stroke:#2ca02c;stroke-linecap:square;stroke-width:2;"/>
    </g>
    <g id="line2d_53"/>
    <g id="text_28">
     <!-- hardnet AP: 95.0, %In: 36.7 -->
     <defs>
      <path d="M 45.40625 46.390625 
L 45.40625 75.984375 
L 54.390625 75.984375 
L 54.390625 0 
L 45.40625 0 
L 45.40625 8.203125 
Q 42.578125 3.328125 38.25 0.953125 
Q 33.9375 -1.421875 27.875 -1.421875 
Q 17.96875 -1.421875 11.734375 6.484375 
Q 5.515625 14.40625 5.515625 27.296875 
Q 5.515625 40.1875 11.734375 48.09375 
Q 17.96875 56 27.875 56 
Q 33.9375 56 38.25 53.625 
Q 42.578125 51.265625 45.40625 46.390625 
z
M 14.796875 27.296875 
Q 14.796875 17.390625 18.875 11.75 
Q 22.953125 6.109375 30.078125 6.109375 
Q 37.203125 6.109375 41.296875 11.75 
Q 45.40625 17.390625 45.40625 27.296875 
Q 45.40625 37.203125 41.296875 42.84375 
Q 37.203125 48.484375 30.078125 48.484375 
Q 22.953125 48.484375 18.875 42.84375 
Q 14.796875 37.203125 14.796875 27.296875 
z
" id="DejaVuSans-100"/>
     </defs>
     <g transform="translate(392.659375 437.480313)scale(0.1 -0.1)">
      <use xlink:href="#DejaVuSans-104"/>
      <use x="63.378906" xlink:href="#DejaVuSans-97"/>
      <use x="124.658203" xlink:href="#DejaVuSans-114"/>
      <use x="164.021484" xlink:href="#DejaVuSans-100"/>
      <use x="227.498047" xlink:href="#DejaVuSans-110"/>
      <use x="290.876953" xlink:href="#DejaVuSans-101"/>
      <use x="352.400391" xlink:href="#DejaVuSans-116"/>
      <use x="391.609375" xlink:href="#DejaVuSans-32"/>
      <use x="423.396484" xlink:href="#DejaVuSans-65"/>
      <use x="491.804688" xlink:href="#DejaVuSans-80"/>
      <use x="552.107422" xlink:href="#DejaVuSans-58"/>
      <use x="585.798828" xlink:href="#DejaVuSans-32"/>
      <use x="617.585938" xlink:href="#DejaVuSans-57"/>
      <use x="681.208984" xlink:href="#DejaVuSans-53"/>
      <use x="744.832031" xlink:href="#DejaVuSans-46"/>
      <use x="776.619141" xlink:href="#DejaVuSans-48"/>
      <use x="840.242188" xlink:href="#DejaVuSans-44"/>
      <use x="872.029297" xlink:href="#DejaVuSans-32"/>
      <use x="903.816406" xlink:href="#DejaVuSans-37"/>
      <use x="998.835938" xlink:href="#DejaVuSans-73"/>
      <use x="1028.328125" xlink:href="#DejaVuSans-110"/>
      <use x="1091.707031" xlink:href="#DejaVuSans-58"/>
      <use x="1125.398438" xlink:href="#DejaVuSans-32"/>
      <use x="1157.185547" xlink:href="#DejaVuSans-51"/>
      <use x="1220.808594" xlink:href="#DejaVuSans-54"/>
      <use x="1284.431641" xlink:href="#DejaVuSans-46"/>
      <use x="1316.21875" xlink:href="#DejaVuSans-55"/>
     </g>
    </g>
   </g>
  </g>
 </g>
 <defs>
  <clipPath id="pbbda2bde82">
   <rect height="388.08" width="474.3" x="76.5" y="60.48"/>
  </clipPath>
 </defs>
</svg>
