<?xml version="1.0" encoding="utf-8" standalone="no"?>
<!DOCTYPE svg PUBLIC "-//W3C//DTD SVG 1.1//EN"
  "http://www.w3.org/Graphics/SVG/1.1/DTD/svg11.dtd">
<!-- Created with matplotlib (https://matplotlib.org/) -->
<svg height="504pt" version="1.1" viewBox="0 0 612 504" width="612pt" xmlns="http://www.w3.org/2000/svg" xmlns:xlink="http://www.w3.org/1999/xlink">
 <defs>
  <style type="text/css">
*{stroke-linecap:butt;stroke-linejoin:round;}
  </style>
 </defs>
 <g id="figure_1">
  <g id="patch_1">
   <path d="M 0 504 
L 612 504 
L 612 0 
L 0 0 
z
" style="fill:#ffffff;"/>
  </g>
  <g id="axes_1">
   <g id="patch_2">
    <path d="M 76.5 448.56 
L 550.8 448.56 
L 550.8 60.48 
L 76.5 60.48 
z
" style="fill:#ffffff;"/>
   </g>
   <g id="matplotlib.axis_1">
    <g id="xtick_1">
     <g id="line2d_1">
      <path clip-path="url(#p831e29b04d)" d="M 76.5 448.56 
L 76.5 60.48 
" style="fill:none;stroke:#b0b0b0;stroke-linecap:square;stroke-width:0.8;"/>
     </g>
     <g id="line2d_2">
      <defs>
       <path d="M 0 0 
L 0 3.5 
" id="m3e1b5c56fc" style="stroke:#000000;stroke-width:0.8;"/>
      </defs>
      <g>
       <use style="stroke:#000000;stroke-width:0.8;" x="76.5" xlink:href="#m3e1b5c56fc" y="448.56"/>
      </g>
     </g>
     <g id="text_1">
      <!-- 0.0 -->
      <defs>
       <path d="M 31.78125 66.40625 
Q 24.171875 66.40625 20.328125 58.90625 
Q 16.5 51.421875 16.5 36.375 
Q 16.5 21.390625 20.328125 13.890625 
Q 24.171875 6.390625 31.78125 6.390625 
Q 39.453125 6.390625 43.28125 13.890625 
Q 47.125 21.390625 47.125 36.375 
Q 47.125 51.421875 43.28125 58.90625 
Q 39.453125 66.40625 31.78125 66.40625 
z
M 31.78125 74.21875 
Q 44.046875 74.21875 50.515625 64.515625 
Q 56.984375 54.828125 56.984375 36.375 
Q 56.984375 17.96875 50.515625 8.265625 
Q 44.046875 -1.421875 31.78125 -1.421875 
Q 19.53125 -1.421875 13.0625 8.265625 
Q 6.59375 17.96875 6.59375 36.375 
Q 6.59375 54.828125 13.0625 64.515625 
Q 19.53125 74.21875 31.78125 74.21875 
z
" id="DejaVuSans-48"/>
       <path d="M 10.6875 12.40625 
L 21 12.40625 
L 21 0 
L 10.6875 0 
z
" id="DejaVuSans-46"/>
      </defs>
      <g transform="translate(68.548438 463.158437)scale(0.1 -0.1)">
       <use xlink:href="#DejaVuSans-48"/>
       <use x="63.623047" xlink:href="#DejaVuSans-46"/>
       <use x="95.410156" xlink:href="#DejaVuSans-48"/>
      </g>
     </g>
    </g>
    <g id="xtick_2">
     <g id="line2d_3">
      <path clip-path="url(#p831e29b04d)" d="M 123.93 448.56 
L 123.93 60.48 
" style="fill:none;stroke:#b0b0b0;stroke-linecap:square;stroke-width:0.8;"/>
     </g>
     <g id="line2d_4">
      <g>
       <use style="stroke:#000000;stroke-width:0.8;" x="123.93" xlink:href="#m3e1b5c56fc" y="448.56"/>
      </g>
     </g>
     <g id="text_2">
      <!-- 0.1 -->
      <defs>
       <path d="M 12.40625 8.296875 
L 28.515625 8.296875 
L 28.515625 63.921875 
L 10.984375 60.40625 
L 10.984375 69.390625 
L 28.421875 72.90625 
L 38.28125 72.90625 
L 38.28125 8.296875 
L 54.390625 8.296875 
L 54.390625 0 
L 12.40625 0 
z
" id="DejaVuSans-49"/>
      </defs>
      <g transform="translate(115.978438 463.158437)scale(0.1 -0.1)">
       <use xlink:href="#DejaVuSans-48"/>
       <use x="63.623047" xlink:href="#DejaVuSans-46"/>
       <use x="95.410156" xlink:href="#DejaVuSans-49"/>
      </g>
     </g>
    </g>
    <g id="xtick_3">
     <g id="line2d_5">
      <path clip-path="url(#p831e29b04d)" d="M 171.36 448.56 
L 171.36 60.48 
" style="fill:none;stroke:#b0b0b0;stroke-linecap:square;stroke-width:0.8;"/>
     </g>
     <g id="line2d_6">
      <g>
       <use style="stroke:#000000;stroke-width:0.8;" x="171.36" xlink:href="#m3e1b5c56fc" y="448.56"/>
      </g>
     </g>
     <g id="text_3">
      <!-- 0.2 -->
      <defs>
       <path d="M 19.1875 8.296875 
L 53.609375 8.296875 
L 53.609375 0 
L 7.328125 0 
L 7.328125 8.296875 
Q 12.9375 14.109375 22.625 23.890625 
Q 32.328125 33.6875 34.8125 36.53125 
Q 39.546875 41.84375 41.421875 45.53125 
Q 43.3125 49.21875 43.3125 52.78125 
Q 43.3125 58.59375 39.234375 62.25 
Q 35.15625 65.921875 28.609375 65.921875 
Q 23.96875 65.921875 18.8125 64.3125 
Q 13.671875 62.703125 7.8125 59.421875 
L 7.8125 69.390625 
Q 13.765625 71.78125 18.9375 73 
Q 24.125 74.21875 28.421875 74.21875 
Q 39.75 74.21875 46.484375 68.546875 
Q 53.21875 62.890625 53.21875 53.421875 
Q 53.21875 48.921875 51.53125 44.890625 
Q 49.859375 40.875 45.40625 35.40625 
Q 44.1875 33.984375 37.640625 27.21875 
Q 31.109375 20.453125 19.1875 8.296875 
z
" id="DejaVuSans-50"/>
      </defs>
      <g transform="translate(163.408438 463.158437)scale(0.1 -0.1)">
       <use xlink:href="#DejaVuSans-48"/>
       <use x="63.623047" xlink:href="#DejaVuSans-46"/>
       <use x="95.410156" xlink:href="#DejaVuSans-50"/>
      </g>
     </g>
    </g>
    <g id="xtick_4">
     <g id="line2d_7">
      <path clip-path="url(#p831e29b04d)" d="M 218.79 448.56 
L 218.79 60.48 
" style="fill:none;stroke:#b0b0b0;stroke-linecap:square;stroke-width:0.8;"/>
     </g>
     <g id="line2d_8">
      <g>
       <use style="stroke:#000000;stroke-width:0.8;" x="218.79" xlink:href="#m3e1b5c56fc" y="448.56"/>
      </g>
     </g>
     <g id="text_4">
      <!-- 0.3 -->
      <defs>
       <path d="M 40.578125 39.3125 
Q 47.65625 37.796875 51.625 33 
Q 55.609375 28.21875 55.609375 21.1875 
Q 55.609375 10.40625 48.1875 4.484375 
Q 40.765625 -1.421875 27.09375 -1.421875 
Q 22.515625 -1.421875 17.65625 -0.515625 
Q 12.796875 0.390625 7.625 2.203125 
L 7.625 11.71875 
Q 11.71875 9.328125 16.59375 8.109375 
Q 21.484375 6.890625 26.8125 6.890625 
Q 36.078125 6.890625 40.9375 10.546875 
Q 45.796875 14.203125 45.796875 21.1875 
Q 45.796875 27.640625 41.28125 31.265625 
Q 36.765625 34.90625 28.71875 34.90625 
L 20.21875 34.90625 
L 20.21875 43.015625 
L 29.109375 43.015625 
Q 36.375 43.015625 40.234375 45.921875 
Q 44.09375 48.828125 44.09375 54.296875 
Q 44.09375 59.90625 40.109375 62.90625 
Q 36.140625 65.921875 28.71875 65.921875 
Q 24.65625 65.921875 20.015625 65.03125 
Q 15.375 64.15625 9.8125 62.3125 
L 9.8125 71.09375 
Q 15.4375 72.65625 20.34375 73.4375 
Q 25.25 74.21875 29.59375 74.21875 
Q 40.828125 74.21875 47.359375 69.109375 
Q 53.90625 64.015625 53.90625 55.328125 
Q 53.90625 49.265625 50.4375 45.09375 
Q 46.96875 40.921875 40.578125 39.3125 
z
" id="DejaVuSans-51"/>
      </defs>
      <g transform="translate(210.838438 463.158437)scale(0.1 -0.1)">
       <use xlink:href="#DejaVuSans-48"/>
       <use x="63.623047" xlink:href="#DejaVuSans-46"/>
       <use x="95.410156" xlink:href="#DejaVuSans-51"/>
      </g>
     </g>
    </g>
    <g id="xtick_5">
     <g id="line2d_9">
      <path clip-path="url(#p831e29b04d)" d="M 266.22 448.56 
L 266.22 60.48 
" style="fill:none;stroke:#b0b0b0;stroke-linecap:square;stroke-width:0.8;"/>
     </g>
     <g id="line2d_10">
      <g>
       <use style="stroke:#000000;stroke-width:0.8;" x="266.22" xlink:href="#m3e1b5c56fc" y="448.56"/>
      </g>
     </g>
     <g id="text_5">
      <!-- 0.4 -->
      <defs>
       <path d="M 37.796875 64.3125 
L 12.890625 25.390625 
L 37.796875 25.390625 
z
M 35.203125 72.90625 
L 47.609375 72.90625 
L 47.609375 25.390625 
L 58.015625 25.390625 
L 58.015625 17.1875 
L 47.609375 17.1875 
L 47.609375 0 
L 37.796875 0 
L 37.796875 17.1875 
L 4.890625 17.1875 
L 4.890625 26.703125 
z
" id="DejaVuSans-52"/>
      </defs>
      <g transform="translate(258.268438 463.158437)scale(0.1 -0.1)">
       <use xlink:href="#DejaVuSans-48"/>
       <use x="63.623047" xlink:href="#DejaVuSans-46"/>
       <use x="95.410156" xlink:href="#DejaVuSans-52"/>
      </g>
     </g>
    </g>
    <g id="xtick_6">
     <g id="line2d_11">
      <path clip-path="url(#p831e29b04d)" d="M 313.65 448.56 
L 313.65 60.48 
" style="fill:none;stroke:#b0b0b0;stroke-linecap:square;stroke-width:0.8;"/>
     </g>
     <g id="line2d_12">
      <g>
       <use style="stroke:#000000;stroke-width:0.8;" x="313.65" xlink:href="#m3e1b5c56fc" y="448.56"/>
      </g>
     </g>
     <g id="text_6">
      <!-- 0.5 -->
      <defs>
       <path d="M 10.796875 72.90625 
L 49.515625 72.90625 
L 49.515625 64.59375 
L 19.828125 64.59375 
L 19.828125 46.734375 
Q 21.96875 47.46875 24.109375 47.828125 
Q 26.265625 48.1875 28.421875 48.1875 
Q 40.625 48.1875 47.75 41.5 
Q 54.890625 34.8125 54.890625 23.390625 
Q 54.890625 11.625 47.5625 5.09375 
Q 40.234375 -1.421875 26.90625 -1.421875 
Q 22.3125 -1.421875 17.546875 -0.640625 
Q 12.796875 0.140625 7.71875 1.703125 
L 7.71875 11.625 
Q 12.109375 9.234375 16.796875 8.0625 
Q 21.484375 6.890625 26.703125 6.890625 
Q 35.15625 6.890625 40.078125 11.328125 
Q 45.015625 15.765625 45.015625 23.390625 
Q 45.015625 31 40.078125 35.4375 
Q 35.15625 39.890625 26.703125 39.890625 
Q 22.75 39.890625 18.8125 39.015625 
Q 14.890625 38.140625 10.796875 36.28125 
z
" id="DejaVuSans-53"/>
      </defs>
      <g transform="translate(305.698438 463.158437)scale(0.1 -0.1)">
       <use xlink:href="#DejaVuSans-48"/>
       <use x="63.623047" xlink:href="#DejaVuSans-46"/>
       <use x="95.410156" xlink:href="#DejaVuSans-53"/>
      </g>
     </g>
    </g>
    <g id="xtick_7">
     <g id="line2d_13">
      <path clip-path="url(#p831e29b04d)" d="M 361.08 448.56 
L 361.08 60.48 
" style="fill:none;stroke:#b0b0b0;stroke-linecap:square;stroke-width:0.8;"/>
     </g>
     <g id="line2d_14">
      <g>
       <use style="stroke:#000000;stroke-width:0.8;" x="361.08" xlink:href="#m3e1b5c56fc" y="448.56"/>
      </g>
     </g>
     <g id="text_7">
      <!-- 0.6 -->
      <defs>
       <path d="M 33.015625 40.375 
Q 26.375 40.375 22.484375 35.828125 
Q 18.609375 31.296875 18.609375 23.390625 
Q 18.609375 15.53125 22.484375 10.953125 
Q 26.375 6.390625 33.015625 6.390625 
Q 39.65625 6.390625 43.53125 10.953125 
Q 47.40625 15.53125 47.40625 23.390625 
Q 47.40625 31.296875 43.53125 35.828125 
Q 39.65625 40.375 33.015625 40.375 
z
M 52.59375 71.296875 
L 52.59375 62.3125 
Q 48.875 64.0625 45.09375 64.984375 
Q 41.3125 65.921875 37.59375 65.921875 
Q 27.828125 65.921875 22.671875 59.328125 
Q 17.53125 52.734375 16.796875 39.40625 
Q 19.671875 43.65625 24.015625 45.921875 
Q 28.375 48.1875 33.59375 48.1875 
Q 44.578125 48.1875 50.953125 41.515625 
Q 57.328125 34.859375 57.328125 23.390625 
Q 57.328125 12.15625 50.6875 5.359375 
Q 44.046875 -1.421875 33.015625 -1.421875 
Q 20.359375 -1.421875 13.671875 8.265625 
Q 6.984375 17.96875 6.984375 36.375 
Q 6.984375 53.65625 15.1875 63.9375 
Q 23.390625 74.21875 37.203125 74.21875 
Q 40.921875 74.21875 44.703125 73.484375 
Q 48.484375 72.75 52.59375 71.296875 
z
" id="DejaVuSans-54"/>
      </defs>
      <g transform="translate(353.128438 463.158437)scale(0.1 -0.1)">
       <use xlink:href="#DejaVuSans-48"/>
       <use x="63.623047" xlink:href="#DejaVuSans-46"/>
       <use x="95.410156" xlink:href="#DejaVuSans-54"/>
      </g>
     </g>
    </g>
    <g id="xtick_8">
     <g id="line2d_15">
      <path clip-path="url(#p831e29b04d)" d="M 408.51 448.56 
L 408.51 60.48 
" style="fill:none;stroke:#b0b0b0;stroke-linecap:square;stroke-width:0.8;"/>
     </g>
     <g id="line2d_16">
      <g>
       <use style="stroke:#000000;stroke-width:0.8;" x="408.51" xlink:href="#m3e1b5c56fc" y="448.56"/>
      </g>
     </g>
     <g id="text_8">
      <!-- 0.7 -->
      <defs>
       <path d="M 8.203125 72.90625 
L 55.078125 72.90625 
L 55.078125 68.703125 
L 28.609375 0 
L 18.3125 0 
L 43.21875 64.59375 
L 8.203125 64.59375 
z
" id="DejaVuSans-55"/>
      </defs>
      <g transform="translate(400.558438 463.158437)scale(0.1 -0.1)">
       <use xlink:href="#DejaVuSans-48"/>
       <use x="63.623047" xlink:href="#DejaVuSans-46"/>
       <use x="95.410156" xlink:href="#DejaVuSans-55"/>
      </g>
     </g>
    </g>
    <g id="xtick_9">
     <g id="line2d_17">
      <path clip-path="url(#p831e29b04d)" d="M 455.94 448.56 
L 455.94 60.48 
" style="fill:none;stroke:#b0b0b0;stroke-linecap:square;stroke-width:0.8;"/>
     </g>
     <g id="line2d_18">
      <g>
       <use style="stroke:#000000;stroke-width:0.8;" x="455.94" xlink:href="#m3e1b5c56fc" y="448.56"/>
      </g>
     </g>
     <g id="text_9">
      <!-- 0.8 -->
      <defs>
       <path d="M 31.78125 34.625 
Q 24.75 34.625 20.71875 30.859375 
Q 16.703125 27.09375 16.703125 20.515625 
Q 16.703125 13.921875 20.71875 10.15625 
Q 24.75 6.390625 31.78125 6.390625 
Q 38.8125 6.390625 42.859375 10.171875 
Q 46.921875 13.96875 46.921875 20.515625 
Q 46.921875 27.09375 42.890625 30.859375 
Q 38.875 34.625 31.78125 34.625 
z
M 21.921875 38.8125 
Q 15.578125 40.375 12.03125 44.71875 
Q 8.5 49.078125 8.5 55.328125 
Q 8.5 64.0625 14.71875 69.140625 
Q 20.953125 74.21875 31.78125 74.21875 
Q 42.671875 74.21875 48.875 69.140625 
Q 55.078125 64.0625 55.078125 55.328125 
Q 55.078125 49.078125 51.53125 44.71875 
Q 48 40.375 41.703125 38.8125 
Q 48.828125 37.15625 52.796875 32.3125 
Q 56.78125 27.484375 56.78125 20.515625 
Q 56.78125 9.90625 50.3125 4.234375 
Q 43.84375 -1.421875 31.78125 -1.421875 
Q 19.734375 -1.421875 13.25 4.234375 
Q 6.78125 9.90625 6.78125 20.515625 
Q 6.78125 27.484375 10.78125 32.3125 
Q 14.796875 37.15625 21.921875 38.8125 
z
M 18.3125 54.390625 
Q 18.3125 48.734375 21.84375 45.5625 
Q 25.390625 42.390625 31.78125 42.390625 
Q 38.140625 42.390625 41.71875 45.5625 
Q 45.3125 48.734375 45.3125 54.390625 
Q 45.3125 60.0625 41.71875 63.234375 
Q 38.140625 66.40625 31.78125 66.40625 
Q 25.390625 66.40625 21.84375 63.234375 
Q 18.3125 60.0625 18.3125 54.390625 
z
" id="DejaVuSans-56"/>
      </defs>
      <g transform="translate(447.988438 463.158437)scale(0.1 -0.1)">
       <use xlink:href="#DejaVuSans-48"/>
       <use x="63.623047" xlink:href="#DejaVuSans-46"/>
       <use x="95.410156" xlink:href="#DejaVuSans-56"/>
      </g>
     </g>
    </g>
    <g id="xtick_10">
     <g id="line2d_19">
      <path clip-path="url(#p831e29b04d)" d="M 503.37 448.56 
L 503.37 60.48 
" style="fill:none;stroke:#b0b0b0;stroke-linecap:square;stroke-width:0.8;"/>
     </g>
     <g id="line2d_20">
      <g>
       <use style="stroke:#000000;stroke-width:0.8;" x="503.37" xlink:href="#m3e1b5c56fc" y="448.56"/>
      </g>
     </g>
     <g id="text_10">
      <!-- 0.9 -->
      <defs>
       <path d="M 10.984375 1.515625 
L 10.984375 10.5 
Q 14.703125 8.734375 18.5 7.8125 
Q 22.3125 6.890625 25.984375 6.890625 
Q 35.75 6.890625 40.890625 13.453125 
Q 46.046875 20.015625 46.78125 33.40625 
Q 43.953125 29.203125 39.59375 26.953125 
Q 35.25 24.703125 29.984375 24.703125 
Q 19.046875 24.703125 12.671875 31.3125 
Q 6.296875 37.9375 6.296875 49.421875 
Q 6.296875 60.640625 12.9375 67.421875 
Q 19.578125 74.21875 30.609375 74.21875 
Q 43.265625 74.21875 49.921875 64.515625 
Q 56.59375 54.828125 56.59375 36.375 
Q 56.59375 19.140625 48.40625 8.859375 
Q 40.234375 -1.421875 26.421875 -1.421875 
Q 22.703125 -1.421875 18.890625 -0.6875 
Q 15.09375 0.046875 10.984375 1.515625 
z
M 30.609375 32.421875 
Q 37.25 32.421875 41.125 36.953125 
Q 45.015625 41.5 45.015625 49.421875 
Q 45.015625 57.28125 41.125 61.84375 
Q 37.25 66.40625 30.609375 66.40625 
Q 23.96875 66.40625 20.09375 61.84375 
Q 16.21875 57.28125 16.21875 49.421875 
Q 16.21875 41.5 20.09375 36.953125 
Q 23.96875 32.421875 30.609375 32.421875 
z
" id="DejaVuSans-57"/>
      </defs>
      <g transform="translate(495.418438 463.158437)scale(0.1 -0.1)">
       <use xlink:href="#DejaVuSans-48"/>
       <use x="63.623047" xlink:href="#DejaVuSans-46"/>
       <use x="95.410156" xlink:href="#DejaVuSans-57"/>
      </g>
     </g>
    </g>
    <g id="xtick_11">
     <g id="line2d_21">
      <path clip-path="url(#p831e29b04d)" d="M 550.8 448.56 
L 550.8 60.48 
" style="fill:none;stroke:#b0b0b0;stroke-linecap:square;stroke-width:0.8;"/>
     </g>
     <g id="line2d_22">
      <g>
       <use style="stroke:#000000;stroke-width:0.8;" x="550.8" xlink:href="#m3e1b5c56fc" y="448.56"/>
      </g>
     </g>
     <g id="text_11">
      <!-- 1.0 -->
      <g transform="translate(542.848438 463.158437)scale(0.1 -0.1)">
       <use xlink:href="#DejaVuSans-49"/>
       <use x="63.623047" xlink:href="#DejaVuSans-46"/>
       <use x="95.410156" xlink:href="#DejaVuSans-48"/>
      </g>
     </g>
    </g>
    <g id="text_12">
     <!-- 1-precision -->
     <defs>
      <path d="M 4.890625 31.390625 
L 31.203125 31.390625 
L 31.203125 23.390625 
L 4.890625 23.390625 
z
" id="DejaVuSans-45"/>
      <path d="M 18.109375 8.203125 
L 18.109375 -20.796875 
L 9.078125 -20.796875 
L 9.078125 54.6875 
L 18.109375 54.6875 
L 18.109375 46.390625 
Q 20.953125 51.265625 25.265625 53.625 
Q 29.59375 56 35.59375 56 
Q 45.5625 56 51.78125 48.09375 
Q 58.015625 40.1875 58.015625 27.296875 
Q 58.015625 14.40625 51.78125 6.484375 
Q 45.5625 -1.421875 35.59375 -1.421875 
Q 29.59375 -1.421875 25.265625 0.953125 
Q 20.953125 3.328125 18.109375 8.203125 
z
M 48.6875 27.296875 
Q 48.6875 37.203125 44.609375 42.84375 
Q 40.53125 48.484375 33.40625 48.484375 
Q 26.265625 48.484375 22.1875 42.84375 
Q 18.109375 37.203125 18.109375 27.296875 
Q 18.109375 17.390625 22.1875 11.75 
Q 26.265625 6.109375 33.40625 6.109375 
Q 40.53125 6.109375 44.609375 11.75 
Q 48.6875 17.390625 48.6875 27.296875 
z
" id="DejaVuSans-112"/>
      <path d="M 41.109375 46.296875 
Q 39.59375 47.171875 37.8125 47.578125 
Q 36.03125 48 33.890625 48 
Q 26.265625 48 22.1875 43.046875 
Q 18.109375 38.09375 18.109375 28.8125 
L 18.109375 0 
L 9.078125 0 
L 9.078125 54.6875 
L 18.109375 54.6875 
L 18.109375 46.1875 
Q 20.953125 51.171875 25.484375 53.578125 
Q 30.03125 56 36.53125 56 
Q 37.453125 56 38.578125 55.875 
Q 39.703125 55.765625 41.0625 55.515625 
z
" id="DejaVuSans-114"/>
      <path d="M 56.203125 29.59375 
L 56.203125 25.203125 
L 14.890625 25.203125 
Q 15.484375 15.921875 20.484375 11.0625 
Q 25.484375 6.203125 34.421875 6.203125 
Q 39.59375 6.203125 44.453125 7.46875 
Q 49.3125 8.734375 54.109375 11.28125 
L 54.109375 2.78125 
Q 49.265625 0.734375 44.1875 -0.34375 
Q 39.109375 -1.421875 33.890625 -1.421875 
Q 20.796875 -1.421875 13.15625 6.1875 
Q 5.515625 13.8125 5.515625 26.8125 
Q 5.515625 40.234375 12.765625 48.109375 
Q 20.015625 56 32.328125 56 
Q 43.359375 56 49.78125 48.890625 
Q 56.203125 41.796875 56.203125 29.59375 
z
M 47.21875 32.234375 
Q 47.125 39.59375 43.09375 43.984375 
Q 39.0625 48.390625 32.421875 48.390625 
Q 24.90625 48.390625 20.390625 44.140625 
Q 15.875 39.890625 15.1875 32.171875 
z
" id="DejaVuSans-101"/>
      <path d="M 48.78125 52.59375 
L 48.78125 44.1875 
Q 44.96875 46.296875 41.140625 47.34375 
Q 37.3125 48.390625 33.40625 48.390625 
Q 24.65625 48.390625 19.8125 42.84375 
Q 14.984375 37.3125 14.984375 27.296875 
Q 14.984375 17.28125 19.8125 11.734375 
Q 24.65625 6.203125 33.40625 6.203125 
Q 37.3125 6.203125 41.140625 7.25 
Q 44.96875 8.296875 48.78125 10.40625 
L 48.78125 2.09375 
Q 45.015625 0.34375 40.984375 -0.53125 
Q 36.96875 -1.421875 32.421875 -1.421875 
Q 20.0625 -1.421875 12.78125 6.34375 
Q 5.515625 14.109375 5.515625 27.296875 
Q 5.515625 40.671875 12.859375 48.328125 
Q 20.21875 56 33.015625 56 
Q 37.15625 56 41.109375 55.140625 
Q 45.0625 54.296875 48.78125 52.59375 
z
" id="DejaVuSans-99"/>
      <path d="M 9.421875 54.6875 
L 18.40625 54.6875 
L 18.40625 0 
L 9.421875 0 
z
M 9.421875 75.984375 
L 18.40625 75.984375 
L 18.40625 64.59375 
L 9.421875 64.59375 
z
" id="DejaVuSans-105"/>
      <path d="M 44.28125 53.078125 
L 44.28125 44.578125 
Q 40.484375 46.53125 36.375 47.5 
Q 32.28125 48.484375 27.875 48.484375 
Q 21.1875 48.484375 17.84375 46.4375 
Q 14.5 44.390625 14.5 40.28125 
Q 14.5 37.15625 16.890625 35.375 
Q 19.28125 33.59375 26.515625 31.984375 
L 29.59375 31.296875 
Q 39.15625 29.25 43.1875 25.515625 
Q 47.21875 21.78125 47.21875 15.09375 
Q 47.21875 7.46875 41.1875 3.015625 
Q 35.15625 -1.421875 24.609375 -1.421875 
Q 20.21875 -1.421875 15.453125 -0.5625 
Q 10.6875 0.296875 5.421875 2 
L 5.421875 11.28125 
Q 10.40625 8.6875 15.234375 7.390625 
Q 20.0625 6.109375 24.8125 6.109375 
Q 31.15625 6.109375 34.5625 8.28125 
Q 37.984375 10.453125 37.984375 14.40625 
Q 37.984375 18.0625 35.515625 20.015625 
Q 33.0625 21.96875 24.703125 23.78125 
L 21.578125 24.515625 
Q 13.234375 26.265625 9.515625 29.90625 
Q 5.8125 33.546875 5.8125 39.890625 
Q 5.8125 47.609375 11.28125 51.796875 
Q 16.75 56 26.8125 56 
Q 31.78125 56 36.171875 55.265625 
Q 40.578125 54.546875 44.28125 53.078125 
z
" id="DejaVuSans-115"/>
      <path d="M 30.609375 48.390625 
Q 23.390625 48.390625 19.1875 42.75 
Q 14.984375 37.109375 14.984375 27.296875 
Q 14.984375 17.484375 19.15625 11.84375 
Q 23.34375 6.203125 30.609375 6.203125 
Q 37.796875 6.203125 41.984375 11.859375 
Q 46.1875 17.53125 46.1875 27.296875 
Q 46.1875 37.015625 41.984375 42.703125 
Q 37.796875 48.390625 30.609375 48.390625 
z
M 30.609375 56 
Q 42.328125 56 49.015625 48.375 
Q 55.71875 40.765625 55.71875 27.296875 
Q 55.71875 13.875 49.015625 6.21875 
Q 42.328125 -1.421875 30.609375 -1.421875 
Q 18.84375 -1.421875 12.171875 6.21875 
Q 5.515625 13.875 5.515625 27.296875 
Q 5.515625 40.765625 12.171875 48.375 
Q 18.84375 56 30.609375 56 
z
" id="DejaVuSans-111"/>
      <path d="M 54.890625 33.015625 
L 54.890625 0 
L 45.90625 0 
L 45.90625 32.71875 
Q 45.90625 40.484375 42.875 44.328125 
Q 39.84375 48.1875 33.796875 48.1875 
Q 26.515625 48.1875 22.3125 43.546875 
Q 18.109375 38.921875 18.109375 30.90625 
L 18.109375 0 
L 9.078125 0 
L 9.078125 54.6875 
L 18.109375 54.6875 
L 18.109375 46.1875 
Q 21.34375 51.125 25.703125 53.5625 
Q 30.078125 56 35.796875 56 
Q 45.21875 56 50.046875 50.171875 
Q 54.890625 44.34375 54.890625 33.015625 
z
" id="DejaVuSans-110"/>
     </defs>
     <g transform="translate(286.110938 476.836563)scale(0.1 -0.1)">
      <use xlink:href="#DejaVuSans-49"/>
      <use x="63.623047" xlink:href="#DejaVuSans-45"/>
      <use x="99.707031" xlink:href="#DejaVuSans-112"/>
      <use x="163.183594" xlink:href="#DejaVuSans-114"/>
      <use x="202.046875" xlink:href="#DejaVuSans-101"/>
      <use x="263.570312" xlink:href="#DejaVuSans-99"/>
      <use x="318.550781" xlink:href="#DejaVuSans-105"/>
      <use x="346.333984" xlink:href="#DejaVuSans-115"/>
      <use x="398.433594" xlink:href="#DejaVuSans-105"/>
      <use x="426.216797" xlink:href="#DejaVuSans-111"/>
      <use x="487.398438" xlink:href="#DejaVuSans-110"/>
     </g>
    </g>
   </g>
   <g id="matplotlib.axis_2">
    <g id="ytick_1">
     <g id="line2d_23">
      <path clip-path="url(#p831e29b04d)" d="M 76.5 448.56 
L 550.8 448.56 
" style="fill:none;stroke:#b0b0b0;stroke-linecap:square;stroke-width:0.8;"/>
     </g>
     <g id="line2d_24">
      <defs>
       <path d="M 0 0 
L -3.5 0 
" id="m6fdeec12c4" style="stroke:#000000;stroke-width:0.8;"/>
      </defs>
      <g>
       <use style="stroke:#000000;stroke-width:0.8;" x="76.5" xlink:href="#m6fdeec12c4" y="448.56"/>
      </g>
     </g>
     <g id="text_13">
      <!-- 0.0 -->
      <g transform="translate(53.596875 452.359219)scale(0.1 -0.1)">
       <use xlink:href="#DejaVuSans-48"/>
       <use x="63.623047" xlink:href="#DejaVuSans-46"/>
       <use x="95.410156" xlink:href="#DejaVuSans-48"/>
      </g>
     </g>
    </g>
    <g id="ytick_2">
     <g id="line2d_25">
      <path clip-path="url(#p831e29b04d)" d="M 76.5 409.752 
L 550.8 409.752 
" style="fill:none;stroke:#b0b0b0;stroke-linecap:square;stroke-width:0.8;"/>
     </g>
     <g id="line2d_26">
      <g>
       <use style="stroke:#000000;stroke-width:0.8;" x="76.5" xlink:href="#m6fdeec12c4" y="409.752"/>
      </g>
     </g>
     <g id="text_14">
      <!-- 0.1 -->
      <g transform="translate(53.596875 413.551219)scale(0.1 -0.1)">
       <use xlink:href="#DejaVuSans-48"/>
       <use x="63.623047" xlink:href="#DejaVuSans-46"/>
       <use x="95.410156" xlink:href="#DejaVuSans-49"/>
      </g>
     </g>
    </g>
    <g id="ytick_3">
     <g id="line2d_27">
      <path clip-path="url(#p831e29b04d)" d="M 76.5 370.944 
L 550.8 370.944 
" style="fill:none;stroke:#b0b0b0;stroke-linecap:square;stroke-width:0.8;"/>
     </g>
     <g id="line2d_28">
      <g>
       <use style="stroke:#000000;stroke-width:0.8;" x="76.5" xlink:href="#m6fdeec12c4" y="370.944"/>
      </g>
     </g>
     <g id="text_15">
      <!-- 0.2 -->
      <g transform="translate(53.596875 374.743219)scale(0.1 -0.1)">
       <use xlink:href="#DejaVuSans-48"/>
       <use x="63.623047" xlink:href="#DejaVuSans-46"/>
       <use x="95.410156" xlink:href="#DejaVuSans-50"/>
      </g>
     </g>
    </g>
    <g id="ytick_4">
     <g id="line2d_29">
      <path clip-path="url(#p831e29b04d)" d="M 76.5 332.136 
L 550.8 332.136 
" style="fill:none;stroke:#b0b0b0;stroke-linecap:square;stroke-width:0.8;"/>
     </g>
     <g id="line2d_30">
      <g>
       <use style="stroke:#000000;stroke-width:0.8;" x="76.5" xlink:href="#m6fdeec12c4" y="332.136"/>
      </g>
     </g>
     <g id="text_16">
      <!-- 0.3 -->
      <g transform="translate(53.596875 335.935219)scale(0.1 -0.1)">
       <use xlink:href="#DejaVuSans-48"/>
       <use x="63.623047" xlink:href="#DejaVuSans-46"/>
       <use x="95.410156" xlink:href="#DejaVuSans-51"/>
      </g>
     </g>
    </g>
    <g id="ytick_5">
     <g id="line2d_31">
      <path clip-path="url(#p831e29b04d)" d="M 76.5 293.328 
L 550.8 293.328 
" style="fill:none;stroke:#b0b0b0;stroke-linecap:square;stroke-width:0.8;"/>
     </g>
     <g id="line2d_32">
      <g>
       <use style="stroke:#000000;stroke-width:0.8;" x="76.5" xlink:href="#m6fdeec12c4" y="293.328"/>
      </g>
     </g>
     <g id="text_17">
      <!-- 0.4 -->
      <g transform="translate(53.596875 297.127219)scale(0.1 -0.1)">
       <use xlink:href="#DejaVuSans-48"/>
       <use x="63.623047" xlink:href="#DejaVuSans-46"/>
       <use x="95.410156" xlink:href="#DejaVuSans-52"/>
      </g>
     </g>
    </g>
    <g id="ytick_6">
     <g id="line2d_33">
      <path clip-path="url(#p831e29b04d)" d="M 76.5 254.52 
L 550.8 254.52 
" style="fill:none;stroke:#b0b0b0;stroke-linecap:square;stroke-width:0.8;"/>
     </g>
     <g id="line2d_34">
      <g>
       <use style="stroke:#000000;stroke-width:0.8;" x="76.5" xlink:href="#m6fdeec12c4" y="254.52"/>
      </g>
     </g>
     <g id="text_18">
      <!-- 0.5 -->
      <g transform="translate(53.596875 258.319219)scale(0.1 -0.1)">
       <use xlink:href="#DejaVuSans-48"/>
       <use x="63.623047" xlink:href="#DejaVuSans-46"/>
       <use x="95.410156" xlink:href="#DejaVuSans-53"/>
      </g>
     </g>
    </g>
    <g id="ytick_7">
     <g id="line2d_35">
      <path clip-path="url(#p831e29b04d)" d="M 76.5 215.712 
L 550.8 215.712 
" style="fill:none;stroke:#b0b0b0;stroke-linecap:square;stroke-width:0.8;"/>
     </g>
     <g id="line2d_36">
      <g>
       <use style="stroke:#000000;stroke-width:0.8;" x="76.5" xlink:href="#m6fdeec12c4" y="215.712"/>
      </g>
     </g>
     <g id="text_19">
      <!-- 0.6 -->
      <g transform="translate(53.596875 219.511219)scale(0.1 -0.1)">
       <use xlink:href="#DejaVuSans-48"/>
       <use x="63.623047" xlink:href="#DejaVuSans-46"/>
       <use x="95.410156" xlink:href="#DejaVuSans-54"/>
      </g>
     </g>
    </g>
    <g id="ytick_8">
     <g id="line2d_37">
      <path clip-path="url(#p831e29b04d)" d="M 76.5 176.904 
L 550.8 176.904 
" style="fill:none;stroke:#b0b0b0;stroke-linecap:square;stroke-width:0.8;"/>
     </g>
     <g id="line2d_38">
      <g>
       <use style="stroke:#000000;stroke-width:0.8;" x="76.5" xlink:href="#m6fdeec12c4" y="176.904"/>
      </g>
     </g>
     <g id="text_20">
      <!-- 0.7 -->
      <g transform="translate(53.596875 180.703219)scale(0.1 -0.1)">
       <use xlink:href="#DejaVuSans-48"/>
       <use x="63.623047" xlink:href="#DejaVuSans-46"/>
       <use x="95.410156" xlink:href="#DejaVuSans-55"/>
      </g>
     </g>
    </g>
    <g id="ytick_9">
     <g id="line2d_39">
      <path clip-path="url(#p831e29b04d)" d="M 76.5 138.096 
L 550.8 138.096 
" style="fill:none;stroke:#b0b0b0;stroke-linecap:square;stroke-width:0.8;"/>
     </g>
     <g id="line2d_40">
      <g>
       <use style="stroke:#000000;stroke-width:0.8;" x="76.5" xlink:href="#m6fdeec12c4" y="138.096"/>
      </g>
     </g>
     <g id="text_21">
      <!-- 0.8 -->
      <g transform="translate(53.596875 141.895219)scale(0.1 -0.1)">
       <use xlink:href="#DejaVuSans-48"/>
       <use x="63.623047" xlink:href="#DejaVuSans-46"/>
       <use x="95.410156" xlink:href="#DejaVuSans-56"/>
      </g>
     </g>
    </g>
    <g id="ytick_10">
     <g id="line2d_41">
      <path clip-path="url(#p831e29b04d)" d="M 76.5 99.288 
L 550.8 99.288 
" style="fill:none;stroke:#b0b0b0;stroke-linecap:square;stroke-width:0.8;"/>
     </g>
     <g id="line2d_42">
      <g>
       <use style="stroke:#000000;stroke-width:0.8;" x="76.5" xlink:href="#m6fdeec12c4" y="99.288"/>
      </g>
     </g>
     <g id="text_22">
      <!-- 0.9 -->
      <g transform="translate(53.596875 103.087219)scale(0.1 -0.1)">
       <use xlink:href="#DejaVuSans-48"/>
       <use x="63.623047" xlink:href="#DejaVuSans-46"/>
       <use x="95.410156" xlink:href="#DejaVuSans-57"/>
      </g>
     </g>
    </g>
    <g id="ytick_11">
     <g id="line2d_43">
      <path clip-path="url(#p831e29b04d)" d="M 76.5 60.48 
L 550.8 60.48 
" style="fill:none;stroke:#b0b0b0;stroke-linecap:square;stroke-width:0.8;"/>
     </g>
     <g id="line2d_44">
      <g>
       <use style="stroke:#000000;stroke-width:0.8;" x="76.5" xlink:href="#m6fdeec12c4" y="60.48"/>
      </g>
     </g>
     <g id="text_23">
      <!-- 1.0 -->
      <g transform="translate(53.596875 64.279219)scale(0.1 -0.1)">
       <use xlink:href="#DejaVuSans-49"/>
       <use x="63.623047" xlink:href="#DejaVuSans-46"/>
       <use x="95.410156" xlink:href="#DejaVuSans-48"/>
      </g>
     </g>
    </g>
    <g id="text_24">
     <!-- #correct/1001 -->
     <defs>
      <path d="M 51.125 44 
L 36.921875 44 
L 32.8125 27.6875 
L 47.125 27.6875 
z
M 43.796875 71.78125 
L 38.71875 51.515625 
L 52.984375 51.515625 
L 58.109375 71.78125 
L 65.921875 71.78125 
L 60.890625 51.515625 
L 76.125 51.515625 
L 76.125 44 
L 58.984375 44 
L 54.984375 27.6875 
L 70.515625 27.6875 
L 70.515625 20.21875 
L 53.078125 20.21875 
L 48 0 
L 40.1875 0 
L 45.21875 20.21875 
L 30.90625 20.21875 
L 25.875 0 
L 18.015625 0 
L 23.09375 20.21875 
L 7.71875 20.21875 
L 7.71875 27.6875 
L 24.90625 27.6875 
L 29 44 
L 13.28125 44 
L 13.28125 51.515625 
L 30.90625 51.515625 
L 35.890625 71.78125 
z
" id="DejaVuSans-35"/>
      <path d="M 18.3125 70.21875 
L 18.3125 54.6875 
L 36.8125 54.6875 
L 36.8125 47.703125 
L 18.3125 47.703125 
L 18.3125 18.015625 
Q 18.3125 11.328125 20.140625 9.421875 
Q 21.96875 7.515625 27.59375 7.515625 
L 36.8125 7.515625 
L 36.8125 0 
L 27.59375 0 
Q 17.1875 0 13.234375 3.875 
Q 9.28125 7.765625 9.28125 18.015625 
L 9.28125 47.703125 
L 2.6875 47.703125 
L 2.6875 54.6875 
L 9.28125 54.6875 
L 9.28125 70.21875 
z
" id="DejaVuSans-116"/>
      <path d="M 25.390625 72.90625 
L 33.6875 72.90625 
L 8.296875 -9.28125 
L 0 -9.28125 
z
" id="DejaVuSans-47"/>
     </defs>
     <g transform="translate(47.517187 290.624688)rotate(-90)scale(0.1 -0.1)">
      <use xlink:href="#DejaVuSans-35"/>
      <use x="83.789062" xlink:href="#DejaVuSans-99"/>
      <use x="138.769531" xlink:href="#DejaVuSans-111"/>
      <use x="199.951172" xlink:href="#DejaVuSans-114"/>
      <use x="239.314453" xlink:href="#DejaVuSans-114"/>
      <use x="278.177734" xlink:href="#DejaVuSans-101"/>
      <use x="339.701172" xlink:href="#DejaVuSans-99"/>
      <use x="394.681641" xlink:href="#DejaVuSans-116"/>
      <use x="433.890625" xlink:href="#DejaVuSans-47"/>
      <use x="467.582031" xlink:href="#DejaVuSans-49"/>
      <use x="531.205078" xlink:href="#DejaVuSans-48"/>
      <use x="594.828125" xlink:href="#DejaVuSans-48"/>
      <use x="658.451172" xlink:href="#DejaVuSans-49"/>
     </g>
    </g>
   </g>
   <g id="line2d_45">
    <path clip-path="url(#p831e29b04d)" d="M 76.5 448.172308 
L 76.5 305.113846 
L 77.778437 305.113846 
L 77.716154 297.747692 
L 78.926087 297.747692 
L 78.895455 295.809231 
L 80.084131 295.809231 
L 79.962044 290.381538 
L 81.104854 290.381538 
L 80.744295 276.812308 
L 81.793527 276.812308 
L 81.735099 274.873846 
L 82.768282 274.873846 
L 82.307755 260.916923 
L 83.261914 260.916923 
L 83.166867 258.203077 
L 84.104008 258.203077 
L 83.579104 243.858462 
L 84.449162 243.858462 
L 84.177518 236.492308 
L 85.01526 236.492308 
L 84.924512 234.166154 
L 85.750532 234.166154 
L 85.253859 221.76 
L 86.033668 221.76 
L 85.754634 214.781538 
L 86.509578 214.781538 
L 85.986 201.6 
L 87.41181 201.6 
L 87.214608 196.947692 
L 87.911729 196.947692 
L 87.860479 195.784615 
L 88.552466 195.784615 
L 88.135065 186.48 
L 88.801729 186.48 
L 88.74878 185.316923 
L 89.410745 185.316923 
L 89.174684 180.276923 
L 89.823034 180.276923 
L 89.804348 179.889231 
L 90.45 179.889231 
L 90.43049 179.501538 
L 91.073464 179.501538 
L 90.892552 176.012308 
L 91.526033 176.012308 
L 91.443699 174.461538 
L 92.072093 174.461538 
L 91.945319 172.135385 
L 92.567073 172.135385 
L 92.45895 170.196923 
L 93.075 170.196923 
L 93.052752 169.809231 
L 93.666354 169.809231 
L 93.461722 166.32 
L 94.066667 166.32 
L 94.043461 165.932308 
L 94.646042 165.932308 
L 94.598289 165.156923 
L 95.197766 165.156923 
L 95.173228 164.769231 
L 96.365969 164.769231 
L 95.908696 157.790769 
L 96.489655 157.790769 
L 96.21272 153.526154 
L 96.784528 153.526154 
L 96.733626 152.750769 
L 97.302632 152.750769 
L 97.276596 152.363077 
L 97.8435 152.363077 
L 97.790274 151.587692 
L 98.354421 151.587692 
L 98.138841 148.486154 
L 98.696305 148.486154 
L 98.5875 146.935385 
L 99.141004 146.935385 
L 99.113325 146.547692 
L 99.664835 146.547692 
L 99.468523 143.833846 
L 100.014268 143.833846 
L 99.957539 143.058462 
L 101.583173 143.058462 
L 101.553061 142.670769 
L 102.091727 142.670769 
L 102.061078 142.283077 
L 102.597847 142.283077 
L 102.535561 141.507692 
L 103.069845 141.507692 
L 103.038214 141.12 
L 104.631673 141.12 
L 104.531915 139.956923 
L 106.108834 139.956923 
L 106.039248 139.181538 
L 106.561268 139.181538 
L 106.455789 138.018462 
L 107.492765 138.018462 
L 107.384651 136.855385 
L 107.899652 136.855385 
L 107.682353 134.529231 
L 108.192857 134.529231 
L 108.156387 134.141538 
L 109.17279 134.141538 
L 108.80193 130.264615 
L 109.303061 130.264615 
L 109.265912 129.876923 
L 110.263729 129.876923 
L 109.88648 126 
L 111.359465 126 
L 111.282 125.224615 
L 112.256541 125.224615 
L 112.177434 124.449231 
L 112.662099 124.449231 
L 112.622185 124.061538 
L 113.105292 124.061538 
L 113.064978 123.673846 
L 114.027033 123.673846 
L 113.781223 121.347692 
L 114.257797 121.347692 
L 114.134674 120.184615 
L 115.081887 120.184615 
L 114.873786 118.246154 
L 115.343534 118.246154 
L 115.301722 117.858462 
L 115.77 117.858462 
L 115.60182 116.307692 
L 116.067273 116.307692 
L 115.982818 115.532308 
L 116.446375 115.532308 
L 116.403834 115.144615 
L 116.865957 115.144615 
L 116.823061 114.756923 
L 117.283758 114.756923 
L 117.240509 114.369231 
L 118.158095 114.369231 
L 118.070116 113.593846 
L 118.526582 113.593846 
L 118.482297 113.206154 
L 118.937368 113.206154 
L 118.848214 112.430769 
L 119.301469 112.430769 
L 119.122571 110.88 
L 119.573173 110.88 
L 119.43871 109.716923 
L 119.88711 109.716923 
L 119.797095 108.941538 
L 120.243731 108.941538 
L 120.153257 108.166154 
L 120.59814 108.166154 
L 120.507216 107.390769 
L 120.95036 107.390769 
L 120.90463 107.003077 
L 121.346454 107.003077 
L 121.162845 105.452308 
L 121.602147 105.452308 
L 121.556078 105.064615 
L 123.302747 105.064615 
L 123.255183 104.676923 
L 123.689239 104.676923 
L 123.641379 104.289231 
L 124.506073 104.289231 
L 124.360747 103.126154 
L 124.790625 103.126154 
L 124.693461 102.350769 
L 125.121709 102.350769 
L 124.927027 100.8 
L 126.202096 100.8 
L 126.103088 100.024615 
L 127.788393 100.024615 
L 127.686832 99.249231 
L 129.355917 99.249231 
L 129.25187 98.473846 
L 130.905 98.473846 
L 130.851714 98.086154 
L 131.672727 98.086154 
L 131.618848 97.698462 
L 132.027805 97.698462 
L 131.973684 97.310769 
L 132.788521 97.310769 
L 132.733819 96.923077 
L 134.352662 96.923077 
L 134.296712 96.535385 
L 135.100772 96.535385 
L 134.987861 95.76 
L 135.388065 95.76 
L 135.331442 95.372308 
L 135.730548 95.372308 
L 135.560345 94.209231 
L 136.750143 94.209231 
L 136.692653 93.821538 
L 137.087417 93.821538 
L 136.914639 92.658462 
L 138.482386 92.658462 
L 138.423746 92.270769 
L 139.590849 92.270769 
L 139.472034 91.495385 
L 140.245207 91.495385 
L 140.065979 90.332308 
L 141.981716 90.332308 
L 141.859777 89.556923 
L 142.240186 89.556923 
L 142.179089 89.169231 
L 143.6925 89.169231 
L 143.630342 88.781538 
L 145.877829 88.781538 
L 145.750413 88.006154 
L 147.969863 88.006154 
L 147.904653 87.618462 
L 149.369727 87.618462 
L 149.303542 87.230769 
L 150.756923 87.230769 
L 150.622764 86.455385 
L 150.983935 86.455385 
L 150.916772 86.067692 
L 154.490349 86.067692 
L 154.420714 85.68 
L 155.479608 85.68 
L 155.409342 85.292308 
L 156.111634 85.292308 
L 156.040994 84.904615 
L 157.437135 84.904615 
L 157.365636 84.516923 
L 159.439982 84.516923 
L 159.367164 84.129231 
L 163.784375 84.129231 
L 163.708673 83.741538 
L 164.378961 83.741538 
L 164.302941 83.353846 
L 172.484505 83.353846 
L 172.322232 82.578462 
L 175.494719 82.578462 
L 175.411809 82.190769 
L 176.977231 82.190769 
L 176.8935 81.803077 
L 186.309504 81.803077 
L 186.220373 81.415385 
L 190.316774 81.415385 
L 190.225501 81.027692 
L 195.917285 81.027692 
L 195.823107 80.64 
L 198.048668 80.64 
L 197.858451 79.864615 
L 203.028759 79.864615 
L 202.931279 79.476923 
L 208.729091 79.476923 
L 208.628993 79.089231 
L 210.688713 79.089231 
L 210.58782 78.701538 
L 227.136052 78.701538 
L 227.028377 78.313846 
L 231.141214 78.313846 
L 231.032158 77.926154 
L 235.260125 77.926154 
L 235.149722 77.538462 
L 253.935971 77.538462 
L 253.82 77.150769 
L 298.926718 77.150769 
L 298.80349 76.763077 
L 305.595849 76.763077 
L 305.595849 76.763077 
" style="fill:none;stroke:#1f77b4;stroke-linecap:square;stroke-width:2;"/>
   </g>
   <g id="line2d_46">
    <path clip-path="url(#p831e29b04d)" d="M 76.5 448.172308 
L 76.5 417.544615 
L 82.355556 417.544615 
L 81.889773 414.830769 
L 87.158427 414.830769 
L 86.081818 410.953846 
L 85.045946 406.301538 
L 84.0888 400.873846 
L 83.22766 394.670769 
L 82.391925 386.916923 
L 81.683607 378.387692 
L 84.233152 378.387692 
L 84.191351 378 
L 86.7 378 
L 85.665217 369.858462 
L 85.084615 364.430769 
L 87.182432 364.430769 
L 86.140244 355.126154 
L 85.621154 349.698462 
L 87.403448 349.698462 
L 86.520423 340.781538 
L 88.149474 340.781538 
L 87.678788 336.129231 
L 89.232886 336.129231 
L 89.148 335.353846 
L 90.681728 335.353846 
L 89.474772 324.498462 
L 89.396375 323.723077 
L 90.786145 323.723077 
L 89.974432 315.969231 
L 91.279887 315.969231 
L 91.114286 314.418462 
L 92.398324 314.418462 
L 92.05082 311.316923 
L 93.300817 311.316923 
L 93.255163 310.929231 
L 94.495122 310.929231 
L 94.302145 309.378462 
L 95.522727 309.378462 
L 94.110149 297.747692 
L 93.279481 289.993846 
L 94.356 289.993846 
L 93.945517 286.116923 
L 94.993349 286.116923 
L 94.105022 277.587692 
L 95.1 277.587692 
L 94.899569 275.649231 
L 95.88 275.649231 
L 95.755769 274.486154 
L 96.726013 274.486154 
L 96.428571 271.772308 
L 97.381132 271.772308 
L 97.337448 271.384615 
L 98.284134 271.384615 
L 98.014639 269.058462 
L 98.946296 269.058462 
L 98.717719 267.12 
L 99.636585 267.12 
L 98.996443 261.692308 
L 99.887574 261.692308 
L 99.346821 257.04 
L 100.215 257.04 
L 99.989143 255.101538 
L 100.846198 255.101538 
L 100.662453 253.550769 
L 101.510169 253.550769 
L 101.369663 252.387692 
L 103.046642 252.387692 
L 102.512797 248.123077 
L 103.330839 248.123077 
L 103.088246 246.184615 
L 104.701622 246.184615 
L 104.650899 245.796923 
L 105.451885 245.796923 
L 105.245455 244.246154 
L 106.828242 244.246154 
L 106.774468 243.858462 
L 107.560354 243.858462 
L 106.704991 237.655385 
L 107.468041 237.655385 
L 107.1 234.941538 
L 107.852034 234.941538 
L 107.798985 234.553846 
L 108.547297 234.553846 
L 108.439394 233.778462 
L 109.182857 233.778462 
L 108.642645 229.901538 
L 109.372277 229.901538 
L 109.05 227.575385 
L 110.488925 227.575385 
L 110.433659 227.187692 
L 111.148539 227.187692 
L 111.036408 226.412308 
L 111.74685 226.412308 
L 111.69 226.024615 
L 112.397101 226.024615 
L 112.339389 225.636923 
L 113.043178 225.636923 
L 112.184013 219.821538 
L 113.554688 219.821538 
L 113.439252 219.046154 
L 114.11944 219.046154 
L 114.002791 218.270769 
L 115.353014 218.270769 
L 115.233282 217.495385 
L 115.903385 217.495385 
L 115.189124 212.843077 
L 115.846154 212.843077 
L 115.551647 210.904615 
L 117.497615 210.904615 
L 117.37578 210.129231 
L 118.018843 210.129231 
L 117.114949 204.313846 
L 117.743478 204.313846 
L 117.446763 202.375385 
L 118.690244 202.375385 
L 118.389744 200.436923 
L 119.004836 200.436923 
L 118.233101 195.396923 
L 118.836402 195.396923 
L 118.427072 192.683077 
L 119.023448 192.683077 
L 118.906465 191.907692 
L 121.269767 191.907692 
L 120.845122 189.193846 
L 121.426928 189.193846 
L 121.125 187.255385 
L 122.276944 187.255385 
L 121.97217 185.316923 
L 122.54242 185.316923 
L 121.819241 180.664615 
L 122.38 180.664615 
L 122.320104 180.276923 
L 122.878748 180.276923 
L 122.818359 179.889231 
L 123.374902 179.889231 
L 122.013636 170.972308 
L 123.093703 170.972308 
L 122.976633 170.196923 
L 123.513425 170.196923 
L 123.454511 169.809231 
L 125.055056 169.809231 
L 124.994514 169.421538 
L 126.053731 169.421538 
L 125.747466 167.483077 
L 127.317857 167.483077 
L 127.255351 167.095385 
L 128.8125 167.095385 
L 128.684597 166.32 
L 130.22704 166.32 
L 129.772826 163.606154 
L 130.2807 163.606154 
L 130.151264 162.830769 
L 130.656851 162.830769 
L 130.591837 162.443077 
L 131.095683 162.443077 
L 130.64126 159.729231 
L 131.638078 159.729231 
L 131.442553 158.566154 
L 131.937662 158.566154 
L 131.677086 157.015385 
L 132.659789 157.015385 
L 132.397666 155.464615 
L 132.885315 155.464615 
L 132.623666 153.913846 
L 133.108227 153.913846 
L 132.912125 152.750769 
L 133.394118 152.750769 
L 133.263176 151.975385 
L 133.743103 151.975385 
L 133.677382 151.587692 
L 134.155734 151.587692 
L 134.023799 150.812308 
L 134.975342 150.812308 
L 134.842141 150.036923 
L 135.7875 150.036923 
L 135.58607 148.873846 
L 136.055769 148.873846 
L 135.988475 148.486154 
L 136.456659 148.486154 
L 136.187191 146.935385 
L 136.652525 146.935385 
L 136.58509 146.547692 
L 137.511745 146.547692 
L 136.970621 143.446154 
L 137.428904 143.446154 
L 137.361504 143.058462 
L 138.274172 143.058462 
L 138.206064 142.670769 
L 139.113861 142.670769 
L 138.9764 141.895385 
L 139.427961 141.895385 
L 139.221639 140.732308 
L 139.670961 140.732308 
L 139.191874 138.018462 
L 139.637338 138.018462 
L 139.365194 136.467692 
L 139.808073 136.467692 
L 139.536656 134.916923 
L 140.416364 134.916923 
L 140.144089 133.366154 
L 140.580957 133.366154 
L 140.444904 132.590769 
L 140.880064 132.590769 
L 140.811864 132.203077 
L 141.678647 132.203077 
L 141.541139 131.427692 
L 141.972392 131.427692 
L 141.357307 127.938462 
L 142.635484 127.938462 
L 142.498131 127.163077 
L 142.92168 127.163077 
L 142.784161 126.387692 
L 143.206101 126.387692 
L 143.13719 126 
L 143.557895 126 
L 143.488763 125.612308 
L 144.744604 125.612308 
L 144.674538 125.224615 
L 145.091077 125.224615 
L 144.602138 122.510769 
L 145.427744 122.510769 
L 145.287931 121.735385 
L 146.108806 121.735385 
L 145.968182 120.96 
L 146.784375 120.96 
L 146.502108 119.409231 
L 146.907623 119.409231 
L 146.766667 118.633846 
L 147.573926 118.633846 
L 147.361554 117.470769 
L 148.163618 117.470769 
L 148.092453 117.083077 
L 148.890684 117.083077 
L 148.81901 116.695385 
L 150.009477 116.695385 
L 149.936982 116.307692 
L 150.726083 116.307692 
L 150.653097 115.92 
L 152.610763 115.92 
L 152.536364 115.532308 
L 152.925293 115.532308 
L 152.850732 115.144615 
L 153.238596 115.144615 
L 153.014869 113.981538 
L 154.171221 113.981538 
L 153.871332 112.430769 
L 155.77781 112.430769 
L 155.625791 111.655385 
L 156.00431 111.655385 
L 155.92823 111.267692 
L 156.305736 111.267692 
L 156.229513 110.88 
L 156.606011 110.88 
L 156.301426 109.329231 
L 157.05 109.329231 
L 156.897443 108.553846 
L 157.270104 108.553846 
L 157.117564 107.778462 
L 157.488962 107.778462 
L 157.41263 107.390769 
L 158.521805 107.390769 
L 158.367917 106.615385 
L 159.469224 106.615385 
L 159.391682 106.227692 
L 160.121922 106.227692 
L 160.043989 105.84 
L 161.133457 105.84 
L 160.82 104.289231 
L 161.54085 104.289231 
L 161.383948 103.513846 
L 162.458694 103.513846 
L 162.300826 102.738462 
L 163.013016 102.738462 
L 162.933791 102.350769 
L 163.288655 102.350769 
L 163.209324 101.963077 
L 163.563288 101.963077 
L 163.48385 101.575385 
L 163.836919 101.575385 
L 163.757377 101.187692 
L 164.109554 101.187692 
L 164.029909 100.8 
L 165.43125 100.8 
L 165.350769 100.412308 
L 166.047154 100.412308 
L 165.805135 99.249231 
L 167.53157 99.249231 
L 167.368577 98.473846 
L 168.395625 98.473846 
L 168.313649 98.086154 
L 170.687234 98.086154 
L 170.520531 97.310769 
L 171.861905 97.310769 
L 171.777885 96.923077 
L 172.111532 96.923077 
L 172.027441 96.535385 
L 174.345105 96.535385 
L 174.174346 95.76 
L 175.157702 95.76 
L 174.986273 94.984615 
L 176.935177 94.984615 
L 176.848446 94.596923 
L 178.456148 94.596923 
L 178.368557 94.209231 
L 180.278462 94.209231 
L 180.189838 93.821538 
L 180.821739 93.821538 
L 180.732879 93.433846 
L 181.362245 93.433846 
L 181.184211 92.658462 
L 182.123116 92.658462 
L 182.033756 92.270769 
L 182.656672 92.270769 
L 182.567089 91.883077 
L 184.114286 91.883077 
L 184.023929 91.495385 
L 185.557274 91.495385 
L 185.466165 91.107692 
L 188.492958 91.107692 
L 188.400248 90.72 
L 189.298018 90.72 
L 189.20495 90.332308 
L 190.690551 90.332308 
L 190.596798 89.944615 
L 193.820749 89.944615 
L 193.630138 89.169231 
L 194.209489 89.169231 
L 194.018866 88.393846 
L 195.170702 88.393846 
L 195.075 88.006154 
L 195.933548 88.006154 
L 195.83754 87.618462 
L 198.105671 87.618462 
L 198.008619 87.230769 
L 199.689913 87.230769 
L 199.592143 86.843077 
L 201.256635 86.843077 
L 201.158169 86.455385 
L 201.984094 86.455385 
L 201.885366 86.067692 
L 203.796479 86.067692 
L 203.696951 85.68 
L 205.854545 85.68 
L 205.754115 85.292308 
L 214.118864 85.292308 
L 214.014686 84.904615 
L 216.041986 84.904615 
L 215.937068 84.516923 
L 217.690277 84.516923 
L 217.584753 84.129231 
L 223.456388 84.129231 
L 223.348569 83.741538 
L 224.545395 83.741538 
L 224.437253 83.353846 
L 229.136501 83.353846 
L 229.026691 82.966154 
L 229.95 82.966154 
L 229.84 82.578462 
L 234.152758 82.578462 
L 234.041343 82.190769 
L 240.187734 82.190769 
L 240.074377 81.803077 
L 247.427586 81.803077 
L 247.312095 81.415385 
L 249.348926 81.415385 
L 249.232998 81.027692 
L 249.636973 81.027692 
L 249.521084 80.64 
L 260.406 80.64 
L 260.287427 80.252308 
L 265.077108 80.252308 
L 264.957605 79.864615 
L 271.160012 79.864615 
L 271.039405 79.476923 
L 274.463647 79.476923 
L 274.342569 79.089231 
L 301.209774 79.089231 
L 301.085762 78.701538 
L 306.874286 78.701538 
L 306.874286 78.701538 
" style="fill:none;stroke:#ff7f0e;stroke-linecap:square;stroke-width:2;"/>
   </g>
   <g id="line2d_47">
    <path clip-path="url(#p831e29b04d)" d="M 76.5 448.172308 
L 76.5 346.984615 
L 78.303422 346.984615 
L 78.250185 343.883077 
L 79.9875 343.883077 
L 79.418769 323.335385 
L 79.392073 322.172308 
L 80.824924 322.172308 
L 80.747463 319.846154 
L 82.146429 319.846154 
L 81.402326 300.073846 
L 81.339796 298.135385 
L 82.534351 298.135385 
L 81.77 276.036923 
L 81.610991 270.609231 
L 82.62 270.609231 
L 82.404149 264.018462 
L 83.373913 264.018462 
L 82.98457 252.775385 
L 83.896491 252.775385 
L 83.398909 238.430769 
L 85.092391 238.430769 
L 85.076854 238.043077 
L 85.917509 238.043077 
L 85.866786 236.88 
L 86.7 236.88 
L 86.017726 221.372308 
L 86.793656 221.372308 
L 86.742359 220.209231 
L 87.51194 220.209231 
L 87.227302 214.006154 
L 87.975 214.006154 
L 87.75712 209.353846 
L 88.488626 209.353846 
L 88.302177 205.476923 
L 89.020342 205.476923 
L 88.588606 196.56 
L 89.280539 196.56 
L 89.036564 191.52 
L 89.713636 191.52 
L 89.503896 187.255385 
L 90.168588 187.255385 
L 90.070815 185.316923 
L 90.729 185.316923 
L 90.628085 183.378462 
L 91.929844 183.378462 
L 91.908051 182.990769 
L 92.555289 182.990769 
L 92.465217 181.44 
L 93.107143 181.44 
L 92.877762 177.563077 
L 93.509379 177.563077 
L 93.097308 170.584615 
L 93.7125 170.584615 
L 93.643373 169.421538 
L 94.254545 169.421538 
L 93.882723 163.218462 
L 94.48 163.218462 
L 94.433116 162.443077 
L 95.027344 162.443077 
L 94.979221 161.667692 
L 96.160104 161.667692 
L 96.109302 160.892308 
L 96.696 160.892308 
L 96.669974 160.504615 
L 97.25444 160.504615 
L 97.201155 159.729231 
L 97.782692 159.729231 
L 97.539924 156.24 
L 98.113671 156.24 
L 98.059091 155.464615 
L 98.630013 155.464615 
L 98.219183 149.649231 
L 98.778616 149.649231 
L 98.751111 149.261538 
L 99.308508 149.261538 
L 99.280419 148.873846 
L 99.835793 148.873846 
L 99.75 147.710769 
L 100.852812 147.710769 
L 100.763825 146.547692 
L 101.857473 146.547692 
L 101.796 145.772308 
L 102.339588 145.772308 
L 102.308343 145.384615 
L 102.85 145.384615 
L 102.818215 144.996923 
L 103.357952 144.996923 
L 103.197126 143.058462 
L 104.266667 143.058462 
L 104.233532 142.670769 
L 105.296786 142.670769 
L 104.725554 136.08 
L 105.764144 136.08 
L 105.460714 132.590769 
L 106.484483 132.590769 
L 106.347254 131.04 
L 106.8552 131.04 
L 106.580181 127.938462 
L 108.084312 127.938462 
L 107.977728 126.775385 
L 108.971717 126.775385 
L 108.790513 124.836923 
L 109.283278 124.836923 
L 109.246771 124.449231 
L 109.737931 124.449231 
L 109.627384 123.286154 
L 110.115947 123.286154 
L 109.967696 121.735385 
L 110.453194 121.735385 
L 110.083333 117.858462 
L 111.518893 117.858462 
L 111.405195 116.695385 
L 111.880216 116.695385 
L 111.765841 115.532308 
L 112.238428 115.532308 
L 111.895522 112.043077 
L 112.829362 112.043077 
L 112.675424 110.492308 
L 113.139048 110.492308 
L 113.100317 110.104615 
L 114.483983 110.104615 
L 114.404101 109.329231 
L 115.319937 109.329231 
L 115.279245 108.941538 
L 116.190377 108.941538 
L 116.148903 108.553846 
L 116.60261 108.553846 
L 116.519063 107.778462 
L 116.970968 107.778462 
L 116.928898 107.390769 
L 117.829046 107.390769 
L 117.658264 105.84 
L 118.105263 105.84 
L 118.019567 105.064615 
L 118.909147 105.064615 
L 118.649234 102.738462 
L 119.090204 102.738462 
L 118.960224 101.575385 
L 119.837056 101.575385 
L 119.793103 101.187692 
L 120.229787 101.187692 
L 119.921831 98.473846 
L 120.354874 98.473846 
L 120.310843 98.086154 
L 121.603604 98.086154 
L 121.5585 97.698462 
L 121.987313 97.698462 
L 121.89661 96.923077 
L 122.323805 96.923077 
L 122.141964 95.372308 
L 123.413947 95.372308 
L 123.183071 93.433846 
L 124.86 93.433846 
L 124.812635 93.046154 
L 126.060645 93.046154 
L 126.012293 92.658462 
L 126.839533 92.658462 
L 126.692913 91.495385 
L 127.514826 91.495385 
L 127.416151 90.72 
L 128.233494 90.72 
L 127.985014 88.781538 
L 129.2 88.781538 
L 129.048997 87.618462 
L 130.254 87.618462 
L 130.202854 87.230769 
L 130.602662 87.230769 
L 130.551282 86.843077 
L 131.347962 86.843077 
L 131.244182 86.067692 
L 132.431604 86.067692 
L 132.378888 85.68 
L 133.558647 85.68 
L 133.50507 85.292308 
L 134.287254 85.292308 
L 134.233146 84.904615 
L 135.4 84.904615 
L 135.345056 84.516923 
L 137.273816 84.516923 
L 137.21744 84.129231 
L 140.641766 84.129231 
L 140.582812 83.741538 
L 142.832633 83.741538 
L 142.772055 83.353846 
L 143.144343 83.353846 
L 143.022951 82.578462 
L 144.871442 82.578462 
L 144.809511 82.190769 
L 145.909756 82.190769 
L 145.847112 81.803077 
L 147.303777 81.803077 
L 147.240162 81.415385 
L 148.325 81.415385 
L 148.196512 80.64 
L 148.5563 80.64 
L 148.491964 80.252308 
L 150.990772 80.252308 
L 150.858813 79.476923 
L 151.566048 79.476923 
L 151.433539 78.701538 
L 151.785714 78.701538 
L 151.653169 77.926154 
L 152.354657 77.926154 
L 152.28806 77.538462 
L 153.682677 77.538462 
L 153.61521 77.150769 
L 153.962096 77.150769 
L 153.894503 76.763077 
L 157.327941 76.763077 
L 157.118723 75.6 
L 163.796947 75.6 
L 163.722966 75.212308 
L 166.329545 75.212308 
L 166.253995 74.824615 
L 167.221812 74.824615 
L 167.145767 74.436923 
L 176.250491 74.436923 
L 176.168929 74.049231 
L 181.00678 74.049231 
L 180.9225 73.661538 
L 184.760016 73.661538 
L 184.58749 72.886154 
L 185.170167 72.886154 
L 185.083784 72.498462 
L 194.155814 72.498462 
L 194.064679 72.110769 
L 194.616473 72.110769 
L 194.525193 71.723077 
L 195.896536 71.723077 
L 195.804692 71.335385 
L 201.183409 71.335385 
L 201.089023 70.947692 
L 201.353555 70.947692 
L 201.259184 70.56 
L 204.141454 70.56 
L 204.045843 70.172308 
L 214.377907 70.172308 
L 214.277778 69.784615 
L 216.944741 69.784615 
L 216.843629 69.396923 
L 219.940228 69.396923 
L 219.83799 69.009231 
L 228.789112 69.009231 
L 228.683576 68.621538 
L 276.41157 68.621538 
L 276.293628 68.233846 
L 299.970728 68.233846 
L 299.970728 68.233846 
" style="fill:none;stroke:#2ca02c;stroke-linecap:square;stroke-width:2;"/>
   </g>
   <g id="patch_3">
    <path d="M 76.5 448.56 
L 76.5 60.48 
" style="fill:none;stroke:#000000;stroke-linecap:square;stroke-linejoin:miter;stroke-width:0.8;"/>
   </g>
   <g id="patch_4">
    <path d="M 550.8 448.56 
L 550.8 60.48 
" style="fill:none;stroke:#000000;stroke-linecap:square;stroke-linejoin:miter;stroke-width:0.8;"/>
   </g>
   <g id="patch_5">
    <path d="M 76.5 448.56 
L 550.8 448.56 
" style="fill:none;stroke:#000000;stroke-linecap:square;stroke-linejoin:miter;stroke-width:0.8;"/>
   </g>
   <g id="patch_6">
    <path d="M 76.5 60.48 
L 550.8 60.48 
" style="fill:none;stroke:#000000;stroke-linecap:square;stroke-linejoin:miter;stroke-width:0.8;"/>
   </g>
   <g id="text_25">
    <!-- leuven: img1-img3 -->
    <defs>
     <path d="M 9.421875 75.984375 
L 18.40625 75.984375 
L 18.40625 0 
L 9.421875 0 
z
" id="DejaVuSans-108"/>
     <path d="M 8.5 21.578125 
L 8.5 54.6875 
L 17.484375 54.6875 
L 17.484375 21.921875 
Q 17.484375 14.15625 20.5 10.265625 
Q 23.53125 6.390625 29.59375 6.390625 
Q 36.859375 6.390625 41.078125 11.03125 
Q 45.3125 15.671875 45.3125 23.6875 
L 45.3125 54.6875 
L 54.296875 54.6875 
L 54.296875 0 
L 45.3125 0 
L 45.3125 8.40625 
Q 42.046875 3.421875 37.71875 1 
Q 33.40625 -1.421875 27.6875 -1.421875 
Q 18.265625 -1.421875 13.375 4.4375 
Q 8.5 10.296875 8.5 21.578125 
z
M 31.109375 56 
z
" id="DejaVuSans-117"/>
     <path d="M 2.984375 54.6875 
L 12.5 54.6875 
L 29.59375 8.796875 
L 46.6875 54.6875 
L 56.203125 54.6875 
L 35.6875 0 
L 23.484375 0 
z
" id="DejaVuSans-118"/>
     <path d="M 11.71875 12.40625 
L 22.015625 12.40625 
L 22.015625 0 
L 11.71875 0 
z
M 11.71875 51.703125 
L 22.015625 51.703125 
L 22.015625 39.3125 
L 11.71875 39.3125 
z
" id="DejaVuSans-58"/>
     <path id="DejaVuSans-32"/>
     <path d="M 52 44.1875 
Q 55.375 50.25 60.0625 53.125 
Q 64.75 56 71.09375 56 
Q 79.640625 56 84.28125 50.015625 
Q 88.921875 44.046875 88.921875 33.015625 
L 88.921875 0 
L 79.890625 0 
L 79.890625 32.71875 
Q 79.890625 40.578125 77.09375 44.375 
Q 74.3125 48.1875 68.609375 48.1875 
Q 61.625 48.1875 57.5625 43.546875 
Q 53.515625 38.921875 53.515625 30.90625 
L 53.515625 0 
L 44.484375 0 
L 44.484375 32.71875 
Q 44.484375 40.625 41.703125 44.40625 
Q 38.921875 48.1875 33.109375 48.1875 
Q 26.21875 48.1875 22.15625 43.53125 
Q 18.109375 38.875 18.109375 30.90625 
L 18.109375 0 
L 9.078125 0 
L 9.078125 54.6875 
L 18.109375 54.6875 
L 18.109375 46.1875 
Q 21.1875 51.21875 25.484375 53.609375 
Q 29.78125 56 35.6875 56 
Q 41.65625 56 45.828125 52.96875 
Q 50 49.953125 52 44.1875 
z
" id="DejaVuSans-109"/>
     <path d="M 45.40625 27.984375 
Q 45.40625 37.75 41.375 43.109375 
Q 37.359375 48.484375 30.078125 48.484375 
Q 22.859375 48.484375 18.828125 43.109375 
Q 14.796875 37.75 14.796875 27.984375 
Q 14.796875 18.265625 18.828125 12.890625 
Q 22.859375 7.515625 30.078125 7.515625 
Q 37.359375 7.515625 41.375 12.890625 
Q 45.40625 18.265625 45.40625 27.984375 
z
M 54.390625 6.78125 
Q 54.390625 -7.171875 48.1875 -13.984375 
Q 42 -20.796875 29.203125 -20.796875 
Q 24.46875 -20.796875 20.265625 -20.09375 
Q 16.0625 -19.390625 12.109375 -17.921875 
L 12.109375 -9.1875 
Q 16.0625 -11.328125 19.921875 -12.34375 
Q 23.78125 -13.375 27.78125 -13.375 
Q 36.625 -13.375 41.015625 -8.765625 
Q 45.40625 -4.15625 45.40625 5.171875 
L 45.40625 9.625 
Q 42.625 4.78125 38.28125 2.390625 
Q 33.9375 0 27.875 0 
Q 17.828125 0 11.671875 7.65625 
Q 5.515625 15.328125 5.515625 27.984375 
Q 5.515625 40.671875 11.671875 48.328125 
Q 17.828125 56 27.875 56 
Q 33.9375 56 38.28125 53.609375 
Q 42.625 51.21875 45.40625 46.390625 
L 45.40625 54.6875 
L 54.390625 54.6875 
z
" id="DejaVuSans-103"/>
    </defs>
    <g transform="translate(257.074688 41.042625)scale(0.12 -0.12)">
     <use xlink:href="#DejaVuSans-108"/>
     <use x="27.783203" xlink:href="#DejaVuSans-101"/>
     <use x="89.306641" xlink:href="#DejaVuSans-117"/>
     <use x="152.685547" xlink:href="#DejaVuSans-118"/>
     <use x="211.865234" xlink:href="#DejaVuSans-101"/>
     <use x="273.388672" xlink:href="#DejaVuSans-110"/>
     <use x="336.767578" xlink:href="#DejaVuSans-58"/>
     <use x="370.458984" xlink:href="#DejaVuSans-32"/>
     <use x="402.246094" xlink:href="#DejaVuSans-105"/>
     <use x="430.029297" xlink:href="#DejaVuSans-109"/>
     <use x="527.441406" xlink:href="#DejaVuSans-103"/>
     <use x="590.917969" xlink:href="#DejaVuSans-49"/>
     <use x="654.541016" xlink:href="#DejaVuSans-45"/>
     <use x="690.625" xlink:href="#DejaVuSans-105"/>
     <use x="718.408203" xlink:href="#DejaVuSans-109"/>
     <use x="815.820312" xlink:href="#DejaVuSans-103"/>
     <use x="879.296875" xlink:href="#DejaVuSans-51"/>
    </g>
    <!-- NearestNeighbours -->
    <defs>
     <path d="M 9.8125 72.90625 
L 23.09375 72.90625 
L 55.421875 11.921875 
L 55.421875 72.90625 
L 64.984375 72.90625 
L 64.984375 0 
L 51.703125 0 
L 19.390625 60.984375 
L 19.390625 0 
L 9.8125 0 
z
" id="DejaVuSans-78"/>
     <path d="M 34.28125 27.484375 
Q 23.390625 27.484375 19.1875 25 
Q 14.984375 22.515625 14.984375 16.5 
Q 14.984375 11.71875 18.140625 8.90625 
Q 21.296875 6.109375 26.703125 6.109375 
Q 34.1875 6.109375 38.703125 11.40625 
Q 43.21875 16.703125 43.21875 25.484375 
L 43.21875 27.484375 
z
M 52.203125 31.203125 
L 52.203125 0 
L 43.21875 0 
L 43.21875 8.296875 
Q 40.140625 3.328125 35.546875 0.953125 
Q 30.953125 -1.421875 24.3125 -1.421875 
Q 15.921875 -1.421875 10.953125 3.296875 
Q 6 8.015625 6 15.921875 
Q 6 25.140625 12.171875 29.828125 
Q 18.359375 34.515625 30.609375 34.515625 
L 43.21875 34.515625 
L 43.21875 35.40625 
Q 43.21875 41.609375 39.140625 45 
Q 35.0625 48.390625 27.6875 48.390625 
Q 23 48.390625 18.546875 47.265625 
Q 14.109375 46.140625 10.015625 43.890625 
L 10.015625 52.203125 
Q 14.9375 54.109375 19.578125 55.046875 
Q 24.21875 56 28.609375 56 
Q 40.484375 56 46.34375 49.84375 
Q 52.203125 43.703125 52.203125 31.203125 
z
" id="DejaVuSans-97"/>
     <path d="M 54.890625 33.015625 
L 54.890625 0 
L 45.90625 0 
L 45.90625 32.71875 
Q 45.90625 40.484375 42.875 44.328125 
Q 39.84375 48.1875 33.796875 48.1875 
Q 26.515625 48.1875 22.3125 43.546875 
Q 18.109375 38.921875 18.109375 30.90625 
L 18.109375 0 
L 9.078125 0 
L 9.078125 75.984375 
L 18.109375 75.984375 
L 18.109375 46.1875 
Q 21.34375 51.125 25.703125 53.5625 
Q 30.078125 56 35.796875 56 
Q 45.21875 56 50.046875 50.171875 
Q 54.890625 44.34375 54.890625 33.015625 
z
" id="DejaVuSans-104"/>
     <path d="M 48.6875 27.296875 
Q 48.6875 37.203125 44.609375 42.84375 
Q 40.53125 48.484375 33.40625 48.484375 
Q 26.265625 48.484375 22.1875 42.84375 
Q 18.109375 37.203125 18.109375 27.296875 
Q 18.109375 17.390625 22.1875 11.75 
Q 26.265625 6.109375 33.40625 6.109375 
Q 40.53125 6.109375 44.609375 11.75 
Q 48.6875 17.390625 48.6875 27.296875 
z
M 18.109375 46.390625 
Q 20.953125 51.265625 25.265625 53.625 
Q 29.59375 56 35.59375 56 
Q 45.5625 56 51.78125 48.09375 
Q 58.015625 40.1875 58.015625 27.296875 
Q 58.015625 14.40625 51.78125 6.484375 
Q 45.5625 -1.421875 35.59375 -1.421875 
Q 29.59375 -1.421875 25.265625 0.953125 
Q 20.953125 3.328125 18.109375 8.203125 
L 18.109375 0 
L 9.078125 0 
L 9.078125 75.984375 
L 18.109375 75.984375 
z
" id="DejaVuSans-98"/>
    </defs>
    <g transform="translate(255.957188 54.48)scale(0.12 -0.12)">
     <use xlink:href="#DejaVuSans-78"/>
     <use x="74.804688" xlink:href="#DejaVuSans-101"/>
     <use x="136.328125" xlink:href="#DejaVuSans-97"/>
     <use x="197.607422" xlink:href="#DejaVuSans-114"/>
     <use x="236.470703" xlink:href="#DejaVuSans-101"/>
     <use x="297.994141" xlink:href="#DejaVuSans-115"/>
     <use x="350.09375" xlink:href="#DejaVuSans-116"/>
     <use x="389.302734" xlink:href="#DejaVuSans-78"/>
     <use x="464.107422" xlink:href="#DejaVuSans-101"/>
     <use x="525.630859" xlink:href="#DejaVuSans-105"/>
     <use x="553.414062" xlink:href="#DejaVuSans-103"/>
     <use x="616.890625" xlink:href="#DejaVuSans-104"/>
     <use x="680.269531" xlink:href="#DejaVuSans-98"/>
     <use x="743.746094" xlink:href="#DejaVuSans-111"/>
     <use x="804.927734" xlink:href="#DejaVuSans-117"/>
     <use x="868.306641" xlink:href="#DejaVuSans-114"/>
     <use x="909.419922" xlink:href="#DejaVuSans-115"/>
    </g>
   </g>
   <g id="legend_1">
    <g id="patch_7">
     <path d="M 362.659375 112.514375 
L 543.8 112.514375 
Q 545.8 112.514375 545.8 110.514375 
L 545.8 67.48 
Q 545.8 65.48 543.8 65.48 
L 362.659375 65.48 
Q 360.659375 65.48 360.659375 67.48 
L 360.659375 110.514375 
Q 360.659375 112.514375 362.659375 112.514375 
z
" style="fill:#ffffff;opacity:0.8;stroke:#cccccc;stroke-linejoin:miter;"/>
    </g>
    <g id="line2d_48">
     <path d="M 364.659375 73.578438 
L 384.659375 73.578438 
" style="fill:none;stroke:#1f77b4;stroke-linecap:square;stroke-width:2;"/>
    </g>
    <g id="line2d_49"/>
    <g id="text_26">
     <!-- root-cvsift AP: 92.9, %In: 51.7 -->
     <defs>
      <path d="M 37.109375 75.984375 
L 37.109375 68.5 
L 28.515625 68.5 
Q 23.6875 68.5 21.796875 66.546875 
Q 19.921875 64.59375 19.921875 59.515625 
L 19.921875 54.6875 
L 34.71875 54.6875 
L 34.71875 47.703125 
L 19.921875 47.703125 
L 19.921875 0 
L 10.890625 0 
L 10.890625 47.703125 
L 2.296875 47.703125 
L 2.296875 54.6875 
L 10.890625 54.6875 
L 10.890625 58.5 
Q 10.890625 67.625 15.140625 71.796875 
Q 19.390625 75.984375 28.609375 75.984375 
z
" id="DejaVuSans-102"/>
      <path d="M 34.1875 63.1875 
L 20.796875 26.90625 
L 47.609375 26.90625 
z
M 28.609375 72.90625 
L 39.796875 72.90625 
L 67.578125 0 
L 57.328125 0 
L 50.6875 18.703125 
L 17.828125 18.703125 
L 11.1875 0 
L 0.78125 0 
z
" id="DejaVuSans-65"/>
      <path d="M 19.671875 64.796875 
L 19.671875 37.40625 
L 32.078125 37.40625 
Q 38.96875 37.40625 42.71875 40.96875 
Q 46.484375 44.53125 46.484375 51.125 
Q 46.484375 57.671875 42.71875 61.234375 
Q 38.96875 64.796875 32.078125 64.796875 
z
M 9.8125 72.90625 
L 32.078125 72.90625 
Q 44.34375 72.90625 50.609375 67.359375 
Q 56.890625 61.8125 56.890625 51.125 
Q 56.890625 40.328125 50.609375 34.8125 
Q 44.34375 29.296875 32.078125 29.296875 
L 19.671875 29.296875 
L 19.671875 0 
L 9.8125 0 
z
" id="DejaVuSans-80"/>
      <path d="M 11.71875 12.40625 
L 22.015625 12.40625 
L 22.015625 4 
L 14.015625 -11.625 
L 7.71875 -11.625 
L 11.71875 4 
z
" id="DejaVuSans-44"/>
      <path d="M 72.703125 32.078125 
Q 68.453125 32.078125 66.03125 28.46875 
Q 63.625 24.859375 63.625 18.40625 
Q 63.625 12.0625 66.03125 8.421875 
Q 68.453125 4.78125 72.703125 4.78125 
Q 76.859375 4.78125 79.265625 8.421875 
Q 81.6875 12.0625 81.6875 18.40625 
Q 81.6875 24.8125 79.265625 28.4375 
Q 76.859375 32.078125 72.703125 32.078125 
z
M 72.703125 38.28125 
Q 80.421875 38.28125 84.953125 32.90625 
Q 89.5 27.546875 89.5 18.40625 
Q 89.5 9.28125 84.9375 3.921875 
Q 80.375 -1.421875 72.703125 -1.421875 
Q 64.890625 -1.421875 60.34375 3.921875 
Q 55.8125 9.28125 55.8125 18.40625 
Q 55.8125 27.59375 60.375 32.9375 
Q 64.9375 38.28125 72.703125 38.28125 
z
M 22.3125 68.015625 
Q 18.109375 68.015625 15.6875 64.375 
Q 13.28125 60.75 13.28125 54.390625 
Q 13.28125 47.953125 15.671875 44.328125 
Q 18.0625 40.71875 22.3125 40.71875 
Q 26.5625 40.71875 28.96875 44.328125 
Q 31.390625 47.953125 31.390625 54.390625 
Q 31.390625 60.6875 28.953125 64.34375 
Q 26.515625 68.015625 22.3125 68.015625 
z
M 66.40625 74.21875 
L 74.21875 74.21875 
L 28.609375 -1.421875 
L 20.796875 -1.421875 
z
M 22.3125 74.21875 
Q 30.03125 74.21875 34.609375 68.875 
Q 39.203125 63.53125 39.203125 54.390625 
Q 39.203125 45.171875 34.640625 39.84375 
Q 30.078125 34.515625 22.3125 34.515625 
Q 14.546875 34.515625 10.03125 39.859375 
Q 5.515625 45.21875 5.515625 54.390625 
Q 5.515625 63.484375 10.046875 68.84375 
Q 14.59375 74.21875 22.3125 74.21875 
z
" id="DejaVuSans-37"/>
      <path d="M 9.8125 72.90625 
L 19.671875 72.90625 
L 19.671875 0 
L 9.8125 0 
z
" id="DejaVuSans-73"/>
     </defs>
     <g transform="translate(392.659375 77.078438)scale(0.1 -0.1)">
      <use xlink:href="#DejaVuSans-114"/>
      <use x="38.863281" xlink:href="#DejaVuSans-111"/>
      <use x="100.044922" xlink:href="#DejaVuSans-111"/>
      <use x="161.226562" xlink:href="#DejaVuSans-116"/>
      <use x="200.435547" xlink:href="#DejaVuSans-45"/>
      <use x="236.519531" xlink:href="#DejaVuSans-99"/>
      <use x="291.5" xlink:href="#DejaVuSans-118"/>
      <use x="350.679688" xlink:href="#DejaVuSans-115"/>
      <use x="402.779297" xlink:href="#DejaVuSans-105"/>
      <use x="430.5625" xlink:href="#DejaVuSans-102"/>
      <use x="464.017578" xlink:href="#DejaVuSans-116"/>
      <use x="503.226562" xlink:href="#DejaVuSans-32"/>
      <use x="535.013672" xlink:href="#DejaVuSans-65"/>
      <use x="603.421875" xlink:href="#DejaVuSans-80"/>
      <use x="663.724609" xlink:href="#DejaVuSans-58"/>
      <use x="697.416016" xlink:href="#DejaVuSans-32"/>
      <use x="729.203125" xlink:href="#DejaVuSans-57"/>
      <use x="792.826172" xlink:href="#DejaVuSans-50"/>
      <use x="856.449219" xlink:href="#DejaVuSans-46"/>
      <use x="888.236328" xlink:href="#DejaVuSans-57"/>
      <use x="951.859375" xlink:href="#DejaVuSans-44"/>
      <use x="983.646484" xlink:href="#DejaVuSans-32"/>
      <use x="1015.433594" xlink:href="#DejaVuSans-37"/>
      <use x="1110.453125" xlink:href="#DejaVuSans-73"/>
      <use x="1139.945312" xlink:href="#DejaVuSans-110"/>
      <use x="1203.324219" xlink:href="#DejaVuSans-58"/>
      <use x="1237.015625" xlink:href="#DejaVuSans-32"/>
      <use x="1268.802734" xlink:href="#DejaVuSans-53"/>
      <use x="1332.425781" xlink:href="#DejaVuSans-49"/>
      <use x="1396.048828" xlink:href="#DejaVuSans-46"/>
      <use x="1427.835938" xlink:href="#DejaVuSans-55"/>
     </g>
    </g>
    <g id="line2d_50">
     <path d="M 364.659375 88.256563 
L 384.659375 88.256563 
" style="fill:none;stroke:#ff7f0e;stroke-linecap:square;stroke-width:2;"/>
    </g>
    <g id="line2d_51"/>
    <g id="text_27">
     <!-- tfeat AP: 88.3, %In: 51.4 -->
     <g transform="translate(392.659375 91.756563)scale(0.1 -0.1)">
      <use xlink:href="#DejaVuSans-116"/>
      <use x="39.208984" xlink:href="#DejaVuSans-102"/>
      <use x="74.414062" xlink:href="#DejaVuSans-101"/>
      <use x="135.9375" xlink:href="#DejaVuSans-97"/>
      <use x="197.216797" xlink:href="#DejaVuSans-116"/>
      <use x="236.425781" xlink:href="#DejaVuSans-32"/>
      <use x="268.212891" xlink:href="#DejaVuSans-65"/>
      <use x="336.621094" xlink:href="#DejaVuSans-80"/>
      <use x="396.923828" xlink:href="#DejaVuSans-58"/>
      <use x="430.615234" xlink:href="#DejaVuSans-32"/>
      <use x="462.402344" xlink:href="#DejaVuSans-56"/>
      <use x="526.025391" xlink:href="#DejaVuSans-56"/>
      <use x="589.648438" xlink:href="#DejaVuSans-46"/>
      <use x="621.435547" xlink:href="#DejaVuSans-51"/>
      <use x="685.058594" xlink:href="#DejaVuSans-44"/>
      <use x="716.845703" xlink:href="#DejaVuSans-32"/>
      <use x="748.632812" xlink:href="#DejaVuSans-37"/>
      <use x="843.652344" xlink:href="#DejaVuSans-73"/>
      <use x="873.144531" xlink:href="#DejaVuSans-110"/>
      <use x="936.523438" xlink:href="#DejaVuSans-58"/>
      <use x="970.214844" xlink:href="#DejaVuSans-32"/>
      <use x="1002.001953" xlink:href="#DejaVuSans-53"/>
      <use x="1065.625" xlink:href="#DejaVuSans-49"/>
      <use x="1129.248047" xlink:href="#DejaVuSans-46"/>
      <use x="1161.035156" xlink:href="#DejaVuSans-52"/>
     </g>
    </g>
    <g id="line2d_52">
     <path d="M 364.659375 102.934687 
L 384.659375 102.934687 
" style="fill:none;stroke:#2ca02c;stroke-linecap:square;stroke-width:2;"/>
    </g>
    <g id="line2d_53"/>
    <g id="text_28">
     <!-- hardnet AP: 94.8, %In: 52.9 -->
     <defs>
      <path d="M 45.40625 46.390625 
L 45.40625 75.984375 
L 54.390625 75.984375 
L 54.390625 0 
L 45.40625 0 
L 45.40625 8.203125 
Q 42.578125 3.328125 38.25 0.953125 
Q 33.9375 -1.421875 27.875 -1.421875 
Q 17.96875 -1.421875 11.734375 6.484375 
Q 5.515625 14.40625 5.515625 27.296875 
Q 5.515625 40.1875 11.734375 48.09375 
Q 17.96875 56 27.875 56 
Q 33.9375 56 38.25 53.625 
Q 42.578125 51.265625 45.40625 46.390625 
z
M 14.796875 27.296875 
Q 14.796875 17.390625 18.875 11.75 
Q 22.953125 6.109375 30.078125 6.109375 
Q 37.203125 6.109375 41.296875 11.75 
Q 45.40625 17.390625 45.40625 27.296875 
Q 45.40625 37.203125 41.296875 42.84375 
Q 37.203125 48.484375 30.078125 48.484375 
Q 22.953125 48.484375 18.875 42.84375 
Q 14.796875 37.203125 14.796875 27.296875 
z
" id="DejaVuSans-100"/>
     </defs>
     <g transform="translate(392.659375 106.434687)scale(0.1 -0.1)">
      <use xlink:href="#DejaVuSans-104"/>
      <use x="63.378906" xlink:href="#DejaVuSans-97"/>
      <use x="124.658203" xlink:href="#DejaVuSans-114"/>
      <use x="164.021484" xlink:href="#DejaVuSans-100"/>
      <use x="227.498047" xlink:href="#DejaVuSans-110"/>
      <use x="290.876953" xlink:href="#DejaVuSans-101"/>
      <use x="352.400391" xlink:href="#DejaVuSans-116"/>
      <use x="391.609375" xlink:href="#DejaVuSans-32"/>
      <use x="423.396484" xlink:href="#DejaVuSans-65"/>
      <use x="491.804688" xlink:href="#DejaVuSans-80"/>
      <use x="552.107422" xlink:href="#DejaVuSans-58"/>
      <use x="585.798828" xlink:href="#DejaVuSans-32"/>
      <use x="617.585938" xlink:href="#DejaVuSans-57"/>
      <use x="681.208984" xlink:href="#DejaVuSans-52"/>
      <use x="744.832031" xlink:href="#DejaVuSans-46"/>
      <use x="776.619141" xlink:href="#DejaVuSans-56"/>
      <use x="840.242188" xlink:href="#DejaVuSans-44"/>
      <use x="872.029297" xlink:href="#DejaVuSans-32"/>
      <use x="903.816406" xlink:href="#DejaVuSans-37"/>
      <use x="998.835938" xlink:href="#DejaVuSans-73"/>
      <use x="1028.328125" xlink:href="#DejaVuSans-110"/>
      <use x="1091.707031" xlink:href="#DejaVuSans-58"/>
      <use x="1125.398438" xlink:href="#DejaVuSans-32"/>
      <use x="1157.185547" xlink:href="#DejaVuSans-53"/>
      <use x="1220.808594" xlink:href="#DejaVuSans-50"/>
      <use x="1284.431641" xlink:href="#DejaVuSans-46"/>
      <use x="1316.21875" xlink:href="#DejaVuSans-57"/>
     </g>
    </g>
   </g>
  </g>
 </g>
 <defs>
  <clipPath id="p831e29b04d">
   <rect height="388.08" width="474.3" x="76.5" y="60.48"/>
  </clipPath>
 </defs>
</svg>
