<?xml version="1.0" encoding="utf-8" standalone="no"?>
<!DOCTYPE svg PUBLIC "-//W3C//DTD SVG 1.1//EN"
  "http://www.w3.org/Graphics/SVG/1.1/DTD/svg11.dtd">
<!-- Created with matplotlib (https://matplotlib.org/) -->
<svg height="504pt" version="1.1" viewBox="0 0 612 504" width="612pt" xmlns="http://www.w3.org/2000/svg" xmlns:xlink="http://www.w3.org/1999/xlink">
 <defs>
  <style type="text/css">
*{stroke-linecap:butt;stroke-linejoin:round;}
  </style>
 </defs>
 <g id="figure_1">
  <g id="patch_1">
   <path d="M 0 504 
L 612 504 
L 612 0 
L 0 0 
z
" style="fill:#ffffff;"/>
  </g>
  <g id="axes_1">
   <g id="patch_2">
    <path d="M 76.5 448.56 
L 550.8 448.56 
L 550.8 60.48 
L 76.5 60.48 
z
" style="fill:#ffffff;"/>
   </g>
   <g id="matplotlib.axis_1">
    <g id="xtick_1">
     <g id="line2d_1">
      <path clip-path="url(#p448b7e714a)" d="M 76.5 448.56 
L 76.5 60.48 
" style="fill:none;stroke:#b0b0b0;stroke-linecap:square;stroke-width:0.8;"/>
     </g>
     <g id="line2d_2">
      <defs>
       <path d="M 0 0 
L 0 3.5 
" id="mf3f824cada" style="stroke:#000000;stroke-width:0.8;"/>
      </defs>
      <g>
       <use style="stroke:#000000;stroke-width:0.8;" x="76.5" xlink:href="#mf3f824cada" y="448.56"/>
      </g>
     </g>
     <g id="text_1">
      <!-- 0.0 -->
      <defs>
       <path d="M 31.78125 66.40625 
Q 24.171875 66.40625 20.328125 58.90625 
Q 16.5 51.421875 16.5 36.375 
Q 16.5 21.390625 20.328125 13.890625 
Q 24.171875 6.390625 31.78125 6.390625 
Q 39.453125 6.390625 43.28125 13.890625 
Q 47.125 21.390625 47.125 36.375 
Q 47.125 51.421875 43.28125 58.90625 
Q 39.453125 66.40625 31.78125 66.40625 
z
M 31.78125 74.21875 
Q 44.046875 74.21875 50.515625 64.515625 
Q 56.984375 54.828125 56.984375 36.375 
Q 56.984375 17.96875 50.515625 8.265625 
Q 44.046875 -1.421875 31.78125 -1.421875 
Q 19.53125 -1.421875 13.0625 8.265625 
Q 6.59375 17.96875 6.59375 36.375 
Q 6.59375 54.828125 13.0625 64.515625 
Q 19.53125 74.21875 31.78125 74.21875 
z
" id="DejaVuSans-48"/>
       <path d="M 10.6875 12.40625 
L 21 12.40625 
L 21 0 
L 10.6875 0 
z
" id="DejaVuSans-46"/>
      </defs>
      <g transform="translate(68.548438 463.158437)scale(0.1 -0.1)">
       <use xlink:href="#DejaVuSans-48"/>
       <use x="63.623047" xlink:href="#DejaVuSans-46"/>
       <use x="95.410156" xlink:href="#DejaVuSans-48"/>
      </g>
     </g>
    </g>
    <g id="xtick_2">
     <g id="line2d_3">
      <path clip-path="url(#p448b7e714a)" d="M 123.93 448.56 
L 123.93 60.48 
" style="fill:none;stroke:#b0b0b0;stroke-linecap:square;stroke-width:0.8;"/>
     </g>
     <g id="line2d_4">
      <g>
       <use style="stroke:#000000;stroke-width:0.8;" x="123.93" xlink:href="#mf3f824cada" y="448.56"/>
      </g>
     </g>
     <g id="text_2">
      <!-- 0.1 -->
      <defs>
       <path d="M 12.40625 8.296875 
L 28.515625 8.296875 
L 28.515625 63.921875 
L 10.984375 60.40625 
L 10.984375 69.390625 
L 28.421875 72.90625 
L 38.28125 72.90625 
L 38.28125 8.296875 
L 54.390625 8.296875 
L 54.390625 0 
L 12.40625 0 
z
" id="DejaVuSans-49"/>
      </defs>
      <g transform="translate(115.978438 463.158437)scale(0.1 -0.1)">
       <use xlink:href="#DejaVuSans-48"/>
       <use x="63.623047" xlink:href="#DejaVuSans-46"/>
       <use x="95.410156" xlink:href="#DejaVuSans-49"/>
      </g>
     </g>
    </g>
    <g id="xtick_3">
     <g id="line2d_5">
      <path clip-path="url(#p448b7e714a)" d="M 171.36 448.56 
L 171.36 60.48 
" style="fill:none;stroke:#b0b0b0;stroke-linecap:square;stroke-width:0.8;"/>
     </g>
     <g id="line2d_6">
      <g>
       <use style="stroke:#000000;stroke-width:0.8;" x="171.36" xlink:href="#mf3f824cada" y="448.56"/>
      </g>
     </g>
     <g id="text_3">
      <!-- 0.2 -->
      <defs>
       <path d="M 19.1875 8.296875 
L 53.609375 8.296875 
L 53.609375 0 
L 7.328125 0 
L 7.328125 8.296875 
Q 12.9375 14.109375 22.625 23.890625 
Q 32.328125 33.6875 34.8125 36.53125 
Q 39.546875 41.84375 41.421875 45.53125 
Q 43.3125 49.21875 43.3125 52.78125 
Q 43.3125 58.59375 39.234375 62.25 
Q 35.15625 65.921875 28.609375 65.921875 
Q 23.96875 65.921875 18.8125 64.3125 
Q 13.671875 62.703125 7.8125 59.421875 
L 7.8125 69.390625 
Q 13.765625 71.78125 18.9375 73 
Q 24.125 74.21875 28.421875 74.21875 
Q 39.75 74.21875 46.484375 68.546875 
Q 53.21875 62.890625 53.21875 53.421875 
Q 53.21875 48.921875 51.53125 44.890625 
Q 49.859375 40.875 45.40625 35.40625 
Q 44.1875 33.984375 37.640625 27.21875 
Q 31.109375 20.453125 19.1875 8.296875 
z
" id="DejaVuSans-50"/>
      </defs>
      <g transform="translate(163.408438 463.158437)scale(0.1 -0.1)">
       <use xlink:href="#DejaVuSans-48"/>
       <use x="63.623047" xlink:href="#DejaVuSans-46"/>
       <use x="95.410156" xlink:href="#DejaVuSans-50"/>
      </g>
     </g>
    </g>
    <g id="xtick_4">
     <g id="line2d_7">
      <path clip-path="url(#p448b7e714a)" d="M 218.79 448.56 
L 218.79 60.48 
" style="fill:none;stroke:#b0b0b0;stroke-linecap:square;stroke-width:0.8;"/>
     </g>
     <g id="line2d_8">
      <g>
       <use style="stroke:#000000;stroke-width:0.8;" x="218.79" xlink:href="#mf3f824cada" y="448.56"/>
      </g>
     </g>
     <g id="text_4">
      <!-- 0.3 -->
      <defs>
       <path d="M 40.578125 39.3125 
Q 47.65625 37.796875 51.625 33 
Q 55.609375 28.21875 55.609375 21.1875 
Q 55.609375 10.40625 48.1875 4.484375 
Q 40.765625 -1.421875 27.09375 -1.421875 
Q 22.515625 -1.421875 17.65625 -0.515625 
Q 12.796875 0.390625 7.625 2.203125 
L 7.625 11.71875 
Q 11.71875 9.328125 16.59375 8.109375 
Q 21.484375 6.890625 26.8125 6.890625 
Q 36.078125 6.890625 40.9375 10.546875 
Q 45.796875 14.203125 45.796875 21.1875 
Q 45.796875 27.640625 41.28125 31.265625 
Q 36.765625 34.90625 28.71875 34.90625 
L 20.21875 34.90625 
L 20.21875 43.015625 
L 29.109375 43.015625 
Q 36.375 43.015625 40.234375 45.921875 
Q 44.09375 48.828125 44.09375 54.296875 
Q 44.09375 59.90625 40.109375 62.90625 
Q 36.140625 65.921875 28.71875 65.921875 
Q 24.65625 65.921875 20.015625 65.03125 
Q 15.375 64.15625 9.8125 62.3125 
L 9.8125 71.09375 
Q 15.4375 72.65625 20.34375 73.4375 
Q 25.25 74.21875 29.59375 74.21875 
Q 40.828125 74.21875 47.359375 69.109375 
Q 53.90625 64.015625 53.90625 55.328125 
Q 53.90625 49.265625 50.4375 45.09375 
Q 46.96875 40.921875 40.578125 39.3125 
z
" id="DejaVuSans-51"/>
      </defs>
      <g transform="translate(210.838438 463.158437)scale(0.1 -0.1)">
       <use xlink:href="#DejaVuSans-48"/>
       <use x="63.623047" xlink:href="#DejaVuSans-46"/>
       <use x="95.410156" xlink:href="#DejaVuSans-51"/>
      </g>
     </g>
    </g>
    <g id="xtick_5">
     <g id="line2d_9">
      <path clip-path="url(#p448b7e714a)" d="M 266.22 448.56 
L 266.22 60.48 
" style="fill:none;stroke:#b0b0b0;stroke-linecap:square;stroke-width:0.8;"/>
     </g>
     <g id="line2d_10">
      <g>
       <use style="stroke:#000000;stroke-width:0.8;" x="266.22" xlink:href="#mf3f824cada" y="448.56"/>
      </g>
     </g>
     <g id="text_5">
      <!-- 0.4 -->
      <defs>
       <path d="M 37.796875 64.3125 
L 12.890625 25.390625 
L 37.796875 25.390625 
z
M 35.203125 72.90625 
L 47.609375 72.90625 
L 47.609375 25.390625 
L 58.015625 25.390625 
L 58.015625 17.1875 
L 47.609375 17.1875 
L 47.609375 0 
L 37.796875 0 
L 37.796875 17.1875 
L 4.890625 17.1875 
L 4.890625 26.703125 
z
" id="DejaVuSans-52"/>
      </defs>
      <g transform="translate(258.268438 463.158437)scale(0.1 -0.1)">
       <use xlink:href="#DejaVuSans-48"/>
       <use x="63.623047" xlink:href="#DejaVuSans-46"/>
       <use x="95.410156" xlink:href="#DejaVuSans-52"/>
      </g>
     </g>
    </g>
    <g id="xtick_6">
     <g id="line2d_11">
      <path clip-path="url(#p448b7e714a)" d="M 313.65 448.56 
L 313.65 60.48 
" style="fill:none;stroke:#b0b0b0;stroke-linecap:square;stroke-width:0.8;"/>
     </g>
     <g id="line2d_12">
      <g>
       <use style="stroke:#000000;stroke-width:0.8;" x="313.65" xlink:href="#mf3f824cada" y="448.56"/>
      </g>
     </g>
     <g id="text_6">
      <!-- 0.5 -->
      <defs>
       <path d="M 10.796875 72.90625 
L 49.515625 72.90625 
L 49.515625 64.59375 
L 19.828125 64.59375 
L 19.828125 46.734375 
Q 21.96875 47.46875 24.109375 47.828125 
Q 26.265625 48.1875 28.421875 48.1875 
Q 40.625 48.1875 47.75 41.5 
Q 54.890625 34.8125 54.890625 23.390625 
Q 54.890625 11.625 47.5625 5.09375 
Q 40.234375 -1.421875 26.90625 -1.421875 
Q 22.3125 -1.421875 17.546875 -0.640625 
Q 12.796875 0.140625 7.71875 1.703125 
L 7.71875 11.625 
Q 12.109375 9.234375 16.796875 8.0625 
Q 21.484375 6.890625 26.703125 6.890625 
Q 35.15625 6.890625 40.078125 11.328125 
Q 45.015625 15.765625 45.015625 23.390625 
Q 45.015625 31 40.078125 35.4375 
Q 35.15625 39.890625 26.703125 39.890625 
Q 22.75 39.890625 18.8125 39.015625 
Q 14.890625 38.140625 10.796875 36.28125 
z
" id="DejaVuSans-53"/>
      </defs>
      <g transform="translate(305.698438 463.158437)scale(0.1 -0.1)">
       <use xlink:href="#DejaVuSans-48"/>
       <use x="63.623047" xlink:href="#DejaVuSans-46"/>
       <use x="95.410156" xlink:href="#DejaVuSans-53"/>
      </g>
     </g>
    </g>
    <g id="xtick_7">
     <g id="line2d_13">
      <path clip-path="url(#p448b7e714a)" d="M 361.08 448.56 
L 361.08 60.48 
" style="fill:none;stroke:#b0b0b0;stroke-linecap:square;stroke-width:0.8;"/>
     </g>
     <g id="line2d_14">
      <g>
       <use style="stroke:#000000;stroke-width:0.8;" x="361.08" xlink:href="#mf3f824cada" y="448.56"/>
      </g>
     </g>
     <g id="text_7">
      <!-- 0.6 -->
      <defs>
       <path d="M 33.015625 40.375 
Q 26.375 40.375 22.484375 35.828125 
Q 18.609375 31.296875 18.609375 23.390625 
Q 18.609375 15.53125 22.484375 10.953125 
Q 26.375 6.390625 33.015625 6.390625 
Q 39.65625 6.390625 43.53125 10.953125 
Q 47.40625 15.53125 47.40625 23.390625 
Q 47.40625 31.296875 43.53125 35.828125 
Q 39.65625 40.375 33.015625 40.375 
z
M 52.59375 71.296875 
L 52.59375 62.3125 
Q 48.875 64.0625 45.09375 64.984375 
Q 41.3125 65.921875 37.59375 65.921875 
Q 27.828125 65.921875 22.671875 59.328125 
Q 17.53125 52.734375 16.796875 39.40625 
Q 19.671875 43.65625 24.015625 45.921875 
Q 28.375 48.1875 33.59375 48.1875 
Q 44.578125 48.1875 50.953125 41.515625 
Q 57.328125 34.859375 57.328125 23.390625 
Q 57.328125 12.15625 50.6875 5.359375 
Q 44.046875 -1.421875 33.015625 -1.421875 
Q 20.359375 -1.421875 13.671875 8.265625 
Q 6.984375 17.96875 6.984375 36.375 
Q 6.984375 53.65625 15.1875 63.9375 
Q 23.390625 74.21875 37.203125 74.21875 
Q 40.921875 74.21875 44.703125 73.484375 
Q 48.484375 72.75 52.59375 71.296875 
z
" id="DejaVuSans-54"/>
      </defs>
      <g transform="translate(353.128438 463.158437)scale(0.1 -0.1)">
       <use xlink:href="#DejaVuSans-48"/>
       <use x="63.623047" xlink:href="#DejaVuSans-46"/>
       <use x="95.410156" xlink:href="#DejaVuSans-54"/>
      </g>
     </g>
    </g>
    <g id="xtick_8">
     <g id="line2d_15">
      <path clip-path="url(#p448b7e714a)" d="M 408.51 448.56 
L 408.51 60.48 
" style="fill:none;stroke:#b0b0b0;stroke-linecap:square;stroke-width:0.8;"/>
     </g>
     <g id="line2d_16">
      <g>
       <use style="stroke:#000000;stroke-width:0.8;" x="408.51" xlink:href="#mf3f824cada" y="448.56"/>
      </g>
     </g>
     <g id="text_8">
      <!-- 0.7 -->
      <defs>
       <path d="M 8.203125 72.90625 
L 55.078125 72.90625 
L 55.078125 68.703125 
L 28.609375 0 
L 18.3125 0 
L 43.21875 64.59375 
L 8.203125 64.59375 
z
" id="DejaVuSans-55"/>
      </defs>
      <g transform="translate(400.558438 463.158437)scale(0.1 -0.1)">
       <use xlink:href="#DejaVuSans-48"/>
       <use x="63.623047" xlink:href="#DejaVuSans-46"/>
       <use x="95.410156" xlink:href="#DejaVuSans-55"/>
      </g>
     </g>
    </g>
    <g id="xtick_9">
     <g id="line2d_17">
      <path clip-path="url(#p448b7e714a)" d="M 455.94 448.56 
L 455.94 60.48 
" style="fill:none;stroke:#b0b0b0;stroke-linecap:square;stroke-width:0.8;"/>
     </g>
     <g id="line2d_18">
      <g>
       <use style="stroke:#000000;stroke-width:0.8;" x="455.94" xlink:href="#mf3f824cada" y="448.56"/>
      </g>
     </g>
     <g id="text_9">
      <!-- 0.8 -->
      <defs>
       <path d="M 31.78125 34.625 
Q 24.75 34.625 20.71875 30.859375 
Q 16.703125 27.09375 16.703125 20.515625 
Q 16.703125 13.921875 20.71875 10.15625 
Q 24.75 6.390625 31.78125 6.390625 
Q 38.8125 6.390625 42.859375 10.171875 
Q 46.921875 13.96875 46.921875 20.515625 
Q 46.921875 27.09375 42.890625 30.859375 
Q 38.875 34.625 31.78125 34.625 
z
M 21.921875 38.8125 
Q 15.578125 40.375 12.03125 44.71875 
Q 8.5 49.078125 8.5 55.328125 
Q 8.5 64.0625 14.71875 69.140625 
Q 20.953125 74.21875 31.78125 74.21875 
Q 42.671875 74.21875 48.875 69.140625 
Q 55.078125 64.0625 55.078125 55.328125 
Q 55.078125 49.078125 51.53125 44.71875 
Q 48 40.375 41.703125 38.8125 
Q 48.828125 37.15625 52.796875 32.3125 
Q 56.78125 27.484375 56.78125 20.515625 
Q 56.78125 9.90625 50.3125 4.234375 
Q 43.84375 -1.421875 31.78125 -1.421875 
Q 19.734375 -1.421875 13.25 4.234375 
Q 6.78125 9.90625 6.78125 20.515625 
Q 6.78125 27.484375 10.78125 32.3125 
Q 14.796875 37.15625 21.921875 38.8125 
z
M 18.3125 54.390625 
Q 18.3125 48.734375 21.84375 45.5625 
Q 25.390625 42.390625 31.78125 42.390625 
Q 38.140625 42.390625 41.71875 45.5625 
Q 45.3125 48.734375 45.3125 54.390625 
Q 45.3125 60.0625 41.71875 63.234375 
Q 38.140625 66.40625 31.78125 66.40625 
Q 25.390625 66.40625 21.84375 63.234375 
Q 18.3125 60.0625 18.3125 54.390625 
z
" id="DejaVuSans-56"/>
      </defs>
      <g transform="translate(447.988438 463.158437)scale(0.1 -0.1)">
       <use xlink:href="#DejaVuSans-48"/>
       <use x="63.623047" xlink:href="#DejaVuSans-46"/>
       <use x="95.410156" xlink:href="#DejaVuSans-56"/>
      </g>
     </g>
    </g>
    <g id="xtick_10">
     <g id="line2d_19">
      <path clip-path="url(#p448b7e714a)" d="M 503.37 448.56 
L 503.37 60.48 
" style="fill:none;stroke:#b0b0b0;stroke-linecap:square;stroke-width:0.8;"/>
     </g>
     <g id="line2d_20">
      <g>
       <use style="stroke:#000000;stroke-width:0.8;" x="503.37" xlink:href="#mf3f824cada" y="448.56"/>
      </g>
     </g>
     <g id="text_10">
      <!-- 0.9 -->
      <defs>
       <path d="M 10.984375 1.515625 
L 10.984375 10.5 
Q 14.703125 8.734375 18.5 7.8125 
Q 22.3125 6.890625 25.984375 6.890625 
Q 35.75 6.890625 40.890625 13.453125 
Q 46.046875 20.015625 46.78125 33.40625 
Q 43.953125 29.203125 39.59375 26.953125 
Q 35.25 24.703125 29.984375 24.703125 
Q 19.046875 24.703125 12.671875 31.3125 
Q 6.296875 37.9375 6.296875 49.421875 
Q 6.296875 60.640625 12.9375 67.421875 
Q 19.578125 74.21875 30.609375 74.21875 
Q 43.265625 74.21875 49.921875 64.515625 
Q 56.59375 54.828125 56.59375 36.375 
Q 56.59375 19.140625 48.40625 8.859375 
Q 40.234375 -1.421875 26.421875 -1.421875 
Q 22.703125 -1.421875 18.890625 -0.6875 
Q 15.09375 0.046875 10.984375 1.515625 
z
M 30.609375 32.421875 
Q 37.25 32.421875 41.125 36.953125 
Q 45.015625 41.5 45.015625 49.421875 
Q 45.015625 57.28125 41.125 61.84375 
Q 37.25 66.40625 30.609375 66.40625 
Q 23.96875 66.40625 20.09375 61.84375 
Q 16.21875 57.28125 16.21875 49.421875 
Q 16.21875 41.5 20.09375 36.953125 
Q 23.96875 32.421875 30.609375 32.421875 
z
" id="DejaVuSans-57"/>
      </defs>
      <g transform="translate(495.418438 463.158437)scale(0.1 -0.1)">
       <use xlink:href="#DejaVuSans-48"/>
       <use x="63.623047" xlink:href="#DejaVuSans-46"/>
       <use x="95.410156" xlink:href="#DejaVuSans-57"/>
      </g>
     </g>
    </g>
    <g id="xtick_11">
     <g id="line2d_21">
      <path clip-path="url(#p448b7e714a)" d="M 550.8 448.56 
L 550.8 60.48 
" style="fill:none;stroke:#b0b0b0;stroke-linecap:square;stroke-width:0.8;"/>
     </g>
     <g id="line2d_22">
      <g>
       <use style="stroke:#000000;stroke-width:0.8;" x="550.8" xlink:href="#mf3f824cada" y="448.56"/>
      </g>
     </g>
     <g id="text_11">
      <!-- 1.0 -->
      <g transform="translate(542.848438 463.158437)scale(0.1 -0.1)">
       <use xlink:href="#DejaVuSans-49"/>
       <use x="63.623047" xlink:href="#DejaVuSans-46"/>
       <use x="95.410156" xlink:href="#DejaVuSans-48"/>
      </g>
     </g>
    </g>
    <g id="text_12">
     <!-- 1-precision -->
     <defs>
      <path d="M 4.890625 31.390625 
L 31.203125 31.390625 
L 31.203125 23.390625 
L 4.890625 23.390625 
z
" id="DejaVuSans-45"/>
      <path d="M 18.109375 8.203125 
L 18.109375 -20.796875 
L 9.078125 -20.796875 
L 9.078125 54.6875 
L 18.109375 54.6875 
L 18.109375 46.390625 
Q 20.953125 51.265625 25.265625 53.625 
Q 29.59375 56 35.59375 56 
Q 45.5625 56 51.78125 48.09375 
Q 58.015625 40.1875 58.015625 27.296875 
Q 58.015625 14.40625 51.78125 6.484375 
Q 45.5625 -1.421875 35.59375 -1.421875 
Q 29.59375 -1.421875 25.265625 0.953125 
Q 20.953125 3.328125 18.109375 8.203125 
z
M 48.6875 27.296875 
Q 48.6875 37.203125 44.609375 42.84375 
Q 40.53125 48.484375 33.40625 48.484375 
Q 26.265625 48.484375 22.1875 42.84375 
Q 18.109375 37.203125 18.109375 27.296875 
Q 18.109375 17.390625 22.1875 11.75 
Q 26.265625 6.109375 33.40625 6.109375 
Q 40.53125 6.109375 44.609375 11.75 
Q 48.6875 17.390625 48.6875 27.296875 
z
" id="DejaVuSans-112"/>
      <path d="M 41.109375 46.296875 
Q 39.59375 47.171875 37.8125 47.578125 
Q 36.03125 48 33.890625 48 
Q 26.265625 48 22.1875 43.046875 
Q 18.109375 38.09375 18.109375 28.8125 
L 18.109375 0 
L 9.078125 0 
L 9.078125 54.6875 
L 18.109375 54.6875 
L 18.109375 46.1875 
Q 20.953125 51.171875 25.484375 53.578125 
Q 30.03125 56 36.53125 56 
Q 37.453125 56 38.578125 55.875 
Q 39.703125 55.765625 41.0625 55.515625 
z
" id="DejaVuSans-114"/>
      <path d="M 56.203125 29.59375 
L 56.203125 25.203125 
L 14.890625 25.203125 
Q 15.484375 15.921875 20.484375 11.0625 
Q 25.484375 6.203125 34.421875 6.203125 
Q 39.59375 6.203125 44.453125 7.46875 
Q 49.3125 8.734375 54.109375 11.28125 
L 54.109375 2.78125 
Q 49.265625 0.734375 44.1875 -0.34375 
Q 39.109375 -1.421875 33.890625 -1.421875 
Q 20.796875 -1.421875 13.15625 6.1875 
Q 5.515625 13.8125 5.515625 26.8125 
Q 5.515625 40.234375 12.765625 48.109375 
Q 20.015625 56 32.328125 56 
Q 43.359375 56 49.78125 48.890625 
Q 56.203125 41.796875 56.203125 29.59375 
z
M 47.21875 32.234375 
Q 47.125 39.59375 43.09375 43.984375 
Q 39.0625 48.390625 32.421875 48.390625 
Q 24.90625 48.390625 20.390625 44.140625 
Q 15.875 39.890625 15.1875 32.171875 
z
" id="DejaVuSans-101"/>
      <path d="M 48.78125 52.59375 
L 48.78125 44.1875 
Q 44.96875 46.296875 41.140625 47.34375 
Q 37.3125 48.390625 33.40625 48.390625 
Q 24.65625 48.390625 19.8125 42.84375 
Q 14.984375 37.3125 14.984375 27.296875 
Q 14.984375 17.28125 19.8125 11.734375 
Q 24.65625 6.203125 33.40625 6.203125 
Q 37.3125 6.203125 41.140625 7.25 
Q 44.96875 8.296875 48.78125 10.40625 
L 48.78125 2.09375 
Q 45.015625 0.34375 40.984375 -0.53125 
Q 36.96875 -1.421875 32.421875 -1.421875 
Q 20.0625 -1.421875 12.78125 6.34375 
Q 5.515625 14.109375 5.515625 27.296875 
Q 5.515625 40.671875 12.859375 48.328125 
Q 20.21875 56 33.015625 56 
Q 37.15625 56 41.109375 55.140625 
Q 45.0625 54.296875 48.78125 52.59375 
z
" id="DejaVuSans-99"/>
      <path d="M 9.421875 54.6875 
L 18.40625 54.6875 
L 18.40625 0 
L 9.421875 0 
z
M 9.421875 75.984375 
L 18.40625 75.984375 
L 18.40625 64.59375 
L 9.421875 64.59375 
z
" id="DejaVuSans-105"/>
      <path d="M 44.28125 53.078125 
L 44.28125 44.578125 
Q 40.484375 46.53125 36.375 47.5 
Q 32.28125 48.484375 27.875 48.484375 
Q 21.1875 48.484375 17.84375 46.4375 
Q 14.5 44.390625 14.5 40.28125 
Q 14.5 37.15625 16.890625 35.375 
Q 19.28125 33.59375 26.515625 31.984375 
L 29.59375 31.296875 
Q 39.15625 29.25 43.1875 25.515625 
Q 47.21875 21.78125 47.21875 15.09375 
Q 47.21875 7.46875 41.1875 3.015625 
Q 35.15625 -1.421875 24.609375 -1.421875 
Q 20.21875 -1.421875 15.453125 -0.5625 
Q 10.6875 0.296875 5.421875 2 
L 5.421875 11.28125 
Q 10.40625 8.6875 15.234375 7.390625 
Q 20.0625 6.109375 24.8125 6.109375 
Q 31.15625 6.109375 34.5625 8.28125 
Q 37.984375 10.453125 37.984375 14.40625 
Q 37.984375 18.0625 35.515625 20.015625 
Q 33.0625 21.96875 24.703125 23.78125 
L 21.578125 24.515625 
Q 13.234375 26.265625 9.515625 29.90625 
Q 5.8125 33.546875 5.8125 39.890625 
Q 5.8125 47.609375 11.28125 51.796875 
Q 16.75 56 26.8125 56 
Q 31.78125 56 36.171875 55.265625 
Q 40.578125 54.546875 44.28125 53.078125 
z
" id="DejaVuSans-115"/>
      <path d="M 30.609375 48.390625 
Q 23.390625 48.390625 19.1875 42.75 
Q 14.984375 37.109375 14.984375 27.296875 
Q 14.984375 17.484375 19.15625 11.84375 
Q 23.34375 6.203125 30.609375 6.203125 
Q 37.796875 6.203125 41.984375 11.859375 
Q 46.1875 17.53125 46.1875 27.296875 
Q 46.1875 37.015625 41.984375 42.703125 
Q 37.796875 48.390625 30.609375 48.390625 
z
M 30.609375 56 
Q 42.328125 56 49.015625 48.375 
Q 55.71875 40.765625 55.71875 27.296875 
Q 55.71875 13.875 49.015625 6.21875 
Q 42.328125 -1.421875 30.609375 -1.421875 
Q 18.84375 -1.421875 12.171875 6.21875 
Q 5.515625 13.875 5.515625 27.296875 
Q 5.515625 40.765625 12.171875 48.375 
Q 18.84375 56 30.609375 56 
z
" id="DejaVuSans-111"/>
      <path d="M 54.890625 33.015625 
L 54.890625 0 
L 45.90625 0 
L 45.90625 32.71875 
Q 45.90625 40.484375 42.875 44.328125 
Q 39.84375 48.1875 33.796875 48.1875 
Q 26.515625 48.1875 22.3125 43.546875 
Q 18.109375 38.921875 18.109375 30.90625 
L 18.109375 0 
L 9.078125 0 
L 9.078125 54.6875 
L 18.109375 54.6875 
L 18.109375 46.1875 
Q 21.34375 51.125 25.703125 53.5625 
Q 30.078125 56 35.796875 56 
Q 45.21875 56 50.046875 50.171875 
Q 54.890625 44.34375 54.890625 33.015625 
z
" id="DejaVuSans-110"/>
     </defs>
     <g transform="translate(286.110938 476.836563)scale(0.1 -0.1)">
      <use xlink:href="#DejaVuSans-49"/>
      <use x="63.623047" xlink:href="#DejaVuSans-45"/>
      <use x="99.707031" xlink:href="#DejaVuSans-112"/>
      <use x="163.183594" xlink:href="#DejaVuSans-114"/>
      <use x="202.046875" xlink:href="#DejaVuSans-101"/>
      <use x="263.570312" xlink:href="#DejaVuSans-99"/>
      <use x="318.550781" xlink:href="#DejaVuSans-105"/>
      <use x="346.333984" xlink:href="#DejaVuSans-115"/>
      <use x="398.433594" xlink:href="#DejaVuSans-105"/>
      <use x="426.216797" xlink:href="#DejaVuSans-111"/>
      <use x="487.398438" xlink:href="#DejaVuSans-110"/>
     </g>
    </g>
   </g>
   <g id="matplotlib.axis_2">
    <g id="ytick_1">
     <g id="line2d_23">
      <path clip-path="url(#p448b7e714a)" d="M 76.5 448.56 
L 550.8 448.56 
" style="fill:none;stroke:#b0b0b0;stroke-linecap:square;stroke-width:0.8;"/>
     </g>
     <g id="line2d_24">
      <defs>
       <path d="M 0 0 
L -3.5 0 
" id="m6cf4ff8f8b" style="stroke:#000000;stroke-width:0.8;"/>
      </defs>
      <g>
       <use style="stroke:#000000;stroke-width:0.8;" x="76.5" xlink:href="#m6cf4ff8f8b" y="448.56"/>
      </g>
     </g>
     <g id="text_13">
      <!-- 0.0 -->
      <g transform="translate(53.596875 452.359219)scale(0.1 -0.1)">
       <use xlink:href="#DejaVuSans-48"/>
       <use x="63.623047" xlink:href="#DejaVuSans-46"/>
       <use x="95.410156" xlink:href="#DejaVuSans-48"/>
      </g>
     </g>
    </g>
    <g id="ytick_2">
     <g id="line2d_25">
      <path clip-path="url(#p448b7e714a)" d="M 76.5 409.752 
L 550.8 409.752 
" style="fill:none;stroke:#b0b0b0;stroke-linecap:square;stroke-width:0.8;"/>
     </g>
     <g id="line2d_26">
      <g>
       <use style="stroke:#000000;stroke-width:0.8;" x="76.5" xlink:href="#m6cf4ff8f8b" y="409.752"/>
      </g>
     </g>
     <g id="text_14">
      <!-- 0.1 -->
      <g transform="translate(53.596875 413.551219)scale(0.1 -0.1)">
       <use xlink:href="#DejaVuSans-48"/>
       <use x="63.623047" xlink:href="#DejaVuSans-46"/>
       <use x="95.410156" xlink:href="#DejaVuSans-49"/>
      </g>
     </g>
    </g>
    <g id="ytick_3">
     <g id="line2d_27">
      <path clip-path="url(#p448b7e714a)" d="M 76.5 370.944 
L 550.8 370.944 
" style="fill:none;stroke:#b0b0b0;stroke-linecap:square;stroke-width:0.8;"/>
     </g>
     <g id="line2d_28">
      <g>
       <use style="stroke:#000000;stroke-width:0.8;" x="76.5" xlink:href="#m6cf4ff8f8b" y="370.944"/>
      </g>
     </g>
     <g id="text_15">
      <!-- 0.2 -->
      <g transform="translate(53.596875 374.743219)scale(0.1 -0.1)">
       <use xlink:href="#DejaVuSans-48"/>
       <use x="63.623047" xlink:href="#DejaVuSans-46"/>
       <use x="95.410156" xlink:href="#DejaVuSans-50"/>
      </g>
     </g>
    </g>
    <g id="ytick_4">
     <g id="line2d_29">
      <path clip-path="url(#p448b7e714a)" d="M 76.5 332.136 
L 550.8 332.136 
" style="fill:none;stroke:#b0b0b0;stroke-linecap:square;stroke-width:0.8;"/>
     </g>
     <g id="line2d_30">
      <g>
       <use style="stroke:#000000;stroke-width:0.8;" x="76.5" xlink:href="#m6cf4ff8f8b" y="332.136"/>
      </g>
     </g>
     <g id="text_16">
      <!-- 0.3 -->
      <g transform="translate(53.596875 335.935219)scale(0.1 -0.1)">
       <use xlink:href="#DejaVuSans-48"/>
       <use x="63.623047" xlink:href="#DejaVuSans-46"/>
       <use x="95.410156" xlink:href="#DejaVuSans-51"/>
      </g>
     </g>
    </g>
    <g id="ytick_5">
     <g id="line2d_31">
      <path clip-path="url(#p448b7e714a)" d="M 76.5 293.328 
L 550.8 293.328 
" style="fill:none;stroke:#b0b0b0;stroke-linecap:square;stroke-width:0.8;"/>
     </g>
     <g id="line2d_32">
      <g>
       <use style="stroke:#000000;stroke-width:0.8;" x="76.5" xlink:href="#m6cf4ff8f8b" y="293.328"/>
      </g>
     </g>
     <g id="text_17">
      <!-- 0.4 -->
      <g transform="translate(53.596875 297.127219)scale(0.1 -0.1)">
       <use xlink:href="#DejaVuSans-48"/>
       <use x="63.623047" xlink:href="#DejaVuSans-46"/>
       <use x="95.410156" xlink:href="#DejaVuSans-52"/>
      </g>
     </g>
    </g>
    <g id="ytick_6">
     <g id="line2d_33">
      <path clip-path="url(#p448b7e714a)" d="M 76.5 254.52 
L 550.8 254.52 
" style="fill:none;stroke:#b0b0b0;stroke-linecap:square;stroke-width:0.8;"/>
     </g>
     <g id="line2d_34">
      <g>
       <use style="stroke:#000000;stroke-width:0.8;" x="76.5" xlink:href="#m6cf4ff8f8b" y="254.52"/>
      </g>
     </g>
     <g id="text_18">
      <!-- 0.5 -->
      <g transform="translate(53.596875 258.319219)scale(0.1 -0.1)">
       <use xlink:href="#DejaVuSans-48"/>
       <use x="63.623047" xlink:href="#DejaVuSans-46"/>
       <use x="95.410156" xlink:href="#DejaVuSans-53"/>
      </g>
     </g>
    </g>
    <g id="ytick_7">
     <g id="line2d_35">
      <path clip-path="url(#p448b7e714a)" d="M 76.5 215.712 
L 550.8 215.712 
" style="fill:none;stroke:#b0b0b0;stroke-linecap:square;stroke-width:0.8;"/>
     </g>
     <g id="line2d_36">
      <g>
       <use style="stroke:#000000;stroke-width:0.8;" x="76.5" xlink:href="#m6cf4ff8f8b" y="215.712"/>
      </g>
     </g>
     <g id="text_19">
      <!-- 0.6 -->
      <g transform="translate(53.596875 219.511219)scale(0.1 -0.1)">
       <use xlink:href="#DejaVuSans-48"/>
       <use x="63.623047" xlink:href="#DejaVuSans-46"/>
       <use x="95.410156" xlink:href="#DejaVuSans-54"/>
      </g>
     </g>
    </g>
    <g id="ytick_8">
     <g id="line2d_37">
      <path clip-path="url(#p448b7e714a)" d="M 76.5 176.904 
L 550.8 176.904 
" style="fill:none;stroke:#b0b0b0;stroke-linecap:square;stroke-width:0.8;"/>
     </g>
     <g id="line2d_38">
      <g>
       <use style="stroke:#000000;stroke-width:0.8;" x="76.5" xlink:href="#m6cf4ff8f8b" y="176.904"/>
      </g>
     </g>
     <g id="text_20">
      <!-- 0.7 -->
      <g transform="translate(53.596875 180.703219)scale(0.1 -0.1)">
       <use xlink:href="#DejaVuSans-48"/>
       <use x="63.623047" xlink:href="#DejaVuSans-46"/>
       <use x="95.410156" xlink:href="#DejaVuSans-55"/>
      </g>
     </g>
    </g>
    <g id="ytick_9">
     <g id="line2d_39">
      <path clip-path="url(#p448b7e714a)" d="M 76.5 138.096 
L 550.8 138.096 
" style="fill:none;stroke:#b0b0b0;stroke-linecap:square;stroke-width:0.8;"/>
     </g>
     <g id="line2d_40">
      <g>
       <use style="stroke:#000000;stroke-width:0.8;" x="76.5" xlink:href="#m6cf4ff8f8b" y="138.096"/>
      </g>
     </g>
     <g id="text_21">
      <!-- 0.8 -->
      <g transform="translate(53.596875 141.895219)scale(0.1 -0.1)">
       <use xlink:href="#DejaVuSans-48"/>
       <use x="63.623047" xlink:href="#DejaVuSans-46"/>
       <use x="95.410156" xlink:href="#DejaVuSans-56"/>
      </g>
     </g>
    </g>
    <g id="ytick_10">
     <g id="line2d_41">
      <path clip-path="url(#p448b7e714a)" d="M 76.5 99.288 
L 550.8 99.288 
" style="fill:none;stroke:#b0b0b0;stroke-linecap:square;stroke-width:0.8;"/>
     </g>
     <g id="line2d_42">
      <g>
       <use style="stroke:#000000;stroke-width:0.8;" x="76.5" xlink:href="#m6cf4ff8f8b" y="99.288"/>
      </g>
     </g>
     <g id="text_22">
      <!-- 0.9 -->
      <g transform="translate(53.596875 103.087219)scale(0.1 -0.1)">
       <use xlink:href="#DejaVuSans-48"/>
       <use x="63.623047" xlink:href="#DejaVuSans-46"/>
       <use x="95.410156" xlink:href="#DejaVuSans-57"/>
      </g>
     </g>
    </g>
    <g id="ytick_11">
     <g id="line2d_43">
      <path clip-path="url(#p448b7e714a)" d="M 76.5 60.48 
L 550.8 60.48 
" style="fill:none;stroke:#b0b0b0;stroke-linecap:square;stroke-width:0.8;"/>
     </g>
     <g id="line2d_44">
      <g>
       <use style="stroke:#000000;stroke-width:0.8;" x="76.5" xlink:href="#m6cf4ff8f8b" y="60.48"/>
      </g>
     </g>
     <g id="text_23">
      <!-- 1.0 -->
      <g transform="translate(53.596875 64.279219)scale(0.1 -0.1)">
       <use xlink:href="#DejaVuSans-49"/>
       <use x="63.623047" xlink:href="#DejaVuSans-46"/>
       <use x="95.410156" xlink:href="#DejaVuSans-48"/>
      </g>
     </g>
    </g>
    <g id="text_24">
     <!-- #correct/1258 -->
     <defs>
      <path d="M 51.125 44 
L 36.921875 44 
L 32.8125 27.6875 
L 47.125 27.6875 
z
M 43.796875 71.78125 
L 38.71875 51.515625 
L 52.984375 51.515625 
L 58.109375 71.78125 
L 65.921875 71.78125 
L 60.890625 51.515625 
L 76.125 51.515625 
L 76.125 44 
L 58.984375 44 
L 54.984375 27.6875 
L 70.515625 27.6875 
L 70.515625 20.21875 
L 53.078125 20.21875 
L 48 0 
L 40.1875 0 
L 45.21875 20.21875 
L 30.90625 20.21875 
L 25.875 0 
L 18.015625 0 
L 23.09375 20.21875 
L 7.71875 20.21875 
L 7.71875 27.6875 
L 24.90625 27.6875 
L 29 44 
L 13.28125 44 
L 13.28125 51.515625 
L 30.90625 51.515625 
L 35.890625 71.78125 
z
" id="DejaVuSans-35"/>
      <path d="M 18.3125 70.21875 
L 18.3125 54.6875 
L 36.8125 54.6875 
L 36.8125 47.703125 
L 18.3125 47.703125 
L 18.3125 18.015625 
Q 18.3125 11.328125 20.140625 9.421875 
Q 21.96875 7.515625 27.59375 7.515625 
L 36.8125 7.515625 
L 36.8125 0 
L 27.59375 0 
Q 17.1875 0 13.234375 3.875 
Q 9.28125 7.765625 9.28125 18.015625 
L 9.28125 47.703125 
L 2.6875 47.703125 
L 2.6875 54.6875 
L 9.28125 54.6875 
L 9.28125 70.21875 
z
" id="DejaVuSans-116"/>
      <path d="M 25.390625 72.90625 
L 33.6875 72.90625 
L 8.296875 -9.28125 
L 0 -9.28125 
z
" id="DejaVuSans-47"/>
     </defs>
     <g transform="translate(47.517187 290.624688)rotate(-90)scale(0.1 -0.1)">
      <use xlink:href="#DejaVuSans-35"/>
      <use x="83.789062" xlink:href="#DejaVuSans-99"/>
      <use x="138.769531" xlink:href="#DejaVuSans-111"/>
      <use x="199.951172" xlink:href="#DejaVuSans-114"/>
      <use x="239.314453" xlink:href="#DejaVuSans-114"/>
      <use x="278.177734" xlink:href="#DejaVuSans-101"/>
      <use x="339.701172" xlink:href="#DejaVuSans-99"/>
      <use x="394.681641" xlink:href="#DejaVuSans-116"/>
      <use x="433.890625" xlink:href="#DejaVuSans-47"/>
      <use x="467.582031" xlink:href="#DejaVuSans-49"/>
      <use x="531.205078" xlink:href="#DejaVuSans-50"/>
      <use x="594.828125" xlink:href="#DejaVuSans-53"/>
      <use x="658.451172" xlink:href="#DejaVuSans-56"/>
     </g>
    </g>
   </g>
   <g id="line2d_45">
    <path clip-path="url(#p448b7e714a)" d="M 76.5 448.25151 
L 76.5 267.476566 
L 77.306633 267.476566 
L 77.243417 252.052083 
L 77.984507 252.052083 
L 77.975272 250.818124 
L 78.709472 250.818124 
L 78.669055 247.116248 
L 79.387671 247.116248 
L 79.07422 222.437075 
L 79.713415 222.437075 
L 79.696092 221.203116 
L 80.330148 221.203116 
L 80.205469 213.490874 
L 80.817425 213.490874 
L 80.795084 212.256916 
L 81.402326 212.256916 
L 81.333631 208.863529 
L 81.930916 208.863529 
L 81.835875 204.544674 
L 82.421348 204.544674 
L 82.221351 195.906963 
L 82.785904 195.906963 
L 82.630787 189.42868 
L 83.180282 189.42868 
L 82.960386 180.48248 
L 83.490816 180.48248 
L 83.459255 179.248521 
L 83.986133 179.248521 
L 83.845354 174.004197 
L 84.876159 174.004197 
L 84.802845 171.53628 
L 85.312131 171.53628 
L 84.864212 156.420286 
L 85.347047 156.420286 
L 85.337888 156.111797 
L 85.819235 156.111797 
L 85.723849 153.0269 
L 86.199387 153.0269 
L 86.12069 150.558983 
L 86.591489 150.558983 
L 86.400895 144.697679 
L 86.862066 144.697679 
L 86.831287 143.77221 
L 87.290208 143.77221 
L 87.17407 140.378824 
L 87.627273 140.378824 
L 87.605561 139.761844 
L 88.057018 139.761844 
L 87.989826 137.910906 
L 88.88501 137.910906 
L 88.813558 136.059968 
L 89.257349 136.059968 
L 89.208517 134.82601 
L 89.649809 134.82601 
L 89.599714 133.592051 
L 90.038535 133.592051 
L 90.025665 133.283561 
L 90.9 133.283561 
L 90.872727 132.666582 
L 91.307852 132.666582 
L 91.265943 131.741113 
L 92.131356 131.741113 
L 92.014486 129.273196 
L 92.442857 129.273196 
L 92.368773 127.730747 
L 92.794429 127.730747 
L 92.629688 124.337361 
L 93.050413 124.337361 
L 93.020073 123.720382 
L 93.439286 123.720382 
L 93.209756 119.093037 
L 93.622744 119.093037 
L 93.607304 118.784547 
L 94.019189 118.784547 
L 94.00342 118.476057 
L 94.414209 118.476057 
L 94.35 117.242099 
L 94.758639 117.242099 
L 94.742308 116.933609 
L 95.149866 116.933609 
L 95.0504 115.082671 
L 95.859184 115.082671 
L 95.824889 114.465692 
L 97.030654 114.465692 
L 96.904478 112.306264 
L 97.302632 112.306264 
L 97.068083 108.295898 
L 97.461265 108.295898 
L 97.425 107.678919 
L 97.816854 107.678919 
L 97.798446 107.370429 
L 98.189301 107.370429 
L 98.114703 106.136471 
L 98.891845 106.136471 
L 98.834332 105.211002 
L 99.220958 105.211002 
L 99.201538 104.902512 
L 99.58719 104.902512 
L 99.547826 104.285533 
L 99.932198 104.285533 
L 99.872472 103.360064 
L 101.018898 103.360064 
L 100.977411 102.743084 
L 101.35765 102.743084 
L 101.336655 102.434595 
L 102.094604 102.434595 
L 102.030025 101.509126 
L 102.783627 101.509126 
L 102.761577 101.200636 
L 103.137133 101.200636 
L 103.114824 100.892146 
L 104.236842 100.892146 
L 104.121464 99.349698 
L 104.492768 99.349698 
L 104.446307 98.732719 
L 104.816418 98.732719 
L 104.769536 98.115739 
L 105.138462 98.115739 
L 105.114793 97.80725 
L 105.482824 97.80725 
L 105.387407 96.573291 
L 106.119392 96.573291 
L 106.095074 96.264801 
L 106.459885 96.264801 
L 106.410811 95.647822 
L 107.137531 95.647822 
L 106.987958 93.796884 
L 107.34878 93.796884 
L 107.298701 93.179905 
L 108.017504 93.179905 
L 107.966505 92.562925 
L 108.324495 92.562925 
L 108.298788 92.254436 
L 109.0125 92.254436 
L 108.907958 91.020477 
L 109.262892 91.020477 
L 109.236597 90.711987 
L 110.6496 90.711987 
L 110.595048 90.095008 
L 111.297129 90.095008 
L 111.24172 89.478029 
L 111.940541 89.478029 
L 111.912391 89.169539 
L 112.260714 89.169539 
L 112.175772 88.24407 
L 112.869249 88.24407 
L 112.811839 87.627091 
L 113.157256 87.627091 
L 113.128369 87.318601 
L 113.472992 87.318601 
L 113.443902 87.010111 
L 113.787736 87.010111 
L 113.758445 86.701622 
L 114.444 86.701622 
L 114.414263 86.393132 
L 115.097183 86.393132 
L 115.067005 86.084642 
L 118.111724 86.084642 
L 118.047209 85.467663 
L 118.382417 85.467663 
L 118.35 85.159173 
L 119.018393 85.159173 
L 118.952778 84.542194 
L 119.618182 84.542194 
L 119.551846 83.925215 
L 119.883321 83.925215 
L 119.816731 83.308235 
L 121.46422 83.308235 
L 121.42987 82.999746 
L 124.038041 82.999746 
L 123.965959 82.382766 
L 124.289318 82.382766 
L 124.21702 81.765787 
L 127.101503 81.765787 
L 127.063514 81.457297 
L 127.381395 81.457297 
L 127.343253 81.148808 
L 127.977171 81.148808 
L 127.938669 80.840318 
L 128.570276 80.840318 
L 128.531418 80.531828 
L 129.16073 80.531828 
L 129.121519 80.223339 
L 129.74855 80.223339 
L 129.70899 79.914849 
L 130.645441 79.914849 
L 130.605333 79.606359 
L 133.388079 79.606359 
L 133.304482 78.98938 
L 133.611013 78.98938 
L 133.569112 78.68089 
L 135.094079 78.68089 
L 135.051278 78.372401 
L 135.354745 78.372401 
L 135.183406 77.138442 
L 136.088889 77.138442 
L 136.045646 76.829952 
L 136.34641 76.829952 
L 136.259739 76.212973 
L 141.007516 76.212973 
L 140.915297 75.595994 
L 142.375 75.595994 
L 142.281294 74.979014 
L 142.861577 74.979014 
L 142.767447 74.362035 
L 144.496398 74.362035 
L 144.448412 74.053545 
L 145.592259 74.053545 
L 145.543671 73.745056 
L 146.680435 73.745056 
L 146.631254 73.436566 
L 147.761006 73.436566 
L 147.711243 73.128076 
L 148.273431 73.128076 
L 148.223415 72.819587 
L 148.783716 72.819587 
L 148.733449 72.511097 
L 150.681176 72.511097 
L 150.578645 71.894118 
L 151.131056 71.894118 
L 151.079586 71.585628 
L 154.902049 71.585628 
L 154.848532 71.277138 
L 159.390486 71.277138 
L 159.334592 70.968649 
L 160.65 70.968649 
L 160.593486 70.660159 
L 169.304596 70.660159 
L 169.243701 70.351669 
L 169.743775 70.351669 
L 169.682711 70.04318 
L 171.174364 70.04318 
L 171.112647 69.73469 
L 172.591948 69.73469 
L 172.529591 69.4262 
L 173.019896 69.4262 
L 172.957383 69.117711 
L 174.662669 69.117711 
L 174.59942 68.809221 
L 175.083591 68.809221 
L 174.956877 68.192242 
L 177.833227 68.192242 
L 177.768642 67.883752 
L 179.661002 67.883752 
L 179.595627 67.575262 
L 182.628724 67.575262 
L 182.56206 67.266773 
L 185.544673 67.266773 
L 185.476775 66.958283 
L 190.192071 66.958283 
L 190.122236 66.649793 
L 195.577132 66.649793 
L 195.505139 66.341304 
L 198.48723 66.341304 
L 198.41414 66.032814 
L 212.793103 66.032814 
L 212.714819 65.724324 
L 217.689474 65.724324 
L 217.609615 65.415835 
L 263.863517 65.415835 
L 263.772298 65.107345 
L 270.193194 65.107345 
L 270.101047 64.798855 
L 272.089939 64.798855 
L 272.089939 64.798855 
" style="fill:none;stroke:#1f77b4;stroke-linecap:square;stroke-width:2;"/>
   </g>
   <g id="line2d_46">
    <path clip-path="url(#p448b7e714a)" d="M 76.5 448.25151 
L 76.5 407.222385 
L 80.013333 407.222385 
L 79.445963 399.201653 
L 78.919898 388.404515 
L 78.655909 381.000763 
L 80.792308 381.000763 
L 80.148462 368.969666 
L 79.56 353.545183 
L 79.0296 333.493355 
L 79.022872 333.184865 
L 80.274271 333.184865 
L 80.129847 328.55752 
L 81.327481 328.55752 
L 81.290909 327.632051 
L 82.473552 327.632051 
L 82.399254 326.089603 
L 84.718069 326.089603 
L 84.405 321.153768 
L 85.512827 321.153768 
L 85.344755 318.685851 
L 86.427209 318.685851 
L 85.505696 305.112305 
L 86.485263 305.112305 
L 86.299587 302.335898 
L 87.25732 302.335898 
L 86.73 294.623657 
L 87.63816 294.623657 
L 87.3 289.687822 
L 88.177841 289.687822 
L 87.09433 273.02938 
L 87.022014 271.795421 
L 87.812095 271.795421 
L 87.51194 266.859587 
L 88.278974 266.859587 
L 87.956522 261.615262 
L 88.700643 261.615262 
L 88.507595 258.530366 
L 89.237915 258.530366 
L 88.753951 250.818124 
L 89.455083 250.818124 
L 89.35753 249.275676 
L 90.051429 249.275676 
L 89.7525 244.648331 
L 90.429515 244.648331 
L 89.974432 237.553068 
L 90.628085 237.553068 
L 90.588119 236.936089 
L 91.238136 236.936089 
L 91.093846 234.776661 
L 91.735894 234.776661 
L 91.526033 231.691765 
L 92.157772 231.691765 
L 91.966304 228.915358 
L 92.588874 228.915358 
L 92.394772 226.138951 
L 93.620455 226.138951 
L 93.416909 223.362544 
L 94.020317 223.362544 
L 93.997233 223.054054 
L 94.598289 223.054054 
L 94.52713 222.128585 
L 95.124346 222.128585 
L 94.931347 219.660668 
L 96.109302 219.660668 
L 95.908696 217.19275 
L 96.489655 217.19275 
L 96.464158 216.884261 
L 97.04293 216.884261 
L 97.016794 216.575771 
L 97.593393 216.575771 
L 97.328733 213.490874 
L 98.46383 213.490874 
L 98.354421 212.256916 
L 99.478509 212.256916 
L 99.085714 207.93806 
L 99.636585 207.93806 
L 99.524272 206.704102 
L 100.071273 206.704102 
L 100.042736 206.395612 
L 100.587787 206.395612 
L 100.500723 205.470143 
L 101.042599 205.470143 
L 100.92503 204.236184 
L 101.463158 204.236184 
L 101.433333 203.927695 
L 101.96957 203.927695 
L 101.75858 201.768267 
L 102.289362 201.768267 
L 102.198233 200.842798 
L 102.726 200.842798 
L 102.572632 199.30035 
L 103.096262 199.30035 
L 103.065228 198.99186 
L 103.587063 198.99186 
L 103.152179 194.673005 
L 103.664948 194.673005 
L 103.510251 193.130556 
L 104.019113 193.130556 
L 103.740203 190.354149 
L 104.243082 190.354149 
L 104.149776 189.42868 
L 105.148993 189.42868 
L 105.116983 189.120191 
L 105.614397 189.120191 
L 104.947655 182.641908 
L 105.433333 182.641908 
L 105.152427 179.865501 
L 106.111841 179.865501 
L 106.08 179.557011 
L 106.55768 179.557011 
L 106.269894 176.780604 
L 106.742295 176.780604 
L 106.36149 173.078728 
L 106.827358 173.078728 
L 106.543925 170.302321 
L 107.464663 170.302321 
L 107.115676 166.908935 
L 108.023006 166.908935 
L 107.672396 163.515548 
L 108.12 163.515548 
L 107.866533 161.047631 
L 108.30991 161.047631 
L 108.214671 160.122162 
L 108.655932 160.122162 
L 108.623904 159.813672 
L 109.063881 159.813672 
L 108.966964 158.888203 
L 109.404856 158.888203 
L 109.339763 158.271224 
L 109.775988 158.271224 
L 109.710355 157.654245 
L 110.144926 157.654245 
L 110.111811 157.345755 
L 110.545133 157.345755 
L 110.51169 157.037266 
L 110.943768 157.037266 
L 110.509884 153.0269 
L 111.361509 153.0269 
L 111.260656 152.101431 
L 111.684104 152.101431 
L 111.616442 151.484452 
L 112.038329 151.484452 
L 111.868451 149.942003 
L 112.706107 149.942003 
L 112.568441 148.708045 
L 112.984615 148.708045 
L 112.95 148.399555 
L 113.365024 148.399555 
L 113.29527 147.782576 
L 113.70879 147.782576 
L 113.638585 147.165596 
L 114.050613 147.165596 
L 113.839456 145.314658 
L 114.248596 145.314658 
L 114.213283 145.006169 
L 114.621308 145.006169 
L 114.198521 141.304293 
L 115.004059 141.304293 
L 114.933149 140.687313 
L 115.334131 140.687313 
L 115.227248 139.761844 
L 116.025 139.761844 
L 115.84485 138.219396 
L 116.240984 138.219396 
L 116.132698 137.293927 
L 116.527132 137.293927 
L 116.167176 134.20903 
L 116.557682 134.20903 
L 116.48583 133.592051 
L 116.875 133.592051 
L 116.587633 131.124134 
L 117.358881 131.124134 
L 117.286436 130.507154 
L 117.670416 130.507154 
L 117.561307 129.581685 
L 117.943689 129.581685 
L 117.653111 127.113768 
L 118.032399 127.113768 
L 117.923581 126.188299 
L 118.301309 126.188299 
L 118.228484 125.57132 
L 118.604961 125.57132 
L 118.568348 125.26283 
L 119.31875 125.26283 
L 119.281613 124.95434 
L 119.655546 124.95434 
L 119.506477 123.720382 
L 119.878602 123.720382 
L 119.766609 122.794913 
L 120.137231 122.794913 
L 119.987661 121.560954 
L 120.356507 121.560954 
L 120.318991 121.252464 
L 121.054227 121.252464 
L 121.016212 120.943975 
L 122.113532 120.943975 
L 121.958779 119.710016 
L 122.322203 119.710016 
L 122.283404 119.401526 
L 122.645939 119.401526 
L 122.529114 118.476057 
L 123.610606 118.476057 
L 123.295485 116.00814 
L 123.652632 116.00814 
L 123.417456 114.157202 
L 124.480597 114.157202 
L 124.440845 113.848712 
L 124.793791 113.848712 
L 124.674154 112.923243 
L 126.077037 112.923243 
L 126.036266 112.614754 
L 126.733744 112.614754 
L 126.692535 112.306264 
L 127.040164 112.306264 
L 126.833878 110.763816 
L 127.17969 110.763816 
L 126.891971 108.604388 
L 127.235494 108.604388 
L 127.194413 108.295898 
L 127.879305 108.295898 
L 127.755 107.370429 
L 128.776026 107.370429 
L 128.692048 106.75345 
L 129.030819 106.75345 
L 128.946635 106.136471 
L 129.284388 106.136471 
L 129.24216 105.827981 
L 129.915575 105.827981 
L 129.872945 105.519491 
L 130.878344 105.519491 
L 130.835084 105.211002 
L 131.168919 105.211002 
L 131.125496 104.902512 
L 131.458571 104.902512 
L 131.414988 104.594022 
L 131.747306 104.594022 
L 131.659889 103.977043 
L 132.652328 103.977043 
L 132.56383 103.360064 
L 132.89315 103.360064 
L 132.804481 102.743084 
L 133.460675 102.743084 
L 133.32686 101.817615 
L 133.979672 101.817615 
L 133.88993 101.200636 
L 134.215133 101.200636 
L 134.035614 99.966677 
L 134.359441 99.966677 
L 134.269666 99.349698 
L 134.91495 99.349698 
L 134.869737 99.041208 
L 135.191415 99.041208 
L 135.010409 97.80725 
L 135.650577 97.80725 
L 135.559646 97.19027 
L 137.781881 97.19027 
L 137.688321 96.573291 
L 138.318064 96.573291 
L 138.223973 95.956312 
L 138.537719 95.956312 
L 138.490578 95.647822 
L 138.803645 95.647822 
L 138.756373 95.339332 
L 140.003101 95.339332 
L 139.955102 95.030843 
L 140.265408 95.030843 
L 140.169231 94.413863 
L 140.478674 94.413863 
L 140.382393 93.796884 
L 141.306757 93.796884 
L 141.209595 93.179905 
L 141.822754 93.179905 
L 141.725112 92.562925 
L 142.640268 92.562925 
L 142.443569 91.328967 
L 142.746954 91.328967 
L 142.648665 90.711987 
L 142.951223 90.711987 
L 142.902 90.403498 
L 143.80643 90.403498 
L 143.756721 90.095008 
L 144.057122 90.095008 
L 144.007301 89.786518 
L 145.501763 89.786518 
L 145.451101 89.478029 
L 146.045455 89.478029 
L 145.994505 89.169539 
L 147.177283 89.169539 
L 147.125693 88.861049 
L 147.420131 88.861049 
L 147.36844 88.55256 
L 147.955677 88.55256 
L 147.903709 88.24407 
L 148.780842 88.24407 
L 148.728426 87.93558 
L 149.019783 87.93558 
L 148.914834 87.318601 
L 149.495592 87.318601 
L 149.39026 86.701622 
L 150.257235 86.701622 
L 150.204173 86.393132 
L 151.066906 86.393132 
L 150.96 85.776153 
L 151.246418 85.776153 
L 151.192913 85.467663 
L 151.478755 85.467663 
L 151.425161 85.159173 
L 151.710429 85.159173 
L 151.656745 84.850684 
L 151.941441 84.850684 
L 151.887669 84.542194 
L 152.738834 84.542194 
L 152.684648 84.233704 
L 152.967401 84.233704 
L 152.858936 83.616725 
L 153.703822 83.616725 
L 153.649222 83.308235 
L 153.929894 83.308235 
L 153.820607 82.691256 
L 154.938072 82.691256 
L 154.882911 82.382766 
L 155.438975 82.382766 
L 155.27302 81.457297 
L 155.55 81.457297 
L 155.32919 80.223339 
L 155.880753 80.223339 
L 155.825436 79.914849 
L 156.100487 79.914849 
L 156.045094 79.606359 
L 157.140874 79.606359 
L 157.084951 79.29787 
L 157.357796 79.29787 
L 157.301801 78.98938 
L 158.659627 78.98938 
L 158.602966 78.68089 
L 160.219162 78.68089 
L 160.161702 78.372401 
L 160.69719 78.372401 
L 160.639521 78.063911 
L 162.501227 78.063911 
L 162.442643 77.755421 
L 162.97102 77.755421 
L 162.912237 77.446932 
L 163.701696 77.446932 
L 163.642576 77.138442 
L 166.249697 77.138442 
L 166.1893 76.829952 
L 167.221812 76.829952 
L 167.100201 76.212973 
L 167.3572 76.212973 
L 167.296386 75.904483 
L 167.55291 75.904483 
L 167.492045 75.595994 
L 169.530918 75.595994 
L 169.469103 75.287504 
L 169.722311 75.287504 
L 169.660451 74.979014 
L 172.172907 74.979014 
L 172.109881 74.670525 
L 173.600787 74.670525 
L 173.537115 74.362035 
L 175.750522 74.362035 
L 175.685863 74.053545 
L 176.173975 74.053545 
L 176.109168 73.745056 
L 178.769981 73.745056 
L 178.704 73.436566 
L 179.90045 73.436566 
L 179.833997 73.128076 
L 184.076302 73.128076 
L 184.008 72.819587 
L 184.937175 72.819587 
L 184.868544 72.511097 
L 185.331163 72.511097 
L 185.262413 72.202607 
L 185.723659 72.202607 
L 185.654792 71.894118 
L 188.396809 71.894118 
L 188.326829 71.585628 
L 189.005618 71.585628 
L 188.935434 71.277138 
L 190.060634 71.277138 
L 189.919565 70.660159 
L 195.220135 70.660159 
L 195.147523 70.351669 
L 197.094526 70.351669 
L 197.021216 70.04318 
L 200.006691 70.04318 
L 199.932289 69.73469 
L 200.354513 69.73469 
L 200.280036 69.4262 
L 200.490685 69.4262 
L 200.416216 69.117711 
L 201.465269 69.117711 
L 201.390485 68.809221 
L 208.55891 68.809221 
L 208.481547 68.500731 
L 214.587342 68.500731 
L 214.507936 68.192242 
L 230.705911 68.192242 
L 230.621554 67.883752 
L 238.314042 67.883752 
L 238.227695 67.575262 
L 262.390103 67.575262 
L 262.298622 67.266773 
L 273.882286 67.266773 
L 273.882286 67.266773 
" style="fill:none;stroke:#ff7f0e;stroke-linecap:square;stroke-width:2;"/>
   </g>
   <g id="line2d_47">
    <path clip-path="url(#p448b7e714a)" d="M 76.5 448.25151 
L 76.5 358.789507 
L 78.124315 358.789507 
L 78.000949 351.385755 
L 79.492429 351.385755 
L 78.970313 330.716948 
L 78.641309 312.516057 
L 79.70473 312.516057 
L 79.374545 296.783084 
L 80.325 296.783084 
L 79.840141 274.571828 
L 80.667838 274.571828 
L 80.312701 258.221876 
L 81.067897 258.221876 
L 80.864724 249.275676 
L 81.58438 249.275676 
L 81.568855 248.658696 
L 82.284146 248.658696 
L 82.138039 243.414372 
L 82.833383 243.414372 
L 82.461872 230.457806 
L 83.115063 230.457806 
L 82.866443 221.820095 
L 83.4937 221.820095 
L 83.223325 212.565405 
L 83.825097 212.565405 
L 83.561538 203.619205 
L 84.14052 203.619205 
L 83.779693 191.279618 
L 84.330425 191.279618 
L 84.266316 189.120191 
L 84.811332 189.120191 
L 84.649485 183.875866 
L 85.182838 183.875866 
L 84.89469 174.621176 
L 85.409503 174.621176 
L 85.350823 172.770238 
L 85.861184 172.770238 
L 85.78988 170.610811 
L 86.295326 170.610811 
L 86.274078 169.993831 
L 86.777356 169.993831 
L 86.645455 166.291955 
L 87.141346 166.291955 
L 87.129989 165.983466 
L 87.624307 165.983466 
L 87.224152 155.186328 
L 87.700103 155.186328 
L 87.642901 153.643879 
L 88.11551 153.643879 
L 88.10367 153.33539 
L 88.574847 153.33539 
L 88.525862 152.101431 
L 89.928109 152.101431 
L 89.807014 149.325024 
L 90.268468 149.325024 
L 90.078184 145.006169 
L 90.532544 145.006169 
L 90.422701 142.538251 
L 90.872727 142.538251 
L 90.802821 140.995803 
L 91.249854 140.995803 
L 91.136066 138.527886 
L 91.578902 138.527886 
L 91.477895 136.368458 
L 91.917017 136.368458 
L 91.742155 132.666582 
L 92.608302 132.666582 
L 92.457757 129.581685 
L 93.312873 129.581685 
L 93.281564 128.964706 
L 93.707163 128.964706 
L 93.564299 126.188299 
L 94.406354 126.188299 
L 94.357025 125.26283 
L 94.77578 125.26283 
L 94.708958 124.028871 
L 95.125479 124.028871 
L 94.923577 120.326995 
L 95.745717 120.326995 
L 95.404783 114.157202 
L 95.807788 114.157202 
L 95.739683 112.923243 
L 96.140617 112.923243 
L 96.071642 111.689285 
L 97.2662 111.689285 
L 97.05026 107.987409 
L 97.443117 107.987409 
L 97.370837 106.75345 
L 97.761724 106.75345 
L 97.743411 106.44496 
L 98.133305 106.44496 
L 98.059091 105.211002 
L 98.447044 105.211002 
L 98.279082 102.434595 
L 98.663551 102.434595 
L 98.569797 100.892146 
L 98.952071 100.892146 
L 98.895278 99.966677 
L 99.27599 99.966677 
L 99.256818 99.658188 
L 100.015714 99.658188 
L 99.99597 99.349698 
L 101.504937 99.349698 
L 101.421518 98.115739 
L 101.796 98.115739 
L 101.566226 94.722353 
L 101.936881 94.722353 
L 101.811576 92.871415 
L 102.179902 92.871415 
L 102.158852 92.562925 
L 102.52629 92.562925 
L 102.483729 91.945946 
L 102.85 91.945946 
L 102.82849 91.637456 
L 103.55868 91.637456 
L 103.470755 90.403498 
L 103.833847 90.403498 
L 103.767449 89.478029 
L 104.129126 89.478029 
L 104.084491 88.861049 
L 104.805 88.861049 
L 104.782192 88.55256 
L 105.141304 88.55256 
L 105.118262 88.24407 
L 105.476527 88.24407 
L 105.406816 87.318601 
L 106.120016 87.318601 
L 106.072662 86.701622 
L 106.427875 86.701622 
L 106.40399 86.393132 
L 106.758373 86.393132 
L 106.638205 84.850684 
L 106.990714 84.850684 
L 106.91829 83.925215 
L 107.620079 83.925215 
L 107.546451 82.999746 
L 108.592683 82.999746 
L 108.542262 82.382766 
L 109.582053 82.382766 
L 109.504457 81.457297 
L 110.880281 81.457297 
L 110.853505 81.148808 
L 111.195875 81.148808 
L 111.168896 80.840318 
L 111.51049 80.840318 
L 111.483307 80.531828 
L 111.824127 80.531828 
L 111.796744 80.223339 
L 113.491737 80.223339 
L 113.463194 79.914849 
L 113.800386 79.914849 
L 113.657143 78.372401 
L 114.996018 78.372401 
L 114.937156 77.755421 
L 115.27013 77.755421 
L 115.240534 77.446932 
L 117.555581 77.446932 
L 117.493328 76.829952 
L 118.149357 76.829952 
L 118.023623 75.595994 
L 118.35 75.595994 
L 118.25553 74.670525 
L 118.905485 74.670525 
L 118.778427 73.436566 
L 119.101796 73.436566 
L 119.069933 73.128076 
L 119.714787 73.128076 
L 119.618182 72.202607 
L 120.899554 72.202607 
L 120.83368 71.585628 
L 123.370354 71.585628 
L 123.266887 70.660159 
L 124.834091 70.660159 
L 124.763324 70.04318 
L 125.696932 70.04318 
L 125.661022 69.73469 
L 126.589949 69.73469 
L 126.553493 69.4262 
L 127.477778 69.4262 
L 127.440784 69.117711 
L 128.054348 69.117711 
L 128.017017 68.809221 
L 129.542208 68.809221 
L 129.465778 68.192242 
L 130.072014 68.192242 
L 130.033501 67.883752 
L 132.4396 67.883752 
L 132.359743 67.266773 
L 132.956237 67.266773 
L 132.916026 66.958283 
L 133.213452 66.958283 
L 133.173115 66.649793 
L 133.766335 66.649793 
L 133.725692 66.341304 
L 134.021489 66.341304 
L 133.980723 66.032814 
L 134.275921 66.032814 
L 134.235032 65.724324 
L 135.703879 65.724324 
L 135.662156 65.415835 
L 136.246446 65.415835 
L 136.20443 65.107345 
L 137.077263 65.107345 
L 136.992362 64.490366 
L 140.443155 64.490366 
L 140.39875 64.181876 
L 143.790496 64.181876 
L 143.697937 63.564897 
L 143.977732 63.564897 
L 143.931387 63.256407 
L 145.601163 63.256407 
L 145.55393 62.947917 
L 146.658896 62.947917 
L 146.515714 62.022448 
L 148.703992 62.022448 
L 148.655172 61.713959 
L 152.426122 61.713959 
L 152.375301 61.405469 
L 162.257898 61.405469 
L 162.201957 61.096979 
L 162.708274 61.096979 
L 162.652148 60.78849 
L 166.158 60.78849 
L 166.100193 60.48 
L 167.089775 60.48 
L 167.031555 60.17151 
L 173.577195 60.17151 
L 173.515909 59.863021 
L 178.2202 59.863021 
L 178.156822 59.554531 
L 184.994312 59.554531 
L 184.927995 59.246041 
L 192.591382 59.246041 
L 192.52195 58.937552 
L 199.043746 58.937552 
L 198.971831 58.629062 
L 212.090847 58.629062 
L 212.014286 58.320572 
L 220.954206 58.320572 
L 220.874835 58.012083 
L 224.460978 58.012083 
L 224.380608 57.703593 
L 266.936939 57.703593 
L 266.936939 57.703593 
" style="fill:none;stroke:#2ca02c;stroke-linecap:square;stroke-width:2;"/>
   </g>
   <g id="patch_3">
    <path d="M 76.5 448.56 
L 76.5 60.48 
" style="fill:none;stroke:#000000;stroke-linecap:square;stroke-linejoin:miter;stroke-width:0.8;"/>
   </g>
   <g id="patch_4">
    <path d="M 550.8 448.56 
L 550.8 60.48 
" style="fill:none;stroke:#000000;stroke-linecap:square;stroke-linejoin:miter;stroke-width:0.8;"/>
   </g>
   <g id="patch_5">
    <path d="M 76.5 448.56 
L 550.8 448.56 
" style="fill:none;stroke:#000000;stroke-linecap:square;stroke-linejoin:miter;stroke-width:0.8;"/>
   </g>
   <g id="patch_6">
    <path d="M 76.5 60.48 
L 550.8 60.48 
" style="fill:none;stroke:#000000;stroke-linecap:square;stroke-linejoin:miter;stroke-width:0.8;"/>
   </g>
   <g id="text_25">
    <!-- leuven: img1-img2 -->
    <defs>
     <path d="M 9.421875 75.984375 
L 18.40625 75.984375 
L 18.40625 0 
L 9.421875 0 
z
" id="DejaVuSans-108"/>
     <path d="M 8.5 21.578125 
L 8.5 54.6875 
L 17.484375 54.6875 
L 17.484375 21.921875 
Q 17.484375 14.15625 20.5 10.265625 
Q 23.53125 6.390625 29.59375 6.390625 
Q 36.859375 6.390625 41.078125 11.03125 
Q 45.3125 15.671875 45.3125 23.6875 
L 45.3125 54.6875 
L 54.296875 54.6875 
L 54.296875 0 
L 45.3125 0 
L 45.3125 8.40625 
Q 42.046875 3.421875 37.71875 1 
Q 33.40625 -1.421875 27.6875 -1.421875 
Q 18.265625 -1.421875 13.375 4.4375 
Q 8.5 10.296875 8.5 21.578125 
z
M 31.109375 56 
z
" id="DejaVuSans-117"/>
     <path d="M 2.984375 54.6875 
L 12.5 54.6875 
L 29.59375 8.796875 
L 46.6875 54.6875 
L 56.203125 54.6875 
L 35.6875 0 
L 23.484375 0 
z
" id="DejaVuSans-118"/>
     <path d="M 11.71875 12.40625 
L 22.015625 12.40625 
L 22.015625 0 
L 11.71875 0 
z
M 11.71875 51.703125 
L 22.015625 51.703125 
L 22.015625 39.3125 
L 11.71875 39.3125 
z
" id="DejaVuSans-58"/>
     <path id="DejaVuSans-32"/>
     <path d="M 52 44.1875 
Q 55.375 50.25 60.0625 53.125 
Q 64.75 56 71.09375 56 
Q 79.640625 56 84.28125 50.015625 
Q 88.921875 44.046875 88.921875 33.015625 
L 88.921875 0 
L 79.890625 0 
L 79.890625 32.71875 
Q 79.890625 40.578125 77.09375 44.375 
Q 74.3125 48.1875 68.609375 48.1875 
Q 61.625 48.1875 57.5625 43.546875 
Q 53.515625 38.921875 53.515625 30.90625 
L 53.515625 0 
L 44.484375 0 
L 44.484375 32.71875 
Q 44.484375 40.625 41.703125 44.40625 
Q 38.921875 48.1875 33.109375 48.1875 
Q 26.21875 48.1875 22.15625 43.53125 
Q 18.109375 38.875 18.109375 30.90625 
L 18.109375 0 
L 9.078125 0 
L 9.078125 54.6875 
L 18.109375 54.6875 
L 18.109375 46.1875 
Q 21.1875 51.21875 25.484375 53.609375 
Q 29.78125 56 35.6875 56 
Q 41.65625 56 45.828125 52.96875 
Q 50 49.953125 52 44.1875 
z
" id="DejaVuSans-109"/>
     <path d="M 45.40625 27.984375 
Q 45.40625 37.75 41.375 43.109375 
Q 37.359375 48.484375 30.078125 48.484375 
Q 22.859375 48.484375 18.828125 43.109375 
Q 14.796875 37.75 14.796875 27.984375 
Q 14.796875 18.265625 18.828125 12.890625 
Q 22.859375 7.515625 30.078125 7.515625 
Q 37.359375 7.515625 41.375 12.890625 
Q 45.40625 18.265625 45.40625 27.984375 
z
M 54.390625 6.78125 
Q 54.390625 -7.171875 48.1875 -13.984375 
Q 42 -20.796875 29.203125 -20.796875 
Q 24.46875 -20.796875 20.265625 -20.09375 
Q 16.0625 -19.390625 12.109375 -17.921875 
L 12.109375 -9.1875 
Q 16.0625 -11.328125 19.921875 -12.34375 
Q 23.78125 -13.375 27.78125 -13.375 
Q 36.625 -13.375 41.015625 -8.765625 
Q 45.40625 -4.15625 45.40625 5.171875 
L 45.40625 9.625 
Q 42.625 4.78125 38.28125 2.390625 
Q 33.9375 0 27.875 0 
Q 17.828125 0 11.671875 7.65625 
Q 5.515625 15.328125 5.515625 27.984375 
Q 5.515625 40.671875 11.671875 48.328125 
Q 17.828125 56 27.875 56 
Q 33.9375 56 38.28125 53.609375 
Q 42.625 51.21875 45.40625 46.390625 
L 45.40625 54.6875 
L 54.390625 54.6875 
z
" id="DejaVuSans-103"/>
    </defs>
    <g transform="translate(257.074688 41.042625)scale(0.12 -0.12)">
     <use xlink:href="#DejaVuSans-108"/>
     <use x="27.783203" xlink:href="#DejaVuSans-101"/>
     <use x="89.306641" xlink:href="#DejaVuSans-117"/>
     <use x="152.685547" xlink:href="#DejaVuSans-118"/>
     <use x="211.865234" xlink:href="#DejaVuSans-101"/>
     <use x="273.388672" xlink:href="#DejaVuSans-110"/>
     <use x="336.767578" xlink:href="#DejaVuSans-58"/>
     <use x="370.458984" xlink:href="#DejaVuSans-32"/>
     <use x="402.246094" xlink:href="#DejaVuSans-105"/>
     <use x="430.029297" xlink:href="#DejaVuSans-109"/>
     <use x="527.441406" xlink:href="#DejaVuSans-103"/>
     <use x="590.917969" xlink:href="#DejaVuSans-49"/>
     <use x="654.541016" xlink:href="#DejaVuSans-45"/>
     <use x="690.625" xlink:href="#DejaVuSans-105"/>
     <use x="718.408203" xlink:href="#DejaVuSans-109"/>
     <use x="815.820312" xlink:href="#DejaVuSans-103"/>
     <use x="879.296875" xlink:href="#DejaVuSans-50"/>
    </g>
    <!-- NearestNeighbours -->
    <defs>
     <path d="M 9.8125 72.90625 
L 23.09375 72.90625 
L 55.421875 11.921875 
L 55.421875 72.90625 
L 64.984375 72.90625 
L 64.984375 0 
L 51.703125 0 
L 19.390625 60.984375 
L 19.390625 0 
L 9.8125 0 
z
" id="DejaVuSans-78"/>
     <path d="M 34.28125 27.484375 
Q 23.390625 27.484375 19.1875 25 
Q 14.984375 22.515625 14.984375 16.5 
Q 14.984375 11.71875 18.140625 8.90625 
Q 21.296875 6.109375 26.703125 6.109375 
Q 34.1875 6.109375 38.703125 11.40625 
Q 43.21875 16.703125 43.21875 25.484375 
L 43.21875 27.484375 
z
M 52.203125 31.203125 
L 52.203125 0 
L 43.21875 0 
L 43.21875 8.296875 
Q 40.140625 3.328125 35.546875 0.953125 
Q 30.953125 -1.421875 24.3125 -1.421875 
Q 15.921875 -1.421875 10.953125 3.296875 
Q 6 8.015625 6 15.921875 
Q 6 25.140625 12.171875 29.828125 
Q 18.359375 34.515625 30.609375 34.515625 
L 43.21875 34.515625 
L 43.21875 35.40625 
Q 43.21875 41.609375 39.140625 45 
Q 35.0625 48.390625 27.6875 48.390625 
Q 23 48.390625 18.546875 47.265625 
Q 14.109375 46.140625 10.015625 43.890625 
L 10.015625 52.203125 
Q 14.9375 54.109375 19.578125 55.046875 
Q 24.21875 56 28.609375 56 
Q 40.484375 56 46.34375 49.84375 
Q 52.203125 43.703125 52.203125 31.203125 
z
" id="DejaVuSans-97"/>
     <path d="M 54.890625 33.015625 
L 54.890625 0 
L 45.90625 0 
L 45.90625 32.71875 
Q 45.90625 40.484375 42.875 44.328125 
Q 39.84375 48.1875 33.796875 48.1875 
Q 26.515625 48.1875 22.3125 43.546875 
Q 18.109375 38.921875 18.109375 30.90625 
L 18.109375 0 
L 9.078125 0 
L 9.078125 75.984375 
L 18.109375 75.984375 
L 18.109375 46.1875 
Q 21.34375 51.125 25.703125 53.5625 
Q 30.078125 56 35.796875 56 
Q 45.21875 56 50.046875 50.171875 
Q 54.890625 44.34375 54.890625 33.015625 
z
" id="DejaVuSans-104"/>
     <path d="M 48.6875 27.296875 
Q 48.6875 37.203125 44.609375 42.84375 
Q 40.53125 48.484375 33.40625 48.484375 
Q 26.265625 48.484375 22.1875 42.84375 
Q 18.109375 37.203125 18.109375 27.296875 
Q 18.109375 17.390625 22.1875 11.75 
Q 26.265625 6.109375 33.40625 6.109375 
Q 40.53125 6.109375 44.609375 11.75 
Q 48.6875 17.390625 48.6875 27.296875 
z
M 18.109375 46.390625 
Q 20.953125 51.265625 25.265625 53.625 
Q 29.59375 56 35.59375 56 
Q 45.5625 56 51.78125 48.09375 
Q 58.015625 40.1875 58.015625 27.296875 
Q 58.015625 14.40625 51.78125 6.484375 
Q 45.5625 -1.421875 35.59375 -1.421875 
Q 29.59375 -1.421875 25.265625 0.953125 
Q 20.953125 3.328125 18.109375 8.203125 
L 18.109375 0 
L 9.078125 0 
L 9.078125 75.984375 
L 18.109375 75.984375 
z
" id="DejaVuSans-98"/>
    </defs>
    <g transform="translate(255.957188 54.48)scale(0.12 -0.12)">
     <use xlink:href="#DejaVuSans-78"/>
     <use x="74.804688" xlink:href="#DejaVuSans-101"/>
     <use x="136.328125" xlink:href="#DejaVuSans-97"/>
     <use x="197.607422" xlink:href="#DejaVuSans-114"/>
     <use x="236.470703" xlink:href="#DejaVuSans-101"/>
     <use x="297.994141" xlink:href="#DejaVuSans-115"/>
     <use x="350.09375" xlink:href="#DejaVuSans-116"/>
     <use x="389.302734" xlink:href="#DejaVuSans-78"/>
     <use x="464.107422" xlink:href="#DejaVuSans-101"/>
     <use x="525.630859" xlink:href="#DejaVuSans-105"/>
     <use x="553.414062" xlink:href="#DejaVuSans-103"/>
     <use x="616.890625" xlink:href="#DejaVuSans-104"/>
     <use x="680.269531" xlink:href="#DejaVuSans-98"/>
     <use x="743.746094" xlink:href="#DejaVuSans-111"/>
     <use x="804.927734" xlink:href="#DejaVuSans-117"/>
     <use x="868.306641" xlink:href="#DejaVuSans-114"/>
     <use x="909.419922" xlink:href="#DejaVuSans-115"/>
    </g>
   </g>
   <g id="legend_1">
    <g id="patch_7">
     <path d="M 362.659375 112.514375 
L 543.8 112.514375 
Q 545.8 112.514375 545.8 110.514375 
L 545.8 67.48 
Q 545.8 65.48 543.8 65.48 
L 362.659375 65.48 
Q 360.659375 65.48 360.659375 67.48 
L 360.659375 110.514375 
Q 360.659375 112.514375 362.659375 112.514375 
z
" style="fill:#ffffff;opacity:0.8;stroke:#cccccc;stroke-linejoin:miter;"/>
    </g>
    <g id="line2d_48">
     <path d="M 364.659375 73.578438 
L 384.659375 73.578438 
" style="fill:none;stroke:#1f77b4;stroke-linecap:square;stroke-width:2;"/>
    </g>
    <g id="line2d_49"/>
    <g id="text_26">
     <!-- root-cvsift AP: 96.9, %In: 58.8 -->
     <defs>
      <path d="M 37.109375 75.984375 
L 37.109375 68.5 
L 28.515625 68.5 
Q 23.6875 68.5 21.796875 66.546875 
Q 19.921875 64.59375 19.921875 59.515625 
L 19.921875 54.6875 
L 34.71875 54.6875 
L 34.71875 47.703125 
L 19.921875 47.703125 
L 19.921875 0 
L 10.890625 0 
L 10.890625 47.703125 
L 2.296875 47.703125 
L 2.296875 54.6875 
L 10.890625 54.6875 
L 10.890625 58.5 
Q 10.890625 67.625 15.140625 71.796875 
Q 19.390625 75.984375 28.609375 75.984375 
z
" id="DejaVuSans-102"/>
      <path d="M 34.1875 63.1875 
L 20.796875 26.90625 
L 47.609375 26.90625 
z
M 28.609375 72.90625 
L 39.796875 72.90625 
L 67.578125 0 
L 57.328125 0 
L 50.6875 18.703125 
L 17.828125 18.703125 
L 11.1875 0 
L 0.78125 0 
z
" id="DejaVuSans-65"/>
      <path d="M 19.671875 64.796875 
L 19.671875 37.40625 
L 32.078125 37.40625 
Q 38.96875 37.40625 42.71875 40.96875 
Q 46.484375 44.53125 46.484375 51.125 
Q 46.484375 57.671875 42.71875 61.234375 
Q 38.96875 64.796875 32.078125 64.796875 
z
M 9.8125 72.90625 
L 32.078125 72.90625 
Q 44.34375 72.90625 50.609375 67.359375 
Q 56.890625 61.8125 56.890625 51.125 
Q 56.890625 40.328125 50.609375 34.8125 
Q 44.34375 29.296875 32.078125 29.296875 
L 19.671875 29.296875 
L 19.671875 0 
L 9.8125 0 
z
" id="DejaVuSans-80"/>
      <path d="M 11.71875 12.40625 
L 22.015625 12.40625 
L 22.015625 4 
L 14.015625 -11.625 
L 7.71875 -11.625 
L 11.71875 4 
z
" id="DejaVuSans-44"/>
      <path d="M 72.703125 32.078125 
Q 68.453125 32.078125 66.03125 28.46875 
Q 63.625 24.859375 63.625 18.40625 
Q 63.625 12.0625 66.03125 8.421875 
Q 68.453125 4.78125 72.703125 4.78125 
Q 76.859375 4.78125 79.265625 8.421875 
Q 81.6875 12.0625 81.6875 18.40625 
Q 81.6875 24.8125 79.265625 28.4375 
Q 76.859375 32.078125 72.703125 32.078125 
z
M 72.703125 38.28125 
Q 80.421875 38.28125 84.953125 32.90625 
Q 89.5 27.546875 89.5 18.40625 
Q 89.5 9.28125 84.9375 3.921875 
Q 80.375 -1.421875 72.703125 -1.421875 
Q 64.890625 -1.421875 60.34375 3.921875 
Q 55.8125 9.28125 55.8125 18.40625 
Q 55.8125 27.59375 60.375 32.9375 
Q 64.9375 38.28125 72.703125 38.28125 
z
M 22.3125 68.015625 
Q 18.109375 68.015625 15.6875 64.375 
Q 13.28125 60.75 13.28125 54.390625 
Q 13.28125 47.953125 15.671875 44.328125 
Q 18.0625 40.71875 22.3125 40.71875 
Q 26.5625 40.71875 28.96875 44.328125 
Q 31.390625 47.953125 31.390625 54.390625 
Q 31.390625 60.6875 28.953125 64.34375 
Q 26.515625 68.015625 22.3125 68.015625 
z
M 66.40625 74.21875 
L 74.21875 74.21875 
L 28.609375 -1.421875 
L 20.796875 -1.421875 
z
M 22.3125 74.21875 
Q 30.03125 74.21875 34.609375 68.875 
Q 39.203125 63.53125 39.203125 54.390625 
Q 39.203125 45.171875 34.640625 39.84375 
Q 30.078125 34.515625 22.3125 34.515625 
Q 14.546875 34.515625 10.03125 39.859375 
Q 5.515625 45.21875 5.515625 54.390625 
Q 5.515625 63.484375 10.046875 68.84375 
Q 14.59375 74.21875 22.3125 74.21875 
z
" id="DejaVuSans-37"/>
      <path d="M 9.8125 72.90625 
L 19.671875 72.90625 
L 19.671875 0 
L 9.8125 0 
z
" id="DejaVuSans-73"/>
     </defs>
     <g transform="translate(392.659375 77.078438)scale(0.1 -0.1)">
      <use xlink:href="#DejaVuSans-114"/>
      <use x="38.863281" xlink:href="#DejaVuSans-111"/>
      <use x="100.044922" xlink:href="#DejaVuSans-111"/>
      <use x="161.226562" xlink:href="#DejaVuSans-116"/>
      <use x="200.435547" xlink:href="#DejaVuSans-45"/>
      <use x="236.519531" xlink:href="#DejaVuSans-99"/>
      <use x="291.5" xlink:href="#DejaVuSans-118"/>
      <use x="350.679688" xlink:href="#DejaVuSans-115"/>
      <use x="402.779297" xlink:href="#DejaVuSans-105"/>
      <use x="430.5625" xlink:href="#DejaVuSans-102"/>
      <use x="464.017578" xlink:href="#DejaVuSans-116"/>
      <use x="503.226562" xlink:href="#DejaVuSans-32"/>
      <use x="535.013672" xlink:href="#DejaVuSans-65"/>
      <use x="603.421875" xlink:href="#DejaVuSans-80"/>
      <use x="663.724609" xlink:href="#DejaVuSans-58"/>
      <use x="697.416016" xlink:href="#DejaVuSans-32"/>
      <use x="729.203125" xlink:href="#DejaVuSans-57"/>
      <use x="792.826172" xlink:href="#DejaVuSans-54"/>
      <use x="856.449219" xlink:href="#DejaVuSans-46"/>
      <use x="888.236328" xlink:href="#DejaVuSans-57"/>
      <use x="951.859375" xlink:href="#DejaVuSans-44"/>
      <use x="983.646484" xlink:href="#DejaVuSans-32"/>
      <use x="1015.433594" xlink:href="#DejaVuSans-37"/>
      <use x="1110.453125" xlink:href="#DejaVuSans-73"/>
      <use x="1139.945312" xlink:href="#DejaVuSans-110"/>
      <use x="1203.324219" xlink:href="#DejaVuSans-58"/>
      <use x="1237.015625" xlink:href="#DejaVuSans-32"/>
      <use x="1268.802734" xlink:href="#DejaVuSans-53"/>
      <use x="1332.425781" xlink:href="#DejaVuSans-56"/>
      <use x="1396.048828" xlink:href="#DejaVuSans-46"/>
      <use x="1427.835938" xlink:href="#DejaVuSans-56"/>
     </g>
    </g>
    <g id="line2d_50">
     <path d="M 364.659375 88.256563 
L 384.659375 88.256563 
" style="fill:none;stroke:#ff7f0e;stroke-linecap:square;stroke-width:2;"/>
    </g>
    <g id="line2d_51"/>
    <g id="text_27">
     <!-- tfeat AP: 93.6, %In: 58.4 -->
     <g transform="translate(392.659375 91.756563)scale(0.1 -0.1)">
      <use xlink:href="#DejaVuSans-116"/>
      <use x="39.208984" xlink:href="#DejaVuSans-102"/>
      <use x="74.414062" xlink:href="#DejaVuSans-101"/>
      <use x="135.9375" xlink:href="#DejaVuSans-97"/>
      <use x="197.216797" xlink:href="#DejaVuSans-116"/>
      <use x="236.425781" xlink:href="#DejaVuSans-32"/>
      <use x="268.212891" xlink:href="#DejaVuSans-65"/>
      <use x="336.621094" xlink:href="#DejaVuSans-80"/>
      <use x="396.923828" xlink:href="#DejaVuSans-58"/>
      <use x="430.615234" xlink:href="#DejaVuSans-32"/>
      <use x="462.402344" xlink:href="#DejaVuSans-57"/>
      <use x="526.025391" xlink:href="#DejaVuSans-51"/>
      <use x="589.648438" xlink:href="#DejaVuSans-46"/>
      <use x="621.435547" xlink:href="#DejaVuSans-54"/>
      <use x="685.058594" xlink:href="#DejaVuSans-44"/>
      <use x="716.845703" xlink:href="#DejaVuSans-32"/>
      <use x="748.632812" xlink:href="#DejaVuSans-37"/>
      <use x="843.652344" xlink:href="#DejaVuSans-73"/>
      <use x="873.144531" xlink:href="#DejaVuSans-110"/>
      <use x="936.523438" xlink:href="#DejaVuSans-58"/>
      <use x="970.214844" xlink:href="#DejaVuSans-32"/>
      <use x="1002.001953" xlink:href="#DejaVuSans-53"/>
      <use x="1065.625" xlink:href="#DejaVuSans-56"/>
      <use x="1129.248047" xlink:href="#DejaVuSans-46"/>
      <use x="1161.035156" xlink:href="#DejaVuSans-52"/>
     </g>
    </g>
    <g id="line2d_52">
     <path d="M 364.659375 102.934687 
L 384.659375 102.934687 
" style="fill:none;stroke:#2ca02c;stroke-linecap:square;stroke-width:2;"/>
    </g>
    <g id="line2d_53"/>
    <g id="text_28">
     <!-- hardnet AP: 98.5, %In: 59.8 -->
     <defs>
      <path d="M 45.40625 46.390625 
L 45.40625 75.984375 
L 54.390625 75.984375 
L 54.390625 0 
L 45.40625 0 
L 45.40625 8.203125 
Q 42.578125 3.328125 38.25 0.953125 
Q 33.9375 -1.421875 27.875 -1.421875 
Q 17.96875 -1.421875 11.734375 6.484375 
Q 5.515625 14.40625 5.515625 27.296875 
Q 5.515625 40.1875 11.734375 48.09375 
Q 17.96875 56 27.875 56 
Q 33.9375 56 38.25 53.625 
Q 42.578125 51.265625 45.40625 46.390625 
z
M 14.796875 27.296875 
Q 14.796875 17.390625 18.875 11.75 
Q 22.953125 6.109375 30.078125 6.109375 
Q 37.203125 6.109375 41.296875 11.75 
Q 45.40625 17.390625 45.40625 27.296875 
Q 45.40625 37.203125 41.296875 42.84375 
Q 37.203125 48.484375 30.078125 48.484375 
Q 22.953125 48.484375 18.875 42.84375 
Q 14.796875 37.203125 14.796875 27.296875 
z
" id="DejaVuSans-100"/>
     </defs>
     <g transform="translate(392.659375 106.434687)scale(0.1 -0.1)">
      <use xlink:href="#DejaVuSans-104"/>
      <use x="63.378906" xlink:href="#DejaVuSans-97"/>
      <use x="124.658203" xlink:href="#DejaVuSans-114"/>
      <use x="164.021484" xlink:href="#DejaVuSans-100"/>
      <use x="227.498047" xlink:href="#DejaVuSans-110"/>
      <use x="290.876953" xlink:href="#DejaVuSans-101"/>
      <use x="352.400391" xlink:href="#DejaVuSans-116"/>
      <use x="391.609375" xlink:href="#DejaVuSans-32"/>
      <use x="423.396484" xlink:href="#DejaVuSans-65"/>
      <use x="491.804688" xlink:href="#DejaVuSans-80"/>
      <use x="552.107422" xlink:href="#DejaVuSans-58"/>
      <use x="585.798828" xlink:href="#DejaVuSans-32"/>
      <use x="617.585938" xlink:href="#DejaVuSans-57"/>
      <use x="681.208984" xlink:href="#DejaVuSans-56"/>
      <use x="744.832031" xlink:href="#DejaVuSans-46"/>
      <use x="776.619141" xlink:href="#DejaVuSans-53"/>
      <use x="840.242188" xlink:href="#DejaVuSans-44"/>
      <use x="872.029297" xlink:href="#DejaVuSans-32"/>
      <use x="903.816406" xlink:href="#DejaVuSans-37"/>
      <use x="998.835938" xlink:href="#DejaVuSans-73"/>
      <use x="1028.328125" xlink:href="#DejaVuSans-110"/>
      <use x="1091.707031" xlink:href="#DejaVuSans-58"/>
      <use x="1125.398438" xlink:href="#DejaVuSans-32"/>
      <use x="1157.185547" xlink:href="#DejaVuSans-53"/>
      <use x="1220.808594" xlink:href="#DejaVuSans-57"/>
      <use x="1284.431641" xlink:href="#DejaVuSans-46"/>
      <use x="1316.21875" xlink:href="#DejaVuSans-56"/>
     </g>
    </g>
   </g>
  </g>
 </g>
 <defs>
  <clipPath id="p448b7e714a">
   <rect height="388.08" width="474.3" x="76.5" y="60.48"/>
  </clipPath>
 </defs>
</svg>
