<?xml version="1.0" encoding="utf-8" standalone="no"?>
<!DOCTYPE svg PUBLIC "-//W3C//DTD SVG 1.1//EN"
  "http://www.w3.org/Graphics/SVG/1.1/DTD/svg11.dtd">
<!-- Created with matplotlib (https://matplotlib.org/) -->
<svg height="504pt" version="1.1" viewBox="0 0 612 504" width="612pt" xmlns="http://www.w3.org/2000/svg" xmlns:xlink="http://www.w3.org/1999/xlink">
 <defs>
  <style type="text/css">
*{stroke-linecap:butt;stroke-linejoin:round;}
  </style>
 </defs>
 <g id="figure_1">
  <g id="patch_1">
   <path d="M 0 504 
L 612 504 
L 612 0 
L 0 0 
z
" style="fill:#ffffff;"/>
  </g>
  <g id="axes_1">
   <g id="patch_2">
    <path d="M 76.5 448.56 
L 550.8 448.56 
L 550.8 60.48 
L 76.5 60.48 
z
" style="fill:#ffffff;"/>
   </g>
   <g id="matplotlib.axis_1">
    <g id="xtick_1">
     <g id="line2d_1">
      <path clip-path="url(#pf53cdc36d0)" d="M 76.5 448.56 
L 76.5 60.48 
" style="fill:none;stroke:#b0b0b0;stroke-linecap:square;stroke-width:0.8;"/>
     </g>
     <g id="line2d_2">
      <defs>
       <path d="M 0 0 
L 0 3.5 
" id="md3ee051dec" style="stroke:#000000;stroke-width:0.8;"/>
      </defs>
      <g>
       <use style="stroke:#000000;stroke-width:0.8;" x="76.5" xlink:href="#md3ee051dec" y="448.56"/>
      </g>
     </g>
     <g id="text_1">
      <!-- 0.0 -->
      <defs>
       <path d="M 31.78125 66.40625 
Q 24.171875 66.40625 20.328125 58.90625 
Q 16.5 51.421875 16.5 36.375 
Q 16.5 21.390625 20.328125 13.890625 
Q 24.171875 6.390625 31.78125 6.390625 
Q 39.453125 6.390625 43.28125 13.890625 
Q 47.125 21.390625 47.125 36.375 
Q 47.125 51.421875 43.28125 58.90625 
Q 39.453125 66.40625 31.78125 66.40625 
z
M 31.78125 74.21875 
Q 44.046875 74.21875 50.515625 64.515625 
Q 56.984375 54.828125 56.984375 36.375 
Q 56.984375 17.96875 50.515625 8.265625 
Q 44.046875 -1.421875 31.78125 -1.421875 
Q 19.53125 -1.421875 13.0625 8.265625 
Q 6.59375 17.96875 6.59375 36.375 
Q 6.59375 54.828125 13.0625 64.515625 
Q 19.53125 74.21875 31.78125 74.21875 
z
" id="DejaVuSans-48"/>
       <path d="M 10.6875 12.40625 
L 21 12.40625 
L 21 0 
L 10.6875 0 
z
" id="DejaVuSans-46"/>
      </defs>
      <g transform="translate(68.548438 463.158437)scale(0.1 -0.1)">
       <use xlink:href="#DejaVuSans-48"/>
       <use x="63.623047" xlink:href="#DejaVuSans-46"/>
       <use x="95.410156" xlink:href="#DejaVuSans-48"/>
      </g>
     </g>
    </g>
    <g id="xtick_2">
     <g id="line2d_3">
      <path clip-path="url(#pf53cdc36d0)" d="M 123.93 448.56 
L 123.93 60.48 
" style="fill:none;stroke:#b0b0b0;stroke-linecap:square;stroke-width:0.8;"/>
     </g>
     <g id="line2d_4">
      <g>
       <use style="stroke:#000000;stroke-width:0.8;" x="123.93" xlink:href="#md3ee051dec" y="448.56"/>
      </g>
     </g>
     <g id="text_2">
      <!-- 0.1 -->
      <defs>
       <path d="M 12.40625 8.296875 
L 28.515625 8.296875 
L 28.515625 63.921875 
L 10.984375 60.40625 
L 10.984375 69.390625 
L 28.421875 72.90625 
L 38.28125 72.90625 
L 38.28125 8.296875 
L 54.390625 8.296875 
L 54.390625 0 
L 12.40625 0 
z
" id="DejaVuSans-49"/>
      </defs>
      <g transform="translate(115.978438 463.158437)scale(0.1 -0.1)">
       <use xlink:href="#DejaVuSans-48"/>
       <use x="63.623047" xlink:href="#DejaVuSans-46"/>
       <use x="95.410156" xlink:href="#DejaVuSans-49"/>
      </g>
     </g>
    </g>
    <g id="xtick_3">
     <g id="line2d_5">
      <path clip-path="url(#pf53cdc36d0)" d="M 171.36 448.56 
L 171.36 60.48 
" style="fill:none;stroke:#b0b0b0;stroke-linecap:square;stroke-width:0.8;"/>
     </g>
     <g id="line2d_6">
      <g>
       <use style="stroke:#000000;stroke-width:0.8;" x="171.36" xlink:href="#md3ee051dec" y="448.56"/>
      </g>
     </g>
     <g id="text_3">
      <!-- 0.2 -->
      <defs>
       <path d="M 19.1875 8.296875 
L 53.609375 8.296875 
L 53.609375 0 
L 7.328125 0 
L 7.328125 8.296875 
Q 12.9375 14.109375 22.625 23.890625 
Q 32.328125 33.6875 34.8125 36.53125 
Q 39.546875 41.84375 41.421875 45.53125 
Q 43.3125 49.21875 43.3125 52.78125 
Q 43.3125 58.59375 39.234375 62.25 
Q 35.15625 65.921875 28.609375 65.921875 
Q 23.96875 65.921875 18.8125 64.3125 
Q 13.671875 62.703125 7.8125 59.421875 
L 7.8125 69.390625 
Q 13.765625 71.78125 18.9375 73 
Q 24.125 74.21875 28.421875 74.21875 
Q 39.75 74.21875 46.484375 68.546875 
Q 53.21875 62.890625 53.21875 53.421875 
Q 53.21875 48.921875 51.53125 44.890625 
Q 49.859375 40.875 45.40625 35.40625 
Q 44.1875 33.984375 37.640625 27.21875 
Q 31.109375 20.453125 19.1875 8.296875 
z
" id="DejaVuSans-50"/>
      </defs>
      <g transform="translate(163.408438 463.158437)scale(0.1 -0.1)">
       <use xlink:href="#DejaVuSans-48"/>
       <use x="63.623047" xlink:href="#DejaVuSans-46"/>
       <use x="95.410156" xlink:href="#DejaVuSans-50"/>
      </g>
     </g>
    </g>
    <g id="xtick_4">
     <g id="line2d_7">
      <path clip-path="url(#pf53cdc36d0)" d="M 218.79 448.56 
L 218.79 60.48 
" style="fill:none;stroke:#b0b0b0;stroke-linecap:square;stroke-width:0.8;"/>
     </g>
     <g id="line2d_8">
      <g>
       <use style="stroke:#000000;stroke-width:0.8;" x="218.79" xlink:href="#md3ee051dec" y="448.56"/>
      </g>
     </g>
     <g id="text_4">
      <!-- 0.3 -->
      <defs>
       <path d="M 40.578125 39.3125 
Q 47.65625 37.796875 51.625 33 
Q 55.609375 28.21875 55.609375 21.1875 
Q 55.609375 10.40625 48.1875 4.484375 
Q 40.765625 -1.421875 27.09375 -1.421875 
Q 22.515625 -1.421875 17.65625 -0.515625 
Q 12.796875 0.390625 7.625 2.203125 
L 7.625 11.71875 
Q 11.71875 9.328125 16.59375 8.109375 
Q 21.484375 6.890625 26.8125 6.890625 
Q 36.078125 6.890625 40.9375 10.546875 
Q 45.796875 14.203125 45.796875 21.1875 
Q 45.796875 27.640625 41.28125 31.265625 
Q 36.765625 34.90625 28.71875 34.90625 
L 20.21875 34.90625 
L 20.21875 43.015625 
L 29.109375 43.015625 
Q 36.375 43.015625 40.234375 45.921875 
Q 44.09375 48.828125 44.09375 54.296875 
Q 44.09375 59.90625 40.109375 62.90625 
Q 36.140625 65.921875 28.71875 65.921875 
Q 24.65625 65.921875 20.015625 65.03125 
Q 15.375 64.15625 9.8125 62.3125 
L 9.8125 71.09375 
Q 15.4375 72.65625 20.34375 73.4375 
Q 25.25 74.21875 29.59375 74.21875 
Q 40.828125 74.21875 47.359375 69.109375 
Q 53.90625 64.015625 53.90625 55.328125 
Q 53.90625 49.265625 50.4375 45.09375 
Q 46.96875 40.921875 40.578125 39.3125 
z
" id="DejaVuSans-51"/>
      </defs>
      <g transform="translate(210.838438 463.158437)scale(0.1 -0.1)">
       <use xlink:href="#DejaVuSans-48"/>
       <use x="63.623047" xlink:href="#DejaVuSans-46"/>
       <use x="95.410156" xlink:href="#DejaVuSans-51"/>
      </g>
     </g>
    </g>
    <g id="xtick_5">
     <g id="line2d_9">
      <path clip-path="url(#pf53cdc36d0)" d="M 266.22 448.56 
L 266.22 60.48 
" style="fill:none;stroke:#b0b0b0;stroke-linecap:square;stroke-width:0.8;"/>
     </g>
     <g id="line2d_10">
      <g>
       <use style="stroke:#000000;stroke-width:0.8;" x="266.22" xlink:href="#md3ee051dec" y="448.56"/>
      </g>
     </g>
     <g id="text_5">
      <!-- 0.4 -->
      <defs>
       <path d="M 37.796875 64.3125 
L 12.890625 25.390625 
L 37.796875 25.390625 
z
M 35.203125 72.90625 
L 47.609375 72.90625 
L 47.609375 25.390625 
L 58.015625 25.390625 
L 58.015625 17.1875 
L 47.609375 17.1875 
L 47.609375 0 
L 37.796875 0 
L 37.796875 17.1875 
L 4.890625 17.1875 
L 4.890625 26.703125 
z
" id="DejaVuSans-52"/>
      </defs>
      <g transform="translate(258.268438 463.158437)scale(0.1 -0.1)">
       <use xlink:href="#DejaVuSans-48"/>
       <use x="63.623047" xlink:href="#DejaVuSans-46"/>
       <use x="95.410156" xlink:href="#DejaVuSans-52"/>
      </g>
     </g>
    </g>
    <g id="xtick_6">
     <g id="line2d_11">
      <path clip-path="url(#pf53cdc36d0)" d="M 313.65 448.56 
L 313.65 60.48 
" style="fill:none;stroke:#b0b0b0;stroke-linecap:square;stroke-width:0.8;"/>
     </g>
     <g id="line2d_12">
      <g>
       <use style="stroke:#000000;stroke-width:0.8;" x="313.65" xlink:href="#md3ee051dec" y="448.56"/>
      </g>
     </g>
     <g id="text_6">
      <!-- 0.5 -->
      <defs>
       <path d="M 10.796875 72.90625 
L 49.515625 72.90625 
L 49.515625 64.59375 
L 19.828125 64.59375 
L 19.828125 46.734375 
Q 21.96875 47.46875 24.109375 47.828125 
Q 26.265625 48.1875 28.421875 48.1875 
Q 40.625 48.1875 47.75 41.5 
Q 54.890625 34.8125 54.890625 23.390625 
Q 54.890625 11.625 47.5625 5.09375 
Q 40.234375 -1.421875 26.90625 -1.421875 
Q 22.3125 -1.421875 17.546875 -0.640625 
Q 12.796875 0.140625 7.71875 1.703125 
L 7.71875 11.625 
Q 12.109375 9.234375 16.796875 8.0625 
Q 21.484375 6.890625 26.703125 6.890625 
Q 35.15625 6.890625 40.078125 11.328125 
Q 45.015625 15.765625 45.015625 23.390625 
Q 45.015625 31 40.078125 35.4375 
Q 35.15625 39.890625 26.703125 39.890625 
Q 22.75 39.890625 18.8125 39.015625 
Q 14.890625 38.140625 10.796875 36.28125 
z
" id="DejaVuSans-53"/>
      </defs>
      <g transform="translate(305.698438 463.158437)scale(0.1 -0.1)">
       <use xlink:href="#DejaVuSans-48"/>
       <use x="63.623047" xlink:href="#DejaVuSans-46"/>
       <use x="95.410156" xlink:href="#DejaVuSans-53"/>
      </g>
     </g>
    </g>
    <g id="xtick_7">
     <g id="line2d_13">
      <path clip-path="url(#pf53cdc36d0)" d="M 361.08 448.56 
L 361.08 60.48 
" style="fill:none;stroke:#b0b0b0;stroke-linecap:square;stroke-width:0.8;"/>
     </g>
     <g id="line2d_14">
      <g>
       <use style="stroke:#000000;stroke-width:0.8;" x="361.08" xlink:href="#md3ee051dec" y="448.56"/>
      </g>
     </g>
     <g id="text_7">
      <!-- 0.6 -->
      <defs>
       <path d="M 33.015625 40.375 
Q 26.375 40.375 22.484375 35.828125 
Q 18.609375 31.296875 18.609375 23.390625 
Q 18.609375 15.53125 22.484375 10.953125 
Q 26.375 6.390625 33.015625 6.390625 
Q 39.65625 6.390625 43.53125 10.953125 
Q 47.40625 15.53125 47.40625 23.390625 
Q 47.40625 31.296875 43.53125 35.828125 
Q 39.65625 40.375 33.015625 40.375 
z
M 52.59375 71.296875 
L 52.59375 62.3125 
Q 48.875 64.0625 45.09375 64.984375 
Q 41.3125 65.921875 37.59375 65.921875 
Q 27.828125 65.921875 22.671875 59.328125 
Q 17.53125 52.734375 16.796875 39.40625 
Q 19.671875 43.65625 24.015625 45.921875 
Q 28.375 48.1875 33.59375 48.1875 
Q 44.578125 48.1875 50.953125 41.515625 
Q 57.328125 34.859375 57.328125 23.390625 
Q 57.328125 12.15625 50.6875 5.359375 
Q 44.046875 -1.421875 33.015625 -1.421875 
Q 20.359375 -1.421875 13.671875 8.265625 
Q 6.984375 17.96875 6.984375 36.375 
Q 6.984375 53.65625 15.1875 63.9375 
Q 23.390625 74.21875 37.203125 74.21875 
Q 40.921875 74.21875 44.703125 73.484375 
Q 48.484375 72.75 52.59375 71.296875 
z
" id="DejaVuSans-54"/>
      </defs>
      <g transform="translate(353.128438 463.158437)scale(0.1 -0.1)">
       <use xlink:href="#DejaVuSans-48"/>
       <use x="63.623047" xlink:href="#DejaVuSans-46"/>
       <use x="95.410156" xlink:href="#DejaVuSans-54"/>
      </g>
     </g>
    </g>
    <g id="xtick_8">
     <g id="line2d_15">
      <path clip-path="url(#pf53cdc36d0)" d="M 408.51 448.56 
L 408.51 60.48 
" style="fill:none;stroke:#b0b0b0;stroke-linecap:square;stroke-width:0.8;"/>
     </g>
     <g id="line2d_16">
      <g>
       <use style="stroke:#000000;stroke-width:0.8;" x="408.51" xlink:href="#md3ee051dec" y="448.56"/>
      </g>
     </g>
     <g id="text_8">
      <!-- 0.7 -->
      <defs>
       <path d="M 8.203125 72.90625 
L 55.078125 72.90625 
L 55.078125 68.703125 
L 28.609375 0 
L 18.3125 0 
L 43.21875 64.59375 
L 8.203125 64.59375 
z
" id="DejaVuSans-55"/>
      </defs>
      <g transform="translate(400.558438 463.158437)scale(0.1 -0.1)">
       <use xlink:href="#DejaVuSans-48"/>
       <use x="63.623047" xlink:href="#DejaVuSans-46"/>
       <use x="95.410156" xlink:href="#DejaVuSans-55"/>
      </g>
     </g>
    </g>
    <g id="xtick_9">
     <g id="line2d_17">
      <path clip-path="url(#pf53cdc36d0)" d="M 455.94 448.56 
L 455.94 60.48 
" style="fill:none;stroke:#b0b0b0;stroke-linecap:square;stroke-width:0.8;"/>
     </g>
     <g id="line2d_18">
      <g>
       <use style="stroke:#000000;stroke-width:0.8;" x="455.94" xlink:href="#md3ee051dec" y="448.56"/>
      </g>
     </g>
     <g id="text_9">
      <!-- 0.8 -->
      <defs>
       <path d="M 31.78125 34.625 
Q 24.75 34.625 20.71875 30.859375 
Q 16.703125 27.09375 16.703125 20.515625 
Q 16.703125 13.921875 20.71875 10.15625 
Q 24.75 6.390625 31.78125 6.390625 
Q 38.8125 6.390625 42.859375 10.171875 
Q 46.921875 13.96875 46.921875 20.515625 
Q 46.921875 27.09375 42.890625 30.859375 
Q 38.875 34.625 31.78125 34.625 
z
M 21.921875 38.8125 
Q 15.578125 40.375 12.03125 44.71875 
Q 8.5 49.078125 8.5 55.328125 
Q 8.5 64.0625 14.71875 69.140625 
Q 20.953125 74.21875 31.78125 74.21875 
Q 42.671875 74.21875 48.875 69.140625 
Q 55.078125 64.0625 55.078125 55.328125 
Q 55.078125 49.078125 51.53125 44.71875 
Q 48 40.375 41.703125 38.8125 
Q 48.828125 37.15625 52.796875 32.3125 
Q 56.78125 27.484375 56.78125 20.515625 
Q 56.78125 9.90625 50.3125 4.234375 
Q 43.84375 -1.421875 31.78125 -1.421875 
Q 19.734375 -1.421875 13.25 4.234375 
Q 6.78125 9.90625 6.78125 20.515625 
Q 6.78125 27.484375 10.78125 32.3125 
Q 14.796875 37.15625 21.921875 38.8125 
z
M 18.3125 54.390625 
Q 18.3125 48.734375 21.84375 45.5625 
Q 25.390625 42.390625 31.78125 42.390625 
Q 38.140625 42.390625 41.71875 45.5625 
Q 45.3125 48.734375 45.3125 54.390625 
Q 45.3125 60.0625 41.71875 63.234375 
Q 38.140625 66.40625 31.78125 66.40625 
Q 25.390625 66.40625 21.84375 63.234375 
Q 18.3125 60.0625 18.3125 54.390625 
z
" id="DejaVuSans-56"/>
      </defs>
      <g transform="translate(447.988438 463.158437)scale(0.1 -0.1)">
       <use xlink:href="#DejaVuSans-48"/>
       <use x="63.623047" xlink:href="#DejaVuSans-46"/>
       <use x="95.410156" xlink:href="#DejaVuSans-56"/>
      </g>
     </g>
    </g>
    <g id="xtick_10">
     <g id="line2d_19">
      <path clip-path="url(#pf53cdc36d0)" d="M 503.37 448.56 
L 503.37 60.48 
" style="fill:none;stroke:#b0b0b0;stroke-linecap:square;stroke-width:0.8;"/>
     </g>
     <g id="line2d_20">
      <g>
       <use style="stroke:#000000;stroke-width:0.8;" x="503.37" xlink:href="#md3ee051dec" y="448.56"/>
      </g>
     </g>
     <g id="text_10">
      <!-- 0.9 -->
      <defs>
       <path d="M 10.984375 1.515625 
L 10.984375 10.5 
Q 14.703125 8.734375 18.5 7.8125 
Q 22.3125 6.890625 25.984375 6.890625 
Q 35.75 6.890625 40.890625 13.453125 
Q 46.046875 20.015625 46.78125 33.40625 
Q 43.953125 29.203125 39.59375 26.953125 
Q 35.25 24.703125 29.984375 24.703125 
Q 19.046875 24.703125 12.671875 31.3125 
Q 6.296875 37.9375 6.296875 49.421875 
Q 6.296875 60.640625 12.9375 67.421875 
Q 19.578125 74.21875 30.609375 74.21875 
Q 43.265625 74.21875 49.921875 64.515625 
Q 56.59375 54.828125 56.59375 36.375 
Q 56.59375 19.140625 48.40625 8.859375 
Q 40.234375 -1.421875 26.421875 -1.421875 
Q 22.703125 -1.421875 18.890625 -0.6875 
Q 15.09375 0.046875 10.984375 1.515625 
z
M 30.609375 32.421875 
Q 37.25 32.421875 41.125 36.953125 
Q 45.015625 41.5 45.015625 49.421875 
Q 45.015625 57.28125 41.125 61.84375 
Q 37.25 66.40625 30.609375 66.40625 
Q 23.96875 66.40625 20.09375 61.84375 
Q 16.21875 57.28125 16.21875 49.421875 
Q 16.21875 41.5 20.09375 36.953125 
Q 23.96875 32.421875 30.609375 32.421875 
z
" id="DejaVuSans-57"/>
      </defs>
      <g transform="translate(495.418438 463.158437)scale(0.1 -0.1)">
       <use xlink:href="#DejaVuSans-48"/>
       <use x="63.623047" xlink:href="#DejaVuSans-46"/>
       <use x="95.410156" xlink:href="#DejaVuSans-57"/>
      </g>
     </g>
    </g>
    <g id="xtick_11">
     <g id="line2d_21">
      <path clip-path="url(#pf53cdc36d0)" d="M 550.8 448.56 
L 550.8 60.48 
" style="fill:none;stroke:#b0b0b0;stroke-linecap:square;stroke-width:0.8;"/>
     </g>
     <g id="line2d_22">
      <g>
       <use style="stroke:#000000;stroke-width:0.8;" x="550.8" xlink:href="#md3ee051dec" y="448.56"/>
      </g>
     </g>
     <g id="text_11">
      <!-- 1.0 -->
      <g transform="translate(542.848438 463.158437)scale(0.1 -0.1)">
       <use xlink:href="#DejaVuSans-49"/>
       <use x="63.623047" xlink:href="#DejaVuSans-46"/>
       <use x="95.410156" xlink:href="#DejaVuSans-48"/>
      </g>
     </g>
    </g>
    <g id="text_12">
     <!-- 1-precision -->
     <defs>
      <path d="M 4.890625 31.390625 
L 31.203125 31.390625 
L 31.203125 23.390625 
L 4.890625 23.390625 
z
" id="DejaVuSans-45"/>
      <path d="M 18.109375 8.203125 
L 18.109375 -20.796875 
L 9.078125 -20.796875 
L 9.078125 54.6875 
L 18.109375 54.6875 
L 18.109375 46.390625 
Q 20.953125 51.265625 25.265625 53.625 
Q 29.59375 56 35.59375 56 
Q 45.5625 56 51.78125 48.09375 
Q 58.015625 40.1875 58.015625 27.296875 
Q 58.015625 14.40625 51.78125 6.484375 
Q 45.5625 -1.421875 35.59375 -1.421875 
Q 29.59375 -1.421875 25.265625 0.953125 
Q 20.953125 3.328125 18.109375 8.203125 
z
M 48.6875 27.296875 
Q 48.6875 37.203125 44.609375 42.84375 
Q 40.53125 48.484375 33.40625 48.484375 
Q 26.265625 48.484375 22.1875 42.84375 
Q 18.109375 37.203125 18.109375 27.296875 
Q 18.109375 17.390625 22.1875 11.75 
Q 26.265625 6.109375 33.40625 6.109375 
Q 40.53125 6.109375 44.609375 11.75 
Q 48.6875 17.390625 48.6875 27.296875 
z
" id="DejaVuSans-112"/>
      <path d="M 41.109375 46.296875 
Q 39.59375 47.171875 37.8125 47.578125 
Q 36.03125 48 33.890625 48 
Q 26.265625 48 22.1875 43.046875 
Q 18.109375 38.09375 18.109375 28.8125 
L 18.109375 0 
L 9.078125 0 
L 9.078125 54.6875 
L 18.109375 54.6875 
L 18.109375 46.1875 
Q 20.953125 51.171875 25.484375 53.578125 
Q 30.03125 56 36.53125 56 
Q 37.453125 56 38.578125 55.875 
Q 39.703125 55.765625 41.0625 55.515625 
z
" id="DejaVuSans-114"/>
      <path d="M 56.203125 29.59375 
L 56.203125 25.203125 
L 14.890625 25.203125 
Q 15.484375 15.921875 20.484375 11.0625 
Q 25.484375 6.203125 34.421875 6.203125 
Q 39.59375 6.203125 44.453125 7.46875 
Q 49.3125 8.734375 54.109375 11.28125 
L 54.109375 2.78125 
Q 49.265625 0.734375 44.1875 -0.34375 
Q 39.109375 -1.421875 33.890625 -1.421875 
Q 20.796875 -1.421875 13.15625 6.1875 
Q 5.515625 13.8125 5.515625 26.8125 
Q 5.515625 40.234375 12.765625 48.109375 
Q 20.015625 56 32.328125 56 
Q 43.359375 56 49.78125 48.890625 
Q 56.203125 41.796875 56.203125 29.59375 
z
M 47.21875 32.234375 
Q 47.125 39.59375 43.09375 43.984375 
Q 39.0625 48.390625 32.421875 48.390625 
Q 24.90625 48.390625 20.390625 44.140625 
Q 15.875 39.890625 15.1875 32.171875 
z
" id="DejaVuSans-101"/>
      <path d="M 48.78125 52.59375 
L 48.78125 44.1875 
Q 44.96875 46.296875 41.140625 47.34375 
Q 37.3125 48.390625 33.40625 48.390625 
Q 24.65625 48.390625 19.8125 42.84375 
Q 14.984375 37.3125 14.984375 27.296875 
Q 14.984375 17.28125 19.8125 11.734375 
Q 24.65625 6.203125 33.40625 6.203125 
Q 37.3125 6.203125 41.140625 7.25 
Q 44.96875 8.296875 48.78125 10.40625 
L 48.78125 2.09375 
Q 45.015625 0.34375 40.984375 -0.53125 
Q 36.96875 -1.421875 32.421875 -1.421875 
Q 20.0625 -1.421875 12.78125 6.34375 
Q 5.515625 14.109375 5.515625 27.296875 
Q 5.515625 40.671875 12.859375 48.328125 
Q 20.21875 56 33.015625 56 
Q 37.15625 56 41.109375 55.140625 
Q 45.0625 54.296875 48.78125 52.59375 
z
" id="DejaVuSans-99"/>
      <path d="M 9.421875 54.6875 
L 18.40625 54.6875 
L 18.40625 0 
L 9.421875 0 
z
M 9.421875 75.984375 
L 18.40625 75.984375 
L 18.40625 64.59375 
L 9.421875 64.59375 
z
" id="DejaVuSans-105"/>
      <path d="M 44.28125 53.078125 
L 44.28125 44.578125 
Q 40.484375 46.53125 36.375 47.5 
Q 32.28125 48.484375 27.875 48.484375 
Q 21.1875 48.484375 17.84375 46.4375 
Q 14.5 44.390625 14.5 40.28125 
Q 14.5 37.15625 16.890625 35.375 
Q 19.28125 33.59375 26.515625 31.984375 
L 29.59375 31.296875 
Q 39.15625 29.25 43.1875 25.515625 
Q 47.21875 21.78125 47.21875 15.09375 
Q 47.21875 7.46875 41.1875 3.015625 
Q 35.15625 -1.421875 24.609375 -1.421875 
Q 20.21875 -1.421875 15.453125 -0.5625 
Q 10.6875 0.296875 5.421875 2 
L 5.421875 11.28125 
Q 10.40625 8.6875 15.234375 7.390625 
Q 20.0625 6.109375 24.8125 6.109375 
Q 31.15625 6.109375 34.5625 8.28125 
Q 37.984375 10.453125 37.984375 14.40625 
Q 37.984375 18.0625 35.515625 20.015625 
Q 33.0625 21.96875 24.703125 23.78125 
L 21.578125 24.515625 
Q 13.234375 26.265625 9.515625 29.90625 
Q 5.8125 33.546875 5.8125 39.890625 
Q 5.8125 47.609375 11.28125 51.796875 
Q 16.75 56 26.8125 56 
Q 31.78125 56 36.171875 55.265625 
Q 40.578125 54.546875 44.28125 53.078125 
z
" id="DejaVuSans-115"/>
      <path d="M 30.609375 48.390625 
Q 23.390625 48.390625 19.1875 42.75 
Q 14.984375 37.109375 14.984375 27.296875 
Q 14.984375 17.484375 19.15625 11.84375 
Q 23.34375 6.203125 30.609375 6.203125 
Q 37.796875 6.203125 41.984375 11.859375 
Q 46.1875 17.53125 46.1875 27.296875 
Q 46.1875 37.015625 41.984375 42.703125 
Q 37.796875 48.390625 30.609375 48.390625 
z
M 30.609375 56 
Q 42.328125 56 49.015625 48.375 
Q 55.71875 40.765625 55.71875 27.296875 
Q 55.71875 13.875 49.015625 6.21875 
Q 42.328125 -1.421875 30.609375 -1.421875 
Q 18.84375 -1.421875 12.171875 6.21875 
Q 5.515625 13.875 5.515625 27.296875 
Q 5.515625 40.765625 12.171875 48.375 
Q 18.84375 56 30.609375 56 
z
" id="DejaVuSans-111"/>
      <path d="M 54.890625 33.015625 
L 54.890625 0 
L 45.90625 0 
L 45.90625 32.71875 
Q 45.90625 40.484375 42.875 44.328125 
Q 39.84375 48.1875 33.796875 48.1875 
Q 26.515625 48.1875 22.3125 43.546875 
Q 18.109375 38.921875 18.109375 30.90625 
L 18.109375 0 
L 9.078125 0 
L 9.078125 54.6875 
L 18.109375 54.6875 
L 18.109375 46.1875 
Q 21.34375 51.125 25.703125 53.5625 
Q 30.078125 56 35.796875 56 
Q 45.21875 56 50.046875 50.171875 
Q 54.890625 44.34375 54.890625 33.015625 
z
" id="DejaVuSans-110"/>
     </defs>
     <g transform="translate(286.110938 476.836563)scale(0.1 -0.1)">
      <use xlink:href="#DejaVuSans-49"/>
      <use x="63.623047" xlink:href="#DejaVuSans-45"/>
      <use x="99.707031" xlink:href="#DejaVuSans-112"/>
      <use x="163.183594" xlink:href="#DejaVuSans-114"/>
      <use x="202.046875" xlink:href="#DejaVuSans-101"/>
      <use x="263.570312" xlink:href="#DejaVuSans-99"/>
      <use x="318.550781" xlink:href="#DejaVuSans-105"/>
      <use x="346.333984" xlink:href="#DejaVuSans-115"/>
      <use x="398.433594" xlink:href="#DejaVuSans-105"/>
      <use x="426.216797" xlink:href="#DejaVuSans-111"/>
      <use x="487.398438" xlink:href="#DejaVuSans-110"/>
     </g>
    </g>
   </g>
   <g id="matplotlib.axis_2">
    <g id="ytick_1">
     <g id="line2d_23">
      <path clip-path="url(#pf53cdc36d0)" d="M 76.5 448.56 
L 550.8 448.56 
" style="fill:none;stroke:#b0b0b0;stroke-linecap:square;stroke-width:0.8;"/>
     </g>
     <g id="line2d_24">
      <defs>
       <path d="M 0 0 
L -3.5 0 
" id="m4b81f76c2f" style="stroke:#000000;stroke-width:0.8;"/>
      </defs>
      <g>
       <use style="stroke:#000000;stroke-width:0.8;" x="76.5" xlink:href="#m4b81f76c2f" y="448.56"/>
      </g>
     </g>
     <g id="text_13">
      <!-- 0.0 -->
      <g transform="translate(53.596875 452.359219)scale(0.1 -0.1)">
       <use xlink:href="#DejaVuSans-48"/>
       <use x="63.623047" xlink:href="#DejaVuSans-46"/>
       <use x="95.410156" xlink:href="#DejaVuSans-48"/>
      </g>
     </g>
    </g>
    <g id="ytick_2">
     <g id="line2d_25">
      <path clip-path="url(#pf53cdc36d0)" d="M 76.5 409.752 
L 550.8 409.752 
" style="fill:none;stroke:#b0b0b0;stroke-linecap:square;stroke-width:0.8;"/>
     </g>
     <g id="line2d_26">
      <g>
       <use style="stroke:#000000;stroke-width:0.8;" x="76.5" xlink:href="#m4b81f76c2f" y="409.752"/>
      </g>
     </g>
     <g id="text_14">
      <!-- 0.1 -->
      <g transform="translate(53.596875 413.551219)scale(0.1 -0.1)">
       <use xlink:href="#DejaVuSans-48"/>
       <use x="63.623047" xlink:href="#DejaVuSans-46"/>
       <use x="95.410156" xlink:href="#DejaVuSans-49"/>
      </g>
     </g>
    </g>
    <g id="ytick_3">
     <g id="line2d_27">
      <path clip-path="url(#pf53cdc36d0)" d="M 76.5 370.944 
L 550.8 370.944 
" style="fill:none;stroke:#b0b0b0;stroke-linecap:square;stroke-width:0.8;"/>
     </g>
     <g id="line2d_28">
      <g>
       <use style="stroke:#000000;stroke-width:0.8;" x="76.5" xlink:href="#m4b81f76c2f" y="370.944"/>
      </g>
     </g>
     <g id="text_15">
      <!-- 0.2 -->
      <g transform="translate(53.596875 374.743219)scale(0.1 -0.1)">
       <use xlink:href="#DejaVuSans-48"/>
       <use x="63.623047" xlink:href="#DejaVuSans-46"/>
       <use x="95.410156" xlink:href="#DejaVuSans-50"/>
      </g>
     </g>
    </g>
    <g id="ytick_4">
     <g id="line2d_29">
      <path clip-path="url(#pf53cdc36d0)" d="M 76.5 332.136 
L 550.8 332.136 
" style="fill:none;stroke:#b0b0b0;stroke-linecap:square;stroke-width:0.8;"/>
     </g>
     <g id="line2d_30">
      <g>
       <use style="stroke:#000000;stroke-width:0.8;" x="76.5" xlink:href="#m4b81f76c2f" y="332.136"/>
      </g>
     </g>
     <g id="text_16">
      <!-- 0.3 -->
      <g transform="translate(53.596875 335.935219)scale(0.1 -0.1)">
       <use xlink:href="#DejaVuSans-48"/>
       <use x="63.623047" xlink:href="#DejaVuSans-46"/>
       <use x="95.410156" xlink:href="#DejaVuSans-51"/>
      </g>
     </g>
    </g>
    <g id="ytick_5">
     <g id="line2d_31">
      <path clip-path="url(#pf53cdc36d0)" d="M 76.5 293.328 
L 550.8 293.328 
" style="fill:none;stroke:#b0b0b0;stroke-linecap:square;stroke-width:0.8;"/>
     </g>
     <g id="line2d_32">
      <g>
       <use style="stroke:#000000;stroke-width:0.8;" x="76.5" xlink:href="#m4b81f76c2f" y="293.328"/>
      </g>
     </g>
     <g id="text_17">
      <!-- 0.4 -->
      <g transform="translate(53.596875 297.127219)scale(0.1 -0.1)">
       <use xlink:href="#DejaVuSans-48"/>
       <use x="63.623047" xlink:href="#DejaVuSans-46"/>
       <use x="95.410156" xlink:href="#DejaVuSans-52"/>
      </g>
     </g>
    </g>
    <g id="ytick_6">
     <g id="line2d_33">
      <path clip-path="url(#pf53cdc36d0)" d="M 76.5 254.52 
L 550.8 254.52 
" style="fill:none;stroke:#b0b0b0;stroke-linecap:square;stroke-width:0.8;"/>
     </g>
     <g id="line2d_34">
      <g>
       <use style="stroke:#000000;stroke-width:0.8;" x="76.5" xlink:href="#m4b81f76c2f" y="254.52"/>
      </g>
     </g>
     <g id="text_18">
      <!-- 0.5 -->
      <g transform="translate(53.596875 258.319219)scale(0.1 -0.1)">
       <use xlink:href="#DejaVuSans-48"/>
       <use x="63.623047" xlink:href="#DejaVuSans-46"/>
       <use x="95.410156" xlink:href="#DejaVuSans-53"/>
      </g>
     </g>
    </g>
    <g id="ytick_7">
     <g id="line2d_35">
      <path clip-path="url(#pf53cdc36d0)" d="M 76.5 215.712 
L 550.8 215.712 
" style="fill:none;stroke:#b0b0b0;stroke-linecap:square;stroke-width:0.8;"/>
     </g>
     <g id="line2d_36">
      <g>
       <use style="stroke:#000000;stroke-width:0.8;" x="76.5" xlink:href="#m4b81f76c2f" y="215.712"/>
      </g>
     </g>
     <g id="text_19">
      <!-- 0.6 -->
      <g transform="translate(53.596875 219.511219)scale(0.1 -0.1)">
       <use xlink:href="#DejaVuSans-48"/>
       <use x="63.623047" xlink:href="#DejaVuSans-46"/>
       <use x="95.410156" xlink:href="#DejaVuSans-54"/>
      </g>
     </g>
    </g>
    <g id="ytick_8">
     <g id="line2d_37">
      <path clip-path="url(#pf53cdc36d0)" d="M 76.5 176.904 
L 550.8 176.904 
" style="fill:none;stroke:#b0b0b0;stroke-linecap:square;stroke-width:0.8;"/>
     </g>
     <g id="line2d_38">
      <g>
       <use style="stroke:#000000;stroke-width:0.8;" x="76.5" xlink:href="#m4b81f76c2f" y="176.904"/>
      </g>
     </g>
     <g id="text_20">
      <!-- 0.7 -->
      <g transform="translate(53.596875 180.703219)scale(0.1 -0.1)">
       <use xlink:href="#DejaVuSans-48"/>
       <use x="63.623047" xlink:href="#DejaVuSans-46"/>
       <use x="95.410156" xlink:href="#DejaVuSans-55"/>
      </g>
     </g>
    </g>
    <g id="ytick_9">
     <g id="line2d_39">
      <path clip-path="url(#pf53cdc36d0)" d="M 76.5 138.096 
L 550.8 138.096 
" style="fill:none;stroke:#b0b0b0;stroke-linecap:square;stroke-width:0.8;"/>
     </g>
     <g id="line2d_40">
      <g>
       <use style="stroke:#000000;stroke-width:0.8;" x="76.5" xlink:href="#m4b81f76c2f" y="138.096"/>
      </g>
     </g>
     <g id="text_21">
      <!-- 0.8 -->
      <g transform="translate(53.596875 141.895219)scale(0.1 -0.1)">
       <use xlink:href="#DejaVuSans-48"/>
       <use x="63.623047" xlink:href="#DejaVuSans-46"/>
       <use x="95.410156" xlink:href="#DejaVuSans-56"/>
      </g>
     </g>
    </g>
    <g id="ytick_10">
     <g id="line2d_41">
      <path clip-path="url(#pf53cdc36d0)" d="M 76.5 99.288 
L 550.8 99.288 
" style="fill:none;stroke:#b0b0b0;stroke-linecap:square;stroke-width:0.8;"/>
     </g>
     <g id="line2d_42">
      <g>
       <use style="stroke:#000000;stroke-width:0.8;" x="76.5" xlink:href="#m4b81f76c2f" y="99.288"/>
      </g>
     </g>
     <g id="text_22">
      <!-- 0.9 -->
      <g transform="translate(53.596875 103.087219)scale(0.1 -0.1)">
       <use xlink:href="#DejaVuSans-48"/>
       <use x="63.623047" xlink:href="#DejaVuSans-46"/>
       <use x="95.410156" xlink:href="#DejaVuSans-57"/>
      </g>
     </g>
    </g>
    <g id="ytick_11">
     <g id="line2d_43">
      <path clip-path="url(#pf53cdc36d0)" d="M 76.5 60.48 
L 550.8 60.48 
" style="fill:none;stroke:#b0b0b0;stroke-linecap:square;stroke-width:0.8;"/>
     </g>
     <g id="line2d_44">
      <g>
       <use style="stroke:#000000;stroke-width:0.8;" x="76.5" xlink:href="#m4b81f76c2f" y="60.48"/>
      </g>
     </g>
     <g id="text_23">
      <!-- 1.0 -->
      <g transform="translate(53.596875 64.279219)scale(0.1 -0.1)">
       <use xlink:href="#DejaVuSans-49"/>
       <use x="63.623047" xlink:href="#DejaVuSans-46"/>
       <use x="95.410156" xlink:href="#DejaVuSans-48"/>
      </g>
     </g>
    </g>
    <g id="text_24">
     <!-- #correct/744 -->
     <defs>
      <path d="M 51.125 44 
L 36.921875 44 
L 32.8125 27.6875 
L 47.125 27.6875 
z
M 43.796875 71.78125 
L 38.71875 51.515625 
L 52.984375 51.515625 
L 58.109375 71.78125 
L 65.921875 71.78125 
L 60.890625 51.515625 
L 76.125 51.515625 
L 76.125 44 
L 58.984375 44 
L 54.984375 27.6875 
L 70.515625 27.6875 
L 70.515625 20.21875 
L 53.078125 20.21875 
L 48 0 
L 40.1875 0 
L 45.21875 20.21875 
L 30.90625 20.21875 
L 25.875 0 
L 18.015625 0 
L 23.09375 20.21875 
L 7.71875 20.21875 
L 7.71875 27.6875 
L 24.90625 27.6875 
L 29 44 
L 13.28125 44 
L 13.28125 51.515625 
L 30.90625 51.515625 
L 35.890625 71.78125 
z
" id="DejaVuSans-35"/>
      <path d="M 18.3125 70.21875 
L 18.3125 54.6875 
L 36.8125 54.6875 
L 36.8125 47.703125 
L 18.3125 47.703125 
L 18.3125 18.015625 
Q 18.3125 11.328125 20.140625 9.421875 
Q 21.96875 7.515625 27.59375 7.515625 
L 36.8125 7.515625 
L 36.8125 0 
L 27.59375 0 
Q 17.1875 0 13.234375 3.875 
Q 9.28125 7.765625 9.28125 18.015625 
L 9.28125 47.703125 
L 2.6875 47.703125 
L 2.6875 54.6875 
L 9.28125 54.6875 
L 9.28125 70.21875 
z
" id="DejaVuSans-116"/>
      <path d="M 25.390625 72.90625 
L 33.6875 72.90625 
L 8.296875 -9.28125 
L 0 -9.28125 
z
" id="DejaVuSans-47"/>
     </defs>
     <g transform="translate(47.517187 287.443438)rotate(-90)scale(0.1 -0.1)">
      <use xlink:href="#DejaVuSans-35"/>
      <use x="83.789062" xlink:href="#DejaVuSans-99"/>
      <use x="138.769531" xlink:href="#DejaVuSans-111"/>
      <use x="199.951172" xlink:href="#DejaVuSans-114"/>
      <use x="239.314453" xlink:href="#DejaVuSans-114"/>
      <use x="278.177734" xlink:href="#DejaVuSans-101"/>
      <use x="339.701172" xlink:href="#DejaVuSans-99"/>
      <use x="394.681641" xlink:href="#DejaVuSans-116"/>
      <use x="433.890625" xlink:href="#DejaVuSans-47"/>
      <use x="467.582031" xlink:href="#DejaVuSans-55"/>
      <use x="531.205078" xlink:href="#DejaVuSans-52"/>
      <use x="594.828125" xlink:href="#DejaVuSans-52"/>
     </g>
    </g>
   </g>
   <g id="line2d_45">
    <path clip-path="url(#pf53cdc36d0)" d="M 76.5 448.038387 
L 76.5 391.704194 
L 80.811818 391.704194 
L 80.176744 381.793548 
L 79.57987 368.753226 
L 79.483019 366.145161 
L 82.42875 366.145161 
L 81.983237 359.364194 
L 84.677586 359.364194 
L 83.759694 347.88871 
L 83.275714 340.586129 
L 85.491469 340.586129 
L 84.677586 329.632258 
L 86.678112 329.632258 
L 86.024096 321.286452 
L 87.8832 321.286452 
L 86.81087 307.724516 
L 86.591489 304.594839 
L 88.231802 304.594839 
L 87.604013 296.249032 
L 89.148 296.249032 
L 88.819481 292.076129 
L 90.314563 292.076129 
L 90.27 291.554516 
L 91.750804 291.554516 
L 91.557143 289.468065 
L 93.010443 289.468065 
L 92.652632 285.816774 
L 94.066667 285.816774 
L 94.012615 285.295161 
L 98.190549 285.295161 
L 96.711648 272.776452 
L 96.04533 266.517097 
L 97.291233 266.517097 
L 96.790909 261.822581 
L 98.0016 261.822581 
L 97.830952 260.257742 
L 99.026121 260.257742 
L 98.390769 254.52 
L 99.547826 254.52 
L 99.489031 253.998387 
L 100.637405 253.998387 
L 99.75 246.174194 
L 100.852812 246.174194 
L 100.500723 243.044516 
L 101.583173 243.044516 
L 100.432569 232.612258 
L 101.463158 232.612258 
L 101.180769 230.004194 
L 102.195711 230.004194 
L 101.965772 227.917742 
L 102.967634 227.917742 
L 102.617841 224.788065 
L 103.602857 224.788065 
L 103.134557 220.615161 
L 104.099353 220.615161 
L 103.805117 218.007097 
L 104.75617 218.007097 
L 104.696178 217.485484 
L 105.641314 217.485484 
L 105.579704 216.963871 
L 106.518987 216.963871 
L 106.392857 215.920645 
L 107.324528 215.920645 
L 106.941615 212.790968 
L 108.771959 212.790968 
L 108.705556 212.269355 
L 109.613347 212.269355 
L 108.817034 206.01 
L 109.701 206.01 
L 109.568725 204.966774 
L 110.445924 204.966774 
L 110.045776 201.837097 
L 110.91 201.837097 
L 110.842661 201.315484 
L 111.701953 201.315484 
L 111.633333 200.793871 
L 112.487743 200.793871 
L 112.0725 197.664194 
L 112.914587 197.664194 
L 112.637143 195.577742 
L 113.470152 195.577742 
L 113.330114 194.534516 
L 114.980943 194.534516 
L 114.764353 192.969677 
L 115.580899 192.969677 
L 115.36257 191.404839 
L 116.171933 191.404839 
L 115.879151 189.318387 
L 116.68011 189.318387 
L 116.313504 186.710323 
L 117.104918 186.710323 
L 116.957532 185.667097 
L 118.526582 185.667097 
L 118.450722 185.145484 
L 119.22973 185.145484 
L 118.697509 181.494194 
L 120.229787 181.494194 
L 119.998413 179.929355 
L 122.265789 179.929355 
L 122.185639 179.407742 
L 122.934965 179.407742 
L 122.373575 175.756452 
L 123.112241 175.756452 
L 122.872384 174.191613 
L 124.335385 174.191613 
L 124.172402 173.148387 
L 124.897959 173.148387 
L 124.815789 172.626774 
L 125.537797 172.626774 
L 125.454822 172.105161 
L 126.889376 172.105161 
L 126.72 171.061935 
L 127.431544 171.061935 
L 127.261204 170.01871 
L 127.96828 170.01871 
L 127.797005 168.975484 
L 129.898013 168.975484 
L 129.809752 168.453871 
L 131.19687 168.453871 
L 131.017241 167.410645 
L 131.70541 167.410645 
L 131.525 166.367419 
L 132.208972 166.367419 
L 132.027805 165.324194 
L 133.385251 165.324194 
L 133.201454 164.280968 
L 133.875 164.280968 
L 133.782609 163.759355 
L 134.453055 163.759355 
L 134.267308 162.716129 
L 134.93376 162.716129 
L 134.840415 162.194516 
L 136.824324 162.194516 
L 136.443128 160.108065 
L 137.096688 160.108065 
L 137.00126 159.586452 
L 138.300471 159.586452 
L 138.203605 159.064839 
L 139.492969 159.064839 
L 139.394696 158.543226 
L 140.035514 158.543226 
L 139.838199 157.5 
L 140.475349 157.5 
L 140.376316 156.978387 
L 141.643056 156.978387 
L 141.442615 155.935161 
L 143.323277 155.935161 
L 143.119237 154.891935 
L 143.740701 154.891935 
L 143.638356 154.370323 
L 144.257143 154.370323 
L 144.154325 153.84871 
L 145.38472 153.84871 
L 145.176923 152.805484 
L 146.396842 152.805484 
L 146.082934 151.240645 
L 147.291045 151.240645 
L 147.185544 150.719032 
L 147.786161 150.719032 
L 147.680238 150.197419 
L 149.469231 150.197419 
L 149.361448 149.675806 
L 151.1325 149.675806 
L 151.022907 149.154194 
L 152.776316 149.154194 
L 152.553936 148.110968 
L 153.711628 148.110968 
L 153.599565 147.589355 
L 154.175217 147.589355 
L 154.062808 147.067742 
L 155.77781 147.067742 
L 155.436585 145.502903 
L 156.567811 145.502903 
L 156.453429 144.98129 
L 157.576923 144.98129 
L 156.66338 140.808387 
L 157.217722 140.808387 
L 156.991304 139.765161 
L 157.542857 139.765161 
L 157.42951 139.243548 
L 157.978911 139.243548 
L 157.75195 138.200323 
L 158.84375 138.200323 
L 158.615651 137.157097 
L 159.158091 137.157097 
L 159.043923 136.635484 
L 159.584276 136.635484 
L 159.241896 135.070645 
L 160.314658 135.070645 
L 160.085656 134.027419 
L 162.209103 134.027419 
L 162.092809 133.505806 
L 163.668649 133.505806 
L 163.551012 132.984194 
L 164.072911 132.984194 
L 163.955047 132.462581 
L 164.475 132.462581 
L 164.356913 131.940968 
L 164.874933 131.940968 
L 164.286551 129.332903 
L 165.313147 129.332903 
L 165.195358 128.81129 
L 165.706093 128.81129 
L 165.588095 128.289677 
L 166.604485 128.289677 
L 166.485771 127.768065 
L 167.998819 127.768065 
L 167.878899 127.246452 
L 168.380105 127.246452 
L 167.901563 125.16 
L 168.39948 125.16 
L 168.28013 124.638387 
L 168.776265 124.638387 
L 168.656736 124.116774 
L 169.1511 124.116774 
L 168.555656 121.50871 
L 173.884791 121.50871 
L 173.515909 119.943871 
L 175.882811 119.943871 
L 175.758271 119.422258 
L 176.22766 119.422258 
L 176.103 118.900645 
L 176.570787 118.900645 
L 176.321544 117.857419 
L 178.177695 117.857419 
L 178.051856 117.335806 
L 179.888054 117.335806 
L 179.634029 116.292581 
L 180.99694 116.292581 
L 180.869193 115.770968 
L 181.320879 115.770968 
L 181.06553 114.727742 
L 182.41165 114.727742 
L 182.155206 113.684516 
L 183.045652 113.684516 
L 182.788916 112.64129 
L 183.673558 112.64129 
L 183.544898 112.119677 
L 184.424551 112.119677 
L 184.295455 111.598065 
L 184.733333 111.598065 
L 184.604177 111.076452 
L 188.495277 111.076452 
L 188.363208 110.554839 
L 190.064789 110.554839 
L 189.931653 110.033226 
L 195.348845 110.033226 
L 195.211765 109.511613 
L 195.621429 109.511613 
L 195.48435 108.99 
L 199.526621 108.99 
L 199.386818 108.468387 
L 203.335281 108.468387 
L 203.192929 107.946774 
L 205.902561 107.946774 
L 205.758621 107.425161 
L 206.142 107.425161 
L 205.998113 106.903548 
L 206.761794 106.903548 
L 206.473923 105.860323 
L 207.989109 105.860323 
L 207.700439 104.817097 
L 208.076645 104.817097 
L 207.93253 104.295484 
L 210.171055 104.295484 
L 210.025761 103.773871 
L 214.052095 103.773871 
L 213.904506 103.252258 
L 214.265595 103.252258 
L 213.824038 101.687419 
L 214.900639 101.687419 
L 214.753404 101.165806 
L 222.779439 101.165806 
L 222.627697 100.644194 
L 224.657629 100.644194 
L 224.200822 99.079355 
L 228.833435 99.079355 
L 228.525379 98.036129 
L 229.175782 98.036129 
L 229.021875 97.514516 
L 242.985246 97.514516 
L 242.824855 96.992903 
L 243.417115 96.992903 
L 243.256772 96.47129 
L 245.602193 96.47129 
L 245.441143 95.949677 
L 245.731684 95.949677 
L 245.570817 95.428065 
L 246.726989 95.428065 
L 246.565941 94.906452 
L 247.426981 94.906452 
L 247.265881 94.384839 
L 252.329472 94.384839 
L 252.166667 93.863226 
L 253.542857 93.863226 
L 253.379834 93.341613 
L 255.824384 93.341613 
L 255.660766 92.82 
L 259.907374 92.82 
L 259.742588 92.298387 
L 260.78487 92.298387 
L 260.620036 91.776774 
L 266.966929 91.776774 
L 266.800437 91.255161 
L 271.199742 91.255161 
L 271.03233 90.733548 
L 276.226329 90.733548 
L 276.057926 90.211935 
L 288.656718 90.211935 
L 288.486174 89.690323 
L 295.464789 89.690323 
L 295.293589 89.16871 
L 299.227483 89.16871 
L 299.056154 88.647097 
L 305.104054 88.647097 
L 304.932558 88.125484 
L 324.459323 88.125484 
L 324.459323 88.125484 
" style="fill:none;stroke:#1f77b4;stroke-linecap:square;stroke-width:2;"/>
   </g>
   <g id="line2d_46">
    <path clip-path="url(#pf53cdc36d0)" d="M 76.5 448.038387 
L 76.5 396.920323 
L 81.243 396.920323 
L 80.553846 388.052903 
L 79.936957 377.099032 
L 83.32446 377.099032 
L 82.62 368.753226 
L 85.621154 368.753226 
L 85.283333 365.623548 
L 88.139264 365.623548 
L 87.04 356.756129 
L 86.867213 355.19129 
L 89.388587 355.19129 
L 89.25 354.148065 
L 94.160106 354.148065 
L 92.775 345.802258 
L 92.235071 342.150968 
L 94.398113 342.150968 
L 93.985714 339.542903 
L 96.081193 339.542903 
L 95.991781 339.02129 
L 98.059091 339.02129 
L 97.961538 338.499677 
L 100.001351 338.499677 
L 99.688 336.934839 
L 101.684071 336.934839 
L 100.927468 333.283548 
L 102.85 333.283548 
L 102.516456 331.71871 
L 104.4 331.71871 
L 103.938843 329.632258 
L 105.777778 329.632258 
L 105.420732 328.067419 
L 107.223887 328.067419 
L 106.26 323.894516 
L 107.996484 323.894516 
L 107.87393 323.372903 
L 111.294208 323.372903 
L 111.160385 322.85129 
L 112.844828 322.85129 
L 112.568441 321.808065 
L 115.875849 321.808065 
L 115.004059 318.678387 
L 116.60625 318.678387 
L 116.313504 317.635161 
L 117.893455 317.635161 
L 117.743478 317.113548 
L 119.306859 317.113548 
L 119.152878 316.591935 
L 120.7 316.591935 
L 118.444898 308.767742 
L 117.881879 306.68129 
L 119.329766 306.68129 
L 119.045183 305.638065 
L 123.305921 305.638065 
L 121.960064 300.943548 
L 123.325796 300.943548 
L 122.736792 298.857097 
L 124.078683 298.857097 
L 121.806269 290.51129 
L 121.671429 289.989677 
L 122.944807 289.989677 
L 121.867826 285.816774 
L 123.107514 285.816774 
L 122.706877 284.251935 
L 123.93 284.251935 
L 123.526912 282.687097 
L 124.733898 282.687097 
L 122.4 273.298065 
L 122.276944 272.776452 
L 124.5624 272.776452 
L 123.072093 266.517097 
L 124.174485 266.517097 
L 124.051928 265.995484 
L 125.146154 265.995484 
L 124.53038 263.387419 
L 126.677834 263.387419 
L 126.551759 262.865806 
L 127.615038 262.865806 
L 127.3601 261.822581 
L 128.413433 261.822581 
L 126.070546 251.911935 
L 125.033023 247.217419 
L 126.020882 247.217419 
L 125.678571 245.652581 
L 127.62867 245.652581 
L 127.51167 245.130968 
L 128.478082 245.130968 
L 128.359681 244.609355 
L 129.319773 244.609355 
L 129.2 244.087742 
L 130.153846 244.087742 
L 130.032731 243.566129 
L 131.92382 243.566129 
L 131.430067 241.479677 
L 132.362 241.479677 
L 132.238137 240.958065 
L 133.164159 240.958065 
L 133.039073 240.436452 
L 133.959251 240.436452 
L 133.582057 238.871613 
L 135.4 238.871613 
L 135.144469 237.828387 
L 136.044156 237.828387 
L 135.533047 235.741935 
L 136.42227 235.741935 
L 136.166738 234.69871 
L 137.048936 234.69871 
L 136.411579 232.090645 
L 138.149057 232.090645 
L 137.636383 230.004194 
L 138.493568 230.004194 
L 137.606135 226.352903 
L 138.449388 226.352903 
L 138.197561 225.309677 
L 139.868016 225.309677 
L 139.233066 222.701613 
L 140.0562 222.701613 
L 139.929341 222.18 
L 140.747809 222.18 
L 140.492857 221.136774 
L 142.114625 221.136774 
L 141.985207 220.615161 
L 142.789961 220.615161 
L 142.659725 220.093548 
L 143.46 220.093548 
L 142.425869 215.920645 
L 143.212717 215.920645 
L 142.82931 214.355806 
L 143.609369 214.355806 
L 143.353714 213.312581 
L 144.128327 213.312581 
L 144 212.790968 
L 145.537996 212.790968 
L 144.891573 210.182903 
L 145.65028 210.182903 
L 145.392737 209.139677 
L 146.146283 209.139677 
L 146.017069 208.618065 
L 148.998895 208.618065 
L 148.865625 208.096452 
L 151.070018 208.096452 
L 150.528675 206.01 
L 151.976311 206.01 
L 151.840072 205.488387 
L 152.558919 205.488387 
L 152.422122 204.966774 
L 153.137343 204.966774 
L 152.18617 201.315484 
L 152.891681 201.315484 
L 152.756714 200.793871 
L 153.45873 200.793871 
L 153.323239 200.272258 
L 155.411559 200.272258 
L 154.999129 198.707419 
L 155.687478 198.707419 
L 155.140415 196.620968 
L 156.50241 196.620968 
L 156.364948 196.099355 
L 159.724702 196.099355 
L 159.301525 194.534516 
L 161.282125 194.534516 
L 160.997143 193.49129 
L 162.952676 193.49129 
L 162.808347 192.969677 
L 164.099501 192.969677 
L 163.808955 191.926452 
L 164.449669 191.926452 
L 163.727586 189.318387 
L 164.994599 189.318387 
L 164.705873 188.275161 
L 165.334691 188.275161 
L 165.190244 187.753548 
L 165.816234 187.753548 
L 165.671475 187.231935 
L 166.29466 187.231935 
L 166.005 186.18871 
L 167.242283 186.18871 
L 167.096629 185.667097 
L 168.32448 185.667097 
L 167.451347 182.537419 
L 168.662559 182.537419 
L 168.517192 182.015806 
L 169.71934 182.015806 
L 169.427116 180.972581 
L 170.023944 180.972581 
L 169.877813 180.450968 
L 170.472075 180.450968 
L 170.325701 179.929355 
L 170.917418 179.929355 
L 170.770807 179.407742 
L 171.947368 179.407742 
L 171.799845 178.886129 
L 173.549077 178.886129 
L 173.103216 177.32129 
L 175.40274 177.32129 
L 175.10258 176.278065 
L 175.671818 176.278065 
L 175.223077 174.713226 
L 176.352632 174.713226 
L 175.904192 173.148387 
L 176.464574 173.148387 
L 176.315373 172.626774 
L 176.873472 172.626774 
L 176.724107 172.105161 
L 177.279941 172.105161 
L 176.981333 171.061935 
L 177.53432 171.061935 
L 176.94 168.975484 
L 177.488987 168.975484 
L 177.193265 167.932258 
L 177.739474 167.932258 
L 177.444315 166.889032 
L 177.987773 166.889032 
L 177.840262 166.367419 
L 179.459479 166.367419 
L 179.310694 165.845806 
L 180.381268 165.845806 
L 180.231799 165.324194 
L 182.352361 165.324194 
L 182.050357 164.280968 
L 183.621733 164.280968 
L 183.318272 163.237742 
L 184.356356 163.237742 
L 184.204231 162.716129 
L 185.235443 162.716129 
L 184.778571 161.15129 
L 186.817688 161.15129 
L 186.664256 160.629677 
L 187.674341 160.629677 
L 187.52036 160.108065 
L 188.022822 160.108065 
L 187.868785 159.586452 
L 188.369379 159.586452 
L 187.451163 156.456774 
L 187.947541 156.456774 
L 187.795498 155.935161 
L 188.290054 155.935161 
L 187.986277 154.891935 
L 188.478562 154.891935 
L 188.326829 154.370323 
L 188.817321 154.370323 
L 188.665541 153.84871 
L 189.154251 153.84871 
L 189.002426 153.327097 
L 190.942359 153.327097 
L 190.789157 152.805484 
L 191.270455 152.805484 
L 191.117223 152.283871 
L 193.502387 152.283871 
L 193.038705 150.719032 
L 193.981423 150.719032 
L 193.826842 150.197419 
L 195.695812 150.197419 
L 195.54 149.675806 
L 196.927734 149.675806 
L 196.771131 149.154194 
L 197.689494 149.154194 
L 197.219767 147.589355 
L 199.037661 147.589355 
L 198.880359 147.067742 
L 201.570191 147.067742 
L 201.411069 146.546129 
L 202.739544 146.546129 
L 202.420354 145.502903 
L 203.73665 145.502903 
L 203.576604 144.98129 
L 205.74675 144.98129 
L 205.424439 143.938065 
L 206.283582 143.938065 
L 206.12236 143.416452 
L 206.55 143.416452 
L 206.388848 142.894839 
L 207.240297 142.894839 
L 206.757266 141.33 
L 207.180443 141.33 
L 207.019902 140.808387 
L 207.441718 140.808387 
L 207.28125 140.286774 
L 208.121149 140.286774 
L 207.96044 139.765161 
L 208.378537 139.765161 
L 208.217905 139.243548 
L 210.291646 139.243548 
L 210.129867 138.721935 
L 212.177163 138.721935 
L 211.851799 137.67871 
L 212.257725 137.67871 
L 212.095335 137.157097 
L 212.903699 137.157097 
L 212.74112 136.635484 
L 213.545065 136.635484 
L 213.382304 136.113871 
L 216.558 136.113871 
L 216.229225 135.070645 
L 216.621454 135.070645 
L 216.293684 134.027419 
L 219.394554 134.027419 
L 219.229167 133.505806 
L 220.376471 133.505806 
L 220.210714 132.984194 
L 221.349369 132.984194 
L 221.183257 132.462581 
L 222.313371 132.462581 
L 222.146918 131.940968 
L 222.521665 131.940968 
L 222.355353 131.419355 
L 223.844898 131.419355 
L 223.678029 130.897742 
L 224.417288 130.897742 
L 224.250339 130.376129 
L 225.352306 130.376129 
L 225.018182 129.332903 
L 225.383408 129.332903 
L 225.216685 128.81129 
L 228.465299 128.81129 
L 228.29701 128.289677 
L 229.009724 128.289677 
L 228.673429 127.246452 
L 229.735385 127.246452 
L 229.567179 126.724839 
L 230.270865 126.724839 
L 229.934754 125.681613 
L 233.403568 125.681613 
L 233.234125 125.16 
L 235.278541 125.16 
L 235.10836 124.638387 
L 241.408929 124.638387 
L 241.235887 124.116774 
L 242.529781 124.116774 
L 242.356472 123.595161 
L 242.678102 123.595161 
L 242.332258 122.551935 
L 243.29222 122.551935 
L 243.119378 122.030323 
L 244.072934 122.030323 
L 243.9 121.50871 
L 249.801923 121.50871 
L 249.626694 120.987097 
L 250.234511 120.987097 
L 250.059375 120.465484 
L 254.833036 120.465484 
L 254.656293 119.943871 
L 254.949505 119.943871 
L 254.772997 119.422258 
L 255.648817 119.422258 
L 255.472315 118.900645 
L 256.6316 118.900645 
L 256.455 118.379032 
L 258.461246 118.379032 
L 258.284241 117.857419 
L 259.981625 117.857419 
L 259.804348 117.335806 
L 260.365574 117.335806 
L 260.011646 116.292581 
L 260.29125 116.292581 
L 260.114697 115.770968 
L 263.7 115.770968 
L 263.522559 115.249355 
L 271.979669 115.249355 
L 271.8 114.727742 
L 274.340984 114.727742 
L 274.160965 114.206129 
L 277.885907 114.206129 
L 277.705291 113.684516 
L 283.22478 113.684516 
L 283.043284 113.162903 
L 290.36029 113.162903 
L 290.177816 112.64129 
L 291.725191 112.64129 
L 291.542797 112.119677 
L 291.76232 112.119677 
L 291.580203 111.598065 
L 294.400167 111.598065 
L 294.217977 111.076452 
L 300.904153 111.076452 
L 300.721562 110.554839 
L 302.137864 110.554839 
L 301.955457 110.033226 
L 302.757534 110.033226 
L 302.575362 109.511613 
L 304.361151 109.511613 
L 303.997446 108.468387 
L 305.951544 108.468387 
L 305.770016 107.946774 
L 307.693328 107.946774 
L 307.512 107.425161 
L 311.269344 107.425161 
L 311.088194 106.903548 
L 316.688093 106.903548 
L 316.507229 106.381935 
L 318.431964 106.381935 
L 318.251418 105.860323 
L 318.597988 105.860323 
L 318.417722 105.33871 
L 321.3225 105.33871 
L 321.142616 104.817097 
L 330.994304 104.817097 
L 330.81546 104.295484 
L 334.613536 104.295484 
L 334.613536 104.295484 
" style="fill:none;stroke:#ff7f0e;stroke-linecap:square;stroke-width:2;"/>
   </g>
   <g id="line2d_47">
    <path clip-path="url(#pf53cdc36d0)" d="M 76.5 448.038387 
L 76.5 411.525484 
L 83.0875 411.525484 
L 82.284146 406.309355 
L 81.545745 400.05 
L 80.851376 392.225806 
L 80.205469 382.315161 
L 79.64106 370.318065 
L 82.740789 370.318065 
L 82.62 368.753226 
L 85.621154 368.753226 
L 85.123636 364.05871 
L 87.928916 364.05871 
L 86.867213 355.19129 
L 85.845813 344.759032 
L 84.857709 332.240323 
L 84.607692 328.589032 
L 86.591489 328.589032 
L 86.422594 326.502581 
L 88.3575 326.502581 
L 88.021457 322.85129 
L 91.738554 322.85129 
L 90.501476 311.375806 
L 89.494521 300.421935 
L 91.068942 300.421935 
L 89.839687 286.338387 
L 89.12929 276.949355 
L 90.49115 276.949355 
L 89.638504 265.473871 
L 90.912431 265.473871 
L 90.754918 263.387419 
L 92.008447 263.387419 
L 91.557143 257.649677 
L 92.768865 257.649677 
L 92.641099 256.084839 
L 93.837337 256.084839 
L 93.059102 246.695806 
L 94.197761 246.695806 
L 94.066667 245.130968 
L 95.191626 245.130968 
L 94.482938 236.785161 
L 95.561702 236.785161 
L 95.078571 231.047419 
L 96.126207 231.047419 
L 95.991781 229.482581 
L 97.02779 229.482581 
L 96.570601 224.266452 
L 97.58 224.266452 
L 96.943966 216.963871 
L 97.92 216.963871 
L 97.782692 215.399032 
L 98.748614 215.399032 
L 97.83865 204.966774 
L 98.763061 204.966774 
L 98.582794 202.880323 
L 99.496364 202.880323 
L 99.312024 200.793871 
L 100.215 200.793871 
L 99.980198 198.185806 
L 100.871146 198.185806 
L 100.823077 197.664194 
L 101.708858 197.664194 
L 101.222201 192.448065 
L 102.088439 192.448065 
L 101.990211 191.404839 
L 102.85 191.404839 
L 102.749427 190.361613 
L 104.453042 190.361613 
L 104.242075 188.275161 
L 105.083051 188.275161 
L 104.658813 184.102258 
L 105.485 184.102258 
L 105.431423 183.580645 
L 106.253137 183.580645 
L 106.035165 181.494194 
L 106.848263 181.494194 
L 106.737705 180.450968 
L 107.545091 180.450968 
L 107.045259 175.756452 
L 107.837679 175.756452 
L 107.560354 173.148387 
L 108.343463 173.148387 
L 108.009441 170.01871 
L 109.552265 170.01871 
L 109.380416 168.453871 
L 110.144118 168.453871 
L 109.741538 164.802581 
L 110.494198 164.802581 
L 110.149662 161.672903 
L 110.892749 161.672903 
L 110.834848 161.15129 
L 112.311242 161.15129 
L 112.191472 160.108065 
L 112.923706 160.108065 
L 112.863 159.586452 
L 113.591681 159.586452 
L 113.468657 158.543226 
L 114.192715 158.543226 
L 114.068317 157.5 
L 114.787809 157.5 
L 114.662069 156.456774 
L 115.377049 156.456774 
L 115.25 155.413548 
L 116.66873 155.413548 
L 116.47342 153.84871 
L 117.176214 153.84871 
L 116.97971 152.283871 
L 118.372392 152.283871 
L 118.305288 151.762258 
L 118.99728 151.762258 
L 118.929393 151.240645 
L 119.618182 151.240645 
L 119.549522 150.719032 
L 120.235135 150.719032 
L 120.165714 150.197419 
L 120.848177 150.197419 
L 120.778006 149.675806 
L 123.482547 149.675806 
L 123.408791 149.154194 
L 124.078683 149.154194 
L 123.93 148.110968 
L 125.259813 148.110968 
L 125.183981 147.589355 
L 126.503721 147.589355 
L 126.119077 144.98129 
L 126.771429 144.98129 
L 126.388262 142.373226 
L 128.960455 142.373226 
L 128.881089 141.851613 
L 129.518429 141.851613 
L 129.279248 140.286774 
L 129.912162 140.286774 
L 129.672646 138.721935 
L 130.301194 138.721935 
L 130.221013 138.200323 
L 130.846875 138.200323 
L 130.685608 137.157097 
L 131.308 137.157097 
L 131.226923 136.635484 
L 131.846677 136.635484 
L 131.521586 134.549032 
L 133.360526 134.549032 
L 133.029942 132.462581 
L 133.636284 132.462581 
L 133.470912 131.419355 
L 134.073988 131.419355 
L 133.990909 130.897742 
L 135.19036 130.897742 
L 135.021951 129.854516 
L 135.617622 129.854516 
L 135.533047 129.332903 
L 136.717832 129.332903 
L 136.37617 127.246452 
L 136.963173 127.246452 
L 136.369565 123.595161 
L 137.528811 123.595161 
L 137.443575 123.073548 
L 138.594986 123.073548 
L 138.508623 122.551935 
L 139.08125 122.551935 
L 138.994452 122.030323 
L 140.700829 122.030323 
L 140.348077 119.943871 
L 140.911111 119.943871 
L 140.822877 119.422258 
L 143.057084 119.422258 
L 142.966531 118.900645 
L 144.07327 118.900645 
L 143.981707 118.379032 
L 144.532206 118.379032 
L 144.44027 117.857419 
L 145.53558 117.857419 
L 145.442665 117.335806 
L 145.9875 117.335806 
L 145.894228 116.814194 
L 146.436997 116.814194 
L 146.156876 115.249355 
L 146.6964 115.249355 
L 146.602929 114.727742 
L 148.744371 114.727742 
L 148.553501 113.684516 
L 149.084169 113.684516 
L 148.232464 108.99 
L 148.756641 108.99 
L 148.662679 108.468387 
L 149.184935 108.468387 
L 149.090661 107.946774 
L 149.61101 107.946774 
L 149.516429 107.425161 
L 150.034884 107.425161 
L 149.94 106.903548 
L 150.456572 106.903548 
L 150.171759 105.33871 
L 153.233885 105.33871 
L 153.13626 104.817097 
L 154.145558 104.817097 
L 153.948987 103.773871 
L 155.450315 103.773871 
L 155.350882 103.252258 
L 156.344472 103.252258 
L 156.244291 102.730645 
L 157.723875 102.730645 
L 157.521322 101.687419 
L 158.011083 101.687419 
L 157.808571 100.644194 
L 159.267698 100.644194 
L 159.063333 99.600968 
L 159.546363 99.600968 
L 159.444089 99.079355 
L 160.405651 99.079355 
L 160.302699 98.557742 
L 160.78125 98.557742 
L 160.575183 97.514516 
L 161.051648 97.514516 
L 160.948537 96.992903 
L 162.369623 96.992903 
L 162.265413 96.47129 
L 165.538267 96.47129 
L 165.43125 95.949677 
L 168.646484 95.949677 
L 168.536786 95.428065 
L 169.444774 95.428065 
L 169.33452 94.906452 
L 170.687234 94.906452 
L 170.354417 93.341613 
L 170.802 93.341613 
L 170.691187 92.82 
L 173.352392 92.82 
L 173.23951 92.298387 
L 174.991531 92.298387 
L 174.877404 91.776774 
L 175.74659 91.776774 
L 175.631986 91.255161 
L 178.640206 91.255161 
L 178.523341 90.733548 
L 179.796807 90.733548 
L 179.679157 90.211935 
L 183.030135 90.211935 
L 182.910034 89.690323 
L 183.324324 89.690323 
L 183.204162 89.16871 
L 183.617191 89.16871 
L 183.49697 88.647097 
L 183.908744 88.647097 
L 183.788466 88.125484 
L 185.425084 88.125484 
L 185.182759 87.082258 
L 190.394408 87.082258 
L 190.26966 86.560645 
L 190.664114 86.560645 
L 190.539344 86.039032 
L 194.048377 86.039032 
L 193.921297 85.517419 
L 196.221267 85.517419 
L 196.092811 84.995806 
L 197.608654 84.995806 
L 197.479402 84.474194 
L 200.840803 84.474194 
L 200.709504 83.952581 
L 201.447313 83.952581 
L 201.315789 83.430968 
L 203.509205 83.430968 
L 203.376489 82.909355 
L 204.822581 82.909355 
L 204.689189 82.387742 
L 208.602055 82.387742 
L 208.466427 81.866129 
L 213.999091 81.866129 
L 213.860343 81.344516 
L 222.796857 81.344516 
L 222.653288 80.822903 
L 223.616536 80.822903 
L 223.472727 80.30129 
L 234.6 80.30129 
L 234.450849 79.779677 
L 236.820506 79.779677 
L 236.670533 79.258065 
L 236.964112 79.258065 
L 236.814286 78.736452 
L 241.435971 78.736452 
L 241.284375 78.214839 
L 243.263014 78.214839 
L 243.110858 77.693226 
L 243.950773 77.693226 
L 243.798545 77.171613 
L 244.633545 77.171613 
L 244.48125 76.65 
L 253.371768 76.65 
L 253.216344 76.128387 
L 257.087771 76.128387 
L 256.931282 75.606774 
L 274.864687 75.606774 
L 274.703415 75.085161 
L 279.771429 75.085161 
L 279.60933 74.563548 
L 296.824571 74.563548 
L 296.660149 74.041935 
L 315.615331 74.041935 
L 315.615331 74.041935 
" style="fill:none;stroke:#2ca02c;stroke-linecap:square;stroke-width:2;"/>
   </g>
   <g id="patch_3">
    <path d="M 76.5 448.56 
L 76.5 60.48 
" style="fill:none;stroke:#000000;stroke-linecap:square;stroke-linejoin:miter;stroke-width:0.8;"/>
   </g>
   <g id="patch_4">
    <path d="M 550.8 448.56 
L 550.8 60.48 
" style="fill:none;stroke:#000000;stroke-linecap:square;stroke-linejoin:miter;stroke-width:0.8;"/>
   </g>
   <g id="patch_5">
    <path d="M 76.5 448.56 
L 550.8 448.56 
" style="fill:none;stroke:#000000;stroke-linecap:square;stroke-linejoin:miter;stroke-width:0.8;"/>
   </g>
   <g id="patch_6">
    <path d="M 76.5 60.48 
L 550.8 60.48 
" style="fill:none;stroke:#000000;stroke-linecap:square;stroke-linejoin:miter;stroke-width:0.8;"/>
   </g>
   <g id="text_25">
    <!-- leuven: img1-img5 -->
    <defs>
     <path d="M 9.421875 75.984375 
L 18.40625 75.984375 
L 18.40625 0 
L 9.421875 0 
z
" id="DejaVuSans-108"/>
     <path d="M 8.5 21.578125 
L 8.5 54.6875 
L 17.484375 54.6875 
L 17.484375 21.921875 
Q 17.484375 14.15625 20.5 10.265625 
Q 23.53125 6.390625 29.59375 6.390625 
Q 36.859375 6.390625 41.078125 11.03125 
Q 45.3125 15.671875 45.3125 23.6875 
L 45.3125 54.6875 
L 54.296875 54.6875 
L 54.296875 0 
L 45.3125 0 
L 45.3125 8.40625 
Q 42.046875 3.421875 37.71875 1 
Q 33.40625 -1.421875 27.6875 -1.421875 
Q 18.265625 -1.421875 13.375 4.4375 
Q 8.5 10.296875 8.5 21.578125 
z
M 31.109375 56 
z
" id="DejaVuSans-117"/>
     <path d="M 2.984375 54.6875 
L 12.5 54.6875 
L 29.59375 8.796875 
L 46.6875 54.6875 
L 56.203125 54.6875 
L 35.6875 0 
L 23.484375 0 
z
" id="DejaVuSans-118"/>
     <path d="M 11.71875 12.40625 
L 22.015625 12.40625 
L 22.015625 0 
L 11.71875 0 
z
M 11.71875 51.703125 
L 22.015625 51.703125 
L 22.015625 39.3125 
L 11.71875 39.3125 
z
" id="DejaVuSans-58"/>
     <path id="DejaVuSans-32"/>
     <path d="M 52 44.1875 
Q 55.375 50.25 60.0625 53.125 
Q 64.75 56 71.09375 56 
Q 79.640625 56 84.28125 50.015625 
Q 88.921875 44.046875 88.921875 33.015625 
L 88.921875 0 
L 79.890625 0 
L 79.890625 32.71875 
Q 79.890625 40.578125 77.09375 44.375 
Q 74.3125 48.1875 68.609375 48.1875 
Q 61.625 48.1875 57.5625 43.546875 
Q 53.515625 38.921875 53.515625 30.90625 
L 53.515625 0 
L 44.484375 0 
L 44.484375 32.71875 
Q 44.484375 40.625 41.703125 44.40625 
Q 38.921875 48.1875 33.109375 48.1875 
Q 26.21875 48.1875 22.15625 43.53125 
Q 18.109375 38.875 18.109375 30.90625 
L 18.109375 0 
L 9.078125 0 
L 9.078125 54.6875 
L 18.109375 54.6875 
L 18.109375 46.1875 
Q 21.1875 51.21875 25.484375 53.609375 
Q 29.78125 56 35.6875 56 
Q 41.65625 56 45.828125 52.96875 
Q 50 49.953125 52 44.1875 
z
" id="DejaVuSans-109"/>
     <path d="M 45.40625 27.984375 
Q 45.40625 37.75 41.375 43.109375 
Q 37.359375 48.484375 30.078125 48.484375 
Q 22.859375 48.484375 18.828125 43.109375 
Q 14.796875 37.75 14.796875 27.984375 
Q 14.796875 18.265625 18.828125 12.890625 
Q 22.859375 7.515625 30.078125 7.515625 
Q 37.359375 7.515625 41.375 12.890625 
Q 45.40625 18.265625 45.40625 27.984375 
z
M 54.390625 6.78125 
Q 54.390625 -7.171875 48.1875 -13.984375 
Q 42 -20.796875 29.203125 -20.796875 
Q 24.46875 -20.796875 20.265625 -20.09375 
Q 16.0625 -19.390625 12.109375 -17.921875 
L 12.109375 -9.1875 
Q 16.0625 -11.328125 19.921875 -12.34375 
Q 23.78125 -13.375 27.78125 -13.375 
Q 36.625 -13.375 41.015625 -8.765625 
Q 45.40625 -4.15625 45.40625 5.171875 
L 45.40625 9.625 
Q 42.625 4.78125 38.28125 2.390625 
Q 33.9375 0 27.875 0 
Q 17.828125 0 11.671875 7.65625 
Q 5.515625 15.328125 5.515625 27.984375 
Q 5.515625 40.671875 11.671875 48.328125 
Q 17.828125 56 27.875 56 
Q 33.9375 56 38.28125 53.609375 
Q 42.625 51.21875 45.40625 46.390625 
L 45.40625 54.6875 
L 54.390625 54.6875 
z
" id="DejaVuSans-103"/>
    </defs>
    <g transform="translate(257.074688 41.042625)scale(0.12 -0.12)">
     <use xlink:href="#DejaVuSans-108"/>
     <use x="27.783203" xlink:href="#DejaVuSans-101"/>
     <use x="89.306641" xlink:href="#DejaVuSans-117"/>
     <use x="152.685547" xlink:href="#DejaVuSans-118"/>
     <use x="211.865234" xlink:href="#DejaVuSans-101"/>
     <use x="273.388672" xlink:href="#DejaVuSans-110"/>
     <use x="336.767578" xlink:href="#DejaVuSans-58"/>
     <use x="370.458984" xlink:href="#DejaVuSans-32"/>
     <use x="402.246094" xlink:href="#DejaVuSans-105"/>
     <use x="430.029297" xlink:href="#DejaVuSans-109"/>
     <use x="527.441406" xlink:href="#DejaVuSans-103"/>
     <use x="590.917969" xlink:href="#DejaVuSans-49"/>
     <use x="654.541016" xlink:href="#DejaVuSans-45"/>
     <use x="690.625" xlink:href="#DejaVuSans-105"/>
     <use x="718.408203" xlink:href="#DejaVuSans-109"/>
     <use x="815.820312" xlink:href="#DejaVuSans-103"/>
     <use x="879.296875" xlink:href="#DejaVuSans-53"/>
    </g>
    <!-- NearestNeighbours -->
    <defs>
     <path d="M 9.8125 72.90625 
L 23.09375 72.90625 
L 55.421875 11.921875 
L 55.421875 72.90625 
L 64.984375 72.90625 
L 64.984375 0 
L 51.703125 0 
L 19.390625 60.984375 
L 19.390625 0 
L 9.8125 0 
z
" id="DejaVuSans-78"/>
     <path d="M 34.28125 27.484375 
Q 23.390625 27.484375 19.1875 25 
Q 14.984375 22.515625 14.984375 16.5 
Q 14.984375 11.71875 18.140625 8.90625 
Q 21.296875 6.109375 26.703125 6.109375 
Q 34.1875 6.109375 38.703125 11.40625 
Q 43.21875 16.703125 43.21875 25.484375 
L 43.21875 27.484375 
z
M 52.203125 31.203125 
L 52.203125 0 
L 43.21875 0 
L 43.21875 8.296875 
Q 40.140625 3.328125 35.546875 0.953125 
Q 30.953125 -1.421875 24.3125 -1.421875 
Q 15.921875 -1.421875 10.953125 3.296875 
Q 6 8.015625 6 15.921875 
Q 6 25.140625 12.171875 29.828125 
Q 18.359375 34.515625 30.609375 34.515625 
L 43.21875 34.515625 
L 43.21875 35.40625 
Q 43.21875 41.609375 39.140625 45 
Q 35.0625 48.390625 27.6875 48.390625 
Q 23 48.390625 18.546875 47.265625 
Q 14.109375 46.140625 10.015625 43.890625 
L 10.015625 52.203125 
Q 14.9375 54.109375 19.578125 55.046875 
Q 24.21875 56 28.609375 56 
Q 40.484375 56 46.34375 49.84375 
Q 52.203125 43.703125 52.203125 31.203125 
z
" id="DejaVuSans-97"/>
     <path d="M 54.890625 33.015625 
L 54.890625 0 
L 45.90625 0 
L 45.90625 32.71875 
Q 45.90625 40.484375 42.875 44.328125 
Q 39.84375 48.1875 33.796875 48.1875 
Q 26.515625 48.1875 22.3125 43.546875 
Q 18.109375 38.921875 18.109375 30.90625 
L 18.109375 0 
L 9.078125 0 
L 9.078125 75.984375 
L 18.109375 75.984375 
L 18.109375 46.1875 
Q 21.34375 51.125 25.703125 53.5625 
Q 30.078125 56 35.796875 56 
Q 45.21875 56 50.046875 50.171875 
Q 54.890625 44.34375 54.890625 33.015625 
z
" id="DejaVuSans-104"/>
     <path d="M 48.6875 27.296875 
Q 48.6875 37.203125 44.609375 42.84375 
Q 40.53125 48.484375 33.40625 48.484375 
Q 26.265625 48.484375 22.1875 42.84375 
Q 18.109375 37.203125 18.109375 27.296875 
Q 18.109375 17.390625 22.1875 11.75 
Q 26.265625 6.109375 33.40625 6.109375 
Q 40.53125 6.109375 44.609375 11.75 
Q 48.6875 17.390625 48.6875 27.296875 
z
M 18.109375 46.390625 
Q 20.953125 51.265625 25.265625 53.625 
Q 29.59375 56 35.59375 56 
Q 45.5625 56 51.78125 48.09375 
Q 58.015625 40.1875 58.015625 27.296875 
Q 58.015625 14.40625 51.78125 6.484375 
Q 45.5625 -1.421875 35.59375 -1.421875 
Q 29.59375 -1.421875 25.265625 0.953125 
Q 20.953125 3.328125 18.109375 8.203125 
L 18.109375 0 
L 9.078125 0 
L 9.078125 75.984375 
L 18.109375 75.984375 
z
" id="DejaVuSans-98"/>
    </defs>
    <g transform="translate(255.957188 54.48)scale(0.12 -0.12)">
     <use xlink:href="#DejaVuSans-78"/>
     <use x="74.804688" xlink:href="#DejaVuSans-101"/>
     <use x="136.328125" xlink:href="#DejaVuSans-97"/>
     <use x="197.607422" xlink:href="#DejaVuSans-114"/>
     <use x="236.470703" xlink:href="#DejaVuSans-101"/>
     <use x="297.994141" xlink:href="#DejaVuSans-115"/>
     <use x="350.09375" xlink:href="#DejaVuSans-116"/>
     <use x="389.302734" xlink:href="#DejaVuSans-78"/>
     <use x="464.107422" xlink:href="#DejaVuSans-101"/>
     <use x="525.630859" xlink:href="#DejaVuSans-105"/>
     <use x="553.414062" xlink:href="#DejaVuSans-103"/>
     <use x="616.890625" xlink:href="#DejaVuSans-104"/>
     <use x="680.269531" xlink:href="#DejaVuSans-98"/>
     <use x="743.746094" xlink:href="#DejaVuSans-111"/>
     <use x="804.927734" xlink:href="#DejaVuSans-117"/>
     <use x="868.306641" xlink:href="#DejaVuSans-114"/>
     <use x="909.419922" xlink:href="#DejaVuSans-115"/>
    </g>
   </g>
   <g id="legend_1">
    <g id="patch_7">
     <path d="M 362.659375 112.514375 
L 543.8 112.514375 
Q 545.8 112.514375 545.8 110.514375 
L 545.8 67.48 
Q 545.8 65.48 543.8 65.48 
L 362.659375 65.48 
Q 360.659375 65.48 360.659375 67.48 
L 360.659375 110.514375 
Q 360.659375 112.514375 362.659375 112.514375 
z
" style="fill:#ffffff;opacity:0.8;stroke:#cccccc;stroke-linejoin:miter;"/>
    </g>
    <g id="line2d_48">
     <path d="M 364.659375 73.578438 
L 384.659375 73.578438 
" style="fill:none;stroke:#1f77b4;stroke-linecap:square;stroke-width:2;"/>
    </g>
    <g id="line2d_49"/>
    <g id="text_26">
     <!-- root-cvsift AP: 85.9, %In: 47.7 -->
     <defs>
      <path d="M 37.109375 75.984375 
L 37.109375 68.5 
L 28.515625 68.5 
Q 23.6875 68.5 21.796875 66.546875 
Q 19.921875 64.59375 19.921875 59.515625 
L 19.921875 54.6875 
L 34.71875 54.6875 
L 34.71875 47.703125 
L 19.921875 47.703125 
L 19.921875 0 
L 10.890625 0 
L 10.890625 47.703125 
L 2.296875 47.703125 
L 2.296875 54.6875 
L 10.890625 54.6875 
L 10.890625 58.5 
Q 10.890625 67.625 15.140625 71.796875 
Q 19.390625 75.984375 28.609375 75.984375 
z
" id="DejaVuSans-102"/>
      <path d="M 34.1875 63.1875 
L 20.796875 26.90625 
L 47.609375 26.90625 
z
M 28.609375 72.90625 
L 39.796875 72.90625 
L 67.578125 0 
L 57.328125 0 
L 50.6875 18.703125 
L 17.828125 18.703125 
L 11.1875 0 
L 0.78125 0 
z
" id="DejaVuSans-65"/>
      <path d="M 19.671875 64.796875 
L 19.671875 37.40625 
L 32.078125 37.40625 
Q 38.96875 37.40625 42.71875 40.96875 
Q 46.484375 44.53125 46.484375 51.125 
Q 46.484375 57.671875 42.71875 61.234375 
Q 38.96875 64.796875 32.078125 64.796875 
z
M 9.8125 72.90625 
L 32.078125 72.90625 
Q 44.34375 72.90625 50.609375 67.359375 
Q 56.890625 61.8125 56.890625 51.125 
Q 56.890625 40.328125 50.609375 34.8125 
Q 44.34375 29.296875 32.078125 29.296875 
L 19.671875 29.296875 
L 19.671875 0 
L 9.8125 0 
z
" id="DejaVuSans-80"/>
      <path d="M 11.71875 12.40625 
L 22.015625 12.40625 
L 22.015625 4 
L 14.015625 -11.625 
L 7.71875 -11.625 
L 11.71875 4 
z
" id="DejaVuSans-44"/>
      <path d="M 72.703125 32.078125 
Q 68.453125 32.078125 66.03125 28.46875 
Q 63.625 24.859375 63.625 18.40625 
Q 63.625 12.0625 66.03125 8.421875 
Q 68.453125 4.78125 72.703125 4.78125 
Q 76.859375 4.78125 79.265625 8.421875 
Q 81.6875 12.0625 81.6875 18.40625 
Q 81.6875 24.8125 79.265625 28.4375 
Q 76.859375 32.078125 72.703125 32.078125 
z
M 72.703125 38.28125 
Q 80.421875 38.28125 84.953125 32.90625 
Q 89.5 27.546875 89.5 18.40625 
Q 89.5 9.28125 84.9375 3.921875 
Q 80.375 -1.421875 72.703125 -1.421875 
Q 64.890625 -1.421875 60.34375 3.921875 
Q 55.8125 9.28125 55.8125 18.40625 
Q 55.8125 27.59375 60.375 32.9375 
Q 64.9375 38.28125 72.703125 38.28125 
z
M 22.3125 68.015625 
Q 18.109375 68.015625 15.6875 64.375 
Q 13.28125 60.75 13.28125 54.390625 
Q 13.28125 47.953125 15.671875 44.328125 
Q 18.0625 40.71875 22.3125 40.71875 
Q 26.5625 40.71875 28.96875 44.328125 
Q 31.390625 47.953125 31.390625 54.390625 
Q 31.390625 60.6875 28.953125 64.34375 
Q 26.515625 68.015625 22.3125 68.015625 
z
M 66.40625 74.21875 
L 74.21875 74.21875 
L 28.609375 -1.421875 
L 20.796875 -1.421875 
z
M 22.3125 74.21875 
Q 30.03125 74.21875 34.609375 68.875 
Q 39.203125 63.53125 39.203125 54.390625 
Q 39.203125 45.171875 34.640625 39.84375 
Q 30.078125 34.515625 22.3125 34.515625 
Q 14.546875 34.515625 10.03125 39.859375 
Q 5.515625 45.21875 5.515625 54.390625 
Q 5.515625 63.484375 10.046875 68.84375 
Q 14.59375 74.21875 22.3125 74.21875 
z
" id="DejaVuSans-37"/>
      <path d="M 9.8125 72.90625 
L 19.671875 72.90625 
L 19.671875 0 
L 9.8125 0 
z
" id="DejaVuSans-73"/>
     </defs>
     <g transform="translate(392.659375 77.078438)scale(0.1 -0.1)">
      <use xlink:href="#DejaVuSans-114"/>
      <use x="38.863281" xlink:href="#DejaVuSans-111"/>
      <use x="100.044922" xlink:href="#DejaVuSans-111"/>
      <use x="161.226562" xlink:href="#DejaVuSans-116"/>
      <use x="200.435547" xlink:href="#DejaVuSans-45"/>
      <use x="236.519531" xlink:href="#DejaVuSans-99"/>
      <use x="291.5" xlink:href="#DejaVuSans-118"/>
      <use x="350.679688" xlink:href="#DejaVuSans-115"/>
      <use x="402.779297" xlink:href="#DejaVuSans-105"/>
      <use x="430.5625" xlink:href="#DejaVuSans-102"/>
      <use x="464.017578" xlink:href="#DejaVuSans-116"/>
      <use x="503.226562" xlink:href="#DejaVuSans-32"/>
      <use x="535.013672" xlink:href="#DejaVuSans-65"/>
      <use x="603.421875" xlink:href="#DejaVuSans-80"/>
      <use x="663.724609" xlink:href="#DejaVuSans-58"/>
      <use x="697.416016" xlink:href="#DejaVuSans-32"/>
      <use x="729.203125" xlink:href="#DejaVuSans-56"/>
      <use x="792.826172" xlink:href="#DejaVuSans-53"/>
      <use x="856.449219" xlink:href="#DejaVuSans-46"/>
      <use x="888.236328" xlink:href="#DejaVuSans-57"/>
      <use x="951.859375" xlink:href="#DejaVuSans-44"/>
      <use x="983.646484" xlink:href="#DejaVuSans-32"/>
      <use x="1015.433594" xlink:href="#DejaVuSans-37"/>
      <use x="1110.453125" xlink:href="#DejaVuSans-73"/>
      <use x="1139.945312" xlink:href="#DejaVuSans-110"/>
      <use x="1203.324219" xlink:href="#DejaVuSans-58"/>
      <use x="1237.015625" xlink:href="#DejaVuSans-32"/>
      <use x="1268.802734" xlink:href="#DejaVuSans-52"/>
      <use x="1332.425781" xlink:href="#DejaVuSans-55"/>
      <use x="1396.048828" xlink:href="#DejaVuSans-46"/>
      <use x="1427.835938" xlink:href="#DejaVuSans-55"/>
     </g>
    </g>
    <g id="line2d_50">
     <path d="M 364.659375 88.256563 
L 384.659375 88.256563 
" style="fill:none;stroke:#ff7f0e;stroke-linecap:square;stroke-width:2;"/>
    </g>
    <g id="line2d_51"/>
    <g id="text_27">
     <!-- tfeat AP: 77.7, %In: 45.6 -->
     <g transform="translate(392.659375 91.756563)scale(0.1 -0.1)">
      <use xlink:href="#DejaVuSans-116"/>
      <use x="39.208984" xlink:href="#DejaVuSans-102"/>
      <use x="74.414062" xlink:href="#DejaVuSans-101"/>
      <use x="135.9375" xlink:href="#DejaVuSans-97"/>
      <use x="197.216797" xlink:href="#DejaVuSans-116"/>
      <use x="236.425781" xlink:href="#DejaVuSans-32"/>
      <use x="268.212891" xlink:href="#DejaVuSans-65"/>
      <use x="336.621094" xlink:href="#DejaVuSans-80"/>
      <use x="396.923828" xlink:href="#DejaVuSans-58"/>
      <use x="430.615234" xlink:href="#DejaVuSans-32"/>
      <use x="462.402344" xlink:href="#DejaVuSans-55"/>
      <use x="526.025391" xlink:href="#DejaVuSans-55"/>
      <use x="589.648438" xlink:href="#DejaVuSans-46"/>
      <use x="621.435547" xlink:href="#DejaVuSans-55"/>
      <use x="685.058594" xlink:href="#DejaVuSans-44"/>
      <use x="716.845703" xlink:href="#DejaVuSans-32"/>
      <use x="748.632812" xlink:href="#DejaVuSans-37"/>
      <use x="843.652344" xlink:href="#DejaVuSans-73"/>
      <use x="873.144531" xlink:href="#DejaVuSans-110"/>
      <use x="936.523438" xlink:href="#DejaVuSans-58"/>
      <use x="970.214844" xlink:href="#DejaVuSans-32"/>
      <use x="1002.001953" xlink:href="#DejaVuSans-52"/>
      <use x="1065.625" xlink:href="#DejaVuSans-53"/>
      <use x="1129.248047" xlink:href="#DejaVuSans-46"/>
      <use x="1161.035156" xlink:href="#DejaVuSans-54"/>
     </g>
    </g>
    <g id="line2d_52">
     <path d="M 364.659375 102.934687 
L 384.659375 102.934687 
" style="fill:none;stroke:#2ca02c;stroke-linecap:square;stroke-width:2;"/>
    </g>
    <g id="line2d_53"/>
    <g id="text_28">
     <!-- hardnet AP: 90.6, %In: 49.6 -->
     <defs>
      <path d="M 45.40625 46.390625 
L 45.40625 75.984375 
L 54.390625 75.984375 
L 54.390625 0 
L 45.40625 0 
L 45.40625 8.203125 
Q 42.578125 3.328125 38.25 0.953125 
Q 33.9375 -1.421875 27.875 -1.421875 
Q 17.96875 -1.421875 11.734375 6.484375 
Q 5.515625 14.40625 5.515625 27.296875 
Q 5.515625 40.1875 11.734375 48.09375 
Q 17.96875 56 27.875 56 
Q 33.9375 56 38.25 53.625 
Q 42.578125 51.265625 45.40625 46.390625 
z
M 14.796875 27.296875 
Q 14.796875 17.390625 18.875 11.75 
Q 22.953125 6.109375 30.078125 6.109375 
Q 37.203125 6.109375 41.296875 11.75 
Q 45.40625 17.390625 45.40625 27.296875 
Q 45.40625 37.203125 41.296875 42.84375 
Q 37.203125 48.484375 30.078125 48.484375 
Q 22.953125 48.484375 18.875 42.84375 
Q 14.796875 37.203125 14.796875 27.296875 
z
" id="DejaVuSans-100"/>
     </defs>
     <g transform="translate(392.659375 106.434687)scale(0.1 -0.1)">
      <use xlink:href="#DejaVuSans-104"/>
      <use x="63.378906" xlink:href="#DejaVuSans-97"/>
      <use x="124.658203" xlink:href="#DejaVuSans-114"/>
      <use x="164.021484" xlink:href="#DejaVuSans-100"/>
      <use x="227.498047" xlink:href="#DejaVuSans-110"/>
      <use x="290.876953" xlink:href="#DejaVuSans-101"/>
      <use x="352.400391" xlink:href="#DejaVuSans-116"/>
      <use x="391.609375" xlink:href="#DejaVuSans-32"/>
      <use x="423.396484" xlink:href="#DejaVuSans-65"/>
      <use x="491.804688" xlink:href="#DejaVuSans-80"/>
      <use x="552.107422" xlink:href="#DejaVuSans-58"/>
      <use x="585.798828" xlink:href="#DejaVuSans-32"/>
      <use x="617.585938" xlink:href="#DejaVuSans-57"/>
      <use x="681.208984" xlink:href="#DejaVuSans-48"/>
      <use x="744.832031" xlink:href="#DejaVuSans-46"/>
      <use x="776.619141" xlink:href="#DejaVuSans-54"/>
      <use x="840.242188" xlink:href="#DejaVuSans-44"/>
      <use x="872.029297" xlink:href="#DejaVuSans-32"/>
      <use x="903.816406" xlink:href="#DejaVuSans-37"/>
      <use x="998.835938" xlink:href="#DejaVuSans-73"/>
      <use x="1028.328125" xlink:href="#DejaVuSans-110"/>
      <use x="1091.707031" xlink:href="#DejaVuSans-58"/>
      <use x="1125.398438" xlink:href="#DejaVuSans-32"/>
      <use x="1157.185547" xlink:href="#DejaVuSans-52"/>
      <use x="1220.808594" xlink:href="#DejaVuSans-57"/>
      <use x="1284.431641" xlink:href="#DejaVuSans-46"/>
      <use x="1316.21875" xlink:href="#DejaVuSans-54"/>
     </g>
    </g>
   </g>
  </g>
 </g>
 <defs>
  <clipPath id="pf53cdc36d0">
   <rect height="388.08" width="474.3" x="76.5" y="60.48"/>
  </clipPath>
 </defs>
</svg>
