<?xml version="1.0" encoding="utf-8" standalone="no"?>
<!DOCTYPE svg PUBLIC "-//W3C//DTD SVG 1.1//EN"
  "http://www.w3.org/Graphics/SVG/1.1/DTD/svg11.dtd">
<!-- Created with matplotlib (https://matplotlib.org/) -->
<svg height="504pt" version="1.1" viewBox="0 0 612 504" width="612pt" xmlns="http://www.w3.org/2000/svg" xmlns:xlink="http://www.w3.org/1999/xlink">
 <defs>
  <style type="text/css">
*{stroke-linecap:butt;stroke-linejoin:round;}
  </style>
 </defs>
 <g id="figure_1">
  <g id="patch_1">
   <path d="M 0 504 
L 612 504 
L 612 0 
L 0 0 
z
" style="fill:#ffffff;"/>
  </g>
  <g id="axes_1">
   <g id="patch_2">
    <path d="M 76.5 448.56 
L 550.8 448.56 
L 550.8 60.48 
L 76.5 60.48 
z
" style="fill:#ffffff;"/>
   </g>
   <g id="matplotlib.axis_1">
    <g id="xtick_1">
     <g id="line2d_1">
      <path clip-path="url(#p1edce03858)" d="M 76.5 448.56 
L 76.5 60.48 
" style="fill:none;stroke:#b0b0b0;stroke-linecap:square;stroke-width:0.8;"/>
     </g>
     <g id="line2d_2">
      <defs>
       <path d="M 0 0 
L 0 3.5 
" id="m7219b443a3" style="stroke:#000000;stroke-width:0.8;"/>
      </defs>
      <g>
       <use style="stroke:#000000;stroke-width:0.8;" x="76.5" xlink:href="#m7219b443a3" y="448.56"/>
      </g>
     </g>
     <g id="text_1">
      <!-- 0.0 -->
      <defs>
       <path d="M 31.78125 66.40625 
Q 24.171875 66.40625 20.328125 58.90625 
Q 16.5 51.421875 16.5 36.375 
Q 16.5 21.390625 20.328125 13.890625 
Q 24.171875 6.390625 31.78125 6.390625 
Q 39.453125 6.390625 43.28125 13.890625 
Q 47.125 21.390625 47.125 36.375 
Q 47.125 51.421875 43.28125 58.90625 
Q 39.453125 66.40625 31.78125 66.40625 
z
M 31.78125 74.21875 
Q 44.046875 74.21875 50.515625 64.515625 
Q 56.984375 54.828125 56.984375 36.375 
Q 56.984375 17.96875 50.515625 8.265625 
Q 44.046875 -1.421875 31.78125 -1.421875 
Q 19.53125 -1.421875 13.0625 8.265625 
Q 6.59375 17.96875 6.59375 36.375 
Q 6.59375 54.828125 13.0625 64.515625 
Q 19.53125 74.21875 31.78125 74.21875 
z
" id="DejaVuSans-48"/>
       <path d="M 10.6875 12.40625 
L 21 12.40625 
L 21 0 
L 10.6875 0 
z
" id="DejaVuSans-46"/>
      </defs>
      <g transform="translate(68.548438 463.158437)scale(0.1 -0.1)">
       <use xlink:href="#DejaVuSans-48"/>
       <use x="63.623047" xlink:href="#DejaVuSans-46"/>
       <use x="95.410156" xlink:href="#DejaVuSans-48"/>
      </g>
     </g>
    </g>
    <g id="xtick_2">
     <g id="line2d_3">
      <path clip-path="url(#p1edce03858)" d="M 123.93 448.56 
L 123.93 60.48 
" style="fill:none;stroke:#b0b0b0;stroke-linecap:square;stroke-width:0.8;"/>
     </g>
     <g id="line2d_4">
      <g>
       <use style="stroke:#000000;stroke-width:0.8;" x="123.93" xlink:href="#m7219b443a3" y="448.56"/>
      </g>
     </g>
     <g id="text_2">
      <!-- 0.1 -->
      <defs>
       <path d="M 12.40625 8.296875 
L 28.515625 8.296875 
L 28.515625 63.921875 
L 10.984375 60.40625 
L 10.984375 69.390625 
L 28.421875 72.90625 
L 38.28125 72.90625 
L 38.28125 8.296875 
L 54.390625 8.296875 
L 54.390625 0 
L 12.40625 0 
z
" id="DejaVuSans-49"/>
      </defs>
      <g transform="translate(115.978438 463.158437)scale(0.1 -0.1)">
       <use xlink:href="#DejaVuSans-48"/>
       <use x="63.623047" xlink:href="#DejaVuSans-46"/>
       <use x="95.410156" xlink:href="#DejaVuSans-49"/>
      </g>
     </g>
    </g>
    <g id="xtick_3">
     <g id="line2d_5">
      <path clip-path="url(#p1edce03858)" d="M 171.36 448.56 
L 171.36 60.48 
" style="fill:none;stroke:#b0b0b0;stroke-linecap:square;stroke-width:0.8;"/>
     </g>
     <g id="line2d_6">
      <g>
       <use style="stroke:#000000;stroke-width:0.8;" x="171.36" xlink:href="#m7219b443a3" y="448.56"/>
      </g>
     </g>
     <g id="text_3">
      <!-- 0.2 -->
      <defs>
       <path d="M 19.1875 8.296875 
L 53.609375 8.296875 
L 53.609375 0 
L 7.328125 0 
L 7.328125 8.296875 
Q 12.9375 14.109375 22.625 23.890625 
Q 32.328125 33.6875 34.8125 36.53125 
Q 39.546875 41.84375 41.421875 45.53125 
Q 43.3125 49.21875 43.3125 52.78125 
Q 43.3125 58.59375 39.234375 62.25 
Q 35.15625 65.921875 28.609375 65.921875 
Q 23.96875 65.921875 18.8125 64.3125 
Q 13.671875 62.703125 7.8125 59.421875 
L 7.8125 69.390625 
Q 13.765625 71.78125 18.9375 73 
Q 24.125 74.21875 28.421875 74.21875 
Q 39.75 74.21875 46.484375 68.546875 
Q 53.21875 62.890625 53.21875 53.421875 
Q 53.21875 48.921875 51.53125 44.890625 
Q 49.859375 40.875 45.40625 35.40625 
Q 44.1875 33.984375 37.640625 27.21875 
Q 31.109375 20.453125 19.1875 8.296875 
z
" id="DejaVuSans-50"/>
      </defs>
      <g transform="translate(163.408438 463.158437)scale(0.1 -0.1)">
       <use xlink:href="#DejaVuSans-48"/>
       <use x="63.623047" xlink:href="#DejaVuSans-46"/>
       <use x="95.410156" xlink:href="#DejaVuSans-50"/>
      </g>
     </g>
    </g>
    <g id="xtick_4">
     <g id="line2d_7">
      <path clip-path="url(#p1edce03858)" d="M 218.79 448.56 
L 218.79 60.48 
" style="fill:none;stroke:#b0b0b0;stroke-linecap:square;stroke-width:0.8;"/>
     </g>
     <g id="line2d_8">
      <g>
       <use style="stroke:#000000;stroke-width:0.8;" x="218.79" xlink:href="#m7219b443a3" y="448.56"/>
      </g>
     </g>
     <g id="text_4">
      <!-- 0.3 -->
      <defs>
       <path d="M 40.578125 39.3125 
Q 47.65625 37.796875 51.625 33 
Q 55.609375 28.21875 55.609375 21.1875 
Q 55.609375 10.40625 48.1875 4.484375 
Q 40.765625 -1.421875 27.09375 -1.421875 
Q 22.515625 -1.421875 17.65625 -0.515625 
Q 12.796875 0.390625 7.625 2.203125 
L 7.625 11.71875 
Q 11.71875 9.328125 16.59375 8.109375 
Q 21.484375 6.890625 26.8125 6.890625 
Q 36.078125 6.890625 40.9375 10.546875 
Q 45.796875 14.203125 45.796875 21.1875 
Q 45.796875 27.640625 41.28125 31.265625 
Q 36.765625 34.90625 28.71875 34.90625 
L 20.21875 34.90625 
L 20.21875 43.015625 
L 29.109375 43.015625 
Q 36.375 43.015625 40.234375 45.921875 
Q 44.09375 48.828125 44.09375 54.296875 
Q 44.09375 59.90625 40.109375 62.90625 
Q 36.140625 65.921875 28.71875 65.921875 
Q 24.65625 65.921875 20.015625 65.03125 
Q 15.375 64.15625 9.8125 62.3125 
L 9.8125 71.09375 
Q 15.4375 72.65625 20.34375 73.4375 
Q 25.25 74.21875 29.59375 74.21875 
Q 40.828125 74.21875 47.359375 69.109375 
Q 53.90625 64.015625 53.90625 55.328125 
Q 53.90625 49.265625 50.4375 45.09375 
Q 46.96875 40.921875 40.578125 39.3125 
z
" id="DejaVuSans-51"/>
      </defs>
      <g transform="translate(210.838438 463.158437)scale(0.1 -0.1)">
       <use xlink:href="#DejaVuSans-48"/>
       <use x="63.623047" xlink:href="#DejaVuSans-46"/>
       <use x="95.410156" xlink:href="#DejaVuSans-51"/>
      </g>
     </g>
    </g>
    <g id="xtick_5">
     <g id="line2d_9">
      <path clip-path="url(#p1edce03858)" d="M 266.22 448.56 
L 266.22 60.48 
" style="fill:none;stroke:#b0b0b0;stroke-linecap:square;stroke-width:0.8;"/>
     </g>
     <g id="line2d_10">
      <g>
       <use style="stroke:#000000;stroke-width:0.8;" x="266.22" xlink:href="#m7219b443a3" y="448.56"/>
      </g>
     </g>
     <g id="text_5">
      <!-- 0.4 -->
      <defs>
       <path d="M 37.796875 64.3125 
L 12.890625 25.390625 
L 37.796875 25.390625 
z
M 35.203125 72.90625 
L 47.609375 72.90625 
L 47.609375 25.390625 
L 58.015625 25.390625 
L 58.015625 17.1875 
L 47.609375 17.1875 
L 47.609375 0 
L 37.796875 0 
L 37.796875 17.1875 
L 4.890625 17.1875 
L 4.890625 26.703125 
z
" id="DejaVuSans-52"/>
      </defs>
      <g transform="translate(258.268438 463.158437)scale(0.1 -0.1)">
       <use xlink:href="#DejaVuSans-48"/>
       <use x="63.623047" xlink:href="#DejaVuSans-46"/>
       <use x="95.410156" xlink:href="#DejaVuSans-52"/>
      </g>
     </g>
    </g>
    <g id="xtick_6">
     <g id="line2d_11">
      <path clip-path="url(#p1edce03858)" d="M 313.65 448.56 
L 313.65 60.48 
" style="fill:none;stroke:#b0b0b0;stroke-linecap:square;stroke-width:0.8;"/>
     </g>
     <g id="line2d_12">
      <g>
       <use style="stroke:#000000;stroke-width:0.8;" x="313.65" xlink:href="#m7219b443a3" y="448.56"/>
      </g>
     </g>
     <g id="text_6">
      <!-- 0.5 -->
      <defs>
       <path d="M 10.796875 72.90625 
L 49.515625 72.90625 
L 49.515625 64.59375 
L 19.828125 64.59375 
L 19.828125 46.734375 
Q 21.96875 47.46875 24.109375 47.828125 
Q 26.265625 48.1875 28.421875 48.1875 
Q 40.625 48.1875 47.75 41.5 
Q 54.890625 34.8125 54.890625 23.390625 
Q 54.890625 11.625 47.5625 5.09375 
Q 40.234375 -1.421875 26.90625 -1.421875 
Q 22.3125 -1.421875 17.546875 -0.640625 
Q 12.796875 0.140625 7.71875 1.703125 
L 7.71875 11.625 
Q 12.109375 9.234375 16.796875 8.0625 
Q 21.484375 6.890625 26.703125 6.890625 
Q 35.15625 6.890625 40.078125 11.328125 
Q 45.015625 15.765625 45.015625 23.390625 
Q 45.015625 31 40.078125 35.4375 
Q 35.15625 39.890625 26.703125 39.890625 
Q 22.75 39.890625 18.8125 39.015625 
Q 14.890625 38.140625 10.796875 36.28125 
z
" id="DejaVuSans-53"/>
      </defs>
      <g transform="translate(305.698438 463.158437)scale(0.1 -0.1)">
       <use xlink:href="#DejaVuSans-48"/>
       <use x="63.623047" xlink:href="#DejaVuSans-46"/>
       <use x="95.410156" xlink:href="#DejaVuSans-53"/>
      </g>
     </g>
    </g>
    <g id="xtick_7">
     <g id="line2d_13">
      <path clip-path="url(#p1edce03858)" d="M 361.08 448.56 
L 361.08 60.48 
" style="fill:none;stroke:#b0b0b0;stroke-linecap:square;stroke-width:0.8;"/>
     </g>
     <g id="line2d_14">
      <g>
       <use style="stroke:#000000;stroke-width:0.8;" x="361.08" xlink:href="#m7219b443a3" y="448.56"/>
      </g>
     </g>
     <g id="text_7">
      <!-- 0.6 -->
      <defs>
       <path d="M 33.015625 40.375 
Q 26.375 40.375 22.484375 35.828125 
Q 18.609375 31.296875 18.609375 23.390625 
Q 18.609375 15.53125 22.484375 10.953125 
Q 26.375 6.390625 33.015625 6.390625 
Q 39.65625 6.390625 43.53125 10.953125 
Q 47.40625 15.53125 47.40625 23.390625 
Q 47.40625 31.296875 43.53125 35.828125 
Q 39.65625 40.375 33.015625 40.375 
z
M 52.59375 71.296875 
L 52.59375 62.3125 
Q 48.875 64.0625 45.09375 64.984375 
Q 41.3125 65.921875 37.59375 65.921875 
Q 27.828125 65.921875 22.671875 59.328125 
Q 17.53125 52.734375 16.796875 39.40625 
Q 19.671875 43.65625 24.015625 45.921875 
Q 28.375 48.1875 33.59375 48.1875 
Q 44.578125 48.1875 50.953125 41.515625 
Q 57.328125 34.859375 57.328125 23.390625 
Q 57.328125 12.15625 50.6875 5.359375 
Q 44.046875 -1.421875 33.015625 -1.421875 
Q 20.359375 -1.421875 13.671875 8.265625 
Q 6.984375 17.96875 6.984375 36.375 
Q 6.984375 53.65625 15.1875 63.9375 
Q 23.390625 74.21875 37.203125 74.21875 
Q 40.921875 74.21875 44.703125 73.484375 
Q 48.484375 72.75 52.59375 71.296875 
z
" id="DejaVuSans-54"/>
      </defs>
      <g transform="translate(353.128438 463.158437)scale(0.1 -0.1)">
       <use xlink:href="#DejaVuSans-48"/>
       <use x="63.623047" xlink:href="#DejaVuSans-46"/>
       <use x="95.410156" xlink:href="#DejaVuSans-54"/>
      </g>
     </g>
    </g>
    <g id="xtick_8">
     <g id="line2d_15">
      <path clip-path="url(#p1edce03858)" d="M 408.51 448.56 
L 408.51 60.48 
" style="fill:none;stroke:#b0b0b0;stroke-linecap:square;stroke-width:0.8;"/>
     </g>
     <g id="line2d_16">
      <g>
       <use style="stroke:#000000;stroke-width:0.8;" x="408.51" xlink:href="#m7219b443a3" y="448.56"/>
      </g>
     </g>
     <g id="text_8">
      <!-- 0.7 -->
      <defs>
       <path d="M 8.203125 72.90625 
L 55.078125 72.90625 
L 55.078125 68.703125 
L 28.609375 0 
L 18.3125 0 
L 43.21875 64.59375 
L 8.203125 64.59375 
z
" id="DejaVuSans-55"/>
      </defs>
      <g transform="translate(400.558438 463.158437)scale(0.1 -0.1)">
       <use xlink:href="#DejaVuSans-48"/>
       <use x="63.623047" xlink:href="#DejaVuSans-46"/>
       <use x="95.410156" xlink:href="#DejaVuSans-55"/>
      </g>
     </g>
    </g>
    <g id="xtick_9">
     <g id="line2d_17">
      <path clip-path="url(#p1edce03858)" d="M 455.94 448.56 
L 455.94 60.48 
" style="fill:none;stroke:#b0b0b0;stroke-linecap:square;stroke-width:0.8;"/>
     </g>
     <g id="line2d_18">
      <g>
       <use style="stroke:#000000;stroke-width:0.8;" x="455.94" xlink:href="#m7219b443a3" y="448.56"/>
      </g>
     </g>
     <g id="text_9">
      <!-- 0.8 -->
      <defs>
       <path d="M 31.78125 34.625 
Q 24.75 34.625 20.71875 30.859375 
Q 16.703125 27.09375 16.703125 20.515625 
Q 16.703125 13.921875 20.71875 10.15625 
Q 24.75 6.390625 31.78125 6.390625 
Q 38.8125 6.390625 42.859375 10.171875 
Q 46.921875 13.96875 46.921875 20.515625 
Q 46.921875 27.09375 42.890625 30.859375 
Q 38.875 34.625 31.78125 34.625 
z
M 21.921875 38.8125 
Q 15.578125 40.375 12.03125 44.71875 
Q 8.5 49.078125 8.5 55.328125 
Q 8.5 64.0625 14.71875 69.140625 
Q 20.953125 74.21875 31.78125 74.21875 
Q 42.671875 74.21875 48.875 69.140625 
Q 55.078125 64.0625 55.078125 55.328125 
Q 55.078125 49.078125 51.53125 44.71875 
Q 48 40.375 41.703125 38.8125 
Q 48.828125 37.15625 52.796875 32.3125 
Q 56.78125 27.484375 56.78125 20.515625 
Q 56.78125 9.90625 50.3125 4.234375 
Q 43.84375 -1.421875 31.78125 -1.421875 
Q 19.734375 -1.421875 13.25 4.234375 
Q 6.78125 9.90625 6.78125 20.515625 
Q 6.78125 27.484375 10.78125 32.3125 
Q 14.796875 37.15625 21.921875 38.8125 
z
M 18.3125 54.390625 
Q 18.3125 48.734375 21.84375 45.5625 
Q 25.390625 42.390625 31.78125 42.390625 
Q 38.140625 42.390625 41.71875 45.5625 
Q 45.3125 48.734375 45.3125 54.390625 
Q 45.3125 60.0625 41.71875 63.234375 
Q 38.140625 66.40625 31.78125 66.40625 
Q 25.390625 66.40625 21.84375 63.234375 
Q 18.3125 60.0625 18.3125 54.390625 
z
" id="DejaVuSans-56"/>
      </defs>
      <g transform="translate(447.988438 463.158437)scale(0.1 -0.1)">
       <use xlink:href="#DejaVuSans-48"/>
       <use x="63.623047" xlink:href="#DejaVuSans-46"/>
       <use x="95.410156" xlink:href="#DejaVuSans-56"/>
      </g>
     </g>
    </g>
    <g id="xtick_10">
     <g id="line2d_19">
      <path clip-path="url(#p1edce03858)" d="M 503.37 448.56 
L 503.37 60.48 
" style="fill:none;stroke:#b0b0b0;stroke-linecap:square;stroke-width:0.8;"/>
     </g>
     <g id="line2d_20">
      <g>
       <use style="stroke:#000000;stroke-width:0.8;" x="503.37" xlink:href="#m7219b443a3" y="448.56"/>
      </g>
     </g>
     <g id="text_10">
      <!-- 0.9 -->
      <defs>
       <path d="M 10.984375 1.515625 
L 10.984375 10.5 
Q 14.703125 8.734375 18.5 7.8125 
Q 22.3125 6.890625 25.984375 6.890625 
Q 35.75 6.890625 40.890625 13.453125 
Q 46.046875 20.015625 46.78125 33.40625 
Q 43.953125 29.203125 39.59375 26.953125 
Q 35.25 24.703125 29.984375 24.703125 
Q 19.046875 24.703125 12.671875 31.3125 
Q 6.296875 37.9375 6.296875 49.421875 
Q 6.296875 60.640625 12.9375 67.421875 
Q 19.578125 74.21875 30.609375 74.21875 
Q 43.265625 74.21875 49.921875 64.515625 
Q 56.59375 54.828125 56.59375 36.375 
Q 56.59375 19.140625 48.40625 8.859375 
Q 40.234375 -1.421875 26.421875 -1.421875 
Q 22.703125 -1.421875 18.890625 -0.6875 
Q 15.09375 0.046875 10.984375 1.515625 
z
M 30.609375 32.421875 
Q 37.25 32.421875 41.125 36.953125 
Q 45.015625 41.5 45.015625 49.421875 
Q 45.015625 57.28125 41.125 61.84375 
Q 37.25 66.40625 30.609375 66.40625 
Q 23.96875 66.40625 20.09375 61.84375 
Q 16.21875 57.28125 16.21875 49.421875 
Q 16.21875 41.5 20.09375 36.953125 
Q 23.96875 32.421875 30.609375 32.421875 
z
" id="DejaVuSans-57"/>
      </defs>
      <g transform="translate(495.418438 463.158437)scale(0.1 -0.1)">
       <use xlink:href="#DejaVuSans-48"/>
       <use x="63.623047" xlink:href="#DejaVuSans-46"/>
       <use x="95.410156" xlink:href="#DejaVuSans-57"/>
      </g>
     </g>
    </g>
    <g id="xtick_11">
     <g id="line2d_21">
      <path clip-path="url(#p1edce03858)" d="M 550.8 448.56 
L 550.8 60.48 
" style="fill:none;stroke:#b0b0b0;stroke-linecap:square;stroke-width:0.8;"/>
     </g>
     <g id="line2d_22">
      <g>
       <use style="stroke:#000000;stroke-width:0.8;" x="550.8" xlink:href="#m7219b443a3" y="448.56"/>
      </g>
     </g>
     <g id="text_11">
      <!-- 1.0 -->
      <g transform="translate(542.848438 463.158437)scale(0.1 -0.1)">
       <use xlink:href="#DejaVuSans-49"/>
       <use x="63.623047" xlink:href="#DejaVuSans-46"/>
       <use x="95.410156" xlink:href="#DejaVuSans-48"/>
      </g>
     </g>
    </g>
    <g id="text_12">
     <!-- 1-precision -->
     <defs>
      <path d="M 4.890625 31.390625 
L 31.203125 31.390625 
L 31.203125 23.390625 
L 4.890625 23.390625 
z
" id="DejaVuSans-45"/>
      <path d="M 18.109375 8.203125 
L 18.109375 -20.796875 
L 9.078125 -20.796875 
L 9.078125 54.6875 
L 18.109375 54.6875 
L 18.109375 46.390625 
Q 20.953125 51.265625 25.265625 53.625 
Q 29.59375 56 35.59375 56 
Q 45.5625 56 51.78125 48.09375 
Q 58.015625 40.1875 58.015625 27.296875 
Q 58.015625 14.40625 51.78125 6.484375 
Q 45.5625 -1.421875 35.59375 -1.421875 
Q 29.59375 -1.421875 25.265625 0.953125 
Q 20.953125 3.328125 18.109375 8.203125 
z
M 48.6875 27.296875 
Q 48.6875 37.203125 44.609375 42.84375 
Q 40.53125 48.484375 33.40625 48.484375 
Q 26.265625 48.484375 22.1875 42.84375 
Q 18.109375 37.203125 18.109375 27.296875 
Q 18.109375 17.390625 22.1875 11.75 
Q 26.265625 6.109375 33.40625 6.109375 
Q 40.53125 6.109375 44.609375 11.75 
Q 48.6875 17.390625 48.6875 27.296875 
z
" id="DejaVuSans-112"/>
      <path d="M 41.109375 46.296875 
Q 39.59375 47.171875 37.8125 47.578125 
Q 36.03125 48 33.890625 48 
Q 26.265625 48 22.1875 43.046875 
Q 18.109375 38.09375 18.109375 28.8125 
L 18.109375 0 
L 9.078125 0 
L 9.078125 54.6875 
L 18.109375 54.6875 
L 18.109375 46.1875 
Q 20.953125 51.171875 25.484375 53.578125 
Q 30.03125 56 36.53125 56 
Q 37.453125 56 38.578125 55.875 
Q 39.703125 55.765625 41.0625 55.515625 
z
" id="DejaVuSans-114"/>
      <path d="M 56.203125 29.59375 
L 56.203125 25.203125 
L 14.890625 25.203125 
Q 15.484375 15.921875 20.484375 11.0625 
Q 25.484375 6.203125 34.421875 6.203125 
Q 39.59375 6.203125 44.453125 7.46875 
Q 49.3125 8.734375 54.109375 11.28125 
L 54.109375 2.78125 
Q 49.265625 0.734375 44.1875 -0.34375 
Q 39.109375 -1.421875 33.890625 -1.421875 
Q 20.796875 -1.421875 13.15625 6.1875 
Q 5.515625 13.8125 5.515625 26.8125 
Q 5.515625 40.234375 12.765625 48.109375 
Q 20.015625 56 32.328125 56 
Q 43.359375 56 49.78125 48.890625 
Q 56.203125 41.796875 56.203125 29.59375 
z
M 47.21875 32.234375 
Q 47.125 39.59375 43.09375 43.984375 
Q 39.0625 48.390625 32.421875 48.390625 
Q 24.90625 48.390625 20.390625 44.140625 
Q 15.875 39.890625 15.1875 32.171875 
z
" id="DejaVuSans-101"/>
      <path d="M 48.78125 52.59375 
L 48.78125 44.1875 
Q 44.96875 46.296875 41.140625 47.34375 
Q 37.3125 48.390625 33.40625 48.390625 
Q 24.65625 48.390625 19.8125 42.84375 
Q 14.984375 37.3125 14.984375 27.296875 
Q 14.984375 17.28125 19.8125 11.734375 
Q 24.65625 6.203125 33.40625 6.203125 
Q 37.3125 6.203125 41.140625 7.25 
Q 44.96875 8.296875 48.78125 10.40625 
L 48.78125 2.09375 
Q 45.015625 0.34375 40.984375 -0.53125 
Q 36.96875 -1.421875 32.421875 -1.421875 
Q 20.0625 -1.421875 12.78125 6.34375 
Q 5.515625 14.109375 5.515625 27.296875 
Q 5.515625 40.671875 12.859375 48.328125 
Q 20.21875 56 33.015625 56 
Q 37.15625 56 41.109375 55.140625 
Q 45.0625 54.296875 48.78125 52.59375 
z
" id="DejaVuSans-99"/>
      <path d="M 9.421875 54.6875 
L 18.40625 54.6875 
L 18.40625 0 
L 9.421875 0 
z
M 9.421875 75.984375 
L 18.40625 75.984375 
L 18.40625 64.59375 
L 9.421875 64.59375 
z
" id="DejaVuSans-105"/>
      <path d="M 44.28125 53.078125 
L 44.28125 44.578125 
Q 40.484375 46.53125 36.375 47.5 
Q 32.28125 48.484375 27.875 48.484375 
Q 21.1875 48.484375 17.84375 46.4375 
Q 14.5 44.390625 14.5 40.28125 
Q 14.5 37.15625 16.890625 35.375 
Q 19.28125 33.59375 26.515625 31.984375 
L 29.59375 31.296875 
Q 39.15625 29.25 43.1875 25.515625 
Q 47.21875 21.78125 47.21875 15.09375 
Q 47.21875 7.46875 41.1875 3.015625 
Q 35.15625 -1.421875 24.609375 -1.421875 
Q 20.21875 -1.421875 15.453125 -0.5625 
Q 10.6875 0.296875 5.421875 2 
L 5.421875 11.28125 
Q 10.40625 8.6875 15.234375 7.390625 
Q 20.0625 6.109375 24.8125 6.109375 
Q 31.15625 6.109375 34.5625 8.28125 
Q 37.984375 10.453125 37.984375 14.40625 
Q 37.984375 18.0625 35.515625 20.015625 
Q 33.0625 21.96875 24.703125 23.78125 
L 21.578125 24.515625 
Q 13.234375 26.265625 9.515625 29.90625 
Q 5.8125 33.546875 5.8125 39.890625 
Q 5.8125 47.609375 11.28125 51.796875 
Q 16.75 56 26.8125 56 
Q 31.78125 56 36.171875 55.265625 
Q 40.578125 54.546875 44.28125 53.078125 
z
" id="DejaVuSans-115"/>
      <path d="M 30.609375 48.390625 
Q 23.390625 48.390625 19.1875 42.75 
Q 14.984375 37.109375 14.984375 27.296875 
Q 14.984375 17.484375 19.15625 11.84375 
Q 23.34375 6.203125 30.609375 6.203125 
Q 37.796875 6.203125 41.984375 11.859375 
Q 46.1875 17.53125 46.1875 27.296875 
Q 46.1875 37.015625 41.984375 42.703125 
Q 37.796875 48.390625 30.609375 48.390625 
z
M 30.609375 56 
Q 42.328125 56 49.015625 48.375 
Q 55.71875 40.765625 55.71875 27.296875 
Q 55.71875 13.875 49.015625 6.21875 
Q 42.328125 -1.421875 30.609375 -1.421875 
Q 18.84375 -1.421875 12.171875 6.21875 
Q 5.515625 13.875 5.515625 27.296875 
Q 5.515625 40.765625 12.171875 48.375 
Q 18.84375 56 30.609375 56 
z
" id="DejaVuSans-111"/>
      <path d="M 54.890625 33.015625 
L 54.890625 0 
L 45.90625 0 
L 45.90625 32.71875 
Q 45.90625 40.484375 42.875 44.328125 
Q 39.84375 48.1875 33.796875 48.1875 
Q 26.515625 48.1875 22.3125 43.546875 
Q 18.109375 38.921875 18.109375 30.90625 
L 18.109375 0 
L 9.078125 0 
L 9.078125 54.6875 
L 18.109375 54.6875 
L 18.109375 46.1875 
Q 21.34375 51.125 25.703125 53.5625 
Q 30.078125 56 35.796875 56 
Q 45.21875 56 50.046875 50.171875 
Q 54.890625 44.34375 54.890625 33.015625 
z
" id="DejaVuSans-110"/>
     </defs>
     <g transform="translate(286.110938 476.836563)scale(0.1 -0.1)">
      <use xlink:href="#DejaVuSans-49"/>
      <use x="63.623047" xlink:href="#DejaVuSans-45"/>
      <use x="99.707031" xlink:href="#DejaVuSans-112"/>
      <use x="163.183594" xlink:href="#DejaVuSans-114"/>
      <use x="202.046875" xlink:href="#DejaVuSans-101"/>
      <use x="263.570312" xlink:href="#DejaVuSans-99"/>
      <use x="318.550781" xlink:href="#DejaVuSans-105"/>
      <use x="346.333984" xlink:href="#DejaVuSans-115"/>
      <use x="398.433594" xlink:href="#DejaVuSans-105"/>
      <use x="426.216797" xlink:href="#DejaVuSans-111"/>
      <use x="487.398438" xlink:href="#DejaVuSans-110"/>
     </g>
    </g>
   </g>
   <g id="matplotlib.axis_2">
    <g id="ytick_1">
     <g id="line2d_23">
      <path clip-path="url(#p1edce03858)" d="M 76.5 448.56 
L 550.8 448.56 
" style="fill:none;stroke:#b0b0b0;stroke-linecap:square;stroke-width:0.8;"/>
     </g>
     <g id="line2d_24">
      <defs>
       <path d="M 0 0 
L -3.5 0 
" id="me1e018c0ef" style="stroke:#000000;stroke-width:0.8;"/>
      </defs>
      <g>
       <use style="stroke:#000000;stroke-width:0.8;" x="76.5" xlink:href="#me1e018c0ef" y="448.56"/>
      </g>
     </g>
     <g id="text_13">
      <!-- 0.0 -->
      <g transform="translate(53.596875 452.359219)scale(0.1 -0.1)">
       <use xlink:href="#DejaVuSans-48"/>
       <use x="63.623047" xlink:href="#DejaVuSans-46"/>
       <use x="95.410156" xlink:href="#DejaVuSans-48"/>
      </g>
     </g>
    </g>
    <g id="ytick_2">
     <g id="line2d_25">
      <path clip-path="url(#p1edce03858)" d="M 76.5 409.752 
L 550.8 409.752 
" style="fill:none;stroke:#b0b0b0;stroke-linecap:square;stroke-width:0.8;"/>
     </g>
     <g id="line2d_26">
      <g>
       <use style="stroke:#000000;stroke-width:0.8;" x="76.5" xlink:href="#me1e018c0ef" y="409.752"/>
      </g>
     </g>
     <g id="text_14">
      <!-- 0.1 -->
      <g transform="translate(53.596875 413.551219)scale(0.1 -0.1)">
       <use xlink:href="#DejaVuSans-48"/>
       <use x="63.623047" xlink:href="#DejaVuSans-46"/>
       <use x="95.410156" xlink:href="#DejaVuSans-49"/>
      </g>
     </g>
    </g>
    <g id="ytick_3">
     <g id="line2d_27">
      <path clip-path="url(#p1edce03858)" d="M 76.5 370.944 
L 550.8 370.944 
" style="fill:none;stroke:#b0b0b0;stroke-linecap:square;stroke-width:0.8;"/>
     </g>
     <g id="line2d_28">
      <g>
       <use style="stroke:#000000;stroke-width:0.8;" x="76.5" xlink:href="#me1e018c0ef" y="370.944"/>
      </g>
     </g>
     <g id="text_15">
      <!-- 0.2 -->
      <g transform="translate(53.596875 374.743219)scale(0.1 -0.1)">
       <use xlink:href="#DejaVuSans-48"/>
       <use x="63.623047" xlink:href="#DejaVuSans-46"/>
       <use x="95.410156" xlink:href="#DejaVuSans-50"/>
      </g>
     </g>
    </g>
    <g id="ytick_4">
     <g id="line2d_29">
      <path clip-path="url(#p1edce03858)" d="M 76.5 332.136 
L 550.8 332.136 
" style="fill:none;stroke:#b0b0b0;stroke-linecap:square;stroke-width:0.8;"/>
     </g>
     <g id="line2d_30">
      <g>
       <use style="stroke:#000000;stroke-width:0.8;" x="76.5" xlink:href="#me1e018c0ef" y="332.136"/>
      </g>
     </g>
     <g id="text_16">
      <!-- 0.3 -->
      <g transform="translate(53.596875 335.935219)scale(0.1 -0.1)">
       <use xlink:href="#DejaVuSans-48"/>
       <use x="63.623047" xlink:href="#DejaVuSans-46"/>
       <use x="95.410156" xlink:href="#DejaVuSans-51"/>
      </g>
     </g>
    </g>
    <g id="ytick_5">
     <g id="line2d_31">
      <path clip-path="url(#p1edce03858)" d="M 76.5 293.328 
L 550.8 293.328 
" style="fill:none;stroke:#b0b0b0;stroke-linecap:square;stroke-width:0.8;"/>
     </g>
     <g id="line2d_32">
      <g>
       <use style="stroke:#000000;stroke-width:0.8;" x="76.5" xlink:href="#me1e018c0ef" y="293.328"/>
      </g>
     </g>
     <g id="text_17">
      <!-- 0.4 -->
      <g transform="translate(53.596875 297.127219)scale(0.1 -0.1)">
       <use xlink:href="#DejaVuSans-48"/>
       <use x="63.623047" xlink:href="#DejaVuSans-46"/>
       <use x="95.410156" xlink:href="#DejaVuSans-52"/>
      </g>
     </g>
    </g>
    <g id="ytick_6">
     <g id="line2d_33">
      <path clip-path="url(#p1edce03858)" d="M 76.5 254.52 
L 550.8 254.52 
" style="fill:none;stroke:#b0b0b0;stroke-linecap:square;stroke-width:0.8;"/>
     </g>
     <g id="line2d_34">
      <g>
       <use style="stroke:#000000;stroke-width:0.8;" x="76.5" xlink:href="#me1e018c0ef" y="254.52"/>
      </g>
     </g>
     <g id="text_18">
      <!-- 0.5 -->
      <g transform="translate(53.596875 258.319219)scale(0.1 -0.1)">
       <use xlink:href="#DejaVuSans-48"/>
       <use x="63.623047" xlink:href="#DejaVuSans-46"/>
       <use x="95.410156" xlink:href="#DejaVuSans-53"/>
      </g>
     </g>
    </g>
    <g id="ytick_7">
     <g id="line2d_35">
      <path clip-path="url(#p1edce03858)" d="M 76.5 215.712 
L 550.8 215.712 
" style="fill:none;stroke:#b0b0b0;stroke-linecap:square;stroke-width:0.8;"/>
     </g>
     <g id="line2d_36">
      <g>
       <use style="stroke:#000000;stroke-width:0.8;" x="76.5" xlink:href="#me1e018c0ef" y="215.712"/>
      </g>
     </g>
     <g id="text_19">
      <!-- 0.6 -->
      <g transform="translate(53.596875 219.511219)scale(0.1 -0.1)">
       <use xlink:href="#DejaVuSans-48"/>
       <use x="63.623047" xlink:href="#DejaVuSans-46"/>
       <use x="95.410156" xlink:href="#DejaVuSans-54"/>
      </g>
     </g>
    </g>
    <g id="ytick_8">
     <g id="line2d_37">
      <path clip-path="url(#p1edce03858)" d="M 76.5 176.904 
L 550.8 176.904 
" style="fill:none;stroke:#b0b0b0;stroke-linecap:square;stroke-width:0.8;"/>
     </g>
     <g id="line2d_38">
      <g>
       <use style="stroke:#000000;stroke-width:0.8;" x="76.5" xlink:href="#me1e018c0ef" y="176.904"/>
      </g>
     </g>
     <g id="text_20">
      <!-- 0.7 -->
      <g transform="translate(53.596875 180.703219)scale(0.1 -0.1)">
       <use xlink:href="#DejaVuSans-48"/>
       <use x="63.623047" xlink:href="#DejaVuSans-46"/>
       <use x="95.410156" xlink:href="#DejaVuSans-55"/>
      </g>
     </g>
    </g>
    <g id="ytick_9">
     <g id="line2d_39">
      <path clip-path="url(#p1edce03858)" d="M 76.5 138.096 
L 550.8 138.096 
" style="fill:none;stroke:#b0b0b0;stroke-linecap:square;stroke-width:0.8;"/>
     </g>
     <g id="line2d_40">
      <g>
       <use style="stroke:#000000;stroke-width:0.8;" x="76.5" xlink:href="#me1e018c0ef" y="138.096"/>
      </g>
     </g>
     <g id="text_21">
      <!-- 0.8 -->
      <g transform="translate(53.596875 141.895219)scale(0.1 -0.1)">
       <use xlink:href="#DejaVuSans-48"/>
       <use x="63.623047" xlink:href="#DejaVuSans-46"/>
       <use x="95.410156" xlink:href="#DejaVuSans-56"/>
      </g>
     </g>
    </g>
    <g id="ytick_10">
     <g id="line2d_41">
      <path clip-path="url(#p1edce03858)" d="M 76.5 99.288 
L 550.8 99.288 
" style="fill:none;stroke:#b0b0b0;stroke-linecap:square;stroke-width:0.8;"/>
     </g>
     <g id="line2d_42">
      <g>
       <use style="stroke:#000000;stroke-width:0.8;" x="76.5" xlink:href="#me1e018c0ef" y="99.288"/>
      </g>
     </g>
     <g id="text_22">
      <!-- 0.9 -->
      <g transform="translate(53.596875 103.087219)scale(0.1 -0.1)">
       <use xlink:href="#DejaVuSans-48"/>
       <use x="63.623047" xlink:href="#DejaVuSans-46"/>
       <use x="95.410156" xlink:href="#DejaVuSans-57"/>
      </g>
     </g>
    </g>
    <g id="ytick_11">
     <g id="line2d_43">
      <path clip-path="url(#p1edce03858)" d="M 76.5 60.48 
L 550.8 60.48 
" style="fill:none;stroke:#b0b0b0;stroke-linecap:square;stroke-width:0.8;"/>
     </g>
     <g id="line2d_44">
      <g>
       <use style="stroke:#000000;stroke-width:0.8;" x="76.5" xlink:href="#me1e018c0ef" y="60.48"/>
      </g>
     </g>
     <g id="text_23">
      <!-- 1.0 -->
      <g transform="translate(53.596875 64.279219)scale(0.1 -0.1)">
       <use xlink:href="#DejaVuSans-49"/>
       <use x="63.623047" xlink:href="#DejaVuSans-46"/>
       <use x="95.410156" xlink:href="#DejaVuSans-48"/>
      </g>
     </g>
    </g>
    <g id="text_24">
     <!-- #correct/1659 -->
     <defs>
      <path d="M 51.125 44 
L 36.921875 44 
L 32.8125 27.6875 
L 47.125 27.6875 
z
M 43.796875 71.78125 
L 38.71875 51.515625 
L 52.984375 51.515625 
L 58.109375 71.78125 
L 65.921875 71.78125 
L 60.890625 51.515625 
L 76.125 51.515625 
L 76.125 44 
L 58.984375 44 
L 54.984375 27.6875 
L 70.515625 27.6875 
L 70.515625 20.21875 
L 53.078125 20.21875 
L 48 0 
L 40.1875 0 
L 45.21875 20.21875 
L 30.90625 20.21875 
L 25.875 0 
L 18.015625 0 
L 23.09375 20.21875 
L 7.71875 20.21875 
L 7.71875 27.6875 
L 24.90625 27.6875 
L 29 44 
L 13.28125 44 
L 13.28125 51.515625 
L 30.90625 51.515625 
L 35.890625 71.78125 
z
" id="DejaVuSans-35"/>
      <path d="M 18.3125 70.21875 
L 18.3125 54.6875 
L 36.8125 54.6875 
L 36.8125 47.703125 
L 18.3125 47.703125 
L 18.3125 18.015625 
Q 18.3125 11.328125 20.140625 9.421875 
Q 21.96875 7.515625 27.59375 7.515625 
L 36.8125 7.515625 
L 36.8125 0 
L 27.59375 0 
Q 17.1875 0 13.234375 3.875 
Q 9.28125 7.765625 9.28125 18.015625 
L 9.28125 47.703125 
L 2.6875 47.703125 
L 2.6875 54.6875 
L 9.28125 54.6875 
L 9.28125 70.21875 
z
" id="DejaVuSans-116"/>
      <path d="M 25.390625 72.90625 
L 33.6875 72.90625 
L 8.296875 -9.28125 
L 0 -9.28125 
z
" id="DejaVuSans-47"/>
     </defs>
     <g transform="translate(47.517187 290.624688)rotate(-90)scale(0.1 -0.1)">
      <use xlink:href="#DejaVuSans-35"/>
      <use x="83.789062" xlink:href="#DejaVuSans-99"/>
      <use x="138.769531" xlink:href="#DejaVuSans-111"/>
      <use x="199.951172" xlink:href="#DejaVuSans-114"/>
      <use x="239.314453" xlink:href="#DejaVuSans-114"/>
      <use x="278.177734" xlink:href="#DejaVuSans-101"/>
      <use x="339.701172" xlink:href="#DejaVuSans-99"/>
      <use x="394.681641" xlink:href="#DejaVuSans-116"/>
      <use x="433.890625" xlink:href="#DejaVuSans-47"/>
      <use x="467.582031" xlink:href="#DejaVuSans-49"/>
      <use x="531.205078" xlink:href="#DejaVuSans-54"/>
      <use x="594.828125" xlink:href="#DejaVuSans-53"/>
      <use x="658.451172" xlink:href="#DejaVuSans-57"/>
     </g>
    </g>
   </g>
   <g id="line2d_45">
    <path clip-path="url(#p1edce03858)" d="M 550.8 448.56 
L 313.65 448.326076 
L 234.6 448.092152 
L 361.08 448.092152 
L 313.65 447.858228 
L 408.51 447.858228 
L 378.327273 447.624304 
L 450.947368 447.624304 
L 432.225 447.39038 
L 437.871429 447.39038 
L 451.9875 447.39038 
L 427.833333 446.922532 
L 443.7 446.922532 
L 421.445455 446.454684 
L 425.25 446.454684 
L 444.0825 446.454684 
L 421.445455 445.752911 
L 439.2 445.752911 
L 432.225 445.518987 
L 434.462264 445.518987 
L 451.35 445.518987 
L 445.4 445.285063 
L 447.046875 445.285063 
L 455.94 445.285063 
L 445.4 444.817215 
L 446.843836 444.817215 
L 453.507692 444.817215 
L 448.735443 444.583291 
L 450.01125 444.583291 
L 464.1 444.583291 
L 459.976596 444.349367 
L 461.86875 444.349367 
L 466.271287 444.349367 
L 462.45 444.115443 
L 464.149038 444.115443 
L 468.875455 444.115443 
L 465.340541 443.881519 
L 466.853097 443.881519 
L 469.024138 443.881519 
L 463.114286 443.413671 
L 463.845 443.413671 
L 467.985714 443.413671 
L 463.236923 442.945823 
L 460.284733 442.711899 
L 461.645865 442.711899 
L 475.274522 442.711899 
L 472.750633 442.477975 
L 473.72625 442.477975 
L 478.26 442.477975 
L 475.910526 442.244051 
L 476.776301 442.244051 
L 478.038068 442.244051 
L 475.769492 442.010127 
L 476.607821 442.010127 
L 480.159574 442.010127 
L 478.02381 441.776203 
L 478.785864 441.776203 
L 480.979188 441.776203 
L 478.936364 441.542278 
L 479.655 441.542278 
L 489.73133 441.542278 
L 487.965385 441.308354 
L 488.760759 441.308354 
L 490.292593 441.308354 
L 488.596721 441.07443 
L 489.352227 441.07443 
L 489.845783 441.07443 
L 487.060079 440.606582 
L 487.311024 440.606582 
L 488.53668 440.606582 
L 486.951923 440.372658 
L 487.680228 440.372658 
L 489.76875 440.372658 
L 488.254945 440.138734 
L 488.934783 440.138734 
L 489.158123 440.138734 
L 486.2 439.670886 
L 486.887234 439.670886 
L 492.66 439.670886 
L 491.321865 439.436962 
L 491.890127 439.436962 
L 492.077143 439.436962 
L 490.762025 439.203038 
L 491.326646 439.203038 
L 493.309091 439.203038 
L 492.049849 438.969114 
L 492.577545 438.969114 
L 492.924107 438.969114 
L 491.688427 438.73519 
L 492.21 438.73519 
L 493.720917 438.73519 
L 492.528857 438.501266 
L 493.024079 438.501266 
L 493.349577 438.501266 
L 492.178652 438.267342 
L 492.668524 438.267342 
L 503.044394 438.267342 
L 501.438462 437.799494 
L 501.549887 437.799494 
L 502.423503 437.799494 
L 501.481195 437.56557 
L 501.913816 437.56557 
L 502.020788 437.56557 
L 498.667888 436.629873 
L 502.324449 436.629873 
L 499.881113 435.928101 
L 500.183004 435.928101 
L 502.475094 435.928101 
L 501.672881 435.694177 
L 502.040187 435.694177 
L 502.402041 435.694177 
L 501.613333 435.460253 
L 501.975 435.460253 
L 502.76962 435.460253 
L 502.000181 435.226329 
L 502.35 435.226329 
L 503.286643 435.226329 
L 502.537895 434.992405 
L 502.874216 434.992405 
L 509.055842 434.992405 
L 508.400455 434.758481 
L 508.719248 434.758481 
L 509.768182 434.758481 
L 508.119884 434.056709 
L 508.181739 434.056709 
L 508.910256 434.056709 
L 508.295164 433.822785 
L 508.595339 433.822785 
L 510.365765 433.822785 
L 509.418121 433.354937 
L 509.473592 433.354937 
L 510.288173 433.354937 
L 508.859298 432.653165 
L 509.29112 432.653165 
L 508.179974 432.185316 
L 508.451786 432.185316 
L 509.090201 432.185316 
L 508.113 431.717468 
L 508.272478 431.717468 
L 510.529245 431.717468 
L 510.018021 431.483544 
L 510.256792 431.483544 
L 511.588335 431.483544 
L 510.605085 431.015696 
L 510.830899 431.015696 
L 515.544797 431.015696 
L 515.110099 430.781772 
L 515.320866 430.781772 
L 516.534981 430.781772 
L 516.117094 430.547848 
L 516.313598 430.547848 
L 517.957284 430.547848 
L 517.560647 430.313924 
L 517.768393 430.313924 
L 517.973558 430.313924 
L 517.582181 430.08 
L 517.787048 430.08 
L 518.93801 430.08 
L 518.562107 429.846076 
L 518.752703 429.846076 
L 519.36338 429.846076 
L 518.996772 429.612152 
L 519.18 429.612152 
L 519.8175 429.612152 
L 519.460274 429.378228 
L 519.661009 429.378228 
L 522.514473 429.378228 
L 522.190334 429.144304 
L 522.376245 429.144304 
L 522.58 429.144304 
L 522.260458 428.91038 
L 522.443274 428.91038 
L 522.603822 428.91038 
L 522.288331 428.676456 
L 522.468658 428.676456 
L 523.796986 428.676456 
L 523.49759 428.442532 
L 523.661078 428.442532 
L 524.105105 428.442532 
L 523.812361 428.208608 
L 523.987719 428.208608 
L 524.331687 428.208608 
L 524.044615 427.974684 
L 524.215032 427.974684 
L 524.416688 427.974684 
L 524.133733 427.740759 
L 524.30113 427.740759 
L 525.583333 427.740759 
L 525.215353 427.272911 
L 525.89446 427.272911 
L 525.635294 427.038987 
L 525.793926 427.038987 
L 525.851115 427.038987 
L 525.352397 426.571139 
L 525.496822 426.571139 
L 526.276238 426.571139 
L 525.877833 426.103291 
L 525.932277 426.103291 
L 526.683051 426.103291 
L 526.444733 425.869367 
L 526.598474 425.869367 
L 527.704066 425.869367 
L 527.477672 425.635443 
L 527.628814 425.635443 
L 528.026164 425.635443 
L 527.805044 425.401519 
L 527.950511 425.401519 
L 528.257657 425.401519 
L 528.040883 425.167595 
L 528.181974 425.167595 
L 528.667476 425.167595 
L 528.456576 424.933671 
L 528.601529 424.933671 
L 529.565824 424.933671 
L 529.288375 424.465823 
L 529.307303 424.465823 
L 530.090844 424.465823 
L 529.898644 424.231899 
L 530.039394 424.231899 
L 530.65 424.231899 
L 530.464557 423.997975 
L 530.604745 423.997975 
L 530.686309 423.997975 
L 530.40205 423.530127 
L 530.459279 423.530127 
L 530.708907 423.530127 
L 530.470193 423.062278 
L 530.486169 423.062278 
L 530.823686 423.062278 
L 530.648204 422.828354 
L 530.779662 422.828354 
L 531.476667 422.828354 
L 531.081126 422.126582 
L 531.102867 422.126582 
L 531.310582 422.126582 
L 531.145256 421.892658 
L 531.280072 421.892658 
L 532.180785 421.892658 
L 531.964396 421.42481 
L 531.996582 421.42481 
L 532.015842 421.42481 
L 531.526041 420.489114 
L 532.083788 420.489114 
L 531.934024 420.25519 
L 532.063369 420.25519 
L 532.263081 420.25519 
L 532.115919 420.021266 
L 532.241758 420.021266 
L 532.592133 420.021266 
L 532.448663 419.787342 
L 532.574789 419.787342 
L 532.597535 419.787342 
L 532.455271 419.553418 
L 532.580297 419.553418 
L 532.999395 419.553418 
L 532.83193 419.08557 
L 532.848123 419.08557 
L 533.040178 419.08557 
L 532.904545 418.851646 
L 533.031239 418.851646 
L 534.224298 418.851646 
L 534.098377 418.617722 
L 534.221518 418.617722 
L 534.248637 418.617722 
L 534.123876 418.383797 
L 534.245698 418.383797 
L 534.343653 418.383797 
L 534.220543 418.149873 
L 534.344436 418.149873 
L 534.586747 418.149873 
L 534.466325 417.915949 
L 534.589903 417.915949 
L 535.10581 417.915949 
L 534.902344 417.448101 
L 534.997921 417.448101 
L 535.319779 417.448101 
L 535.094702 416.980253 
L 535.217011 416.980253 
L 535.251068 416.980253 
L 535.028374 416.512405 
L 535.149928 416.512405 
L 535.474741 416.512405 
L 535.265669 416.044557 
L 535.378316 416.044557 
L 535.661607 416.044557 
L 535.556198 415.810633 
L 535.677704 415.810633 
L 536.254107 415.810633 
L 536.153417 415.576709 
L 536.274305 415.576709 
L 536.479593 415.576709 
L 536.381118 415.342785 
L 536.50051 415.342785 
L 536.557962 415.342785 
L 536.460698 415.108861 
L 536.580943 415.108861 
L 536.938381 415.108861 
L 536.844299 414.874937 
L 536.963047 414.874937 
L 537.002182 414.874937 
L 536.90917 414.641013 
L 537.026016 414.641013 
L 537.135486 414.641013 
L 537.043981 414.407089 
L 537.163174 414.407089 
L 537.330286 414.407089 
L 537.240665 414.173165 
L 537.3583 414.173165 
L 537.514539 414.173165 
L 537.42671 413.939241 
L 537.545393 413.939241 
L 537.552897 413.939241 
L 537.394121 413.471392 
L 537.496896 413.471392 
L 537.516766 413.471392 
L 537.430707 413.237468 
L 537.546984 413.237468 
L 537.556786 413.237468 
L 537.39625 412.76962 
L 537.504306 412.76962 
L 537.548009 412.76962 
L 537.463831 412.535696 
L 537.579692 412.535696 
L 537.639243 412.535696 
L 537.55617 412.301772 
L 537.672054 412.301772 
L 537.850114 412.301772 
L 537.768862 412.067848 
L 537.884866 412.067848 
L 538.049561 412.067848 
L 537.981081 411.6 
L 538.00734 411.6 
L 538.113459 411.6 
L 538.035325 411.366076 
L 538.150939 411.366076 
L 538.402548 411.366076 
L 538.326627 411.132152 
L 538.442404 411.132152 
L 538.881043 411.132152 
L 538.808433 410.898228 
L 538.924059 410.898228 
L 538.962719 410.898228 
L 538.86378 410.43038 
L 538.935221 410.43038 
L 539.063109 410.43038 
L 538.935309 409.962532 
L 539.036961 409.962532 
L 539.183628 409.962532 
L 539.11496 409.728608 
L 539.230007 409.728608 
L 539.2402 409.728608 
L 539.13347 409.260759 
L 539.219939 409.260759 
L 539.310108 409.260759 
L 539.243382 409.026835 
L 539.35885 409.026835 
L 539.518269 409.026835 
L 539.45311 408.792911 
L 539.566927 408.792911 
L 539.911276 408.792911 
L 539.851188 408.325063 
L 539.900922 408.325063 
L 540.07431 408.325063 
L 539.970949 407.857215 
L 540.066719 407.857215 
L 540.407329 407.857215 
L 540.348917 407.623291 
L 540.462162 407.623291 
L 540.485286 407.623291 
L 540.416849 406.921519 
L 540.42578 406.921519 
L 540.819459 406.921519 
L 540.780753 406.453671 
L 540.822905 406.453671 
L 541.315054 406.453671 
L 541.298338 405.985823 
L 541.325453 405.985823 
L 541.424242 405.985823 
L 541.373751 405.751899 
L 541.487028 405.751899 
L 541.530788 405.751899 
L 541.481132 405.517975 
L 541.594177 405.517975 
L 542.44149 405.517975 
L 542.396868 405.284051 
L 542.509609 405.284051 
L 542.699418 405.284051 
L 542.699418 405.284051 
" style="fill:none;stroke:#1f77b4;stroke-linecap:square;stroke-width:2;"/>
   </g>
   <g id="line2d_46">
    <path clip-path="url(#p1edce03858)" d="M 550.8 448.56 
L 432.225 448.326076 
L 483.042857 448.326076 
L 524.45 448.326076 
L 500.873684 448.092152 
L 511.275 448.092152 
L 524.45 448.092152 
L 502.153846 447.624304 
L 505.628571 447.624304 
L 520.685714 447.624304 
L 513.745313 447.39038 
L 516.921429 447.39038 
L 520.001299 447.39038 
L 514.315385 447.156456 
L 516.921429 447.156456 
L 520.844211 447.156456 
L 512.472727 446.688608 
L 513.6 446.688608 
L 518.914286 446.688608 
L 515.2275 446.454684 
L 516.921429 446.454684 
L 521.957432 446.454684 
L 518.967785 446.220759 
L 520.2 446.220759 
L 520.396154 446.220759 
L 517.56879 445.986835 
L 518.792025 445.986835 
L 521.975138 445.986835 
L 519.527473 445.752911 
L 520.685714 445.752911 
L 521.001047 445.752911 
L 518.685938 445.518987 
L 519.659091 445.518987 
L 524.222845 445.518987 
L 522.301288 445.285063 
L 523.1325 445.285063 
L 523.361157 445.285063 
L 521.522222 445.051139 
L 522.342 445.051139 
L 523.64542 445.051139 
L 521.945247 444.817215 
L 522.693333 444.817215 
L 524.810959 444.817215 
L 521.761224 444.349367 
L 522.436545 444.349367 
L 525.763636 444.349367 
L 524.45 444.115443 
L 525.052286 444.115443 
L 525.7675 444.115443 
L 524.522992 443.881519 
L 525.092683 443.881519 
L 531.675 443.881519 
L 530.759155 443.647595 
L 531.19311 443.647595 
L 534.498363 443.647595 
L 533.75 443.413671 
L 534.10464 443.413671 
L 535.764553 443.413671 
L 535.103741 443.179747 
L 535.435352 443.179747 
L 538.431633 443.179747 
L 537.908494 442.945823 
L 538.180044 442.945823 
L 539.844081 442.945823 
L 539.133207 442.477975 
L 539.188136 442.477975 
L 539.444751 442.477975 
L 539.018859 442.244051 
L 539.242148 442.244051 
L 539.891908 442.244051 
L 539.22197 441.776203 
L 539.318614 441.776203 
L 540.581055 441.776203 
L 540.059825 441.308354 
L 540.083309 441.308354 
L 540.430959 441.308354 
L 540.104017 441.07443 
L 540.289197 441.07443 
L 540.748609 441.07443 
L 540.441363 440.840506 
L 540.623212 440.840506 
L 541.197607 440.840506 
L 540.912692 440.606582 
L 541.085422 440.606582 
L 541.585029 440.606582 
L 541.319417 440.372658 
L 541.484343 440.372658 
L 541.894152 440.372658 
L 541.495069 439.90481 
L 541.553899 439.90481 
L 541.846378 439.90481 
L 541.609077 439.670886 
L 541.765714 439.670886 
L 541.846498 439.670886 
L 541.615442 439.436962 
L 541.76792 439.436962 
L 542.74351 439.436962 
L 542.540531 439.203038 
L 542.685372 439.203038 
L 542.774619 439.203038 
L 542.577463 438.969114 
L 542.720939 438.969114 
L 543.125848 438.969114 
L 542.941775 438.73519 
L 543.081829 438.73519 
L 543.542951 438.73519 
L 543.37287 438.501266 
L 543.508295 438.501266 
L 544.017526 438.501266 
L 543.862101 438.267342 
L 543.993346 438.267342 
L 544.063654 438.267342 
L 543.867112 437.799494 
L 543.893447 437.799494 
L 543.926087 437.799494 
L 543.778866 437.56557 
L 543.909088 437.56557 
L 544.165446 437.56557 
L 543.637045 436.629873 
L 543.737431 436.629873 
L 543.855039 436.629873 
L 543.552632 435.928101 
L 543.579194 435.928101 
L 543.601518 435.928101 
L 543.36 435.460253 
L 543.464789 435.460253 
L 543.544933 435.460253 
L 543.417395 435.226329 
L 543.542255 435.226329 
L 543.74307 435.226329 
L 543.621138 434.992405 
L 543.746308 434.992405 
L 543.846158 434.992405 
L 543.595742 434.290633 
L 543.615421 434.290633 
L 543.994001 434.290633 
L 543.771706 433.588861 
L 543.786322 433.588861 
L 543.941618 433.588861 
L 543.836029 433.354937 
L 543.956604 433.354937 
L 544.02875 433.354937 
L 543.867605 432.887089 
L 543.943883 432.887089 
L 544.028617 432.887089 
L 543.920307 432.419241 
L 543.94911 432.419241 
L 544.121082 432.419241 
L 544.025668 432.185316 
L 544.145159 432.185316 
L 544.17702 432.185316 
L 544.071015 431.717468 
L 544.109248 431.717468 
L 544.343279 431.717468 
L 544.188924 431.24962 
L 544.284648 431.24962 
L 544.339812 431.24962 
L 544.025511 430.08 
L 544.026735 430.08 
L 544.070528 430.08 
L 543.986569 429.846076 
L 544.104394 429.846076 
L 544.268067 429.846076 
L 544.187556 429.612152 
L 544.304937 429.612152 
L 544.314804 429.612152 
L 544.235848 429.378228 
L 544.352288 429.378228 
L 544.383138 429.378228 
L 544.305955 429.144304 
L 544.422728 429.144304 
L 544.433042 429.144304 
L 544.311106 428.676456 
L 544.397666 428.676456 
L 544.443094 428.676456 
L 544.369321 428.442532 
L 544.485789 428.442532 
L 544.520782 428.442532 
L 544.448746 428.208608 
L 544.564869 428.208608 
L 544.579907 428.208608 
L 544.509359 427.974684 
L 544.624767 427.974684 
L 544.862817 427.974684 
L 544.74854 427.506835 
L 544.844782 427.506835 
L 544.864655 427.506835 
L 544.799541 427.272911 
L 544.914101 427.272911 
L 544.924517 427.272911 
L 544.860759 427.038987 
L 544.975707 427.038987 
L 545.00356 427.038987 
L 544.91 426.337215 
L 544.93148 426.337215 
L 545.022529 426.337215 
L 544.962462 426.103291 
L 545.076923 426.103291 
L 545.141643 426.103291 
L 545.083412 425.869367 
L 545.197577 425.869367 
L 545.337271 425.869367 
L 545.337494 425.401519 
L 545.340035 425.401519 
L 545.404034 425.401519 
L 545.291164 424.699747 
L 545.356251 424.699747 
L 545.373348 424.699747 
L 545.2855 424.231899 
L 545.38181 424.231899 
L 545.411405 424.231899 
L 545.344173 423.530127 
L 545.371021 423.530127 
L 545.447743 423.530127 
L 545.356731 422.59443 
L 545.363476 422.59443 
L 545.413536 422.59443 
L 545.365565 422.360506 
L 545.478794 422.360506 
L 545.485183 422.360506 
L 545.453548 421.658734 
L 545.457738 421.658734 
L 545.506987 421.658734 
L 545.461479 421.42481 
L 545.574546 421.42481 
L 545.720716 421.42481 
L 545.720716 421.42481 
" style="fill:none;stroke:#ff7f0e;stroke-linecap:square;stroke-width:2;"/>
   </g>
   <g id="line2d_47">
    <path clip-path="url(#p1edce03858)" d="M 550.8 448.56 
L 313.65 448.326076 
L 234.6 448.092152 
L 171.36 447.624304 
L 144.257143 447.156456 
L 195.075 447.156456 
L 181.9 446.922532 
L 218.79 446.922532 
L 205.854545 446.688608 
L 234.6 446.688608 
L 202.98 445.986835 
L 243.9 445.986835 
L 234.6 445.752911 
L 251.242105 445.752911 
L 234.6 445.285063 
L 248.972727 445.285063 
L 234.6 444.817215 
L 247.248 444.817215 
L 228.953571 444.115443 
L 240.051724 444.115443 
L 234.6 443.881519 
L 244.8 443.881519 
L 234.6 443.413671 
L 243.9 443.413671 
L 234.6 442.945823 
L 251.242105 442.945823 
L 246.761538 442.711899 
L 254.3625 442.711899 
L 250.02439 442.477975 
L 257.185714 442.477975 
L 252.983721 442.244051 
L 259.752273 442.244051 
L 251.784783 441.776203 
L 264.24375 441.776203 
L 256.734 441.308354 
L 262.5 441.308354 
L 258.923077 441.07443 
L 264.430189 441.07443 
L 260.95 440.840506 
L 271.301786 440.840506 
L 264.584483 440.372658 
L 283.05 440.372658 
L 279.771429 440.138734 
L 284.00625 440.138734 
L 268.969565 438.969114 
L 272.995714 438.969114 
L 267.5375 438.501266 
L 271.417808 438.501266 
L 261.292208 437.56557 
L 272.14875 437.56557 
L 269.733333 437.331646 
L 273.160976 437.331646 
L 261.858621 436.162025 
L 265.142045 436.162025 
L 260.95 435.694177 
L 264.135165 435.694177 
L 262.095652 435.460253 
L 265.2 435.460253 
L 261.227368 434.992405 
L 267.197938 434.992405 
L 265.252041 434.758481 
L 268.136364 434.758481 
L 266.22 434.524557 
L 271.8 434.524557 
L 268.044231 434.056709 
L 270.737143 434.056709 
L 268.904717 433.822785 
L 271.539252 433.822785 
L 269.733333 433.588861 
L 272.311927 433.588861 
L 267.066964 432.887089 
L 274.468696 432.887089 
L 272.762069 432.653165 
L 275.138462 432.653165 
L 271.8 432.185316 
L 274.125 432.185316 
L 272.491736 431.951392 
L 274.772951 431.951392 
L 273.160976 431.717468 
L 275.4 431.717468 
L 273.8088 431.483544 
L 276.007143 431.483544 
L 268.392366 430.313924 
L 270.531818 430.313924 
L 269.072932 430.08 
L 271.175373 430.08 
L 268.3125 429.612152 
L 274.409353 429.612152 
L 271.602128 429.144304 
L 275.506993 429.144304 
L 274.125 428.91038 
L 281.602703 428.91038 
L 280.226174 428.676456 
L 282.03 428.676456 
L 278 427.974684 
L 279.771429 427.974684 
L 277.165385 427.506835 
L 287.3 427.506835 
L 286.006748 427.272911 
L 287.621341 427.272911 
L 286.341818 427.038987 
L 289.508982 427.038987 
L 286.988166 426.571139 
L 298.911864 426.571139 
L 297.66236 426.337215 
L 307.240541 426.337215 
L 306 426.103291 
L 307.309091 426.103291 
L 304.866667 425.635443 
L 307.441885 425.635443 
L 306.239063 425.401519 
L 310.001538 425.401519 
L 308.810204 425.167595 
L 312.458291 425.167595 
L 311.2785 424.933671 
L 312.470149 424.933671 
L 310.14532 424.465823 
L 312.493171 424.465823 
L 311.347573 424.231899 
L 312.504348 424.231899 
L 310.245933 423.764051 
L 312.526066 423.764051 
L 311.412736 423.530127 
L 312.53662 423.530127 
L 311.433645 423.296203 
L 312.546977 423.296203 
L 311.454167 423.062278 
L 314.732877 423.062278 
L 313.65 422.828354 
L 316.840359 422.828354 
L 314.704 422.360506 
L 315.748673 422.360506 
L 314.694714 422.126582 
L 316.756769 422.126582 
L 314.676623 421.658734 
L 316.703433 421.658734 
L 315.676923 421.42481 
L 317.669492 421.42481 
L 316.651899 421.190886 
L 318.611297 421.190886 
L 317.6025 420.956962 
L 321.42541 420.956962 
L 320.425714 420.723038 
L 322.291093 420.723038 
L 321.3 420.489114 
L 329.336965 420.489114 
L 325.462069 419.553418 
L 332.973333 419.553418 
L 332.026937 419.319494 
L 336.765704 419.319494 
L 335.829496 419.08557 
L 338.124555 419.08557 
L 337.196809 418.851646 
L 338.701056 418.851646 
L 337.781053 418.617722 
L 340.729412 418.617722 
L 337.122184 417.682025 
L 337.84898 417.682025 
L 334.34094 416.746329 
L 335.064883 416.746329 
L 334.203 416.512405 
L 335.637417 416.512405 
L 333.932566 416.044557 
L 334.643607 416.044557 
L 333.8 415.810633 
L 335.209091 415.810633 
L 334.371845 415.576709 
L 335.763666 415.576709 
L 334.932692 415.342785 
L 335.622364 415.342785 
L 333.977143 414.874937 
L 336.695925 414.874937 
L 335.882813 414.641013 
L 338.536111 414.641013 
L 337.729846 414.407089 
L 339.033028 414.407089 
L 338.232622 414.173165 
L 342.674328 414.173165 
L 341.882143 413.939241 
L 343.730973 413.939241 
L 342.945 413.705316 
L 343.554545 413.705316 
L 342.773684 413.471392 
L 343.380175 413.471392 
L 342.60436 413.237468 
L 343.807803 413.237468 
L 343.037464 413.003544 
L 350.54 413.003544 
L 349.780886 412.76962 
L 355.199191 412.76962 
L 354.45 412.535696 
L 355.5 412.535696 
L 354.015957 412.067848 
L 357.612533 412.067848 
L 356.152208 411.6 
L 357.657216 411.6 
L 356.934447 411.366076 
L 360.361364 411.366076 
L 359.646348 411.132152 
L 361.08 411.132152 
L 360.370324 410.898228 
L 364.09511 410.898228 
L 363.393659 410.664304 
L 367.419093 410.664304 
L 366.726429 410.43038 
L 369.319014 410.43038 
L 368.633255 410.196456 
L 370.323898 410.196456 
L 369.64375 409.962532 
L 370.478571 409.962532 
L 369.802759 409.728608 
L 372.669231 409.728608 
L 371.335135 409.260759 
L 374.120621 409.260759 
L 373.462168 409.026835 
L 373.853642 409.026835 
L 373.198678 408.792911 
L 376.650972 408.792911 
L 376.004095 408.558987 
L 377.867591 408.558987 
L 377.226383 408.325063 
L 377.961864 408.325063 
L 377.324524 408.091139 
L 378.417857 408.091139 
L 377.784906 407.857215 
L 379.934161 407.857215 
L 379.307231 407.623291 
L 380.363655 407.623291 
L 379.740984 407.389367 
L 381.818623 407.389367 
L 381.201818 407.155443 
L 383.566733 407.155443 
L 382.956262 406.921519 
L 384.608268 406.921519 
L 383.4 406.453671 
L 387.560994 406.453671 
L 386.967366 406.219747 
L 392.115527 406.219747 
L 391.53321 405.985823 
L 391.826519 405.985823 
L 392.409908 405.985823 
L 391.254845 405.517975 
L 391.545985 405.517975 
L 395.513167 405.517975 
L 394.946536 405.284051 
L 395.222872 405.284051 
L 397.666492 405.284051 
L 397.106969 405.050127 
L 397.374261 405.050127 
L 397.640625 405.050127 
L 397.084055 404.816203 
L 397.35 404.816203 
L 398.666038 404.816203 
L 398.114384 404.582278 
L 398.375385 404.582278 
L 398.894719 404.582278 
L 398.346429 404.348354 
L 398.605263 404.348354 
L 399.886364 404.348354 
L 399.342857 404.11443 
L 399.59698 404.11443 
L 399.850251 404.11443 
L 399.309532 403.880506 
L 399.562437 403.880506 
L 401.555684 403.880506 
L 401.021053 403.646582 
L 401.266995 403.646582 
L 411.555963 403.646582 
L 410.747945 403.178734 
L 419.912091 403.178734 
L 419.42429 402.94481 
L 419.610638 402.94481 
L 419.981754 402.94481 
L 419.49661 402.710886 
L 419.681805 402.710886 
L 424.663229 402.710886 
L 424.191463 402.476962 
L 424.362788 402.476962 
L 424.704049 402.476962 
L 423.9375 402.009114 
L 424.277614 402.009114 
L 423.812048 401.77519 
L 423.981818 401.77519 
L 424.32 401.77519 
L 423.856858 401.541266 
L 424.025665 401.541266 
L 427.149805 401.541266 
L 426.695596 401.307342 
L 426.856145 401.307342 
L 429.829545 401.307342 
L 429.09283 400.839494 
L 429.550376 400.839494 
L 428.66775 400.371646 
L 428.820225 400.371646 
L 429.275373 400.371646 
L 428.837143 400.137722 
L 428.988462 400.137722 
L 433.779619 400.137722 
L 433.354286 399.903797 
L 433.493936 399.903797 
L 433.633254 399.903797 
L 433.209609 399.669873 
L 433.348934 399.669873 
L 434.315041 399.669873 
L 433.89507 399.435949 
L 434.032122 399.435949 
L 434.57713 399.435949 
L 434.15979 399.202025 
L 434.295576 399.202025 
L 435.237298 399.202025 
L 434.823529 398.968101 
L 434.957143 398.968101 
L 438.451844 398.968101 
L 437.644816 398.500253 
L 437.770824 398.500253 
L 439.261319 398.500253 
L 438.863117 398.266329 
L 438.985855 398.266329 
L 439.595529 398.266329 
L 438.927065 397.798481 
L 439.651944 397.798481 
L 439.260194 397.564557 
L 439.380388 397.564557 
L 439.858584 397.564557 
L 439.469132 397.330633 
L 439.58833 397.330633 
L 444.483009 397.330633 
L 444.106748 397.096709 
L 444.21573 397.096709 
L 445.4 397.096709 
L 445.02775 396.862785 
L 445.134375 396.862785 
L 445.769639 396.862785 
L 445.4 396.628861 
L 445.5054 396.628861 
L 445.9249 396.628861 
L 445.557313 396.394937 
L 445.661928 396.394937 
L 446.181899 396.394937 
L 445.816601 396.161013 
L 445.920237 396.161013 
L 446.023669 396.161013 
L 445.659606 395.927089 
L 445.763091 395.927089 
L 446.277473 395.927089 
L 445.915656 395.693165 
L 446.018182 395.693165 
L 446.120508 395.693165 
L 445.759902 395.459241 
L 445.862281 395.459241 
L 448.163108 395.459241 
L 447.652137 394.991392 
L 450.044249 394.991392 
L 449.698054 394.757468 
L 449.885106 394.757468 
L 450.901648 394.757468 
L 450.559103 394.523544 
L 450.742192 394.523544 
L 451.197 394.523544 
L 450.856676 394.28962 
L 451.037897 394.28962 
L 451.667027 394.28962 
L 451.329343 394.055696 
L 451.508086 394.055696 
L 451.686188 394.055696 
L 451.35 393.821772 
L 451.527907 393.821772 
L 452.1456 393.821772 
L 451.811989 393.587848 
L 451.9875 393.587848 
L 457.214358 393.587848 
L 456.576111 393.12 
L 456.733808 393.12 
L 457.047623 393.12 
L 456.7305 392.886076 
L 456.887022 392.886076 
L 458.499591 392.886076 
L 458.1875 392.652152 
L 458.338581 392.652152 
L 459.822713 392.652152 
L 459.515317 392.418228 
L 459.661489 392.418228 
L 460.097211 392.418228 
L 459.791799 392.184304 
L 459.936486 392.184304 
L 460.152657 392.184304 
L 459.848653 391.95038 
L 459.992563 391.95038 
L 462.097836 391.95038 
L 461.800077 391.716456 
L 461.937317 391.716456 
L 466.794971 391.716456 
L 466.510706 391.482532 
L 466.633309 391.482532 
L 467.3615 391.482532 
L 467.079899 391.248608 
L 467.20036 391.248608 
L 467.320474 391.248608 
L 466.759756 390.780759 
L 466.880158 390.780759 
L 466.940229 390.780759 
L 466.660944 390.546835 
L 466.781143 390.546835 
L 468.313043 390.546835 
L 468.038472 390.312911 
L 468.154304 390.312911 
L 468.269811 390.312911 
L 467.996229 390.078987 
L 468.111715 390.078987 
L 469.916644 390.078987 
L 469.648466 389.845063 
L 469.814082 389.845063 
L 472.529586 389.845063 
L 472.112852 389.377215 
L 472.164417 389.377215 
L 473.281977 389.377215 
L 472.77 388.909367 
L 472.920734 388.909367 
L 474.3 388.909367 
L 474.048546 388.675443 
L 474.193817 388.675443 
L 474.338539 388.675443 
L 474.088169 388.441519 
L 474.232726 388.441519 
L 477.191848 388.441519 
L 476.512048 387.739747 
L 476.601444 387.739747 
L 478.088915 387.739747 
L 477.852269 387.505823 
L 477.981 387.505823 
L 478.406842 387.505823 
L 478.171946 387.271899 
L 478.299067 387.271899 
L 479.135294 387.271899 
L 478.903228 387.037975 
L 479.02733 387.037975 
L 479.519486 387.037975 
L 479.28932 386.804051 
L 479.411631 386.804051 
L 480.335622 386.804051 
L 480.108493 386.570127 
L 480.227569 386.570127 
L 481.396632 386.570127 
L 481.173179 386.336203 
L 481.326542 386.336203 
L 482.933513 386.336203 
L 482.715 386.102278 
L 482.861105 386.102278 
L 483.47512 386.102278 
L 483.078822 385.63443 
L 483.186486 385.63443 
L 484.897779 385.63443 
L 484.686939 385.400506 
L 484.823184 385.400506 
L 484.857158 385.400506 
L 484.646989 385.166582 
L 484.782897 385.166582 
L 486.756502 385.166582 
L 486.552191 384.932658 
L 486.67992 384.932658 
L 486.933861 384.932658 
L 486.730777 384.698734 
L 486.857333 384.698734 
L 487.265211 384.698734 
L 487.063757 384.46481 
L 487.188546 384.46481 
L 487.498393 384.46481 
L 487.298296 384.230886 
L 487.42172 384.230886 
L 487.483252 384.230886 
L 487.283843 383.996962 
L 487.406877 383.996962 
L 487.529435 383.996962 
L 487.33087 383.763038 
L 487.453279 383.763038 
L 487.514306 383.763038 
L 487.316418 383.529114 
L 487.438443 383.529114 
L 487.49928 383.529114 
L 487.302063 383.29519 
L 487.423707 383.29519 
L 487.665601 383.29519 
L 487.469528 383.061266 
L 487.5901 383.061266 
L 487.978808 383.061266 
L 487.784255 382.827342 
L 487.903209 382.827342 
L 489.775137 382.827342 
L 489.585995 382.593418 
L 489.725753 382.593418 
L 490.794347 382.593418 
L 490.608565 382.359494 
L 490.743221 382.359494 
L 491.5125 382.359494 
L 491.329272 382.12557 
L 491.460264 382.12557 
L 491.642688 382.12557 
L 491.460448 381.891646 
L 491.590407 381.891646 
L 491.693966 381.891646 
L 491.5125 381.657722 
L 491.641779 381.657722 
L 491.667568 381.657722 
L 491.486667 381.423797 
L 491.615609 381.423797 
L 491.743991 381.423797 
L 491.56392 381.189873 
L 491.692081 381.189873 
L 492.048 381.189873 
L 491.869347 380.955949 
L 491.995753 380.955949 
L 493.036536 380.955949 
L 492.734666 380.488101 
L 492.807857 380.488101 
L 493.146992 380.488101 
L 492.973027 380.254177 
L 493.0935 380.254177 
L 493.852796 380.254177 
L 493.681258 380.020253 
L 493.7984 380.020253 
L 494.62785 380.020253 
L 494.458909 379.786329 
L 494.595163 379.786329 
L 494.932933 379.786329 
L 494.665334 379.318481 
L 494.732588 379.318481 
L 495 379.318481 
L 494.833731 379.084557 
L 494.966825 379.084557 
L 495.055204 379.084557 
L 494.889636 378.850633 
L 495.022021 378.850633 
L 495.523739 378.850633 
L 495.35993 378.616709 
L 495.489665 378.616709 
L 496.087153 378.616709 
L 495.925337 378.382785 
L 496.05202 378.382785 
L 496.552955 378.382785 
L 496.392873 378.148861 
L 496.516996 378.148861 
L 497.229906 378.148861 
L 497.072093 377.914937 
L 497.19274 377.914937 
L 497.332811 377.914937 
L 497.175784 377.681013 
L 497.29557 377.681013 
L 497.414822 377.681013 
L 497.258522 377.447089 
L 497.377547 377.447089 
L 497.867841 377.447089 
L 497.713211 377.213165 
L 497.829843 377.213165 
L 498.405397 377.213165 
L 498.252643 376.979241 
L 498.366546 376.979241 
L 499.113462 376.979241 
L 498.963012 376.745316 
L 499.091868 376.745316 
L 499.201807 376.745316 
L 498.902443 376.277468 
L 499.030767 376.277468 
L 499.964516 376.277468 
L 499.817684 376.043544 
L 499.941128 376.043544 
L 501.193725 376.043544 
L 501.050489 375.80962 
L 501.167665 375.80962 
L 502.595 375.80962 
L 502.455799 375.575696 
L 502.581818 375.575696 
L 502.660247 375.575696 
L 502.521659 375.341772 
L 502.646935 375.341772 
L 503.18746 375.341772 
L 503.050657 375.107848 
L 503.172817 375.107848 
L 503.610456 375.107848 
L 503.475166 374.873924 
L 503.594787 374.873924 
L 503.684106 374.873924 
L 503.549433 374.64 
L 503.668302 374.64 
L 503.683119 374.64 
L 503.548869 374.406076 
L 503.667367 374.406076 
L 503.858664 374.406076 
L 503.725281 374.172152 
L 503.842528 374.172152 
L 504.133106 374.172152 
L 503.883153 373.704304 
L 503.984454 373.704304 
L 505.098103 373.704304 
L 504.969085 373.47038 
L 505.092915 373.47038 
L 506.334375 373.47038 
L 506.174629 373.002532 
L 506.200611 373.002532 
L 507.103793 373.002532 
L 506.920837 372.534684 
L 506.983201 372.534684 
L 507.378169 372.534684 
L 507.256829 372.300759 
L 507.379107 372.300759 
L 507.681818 372.300759 
L 507.561611 372.066835 
L 507.681818 372.066835 
L 507.955773 372.066835 
L 507.83662 371.832911 
L 507.954944 371.832911 
L 509.259172 371.832911 
L 509.143647 371.598987 
L 509.265611 371.598987 
L 509.529252 371.598987 
L 509.414754 371.365063 
L 509.534775 371.365063 
L 510.428837 371.365063 
L 510.316942 371.131139 
L 510.431448 371.131139 
L 511.155227 371.131139 
L 511.045494 370.897215 
L 511.165568 370.897215 
L 511.225333 370.897215 
L 511.116106 370.663291 
L 511.235396 370.663291 
L 511.491414 370.663291 
L 511.382858 370.195443 
L 511.392634 370.195443 
L 511.499852 370.195443 
L 511.392285 369.961519 
L 511.508876 369.961519 
L 511.720844 369.961519 
L 511.614146 369.727595 
L 511.729088 369.727595 
L 511.919168 369.727595 
L 511.813278 369.493671 
L 511.926722 369.493671 
L 512.058241 369.493671 
L 511.953008 369.259747 
L 512.074639 369.259747 
L 512.269518 369.259747 
L 512.144097 368.791899 
L 512.181017 368.791899 
L 512.263831 368.791899 
L 512.056275 368.324051 
L 512.175855 368.324051 
L 512.476113 368.324051 
L 512.279873 367.856203 
L 512.38838 367.856203 
L 512.505242 367.856203 
L 512.409027 367.388354 
L 512.41798 367.388354 
L 512.711109 367.388354 
L 512.544696 366.920506 
L 512.624101 366.920506 
L 512.938449 366.920506 
L 512.838646 366.686582 
L 512.951163 366.686582 
L 513.80312 366.686582 
L 513.690954 366.218734 
L 513.723917 366.218734 
L 514.009872 366.218734 
L 513.913483 365.98481 
L 514.026905 365.98481 
L 515.245126 365.98481 
L 515.151975 365.750886 
L 515.265143 365.750886 
L 516.499244 365.750886 
L 516.333619 365.283038 
L 516.431834 365.283038 
L 516.591977 365.283038 
L 516.502836 365.049114 
L 516.620529 365.049114 
L 517.076618 365.049114 
L 516.988889 364.81519 
L 517.102957 364.81519 
L 517.13636 364.81519 
L 516.961712 364.347342 
L 517.075331 364.347342 
L 517.2674 364.347342 
L 517.180856 364.113418 
L 517.299257 364.113418 
L 517.694374 364.113418 
L 517.609086 363.879494 
L 517.724176 363.879494 
L 517.964544 363.879494 
L 517.880134 363.64557 
L 517.993045 363.64557 
L 519.145119 363.64557 
L 519.06375 363.411646 
L 519.18 363.411646 
L 519.335593 363.411646 
L 519.254697 362.943797 
L 519.289054 362.943797 
L 519.408716 362.943797 
L 519.328639 362.709873 
L 519.442028 362.709873 
L 519.447677 362.709873 
L 519.367909 362.475949 
L 519.480711 362.475949 
L 519.885654 362.475949 
L 519.727194 361.774177 
L 519.765556 361.774177 
L 519.87464 361.774177 
L 519.796732 361.540253 
L 519.910714 361.540253 
L 519.93233 361.540253 
L 519.854766 361.306329 
L 519.96802 361.306329 
L 520.027013 361.306329 
L 519.899635 360.838481 
L 519.985291 360.838481 
L 520.286619 360.838481 
L 520.210497 360.604557 
L 520.325496 360.604557 
L 520.361905 360.604557 
L 520.231304 360.136709 
L 520.324834 360.136709 
L 520.889189 360.136709 
L 520.815063 359.902785 
L 520.929661 359.902785 
L 521.170908 359.902785 
L 521.097627 359.668861 
L 521.209785 359.668861 
L 521.786156 359.668861 
L 521.714486 359.434937 
L 521.826407 359.434937 
L 522.301609 359.434937 
L 522.179092 358.967089 
L 522.273477 358.967089 
L 522.424977 358.967089 
L 522.396594 358.499241 
L 522.401011 358.499241 
L 523.006164 358.499241 
L 522.938213 358.265316 
L 523.052228 358.265316 
L 523.215278 358.265316 
L 523.147981 358.031392 
L 523.26 358.031392 
L 523.436538 358.031392 
L 523.369921 357.797468 
L 523.483925 357.797468 
L 524.055573 357.797468 
L 523.990541 357.563544 
L 524.103039 357.563544 
L 524.37452 357.563544 
L 524.310382 357.32962 
L 524.423699 357.32962 
L 524.72119 357.32962 
L 524.658007 357.095696 
L 524.771747 357.095696 
L 525.039297 357.095696 
L 524.977 356.861772 
L 525.091261 356.861772 
L 525.236189 356.861772 
L 525.174498 356.627848 
L 525.286737 356.627848 
L 525.800013 356.627848 
L 525.739761 356.393924 
L 525.853504 356.393924 
L 525.903357 356.393924 
L 525.843493 356.16 
L 525.956014 356.16 
L 526.236148 356.16 
L 526.177189 355.926076 
L 526.289652 355.926076 
L 526.385233 355.926076 
L 526.326761 355.692152 
L 526.440737 355.692152 
L 526.711846 355.692152 
L 526.664596 355.224304 
L 526.71068 355.224304 
L 526.753532 355.224304 
L 526.639139 354.756456 
L 526.752168 354.756456 
L 526.963141 354.756456 
L 526.906692 354.522532 
L 527.01993 354.522532 
L 527.096793 354.522532 
L 527.055613 354.054684 
L 527.096734 354.054684 
L 527.320377 354.054684 
L 527.265143 353.820759 
L 527.377064 353.820759 
L 528.783782 353.820759 
L 528.73195 353.586835 
L 528.845172 353.586835 
L 528.949801 353.586835 
L 528.898468 353.352911 
L 529.012178 353.352911 
L 529.526019 353.352911 
L 529.476099 353.118987 
L 529.588293 353.118987 
L 529.616158 353.118987 
L 529.566561 352.885063 
L 529.679837 352.885063 
L 530.054764 352.885063 
L 529.97114 352.417215 
L 530.07081 352.417215 
L 530.496146 352.417215 
L 530.448865 352.183291 
L 530.56058 352.183291 
L 531.194141 352.183291 
L 531.148525 351.949367 
L 531.260259 351.949367 
L 531.266105 351.949367 
L 531.22076 351.715443 
L 531.33334 351.715443 
L 531.539559 351.715443 
L 531.548483 351.247595 
L 531.561622 351.247595 
L 532.323663 351.247595 
L 532.280983 351.013671 
L 532.393011 351.013671 
L 532.540851 351.013671 
L 532.540851 351.013671 
" style="fill:none;stroke:#2ca02c;stroke-linecap:square;stroke-width:2;"/>
   </g>
   <g id="patch_3">
    <path d="M 76.5 448.56 
L 76.5 60.48 
" style="fill:none;stroke:#000000;stroke-linecap:square;stroke-linejoin:miter;stroke-width:0.8;"/>
   </g>
   <g id="patch_4">
    <path d="M 550.8 448.56 
L 550.8 60.48 
" style="fill:none;stroke:#000000;stroke-linecap:square;stroke-linejoin:miter;stroke-width:0.8;"/>
   </g>
   <g id="patch_5">
    <path d="M 76.5 448.56 
L 550.8 448.56 
" style="fill:none;stroke:#000000;stroke-linecap:square;stroke-linejoin:miter;stroke-width:0.8;"/>
   </g>
   <g id="patch_6">
    <path d="M 76.5 60.48 
L 550.8 60.48 
" style="fill:none;stroke:#000000;stroke-linecap:square;stroke-linejoin:miter;stroke-width:0.8;"/>
   </g>
   <g id="text_25">
    <!-- wall: img1-img6 -->
    <defs>
     <path d="M 4.203125 54.6875 
L 13.1875 54.6875 
L 24.421875 12.015625 
L 35.59375 54.6875 
L 46.1875 54.6875 
L 57.421875 12.015625 
L 68.609375 54.6875 
L 77.59375 54.6875 
L 63.28125 0 
L 52.6875 0 
L 40.921875 44.828125 
L 29.109375 0 
L 18.5 0 
z
" id="DejaVuSans-119"/>
     <path d="M 34.28125 27.484375 
Q 23.390625 27.484375 19.1875 25 
Q 14.984375 22.515625 14.984375 16.5 
Q 14.984375 11.71875 18.140625 8.90625 
Q 21.296875 6.109375 26.703125 6.109375 
Q 34.1875 6.109375 38.703125 11.40625 
Q 43.21875 16.703125 43.21875 25.484375 
L 43.21875 27.484375 
z
M 52.203125 31.203125 
L 52.203125 0 
L 43.21875 0 
L 43.21875 8.296875 
Q 40.140625 3.328125 35.546875 0.953125 
Q 30.953125 -1.421875 24.3125 -1.421875 
Q 15.921875 -1.421875 10.953125 3.296875 
Q 6 8.015625 6 15.921875 
Q 6 25.140625 12.171875 29.828125 
Q 18.359375 34.515625 30.609375 34.515625 
L 43.21875 34.515625 
L 43.21875 35.40625 
Q 43.21875 41.609375 39.140625 45 
Q 35.0625 48.390625 27.6875 48.390625 
Q 23 48.390625 18.546875 47.265625 
Q 14.109375 46.140625 10.015625 43.890625 
L 10.015625 52.203125 
Q 14.9375 54.109375 19.578125 55.046875 
Q 24.21875 56 28.609375 56 
Q 40.484375 56 46.34375 49.84375 
Q 52.203125 43.703125 52.203125 31.203125 
z
" id="DejaVuSans-97"/>
     <path d="M 9.421875 75.984375 
L 18.40625 75.984375 
L 18.40625 0 
L 9.421875 0 
z
" id="DejaVuSans-108"/>
     <path d="M 11.71875 12.40625 
L 22.015625 12.40625 
L 22.015625 0 
L 11.71875 0 
z
M 11.71875 51.703125 
L 22.015625 51.703125 
L 22.015625 39.3125 
L 11.71875 39.3125 
z
" id="DejaVuSans-58"/>
     <path id="DejaVuSans-32"/>
     <path d="M 52 44.1875 
Q 55.375 50.25 60.0625 53.125 
Q 64.75 56 71.09375 56 
Q 79.640625 56 84.28125 50.015625 
Q 88.921875 44.046875 88.921875 33.015625 
L 88.921875 0 
L 79.890625 0 
L 79.890625 32.71875 
Q 79.890625 40.578125 77.09375 44.375 
Q 74.3125 48.1875 68.609375 48.1875 
Q 61.625 48.1875 57.5625 43.546875 
Q 53.515625 38.921875 53.515625 30.90625 
L 53.515625 0 
L 44.484375 0 
L 44.484375 32.71875 
Q 44.484375 40.625 41.703125 44.40625 
Q 38.921875 48.1875 33.109375 48.1875 
Q 26.21875 48.1875 22.15625 43.53125 
Q 18.109375 38.875 18.109375 30.90625 
L 18.109375 0 
L 9.078125 0 
L 9.078125 54.6875 
L 18.109375 54.6875 
L 18.109375 46.1875 
Q 21.1875 51.21875 25.484375 53.609375 
Q 29.78125 56 35.6875 56 
Q 41.65625 56 45.828125 52.96875 
Q 50 49.953125 52 44.1875 
z
" id="DejaVuSans-109"/>
     <path d="M 45.40625 27.984375 
Q 45.40625 37.75 41.375 43.109375 
Q 37.359375 48.484375 30.078125 48.484375 
Q 22.859375 48.484375 18.828125 43.109375 
Q 14.796875 37.75 14.796875 27.984375 
Q 14.796875 18.265625 18.828125 12.890625 
Q 22.859375 7.515625 30.078125 7.515625 
Q 37.359375 7.515625 41.375 12.890625 
Q 45.40625 18.265625 45.40625 27.984375 
z
M 54.390625 6.78125 
Q 54.390625 -7.171875 48.1875 -13.984375 
Q 42 -20.796875 29.203125 -20.796875 
Q 24.46875 -20.796875 20.265625 -20.09375 
Q 16.0625 -19.390625 12.109375 -17.921875 
L 12.109375 -9.1875 
Q 16.0625 -11.328125 19.921875 -12.34375 
Q 23.78125 -13.375 27.78125 -13.375 
Q 36.625 -13.375 41.015625 -8.765625 
Q 45.40625 -4.15625 45.40625 5.171875 
L 45.40625 9.625 
Q 42.625 4.78125 38.28125 2.390625 
Q 33.9375 0 27.875 0 
Q 17.828125 0 11.671875 7.65625 
Q 5.515625 15.328125 5.515625 27.984375 
Q 5.515625 40.671875 11.671875 48.328125 
Q 17.828125 56 27.875 56 
Q 33.9375 56 38.28125 53.609375 
Q 42.625 51.21875 45.40625 46.390625 
L 45.40625 54.6875 
L 54.390625 54.6875 
z
" id="DejaVuSans-103"/>
    </defs>
    <g transform="translate(265.364063 41.042625)scale(0.12 -0.12)">
     <use xlink:href="#DejaVuSans-119"/>
     <use x="81.787109" xlink:href="#DejaVuSans-97"/>
     <use x="143.066406" xlink:href="#DejaVuSans-108"/>
     <use x="170.849609" xlink:href="#DejaVuSans-108"/>
     <use x="198.632812" xlink:href="#DejaVuSans-58"/>
     <use x="232.324219" xlink:href="#DejaVuSans-32"/>
     <use x="264.111328" xlink:href="#DejaVuSans-105"/>
     <use x="291.894531" xlink:href="#DejaVuSans-109"/>
     <use x="389.306641" xlink:href="#DejaVuSans-103"/>
     <use x="452.783203" xlink:href="#DejaVuSans-49"/>
     <use x="516.40625" xlink:href="#DejaVuSans-45"/>
     <use x="552.490234" xlink:href="#DejaVuSans-105"/>
     <use x="580.273438" xlink:href="#DejaVuSans-109"/>
     <use x="677.685547" xlink:href="#DejaVuSans-103"/>
     <use x="741.162109" xlink:href="#DejaVuSans-54"/>
    </g>
    <!-- NearestNeighbours -->
    <defs>
     <path d="M 9.8125 72.90625 
L 23.09375 72.90625 
L 55.421875 11.921875 
L 55.421875 72.90625 
L 64.984375 72.90625 
L 64.984375 0 
L 51.703125 0 
L 19.390625 60.984375 
L 19.390625 0 
L 9.8125 0 
z
" id="DejaVuSans-78"/>
     <path d="M 54.890625 33.015625 
L 54.890625 0 
L 45.90625 0 
L 45.90625 32.71875 
Q 45.90625 40.484375 42.875 44.328125 
Q 39.84375 48.1875 33.796875 48.1875 
Q 26.515625 48.1875 22.3125 43.546875 
Q 18.109375 38.921875 18.109375 30.90625 
L 18.109375 0 
L 9.078125 0 
L 9.078125 75.984375 
L 18.109375 75.984375 
L 18.109375 46.1875 
Q 21.34375 51.125 25.703125 53.5625 
Q 30.078125 56 35.796875 56 
Q 45.21875 56 50.046875 50.171875 
Q 54.890625 44.34375 54.890625 33.015625 
z
" id="DejaVuSans-104"/>
     <path d="M 48.6875 27.296875 
Q 48.6875 37.203125 44.609375 42.84375 
Q 40.53125 48.484375 33.40625 48.484375 
Q 26.265625 48.484375 22.1875 42.84375 
Q 18.109375 37.203125 18.109375 27.296875 
Q 18.109375 17.390625 22.1875 11.75 
Q 26.265625 6.109375 33.40625 6.109375 
Q 40.53125 6.109375 44.609375 11.75 
Q 48.6875 17.390625 48.6875 27.296875 
z
M 18.109375 46.390625 
Q 20.953125 51.265625 25.265625 53.625 
Q 29.59375 56 35.59375 56 
Q 45.5625 56 51.78125 48.09375 
Q 58.015625 40.1875 58.015625 27.296875 
Q 58.015625 14.40625 51.78125 6.484375 
Q 45.5625 -1.421875 35.59375 -1.421875 
Q 29.59375 -1.421875 25.265625 0.953125 
Q 20.953125 3.328125 18.109375 8.203125 
L 18.109375 0 
L 9.078125 0 
L 9.078125 75.984375 
L 18.109375 75.984375 
z
" id="DejaVuSans-98"/>
     <path d="M 8.5 21.578125 
L 8.5 54.6875 
L 17.484375 54.6875 
L 17.484375 21.921875 
Q 17.484375 14.15625 20.5 10.265625 
Q 23.53125 6.390625 29.59375 6.390625 
Q 36.859375 6.390625 41.078125 11.03125 
Q 45.3125 15.671875 45.3125 23.6875 
L 45.3125 54.6875 
L 54.296875 54.6875 
L 54.296875 0 
L 45.3125 0 
L 45.3125 8.40625 
Q 42.046875 3.421875 37.71875 1 
Q 33.40625 -1.421875 27.6875 -1.421875 
Q 18.265625 -1.421875 13.375 4.4375 
Q 8.5 10.296875 8.5 21.578125 
z
M 31.109375 56 
z
" id="DejaVuSans-117"/>
    </defs>
    <g transform="translate(255.957188 54.48)scale(0.12 -0.12)">
     <use xlink:href="#DejaVuSans-78"/>
     <use x="74.804688" xlink:href="#DejaVuSans-101"/>
     <use x="136.328125" xlink:href="#DejaVuSans-97"/>
     <use x="197.607422" xlink:href="#DejaVuSans-114"/>
     <use x="236.470703" xlink:href="#DejaVuSans-101"/>
     <use x="297.994141" xlink:href="#DejaVuSans-115"/>
     <use x="350.09375" xlink:href="#DejaVuSans-116"/>
     <use x="389.302734" xlink:href="#DejaVuSans-78"/>
     <use x="464.107422" xlink:href="#DejaVuSans-101"/>
     <use x="525.630859" xlink:href="#DejaVuSans-105"/>
     <use x="553.414062" xlink:href="#DejaVuSans-103"/>
     <use x="616.890625" xlink:href="#DejaVuSans-104"/>
     <use x="680.269531" xlink:href="#DejaVuSans-98"/>
     <use x="743.746094" xlink:href="#DejaVuSans-111"/>
     <use x="804.927734" xlink:href="#DejaVuSans-117"/>
     <use x="868.306641" xlink:href="#DejaVuSans-114"/>
     <use x="909.419922" xlink:href="#DejaVuSans-115"/>
    </g>
   </g>
   <g id="legend_1">
    <g id="patch_7">
     <path d="M 375.384375 112.514375 
L 543.8 112.514375 
Q 545.8 112.514375 545.8 110.514375 
L 545.8 67.48 
Q 545.8 65.48 543.8 65.48 
L 375.384375 65.48 
Q 373.384375 65.48 373.384375 67.48 
L 373.384375 110.514375 
Q 373.384375 112.514375 375.384375 112.514375 
z
" style="fill:#ffffff;opacity:0.8;stroke:#cccccc;stroke-linejoin:miter;"/>
    </g>
    <g id="line2d_48">
     <path d="M 377.384375 73.578438 
L 397.384375 73.578438 
" style="fill:none;stroke:#1f77b4;stroke-linecap:square;stroke-width:2;"/>
    </g>
    <g id="line2d_49"/>
    <g id="text_26">
     <!-- root-cvsift AP: 0.9, %In: 1.7 -->
     <defs>
      <path d="M 2.984375 54.6875 
L 12.5 54.6875 
L 29.59375 8.796875 
L 46.6875 54.6875 
L 56.203125 54.6875 
L 35.6875 0 
L 23.484375 0 
z
" id="DejaVuSans-118"/>
      <path d="M 37.109375 75.984375 
L 37.109375 68.5 
L 28.515625 68.5 
Q 23.6875 68.5 21.796875 66.546875 
Q 19.921875 64.59375 19.921875 59.515625 
L 19.921875 54.6875 
L 34.71875 54.6875 
L 34.71875 47.703125 
L 19.921875 47.703125 
L 19.921875 0 
L 10.890625 0 
L 10.890625 47.703125 
L 2.296875 47.703125 
L 2.296875 54.6875 
L 10.890625 54.6875 
L 10.890625 58.5 
Q 10.890625 67.625 15.140625 71.796875 
Q 19.390625 75.984375 28.609375 75.984375 
z
" id="DejaVuSans-102"/>
      <path d="M 34.1875 63.1875 
L 20.796875 26.90625 
L 47.609375 26.90625 
z
M 28.609375 72.90625 
L 39.796875 72.90625 
L 67.578125 0 
L 57.328125 0 
L 50.6875 18.703125 
L 17.828125 18.703125 
L 11.1875 0 
L 0.78125 0 
z
" id="DejaVuSans-65"/>
      <path d="M 19.671875 64.796875 
L 19.671875 37.40625 
L 32.078125 37.40625 
Q 38.96875 37.40625 42.71875 40.96875 
Q 46.484375 44.53125 46.484375 51.125 
Q 46.484375 57.671875 42.71875 61.234375 
Q 38.96875 64.796875 32.078125 64.796875 
z
M 9.8125 72.90625 
L 32.078125 72.90625 
Q 44.34375 72.90625 50.609375 67.359375 
Q 56.890625 61.8125 56.890625 51.125 
Q 56.890625 40.328125 50.609375 34.8125 
Q 44.34375 29.296875 32.078125 29.296875 
L 19.671875 29.296875 
L 19.671875 0 
L 9.8125 0 
z
" id="DejaVuSans-80"/>
      <path d="M 11.71875 12.40625 
L 22.015625 12.40625 
L 22.015625 4 
L 14.015625 -11.625 
L 7.71875 -11.625 
L 11.71875 4 
z
" id="DejaVuSans-44"/>
      <path d="M 72.703125 32.078125 
Q 68.453125 32.078125 66.03125 28.46875 
Q 63.625 24.859375 63.625 18.40625 
Q 63.625 12.0625 66.03125 8.421875 
Q 68.453125 4.78125 72.703125 4.78125 
Q 76.859375 4.78125 79.265625 8.421875 
Q 81.6875 12.0625 81.6875 18.40625 
Q 81.6875 24.8125 79.265625 28.4375 
Q 76.859375 32.078125 72.703125 32.078125 
z
M 72.703125 38.28125 
Q 80.421875 38.28125 84.953125 32.90625 
Q 89.5 27.546875 89.5 18.40625 
Q 89.5 9.28125 84.9375 3.921875 
Q 80.375 -1.421875 72.703125 -1.421875 
Q 64.890625 -1.421875 60.34375 3.921875 
Q 55.8125 9.28125 55.8125 18.40625 
Q 55.8125 27.59375 60.375 32.9375 
Q 64.9375 38.28125 72.703125 38.28125 
z
M 22.3125 68.015625 
Q 18.109375 68.015625 15.6875 64.375 
Q 13.28125 60.75 13.28125 54.390625 
Q 13.28125 47.953125 15.671875 44.328125 
Q 18.0625 40.71875 22.3125 40.71875 
Q 26.5625 40.71875 28.96875 44.328125 
Q 31.390625 47.953125 31.390625 54.390625 
Q 31.390625 60.6875 28.953125 64.34375 
Q 26.515625 68.015625 22.3125 68.015625 
z
M 66.40625 74.21875 
L 74.21875 74.21875 
L 28.609375 -1.421875 
L 20.796875 -1.421875 
z
M 22.3125 74.21875 
Q 30.03125 74.21875 34.609375 68.875 
Q 39.203125 63.53125 39.203125 54.390625 
Q 39.203125 45.171875 34.640625 39.84375 
Q 30.078125 34.515625 22.3125 34.515625 
Q 14.546875 34.515625 10.03125 39.859375 
Q 5.515625 45.21875 5.515625 54.390625 
Q 5.515625 63.484375 10.046875 68.84375 
Q 14.59375 74.21875 22.3125 74.21875 
z
" id="DejaVuSans-37"/>
      <path d="M 9.8125 72.90625 
L 19.671875 72.90625 
L 19.671875 0 
L 9.8125 0 
z
" id="DejaVuSans-73"/>
     </defs>
     <g transform="translate(405.384375 77.078438)scale(0.1 -0.1)">
      <use xlink:href="#DejaVuSans-114"/>
      <use x="38.863281" xlink:href="#DejaVuSans-111"/>
      <use x="100.044922" xlink:href="#DejaVuSans-111"/>
      <use x="161.226562" xlink:href="#DejaVuSans-116"/>
      <use x="200.435547" xlink:href="#DejaVuSans-45"/>
      <use x="236.519531" xlink:href="#DejaVuSans-99"/>
      <use x="291.5" xlink:href="#DejaVuSans-118"/>
      <use x="350.679688" xlink:href="#DejaVuSans-115"/>
      <use x="402.779297" xlink:href="#DejaVuSans-105"/>
      <use x="430.5625" xlink:href="#DejaVuSans-102"/>
      <use x="464.017578" xlink:href="#DejaVuSans-116"/>
      <use x="503.226562" xlink:href="#DejaVuSans-32"/>
      <use x="535.013672" xlink:href="#DejaVuSans-65"/>
      <use x="603.421875" xlink:href="#DejaVuSans-80"/>
      <use x="663.724609" xlink:href="#DejaVuSans-58"/>
      <use x="697.416016" xlink:href="#DejaVuSans-32"/>
      <use x="729.203125" xlink:href="#DejaVuSans-48"/>
      <use x="792.826172" xlink:href="#DejaVuSans-46"/>
      <use x="824.613281" xlink:href="#DejaVuSans-57"/>
      <use x="888.236328" xlink:href="#DejaVuSans-44"/>
      <use x="920.023438" xlink:href="#DejaVuSans-32"/>
      <use x="951.810547" xlink:href="#DejaVuSans-37"/>
      <use x="1046.830078" xlink:href="#DejaVuSans-73"/>
      <use x="1076.322266" xlink:href="#DejaVuSans-110"/>
      <use x="1139.701172" xlink:href="#DejaVuSans-58"/>
      <use x="1173.392578" xlink:href="#DejaVuSans-32"/>
      <use x="1205.179688" xlink:href="#DejaVuSans-49"/>
      <use x="1268.802734" xlink:href="#DejaVuSans-46"/>
      <use x="1300.589844" xlink:href="#DejaVuSans-55"/>
     </g>
    </g>
    <g id="line2d_50">
     <path d="M 377.384375 88.256563 
L 397.384375 88.256563 
" style="fill:none;stroke:#ff7f0e;stroke-linecap:square;stroke-width:2;"/>
    </g>
    <g id="line2d_51"/>
    <g id="text_27">
     <!-- tfeat AP: 0.2, %In: 1.1 -->
     <g transform="translate(405.384375 91.756563)scale(0.1 -0.1)">
      <use xlink:href="#DejaVuSans-116"/>
      <use x="39.208984" xlink:href="#DejaVuSans-102"/>
      <use x="74.414062" xlink:href="#DejaVuSans-101"/>
      <use x="135.9375" xlink:href="#DejaVuSans-97"/>
      <use x="197.216797" xlink:href="#DejaVuSans-116"/>
      <use x="236.425781" xlink:href="#DejaVuSans-32"/>
      <use x="268.212891" xlink:href="#DejaVuSans-65"/>
      <use x="336.621094" xlink:href="#DejaVuSans-80"/>
      <use x="396.923828" xlink:href="#DejaVuSans-58"/>
      <use x="430.615234" xlink:href="#DejaVuSans-32"/>
      <use x="462.402344" xlink:href="#DejaVuSans-48"/>
      <use x="526.025391" xlink:href="#DejaVuSans-46"/>
      <use x="557.8125" xlink:href="#DejaVuSans-50"/>
      <use x="621.435547" xlink:href="#DejaVuSans-44"/>
      <use x="653.222656" xlink:href="#DejaVuSans-32"/>
      <use x="685.009766" xlink:href="#DejaVuSans-37"/>
      <use x="780.029297" xlink:href="#DejaVuSans-73"/>
      <use x="809.521484" xlink:href="#DejaVuSans-110"/>
      <use x="872.900391" xlink:href="#DejaVuSans-58"/>
      <use x="906.591797" xlink:href="#DejaVuSans-32"/>
      <use x="938.378906" xlink:href="#DejaVuSans-49"/>
      <use x="1002.001953" xlink:href="#DejaVuSans-46"/>
      <use x="1033.789062" xlink:href="#DejaVuSans-49"/>
     </g>
    </g>
    <g id="line2d_52">
     <path d="M 377.384375 102.934687 
L 397.384375 102.934687 
" style="fill:none;stroke:#2ca02c;stroke-linecap:square;stroke-width:2;"/>
    </g>
    <g id="line2d_53"/>
    <g id="text_28">
     <!-- hardnet AP: 7.7, %In: 3.8 -->
     <defs>
      <path d="M 45.40625 46.390625 
L 45.40625 75.984375 
L 54.390625 75.984375 
L 54.390625 0 
L 45.40625 0 
L 45.40625 8.203125 
Q 42.578125 3.328125 38.25 0.953125 
Q 33.9375 -1.421875 27.875 -1.421875 
Q 17.96875 -1.421875 11.734375 6.484375 
Q 5.515625 14.40625 5.515625 27.296875 
Q 5.515625 40.1875 11.734375 48.09375 
Q 17.96875 56 27.875 56 
Q 33.9375 56 38.25 53.625 
Q 42.578125 51.265625 45.40625 46.390625 
z
M 14.796875 27.296875 
Q 14.796875 17.390625 18.875 11.75 
Q 22.953125 6.109375 30.078125 6.109375 
Q 37.203125 6.109375 41.296875 11.75 
Q 45.40625 17.390625 45.40625 27.296875 
Q 45.40625 37.203125 41.296875 42.84375 
Q 37.203125 48.484375 30.078125 48.484375 
Q 22.953125 48.484375 18.875 42.84375 
Q 14.796875 37.203125 14.796875 27.296875 
z
" id="DejaVuSans-100"/>
     </defs>
     <g transform="translate(405.384375 106.434687)scale(0.1 -0.1)">
      <use xlink:href="#DejaVuSans-104"/>
      <use x="63.378906" xlink:href="#DejaVuSans-97"/>
      <use x="124.658203" xlink:href="#DejaVuSans-114"/>
      <use x="164.021484" xlink:href="#DejaVuSans-100"/>
      <use x="227.498047" xlink:href="#DejaVuSans-110"/>
      <use x="290.876953" xlink:href="#DejaVuSans-101"/>
      <use x="352.400391" xlink:href="#DejaVuSans-116"/>
      <use x="391.609375" xlink:href="#DejaVuSans-32"/>
      <use x="423.396484" xlink:href="#DejaVuSans-65"/>
      <use x="491.804688" xlink:href="#DejaVuSans-80"/>
      <use x="552.107422" xlink:href="#DejaVuSans-58"/>
      <use x="585.798828" xlink:href="#DejaVuSans-32"/>
      <use x="617.585938" xlink:href="#DejaVuSans-55"/>
      <use x="681.208984" xlink:href="#DejaVuSans-46"/>
      <use x="712.996094" xlink:href="#DejaVuSans-55"/>
      <use x="776.619141" xlink:href="#DejaVuSans-44"/>
      <use x="808.40625" xlink:href="#DejaVuSans-32"/>
      <use x="840.193359" xlink:href="#DejaVuSans-37"/>
      <use x="935.212891" xlink:href="#DejaVuSans-73"/>
      <use x="964.705078" xlink:href="#DejaVuSans-110"/>
      <use x="1028.083984" xlink:href="#DejaVuSans-58"/>
      <use x="1061.775391" xlink:href="#DejaVuSans-32"/>
      <use x="1093.5625" xlink:href="#DejaVuSans-51"/>
      <use x="1157.185547" xlink:href="#DejaVuSans-46"/>
      <use x="1188.972656" xlink:href="#DejaVuSans-56"/>
     </g>
    </g>
   </g>
  </g>
 </g>
 <defs>
  <clipPath id="p1edce03858">
   <rect height="388.08" width="474.3" x="76.5" y="60.48"/>
  </clipPath>
 </defs>
</svg>
