<?xml version="1.0" encoding="utf-8" standalone="no"?>
<!DOCTYPE svg PUBLIC "-//W3C//DTD SVG 1.1//EN"
  "http://www.w3.org/Graphics/SVG/1.1/DTD/svg11.dtd">
<!-- Created with matplotlib (https://matplotlib.org/) -->
<svg height="504pt" version="1.1" viewBox="0 0 612 504" width="612pt" xmlns="http://www.w3.org/2000/svg" xmlns:xlink="http://www.w3.org/1999/xlink">
 <defs>
  <style type="text/css">
*{stroke-linecap:butt;stroke-linejoin:round;}
  </style>
 </defs>
 <g id="figure_1">
  <g id="patch_1">
   <path d="M 0 504 
L 612 504 
L 612 0 
L 0 0 
z
" style="fill:#ffffff;"/>
  </g>
  <g id="axes_1">
   <g id="patch_2">
    <path d="M 76.5 448.56 
L 550.8 448.56 
L 550.8 60.48 
L 76.5 60.48 
z
" style="fill:#ffffff;"/>
   </g>
   <g id="matplotlib.axis_1">
    <g id="xtick_1">
     <g id="line2d_1">
      <path clip-path="url(#p95a459d382)" d="M 76.5 448.56 
L 76.5 60.48 
" style="fill:none;stroke:#b0b0b0;stroke-linecap:square;stroke-width:0.8;"/>
     </g>
     <g id="line2d_2">
      <defs>
       <path d="M 0 0 
L 0 3.5 
" id="mef236c8620" style="stroke:#000000;stroke-width:0.8;"/>
      </defs>
      <g>
       <use style="stroke:#000000;stroke-width:0.8;" x="76.5" xlink:href="#mef236c8620" y="448.56"/>
      </g>
     </g>
     <g id="text_1">
      <!-- 0.0 -->
      <defs>
       <path d="M 31.78125 66.40625 
Q 24.171875 66.40625 20.328125 58.90625 
Q 16.5 51.421875 16.5 36.375 
Q 16.5 21.390625 20.328125 13.890625 
Q 24.171875 6.390625 31.78125 6.390625 
Q 39.453125 6.390625 43.28125 13.890625 
Q 47.125 21.390625 47.125 36.375 
Q 47.125 51.421875 43.28125 58.90625 
Q 39.453125 66.40625 31.78125 66.40625 
z
M 31.78125 74.21875 
Q 44.046875 74.21875 50.515625 64.515625 
Q 56.984375 54.828125 56.984375 36.375 
Q 56.984375 17.96875 50.515625 8.265625 
Q 44.046875 -1.421875 31.78125 -1.421875 
Q 19.53125 -1.421875 13.0625 8.265625 
Q 6.59375 17.96875 6.59375 36.375 
Q 6.59375 54.828125 13.0625 64.515625 
Q 19.53125 74.21875 31.78125 74.21875 
z
" id="DejaVuSans-48"/>
       <path d="M 10.6875 12.40625 
L 21 12.40625 
L 21 0 
L 10.6875 0 
z
" id="DejaVuSans-46"/>
      </defs>
      <g transform="translate(68.548438 463.158437)scale(0.1 -0.1)">
       <use xlink:href="#DejaVuSans-48"/>
       <use x="63.623047" xlink:href="#DejaVuSans-46"/>
       <use x="95.410156" xlink:href="#DejaVuSans-48"/>
      </g>
     </g>
    </g>
    <g id="xtick_2">
     <g id="line2d_3">
      <path clip-path="url(#p95a459d382)" d="M 123.93 448.56 
L 123.93 60.48 
" style="fill:none;stroke:#b0b0b0;stroke-linecap:square;stroke-width:0.8;"/>
     </g>
     <g id="line2d_4">
      <g>
       <use style="stroke:#000000;stroke-width:0.8;" x="123.93" xlink:href="#mef236c8620" y="448.56"/>
      </g>
     </g>
     <g id="text_2">
      <!-- 0.1 -->
      <defs>
       <path d="M 12.40625 8.296875 
L 28.515625 8.296875 
L 28.515625 63.921875 
L 10.984375 60.40625 
L 10.984375 69.390625 
L 28.421875 72.90625 
L 38.28125 72.90625 
L 38.28125 8.296875 
L 54.390625 8.296875 
L 54.390625 0 
L 12.40625 0 
z
" id="DejaVuSans-49"/>
      </defs>
      <g transform="translate(115.978438 463.158437)scale(0.1 -0.1)">
       <use xlink:href="#DejaVuSans-48"/>
       <use x="63.623047" xlink:href="#DejaVuSans-46"/>
       <use x="95.410156" xlink:href="#DejaVuSans-49"/>
      </g>
     </g>
    </g>
    <g id="xtick_3">
     <g id="line2d_5">
      <path clip-path="url(#p95a459d382)" d="M 171.36 448.56 
L 171.36 60.48 
" style="fill:none;stroke:#b0b0b0;stroke-linecap:square;stroke-width:0.8;"/>
     </g>
     <g id="line2d_6">
      <g>
       <use style="stroke:#000000;stroke-width:0.8;" x="171.36" xlink:href="#mef236c8620" y="448.56"/>
      </g>
     </g>
     <g id="text_3">
      <!-- 0.2 -->
      <defs>
       <path d="M 19.1875 8.296875 
L 53.609375 8.296875 
L 53.609375 0 
L 7.328125 0 
L 7.328125 8.296875 
Q 12.9375 14.109375 22.625 23.890625 
Q 32.328125 33.6875 34.8125 36.53125 
Q 39.546875 41.84375 41.421875 45.53125 
Q 43.3125 49.21875 43.3125 52.78125 
Q 43.3125 58.59375 39.234375 62.25 
Q 35.15625 65.921875 28.609375 65.921875 
Q 23.96875 65.921875 18.8125 64.3125 
Q 13.671875 62.703125 7.8125 59.421875 
L 7.8125 69.390625 
Q 13.765625 71.78125 18.9375 73 
Q 24.125 74.21875 28.421875 74.21875 
Q 39.75 74.21875 46.484375 68.546875 
Q 53.21875 62.890625 53.21875 53.421875 
Q 53.21875 48.921875 51.53125 44.890625 
Q 49.859375 40.875 45.40625 35.40625 
Q 44.1875 33.984375 37.640625 27.21875 
Q 31.109375 20.453125 19.1875 8.296875 
z
" id="DejaVuSans-50"/>
      </defs>
      <g transform="translate(163.408438 463.158437)scale(0.1 -0.1)">
       <use xlink:href="#DejaVuSans-48"/>
       <use x="63.623047" xlink:href="#DejaVuSans-46"/>
       <use x="95.410156" xlink:href="#DejaVuSans-50"/>
      </g>
     </g>
    </g>
    <g id="xtick_4">
     <g id="line2d_7">
      <path clip-path="url(#p95a459d382)" d="M 218.79 448.56 
L 218.79 60.48 
" style="fill:none;stroke:#b0b0b0;stroke-linecap:square;stroke-width:0.8;"/>
     </g>
     <g id="line2d_8">
      <g>
       <use style="stroke:#000000;stroke-width:0.8;" x="218.79" xlink:href="#mef236c8620" y="448.56"/>
      </g>
     </g>
     <g id="text_4">
      <!-- 0.3 -->
      <defs>
       <path d="M 40.578125 39.3125 
Q 47.65625 37.796875 51.625 33 
Q 55.609375 28.21875 55.609375 21.1875 
Q 55.609375 10.40625 48.1875 4.484375 
Q 40.765625 -1.421875 27.09375 -1.421875 
Q 22.515625 -1.421875 17.65625 -0.515625 
Q 12.796875 0.390625 7.625 2.203125 
L 7.625 11.71875 
Q 11.71875 9.328125 16.59375 8.109375 
Q 21.484375 6.890625 26.8125 6.890625 
Q 36.078125 6.890625 40.9375 10.546875 
Q 45.796875 14.203125 45.796875 21.1875 
Q 45.796875 27.640625 41.28125 31.265625 
Q 36.765625 34.90625 28.71875 34.90625 
L 20.21875 34.90625 
L 20.21875 43.015625 
L 29.109375 43.015625 
Q 36.375 43.015625 40.234375 45.921875 
Q 44.09375 48.828125 44.09375 54.296875 
Q 44.09375 59.90625 40.109375 62.90625 
Q 36.140625 65.921875 28.71875 65.921875 
Q 24.65625 65.921875 20.015625 65.03125 
Q 15.375 64.15625 9.8125 62.3125 
L 9.8125 71.09375 
Q 15.4375 72.65625 20.34375 73.4375 
Q 25.25 74.21875 29.59375 74.21875 
Q 40.828125 74.21875 47.359375 69.109375 
Q 53.90625 64.015625 53.90625 55.328125 
Q 53.90625 49.265625 50.4375 45.09375 
Q 46.96875 40.921875 40.578125 39.3125 
z
" id="DejaVuSans-51"/>
      </defs>
      <g transform="translate(210.838438 463.158437)scale(0.1 -0.1)">
       <use xlink:href="#DejaVuSans-48"/>
       <use x="63.623047" xlink:href="#DejaVuSans-46"/>
       <use x="95.410156" xlink:href="#DejaVuSans-51"/>
      </g>
     </g>
    </g>
    <g id="xtick_5">
     <g id="line2d_9">
      <path clip-path="url(#p95a459d382)" d="M 266.22 448.56 
L 266.22 60.48 
" style="fill:none;stroke:#b0b0b0;stroke-linecap:square;stroke-width:0.8;"/>
     </g>
     <g id="line2d_10">
      <g>
       <use style="stroke:#000000;stroke-width:0.8;" x="266.22" xlink:href="#mef236c8620" y="448.56"/>
      </g>
     </g>
     <g id="text_5">
      <!-- 0.4 -->
      <defs>
       <path d="M 37.796875 64.3125 
L 12.890625 25.390625 
L 37.796875 25.390625 
z
M 35.203125 72.90625 
L 47.609375 72.90625 
L 47.609375 25.390625 
L 58.015625 25.390625 
L 58.015625 17.1875 
L 47.609375 17.1875 
L 47.609375 0 
L 37.796875 0 
L 37.796875 17.1875 
L 4.890625 17.1875 
L 4.890625 26.703125 
z
" id="DejaVuSans-52"/>
      </defs>
      <g transform="translate(258.268438 463.158437)scale(0.1 -0.1)">
       <use xlink:href="#DejaVuSans-48"/>
       <use x="63.623047" xlink:href="#DejaVuSans-46"/>
       <use x="95.410156" xlink:href="#DejaVuSans-52"/>
      </g>
     </g>
    </g>
    <g id="xtick_6">
     <g id="line2d_11">
      <path clip-path="url(#p95a459d382)" d="M 313.65 448.56 
L 313.65 60.48 
" style="fill:none;stroke:#b0b0b0;stroke-linecap:square;stroke-width:0.8;"/>
     </g>
     <g id="line2d_12">
      <g>
       <use style="stroke:#000000;stroke-width:0.8;" x="313.65" xlink:href="#mef236c8620" y="448.56"/>
      </g>
     </g>
     <g id="text_6">
      <!-- 0.5 -->
      <defs>
       <path d="M 10.796875 72.90625 
L 49.515625 72.90625 
L 49.515625 64.59375 
L 19.828125 64.59375 
L 19.828125 46.734375 
Q 21.96875 47.46875 24.109375 47.828125 
Q 26.265625 48.1875 28.421875 48.1875 
Q 40.625 48.1875 47.75 41.5 
Q 54.890625 34.8125 54.890625 23.390625 
Q 54.890625 11.625 47.5625 5.09375 
Q 40.234375 -1.421875 26.90625 -1.421875 
Q 22.3125 -1.421875 17.546875 -0.640625 
Q 12.796875 0.140625 7.71875 1.703125 
L 7.71875 11.625 
Q 12.109375 9.234375 16.796875 8.0625 
Q 21.484375 6.890625 26.703125 6.890625 
Q 35.15625 6.890625 40.078125 11.328125 
Q 45.015625 15.765625 45.015625 23.390625 
Q 45.015625 31 40.078125 35.4375 
Q 35.15625 39.890625 26.703125 39.890625 
Q 22.75 39.890625 18.8125 39.015625 
Q 14.890625 38.140625 10.796875 36.28125 
z
" id="DejaVuSans-53"/>
      </defs>
      <g transform="translate(305.698438 463.158437)scale(0.1 -0.1)">
       <use xlink:href="#DejaVuSans-48"/>
       <use x="63.623047" xlink:href="#DejaVuSans-46"/>
       <use x="95.410156" xlink:href="#DejaVuSans-53"/>
      </g>
     </g>
    </g>
    <g id="xtick_7">
     <g id="line2d_13">
      <path clip-path="url(#p95a459d382)" d="M 361.08 448.56 
L 361.08 60.48 
" style="fill:none;stroke:#b0b0b0;stroke-linecap:square;stroke-width:0.8;"/>
     </g>
     <g id="line2d_14">
      <g>
       <use style="stroke:#000000;stroke-width:0.8;" x="361.08" xlink:href="#mef236c8620" y="448.56"/>
      </g>
     </g>
     <g id="text_7">
      <!-- 0.6 -->
      <defs>
       <path d="M 33.015625 40.375 
Q 26.375 40.375 22.484375 35.828125 
Q 18.609375 31.296875 18.609375 23.390625 
Q 18.609375 15.53125 22.484375 10.953125 
Q 26.375 6.390625 33.015625 6.390625 
Q 39.65625 6.390625 43.53125 10.953125 
Q 47.40625 15.53125 47.40625 23.390625 
Q 47.40625 31.296875 43.53125 35.828125 
Q 39.65625 40.375 33.015625 40.375 
z
M 52.59375 71.296875 
L 52.59375 62.3125 
Q 48.875 64.0625 45.09375 64.984375 
Q 41.3125 65.921875 37.59375 65.921875 
Q 27.828125 65.921875 22.671875 59.328125 
Q 17.53125 52.734375 16.796875 39.40625 
Q 19.671875 43.65625 24.015625 45.921875 
Q 28.375 48.1875 33.59375 48.1875 
Q 44.578125 48.1875 50.953125 41.515625 
Q 57.328125 34.859375 57.328125 23.390625 
Q 57.328125 12.15625 50.6875 5.359375 
Q 44.046875 -1.421875 33.015625 -1.421875 
Q 20.359375 -1.421875 13.671875 8.265625 
Q 6.984375 17.96875 6.984375 36.375 
Q 6.984375 53.65625 15.1875 63.9375 
Q 23.390625 74.21875 37.203125 74.21875 
Q 40.921875 74.21875 44.703125 73.484375 
Q 48.484375 72.75 52.59375 71.296875 
z
" id="DejaVuSans-54"/>
      </defs>
      <g transform="translate(353.128438 463.158437)scale(0.1 -0.1)">
       <use xlink:href="#DejaVuSans-48"/>
       <use x="63.623047" xlink:href="#DejaVuSans-46"/>
       <use x="95.410156" xlink:href="#DejaVuSans-54"/>
      </g>
     </g>
    </g>
    <g id="xtick_8">
     <g id="line2d_15">
      <path clip-path="url(#p95a459d382)" d="M 408.51 448.56 
L 408.51 60.48 
" style="fill:none;stroke:#b0b0b0;stroke-linecap:square;stroke-width:0.8;"/>
     </g>
     <g id="line2d_16">
      <g>
       <use style="stroke:#000000;stroke-width:0.8;" x="408.51" xlink:href="#mef236c8620" y="448.56"/>
      </g>
     </g>
     <g id="text_8">
      <!-- 0.7 -->
      <defs>
       <path d="M 8.203125 72.90625 
L 55.078125 72.90625 
L 55.078125 68.703125 
L 28.609375 0 
L 18.3125 0 
L 43.21875 64.59375 
L 8.203125 64.59375 
z
" id="DejaVuSans-55"/>
      </defs>
      <g transform="translate(400.558438 463.158437)scale(0.1 -0.1)">
       <use xlink:href="#DejaVuSans-48"/>
       <use x="63.623047" xlink:href="#DejaVuSans-46"/>
       <use x="95.410156" xlink:href="#DejaVuSans-55"/>
      </g>
     </g>
    </g>
    <g id="xtick_9">
     <g id="line2d_17">
      <path clip-path="url(#p95a459d382)" d="M 455.94 448.56 
L 455.94 60.48 
" style="fill:none;stroke:#b0b0b0;stroke-linecap:square;stroke-width:0.8;"/>
     </g>
     <g id="line2d_18">
      <g>
       <use style="stroke:#000000;stroke-width:0.8;" x="455.94" xlink:href="#mef236c8620" y="448.56"/>
      </g>
     </g>
     <g id="text_9">
      <!-- 0.8 -->
      <defs>
       <path d="M 31.78125 34.625 
Q 24.75 34.625 20.71875 30.859375 
Q 16.703125 27.09375 16.703125 20.515625 
Q 16.703125 13.921875 20.71875 10.15625 
Q 24.75 6.390625 31.78125 6.390625 
Q 38.8125 6.390625 42.859375 10.171875 
Q 46.921875 13.96875 46.921875 20.515625 
Q 46.921875 27.09375 42.890625 30.859375 
Q 38.875 34.625 31.78125 34.625 
z
M 21.921875 38.8125 
Q 15.578125 40.375 12.03125 44.71875 
Q 8.5 49.078125 8.5 55.328125 
Q 8.5 64.0625 14.71875 69.140625 
Q 20.953125 74.21875 31.78125 74.21875 
Q 42.671875 74.21875 48.875 69.140625 
Q 55.078125 64.0625 55.078125 55.328125 
Q 55.078125 49.078125 51.53125 44.71875 
Q 48 40.375 41.703125 38.8125 
Q 48.828125 37.15625 52.796875 32.3125 
Q 56.78125 27.484375 56.78125 20.515625 
Q 56.78125 9.90625 50.3125 4.234375 
Q 43.84375 -1.421875 31.78125 -1.421875 
Q 19.734375 -1.421875 13.25 4.234375 
Q 6.78125 9.90625 6.78125 20.515625 
Q 6.78125 27.484375 10.78125 32.3125 
Q 14.796875 37.15625 21.921875 38.8125 
z
M 18.3125 54.390625 
Q 18.3125 48.734375 21.84375 45.5625 
Q 25.390625 42.390625 31.78125 42.390625 
Q 38.140625 42.390625 41.71875 45.5625 
Q 45.3125 48.734375 45.3125 54.390625 
Q 45.3125 60.0625 41.71875 63.234375 
Q 38.140625 66.40625 31.78125 66.40625 
Q 25.390625 66.40625 21.84375 63.234375 
Q 18.3125 60.0625 18.3125 54.390625 
z
" id="DejaVuSans-56"/>
      </defs>
      <g transform="translate(447.988438 463.158437)scale(0.1 -0.1)">
       <use xlink:href="#DejaVuSans-48"/>
       <use x="63.623047" xlink:href="#DejaVuSans-46"/>
       <use x="95.410156" xlink:href="#DejaVuSans-56"/>
      </g>
     </g>
    </g>
    <g id="xtick_10">
     <g id="line2d_19">
      <path clip-path="url(#p95a459d382)" d="M 503.37 448.56 
L 503.37 60.48 
" style="fill:none;stroke:#b0b0b0;stroke-linecap:square;stroke-width:0.8;"/>
     </g>
     <g id="line2d_20">
      <g>
       <use style="stroke:#000000;stroke-width:0.8;" x="503.37" xlink:href="#mef236c8620" y="448.56"/>
      </g>
     </g>
     <g id="text_10">
      <!-- 0.9 -->
      <defs>
       <path d="M 10.984375 1.515625 
L 10.984375 10.5 
Q 14.703125 8.734375 18.5 7.8125 
Q 22.3125 6.890625 25.984375 6.890625 
Q 35.75 6.890625 40.890625 13.453125 
Q 46.046875 20.015625 46.78125 33.40625 
Q 43.953125 29.203125 39.59375 26.953125 
Q 35.25 24.703125 29.984375 24.703125 
Q 19.046875 24.703125 12.671875 31.3125 
Q 6.296875 37.9375 6.296875 49.421875 
Q 6.296875 60.640625 12.9375 67.421875 
Q 19.578125 74.21875 30.609375 74.21875 
Q 43.265625 74.21875 49.921875 64.515625 
Q 56.59375 54.828125 56.59375 36.375 
Q 56.59375 19.140625 48.40625 8.859375 
Q 40.234375 -1.421875 26.421875 -1.421875 
Q 22.703125 -1.421875 18.890625 -0.6875 
Q 15.09375 0.046875 10.984375 1.515625 
z
M 30.609375 32.421875 
Q 37.25 32.421875 41.125 36.953125 
Q 45.015625 41.5 45.015625 49.421875 
Q 45.015625 57.28125 41.125 61.84375 
Q 37.25 66.40625 30.609375 66.40625 
Q 23.96875 66.40625 20.09375 61.84375 
Q 16.21875 57.28125 16.21875 49.421875 
Q 16.21875 41.5 20.09375 36.953125 
Q 23.96875 32.421875 30.609375 32.421875 
z
" id="DejaVuSans-57"/>
      </defs>
      <g transform="translate(495.418438 463.158437)scale(0.1 -0.1)">
       <use xlink:href="#DejaVuSans-48"/>
       <use x="63.623047" xlink:href="#DejaVuSans-46"/>
       <use x="95.410156" xlink:href="#DejaVuSans-57"/>
      </g>
     </g>
    </g>
    <g id="xtick_11">
     <g id="line2d_21">
      <path clip-path="url(#p95a459d382)" d="M 550.8 448.56 
L 550.8 60.48 
" style="fill:none;stroke:#b0b0b0;stroke-linecap:square;stroke-width:0.8;"/>
     </g>
     <g id="line2d_22">
      <g>
       <use style="stroke:#000000;stroke-width:0.8;" x="550.8" xlink:href="#mef236c8620" y="448.56"/>
      </g>
     </g>
     <g id="text_11">
      <!-- 1.0 -->
      <g transform="translate(542.848438 463.158437)scale(0.1 -0.1)">
       <use xlink:href="#DejaVuSans-49"/>
       <use x="63.623047" xlink:href="#DejaVuSans-46"/>
       <use x="95.410156" xlink:href="#DejaVuSans-48"/>
      </g>
     </g>
    </g>
    <g id="text_12">
     <!-- 1-precision -->
     <defs>
      <path d="M 4.890625 31.390625 
L 31.203125 31.390625 
L 31.203125 23.390625 
L 4.890625 23.390625 
z
" id="DejaVuSans-45"/>
      <path d="M 18.109375 8.203125 
L 18.109375 -20.796875 
L 9.078125 -20.796875 
L 9.078125 54.6875 
L 18.109375 54.6875 
L 18.109375 46.390625 
Q 20.953125 51.265625 25.265625 53.625 
Q 29.59375 56 35.59375 56 
Q 45.5625 56 51.78125 48.09375 
Q 58.015625 40.1875 58.015625 27.296875 
Q 58.015625 14.40625 51.78125 6.484375 
Q 45.5625 -1.421875 35.59375 -1.421875 
Q 29.59375 -1.421875 25.265625 0.953125 
Q 20.953125 3.328125 18.109375 8.203125 
z
M 48.6875 27.296875 
Q 48.6875 37.203125 44.609375 42.84375 
Q 40.53125 48.484375 33.40625 48.484375 
Q 26.265625 48.484375 22.1875 42.84375 
Q 18.109375 37.203125 18.109375 27.296875 
Q 18.109375 17.390625 22.1875 11.75 
Q 26.265625 6.109375 33.40625 6.109375 
Q 40.53125 6.109375 44.609375 11.75 
Q 48.6875 17.390625 48.6875 27.296875 
z
" id="DejaVuSans-112"/>
      <path d="M 41.109375 46.296875 
Q 39.59375 47.171875 37.8125 47.578125 
Q 36.03125 48 33.890625 48 
Q 26.265625 48 22.1875 43.046875 
Q 18.109375 38.09375 18.109375 28.8125 
L 18.109375 0 
L 9.078125 0 
L 9.078125 54.6875 
L 18.109375 54.6875 
L 18.109375 46.1875 
Q 20.953125 51.171875 25.484375 53.578125 
Q 30.03125 56 36.53125 56 
Q 37.453125 56 38.578125 55.875 
Q 39.703125 55.765625 41.0625 55.515625 
z
" id="DejaVuSans-114"/>
      <path d="M 56.203125 29.59375 
L 56.203125 25.203125 
L 14.890625 25.203125 
Q 15.484375 15.921875 20.484375 11.0625 
Q 25.484375 6.203125 34.421875 6.203125 
Q 39.59375 6.203125 44.453125 7.46875 
Q 49.3125 8.734375 54.109375 11.28125 
L 54.109375 2.78125 
Q 49.265625 0.734375 44.1875 -0.34375 
Q 39.109375 -1.421875 33.890625 -1.421875 
Q 20.796875 -1.421875 13.15625 6.1875 
Q 5.515625 13.8125 5.515625 26.8125 
Q 5.515625 40.234375 12.765625 48.109375 
Q 20.015625 56 32.328125 56 
Q 43.359375 56 49.78125 48.890625 
Q 56.203125 41.796875 56.203125 29.59375 
z
M 47.21875 32.234375 
Q 47.125 39.59375 43.09375 43.984375 
Q 39.0625 48.390625 32.421875 48.390625 
Q 24.90625 48.390625 20.390625 44.140625 
Q 15.875 39.890625 15.1875 32.171875 
z
" id="DejaVuSans-101"/>
      <path d="M 48.78125 52.59375 
L 48.78125 44.1875 
Q 44.96875 46.296875 41.140625 47.34375 
Q 37.3125 48.390625 33.40625 48.390625 
Q 24.65625 48.390625 19.8125 42.84375 
Q 14.984375 37.3125 14.984375 27.296875 
Q 14.984375 17.28125 19.8125 11.734375 
Q 24.65625 6.203125 33.40625 6.203125 
Q 37.3125 6.203125 41.140625 7.25 
Q 44.96875 8.296875 48.78125 10.40625 
L 48.78125 2.09375 
Q 45.015625 0.34375 40.984375 -0.53125 
Q 36.96875 -1.421875 32.421875 -1.421875 
Q 20.0625 -1.421875 12.78125 6.34375 
Q 5.515625 14.109375 5.515625 27.296875 
Q 5.515625 40.671875 12.859375 48.328125 
Q 20.21875 56 33.015625 56 
Q 37.15625 56 41.109375 55.140625 
Q 45.0625 54.296875 48.78125 52.59375 
z
" id="DejaVuSans-99"/>
      <path d="M 9.421875 54.6875 
L 18.40625 54.6875 
L 18.40625 0 
L 9.421875 0 
z
M 9.421875 75.984375 
L 18.40625 75.984375 
L 18.40625 64.59375 
L 9.421875 64.59375 
z
" id="DejaVuSans-105"/>
      <path d="M 44.28125 53.078125 
L 44.28125 44.578125 
Q 40.484375 46.53125 36.375 47.5 
Q 32.28125 48.484375 27.875 48.484375 
Q 21.1875 48.484375 17.84375 46.4375 
Q 14.5 44.390625 14.5 40.28125 
Q 14.5 37.15625 16.890625 35.375 
Q 19.28125 33.59375 26.515625 31.984375 
L 29.59375 31.296875 
Q 39.15625 29.25 43.1875 25.515625 
Q 47.21875 21.78125 47.21875 15.09375 
Q 47.21875 7.46875 41.1875 3.015625 
Q 35.15625 -1.421875 24.609375 -1.421875 
Q 20.21875 -1.421875 15.453125 -0.5625 
Q 10.6875 0.296875 5.421875 2 
L 5.421875 11.28125 
Q 10.40625 8.6875 15.234375 7.390625 
Q 20.0625 6.109375 24.8125 6.109375 
Q 31.15625 6.109375 34.5625 8.28125 
Q 37.984375 10.453125 37.984375 14.40625 
Q 37.984375 18.0625 35.515625 20.015625 
Q 33.0625 21.96875 24.703125 23.78125 
L 21.578125 24.515625 
Q 13.234375 26.265625 9.515625 29.90625 
Q 5.8125 33.546875 5.8125 39.890625 
Q 5.8125 47.609375 11.28125 51.796875 
Q 16.75 56 26.8125 56 
Q 31.78125 56 36.171875 55.265625 
Q 40.578125 54.546875 44.28125 53.078125 
z
" id="DejaVuSans-115"/>
      <path d="M 30.609375 48.390625 
Q 23.390625 48.390625 19.1875 42.75 
Q 14.984375 37.109375 14.984375 27.296875 
Q 14.984375 17.484375 19.15625 11.84375 
Q 23.34375 6.203125 30.609375 6.203125 
Q 37.796875 6.203125 41.984375 11.859375 
Q 46.1875 17.53125 46.1875 27.296875 
Q 46.1875 37.015625 41.984375 42.703125 
Q 37.796875 48.390625 30.609375 48.390625 
z
M 30.609375 56 
Q 42.328125 56 49.015625 48.375 
Q 55.71875 40.765625 55.71875 27.296875 
Q 55.71875 13.875 49.015625 6.21875 
Q 42.328125 -1.421875 30.609375 -1.421875 
Q 18.84375 -1.421875 12.171875 6.21875 
Q 5.515625 13.875 5.515625 27.296875 
Q 5.515625 40.765625 12.171875 48.375 
Q 18.84375 56 30.609375 56 
z
" id="DejaVuSans-111"/>
      <path d="M 54.890625 33.015625 
L 54.890625 0 
L 45.90625 0 
L 45.90625 32.71875 
Q 45.90625 40.484375 42.875 44.328125 
Q 39.84375 48.1875 33.796875 48.1875 
Q 26.515625 48.1875 22.3125 43.546875 
Q 18.109375 38.921875 18.109375 30.90625 
L 18.109375 0 
L 9.078125 0 
L 9.078125 54.6875 
L 18.109375 54.6875 
L 18.109375 46.1875 
Q 21.34375 51.125 25.703125 53.5625 
Q 30.078125 56 35.796875 56 
Q 45.21875 56 50.046875 50.171875 
Q 54.890625 44.34375 54.890625 33.015625 
z
" id="DejaVuSans-110"/>
     </defs>
     <g transform="translate(286.110938 476.836563)scale(0.1 -0.1)">
      <use xlink:href="#DejaVuSans-49"/>
      <use x="63.623047" xlink:href="#DejaVuSans-45"/>
      <use x="99.707031" xlink:href="#DejaVuSans-112"/>
      <use x="163.183594" xlink:href="#DejaVuSans-114"/>
      <use x="202.046875" xlink:href="#DejaVuSans-101"/>
      <use x="263.570312" xlink:href="#DejaVuSans-99"/>
      <use x="318.550781" xlink:href="#DejaVuSans-105"/>
      <use x="346.333984" xlink:href="#DejaVuSans-115"/>
      <use x="398.433594" xlink:href="#DejaVuSans-105"/>
      <use x="426.216797" xlink:href="#DejaVuSans-111"/>
      <use x="487.398438" xlink:href="#DejaVuSans-110"/>
     </g>
    </g>
   </g>
   <g id="matplotlib.axis_2">
    <g id="ytick_1">
     <g id="line2d_23">
      <path clip-path="url(#p95a459d382)" d="M 76.5 448.56 
L 550.8 448.56 
" style="fill:none;stroke:#b0b0b0;stroke-linecap:square;stroke-width:0.8;"/>
     </g>
     <g id="line2d_24">
      <defs>
       <path d="M 0 0 
L -3.5 0 
" id="m9cd3029f2a" style="stroke:#000000;stroke-width:0.8;"/>
      </defs>
      <g>
       <use style="stroke:#000000;stroke-width:0.8;" x="76.5" xlink:href="#m9cd3029f2a" y="448.56"/>
      </g>
     </g>
     <g id="text_13">
      <!-- 0.0 -->
      <g transform="translate(53.596875 452.359219)scale(0.1 -0.1)">
       <use xlink:href="#DejaVuSans-48"/>
       <use x="63.623047" xlink:href="#DejaVuSans-46"/>
       <use x="95.410156" xlink:href="#DejaVuSans-48"/>
      </g>
     </g>
    </g>
    <g id="ytick_2">
     <g id="line2d_25">
      <path clip-path="url(#p95a459d382)" d="M 76.5 409.752 
L 550.8 409.752 
" style="fill:none;stroke:#b0b0b0;stroke-linecap:square;stroke-width:0.8;"/>
     </g>
     <g id="line2d_26">
      <g>
       <use style="stroke:#000000;stroke-width:0.8;" x="76.5" xlink:href="#m9cd3029f2a" y="409.752"/>
      </g>
     </g>
     <g id="text_14">
      <!-- 0.1 -->
      <g transform="translate(53.596875 413.551219)scale(0.1 -0.1)">
       <use xlink:href="#DejaVuSans-48"/>
       <use x="63.623047" xlink:href="#DejaVuSans-46"/>
       <use x="95.410156" xlink:href="#DejaVuSans-49"/>
      </g>
     </g>
    </g>
    <g id="ytick_3">
     <g id="line2d_27">
      <path clip-path="url(#p95a459d382)" d="M 76.5 370.944 
L 550.8 370.944 
" style="fill:none;stroke:#b0b0b0;stroke-linecap:square;stroke-width:0.8;"/>
     </g>
     <g id="line2d_28">
      <g>
       <use style="stroke:#000000;stroke-width:0.8;" x="76.5" xlink:href="#m9cd3029f2a" y="370.944"/>
      </g>
     </g>
     <g id="text_15">
      <!-- 0.2 -->
      <g transform="translate(53.596875 374.743219)scale(0.1 -0.1)">
       <use xlink:href="#DejaVuSans-48"/>
       <use x="63.623047" xlink:href="#DejaVuSans-46"/>
       <use x="95.410156" xlink:href="#DejaVuSans-50"/>
      </g>
     </g>
    </g>
    <g id="ytick_4">
     <g id="line2d_29">
      <path clip-path="url(#p95a459d382)" d="M 76.5 332.136 
L 550.8 332.136 
" style="fill:none;stroke:#b0b0b0;stroke-linecap:square;stroke-width:0.8;"/>
     </g>
     <g id="line2d_30">
      <g>
       <use style="stroke:#000000;stroke-width:0.8;" x="76.5" xlink:href="#m9cd3029f2a" y="332.136"/>
      </g>
     </g>
     <g id="text_16">
      <!-- 0.3 -->
      <g transform="translate(53.596875 335.935219)scale(0.1 -0.1)">
       <use xlink:href="#DejaVuSans-48"/>
       <use x="63.623047" xlink:href="#DejaVuSans-46"/>
       <use x="95.410156" xlink:href="#DejaVuSans-51"/>
      </g>
     </g>
    </g>
    <g id="ytick_5">
     <g id="line2d_31">
      <path clip-path="url(#p95a459d382)" d="M 76.5 293.328 
L 550.8 293.328 
" style="fill:none;stroke:#b0b0b0;stroke-linecap:square;stroke-width:0.8;"/>
     </g>
     <g id="line2d_32">
      <g>
       <use style="stroke:#000000;stroke-width:0.8;" x="76.5" xlink:href="#m9cd3029f2a" y="293.328"/>
      </g>
     </g>
     <g id="text_17">
      <!-- 0.4 -->
      <g transform="translate(53.596875 297.127219)scale(0.1 -0.1)">
       <use xlink:href="#DejaVuSans-48"/>
       <use x="63.623047" xlink:href="#DejaVuSans-46"/>
       <use x="95.410156" xlink:href="#DejaVuSans-52"/>
      </g>
     </g>
    </g>
    <g id="ytick_6">
     <g id="line2d_33">
      <path clip-path="url(#p95a459d382)" d="M 76.5 254.52 
L 550.8 254.52 
" style="fill:none;stroke:#b0b0b0;stroke-linecap:square;stroke-width:0.8;"/>
     </g>
     <g id="line2d_34">
      <g>
       <use style="stroke:#000000;stroke-width:0.8;" x="76.5" xlink:href="#m9cd3029f2a" y="254.52"/>
      </g>
     </g>
     <g id="text_18">
      <!-- 0.5 -->
      <g transform="translate(53.596875 258.319219)scale(0.1 -0.1)">
       <use xlink:href="#DejaVuSans-48"/>
       <use x="63.623047" xlink:href="#DejaVuSans-46"/>
       <use x="95.410156" xlink:href="#DejaVuSans-53"/>
      </g>
     </g>
    </g>
    <g id="ytick_7">
     <g id="line2d_35">
      <path clip-path="url(#p95a459d382)" d="M 76.5 215.712 
L 550.8 215.712 
" style="fill:none;stroke:#b0b0b0;stroke-linecap:square;stroke-width:0.8;"/>
     </g>
     <g id="line2d_36">
      <g>
       <use style="stroke:#000000;stroke-width:0.8;" x="76.5" xlink:href="#m9cd3029f2a" y="215.712"/>
      </g>
     </g>
     <g id="text_19">
      <!-- 0.6 -->
      <g transform="translate(53.596875 219.511219)scale(0.1 -0.1)">
       <use xlink:href="#DejaVuSans-48"/>
       <use x="63.623047" xlink:href="#DejaVuSans-46"/>
       <use x="95.410156" xlink:href="#DejaVuSans-54"/>
      </g>
     </g>
    </g>
    <g id="ytick_8">
     <g id="line2d_37">
      <path clip-path="url(#p95a459d382)" d="M 76.5 176.904 
L 550.8 176.904 
" style="fill:none;stroke:#b0b0b0;stroke-linecap:square;stroke-width:0.8;"/>
     </g>
     <g id="line2d_38">
      <g>
       <use style="stroke:#000000;stroke-width:0.8;" x="76.5" xlink:href="#m9cd3029f2a" y="176.904"/>
      </g>
     </g>
     <g id="text_20">
      <!-- 0.7 -->
      <g transform="translate(53.596875 180.703219)scale(0.1 -0.1)">
       <use xlink:href="#DejaVuSans-48"/>
       <use x="63.623047" xlink:href="#DejaVuSans-46"/>
       <use x="95.410156" xlink:href="#DejaVuSans-55"/>
      </g>
     </g>
    </g>
    <g id="ytick_9">
     <g id="line2d_39">
      <path clip-path="url(#p95a459d382)" d="M 76.5 138.096 
L 550.8 138.096 
" style="fill:none;stroke:#b0b0b0;stroke-linecap:square;stroke-width:0.8;"/>
     </g>
     <g id="line2d_40">
      <g>
       <use style="stroke:#000000;stroke-width:0.8;" x="76.5" xlink:href="#m9cd3029f2a" y="138.096"/>
      </g>
     </g>
     <g id="text_21">
      <!-- 0.8 -->
      <g transform="translate(53.596875 141.895219)scale(0.1 -0.1)">
       <use xlink:href="#DejaVuSans-48"/>
       <use x="63.623047" xlink:href="#DejaVuSans-46"/>
       <use x="95.410156" xlink:href="#DejaVuSans-56"/>
      </g>
     </g>
    </g>
    <g id="ytick_10">
     <g id="line2d_41">
      <path clip-path="url(#p95a459d382)" d="M 76.5 99.288 
L 550.8 99.288 
" style="fill:none;stroke:#b0b0b0;stroke-linecap:square;stroke-width:0.8;"/>
     </g>
     <g id="line2d_42">
      <g>
       <use style="stroke:#000000;stroke-width:0.8;" x="76.5" xlink:href="#m9cd3029f2a" y="99.288"/>
      </g>
     </g>
     <g id="text_22">
      <!-- 0.9 -->
      <g transform="translate(53.596875 103.087219)scale(0.1 -0.1)">
       <use xlink:href="#DejaVuSans-48"/>
       <use x="63.623047" xlink:href="#DejaVuSans-46"/>
       <use x="95.410156" xlink:href="#DejaVuSans-57"/>
      </g>
     </g>
    </g>
    <g id="ytick_11">
     <g id="line2d_43">
      <path clip-path="url(#p95a459d382)" d="M 76.5 60.48 
L 550.8 60.48 
" style="fill:none;stroke:#b0b0b0;stroke-linecap:square;stroke-width:0.8;"/>
     </g>
     <g id="line2d_44">
      <g>
       <use style="stroke:#000000;stroke-width:0.8;" x="76.5" xlink:href="#m9cd3029f2a" y="60.48"/>
      </g>
     </g>
     <g id="text_23">
      <!-- 1.0 -->
      <g transform="translate(53.596875 64.279219)scale(0.1 -0.1)">
       <use xlink:href="#DejaVuSans-49"/>
       <use x="63.623047" xlink:href="#DejaVuSans-46"/>
       <use x="95.410156" xlink:href="#DejaVuSans-48"/>
      </g>
     </g>
    </g>
    <g id="text_24">
     <!-- #correct/887 -->
     <defs>
      <path d="M 51.125 44 
L 36.921875 44 
L 32.8125 27.6875 
L 47.125 27.6875 
z
M 43.796875 71.78125 
L 38.71875 51.515625 
L 52.984375 51.515625 
L 58.109375 71.78125 
L 65.921875 71.78125 
L 60.890625 51.515625 
L 76.125 51.515625 
L 76.125 44 
L 58.984375 44 
L 54.984375 27.6875 
L 70.515625 27.6875 
L 70.515625 20.21875 
L 53.078125 20.21875 
L 48 0 
L 40.1875 0 
L 45.21875 20.21875 
L 30.90625 20.21875 
L 25.875 0 
L 18.015625 0 
L 23.09375 20.21875 
L 7.71875 20.21875 
L 7.71875 27.6875 
L 24.90625 27.6875 
L 29 44 
L 13.28125 44 
L 13.28125 51.515625 
L 30.90625 51.515625 
L 35.890625 71.78125 
z
" id="DejaVuSans-35"/>
      <path d="M 18.3125 70.21875 
L 18.3125 54.6875 
L 36.8125 54.6875 
L 36.8125 47.703125 
L 18.3125 47.703125 
L 18.3125 18.015625 
Q 18.3125 11.328125 20.140625 9.421875 
Q 21.96875 7.515625 27.59375 7.515625 
L 36.8125 7.515625 
L 36.8125 0 
L 27.59375 0 
Q 17.1875 0 13.234375 3.875 
Q 9.28125 7.765625 9.28125 18.015625 
L 9.28125 47.703125 
L 2.6875 47.703125 
L 2.6875 54.6875 
L 9.28125 54.6875 
L 9.28125 70.21875 
z
" id="DejaVuSans-116"/>
      <path d="M 25.390625 72.90625 
L 33.6875 72.90625 
L 8.296875 -9.28125 
L 0 -9.28125 
z
" id="DejaVuSans-47"/>
     </defs>
     <g transform="translate(47.517187 287.443438)rotate(-90)scale(0.1 -0.1)">
      <use xlink:href="#DejaVuSans-35"/>
      <use x="83.789062" xlink:href="#DejaVuSans-99"/>
      <use x="138.769531" xlink:href="#DejaVuSans-111"/>
      <use x="199.951172" xlink:href="#DejaVuSans-114"/>
      <use x="239.314453" xlink:href="#DejaVuSans-114"/>
      <use x="278.177734" xlink:href="#DejaVuSans-101"/>
      <use x="339.701172" xlink:href="#DejaVuSans-99"/>
      <use x="394.681641" xlink:href="#DejaVuSans-116"/>
      <use x="433.890625" xlink:href="#DejaVuSans-47"/>
      <use x="467.582031" xlink:href="#DejaVuSans-56"/>
      <use x="531.205078" xlink:href="#DejaVuSans-56"/>
      <use x="594.828125" xlink:href="#DejaVuSans-55"/>
     </g>
    </g>
   </g>
   <g id="line2d_45">
    <path clip-path="url(#p95a459d382)" d="M 76.5 448.12248 
L 76.5 206.17407 
L 77.354595 206.17407 
L 77.336508 200.923833 
L 78.17007 200.923833 
L 78.164211 200.048794 
L 78.991944 200.048794 
L 78.961765 196.986156 
L 79.776684 196.986156 
L 79.759794 195.673596 
L 80.567753 195.673596 
L 80.560788 195.236077 
L 81.364615 195.236077 
L 81.331579 193.485998 
L 82.127288 193.485998 
L 82.08 191.298399 
L 82.866443 191.298399 
L 82.855779 190.860879 
L 83.638294 190.860879 
L 83.6145 189.98584 
L 84.391847 189.98584 
L 84.326733 187.798241 
L 85.095222 187.798241 
L 85.066995 186.923202 
L 85.830492 186.923202 
L 85.769707 185.173123 
L 87.279545 185.173123 
L 87.24466 184.298083 
L 87.993538 184.298083 
L 87.919743 182.548005 
L 88.661538 182.548005 
L 88.64208 182.110485 
L 89.380351 182.110485 
L 89.318919 180.797926 
L 90.051429 180.797926 
L 90.029952 180.360406 
L 92.210252 180.360406 
L 92.160849 179.485366 
L 95.027344 179.485366 
L 94.99844 179.047847 
L 95.708411 179.047847 
L 95.678538 178.610327 
L 97.792105 178.610327 
L 97.628571 176.422728 
L 99.707339 176.422728 
L 99.636585 175.547689 
L 101.69044 175.547689 
L 101.652273 175.110169 
L 103.009215 175.110169 
L 102.929367 174.23513 
L 104.274324 174.23513 
L 104.149776 172.92257 
L 104.816418 172.92257 
L 104.732143 172.047531 
L 105.394948 172.047531 
L 105.352077 171.610011 
L 108.632253 171.610011 
L 108.585 171.172492 
L 109.234361 171.172492 
L 109.186364 170.734972 
L 110.477632 170.734972 
L 110.378571 169.859932 
L 111.658866 169.859932 
L 111.607837 169.422413 
L 114.772046 169.422413 
L 114.716978 168.984893 
L 116.591261 168.984893 
L 116.533906 168.547373 
L 117.772896 168.547373 
L 117.714103 168.109853 
L 118.330156 168.109853 
L 118.270739 167.672334 
L 118.884255 167.672334 
L 118.764356 166.797294 
L 119.983075 166.797294 
L 119.79986 165.484735 
L 124.58875 165.484735 
L 124.522053 165.047215 
L 126.288398 165.047215 
L 126.219724 164.609696 
L 132.565353 164.609696 
L 132.489281 164.172176 
L 133.056098 164.172176 
L 132.979567 163.734656 
L 136.900134 163.734656 
L 136.819277 163.297136 
L 137.9247 163.297136 
L 137.8428 162.859617 
L 139.488048 162.859617 
L 139.404509 162.422097 
L 141.575462 162.422097 
L 141.489723 161.984577 
L 145.758931 161.984577 
L 145.578804 161.109538 
L 146.105065 161.109538 
L 146.014786 160.672018 
L 146.539119 160.672018 
L 146.448512 160.234498 
L 146.97093 160.234498 
L 146.88 159.796979 
L 148.437532 159.796979 
L 148.345186 159.359459 
L 149.88913 159.359459 
L 149.795402 158.921939 
L 150.81707 158.921939 
L 150.722519 158.484419 
L 152.748228 158.484419 
L 152.651833 158.0469 
L 155.152764 158.0469 
L 154.955639 157.17186 
L 158.397764 157.17186 
L 158.296154 156.73434 
L 167.799879 156.73434 
L 167.579348 155.859301 
L 172.603695 155.859301 
L 172.489286 155.421781 
L 174.282227 155.421781 
L 174.166509 154.984262 
L 181.165505 154.984262 
L 181.044084 154.546742 
L 182.751963 154.546742 
L 182.629412 154.109222 
L 183.476755 154.109222 
L 183.108716 152.796663 
L 190.949495 152.796663 
L 190.821188 152.359143 
L 192.428237 152.359143 
L 192.298997 151.921623 
L 195.075 151.921623 
L 194.943978 151.484104 
L 196.509901 151.484104 
L 196.378022 151.046584 
L 199.848966 151.046584 
L 199.714891 150.609064 
L 200.096091 150.609064 
L 199.962039 150.171545 
L 200.721429 150.171545 
L 200.453132 149.296505 
L 211.801881 149.296505 
L 211.660647 148.858985 
L 220.285758 148.858985 
L 219.993807 147.983946 
L 221.664545 147.983946 
L 221.371875 147.108906 
L 224.984746 147.108906 
L 224.541948 145.796347 
L 246.332839 145.796347 
L 246.17544 145.358828 
L 252.803717 145.358828 
L 252.644022 144.921308 
L 253.988278 144.921308 
L 253.828378 144.483788 
L 262.906114 144.483788 
L 262.743455 144.046268 
L 263.745391 144.046268 
L 263.582711 143.608749 
L 265.318912 143.608749 
L 265.155997 143.171229 
L 267.357021 143.171229 
L 267.193755 142.733709 
L 269.599237 142.733709 
L 269.435593 142.296189 
L 276.864356 142.296189 
L 276.699176 141.85867 
L 280.92638 141.85867 
L 280.760584 141.42115 
L 283.57801 141.42115 
L 283.411949 140.98363 
L 289.897887 140.98363 
L 289.73104 140.54611 
L 297.648218 140.54611 
L 297.480682 140.108591 
L 303.293338 140.108591 
L 303.125592 139.671071 
L 304.763409 139.671071 
L 304.595815 139.233551 
L 305.854711 139.233551 
L 305.687299 138.796032 
L 313.146497 138.796032 
L 312.979137 138.358512 
L 314.483275 138.358512 
L 314.316152 137.920992 
L 319.354639 137.920992 
L 319.187843 137.483472 
L 320.138372 137.483472 
L 319.971839 137.045953 
L 326.56255 137.045953 
L 326.396616 136.608433 
L 326.84245 136.608433 
L 326.67677 136.170913 
L 327.268515 136.170913 
L 327.1031 135.733393 
L 329.43936 135.733393 
L 329.274364 135.295874 
L 342.7125 135.295874 
L 342.549479 134.858354 
L 343.816981 134.858354 
L 343.65438 134.420834 
L 346.389796 134.420834 
L 346.227894 133.983315 
L 350.08093 133.983315 
L 349.92 133.545795 
L 350.038095 133.545795 
L 371.537008 133.545795 
L 371.382214 133.108275 
L 371.476298 133.108275 
L 381.591539 133.108275 
L 381.440653 132.670755 
L 381.52437 132.670755 
L 383.017246 132.670755 
L 382.86714 132.233236 
L 382.949339 132.233236 
L 388.586708 132.233236 
L 388.439149 131.795716 
L 388.515879 131.795716 
L 390.035393 131.795716 
L 389.888676 131.358196 
L 389.963938 131.358196 
L 392.772656 131.358196 
L 392.627377 130.920676 
L 392.7 130.920676 
L 411.896491 130.920676 
L 411.76125 130.483157 
L 411.873288 130.483157 
L 416.525818 130.483157 
L 416.39346 130.045637 
L 416.498016 130.045637 
L 436.161753 130.045637 
L 436.042383 129.608117 
L 436.156532 129.608117 
" style="fill:none;stroke:#1f77b4;stroke-linecap:square;stroke-width:2;"/>
   </g>
   <g id="line2d_46">
    <path clip-path="url(#p95a459d382)" d="M 76.5 448.12248 
L 76.5 351.86814 
L 78.636486 351.86814 
L 78.562174 348.367982 
L 80.606494 348.367982 
L 80.234646 338.305028 
L 82.08 338.305028 
L 82.036576 337.429989 
L 83.853488 337.429989 
L 83.825097 336.992469 
L 85.621154 336.992469 
L 85.51711 335.67991 
L 87.279545 335.67991 
L 87.118657 333.929831 
L 88.842379 333.929831 
L 88.231802 327.804555 
L 89.860563 327.804555 
L 89.675 326.054476 
L 91.270588 326.054476 
L 91.068942 324.304397 
L 94.185763 324.304397 
L 93.222115 316.866561 
L 94.684026 316.866561 
L 94.568571 315.991522 
L 96.012342 315.991522 
L 95.950789 315.554002 
L 97.381132 315.554002 
L 97.121739 313.803923 
L 98.526316 313.803923 
L 98.458333 313.366404 
L 99.850154 313.366404 
L 99.566261 311.616325 
L 100.933636 311.616325 
L 100.859819 311.178805 
L 102.21506 311.178805 
L 102.137838 310.741285 
L 106.14375 310.741285 
L 106.055786 310.303766 
L 107.371598 310.303766 
L 107.19 309.428726 
L 109.784211 309.428726 
L 108.655932 304.178489 
L 109.901408 304.178489 
L 109.714286 303.30345 
L 114.601662 303.30345 
L 114.287637 301.990891 
L 117.855858 301.990891 
L 117.743478 301.553371 
L 122.4 301.553371 
L 122.276944 301.115851 
L 123.422727 301.115851 
L 123.173138 300.240812 
L 126.558047 300.240812 
L 126.164921 298.928253 
L 127.273629 298.928253 
L 126.748837 297.178174 
L 127.841753 297.178174 
L 127.709769 296.740654 
L 128.794615 296.740654 
L 128.527806 295.865614 
L 130.67132 295.865614 
L 130.397727 294.990575 
L 132.510302 294.990575 
L 131.952985 293.240496 
L 132.992308 293.240496 
L 132.713333 292.365457 
L 133.743103 292.365457 
L 133.602457 291.927937 
L 138.665534 291.927937 
L 138.515012 291.490417 
L 139.51087 291.490417 
L 139.057554 290.177858 
L 140.042584 290.177858 
L 139.74 289.302818 
L 141.688152 289.302818 
L 141.38066 288.427779 
L 142.344 288.427779 
L 141.73007 286.6777 
L 143.628306 286.6777 
L 143.472917 286.24018 
L 144.413626 286.24018 
L 144.101379 285.365141 
L 147.807062 285.365141 
L 147.645 284.927621 
L 149.469231 284.927621 
L 149.304515 284.490101 
L 151.108989 284.490101 
L 150.941704 284.052582 
L 152.726786 284.052582 
L 151.88543 281.864983 
L 152.764097 281.864983 
L 152.429605 280.989944 
L 154.169214 280.989944 
L 153.831522 280.114904 
L 155.55 280.114904 
L 155.209267 279.239865 
L 156.06 279.239865 
L 155.88927 278.802345 
L 156.734904 278.802345 
L 156.392751 277.927306 
L 157.231915 277.927306 
L 156.719873 276.614746 
L 157.551266 276.614746 
L 156.705219 274.427148 
L 159.158091 274.427148 
L 158.646804 273.114589 
L 164.22622 273.114589 
L 164.048276 272.677069 
L 164.831174 272.677069 
L 164.652727 272.239549 
L 165.43125 272.239549 
L 164.7198 270.48947 
L 169.297826 270.48947 
L 169.114793 270.05195 
L 169.866142 270.05195 
L 169.682711 269.614431 
L 171.174364 269.614431 
L 170.989453 269.176911 
L 174.662669 269.176911 
L 174.284393 268.301871 
L 176.448276 268.301871 
L 176.25717 267.864352 
L 176.971947 267.864352 
L 176.589924 266.989312 
L 178.007386 266.989312 
L 177.815501 266.551793 
L 178.519245 266.551793 
L 178.327119 266.114273 
L 182.488827 266.114273 
L 182.291822 265.676753 
L 183.656667 265.676753 
L 183.458595 265.239233 
L 185.484375 265.239233 
L 185.284404 264.801714 
L 187.947541 264.801714 
L 187.744909 264.364194 
L 188.403811 264.364194 
L 188.201087 263.926674 
L 192.741682 263.926674 
L 192.121174 262.614115 
L 193.393085 262.614115 
L 192.980035 261.739076 
L 193.611111 261.739076 
L 193.40493 261.301556 
L 194.658947 261.301556 
L 194.452014 260.864036 
L 195.075 260.864036 
L 194.868063 260.426516 
L 196.106087 260.426516 
L 195.898438 259.988997 
L 198.346034 259.988997 
L 198.136317 259.551477 
L 200.547692 259.551477 
L 200.125043 258.676437 
L 202.498477 258.676437 
L 202.285642 258.238918 
L 206.358431 258.238918 
L 206.142 257.801398 
L 208.424503 257.801398 
L 208.206446 257.363878 
L 212.677488 257.363878 
L 212.4557 256.926359 
L 213.005854 256.926359 
L 212.784253 256.488839 
L 221.862085 256.488839 
L 221.404252 255.613799 
L 222.953135 255.613799 
L 222.495469 254.73876 
L 223.518224 254.73876 
L 223.28958 254.30124 
L 224.305116 254.30124 
L 223.848223 253.426201 
L 225.857143 253.426201 
L 225.628067 252.988681 
L 236.708 252.988681 
L 236.471006 252.551161 
L 237.39823 252.551161 
L 237.161267 252.113641 
L 242.607959 252.113641 
L 242.128571 251.238602 
L 243.016835 251.238602 
L 242.777586 250.801082 
L 259.913161 250.801082 
L 259.664634 250.363563 
L 269.94 250.363563 
L 269.184375 249.051003 
L 270.643523 249.051003 
L 270.392367 248.613484 
L 281.873077 248.613484 
L 281.618587 248.175964 
L 284.260859 248.175964 
L 284.00625 247.738444 
L 286.596481 247.738444 
L 286.087772 246.863405 
L 293.259011 246.863405 
L 293.004 246.425885 
L 293.306933 246.425885 
L 293.052465 245.988365 
L 297.803571 245.988365 
L 297.548907 245.550846 
L 298.420183 245.550846 
L 298.165979 245.113326 
L 300.460045 245.113326 
L 300.206122 244.675806 
L 301.618715 244.675806 
L 301.365203 244.238286 
L 303.867893 244.238286 
L 303.614699 243.800767 
L 306.337004 243.800767 
L 306.084158 243.363247 
L 309.795991 243.363247 
L 309.543506 242.925727 
L 309.804324 242.925727 
L 309.552376 242.488207 
L 314.402857 242.488207 
L 314.151374 242.050688 
L 314.401267 242.050688 
L 314.150316 241.613168 
L 315.39192 241.613168 
L 315.141509 241.175648 
L 316.370177 241.175648 
L 316.120313 240.738129 
L 320.439571 240.738129 
L 320.190398 240.300609 
L 320.425714 240.300609 
L 320.177064 239.863089 
L 320.880183 239.863089 
L 320.632081 239.425569 
L 326.106838 239.425569 
L 325.859703 238.98805 
L 327.188091 238.98805 
L 326.941593 238.55053 
L 328.254545 238.55053 
L 328.008691 238.11301 
L 329.949758 238.11301 
L 329.704642 237.67549 
L 336.943499 237.67549 
L 336.700093 237.237971 
L 337.099534 237.237971 
L 336.856664 236.800451 
L 338.832133 236.800451 
L 338.590129 236.362931 
L 338.785714 236.362931 
L 338.303128 235.487892 
L 343.080486 235.487892 
L 342.601885 234.612852 
L 343.34678 234.612852 
L 343.108311 234.175333 
L 343.663636 234.175333 
L 343.425735 233.737813 
L 346.159139 233.737813 
L 345.922388 233.300293 
L 347.173822 233.300293 
L 346.937838 232.862773 
L 348.525 232.862773 
L 348.289888 232.425254 
L 351.39217 232.425254 
L 351.158418 231.987734 
L 353.672796 231.987734 
L 353.440268 231.550214 
L 355.731343 231.550214 
L 355.5 231.112694 
L 358.996013 231.112694 
L 358.766341 230.675175 
L 358.92234 230.675175 
L 358.693101 230.237655 
L 360.239855 230.237655 
L 360.011585 229.800135 
L 364.361321 229.800135 
L 363.909419 228.925096 
L 365.075663 228.925096 
L 364.85074 228.487576 
L 365.716292 228.487576 
L 365.492093 228.050056 
L 368.181818 228.050056 
L 367.95916 227.612537 
L 369.892523 227.612537 
L 369.671094 227.175017 
L 374.46216 227.175017 
L 374.243392 226.737497 
L 374.631429 226.737497 
L 374.413177 226.299977 
L 374.799708 226.299977 
L 374.581971 225.862458 
L 374.967007 225.862458 
L 374.532873 224.987418 
L 377.804069 224.987418 
L 377.589158 224.549899 
L 377.712616 224.549899 
L 378.693976 224.549899 
L 378.479958 224.112379 
L 378.601911 224.112379 
L 378.723692 224.112379 
L 378.510106 223.674859 
L 378.63178 223.674859 
L 378.874612 223.674859 
L 378.661522 223.237339 
L 378.782746 223.237339 
L 379.265941 223.237339 
L 379.053474 222.79982 
L 379.173913 222.79982 
L 379.53422 222.79982 
L 379.322308 222.3623 
L 379.442138 222.3623 
L 381.21971 222.3623 
L 381.009122 221.92478 
L 381.126381 221.92478 
L 383.323926 221.92478 
L 383.114918 221.48726 
L 383.229067 221.48726 
L 384.698988 221.48726 
L 384.491167 221.049741 
L 384.603235 221.049741 
L 384.826918 221.049741 
L 384.61957 220.612221 
L 384.73125 220.612221 
L 385.287408 220.612221 
L 385.080723 220.174701 
L 385.191572 220.174701 
L 388.342913 220.174701 
L 388.138426 219.737182 
L 388.24502 219.737182 
L 389.513329 219.737182 
L 389.309942 219.299662 
L 389.414805 219.299662 
L 392.195533 219.299662 
L 391.994196 218.862142 
L 392.095411 218.862142 
L 393.00057 218.862142 
L 392.800127 218.424622 
L 392.900127 218.424622 
L 393.398233 218.424622 
L 393.198424 217.987103 
L 393.297732 217.987103 
L 398.943317 217.987103 
L 398.747541 217.549583 
L 398.839806 217.549583 
L 402.528597 217.549583 
L 402.33568 217.112063 
L 402.423477 217.112063 
L 402.59876 217.112063 
L 402.406257 216.674543 
L 402.493805 216.674543 
L 408.052129 216.674543 
L 407.863961 216.237024 
L 407.945037 216.237024 
L 408.02602 216.237024 
L 407.838187 215.799504 
L 407.919139 215.799504 
L 408.080769 215.799504 
L 407.89333 215.361984 
L 407.974068 215.361984 
L 408.29611 215.361984 
L 408.00287 214.486945 
L 408.323582 214.486945 
L 408.137374 214.049425 
L 408.217386 214.049425 
L 408.854271 214.049425 
L 408.483547 213.174386 
L 408.562876 213.174386 
L 412.494634 213.174386 
L 412.312622 212.736866 
L 412.387602 212.736866 
L 414.016854 212.736866 
L 413.836364 212.299346 
L 413.909567 212.299346 
L 414.2016 212.299346 
L 414.021588 211.861826 
L 414.094459 211.861826 
L 414.674642 211.861826 
L 414.316216 210.986787 
L 414.388506 210.986787 
L 419.667159 210.986787 
L 419.492519 210.549267 
L 419.559308 210.549267 
L 419.892237 210.549267 
L 419.718103 210.111747 
L 419.784541 210.111747 
L 423.400542 210.111747 
L 423.229655 209.674228 
L 423.292467 209.674228 
L 424.04141 209.674228 
L 423.87138 209.236708 
L 423.933447 209.236708 
L 424.73484 209.236708 
L 424.565712 208.799188 
L 424.62699 208.799188 
L 425.297151 208.799188 
L 425.128813 208.361669 
L 425.189436 208.361669 
L 427.275 208.361669 
L 427.108677 207.924149 
L 427.225865 207.924149 
L 428.097742 207.924149 
L 427.93244 207.486629 
L 428.047863 207.486629 
L 428.621739 207.486629 
L 428.457196 207.049109 
L 428.571429 207.049109 
L 429.981541 207.049109 
L 429.818496 206.61159 
L 429.93 206.61159 
L 429.985675 206.61159 
L 429.822928 206.17407 
L 429.934223 206.17407 
L 432.117886 206.17407 
L 431.957336 205.73655 
L 432.064547 205.73655 
L 432.544609 205.73655 
L 432.384733 205.29903 
L 432.490983 205.29903 
L 432.544036 205.29903 
L 432.384446 204.861511 
L 432.490506 204.861511 
L 438.61949 204.861511 
L 438.465789 204.423991 
L 438.561069 204.423991 
L 440.341152 204.423991 
L 440.189362 203.986471 
L 440.281576 203.986471 
L 441.24062 203.986471 
L 441.089963 203.548952 
L 441.18052 203.548952 
L 442.873141 203.548952 
L 442.72433 203.111432 
L 442.812054 203.111432 
L 445.877957 203.111432 
L 445.732361 202.673912 
L 445.815124 202.673912 
L 446.18595 202.673912 
L 446.040918 202.236392 
L 446.12305 202.236392 
L 448.528495 202.236392 
L 448.386064 201.798873 
L 448.464422 201.798873 
L 448.815555 201.798873 
L 448.673666 201.361353 
L 448.790293 201.361353 
L 451.621799 201.361353 
L 451.483019 200.923833 
L 451.593126 200.923833 
L 451.629775 200.923833 
L 451.491248 200.486313 
L 451.601143 200.486313 
L 453.432839 200.486313 
L 453.296417 200.048794 
L 453.402169 200.048794 
L 456.702061 200.048794 
L 456.569309 199.611274 
L 456.667911 199.611274 
L 461.318336 199.611274 
L 461.318336 199.611274 
" style="fill:none;stroke:#ff7f0e;stroke-linecap:square;stroke-width:2;"/>
   </g>
   <g id="line2d_47">
    <path clip-path="url(#p95a459d382)" d="M 76.5 448.12248 
L 76.5 246.425885 
L 77.524406 246.425885 
L 77.504873 242.488207 
L 78.505497 242.488207 
L 78.269776 214.924464 
L 79.149721 214.924464 
L 79.130129 213.174386 
L 80.000369 213.174386 
L 79.968373 210.986787 
L 80.827555 210.986787 
L 80.712256 204.423991 
L 81.545745 204.423991 
L 81.19604 186.048162 
L 81.969687 186.048162 
L 81.829213 179.047847 
L 82.580769 179.047847 
L 82.346533 168.109853 
L 83.067231 168.109853 
L 83.047086 167.234814 
L 83.7634 167.234814 
L 83.708207 165.047215 
L 85.123636 165.047215 
L 85.084615 163.734656 
L 85.785994 163.734656 
L 85.77203 163.297136 
L 87.166417 163.297136 
L 87.134529 162.422097 
L 87.826567 162.422097 
L 87.792857 161.547057 
L 88.480832 161.547057 
L 88.445333 160.672018 
L 89.12929 160.672018 
L 89.055 158.921939 
L 89.73304 158.921939 
L 89.713636 158.484419 
L 90.388726 158.484419 
L 90.348175 157.60938 
L 91.019388 157.60938 
L 90.852017 154.109222 
L 92.831707 154.109222 
L 92.761714 152.796663 
L 95.364205 152.796663 
L 95.284158 151.484104 
L 97.846835 151.484104 
L 97.786957 150.609064 
L 98.421429 150.609064 
L 98.390769 150.171545 
L 99.022626 150.171545 
L 98.959889 149.296505 
L 99.588317 149.296505 
L 99.524272 148.421466 
L 100.149307 148.421466 
L 100.083978 147.546426 
L 101.32562 147.546426 
L 101.291472 147.108906 
L 104.361885 147.108906 
L 104.323874 146.671387 
L 105.538776 146.671387 
L 105.499321 146.233867 
L 106.103528 146.233867 
L 106.02341 145.358828 
L 107.223887 145.358828 
L 107.1 144.046268 
L 107.69557 144.046268 
L 107.653753 143.608749 
L 108.246988 143.608749 
L 108.12 142.296189 
L 108.709454 142.296189 
L 108.666622 141.85867 
L 111.586922 141.85867 
L 111.448421 140.54611 
L 112.601575 140.54611 
L 112.507068 139.671071 
L 117.048964 139.671071 
L 116.996507 139.233551 
L 117.556977 139.233551 
L 117.504 138.796032 
L 119.728883 138.796032 
L 119.673462 138.358512 
L 120.22548 138.358512 
L 120.113793 137.483472 
L 121.211083 137.483472 
L 121.154198 137.045953 
L 121.700127 137.045953 
L 121.642766 136.608433 
L 122.186692 136.608433 
L 122.128861 136.170913 
L 122.670796 136.170913 
L 122.6125 135.733393 
L 123.691058 135.733393 
L 123.572487 134.858354 
L 124.108532 134.858354 
L 124.048872 134.420834 
L 127.759752 134.420834 
L 127.632714 133.545795 
L 128.678863 133.545795 
L 128.614444 133.108275 
L 129.135018 133.108275 
L 129.070197 132.670755 
L 130.106388 132.670755 
L 130.040613 132.233236 
L 132.095604 132.233236 
L 131.892701 130.920676 
L 136.927644 130.920676 
L 136.855102 130.483157 
L 139.32494 130.483157 
L 139.25006 130.045637 
L 139.74 130.045637 
L 139.664804 129.608117 
L 143.538869 129.608117 
L 143.46 129.170598 
L 143.93866 129.170598 
L 143.780539 128.295558 
L 144.257143 128.295558 
L 144.177895 127.858038 
L 146.071362 127.858038 
L 145.990465 127.420519 
L 146.929698 127.420519 
L 146.848088 126.982999 
L 147.315625 126.982999 
L 147.233757 126.545479 
L 149.091369 126.545479 
L 148.924684 125.67044 
L 149.38555 125.67044 
L 149.302062 125.23292 
L 156.528121 125.23292 
L 156.438202 124.7954 
L 157.763046 124.7954 
L 157.672148 124.35788 
L 162.450497 124.35788 
L 162.26097 123.482841 
L 163.541868 123.482841 
L 163.446323 123.045321 
L 163.871053 123.045321 
L 163.775356 122.607802 
L 171.25811 122.607802 
L 171.054984 121.732762 
L 172.272115 121.732762 
L 172.169904 121.295242 
L 174.179618 121.295242 
L 174.076034 120.857723 
L 179.198849 120.857723 
L 179.091536 120.420203 
L 179.479541 120.420203 
L 179.372158 119.982683 
L 183.205263 119.982683 
L 183.095258 119.545163 
L 188.326829 119.545163 
L 188.213299 119.107644 
L 196.486607 119.107644 
L 196.367691 118.670124 
L 212.463009 118.670124 
L 212.334499 118.232604 
L 216.442857 118.232604 
L 216.312313 117.795085 
L 217.555762 117.795085 
L 217.424791 117.357565 
L 225.283137 117.357565 
L 225.14837 116.920045 
L 235.708501 116.920045 
L 235.569089 116.482525 
L 238.03397 116.482525 
L 237.89375 116.045006 
L 240.051724 116.045006 
L 239.910853 115.607486 
L 240.445486 115.607486 
L 240.304639 115.169966 
L 243.211404 115.169966 
L 243.069643 114.732446 
L 244.112797 114.732446 
L 243.970872 114.294927 
L 248.07218 114.294927 
L 247.928965 113.857407 
L 249.187781 113.857407 
L 249.044352 113.419887 
L 263.140618 113.419887 
L 262.992959 112.982368 
L 275.411582 112.982368 
L 275.26112 112.544848 
L 276.299322 112.544848 
L 276.14887 112.107328 
L 281.820133 112.107328 
L 281.668828 111.669808 
L 288.624121 111.669808 
L 288.471951 111.232289 
L 289.03529 111.232289 
L 288.883262 110.794769 
L 307.988594 110.794769 
L 307.835189 110.357249 
L 308.477528 110.357249 
L 308.324306 109.919729 
L 313.035622 109.919729 
L 312.882524 109.48221 
L 322.345991 109.48221 
L 322.193292 109.04469 
L 323.464114 109.04469 
L 323.311667 108.60717 
L 330.781433 108.60717 
L 330.629714 108.169651 
L 333.865608 108.169651 
L 333.714395 107.732131 
L 338.820826 107.732131 
L 338.670413 107.294611 
L 346.179425 107.294611 
L 346.030348 106.857091 
L 346.143481 106.857091 
L 355.323325 106.857091 
L 355.176266 106.419572 
L 355.279389 106.419572 
L 371.533398 106.419572 
L 371.39087 105.982052 
L 371.477499 105.982052 
L 377.421429 105.982052 
L 377.281008 105.544532 
L 377.36194 105.544532 
L 377.684916 105.544532 
L 377.544765 105.107012 
L 377.625349 105.107012 
L 384.583259 105.107012 
L 384.445783 104.669493 
L 384.519982 104.669493 
L 394.947241 104.669493 
L 394.814166 104.231973 
L 394.879323 104.231973 
L 411.98479 104.231973 
L 411.860074 103.794453 
L 411.963299 103.794453 
L 417.27074 103.794453 
L 417.149036 103.356933 
L 417.244433 103.356933 
L 426.720855 103.356933 
L 426.720855 103.356933 
" style="fill:none;stroke:#2ca02c;stroke-linecap:square;stroke-width:2;"/>
   </g>
   <g id="patch_3">
    <path d="M 76.5 448.56 
L 76.5 60.48 
" style="fill:none;stroke:#000000;stroke-linecap:square;stroke-linejoin:miter;stroke-width:0.8;"/>
   </g>
   <g id="patch_4">
    <path d="M 550.8 448.56 
L 550.8 60.48 
" style="fill:none;stroke:#000000;stroke-linecap:square;stroke-linejoin:miter;stroke-width:0.8;"/>
   </g>
   <g id="patch_5">
    <path d="M 76.5 448.56 
L 550.8 448.56 
" style="fill:none;stroke:#000000;stroke-linecap:square;stroke-linejoin:miter;stroke-width:0.8;"/>
   </g>
   <g id="patch_6">
    <path d="M 76.5 60.48 
L 550.8 60.48 
" style="fill:none;stroke:#000000;stroke-linecap:square;stroke-linejoin:miter;stroke-width:0.8;"/>
   </g>
   <g id="text_25">
    <!-- bark: img1-img2 -->
    <defs>
     <path d="M 48.6875 27.296875 
Q 48.6875 37.203125 44.609375 42.84375 
Q 40.53125 48.484375 33.40625 48.484375 
Q 26.265625 48.484375 22.1875 42.84375 
Q 18.109375 37.203125 18.109375 27.296875 
Q 18.109375 17.390625 22.1875 11.75 
Q 26.265625 6.109375 33.40625 6.109375 
Q 40.53125 6.109375 44.609375 11.75 
Q 48.6875 17.390625 48.6875 27.296875 
z
M 18.109375 46.390625 
Q 20.953125 51.265625 25.265625 53.625 
Q 29.59375 56 35.59375 56 
Q 45.5625 56 51.78125 48.09375 
Q 58.015625 40.1875 58.015625 27.296875 
Q 58.015625 14.40625 51.78125 6.484375 
Q 45.5625 -1.421875 35.59375 -1.421875 
Q 29.59375 -1.421875 25.265625 0.953125 
Q 20.953125 3.328125 18.109375 8.203125 
L 18.109375 0 
L 9.078125 0 
L 9.078125 75.984375 
L 18.109375 75.984375 
z
" id="DejaVuSans-98"/>
     <path d="M 34.28125 27.484375 
Q 23.390625 27.484375 19.1875 25 
Q 14.984375 22.515625 14.984375 16.5 
Q 14.984375 11.71875 18.140625 8.90625 
Q 21.296875 6.109375 26.703125 6.109375 
Q 34.1875 6.109375 38.703125 11.40625 
Q 43.21875 16.703125 43.21875 25.484375 
L 43.21875 27.484375 
z
M 52.203125 31.203125 
L 52.203125 0 
L 43.21875 0 
L 43.21875 8.296875 
Q 40.140625 3.328125 35.546875 0.953125 
Q 30.953125 -1.421875 24.3125 -1.421875 
Q 15.921875 -1.421875 10.953125 3.296875 
Q 6 8.015625 6 15.921875 
Q 6 25.140625 12.171875 29.828125 
Q 18.359375 34.515625 30.609375 34.515625 
L 43.21875 34.515625 
L 43.21875 35.40625 
Q 43.21875 41.609375 39.140625 45 
Q 35.0625 48.390625 27.6875 48.390625 
Q 23 48.390625 18.546875 47.265625 
Q 14.109375 46.140625 10.015625 43.890625 
L 10.015625 52.203125 
Q 14.9375 54.109375 19.578125 55.046875 
Q 24.21875 56 28.609375 56 
Q 40.484375 56 46.34375 49.84375 
Q 52.203125 43.703125 52.203125 31.203125 
z
" id="DejaVuSans-97"/>
     <path d="M 9.078125 75.984375 
L 18.109375 75.984375 
L 18.109375 31.109375 
L 44.921875 54.6875 
L 56.390625 54.6875 
L 27.390625 29.109375 
L 57.625 0 
L 45.90625 0 
L 18.109375 26.703125 
L 18.109375 0 
L 9.078125 0 
z
" id="DejaVuSans-107"/>
     <path d="M 11.71875 12.40625 
L 22.015625 12.40625 
L 22.015625 0 
L 11.71875 0 
z
M 11.71875 51.703125 
L 22.015625 51.703125 
L 22.015625 39.3125 
L 11.71875 39.3125 
z
" id="DejaVuSans-58"/>
     <path id="DejaVuSans-32"/>
     <path d="M 52 44.1875 
Q 55.375 50.25 60.0625 53.125 
Q 64.75 56 71.09375 56 
Q 79.640625 56 84.28125 50.015625 
Q 88.921875 44.046875 88.921875 33.015625 
L 88.921875 0 
L 79.890625 0 
L 79.890625 32.71875 
Q 79.890625 40.578125 77.09375 44.375 
Q 74.3125 48.1875 68.609375 48.1875 
Q 61.625 48.1875 57.5625 43.546875 
Q 53.515625 38.921875 53.515625 30.90625 
L 53.515625 0 
L 44.484375 0 
L 44.484375 32.71875 
Q 44.484375 40.625 41.703125 44.40625 
Q 38.921875 48.1875 33.109375 48.1875 
Q 26.21875 48.1875 22.15625 43.53125 
Q 18.109375 38.875 18.109375 30.90625 
L 18.109375 0 
L 9.078125 0 
L 9.078125 54.6875 
L 18.109375 54.6875 
L 18.109375 46.1875 
Q 21.1875 51.21875 25.484375 53.609375 
Q 29.78125 56 35.6875 56 
Q 41.65625 56 45.828125 52.96875 
Q 50 49.953125 52 44.1875 
z
" id="DejaVuSans-109"/>
     <path d="M 45.40625 27.984375 
Q 45.40625 37.75 41.375 43.109375 
Q 37.359375 48.484375 30.078125 48.484375 
Q 22.859375 48.484375 18.828125 43.109375 
Q 14.796875 37.75 14.796875 27.984375 
Q 14.796875 18.265625 18.828125 12.890625 
Q 22.859375 7.515625 30.078125 7.515625 
Q 37.359375 7.515625 41.375 12.890625 
Q 45.40625 18.265625 45.40625 27.984375 
z
M 54.390625 6.78125 
Q 54.390625 -7.171875 48.1875 -13.984375 
Q 42 -20.796875 29.203125 -20.796875 
Q 24.46875 -20.796875 20.265625 -20.09375 
Q 16.0625 -19.390625 12.109375 -17.921875 
L 12.109375 -9.1875 
Q 16.0625 -11.328125 19.921875 -12.34375 
Q 23.78125 -13.375 27.78125 -13.375 
Q 36.625 -13.375 41.015625 -8.765625 
Q 45.40625 -4.15625 45.40625 5.171875 
L 45.40625 9.625 
Q 42.625 4.78125 38.28125 2.390625 
Q 33.9375 0 27.875 0 
Q 17.828125 0 11.671875 7.65625 
Q 5.515625 15.328125 5.515625 27.984375 
Q 5.515625 40.671875 11.671875 48.328125 
Q 17.828125 56 27.875 56 
Q 33.9375 56 38.28125 53.609375 
Q 42.625 51.21875 45.40625 46.390625 
L 45.40625 54.6875 
L 54.390625 54.6875 
z
" id="DejaVuSans-103"/>
    </defs>
    <g transform="translate(263.854688 41.042625)scale(0.12 -0.12)">
     <use xlink:href="#DejaVuSans-98"/>
     <use x="63.476562" xlink:href="#DejaVuSans-97"/>
     <use x="124.755859" xlink:href="#DejaVuSans-114"/>
     <use x="165.869141" xlink:href="#DejaVuSans-107"/>
     <use x="223.779297" xlink:href="#DejaVuSans-58"/>
     <use x="257.470703" xlink:href="#DejaVuSans-32"/>
     <use x="289.257812" xlink:href="#DejaVuSans-105"/>
     <use x="317.041016" xlink:href="#DejaVuSans-109"/>
     <use x="414.453125" xlink:href="#DejaVuSans-103"/>
     <use x="477.929688" xlink:href="#DejaVuSans-49"/>
     <use x="541.552734" xlink:href="#DejaVuSans-45"/>
     <use x="577.636719" xlink:href="#DejaVuSans-105"/>
     <use x="605.419922" xlink:href="#DejaVuSans-109"/>
     <use x="702.832031" xlink:href="#DejaVuSans-103"/>
     <use x="766.308594" xlink:href="#DejaVuSans-50"/>
    </g>
    <!-- NearestNeighbours -->
    <defs>
     <path d="M 9.8125 72.90625 
L 23.09375 72.90625 
L 55.421875 11.921875 
L 55.421875 72.90625 
L 64.984375 72.90625 
L 64.984375 0 
L 51.703125 0 
L 19.390625 60.984375 
L 19.390625 0 
L 9.8125 0 
z
" id="DejaVuSans-78"/>
     <path d="M 54.890625 33.015625 
L 54.890625 0 
L 45.90625 0 
L 45.90625 32.71875 
Q 45.90625 40.484375 42.875 44.328125 
Q 39.84375 48.1875 33.796875 48.1875 
Q 26.515625 48.1875 22.3125 43.546875 
Q 18.109375 38.921875 18.109375 30.90625 
L 18.109375 0 
L 9.078125 0 
L 9.078125 75.984375 
L 18.109375 75.984375 
L 18.109375 46.1875 
Q 21.34375 51.125 25.703125 53.5625 
Q 30.078125 56 35.796875 56 
Q 45.21875 56 50.046875 50.171875 
Q 54.890625 44.34375 54.890625 33.015625 
z
" id="DejaVuSans-104"/>
     <path d="M 8.5 21.578125 
L 8.5 54.6875 
L 17.484375 54.6875 
L 17.484375 21.921875 
Q 17.484375 14.15625 20.5 10.265625 
Q 23.53125 6.390625 29.59375 6.390625 
Q 36.859375 6.390625 41.078125 11.03125 
Q 45.3125 15.671875 45.3125 23.6875 
L 45.3125 54.6875 
L 54.296875 54.6875 
L 54.296875 0 
L 45.3125 0 
L 45.3125 8.40625 
Q 42.046875 3.421875 37.71875 1 
Q 33.40625 -1.421875 27.6875 -1.421875 
Q 18.265625 -1.421875 13.375 4.4375 
Q 8.5 10.296875 8.5 21.578125 
z
M 31.109375 56 
z
" id="DejaVuSans-117"/>
    </defs>
    <g transform="translate(255.957188 54.48)scale(0.12 -0.12)">
     <use xlink:href="#DejaVuSans-78"/>
     <use x="74.804688" xlink:href="#DejaVuSans-101"/>
     <use x="136.328125" xlink:href="#DejaVuSans-97"/>
     <use x="197.607422" xlink:href="#DejaVuSans-114"/>
     <use x="236.470703" xlink:href="#DejaVuSans-101"/>
     <use x="297.994141" xlink:href="#DejaVuSans-115"/>
     <use x="350.09375" xlink:href="#DejaVuSans-116"/>
     <use x="389.302734" xlink:href="#DejaVuSans-78"/>
     <use x="464.107422" xlink:href="#DejaVuSans-101"/>
     <use x="525.630859" xlink:href="#DejaVuSans-105"/>
     <use x="553.414062" xlink:href="#DejaVuSans-103"/>
     <use x="616.890625" xlink:href="#DejaVuSans-104"/>
     <use x="680.269531" xlink:href="#DejaVuSans-98"/>
     <use x="743.746094" xlink:href="#DejaVuSans-111"/>
     <use x="804.927734" xlink:href="#DejaVuSans-117"/>
     <use x="868.306641" xlink:href="#DejaVuSans-114"/>
     <use x="909.419922" xlink:href="#DejaVuSans-115"/>
    </g>
   </g>
   <g id="legend_1">
    <g id="patch_7">
     <path d="M 83.5 112.514375 
L 264.640625 112.514375 
Q 266.640625 112.514375 266.640625 110.514375 
L 266.640625 67.48 
Q 266.640625 65.48 264.640625 65.48 
L 83.5 65.48 
Q 81.5 65.48 81.5 67.48 
L 81.5 110.514375 
Q 81.5 112.514375 83.5 112.514375 
z
" style="fill:#ffffff;opacity:0.8;stroke:#cccccc;stroke-linejoin:miter;"/>
    </g>
    <g id="line2d_48">
     <path d="M 85.5 73.578438 
L 105.5 73.578438 
" style="fill:none;stroke:#1f77b4;stroke-linecap:square;stroke-width:2;"/>
    </g>
    <g id="line2d_49"/>
    <g id="text_26">
     <!-- root-cvsift AP: 78.5, %In: 24.2 -->
     <defs>
      <path d="M 2.984375 54.6875 
L 12.5 54.6875 
L 29.59375 8.796875 
L 46.6875 54.6875 
L 56.203125 54.6875 
L 35.6875 0 
L 23.484375 0 
z
" id="DejaVuSans-118"/>
      <path d="M 37.109375 75.984375 
L 37.109375 68.5 
L 28.515625 68.5 
Q 23.6875 68.5 21.796875 66.546875 
Q 19.921875 64.59375 19.921875 59.515625 
L 19.921875 54.6875 
L 34.71875 54.6875 
L 34.71875 47.703125 
L 19.921875 47.703125 
L 19.921875 0 
L 10.890625 0 
L 10.890625 47.703125 
L 2.296875 47.703125 
L 2.296875 54.6875 
L 10.890625 54.6875 
L 10.890625 58.5 
Q 10.890625 67.625 15.140625 71.796875 
Q 19.390625 75.984375 28.609375 75.984375 
z
" id="DejaVuSans-102"/>
      <path d="M 34.1875 63.1875 
L 20.796875 26.90625 
L 47.609375 26.90625 
z
M 28.609375 72.90625 
L 39.796875 72.90625 
L 67.578125 0 
L 57.328125 0 
L 50.6875 18.703125 
L 17.828125 18.703125 
L 11.1875 0 
L 0.78125 0 
z
" id="DejaVuSans-65"/>
      <path d="M 19.671875 64.796875 
L 19.671875 37.40625 
L 32.078125 37.40625 
Q 38.96875 37.40625 42.71875 40.96875 
Q 46.484375 44.53125 46.484375 51.125 
Q 46.484375 57.671875 42.71875 61.234375 
Q 38.96875 64.796875 32.078125 64.796875 
z
M 9.8125 72.90625 
L 32.078125 72.90625 
Q 44.34375 72.90625 50.609375 67.359375 
Q 56.890625 61.8125 56.890625 51.125 
Q 56.890625 40.328125 50.609375 34.8125 
Q 44.34375 29.296875 32.078125 29.296875 
L 19.671875 29.296875 
L 19.671875 0 
L 9.8125 0 
z
" id="DejaVuSans-80"/>
      <path d="M 11.71875 12.40625 
L 22.015625 12.40625 
L 22.015625 4 
L 14.015625 -11.625 
L 7.71875 -11.625 
L 11.71875 4 
z
" id="DejaVuSans-44"/>
      <path d="M 72.703125 32.078125 
Q 68.453125 32.078125 66.03125 28.46875 
Q 63.625 24.859375 63.625 18.40625 
Q 63.625 12.0625 66.03125 8.421875 
Q 68.453125 4.78125 72.703125 4.78125 
Q 76.859375 4.78125 79.265625 8.421875 
Q 81.6875 12.0625 81.6875 18.40625 
Q 81.6875 24.8125 79.265625 28.4375 
Q 76.859375 32.078125 72.703125 32.078125 
z
M 72.703125 38.28125 
Q 80.421875 38.28125 84.953125 32.90625 
Q 89.5 27.546875 89.5 18.40625 
Q 89.5 9.28125 84.9375 3.921875 
Q 80.375 -1.421875 72.703125 -1.421875 
Q 64.890625 -1.421875 60.34375 3.921875 
Q 55.8125 9.28125 55.8125 18.40625 
Q 55.8125 27.59375 60.375 32.9375 
Q 64.9375 38.28125 72.703125 38.28125 
z
M 22.3125 68.015625 
Q 18.109375 68.015625 15.6875 64.375 
Q 13.28125 60.75 13.28125 54.390625 
Q 13.28125 47.953125 15.671875 44.328125 
Q 18.0625 40.71875 22.3125 40.71875 
Q 26.5625 40.71875 28.96875 44.328125 
Q 31.390625 47.953125 31.390625 54.390625 
Q 31.390625 60.6875 28.953125 64.34375 
Q 26.515625 68.015625 22.3125 68.015625 
z
M 66.40625 74.21875 
L 74.21875 74.21875 
L 28.609375 -1.421875 
L 20.796875 -1.421875 
z
M 22.3125 74.21875 
Q 30.03125 74.21875 34.609375 68.875 
Q 39.203125 63.53125 39.203125 54.390625 
Q 39.203125 45.171875 34.640625 39.84375 
Q 30.078125 34.515625 22.3125 34.515625 
Q 14.546875 34.515625 10.03125 39.859375 
Q 5.515625 45.21875 5.515625 54.390625 
Q 5.515625 63.484375 10.046875 68.84375 
Q 14.59375 74.21875 22.3125 74.21875 
z
" id="DejaVuSans-37"/>
      <path d="M 9.8125 72.90625 
L 19.671875 72.90625 
L 19.671875 0 
L 9.8125 0 
z
" id="DejaVuSans-73"/>
     </defs>
     <g transform="translate(113.5 77.078438)scale(0.1 -0.1)">
      <use xlink:href="#DejaVuSans-114"/>
      <use x="38.863281" xlink:href="#DejaVuSans-111"/>
      <use x="100.044922" xlink:href="#DejaVuSans-111"/>
      <use x="161.226562" xlink:href="#DejaVuSans-116"/>
      <use x="200.435547" xlink:href="#DejaVuSans-45"/>
      <use x="236.519531" xlink:href="#DejaVuSans-99"/>
      <use x="291.5" xlink:href="#DejaVuSans-118"/>
      <use x="350.679688" xlink:href="#DejaVuSans-115"/>
      <use x="402.779297" xlink:href="#DejaVuSans-105"/>
      <use x="430.5625" xlink:href="#DejaVuSans-102"/>
      <use x="464.017578" xlink:href="#DejaVuSans-116"/>
      <use x="503.226562" xlink:href="#DejaVuSans-32"/>
      <use x="535.013672" xlink:href="#DejaVuSans-65"/>
      <use x="603.421875" xlink:href="#DejaVuSans-80"/>
      <use x="663.724609" xlink:href="#DejaVuSans-58"/>
      <use x="697.416016" xlink:href="#DejaVuSans-32"/>
      <use x="729.203125" xlink:href="#DejaVuSans-55"/>
      <use x="792.826172" xlink:href="#DejaVuSans-56"/>
      <use x="856.449219" xlink:href="#DejaVuSans-46"/>
      <use x="888.236328" xlink:href="#DejaVuSans-53"/>
      <use x="951.859375" xlink:href="#DejaVuSans-44"/>
      <use x="983.646484" xlink:href="#DejaVuSans-32"/>
      <use x="1015.433594" xlink:href="#DejaVuSans-37"/>
      <use x="1110.453125" xlink:href="#DejaVuSans-73"/>
      <use x="1139.945312" xlink:href="#DejaVuSans-110"/>
      <use x="1203.324219" xlink:href="#DejaVuSans-58"/>
      <use x="1237.015625" xlink:href="#DejaVuSans-32"/>
      <use x="1268.802734" xlink:href="#DejaVuSans-50"/>
      <use x="1332.425781" xlink:href="#DejaVuSans-52"/>
      <use x="1396.048828" xlink:href="#DejaVuSans-46"/>
      <use x="1427.835938" xlink:href="#DejaVuSans-50"/>
     </g>
    </g>
    <g id="line2d_50">
     <path d="M 85.5 88.256563 
L 105.5 88.256563 
" style="fill:none;stroke:#ff7f0e;stroke-linecap:square;stroke-width:2;"/>
    </g>
    <g id="line2d_51"/>
    <g id="text_27">
     <!-- tfeat AP: 53.0, %In: 18.9 -->
     <g transform="translate(113.5 91.756563)scale(0.1 -0.1)">
      <use xlink:href="#DejaVuSans-116"/>
      <use x="39.208984" xlink:href="#DejaVuSans-102"/>
      <use x="74.414062" xlink:href="#DejaVuSans-101"/>
      <use x="135.9375" xlink:href="#DejaVuSans-97"/>
      <use x="197.216797" xlink:href="#DejaVuSans-116"/>
      <use x="236.425781" xlink:href="#DejaVuSans-32"/>
      <use x="268.212891" xlink:href="#DejaVuSans-65"/>
      <use x="336.621094" xlink:href="#DejaVuSans-80"/>
      <use x="396.923828" xlink:href="#DejaVuSans-58"/>
      <use x="430.615234" xlink:href="#DejaVuSans-32"/>
      <use x="462.402344" xlink:href="#DejaVuSans-53"/>
      <use x="526.025391" xlink:href="#DejaVuSans-51"/>
      <use x="589.648438" xlink:href="#DejaVuSans-46"/>
      <use x="621.435547" xlink:href="#DejaVuSans-48"/>
      <use x="685.058594" xlink:href="#DejaVuSans-44"/>
      <use x="716.845703" xlink:href="#DejaVuSans-32"/>
      <use x="748.632812" xlink:href="#DejaVuSans-37"/>
      <use x="843.652344" xlink:href="#DejaVuSans-73"/>
      <use x="873.144531" xlink:href="#DejaVuSans-110"/>
      <use x="936.523438" xlink:href="#DejaVuSans-58"/>
      <use x="970.214844" xlink:href="#DejaVuSans-32"/>
      <use x="1002.001953" xlink:href="#DejaVuSans-49"/>
      <use x="1065.625" xlink:href="#DejaVuSans-56"/>
      <use x="1129.248047" xlink:href="#DejaVuSans-46"/>
      <use x="1161.035156" xlink:href="#DejaVuSans-57"/>
     </g>
    </g>
    <g id="line2d_52">
     <path d="M 85.5 102.934687 
L 105.5 102.934687 
" style="fill:none;stroke:#2ca02c;stroke-linecap:square;stroke-width:2;"/>
    </g>
    <g id="line2d_53"/>
    <g id="text_28">
     <!-- hardnet AP: 85.7, %In: 26.2 -->
     <defs>
      <path d="M 45.40625 46.390625 
L 45.40625 75.984375 
L 54.390625 75.984375 
L 54.390625 0 
L 45.40625 0 
L 45.40625 8.203125 
Q 42.578125 3.328125 38.25 0.953125 
Q 33.9375 -1.421875 27.875 -1.421875 
Q 17.96875 -1.421875 11.734375 6.484375 
Q 5.515625 14.40625 5.515625 27.296875 
Q 5.515625 40.1875 11.734375 48.09375 
Q 17.96875 56 27.875 56 
Q 33.9375 56 38.25 53.625 
Q 42.578125 51.265625 45.40625 46.390625 
z
M 14.796875 27.296875 
Q 14.796875 17.390625 18.875 11.75 
Q 22.953125 6.109375 30.078125 6.109375 
Q 37.203125 6.109375 41.296875 11.75 
Q 45.40625 17.390625 45.40625 27.296875 
Q 45.40625 37.203125 41.296875 42.84375 
Q 37.203125 48.484375 30.078125 48.484375 
Q 22.953125 48.484375 18.875 42.84375 
Q 14.796875 37.203125 14.796875 27.296875 
z
" id="DejaVuSans-100"/>
     </defs>
     <g transform="translate(113.5 106.434687)scale(0.1 -0.1)">
      <use xlink:href="#DejaVuSans-104"/>
      <use x="63.378906" xlink:href="#DejaVuSans-97"/>
      <use x="124.658203" xlink:href="#DejaVuSans-114"/>
      <use x="164.021484" xlink:href="#DejaVuSans-100"/>
      <use x="227.498047" xlink:href="#DejaVuSans-110"/>
      <use x="290.876953" xlink:href="#DejaVuSans-101"/>
      <use x="352.400391" xlink:href="#DejaVuSans-116"/>
      <use x="391.609375" xlink:href="#DejaVuSans-32"/>
      <use x="423.396484" xlink:href="#DejaVuSans-65"/>
      <use x="491.804688" xlink:href="#DejaVuSans-80"/>
      <use x="552.107422" xlink:href="#DejaVuSans-58"/>
      <use x="585.798828" xlink:href="#DejaVuSans-32"/>
      <use x="617.585938" xlink:href="#DejaVuSans-56"/>
      <use x="681.208984" xlink:href="#DejaVuSans-53"/>
      <use x="744.832031" xlink:href="#DejaVuSans-46"/>
      <use x="776.619141" xlink:href="#DejaVuSans-55"/>
      <use x="840.242188" xlink:href="#DejaVuSans-44"/>
      <use x="872.029297" xlink:href="#DejaVuSans-32"/>
      <use x="903.816406" xlink:href="#DejaVuSans-37"/>
      <use x="998.835938" xlink:href="#DejaVuSans-73"/>
      <use x="1028.328125" xlink:href="#DejaVuSans-110"/>
      <use x="1091.707031" xlink:href="#DejaVuSans-58"/>
      <use x="1125.398438" xlink:href="#DejaVuSans-32"/>
      <use x="1157.185547" xlink:href="#DejaVuSans-50"/>
      <use x="1220.808594" xlink:href="#DejaVuSans-54"/>
      <use x="1284.431641" xlink:href="#DejaVuSans-46"/>
      <use x="1316.21875" xlink:href="#DejaVuSans-50"/>
     </g>
    </g>
   </g>
  </g>
 </g>
 <defs>
  <clipPath id="p95a459d382">
   <rect height="388.08" width="474.3" x="76.5" y="60.48"/>
  </clipPath>
 </defs>
</svg>
