<?xml version="1.0" encoding="utf-8" standalone="no"?>
<!DOCTYPE svg PUBLIC "-//W3C//DTD SVG 1.1//EN"
  "http://www.w3.org/Graphics/SVG/1.1/DTD/svg11.dtd">
<!-- Created with matplotlib (https://matplotlib.org/) -->
<svg height="504pt" version="1.1" viewBox="0 0 612 504" width="612pt" xmlns="http://www.w3.org/2000/svg" xmlns:xlink="http://www.w3.org/1999/xlink">
 <defs>
  <style type="text/css">
*{stroke-linecap:butt;stroke-linejoin:round;}
  </style>
 </defs>
 <g id="figure_1">
  <g id="patch_1">
   <path d="M 0 504 
L 612 504 
L 612 0 
L 0 0 
z
" style="fill:#ffffff;"/>
  </g>
  <g id="axes_1">
   <g id="patch_2">
    <path d="M 76.5 448.56 
L 550.8 448.56 
L 550.8 60.48 
L 76.5 60.48 
z
" style="fill:#ffffff;"/>
   </g>
   <g id="matplotlib.axis_1">
    <g id="xtick_1">
     <g id="line2d_1">
      <path clip-path="url(#pe80e0e7139)" d="M 76.5 448.56 
L 76.5 60.48 
" style="fill:none;stroke:#b0b0b0;stroke-linecap:square;stroke-width:0.8;"/>
     </g>
     <g id="line2d_2">
      <defs>
       <path d="M 0 0 
L 0 3.5 
" id="m2420b8c652" style="stroke:#000000;stroke-width:0.8;"/>
      </defs>
      <g>
       <use style="stroke:#000000;stroke-width:0.8;" x="76.5" xlink:href="#m2420b8c652" y="448.56"/>
      </g>
     </g>
     <g id="text_1">
      <!-- 0.0 -->
      <defs>
       <path d="M 31.78125 66.40625 
Q 24.171875 66.40625 20.328125 58.90625 
Q 16.5 51.421875 16.5 36.375 
Q 16.5 21.390625 20.328125 13.890625 
Q 24.171875 6.390625 31.78125 6.390625 
Q 39.453125 6.390625 43.28125 13.890625 
Q 47.125 21.390625 47.125 36.375 
Q 47.125 51.421875 43.28125 58.90625 
Q 39.453125 66.40625 31.78125 66.40625 
z
M 31.78125 74.21875 
Q 44.046875 74.21875 50.515625 64.515625 
Q 56.984375 54.828125 56.984375 36.375 
Q 56.984375 17.96875 50.515625 8.265625 
Q 44.046875 -1.421875 31.78125 -1.421875 
Q 19.53125 -1.421875 13.0625 8.265625 
Q 6.59375 17.96875 6.59375 36.375 
Q 6.59375 54.828125 13.0625 64.515625 
Q 19.53125 74.21875 31.78125 74.21875 
z
" id="DejaVuSans-48"/>
       <path d="M 10.6875 12.40625 
L 21 12.40625 
L 21 0 
L 10.6875 0 
z
" id="DejaVuSans-46"/>
      </defs>
      <g transform="translate(68.548438 463.158437)scale(0.1 -0.1)">
       <use xlink:href="#DejaVuSans-48"/>
       <use x="63.623047" xlink:href="#DejaVuSans-46"/>
       <use x="95.410156" xlink:href="#DejaVuSans-48"/>
      </g>
     </g>
    </g>
    <g id="xtick_2">
     <g id="line2d_3">
      <path clip-path="url(#pe80e0e7139)" d="M 123.93 448.56 
L 123.93 60.48 
" style="fill:none;stroke:#b0b0b0;stroke-linecap:square;stroke-width:0.8;"/>
     </g>
     <g id="line2d_4">
      <g>
       <use style="stroke:#000000;stroke-width:0.8;" x="123.93" xlink:href="#m2420b8c652" y="448.56"/>
      </g>
     </g>
     <g id="text_2">
      <!-- 0.1 -->
      <defs>
       <path d="M 12.40625 8.296875 
L 28.515625 8.296875 
L 28.515625 63.921875 
L 10.984375 60.40625 
L 10.984375 69.390625 
L 28.421875 72.90625 
L 38.28125 72.90625 
L 38.28125 8.296875 
L 54.390625 8.296875 
L 54.390625 0 
L 12.40625 0 
z
" id="DejaVuSans-49"/>
      </defs>
      <g transform="translate(115.978438 463.158437)scale(0.1 -0.1)">
       <use xlink:href="#DejaVuSans-48"/>
       <use x="63.623047" xlink:href="#DejaVuSans-46"/>
       <use x="95.410156" xlink:href="#DejaVuSans-49"/>
      </g>
     </g>
    </g>
    <g id="xtick_3">
     <g id="line2d_5">
      <path clip-path="url(#pe80e0e7139)" d="M 171.36 448.56 
L 171.36 60.48 
" style="fill:none;stroke:#b0b0b0;stroke-linecap:square;stroke-width:0.8;"/>
     </g>
     <g id="line2d_6">
      <g>
       <use style="stroke:#000000;stroke-width:0.8;" x="171.36" xlink:href="#m2420b8c652" y="448.56"/>
      </g>
     </g>
     <g id="text_3">
      <!-- 0.2 -->
      <defs>
       <path d="M 19.1875 8.296875 
L 53.609375 8.296875 
L 53.609375 0 
L 7.328125 0 
L 7.328125 8.296875 
Q 12.9375 14.109375 22.625 23.890625 
Q 32.328125 33.6875 34.8125 36.53125 
Q 39.546875 41.84375 41.421875 45.53125 
Q 43.3125 49.21875 43.3125 52.78125 
Q 43.3125 58.59375 39.234375 62.25 
Q 35.15625 65.921875 28.609375 65.921875 
Q 23.96875 65.921875 18.8125 64.3125 
Q 13.671875 62.703125 7.8125 59.421875 
L 7.8125 69.390625 
Q 13.765625 71.78125 18.9375 73 
Q 24.125 74.21875 28.421875 74.21875 
Q 39.75 74.21875 46.484375 68.546875 
Q 53.21875 62.890625 53.21875 53.421875 
Q 53.21875 48.921875 51.53125 44.890625 
Q 49.859375 40.875 45.40625 35.40625 
Q 44.1875 33.984375 37.640625 27.21875 
Q 31.109375 20.453125 19.1875 8.296875 
z
" id="DejaVuSans-50"/>
      </defs>
      <g transform="translate(163.408438 463.158437)scale(0.1 -0.1)">
       <use xlink:href="#DejaVuSans-48"/>
       <use x="63.623047" xlink:href="#DejaVuSans-46"/>
       <use x="95.410156" xlink:href="#DejaVuSans-50"/>
      </g>
     </g>
    </g>
    <g id="xtick_4">
     <g id="line2d_7">
      <path clip-path="url(#pe80e0e7139)" d="M 218.79 448.56 
L 218.79 60.48 
" style="fill:none;stroke:#b0b0b0;stroke-linecap:square;stroke-width:0.8;"/>
     </g>
     <g id="line2d_8">
      <g>
       <use style="stroke:#000000;stroke-width:0.8;" x="218.79" xlink:href="#m2420b8c652" y="448.56"/>
      </g>
     </g>
     <g id="text_4">
      <!-- 0.3 -->
      <defs>
       <path d="M 40.578125 39.3125 
Q 47.65625 37.796875 51.625 33 
Q 55.609375 28.21875 55.609375 21.1875 
Q 55.609375 10.40625 48.1875 4.484375 
Q 40.765625 -1.421875 27.09375 -1.421875 
Q 22.515625 -1.421875 17.65625 -0.515625 
Q 12.796875 0.390625 7.625 2.203125 
L 7.625 11.71875 
Q 11.71875 9.328125 16.59375 8.109375 
Q 21.484375 6.890625 26.8125 6.890625 
Q 36.078125 6.890625 40.9375 10.546875 
Q 45.796875 14.203125 45.796875 21.1875 
Q 45.796875 27.640625 41.28125 31.265625 
Q 36.765625 34.90625 28.71875 34.90625 
L 20.21875 34.90625 
L 20.21875 43.015625 
L 29.109375 43.015625 
Q 36.375 43.015625 40.234375 45.921875 
Q 44.09375 48.828125 44.09375 54.296875 
Q 44.09375 59.90625 40.109375 62.90625 
Q 36.140625 65.921875 28.71875 65.921875 
Q 24.65625 65.921875 20.015625 65.03125 
Q 15.375 64.15625 9.8125 62.3125 
L 9.8125 71.09375 
Q 15.4375 72.65625 20.34375 73.4375 
Q 25.25 74.21875 29.59375 74.21875 
Q 40.828125 74.21875 47.359375 69.109375 
Q 53.90625 64.015625 53.90625 55.328125 
Q 53.90625 49.265625 50.4375 45.09375 
Q 46.96875 40.921875 40.578125 39.3125 
z
" id="DejaVuSans-51"/>
      </defs>
      <g transform="translate(210.838438 463.158437)scale(0.1 -0.1)">
       <use xlink:href="#DejaVuSans-48"/>
       <use x="63.623047" xlink:href="#DejaVuSans-46"/>
       <use x="95.410156" xlink:href="#DejaVuSans-51"/>
      </g>
     </g>
    </g>
    <g id="xtick_5">
     <g id="line2d_9">
      <path clip-path="url(#pe80e0e7139)" d="M 266.22 448.56 
L 266.22 60.48 
" style="fill:none;stroke:#b0b0b0;stroke-linecap:square;stroke-width:0.8;"/>
     </g>
     <g id="line2d_10">
      <g>
       <use style="stroke:#000000;stroke-width:0.8;" x="266.22" xlink:href="#m2420b8c652" y="448.56"/>
      </g>
     </g>
     <g id="text_5">
      <!-- 0.4 -->
      <defs>
       <path d="M 37.796875 64.3125 
L 12.890625 25.390625 
L 37.796875 25.390625 
z
M 35.203125 72.90625 
L 47.609375 72.90625 
L 47.609375 25.390625 
L 58.015625 25.390625 
L 58.015625 17.1875 
L 47.609375 17.1875 
L 47.609375 0 
L 37.796875 0 
L 37.796875 17.1875 
L 4.890625 17.1875 
L 4.890625 26.703125 
z
" id="DejaVuSans-52"/>
      </defs>
      <g transform="translate(258.268438 463.158437)scale(0.1 -0.1)">
       <use xlink:href="#DejaVuSans-48"/>
       <use x="63.623047" xlink:href="#DejaVuSans-46"/>
       <use x="95.410156" xlink:href="#DejaVuSans-52"/>
      </g>
     </g>
    </g>
    <g id="xtick_6">
     <g id="line2d_11">
      <path clip-path="url(#pe80e0e7139)" d="M 313.65 448.56 
L 313.65 60.48 
" style="fill:none;stroke:#b0b0b0;stroke-linecap:square;stroke-width:0.8;"/>
     </g>
     <g id="line2d_12">
      <g>
       <use style="stroke:#000000;stroke-width:0.8;" x="313.65" xlink:href="#m2420b8c652" y="448.56"/>
      </g>
     </g>
     <g id="text_6">
      <!-- 0.5 -->
      <defs>
       <path d="M 10.796875 72.90625 
L 49.515625 72.90625 
L 49.515625 64.59375 
L 19.828125 64.59375 
L 19.828125 46.734375 
Q 21.96875 47.46875 24.109375 47.828125 
Q 26.265625 48.1875 28.421875 48.1875 
Q 40.625 48.1875 47.75 41.5 
Q 54.890625 34.8125 54.890625 23.390625 
Q 54.890625 11.625 47.5625 5.09375 
Q 40.234375 -1.421875 26.90625 -1.421875 
Q 22.3125 -1.421875 17.546875 -0.640625 
Q 12.796875 0.140625 7.71875 1.703125 
L 7.71875 11.625 
Q 12.109375 9.234375 16.796875 8.0625 
Q 21.484375 6.890625 26.703125 6.890625 
Q 35.15625 6.890625 40.078125 11.328125 
Q 45.015625 15.765625 45.015625 23.390625 
Q 45.015625 31 40.078125 35.4375 
Q 35.15625 39.890625 26.703125 39.890625 
Q 22.75 39.890625 18.8125 39.015625 
Q 14.890625 38.140625 10.796875 36.28125 
z
" id="DejaVuSans-53"/>
      </defs>
      <g transform="translate(305.698438 463.158437)scale(0.1 -0.1)">
       <use xlink:href="#DejaVuSans-48"/>
       <use x="63.623047" xlink:href="#DejaVuSans-46"/>
       <use x="95.410156" xlink:href="#DejaVuSans-53"/>
      </g>
     </g>
    </g>
    <g id="xtick_7">
     <g id="line2d_13">
      <path clip-path="url(#pe80e0e7139)" d="M 361.08 448.56 
L 361.08 60.48 
" style="fill:none;stroke:#b0b0b0;stroke-linecap:square;stroke-width:0.8;"/>
     </g>
     <g id="line2d_14">
      <g>
       <use style="stroke:#000000;stroke-width:0.8;" x="361.08" xlink:href="#m2420b8c652" y="448.56"/>
      </g>
     </g>
     <g id="text_7">
      <!-- 0.6 -->
      <defs>
       <path d="M 33.015625 40.375 
Q 26.375 40.375 22.484375 35.828125 
Q 18.609375 31.296875 18.609375 23.390625 
Q 18.609375 15.53125 22.484375 10.953125 
Q 26.375 6.390625 33.015625 6.390625 
Q 39.65625 6.390625 43.53125 10.953125 
Q 47.40625 15.53125 47.40625 23.390625 
Q 47.40625 31.296875 43.53125 35.828125 
Q 39.65625 40.375 33.015625 40.375 
z
M 52.59375 71.296875 
L 52.59375 62.3125 
Q 48.875 64.0625 45.09375 64.984375 
Q 41.3125 65.921875 37.59375 65.921875 
Q 27.828125 65.921875 22.671875 59.328125 
Q 17.53125 52.734375 16.796875 39.40625 
Q 19.671875 43.65625 24.015625 45.921875 
Q 28.375 48.1875 33.59375 48.1875 
Q 44.578125 48.1875 50.953125 41.515625 
Q 57.328125 34.859375 57.328125 23.390625 
Q 57.328125 12.15625 50.6875 5.359375 
Q 44.046875 -1.421875 33.015625 -1.421875 
Q 20.359375 -1.421875 13.671875 8.265625 
Q 6.984375 17.96875 6.984375 36.375 
Q 6.984375 53.65625 15.1875 63.9375 
Q 23.390625 74.21875 37.203125 74.21875 
Q 40.921875 74.21875 44.703125 73.484375 
Q 48.484375 72.75 52.59375 71.296875 
z
" id="DejaVuSans-54"/>
      </defs>
      <g transform="translate(353.128438 463.158437)scale(0.1 -0.1)">
       <use xlink:href="#DejaVuSans-48"/>
       <use x="63.623047" xlink:href="#DejaVuSans-46"/>
       <use x="95.410156" xlink:href="#DejaVuSans-54"/>
      </g>
     </g>
    </g>
    <g id="xtick_8">
     <g id="line2d_15">
      <path clip-path="url(#pe80e0e7139)" d="M 408.51 448.56 
L 408.51 60.48 
" style="fill:none;stroke:#b0b0b0;stroke-linecap:square;stroke-width:0.8;"/>
     </g>
     <g id="line2d_16">
      <g>
       <use style="stroke:#000000;stroke-width:0.8;" x="408.51" xlink:href="#m2420b8c652" y="448.56"/>
      </g>
     </g>
     <g id="text_8">
      <!-- 0.7 -->
      <defs>
       <path d="M 8.203125 72.90625 
L 55.078125 72.90625 
L 55.078125 68.703125 
L 28.609375 0 
L 18.3125 0 
L 43.21875 64.59375 
L 8.203125 64.59375 
z
" id="DejaVuSans-55"/>
      </defs>
      <g transform="translate(400.558438 463.158437)scale(0.1 -0.1)">
       <use xlink:href="#DejaVuSans-48"/>
       <use x="63.623047" xlink:href="#DejaVuSans-46"/>
       <use x="95.410156" xlink:href="#DejaVuSans-55"/>
      </g>
     </g>
    </g>
    <g id="xtick_9">
     <g id="line2d_17">
      <path clip-path="url(#pe80e0e7139)" d="M 455.94 448.56 
L 455.94 60.48 
" style="fill:none;stroke:#b0b0b0;stroke-linecap:square;stroke-width:0.8;"/>
     </g>
     <g id="line2d_18">
      <g>
       <use style="stroke:#000000;stroke-width:0.8;" x="455.94" xlink:href="#m2420b8c652" y="448.56"/>
      </g>
     </g>
     <g id="text_9">
      <!-- 0.8 -->
      <defs>
       <path d="M 31.78125 34.625 
Q 24.75 34.625 20.71875 30.859375 
Q 16.703125 27.09375 16.703125 20.515625 
Q 16.703125 13.921875 20.71875 10.15625 
Q 24.75 6.390625 31.78125 6.390625 
Q 38.8125 6.390625 42.859375 10.171875 
Q 46.921875 13.96875 46.921875 20.515625 
Q 46.921875 27.09375 42.890625 30.859375 
Q 38.875 34.625 31.78125 34.625 
z
M 21.921875 38.8125 
Q 15.578125 40.375 12.03125 44.71875 
Q 8.5 49.078125 8.5 55.328125 
Q 8.5 64.0625 14.71875 69.140625 
Q 20.953125 74.21875 31.78125 74.21875 
Q 42.671875 74.21875 48.875 69.140625 
Q 55.078125 64.0625 55.078125 55.328125 
Q 55.078125 49.078125 51.53125 44.71875 
Q 48 40.375 41.703125 38.8125 
Q 48.828125 37.15625 52.796875 32.3125 
Q 56.78125 27.484375 56.78125 20.515625 
Q 56.78125 9.90625 50.3125 4.234375 
Q 43.84375 -1.421875 31.78125 -1.421875 
Q 19.734375 -1.421875 13.25 4.234375 
Q 6.78125 9.90625 6.78125 20.515625 
Q 6.78125 27.484375 10.78125 32.3125 
Q 14.796875 37.15625 21.921875 38.8125 
z
M 18.3125 54.390625 
Q 18.3125 48.734375 21.84375 45.5625 
Q 25.390625 42.390625 31.78125 42.390625 
Q 38.140625 42.390625 41.71875 45.5625 
Q 45.3125 48.734375 45.3125 54.390625 
Q 45.3125 60.0625 41.71875 63.234375 
Q 38.140625 66.40625 31.78125 66.40625 
Q 25.390625 66.40625 21.84375 63.234375 
Q 18.3125 60.0625 18.3125 54.390625 
z
" id="DejaVuSans-56"/>
      </defs>
      <g transform="translate(447.988438 463.158437)scale(0.1 -0.1)">
       <use xlink:href="#DejaVuSans-48"/>
       <use x="63.623047" xlink:href="#DejaVuSans-46"/>
       <use x="95.410156" xlink:href="#DejaVuSans-56"/>
      </g>
     </g>
    </g>
    <g id="xtick_10">
     <g id="line2d_19">
      <path clip-path="url(#pe80e0e7139)" d="M 503.37 448.56 
L 503.37 60.48 
" style="fill:none;stroke:#b0b0b0;stroke-linecap:square;stroke-width:0.8;"/>
     </g>
     <g id="line2d_20">
      <g>
       <use style="stroke:#000000;stroke-width:0.8;" x="503.37" xlink:href="#m2420b8c652" y="448.56"/>
      </g>
     </g>
     <g id="text_10">
      <!-- 0.9 -->
      <defs>
       <path d="M 10.984375 1.515625 
L 10.984375 10.5 
Q 14.703125 8.734375 18.5 7.8125 
Q 22.3125 6.890625 25.984375 6.890625 
Q 35.75 6.890625 40.890625 13.453125 
Q 46.046875 20.015625 46.78125 33.40625 
Q 43.953125 29.203125 39.59375 26.953125 
Q 35.25 24.703125 29.984375 24.703125 
Q 19.046875 24.703125 12.671875 31.3125 
Q 6.296875 37.9375 6.296875 49.421875 
Q 6.296875 60.640625 12.9375 67.421875 
Q 19.578125 74.21875 30.609375 74.21875 
Q 43.265625 74.21875 49.921875 64.515625 
Q 56.59375 54.828125 56.59375 36.375 
Q 56.59375 19.140625 48.40625 8.859375 
Q 40.234375 -1.421875 26.421875 -1.421875 
Q 22.703125 -1.421875 18.890625 -0.6875 
Q 15.09375 0.046875 10.984375 1.515625 
z
M 30.609375 32.421875 
Q 37.25 32.421875 41.125 36.953125 
Q 45.015625 41.5 45.015625 49.421875 
Q 45.015625 57.28125 41.125 61.84375 
Q 37.25 66.40625 30.609375 66.40625 
Q 23.96875 66.40625 20.09375 61.84375 
Q 16.21875 57.28125 16.21875 49.421875 
Q 16.21875 41.5 20.09375 36.953125 
Q 23.96875 32.421875 30.609375 32.421875 
z
" id="DejaVuSans-57"/>
      </defs>
      <g transform="translate(495.418438 463.158437)scale(0.1 -0.1)">
       <use xlink:href="#DejaVuSans-48"/>
       <use x="63.623047" xlink:href="#DejaVuSans-46"/>
       <use x="95.410156" xlink:href="#DejaVuSans-57"/>
      </g>
     </g>
    </g>
    <g id="xtick_11">
     <g id="line2d_21">
      <path clip-path="url(#pe80e0e7139)" d="M 550.8 448.56 
L 550.8 60.48 
" style="fill:none;stroke:#b0b0b0;stroke-linecap:square;stroke-width:0.8;"/>
     </g>
     <g id="line2d_22">
      <g>
       <use style="stroke:#000000;stroke-width:0.8;" x="550.8" xlink:href="#m2420b8c652" y="448.56"/>
      </g>
     </g>
     <g id="text_11">
      <!-- 1.0 -->
      <g transform="translate(542.848438 463.158437)scale(0.1 -0.1)">
       <use xlink:href="#DejaVuSans-49"/>
       <use x="63.623047" xlink:href="#DejaVuSans-46"/>
       <use x="95.410156" xlink:href="#DejaVuSans-48"/>
      </g>
     </g>
    </g>
    <g id="text_12">
     <!-- 1-precision -->
     <defs>
      <path d="M 4.890625 31.390625 
L 31.203125 31.390625 
L 31.203125 23.390625 
L 4.890625 23.390625 
z
" id="DejaVuSans-45"/>
      <path d="M 18.109375 8.203125 
L 18.109375 -20.796875 
L 9.078125 -20.796875 
L 9.078125 54.6875 
L 18.109375 54.6875 
L 18.109375 46.390625 
Q 20.953125 51.265625 25.265625 53.625 
Q 29.59375 56 35.59375 56 
Q 45.5625 56 51.78125 48.09375 
Q 58.015625 40.1875 58.015625 27.296875 
Q 58.015625 14.40625 51.78125 6.484375 
Q 45.5625 -1.421875 35.59375 -1.421875 
Q 29.59375 -1.421875 25.265625 0.953125 
Q 20.953125 3.328125 18.109375 8.203125 
z
M 48.6875 27.296875 
Q 48.6875 37.203125 44.609375 42.84375 
Q 40.53125 48.484375 33.40625 48.484375 
Q 26.265625 48.484375 22.1875 42.84375 
Q 18.109375 37.203125 18.109375 27.296875 
Q 18.109375 17.390625 22.1875 11.75 
Q 26.265625 6.109375 33.40625 6.109375 
Q 40.53125 6.109375 44.609375 11.75 
Q 48.6875 17.390625 48.6875 27.296875 
z
" id="DejaVuSans-112"/>
      <path d="M 41.109375 46.296875 
Q 39.59375 47.171875 37.8125 47.578125 
Q 36.03125 48 33.890625 48 
Q 26.265625 48 22.1875 43.046875 
Q 18.109375 38.09375 18.109375 28.8125 
L 18.109375 0 
L 9.078125 0 
L 9.078125 54.6875 
L 18.109375 54.6875 
L 18.109375 46.1875 
Q 20.953125 51.171875 25.484375 53.578125 
Q 30.03125 56 36.53125 56 
Q 37.453125 56 38.578125 55.875 
Q 39.703125 55.765625 41.0625 55.515625 
z
" id="DejaVuSans-114"/>
      <path d="M 56.203125 29.59375 
L 56.203125 25.203125 
L 14.890625 25.203125 
Q 15.484375 15.921875 20.484375 11.0625 
Q 25.484375 6.203125 34.421875 6.203125 
Q 39.59375 6.203125 44.453125 7.46875 
Q 49.3125 8.734375 54.109375 11.28125 
L 54.109375 2.78125 
Q 49.265625 0.734375 44.1875 -0.34375 
Q 39.109375 -1.421875 33.890625 -1.421875 
Q 20.796875 -1.421875 13.15625 6.1875 
Q 5.515625 13.8125 5.515625 26.8125 
Q 5.515625 40.234375 12.765625 48.109375 
Q 20.015625 56 32.328125 56 
Q 43.359375 56 49.78125 48.890625 
Q 56.203125 41.796875 56.203125 29.59375 
z
M 47.21875 32.234375 
Q 47.125 39.59375 43.09375 43.984375 
Q 39.0625 48.390625 32.421875 48.390625 
Q 24.90625 48.390625 20.390625 44.140625 
Q 15.875 39.890625 15.1875 32.171875 
z
" id="DejaVuSans-101"/>
      <path d="M 48.78125 52.59375 
L 48.78125 44.1875 
Q 44.96875 46.296875 41.140625 47.34375 
Q 37.3125 48.390625 33.40625 48.390625 
Q 24.65625 48.390625 19.8125 42.84375 
Q 14.984375 37.3125 14.984375 27.296875 
Q 14.984375 17.28125 19.8125 11.734375 
Q 24.65625 6.203125 33.40625 6.203125 
Q 37.3125 6.203125 41.140625 7.25 
Q 44.96875 8.296875 48.78125 10.40625 
L 48.78125 2.09375 
Q 45.015625 0.34375 40.984375 -0.53125 
Q 36.96875 -1.421875 32.421875 -1.421875 
Q 20.0625 -1.421875 12.78125 6.34375 
Q 5.515625 14.109375 5.515625 27.296875 
Q 5.515625 40.671875 12.859375 48.328125 
Q 20.21875 56 33.015625 56 
Q 37.15625 56 41.109375 55.140625 
Q 45.0625 54.296875 48.78125 52.59375 
z
" id="DejaVuSans-99"/>
      <path d="M 9.421875 54.6875 
L 18.40625 54.6875 
L 18.40625 0 
L 9.421875 0 
z
M 9.421875 75.984375 
L 18.40625 75.984375 
L 18.40625 64.59375 
L 9.421875 64.59375 
z
" id="DejaVuSans-105"/>
      <path d="M 44.28125 53.078125 
L 44.28125 44.578125 
Q 40.484375 46.53125 36.375 47.5 
Q 32.28125 48.484375 27.875 48.484375 
Q 21.1875 48.484375 17.84375 46.4375 
Q 14.5 44.390625 14.5 40.28125 
Q 14.5 37.15625 16.890625 35.375 
Q 19.28125 33.59375 26.515625 31.984375 
L 29.59375 31.296875 
Q 39.15625 29.25 43.1875 25.515625 
Q 47.21875 21.78125 47.21875 15.09375 
Q 47.21875 7.46875 41.1875 3.015625 
Q 35.15625 -1.421875 24.609375 -1.421875 
Q 20.21875 -1.421875 15.453125 -0.5625 
Q 10.6875 0.296875 5.421875 2 
L 5.421875 11.28125 
Q 10.40625 8.6875 15.234375 7.390625 
Q 20.0625 6.109375 24.8125 6.109375 
Q 31.15625 6.109375 34.5625 8.28125 
Q 37.984375 10.453125 37.984375 14.40625 
Q 37.984375 18.0625 35.515625 20.015625 
Q 33.0625 21.96875 24.703125 23.78125 
L 21.578125 24.515625 
Q 13.234375 26.265625 9.515625 29.90625 
Q 5.8125 33.546875 5.8125 39.890625 
Q 5.8125 47.609375 11.28125 51.796875 
Q 16.75 56 26.8125 56 
Q 31.78125 56 36.171875 55.265625 
Q 40.578125 54.546875 44.28125 53.078125 
z
" id="DejaVuSans-115"/>
      <path d="M 30.609375 48.390625 
Q 23.390625 48.390625 19.1875 42.75 
Q 14.984375 37.109375 14.984375 27.296875 
Q 14.984375 17.484375 19.15625 11.84375 
Q 23.34375 6.203125 30.609375 6.203125 
Q 37.796875 6.203125 41.984375 11.859375 
Q 46.1875 17.53125 46.1875 27.296875 
Q 46.1875 37.015625 41.984375 42.703125 
Q 37.796875 48.390625 30.609375 48.390625 
z
M 30.609375 56 
Q 42.328125 56 49.015625 48.375 
Q 55.71875 40.765625 55.71875 27.296875 
Q 55.71875 13.875 49.015625 6.21875 
Q 42.328125 -1.421875 30.609375 -1.421875 
Q 18.84375 -1.421875 12.171875 6.21875 
Q 5.515625 13.875 5.515625 27.296875 
Q 5.515625 40.765625 12.171875 48.375 
Q 18.84375 56 30.609375 56 
z
" id="DejaVuSans-111"/>
      <path d="M 54.890625 33.015625 
L 54.890625 0 
L 45.90625 0 
L 45.90625 32.71875 
Q 45.90625 40.484375 42.875 44.328125 
Q 39.84375 48.1875 33.796875 48.1875 
Q 26.515625 48.1875 22.3125 43.546875 
Q 18.109375 38.921875 18.109375 30.90625 
L 18.109375 0 
L 9.078125 0 
L 9.078125 54.6875 
L 18.109375 54.6875 
L 18.109375 46.1875 
Q 21.34375 51.125 25.703125 53.5625 
Q 30.078125 56 35.796875 56 
Q 45.21875 56 50.046875 50.171875 
Q 54.890625 44.34375 54.890625 33.015625 
z
" id="DejaVuSans-110"/>
     </defs>
     <g transform="translate(286.110938 476.836563)scale(0.1 -0.1)">
      <use xlink:href="#DejaVuSans-49"/>
      <use x="63.623047" xlink:href="#DejaVuSans-45"/>
      <use x="99.707031" xlink:href="#DejaVuSans-112"/>
      <use x="163.183594" xlink:href="#DejaVuSans-114"/>
      <use x="202.046875" xlink:href="#DejaVuSans-101"/>
      <use x="263.570312" xlink:href="#DejaVuSans-99"/>
      <use x="318.550781" xlink:href="#DejaVuSans-105"/>
      <use x="346.333984" xlink:href="#DejaVuSans-115"/>
      <use x="398.433594" xlink:href="#DejaVuSans-105"/>
      <use x="426.216797" xlink:href="#DejaVuSans-111"/>
      <use x="487.398438" xlink:href="#DejaVuSans-110"/>
     </g>
    </g>
   </g>
   <g id="matplotlib.axis_2">
    <g id="ytick_1">
     <g id="line2d_23">
      <path clip-path="url(#pe80e0e7139)" d="M 76.5 448.56 
L 550.8 448.56 
" style="fill:none;stroke:#b0b0b0;stroke-linecap:square;stroke-width:0.8;"/>
     </g>
     <g id="line2d_24">
      <defs>
       <path d="M 0 0 
L -3.5 0 
" id="mcc629cbd5d" style="stroke:#000000;stroke-width:0.8;"/>
      </defs>
      <g>
       <use style="stroke:#000000;stroke-width:0.8;" x="76.5" xlink:href="#mcc629cbd5d" y="448.56"/>
      </g>
     </g>
     <g id="text_13">
      <!-- 0.0 -->
      <g transform="translate(53.596875 452.359219)scale(0.1 -0.1)">
       <use xlink:href="#DejaVuSans-48"/>
       <use x="63.623047" xlink:href="#DejaVuSans-46"/>
       <use x="95.410156" xlink:href="#DejaVuSans-48"/>
      </g>
     </g>
    </g>
    <g id="ytick_2">
     <g id="line2d_25">
      <path clip-path="url(#pe80e0e7139)" d="M 76.5 409.752 
L 550.8 409.752 
" style="fill:none;stroke:#b0b0b0;stroke-linecap:square;stroke-width:0.8;"/>
     </g>
     <g id="line2d_26">
      <g>
       <use style="stroke:#000000;stroke-width:0.8;" x="76.5" xlink:href="#mcc629cbd5d" y="409.752"/>
      </g>
     </g>
     <g id="text_14">
      <!-- 0.1 -->
      <g transform="translate(53.596875 413.551219)scale(0.1 -0.1)">
       <use xlink:href="#DejaVuSans-48"/>
       <use x="63.623047" xlink:href="#DejaVuSans-46"/>
       <use x="95.410156" xlink:href="#DejaVuSans-49"/>
      </g>
     </g>
    </g>
    <g id="ytick_3">
     <g id="line2d_27">
      <path clip-path="url(#pe80e0e7139)" d="M 76.5 370.944 
L 550.8 370.944 
" style="fill:none;stroke:#b0b0b0;stroke-linecap:square;stroke-width:0.8;"/>
     </g>
     <g id="line2d_28">
      <g>
       <use style="stroke:#000000;stroke-width:0.8;" x="76.5" xlink:href="#mcc629cbd5d" y="370.944"/>
      </g>
     </g>
     <g id="text_15">
      <!-- 0.2 -->
      <g transform="translate(53.596875 374.743219)scale(0.1 -0.1)">
       <use xlink:href="#DejaVuSans-48"/>
       <use x="63.623047" xlink:href="#DejaVuSans-46"/>
       <use x="95.410156" xlink:href="#DejaVuSans-50"/>
      </g>
     </g>
    </g>
    <g id="ytick_4">
     <g id="line2d_29">
      <path clip-path="url(#pe80e0e7139)" d="M 76.5 332.136 
L 550.8 332.136 
" style="fill:none;stroke:#b0b0b0;stroke-linecap:square;stroke-width:0.8;"/>
     </g>
     <g id="line2d_30">
      <g>
       <use style="stroke:#000000;stroke-width:0.8;" x="76.5" xlink:href="#mcc629cbd5d" y="332.136"/>
      </g>
     </g>
     <g id="text_16">
      <!-- 0.3 -->
      <g transform="translate(53.596875 335.935219)scale(0.1 -0.1)">
       <use xlink:href="#DejaVuSans-48"/>
       <use x="63.623047" xlink:href="#DejaVuSans-46"/>
       <use x="95.410156" xlink:href="#DejaVuSans-51"/>
      </g>
     </g>
    </g>
    <g id="ytick_5">
     <g id="line2d_31">
      <path clip-path="url(#pe80e0e7139)" d="M 76.5 293.328 
L 550.8 293.328 
" style="fill:none;stroke:#b0b0b0;stroke-linecap:square;stroke-width:0.8;"/>
     </g>
     <g id="line2d_32">
      <g>
       <use style="stroke:#000000;stroke-width:0.8;" x="76.5" xlink:href="#mcc629cbd5d" y="293.328"/>
      </g>
     </g>
     <g id="text_17">
      <!-- 0.4 -->
      <g transform="translate(53.596875 297.127219)scale(0.1 -0.1)">
       <use xlink:href="#DejaVuSans-48"/>
       <use x="63.623047" xlink:href="#DejaVuSans-46"/>
       <use x="95.410156" xlink:href="#DejaVuSans-52"/>
      </g>
     </g>
    </g>
    <g id="ytick_6">
     <g id="line2d_33">
      <path clip-path="url(#pe80e0e7139)" d="M 76.5 254.52 
L 550.8 254.52 
" style="fill:none;stroke:#b0b0b0;stroke-linecap:square;stroke-width:0.8;"/>
     </g>
     <g id="line2d_34">
      <g>
       <use style="stroke:#000000;stroke-width:0.8;" x="76.5" xlink:href="#mcc629cbd5d" y="254.52"/>
      </g>
     </g>
     <g id="text_18">
      <!-- 0.5 -->
      <g transform="translate(53.596875 258.319219)scale(0.1 -0.1)">
       <use xlink:href="#DejaVuSans-48"/>
       <use x="63.623047" xlink:href="#DejaVuSans-46"/>
       <use x="95.410156" xlink:href="#DejaVuSans-53"/>
      </g>
     </g>
    </g>
    <g id="ytick_7">
     <g id="line2d_35">
      <path clip-path="url(#pe80e0e7139)" d="M 76.5 215.712 
L 550.8 215.712 
" style="fill:none;stroke:#b0b0b0;stroke-linecap:square;stroke-width:0.8;"/>
     </g>
     <g id="line2d_36">
      <g>
       <use style="stroke:#000000;stroke-width:0.8;" x="76.5" xlink:href="#mcc629cbd5d" y="215.712"/>
      </g>
     </g>
     <g id="text_19">
      <!-- 0.6 -->
      <g transform="translate(53.596875 219.511219)scale(0.1 -0.1)">
       <use xlink:href="#DejaVuSans-48"/>
       <use x="63.623047" xlink:href="#DejaVuSans-46"/>
       <use x="95.410156" xlink:href="#DejaVuSans-54"/>
      </g>
     </g>
    </g>
    <g id="ytick_8">
     <g id="line2d_37">
      <path clip-path="url(#pe80e0e7139)" d="M 76.5 176.904 
L 550.8 176.904 
" style="fill:none;stroke:#b0b0b0;stroke-linecap:square;stroke-width:0.8;"/>
     </g>
     <g id="line2d_38">
      <g>
       <use style="stroke:#000000;stroke-width:0.8;" x="76.5" xlink:href="#mcc629cbd5d" y="176.904"/>
      </g>
     </g>
     <g id="text_20">
      <!-- 0.7 -->
      <g transform="translate(53.596875 180.703219)scale(0.1 -0.1)">
       <use xlink:href="#DejaVuSans-48"/>
       <use x="63.623047" xlink:href="#DejaVuSans-46"/>
       <use x="95.410156" xlink:href="#DejaVuSans-55"/>
      </g>
     </g>
    </g>
    <g id="ytick_9">
     <g id="line2d_39">
      <path clip-path="url(#pe80e0e7139)" d="M 76.5 138.096 
L 550.8 138.096 
" style="fill:none;stroke:#b0b0b0;stroke-linecap:square;stroke-width:0.8;"/>
     </g>
     <g id="line2d_40">
      <g>
       <use style="stroke:#000000;stroke-width:0.8;" x="76.5" xlink:href="#mcc629cbd5d" y="138.096"/>
      </g>
     </g>
     <g id="text_21">
      <!-- 0.8 -->
      <g transform="translate(53.596875 141.895219)scale(0.1 -0.1)">
       <use xlink:href="#DejaVuSans-48"/>
       <use x="63.623047" xlink:href="#DejaVuSans-46"/>
       <use x="95.410156" xlink:href="#DejaVuSans-56"/>
      </g>
     </g>
    </g>
    <g id="ytick_10">
     <g id="line2d_41">
      <path clip-path="url(#pe80e0e7139)" d="M 76.5 99.288 
L 550.8 99.288 
" style="fill:none;stroke:#b0b0b0;stroke-linecap:square;stroke-width:0.8;"/>
     </g>
     <g id="line2d_42">
      <g>
       <use style="stroke:#000000;stroke-width:0.8;" x="76.5" xlink:href="#mcc629cbd5d" y="99.288"/>
      </g>
     </g>
     <g id="text_22">
      <!-- 0.9 -->
      <g transform="translate(53.596875 103.087219)scale(0.1 -0.1)">
       <use xlink:href="#DejaVuSans-48"/>
       <use x="63.623047" xlink:href="#DejaVuSans-46"/>
       <use x="95.410156" xlink:href="#DejaVuSans-57"/>
      </g>
     </g>
    </g>
    <g id="ytick_11">
     <g id="line2d_43">
      <path clip-path="url(#pe80e0e7139)" d="M 76.5 60.48 
L 550.8 60.48 
" style="fill:none;stroke:#b0b0b0;stroke-linecap:square;stroke-width:0.8;"/>
     </g>
     <g id="line2d_44">
      <g>
       <use style="stroke:#000000;stroke-width:0.8;" x="76.5" xlink:href="#mcc629cbd5d" y="60.48"/>
      </g>
     </g>
     <g id="text_23">
      <!-- 1.0 -->
      <g transform="translate(53.596875 64.279219)scale(0.1 -0.1)">
       <use xlink:href="#DejaVuSans-49"/>
       <use x="63.623047" xlink:href="#DejaVuSans-46"/>
       <use x="95.410156" xlink:href="#DejaVuSans-48"/>
      </g>
     </g>
    </g>
    <g id="text_24">
     <!-- #correct/1659 -->
     <defs>
      <path d="M 51.125 44 
L 36.921875 44 
L 32.8125 27.6875 
L 47.125 27.6875 
z
M 43.796875 71.78125 
L 38.71875 51.515625 
L 52.984375 51.515625 
L 58.109375 71.78125 
L 65.921875 71.78125 
L 60.890625 51.515625 
L 76.125 51.515625 
L 76.125 44 
L 58.984375 44 
L 54.984375 27.6875 
L 70.515625 27.6875 
L 70.515625 20.21875 
L 53.078125 20.21875 
L 48 0 
L 40.1875 0 
L 45.21875 20.21875 
L 30.90625 20.21875 
L 25.875 0 
L 18.015625 0 
L 23.09375 20.21875 
L 7.71875 20.21875 
L 7.71875 27.6875 
L 24.90625 27.6875 
L 29 44 
L 13.28125 44 
L 13.28125 51.515625 
L 30.90625 51.515625 
L 35.890625 71.78125 
z
" id="DejaVuSans-35"/>
      <path d="M 18.3125 70.21875 
L 18.3125 54.6875 
L 36.8125 54.6875 
L 36.8125 47.703125 
L 18.3125 47.703125 
L 18.3125 18.015625 
Q 18.3125 11.328125 20.140625 9.421875 
Q 21.96875 7.515625 27.59375 7.515625 
L 36.8125 7.515625 
L 36.8125 0 
L 27.59375 0 
Q 17.1875 0 13.234375 3.875 
Q 9.28125 7.765625 9.28125 18.015625 
L 9.28125 47.703125 
L 2.6875 47.703125 
L 2.6875 54.6875 
L 9.28125 54.6875 
L 9.28125 70.21875 
z
" id="DejaVuSans-116"/>
      <path d="M 25.390625 72.90625 
L 33.6875 72.90625 
L 8.296875 -9.28125 
L 0 -9.28125 
z
" id="DejaVuSans-47"/>
     </defs>
     <g transform="translate(47.517187 290.624688)rotate(-90)scale(0.1 -0.1)">
      <use xlink:href="#DejaVuSans-35"/>
      <use x="83.789062" xlink:href="#DejaVuSans-99"/>
      <use x="138.769531" xlink:href="#DejaVuSans-111"/>
      <use x="199.951172" xlink:href="#DejaVuSans-114"/>
      <use x="239.314453" xlink:href="#DejaVuSans-114"/>
      <use x="278.177734" xlink:href="#DejaVuSans-101"/>
      <use x="339.701172" xlink:href="#DejaVuSans-99"/>
      <use x="394.681641" xlink:href="#DejaVuSans-116"/>
      <use x="433.890625" xlink:href="#DejaVuSans-47"/>
      <use x="467.582031" xlink:href="#DejaVuSans-49"/>
      <use x="531.205078" xlink:href="#DejaVuSans-54"/>
      <use x="594.828125" xlink:href="#DejaVuSans-53"/>
      <use x="658.451172" xlink:href="#DejaVuSans-57"/>
     </g>
    </g>
   </g>
   <g id="line2d_45">
    <path clip-path="url(#pe80e0e7139)" d="M 550.8 448.56 
L 313.65 448.326076 
L 234.6 448.092152 
L 361.08 448.092152 
L 313.65 447.858228 
L 408.51 447.858228 
L 378.327273 447.624304 
L 450.947368 447.624304 
L 432.225 447.39038 
L 437.871429 447.39038 
L 451.9875 447.39038 
L 427.833333 446.922532 
L 443.7 446.922532 
L 421.445455 446.454684 
L 425.25 446.454684 
L 444.0825 446.454684 
L 421.445455 445.752911 
L 439.2 445.752911 
L 432.225 445.518987 
L 434.462264 445.518987 
L 451.35 445.518987 
L 445.4 445.285063 
L 447.046875 445.285063 
L 455.94 445.285063 
L 445.4 444.817215 
L 446.843836 444.817215 
L 453.507692 444.817215 
L 448.735443 444.583291 
L 450.01125 444.583291 
L 464.1 444.583291 
L 459.976596 444.349367 
L 461.86875 444.349367 
L 466.271287 444.349367 
L 462.45 444.115443 
L 464.149038 444.115443 
L 468.875455 444.115443 
L 465.340541 443.881519 
L 466.853097 443.881519 
L 469.024138 443.881519 
L 463.114286 443.413671 
L 463.845 443.413671 
L 467.985714 443.413671 
L 463.236923 442.945823 
L 460.284733 442.711899 
L 461.645865 442.711899 
L 475.274522 442.711899 
L 472.750633 442.477975 
L 473.72625 442.477975 
L 478.26 442.477975 
L 475.910526 442.244051 
L 476.776301 442.244051 
L 478.038068 442.244051 
L 475.769492 442.010127 
L 476.607821 442.010127 
L 480.159574 442.010127 
L 478.02381 441.776203 
L 478.785864 441.776203 
L 480.979188 441.776203 
L 478.936364 441.542278 
L 479.655 441.542278 
L 489.73133 441.542278 
L 487.965385 441.308354 
L 488.760759 441.308354 
L 490.292593 441.308354 
L 488.596721 441.07443 
L 489.352227 441.07443 
L 489.845783 441.07443 
L 487.060079 440.606582 
L 487.311024 440.606582 
L 488.53668 440.606582 
L 486.951923 440.372658 
L 487.680228 440.372658 
L 489.76875 440.372658 
L 488.254945 440.138734 
L 488.934783 440.138734 
L 489.158123 440.138734 
L 486.2 439.670886 
L 486.887234 439.670886 
L 492.66 439.670886 
L 491.321865 439.436962 
L 491.890127 439.436962 
L 492.077143 439.436962 
L 490.762025 439.203038 
L 491.326646 439.203038 
L 493.309091 439.203038 
L 492.049849 438.969114 
L 492.577545 438.969114 
L 492.924107 438.969114 
L 491.688427 438.73519 
L 492.21 438.73519 
L 493.720917 438.73519 
L 492.528857 438.501266 
L 493.024079 438.501266 
L 493.349577 438.501266 
L 492.178652 438.267342 
L 492.668524 438.267342 
L 503.044394 438.267342 
L 501.438462 437.799494 
L 501.549887 437.799494 
L 502.423503 437.799494 
L 501.481195 437.56557 
L 501.913816 437.56557 
L 502.020788 437.56557 
L 498.667888 436.629873 
L 502.324449 436.629873 
L 499.881113 435.928101 
L 500.183004 435.928101 
L 502.475094 435.928101 
L 501.672881 435.694177 
L 502.040187 435.694177 
L 502.402041 435.694177 
L 501.613333 435.460253 
L 501.975 435.460253 
L 502.76962 435.460253 
L 502.000181 435.226329 
L 502.35 435.226329 
L 503.286643 435.226329 
L 502.537895 434.992405 
L 502.874216 434.992405 
L 509.055842 434.992405 
L 508.400455 434.758481 
L 508.719248 434.758481 
L 509.768182 434.758481 
L 508.119884 434.056709 
L 508.181739 434.056709 
L 508.910256 434.056709 
L 508.295164 433.822785 
L 508.595339 433.822785 
L 510.365765 433.822785 
L 509.418121 433.354937 
L 509.473592 433.354937 
L 510.288173 433.354937 
L 508.859298 432.653165 
L 509.29112 432.653165 
L 508.179974 432.185316 
L 508.451786 432.185316 
L 509.090201 432.185316 
L 508.113 431.717468 
L 508.272478 431.717468 
L 510.529245 431.717468 
L 510.018021 431.483544 
L 510.256792 431.483544 
L 511.588335 431.483544 
L 510.605085 431.015696 
L 510.830899 431.015696 
L 515.544797 431.015696 
L 515.110099 430.781772 
L 515.320866 430.781772 
L 516.534981 430.781772 
L 516.117094 430.547848 
L 516.313598 430.547848 
L 517.957284 430.547848 
L 517.560647 430.313924 
L 517.768393 430.313924 
L 517.973558 430.313924 
L 517.582181 430.08 
L 517.787048 430.08 
L 518.93801 430.08 
L 518.562107 429.846076 
L 518.752703 429.846076 
L 519.36338 429.846076 
L 518.996772 429.612152 
L 519.18 429.612152 
L 519.8175 429.612152 
L 519.460274 429.378228 
L 519.661009 429.378228 
L 522.514473 429.378228 
L 522.190334 429.144304 
L 522.376245 429.144304 
L 522.58 429.144304 
L 522.260458 428.91038 
L 522.443274 428.91038 
L 522.603822 428.91038 
L 522.288331 428.676456 
L 522.468658 428.676456 
L 523.796986 428.676456 
L 523.49759 428.442532 
L 523.661078 428.442532 
L 524.105105 428.442532 
L 523.812361 428.208608 
L 523.987719 428.208608 
L 524.331687 428.208608 
L 524.044615 427.974684 
L 524.215032 427.974684 
L 524.416688 427.974684 
L 524.133733 427.740759 
L 524.30113 427.740759 
L 525.583333 427.740759 
L 525.215353 427.272911 
L 525.89446 427.272911 
L 525.635294 427.038987 
L 525.793926 427.038987 
L 525.851115 427.038987 
L 525.352397 426.571139 
L 525.496822 426.571139 
L 526.276238 426.571139 
L 525.877833 426.103291 
L 525.932277 426.103291 
L 526.683051 426.103291 
L 526.444733 425.869367 
L 526.598474 425.869367 
L 527.704066 425.869367 
L 527.477672 425.635443 
L 527.628814 425.635443 
L 528.026164 425.635443 
L 527.805044 425.401519 
L 527.950511 425.401519 
L 528.257657 425.401519 
L 528.040883 425.167595 
L 528.181974 425.167595 
L 528.667476 425.167595 
L 528.456576 424.933671 
L 528.601529 424.933671 
L 529.565824 424.933671 
L 529.288375 424.465823 
L 529.307303 424.465823 
L 530.090844 424.465823 
L 529.898644 424.231899 
L 530.039394 424.231899 
L 530.65 424.231899 
L 530.464557 423.997975 
L 530.604745 423.997975 
L 530.686309 423.997975 
L 530.40205 423.530127 
L 530.459279 423.530127 
L 530.708907 423.530127 
L 530.470193 423.062278 
L 530.486169 423.062278 
L 530.823686 423.062278 
L 530.648204 422.828354 
L 530.779662 422.828354 
L 531.476667 422.828354 
L 531.081126 422.126582 
L 531.102867 422.126582 
L 531.310582 422.126582 
L 531.145256 421.892658 
L 531.280072 421.892658 
L 532.180785 421.892658 
L 531.964396 421.42481 
L 531.996582 421.42481 
L 532.015842 421.42481 
L 531.526041 420.489114 
L 532.083788 420.489114 
L 531.934024 420.25519 
L 532.063369 420.25519 
L 532.263081 420.25519 
L 532.115919 420.021266 
L 532.241758 420.021266 
L 532.592133 420.021266 
L 532.448663 419.787342 
L 532.574789 419.787342 
L 532.597535 419.787342 
L 532.455271 419.553418 
L 532.580297 419.553418 
L 532.999395 419.553418 
L 532.83193 419.08557 
L 532.848123 419.08557 
L 533.040178 419.08557 
L 532.904545 418.851646 
L 533.031239 418.851646 
L 534.224298 418.851646 
L 534.098377 418.617722 
L 534.221518 418.617722 
L 534.248637 418.617722 
L 534.123876 418.383797 
L 534.245698 418.383797 
L 534.343653 418.383797 
L 534.220543 418.149873 
L 534.344436 418.149873 
L 534.586747 418.149873 
L 534.466325 417.915949 
L 534.589903 417.915949 
L 535.10581 417.915949 
L 534.902344 417.448101 
L 534.997921 417.448101 
L 535.319779 417.448101 
L 535.094702 416.980253 
L 535.217011 416.980253 
L 535.251068 416.980253 
L 535.028374 416.512405 
L 535.149928 416.512405 
L 535.474741 416.512405 
L 535.265669 416.044557 
L 535.378316 416.044557 
L 535.661607 416.044557 
L 535.556198 415.810633 
L 535.677704 415.810633 
L 536.254107 415.810633 
L 536.153417 415.576709 
L 536.274305 415.576709 
L 536.479593 415.576709 
L 536.381118 415.342785 
L 536.50051 415.342785 
L 536.557962 415.342785 
L 536.460698 415.108861 
L 536.580943 415.108861 
L 536.938381 415.108861 
L 536.844299 414.874937 
L 536.963047 414.874937 
L 537.002182 414.874937 
L 536.90917 414.641013 
L 537.026016 414.641013 
L 537.135486 414.641013 
L 537.043981 414.407089 
L 537.163174 414.407089 
L 537.330286 414.407089 
L 537.240665 414.173165 
L 537.3583 414.173165 
L 537.514539 414.173165 
L 537.42671 413.939241 
L 537.545393 413.939241 
L 537.552897 413.939241 
L 537.394121 413.471392 
L 537.496896 413.471392 
L 537.516766 413.471392 
L 537.430707 413.237468 
L 537.546984 413.237468 
L 537.556786 413.237468 
L 537.39625 412.76962 
L 537.504306 412.76962 
L 537.548009 412.76962 
L 537.463831 412.535696 
L 537.579692 412.535696 
L 537.639243 412.535696 
L 537.55617 412.301772 
L 537.672054 412.301772 
L 537.850114 412.301772 
L 537.768862 412.067848 
L 537.884866 412.067848 
L 538.049561 412.067848 
L 537.981081 411.6 
L 538.00734 411.6 
L 538.113459 411.6 
L 538.035325 411.366076 
L 538.150939 411.366076 
L 538.402548 411.366076 
L 538.326627 411.132152 
L 538.442404 411.132152 
L 538.881043 411.132152 
L 538.808433 410.898228 
L 538.924059 410.898228 
L 538.962719 410.898228 
L 538.86378 410.43038 
L 538.935221 410.43038 
L 539.063109 410.43038 
L 538.935309 409.962532 
L 539.036961 409.962532 
L 539.183628 409.962532 
L 539.11496 409.728608 
L 539.230007 409.728608 
L 539.2402 409.728608 
L 539.13347 409.260759 
L 539.219939 409.260759 
L 539.310108 409.260759 
L 539.243382 409.026835 
L 539.35885 409.026835 
L 539.518269 409.026835 
L 539.45311 408.792911 
L 539.566927 408.792911 
L 539.911276 408.792911 
L 539.851188 408.325063 
L 539.900922 408.325063 
L 540.07431 408.325063 
L 539.970949 407.857215 
L 540.066719 407.857215 
L 540.407329 407.857215 
L 540.348917 407.623291 
L 540.462162 407.623291 
L 540.485286 407.623291 
L 540.416849 406.921519 
L 540.42578 406.921519 
L 540.819459 406.921519 
L 540.780753 406.453671 
L 540.822905 406.453671 
L 541.315054 406.453671 
L 541.298338 405.985823 
L 541.325453 405.985823 
L 541.424242 405.985823 
L 541.373751 405.751899 
L 541.487028 405.751899 
L 541.530788 405.751899 
L 541.481132 405.517975 
L 541.594177 405.517975 
L 542.44149 405.517975 
L 542.396868 405.284051 
L 542.509609 405.284051 
L 542.699418 405.284051 
L 542.699418 405.284051 
" style="fill:none;stroke:#1f77b4;stroke-linecap:square;stroke-width:2;"/>
   </g>
   <g id="line2d_46">
    <path clip-path="url(#pe80e0e7139)" d="M 76.5 448.326076 
L 76.5 447.858228 
L 266.22 447.858228 
L 234.6 447.624304 
L 415.285714 447.624304 
L 392.7 447.39038 
L 402.58125 447.39038 
L 411.3 447.39038 
L 392.7 447.156456 
L 401.021053 447.156456 
L 427.069565 447.156456 
L 412.4625 446.922532 
L 417.996 446.922532 
L 443.7 446.922532 
L 432.225 446.688608 
L 435.818182 446.688608 
L 442.388571 446.688608 
L 425.984211 446.220759 
L 443.004545 446.220759 
L 434.86 445.986835 
L 437.380435 445.986835 
L 472.929851 445.986835 
L 467.1 445.752911 
L 469.491429 445.752911 
L 482.226506 445.752911 
L 477.396429 445.518987 
L 479.103488 445.518987 
L 480.732955 445.518987 
L 476.191011 445.285063 
L 477.830769 445.285063 
L 480.903158 445.285063 
L 474.145455 444.817215 
L 483.642478 444.817215 
L 473.776923 444.115443 
L 474.429661 444.115443 
L 475.071429 444.115443 
L 471.75 443.881519 
L 473.045902 443.881519 
L 476.690625 443.881519 
L 473.588372 443.647595 
L 474.767176 443.647595 
L 483.952349 443.647595 
L 481.236 443.413671 
L 482.151316 443.413671 
L 485.98882 443.413671 
L 483.461111 443.179747 
L 484.282317 443.179747 
L 485.083735 443.179747 
L 478.684211 442.477975 
L 481.907263 442.477975 
L 479.655 442.244051 
L 480.436813 442.244051 
L 481.20163 442.244051 
L 479.014054 442.010127 
L 479.781818 442.010127 
L 483.386802 442.010127 
L 478.011386 441.308354 
L 494.893916 441.308354 
L 493.309091 441.07443 
L 493.955056 441.07443 
L 498.282353 441.07443 
L 496.827931 440.840506 
L 497.380546 440.840506 
L 499.65 440.840506 
L 498.271661 440.606582 
L 498.78 440.606582 
L 498.947267 440.606582 
L 497.593269 440.372658 
L 498.1 440.372658 
L 503.639489 440.372658 
L 501.642857 439.90481 
L 501.780168 439.90481 
L 502.982289 439.90481 
L 501.82337 439.670886 
L 502.35 439.670886 
L 502.992573 439.670886 
L 500.873684 439.203038 
L 501.264752 439.203038 
L 506.472897 439.203038 
L 505.470629 438.969114 
L 505.889376 438.969114 
L 507.100449 438.969114 
L 506.134978 438.73519 
L 506.532 438.73519 
L 509.470954 438.73519 
L 508.574534 438.501266 
L 509.007172 438.501266 
L 510.253479 438.501266 
L 509.392857 438.267342 
L 509.799607 438.267342 
L 510.973282 438.267342 
L 510.145714 438.033418 
L 510.529245 438.033418 
L 511.922951 438.033418 
L 510.415761 437.56557 
L 510.706295 437.56557 
L 511.204796 437.56557 
L 510.434043 437.331646 
L 510.788752 437.331646 
L 514.020679 437.331646 
L 513.315 437.097722 
L 513.61488 437.097722 
L 514.599533 437.097722 
L 513.918196 436.863797 
L 514.259168 436.863797 
L 515.084639 436.863797 
L 514.425113 436.629873 
L 514.750373 436.629873 
L 516.682511 436.629873 
L 516.062535 436.395949 
L 516.353631 436.395949 
L 517.380488 436.395949 
L 516.783897 436.162025 
L 517.057852 436.162025 
L 519.727194 436.162025 
L 518.870379 435.694177 
L 518.909413 435.694177 
L 519.370482 435.694177 
L 518.837545 435.460253 
L 519.104535 435.460253 
L 519.217598 435.460253 
L 518.691805 435.226329 
L 518.956537 435.226329 
L 521.541234 435.226329 
L 521.060108 434.992405 
L 521.283476 434.992405 
L 524.013827 434.992405 
L 523.578502 434.758481 
L 523.788707 434.758481 
L 525.383379 434.758481 
L 524.976044 434.524557 
L 525.185239 434.524557 
L 525.902362 434.524557 
L 525.509528 434.290633 
L 525.706938 434.290633 
L 526.197704 434.290633 
L 525.815633 434.056709 
L 526.026116 434.056709 
L 526.794612 434.056709 
L 525.755727 433.354937 
L 525.897334 433.354937 
L 526.65787 433.354937 
L 526.305634 433.121013 
L 526.495807 433.121013 
L 527.012918 433.121013 
L 526.440181 432.653165 
L 526.513554 432.653165 
L 527.326638 432.653165 
L 526.998764 432.419241 
L 527.187662 432.419241 
L 527.801616 432.419241 
L 527.250839 431.951392 
L 527.349234 431.951392 
L 528.107749 431.951392 
L 527.803636 431.717468 
L 527.972727 431.717468 
L 528.048767 431.717468 
L 527.586905 431.24962 
L 527.617569 431.24962 
L 528.487095 431.24962 
L 528.199936 431.015696 
L 528.370933 431.015696 
L 528.553283 431.015696 
L 528.087873 430.547848 
L 528.158277 430.547848 
L 528.865405 430.547848 
L 528.593878 430.313924 
L 528.752682 430.313924 
L 528.778929 430.313924 
L 528.094149 429.612152 
L 528.134336 429.612152 
L 529.155887 429.612152 
L 528.901014 429.378228 
L 529.060145 429.378228 
L 529.833639 429.378228 
L 529.589386 429.144304 
L 529.748182 429.144304 
L 529.871292 429.144304 
L 529.630393 428.91038 
L 529.786709 428.91038 
L 530.016901 428.91038 
L 529.780448 428.676456 
L 529.932764 428.676456 
L 530.387089 428.676456 
L 530.157389 428.442532 
L 530.312908 428.442532 
L 530.374462 428.442532 
L 530.147297 428.208608 
L 530.301192 428.208608 
L 530.621956 428.208608 
L 530.328274 427.740759 
L 530.515185 427.740759 
L 530.297118 427.506835 
L 530.443777 427.506835 
L 530.530769 427.506835 
L 530.315282 427.272911 
L 530.460085 427.272911 
L 530.564979 427.272911 
L 530.264665 426.805063 
L 530.283767 426.805063 
L 530.94856 426.805063 
L 530.74413 426.571139 
L 530.88745 426.571139 
L 531.21116 426.571139 
L 531.011462 426.337215 
L 531.149542 426.337215 
L 531.294156 426.337215 
L 531.09736 426.103291 
L 531.241237 426.103291 
L 531.283155 426.103291 
L 530.90214 425.635443 
L 531.0375 425.635443 
L 531.56897 425.635443 
L 531.380769 425.401519 
L 531.516345 425.401519 
L 531.571622 425.401519 
L 531.271137 424.933671 
L 531.33462 424.933671 
L 531.653597 424.933671 
L 531.413929 424.465823 
L 531.429302 424.465823 
L 532.010423 424.465823 
L 531.835294 424.231899 
L 531.972824 424.231899 
L 532.483179 424.231899 
L 532.31392 423.997975 
L 532.450147 423.997975 
L 532.650765 423.997975 
L 532.48459 423.764051 
L 532.617071 423.764051 
L 532.760603 423.764051 
L 532.596951 423.530127 
L 532.726603 423.530127 
L 533.036577 423.530127 
L 532.876837 423.296203 
L 533.007572 423.296203 
L 533.191062 423.296203 
L 532.999591 422.828354 
L 533.005662 422.828354 
L 533.643473 422.828354 
L 533.493195 422.59443 
L 533.623067 422.59443 
L 533.628669 422.59443 
L 533.479622 422.360506 
L 533.608544 422.360506 
L 534.137014 422.360506 
L 533.781435 421.658734 
L 533.83437 421.658734 
L 534.011911 421.658734 
L 533.761897 421.190886 
L 533.855542 421.190886 
L 533.922536 421.190886 
L 533.670501 420.723038 
L 533.768709 420.723038 
L 534.315859 420.723038 
L 534.18219 420.489114 
L 534.307389 420.489114 
L 534.312167 420.489114 
L 534.179583 420.25519 
L 534.303794 420.25519 
L 534.416814 420.25519 
L 534.28613 420.021266 
L 534.412404 420.021266 
L 534.623148 420.021266 
L 534.495109 419.787342 
L 534.621714 419.787342 
L 535.109064 419.787342 
L 534.985749 419.553418 
L 535.108111 419.553418 
L 535.57131 419.553418 
L 535.327074 418.851646 
L 535.338989 418.851646 
L 535.759775 418.851646 
L 535.645132 418.617722 
L 535.76523 418.617722 
L 536.454442 418.617722 
L 536.345783 418.383797 
L 536.467674 418.383797 
L 536.564379 418.383797 
L 536.457362 418.149873 
L 536.576471 418.149873 
L 536.738655 418.149873 
L 536.633721 417.915949 
L 536.755402 417.915949 
L 536.65139 417.682025 
L 536.771857 417.682025 
L 536.967123 417.682025 
L 536.865408 417.448101 
L 536.984428 417.448101 
L 537.280519 417.448101 
L 537.181787 417.214177 
L 537.300382 417.214177 
L 537.311842 417.214177 
L 537.097111 416.512405 
L 537.137447 416.512405 
L 538.219342 416.512405 
L 538.129965 416.278481 
L 538.246605 416.278481 
L 538.253824 416.278481 
L 537.954187 415.342785 
L 538.017574 415.342785 
L 538.982032 415.342785 
L 538.900895 415.108861 
L 539.016661 415.108861 
L 539.56327 415.108861 
L 539.503433 414.641013 
L 539.525656 414.641013 
L 540.040691 414.641013 
L 539.916126 414.173165 
L 540.010446 414.173165 
L 540.119531 414.173165 
L 540.048522 413.939241 
L 540.164182 413.939241 
L 540.378919 413.939241 
L 540.310064 413.705316 
L 540.425558 413.705316 
L 540.89937 413.705316 
L 540.834319 413.471392 
L 540.948851 413.471392 
L 541.242638 413.471392 
L 541.204153 413.003544 
L 541.23217 413.003544 
L 541.415256 413.003544 
L 541.327532 412.535696 
L 541.407921 412.535696 
L 541.54478 412.535696 
L 541.440385 411.833924 
L 541.482545 411.833924 
L 541.543928 411.833924 
L 541.431839 411.366076 
L 541.542242 411.366076 
L 541.558125 411.366076 
L 541.457903 410.898228 
L 541.557407 410.898228 
L 541.770521 410.898228 
L 541.655255 410.196456 
L 541.719309 410.196456 
L 541.872512 410.196456 
L 541.819107 409.962532 
L 541.933073 409.962532 
L 541.98997 409.962532 
L 541.937573 409.728608 
L 542.050828 409.728608 
L 542.92662 409.728608 
L 542.879982 409.494684 
L 542.99317 409.494684 
L 543.487583 409.494684 
L 543.487583 409.494684 
" style="fill:none;stroke:#ff7f0e;stroke-linecap:square;stroke-width:2;"/>
   </g>
   <g id="line2d_47">
    <path clip-path="url(#pe80e0e7139)" d="M 76.5 448.326076 
L 313.65 448.326076 
L 234.6 448.092152 
L 171.36 447.624304 
L 155.55 447.39038 
L 212.014286 447.39038 
L 195.075 447.156456 
L 234.6 447.156456 
L 205.854545 446.688608 
L 178.135714 445.986835 
L 165.43125 445.518987 
L 226.278947 445.518987 
L 218.79 445.285063 
L 234.6 445.285063 
L 214.8375 444.583291 
L 209.304 444.349367 
L 234.6 444.349367 
L 218.79 443.647595 
L 239.540625 443.647595 
L 225.565714 442.945823 
L 234.6 442.945823 
L 230.327027 442.711899 
L 238.760526 442.711899 
L 230.6475 442.244051 
L 252.983721 442.244051 
L 241.473913 441.542278 
L 248.055319 441.542278 
L 234.6 440.606582 
L 246.532075 440.606582 
L 243.383333 440.372658 
L 254.3625 440.372658 
L 248.22931 439.90481 
L 272.242857 439.90481 
L 263.345455 439.203038 
L 267.635821 439.203038 
L 264.825 438.969114 
L 268.969565 438.969114 
L 260.95 438.267342 
L 264.920548 438.267342 
L 262.374324 438.033418 
L 266.22 438.033418 
L 263.723684 437.799494 
L 274.625316 437.799494 
L 269.733333 437.331646 
L 273.160976 437.331646 
L 266.22 436.629873 
L 269.52907 436.629873 
L 267.310345 436.395949 
L 270.531818 436.395949 
L 264.135165 435.694177 
L 267.251087 435.694177 
L 265.2 435.460253 
L 268.238298 435.460253 
L 258.554545 434.290633 
L 261.477 434.290633 
L 257.85 433.822785 
L 260.694175 433.822785 
L 250.555046 432.419241 
L 253.284545 432.419241 
L 251.691892 432.185316 
L 256.985841 432.185316 
L 253.846957 431.717468 
L 258.923077 431.717468 
L 254.3625 431.015696 
L 261.592683 431.015696 
L 260.1 430.781772 
L 264.714286 430.781772 
L 256.159091 429.378228 
L 258.374436 429.378228 
L 257.017164 429.144304 
L 259.193333 429.144304 
L 257.85 428.91038 
L 266.22 428.91038 
L 264.874468 428.676456 
L 268.873427 428.676456 
L 264.920548 427.974684 
L 266.865306 427.974684 
L 264.310067 427.506835 
L 266.22 427.506835 
L 262.5 426.805063 
L 264.372078 426.805063 
L 260.782166 426.103291 
L 266.22 426.103291 
L 265.041615 425.869367 
L 266.805556 425.869367 
L 265.638037 425.635443 
L 272.468263 425.635443 
L 271.301786 425.401519 
L 274.59 425.401519 
L 270.036207 424.465823 
L 271.640571 424.465823 
L 270.531818 424.231899 
L 273.680899 424.231899 
L 272.57933 423.997975 
L 283.05 423.997975 
L 279.771429 423.296203 
L 282.609424 423.296203 
L 281.535938 423.062278 
L 284.311856 423.062278 
L 283.246154 422.828354 
L 287.3 422.828354 
L 286.240704 422.59443 
L 287.5635 422.59443 
L 283.425 421.658734 
L 284.729268 421.658734 
L 281.725962 420.956962 
L 288.042254 420.956962 
L 287.053738 420.723038 
L 288.280465 420.723038 
L 286.328571 420.25519 
L 287.541743 420.25519 
L 286.578082 420.021266 
L 287.779091 420.021266 
L 286.823077 419.787342 
L 289.190583 419.787342 
L 288.241071 419.553418 
L 289.408 419.553418 
L 286.606579 418.851646 
L 287.760262 418.851646 
L 286.841739 418.617722 
L 287.984416 418.617722 
L 286.169099 418.149873 
L 289.533051 418.149873 
L 288.634177 417.915949 
L 290.828033 417.915949 
L 289.049378 417.448101 
L 297.459036 417.448101 
L 295.698406 416.980253 
L 296.710714 416.980253 
L 295.840316 416.746329 
L 299.80856 416.746329 
L 298.943023 416.512405 
L 301.837931 416.512405 
L 300.977863 416.278481 
L 301.927757 416.278481 
L 300.226415 415.810633 
L 302.103371 415.810633 
L 301.261567 415.576709 
L 304.023985 415.576709 
L 301.532847 414.874937 
L 302.439273 414.874937 
L 301.620652 414.641013 
L 302.520217 414.641013 
L 301.707194 414.407089 
L 306.969718 414.407089 
L 306.161053 414.173165 
L 307.865854 414.173165 
L 307.0625 413.939241 
L 309.575258 413.939241 
L 308.777055 413.705316 
L 310.423469 413.705316 
L 309.630508 413.471392 
L 311.254545 413.471392 
L 308.907 412.76962 
L 309.710631 412.76962 
L 308.938411 412.535696 
L 312.1 412.535696 
L 310.57013 412.067848 
L 312.12 412.067848 
L 311.362379 411.833924 
L 318.096563 411.833924 
L 317.343925 411.6 
L 318.068944 411.6 
L 316.577778 411.132152 
L 318.014724 411.132152 
L 317.276147 410.898228 
L 321.483784 410.898228 
L 320.021194 410.43038 
L 326.059012 410.43038 
L 325.335652 410.196456 
L 327.27931 410.196456 
L 326.560745 409.962532 
L 328.471875 409.962532 
L 327.758074 409.728608 
L 329.014648 409.728608 
L 326.898603 409.026835 
L 327.522284 409.026835 
L 326.825 408.792911 
L 329.286264 408.792911 
L 328.593699 408.558987 
L 331.596486 408.558987 
L 330.908895 408.325063 
L 332.087936 408.325063 
L 331.404545 408.091139 
L 331.9896 408.091139 
L 330.634218 407.623291 
L 331.796042 407.623291 
L 331.124211 407.389367 
L 331.700787 407.389367 
L 331.032723 407.155443 
L 332.745195 407.155443 
L 332.081347 406.921519 
L 332.646512 406.921519 
L 331.98634 406.687595 
L 332.548843 406.687595 
L 331.892308 406.453671 
L 332.452174 406.453671 
L 331.149618 405.985823 
L 333.909045 405.985823 
L 332.622 405.517975 
L 334.782178 405.517975 
L 334.144444 405.284051 
L 334.678079 405.284051 
L 334.043735 405.050127 
L 335.629756 405.050127 
L 334.99927 404.816203 
L 335.523058 404.816203 
L 334.271739 404.348354 
L 334.793494 404.348354 
L 334.172596 404.11443 
L 334.692086 404.11443 
L 334.074402 403.880506 
L 334.591647 403.880506 
L 333.977143 403.646582 
L 335.514894 403.646582 
L 334.904009 403.412658 
L 336.921729 403.412658 
L 336.314685 403.178734 
L 337.309977 403.178734 
L 336.70625 402.94481 
L 339.639041 402.94481 
L 339.039636 402.710886 
L 341.894831 402.710886 
L 340.707383 402.243038 
L 341.643207 402.243038 
L 340.467406 401.77519 
L 341.396026 401.77519 
L 340.231648 401.307342 
L 343.422078 401.307342 
L 341.7 400.60557 
L 343.924468 400.60557 
L 343.356688 400.371646 
L 344.66962 400.371646 
L 344.105053 400.137722 
L 345.402301 400.137722 
L 344.840919 399.903797 
L 351.094737 399.903797 
L 349.9875 399.435949 
L 350.793976 399.435949 
L 348.608367 398.500253 
L 350.602367 398.500253 
L 350.062795 398.266329 
L 350.457171 398.266329 
L 349.92 398.032405 
L 354.913193 398.032405 
L 354.38187 397.798481 
L 355.5 397.798481 
L 354.971591 397.564557 
L 356.077966 397.564557 
L 355.552444 397.330633 
L 358.445 397.330633 
L 357.923845 397.096709 
L 358.634254 397.096709 
L 358.115625 396.862785 
L 359.870492 396.862785 
L 359.355273 396.628861 
L 360.393852 396.628861 
L 359.881408 396.394937 
L 363.598407 396.394937 
L 363.091166 396.161013 
L 364.080844 396.161013 
L 363.576316 395.927089 
L 363.904203 395.927089 
L 363.401748 395.693165 
L 364.379478 395.693165 
L 363.879688 395.459241 
L 366.124014 395.459241 
L 364.641297 394.757468 
L 366.528041 394.757468 
L 366.038954 394.523544 
L 366.35 394.523544 
L 365.862857 394.28962 
L 368.316418 394.28962 
L 367.833278 394.055696 
L 368.437129 394.055696 
L 367.956178 393.821772 
L 371.500808 393.821772 
L 370.550725 393.353924 
L 370.840514 393.353924 
L 370.368058 393.12 
L 371.804618 393.12 
L 371.335135 392.886076 
L 371.62 392.886076 
L 371.152298 392.652152 
L 373.123354 392.652152 
L 372.659155 392.418228 
L 374.861824 392.418228 
L 374.401389 392.184304 
L 377.345827 392.184304 
L 376.435552 391.716456 
L 376.961538 391.716456 
L 376.509036 391.482532 
L 376.771128 391.482532 
L 376.32027 391.248608 
L 377.878125 391.248608 
L 376.983828 390.780759 
L 377.241333 390.780759 
L 376.79645 390.546835 
L 377.309735 390.546835 
L 376.866716 390.312911 
L 383.991102 390.312911 
L 383.557405 390.078987 
L 384.960839 390.078987 
L 384.530028 389.845063 
L 384.761925 389.845063 
L 385.683079 389.845063 
L 385.254848 389.611139 
L 385.483817 389.611139 
L 387.293023 389.611139 
L 386.868443 389.377215 
L 387.092087 389.377215 
L 389.5125 389.377215 
L 389.092349 389.143291 
L 389.309115 389.143291 
L 389.525301 389.143291 
L 389.106818 388.909367 
L 389.322697 388.909367 
L 389.966888 388.909367 
L 389.550598 388.675443 
L 389.764456 388.675443 
L 390.190476 388.675443 
L 389.77609 388.441519 
L 389.988522 388.441519 
L 391.668016 388.441519 
L 391.257106 388.207595 
L 391.464844 388.207595 
L 392.290415 388.207595 
L 391.881889 387.973671 
L 392.087209 387.973671 
L 393.308077 387.973671 
L 392.902433 387.739747 
L 393.104348 387.739747 
L 393.305747 387.739747 
L 392.498599 387.271899 
L 392.7 387.271899 
L 394.095586 387.271899 
L 393.695592 387.037975 
L 393.893208 387.037975 
L 397.178202 387.037975 
L 396.783764 386.804051 
L 396.972973 386.804051 
L 398.098537 386.804051 
L 397.706821 386.570127 
L 397.893066 386.570127 
L 398.449091 386.570127 
L 398.059322 386.336203 
L 398.244015 386.336203 
L 399.886364 386.336203 
L 399.5 386.102278 
L 399.680549 386.102278 
L 402.163732 386.102278 
L 401.575789 385.63443 
L 402.270664 385.63443 
L 401.89186 385.400506 
L 402.064808 385.400506 
L 405.606122 385.400506 
L 405.233409 385.166582 
L 405.398077 385.166582 
L 408.141509 385.166582 
L 407.773836 384.932658 
L 407.932226 384.932658 
L 410.72443 384.932658 
L 410.152597 384.46481 
L 412.399361 384.46481 
L 412.042021 384.230886 
L 412.189479 384.230886 
L 412.483457 384.230886 
L 411.772381 383.763038 
L 411.919345 383.763038 
L 414.935367 383.763038 
L 414.585744 383.529114 
L 414.726316 383.529114 
L 415.146296 383.529114 
L 414.798253 383.29519 
L 414.937885 383.29519 
L 415.493558 383.29519 
L 415.147293 383.061266 
L 415.285714 383.061266 
L 415.699288 383.061266 
L 415.354573 382.827342 
L 415.492081 382.827342 
L 415.62931 382.827342 
L 415.285714 382.593418 
L 415.422874 382.593418 
L 415.559757 382.593418 
L 414.331388 381.657722 
L 414.468543 381.657722 
L 414.129217 381.423797 
L 414.266299 381.423797 
L 414.6759 381.423797 
L 414.338062 381.189873 
L 414.474251 381.189873 
L 414.610169 381.189873 
L 414.273406 380.955949 
L 414.409254 380.955949 
L 414.815179 380.955949 
L 414.479881 380.722025 
L 414.614851 380.722025 
L 415.152071 380.722025 
L 414.818424 380.488101 
L 414.952264 380.488101 
L 415.749804 380.488101 
L 415.418182 380.254177 
L 415.550391 380.254177 
L 416.20758 380.254177 
L 415.877767 380.020253 
L 416.008632 380.020253 
L 416.65917 380.020253 
L 416.331148 379.786329 
L 416.460694 379.786329 
L 417.488145 379.786329 
L 417.162464 379.552405 
L 417.289981 379.552405 
L 417.671075 379.552405 
L 417.346768 379.318481 
L 417.473504 379.318481 
L 418.975775 379.318481 
L 418.457865 378.850633 
L 420.771113 378.850633 
L 420.454688 378.616709 
L 420.57438 378.616709 
L 423.153105 378.616709 
L 422.841367 378.382785 
L 422.956334 378.382785 
L 423.18565 378.382785 
L 422.370241 377.681013 
L 422.827694 377.681013 
L 422.519573 377.447089 
L 422.6336 377.447089 
L 423.200708 377.447089 
L 422.894164 377.213165 
L 423.007155 377.213165 
L 424.78824 377.213165 
L 424.485117 376.979241 
L 424.594957 376.979241 
L 425.25 376.979241 
L 424.756514 376.511392 
L 425.081928 376.511392 
L 424.48299 376.043544 
L 424.591416 376.043544 
L 424.807712 376.043544 
L 424.022972 375.341772 
L 424.669244 375.341772 
L 424.373684 375.107848 
L 424.480916 375.107848 
L 426.067839 375.107848 
L 425.775314 374.873924 
L 425.879849 374.873924 
L 426.399917 374.873924 
L 426.108819 374.64 
L 426.212469 374.64 
L 426.419253 374.64 
L 425.839437 374.172152 
L 425.942881 374.172152 
L 426.149256 374.172152 
L 425.860528 373.938228 
L 425.963614 373.938228 
L 426.883784 373.938228 
L 426.597054 373.704304 
L 426.69861 373.704304 
L 427.404878 373.704304 
L 426.935766 373.236456 
L 427.535593 373.236456 
L 427.2525 373.002532 
L 427.352055 373.002532 
L 427.649759 373.002532 
L 427.367711 372.768608 
L 427.466774 372.768608 
L 428.837143 372.768608 
L 428.557732 372.534684 
L 428.654596 372.534684 
L 428.751306 372.534684 
L 428.472627 372.300759 
L 428.569328 372.300759 
L 430.658741 372.300759 
L 430.383773 372.066835 
L 430.477192 372.066835 
L 430.756579 372.066835 
L 430.482599 371.832911 
L 430.57558 371.832911 
L 431.038337 371.832911 
L 430.765615 371.598987 
L 430.857879 371.598987 
L 432.494693 371.598987 
L 432.225 371.365063 
L 432.314762 371.365063 
L 433.732685 371.365063 
L 433.465695 371.131139 
L 433.553323 371.131139 
L 437.447437 371.131139 
L 437.187013 370.897215 
L 437.35072 370.897215 
L 438.00086 370.897215 
L 437.564689 370.429367 
L 437.645571 370.429367 
L 439.160677 370.429367 
L 438.729114 369.961519 
L 438.807871 369.961519 
L 439.2 369.961519 
L 438.946186 369.727595 
L 439.102516 369.727595 
L 440.108102 369.727595 
L 439.856471 369.493671 
L 440.009813 369.493671 
L 440.770213 369.493671 
L 440.346575 369.025823 
L 440.422177 369.025823 
L 440.723549 369.025823 
L 440.475102 368.791899 
L 440.625409 368.791899 
L 441.222561 368.791899 
L 440.803448 368.324051 
L 440.87777 368.324051 
L 441.321602 368.324051 
L 441.076261 368.090127 
L 441.22364 368.090127 
L 445.19534 368.090127 
L 444.956856 367.856203 
L 445.093605 367.856203 
L 445.433934 367.856203 
L 445.196525 367.622278 
L 445.332262 367.622278 
L 445.467651 367.622278 
L 445.230981 367.388354 
L 445.36624 367.388354 
L 446.568144 367.388354 
L 446.333924 367.15443 
L 446.465992 367.15443 
L 446.794707 367.15443 
L 446.561524 366.920506 
L 446.692642 366.920506 
L 447.21383 366.920506 
L 446.981989 366.686582 
L 447.11168 366.686582 
L 449.391936 366.686582 
L 449.164286 366.452658 
L 449.288232 366.452658 
L 450.025605 366.452658 
L 449.799637 366.218734 
L 449.921692 366.218734 
L 450.104222 366.218734 
L 449.654096 365.750886 
L 449.775812 365.750886 
L 449.897236 365.750886 
L 449.672973 365.516962 
L 449.794301 365.516962 
L 449.915339 365.516962 
L 449.691737 365.283038 
L 449.812679 365.283038 
L 449.993552 365.283038 
L 449.668731 364.81519 
L 449.728929 364.81519 
L 449.506901 364.581266 
L 449.627273 364.581266 
L 449.747359 364.581266 
L 449.525979 364.347342 
L 449.645972 364.347342 
L 452.329412 364.347342 
L 452.112795 364.113418 
L 452.226425 364.113418 
L 453.348492 364.113418 
L 453.13413 363.879494 
L 453.245114 363.879494 
L 453.686538 363.879494 
L 453.315415 363.411646 
L 453.370429 363.411646 
L 453.425381 363.411646 
L 453.055743 362.943797 
L 453.110748 362.943797 
L 454.997682 362.943797 
L 454.686344 362.475949 
L 457.411878 362.475949 
L 457.208182 362.242025 
L 457.308173 362.242025 
L 458.637441 362.242025 
L 458.436316 362.008101 
L 458.581923 362.008101 
L 459.111912 362.008101 
L 458.912115 361.774177 
L 459.055839 361.774177 
L 459.673485 361.774177 
L 459.475155 361.540253 
L 459.616744 361.540253 
L 459.663843 361.540253 
L 459.315627 361.072405 
L 459.409892 361.072405 
L 459.550926 361.072405 
L 459.353985 360.838481 
L 459.494815 360.838481 
L 460.053827 360.838481 
L 459.662844 360.370633 
L 459.801985 360.370633 
L 460.491364 360.370633 
L 460.297527 360.136709 
L 460.434375 360.136709 
L 460.706834 360.136709 
L 460.513862 359.902785 
L 460.649699 359.902785 
L 460.785128 359.902785 
L 460.592793 359.668861 
L 460.728036 359.668861 
L 461.042032 359.668861 
L 460.850622 359.434937 
L 460.984742 359.434937 
L 462.52042 359.434937 
L 462.331934 359.201013 
L 462.461336 359.201013 
L 463.651082 359.201013 
L 463.464952 358.967089 
L 463.590735 358.967089 
L 464.502185 358.967089 
L 464.317949 358.733165 
L 464.440967 358.733165 
L 465.010457 358.733165 
L 464.827542 358.499241 
L 464.948801 358.499241 
L 464.989145 358.499241 
L 464.80667 358.265316 
L 464.927674 358.265316 
L 466.741322 358.265316 
L 466.320742 357.563544 
L 466.858826 357.563544 
L 466.68131 357.32962 
L 466.795913 357.32962 
L 468.733895 357.32962 
L 468.559956 357.095696 
L 468.669221 357.095696 
L 469.461711 357.095696 
L 469.289434 356.861772 
L 469.396497 356.861772 
L 470.068085 356.861772 
L 469.897266 356.627848 
L 470.002471 356.627848 
L 471.107867 356.627848 
L 470.939231 356.393924 
L 471.075512 356.393924 
L 472.544472 356.393924 
L 472.378694 356.16 
L 472.509779 356.16 
L 473.126493 356.16 
L 472.797887 355.692152 
L 472.926923 355.692152 
L 473.849816 355.692152 
L 473.45797 354.99038 
L 473.489487 354.99038 
L 473.928039 354.99038 
L 473.699879 354.522532 
L 473.731043 354.522532 
L 473.886486 354.522532 
L 473.72625 354.288608 
L 473.850362 354.288608 
L 474.373411 354.288608 
L 474.214388 354.054684 
L 474.336632 354.054684 
L 474.458486 354.054684 
L 474.14164 353.586835 
L 474.263514 353.586835 
L 474.324305 353.586835 
L 474.166376 353.352911 
L 474.287872 353.352911 
L 475.038579 353.352911 
L 474.882228 353.118987 
L 475.001175 353.118987 
L 476.314088 353.118987 
L 476.160254 352.885063 
L 476.274952 352.885063 
L 476.474828 352.885063 
L 476.321639 352.651139 
L 476.435564 352.651139 
L 477.362311 352.651139 
L 477.210985 352.417215 
L 477.321937 352.417215 
L 478.278683 352.417215 
L 478.129267 352.183291 
L 478.237208 352.183291 
L 478.317953 352.183291 
L 478.020089 351.715443 
L 478.127831 351.715443 
L 478.582199 351.715443 
L 478.434375 351.481519 
L 478.540639 351.481519 
L 478.646591 351.481519 
L 478.49923 351.247595 
L 478.605049 351.247595 
L 478.842013 351.247595 
L 478.65393 350.779747 
L 478.7064 350.779747 
L 478.560196 350.545823 
L 478.665082 350.545823 
L 479.595521 350.545823 
L 479.239542 349.844051 
L 479.290675 349.844051 
L 479.392722 349.844051 
L 479.131005 349.376203 
L 479.233025 349.376203 
L 479.738799 349.376203 
L 479.596362 349.142278 
L 479.721897 349.142278 
L 480.392211 349.142278 
L 480.251187 348.908354 
L 480.374137 348.908354 
L 480.545549 348.908354 
L 480.405109 348.67443 
L 480.527238 348.67443 
L 481.131579 348.67443 
L 480.992435 348.440506 
L 481.112255 348.440506 
L 481.374419 348.440506 
L 481.236 348.206582 
L 481.35471 348.206582 
L 481.825525 348.206582 
L 481.688174 347.972658 
L 481.805074 347.972658 
L 482.153416 347.972658 
L 482.016925 347.738734 
L 482.132449 347.738734 
L 483.709977 347.738734 
L 483.442867 347.270886 
L 483.553143 347.270886 
L 483.816341 347.270886 
L 483.683534 347.036962 
L 483.792773 347.036962 
L 483.83637 347.036962 
L 483.59337 346.569114 
L 483.680623 346.569114 
L 483.76765 346.569114 
L 483.569126 346.101266 
L 483.612613 346.101266 
L 483.80761 346.101266 
L 483.676306 345.867342 
L 483.784326 345.867342 
L 483.870492 345.867342 
L 483.739589 345.633418 
L 483.847161 345.633418 
L 483.954388 345.633418 
L 483.823919 345.399494 
L 483.930978 345.399494 
L 484.122824 345.399494 
L 483.992925 345.16557 
L 484.099205 345.16557 
L 484.792254 345.16557 
L 484.663739 344.931646 
L 484.788407 344.931646 
L 485.015748 344.931646 
L 484.760106 344.463797 
L 484.883854 344.463797 
L 484.945554 344.463797 
L 484.818153 344.229873 
L 484.941407 344.229873 
L 484.961905 344.229873 
L 484.834816 343.995949 
L 484.957733 343.995949 
L 485.039423 343.995949 
L 484.912744 343.762025 
L 485.035097 343.762025 
L 485.116414 343.762025 
L 484.990142 343.528101 
L 485.111937 343.528101 
L 485.233282 343.528101 
L 485.107479 343.294177 
L 485.228571 343.294177 
L 485.469421 343.294177 
L 485.344278 343.060253 
L 485.464233 343.060253 
L 486.447022 343.060253 
L 486.323729 342.826329 
L 486.439868 342.826329 
L 487.033314 342.826329 
L 486.91124 342.592405 
L 487.025022 342.592405 
L 487.251375 342.592405 
L 487.121481 342.124557 
L 489.105746 342.124557 
L 488.90534 341.656709 
L 488.993584 341.656709 
L 489.309191 341.656709 
L 489.192116 341.422785 
L 489.314181 341.422785 
L 489.985498 341.422785 
L 489.869773 341.188861 
L 489.988911 341.188861 
L 490.208934 341.188861 
L 490.093823 340.954937 
L 490.21183 340.954937 
L 490.695868 340.954937 
L 490.500991 340.487089 
L 490.583842 340.487089 
L 491.189935 340.487089 
L 491.077155 340.253165 
L 491.190635 340.253165 
L 491.957315 340.253165 
L 491.734313 339.551392 
L 492.172997 339.551392 
L 492.062768 339.317468 
L 492.171599 339.317468 
L 492.618203 339.317468 
L 492.508929 339.083544 
L 492.631132 339.083544 
L 492.949492 339.083544 
L 492.840985 338.84962 
L 492.961544 338.84962 
L 493.483149 338.84962 
L 493.375734 338.615696 
L 493.49383 338.615696 
L 495.744184 338.615696 
L 495.640667 338.381772 
L 495.749409 338.381772 
L 495.898231 338.381772 
L 495.795184 338.147848 
L 495.916548 338.147848 
L 496.090909 338.147848 
L 495.988395 337.913924 
L 496.108654 337.913924 
L 496.649891 337.913924 
L 496.548504 337.68 
L 496.666073 337.68 
L 497.538166 337.68 
L 497.438441 337.446076 
L 497.55195 337.446076 
L 498.161565 337.446076 
L 498.063069 337.212152 
L 498.173706 337.212152 
L 498.3083 337.212152 
L 498.148955 336.744304 
L 498.222217 336.744304 
L 500.272833 336.744304 
L 500.162989 336.276456 
L 500.196755 336.276456 
L 500.264151 336.276456 
L 500.170107 336.042532 
L 500.282219 336.042532 
L 500.714753 336.042532 
L 500.621642 335.808608 
L 500.731537 335.808608 
L 500.840953 335.808608 
L 500.748241 335.574684 
L 500.857358 335.574684 
L 501.203356 335.574684 
L 501.111429 335.340759 
L 501.229454 335.340759 
L 501.272233 335.340759 
L 501.180608 335.106835 
L 501.298063 335.106835 
L 501.44675 335.106835 
L 501.355598 334.872911 
L 501.471988 334.872911 
L 502.138442 334.872911 
L 502.048607 334.638987 
L 502.161529 334.638987 
L 502.263732 334.638987 
L 502.174286 334.405063 
L 502.286397 334.405063 
L 503.056931 334.405063 
L 502.968963 334.171139 
L 503.08704 334.171139 
L 503.233819 334.171139 
L 503.068641 333.703291 
L 503.176012 333.703291 
L 504.09296 333.703291 
L 504.007219 333.469367 
L 504.119544 333.469367 
L 504.43489 333.469367 
L 504.349881 333.235443 
L 504.460345 333.235443 
L 504.670606 333.235443 
L 504.586154 333.001519 
L 504.695277 333.001519 
L 504.876009 333.001519 
L 504.792063 332.767595 
L 504.908972 332.767595 
L 505.078773 332.767595 
L 504.995327 332.533671 
L 505.110973 332.533671 
L 507.202372 332.533671 
L 507.122568 332.299747 
L 507.235576 332.299747 
L 507.451876 332.299747 
L 507.372642 332.065823 
L 507.484137 332.065823 
L 507.846481 332.065823 
L 507.768055 331.831899 
L 507.885095 331.831899 
L 508.407792 331.831899 
L 508.330444 331.597975 
L 508.444222 331.597975 
L 508.564915 331.597975 
L 508.47136 331.130127 
L 508.52397 331.130127 
L 508.561469 331.130127 
L 508.484835 330.896203 
L 508.597117 330.896203 
L 509.345109 330.896203 
L 509.26991 330.662278 
L 509.385031 330.662278 
L 509.499516 330.662278 
L 509.424719 330.428354 
L 509.53876 330.428354 
L 510.353951 330.428354 
L 510.280702 330.19443 
L 510.396667 330.19443 
L 510.720541 330.19443 
L 510.595695 329.726582 
L 510.689396 329.726582 
L 510.716087 329.726582 
L 510.643862 329.492658 
L 510.757091 329.492658 
L 511.092977 329.492658 
L 510.917983 328.790886 
L 510.989902 328.790886 
L 511.113515 328.790886 
L 511.0425 328.556962 
L 511.152632 328.556962 
L 511.47304 328.556962 
L 511.383427 328.089114 
L 511.446931 328.089114 
L 511.667591 328.089114 
L 511.597886 327.85519 
L 511.710589 327.85519 
L 512.228085 327.85519 
L 512.159423 327.621266 
L 512.274768 327.621266 
L 513.294173 327.621266 
L 513.227374 327.387342 
L 513.341942 327.387342 
L 513.444458 327.387342 
L 513.378033 327.153418 
L 513.491467 327.153418 
L 513.816572 327.153418 
L 513.750879 326.919494 
L 513.861854 326.919494 
L 514.103675 326.919494 
L 514.038575 326.68557 
L 514.153062 326.68557 
L 514.20733 326.68557 
L 514.142523 326.451646 
L 514.256148 326.451646 
L 514.534495 326.451646 
L 514.42219 325.983797 
L 514.517781 325.983797 
L 514.702222 325.983797 
L 514.638586 325.749873 
L 514.74853 325.749873 
L 515.048744 325.749873 
L 514.985788 325.515949 
L 515.09854 325.515949 
L 515.291631 325.515949 
L 515.229187 325.282025 
L 515.340204 325.282025 
L 515.535313 325.282025 
L 515.473381 325.048101 
L 515.587627 325.048101 
L 515.592577 325.048101 
L 515.530855 324.814177 
L 515.644515 324.814177 
L 515.864787 324.814177 
L 515.80362 324.580253 
L 515.915321 324.580253 
L 516.770083 324.580253 
L 516.71049 324.346329 
L 516.820872 324.346329 
L 516.875795 324.346329 
L 516.802972 323.878481 
L 516.871413 323.878481 
L 517.801449 323.878481 
L 517.743853 323.644557 
L 517.855645 323.644557 
L 517.885614 323.644557 
L 517.86506 323.176709 
L 517.882118 323.176709 
L 518.152665 323.176709 
L 518.118981 322.708861 
L 518.152431 322.708861 
L 518.160783 322.708861 
L 518.104297 322.474937 
L 518.216811 322.474937 
L 518.233414 322.474937 
L 518.177149 322.241013 
L 518.288957 322.241013 
L 518.416386 322.241013 
L 518.360518 322.007089 
L 518.470871 322.007089 
L 519.160506 322.007089 
L 519.102166 321.539241 
L 519.164464 321.539241 
L 520.041025 321.539241 
L 519.988058 321.305316 
L 520.101701 321.305316 
L 520.73484 321.305316 
L 520.683963 320.837468 
L 520.743384 320.837468 
L 521.534795 320.837468 
L 521.484508 320.603544 
L 521.596702 320.603544 
L 521.808817 320.603544 
L 521.759061 320.36962 
L 521.872187 320.36962 
L 521.974848 320.36962 
L 521.925449 320.135696 
L 522.037082 320.135696 
L 522.77991 320.135696 
L 522.731892 319.901772 
L 522.843189 319.901772 
L 523.180625 319.901772 
L 523.185445 319.433924 
L 523.19709 319.433924 
L 523.462253 319.433924 
L 523.468796 318.966076 
L 523.480162 318.966076 
L 524.557895 318.966076 
L 524.513152 318.732152 
L 524.625544 318.732152 
L 524.778203 318.732152 
L 524.733893 318.498228 
L 524.846767 318.498228 
L 526.454468 318.498228 
L 526.454468 318.498228 
" style="fill:none;stroke:#2ca02c;stroke-linecap:square;stroke-width:2;"/>
   </g>
   <g id="patch_3">
    <path d="M 76.5 448.56 
L 76.5 60.48 
" style="fill:none;stroke:#000000;stroke-linecap:square;stroke-linejoin:miter;stroke-width:0.8;"/>
   </g>
   <g id="patch_4">
    <path d="M 550.8 448.56 
L 550.8 60.48 
" style="fill:none;stroke:#000000;stroke-linecap:square;stroke-linejoin:miter;stroke-width:0.8;"/>
   </g>
   <g id="patch_5">
    <path d="M 76.5 448.56 
L 550.8 448.56 
" style="fill:none;stroke:#000000;stroke-linecap:square;stroke-linejoin:miter;stroke-width:0.8;"/>
   </g>
   <g id="patch_6">
    <path d="M 76.5 60.48 
L 550.8 60.48 
" style="fill:none;stroke:#000000;stroke-linecap:square;stroke-linejoin:miter;stroke-width:0.8;"/>
   </g>
   <g id="text_25">
    <!-- wall: img1-img6 -->
    <defs>
     <path d="M 4.203125 54.6875 
L 13.1875 54.6875 
L 24.421875 12.015625 
L 35.59375 54.6875 
L 46.1875 54.6875 
L 57.421875 12.015625 
L 68.609375 54.6875 
L 77.59375 54.6875 
L 63.28125 0 
L 52.6875 0 
L 40.921875 44.828125 
L 29.109375 0 
L 18.5 0 
z
" id="DejaVuSans-119"/>
     <path d="M 34.28125 27.484375 
Q 23.390625 27.484375 19.1875 25 
Q 14.984375 22.515625 14.984375 16.5 
Q 14.984375 11.71875 18.140625 8.90625 
Q 21.296875 6.109375 26.703125 6.109375 
Q 34.1875 6.109375 38.703125 11.40625 
Q 43.21875 16.703125 43.21875 25.484375 
L 43.21875 27.484375 
z
M 52.203125 31.203125 
L 52.203125 0 
L 43.21875 0 
L 43.21875 8.296875 
Q 40.140625 3.328125 35.546875 0.953125 
Q 30.953125 -1.421875 24.3125 -1.421875 
Q 15.921875 -1.421875 10.953125 3.296875 
Q 6 8.015625 6 15.921875 
Q 6 25.140625 12.171875 29.828125 
Q 18.359375 34.515625 30.609375 34.515625 
L 43.21875 34.515625 
L 43.21875 35.40625 
Q 43.21875 41.609375 39.140625 45 
Q 35.0625 48.390625 27.6875 48.390625 
Q 23 48.390625 18.546875 47.265625 
Q 14.109375 46.140625 10.015625 43.890625 
L 10.015625 52.203125 
Q 14.9375 54.109375 19.578125 55.046875 
Q 24.21875 56 28.609375 56 
Q 40.484375 56 46.34375 49.84375 
Q 52.203125 43.703125 52.203125 31.203125 
z
" id="DejaVuSans-97"/>
     <path d="M 9.421875 75.984375 
L 18.40625 75.984375 
L 18.40625 0 
L 9.421875 0 
z
" id="DejaVuSans-108"/>
     <path d="M 11.71875 12.40625 
L 22.015625 12.40625 
L 22.015625 0 
L 11.71875 0 
z
M 11.71875 51.703125 
L 22.015625 51.703125 
L 22.015625 39.3125 
L 11.71875 39.3125 
z
" id="DejaVuSans-58"/>
     <path id="DejaVuSans-32"/>
     <path d="M 52 44.1875 
Q 55.375 50.25 60.0625 53.125 
Q 64.75 56 71.09375 56 
Q 79.640625 56 84.28125 50.015625 
Q 88.921875 44.046875 88.921875 33.015625 
L 88.921875 0 
L 79.890625 0 
L 79.890625 32.71875 
Q 79.890625 40.578125 77.09375 44.375 
Q 74.3125 48.1875 68.609375 48.1875 
Q 61.625 48.1875 57.5625 43.546875 
Q 53.515625 38.921875 53.515625 30.90625 
L 53.515625 0 
L 44.484375 0 
L 44.484375 32.71875 
Q 44.484375 40.625 41.703125 44.40625 
Q 38.921875 48.1875 33.109375 48.1875 
Q 26.21875 48.1875 22.15625 43.53125 
Q 18.109375 38.875 18.109375 30.90625 
L 18.109375 0 
L 9.078125 0 
L 9.078125 54.6875 
L 18.109375 54.6875 
L 18.109375 46.1875 
Q 21.1875 51.21875 25.484375 53.609375 
Q 29.78125 56 35.6875 56 
Q 41.65625 56 45.828125 52.96875 
Q 50 49.953125 52 44.1875 
z
" id="DejaVuSans-109"/>
     <path d="M 45.40625 27.984375 
Q 45.40625 37.75 41.375 43.109375 
Q 37.359375 48.484375 30.078125 48.484375 
Q 22.859375 48.484375 18.828125 43.109375 
Q 14.796875 37.75 14.796875 27.984375 
Q 14.796875 18.265625 18.828125 12.890625 
Q 22.859375 7.515625 30.078125 7.515625 
Q 37.359375 7.515625 41.375 12.890625 
Q 45.40625 18.265625 45.40625 27.984375 
z
M 54.390625 6.78125 
Q 54.390625 -7.171875 48.1875 -13.984375 
Q 42 -20.796875 29.203125 -20.796875 
Q 24.46875 -20.796875 20.265625 -20.09375 
Q 16.0625 -19.390625 12.109375 -17.921875 
L 12.109375 -9.1875 
Q 16.0625 -11.328125 19.921875 -12.34375 
Q 23.78125 -13.375 27.78125 -13.375 
Q 36.625 -13.375 41.015625 -8.765625 
Q 45.40625 -4.15625 45.40625 5.171875 
L 45.40625 9.625 
Q 42.625 4.78125 38.28125 2.390625 
Q 33.9375 0 27.875 0 
Q 17.828125 0 11.671875 7.65625 
Q 5.515625 15.328125 5.515625 27.984375 
Q 5.515625 40.671875 11.671875 48.328125 
Q 17.828125 56 27.875 56 
Q 33.9375 56 38.28125 53.609375 
Q 42.625 51.21875 45.40625 46.390625 
L 45.40625 54.6875 
L 54.390625 54.6875 
z
" id="DejaVuSans-103"/>
    </defs>
    <g transform="translate(265.364063 41.042625)scale(0.12 -0.12)">
     <use xlink:href="#DejaVuSans-119"/>
     <use x="81.787109" xlink:href="#DejaVuSans-97"/>
     <use x="143.066406" xlink:href="#DejaVuSans-108"/>
     <use x="170.849609" xlink:href="#DejaVuSans-108"/>
     <use x="198.632812" xlink:href="#DejaVuSans-58"/>
     <use x="232.324219" xlink:href="#DejaVuSans-32"/>
     <use x="264.111328" xlink:href="#DejaVuSans-105"/>
     <use x="291.894531" xlink:href="#DejaVuSans-109"/>
     <use x="389.306641" xlink:href="#DejaVuSans-103"/>
     <use x="452.783203" xlink:href="#DejaVuSans-49"/>
     <use x="516.40625" xlink:href="#DejaVuSans-45"/>
     <use x="552.490234" xlink:href="#DejaVuSans-105"/>
     <use x="580.273438" xlink:href="#DejaVuSans-109"/>
     <use x="677.685547" xlink:href="#DejaVuSans-103"/>
     <use x="741.162109" xlink:href="#DejaVuSans-54"/>
    </g>
    <!-- NearestNeighbours -->
    <defs>
     <path d="M 9.8125 72.90625 
L 23.09375 72.90625 
L 55.421875 11.921875 
L 55.421875 72.90625 
L 64.984375 72.90625 
L 64.984375 0 
L 51.703125 0 
L 19.390625 60.984375 
L 19.390625 0 
L 9.8125 0 
z
" id="DejaVuSans-78"/>
     <path d="M 54.890625 33.015625 
L 54.890625 0 
L 45.90625 0 
L 45.90625 32.71875 
Q 45.90625 40.484375 42.875 44.328125 
Q 39.84375 48.1875 33.796875 48.1875 
Q 26.515625 48.1875 22.3125 43.546875 
Q 18.109375 38.921875 18.109375 30.90625 
L 18.109375 0 
L 9.078125 0 
L 9.078125 75.984375 
L 18.109375 75.984375 
L 18.109375 46.1875 
Q 21.34375 51.125 25.703125 53.5625 
Q 30.078125 56 35.796875 56 
Q 45.21875 56 50.046875 50.171875 
Q 54.890625 44.34375 54.890625 33.015625 
z
" id="DejaVuSans-104"/>
     <path d="M 48.6875 27.296875 
Q 48.6875 37.203125 44.609375 42.84375 
Q 40.53125 48.484375 33.40625 48.484375 
Q 26.265625 48.484375 22.1875 42.84375 
Q 18.109375 37.203125 18.109375 27.296875 
Q 18.109375 17.390625 22.1875 11.75 
Q 26.265625 6.109375 33.40625 6.109375 
Q 40.53125 6.109375 44.609375 11.75 
Q 48.6875 17.390625 48.6875 27.296875 
z
M 18.109375 46.390625 
Q 20.953125 51.265625 25.265625 53.625 
Q 29.59375 56 35.59375 56 
Q 45.5625 56 51.78125 48.09375 
Q 58.015625 40.1875 58.015625 27.296875 
Q 58.015625 14.40625 51.78125 6.484375 
Q 45.5625 -1.421875 35.59375 -1.421875 
Q 29.59375 -1.421875 25.265625 0.953125 
Q 20.953125 3.328125 18.109375 8.203125 
L 18.109375 0 
L 9.078125 0 
L 9.078125 75.984375 
L 18.109375 75.984375 
z
" id="DejaVuSans-98"/>
     <path d="M 8.5 21.578125 
L 8.5 54.6875 
L 17.484375 54.6875 
L 17.484375 21.921875 
Q 17.484375 14.15625 20.5 10.265625 
Q 23.53125 6.390625 29.59375 6.390625 
Q 36.859375 6.390625 41.078125 11.03125 
Q 45.3125 15.671875 45.3125 23.6875 
L 45.3125 54.6875 
L 54.296875 54.6875 
L 54.296875 0 
L 45.3125 0 
L 45.3125 8.40625 
Q 42.046875 3.421875 37.71875 1 
Q 33.40625 -1.421875 27.6875 -1.421875 
Q 18.265625 -1.421875 13.375 4.4375 
Q 8.5 10.296875 8.5 21.578125 
z
M 31.109375 56 
z
" id="DejaVuSans-117"/>
    </defs>
    <g transform="translate(255.957188 54.48)scale(0.12 -0.12)">
     <use xlink:href="#DejaVuSans-78"/>
     <use x="74.804688" xlink:href="#DejaVuSans-101"/>
     <use x="136.328125" xlink:href="#DejaVuSans-97"/>
     <use x="197.607422" xlink:href="#DejaVuSans-114"/>
     <use x="236.470703" xlink:href="#DejaVuSans-101"/>
     <use x="297.994141" xlink:href="#DejaVuSans-115"/>
     <use x="350.09375" xlink:href="#DejaVuSans-116"/>
     <use x="389.302734" xlink:href="#DejaVuSans-78"/>
     <use x="464.107422" xlink:href="#DejaVuSans-101"/>
     <use x="525.630859" xlink:href="#DejaVuSans-105"/>
     <use x="553.414062" xlink:href="#DejaVuSans-103"/>
     <use x="616.890625" xlink:href="#DejaVuSans-104"/>
     <use x="680.269531" xlink:href="#DejaVuSans-98"/>
     <use x="743.746094" xlink:href="#DejaVuSans-111"/>
     <use x="804.927734" xlink:href="#DejaVuSans-117"/>
     <use x="868.306641" xlink:href="#DejaVuSans-114"/>
     <use x="909.419922" xlink:href="#DejaVuSans-115"/>
    </g>
   </g>
   <g id="legend_1">
    <g id="patch_7">
     <path d="M 375.384375 112.514375 
L 543.8 112.514375 
Q 545.8 112.514375 545.8 110.514375 
L 545.8 67.48 
Q 545.8 65.48 543.8 65.48 
L 375.384375 65.48 
Q 373.384375 65.48 373.384375 67.48 
L 373.384375 110.514375 
Q 373.384375 112.514375 375.384375 112.514375 
z
" style="fill:#ffffff;opacity:0.8;stroke:#cccccc;stroke-linejoin:miter;"/>
    </g>
    <g id="line2d_48">
     <path d="M 377.384375 73.578438 
L 397.384375 73.578438 
" style="fill:none;stroke:#1f77b4;stroke-linecap:square;stroke-width:2;"/>
    </g>
    <g id="line2d_49"/>
    <g id="text_26">
     <!-- root-cvsift AP: 0.9, %In: 1.7 -->
     <defs>
      <path d="M 2.984375 54.6875 
L 12.5 54.6875 
L 29.59375 8.796875 
L 46.6875 54.6875 
L 56.203125 54.6875 
L 35.6875 0 
L 23.484375 0 
z
" id="DejaVuSans-118"/>
      <path d="M 37.109375 75.984375 
L 37.109375 68.5 
L 28.515625 68.5 
Q 23.6875 68.5 21.796875 66.546875 
Q 19.921875 64.59375 19.921875 59.515625 
L 19.921875 54.6875 
L 34.71875 54.6875 
L 34.71875 47.703125 
L 19.921875 47.703125 
L 19.921875 0 
L 10.890625 0 
L 10.890625 47.703125 
L 2.296875 47.703125 
L 2.296875 54.6875 
L 10.890625 54.6875 
L 10.890625 58.5 
Q 10.890625 67.625 15.140625 71.796875 
Q 19.390625 75.984375 28.609375 75.984375 
z
" id="DejaVuSans-102"/>
      <path d="M 34.1875 63.1875 
L 20.796875 26.90625 
L 47.609375 26.90625 
z
M 28.609375 72.90625 
L 39.796875 72.90625 
L 67.578125 0 
L 57.328125 0 
L 50.6875 18.703125 
L 17.828125 18.703125 
L 11.1875 0 
L 0.78125 0 
z
" id="DejaVuSans-65"/>
      <path d="M 19.671875 64.796875 
L 19.671875 37.40625 
L 32.078125 37.40625 
Q 38.96875 37.40625 42.71875 40.96875 
Q 46.484375 44.53125 46.484375 51.125 
Q 46.484375 57.671875 42.71875 61.234375 
Q 38.96875 64.796875 32.078125 64.796875 
z
M 9.8125 72.90625 
L 32.078125 72.90625 
Q 44.34375 72.90625 50.609375 67.359375 
Q 56.890625 61.8125 56.890625 51.125 
Q 56.890625 40.328125 50.609375 34.8125 
Q 44.34375 29.296875 32.078125 29.296875 
L 19.671875 29.296875 
L 19.671875 0 
L 9.8125 0 
z
" id="DejaVuSans-80"/>
      <path d="M 11.71875 12.40625 
L 22.015625 12.40625 
L 22.015625 4 
L 14.015625 -11.625 
L 7.71875 -11.625 
L 11.71875 4 
z
" id="DejaVuSans-44"/>
      <path d="M 72.703125 32.078125 
Q 68.453125 32.078125 66.03125 28.46875 
Q 63.625 24.859375 63.625 18.40625 
Q 63.625 12.0625 66.03125 8.421875 
Q 68.453125 4.78125 72.703125 4.78125 
Q 76.859375 4.78125 79.265625 8.421875 
Q 81.6875 12.0625 81.6875 18.40625 
Q 81.6875 24.8125 79.265625 28.4375 
Q 76.859375 32.078125 72.703125 32.078125 
z
M 72.703125 38.28125 
Q 80.421875 38.28125 84.953125 32.90625 
Q 89.5 27.546875 89.5 18.40625 
Q 89.5 9.28125 84.9375 3.921875 
Q 80.375 -1.421875 72.703125 -1.421875 
Q 64.890625 -1.421875 60.34375 3.921875 
Q 55.8125 9.28125 55.8125 18.40625 
Q 55.8125 27.59375 60.375 32.9375 
Q 64.9375 38.28125 72.703125 38.28125 
z
M 22.3125 68.015625 
Q 18.109375 68.015625 15.6875 64.375 
Q 13.28125 60.75 13.28125 54.390625 
Q 13.28125 47.953125 15.671875 44.328125 
Q 18.0625 40.71875 22.3125 40.71875 
Q 26.5625 40.71875 28.96875 44.328125 
Q 31.390625 47.953125 31.390625 54.390625 
Q 31.390625 60.6875 28.953125 64.34375 
Q 26.515625 68.015625 22.3125 68.015625 
z
M 66.40625 74.21875 
L 74.21875 74.21875 
L 28.609375 -1.421875 
L 20.796875 -1.421875 
z
M 22.3125 74.21875 
Q 30.03125 74.21875 34.609375 68.875 
Q 39.203125 63.53125 39.203125 54.390625 
Q 39.203125 45.171875 34.640625 39.84375 
Q 30.078125 34.515625 22.3125 34.515625 
Q 14.546875 34.515625 10.03125 39.859375 
Q 5.515625 45.21875 5.515625 54.390625 
Q 5.515625 63.484375 10.046875 68.84375 
Q 14.59375 74.21875 22.3125 74.21875 
z
" id="DejaVuSans-37"/>
      <path d="M 9.8125 72.90625 
L 19.671875 72.90625 
L 19.671875 0 
L 9.8125 0 
z
" id="DejaVuSans-73"/>
     </defs>
     <g transform="translate(405.384375 77.078438)scale(0.1 -0.1)">
      <use xlink:href="#DejaVuSans-114"/>
      <use x="38.863281" xlink:href="#DejaVuSans-111"/>
      <use x="100.044922" xlink:href="#DejaVuSans-111"/>
      <use x="161.226562" xlink:href="#DejaVuSans-116"/>
      <use x="200.435547" xlink:href="#DejaVuSans-45"/>
      <use x="236.519531" xlink:href="#DejaVuSans-99"/>
      <use x="291.5" xlink:href="#DejaVuSans-118"/>
      <use x="350.679688" xlink:href="#DejaVuSans-115"/>
      <use x="402.779297" xlink:href="#DejaVuSans-105"/>
      <use x="430.5625" xlink:href="#DejaVuSans-102"/>
      <use x="464.017578" xlink:href="#DejaVuSans-116"/>
      <use x="503.226562" xlink:href="#DejaVuSans-32"/>
      <use x="535.013672" xlink:href="#DejaVuSans-65"/>
      <use x="603.421875" xlink:href="#DejaVuSans-80"/>
      <use x="663.724609" xlink:href="#DejaVuSans-58"/>
      <use x="697.416016" xlink:href="#DejaVuSans-32"/>
      <use x="729.203125" xlink:href="#DejaVuSans-48"/>
      <use x="792.826172" xlink:href="#DejaVuSans-46"/>
      <use x="824.613281" xlink:href="#DejaVuSans-57"/>
      <use x="888.236328" xlink:href="#DejaVuSans-44"/>
      <use x="920.023438" xlink:href="#DejaVuSans-32"/>
      <use x="951.810547" xlink:href="#DejaVuSans-37"/>
      <use x="1046.830078" xlink:href="#DejaVuSans-73"/>
      <use x="1076.322266" xlink:href="#DejaVuSans-110"/>
      <use x="1139.701172" xlink:href="#DejaVuSans-58"/>
      <use x="1173.392578" xlink:href="#DejaVuSans-32"/>
      <use x="1205.179688" xlink:href="#DejaVuSans-49"/>
      <use x="1268.802734" xlink:href="#DejaVuSans-46"/>
      <use x="1300.589844" xlink:href="#DejaVuSans-55"/>
     </g>
    </g>
    <g id="line2d_50">
     <path d="M 377.384375 88.256563 
L 397.384375 88.256563 
" style="fill:none;stroke:#ff7f0e;stroke-linecap:square;stroke-width:2;"/>
    </g>
    <g id="line2d_51"/>
    <g id="text_27">
     <!-- tfeat AP: 0.8, %In: 1.5 -->
     <g transform="translate(405.384375 91.756563)scale(0.1 -0.1)">
      <use xlink:href="#DejaVuSans-116"/>
      <use x="39.208984" xlink:href="#DejaVuSans-102"/>
      <use x="74.414062" xlink:href="#DejaVuSans-101"/>
      <use x="135.9375" xlink:href="#DejaVuSans-97"/>
      <use x="197.216797" xlink:href="#DejaVuSans-116"/>
      <use x="236.425781" xlink:href="#DejaVuSans-32"/>
      <use x="268.212891" xlink:href="#DejaVuSans-65"/>
      <use x="336.621094" xlink:href="#DejaVuSans-80"/>
      <use x="396.923828" xlink:href="#DejaVuSans-58"/>
      <use x="430.615234" xlink:href="#DejaVuSans-32"/>
      <use x="462.402344" xlink:href="#DejaVuSans-48"/>
      <use x="526.025391" xlink:href="#DejaVuSans-46"/>
      <use x="557.8125" xlink:href="#DejaVuSans-56"/>
      <use x="621.435547" xlink:href="#DejaVuSans-44"/>
      <use x="653.222656" xlink:href="#DejaVuSans-32"/>
      <use x="685.009766" xlink:href="#DejaVuSans-37"/>
      <use x="780.029297" xlink:href="#DejaVuSans-73"/>
      <use x="809.521484" xlink:href="#DejaVuSans-110"/>
      <use x="872.900391" xlink:href="#DejaVuSans-58"/>
      <use x="906.591797" xlink:href="#DejaVuSans-32"/>
      <use x="938.378906" xlink:href="#DejaVuSans-49"/>
      <use x="1002.001953" xlink:href="#DejaVuSans-46"/>
      <use x="1033.789062" xlink:href="#DejaVuSans-53"/>
     </g>
    </g>
    <g id="line2d_52">
     <path d="M 377.384375 102.934687 
L 397.384375 102.934687 
" style="fill:none;stroke:#2ca02c;stroke-linecap:square;stroke-width:2;"/>
    </g>
    <g id="line2d_53"/>
    <g id="text_28">
     <!-- hardnet AP: 11.4, %In: 5.1 -->
     <defs>
      <path d="M 45.40625 46.390625 
L 45.40625 75.984375 
L 54.390625 75.984375 
L 54.390625 0 
L 45.40625 0 
L 45.40625 8.203125 
Q 42.578125 3.328125 38.25 0.953125 
Q 33.9375 -1.421875 27.875 -1.421875 
Q 17.96875 -1.421875 11.734375 6.484375 
Q 5.515625 14.40625 5.515625 27.296875 
Q 5.515625 40.1875 11.734375 48.09375 
Q 17.96875 56 27.875 56 
Q 33.9375 56 38.25 53.625 
Q 42.578125 51.265625 45.40625 46.390625 
z
M 14.796875 27.296875 
Q 14.796875 17.390625 18.875 11.75 
Q 22.953125 6.109375 30.078125 6.109375 
Q 37.203125 6.109375 41.296875 11.75 
Q 45.40625 17.390625 45.40625 27.296875 
Q 45.40625 37.203125 41.296875 42.84375 
Q 37.203125 48.484375 30.078125 48.484375 
Q 22.953125 48.484375 18.875 42.84375 
Q 14.796875 37.203125 14.796875 27.296875 
z
" id="DejaVuSans-100"/>
     </defs>
     <g transform="translate(405.384375 106.434687)scale(0.1 -0.1)">
      <use xlink:href="#DejaVuSans-104"/>
      <use x="63.378906" xlink:href="#DejaVuSans-97"/>
      <use x="124.658203" xlink:href="#DejaVuSans-114"/>
      <use x="164.021484" xlink:href="#DejaVuSans-100"/>
      <use x="227.498047" xlink:href="#DejaVuSans-110"/>
      <use x="290.876953" xlink:href="#DejaVuSans-101"/>
      <use x="352.400391" xlink:href="#DejaVuSans-116"/>
      <use x="391.609375" xlink:href="#DejaVuSans-32"/>
      <use x="423.396484" xlink:href="#DejaVuSans-65"/>
      <use x="491.804688" xlink:href="#DejaVuSans-80"/>
      <use x="552.107422" xlink:href="#DejaVuSans-58"/>
      <use x="585.798828" xlink:href="#DejaVuSans-32"/>
      <use x="617.585938" xlink:href="#DejaVuSans-49"/>
      <use x="681.208984" xlink:href="#DejaVuSans-49"/>
      <use x="744.832031" xlink:href="#DejaVuSans-46"/>
      <use x="776.619141" xlink:href="#DejaVuSans-52"/>
      <use x="840.242188" xlink:href="#DejaVuSans-44"/>
      <use x="872.029297" xlink:href="#DejaVuSans-32"/>
      <use x="903.816406" xlink:href="#DejaVuSans-37"/>
      <use x="998.835938" xlink:href="#DejaVuSans-73"/>
      <use x="1028.328125" xlink:href="#DejaVuSans-110"/>
      <use x="1091.707031" xlink:href="#DejaVuSans-58"/>
      <use x="1125.398438" xlink:href="#DejaVuSans-32"/>
      <use x="1157.185547" xlink:href="#DejaVuSans-53"/>
      <use x="1220.808594" xlink:href="#DejaVuSans-46"/>
      <use x="1252.595703" xlink:href="#DejaVuSans-49"/>
     </g>
    </g>
   </g>
  </g>
 </g>
 <defs>
  <clipPath id="pe80e0e7139">
   <rect height="388.08" width="474.3" x="76.5" y="60.48"/>
  </clipPath>
 </defs>
</svg>
