<?xml version="1.0" encoding="utf-8" standalone="no"?>
<!DOCTYPE svg PUBLIC "-//W3C//DTD SVG 1.1//EN"
  "http://www.w3.org/Graphics/SVG/1.1/DTD/svg11.dtd">
<!-- Created with matplotlib (https://matplotlib.org/) -->
<svg height="504pt" version="1.1" viewBox="0 0 612 504" width="612pt" xmlns="http://www.w3.org/2000/svg" xmlns:xlink="http://www.w3.org/1999/xlink">
 <defs>
  <style type="text/css">
*{stroke-linecap:butt;stroke-linejoin:round;}
  </style>
 </defs>
 <g id="figure_1">
  <g id="patch_1">
   <path d="M 0 504 
L 612 504 
L 612 0 
L 0 0 
z
" style="fill:#ffffff;"/>
  </g>
  <g id="axes_1">
   <g id="patch_2">
    <path d="M 76.5 448.56 
L 550.8 448.56 
L 550.8 60.48 
L 76.5 60.48 
z
" style="fill:#ffffff;"/>
   </g>
   <g id="matplotlib.axis_1">
    <g id="xtick_1">
     <g id="line2d_1">
      <path clip-path="url(#p313374274c)" d="M 76.5 448.56 
L 76.5 60.48 
" style="fill:none;stroke:#b0b0b0;stroke-linecap:square;stroke-width:0.8;"/>
     </g>
     <g id="line2d_2">
      <defs>
       <path d="M 0 0 
L 0 3.5 
" id="m6cc5c9c1af" style="stroke:#000000;stroke-width:0.8;"/>
      </defs>
      <g>
       <use style="stroke:#000000;stroke-width:0.8;" x="76.5" xlink:href="#m6cc5c9c1af" y="448.56"/>
      </g>
     </g>
     <g id="text_1">
      <!-- 0.0 -->
      <defs>
       <path d="M 31.78125 66.40625 
Q 24.171875 66.40625 20.328125 58.90625 
Q 16.5 51.421875 16.5 36.375 
Q 16.5 21.390625 20.328125 13.890625 
Q 24.171875 6.390625 31.78125 6.390625 
Q 39.453125 6.390625 43.28125 13.890625 
Q 47.125 21.390625 47.125 36.375 
Q 47.125 51.421875 43.28125 58.90625 
Q 39.453125 66.40625 31.78125 66.40625 
z
M 31.78125 74.21875 
Q 44.046875 74.21875 50.515625 64.515625 
Q 56.984375 54.828125 56.984375 36.375 
Q 56.984375 17.96875 50.515625 8.265625 
Q 44.046875 -1.421875 31.78125 -1.421875 
Q 19.53125 -1.421875 13.0625 8.265625 
Q 6.59375 17.96875 6.59375 36.375 
Q 6.59375 54.828125 13.0625 64.515625 
Q 19.53125 74.21875 31.78125 74.21875 
z
" id="DejaVuSans-48"/>
       <path d="M 10.6875 12.40625 
L 21 12.40625 
L 21 0 
L 10.6875 0 
z
" id="DejaVuSans-46"/>
      </defs>
      <g transform="translate(68.548438 463.158437)scale(0.1 -0.1)">
       <use xlink:href="#DejaVuSans-48"/>
       <use x="63.623047" xlink:href="#DejaVuSans-46"/>
       <use x="95.410156" xlink:href="#DejaVuSans-48"/>
      </g>
     </g>
    </g>
    <g id="xtick_2">
     <g id="line2d_3">
      <path clip-path="url(#p313374274c)" d="M 123.93 448.56 
L 123.93 60.48 
" style="fill:none;stroke:#b0b0b0;stroke-linecap:square;stroke-width:0.8;"/>
     </g>
     <g id="line2d_4">
      <g>
       <use style="stroke:#000000;stroke-width:0.8;" x="123.93" xlink:href="#m6cc5c9c1af" y="448.56"/>
      </g>
     </g>
     <g id="text_2">
      <!-- 0.1 -->
      <defs>
       <path d="M 12.40625 8.296875 
L 28.515625 8.296875 
L 28.515625 63.921875 
L 10.984375 60.40625 
L 10.984375 69.390625 
L 28.421875 72.90625 
L 38.28125 72.90625 
L 38.28125 8.296875 
L 54.390625 8.296875 
L 54.390625 0 
L 12.40625 0 
z
" id="DejaVuSans-49"/>
      </defs>
      <g transform="translate(115.978438 463.158437)scale(0.1 -0.1)">
       <use xlink:href="#DejaVuSans-48"/>
       <use x="63.623047" xlink:href="#DejaVuSans-46"/>
       <use x="95.410156" xlink:href="#DejaVuSans-49"/>
      </g>
     </g>
    </g>
    <g id="xtick_3">
     <g id="line2d_5">
      <path clip-path="url(#p313374274c)" d="M 171.36 448.56 
L 171.36 60.48 
" style="fill:none;stroke:#b0b0b0;stroke-linecap:square;stroke-width:0.8;"/>
     </g>
     <g id="line2d_6">
      <g>
       <use style="stroke:#000000;stroke-width:0.8;" x="171.36" xlink:href="#m6cc5c9c1af" y="448.56"/>
      </g>
     </g>
     <g id="text_3">
      <!-- 0.2 -->
      <defs>
       <path d="M 19.1875 8.296875 
L 53.609375 8.296875 
L 53.609375 0 
L 7.328125 0 
L 7.328125 8.296875 
Q 12.9375 14.109375 22.625 23.890625 
Q 32.328125 33.6875 34.8125 36.53125 
Q 39.546875 41.84375 41.421875 45.53125 
Q 43.3125 49.21875 43.3125 52.78125 
Q 43.3125 58.59375 39.234375 62.25 
Q 35.15625 65.921875 28.609375 65.921875 
Q 23.96875 65.921875 18.8125 64.3125 
Q 13.671875 62.703125 7.8125 59.421875 
L 7.8125 69.390625 
Q 13.765625 71.78125 18.9375 73 
Q 24.125 74.21875 28.421875 74.21875 
Q 39.75 74.21875 46.484375 68.546875 
Q 53.21875 62.890625 53.21875 53.421875 
Q 53.21875 48.921875 51.53125 44.890625 
Q 49.859375 40.875 45.40625 35.40625 
Q 44.1875 33.984375 37.640625 27.21875 
Q 31.109375 20.453125 19.1875 8.296875 
z
" id="DejaVuSans-50"/>
      </defs>
      <g transform="translate(163.408438 463.158437)scale(0.1 -0.1)">
       <use xlink:href="#DejaVuSans-48"/>
       <use x="63.623047" xlink:href="#DejaVuSans-46"/>
       <use x="95.410156" xlink:href="#DejaVuSans-50"/>
      </g>
     </g>
    </g>
    <g id="xtick_4">
     <g id="line2d_7">
      <path clip-path="url(#p313374274c)" d="M 218.79 448.56 
L 218.79 60.48 
" style="fill:none;stroke:#b0b0b0;stroke-linecap:square;stroke-width:0.8;"/>
     </g>
     <g id="line2d_8">
      <g>
       <use style="stroke:#000000;stroke-width:0.8;" x="218.79" xlink:href="#m6cc5c9c1af" y="448.56"/>
      </g>
     </g>
     <g id="text_4">
      <!-- 0.3 -->
      <defs>
       <path d="M 40.578125 39.3125 
Q 47.65625 37.796875 51.625 33 
Q 55.609375 28.21875 55.609375 21.1875 
Q 55.609375 10.40625 48.1875 4.484375 
Q 40.765625 -1.421875 27.09375 -1.421875 
Q 22.515625 -1.421875 17.65625 -0.515625 
Q 12.796875 0.390625 7.625 2.203125 
L 7.625 11.71875 
Q 11.71875 9.328125 16.59375 8.109375 
Q 21.484375 6.890625 26.8125 6.890625 
Q 36.078125 6.890625 40.9375 10.546875 
Q 45.796875 14.203125 45.796875 21.1875 
Q 45.796875 27.640625 41.28125 31.265625 
Q 36.765625 34.90625 28.71875 34.90625 
L 20.21875 34.90625 
L 20.21875 43.015625 
L 29.109375 43.015625 
Q 36.375 43.015625 40.234375 45.921875 
Q 44.09375 48.828125 44.09375 54.296875 
Q 44.09375 59.90625 40.109375 62.90625 
Q 36.140625 65.921875 28.71875 65.921875 
Q 24.65625 65.921875 20.015625 65.03125 
Q 15.375 64.15625 9.8125 62.3125 
L 9.8125 71.09375 
Q 15.4375 72.65625 20.34375 73.4375 
Q 25.25 74.21875 29.59375 74.21875 
Q 40.828125 74.21875 47.359375 69.109375 
Q 53.90625 64.015625 53.90625 55.328125 
Q 53.90625 49.265625 50.4375 45.09375 
Q 46.96875 40.921875 40.578125 39.3125 
z
" id="DejaVuSans-51"/>
      </defs>
      <g transform="translate(210.838438 463.158437)scale(0.1 -0.1)">
       <use xlink:href="#DejaVuSans-48"/>
       <use x="63.623047" xlink:href="#DejaVuSans-46"/>
       <use x="95.410156" xlink:href="#DejaVuSans-51"/>
      </g>
     </g>
    </g>
    <g id="xtick_5">
     <g id="line2d_9">
      <path clip-path="url(#p313374274c)" d="M 266.22 448.56 
L 266.22 60.48 
" style="fill:none;stroke:#b0b0b0;stroke-linecap:square;stroke-width:0.8;"/>
     </g>
     <g id="line2d_10">
      <g>
       <use style="stroke:#000000;stroke-width:0.8;" x="266.22" xlink:href="#m6cc5c9c1af" y="448.56"/>
      </g>
     </g>
     <g id="text_5">
      <!-- 0.4 -->
      <defs>
       <path d="M 37.796875 64.3125 
L 12.890625 25.390625 
L 37.796875 25.390625 
z
M 35.203125 72.90625 
L 47.609375 72.90625 
L 47.609375 25.390625 
L 58.015625 25.390625 
L 58.015625 17.1875 
L 47.609375 17.1875 
L 47.609375 0 
L 37.796875 0 
L 37.796875 17.1875 
L 4.890625 17.1875 
L 4.890625 26.703125 
z
" id="DejaVuSans-52"/>
      </defs>
      <g transform="translate(258.268438 463.158437)scale(0.1 -0.1)">
       <use xlink:href="#DejaVuSans-48"/>
       <use x="63.623047" xlink:href="#DejaVuSans-46"/>
       <use x="95.410156" xlink:href="#DejaVuSans-52"/>
      </g>
     </g>
    </g>
    <g id="xtick_6">
     <g id="line2d_11">
      <path clip-path="url(#p313374274c)" d="M 313.65 448.56 
L 313.65 60.48 
" style="fill:none;stroke:#b0b0b0;stroke-linecap:square;stroke-width:0.8;"/>
     </g>
     <g id="line2d_12">
      <g>
       <use style="stroke:#000000;stroke-width:0.8;" x="313.65" xlink:href="#m6cc5c9c1af" y="448.56"/>
      </g>
     </g>
     <g id="text_6">
      <!-- 0.5 -->
      <defs>
       <path d="M 10.796875 72.90625 
L 49.515625 72.90625 
L 49.515625 64.59375 
L 19.828125 64.59375 
L 19.828125 46.734375 
Q 21.96875 47.46875 24.109375 47.828125 
Q 26.265625 48.1875 28.421875 48.1875 
Q 40.625 48.1875 47.75 41.5 
Q 54.890625 34.8125 54.890625 23.390625 
Q 54.890625 11.625 47.5625 5.09375 
Q 40.234375 -1.421875 26.90625 -1.421875 
Q 22.3125 -1.421875 17.546875 -0.640625 
Q 12.796875 0.140625 7.71875 1.703125 
L 7.71875 11.625 
Q 12.109375 9.234375 16.796875 8.0625 
Q 21.484375 6.890625 26.703125 6.890625 
Q 35.15625 6.890625 40.078125 11.328125 
Q 45.015625 15.765625 45.015625 23.390625 
Q 45.015625 31 40.078125 35.4375 
Q 35.15625 39.890625 26.703125 39.890625 
Q 22.75 39.890625 18.8125 39.015625 
Q 14.890625 38.140625 10.796875 36.28125 
z
" id="DejaVuSans-53"/>
      </defs>
      <g transform="translate(305.698438 463.158437)scale(0.1 -0.1)">
       <use xlink:href="#DejaVuSans-48"/>
       <use x="63.623047" xlink:href="#DejaVuSans-46"/>
       <use x="95.410156" xlink:href="#DejaVuSans-53"/>
      </g>
     </g>
    </g>
    <g id="xtick_7">
     <g id="line2d_13">
      <path clip-path="url(#p313374274c)" d="M 361.08 448.56 
L 361.08 60.48 
" style="fill:none;stroke:#b0b0b0;stroke-linecap:square;stroke-width:0.8;"/>
     </g>
     <g id="line2d_14">
      <g>
       <use style="stroke:#000000;stroke-width:0.8;" x="361.08" xlink:href="#m6cc5c9c1af" y="448.56"/>
      </g>
     </g>
     <g id="text_7">
      <!-- 0.6 -->
      <defs>
       <path d="M 33.015625 40.375 
Q 26.375 40.375 22.484375 35.828125 
Q 18.609375 31.296875 18.609375 23.390625 
Q 18.609375 15.53125 22.484375 10.953125 
Q 26.375 6.390625 33.015625 6.390625 
Q 39.65625 6.390625 43.53125 10.953125 
Q 47.40625 15.53125 47.40625 23.390625 
Q 47.40625 31.296875 43.53125 35.828125 
Q 39.65625 40.375 33.015625 40.375 
z
M 52.59375 71.296875 
L 52.59375 62.3125 
Q 48.875 64.0625 45.09375 64.984375 
Q 41.3125 65.921875 37.59375 65.921875 
Q 27.828125 65.921875 22.671875 59.328125 
Q 17.53125 52.734375 16.796875 39.40625 
Q 19.671875 43.65625 24.015625 45.921875 
Q 28.375 48.1875 33.59375 48.1875 
Q 44.578125 48.1875 50.953125 41.515625 
Q 57.328125 34.859375 57.328125 23.390625 
Q 57.328125 12.15625 50.6875 5.359375 
Q 44.046875 -1.421875 33.015625 -1.421875 
Q 20.359375 -1.421875 13.671875 8.265625 
Q 6.984375 17.96875 6.984375 36.375 
Q 6.984375 53.65625 15.1875 63.9375 
Q 23.390625 74.21875 37.203125 74.21875 
Q 40.921875 74.21875 44.703125 73.484375 
Q 48.484375 72.75 52.59375 71.296875 
z
" id="DejaVuSans-54"/>
      </defs>
      <g transform="translate(353.128438 463.158437)scale(0.1 -0.1)">
       <use xlink:href="#DejaVuSans-48"/>
       <use x="63.623047" xlink:href="#DejaVuSans-46"/>
       <use x="95.410156" xlink:href="#DejaVuSans-54"/>
      </g>
     </g>
    </g>
    <g id="xtick_8">
     <g id="line2d_15">
      <path clip-path="url(#p313374274c)" d="M 408.51 448.56 
L 408.51 60.48 
" style="fill:none;stroke:#b0b0b0;stroke-linecap:square;stroke-width:0.8;"/>
     </g>
     <g id="line2d_16">
      <g>
       <use style="stroke:#000000;stroke-width:0.8;" x="408.51" xlink:href="#m6cc5c9c1af" y="448.56"/>
      </g>
     </g>
     <g id="text_8">
      <!-- 0.7 -->
      <defs>
       <path d="M 8.203125 72.90625 
L 55.078125 72.90625 
L 55.078125 68.703125 
L 28.609375 0 
L 18.3125 0 
L 43.21875 64.59375 
L 8.203125 64.59375 
z
" id="DejaVuSans-55"/>
      </defs>
      <g transform="translate(400.558438 463.158437)scale(0.1 -0.1)">
       <use xlink:href="#DejaVuSans-48"/>
       <use x="63.623047" xlink:href="#DejaVuSans-46"/>
       <use x="95.410156" xlink:href="#DejaVuSans-55"/>
      </g>
     </g>
    </g>
    <g id="xtick_9">
     <g id="line2d_17">
      <path clip-path="url(#p313374274c)" d="M 455.94 448.56 
L 455.94 60.48 
" style="fill:none;stroke:#b0b0b0;stroke-linecap:square;stroke-width:0.8;"/>
     </g>
     <g id="line2d_18">
      <g>
       <use style="stroke:#000000;stroke-width:0.8;" x="455.94" xlink:href="#m6cc5c9c1af" y="448.56"/>
      </g>
     </g>
     <g id="text_9">
      <!-- 0.8 -->
      <defs>
       <path d="M 31.78125 34.625 
Q 24.75 34.625 20.71875 30.859375 
Q 16.703125 27.09375 16.703125 20.515625 
Q 16.703125 13.921875 20.71875 10.15625 
Q 24.75 6.390625 31.78125 6.390625 
Q 38.8125 6.390625 42.859375 10.171875 
Q 46.921875 13.96875 46.921875 20.515625 
Q 46.921875 27.09375 42.890625 30.859375 
Q 38.875 34.625 31.78125 34.625 
z
M 21.921875 38.8125 
Q 15.578125 40.375 12.03125 44.71875 
Q 8.5 49.078125 8.5 55.328125 
Q 8.5 64.0625 14.71875 69.140625 
Q 20.953125 74.21875 31.78125 74.21875 
Q 42.671875 74.21875 48.875 69.140625 
Q 55.078125 64.0625 55.078125 55.328125 
Q 55.078125 49.078125 51.53125 44.71875 
Q 48 40.375 41.703125 38.8125 
Q 48.828125 37.15625 52.796875 32.3125 
Q 56.78125 27.484375 56.78125 20.515625 
Q 56.78125 9.90625 50.3125 4.234375 
Q 43.84375 -1.421875 31.78125 -1.421875 
Q 19.734375 -1.421875 13.25 4.234375 
Q 6.78125 9.90625 6.78125 20.515625 
Q 6.78125 27.484375 10.78125 32.3125 
Q 14.796875 37.15625 21.921875 38.8125 
z
M 18.3125 54.390625 
Q 18.3125 48.734375 21.84375 45.5625 
Q 25.390625 42.390625 31.78125 42.390625 
Q 38.140625 42.390625 41.71875 45.5625 
Q 45.3125 48.734375 45.3125 54.390625 
Q 45.3125 60.0625 41.71875 63.234375 
Q 38.140625 66.40625 31.78125 66.40625 
Q 25.390625 66.40625 21.84375 63.234375 
Q 18.3125 60.0625 18.3125 54.390625 
z
" id="DejaVuSans-56"/>
      </defs>
      <g transform="translate(447.988438 463.158437)scale(0.1 -0.1)">
       <use xlink:href="#DejaVuSans-48"/>
       <use x="63.623047" xlink:href="#DejaVuSans-46"/>
       <use x="95.410156" xlink:href="#DejaVuSans-56"/>
      </g>
     </g>
    </g>
    <g id="xtick_10">
     <g id="line2d_19">
      <path clip-path="url(#p313374274c)" d="M 503.37 448.56 
L 503.37 60.48 
" style="fill:none;stroke:#b0b0b0;stroke-linecap:square;stroke-width:0.8;"/>
     </g>
     <g id="line2d_20">
      <g>
       <use style="stroke:#000000;stroke-width:0.8;" x="503.37" xlink:href="#m6cc5c9c1af" y="448.56"/>
      </g>
     </g>
     <g id="text_10">
      <!-- 0.9 -->
      <defs>
       <path d="M 10.984375 1.515625 
L 10.984375 10.5 
Q 14.703125 8.734375 18.5 7.8125 
Q 22.3125 6.890625 25.984375 6.890625 
Q 35.75 6.890625 40.890625 13.453125 
Q 46.046875 20.015625 46.78125 33.40625 
Q 43.953125 29.203125 39.59375 26.953125 
Q 35.25 24.703125 29.984375 24.703125 
Q 19.046875 24.703125 12.671875 31.3125 
Q 6.296875 37.9375 6.296875 49.421875 
Q 6.296875 60.640625 12.9375 67.421875 
Q 19.578125 74.21875 30.609375 74.21875 
Q 43.265625 74.21875 49.921875 64.515625 
Q 56.59375 54.828125 56.59375 36.375 
Q 56.59375 19.140625 48.40625 8.859375 
Q 40.234375 -1.421875 26.421875 -1.421875 
Q 22.703125 -1.421875 18.890625 -0.6875 
Q 15.09375 0.046875 10.984375 1.515625 
z
M 30.609375 32.421875 
Q 37.25 32.421875 41.125 36.953125 
Q 45.015625 41.5 45.015625 49.421875 
Q 45.015625 57.28125 41.125 61.84375 
Q 37.25 66.40625 30.609375 66.40625 
Q 23.96875 66.40625 20.09375 61.84375 
Q 16.21875 57.28125 16.21875 49.421875 
Q 16.21875 41.5 20.09375 36.953125 
Q 23.96875 32.421875 30.609375 32.421875 
z
" id="DejaVuSans-57"/>
      </defs>
      <g transform="translate(495.418438 463.158437)scale(0.1 -0.1)">
       <use xlink:href="#DejaVuSans-48"/>
       <use x="63.623047" xlink:href="#DejaVuSans-46"/>
       <use x="95.410156" xlink:href="#DejaVuSans-57"/>
      </g>
     </g>
    </g>
    <g id="xtick_11">
     <g id="line2d_21">
      <path clip-path="url(#p313374274c)" d="M 550.8 448.56 
L 550.8 60.48 
" style="fill:none;stroke:#b0b0b0;stroke-linecap:square;stroke-width:0.8;"/>
     </g>
     <g id="line2d_22">
      <g>
       <use style="stroke:#000000;stroke-width:0.8;" x="550.8" xlink:href="#m6cc5c9c1af" y="448.56"/>
      </g>
     </g>
     <g id="text_11">
      <!-- 1.0 -->
      <g transform="translate(542.848438 463.158437)scale(0.1 -0.1)">
       <use xlink:href="#DejaVuSans-49"/>
       <use x="63.623047" xlink:href="#DejaVuSans-46"/>
       <use x="95.410156" xlink:href="#DejaVuSans-48"/>
      </g>
     </g>
    </g>
    <g id="text_12">
     <!-- 1-precision -->
     <defs>
      <path d="M 4.890625 31.390625 
L 31.203125 31.390625 
L 31.203125 23.390625 
L 4.890625 23.390625 
z
" id="DejaVuSans-45"/>
      <path d="M 18.109375 8.203125 
L 18.109375 -20.796875 
L 9.078125 -20.796875 
L 9.078125 54.6875 
L 18.109375 54.6875 
L 18.109375 46.390625 
Q 20.953125 51.265625 25.265625 53.625 
Q 29.59375 56 35.59375 56 
Q 45.5625 56 51.78125 48.09375 
Q 58.015625 40.1875 58.015625 27.296875 
Q 58.015625 14.40625 51.78125 6.484375 
Q 45.5625 -1.421875 35.59375 -1.421875 
Q 29.59375 -1.421875 25.265625 0.953125 
Q 20.953125 3.328125 18.109375 8.203125 
z
M 48.6875 27.296875 
Q 48.6875 37.203125 44.609375 42.84375 
Q 40.53125 48.484375 33.40625 48.484375 
Q 26.265625 48.484375 22.1875 42.84375 
Q 18.109375 37.203125 18.109375 27.296875 
Q 18.109375 17.390625 22.1875 11.75 
Q 26.265625 6.109375 33.40625 6.109375 
Q 40.53125 6.109375 44.609375 11.75 
Q 48.6875 17.390625 48.6875 27.296875 
z
" id="DejaVuSans-112"/>
      <path d="M 41.109375 46.296875 
Q 39.59375 47.171875 37.8125 47.578125 
Q 36.03125 48 33.890625 48 
Q 26.265625 48 22.1875 43.046875 
Q 18.109375 38.09375 18.109375 28.8125 
L 18.109375 0 
L 9.078125 0 
L 9.078125 54.6875 
L 18.109375 54.6875 
L 18.109375 46.1875 
Q 20.953125 51.171875 25.484375 53.578125 
Q 30.03125 56 36.53125 56 
Q 37.453125 56 38.578125 55.875 
Q 39.703125 55.765625 41.0625 55.515625 
z
" id="DejaVuSans-114"/>
      <path d="M 56.203125 29.59375 
L 56.203125 25.203125 
L 14.890625 25.203125 
Q 15.484375 15.921875 20.484375 11.0625 
Q 25.484375 6.203125 34.421875 6.203125 
Q 39.59375 6.203125 44.453125 7.46875 
Q 49.3125 8.734375 54.109375 11.28125 
L 54.109375 2.78125 
Q 49.265625 0.734375 44.1875 -0.34375 
Q 39.109375 -1.421875 33.890625 -1.421875 
Q 20.796875 -1.421875 13.15625 6.1875 
Q 5.515625 13.8125 5.515625 26.8125 
Q 5.515625 40.234375 12.765625 48.109375 
Q 20.015625 56 32.328125 56 
Q 43.359375 56 49.78125 48.890625 
Q 56.203125 41.796875 56.203125 29.59375 
z
M 47.21875 32.234375 
Q 47.125 39.59375 43.09375 43.984375 
Q 39.0625 48.390625 32.421875 48.390625 
Q 24.90625 48.390625 20.390625 44.140625 
Q 15.875 39.890625 15.1875 32.171875 
z
" id="DejaVuSans-101"/>
      <path d="M 48.78125 52.59375 
L 48.78125 44.1875 
Q 44.96875 46.296875 41.140625 47.34375 
Q 37.3125 48.390625 33.40625 48.390625 
Q 24.65625 48.390625 19.8125 42.84375 
Q 14.984375 37.3125 14.984375 27.296875 
Q 14.984375 17.28125 19.8125 11.734375 
Q 24.65625 6.203125 33.40625 6.203125 
Q 37.3125 6.203125 41.140625 7.25 
Q 44.96875 8.296875 48.78125 10.40625 
L 48.78125 2.09375 
Q 45.015625 0.34375 40.984375 -0.53125 
Q 36.96875 -1.421875 32.421875 -1.421875 
Q 20.0625 -1.421875 12.78125 6.34375 
Q 5.515625 14.109375 5.515625 27.296875 
Q 5.515625 40.671875 12.859375 48.328125 
Q 20.21875 56 33.015625 56 
Q 37.15625 56 41.109375 55.140625 
Q 45.0625 54.296875 48.78125 52.59375 
z
" id="DejaVuSans-99"/>
      <path d="M 9.421875 54.6875 
L 18.40625 54.6875 
L 18.40625 0 
L 9.421875 0 
z
M 9.421875 75.984375 
L 18.40625 75.984375 
L 18.40625 64.59375 
L 9.421875 64.59375 
z
" id="DejaVuSans-105"/>
      <path d="M 44.28125 53.078125 
L 44.28125 44.578125 
Q 40.484375 46.53125 36.375 47.5 
Q 32.28125 48.484375 27.875 48.484375 
Q 21.1875 48.484375 17.84375 46.4375 
Q 14.5 44.390625 14.5 40.28125 
Q 14.5 37.15625 16.890625 35.375 
Q 19.28125 33.59375 26.515625 31.984375 
L 29.59375 31.296875 
Q 39.15625 29.25 43.1875 25.515625 
Q 47.21875 21.78125 47.21875 15.09375 
Q 47.21875 7.46875 41.1875 3.015625 
Q 35.15625 -1.421875 24.609375 -1.421875 
Q 20.21875 -1.421875 15.453125 -0.5625 
Q 10.6875 0.296875 5.421875 2 
L 5.421875 11.28125 
Q 10.40625 8.6875 15.234375 7.390625 
Q 20.0625 6.109375 24.8125 6.109375 
Q 31.15625 6.109375 34.5625 8.28125 
Q 37.984375 10.453125 37.984375 14.40625 
Q 37.984375 18.0625 35.515625 20.015625 
Q 33.0625 21.96875 24.703125 23.78125 
L 21.578125 24.515625 
Q 13.234375 26.265625 9.515625 29.90625 
Q 5.8125 33.546875 5.8125 39.890625 
Q 5.8125 47.609375 11.28125 51.796875 
Q 16.75 56 26.8125 56 
Q 31.78125 56 36.171875 55.265625 
Q 40.578125 54.546875 44.28125 53.078125 
z
" id="DejaVuSans-115"/>
      <path d="M 30.609375 48.390625 
Q 23.390625 48.390625 19.1875 42.75 
Q 14.984375 37.109375 14.984375 27.296875 
Q 14.984375 17.484375 19.15625 11.84375 
Q 23.34375 6.203125 30.609375 6.203125 
Q 37.796875 6.203125 41.984375 11.859375 
Q 46.1875 17.53125 46.1875 27.296875 
Q 46.1875 37.015625 41.984375 42.703125 
Q 37.796875 48.390625 30.609375 48.390625 
z
M 30.609375 56 
Q 42.328125 56 49.015625 48.375 
Q 55.71875 40.765625 55.71875 27.296875 
Q 55.71875 13.875 49.015625 6.21875 
Q 42.328125 -1.421875 30.609375 -1.421875 
Q 18.84375 -1.421875 12.171875 6.21875 
Q 5.515625 13.875 5.515625 27.296875 
Q 5.515625 40.765625 12.171875 48.375 
Q 18.84375 56 30.609375 56 
z
" id="DejaVuSans-111"/>
      <path d="M 54.890625 33.015625 
L 54.890625 0 
L 45.90625 0 
L 45.90625 32.71875 
Q 45.90625 40.484375 42.875 44.328125 
Q 39.84375 48.1875 33.796875 48.1875 
Q 26.515625 48.1875 22.3125 43.546875 
Q 18.109375 38.921875 18.109375 30.90625 
L 18.109375 0 
L 9.078125 0 
L 9.078125 54.6875 
L 18.109375 54.6875 
L 18.109375 46.1875 
Q 21.34375 51.125 25.703125 53.5625 
Q 30.078125 56 35.796875 56 
Q 45.21875 56 50.046875 50.171875 
Q 54.890625 44.34375 54.890625 33.015625 
z
" id="DejaVuSans-110"/>
     </defs>
     <g transform="translate(286.110938 476.836563)scale(0.1 -0.1)">
      <use xlink:href="#DejaVuSans-49"/>
      <use x="63.623047" xlink:href="#DejaVuSans-45"/>
      <use x="99.707031" xlink:href="#DejaVuSans-112"/>
      <use x="163.183594" xlink:href="#DejaVuSans-114"/>
      <use x="202.046875" xlink:href="#DejaVuSans-101"/>
      <use x="263.570312" xlink:href="#DejaVuSans-99"/>
      <use x="318.550781" xlink:href="#DejaVuSans-105"/>
      <use x="346.333984" xlink:href="#DejaVuSans-115"/>
      <use x="398.433594" xlink:href="#DejaVuSans-105"/>
      <use x="426.216797" xlink:href="#DejaVuSans-111"/>
      <use x="487.398438" xlink:href="#DejaVuSans-110"/>
     </g>
    </g>
   </g>
   <g id="matplotlib.axis_2">
    <g id="ytick_1">
     <g id="line2d_23">
      <path clip-path="url(#p313374274c)" d="M 76.5 448.56 
L 550.8 448.56 
" style="fill:none;stroke:#b0b0b0;stroke-linecap:square;stroke-width:0.8;"/>
     </g>
     <g id="line2d_24">
      <defs>
       <path d="M 0 0 
L -3.5 0 
" id="mcce376a84d" style="stroke:#000000;stroke-width:0.8;"/>
      </defs>
      <g>
       <use style="stroke:#000000;stroke-width:0.8;" x="76.5" xlink:href="#mcce376a84d" y="448.56"/>
      </g>
     </g>
     <g id="text_13">
      <!-- 0.0 -->
      <g transform="translate(53.596875 452.359219)scale(0.1 -0.1)">
       <use xlink:href="#DejaVuSans-48"/>
       <use x="63.623047" xlink:href="#DejaVuSans-46"/>
       <use x="95.410156" xlink:href="#DejaVuSans-48"/>
      </g>
     </g>
    </g>
    <g id="ytick_2">
     <g id="line2d_25">
      <path clip-path="url(#p313374274c)" d="M 76.5 409.752 
L 550.8 409.752 
" style="fill:none;stroke:#b0b0b0;stroke-linecap:square;stroke-width:0.8;"/>
     </g>
     <g id="line2d_26">
      <g>
       <use style="stroke:#000000;stroke-width:0.8;" x="76.5" xlink:href="#mcce376a84d" y="409.752"/>
      </g>
     </g>
     <g id="text_14">
      <!-- 0.1 -->
      <g transform="translate(53.596875 413.551219)scale(0.1 -0.1)">
       <use xlink:href="#DejaVuSans-48"/>
       <use x="63.623047" xlink:href="#DejaVuSans-46"/>
       <use x="95.410156" xlink:href="#DejaVuSans-49"/>
      </g>
     </g>
    </g>
    <g id="ytick_3">
     <g id="line2d_27">
      <path clip-path="url(#p313374274c)" d="M 76.5 370.944 
L 550.8 370.944 
" style="fill:none;stroke:#b0b0b0;stroke-linecap:square;stroke-width:0.8;"/>
     </g>
     <g id="line2d_28">
      <g>
       <use style="stroke:#000000;stroke-width:0.8;" x="76.5" xlink:href="#mcce376a84d" y="370.944"/>
      </g>
     </g>
     <g id="text_15">
      <!-- 0.2 -->
      <g transform="translate(53.596875 374.743219)scale(0.1 -0.1)">
       <use xlink:href="#DejaVuSans-48"/>
       <use x="63.623047" xlink:href="#DejaVuSans-46"/>
       <use x="95.410156" xlink:href="#DejaVuSans-50"/>
      </g>
     </g>
    </g>
    <g id="ytick_4">
     <g id="line2d_29">
      <path clip-path="url(#p313374274c)" d="M 76.5 332.136 
L 550.8 332.136 
" style="fill:none;stroke:#b0b0b0;stroke-linecap:square;stroke-width:0.8;"/>
     </g>
     <g id="line2d_30">
      <g>
       <use style="stroke:#000000;stroke-width:0.8;" x="76.5" xlink:href="#mcce376a84d" y="332.136"/>
      </g>
     </g>
     <g id="text_16">
      <!-- 0.3 -->
      <g transform="translate(53.596875 335.935219)scale(0.1 -0.1)">
       <use xlink:href="#DejaVuSans-48"/>
       <use x="63.623047" xlink:href="#DejaVuSans-46"/>
       <use x="95.410156" xlink:href="#DejaVuSans-51"/>
      </g>
     </g>
    </g>
    <g id="ytick_5">
     <g id="line2d_31">
      <path clip-path="url(#p313374274c)" d="M 76.5 293.328 
L 550.8 293.328 
" style="fill:none;stroke:#b0b0b0;stroke-linecap:square;stroke-width:0.8;"/>
     </g>
     <g id="line2d_32">
      <g>
       <use style="stroke:#000000;stroke-width:0.8;" x="76.5" xlink:href="#mcce376a84d" y="293.328"/>
      </g>
     </g>
     <g id="text_17">
      <!-- 0.4 -->
      <g transform="translate(53.596875 297.127219)scale(0.1 -0.1)">
       <use xlink:href="#DejaVuSans-48"/>
       <use x="63.623047" xlink:href="#DejaVuSans-46"/>
       <use x="95.410156" xlink:href="#DejaVuSans-52"/>
      </g>
     </g>
    </g>
    <g id="ytick_6">
     <g id="line2d_33">
      <path clip-path="url(#p313374274c)" d="M 76.5 254.52 
L 550.8 254.52 
" style="fill:none;stroke:#b0b0b0;stroke-linecap:square;stroke-width:0.8;"/>
     </g>
     <g id="line2d_34">
      <g>
       <use style="stroke:#000000;stroke-width:0.8;" x="76.5" xlink:href="#mcce376a84d" y="254.52"/>
      </g>
     </g>
     <g id="text_18">
      <!-- 0.5 -->
      <g transform="translate(53.596875 258.319219)scale(0.1 -0.1)">
       <use xlink:href="#DejaVuSans-48"/>
       <use x="63.623047" xlink:href="#DejaVuSans-46"/>
       <use x="95.410156" xlink:href="#DejaVuSans-53"/>
      </g>
     </g>
    </g>
    <g id="ytick_7">
     <g id="line2d_35">
      <path clip-path="url(#p313374274c)" d="M 76.5 215.712 
L 550.8 215.712 
" style="fill:none;stroke:#b0b0b0;stroke-linecap:square;stroke-width:0.8;"/>
     </g>
     <g id="line2d_36">
      <g>
       <use style="stroke:#000000;stroke-width:0.8;" x="76.5" xlink:href="#mcce376a84d" y="215.712"/>
      </g>
     </g>
     <g id="text_19">
      <!-- 0.6 -->
      <g transform="translate(53.596875 219.511219)scale(0.1 -0.1)">
       <use xlink:href="#DejaVuSans-48"/>
       <use x="63.623047" xlink:href="#DejaVuSans-46"/>
       <use x="95.410156" xlink:href="#DejaVuSans-54"/>
      </g>
     </g>
    </g>
    <g id="ytick_8">
     <g id="line2d_37">
      <path clip-path="url(#p313374274c)" d="M 76.5 176.904 
L 550.8 176.904 
" style="fill:none;stroke:#b0b0b0;stroke-linecap:square;stroke-width:0.8;"/>
     </g>
     <g id="line2d_38">
      <g>
       <use style="stroke:#000000;stroke-width:0.8;" x="76.5" xlink:href="#mcce376a84d" y="176.904"/>
      </g>
     </g>
     <g id="text_20">
      <!-- 0.7 -->
      <g transform="translate(53.596875 180.703219)scale(0.1 -0.1)">
       <use xlink:href="#DejaVuSans-48"/>
       <use x="63.623047" xlink:href="#DejaVuSans-46"/>
       <use x="95.410156" xlink:href="#DejaVuSans-55"/>
      </g>
     </g>
    </g>
    <g id="ytick_9">
     <g id="line2d_39">
      <path clip-path="url(#p313374274c)" d="M 76.5 138.096 
L 550.8 138.096 
" style="fill:none;stroke:#b0b0b0;stroke-linecap:square;stroke-width:0.8;"/>
     </g>
     <g id="line2d_40">
      <g>
       <use style="stroke:#000000;stroke-width:0.8;" x="76.5" xlink:href="#mcce376a84d" y="138.096"/>
      </g>
     </g>
     <g id="text_21">
      <!-- 0.8 -->
      <g transform="translate(53.596875 141.895219)scale(0.1 -0.1)">
       <use xlink:href="#DejaVuSans-48"/>
       <use x="63.623047" xlink:href="#DejaVuSans-46"/>
       <use x="95.410156" xlink:href="#DejaVuSans-56"/>
      </g>
     </g>
    </g>
    <g id="ytick_10">
     <g id="line2d_41">
      <path clip-path="url(#p313374274c)" d="M 76.5 99.288 
L 550.8 99.288 
" style="fill:none;stroke:#b0b0b0;stroke-linecap:square;stroke-width:0.8;"/>
     </g>
     <g id="line2d_42">
      <g>
       <use style="stroke:#000000;stroke-width:0.8;" x="76.5" xlink:href="#mcce376a84d" y="99.288"/>
      </g>
     </g>
     <g id="text_22">
      <!-- 0.9 -->
      <g transform="translate(53.596875 103.087219)scale(0.1 -0.1)">
       <use xlink:href="#DejaVuSans-48"/>
       <use x="63.623047" xlink:href="#DejaVuSans-46"/>
       <use x="95.410156" xlink:href="#DejaVuSans-57"/>
      </g>
     </g>
    </g>
    <g id="ytick_11">
     <g id="line2d_43">
      <path clip-path="url(#p313374274c)" d="M 76.5 60.48 
L 550.8 60.48 
" style="fill:none;stroke:#b0b0b0;stroke-linecap:square;stroke-width:0.8;"/>
     </g>
     <g id="line2d_44">
      <g>
       <use style="stroke:#000000;stroke-width:0.8;" x="76.5" xlink:href="#mcce376a84d" y="60.48"/>
      </g>
     </g>
     <g id="text_23">
      <!-- 1.0 -->
      <g transform="translate(53.596875 64.279219)scale(0.1 -0.1)">
       <use xlink:href="#DejaVuSans-49"/>
       <use x="63.623047" xlink:href="#DejaVuSans-46"/>
       <use x="95.410156" xlink:href="#DejaVuSans-48"/>
      </g>
     </g>
    </g>
    <g id="text_24">
     <!-- #correct/873 -->
     <defs>
      <path d="M 51.125 44 
L 36.921875 44 
L 32.8125 27.6875 
L 47.125 27.6875 
z
M 43.796875 71.78125 
L 38.71875 51.515625 
L 52.984375 51.515625 
L 58.109375 71.78125 
L 65.921875 71.78125 
L 60.890625 51.515625 
L 76.125 51.515625 
L 76.125 44 
L 58.984375 44 
L 54.984375 27.6875 
L 70.515625 27.6875 
L 70.515625 20.21875 
L 53.078125 20.21875 
L 48 0 
L 40.1875 0 
L 45.21875 20.21875 
L 30.90625 20.21875 
L 25.875 0 
L 18.015625 0 
L 23.09375 20.21875 
L 7.71875 20.21875 
L 7.71875 27.6875 
L 24.90625 27.6875 
L 29 44 
L 13.28125 44 
L 13.28125 51.515625 
L 30.90625 51.515625 
L 35.890625 71.78125 
z
" id="DejaVuSans-35"/>
      <path d="M 18.3125 70.21875 
L 18.3125 54.6875 
L 36.8125 54.6875 
L 36.8125 47.703125 
L 18.3125 47.703125 
L 18.3125 18.015625 
Q 18.3125 11.328125 20.140625 9.421875 
Q 21.96875 7.515625 27.59375 7.515625 
L 36.8125 7.515625 
L 36.8125 0 
L 27.59375 0 
Q 17.1875 0 13.234375 3.875 
Q 9.28125 7.765625 9.28125 18.015625 
L 9.28125 47.703125 
L 2.6875 47.703125 
L 2.6875 54.6875 
L 9.28125 54.6875 
L 9.28125 70.21875 
z
" id="DejaVuSans-116"/>
      <path d="M 25.390625 72.90625 
L 33.6875 72.90625 
L 8.296875 -9.28125 
L 0 -9.28125 
z
" id="DejaVuSans-47"/>
     </defs>
     <g transform="translate(47.517187 287.443438)rotate(-90)scale(0.1 -0.1)">
      <use xlink:href="#DejaVuSans-35"/>
      <use x="83.789062" xlink:href="#DejaVuSans-99"/>
      <use x="138.769531" xlink:href="#DejaVuSans-111"/>
      <use x="199.951172" xlink:href="#DejaVuSans-114"/>
      <use x="239.314453" xlink:href="#DejaVuSans-114"/>
      <use x="278.177734" xlink:href="#DejaVuSans-101"/>
      <use x="339.701172" xlink:href="#DejaVuSans-99"/>
      <use x="394.681641" xlink:href="#DejaVuSans-116"/>
      <use x="433.890625" xlink:href="#DejaVuSans-47"/>
      <use x="467.582031" xlink:href="#DejaVuSans-56"/>
      <use x="531.205078" xlink:href="#DejaVuSans-55"/>
      <use x="594.828125" xlink:href="#DejaVuSans-51"/>
     </g>
    </g>
   </g>
   <g id="line2d_45">
    <path clip-path="url(#p313374274c)" d="M 76.5 448.115464 
L 76.5 292.972371 
L 77.851282 292.972371 
L 77.751451 280.525361 
L 78.996316 280.525361 
L 78.932308 276.08 
L 82.534351 276.08 
L 82.214458 266.300206 
L 83.340865 266.300206 
L 83.275714 264.522062 
L 84.386223 264.522062 
L 84.367536 264.077526 
L 85.470213 264.077526 
L 85.365421 261.854845 
L 86.45035 261.854845 
L 86.028348 253.40866 
L 87.063474 253.40866 
L 86.279381 237.405361 
L 88.187064 237.405361 
L 88.068293 235.18268 
L 89.006897 235.18268 
L 88.856513 232.515464 
L 89.7804 232.515464 
L 89.622925 229.848247 
L 90.532544 229.848247 
L 90.181731 224.069278 
L 91.065835 224.069278 
L 90.818491 220.068454 
L 92.547744 220.068454 
L 92.022545 212.066804 
L 93.684783 212.066804 
L 93.289381 206.287835 
L 94.097703 206.287835 
L 93.381864 195.618969 
L 94.155838 195.618969 
L 93.63399 187.61732 
L 95.130442 187.61732 
L 94.86 183.616495 
L 96.326045 183.616495 
L 96.136624 180.949278 
L 96.859459 180.949278 
L 96.794929 180.060206 
L 97.513291 180.060206 
L 97.283099 176.948454 
L 97.991719 176.948454 
L 97.825116 174.725773 
L 99.225348 174.725773 
L 99.085714 172.947629 
L 99.778528 172.947629 
L 99.742879 172.503093 
L 100.432569 172.503093 
L 100.359604 171.614021 
L 101.045205 171.614021 
L 101.007903 171.169485 
L 101.69044 171.169485 
L 101.313901 166.724124 
L 101.984776 166.724124 
L 101.61 162.278763 
L 102.269604 162.278763 
L 102.081778 160.056082 
L 102.734934 160.056082 
L 102.545376 157.833402 
L 103.192208 157.833402 
L 103.153746 157.388866 
L 103.797842 157.388866 
L 103.719512 156.499794 
L 104.998712 156.499794 
L 104.876923 155.166186 
L 105.511238 155.166186 
L 105.470028 154.721649 
L 106.101702 154.721649 
L 106.017963 153.832577 
L 107.272638 153.832577 
L 107.229296 153.388041 
L 108.475281 153.388041 
L 108.252301 151.165361 
L 108.868663 151.165361 
L 108.689335 149.387216 
L 109.30083 149.387216 
L 109.255525 148.94268 
L 109.864552 148.94268 
L 109.681481 147.164536 
L 110.285753 147.164536 
L 110.193443 146.275464 
L 111.394005 146.275464 
L 111.111081 143.608247 
L 112.886406 143.608247 
L 112.74008 142.274639 
L 113.911364 142.274639 
L 113.712367 140.496495 
L 114.871751 140.496495 
L 114.719683 139.162887 
L 115.294987 139.162887 
L 115.192895 138.273814 
L 115.765309 138.273814 
L 115.611126 136.940206 
L 116.747389 136.940206 
L 116.694915 136.49567 
L 117.260156 136.49567 
L 117.207152 136.051134 
L 119.450841 136.051134 
L 119.395349 135.606598 
L 121.061004 135.606598 
L 120.946598 134.717526 
L 123.68801 134.717526 
L 123.567939 133.828454 
L 124.652284 133.828454 
L 124.591255 133.383918 
L 125.6689 133.383918 
L 125.606818 132.939381 
L 126.677834 132.939381 
L 126.551759 132.050309 
L 127.084065 132.050309 
L 126.957447 131.161237 
L 129.068742 131.161237 
L 128.938137 130.272165 
L 129.461538 130.272165 
L 129.395911 129.827629 
L 130.437701 129.827629 
L 130.172325 128.049485 
L 130.689066 128.049485 
L 130.622577 127.604948 
L 131.1375 127.604948 
L 131.070624 127.160412 
L 131.583741 127.160412 
L 131.516484 126.715876 
L 133.046715 126.715876 
L 132.909466 125.826804 
L 134.928261 125.826804 
L 134.577551 123.604124 
L 136.071172 123.604124 
L 136 123.159588 
L 136.988796 123.159588 
L 136.773278 121.825979 
L 137.754384 121.825979 
L 137.681893 121.381443 
L 138.170213 121.381443 
L 138.097403 120.936907 
L 138.58408 120.936907 
L 138.510954 120.492371 
L 139.479906 120.492371 
L 139.405986 120.047835 
L 141.328388 120.047835 
L 141.252742 119.603299 
L 141.73007 119.603299 
L 141.578372 118.714227 
L 143.943815 118.714227 
L 143.865935 118.269691 
L 146.201952 118.269691 
L 146.042268 117.380619 
L 146.505378 117.380619 
L 146.425371 116.936082 
L 146.886986 116.936082 
L 146.806727 116.491546 
L 147.266856 116.491546 
L 147.186348 116.04701 
L 148.102611 116.04701 
L 148.021429 115.602474 
L 150.291883 115.602474 
L 150.208784 115.157938 
L 151.108989 115.157938 
L 151.025253 114.713402 
L 151.920605 114.713402 
L 151.836242 114.268866 
L 152.726786 114.268866 
L 152.557016 113.379794 
L 153.442 113.379794 
L 153.356604 112.935258 
L 154.675553 112.935258 
L 154.589171 112.490722 
L 155.02649 112.490722 
L 154.939912 112.046186 
L 156.678046 112.046186 
L 156.590132 111.601649 
L 157.882623 111.601649 
L 157.793777 111.157113 
L 158.222356 111.157113 
L 158.133333 110.712577 
L 160.683117 110.712577 
L 160.592108 110.268041 
L 161.853556 110.268041 
L 161.761679 109.823505 
L 162.597422 109.823505 
L 162.505043 109.378969 
L 165.399681 109.378969 
L 165.305106 108.934433 
L 165.714772 108.934433 
L 165.525557 108.045361 
L 165.933686 108.045361 
L 165.839048 107.600825 
L 167.865158 107.600825 
L 167.769085 107.156289 
L 168.572928 107.156289 
L 168.476415 106.711753 
L 171.655821 106.711753 
L 171.557009 106.267216 
L 173.12575 106.267216 
L 173.02593 105.82268 
L 175.35308 105.82268 
L 175.049539 104.489072 
L 179.608696 104.489072 
L 179.504545 104.044536 
L 180.998692 104.044536 
L 180.893668 103.6 
L 182.7432 103.6 
L 182.637063 103.155464 
L 183.737151 103.155464 
L 183.523956 102.266392 
L 187.49646 102.266392 
L 187.387426 101.821856 
L 188.1 101.821856 
L 187.990695 101.37732 
L 189.406537 101.37732 
L 189.296491 100.932784 
L 190.350437 100.932784 
L 190.239903 100.488247 
L 190.938663 100.488247 
L 190.82788 100.043711 
L 193.937044 100.043711 
L 193.824449 99.599175 
L 194.166379 99.599175 
L 193.941396 98.710103 
L 200.964855 98.710103 
L 200.848315 98.265567 
L 202.803352 98.265567 
L 202.68586 97.821031 
L 207.791109 97.821031 
L 207.670879 97.376495 
L 208.610959 97.376495 
L 208.49042 96.931959 
L 212.503066 96.931959 
L 212.380541 96.487423 
L 216.29813 96.487423 
L 216.173754 96.042887 
L 217.360372 96.042887 
L 217.235607 95.598351 
L 218.413239 95.598351 
L 218.288095 95.153814 
L 220.906299 95.153814 
L 220.78007 94.709278 
L 222.216188 94.709278 
L 222.089478 94.264742 
L 223.512468 94.264742 
L 223.385294 93.820206 
L 223.66828 93.820206 
L 223.541192 93.37567 
L 224.386822 93.37567 
L 224.259552 92.931134 
L 227.321739 92.931134 
L 227.193271 92.486598 
L 232.347108 92.486598 
L 232.216583 92.042062 
L 234.6 92.042062 
L 234.468688 91.597526 
L 236.815746 91.597526 
L 236.68369 91.15299 
L 243.517808 91.15299 
L 243.383333 90.708454 
L 244.615958 90.708454 
L 244.48125 90.263918 
L 248.597787 90.263918 
L 248.461848 89.819381 
L 248.700474 89.819381 
L 248.564669 89.374845 
L 256.908589 89.374845 
L 256.770345 88.930309 
L 259.22804 88.930309 
L 259.089294 88.485773 
L 264.949554 88.485773 
L 264.809442 88.041237 
L 274.465733 88.041237 
L 274.323618 87.596701 
L 274.72 87.596701 
L 274.578009 87.152165 
L 276.347402 87.152165 
L 276.205263 86.707629 
L 286.723256 86.707629 
L 286.579563 86.263093 
L 294.464125 86.263093 
L 294.319682 85.818557 
L 306.309286 85.818557 
L 306.164205 85.374021 
L 306.626654 85.374021 
L 306.481738 84.929485 
L 326.276042 84.929485 
L 326.276042 84.929485 
" style="fill:none;stroke:#1f77b4;stroke-linecap:square;stroke-width:2;"/>
   </g>
   <g id="line2d_46">
    <path clip-path="url(#p313374274c)" d="M 76.5 448.115464 
L 76.5 396.104742 
L 80.485714 396.104742 
L 80.205469 392.103918 
L 83.853488 392.103918 
L 83.526667 389.436701 
L 86.9625 389.436701 
L 85.923179 382.76866 
L 85.020359 375.656082 
L 90.532544 375.656082 
L 90.287791 374.322474 
L 92.949711 374.322474 
L 92.669318 372.988866 
L 95.257627 372.988866 
L 95.048045 372.099794 
L 97.58 372.099794 
L 97.01027 369.877113 
L 99.45 369.877113 
L 97.8435 363.653608 
L 96.924402 359.652784 
L 99.085714 359.652784 
L 98.978673 359.208247 
L 101.109906 359.208247 
L 100.879907 358.319175 
L 102.972558 358.319175 
L 102.608257 356.985567 
L 106.682727 356.985567 
L 105.623684 353.429278 
L 107.567686 353.429278 
L 107.298701 352.540206 
L 109.210345 352.540206 
L 109.069957 352.09567 
L 110.957692 352.09567 
L 110.521519 350.762062 
L 112.371429 350.762062 
L 110.786747 345.872165 
L 114.292829 345.872165 
L 113.7 344.094021 
L 115.407422 344.094021 
L 115.256031 343.649485 
L 116.944186 343.649485 
L 116.47931 342.315876 
L 118.137023 342.315876 
L 117.978707 341.87134 
L 119.618182 341.87134 
L 119.455472 341.426804 
L 122.686517 341.426804 
L 122.343123 340.537732 
L 123.93 340.537732 
L 123.58125 339.64866 
L 125.146154 339.64866 
L 124.968613 339.204124 
L 126.517091 339.204124 
L 125.977338 337.870515 
L 127.5 337.870515 
L 127.137011 336.981443 
L 128.639362 336.981443 
L 128.090526 335.647835 
L 129.568531 335.647835 
L 129.2 334.758763 
L 132.107586 334.758763 
L 131.916495 334.314227 
L 133.351027 334.314227 
L 132.772881 332.980619 
L 135.587879 332.980619 
L 135.389597 332.536082 
L 136.77893 332.536082 
L 135.983168 330.757938 
L 137.347697 330.757938 
L 135.7875 327.201649 
L 139.74 327.201649 
L 139.539873 326.757113 
L 140.837224 326.757113 
L 140.634906 326.312577 
L 143.198438 326.312577 
L 142.990654 325.868041 
L 146.766667 325.868041 
L 146.550462 325.423505 
L 147.790491 325.423505 
L 147.572477 324.978969 
L 150.023708 324.978969 
L 149.800909 324.534433 
L 151.012387 324.534433 
L 150.787952 324.089897 
L 151.989189 324.089897 
L 151.538507 323.200825 
L 152.726786 323.200825 
L 152.052212 321.867216 
L 157.847965 321.867216 
L 157.377746 320.978144 
L 158.511527 320.978144 
L 157.808571 319.644536 
L 160.041477 319.644536 
L 159.569492 318.755464 
L 161.767416 318.755464 
L 161.291061 317.866392 
L 164.527978 317.866392 
L 164.284807 317.421856 
L 165.349587 317.421856 
L 164.86274 316.532784 
L 166.96594 316.532784 
L 166.232432 315.199175 
L 168.3 315.199175 
L 168.053887 314.754639 
L 171.107713 314.754639 
L 169.866142 312.531959 
L 170.863351 312.531959 
L 170.128052 311.198351 
L 174.042416 311.198351 
L 173.792308 310.753814 
L 174.756522 310.753814 
L 174.505867 310.309278 
L 175.463359 310.309278 
L 175.212183 309.864742 
L 177.109091 309.864742 
L 176.855668 309.420206 
L 178.730075 309.420206 
L 178.4745 308.97567 
L 181.246154 308.97567 
L 180.728889 308.086598 
L 181.640394 308.086598 
L 181.382064 307.642062 
L 182.2875 307.642062 
L 181.771463 306.75299 
L 182.669343 306.75299 
L 182.155206 305.863918 
L 183.045652 305.863918 
L 182.788916 305.419381 
L 183.673558 305.419381 
L 183.160766 304.530309 
L 184.038186 304.530309 
L 183.021277 302.752165 
L 184.752 302.752165 
L 183.742657 300.974021 
L 184.596279 300.974021 
L 184.095833 300.084948 
L 184.942725 300.084948 
L 184.692857 299.640412 
L 185.534483 299.640412 
L 185.284404 299.195876 
L 191.87027 299.195876 
L 191.611011 298.75134 
L 192.416368 298.75134 
L 192.157047 298.306804 
L 197.686784 298.306804 
L 197.42044 297.862268 
L 198.966958 297.862268 
L 198.168261 296.52866 
L 198.933189 296.52866 
L 198.668182 296.084124 
L 199.428726 296.084124 
L 198.637339 294.750515 
L 199.391435 294.750515 
L 199.128846 294.305979 
L 199.878678 294.305979 
L 199.61617 293.861443 
L 200.361783 293.861443 
L 199.577848 292.527835 
L 200.317263 292.527835 
L 200.057143 292.083299 
L 200.792453 292.083299 
L 200.532427 291.638763 
L 201.263674 291.638763 
L 200.230435 289.860619 
L 205.238571 289.860619 
L 204.715244 288.971546 
L 205.417241 288.971546 
L 204.896364 288.082474 
L 208.3554 288.082474 
L 208.092216 287.637938 
L 212.147929 287.637938 
L 211.614931 286.748866 
L 213.602344 286.748866 
L 213.068872 285.859794 
L 213.72466 285.859794 
L 213.458721 285.415258 
L 214.761197 285.415258 
L 214.494798 284.970722 
L 217.066922 284.970722 
L 216.265209 283.637113 
L 216.9 283.637113 
L 216.105283 282.303505 
L 216.735593 282.303505 
L 216.471992 281.858969 
L 217.09925 281.858969 
L 216.051955 280.080825 
L 216.674164 280.080825 
L 216.155 279.191753 
L 216.773567 279.191753 
L 216.51476 278.747216 
L 217.130387 278.747216 
L 216.871875 278.30268 
L 218.703291 278.30268 
L 218.443796 277.858144 
L 219.652364 277.858144 
L 219.392559 277.413608 
L 219.992935 277.413608 
L 219.733454 276.969072 
L 222.7 276.969072 
L 222.438462 276.524536 
L 223.024821 276.524536 
L 222.763636 276.08 
L 225.086018 276.08 
L 224.823498 275.635464 
L 226.542179 275.635464 
L 226.278947 275.190928 
L 226.847285 275.190928 
L 226.322513 274.301856 
L 229.684974 274.301856 
L 228.633962 272.523711 
L 229.185616 272.523711 
L 228.924615 272.079175 
L 230.021295 272.079175 
L 229.5 271.190103 
L 231.128209 271.190103 
L 230.867454 270.745567 
L 231.406061 270.745567 
L 231.145714 270.301031 
L 232.216583 270.301031 
L 231.696661 269.411959 
L 235.902306 269.411959 
L 235.640132 268.967423 
L 236.673443 268.967423 
L 236.411293 268.522887 
L 238.456098 268.522887 
L 238.193182 268.078351 
L 240.21 268.078351 
L 239.946377 267.633814 
L 240.944302 267.633814 
L 240.680769 267.189278 
L 242.164593 267.189278 
L 241.900796 266.744742 
L 243.369414 266.744742 
L 243.10538 266.300206 
L 251.626154 266.300206 
L 251.357143 265.85567 
L 253.185802 265.85567 
L 252.916463 265.411134 
L 253.369863 265.411134 
L 252.299546 263.63299 
L 252.750453 263.63299 
L 252.484615 263.188454 
L 254.717515 263.188454 
L 254.451121 262.743918 
L 255.334426 262.743918 
L 255.068304 262.299381 
L 257.685398 262.299381 
L 257.418557 261.854845 
L 257.85 261.854845 
L 257.5837 261.410309 
L 260.567006 261.410309 
L 259.767873 260.076701 
L 260.607792 260.076701 
L 260.077986 259.187629 
L 261.741631 259.187629 
L 261.477 258.743093 
L 262.711664 258.743093 
L 262.447159 258.298557 
L 269.636011 258.298557 
L 269.36888 257.854021 
L 270.531818 257.854021 
L 269.998764 256.964948 
L 270.383951 256.964948 
L 270.118356 256.520412 
L 271.647956 256.520412 
L 271.382449 256.075876 
L 273.644939 256.075876 
L 273.379245 255.63134 
L 273.752624 255.63134 
L 273.4875 255.186804 
L 275.338718 255.186804 
L 275.0736 254.742268 
L 278.343083 254.742268 
L 278.0775 254.297732 
L 280.213708 254.297732 
L 279.94811 253.853196 
L 281.702332 253.853196 
L 281.436869 253.40866 
L 283.511553 253.40866 
L 283.246154 252.964124 
L 284.611224 252.964124 
L 284.346115 252.519588 
L 285.696958 252.519588 
L 285.432152 252.075052 
L 288.092481 252.075052 
L 287.82766 251.630515 
L 289.46306 251.630515 
L 289.198509 251.185979 
L 291.133909 251.185979 
L 290.869581 250.741443 
L 293.719001 250.741443 
L 293.454745 250.296907 
L 295.010641 250.296907 
L 294.746739 249.852371 
L 295.055609 249.852371 
L 294.792289 249.407835 
L 296.325269 249.407835 
L 296.062321 248.963299 
L 297.877553 248.963299 
L 297.614947 248.518763 
L 301.168421 248.518763 
L 300.905958 248.074227 
L 301.778696 248.074227 
L 301.516744 247.629691 
L 303.529412 247.629691 
L 303.267857 247.185155 
L 305.528425 247.185155 
L 305.267275 246.740619 
L 305.546925 246.740619 
L 305.286348 246.296082 
L 306.675 246.296082 
L 306.414915 245.851546 
L 308.332735 245.851546 
L 308.073124 245.40701 
L 314.167795 245.40701 
L 313.65 244.517938 
L 316.205496 244.517938 
L 315.94747 244.073402 
L 317.454545 244.073402 
L 317.197115 243.628866 
L 319.421905 243.628866 
L 318.90887 242.739794 
L 320.126786 242.739794 
L 319.871144 242.295258 
L 321.315954 242.295258 
L 321.060938 241.850722 
L 323.429381 241.850722 
L 323.175077 241.406186 
L 326.182317 241.406186 
L 325.928832 240.961649 
L 327.290313 240.961649 
L 327.0375 240.517113 
L 328.8276 240.517113 
L 328.575524 240.072577 
L 329.239542 240.072577 
L 328.98806 239.628041 
L 329.208549 239.628041 
L 328.957597 239.183505 
L 331.570069 239.183505 
L 331.32 238.738969 
L 332.177344 238.738969 
L 331.927902 238.294433 
L 334.460656 238.294433 
L 334.212139 237.849897 
L 334.628654 237.849897 
L 334.380692 237.405361 
L 335.002586 237.405361 
L 334.755215 236.960825 
L 334.961759 236.960825 
L 334.7149 236.516289 
L 335.537298 236.516289 
L 335.291065 236.071753 
L 337.119133 236.071753 
L 336.873729 235.627216 
L 337.074976 235.627216 
L 336.830075 235.18268 
L 337.431678 235.18268 
L 337.18736 234.738144 
L 339.36506 234.738144 
L 339.121667 234.293608 
L 339.512939 234.293608 
L 339.270083 233.849072 
L 340.242188 233.849072 
L 340 233.404536 
L 341.34635 233.404536 
L 341.104923 232.96 
L 341.486533 232.96 
L 341.245636 232.515464 
L 343.320432 232.515464 
L 343.080486 232.070928 
L 344.564196 232.070928 
L 344.325067 231.626392 
L 344.692787 231.626392 
L 344.454181 231.181856 
L 346.454009 231.181856 
L 346.216373 230.73732 
L 347.824454 230.73732 
L 347.587696 230.292784 
L 348.294522 230.292784 
L 348.058384 229.848247 
L 348.410061 229.848247 
L 347.939221 228.959175 
L 354.071033 228.959175 
L 353.838171 228.514639 
L 355.801246 228.514639 
L 355.33806 227.625567 
L 362.067334 227.625567 
L 361.83888 227.181031 
L 364.960976 227.181031 
L 364.507777 226.291959 
L 365.959782 226.291959 
L 365.734346 225.847423 
L 365.878366 225.847423 
L 365.653344 225.402887 
L 367.928571 225.402887 
L 367.481595 224.513814 
L 369.703636 224.513814 
L 369.481681 224.069278 
L 370.165385 224.069278 
L 369.944084 223.624742 
L 370.487603 223.624742 
L 370.266892 223.180206 
L 370.537556 223.180206 
L 370.317303 222.73567 
L 370.452395 222.73567 
L 370.232536 222.291134 
L 370.50224 222.291134 
L 370.282836 221.846598 
L 370.41745 221.846598 
L 370.198435 221.402062 
L 370.735141 221.402062 
L 370.516704 220.957526 
L 370.917333 220.957526 
L 370.699408 220.51299 
L 371.098449 220.51299 
L 370.881033 220.068454 
L 375.411367 220.068454 
L 375.196477 219.623918 
L 375.57439 219.623918 
L 375.36 219.179381 
L 375.611167 219.179381 
L 375.18356 218.290309 
L 375.434261 218.290309 
L 375.221041 217.845773 
L 375.471154 217.845773 
L 375.258363 217.401237 
L 375.756707 217.401237 
L 375.544468 216.956701 
L 377.632306 216.956701 
L 377.421429 216.512165 
L 377.542757 216.512165 
L 377.784906 216.512165 
L 377.574511 216.067629 
L 377.695394 216.067629 
L 379.014058 216.067629 
L 378.804706 215.623093 
L 378.923651 215.623093 
L 383.662677 215.623093 
L 383.36255 214.734021 
L 386.450988 214.734021 
L 386.246939 214.289485 
L 386.355197 214.289485 
L 392.097714 214.289485 
L 391.897462 213.844948 
L 391.998224 213.844948 
L 394.085106 213.844948 
L 393.786259 212.955876 
L 394.469776 212.955876 
L 394.272157 212.51134 
L 394.369379 212.51134 
L 395.813354 212.51134 
L 395.420836 211.622268 
L 395.516278 211.622268 
L 399.330917 211.622268 
L 399.137605 211.177732 
L 399.228366 211.177732 
L 404.228125 211.177732 
L 404.228125 211.177732 
" style="fill:none;stroke:#ff7f0e;stroke-linecap:square;stroke-width:2;"/>
   </g>
   <g id="line2d_47">
    <path clip-path="url(#p313374274c)" d="M 76.5 448.115464 
L 76.5 372.54433 
L 79.257558 372.54433 
L 78.758571 355.651959 
L 78.46805 341.87134 
L 80.419835 341.87134 
L 80.162548 334.314227 
L 81.972692 334.314227 
L 81.243 316.532784 
L 80.565429 294.305979 
L 80.553846 293.861443 
L 81.889773 293.861443 
L 81.814286 291.638763 
L 83.124302 291.638763 
L 83.0875 290.749691 
L 86.952893 290.749691 
L 86.7 286.748866 
L 87.944236 286.748866 
L 87.792857 284.526186 
L 89.014512 284.526186 
L 88.948819 283.637113 
L 90.157853 283.637113 
L 89.478358 274.746392 
L 90.623077 274.746392 
L 89.987204 266.300206 
L 91.076596 266.300206 
L 91.008 265.411134 
L 92.087324 265.411134 
L 92.014486 264.522062 
L 93.083916 264.522062 
L 92.743151 260.521237 
L 93.78656 260.521237 
L 93.364 255.63134 
L 94.378271 255.63134 
L 94.143545 252.964124 
L 95.140611 252.964124 
L 94.939309 250.741443 
L 95.921767 250.741443 
L 95.633121 247.629691 
L 96.597458 247.629691 
L 95.741379 238.294433 
L 96.662551 238.294433 
L 96.341235 234.738144 
L 97.244732 234.738144 
L 96.761359 229.403711 
L 97.641279 229.403711 
L 97.519075 228.070103 
L 98.390769 228.070103 
L 98.265201 226.736495 
L 99.128817 226.736495 
L 99.085714 226.291959 
L 99.944487 226.291959 
L 99.767547 224.513814 
L 100.616949 224.513814 
L 100.347486 221.846598 
L 101.184758 221.846598 
L 101.138961 221.402062 
L 101.971667 221.402062 
L 101.018182 212.066804 
L 101.818505 212.066804 
L 101.463158 208.510515 
L 103.034266 208.510515 
L 102.987958 208.065979 
L 103.768118 208.065979 
L 103.720696 207.621443 
L 105.270364 207.621443 
L 105.220588 207.176907 
L 105.990155 207.176907 
L 105.787822 205.398763 
L 106.549829 205.398763 
L 106.498462 204.954227 
L 107.256655 204.954227 
L 107.1 203.620619 
L 107.852034 203.620619 
L 107.798985 203.176082 
L 108.547297 203.176082 
L 108.172788 200.06433 
L 111.108955 200.06433 
L 110.994545 199.175258 
L 111.720297 199.175258 
L 111.604441 198.286186 
L 113.760884 198.286186 
L 113.639315 197.397113 
L 114.351303 197.397113 
L 114.228409 196.508041 
L 114.935981 196.508041 
L 114.75 195.174433 
L 116.15209 195.174433 
L 116.088443 194.729897 
L 116.785096 194.729897 
L 116.592344 193.396289 
L 117.283758 193.396289 
L 117.025633 191.618144 
L 117.7109 191.618144 
L 117.516509 190.284536 
L 119.550704 190.284536 
L 119.282893 188.506392 
L 119.95295 188.506392 
L 119.885581 188.061856 
L 122.541448 188.061856 
L 122.470615 187.61732 
L 123.128571 187.61732 
L 122.70274 184.950103 
L 123.353343 184.950103 
L 123.282246 184.505567 
L 123.93 184.505567 
L 123.644277 182.727423 
L 124.286617 182.727423 
L 124.072006 181.393814 
L 124.709865 181.393814 
L 124.63791 180.949278 
L 130.286598 180.949278 
L 130.05 179.61567 
L 130.666032 179.61567 
L 130.429155 178.282062 
L 131.041048 178.282062 
L 130.646965 176.059381 
L 131.857781 176.059381 
L 131.304993 172.947629 
L 131.902564 172.947629 
L 131.823755 172.503093 
L 132.418892 172.503093 
L 132.260482 171.614021 
L 132.852475 171.614021 
L 132.456742 169.39134 
L 133.043478 169.39134 
L 132.964286 168.946804 
L 133.548671 168.946804 
L 133.310306 167.613196 
L 133.89096 167.613196 
L 133.731761 166.724124 
L 136.032828 166.724124 
L 135.950826 166.279588 
L 138.223973 166.279588 
L 138.139535 165.835052 
L 138.703279 165.835052 
L 138.449388 164.501443 
L 139.568385 164.501443 
L 139.3977 163.612371 
L 140.508097 163.612371 
L 140.25 162.278763 
L 144.076698 162.278763 
L 143.986835 161.834227 
L 146.139286 161.834227 
L 145.955541 160.945155 
L 148.608519 160.945155 
L 148.42 160.056082 
L 149.469231 160.056082 
L 149.279454 159.16701 
L 149.800909 159.16701 
L 149.705837 158.722474 
L 150.225389 158.722474 
L 150.034884 157.833402 
L 152.607189 157.833402 
L 152.509615 157.388866 
L 153.01959 157.388866 
L 152.824138 156.499794 
L 153.33176 156.499794 
L 153.233885 156.055258 
L 155.24943 156.055258 
L 155.149747 155.610722 
L 156.646532 155.610722 
L 156.545592 155.166186 
L 157.041509 155.166186 
L 156.738722 153.832577 
L 157.231915 153.832577 
L 156.829763 152.054433 
L 159.751669 152.054433 
L 159.648889 151.609897 
L 160.131196 151.609897 
L 160.028202 151.165361 
L 160.508856 151.165361 
L 160.405651 150.720825 
L 161.3625 150.720825 
L 161.155012 149.831753 
L 162.105366 149.831753 
L 162.001096 149.387216 
L 162.474088 149.387216 
L 162.369623 148.94268 
L 163.311273 148.94268 
L 163.206174 148.498144 
L 163.674849 148.498144 
L 163.464536 147.609072 
L 163.931205 147.609072 
L 163.825993 147.164536 
L 164.291106 147.164536 
L 164.080576 146.275464 
L 164.543713 146.275464 
L 164.438397 145.830928 
L 166.278214 145.830928 
L 166.171463 145.386392 
L 166.628266 145.386392 
L 166.521352 144.941856 
L 169.686 144.941856 
L 169.576498 144.49732 
L 173.566047 144.49732 
L 173.45331 144.052784 
L 176.064706 144.052784 
L 175.95 143.608247 
L 177.669495 143.608247 
L 177.553608 143.163711 
L 178.406743 143.163711 
L 178.174344 142.274639 
L 181.125 142.274639 
L 181.00678 141.830103 
L 184.72953 141.830103 
L 184.367559 140.496495 
L 185.182759 140.496495 
L 185.062 140.051959 
L 187.082652 140.051959 
L 186.960596 139.607423 
L 187.762004 139.607423 
L 187.639604 139.162887 
L 188.436883 139.162887 
L 188.191676 138.273814 
L 189.773391 138.273814 
L 189.404022 136.940206 
L 190.578657 136.940206 
L 190.209071 135.606598 
L 190.598058 135.606598 
L 190.475108 135.162062 
L 190.862971 135.162062 
L 190.74 134.717526 
L 194.191054 134.717526 
L 193.940914 133.828454 
L 197.321684 133.828454 
L 197.194637 133.383918 
L 198.675707 133.383918 
L 198.547908 132.939381 
L 198.915987 132.939381 
L 198.788205 132.494845 
L 199.521563 132.494845 
L 199.2658 131.605773 
L 202.882407 131.605773 
L 202.622895 130.716701 
L 203.692016 130.716701 
L 203.432176 129.827629 
L 205.548122 129.827629 
L 205.417241 129.383093 
L 205.767173 129.383093 
L 205.636336 128.938557 
L 206.333636 128.938557 
L 206.202624 128.494021 
L 208.276429 128.494021 
L 208.012613 127.604948 
L 210.397813 127.604948 
L 209.999703 126.27134 
L 214.663636 126.27134 
L 214.528711 125.826804 
L 215.511003 125.826804 
L 215.375778 125.382268 
L 216.027087 125.382268 
L 215.891756 124.937732 
L 217.508108 124.937732 
L 217.236416 124.04866 
L 217.557459 124.04866 
L 217.421827 123.604124 
L 218.699138 123.604124 
L 218.563062 123.159588 
L 221.4 123.159588 
L 221.262654 122.715052 
L 222.19707 122.715052 
L 222.05949 122.270515 
L 222.369623 122.270515 
L 222.232139 121.825979 
L 222.541525 121.825979 
L 222.404139 121.381443 
L 224.857143 121.381443 
L 224.71875 120.936907 
L 225.325978 120.936907 
L 225.187535 120.492371 
L 225.490149 120.492371 
L 225.351811 120.047835 
L 228.345814 120.047835 
L 228.20625 119.603299 
L 229.387912 119.603299 
L 229.248033 119.158763 
L 230.42051 119.158763 
L 229.861308 117.380619 
L 233.891031 117.380619 
L 233.75 116.936082 
L 237.400709 116.936082 
L 237.258319 116.491546 
L 242.978888 116.491546 
L 242.834375 116.04701 
L 247.053082 116.04701 
L 246.907186 115.602474 
L 247.166923 115.602474 
L 247.021178 115.157938 
L 248.312755 115.157938 
L 248.16678 114.713402 
L 251.975084 114.713402 
L 251.681156 113.82433 
L 255.147765 113.82433 
L 255 113.379794 
L 258.625 113.379794 
L 258.476327 112.935258 
L 261.077913 112.935258 
L 260.928698 112.490722 
L 263.713691 112.490722 
L 263.56392 112.046186 
L 265.390541 112.046186 
L 265.240508 111.601649 
L 270.582229 111.601649 
L 270.431075 111.157113 
L 272.597759 111.157113 
L 272.446332 110.712577 
L 274.57931 110.712577 
L 274.427642 110.268041 
L 278.18497 110.268041 
L 278.032755 109.823505 
L 279.058195 109.823505 
L 278.906011 109.378969 
L 280.126178 109.378969 
L 279.973991 108.934433 
L 281.983086 108.934433 
L 281.830764 108.489897 
L 282.03 108.489897 
L 281.725962 107.600825 
L 285.648324 107.600825 
L 285.495994 107.156289 
L 285.881891 107.156289 
L 285.729724 106.711753 
L 288.588138 106.711753 
L 288.435776 106.267216 
L 291.601278 106.267216 
L 291.448723 105.82268 
L 294.178737 105.82268 
L 294.026087 105.378144 
L 295.458577 105.378144 
L 295.305993 104.933608 
L 307.351195 104.933608 
L 307.198009 104.489072 
L 323.769573 104.489072 
L 323.616749 104.044536 
L 334.955901 104.044536 
L 334.804225 103.6 
L 337.804167 103.6 
L 337.804167 103.6 
" style="fill:none;stroke:#2ca02c;stroke-linecap:square;stroke-width:2;"/>
   </g>
   <g id="patch_3">
    <path d="M 76.5 448.56 
L 76.5 60.48 
" style="fill:none;stroke:#000000;stroke-linecap:square;stroke-linejoin:miter;stroke-width:0.8;"/>
   </g>
   <g id="patch_4">
    <path d="M 550.8 448.56 
L 550.8 60.48 
" style="fill:none;stroke:#000000;stroke-linecap:square;stroke-linejoin:miter;stroke-width:0.8;"/>
   </g>
   <g id="patch_5">
    <path d="M 76.5 448.56 
L 550.8 448.56 
" style="fill:none;stroke:#000000;stroke-linecap:square;stroke-linejoin:miter;stroke-width:0.8;"/>
   </g>
   <g id="patch_6">
    <path d="M 76.5 60.48 
L 550.8 60.48 
" style="fill:none;stroke:#000000;stroke-linecap:square;stroke-linejoin:miter;stroke-width:0.8;"/>
   </g>
   <g id="text_25">
    <!-- bikes: img1-img2 -->
    <defs>
     <path d="M 48.6875 27.296875 
Q 48.6875 37.203125 44.609375 42.84375 
Q 40.53125 48.484375 33.40625 48.484375 
Q 26.265625 48.484375 22.1875 42.84375 
Q 18.109375 37.203125 18.109375 27.296875 
Q 18.109375 17.390625 22.1875 11.75 
Q 26.265625 6.109375 33.40625 6.109375 
Q 40.53125 6.109375 44.609375 11.75 
Q 48.6875 17.390625 48.6875 27.296875 
z
M 18.109375 46.390625 
Q 20.953125 51.265625 25.265625 53.625 
Q 29.59375 56 35.59375 56 
Q 45.5625 56 51.78125 48.09375 
Q 58.015625 40.1875 58.015625 27.296875 
Q 58.015625 14.40625 51.78125 6.484375 
Q 45.5625 -1.421875 35.59375 -1.421875 
Q 29.59375 -1.421875 25.265625 0.953125 
Q 20.953125 3.328125 18.109375 8.203125 
L 18.109375 0 
L 9.078125 0 
L 9.078125 75.984375 
L 18.109375 75.984375 
z
" id="DejaVuSans-98"/>
     <path d="M 9.078125 75.984375 
L 18.109375 75.984375 
L 18.109375 31.109375 
L 44.921875 54.6875 
L 56.390625 54.6875 
L 27.390625 29.109375 
L 57.625 0 
L 45.90625 0 
L 18.109375 26.703125 
L 18.109375 0 
L 9.078125 0 
z
" id="DejaVuSans-107"/>
     <path d="M 11.71875 12.40625 
L 22.015625 12.40625 
L 22.015625 0 
L 11.71875 0 
z
M 11.71875 51.703125 
L 22.015625 51.703125 
L 22.015625 39.3125 
L 11.71875 39.3125 
z
" id="DejaVuSans-58"/>
     <path id="DejaVuSans-32"/>
     <path d="M 52 44.1875 
Q 55.375 50.25 60.0625 53.125 
Q 64.75 56 71.09375 56 
Q 79.640625 56 84.28125 50.015625 
Q 88.921875 44.046875 88.921875 33.015625 
L 88.921875 0 
L 79.890625 0 
L 79.890625 32.71875 
Q 79.890625 40.578125 77.09375 44.375 
Q 74.3125 48.1875 68.609375 48.1875 
Q 61.625 48.1875 57.5625 43.546875 
Q 53.515625 38.921875 53.515625 30.90625 
L 53.515625 0 
L 44.484375 0 
L 44.484375 32.71875 
Q 44.484375 40.625 41.703125 44.40625 
Q 38.921875 48.1875 33.109375 48.1875 
Q 26.21875 48.1875 22.15625 43.53125 
Q 18.109375 38.875 18.109375 30.90625 
L 18.109375 0 
L 9.078125 0 
L 9.078125 54.6875 
L 18.109375 54.6875 
L 18.109375 46.1875 
Q 21.1875 51.21875 25.484375 53.609375 
Q 29.78125 56 35.6875 56 
Q 41.65625 56 45.828125 52.96875 
Q 50 49.953125 52 44.1875 
z
" id="DejaVuSans-109"/>
     <path d="M 45.40625 27.984375 
Q 45.40625 37.75 41.375 43.109375 
Q 37.359375 48.484375 30.078125 48.484375 
Q 22.859375 48.484375 18.828125 43.109375 
Q 14.796875 37.75 14.796875 27.984375 
Q 14.796875 18.265625 18.828125 12.890625 
Q 22.859375 7.515625 30.078125 7.515625 
Q 37.359375 7.515625 41.375 12.890625 
Q 45.40625 18.265625 45.40625 27.984375 
z
M 54.390625 6.78125 
Q 54.390625 -7.171875 48.1875 -13.984375 
Q 42 -20.796875 29.203125 -20.796875 
Q 24.46875 -20.796875 20.265625 -20.09375 
Q 16.0625 -19.390625 12.109375 -17.921875 
L 12.109375 -9.1875 
Q 16.0625 -11.328125 19.921875 -12.34375 
Q 23.78125 -13.375 27.78125 -13.375 
Q 36.625 -13.375 41.015625 -8.765625 
Q 45.40625 -4.15625 45.40625 5.171875 
L 45.40625 9.625 
Q 42.625 4.78125 38.28125 2.390625 
Q 33.9375 0 27.875 0 
Q 17.828125 0 11.671875 7.65625 
Q 5.515625 15.328125 5.515625 27.984375 
Q 5.515625 40.671875 11.671875 48.328125 
Q 17.828125 56 27.875 56 
Q 33.9375 56 38.28125 53.609375 
Q 42.625 51.21875 45.40625 46.390625 
L 45.40625 54.6875 
L 54.390625 54.6875 
z
" id="DejaVuSans-103"/>
    </defs>
    <g transform="translate(261.73125 41.042625)scale(0.12 -0.12)">
     <use xlink:href="#DejaVuSans-98"/>
     <use x="63.476562" xlink:href="#DejaVuSans-105"/>
     <use x="91.259766" xlink:href="#DejaVuSans-107"/>
     <use x="145.544922" xlink:href="#DejaVuSans-101"/>
     <use x="207.068359" xlink:href="#DejaVuSans-115"/>
     <use x="259.167969" xlink:href="#DejaVuSans-58"/>
     <use x="292.859375" xlink:href="#DejaVuSans-32"/>
     <use x="324.646484" xlink:href="#DejaVuSans-105"/>
     <use x="352.429688" xlink:href="#DejaVuSans-109"/>
     <use x="449.841797" xlink:href="#DejaVuSans-103"/>
     <use x="513.318359" xlink:href="#DejaVuSans-49"/>
     <use x="576.941406" xlink:href="#DejaVuSans-45"/>
     <use x="613.025391" xlink:href="#DejaVuSans-105"/>
     <use x="640.808594" xlink:href="#DejaVuSans-109"/>
     <use x="738.220703" xlink:href="#DejaVuSans-103"/>
     <use x="801.697266" xlink:href="#DejaVuSans-50"/>
    </g>
    <!-- NearestNeighbours -->
    <defs>
     <path d="M 9.8125 72.90625 
L 23.09375 72.90625 
L 55.421875 11.921875 
L 55.421875 72.90625 
L 64.984375 72.90625 
L 64.984375 0 
L 51.703125 0 
L 19.390625 60.984375 
L 19.390625 0 
L 9.8125 0 
z
" id="DejaVuSans-78"/>
     <path d="M 34.28125 27.484375 
Q 23.390625 27.484375 19.1875 25 
Q 14.984375 22.515625 14.984375 16.5 
Q 14.984375 11.71875 18.140625 8.90625 
Q 21.296875 6.109375 26.703125 6.109375 
Q 34.1875 6.109375 38.703125 11.40625 
Q 43.21875 16.703125 43.21875 25.484375 
L 43.21875 27.484375 
z
M 52.203125 31.203125 
L 52.203125 0 
L 43.21875 0 
L 43.21875 8.296875 
Q 40.140625 3.328125 35.546875 0.953125 
Q 30.953125 -1.421875 24.3125 -1.421875 
Q 15.921875 -1.421875 10.953125 3.296875 
Q 6 8.015625 6 15.921875 
Q 6 25.140625 12.171875 29.828125 
Q 18.359375 34.515625 30.609375 34.515625 
L 43.21875 34.515625 
L 43.21875 35.40625 
Q 43.21875 41.609375 39.140625 45 
Q 35.0625 48.390625 27.6875 48.390625 
Q 23 48.390625 18.546875 47.265625 
Q 14.109375 46.140625 10.015625 43.890625 
L 10.015625 52.203125 
Q 14.9375 54.109375 19.578125 55.046875 
Q 24.21875 56 28.609375 56 
Q 40.484375 56 46.34375 49.84375 
Q 52.203125 43.703125 52.203125 31.203125 
z
" id="DejaVuSans-97"/>
     <path d="M 54.890625 33.015625 
L 54.890625 0 
L 45.90625 0 
L 45.90625 32.71875 
Q 45.90625 40.484375 42.875 44.328125 
Q 39.84375 48.1875 33.796875 48.1875 
Q 26.515625 48.1875 22.3125 43.546875 
Q 18.109375 38.921875 18.109375 30.90625 
L 18.109375 0 
L 9.078125 0 
L 9.078125 75.984375 
L 18.109375 75.984375 
L 18.109375 46.1875 
Q 21.34375 51.125 25.703125 53.5625 
Q 30.078125 56 35.796875 56 
Q 45.21875 56 50.046875 50.171875 
Q 54.890625 44.34375 54.890625 33.015625 
z
" id="DejaVuSans-104"/>
     <path d="M 8.5 21.578125 
L 8.5 54.6875 
L 17.484375 54.6875 
L 17.484375 21.921875 
Q 17.484375 14.15625 20.5 10.265625 
Q 23.53125 6.390625 29.59375 6.390625 
Q 36.859375 6.390625 41.078125 11.03125 
Q 45.3125 15.671875 45.3125 23.6875 
L 45.3125 54.6875 
L 54.296875 54.6875 
L 54.296875 0 
L 45.3125 0 
L 45.3125 8.40625 
Q 42.046875 3.421875 37.71875 1 
Q 33.40625 -1.421875 27.6875 -1.421875 
Q 18.265625 -1.421875 13.375 4.4375 
Q 8.5 10.296875 8.5 21.578125 
z
M 31.109375 56 
z
" id="DejaVuSans-117"/>
    </defs>
    <g transform="translate(255.957188 54.48)scale(0.12 -0.12)">
     <use xlink:href="#DejaVuSans-78"/>
     <use x="74.804688" xlink:href="#DejaVuSans-101"/>
     <use x="136.328125" xlink:href="#DejaVuSans-97"/>
     <use x="197.607422" xlink:href="#DejaVuSans-114"/>
     <use x="236.470703" xlink:href="#DejaVuSans-101"/>
     <use x="297.994141" xlink:href="#DejaVuSans-115"/>
     <use x="350.09375" xlink:href="#DejaVuSans-116"/>
     <use x="389.302734" xlink:href="#DejaVuSans-78"/>
     <use x="464.107422" xlink:href="#DejaVuSans-101"/>
     <use x="525.630859" xlink:href="#DejaVuSans-105"/>
     <use x="553.414062" xlink:href="#DejaVuSans-103"/>
     <use x="616.890625" xlink:href="#DejaVuSans-104"/>
     <use x="680.269531" xlink:href="#DejaVuSans-98"/>
     <use x="743.746094" xlink:href="#DejaVuSans-111"/>
     <use x="804.927734" xlink:href="#DejaVuSans-117"/>
     <use x="868.306641" xlink:href="#DejaVuSans-114"/>
     <use x="909.419922" xlink:href="#DejaVuSans-115"/>
    </g>
   </g>
   <g id="legend_1">
    <g id="patch_7">
     <path d="M 362.659375 112.514375 
L 543.8 112.514375 
Q 545.8 112.514375 545.8 110.514375 
L 545.8 67.48 
Q 545.8 65.48 543.8 65.48 
L 362.659375 65.48 
Q 360.659375 65.48 360.659375 67.48 
L 360.659375 110.514375 
Q 360.659375 112.514375 362.659375 112.514375 
z
" style="fill:#ffffff;opacity:0.8;stroke:#cccccc;stroke-linejoin:miter;"/>
    </g>
    <g id="line2d_48">
     <path d="M 364.659375 73.578438 
L 384.659375 73.578438 
" style="fill:none;stroke:#1f77b4;stroke-linecap:square;stroke-width:2;"/>
    </g>
    <g id="line2d_49"/>
    <g id="text_26">
     <!-- root-cvsift AP: 89.4, %In: 47.3 -->
     <defs>
      <path d="M 2.984375 54.6875 
L 12.5 54.6875 
L 29.59375 8.796875 
L 46.6875 54.6875 
L 56.203125 54.6875 
L 35.6875 0 
L 23.484375 0 
z
" id="DejaVuSans-118"/>
      <path d="M 37.109375 75.984375 
L 37.109375 68.5 
L 28.515625 68.5 
Q 23.6875 68.5 21.796875 66.546875 
Q 19.921875 64.59375 19.921875 59.515625 
L 19.921875 54.6875 
L 34.71875 54.6875 
L 34.71875 47.703125 
L 19.921875 47.703125 
L 19.921875 0 
L 10.890625 0 
L 10.890625 47.703125 
L 2.296875 47.703125 
L 2.296875 54.6875 
L 10.890625 54.6875 
L 10.890625 58.5 
Q 10.890625 67.625 15.140625 71.796875 
Q 19.390625 75.984375 28.609375 75.984375 
z
" id="DejaVuSans-102"/>
      <path d="M 34.1875 63.1875 
L 20.796875 26.90625 
L 47.609375 26.90625 
z
M 28.609375 72.90625 
L 39.796875 72.90625 
L 67.578125 0 
L 57.328125 0 
L 50.6875 18.703125 
L 17.828125 18.703125 
L 11.1875 0 
L 0.78125 0 
z
" id="DejaVuSans-65"/>
      <path d="M 19.671875 64.796875 
L 19.671875 37.40625 
L 32.078125 37.40625 
Q 38.96875 37.40625 42.71875 40.96875 
Q 46.484375 44.53125 46.484375 51.125 
Q 46.484375 57.671875 42.71875 61.234375 
Q 38.96875 64.796875 32.078125 64.796875 
z
M 9.8125 72.90625 
L 32.078125 72.90625 
Q 44.34375 72.90625 50.609375 67.359375 
Q 56.890625 61.8125 56.890625 51.125 
Q 56.890625 40.328125 50.609375 34.8125 
Q 44.34375 29.296875 32.078125 29.296875 
L 19.671875 29.296875 
L 19.671875 0 
L 9.8125 0 
z
" id="DejaVuSans-80"/>
      <path d="M 11.71875 12.40625 
L 22.015625 12.40625 
L 22.015625 4 
L 14.015625 -11.625 
L 7.71875 -11.625 
L 11.71875 4 
z
" id="DejaVuSans-44"/>
      <path d="M 72.703125 32.078125 
Q 68.453125 32.078125 66.03125 28.46875 
Q 63.625 24.859375 63.625 18.40625 
Q 63.625 12.0625 66.03125 8.421875 
Q 68.453125 4.78125 72.703125 4.78125 
Q 76.859375 4.78125 79.265625 8.421875 
Q 81.6875 12.0625 81.6875 18.40625 
Q 81.6875 24.8125 79.265625 28.4375 
Q 76.859375 32.078125 72.703125 32.078125 
z
M 72.703125 38.28125 
Q 80.421875 38.28125 84.953125 32.90625 
Q 89.5 27.546875 89.5 18.40625 
Q 89.5 9.28125 84.9375 3.921875 
Q 80.375 -1.421875 72.703125 -1.421875 
Q 64.890625 -1.421875 60.34375 3.921875 
Q 55.8125 9.28125 55.8125 18.40625 
Q 55.8125 27.59375 60.375 32.9375 
Q 64.9375 38.28125 72.703125 38.28125 
z
M 22.3125 68.015625 
Q 18.109375 68.015625 15.6875 64.375 
Q 13.28125 60.75 13.28125 54.390625 
Q 13.28125 47.953125 15.671875 44.328125 
Q 18.0625 40.71875 22.3125 40.71875 
Q 26.5625 40.71875 28.96875 44.328125 
Q 31.390625 47.953125 31.390625 54.390625 
Q 31.390625 60.6875 28.953125 64.34375 
Q 26.515625 68.015625 22.3125 68.015625 
z
M 66.40625 74.21875 
L 74.21875 74.21875 
L 28.609375 -1.421875 
L 20.796875 -1.421875 
z
M 22.3125 74.21875 
Q 30.03125 74.21875 34.609375 68.875 
Q 39.203125 63.53125 39.203125 54.390625 
Q 39.203125 45.171875 34.640625 39.84375 
Q 30.078125 34.515625 22.3125 34.515625 
Q 14.546875 34.515625 10.03125 39.859375 
Q 5.515625 45.21875 5.515625 54.390625 
Q 5.515625 63.484375 10.046875 68.84375 
Q 14.59375 74.21875 22.3125 74.21875 
z
" id="DejaVuSans-37"/>
      <path d="M 9.8125 72.90625 
L 19.671875 72.90625 
L 19.671875 0 
L 9.8125 0 
z
" id="DejaVuSans-73"/>
     </defs>
     <g transform="translate(392.659375 77.078438)scale(0.1 -0.1)">
      <use xlink:href="#DejaVuSans-114"/>
      <use x="38.863281" xlink:href="#DejaVuSans-111"/>
      <use x="100.044922" xlink:href="#DejaVuSans-111"/>
      <use x="161.226562" xlink:href="#DejaVuSans-116"/>
      <use x="200.435547" xlink:href="#DejaVuSans-45"/>
      <use x="236.519531" xlink:href="#DejaVuSans-99"/>
      <use x="291.5" xlink:href="#DejaVuSans-118"/>
      <use x="350.679688" xlink:href="#DejaVuSans-115"/>
      <use x="402.779297" xlink:href="#DejaVuSans-105"/>
      <use x="430.5625" xlink:href="#DejaVuSans-102"/>
      <use x="464.017578" xlink:href="#DejaVuSans-116"/>
      <use x="503.226562" xlink:href="#DejaVuSans-32"/>
      <use x="535.013672" xlink:href="#DejaVuSans-65"/>
      <use x="603.421875" xlink:href="#DejaVuSans-80"/>
      <use x="663.724609" xlink:href="#DejaVuSans-58"/>
      <use x="697.416016" xlink:href="#DejaVuSans-32"/>
      <use x="729.203125" xlink:href="#DejaVuSans-56"/>
      <use x="792.826172" xlink:href="#DejaVuSans-57"/>
      <use x="856.449219" xlink:href="#DejaVuSans-46"/>
      <use x="888.236328" xlink:href="#DejaVuSans-52"/>
      <use x="951.859375" xlink:href="#DejaVuSans-44"/>
      <use x="983.646484" xlink:href="#DejaVuSans-32"/>
      <use x="1015.433594" xlink:href="#DejaVuSans-37"/>
      <use x="1110.453125" xlink:href="#DejaVuSans-73"/>
      <use x="1139.945312" xlink:href="#DejaVuSans-110"/>
      <use x="1203.324219" xlink:href="#DejaVuSans-58"/>
      <use x="1237.015625" xlink:href="#DejaVuSans-32"/>
      <use x="1268.802734" xlink:href="#DejaVuSans-52"/>
      <use x="1332.425781" xlink:href="#DejaVuSans-55"/>
      <use x="1396.048828" xlink:href="#DejaVuSans-46"/>
      <use x="1427.835938" xlink:href="#DejaVuSans-51"/>
     </g>
    </g>
    <g id="line2d_50">
     <path d="M 364.659375 88.256563 
L 384.659375 88.256563 
" style="fill:none;stroke:#ff7f0e;stroke-linecap:square;stroke-width:2;"/>
    </g>
    <g id="line2d_51"/>
    <g id="text_27">
     <!-- tfeat AP: 48.7, %In: 30.9 -->
     <g transform="translate(392.659375 91.756563)scale(0.1 -0.1)">
      <use xlink:href="#DejaVuSans-116"/>
      <use x="39.208984" xlink:href="#DejaVuSans-102"/>
      <use x="74.414062" xlink:href="#DejaVuSans-101"/>
      <use x="135.9375" xlink:href="#DejaVuSans-97"/>
      <use x="197.216797" xlink:href="#DejaVuSans-116"/>
      <use x="236.425781" xlink:href="#DejaVuSans-32"/>
      <use x="268.212891" xlink:href="#DejaVuSans-65"/>
      <use x="336.621094" xlink:href="#DejaVuSans-80"/>
      <use x="396.923828" xlink:href="#DejaVuSans-58"/>
      <use x="430.615234" xlink:href="#DejaVuSans-32"/>
      <use x="462.402344" xlink:href="#DejaVuSans-52"/>
      <use x="526.025391" xlink:href="#DejaVuSans-56"/>
      <use x="589.648438" xlink:href="#DejaVuSans-46"/>
      <use x="621.435547" xlink:href="#DejaVuSans-55"/>
      <use x="685.058594" xlink:href="#DejaVuSans-44"/>
      <use x="716.845703" xlink:href="#DejaVuSans-32"/>
      <use x="748.632812" xlink:href="#DejaVuSans-37"/>
      <use x="843.652344" xlink:href="#DejaVuSans-73"/>
      <use x="873.144531" xlink:href="#DejaVuSans-110"/>
      <use x="936.523438" xlink:href="#DejaVuSans-58"/>
      <use x="970.214844" xlink:href="#DejaVuSans-32"/>
      <use x="1002.001953" xlink:href="#DejaVuSans-51"/>
      <use x="1065.625" xlink:href="#DejaVuSans-48"/>
      <use x="1129.248047" xlink:href="#DejaVuSans-46"/>
      <use x="1161.035156" xlink:href="#DejaVuSans-57"/>
     </g>
    </g>
    <g id="line2d_52">
     <path d="M 364.659375 102.934687 
L 384.659375 102.934687 
" style="fill:none;stroke:#2ca02c;stroke-linecap:square;stroke-width:2;"/>
    </g>
    <g id="line2d_53"/>
    <g id="text_28">
     <!-- hardnet AP: 82.5, %In: 44.9 -->
     <defs>
      <path d="M 45.40625 46.390625 
L 45.40625 75.984375 
L 54.390625 75.984375 
L 54.390625 0 
L 45.40625 0 
L 45.40625 8.203125 
Q 42.578125 3.328125 38.25 0.953125 
Q 33.9375 -1.421875 27.875 -1.421875 
Q 17.96875 -1.421875 11.734375 6.484375 
Q 5.515625 14.40625 5.515625 27.296875 
Q 5.515625 40.1875 11.734375 48.09375 
Q 17.96875 56 27.875 56 
Q 33.9375 56 38.25 53.625 
Q 42.578125 51.265625 45.40625 46.390625 
z
M 14.796875 27.296875 
Q 14.796875 17.390625 18.875 11.75 
Q 22.953125 6.109375 30.078125 6.109375 
Q 37.203125 6.109375 41.296875 11.75 
Q 45.40625 17.390625 45.40625 27.296875 
Q 45.40625 37.203125 41.296875 42.84375 
Q 37.203125 48.484375 30.078125 48.484375 
Q 22.953125 48.484375 18.875 42.84375 
Q 14.796875 37.203125 14.796875 27.296875 
z
" id="DejaVuSans-100"/>
     </defs>
     <g transform="translate(392.659375 106.434687)scale(0.1 -0.1)">
      <use xlink:href="#DejaVuSans-104"/>
      <use x="63.378906" xlink:href="#DejaVuSans-97"/>
      <use x="124.658203" xlink:href="#DejaVuSans-114"/>
      <use x="164.021484" xlink:href="#DejaVuSans-100"/>
      <use x="227.498047" xlink:href="#DejaVuSans-110"/>
      <use x="290.876953" xlink:href="#DejaVuSans-101"/>
      <use x="352.400391" xlink:href="#DejaVuSans-116"/>
      <use x="391.609375" xlink:href="#DejaVuSans-32"/>
      <use x="423.396484" xlink:href="#DejaVuSans-65"/>
      <use x="491.804688" xlink:href="#DejaVuSans-80"/>
      <use x="552.107422" xlink:href="#DejaVuSans-58"/>
      <use x="585.798828" xlink:href="#DejaVuSans-32"/>
      <use x="617.585938" xlink:href="#DejaVuSans-56"/>
      <use x="681.208984" xlink:href="#DejaVuSans-50"/>
      <use x="744.832031" xlink:href="#DejaVuSans-46"/>
      <use x="776.619141" xlink:href="#DejaVuSans-53"/>
      <use x="840.242188" xlink:href="#DejaVuSans-44"/>
      <use x="872.029297" xlink:href="#DejaVuSans-32"/>
      <use x="903.816406" xlink:href="#DejaVuSans-37"/>
      <use x="998.835938" xlink:href="#DejaVuSans-73"/>
      <use x="1028.328125" xlink:href="#DejaVuSans-110"/>
      <use x="1091.707031" xlink:href="#DejaVuSans-58"/>
      <use x="1125.398438" xlink:href="#DejaVuSans-32"/>
      <use x="1157.185547" xlink:href="#DejaVuSans-52"/>
      <use x="1220.808594" xlink:href="#DejaVuSans-52"/>
      <use x="1284.431641" xlink:href="#DejaVuSans-46"/>
      <use x="1316.21875" xlink:href="#DejaVuSans-57"/>
     </g>
    </g>
   </g>
  </g>
 </g>
 <defs>
  <clipPath id="p313374274c">
   <rect height="388.08" width="474.3" x="76.5" y="60.48"/>
  </clipPath>
 </defs>
</svg>
