<?xml version="1.0" encoding="utf-8" standalone="no"?>
<!DOCTYPE svg PUBLIC "-//W3C//DTD SVG 1.1//EN"
  "http://www.w3.org/Graphics/SVG/1.1/DTD/svg11.dtd">
<!-- Created with matplotlib (https://matplotlib.org/) -->
<svg height="504pt" version="1.1" viewBox="0 0 612 504" width="612pt" xmlns="http://www.w3.org/2000/svg" xmlns:xlink="http://www.w3.org/1999/xlink">
 <defs>
  <style type="text/css">
*{stroke-linecap:butt;stroke-linejoin:round;}
  </style>
 </defs>
 <g id="figure_1">
  <g id="patch_1">
   <path d="M 0 504 
L 612 504 
L 612 0 
L 0 0 
z
" style="fill:#ffffff;"/>
  </g>
  <g id="axes_1">
   <g id="patch_2">
    <path d="M 76.5 448.56 
L 550.8 448.56 
L 550.8 60.48 
L 76.5 60.48 
z
" style="fill:#ffffff;"/>
   </g>
   <g id="matplotlib.axis_1">
    <g id="xtick_1">
     <g id="line2d_1">
      <path clip-path="url(#p446f8cd358)" d="M 76.5 448.56 
L 76.5 60.48 
" style="fill:none;stroke:#b0b0b0;stroke-linecap:square;stroke-width:0.8;"/>
     </g>
     <g id="line2d_2">
      <defs>
       <path d="M 0 0 
L 0 3.5 
" id="m388134eac3" style="stroke:#000000;stroke-width:0.8;"/>
      </defs>
      <g>
       <use style="stroke:#000000;stroke-width:0.8;" x="76.5" xlink:href="#m388134eac3" y="448.56"/>
      </g>
     </g>
     <g id="text_1">
      <!-- 0.0 -->
      <defs>
       <path d="M 31.78125 66.40625 
Q 24.171875 66.40625 20.328125 58.90625 
Q 16.5 51.421875 16.5 36.375 
Q 16.5 21.390625 20.328125 13.890625 
Q 24.171875 6.390625 31.78125 6.390625 
Q 39.453125 6.390625 43.28125 13.890625 
Q 47.125 21.390625 47.125 36.375 
Q 47.125 51.421875 43.28125 58.90625 
Q 39.453125 66.40625 31.78125 66.40625 
z
M 31.78125 74.21875 
Q 44.046875 74.21875 50.515625 64.515625 
Q 56.984375 54.828125 56.984375 36.375 
Q 56.984375 17.96875 50.515625 8.265625 
Q 44.046875 -1.421875 31.78125 -1.421875 
Q 19.53125 -1.421875 13.0625 8.265625 
Q 6.59375 17.96875 6.59375 36.375 
Q 6.59375 54.828125 13.0625 64.515625 
Q 19.53125 74.21875 31.78125 74.21875 
z
" id="DejaVuSans-48"/>
       <path d="M 10.6875 12.40625 
L 21 12.40625 
L 21 0 
L 10.6875 0 
z
" id="DejaVuSans-46"/>
      </defs>
      <g transform="translate(68.548438 463.158437)scale(0.1 -0.1)">
       <use xlink:href="#DejaVuSans-48"/>
       <use x="63.623047" xlink:href="#DejaVuSans-46"/>
       <use x="95.410156" xlink:href="#DejaVuSans-48"/>
      </g>
     </g>
    </g>
    <g id="xtick_2">
     <g id="line2d_3">
      <path clip-path="url(#p446f8cd358)" d="M 123.93 448.56 
L 123.93 60.48 
" style="fill:none;stroke:#b0b0b0;stroke-linecap:square;stroke-width:0.8;"/>
     </g>
     <g id="line2d_4">
      <g>
       <use style="stroke:#000000;stroke-width:0.8;" x="123.93" xlink:href="#m388134eac3" y="448.56"/>
      </g>
     </g>
     <g id="text_2">
      <!-- 0.1 -->
      <defs>
       <path d="M 12.40625 8.296875 
L 28.515625 8.296875 
L 28.515625 63.921875 
L 10.984375 60.40625 
L 10.984375 69.390625 
L 28.421875 72.90625 
L 38.28125 72.90625 
L 38.28125 8.296875 
L 54.390625 8.296875 
L 54.390625 0 
L 12.40625 0 
z
" id="DejaVuSans-49"/>
      </defs>
      <g transform="translate(115.978438 463.158437)scale(0.1 -0.1)">
       <use xlink:href="#DejaVuSans-48"/>
       <use x="63.623047" xlink:href="#DejaVuSans-46"/>
       <use x="95.410156" xlink:href="#DejaVuSans-49"/>
      </g>
     </g>
    </g>
    <g id="xtick_3">
     <g id="line2d_5">
      <path clip-path="url(#p446f8cd358)" d="M 171.36 448.56 
L 171.36 60.48 
" style="fill:none;stroke:#b0b0b0;stroke-linecap:square;stroke-width:0.8;"/>
     </g>
     <g id="line2d_6">
      <g>
       <use style="stroke:#000000;stroke-width:0.8;" x="171.36" xlink:href="#m388134eac3" y="448.56"/>
      </g>
     </g>
     <g id="text_3">
      <!-- 0.2 -->
      <defs>
       <path d="M 19.1875 8.296875 
L 53.609375 8.296875 
L 53.609375 0 
L 7.328125 0 
L 7.328125 8.296875 
Q 12.9375 14.109375 22.625 23.890625 
Q 32.328125 33.6875 34.8125 36.53125 
Q 39.546875 41.84375 41.421875 45.53125 
Q 43.3125 49.21875 43.3125 52.78125 
Q 43.3125 58.59375 39.234375 62.25 
Q 35.15625 65.921875 28.609375 65.921875 
Q 23.96875 65.921875 18.8125 64.3125 
Q 13.671875 62.703125 7.8125 59.421875 
L 7.8125 69.390625 
Q 13.765625 71.78125 18.9375 73 
Q 24.125 74.21875 28.421875 74.21875 
Q 39.75 74.21875 46.484375 68.546875 
Q 53.21875 62.890625 53.21875 53.421875 
Q 53.21875 48.921875 51.53125 44.890625 
Q 49.859375 40.875 45.40625 35.40625 
Q 44.1875 33.984375 37.640625 27.21875 
Q 31.109375 20.453125 19.1875 8.296875 
z
" id="DejaVuSans-50"/>
      </defs>
      <g transform="translate(163.408438 463.158437)scale(0.1 -0.1)">
       <use xlink:href="#DejaVuSans-48"/>
       <use x="63.623047" xlink:href="#DejaVuSans-46"/>
       <use x="95.410156" xlink:href="#DejaVuSans-50"/>
      </g>
     </g>
    </g>
    <g id="xtick_4">
     <g id="line2d_7">
      <path clip-path="url(#p446f8cd358)" d="M 218.79 448.56 
L 218.79 60.48 
" style="fill:none;stroke:#b0b0b0;stroke-linecap:square;stroke-width:0.8;"/>
     </g>
     <g id="line2d_8">
      <g>
       <use style="stroke:#000000;stroke-width:0.8;" x="218.79" xlink:href="#m388134eac3" y="448.56"/>
      </g>
     </g>
     <g id="text_4">
      <!-- 0.3 -->
      <defs>
       <path d="M 40.578125 39.3125 
Q 47.65625 37.796875 51.625 33 
Q 55.609375 28.21875 55.609375 21.1875 
Q 55.609375 10.40625 48.1875 4.484375 
Q 40.765625 -1.421875 27.09375 -1.421875 
Q 22.515625 -1.421875 17.65625 -0.515625 
Q 12.796875 0.390625 7.625 2.203125 
L 7.625 11.71875 
Q 11.71875 9.328125 16.59375 8.109375 
Q 21.484375 6.890625 26.8125 6.890625 
Q 36.078125 6.890625 40.9375 10.546875 
Q 45.796875 14.203125 45.796875 21.1875 
Q 45.796875 27.640625 41.28125 31.265625 
Q 36.765625 34.90625 28.71875 34.90625 
L 20.21875 34.90625 
L 20.21875 43.015625 
L 29.109375 43.015625 
Q 36.375 43.015625 40.234375 45.921875 
Q 44.09375 48.828125 44.09375 54.296875 
Q 44.09375 59.90625 40.109375 62.90625 
Q 36.140625 65.921875 28.71875 65.921875 
Q 24.65625 65.921875 20.015625 65.03125 
Q 15.375 64.15625 9.8125 62.3125 
L 9.8125 71.09375 
Q 15.4375 72.65625 20.34375 73.4375 
Q 25.25 74.21875 29.59375 74.21875 
Q 40.828125 74.21875 47.359375 69.109375 
Q 53.90625 64.015625 53.90625 55.328125 
Q 53.90625 49.265625 50.4375 45.09375 
Q 46.96875 40.921875 40.578125 39.3125 
z
" id="DejaVuSans-51"/>
      </defs>
      <g transform="translate(210.838438 463.158437)scale(0.1 -0.1)">
       <use xlink:href="#DejaVuSans-48"/>
       <use x="63.623047" xlink:href="#DejaVuSans-46"/>
       <use x="95.410156" xlink:href="#DejaVuSans-51"/>
      </g>
     </g>
    </g>
    <g id="xtick_5">
     <g id="line2d_9">
      <path clip-path="url(#p446f8cd358)" d="M 266.22 448.56 
L 266.22 60.48 
" style="fill:none;stroke:#b0b0b0;stroke-linecap:square;stroke-width:0.8;"/>
     </g>
     <g id="line2d_10">
      <g>
       <use style="stroke:#000000;stroke-width:0.8;" x="266.22" xlink:href="#m388134eac3" y="448.56"/>
      </g>
     </g>
     <g id="text_5">
      <!-- 0.4 -->
      <defs>
       <path d="M 37.796875 64.3125 
L 12.890625 25.390625 
L 37.796875 25.390625 
z
M 35.203125 72.90625 
L 47.609375 72.90625 
L 47.609375 25.390625 
L 58.015625 25.390625 
L 58.015625 17.1875 
L 47.609375 17.1875 
L 47.609375 0 
L 37.796875 0 
L 37.796875 17.1875 
L 4.890625 17.1875 
L 4.890625 26.703125 
z
" id="DejaVuSans-52"/>
      </defs>
      <g transform="translate(258.268438 463.158437)scale(0.1 -0.1)">
       <use xlink:href="#DejaVuSans-48"/>
       <use x="63.623047" xlink:href="#DejaVuSans-46"/>
       <use x="95.410156" xlink:href="#DejaVuSans-52"/>
      </g>
     </g>
    </g>
    <g id="xtick_6">
     <g id="line2d_11">
      <path clip-path="url(#p446f8cd358)" d="M 313.65 448.56 
L 313.65 60.48 
" style="fill:none;stroke:#b0b0b0;stroke-linecap:square;stroke-width:0.8;"/>
     </g>
     <g id="line2d_12">
      <g>
       <use style="stroke:#000000;stroke-width:0.8;" x="313.65" xlink:href="#m388134eac3" y="448.56"/>
      </g>
     </g>
     <g id="text_6">
      <!-- 0.5 -->
      <defs>
       <path d="M 10.796875 72.90625 
L 49.515625 72.90625 
L 49.515625 64.59375 
L 19.828125 64.59375 
L 19.828125 46.734375 
Q 21.96875 47.46875 24.109375 47.828125 
Q 26.265625 48.1875 28.421875 48.1875 
Q 40.625 48.1875 47.75 41.5 
Q 54.890625 34.8125 54.890625 23.390625 
Q 54.890625 11.625 47.5625 5.09375 
Q 40.234375 -1.421875 26.90625 -1.421875 
Q 22.3125 -1.421875 17.546875 -0.640625 
Q 12.796875 0.140625 7.71875 1.703125 
L 7.71875 11.625 
Q 12.109375 9.234375 16.796875 8.0625 
Q 21.484375 6.890625 26.703125 6.890625 
Q 35.15625 6.890625 40.078125 11.328125 
Q 45.015625 15.765625 45.015625 23.390625 
Q 45.015625 31 40.078125 35.4375 
Q 35.15625 39.890625 26.703125 39.890625 
Q 22.75 39.890625 18.8125 39.015625 
Q 14.890625 38.140625 10.796875 36.28125 
z
" id="DejaVuSans-53"/>
      </defs>
      <g transform="translate(305.698438 463.158437)scale(0.1 -0.1)">
       <use xlink:href="#DejaVuSans-48"/>
       <use x="63.623047" xlink:href="#DejaVuSans-46"/>
       <use x="95.410156" xlink:href="#DejaVuSans-53"/>
      </g>
     </g>
    </g>
    <g id="xtick_7">
     <g id="line2d_13">
      <path clip-path="url(#p446f8cd358)" d="M 361.08 448.56 
L 361.08 60.48 
" style="fill:none;stroke:#b0b0b0;stroke-linecap:square;stroke-width:0.8;"/>
     </g>
     <g id="line2d_14">
      <g>
       <use style="stroke:#000000;stroke-width:0.8;" x="361.08" xlink:href="#m388134eac3" y="448.56"/>
      </g>
     </g>
     <g id="text_7">
      <!-- 0.6 -->
      <defs>
       <path d="M 33.015625 40.375 
Q 26.375 40.375 22.484375 35.828125 
Q 18.609375 31.296875 18.609375 23.390625 
Q 18.609375 15.53125 22.484375 10.953125 
Q 26.375 6.390625 33.015625 6.390625 
Q 39.65625 6.390625 43.53125 10.953125 
Q 47.40625 15.53125 47.40625 23.390625 
Q 47.40625 31.296875 43.53125 35.828125 
Q 39.65625 40.375 33.015625 40.375 
z
M 52.59375 71.296875 
L 52.59375 62.3125 
Q 48.875 64.0625 45.09375 64.984375 
Q 41.3125 65.921875 37.59375 65.921875 
Q 27.828125 65.921875 22.671875 59.328125 
Q 17.53125 52.734375 16.796875 39.40625 
Q 19.671875 43.65625 24.015625 45.921875 
Q 28.375 48.1875 33.59375 48.1875 
Q 44.578125 48.1875 50.953125 41.515625 
Q 57.328125 34.859375 57.328125 23.390625 
Q 57.328125 12.15625 50.6875 5.359375 
Q 44.046875 -1.421875 33.015625 -1.421875 
Q 20.359375 -1.421875 13.671875 8.265625 
Q 6.984375 17.96875 6.984375 36.375 
Q 6.984375 53.65625 15.1875 63.9375 
Q 23.390625 74.21875 37.203125 74.21875 
Q 40.921875 74.21875 44.703125 73.484375 
Q 48.484375 72.75 52.59375 71.296875 
z
" id="DejaVuSans-54"/>
      </defs>
      <g transform="translate(353.128438 463.158437)scale(0.1 -0.1)">
       <use xlink:href="#DejaVuSans-48"/>
       <use x="63.623047" xlink:href="#DejaVuSans-46"/>
       <use x="95.410156" xlink:href="#DejaVuSans-54"/>
      </g>
     </g>
    </g>
    <g id="xtick_8">
     <g id="line2d_15">
      <path clip-path="url(#p446f8cd358)" d="M 408.51 448.56 
L 408.51 60.48 
" style="fill:none;stroke:#b0b0b0;stroke-linecap:square;stroke-width:0.8;"/>
     </g>
     <g id="line2d_16">
      <g>
       <use style="stroke:#000000;stroke-width:0.8;" x="408.51" xlink:href="#m388134eac3" y="448.56"/>
      </g>
     </g>
     <g id="text_8">
      <!-- 0.7 -->
      <defs>
       <path d="M 8.203125 72.90625 
L 55.078125 72.90625 
L 55.078125 68.703125 
L 28.609375 0 
L 18.3125 0 
L 43.21875 64.59375 
L 8.203125 64.59375 
z
" id="DejaVuSans-55"/>
      </defs>
      <g transform="translate(400.558438 463.158437)scale(0.1 -0.1)">
       <use xlink:href="#DejaVuSans-48"/>
       <use x="63.623047" xlink:href="#DejaVuSans-46"/>
       <use x="95.410156" xlink:href="#DejaVuSans-55"/>
      </g>
     </g>
    </g>
    <g id="xtick_9">
     <g id="line2d_17">
      <path clip-path="url(#p446f8cd358)" d="M 455.94 448.56 
L 455.94 60.48 
" style="fill:none;stroke:#b0b0b0;stroke-linecap:square;stroke-width:0.8;"/>
     </g>
     <g id="line2d_18">
      <g>
       <use style="stroke:#000000;stroke-width:0.8;" x="455.94" xlink:href="#m388134eac3" y="448.56"/>
      </g>
     </g>
     <g id="text_9">
      <!-- 0.8 -->
      <defs>
       <path d="M 31.78125 34.625 
Q 24.75 34.625 20.71875 30.859375 
Q 16.703125 27.09375 16.703125 20.515625 
Q 16.703125 13.921875 20.71875 10.15625 
Q 24.75 6.390625 31.78125 6.390625 
Q 38.8125 6.390625 42.859375 10.171875 
Q 46.921875 13.96875 46.921875 20.515625 
Q 46.921875 27.09375 42.890625 30.859375 
Q 38.875 34.625 31.78125 34.625 
z
M 21.921875 38.8125 
Q 15.578125 40.375 12.03125 44.71875 
Q 8.5 49.078125 8.5 55.328125 
Q 8.5 64.0625 14.71875 69.140625 
Q 20.953125 74.21875 31.78125 74.21875 
Q 42.671875 74.21875 48.875 69.140625 
Q 55.078125 64.0625 55.078125 55.328125 
Q 55.078125 49.078125 51.53125 44.71875 
Q 48 40.375 41.703125 38.8125 
Q 48.828125 37.15625 52.796875 32.3125 
Q 56.78125 27.484375 56.78125 20.515625 
Q 56.78125 9.90625 50.3125 4.234375 
Q 43.84375 -1.421875 31.78125 -1.421875 
Q 19.734375 -1.421875 13.25 4.234375 
Q 6.78125 9.90625 6.78125 20.515625 
Q 6.78125 27.484375 10.78125 32.3125 
Q 14.796875 37.15625 21.921875 38.8125 
z
M 18.3125 54.390625 
Q 18.3125 48.734375 21.84375 45.5625 
Q 25.390625 42.390625 31.78125 42.390625 
Q 38.140625 42.390625 41.71875 45.5625 
Q 45.3125 48.734375 45.3125 54.390625 
Q 45.3125 60.0625 41.71875 63.234375 
Q 38.140625 66.40625 31.78125 66.40625 
Q 25.390625 66.40625 21.84375 63.234375 
Q 18.3125 60.0625 18.3125 54.390625 
z
" id="DejaVuSans-56"/>
      </defs>
      <g transform="translate(447.988438 463.158437)scale(0.1 -0.1)">
       <use xlink:href="#DejaVuSans-48"/>
       <use x="63.623047" xlink:href="#DejaVuSans-46"/>
       <use x="95.410156" xlink:href="#DejaVuSans-56"/>
      </g>
     </g>
    </g>
    <g id="xtick_10">
     <g id="line2d_19">
      <path clip-path="url(#p446f8cd358)" d="M 503.37 448.56 
L 503.37 60.48 
" style="fill:none;stroke:#b0b0b0;stroke-linecap:square;stroke-width:0.8;"/>
     </g>
     <g id="line2d_20">
      <g>
       <use style="stroke:#000000;stroke-width:0.8;" x="503.37" xlink:href="#m388134eac3" y="448.56"/>
      </g>
     </g>
     <g id="text_10">
      <!-- 0.9 -->
      <defs>
       <path d="M 10.984375 1.515625 
L 10.984375 10.5 
Q 14.703125 8.734375 18.5 7.8125 
Q 22.3125 6.890625 25.984375 6.890625 
Q 35.75 6.890625 40.890625 13.453125 
Q 46.046875 20.015625 46.78125 33.40625 
Q 43.953125 29.203125 39.59375 26.953125 
Q 35.25 24.703125 29.984375 24.703125 
Q 19.046875 24.703125 12.671875 31.3125 
Q 6.296875 37.9375 6.296875 49.421875 
Q 6.296875 60.640625 12.9375 67.421875 
Q 19.578125 74.21875 30.609375 74.21875 
Q 43.265625 74.21875 49.921875 64.515625 
Q 56.59375 54.828125 56.59375 36.375 
Q 56.59375 19.140625 48.40625 8.859375 
Q 40.234375 -1.421875 26.421875 -1.421875 
Q 22.703125 -1.421875 18.890625 -0.6875 
Q 15.09375 0.046875 10.984375 1.515625 
z
M 30.609375 32.421875 
Q 37.25 32.421875 41.125 36.953125 
Q 45.015625 41.5 45.015625 49.421875 
Q 45.015625 57.28125 41.125 61.84375 
Q 37.25 66.40625 30.609375 66.40625 
Q 23.96875 66.40625 20.09375 61.84375 
Q 16.21875 57.28125 16.21875 49.421875 
Q 16.21875 41.5 20.09375 36.953125 
Q 23.96875 32.421875 30.609375 32.421875 
z
" id="DejaVuSans-57"/>
      </defs>
      <g transform="translate(495.418438 463.158437)scale(0.1 -0.1)">
       <use xlink:href="#DejaVuSans-48"/>
       <use x="63.623047" xlink:href="#DejaVuSans-46"/>
       <use x="95.410156" xlink:href="#DejaVuSans-57"/>
      </g>
     </g>
    </g>
    <g id="xtick_11">
     <g id="line2d_21">
      <path clip-path="url(#p446f8cd358)" d="M 550.8 448.56 
L 550.8 60.48 
" style="fill:none;stroke:#b0b0b0;stroke-linecap:square;stroke-width:0.8;"/>
     </g>
     <g id="line2d_22">
      <g>
       <use style="stroke:#000000;stroke-width:0.8;" x="550.8" xlink:href="#m388134eac3" y="448.56"/>
      </g>
     </g>
     <g id="text_11">
      <!-- 1.0 -->
      <g transform="translate(542.848438 463.158437)scale(0.1 -0.1)">
       <use xlink:href="#DejaVuSans-49"/>
       <use x="63.623047" xlink:href="#DejaVuSans-46"/>
       <use x="95.410156" xlink:href="#DejaVuSans-48"/>
      </g>
     </g>
    </g>
    <g id="text_12">
     <!-- 1-precision -->
     <defs>
      <path d="M 4.890625 31.390625 
L 31.203125 31.390625 
L 31.203125 23.390625 
L 4.890625 23.390625 
z
" id="DejaVuSans-45"/>
      <path d="M 18.109375 8.203125 
L 18.109375 -20.796875 
L 9.078125 -20.796875 
L 9.078125 54.6875 
L 18.109375 54.6875 
L 18.109375 46.390625 
Q 20.953125 51.265625 25.265625 53.625 
Q 29.59375 56 35.59375 56 
Q 45.5625 56 51.78125 48.09375 
Q 58.015625 40.1875 58.015625 27.296875 
Q 58.015625 14.40625 51.78125 6.484375 
Q 45.5625 -1.421875 35.59375 -1.421875 
Q 29.59375 -1.421875 25.265625 0.953125 
Q 20.953125 3.328125 18.109375 8.203125 
z
M 48.6875 27.296875 
Q 48.6875 37.203125 44.609375 42.84375 
Q 40.53125 48.484375 33.40625 48.484375 
Q 26.265625 48.484375 22.1875 42.84375 
Q 18.109375 37.203125 18.109375 27.296875 
Q 18.109375 17.390625 22.1875 11.75 
Q 26.265625 6.109375 33.40625 6.109375 
Q 40.53125 6.109375 44.609375 11.75 
Q 48.6875 17.390625 48.6875 27.296875 
z
" id="DejaVuSans-112"/>
      <path d="M 41.109375 46.296875 
Q 39.59375 47.171875 37.8125 47.578125 
Q 36.03125 48 33.890625 48 
Q 26.265625 48 22.1875 43.046875 
Q 18.109375 38.09375 18.109375 28.8125 
L 18.109375 0 
L 9.078125 0 
L 9.078125 54.6875 
L 18.109375 54.6875 
L 18.109375 46.1875 
Q 20.953125 51.171875 25.484375 53.578125 
Q 30.03125 56 36.53125 56 
Q 37.453125 56 38.578125 55.875 
Q 39.703125 55.765625 41.0625 55.515625 
z
" id="DejaVuSans-114"/>
      <path d="M 56.203125 29.59375 
L 56.203125 25.203125 
L 14.890625 25.203125 
Q 15.484375 15.921875 20.484375 11.0625 
Q 25.484375 6.203125 34.421875 6.203125 
Q 39.59375 6.203125 44.453125 7.46875 
Q 49.3125 8.734375 54.109375 11.28125 
L 54.109375 2.78125 
Q 49.265625 0.734375 44.1875 -0.34375 
Q 39.109375 -1.421875 33.890625 -1.421875 
Q 20.796875 -1.421875 13.15625 6.1875 
Q 5.515625 13.8125 5.515625 26.8125 
Q 5.515625 40.234375 12.765625 48.109375 
Q 20.015625 56 32.328125 56 
Q 43.359375 56 49.78125 48.890625 
Q 56.203125 41.796875 56.203125 29.59375 
z
M 47.21875 32.234375 
Q 47.125 39.59375 43.09375 43.984375 
Q 39.0625 48.390625 32.421875 48.390625 
Q 24.90625 48.390625 20.390625 44.140625 
Q 15.875 39.890625 15.1875 32.171875 
z
" id="DejaVuSans-101"/>
      <path d="M 48.78125 52.59375 
L 48.78125 44.1875 
Q 44.96875 46.296875 41.140625 47.34375 
Q 37.3125 48.390625 33.40625 48.390625 
Q 24.65625 48.390625 19.8125 42.84375 
Q 14.984375 37.3125 14.984375 27.296875 
Q 14.984375 17.28125 19.8125 11.734375 
Q 24.65625 6.203125 33.40625 6.203125 
Q 37.3125 6.203125 41.140625 7.25 
Q 44.96875 8.296875 48.78125 10.40625 
L 48.78125 2.09375 
Q 45.015625 0.34375 40.984375 -0.53125 
Q 36.96875 -1.421875 32.421875 -1.421875 
Q 20.0625 -1.421875 12.78125 6.34375 
Q 5.515625 14.109375 5.515625 27.296875 
Q 5.515625 40.671875 12.859375 48.328125 
Q 20.21875 56 33.015625 56 
Q 37.15625 56 41.109375 55.140625 
Q 45.0625 54.296875 48.78125 52.59375 
z
" id="DejaVuSans-99"/>
      <path d="M 9.421875 54.6875 
L 18.40625 54.6875 
L 18.40625 0 
L 9.421875 0 
z
M 9.421875 75.984375 
L 18.40625 75.984375 
L 18.40625 64.59375 
L 9.421875 64.59375 
z
" id="DejaVuSans-105"/>
      <path d="M 44.28125 53.078125 
L 44.28125 44.578125 
Q 40.484375 46.53125 36.375 47.5 
Q 32.28125 48.484375 27.875 48.484375 
Q 21.1875 48.484375 17.84375 46.4375 
Q 14.5 44.390625 14.5 40.28125 
Q 14.5 37.15625 16.890625 35.375 
Q 19.28125 33.59375 26.515625 31.984375 
L 29.59375 31.296875 
Q 39.15625 29.25 43.1875 25.515625 
Q 47.21875 21.78125 47.21875 15.09375 
Q 47.21875 7.46875 41.1875 3.015625 
Q 35.15625 -1.421875 24.609375 -1.421875 
Q 20.21875 -1.421875 15.453125 -0.5625 
Q 10.6875 0.296875 5.421875 2 
L 5.421875 11.28125 
Q 10.40625 8.6875 15.234375 7.390625 
Q 20.0625 6.109375 24.8125 6.109375 
Q 31.15625 6.109375 34.5625 8.28125 
Q 37.984375 10.453125 37.984375 14.40625 
Q 37.984375 18.0625 35.515625 20.015625 
Q 33.0625 21.96875 24.703125 23.78125 
L 21.578125 24.515625 
Q 13.234375 26.265625 9.515625 29.90625 
Q 5.8125 33.546875 5.8125 39.890625 
Q 5.8125 47.609375 11.28125 51.796875 
Q 16.75 56 26.8125 56 
Q 31.78125 56 36.171875 55.265625 
Q 40.578125 54.546875 44.28125 53.078125 
z
" id="DejaVuSans-115"/>
      <path d="M 30.609375 48.390625 
Q 23.390625 48.390625 19.1875 42.75 
Q 14.984375 37.109375 14.984375 27.296875 
Q 14.984375 17.484375 19.15625 11.84375 
Q 23.34375 6.203125 30.609375 6.203125 
Q 37.796875 6.203125 41.984375 11.859375 
Q 46.1875 17.53125 46.1875 27.296875 
Q 46.1875 37.015625 41.984375 42.703125 
Q 37.796875 48.390625 30.609375 48.390625 
z
M 30.609375 56 
Q 42.328125 56 49.015625 48.375 
Q 55.71875 40.765625 55.71875 27.296875 
Q 55.71875 13.875 49.015625 6.21875 
Q 42.328125 -1.421875 30.609375 -1.421875 
Q 18.84375 -1.421875 12.171875 6.21875 
Q 5.515625 13.875 5.515625 27.296875 
Q 5.515625 40.765625 12.171875 48.375 
Q 18.84375 56 30.609375 56 
z
" id="DejaVuSans-111"/>
      <path d="M 54.890625 33.015625 
L 54.890625 0 
L 45.90625 0 
L 45.90625 32.71875 
Q 45.90625 40.484375 42.875 44.328125 
Q 39.84375 48.1875 33.796875 48.1875 
Q 26.515625 48.1875 22.3125 43.546875 
Q 18.109375 38.921875 18.109375 30.90625 
L 18.109375 0 
L 9.078125 0 
L 9.078125 54.6875 
L 18.109375 54.6875 
L 18.109375 46.1875 
Q 21.34375 51.125 25.703125 53.5625 
Q 30.078125 56 35.796875 56 
Q 45.21875 56 50.046875 50.171875 
Q 54.890625 44.34375 54.890625 33.015625 
z
" id="DejaVuSans-110"/>
     </defs>
     <g transform="translate(286.110938 476.836563)scale(0.1 -0.1)">
      <use xlink:href="#DejaVuSans-49"/>
      <use x="63.623047" xlink:href="#DejaVuSans-45"/>
      <use x="99.707031" xlink:href="#DejaVuSans-112"/>
      <use x="163.183594" xlink:href="#DejaVuSans-114"/>
      <use x="202.046875" xlink:href="#DejaVuSans-101"/>
      <use x="263.570312" xlink:href="#DejaVuSans-99"/>
      <use x="318.550781" xlink:href="#DejaVuSans-105"/>
      <use x="346.333984" xlink:href="#DejaVuSans-115"/>
      <use x="398.433594" xlink:href="#DejaVuSans-105"/>
      <use x="426.216797" xlink:href="#DejaVuSans-111"/>
      <use x="487.398438" xlink:href="#DejaVuSans-110"/>
     </g>
    </g>
   </g>
   <g id="matplotlib.axis_2">
    <g id="ytick_1">
     <g id="line2d_23">
      <path clip-path="url(#p446f8cd358)" d="M 76.5 448.56 
L 550.8 448.56 
" style="fill:none;stroke:#b0b0b0;stroke-linecap:square;stroke-width:0.8;"/>
     </g>
     <g id="line2d_24">
      <defs>
       <path d="M 0 0 
L -3.5 0 
" id="m758d19bd10" style="stroke:#000000;stroke-width:0.8;"/>
      </defs>
      <g>
       <use style="stroke:#000000;stroke-width:0.8;" x="76.5" xlink:href="#m758d19bd10" y="448.56"/>
      </g>
     </g>
     <g id="text_13">
      <!-- 0.0 -->
      <g transform="translate(53.596875 452.359219)scale(0.1 -0.1)">
       <use xlink:href="#DejaVuSans-48"/>
       <use x="63.623047" xlink:href="#DejaVuSans-46"/>
       <use x="95.410156" xlink:href="#DejaVuSans-48"/>
      </g>
     </g>
    </g>
    <g id="ytick_2">
     <g id="line2d_25">
      <path clip-path="url(#p446f8cd358)" d="M 76.5 409.752 
L 550.8 409.752 
" style="fill:none;stroke:#b0b0b0;stroke-linecap:square;stroke-width:0.8;"/>
     </g>
     <g id="line2d_26">
      <g>
       <use style="stroke:#000000;stroke-width:0.8;" x="76.5" xlink:href="#m758d19bd10" y="409.752"/>
      </g>
     </g>
     <g id="text_14">
      <!-- 0.1 -->
      <g transform="translate(53.596875 413.551219)scale(0.1 -0.1)">
       <use xlink:href="#DejaVuSans-48"/>
       <use x="63.623047" xlink:href="#DejaVuSans-46"/>
       <use x="95.410156" xlink:href="#DejaVuSans-49"/>
      </g>
     </g>
    </g>
    <g id="ytick_3">
     <g id="line2d_27">
      <path clip-path="url(#p446f8cd358)" d="M 76.5 370.944 
L 550.8 370.944 
" style="fill:none;stroke:#b0b0b0;stroke-linecap:square;stroke-width:0.8;"/>
     </g>
     <g id="line2d_28">
      <g>
       <use style="stroke:#000000;stroke-width:0.8;" x="76.5" xlink:href="#m758d19bd10" y="370.944"/>
      </g>
     </g>
     <g id="text_15">
      <!-- 0.2 -->
      <g transform="translate(53.596875 374.743219)scale(0.1 -0.1)">
       <use xlink:href="#DejaVuSans-48"/>
       <use x="63.623047" xlink:href="#DejaVuSans-46"/>
       <use x="95.410156" xlink:href="#DejaVuSans-50"/>
      </g>
     </g>
    </g>
    <g id="ytick_4">
     <g id="line2d_29">
      <path clip-path="url(#p446f8cd358)" d="M 76.5 332.136 
L 550.8 332.136 
" style="fill:none;stroke:#b0b0b0;stroke-linecap:square;stroke-width:0.8;"/>
     </g>
     <g id="line2d_30">
      <g>
       <use style="stroke:#000000;stroke-width:0.8;" x="76.5" xlink:href="#m758d19bd10" y="332.136"/>
      </g>
     </g>
     <g id="text_16">
      <!-- 0.3 -->
      <g transform="translate(53.596875 335.935219)scale(0.1 -0.1)">
       <use xlink:href="#DejaVuSans-48"/>
       <use x="63.623047" xlink:href="#DejaVuSans-46"/>
       <use x="95.410156" xlink:href="#DejaVuSans-51"/>
      </g>
     </g>
    </g>
    <g id="ytick_5">
     <g id="line2d_31">
      <path clip-path="url(#p446f8cd358)" d="M 76.5 293.328 
L 550.8 293.328 
" style="fill:none;stroke:#b0b0b0;stroke-linecap:square;stroke-width:0.8;"/>
     </g>
     <g id="line2d_32">
      <g>
       <use style="stroke:#000000;stroke-width:0.8;" x="76.5" xlink:href="#m758d19bd10" y="293.328"/>
      </g>
     </g>
     <g id="text_17">
      <!-- 0.4 -->
      <g transform="translate(53.596875 297.127219)scale(0.1 -0.1)">
       <use xlink:href="#DejaVuSans-48"/>
       <use x="63.623047" xlink:href="#DejaVuSans-46"/>
       <use x="95.410156" xlink:href="#DejaVuSans-52"/>
      </g>
     </g>
    </g>
    <g id="ytick_6">
     <g id="line2d_33">
      <path clip-path="url(#p446f8cd358)" d="M 76.5 254.52 
L 550.8 254.52 
" style="fill:none;stroke:#b0b0b0;stroke-linecap:square;stroke-width:0.8;"/>
     </g>
     <g id="line2d_34">
      <g>
       <use style="stroke:#000000;stroke-width:0.8;" x="76.5" xlink:href="#m758d19bd10" y="254.52"/>
      </g>
     </g>
     <g id="text_18">
      <!-- 0.5 -->
      <g transform="translate(53.596875 258.319219)scale(0.1 -0.1)">
       <use xlink:href="#DejaVuSans-48"/>
       <use x="63.623047" xlink:href="#DejaVuSans-46"/>
       <use x="95.410156" xlink:href="#DejaVuSans-53"/>
      </g>
     </g>
    </g>
    <g id="ytick_7">
     <g id="line2d_35">
      <path clip-path="url(#p446f8cd358)" d="M 76.5 215.712 
L 550.8 215.712 
" style="fill:none;stroke:#b0b0b0;stroke-linecap:square;stroke-width:0.8;"/>
     </g>
     <g id="line2d_36">
      <g>
       <use style="stroke:#000000;stroke-width:0.8;" x="76.5" xlink:href="#m758d19bd10" y="215.712"/>
      </g>
     </g>
     <g id="text_19">
      <!-- 0.6 -->
      <g transform="translate(53.596875 219.511219)scale(0.1 -0.1)">
       <use xlink:href="#DejaVuSans-48"/>
       <use x="63.623047" xlink:href="#DejaVuSans-46"/>
       <use x="95.410156" xlink:href="#DejaVuSans-54"/>
      </g>
     </g>
    </g>
    <g id="ytick_8">
     <g id="line2d_37">
      <path clip-path="url(#p446f8cd358)" d="M 76.5 176.904 
L 550.8 176.904 
" style="fill:none;stroke:#b0b0b0;stroke-linecap:square;stroke-width:0.8;"/>
     </g>
     <g id="line2d_38">
      <g>
       <use style="stroke:#000000;stroke-width:0.8;" x="76.5" xlink:href="#m758d19bd10" y="176.904"/>
      </g>
     </g>
     <g id="text_20">
      <!-- 0.7 -->
      <g transform="translate(53.596875 180.703219)scale(0.1 -0.1)">
       <use xlink:href="#DejaVuSans-48"/>
       <use x="63.623047" xlink:href="#DejaVuSans-46"/>
       <use x="95.410156" xlink:href="#DejaVuSans-55"/>
      </g>
     </g>
    </g>
    <g id="ytick_9">
     <g id="line2d_39">
      <path clip-path="url(#p446f8cd358)" d="M 76.5 138.096 
L 550.8 138.096 
" style="fill:none;stroke:#b0b0b0;stroke-linecap:square;stroke-width:0.8;"/>
     </g>
     <g id="line2d_40">
      <g>
       <use style="stroke:#000000;stroke-width:0.8;" x="76.5" xlink:href="#m758d19bd10" y="138.096"/>
      </g>
     </g>
     <g id="text_21">
      <!-- 0.8 -->
      <g transform="translate(53.596875 141.895219)scale(0.1 -0.1)">
       <use xlink:href="#DejaVuSans-48"/>
       <use x="63.623047" xlink:href="#DejaVuSans-46"/>
       <use x="95.410156" xlink:href="#DejaVuSans-56"/>
      </g>
     </g>
    </g>
    <g id="ytick_10">
     <g id="line2d_41">
      <path clip-path="url(#p446f8cd358)" d="M 76.5 99.288 
L 550.8 99.288 
" style="fill:none;stroke:#b0b0b0;stroke-linecap:square;stroke-width:0.8;"/>
     </g>
     <g id="line2d_42">
      <g>
       <use style="stroke:#000000;stroke-width:0.8;" x="76.5" xlink:href="#m758d19bd10" y="99.288"/>
      </g>
     </g>
     <g id="text_22">
      <!-- 0.9 -->
      <g transform="translate(53.596875 103.087219)scale(0.1 -0.1)">
       <use xlink:href="#DejaVuSans-48"/>
       <use x="63.623047" xlink:href="#DejaVuSans-46"/>
       <use x="95.410156" xlink:href="#DejaVuSans-57"/>
      </g>
     </g>
    </g>
    <g id="ytick_11">
     <g id="line2d_43">
      <path clip-path="url(#p446f8cd358)" d="M 76.5 60.48 
L 550.8 60.48 
" style="fill:none;stroke:#b0b0b0;stroke-linecap:square;stroke-width:0.8;"/>
     </g>
     <g id="line2d_44">
      <g>
       <use style="stroke:#000000;stroke-width:0.8;" x="76.5" xlink:href="#m758d19bd10" y="60.48"/>
      </g>
     </g>
     <g id="text_23">
      <!-- 1.0 -->
      <g transform="translate(53.596875 64.279219)scale(0.1 -0.1)">
       <use xlink:href="#DejaVuSans-49"/>
       <use x="63.623047" xlink:href="#DejaVuSans-46"/>
       <use x="95.410156" xlink:href="#DejaVuSans-48"/>
      </g>
     </g>
    </g>
    <g id="text_24">
     <!-- #correct/1039 -->
     <defs>
      <path d="M 51.125 44 
L 36.921875 44 
L 32.8125 27.6875 
L 47.125 27.6875 
z
M 43.796875 71.78125 
L 38.71875 51.515625 
L 52.984375 51.515625 
L 58.109375 71.78125 
L 65.921875 71.78125 
L 60.890625 51.515625 
L 76.125 51.515625 
L 76.125 44 
L 58.984375 44 
L 54.984375 27.6875 
L 70.515625 27.6875 
L 70.515625 20.21875 
L 53.078125 20.21875 
L 48 0 
L 40.1875 0 
L 45.21875 20.21875 
L 30.90625 20.21875 
L 25.875 0 
L 18.015625 0 
L 23.09375 20.21875 
L 7.71875 20.21875 
L 7.71875 27.6875 
L 24.90625 27.6875 
L 29 44 
L 13.28125 44 
L 13.28125 51.515625 
L 30.90625 51.515625 
L 35.890625 71.78125 
z
" id="DejaVuSans-35"/>
      <path d="M 18.3125 70.21875 
L 18.3125 54.6875 
L 36.8125 54.6875 
L 36.8125 47.703125 
L 18.3125 47.703125 
L 18.3125 18.015625 
Q 18.3125 11.328125 20.140625 9.421875 
Q 21.96875 7.515625 27.59375 7.515625 
L 36.8125 7.515625 
L 36.8125 0 
L 27.59375 0 
Q 17.1875 0 13.234375 3.875 
Q 9.28125 7.765625 9.28125 18.015625 
L 9.28125 47.703125 
L 2.6875 47.703125 
L 2.6875 54.6875 
L 9.28125 54.6875 
L 9.28125 70.21875 
z
" id="DejaVuSans-116"/>
      <path d="M 25.390625 72.90625 
L 33.6875 72.90625 
L 8.296875 -9.28125 
L 0 -9.28125 
z
" id="DejaVuSans-47"/>
     </defs>
     <g transform="translate(47.517187 290.624688)rotate(-90)scale(0.1 -0.1)">
      <use xlink:href="#DejaVuSans-35"/>
      <use x="83.789062" xlink:href="#DejaVuSans-99"/>
      <use x="138.769531" xlink:href="#DejaVuSans-111"/>
      <use x="199.951172" xlink:href="#DejaVuSans-114"/>
      <use x="239.314453" xlink:href="#DejaVuSans-114"/>
      <use x="278.177734" xlink:href="#DejaVuSans-101"/>
      <use x="339.701172" xlink:href="#DejaVuSans-99"/>
      <use x="394.681641" xlink:href="#DejaVuSans-116"/>
      <use x="433.890625" xlink:href="#DejaVuSans-47"/>
      <use x="467.582031" xlink:href="#DejaVuSans-49"/>
      <use x="531.205078" xlink:href="#DejaVuSans-48"/>
      <use x="594.828125" xlink:href="#DejaVuSans-51"/>
      <use x="658.451172" xlink:href="#DejaVuSans-57"/>
     </g>
    </g>
   </g>
   <g id="line2d_45">
    <path clip-path="url(#p446f8cd358)" d="M 76.5 448.186487 
L 76.5 370.869297 
L 78.769378 370.869297 
L 78.317241 351.446622 
L 78.146875 341.361771 
L 79.782353 341.361771 
L 79.348649 324.927199 
L 80.76018 324.927199 
L 80.553846 318.577478 
L 81.889773 318.577478 
L 81.844225 317.456939 
L 83.161517 317.456939 
L 83.069252 315.589374 
L 84.361326 315.589374 
L 84.233152 313.348296 
L 85.497561 313.348296 
L 85.401072 311.854244 
L 86.645455 311.854244 
L 86.591489 311.107218 
L 87.822812 311.107218 
L 87.703937 309.613167 
L 88.91623 309.613167 
L 88.538071 305.131011 
L 89.708354 305.131011 
L 89.510723 302.889933 
L 91.8 302.889933 
L 91.724444 302.142907 
L 92.855172 302.142907 
L 92.347733 297.287238 
L 94.525653 297.287238 
L 94.230841 294.672647 
L 95.295105 294.672647 
L 95.035862 292.431569 
L 96.081193 292.431569 
L 95.815385 290.190491 
L 99.895964 290.190491 
L 99.739644 289.069952 
L 101.739911 289.069952 
L 101.408534 286.828874 
L 102.389738 286.828874 
L 102.165584 285.334822 
L 104.099353 285.334822 
L 103.980901 284.587796 
L 105.890385 284.587796 
L 105.579704 282.720231 
L 107.454316 282.720231 
L 106.941615 279.732127 
L 107.858678 279.732127 
L 107.794021 279.358614 
L 108.705556 279.358614 
L 108.639425 278.985101 
L 109.545492 278.985101 
L 109.477914 278.611588 
L 111.27556 278.611588 
L 110.925 276.744023 
L 111.81006 276.744023 
L 111.668537 275.996997 
L 114.292829 275.996997 
L 114.068317 274.876458 
L 116.647441 274.876458 
L 116.25614 273.008893 
L 117.101556 273.008893 
L 117.022718 272.63538 
L 118.700774 272.63538 
L 118.619305 272.261867 
L 119.452023 272.261867 
L 119.28714 271.514841 
L 120.937285 271.514841 
L 120.768 270.767815 
L 122.4 270.767815 
L 122.226465 270.020789 
L 123.840678 270.020789 
L 123.663039 269.273763 
L 124.462921 269.273763 
L 124.017996 267.406198 
L 126.380258 267.406198 
L 125.924314 265.538633 
L 126.699635 265.538633 
L 126.33587 264.044581 
L 129.389568 264.044581 
L 129.294614 263.671068 
L 131.552679 263.671068 
L 131.356762 262.924042 
L 133.583894 262.924042 
L 133.483039 262.550529 
L 134.219048 262.550529 
L 133.71451 260.682964 
L 135.890609 260.682964 
L 135.378621 258.815399 
L 136.093632 258.815399 
L 135.991237 258.441886 
L 136.702744 258.441886 
L 136.496923 257.69486 
L 138.610714 257.69486 
L 138.505263 257.321347 
L 139.204068 257.321347 
L 139.09797 256.947834 
L 140.486509 256.947834 
L 139.951505 255.080269 
L 144.705124 255.080269 
L 144.592574 254.706756 
L 145.261779 254.706756 
L 145.035961 253.959731 
L 145.701148 253.959731 
L 145.587889 253.586218 
L 146.25 253.586218 
L 146.022801 252.839192 
L 149.292407 252.839192 
L 149.175 252.465679 
L 149.821739 252.465679 
L 149.703859 252.092166 
L 150.347673 252.092166 
L 150.229327 251.718653 
L 150.87024 251.718653 
L 150.751438 251.34514 
L 152.659459 251.34514 
L 152.538571 250.971627 
L 153.798892 250.971627 
L 153.192151 249.104062 
L 156.288785 249.104062 
L 156.040994 248.357036 
L 157.871406 248.357036 
L 157.745833 247.983523 
L 158.351464 247.983523 
L 157.974847 246.862984 
L 158.576417 246.862984 
L 158.450917 246.489471 
L 159.049924 246.489471 
L 158.79863 245.742445 
L 159.394377 245.742445 
L 159.268589 245.368932 
L 159.861818 245.368932 
L 159.60997 244.621906 
L 161.374737 244.621906 
L 161.247297 244.248393 
L 162.99417 244.248393 
L 162.736364 243.501367 
L 163.889599 243.501367 
L 163.759941 243.127854 
L 164.90503 243.127854 
L 164.774446 242.754341 
L 168.165593 242.754341 
L 167.764723 241.633802 
L 168.878198 241.633802 
L 168.744122 241.260289 
L 169.297826 241.260289 
L 169.163531 240.886776 
L 170.813256 240.886776 
L 170.407317 239.766237 
L 172.037571 239.766237 
L 171.494744 238.272185 
L 172.032766 238.272185 
L 171.627966 237.151646 
L 172.162764 237.151646 
L 172.028028 236.778133 
L 173.091994 236.778133 
L 172.956522 236.40462 
L 175.064435 236.40462 
L 174.790264 235.657594 
L 175.3125 235.657594 
L 174.90249 234.537055 
L 176.970702 234.537055 
L 176.557808 233.416516 
L 177.069767 233.416516 
L 176.795362 232.66949 
L 179.831935 232.66949 
L 179.692297 232.295977 
L 180.193117 232.295977 
L 180.053369 231.922464 
L 180.552355 231.922464 
L 180.27302 231.175438 
L 181.26506 231.175438 
L 181.125 230.801925 
L 181.618558 230.801925 
L 181.4784 230.428412 
L 182.949801 230.428412 
L 182.808621 230.054899 
L 189.045763 230.054899 
L 188.899219 229.681386 
L 189.369831 229.681386 
L 189.223247 229.307873 
L 192.94126 229.307873 
L 192.791784 228.93436 
L 193.250769 228.93436 
L 192.952174 228.187334 
L 201.87606 228.187334 
L 201.564179 227.440308 
L 203.722621 227.440308 
L 203.565556 227.066795 
L 203.993711 227.066795 
L 203.8367 226.693282 
L 205.113865 226.693282 
L 204.95625 226.319769 
L 205.801834 226.319769 
L 205.486463 225.572743 
L 207.162743 225.572743 
L 207.004364 225.19923 
L 209.486643 225.19923 
L 209.167347 224.452204 
L 209.576978 224.452204 
L 209.417605 224.078691 
L 209.825957 224.078691 
L 209.666667 223.705178 
L 210.073747 223.705178 
L 209.914541 223.331665 
L 210.725208 223.331665 
L 210.406762 222.584639 
L 211.61383 222.584639 
L 211.454309 222.211126 
L 213.049354 222.211126 
L 212.729191 221.4641 
L 213.914019 221.4641 
L 213.434109 220.343561 
L 216.547059 220.343561 
L 216.385714 219.970048 
L 218.301031 219.970048 
L 218.138787 219.596535 
L 218.518971 219.596535 
L 218.356849 219.223022 
L 219.491468 219.223022 
L 219.328977 218.849509 
L 219.705221 218.849509 
L 219.542857 218.475996 
L 221.038375 218.475996 
L 220.875423 218.102483 
L 221.246959 218.102483 
L 221.084139 217.72897 
L 222.193049 217.72897 
L 222.029899 217.355457 
L 222.397651 217.355457 
L 222.234637 216.981944 
L 222.601339 216.981944 
L 222.438462 216.608431 
L 222.80412 216.608431 
L 222.641379 216.234918 
L 224.095017 216.234918 
L 223.931748 215.861405 
L 224.292928 215.861405 
L 224.129801 215.487892 
L 224.489967 215.487892 
L 224.326982 215.114379 
L 225.044505 215.114379 
L 224.881449 214.740866 
L 229.466883 214.740866 
L 229.301514 214.367353 
L 230.685791 214.367353 
L 230.52 213.99384 
L 230.864017 213.99384 
L 230.698391 213.620327 
L 231.725455 213.620327 
L 231.559615 213.246814 
L 232.240299 213.246814 
L 232.074441 212.873301 
L 234.766948 212.873301 
L 234.6 212.499788 
L 235.265684 212.499788 
L 235.098738 212.126275 
L 236.749895 212.126275 
L 236.415344 211.379249 
L 236.74317 211.379249 
L 236.57625 211.005736 
L 237.55514 211.005736 
L 237.388071 210.632223 
L 239.005263 210.632223 
L 238.670546 209.885197 
L 241.537041 209.885197 
L 241.368807 209.511684 
L 241.68391 209.511684 
L 241.180812 208.391145 
L 242.433064 208.391145 
L 242.265455 208.017632 
L 244.124096 208.017632 
L 243.955968 207.644119 
L 244.8765 207.644119 
L 244.708292 207.270606 
L 245.926567 207.270606 
L 245.758151 206.897093 
L 246.665114 206.897093 
L 246.496634 206.52358 
L 247.098024 206.52358 
L 246.761538 205.776554 
L 247.360039 205.776554 
L 247.192035 205.403041 
L 247.787929 205.403041 
L 247.62 205.029528 
L 250.854704 205.029528 
L 250.685756 204.656015 
L 250.976283 204.656015 
L 250.807544 204.282502 
L 251.963584 204.282502 
L 251.794706 203.908989 
L 254.927143 203.908989 
L 254.587928 203.161963 
L 257.100566 203.161963 
L 256.760771 202.414937 
L 257.588274 202.414937 
L 257.418557 202.041424 
L 257.693258 202.041424 
L 257.523761 201.667911 
L 258.617055 201.667911 
L 258.278233 200.920885 
L 260.439058 200.920885 
L 260.269373 200.547372 
L 261.3375 200.547372 
L 261.167769 200.173859 
L 262.227722 200.173859 
L 262.057952 199.800346 
L 266.22 199.800346 
L 266.049235 199.426833 
L 269.091986 199.426833 
L 268.920641 199.053321 
L 270.665252 199.053321 
L 270.493728 198.679808 
L 270.988095 198.679808 
L 270.81674 198.306295 
L 271.063204 198.306295 
L 270.892084 197.932782 
L 273.574129 197.932782 
L 273.402611 197.559269 
L 273.643826 197.559269 
L 273.472546 197.185756 
L 274.910717 197.185756 
L 274.739378 196.812243 
L 275.926225 196.812243 
L 275.754897 196.43873 
L 277.399061 196.43873 
L 277.227645 196.065217 
L 286.474526 196.065217 
L 286.301565 195.691704 
L 287.602377 195.691704 
L 287.429484 195.318191 
L 290.625728 195.318191 
L 290.452627 194.944678 
L 294.594988 194.944678 
L 294.421622 194.571165 
L 297.84 194.571165 
L 297.666536 194.197652 
L 300.607668 194.197652 
L 300.434211 193.824139 
L 309.041704 193.824139 
L 308.868036 193.450626 
L 315.030786 193.450626 
L 314.857309 193.077113 
L 317.403453 193.077113 
L 317.230266 192.7036 
L 320.37766 192.7036 
L 320.204819 192.330087 
L 321.019068 192.330087 
L 320.846507 191.956574 
L 321.170613 191.956574 
L 320.826249 191.209548 
L 321.149473 191.209548 
L 320.806105 190.462522 
L 321.449895 190.462522 
L 321.278601 190.089009 
L 322.8725 190.089009 
L 322.701527 189.715496 
L 327.505231 189.715496 
L 327.334827 189.341983 
L 331.064219 189.341983 
L 330.894396 188.96847 
L 331.916534 188.96847 
L 331.747047 188.594957 
L 332.61573 188.594957 
L 332.446565 188.221444 
L 333.451479 188.221444 
L 333.282654 187.847931 
L 338.581154 187.847931 
L 338.413261 187.474418 
L 339.765181 187.474418 
L 339.59771 187.100905 
L 340.133756 187.100905 
L 339.966582 186.727392 
L 344.799814 186.727392 
L 344.633684 186.353879 
L 346.405525 186.353879 
L 346.239939 185.980366 
L 352.328036 185.980366 
L 352.16395 185.606853 
L 352.282045 185.606853 
L 355.418373 185.606853 
L 355.255263 185.23334 
L 355.36955 185.23334 
L 355.71161 185.23334 
L 355.548805 184.859827 
L 355.662587 184.859827 
L 356.003141 184.859827 
L 355.84064 184.486314 
L 355.953922 184.486314 
L 357.6375 184.486314 
L 357.475648 184.112801 
L 357.586881 184.112801 
L 358.251606 184.112801 
L 358.090143 183.739288 
L 358.200515 183.739288 
L 360.812034 183.739288 
L 360.651496 183.365775 
L 360.758804 183.365775 
L 363.506897 183.365775 
L 363.34736 182.992262 
L 363.4515 182.992262 
L 366.119113 182.992262 
L 365.960591 182.618749 
L 366.061707 182.618749 
L 367.166721 182.618749 
L 367.00875 182.245236 
L 367.108582 182.245236 
L 370.6317 182.245236 
L 370.47508 181.871723 
L 370.571048 181.871723 
L 372.09277 181.871723 
L 371.936867 181.49821 
L 372.031154 181.49821 
L 373.526346 181.49821 
L 373.30882 180.751184 
L 377.910778 180.751184 
L 377.757622 180.377671 
L 377.845505 180.377671 
L 380.013942 180.377671 
L 379.70982 179.630645 
L 379.795493 179.630645 
L 384.216585 179.630645 
L 384.066553 179.257132 
L 384.147807 179.257132 
L 392.846051 179.257132 
L 392.7 178.883619 
L 392.772958 178.883619 
L 394.859836 178.883619 
L 394.714929 178.510106 
L 394.785942 178.510106 
L 394.998592 178.510106 
L 394.853951 178.136593 
L 394.924739 178.136593 
L 396.048671 178.136593 
L 395.90473 177.76308 
L 395.974471 177.76308 
L 397.21916 177.76308 
L 397.075982 177.389567 
L 397.144578 177.389567 
L 398.503759 177.389567 
L 398.361406 177.016054 
L 398.428767 177.016054 
L 404.319074 177.016054 
L 404.179873 176.642541 
L 404.242105 176.642541 
L 405.659016 176.642541 
L 405.520714 176.269028 
L 405.58173 176.269028 
L 406.731375 176.269028 
L 406.593836 175.895515 
L 406.653872 175.895515 
L 415.179553 175.895515 
L 414.967606 175.148489 
L 415.020727 175.148489 
L 418.939916 175.148489 
L 418.809909 174.774976 
L 418.910053 174.774976 
L 422.889073 174.774976 
L 422.761677 174.401463 
L 422.855788 174.401463 
L 426.109384 174.401463 
L 425.984211 174.02795 
L 426.073524 174.02795 
L 426.95968 174.02795 
L 426.835227 173.654437 
L 426.923208 173.654437 
L 427.404878 173.654437 
L 427.280883 173.280924 
L 427.368114 173.280924 
L 427.62907 173.280924 
L 427.505389 172.907411 
L 427.592186 172.907411 
L 429.218409 172.907411 
L 429.095938 172.533898 
L 429.180396 172.533898 
L 429.222581 172.533898 
L 429.100277 172.160385 
L 429.184615 172.160385 
L 429.436929 172.160385 
L 429.314933 171.786872 
L 429.39886 171.786872 
L 439.297367 171.786872 
L 439.182303 171.413359 
L 439.288403 171.413359 
L 439.5 171.413359 
L 439.385236 171.039846 
L 439.490809 171.039846 
L 441.391462 171.039846 
L 441.278212 170.666333 
L 441.380093 170.666333 
L 442.58804 170.666333 
L 442.475812 170.29282 
L 442.575345 170.29282 
L 444.528271 170.29282 
L 444.417619 169.919307 
L 444.513488 169.919307 
L 450.593883 169.919307 
L 450.487967 169.545794 
L 450.601442 169.545794 
L 450.629771 169.545794 
L 450.524025 169.172281 
L 450.637267 169.172281 
L 456.469662 169.172281 
L 456.36866 168.798768 
L 456.468959 168.798768 
L 456.544044 168.798768 
L 456.443236 168.425255 
L 456.543243 168.425255 
L 459.611843 168.425255 
L 459.51366 168.051742 
L 459.607143 168.051742 
L 462.588187 168.051742 
L 462.492597 167.678229 
L 462.60178 167.678229 
L 462.992614 167.678229 
L 462.89749 167.304716 
L 463.005531 167.304716 
L 464.469833 167.304716 
L 464.376075 166.931203 
L 464.480377 166.931203 
L 466.255745 166.931203 
L 466.163626 166.55769 
L 466.263527 166.55769 
L 468.949371 166.55769 
L 468.859689 166.184177 
L 468.971885 166.184177 
L 469.546703 166.184177 
L 469.457657 165.810664 
L 469.568077 165.810664 
L 472.268701 165.810664 
L 472.182156 165.437151 
L 472.285171 165.437151 
L 473.015621 165.437151 
L 472.929851 165.063638 
L 473.030784 165.063638 
L 473.248578 165.063638 
L 473.163127 164.690125 
L 473.263325 164.690125 
L 473.908362 164.690125 
L 473.823608 164.316612 
L 473.921981 164.316612 
L 474.003766 164.316612 
L 473.919209 163.943099 
L 474.017208 163.943099 
L 474.422866 163.943099 
L 474.335514 163.196073 
L 474.367771 163.196073 
L 474.383889 163.196073 
L 474.3 162.82256 
L 474.412737 162.82256 
L 475.443925 162.82256 
L 475.361088 162.449047 
L 475.470578 162.449047 
L 479.729225 162.449047 
L 479.650362 162.075534 
L 479.761511 162.075534 
L 480.746447 162.075534 
L 480.668618 161.702021 
L 480.776471 161.702021 
L 481.666882 161.702021 
L 481.666882 161.702021 
" style="fill:none;stroke:#1f77b4;stroke-linecap:square;stroke-width:2;"/>
   </g>
   <g id="line2d_46">
    <path clip-path="url(#p446f8cd358)" d="M 76.5 448.186487 
L 76.5 445.945409 
L 135.7875 445.945409 
L 123.93 445.198383 
L 116.025 444.451357 
L 110.378571 443.704331 
L 106.14375 442.957305 
L 102.85 442.210279 
L 99.085714 441.08974 
L 96.2625 439.969201 
L 94.742308 439.222175 
L 111.633333 439.222175 
L 108.12 438.101636 
L 106.14375 437.35461 
L 119.618182 437.35461 
L 116.025 436.234071 
L 112.0725 434.740019 
L 111.204878 434.366506 
L 121.671429 434.366506 
L 117.743478 432.872454 
L 116.865957 432.498941 
L 134.577551 432.498941 
L 132.3 431.751915 
L 148.092453 431.751915 
L 144.257143 430.631376 
L 151.389474 430.631376 
L 146.478689 429.137324 
L 153 429.137324 
L 147.291045 427.269759 
L 153.225 427.269759 
L 151.032857 426.522733 
L 162.1375 426.522733 
L 160.964384 426.14922 
L 166.232432 426.14922 
L 162.736364 425.028681 
L 167.711538 425.028681 
L 164.333333 423.908142 
L 178.135714 423.908142 
L 172.425843 422.040577 
L 171.36 421.667064 
L 187.506383 421.667064 
L 185.19375 420.920038 
L 192.655102 420.920038 
L 189.20495 419.7995 
L 192.75 419.7995 
L 191.621359 419.425987 
L 217.508108 419.425987 
L 215.012389 418.678961 
L 220.852174 418.678961 
L 213.694215 416.437883 
L 221.85 416.437883 
L 220.6872 416.06437 
L 225.885827 416.06437 
L 224.71875 415.690857 
L 229.735385 415.690857 
L 228.565649 415.317344 
L 233.411278 415.317344 
L 231.086667 414.570318 
L 233.4375 414.570318 
L 231.163043 413.823292 
L 240.166901 413.823292 
L 239.022378 413.449779 
L 249.555405 413.449779 
L 247.248 412.702753 
L 264.430189 412.702753 
L 262.095652 411.955727 
L 269.094545 411.955727 
L 266.788024 411.208701 
L 275.044186 411.208701 
L 271.640571 410.088162 
L 276.345506 410.088162 
L 275.22905 409.714649 
L 285.6 409.714649 
L 284.481818 409.341136 
L 291.417188 409.341136 
L 290.303627 408.967623 
L 292.975385 408.967623 
L 290.777665 408.220597 
L 299.7 408.220597 
L 297.53301 407.473571 
L 299.968269 407.473571 
L 298.899043 407.100058 
L 315.767411 407.100058 
L 314.704 406.726545 
L 318.827948 406.726545 
L 317.774348 406.353032 
L 318.783117 406.353032 
L 317.738793 405.979519 
L 322.655696 405.979519 
L 321.621429 405.606006 
L 322.580335 405.606006 
L 321.555 405.232493 
L 334.190551 405.232493 
L 333.18 404.85898 
L 340.598864 404.85898 
L 339.602264 404.485467 
L 348.019565 404.485467 
L 347.03935 404.111954 
L 349.2225 404.111954 
L 348.251957 403.738441 
L 349.683392 403.738441 
L 348.721479 403.364928 
L 350.134615 403.364928 
L 349.181185 402.991415 
L 353.981633 402.991415 
L 353.041017 402.617902 
L 360.77101 402.617902 
L 359.848052 402.244389 
L 366.432602 402.244389 
L 365.526563 401.870876 
L 366.677329 401.870876 
L 365.778947 401.497363 
L 367.481595 401.497363 
L 366.591743 401.12385 
L 369.365964 401.12385 
L 368.486486 400.750337 
L 372.24 400.750337 
L 370.510526 400.003311 
L 371.558721 400.003311 
L 370.703478 399.629798 
L 373.276286 399.629798 
L 372.430769 399.256285 
L 376.89 399.256285 
L 376.057895 398.882772 
L 377.972877 398.882772 
L 376.329973 398.135746 
L 385.346512 398.135746 
L 384.550515 397.762233 
L 386.665649 397.762233 
L 385.878426 397.38872 
L 386.295949 397.38872 
L 385.513636 397.015207 
L 386.756391 397.015207 
L 385.98075 396.641694 
L 387.207692 396.641694 
L 386.438614 396.268181 
L 388.843902 396.268181 
L 388.083942 395.894668 
L 389.263043 395.894668 
L 388.509398 395.521155 
L 388.899519 395.521155 
L 388.15036 395.147642 
L 390.077488 395.147642 
L 389.33617 394.774129 
L 389.716981 394.774129 
L 388.98 394.400616 
L 393.782877 394.400616 
L 393.060137 394.027103 
L 394.484424 394.027103 
L 393.768243 393.65359 
L 394.121124 393.65359 
L 393.408969 393.280077 
L 397.866667 393.280077 
L 397.168043 392.906564 
L 402.643396 392.906564 
L 401.281628 392.159538 
L 408.979604 392.159538 
L 408.32253 391.786025 
L 415.030508 391.786025 
L 414.394173 391.412512 
L 416.663401 391.412512 
L 416.035793 391.038999 
L 416.53125 391.038999 
L 415.907339 390.665486 
L 416.890164 390.665486 
L 416.271273 390.291973 
L 418.909091 390.291973 
L 417.692718 389.544947 
L 418.398233 389.544947 
L 417.795238 389.171434 
L 425.735821 389.171434 
L 425.157616 388.797921 
L 431.291339 388.797921 
L 430.733491 388.424408 
L 430.921978 388.424408 
L 431.483906 388.424408 
L 430.930109 388.050895 
L 431.116822 388.050895 
L 433.671037 388.050895 
L 433.127397 387.677382 
L 433.306231 387.677382 
L 433.662273 387.677382 
L 433.121936 387.303869 
L 433.299698 387.303869 
L 434.529148 387.303869 
L 433.994776 386.930356 
L 434.168852 386.930356 
L 434.687982 386.930356 
L 434.157333 386.556843 
L 434.329882 386.556843 
L 438.64359 386.556843 
L 438.12845 386.18333 
L 438.288494 386.18333 
L 443.906478 386.18333 
L 443.411321 385.809817 
L 443.555855 385.809817 
L 445.539234 385.809817 
L 444.706579 385.062791 
L 444.985039 385.062791 
L 443.54 383.942252 
L 443.680026 383.942252 
L 446.139413 383.942252 
L 445.668535 383.568739 
L 445.80229 383.568739 
L 450.032967 383.568739 
L 449.577439 383.195226 
L 449.700731 383.195226 
L 451.869726 383.195226 
L 451.422857 382.821713 
L 451.541023 382.821713 
L 459.767503 382.821713 
L 459.35 382.4482 
L 459.44951 382.4482 
L 463.532744 382.4482 
L 463.130841 382.074687 
L 463.221784 382.074687 
L 465.262614 382.074687 
L 464.86913 381.701174 
L 464.956016 381.701174 
L 469.711461 381.701174 
L 469.039714 380.954148 
L 469.117507 380.954148 
L 469.427204 380.954148 
L 469.055114 380.580635 
L 469.209641 380.580635 
L 469.669737 380.580635 
L 469.300563 380.207122 
L 469.453327 380.207122 
L 470.208635 380.207122 
L 469.478869 379.460096 
L 469.629325 379.460096 
L 471.103815 379.460096 
L 470.745735 379.086583 
L 470.890761 379.086583 
L 471.82077 379.086583 
L 471.467174 378.71307 
L 471.608839 378.71307 
L 472.655419 378.71307 
L 472.30669 378.339557 
L 472.44464 378.339557 
L 473.127178 378.339557 
L 472.781984 377.966044 
L 472.91755 377.966044 
L 474.182308 377.966044 
L 473.842699 377.592531 
L 473.973913 377.592531 
L 474.169898 377.592531 
L 473.832031 377.219018 
L 473.962595 377.219018 
L 474.351646 377.219018 
L 474.016189 376.845505 
L 474.145455 376.845505 
L 474.594477 376.845505 
L 474.261622 376.471992 
L 474.389399 376.471992 
L 474.643677 376.471992 
L 474.312718 376.098479 
L 474.439668 376.098479 
L 476.173723 376.098479 
L 475.849838 375.724966 
L 475.971117 375.724966 
L 476.8092 375.724966 
L 476.489209 375.351453 
L 476.607821 375.351453 
L 477.136926 375.351453 
L 476.819715 374.97794 
L 476.93668 374.97794 
L 477.802266 374.97794 
L 477.488993 374.604427 
L 477.603274 374.604427 
L 479.330137 374.604427 
L 479.023802 374.230914 
L 479.132802 374.230914 
L 480.257623 374.230914 
L 479.956087 373.857401 
L 480.061745 373.857401 
L 481.203522 373.857401 
L 480.906818 373.483888 
L 481.009151 373.483888 
L 481.364967 373.483888 
L 481.070306 373.110375 
L 481.171657 373.110375 
L 481.674026 373.110375 
L 481.381903 372.736862 
L 481.481857 372.736862 
L 482.562651 372.736862 
L 482.275071 372.363349 
L 482.371994 372.363349 
L 483.420334 372.363349 
L 483.137161 371.989836 
L 483.231202 371.989836 
L 485.280121 371.989836 
L 485.004848 371.616323 
L 485.1375 371.616323 
L 486.604336 371.616323 
L 486.335062 371.24281 
L 486.461796 371.24281 
L 488.065112 371.24281 
L 487.802299 370.869297 
L 487.922753 370.869297 
L 488.042748 370.869297 
L 487.781119 370.495784 
L 487.901079 370.495784 
L 488.611355 370.495784 
L 488.094925 369.748758 
L 488.21257 369.748758 
L 488.870978 369.748758 
L 488.615955 369.375245 
L 488.731111 369.375245 
L 489.859636 369.375245 
L 489.609267 369.001732 
L 489.720254 369.001732 
L 490.341652 369.001732 
L 489.919701 368.254706 
L 489.956026 368.254706 
L 492.126525 368.254706 
L 491.887522 367.881193 
L 491.988978 367.881193 
L 492.391334 367.881193 
L 492.154359 367.50768 
L 492.254437 367.50768 
L 494.434666 367.50768 
L 494.205911 367.134167 
L 494.329547 367.134167 
L 494.849026 367.134167 
L 494.622769 366.760654 
L 494.744037 366.760654 
L 494.985008 366.760654 
L 494.596086 366.013628 
L 494.656294 366.013628 
L 494.866009 366.013628 
L 494.64288 365.640115 
L 494.762427 365.640115 
L 494.970414 365.640115 
L 494.748649 365.266603 
L 494.867213 365.266603 
L 497.246127 365.266603 
L 497.033198 364.89309 
L 497.141818 364.89309 
L 497.222995 364.89309 
L 496.669231 363.772551 
L 496.696432 363.772551 
L 497.127966 363.772551 
L 496.762836 363.025525 
L 496.816551 363.025525 
L 497.321566 363.025525 
L 497.114469 362.652012 
L 497.219941 362.652012 
L 497.246244 362.652012 
L 497.039794 362.278499 
L 497.145103 362.278499 
L 497.406579 362.278499 
L 497.201559 361.904986 
L 497.305785 361.904986 
L 497.409607 361.904986 
L 497.20548 361.531473 
L 497.309245 361.531473 
L 497.618142 361.531473 
L 497.415584 361.15796 
L 497.518099 361.15796 
L 497.92425 361.15796 
L 497.723571 360.784447 
L 497.849644 360.784447 
L 498.715654 360.784447 
L 498.518449 360.410934 
L 498.640261 360.410934 
L 498.737302 360.410934 
L 498.541004 360.037421 
L 498.662199 360.037421 
L 499.982143 360.037421 
L 499.599593 359.290395 
L 499.714962 359.290395 
L 500.862687 359.290395 
L 500.675826 358.916882 
L 500.78594 358.916882 
L 501.924088 358.916882 
L 501.741502 358.543369 
L 501.846552 358.543369 
L 502.61016 358.543369 
L 502.353216 357.796343 
L 502.373571 357.796343 
L 502.996226 357.796343 
L 502.642727 357.049317 
L 502.762174 357.049317 
L 503.175615 357.049317 
L 502.94375 356.302291 
L 504.403129 356.302291 
L 504.233729 355.928778 
L 504.344076 355.928778 
L 504.41735 355.928778 
L 504.153659 355.181752 
L 504.19033 355.181752 
L 504.372827 355.181752 
L 504.205362 354.808239 
L 504.314526 354.808239 
L 504.513336 354.808239 
L 504.235041 354.061213 
L 504.289186 354.061213 
L 505.173422 354.061213 
L 505.01049 353.6877 
L 505.114676 353.6877 
L 505.321631 353.6877 
L 505.101543 352.940674 
L 505.118736 352.940674 
L 506.502007 352.940674 
L 506.285849 352.193648 
L 506.302036 352.193648 
L 506.892788 352.193648 
L 506.738415 351.820135 
L 506.848766 351.820135 
L 507.772434 351.820135 
L 507.621429 351.446622 
L 507.727 351.446622 
L 507.772087 351.446622 
L 507.62166 351.073109 
L 507.726827 351.073109 
L 507.816563 351.073109 
L 507.472941 349.95257 
L 508.079017 349.95257 
L 507.931821 349.579057 
L 508.048469 349.579057 
L 508.608157 349.579057 
L 508.375176 348.832031 
L 508.43195 348.832031 
L 508.727542 348.832031 
L 508.583992 348.458518 
L 508.69586 348.458518 
L 509.516336 348.458518 
L 509.375747 348.085005 
L 509.483063 348.085005 
L 509.867469 348.085005 
L 509.72848 347.711492 
L 509.84669 347.711492 
L 510.3 347.711492 
L 510.162852 347.337979 
L 510.278153 347.337979 
L 511.128611 347.337979 
L 510.994508 346.964466 
L 511.104738 346.964466 
L 511.190052 346.964466 
L 511.05663 346.590953 
L 511.166116 346.590953 
L 511.178244 346.590953 
L 510.98544 345.843927 
L 511.021866 345.843927 
L 511.033994 345.843927 
L 510.901554 345.470414 
L 511.010699 345.470414 
L 511.131273 345.470414 
L 510.999606 345.096901 
L 511.107825 345.096901 
L 511.883797 345.096901 
L 511.649201 344.349875 
L 511.741647 344.349875 
L 512.197404 344.349875 
L 512.070341 343.976362 
L 512.18296 343.976362 
L 512.384032 343.976362 
L 512.257981 343.602849 
L 512.369118 343.602849 
L 512.611375 343.602849 
L 512.486451 343.229336 
L 512.595887 343.229336 
L 512.812894 343.229336 
L 512.597731 342.48231 
L 512.673422 342.48231 
L 512.802482 342.48231 
L 512.679442 342.108797 
L 512.786642 342.108797 
L 512.818685 342.108797 
L 512.67 341.361771 
L 512.680678 341.361771 
L 512.776508 341.361771 
L 512.532915 340.614745 
L 512.639449 340.614745 
L 512.903207 340.614745 
L 512.662034 339.867719 
L 512.777603 339.867719 
L 513.140709 339.867719 
L 513.021604 339.494206 
L 513.134621 339.494206 
L 513.378871 339.494206 
L 513.260859 339.120693 
L 513.372071 339.120693 
L 513.957503 339.120693 
L 513.841558 338.74718 
L 513.948996 338.74718 
L 513.997625 338.74718 
L 513.88219 338.373667 
L 513.989029 338.373667 
L 514.607941 338.373667 
L 514.494647 338.000154 
L 514.606961 338.000154 
L 514.847939 338.000154 
L 514.735714 337.626641 
L 514.846172 337.626641 
L 515.424033 337.626641 
L 515.301702 336.879615 
L 515.319465 336.879615 
L 515.688413 336.879615 
L 515.579703 336.506102 
L 515.692672 336.506102 
L 515.744568 336.506102 
L 515.407953 335.01205 
L 515.425319 335.01205 
L 515.46 335.01205 
L 515.27104 334.265024 
L 515.357802 334.265024 
L 516.111711 334.265024 
L 515.934988 333.517998 
L 516.009717 333.517998 
L 516.289157 333.517998 
L 516.106041 332.770972 
L 516.195858 332.770972 
L 516.502589 332.770972 
L 516.299442 331.650433 
L 516.307458 331.650433 
L 516.355476 331.650433 
L 516.12991 330.529894 
L 516.16196 330.529894 
L 516.193951 330.529894 
L 516.063151 329.782868 
L 516.103106 329.782868 
L 516.722413 329.782868 
L 516.622973 329.409355 
L 516.730714 329.409355 
L 517.289103 329.409355 
L 517.041247 328.288816 
L 517.108273 328.288816 
L 517.145394 328.288816 
L 516.97363 327.54179 
L 517.062744 327.54179 
L 517.15139 327.54179 
L 517.039782 326.794764 
L 517.069241 326.794764 
L 517.157311 326.794764 
L 517.061453 326.421251 
L 517.171184 326.421251 
L 517.23668 326.421251 
L 517.141324 326.047738 
L 517.250205 326.047738 
L 517.75616 326.047738 
L 517.662455 325.674225 
L 517.774667 325.674225 
L 517.795622 325.674225 
L 517.616043 324.927199 
L 517.720923 324.927199 
L 517.832066 324.927199 
L 517.681547 324.180173 
L 517.757762 324.180173 
L 518.106582 324.180173 
L 518.012031 323.433147 
L 518.032316 323.433147 
L 518.25381 323.433147 
L 518.163342 323.059634 
L 518.276571 323.059634 
L 518.402196 323.059634 
L 518.282069 322.312608 
L 518.334751 322.312608 
L 518.485265 322.312608 
L 518.309783 321.192069 
L 518.329352 321.192069 
L 518.37492 321.192069 
L 518.28635 320.818556 
L 518.396764 320.818556 
L 518.50643 320.818556 
L 518.418451 320.445043 
L 518.527653 320.445043 
L 518.988326 320.445043 
L 518.921274 319.698017 
L 518.927483 319.698017 
L 519.186109 319.698017 
L 519.100599 319.324504 
L 519.210433 319.324504 
L 519.228665 319.324504 
L 519.143508 318.950991 
L 519.252731 318.950991 
L 519.564073 318.950991 
L 519.564073 318.950991 
" style="fill:none;stroke:#ff7f0e;stroke-linecap:square;stroke-width:2;"/>
   </g>
   <g id="line2d_47">
    <path clip-path="url(#p446f8cd358)" d="M 76.5 448.186487 
L 76.5 395.894668 
L 79.840141 395.894668 
L 79.816783 395.521155 
L 83.0875 395.521155 
L 82.284146 388.050895 
L 81.920571 383.942252 
L 84.584659 383.942252 
L 84.109091 379.833609 
L 89.047619 379.833609 
L 88.787565 378.339557 
L 91.169072 378.339557 
L 90.051429 372.363349 
L 92.235071 372.363349 
L 92.014486 371.24281 
L 94.148372 371.24281 
L 93.905505 370.122271 
L 95.991781 370.122271 
L 95.903182 369.748758 
L 97.961538 369.748758 
L 97.769058 369.001732 
L 99.791518 369.001732 
L 99.585398 368.254706 
L 101.573128 368.254706 
L 101.354148 367.50768 
L 103.308261 367.50768 
L 103.077155 366.760654 
L 104.998712 366.760654 
L 104.636441 365.640115 
L 106.518987 365.640115 
L 106.392857 365.266603 
L 108.252301 365.266603 
L 106.977108 361.531473 
L 108.7524 361.531473 
L 108.623904 361.15796 
L 110.378571 361.15796 
L 109.462934 358.543369 
L 112.844828 358.543369 
L 111.247253 354.061213 
L 112.85146 354.061213 
L 112.588043 353.314187 
L 117.3 353.314187 
L 116.58169 351.446622 
L 118.105263 351.446622 
L 117.95979 351.073109 
L 119.467944 351.073109 
L 119.170588 350.326083 
L 120.658966 350.326083 
L 119.763851 348.085005 
L 121.215152 348.085005 
L 120.042295 345.096901 
L 121.45 345.096901 
L 121.303583 344.723388 
L 124.083495 344.723388 
L 123.93 344.349875 
L 125.302572 344.349875 
L 125.146154 343.976362 
L 126.50607 343.976362 
L 125.412188 341.361771 
L 128.054348 341.361771 
L 127.736111 340.614745 
L 131.617431 340.614745 
L 131.282371 339.867719 
L 132.553636 339.867719 
L 132.38429 339.494206 
L 133.644578 339.494206 
L 132.964286 338.000154 
L 136.661947 338.000154 
L 136.134211 336.879615 
L 138.545058 336.879615 
L 138.186416 336.132589 
L 141.733238 336.132589 
L 141.546857 335.759076 
L 143.872159 335.759076 
L 143.681303 335.385563 
L 144.831356 335.385563 
L 144.447472 334.638537 
L 145.585714 334.638537 
L 145.200836 333.891511 
L 150.772253 333.891511 
L 150.366393 333.144485 
L 153.621951 333.144485 
L 153.413514 332.770972 
L 159.754787 332.770972 
L 159.095778 331.650433 
L 161.151969 331.650433 
L 160.930366 331.27692 
L 163.968312 331.27692 
L 162.406378 328.662329 
L 164.377919 328.662329 
L 164.155443 328.288816 
L 168.031579 328.288816 
L 167.80275 327.915303 
L 168.757855 327.915303 
L 168.528358 327.54179 
L 169.476923 327.54179 
L 169.017778 326.794764 
L 171.825 326.794764 
L 171.591932 326.421251 
L 173.437226 326.421251 
L 173.201942 326.047738 
L 174.116223 326.047738 
L 173.880435 325.674225 
L 179.265 325.674225 
L 179.020903 325.300712 
L 179.901896 325.300712 
L 179.657447 324.927199 
L 182.271127 324.927199 
L 182.023419 324.553686 
L 182.885047 324.553686 
L 181.656582 322.686121 
L 184.19656 322.686121 
L 183.950114 322.312608 
L 184.787671 322.312608 
L 184.541002 321.939095 
L 186.202041 321.939095 
L 185.706772 321.192069 
L 190.585523 321.192069 
L 190.079601 320.445043 
L 190.877655 320.445043 
L 190.625166 320.07153 
L 194.557205 320.07153 
L 194.3 319.698017 
L 195.075 319.698017 
L 194.817787 319.324504 
L 195.588312 319.324504 
L 195.075 318.577478 
L 195.84 318.577478 
L 195.328908 317.830452 
L 196.088462 317.830452 
L 195.833475 317.456939 
L 197.340764 317.456939 
L 197.084746 317.083426 
L 198.577215 317.083426 
L 197.809434 315.962887 
L 202.914669 315.962887 
L 202.654021 315.589374 
L 205.50184 315.589374 
L 205.238571 315.215861 
L 206.643293 315.215861 
L 206.37931 314.842348 
L 207.076518 314.842348 
L 206.812727 314.468835 
L 208.196982 314.468835 
L 207.669138 313.721809 
L 213.083432 313.721809 
L 212.814567 313.348296 
L 213.478585 313.348296 
L 213.21 312.974783 
L 220.97069 312.974783 
L 220.694455 312.60127 
L 221.952 312.60127 
L 220.852174 311.107218 
L 221.474717 311.107218 
L 221.201695 310.733705 
L 222.438462 310.733705 
L 222.165169 310.360192 
L 223.391418 310.360192 
L 223.117877 309.986679 
L 223.726952 309.986679 
L 223.181667 309.239654 
L 228.552459 309.239654 
L 228.276 308.866141 
L 234.6 308.866141 
L 234.318683 308.492628 
L 234.880817 308.492628 
L 234.6 308.119115 
L 235.159646 308.119115 
L 234.879329 307.745602 
L 240.364063 307.745602 
L 239.797059 306.998576 
L 242.464322 306.998576 
L 242.180137 306.625063 
L 244.8 306.625063 
L 244.514746 306.25155 
L 246.577273 306.25155 
L 246.006544 305.504524 
L 248.542263 305.504524 
L 248.256478 305.131011 
L 250.253465 305.131011 
L 249.681908 304.383985 
L 256.931942 304.383985 
L 256.642788 304.010472 
L 258.050239 304.010472 
L 257.761146 303.636959 
L 261.901413 303.636959 
L 261.610815 303.263446 
L 264.749302 303.263446 
L 264.457895 302.889933 
L 268.392366 302.889933 
L 268.099848 302.51642 
L 269.813182 302.51642 
L 269.520726 302.142907 
L 269.945619 302.142907 
L 269.653846 301.769394 
L 272.175336 301.769394 
L 271.592101 301.022368 
L 272.007589 301.022368 
L 271.717088 300.648855 
L 272.544 300.648855 
L 272.253994 300.275342 
L 273.075664 300.275342 
L 272.786156 299.901829 
L 278.795101 299.901829 
L 278.213793 299.154803 
L 288.393361 299.154803 
L 288.100691 298.78129 
L 288.82438 298.78129 
L 288.532325 298.407777 
L 289.967442 298.407777 
L 289.67582 298.034264 
L 290.03206 298.034264 
L 289.45102 297.287238 
L 292.6125 297.287238 
L 292.322416 296.913725 
L 293.702804 296.913725 
L 293.4132 296.540212 
L 293.755925 296.540212 
L 293.467021 296.166699 
L 294.828571 296.166699 
L 294.540159 295.793186 
L 295.215415 295.793186 
L 294.927632 295.419673 
L 296.267277 295.419673 
L 295.98 295.04616 
L 300.237918 295.04616 
L 299.950706 294.672647 
L 303.130038 294.672647 
L 302.843165 294.299134 
L 304.092317 294.299134 
L 303.806038 293.925621 
L 306.570896 293.925621 
L 306.285093 293.552108 
L 308.39298 293.552108 
L 308.107749 293.178595 
L 311.347573 293.178595 
L 311.062909 292.805082 
L 312.219662 292.805082 
L 311.935663 292.431569 
L 313.365988 292.431569 
L 313.082656 292.058056 
L 317.820281 292.058056 
L 317.537705 291.684543 
L 323.136 291.684543 
L 322.573546 290.937517 
L 323.351591 290.937517 
L 322.791837 290.190491 
L 328.831788 290.190491 
L 328.553583 289.816978 
L 332.169306 289.816978 
L 331.615909 289.069952 
L 331.852865 289.069952 
L 331.577106 288.696439 
L 332.285038 288.696439 
L 332.01 288.322926 
L 333.4125 288.322926 
L 333.138314 287.949413 
L 334.293631 287.949413 
L 334.020255 287.5759 
L 337.859063 287.5759 
L 337.587097 287.202387 
L 337.808732 287.202387 
L 337.266598 286.455361 
L 341.180652 286.455361 
L 340.911394 286.081848 
L 341.973583 286.081848 
L 341.705157 285.708335 
L 345.238569 285.708335 
L 344.971698 285.334822 
L 347.195776 285.334822 
L 346.930128 284.961309 
L 347.727273 284.961309 
L 347.462402 284.587796 
L 348.253599 284.587796 
L 347.989504 284.214283 
L 349.747977 284.214283 
L 349.484986 283.84077 
L 351.404099 283.84077 
L 351.142286 283.467257 
L 351.711111 283.467257 
L 351.45 283.093744 
L 351.827557 283.093744 
L 351.567077 282.720231 
L 352.87782 282.720231 
L 352.61831 282.346718 
L 355.189713 282.346718 
L 354.931667 281.973205 
L 356.371875 281.973205 
L 356.114876 281.599692 
L 358.061727 281.599692 
L 357.805995 281.226179 
L 358.678481 281.226179 
L 358.423577 280.852666 
L 358.770514 280.852666 
L 358.516216 280.479153 
L 366.645557 280.479153 
L 366.395431 280.10564 
L 367.658476 280.10564 
L 367.40941 279.732127 
L 370.342424 279.732127 
L 370.09529 279.358614 
L 370.398741 279.358614 
L 370.152181 278.985101 
L 372.397183 278.985101 
L 371.907692 278.238075 
L 373.229557 278.238075 
L 372.986136 277.864562 
L 374.862419 277.864562 
L 374.620438 277.491049 
L 375.615 277.491049 
L 375.373973 277.117536 
L 378.293106 277.117536 
L 378.054157 276.744023 
L 378.870922 276.744023 
L 378.632835 276.37051 
L 379.308 276.37051 
L 379.07069 275.996997 
L 383.782774 275.996997 
L 383.548743 275.623484 
L 383.676027 275.623484 
L 386.05814 275.623484 
L 385.826087 275.249971 
L 385.949663 275.249971 
L 387.539466 275.249971 
L 387.308895 274.876458 
L 387.43 274.876458 
L 390.865627 274.876458 
L 390.637826 274.502945 
L 390.753802 274.502945 
L 391.216029 274.502945 
L 390.988961 274.129432 
L 391.104182 274.129432 
L 391.906098 274.129432 
L 391.68 273.755919 
L 391.793983 273.755919 
L 392.7 273.755919 
L 392.474947 273.382406 
L 392.587553 273.382406 
L 395.242867 273.382406 
L 395.020126 273.008893 
L 395.128911 273.008893 
L 396.74264 273.008893 
L 396.407172 272.261867 
L 398.817923 272.261867 
L 398.599254 271.888354 
L 398.702441 271.888354 
L 399.929859 271.888354 
L 399.7125 271.514841 
L 399.813969 271.514841 
L 400.218486 271.514841 
L 400.001807 271.141328 
L 400.102676 271.141328 
L 402.776018 271.141328 
L 402.561786 270.767815 
L 402.659055 270.767815 
L 403.143492 270.767815 
L 402.600587 269.647276 
L 402.890039 269.647276 
L 402.677684 269.273763 
L 402.773992 269.273763 
L 409.21791 269.273763 
L 409.011125 268.90025 
L 409.099193 268.90025 
L 410.837853 268.90025 
L 410.632863 268.526737 
L 410.71875 268.526737 
L 411.402073 268.526737 
L 411.197989 268.153224 
L 411.283009 268.153224 
L 411.706557 268.153224 
L 411.503155 267.779711 
L 411.587629 267.779711 
L 413.420467 267.779711 
L 413.218959 267.406198 
L 413.301195 267.406198 
L 415.56455 267.406198 
L 415.245951 266.659172 
L 415.800526 266.659172 
L 415.483372 265.912146 
L 416.268271 265.912146 
L 416.071304 265.538633 
L 416.149363 265.538633 
L 416.305208 265.538633 
L 416.108676 265.16512 
L 416.186532 265.16512 
L 419.746933 265.16512 
L 419.553881 264.791607 
L 419.627656 264.791607 
L 420.79688 264.791607 
L 420.605178 264.418094 
L 420.677629 264.418094 
L 422.392586 264.418094 
L 422.202744 264.044581 
L 422.273286 264.044581 
L 423.252803 264.044581 
L 423.064146 263.671068 
L 423.133605 263.671068 
L 423.686573 263.671068 
L 423.498701 263.297555 
L 423.56755 263.297555 
L 423.705024 263.297555 
L 423.517549 262.924042 
L 423.586239 262.924042 
L 423.791864 262.924042 
L 423.604847 262.550529 
L 423.673305 262.550529 
L 424.489091 262.550529 
L 424.3031 262.177016 
L 424.370673 262.177016 
L 428.86507 262.177016 
L 428.683625 261.803503 
L 428.746475 261.803503 
L 429.24695 261.803503 
L 429.06624 261.42999 
L 429.128571 261.42999 
L 431.150302 261.42999 
L 430.971817 261.056477 
L 431.092308 261.056477 
L 432.284022 261.056477 
L 432.107015 260.682964 
L 432.225 260.682964 
L 432.577552 260.682964 
L 432.342285 259.935938 
L 434.244526 259.935938 
L 434.070525 259.562425 
L 434.183965 259.562425 
L 435.250746 259.562425 
L 435.078104 259.188912 
L 435.189375 259.188912 
L 435.687458 259.188912 
L 435.515598 258.815399 
L 435.625813 258.815399 
L 436.009909 258.815399 
L 435.838714 258.441886 
L 435.948097 258.441886 
L 437.511075 258.441886 
L 437.341745 258.068373 
L 437.448079 258.068373 
L 439.019501 258.068373 
L 438.852055 257.69486 
L 438.955376 257.69486 
L 439.775126 257.69486 
L 439.608791 257.321347 
L 439.710522 257.321347 
L 441.115447 257.321347 
L 440.950835 256.947834 
L 441.049932 256.947834 
L 443.042737 256.947834 
L 442.880478 256.574321 
L 442.97594 256.574321 
L 443.497975 256.574321 
L 443.336516 256.200808 
L 443.430989 256.200808 
L 443.713415 256.200808 
L 443.552498 255.827295 
L 443.64641 255.827295 
L 443.880472 255.827295 
L 443.653293 255.080269 
L 444.854592 255.080269 
L 444.695819 254.706756 
L 444.787209 254.706756 
L 445.014998 254.706756 
L 444.856701 254.333244 
L 444.947639 254.333244 
L 449.470501 254.333244 
L 449.317331 253.959731 
L 449.400616 253.959731 
L 450.103056 253.959731 
L 449.950876 253.586218 
L 450.032967 253.586218 
L 450.441427 253.586218 
L 450.289911 253.212705 
L 450.371296 253.212705 
L 450.411938 253.212705 
L 450.26068 252.839192 
L 450.341956 252.839192 
L 451.58515 252.839192 
L 451.435475 252.465679 
L 451.554285 252.465679 
L 453.073352 252.465679 
L 452.925618 252.092166 
L 453.040674 252.092166 
L 458.808186 252.092166 
L 458.667269 251.718653 
L 458.769035 251.718653 
L 458.904375 251.718653 
L 458.691079 250.971627 
L 458.724881 250.971627 
L 459.26235 250.971627 
L 459.122757 250.598114 
L 459.222951 250.598114 
L 459.389455 250.598114 
L 459.250273 250.224601 
L 459.35 250.224601 
L 460.302946 250.224601 
L 460.165086 249.851088 
L 460.262648 249.851088 
L 460.715173 249.851088 
L 460.578051 249.477575 
L 460.674545 249.477575 
L 460.73876 249.477575 
L 460.601923 249.104062 
L 460.698186 249.104062 
L 460.922001 249.104062 
L 460.785633 248.730549 
L 460.881325 248.730549 
L 461.951786 248.730549 
L 461.816871 248.357036 
L 461.91021 248.357036 
L 461.941279 248.357036 
L 461.806604 247.983523 
L 461.899791 247.983523 
L 462.668824 247.983523 
L 462.535247 247.61001 
L 462.626745 247.61001 
L 463.021053 247.61001 
L 462.888136 247.236497 
L 462.978736 247.236497 
L 463.667178 247.236497 
L 463.535264 246.862984 
L 463.62437 246.862984 
L 464.272297 246.862984 
L 464.141337 246.489471 
L 464.258246 246.489471 
L 464.37484 246.489471 
L 464.244242 246.115958 
L 464.360659 246.115958 
L 464.41875 246.115958 
L 464.288445 245.742445 
L 464.404529 245.742445 
L 465.463718 245.742445 
L 465.334879 245.368932 
L 465.447966 245.368932 
L 465.588904 245.368932 
L 465.460449 244.995419 
L 465.572997 244.995419 
L 466.214431 244.995419 
L 466.086948 244.621906 
L 466.197648 244.621906 
L 466.473136 244.621906 
L 466.346191 244.248393 
L 466.456014 244.248393 
L 467.297554 244.248393 
L 467.171815 243.87488 
L 467.279306 243.87488 
L 467.359743 243.87488 
L 467.234307 243.501367 
L 467.341442 243.501367 
L 467.421614 243.501367 
L 467.296479 243.127854 
L 467.403261 243.127854 
L 467.616008 243.127854 
L 467.491329 242.754341 
L 467.597421 242.754341 
L 468.228341 242.754341 
L 468.104611 242.380828 
L 468.208959 242.380828 
L 469.567111 242.380828 
L 469.445192 242.007315 
L 469.546004 242.007315 
L 470.907249 242.007315 
L 470.78715 241.633802 
L 470.884489 241.633802 
L 471.559288 241.633802 
L 471.440187 241.260289 
L 471.535772 241.260289 
L 471.631128 241.260289 
L 471.512327 240.886776 
L 471.607568 240.886776 
L 471.868303 240.886776 
L 471.75 240.513263 
L 471.844501 240.513263 
L 473.189806 240.513263 
L 473.070976 239.766237 
L 473.748649 239.766237 
L 473.633236 239.392724 
L 473.74517 239.392724 
L 473.767517 239.392724 
L 473.652334 239.019211 
L 473.764013 239.019211 
L 474.185459 239.019211 
L 474.070984 238.645698 
L 474.181259 238.645698 
L 474.922801 238.645698 
L 474.809419 238.272185 
L 474.917391 238.272185 
L 478.824016 238.272185 
L 478.715602 237.898672 
L 478.812594 237.898672 
L 478.909325 237.898672 
L 478.801209 237.525159 
L 478.8978 237.525159 
L 479.774424 237.525159 
L 479.667568 237.151646 
L 479.780476 237.151646 
L 481.035499 237.151646 
L 480.930398 236.778133 
L 481.039144 236.778133 
L 481.183614 236.778133 
L 481.010318 236.031107 
L 481.082433 236.031107 
L 481.351544 236.031107 
L 481.247389 235.657594 
L 481.354585 235.657594 
L 482.043388 235.657594 
L 481.940275 235.284081 
L 482.045164 235.284081 
L 482.271331 235.284081 
L 482.168682 234.910568 
L 482.272695 234.910568 
L 482.341862 234.910568 
L 482.23948 234.537055 
L 482.343098 234.537055 
L 483.728455 234.537055 
L 483.577298 233.790029 
L 483.62697 233.790029 
L 483.726094 233.790029 
L 483.625965 233.416516 
L 483.72492 233.416516 
L 483.75784 233.416516 
L 483.657924 233.043003 
L 483.756614 233.043003 
L 483.920455 233.043003 
L 483.820914 232.66949 
L 483.935268 232.66949 
L 484.16281 232.66949 
L 484.063742 232.295977 
L 484.177074 232.295977 
L 485.148625 232.295977 
L 485.063287 231.548951 
L 485.499455 231.548951 
L 485.402559 231.175438 
L 485.510833 231.175438 
L 486.122727 231.175438 
L 486.026774 230.801925 
L 486.132811 230.801925 
L 486.895008 230.801925 
L 486.800185 230.428412 
L 486.903529 230.428412 
L 488.526799 230.428412 
L 488.434187 230.054899 
L 488.54613 230.054899 
L 488.64375 230.054899 
L 488.551445 229.681386 
L 488.662777 229.681386 
L 489.117843 229.681386 
L 489.026292 229.307873 
L 489.135748 229.307873 
L 489.176693 229.307873 
L 489.012188 228.187334 
L 490.045115 228.187334 
L 489.955351 227.813821 
L 490.060823 227.813821 
L 491.361641 227.813821 
L 491.273691 227.440308 
L 491.38705 227.440308 
L 491.972093 227.440308 
L 491.885065 227.066795 
L 491.995923 227.066795 
L 494.117231 227.066795 
L 494.033085 226.693282 
L 494.135841 226.693282 
L 494.7 226.693282 
L 494.616743 226.319769 
L 494.728373 226.319769 
L 494.761775 226.319769 
L 494.678737 225.946256 
L 494.789935 225.946256 
L 497.14982 225.946256 
L 497.14982 225.946256 
" style="fill:none;stroke:#2ca02c;stroke-linecap:square;stroke-width:2;"/>
   </g>
   <g id="patch_3">
    <path d="M 76.5 448.56 
L 76.5 60.48 
" style="fill:none;stroke:#000000;stroke-linecap:square;stroke-linejoin:miter;stroke-width:0.8;"/>
   </g>
   <g id="patch_4">
    <path d="M 550.8 448.56 
L 550.8 60.48 
" style="fill:none;stroke:#000000;stroke-linecap:square;stroke-linejoin:miter;stroke-width:0.8;"/>
   </g>
   <g id="patch_5">
    <path d="M 76.5 448.56 
L 550.8 448.56 
" style="fill:none;stroke:#000000;stroke-linecap:square;stroke-linejoin:miter;stroke-width:0.8;"/>
   </g>
   <g id="patch_6">
    <path d="M 76.5 60.48 
L 550.8 60.48 
" style="fill:none;stroke:#000000;stroke-linecap:square;stroke-linejoin:miter;stroke-width:0.8;"/>
   </g>
   <g id="text_25">
    <!-- boat: img1-img4 -->
    <defs>
     <path d="M 48.6875 27.296875 
Q 48.6875 37.203125 44.609375 42.84375 
Q 40.53125 48.484375 33.40625 48.484375 
Q 26.265625 48.484375 22.1875 42.84375 
Q 18.109375 37.203125 18.109375 27.296875 
Q 18.109375 17.390625 22.1875 11.75 
Q 26.265625 6.109375 33.40625 6.109375 
Q 40.53125 6.109375 44.609375 11.75 
Q 48.6875 17.390625 48.6875 27.296875 
z
M 18.109375 46.390625 
Q 20.953125 51.265625 25.265625 53.625 
Q 29.59375 56 35.59375 56 
Q 45.5625 56 51.78125 48.09375 
Q 58.015625 40.1875 58.015625 27.296875 
Q 58.015625 14.40625 51.78125 6.484375 
Q 45.5625 -1.421875 35.59375 -1.421875 
Q 29.59375 -1.421875 25.265625 0.953125 
Q 20.953125 3.328125 18.109375 8.203125 
L 18.109375 0 
L 9.078125 0 
L 9.078125 75.984375 
L 18.109375 75.984375 
z
" id="DejaVuSans-98"/>
     <path d="M 34.28125 27.484375 
Q 23.390625 27.484375 19.1875 25 
Q 14.984375 22.515625 14.984375 16.5 
Q 14.984375 11.71875 18.140625 8.90625 
Q 21.296875 6.109375 26.703125 6.109375 
Q 34.1875 6.109375 38.703125 11.40625 
Q 43.21875 16.703125 43.21875 25.484375 
L 43.21875 27.484375 
z
M 52.203125 31.203125 
L 52.203125 0 
L 43.21875 0 
L 43.21875 8.296875 
Q 40.140625 3.328125 35.546875 0.953125 
Q 30.953125 -1.421875 24.3125 -1.421875 
Q 15.921875 -1.421875 10.953125 3.296875 
Q 6 8.015625 6 15.921875 
Q 6 25.140625 12.171875 29.828125 
Q 18.359375 34.515625 30.609375 34.515625 
L 43.21875 34.515625 
L 43.21875 35.40625 
Q 43.21875 41.609375 39.140625 45 
Q 35.0625 48.390625 27.6875 48.390625 
Q 23 48.390625 18.546875 47.265625 
Q 14.109375 46.140625 10.015625 43.890625 
L 10.015625 52.203125 
Q 14.9375 54.109375 19.578125 55.046875 
Q 24.21875 56 28.609375 56 
Q 40.484375 56 46.34375 49.84375 
Q 52.203125 43.703125 52.203125 31.203125 
z
" id="DejaVuSans-97"/>
     <path d="M 11.71875 12.40625 
L 22.015625 12.40625 
L 22.015625 0 
L 11.71875 0 
z
M 11.71875 51.703125 
L 22.015625 51.703125 
L 22.015625 39.3125 
L 11.71875 39.3125 
z
" id="DejaVuSans-58"/>
     <path id="DejaVuSans-32"/>
     <path d="M 52 44.1875 
Q 55.375 50.25 60.0625 53.125 
Q 64.75 56 71.09375 56 
Q 79.640625 56 84.28125 50.015625 
Q 88.921875 44.046875 88.921875 33.015625 
L 88.921875 0 
L 79.890625 0 
L 79.890625 32.71875 
Q 79.890625 40.578125 77.09375 44.375 
Q 74.3125 48.1875 68.609375 48.1875 
Q 61.625 48.1875 57.5625 43.546875 
Q 53.515625 38.921875 53.515625 30.90625 
L 53.515625 0 
L 44.484375 0 
L 44.484375 32.71875 
Q 44.484375 40.625 41.703125 44.40625 
Q 38.921875 48.1875 33.109375 48.1875 
Q 26.21875 48.1875 22.15625 43.53125 
Q 18.109375 38.875 18.109375 30.90625 
L 18.109375 0 
L 9.078125 0 
L 9.078125 54.6875 
L 18.109375 54.6875 
L 18.109375 46.1875 
Q 21.1875 51.21875 25.484375 53.609375 
Q 29.78125 56 35.6875 56 
Q 41.65625 56 45.828125 52.96875 
Q 50 49.953125 52 44.1875 
z
" id="DejaVuSans-109"/>
     <path d="M 45.40625 27.984375 
Q 45.40625 37.75 41.375 43.109375 
Q 37.359375 48.484375 30.078125 48.484375 
Q 22.859375 48.484375 18.828125 43.109375 
Q 14.796875 37.75 14.796875 27.984375 
Q 14.796875 18.265625 18.828125 12.890625 
Q 22.859375 7.515625 30.078125 7.515625 
Q 37.359375 7.515625 41.375 12.890625 
Q 45.40625 18.265625 45.40625 27.984375 
z
M 54.390625 6.78125 
Q 54.390625 -7.171875 48.1875 -13.984375 
Q 42 -20.796875 29.203125 -20.796875 
Q 24.46875 -20.796875 20.265625 -20.09375 
Q 16.0625 -19.390625 12.109375 -17.921875 
L 12.109375 -9.1875 
Q 16.0625 -11.328125 19.921875 -12.34375 
Q 23.78125 -13.375 27.78125 -13.375 
Q 36.625 -13.375 41.015625 -8.765625 
Q 45.40625 -4.15625 45.40625 5.171875 
L 45.40625 9.625 
Q 42.625 4.78125 38.28125 2.390625 
Q 33.9375 0 27.875 0 
Q 17.828125 0 11.671875 7.65625 
Q 5.515625 15.328125 5.515625 27.984375 
Q 5.515625 40.671875 11.671875 48.328125 
Q 17.828125 56 27.875 56 
Q 33.9375 56 38.28125 53.609375 
Q 42.625 51.21875 45.40625 46.390625 
L 45.40625 54.6875 
L 54.390625 54.6875 
z
" id="DejaVuSans-103"/>
    </defs>
    <g transform="translate(263.772188 41.042625)scale(0.12 -0.12)">
     <use xlink:href="#DejaVuSans-98"/>
     <use x="63.476562" xlink:href="#DejaVuSans-111"/>
     <use x="124.658203" xlink:href="#DejaVuSans-97"/>
     <use x="185.9375" xlink:href="#DejaVuSans-116"/>
     <use x="225.146484" xlink:href="#DejaVuSans-58"/>
     <use x="258.837891" xlink:href="#DejaVuSans-32"/>
     <use x="290.625" xlink:href="#DejaVuSans-105"/>
     <use x="318.408203" xlink:href="#DejaVuSans-109"/>
     <use x="415.820312" xlink:href="#DejaVuSans-103"/>
     <use x="479.296875" xlink:href="#DejaVuSans-49"/>
     <use x="542.919922" xlink:href="#DejaVuSans-45"/>
     <use x="579.003906" xlink:href="#DejaVuSans-105"/>
     <use x="606.787109" xlink:href="#DejaVuSans-109"/>
     <use x="704.199219" xlink:href="#DejaVuSans-103"/>
     <use x="767.675781" xlink:href="#DejaVuSans-52"/>
    </g>
    <!-- NearestNeighbours -->
    <defs>
     <path d="M 9.8125 72.90625 
L 23.09375 72.90625 
L 55.421875 11.921875 
L 55.421875 72.90625 
L 64.984375 72.90625 
L 64.984375 0 
L 51.703125 0 
L 19.390625 60.984375 
L 19.390625 0 
L 9.8125 0 
z
" id="DejaVuSans-78"/>
     <path d="M 54.890625 33.015625 
L 54.890625 0 
L 45.90625 0 
L 45.90625 32.71875 
Q 45.90625 40.484375 42.875 44.328125 
Q 39.84375 48.1875 33.796875 48.1875 
Q 26.515625 48.1875 22.3125 43.546875 
Q 18.109375 38.921875 18.109375 30.90625 
L 18.109375 0 
L 9.078125 0 
L 9.078125 75.984375 
L 18.109375 75.984375 
L 18.109375 46.1875 
Q 21.34375 51.125 25.703125 53.5625 
Q 30.078125 56 35.796875 56 
Q 45.21875 56 50.046875 50.171875 
Q 54.890625 44.34375 54.890625 33.015625 
z
" id="DejaVuSans-104"/>
     <path d="M 8.5 21.578125 
L 8.5 54.6875 
L 17.484375 54.6875 
L 17.484375 21.921875 
Q 17.484375 14.15625 20.5 10.265625 
Q 23.53125 6.390625 29.59375 6.390625 
Q 36.859375 6.390625 41.078125 11.03125 
Q 45.3125 15.671875 45.3125 23.6875 
L 45.3125 54.6875 
L 54.296875 54.6875 
L 54.296875 0 
L 45.3125 0 
L 45.3125 8.40625 
Q 42.046875 3.421875 37.71875 1 
Q 33.40625 -1.421875 27.6875 -1.421875 
Q 18.265625 -1.421875 13.375 4.4375 
Q 8.5 10.296875 8.5 21.578125 
z
M 31.109375 56 
z
" id="DejaVuSans-117"/>
    </defs>
    <g transform="translate(255.957188 54.48)scale(0.12 -0.12)">
     <use xlink:href="#DejaVuSans-78"/>
     <use x="74.804688" xlink:href="#DejaVuSans-101"/>
     <use x="136.328125" xlink:href="#DejaVuSans-97"/>
     <use x="197.607422" xlink:href="#DejaVuSans-114"/>
     <use x="236.470703" xlink:href="#DejaVuSans-101"/>
     <use x="297.994141" xlink:href="#DejaVuSans-115"/>
     <use x="350.09375" xlink:href="#DejaVuSans-116"/>
     <use x="389.302734" xlink:href="#DejaVuSans-78"/>
     <use x="464.107422" xlink:href="#DejaVuSans-101"/>
     <use x="525.630859" xlink:href="#DejaVuSans-105"/>
     <use x="553.414062" xlink:href="#DejaVuSans-103"/>
     <use x="616.890625" xlink:href="#DejaVuSans-104"/>
     <use x="680.269531" xlink:href="#DejaVuSans-98"/>
     <use x="743.746094" xlink:href="#DejaVuSans-111"/>
     <use x="804.927734" xlink:href="#DejaVuSans-117"/>
     <use x="868.306641" xlink:href="#DejaVuSans-114"/>
     <use x="909.419922" xlink:href="#DejaVuSans-115"/>
    </g>
   </g>
   <g id="legend_1">
    <g id="patch_7">
     <path d="M 362.659375 112.514375 
L 543.8 112.514375 
Q 545.8 112.514375 545.8 110.514375 
L 545.8 67.48 
Q 545.8 65.48 543.8 65.48 
L 362.659375 65.48 
Q 360.659375 65.48 360.659375 67.48 
L 360.659375 110.514375 
Q 360.659375 112.514375 362.659375 112.514375 
z
" style="fill:#ffffff;opacity:0.8;stroke:#cccccc;stroke-linejoin:miter;"/>
    </g>
    <g id="line2d_48">
     <path d="M 364.659375 73.578438 
L 384.659375 73.578438 
" style="fill:none;stroke:#1f77b4;stroke-linecap:square;stroke-width:2;"/>
    </g>
    <g id="line2d_49"/>
    <g id="text_26">
     <!-- root-cvsift AP: 62.8, %In: 14.6 -->
     <defs>
      <path d="M 2.984375 54.6875 
L 12.5 54.6875 
L 29.59375 8.796875 
L 46.6875 54.6875 
L 56.203125 54.6875 
L 35.6875 0 
L 23.484375 0 
z
" id="DejaVuSans-118"/>
      <path d="M 37.109375 75.984375 
L 37.109375 68.5 
L 28.515625 68.5 
Q 23.6875 68.5 21.796875 66.546875 
Q 19.921875 64.59375 19.921875 59.515625 
L 19.921875 54.6875 
L 34.71875 54.6875 
L 34.71875 47.703125 
L 19.921875 47.703125 
L 19.921875 0 
L 10.890625 0 
L 10.890625 47.703125 
L 2.296875 47.703125 
L 2.296875 54.6875 
L 10.890625 54.6875 
L 10.890625 58.5 
Q 10.890625 67.625 15.140625 71.796875 
Q 19.390625 75.984375 28.609375 75.984375 
z
" id="DejaVuSans-102"/>
      <path d="M 34.1875 63.1875 
L 20.796875 26.90625 
L 47.609375 26.90625 
z
M 28.609375 72.90625 
L 39.796875 72.90625 
L 67.578125 0 
L 57.328125 0 
L 50.6875 18.703125 
L 17.828125 18.703125 
L 11.1875 0 
L 0.78125 0 
z
" id="DejaVuSans-65"/>
      <path d="M 19.671875 64.796875 
L 19.671875 37.40625 
L 32.078125 37.40625 
Q 38.96875 37.40625 42.71875 40.96875 
Q 46.484375 44.53125 46.484375 51.125 
Q 46.484375 57.671875 42.71875 61.234375 
Q 38.96875 64.796875 32.078125 64.796875 
z
M 9.8125 72.90625 
L 32.078125 72.90625 
Q 44.34375 72.90625 50.609375 67.359375 
Q 56.890625 61.8125 56.890625 51.125 
Q 56.890625 40.328125 50.609375 34.8125 
Q 44.34375 29.296875 32.078125 29.296875 
L 19.671875 29.296875 
L 19.671875 0 
L 9.8125 0 
z
" id="DejaVuSans-80"/>
      <path d="M 11.71875 12.40625 
L 22.015625 12.40625 
L 22.015625 4 
L 14.015625 -11.625 
L 7.71875 -11.625 
L 11.71875 4 
z
" id="DejaVuSans-44"/>
      <path d="M 72.703125 32.078125 
Q 68.453125 32.078125 66.03125 28.46875 
Q 63.625 24.859375 63.625 18.40625 
Q 63.625 12.0625 66.03125 8.421875 
Q 68.453125 4.78125 72.703125 4.78125 
Q 76.859375 4.78125 79.265625 8.421875 
Q 81.6875 12.0625 81.6875 18.40625 
Q 81.6875 24.8125 79.265625 28.4375 
Q 76.859375 32.078125 72.703125 32.078125 
z
M 72.703125 38.28125 
Q 80.421875 38.28125 84.953125 32.90625 
Q 89.5 27.546875 89.5 18.40625 
Q 89.5 9.28125 84.9375 3.921875 
Q 80.375 -1.421875 72.703125 -1.421875 
Q 64.890625 -1.421875 60.34375 3.921875 
Q 55.8125 9.28125 55.8125 18.40625 
Q 55.8125 27.59375 60.375 32.9375 
Q 64.9375 38.28125 72.703125 38.28125 
z
M 22.3125 68.015625 
Q 18.109375 68.015625 15.6875 64.375 
Q 13.28125 60.75 13.28125 54.390625 
Q 13.28125 47.953125 15.671875 44.328125 
Q 18.0625 40.71875 22.3125 40.71875 
Q 26.5625 40.71875 28.96875 44.328125 
Q 31.390625 47.953125 31.390625 54.390625 
Q 31.390625 60.6875 28.953125 64.34375 
Q 26.515625 68.015625 22.3125 68.015625 
z
M 66.40625 74.21875 
L 74.21875 74.21875 
L 28.609375 -1.421875 
L 20.796875 -1.421875 
z
M 22.3125 74.21875 
Q 30.03125 74.21875 34.609375 68.875 
Q 39.203125 63.53125 39.203125 54.390625 
Q 39.203125 45.171875 34.640625 39.84375 
Q 30.078125 34.515625 22.3125 34.515625 
Q 14.546875 34.515625 10.03125 39.859375 
Q 5.515625 45.21875 5.515625 54.390625 
Q 5.515625 63.484375 10.046875 68.84375 
Q 14.59375 74.21875 22.3125 74.21875 
z
" id="DejaVuSans-37"/>
      <path d="M 9.8125 72.90625 
L 19.671875 72.90625 
L 19.671875 0 
L 9.8125 0 
z
" id="DejaVuSans-73"/>
     </defs>
     <g transform="translate(392.659375 77.078438)scale(0.1 -0.1)">
      <use xlink:href="#DejaVuSans-114"/>
      <use x="38.863281" xlink:href="#DejaVuSans-111"/>
      <use x="100.044922" xlink:href="#DejaVuSans-111"/>
      <use x="161.226562" xlink:href="#DejaVuSans-116"/>
      <use x="200.435547" xlink:href="#DejaVuSans-45"/>
      <use x="236.519531" xlink:href="#DejaVuSans-99"/>
      <use x="291.5" xlink:href="#DejaVuSans-118"/>
      <use x="350.679688" xlink:href="#DejaVuSans-115"/>
      <use x="402.779297" xlink:href="#DejaVuSans-105"/>
      <use x="430.5625" xlink:href="#DejaVuSans-102"/>
      <use x="464.017578" xlink:href="#DejaVuSans-116"/>
      <use x="503.226562" xlink:href="#DejaVuSans-32"/>
      <use x="535.013672" xlink:href="#DejaVuSans-65"/>
      <use x="603.421875" xlink:href="#DejaVuSans-80"/>
      <use x="663.724609" xlink:href="#DejaVuSans-58"/>
      <use x="697.416016" xlink:href="#DejaVuSans-32"/>
      <use x="729.203125" xlink:href="#DejaVuSans-54"/>
      <use x="792.826172" xlink:href="#DejaVuSans-50"/>
      <use x="856.449219" xlink:href="#DejaVuSans-46"/>
      <use x="888.236328" xlink:href="#DejaVuSans-56"/>
      <use x="951.859375" xlink:href="#DejaVuSans-44"/>
      <use x="983.646484" xlink:href="#DejaVuSans-32"/>
      <use x="1015.433594" xlink:href="#DejaVuSans-37"/>
      <use x="1110.453125" xlink:href="#DejaVuSans-73"/>
      <use x="1139.945312" xlink:href="#DejaVuSans-110"/>
      <use x="1203.324219" xlink:href="#DejaVuSans-58"/>
      <use x="1237.015625" xlink:href="#DejaVuSans-32"/>
      <use x="1268.802734" xlink:href="#DejaVuSans-49"/>
      <use x="1332.425781" xlink:href="#DejaVuSans-52"/>
      <use x="1396.048828" xlink:href="#DejaVuSans-46"/>
      <use x="1427.835938" xlink:href="#DejaVuSans-54"/>
     </g>
    </g>
    <g id="line2d_50">
     <path d="M 364.659375 88.256563 
L 384.659375 88.256563 
" style="fill:none;stroke:#ff7f0e;stroke-linecap:square;stroke-width:2;"/>
    </g>
    <g id="line2d_51"/>
    <g id="text_27">
     <!-- tfeat AP: 12.3, %In: 6.6 -->
     <g transform="translate(392.659375 91.756563)scale(0.1 -0.1)">
      <use xlink:href="#DejaVuSans-116"/>
      <use x="39.208984" xlink:href="#DejaVuSans-102"/>
      <use x="74.414062" xlink:href="#DejaVuSans-101"/>
      <use x="135.9375" xlink:href="#DejaVuSans-97"/>
      <use x="197.216797" xlink:href="#DejaVuSans-116"/>
      <use x="236.425781" xlink:href="#DejaVuSans-32"/>
      <use x="268.212891" xlink:href="#DejaVuSans-65"/>
      <use x="336.621094" xlink:href="#DejaVuSans-80"/>
      <use x="396.923828" xlink:href="#DejaVuSans-58"/>
      <use x="430.615234" xlink:href="#DejaVuSans-32"/>
      <use x="462.402344" xlink:href="#DejaVuSans-49"/>
      <use x="526.025391" xlink:href="#DejaVuSans-50"/>
      <use x="589.648438" xlink:href="#DejaVuSans-46"/>
      <use x="621.435547" xlink:href="#DejaVuSans-51"/>
      <use x="685.058594" xlink:href="#DejaVuSans-44"/>
      <use x="716.845703" xlink:href="#DejaVuSans-32"/>
      <use x="748.632812" xlink:href="#DejaVuSans-37"/>
      <use x="843.652344" xlink:href="#DejaVuSans-73"/>
      <use x="873.144531" xlink:href="#DejaVuSans-110"/>
      <use x="936.523438" xlink:href="#DejaVuSans-58"/>
      <use x="970.214844" xlink:href="#DejaVuSans-32"/>
      <use x="1002.001953" xlink:href="#DejaVuSans-54"/>
      <use x="1065.625" xlink:href="#DejaVuSans-46"/>
      <use x="1097.412109" xlink:href="#DejaVuSans-54"/>
     </g>
    </g>
    <g id="line2d_52">
     <path d="M 364.659375 102.934687 
L 384.659375 102.934687 
" style="fill:none;stroke:#2ca02c;stroke-linecap:square;stroke-width:2;"/>
    </g>
    <g id="line2d_53"/>
    <g id="text_28">
     <!-- hardnet AP: 40.5, %In: 11.3 -->
     <defs>
      <path d="M 45.40625 46.390625 
L 45.40625 75.984375 
L 54.390625 75.984375 
L 54.390625 0 
L 45.40625 0 
L 45.40625 8.203125 
Q 42.578125 3.328125 38.25 0.953125 
Q 33.9375 -1.421875 27.875 -1.421875 
Q 17.96875 -1.421875 11.734375 6.484375 
Q 5.515625 14.40625 5.515625 27.296875 
Q 5.515625 40.1875 11.734375 48.09375 
Q 17.96875 56 27.875 56 
Q 33.9375 56 38.25 53.625 
Q 42.578125 51.265625 45.40625 46.390625 
z
M 14.796875 27.296875 
Q 14.796875 17.390625 18.875 11.75 
Q 22.953125 6.109375 30.078125 6.109375 
Q 37.203125 6.109375 41.296875 11.75 
Q 45.40625 17.390625 45.40625 27.296875 
Q 45.40625 37.203125 41.296875 42.84375 
Q 37.203125 48.484375 30.078125 48.484375 
Q 22.953125 48.484375 18.875 42.84375 
Q 14.796875 37.203125 14.796875 27.296875 
z
" id="DejaVuSans-100"/>
     </defs>
     <g transform="translate(392.659375 106.434687)scale(0.1 -0.1)">
      <use xlink:href="#DejaVuSans-104"/>
      <use x="63.378906" xlink:href="#DejaVuSans-97"/>
      <use x="124.658203" xlink:href="#DejaVuSans-114"/>
      <use x="164.021484" xlink:href="#DejaVuSans-100"/>
      <use x="227.498047" xlink:href="#DejaVuSans-110"/>
      <use x="290.876953" xlink:href="#DejaVuSans-101"/>
      <use x="352.400391" xlink:href="#DejaVuSans-116"/>
      <use x="391.609375" xlink:href="#DejaVuSans-32"/>
      <use x="423.396484" xlink:href="#DejaVuSans-65"/>
      <use x="491.804688" xlink:href="#DejaVuSans-80"/>
      <use x="552.107422" xlink:href="#DejaVuSans-58"/>
      <use x="585.798828" xlink:href="#DejaVuSans-32"/>
      <use x="617.585938" xlink:href="#DejaVuSans-52"/>
      <use x="681.208984" xlink:href="#DejaVuSans-48"/>
      <use x="744.832031" xlink:href="#DejaVuSans-46"/>
      <use x="776.619141" xlink:href="#DejaVuSans-53"/>
      <use x="840.242188" xlink:href="#DejaVuSans-44"/>
      <use x="872.029297" xlink:href="#DejaVuSans-32"/>
      <use x="903.816406" xlink:href="#DejaVuSans-37"/>
      <use x="998.835938" xlink:href="#DejaVuSans-73"/>
      <use x="1028.328125" xlink:href="#DejaVuSans-110"/>
      <use x="1091.707031" xlink:href="#DejaVuSans-58"/>
      <use x="1125.398438" xlink:href="#DejaVuSans-32"/>
      <use x="1157.185547" xlink:href="#DejaVuSans-49"/>
      <use x="1220.808594" xlink:href="#DejaVuSans-49"/>
      <use x="1284.431641" xlink:href="#DejaVuSans-46"/>
      <use x="1316.21875" xlink:href="#DejaVuSans-51"/>
     </g>
    </g>
   </g>
  </g>
 </g>
 <defs>
  <clipPath id="p446f8cd358">
   <rect height="388.08" width="474.3" x="76.5" y="60.48"/>
  </clipPath>
 </defs>
</svg>
