<?xml version="1.0" encoding="utf-8" standalone="no"?>
<!DOCTYPE svg PUBLIC "-//W3C//DTD SVG 1.1//EN"
  "http://www.w3.org/Graphics/SVG/1.1/DTD/svg11.dtd">
<!-- Created with matplotlib (https://matplotlib.org/) -->
<svg height="504pt" version="1.1" viewBox="0 0 612 504" width="612pt" xmlns="http://www.w3.org/2000/svg" xmlns:xlink="http://www.w3.org/1999/xlink">
 <defs>
  <style type="text/css">
*{stroke-linecap:butt;stroke-linejoin:round;}
  </style>
 </defs>
 <g id="figure_1">
  <g id="patch_1">
   <path d="M 0 504 
L 612 504 
L 612 0 
L 0 0 
z
" style="fill:#ffffff;"/>
  </g>
  <g id="axes_1">
   <g id="patch_2">
    <path d="M 76.5 448.56 
L 550.8 448.56 
L 550.8 60.48 
L 76.5 60.48 
z
" style="fill:#ffffff;"/>
   </g>
   <g id="matplotlib.axis_1">
    <g id="xtick_1">
     <g id="line2d_1">
      <path clip-path="url(#p9748c58d78)" d="M 76.5 448.56 
L 76.5 60.48 
" style="fill:none;stroke:#b0b0b0;stroke-linecap:square;stroke-width:0.8;"/>
     </g>
     <g id="line2d_2">
      <defs>
       <path d="M 0 0 
L 0 3.5 
" id="m01dad9bf60" style="stroke:#000000;stroke-width:0.8;"/>
      </defs>
      <g>
       <use style="stroke:#000000;stroke-width:0.8;" x="76.5" xlink:href="#m01dad9bf60" y="448.56"/>
      </g>
     </g>
     <g id="text_1">
      <!-- 0.0 -->
      <defs>
       <path d="M 31.78125 66.40625 
Q 24.171875 66.40625 20.328125 58.90625 
Q 16.5 51.421875 16.5 36.375 
Q 16.5 21.390625 20.328125 13.890625 
Q 24.171875 6.390625 31.78125 6.390625 
Q 39.453125 6.390625 43.28125 13.890625 
Q 47.125 21.390625 47.125 36.375 
Q 47.125 51.421875 43.28125 58.90625 
Q 39.453125 66.40625 31.78125 66.40625 
z
M 31.78125 74.21875 
Q 44.046875 74.21875 50.515625 64.515625 
Q 56.984375 54.828125 56.984375 36.375 
Q 56.984375 17.96875 50.515625 8.265625 
Q 44.046875 -1.421875 31.78125 -1.421875 
Q 19.53125 -1.421875 13.0625 8.265625 
Q 6.59375 17.96875 6.59375 36.375 
Q 6.59375 54.828125 13.0625 64.515625 
Q 19.53125 74.21875 31.78125 74.21875 
z
" id="DejaVuSans-48"/>
       <path d="M 10.6875 12.40625 
L 21 12.40625 
L 21 0 
L 10.6875 0 
z
" id="DejaVuSans-46"/>
      </defs>
      <g transform="translate(68.548438 463.158437)scale(0.1 -0.1)">
       <use xlink:href="#DejaVuSans-48"/>
       <use x="63.623047" xlink:href="#DejaVuSans-46"/>
       <use x="95.410156" xlink:href="#DejaVuSans-48"/>
      </g>
     </g>
    </g>
    <g id="xtick_2">
     <g id="line2d_3">
      <path clip-path="url(#p9748c58d78)" d="M 123.93 448.56 
L 123.93 60.48 
" style="fill:none;stroke:#b0b0b0;stroke-linecap:square;stroke-width:0.8;"/>
     </g>
     <g id="line2d_4">
      <g>
       <use style="stroke:#000000;stroke-width:0.8;" x="123.93" xlink:href="#m01dad9bf60" y="448.56"/>
      </g>
     </g>
     <g id="text_2">
      <!-- 0.1 -->
      <defs>
       <path d="M 12.40625 8.296875 
L 28.515625 8.296875 
L 28.515625 63.921875 
L 10.984375 60.40625 
L 10.984375 69.390625 
L 28.421875 72.90625 
L 38.28125 72.90625 
L 38.28125 8.296875 
L 54.390625 8.296875 
L 54.390625 0 
L 12.40625 0 
z
" id="DejaVuSans-49"/>
      </defs>
      <g transform="translate(115.978438 463.158437)scale(0.1 -0.1)">
       <use xlink:href="#DejaVuSans-48"/>
       <use x="63.623047" xlink:href="#DejaVuSans-46"/>
       <use x="95.410156" xlink:href="#DejaVuSans-49"/>
      </g>
     </g>
    </g>
    <g id="xtick_3">
     <g id="line2d_5">
      <path clip-path="url(#p9748c58d78)" d="M 171.36 448.56 
L 171.36 60.48 
" style="fill:none;stroke:#b0b0b0;stroke-linecap:square;stroke-width:0.8;"/>
     </g>
     <g id="line2d_6">
      <g>
       <use style="stroke:#000000;stroke-width:0.8;" x="171.36" xlink:href="#m01dad9bf60" y="448.56"/>
      </g>
     </g>
     <g id="text_3">
      <!-- 0.2 -->
      <defs>
       <path d="M 19.1875 8.296875 
L 53.609375 8.296875 
L 53.609375 0 
L 7.328125 0 
L 7.328125 8.296875 
Q 12.9375 14.109375 22.625 23.890625 
Q 32.328125 33.6875 34.8125 36.53125 
Q 39.546875 41.84375 41.421875 45.53125 
Q 43.3125 49.21875 43.3125 52.78125 
Q 43.3125 58.59375 39.234375 62.25 
Q 35.15625 65.921875 28.609375 65.921875 
Q 23.96875 65.921875 18.8125 64.3125 
Q 13.671875 62.703125 7.8125 59.421875 
L 7.8125 69.390625 
Q 13.765625 71.78125 18.9375 73 
Q 24.125 74.21875 28.421875 74.21875 
Q 39.75 74.21875 46.484375 68.546875 
Q 53.21875 62.890625 53.21875 53.421875 
Q 53.21875 48.921875 51.53125 44.890625 
Q 49.859375 40.875 45.40625 35.40625 
Q 44.1875 33.984375 37.640625 27.21875 
Q 31.109375 20.453125 19.1875 8.296875 
z
" id="DejaVuSans-50"/>
      </defs>
      <g transform="translate(163.408438 463.158437)scale(0.1 -0.1)">
       <use xlink:href="#DejaVuSans-48"/>
       <use x="63.623047" xlink:href="#DejaVuSans-46"/>
       <use x="95.410156" xlink:href="#DejaVuSans-50"/>
      </g>
     </g>
    </g>
    <g id="xtick_4">
     <g id="line2d_7">
      <path clip-path="url(#p9748c58d78)" d="M 218.79 448.56 
L 218.79 60.48 
" style="fill:none;stroke:#b0b0b0;stroke-linecap:square;stroke-width:0.8;"/>
     </g>
     <g id="line2d_8">
      <g>
       <use style="stroke:#000000;stroke-width:0.8;" x="218.79" xlink:href="#m01dad9bf60" y="448.56"/>
      </g>
     </g>
     <g id="text_4">
      <!-- 0.3 -->
      <defs>
       <path d="M 40.578125 39.3125 
Q 47.65625 37.796875 51.625 33 
Q 55.609375 28.21875 55.609375 21.1875 
Q 55.609375 10.40625 48.1875 4.484375 
Q 40.765625 -1.421875 27.09375 -1.421875 
Q 22.515625 -1.421875 17.65625 -0.515625 
Q 12.796875 0.390625 7.625 2.203125 
L 7.625 11.71875 
Q 11.71875 9.328125 16.59375 8.109375 
Q 21.484375 6.890625 26.8125 6.890625 
Q 36.078125 6.890625 40.9375 10.546875 
Q 45.796875 14.203125 45.796875 21.1875 
Q 45.796875 27.640625 41.28125 31.265625 
Q 36.765625 34.90625 28.71875 34.90625 
L 20.21875 34.90625 
L 20.21875 43.015625 
L 29.109375 43.015625 
Q 36.375 43.015625 40.234375 45.921875 
Q 44.09375 48.828125 44.09375 54.296875 
Q 44.09375 59.90625 40.109375 62.90625 
Q 36.140625 65.921875 28.71875 65.921875 
Q 24.65625 65.921875 20.015625 65.03125 
Q 15.375 64.15625 9.8125 62.3125 
L 9.8125 71.09375 
Q 15.4375 72.65625 20.34375 73.4375 
Q 25.25 74.21875 29.59375 74.21875 
Q 40.828125 74.21875 47.359375 69.109375 
Q 53.90625 64.015625 53.90625 55.328125 
Q 53.90625 49.265625 50.4375 45.09375 
Q 46.96875 40.921875 40.578125 39.3125 
z
" id="DejaVuSans-51"/>
      </defs>
      <g transform="translate(210.838438 463.158437)scale(0.1 -0.1)">
       <use xlink:href="#DejaVuSans-48"/>
       <use x="63.623047" xlink:href="#DejaVuSans-46"/>
       <use x="95.410156" xlink:href="#DejaVuSans-51"/>
      </g>
     </g>
    </g>
    <g id="xtick_5">
     <g id="line2d_9">
      <path clip-path="url(#p9748c58d78)" d="M 266.22 448.56 
L 266.22 60.48 
" style="fill:none;stroke:#b0b0b0;stroke-linecap:square;stroke-width:0.8;"/>
     </g>
     <g id="line2d_10">
      <g>
       <use style="stroke:#000000;stroke-width:0.8;" x="266.22" xlink:href="#m01dad9bf60" y="448.56"/>
      </g>
     </g>
     <g id="text_5">
      <!-- 0.4 -->
      <defs>
       <path d="M 37.796875 64.3125 
L 12.890625 25.390625 
L 37.796875 25.390625 
z
M 35.203125 72.90625 
L 47.609375 72.90625 
L 47.609375 25.390625 
L 58.015625 25.390625 
L 58.015625 17.1875 
L 47.609375 17.1875 
L 47.609375 0 
L 37.796875 0 
L 37.796875 17.1875 
L 4.890625 17.1875 
L 4.890625 26.703125 
z
" id="DejaVuSans-52"/>
      </defs>
      <g transform="translate(258.268438 463.158437)scale(0.1 -0.1)">
       <use xlink:href="#DejaVuSans-48"/>
       <use x="63.623047" xlink:href="#DejaVuSans-46"/>
       <use x="95.410156" xlink:href="#DejaVuSans-52"/>
      </g>
     </g>
    </g>
    <g id="xtick_6">
     <g id="line2d_11">
      <path clip-path="url(#p9748c58d78)" d="M 313.65 448.56 
L 313.65 60.48 
" style="fill:none;stroke:#b0b0b0;stroke-linecap:square;stroke-width:0.8;"/>
     </g>
     <g id="line2d_12">
      <g>
       <use style="stroke:#000000;stroke-width:0.8;" x="313.65" xlink:href="#m01dad9bf60" y="448.56"/>
      </g>
     </g>
     <g id="text_6">
      <!-- 0.5 -->
      <defs>
       <path d="M 10.796875 72.90625 
L 49.515625 72.90625 
L 49.515625 64.59375 
L 19.828125 64.59375 
L 19.828125 46.734375 
Q 21.96875 47.46875 24.109375 47.828125 
Q 26.265625 48.1875 28.421875 48.1875 
Q 40.625 48.1875 47.75 41.5 
Q 54.890625 34.8125 54.890625 23.390625 
Q 54.890625 11.625 47.5625 5.09375 
Q 40.234375 -1.421875 26.90625 -1.421875 
Q 22.3125 -1.421875 17.546875 -0.640625 
Q 12.796875 0.140625 7.71875 1.703125 
L 7.71875 11.625 
Q 12.109375 9.234375 16.796875 8.0625 
Q 21.484375 6.890625 26.703125 6.890625 
Q 35.15625 6.890625 40.078125 11.328125 
Q 45.015625 15.765625 45.015625 23.390625 
Q 45.015625 31 40.078125 35.4375 
Q 35.15625 39.890625 26.703125 39.890625 
Q 22.75 39.890625 18.8125 39.015625 
Q 14.890625 38.140625 10.796875 36.28125 
z
" id="DejaVuSans-53"/>
      </defs>
      <g transform="translate(305.698438 463.158437)scale(0.1 -0.1)">
       <use xlink:href="#DejaVuSans-48"/>
       <use x="63.623047" xlink:href="#DejaVuSans-46"/>
       <use x="95.410156" xlink:href="#DejaVuSans-53"/>
      </g>
     </g>
    </g>
    <g id="xtick_7">
     <g id="line2d_13">
      <path clip-path="url(#p9748c58d78)" d="M 361.08 448.56 
L 361.08 60.48 
" style="fill:none;stroke:#b0b0b0;stroke-linecap:square;stroke-width:0.8;"/>
     </g>
     <g id="line2d_14">
      <g>
       <use style="stroke:#000000;stroke-width:0.8;" x="361.08" xlink:href="#m01dad9bf60" y="448.56"/>
      </g>
     </g>
     <g id="text_7">
      <!-- 0.6 -->
      <defs>
       <path d="M 33.015625 40.375 
Q 26.375 40.375 22.484375 35.828125 
Q 18.609375 31.296875 18.609375 23.390625 
Q 18.609375 15.53125 22.484375 10.953125 
Q 26.375 6.390625 33.015625 6.390625 
Q 39.65625 6.390625 43.53125 10.953125 
Q 47.40625 15.53125 47.40625 23.390625 
Q 47.40625 31.296875 43.53125 35.828125 
Q 39.65625 40.375 33.015625 40.375 
z
M 52.59375 71.296875 
L 52.59375 62.3125 
Q 48.875 64.0625 45.09375 64.984375 
Q 41.3125 65.921875 37.59375 65.921875 
Q 27.828125 65.921875 22.671875 59.328125 
Q 17.53125 52.734375 16.796875 39.40625 
Q 19.671875 43.65625 24.015625 45.921875 
Q 28.375 48.1875 33.59375 48.1875 
Q 44.578125 48.1875 50.953125 41.515625 
Q 57.328125 34.859375 57.328125 23.390625 
Q 57.328125 12.15625 50.6875 5.359375 
Q 44.046875 -1.421875 33.015625 -1.421875 
Q 20.359375 -1.421875 13.671875 8.265625 
Q 6.984375 17.96875 6.984375 36.375 
Q 6.984375 53.65625 15.1875 63.9375 
Q 23.390625 74.21875 37.203125 74.21875 
Q 40.921875 74.21875 44.703125 73.484375 
Q 48.484375 72.75 52.59375 71.296875 
z
" id="DejaVuSans-54"/>
      </defs>
      <g transform="translate(353.128438 463.158437)scale(0.1 -0.1)">
       <use xlink:href="#DejaVuSans-48"/>
       <use x="63.623047" xlink:href="#DejaVuSans-46"/>
       <use x="95.410156" xlink:href="#DejaVuSans-54"/>
      </g>
     </g>
    </g>
    <g id="xtick_8">
     <g id="line2d_15">
      <path clip-path="url(#p9748c58d78)" d="M 408.51 448.56 
L 408.51 60.48 
" style="fill:none;stroke:#b0b0b0;stroke-linecap:square;stroke-width:0.8;"/>
     </g>
     <g id="line2d_16">
      <g>
       <use style="stroke:#000000;stroke-width:0.8;" x="408.51" xlink:href="#m01dad9bf60" y="448.56"/>
      </g>
     </g>
     <g id="text_8">
      <!-- 0.7 -->
      <defs>
       <path d="M 8.203125 72.90625 
L 55.078125 72.90625 
L 55.078125 68.703125 
L 28.609375 0 
L 18.3125 0 
L 43.21875 64.59375 
L 8.203125 64.59375 
z
" id="DejaVuSans-55"/>
      </defs>
      <g transform="translate(400.558438 463.158437)scale(0.1 -0.1)">
       <use xlink:href="#DejaVuSans-48"/>
       <use x="63.623047" xlink:href="#DejaVuSans-46"/>
       <use x="95.410156" xlink:href="#DejaVuSans-55"/>
      </g>
     </g>
    </g>
    <g id="xtick_9">
     <g id="line2d_17">
      <path clip-path="url(#p9748c58d78)" d="M 455.94 448.56 
L 455.94 60.48 
" style="fill:none;stroke:#b0b0b0;stroke-linecap:square;stroke-width:0.8;"/>
     </g>
     <g id="line2d_18">
      <g>
       <use style="stroke:#000000;stroke-width:0.8;" x="455.94" xlink:href="#m01dad9bf60" y="448.56"/>
      </g>
     </g>
     <g id="text_9">
      <!-- 0.8 -->
      <defs>
       <path d="M 31.78125 34.625 
Q 24.75 34.625 20.71875 30.859375 
Q 16.703125 27.09375 16.703125 20.515625 
Q 16.703125 13.921875 20.71875 10.15625 
Q 24.75 6.390625 31.78125 6.390625 
Q 38.8125 6.390625 42.859375 10.171875 
Q 46.921875 13.96875 46.921875 20.515625 
Q 46.921875 27.09375 42.890625 30.859375 
Q 38.875 34.625 31.78125 34.625 
z
M 21.921875 38.8125 
Q 15.578125 40.375 12.03125 44.71875 
Q 8.5 49.078125 8.5 55.328125 
Q 8.5 64.0625 14.71875 69.140625 
Q 20.953125 74.21875 31.78125 74.21875 
Q 42.671875 74.21875 48.875 69.140625 
Q 55.078125 64.0625 55.078125 55.328125 
Q 55.078125 49.078125 51.53125 44.71875 
Q 48 40.375 41.703125 38.8125 
Q 48.828125 37.15625 52.796875 32.3125 
Q 56.78125 27.484375 56.78125 20.515625 
Q 56.78125 9.90625 50.3125 4.234375 
Q 43.84375 -1.421875 31.78125 -1.421875 
Q 19.734375 -1.421875 13.25 4.234375 
Q 6.78125 9.90625 6.78125 20.515625 
Q 6.78125 27.484375 10.78125 32.3125 
Q 14.796875 37.15625 21.921875 38.8125 
z
M 18.3125 54.390625 
Q 18.3125 48.734375 21.84375 45.5625 
Q 25.390625 42.390625 31.78125 42.390625 
Q 38.140625 42.390625 41.71875 45.5625 
Q 45.3125 48.734375 45.3125 54.390625 
Q 45.3125 60.0625 41.71875 63.234375 
Q 38.140625 66.40625 31.78125 66.40625 
Q 25.390625 66.40625 21.84375 63.234375 
Q 18.3125 60.0625 18.3125 54.390625 
z
" id="DejaVuSans-56"/>
      </defs>
      <g transform="translate(447.988438 463.158437)scale(0.1 -0.1)">
       <use xlink:href="#DejaVuSans-48"/>
       <use x="63.623047" xlink:href="#DejaVuSans-46"/>
       <use x="95.410156" xlink:href="#DejaVuSans-56"/>
      </g>
     </g>
    </g>
    <g id="xtick_10">
     <g id="line2d_19">
      <path clip-path="url(#p9748c58d78)" d="M 503.37 448.56 
L 503.37 60.48 
" style="fill:none;stroke:#b0b0b0;stroke-linecap:square;stroke-width:0.8;"/>
     </g>
     <g id="line2d_20">
      <g>
       <use style="stroke:#000000;stroke-width:0.8;" x="503.37" xlink:href="#m01dad9bf60" y="448.56"/>
      </g>
     </g>
     <g id="text_10">
      <!-- 0.9 -->
      <defs>
       <path d="M 10.984375 1.515625 
L 10.984375 10.5 
Q 14.703125 8.734375 18.5 7.8125 
Q 22.3125 6.890625 25.984375 6.890625 
Q 35.75 6.890625 40.890625 13.453125 
Q 46.046875 20.015625 46.78125 33.40625 
Q 43.953125 29.203125 39.59375 26.953125 
Q 35.25 24.703125 29.984375 24.703125 
Q 19.046875 24.703125 12.671875 31.3125 
Q 6.296875 37.9375 6.296875 49.421875 
Q 6.296875 60.640625 12.9375 67.421875 
Q 19.578125 74.21875 30.609375 74.21875 
Q 43.265625 74.21875 49.921875 64.515625 
Q 56.59375 54.828125 56.59375 36.375 
Q 56.59375 19.140625 48.40625 8.859375 
Q 40.234375 -1.421875 26.421875 -1.421875 
Q 22.703125 -1.421875 18.890625 -0.6875 
Q 15.09375 0.046875 10.984375 1.515625 
z
M 30.609375 32.421875 
Q 37.25 32.421875 41.125 36.953125 
Q 45.015625 41.5 45.015625 49.421875 
Q 45.015625 57.28125 41.125 61.84375 
Q 37.25 66.40625 30.609375 66.40625 
Q 23.96875 66.40625 20.09375 61.84375 
Q 16.21875 57.28125 16.21875 49.421875 
Q 16.21875 41.5 20.09375 36.953125 
Q 23.96875 32.421875 30.609375 32.421875 
z
" id="DejaVuSans-57"/>
      </defs>
      <g transform="translate(495.418438 463.158437)scale(0.1 -0.1)">
       <use xlink:href="#DejaVuSans-48"/>
       <use x="63.623047" xlink:href="#DejaVuSans-46"/>
       <use x="95.410156" xlink:href="#DejaVuSans-57"/>
      </g>
     </g>
    </g>
    <g id="xtick_11">
     <g id="line2d_21">
      <path clip-path="url(#p9748c58d78)" d="M 550.8 448.56 
L 550.8 60.48 
" style="fill:none;stroke:#b0b0b0;stroke-linecap:square;stroke-width:0.8;"/>
     </g>
     <g id="line2d_22">
      <g>
       <use style="stroke:#000000;stroke-width:0.8;" x="550.8" xlink:href="#m01dad9bf60" y="448.56"/>
      </g>
     </g>
     <g id="text_11">
      <!-- 1.0 -->
      <g transform="translate(542.848438 463.158437)scale(0.1 -0.1)">
       <use xlink:href="#DejaVuSans-49"/>
       <use x="63.623047" xlink:href="#DejaVuSans-46"/>
       <use x="95.410156" xlink:href="#DejaVuSans-48"/>
      </g>
     </g>
    </g>
    <g id="text_12">
     <!-- 1-precision -->
     <defs>
      <path d="M 4.890625 31.390625 
L 31.203125 31.390625 
L 31.203125 23.390625 
L 4.890625 23.390625 
z
" id="DejaVuSans-45"/>
      <path d="M 18.109375 8.203125 
L 18.109375 -20.796875 
L 9.078125 -20.796875 
L 9.078125 54.6875 
L 18.109375 54.6875 
L 18.109375 46.390625 
Q 20.953125 51.265625 25.265625 53.625 
Q 29.59375 56 35.59375 56 
Q 45.5625 56 51.78125 48.09375 
Q 58.015625 40.1875 58.015625 27.296875 
Q 58.015625 14.40625 51.78125 6.484375 
Q 45.5625 -1.421875 35.59375 -1.421875 
Q 29.59375 -1.421875 25.265625 0.953125 
Q 20.953125 3.328125 18.109375 8.203125 
z
M 48.6875 27.296875 
Q 48.6875 37.203125 44.609375 42.84375 
Q 40.53125 48.484375 33.40625 48.484375 
Q 26.265625 48.484375 22.1875 42.84375 
Q 18.109375 37.203125 18.109375 27.296875 
Q 18.109375 17.390625 22.1875 11.75 
Q 26.265625 6.109375 33.40625 6.109375 
Q 40.53125 6.109375 44.609375 11.75 
Q 48.6875 17.390625 48.6875 27.296875 
z
" id="DejaVuSans-112"/>
      <path d="M 41.109375 46.296875 
Q 39.59375 47.171875 37.8125 47.578125 
Q 36.03125 48 33.890625 48 
Q 26.265625 48 22.1875 43.046875 
Q 18.109375 38.09375 18.109375 28.8125 
L 18.109375 0 
L 9.078125 0 
L 9.078125 54.6875 
L 18.109375 54.6875 
L 18.109375 46.1875 
Q 20.953125 51.171875 25.484375 53.578125 
Q 30.03125 56 36.53125 56 
Q 37.453125 56 38.578125 55.875 
Q 39.703125 55.765625 41.0625 55.515625 
z
" id="DejaVuSans-114"/>
      <path d="M 56.203125 29.59375 
L 56.203125 25.203125 
L 14.890625 25.203125 
Q 15.484375 15.921875 20.484375 11.0625 
Q 25.484375 6.203125 34.421875 6.203125 
Q 39.59375 6.203125 44.453125 7.46875 
Q 49.3125 8.734375 54.109375 11.28125 
L 54.109375 2.78125 
Q 49.265625 0.734375 44.1875 -0.34375 
Q 39.109375 -1.421875 33.890625 -1.421875 
Q 20.796875 -1.421875 13.15625 6.1875 
Q 5.515625 13.8125 5.515625 26.8125 
Q 5.515625 40.234375 12.765625 48.109375 
Q 20.015625 56 32.328125 56 
Q 43.359375 56 49.78125 48.890625 
Q 56.203125 41.796875 56.203125 29.59375 
z
M 47.21875 32.234375 
Q 47.125 39.59375 43.09375 43.984375 
Q 39.0625 48.390625 32.421875 48.390625 
Q 24.90625 48.390625 20.390625 44.140625 
Q 15.875 39.890625 15.1875 32.171875 
z
" id="DejaVuSans-101"/>
      <path d="M 48.78125 52.59375 
L 48.78125 44.1875 
Q 44.96875 46.296875 41.140625 47.34375 
Q 37.3125 48.390625 33.40625 48.390625 
Q 24.65625 48.390625 19.8125 42.84375 
Q 14.984375 37.3125 14.984375 27.296875 
Q 14.984375 17.28125 19.8125 11.734375 
Q 24.65625 6.203125 33.40625 6.203125 
Q 37.3125 6.203125 41.140625 7.25 
Q 44.96875 8.296875 48.78125 10.40625 
L 48.78125 2.09375 
Q 45.015625 0.34375 40.984375 -0.53125 
Q 36.96875 -1.421875 32.421875 -1.421875 
Q 20.0625 -1.421875 12.78125 6.34375 
Q 5.515625 14.109375 5.515625 27.296875 
Q 5.515625 40.671875 12.859375 48.328125 
Q 20.21875 56 33.015625 56 
Q 37.15625 56 41.109375 55.140625 
Q 45.0625 54.296875 48.78125 52.59375 
z
" id="DejaVuSans-99"/>
      <path d="M 9.421875 54.6875 
L 18.40625 54.6875 
L 18.40625 0 
L 9.421875 0 
z
M 9.421875 75.984375 
L 18.40625 75.984375 
L 18.40625 64.59375 
L 9.421875 64.59375 
z
" id="DejaVuSans-105"/>
      <path d="M 44.28125 53.078125 
L 44.28125 44.578125 
Q 40.484375 46.53125 36.375 47.5 
Q 32.28125 48.484375 27.875 48.484375 
Q 21.1875 48.484375 17.84375 46.4375 
Q 14.5 44.390625 14.5 40.28125 
Q 14.5 37.15625 16.890625 35.375 
Q 19.28125 33.59375 26.515625 31.984375 
L 29.59375 31.296875 
Q 39.15625 29.25 43.1875 25.515625 
Q 47.21875 21.78125 47.21875 15.09375 
Q 47.21875 7.46875 41.1875 3.015625 
Q 35.15625 -1.421875 24.609375 -1.421875 
Q 20.21875 -1.421875 15.453125 -0.5625 
Q 10.6875 0.296875 5.421875 2 
L 5.421875 11.28125 
Q 10.40625 8.6875 15.234375 7.390625 
Q 20.0625 6.109375 24.8125 6.109375 
Q 31.15625 6.109375 34.5625 8.28125 
Q 37.984375 10.453125 37.984375 14.40625 
Q 37.984375 18.0625 35.515625 20.015625 
Q 33.0625 21.96875 24.703125 23.78125 
L 21.578125 24.515625 
Q 13.234375 26.265625 9.515625 29.90625 
Q 5.8125 33.546875 5.8125 39.890625 
Q 5.8125 47.609375 11.28125 51.796875 
Q 16.75 56 26.8125 56 
Q 31.78125 56 36.171875 55.265625 
Q 40.578125 54.546875 44.28125 53.078125 
z
" id="DejaVuSans-115"/>
      <path d="M 30.609375 48.390625 
Q 23.390625 48.390625 19.1875 42.75 
Q 14.984375 37.109375 14.984375 27.296875 
Q 14.984375 17.484375 19.15625 11.84375 
Q 23.34375 6.203125 30.609375 6.203125 
Q 37.796875 6.203125 41.984375 11.859375 
Q 46.1875 17.53125 46.1875 27.296875 
Q 46.1875 37.015625 41.984375 42.703125 
Q 37.796875 48.390625 30.609375 48.390625 
z
M 30.609375 56 
Q 42.328125 56 49.015625 48.375 
Q 55.71875 40.765625 55.71875 27.296875 
Q 55.71875 13.875 49.015625 6.21875 
Q 42.328125 -1.421875 30.609375 -1.421875 
Q 18.84375 -1.421875 12.171875 6.21875 
Q 5.515625 13.875 5.515625 27.296875 
Q 5.515625 40.765625 12.171875 48.375 
Q 18.84375 56 30.609375 56 
z
" id="DejaVuSans-111"/>
      <path d="M 54.890625 33.015625 
L 54.890625 0 
L 45.90625 0 
L 45.90625 32.71875 
Q 45.90625 40.484375 42.875 44.328125 
Q 39.84375 48.1875 33.796875 48.1875 
Q 26.515625 48.1875 22.3125 43.546875 
Q 18.109375 38.921875 18.109375 30.90625 
L 18.109375 0 
L 9.078125 0 
L 9.078125 54.6875 
L 18.109375 54.6875 
L 18.109375 46.1875 
Q 21.34375 51.125 25.703125 53.5625 
Q 30.078125 56 35.796875 56 
Q 45.21875 56 50.046875 50.171875 
Q 54.890625 44.34375 54.890625 33.015625 
z
" id="DejaVuSans-110"/>
     </defs>
     <g transform="translate(286.110938 476.836563)scale(0.1 -0.1)">
      <use xlink:href="#DejaVuSans-49"/>
      <use x="63.623047" xlink:href="#DejaVuSans-45"/>
      <use x="99.707031" xlink:href="#DejaVuSans-112"/>
      <use x="163.183594" xlink:href="#DejaVuSans-114"/>
      <use x="202.046875" xlink:href="#DejaVuSans-101"/>
      <use x="263.570312" xlink:href="#DejaVuSans-99"/>
      <use x="318.550781" xlink:href="#DejaVuSans-105"/>
      <use x="346.333984" xlink:href="#DejaVuSans-115"/>
      <use x="398.433594" xlink:href="#DejaVuSans-105"/>
      <use x="426.216797" xlink:href="#DejaVuSans-111"/>
      <use x="487.398438" xlink:href="#DejaVuSans-110"/>
     </g>
    </g>
   </g>
   <g id="matplotlib.axis_2">
    <g id="ytick_1">
     <g id="line2d_23">
      <path clip-path="url(#p9748c58d78)" d="M 76.5 448.56 
L 550.8 448.56 
" style="fill:none;stroke:#b0b0b0;stroke-linecap:square;stroke-width:0.8;"/>
     </g>
     <g id="line2d_24">
      <defs>
       <path d="M 0 0 
L -3.5 0 
" id="m130b340910" style="stroke:#000000;stroke-width:0.8;"/>
      </defs>
      <g>
       <use style="stroke:#000000;stroke-width:0.8;" x="76.5" xlink:href="#m130b340910" y="448.56"/>
      </g>
     </g>
     <g id="text_13">
      <!-- 0.0 -->
      <g transform="translate(53.596875 452.359219)scale(0.1 -0.1)">
       <use xlink:href="#DejaVuSans-48"/>
       <use x="63.623047" xlink:href="#DejaVuSans-46"/>
       <use x="95.410156" xlink:href="#DejaVuSans-48"/>
      </g>
     </g>
    </g>
    <g id="ytick_2">
     <g id="line2d_25">
      <path clip-path="url(#p9748c58d78)" d="M 76.5 409.752 
L 550.8 409.752 
" style="fill:none;stroke:#b0b0b0;stroke-linecap:square;stroke-width:0.8;"/>
     </g>
     <g id="line2d_26">
      <g>
       <use style="stroke:#000000;stroke-width:0.8;" x="76.5" xlink:href="#m130b340910" y="409.752"/>
      </g>
     </g>
     <g id="text_14">
      <!-- 0.1 -->
      <g transform="translate(53.596875 413.551219)scale(0.1 -0.1)">
       <use xlink:href="#DejaVuSans-48"/>
       <use x="63.623047" xlink:href="#DejaVuSans-46"/>
       <use x="95.410156" xlink:href="#DejaVuSans-49"/>
      </g>
     </g>
    </g>
    <g id="ytick_3">
     <g id="line2d_27">
      <path clip-path="url(#p9748c58d78)" d="M 76.5 370.944 
L 550.8 370.944 
" style="fill:none;stroke:#b0b0b0;stroke-linecap:square;stroke-width:0.8;"/>
     </g>
     <g id="line2d_28">
      <g>
       <use style="stroke:#000000;stroke-width:0.8;" x="76.5" xlink:href="#m130b340910" y="370.944"/>
      </g>
     </g>
     <g id="text_15">
      <!-- 0.2 -->
      <g transform="translate(53.596875 374.743219)scale(0.1 -0.1)">
       <use xlink:href="#DejaVuSans-48"/>
       <use x="63.623047" xlink:href="#DejaVuSans-46"/>
       <use x="95.410156" xlink:href="#DejaVuSans-50"/>
      </g>
     </g>
    </g>
    <g id="ytick_4">
     <g id="line2d_29">
      <path clip-path="url(#p9748c58d78)" d="M 76.5 332.136 
L 550.8 332.136 
" style="fill:none;stroke:#b0b0b0;stroke-linecap:square;stroke-width:0.8;"/>
     </g>
     <g id="line2d_30">
      <g>
       <use style="stroke:#000000;stroke-width:0.8;" x="76.5" xlink:href="#m130b340910" y="332.136"/>
      </g>
     </g>
     <g id="text_16">
      <!-- 0.3 -->
      <g transform="translate(53.596875 335.935219)scale(0.1 -0.1)">
       <use xlink:href="#DejaVuSans-48"/>
       <use x="63.623047" xlink:href="#DejaVuSans-46"/>
       <use x="95.410156" xlink:href="#DejaVuSans-51"/>
      </g>
     </g>
    </g>
    <g id="ytick_5">
     <g id="line2d_31">
      <path clip-path="url(#p9748c58d78)" d="M 76.5 293.328 
L 550.8 293.328 
" style="fill:none;stroke:#b0b0b0;stroke-linecap:square;stroke-width:0.8;"/>
     </g>
     <g id="line2d_32">
      <g>
       <use style="stroke:#000000;stroke-width:0.8;" x="76.5" xlink:href="#m130b340910" y="293.328"/>
      </g>
     </g>
     <g id="text_17">
      <!-- 0.4 -->
      <g transform="translate(53.596875 297.127219)scale(0.1 -0.1)">
       <use xlink:href="#DejaVuSans-48"/>
       <use x="63.623047" xlink:href="#DejaVuSans-46"/>
       <use x="95.410156" xlink:href="#DejaVuSans-52"/>
      </g>
     </g>
    </g>
    <g id="ytick_6">
     <g id="line2d_33">
      <path clip-path="url(#p9748c58d78)" d="M 76.5 254.52 
L 550.8 254.52 
" style="fill:none;stroke:#b0b0b0;stroke-linecap:square;stroke-width:0.8;"/>
     </g>
     <g id="line2d_34">
      <g>
       <use style="stroke:#000000;stroke-width:0.8;" x="76.5" xlink:href="#m130b340910" y="254.52"/>
      </g>
     </g>
     <g id="text_18">
      <!-- 0.5 -->
      <g transform="translate(53.596875 258.319219)scale(0.1 -0.1)">
       <use xlink:href="#DejaVuSans-48"/>
       <use x="63.623047" xlink:href="#DejaVuSans-46"/>
       <use x="95.410156" xlink:href="#DejaVuSans-53"/>
      </g>
     </g>
    </g>
    <g id="ytick_7">
     <g id="line2d_35">
      <path clip-path="url(#p9748c58d78)" d="M 76.5 215.712 
L 550.8 215.712 
" style="fill:none;stroke:#b0b0b0;stroke-linecap:square;stroke-width:0.8;"/>
     </g>
     <g id="line2d_36">
      <g>
       <use style="stroke:#000000;stroke-width:0.8;" x="76.5" xlink:href="#m130b340910" y="215.712"/>
      </g>
     </g>
     <g id="text_19">
      <!-- 0.6 -->
      <g transform="translate(53.596875 219.511219)scale(0.1 -0.1)">
       <use xlink:href="#DejaVuSans-48"/>
       <use x="63.623047" xlink:href="#DejaVuSans-46"/>
       <use x="95.410156" xlink:href="#DejaVuSans-54"/>
      </g>
     </g>
    </g>
    <g id="ytick_8">
     <g id="line2d_37">
      <path clip-path="url(#p9748c58d78)" d="M 76.5 176.904 
L 550.8 176.904 
" style="fill:none;stroke:#b0b0b0;stroke-linecap:square;stroke-width:0.8;"/>
     </g>
     <g id="line2d_38">
      <g>
       <use style="stroke:#000000;stroke-width:0.8;" x="76.5" xlink:href="#m130b340910" y="176.904"/>
      </g>
     </g>
     <g id="text_20">
      <!-- 0.7 -->
      <g transform="translate(53.596875 180.703219)scale(0.1 -0.1)">
       <use xlink:href="#DejaVuSans-48"/>
       <use x="63.623047" xlink:href="#DejaVuSans-46"/>
       <use x="95.410156" xlink:href="#DejaVuSans-55"/>
      </g>
     </g>
    </g>
    <g id="ytick_9">
     <g id="line2d_39">
      <path clip-path="url(#p9748c58d78)" d="M 76.5 138.096 
L 550.8 138.096 
" style="fill:none;stroke:#b0b0b0;stroke-linecap:square;stroke-width:0.8;"/>
     </g>
     <g id="line2d_40">
      <g>
       <use style="stroke:#000000;stroke-width:0.8;" x="76.5" xlink:href="#m130b340910" y="138.096"/>
      </g>
     </g>
     <g id="text_21">
      <!-- 0.8 -->
      <g transform="translate(53.596875 141.895219)scale(0.1 -0.1)">
       <use xlink:href="#DejaVuSans-48"/>
       <use x="63.623047" xlink:href="#DejaVuSans-46"/>
       <use x="95.410156" xlink:href="#DejaVuSans-56"/>
      </g>
     </g>
    </g>
    <g id="ytick_10">
     <g id="line2d_41">
      <path clip-path="url(#p9748c58d78)" d="M 76.5 99.288 
L 550.8 99.288 
" style="fill:none;stroke:#b0b0b0;stroke-linecap:square;stroke-width:0.8;"/>
     </g>
     <g id="line2d_42">
      <g>
       <use style="stroke:#000000;stroke-width:0.8;" x="76.5" xlink:href="#m130b340910" y="99.288"/>
      </g>
     </g>
     <g id="text_22">
      <!-- 0.9 -->
      <g transform="translate(53.596875 103.087219)scale(0.1 -0.1)">
       <use xlink:href="#DejaVuSans-48"/>
       <use x="63.623047" xlink:href="#DejaVuSans-46"/>
       <use x="95.410156" xlink:href="#DejaVuSans-57"/>
      </g>
     </g>
    </g>
    <g id="ytick_11">
     <g id="line2d_43">
      <path clip-path="url(#p9748c58d78)" d="M 76.5 60.48 
L 550.8 60.48 
" style="fill:none;stroke:#b0b0b0;stroke-linecap:square;stroke-width:0.8;"/>
     </g>
     <g id="line2d_44">
      <g>
       <use style="stroke:#000000;stroke-width:0.8;" x="76.5" xlink:href="#m130b340910" y="60.48"/>
      </g>
     </g>
     <g id="text_23">
      <!-- 1.0 -->
      <g transform="translate(53.596875 64.279219)scale(0.1 -0.1)">
       <use xlink:href="#DejaVuSans-49"/>
       <use x="63.623047" xlink:href="#DejaVuSans-46"/>
       <use x="95.410156" xlink:href="#DejaVuSans-48"/>
      </g>
     </g>
    </g>
    <g id="text_24">
     <!-- #correct/744 -->
     <defs>
      <path d="M 51.125 44 
L 36.921875 44 
L 32.8125 27.6875 
L 47.125 27.6875 
z
M 43.796875 71.78125 
L 38.71875 51.515625 
L 52.984375 51.515625 
L 58.109375 71.78125 
L 65.921875 71.78125 
L 60.890625 51.515625 
L 76.125 51.515625 
L 76.125 44 
L 58.984375 44 
L 54.984375 27.6875 
L 70.515625 27.6875 
L 70.515625 20.21875 
L 53.078125 20.21875 
L 48 0 
L 40.1875 0 
L 45.21875 20.21875 
L 30.90625 20.21875 
L 25.875 0 
L 18.015625 0 
L 23.09375 20.21875 
L 7.71875 20.21875 
L 7.71875 27.6875 
L 24.90625 27.6875 
L 29 44 
L 13.28125 44 
L 13.28125 51.515625 
L 30.90625 51.515625 
L 35.890625 71.78125 
z
" id="DejaVuSans-35"/>
      <path d="M 18.3125 70.21875 
L 18.3125 54.6875 
L 36.8125 54.6875 
L 36.8125 47.703125 
L 18.3125 47.703125 
L 18.3125 18.015625 
Q 18.3125 11.328125 20.140625 9.421875 
Q 21.96875 7.515625 27.59375 7.515625 
L 36.8125 7.515625 
L 36.8125 0 
L 27.59375 0 
Q 17.1875 0 13.234375 3.875 
Q 9.28125 7.765625 9.28125 18.015625 
L 9.28125 47.703125 
L 2.6875 47.703125 
L 2.6875 54.6875 
L 9.28125 54.6875 
L 9.28125 70.21875 
z
" id="DejaVuSans-116"/>
      <path d="M 25.390625 72.90625 
L 33.6875 72.90625 
L 8.296875 -9.28125 
L 0 -9.28125 
z
" id="DejaVuSans-47"/>
     </defs>
     <g transform="translate(47.517187 287.443438)rotate(-90)scale(0.1 -0.1)">
      <use xlink:href="#DejaVuSans-35"/>
      <use x="83.789062" xlink:href="#DejaVuSans-99"/>
      <use x="138.769531" xlink:href="#DejaVuSans-111"/>
      <use x="199.951172" xlink:href="#DejaVuSans-114"/>
      <use x="239.314453" xlink:href="#DejaVuSans-114"/>
      <use x="278.177734" xlink:href="#DejaVuSans-101"/>
      <use x="339.701172" xlink:href="#DejaVuSans-99"/>
      <use x="394.681641" xlink:href="#DejaVuSans-116"/>
      <use x="433.890625" xlink:href="#DejaVuSans-47"/>
      <use x="467.582031" xlink:href="#DejaVuSans-55"/>
      <use x="531.205078" xlink:href="#DejaVuSans-52"/>
      <use x="594.828125" xlink:href="#DejaVuSans-52"/>
     </g>
    </g>
   </g>
   <g id="line2d_45">
    <path clip-path="url(#p9748c58d78)" d="M 76.5 448.038387 
L 76.5 391.704194 
L 80.811818 391.704194 
L 80.176744 381.793548 
L 79.57987 368.753226 
L 79.483019 366.145161 
L 82.42875 366.145161 
L 81.983237 359.364194 
L 84.677586 359.364194 
L 83.759694 347.88871 
L 83.275714 340.586129 
L 85.491469 340.586129 
L 84.677586 329.632258 
L 86.678112 329.632258 
L 86.024096 321.286452 
L 87.8832 321.286452 
L 86.81087 307.724516 
L 86.591489 304.594839 
L 88.231802 304.594839 
L 87.604013 296.249032 
L 89.148 296.249032 
L 88.819481 292.076129 
L 90.314563 292.076129 
L 90.27 291.554516 
L 91.750804 291.554516 
L 91.557143 289.468065 
L 93.010443 289.468065 
L 92.652632 285.816774 
L 94.066667 285.816774 
L 94.012615 285.295161 
L 98.190549 285.295161 
L 96.711648 272.776452 
L 96.04533 266.517097 
L 97.291233 266.517097 
L 96.790909 261.822581 
L 98.0016 261.822581 
L 97.830952 260.257742 
L 99.026121 260.257742 
L 98.390769 254.52 
L 99.547826 254.52 
L 99.489031 253.998387 
L 100.637405 253.998387 
L 99.75 246.174194 
L 100.852812 246.174194 
L 100.500723 243.044516 
L 101.583173 243.044516 
L 100.432569 232.612258 
L 101.463158 232.612258 
L 101.180769 230.004194 
L 102.195711 230.004194 
L 101.965772 227.917742 
L 102.967634 227.917742 
L 102.617841 224.788065 
L 103.602857 224.788065 
L 103.134557 220.615161 
L 104.099353 220.615161 
L 103.805117 218.007097 
L 104.75617 218.007097 
L 104.696178 217.485484 
L 105.641314 217.485484 
L 105.579704 216.963871 
L 106.518987 216.963871 
L 106.392857 215.920645 
L 107.324528 215.920645 
L 106.941615 212.790968 
L 108.771959 212.790968 
L 108.705556 212.269355 
L 109.613347 212.269355 
L 108.817034 206.01 
L 109.701 206.01 
L 109.568725 204.966774 
L 110.445924 204.966774 
L 110.045776 201.837097 
L 110.91 201.837097 
L 110.842661 201.315484 
L 111.701953 201.315484 
L 111.633333 200.793871 
L 112.487743 200.793871 
L 112.0725 197.664194 
L 112.914587 197.664194 
L 112.637143 195.577742 
L 113.470152 195.577742 
L 113.330114 194.534516 
L 114.980943 194.534516 
L 114.764353 192.969677 
L 115.580899 192.969677 
L 115.36257 191.404839 
L 116.171933 191.404839 
L 115.879151 189.318387 
L 116.68011 189.318387 
L 116.313504 186.710323 
L 117.104918 186.710323 
L 116.957532 185.667097 
L 118.526582 185.667097 
L 118.450722 185.145484 
L 119.22973 185.145484 
L 118.697509 181.494194 
L 120.229787 181.494194 
L 119.998413 179.929355 
L 122.265789 179.929355 
L 122.185639 179.407742 
L 122.934965 179.407742 
L 122.373575 175.756452 
L 123.112241 175.756452 
L 122.872384 174.191613 
L 124.335385 174.191613 
L 124.172402 173.148387 
L 124.897959 173.148387 
L 124.815789 172.626774 
L 125.537797 172.626774 
L 125.454822 172.105161 
L 126.889376 172.105161 
L 126.72 171.061935 
L 127.431544 171.061935 
L 127.261204 170.01871 
L 127.96828 170.01871 
L 127.797005 168.975484 
L 129.898013 168.975484 
L 129.809752 168.453871 
L 131.19687 168.453871 
L 131.017241 167.410645 
L 131.70541 167.410645 
L 131.525 166.367419 
L 132.208972 166.367419 
L 132.027805 165.324194 
L 133.385251 165.324194 
L 133.201454 164.280968 
L 133.875 164.280968 
L 133.782609 163.759355 
L 134.453055 163.759355 
L 134.267308 162.716129 
L 134.93376 162.716129 
L 134.840415 162.194516 
L 136.824324 162.194516 
L 136.443128 160.108065 
L 137.096688 160.108065 
L 137.00126 159.586452 
L 138.300471 159.586452 
L 138.203605 159.064839 
L 139.492969 159.064839 
L 139.394696 158.543226 
L 140.035514 158.543226 
L 139.838199 157.5 
L 140.475349 157.5 
L 140.376316 156.978387 
L 141.643056 156.978387 
L 141.442615 155.935161 
L 143.323277 155.935161 
L 143.119237 154.891935 
L 143.740701 154.891935 
L 143.638356 154.370323 
L 144.257143 154.370323 
L 144.154325 153.84871 
L 145.38472 153.84871 
L 145.176923 152.805484 
L 146.396842 152.805484 
L 146.082934 151.240645 
L 147.291045 151.240645 
L 147.185544 150.719032 
L 147.786161 150.719032 
L 147.680238 150.197419 
L 149.469231 150.197419 
L 149.361448 149.675806 
L 151.1325 149.675806 
L 151.022907 149.154194 
L 152.776316 149.154194 
L 152.553936 148.110968 
L 153.711628 148.110968 
L 153.599565 147.589355 
L 154.175217 147.589355 
L 154.062808 147.067742 
L 155.77781 147.067742 
L 155.436585 145.502903 
L 156.567811 145.502903 
L 156.453429 144.98129 
L 157.576923 144.98129 
L 156.66338 140.808387 
L 157.217722 140.808387 
L 156.991304 139.765161 
L 157.542857 139.765161 
L 157.42951 139.243548 
L 157.978911 139.243548 
L 157.75195 138.200323 
L 158.84375 138.200323 
L 158.615651 137.157097 
L 159.158091 137.157097 
L 159.043923 136.635484 
L 159.584276 136.635484 
L 159.241896 135.070645 
L 160.314658 135.070645 
L 160.085656 134.027419 
L 162.209103 134.027419 
L 162.092809 133.505806 
L 163.668649 133.505806 
L 163.551012 132.984194 
L 164.072911 132.984194 
L 163.955047 132.462581 
L 164.475 132.462581 
L 164.356913 131.940968 
L 164.874933 131.940968 
L 164.286551 129.332903 
L 165.313147 129.332903 
L 165.195358 128.81129 
L 165.706093 128.81129 
L 165.588095 128.289677 
L 166.604485 128.289677 
L 166.485771 127.768065 
L 167.998819 127.768065 
L 167.878899 127.246452 
L 168.380105 127.246452 
L 167.901563 125.16 
L 168.39948 125.16 
L 168.28013 124.638387 
L 168.776265 124.638387 
L 168.656736 124.116774 
L 169.1511 124.116774 
L 168.555656 121.50871 
L 173.884791 121.50871 
L 173.515909 119.943871 
L 175.882811 119.943871 
L 175.758271 119.422258 
L 176.22766 119.422258 
L 176.103 118.900645 
L 176.570787 118.900645 
L 176.321544 117.857419 
L 178.177695 117.857419 
L 178.051856 117.335806 
L 179.888054 117.335806 
L 179.634029 116.292581 
L 180.99694 116.292581 
L 180.869193 115.770968 
L 181.320879 115.770968 
L 181.06553 114.727742 
L 182.41165 114.727742 
L 182.155206 113.684516 
L 183.045652 113.684516 
L 182.788916 112.64129 
L 183.673558 112.64129 
L 183.544898 112.119677 
L 184.424551 112.119677 
L 184.295455 111.598065 
L 184.733333 111.598065 
L 184.604177 111.076452 
L 188.495277 111.076452 
L 188.363208 110.554839 
L 190.064789 110.554839 
L 189.931653 110.033226 
L 195.348845 110.033226 
L 195.211765 109.511613 
L 195.621429 109.511613 
L 195.48435 108.99 
L 199.526621 108.99 
L 199.386818 108.468387 
L 203.335281 108.468387 
L 203.192929 107.946774 
L 205.902561 107.946774 
L 205.758621 107.425161 
L 206.142 107.425161 
L 205.998113 106.903548 
L 206.761794 106.903548 
L 206.473923 105.860323 
L 207.989109 105.860323 
L 207.700439 104.817097 
L 208.076645 104.817097 
L 207.93253 104.295484 
L 210.171055 104.295484 
L 210.025761 103.773871 
L 214.052095 103.773871 
L 213.904506 103.252258 
L 214.265595 103.252258 
L 213.824038 101.687419 
L 214.900639 101.687419 
L 214.753404 101.165806 
L 222.779439 101.165806 
L 222.627697 100.644194 
L 224.657629 100.644194 
L 224.200822 99.079355 
L 228.833435 99.079355 
L 228.525379 98.036129 
L 229.175782 98.036129 
L 229.021875 97.514516 
L 242.985246 97.514516 
L 242.824855 96.992903 
L 243.417115 96.992903 
L 243.256772 96.47129 
L 245.602193 96.47129 
L 245.441143 95.949677 
L 245.731684 95.949677 
L 245.570817 95.428065 
L 246.726989 95.428065 
L 246.565941 94.906452 
L 247.426981 94.906452 
L 247.265881 94.384839 
L 252.329472 94.384839 
L 252.166667 93.863226 
L 253.542857 93.863226 
L 253.379834 93.341613 
L 255.824384 93.341613 
L 255.660766 92.82 
L 259.907374 92.82 
L 259.742588 92.298387 
L 260.78487 92.298387 
L 260.620036 91.776774 
L 266.966929 91.776774 
L 266.800437 91.255161 
L 271.199742 91.255161 
L 271.03233 90.733548 
L 276.226329 90.733548 
L 276.057926 90.211935 
L 288.656718 90.211935 
L 288.486174 89.690323 
L 295.464789 89.690323 
L 295.293589 89.16871 
L 299.227483 89.16871 
L 299.056154 88.647097 
L 305.104054 88.647097 
L 304.932558 88.125484 
L 324.459323 88.125484 
L 324.459323 88.125484 
" style="fill:none;stroke:#1f77b4;stroke-linecap:square;stroke-width:2;"/>
   </g>
   <g id="line2d_46">
    <path clip-path="url(#p9748c58d78)" d="M 76.5 448.038387 
L 76.5 427.695484 
L 88.068293 427.695484 
L 86.81087 425.087419 
L 85.8 422.479355 
L 84.821053 419.349677 
L 84.538983 418.306452 
L 92.31 418.306452 
L 90.872727 415.176774 
L 89.675 412.047097 
L 89.494521 411.525484 
L 95.728378 411.525484 
L 94.28625 408.395806 
L 93.439286 406.309355 
L 98.82 406.309355 
L 97.121739 402.658065 
L 96.9 402.136452 
L 101.728723 402.136452 
L 100.215 399.006774 
L 104.676238 399.006774 
L 102.85 395.355484 
L 106.959633 395.355484 
L 105.121552 391.704194 
L 103.275 387.53129 
L 101.463158 382.836774 
L 100.734307 380.750323 
L 103.995652 380.750323 
L 102.312245 376.055806 
L 101.463158 373.447742 
L 104.4 373.447742 
L 103.013665 369.274839 
L 108.507975 369.274839 
L 108.12 368.231613 
L 110.786747 368.231613 
L 110.581437 367.71 
L 113.201786 367.71 
L 111.335593 363.015484 
L 113.804494 363.015484 
L 113.39 361.972258 
L 115.80663 361.972258 
L 115.377049 360.929032 
L 117.743478 360.929032 
L 116.441053 357.799355 
L 118.715183 357.799355 
L 117.849231 355.712903 
L 120.058163 355.712903 
L 118.35 351.54 
L 120.459512 351.54 
L 119.209479 348.410323 
L 121.245283 348.410323 
L 119.038117 342.672581 
L 120.965625 342.672581 
L 119.805652 339.542903 
L 121.671429 339.542903 
L 121.476724 339.02129 
L 123.319313 339.02129 
L 121.578099 334.326774 
L 123.344444 334.326774 
L 120.965625 327.545806 
L 120.62093 326.502581 
L 123.93 326.502581 
L 123.035094 323.894516 
L 124.643233 323.894516 
L 122.236071 316.591935 
L 121.276573 313.462258 
L 122.773171 313.462258 
L 122.137113 311.375806 
L 123.605137 311.375806 
L 123.126102 309.810968 
L 124.570946 309.810968 
L 124.409091 309.289355 
L 125.839933 309.289355 
L 124.083495 303.551613 
L 125.46 303.551613 
L 124.682857 300.943548 
L 126.031329 300.943548 
L 125.108385 297.813871 
L 126.426316 297.813871 
L 125.367273 294.162581 
L 126.652568 294.162581 
L 125.759644 291.032903 
L 127.01716 291.032903 
L 126.136047 287.903226 
L 127.366957 287.903226 
L 126.928448 286.338387 
L 128.14298 286.338387 
L 127.413559 283.730323 
L 128.606197 283.730323 
L 127.8825 281.122258 
L 129.054017 281.122258 
L 128.478082 279.035806 
L 130.779564 279.035806 
L 129.6216 274.862903 
L 130.741755 274.862903 
L 130.597878 274.34129 
L 131.709524 274.34129 
L 130.286598 269.125161 
L 132.443077 269.125161 
L 132.016031 267.560323 
L 133.078934 267.560323 
L 132.935696 267.03871 
L 133.990909 267.03871 
L 133.846096 266.517097 
L 134.893719 266.517097 
L 134.312687 264.430645 
L 136.374505 264.430645 
L 136.079557 263.387419 
L 137.098526 263.387419 
L 136.508759 261.300968 
L 137.51432 261.300968 
L 136.927644 259.214516 
L 137.920144 259.214516 
L 137.481429 257.649677 
L 139.440284 257.649677 
L 138.849296 255.563226 
L 139.814052 255.563226 
L 139.666121 255.041613 
L 141.578372 255.041613 
L 141.427378 254.52 
L 142.375 254.52 
L 141.770642 252.433548 
L 143.638356 252.433548 
L 143.181633 250.86871 
L 144.103846 250.86871 
L 143.198438 247.739032 
L 144.106236 247.739032 
L 143.80643 246.695806 
L 144.706858 246.695806 
L 144.406388 245.652581 
L 145.29956 245.652581 
L 144.848908 244.087742 
L 145.733333 244.087742 
L 145.432972 243.044516 
L 146.31039 243.044516 
L 146.159611 242.522903 
L 147.031681 242.522903 
L 146.428846 240.436452 
L 147.291045 240.436452 
L 146.396842 237.306774 
L 147.246429 237.306774 
L 146.80334 235.741935 
L 147.645 235.741935 
L 147.497089 235.220323 
L 149.996901 235.220323 
L 149.096939 232.090645 
L 150.729878 232.090645 
L 150.28 230.525806 
L 151.891751 230.525806 
L 151.28982 228.439355 
L 152.085657 228.439355 
L 151.935388 227.917742 
L 152.726786 227.917742 
L 152.425494 226.874516 
L 153.211243 226.874516 
L 152.909823 225.83129 
L 153.69 225.83129 
L 153.538943 225.309677 
L 154.314844 225.309677 
L 153.711628 223.223226 
L 154.479691 223.223226 
L 153.585086 220.093548 
L 155.85057 220.093548 
L 155.400567 218.52871 
L 156.146604 218.52871 
L 155.55 216.442258 
L 156.288785 216.442258 
L 155.69666 214.355806 
L 157.157301 214.355806 
L 156.7125 212.790968 
L 157.435596 212.790968 
L 156.845902 210.704516 
L 158.986957 210.704516 
L 158.68917 209.66129 
L 159.395676 209.66129 
L 159.246583 209.139677 
L 160.65 209.139677 
L 160.499463 208.618065 
L 161.196429 208.618065 
L 161.045455 208.096452 
L 161.738968 208.096452 
L 161.136572 206.01 
L 161.82381 206.01 
L 160.783275 202.35871 
L 161.461565 202.35871 
L 161.167071 201.315484 
L 163.84957 201.315484 
L 163.400856 199.750645 
L 164.063077 199.750645 
L 163.913652 199.229032 
L 164.572743 199.229032 
L 163.97665 197.142581 
L 165.281282 197.142581 
L 164.982857 196.099355 
L 165.630201 196.099355 
L 165.332107 195.056129 
L 165.975626 195.056129 
L 165.8265 194.534516 
L 166.467055 194.534516 
L 166.168657 193.49129 
L 167.440165 193.49129 
L 167.290099 192.969677 
L 167.921911 192.969677 
L 167.472295 191.404839 
L 170.58878 191.404839 
L 170.283793 190.361613 
L 170.899515 190.361613 
L 170.595 189.318387 
L 172.425843 189.318387 
L 172.272115 188.796774 
L 174.083254 188.796774 
L 173.927866 188.275161 
L 175.719651 188.275161 
L 175.250158 186.710323 
L 175.841575 186.710323 
L 175.685377 186.18871 
L 176.274254 186.18871 
L 175.189752 182.537419 
L 178.083513 182.537419 
L 177.771429 181.494194 
L 178.913936 181.494194 
L 178.445579 179.929355 
L 179.012329 179.929355 
L 178.546364 178.364516 
L 180.230769 178.364516 
L 180.074548 177.842903 
L 181.187838 177.842903 
L 181.030885 177.32129 
L 181.584431 177.32129 
L 181.427354 176.799677 
L 182.528316 176.799677 
L 182.370536 176.278065 
L 182.917979 176.278065 
L 182.760089 175.756452 
L 183.848964 175.756452 
L 183.690399 175.234839 
L 185.31 175.234839 
L 184.990909 174.191613 
L 186.060526 174.191613 
L 185.582096 172.626774 
L 186.642235 172.626774 
L 186.482609 172.105161 
L 188.05974 172.105161 
L 187.738705 171.061935 
L 188.780488 171.061935 
L 188.619628 170.540323 
L 189.137768 170.540323 
L 188.976857 170.01871 
L 190.007692 170.01871 
L 189.84623 169.497097 
L 192.395339 169.497097 
L 191.744242 167.410645 
L 193.250769 167.410645 
L 193.087709 166.889032 
L 194.58025 166.889032 
L 194.41625 166.367419 
L 196.385221 166.367419 
L 196.219862 165.845806 
L 197.195323 165.845806 
L 196.044278 162.194516 
L 197.008288 162.194516 
L 196.681707 161.15129 
L 198.115385 161.15129 
L 197.625 159.586452 
L 198.09906 159.586452 
L 197.936059 159.064839 
L 198.408434 159.064839 
L 198.082911 158.021613 
L 198.5532 158.021613 
L 197.905703 155.935161 
L 198.373113 155.935161 
L 198.051123 154.891935 
L 201.283115 154.891935 
L 201.12 154.370323 
L 202.031812 154.370323 
L 201.705332 153.327097 
L 202.610895 153.327097 
L 202.284605 152.283871 
L 202.734884 152.283871 
L 202.24749 150.719032 
L 202.695501 150.719032 
L 202.533504 150.197419 
L 204.754592 150.197419 
L 204.59121 149.675806 
L 205.909264 149.675806 
L 205.745247 149.154194 
L 206.617699 149.154194 
L 206.453409 148.632581 
L 206.887642 148.632581 
L 206.723426 148.110968 
L 207.58794 148.110968 
L 207.423463 147.589355 
L 207.853759 147.589355 
L 207.689362 147.067742 
L 208.11825 147.067742 
L 207.953933 146.546129 
L 208.381421 146.546129 
L 208.053358 145.502903 
L 208.47913 145.502903 
L 208.152045 144.459677 
L 208.999135 144.459677 
L 208.67238 143.416452 
L 209.933292 143.416452 
L 209.769571 142.894839 
L 212.261876 142.894839 
L 212.096715 142.373226 
L 212.508262 142.373226 
L 212.178545 141.33 
L 213.405435 141.33 
L 213.24029 140.808387 
L 216.066746 140.808387 
L 215.733652 139.765161 
L 217.720996 139.765161 
L 217.386746 138.721935 
L 221.671262 138.721935 
L 221.501867 138.200323 
L 222.268568 138.200323 
L 221.929965 137.157097 
L 222.311485 137.157097 
L 222.142526 136.635484 
L 224.411738 136.635484 
L 224.241724 136.113871 
L 225.73627 136.113871 
L 225.565714 135.592258 
L 226.676993 135.592258 
L 226.335682 134.549032 
L 227.071429 134.549032 
L 226.900906 134.027419 
L 227.99763 134.027419 
L 227.826832 133.505806 
L 233.197783 133.505806 
L 232.851106 132.462581 
L 233.202431 132.462581 
L 233.02947 131.940968 
L 234.078218 131.940968 
L 233.905055 131.419355 
L 236.3241 131.419355 
L 236.15 130.897742 
L 237.854496 130.897742 
L 237.67987 130.376129 
L 240.034157 130.376129 
L 239.858691 129.854516 
L 244.783844 129.854516 
L 244.606329 129.332903 
L 245.250947 129.332903 
L 245.073502 128.81129 
L 245.71511 128.81129 
L 245.537736 128.289677 
L 248.076299 128.289677 
L 247.720332 127.246452 
L 251.753122 127.246452 
L 251.573926 126.724839 
L 252.184592 126.724839 
L 252.005505 126.203226 
L 254.12247 126.203226 
L 253.942872 125.681613 
L 254.840625 125.681613 
L 254.661027 125.16 
L 255.256281 125.16 
L 255.076807 124.638387 
L 257.140678 124.638387 
L 256.960757 124.116774 
L 259.85858 124.116774 
L 259.677931 123.595161 
L 259.964469 123.595161 
L 259.784071 123.073548 
L 264.845217 123.073548 
L 264.663417 122.551935 
L 269.015304 122.551935 
L 268.832479 122.030323 
L 269.633523 122.030323 
L 269.450804 121.50871 
L 271.564225 121.50871 
L 271.381238 120.987097 
L 272.165388 120.987097 
L 271.982523 120.465484 
L 274.564167 120.465484 
L 274.198059 119.422258 
L 276.731044 119.422258 
L 276.54785 118.900645 
L 279.280435 118.900645 
L 279.096923 118.379032 
L 283.213636 118.379032 
L 283.029564 117.857419 
L 285.158481 117.857419 
L 284.974316 117.335806 
L 285.20873 117.335806 
L 285.024846 116.814194 
L 288.719374 116.814194 
L 288.535156 116.292581 
L 288.989688 116.292581 
L 288.805714 115.770968 
L 289.709922 115.770968 
L 289.526121 115.249355 
L 294.171973 115.249355 
L 293.803973 114.206129 
L 295.530227 114.206129 
L 295.346477 113.684516 
L 296.625876 113.684516 
L 296.442285 113.162903 
L 298.546154 113.162903 
L 298.362645 112.64129 
L 298.986974 112.64129 
L 298.803707 112.119677 
L 300.8625 112.119677 
L 300.679347 111.598065 
L 302.704615 111.598065 
L 302.521602 111.076452 
L 308.978014 111.076452 
L 308.794961 110.554839 
L 314.197691 110.554839 
L 314.014846 110.033226 
L 317.6025 110.033226 
L 317.419985 109.511613 
L 320.385202 109.511613 
L 320.203062 108.99 
L 321.742656 108.99 
L 321.56086 108.468387 
L 332.253286 108.468387 
L 332.072669 107.946774 
L 335.269102 107.946774 
L 335.089152 107.425161 
L 336.578867 107.425161 
L 336.578867 107.425161 
" style="fill:none;stroke:#ff7f0e;stroke-linecap:square;stroke-width:2;"/>
   </g>
   <g id="line2d_47">
    <path clip-path="url(#p9748c58d78)" d="M 76.5 448.038387 
L 76.5 424.044194 
L 86.38125 424.044194 
L 85.283333 420.914516 
L 84.27541 417.263226 
L 83.373913 413.090323 
L 82.503797 407.874194 
L 81.712088 401.614839 
L 81.017143 394.312258 
L 80.356098 384.923226 
L 79.74863 372.926129 
L 79.683221 371.36129 
L 82.824 371.36129 
L 82.047368 360.407419 
L 81.466492 349.975161 
L 83.910938 349.975161 
L 83.796923 348.410323 
L 86.179592 348.410323 
L 85.324186 338.499677 
L 87.479167 338.499677 
L 86.678112 329.632258 
L 88.661538 329.632258 
L 88.407113 327.024194 
L 90.33375 327.024194 
L 89.123954 315.027097 
L 87.988235 301.465161 
L 86.907837 285.816774 
L 86.265 274.862903 
L 87.627273 274.862903 
L 87.43487 271.733226 
L 88.766379 271.733226 
L 88.696286 270.69 
L 90.012821 270.69 
L 88.851562 253.476774 
L 88.787565 252.433548 
L 89.981395 252.433548 
L 89.946649 251.911935 
L 92.31 251.911935 
L 91.57555 242.00129 
L 92.69561 242.00129 
L 92.61699 240.958065 
L 93.726392 240.958065 
L 93.561151 238.871613 
L 94.655024 238.871613 
L 94.525653 237.306774 
L 95.606872 237.306774 
L 95.472 235.741935 
L 96.540845 235.741935 
L 95.728378 226.352903 
L 96.751011 226.352903 
L 96.705605 225.83129 
L 97.721477 225.83129 
L 97.440397 222.701613 
L 98.438987 222.701613 
L 97.874034 216.442258 
L 98.843897 216.442258 
L 97.926283 206.01 
L 99.778528 206.01 
L 99.73102 205.488387 
L 101.564634 205.488387 
L 100.967857 199.229032 
L 101.858614 199.229032 
L 101.560861 196.099355 
L 102.438281 196.099355 
L 102.387719 195.577742 
L 103.260117 195.577742 
L 102.85 191.404839 
L 103.706501 191.404839 
L 103.65458 190.883226 
L 104.506286 190.883226 
L 104.242075 188.275161 
L 105.920865 188.275161 
L 105.755888 186.710323 
L 107.413408 186.710323 
L 107.015625 183.059032 
L 107.829908 183.059032 
L 107.488748 179.929355 
L 108.291848 179.929355 
L 108.234358 179.407742 
L 109.033213 179.407742 
L 108.857989 177.842903 
L 109.65 177.842903 
L 109.472727 176.278065 
L 110.258007 176.278065 
L 109.960317 173.67 
L 110.736444 173.67 
L 110.08601 167.932258 
L 110.845862 167.932258 
L 110.669125 166.367419 
L 112.922355 166.367419 
L 112.553209 163.237742 
L 114.028788 163.237742 
L 113.840201 161.672903 
L 114.570903 161.672903 
L 114.255224 159.064839 
L 114.97798 159.064839 
L 114.91438 158.543226 
L 116.350577 158.543226 
L 116.285033 158.021613 
L 117.709672 158.021613 
L 117.642226 157.5 
L 118.35 157.5 
L 118.281729 156.978387 
L 120.388149 156.978387 
L 120.317018 156.456774 
L 122.4 156.456774 
L 122.326087 155.935161 
L 123.014952 155.935161 
L 122.717732 153.84871 
L 124.081051 153.84871 
L 123.779905 151.762258 
L 124.454502 151.762258 
L 124.228302 150.197419 
L 124.897959 150.197419 
L 124.446345 147.067742 
L 125.108385 147.067742 
L 124.957895 146.024516 
L 125.616074 146.024516 
L 125.164778 142.894839 
L 127.756164 142.894839 
L 127.600607 141.851613 
L 128.241818 141.851613 
L 128.007692 140.286774 
L 129.279248 140.286774 
L 129.2 139.765161 
L 130.462275 139.765161 
L 130.381614 139.243548 
L 132.258482 139.243548 
L 132.093027 138.200323 
L 132.713333 138.200323 
L 132.547267 137.157097 
L 133.164159 137.157097 
L 133.080707 136.635484 
L 133.695 136.635484 
L 133.443777 135.070645 
L 134.053947 135.070645 
L 133.886152 134.027419 
L 134.493013 134.027419 
L 134.408721 133.505806 
L 135.615652 133.505806 
L 135.530101 132.984194 
L 136.130202 132.984194 
L 136.044156 132.462581 
L 136.641787 132.462581 
L 136.555252 131.940968 
L 137.743902 131.940968 
L 137.65616 131.419355 
L 138.836571 131.419355 
L 138.747646 130.897742 
L 140.503551 130.897742 
L 140.412766 130.376129 
L 141.573692 130.376129 
L 141.48178 129.854516 
L 143.208861 129.854516 
L 143.115169 129.332903 
L 144.257143 129.332903 
L 144.067877 128.289677 
L 145.764951 128.289677 
L 145.477147 126.724839 
L 146.596823 126.724839 
L 146.116049 124.116774 
L 146.670411 124.116774 
L 146.574419 123.595161 
L 147.677353 123.595161 
L 147.580381 123.073548 
L 148.12898 123.073548 
L 148.031658 122.551935 
L 149.666712 122.551935 
L 149.370889 120.987097 
L 150.45 120.987097 
L 150.350738 120.465484 
L 150.887534 120.465484 
L 150.688636 119.422258 
L 151.22283 119.422258 
L 151.1232 118.900645 
L 152.715538 118.900645 
L 152.212797 116.292581 
L 153.261711 116.292581 
L 153.160841 115.770968 
L 153.682677 115.770968 
L 153.58152 115.249355 
L 154.10144 115.249355 
L 153.596879 112.64129 
L 154.112727 112.64129 
L 154.012062 112.119677 
L 154.526036 112.119677 
L 154.12384 110.033226 
L 156.66338 110.033226 
L 156.56087 109.511613 
L 158.067516 109.511613 
L 157.75698 107.946774 
L 159.247661 107.946774 
L 159.143182 107.425161 
L 159.637074 107.425161 
L 159.532368 106.903548 
L 160.024528 106.903548 
L 159.814931 105.860323 
L 161.281125 105.860323 
L 161.175281 105.33871 
L 163.111304 105.33871 
L 163.003846 104.817097 
L 163.963738 104.817097 
L 163.747778 103.773871 
L 164.701108 103.773871 
L 164.59262 103.252258 
L 165.067076 103.252258 
L 164.85 102.209032 
L 166.263736 102.209032 
L 166.154268 101.687419 
L 166.622777 101.687419 
L 166.513139 101.165806 
L 168.374092 101.165806 
L 168.262999 100.644194 
L 169.645663 100.644194 
L 169.533574 100.122581 
L 169.991827 100.122581 
L 169.879592 99.600968 
L 170.336331 99.600968 
L 170.111842 98.557742 
L 172.824584 98.557742 
L 172.71032 98.036129 
L 173.605207 98.036129 
L 173.375915 96.992903 
L 176.030715 96.992903 
L 175.914169 96.47129 
L 180.681503 96.47129 
L 180.561201 95.949677 
L 183.950114 95.949677 
L 183.827314 95.428065 
L 184.246233 95.428065 
L 184.123375 94.906452 
L 184.541002 94.906452 
L 184.173099 93.341613 
L 185.003511 93.341613 
L 184.880769 92.82 
L 186.118377 92.82 
L 185.994932 92.298387 
L 188.848156 92.298387 
L 188.722768 91.776774 
L 189.931034 91.776774 
L 189.679245 90.733548 
L 194.42563 90.733548 
L 194.296608 90.211935 
L 195.075 90.211935 
L 194.816667 89.16871 
L 195.204026 89.16871 
L 195.075 88.647097 
L 195.461238 88.647097 
L 195.332213 88.125484 
L 195.717335 88.125484 
L 195.588312 87.603871 
L 195.972324 87.603871 
L 195.843305 87.082258 
L 196.608297 87.082258 
L 196.47901 86.560645 
L 206.485983 86.560645 
L 206.350157 86.039032 
L 211.316478 86.039032 
L 211.177778 85.517419 
L 214.636253 85.517419 
L 214.495727 84.995806 
L 216.873636 84.995806 
L 216.731988 84.474194 
L 220.399401 84.474194 
L 220.255932 83.952581 
L 227.665789 83.952581 
L 227.518598 83.430968 
L 231.559615 83.430968 
L 231.410663 82.909355 
L 232.328448 82.909355 
L 232.17933 82.387742 
L 236.391501 82.387742 
L 236.24066 81.866129 
L 240.051724 81.866129 
L 239.899441 81.344516 
L 240.188651 81.344516 
L 240.036524 80.822903 
L 240.32507 80.822903 
L 240.173098 80.30129 
L 241.892435 80.30129 
L 241.74 79.779677 
L 243.439688 79.779677 
L 243.286813 79.258065 
L 243.568161 79.258065 
L 243.415448 78.736452 
L 245.646915 78.736452 
L 245.493563 78.214839 
L 247.691989 78.214839 
L 247.53804 77.693226 
L 255.762992 77.693226 
L 255.606294 77.171613 
L 271.707769 77.171613 
L 271.546573 76.65 
L 290.062992 76.65 
L 289.898459 76.128387 
L 303.429511 76.128387 
L 303.263869 75.606774 
L 316.597997 75.606774 
L 316.597997 75.606774 
" style="fill:none;stroke:#2ca02c;stroke-linecap:square;stroke-width:2;"/>
   </g>
   <g id="patch_3">
    <path d="M 76.5 448.56 
L 76.5 60.48 
" style="fill:none;stroke:#000000;stroke-linecap:square;stroke-linejoin:miter;stroke-width:0.8;"/>
   </g>
   <g id="patch_4">
    <path d="M 550.8 448.56 
L 550.8 60.48 
" style="fill:none;stroke:#000000;stroke-linecap:square;stroke-linejoin:miter;stroke-width:0.8;"/>
   </g>
   <g id="patch_5">
    <path d="M 76.5 448.56 
L 550.8 448.56 
" style="fill:none;stroke:#000000;stroke-linecap:square;stroke-linejoin:miter;stroke-width:0.8;"/>
   </g>
   <g id="patch_6">
    <path d="M 76.5 60.48 
L 550.8 60.48 
" style="fill:none;stroke:#000000;stroke-linecap:square;stroke-linejoin:miter;stroke-width:0.8;"/>
   </g>
   <g id="text_25">
    <!-- leuven: img1-img5 -->
    <defs>
     <path d="M 9.421875 75.984375 
L 18.40625 75.984375 
L 18.40625 0 
L 9.421875 0 
z
" id="DejaVuSans-108"/>
     <path d="M 8.5 21.578125 
L 8.5 54.6875 
L 17.484375 54.6875 
L 17.484375 21.921875 
Q 17.484375 14.15625 20.5 10.265625 
Q 23.53125 6.390625 29.59375 6.390625 
Q 36.859375 6.390625 41.078125 11.03125 
Q 45.3125 15.671875 45.3125 23.6875 
L 45.3125 54.6875 
L 54.296875 54.6875 
L 54.296875 0 
L 45.3125 0 
L 45.3125 8.40625 
Q 42.046875 3.421875 37.71875 1 
Q 33.40625 -1.421875 27.6875 -1.421875 
Q 18.265625 -1.421875 13.375 4.4375 
Q 8.5 10.296875 8.5 21.578125 
z
M 31.109375 56 
z
" id="DejaVuSans-117"/>
     <path d="M 2.984375 54.6875 
L 12.5 54.6875 
L 29.59375 8.796875 
L 46.6875 54.6875 
L 56.203125 54.6875 
L 35.6875 0 
L 23.484375 0 
z
" id="DejaVuSans-118"/>
     <path d="M 11.71875 12.40625 
L 22.015625 12.40625 
L 22.015625 0 
L 11.71875 0 
z
M 11.71875 51.703125 
L 22.015625 51.703125 
L 22.015625 39.3125 
L 11.71875 39.3125 
z
" id="DejaVuSans-58"/>
     <path id="DejaVuSans-32"/>
     <path d="M 52 44.1875 
Q 55.375 50.25 60.0625 53.125 
Q 64.75 56 71.09375 56 
Q 79.640625 56 84.28125 50.015625 
Q 88.921875 44.046875 88.921875 33.015625 
L 88.921875 0 
L 79.890625 0 
L 79.890625 32.71875 
Q 79.890625 40.578125 77.09375 44.375 
Q 74.3125 48.1875 68.609375 48.1875 
Q 61.625 48.1875 57.5625 43.546875 
Q 53.515625 38.921875 53.515625 30.90625 
L 53.515625 0 
L 44.484375 0 
L 44.484375 32.71875 
Q 44.484375 40.625 41.703125 44.40625 
Q 38.921875 48.1875 33.109375 48.1875 
Q 26.21875 48.1875 22.15625 43.53125 
Q 18.109375 38.875 18.109375 30.90625 
L 18.109375 0 
L 9.078125 0 
L 9.078125 54.6875 
L 18.109375 54.6875 
L 18.109375 46.1875 
Q 21.1875 51.21875 25.484375 53.609375 
Q 29.78125 56 35.6875 56 
Q 41.65625 56 45.828125 52.96875 
Q 50 49.953125 52 44.1875 
z
" id="DejaVuSans-109"/>
     <path d="M 45.40625 27.984375 
Q 45.40625 37.75 41.375 43.109375 
Q 37.359375 48.484375 30.078125 48.484375 
Q 22.859375 48.484375 18.828125 43.109375 
Q 14.796875 37.75 14.796875 27.984375 
Q 14.796875 18.265625 18.828125 12.890625 
Q 22.859375 7.515625 30.078125 7.515625 
Q 37.359375 7.515625 41.375 12.890625 
Q 45.40625 18.265625 45.40625 27.984375 
z
M 54.390625 6.78125 
Q 54.390625 -7.171875 48.1875 -13.984375 
Q 42 -20.796875 29.203125 -20.796875 
Q 24.46875 -20.796875 20.265625 -20.09375 
Q 16.0625 -19.390625 12.109375 -17.921875 
L 12.109375 -9.1875 
Q 16.0625 -11.328125 19.921875 -12.34375 
Q 23.78125 -13.375 27.78125 -13.375 
Q 36.625 -13.375 41.015625 -8.765625 
Q 45.40625 -4.15625 45.40625 5.171875 
L 45.40625 9.625 
Q 42.625 4.78125 38.28125 2.390625 
Q 33.9375 0 27.875 0 
Q 17.828125 0 11.671875 7.65625 
Q 5.515625 15.328125 5.515625 27.984375 
Q 5.515625 40.671875 11.671875 48.328125 
Q 17.828125 56 27.875 56 
Q 33.9375 56 38.28125 53.609375 
Q 42.625 51.21875 45.40625 46.390625 
L 45.40625 54.6875 
L 54.390625 54.6875 
z
" id="DejaVuSans-103"/>
    </defs>
    <g transform="translate(257.074688 41.042625)scale(0.12 -0.12)">
     <use xlink:href="#DejaVuSans-108"/>
     <use x="27.783203" xlink:href="#DejaVuSans-101"/>
     <use x="89.306641" xlink:href="#DejaVuSans-117"/>
     <use x="152.685547" xlink:href="#DejaVuSans-118"/>
     <use x="211.865234" xlink:href="#DejaVuSans-101"/>
     <use x="273.388672" xlink:href="#DejaVuSans-110"/>
     <use x="336.767578" xlink:href="#DejaVuSans-58"/>
     <use x="370.458984" xlink:href="#DejaVuSans-32"/>
     <use x="402.246094" xlink:href="#DejaVuSans-105"/>
     <use x="430.029297" xlink:href="#DejaVuSans-109"/>
     <use x="527.441406" xlink:href="#DejaVuSans-103"/>
     <use x="590.917969" xlink:href="#DejaVuSans-49"/>
     <use x="654.541016" xlink:href="#DejaVuSans-45"/>
     <use x="690.625" xlink:href="#DejaVuSans-105"/>
     <use x="718.408203" xlink:href="#DejaVuSans-109"/>
     <use x="815.820312" xlink:href="#DejaVuSans-103"/>
     <use x="879.296875" xlink:href="#DejaVuSans-53"/>
    </g>
    <!-- NearestNeighbours -->
    <defs>
     <path d="M 9.8125 72.90625 
L 23.09375 72.90625 
L 55.421875 11.921875 
L 55.421875 72.90625 
L 64.984375 72.90625 
L 64.984375 0 
L 51.703125 0 
L 19.390625 60.984375 
L 19.390625 0 
L 9.8125 0 
z
" id="DejaVuSans-78"/>
     <path d="M 34.28125 27.484375 
Q 23.390625 27.484375 19.1875 25 
Q 14.984375 22.515625 14.984375 16.5 
Q 14.984375 11.71875 18.140625 8.90625 
Q 21.296875 6.109375 26.703125 6.109375 
Q 34.1875 6.109375 38.703125 11.40625 
Q 43.21875 16.703125 43.21875 25.484375 
L 43.21875 27.484375 
z
M 52.203125 31.203125 
L 52.203125 0 
L 43.21875 0 
L 43.21875 8.296875 
Q 40.140625 3.328125 35.546875 0.953125 
Q 30.953125 -1.421875 24.3125 -1.421875 
Q 15.921875 -1.421875 10.953125 3.296875 
Q 6 8.015625 6 15.921875 
Q 6 25.140625 12.171875 29.828125 
Q 18.359375 34.515625 30.609375 34.515625 
L 43.21875 34.515625 
L 43.21875 35.40625 
Q 43.21875 41.609375 39.140625 45 
Q 35.0625 48.390625 27.6875 48.390625 
Q 23 48.390625 18.546875 47.265625 
Q 14.109375 46.140625 10.015625 43.890625 
L 10.015625 52.203125 
Q 14.9375 54.109375 19.578125 55.046875 
Q 24.21875 56 28.609375 56 
Q 40.484375 56 46.34375 49.84375 
Q 52.203125 43.703125 52.203125 31.203125 
z
" id="DejaVuSans-97"/>
     <path d="M 54.890625 33.015625 
L 54.890625 0 
L 45.90625 0 
L 45.90625 32.71875 
Q 45.90625 40.484375 42.875 44.328125 
Q 39.84375 48.1875 33.796875 48.1875 
Q 26.515625 48.1875 22.3125 43.546875 
Q 18.109375 38.921875 18.109375 30.90625 
L 18.109375 0 
L 9.078125 0 
L 9.078125 75.984375 
L 18.109375 75.984375 
L 18.109375 46.1875 
Q 21.34375 51.125 25.703125 53.5625 
Q 30.078125 56 35.796875 56 
Q 45.21875 56 50.046875 50.171875 
Q 54.890625 44.34375 54.890625 33.015625 
z
" id="DejaVuSans-104"/>
     <path d="M 48.6875 27.296875 
Q 48.6875 37.203125 44.609375 42.84375 
Q 40.53125 48.484375 33.40625 48.484375 
Q 26.265625 48.484375 22.1875 42.84375 
Q 18.109375 37.203125 18.109375 27.296875 
Q 18.109375 17.390625 22.1875 11.75 
Q 26.265625 6.109375 33.40625 6.109375 
Q 40.53125 6.109375 44.609375 11.75 
Q 48.6875 17.390625 48.6875 27.296875 
z
M 18.109375 46.390625 
Q 20.953125 51.265625 25.265625 53.625 
Q 29.59375 56 35.59375 56 
Q 45.5625 56 51.78125 48.09375 
Q 58.015625 40.1875 58.015625 27.296875 
Q 58.015625 14.40625 51.78125 6.484375 
Q 45.5625 -1.421875 35.59375 -1.421875 
Q 29.59375 -1.421875 25.265625 0.953125 
Q 20.953125 3.328125 18.109375 8.203125 
L 18.109375 0 
L 9.078125 0 
L 9.078125 75.984375 
L 18.109375 75.984375 
z
" id="DejaVuSans-98"/>
    </defs>
    <g transform="translate(255.957188 54.48)scale(0.12 -0.12)">
     <use xlink:href="#DejaVuSans-78"/>
     <use x="74.804688" xlink:href="#DejaVuSans-101"/>
     <use x="136.328125" xlink:href="#DejaVuSans-97"/>
     <use x="197.607422" xlink:href="#DejaVuSans-114"/>
     <use x="236.470703" xlink:href="#DejaVuSans-101"/>
     <use x="297.994141" xlink:href="#DejaVuSans-115"/>
     <use x="350.09375" xlink:href="#DejaVuSans-116"/>
     <use x="389.302734" xlink:href="#DejaVuSans-78"/>
     <use x="464.107422" xlink:href="#DejaVuSans-101"/>
     <use x="525.630859" xlink:href="#DejaVuSans-105"/>
     <use x="553.414062" xlink:href="#DejaVuSans-103"/>
     <use x="616.890625" xlink:href="#DejaVuSans-104"/>
     <use x="680.269531" xlink:href="#DejaVuSans-98"/>
     <use x="743.746094" xlink:href="#DejaVuSans-111"/>
     <use x="804.927734" xlink:href="#DejaVuSans-117"/>
     <use x="868.306641" xlink:href="#DejaVuSans-114"/>
     <use x="909.419922" xlink:href="#DejaVuSans-115"/>
    </g>
   </g>
   <g id="legend_1">
    <g id="patch_7">
     <path d="M 362.659375 112.514375 
L 543.8 112.514375 
Q 545.8 112.514375 545.8 110.514375 
L 545.8 67.48 
Q 545.8 65.48 543.8 65.48 
L 362.659375 65.48 
Q 360.659375 65.48 360.659375 67.48 
L 360.659375 110.514375 
Q 360.659375 112.514375 362.659375 112.514375 
z
" style="fill:#ffffff;opacity:0.8;stroke:#cccccc;stroke-linejoin:miter;"/>
    </g>
    <g id="line2d_48">
     <path d="M 364.659375 73.578438 
L 384.659375 73.578438 
" style="fill:none;stroke:#1f77b4;stroke-linecap:square;stroke-width:2;"/>
    </g>
    <g id="line2d_49"/>
    <g id="text_26">
     <!-- root-cvsift AP: 85.9, %In: 47.7 -->
     <defs>
      <path d="M 37.109375 75.984375 
L 37.109375 68.5 
L 28.515625 68.5 
Q 23.6875 68.5 21.796875 66.546875 
Q 19.921875 64.59375 19.921875 59.515625 
L 19.921875 54.6875 
L 34.71875 54.6875 
L 34.71875 47.703125 
L 19.921875 47.703125 
L 19.921875 0 
L 10.890625 0 
L 10.890625 47.703125 
L 2.296875 47.703125 
L 2.296875 54.6875 
L 10.890625 54.6875 
L 10.890625 58.5 
Q 10.890625 67.625 15.140625 71.796875 
Q 19.390625 75.984375 28.609375 75.984375 
z
" id="DejaVuSans-102"/>
      <path d="M 34.1875 63.1875 
L 20.796875 26.90625 
L 47.609375 26.90625 
z
M 28.609375 72.90625 
L 39.796875 72.90625 
L 67.578125 0 
L 57.328125 0 
L 50.6875 18.703125 
L 17.828125 18.703125 
L 11.1875 0 
L 0.78125 0 
z
" id="DejaVuSans-65"/>
      <path d="M 19.671875 64.796875 
L 19.671875 37.40625 
L 32.078125 37.40625 
Q 38.96875 37.40625 42.71875 40.96875 
Q 46.484375 44.53125 46.484375 51.125 
Q 46.484375 57.671875 42.71875 61.234375 
Q 38.96875 64.796875 32.078125 64.796875 
z
M 9.8125 72.90625 
L 32.078125 72.90625 
Q 44.34375 72.90625 50.609375 67.359375 
Q 56.890625 61.8125 56.890625 51.125 
Q 56.890625 40.328125 50.609375 34.8125 
Q 44.34375 29.296875 32.078125 29.296875 
L 19.671875 29.296875 
L 19.671875 0 
L 9.8125 0 
z
" id="DejaVuSans-80"/>
      <path d="M 11.71875 12.40625 
L 22.015625 12.40625 
L 22.015625 4 
L 14.015625 -11.625 
L 7.71875 -11.625 
L 11.71875 4 
z
" id="DejaVuSans-44"/>
      <path d="M 72.703125 32.078125 
Q 68.453125 32.078125 66.03125 28.46875 
Q 63.625 24.859375 63.625 18.40625 
Q 63.625 12.0625 66.03125 8.421875 
Q 68.453125 4.78125 72.703125 4.78125 
Q 76.859375 4.78125 79.265625 8.421875 
Q 81.6875 12.0625 81.6875 18.40625 
Q 81.6875 24.8125 79.265625 28.4375 
Q 76.859375 32.078125 72.703125 32.078125 
z
M 72.703125 38.28125 
Q 80.421875 38.28125 84.953125 32.90625 
Q 89.5 27.546875 89.5 18.40625 
Q 89.5 9.28125 84.9375 3.921875 
Q 80.375 -1.421875 72.703125 -1.421875 
Q 64.890625 -1.421875 60.34375 3.921875 
Q 55.8125 9.28125 55.8125 18.40625 
Q 55.8125 27.59375 60.375 32.9375 
Q 64.9375 38.28125 72.703125 38.28125 
z
M 22.3125 68.015625 
Q 18.109375 68.015625 15.6875 64.375 
Q 13.28125 60.75 13.28125 54.390625 
Q 13.28125 47.953125 15.671875 44.328125 
Q 18.0625 40.71875 22.3125 40.71875 
Q 26.5625 40.71875 28.96875 44.328125 
Q 31.390625 47.953125 31.390625 54.390625 
Q 31.390625 60.6875 28.953125 64.34375 
Q 26.515625 68.015625 22.3125 68.015625 
z
M 66.40625 74.21875 
L 74.21875 74.21875 
L 28.609375 -1.421875 
L 20.796875 -1.421875 
z
M 22.3125 74.21875 
Q 30.03125 74.21875 34.609375 68.875 
Q 39.203125 63.53125 39.203125 54.390625 
Q 39.203125 45.171875 34.640625 39.84375 
Q 30.078125 34.515625 22.3125 34.515625 
Q 14.546875 34.515625 10.03125 39.859375 
Q 5.515625 45.21875 5.515625 54.390625 
Q 5.515625 63.484375 10.046875 68.84375 
Q 14.59375 74.21875 22.3125 74.21875 
z
" id="DejaVuSans-37"/>
      <path d="M 9.8125 72.90625 
L 19.671875 72.90625 
L 19.671875 0 
L 9.8125 0 
z
" id="DejaVuSans-73"/>
     </defs>
     <g transform="translate(392.659375 77.078438)scale(0.1 -0.1)">
      <use xlink:href="#DejaVuSans-114"/>
      <use x="38.863281" xlink:href="#DejaVuSans-111"/>
      <use x="100.044922" xlink:href="#DejaVuSans-111"/>
      <use x="161.226562" xlink:href="#DejaVuSans-116"/>
      <use x="200.435547" xlink:href="#DejaVuSans-45"/>
      <use x="236.519531" xlink:href="#DejaVuSans-99"/>
      <use x="291.5" xlink:href="#DejaVuSans-118"/>
      <use x="350.679688" xlink:href="#DejaVuSans-115"/>
      <use x="402.779297" xlink:href="#DejaVuSans-105"/>
      <use x="430.5625" xlink:href="#DejaVuSans-102"/>
      <use x="464.017578" xlink:href="#DejaVuSans-116"/>
      <use x="503.226562" xlink:href="#DejaVuSans-32"/>
      <use x="535.013672" xlink:href="#DejaVuSans-65"/>
      <use x="603.421875" xlink:href="#DejaVuSans-80"/>
      <use x="663.724609" xlink:href="#DejaVuSans-58"/>
      <use x="697.416016" xlink:href="#DejaVuSans-32"/>
      <use x="729.203125" xlink:href="#DejaVuSans-56"/>
      <use x="792.826172" xlink:href="#DejaVuSans-53"/>
      <use x="856.449219" xlink:href="#DejaVuSans-46"/>
      <use x="888.236328" xlink:href="#DejaVuSans-57"/>
      <use x="951.859375" xlink:href="#DejaVuSans-44"/>
      <use x="983.646484" xlink:href="#DejaVuSans-32"/>
      <use x="1015.433594" xlink:href="#DejaVuSans-37"/>
      <use x="1110.453125" xlink:href="#DejaVuSans-73"/>
      <use x="1139.945312" xlink:href="#DejaVuSans-110"/>
      <use x="1203.324219" xlink:href="#DejaVuSans-58"/>
      <use x="1237.015625" xlink:href="#DejaVuSans-32"/>
      <use x="1268.802734" xlink:href="#DejaVuSans-52"/>
      <use x="1332.425781" xlink:href="#DejaVuSans-55"/>
      <use x="1396.048828" xlink:href="#DejaVuSans-46"/>
      <use x="1427.835938" xlink:href="#DejaVuSans-55"/>
     </g>
    </g>
    <g id="line2d_50">
     <path d="M 364.659375 88.256563 
L 384.659375 88.256563 
" style="fill:none;stroke:#ff7f0e;stroke-linecap:square;stroke-width:2;"/>
    </g>
    <g id="line2d_51"/>
    <g id="text_27">
     <!-- tfeat AP: 74.9, %In: 45.2 -->
     <g transform="translate(392.659375 91.756563)scale(0.1 -0.1)">
      <use xlink:href="#DejaVuSans-116"/>
      <use x="39.208984" xlink:href="#DejaVuSans-102"/>
      <use x="74.414062" xlink:href="#DejaVuSans-101"/>
      <use x="135.9375" xlink:href="#DejaVuSans-97"/>
      <use x="197.216797" xlink:href="#DejaVuSans-116"/>
      <use x="236.425781" xlink:href="#DejaVuSans-32"/>
      <use x="268.212891" xlink:href="#DejaVuSans-65"/>
      <use x="336.621094" xlink:href="#DejaVuSans-80"/>
      <use x="396.923828" xlink:href="#DejaVuSans-58"/>
      <use x="430.615234" xlink:href="#DejaVuSans-32"/>
      <use x="462.402344" xlink:href="#DejaVuSans-55"/>
      <use x="526.025391" xlink:href="#DejaVuSans-52"/>
      <use x="589.648438" xlink:href="#DejaVuSans-46"/>
      <use x="621.435547" xlink:href="#DejaVuSans-57"/>
      <use x="685.058594" xlink:href="#DejaVuSans-44"/>
      <use x="716.845703" xlink:href="#DejaVuSans-32"/>
      <use x="748.632812" xlink:href="#DejaVuSans-37"/>
      <use x="843.652344" xlink:href="#DejaVuSans-73"/>
      <use x="873.144531" xlink:href="#DejaVuSans-110"/>
      <use x="936.523438" xlink:href="#DejaVuSans-58"/>
      <use x="970.214844" xlink:href="#DejaVuSans-32"/>
      <use x="1002.001953" xlink:href="#DejaVuSans-52"/>
      <use x="1065.625" xlink:href="#DejaVuSans-53"/>
      <use x="1129.248047" xlink:href="#DejaVuSans-46"/>
      <use x="1161.035156" xlink:href="#DejaVuSans-50"/>
     </g>
    </g>
    <g id="line2d_52">
     <path d="M 364.659375 102.934687 
L 384.659375 102.934687 
" style="fill:none;stroke:#2ca02c;stroke-linecap:square;stroke-width:2;"/>
    </g>
    <g id="line2d_53"/>
    <g id="text_28">
     <!-- hardnet AP: 90.0, %In: 49.4 -->
     <defs>
      <path d="M 45.40625 46.390625 
L 45.40625 75.984375 
L 54.390625 75.984375 
L 54.390625 0 
L 45.40625 0 
L 45.40625 8.203125 
Q 42.578125 3.328125 38.25 0.953125 
Q 33.9375 -1.421875 27.875 -1.421875 
Q 17.96875 -1.421875 11.734375 6.484375 
Q 5.515625 14.40625 5.515625 27.296875 
Q 5.515625 40.1875 11.734375 48.09375 
Q 17.96875 56 27.875 56 
Q 33.9375 56 38.25 53.625 
Q 42.578125 51.265625 45.40625 46.390625 
z
M 14.796875 27.296875 
Q 14.796875 17.390625 18.875 11.75 
Q 22.953125 6.109375 30.078125 6.109375 
Q 37.203125 6.109375 41.296875 11.75 
Q 45.40625 17.390625 45.40625 27.296875 
Q 45.40625 37.203125 41.296875 42.84375 
Q 37.203125 48.484375 30.078125 48.484375 
Q 22.953125 48.484375 18.875 42.84375 
Q 14.796875 37.203125 14.796875 27.296875 
z
" id="DejaVuSans-100"/>
     </defs>
     <g transform="translate(392.659375 106.434687)scale(0.1 -0.1)">
      <use xlink:href="#DejaVuSans-104"/>
      <use x="63.378906" xlink:href="#DejaVuSans-97"/>
      <use x="124.658203" xlink:href="#DejaVuSans-114"/>
      <use x="164.021484" xlink:href="#DejaVuSans-100"/>
      <use x="227.498047" xlink:href="#DejaVuSans-110"/>
      <use x="290.876953" xlink:href="#DejaVuSans-101"/>
      <use x="352.400391" xlink:href="#DejaVuSans-116"/>
      <use x="391.609375" xlink:href="#DejaVuSans-32"/>
      <use x="423.396484" xlink:href="#DejaVuSans-65"/>
      <use x="491.804688" xlink:href="#DejaVuSans-80"/>
      <use x="552.107422" xlink:href="#DejaVuSans-58"/>
      <use x="585.798828" xlink:href="#DejaVuSans-32"/>
      <use x="617.585938" xlink:href="#DejaVuSans-57"/>
      <use x="681.208984" xlink:href="#DejaVuSans-48"/>
      <use x="744.832031" xlink:href="#DejaVuSans-46"/>
      <use x="776.619141" xlink:href="#DejaVuSans-48"/>
      <use x="840.242188" xlink:href="#DejaVuSans-44"/>
      <use x="872.029297" xlink:href="#DejaVuSans-32"/>
      <use x="903.816406" xlink:href="#DejaVuSans-37"/>
      <use x="998.835938" xlink:href="#DejaVuSans-73"/>
      <use x="1028.328125" xlink:href="#DejaVuSans-110"/>
      <use x="1091.707031" xlink:href="#DejaVuSans-58"/>
      <use x="1125.398438" xlink:href="#DejaVuSans-32"/>
      <use x="1157.185547" xlink:href="#DejaVuSans-52"/>
      <use x="1220.808594" xlink:href="#DejaVuSans-57"/>
      <use x="1284.431641" xlink:href="#DejaVuSans-46"/>
      <use x="1316.21875" xlink:href="#DejaVuSans-52"/>
     </g>
    </g>
   </g>
  </g>
 </g>
 <defs>
  <clipPath id="p9748c58d78">
   <rect height="388.08" width="474.3" x="76.5" y="60.48"/>
  </clipPath>
 </defs>
</svg>
