<?xml version="1.0" encoding="utf-8" standalone="no"?>
<!DOCTYPE svg PUBLIC "-//W3C//DTD SVG 1.1//EN"
  "http://www.w3.org/Graphics/SVG/1.1/DTD/svg11.dtd">
<!-- Created with matplotlib (https://matplotlib.org/) -->
<svg height="504pt" version="1.1" viewBox="0 0 612 504" width="612pt" xmlns="http://www.w3.org/2000/svg" xmlns:xlink="http://www.w3.org/1999/xlink">
 <defs>
  <style type="text/css">
*{stroke-linecap:butt;stroke-linejoin:round;}
  </style>
 </defs>
 <g id="figure_1">
  <g id="patch_1">
   <path d="M 0 504 
L 612 504 
L 612 0 
L 0 0 
z
" style="fill:#ffffff;"/>
  </g>
  <g id="axes_1">
   <g id="patch_2">
    <path d="M 76.5 448.56 
L 550.8 448.56 
L 550.8 60.48 
L 76.5 60.48 
z
" style="fill:#ffffff;"/>
   </g>
   <g id="matplotlib.axis_1">
    <g id="xtick_1">
     <g id="line2d_1">
      <path clip-path="url(#p743b93ef0c)" d="M 76.5 448.56 
L 76.5 60.48 
" style="fill:none;stroke:#b0b0b0;stroke-linecap:square;stroke-width:0.8;"/>
     </g>
     <g id="line2d_2">
      <defs>
       <path d="M 0 0 
L 0 3.5 
" id="mf315ac05ad" style="stroke:#000000;stroke-width:0.8;"/>
      </defs>
      <g>
       <use style="stroke:#000000;stroke-width:0.8;" x="76.5" xlink:href="#mf315ac05ad" y="448.56"/>
      </g>
     </g>
     <g id="text_1">
      <!-- 0.0 -->
      <defs>
       <path d="M 31.78125 66.40625 
Q 24.171875 66.40625 20.328125 58.90625 
Q 16.5 51.421875 16.5 36.375 
Q 16.5 21.390625 20.328125 13.890625 
Q 24.171875 6.390625 31.78125 6.390625 
Q 39.453125 6.390625 43.28125 13.890625 
Q 47.125 21.390625 47.125 36.375 
Q 47.125 51.421875 43.28125 58.90625 
Q 39.453125 66.40625 31.78125 66.40625 
z
M 31.78125 74.21875 
Q 44.046875 74.21875 50.515625 64.515625 
Q 56.984375 54.828125 56.984375 36.375 
Q 56.984375 17.96875 50.515625 8.265625 
Q 44.046875 -1.421875 31.78125 -1.421875 
Q 19.53125 -1.421875 13.0625 8.265625 
Q 6.59375 17.96875 6.59375 36.375 
Q 6.59375 54.828125 13.0625 64.515625 
Q 19.53125 74.21875 31.78125 74.21875 
z
" id="DejaVuSans-48"/>
       <path d="M 10.6875 12.40625 
L 21 12.40625 
L 21 0 
L 10.6875 0 
z
" id="DejaVuSans-46"/>
      </defs>
      <g transform="translate(68.548438 463.158437)scale(0.1 -0.1)">
       <use xlink:href="#DejaVuSans-48"/>
       <use x="63.623047" xlink:href="#DejaVuSans-46"/>
       <use x="95.410156" xlink:href="#DejaVuSans-48"/>
      </g>
     </g>
    </g>
    <g id="xtick_2">
     <g id="line2d_3">
      <path clip-path="url(#p743b93ef0c)" d="M 123.93 448.56 
L 123.93 60.48 
" style="fill:none;stroke:#b0b0b0;stroke-linecap:square;stroke-width:0.8;"/>
     </g>
     <g id="line2d_4">
      <g>
       <use style="stroke:#000000;stroke-width:0.8;" x="123.93" xlink:href="#mf315ac05ad" y="448.56"/>
      </g>
     </g>
     <g id="text_2">
      <!-- 0.1 -->
      <defs>
       <path d="M 12.40625 8.296875 
L 28.515625 8.296875 
L 28.515625 63.921875 
L 10.984375 60.40625 
L 10.984375 69.390625 
L 28.421875 72.90625 
L 38.28125 72.90625 
L 38.28125 8.296875 
L 54.390625 8.296875 
L 54.390625 0 
L 12.40625 0 
z
" id="DejaVuSans-49"/>
      </defs>
      <g transform="translate(115.978438 463.158437)scale(0.1 -0.1)">
       <use xlink:href="#DejaVuSans-48"/>
       <use x="63.623047" xlink:href="#DejaVuSans-46"/>
       <use x="95.410156" xlink:href="#DejaVuSans-49"/>
      </g>
     </g>
    </g>
    <g id="xtick_3">
     <g id="line2d_5">
      <path clip-path="url(#p743b93ef0c)" d="M 171.36 448.56 
L 171.36 60.48 
" style="fill:none;stroke:#b0b0b0;stroke-linecap:square;stroke-width:0.8;"/>
     </g>
     <g id="line2d_6">
      <g>
       <use style="stroke:#000000;stroke-width:0.8;" x="171.36" xlink:href="#mf315ac05ad" y="448.56"/>
      </g>
     </g>
     <g id="text_3">
      <!-- 0.2 -->
      <defs>
       <path d="M 19.1875 8.296875 
L 53.609375 8.296875 
L 53.609375 0 
L 7.328125 0 
L 7.328125 8.296875 
Q 12.9375 14.109375 22.625 23.890625 
Q 32.328125 33.6875 34.8125 36.53125 
Q 39.546875 41.84375 41.421875 45.53125 
Q 43.3125 49.21875 43.3125 52.78125 
Q 43.3125 58.59375 39.234375 62.25 
Q 35.15625 65.921875 28.609375 65.921875 
Q 23.96875 65.921875 18.8125 64.3125 
Q 13.671875 62.703125 7.8125 59.421875 
L 7.8125 69.390625 
Q 13.765625 71.78125 18.9375 73 
Q 24.125 74.21875 28.421875 74.21875 
Q 39.75 74.21875 46.484375 68.546875 
Q 53.21875 62.890625 53.21875 53.421875 
Q 53.21875 48.921875 51.53125 44.890625 
Q 49.859375 40.875 45.40625 35.40625 
Q 44.1875 33.984375 37.640625 27.21875 
Q 31.109375 20.453125 19.1875 8.296875 
z
" id="DejaVuSans-50"/>
      </defs>
      <g transform="translate(163.408438 463.158437)scale(0.1 -0.1)">
       <use xlink:href="#DejaVuSans-48"/>
       <use x="63.623047" xlink:href="#DejaVuSans-46"/>
       <use x="95.410156" xlink:href="#DejaVuSans-50"/>
      </g>
     </g>
    </g>
    <g id="xtick_4">
     <g id="line2d_7">
      <path clip-path="url(#p743b93ef0c)" d="M 218.79 448.56 
L 218.79 60.48 
" style="fill:none;stroke:#b0b0b0;stroke-linecap:square;stroke-width:0.8;"/>
     </g>
     <g id="line2d_8">
      <g>
       <use style="stroke:#000000;stroke-width:0.8;" x="218.79" xlink:href="#mf315ac05ad" y="448.56"/>
      </g>
     </g>
     <g id="text_4">
      <!-- 0.3 -->
      <defs>
       <path d="M 40.578125 39.3125 
Q 47.65625 37.796875 51.625 33 
Q 55.609375 28.21875 55.609375 21.1875 
Q 55.609375 10.40625 48.1875 4.484375 
Q 40.765625 -1.421875 27.09375 -1.421875 
Q 22.515625 -1.421875 17.65625 -0.515625 
Q 12.796875 0.390625 7.625 2.203125 
L 7.625 11.71875 
Q 11.71875 9.328125 16.59375 8.109375 
Q 21.484375 6.890625 26.8125 6.890625 
Q 36.078125 6.890625 40.9375 10.546875 
Q 45.796875 14.203125 45.796875 21.1875 
Q 45.796875 27.640625 41.28125 31.265625 
Q 36.765625 34.90625 28.71875 34.90625 
L 20.21875 34.90625 
L 20.21875 43.015625 
L 29.109375 43.015625 
Q 36.375 43.015625 40.234375 45.921875 
Q 44.09375 48.828125 44.09375 54.296875 
Q 44.09375 59.90625 40.109375 62.90625 
Q 36.140625 65.921875 28.71875 65.921875 
Q 24.65625 65.921875 20.015625 65.03125 
Q 15.375 64.15625 9.8125 62.3125 
L 9.8125 71.09375 
Q 15.4375 72.65625 20.34375 73.4375 
Q 25.25 74.21875 29.59375 74.21875 
Q 40.828125 74.21875 47.359375 69.109375 
Q 53.90625 64.015625 53.90625 55.328125 
Q 53.90625 49.265625 50.4375 45.09375 
Q 46.96875 40.921875 40.578125 39.3125 
z
" id="DejaVuSans-51"/>
      </defs>
      <g transform="translate(210.838438 463.158437)scale(0.1 -0.1)">
       <use xlink:href="#DejaVuSans-48"/>
       <use x="63.623047" xlink:href="#DejaVuSans-46"/>
       <use x="95.410156" xlink:href="#DejaVuSans-51"/>
      </g>
     </g>
    </g>
    <g id="xtick_5">
     <g id="line2d_9">
      <path clip-path="url(#p743b93ef0c)" d="M 266.22 448.56 
L 266.22 60.48 
" style="fill:none;stroke:#b0b0b0;stroke-linecap:square;stroke-width:0.8;"/>
     </g>
     <g id="line2d_10">
      <g>
       <use style="stroke:#000000;stroke-width:0.8;" x="266.22" xlink:href="#mf315ac05ad" y="448.56"/>
      </g>
     </g>
     <g id="text_5">
      <!-- 0.4 -->
      <defs>
       <path d="M 37.796875 64.3125 
L 12.890625 25.390625 
L 37.796875 25.390625 
z
M 35.203125 72.90625 
L 47.609375 72.90625 
L 47.609375 25.390625 
L 58.015625 25.390625 
L 58.015625 17.1875 
L 47.609375 17.1875 
L 47.609375 0 
L 37.796875 0 
L 37.796875 17.1875 
L 4.890625 17.1875 
L 4.890625 26.703125 
z
" id="DejaVuSans-52"/>
      </defs>
      <g transform="translate(258.268438 463.158437)scale(0.1 -0.1)">
       <use xlink:href="#DejaVuSans-48"/>
       <use x="63.623047" xlink:href="#DejaVuSans-46"/>
       <use x="95.410156" xlink:href="#DejaVuSans-52"/>
      </g>
     </g>
    </g>
    <g id="xtick_6">
     <g id="line2d_11">
      <path clip-path="url(#p743b93ef0c)" d="M 313.65 448.56 
L 313.65 60.48 
" style="fill:none;stroke:#b0b0b0;stroke-linecap:square;stroke-width:0.8;"/>
     </g>
     <g id="line2d_12">
      <g>
       <use style="stroke:#000000;stroke-width:0.8;" x="313.65" xlink:href="#mf315ac05ad" y="448.56"/>
      </g>
     </g>
     <g id="text_6">
      <!-- 0.5 -->
      <defs>
       <path d="M 10.796875 72.90625 
L 49.515625 72.90625 
L 49.515625 64.59375 
L 19.828125 64.59375 
L 19.828125 46.734375 
Q 21.96875 47.46875 24.109375 47.828125 
Q 26.265625 48.1875 28.421875 48.1875 
Q 40.625 48.1875 47.75 41.5 
Q 54.890625 34.8125 54.890625 23.390625 
Q 54.890625 11.625 47.5625 5.09375 
Q 40.234375 -1.421875 26.90625 -1.421875 
Q 22.3125 -1.421875 17.546875 -0.640625 
Q 12.796875 0.140625 7.71875 1.703125 
L 7.71875 11.625 
Q 12.109375 9.234375 16.796875 8.0625 
Q 21.484375 6.890625 26.703125 6.890625 
Q 35.15625 6.890625 40.078125 11.328125 
Q 45.015625 15.765625 45.015625 23.390625 
Q 45.015625 31 40.078125 35.4375 
Q 35.15625 39.890625 26.703125 39.890625 
Q 22.75 39.890625 18.8125 39.015625 
Q 14.890625 38.140625 10.796875 36.28125 
z
" id="DejaVuSans-53"/>
      </defs>
      <g transform="translate(305.698438 463.158437)scale(0.1 -0.1)">
       <use xlink:href="#DejaVuSans-48"/>
       <use x="63.623047" xlink:href="#DejaVuSans-46"/>
       <use x="95.410156" xlink:href="#DejaVuSans-53"/>
      </g>
     </g>
    </g>
    <g id="xtick_7">
     <g id="line2d_13">
      <path clip-path="url(#p743b93ef0c)" d="M 361.08 448.56 
L 361.08 60.48 
" style="fill:none;stroke:#b0b0b0;stroke-linecap:square;stroke-width:0.8;"/>
     </g>
     <g id="line2d_14">
      <g>
       <use style="stroke:#000000;stroke-width:0.8;" x="361.08" xlink:href="#mf315ac05ad" y="448.56"/>
      </g>
     </g>
     <g id="text_7">
      <!-- 0.6 -->
      <defs>
       <path d="M 33.015625 40.375 
Q 26.375 40.375 22.484375 35.828125 
Q 18.609375 31.296875 18.609375 23.390625 
Q 18.609375 15.53125 22.484375 10.953125 
Q 26.375 6.390625 33.015625 6.390625 
Q 39.65625 6.390625 43.53125 10.953125 
Q 47.40625 15.53125 47.40625 23.390625 
Q 47.40625 31.296875 43.53125 35.828125 
Q 39.65625 40.375 33.015625 40.375 
z
M 52.59375 71.296875 
L 52.59375 62.3125 
Q 48.875 64.0625 45.09375 64.984375 
Q 41.3125 65.921875 37.59375 65.921875 
Q 27.828125 65.921875 22.671875 59.328125 
Q 17.53125 52.734375 16.796875 39.40625 
Q 19.671875 43.65625 24.015625 45.921875 
Q 28.375 48.1875 33.59375 48.1875 
Q 44.578125 48.1875 50.953125 41.515625 
Q 57.328125 34.859375 57.328125 23.390625 
Q 57.328125 12.15625 50.6875 5.359375 
Q 44.046875 -1.421875 33.015625 -1.421875 
Q 20.359375 -1.421875 13.671875 8.265625 
Q 6.984375 17.96875 6.984375 36.375 
Q 6.984375 53.65625 15.1875 63.9375 
Q 23.390625 74.21875 37.203125 74.21875 
Q 40.921875 74.21875 44.703125 73.484375 
Q 48.484375 72.75 52.59375 71.296875 
z
" id="DejaVuSans-54"/>
      </defs>
      <g transform="translate(353.128438 463.158437)scale(0.1 -0.1)">
       <use xlink:href="#DejaVuSans-48"/>
       <use x="63.623047" xlink:href="#DejaVuSans-46"/>
       <use x="95.410156" xlink:href="#DejaVuSans-54"/>
      </g>
     </g>
    </g>
    <g id="xtick_8">
     <g id="line2d_15">
      <path clip-path="url(#p743b93ef0c)" d="M 408.51 448.56 
L 408.51 60.48 
" style="fill:none;stroke:#b0b0b0;stroke-linecap:square;stroke-width:0.8;"/>
     </g>
     <g id="line2d_16">
      <g>
       <use style="stroke:#000000;stroke-width:0.8;" x="408.51" xlink:href="#mf315ac05ad" y="448.56"/>
      </g>
     </g>
     <g id="text_8">
      <!-- 0.7 -->
      <defs>
       <path d="M 8.203125 72.90625 
L 55.078125 72.90625 
L 55.078125 68.703125 
L 28.609375 0 
L 18.3125 0 
L 43.21875 64.59375 
L 8.203125 64.59375 
z
" id="DejaVuSans-55"/>
      </defs>
      <g transform="translate(400.558438 463.158437)scale(0.1 -0.1)">
       <use xlink:href="#DejaVuSans-48"/>
       <use x="63.623047" xlink:href="#DejaVuSans-46"/>
       <use x="95.410156" xlink:href="#DejaVuSans-55"/>
      </g>
     </g>
    </g>
    <g id="xtick_9">
     <g id="line2d_17">
      <path clip-path="url(#p743b93ef0c)" d="M 455.94 448.56 
L 455.94 60.48 
" style="fill:none;stroke:#b0b0b0;stroke-linecap:square;stroke-width:0.8;"/>
     </g>
     <g id="line2d_18">
      <g>
       <use style="stroke:#000000;stroke-width:0.8;" x="455.94" xlink:href="#mf315ac05ad" y="448.56"/>
      </g>
     </g>
     <g id="text_9">
      <!-- 0.8 -->
      <defs>
       <path d="M 31.78125 34.625 
Q 24.75 34.625 20.71875 30.859375 
Q 16.703125 27.09375 16.703125 20.515625 
Q 16.703125 13.921875 20.71875 10.15625 
Q 24.75 6.390625 31.78125 6.390625 
Q 38.8125 6.390625 42.859375 10.171875 
Q 46.921875 13.96875 46.921875 20.515625 
Q 46.921875 27.09375 42.890625 30.859375 
Q 38.875 34.625 31.78125 34.625 
z
M 21.921875 38.8125 
Q 15.578125 40.375 12.03125 44.71875 
Q 8.5 49.078125 8.5 55.328125 
Q 8.5 64.0625 14.71875 69.140625 
Q 20.953125 74.21875 31.78125 74.21875 
Q 42.671875 74.21875 48.875 69.140625 
Q 55.078125 64.0625 55.078125 55.328125 
Q 55.078125 49.078125 51.53125 44.71875 
Q 48 40.375 41.703125 38.8125 
Q 48.828125 37.15625 52.796875 32.3125 
Q 56.78125 27.484375 56.78125 20.515625 
Q 56.78125 9.90625 50.3125 4.234375 
Q 43.84375 -1.421875 31.78125 -1.421875 
Q 19.734375 -1.421875 13.25 4.234375 
Q 6.78125 9.90625 6.78125 20.515625 
Q 6.78125 27.484375 10.78125 32.3125 
Q 14.796875 37.15625 21.921875 38.8125 
z
M 18.3125 54.390625 
Q 18.3125 48.734375 21.84375 45.5625 
Q 25.390625 42.390625 31.78125 42.390625 
Q 38.140625 42.390625 41.71875 45.5625 
Q 45.3125 48.734375 45.3125 54.390625 
Q 45.3125 60.0625 41.71875 63.234375 
Q 38.140625 66.40625 31.78125 66.40625 
Q 25.390625 66.40625 21.84375 63.234375 
Q 18.3125 60.0625 18.3125 54.390625 
z
" id="DejaVuSans-56"/>
      </defs>
      <g transform="translate(447.988438 463.158437)scale(0.1 -0.1)">
       <use xlink:href="#DejaVuSans-48"/>
       <use x="63.623047" xlink:href="#DejaVuSans-46"/>
       <use x="95.410156" xlink:href="#DejaVuSans-56"/>
      </g>
     </g>
    </g>
    <g id="xtick_10">
     <g id="line2d_19">
      <path clip-path="url(#p743b93ef0c)" d="M 503.37 448.56 
L 503.37 60.48 
" style="fill:none;stroke:#b0b0b0;stroke-linecap:square;stroke-width:0.8;"/>
     </g>
     <g id="line2d_20">
      <g>
       <use style="stroke:#000000;stroke-width:0.8;" x="503.37" xlink:href="#mf315ac05ad" y="448.56"/>
      </g>
     </g>
     <g id="text_10">
      <!-- 0.9 -->
      <defs>
       <path d="M 10.984375 1.515625 
L 10.984375 10.5 
Q 14.703125 8.734375 18.5 7.8125 
Q 22.3125 6.890625 25.984375 6.890625 
Q 35.75 6.890625 40.890625 13.453125 
Q 46.046875 20.015625 46.78125 33.40625 
Q 43.953125 29.203125 39.59375 26.953125 
Q 35.25 24.703125 29.984375 24.703125 
Q 19.046875 24.703125 12.671875 31.3125 
Q 6.296875 37.9375 6.296875 49.421875 
Q 6.296875 60.640625 12.9375 67.421875 
Q 19.578125 74.21875 30.609375 74.21875 
Q 43.265625 74.21875 49.921875 64.515625 
Q 56.59375 54.828125 56.59375 36.375 
Q 56.59375 19.140625 48.40625 8.859375 
Q 40.234375 -1.421875 26.421875 -1.421875 
Q 22.703125 -1.421875 18.890625 -0.6875 
Q 15.09375 0.046875 10.984375 1.515625 
z
M 30.609375 32.421875 
Q 37.25 32.421875 41.125 36.953125 
Q 45.015625 41.5 45.015625 49.421875 
Q 45.015625 57.28125 41.125 61.84375 
Q 37.25 66.40625 30.609375 66.40625 
Q 23.96875 66.40625 20.09375 61.84375 
Q 16.21875 57.28125 16.21875 49.421875 
Q 16.21875 41.5 20.09375 36.953125 
Q 23.96875 32.421875 30.609375 32.421875 
z
" id="DejaVuSans-57"/>
      </defs>
      <g transform="translate(495.418438 463.158437)scale(0.1 -0.1)">
       <use xlink:href="#DejaVuSans-48"/>
       <use x="63.623047" xlink:href="#DejaVuSans-46"/>
       <use x="95.410156" xlink:href="#DejaVuSans-57"/>
      </g>
     </g>
    </g>
    <g id="xtick_11">
     <g id="line2d_21">
      <path clip-path="url(#p743b93ef0c)" d="M 550.8 448.56 
L 550.8 60.48 
" style="fill:none;stroke:#b0b0b0;stroke-linecap:square;stroke-width:0.8;"/>
     </g>
     <g id="line2d_22">
      <g>
       <use style="stroke:#000000;stroke-width:0.8;" x="550.8" xlink:href="#mf315ac05ad" y="448.56"/>
      </g>
     </g>
     <g id="text_11">
      <!-- 1.0 -->
      <g transform="translate(542.848438 463.158437)scale(0.1 -0.1)">
       <use xlink:href="#DejaVuSans-49"/>
       <use x="63.623047" xlink:href="#DejaVuSans-46"/>
       <use x="95.410156" xlink:href="#DejaVuSans-48"/>
      </g>
     </g>
    </g>
    <g id="text_12">
     <!-- 1-precision -->
     <defs>
      <path d="M 4.890625 31.390625 
L 31.203125 31.390625 
L 31.203125 23.390625 
L 4.890625 23.390625 
z
" id="DejaVuSans-45"/>
      <path d="M 18.109375 8.203125 
L 18.109375 -20.796875 
L 9.078125 -20.796875 
L 9.078125 54.6875 
L 18.109375 54.6875 
L 18.109375 46.390625 
Q 20.953125 51.265625 25.265625 53.625 
Q 29.59375 56 35.59375 56 
Q 45.5625 56 51.78125 48.09375 
Q 58.015625 40.1875 58.015625 27.296875 
Q 58.015625 14.40625 51.78125 6.484375 
Q 45.5625 -1.421875 35.59375 -1.421875 
Q 29.59375 -1.421875 25.265625 0.953125 
Q 20.953125 3.328125 18.109375 8.203125 
z
M 48.6875 27.296875 
Q 48.6875 37.203125 44.609375 42.84375 
Q 40.53125 48.484375 33.40625 48.484375 
Q 26.265625 48.484375 22.1875 42.84375 
Q 18.109375 37.203125 18.109375 27.296875 
Q 18.109375 17.390625 22.1875 11.75 
Q 26.265625 6.109375 33.40625 6.109375 
Q 40.53125 6.109375 44.609375 11.75 
Q 48.6875 17.390625 48.6875 27.296875 
z
" id="DejaVuSans-112"/>
      <path d="M 41.109375 46.296875 
Q 39.59375 47.171875 37.8125 47.578125 
Q 36.03125 48 33.890625 48 
Q 26.265625 48 22.1875 43.046875 
Q 18.109375 38.09375 18.109375 28.8125 
L 18.109375 0 
L 9.078125 0 
L 9.078125 54.6875 
L 18.109375 54.6875 
L 18.109375 46.1875 
Q 20.953125 51.171875 25.484375 53.578125 
Q 30.03125 56 36.53125 56 
Q 37.453125 56 38.578125 55.875 
Q 39.703125 55.765625 41.0625 55.515625 
z
" id="DejaVuSans-114"/>
      <path d="M 56.203125 29.59375 
L 56.203125 25.203125 
L 14.890625 25.203125 
Q 15.484375 15.921875 20.484375 11.0625 
Q 25.484375 6.203125 34.421875 6.203125 
Q 39.59375 6.203125 44.453125 7.46875 
Q 49.3125 8.734375 54.109375 11.28125 
L 54.109375 2.78125 
Q 49.265625 0.734375 44.1875 -0.34375 
Q 39.109375 -1.421875 33.890625 -1.421875 
Q 20.796875 -1.421875 13.15625 6.1875 
Q 5.515625 13.8125 5.515625 26.8125 
Q 5.515625 40.234375 12.765625 48.109375 
Q 20.015625 56 32.328125 56 
Q 43.359375 56 49.78125 48.890625 
Q 56.203125 41.796875 56.203125 29.59375 
z
M 47.21875 32.234375 
Q 47.125 39.59375 43.09375 43.984375 
Q 39.0625 48.390625 32.421875 48.390625 
Q 24.90625 48.390625 20.390625 44.140625 
Q 15.875 39.890625 15.1875 32.171875 
z
" id="DejaVuSans-101"/>
      <path d="M 48.78125 52.59375 
L 48.78125 44.1875 
Q 44.96875 46.296875 41.140625 47.34375 
Q 37.3125 48.390625 33.40625 48.390625 
Q 24.65625 48.390625 19.8125 42.84375 
Q 14.984375 37.3125 14.984375 27.296875 
Q 14.984375 17.28125 19.8125 11.734375 
Q 24.65625 6.203125 33.40625 6.203125 
Q 37.3125 6.203125 41.140625 7.25 
Q 44.96875 8.296875 48.78125 10.40625 
L 48.78125 2.09375 
Q 45.015625 0.34375 40.984375 -0.53125 
Q 36.96875 -1.421875 32.421875 -1.421875 
Q 20.0625 -1.421875 12.78125 6.34375 
Q 5.515625 14.109375 5.515625 27.296875 
Q 5.515625 40.671875 12.859375 48.328125 
Q 20.21875 56 33.015625 56 
Q 37.15625 56 41.109375 55.140625 
Q 45.0625 54.296875 48.78125 52.59375 
z
" id="DejaVuSans-99"/>
      <path d="M 9.421875 54.6875 
L 18.40625 54.6875 
L 18.40625 0 
L 9.421875 0 
z
M 9.421875 75.984375 
L 18.40625 75.984375 
L 18.40625 64.59375 
L 9.421875 64.59375 
z
" id="DejaVuSans-105"/>
      <path d="M 44.28125 53.078125 
L 44.28125 44.578125 
Q 40.484375 46.53125 36.375 47.5 
Q 32.28125 48.484375 27.875 48.484375 
Q 21.1875 48.484375 17.84375 46.4375 
Q 14.5 44.390625 14.5 40.28125 
Q 14.5 37.15625 16.890625 35.375 
Q 19.28125 33.59375 26.515625 31.984375 
L 29.59375 31.296875 
Q 39.15625 29.25 43.1875 25.515625 
Q 47.21875 21.78125 47.21875 15.09375 
Q 47.21875 7.46875 41.1875 3.015625 
Q 35.15625 -1.421875 24.609375 -1.421875 
Q 20.21875 -1.421875 15.453125 -0.5625 
Q 10.6875 0.296875 5.421875 2 
L 5.421875 11.28125 
Q 10.40625 8.6875 15.234375 7.390625 
Q 20.0625 6.109375 24.8125 6.109375 
Q 31.15625 6.109375 34.5625 8.28125 
Q 37.984375 10.453125 37.984375 14.40625 
Q 37.984375 18.0625 35.515625 20.015625 
Q 33.0625 21.96875 24.703125 23.78125 
L 21.578125 24.515625 
Q 13.234375 26.265625 9.515625 29.90625 
Q 5.8125 33.546875 5.8125 39.890625 
Q 5.8125 47.609375 11.28125 51.796875 
Q 16.75 56 26.8125 56 
Q 31.78125 56 36.171875 55.265625 
Q 40.578125 54.546875 44.28125 53.078125 
z
" id="DejaVuSans-115"/>
      <path d="M 30.609375 48.390625 
Q 23.390625 48.390625 19.1875 42.75 
Q 14.984375 37.109375 14.984375 27.296875 
Q 14.984375 17.484375 19.15625 11.84375 
Q 23.34375 6.203125 30.609375 6.203125 
Q 37.796875 6.203125 41.984375 11.859375 
Q 46.1875 17.53125 46.1875 27.296875 
Q 46.1875 37.015625 41.984375 42.703125 
Q 37.796875 48.390625 30.609375 48.390625 
z
M 30.609375 56 
Q 42.328125 56 49.015625 48.375 
Q 55.71875 40.765625 55.71875 27.296875 
Q 55.71875 13.875 49.015625 6.21875 
Q 42.328125 -1.421875 30.609375 -1.421875 
Q 18.84375 -1.421875 12.171875 6.21875 
Q 5.515625 13.875 5.515625 27.296875 
Q 5.515625 40.765625 12.171875 48.375 
Q 18.84375 56 30.609375 56 
z
" id="DejaVuSans-111"/>
      <path d="M 54.890625 33.015625 
L 54.890625 0 
L 45.90625 0 
L 45.90625 32.71875 
Q 45.90625 40.484375 42.875 44.328125 
Q 39.84375 48.1875 33.796875 48.1875 
Q 26.515625 48.1875 22.3125 43.546875 
Q 18.109375 38.921875 18.109375 30.90625 
L 18.109375 0 
L 9.078125 0 
L 9.078125 54.6875 
L 18.109375 54.6875 
L 18.109375 46.1875 
Q 21.34375 51.125 25.703125 53.5625 
Q 30.078125 56 35.796875 56 
Q 45.21875 56 50.046875 50.171875 
Q 54.890625 44.34375 54.890625 33.015625 
z
" id="DejaVuSans-110"/>
     </defs>
     <g transform="translate(286.110938 476.836563)scale(0.1 -0.1)">
      <use xlink:href="#DejaVuSans-49"/>
      <use x="63.623047" xlink:href="#DejaVuSans-45"/>
      <use x="99.707031" xlink:href="#DejaVuSans-112"/>
      <use x="163.183594" xlink:href="#DejaVuSans-114"/>
      <use x="202.046875" xlink:href="#DejaVuSans-101"/>
      <use x="263.570312" xlink:href="#DejaVuSans-99"/>
      <use x="318.550781" xlink:href="#DejaVuSans-105"/>
      <use x="346.333984" xlink:href="#DejaVuSans-115"/>
      <use x="398.433594" xlink:href="#DejaVuSans-105"/>
      <use x="426.216797" xlink:href="#DejaVuSans-111"/>
      <use x="487.398438" xlink:href="#DejaVuSans-110"/>
     </g>
    </g>
   </g>
   <g id="matplotlib.axis_2">
    <g id="ytick_1">
     <g id="line2d_23">
      <path clip-path="url(#p743b93ef0c)" d="M 76.5 448.56 
L 550.8 448.56 
" style="fill:none;stroke:#b0b0b0;stroke-linecap:square;stroke-width:0.8;"/>
     </g>
     <g id="line2d_24">
      <defs>
       <path d="M 0 0 
L -3.5 0 
" id="me5cb3a5d86" style="stroke:#000000;stroke-width:0.8;"/>
      </defs>
      <g>
       <use style="stroke:#000000;stroke-width:0.8;" x="76.5" xlink:href="#me5cb3a5d86" y="448.56"/>
      </g>
     </g>
     <g id="text_13">
      <!-- 0.0 -->
      <g transform="translate(53.596875 452.359219)scale(0.1 -0.1)">
       <use xlink:href="#DejaVuSans-48"/>
       <use x="63.623047" xlink:href="#DejaVuSans-46"/>
       <use x="95.410156" xlink:href="#DejaVuSans-48"/>
      </g>
     </g>
    </g>
    <g id="ytick_2">
     <g id="line2d_25">
      <path clip-path="url(#p743b93ef0c)" d="M 76.5 409.752 
L 550.8 409.752 
" style="fill:none;stroke:#b0b0b0;stroke-linecap:square;stroke-width:0.8;"/>
     </g>
     <g id="line2d_26">
      <g>
       <use style="stroke:#000000;stroke-width:0.8;" x="76.5" xlink:href="#me5cb3a5d86" y="409.752"/>
      </g>
     </g>
     <g id="text_14">
      <!-- 0.1 -->
      <g transform="translate(53.596875 413.551219)scale(0.1 -0.1)">
       <use xlink:href="#DejaVuSans-48"/>
       <use x="63.623047" xlink:href="#DejaVuSans-46"/>
       <use x="95.410156" xlink:href="#DejaVuSans-49"/>
      </g>
     </g>
    </g>
    <g id="ytick_3">
     <g id="line2d_27">
      <path clip-path="url(#p743b93ef0c)" d="M 76.5 370.944 
L 550.8 370.944 
" style="fill:none;stroke:#b0b0b0;stroke-linecap:square;stroke-width:0.8;"/>
     </g>
     <g id="line2d_28">
      <g>
       <use style="stroke:#000000;stroke-width:0.8;" x="76.5" xlink:href="#me5cb3a5d86" y="370.944"/>
      </g>
     </g>
     <g id="text_15">
      <!-- 0.2 -->
      <g transform="translate(53.596875 374.743219)scale(0.1 -0.1)">
       <use xlink:href="#DejaVuSans-48"/>
       <use x="63.623047" xlink:href="#DejaVuSans-46"/>
       <use x="95.410156" xlink:href="#DejaVuSans-50"/>
      </g>
     </g>
    </g>
    <g id="ytick_4">
     <g id="line2d_29">
      <path clip-path="url(#p743b93ef0c)" d="M 76.5 332.136 
L 550.8 332.136 
" style="fill:none;stroke:#b0b0b0;stroke-linecap:square;stroke-width:0.8;"/>
     </g>
     <g id="line2d_30">
      <g>
       <use style="stroke:#000000;stroke-width:0.8;" x="76.5" xlink:href="#me5cb3a5d86" y="332.136"/>
      </g>
     </g>
     <g id="text_16">
      <!-- 0.3 -->
      <g transform="translate(53.596875 335.935219)scale(0.1 -0.1)">
       <use xlink:href="#DejaVuSans-48"/>
       <use x="63.623047" xlink:href="#DejaVuSans-46"/>
       <use x="95.410156" xlink:href="#DejaVuSans-51"/>
      </g>
     </g>
    </g>
    <g id="ytick_5">
     <g id="line2d_31">
      <path clip-path="url(#p743b93ef0c)" d="M 76.5 293.328 
L 550.8 293.328 
" style="fill:none;stroke:#b0b0b0;stroke-linecap:square;stroke-width:0.8;"/>
     </g>
     <g id="line2d_32">
      <g>
       <use style="stroke:#000000;stroke-width:0.8;" x="76.5" xlink:href="#me5cb3a5d86" y="293.328"/>
      </g>
     </g>
     <g id="text_17">
      <!-- 0.4 -->
      <g transform="translate(53.596875 297.127219)scale(0.1 -0.1)">
       <use xlink:href="#DejaVuSans-48"/>
       <use x="63.623047" xlink:href="#DejaVuSans-46"/>
       <use x="95.410156" xlink:href="#DejaVuSans-52"/>
      </g>
     </g>
    </g>
    <g id="ytick_6">
     <g id="line2d_33">
      <path clip-path="url(#p743b93ef0c)" d="M 76.5 254.52 
L 550.8 254.52 
" style="fill:none;stroke:#b0b0b0;stroke-linecap:square;stroke-width:0.8;"/>
     </g>
     <g id="line2d_34">
      <g>
       <use style="stroke:#000000;stroke-width:0.8;" x="76.5" xlink:href="#me5cb3a5d86" y="254.52"/>
      </g>
     </g>
     <g id="text_18">
      <!-- 0.5 -->
      <g transform="translate(53.596875 258.319219)scale(0.1 -0.1)">
       <use xlink:href="#DejaVuSans-48"/>
       <use x="63.623047" xlink:href="#DejaVuSans-46"/>
       <use x="95.410156" xlink:href="#DejaVuSans-53"/>
      </g>
     </g>
    </g>
    <g id="ytick_7">
     <g id="line2d_35">
      <path clip-path="url(#p743b93ef0c)" d="M 76.5 215.712 
L 550.8 215.712 
" style="fill:none;stroke:#b0b0b0;stroke-linecap:square;stroke-width:0.8;"/>
     </g>
     <g id="line2d_36">
      <g>
       <use style="stroke:#000000;stroke-width:0.8;" x="76.5" xlink:href="#me5cb3a5d86" y="215.712"/>
      </g>
     </g>
     <g id="text_19">
      <!-- 0.6 -->
      <g transform="translate(53.596875 219.511219)scale(0.1 -0.1)">
       <use xlink:href="#DejaVuSans-48"/>
       <use x="63.623047" xlink:href="#DejaVuSans-46"/>
       <use x="95.410156" xlink:href="#DejaVuSans-54"/>
      </g>
     </g>
    </g>
    <g id="ytick_8">
     <g id="line2d_37">
      <path clip-path="url(#p743b93ef0c)" d="M 76.5 176.904 
L 550.8 176.904 
" style="fill:none;stroke:#b0b0b0;stroke-linecap:square;stroke-width:0.8;"/>
     </g>
     <g id="line2d_38">
      <g>
       <use style="stroke:#000000;stroke-width:0.8;" x="76.5" xlink:href="#me5cb3a5d86" y="176.904"/>
      </g>
     </g>
     <g id="text_20">
      <!-- 0.7 -->
      <g transform="translate(53.596875 180.703219)scale(0.1 -0.1)">
       <use xlink:href="#DejaVuSans-48"/>
       <use x="63.623047" xlink:href="#DejaVuSans-46"/>
       <use x="95.410156" xlink:href="#DejaVuSans-55"/>
      </g>
     </g>
    </g>
    <g id="ytick_9">
     <g id="line2d_39">
      <path clip-path="url(#p743b93ef0c)" d="M 76.5 138.096 
L 550.8 138.096 
" style="fill:none;stroke:#b0b0b0;stroke-linecap:square;stroke-width:0.8;"/>
     </g>
     <g id="line2d_40">
      <g>
       <use style="stroke:#000000;stroke-width:0.8;" x="76.5" xlink:href="#me5cb3a5d86" y="138.096"/>
      </g>
     </g>
     <g id="text_21">
      <!-- 0.8 -->
      <g transform="translate(53.596875 141.895219)scale(0.1 -0.1)">
       <use xlink:href="#DejaVuSans-48"/>
       <use x="63.623047" xlink:href="#DejaVuSans-46"/>
       <use x="95.410156" xlink:href="#DejaVuSans-56"/>
      </g>
     </g>
    </g>
    <g id="ytick_10">
     <g id="line2d_41">
      <path clip-path="url(#p743b93ef0c)" d="M 76.5 99.288 
L 550.8 99.288 
" style="fill:none;stroke:#b0b0b0;stroke-linecap:square;stroke-width:0.8;"/>
     </g>
     <g id="line2d_42">
      <g>
       <use style="stroke:#000000;stroke-width:0.8;" x="76.5" xlink:href="#me5cb3a5d86" y="99.288"/>
      </g>
     </g>
     <g id="text_22">
      <!-- 0.9 -->
      <g transform="translate(53.596875 103.087219)scale(0.1 -0.1)">
       <use xlink:href="#DejaVuSans-48"/>
       <use x="63.623047" xlink:href="#DejaVuSans-46"/>
       <use x="95.410156" xlink:href="#DejaVuSans-57"/>
      </g>
     </g>
    </g>
    <g id="ytick_11">
     <g id="line2d_43">
      <path clip-path="url(#p743b93ef0c)" d="M 76.5 60.48 
L 550.8 60.48 
" style="fill:none;stroke:#b0b0b0;stroke-linecap:square;stroke-width:0.8;"/>
     </g>
     <g id="line2d_44">
      <g>
       <use style="stroke:#000000;stroke-width:0.8;" x="76.5" xlink:href="#me5cb3a5d86" y="60.48"/>
      </g>
     </g>
     <g id="text_23">
      <!-- 1.0 -->
      <g transform="translate(53.596875 64.279219)scale(0.1 -0.1)">
       <use xlink:href="#DejaVuSans-49"/>
       <use x="63.623047" xlink:href="#DejaVuSans-46"/>
       <use x="95.410156" xlink:href="#DejaVuSans-48"/>
      </g>
     </g>
    </g>
    <g id="text_24">
     <!-- #correct/1659 -->
     <defs>
      <path d="M 51.125 44 
L 36.921875 44 
L 32.8125 27.6875 
L 47.125 27.6875 
z
M 43.796875 71.78125 
L 38.71875 51.515625 
L 52.984375 51.515625 
L 58.109375 71.78125 
L 65.921875 71.78125 
L 60.890625 51.515625 
L 76.125 51.515625 
L 76.125 44 
L 58.984375 44 
L 54.984375 27.6875 
L 70.515625 27.6875 
L 70.515625 20.21875 
L 53.078125 20.21875 
L 48 0 
L 40.1875 0 
L 45.21875 20.21875 
L 30.90625 20.21875 
L 25.875 0 
L 18.015625 0 
L 23.09375 20.21875 
L 7.71875 20.21875 
L 7.71875 27.6875 
L 24.90625 27.6875 
L 29 44 
L 13.28125 44 
L 13.28125 51.515625 
L 30.90625 51.515625 
L 35.890625 71.78125 
z
" id="DejaVuSans-35"/>
      <path d="M 18.3125 70.21875 
L 18.3125 54.6875 
L 36.8125 54.6875 
L 36.8125 47.703125 
L 18.3125 47.703125 
L 18.3125 18.015625 
Q 18.3125 11.328125 20.140625 9.421875 
Q 21.96875 7.515625 27.59375 7.515625 
L 36.8125 7.515625 
L 36.8125 0 
L 27.59375 0 
Q 17.1875 0 13.234375 3.875 
Q 9.28125 7.765625 9.28125 18.015625 
L 9.28125 47.703125 
L 2.6875 47.703125 
L 2.6875 54.6875 
L 9.28125 54.6875 
L 9.28125 70.21875 
z
" id="DejaVuSans-116"/>
      <path d="M 25.390625 72.90625 
L 33.6875 72.90625 
L 8.296875 -9.28125 
L 0 -9.28125 
z
" id="DejaVuSans-47"/>
     </defs>
     <g transform="translate(47.517187 290.624688)rotate(-90)scale(0.1 -0.1)">
      <use xlink:href="#DejaVuSans-35"/>
      <use x="83.789062" xlink:href="#DejaVuSans-99"/>
      <use x="138.769531" xlink:href="#DejaVuSans-111"/>
      <use x="199.951172" xlink:href="#DejaVuSans-114"/>
      <use x="239.314453" xlink:href="#DejaVuSans-114"/>
      <use x="278.177734" xlink:href="#DejaVuSans-101"/>
      <use x="339.701172" xlink:href="#DejaVuSans-99"/>
      <use x="394.681641" xlink:href="#DejaVuSans-116"/>
      <use x="433.890625" xlink:href="#DejaVuSans-47"/>
      <use x="467.582031" xlink:href="#DejaVuSans-49"/>
      <use x="531.205078" xlink:href="#DejaVuSans-54"/>
      <use x="594.828125" xlink:href="#DejaVuSans-53"/>
      <use x="658.451172" xlink:href="#DejaVuSans-57"/>
     </g>
    </g>
   </g>
   <g id="line2d_45">
    <path clip-path="url(#p743b93ef0c)" d="M 550.8 448.56 
L 313.65 448.326076 
L 234.6 448.092152 
L 361.08 448.092152 
L 313.65 447.858228 
L 408.51 447.858228 
L 378.327273 447.624304 
L 450.947368 447.624304 
L 432.225 447.39038 
L 437.871429 447.39038 
L 451.9875 447.39038 
L 427.833333 446.922532 
L 443.7 446.922532 
L 421.445455 446.454684 
L 425.25 446.454684 
L 444.0825 446.454684 
L 421.445455 445.752911 
L 439.2 445.752911 
L 432.225 445.518987 
L 434.462264 445.518987 
L 451.35 445.518987 
L 445.4 445.285063 
L 447.046875 445.285063 
L 455.94 445.285063 
L 445.4 444.817215 
L 446.843836 444.817215 
L 453.507692 444.817215 
L 448.735443 444.583291 
L 450.01125 444.583291 
L 464.1 444.583291 
L 459.976596 444.349367 
L 461.86875 444.349367 
L 466.271287 444.349367 
L 462.45 444.115443 
L 464.149038 444.115443 
L 468.875455 444.115443 
L 465.340541 443.881519 
L 466.853097 443.881519 
L 469.024138 443.881519 
L 463.114286 443.413671 
L 463.845 443.413671 
L 467.985714 443.413671 
L 463.236923 442.945823 
L 460.284733 442.711899 
L 461.645865 442.711899 
L 475.274522 442.711899 
L 472.750633 442.477975 
L 473.72625 442.477975 
L 478.26 442.477975 
L 475.910526 442.244051 
L 476.776301 442.244051 
L 478.038068 442.244051 
L 475.769492 442.010127 
L 476.607821 442.010127 
L 480.159574 442.010127 
L 478.02381 441.776203 
L 478.785864 441.776203 
L 480.979188 441.776203 
L 478.936364 441.542278 
L 479.655 441.542278 
L 489.73133 441.542278 
L 487.965385 441.308354 
L 488.760759 441.308354 
L 490.292593 441.308354 
L 488.596721 441.07443 
L 489.352227 441.07443 
L 489.845783 441.07443 
L 487.060079 440.606582 
L 487.311024 440.606582 
L 488.53668 440.606582 
L 486.951923 440.372658 
L 487.680228 440.372658 
L 489.76875 440.372658 
L 488.254945 440.138734 
L 488.934783 440.138734 
L 489.158123 440.138734 
L 486.2 439.670886 
L 486.887234 439.670886 
L 492.66 439.670886 
L 491.321865 439.436962 
L 491.890127 439.436962 
L 492.077143 439.436962 
L 490.762025 439.203038 
L 491.326646 439.203038 
L 493.309091 439.203038 
L 492.049849 438.969114 
L 492.577545 438.969114 
L 492.924107 438.969114 
L 491.688427 438.73519 
L 492.21 438.73519 
L 493.720917 438.73519 
L 492.528857 438.501266 
L 493.024079 438.501266 
L 493.349577 438.501266 
L 492.178652 438.267342 
L 492.668524 438.267342 
L 503.044394 438.267342 
L 501.438462 437.799494 
L 501.549887 437.799494 
L 502.423503 437.799494 
L 501.481195 437.56557 
L 501.913816 437.56557 
L 502.020788 437.56557 
L 498.667888 436.629873 
L 502.324449 436.629873 
L 499.881113 435.928101 
L 500.183004 435.928101 
L 502.475094 435.928101 
L 501.672881 435.694177 
L 502.040187 435.694177 
L 502.402041 435.694177 
L 501.613333 435.460253 
L 501.975 435.460253 
L 502.76962 435.460253 
L 502.000181 435.226329 
L 502.35 435.226329 
L 503.286643 435.226329 
L 502.537895 434.992405 
L 502.874216 434.992405 
L 509.055842 434.992405 
L 508.400455 434.758481 
L 508.719248 434.758481 
L 509.768182 434.758481 
L 508.119884 434.056709 
L 508.181739 434.056709 
L 508.910256 434.056709 
L 508.295164 433.822785 
L 508.595339 433.822785 
L 510.365765 433.822785 
L 509.418121 433.354937 
L 509.473592 433.354937 
L 510.288173 433.354937 
L 508.859298 432.653165 
L 509.29112 432.653165 
L 508.179974 432.185316 
L 508.451786 432.185316 
L 509.090201 432.185316 
L 508.113 431.717468 
L 508.272478 431.717468 
L 510.529245 431.717468 
L 510.018021 431.483544 
L 510.256792 431.483544 
L 511.588335 431.483544 
L 510.605085 431.015696 
L 510.830899 431.015696 
L 515.544797 431.015696 
L 515.110099 430.781772 
L 515.320866 430.781772 
L 516.534981 430.781772 
L 516.117094 430.547848 
L 516.313598 430.547848 
L 517.957284 430.547848 
L 517.560647 430.313924 
L 517.768393 430.313924 
L 517.973558 430.313924 
L 517.582181 430.08 
L 517.787048 430.08 
L 518.93801 430.08 
L 518.562107 429.846076 
L 518.752703 429.846076 
L 519.36338 429.846076 
L 518.996772 429.612152 
L 519.18 429.612152 
L 519.8175 429.612152 
L 519.460274 429.378228 
L 519.661009 429.378228 
L 522.514473 429.378228 
L 522.190334 429.144304 
L 522.376245 429.144304 
L 522.58 429.144304 
L 522.260458 428.91038 
L 522.443274 428.91038 
L 522.603822 428.91038 
L 522.288331 428.676456 
L 522.468658 428.676456 
L 523.796986 428.676456 
L 523.49759 428.442532 
L 523.661078 428.442532 
L 524.105105 428.442532 
L 523.812361 428.208608 
L 523.987719 428.208608 
L 524.331687 428.208608 
L 524.044615 427.974684 
L 524.215032 427.974684 
L 524.416688 427.974684 
L 524.133733 427.740759 
L 524.30113 427.740759 
L 525.583333 427.740759 
L 525.215353 427.272911 
L 525.89446 427.272911 
L 525.635294 427.038987 
L 525.793926 427.038987 
L 525.851115 427.038987 
L 525.352397 426.571139 
L 525.496822 426.571139 
L 526.276238 426.571139 
L 525.877833 426.103291 
L 525.932277 426.103291 
L 526.683051 426.103291 
L 526.444733 425.869367 
L 526.598474 425.869367 
L 527.704066 425.869367 
L 527.477672 425.635443 
L 527.628814 425.635443 
L 528.026164 425.635443 
L 527.805044 425.401519 
L 527.950511 425.401519 
L 528.257657 425.401519 
L 528.040883 425.167595 
L 528.181974 425.167595 
L 528.667476 425.167595 
L 528.456576 424.933671 
L 528.601529 424.933671 
L 529.565824 424.933671 
L 529.288375 424.465823 
L 529.307303 424.465823 
L 530.090844 424.465823 
L 529.898644 424.231899 
L 530.039394 424.231899 
L 530.65 424.231899 
L 530.464557 423.997975 
L 530.604745 423.997975 
L 530.686309 423.997975 
L 530.40205 423.530127 
L 530.459279 423.530127 
L 530.708907 423.530127 
L 530.470193 423.062278 
L 530.486169 423.062278 
L 530.823686 423.062278 
L 530.648204 422.828354 
L 530.779662 422.828354 
L 531.476667 422.828354 
L 531.081126 422.126582 
L 531.102867 422.126582 
L 531.310582 422.126582 
L 531.145256 421.892658 
L 531.280072 421.892658 
L 532.180785 421.892658 
L 531.964396 421.42481 
L 531.996582 421.42481 
L 532.015842 421.42481 
L 531.526041 420.489114 
L 532.083788 420.489114 
L 531.934024 420.25519 
L 532.063369 420.25519 
L 532.263081 420.25519 
L 532.115919 420.021266 
L 532.241758 420.021266 
L 532.592133 420.021266 
L 532.448663 419.787342 
L 532.574789 419.787342 
L 532.597535 419.787342 
L 532.455271 419.553418 
L 532.580297 419.553418 
L 532.999395 419.553418 
L 532.83193 419.08557 
L 532.848123 419.08557 
L 533.040178 419.08557 
L 532.904545 418.851646 
L 533.031239 418.851646 
L 534.224298 418.851646 
L 534.098377 418.617722 
L 534.221518 418.617722 
L 534.248637 418.617722 
L 534.123876 418.383797 
L 534.245698 418.383797 
L 534.343653 418.383797 
L 534.220543 418.149873 
L 534.344436 418.149873 
L 534.586747 418.149873 
L 534.466325 417.915949 
L 534.589903 417.915949 
L 535.10581 417.915949 
L 534.902344 417.448101 
L 534.997921 417.448101 
L 535.319779 417.448101 
L 535.094702 416.980253 
L 535.217011 416.980253 
L 535.251068 416.980253 
L 535.028374 416.512405 
L 535.149928 416.512405 
L 535.474741 416.512405 
L 535.265669 416.044557 
L 535.378316 416.044557 
L 535.661607 416.044557 
L 535.556198 415.810633 
L 535.677704 415.810633 
L 536.254107 415.810633 
L 536.153417 415.576709 
L 536.274305 415.576709 
L 536.479593 415.576709 
L 536.381118 415.342785 
L 536.50051 415.342785 
L 536.557962 415.342785 
L 536.460698 415.108861 
L 536.580943 415.108861 
L 536.938381 415.108861 
L 536.844299 414.874937 
L 536.963047 414.874937 
L 537.002182 414.874937 
L 536.90917 414.641013 
L 537.026016 414.641013 
L 537.135486 414.641013 
L 537.043981 414.407089 
L 537.163174 414.407089 
L 537.330286 414.407089 
L 537.240665 414.173165 
L 537.3583 414.173165 
L 537.514539 414.173165 
L 537.42671 413.939241 
L 537.545393 413.939241 
L 537.552897 413.939241 
L 537.394121 413.471392 
L 537.496896 413.471392 
L 537.516766 413.471392 
L 537.430707 413.237468 
L 537.546984 413.237468 
L 537.556786 413.237468 
L 537.39625 412.76962 
L 537.504306 412.76962 
L 537.548009 412.76962 
L 537.463831 412.535696 
L 537.579692 412.535696 
L 537.639243 412.535696 
L 537.55617 412.301772 
L 537.672054 412.301772 
L 537.850114 412.301772 
L 537.768862 412.067848 
L 537.884866 412.067848 
L 538.049561 412.067848 
L 537.981081 411.6 
L 538.00734 411.6 
L 538.113459 411.6 
L 538.035325 411.366076 
L 538.150939 411.366076 
L 538.402548 411.366076 
L 538.326627 411.132152 
L 538.442404 411.132152 
L 538.881043 411.132152 
L 538.808433 410.898228 
L 538.924059 410.898228 
L 538.962719 410.898228 
L 538.86378 410.43038 
L 538.935221 410.43038 
L 539.063109 410.43038 
L 538.935309 409.962532 
L 539.036961 409.962532 
L 539.183628 409.962532 
L 539.11496 409.728608 
L 539.230007 409.728608 
L 539.2402 409.728608 
L 539.13347 409.260759 
L 539.219939 409.260759 
L 539.310108 409.260759 
L 539.243382 409.026835 
L 539.35885 409.026835 
L 539.518269 409.026835 
L 539.45311 408.792911 
L 539.566927 408.792911 
L 539.911276 408.792911 
L 539.851188 408.325063 
L 539.900922 408.325063 
L 540.07431 408.325063 
L 539.970949 407.857215 
L 540.066719 407.857215 
L 540.407329 407.857215 
L 540.348917 407.623291 
L 540.462162 407.623291 
L 540.485286 407.623291 
L 540.416849 406.921519 
L 540.42578 406.921519 
L 540.819459 406.921519 
L 540.780753 406.453671 
L 540.822905 406.453671 
L 541.315054 406.453671 
L 541.298338 405.985823 
L 541.325453 405.985823 
L 541.424242 405.985823 
L 541.373751 405.751899 
L 541.487028 405.751899 
L 541.530788 405.751899 
L 541.481132 405.517975 
L 541.594177 405.517975 
L 542.44149 405.517975 
L 542.396868 405.284051 
L 542.509609 405.284051 
L 542.699418 405.284051 
L 542.699418 405.284051 
" style="fill:none;stroke:#1f77b4;stroke-linecap:square;stroke-width:2;"/>
   </g>
   <g id="line2d_46">
    <path clip-path="url(#p743b93ef0c)" d="M 550.8 448.56 
L 503.37 448.326076 
L 514.315385 448.326076 
L 483.042857 448.092152 
L 495 448.092152 
L 511.275 448.092152 
L 493.884 447.858228 
L 501.734483 447.858228 
L 518.461364 447.858228 
L 508.64 447.624304 
L 512.856 447.624304 
L 526.476923 447.624304 
L 520.781013 447.39038 
L 523.224419 447.39038 
L 526.096875 447.39038 
L 521.461856 447.156456 
L 523.436538 447.156456 
L 525.391071 447.156456 
L 521.418584 446.922532 
L 523.1325 446.922532 
L 526.914388 446.922532 
L 523.697143 446.688608 
L 525.162162 446.688608 
L 522.151007 446.454684 
L 523.436538 446.454684 
L 524.45 446.454684 
L 521.70184 446.220759 
L 522.9 446.220759 
L 527.202985 446.220759 
L 524.971782 445.986835 
L 525.955714 445.986835 
L 531.404833 445.986835 
L 529.72 445.752911 
L 530.472857 445.752911 
L 531.374744 445.752911 
L 529.827551 445.518987 
L 530.517434 445.518987 
L 532.228012 445.518987 
L 530.859459 445.285063 
L 531.497093 445.285063 
L 533.860714 445.285063 
L 531.636364 444.817215 
L 532.062222 444.817215 
L 532.513735 444.817215 
L 531.417548 444.583291 
L 531.916862 444.583291 
L 532.178522 444.583291 
L 531.128571 444.349367 
L 531.614831 444.349367 
L 532.51863 444.349367 
L 531.0375 443.881519 
L 534.639864 443.881519 
L 533.860714 443.647595 
L 534.227121 443.647595 
L 536.427273 443.647595 
L 535.764553 443.413671 
L 536.082652 443.413671 
L 536.564529 443.413671 
L 535.937738 443.179747 
L 536.2548 443.179747 
L 536.577184 443.179747 
L 535.978125 442.945823 
L 536.280612 442.945823 
L 536.901099 442.945823 
L 536.339634 442.711899 
L 536.616388 442.711899 
L 537.536577 442.711899 
L 537.021453 442.477975 
L 537.278289 442.477975 
L 538.305775 442.477975 
L 537.83836 442.244051 
L 538.08292 442.244051 
L 542.521978 442.244051 
L 542.22093 442.010127 
L 542.4 442.010127 
L 543.105678 442.010127 
L 542.835495 441.776203 
L 543.002551 441.776203 
L 543.983994 441.776203 
L 543.752452 441.542278 
L 543.906105 441.542278 
L 545.282745 441.542278 
L 544.850969 440.840506 
L 544.87798 440.840506 
L 545.245742 440.840506 
L 545.079461 440.606582 
L 545.214202 440.606582 
L 545.301807 440.606582 
L 545.142025 440.372658 
L 545.275707 440.372658 
L 544.967797 439.90481 
L 545.096685 439.90481 
L 545.160829 439.90481 
L 544.897735 439.436962 
L 544.990421 439.436962 
L 545.1119 439.436962 
L 544.967845 439.203038 
L 545.097565 439.203038 
L 545.118059 439.203038 
L 544.977754 438.969114 
L 545.107289 438.969114 
L 545.289572 438.969114 
L 545.156771 438.73519 
L 545.283356 438.73519 
L 545.360186 438.73519 
L 545.153571 438.267342 
L 545.230424 438.267342 
L 545.257052 438.267342 
L 545.132581 438.033418 
L 545.257673 438.033418 
L 545.338511 438.033418 
L 545.218573 437.799494 
L 545.342821 437.799494 
L 545.376734 437.799494 
L 545.249927 437.331646 
L 545.267461 437.331646 
L 545.348276 437.331646 
L 545.226557 436.863797 
L 545.246136 436.863797 
L 545.329412 436.863797 
L 544.957801 435.928101 
L 545.018465 435.928101 
L 545.149835 435.928101 
L 545.046471 435.694177 
L 545.166983 435.694177 
L 545.169415 435.694177 
L 545.077075 435.226329 
L 545.087957 435.226329 
L 545.16299 435.226329 
L 544.980973 434.758481 
L 545.087875 434.758481 
L 545.094862 434.758481 
L 544.999348 434.524557 
L 545.118626 434.524557 
L 545.14347 434.524557 
L 544.963887 433.822785 
L 544.9832 433.822785 
L 545.338311 433.822785 
L 545.252632 433.588861 
L 545.370703 433.588861 
L 545.44446 433.588861 
L 545.287797 433.121013 
L 545.396271 433.121013 
L 545.406513 433.121013 
L 545.266907 432.653165 
L 545.362064 432.653165 
L 545.370303 432.653165 
L 545.219075 431.951392 
L 545.250346 431.951392 
L 545.343859 431.951392 
L 545.131076 431.015696 
L 545.156259 431.015696 
L 545.305329 431.015696 
L 545.261465 430.547848 
L 545.276543 430.547848 
L 545.654734 430.547848 
L 545.576286 430.08 
L 545.637462 430.08 
L 545.717295 430.08 
L 545.595679 429.612152 
L 545.704735 429.612152 
L 545.819666 429.612152 
L 545.745934 428.91038 
L 545.751698 428.91038 
L 545.784112 428.91038 
L 545.725038 428.676456 
L 545.839313 428.676456 
L 545.888866 428.676456 
L 545.831693 428.442532 
L 545.945805 428.442532 
L 545.980789 428.442532 
L 545.946133 427.974684 
L 545.98366 427.974684 
L 545.992536 427.974684 
L 545.938466 427.740759 
L 546.052199 427.740759 
L 546.095062 427.740759 
L 546.042728 427.506835 
L 546.156576 427.506835 
L 546.187184 427.506835 
L 546.136434 427.272911 
L 546.25 427.272911 
L 546.395786 427.272911 
L 546.347842 427.038987 
L 546.461171 427.038987 
L 546.564356 427.038987 
L 546.470964 426.103291 
L 546.494705 426.103291 
L 546.557682 426.103291 
L 546.51389 425.869367 
L 546.552668 425.869367 
" style="fill:none;stroke:#ff7f0e;stroke-linecap:square;stroke-width:2;"/>
   </g>
   <g id="line2d_47">
    <path clip-path="url(#p743b93ef0c)" d="M 550.8 448.56 
L 313.65 448.326076 
L 234.6 448.092152 
L 171.36 447.624304 
L 144.257143 447.156456 
L 195.075 447.156456 
L 171.36 446.688608 
L 234.6 446.688608 
L 212.014286 446.220759 
L 254.3625 446.220759 
L 243.9 445.986835 
L 276.205263 445.986835 
L 248.972727 445.285063 
L 274.125 445.285063 
L 252.166667 444.583291 
L 272.762069 444.583291 
L 260.1 444.115443 
L 269.184375 444.115443 
L 247.775 443.179747 
L 243.145946 442.945823 
L 273.160976 442.945823 
L 268.478571 442.711899 
L 275.044186 442.711899 
L 266.22 442.244051 
L 278.329787 442.244051 
L 270.091837 441.776203 
L 281.1 441.776203 
L 273.379245 441.308354 
L 283.467273 441.308354 
L 279.771429 441.07443 
L 284.526316 441.07443 
L 277.474576 440.606582 
L 286.436066 440.606582 
L 283.05 440.372658 
L 295.407692 440.372658 
L 292.090909 440.138734 
L 299.7 440.138734 
L 293.322857 439.670886 
L 296.949296 439.670886 
L 293.8875 439.436962 
L 297.406849 439.436962 
L 291.516 438.969114 
L 294.927632 438.969114 
L 289.326923 438.501266 
L 295.86375 438.501266 
L 293.155556 438.267342 
L 296.297561 438.267342 
L 288.54 437.56557 
L 303.11 437.56557 
L 295.8 436.863797 
L 298.512766 436.863797 
L 296.175789 436.629873 
L 298.828125 436.629873 
L 292.090909 435.928101 
L 294.678 435.928101 
L 290.4 435.460253 
L 292.928155 435.460253 
L 290.847115 435.226329 
L 305.026364 435.226329 
L 297.007895 434.290633 
L 301.383621 434.290633 
L 299.461538 434.056709 
L 305.745 434.056709 
L 303.850413 433.822785 
L 311.7528 433.822785 
L 309.885714 433.588861 
L 317.298462 433.588861 
L 315.460305 433.354937 
L 325.767153 433.354937 
L 318.695745 432.419241 
L 321.941958 432.419241 
L 320.2375 432.185316 
L 321.827586 432.185316 
L 320.14726 431.951392 
L 324.791275 431.951392 
L 321.502649 431.483544 
L 328.851923 431.483544 
L 325.657595 431.015696 
L 327.073585 431.015696 
L 325.5075 430.781772 
L 331.002439 430.781772 
L 329.46 430.547848 
L 340.908621 430.547848 
L 339.397714 430.313924 
L 340.598864 430.313924 
L 339.10678 430.08 
L 340.296067 430.08 
L 337.365 429.612152 
L 354.788265 429.612152 
L 351.977273 429.144304 
L 353.9655 429.144304 
L 352.585075 428.91038 
L 353.566337 428.91038 
L 350.85 428.442532 
L 359.298592 428.442532 
L 356.667907 427.974684 
L 358.457143 427.974684 
L 357.163761 427.740759 
L 364.840969 427.740759 
L 363.576316 427.506835 
L 365.204348 427.506835 
L 363.954545 427.272911 
L 366.35 427.272911 
L 365.116596 427.038987 
L 365.90339 427.038987 
L 364.682278 426.805063 
L 367.771369 426.805063 
L 365.374074 426.337215 
L 367.635366 426.337215 
L 365.2875 425.869367 
L 366.03253 425.869367 
L 364.8744 425.635443 
L 365.615139 425.635443 
L 364.467857 425.401519 
L 365.204348 425.401519 
L 362.94 424.933671 
L 363.673828 424.933671 
L 362.55642 424.699747 
L 366.850951 424.699747 
L 365.751136 424.465823 
L 369.863333 424.465823 
L 368.780812 424.231899 
L 370.114286 424.231899 
L 369.042701 423.997975 
L 370.359783 423.997975 
L 369.298917 423.764051 
L 376.23125 423.764051 
L 375.194118 423.530127 
L 378.765763 423.530127 
L 374.722074 422.59443 
L 376.471192 422.59443 
L 372.55 421.658734 
L 374.85 421.658734 
L 373.890675 421.42481 
L 375.021086 421.42481 
L 374.070382 421.190886 
L 374.631429 421.190886 
L 373.687975 420.956962 
L 374.246688 420.956962 
L 373.310377 420.723038 
L 377.133231 420.723038 
L 376.211043 420.489114 
L 376.744954 420.489114 
L 375.829573 420.25519 
L 378.972754 420.25519 
L 378.069851 420.021266 
L 382.588953 420.021266 
L 381.701739 419.787342 
L 388.7475 419.787342 
L 387.882548 419.553418 
L 388.332597 419.553418 
L 387.473554 419.319494 
L 390.995418 419.319494 
L 390.15 419.08557 
L 393.11715 419.08557 
L 392.283947 418.851646 
L 394.342597 418.851646 
L 392.7 418.383797 
L 402.293447 418.383797 
L 400.719565 417.915949 
L 401.081205 417.915949 
L 406.639211 417.915949 
L 405.45 417.448101 
L 408.080769 417.448101 
L 407.33228 417.214177 
L 407.655405 417.214177 
L 408.297309 417.214177 
L 407.555034 416.980253 
L 407.874777 416.980253 
L 410.995415 416.980253 
L 409.541087 416.512405 
L 409.847505 416.512405 
L 411.359871 416.512405 
L 409.928846 416.044557 
L 410.229211 416.044557 
L 412.296429 416.044557 
L 411.592453 415.810633 
L 411.883682 415.810633 
L 415.836585 415.810633 
L 415.148276 415.576709 
L 415.422874 415.576709 
L 420.182227 415.576709 
L 419.512281 415.342785 
L 419.767704 415.342785 
L 420.022136 415.342785 
L 419.356395 415.108861 
L 419.610638 415.108861 
L 422.828491 415.108861 
L 421.122472 414.407089 
L 421.846927 414.407089 
L 420.565492 413.939241 
L 420.806667 413.939241 
L 421.7625 413.939241 
L 421.128991 413.705316 
L 421.366484 413.705316 
L 422.541016 413.705316 
L 421.91413 413.471392 
L 422.147197 413.471392 
L 424.432327 413.471392 
L 423.815426 413.237468 
L 424.040177 413.237468 
L 424.931283 413.237468 
L 424.32 413.003544 
L 424.541506 413.003544 
L 424.762238 413.003544 
L 423.167188 412.301772 
L 424.48299 412.301772 
L 423.886106 412.067848 
L 424.103425 412.067848 
L 426.026307 412.067848 
L 425.437879 411.833924 
L 425.648571 411.833924 
L 427.308955 411.833924 
L 426.728146 411.6 
L 426.933223 411.6 
L 429.734733 411.6 
L 429.165 411.366076 
L 429.36087 411.366076 
L 434.600154 411.366076 
L 433.679908 410.898228 
L 436.313793 410.898228 
L 435.77515 410.664304 
L 435.947085 410.664304 
L 436.629718 410.664304 
L 436.095401 410.43038 
L 436.265333 410.43038 
L 436.940059 410.43038 
L 436.41 410.196456 
L 436.577974 410.196456 
L 439.678286 410.196456 
L 439.1602 409.962532 
L 439.319231 409.962532 
L 441.955076 409.962532 
L 441.4475 409.728608 
L 441.599168 409.728608 
L 442.500413 409.728608 
L 441.997665 409.494684 
L 442.146914 409.494684 
L 443.617185 409.494684 
L 443.121081 409.260759 
L 443.266397 409.260759 
L 443.411321 409.260759 
L 442.917497 409.026835 
L 443.0625 409.026835 
L 449.078299 409.026835 
L 448.606084 408.792911 
L 448.735443 408.792911 
L 449.885106 408.792911 
L 449.418375 408.558987 
L 449.544944 408.558987 
L 450.173077 408.558987 
L 449.710037 408.325063 
L 449.835149 408.325063 
L 452.154776 408.325063 
L 451.701087 408.091139 
L 451.93988 408.091139 
L 453.694793 408.091139 
L 453.248936 407.857215 
L 453.479009 407.857215 
L 454.275789 407.857215 
L 453.834463 407.623291 
L 454.06049 407.623291 
L 455.94 407.623291 
L 455.506849 407.389367 
L 455.723918 407.389367 
L 459.767503 407.389367 
L 459.35 407.155443 
L 459.548804 407.155443 
L 459.647883 407.155443 
L 459.232321 406.921519 
L 459.430519 406.921519 
L 461.555391 406.921519 
L 460.743038 406.453671 
L 460.932632 406.453671 
L 462.512513 406.453671 
L 462.11374 406.219747 
L 462.296598 406.219747 
L 466.469646 406.219747 
L 466.086948 405.985823 
L 466.252889 405.985823 
L 466.746835 405.985823 
L 466.367218 405.751899 
L 466.531165 405.751899 
L 466.775895 405.751899 
L 466.398453 405.517975 
L 466.56139 405.517975 
L 468.235005 405.517975 
L 467.864745 405.284051 
L 468.021226 405.284051 
L 468.332425 405.284051 
L 467.964507 405.050127 
L 468.119775 405.050127 
L 471.035262 405.050127 
L 470.678862 404.816203 
L 470.823354 404.816203 
L 471.39615 404.816203 
L 470.761875 404.348354 
L 470.833274 404.348354 
L 473.853476 404.348354 
L 473.512693 404.11443 
L 473.645034 404.11443 
L 474.558883 404.11443 
L 474.222401 403.880506 
L 474.416105 403.880506 
L 476.666367 403.880506 
L 476.339166 403.646582 
L 476.52137 403.646582 
L 476.702685 403.646582 
L 476.377317 403.412658 
L 476.558394 403.412658 
L 477.56808 403.412658 
L 477.247482 403.178734 
L 477.423445 403.178734 
L 481.30287 403.178734 
L 480.997358 402.94481 
L 481.155045 402.94481 
L 481.207449 402.94481 
L 480.903158 402.710886 
L 481.060465 402.710886 
L 483.337881 402.710886 
L 483.042857 402.476962 
L 483.189942 402.476962 
L 484.906417 402.476962 
L 484.377973 402.009114 
L 484.471328 402.009114 
L 485.435942 402.009114 
L 485.152941 401.77519 
L 485.28895 401.77519 
L 486.748683 401.77519 
L 486.471862 401.541266 
L 486.601818 401.541266 
L 487.539018 401.541266 
L 487.266446 401.307342 
L 487.434524 401.307342 
L 487.476404 401.307342 
L 487.204954 401.073418 
L 487.37253 401.073418 
L 487.787631 401.073418 
L 487.332963 400.60557 
L 487.415711 400.60557 
L 487.744553 400.60557 
L 487.211852 400.137722 
L 487.376163 400.137722 
L 487.498839 400.137722 
L 487.092609 399.669873 
L 487.133526 399.669873 
L 487.255962 399.669873 
L 486.992825 399.435949 
L 487.155911 399.435949 
L 487.519822 399.435949 
L 487.258857 399.202025 
L 487.419823 399.202025 
L 488.134189 399.202025 
L 487.876596 398.968101 
L 488.033708 398.968101 
L 489.111902 398.968101 
L 488.682375 398.500253 
L 488.758313 398.500253 
L 489.581544 398.500253 
L 489.33255 398.266329 
L 489.480397 398.266329 
L 490.495742 398.266329 
L 490.251064 398.032405 
L 490.393868 398.032405 
L 490.50053 398.032405 
L 490.257 397.798481 
L 490.39912 397.798481 
L 491.065177 397.798481 
L 490.82471 397.564557 
L 490.963542 397.564557 
L 491.850513 397.564557 
L 491.377449 397.096709 
L 491.5125 397.096709 
L 491.814132 397.096709 
L 491.579492 396.862785 
L 491.713021 396.862785 
L 492.273869 396.862785 
L 492.041853 396.628861 
L 492.172717 396.628861 
L 493.574674 396.628861 
L 493.348126 396.394937 
L 493.472683 396.394937 
L 493.627622 396.394937 
L 493.402269 396.161013 
L 493.526038 396.161013 
L 494.257584 396.161013 
L 493.813397 395.693165 
L 493.964475 395.693165 
L 494.678639 395.693165 
L 494.459812 395.459241 
L 494.606837 395.459241 
L 494.840489 395.459241 
L 494.623169 395.225316 
L 494.768705 395.225316 
L 495.172222 395.225316 
L 494.67126 394.523544 
L 495.184112 394.523544 
L 494.971689 394.28962 
L 495.112955 394.28962 
L 495.141123 394.28962 
L 494.535235 393.587848 
L 494.648615 393.587848 
L 497.058197 393.587848 
L 496.855518 393.353924 
L 496.985192 393.353924 
L 498.075177 393.353924 
L 497.876695 393.12 
L 498.000986 393.12 
L 499.307055 393.12 
L 499.113462 392.886076 
L 499.255068 392.886076 
L 499.349043 392.886076 
L 499.156401 392.652152 
L 499.297183 392.652152 
L 499.714962 392.652152 
L 499.380162 392.184304 
L 499.472519 392.184304 
L 499.793173 392.184304 
L 499.604371 391.95038 
L 499.741014 391.95038 
L 500.19127 391.95038 
L 499.840423 391.482532 
L 499.952373 391.482532 
L 500.152648 391.482532 
L 499.967323 391.248608 
L 500.100393 391.248608 
L 500.210753 391.248608 
L 499.70252 390.546835 
L 499.791154 390.546835 
L 499.98946 390.546835 
L 499.806606 390.312911 
L 499.938372 390.312911 
L 500.372716 390.312911 
L 500.011049 389.845063 
L 500.140723 389.845063 
L 501.071805 389.845063 
L 500.89453 389.611139 
L 501.019242 389.611139 
L 501.328311 389.611139 
L 501.152544 389.377215 
L 501.275485 389.377215 
L 501.620533 389.377215 
L 501.446374 389.143291 
L 501.567389 389.143291 
L 501.607595 389.143291 
L 501.434082 388.909367 
L 501.554682 388.909367 
L 501.853622 388.909367 
L 501.681553 388.675443 
L 501.800484 388.675443 
L 503.332916 388.675443 
L 503.074025 388.207595 
L 503.129801 388.207595 
L 503.185447 388.207595 
L 503.019487 387.973671 
L 503.149224 387.973671 
L 503.625 387.973671 
L 503.424455 387.505823 
L 503.514935 387.505823 
L 503.35189 387.271899 
L 503.47837 387.271899 
L 503.711482 387.271899 
L 503.495429 386.804051 
L 503.513293 386.804051 
L 503.602412 386.804051 
L 503.441485 386.570127 
L 503.566065 386.570127 
L 504.334381 386.570127 
L 504.052824 386.102278 
L 504.138946 386.102278 
L 504.598577 386.102278 
L 504.442451 385.868354 
L 504.560495 385.868354 
L 505.026719 385.868354 
L 504.872462 385.63443 
L 505.004343 385.63443 
L 505.233321 385.63443 
L 505.080257 385.400506 
L 505.210466 385.400506 
L 505.372189 385.400506 
L 505.220106 385.166582 
L 505.349045 385.166582 
L 505.604747 385.166582 
L 505.453919 384.932658 
L 505.581073 384.932658 
L 506.919184 384.932658 
L 506.772832 384.698734 
L 506.892269 384.698734 
L 507.30524 384.698734 
L 507.160578 384.46481 
L 507.277495 384.46481 
L 507.781728 384.46481 
L 507.639014 384.230886 
L 507.767173 384.230886 
L 507.866327 384.230886 
L 507.724383 383.996962 
L 507.851575 383.996962 
L 508.936617 383.996962 
L 508.79837 383.763038 
L 508.918872 383.763038 
L 508.958885 383.763038 
L 508.750524 383.29519 
L 508.803904 383.29519 
L 509.160699 383.29519 
L 508.90176 382.827342 
L 509.006867 382.827342 
L 509.740758 382.827342 
L 509.60733 382.593418 
L 509.733804 382.593418 
L 510.24433 382.593418 
L 510.112852 382.359494 
L 510.235811 382.359494 
L 510.297013 382.359494 
L 510.166154 382.12557 
L 510.288361 382.12557 
L 511.216926 382.12557 
L 511.089219 381.891646 
L 511.205536 381.891646 
L 511.459051 381.891646 
L 511.332499 381.657722 
L 511.458411 381.657722 
L 511.628819 381.657722 
L 511.503204 381.423797 
L 511.627597 381.423797 
L 512.292475 381.423797 
L 512.169231 381.189873 
L 512.289033 381.189873 
L 512.472727 381.189873 
L 512.350435 380.955949 
L 512.468708 380.955949 
L 512.976407 380.955949 
L 512.856 380.722025 
L 512.970792 380.722025 
L 514.042384 380.722025 
L 513.857989 380.254177 
L 513.926837 380.254177 
L 513.966064 380.254177 
L 513.849747 380.020253 
L 513.967267 380.020253 
L 515.768515 380.020253 
L 515.556045 379.552405 
L 515.662255 379.552405 
L 515.994403 379.552405 
L 515.810656 379.084557 
L 515.897349 379.084557 
L 516.864298 379.084557 
L 516.758237 378.850633 
L 516.872636 378.850633 
L 517.187301 378.850633 
L 516.969597 378.148861 
L 516.99363 378.148861 
L 517.568087 378.148861 
L 517.465441 377.914937 
L 517.581401 377.914937 
L 518.112049 377.914937 
L 518.011294 377.681013 
L 518.130552 377.681013 
L 518.167643 377.681013 
L 518.067378 377.447089 
L 518.18584 377.447089 
L 518.434747 377.447089 
L 518.33557 377.213165 
L 518.451722 377.213165 
L 519.159252 377.213165 
L 519.062454 376.979241 
L 519.18 376.979241 
L 519.221279 376.979241 
L 519.056323 376.511392 
L 519.145742 376.511392 
L 520.244802 376.511392 
L 520.152008 376.277468 
L 520.266938 376.277468 
L 521.0177 376.277468 
L 520.927387 376.043544 
L 521.042259 376.043544 
L 521.120347 376.043544 
L 520.958984 375.575696 
L 521.054955 375.575696 
L 521.144369 375.575696 
L 521.05528 375.341772 
L 521.173997 375.341772 
L 521.547606 375.341772 
L 521.459929 375.107848 
L 521.575078 375.107848 
L 522.165084 375.107848 
L 522.079412 374.873924 
L 522.194888 374.873924 
L 522.59983 374.873924 
L 522.458228 374.406076 
L 522.54876 374.406076 
L 522.712367 374.406076 
L 522.629883 373.938228 
L 522.661317 373.938228 
L 522.832957 373.938228 
L 522.750471 373.704304 
L 522.864053 373.704304 
L 523.716488 373.704304 
L 523.668254 373.236456 
L 523.673073 373.236456 
L 524.299115 373.236456 
L 524.180703 372.768608 
L 524.25886 372.768608 
L 524.454517 372.768608 
L 524.31913 372.300759 
L 524.414027 372.300759 
L 524.535043 372.300759 
L 524.45895 372.066835 
L 524.574755 372.066835 
L 524.649924 372.066835 
L 524.574376 371.832911 
L 524.688822 371.832911 
L 524.962033 371.832911 
L 524.903408 371.365063 
L 524.929091 371.365063 
L 525.001582 371.365063 
L 524.968701 370.897215 
L 525.463298 370.897215 
L 525.343436 370.429367 
L 525.433114 370.429367 
L 526.086084 370.429367 
L 526.015957 370.195443 
L 526.131393 370.195443 
L 526.165814 370.195443 
L 525.998565 369.259747 
L 526.00239 369.259747 
L 526.35675 369.259747 
L 526.288372 369.025823 
L 526.403328 369.025823 
L 526.421769 369.025823 
L 526.330155 368.557975 
L 526.40009 368.557975 
L 526.447711 368.557975 
L 526.380171 368.324051 
L 526.493277 368.324051 
L 526.533159 368.324051 
L 526.46604 368.090127 
L 526.581624 368.090127 
L 526.939339 368.090127 
L 526.873476 367.856203 
L 526.988373 367.856203 
L 527.146704 367.856203 
L 527.081572 367.622278 
L 527.19416 367.622278 
L 528.086118 367.622278 
L 528.023623 367.388354 
L 528.136533 367.388354 
L 528.269938 367.388354 
L 528.208103 367.15443 
L 528.321939 367.15443 
L 528.555202 367.15443 
L 528.494286 366.920506 
L 528.607923 366.920506 
L 528.74982 366.920506 
L 528.689584 366.686582 
L 528.803843 366.686582 
L 529.119838 366.686582 
L 529.060734 366.452658 
L 529.173694 366.452658 
L 529.226941 366.452658 
L 529.120873 365.98481 
L 529.221459 365.98481 
L 529.646759 365.98481 
L 529.589515 365.750886 
L 529.701458 365.750886 
L 529.846275 365.750886 
L 529.789706 365.516962 
L 529.901837 365.516962 
L 530.642392 365.516962 
L 530.58803 365.283038 
L 530.701107 365.283038 
L 531.065217 365.283038 
L 531.046696 364.81519 
L 531.071941 364.81519 
L 531.108547 364.81519 
L 531.055833 364.581266 
L 531.169645 364.581266 
L 531.413264 364.581266 
L 531.361475 364.347342 
L 531.473684 364.347342 
L 531.702807 364.347342 
L 531.651901 364.113418 
L 531.764725 364.113418 
L 533.159128 364.113418 
L 533.112084 363.879494 
L 533.224342 363.879494 
L 533.370643 363.879494 
L 533.324269 363.64557 
L 533.437061 363.64557 
L 533.613845 363.64557 
L 533.56822 363.411646 
L 533.680992 363.411646 
L 533.735139 363.411646 
L 533.689949 363.177722 
L 533.802504 363.177722 
L 534.817771 363.177722 
L 534.817771 363.177722 
" style="fill:none;stroke:#2ca02c;stroke-linecap:square;stroke-width:2;"/>
   </g>
   <g id="patch_3">
    <path d="M 76.5 448.56 
L 76.5 60.48 
" style="fill:none;stroke:#000000;stroke-linecap:square;stroke-linejoin:miter;stroke-width:0.8;"/>
   </g>
   <g id="patch_4">
    <path d="M 550.8 448.56 
L 550.8 60.48 
" style="fill:none;stroke:#000000;stroke-linecap:square;stroke-linejoin:miter;stroke-width:0.8;"/>
   </g>
   <g id="patch_5">
    <path d="M 76.5 448.56 
L 550.8 448.56 
" style="fill:none;stroke:#000000;stroke-linecap:square;stroke-linejoin:miter;stroke-width:0.8;"/>
   </g>
   <g id="patch_6">
    <path d="M 76.5 60.48 
L 550.8 60.48 
" style="fill:none;stroke:#000000;stroke-linecap:square;stroke-linejoin:miter;stroke-width:0.8;"/>
   </g>
   <g id="text_25">
    <!-- wall: img1-img6 -->
    <defs>
     <path d="M 4.203125 54.6875 
L 13.1875 54.6875 
L 24.421875 12.015625 
L 35.59375 54.6875 
L 46.1875 54.6875 
L 57.421875 12.015625 
L 68.609375 54.6875 
L 77.59375 54.6875 
L 63.28125 0 
L 52.6875 0 
L 40.921875 44.828125 
L 29.109375 0 
L 18.5 0 
z
" id="DejaVuSans-119"/>
     <path d="M 34.28125 27.484375 
Q 23.390625 27.484375 19.1875 25 
Q 14.984375 22.515625 14.984375 16.5 
Q 14.984375 11.71875 18.140625 8.90625 
Q 21.296875 6.109375 26.703125 6.109375 
Q 34.1875 6.109375 38.703125 11.40625 
Q 43.21875 16.703125 43.21875 25.484375 
L 43.21875 27.484375 
z
M 52.203125 31.203125 
L 52.203125 0 
L 43.21875 0 
L 43.21875 8.296875 
Q 40.140625 3.328125 35.546875 0.953125 
Q 30.953125 -1.421875 24.3125 -1.421875 
Q 15.921875 -1.421875 10.953125 3.296875 
Q 6 8.015625 6 15.921875 
Q 6 25.140625 12.171875 29.828125 
Q 18.359375 34.515625 30.609375 34.515625 
L 43.21875 34.515625 
L 43.21875 35.40625 
Q 43.21875 41.609375 39.140625 45 
Q 35.0625 48.390625 27.6875 48.390625 
Q 23 48.390625 18.546875 47.265625 
Q 14.109375 46.140625 10.015625 43.890625 
L 10.015625 52.203125 
Q 14.9375 54.109375 19.578125 55.046875 
Q 24.21875 56 28.609375 56 
Q 40.484375 56 46.34375 49.84375 
Q 52.203125 43.703125 52.203125 31.203125 
z
" id="DejaVuSans-97"/>
     <path d="M 9.421875 75.984375 
L 18.40625 75.984375 
L 18.40625 0 
L 9.421875 0 
z
" id="DejaVuSans-108"/>
     <path d="M 11.71875 12.40625 
L 22.015625 12.40625 
L 22.015625 0 
L 11.71875 0 
z
M 11.71875 51.703125 
L 22.015625 51.703125 
L 22.015625 39.3125 
L 11.71875 39.3125 
z
" id="DejaVuSans-58"/>
     <path id="DejaVuSans-32"/>
     <path d="M 52 44.1875 
Q 55.375 50.25 60.0625 53.125 
Q 64.75 56 71.09375 56 
Q 79.640625 56 84.28125 50.015625 
Q 88.921875 44.046875 88.921875 33.015625 
L 88.921875 0 
L 79.890625 0 
L 79.890625 32.71875 
Q 79.890625 40.578125 77.09375 44.375 
Q 74.3125 48.1875 68.609375 48.1875 
Q 61.625 48.1875 57.5625 43.546875 
Q 53.515625 38.921875 53.515625 30.90625 
L 53.515625 0 
L 44.484375 0 
L 44.484375 32.71875 
Q 44.484375 40.625 41.703125 44.40625 
Q 38.921875 48.1875 33.109375 48.1875 
Q 26.21875 48.1875 22.15625 43.53125 
Q 18.109375 38.875 18.109375 30.90625 
L 18.109375 0 
L 9.078125 0 
L 9.078125 54.6875 
L 18.109375 54.6875 
L 18.109375 46.1875 
Q 21.1875 51.21875 25.484375 53.609375 
Q 29.78125 56 35.6875 56 
Q 41.65625 56 45.828125 52.96875 
Q 50 49.953125 52 44.1875 
z
" id="DejaVuSans-109"/>
     <path d="M 45.40625 27.984375 
Q 45.40625 37.75 41.375 43.109375 
Q 37.359375 48.484375 30.078125 48.484375 
Q 22.859375 48.484375 18.828125 43.109375 
Q 14.796875 37.75 14.796875 27.984375 
Q 14.796875 18.265625 18.828125 12.890625 
Q 22.859375 7.515625 30.078125 7.515625 
Q 37.359375 7.515625 41.375 12.890625 
Q 45.40625 18.265625 45.40625 27.984375 
z
M 54.390625 6.78125 
Q 54.390625 -7.171875 48.1875 -13.984375 
Q 42 -20.796875 29.203125 -20.796875 
Q 24.46875 -20.796875 20.265625 -20.09375 
Q 16.0625 -19.390625 12.109375 -17.921875 
L 12.109375 -9.1875 
Q 16.0625 -11.328125 19.921875 -12.34375 
Q 23.78125 -13.375 27.78125 -13.375 
Q 36.625 -13.375 41.015625 -8.765625 
Q 45.40625 -4.15625 45.40625 5.171875 
L 45.40625 9.625 
Q 42.625 4.78125 38.28125 2.390625 
Q 33.9375 0 27.875 0 
Q 17.828125 0 11.671875 7.65625 
Q 5.515625 15.328125 5.515625 27.984375 
Q 5.515625 40.671875 11.671875 48.328125 
Q 17.828125 56 27.875 56 
Q 33.9375 56 38.28125 53.609375 
Q 42.625 51.21875 45.40625 46.390625 
L 45.40625 54.6875 
L 54.390625 54.6875 
z
" id="DejaVuSans-103"/>
    </defs>
    <g transform="translate(265.364063 41.042625)scale(0.12 -0.12)">
     <use xlink:href="#DejaVuSans-119"/>
     <use x="81.787109" xlink:href="#DejaVuSans-97"/>
     <use x="143.066406" xlink:href="#DejaVuSans-108"/>
     <use x="170.849609" xlink:href="#DejaVuSans-108"/>
     <use x="198.632812" xlink:href="#DejaVuSans-58"/>
     <use x="232.324219" xlink:href="#DejaVuSans-32"/>
     <use x="264.111328" xlink:href="#DejaVuSans-105"/>
     <use x="291.894531" xlink:href="#DejaVuSans-109"/>
     <use x="389.306641" xlink:href="#DejaVuSans-103"/>
     <use x="452.783203" xlink:href="#DejaVuSans-49"/>
     <use x="516.40625" xlink:href="#DejaVuSans-45"/>
     <use x="552.490234" xlink:href="#DejaVuSans-105"/>
     <use x="580.273438" xlink:href="#DejaVuSans-109"/>
     <use x="677.685547" xlink:href="#DejaVuSans-103"/>
     <use x="741.162109" xlink:href="#DejaVuSans-54"/>
    </g>
    <!-- NearestNeighbours -->
    <defs>
     <path d="M 9.8125 72.90625 
L 23.09375 72.90625 
L 55.421875 11.921875 
L 55.421875 72.90625 
L 64.984375 72.90625 
L 64.984375 0 
L 51.703125 0 
L 19.390625 60.984375 
L 19.390625 0 
L 9.8125 0 
z
" id="DejaVuSans-78"/>
     <path d="M 54.890625 33.015625 
L 54.890625 0 
L 45.90625 0 
L 45.90625 32.71875 
Q 45.90625 40.484375 42.875 44.328125 
Q 39.84375 48.1875 33.796875 48.1875 
Q 26.515625 48.1875 22.3125 43.546875 
Q 18.109375 38.921875 18.109375 30.90625 
L 18.109375 0 
L 9.078125 0 
L 9.078125 75.984375 
L 18.109375 75.984375 
L 18.109375 46.1875 
Q 21.34375 51.125 25.703125 53.5625 
Q 30.078125 56 35.796875 56 
Q 45.21875 56 50.046875 50.171875 
Q 54.890625 44.34375 54.890625 33.015625 
z
" id="DejaVuSans-104"/>
     <path d="M 48.6875 27.296875 
Q 48.6875 37.203125 44.609375 42.84375 
Q 40.53125 48.484375 33.40625 48.484375 
Q 26.265625 48.484375 22.1875 42.84375 
Q 18.109375 37.203125 18.109375 27.296875 
Q 18.109375 17.390625 22.1875 11.75 
Q 26.265625 6.109375 33.40625 6.109375 
Q 40.53125 6.109375 44.609375 11.75 
Q 48.6875 17.390625 48.6875 27.296875 
z
M 18.109375 46.390625 
Q 20.953125 51.265625 25.265625 53.625 
Q 29.59375 56 35.59375 56 
Q 45.5625 56 51.78125 48.09375 
Q 58.015625 40.1875 58.015625 27.296875 
Q 58.015625 14.40625 51.78125 6.484375 
Q 45.5625 -1.421875 35.59375 -1.421875 
Q 29.59375 -1.421875 25.265625 0.953125 
Q 20.953125 3.328125 18.109375 8.203125 
L 18.109375 0 
L 9.078125 0 
L 9.078125 75.984375 
L 18.109375 75.984375 
z
" id="DejaVuSans-98"/>
     <path d="M 8.5 21.578125 
L 8.5 54.6875 
L 17.484375 54.6875 
L 17.484375 21.921875 
Q 17.484375 14.15625 20.5 10.265625 
Q 23.53125 6.390625 29.59375 6.390625 
Q 36.859375 6.390625 41.078125 11.03125 
Q 45.3125 15.671875 45.3125 23.6875 
L 45.3125 54.6875 
L 54.296875 54.6875 
L 54.296875 0 
L 45.3125 0 
L 45.3125 8.40625 
Q 42.046875 3.421875 37.71875 1 
Q 33.40625 -1.421875 27.6875 -1.421875 
Q 18.265625 -1.421875 13.375 4.4375 
Q 8.5 10.296875 8.5 21.578125 
z
M 31.109375 56 
z
" id="DejaVuSans-117"/>
    </defs>
    <g transform="translate(255.957188 54.48)scale(0.12 -0.12)">
     <use xlink:href="#DejaVuSans-78"/>
     <use x="74.804688" xlink:href="#DejaVuSans-101"/>
     <use x="136.328125" xlink:href="#DejaVuSans-97"/>
     <use x="197.607422" xlink:href="#DejaVuSans-114"/>
     <use x="236.470703" xlink:href="#DejaVuSans-101"/>
     <use x="297.994141" xlink:href="#DejaVuSans-115"/>
     <use x="350.09375" xlink:href="#DejaVuSans-116"/>
     <use x="389.302734" xlink:href="#DejaVuSans-78"/>
     <use x="464.107422" xlink:href="#DejaVuSans-101"/>
     <use x="525.630859" xlink:href="#DejaVuSans-105"/>
     <use x="553.414062" xlink:href="#DejaVuSans-103"/>
     <use x="616.890625" xlink:href="#DejaVuSans-104"/>
     <use x="680.269531" xlink:href="#DejaVuSans-98"/>
     <use x="743.746094" xlink:href="#DejaVuSans-111"/>
     <use x="804.927734" xlink:href="#DejaVuSans-117"/>
     <use x="868.306641" xlink:href="#DejaVuSans-114"/>
     <use x="909.419922" xlink:href="#DejaVuSans-115"/>
    </g>
   </g>
   <g id="legend_1">
    <g id="patch_7">
     <path d="M 375.384375 112.514375 
L 543.8 112.514375 
Q 545.8 112.514375 545.8 110.514375 
L 545.8 67.48 
Q 545.8 65.48 543.8 65.48 
L 375.384375 65.48 
Q 373.384375 65.48 373.384375 67.48 
L 373.384375 110.514375 
Q 373.384375 112.514375 375.384375 112.514375 
z
" style="fill:#ffffff;opacity:0.8;stroke:#cccccc;stroke-linejoin:miter;"/>
    </g>
    <g id="line2d_48">
     <path d="M 377.384375 73.578438 
L 397.384375 73.578438 
" style="fill:none;stroke:#1f77b4;stroke-linecap:square;stroke-width:2;"/>
    </g>
    <g id="line2d_49"/>
    <g id="text_26">
     <!-- root-cvsift AP: 0.9, %In: 1.7 -->
     <defs>
      <path d="M 2.984375 54.6875 
L 12.5 54.6875 
L 29.59375 8.796875 
L 46.6875 54.6875 
L 56.203125 54.6875 
L 35.6875 0 
L 23.484375 0 
z
" id="DejaVuSans-118"/>
      <path d="M 37.109375 75.984375 
L 37.109375 68.5 
L 28.515625 68.5 
Q 23.6875 68.5 21.796875 66.546875 
Q 19.921875 64.59375 19.921875 59.515625 
L 19.921875 54.6875 
L 34.71875 54.6875 
L 34.71875 47.703125 
L 19.921875 47.703125 
L 19.921875 0 
L 10.890625 0 
L 10.890625 47.703125 
L 2.296875 47.703125 
L 2.296875 54.6875 
L 10.890625 54.6875 
L 10.890625 58.5 
Q 10.890625 67.625 15.140625 71.796875 
Q 19.390625 75.984375 28.609375 75.984375 
z
" id="DejaVuSans-102"/>
      <path d="M 34.1875 63.1875 
L 20.796875 26.90625 
L 47.609375 26.90625 
z
M 28.609375 72.90625 
L 39.796875 72.90625 
L 67.578125 0 
L 57.328125 0 
L 50.6875 18.703125 
L 17.828125 18.703125 
L 11.1875 0 
L 0.78125 0 
z
" id="DejaVuSans-65"/>
      <path d="M 19.671875 64.796875 
L 19.671875 37.40625 
L 32.078125 37.40625 
Q 38.96875 37.40625 42.71875 40.96875 
Q 46.484375 44.53125 46.484375 51.125 
Q 46.484375 57.671875 42.71875 61.234375 
Q 38.96875 64.796875 32.078125 64.796875 
z
M 9.8125 72.90625 
L 32.078125 72.90625 
Q 44.34375 72.90625 50.609375 67.359375 
Q 56.890625 61.8125 56.890625 51.125 
Q 56.890625 40.328125 50.609375 34.8125 
Q 44.34375 29.296875 32.078125 29.296875 
L 19.671875 29.296875 
L 19.671875 0 
L 9.8125 0 
z
" id="DejaVuSans-80"/>
      <path d="M 11.71875 12.40625 
L 22.015625 12.40625 
L 22.015625 4 
L 14.015625 -11.625 
L 7.71875 -11.625 
L 11.71875 4 
z
" id="DejaVuSans-44"/>
      <path d="M 72.703125 32.078125 
Q 68.453125 32.078125 66.03125 28.46875 
Q 63.625 24.859375 63.625 18.40625 
Q 63.625 12.0625 66.03125 8.421875 
Q 68.453125 4.78125 72.703125 4.78125 
Q 76.859375 4.78125 79.265625 8.421875 
Q 81.6875 12.0625 81.6875 18.40625 
Q 81.6875 24.8125 79.265625 28.4375 
Q 76.859375 32.078125 72.703125 32.078125 
z
M 72.703125 38.28125 
Q 80.421875 38.28125 84.953125 32.90625 
Q 89.5 27.546875 89.5 18.40625 
Q 89.5 9.28125 84.9375 3.921875 
Q 80.375 -1.421875 72.703125 -1.421875 
Q 64.890625 -1.421875 60.34375 3.921875 
Q 55.8125 9.28125 55.8125 18.40625 
Q 55.8125 27.59375 60.375 32.9375 
Q 64.9375 38.28125 72.703125 38.28125 
z
M 22.3125 68.015625 
Q 18.109375 68.015625 15.6875 64.375 
Q 13.28125 60.75 13.28125 54.390625 
Q 13.28125 47.953125 15.671875 44.328125 
Q 18.0625 40.71875 22.3125 40.71875 
Q 26.5625 40.71875 28.96875 44.328125 
Q 31.390625 47.953125 31.390625 54.390625 
Q 31.390625 60.6875 28.953125 64.34375 
Q 26.515625 68.015625 22.3125 68.015625 
z
M 66.40625 74.21875 
L 74.21875 74.21875 
L 28.609375 -1.421875 
L 20.796875 -1.421875 
z
M 22.3125 74.21875 
Q 30.03125 74.21875 34.609375 68.875 
Q 39.203125 63.53125 39.203125 54.390625 
Q 39.203125 45.171875 34.640625 39.84375 
Q 30.078125 34.515625 22.3125 34.515625 
Q 14.546875 34.515625 10.03125 39.859375 
Q 5.515625 45.21875 5.515625 54.390625 
Q 5.515625 63.484375 10.046875 68.84375 
Q 14.59375 74.21875 22.3125 74.21875 
z
" id="DejaVuSans-37"/>
      <path d="M 9.8125 72.90625 
L 19.671875 72.90625 
L 19.671875 0 
L 9.8125 0 
z
" id="DejaVuSans-73"/>
     </defs>
     <g transform="translate(405.384375 77.078438)scale(0.1 -0.1)">
      <use xlink:href="#DejaVuSans-114"/>
      <use x="38.863281" xlink:href="#DejaVuSans-111"/>
      <use x="100.044922" xlink:href="#DejaVuSans-111"/>
      <use x="161.226562" xlink:href="#DejaVuSans-116"/>
      <use x="200.435547" xlink:href="#DejaVuSans-45"/>
      <use x="236.519531" xlink:href="#DejaVuSans-99"/>
      <use x="291.5" xlink:href="#DejaVuSans-118"/>
      <use x="350.679688" xlink:href="#DejaVuSans-115"/>
      <use x="402.779297" xlink:href="#DejaVuSans-105"/>
      <use x="430.5625" xlink:href="#DejaVuSans-102"/>
      <use x="464.017578" xlink:href="#DejaVuSans-116"/>
      <use x="503.226562" xlink:href="#DejaVuSans-32"/>
      <use x="535.013672" xlink:href="#DejaVuSans-65"/>
      <use x="603.421875" xlink:href="#DejaVuSans-80"/>
      <use x="663.724609" xlink:href="#DejaVuSans-58"/>
      <use x="697.416016" xlink:href="#DejaVuSans-32"/>
      <use x="729.203125" xlink:href="#DejaVuSans-48"/>
      <use x="792.826172" xlink:href="#DejaVuSans-46"/>
      <use x="824.613281" xlink:href="#DejaVuSans-57"/>
      <use x="888.236328" xlink:href="#DejaVuSans-44"/>
      <use x="920.023438" xlink:href="#DejaVuSans-32"/>
      <use x="951.810547" xlink:href="#DejaVuSans-37"/>
      <use x="1046.830078" xlink:href="#DejaVuSans-73"/>
      <use x="1076.322266" xlink:href="#DejaVuSans-110"/>
      <use x="1139.701172" xlink:href="#DejaVuSans-58"/>
      <use x="1173.392578" xlink:href="#DejaVuSans-32"/>
      <use x="1205.179688" xlink:href="#DejaVuSans-49"/>
      <use x="1268.802734" xlink:href="#DejaVuSans-46"/>
      <use x="1300.589844" xlink:href="#DejaVuSans-55"/>
     </g>
    </g>
    <g id="line2d_50">
     <path d="M 377.384375 88.256563 
L 397.384375 88.256563 
" style="fill:none;stroke:#ff7f0e;stroke-linecap:square;stroke-width:2;"/>
    </g>
    <g id="line2d_51"/>
    <g id="text_27">
     <!-- tfeat AP: 0.1, %In: 0.9 -->
     <g transform="translate(405.384375 91.756563)scale(0.1 -0.1)">
      <use xlink:href="#DejaVuSans-116"/>
      <use x="39.208984" xlink:href="#DejaVuSans-102"/>
      <use x="74.414062" xlink:href="#DejaVuSans-101"/>
      <use x="135.9375" xlink:href="#DejaVuSans-97"/>
      <use x="197.216797" xlink:href="#DejaVuSans-116"/>
      <use x="236.425781" xlink:href="#DejaVuSans-32"/>
      <use x="268.212891" xlink:href="#DejaVuSans-65"/>
      <use x="336.621094" xlink:href="#DejaVuSans-80"/>
      <use x="396.923828" xlink:href="#DejaVuSans-58"/>
      <use x="430.615234" xlink:href="#DejaVuSans-32"/>
      <use x="462.402344" xlink:href="#DejaVuSans-48"/>
      <use x="526.025391" xlink:href="#DejaVuSans-46"/>
      <use x="557.8125" xlink:href="#DejaVuSans-49"/>
      <use x="621.435547" xlink:href="#DejaVuSans-44"/>
      <use x="653.222656" xlink:href="#DejaVuSans-32"/>
      <use x="685.009766" xlink:href="#DejaVuSans-37"/>
      <use x="780.029297" xlink:href="#DejaVuSans-73"/>
      <use x="809.521484" xlink:href="#DejaVuSans-110"/>
      <use x="872.900391" xlink:href="#DejaVuSans-58"/>
      <use x="906.591797" xlink:href="#DejaVuSans-32"/>
      <use x="938.378906" xlink:href="#DejaVuSans-48"/>
      <use x="1002.001953" xlink:href="#DejaVuSans-46"/>
      <use x="1033.789062" xlink:href="#DejaVuSans-57"/>
     </g>
    </g>
    <g id="line2d_52">
     <path d="M 377.384375 102.934687 
L 397.384375 102.934687 
" style="fill:none;stroke:#2ca02c;stroke-linecap:square;stroke-width:2;"/>
    </g>
    <g id="line2d_53"/>
    <g id="text_28">
     <!-- hardnet AP: 5.7, %In: 3.4 -->
     <defs>
      <path d="M 45.40625 46.390625 
L 45.40625 75.984375 
L 54.390625 75.984375 
L 54.390625 0 
L 45.40625 0 
L 45.40625 8.203125 
Q 42.578125 3.328125 38.25 0.953125 
Q 33.9375 -1.421875 27.875 -1.421875 
Q 17.96875 -1.421875 11.734375 6.484375 
Q 5.515625 14.40625 5.515625 27.296875 
Q 5.515625 40.1875 11.734375 48.09375 
Q 17.96875 56 27.875 56 
Q 33.9375 56 38.25 53.625 
Q 42.578125 51.265625 45.40625 46.390625 
z
M 14.796875 27.296875 
Q 14.796875 17.390625 18.875 11.75 
Q 22.953125 6.109375 30.078125 6.109375 
Q 37.203125 6.109375 41.296875 11.75 
Q 45.40625 17.390625 45.40625 27.296875 
Q 45.40625 37.203125 41.296875 42.84375 
Q 37.203125 48.484375 30.078125 48.484375 
Q 22.953125 48.484375 18.875 42.84375 
Q 14.796875 37.203125 14.796875 27.296875 
z
" id="DejaVuSans-100"/>
     </defs>
     <g transform="translate(405.384375 106.434687)scale(0.1 -0.1)">
      <use xlink:href="#DejaVuSans-104"/>
      <use x="63.378906" xlink:href="#DejaVuSans-97"/>
      <use x="124.658203" xlink:href="#DejaVuSans-114"/>
      <use x="164.021484" xlink:href="#DejaVuSans-100"/>
      <use x="227.498047" xlink:href="#DejaVuSans-110"/>
      <use x="290.876953" xlink:href="#DejaVuSans-101"/>
      <use x="352.400391" xlink:href="#DejaVuSans-116"/>
      <use x="391.609375" xlink:href="#DejaVuSans-32"/>
      <use x="423.396484" xlink:href="#DejaVuSans-65"/>
      <use x="491.804688" xlink:href="#DejaVuSans-80"/>
      <use x="552.107422" xlink:href="#DejaVuSans-58"/>
      <use x="585.798828" xlink:href="#DejaVuSans-32"/>
      <use x="617.585938" xlink:href="#DejaVuSans-53"/>
      <use x="681.208984" xlink:href="#DejaVuSans-46"/>
      <use x="712.996094" xlink:href="#DejaVuSans-55"/>
      <use x="776.619141" xlink:href="#DejaVuSans-44"/>
      <use x="808.40625" xlink:href="#DejaVuSans-32"/>
      <use x="840.193359" xlink:href="#DejaVuSans-37"/>
      <use x="935.212891" xlink:href="#DejaVuSans-73"/>
      <use x="964.705078" xlink:href="#DejaVuSans-110"/>
      <use x="1028.083984" xlink:href="#DejaVuSans-58"/>
      <use x="1061.775391" xlink:href="#DejaVuSans-32"/>
      <use x="1093.5625" xlink:href="#DejaVuSans-51"/>
      <use x="1157.185547" xlink:href="#DejaVuSans-46"/>
      <use x="1188.972656" xlink:href="#DejaVuSans-52"/>
     </g>
    </g>
   </g>
  </g>
 </g>
 <defs>
  <clipPath id="p743b93ef0c">
   <rect height="388.08" width="474.3" x="76.5" y="60.48"/>
  </clipPath>
 </defs>
</svg>
