<?xml version="1.0" encoding="utf-8" standalone="no"?>
<!DOCTYPE svg PUBLIC "-//W3C//DTD SVG 1.1//EN"
  "http://www.w3.org/Graphics/SVG/1.1/DTD/svg11.dtd">
<!-- Created with matplotlib (https://matplotlib.org/) -->
<svg height="504pt" version="1.1" viewBox="0 0 612 504" width="612pt" xmlns="http://www.w3.org/2000/svg" xmlns:xlink="http://www.w3.org/1999/xlink">
 <defs>
  <style type="text/css">
*{stroke-linecap:butt;stroke-linejoin:round;}
  </style>
 </defs>
 <g id="figure_1">
  <g id="patch_1">
   <path d="M 0 504 
L 612 504 
L 612 0 
L 0 0 
z
" style="fill:#ffffff;"/>
  </g>
  <g id="axes_1">
   <g id="patch_2">
    <path d="M 76.5 448.56 
L 550.8 448.56 
L 550.8 60.48 
L 76.5 60.48 
z
" style="fill:#ffffff;"/>
   </g>
   <g id="matplotlib.axis_1">
    <g id="xtick_1">
     <g id="line2d_1">
      <path clip-path="url(#p60c912699a)" d="M 76.5 448.56 
L 76.5 60.48 
" style="fill:none;stroke:#b0b0b0;stroke-linecap:square;stroke-width:0.8;"/>
     </g>
     <g id="line2d_2">
      <defs>
       <path d="M 0 0 
L 0 3.5 
" id="mddb903deab" style="stroke:#000000;stroke-width:0.8;"/>
      </defs>
      <g>
       <use style="stroke:#000000;stroke-width:0.8;" x="76.5" xlink:href="#mddb903deab" y="448.56"/>
      </g>
     </g>
     <g id="text_1">
      <!-- 0.0 -->
      <defs>
       <path d="M 31.78125 66.40625 
Q 24.171875 66.40625 20.328125 58.90625 
Q 16.5 51.421875 16.5 36.375 
Q 16.5 21.390625 20.328125 13.890625 
Q 24.171875 6.390625 31.78125 6.390625 
Q 39.453125 6.390625 43.28125 13.890625 
Q 47.125 21.390625 47.125 36.375 
Q 47.125 51.421875 43.28125 58.90625 
Q 39.453125 66.40625 31.78125 66.40625 
z
M 31.78125 74.21875 
Q 44.046875 74.21875 50.515625 64.515625 
Q 56.984375 54.828125 56.984375 36.375 
Q 56.984375 17.96875 50.515625 8.265625 
Q 44.046875 -1.421875 31.78125 -1.421875 
Q 19.53125 -1.421875 13.0625 8.265625 
Q 6.59375 17.96875 6.59375 36.375 
Q 6.59375 54.828125 13.0625 64.515625 
Q 19.53125 74.21875 31.78125 74.21875 
z
" id="DejaVuSans-48"/>
       <path d="M 10.6875 12.40625 
L 21 12.40625 
L 21 0 
L 10.6875 0 
z
" id="DejaVuSans-46"/>
      </defs>
      <g transform="translate(68.548438 463.158437)scale(0.1 -0.1)">
       <use xlink:href="#DejaVuSans-48"/>
       <use x="63.623047" xlink:href="#DejaVuSans-46"/>
       <use x="95.410156" xlink:href="#DejaVuSans-48"/>
      </g>
     </g>
    </g>
    <g id="xtick_2">
     <g id="line2d_3">
      <path clip-path="url(#p60c912699a)" d="M 123.93 448.56 
L 123.93 60.48 
" style="fill:none;stroke:#b0b0b0;stroke-linecap:square;stroke-width:0.8;"/>
     </g>
     <g id="line2d_4">
      <g>
       <use style="stroke:#000000;stroke-width:0.8;" x="123.93" xlink:href="#mddb903deab" y="448.56"/>
      </g>
     </g>
     <g id="text_2">
      <!-- 0.1 -->
      <defs>
       <path d="M 12.40625 8.296875 
L 28.515625 8.296875 
L 28.515625 63.921875 
L 10.984375 60.40625 
L 10.984375 69.390625 
L 28.421875 72.90625 
L 38.28125 72.90625 
L 38.28125 8.296875 
L 54.390625 8.296875 
L 54.390625 0 
L 12.40625 0 
z
" id="DejaVuSans-49"/>
      </defs>
      <g transform="translate(115.978438 463.158437)scale(0.1 -0.1)">
       <use xlink:href="#DejaVuSans-48"/>
       <use x="63.623047" xlink:href="#DejaVuSans-46"/>
       <use x="95.410156" xlink:href="#DejaVuSans-49"/>
      </g>
     </g>
    </g>
    <g id="xtick_3">
     <g id="line2d_5">
      <path clip-path="url(#p60c912699a)" d="M 171.36 448.56 
L 171.36 60.48 
" style="fill:none;stroke:#b0b0b0;stroke-linecap:square;stroke-width:0.8;"/>
     </g>
     <g id="line2d_6">
      <g>
       <use style="stroke:#000000;stroke-width:0.8;" x="171.36" xlink:href="#mddb903deab" y="448.56"/>
      </g>
     </g>
     <g id="text_3">
      <!-- 0.2 -->
      <defs>
       <path d="M 19.1875 8.296875 
L 53.609375 8.296875 
L 53.609375 0 
L 7.328125 0 
L 7.328125 8.296875 
Q 12.9375 14.109375 22.625 23.890625 
Q 32.328125 33.6875 34.8125 36.53125 
Q 39.546875 41.84375 41.421875 45.53125 
Q 43.3125 49.21875 43.3125 52.78125 
Q 43.3125 58.59375 39.234375 62.25 
Q 35.15625 65.921875 28.609375 65.921875 
Q 23.96875 65.921875 18.8125 64.3125 
Q 13.671875 62.703125 7.8125 59.421875 
L 7.8125 69.390625 
Q 13.765625 71.78125 18.9375 73 
Q 24.125 74.21875 28.421875 74.21875 
Q 39.75 74.21875 46.484375 68.546875 
Q 53.21875 62.890625 53.21875 53.421875 
Q 53.21875 48.921875 51.53125 44.890625 
Q 49.859375 40.875 45.40625 35.40625 
Q 44.1875 33.984375 37.640625 27.21875 
Q 31.109375 20.453125 19.1875 8.296875 
z
" id="DejaVuSans-50"/>
      </defs>
      <g transform="translate(163.408438 463.158437)scale(0.1 -0.1)">
       <use xlink:href="#DejaVuSans-48"/>
       <use x="63.623047" xlink:href="#DejaVuSans-46"/>
       <use x="95.410156" xlink:href="#DejaVuSans-50"/>
      </g>
     </g>
    </g>
    <g id="xtick_4">
     <g id="line2d_7">
      <path clip-path="url(#p60c912699a)" d="M 218.79 448.56 
L 218.79 60.48 
" style="fill:none;stroke:#b0b0b0;stroke-linecap:square;stroke-width:0.8;"/>
     </g>
     <g id="line2d_8">
      <g>
       <use style="stroke:#000000;stroke-width:0.8;" x="218.79" xlink:href="#mddb903deab" y="448.56"/>
      </g>
     </g>
     <g id="text_4">
      <!-- 0.3 -->
      <defs>
       <path d="M 40.578125 39.3125 
Q 47.65625 37.796875 51.625 33 
Q 55.609375 28.21875 55.609375 21.1875 
Q 55.609375 10.40625 48.1875 4.484375 
Q 40.765625 -1.421875 27.09375 -1.421875 
Q 22.515625 -1.421875 17.65625 -0.515625 
Q 12.796875 0.390625 7.625 2.203125 
L 7.625 11.71875 
Q 11.71875 9.328125 16.59375 8.109375 
Q 21.484375 6.890625 26.8125 6.890625 
Q 36.078125 6.890625 40.9375 10.546875 
Q 45.796875 14.203125 45.796875 21.1875 
Q 45.796875 27.640625 41.28125 31.265625 
Q 36.765625 34.90625 28.71875 34.90625 
L 20.21875 34.90625 
L 20.21875 43.015625 
L 29.109375 43.015625 
Q 36.375 43.015625 40.234375 45.921875 
Q 44.09375 48.828125 44.09375 54.296875 
Q 44.09375 59.90625 40.109375 62.90625 
Q 36.140625 65.921875 28.71875 65.921875 
Q 24.65625 65.921875 20.015625 65.03125 
Q 15.375 64.15625 9.8125 62.3125 
L 9.8125 71.09375 
Q 15.4375 72.65625 20.34375 73.4375 
Q 25.25 74.21875 29.59375 74.21875 
Q 40.828125 74.21875 47.359375 69.109375 
Q 53.90625 64.015625 53.90625 55.328125 
Q 53.90625 49.265625 50.4375 45.09375 
Q 46.96875 40.921875 40.578125 39.3125 
z
" id="DejaVuSans-51"/>
      </defs>
      <g transform="translate(210.838438 463.158437)scale(0.1 -0.1)">
       <use xlink:href="#DejaVuSans-48"/>
       <use x="63.623047" xlink:href="#DejaVuSans-46"/>
       <use x="95.410156" xlink:href="#DejaVuSans-51"/>
      </g>
     </g>
    </g>
    <g id="xtick_5">
     <g id="line2d_9">
      <path clip-path="url(#p60c912699a)" d="M 266.22 448.56 
L 266.22 60.48 
" style="fill:none;stroke:#b0b0b0;stroke-linecap:square;stroke-width:0.8;"/>
     </g>
     <g id="line2d_10">
      <g>
       <use style="stroke:#000000;stroke-width:0.8;" x="266.22" xlink:href="#mddb903deab" y="448.56"/>
      </g>
     </g>
     <g id="text_5">
      <!-- 0.4 -->
      <defs>
       <path d="M 37.796875 64.3125 
L 12.890625 25.390625 
L 37.796875 25.390625 
z
M 35.203125 72.90625 
L 47.609375 72.90625 
L 47.609375 25.390625 
L 58.015625 25.390625 
L 58.015625 17.1875 
L 47.609375 17.1875 
L 47.609375 0 
L 37.796875 0 
L 37.796875 17.1875 
L 4.890625 17.1875 
L 4.890625 26.703125 
z
" id="DejaVuSans-52"/>
      </defs>
      <g transform="translate(258.268438 463.158437)scale(0.1 -0.1)">
       <use xlink:href="#DejaVuSans-48"/>
       <use x="63.623047" xlink:href="#DejaVuSans-46"/>
       <use x="95.410156" xlink:href="#DejaVuSans-52"/>
      </g>
     </g>
    </g>
    <g id="xtick_6">
     <g id="line2d_11">
      <path clip-path="url(#p60c912699a)" d="M 313.65 448.56 
L 313.65 60.48 
" style="fill:none;stroke:#b0b0b0;stroke-linecap:square;stroke-width:0.8;"/>
     </g>
     <g id="line2d_12">
      <g>
       <use style="stroke:#000000;stroke-width:0.8;" x="313.65" xlink:href="#mddb903deab" y="448.56"/>
      </g>
     </g>
     <g id="text_6">
      <!-- 0.5 -->
      <defs>
       <path d="M 10.796875 72.90625 
L 49.515625 72.90625 
L 49.515625 64.59375 
L 19.828125 64.59375 
L 19.828125 46.734375 
Q 21.96875 47.46875 24.109375 47.828125 
Q 26.265625 48.1875 28.421875 48.1875 
Q 40.625 48.1875 47.75 41.5 
Q 54.890625 34.8125 54.890625 23.390625 
Q 54.890625 11.625 47.5625 5.09375 
Q 40.234375 -1.421875 26.90625 -1.421875 
Q 22.3125 -1.421875 17.546875 -0.640625 
Q 12.796875 0.140625 7.71875 1.703125 
L 7.71875 11.625 
Q 12.109375 9.234375 16.796875 8.0625 
Q 21.484375 6.890625 26.703125 6.890625 
Q 35.15625 6.890625 40.078125 11.328125 
Q 45.015625 15.765625 45.015625 23.390625 
Q 45.015625 31 40.078125 35.4375 
Q 35.15625 39.890625 26.703125 39.890625 
Q 22.75 39.890625 18.8125 39.015625 
Q 14.890625 38.140625 10.796875 36.28125 
z
" id="DejaVuSans-53"/>
      </defs>
      <g transform="translate(305.698438 463.158437)scale(0.1 -0.1)">
       <use xlink:href="#DejaVuSans-48"/>
       <use x="63.623047" xlink:href="#DejaVuSans-46"/>
       <use x="95.410156" xlink:href="#DejaVuSans-53"/>
      </g>
     </g>
    </g>
    <g id="xtick_7">
     <g id="line2d_13">
      <path clip-path="url(#p60c912699a)" d="M 361.08 448.56 
L 361.08 60.48 
" style="fill:none;stroke:#b0b0b0;stroke-linecap:square;stroke-width:0.8;"/>
     </g>
     <g id="line2d_14">
      <g>
       <use style="stroke:#000000;stroke-width:0.8;" x="361.08" xlink:href="#mddb903deab" y="448.56"/>
      </g>
     </g>
     <g id="text_7">
      <!-- 0.6 -->
      <defs>
       <path d="M 33.015625 40.375 
Q 26.375 40.375 22.484375 35.828125 
Q 18.609375 31.296875 18.609375 23.390625 
Q 18.609375 15.53125 22.484375 10.953125 
Q 26.375 6.390625 33.015625 6.390625 
Q 39.65625 6.390625 43.53125 10.953125 
Q 47.40625 15.53125 47.40625 23.390625 
Q 47.40625 31.296875 43.53125 35.828125 
Q 39.65625 40.375 33.015625 40.375 
z
M 52.59375 71.296875 
L 52.59375 62.3125 
Q 48.875 64.0625 45.09375 64.984375 
Q 41.3125 65.921875 37.59375 65.921875 
Q 27.828125 65.921875 22.671875 59.328125 
Q 17.53125 52.734375 16.796875 39.40625 
Q 19.671875 43.65625 24.015625 45.921875 
Q 28.375 48.1875 33.59375 48.1875 
Q 44.578125 48.1875 50.953125 41.515625 
Q 57.328125 34.859375 57.328125 23.390625 
Q 57.328125 12.15625 50.6875 5.359375 
Q 44.046875 -1.421875 33.015625 -1.421875 
Q 20.359375 -1.421875 13.671875 8.265625 
Q 6.984375 17.96875 6.984375 36.375 
Q 6.984375 53.65625 15.1875 63.9375 
Q 23.390625 74.21875 37.203125 74.21875 
Q 40.921875 74.21875 44.703125 73.484375 
Q 48.484375 72.75 52.59375 71.296875 
z
" id="DejaVuSans-54"/>
      </defs>
      <g transform="translate(353.128438 463.158437)scale(0.1 -0.1)">
       <use xlink:href="#DejaVuSans-48"/>
       <use x="63.623047" xlink:href="#DejaVuSans-46"/>
       <use x="95.410156" xlink:href="#DejaVuSans-54"/>
      </g>
     </g>
    </g>
    <g id="xtick_8">
     <g id="line2d_15">
      <path clip-path="url(#p60c912699a)" d="M 408.51 448.56 
L 408.51 60.48 
" style="fill:none;stroke:#b0b0b0;stroke-linecap:square;stroke-width:0.8;"/>
     </g>
     <g id="line2d_16">
      <g>
       <use style="stroke:#000000;stroke-width:0.8;" x="408.51" xlink:href="#mddb903deab" y="448.56"/>
      </g>
     </g>
     <g id="text_8">
      <!-- 0.7 -->
      <defs>
       <path d="M 8.203125 72.90625 
L 55.078125 72.90625 
L 55.078125 68.703125 
L 28.609375 0 
L 18.3125 0 
L 43.21875 64.59375 
L 8.203125 64.59375 
z
" id="DejaVuSans-55"/>
      </defs>
      <g transform="translate(400.558438 463.158437)scale(0.1 -0.1)">
       <use xlink:href="#DejaVuSans-48"/>
       <use x="63.623047" xlink:href="#DejaVuSans-46"/>
       <use x="95.410156" xlink:href="#DejaVuSans-55"/>
      </g>
     </g>
    </g>
    <g id="xtick_9">
     <g id="line2d_17">
      <path clip-path="url(#p60c912699a)" d="M 455.94 448.56 
L 455.94 60.48 
" style="fill:none;stroke:#b0b0b0;stroke-linecap:square;stroke-width:0.8;"/>
     </g>
     <g id="line2d_18">
      <g>
       <use style="stroke:#000000;stroke-width:0.8;" x="455.94" xlink:href="#mddb903deab" y="448.56"/>
      </g>
     </g>
     <g id="text_9">
      <!-- 0.8 -->
      <defs>
       <path d="M 31.78125 34.625 
Q 24.75 34.625 20.71875 30.859375 
Q 16.703125 27.09375 16.703125 20.515625 
Q 16.703125 13.921875 20.71875 10.15625 
Q 24.75 6.390625 31.78125 6.390625 
Q 38.8125 6.390625 42.859375 10.171875 
Q 46.921875 13.96875 46.921875 20.515625 
Q 46.921875 27.09375 42.890625 30.859375 
Q 38.875 34.625 31.78125 34.625 
z
M 21.921875 38.8125 
Q 15.578125 40.375 12.03125 44.71875 
Q 8.5 49.078125 8.5 55.328125 
Q 8.5 64.0625 14.71875 69.140625 
Q 20.953125 74.21875 31.78125 74.21875 
Q 42.671875 74.21875 48.875 69.140625 
Q 55.078125 64.0625 55.078125 55.328125 
Q 55.078125 49.078125 51.53125 44.71875 
Q 48 40.375 41.703125 38.8125 
Q 48.828125 37.15625 52.796875 32.3125 
Q 56.78125 27.484375 56.78125 20.515625 
Q 56.78125 9.90625 50.3125 4.234375 
Q 43.84375 -1.421875 31.78125 -1.421875 
Q 19.734375 -1.421875 13.25 4.234375 
Q 6.78125 9.90625 6.78125 20.515625 
Q 6.78125 27.484375 10.78125 32.3125 
Q 14.796875 37.15625 21.921875 38.8125 
z
M 18.3125 54.390625 
Q 18.3125 48.734375 21.84375 45.5625 
Q 25.390625 42.390625 31.78125 42.390625 
Q 38.140625 42.390625 41.71875 45.5625 
Q 45.3125 48.734375 45.3125 54.390625 
Q 45.3125 60.0625 41.71875 63.234375 
Q 38.140625 66.40625 31.78125 66.40625 
Q 25.390625 66.40625 21.84375 63.234375 
Q 18.3125 60.0625 18.3125 54.390625 
z
" id="DejaVuSans-56"/>
      </defs>
      <g transform="translate(447.988438 463.158437)scale(0.1 -0.1)">
       <use xlink:href="#DejaVuSans-48"/>
       <use x="63.623047" xlink:href="#DejaVuSans-46"/>
       <use x="95.410156" xlink:href="#DejaVuSans-56"/>
      </g>
     </g>
    </g>
    <g id="xtick_10">
     <g id="line2d_19">
      <path clip-path="url(#p60c912699a)" d="M 503.37 448.56 
L 503.37 60.48 
" style="fill:none;stroke:#b0b0b0;stroke-linecap:square;stroke-width:0.8;"/>
     </g>
     <g id="line2d_20">
      <g>
       <use style="stroke:#000000;stroke-width:0.8;" x="503.37" xlink:href="#mddb903deab" y="448.56"/>
      </g>
     </g>
     <g id="text_10">
      <!-- 0.9 -->
      <defs>
       <path d="M 10.984375 1.515625 
L 10.984375 10.5 
Q 14.703125 8.734375 18.5 7.8125 
Q 22.3125 6.890625 25.984375 6.890625 
Q 35.75 6.890625 40.890625 13.453125 
Q 46.046875 20.015625 46.78125 33.40625 
Q 43.953125 29.203125 39.59375 26.953125 
Q 35.25 24.703125 29.984375 24.703125 
Q 19.046875 24.703125 12.671875 31.3125 
Q 6.296875 37.9375 6.296875 49.421875 
Q 6.296875 60.640625 12.9375 67.421875 
Q 19.578125 74.21875 30.609375 74.21875 
Q 43.265625 74.21875 49.921875 64.515625 
Q 56.59375 54.828125 56.59375 36.375 
Q 56.59375 19.140625 48.40625 8.859375 
Q 40.234375 -1.421875 26.421875 -1.421875 
Q 22.703125 -1.421875 18.890625 -0.6875 
Q 15.09375 0.046875 10.984375 1.515625 
z
M 30.609375 32.421875 
Q 37.25 32.421875 41.125 36.953125 
Q 45.015625 41.5 45.015625 49.421875 
Q 45.015625 57.28125 41.125 61.84375 
Q 37.25 66.40625 30.609375 66.40625 
Q 23.96875 66.40625 20.09375 61.84375 
Q 16.21875 57.28125 16.21875 49.421875 
Q 16.21875 41.5 20.09375 36.953125 
Q 23.96875 32.421875 30.609375 32.421875 
z
" id="DejaVuSans-57"/>
      </defs>
      <g transform="translate(495.418438 463.158437)scale(0.1 -0.1)">
       <use xlink:href="#DejaVuSans-48"/>
       <use x="63.623047" xlink:href="#DejaVuSans-46"/>
       <use x="95.410156" xlink:href="#DejaVuSans-57"/>
      </g>
     </g>
    </g>
    <g id="xtick_11">
     <g id="line2d_21">
      <path clip-path="url(#p60c912699a)" d="M 550.8 448.56 
L 550.8 60.48 
" style="fill:none;stroke:#b0b0b0;stroke-linecap:square;stroke-width:0.8;"/>
     </g>
     <g id="line2d_22">
      <g>
       <use style="stroke:#000000;stroke-width:0.8;" x="550.8" xlink:href="#mddb903deab" y="448.56"/>
      </g>
     </g>
     <g id="text_11">
      <!-- 1.0 -->
      <g transform="translate(542.848438 463.158437)scale(0.1 -0.1)">
       <use xlink:href="#DejaVuSans-49"/>
       <use x="63.623047" xlink:href="#DejaVuSans-46"/>
       <use x="95.410156" xlink:href="#DejaVuSans-48"/>
      </g>
     </g>
    </g>
    <g id="text_12">
     <!-- 1-precision -->
     <defs>
      <path d="M 4.890625 31.390625 
L 31.203125 31.390625 
L 31.203125 23.390625 
L 4.890625 23.390625 
z
" id="DejaVuSans-45"/>
      <path d="M 18.109375 8.203125 
L 18.109375 -20.796875 
L 9.078125 -20.796875 
L 9.078125 54.6875 
L 18.109375 54.6875 
L 18.109375 46.390625 
Q 20.953125 51.265625 25.265625 53.625 
Q 29.59375 56 35.59375 56 
Q 45.5625 56 51.78125 48.09375 
Q 58.015625 40.1875 58.015625 27.296875 
Q 58.015625 14.40625 51.78125 6.484375 
Q 45.5625 -1.421875 35.59375 -1.421875 
Q 29.59375 -1.421875 25.265625 0.953125 
Q 20.953125 3.328125 18.109375 8.203125 
z
M 48.6875 27.296875 
Q 48.6875 37.203125 44.609375 42.84375 
Q 40.53125 48.484375 33.40625 48.484375 
Q 26.265625 48.484375 22.1875 42.84375 
Q 18.109375 37.203125 18.109375 27.296875 
Q 18.109375 17.390625 22.1875 11.75 
Q 26.265625 6.109375 33.40625 6.109375 
Q 40.53125 6.109375 44.609375 11.75 
Q 48.6875 17.390625 48.6875 27.296875 
z
" id="DejaVuSans-112"/>
      <path d="M 41.109375 46.296875 
Q 39.59375 47.171875 37.8125 47.578125 
Q 36.03125 48 33.890625 48 
Q 26.265625 48 22.1875 43.046875 
Q 18.109375 38.09375 18.109375 28.8125 
L 18.109375 0 
L 9.078125 0 
L 9.078125 54.6875 
L 18.109375 54.6875 
L 18.109375 46.1875 
Q 20.953125 51.171875 25.484375 53.578125 
Q 30.03125 56 36.53125 56 
Q 37.453125 56 38.578125 55.875 
Q 39.703125 55.765625 41.0625 55.515625 
z
" id="DejaVuSans-114"/>
      <path d="M 56.203125 29.59375 
L 56.203125 25.203125 
L 14.890625 25.203125 
Q 15.484375 15.921875 20.484375 11.0625 
Q 25.484375 6.203125 34.421875 6.203125 
Q 39.59375 6.203125 44.453125 7.46875 
Q 49.3125 8.734375 54.109375 11.28125 
L 54.109375 2.78125 
Q 49.265625 0.734375 44.1875 -0.34375 
Q 39.109375 -1.421875 33.890625 -1.421875 
Q 20.796875 -1.421875 13.15625 6.1875 
Q 5.515625 13.8125 5.515625 26.8125 
Q 5.515625 40.234375 12.765625 48.109375 
Q 20.015625 56 32.328125 56 
Q 43.359375 56 49.78125 48.890625 
Q 56.203125 41.796875 56.203125 29.59375 
z
M 47.21875 32.234375 
Q 47.125 39.59375 43.09375 43.984375 
Q 39.0625 48.390625 32.421875 48.390625 
Q 24.90625 48.390625 20.390625 44.140625 
Q 15.875 39.890625 15.1875 32.171875 
z
" id="DejaVuSans-101"/>
      <path d="M 48.78125 52.59375 
L 48.78125 44.1875 
Q 44.96875 46.296875 41.140625 47.34375 
Q 37.3125 48.390625 33.40625 48.390625 
Q 24.65625 48.390625 19.8125 42.84375 
Q 14.984375 37.3125 14.984375 27.296875 
Q 14.984375 17.28125 19.8125 11.734375 
Q 24.65625 6.203125 33.40625 6.203125 
Q 37.3125 6.203125 41.140625 7.25 
Q 44.96875 8.296875 48.78125 10.40625 
L 48.78125 2.09375 
Q 45.015625 0.34375 40.984375 -0.53125 
Q 36.96875 -1.421875 32.421875 -1.421875 
Q 20.0625 -1.421875 12.78125 6.34375 
Q 5.515625 14.109375 5.515625 27.296875 
Q 5.515625 40.671875 12.859375 48.328125 
Q 20.21875 56 33.015625 56 
Q 37.15625 56 41.109375 55.140625 
Q 45.0625 54.296875 48.78125 52.59375 
z
" id="DejaVuSans-99"/>
      <path d="M 9.421875 54.6875 
L 18.40625 54.6875 
L 18.40625 0 
L 9.421875 0 
z
M 9.421875 75.984375 
L 18.40625 75.984375 
L 18.40625 64.59375 
L 9.421875 64.59375 
z
" id="DejaVuSans-105"/>
      <path d="M 44.28125 53.078125 
L 44.28125 44.578125 
Q 40.484375 46.53125 36.375 47.5 
Q 32.28125 48.484375 27.875 48.484375 
Q 21.1875 48.484375 17.84375 46.4375 
Q 14.5 44.390625 14.5 40.28125 
Q 14.5 37.15625 16.890625 35.375 
Q 19.28125 33.59375 26.515625 31.984375 
L 29.59375 31.296875 
Q 39.15625 29.25 43.1875 25.515625 
Q 47.21875 21.78125 47.21875 15.09375 
Q 47.21875 7.46875 41.1875 3.015625 
Q 35.15625 -1.421875 24.609375 -1.421875 
Q 20.21875 -1.421875 15.453125 -0.5625 
Q 10.6875 0.296875 5.421875 2 
L 5.421875 11.28125 
Q 10.40625 8.6875 15.234375 7.390625 
Q 20.0625 6.109375 24.8125 6.109375 
Q 31.15625 6.109375 34.5625 8.28125 
Q 37.984375 10.453125 37.984375 14.40625 
Q 37.984375 18.0625 35.515625 20.015625 
Q 33.0625 21.96875 24.703125 23.78125 
L 21.578125 24.515625 
Q 13.234375 26.265625 9.515625 29.90625 
Q 5.8125 33.546875 5.8125 39.890625 
Q 5.8125 47.609375 11.28125 51.796875 
Q 16.75 56 26.8125 56 
Q 31.78125 56 36.171875 55.265625 
Q 40.578125 54.546875 44.28125 53.078125 
z
" id="DejaVuSans-115"/>
      <path d="M 30.609375 48.390625 
Q 23.390625 48.390625 19.1875 42.75 
Q 14.984375 37.109375 14.984375 27.296875 
Q 14.984375 17.484375 19.15625 11.84375 
Q 23.34375 6.203125 30.609375 6.203125 
Q 37.796875 6.203125 41.984375 11.859375 
Q 46.1875 17.53125 46.1875 27.296875 
Q 46.1875 37.015625 41.984375 42.703125 
Q 37.796875 48.390625 30.609375 48.390625 
z
M 30.609375 56 
Q 42.328125 56 49.015625 48.375 
Q 55.71875 40.765625 55.71875 27.296875 
Q 55.71875 13.875 49.015625 6.21875 
Q 42.328125 -1.421875 30.609375 -1.421875 
Q 18.84375 -1.421875 12.171875 6.21875 
Q 5.515625 13.875 5.515625 27.296875 
Q 5.515625 40.765625 12.171875 48.375 
Q 18.84375 56 30.609375 56 
z
" id="DejaVuSans-111"/>
      <path d="M 54.890625 33.015625 
L 54.890625 0 
L 45.90625 0 
L 45.90625 32.71875 
Q 45.90625 40.484375 42.875 44.328125 
Q 39.84375 48.1875 33.796875 48.1875 
Q 26.515625 48.1875 22.3125 43.546875 
Q 18.109375 38.921875 18.109375 30.90625 
L 18.109375 0 
L 9.078125 0 
L 9.078125 54.6875 
L 18.109375 54.6875 
L 18.109375 46.1875 
Q 21.34375 51.125 25.703125 53.5625 
Q 30.078125 56 35.796875 56 
Q 45.21875 56 50.046875 50.171875 
Q 54.890625 44.34375 54.890625 33.015625 
z
" id="DejaVuSans-110"/>
     </defs>
     <g transform="translate(286.110938 476.836563)scale(0.1 -0.1)">
      <use xlink:href="#DejaVuSans-49"/>
      <use x="63.623047" xlink:href="#DejaVuSans-45"/>
      <use x="99.707031" xlink:href="#DejaVuSans-112"/>
      <use x="163.183594" xlink:href="#DejaVuSans-114"/>
      <use x="202.046875" xlink:href="#DejaVuSans-101"/>
      <use x="263.570312" xlink:href="#DejaVuSans-99"/>
      <use x="318.550781" xlink:href="#DejaVuSans-105"/>
      <use x="346.333984" xlink:href="#DejaVuSans-115"/>
      <use x="398.433594" xlink:href="#DejaVuSans-105"/>
      <use x="426.216797" xlink:href="#DejaVuSans-111"/>
      <use x="487.398438" xlink:href="#DejaVuSans-110"/>
     </g>
    </g>
   </g>
   <g id="matplotlib.axis_2">
    <g id="ytick_1">
     <g id="line2d_23">
      <path clip-path="url(#p60c912699a)" d="M 76.5 448.56 
L 550.8 448.56 
" style="fill:none;stroke:#b0b0b0;stroke-linecap:square;stroke-width:0.8;"/>
     </g>
     <g id="line2d_24">
      <defs>
       <path d="M 0 0 
L -3.5 0 
" id="m8bb0deaccf" style="stroke:#000000;stroke-width:0.8;"/>
      </defs>
      <g>
       <use style="stroke:#000000;stroke-width:0.8;" x="76.5" xlink:href="#m8bb0deaccf" y="448.56"/>
      </g>
     </g>
     <g id="text_13">
      <!-- 0.0 -->
      <g transform="translate(53.596875 452.359219)scale(0.1 -0.1)">
       <use xlink:href="#DejaVuSans-48"/>
       <use x="63.623047" xlink:href="#DejaVuSans-46"/>
       <use x="95.410156" xlink:href="#DejaVuSans-48"/>
      </g>
     </g>
    </g>
    <g id="ytick_2">
     <g id="line2d_25">
      <path clip-path="url(#p60c912699a)" d="M 76.5 409.752 
L 550.8 409.752 
" style="fill:none;stroke:#b0b0b0;stroke-linecap:square;stroke-width:0.8;"/>
     </g>
     <g id="line2d_26">
      <g>
       <use style="stroke:#000000;stroke-width:0.8;" x="76.5" xlink:href="#m8bb0deaccf" y="409.752"/>
      </g>
     </g>
     <g id="text_14">
      <!-- 0.1 -->
      <g transform="translate(53.596875 413.551219)scale(0.1 -0.1)">
       <use xlink:href="#DejaVuSans-48"/>
       <use x="63.623047" xlink:href="#DejaVuSans-46"/>
       <use x="95.410156" xlink:href="#DejaVuSans-49"/>
      </g>
     </g>
    </g>
    <g id="ytick_3">
     <g id="line2d_27">
      <path clip-path="url(#p60c912699a)" d="M 76.5 370.944 
L 550.8 370.944 
" style="fill:none;stroke:#b0b0b0;stroke-linecap:square;stroke-width:0.8;"/>
     </g>
     <g id="line2d_28">
      <g>
       <use style="stroke:#000000;stroke-width:0.8;" x="76.5" xlink:href="#m8bb0deaccf" y="370.944"/>
      </g>
     </g>
     <g id="text_15">
      <!-- 0.2 -->
      <g transform="translate(53.596875 374.743219)scale(0.1 -0.1)">
       <use xlink:href="#DejaVuSans-48"/>
       <use x="63.623047" xlink:href="#DejaVuSans-46"/>
       <use x="95.410156" xlink:href="#DejaVuSans-50"/>
      </g>
     </g>
    </g>
    <g id="ytick_4">
     <g id="line2d_29">
      <path clip-path="url(#p60c912699a)" d="M 76.5 332.136 
L 550.8 332.136 
" style="fill:none;stroke:#b0b0b0;stroke-linecap:square;stroke-width:0.8;"/>
     </g>
     <g id="line2d_30">
      <g>
       <use style="stroke:#000000;stroke-width:0.8;" x="76.5" xlink:href="#m8bb0deaccf" y="332.136"/>
      </g>
     </g>
     <g id="text_16">
      <!-- 0.3 -->
      <g transform="translate(53.596875 335.935219)scale(0.1 -0.1)">
       <use xlink:href="#DejaVuSans-48"/>
       <use x="63.623047" xlink:href="#DejaVuSans-46"/>
       <use x="95.410156" xlink:href="#DejaVuSans-51"/>
      </g>
     </g>
    </g>
    <g id="ytick_5">
     <g id="line2d_31">
      <path clip-path="url(#p60c912699a)" d="M 76.5 293.328 
L 550.8 293.328 
" style="fill:none;stroke:#b0b0b0;stroke-linecap:square;stroke-width:0.8;"/>
     </g>
     <g id="line2d_32">
      <g>
       <use style="stroke:#000000;stroke-width:0.8;" x="76.5" xlink:href="#m8bb0deaccf" y="293.328"/>
      </g>
     </g>
     <g id="text_17">
      <!-- 0.4 -->
      <g transform="translate(53.596875 297.127219)scale(0.1 -0.1)">
       <use xlink:href="#DejaVuSans-48"/>
       <use x="63.623047" xlink:href="#DejaVuSans-46"/>
       <use x="95.410156" xlink:href="#DejaVuSans-52"/>
      </g>
     </g>
    </g>
    <g id="ytick_6">
     <g id="line2d_33">
      <path clip-path="url(#p60c912699a)" d="M 76.5 254.52 
L 550.8 254.52 
" style="fill:none;stroke:#b0b0b0;stroke-linecap:square;stroke-width:0.8;"/>
     </g>
     <g id="line2d_34">
      <g>
       <use style="stroke:#000000;stroke-width:0.8;" x="76.5" xlink:href="#m8bb0deaccf" y="254.52"/>
      </g>
     </g>
     <g id="text_18">
      <!-- 0.5 -->
      <g transform="translate(53.596875 258.319219)scale(0.1 -0.1)">
       <use xlink:href="#DejaVuSans-48"/>
       <use x="63.623047" xlink:href="#DejaVuSans-46"/>
       <use x="95.410156" xlink:href="#DejaVuSans-53"/>
      </g>
     </g>
    </g>
    <g id="ytick_7">
     <g id="line2d_35">
      <path clip-path="url(#p60c912699a)" d="M 76.5 215.712 
L 550.8 215.712 
" style="fill:none;stroke:#b0b0b0;stroke-linecap:square;stroke-width:0.8;"/>
     </g>
     <g id="line2d_36">
      <g>
       <use style="stroke:#000000;stroke-width:0.8;" x="76.5" xlink:href="#m8bb0deaccf" y="215.712"/>
      </g>
     </g>
     <g id="text_19">
      <!-- 0.6 -->
      <g transform="translate(53.596875 219.511219)scale(0.1 -0.1)">
       <use xlink:href="#DejaVuSans-48"/>
       <use x="63.623047" xlink:href="#DejaVuSans-46"/>
       <use x="95.410156" xlink:href="#DejaVuSans-54"/>
      </g>
     </g>
    </g>
    <g id="ytick_8">
     <g id="line2d_37">
      <path clip-path="url(#p60c912699a)" d="M 76.5 176.904 
L 550.8 176.904 
" style="fill:none;stroke:#b0b0b0;stroke-linecap:square;stroke-width:0.8;"/>
     </g>
     <g id="line2d_38">
      <g>
       <use style="stroke:#000000;stroke-width:0.8;" x="76.5" xlink:href="#m8bb0deaccf" y="176.904"/>
      </g>
     </g>
     <g id="text_20">
      <!-- 0.7 -->
      <g transform="translate(53.596875 180.703219)scale(0.1 -0.1)">
       <use xlink:href="#DejaVuSans-48"/>
       <use x="63.623047" xlink:href="#DejaVuSans-46"/>
       <use x="95.410156" xlink:href="#DejaVuSans-55"/>
      </g>
     </g>
    </g>
    <g id="ytick_9">
     <g id="line2d_39">
      <path clip-path="url(#p60c912699a)" d="M 76.5 138.096 
L 550.8 138.096 
" style="fill:none;stroke:#b0b0b0;stroke-linecap:square;stroke-width:0.8;"/>
     </g>
     <g id="line2d_40">
      <g>
       <use style="stroke:#000000;stroke-width:0.8;" x="76.5" xlink:href="#m8bb0deaccf" y="138.096"/>
      </g>
     </g>
     <g id="text_21">
      <!-- 0.8 -->
      <g transform="translate(53.596875 141.895219)scale(0.1 -0.1)">
       <use xlink:href="#DejaVuSans-48"/>
       <use x="63.623047" xlink:href="#DejaVuSans-46"/>
       <use x="95.410156" xlink:href="#DejaVuSans-56"/>
      </g>
     </g>
    </g>
    <g id="ytick_10">
     <g id="line2d_41">
      <path clip-path="url(#p60c912699a)" d="M 76.5 99.288 
L 550.8 99.288 
" style="fill:none;stroke:#b0b0b0;stroke-linecap:square;stroke-width:0.8;"/>
     </g>
     <g id="line2d_42">
      <g>
       <use style="stroke:#000000;stroke-width:0.8;" x="76.5" xlink:href="#m8bb0deaccf" y="99.288"/>
      </g>
     </g>
     <g id="text_22">
      <!-- 0.9 -->
      <g transform="translate(53.596875 103.087219)scale(0.1 -0.1)">
       <use xlink:href="#DejaVuSans-48"/>
       <use x="63.623047" xlink:href="#DejaVuSans-46"/>
       <use x="95.410156" xlink:href="#DejaVuSans-57"/>
      </g>
     </g>
    </g>
    <g id="ytick_11">
     <g id="line2d_43">
      <path clip-path="url(#p60c912699a)" d="M 76.5 60.48 
L 550.8 60.48 
" style="fill:none;stroke:#b0b0b0;stroke-linecap:square;stroke-width:0.8;"/>
     </g>
     <g id="line2d_44">
      <g>
       <use style="stroke:#000000;stroke-width:0.8;" x="76.5" xlink:href="#m8bb0deaccf" y="60.48"/>
      </g>
     </g>
     <g id="text_23">
      <!-- 1.0 -->
      <g transform="translate(53.596875 64.279219)scale(0.1 -0.1)">
       <use xlink:href="#DejaVuSans-49"/>
       <use x="63.623047" xlink:href="#DejaVuSans-46"/>
       <use x="95.410156" xlink:href="#DejaVuSans-48"/>
      </g>
     </g>
    </g>
    <g id="text_24">
     <!-- #correct/887 -->
     <defs>
      <path d="M 51.125 44 
L 36.921875 44 
L 32.8125 27.6875 
L 47.125 27.6875 
z
M 43.796875 71.78125 
L 38.71875 51.515625 
L 52.984375 51.515625 
L 58.109375 71.78125 
L 65.921875 71.78125 
L 60.890625 51.515625 
L 76.125 51.515625 
L 76.125 44 
L 58.984375 44 
L 54.984375 27.6875 
L 70.515625 27.6875 
L 70.515625 20.21875 
L 53.078125 20.21875 
L 48 0 
L 40.1875 0 
L 45.21875 20.21875 
L 30.90625 20.21875 
L 25.875 0 
L 18.015625 0 
L 23.09375 20.21875 
L 7.71875 20.21875 
L 7.71875 27.6875 
L 24.90625 27.6875 
L 29 44 
L 13.28125 44 
L 13.28125 51.515625 
L 30.90625 51.515625 
L 35.890625 71.78125 
z
" id="DejaVuSans-35"/>
      <path d="M 18.3125 70.21875 
L 18.3125 54.6875 
L 36.8125 54.6875 
L 36.8125 47.703125 
L 18.3125 47.703125 
L 18.3125 18.015625 
Q 18.3125 11.328125 20.140625 9.421875 
Q 21.96875 7.515625 27.59375 7.515625 
L 36.8125 7.515625 
L 36.8125 0 
L 27.59375 0 
Q 17.1875 0 13.234375 3.875 
Q 9.28125 7.765625 9.28125 18.015625 
L 9.28125 47.703125 
L 2.6875 47.703125 
L 2.6875 54.6875 
L 9.28125 54.6875 
L 9.28125 70.21875 
z
" id="DejaVuSans-116"/>
      <path d="M 25.390625 72.90625 
L 33.6875 72.90625 
L 8.296875 -9.28125 
L 0 -9.28125 
z
" id="DejaVuSans-47"/>
     </defs>
     <g transform="translate(47.517187 287.443438)rotate(-90)scale(0.1 -0.1)">
      <use xlink:href="#DejaVuSans-35"/>
      <use x="83.789062" xlink:href="#DejaVuSans-99"/>
      <use x="138.769531" xlink:href="#DejaVuSans-111"/>
      <use x="199.951172" xlink:href="#DejaVuSans-114"/>
      <use x="239.314453" xlink:href="#DejaVuSans-114"/>
      <use x="278.177734" xlink:href="#DejaVuSans-101"/>
      <use x="339.701172" xlink:href="#DejaVuSans-99"/>
      <use x="394.681641" xlink:href="#DejaVuSans-116"/>
      <use x="433.890625" xlink:href="#DejaVuSans-47"/>
      <use x="467.582031" xlink:href="#DejaVuSans-56"/>
      <use x="531.205078" xlink:href="#DejaVuSans-56"/>
      <use x="594.828125" xlink:href="#DejaVuSans-55"/>
     </g>
    </g>
   </g>
   <g id="line2d_45">
    <path clip-path="url(#p60c912699a)" d="M 76.5 448.12248 
L 76.5 206.17407 
L 77.354595 206.17407 
L 77.336508 200.923833 
L 78.17007 200.923833 
L 78.164211 200.048794 
L 78.991944 200.048794 
L 78.961765 196.986156 
L 79.776684 196.986156 
L 79.759794 195.673596 
L 80.567753 195.673596 
L 80.560788 195.236077 
L 81.364615 195.236077 
L 81.331579 193.485998 
L 82.127288 193.485998 
L 82.08 191.298399 
L 82.866443 191.298399 
L 82.855779 190.860879 
L 83.638294 190.860879 
L 83.6145 189.98584 
L 84.391847 189.98584 
L 84.326733 187.798241 
L 85.095222 187.798241 
L 85.066995 186.923202 
L 85.830492 186.923202 
L 85.769707 185.173123 
L 87.279545 185.173123 
L 87.24466 184.298083 
L 87.993538 184.298083 
L 87.919743 182.548005 
L 88.661538 182.548005 
L 88.64208 182.110485 
L 89.380351 182.110485 
L 89.318919 180.797926 
L 90.051429 180.797926 
L 90.029952 180.360406 
L 92.210252 180.360406 
L 92.160849 179.485366 
L 95.027344 179.485366 
L 94.99844 179.047847 
L 95.708411 179.047847 
L 95.678538 178.610327 
L 97.792105 178.610327 
L 97.628571 176.422728 
L 99.707339 176.422728 
L 99.636585 175.547689 
L 101.69044 175.547689 
L 101.652273 175.110169 
L 103.009215 175.110169 
L 102.929367 174.23513 
L 104.274324 174.23513 
L 104.149776 172.92257 
L 104.816418 172.92257 
L 104.732143 172.047531 
L 105.394948 172.047531 
L 105.352077 171.610011 
L 108.632253 171.610011 
L 108.585 171.172492 
L 109.234361 171.172492 
L 109.186364 170.734972 
L 110.477632 170.734972 
L 110.378571 169.859932 
L 111.658866 169.859932 
L 111.607837 169.422413 
L 114.772046 169.422413 
L 114.716978 168.984893 
L 116.591261 168.984893 
L 116.533906 168.547373 
L 117.772896 168.547373 
L 117.714103 168.109853 
L 118.330156 168.109853 
L 118.270739 167.672334 
L 118.884255 167.672334 
L 118.764356 166.797294 
L 119.983075 166.797294 
L 119.79986 165.484735 
L 124.58875 165.484735 
L 124.522053 165.047215 
L 126.288398 165.047215 
L 126.219724 164.609696 
L 132.565353 164.609696 
L 132.489281 164.172176 
L 133.056098 164.172176 
L 132.979567 163.734656 
L 136.900134 163.734656 
L 136.819277 163.297136 
L 137.9247 163.297136 
L 137.8428 162.859617 
L 139.488048 162.859617 
L 139.404509 162.422097 
L 141.575462 162.422097 
L 141.489723 161.984577 
L 145.758931 161.984577 
L 145.578804 161.109538 
L 146.105065 161.109538 
L 146.014786 160.672018 
L 146.539119 160.672018 
L 146.448512 160.234498 
L 146.97093 160.234498 
L 146.88 159.796979 
L 148.437532 159.796979 
L 148.345186 159.359459 
L 149.88913 159.359459 
L 149.795402 158.921939 
L 150.81707 158.921939 
L 150.722519 158.484419 
L 152.748228 158.484419 
L 152.651833 158.0469 
L 155.152764 158.0469 
L 154.955639 157.17186 
L 158.397764 157.17186 
L 158.296154 156.73434 
L 167.799879 156.73434 
L 167.579348 155.859301 
L 172.603695 155.859301 
L 172.489286 155.421781 
L 174.282227 155.421781 
L 174.166509 154.984262 
L 181.165505 154.984262 
L 181.044084 154.546742 
L 182.751963 154.546742 
L 182.629412 154.109222 
L 183.476755 154.109222 
L 183.108716 152.796663 
L 190.949495 152.796663 
L 190.821188 152.359143 
L 192.428237 152.359143 
L 192.298997 151.921623 
L 195.075 151.921623 
L 194.943978 151.484104 
L 196.509901 151.484104 
L 196.378022 151.046584 
L 199.848966 151.046584 
L 199.714891 150.609064 
L 200.096091 150.609064 
L 199.962039 150.171545 
L 200.721429 150.171545 
L 200.453132 149.296505 
L 211.801881 149.296505 
L 211.660647 148.858985 
L 220.285758 148.858985 
L 219.993807 147.983946 
L 221.664545 147.983946 
L 221.371875 147.108906 
L 224.984746 147.108906 
L 224.541948 145.796347 
L 246.332839 145.796347 
L 246.17544 145.358828 
L 252.803717 145.358828 
L 252.644022 144.921308 
L 253.988278 144.921308 
L 253.828378 144.483788 
L 262.906114 144.483788 
L 262.743455 144.046268 
L 263.745391 144.046268 
L 263.582711 143.608749 
L 265.318912 143.608749 
L 265.155997 143.171229 
L 267.357021 143.171229 
L 267.193755 142.733709 
L 269.599237 142.733709 
L 269.435593 142.296189 
L 276.864356 142.296189 
L 276.699176 141.85867 
L 280.92638 141.85867 
L 280.760584 141.42115 
L 283.57801 141.42115 
L 283.411949 140.98363 
L 289.897887 140.98363 
L 289.73104 140.54611 
L 297.648218 140.54611 
L 297.480682 140.108591 
L 303.293338 140.108591 
L 303.125592 139.671071 
L 304.763409 139.671071 
L 304.595815 139.233551 
L 305.854711 139.233551 
L 305.687299 138.796032 
L 313.146497 138.796032 
L 312.979137 138.358512 
L 314.483275 138.358512 
L 314.316152 137.920992 
L 319.354639 137.920992 
L 319.187843 137.483472 
L 320.138372 137.483472 
L 319.971839 137.045953 
L 326.56255 137.045953 
L 326.396616 136.608433 
L 326.84245 136.608433 
L 326.67677 136.170913 
L 327.268515 136.170913 
L 327.1031 135.733393 
L 329.43936 135.733393 
L 329.274364 135.295874 
L 342.7125 135.295874 
L 342.549479 134.858354 
L 343.816981 134.858354 
L 343.65438 134.420834 
L 346.389796 134.420834 
L 346.227894 133.983315 
L 350.08093 133.983315 
L 349.92 133.545795 
L 350.038095 133.545795 
L 371.537008 133.545795 
L 371.382214 133.108275 
L 371.476298 133.108275 
L 381.591539 133.108275 
L 381.440653 132.670755 
L 381.52437 132.670755 
L 383.017246 132.670755 
L 382.86714 132.233236 
L 382.949339 132.233236 
L 388.586708 132.233236 
L 388.439149 131.795716 
L 388.515879 131.795716 
L 390.035393 131.795716 
L 389.888676 131.358196 
L 389.963938 131.358196 
L 392.772656 131.358196 
L 392.627377 130.920676 
L 392.7 130.920676 
L 411.896491 130.920676 
L 411.76125 130.483157 
L 411.873288 130.483157 
L 416.525818 130.483157 
L 416.39346 130.045637 
L 416.498016 130.045637 
L 436.161753 130.045637 
L 436.042383 129.608117 
L 436.156532 129.608117 
" style="fill:none;stroke:#1f77b4;stroke-linecap:square;stroke-width:2;"/>
   </g>
   <g id="line2d_46">
    <path clip-path="url(#p60c912699a)" d="M 76.5 448.12248 
L 76.5 439.372086 
L 98.059091 439.372086 
L 95.472 438.059526 
L 93.439286 436.746967 
L 91.8 435.434408 
L 90.051429 433.684329 
L 88.661538 431.93425 
L 87.530233 430.184171 
L 86.38125 427.996573 
L 85.283333 425.371454 
L 84.821053 424.058895 
L 92.855172 424.058895 
L 92.577966 423.621375 
L 100.215 423.621375 
L 99.45 422.746336 
L 106.614286 422.746336 
L 105.687692 421.871297 
L 112.431818 421.871297 
L 111.375 420.996257 
L 117.743478 420.996257 
L 117.154286 420.558737 
L 123.261972 420.558737 
L 120.768 418.808658 
L 126.426316 418.808658 
L 125.146154 417.933619 
L 140.911111 417.933619 
L 138.610714 416.62106 
L 157.346591 416.62106 
L 156.438202 416.18354 
L 177.414894 416.18354 
L 173.295918 414.433461 
L 184.508911 414.433461 
L 183.45 413.995941 
L 190.514423 413.995941 
L 188.363208 413.120902 
L 191.750467 413.120902 
L 190.683333 412.683382 
L 193.987156 412.683382 
L 192.919091 412.245862 
L 196.143243 412.245862 
L 192.994737 410.933303 
L 199.163793 410.933303 
L 198.115385 410.495784 
L 218.025 410.495784 
L 216.8928 410.058264 
L 224.71875 410.058264 
L 223.569767 409.620744 
L 231.006818 409.620744 
L 228.700746 408.745705 
L 242.505 408.745705 
L 241.32766 408.308185 
L 251.926027 408.308185 
L 250.732653 407.870665 
L 254.760403 407.870665 
L 252.399338 406.995626 
L 256.3 406.995626 
L 255.132468 406.558106 
L 258.923077 406.558106 
L 257.761146 406.120586 
L 261.44717 406.120586 
L 255.808537 403.932988 
L 257.596364 403.932988 
L 256.505422 403.495468 
L 261.729586 403.495468 
L 260.64 403.057948 
L 268.930286 403.057948 
L 267.836932 402.620428 
L 271.016292 402.620428 
L 269.929609 402.182909 
L 277.561957 402.182909 
L 276.475135 401.745389 
L 285.09267 401.745389 
L 284.00625 401.307869 
L 288.110769 401.307869 
L 287.031122 400.870349 
L 296.126601 400.870349 
L 295.05 400.43283 
L 298.756522 400.43283 
L 297.687981 399.99531 
L 303.629577 399.99531 
L 302.568224 399.55779 
L 303.722791 399.55779 
L 302.670833 399.120271 
L 308.284615 399.120271 
L 306.20583 398.245231 
L 308.38 398.245231 
L 306.337004 397.370192 
L 315.659746 397.370192 
L 314.650633 396.932672 
L 315.642857 396.932672 
L 314.642259 396.495152 
L 319.481557 396.495152 
L 318.489796 396.057632 
L 320.37085 396.057632 
L 319.3875 395.620113 
L 323.060714 395.620113 
L 322.086166 395.182593 
L 324.766406 395.182593 
L 323.800389 394.745073 
L 334.73 394.745073 
L 333.777122 394.307554 
L 336.153285 394.307554 
L 335.209091 393.870034 
L 336.765704 393.870034 
L 335.829496 393.432514 
L 337.365 393.432514 
L 336.436655 392.994994 
L 338.701056 392.994994 
L 337.781053 392.557475 
L 340.729412 392.557475 
L 339.818276 392.119955 
L 346.168896 392.119955 
L 345.27 391.682435 
L 358.715888 391.682435 
L 357.839441 391.244915 
L 358.436842 391.244915 
L 357.566667 390.807396 
L 362.789189 390.807396 
L 361.932036 390.369876 
L 362.495821 390.369876 
L 361.644643 389.932356 
L 366.57913 389.932356 
L 365.740751 389.494837 
L 367.331519 389.494837 
L 366.500571 389.057317 
L 373.589011 389.057317 
L 372.775068 388.619797 
L 373.745232 388.619797 
L 372.9375 388.182277 
L 375.790909 388.182277 
L 374.9928 387.744758 
L 379.559221 387.744758 
L 378.774093 387.307238 
L 379.660825 387.307238 
L 378.881491 386.869718 
L 379.76087 386.869718 
L 378.987245 386.432198 
L 381.577387 386.432198 
L 380.812782 385.994679 
L 386.176456 385.994679 
L 385.426634 385.557159 
L 390.473239 385.557159 
L 389.737939 385.119639 
L 397.287723 385.119639 
L 396.573274 384.68212 
L 397.935099 384.68212 
L 396.522198 383.80708 
L 397.197374 383.80708 
L 395.8 382.932041 
L 400.387738 382.932041 
L 398.346429 381.619481 
L 401.175464 381.619481 
L 400.507407 381.181962 
L 400.816016 381.181962 
L 400.151434 380.744442 
L 401.071894 380.744442 
L 400.412195 380.306922 
L 403.113772 380.306922 
L 402.463147 379.869402 
L 407.044981 379.869402 
L 406.408092 379.431883 
L 406.96238 379.431883 
L 406.32931 378.994363 
L 408.241021 378.994363 
L 407.615094 378.556843 
L 412.570492 378.556843 
L 411.959455 378.119324 
L 414.43875 378.119324 
L 413.836364 377.681804 
L 415.285714 377.681804 
L 414.689261 377.244284 
L 415.404378 377.244284 
L 413.633101 375.931725 
L 415.981849 375.931725 
L 415.401538 375.494205 
L 416.776142 375.494205 
L 416.201351 375.056685 
L 416.88 375.056685 
L 415.172408 373.744126 
L 415.398831 373.744126 
L 414.834 373.306607 
L 417.717455 373.306607 
L 417.161726 372.869087 
L 418.455 372.869087 
L 417.904348 372.431567 
L 418.330979 372.431567 
L 417.783173 371.994047 
L 417.996 371.994047 
L 417.450479 371.556528 
L 419.340472 371.556528 
L 418.801415 371.119008 
L 422.237825 371.119008 
L 421.709174 370.681488 
L 423.653313 370.681488 
L 423.131278 370.243968 
L 424.272876 370.243968 
L 423.755357 369.806449 
L 424.507101 369.806449 
L 423.993058 369.368929 
L 426.562229 369.368929 
L 426.056358 368.931409 
L 428.530028 368.931409 
L 428.032107 368.49389 
L 430.081085 368.49389 
L 429.59 368.05637 
L 432.385889 368.05637 
L 431.903659 367.61885 
L 432.064547 367.61885 
L 432.8625 367.61885 
L 432.384161 367.18133 
L 432.542895 367.18133 
L 434.261295 367.18133 
L 433.789314 366.743811 
L 433.943478 366.743811 
L 435.612857 366.743811 
L 435.147082 366.306291 
L 435.296891 366.306291 
L 436.773913 366.306291 
L 436.313793 365.868771 
L 436.459821 365.868771 
L 437.184411 365.868771 
L 436.727848 365.431251 
L 436.872061 365.431251 
L 437.871429 365.431251 
L 437.419149 364.993732 
L 437.560875 364.993732 
L 437.702247 364.993732 
L 437.25187 364.556212 
L 437.393275 364.556212 
L 437.95539 364.556212 
L 437.508045 364.118692 
L 437.648084 364.118692 
L 438.34312 364.118692 
L 437.594982 363.243653 
L 438.556675 363.243653 
L 438.117818 362.806133 
L 438.254237 362.806133 
L 439.2 362.806133 
L 438.765108 362.368613 
L 438.899281 362.368613 
L 439.96121 362.368613 
L 439.232979 361.493574 
L 439.496108 361.493574 
L 439.068551 361.056054 
L 439.2 361.056054 
L 440.369267 361.056054 
L 439.946163 360.618534 
L 440.074913 360.618534 
L 440.967857 360.618534 
L 440.548446 360.181015 
L 440.675172 360.181015 
L 442.296489 360.181015 
L 441.882692 359.743495 
L 442.005763 359.743495 
L 442.373311 359.743495 
L 441.961755 359.305975 
L 442.084045 359.305975 
L 443.172414 359.305975 
L 442.765 358.868455 
L 442.884906 358.868455 
L 443.598787 358.868455 
L 443.194493 358.430936 
L 443.312871 358.430936 
L 443.78379 358.430936 
L 443.09869 357.555896 
L 443.915493 357.555896 
L 443.517857 357.118377 
L 443.633838 357.118377 
L 443.749568 357.118377 
L 443.353398 356.680857 
L 443.469181 356.680857 
L 445.4 356.680857 
L 445.010042 356.243337 
L 445.121753 356.243337 
L 447.41436 356.243337 
L 447.031579 355.805817 
L 447.138557 355.805817 
L 447.77582 355.805817 
L 447.395803 355.368298 
L 447.501534 355.368298 
L 449.266432 355.368298 
L 448.892169 354.930778 
L 448.994383 354.930778 
L 449.401199 354.930778 
L 449.029042 354.493258 
L 449.130508 354.493258 
L 453.310038 354.493258 
L 452.950143 354.055738 
L 453.043511 354.055738 
L 454.241282 354.055738 
L 453.885593 353.618219 
L 453.976764 353.618219 
L 454.339738 353.618219 
L 453.985955 353.180699 
L 454.07652 353.180699 
L 454.705762 353.180699 
L 454.354596 352.743179 
L 454.444063 352.743179 
L 454.800277 352.743179 
L 454.102306 351.86814 
L 454.191429 351.86814 
L 455.16104 351.86814 
L 454.815861 351.43062 
L 454.903279 351.43062 
L 455.854463 351.43062 
L 455.512703 350.9931 
L 455.59847 350.9931 
L 456.025 350.9931 
L 455.685228 350.555581 
L 455.770304 350.555581 
L 457.193656 350.555581 
L 456.858539 350.118061 
L 456.941161 350.118061 
L 457.515472 350.118061 
L 457.182707 349.680541 
L 457.264398 349.680541 
L 457.751563 349.680541 
L 457.420902 349.243021 
L 457.50182 349.243021 
L 457.824093 349.243021 
L 457.495082 348.805502 
L 457.575517 348.805502 
L 457.975622 348.805502 
L 457.648456 348.367982 
L 457.728278 348.367982 
L 459.142025 348.367982 
L 458.819393 347.930462 
L 458.896883 347.930462 
L 459.282383 347.930462 
L 458.641206 347.055423 
L 458.718326 347.055423 
L 459.254576 347.055423 
L 458.936409 346.617903 
L 459.012708 346.617903 
L 459.618564 346.617903 
L 459.302721 346.180383 
L 459.378089 346.180383 
L 459.753076 346.180383 
L 459.438934 345.742864 
L 459.513759 345.742864 
L 461.345345 345.742864 
L 461.036728 345.305344 
L 461.108654 345.305344 
L 461.750835 345.305344 
L 461.444595 344.867824 
L 461.515568 344.867824 
L 463.322101 344.867824 
L 462.720979 343.992785 
L 462.789363 343.992785 
L 462.925814 343.992785 
L 462.626491 343.555265 
L 462.694737 343.555265 
L 465.018538 343.555265 
L 464.725979 343.117745 
L 464.855414 343.117745 
L 466.25392 343.117745 
L 465.965854 342.680225 
L 466.09107 342.680225 
L 467.504935 342.680225 
L 466.655539 341.367666 
L 466.777223 341.367666 
L 467.55967 341.367666 
L 467.279742 340.930147 
L 467.399142 340.930147 
L 467.636921 340.930147 
L 467.358333 340.492627 
L 467.477027 340.492627 
L 467.831091 340.492627 
L 467.55414 340.055107 
L 467.671802 340.055107 
L 468.313043 340.055107 
L 467.822393 339.180068 
L 467.88042 339.180068 
L 468.570458 339.180068 
L 468.298753 338.742548 
L 468.412941 338.742548 
L 468.866552 338.742548 
L 468.596699 338.305028 
L 468.709615 338.305028 
L 470.040811 338.305028 
L 469.564531 337.429989 
L 469.619272 337.429989 
L 470.592144 337.429989 
L 470.32994 336.992469 
L 470.436877 336.992469 
L 470.808929 336.992469 
L 470.341188 336.11743 
L 470.394261 336.11743 
L 472.056395 336.11743 
L 471.801033 335.67991 
L 471.902901 335.67991 
L 472.105852 335.67991 
L 471.851607 335.24239 
L 471.952953 335.24239 
L 472.754447 335.24239 
L 472.251586 334.367351 
L 472.351141 334.367351 
L 472.697603 334.367351 
L 472.447793 333.929831 
L 472.546474 333.929831 
L 474.092222 333.929831 
L 473.697044 333.054791 
L 473.980859 333.054791 
L 473.737155 332.617272 
L 473.831537 332.617272 
L 474.854683 332.617272 
L 474.61413 332.179752 
L 474.706031 332.179752 
L 475.071429 332.179752 
L 474.832334 331.742232 
L 474.923367 331.742232 
L 475.954787 331.742232 
L 475.527611 330.867193 
L 475.571993 330.867193 
L 475.837192 330.867193 
L 475.368486 329.992153 
L 475.456917 329.992153 
L 475.939604 329.992153 
L 475.707101 329.554634 
L 475.794419 329.554634 
L 477.12233 329.554634 
L 476.66526 328.679594 
L 476.749744 328.679594 
L 478.116443 328.679594 
L 477.891951 328.242074 
L 478.014007 328.242074 
L 478.095151 328.242074 
L 477.871421 327.804555 
L 477.993103 327.804555 
L 478.475801 327.804555 
L 478.253838 327.367035 
L 478.373815 327.367035 
L 479.007049 327.367035 
L 478.78722 326.929515 
L 478.905016 326.929515 
L 478.944196 326.929515 
L 478.725 326.491995 
L 478.842577 326.491995 
L 479.15425 326.491995 
L 478.936364 326.054476 
L 479.052836 326.054476 
L 479.705782 326.054476 
L 479.490048 325.616956 
L 479.604327 325.616956 
L 479.642338 325.616956 
L 479.427215 325.179436 
L 479.541289 325.179436 
L 479.730606 325.179436 
L 479.516463 324.741917 
L 479.629852 324.741917 
L 479.893027 324.741917 
L 479.580032 323.866877 
L 481.157805 323.866877 
L 480.949434 323.429357 
L 481.057172 323.429357 
L 481.907263 323.429357 
L 481.701472 322.991838 
L 481.806538 322.991838 
L 481.876405 322.991838 
L 481.571364 322.116798 
L 482.229365 322.116798 
L 482.0265 321.679278 
L 482.129506 321.679278 
L 482.572321 321.679278 
L 482.370997 321.241759 
L 482.472624 321.241759 
L 482.506432 321.241759 
L 482.305638 320.804239 
L 482.407111 320.804239 
L 482.541942 320.804239 
L 482.341921 320.366719 
L 482.442941 320.366719 
L 483.338883 320.366719 
L 483.141485 319.9292 
L 483.239826 319.9292 
L 483.500676 319.9292 
L 483.304342 319.49168 
L 483.401879 319.49168 
L 483.466747 319.49168 
L 483.270996 319.05416 
L 483.3683 319.05416 
L 483.594256 319.05416 
L 483.399474 318.61664 
L 483.496082 318.61664 
L 483.879762 318.61664 
L 483.525 317.741601 
L 483.588768 317.741601 
L 484.0632 317.741601 
L 483.871496 317.304081 
L 483.965806 317.304081 
L 485.258775 317.304081 
L 484.912879 316.429042 
L 484.973438 316.429042 
L 486.015468 316.429042 
L 485.830335 315.991522 
L 485.947608 315.991522 
L 486.006087 315.991522 
L 485.821541 315.554002 
L 485.938462 315.554002 
L 486.915552 315.554002 
L 486.665753 314.678963 
L 487.587544 314.678963 
L 487.408576 314.241443 
L 487.518774 314.241443 
L 487.928627 314.241443 
L 487.751057 313.803923 
L 487.859716 313.803923 
L 488.210283 313.803923 
L 488.033961 313.366404 
L 488.1413 313.366404 
L 488.751439 313.366404 
L 488.576978 312.928884 
L 488.682129 312.928884 
L 488.865291 312.928884 
L 488.691663 312.491364 
L 488.796091 312.491364 
L 488.900168 312.491364 
L 488.727181 312.053844 
L 488.831156 312.053844 
L 488.908908 312.053844 
L 488.736497 311.616325 
L 488.840109 311.616325 
L 488.891785 311.616325 
L 488.599958 310.741285 
L 488.651705 310.741285 
L 488.832144 310.741285 
L 488.661194 310.303766 
L 488.764073 310.303766 
L 489.898415 310.303766 
L 489.562728 309.428726 
L 489.662019 309.428726 
L 489.859636 309.428726 
L 489.69269 308.991206 
L 489.79125 308.991206 
L 490.902257 308.991206 
L 490.738267 308.553687 
L 490.856872 308.553687 
L 491.396477 308.553687 
L 491.234155 308.116167 
L 491.350449 308.116167 
L 491.535578 308.116167 
L 491.374086 307.678647 
L 491.489476 307.678647 
L 491.673171 307.678647 
L 491.5125 307.241127 
L 491.626999 307.241127 
L 491.877346 307.241127 
L 491.717647 306.803608 
L 491.831005 306.803608 
L 493.22293 306.803608 
L 493.066854 306.366088 
L 493.174766 306.366088 
L 493.602412 306.366088 
L 493.4477 305.928568 
L 493.553869 305.928568 
L 493.596226 305.928568 
L 493.393948 305.053529 
L 493.562914 305.053529 
L 493.409526 304.616009 
L 493.514868 304.616009 
L 493.682613 304.616009 
L 493.529967 304.178489 
L 493.634551 304.178489 
L 494.376424 304.178489 
L 494.225838 303.74097 
L 494.32759 303.74097 
L 495.009915 303.74097 
L 494.861243 303.30345 
L 494.960426 303.30345 
L 495.644974 303.30345 
L 495.498214 302.86593 
L 495.614151 302.86593 
L 496.37481 302.86593 
L 496.230176 302.42841 
L 496.342729 302.42841 
L 498.274735 302.42841 
L 498.274735 302.42841 
" style="fill:none;stroke:#ff7f0e;stroke-linecap:square;stroke-width:2;"/>
   </g>
   <g id="line2d_47">
    <path clip-path="url(#p60c912699a)" d="M 76.5 448.12248 
L 76.5 381.181962 
L 79.56 381.181962 
L 79.022872 366.743811 
L 78.769378 357.555896 
L 81.017143 357.555896 
L 80.811818 353.180699 
L 82.938462 353.180699 
L 82.146429 339.617587 
L 81.993822 336.554949 
L 83.796923 336.554949 
L 83.275714 327.804555 
L 84.939502 327.804555 
L 84.821053 326.054476 
L 86.45035 326.054476 
L 86.313103 324.304397 
L 87.909278 324.304397 
L 87.175563 315.554002 
L 88.661538 315.554002 
L 88.394671 312.491364 
L 89.839687 312.491364 
L 89.514329 308.991206 
L 90.916413 308.991206 
L 90.743243 307.241127 
L 92.120659 307.241127 
L 92.027679 306.366088 
L 93.389021 306.366088 
L 93.093586 303.74097 
L 98.369741 303.74097 
L 97.521607 297.615693 
L 98.773757 297.615693 
L 98.590685 296.303134 
L 99.82623 296.303134 
L 99.51186 294.115536 
L 101.931635 294.115536 
L 101.863636 293.678016 
L 103.0608 293.678016 
L 102.780475 291.927937 
L 103.959474 291.927937 
L 103.744386 290.615378 
L 104.908594 290.615378 
L 104.834805 290.177858 
L 105.990155 290.177858 
L 105.687692 288.427779 
L 106.826087 288.427779 
L 106.595178 287.11522 
L 108.838636 287.11522 
L 108.51525 285.365141 
L 109.618204 285.365141 
L 109.210345 283.177542 
L 113.518537 283.177542 
L 113.428467 282.740023 
L 114.490049 282.740023 
L 114.215422 281.427463 
L 116.309353 281.427463 
L 116.119332 280.552424 
L 117.154286 280.552424 
L 116.865957 279.239865 
L 117.889387 279.239865 
L 117.69507 278.364825 
L 118.709368 278.364825 
L 118.610748 277.927306 
L 120.62093 277.927306 
L 120.416667 277.052266 
L 121.410624 277.052266 
L 121.101606 275.739707 
L 122.084897 275.739707 
L 121.877221 274.864667 
L 122.852045 274.864667 
L 122.642308 273.989628 
L 123.608804 273.989628 
L 123.502703 273.552108 
L 128.261024 273.552108 
L 127.803974 271.802029 
L 130.586842 271.802029 
L 130.46849 271.36451 
L 135.017532 271.36451 
L 134.765302 270.48947 
L 135.66 270.48947 
L 135.533047 270.05195 
L 137.307692 270.05195 
L 137.048936 269.176911 
L 138.802119 269.176911 
L 138.670402 268.739391 
L 139.539873 268.739391 
L 139.275 267.864352 
L 142.704375 267.864352 
L 142.566736 267.426832 
L 143.413693 267.426832 
L 143.13719 266.551793 
L 144.814815 266.551793 
L 144.674538 266.114273 
L 150.429352 266.114273 
L 150.28 265.676753 
L 151.0875 265.676753 
L 150.787952 264.801714 
L 152.388 264.801714 
L 152.236527 264.364194 
L 153.821272 264.364194 
L 153.51505 263.489154 
L 154.300198 263.489154 
L 153.993898 262.614115 
L 154.773477 262.614115 
L 154.62 262.176595 
L 155.395303 262.176595 
L 155.241211 261.739076 
L 157.545437 261.739076 
L 157.388372 261.301556 
L 161.163916 261.301556 
L 161.001724 260.864036 
L 164.7 260.864036 
L 164.366541 259.988997 
L 168.700374 259.988997 
L 168.528358 259.551477 
L 173.456354 259.551477 
L 173.278125 259.113957 
L 173.970826 259.113957 
L 173.614442 258.238918 
L 177.706872 258.238918 
L 177.342162 257.363878 
L 179.35 257.363878 
L 179.166011 256.926359 
L 183.762191 256.926359 
L 183.573016 256.488839 
L 184.219542 256.488839 
L 183.466259 254.73876 
L 186.017188 254.73876 
L 185.827383 254.30124 
L 190.202055 254.30124 
L 189.428571 252.551161 
L 191.87027 252.551161 
L 191.095973 250.801082 
L 192.298997 250.801082 
L 191.913 249.926043 
L 193.105316 249.926043 
L 192.91194 249.488523 
L 195.855099 249.488523 
L 195.659113 249.051003 
L 196.241311 249.051003 
L 196.045336 248.613484 
L 200.063592 248.613484 
L 199.466667 247.300924 
L 200.594543 247.300924 
L 200.395673 246.863405 
L 202.627548 246.863405 
L 202.427027 246.425885 
L 203.53122 246.425885 
L 203.330222 245.988365 
L 203.879147 245.988365 
L 203.477953 245.113326 
L 205.652113 245.113326 
L 205.249142 244.238286 
L 206.32395 244.238286 
L 206.12236 243.800767 
L 207.189474 243.800767 
L 206.786111 242.925727 
L 207.316179 242.925727 
L 207.114923 242.488207 
L 208.693874 242.488207 
L 208.491743 242.050688 
L 209.014351 242.050688 
L 208.610959 241.175648 
L 209.131003 241.175648 
L 208.929742 240.738129 
L 211.504066 240.738129 
L 210.896852 239.425569 
L 211.913004 239.425569 
L 211.710896 238.98805 
L 212.720089 238.98805 
L 212.517682 238.55053 
L 213.019585 238.55053 
L 212.817333 238.11301 
L 215.795154 238.11301 
L 215.590909 237.67549 
L 216.571053 237.67549 
L 216.366569 237.237971 
L 218.308128 237.237971 
L 218.102609 236.800451 
L 219.064162 236.800451 
L 218.858442 236.362931 
L 219.336744 236.362931 
L 219.131223 235.925411 
L 221.500286 235.925411 
L 220.67642 234.175333 
L 221.144681 234.175333 
L 220.735502 233.300293 
L 221.201695 233.300293 
L 220.997602 232.862773 
L 223.307143 232.862773 
L 222.692887 231.550214 
L 226.313379 231.550214 
L 226.107025 231.112694 
L 228.768443 231.112694 
L 228.560709 230.675175 
L 235.022727 230.675175 
L 234.811081 230.237655 
L 237.322252 230.237655 
L 236.897358 229.362616 
L 237.724506 229.362616 
L 237.512368 228.925096 
L 239.152618 228.925096 
L 238.94 228.487576 
L 241.366926 228.487576 
L 240.940362 227.612537 
L 244.897701 227.612537 
L 244.468662 226.737497 
L 245.247141 226.737497 
L 245.032995 226.299977 
L 245.420532 226.299977 
L 245.206709 225.862458 
L 245.593047 225.862458 
L 245.379545 225.424938 
L 248.43375 225.424938 
L 247.791407 224.112379 
L 250.41 224.112379 
L 250.195561 223.674859 
L 254.578615 223.674859 
L 254.3625 223.237339 
L 256.150422 223.237339 
L 255.933976 222.79982 
L 257.348201 222.79982 
L 256.91555 221.92478 
L 259.009739 221.92478 
L 258.577251 221.049741 
L 261.999063 221.049741 
L 261.782105 220.612221 
L 267.416628 220.612221 
L 267.197938 220.174701 
L 274.477902 220.174701 
L 274.257191 219.737182 
L 274.872414 219.737182 
L 274.652 219.299662 
L 275.264302 219.299662 
L 275.044186 218.862142 
L 275.653591 218.862142 
L 275.433775 218.424622 
L 276.342574 218.424622 
L 276.122967 217.987103 
L 277.325055 217.987103 
L 277.105574 217.549583 
L 278.296844 217.549583 
L 278.0775 217.112063 
L 279.8446 217.112063 
L 279.625243 216.674543 
L 279.917457 216.674543 
L 279.698493 216.237024 
L 286.248214 216.237024 
L 286.028122 215.799504 
L 291.736756 215.799504 
L 291.516 215.361984 
L 292.046776 215.361984 
L 291.82638 214.924464 
L 293.666802 214.924464 
L 293.446552 214.486945 
L 297.555988 214.486945 
L 297.335593 214.049425 
L 297.588048 214.049425 
L 297.36806 213.611905 
L 299.617456 213.611905 
L 299.397635 213.174386 
L 304.255652 213.174386 
L 303.816393 212.299346 
L 305.001536 212.299346 
L 304.782454 211.861826 
L 311.43778 211.861826 
L 311.218826 211.424307 
L 314.955413 211.424307 
L 314.736847 210.986787 
L 316.455232 210.986787 
L 316.237091 210.549267 
L 322.262179 210.549267 
L 322.04469 210.111747 
L 326.413281 210.111747 
L 326.196531 209.674228 
L 328.700686 209.674228 
L 328.484576 209.236708 
L 329.43302 209.236708 
L 329.217391 208.799188 
L 329.406133 208.799188 
L 329.190894 208.361669 
L 331.984286 208.361669 
L 331.769773 207.924149 
L 332.867669 207.924149 
L 332.653673 207.486629 
L 333.560349 207.486629 
L 333.346844 207.049109 
L 336.022642 207.049109 
L 335.809918 206.61159 
L 339.618116 206.61159 
L 339.406436 206.17407 
L 340.59024 206.17407 
L 340.168371 205.29903 
L 341.671689 205.29903 
L 341.461569 204.861511 
L 342.122986 204.861511 
L 341.913339 204.423991 
L 346.5875 204.423991 
L 346.171341 203.548952 
L 348.663014 203.548952 
L 348.456046 203.111432 
L 351.785565 203.111432 
L 351.579821 202.673912 
L 353.78847 202.673912 
L 353.583678 202.236392 
L 357.159028 202.236392 
L 356.955652 201.798873 
L 357.236179 201.798873 
L 357.033189 201.361353 
L 357.452597 201.361353 
L 357.250036 200.923833 
L 358.772961 200.923833 
L 358.571194 200.486313 
L 358.84561 200.486313 
L 358.644223 200.048794 
L 360.140127 200.048794 
L 359.939533 199.611274 
L 362.863579 199.611274 
L 362.664301 199.173754 
L 364.093508 199.173754 
L 363.895031 198.736234 
L 365.303219 198.736234 
L 365.105544 198.298715 
L 370.294611 198.298715 
L 370.099269 197.861195 
L 370.219336 197.861195 
L 373.517613 197.861195 
L 373.32399 197.423675 
L 373.439609 197.423675 
L 377.944 197.423675 
L 377.752728 196.986156 
L 377.86246 196.986156 
L 380.454903 196.986156 
L 380.182107 196.111116 
L 381.134098 196.111116 
L 380.945353 195.673596 
L 381.050526 195.673596 
L 381.260482 195.673596 
L 381.072126 195.236077 
L 381.176961 195.236077 
L 386.84794 195.236077 
L 386.662768 194.798557 
L 386.760644 194.798557 
L 388.502655 194.798557 
L 388.318691 194.361037 
L 388.414437 194.361037 
L 388.510071 194.361037 
L 388.143 193.485998 
L 388.238624 193.485998 
L 388.429536 193.485998 
L 388.246479 193.048478 
L 388.341818 193.048478 
L 388.816842 193.048478 
L 388.451986 192.173439 
L 388.54676 192.173439 
L 391.704522 192.173439 
L 391.524199 191.735919 
L 391.615266 191.735919 
L 392.159487 191.735919 
L 391.979727 191.298399 
L 392.07012 191.298399 
L 394.909335 191.298399 
L 394.731453 190.860879 
L 394.818593 190.860879 
L 397.892118 190.860879 
L 397.716302 190.42336 
L 397.8 190.42336 
L 401.712627 190.42336 
L 401.539457 189.98584 
L 401.618893 189.98584 
L 402.172587 189.98584 
L 402 189.54832 
L 402.078814 189.54832 
L 402.23619 189.54832 
L 402.063934 189.1108 
L 402.142548 189.1108 
L 404.918309 189.1108 
L 404.748056 188.673281 
L 404.823731 188.673281 
L 410.703431 188.673281 
L 410.537326 188.235761 
L 410.607004 188.235761 
L 413.539056 188.235761 
L 413.375207 187.798241 
L 413.441983 187.798241 
L 415.674379 187.798241 
L 415.512327 187.360722 
L 415.576934 187.360722 
L 421.916477 187.360722 
L 421.759327 186.923202 
L 421.876636 186.923202 
L 422.34375 186.923202 
L 422.187189 186.485682 
L 422.303528 186.485682 
L 423.283977 186.485682 
L 423.128398 186.048162 
L 423.242851 186.048162 
L 429.132621 186.048162 
L 428.733035 184.735603 
L 428.785111 184.735603 
L 429.458082 184.735603 
L 429.308397 184.298083 
L 429.411356 184.298083 
L 429.770342 184.298083 
L 429.621157 183.860564 
L 429.723418 183.860564 
L 432.955441 183.860564 
L 432.809113 183.423044 
L 432.905906 183.423044 
L 440.081279 183.423044 
L 439.941278 182.985524 
L 440.026587 182.985524 
L 440.239286 182.985524 
L 440.099655 182.548005 
L 440.18458 182.548005 
L 443.836202 182.548005 
L 443.7 182.110485 
L 443.779363 182.110485 
L 452.785511 182.110485 
L 452.65787 181.672965 
L 452.757641 181.672965 
L 454.870623 181.672965 
L 454.870623 181.672965 
" style="fill:none;stroke:#2ca02c;stroke-linecap:square;stroke-width:2;"/>
   </g>
   <g id="patch_3">
    <path d="M 76.5 448.56 
L 76.5 60.48 
" style="fill:none;stroke:#000000;stroke-linecap:square;stroke-linejoin:miter;stroke-width:0.8;"/>
   </g>
   <g id="patch_4">
    <path d="M 550.8 448.56 
L 550.8 60.48 
" style="fill:none;stroke:#000000;stroke-linecap:square;stroke-linejoin:miter;stroke-width:0.8;"/>
   </g>
   <g id="patch_5">
    <path d="M 76.5 448.56 
L 550.8 448.56 
" style="fill:none;stroke:#000000;stroke-linecap:square;stroke-linejoin:miter;stroke-width:0.8;"/>
   </g>
   <g id="patch_6">
    <path d="M 76.5 60.48 
L 550.8 60.48 
" style="fill:none;stroke:#000000;stroke-linecap:square;stroke-linejoin:miter;stroke-width:0.8;"/>
   </g>
   <g id="text_25">
    <!-- bark: img1-img2 -->
    <defs>
     <path d="M 48.6875 27.296875 
Q 48.6875 37.203125 44.609375 42.84375 
Q 40.53125 48.484375 33.40625 48.484375 
Q 26.265625 48.484375 22.1875 42.84375 
Q 18.109375 37.203125 18.109375 27.296875 
Q 18.109375 17.390625 22.1875 11.75 
Q 26.265625 6.109375 33.40625 6.109375 
Q 40.53125 6.109375 44.609375 11.75 
Q 48.6875 17.390625 48.6875 27.296875 
z
M 18.109375 46.390625 
Q 20.953125 51.265625 25.265625 53.625 
Q 29.59375 56 35.59375 56 
Q 45.5625 56 51.78125 48.09375 
Q 58.015625 40.1875 58.015625 27.296875 
Q 58.015625 14.40625 51.78125 6.484375 
Q 45.5625 -1.421875 35.59375 -1.421875 
Q 29.59375 -1.421875 25.265625 0.953125 
Q 20.953125 3.328125 18.109375 8.203125 
L 18.109375 0 
L 9.078125 0 
L 9.078125 75.984375 
L 18.109375 75.984375 
z
" id="DejaVuSans-98"/>
     <path d="M 34.28125 27.484375 
Q 23.390625 27.484375 19.1875 25 
Q 14.984375 22.515625 14.984375 16.5 
Q 14.984375 11.71875 18.140625 8.90625 
Q 21.296875 6.109375 26.703125 6.109375 
Q 34.1875 6.109375 38.703125 11.40625 
Q 43.21875 16.703125 43.21875 25.484375 
L 43.21875 27.484375 
z
M 52.203125 31.203125 
L 52.203125 0 
L 43.21875 0 
L 43.21875 8.296875 
Q 40.140625 3.328125 35.546875 0.953125 
Q 30.953125 -1.421875 24.3125 -1.421875 
Q 15.921875 -1.421875 10.953125 3.296875 
Q 6 8.015625 6 15.921875 
Q 6 25.140625 12.171875 29.828125 
Q 18.359375 34.515625 30.609375 34.515625 
L 43.21875 34.515625 
L 43.21875 35.40625 
Q 43.21875 41.609375 39.140625 45 
Q 35.0625 48.390625 27.6875 48.390625 
Q 23 48.390625 18.546875 47.265625 
Q 14.109375 46.140625 10.015625 43.890625 
L 10.015625 52.203125 
Q 14.9375 54.109375 19.578125 55.046875 
Q 24.21875 56 28.609375 56 
Q 40.484375 56 46.34375 49.84375 
Q 52.203125 43.703125 52.203125 31.203125 
z
" id="DejaVuSans-97"/>
     <path d="M 9.078125 75.984375 
L 18.109375 75.984375 
L 18.109375 31.109375 
L 44.921875 54.6875 
L 56.390625 54.6875 
L 27.390625 29.109375 
L 57.625 0 
L 45.90625 0 
L 18.109375 26.703125 
L 18.109375 0 
L 9.078125 0 
z
" id="DejaVuSans-107"/>
     <path d="M 11.71875 12.40625 
L 22.015625 12.40625 
L 22.015625 0 
L 11.71875 0 
z
M 11.71875 51.703125 
L 22.015625 51.703125 
L 22.015625 39.3125 
L 11.71875 39.3125 
z
" id="DejaVuSans-58"/>
     <path id="DejaVuSans-32"/>
     <path d="M 52 44.1875 
Q 55.375 50.25 60.0625 53.125 
Q 64.75 56 71.09375 56 
Q 79.640625 56 84.28125 50.015625 
Q 88.921875 44.046875 88.921875 33.015625 
L 88.921875 0 
L 79.890625 0 
L 79.890625 32.71875 
Q 79.890625 40.578125 77.09375 44.375 
Q 74.3125 48.1875 68.609375 48.1875 
Q 61.625 48.1875 57.5625 43.546875 
Q 53.515625 38.921875 53.515625 30.90625 
L 53.515625 0 
L 44.484375 0 
L 44.484375 32.71875 
Q 44.484375 40.625 41.703125 44.40625 
Q 38.921875 48.1875 33.109375 48.1875 
Q 26.21875 48.1875 22.15625 43.53125 
Q 18.109375 38.875 18.109375 30.90625 
L 18.109375 0 
L 9.078125 0 
L 9.078125 54.6875 
L 18.109375 54.6875 
L 18.109375 46.1875 
Q 21.1875 51.21875 25.484375 53.609375 
Q 29.78125 56 35.6875 56 
Q 41.65625 56 45.828125 52.96875 
Q 50 49.953125 52 44.1875 
z
" id="DejaVuSans-109"/>
     <path d="M 45.40625 27.984375 
Q 45.40625 37.75 41.375 43.109375 
Q 37.359375 48.484375 30.078125 48.484375 
Q 22.859375 48.484375 18.828125 43.109375 
Q 14.796875 37.75 14.796875 27.984375 
Q 14.796875 18.265625 18.828125 12.890625 
Q 22.859375 7.515625 30.078125 7.515625 
Q 37.359375 7.515625 41.375 12.890625 
Q 45.40625 18.265625 45.40625 27.984375 
z
M 54.390625 6.78125 
Q 54.390625 -7.171875 48.1875 -13.984375 
Q 42 -20.796875 29.203125 -20.796875 
Q 24.46875 -20.796875 20.265625 -20.09375 
Q 16.0625 -19.390625 12.109375 -17.921875 
L 12.109375 -9.1875 
Q 16.0625 -11.328125 19.921875 -12.34375 
Q 23.78125 -13.375 27.78125 -13.375 
Q 36.625 -13.375 41.015625 -8.765625 
Q 45.40625 -4.15625 45.40625 5.171875 
L 45.40625 9.625 
Q 42.625 4.78125 38.28125 2.390625 
Q 33.9375 0 27.875 0 
Q 17.828125 0 11.671875 7.65625 
Q 5.515625 15.328125 5.515625 27.984375 
Q 5.515625 40.671875 11.671875 48.328125 
Q 17.828125 56 27.875 56 
Q 33.9375 56 38.28125 53.609375 
Q 42.625 51.21875 45.40625 46.390625 
L 45.40625 54.6875 
L 54.390625 54.6875 
z
" id="DejaVuSans-103"/>
    </defs>
    <g transform="translate(263.854688 41.042625)scale(0.12 -0.12)">
     <use xlink:href="#DejaVuSans-98"/>
     <use x="63.476562" xlink:href="#DejaVuSans-97"/>
     <use x="124.755859" xlink:href="#DejaVuSans-114"/>
     <use x="165.869141" xlink:href="#DejaVuSans-107"/>
     <use x="223.779297" xlink:href="#DejaVuSans-58"/>
     <use x="257.470703" xlink:href="#DejaVuSans-32"/>
     <use x="289.257812" xlink:href="#DejaVuSans-105"/>
     <use x="317.041016" xlink:href="#DejaVuSans-109"/>
     <use x="414.453125" xlink:href="#DejaVuSans-103"/>
     <use x="477.929688" xlink:href="#DejaVuSans-49"/>
     <use x="541.552734" xlink:href="#DejaVuSans-45"/>
     <use x="577.636719" xlink:href="#DejaVuSans-105"/>
     <use x="605.419922" xlink:href="#DejaVuSans-109"/>
     <use x="702.832031" xlink:href="#DejaVuSans-103"/>
     <use x="766.308594" xlink:href="#DejaVuSans-50"/>
    </g>
    <!-- NearestNeighbours -->
    <defs>
     <path d="M 9.8125 72.90625 
L 23.09375 72.90625 
L 55.421875 11.921875 
L 55.421875 72.90625 
L 64.984375 72.90625 
L 64.984375 0 
L 51.703125 0 
L 19.390625 60.984375 
L 19.390625 0 
L 9.8125 0 
z
" id="DejaVuSans-78"/>
     <path d="M 54.890625 33.015625 
L 54.890625 0 
L 45.90625 0 
L 45.90625 32.71875 
Q 45.90625 40.484375 42.875 44.328125 
Q 39.84375 48.1875 33.796875 48.1875 
Q 26.515625 48.1875 22.3125 43.546875 
Q 18.109375 38.921875 18.109375 30.90625 
L 18.109375 0 
L 9.078125 0 
L 9.078125 75.984375 
L 18.109375 75.984375 
L 18.109375 46.1875 
Q 21.34375 51.125 25.703125 53.5625 
Q 30.078125 56 35.796875 56 
Q 45.21875 56 50.046875 50.171875 
Q 54.890625 44.34375 54.890625 33.015625 
z
" id="DejaVuSans-104"/>
     <path d="M 8.5 21.578125 
L 8.5 54.6875 
L 17.484375 54.6875 
L 17.484375 21.921875 
Q 17.484375 14.15625 20.5 10.265625 
Q 23.53125 6.390625 29.59375 6.390625 
Q 36.859375 6.390625 41.078125 11.03125 
Q 45.3125 15.671875 45.3125 23.6875 
L 45.3125 54.6875 
L 54.296875 54.6875 
L 54.296875 0 
L 45.3125 0 
L 45.3125 8.40625 
Q 42.046875 3.421875 37.71875 1 
Q 33.40625 -1.421875 27.6875 -1.421875 
Q 18.265625 -1.421875 13.375 4.4375 
Q 8.5 10.296875 8.5 21.578125 
z
M 31.109375 56 
z
" id="DejaVuSans-117"/>
    </defs>
    <g transform="translate(255.957188 54.48)scale(0.12 -0.12)">
     <use xlink:href="#DejaVuSans-78"/>
     <use x="74.804688" xlink:href="#DejaVuSans-101"/>
     <use x="136.328125" xlink:href="#DejaVuSans-97"/>
     <use x="197.607422" xlink:href="#DejaVuSans-114"/>
     <use x="236.470703" xlink:href="#DejaVuSans-101"/>
     <use x="297.994141" xlink:href="#DejaVuSans-115"/>
     <use x="350.09375" xlink:href="#DejaVuSans-116"/>
     <use x="389.302734" xlink:href="#DejaVuSans-78"/>
     <use x="464.107422" xlink:href="#DejaVuSans-101"/>
     <use x="525.630859" xlink:href="#DejaVuSans-105"/>
     <use x="553.414062" xlink:href="#DejaVuSans-103"/>
     <use x="616.890625" xlink:href="#DejaVuSans-104"/>
     <use x="680.269531" xlink:href="#DejaVuSans-98"/>
     <use x="743.746094" xlink:href="#DejaVuSans-111"/>
     <use x="804.927734" xlink:href="#DejaVuSans-117"/>
     <use x="868.306641" xlink:href="#DejaVuSans-114"/>
     <use x="909.419922" xlink:href="#DejaVuSans-115"/>
    </g>
   </g>
   <g id="legend_1">
    <g id="patch_7">
     <path d="M 362.659375 112.514375 
L 543.8 112.514375 
Q 545.8 112.514375 545.8 110.514375 
L 545.8 67.48 
Q 545.8 65.48 543.8 65.48 
L 362.659375 65.48 
Q 360.659375 65.48 360.659375 67.48 
L 360.659375 110.514375 
Q 360.659375 112.514375 362.659375 112.514375 
z
" style="fill:#ffffff;opacity:0.8;stroke:#cccccc;stroke-linejoin:miter;"/>
    </g>
    <g id="line2d_48">
     <path d="M 364.659375 73.578438 
L 384.659375 73.578438 
" style="fill:none;stroke:#1f77b4;stroke-linecap:square;stroke-width:2;"/>
    </g>
    <g id="line2d_49"/>
    <g id="text_26">
     <!-- root-cvsift AP: 78.5, %In: 24.2 -->
     <defs>
      <path d="M 2.984375 54.6875 
L 12.5 54.6875 
L 29.59375 8.796875 
L 46.6875 54.6875 
L 56.203125 54.6875 
L 35.6875 0 
L 23.484375 0 
z
" id="DejaVuSans-118"/>
      <path d="M 37.109375 75.984375 
L 37.109375 68.5 
L 28.515625 68.5 
Q 23.6875 68.5 21.796875 66.546875 
Q 19.921875 64.59375 19.921875 59.515625 
L 19.921875 54.6875 
L 34.71875 54.6875 
L 34.71875 47.703125 
L 19.921875 47.703125 
L 19.921875 0 
L 10.890625 0 
L 10.890625 47.703125 
L 2.296875 47.703125 
L 2.296875 54.6875 
L 10.890625 54.6875 
L 10.890625 58.5 
Q 10.890625 67.625 15.140625 71.796875 
Q 19.390625 75.984375 28.609375 75.984375 
z
" id="DejaVuSans-102"/>
      <path d="M 34.1875 63.1875 
L 20.796875 26.90625 
L 47.609375 26.90625 
z
M 28.609375 72.90625 
L 39.796875 72.90625 
L 67.578125 0 
L 57.328125 0 
L 50.6875 18.703125 
L 17.828125 18.703125 
L 11.1875 0 
L 0.78125 0 
z
" id="DejaVuSans-65"/>
      <path d="M 19.671875 64.796875 
L 19.671875 37.40625 
L 32.078125 37.40625 
Q 38.96875 37.40625 42.71875 40.96875 
Q 46.484375 44.53125 46.484375 51.125 
Q 46.484375 57.671875 42.71875 61.234375 
Q 38.96875 64.796875 32.078125 64.796875 
z
M 9.8125 72.90625 
L 32.078125 72.90625 
Q 44.34375 72.90625 50.609375 67.359375 
Q 56.890625 61.8125 56.890625 51.125 
Q 56.890625 40.328125 50.609375 34.8125 
Q 44.34375 29.296875 32.078125 29.296875 
L 19.671875 29.296875 
L 19.671875 0 
L 9.8125 0 
z
" id="DejaVuSans-80"/>
      <path d="M 11.71875 12.40625 
L 22.015625 12.40625 
L 22.015625 4 
L 14.015625 -11.625 
L 7.71875 -11.625 
L 11.71875 4 
z
" id="DejaVuSans-44"/>
      <path d="M 72.703125 32.078125 
Q 68.453125 32.078125 66.03125 28.46875 
Q 63.625 24.859375 63.625 18.40625 
Q 63.625 12.0625 66.03125 8.421875 
Q 68.453125 4.78125 72.703125 4.78125 
Q 76.859375 4.78125 79.265625 8.421875 
Q 81.6875 12.0625 81.6875 18.40625 
Q 81.6875 24.8125 79.265625 28.4375 
Q 76.859375 32.078125 72.703125 32.078125 
z
M 72.703125 38.28125 
Q 80.421875 38.28125 84.953125 32.90625 
Q 89.5 27.546875 89.5 18.40625 
Q 89.5 9.28125 84.9375 3.921875 
Q 80.375 -1.421875 72.703125 -1.421875 
Q 64.890625 -1.421875 60.34375 3.921875 
Q 55.8125 9.28125 55.8125 18.40625 
Q 55.8125 27.59375 60.375 32.9375 
Q 64.9375 38.28125 72.703125 38.28125 
z
M 22.3125 68.015625 
Q 18.109375 68.015625 15.6875 64.375 
Q 13.28125 60.75 13.28125 54.390625 
Q 13.28125 47.953125 15.671875 44.328125 
Q 18.0625 40.71875 22.3125 40.71875 
Q 26.5625 40.71875 28.96875 44.328125 
Q 31.390625 47.953125 31.390625 54.390625 
Q 31.390625 60.6875 28.953125 64.34375 
Q 26.515625 68.015625 22.3125 68.015625 
z
M 66.40625 74.21875 
L 74.21875 74.21875 
L 28.609375 -1.421875 
L 20.796875 -1.421875 
z
M 22.3125 74.21875 
Q 30.03125 74.21875 34.609375 68.875 
Q 39.203125 63.53125 39.203125 54.390625 
Q 39.203125 45.171875 34.640625 39.84375 
Q 30.078125 34.515625 22.3125 34.515625 
Q 14.546875 34.515625 10.03125 39.859375 
Q 5.515625 45.21875 5.515625 54.390625 
Q 5.515625 63.484375 10.046875 68.84375 
Q 14.59375 74.21875 22.3125 74.21875 
z
" id="DejaVuSans-37"/>
      <path d="M 9.8125 72.90625 
L 19.671875 72.90625 
L 19.671875 0 
L 9.8125 0 
z
" id="DejaVuSans-73"/>
     </defs>
     <g transform="translate(392.659375 77.078438)scale(0.1 -0.1)">
      <use xlink:href="#DejaVuSans-114"/>
      <use x="38.863281" xlink:href="#DejaVuSans-111"/>
      <use x="100.044922" xlink:href="#DejaVuSans-111"/>
      <use x="161.226562" xlink:href="#DejaVuSans-116"/>
      <use x="200.435547" xlink:href="#DejaVuSans-45"/>
      <use x="236.519531" xlink:href="#DejaVuSans-99"/>
      <use x="291.5" xlink:href="#DejaVuSans-118"/>
      <use x="350.679688" xlink:href="#DejaVuSans-115"/>
      <use x="402.779297" xlink:href="#DejaVuSans-105"/>
      <use x="430.5625" xlink:href="#DejaVuSans-102"/>
      <use x="464.017578" xlink:href="#DejaVuSans-116"/>
      <use x="503.226562" xlink:href="#DejaVuSans-32"/>
      <use x="535.013672" xlink:href="#DejaVuSans-65"/>
      <use x="603.421875" xlink:href="#DejaVuSans-80"/>
      <use x="663.724609" xlink:href="#DejaVuSans-58"/>
      <use x="697.416016" xlink:href="#DejaVuSans-32"/>
      <use x="729.203125" xlink:href="#DejaVuSans-55"/>
      <use x="792.826172" xlink:href="#DejaVuSans-56"/>
      <use x="856.449219" xlink:href="#DejaVuSans-46"/>
      <use x="888.236328" xlink:href="#DejaVuSans-53"/>
      <use x="951.859375" xlink:href="#DejaVuSans-44"/>
      <use x="983.646484" xlink:href="#DejaVuSans-32"/>
      <use x="1015.433594" xlink:href="#DejaVuSans-37"/>
      <use x="1110.453125" xlink:href="#DejaVuSans-73"/>
      <use x="1139.945312" xlink:href="#DejaVuSans-110"/>
      <use x="1203.324219" xlink:href="#DejaVuSans-58"/>
      <use x="1237.015625" xlink:href="#DejaVuSans-32"/>
      <use x="1268.802734" xlink:href="#DejaVuSans-50"/>
      <use x="1332.425781" xlink:href="#DejaVuSans-52"/>
      <use x="1396.048828" xlink:href="#DejaVuSans-46"/>
      <use x="1427.835938" xlink:href="#DejaVuSans-50"/>
     </g>
    </g>
    <g id="line2d_50">
     <path d="M 364.659375 88.256563 
L 384.659375 88.256563 
" style="fill:none;stroke:#ff7f0e;stroke-linecap:square;stroke-width:2;"/>
    </g>
    <g id="line2d_51"/>
    <g id="text_27">
     <!-- tfeat AP: 16.6, %In: 11.1 -->
     <g transform="translate(392.659375 91.756563)scale(0.1 -0.1)">
      <use xlink:href="#DejaVuSans-116"/>
      <use x="39.208984" xlink:href="#DejaVuSans-102"/>
      <use x="74.414062" xlink:href="#DejaVuSans-101"/>
      <use x="135.9375" xlink:href="#DejaVuSans-97"/>
      <use x="197.216797" xlink:href="#DejaVuSans-116"/>
      <use x="236.425781" xlink:href="#DejaVuSans-32"/>
      <use x="268.212891" xlink:href="#DejaVuSans-65"/>
      <use x="336.621094" xlink:href="#DejaVuSans-80"/>
      <use x="396.923828" xlink:href="#DejaVuSans-58"/>
      <use x="430.615234" xlink:href="#DejaVuSans-32"/>
      <use x="462.402344" xlink:href="#DejaVuSans-49"/>
      <use x="526.025391" xlink:href="#DejaVuSans-54"/>
      <use x="589.648438" xlink:href="#DejaVuSans-46"/>
      <use x="621.435547" xlink:href="#DejaVuSans-54"/>
      <use x="685.058594" xlink:href="#DejaVuSans-44"/>
      <use x="716.845703" xlink:href="#DejaVuSans-32"/>
      <use x="748.632812" xlink:href="#DejaVuSans-37"/>
      <use x="843.652344" xlink:href="#DejaVuSans-73"/>
      <use x="873.144531" xlink:href="#DejaVuSans-110"/>
      <use x="936.523438" xlink:href="#DejaVuSans-58"/>
      <use x="970.214844" xlink:href="#DejaVuSans-32"/>
      <use x="1002.001953" xlink:href="#DejaVuSans-49"/>
      <use x="1065.625" xlink:href="#DejaVuSans-49"/>
      <use x="1129.248047" xlink:href="#DejaVuSans-46"/>
      <use x="1161.035156" xlink:href="#DejaVuSans-49"/>
     </g>
    </g>
    <g id="line2d_52">
     <path d="M 364.659375 102.934687 
L 384.659375 102.934687 
" style="fill:none;stroke:#2ca02c;stroke-linecap:square;stroke-width:2;"/>
    </g>
    <g id="line2d_53"/>
    <g id="text_28">
     <!-- hardnet AP: 58.5, %In: 20.2 -->
     <defs>
      <path d="M 45.40625 46.390625 
L 45.40625 75.984375 
L 54.390625 75.984375 
L 54.390625 0 
L 45.40625 0 
L 45.40625 8.203125 
Q 42.578125 3.328125 38.25 0.953125 
Q 33.9375 -1.421875 27.875 -1.421875 
Q 17.96875 -1.421875 11.734375 6.484375 
Q 5.515625 14.40625 5.515625 27.296875 
Q 5.515625 40.1875 11.734375 48.09375 
Q 17.96875 56 27.875 56 
Q 33.9375 56 38.25 53.625 
Q 42.578125 51.265625 45.40625 46.390625 
z
M 14.796875 27.296875 
Q 14.796875 17.390625 18.875 11.75 
Q 22.953125 6.109375 30.078125 6.109375 
Q 37.203125 6.109375 41.296875 11.75 
Q 45.40625 17.390625 45.40625 27.296875 
Q 45.40625 37.203125 41.296875 42.84375 
Q 37.203125 48.484375 30.078125 48.484375 
Q 22.953125 48.484375 18.875 42.84375 
Q 14.796875 37.203125 14.796875 27.296875 
z
" id="DejaVuSans-100"/>
     </defs>
     <g transform="translate(392.659375 106.434687)scale(0.1 -0.1)">
      <use xlink:href="#DejaVuSans-104"/>
      <use x="63.378906" xlink:href="#DejaVuSans-97"/>
      <use x="124.658203" xlink:href="#DejaVuSans-114"/>
      <use x="164.021484" xlink:href="#DejaVuSans-100"/>
      <use x="227.498047" xlink:href="#DejaVuSans-110"/>
      <use x="290.876953" xlink:href="#DejaVuSans-101"/>
      <use x="352.400391" xlink:href="#DejaVuSans-116"/>
      <use x="391.609375" xlink:href="#DejaVuSans-32"/>
      <use x="423.396484" xlink:href="#DejaVuSans-65"/>
      <use x="491.804688" xlink:href="#DejaVuSans-80"/>
      <use x="552.107422" xlink:href="#DejaVuSans-58"/>
      <use x="585.798828" xlink:href="#DejaVuSans-32"/>
      <use x="617.585938" xlink:href="#DejaVuSans-53"/>
      <use x="681.208984" xlink:href="#DejaVuSans-56"/>
      <use x="744.832031" xlink:href="#DejaVuSans-46"/>
      <use x="776.619141" xlink:href="#DejaVuSans-53"/>
      <use x="840.242188" xlink:href="#DejaVuSans-44"/>
      <use x="872.029297" xlink:href="#DejaVuSans-32"/>
      <use x="903.816406" xlink:href="#DejaVuSans-37"/>
      <use x="998.835938" xlink:href="#DejaVuSans-73"/>
      <use x="1028.328125" xlink:href="#DejaVuSans-110"/>
      <use x="1091.707031" xlink:href="#DejaVuSans-58"/>
      <use x="1125.398438" xlink:href="#DejaVuSans-32"/>
      <use x="1157.185547" xlink:href="#DejaVuSans-50"/>
      <use x="1220.808594" xlink:href="#DejaVuSans-48"/>
      <use x="1284.431641" xlink:href="#DejaVuSans-46"/>
      <use x="1316.21875" xlink:href="#DejaVuSans-50"/>
     </g>
    </g>
   </g>
  </g>
 </g>
 <defs>
  <clipPath id="p60c912699a">
   <rect height="388.08" width="474.3" x="76.5" y="60.48"/>
  </clipPath>
 </defs>
</svg>
