<?xml version="1.0" encoding="utf-8" standalone="no"?>
<!DOCTYPE svg PUBLIC "-//W3C//DTD SVG 1.1//EN"
  "http://www.w3.org/Graphics/SVG/1.1/DTD/svg11.dtd">
<!-- Created with matplotlib (https://matplotlib.org/) -->
<svg height="504pt" version="1.1" viewBox="0 0 612 504" width="612pt" xmlns="http://www.w3.org/2000/svg" xmlns:xlink="http://www.w3.org/1999/xlink">
 <defs>
  <style type="text/css">
*{stroke-linecap:butt;stroke-linejoin:round;}
  </style>
 </defs>
 <g id="figure_1">
  <g id="patch_1">
   <path d="M 0 504 
L 612 504 
L 612 0 
L 0 0 
z
" style="fill:#ffffff;"/>
  </g>
  <g id="axes_1">
   <g id="patch_2">
    <path d="M 76.5 448.56 
L 550.8 448.56 
L 550.8 60.48 
L 76.5 60.48 
z
" style="fill:#ffffff;"/>
   </g>
   <g id="matplotlib.axis_1">
    <g id="xtick_1">
     <g id="line2d_1">
      <path clip-path="url(#p53554d7593)" d="M 76.5 448.56 
L 76.5 60.48 
" style="fill:none;stroke:#b0b0b0;stroke-linecap:square;stroke-width:0.8;"/>
     </g>
     <g id="line2d_2">
      <defs>
       <path d="M 0 0 
L 0 3.5 
" id="mc70d4a5517" style="stroke:#000000;stroke-width:0.8;"/>
      </defs>
      <g>
       <use style="stroke:#000000;stroke-width:0.8;" x="76.5" xlink:href="#mc70d4a5517" y="448.56"/>
      </g>
     </g>
     <g id="text_1">
      <!-- 0.0 -->
      <defs>
       <path d="M 31.78125 66.40625 
Q 24.171875 66.40625 20.328125 58.90625 
Q 16.5 51.421875 16.5 36.375 
Q 16.5 21.390625 20.328125 13.890625 
Q 24.171875 6.390625 31.78125 6.390625 
Q 39.453125 6.390625 43.28125 13.890625 
Q 47.125 21.390625 47.125 36.375 
Q 47.125 51.421875 43.28125 58.90625 
Q 39.453125 66.40625 31.78125 66.40625 
z
M 31.78125 74.21875 
Q 44.046875 74.21875 50.515625 64.515625 
Q 56.984375 54.828125 56.984375 36.375 
Q 56.984375 17.96875 50.515625 8.265625 
Q 44.046875 -1.421875 31.78125 -1.421875 
Q 19.53125 -1.421875 13.0625 8.265625 
Q 6.59375 17.96875 6.59375 36.375 
Q 6.59375 54.828125 13.0625 64.515625 
Q 19.53125 74.21875 31.78125 74.21875 
z
" id="DejaVuSans-48"/>
       <path d="M 10.6875 12.40625 
L 21 12.40625 
L 21 0 
L 10.6875 0 
z
" id="DejaVuSans-46"/>
      </defs>
      <g transform="translate(68.548438 463.158437)scale(0.1 -0.1)">
       <use xlink:href="#DejaVuSans-48"/>
       <use x="63.623047" xlink:href="#DejaVuSans-46"/>
       <use x="95.410156" xlink:href="#DejaVuSans-48"/>
      </g>
     </g>
    </g>
    <g id="xtick_2">
     <g id="line2d_3">
      <path clip-path="url(#p53554d7593)" d="M 123.93 448.56 
L 123.93 60.48 
" style="fill:none;stroke:#b0b0b0;stroke-linecap:square;stroke-width:0.8;"/>
     </g>
     <g id="line2d_4">
      <g>
       <use style="stroke:#000000;stroke-width:0.8;" x="123.93" xlink:href="#mc70d4a5517" y="448.56"/>
      </g>
     </g>
     <g id="text_2">
      <!-- 0.1 -->
      <defs>
       <path d="M 12.40625 8.296875 
L 28.515625 8.296875 
L 28.515625 63.921875 
L 10.984375 60.40625 
L 10.984375 69.390625 
L 28.421875 72.90625 
L 38.28125 72.90625 
L 38.28125 8.296875 
L 54.390625 8.296875 
L 54.390625 0 
L 12.40625 0 
z
" id="DejaVuSans-49"/>
      </defs>
      <g transform="translate(115.978438 463.158437)scale(0.1 -0.1)">
       <use xlink:href="#DejaVuSans-48"/>
       <use x="63.623047" xlink:href="#DejaVuSans-46"/>
       <use x="95.410156" xlink:href="#DejaVuSans-49"/>
      </g>
     </g>
    </g>
    <g id="xtick_3">
     <g id="line2d_5">
      <path clip-path="url(#p53554d7593)" d="M 171.36 448.56 
L 171.36 60.48 
" style="fill:none;stroke:#b0b0b0;stroke-linecap:square;stroke-width:0.8;"/>
     </g>
     <g id="line2d_6">
      <g>
       <use style="stroke:#000000;stroke-width:0.8;" x="171.36" xlink:href="#mc70d4a5517" y="448.56"/>
      </g>
     </g>
     <g id="text_3">
      <!-- 0.2 -->
      <defs>
       <path d="M 19.1875 8.296875 
L 53.609375 8.296875 
L 53.609375 0 
L 7.328125 0 
L 7.328125 8.296875 
Q 12.9375 14.109375 22.625 23.890625 
Q 32.328125 33.6875 34.8125 36.53125 
Q 39.546875 41.84375 41.421875 45.53125 
Q 43.3125 49.21875 43.3125 52.78125 
Q 43.3125 58.59375 39.234375 62.25 
Q 35.15625 65.921875 28.609375 65.921875 
Q 23.96875 65.921875 18.8125 64.3125 
Q 13.671875 62.703125 7.8125 59.421875 
L 7.8125 69.390625 
Q 13.765625 71.78125 18.9375 73 
Q 24.125 74.21875 28.421875 74.21875 
Q 39.75 74.21875 46.484375 68.546875 
Q 53.21875 62.890625 53.21875 53.421875 
Q 53.21875 48.921875 51.53125 44.890625 
Q 49.859375 40.875 45.40625 35.40625 
Q 44.1875 33.984375 37.640625 27.21875 
Q 31.109375 20.453125 19.1875 8.296875 
z
" id="DejaVuSans-50"/>
      </defs>
      <g transform="translate(163.408438 463.158437)scale(0.1 -0.1)">
       <use xlink:href="#DejaVuSans-48"/>
       <use x="63.623047" xlink:href="#DejaVuSans-46"/>
       <use x="95.410156" xlink:href="#DejaVuSans-50"/>
      </g>
     </g>
    </g>
    <g id="xtick_4">
     <g id="line2d_7">
      <path clip-path="url(#p53554d7593)" d="M 218.79 448.56 
L 218.79 60.48 
" style="fill:none;stroke:#b0b0b0;stroke-linecap:square;stroke-width:0.8;"/>
     </g>
     <g id="line2d_8">
      <g>
       <use style="stroke:#000000;stroke-width:0.8;" x="218.79" xlink:href="#mc70d4a5517" y="448.56"/>
      </g>
     </g>
     <g id="text_4">
      <!-- 0.3 -->
      <defs>
       <path d="M 40.578125 39.3125 
Q 47.65625 37.796875 51.625 33 
Q 55.609375 28.21875 55.609375 21.1875 
Q 55.609375 10.40625 48.1875 4.484375 
Q 40.765625 -1.421875 27.09375 -1.421875 
Q 22.515625 -1.421875 17.65625 -0.515625 
Q 12.796875 0.390625 7.625 2.203125 
L 7.625 11.71875 
Q 11.71875 9.328125 16.59375 8.109375 
Q 21.484375 6.890625 26.8125 6.890625 
Q 36.078125 6.890625 40.9375 10.546875 
Q 45.796875 14.203125 45.796875 21.1875 
Q 45.796875 27.640625 41.28125 31.265625 
Q 36.765625 34.90625 28.71875 34.90625 
L 20.21875 34.90625 
L 20.21875 43.015625 
L 29.109375 43.015625 
Q 36.375 43.015625 40.234375 45.921875 
Q 44.09375 48.828125 44.09375 54.296875 
Q 44.09375 59.90625 40.109375 62.90625 
Q 36.140625 65.921875 28.71875 65.921875 
Q 24.65625 65.921875 20.015625 65.03125 
Q 15.375 64.15625 9.8125 62.3125 
L 9.8125 71.09375 
Q 15.4375 72.65625 20.34375 73.4375 
Q 25.25 74.21875 29.59375 74.21875 
Q 40.828125 74.21875 47.359375 69.109375 
Q 53.90625 64.015625 53.90625 55.328125 
Q 53.90625 49.265625 50.4375 45.09375 
Q 46.96875 40.921875 40.578125 39.3125 
z
" id="DejaVuSans-51"/>
      </defs>
      <g transform="translate(210.838438 463.158437)scale(0.1 -0.1)">
       <use xlink:href="#DejaVuSans-48"/>
       <use x="63.623047" xlink:href="#DejaVuSans-46"/>
       <use x="95.410156" xlink:href="#DejaVuSans-51"/>
      </g>
     </g>
    </g>
    <g id="xtick_5">
     <g id="line2d_9">
      <path clip-path="url(#p53554d7593)" d="M 266.22 448.56 
L 266.22 60.48 
" style="fill:none;stroke:#b0b0b0;stroke-linecap:square;stroke-width:0.8;"/>
     </g>
     <g id="line2d_10">
      <g>
       <use style="stroke:#000000;stroke-width:0.8;" x="266.22" xlink:href="#mc70d4a5517" y="448.56"/>
      </g>
     </g>
     <g id="text_5">
      <!-- 0.4 -->
      <defs>
       <path d="M 37.796875 64.3125 
L 12.890625 25.390625 
L 37.796875 25.390625 
z
M 35.203125 72.90625 
L 47.609375 72.90625 
L 47.609375 25.390625 
L 58.015625 25.390625 
L 58.015625 17.1875 
L 47.609375 17.1875 
L 47.609375 0 
L 37.796875 0 
L 37.796875 17.1875 
L 4.890625 17.1875 
L 4.890625 26.703125 
z
" id="DejaVuSans-52"/>
      </defs>
      <g transform="translate(258.268438 463.158437)scale(0.1 -0.1)">
       <use xlink:href="#DejaVuSans-48"/>
       <use x="63.623047" xlink:href="#DejaVuSans-46"/>
       <use x="95.410156" xlink:href="#DejaVuSans-52"/>
      </g>
     </g>
    </g>
    <g id="xtick_6">
     <g id="line2d_11">
      <path clip-path="url(#p53554d7593)" d="M 313.65 448.56 
L 313.65 60.48 
" style="fill:none;stroke:#b0b0b0;stroke-linecap:square;stroke-width:0.8;"/>
     </g>
     <g id="line2d_12">
      <g>
       <use style="stroke:#000000;stroke-width:0.8;" x="313.65" xlink:href="#mc70d4a5517" y="448.56"/>
      </g>
     </g>
     <g id="text_6">
      <!-- 0.5 -->
      <defs>
       <path d="M 10.796875 72.90625 
L 49.515625 72.90625 
L 49.515625 64.59375 
L 19.828125 64.59375 
L 19.828125 46.734375 
Q 21.96875 47.46875 24.109375 47.828125 
Q 26.265625 48.1875 28.421875 48.1875 
Q 40.625 48.1875 47.75 41.5 
Q 54.890625 34.8125 54.890625 23.390625 
Q 54.890625 11.625 47.5625 5.09375 
Q 40.234375 -1.421875 26.90625 -1.421875 
Q 22.3125 -1.421875 17.546875 -0.640625 
Q 12.796875 0.140625 7.71875 1.703125 
L 7.71875 11.625 
Q 12.109375 9.234375 16.796875 8.0625 
Q 21.484375 6.890625 26.703125 6.890625 
Q 35.15625 6.890625 40.078125 11.328125 
Q 45.015625 15.765625 45.015625 23.390625 
Q 45.015625 31 40.078125 35.4375 
Q 35.15625 39.890625 26.703125 39.890625 
Q 22.75 39.890625 18.8125 39.015625 
Q 14.890625 38.140625 10.796875 36.28125 
z
" id="DejaVuSans-53"/>
      </defs>
      <g transform="translate(305.698438 463.158437)scale(0.1 -0.1)">
       <use xlink:href="#DejaVuSans-48"/>
       <use x="63.623047" xlink:href="#DejaVuSans-46"/>
       <use x="95.410156" xlink:href="#DejaVuSans-53"/>
      </g>
     </g>
    </g>
    <g id="xtick_7">
     <g id="line2d_13">
      <path clip-path="url(#p53554d7593)" d="M 361.08 448.56 
L 361.08 60.48 
" style="fill:none;stroke:#b0b0b0;stroke-linecap:square;stroke-width:0.8;"/>
     </g>
     <g id="line2d_14">
      <g>
       <use style="stroke:#000000;stroke-width:0.8;" x="361.08" xlink:href="#mc70d4a5517" y="448.56"/>
      </g>
     </g>
     <g id="text_7">
      <!-- 0.6 -->
      <defs>
       <path d="M 33.015625 40.375 
Q 26.375 40.375 22.484375 35.828125 
Q 18.609375 31.296875 18.609375 23.390625 
Q 18.609375 15.53125 22.484375 10.953125 
Q 26.375 6.390625 33.015625 6.390625 
Q 39.65625 6.390625 43.53125 10.953125 
Q 47.40625 15.53125 47.40625 23.390625 
Q 47.40625 31.296875 43.53125 35.828125 
Q 39.65625 40.375 33.015625 40.375 
z
M 52.59375 71.296875 
L 52.59375 62.3125 
Q 48.875 64.0625 45.09375 64.984375 
Q 41.3125 65.921875 37.59375 65.921875 
Q 27.828125 65.921875 22.671875 59.328125 
Q 17.53125 52.734375 16.796875 39.40625 
Q 19.671875 43.65625 24.015625 45.921875 
Q 28.375 48.1875 33.59375 48.1875 
Q 44.578125 48.1875 50.953125 41.515625 
Q 57.328125 34.859375 57.328125 23.390625 
Q 57.328125 12.15625 50.6875 5.359375 
Q 44.046875 -1.421875 33.015625 -1.421875 
Q 20.359375 -1.421875 13.671875 8.265625 
Q 6.984375 17.96875 6.984375 36.375 
Q 6.984375 53.65625 15.1875 63.9375 
Q 23.390625 74.21875 37.203125 74.21875 
Q 40.921875 74.21875 44.703125 73.484375 
Q 48.484375 72.75 52.59375 71.296875 
z
" id="DejaVuSans-54"/>
      </defs>
      <g transform="translate(353.128438 463.158437)scale(0.1 -0.1)">
       <use xlink:href="#DejaVuSans-48"/>
       <use x="63.623047" xlink:href="#DejaVuSans-46"/>
       <use x="95.410156" xlink:href="#DejaVuSans-54"/>
      </g>
     </g>
    </g>
    <g id="xtick_8">
     <g id="line2d_15">
      <path clip-path="url(#p53554d7593)" d="M 408.51 448.56 
L 408.51 60.48 
" style="fill:none;stroke:#b0b0b0;stroke-linecap:square;stroke-width:0.8;"/>
     </g>
     <g id="line2d_16">
      <g>
       <use style="stroke:#000000;stroke-width:0.8;" x="408.51" xlink:href="#mc70d4a5517" y="448.56"/>
      </g>
     </g>
     <g id="text_8">
      <!-- 0.7 -->
      <defs>
       <path d="M 8.203125 72.90625 
L 55.078125 72.90625 
L 55.078125 68.703125 
L 28.609375 0 
L 18.3125 0 
L 43.21875 64.59375 
L 8.203125 64.59375 
z
" id="DejaVuSans-55"/>
      </defs>
      <g transform="translate(400.558438 463.158437)scale(0.1 -0.1)">
       <use xlink:href="#DejaVuSans-48"/>
       <use x="63.623047" xlink:href="#DejaVuSans-46"/>
       <use x="95.410156" xlink:href="#DejaVuSans-55"/>
      </g>
     </g>
    </g>
    <g id="xtick_9">
     <g id="line2d_17">
      <path clip-path="url(#p53554d7593)" d="M 455.94 448.56 
L 455.94 60.48 
" style="fill:none;stroke:#b0b0b0;stroke-linecap:square;stroke-width:0.8;"/>
     </g>
     <g id="line2d_18">
      <g>
       <use style="stroke:#000000;stroke-width:0.8;" x="455.94" xlink:href="#mc70d4a5517" y="448.56"/>
      </g>
     </g>
     <g id="text_9">
      <!-- 0.8 -->
      <defs>
       <path d="M 31.78125 34.625 
Q 24.75 34.625 20.71875 30.859375 
Q 16.703125 27.09375 16.703125 20.515625 
Q 16.703125 13.921875 20.71875 10.15625 
Q 24.75 6.390625 31.78125 6.390625 
Q 38.8125 6.390625 42.859375 10.171875 
Q 46.921875 13.96875 46.921875 20.515625 
Q 46.921875 27.09375 42.890625 30.859375 
Q 38.875 34.625 31.78125 34.625 
z
M 21.921875 38.8125 
Q 15.578125 40.375 12.03125 44.71875 
Q 8.5 49.078125 8.5 55.328125 
Q 8.5 64.0625 14.71875 69.140625 
Q 20.953125 74.21875 31.78125 74.21875 
Q 42.671875 74.21875 48.875 69.140625 
Q 55.078125 64.0625 55.078125 55.328125 
Q 55.078125 49.078125 51.53125 44.71875 
Q 48 40.375 41.703125 38.8125 
Q 48.828125 37.15625 52.796875 32.3125 
Q 56.78125 27.484375 56.78125 20.515625 
Q 56.78125 9.90625 50.3125 4.234375 
Q 43.84375 -1.421875 31.78125 -1.421875 
Q 19.734375 -1.421875 13.25 4.234375 
Q 6.78125 9.90625 6.78125 20.515625 
Q 6.78125 27.484375 10.78125 32.3125 
Q 14.796875 37.15625 21.921875 38.8125 
z
M 18.3125 54.390625 
Q 18.3125 48.734375 21.84375 45.5625 
Q 25.390625 42.390625 31.78125 42.390625 
Q 38.140625 42.390625 41.71875 45.5625 
Q 45.3125 48.734375 45.3125 54.390625 
Q 45.3125 60.0625 41.71875 63.234375 
Q 38.140625 66.40625 31.78125 66.40625 
Q 25.390625 66.40625 21.84375 63.234375 
Q 18.3125 60.0625 18.3125 54.390625 
z
" id="DejaVuSans-56"/>
      </defs>
      <g transform="translate(447.988438 463.158437)scale(0.1 -0.1)">
       <use xlink:href="#DejaVuSans-48"/>
       <use x="63.623047" xlink:href="#DejaVuSans-46"/>
       <use x="95.410156" xlink:href="#DejaVuSans-56"/>
      </g>
     </g>
    </g>
    <g id="xtick_10">
     <g id="line2d_19">
      <path clip-path="url(#p53554d7593)" d="M 503.37 448.56 
L 503.37 60.48 
" style="fill:none;stroke:#b0b0b0;stroke-linecap:square;stroke-width:0.8;"/>
     </g>
     <g id="line2d_20">
      <g>
       <use style="stroke:#000000;stroke-width:0.8;" x="503.37" xlink:href="#mc70d4a5517" y="448.56"/>
      </g>
     </g>
     <g id="text_10">
      <!-- 0.9 -->
      <defs>
       <path d="M 10.984375 1.515625 
L 10.984375 10.5 
Q 14.703125 8.734375 18.5 7.8125 
Q 22.3125 6.890625 25.984375 6.890625 
Q 35.75 6.890625 40.890625 13.453125 
Q 46.046875 20.015625 46.78125 33.40625 
Q 43.953125 29.203125 39.59375 26.953125 
Q 35.25 24.703125 29.984375 24.703125 
Q 19.046875 24.703125 12.671875 31.3125 
Q 6.296875 37.9375 6.296875 49.421875 
Q 6.296875 60.640625 12.9375 67.421875 
Q 19.578125 74.21875 30.609375 74.21875 
Q 43.265625 74.21875 49.921875 64.515625 
Q 56.59375 54.828125 56.59375 36.375 
Q 56.59375 19.140625 48.40625 8.859375 
Q 40.234375 -1.421875 26.421875 -1.421875 
Q 22.703125 -1.421875 18.890625 -0.6875 
Q 15.09375 0.046875 10.984375 1.515625 
z
M 30.609375 32.421875 
Q 37.25 32.421875 41.125 36.953125 
Q 45.015625 41.5 45.015625 49.421875 
Q 45.015625 57.28125 41.125 61.84375 
Q 37.25 66.40625 30.609375 66.40625 
Q 23.96875 66.40625 20.09375 61.84375 
Q 16.21875 57.28125 16.21875 49.421875 
Q 16.21875 41.5 20.09375 36.953125 
Q 23.96875 32.421875 30.609375 32.421875 
z
" id="DejaVuSans-57"/>
      </defs>
      <g transform="translate(495.418438 463.158437)scale(0.1 -0.1)">
       <use xlink:href="#DejaVuSans-48"/>
       <use x="63.623047" xlink:href="#DejaVuSans-46"/>
       <use x="95.410156" xlink:href="#DejaVuSans-57"/>
      </g>
     </g>
    </g>
    <g id="xtick_11">
     <g id="line2d_21">
      <path clip-path="url(#p53554d7593)" d="M 550.8 448.56 
L 550.8 60.48 
" style="fill:none;stroke:#b0b0b0;stroke-linecap:square;stroke-width:0.8;"/>
     </g>
     <g id="line2d_22">
      <g>
       <use style="stroke:#000000;stroke-width:0.8;" x="550.8" xlink:href="#mc70d4a5517" y="448.56"/>
      </g>
     </g>
     <g id="text_11">
      <!-- 1.0 -->
      <g transform="translate(542.848438 463.158437)scale(0.1 -0.1)">
       <use xlink:href="#DejaVuSans-49"/>
       <use x="63.623047" xlink:href="#DejaVuSans-46"/>
       <use x="95.410156" xlink:href="#DejaVuSans-48"/>
      </g>
     </g>
    </g>
    <g id="text_12">
     <!-- 1-precision -->
     <defs>
      <path d="M 4.890625 31.390625 
L 31.203125 31.390625 
L 31.203125 23.390625 
L 4.890625 23.390625 
z
" id="DejaVuSans-45"/>
      <path d="M 18.109375 8.203125 
L 18.109375 -20.796875 
L 9.078125 -20.796875 
L 9.078125 54.6875 
L 18.109375 54.6875 
L 18.109375 46.390625 
Q 20.953125 51.265625 25.265625 53.625 
Q 29.59375 56 35.59375 56 
Q 45.5625 56 51.78125 48.09375 
Q 58.015625 40.1875 58.015625 27.296875 
Q 58.015625 14.40625 51.78125 6.484375 
Q 45.5625 -1.421875 35.59375 -1.421875 
Q 29.59375 -1.421875 25.265625 0.953125 
Q 20.953125 3.328125 18.109375 8.203125 
z
M 48.6875 27.296875 
Q 48.6875 37.203125 44.609375 42.84375 
Q 40.53125 48.484375 33.40625 48.484375 
Q 26.265625 48.484375 22.1875 42.84375 
Q 18.109375 37.203125 18.109375 27.296875 
Q 18.109375 17.390625 22.1875 11.75 
Q 26.265625 6.109375 33.40625 6.109375 
Q 40.53125 6.109375 44.609375 11.75 
Q 48.6875 17.390625 48.6875 27.296875 
z
" id="DejaVuSans-112"/>
      <path d="M 41.109375 46.296875 
Q 39.59375 47.171875 37.8125 47.578125 
Q 36.03125 48 33.890625 48 
Q 26.265625 48 22.1875 43.046875 
Q 18.109375 38.09375 18.109375 28.8125 
L 18.109375 0 
L 9.078125 0 
L 9.078125 54.6875 
L 18.109375 54.6875 
L 18.109375 46.1875 
Q 20.953125 51.171875 25.484375 53.578125 
Q 30.03125 56 36.53125 56 
Q 37.453125 56 38.578125 55.875 
Q 39.703125 55.765625 41.0625 55.515625 
z
" id="DejaVuSans-114"/>
      <path d="M 56.203125 29.59375 
L 56.203125 25.203125 
L 14.890625 25.203125 
Q 15.484375 15.921875 20.484375 11.0625 
Q 25.484375 6.203125 34.421875 6.203125 
Q 39.59375 6.203125 44.453125 7.46875 
Q 49.3125 8.734375 54.109375 11.28125 
L 54.109375 2.78125 
Q 49.265625 0.734375 44.1875 -0.34375 
Q 39.109375 -1.421875 33.890625 -1.421875 
Q 20.796875 -1.421875 13.15625 6.1875 
Q 5.515625 13.8125 5.515625 26.8125 
Q 5.515625 40.234375 12.765625 48.109375 
Q 20.015625 56 32.328125 56 
Q 43.359375 56 49.78125 48.890625 
Q 56.203125 41.796875 56.203125 29.59375 
z
M 47.21875 32.234375 
Q 47.125 39.59375 43.09375 43.984375 
Q 39.0625 48.390625 32.421875 48.390625 
Q 24.90625 48.390625 20.390625 44.140625 
Q 15.875 39.890625 15.1875 32.171875 
z
" id="DejaVuSans-101"/>
      <path d="M 48.78125 52.59375 
L 48.78125 44.1875 
Q 44.96875 46.296875 41.140625 47.34375 
Q 37.3125 48.390625 33.40625 48.390625 
Q 24.65625 48.390625 19.8125 42.84375 
Q 14.984375 37.3125 14.984375 27.296875 
Q 14.984375 17.28125 19.8125 11.734375 
Q 24.65625 6.203125 33.40625 6.203125 
Q 37.3125 6.203125 41.140625 7.25 
Q 44.96875 8.296875 48.78125 10.40625 
L 48.78125 2.09375 
Q 45.015625 0.34375 40.984375 -0.53125 
Q 36.96875 -1.421875 32.421875 -1.421875 
Q 20.0625 -1.421875 12.78125 6.34375 
Q 5.515625 14.109375 5.515625 27.296875 
Q 5.515625 40.671875 12.859375 48.328125 
Q 20.21875 56 33.015625 56 
Q 37.15625 56 41.109375 55.140625 
Q 45.0625 54.296875 48.78125 52.59375 
z
" id="DejaVuSans-99"/>
      <path d="M 9.421875 54.6875 
L 18.40625 54.6875 
L 18.40625 0 
L 9.421875 0 
z
M 9.421875 75.984375 
L 18.40625 75.984375 
L 18.40625 64.59375 
L 9.421875 64.59375 
z
" id="DejaVuSans-105"/>
      <path d="M 44.28125 53.078125 
L 44.28125 44.578125 
Q 40.484375 46.53125 36.375 47.5 
Q 32.28125 48.484375 27.875 48.484375 
Q 21.1875 48.484375 17.84375 46.4375 
Q 14.5 44.390625 14.5 40.28125 
Q 14.5 37.15625 16.890625 35.375 
Q 19.28125 33.59375 26.515625 31.984375 
L 29.59375 31.296875 
Q 39.15625 29.25 43.1875 25.515625 
Q 47.21875 21.78125 47.21875 15.09375 
Q 47.21875 7.46875 41.1875 3.015625 
Q 35.15625 -1.421875 24.609375 -1.421875 
Q 20.21875 -1.421875 15.453125 -0.5625 
Q 10.6875 0.296875 5.421875 2 
L 5.421875 11.28125 
Q 10.40625 8.6875 15.234375 7.390625 
Q 20.0625 6.109375 24.8125 6.109375 
Q 31.15625 6.109375 34.5625 8.28125 
Q 37.984375 10.453125 37.984375 14.40625 
Q 37.984375 18.0625 35.515625 20.015625 
Q 33.0625 21.96875 24.703125 23.78125 
L 21.578125 24.515625 
Q 13.234375 26.265625 9.515625 29.90625 
Q 5.8125 33.546875 5.8125 39.890625 
Q 5.8125 47.609375 11.28125 51.796875 
Q 16.75 56 26.8125 56 
Q 31.78125 56 36.171875 55.265625 
Q 40.578125 54.546875 44.28125 53.078125 
z
" id="DejaVuSans-115"/>
      <path d="M 30.609375 48.390625 
Q 23.390625 48.390625 19.1875 42.75 
Q 14.984375 37.109375 14.984375 27.296875 
Q 14.984375 17.484375 19.15625 11.84375 
Q 23.34375 6.203125 30.609375 6.203125 
Q 37.796875 6.203125 41.984375 11.859375 
Q 46.1875 17.53125 46.1875 27.296875 
Q 46.1875 37.015625 41.984375 42.703125 
Q 37.796875 48.390625 30.609375 48.390625 
z
M 30.609375 56 
Q 42.328125 56 49.015625 48.375 
Q 55.71875 40.765625 55.71875 27.296875 
Q 55.71875 13.875 49.015625 6.21875 
Q 42.328125 -1.421875 30.609375 -1.421875 
Q 18.84375 -1.421875 12.171875 6.21875 
Q 5.515625 13.875 5.515625 27.296875 
Q 5.515625 40.765625 12.171875 48.375 
Q 18.84375 56 30.609375 56 
z
" id="DejaVuSans-111"/>
      <path d="M 54.890625 33.015625 
L 54.890625 0 
L 45.90625 0 
L 45.90625 32.71875 
Q 45.90625 40.484375 42.875 44.328125 
Q 39.84375 48.1875 33.796875 48.1875 
Q 26.515625 48.1875 22.3125 43.546875 
Q 18.109375 38.921875 18.109375 30.90625 
L 18.109375 0 
L 9.078125 0 
L 9.078125 54.6875 
L 18.109375 54.6875 
L 18.109375 46.1875 
Q 21.34375 51.125 25.703125 53.5625 
Q 30.078125 56 35.796875 56 
Q 45.21875 56 50.046875 50.171875 
Q 54.890625 44.34375 54.890625 33.015625 
z
" id="DejaVuSans-110"/>
     </defs>
     <g transform="translate(286.110938 476.836563)scale(0.1 -0.1)">
      <use xlink:href="#DejaVuSans-49"/>
      <use x="63.623047" xlink:href="#DejaVuSans-45"/>
      <use x="99.707031" xlink:href="#DejaVuSans-112"/>
      <use x="163.183594" xlink:href="#DejaVuSans-114"/>
      <use x="202.046875" xlink:href="#DejaVuSans-101"/>
      <use x="263.570312" xlink:href="#DejaVuSans-99"/>
      <use x="318.550781" xlink:href="#DejaVuSans-105"/>
      <use x="346.333984" xlink:href="#DejaVuSans-115"/>
      <use x="398.433594" xlink:href="#DejaVuSans-105"/>
      <use x="426.216797" xlink:href="#DejaVuSans-111"/>
      <use x="487.398438" xlink:href="#DejaVuSans-110"/>
     </g>
    </g>
   </g>
   <g id="matplotlib.axis_2">
    <g id="ytick_1">
     <g id="line2d_23">
      <path clip-path="url(#p53554d7593)" d="M 76.5 448.56 
L 550.8 448.56 
" style="fill:none;stroke:#b0b0b0;stroke-linecap:square;stroke-width:0.8;"/>
     </g>
     <g id="line2d_24">
      <defs>
       <path d="M 0 0 
L -3.5 0 
" id="m77ceb31242" style="stroke:#000000;stroke-width:0.8;"/>
      </defs>
      <g>
       <use style="stroke:#000000;stroke-width:0.8;" x="76.5" xlink:href="#m77ceb31242" y="448.56"/>
      </g>
     </g>
     <g id="text_13">
      <!-- 0.0 -->
      <g transform="translate(53.596875 452.359219)scale(0.1 -0.1)">
       <use xlink:href="#DejaVuSans-48"/>
       <use x="63.623047" xlink:href="#DejaVuSans-46"/>
       <use x="95.410156" xlink:href="#DejaVuSans-48"/>
      </g>
     </g>
    </g>
    <g id="ytick_2">
     <g id="line2d_25">
      <path clip-path="url(#p53554d7593)" d="M 76.5 409.752 
L 550.8 409.752 
" style="fill:none;stroke:#b0b0b0;stroke-linecap:square;stroke-width:0.8;"/>
     </g>
     <g id="line2d_26">
      <g>
       <use style="stroke:#000000;stroke-width:0.8;" x="76.5" xlink:href="#m77ceb31242" y="409.752"/>
      </g>
     </g>
     <g id="text_14">
      <!-- 0.1 -->
      <g transform="translate(53.596875 413.551219)scale(0.1 -0.1)">
       <use xlink:href="#DejaVuSans-48"/>
       <use x="63.623047" xlink:href="#DejaVuSans-46"/>
       <use x="95.410156" xlink:href="#DejaVuSans-49"/>
      </g>
     </g>
    </g>
    <g id="ytick_3">
     <g id="line2d_27">
      <path clip-path="url(#p53554d7593)" d="M 76.5 370.944 
L 550.8 370.944 
" style="fill:none;stroke:#b0b0b0;stroke-linecap:square;stroke-width:0.8;"/>
     </g>
     <g id="line2d_28">
      <g>
       <use style="stroke:#000000;stroke-width:0.8;" x="76.5" xlink:href="#m77ceb31242" y="370.944"/>
      </g>
     </g>
     <g id="text_15">
      <!-- 0.2 -->
      <g transform="translate(53.596875 374.743219)scale(0.1 -0.1)">
       <use xlink:href="#DejaVuSans-48"/>
       <use x="63.623047" xlink:href="#DejaVuSans-46"/>
       <use x="95.410156" xlink:href="#DejaVuSans-50"/>
      </g>
     </g>
    </g>
    <g id="ytick_4">
     <g id="line2d_29">
      <path clip-path="url(#p53554d7593)" d="M 76.5 332.136 
L 550.8 332.136 
" style="fill:none;stroke:#b0b0b0;stroke-linecap:square;stroke-width:0.8;"/>
     </g>
     <g id="line2d_30">
      <g>
       <use style="stroke:#000000;stroke-width:0.8;" x="76.5" xlink:href="#m77ceb31242" y="332.136"/>
      </g>
     </g>
     <g id="text_16">
      <!-- 0.3 -->
      <g transform="translate(53.596875 335.935219)scale(0.1 -0.1)">
       <use xlink:href="#DejaVuSans-48"/>
       <use x="63.623047" xlink:href="#DejaVuSans-46"/>
       <use x="95.410156" xlink:href="#DejaVuSans-51"/>
      </g>
     </g>
    </g>
    <g id="ytick_5">
     <g id="line2d_31">
      <path clip-path="url(#p53554d7593)" d="M 76.5 293.328 
L 550.8 293.328 
" style="fill:none;stroke:#b0b0b0;stroke-linecap:square;stroke-width:0.8;"/>
     </g>
     <g id="line2d_32">
      <g>
       <use style="stroke:#000000;stroke-width:0.8;" x="76.5" xlink:href="#m77ceb31242" y="293.328"/>
      </g>
     </g>
     <g id="text_17">
      <!-- 0.4 -->
      <g transform="translate(53.596875 297.127219)scale(0.1 -0.1)">
       <use xlink:href="#DejaVuSans-48"/>
       <use x="63.623047" xlink:href="#DejaVuSans-46"/>
       <use x="95.410156" xlink:href="#DejaVuSans-52"/>
      </g>
     </g>
    </g>
    <g id="ytick_6">
     <g id="line2d_33">
      <path clip-path="url(#p53554d7593)" d="M 76.5 254.52 
L 550.8 254.52 
" style="fill:none;stroke:#b0b0b0;stroke-linecap:square;stroke-width:0.8;"/>
     </g>
     <g id="line2d_34">
      <g>
       <use style="stroke:#000000;stroke-width:0.8;" x="76.5" xlink:href="#m77ceb31242" y="254.52"/>
      </g>
     </g>
     <g id="text_18">
      <!-- 0.5 -->
      <g transform="translate(53.596875 258.319219)scale(0.1 -0.1)">
       <use xlink:href="#DejaVuSans-48"/>
       <use x="63.623047" xlink:href="#DejaVuSans-46"/>
       <use x="95.410156" xlink:href="#DejaVuSans-53"/>
      </g>
     </g>
    </g>
    <g id="ytick_7">
     <g id="line2d_35">
      <path clip-path="url(#p53554d7593)" d="M 76.5 215.712 
L 550.8 215.712 
" style="fill:none;stroke:#b0b0b0;stroke-linecap:square;stroke-width:0.8;"/>
     </g>
     <g id="line2d_36">
      <g>
       <use style="stroke:#000000;stroke-width:0.8;" x="76.5" xlink:href="#m77ceb31242" y="215.712"/>
      </g>
     </g>
     <g id="text_19">
      <!-- 0.6 -->
      <g transform="translate(53.596875 219.511219)scale(0.1 -0.1)">
       <use xlink:href="#DejaVuSans-48"/>
       <use x="63.623047" xlink:href="#DejaVuSans-46"/>
       <use x="95.410156" xlink:href="#DejaVuSans-54"/>
      </g>
     </g>
    </g>
    <g id="ytick_8">
     <g id="line2d_37">
      <path clip-path="url(#p53554d7593)" d="M 76.5 176.904 
L 550.8 176.904 
" style="fill:none;stroke:#b0b0b0;stroke-linecap:square;stroke-width:0.8;"/>
     </g>
     <g id="line2d_38">
      <g>
       <use style="stroke:#000000;stroke-width:0.8;" x="76.5" xlink:href="#m77ceb31242" y="176.904"/>
      </g>
     </g>
     <g id="text_20">
      <!-- 0.7 -->
      <g transform="translate(53.596875 180.703219)scale(0.1 -0.1)">
       <use xlink:href="#DejaVuSans-48"/>
       <use x="63.623047" xlink:href="#DejaVuSans-46"/>
       <use x="95.410156" xlink:href="#DejaVuSans-55"/>
      </g>
     </g>
    </g>
    <g id="ytick_9">
     <g id="line2d_39">
      <path clip-path="url(#p53554d7593)" d="M 76.5 138.096 
L 550.8 138.096 
" style="fill:none;stroke:#b0b0b0;stroke-linecap:square;stroke-width:0.8;"/>
     </g>
     <g id="line2d_40">
      <g>
       <use style="stroke:#000000;stroke-width:0.8;" x="76.5" xlink:href="#m77ceb31242" y="138.096"/>
      </g>
     </g>
     <g id="text_21">
      <!-- 0.8 -->
      <g transform="translate(53.596875 141.895219)scale(0.1 -0.1)">
       <use xlink:href="#DejaVuSans-48"/>
       <use x="63.623047" xlink:href="#DejaVuSans-46"/>
       <use x="95.410156" xlink:href="#DejaVuSans-56"/>
      </g>
     </g>
    </g>
    <g id="ytick_10">
     <g id="line2d_41">
      <path clip-path="url(#p53554d7593)" d="M 76.5 99.288 
L 550.8 99.288 
" style="fill:none;stroke:#b0b0b0;stroke-linecap:square;stroke-width:0.8;"/>
     </g>
     <g id="line2d_42">
      <g>
       <use style="stroke:#000000;stroke-width:0.8;" x="76.5" xlink:href="#m77ceb31242" y="99.288"/>
      </g>
     </g>
     <g id="text_22">
      <!-- 0.9 -->
      <g transform="translate(53.596875 103.087219)scale(0.1 -0.1)">
       <use xlink:href="#DejaVuSans-48"/>
       <use x="63.623047" xlink:href="#DejaVuSans-46"/>
       <use x="95.410156" xlink:href="#DejaVuSans-57"/>
      </g>
     </g>
    </g>
    <g id="ytick_11">
     <g id="line2d_43">
      <path clip-path="url(#p53554d7593)" d="M 76.5 60.48 
L 550.8 60.48 
" style="fill:none;stroke:#b0b0b0;stroke-linecap:square;stroke-width:0.8;"/>
     </g>
     <g id="line2d_44">
      <g>
       <use style="stroke:#000000;stroke-width:0.8;" x="76.5" xlink:href="#m77ceb31242" y="60.48"/>
      </g>
     </g>
     <g id="text_23">
      <!-- 1.0 -->
      <g transform="translate(53.596875 64.279219)scale(0.1 -0.1)">
       <use xlink:href="#DejaVuSans-49"/>
       <use x="63.623047" xlink:href="#DejaVuSans-46"/>
       <use x="95.410156" xlink:href="#DejaVuSans-48"/>
      </g>
     </g>
    </g>
    <g id="text_24">
     <!-- #correct/873 -->
     <defs>
      <path d="M 51.125 44 
L 36.921875 44 
L 32.8125 27.6875 
L 47.125 27.6875 
z
M 43.796875 71.78125 
L 38.71875 51.515625 
L 52.984375 51.515625 
L 58.109375 71.78125 
L 65.921875 71.78125 
L 60.890625 51.515625 
L 76.125 51.515625 
L 76.125 44 
L 58.984375 44 
L 54.984375 27.6875 
L 70.515625 27.6875 
L 70.515625 20.21875 
L 53.078125 20.21875 
L 48 0 
L 40.1875 0 
L 45.21875 20.21875 
L 30.90625 20.21875 
L 25.875 0 
L 18.015625 0 
L 23.09375 20.21875 
L 7.71875 20.21875 
L 7.71875 27.6875 
L 24.90625 27.6875 
L 29 44 
L 13.28125 44 
L 13.28125 51.515625 
L 30.90625 51.515625 
L 35.890625 71.78125 
z
" id="DejaVuSans-35"/>
      <path d="M 18.3125 70.21875 
L 18.3125 54.6875 
L 36.8125 54.6875 
L 36.8125 47.703125 
L 18.3125 47.703125 
L 18.3125 18.015625 
Q 18.3125 11.328125 20.140625 9.421875 
Q 21.96875 7.515625 27.59375 7.515625 
L 36.8125 7.515625 
L 36.8125 0 
L 27.59375 0 
Q 17.1875 0 13.234375 3.875 
Q 9.28125 7.765625 9.28125 18.015625 
L 9.28125 47.703125 
L 2.6875 47.703125 
L 2.6875 54.6875 
L 9.28125 54.6875 
L 9.28125 70.21875 
z
" id="DejaVuSans-116"/>
      <path d="M 25.390625 72.90625 
L 33.6875 72.90625 
L 8.296875 -9.28125 
L 0 -9.28125 
z
" id="DejaVuSans-47"/>
     </defs>
     <g transform="translate(47.517187 287.443438)rotate(-90)scale(0.1 -0.1)">
      <use xlink:href="#DejaVuSans-35"/>
      <use x="83.789062" xlink:href="#DejaVuSans-99"/>
      <use x="138.769531" xlink:href="#DejaVuSans-111"/>
      <use x="199.951172" xlink:href="#DejaVuSans-114"/>
      <use x="239.314453" xlink:href="#DejaVuSans-114"/>
      <use x="278.177734" xlink:href="#DejaVuSans-101"/>
      <use x="339.701172" xlink:href="#DejaVuSans-99"/>
      <use x="394.681641" xlink:href="#DejaVuSans-116"/>
      <use x="433.890625" xlink:href="#DejaVuSans-47"/>
      <use x="467.582031" xlink:href="#DejaVuSans-56"/>
      <use x="531.205078" xlink:href="#DejaVuSans-55"/>
      <use x="594.828125" xlink:href="#DejaVuSans-51"/>
     </g>
    </g>
   </g>
   <g id="line2d_45">
    <path clip-path="url(#p53554d7593)" d="M 76.5 448.115464 
L 76.5 292.972371 
L 77.851282 292.972371 
L 77.751451 280.525361 
L 78.996316 280.525361 
L 78.932308 276.08 
L 82.534351 276.08 
L 82.214458 266.300206 
L 83.340865 266.300206 
L 83.275714 264.522062 
L 84.386223 264.522062 
L 84.367536 264.077526 
L 85.470213 264.077526 
L 85.365421 261.854845 
L 86.45035 261.854845 
L 86.028348 253.40866 
L 87.063474 253.40866 
L 86.279381 237.405361 
L 88.187064 237.405361 
L 88.068293 235.18268 
L 89.006897 235.18268 
L 88.856513 232.515464 
L 89.7804 232.515464 
L 89.622925 229.848247 
L 90.532544 229.848247 
L 90.181731 224.069278 
L 91.065835 224.069278 
L 90.818491 220.068454 
L 92.547744 220.068454 
L 92.022545 212.066804 
L 93.684783 212.066804 
L 93.289381 206.287835 
L 94.097703 206.287835 
L 93.381864 195.618969 
L 94.155838 195.618969 
L 93.63399 187.61732 
L 95.130442 187.61732 
L 94.86 183.616495 
L 96.326045 183.616495 
L 96.136624 180.949278 
L 96.859459 180.949278 
L 96.794929 180.060206 
L 97.513291 180.060206 
L 97.283099 176.948454 
L 97.991719 176.948454 
L 97.825116 174.725773 
L 99.225348 174.725773 
L 99.085714 172.947629 
L 99.778528 172.947629 
L 99.742879 172.503093 
L 100.432569 172.503093 
L 100.359604 171.614021 
L 101.045205 171.614021 
L 101.007903 171.169485 
L 101.69044 171.169485 
L 101.313901 166.724124 
L 101.984776 166.724124 
L 101.61 162.278763 
L 102.269604 162.278763 
L 102.081778 160.056082 
L 102.734934 160.056082 
L 102.545376 157.833402 
L 103.192208 157.833402 
L 103.153746 157.388866 
L 103.797842 157.388866 
L 103.719512 156.499794 
L 104.998712 156.499794 
L 104.876923 155.166186 
L 105.511238 155.166186 
L 105.470028 154.721649 
L 106.101702 154.721649 
L 106.017963 153.832577 
L 107.272638 153.832577 
L 107.229296 153.388041 
L 108.475281 153.388041 
L 108.252301 151.165361 
L 108.868663 151.165361 
L 108.689335 149.387216 
L 109.30083 149.387216 
L 109.255525 148.94268 
L 109.864552 148.94268 
L 109.681481 147.164536 
L 110.285753 147.164536 
L 110.193443 146.275464 
L 111.394005 146.275464 
L 111.111081 143.608247 
L 112.886406 143.608247 
L 112.74008 142.274639 
L 113.911364 142.274639 
L 113.712367 140.496495 
L 114.871751 140.496495 
L 114.719683 139.162887 
L 115.294987 139.162887 
L 115.192895 138.273814 
L 115.765309 138.273814 
L 115.611126 136.940206 
L 116.747389 136.940206 
L 116.694915 136.49567 
L 117.260156 136.49567 
L 117.207152 136.051134 
L 119.450841 136.051134 
L 119.395349 135.606598 
L 121.061004 135.606598 
L 120.946598 134.717526 
L 123.68801 134.717526 
L 123.567939 133.828454 
L 124.652284 133.828454 
L 124.591255 133.383918 
L 125.6689 133.383918 
L 125.606818 132.939381 
L 126.677834 132.939381 
L 126.551759 132.050309 
L 127.084065 132.050309 
L 126.957447 131.161237 
L 129.068742 131.161237 
L 128.938137 130.272165 
L 129.461538 130.272165 
L 129.395911 129.827629 
L 130.437701 129.827629 
L 130.172325 128.049485 
L 130.689066 128.049485 
L 130.622577 127.604948 
L 131.1375 127.604948 
L 131.070624 127.160412 
L 131.583741 127.160412 
L 131.516484 126.715876 
L 133.046715 126.715876 
L 132.909466 125.826804 
L 134.928261 125.826804 
L 134.577551 123.604124 
L 136.071172 123.604124 
L 136 123.159588 
L 136.988796 123.159588 
L 136.773278 121.825979 
L 137.754384 121.825979 
L 137.681893 121.381443 
L 138.170213 121.381443 
L 138.097403 120.936907 
L 138.58408 120.936907 
L 138.510954 120.492371 
L 139.479906 120.492371 
L 139.405986 120.047835 
L 141.328388 120.047835 
L 141.252742 119.603299 
L 141.73007 119.603299 
L 141.578372 118.714227 
L 143.943815 118.714227 
L 143.865935 118.269691 
L 146.201952 118.269691 
L 146.042268 117.380619 
L 146.505378 117.380619 
L 146.425371 116.936082 
L 146.886986 116.936082 
L 146.806727 116.491546 
L 147.266856 116.491546 
L 147.186348 116.04701 
L 148.102611 116.04701 
L 148.021429 115.602474 
L 150.291883 115.602474 
L 150.208784 115.157938 
L 151.108989 115.157938 
L 151.025253 114.713402 
L 151.920605 114.713402 
L 151.836242 114.268866 
L 152.726786 114.268866 
L 152.557016 113.379794 
L 153.442 113.379794 
L 153.356604 112.935258 
L 154.675553 112.935258 
L 154.589171 112.490722 
L 155.02649 112.490722 
L 154.939912 112.046186 
L 156.678046 112.046186 
L 156.590132 111.601649 
L 157.882623 111.601649 
L 157.793777 111.157113 
L 158.222356 111.157113 
L 158.133333 110.712577 
L 160.683117 110.712577 
L 160.592108 110.268041 
L 161.853556 110.268041 
L 161.761679 109.823505 
L 162.597422 109.823505 
L 162.505043 109.378969 
L 165.399681 109.378969 
L 165.305106 108.934433 
L 165.714772 108.934433 
L 165.525557 108.045361 
L 165.933686 108.045361 
L 165.839048 107.600825 
L 167.865158 107.600825 
L 167.769085 107.156289 
L 168.572928 107.156289 
L 168.476415 106.711753 
L 171.655821 106.711753 
L 171.557009 106.267216 
L 173.12575 106.267216 
L 173.02593 105.82268 
L 175.35308 105.82268 
L 175.049539 104.489072 
L 179.608696 104.489072 
L 179.504545 104.044536 
L 180.998692 104.044536 
L 180.893668 103.6 
L 182.7432 103.6 
L 182.637063 103.155464 
L 183.737151 103.155464 
L 183.523956 102.266392 
L 187.49646 102.266392 
L 187.387426 101.821856 
L 188.1 101.821856 
L 187.990695 101.37732 
L 189.406537 101.37732 
L 189.296491 100.932784 
L 190.350437 100.932784 
L 190.239903 100.488247 
L 190.938663 100.488247 
L 190.82788 100.043711 
L 193.937044 100.043711 
L 193.824449 99.599175 
L 194.166379 99.599175 
L 193.941396 98.710103 
L 200.964855 98.710103 
L 200.848315 98.265567 
L 202.803352 98.265567 
L 202.68586 97.821031 
L 207.791109 97.821031 
L 207.670879 97.376495 
L 208.610959 97.376495 
L 208.49042 96.931959 
L 212.503066 96.931959 
L 212.380541 96.487423 
L 216.29813 96.487423 
L 216.173754 96.042887 
L 217.360372 96.042887 
L 217.235607 95.598351 
L 218.413239 95.598351 
L 218.288095 95.153814 
L 220.906299 95.153814 
L 220.78007 94.709278 
L 222.216188 94.709278 
L 222.089478 94.264742 
L 223.512468 94.264742 
L 223.385294 93.820206 
L 223.66828 93.820206 
L 223.541192 93.37567 
L 224.386822 93.37567 
L 224.259552 92.931134 
L 227.321739 92.931134 
L 227.193271 92.486598 
L 232.347108 92.486598 
L 232.216583 92.042062 
L 234.6 92.042062 
L 234.468688 91.597526 
L 236.815746 91.597526 
L 236.68369 91.15299 
L 243.517808 91.15299 
L 243.383333 90.708454 
L 244.615958 90.708454 
L 244.48125 90.263918 
L 248.597787 90.263918 
L 248.461848 89.819381 
L 248.700474 89.819381 
L 248.564669 89.374845 
L 256.908589 89.374845 
L 256.770345 88.930309 
L 259.22804 88.930309 
L 259.089294 88.485773 
L 264.949554 88.485773 
L 264.809442 88.041237 
L 274.465733 88.041237 
L 274.323618 87.596701 
L 274.72 87.596701 
L 274.578009 87.152165 
L 276.347402 87.152165 
L 276.205263 86.707629 
L 286.723256 86.707629 
L 286.579563 86.263093 
L 294.464125 86.263093 
L 294.319682 85.818557 
L 306.309286 85.818557 
L 306.164205 85.374021 
L 306.626654 85.374021 
L 306.481738 84.929485 
L 326.276042 84.929485 
L 326.276042 84.929485 
" style="fill:none;stroke:#1f77b4;stroke-linecap:square;stroke-width:2;"/>
   </g>
   <g id="line2d_46">
    <path clip-path="url(#p53554d7593)" d="M 76.5 448.115464 
L 76.5 445.448247 
L 135.7875 445.448247 
L 123.93 444.559175 
L 116.025 443.670103 
L 110.378571 442.781031 
L 106.14375 441.891959 
L 102.85 441.002887 
L 100.215 440.113814 
L 97.121739 438.780206 
L 94.742308 437.446598 
L 92.855172 436.11299 
L 91.321875 434.779381 
L 89.675 433.001237 
L 88.3575 431.223093 
L 87.04 429.000412 
L 85.986 426.777732 
L 84.969643 424.110515 
L 84.028571 420.998763 
L 83.180282 417.442474 
L 82.355556 412.997113 
L 81.829213 409.440825 
L 87.04 409.440825 
L 85.986 404.995464 
L 84.969643 399.661031 
L 84.27541 395.21567 
L 88.068293 395.21567 
L 87.118657 390.325773 
L 90.553333 390.325773 
L 89.318919 384.546804 
L 89.148 383.657732 
L 92.205298 383.657732 
L 90.872727 377.434227 
L 90.786145 376.989691 
L 93.540719 376.989691 
L 92.398324 371.655258 
L 94.945 371.655258 
L 94.843094 371.210722 
L 97.348352 371.210722 
L 97.234426 370.766186 
L 102.137838 370.766186 
L 101.595238 368.988041 
L 103.959474 368.988041 
L 103.532642 367.654433 
L 108.12 367.654433 
L 107.798985 366.765361 
L 110.036364 366.765361 
L 109.701 365.876289 
L 111.895522 365.876289 
L 111.375 364.54268 
L 119.825481 364.54268 
L 119.412857 363.653608 
L 121.457346 363.653608 
L 121.035211 362.764536 
L 128.957143 362.764536 
L 128.007692 360.986392 
L 129.912162 360.986392 
L 129.2 359.652784 
L 131.065487 359.652784 
L 130.82511 359.208247 
L 132.667105 359.208247 
L 131.461803 356.985567 
L 133.253846 356.985567 
L 132.772881 356.096495 
L 134.536709 356.096495 
L 134.292857 355.651959 
L 137.76375 355.651959 
L 136.759426 353.873814 
L 141.788259 353.873814 
L 141.525 353.429278 
L 143.168675 353.429278 
L 142.63745 352.540206 
L 144.257143 352.540206 
L 143.46 351.206598 
L 145.051172 351.206598 
L 144.784436 350.762062 
L 147.919691 350.762062 
L 147.645 350.317526 
L 149.189655 350.317526 
L 148.912214 349.87299 
L 151.956818 349.87299 
L 151.389474 348.983918 
L 152.885393 348.983918 
L 152.317472 348.094845 
L 155.258303 348.094845 
L 153.831522 345.872165 
L 158.1 345.872165 
L 157.519217 344.983093 
L 158.91383 344.983093 
L 158.622615 344.538557 
L 162.736364 344.538557 
L 162.435889 344.094021 
L 166.453448 344.094021 
L 165.837329 343.204948 
L 169.752203 343.204948 
L 169.437162 342.760412 
L 170.721212 342.760412 
L 170.405034 342.315876 
L 171.677258 342.315876 
L 171.36 341.87134 
L 176.352632 341.87134 
L 176.025246 341.426804 
L 178.466775 341.426804 
L 177.806796 340.537732 
L 183.746178 340.537732 
L 183.067405 339.64866 
L 185.380189 339.64866 
L 185.038871 339.204124 
L 186.181875 339.204124 
L 185.840187 338.759588 
L 188.1 338.759588 
L 187.413231 337.870515 
L 190.73689 337.870515 
L 190.044545 336.981443 
L 195.428955 336.981443 
L 194.723145 336.092371 
L 195.776627 336.092371 
L 195.075 335.203299 
L 197.155263 335.203299 
L 196.803499 334.758763 
L 198.855652 334.758763 
L 198.502023 334.314227 
L 199.517291 334.314227 
L 198.115385 332.536082 
L 205.974652 332.536082 
L 205.615 332.091546 
L 206.571191 332.091546 
L 205.854545 331.202474 
L 206.802198 331.202474 
L 206.090164 330.313402 
L 207.029428 330.313402 
L 206.674728 329.868866 
L 207.607317 329.868866 
L 206.900539 328.979794 
L 208.744504 328.979794 
L 208.0392 328.090722 
L 210.759524 328.090722 
L 210.405277 327.646186 
L 211.301053 327.646186 
L 210.947244 327.201649 
L 215.349482 327.201649 
L 214.990698 326.757113 
L 215.856186 326.757113 
L 215.141538 325.868041 
L 216 325.868041 
L 215.644133 325.423505 
L 216.496947 325.423505 
L 215.788101 324.534433 
L 216.634091 324.534433 
L 215.23275 322.756289 
L 216.069576 322.756289 
L 215.722388 322.311753 
L 219.023645 322.311753 
L 218.673464 321.867216 
L 220.297555 321.867216 
L 218.904843 320.089072 
L 221.298317 320.089072 
L 220.605502 319.2 
L 223.735308 319.2 
L 223.040802 318.310928 
L 226.103972 318.310928 
L 225.755245 317.866392 
L 228.0125 317.866392 
L 227.662587 317.421856 
L 228.407143 317.421856 
L 228.057931 316.97732 
L 230.268493 316.97732 
L 229.222449 315.643711 
L 232.827578 315.643711 
L 232.477852 315.199175 
L 234.6 315.199175 
L 234.249446 314.754639 
L 235.64702 314.754639 
L 234.947473 313.865567 
L 235.640132 313.865567 
L 235.291904 313.421031 
L 235.980786 313.421031 
L 235.633333 312.976495 
L 237.000651 312.976495 
L 236.307343 312.087423 
L 238.331974 312.087423 
L 237.985439 311.642887 
L 242.605063 311.642887 
L 242.255368 311.198351 
L 245.469375 311.198351 
L 245.118087 310.753814 
L 245.752282 310.753814 
L 245.052893 309.864742 
L 246.311111 309.864742 
L 245.962423 309.420206 
L 248.445825 309.420206 
L 248.096341 308.97567 
L 250.5375 308.97567 
L 250.187324 308.531134 
L 253.773161 308.531134 
L 253.421429 308.086598 
L 254.010297 308.086598 
L 253.659486 307.642062 
L 254.829331 307.642062 
L 254.13 306.75299 
L 257.010291 306.75299 
L 256.311992 305.863918 
L 258.010962 305.863918 
L 257.662572 305.419381 
L 259.34084 305.419381 
L 258.992571 304.974845 
L 261.199055 304.974845 
L 260.50339 304.085773 
L 264.280483 304.085773 
L 263.932096 303.641237 
L 264.463333 303.641237 
L 263.424862 302.307629 
L 266.046898 302.307629 
L 265.701639 301.863093 
L 268.783784 301.863093 
L 268.43795 301.418557 
L 273.426678 301.418557 
L 273.079365 300.974021 
L 276.466202 300.974021 
L 275.771875 300.084948 
L 277.668621 300.084948 
L 277.322375 299.640412 
L 277.792268 299.640412 
L 277.446998 299.195876 
L 277.915068 299.195876 
L 277.570769 298.75134 
L 278.501704 298.75134 
L 278.158163 298.306804 
L 279.082373 298.306804 
L 278.397973 297.417732 
L 278.857336 297.417732 
L 278.177143 296.52866 
L 279.544816 296.52866 
L 278.868 295.639588 
L 281.560396 295.639588 
L 281.22257 295.195052 
L 282.987398 295.195052 
L 281.978502 293.861443 
L 284.149919 293.861443 
L 283.815 293.416907 
L 284.244928 293.416907 
L 283.57801 292.527835 
L 284.00625 292.527835 
L 283.67424 292.083299 
L 284.100958 292.083299 
L 283.769856 291.638763 
L 288.784507 291.638763 
L 288.452813 291.194227 
L 291.691667 291.194227 
L 291.360092 290.749691 
L 292.157143 290.749691 
L 291.82638 290.305155 
L 292.618349 290.305155 
L 292.288397 289.860619 
L 296.175789 289.860619 
L 295.845946 289.416082 
L 297.745753 289.416082 
L 297.416518 288.971546 
L 298.542667 288.971546 
L 298.214201 288.52701 
L 299.7 288.52701 
L 299.372247 288.082474 
L 300.475 288.082474 
L 300.148029 287.637938 
L 301.964348 287.637938 
L 301.638061 287.193402 
L 304.4897 287.193402 
L 304.164 286.748866 
L 309 286.748866 
L 308.674825 286.30433 
L 309.68649 286.30433 
L 309.36217 285.859794 
L 310.697925 285.859794 
L 310.374448 285.415258 
L 314.294429 285.415258 
L 313.971777 284.970722 
L 315.250202 284.970722 
L 314.928437 284.526186 
L 317.4444 284.526186 
L 317.123569 284.081649 
L 318.053316 284.081649 
L 317.733377 283.637113 
L 318.655805 283.637113 
L 318.336759 283.192577 
L 318.9477 283.192577 
L 318.629528 282.748041 
L 319.54 282.748041 
L 319.222715 282.303505 
L 321.616279 282.303505 
L 320.984536 281.414433 
L 321.575321 281.414433 
L 321.260719 280.969897 
L 321.555 280.969897 
L 321.241229 280.525361 
L 322.119643 280.525361 
L 321.806752 280.080825 
L 324.971231 280.080825 
L 324.659473 279.636289 
L 324.942857 279.636289 
L 324.631915 279.191753 
L 326.038433 279.191753 
L 325.728447 278.747216 
L 326.841286 278.747216 
L 326.532222 278.30268 
L 327.084606 278.30268 
L 326.776384 277.858144 
L 330.568803 277.858144 
L 330.261957 277.413608 
L 332.633333 277.413608 
L 332.327685 276.969072 
L 333.365558 276.969072 
L 333.060854 276.524536 
L 333.576213 276.524536 
L 333.27234 276.08 
L 333.785377 276.08 
L 333.482332 275.635464 
L 334.247535 275.635464 
L 333.945369 275.190928 
L 334.199297 275.190928 
L 333.897895 274.746392 
L 334.656294 274.746392 
L 334.355763 274.301856 
L 336.105312 274.301856 
L 335.805882 273.85732 
L 336.547241 273.85732 
L 336.24868 273.412784 
L 337.716534 273.412784 
L 337.122184 272.523711 
L 338.810384 272.523711 
L 338.514656 272.079175 
L 338.753716 272.079175 
L 338.458718 271.634639 
L 338.697303 271.634639 
L 338.40303 271.190103 
L 339.352291 271.190103 
L 339.058929 270.745567 
L 340 270.745567 
L 339.707547 270.301031 
L 341.103969 270.301031 
L 340.812555 269.856495 
L 342.419016 269.856495 
L 342.128712 269.411959 
L 342.35627 269.411959 
L 342.066667 268.967423 
L 342.972234 268.967423 
L 342.395455 268.078351 
L 343.069903 268.078351 
L 342.782651 267.633814 
L 343.675429 267.633814 
L 343.389068 267.189278 
L 343.611135 267.189278 
L 343.325455 266.744742 
L 344.648353 266.744742 
L 344.363694 266.300206 
L 349.283938 266.300206 
L 349.001553 265.85567 
L 350.247222 265.85567 
L 349.965879 265.411134 
L 350.992638 265.411134 
L 350.712257 264.966598 
L 351.120183 264.966598 
L 350.561445 264.077526 
L 352.577946 264.077526 
L 352.023015 263.188454 
L 353.411677 263.188454 
L 352.86006 262.299381 
L 353.253579 262.299381 
L 352.978749 261.854845 
L 354.731102 261.854845 
L 354.457522 261.410309 
L 354.650393 261.410309 
L 354.377429 260.965773 
L 354.762194 260.965773 
L 354.489922 260.521237 
L 355.445667 260.521237 
L 355.174319 260.076701 
L 355.932558 260.076701 
L 355.662052 259.632165 
L 356.602023 259.632165 
L 356.332435 259.187629 
L 357.448995 259.187629 
L 357.180402 258.743093 
L 357.734128 258.743093 
L 357.198953 257.854021 
L 359.204237 257.854021 
L 358.938288 257.409485 
L 360.193458 257.409485 
L 359.928571 256.964948 
L 362.910938 256.964948 
L 362.647934 256.520412 
L 362.992851 256.520412 
L 362.730495 256.075876 
L 364.437114 256.075876 
L 364.176065 255.63134 
L 364.682278 255.63134 
L 364.421951 255.186804 
L 365.759193 255.186804 
L 365.5 254.742268 
L 366.161786 254.742268 
L 365.90339 254.297732 
L 367.538196 254.297732 
L 367.281095 253.853196 
L 367.927289 253.853196 
L 367.670976 253.40866 
L 369.109162 253.40866 
L 368.854054 252.964124 
L 370.426621 252.964124 
L 370.172798 252.519588 
L 371.258112 252.519588 
L 371.005317 252.075052 
L 372.685641 252.075052 
L 372.434211 251.630515 
L 373.188081 251.630515 
L 372.687342 250.741443 
L 375.49809 250.741443 
L 375.249959 250.296907 
L 378.678112 250.296907 
L 378.432439 249.852371 
L 378.572461 249.852371 
L 378.327273 249.407835 
L 379.301695 249.407835 
L 379.0575 248.963299 
L 379.334058 248.963299 
L 379.090426 248.518763 
L 379.228457 248.518763 
L 378.985301 248.074227 
L 380.218421 248.074227 
L 379.976414 247.629691 
L 381.058432 247.629691 
L 380.817484 247.185155 
L 381.219968 247.185155 
L 380.979653 246.740619 
L 381.113475 246.740619 
L 380.873622 246.296082 
L 381.407143 246.296082 
L 381.168 245.851546 
L 381.30094 245.851546 
L 381.062255 245.40701 
L 381.856041 245.40701 
L 381.618224 244.962474 
L 382.925657 244.962474 
L 382.689035 244.517938 
L 383.84931 244.517938 
L 383.613793 244.073402 
L 386.012991 244.073402 
L 385.779396 243.628866 
L 385.903846 243.628866 
L 388.955218 243.628866 
L 388.724112 243.18433 
L 388.843902 243.18433 
L 392.012609 243.18433 
L 391.784142 242.739794 
L 391.899204 242.739794 
L 393.605369 242.739794 
L 393.378541 242.295258 
L 393.491065 242.295258 
L 393.715632 242.295258 
L 393.489372 241.850722 
L 393.601497 241.850722 
L 394.934629 241.850722 
L 394.48518 240.961649 
L 394.595416 240.961649 
L 398.358087 240.961649 
L 398.020673 240.072577 
L 398.751675 240.072577 
L 398.311741 239.183505 
L 398.415757 239.183505 
L 398.933719 239.183505 
L 398.714674 238.738969 
L 398.817923 238.738969 
L 400.551946 238.738969 
L 400.334608 238.294433 
L 400.435456 238.294433 
L 402.129423 238.294433 
L 401.913775 237.849897 
L 402.01231 237.849897 
L 402.795918 237.849897 
L 402.58125 237.405361 
L 402.678698 237.405361 
L 404.220625 237.405361 
L 404.007542 236.960825 
L 404.102924 236.960825 
L 404.767141 236.960825 
L 404.554945 236.516289 
L 404.649419 236.516289 
L 405.400835 236.516289 
L 405.189595 236.071753 
L 405.283055 236.071753 
L 407.852081 236.071753 
L 407.643289 235.627216 
L 407.733438 235.627216 
L 412.269695 235.627216 
L 411.860719 234.738144 
L 411.945283 234.738144 
L 412.029745 234.738144 
L 411.825775 234.293608 
L 411.910207 234.293608 
L 413.164479 234.293608 
L 412.759591 233.404536 
L 412.842548 233.404536 
L 414.96497 233.404536 
L 414.764814 232.96 
L 414.845213 232.96 
L 415.085841 232.96 
L 414.886203 232.515464 
L 414.966293 232.515464 
L 417.403125 232.515464 
L 417.403125 232.515464 
" style="fill:none;stroke:#ff7f0e;stroke-linecap:square;stroke-width:2;"/>
   </g>
   <g id="line2d_47">
    <path clip-path="url(#p53554d7593)" d="M 76.5 448.115464 
L 76.5 369.432577 
L 79.149721 369.432577 
L 78.655909 351.206598 
L 78.553247 346.316701 
L 80.588793 346.316701 
L 80.325 339.204124 
L 82.214458 339.204124 
L 81.475175 322.756289 
L 81.017143 309.864742 
L 82.503797 309.864742 
L 81.814286 291.638763 
L 83.124302 291.638763 
L 83.0875 290.749691 
L 84.383102 290.749691 
L 84.27541 288.52701 
L 89.318919 288.52701 
L 89.284367 288.082474 
L 90.525 288.082474 
L 90.338992 285.859794 
L 91.557143 285.859794 
L 91.245078 282.303505 
L 92.432558 282.303505 
L 92.350643 281.414433 
L 93.526154 281.414433 
L 93.310633 279.191753 
L 94.465909 279.191753 
L 94.241895 276.969072 
L 95.377612 276.969072 
L 95.054523 273.85732 
L 96.166098 273.85732 
L 96.070631 272.968247 
L 97.171671 272.968247 
L 96.447196 266.300206 
L 97.506294 266.300206 
L 97.408817 265.411134 
L 99.503002 265.411134 
L 99.397241 264.522062 
L 100.432569 264.522062 
L 100.377803 264.077526 
L 101.406164 264.077526 
L 100.475604 256.520412 
L 101.463158 256.520412 
L 101.408534 256.075876 
L 102.389738 256.075876 
L 102.333333 255.63134 
L 103.308261 255.63134 
L 103.134557 254.297732 
L 104.099353 254.297732 
L 103.863462 252.519588 
L 104.816418 252.519588 
L 104.458737 249.852371 
L 105.396429 249.852371 
L 104.801852 245.40701 
L 107.538037 245.40701 
L 107.474694 244.962474 
L 108.377597 244.962474 
L 107.992757 242.295258 
L 108.881928 242.295258 
L 108.7524 241.406186 
L 109.634731 241.406186 
L 109.502982 240.517113 
L 110.378571 240.517113 
L 110.178107 239.183505 
L 111.045472 239.183505 
L 110.91 238.294433 
L 111.770841 238.294433 
L 111.496893 236.516289 
L 112.348256 236.516289 
L 112.209846 235.627216 
L 113.054913 235.627216 
L 112.775335 233.849072 
L 114.444 233.849072 
L 113.944737 230.73732 
L 114.764353 230.73732 
L 114.408736 228.514639 
L 115.218367 228.514639 
L 114.8625 226.291959 
L 117.253382 226.291959 
L 116.665946 222.73567 
L 117.446763 222.73567 
L 117.37325 222.291134 
L 118.15 222.291134 
L 118.075492 221.846598 
L 118.848214 221.846598 
L 118.325397 218.734845 
L 119.845518 218.734845 
L 119.393217 216.067629 
L 120.142188 216.067629 
L 120.066551 215.623093 
L 120.811765 215.623093 
L 120.735233 215.178557 
L 122.952062 215.178557 
L 122.4 212.066804 
L 123.126102 212.066804 
L 123.047208 211.622268 
L 125.922857 211.622268 
L 125.757286 210.733196 
L 127.176461 210.733196 
L 126.92392 209.399588 
L 128.327483 209.399588 
L 128.241818 208.955052 
L 129.634102 208.955052 
L 129.546711 208.510515 
L 130.238424 208.510515 
L 130.150328 208.065979 
L 132.208972 208.065979 
L 131.758252 205.843299 
L 134.453055 205.843299 
L 134.267308 204.954227 
L 136.260287 204.954227 
L 135.881458 203.176082 
L 136.537975 203.176082 
L 136.34858 202.28701 
L 137.00126 202.28701 
L 136.906132 201.842474 
L 138.849296 201.842474 
L 138.654758 200.953402 
L 139.936703 200.953402 
L 139.838199 200.508866 
L 140.475349 200.508866 
L 140.376316 200.06433 
L 141.010665 200.06433 
L 140.712923 198.730722 
L 141.970859 198.730722 
L 141.571646 196.952577 
L 142.815502 196.952577 
L 142.514523 195.618969 
L 143.746154 195.618969 
L 143.64488 195.174433 
L 144.257143 195.174433 
L 144.155405 194.729897 
L 144.765067 194.729897 
L 144.560987 193.840825 
L 145.771833 193.840825 
L 145.66875 193.396289 
L 146.87092 193.396289 
L 146.662722 192.507216 
L 147.259675 192.507216 
L 146.844053 190.729072 
L 147.436364 190.729072 
L 147.228947 189.84 
L 149.575291 189.84 
L 149.469231 189.395464 
L 150.630825 189.395464 
L 150.310375 188.061856 
L 151.461207 188.061856 
L 151.246418 187.172784 
L 151.818026 187.172784 
L 151.710429 186.728247 
L 155.66181 186.728247 
L 155.55 186.283711 
L 156.107475 186.283711 
L 155.772051 184.950103 
L 156.326087 184.950103 
L 156.214286 184.505567 
L 157.31648 184.505567 
L 156.979277 183.171959 
L 159.158091 183.171959 
L 158.930069 182.282887 
L 162.146512 182.282887 
L 161.912824 181.393814 
L 162.97102 181.393814 
L 162.853533 180.949278 
L 168.053887 180.949278 
L 167.931325 180.504742 
L 169.970573 180.504742 
L 169.846277 180.060206 
L 171.36 180.060206 
L 171.109379 179.171134 
L 171.61029 179.171134 
L 171.48498 178.726598 
L 171.984079 178.726598 
L 171.60865 177.39299 
L 172.104974 177.39299 
L 171.98 176.948454 
L 173.950455 176.948454 
L 173.32093 174.725773 
L 174.293814 174.725773 
L 174.167954 174.281237 
L 177.53074 174.281237 
L 177.273664 173.392165 
L 177.748285 173.392165 
L 177.491635 172.503093 
L 180.774497 172.503093 
L 180.513158 171.614021 
L 180.976596 171.614021 
L 180.846 171.169485 
L 181.307865 171.169485 
L 181.046824 170.280412 
L 181.506716 170.280412 
L 181.376273 169.835876 
L 182.291822 169.835876 
L 182.160891 169.39134 
L 183.524538 169.39134 
L 183.261255 168.502268 
L 185.507824 168.502268 
L 185.374725 168.057732 
L 185.820366 168.057732 
L 185.687211 167.613196 
L 187.897337 167.613196 
L 187.762636 167.16866 
L 188.63848 167.16866 
L 188.368592 166.279588 
L 188.804207 166.279588 
L 188.669388 165.835052 
L 189.9689 165.835052 
L 189.833333 165.390515 
L 192.402491 165.390515 
L 192.265166 164.945979 
L 192.689467 164.945979 
L 192.552128 164.501443 
L 193.818021 164.501443 
L 193.68 164.056907 
L 194.51831 164.056907 
L 194.379953 163.612371 
L 195.629089 163.612371 
L 195.490082 163.167835 
L 195.904196 163.167835 
L 195.765192 162.723299 
L 197.410776 162.723299 
L 197.131214 161.834227 
L 201.970468 161.834227 
L 201.827563 161.389691 
L 202.620682 161.389691 
L 202.477526 160.945155 
L 202.872449 160.945155 
L 202.729332 160.500619 
L 204.298985 160.500619 
L 204.155068 160.056082 
L 204.934045 160.056082 
L 204.646076 159.16701 
L 206.575585 159.16701 
L 206.430735 158.722474 
L 210.223348 158.722474 
L 209.929451 157.833402 
L 210.676974 157.833402 
L 210.530011 157.388866 
L 211.644432 157.388866 
L 211.35 156.499794 
L 211.719369 156.499794 
L 211.572391 156.055258 
L 211.940717 156.055258 
L 211.793818 155.610722 
L 212.893297 155.610722 
L 212.746004 155.166186 
L 213.837675 155.166186 
L 213.69 154.721649 
L 217.630712 154.721649 
L 217.480892 154.277113 
L 219.939515 154.277113 
L 219.4875 152.943505 
L 224.28913 152.943505 
L 224.136298 152.498969 
L 224.47376 152.498969 
L 224.321053 152.054433 
L 225.328704 152.054433 
L 225.023101 151.165361 
L 229.313982 151.165361 
L 229.004954 150.276289 
L 229.978125 150.276289 
L 229.823565 149.831753 
L 232.388811 149.831753 
L 232.233234 149.387216 
L 235.069139 149.387216 
L 234.756071 148.498144 
L 236.30835 148.498144 
L 236.151521 148.053608 
L 237.993366 148.053608 
L 237.835965 147.609072 
L 239.655523 147.609072 
L 239.49758 147.164536 
L 240.09913 147.164536 
L 239.941216 146.72 
L 241.136827 146.72 
L 240.978674 146.275464 
L 241.572771 146.275464 
L 241.256842 145.386392 
L 243.608547 145.386392 
L 243.45 144.941856 
L 244.322327 144.941856 
L 244.163705 144.49732 
L 246.750141 144.49732 
L 246.59073 144.052784 
L 247.159346 144.052784 
L 247 143.608247 
L 247.566263 143.608247 
L 247.406983 143.163711 
L 248.252089 143.163711 
L 248.092764 142.719175 
L 254.416349 142.719175 
L 254.2549 142.274639 
L 255.594309 142.274639 
L 255.432671 141.830103 
L 257.023519 141.830103 
L 256.861614 141.385567 
L 259.215214 141.385567 
L 259.0528 140.941031 
L 260.343717 140.941031 
L 260.181167 140.496495 
L 261.968805 140.496495 
L 261.80597 140.051959 
L 262.312533 140.051959 
L 262.149825 139.607423 
L 262.402362 139.607423 
L 262.23986 139.162887 
L 263.994787 139.162887 
L 263.832031 138.718351 
L 265.072169 138.718351 
L 264.909326 138.273814 
L 265.89346 138.273814 
L 265.73061 137.829278 
L 267.193755 137.829278 
L 267.030769 137.384742 
L 267.756522 137.384742 
L 267.593612 136.940206 
L 268.794656 136.940206 
L 268.631695 136.49567 
L 269.347253 136.49567 
L 269.184375 136.051134 
L 272.93925 136.051134 
L 272.775687 135.606598 
L 274.843636 135.606598 
L 274.679851 135.162062 
L 277.83551 135.162062 
L 277.507335 134.27299 
L 278.173902 134.27299 
L 278.010073 133.828454 
L 280.426087 133.828454 
L 280.262027 133.383918 
L 284.756725 133.383918 
L 284.592095 132.939381 
L 285.431206 132.939381 
L 285.266693 132.494845 
L 287.546838 132.494845 
L 287.382215 132.050309 
L 291.627629 132.050309 
L 291.462653 131.605773 
L 295.380136 131.605773 
L 295.214943 131.161237 
L 295.792319 131.161237 
L 295.627314 130.716701 
L 302.175 130.716701 
L 302.00967 130.272165 
L 303.459286 130.272165 
L 303.294105 129.827629 
L 308.41005 129.827629 
L 308.244872 129.383093 
L 308.762047 129.383093 
L 308.597088 128.938557 
L 318.020683 128.938557 
L 317.855935 128.494021 
L 320.836364 128.494021 
L 320.507734 127.604948 
L 321.893182 127.604948 
L 321.729259 127.160412 
L 323.400199 127.160412 
L 323.236581 126.715876 
L 329.96836 126.715876 
L 329.805463 126.27134 
L 339.838344 126.27134 
L 339.676885 125.826804 
L 347.288298 125.826804 
L 347.128352 125.382268 
L 351.253646 125.382268 
L 351.253646 125.382268 
" style="fill:none;stroke:#2ca02c;stroke-linecap:square;stroke-width:2;"/>
   </g>
   <g id="patch_3">
    <path d="M 76.5 448.56 
L 76.5 60.48 
" style="fill:none;stroke:#000000;stroke-linecap:square;stroke-linejoin:miter;stroke-width:0.8;"/>
   </g>
   <g id="patch_4">
    <path d="M 550.8 448.56 
L 550.8 60.48 
" style="fill:none;stroke:#000000;stroke-linecap:square;stroke-linejoin:miter;stroke-width:0.8;"/>
   </g>
   <g id="patch_5">
    <path d="M 76.5 448.56 
L 550.8 448.56 
" style="fill:none;stroke:#000000;stroke-linecap:square;stroke-linejoin:miter;stroke-width:0.8;"/>
   </g>
   <g id="patch_6">
    <path d="M 76.5 60.48 
L 550.8 60.48 
" style="fill:none;stroke:#000000;stroke-linecap:square;stroke-linejoin:miter;stroke-width:0.8;"/>
   </g>
   <g id="text_25">
    <!-- bikes: img1-img2 -->
    <defs>
     <path d="M 48.6875 27.296875 
Q 48.6875 37.203125 44.609375 42.84375 
Q 40.53125 48.484375 33.40625 48.484375 
Q 26.265625 48.484375 22.1875 42.84375 
Q 18.109375 37.203125 18.109375 27.296875 
Q 18.109375 17.390625 22.1875 11.75 
Q 26.265625 6.109375 33.40625 6.109375 
Q 40.53125 6.109375 44.609375 11.75 
Q 48.6875 17.390625 48.6875 27.296875 
z
M 18.109375 46.390625 
Q 20.953125 51.265625 25.265625 53.625 
Q 29.59375 56 35.59375 56 
Q 45.5625 56 51.78125 48.09375 
Q 58.015625 40.1875 58.015625 27.296875 
Q 58.015625 14.40625 51.78125 6.484375 
Q 45.5625 -1.421875 35.59375 -1.421875 
Q 29.59375 -1.421875 25.265625 0.953125 
Q 20.953125 3.328125 18.109375 8.203125 
L 18.109375 0 
L 9.078125 0 
L 9.078125 75.984375 
L 18.109375 75.984375 
z
" id="DejaVuSans-98"/>
     <path d="M 9.078125 75.984375 
L 18.109375 75.984375 
L 18.109375 31.109375 
L 44.921875 54.6875 
L 56.390625 54.6875 
L 27.390625 29.109375 
L 57.625 0 
L 45.90625 0 
L 18.109375 26.703125 
L 18.109375 0 
L 9.078125 0 
z
" id="DejaVuSans-107"/>
     <path d="M 11.71875 12.40625 
L 22.015625 12.40625 
L 22.015625 0 
L 11.71875 0 
z
M 11.71875 51.703125 
L 22.015625 51.703125 
L 22.015625 39.3125 
L 11.71875 39.3125 
z
" id="DejaVuSans-58"/>
     <path id="DejaVuSans-32"/>
     <path d="M 52 44.1875 
Q 55.375 50.25 60.0625 53.125 
Q 64.75 56 71.09375 56 
Q 79.640625 56 84.28125 50.015625 
Q 88.921875 44.046875 88.921875 33.015625 
L 88.921875 0 
L 79.890625 0 
L 79.890625 32.71875 
Q 79.890625 40.578125 77.09375 44.375 
Q 74.3125 48.1875 68.609375 48.1875 
Q 61.625 48.1875 57.5625 43.546875 
Q 53.515625 38.921875 53.515625 30.90625 
L 53.515625 0 
L 44.484375 0 
L 44.484375 32.71875 
Q 44.484375 40.625 41.703125 44.40625 
Q 38.921875 48.1875 33.109375 48.1875 
Q 26.21875 48.1875 22.15625 43.53125 
Q 18.109375 38.875 18.109375 30.90625 
L 18.109375 0 
L 9.078125 0 
L 9.078125 54.6875 
L 18.109375 54.6875 
L 18.109375 46.1875 
Q 21.1875 51.21875 25.484375 53.609375 
Q 29.78125 56 35.6875 56 
Q 41.65625 56 45.828125 52.96875 
Q 50 49.953125 52 44.1875 
z
" id="DejaVuSans-109"/>
     <path d="M 45.40625 27.984375 
Q 45.40625 37.75 41.375 43.109375 
Q 37.359375 48.484375 30.078125 48.484375 
Q 22.859375 48.484375 18.828125 43.109375 
Q 14.796875 37.75 14.796875 27.984375 
Q 14.796875 18.265625 18.828125 12.890625 
Q 22.859375 7.515625 30.078125 7.515625 
Q 37.359375 7.515625 41.375 12.890625 
Q 45.40625 18.265625 45.40625 27.984375 
z
M 54.390625 6.78125 
Q 54.390625 -7.171875 48.1875 -13.984375 
Q 42 -20.796875 29.203125 -20.796875 
Q 24.46875 -20.796875 20.265625 -20.09375 
Q 16.0625 -19.390625 12.109375 -17.921875 
L 12.109375 -9.1875 
Q 16.0625 -11.328125 19.921875 -12.34375 
Q 23.78125 -13.375 27.78125 -13.375 
Q 36.625 -13.375 41.015625 -8.765625 
Q 45.40625 -4.15625 45.40625 5.171875 
L 45.40625 9.625 
Q 42.625 4.78125 38.28125 2.390625 
Q 33.9375 0 27.875 0 
Q 17.828125 0 11.671875 7.65625 
Q 5.515625 15.328125 5.515625 27.984375 
Q 5.515625 40.671875 11.671875 48.328125 
Q 17.828125 56 27.875 56 
Q 33.9375 56 38.28125 53.609375 
Q 42.625 51.21875 45.40625 46.390625 
L 45.40625 54.6875 
L 54.390625 54.6875 
z
" id="DejaVuSans-103"/>
    </defs>
    <g transform="translate(261.73125 41.042625)scale(0.12 -0.12)">
     <use xlink:href="#DejaVuSans-98"/>
     <use x="63.476562" xlink:href="#DejaVuSans-105"/>
     <use x="91.259766" xlink:href="#DejaVuSans-107"/>
     <use x="145.544922" xlink:href="#DejaVuSans-101"/>
     <use x="207.068359" xlink:href="#DejaVuSans-115"/>
     <use x="259.167969" xlink:href="#DejaVuSans-58"/>
     <use x="292.859375" xlink:href="#DejaVuSans-32"/>
     <use x="324.646484" xlink:href="#DejaVuSans-105"/>
     <use x="352.429688" xlink:href="#DejaVuSans-109"/>
     <use x="449.841797" xlink:href="#DejaVuSans-103"/>
     <use x="513.318359" xlink:href="#DejaVuSans-49"/>
     <use x="576.941406" xlink:href="#DejaVuSans-45"/>
     <use x="613.025391" xlink:href="#DejaVuSans-105"/>
     <use x="640.808594" xlink:href="#DejaVuSans-109"/>
     <use x="738.220703" xlink:href="#DejaVuSans-103"/>
     <use x="801.697266" xlink:href="#DejaVuSans-50"/>
    </g>
    <!-- NearestNeighbours -->
    <defs>
     <path d="M 9.8125 72.90625 
L 23.09375 72.90625 
L 55.421875 11.921875 
L 55.421875 72.90625 
L 64.984375 72.90625 
L 64.984375 0 
L 51.703125 0 
L 19.390625 60.984375 
L 19.390625 0 
L 9.8125 0 
z
" id="DejaVuSans-78"/>
     <path d="M 34.28125 27.484375 
Q 23.390625 27.484375 19.1875 25 
Q 14.984375 22.515625 14.984375 16.5 
Q 14.984375 11.71875 18.140625 8.90625 
Q 21.296875 6.109375 26.703125 6.109375 
Q 34.1875 6.109375 38.703125 11.40625 
Q 43.21875 16.703125 43.21875 25.484375 
L 43.21875 27.484375 
z
M 52.203125 31.203125 
L 52.203125 0 
L 43.21875 0 
L 43.21875 8.296875 
Q 40.140625 3.328125 35.546875 0.953125 
Q 30.953125 -1.421875 24.3125 -1.421875 
Q 15.921875 -1.421875 10.953125 3.296875 
Q 6 8.015625 6 15.921875 
Q 6 25.140625 12.171875 29.828125 
Q 18.359375 34.515625 30.609375 34.515625 
L 43.21875 34.515625 
L 43.21875 35.40625 
Q 43.21875 41.609375 39.140625 45 
Q 35.0625 48.390625 27.6875 48.390625 
Q 23 48.390625 18.546875 47.265625 
Q 14.109375 46.140625 10.015625 43.890625 
L 10.015625 52.203125 
Q 14.9375 54.109375 19.578125 55.046875 
Q 24.21875 56 28.609375 56 
Q 40.484375 56 46.34375 49.84375 
Q 52.203125 43.703125 52.203125 31.203125 
z
" id="DejaVuSans-97"/>
     <path d="M 54.890625 33.015625 
L 54.890625 0 
L 45.90625 0 
L 45.90625 32.71875 
Q 45.90625 40.484375 42.875 44.328125 
Q 39.84375 48.1875 33.796875 48.1875 
Q 26.515625 48.1875 22.3125 43.546875 
Q 18.109375 38.921875 18.109375 30.90625 
L 18.109375 0 
L 9.078125 0 
L 9.078125 75.984375 
L 18.109375 75.984375 
L 18.109375 46.1875 
Q 21.34375 51.125 25.703125 53.5625 
Q 30.078125 56 35.796875 56 
Q 45.21875 56 50.046875 50.171875 
Q 54.890625 44.34375 54.890625 33.015625 
z
" id="DejaVuSans-104"/>
     <path d="M 8.5 21.578125 
L 8.5 54.6875 
L 17.484375 54.6875 
L 17.484375 21.921875 
Q 17.484375 14.15625 20.5 10.265625 
Q 23.53125 6.390625 29.59375 6.390625 
Q 36.859375 6.390625 41.078125 11.03125 
Q 45.3125 15.671875 45.3125 23.6875 
L 45.3125 54.6875 
L 54.296875 54.6875 
L 54.296875 0 
L 45.3125 0 
L 45.3125 8.40625 
Q 42.046875 3.421875 37.71875 1 
Q 33.40625 -1.421875 27.6875 -1.421875 
Q 18.265625 -1.421875 13.375 4.4375 
Q 8.5 10.296875 8.5 21.578125 
z
M 31.109375 56 
z
" id="DejaVuSans-117"/>
    </defs>
    <g transform="translate(255.957188 54.48)scale(0.12 -0.12)">
     <use xlink:href="#DejaVuSans-78"/>
     <use x="74.804688" xlink:href="#DejaVuSans-101"/>
     <use x="136.328125" xlink:href="#DejaVuSans-97"/>
     <use x="197.607422" xlink:href="#DejaVuSans-114"/>
     <use x="236.470703" xlink:href="#DejaVuSans-101"/>
     <use x="297.994141" xlink:href="#DejaVuSans-115"/>
     <use x="350.09375" xlink:href="#DejaVuSans-116"/>
     <use x="389.302734" xlink:href="#DejaVuSans-78"/>
     <use x="464.107422" xlink:href="#DejaVuSans-101"/>
     <use x="525.630859" xlink:href="#DejaVuSans-105"/>
     <use x="553.414062" xlink:href="#DejaVuSans-103"/>
     <use x="616.890625" xlink:href="#DejaVuSans-104"/>
     <use x="680.269531" xlink:href="#DejaVuSans-98"/>
     <use x="743.746094" xlink:href="#DejaVuSans-111"/>
     <use x="804.927734" xlink:href="#DejaVuSans-117"/>
     <use x="868.306641" xlink:href="#DejaVuSans-114"/>
     <use x="909.419922" xlink:href="#DejaVuSans-115"/>
    </g>
   </g>
   <g id="legend_1">
    <g id="patch_7">
     <path d="M 362.659375 112.514375 
L 543.8 112.514375 
Q 545.8 112.514375 545.8 110.514375 
L 545.8 67.48 
Q 545.8 65.48 543.8 65.48 
L 362.659375 65.48 
Q 360.659375 65.48 360.659375 67.48 
L 360.659375 110.514375 
Q 360.659375 112.514375 362.659375 112.514375 
z
" style="fill:#ffffff;opacity:0.8;stroke:#cccccc;stroke-linejoin:miter;"/>
    </g>
    <g id="line2d_48">
     <path d="M 364.659375 73.578438 
L 384.659375 73.578438 
" style="fill:none;stroke:#1f77b4;stroke-linecap:square;stroke-width:2;"/>
    </g>
    <g id="line2d_49"/>
    <g id="text_26">
     <!-- root-cvsift AP: 89.4, %In: 47.3 -->
     <defs>
      <path d="M 2.984375 54.6875 
L 12.5 54.6875 
L 29.59375 8.796875 
L 46.6875 54.6875 
L 56.203125 54.6875 
L 35.6875 0 
L 23.484375 0 
z
" id="DejaVuSans-118"/>
      <path d="M 37.109375 75.984375 
L 37.109375 68.5 
L 28.515625 68.5 
Q 23.6875 68.5 21.796875 66.546875 
Q 19.921875 64.59375 19.921875 59.515625 
L 19.921875 54.6875 
L 34.71875 54.6875 
L 34.71875 47.703125 
L 19.921875 47.703125 
L 19.921875 0 
L 10.890625 0 
L 10.890625 47.703125 
L 2.296875 47.703125 
L 2.296875 54.6875 
L 10.890625 54.6875 
L 10.890625 58.5 
Q 10.890625 67.625 15.140625 71.796875 
Q 19.390625 75.984375 28.609375 75.984375 
z
" id="DejaVuSans-102"/>
      <path d="M 34.1875 63.1875 
L 20.796875 26.90625 
L 47.609375 26.90625 
z
M 28.609375 72.90625 
L 39.796875 72.90625 
L 67.578125 0 
L 57.328125 0 
L 50.6875 18.703125 
L 17.828125 18.703125 
L 11.1875 0 
L 0.78125 0 
z
" id="DejaVuSans-65"/>
      <path d="M 19.671875 64.796875 
L 19.671875 37.40625 
L 32.078125 37.40625 
Q 38.96875 37.40625 42.71875 40.96875 
Q 46.484375 44.53125 46.484375 51.125 
Q 46.484375 57.671875 42.71875 61.234375 
Q 38.96875 64.796875 32.078125 64.796875 
z
M 9.8125 72.90625 
L 32.078125 72.90625 
Q 44.34375 72.90625 50.609375 67.359375 
Q 56.890625 61.8125 56.890625 51.125 
Q 56.890625 40.328125 50.609375 34.8125 
Q 44.34375 29.296875 32.078125 29.296875 
L 19.671875 29.296875 
L 19.671875 0 
L 9.8125 0 
z
" id="DejaVuSans-80"/>
      <path d="M 11.71875 12.40625 
L 22.015625 12.40625 
L 22.015625 4 
L 14.015625 -11.625 
L 7.71875 -11.625 
L 11.71875 4 
z
" id="DejaVuSans-44"/>
      <path d="M 72.703125 32.078125 
Q 68.453125 32.078125 66.03125 28.46875 
Q 63.625 24.859375 63.625 18.40625 
Q 63.625 12.0625 66.03125 8.421875 
Q 68.453125 4.78125 72.703125 4.78125 
Q 76.859375 4.78125 79.265625 8.421875 
Q 81.6875 12.0625 81.6875 18.40625 
Q 81.6875 24.8125 79.265625 28.4375 
Q 76.859375 32.078125 72.703125 32.078125 
z
M 72.703125 38.28125 
Q 80.421875 38.28125 84.953125 32.90625 
Q 89.5 27.546875 89.5 18.40625 
Q 89.5 9.28125 84.9375 3.921875 
Q 80.375 -1.421875 72.703125 -1.421875 
Q 64.890625 -1.421875 60.34375 3.921875 
Q 55.8125 9.28125 55.8125 18.40625 
Q 55.8125 27.59375 60.375 32.9375 
Q 64.9375 38.28125 72.703125 38.28125 
z
M 22.3125 68.015625 
Q 18.109375 68.015625 15.6875 64.375 
Q 13.28125 60.75 13.28125 54.390625 
Q 13.28125 47.953125 15.671875 44.328125 
Q 18.0625 40.71875 22.3125 40.71875 
Q 26.5625 40.71875 28.96875 44.328125 
Q 31.390625 47.953125 31.390625 54.390625 
Q 31.390625 60.6875 28.953125 64.34375 
Q 26.515625 68.015625 22.3125 68.015625 
z
M 66.40625 74.21875 
L 74.21875 74.21875 
L 28.609375 -1.421875 
L 20.796875 -1.421875 
z
M 22.3125 74.21875 
Q 30.03125 74.21875 34.609375 68.875 
Q 39.203125 63.53125 39.203125 54.390625 
Q 39.203125 45.171875 34.640625 39.84375 
Q 30.078125 34.515625 22.3125 34.515625 
Q 14.546875 34.515625 10.03125 39.859375 
Q 5.515625 45.21875 5.515625 54.390625 
Q 5.515625 63.484375 10.046875 68.84375 
Q 14.59375 74.21875 22.3125 74.21875 
z
" id="DejaVuSans-37"/>
      <path d="M 9.8125 72.90625 
L 19.671875 72.90625 
L 19.671875 0 
L 9.8125 0 
z
" id="DejaVuSans-73"/>
     </defs>
     <g transform="translate(392.659375 77.078438)scale(0.1 -0.1)">
      <use xlink:href="#DejaVuSans-114"/>
      <use x="38.863281" xlink:href="#DejaVuSans-111"/>
      <use x="100.044922" xlink:href="#DejaVuSans-111"/>
      <use x="161.226562" xlink:href="#DejaVuSans-116"/>
      <use x="200.435547" xlink:href="#DejaVuSans-45"/>
      <use x="236.519531" xlink:href="#DejaVuSans-99"/>
      <use x="291.5" xlink:href="#DejaVuSans-118"/>
      <use x="350.679688" xlink:href="#DejaVuSans-115"/>
      <use x="402.779297" xlink:href="#DejaVuSans-105"/>
      <use x="430.5625" xlink:href="#DejaVuSans-102"/>
      <use x="464.017578" xlink:href="#DejaVuSans-116"/>
      <use x="503.226562" xlink:href="#DejaVuSans-32"/>
      <use x="535.013672" xlink:href="#DejaVuSans-65"/>
      <use x="603.421875" xlink:href="#DejaVuSans-80"/>
      <use x="663.724609" xlink:href="#DejaVuSans-58"/>
      <use x="697.416016" xlink:href="#DejaVuSans-32"/>
      <use x="729.203125" xlink:href="#DejaVuSans-56"/>
      <use x="792.826172" xlink:href="#DejaVuSans-57"/>
      <use x="856.449219" xlink:href="#DejaVuSans-46"/>
      <use x="888.236328" xlink:href="#DejaVuSans-52"/>
      <use x="951.859375" xlink:href="#DejaVuSans-44"/>
      <use x="983.646484" xlink:href="#DejaVuSans-32"/>
      <use x="1015.433594" xlink:href="#DejaVuSans-37"/>
      <use x="1110.453125" xlink:href="#DejaVuSans-73"/>
      <use x="1139.945312" xlink:href="#DejaVuSans-110"/>
      <use x="1203.324219" xlink:href="#DejaVuSans-58"/>
      <use x="1237.015625" xlink:href="#DejaVuSans-32"/>
      <use x="1268.802734" xlink:href="#DejaVuSans-52"/>
      <use x="1332.425781" xlink:href="#DejaVuSans-55"/>
      <use x="1396.048828" xlink:href="#DejaVuSans-46"/>
      <use x="1427.835938" xlink:href="#DejaVuSans-51"/>
     </g>
    </g>
    <g id="line2d_50">
     <path d="M 364.659375 88.256563 
L 384.659375 88.256563 
" style="fill:none;stroke:#ff7f0e;stroke-linecap:square;stroke-width:2;"/>
    </g>
    <g id="line2d_51"/>
    <g id="text_27">
     <!-- tfeat AP: 40.9, %In: 28.1 -->
     <g transform="translate(392.659375 91.756563)scale(0.1 -0.1)">
      <use xlink:href="#DejaVuSans-116"/>
      <use x="39.208984" xlink:href="#DejaVuSans-102"/>
      <use x="74.414062" xlink:href="#DejaVuSans-101"/>
      <use x="135.9375" xlink:href="#DejaVuSans-97"/>
      <use x="197.216797" xlink:href="#DejaVuSans-116"/>
      <use x="236.425781" xlink:href="#DejaVuSans-32"/>
      <use x="268.212891" xlink:href="#DejaVuSans-65"/>
      <use x="336.621094" xlink:href="#DejaVuSans-80"/>
      <use x="396.923828" xlink:href="#DejaVuSans-58"/>
      <use x="430.615234" xlink:href="#DejaVuSans-32"/>
      <use x="462.402344" xlink:href="#DejaVuSans-52"/>
      <use x="526.025391" xlink:href="#DejaVuSans-48"/>
      <use x="589.648438" xlink:href="#DejaVuSans-46"/>
      <use x="621.435547" xlink:href="#DejaVuSans-57"/>
      <use x="685.058594" xlink:href="#DejaVuSans-44"/>
      <use x="716.845703" xlink:href="#DejaVuSans-32"/>
      <use x="748.632812" xlink:href="#DejaVuSans-37"/>
      <use x="843.652344" xlink:href="#DejaVuSans-73"/>
      <use x="873.144531" xlink:href="#DejaVuSans-110"/>
      <use x="936.523438" xlink:href="#DejaVuSans-58"/>
      <use x="970.214844" xlink:href="#DejaVuSans-32"/>
      <use x="1002.001953" xlink:href="#DejaVuSans-50"/>
      <use x="1065.625" xlink:href="#DejaVuSans-56"/>
      <use x="1129.248047" xlink:href="#DejaVuSans-46"/>
      <use x="1161.035156" xlink:href="#DejaVuSans-49"/>
     </g>
    </g>
    <g id="line2d_52">
     <path d="M 364.659375 102.934687 
L 384.659375 102.934687 
" style="fill:none;stroke:#2ca02c;stroke-linecap:square;stroke-width:2;"/>
    </g>
    <g id="line2d_53"/>
    <g id="text_28">
     <!-- hardnet AP: 76.0, %In: 42.1 -->
     <defs>
      <path d="M 45.40625 46.390625 
L 45.40625 75.984375 
L 54.390625 75.984375 
L 54.390625 0 
L 45.40625 0 
L 45.40625 8.203125 
Q 42.578125 3.328125 38.25 0.953125 
Q 33.9375 -1.421875 27.875 -1.421875 
Q 17.96875 -1.421875 11.734375 6.484375 
Q 5.515625 14.40625 5.515625 27.296875 
Q 5.515625 40.1875 11.734375 48.09375 
Q 17.96875 56 27.875 56 
Q 33.9375 56 38.25 53.625 
Q 42.578125 51.265625 45.40625 46.390625 
z
M 14.796875 27.296875 
Q 14.796875 17.390625 18.875 11.75 
Q 22.953125 6.109375 30.078125 6.109375 
Q 37.203125 6.109375 41.296875 11.75 
Q 45.40625 17.390625 45.40625 27.296875 
Q 45.40625 37.203125 41.296875 42.84375 
Q 37.203125 48.484375 30.078125 48.484375 
Q 22.953125 48.484375 18.875 42.84375 
Q 14.796875 37.203125 14.796875 27.296875 
z
" id="DejaVuSans-100"/>
     </defs>
     <g transform="translate(392.659375 106.434687)scale(0.1 -0.1)">
      <use xlink:href="#DejaVuSans-104"/>
      <use x="63.378906" xlink:href="#DejaVuSans-97"/>
      <use x="124.658203" xlink:href="#DejaVuSans-114"/>
      <use x="164.021484" xlink:href="#DejaVuSans-100"/>
      <use x="227.498047" xlink:href="#DejaVuSans-110"/>
      <use x="290.876953" xlink:href="#DejaVuSans-101"/>
      <use x="352.400391" xlink:href="#DejaVuSans-116"/>
      <use x="391.609375" xlink:href="#DejaVuSans-32"/>
      <use x="423.396484" xlink:href="#DejaVuSans-65"/>
      <use x="491.804688" xlink:href="#DejaVuSans-80"/>
      <use x="552.107422" xlink:href="#DejaVuSans-58"/>
      <use x="585.798828" xlink:href="#DejaVuSans-32"/>
      <use x="617.585938" xlink:href="#DejaVuSans-55"/>
      <use x="681.208984" xlink:href="#DejaVuSans-54"/>
      <use x="744.832031" xlink:href="#DejaVuSans-46"/>
      <use x="776.619141" xlink:href="#DejaVuSans-48"/>
      <use x="840.242188" xlink:href="#DejaVuSans-44"/>
      <use x="872.029297" xlink:href="#DejaVuSans-32"/>
      <use x="903.816406" xlink:href="#DejaVuSans-37"/>
      <use x="998.835938" xlink:href="#DejaVuSans-73"/>
      <use x="1028.328125" xlink:href="#DejaVuSans-110"/>
      <use x="1091.707031" xlink:href="#DejaVuSans-58"/>
      <use x="1125.398438" xlink:href="#DejaVuSans-32"/>
      <use x="1157.185547" xlink:href="#DejaVuSans-52"/>
      <use x="1220.808594" xlink:href="#DejaVuSans-50"/>
      <use x="1284.431641" xlink:href="#DejaVuSans-46"/>
      <use x="1316.21875" xlink:href="#DejaVuSans-49"/>
     </g>
    </g>
   </g>
  </g>
 </g>
 <defs>
  <clipPath id="p53554d7593">
   <rect height="388.08" width="474.3" x="76.5" y="60.48"/>
  </clipPath>
 </defs>
</svg>
