<?xml version="1.0" encoding="utf-8" standalone="no"?>
<!DOCTYPE svg PUBLIC "-//W3C//DTD SVG 1.1//EN"
  "http://www.w3.org/Graphics/SVG/1.1/DTD/svg11.dtd">
<!-- Created with matplotlib (https://matplotlib.org/) -->
<svg height="504pt" version="1.1" viewBox="0 0 612 504" width="612pt" xmlns="http://www.w3.org/2000/svg" xmlns:xlink="http://www.w3.org/1999/xlink">
 <defs>
  <style type="text/css">
*{stroke-linecap:butt;stroke-linejoin:round;}
  </style>
 </defs>
 <g id="figure_1">
  <g id="patch_1">
   <path d="M 0 504 
L 612 504 
L 612 0 
L 0 0 
z
" style="fill:#ffffff;"/>
  </g>
  <g id="axes_1">
   <g id="patch_2">
    <path d="M 76.5 448.56 
L 550.8 448.56 
L 550.8 60.48 
L 76.5 60.48 
z
" style="fill:#ffffff;"/>
   </g>
   <g id="matplotlib.axis_1">
    <g id="xtick_1">
     <g id="line2d_1">
      <path clip-path="url(#p4c7f340dbc)" d="M 76.5 448.56 
L 76.5 60.48 
" style="fill:none;stroke:#b0b0b0;stroke-linecap:square;stroke-width:0.8;"/>
     </g>
     <g id="line2d_2">
      <defs>
       <path d="M 0 0 
L 0 3.5 
" id="mfa8718cfde" style="stroke:#000000;stroke-width:0.8;"/>
      </defs>
      <g>
       <use style="stroke:#000000;stroke-width:0.8;" x="76.5" xlink:href="#mfa8718cfde" y="448.56"/>
      </g>
     </g>
     <g id="text_1">
      <!-- 0.0 -->
      <defs>
       <path d="M 31.78125 66.40625 
Q 24.171875 66.40625 20.328125 58.90625 
Q 16.5 51.421875 16.5 36.375 
Q 16.5 21.390625 20.328125 13.890625 
Q 24.171875 6.390625 31.78125 6.390625 
Q 39.453125 6.390625 43.28125 13.890625 
Q 47.125 21.390625 47.125 36.375 
Q 47.125 51.421875 43.28125 58.90625 
Q 39.453125 66.40625 31.78125 66.40625 
z
M 31.78125 74.21875 
Q 44.046875 74.21875 50.515625 64.515625 
Q 56.984375 54.828125 56.984375 36.375 
Q 56.984375 17.96875 50.515625 8.265625 
Q 44.046875 -1.421875 31.78125 -1.421875 
Q 19.53125 -1.421875 13.0625 8.265625 
Q 6.59375 17.96875 6.59375 36.375 
Q 6.59375 54.828125 13.0625 64.515625 
Q 19.53125 74.21875 31.78125 74.21875 
z
" id="DejaVuSans-48"/>
       <path d="M 10.6875 12.40625 
L 21 12.40625 
L 21 0 
L 10.6875 0 
z
" id="DejaVuSans-46"/>
      </defs>
      <g transform="translate(68.548438 463.158437)scale(0.1 -0.1)">
       <use xlink:href="#DejaVuSans-48"/>
       <use x="63.623047" xlink:href="#DejaVuSans-46"/>
       <use x="95.410156" xlink:href="#DejaVuSans-48"/>
      </g>
     </g>
    </g>
    <g id="xtick_2">
     <g id="line2d_3">
      <path clip-path="url(#p4c7f340dbc)" d="M 123.93 448.56 
L 123.93 60.48 
" style="fill:none;stroke:#b0b0b0;stroke-linecap:square;stroke-width:0.8;"/>
     </g>
     <g id="line2d_4">
      <g>
       <use style="stroke:#000000;stroke-width:0.8;" x="123.93" xlink:href="#mfa8718cfde" y="448.56"/>
      </g>
     </g>
     <g id="text_2">
      <!-- 0.1 -->
      <defs>
       <path d="M 12.40625 8.296875 
L 28.515625 8.296875 
L 28.515625 63.921875 
L 10.984375 60.40625 
L 10.984375 69.390625 
L 28.421875 72.90625 
L 38.28125 72.90625 
L 38.28125 8.296875 
L 54.390625 8.296875 
L 54.390625 0 
L 12.40625 0 
z
" id="DejaVuSans-49"/>
      </defs>
      <g transform="translate(115.978438 463.158437)scale(0.1 -0.1)">
       <use xlink:href="#DejaVuSans-48"/>
       <use x="63.623047" xlink:href="#DejaVuSans-46"/>
       <use x="95.410156" xlink:href="#DejaVuSans-49"/>
      </g>
     </g>
    </g>
    <g id="xtick_3">
     <g id="line2d_5">
      <path clip-path="url(#p4c7f340dbc)" d="M 171.36 448.56 
L 171.36 60.48 
" style="fill:none;stroke:#b0b0b0;stroke-linecap:square;stroke-width:0.8;"/>
     </g>
     <g id="line2d_6">
      <g>
       <use style="stroke:#000000;stroke-width:0.8;" x="171.36" xlink:href="#mfa8718cfde" y="448.56"/>
      </g>
     </g>
     <g id="text_3">
      <!-- 0.2 -->
      <defs>
       <path d="M 19.1875 8.296875 
L 53.609375 8.296875 
L 53.609375 0 
L 7.328125 0 
L 7.328125 8.296875 
Q 12.9375 14.109375 22.625 23.890625 
Q 32.328125 33.6875 34.8125 36.53125 
Q 39.546875 41.84375 41.421875 45.53125 
Q 43.3125 49.21875 43.3125 52.78125 
Q 43.3125 58.59375 39.234375 62.25 
Q 35.15625 65.921875 28.609375 65.921875 
Q 23.96875 65.921875 18.8125 64.3125 
Q 13.671875 62.703125 7.8125 59.421875 
L 7.8125 69.390625 
Q 13.765625 71.78125 18.9375 73 
Q 24.125 74.21875 28.421875 74.21875 
Q 39.75 74.21875 46.484375 68.546875 
Q 53.21875 62.890625 53.21875 53.421875 
Q 53.21875 48.921875 51.53125 44.890625 
Q 49.859375 40.875 45.40625 35.40625 
Q 44.1875 33.984375 37.640625 27.21875 
Q 31.109375 20.453125 19.1875 8.296875 
z
" id="DejaVuSans-50"/>
      </defs>
      <g transform="translate(163.408438 463.158437)scale(0.1 -0.1)">
       <use xlink:href="#DejaVuSans-48"/>
       <use x="63.623047" xlink:href="#DejaVuSans-46"/>
       <use x="95.410156" xlink:href="#DejaVuSans-50"/>
      </g>
     </g>
    </g>
    <g id="xtick_4">
     <g id="line2d_7">
      <path clip-path="url(#p4c7f340dbc)" d="M 218.79 448.56 
L 218.79 60.48 
" style="fill:none;stroke:#b0b0b0;stroke-linecap:square;stroke-width:0.8;"/>
     </g>
     <g id="line2d_8">
      <g>
       <use style="stroke:#000000;stroke-width:0.8;" x="218.79" xlink:href="#mfa8718cfde" y="448.56"/>
      </g>
     </g>
     <g id="text_4">
      <!-- 0.3 -->
      <defs>
       <path d="M 40.578125 39.3125 
Q 47.65625 37.796875 51.625 33 
Q 55.609375 28.21875 55.609375 21.1875 
Q 55.609375 10.40625 48.1875 4.484375 
Q 40.765625 -1.421875 27.09375 -1.421875 
Q 22.515625 -1.421875 17.65625 -0.515625 
Q 12.796875 0.390625 7.625 2.203125 
L 7.625 11.71875 
Q 11.71875 9.328125 16.59375 8.109375 
Q 21.484375 6.890625 26.8125 6.890625 
Q 36.078125 6.890625 40.9375 10.546875 
Q 45.796875 14.203125 45.796875 21.1875 
Q 45.796875 27.640625 41.28125 31.265625 
Q 36.765625 34.90625 28.71875 34.90625 
L 20.21875 34.90625 
L 20.21875 43.015625 
L 29.109375 43.015625 
Q 36.375 43.015625 40.234375 45.921875 
Q 44.09375 48.828125 44.09375 54.296875 
Q 44.09375 59.90625 40.109375 62.90625 
Q 36.140625 65.921875 28.71875 65.921875 
Q 24.65625 65.921875 20.015625 65.03125 
Q 15.375 64.15625 9.8125 62.3125 
L 9.8125 71.09375 
Q 15.4375 72.65625 20.34375 73.4375 
Q 25.25 74.21875 29.59375 74.21875 
Q 40.828125 74.21875 47.359375 69.109375 
Q 53.90625 64.015625 53.90625 55.328125 
Q 53.90625 49.265625 50.4375 45.09375 
Q 46.96875 40.921875 40.578125 39.3125 
z
" id="DejaVuSans-51"/>
      </defs>
      <g transform="translate(210.838438 463.158437)scale(0.1 -0.1)">
       <use xlink:href="#DejaVuSans-48"/>
       <use x="63.623047" xlink:href="#DejaVuSans-46"/>
       <use x="95.410156" xlink:href="#DejaVuSans-51"/>
      </g>
     </g>
    </g>
    <g id="xtick_5">
     <g id="line2d_9">
      <path clip-path="url(#p4c7f340dbc)" d="M 266.22 448.56 
L 266.22 60.48 
" style="fill:none;stroke:#b0b0b0;stroke-linecap:square;stroke-width:0.8;"/>
     </g>
     <g id="line2d_10">
      <g>
       <use style="stroke:#000000;stroke-width:0.8;" x="266.22" xlink:href="#mfa8718cfde" y="448.56"/>
      </g>
     </g>
     <g id="text_5">
      <!-- 0.4 -->
      <defs>
       <path d="M 37.796875 64.3125 
L 12.890625 25.390625 
L 37.796875 25.390625 
z
M 35.203125 72.90625 
L 47.609375 72.90625 
L 47.609375 25.390625 
L 58.015625 25.390625 
L 58.015625 17.1875 
L 47.609375 17.1875 
L 47.609375 0 
L 37.796875 0 
L 37.796875 17.1875 
L 4.890625 17.1875 
L 4.890625 26.703125 
z
" id="DejaVuSans-52"/>
      </defs>
      <g transform="translate(258.268438 463.158437)scale(0.1 -0.1)">
       <use xlink:href="#DejaVuSans-48"/>
       <use x="63.623047" xlink:href="#DejaVuSans-46"/>
       <use x="95.410156" xlink:href="#DejaVuSans-52"/>
      </g>
     </g>
    </g>
    <g id="xtick_6">
     <g id="line2d_11">
      <path clip-path="url(#p4c7f340dbc)" d="M 313.65 448.56 
L 313.65 60.48 
" style="fill:none;stroke:#b0b0b0;stroke-linecap:square;stroke-width:0.8;"/>
     </g>
     <g id="line2d_12">
      <g>
       <use style="stroke:#000000;stroke-width:0.8;" x="313.65" xlink:href="#mfa8718cfde" y="448.56"/>
      </g>
     </g>
     <g id="text_6">
      <!-- 0.5 -->
      <defs>
       <path d="M 10.796875 72.90625 
L 49.515625 72.90625 
L 49.515625 64.59375 
L 19.828125 64.59375 
L 19.828125 46.734375 
Q 21.96875 47.46875 24.109375 47.828125 
Q 26.265625 48.1875 28.421875 48.1875 
Q 40.625 48.1875 47.75 41.5 
Q 54.890625 34.8125 54.890625 23.390625 
Q 54.890625 11.625 47.5625 5.09375 
Q 40.234375 -1.421875 26.90625 -1.421875 
Q 22.3125 -1.421875 17.546875 -0.640625 
Q 12.796875 0.140625 7.71875 1.703125 
L 7.71875 11.625 
Q 12.109375 9.234375 16.796875 8.0625 
Q 21.484375 6.890625 26.703125 6.890625 
Q 35.15625 6.890625 40.078125 11.328125 
Q 45.015625 15.765625 45.015625 23.390625 
Q 45.015625 31 40.078125 35.4375 
Q 35.15625 39.890625 26.703125 39.890625 
Q 22.75 39.890625 18.8125 39.015625 
Q 14.890625 38.140625 10.796875 36.28125 
z
" id="DejaVuSans-53"/>
      </defs>
      <g transform="translate(305.698438 463.158437)scale(0.1 -0.1)">
       <use xlink:href="#DejaVuSans-48"/>
       <use x="63.623047" xlink:href="#DejaVuSans-46"/>
       <use x="95.410156" xlink:href="#DejaVuSans-53"/>
      </g>
     </g>
    </g>
    <g id="xtick_7">
     <g id="line2d_13">
      <path clip-path="url(#p4c7f340dbc)" d="M 361.08 448.56 
L 361.08 60.48 
" style="fill:none;stroke:#b0b0b0;stroke-linecap:square;stroke-width:0.8;"/>
     </g>
     <g id="line2d_14">
      <g>
       <use style="stroke:#000000;stroke-width:0.8;" x="361.08" xlink:href="#mfa8718cfde" y="448.56"/>
      </g>
     </g>
     <g id="text_7">
      <!-- 0.6 -->
      <defs>
       <path d="M 33.015625 40.375 
Q 26.375 40.375 22.484375 35.828125 
Q 18.609375 31.296875 18.609375 23.390625 
Q 18.609375 15.53125 22.484375 10.953125 
Q 26.375 6.390625 33.015625 6.390625 
Q 39.65625 6.390625 43.53125 10.953125 
Q 47.40625 15.53125 47.40625 23.390625 
Q 47.40625 31.296875 43.53125 35.828125 
Q 39.65625 40.375 33.015625 40.375 
z
M 52.59375 71.296875 
L 52.59375 62.3125 
Q 48.875 64.0625 45.09375 64.984375 
Q 41.3125 65.921875 37.59375 65.921875 
Q 27.828125 65.921875 22.671875 59.328125 
Q 17.53125 52.734375 16.796875 39.40625 
Q 19.671875 43.65625 24.015625 45.921875 
Q 28.375 48.1875 33.59375 48.1875 
Q 44.578125 48.1875 50.953125 41.515625 
Q 57.328125 34.859375 57.328125 23.390625 
Q 57.328125 12.15625 50.6875 5.359375 
Q 44.046875 -1.421875 33.015625 -1.421875 
Q 20.359375 -1.421875 13.671875 8.265625 
Q 6.984375 17.96875 6.984375 36.375 
Q 6.984375 53.65625 15.1875 63.9375 
Q 23.390625 74.21875 37.203125 74.21875 
Q 40.921875 74.21875 44.703125 73.484375 
Q 48.484375 72.75 52.59375 71.296875 
z
" id="DejaVuSans-54"/>
      </defs>
      <g transform="translate(353.128438 463.158437)scale(0.1 -0.1)">
       <use xlink:href="#DejaVuSans-48"/>
       <use x="63.623047" xlink:href="#DejaVuSans-46"/>
       <use x="95.410156" xlink:href="#DejaVuSans-54"/>
      </g>
     </g>
    </g>
    <g id="xtick_8">
     <g id="line2d_15">
      <path clip-path="url(#p4c7f340dbc)" d="M 408.51 448.56 
L 408.51 60.48 
" style="fill:none;stroke:#b0b0b0;stroke-linecap:square;stroke-width:0.8;"/>
     </g>
     <g id="line2d_16">
      <g>
       <use style="stroke:#000000;stroke-width:0.8;" x="408.51" xlink:href="#mfa8718cfde" y="448.56"/>
      </g>
     </g>
     <g id="text_8">
      <!-- 0.7 -->
      <defs>
       <path d="M 8.203125 72.90625 
L 55.078125 72.90625 
L 55.078125 68.703125 
L 28.609375 0 
L 18.3125 0 
L 43.21875 64.59375 
L 8.203125 64.59375 
z
" id="DejaVuSans-55"/>
      </defs>
      <g transform="translate(400.558438 463.158437)scale(0.1 -0.1)">
       <use xlink:href="#DejaVuSans-48"/>
       <use x="63.623047" xlink:href="#DejaVuSans-46"/>
       <use x="95.410156" xlink:href="#DejaVuSans-55"/>
      </g>
     </g>
    </g>
    <g id="xtick_9">
     <g id="line2d_17">
      <path clip-path="url(#p4c7f340dbc)" d="M 455.94 448.56 
L 455.94 60.48 
" style="fill:none;stroke:#b0b0b0;stroke-linecap:square;stroke-width:0.8;"/>
     </g>
     <g id="line2d_18">
      <g>
       <use style="stroke:#000000;stroke-width:0.8;" x="455.94" xlink:href="#mfa8718cfde" y="448.56"/>
      </g>
     </g>
     <g id="text_9">
      <!-- 0.8 -->
      <defs>
       <path d="M 31.78125 34.625 
Q 24.75 34.625 20.71875 30.859375 
Q 16.703125 27.09375 16.703125 20.515625 
Q 16.703125 13.921875 20.71875 10.15625 
Q 24.75 6.390625 31.78125 6.390625 
Q 38.8125 6.390625 42.859375 10.171875 
Q 46.921875 13.96875 46.921875 20.515625 
Q 46.921875 27.09375 42.890625 30.859375 
Q 38.875 34.625 31.78125 34.625 
z
M 21.921875 38.8125 
Q 15.578125 40.375 12.03125 44.71875 
Q 8.5 49.078125 8.5 55.328125 
Q 8.5 64.0625 14.71875 69.140625 
Q 20.953125 74.21875 31.78125 74.21875 
Q 42.671875 74.21875 48.875 69.140625 
Q 55.078125 64.0625 55.078125 55.328125 
Q 55.078125 49.078125 51.53125 44.71875 
Q 48 40.375 41.703125 38.8125 
Q 48.828125 37.15625 52.796875 32.3125 
Q 56.78125 27.484375 56.78125 20.515625 
Q 56.78125 9.90625 50.3125 4.234375 
Q 43.84375 -1.421875 31.78125 -1.421875 
Q 19.734375 -1.421875 13.25 4.234375 
Q 6.78125 9.90625 6.78125 20.515625 
Q 6.78125 27.484375 10.78125 32.3125 
Q 14.796875 37.15625 21.921875 38.8125 
z
M 18.3125 54.390625 
Q 18.3125 48.734375 21.84375 45.5625 
Q 25.390625 42.390625 31.78125 42.390625 
Q 38.140625 42.390625 41.71875 45.5625 
Q 45.3125 48.734375 45.3125 54.390625 
Q 45.3125 60.0625 41.71875 63.234375 
Q 38.140625 66.40625 31.78125 66.40625 
Q 25.390625 66.40625 21.84375 63.234375 
Q 18.3125 60.0625 18.3125 54.390625 
z
" id="DejaVuSans-56"/>
      </defs>
      <g transform="translate(447.988438 463.158437)scale(0.1 -0.1)">
       <use xlink:href="#DejaVuSans-48"/>
       <use x="63.623047" xlink:href="#DejaVuSans-46"/>
       <use x="95.410156" xlink:href="#DejaVuSans-56"/>
      </g>
     </g>
    </g>
    <g id="xtick_10">
     <g id="line2d_19">
      <path clip-path="url(#p4c7f340dbc)" d="M 503.37 448.56 
L 503.37 60.48 
" style="fill:none;stroke:#b0b0b0;stroke-linecap:square;stroke-width:0.8;"/>
     </g>
     <g id="line2d_20">
      <g>
       <use style="stroke:#000000;stroke-width:0.8;" x="503.37" xlink:href="#mfa8718cfde" y="448.56"/>
      </g>
     </g>
     <g id="text_10">
      <!-- 0.9 -->
      <defs>
       <path d="M 10.984375 1.515625 
L 10.984375 10.5 
Q 14.703125 8.734375 18.5 7.8125 
Q 22.3125 6.890625 25.984375 6.890625 
Q 35.75 6.890625 40.890625 13.453125 
Q 46.046875 20.015625 46.78125 33.40625 
Q 43.953125 29.203125 39.59375 26.953125 
Q 35.25 24.703125 29.984375 24.703125 
Q 19.046875 24.703125 12.671875 31.3125 
Q 6.296875 37.9375 6.296875 49.421875 
Q 6.296875 60.640625 12.9375 67.421875 
Q 19.578125 74.21875 30.609375 74.21875 
Q 43.265625 74.21875 49.921875 64.515625 
Q 56.59375 54.828125 56.59375 36.375 
Q 56.59375 19.140625 48.40625 8.859375 
Q 40.234375 -1.421875 26.421875 -1.421875 
Q 22.703125 -1.421875 18.890625 -0.6875 
Q 15.09375 0.046875 10.984375 1.515625 
z
M 30.609375 32.421875 
Q 37.25 32.421875 41.125 36.953125 
Q 45.015625 41.5 45.015625 49.421875 
Q 45.015625 57.28125 41.125 61.84375 
Q 37.25 66.40625 30.609375 66.40625 
Q 23.96875 66.40625 20.09375 61.84375 
Q 16.21875 57.28125 16.21875 49.421875 
Q 16.21875 41.5 20.09375 36.953125 
Q 23.96875 32.421875 30.609375 32.421875 
z
" id="DejaVuSans-57"/>
      </defs>
      <g transform="translate(495.418438 463.158437)scale(0.1 -0.1)">
       <use xlink:href="#DejaVuSans-48"/>
       <use x="63.623047" xlink:href="#DejaVuSans-46"/>
       <use x="95.410156" xlink:href="#DejaVuSans-57"/>
      </g>
     </g>
    </g>
    <g id="xtick_11">
     <g id="line2d_21">
      <path clip-path="url(#p4c7f340dbc)" d="M 550.8 448.56 
L 550.8 60.48 
" style="fill:none;stroke:#b0b0b0;stroke-linecap:square;stroke-width:0.8;"/>
     </g>
     <g id="line2d_22">
      <g>
       <use style="stroke:#000000;stroke-width:0.8;" x="550.8" xlink:href="#mfa8718cfde" y="448.56"/>
      </g>
     </g>
     <g id="text_11">
      <!-- 1.0 -->
      <g transform="translate(542.848438 463.158437)scale(0.1 -0.1)">
       <use xlink:href="#DejaVuSans-49"/>
       <use x="63.623047" xlink:href="#DejaVuSans-46"/>
       <use x="95.410156" xlink:href="#DejaVuSans-48"/>
      </g>
     </g>
    </g>
    <g id="text_12">
     <!-- 1-precision -->
     <defs>
      <path d="M 4.890625 31.390625 
L 31.203125 31.390625 
L 31.203125 23.390625 
L 4.890625 23.390625 
z
" id="DejaVuSans-45"/>
      <path d="M 18.109375 8.203125 
L 18.109375 -20.796875 
L 9.078125 -20.796875 
L 9.078125 54.6875 
L 18.109375 54.6875 
L 18.109375 46.390625 
Q 20.953125 51.265625 25.265625 53.625 
Q 29.59375 56 35.59375 56 
Q 45.5625 56 51.78125 48.09375 
Q 58.015625 40.1875 58.015625 27.296875 
Q 58.015625 14.40625 51.78125 6.484375 
Q 45.5625 -1.421875 35.59375 -1.421875 
Q 29.59375 -1.421875 25.265625 0.953125 
Q 20.953125 3.328125 18.109375 8.203125 
z
M 48.6875 27.296875 
Q 48.6875 37.203125 44.609375 42.84375 
Q 40.53125 48.484375 33.40625 48.484375 
Q 26.265625 48.484375 22.1875 42.84375 
Q 18.109375 37.203125 18.109375 27.296875 
Q 18.109375 17.390625 22.1875 11.75 
Q 26.265625 6.109375 33.40625 6.109375 
Q 40.53125 6.109375 44.609375 11.75 
Q 48.6875 17.390625 48.6875 27.296875 
z
" id="DejaVuSans-112"/>
      <path d="M 41.109375 46.296875 
Q 39.59375 47.171875 37.8125 47.578125 
Q 36.03125 48 33.890625 48 
Q 26.265625 48 22.1875 43.046875 
Q 18.109375 38.09375 18.109375 28.8125 
L 18.109375 0 
L 9.078125 0 
L 9.078125 54.6875 
L 18.109375 54.6875 
L 18.109375 46.1875 
Q 20.953125 51.171875 25.484375 53.578125 
Q 30.03125 56 36.53125 56 
Q 37.453125 56 38.578125 55.875 
Q 39.703125 55.765625 41.0625 55.515625 
z
" id="DejaVuSans-114"/>
      <path d="M 56.203125 29.59375 
L 56.203125 25.203125 
L 14.890625 25.203125 
Q 15.484375 15.921875 20.484375 11.0625 
Q 25.484375 6.203125 34.421875 6.203125 
Q 39.59375 6.203125 44.453125 7.46875 
Q 49.3125 8.734375 54.109375 11.28125 
L 54.109375 2.78125 
Q 49.265625 0.734375 44.1875 -0.34375 
Q 39.109375 -1.421875 33.890625 -1.421875 
Q 20.796875 -1.421875 13.15625 6.1875 
Q 5.515625 13.8125 5.515625 26.8125 
Q 5.515625 40.234375 12.765625 48.109375 
Q 20.015625 56 32.328125 56 
Q 43.359375 56 49.78125 48.890625 
Q 56.203125 41.796875 56.203125 29.59375 
z
M 47.21875 32.234375 
Q 47.125 39.59375 43.09375 43.984375 
Q 39.0625 48.390625 32.421875 48.390625 
Q 24.90625 48.390625 20.390625 44.140625 
Q 15.875 39.890625 15.1875 32.171875 
z
" id="DejaVuSans-101"/>
      <path d="M 48.78125 52.59375 
L 48.78125 44.1875 
Q 44.96875 46.296875 41.140625 47.34375 
Q 37.3125 48.390625 33.40625 48.390625 
Q 24.65625 48.390625 19.8125 42.84375 
Q 14.984375 37.3125 14.984375 27.296875 
Q 14.984375 17.28125 19.8125 11.734375 
Q 24.65625 6.203125 33.40625 6.203125 
Q 37.3125 6.203125 41.140625 7.25 
Q 44.96875 8.296875 48.78125 10.40625 
L 48.78125 2.09375 
Q 45.015625 0.34375 40.984375 -0.53125 
Q 36.96875 -1.421875 32.421875 -1.421875 
Q 20.0625 -1.421875 12.78125 6.34375 
Q 5.515625 14.109375 5.515625 27.296875 
Q 5.515625 40.671875 12.859375 48.328125 
Q 20.21875 56 33.015625 56 
Q 37.15625 56 41.109375 55.140625 
Q 45.0625 54.296875 48.78125 52.59375 
z
" id="DejaVuSans-99"/>
      <path d="M 9.421875 54.6875 
L 18.40625 54.6875 
L 18.40625 0 
L 9.421875 0 
z
M 9.421875 75.984375 
L 18.40625 75.984375 
L 18.40625 64.59375 
L 9.421875 64.59375 
z
" id="DejaVuSans-105"/>
      <path d="M 44.28125 53.078125 
L 44.28125 44.578125 
Q 40.484375 46.53125 36.375 47.5 
Q 32.28125 48.484375 27.875 48.484375 
Q 21.1875 48.484375 17.84375 46.4375 
Q 14.5 44.390625 14.5 40.28125 
Q 14.5 37.15625 16.890625 35.375 
Q 19.28125 33.59375 26.515625 31.984375 
L 29.59375 31.296875 
Q 39.15625 29.25 43.1875 25.515625 
Q 47.21875 21.78125 47.21875 15.09375 
Q 47.21875 7.46875 41.1875 3.015625 
Q 35.15625 -1.421875 24.609375 -1.421875 
Q 20.21875 -1.421875 15.453125 -0.5625 
Q 10.6875 0.296875 5.421875 2 
L 5.421875 11.28125 
Q 10.40625 8.6875 15.234375 7.390625 
Q 20.0625 6.109375 24.8125 6.109375 
Q 31.15625 6.109375 34.5625 8.28125 
Q 37.984375 10.453125 37.984375 14.40625 
Q 37.984375 18.0625 35.515625 20.015625 
Q 33.0625 21.96875 24.703125 23.78125 
L 21.578125 24.515625 
Q 13.234375 26.265625 9.515625 29.90625 
Q 5.8125 33.546875 5.8125 39.890625 
Q 5.8125 47.609375 11.28125 51.796875 
Q 16.75 56 26.8125 56 
Q 31.78125 56 36.171875 55.265625 
Q 40.578125 54.546875 44.28125 53.078125 
z
" id="DejaVuSans-115"/>
      <path d="M 30.609375 48.390625 
Q 23.390625 48.390625 19.1875 42.75 
Q 14.984375 37.109375 14.984375 27.296875 
Q 14.984375 17.484375 19.15625 11.84375 
Q 23.34375 6.203125 30.609375 6.203125 
Q 37.796875 6.203125 41.984375 11.859375 
Q 46.1875 17.53125 46.1875 27.296875 
Q 46.1875 37.015625 41.984375 42.703125 
Q 37.796875 48.390625 30.609375 48.390625 
z
M 30.609375 56 
Q 42.328125 56 49.015625 48.375 
Q 55.71875 40.765625 55.71875 27.296875 
Q 55.71875 13.875 49.015625 6.21875 
Q 42.328125 -1.421875 30.609375 -1.421875 
Q 18.84375 -1.421875 12.171875 6.21875 
Q 5.515625 13.875 5.515625 27.296875 
Q 5.515625 40.765625 12.171875 48.375 
Q 18.84375 56 30.609375 56 
z
" id="DejaVuSans-111"/>
      <path d="M 54.890625 33.015625 
L 54.890625 0 
L 45.90625 0 
L 45.90625 32.71875 
Q 45.90625 40.484375 42.875 44.328125 
Q 39.84375 48.1875 33.796875 48.1875 
Q 26.515625 48.1875 22.3125 43.546875 
Q 18.109375 38.921875 18.109375 30.90625 
L 18.109375 0 
L 9.078125 0 
L 9.078125 54.6875 
L 18.109375 54.6875 
L 18.109375 46.1875 
Q 21.34375 51.125 25.703125 53.5625 
Q 30.078125 56 35.796875 56 
Q 45.21875 56 50.046875 50.171875 
Q 54.890625 44.34375 54.890625 33.015625 
z
" id="DejaVuSans-110"/>
     </defs>
     <g transform="translate(286.110938 476.836563)scale(0.1 -0.1)">
      <use xlink:href="#DejaVuSans-49"/>
      <use x="63.623047" xlink:href="#DejaVuSans-45"/>
      <use x="99.707031" xlink:href="#DejaVuSans-112"/>
      <use x="163.183594" xlink:href="#DejaVuSans-114"/>
      <use x="202.046875" xlink:href="#DejaVuSans-101"/>
      <use x="263.570312" xlink:href="#DejaVuSans-99"/>
      <use x="318.550781" xlink:href="#DejaVuSans-105"/>
      <use x="346.333984" xlink:href="#DejaVuSans-115"/>
      <use x="398.433594" xlink:href="#DejaVuSans-105"/>
      <use x="426.216797" xlink:href="#DejaVuSans-111"/>
      <use x="487.398438" xlink:href="#DejaVuSans-110"/>
     </g>
    </g>
   </g>
   <g id="matplotlib.axis_2">
    <g id="ytick_1">
     <g id="line2d_23">
      <path clip-path="url(#p4c7f340dbc)" d="M 76.5 448.56 
L 550.8 448.56 
" style="fill:none;stroke:#b0b0b0;stroke-linecap:square;stroke-width:0.8;"/>
     </g>
     <g id="line2d_24">
      <defs>
       <path d="M 0 0 
L -3.5 0 
" id="mc04fc81595" style="stroke:#000000;stroke-width:0.8;"/>
      </defs>
      <g>
       <use style="stroke:#000000;stroke-width:0.8;" x="76.5" xlink:href="#mc04fc81595" y="448.56"/>
      </g>
     </g>
     <g id="text_13">
      <!-- 0.0 -->
      <g transform="translate(53.596875 452.359219)scale(0.1 -0.1)">
       <use xlink:href="#DejaVuSans-48"/>
       <use x="63.623047" xlink:href="#DejaVuSans-46"/>
       <use x="95.410156" xlink:href="#DejaVuSans-48"/>
      </g>
     </g>
    </g>
    <g id="ytick_2">
     <g id="line2d_25">
      <path clip-path="url(#p4c7f340dbc)" d="M 76.5 409.752 
L 550.8 409.752 
" style="fill:none;stroke:#b0b0b0;stroke-linecap:square;stroke-width:0.8;"/>
     </g>
     <g id="line2d_26">
      <g>
       <use style="stroke:#000000;stroke-width:0.8;" x="76.5" xlink:href="#mc04fc81595" y="409.752"/>
      </g>
     </g>
     <g id="text_14">
      <!-- 0.1 -->
      <g transform="translate(53.596875 413.551219)scale(0.1 -0.1)">
       <use xlink:href="#DejaVuSans-48"/>
       <use x="63.623047" xlink:href="#DejaVuSans-46"/>
       <use x="95.410156" xlink:href="#DejaVuSans-49"/>
      </g>
     </g>
    </g>
    <g id="ytick_3">
     <g id="line2d_27">
      <path clip-path="url(#p4c7f340dbc)" d="M 76.5 370.944 
L 550.8 370.944 
" style="fill:none;stroke:#b0b0b0;stroke-linecap:square;stroke-width:0.8;"/>
     </g>
     <g id="line2d_28">
      <g>
       <use style="stroke:#000000;stroke-width:0.8;" x="76.5" xlink:href="#mc04fc81595" y="370.944"/>
      </g>
     </g>
     <g id="text_15">
      <!-- 0.2 -->
      <g transform="translate(53.596875 374.743219)scale(0.1 -0.1)">
       <use xlink:href="#DejaVuSans-48"/>
       <use x="63.623047" xlink:href="#DejaVuSans-46"/>
       <use x="95.410156" xlink:href="#DejaVuSans-50"/>
      </g>
     </g>
    </g>
    <g id="ytick_4">
     <g id="line2d_29">
      <path clip-path="url(#p4c7f340dbc)" d="M 76.5 332.136 
L 550.8 332.136 
" style="fill:none;stroke:#b0b0b0;stroke-linecap:square;stroke-width:0.8;"/>
     </g>
     <g id="line2d_30">
      <g>
       <use style="stroke:#000000;stroke-width:0.8;" x="76.5" xlink:href="#mc04fc81595" y="332.136"/>
      </g>
     </g>
     <g id="text_16">
      <!-- 0.3 -->
      <g transform="translate(53.596875 335.935219)scale(0.1 -0.1)">
       <use xlink:href="#DejaVuSans-48"/>
       <use x="63.623047" xlink:href="#DejaVuSans-46"/>
       <use x="95.410156" xlink:href="#DejaVuSans-51"/>
      </g>
     </g>
    </g>
    <g id="ytick_5">
     <g id="line2d_31">
      <path clip-path="url(#p4c7f340dbc)" d="M 76.5 293.328 
L 550.8 293.328 
" style="fill:none;stroke:#b0b0b0;stroke-linecap:square;stroke-width:0.8;"/>
     </g>
     <g id="line2d_32">
      <g>
       <use style="stroke:#000000;stroke-width:0.8;" x="76.5" xlink:href="#mc04fc81595" y="293.328"/>
      </g>
     </g>
     <g id="text_17">
      <!-- 0.4 -->
      <g transform="translate(53.596875 297.127219)scale(0.1 -0.1)">
       <use xlink:href="#DejaVuSans-48"/>
       <use x="63.623047" xlink:href="#DejaVuSans-46"/>
       <use x="95.410156" xlink:href="#DejaVuSans-52"/>
      </g>
     </g>
    </g>
    <g id="ytick_6">
     <g id="line2d_33">
      <path clip-path="url(#p4c7f340dbc)" d="M 76.5 254.52 
L 550.8 254.52 
" style="fill:none;stroke:#b0b0b0;stroke-linecap:square;stroke-width:0.8;"/>
     </g>
     <g id="line2d_34">
      <g>
       <use style="stroke:#000000;stroke-width:0.8;" x="76.5" xlink:href="#mc04fc81595" y="254.52"/>
      </g>
     </g>
     <g id="text_18">
      <!-- 0.5 -->
      <g transform="translate(53.596875 258.319219)scale(0.1 -0.1)">
       <use xlink:href="#DejaVuSans-48"/>
       <use x="63.623047" xlink:href="#DejaVuSans-46"/>
       <use x="95.410156" xlink:href="#DejaVuSans-53"/>
      </g>
     </g>
    </g>
    <g id="ytick_7">
     <g id="line2d_35">
      <path clip-path="url(#p4c7f340dbc)" d="M 76.5 215.712 
L 550.8 215.712 
" style="fill:none;stroke:#b0b0b0;stroke-linecap:square;stroke-width:0.8;"/>
     </g>
     <g id="line2d_36">
      <g>
       <use style="stroke:#000000;stroke-width:0.8;" x="76.5" xlink:href="#mc04fc81595" y="215.712"/>
      </g>
     </g>
     <g id="text_19">
      <!-- 0.6 -->
      <g transform="translate(53.596875 219.511219)scale(0.1 -0.1)">
       <use xlink:href="#DejaVuSans-48"/>
       <use x="63.623047" xlink:href="#DejaVuSans-46"/>
       <use x="95.410156" xlink:href="#DejaVuSans-54"/>
      </g>
     </g>
    </g>
    <g id="ytick_8">
     <g id="line2d_37">
      <path clip-path="url(#p4c7f340dbc)" d="M 76.5 176.904 
L 550.8 176.904 
" style="fill:none;stroke:#b0b0b0;stroke-linecap:square;stroke-width:0.8;"/>
     </g>
     <g id="line2d_38">
      <g>
       <use style="stroke:#000000;stroke-width:0.8;" x="76.5" xlink:href="#mc04fc81595" y="176.904"/>
      </g>
     </g>
     <g id="text_20">
      <!-- 0.7 -->
      <g transform="translate(53.596875 180.703219)scale(0.1 -0.1)">
       <use xlink:href="#DejaVuSans-48"/>
       <use x="63.623047" xlink:href="#DejaVuSans-46"/>
       <use x="95.410156" xlink:href="#DejaVuSans-55"/>
      </g>
     </g>
    </g>
    <g id="ytick_9">
     <g id="line2d_39">
      <path clip-path="url(#p4c7f340dbc)" d="M 76.5 138.096 
L 550.8 138.096 
" style="fill:none;stroke:#b0b0b0;stroke-linecap:square;stroke-width:0.8;"/>
     </g>
     <g id="line2d_40">
      <g>
       <use style="stroke:#000000;stroke-width:0.8;" x="76.5" xlink:href="#mc04fc81595" y="138.096"/>
      </g>
     </g>
     <g id="text_21">
      <!-- 0.8 -->
      <g transform="translate(53.596875 141.895219)scale(0.1 -0.1)">
       <use xlink:href="#DejaVuSans-48"/>
       <use x="63.623047" xlink:href="#DejaVuSans-46"/>
       <use x="95.410156" xlink:href="#DejaVuSans-56"/>
      </g>
     </g>
    </g>
    <g id="ytick_10">
     <g id="line2d_41">
      <path clip-path="url(#p4c7f340dbc)" d="M 76.5 99.288 
L 550.8 99.288 
" style="fill:none;stroke:#b0b0b0;stroke-linecap:square;stroke-width:0.8;"/>
     </g>
     <g id="line2d_42">
      <g>
       <use style="stroke:#000000;stroke-width:0.8;" x="76.5" xlink:href="#mc04fc81595" y="99.288"/>
      </g>
     </g>
     <g id="text_22">
      <!-- 0.9 -->
      <g transform="translate(53.596875 103.087219)scale(0.1 -0.1)">
       <use xlink:href="#DejaVuSans-48"/>
       <use x="63.623047" xlink:href="#DejaVuSans-46"/>
       <use x="95.410156" xlink:href="#DejaVuSans-57"/>
      </g>
     </g>
    </g>
    <g id="ytick_11">
     <g id="line2d_43">
      <path clip-path="url(#p4c7f340dbc)" d="M 76.5 60.48 
L 550.8 60.48 
" style="fill:none;stroke:#b0b0b0;stroke-linecap:square;stroke-width:0.8;"/>
     </g>
     <g id="line2d_44">
      <g>
       <use style="stroke:#000000;stroke-width:0.8;" x="76.5" xlink:href="#mc04fc81595" y="60.48"/>
      </g>
     </g>
     <g id="text_23">
      <!-- 1.0 -->
      <g transform="translate(53.596875 64.279219)scale(0.1 -0.1)">
       <use xlink:href="#DejaVuSans-49"/>
       <use x="63.623047" xlink:href="#DejaVuSans-46"/>
       <use x="95.410156" xlink:href="#DejaVuSans-48"/>
      </g>
     </g>
    </g>
    <g id="text_24">
     <!-- #correct/1039 -->
     <defs>
      <path d="M 51.125 44 
L 36.921875 44 
L 32.8125 27.6875 
L 47.125 27.6875 
z
M 43.796875 71.78125 
L 38.71875 51.515625 
L 52.984375 51.515625 
L 58.109375 71.78125 
L 65.921875 71.78125 
L 60.890625 51.515625 
L 76.125 51.515625 
L 76.125 44 
L 58.984375 44 
L 54.984375 27.6875 
L 70.515625 27.6875 
L 70.515625 20.21875 
L 53.078125 20.21875 
L 48 0 
L 40.1875 0 
L 45.21875 20.21875 
L 30.90625 20.21875 
L 25.875 0 
L 18.015625 0 
L 23.09375 20.21875 
L 7.71875 20.21875 
L 7.71875 27.6875 
L 24.90625 27.6875 
L 29 44 
L 13.28125 44 
L 13.28125 51.515625 
L 30.90625 51.515625 
L 35.890625 71.78125 
z
" id="DejaVuSans-35"/>
      <path d="M 18.3125 70.21875 
L 18.3125 54.6875 
L 36.8125 54.6875 
L 36.8125 47.703125 
L 18.3125 47.703125 
L 18.3125 18.015625 
Q 18.3125 11.328125 20.140625 9.421875 
Q 21.96875 7.515625 27.59375 7.515625 
L 36.8125 7.515625 
L 36.8125 0 
L 27.59375 0 
Q 17.1875 0 13.234375 3.875 
Q 9.28125 7.765625 9.28125 18.015625 
L 9.28125 47.703125 
L 2.6875 47.703125 
L 2.6875 54.6875 
L 9.28125 54.6875 
L 9.28125 70.21875 
z
" id="DejaVuSans-116"/>
      <path d="M 25.390625 72.90625 
L 33.6875 72.90625 
L 8.296875 -9.28125 
L 0 -9.28125 
z
" id="DejaVuSans-47"/>
     </defs>
     <g transform="translate(47.517187 290.624688)rotate(-90)scale(0.1 -0.1)">
      <use xlink:href="#DejaVuSans-35"/>
      <use x="83.789062" xlink:href="#DejaVuSans-99"/>
      <use x="138.769531" xlink:href="#DejaVuSans-111"/>
      <use x="199.951172" xlink:href="#DejaVuSans-114"/>
      <use x="239.314453" xlink:href="#DejaVuSans-114"/>
      <use x="278.177734" xlink:href="#DejaVuSans-101"/>
      <use x="339.701172" xlink:href="#DejaVuSans-99"/>
      <use x="394.681641" xlink:href="#DejaVuSans-116"/>
      <use x="433.890625" xlink:href="#DejaVuSans-47"/>
      <use x="467.582031" xlink:href="#DejaVuSans-49"/>
      <use x="531.205078" xlink:href="#DejaVuSans-48"/>
      <use x="594.828125" xlink:href="#DejaVuSans-51"/>
      <use x="658.451172" xlink:href="#DejaVuSans-57"/>
     </g>
    </g>
   </g>
   <g id="line2d_45">
    <path clip-path="url(#p4c7f340dbc)" d="M 76.5 448.186487 
L 76.5 370.869297 
L 78.769378 370.869297 
L 78.317241 351.446622 
L 78.146875 341.361771 
L 79.782353 341.361771 
L 79.348649 324.927199 
L 80.76018 324.927199 
L 80.553846 318.577478 
L 81.889773 318.577478 
L 81.844225 317.456939 
L 83.161517 317.456939 
L 83.069252 315.589374 
L 84.361326 315.589374 
L 84.233152 313.348296 
L 85.497561 313.348296 
L 85.401072 311.854244 
L 86.645455 311.854244 
L 86.591489 311.107218 
L 87.822812 311.107218 
L 87.703937 309.613167 
L 88.91623 309.613167 
L 88.538071 305.131011 
L 89.708354 305.131011 
L 89.510723 302.889933 
L 91.8 302.889933 
L 91.724444 302.142907 
L 92.855172 302.142907 
L 92.347733 297.287238 
L 94.525653 297.287238 
L 94.230841 294.672647 
L 95.295105 294.672647 
L 95.035862 292.431569 
L 96.081193 292.431569 
L 95.815385 290.190491 
L 99.895964 290.190491 
L 99.739644 289.069952 
L 101.739911 289.069952 
L 101.408534 286.828874 
L 102.389738 286.828874 
L 102.165584 285.334822 
L 104.099353 285.334822 
L 103.980901 284.587796 
L 105.890385 284.587796 
L 105.579704 282.720231 
L 107.454316 282.720231 
L 106.941615 279.732127 
L 107.858678 279.732127 
L 107.794021 279.358614 
L 108.705556 279.358614 
L 108.639425 278.985101 
L 109.545492 278.985101 
L 109.477914 278.611588 
L 111.27556 278.611588 
L 110.925 276.744023 
L 111.81006 276.744023 
L 111.668537 275.996997 
L 114.292829 275.996997 
L 114.068317 274.876458 
L 116.647441 274.876458 
L 116.25614 273.008893 
L 117.101556 273.008893 
L 117.022718 272.63538 
L 118.700774 272.63538 
L 118.619305 272.261867 
L 119.452023 272.261867 
L 119.28714 271.514841 
L 120.937285 271.514841 
L 120.768 270.767815 
L 122.4 270.767815 
L 122.226465 270.020789 
L 123.840678 270.020789 
L 123.663039 269.273763 
L 124.462921 269.273763 
L 124.017996 267.406198 
L 126.380258 267.406198 
L 125.924314 265.538633 
L 126.699635 265.538633 
L 126.33587 264.044581 
L 129.389568 264.044581 
L 129.294614 263.671068 
L 131.552679 263.671068 
L 131.356762 262.924042 
L 133.583894 262.924042 
L 133.483039 262.550529 
L 134.219048 262.550529 
L 133.71451 260.682964 
L 135.890609 260.682964 
L 135.378621 258.815399 
L 136.093632 258.815399 
L 135.991237 258.441886 
L 136.702744 258.441886 
L 136.496923 257.69486 
L 138.610714 257.69486 
L 138.505263 257.321347 
L 139.204068 257.321347 
L 139.09797 256.947834 
L 140.486509 256.947834 
L 139.951505 255.080269 
L 144.705124 255.080269 
L 144.592574 254.706756 
L 145.261779 254.706756 
L 145.035961 253.959731 
L 145.701148 253.959731 
L 145.587889 253.586218 
L 146.25 253.586218 
L 146.022801 252.839192 
L 149.292407 252.839192 
L 149.175 252.465679 
L 149.821739 252.465679 
L 149.703859 252.092166 
L 150.347673 252.092166 
L 150.229327 251.718653 
L 150.87024 251.718653 
L 150.751438 251.34514 
L 152.659459 251.34514 
L 152.538571 250.971627 
L 153.798892 250.971627 
L 153.192151 249.104062 
L 156.288785 249.104062 
L 156.040994 248.357036 
L 157.871406 248.357036 
L 157.745833 247.983523 
L 158.351464 247.983523 
L 157.974847 246.862984 
L 158.576417 246.862984 
L 158.450917 246.489471 
L 159.049924 246.489471 
L 158.79863 245.742445 
L 159.394377 245.742445 
L 159.268589 245.368932 
L 159.861818 245.368932 
L 159.60997 244.621906 
L 161.374737 244.621906 
L 161.247297 244.248393 
L 162.99417 244.248393 
L 162.736364 243.501367 
L 163.889599 243.501367 
L 163.759941 243.127854 
L 164.90503 243.127854 
L 164.774446 242.754341 
L 168.165593 242.754341 
L 167.764723 241.633802 
L 168.878198 241.633802 
L 168.744122 241.260289 
L 169.297826 241.260289 
L 169.163531 240.886776 
L 170.813256 240.886776 
L 170.407317 239.766237 
L 172.037571 239.766237 
L 171.494744 238.272185 
L 172.032766 238.272185 
L 171.627966 237.151646 
L 172.162764 237.151646 
L 172.028028 236.778133 
L 173.091994 236.778133 
L 172.956522 236.40462 
L 175.064435 236.40462 
L 174.790264 235.657594 
L 175.3125 235.657594 
L 174.90249 234.537055 
L 176.970702 234.537055 
L 176.557808 233.416516 
L 177.069767 233.416516 
L 176.795362 232.66949 
L 179.831935 232.66949 
L 179.692297 232.295977 
L 180.193117 232.295977 
L 180.053369 231.922464 
L 180.552355 231.922464 
L 180.27302 231.175438 
L 181.26506 231.175438 
L 181.125 230.801925 
L 181.618558 230.801925 
L 181.4784 230.428412 
L 182.949801 230.428412 
L 182.808621 230.054899 
L 189.045763 230.054899 
L 188.899219 229.681386 
L 189.369831 229.681386 
L 189.223247 229.307873 
L 192.94126 229.307873 
L 192.791784 228.93436 
L 193.250769 228.93436 
L 192.952174 228.187334 
L 201.87606 228.187334 
L 201.564179 227.440308 
L 203.722621 227.440308 
L 203.565556 227.066795 
L 203.993711 227.066795 
L 203.8367 226.693282 
L 205.113865 226.693282 
L 204.95625 226.319769 
L 205.801834 226.319769 
L 205.486463 225.572743 
L 207.162743 225.572743 
L 207.004364 225.19923 
L 209.486643 225.19923 
L 209.167347 224.452204 
L 209.576978 224.452204 
L 209.417605 224.078691 
L 209.825957 224.078691 
L 209.666667 223.705178 
L 210.073747 223.705178 
L 209.914541 223.331665 
L 210.725208 223.331665 
L 210.406762 222.584639 
L 211.61383 222.584639 
L 211.454309 222.211126 
L 213.049354 222.211126 
L 212.729191 221.4641 
L 213.914019 221.4641 
L 213.434109 220.343561 
L 216.547059 220.343561 
L 216.385714 219.970048 
L 218.301031 219.970048 
L 218.138787 219.596535 
L 218.518971 219.596535 
L 218.356849 219.223022 
L 219.491468 219.223022 
L 219.328977 218.849509 
L 219.705221 218.849509 
L 219.542857 218.475996 
L 221.038375 218.475996 
L 220.875423 218.102483 
L 221.246959 218.102483 
L 221.084139 217.72897 
L 222.193049 217.72897 
L 222.029899 217.355457 
L 222.397651 217.355457 
L 222.234637 216.981944 
L 222.601339 216.981944 
L 222.438462 216.608431 
L 222.80412 216.608431 
L 222.641379 216.234918 
L 224.095017 216.234918 
L 223.931748 215.861405 
L 224.292928 215.861405 
L 224.129801 215.487892 
L 224.489967 215.487892 
L 224.326982 215.114379 
L 225.044505 215.114379 
L 224.881449 214.740866 
L 229.466883 214.740866 
L 229.301514 214.367353 
L 230.685791 214.367353 
L 230.52 213.99384 
L 230.864017 213.99384 
L 230.698391 213.620327 
L 231.725455 213.620327 
L 231.559615 213.246814 
L 232.240299 213.246814 
L 232.074441 212.873301 
L 234.766948 212.873301 
L 234.6 212.499788 
L 235.265684 212.499788 
L 235.098738 212.126275 
L 236.749895 212.126275 
L 236.415344 211.379249 
L 236.74317 211.379249 
L 236.57625 211.005736 
L 237.55514 211.005736 
L 237.388071 210.632223 
L 239.005263 210.632223 
L 238.670546 209.885197 
L 241.537041 209.885197 
L 241.368807 209.511684 
L 241.68391 209.511684 
L 241.180812 208.391145 
L 242.433064 208.391145 
L 242.265455 208.017632 
L 244.124096 208.017632 
L 243.955968 207.644119 
L 244.8765 207.644119 
L 244.708292 207.270606 
L 245.926567 207.270606 
L 245.758151 206.897093 
L 246.665114 206.897093 
L 246.496634 206.52358 
L 247.098024 206.52358 
L 246.761538 205.776554 
L 247.360039 205.776554 
L 247.192035 205.403041 
L 247.787929 205.403041 
L 247.62 205.029528 
L 250.854704 205.029528 
L 250.685756 204.656015 
L 250.976283 204.656015 
L 250.807544 204.282502 
L 251.963584 204.282502 
L 251.794706 203.908989 
L 254.927143 203.908989 
L 254.587928 203.161963 
L 257.100566 203.161963 
L 256.760771 202.414937 
L 257.588274 202.414937 
L 257.418557 202.041424 
L 257.693258 202.041424 
L 257.523761 201.667911 
L 258.617055 201.667911 
L 258.278233 200.920885 
L 260.439058 200.920885 
L 260.269373 200.547372 
L 261.3375 200.547372 
L 261.167769 200.173859 
L 262.227722 200.173859 
L 262.057952 199.800346 
L 266.22 199.800346 
L 266.049235 199.426833 
L 269.091986 199.426833 
L 268.920641 199.053321 
L 270.665252 199.053321 
L 270.493728 198.679808 
L 270.988095 198.679808 
L 270.81674 198.306295 
L 271.063204 198.306295 
L 270.892084 197.932782 
L 273.574129 197.932782 
L 273.402611 197.559269 
L 273.643826 197.559269 
L 273.472546 197.185756 
L 274.910717 197.185756 
L 274.739378 196.812243 
L 275.926225 196.812243 
L 275.754897 196.43873 
L 277.399061 196.43873 
L 277.227645 196.065217 
L 286.474526 196.065217 
L 286.301565 195.691704 
L 287.602377 195.691704 
L 287.429484 195.318191 
L 290.625728 195.318191 
L 290.452627 194.944678 
L 294.594988 194.944678 
L 294.421622 194.571165 
L 297.84 194.571165 
L 297.666536 194.197652 
L 300.607668 194.197652 
L 300.434211 193.824139 
L 309.041704 193.824139 
L 308.868036 193.450626 
L 315.030786 193.450626 
L 314.857309 193.077113 
L 317.403453 193.077113 
L 317.230266 192.7036 
L 320.37766 192.7036 
L 320.204819 192.330087 
L 321.019068 192.330087 
L 320.846507 191.956574 
L 321.170613 191.956574 
L 320.826249 191.209548 
L 321.149473 191.209548 
L 320.806105 190.462522 
L 321.449895 190.462522 
L 321.278601 190.089009 
L 322.8725 190.089009 
L 322.701527 189.715496 
L 327.505231 189.715496 
L 327.334827 189.341983 
L 331.064219 189.341983 
L 330.894396 188.96847 
L 331.916534 188.96847 
L 331.747047 188.594957 
L 332.61573 188.594957 
L 332.446565 188.221444 
L 333.451479 188.221444 
L 333.282654 187.847931 
L 338.581154 187.847931 
L 338.413261 187.474418 
L 339.765181 187.474418 
L 339.59771 187.100905 
L 340.133756 187.100905 
L 339.966582 186.727392 
L 344.799814 186.727392 
L 344.633684 186.353879 
L 346.405525 186.353879 
L 346.239939 185.980366 
L 352.328036 185.980366 
L 352.16395 185.606853 
L 352.282045 185.606853 
L 355.418373 185.606853 
L 355.255263 185.23334 
L 355.36955 185.23334 
L 355.71161 185.23334 
L 355.548805 184.859827 
L 355.662587 184.859827 
L 356.003141 184.859827 
L 355.84064 184.486314 
L 355.953922 184.486314 
L 357.6375 184.486314 
L 357.475648 184.112801 
L 357.586881 184.112801 
L 358.251606 184.112801 
L 358.090143 183.739288 
L 358.200515 183.739288 
L 360.812034 183.739288 
L 360.651496 183.365775 
L 360.758804 183.365775 
L 363.506897 183.365775 
L 363.34736 182.992262 
L 363.4515 182.992262 
L 366.119113 182.992262 
L 365.960591 182.618749 
L 366.061707 182.618749 
L 367.166721 182.618749 
L 367.00875 182.245236 
L 367.108582 182.245236 
L 370.6317 182.245236 
L 370.47508 181.871723 
L 370.571048 181.871723 
L 372.09277 181.871723 
L 371.936867 181.49821 
L 372.031154 181.49821 
L 373.526346 181.49821 
L 373.30882 180.751184 
L 377.910778 180.751184 
L 377.757622 180.377671 
L 377.845505 180.377671 
L 380.013942 180.377671 
L 379.70982 179.630645 
L 379.795493 179.630645 
L 384.216585 179.630645 
L 384.066553 179.257132 
L 384.147807 179.257132 
L 392.846051 179.257132 
L 392.7 178.883619 
L 392.772958 178.883619 
L 394.859836 178.883619 
L 394.714929 178.510106 
L 394.785942 178.510106 
L 394.998592 178.510106 
L 394.853951 178.136593 
L 394.924739 178.136593 
L 396.048671 178.136593 
L 395.90473 177.76308 
L 395.974471 177.76308 
L 397.21916 177.76308 
L 397.075982 177.389567 
L 397.144578 177.389567 
L 398.503759 177.389567 
L 398.361406 177.016054 
L 398.428767 177.016054 
L 404.319074 177.016054 
L 404.179873 176.642541 
L 404.242105 176.642541 
L 405.659016 176.642541 
L 405.520714 176.269028 
L 405.58173 176.269028 
L 406.731375 176.269028 
L 406.593836 175.895515 
L 406.653872 175.895515 
L 415.179553 175.895515 
L 414.967606 175.148489 
L 415.020727 175.148489 
L 418.939916 175.148489 
L 418.809909 174.774976 
L 418.910053 174.774976 
L 422.889073 174.774976 
L 422.761677 174.401463 
L 422.855788 174.401463 
L 426.109384 174.401463 
L 425.984211 174.02795 
L 426.073524 174.02795 
L 426.95968 174.02795 
L 426.835227 173.654437 
L 426.923208 173.654437 
L 427.404878 173.654437 
L 427.280883 173.280924 
L 427.368114 173.280924 
L 427.62907 173.280924 
L 427.505389 172.907411 
L 427.592186 172.907411 
L 429.218409 172.907411 
L 429.095938 172.533898 
L 429.180396 172.533898 
L 429.222581 172.533898 
L 429.100277 172.160385 
L 429.184615 172.160385 
L 429.436929 172.160385 
L 429.314933 171.786872 
L 429.39886 171.786872 
L 439.297367 171.786872 
L 439.182303 171.413359 
L 439.288403 171.413359 
L 439.5 171.413359 
L 439.385236 171.039846 
L 439.490809 171.039846 
L 441.391462 171.039846 
L 441.278212 170.666333 
L 441.380093 170.666333 
L 442.58804 170.666333 
L 442.475812 170.29282 
L 442.575345 170.29282 
L 444.528271 170.29282 
L 444.417619 169.919307 
L 444.513488 169.919307 
L 450.593883 169.919307 
L 450.487967 169.545794 
L 450.601442 169.545794 
L 450.629771 169.545794 
L 450.524025 169.172281 
L 450.637267 169.172281 
L 456.469662 169.172281 
L 456.36866 168.798768 
L 456.468959 168.798768 
L 456.544044 168.798768 
L 456.443236 168.425255 
L 456.543243 168.425255 
L 459.611843 168.425255 
L 459.51366 168.051742 
L 459.607143 168.051742 
L 462.588187 168.051742 
L 462.492597 167.678229 
L 462.60178 167.678229 
L 462.992614 167.678229 
L 462.89749 167.304716 
L 463.005531 167.304716 
L 464.469833 167.304716 
L 464.376075 166.931203 
L 464.480377 166.931203 
L 466.255745 166.931203 
L 466.163626 166.55769 
L 466.263527 166.55769 
L 468.949371 166.55769 
L 468.859689 166.184177 
L 468.971885 166.184177 
L 469.546703 166.184177 
L 469.457657 165.810664 
L 469.568077 165.810664 
L 472.268701 165.810664 
L 472.182156 165.437151 
L 472.285171 165.437151 
L 473.015621 165.437151 
L 472.929851 165.063638 
L 473.030784 165.063638 
L 473.248578 165.063638 
L 473.163127 164.690125 
L 473.263325 164.690125 
L 473.908362 164.690125 
L 473.823608 164.316612 
L 473.921981 164.316612 
L 474.003766 164.316612 
L 473.919209 163.943099 
L 474.017208 163.943099 
L 474.422866 163.943099 
L 474.335514 163.196073 
L 474.367771 163.196073 
L 474.383889 163.196073 
L 474.3 162.82256 
L 474.412737 162.82256 
L 475.443925 162.82256 
L 475.361088 162.449047 
L 475.470578 162.449047 
L 479.729225 162.449047 
L 479.650362 162.075534 
L 479.761511 162.075534 
L 480.746447 162.075534 
L 480.668618 161.702021 
L 480.776471 161.702021 
L 481.666882 161.702021 
L 481.666882 161.702021 
" style="fill:none;stroke:#1f77b4;stroke-linecap:square;stroke-width:2;"/>
   </g>
   <g id="line2d_46">
    <path clip-path="url(#p4c7f340dbc)" d="M 76.5 448.186487 
L 76.5 447.439461 
L 195.075 447.439461 
L 171.36 447.065948 
L 144.257143 446.318922 
L 129.2 445.571896 
L 119.618182 444.82487 
L 112.984615 444.077844 
L 108.12 443.330818 
L 104.4 442.583792 
L 100.215 441.463253 
L 97.121739 440.342714 
L 94.742308 439.222175 
L 92.855172 438.101636 
L 92.31 437.728123 
L 107.1 437.728123 
L 105.245455 436.981097 
L 163.871053 436.981097 
L 161.630769 436.607584 
L 180.614634 436.607584 
L 175.772093 435.860558 
L 184.295455 435.860558 
L 179.608696 435.113532 
L 195.075 435.113532 
L 188.1 433.992993 
L 195.075 433.992993 
L 192.837736 433.61948 
L 199.466667 433.61948 
L 195.075 432.872454 
L 201.315789 432.872454 
L 199.163793 432.498941 
L 241.786364 432.498941 
L 236.925 431.751915 
L 250.187324 431.751915 
L 247.775 431.378402 
L 271.084615 431.378402 
L 263.877778 430.257863 
L 267.376829 430.257863 
L 265.077108 429.88435 
L 275.044186 429.88435 
L 270.531818 429.137324 
L 282.717391 429.137324 
L 280.5 428.763811 
L 286.190526 428.763811 
L 284.00625 428.390298 
L 286.756701 428.390298 
L 284.611224 428.016785 
L 287.3 428.016785 
L 283.125743 427.269759 
L 288.323301 427.269759 
L 286.286538 426.896246 
L 293.702804 426.896246 
L 289.717431 426.14922 
L 301.168421 426.14922 
L 299.214783 425.775707 
L 303.515385 425.775707 
L 301.591525 425.402194 
L 319.251969 425.402194 
L 317.355469 425.028681 
L 319.165116 425.028681 
L 317.298462 424.655168 
L 320.836364 424.655168 
L 318.999248 424.281655 
L 320.729104 424.281655 
L 318.92 423.908142 
L 320.625 423.908142 
L 318.843066 423.534629 
L 322.180576 423.534629 
L 320.425714 423.161116 
L 326.825 423.161116 
L 325.098621 422.787603 
L 334.066887 422.787603 
L 330.7 422.040577 
L 334.932692 422.040577 
L 333.286624 421.667064 
L 342.570732 421.667064 
L 340.958182 421.293551 
L 344.705357 421.293551 
L 343.118343 420.920038 
L 353.619101 420.920038 
L 352.07095 420.546526 
L 358.516216 420.546526 
L 357 420.173013 
L 364.029016 420.173013 
L 362.546907 419.7995 
L 366.35 419.7995 
L 364.893467 419.425987 
L 368.55665 419.425987 
L 367.125 419.052474 
L 374.056132 419.052474 
L 372.659155 418.678961 
L 373.491589 418.678961 
L 372.110233 418.305448 
L 372.9375 418.305448 
L 371.571429 417.931935 
L 377.944 417.931935 
L 376.610177 417.558422 
L 383.281277 417.558422 
L 381.981356 417.184909 
L 391.4352 417.184909 
L 390.180478 416.811396 
L 390.817857 416.811396 
L 389.575494 416.437883 
L 390.210236 416.437883 
L 388.98 416.06437 
L 394.496591 416.06437 
L 393.296604 415.690857 
L 396.213333 415.690857 
L 395.033579 415.317344 
L 400.576868 415.317344 
L 399.42766 414.943831 
L 402.58125 414.943831 
L 401.452941 414.570318 
L 416.758696 414.570318 
L 415.705263 414.196805 
L 423.952326 414.196805 
L 422.945217 413.823292 
L 423.31474 413.823292 
L 422.315274 413.449779 
L 437.354198 413.449779 
L 436.438325 413.076266 
L 436.727848 413.076266 
L 437.871429 413.076266 
L 436.069077 412.32924 
L 436.354478 412.32924 
L 436.92104 412.32924 
L 435.145567 411.582214 
L 437.925721 411.582214 
L 436.469928 410.835188 
L 437.551064 410.835188 
L 436.699528 410.461675 
L 436.968 410.461675 
L 437.235211 410.461675 
L 436.390398 410.088162 
L 436.65771 410.088162 
L 437.452204 410.088162 
L 436.616667 409.714649 
L 436.88037 409.714649 
L 440.200897 409.714649 
L 439.387248 409.341136 
L 439.635938 409.341136 
L 440.13 409.341136 
L 439.323725 408.967623 
L 439.570354 408.967623 
L 443.373077 408.967623 
L 442.590832 408.59411 
L 442.821064 408.59411 
L 443.278602 408.59411 
L 442.503171 408.220597 
L 442.731646 408.220597 
L 444.745342 408.220597 
L 443.984504 407.847084 
L 444.204742 407.847084 
L 448.019284 407.847084 
L 447.282143 407.473571 
L 447.487129 407.473571 
L 448.700196 407.473571 
L 447.973242 407.100058 
L 448.173684 407.100058 
L 450.135946 407.100058 
L 449.422901 406.726545 
L 449.616 406.726545 
L 450.190909 406.726545 
L 449.484499 406.353032 
L 449.67566 406.353032 
L 453.705978 406.353032 
L 453.02387 405.979519 
L 453.200361 405.979519 
L 458.214041 405.979519 
L 457.07121 405.232493 
L 458.331429 405.232493 
L 457.690772 404.85898 
L 457.846734 404.85898 
L 460.859806 404.85898 
L 460.237864 404.485467 
L 460.384168 404.485467 
L 460.675362 404.485467 
L 460.057717 404.111954 
L 460.203371 404.111954 
L 462.055189 404.111954 
L 461.449922 403.738441 
L 461.589969 403.738441 
L 462.007488 403.738441 
L 461.407009 403.364928 
L 461.546034 403.364928 
L 464.238462 403.364928 
L 463.654518 402.991415 
L 463.785564 402.991415 
L 465.829956 402.991415 
L 465.259091 402.617902 
L 465.384334 402.617902 
L 470.109959 402.617902 
L 469.566298 402.244389 
L 469.678345 402.244389 
L 471.75 402.244389 
L 471.219463 401.870876 
L 471.326139 401.870876 
L 474.00272 401.870876 
L 473.488486 401.497363 
L 473.588372 401.497363 
L 473.985347 401.497363 
L 473.475096 401.12385 
L 473.574231 401.12385 
L 474.455133 401.12385 
L 473.951392 400.750337 
L 474.048546 400.750337 
L 474.434717 400.750337 
L 473.934799 400.376824 
L 474.031242 400.376824 
L 479.155152 400.376824 
L 478.684211 400.003311 
L 478.852509 400.003311 
L 479.103488 400.003311 
L 478.635889 399.629798 
L 478.803129 399.629798 
L 479.790514 399.629798 
L 479.330137 399.256285 
L 479.492938 399.256285 
L 480.136795 399.256285 
L 479.681736 398.882772 
L 479.841732 398.882772 
L 482.307166 398.882772 
L 481.867028 398.509259 
L 482.016234 398.509259 
L 482.312716 398.509259 
L 481.875888 398.135746 
L 482.023953 398.135746 
L 482.171383 398.135746 
L 481.737045 397.762233 
L 481.884615 397.762233 
L 483.816822 397.762233 
L 483.394295 397.38872 
L 483.533851 397.38872 
L 485.428672 397.38872 
L 485.017688 397.015207 
L 485.149649 397.015207 
L 485.215431 397.015207 
L 484.806306 396.641694 
L 484.938162 396.641694 
L 487.951859 396.641694 
L 487.56 396.268181 
L 487.680228 396.268181 
L 489.373543 396.268181 
L 488.991959 395.894668 
L 489.105996 395.894668 
L 490.767415 395.894668 
L 490.395874 395.521155 
L 490.504029 395.521155 
L 490.9328 395.521155 
L 490.564742 395.147642 
L 490.671543 395.147642 
L 490.884011 395.147642 
L 490.51827 394.774129 
L 490.624493 394.774129 
L 493.884 394.774129 
L 493.237406 394.027103 
L 493.332946 394.027103 
L 493.805926 394.027103 
L 493.462747 393.65359 
L 493.603856 393.65359 
L 496.918934 393.65359 
L 496.594286 393.280077 
L 496.719569 393.280077 
L 497.701362 393.280077 
L 497.382993 392.906564 
L 497.503846 392.906564 
L 497.902769 392.906564 
L 497.587584 392.533051 
L 497.706716 392.533051 
L 498.449007 392.533051 
L 498.13875 392.159538 
L 498.254659 392.159538 
L 498.675328 392.159538 
L 498.368291 391.786025 
L 498.482438 391.786025 
L 498.59609 391.786025 
L 498.023844 391.038999 
L 498.1 391.038999 
L 498.175937 391.038999 
L 497.872354 390.665486 
L 497.986422 390.665486 
L 498.21309 390.665486 
L 497.911651 390.291973 
L 498.024822 390.291973 
L 498.54661 390.291973 
L 498.248765 389.91846 
L 498.359789 389.91846 
L 498.580435 389.91846 
L 498.284653 389.544947 
L 498.394825 389.544947 
L 499.081988 389.544947 
L 498.571507 388.797921 
L 498.607428 388.797921 
L 498.786292 388.797921 
L 498.497055 388.424408 
L 498.604306 388.424408 
L 500.027194 388.424408 
L 499.745781 388.050895 
L 499.881113 388.050895 
L 500.116227 388.050895 
L 499.836981 387.677382 
L 499.971006 387.677382 
L 501.050386 387.677382 
L 500.777363 387.303869 
L 500.905709 387.303869 
L 500.937692 387.303869 
L 500.458696 386.556843 
L 500.522989 386.556843 
L 501.250724 386.556843 
L 500.983585 386.18333 
L 501.108595 386.18333 
L 501.571846 386.18333 
L 501.307826 385.809817 
L 501.430483 385.809817 
L 503.566805 385.809817 
L 503.313803 385.436304 
L 503.426064 385.436304 
L 503.732061 385.436304 
L 503.481338 385.062791 
L 503.592155 385.062791 
L 503.975958 385.062791 
L 503.727858 384.689278 
L 503.836885 384.689278 
L 506.673069 384.689278 
L 506.439152 384.315765 
L 506.559436 384.315765 
L 507.127837 384.315765 
L 506.897432 383.942252 
L 507.014568 383.942252 
L 507.454041 383.942252 
L 507.226505 383.568739 
L 507.341232 383.568739 
L 507.568884 383.568739 
L 507.343194 383.195226 
L 507.456658 383.195226 
L 508.059269 383.195226 
L 507.837159 382.821713 
L 507.947433 382.821713 
L 508.188055 382.821713 
L 507.967806 382.4482 
L 508.076794 382.4482 
L 508.67702 382.4482 
L 508.460281 382.074687 
L 508.5873 382.074687 
L 508.692569 382.074687 
L 508.477119 381.701174 
L 508.60333 381.701174 
L 508.749629 381.701174 
L 508.535644 381.327661 
L 508.660809 381.327661 
L 509.113477 381.327661 
L 508.711945 380.580635 
L 508.8143 380.580635 
L 509.098261 380.580635 
L 508.74159 379.833609 
L 508.80231 379.833609 
L 509.023456 379.833609 
L 508.816507 379.460096 
L 508.936689 379.460096 
L 509.332372 379.460096 
L 509.127917 379.086583 
L 509.24569 379.086583 
L 509.748441 379.086583 
L 509.54693 378.71307 
L 509.661735 378.71307 
L 510.039844 378.71307 
L 509.840698 378.339557 
L 509.953275 378.339557 
L 510.324103 378.339557 
L 510.127269 377.966044 
L 510.237692 377.966044 
L 510.834463 377.966044 
L 510.640909 377.592531 
L 510.765793 377.592531 
L 512.089948 377.592531 
L 511.90292 377.219018 
L 512.019478 377.219018 
L 512.102307 377.219018 
L 511.763795 376.471992 
L 511.846851 376.471992 
L 512.610638 376.471992 
L 512.428774 376.098479 
L 512.540457 376.098479 
L 512.572248 376.098479 
L 512.391154 375.724966 
L 512.502484 375.724966 
L 513.00331 375.724966 
L 512.825 375.351453 
L 512.933279 375.351453 
L 513.390423 375.351453 
L 513.214682 374.97794 
L 513.335245 374.97794 
L 513.999252 374.97794 
L 513.827008 374.604427 
L 513.943093 374.604427 
L 514.115859 374.604427 
L 513.860748 373.857401 
L 513.889494 373.857401 
L 514.273238 373.857401 
L 514.021267 373.110375 
L 514.049482 373.110375 
L 514.147896 373.110375 
L 513.841558 372.363349 
L 513.926067 372.363349 
L 514.191146 372.363349 
L 514.025605 371.989836 
L 514.136538 371.989836 
L 515.275155 371.989836 
L 515.114901 371.616323 
L 515.231817 371.616323 
L 515.917529 371.616323 
L 515.760707 371.24281 
L 515.872892 371.24281 
L 516.278165 371.24281 
L 516.123585 370.869297 
L 516.232936 370.869297 
L 516.293389 370.869297 
L 516.058807 370.122271 
L 516.095122 370.122271 
L 516.38293 370.122271 
L 515.884211 368.628219 
L 516.075334 368.628219 
L 515.925 368.254706 
L 516.043865 368.254706 
L 516.395648 368.254706 
L 516.247285 367.881193 
L 516.363429 367.881193 
L 516.604806 367.881193 
L 516.457958 367.50768 
L 516.572165 367.50768 
L 516.932577 367.50768 
L 516.787697 367.134167 
L 516.899213 367.134167 
L 517.996256 367.134167 
L 517.856232 366.760654 
L 517.970765 366.760654 
L 518.022562 366.760654 
L 517.883281 366.387141 
L 517.997108 366.387141 
L 518.191875 366.387141 
L 518.053889 366.013628 
L 518.166034 366.013628 
L 518.347895 366.013628 
L 518.074474 365.266603 
L 518.185476 365.266603 
L 518.444876 365.266603 
L 518.109607 364.146064 
L 518.149436 364.146064 
L 518.474367 364.146064 
L 518.256997 363.399038 
L 518.325405 363.399038 
L 518.805799 363.399038 
L 518.639328 362.652012 
L 518.658279 362.652012 
L 518.930587 362.652012 
L 518.655759 361.531473 
L 518.98886 361.531473 
L 518.861525 361.15796 
L 518.971437 361.15796 
L 519.026109 361.15796 
L 518.772876 360.410934 
L 518.882464 360.410934 
L 518.973216 360.410934 
L 518.847442 360.037421 
L 518.956062 360.037421 
L 518.992105 360.037421 
L 518.787094 359.290395 
L 518.850254 359.290395 
L 519.171177 359.290395 
L 518.950933 358.543369 
L 519.039428 358.543369 
L 519.083491 358.543369 
L 518.960721 358.169856 
L 519.075124 358.169856 
L 519.188708 358.169856 
L 519.066823 357.796343 
L 519.18 357.796343 
L 519.257882 357.796343 
L 519.102373 357.049317 
L 519.128291 357.049317 
L 519.359659 357.049317 
L 519.23987 356.675804 
L 519.350458 356.675804 
L 519.375869 356.675804 
L 519.129123 355.555265 
L 519.515046 355.555265 
L 519.37199 354.808239 
L 519.396861 354.808239 
L 519.471237 354.808239 
L 519.354696 354.434726 
L 519.470092 354.434726 
L 519.552 354.434726 
L 519.4362 354.061213 
L 519.550547 354.061213 
L 519.655982 354.061213 
L 519.540996 353.6877 
L 519.654137 353.6877 
L 519.925525 353.6877 
L 519.811914 353.314187 
L 519.92267 353.314187 
L 519.938428 353.314187 
L 519.814972 352.567161 
L 519.822846 352.567161 
L 519.9717 352.567161 
L 519.857003 351.820135 
L 520.035237 351.820135 
L 519.924186 351.446622 
L 520.039711 351.446622 
L 520.085679 351.446622 
L 519.975224 351.073109 
L 520.089928 351.073109 
L 520.488467 351.073109 
L 520.37978 350.699596 
L 520.491073 350.699596 
L 520.645523 350.699596 
L 520.525532 349.95257 
L 520.540164 349.95257 
L 520.576684 349.95257 
L 520.428358 349.205544 
L 520.472163 349.205544 
L 520.846581 349.205544 
L 520.671439 348.458518 
L 520.749787 348.458518 
L 520.75689 348.458518 
L 520.651914 348.085005 
L 520.765466 348.085005 
L 521.094133 348.085005 
L 520.984342 347.337979 
L 520.998168 347.337979 
L 521.046458 347.337979 
L 520.943578 346.964466 
L 521.053724 346.964466 
L 521.763403 346.964466 
L 521.663209 346.590953 
L 521.774243 346.590953 
L 521.955291 346.590953 
L 521.696665 345.470414 
L 521.767665 345.470414 
L 521.991285 345.470414 
L 521.893267 345.096901 
L 522.007298 345.096901 
L 522.095368 345.096901 
L 521.998034 344.723388 
L 522.110836 344.723388 
L 522.222757 344.723388 
L 522.060766 343.976362 
L 522.14139 343.976362 
L 522.159931 343.976362 
L 522.063842 343.602849 
L 522.174936 343.602849 
L 522.279071 343.602849 
L 522.106776 342.855823 
L 522.198487 342.855823 
L 522.476113 342.855823 
L 522.382025 342.48231 
L 522.495482 342.48231 
L 522.637508 342.48231 
L 522.456958 341.735284 
L 522.563156 341.735284 
L 522.621811 341.735284 
L 522.529159 341.361771 
L 522.640277 341.361771 
L 522.727387 341.361771 
L 522.584129 340.614745 
L 522.653655 340.614745 
L 522.694054 340.614745 
L 522.602583 340.241232 
L 522.711987 340.241232 
L 522.831924 340.241232 
L 522.741187 339.867719 
L 522.854809 339.867719 
L 522.871773 339.867719 
L 522.781875 339.120693 
L 522.804452 339.120693 
L 523.641528 339.120693 
L 523.493501 338.373667 
L 523.578502 338.373667 
L 523.73646 338.373667 
L 523.649971 338.000154 
L 523.759784 338.000154 
L 523.935706 338.000154 
L 523.850105 337.626641 
L 523.96306 337.626641 
L 524.01409 337.626641 
L 523.929011 337.253128 
L 523.97491 337.253128 
" style="fill:none;stroke:#ff7f0e;stroke-linecap:square;stroke-width:2;"/>
   </g>
   <g id="line2d_47">
    <path clip-path="url(#p4c7f340dbc)" d="M 76.5 448.186487 
L 76.5 399.629798 
L 80.093182 399.629798 
L 79.840141 395.894668 
L 83.133566 395.894668 
L 82.99726 394.774129 
L 86.179592 394.774129 
L 85.986 393.65359 
L 89.064238 393.65359 
L 88.981579 393.280077 
L 92 393.280077 
L 91.605096 391.786025 
L 94.511392 391.786025 
L 94.28625 391.038999 
L 97.121739 391.038999 
L 96.500602 389.171434 
L 99.220958 389.171434 
L 98.432948 386.930356 
L 101.032759 386.930356 
L 100.083978 384.315765 
L 102.56044 384.315765 
L 102.277174 383.568739 
L 104.701622 383.568739 
L 104.251596 382.4482 
L 106.614286 382.4482 
L 106.298953 381.701174 
L 108.614063 381.701174 
L 107.798985 379.833609 
L 110.036364 379.833609 
L 109.701 379.086583 
L 111.895522 379.086583 
L 111.546798 378.339557 
L 113.7 378.339557 
L 111.961682 374.604427 
L 114.002791 374.604427 
L 113.657143 373.857401 
L 117.649315 373.857401 
L 115.852402 370.122271 
L 117.743478 370.122271 
L 117.212446 369.001732 
L 120.902553 369.001732 
L 120.527848 368.254706 
L 124.128452 368.254706 
L 123.733195 367.50768 
L 125.497934 367.50768 
L 125.296296 367.134167 
L 127.040164 367.134167 
L 126.833878 366.760654 
L 133.644578 366.760654 
L 133.416 366.387141 
L 138.365217 366.387141 
L 137.88 365.640115 
L 139.492969 365.640115 
L 139.24786 365.266603 
L 142.425869 365.266603 
L 141.92069 364.519577 
L 146.567045 364.519577 
L 146.302642 364.146064 
L 150.830597 364.146064 
L 149.7375 362.652012 
L 151.206593 362.652012 
L 150.933942 362.278499 
L 152.388 362.278499 
L 152.113043 361.904986 
L 153.552347 361.904986 
L 153.27518 361.531473 
L 154.7 361.531473 
L 154.143416 360.784447 
L 156.946643 360.784447 
L 156.66338 360.410934 
L 158.046316 360.410934 
L 157.761189 360.037421 
L 160.490625 360.037421 
L 160.2 359.663908 
L 161.546897 359.663908 
L 161.254639 359.290395 
L 162.588699 359.290395 
L 162.294881 358.916882 
L 164.928814 358.916882 
L 164.630068 358.543369 
L 165.930303 358.543369 
L 165.630201 358.169856 
L 168.198 358.169856 
L 167.893355 357.796343 
L 170.420792 357.796343 
L 169.804918 357.049317 
L 171.05 357.049317 
L 170.436039 356.302291 
L 174.105145 356.302291 
L 173.792308 355.928778 
L 174.996805 355.928778 
L 174.683121 355.555265 
L 178.242587 355.555265 
L 177.28875 354.434726 
L 179.608696 354.434726 
L 178.972222 353.6877 
L 184.6231 353.6877 
L 184.295455 353.314187 
L 185.402719 353.314187 
L 185.074699 352.940674 
L 189.428571 352.940674 
L 189.093472 352.567161 
L 190.163609 352.567161 
L 189.495 351.820135 
L 198.812321 351.820135 
L 198.115385 351.073109 
L 199.11733 351.073109 
L 198.424576 350.326083 
L 201.385714 350.326083 
L 201.036872 349.95257 
L 202.011142 349.95257 
L 201.6625 349.579057 
L 203.591436 349.579057 
L 203.241322 349.205544 
L 204.196154 349.205544 
L 203.846301 348.832031 
L 205.737057 348.832031 
L 205.38587 348.458518 
L 207.252973 348.458518 
L 206.900539 348.085005 
L 210.5688 348.085005 
L 210.212234 347.711492 
L 212.908179 347.711492 
L 212.549211 347.337979 
L 227.033501 347.337979 
L 226.655276 346.964466 
L 229.080299 346.964466 
L 228.700746 346.590953 
L 229.5 346.590953 
L 229.121287 346.21744 
L 229.915556 346.21744 
L 229.537685 345.843927 
L 230.327027 345.843927 
L 229.95 345.470414 
L 231.515122 345.470414 
L 231.137956 345.096901 
L 232.685956 345.096901 
L 232.308696 344.723388 
L 233.076145 344.723388 
L 232.69976 344.349875 
L 235.729286 344.349875 
L 235.351069 343.976362 
L 242.67007 343.976362 
L 241.521429 342.855823 
L 242.940138 342.855823 
L 241.802733 341.735284 
L 246.652466 341.735284 
L 246.271812 341.361771 
L 248.302 341.361771 
L 246.788326 339.867719 
L 250.753696 339.867719 
L 250.375705 339.494206 
L 252.96 339.494206 
L 252.58133 339.120693 
L 253.855769 339.120693 
L 253.477612 338.74718 
L 254.110213 338.74718 
L 253.733121 338.373667 
L 254.3625 338.373667 
L 253.986469 338.000154 
L 258.315 338.000154 
L 257.937006 337.626641 
L 261.545175 337.626641 
L 261.165984 337.253128 
L 262.348163 337.253128 
L 261.969654 336.879615 
L 264.303636 336.879615 
L 263.925 336.506102 
L 265.077108 336.506102 
L 264.699198 336.132589 
L 265.2714 336.132589 
L 264.894611 335.759076 
L 271.037109 335.759076 
L 270.657895 335.385563 
L 271.202918 335.385563 
L 270.448256 334.638537 
L 271.530695 334.638537 
L 271.154913 334.265024 
L 271.692692 334.265024 
L 271.318042 333.891511 
L 276.063962 333.891511 
L 275.688136 333.517998 
L 280.273333 333.517998 
L 279.896673 333.144485 
L 280.396494 333.144485 
L 279.274128 332.023946 
L 280.26691 332.023946 
L 279.895073 331.650433 
L 282.344485 331.650433 
L 281.972924 331.27692 
L 284.37746 331.27692 
L 284.00625 330.903407 
L 285.898404 330.903407 
L 285.527788 330.529894 
L 288.315236 330.529894 
L 287.94493 330.156381 
L 288.403665 330.156381 
L 288.034495 329.782868 
L 290.303627 329.782868 
L 289.935 329.409355 
L 290.383993 329.409355 
L 290.016495 329.035842 
L 293.987817 329.035842 
L 293.620439 328.662329 
L 298.31194 328.662329 
L 297.944702 328.288816 
L 299.194399 328.288816 
L 298.828125 327.915303 
L 301.290391 327.915303 
L 300.924878 327.54179 
L 302.53958 327.54179 
L 302.175 327.168277 
L 302.575362 327.168277 
L 302.211897 326.794764 
L 304.586943 326.794764 
L 303.862857 326.047738 
L 306.192453 326.047738 
L 305.472414 325.300712 
L 307.758075 325.300712 
L 307.399535 324.927199 
L 311.845205 324.927199 
L 311.487538 324.553686 
L 311.850683 324.553686 
L 311.494091 324.180173 
L 320.227883 324.180173 
L 319.518341 323.433147 
L 322.509052 323.433147 
L 322.156098 323.059634 
L 323.136 323.059634 
L 322.784165 322.686121 
L 329.722407 322.686121 
L 329.372652 322.312608 
L 330.589286 322.312608 
L 329.893151 321.565582 
L 333.758277 321.565582 
L 333.4125 321.192069 
L 334.285542 321.192069 
L 333.940909 320.818556 
L 336.519155 320.818556 
L 336.176121 320.445043 
L 340.612791 320.445043 
L 340.272 320.07153 
L 341.889373 320.07153 
L 341.55 319.698017 
L 347.022291 319.698017 
L 346.685821 319.324504 
L 347.44461 319.324504 
L 347.109282 318.950991 
L 356.258511 318.950991 
L 355.928217 318.577478 
L 358.426573 318.577478 
L 358.09837 318.203965 
L 358.322442 318.203965 
L 357.995122 317.830452 
L 359.329412 317.830452 
L 359.003571 317.456939 
L 359.444483 317.456939 
L 359.119633 317.083426 
L 366.930396 317.083426 
L 366.610891 316.709913 
L 368.217775 316.709913 
L 367.9 316.3364 
L 369.284108 316.3364 
L 368.967927 315.962887 
L 372.62381 315.962887 
L 372.310782 315.589374 
L 372.499261 315.589374 
L 372.187025 315.215861 
L 373.310377 315.215861 
L 372.999581 314.842348 
L 383.179664 314.842348 
L 382.877219 314.468835 
L 388.325095 314.468835 
L 388.027836 314.095322 
L 388.337583 314.095322 
L 388.04116 313.721809 
L 393.13674 313.721809 
L 392.845446 313.348296 
L 393.135537 313.348296 
L 392.845046 312.974783 
L 393.709763 312.974783 
L 393.420602 312.60127 
L 393.849818 312.60127 
L 393.56158 312.227757 
L 394.272423 312.227757 
L 393.985366 311.854244 
L 394.830728 311.854244 
L 394.544973 311.480731 
L 399.3047 311.480731 
L 399.024 311.107218 
L 399.155864 311.107218 
L 399.811765 311.107218 
L 399.532325 310.733705 
L 399.662953 310.733705 
L 400.183219 310.733705 
L 399.904901 310.360192 
L 400.034536 310.360192 
L 400.550856 310.360192 
L 400.125705 309.613167 
L 403.151799 309.613167 
L 402.878679 309.239654 
L 403.002256 309.239654 
L 404.469231 309.239654 
L 404.198182 308.866141 
L 404.31924 308.866141 
L 410.015714 308.866141 
L 409.751229 308.492628 
L 409.862995 308.492628 
L 410.52989 308.492628 
L 410.266667 308.119115 
L 410.377323 308.119115 
L 412.447168 308.119115 
L 412.186744 307.745602 
L 412.294113 307.745602 
L 412.828472 307.745602 
L 412.56916 307.372089 
L 412.675655 307.372089 
L 414.771624 307.372089 
L 414.515163 306.998576 
L 414.618409 306.998576 
L 414.824433 306.998576 
L 414.416377 306.25155 
L 415.437978 306.25155 
L 415.184281 305.878037 
L 415.285714 305.878037 
L 416.590667 305.878037 
L 416.338934 305.504524 
L 416.438388 305.504524 
L 417.326892 305.504524 
L 417.076652 305.131011 
L 417.174762 305.131011 
L 422.448203 305.131011 
L 422.204577 304.757498 
L 422.295074 304.757498 
L 424.604077 304.757498 
L 424.363674 304.383985 
L 424.450932 304.383985 
L 424.538069 304.383985 
L 424.298208 304.010472 
L 424.385331 304.010472 
L 426.018151 304.010472 
L 425.780707 303.636959 
L 425.86558 303.636959 
L 426.624291 303.636959 
L 426.3882 303.263446 
L 426.472035 303.263446 
L 427.138673 303.263446 
L 426.903818 302.889933 
L 426.986747 302.889933 
L 428.298675 302.889933 
L 427.914607 302.142907 
L 428.157784 302.142907 
L 427.925972 301.769394 
L 428.006917 301.769394 
L 429.049575 301.769394 
L 428.819452 301.395881 
L 428.899022 301.395881 
L 431.085586 301.395881 
L 430.858579 301.022368 
L 430.935317 301.022368 
L 431.317538 301.022368 
L 431.091396 300.648855 
L 431.167643 300.648855 
L 431.698668 300.648855 
L 431.473574 300.275342 
L 431.549145 300.275342 
L 431.775284 300.275342 
L 431.550853 299.901829 
L 431.626136 299.901829 
L 433.768754 299.901829 
L 433.547398 299.528316 
L 433.62 299.528316 
L 436.590163 299.528316 
L 436.372979 299.154803 
L 436.441953 299.154803 
L 437.3311 299.154803 
L 437.115421 298.78129 
L 437.183333 298.78129 
L 438.258994 298.78129 
L 438.045062 298.407777 
L 438.111702 298.407777 
L 438.575986 298.407777 
L 438.363 298.034264 
L 438.429101 298.034264 
L 438.758441 298.034264 
L 438.400059 297.287238 
L 438.531444 297.287238 
L 438.319977 296.913725 
L 438.385639 296.913725 
L 438.647525 296.913725 
L 438.436729 296.540212 
L 438.502094 296.540212 
L 439.022293 296.540212 
L 438.8125 296.166699 
L 438.87727 296.166699 
L 439.456847 296.166699 
L 439.248131 295.793186 
L 439.312241 295.793186 
L 440.265128 295.793186 
L 440.057973 295.419673 
L 440.183959 295.419673 
L 440.809615 295.419673 
L 440.603674 295.04616 
L 440.72812 295.04616 
L 441.346154 295.04616 
L 440.998487 294.299134 
L 441.06 294.299134 
L 441.9745 294.299134 
L 441.771571 293.925621 
L 441.892512 293.925621 
L 442.013186 293.925621 
L 441.810797 293.552108 
L 441.931361 293.552108 
L 442.291455 293.552108 
L 442.089917 293.178595 
L 442.209576 293.178595 
L 446.071338 293.178595 
L 445.875279 292.805082 
L 445.986486 292.805082 
L 446.867735 292.805082 
L 446.673214 292.431569 
L 446.782476 292.431569 
L 446.94594 292.431569 
L 446.75199 292.058056 
L 446.860826 292.058056 
L 447.077818 292.058056 
L 446.884507 291.684543 
L 446.992809 291.684543 
L 448.063538 291.684543 
L 447.87201 291.31103 
L 447.978012 291.31103 
L 448.294713 291.31103 
L 448.103951 290.937517 
L 448.209226 290.937517 
L 449.043721 290.937517 
L 448.854421 290.564004 
L 448.957919 290.564004 
L 452.21086 290.564004 
L 452.026326 290.190491 
L 452.123258 290.190491 
L 452.844228 290.190491 
L 452.661003 289.816978 
L 452.756469 289.816978 
L 453.041756 289.816978 
L 452.859234 289.443465 
L 452.954092 289.443465 
L 453.001452 289.443465 
L 452.819303 289.069952 
L 452.914016 289.069952 
L 454.679402 289.069952 
L 454.5 288.696439 
L 454.59128 288.696439 
L 454.999906 288.696439 
L 454.821368 288.322926 
L 454.911828 288.322926 
L 455.0472 288.322926 
L 454.869144 287.949413 
L 454.959305 287.949413 
L 457.116491 287.949413 
L 456.941736 287.5759 
L 457.027844 287.5759 
L 458.258895 287.5759 
L 458.086154 287.202387 
L 458.169982 287.202387 
L 458.62834 287.202387 
L 458.45652 286.828874 
L 458.539488 286.828874 
L 458.580916 286.828874 
L 458.409425 286.455361 
L 458.492287 286.455361 
L 459.998853 286.455361 
L 459.829762 286.081848 
L 459.949934 286.081848 
L 461.290022 286.081848 
L 461.123157 285.708335 
L 461.239671 285.708335 
L 464.814636 285.708335 
L 464.599419 284.961309 
L 465.449384 284.961309 
L 465.289651 284.587796 
L 465.394873 284.587796 
L 466.603599 284.587796 
L 466.445918 284.214283 
L 466.548082 284.214283 
L 467.088809 284.214283 
L 466.932197 283.84077 
L 467.03296 283.84077 
L 468.483471 283.84077 
L 468.175187 283.093744 
L 468.272545 283.093744 
L 468.402 283.093744 
L 468.248373 282.720231 
L 468.345341 282.720231 
L 469.302632 282.720231 
L 469.150677 282.346718 
L 469.245325 282.346718 
L 471.063128 282.346718 
L 470.914124 281.973205 
L 471.004527 281.973205 
L 471.867985 281.973205 
L 471.720515 281.599692 
L 471.838324 281.599692 
L 473.054455 281.599692 
L 472.909091 281.226179 
L 473.023133 281.226179 
L 474.721805 281.226179 
L 474.579277 280.852666 
L 474.688242 280.852666 
L 475.813838 280.852666 
L 475.638616 280.10564 
L 475.717761 280.10564 
L 475.577684 279.732127 
L 475.683111 279.732127 
L 475.840699 279.732127 
L 475.701118 279.358614 
L 475.805969 279.358614 
L 475.962696 279.358614 
L 475.823607 278.985101 
L 475.927886 278.985101 
L 476.496273 278.985101 
L 476.297485 278.238075 
L 476.32314 278.238075 
L 477.009212 278.238075 
L 476.872613 277.864562 
L 476.973331 277.864562 
L 477.248897 277.864562 
L 477.112958 277.491049 
L 477.212805 277.491049 
L 477.237724 277.491049 
L 477.102065 277.117536 
L 477.201724 277.117536 
L 477.523763 277.117536 
L 477.388829 276.744023 
L 477.4875 276.744023 
L 478.983673 276.744023 
L 478.851234 276.37051 
L 478.94581 276.37051 
L 479.716678 276.37051 
L 479.454678 275.623484 
L 479.570386 275.623484 
L 479.938141 275.623484 
L 479.808 275.249971 
L 479.922319 275.249971 
L 479.967943 275.249971 
L 479.708395 274.502945 
L 479.822543 274.502945 
L 479.959038 274.502945 
L 479.829766 274.129432 
L 479.943282 274.129432 
L 481.036819 274.129432 
L 480.782153 273.382406 
L 480.892175 273.382406 
L 481.480368 273.382406 
L 481.354206 273.008893 
L 481.462208 273.008893 
L 481.483769 273.008893 
L 481.35788 272.63538 
L 481.465642 272.63538 
L 482.816038 272.63538 
L 482.568887 271.888354 
L 482.672487 271.888354 
L 483.042857 271.888354 
L 482.920109 271.514841 
L 483.02243 271.514841 
L 484.812856 271.514841 
L 484.693046 271.141328 
L 484.809227 271.141328 
L 484.982734 271.141328 
L 484.863435 270.767815 
L 484.978776 270.767815 
L 485.017133 270.767815 
L 484.898136 270.394302 
L 485.013114 270.394302 
L 485.203856 270.394302 
L 485.085391 270.020789 
L 485.199479 270.020789 
L 485.539378 270.020789 
L 485.421669 269.647276 
L 485.534358 269.647276 
L 487.00059 269.647276 
L 486.859893 268.90025 
L 486.877809 268.90025 
L 486.895714 268.90025 
L 486.78079 268.526737 
L 486.888174 268.526737 
L 487.717053 268.526737 
L 487.603614 268.153224 
L 487.708042 268.153224 
L 487.812125 268.153224 
L 487.699065 267.779711 
L 487.802964 267.779711 
L 487.820247 267.779711 
L 487.707433 267.406198 
L 487.81109 267.406198 
L 488.000246 267.406198 
L 487.887937 267.032685 
L 487.99079 267.032685 
L 488.951382 267.032685 
L 488.840746 266.659172 
L 488.940305 266.659172 
L 489.138468 266.659172 
L 489.028343 266.285659 
L 489.143527 266.285659 
L 489.583814 266.285659 
L 489.47459 265.912146 
L 489.587886 265.912146 
L 490.258966 265.912146 
L 490.106411 265.16512 
L 490.153828 265.16512 
L 490.655036 265.16512 
L 490.548102 264.791607 
L 490.656804 264.791607 
L 491.087718 264.791607 
L 490.981658 264.418094 
L 491.088585 264.418094 
L 491.391997 264.418094 
L 491.286614 264.044581 
L 491.392241 264.044581 
L 491.617328 264.044581 
L 491.5125 263.671068 
L 491.617116 263.671068 
L 491.751081 263.671068 
L 491.646668 263.297555 
L 491.750602 263.297555 
L 492.66983 263.297555 
L 492.567021 262.924042 
L 492.681879 262.924042 
L 492.782008 262.924042 
L 492.679577 262.550529 
L 492.793762 262.550529 
L 492.950037 262.550529 
L 492.848066 262.177016 
L 492.961364 262.177016 
L 493.535132 262.177016 
L 493.434253 261.803503 
L 493.545051 261.803503 
L 493.627869 261.803503 
L 493.381733 260.682964 
L 493.436956 260.682964 
L 495.006525 260.682964 
L 494.915376 259.935938 
L 495.187857 259.935938 
L 495.090669 259.562425 
L 495.19393 259.562425 
L 495.641232 259.562425 
L 495.544922 259.188912 
L 495.658954 259.188912 
L 496.060619 259.188912 
L 495.965134 258.815399 
L 496.07722 258.815399 
L 496.435289 258.815399 
L 496.340559 258.441886 
L 496.4509 258.441886 
L 497.388783 258.441886 
L 497.295687 258.068373 
L 497.401987 258.068373 
L 498.385482 258.068373 
L 498.294086 257.69486 
L 498.407588 257.69486 
L 499.155572 257.69486 
L 499.06553 257.321347 
L 499.17551 257.321347 
L 499.19745 257.321347 
L 499.107648 256.947834 
L 499.217236 256.947834 
L 499.85446 256.947834 
L 499.765836 256.574321 
L 499.872446 256.574321 
L 500.658042 256.574321 
L 500.57082 256.200808 
L 500.684181 256.200808 
L 500.868581 256.200808 
L 500.781852 255.827295 
L 500.894046 255.827295 
L 501.137094 255.827295 
L 501.050943 255.453782 
L 501.161721 255.453782 
L 501.181809 255.453782 
L 501.095893 255.080269 
L 501.206258 255.080269 
L 502.216373 255.080269 
L 502.132206 254.706756 
L 502.237818 254.706756 
L 504.081135 254.706756 
L 504.081135 254.706756 
" style="fill:none;stroke:#2ca02c;stroke-linecap:square;stroke-width:2;"/>
   </g>
   <g id="patch_3">
    <path d="M 76.5 448.56 
L 76.5 60.48 
" style="fill:none;stroke:#000000;stroke-linecap:square;stroke-linejoin:miter;stroke-width:0.8;"/>
   </g>
   <g id="patch_4">
    <path d="M 550.8 448.56 
L 550.8 60.48 
" style="fill:none;stroke:#000000;stroke-linecap:square;stroke-linejoin:miter;stroke-width:0.8;"/>
   </g>
   <g id="patch_5">
    <path d="M 76.5 448.56 
L 550.8 448.56 
" style="fill:none;stroke:#000000;stroke-linecap:square;stroke-linejoin:miter;stroke-width:0.8;"/>
   </g>
   <g id="patch_6">
    <path d="M 76.5 60.48 
L 550.8 60.48 
" style="fill:none;stroke:#000000;stroke-linecap:square;stroke-linejoin:miter;stroke-width:0.8;"/>
   </g>
   <g id="text_25">
    <!-- boat: img1-img4 -->
    <defs>
     <path d="M 48.6875 27.296875 
Q 48.6875 37.203125 44.609375 42.84375 
Q 40.53125 48.484375 33.40625 48.484375 
Q 26.265625 48.484375 22.1875 42.84375 
Q 18.109375 37.203125 18.109375 27.296875 
Q 18.109375 17.390625 22.1875 11.75 
Q 26.265625 6.109375 33.40625 6.109375 
Q 40.53125 6.109375 44.609375 11.75 
Q 48.6875 17.390625 48.6875 27.296875 
z
M 18.109375 46.390625 
Q 20.953125 51.265625 25.265625 53.625 
Q 29.59375 56 35.59375 56 
Q 45.5625 56 51.78125 48.09375 
Q 58.015625 40.1875 58.015625 27.296875 
Q 58.015625 14.40625 51.78125 6.484375 
Q 45.5625 -1.421875 35.59375 -1.421875 
Q 29.59375 -1.421875 25.265625 0.953125 
Q 20.953125 3.328125 18.109375 8.203125 
L 18.109375 0 
L 9.078125 0 
L 9.078125 75.984375 
L 18.109375 75.984375 
z
" id="DejaVuSans-98"/>
     <path d="M 34.28125 27.484375 
Q 23.390625 27.484375 19.1875 25 
Q 14.984375 22.515625 14.984375 16.5 
Q 14.984375 11.71875 18.140625 8.90625 
Q 21.296875 6.109375 26.703125 6.109375 
Q 34.1875 6.109375 38.703125 11.40625 
Q 43.21875 16.703125 43.21875 25.484375 
L 43.21875 27.484375 
z
M 52.203125 31.203125 
L 52.203125 0 
L 43.21875 0 
L 43.21875 8.296875 
Q 40.140625 3.328125 35.546875 0.953125 
Q 30.953125 -1.421875 24.3125 -1.421875 
Q 15.921875 -1.421875 10.953125 3.296875 
Q 6 8.015625 6 15.921875 
Q 6 25.140625 12.171875 29.828125 
Q 18.359375 34.515625 30.609375 34.515625 
L 43.21875 34.515625 
L 43.21875 35.40625 
Q 43.21875 41.609375 39.140625 45 
Q 35.0625 48.390625 27.6875 48.390625 
Q 23 48.390625 18.546875 47.265625 
Q 14.109375 46.140625 10.015625 43.890625 
L 10.015625 52.203125 
Q 14.9375 54.109375 19.578125 55.046875 
Q 24.21875 56 28.609375 56 
Q 40.484375 56 46.34375 49.84375 
Q 52.203125 43.703125 52.203125 31.203125 
z
" id="DejaVuSans-97"/>
     <path d="M 11.71875 12.40625 
L 22.015625 12.40625 
L 22.015625 0 
L 11.71875 0 
z
M 11.71875 51.703125 
L 22.015625 51.703125 
L 22.015625 39.3125 
L 11.71875 39.3125 
z
" id="DejaVuSans-58"/>
     <path id="DejaVuSans-32"/>
     <path d="M 52 44.1875 
Q 55.375 50.25 60.0625 53.125 
Q 64.75 56 71.09375 56 
Q 79.640625 56 84.28125 50.015625 
Q 88.921875 44.046875 88.921875 33.015625 
L 88.921875 0 
L 79.890625 0 
L 79.890625 32.71875 
Q 79.890625 40.578125 77.09375 44.375 
Q 74.3125 48.1875 68.609375 48.1875 
Q 61.625 48.1875 57.5625 43.546875 
Q 53.515625 38.921875 53.515625 30.90625 
L 53.515625 0 
L 44.484375 0 
L 44.484375 32.71875 
Q 44.484375 40.625 41.703125 44.40625 
Q 38.921875 48.1875 33.109375 48.1875 
Q 26.21875 48.1875 22.15625 43.53125 
Q 18.109375 38.875 18.109375 30.90625 
L 18.109375 0 
L 9.078125 0 
L 9.078125 54.6875 
L 18.109375 54.6875 
L 18.109375 46.1875 
Q 21.1875 51.21875 25.484375 53.609375 
Q 29.78125 56 35.6875 56 
Q 41.65625 56 45.828125 52.96875 
Q 50 49.953125 52 44.1875 
z
" id="DejaVuSans-109"/>
     <path d="M 45.40625 27.984375 
Q 45.40625 37.75 41.375 43.109375 
Q 37.359375 48.484375 30.078125 48.484375 
Q 22.859375 48.484375 18.828125 43.109375 
Q 14.796875 37.75 14.796875 27.984375 
Q 14.796875 18.265625 18.828125 12.890625 
Q 22.859375 7.515625 30.078125 7.515625 
Q 37.359375 7.515625 41.375 12.890625 
Q 45.40625 18.265625 45.40625 27.984375 
z
M 54.390625 6.78125 
Q 54.390625 -7.171875 48.1875 -13.984375 
Q 42 -20.796875 29.203125 -20.796875 
Q 24.46875 -20.796875 20.265625 -20.09375 
Q 16.0625 -19.390625 12.109375 -17.921875 
L 12.109375 -9.1875 
Q 16.0625 -11.328125 19.921875 -12.34375 
Q 23.78125 -13.375 27.78125 -13.375 
Q 36.625 -13.375 41.015625 -8.765625 
Q 45.40625 -4.15625 45.40625 5.171875 
L 45.40625 9.625 
Q 42.625 4.78125 38.28125 2.390625 
Q 33.9375 0 27.875 0 
Q 17.828125 0 11.671875 7.65625 
Q 5.515625 15.328125 5.515625 27.984375 
Q 5.515625 40.671875 11.671875 48.328125 
Q 17.828125 56 27.875 56 
Q 33.9375 56 38.28125 53.609375 
Q 42.625 51.21875 45.40625 46.390625 
L 45.40625 54.6875 
L 54.390625 54.6875 
z
" id="DejaVuSans-103"/>
    </defs>
    <g transform="translate(263.772188 41.042625)scale(0.12 -0.12)">
     <use xlink:href="#DejaVuSans-98"/>
     <use x="63.476562" xlink:href="#DejaVuSans-111"/>
     <use x="124.658203" xlink:href="#DejaVuSans-97"/>
     <use x="185.9375" xlink:href="#DejaVuSans-116"/>
     <use x="225.146484" xlink:href="#DejaVuSans-58"/>
     <use x="258.837891" xlink:href="#DejaVuSans-32"/>
     <use x="290.625" xlink:href="#DejaVuSans-105"/>
     <use x="318.408203" xlink:href="#DejaVuSans-109"/>
     <use x="415.820312" xlink:href="#DejaVuSans-103"/>
     <use x="479.296875" xlink:href="#DejaVuSans-49"/>
     <use x="542.919922" xlink:href="#DejaVuSans-45"/>
     <use x="579.003906" xlink:href="#DejaVuSans-105"/>
     <use x="606.787109" xlink:href="#DejaVuSans-109"/>
     <use x="704.199219" xlink:href="#DejaVuSans-103"/>
     <use x="767.675781" xlink:href="#DejaVuSans-52"/>
    </g>
    <!-- NearestNeighbours -->
    <defs>
     <path d="M 9.8125 72.90625 
L 23.09375 72.90625 
L 55.421875 11.921875 
L 55.421875 72.90625 
L 64.984375 72.90625 
L 64.984375 0 
L 51.703125 0 
L 19.390625 60.984375 
L 19.390625 0 
L 9.8125 0 
z
" id="DejaVuSans-78"/>
     <path d="M 54.890625 33.015625 
L 54.890625 0 
L 45.90625 0 
L 45.90625 32.71875 
Q 45.90625 40.484375 42.875 44.328125 
Q 39.84375 48.1875 33.796875 48.1875 
Q 26.515625 48.1875 22.3125 43.546875 
Q 18.109375 38.921875 18.109375 30.90625 
L 18.109375 0 
L 9.078125 0 
L 9.078125 75.984375 
L 18.109375 75.984375 
L 18.109375 46.1875 
Q 21.34375 51.125 25.703125 53.5625 
Q 30.078125 56 35.796875 56 
Q 45.21875 56 50.046875 50.171875 
Q 54.890625 44.34375 54.890625 33.015625 
z
" id="DejaVuSans-104"/>
     <path d="M 8.5 21.578125 
L 8.5 54.6875 
L 17.484375 54.6875 
L 17.484375 21.921875 
Q 17.484375 14.15625 20.5 10.265625 
Q 23.53125 6.390625 29.59375 6.390625 
Q 36.859375 6.390625 41.078125 11.03125 
Q 45.3125 15.671875 45.3125 23.6875 
L 45.3125 54.6875 
L 54.296875 54.6875 
L 54.296875 0 
L 45.3125 0 
L 45.3125 8.40625 
Q 42.046875 3.421875 37.71875 1 
Q 33.40625 -1.421875 27.6875 -1.421875 
Q 18.265625 -1.421875 13.375 4.4375 
Q 8.5 10.296875 8.5 21.578125 
z
M 31.109375 56 
z
" id="DejaVuSans-117"/>
    </defs>
    <g transform="translate(255.957188 54.48)scale(0.12 -0.12)">
     <use xlink:href="#DejaVuSans-78"/>
     <use x="74.804688" xlink:href="#DejaVuSans-101"/>
     <use x="136.328125" xlink:href="#DejaVuSans-97"/>
     <use x="197.607422" xlink:href="#DejaVuSans-114"/>
     <use x="236.470703" xlink:href="#DejaVuSans-101"/>
     <use x="297.994141" xlink:href="#DejaVuSans-115"/>
     <use x="350.09375" xlink:href="#DejaVuSans-116"/>
     <use x="389.302734" xlink:href="#DejaVuSans-78"/>
     <use x="464.107422" xlink:href="#DejaVuSans-101"/>
     <use x="525.630859" xlink:href="#DejaVuSans-105"/>
     <use x="553.414062" xlink:href="#DejaVuSans-103"/>
     <use x="616.890625" xlink:href="#DejaVuSans-104"/>
     <use x="680.269531" xlink:href="#DejaVuSans-98"/>
     <use x="743.746094" xlink:href="#DejaVuSans-111"/>
     <use x="804.927734" xlink:href="#DejaVuSans-117"/>
     <use x="868.306641" xlink:href="#DejaVuSans-114"/>
     <use x="909.419922" xlink:href="#DejaVuSans-115"/>
    </g>
   </g>
   <g id="legend_1">
    <g id="patch_7">
     <path d="M 362.659375 112.514375 
L 543.8 112.514375 
Q 545.8 112.514375 545.8 110.514375 
L 545.8 67.48 
Q 545.8 65.48 543.8 65.48 
L 362.659375 65.48 
Q 360.659375 65.48 360.659375 67.48 
L 360.659375 110.514375 
Q 360.659375 112.514375 362.659375 112.514375 
z
" style="fill:#ffffff;opacity:0.8;stroke:#cccccc;stroke-linejoin:miter;"/>
    </g>
    <g id="line2d_48">
     <path d="M 364.659375 73.578438 
L 384.659375 73.578438 
" style="fill:none;stroke:#1f77b4;stroke-linecap:square;stroke-width:2;"/>
    </g>
    <g id="line2d_49"/>
    <g id="text_26">
     <!-- root-cvsift AP: 62.8, %In: 14.6 -->
     <defs>
      <path d="M 2.984375 54.6875 
L 12.5 54.6875 
L 29.59375 8.796875 
L 46.6875 54.6875 
L 56.203125 54.6875 
L 35.6875 0 
L 23.484375 0 
z
" id="DejaVuSans-118"/>
      <path d="M 37.109375 75.984375 
L 37.109375 68.5 
L 28.515625 68.5 
Q 23.6875 68.5 21.796875 66.546875 
Q 19.921875 64.59375 19.921875 59.515625 
L 19.921875 54.6875 
L 34.71875 54.6875 
L 34.71875 47.703125 
L 19.921875 47.703125 
L 19.921875 0 
L 10.890625 0 
L 10.890625 47.703125 
L 2.296875 47.703125 
L 2.296875 54.6875 
L 10.890625 54.6875 
L 10.890625 58.5 
Q 10.890625 67.625 15.140625 71.796875 
Q 19.390625 75.984375 28.609375 75.984375 
z
" id="DejaVuSans-102"/>
      <path d="M 34.1875 63.1875 
L 20.796875 26.90625 
L 47.609375 26.90625 
z
M 28.609375 72.90625 
L 39.796875 72.90625 
L 67.578125 0 
L 57.328125 0 
L 50.6875 18.703125 
L 17.828125 18.703125 
L 11.1875 0 
L 0.78125 0 
z
" id="DejaVuSans-65"/>
      <path d="M 19.671875 64.796875 
L 19.671875 37.40625 
L 32.078125 37.40625 
Q 38.96875 37.40625 42.71875 40.96875 
Q 46.484375 44.53125 46.484375 51.125 
Q 46.484375 57.671875 42.71875 61.234375 
Q 38.96875 64.796875 32.078125 64.796875 
z
M 9.8125 72.90625 
L 32.078125 72.90625 
Q 44.34375 72.90625 50.609375 67.359375 
Q 56.890625 61.8125 56.890625 51.125 
Q 56.890625 40.328125 50.609375 34.8125 
Q 44.34375 29.296875 32.078125 29.296875 
L 19.671875 29.296875 
L 19.671875 0 
L 9.8125 0 
z
" id="DejaVuSans-80"/>
      <path d="M 11.71875 12.40625 
L 22.015625 12.40625 
L 22.015625 4 
L 14.015625 -11.625 
L 7.71875 -11.625 
L 11.71875 4 
z
" id="DejaVuSans-44"/>
      <path d="M 72.703125 32.078125 
Q 68.453125 32.078125 66.03125 28.46875 
Q 63.625 24.859375 63.625 18.40625 
Q 63.625 12.0625 66.03125 8.421875 
Q 68.453125 4.78125 72.703125 4.78125 
Q 76.859375 4.78125 79.265625 8.421875 
Q 81.6875 12.0625 81.6875 18.40625 
Q 81.6875 24.8125 79.265625 28.4375 
Q 76.859375 32.078125 72.703125 32.078125 
z
M 72.703125 38.28125 
Q 80.421875 38.28125 84.953125 32.90625 
Q 89.5 27.546875 89.5 18.40625 
Q 89.5 9.28125 84.9375 3.921875 
Q 80.375 -1.421875 72.703125 -1.421875 
Q 64.890625 -1.421875 60.34375 3.921875 
Q 55.8125 9.28125 55.8125 18.40625 
Q 55.8125 27.59375 60.375 32.9375 
Q 64.9375 38.28125 72.703125 38.28125 
z
M 22.3125 68.015625 
Q 18.109375 68.015625 15.6875 64.375 
Q 13.28125 60.75 13.28125 54.390625 
Q 13.28125 47.953125 15.671875 44.328125 
Q 18.0625 40.71875 22.3125 40.71875 
Q 26.5625 40.71875 28.96875 44.328125 
Q 31.390625 47.953125 31.390625 54.390625 
Q 31.390625 60.6875 28.953125 64.34375 
Q 26.515625 68.015625 22.3125 68.015625 
z
M 66.40625 74.21875 
L 74.21875 74.21875 
L 28.609375 -1.421875 
L 20.796875 -1.421875 
z
M 22.3125 74.21875 
Q 30.03125 74.21875 34.609375 68.875 
Q 39.203125 63.53125 39.203125 54.390625 
Q 39.203125 45.171875 34.640625 39.84375 
Q 30.078125 34.515625 22.3125 34.515625 
Q 14.546875 34.515625 10.03125 39.859375 
Q 5.515625 45.21875 5.515625 54.390625 
Q 5.515625 63.484375 10.046875 68.84375 
Q 14.59375 74.21875 22.3125 74.21875 
z
" id="DejaVuSans-37"/>
      <path d="M 9.8125 72.90625 
L 19.671875 72.90625 
L 19.671875 0 
L 9.8125 0 
z
" id="DejaVuSans-73"/>
     </defs>
     <g transform="translate(392.659375 77.078438)scale(0.1 -0.1)">
      <use xlink:href="#DejaVuSans-114"/>
      <use x="38.863281" xlink:href="#DejaVuSans-111"/>
      <use x="100.044922" xlink:href="#DejaVuSans-111"/>
      <use x="161.226562" xlink:href="#DejaVuSans-116"/>
      <use x="200.435547" xlink:href="#DejaVuSans-45"/>
      <use x="236.519531" xlink:href="#DejaVuSans-99"/>
      <use x="291.5" xlink:href="#DejaVuSans-118"/>
      <use x="350.679688" xlink:href="#DejaVuSans-115"/>
      <use x="402.779297" xlink:href="#DejaVuSans-105"/>
      <use x="430.5625" xlink:href="#DejaVuSans-102"/>
      <use x="464.017578" xlink:href="#DejaVuSans-116"/>
      <use x="503.226562" xlink:href="#DejaVuSans-32"/>
      <use x="535.013672" xlink:href="#DejaVuSans-65"/>
      <use x="603.421875" xlink:href="#DejaVuSans-80"/>
      <use x="663.724609" xlink:href="#DejaVuSans-58"/>
      <use x="697.416016" xlink:href="#DejaVuSans-32"/>
      <use x="729.203125" xlink:href="#DejaVuSans-54"/>
      <use x="792.826172" xlink:href="#DejaVuSans-50"/>
      <use x="856.449219" xlink:href="#DejaVuSans-46"/>
      <use x="888.236328" xlink:href="#DejaVuSans-56"/>
      <use x="951.859375" xlink:href="#DejaVuSans-44"/>
      <use x="983.646484" xlink:href="#DejaVuSans-32"/>
      <use x="1015.433594" xlink:href="#DejaVuSans-37"/>
      <use x="1110.453125" xlink:href="#DejaVuSans-73"/>
      <use x="1139.945312" xlink:href="#DejaVuSans-110"/>
      <use x="1203.324219" xlink:href="#DejaVuSans-58"/>
      <use x="1237.015625" xlink:href="#DejaVuSans-32"/>
      <use x="1268.802734" xlink:href="#DejaVuSans-49"/>
      <use x="1332.425781" xlink:href="#DejaVuSans-52"/>
      <use x="1396.048828" xlink:href="#DejaVuSans-46"/>
      <use x="1427.835938" xlink:href="#DejaVuSans-54"/>
     </g>
    </g>
    <g id="line2d_50">
     <path d="M 364.659375 88.256563 
L 384.659375 88.256563 
" style="fill:none;stroke:#ff7f0e;stroke-linecap:square;stroke-width:2;"/>
    </g>
    <g id="line2d_51"/>
    <g id="text_27">
     <!-- tfeat AP: 7.9, %In: 5.7 -->
     <g transform="translate(392.659375 91.756563)scale(0.1 -0.1)">
      <use xlink:href="#DejaVuSans-116"/>
      <use x="39.208984" xlink:href="#DejaVuSans-102"/>
      <use x="74.414062" xlink:href="#DejaVuSans-101"/>
      <use x="135.9375" xlink:href="#DejaVuSans-97"/>
      <use x="197.216797" xlink:href="#DejaVuSans-116"/>
      <use x="236.425781" xlink:href="#DejaVuSans-32"/>
      <use x="268.212891" xlink:href="#DejaVuSans-65"/>
      <use x="336.621094" xlink:href="#DejaVuSans-80"/>
      <use x="396.923828" xlink:href="#DejaVuSans-58"/>
      <use x="430.615234" xlink:href="#DejaVuSans-32"/>
      <use x="462.402344" xlink:href="#DejaVuSans-55"/>
      <use x="526.025391" xlink:href="#DejaVuSans-46"/>
      <use x="557.8125" xlink:href="#DejaVuSans-57"/>
      <use x="621.435547" xlink:href="#DejaVuSans-44"/>
      <use x="653.222656" xlink:href="#DejaVuSans-32"/>
      <use x="685.009766" xlink:href="#DejaVuSans-37"/>
      <use x="780.029297" xlink:href="#DejaVuSans-73"/>
      <use x="809.521484" xlink:href="#DejaVuSans-110"/>
      <use x="872.900391" xlink:href="#DejaVuSans-58"/>
      <use x="906.591797" xlink:href="#DejaVuSans-32"/>
      <use x="938.378906" xlink:href="#DejaVuSans-53"/>
      <use x="1002.001953" xlink:href="#DejaVuSans-46"/>
      <use x="1033.789062" xlink:href="#DejaVuSans-55"/>
     </g>
    </g>
    <g id="line2d_52">
     <path d="M 364.659375 102.934687 
L 384.659375 102.934687 
" style="fill:none;stroke:#2ca02c;stroke-linecap:square;stroke-width:2;"/>
    </g>
    <g id="line2d_53"/>
    <g id="text_28">
     <!-- hardnet AP: 32.2, %In: 9.9 -->
     <defs>
      <path d="M 45.40625 46.390625 
L 45.40625 75.984375 
L 54.390625 75.984375 
L 54.390625 0 
L 45.40625 0 
L 45.40625 8.203125 
Q 42.578125 3.328125 38.25 0.953125 
Q 33.9375 -1.421875 27.875 -1.421875 
Q 17.96875 -1.421875 11.734375 6.484375 
Q 5.515625 14.40625 5.515625 27.296875 
Q 5.515625 40.1875 11.734375 48.09375 
Q 17.96875 56 27.875 56 
Q 33.9375 56 38.25 53.625 
Q 42.578125 51.265625 45.40625 46.390625 
z
M 14.796875 27.296875 
Q 14.796875 17.390625 18.875 11.75 
Q 22.953125 6.109375 30.078125 6.109375 
Q 37.203125 6.109375 41.296875 11.75 
Q 45.40625 17.390625 45.40625 27.296875 
Q 45.40625 37.203125 41.296875 42.84375 
Q 37.203125 48.484375 30.078125 48.484375 
Q 22.953125 48.484375 18.875 42.84375 
Q 14.796875 37.203125 14.796875 27.296875 
z
" id="DejaVuSans-100"/>
     </defs>
     <g transform="translate(392.659375 106.434687)scale(0.1 -0.1)">
      <use xlink:href="#DejaVuSans-104"/>
      <use x="63.378906" xlink:href="#DejaVuSans-97"/>
      <use x="124.658203" xlink:href="#DejaVuSans-114"/>
      <use x="164.021484" xlink:href="#DejaVuSans-100"/>
      <use x="227.498047" xlink:href="#DejaVuSans-110"/>
      <use x="290.876953" xlink:href="#DejaVuSans-101"/>
      <use x="352.400391" xlink:href="#DejaVuSans-116"/>
      <use x="391.609375" xlink:href="#DejaVuSans-32"/>
      <use x="423.396484" xlink:href="#DejaVuSans-65"/>
      <use x="491.804688" xlink:href="#DejaVuSans-80"/>
      <use x="552.107422" xlink:href="#DejaVuSans-58"/>
      <use x="585.798828" xlink:href="#DejaVuSans-32"/>
      <use x="617.585938" xlink:href="#DejaVuSans-51"/>
      <use x="681.208984" xlink:href="#DejaVuSans-50"/>
      <use x="744.832031" xlink:href="#DejaVuSans-46"/>
      <use x="776.619141" xlink:href="#DejaVuSans-50"/>
      <use x="840.242188" xlink:href="#DejaVuSans-44"/>
      <use x="872.029297" xlink:href="#DejaVuSans-32"/>
      <use x="903.816406" xlink:href="#DejaVuSans-37"/>
      <use x="998.835938" xlink:href="#DejaVuSans-73"/>
      <use x="1028.328125" xlink:href="#DejaVuSans-110"/>
      <use x="1091.707031" xlink:href="#DejaVuSans-58"/>
      <use x="1125.398438" xlink:href="#DejaVuSans-32"/>
      <use x="1157.185547" xlink:href="#DejaVuSans-57"/>
      <use x="1220.808594" xlink:href="#DejaVuSans-46"/>
      <use x="1252.595703" xlink:href="#DejaVuSans-57"/>
     </g>
    </g>
   </g>
  </g>
 </g>
 <defs>
  <clipPath id="p4c7f340dbc">
   <rect height="388.08" width="474.3" x="76.5" y="60.48"/>
  </clipPath>
 </defs>
</svg>
