<?xml version="1.0" encoding="utf-8" standalone="no"?>
<!DOCTYPE svg PUBLIC "-//W3C//DTD SVG 1.1//EN"
  "http://www.w3.org/Graphics/SVG/1.1/DTD/svg11.dtd">
<!-- Created with matplotlib (https://matplotlib.org/) -->
<svg height="504pt" version="1.1" viewBox="0 0 612 504" width="612pt" xmlns="http://www.w3.org/2000/svg" xmlns:xlink="http://www.w3.org/1999/xlink">
 <defs>
  <style type="text/css">
*{stroke-linecap:butt;stroke-linejoin:round;}
  </style>
 </defs>
 <g id="figure_1">
  <g id="patch_1">
   <path d="M 0 504 
L 612 504 
L 612 0 
L 0 0 
z
" style="fill:#ffffff;"/>
  </g>
  <g id="axes_1">
   <g id="patch_2">
    <path d="M 76.5 448.56 
L 550.8 448.56 
L 550.8 60.48 
L 76.5 60.48 
z
" style="fill:#ffffff;"/>
   </g>
   <g id="matplotlib.axis_1">
    <g id="xtick_1">
     <g id="line2d_1">
      <path clip-path="url(#pfa59a78c60)" d="M 76.5 448.56 
L 76.5 60.48 
" style="fill:none;stroke:#b0b0b0;stroke-linecap:square;stroke-width:0.8;"/>
     </g>
     <g id="line2d_2">
      <defs>
       <path d="M 0 0 
L 0 3.5 
" id="m05d8e6204c" style="stroke:#000000;stroke-width:0.8;"/>
      </defs>
      <g>
       <use style="stroke:#000000;stroke-width:0.8;" x="76.5" xlink:href="#m05d8e6204c" y="448.56"/>
      </g>
     </g>
     <g id="text_1">
      <!-- 0.0 -->
      <defs>
       <path d="M 31.78125 66.40625 
Q 24.171875 66.40625 20.328125 58.90625 
Q 16.5 51.421875 16.5 36.375 
Q 16.5 21.390625 20.328125 13.890625 
Q 24.171875 6.390625 31.78125 6.390625 
Q 39.453125 6.390625 43.28125 13.890625 
Q 47.125 21.390625 47.125 36.375 
Q 47.125 51.421875 43.28125 58.90625 
Q 39.453125 66.40625 31.78125 66.40625 
z
M 31.78125 74.21875 
Q 44.046875 74.21875 50.515625 64.515625 
Q 56.984375 54.828125 56.984375 36.375 
Q 56.984375 17.96875 50.515625 8.265625 
Q 44.046875 -1.421875 31.78125 -1.421875 
Q 19.53125 -1.421875 13.0625 8.265625 
Q 6.59375 17.96875 6.59375 36.375 
Q 6.59375 54.828125 13.0625 64.515625 
Q 19.53125 74.21875 31.78125 74.21875 
z
" id="DejaVuSans-48"/>
       <path d="M 10.6875 12.40625 
L 21 12.40625 
L 21 0 
L 10.6875 0 
z
" id="DejaVuSans-46"/>
      </defs>
      <g transform="translate(68.548438 463.158437)scale(0.1 -0.1)">
       <use xlink:href="#DejaVuSans-48"/>
       <use x="63.623047" xlink:href="#DejaVuSans-46"/>
       <use x="95.410156" xlink:href="#DejaVuSans-48"/>
      </g>
     </g>
    </g>
    <g id="xtick_2">
     <g id="line2d_3">
      <path clip-path="url(#pfa59a78c60)" d="M 123.93 448.56 
L 123.93 60.48 
" style="fill:none;stroke:#b0b0b0;stroke-linecap:square;stroke-width:0.8;"/>
     </g>
     <g id="line2d_4">
      <g>
       <use style="stroke:#000000;stroke-width:0.8;" x="123.93" xlink:href="#m05d8e6204c" y="448.56"/>
      </g>
     </g>
     <g id="text_2">
      <!-- 0.1 -->
      <defs>
       <path d="M 12.40625 8.296875 
L 28.515625 8.296875 
L 28.515625 63.921875 
L 10.984375 60.40625 
L 10.984375 69.390625 
L 28.421875 72.90625 
L 38.28125 72.90625 
L 38.28125 8.296875 
L 54.390625 8.296875 
L 54.390625 0 
L 12.40625 0 
z
" id="DejaVuSans-49"/>
      </defs>
      <g transform="translate(115.978438 463.158437)scale(0.1 -0.1)">
       <use xlink:href="#DejaVuSans-48"/>
       <use x="63.623047" xlink:href="#DejaVuSans-46"/>
       <use x="95.410156" xlink:href="#DejaVuSans-49"/>
      </g>
     </g>
    </g>
    <g id="xtick_3">
     <g id="line2d_5">
      <path clip-path="url(#pfa59a78c60)" d="M 171.36 448.56 
L 171.36 60.48 
" style="fill:none;stroke:#b0b0b0;stroke-linecap:square;stroke-width:0.8;"/>
     </g>
     <g id="line2d_6">
      <g>
       <use style="stroke:#000000;stroke-width:0.8;" x="171.36" xlink:href="#m05d8e6204c" y="448.56"/>
      </g>
     </g>
     <g id="text_3">
      <!-- 0.2 -->
      <defs>
       <path d="M 19.1875 8.296875 
L 53.609375 8.296875 
L 53.609375 0 
L 7.328125 0 
L 7.328125 8.296875 
Q 12.9375 14.109375 22.625 23.890625 
Q 32.328125 33.6875 34.8125 36.53125 
Q 39.546875 41.84375 41.421875 45.53125 
Q 43.3125 49.21875 43.3125 52.78125 
Q 43.3125 58.59375 39.234375 62.25 
Q 35.15625 65.921875 28.609375 65.921875 
Q 23.96875 65.921875 18.8125 64.3125 
Q 13.671875 62.703125 7.8125 59.421875 
L 7.8125 69.390625 
Q 13.765625 71.78125 18.9375 73 
Q 24.125 74.21875 28.421875 74.21875 
Q 39.75 74.21875 46.484375 68.546875 
Q 53.21875 62.890625 53.21875 53.421875 
Q 53.21875 48.921875 51.53125 44.890625 
Q 49.859375 40.875 45.40625 35.40625 
Q 44.1875 33.984375 37.640625 27.21875 
Q 31.109375 20.453125 19.1875 8.296875 
z
" id="DejaVuSans-50"/>
      </defs>
      <g transform="translate(163.408438 463.158437)scale(0.1 -0.1)">
       <use xlink:href="#DejaVuSans-48"/>
       <use x="63.623047" xlink:href="#DejaVuSans-46"/>
       <use x="95.410156" xlink:href="#DejaVuSans-50"/>
      </g>
     </g>
    </g>
    <g id="xtick_4">
     <g id="line2d_7">
      <path clip-path="url(#pfa59a78c60)" d="M 218.79 448.56 
L 218.79 60.48 
" style="fill:none;stroke:#b0b0b0;stroke-linecap:square;stroke-width:0.8;"/>
     </g>
     <g id="line2d_8">
      <g>
       <use style="stroke:#000000;stroke-width:0.8;" x="218.79" xlink:href="#m05d8e6204c" y="448.56"/>
      </g>
     </g>
     <g id="text_4">
      <!-- 0.3 -->
      <defs>
       <path d="M 40.578125 39.3125 
Q 47.65625 37.796875 51.625 33 
Q 55.609375 28.21875 55.609375 21.1875 
Q 55.609375 10.40625 48.1875 4.484375 
Q 40.765625 -1.421875 27.09375 -1.421875 
Q 22.515625 -1.421875 17.65625 -0.515625 
Q 12.796875 0.390625 7.625 2.203125 
L 7.625 11.71875 
Q 11.71875 9.328125 16.59375 8.109375 
Q 21.484375 6.890625 26.8125 6.890625 
Q 36.078125 6.890625 40.9375 10.546875 
Q 45.796875 14.203125 45.796875 21.1875 
Q 45.796875 27.640625 41.28125 31.265625 
Q 36.765625 34.90625 28.71875 34.90625 
L 20.21875 34.90625 
L 20.21875 43.015625 
L 29.109375 43.015625 
Q 36.375 43.015625 40.234375 45.921875 
Q 44.09375 48.828125 44.09375 54.296875 
Q 44.09375 59.90625 40.109375 62.90625 
Q 36.140625 65.921875 28.71875 65.921875 
Q 24.65625 65.921875 20.015625 65.03125 
Q 15.375 64.15625 9.8125 62.3125 
L 9.8125 71.09375 
Q 15.4375 72.65625 20.34375 73.4375 
Q 25.25 74.21875 29.59375 74.21875 
Q 40.828125 74.21875 47.359375 69.109375 
Q 53.90625 64.015625 53.90625 55.328125 
Q 53.90625 49.265625 50.4375 45.09375 
Q 46.96875 40.921875 40.578125 39.3125 
z
" id="DejaVuSans-51"/>
      </defs>
      <g transform="translate(210.838438 463.158437)scale(0.1 -0.1)">
       <use xlink:href="#DejaVuSans-48"/>
       <use x="63.623047" xlink:href="#DejaVuSans-46"/>
       <use x="95.410156" xlink:href="#DejaVuSans-51"/>
      </g>
     </g>
    </g>
    <g id="xtick_5">
     <g id="line2d_9">
      <path clip-path="url(#pfa59a78c60)" d="M 266.22 448.56 
L 266.22 60.48 
" style="fill:none;stroke:#b0b0b0;stroke-linecap:square;stroke-width:0.8;"/>
     </g>
     <g id="line2d_10">
      <g>
       <use style="stroke:#000000;stroke-width:0.8;" x="266.22" xlink:href="#m05d8e6204c" y="448.56"/>
      </g>
     </g>
     <g id="text_5">
      <!-- 0.4 -->
      <defs>
       <path d="M 37.796875 64.3125 
L 12.890625 25.390625 
L 37.796875 25.390625 
z
M 35.203125 72.90625 
L 47.609375 72.90625 
L 47.609375 25.390625 
L 58.015625 25.390625 
L 58.015625 17.1875 
L 47.609375 17.1875 
L 47.609375 0 
L 37.796875 0 
L 37.796875 17.1875 
L 4.890625 17.1875 
L 4.890625 26.703125 
z
" id="DejaVuSans-52"/>
      </defs>
      <g transform="translate(258.268438 463.158437)scale(0.1 -0.1)">
       <use xlink:href="#DejaVuSans-48"/>
       <use x="63.623047" xlink:href="#DejaVuSans-46"/>
       <use x="95.410156" xlink:href="#DejaVuSans-52"/>
      </g>
     </g>
    </g>
    <g id="xtick_6">
     <g id="line2d_11">
      <path clip-path="url(#pfa59a78c60)" d="M 313.65 448.56 
L 313.65 60.48 
" style="fill:none;stroke:#b0b0b0;stroke-linecap:square;stroke-width:0.8;"/>
     </g>
     <g id="line2d_12">
      <g>
       <use style="stroke:#000000;stroke-width:0.8;" x="313.65" xlink:href="#m05d8e6204c" y="448.56"/>
      </g>
     </g>
     <g id="text_6">
      <!-- 0.5 -->
      <defs>
       <path d="M 10.796875 72.90625 
L 49.515625 72.90625 
L 49.515625 64.59375 
L 19.828125 64.59375 
L 19.828125 46.734375 
Q 21.96875 47.46875 24.109375 47.828125 
Q 26.265625 48.1875 28.421875 48.1875 
Q 40.625 48.1875 47.75 41.5 
Q 54.890625 34.8125 54.890625 23.390625 
Q 54.890625 11.625 47.5625 5.09375 
Q 40.234375 -1.421875 26.90625 -1.421875 
Q 22.3125 -1.421875 17.546875 -0.640625 
Q 12.796875 0.140625 7.71875 1.703125 
L 7.71875 11.625 
Q 12.109375 9.234375 16.796875 8.0625 
Q 21.484375 6.890625 26.703125 6.890625 
Q 35.15625 6.890625 40.078125 11.328125 
Q 45.015625 15.765625 45.015625 23.390625 
Q 45.015625 31 40.078125 35.4375 
Q 35.15625 39.890625 26.703125 39.890625 
Q 22.75 39.890625 18.8125 39.015625 
Q 14.890625 38.140625 10.796875 36.28125 
z
" id="DejaVuSans-53"/>
      </defs>
      <g transform="translate(305.698438 463.158437)scale(0.1 -0.1)">
       <use xlink:href="#DejaVuSans-48"/>
       <use x="63.623047" xlink:href="#DejaVuSans-46"/>
       <use x="95.410156" xlink:href="#DejaVuSans-53"/>
      </g>
     </g>
    </g>
    <g id="xtick_7">
     <g id="line2d_13">
      <path clip-path="url(#pfa59a78c60)" d="M 361.08 448.56 
L 361.08 60.48 
" style="fill:none;stroke:#b0b0b0;stroke-linecap:square;stroke-width:0.8;"/>
     </g>
     <g id="line2d_14">
      <g>
       <use style="stroke:#000000;stroke-width:0.8;" x="361.08" xlink:href="#m05d8e6204c" y="448.56"/>
      </g>
     </g>
     <g id="text_7">
      <!-- 0.6 -->
      <defs>
       <path d="M 33.015625 40.375 
Q 26.375 40.375 22.484375 35.828125 
Q 18.609375 31.296875 18.609375 23.390625 
Q 18.609375 15.53125 22.484375 10.953125 
Q 26.375 6.390625 33.015625 6.390625 
Q 39.65625 6.390625 43.53125 10.953125 
Q 47.40625 15.53125 47.40625 23.390625 
Q 47.40625 31.296875 43.53125 35.828125 
Q 39.65625 40.375 33.015625 40.375 
z
M 52.59375 71.296875 
L 52.59375 62.3125 
Q 48.875 64.0625 45.09375 64.984375 
Q 41.3125 65.921875 37.59375 65.921875 
Q 27.828125 65.921875 22.671875 59.328125 
Q 17.53125 52.734375 16.796875 39.40625 
Q 19.671875 43.65625 24.015625 45.921875 
Q 28.375 48.1875 33.59375 48.1875 
Q 44.578125 48.1875 50.953125 41.515625 
Q 57.328125 34.859375 57.328125 23.390625 
Q 57.328125 12.15625 50.6875 5.359375 
Q 44.046875 -1.421875 33.015625 -1.421875 
Q 20.359375 -1.421875 13.671875 8.265625 
Q 6.984375 17.96875 6.984375 36.375 
Q 6.984375 53.65625 15.1875 63.9375 
Q 23.390625 74.21875 37.203125 74.21875 
Q 40.921875 74.21875 44.703125 73.484375 
Q 48.484375 72.75 52.59375 71.296875 
z
" id="DejaVuSans-54"/>
      </defs>
      <g transform="translate(353.128438 463.158437)scale(0.1 -0.1)">
       <use xlink:href="#DejaVuSans-48"/>
       <use x="63.623047" xlink:href="#DejaVuSans-46"/>
       <use x="95.410156" xlink:href="#DejaVuSans-54"/>
      </g>
     </g>
    </g>
    <g id="xtick_8">
     <g id="line2d_15">
      <path clip-path="url(#pfa59a78c60)" d="M 408.51 448.56 
L 408.51 60.48 
" style="fill:none;stroke:#b0b0b0;stroke-linecap:square;stroke-width:0.8;"/>
     </g>
     <g id="line2d_16">
      <g>
       <use style="stroke:#000000;stroke-width:0.8;" x="408.51" xlink:href="#m05d8e6204c" y="448.56"/>
      </g>
     </g>
     <g id="text_8">
      <!-- 0.7 -->
      <defs>
       <path d="M 8.203125 72.90625 
L 55.078125 72.90625 
L 55.078125 68.703125 
L 28.609375 0 
L 18.3125 0 
L 43.21875 64.59375 
L 8.203125 64.59375 
z
" id="DejaVuSans-55"/>
      </defs>
      <g transform="translate(400.558438 463.158437)scale(0.1 -0.1)">
       <use xlink:href="#DejaVuSans-48"/>
       <use x="63.623047" xlink:href="#DejaVuSans-46"/>
       <use x="95.410156" xlink:href="#DejaVuSans-55"/>
      </g>
     </g>
    </g>
    <g id="xtick_9">
     <g id="line2d_17">
      <path clip-path="url(#pfa59a78c60)" d="M 455.94 448.56 
L 455.94 60.48 
" style="fill:none;stroke:#b0b0b0;stroke-linecap:square;stroke-width:0.8;"/>
     </g>
     <g id="line2d_18">
      <g>
       <use style="stroke:#000000;stroke-width:0.8;" x="455.94" xlink:href="#m05d8e6204c" y="448.56"/>
      </g>
     </g>
     <g id="text_9">
      <!-- 0.8 -->
      <defs>
       <path d="M 31.78125 34.625 
Q 24.75 34.625 20.71875 30.859375 
Q 16.703125 27.09375 16.703125 20.515625 
Q 16.703125 13.921875 20.71875 10.15625 
Q 24.75 6.390625 31.78125 6.390625 
Q 38.8125 6.390625 42.859375 10.171875 
Q 46.921875 13.96875 46.921875 20.515625 
Q 46.921875 27.09375 42.890625 30.859375 
Q 38.875 34.625 31.78125 34.625 
z
M 21.921875 38.8125 
Q 15.578125 40.375 12.03125 44.71875 
Q 8.5 49.078125 8.5 55.328125 
Q 8.5 64.0625 14.71875 69.140625 
Q 20.953125 74.21875 31.78125 74.21875 
Q 42.671875 74.21875 48.875 69.140625 
Q 55.078125 64.0625 55.078125 55.328125 
Q 55.078125 49.078125 51.53125 44.71875 
Q 48 40.375 41.703125 38.8125 
Q 48.828125 37.15625 52.796875 32.3125 
Q 56.78125 27.484375 56.78125 20.515625 
Q 56.78125 9.90625 50.3125 4.234375 
Q 43.84375 -1.421875 31.78125 -1.421875 
Q 19.734375 -1.421875 13.25 4.234375 
Q 6.78125 9.90625 6.78125 20.515625 
Q 6.78125 27.484375 10.78125 32.3125 
Q 14.796875 37.15625 21.921875 38.8125 
z
M 18.3125 54.390625 
Q 18.3125 48.734375 21.84375 45.5625 
Q 25.390625 42.390625 31.78125 42.390625 
Q 38.140625 42.390625 41.71875 45.5625 
Q 45.3125 48.734375 45.3125 54.390625 
Q 45.3125 60.0625 41.71875 63.234375 
Q 38.140625 66.40625 31.78125 66.40625 
Q 25.390625 66.40625 21.84375 63.234375 
Q 18.3125 60.0625 18.3125 54.390625 
z
" id="DejaVuSans-56"/>
      </defs>
      <g transform="translate(447.988438 463.158437)scale(0.1 -0.1)">
       <use xlink:href="#DejaVuSans-48"/>
       <use x="63.623047" xlink:href="#DejaVuSans-46"/>
       <use x="95.410156" xlink:href="#DejaVuSans-56"/>
      </g>
     </g>
    </g>
    <g id="xtick_10">
     <g id="line2d_19">
      <path clip-path="url(#pfa59a78c60)" d="M 503.37 448.56 
L 503.37 60.48 
" style="fill:none;stroke:#b0b0b0;stroke-linecap:square;stroke-width:0.8;"/>
     </g>
     <g id="line2d_20">
      <g>
       <use style="stroke:#000000;stroke-width:0.8;" x="503.37" xlink:href="#m05d8e6204c" y="448.56"/>
      </g>
     </g>
     <g id="text_10">
      <!-- 0.9 -->
      <defs>
       <path d="M 10.984375 1.515625 
L 10.984375 10.5 
Q 14.703125 8.734375 18.5 7.8125 
Q 22.3125 6.890625 25.984375 6.890625 
Q 35.75 6.890625 40.890625 13.453125 
Q 46.046875 20.015625 46.78125 33.40625 
Q 43.953125 29.203125 39.59375 26.953125 
Q 35.25 24.703125 29.984375 24.703125 
Q 19.046875 24.703125 12.671875 31.3125 
Q 6.296875 37.9375 6.296875 49.421875 
Q 6.296875 60.640625 12.9375 67.421875 
Q 19.578125 74.21875 30.609375 74.21875 
Q 43.265625 74.21875 49.921875 64.515625 
Q 56.59375 54.828125 56.59375 36.375 
Q 56.59375 19.140625 48.40625 8.859375 
Q 40.234375 -1.421875 26.421875 -1.421875 
Q 22.703125 -1.421875 18.890625 -0.6875 
Q 15.09375 0.046875 10.984375 1.515625 
z
M 30.609375 32.421875 
Q 37.25 32.421875 41.125 36.953125 
Q 45.015625 41.5 45.015625 49.421875 
Q 45.015625 57.28125 41.125 61.84375 
Q 37.25 66.40625 30.609375 66.40625 
Q 23.96875 66.40625 20.09375 61.84375 
Q 16.21875 57.28125 16.21875 49.421875 
Q 16.21875 41.5 20.09375 36.953125 
Q 23.96875 32.421875 30.609375 32.421875 
z
" id="DejaVuSans-57"/>
      </defs>
      <g transform="translate(495.418438 463.158437)scale(0.1 -0.1)">
       <use xlink:href="#DejaVuSans-48"/>
       <use x="63.623047" xlink:href="#DejaVuSans-46"/>
       <use x="95.410156" xlink:href="#DejaVuSans-57"/>
      </g>
     </g>
    </g>
    <g id="xtick_11">
     <g id="line2d_21">
      <path clip-path="url(#pfa59a78c60)" d="M 550.8 448.56 
L 550.8 60.48 
" style="fill:none;stroke:#b0b0b0;stroke-linecap:square;stroke-width:0.8;"/>
     </g>
     <g id="line2d_22">
      <g>
       <use style="stroke:#000000;stroke-width:0.8;" x="550.8" xlink:href="#m05d8e6204c" y="448.56"/>
      </g>
     </g>
     <g id="text_11">
      <!-- 1.0 -->
      <g transform="translate(542.848438 463.158437)scale(0.1 -0.1)">
       <use xlink:href="#DejaVuSans-49"/>
       <use x="63.623047" xlink:href="#DejaVuSans-46"/>
       <use x="95.410156" xlink:href="#DejaVuSans-48"/>
      </g>
     </g>
    </g>
    <g id="text_12">
     <!-- 1-precision -->
     <defs>
      <path d="M 4.890625 31.390625 
L 31.203125 31.390625 
L 31.203125 23.390625 
L 4.890625 23.390625 
z
" id="DejaVuSans-45"/>
      <path d="M 18.109375 8.203125 
L 18.109375 -20.796875 
L 9.078125 -20.796875 
L 9.078125 54.6875 
L 18.109375 54.6875 
L 18.109375 46.390625 
Q 20.953125 51.265625 25.265625 53.625 
Q 29.59375 56 35.59375 56 
Q 45.5625 56 51.78125 48.09375 
Q 58.015625 40.1875 58.015625 27.296875 
Q 58.015625 14.40625 51.78125 6.484375 
Q 45.5625 -1.421875 35.59375 -1.421875 
Q 29.59375 -1.421875 25.265625 0.953125 
Q 20.953125 3.328125 18.109375 8.203125 
z
M 48.6875 27.296875 
Q 48.6875 37.203125 44.609375 42.84375 
Q 40.53125 48.484375 33.40625 48.484375 
Q 26.265625 48.484375 22.1875 42.84375 
Q 18.109375 37.203125 18.109375 27.296875 
Q 18.109375 17.390625 22.1875 11.75 
Q 26.265625 6.109375 33.40625 6.109375 
Q 40.53125 6.109375 44.609375 11.75 
Q 48.6875 17.390625 48.6875 27.296875 
z
" id="DejaVuSans-112"/>
      <path d="M 41.109375 46.296875 
Q 39.59375 47.171875 37.8125 47.578125 
Q 36.03125 48 33.890625 48 
Q 26.265625 48 22.1875 43.046875 
Q 18.109375 38.09375 18.109375 28.8125 
L 18.109375 0 
L 9.078125 0 
L 9.078125 54.6875 
L 18.109375 54.6875 
L 18.109375 46.1875 
Q 20.953125 51.171875 25.484375 53.578125 
Q 30.03125 56 36.53125 56 
Q 37.453125 56 38.578125 55.875 
Q 39.703125 55.765625 41.0625 55.515625 
z
" id="DejaVuSans-114"/>
      <path d="M 56.203125 29.59375 
L 56.203125 25.203125 
L 14.890625 25.203125 
Q 15.484375 15.921875 20.484375 11.0625 
Q 25.484375 6.203125 34.421875 6.203125 
Q 39.59375 6.203125 44.453125 7.46875 
Q 49.3125 8.734375 54.109375 11.28125 
L 54.109375 2.78125 
Q 49.265625 0.734375 44.1875 -0.34375 
Q 39.109375 -1.421875 33.890625 -1.421875 
Q 20.796875 -1.421875 13.15625 6.1875 
Q 5.515625 13.8125 5.515625 26.8125 
Q 5.515625 40.234375 12.765625 48.109375 
Q 20.015625 56 32.328125 56 
Q 43.359375 56 49.78125 48.890625 
Q 56.203125 41.796875 56.203125 29.59375 
z
M 47.21875 32.234375 
Q 47.125 39.59375 43.09375 43.984375 
Q 39.0625 48.390625 32.421875 48.390625 
Q 24.90625 48.390625 20.390625 44.140625 
Q 15.875 39.890625 15.1875 32.171875 
z
" id="DejaVuSans-101"/>
      <path d="M 48.78125 52.59375 
L 48.78125 44.1875 
Q 44.96875 46.296875 41.140625 47.34375 
Q 37.3125 48.390625 33.40625 48.390625 
Q 24.65625 48.390625 19.8125 42.84375 
Q 14.984375 37.3125 14.984375 27.296875 
Q 14.984375 17.28125 19.8125 11.734375 
Q 24.65625 6.203125 33.40625 6.203125 
Q 37.3125 6.203125 41.140625 7.25 
Q 44.96875 8.296875 48.78125 10.40625 
L 48.78125 2.09375 
Q 45.015625 0.34375 40.984375 -0.53125 
Q 36.96875 -1.421875 32.421875 -1.421875 
Q 20.0625 -1.421875 12.78125 6.34375 
Q 5.515625 14.109375 5.515625 27.296875 
Q 5.515625 40.671875 12.859375 48.328125 
Q 20.21875 56 33.015625 56 
Q 37.15625 56 41.109375 55.140625 
Q 45.0625 54.296875 48.78125 52.59375 
z
" id="DejaVuSans-99"/>
      <path d="M 9.421875 54.6875 
L 18.40625 54.6875 
L 18.40625 0 
L 9.421875 0 
z
M 9.421875 75.984375 
L 18.40625 75.984375 
L 18.40625 64.59375 
L 9.421875 64.59375 
z
" id="DejaVuSans-105"/>
      <path d="M 44.28125 53.078125 
L 44.28125 44.578125 
Q 40.484375 46.53125 36.375 47.5 
Q 32.28125 48.484375 27.875 48.484375 
Q 21.1875 48.484375 17.84375 46.4375 
Q 14.5 44.390625 14.5 40.28125 
Q 14.5 37.15625 16.890625 35.375 
Q 19.28125 33.59375 26.515625 31.984375 
L 29.59375 31.296875 
Q 39.15625 29.25 43.1875 25.515625 
Q 47.21875 21.78125 47.21875 15.09375 
Q 47.21875 7.46875 41.1875 3.015625 
Q 35.15625 -1.421875 24.609375 -1.421875 
Q 20.21875 -1.421875 15.453125 -0.5625 
Q 10.6875 0.296875 5.421875 2 
L 5.421875 11.28125 
Q 10.40625 8.6875 15.234375 7.390625 
Q 20.0625 6.109375 24.8125 6.109375 
Q 31.15625 6.109375 34.5625 8.28125 
Q 37.984375 10.453125 37.984375 14.40625 
Q 37.984375 18.0625 35.515625 20.015625 
Q 33.0625 21.96875 24.703125 23.78125 
L 21.578125 24.515625 
Q 13.234375 26.265625 9.515625 29.90625 
Q 5.8125 33.546875 5.8125 39.890625 
Q 5.8125 47.609375 11.28125 51.796875 
Q 16.75 56 26.8125 56 
Q 31.78125 56 36.171875 55.265625 
Q 40.578125 54.546875 44.28125 53.078125 
z
" id="DejaVuSans-115"/>
      <path d="M 30.609375 48.390625 
Q 23.390625 48.390625 19.1875 42.75 
Q 14.984375 37.109375 14.984375 27.296875 
Q 14.984375 17.484375 19.15625 11.84375 
Q 23.34375 6.203125 30.609375 6.203125 
Q 37.796875 6.203125 41.984375 11.859375 
Q 46.1875 17.53125 46.1875 27.296875 
Q 46.1875 37.015625 41.984375 42.703125 
Q 37.796875 48.390625 30.609375 48.390625 
z
M 30.609375 56 
Q 42.328125 56 49.015625 48.375 
Q 55.71875 40.765625 55.71875 27.296875 
Q 55.71875 13.875 49.015625 6.21875 
Q 42.328125 -1.421875 30.609375 -1.421875 
Q 18.84375 -1.421875 12.171875 6.21875 
Q 5.515625 13.875 5.515625 27.296875 
Q 5.515625 40.765625 12.171875 48.375 
Q 18.84375 56 30.609375 56 
z
" id="DejaVuSans-111"/>
      <path d="M 54.890625 33.015625 
L 54.890625 0 
L 45.90625 0 
L 45.90625 32.71875 
Q 45.90625 40.484375 42.875 44.328125 
Q 39.84375 48.1875 33.796875 48.1875 
Q 26.515625 48.1875 22.3125 43.546875 
Q 18.109375 38.921875 18.109375 30.90625 
L 18.109375 0 
L 9.078125 0 
L 9.078125 54.6875 
L 18.109375 54.6875 
L 18.109375 46.1875 
Q 21.34375 51.125 25.703125 53.5625 
Q 30.078125 56 35.796875 56 
Q 45.21875 56 50.046875 50.171875 
Q 54.890625 44.34375 54.890625 33.015625 
z
" id="DejaVuSans-110"/>
     </defs>
     <g transform="translate(286.110938 476.836563)scale(0.1 -0.1)">
      <use xlink:href="#DejaVuSans-49"/>
      <use x="63.623047" xlink:href="#DejaVuSans-45"/>
      <use x="99.707031" xlink:href="#DejaVuSans-112"/>
      <use x="163.183594" xlink:href="#DejaVuSans-114"/>
      <use x="202.046875" xlink:href="#DejaVuSans-101"/>
      <use x="263.570312" xlink:href="#DejaVuSans-99"/>
      <use x="318.550781" xlink:href="#DejaVuSans-105"/>
      <use x="346.333984" xlink:href="#DejaVuSans-115"/>
      <use x="398.433594" xlink:href="#DejaVuSans-105"/>
      <use x="426.216797" xlink:href="#DejaVuSans-111"/>
      <use x="487.398438" xlink:href="#DejaVuSans-110"/>
     </g>
    </g>
   </g>
   <g id="matplotlib.axis_2">
    <g id="ytick_1">
     <g id="line2d_23">
      <path clip-path="url(#pfa59a78c60)" d="M 76.5 448.56 
L 550.8 448.56 
" style="fill:none;stroke:#b0b0b0;stroke-linecap:square;stroke-width:0.8;"/>
     </g>
     <g id="line2d_24">
      <defs>
       <path d="M 0 0 
L -3.5 0 
" id="mcdc2194d80" style="stroke:#000000;stroke-width:0.8;"/>
      </defs>
      <g>
       <use style="stroke:#000000;stroke-width:0.8;" x="76.5" xlink:href="#mcdc2194d80" y="448.56"/>
      </g>
     </g>
     <g id="text_13">
      <!-- 0.0 -->
      <g transform="translate(53.596875 452.359219)scale(0.1 -0.1)">
       <use xlink:href="#DejaVuSans-48"/>
       <use x="63.623047" xlink:href="#DejaVuSans-46"/>
       <use x="95.410156" xlink:href="#DejaVuSans-48"/>
      </g>
     </g>
    </g>
    <g id="ytick_2">
     <g id="line2d_25">
      <path clip-path="url(#pfa59a78c60)" d="M 76.5 409.752 
L 550.8 409.752 
" style="fill:none;stroke:#b0b0b0;stroke-linecap:square;stroke-width:0.8;"/>
     </g>
     <g id="line2d_26">
      <g>
       <use style="stroke:#000000;stroke-width:0.8;" x="76.5" xlink:href="#mcdc2194d80" y="409.752"/>
      </g>
     </g>
     <g id="text_14">
      <!-- 0.1 -->
      <g transform="translate(53.596875 413.551219)scale(0.1 -0.1)">
       <use xlink:href="#DejaVuSans-48"/>
       <use x="63.623047" xlink:href="#DejaVuSans-46"/>
       <use x="95.410156" xlink:href="#DejaVuSans-49"/>
      </g>
     </g>
    </g>
    <g id="ytick_3">
     <g id="line2d_27">
      <path clip-path="url(#pfa59a78c60)" d="M 76.5 370.944 
L 550.8 370.944 
" style="fill:none;stroke:#b0b0b0;stroke-linecap:square;stroke-width:0.8;"/>
     </g>
     <g id="line2d_28">
      <g>
       <use style="stroke:#000000;stroke-width:0.8;" x="76.5" xlink:href="#mcdc2194d80" y="370.944"/>
      </g>
     </g>
     <g id="text_15">
      <!-- 0.2 -->
      <g transform="translate(53.596875 374.743219)scale(0.1 -0.1)">
       <use xlink:href="#DejaVuSans-48"/>
       <use x="63.623047" xlink:href="#DejaVuSans-46"/>
       <use x="95.410156" xlink:href="#DejaVuSans-50"/>
      </g>
     </g>
    </g>
    <g id="ytick_4">
     <g id="line2d_29">
      <path clip-path="url(#pfa59a78c60)" d="M 76.5 332.136 
L 550.8 332.136 
" style="fill:none;stroke:#b0b0b0;stroke-linecap:square;stroke-width:0.8;"/>
     </g>
     <g id="line2d_30">
      <g>
       <use style="stroke:#000000;stroke-width:0.8;" x="76.5" xlink:href="#mcdc2194d80" y="332.136"/>
      </g>
     </g>
     <g id="text_16">
      <!-- 0.3 -->
      <g transform="translate(53.596875 335.935219)scale(0.1 -0.1)">
       <use xlink:href="#DejaVuSans-48"/>
       <use x="63.623047" xlink:href="#DejaVuSans-46"/>
       <use x="95.410156" xlink:href="#DejaVuSans-51"/>
      </g>
     </g>
    </g>
    <g id="ytick_5">
     <g id="line2d_31">
      <path clip-path="url(#pfa59a78c60)" d="M 76.5 293.328 
L 550.8 293.328 
" style="fill:none;stroke:#b0b0b0;stroke-linecap:square;stroke-width:0.8;"/>
     </g>
     <g id="line2d_32">
      <g>
       <use style="stroke:#000000;stroke-width:0.8;" x="76.5" xlink:href="#mcdc2194d80" y="293.328"/>
      </g>
     </g>
     <g id="text_17">
      <!-- 0.4 -->
      <g transform="translate(53.596875 297.127219)scale(0.1 -0.1)">
       <use xlink:href="#DejaVuSans-48"/>
       <use x="63.623047" xlink:href="#DejaVuSans-46"/>
       <use x="95.410156" xlink:href="#DejaVuSans-52"/>
      </g>
     </g>
    </g>
    <g id="ytick_6">
     <g id="line2d_33">
      <path clip-path="url(#pfa59a78c60)" d="M 76.5 254.52 
L 550.8 254.52 
" style="fill:none;stroke:#b0b0b0;stroke-linecap:square;stroke-width:0.8;"/>
     </g>
     <g id="line2d_34">
      <g>
       <use style="stroke:#000000;stroke-width:0.8;" x="76.5" xlink:href="#mcdc2194d80" y="254.52"/>
      </g>
     </g>
     <g id="text_18">
      <!-- 0.5 -->
      <g transform="translate(53.596875 258.319219)scale(0.1 -0.1)">
       <use xlink:href="#DejaVuSans-48"/>
       <use x="63.623047" xlink:href="#DejaVuSans-46"/>
       <use x="95.410156" xlink:href="#DejaVuSans-53"/>
      </g>
     </g>
    </g>
    <g id="ytick_7">
     <g id="line2d_35">
      <path clip-path="url(#pfa59a78c60)" d="M 76.5 215.712 
L 550.8 215.712 
" style="fill:none;stroke:#b0b0b0;stroke-linecap:square;stroke-width:0.8;"/>
     </g>
     <g id="line2d_36">
      <g>
       <use style="stroke:#000000;stroke-width:0.8;" x="76.5" xlink:href="#mcdc2194d80" y="215.712"/>
      </g>
     </g>
     <g id="text_19">
      <!-- 0.6 -->
      <g transform="translate(53.596875 219.511219)scale(0.1 -0.1)">
       <use xlink:href="#DejaVuSans-48"/>
       <use x="63.623047" xlink:href="#DejaVuSans-46"/>
       <use x="95.410156" xlink:href="#DejaVuSans-54"/>
      </g>
     </g>
    </g>
    <g id="ytick_8">
     <g id="line2d_37">
      <path clip-path="url(#pfa59a78c60)" d="M 76.5 176.904 
L 550.8 176.904 
" style="fill:none;stroke:#b0b0b0;stroke-linecap:square;stroke-width:0.8;"/>
     </g>
     <g id="line2d_38">
      <g>
       <use style="stroke:#000000;stroke-width:0.8;" x="76.5" xlink:href="#mcdc2194d80" y="176.904"/>
      </g>
     </g>
     <g id="text_20">
      <!-- 0.7 -->
      <g transform="translate(53.596875 180.703219)scale(0.1 -0.1)">
       <use xlink:href="#DejaVuSans-48"/>
       <use x="63.623047" xlink:href="#DejaVuSans-46"/>
       <use x="95.410156" xlink:href="#DejaVuSans-55"/>
      </g>
     </g>
    </g>
    <g id="ytick_9">
     <g id="line2d_39">
      <path clip-path="url(#pfa59a78c60)" d="M 76.5 138.096 
L 550.8 138.096 
" style="fill:none;stroke:#b0b0b0;stroke-linecap:square;stroke-width:0.8;"/>
     </g>
     <g id="line2d_40">
      <g>
       <use style="stroke:#000000;stroke-width:0.8;" x="76.5" xlink:href="#mcdc2194d80" y="138.096"/>
      </g>
     </g>
     <g id="text_21">
      <!-- 0.8 -->
      <g transform="translate(53.596875 141.895219)scale(0.1 -0.1)">
       <use xlink:href="#DejaVuSans-48"/>
       <use x="63.623047" xlink:href="#DejaVuSans-46"/>
       <use x="95.410156" xlink:href="#DejaVuSans-56"/>
      </g>
     </g>
    </g>
    <g id="ytick_10">
     <g id="line2d_41">
      <path clip-path="url(#pfa59a78c60)" d="M 76.5 99.288 
L 550.8 99.288 
" style="fill:none;stroke:#b0b0b0;stroke-linecap:square;stroke-width:0.8;"/>
     </g>
     <g id="line2d_42">
      <g>
       <use style="stroke:#000000;stroke-width:0.8;" x="76.5" xlink:href="#mcdc2194d80" y="99.288"/>
      </g>
     </g>
     <g id="text_22">
      <!-- 0.9 -->
      <g transform="translate(53.596875 103.087219)scale(0.1 -0.1)">
       <use xlink:href="#DejaVuSans-48"/>
       <use x="63.623047" xlink:href="#DejaVuSans-46"/>
       <use x="95.410156" xlink:href="#DejaVuSans-57"/>
      </g>
     </g>
    </g>
    <g id="ytick_11">
     <g id="line2d_43">
      <path clip-path="url(#pfa59a78c60)" d="M 76.5 60.48 
L 550.8 60.48 
" style="fill:none;stroke:#b0b0b0;stroke-linecap:square;stroke-width:0.8;"/>
     </g>
     <g id="line2d_44">
      <g>
       <use style="stroke:#000000;stroke-width:0.8;" x="76.5" xlink:href="#mcdc2194d80" y="60.48"/>
      </g>
     </g>
     <g id="text_23">
      <!-- 1.0 -->
      <g transform="translate(53.596875 64.279219)scale(0.1 -0.1)">
       <use xlink:href="#DejaVuSans-49"/>
       <use x="63.623047" xlink:href="#DejaVuSans-46"/>
       <use x="95.410156" xlink:href="#DejaVuSans-48"/>
      </g>
     </g>
    </g>
    <g id="text_24">
     <!-- #correct/829 -->
     <defs>
      <path d="M 51.125 44 
L 36.921875 44 
L 32.8125 27.6875 
L 47.125 27.6875 
z
M 43.796875 71.78125 
L 38.71875 51.515625 
L 52.984375 51.515625 
L 58.109375 71.78125 
L 65.921875 71.78125 
L 60.890625 51.515625 
L 76.125 51.515625 
L 76.125 44 
L 58.984375 44 
L 54.984375 27.6875 
L 70.515625 27.6875 
L 70.515625 20.21875 
L 53.078125 20.21875 
L 48 0 
L 40.1875 0 
L 45.21875 20.21875 
L 30.90625 20.21875 
L 25.875 0 
L 18.015625 0 
L 23.09375 20.21875 
L 7.71875 20.21875 
L 7.71875 27.6875 
L 24.90625 27.6875 
L 29 44 
L 13.28125 44 
L 13.28125 51.515625 
L 30.90625 51.515625 
L 35.890625 71.78125 
z
" id="DejaVuSans-35"/>
      <path d="M 18.3125 70.21875 
L 18.3125 54.6875 
L 36.8125 54.6875 
L 36.8125 47.703125 
L 18.3125 47.703125 
L 18.3125 18.015625 
Q 18.3125 11.328125 20.140625 9.421875 
Q 21.96875 7.515625 27.59375 7.515625 
L 36.8125 7.515625 
L 36.8125 0 
L 27.59375 0 
Q 17.1875 0 13.234375 3.875 
Q 9.28125 7.765625 9.28125 18.015625 
L 9.28125 47.703125 
L 2.6875 47.703125 
L 2.6875 54.6875 
L 9.28125 54.6875 
L 9.28125 70.21875 
z
" id="DejaVuSans-116"/>
      <path d="M 25.390625 72.90625 
L 33.6875 72.90625 
L 8.296875 -9.28125 
L 0 -9.28125 
z
" id="DejaVuSans-47"/>
     </defs>
     <g transform="translate(47.517187 287.443438)rotate(-90)scale(0.1 -0.1)">
      <use xlink:href="#DejaVuSans-35"/>
      <use x="83.789062" xlink:href="#DejaVuSans-99"/>
      <use x="138.769531" xlink:href="#DejaVuSans-111"/>
      <use x="199.951172" xlink:href="#DejaVuSans-114"/>
      <use x="239.314453" xlink:href="#DejaVuSans-114"/>
      <use x="278.177734" xlink:href="#DejaVuSans-101"/>
      <use x="339.701172" xlink:href="#DejaVuSans-99"/>
      <use x="394.681641" xlink:href="#DejaVuSans-116"/>
      <use x="433.890625" xlink:href="#DejaVuSans-47"/>
      <use x="467.582031" xlink:href="#DejaVuSans-56"/>
      <use x="531.205078" xlink:href="#DejaVuSans-50"/>
      <use x="594.828125" xlink:href="#DejaVuSans-57"/>
     </g>
    </g>
   </g>
   <g id="line2d_45">
    <path clip-path="url(#pfa59a78c60)" d="M 76.5 448.09187 
L 76.5 381.14924 
L 79.771034 381.14924 
L 79.726531 380.212979 
L 82.909459 380.212979 
L 82.113018 370.382244 
L 81.364615 358.210856 
L 80.678855 343.230688 
L 80.485714 338.081255 
L 82.453556 338.081255 
L 82.058203 330.12304 
L 83.882101 330.12304 
L 83.500738 323.569216 
L 85.21875 323.569216 
L 84.27541 308.120917 
L 84.100962 304.844005 
L 85.592013 304.844005 
L 84.630857 287.523185 
L 84.339669 281.437491 
L 85.621154 281.437491 
L 85.596164 280.969361 
L 86.867213 280.969361 
L 86.645455 277.224318 
L 87.8832 277.224318 
L 87.587532 272.543016 
L 88.787565 272.543016 
L 87.984262 259.903498 
L 89.102174 259.903498 
L 88.605104 251.945283 
L 89.675 251.945283 
L 89.232886 244.923329 
L 90.26317 244.923329 
L 89.992123 240.710157 
L 90.998253 240.710157 
L 90.903905 239.305766 
L 91.899351 239.305766 
L 91.866091 238.837636 
L 92.855172 238.837636 
L 92.784979 237.901375 
L 93.765739 237.901375 
L 93.159298 229.94316 
L 94.102887 229.94316 
L 94.030595 229.0069 
L 94.966598 229.0069 
L 94.34495 221.048685 
L 95.247036 221.048685 
L 94.707294 214.026731 
L 96.451434 214.026731 
L 96.187925 210.749819 
L 97.044068 210.749819 
L 96.852425 208.409168 
L 97.697765 208.409168 
L 97.58 207.004777 
L 98.417745 207.004777 
L 98.177331 204.195995 
L 99.003285 204.195995 
L 98.921455 203.259735 
L 99.741561 203.259735 
L 99.615704 201.855344 
L 100.428649 201.855344 
L 100.257424 199.982823 
L 101.061964 199.982823 
L 100.716021 196.23778 
L 102.295263 196.23778 
L 101.894301 192.024608 
L 102.668276 192.024608 
L 102.623236 191.556478 
L 103.393299 191.556478 
L 103.34717 191.088347 
L 104.113356 191.088347 
L 103.832542 188.279566 
L 104.588832 188.279566 
L 104.494098 187.343305 
L 105.994286 187.343305 
L 105.944799 186.875175 
L 106.68995 186.875175 
L 106.639465 186.407045 
L 107.380968 186.407045 
L 106.97397 182.662002 
L 107.703947 182.662002 
L 107.550736 181.257612 
L 108.275 181.257612 
L 108.223165 180.789481 
L 109.662439 180.789481 
L 109.554943 179.853221 
L 110.268932 179.853221 
L 110.214378 179.38509 
L 110.925 179.38509 
L 110.814309 178.44883 
L 111.520546 178.44883 
L 110.750863 171.895006 
L 112.128169 171.895006 
L 111.742105 168.618094 
L 112.420711 168.618094 
L 112.036239 165.341182 
L 113.373933 165.341182 
L 113.150455 163.468661 
L 113.812557 163.468661 
L 113.7 162.5324 
L 114.358283 162.5324 
L 114.244595 161.59614 
L 114.8991 161.59614 
L 114.841617 161.12801 
L 115.493274 161.12801 
L 115.089497 157.851098 
L 115.733087 157.851098 
L 115.502643 155.978577 
L 116.140909 155.978577 
L 115.967299 154.574186 
L 117.233188 154.574186 
L 117.056087 153.169795 
L 117.683792 153.169795 
L 117.564935 152.233534 
L 118.189193 152.233534 
L 118.129209 151.765404 
L 119.988825 151.765404 
L 119.435219 147.552232 
L 120.652045 147.552232 
L 120.589859 147.084101 
L 121.194937 147.084101 
L 121.132163 146.615971 
L 121.734783 146.615971 
L 121.671429 146.147841 
L 122.870112 146.147841 
L 122.805439 145.67971 
L 123.401532 145.67971 
L 123.3363 145.21158 
L 124.522053 145.21158 
L 124.45554 144.74345 
L 125.045228 144.74345 
L 124.844628 143.339059 
L 125.430536 143.339059 
L 125.363324 142.870929 
L 126.528904 142.870929 
L 126.460465 142.402799 
L 127.040164 142.402799 
L 126.971214 141.934668 
L 127.548638 141.934668 
L 127.479184 141.466538 
L 129.770501 141.466538 
L 129.483715 139.594017 
L 130.614765 139.594017 
L 130.111037 136.317105 
L 130.669721 136.317105 
L 130.526225 135.380844 
L 131.082143 135.380844 
L 130.652362 132.572063 
L 131.203014 132.572063 
L 131.06 131.635802 
L 131.607963 131.635802 
L 131.536115 131.167672 
L 132.626528 131.167672 
L 132.553636 130.699542 
L 133.096109 130.699542 
L 133.022798 130.231411 
L 133.56326 130.231411 
L 133.489535 129.763281 
L 135.100772 129.763281 
L 135.02545 129.295151 
L 136.622535 129.295151 
L 136.392474 127.89076 
L 137.446947 127.89076 
L 137.292259 126.954499 
L 138.339114 126.954499 
L 138.260936 126.486369 
L 138.781818 126.486369 
L 138.624937 125.550109 
L 139.143396 125.550109 
L 139.064698 125.081978 
L 139.581305 125.081978 
L 139.109963 122.273197 
L 141.150558 122.273197 
L 140.831689 120.400676 
L 141.840221 120.400676 
L 141.520318 118.528154 
L 142.02066 118.528154 
L 141.860854 117.591894 
L 142.855839 117.591894 
L 142.614545 116.187503 
L 143.108717 116.187503 
L 142.867672 114.783112 
L 143.359157 114.783112 
L 143.198438 113.846852 
L 143.687755 113.846852 
L 143.607194 113.378721 
L 144.09485 113.378721 
L 144.013995 112.910591 
L 144.984845 112.910591 
L 144.821786 111.974331 
L 145.304518 111.974331 
L 145.222803 111.5062 
L 145.703915 111.5062 
L 145.540118 110.56994 
L 147.44947 110.56994 
L 147.116764 108.697419 
L 147.589461 108.697419 
L 147.423364 107.761158 
L 147.894049 107.761158 
L 147.810839 107.293028 
L 148.748023 107.293028 
L 148.496871 105.888637 
L 151.274568 105.888637 
L 151.188621 105.420507 
L 151.647417 105.420507 
L 151.561239 104.952376 
L 152.018557 104.952376 
L 151.845943 104.016116 
L 152.755758 104.016116 
L 152.668907 103.547986 
L 153.121843 103.547986 
L 153.034773 103.079855 
L 154.386183 103.079855 
L 154.298077 102.611725 
L 155.193115 102.611725 
L 154.839438 100.739204 
L 155.283838 100.739204 
L 155.195516 100.271074 
L 158.712 100.271074 
L 158.620755 99.802943 
L 159.922235 99.802943 
L 159.830055 99.334813 
L 160.692172 99.334813 
L 160.599449 98.866683 
L 161.457033 98.866683 
L 161.363776 98.398552 
L 162.642013 98.398552 
L 162.547869 97.930422 
L 163.816667 97.930422 
L 163.721654 97.462292 
L 164.981128 97.462292 
L 164.885265 96.994162 
L 165.302922 96.994162 
L 165.206919 96.526031 
L 166.038835 96.526031 
L 165.846071 95.589771 
L 167.085193 95.589771 
L 166.988103 95.121641 
L 167.399036 95.121641 
L 167.301818 94.65351 
L 168.528358 94.65351 
L 168.430351 94.18538 
L 168.837128 94.18538 
L 168.739001 93.71725 
L 169.549311 93.71725 
L 169.450742 93.249119 
L 171.05981 93.249119 
L 170.960169 92.780989 
L 172.157143 92.780989 
L 171.956604 91.844729 
L 176.275026 91.844729 
L 176.171739 91.376598 
L 176.945764 91.376598 
L 176.73866 90.440338 
L 181.309674 90.440338 
L 181.203052 89.972207 
L 181.953503 89.972207 
L 181.846552 89.504077 
L 183.337273 89.504077 
L 183.229465 89.035947 
L 184.338833 89.035947 
L 184.122289 88.099686 
L 187.40597 88.099686 
L 187.295726 87.631556 
L 187.656703 87.631556 
L 187.546429 87.163426 
L 188.265743 87.163426 
L 188.155193 86.695296 
L 188.871175 86.695296 
L 188.760355 86.227165 
L 189.117044 86.227165 
L 189.006201 85.759035 
L 190.071344 85.759035 
L 189.96 85.290905 
L 191.720195 85.290905 
L 191.607895 84.822774 
L 192.655102 84.822774 
L 192.54233 84.354644 
L 215.645232 84.354644 
L 215.518966 83.886514 
L 219.13061 83.886514 
L 218.875 82.950253 
L 223.566519 82.950253 
L 223.436717 82.482123 
L 235.138213 82.482123 
L 235.003316 82.013993 
L 239.242198 82.013993 
L 239.105784 81.545862 
L 241.182015 81.545862 
L 241.045008 81.077732 
L 245.114039 81.077732 
L 244.975718 80.609602 
L 247.217101 80.609602 
L 247.078194 80.141472 
L 252.89569 80.141472 
L 252.755024 79.673341 
L 273.126597 79.673341 
L 272.980624 79.205211 
L 282.924052 79.205211 
L 282.776395 78.737081 
L 288.407143 78.737081 
L 288.258852 78.268951 
L 310.613508 78.268951 
L 310.613508 78.268951 
" style="fill:none;stroke:#1f77b4;stroke-linecap:square;stroke-width:2;"/>
   </g>
   <g id="line2d_46">
    <path clip-path="url(#pfa59a78c60)" d="M 76.5 448.09187 
L 76.5 447.155609 
L 195.075 447.155609 
L 171.36 446.687479 
L 155.55 446.219349 
L 144.257143 445.751218 
L 129.2 444.814958 
L 119.618182 443.878697 
L 112.984615 442.942437 
L 108.12 442.006176 
L 104.4 441.069916 
L 101.463158 440.133655 
L 99.085714 439.197394 
L 96.2625 437.793004 
L 94.066667 436.388613 
L 92.31 434.984222 
L 90.872727 433.579831 
L 89.318919 431.70731 
L 88.068293 429.834789 
L 86.81087 427.494138 
L 85.8 425.153486 
L 84.821053 422.344704 
L 83.910938 419.067793 
L 83.180282 415.790881 
L 89.675 415.790881 
L 88.507595 412.513969 
L 87.403448 408.768926 
L 86.7 405.960145 
L 91.637234 405.960145 
L 91.169072 404.555754 
L 95.859184 404.555754 
L 94.398113 400.810712 
L 92.997391 396.597539 
L 91.6776 391.916236 
L 91.093846 389.575585 
L 94.603053 389.575585 
L 94.465909 389.107455 
L 97.896992 389.107455 
L 96.400699 384.426152 
L 94.979221 379.276719 
L 93.540719 373.191025 
L 93.24 371.786634 
L 95.915789 371.786634 
L 94.446486 365.232811 
L 93.1005 358.210856 
L 91.942326 351.188902 
L 96.171429 351.188902 
L 95.222368 346.039469 
L 97.21179 346.039469 
L 95.702429 337.613124 
L 94.264045 328.250519 
L 97.658364 328.250519 
L 97.348352 326.377998 
L 99.003285 326.377998 
L 97.544027 317.483522 
L 99.085714 317.483522 
L 97.851125 309.525308 
L 99.302885 309.525308 
L 98.802508 306.248396 
L 100.215 306.248396 
L 100.141121 305.780265 
L 101.540683 305.780265 
L 101.463158 305.312135 
L 102.85 305.312135 
L 102.688344 304.375875 
L 105.420732 304.375875 
L 104.482301 299.226441 
L 105.795 299.226441 
L 105.709091 298.758311 
L 107.010526 298.758311 
L 106.921574 298.290181 
L 108.211919 298.290181 
L 106.387397 288.459445 
L 106.305738 287.991315 
L 107.516894 287.991315 
L 107.1 285.650663 
L 108.289544 285.650663 
L 107.78628 282.841882 
L 108.952105 282.841882 
L 108.365116 279.56497 
L 109.505412 279.56497 
L 108.838636 275.819928 
L 109.951889 275.819928 
L 109.618204 273.947407 
L 110.715672 273.947407 
L 109.966423 269.734234 
L 113.16087 269.734234 
L 112.723389 267.393583 
L 113.766429 267.393583 
L 112.647575 261.307889 
L 113.657143 261.307889 
L 113.571724 260.839759 
L 114.574541 260.839759 
L 113.888514 257.094717 
L 114.870337 257.094717 
L 114.276106 253.817805 
L 117.154286 253.817805 
L 116.8 251.945283 
L 117.743478 251.945283 
L 117.654013 251.477153 
L 118.591558 251.477153 
L 118.32 250.072762 
L 119.248069 250.072762 
L 118.884255 248.200241 
L 119.801274 248.200241 
L 119.527215 246.79585 
L 120.435158 246.79585 
L 120.068267 244.923329 
L 120.965625 244.923329 
L 120.78112 243.987069 
L 121.671429 243.987069 
L 121.485155 243.050808 
L 122.368519 243.050808 
L 121.809146 240.242027 
L 122.67931 240.242027 
L 122.215663 237.901375 
L 123.93 237.901375 
L 123.460396 235.560724 
L 124.304941 235.560724 
L 123.837182 233.220072 
L 125.501754 233.220072 
L 125.21686 231.815682 
L 126.040039 231.815682 
L 125.659693 229.94316 
L 128.898857 229.94316 
L 128.01573 225.729988 
L 129.593284 225.729988 
L 129.395911 224.793727 
L 130.177737 224.793727 
L 129.880627 223.389337 
L 130.655801 223.389337 
L 130.55625 222.921206 
L 131.327339 222.921206 
L 130.05 216.835513 
L 131.552679 216.835513 
L 131.454545 216.367382 
L 132.200712 216.367382 
L 132.101776 215.899252 
L 132.844149 215.899252 
L 132.744425 215.431122 
L 134.952465 215.431122 
L 134.747368 214.494861 
L 135.476007 214.494861 
L 135.372902 214.026731 
L 136.820383 214.026731 
L 136.299482 211.68608 
L 137.726334 211.68608 
L 137.411815 210.281689 
L 138.118462 210.281689 
L 137.596271 207.941037 
L 138.295431 207.941037 
L 137.983333 206.536647 
L 138.677143 206.536647 
L 138.159 204.195995 
L 138.845591 204.195995 
L 138.433388 202.323474 
L 139.113861 202.323474 
L 139.010708 201.855344 
L 139.687993 201.855344 
L 139.377741 200.450953 
L 140.05 200.450953 
L 139.94633 199.982823 
L 140.615472 199.982823 
L 140.51122 199.514692 
L 141.177273 199.514692 
L 141.072447 199.046562 
L 141.735437 199.046562 
L 141.315916 197.174041 
L 141.973194 197.174041 
L 141.143106 193.428999 
L 141.791297 193.428999 
L 141.482835 192.024608 
L 142.126415 192.024608 
L 142.023391 191.556478 
L 143.302817 191.556478 
L 142.990654 190.152087 
L 143.624883 190.152087 
L 143.313158 188.747696 
L 143.942968 188.747696 
L 143.528571 186.875175 
L 144.153221 186.875175 
L 143.843359 185.470784 
L 144.46372 185.470784 
L 144.257143 184.534524 
L 144.874052 184.534524 
L 144.667171 183.598263 
L 145.280665 183.598263 
L 144.560987 180.321351 
L 145.167313 180.321351 
L 145.064978 179.853221 
L 145.66875 179.853221 
L 145.565973 179.38509 
L 146.167211 179.38509 
L 145.654197 177.044439 
L 146.25 177.044439 
L 145.539301 173.767527 
L 146.128343 173.767527 
L 145.926522 172.831267 
L 149.41681 172.831267 
L 149.312195 172.363136 
L 149.887393 172.363136 
L 149.677714 171.426876 
L 150.249929 171.426876 
L 150.040114 170.490615 
L 151.743059 170.490615 
L 151.424683 169.086224 
L 153.107444 169.086224 
L 152.892857 168.149964 
L 153.449371 168.149964 
L 153.127855 166.745573 
L 154.2325 166.745573 
L 154.124688 166.277443 
L 154.6741 166.277443 
L 154.458149 165.341182 
L 155.55 165.341182 
L 155.116849 163.468661 
L 156.197951 163.468661 
L 155.872653 162.06427 
L 156.944369 162.06427 
L 156.510121 160.191749 
L 157.041509 160.191749 
L 156.825 159.255489 
L 157.353826 159.255489 
L 156.707856 156.446707 
L 157.231915 156.446707 
L 157.124701 155.978577 
L 157.646817 155.978577 
L 157.432143 155.042316 
L 157.951783 155.042316 
L 157.844327 154.574186 
L 159.39343 154.574186 
L 159.284646 154.106055 
L 159.797772 154.106055 
L 159.688743 153.637925 
L 160.2 153.637925 
L 159.873047 152.233534 
L 160.888442 152.233534 
L 160.778988 151.765404 
L 161.788098 151.765404 
L 161.349035 149.892883 
L 162.348909 149.892883 
L 162.238846 149.424753 
L 163.232609 149.424753 
L 163.121839 148.956622 
L 164.601527 148.956622 
L 164.26654 147.552232 
L 165.730682 147.552232 
L 165.282286 145.67971 
L 165.765997 145.67971 
L 165.654135 145.21158 
L 166.13617 145.21158 
L 166.024125 144.74345 
L 166.504494 144.74345 
L 166.280324 143.807189 
L 167.235652 143.807189 
L 167.123077 143.339059 
L 168.545859 143.339059 
L 168.318866 142.402799 
L 170.196074 142.402799 
L 170.08125 141.934668 
L 171.475824 141.934668 
L 171.36 141.466538 
L 172.743135 141.466538 
L 172.509818 140.530277 
L 173.424667 140.530277 
L 173.074337 139.125887 
L 173.528881 139.125887 
L 173.295918 138.189626 
L 175.548329 138.189626 
L 175.430274 137.721496 
L 176.322949 137.721496 
L 176.086121 136.785235 
L 177.414894 136.785235 
L 177.176887 135.848975 
L 177.616961 135.848975 
L 177.379318 134.912714 
L 177.817606 134.912714 
L 177.226488 132.572063 
L 177.661888 132.572063 
L 177.544121 132.103932 
L 178.41115 132.103932 
L 178.174971 131.167672 
L 179.46582 131.167672 
L 179.347059 130.699542 
L 180.201956 130.699542 
L 179.963835 129.763281 
L 180.813402 129.763281 
L 180.69405 129.295151 
L 181.117029 129.295151 
L 180.878449 128.35889 
L 181.720137 128.35889 
L 181.600568 127.89076 
L 182.019637 127.89076 
L 181.9 127.42263 
L 182.734615 127.42263 
L 182.614576 126.954499 
L 183.030135 126.954499 
L 182.195073 123.677587 
L 182.607383 123.677587 
L 182.488827 123.209457 
L 183.719265 123.209457 
L 183.362264 121.805066 
L 184.581637 121.805066 
L 184.46221 121.336936 
L 184.866556 121.336936 
L 184.747078 120.868806 
L 185.15022 120.868806 
L 184.911429 119.932545 
L 186.113691 119.932545 
L 185.993764 119.464415 
L 186.392459 119.464415 
L 186.272489 118.996285 
L 189.037053 118.996285 
L 188.91526 118.528154 
L 190.475108 118.528154 
L 190.352422 118.060024 
L 190.74 118.060024 
L 190.617293 117.591894 
L 191.003755 117.591894 
L 190.758565 116.655633 
L 191.527885 116.655633 
L 191.405123 116.187503 
L 192.170607 116.187503 
L 191.924761 115.251242 
L 192.305732 115.251242 
L 192.182927 114.783112 
L 192.941905 114.783112 
L 192.818816 114.314982 
L 193.196832 114.314982 
L 193.073734 113.846852 
L 195.323585 113.846852 
L 195.199162 113.378721 
L 195.57113 113.378721 
L 195.446708 112.910591 
L 199.12151 112.910591 
L 198.868421 111.974331 
L 201.39252 111.974331 
L 201.264688 111.5062 
L 203.75122 111.5062 
L 203.62203 111.03807 
L 205.724016 111.03807 
L 205.59375 110.56994 
L 206.634573 110.56994 
L 206.503916 110.101809 
L 206.849248 110.101809 
L 206.718637 109.633679 
L 208.092216 109.633679 
L 207.961017 109.165549 
L 211.680178 109.165549 
L 211.546995 108.697419 
L 211.880906 108.697419 
L 211.747788 108.229288 
L 213.736364 108.229288 
L 213.602344 107.761158 
L 214.259649 107.761158 
L 214.125511 107.293028 
L 216.404739 107.293028 
L 216.269565 106.824897 
L 218.835475 106.824897 
L 218.699138 106.356767 
L 221.85 106.356767 
L 221.712227 105.888637 
L 222.33491 105.888637 
L 222.19707 105.420507 
L 224.968791 105.420507 
L 224.829775 104.952376 
L 226.348742 104.952376 
L 226.069953 104.016116 
L 227.273772 104.016116 
L 227.134167 103.547986 
L 228.030748 103.547986 
L 227.751429 102.611725 
L 228.345814 102.611725 
L 228.20625 102.143595 
L 228.502479 102.143595 
L 228.363028 101.675464 
L 236.156938 101.675464 
L 236.014132 101.207334 
L 241.81791 101.207334 
L 241.672895 100.739204 
L 242.214273 100.739204 
L 242.069291 100.271074 
L 242.339161 100.271074 
L 242.194323 99.802943 
L 243.000784 99.802943 
L 242.855875 99.334813 
L 243.390964 99.334813 
L 243.246094 98.866683 
L 243.779116 98.866683 
L 243.634286 98.398552 
L 244.694392 98.398552 
L 244.549397 97.930422 
L 245.076506 97.930422 
L 244.931556 97.462292 
L 245.19433 97.462292 
L 245.049528 96.994162 
L 245.31175 96.994162 
L 245.167095 96.526031 
L 248.790178 96.526031 
L 248.644416 96.057901 
L 252.181355 96.057901 
L 252.034586 95.589771 
L 254.018091 95.589771 
L 253.870896 95.121641 
L 255.827595 95.121641 
L 255.68 94.65351 
L 262.559807 94.65351 
L 262.410361 94.18538 
L 268.53184 94.18538 
L 268.38099 93.71725 
L 272.318668 93.71725 
L 272.167105 93.249119 
L 273.668591 93.249119 
L 273.516923 92.780989 
L 277.303794 92.780989 
L 277.151554 92.312859 
L 284.225185 92.312859 
L 283.765954 90.908468 
L 294.53041 90.908468 
L 294.376325 90.440338 
L 295.459043 90.440338 
L 295.305063 89.972207 
L 298.848682 89.972207 
L 298.694595 89.504077 
L 302.141012 89.504077 
L 301.986885 89.035947 
L 306.164406 89.035947 
L 306.010268 88.567817 
L 306.502143 88.567817 
L 306.348193 88.099686 
L 312.255911 88.099686 
L 312.102023 87.631556 
L 316.686492 87.631556 
L 316.686492 87.631556 
" style="fill:none;stroke:#ff7f0e;stroke-linecap:square;stroke-width:2;"/>
   </g>
   <g id="line2d_47">
    <path clip-path="url(#pfa59a78c60)" d="M 76.5 448.09187 
L 76.5 426.557877 
L 86.38125 426.557877 
L 85.283333 423.749095 
L 84.27541 420.472183 
L 83.373913 416.727141 
L 82.503797 412.045838 
L 81.712088 406.428275 
L 81.15 401.278842 
L 85.709709 401.278842 
L 84.748696 395.661279 
L 83.853488 389.107455 
L 83.32446 384.426152 
L 86.663571 384.426152 
L 85.73961 377.872328 
L 88.74 377.872328 
L 87.594737 370.382244 
L 86.538095 361.955899 
L 86.279381 359.615247 
L 88.661538 359.615247 
L 88.125 355.402075 
L 90.381951 355.402075 
L 89.204464 346.5076 
L 88.068293 336.208733 
L 87.001107 324.505476 
L 86.179592 313.73848 
L 87.754576 313.73848 
L 86.973502 303.439614 
L 88.432075 303.439614 
L 87.894595 296.41766 
L 89.280539 296.41766 
L 88.423743 285.182533 
L 89.711699 285.182533 
L 88.538071 268.797973 
L 88.477273 267.861713 
L 89.641814 267.861713 
L 89.041587 258.967238 
L 90.148921 258.967238 
L 89.860563 254.754065 
L 90.940047 254.754065 
L 90.355955 246.32772 
L 91.388341 246.32772 
L 90.872727 238.837636 
L 91.866091 238.837636 
L 91.352818 231.347551 
L 92.31 231.347551 
L 92.14701 229.0069 
L 93.090741 229.0069 
L 92.988957 227.602509 
L 93.923265 227.602509 
L 93.817241 226.198118 
L 94.742308 226.198118 
L 93.375843 207.472907 
L 93.344299 207.004777 
L 94.197761 207.004777 
L 93.905505 202.791604 
L 94.742308 202.791604 
L 94.004921 192.024608 
L 94.806316 192.024608 
L 94.710471 190.620217 
L 96.29687 190.620217 
L 96.126207 188.279566 
L 96.908778 188.279566 
L 96.631579 184.534524 
L 97.401356 184.534524 
L 97.36599 184.066393 
L 98.131926 184.066393 
L 97.986745 182.193872 
L 98.745226 182.193872 
L 98.451074 178.44883 
L 99.197525 178.44883 
L 99.160132 177.9807 
L 99.902961 177.9807 
L 99.82623 177.044439 
L 100.564321 177.044439 
L 100.215 172.831267 
L 100.94058 172.831267 
L 100.668153 169.554355 
L 101.383784 169.554355 
L 101.304913 168.618094 
L 102.016139 168.618094 
L 101.895591 167.213703 
L 102.601415 167.213703 
L 102.478873 165.809312 
L 103.179375 165.809312 
L 103.096262 164.873052 
L 103.792535 164.873052 
L 103.707907 163.936791 
L 104.4 163.936791 
L 104.313889 163.000531 
L 106.371429 163.000531 
L 106.325613 162.5324 
L 107.006279 162.5324 
L 106.682727 159.255489 
L 107.354614 159.255489 
L 106.98565 155.510446 
L 107.64806 155.510446 
L 107.371598 152.701665 
L 108.026588 152.701665 
L 107.933726 151.765404 
L 108.585 151.765404 
L 108.44407 150.361013 
L 109.090789 150.361013 
L 108.948472 148.956622 
L 109.590698 148.956622 
L 109.494783 148.020362 
L 110.770231 148.020362 
L 110.67147 147.084101 
L 111.304748 147.084101 
L 111.204878 146.147841 
L 111.83467 146.147841 
L 111.78412 145.67971 
L 113.036662 145.67971 
L 112.573521 141.466538 
L 113.189873 141.466538 
L 112.680999 136.785235 
L 113.287812 136.785235 
L 113.236929 136.317105 
L 113.841298 136.317105 
L 113.73843 135.380844 
L 114.339615 135.380844 
L 114.132558 133.508323 
L 114.729098 133.508323 
L 114.264777 129.295151 
L 115.439838 129.295151 
L 115.335302 128.35889 
L 115.919035 128.35889 
L 115.866265 127.89076 
L 116.447727 127.89076 
L 116.077351 124.613848 
L 117.225892 124.613848 
L 117.172164 124.145718 
L 118.881603 124.145718 
L 118.715183 122.741327 
L 119.843342 122.741327 
L 119.786832 122.273197 
L 120.907802 122.273197 
L 120.564 119.464415 
L 121.671429 119.464415 
L 121.613368 118.996285 
L 122.713846 118.996285 
L 122.654673 118.528154 
L 124.292985 118.528154 
L 124.171374 117.591894 
L 124.713469 117.591894 
L 124.652284 117.123764 
L 126.804545 117.123764 
L 126.74111 116.655633 
L 127.275189 116.655633 
L 127.020677 114.783112 
L 130.183209 114.783112 
L 129.983643 113.378721 
L 131.02398 113.378721 
L 130.822537 111.974331 
L 131.339114 111.974331 
L 131.271744 111.5062 
L 131.786503 111.5062 
L 131.651163 110.56994 
L 134.20073 110.56994 
L 133.782609 107.761158 
L 134.285645 107.761158 
L 134.077284 106.356767 
L 135.076619 106.356767 
L 135.006467 105.888637 
L 135.503828 105.888637 
L 135.363007 104.952376 
L 135.858164 104.952376 
L 135.717004 104.016116 
L 136.209976 104.016116 
L 136.139146 103.547986 
L 136.63045 103.547986 
L 136.55929 103.079855 
L 137.048936 103.079855 
L 136.97745 102.611725 
L 137.952297 102.611725 
L 137.88 102.143595 
L 139.814052 102.143595 
L 139.74 101.675464 
L 140.22021 101.675464 
L 140.145858 101.207334 
L 140.624476 101.207334 
L 140.549825 100.739204 
L 141.502787 100.739204 
L 141.427378 100.271074 
L 142.375 100.271074 
L 142.222864 99.334813 
L 142.694118 99.334813 
L 142.541772 98.398552 
L 143.011034 98.398552 
L 142.706636 96.526031 
L 143.173029 96.526031 
L 143.020981 95.589771 
L 144.411136 95.589771 
L 144.334052 95.121641 
L 145.2547 95.121641 
L 145.176923 94.65351 
L 145.635254 94.65351 
L 145.557223 94.18538 
L 146.014092 94.18538 
L 145.935811 93.71725 
L 146.391226 93.71725 
L 146.234343 92.780989 
L 148.491964 92.780989 
L 148.251724 91.376598 
L 148.699 91.376598 
L 148.618868 90.908468 
L 149.064745 90.908468 
L 148.984385 90.440338 
L 151.197026 90.440338 
L 151.114851 89.972207 
L 151.554066 89.972207 
L 151.307448 88.567817 
L 155.20705 88.567817 
L 155.121777 88.099686 
L 156.403672 88.099686 
L 156.317476 87.631556 
L 158.433798 87.631556 
L 158.345981 87.163426 
L 160.437953 87.163426 
L 160.348562 86.695296 
L 162.004772 86.695296 
L 161.733615 85.290905 
L 162.144456 85.290905 
L 162.054114 84.822774 
L 162.463751 84.822774 
L 162.373263 84.354644 
L 164.001887 84.354644 
L 163.636534 82.482123 
L 164.04025 82.482123 
L 163.949063 82.013993 
L 164.753326 82.013993 
L 164.661682 81.545862 
L 165.461969 81.545862 
L 165.369876 81.077732 
L 168.142754 81.077732 
L 168.048665 80.609602 
L 169.61411 80.609602 
L 169.518999 80.141472 
L 171.070498 80.141472 
L 170.97439 79.673341 
L 173.276364 79.673341 
L 173.178708 79.205211 
L 174.31841 79.205211 
L 174.220101 78.737081 
L 175.352104 78.737081 
L 175.055844 77.33269 
L 177.294638 77.33269 
L 177.194643 76.86456 
L 180.864637 76.86456 
L 180.762218 76.396429 
L 181.848434 76.396429 
L 181.745455 75.928299 
L 183.540467 75.928299 
L 183.436443 75.460169 
L 185.918629 75.460169 
L 185.813115 74.992039 
L 200.345 74.992039 
L 200.230435 74.523908 
L 217.496834 74.523908 
L 217.372935 74.055778 
L 228.421071 74.055778 
L 228.292105 73.587648 
L 239.904501 73.587648 
L 239.770891 73.119517 
L 245.021383 73.119517 
L 244.886024 72.651387 
L 254.408638 72.651387 
L 254.270295 72.183257 
L 256.33112 72.183257 
L 256.192361 71.715127 
L 291.417188 71.715127 
L 291.271283 71.246996 
L 297.965476 71.246996 
L 297.819101 70.778866 
L 305.755122 70.778866 
L 305.755122 70.778866 
" style="fill:none;stroke:#2ca02c;stroke-linecap:square;stroke-width:2;"/>
   </g>
   <g id="patch_3">
    <path d="M 76.5 448.56 
L 76.5 60.48 
" style="fill:none;stroke:#000000;stroke-linecap:square;stroke-linejoin:miter;stroke-width:0.8;"/>
   </g>
   <g id="patch_4">
    <path d="M 550.8 448.56 
L 550.8 60.48 
" style="fill:none;stroke:#000000;stroke-linecap:square;stroke-linejoin:miter;stroke-width:0.8;"/>
   </g>
   <g id="patch_5">
    <path d="M 76.5 448.56 
L 550.8 448.56 
" style="fill:none;stroke:#000000;stroke-linecap:square;stroke-linejoin:miter;stroke-width:0.8;"/>
   </g>
   <g id="patch_6">
    <path d="M 76.5 60.48 
L 550.8 60.48 
" style="fill:none;stroke:#000000;stroke-linecap:square;stroke-linejoin:miter;stroke-width:0.8;"/>
   </g>
   <g id="text_25">
    <!-- leuven: img1-img4 -->
    <defs>
     <path d="M 9.421875 75.984375 
L 18.40625 75.984375 
L 18.40625 0 
L 9.421875 0 
z
" id="DejaVuSans-108"/>
     <path d="M 8.5 21.578125 
L 8.5 54.6875 
L 17.484375 54.6875 
L 17.484375 21.921875 
Q 17.484375 14.15625 20.5 10.265625 
Q 23.53125 6.390625 29.59375 6.390625 
Q 36.859375 6.390625 41.078125 11.03125 
Q 45.3125 15.671875 45.3125 23.6875 
L 45.3125 54.6875 
L 54.296875 54.6875 
L 54.296875 0 
L 45.3125 0 
L 45.3125 8.40625 
Q 42.046875 3.421875 37.71875 1 
Q 33.40625 -1.421875 27.6875 -1.421875 
Q 18.265625 -1.421875 13.375 4.4375 
Q 8.5 10.296875 8.5 21.578125 
z
M 31.109375 56 
z
" id="DejaVuSans-117"/>
     <path d="M 2.984375 54.6875 
L 12.5 54.6875 
L 29.59375 8.796875 
L 46.6875 54.6875 
L 56.203125 54.6875 
L 35.6875 0 
L 23.484375 0 
z
" id="DejaVuSans-118"/>
     <path d="M 11.71875 12.40625 
L 22.015625 12.40625 
L 22.015625 0 
L 11.71875 0 
z
M 11.71875 51.703125 
L 22.015625 51.703125 
L 22.015625 39.3125 
L 11.71875 39.3125 
z
" id="DejaVuSans-58"/>
     <path id="DejaVuSans-32"/>
     <path d="M 52 44.1875 
Q 55.375 50.25 60.0625 53.125 
Q 64.75 56 71.09375 56 
Q 79.640625 56 84.28125 50.015625 
Q 88.921875 44.046875 88.921875 33.015625 
L 88.921875 0 
L 79.890625 0 
L 79.890625 32.71875 
Q 79.890625 40.578125 77.09375 44.375 
Q 74.3125 48.1875 68.609375 48.1875 
Q 61.625 48.1875 57.5625 43.546875 
Q 53.515625 38.921875 53.515625 30.90625 
L 53.515625 0 
L 44.484375 0 
L 44.484375 32.71875 
Q 44.484375 40.625 41.703125 44.40625 
Q 38.921875 48.1875 33.109375 48.1875 
Q 26.21875 48.1875 22.15625 43.53125 
Q 18.109375 38.875 18.109375 30.90625 
L 18.109375 0 
L 9.078125 0 
L 9.078125 54.6875 
L 18.109375 54.6875 
L 18.109375 46.1875 
Q 21.1875 51.21875 25.484375 53.609375 
Q 29.78125 56 35.6875 56 
Q 41.65625 56 45.828125 52.96875 
Q 50 49.953125 52 44.1875 
z
" id="DejaVuSans-109"/>
     <path d="M 45.40625 27.984375 
Q 45.40625 37.75 41.375 43.109375 
Q 37.359375 48.484375 30.078125 48.484375 
Q 22.859375 48.484375 18.828125 43.109375 
Q 14.796875 37.75 14.796875 27.984375 
Q 14.796875 18.265625 18.828125 12.890625 
Q 22.859375 7.515625 30.078125 7.515625 
Q 37.359375 7.515625 41.375 12.890625 
Q 45.40625 18.265625 45.40625 27.984375 
z
M 54.390625 6.78125 
Q 54.390625 -7.171875 48.1875 -13.984375 
Q 42 -20.796875 29.203125 -20.796875 
Q 24.46875 -20.796875 20.265625 -20.09375 
Q 16.0625 -19.390625 12.109375 -17.921875 
L 12.109375 -9.1875 
Q 16.0625 -11.328125 19.921875 -12.34375 
Q 23.78125 -13.375 27.78125 -13.375 
Q 36.625 -13.375 41.015625 -8.765625 
Q 45.40625 -4.15625 45.40625 5.171875 
L 45.40625 9.625 
Q 42.625 4.78125 38.28125 2.390625 
Q 33.9375 0 27.875 0 
Q 17.828125 0 11.671875 7.65625 
Q 5.515625 15.328125 5.515625 27.984375 
Q 5.515625 40.671875 11.671875 48.328125 
Q 17.828125 56 27.875 56 
Q 33.9375 56 38.28125 53.609375 
Q 42.625 51.21875 45.40625 46.390625 
L 45.40625 54.6875 
L 54.390625 54.6875 
z
" id="DejaVuSans-103"/>
    </defs>
    <g transform="translate(257.074688 41.042625)scale(0.12 -0.12)">
     <use xlink:href="#DejaVuSans-108"/>
     <use x="27.783203" xlink:href="#DejaVuSans-101"/>
     <use x="89.306641" xlink:href="#DejaVuSans-117"/>
     <use x="152.685547" xlink:href="#DejaVuSans-118"/>
     <use x="211.865234" xlink:href="#DejaVuSans-101"/>
     <use x="273.388672" xlink:href="#DejaVuSans-110"/>
     <use x="336.767578" xlink:href="#DejaVuSans-58"/>
     <use x="370.458984" xlink:href="#DejaVuSans-32"/>
     <use x="402.246094" xlink:href="#DejaVuSans-105"/>
     <use x="430.029297" xlink:href="#DejaVuSans-109"/>
     <use x="527.441406" xlink:href="#DejaVuSans-103"/>
     <use x="590.917969" xlink:href="#DejaVuSans-49"/>
     <use x="654.541016" xlink:href="#DejaVuSans-45"/>
     <use x="690.625" xlink:href="#DejaVuSans-105"/>
     <use x="718.408203" xlink:href="#DejaVuSans-109"/>
     <use x="815.820312" xlink:href="#DejaVuSans-103"/>
     <use x="879.296875" xlink:href="#DejaVuSans-52"/>
    </g>
    <!-- NearestNeighbours -->
    <defs>
     <path d="M 9.8125 72.90625 
L 23.09375 72.90625 
L 55.421875 11.921875 
L 55.421875 72.90625 
L 64.984375 72.90625 
L 64.984375 0 
L 51.703125 0 
L 19.390625 60.984375 
L 19.390625 0 
L 9.8125 0 
z
" id="DejaVuSans-78"/>
     <path d="M 34.28125 27.484375 
Q 23.390625 27.484375 19.1875 25 
Q 14.984375 22.515625 14.984375 16.5 
Q 14.984375 11.71875 18.140625 8.90625 
Q 21.296875 6.109375 26.703125 6.109375 
Q 34.1875 6.109375 38.703125 11.40625 
Q 43.21875 16.703125 43.21875 25.484375 
L 43.21875 27.484375 
z
M 52.203125 31.203125 
L 52.203125 0 
L 43.21875 0 
L 43.21875 8.296875 
Q 40.140625 3.328125 35.546875 0.953125 
Q 30.953125 -1.421875 24.3125 -1.421875 
Q 15.921875 -1.421875 10.953125 3.296875 
Q 6 8.015625 6 15.921875 
Q 6 25.140625 12.171875 29.828125 
Q 18.359375 34.515625 30.609375 34.515625 
L 43.21875 34.515625 
L 43.21875 35.40625 
Q 43.21875 41.609375 39.140625 45 
Q 35.0625 48.390625 27.6875 48.390625 
Q 23 48.390625 18.546875 47.265625 
Q 14.109375 46.140625 10.015625 43.890625 
L 10.015625 52.203125 
Q 14.9375 54.109375 19.578125 55.046875 
Q 24.21875 56 28.609375 56 
Q 40.484375 56 46.34375 49.84375 
Q 52.203125 43.703125 52.203125 31.203125 
z
" id="DejaVuSans-97"/>
     <path d="M 54.890625 33.015625 
L 54.890625 0 
L 45.90625 0 
L 45.90625 32.71875 
Q 45.90625 40.484375 42.875 44.328125 
Q 39.84375 48.1875 33.796875 48.1875 
Q 26.515625 48.1875 22.3125 43.546875 
Q 18.109375 38.921875 18.109375 30.90625 
L 18.109375 0 
L 9.078125 0 
L 9.078125 75.984375 
L 18.109375 75.984375 
L 18.109375 46.1875 
Q 21.34375 51.125 25.703125 53.5625 
Q 30.078125 56 35.796875 56 
Q 45.21875 56 50.046875 50.171875 
Q 54.890625 44.34375 54.890625 33.015625 
z
" id="DejaVuSans-104"/>
     <path d="M 48.6875 27.296875 
Q 48.6875 37.203125 44.609375 42.84375 
Q 40.53125 48.484375 33.40625 48.484375 
Q 26.265625 48.484375 22.1875 42.84375 
Q 18.109375 37.203125 18.109375 27.296875 
Q 18.109375 17.390625 22.1875 11.75 
Q 26.265625 6.109375 33.40625 6.109375 
Q 40.53125 6.109375 44.609375 11.75 
Q 48.6875 17.390625 48.6875 27.296875 
z
M 18.109375 46.390625 
Q 20.953125 51.265625 25.265625 53.625 
Q 29.59375 56 35.59375 56 
Q 45.5625 56 51.78125 48.09375 
Q 58.015625 40.1875 58.015625 27.296875 
Q 58.015625 14.40625 51.78125 6.484375 
Q 45.5625 -1.421875 35.59375 -1.421875 
Q 29.59375 -1.421875 25.265625 0.953125 
Q 20.953125 3.328125 18.109375 8.203125 
L 18.109375 0 
L 9.078125 0 
L 9.078125 75.984375 
L 18.109375 75.984375 
z
" id="DejaVuSans-98"/>
    </defs>
    <g transform="translate(255.957188 54.48)scale(0.12 -0.12)">
     <use xlink:href="#DejaVuSans-78"/>
     <use x="74.804688" xlink:href="#DejaVuSans-101"/>
     <use x="136.328125" xlink:href="#DejaVuSans-97"/>
     <use x="197.607422" xlink:href="#DejaVuSans-114"/>
     <use x="236.470703" xlink:href="#DejaVuSans-101"/>
     <use x="297.994141" xlink:href="#DejaVuSans-115"/>
     <use x="350.09375" xlink:href="#DejaVuSans-116"/>
     <use x="389.302734" xlink:href="#DejaVuSans-78"/>
     <use x="464.107422" xlink:href="#DejaVuSans-101"/>
     <use x="525.630859" xlink:href="#DejaVuSans-105"/>
     <use x="553.414062" xlink:href="#DejaVuSans-103"/>
     <use x="616.890625" xlink:href="#DejaVuSans-104"/>
     <use x="680.269531" xlink:href="#DejaVuSans-98"/>
     <use x="743.746094" xlink:href="#DejaVuSans-111"/>
     <use x="804.927734" xlink:href="#DejaVuSans-117"/>
     <use x="868.306641" xlink:href="#DejaVuSans-114"/>
     <use x="909.419922" xlink:href="#DejaVuSans-115"/>
    </g>
   </g>
   <g id="legend_1">
    <g id="patch_7">
     <path d="M 362.659375 112.514375 
L 543.8 112.514375 
Q 545.8 112.514375 545.8 110.514375 
L 545.8 67.48 
Q 545.8 65.48 543.8 65.48 
L 362.659375 65.48 
Q 360.659375 65.48 360.659375 67.48 
L 360.659375 110.514375 
Q 360.659375 112.514375 362.659375 112.514375 
z
" style="fill:#ffffff;opacity:0.8;stroke:#cccccc;stroke-linejoin:miter;"/>
    </g>
    <g id="line2d_48">
     <path d="M 364.659375 73.578438 
L 384.659375 73.578438 
" style="fill:none;stroke:#1f77b4;stroke-linecap:square;stroke-width:2;"/>
    </g>
    <g id="line2d_49"/>
    <g id="text_26">
     <!-- root-cvsift AP: 90.3, %In: 50.6 -->
     <defs>
      <path d="M 37.109375 75.984375 
L 37.109375 68.5 
L 28.515625 68.5 
Q 23.6875 68.5 21.796875 66.546875 
Q 19.921875 64.59375 19.921875 59.515625 
L 19.921875 54.6875 
L 34.71875 54.6875 
L 34.71875 47.703125 
L 19.921875 47.703125 
L 19.921875 0 
L 10.890625 0 
L 10.890625 47.703125 
L 2.296875 47.703125 
L 2.296875 54.6875 
L 10.890625 54.6875 
L 10.890625 58.5 
Q 10.890625 67.625 15.140625 71.796875 
Q 19.390625 75.984375 28.609375 75.984375 
z
" id="DejaVuSans-102"/>
      <path d="M 34.1875 63.1875 
L 20.796875 26.90625 
L 47.609375 26.90625 
z
M 28.609375 72.90625 
L 39.796875 72.90625 
L 67.578125 0 
L 57.328125 0 
L 50.6875 18.703125 
L 17.828125 18.703125 
L 11.1875 0 
L 0.78125 0 
z
" id="DejaVuSans-65"/>
      <path d="M 19.671875 64.796875 
L 19.671875 37.40625 
L 32.078125 37.40625 
Q 38.96875 37.40625 42.71875 40.96875 
Q 46.484375 44.53125 46.484375 51.125 
Q 46.484375 57.671875 42.71875 61.234375 
Q 38.96875 64.796875 32.078125 64.796875 
z
M 9.8125 72.90625 
L 32.078125 72.90625 
Q 44.34375 72.90625 50.609375 67.359375 
Q 56.890625 61.8125 56.890625 51.125 
Q 56.890625 40.328125 50.609375 34.8125 
Q 44.34375 29.296875 32.078125 29.296875 
L 19.671875 29.296875 
L 19.671875 0 
L 9.8125 0 
z
" id="DejaVuSans-80"/>
      <path d="M 11.71875 12.40625 
L 22.015625 12.40625 
L 22.015625 4 
L 14.015625 -11.625 
L 7.71875 -11.625 
L 11.71875 4 
z
" id="DejaVuSans-44"/>
      <path d="M 72.703125 32.078125 
Q 68.453125 32.078125 66.03125 28.46875 
Q 63.625 24.859375 63.625 18.40625 
Q 63.625 12.0625 66.03125 8.421875 
Q 68.453125 4.78125 72.703125 4.78125 
Q 76.859375 4.78125 79.265625 8.421875 
Q 81.6875 12.0625 81.6875 18.40625 
Q 81.6875 24.8125 79.265625 28.4375 
Q 76.859375 32.078125 72.703125 32.078125 
z
M 72.703125 38.28125 
Q 80.421875 38.28125 84.953125 32.90625 
Q 89.5 27.546875 89.5 18.40625 
Q 89.5 9.28125 84.9375 3.921875 
Q 80.375 -1.421875 72.703125 -1.421875 
Q 64.890625 -1.421875 60.34375 3.921875 
Q 55.8125 9.28125 55.8125 18.40625 
Q 55.8125 27.59375 60.375 32.9375 
Q 64.9375 38.28125 72.703125 38.28125 
z
M 22.3125 68.015625 
Q 18.109375 68.015625 15.6875 64.375 
Q 13.28125 60.75 13.28125 54.390625 
Q 13.28125 47.953125 15.671875 44.328125 
Q 18.0625 40.71875 22.3125 40.71875 
Q 26.5625 40.71875 28.96875 44.328125 
Q 31.390625 47.953125 31.390625 54.390625 
Q 31.390625 60.6875 28.953125 64.34375 
Q 26.515625 68.015625 22.3125 68.015625 
z
M 66.40625 74.21875 
L 74.21875 74.21875 
L 28.609375 -1.421875 
L 20.796875 -1.421875 
z
M 22.3125 74.21875 
Q 30.03125 74.21875 34.609375 68.875 
Q 39.203125 63.53125 39.203125 54.390625 
Q 39.203125 45.171875 34.640625 39.84375 
Q 30.078125 34.515625 22.3125 34.515625 
Q 14.546875 34.515625 10.03125 39.859375 
Q 5.515625 45.21875 5.515625 54.390625 
Q 5.515625 63.484375 10.046875 68.84375 
Q 14.59375 74.21875 22.3125 74.21875 
z
" id="DejaVuSans-37"/>
      <path d="M 9.8125 72.90625 
L 19.671875 72.90625 
L 19.671875 0 
L 9.8125 0 
z
" id="DejaVuSans-73"/>
     </defs>
     <g transform="translate(392.659375 77.078438)scale(0.1 -0.1)">
      <use xlink:href="#DejaVuSans-114"/>
      <use x="38.863281" xlink:href="#DejaVuSans-111"/>
      <use x="100.044922" xlink:href="#DejaVuSans-111"/>
      <use x="161.226562" xlink:href="#DejaVuSans-116"/>
      <use x="200.435547" xlink:href="#DejaVuSans-45"/>
      <use x="236.519531" xlink:href="#DejaVuSans-99"/>
      <use x="291.5" xlink:href="#DejaVuSans-118"/>
      <use x="350.679688" xlink:href="#DejaVuSans-115"/>
      <use x="402.779297" xlink:href="#DejaVuSans-105"/>
      <use x="430.5625" xlink:href="#DejaVuSans-102"/>
      <use x="464.017578" xlink:href="#DejaVuSans-116"/>
      <use x="503.226562" xlink:href="#DejaVuSans-32"/>
      <use x="535.013672" xlink:href="#DejaVuSans-65"/>
      <use x="603.421875" xlink:href="#DejaVuSans-80"/>
      <use x="663.724609" xlink:href="#DejaVuSans-58"/>
      <use x="697.416016" xlink:href="#DejaVuSans-32"/>
      <use x="729.203125" xlink:href="#DejaVuSans-57"/>
      <use x="792.826172" xlink:href="#DejaVuSans-48"/>
      <use x="856.449219" xlink:href="#DejaVuSans-46"/>
      <use x="888.236328" xlink:href="#DejaVuSans-51"/>
      <use x="951.859375" xlink:href="#DejaVuSans-44"/>
      <use x="983.646484" xlink:href="#DejaVuSans-32"/>
      <use x="1015.433594" xlink:href="#DejaVuSans-37"/>
      <use x="1110.453125" xlink:href="#DejaVuSans-73"/>
      <use x="1139.945312" xlink:href="#DejaVuSans-110"/>
      <use x="1203.324219" xlink:href="#DejaVuSans-58"/>
      <use x="1237.015625" xlink:href="#DejaVuSans-32"/>
      <use x="1268.802734" xlink:href="#DejaVuSans-53"/>
      <use x="1332.425781" xlink:href="#DejaVuSans-48"/>
      <use x="1396.048828" xlink:href="#DejaVuSans-46"/>
      <use x="1427.835938" xlink:href="#DejaVuSans-54"/>
     </g>
    </g>
    <g id="line2d_50">
     <path d="M 364.659375 88.256563 
L 384.659375 88.256563 
" style="fill:none;stroke:#ff7f0e;stroke-linecap:square;stroke-width:2;"/>
    </g>
    <g id="line2d_51"/>
    <g id="text_27">
     <!-- tfeat AP: 82.7, %In: 49.4 -->
     <g transform="translate(392.659375 91.756563)scale(0.1 -0.1)">
      <use xlink:href="#DejaVuSans-116"/>
      <use x="39.208984" xlink:href="#DejaVuSans-102"/>
      <use x="74.414062" xlink:href="#DejaVuSans-101"/>
      <use x="135.9375" xlink:href="#DejaVuSans-97"/>
      <use x="197.216797" xlink:href="#DejaVuSans-116"/>
      <use x="236.425781" xlink:href="#DejaVuSans-32"/>
      <use x="268.212891" xlink:href="#DejaVuSans-65"/>
      <use x="336.621094" xlink:href="#DejaVuSans-80"/>
      <use x="396.923828" xlink:href="#DejaVuSans-58"/>
      <use x="430.615234" xlink:href="#DejaVuSans-32"/>
      <use x="462.402344" xlink:href="#DejaVuSans-56"/>
      <use x="526.025391" xlink:href="#DejaVuSans-50"/>
      <use x="589.648438" xlink:href="#DejaVuSans-46"/>
      <use x="621.435547" xlink:href="#DejaVuSans-55"/>
      <use x="685.058594" xlink:href="#DejaVuSans-44"/>
      <use x="716.845703" xlink:href="#DejaVuSans-32"/>
      <use x="748.632812" xlink:href="#DejaVuSans-37"/>
      <use x="843.652344" xlink:href="#DejaVuSans-73"/>
      <use x="873.144531" xlink:href="#DejaVuSans-110"/>
      <use x="936.523438" xlink:href="#DejaVuSans-58"/>
      <use x="970.214844" xlink:href="#DejaVuSans-32"/>
      <use x="1002.001953" xlink:href="#DejaVuSans-52"/>
      <use x="1065.625" xlink:href="#DejaVuSans-57"/>
      <use x="1129.248047" xlink:href="#DejaVuSans-46"/>
      <use x="1161.035156" xlink:href="#DejaVuSans-52"/>
     </g>
    </g>
    <g id="line2d_52">
     <path d="M 364.659375 102.934687 
L 384.659375 102.934687 
" style="fill:none;stroke:#2ca02c;stroke-linecap:square;stroke-width:2;"/>
    </g>
    <g id="line2d_53"/>
    <g id="text_28">
     <!-- hardnet AP: 92.4, %In: 51.7 -->
     <defs>
      <path d="M 45.40625 46.390625 
L 45.40625 75.984375 
L 54.390625 75.984375 
L 54.390625 0 
L 45.40625 0 
L 45.40625 8.203125 
Q 42.578125 3.328125 38.25 0.953125 
Q 33.9375 -1.421875 27.875 -1.421875 
Q 17.96875 -1.421875 11.734375 6.484375 
Q 5.515625 14.40625 5.515625 27.296875 
Q 5.515625 40.1875 11.734375 48.09375 
Q 17.96875 56 27.875 56 
Q 33.9375 56 38.25 53.625 
Q 42.578125 51.265625 45.40625 46.390625 
z
M 14.796875 27.296875 
Q 14.796875 17.390625 18.875 11.75 
Q 22.953125 6.109375 30.078125 6.109375 
Q 37.203125 6.109375 41.296875 11.75 
Q 45.40625 17.390625 45.40625 27.296875 
Q 45.40625 37.203125 41.296875 42.84375 
Q 37.203125 48.484375 30.078125 48.484375 
Q 22.953125 48.484375 18.875 42.84375 
Q 14.796875 37.203125 14.796875 27.296875 
z
" id="DejaVuSans-100"/>
     </defs>
     <g transform="translate(392.659375 106.434687)scale(0.1 -0.1)">
      <use xlink:href="#DejaVuSans-104"/>
      <use x="63.378906" xlink:href="#DejaVuSans-97"/>
      <use x="124.658203" xlink:href="#DejaVuSans-114"/>
      <use x="164.021484" xlink:href="#DejaVuSans-100"/>
      <use x="227.498047" xlink:href="#DejaVuSans-110"/>
      <use x="290.876953" xlink:href="#DejaVuSans-101"/>
      <use x="352.400391" xlink:href="#DejaVuSans-116"/>
      <use x="391.609375" xlink:href="#DejaVuSans-32"/>
      <use x="423.396484" xlink:href="#DejaVuSans-65"/>
      <use x="491.804688" xlink:href="#DejaVuSans-80"/>
      <use x="552.107422" xlink:href="#DejaVuSans-58"/>
      <use x="585.798828" xlink:href="#DejaVuSans-32"/>
      <use x="617.585938" xlink:href="#DejaVuSans-57"/>
      <use x="681.208984" xlink:href="#DejaVuSans-50"/>
      <use x="744.832031" xlink:href="#DejaVuSans-46"/>
      <use x="776.619141" xlink:href="#DejaVuSans-52"/>
      <use x="840.242188" xlink:href="#DejaVuSans-44"/>
      <use x="872.029297" xlink:href="#DejaVuSans-32"/>
      <use x="903.816406" xlink:href="#DejaVuSans-37"/>
      <use x="998.835938" xlink:href="#DejaVuSans-73"/>
      <use x="1028.328125" xlink:href="#DejaVuSans-110"/>
      <use x="1091.707031" xlink:href="#DejaVuSans-58"/>
      <use x="1125.398438" xlink:href="#DejaVuSans-32"/>
      <use x="1157.185547" xlink:href="#DejaVuSans-53"/>
      <use x="1220.808594" xlink:href="#DejaVuSans-49"/>
      <use x="1284.431641" xlink:href="#DejaVuSans-46"/>
      <use x="1316.21875" xlink:href="#DejaVuSans-55"/>
     </g>
    </g>
   </g>
  </g>
 </g>
 <defs>
  <clipPath id="pfa59a78c60">
   <rect height="388.08" width="474.3" x="76.5" y="60.48"/>
  </clipPath>
 </defs>
</svg>
