<?xml version="1.0" encoding="utf-8" standalone="no"?>
<!DOCTYPE svg PUBLIC "-//W3C//DTD SVG 1.1//EN"
  "http://www.w3.org/Graphics/SVG/1.1/DTD/svg11.dtd">
<!-- Created with matplotlib (https://matplotlib.org/) -->
<svg height="504pt" version="1.1" viewBox="0 0 612 504" width="612pt" xmlns="http://www.w3.org/2000/svg" xmlns:xlink="http://www.w3.org/1999/xlink">
 <defs>
  <style type="text/css">
*{stroke-linecap:butt;stroke-linejoin:round;}
  </style>
 </defs>
 <g id="figure_1">
  <g id="patch_1">
   <path d="M 0 504 
L 612 504 
L 612 0 
L 0 0 
z
" style="fill:#ffffff;"/>
  </g>
  <g id="axes_1">
   <g id="patch_2">
    <path d="M 76.5 448.56 
L 550.8 448.56 
L 550.8 60.48 
L 76.5 60.48 
z
" style="fill:#ffffff;"/>
   </g>
   <g id="matplotlib.axis_1">
    <g id="xtick_1">
     <g id="line2d_1">
      <path clip-path="url(#p5c0f9c195a)" d="M 76.5 448.56 
L 76.5 60.48 
" style="fill:none;stroke:#b0b0b0;stroke-linecap:square;stroke-width:0.8;"/>
     </g>
     <g id="line2d_2">
      <defs>
       <path d="M 0 0 
L 0 3.5 
" id="m59a5af427c" style="stroke:#000000;stroke-width:0.8;"/>
      </defs>
      <g>
       <use style="stroke:#000000;stroke-width:0.8;" x="76.5" xlink:href="#m59a5af427c" y="448.56"/>
      </g>
     </g>
     <g id="text_1">
      <!-- 0.0 -->
      <defs>
       <path d="M 31.78125 66.40625 
Q 24.171875 66.40625 20.328125 58.90625 
Q 16.5 51.421875 16.5 36.375 
Q 16.5 21.390625 20.328125 13.890625 
Q 24.171875 6.390625 31.78125 6.390625 
Q 39.453125 6.390625 43.28125 13.890625 
Q 47.125 21.390625 47.125 36.375 
Q 47.125 51.421875 43.28125 58.90625 
Q 39.453125 66.40625 31.78125 66.40625 
z
M 31.78125 74.21875 
Q 44.046875 74.21875 50.515625 64.515625 
Q 56.984375 54.828125 56.984375 36.375 
Q 56.984375 17.96875 50.515625 8.265625 
Q 44.046875 -1.421875 31.78125 -1.421875 
Q 19.53125 -1.421875 13.0625 8.265625 
Q 6.59375 17.96875 6.59375 36.375 
Q 6.59375 54.828125 13.0625 64.515625 
Q 19.53125 74.21875 31.78125 74.21875 
z
" id="DejaVuSans-48"/>
       <path d="M 10.6875 12.40625 
L 21 12.40625 
L 21 0 
L 10.6875 0 
z
" id="DejaVuSans-46"/>
      </defs>
      <g transform="translate(68.548438 463.158437)scale(0.1 -0.1)">
       <use xlink:href="#DejaVuSans-48"/>
       <use x="63.623047" xlink:href="#DejaVuSans-46"/>
       <use x="95.410156" xlink:href="#DejaVuSans-48"/>
      </g>
     </g>
    </g>
    <g id="xtick_2">
     <g id="line2d_3">
      <path clip-path="url(#p5c0f9c195a)" d="M 123.93 448.56 
L 123.93 60.48 
" style="fill:none;stroke:#b0b0b0;stroke-linecap:square;stroke-width:0.8;"/>
     </g>
     <g id="line2d_4">
      <g>
       <use style="stroke:#000000;stroke-width:0.8;" x="123.93" xlink:href="#m59a5af427c" y="448.56"/>
      </g>
     </g>
     <g id="text_2">
      <!-- 0.1 -->
      <defs>
       <path d="M 12.40625 8.296875 
L 28.515625 8.296875 
L 28.515625 63.921875 
L 10.984375 60.40625 
L 10.984375 69.390625 
L 28.421875 72.90625 
L 38.28125 72.90625 
L 38.28125 8.296875 
L 54.390625 8.296875 
L 54.390625 0 
L 12.40625 0 
z
" id="DejaVuSans-49"/>
      </defs>
      <g transform="translate(115.978438 463.158437)scale(0.1 -0.1)">
       <use xlink:href="#DejaVuSans-48"/>
       <use x="63.623047" xlink:href="#DejaVuSans-46"/>
       <use x="95.410156" xlink:href="#DejaVuSans-49"/>
      </g>
     </g>
    </g>
    <g id="xtick_3">
     <g id="line2d_5">
      <path clip-path="url(#p5c0f9c195a)" d="M 171.36 448.56 
L 171.36 60.48 
" style="fill:none;stroke:#b0b0b0;stroke-linecap:square;stroke-width:0.8;"/>
     </g>
     <g id="line2d_6">
      <g>
       <use style="stroke:#000000;stroke-width:0.8;" x="171.36" xlink:href="#m59a5af427c" y="448.56"/>
      </g>
     </g>
     <g id="text_3">
      <!-- 0.2 -->
      <defs>
       <path d="M 19.1875 8.296875 
L 53.609375 8.296875 
L 53.609375 0 
L 7.328125 0 
L 7.328125 8.296875 
Q 12.9375 14.109375 22.625 23.890625 
Q 32.328125 33.6875 34.8125 36.53125 
Q 39.546875 41.84375 41.421875 45.53125 
Q 43.3125 49.21875 43.3125 52.78125 
Q 43.3125 58.59375 39.234375 62.25 
Q 35.15625 65.921875 28.609375 65.921875 
Q 23.96875 65.921875 18.8125 64.3125 
Q 13.671875 62.703125 7.8125 59.421875 
L 7.8125 69.390625 
Q 13.765625 71.78125 18.9375 73 
Q 24.125 74.21875 28.421875 74.21875 
Q 39.75 74.21875 46.484375 68.546875 
Q 53.21875 62.890625 53.21875 53.421875 
Q 53.21875 48.921875 51.53125 44.890625 
Q 49.859375 40.875 45.40625 35.40625 
Q 44.1875 33.984375 37.640625 27.21875 
Q 31.109375 20.453125 19.1875 8.296875 
z
" id="DejaVuSans-50"/>
      </defs>
      <g transform="translate(163.408438 463.158437)scale(0.1 -0.1)">
       <use xlink:href="#DejaVuSans-48"/>
       <use x="63.623047" xlink:href="#DejaVuSans-46"/>
       <use x="95.410156" xlink:href="#DejaVuSans-50"/>
      </g>
     </g>
    </g>
    <g id="xtick_4">
     <g id="line2d_7">
      <path clip-path="url(#p5c0f9c195a)" d="M 218.79 448.56 
L 218.79 60.48 
" style="fill:none;stroke:#b0b0b0;stroke-linecap:square;stroke-width:0.8;"/>
     </g>
     <g id="line2d_8">
      <g>
       <use style="stroke:#000000;stroke-width:0.8;" x="218.79" xlink:href="#m59a5af427c" y="448.56"/>
      </g>
     </g>
     <g id="text_4">
      <!-- 0.3 -->
      <defs>
       <path d="M 40.578125 39.3125 
Q 47.65625 37.796875 51.625 33 
Q 55.609375 28.21875 55.609375 21.1875 
Q 55.609375 10.40625 48.1875 4.484375 
Q 40.765625 -1.421875 27.09375 -1.421875 
Q 22.515625 -1.421875 17.65625 -0.515625 
Q 12.796875 0.390625 7.625 2.203125 
L 7.625 11.71875 
Q 11.71875 9.328125 16.59375 8.109375 
Q 21.484375 6.890625 26.8125 6.890625 
Q 36.078125 6.890625 40.9375 10.546875 
Q 45.796875 14.203125 45.796875 21.1875 
Q 45.796875 27.640625 41.28125 31.265625 
Q 36.765625 34.90625 28.71875 34.90625 
L 20.21875 34.90625 
L 20.21875 43.015625 
L 29.109375 43.015625 
Q 36.375 43.015625 40.234375 45.921875 
Q 44.09375 48.828125 44.09375 54.296875 
Q 44.09375 59.90625 40.109375 62.90625 
Q 36.140625 65.921875 28.71875 65.921875 
Q 24.65625 65.921875 20.015625 65.03125 
Q 15.375 64.15625 9.8125 62.3125 
L 9.8125 71.09375 
Q 15.4375 72.65625 20.34375 73.4375 
Q 25.25 74.21875 29.59375 74.21875 
Q 40.828125 74.21875 47.359375 69.109375 
Q 53.90625 64.015625 53.90625 55.328125 
Q 53.90625 49.265625 50.4375 45.09375 
Q 46.96875 40.921875 40.578125 39.3125 
z
" id="DejaVuSans-51"/>
      </defs>
      <g transform="translate(210.838438 463.158437)scale(0.1 -0.1)">
       <use xlink:href="#DejaVuSans-48"/>
       <use x="63.623047" xlink:href="#DejaVuSans-46"/>
       <use x="95.410156" xlink:href="#DejaVuSans-51"/>
      </g>
     </g>
    </g>
    <g id="xtick_5">
     <g id="line2d_9">
      <path clip-path="url(#p5c0f9c195a)" d="M 266.22 448.56 
L 266.22 60.48 
" style="fill:none;stroke:#b0b0b0;stroke-linecap:square;stroke-width:0.8;"/>
     </g>
     <g id="line2d_10">
      <g>
       <use style="stroke:#000000;stroke-width:0.8;" x="266.22" xlink:href="#m59a5af427c" y="448.56"/>
      </g>
     </g>
     <g id="text_5">
      <!-- 0.4 -->
      <defs>
       <path d="M 37.796875 64.3125 
L 12.890625 25.390625 
L 37.796875 25.390625 
z
M 35.203125 72.90625 
L 47.609375 72.90625 
L 47.609375 25.390625 
L 58.015625 25.390625 
L 58.015625 17.1875 
L 47.609375 17.1875 
L 47.609375 0 
L 37.796875 0 
L 37.796875 17.1875 
L 4.890625 17.1875 
L 4.890625 26.703125 
z
" id="DejaVuSans-52"/>
      </defs>
      <g transform="translate(258.268438 463.158437)scale(0.1 -0.1)">
       <use xlink:href="#DejaVuSans-48"/>
       <use x="63.623047" xlink:href="#DejaVuSans-46"/>
       <use x="95.410156" xlink:href="#DejaVuSans-52"/>
      </g>
     </g>
    </g>
    <g id="xtick_6">
     <g id="line2d_11">
      <path clip-path="url(#p5c0f9c195a)" d="M 313.65 448.56 
L 313.65 60.48 
" style="fill:none;stroke:#b0b0b0;stroke-linecap:square;stroke-width:0.8;"/>
     </g>
     <g id="line2d_12">
      <g>
       <use style="stroke:#000000;stroke-width:0.8;" x="313.65" xlink:href="#m59a5af427c" y="448.56"/>
      </g>
     </g>
     <g id="text_6">
      <!-- 0.5 -->
      <defs>
       <path d="M 10.796875 72.90625 
L 49.515625 72.90625 
L 49.515625 64.59375 
L 19.828125 64.59375 
L 19.828125 46.734375 
Q 21.96875 47.46875 24.109375 47.828125 
Q 26.265625 48.1875 28.421875 48.1875 
Q 40.625 48.1875 47.75 41.5 
Q 54.890625 34.8125 54.890625 23.390625 
Q 54.890625 11.625 47.5625 5.09375 
Q 40.234375 -1.421875 26.90625 -1.421875 
Q 22.3125 -1.421875 17.546875 -0.640625 
Q 12.796875 0.140625 7.71875 1.703125 
L 7.71875 11.625 
Q 12.109375 9.234375 16.796875 8.0625 
Q 21.484375 6.890625 26.703125 6.890625 
Q 35.15625 6.890625 40.078125 11.328125 
Q 45.015625 15.765625 45.015625 23.390625 
Q 45.015625 31 40.078125 35.4375 
Q 35.15625 39.890625 26.703125 39.890625 
Q 22.75 39.890625 18.8125 39.015625 
Q 14.890625 38.140625 10.796875 36.28125 
z
" id="DejaVuSans-53"/>
      </defs>
      <g transform="translate(305.698438 463.158437)scale(0.1 -0.1)">
       <use xlink:href="#DejaVuSans-48"/>
       <use x="63.623047" xlink:href="#DejaVuSans-46"/>
       <use x="95.410156" xlink:href="#DejaVuSans-53"/>
      </g>
     </g>
    </g>
    <g id="xtick_7">
     <g id="line2d_13">
      <path clip-path="url(#p5c0f9c195a)" d="M 361.08 448.56 
L 361.08 60.48 
" style="fill:none;stroke:#b0b0b0;stroke-linecap:square;stroke-width:0.8;"/>
     </g>
     <g id="line2d_14">
      <g>
       <use style="stroke:#000000;stroke-width:0.8;" x="361.08" xlink:href="#m59a5af427c" y="448.56"/>
      </g>
     </g>
     <g id="text_7">
      <!-- 0.6 -->
      <defs>
       <path d="M 33.015625 40.375 
Q 26.375 40.375 22.484375 35.828125 
Q 18.609375 31.296875 18.609375 23.390625 
Q 18.609375 15.53125 22.484375 10.953125 
Q 26.375 6.390625 33.015625 6.390625 
Q 39.65625 6.390625 43.53125 10.953125 
Q 47.40625 15.53125 47.40625 23.390625 
Q 47.40625 31.296875 43.53125 35.828125 
Q 39.65625 40.375 33.015625 40.375 
z
M 52.59375 71.296875 
L 52.59375 62.3125 
Q 48.875 64.0625 45.09375 64.984375 
Q 41.3125 65.921875 37.59375 65.921875 
Q 27.828125 65.921875 22.671875 59.328125 
Q 17.53125 52.734375 16.796875 39.40625 
Q 19.671875 43.65625 24.015625 45.921875 
Q 28.375 48.1875 33.59375 48.1875 
Q 44.578125 48.1875 50.953125 41.515625 
Q 57.328125 34.859375 57.328125 23.390625 
Q 57.328125 12.15625 50.6875 5.359375 
Q 44.046875 -1.421875 33.015625 -1.421875 
Q 20.359375 -1.421875 13.671875 8.265625 
Q 6.984375 17.96875 6.984375 36.375 
Q 6.984375 53.65625 15.1875 63.9375 
Q 23.390625 74.21875 37.203125 74.21875 
Q 40.921875 74.21875 44.703125 73.484375 
Q 48.484375 72.75 52.59375 71.296875 
z
" id="DejaVuSans-54"/>
      </defs>
      <g transform="translate(353.128438 463.158437)scale(0.1 -0.1)">
       <use xlink:href="#DejaVuSans-48"/>
       <use x="63.623047" xlink:href="#DejaVuSans-46"/>
       <use x="95.410156" xlink:href="#DejaVuSans-54"/>
      </g>
     </g>
    </g>
    <g id="xtick_8">
     <g id="line2d_15">
      <path clip-path="url(#p5c0f9c195a)" d="M 408.51 448.56 
L 408.51 60.48 
" style="fill:none;stroke:#b0b0b0;stroke-linecap:square;stroke-width:0.8;"/>
     </g>
     <g id="line2d_16">
      <g>
       <use style="stroke:#000000;stroke-width:0.8;" x="408.51" xlink:href="#m59a5af427c" y="448.56"/>
      </g>
     </g>
     <g id="text_8">
      <!-- 0.7 -->
      <defs>
       <path d="M 8.203125 72.90625 
L 55.078125 72.90625 
L 55.078125 68.703125 
L 28.609375 0 
L 18.3125 0 
L 43.21875 64.59375 
L 8.203125 64.59375 
z
" id="DejaVuSans-55"/>
      </defs>
      <g transform="translate(400.558438 463.158437)scale(0.1 -0.1)">
       <use xlink:href="#DejaVuSans-48"/>
       <use x="63.623047" xlink:href="#DejaVuSans-46"/>
       <use x="95.410156" xlink:href="#DejaVuSans-55"/>
      </g>
     </g>
    </g>
    <g id="xtick_9">
     <g id="line2d_17">
      <path clip-path="url(#p5c0f9c195a)" d="M 455.94 448.56 
L 455.94 60.48 
" style="fill:none;stroke:#b0b0b0;stroke-linecap:square;stroke-width:0.8;"/>
     </g>
     <g id="line2d_18">
      <g>
       <use style="stroke:#000000;stroke-width:0.8;" x="455.94" xlink:href="#m59a5af427c" y="448.56"/>
      </g>
     </g>
     <g id="text_9">
      <!-- 0.8 -->
      <defs>
       <path d="M 31.78125 34.625 
Q 24.75 34.625 20.71875 30.859375 
Q 16.703125 27.09375 16.703125 20.515625 
Q 16.703125 13.921875 20.71875 10.15625 
Q 24.75 6.390625 31.78125 6.390625 
Q 38.8125 6.390625 42.859375 10.171875 
Q 46.921875 13.96875 46.921875 20.515625 
Q 46.921875 27.09375 42.890625 30.859375 
Q 38.875 34.625 31.78125 34.625 
z
M 21.921875 38.8125 
Q 15.578125 40.375 12.03125 44.71875 
Q 8.5 49.078125 8.5 55.328125 
Q 8.5 64.0625 14.71875 69.140625 
Q 20.953125 74.21875 31.78125 74.21875 
Q 42.671875 74.21875 48.875 69.140625 
Q 55.078125 64.0625 55.078125 55.328125 
Q 55.078125 49.078125 51.53125 44.71875 
Q 48 40.375 41.703125 38.8125 
Q 48.828125 37.15625 52.796875 32.3125 
Q 56.78125 27.484375 56.78125 20.515625 
Q 56.78125 9.90625 50.3125 4.234375 
Q 43.84375 -1.421875 31.78125 -1.421875 
Q 19.734375 -1.421875 13.25 4.234375 
Q 6.78125 9.90625 6.78125 20.515625 
Q 6.78125 27.484375 10.78125 32.3125 
Q 14.796875 37.15625 21.921875 38.8125 
z
M 18.3125 54.390625 
Q 18.3125 48.734375 21.84375 45.5625 
Q 25.390625 42.390625 31.78125 42.390625 
Q 38.140625 42.390625 41.71875 45.5625 
Q 45.3125 48.734375 45.3125 54.390625 
Q 45.3125 60.0625 41.71875 63.234375 
Q 38.140625 66.40625 31.78125 66.40625 
Q 25.390625 66.40625 21.84375 63.234375 
Q 18.3125 60.0625 18.3125 54.390625 
z
" id="DejaVuSans-56"/>
      </defs>
      <g transform="translate(447.988438 463.158437)scale(0.1 -0.1)">
       <use xlink:href="#DejaVuSans-48"/>
       <use x="63.623047" xlink:href="#DejaVuSans-46"/>
       <use x="95.410156" xlink:href="#DejaVuSans-56"/>
      </g>
     </g>
    </g>
    <g id="xtick_10">
     <g id="line2d_19">
      <path clip-path="url(#p5c0f9c195a)" d="M 503.37 448.56 
L 503.37 60.48 
" style="fill:none;stroke:#b0b0b0;stroke-linecap:square;stroke-width:0.8;"/>
     </g>
     <g id="line2d_20">
      <g>
       <use style="stroke:#000000;stroke-width:0.8;" x="503.37" xlink:href="#m59a5af427c" y="448.56"/>
      </g>
     </g>
     <g id="text_10">
      <!-- 0.9 -->
      <defs>
       <path d="M 10.984375 1.515625 
L 10.984375 10.5 
Q 14.703125 8.734375 18.5 7.8125 
Q 22.3125 6.890625 25.984375 6.890625 
Q 35.75 6.890625 40.890625 13.453125 
Q 46.046875 20.015625 46.78125 33.40625 
Q 43.953125 29.203125 39.59375 26.953125 
Q 35.25 24.703125 29.984375 24.703125 
Q 19.046875 24.703125 12.671875 31.3125 
Q 6.296875 37.9375 6.296875 49.421875 
Q 6.296875 60.640625 12.9375 67.421875 
Q 19.578125 74.21875 30.609375 74.21875 
Q 43.265625 74.21875 49.921875 64.515625 
Q 56.59375 54.828125 56.59375 36.375 
Q 56.59375 19.140625 48.40625 8.859375 
Q 40.234375 -1.421875 26.421875 -1.421875 
Q 22.703125 -1.421875 18.890625 -0.6875 
Q 15.09375 0.046875 10.984375 1.515625 
z
M 30.609375 32.421875 
Q 37.25 32.421875 41.125 36.953125 
Q 45.015625 41.5 45.015625 49.421875 
Q 45.015625 57.28125 41.125 61.84375 
Q 37.25 66.40625 30.609375 66.40625 
Q 23.96875 66.40625 20.09375 61.84375 
Q 16.21875 57.28125 16.21875 49.421875 
Q 16.21875 41.5 20.09375 36.953125 
Q 23.96875 32.421875 30.609375 32.421875 
z
" id="DejaVuSans-57"/>
      </defs>
      <g transform="translate(495.418438 463.158437)scale(0.1 -0.1)">
       <use xlink:href="#DejaVuSans-48"/>
       <use x="63.623047" xlink:href="#DejaVuSans-46"/>
       <use x="95.410156" xlink:href="#DejaVuSans-57"/>
      </g>
     </g>
    </g>
    <g id="xtick_11">
     <g id="line2d_21">
      <path clip-path="url(#p5c0f9c195a)" d="M 550.8 448.56 
L 550.8 60.48 
" style="fill:none;stroke:#b0b0b0;stroke-linecap:square;stroke-width:0.8;"/>
     </g>
     <g id="line2d_22">
      <g>
       <use style="stroke:#000000;stroke-width:0.8;" x="550.8" xlink:href="#m59a5af427c" y="448.56"/>
      </g>
     </g>
     <g id="text_11">
      <!-- 1.0 -->
      <g transform="translate(542.848438 463.158437)scale(0.1 -0.1)">
       <use xlink:href="#DejaVuSans-49"/>
       <use x="63.623047" xlink:href="#DejaVuSans-46"/>
       <use x="95.410156" xlink:href="#DejaVuSans-48"/>
      </g>
     </g>
    </g>
    <g id="text_12">
     <!-- 1-precision -->
     <defs>
      <path d="M 4.890625 31.390625 
L 31.203125 31.390625 
L 31.203125 23.390625 
L 4.890625 23.390625 
z
" id="DejaVuSans-45"/>
      <path d="M 18.109375 8.203125 
L 18.109375 -20.796875 
L 9.078125 -20.796875 
L 9.078125 54.6875 
L 18.109375 54.6875 
L 18.109375 46.390625 
Q 20.953125 51.265625 25.265625 53.625 
Q 29.59375 56 35.59375 56 
Q 45.5625 56 51.78125 48.09375 
Q 58.015625 40.1875 58.015625 27.296875 
Q 58.015625 14.40625 51.78125 6.484375 
Q 45.5625 -1.421875 35.59375 -1.421875 
Q 29.59375 -1.421875 25.265625 0.953125 
Q 20.953125 3.328125 18.109375 8.203125 
z
M 48.6875 27.296875 
Q 48.6875 37.203125 44.609375 42.84375 
Q 40.53125 48.484375 33.40625 48.484375 
Q 26.265625 48.484375 22.1875 42.84375 
Q 18.109375 37.203125 18.109375 27.296875 
Q 18.109375 17.390625 22.1875 11.75 
Q 26.265625 6.109375 33.40625 6.109375 
Q 40.53125 6.109375 44.609375 11.75 
Q 48.6875 17.390625 48.6875 27.296875 
z
" id="DejaVuSans-112"/>
      <path d="M 41.109375 46.296875 
Q 39.59375 47.171875 37.8125 47.578125 
Q 36.03125 48 33.890625 48 
Q 26.265625 48 22.1875 43.046875 
Q 18.109375 38.09375 18.109375 28.8125 
L 18.109375 0 
L 9.078125 0 
L 9.078125 54.6875 
L 18.109375 54.6875 
L 18.109375 46.1875 
Q 20.953125 51.171875 25.484375 53.578125 
Q 30.03125 56 36.53125 56 
Q 37.453125 56 38.578125 55.875 
Q 39.703125 55.765625 41.0625 55.515625 
z
" id="DejaVuSans-114"/>
      <path d="M 56.203125 29.59375 
L 56.203125 25.203125 
L 14.890625 25.203125 
Q 15.484375 15.921875 20.484375 11.0625 
Q 25.484375 6.203125 34.421875 6.203125 
Q 39.59375 6.203125 44.453125 7.46875 
Q 49.3125 8.734375 54.109375 11.28125 
L 54.109375 2.78125 
Q 49.265625 0.734375 44.1875 -0.34375 
Q 39.109375 -1.421875 33.890625 -1.421875 
Q 20.796875 -1.421875 13.15625 6.1875 
Q 5.515625 13.8125 5.515625 26.8125 
Q 5.515625 40.234375 12.765625 48.109375 
Q 20.015625 56 32.328125 56 
Q 43.359375 56 49.78125 48.890625 
Q 56.203125 41.796875 56.203125 29.59375 
z
M 47.21875 32.234375 
Q 47.125 39.59375 43.09375 43.984375 
Q 39.0625 48.390625 32.421875 48.390625 
Q 24.90625 48.390625 20.390625 44.140625 
Q 15.875 39.890625 15.1875 32.171875 
z
" id="DejaVuSans-101"/>
      <path d="M 48.78125 52.59375 
L 48.78125 44.1875 
Q 44.96875 46.296875 41.140625 47.34375 
Q 37.3125 48.390625 33.40625 48.390625 
Q 24.65625 48.390625 19.8125 42.84375 
Q 14.984375 37.3125 14.984375 27.296875 
Q 14.984375 17.28125 19.8125 11.734375 
Q 24.65625 6.203125 33.40625 6.203125 
Q 37.3125 6.203125 41.140625 7.25 
Q 44.96875 8.296875 48.78125 10.40625 
L 48.78125 2.09375 
Q 45.015625 0.34375 40.984375 -0.53125 
Q 36.96875 -1.421875 32.421875 -1.421875 
Q 20.0625 -1.421875 12.78125 6.34375 
Q 5.515625 14.109375 5.515625 27.296875 
Q 5.515625 40.671875 12.859375 48.328125 
Q 20.21875 56 33.015625 56 
Q 37.15625 56 41.109375 55.140625 
Q 45.0625 54.296875 48.78125 52.59375 
z
" id="DejaVuSans-99"/>
      <path d="M 9.421875 54.6875 
L 18.40625 54.6875 
L 18.40625 0 
L 9.421875 0 
z
M 9.421875 75.984375 
L 18.40625 75.984375 
L 18.40625 64.59375 
L 9.421875 64.59375 
z
" id="DejaVuSans-105"/>
      <path d="M 44.28125 53.078125 
L 44.28125 44.578125 
Q 40.484375 46.53125 36.375 47.5 
Q 32.28125 48.484375 27.875 48.484375 
Q 21.1875 48.484375 17.84375 46.4375 
Q 14.5 44.390625 14.5 40.28125 
Q 14.5 37.15625 16.890625 35.375 
Q 19.28125 33.59375 26.515625 31.984375 
L 29.59375 31.296875 
Q 39.15625 29.25 43.1875 25.515625 
Q 47.21875 21.78125 47.21875 15.09375 
Q 47.21875 7.46875 41.1875 3.015625 
Q 35.15625 -1.421875 24.609375 -1.421875 
Q 20.21875 -1.421875 15.453125 -0.5625 
Q 10.6875 0.296875 5.421875 2 
L 5.421875 11.28125 
Q 10.40625 8.6875 15.234375 7.390625 
Q 20.0625 6.109375 24.8125 6.109375 
Q 31.15625 6.109375 34.5625 8.28125 
Q 37.984375 10.453125 37.984375 14.40625 
Q 37.984375 18.0625 35.515625 20.015625 
Q 33.0625 21.96875 24.703125 23.78125 
L 21.578125 24.515625 
Q 13.234375 26.265625 9.515625 29.90625 
Q 5.8125 33.546875 5.8125 39.890625 
Q 5.8125 47.609375 11.28125 51.796875 
Q 16.75 56 26.8125 56 
Q 31.78125 56 36.171875 55.265625 
Q 40.578125 54.546875 44.28125 53.078125 
z
" id="DejaVuSans-115"/>
      <path d="M 30.609375 48.390625 
Q 23.390625 48.390625 19.1875 42.75 
Q 14.984375 37.109375 14.984375 27.296875 
Q 14.984375 17.484375 19.15625 11.84375 
Q 23.34375 6.203125 30.609375 6.203125 
Q 37.796875 6.203125 41.984375 11.859375 
Q 46.1875 17.53125 46.1875 27.296875 
Q 46.1875 37.015625 41.984375 42.703125 
Q 37.796875 48.390625 30.609375 48.390625 
z
M 30.609375 56 
Q 42.328125 56 49.015625 48.375 
Q 55.71875 40.765625 55.71875 27.296875 
Q 55.71875 13.875 49.015625 6.21875 
Q 42.328125 -1.421875 30.609375 -1.421875 
Q 18.84375 -1.421875 12.171875 6.21875 
Q 5.515625 13.875 5.515625 27.296875 
Q 5.515625 40.765625 12.171875 48.375 
Q 18.84375 56 30.609375 56 
z
" id="DejaVuSans-111"/>
      <path d="M 54.890625 33.015625 
L 54.890625 0 
L 45.90625 0 
L 45.90625 32.71875 
Q 45.90625 40.484375 42.875 44.328125 
Q 39.84375 48.1875 33.796875 48.1875 
Q 26.515625 48.1875 22.3125 43.546875 
Q 18.109375 38.921875 18.109375 30.90625 
L 18.109375 0 
L 9.078125 0 
L 9.078125 54.6875 
L 18.109375 54.6875 
L 18.109375 46.1875 
Q 21.34375 51.125 25.703125 53.5625 
Q 30.078125 56 35.796875 56 
Q 45.21875 56 50.046875 50.171875 
Q 54.890625 44.34375 54.890625 33.015625 
z
" id="DejaVuSans-110"/>
     </defs>
     <g transform="translate(286.110938 476.836563)scale(0.1 -0.1)">
      <use xlink:href="#DejaVuSans-49"/>
      <use x="63.623047" xlink:href="#DejaVuSans-45"/>
      <use x="99.707031" xlink:href="#DejaVuSans-112"/>
      <use x="163.183594" xlink:href="#DejaVuSans-114"/>
      <use x="202.046875" xlink:href="#DejaVuSans-101"/>
      <use x="263.570312" xlink:href="#DejaVuSans-99"/>
      <use x="318.550781" xlink:href="#DejaVuSans-105"/>
      <use x="346.333984" xlink:href="#DejaVuSans-115"/>
      <use x="398.433594" xlink:href="#DejaVuSans-105"/>
      <use x="426.216797" xlink:href="#DejaVuSans-111"/>
      <use x="487.398438" xlink:href="#DejaVuSans-110"/>
     </g>
    </g>
   </g>
   <g id="matplotlib.axis_2">
    <g id="ytick_1">
     <g id="line2d_23">
      <path clip-path="url(#p5c0f9c195a)" d="M 76.5 448.56 
L 550.8 448.56 
" style="fill:none;stroke:#b0b0b0;stroke-linecap:square;stroke-width:0.8;"/>
     </g>
     <g id="line2d_24">
      <defs>
       <path d="M 0 0 
L -3.5 0 
" id="m7424bc9af0" style="stroke:#000000;stroke-width:0.8;"/>
      </defs>
      <g>
       <use style="stroke:#000000;stroke-width:0.8;" x="76.5" xlink:href="#m7424bc9af0" y="448.56"/>
      </g>
     </g>
     <g id="text_13">
      <!-- 0.0 -->
      <g transform="translate(53.596875 452.359219)scale(0.1 -0.1)">
       <use xlink:href="#DejaVuSans-48"/>
       <use x="63.623047" xlink:href="#DejaVuSans-46"/>
       <use x="95.410156" xlink:href="#DejaVuSans-48"/>
      </g>
     </g>
    </g>
    <g id="ytick_2">
     <g id="line2d_25">
      <path clip-path="url(#p5c0f9c195a)" d="M 76.5 409.752 
L 550.8 409.752 
" style="fill:none;stroke:#b0b0b0;stroke-linecap:square;stroke-width:0.8;"/>
     </g>
     <g id="line2d_26">
      <g>
       <use style="stroke:#000000;stroke-width:0.8;" x="76.5" xlink:href="#m7424bc9af0" y="409.752"/>
      </g>
     </g>
     <g id="text_14">
      <!-- 0.1 -->
      <g transform="translate(53.596875 413.551219)scale(0.1 -0.1)">
       <use xlink:href="#DejaVuSans-48"/>
       <use x="63.623047" xlink:href="#DejaVuSans-46"/>
       <use x="95.410156" xlink:href="#DejaVuSans-49"/>
      </g>
     </g>
    </g>
    <g id="ytick_3">
     <g id="line2d_27">
      <path clip-path="url(#p5c0f9c195a)" d="M 76.5 370.944 
L 550.8 370.944 
" style="fill:none;stroke:#b0b0b0;stroke-linecap:square;stroke-width:0.8;"/>
     </g>
     <g id="line2d_28">
      <g>
       <use style="stroke:#000000;stroke-width:0.8;" x="76.5" xlink:href="#m7424bc9af0" y="370.944"/>
      </g>
     </g>
     <g id="text_15">
      <!-- 0.2 -->
      <g transform="translate(53.596875 374.743219)scale(0.1 -0.1)">
       <use xlink:href="#DejaVuSans-48"/>
       <use x="63.623047" xlink:href="#DejaVuSans-46"/>
       <use x="95.410156" xlink:href="#DejaVuSans-50"/>
      </g>
     </g>
    </g>
    <g id="ytick_4">
     <g id="line2d_29">
      <path clip-path="url(#p5c0f9c195a)" d="M 76.5 332.136 
L 550.8 332.136 
" style="fill:none;stroke:#b0b0b0;stroke-linecap:square;stroke-width:0.8;"/>
     </g>
     <g id="line2d_30">
      <g>
       <use style="stroke:#000000;stroke-width:0.8;" x="76.5" xlink:href="#m7424bc9af0" y="332.136"/>
      </g>
     </g>
     <g id="text_16">
      <!-- 0.3 -->
      <g transform="translate(53.596875 335.935219)scale(0.1 -0.1)">
       <use xlink:href="#DejaVuSans-48"/>
       <use x="63.623047" xlink:href="#DejaVuSans-46"/>
       <use x="95.410156" xlink:href="#DejaVuSans-51"/>
      </g>
     </g>
    </g>
    <g id="ytick_5">
     <g id="line2d_31">
      <path clip-path="url(#p5c0f9c195a)" d="M 76.5 293.328 
L 550.8 293.328 
" style="fill:none;stroke:#b0b0b0;stroke-linecap:square;stroke-width:0.8;"/>
     </g>
     <g id="line2d_32">
      <g>
       <use style="stroke:#000000;stroke-width:0.8;" x="76.5" xlink:href="#m7424bc9af0" y="293.328"/>
      </g>
     </g>
     <g id="text_17">
      <!-- 0.4 -->
      <g transform="translate(53.596875 297.127219)scale(0.1 -0.1)">
       <use xlink:href="#DejaVuSans-48"/>
       <use x="63.623047" xlink:href="#DejaVuSans-46"/>
       <use x="95.410156" xlink:href="#DejaVuSans-52"/>
      </g>
     </g>
    </g>
    <g id="ytick_6">
     <g id="line2d_33">
      <path clip-path="url(#p5c0f9c195a)" d="M 76.5 254.52 
L 550.8 254.52 
" style="fill:none;stroke:#b0b0b0;stroke-linecap:square;stroke-width:0.8;"/>
     </g>
     <g id="line2d_34">
      <g>
       <use style="stroke:#000000;stroke-width:0.8;" x="76.5" xlink:href="#m7424bc9af0" y="254.52"/>
      </g>
     </g>
     <g id="text_18">
      <!-- 0.5 -->
      <g transform="translate(53.596875 258.319219)scale(0.1 -0.1)">
       <use xlink:href="#DejaVuSans-48"/>
       <use x="63.623047" xlink:href="#DejaVuSans-46"/>
       <use x="95.410156" xlink:href="#DejaVuSans-53"/>
      </g>
     </g>
    </g>
    <g id="ytick_7">
     <g id="line2d_35">
      <path clip-path="url(#p5c0f9c195a)" d="M 76.5 215.712 
L 550.8 215.712 
" style="fill:none;stroke:#b0b0b0;stroke-linecap:square;stroke-width:0.8;"/>
     </g>
     <g id="line2d_36">
      <g>
       <use style="stroke:#000000;stroke-width:0.8;" x="76.5" xlink:href="#m7424bc9af0" y="215.712"/>
      </g>
     </g>
     <g id="text_19">
      <!-- 0.6 -->
      <g transform="translate(53.596875 219.511219)scale(0.1 -0.1)">
       <use xlink:href="#DejaVuSans-48"/>
       <use x="63.623047" xlink:href="#DejaVuSans-46"/>
       <use x="95.410156" xlink:href="#DejaVuSans-54"/>
      </g>
     </g>
    </g>
    <g id="ytick_8">
     <g id="line2d_37">
      <path clip-path="url(#p5c0f9c195a)" d="M 76.5 176.904 
L 550.8 176.904 
" style="fill:none;stroke:#b0b0b0;stroke-linecap:square;stroke-width:0.8;"/>
     </g>
     <g id="line2d_38">
      <g>
       <use style="stroke:#000000;stroke-width:0.8;" x="76.5" xlink:href="#m7424bc9af0" y="176.904"/>
      </g>
     </g>
     <g id="text_20">
      <!-- 0.7 -->
      <g transform="translate(53.596875 180.703219)scale(0.1 -0.1)">
       <use xlink:href="#DejaVuSans-48"/>
       <use x="63.623047" xlink:href="#DejaVuSans-46"/>
       <use x="95.410156" xlink:href="#DejaVuSans-55"/>
      </g>
     </g>
    </g>
    <g id="ytick_9">
     <g id="line2d_39">
      <path clip-path="url(#p5c0f9c195a)" d="M 76.5 138.096 
L 550.8 138.096 
" style="fill:none;stroke:#b0b0b0;stroke-linecap:square;stroke-width:0.8;"/>
     </g>
     <g id="line2d_40">
      <g>
       <use style="stroke:#000000;stroke-width:0.8;" x="76.5" xlink:href="#m7424bc9af0" y="138.096"/>
      </g>
     </g>
     <g id="text_21">
      <!-- 0.8 -->
      <g transform="translate(53.596875 141.895219)scale(0.1 -0.1)">
       <use xlink:href="#DejaVuSans-48"/>
       <use x="63.623047" xlink:href="#DejaVuSans-46"/>
       <use x="95.410156" xlink:href="#DejaVuSans-56"/>
      </g>
     </g>
    </g>
    <g id="ytick_10">
     <g id="line2d_41">
      <path clip-path="url(#p5c0f9c195a)" d="M 76.5 99.288 
L 550.8 99.288 
" style="fill:none;stroke:#b0b0b0;stroke-linecap:square;stroke-width:0.8;"/>
     </g>
     <g id="line2d_42">
      <g>
       <use style="stroke:#000000;stroke-width:0.8;" x="76.5" xlink:href="#m7424bc9af0" y="99.288"/>
      </g>
     </g>
     <g id="text_22">
      <!-- 0.9 -->
      <g transform="translate(53.596875 103.087219)scale(0.1 -0.1)">
       <use xlink:href="#DejaVuSans-48"/>
       <use x="63.623047" xlink:href="#DejaVuSans-46"/>
       <use x="95.410156" xlink:href="#DejaVuSans-57"/>
      </g>
     </g>
    </g>
    <g id="ytick_11">
     <g id="line2d_43">
      <path clip-path="url(#p5c0f9c195a)" d="M 76.5 60.48 
L 550.8 60.48 
" style="fill:none;stroke:#b0b0b0;stroke-linecap:square;stroke-width:0.8;"/>
     </g>
     <g id="line2d_44">
      <g>
       <use style="stroke:#000000;stroke-width:0.8;" x="76.5" xlink:href="#m7424bc9af0" y="60.48"/>
      </g>
     </g>
     <g id="text_23">
      <!-- 1.0 -->
      <g transform="translate(53.596875 64.279219)scale(0.1 -0.1)">
       <use xlink:href="#DejaVuSans-49"/>
       <use x="63.623047" xlink:href="#DejaVuSans-46"/>
       <use x="95.410156" xlink:href="#DejaVuSans-48"/>
      </g>
     </g>
    </g>
    <g id="text_24">
     <!-- #correct/516 -->
     <defs>
      <path d="M 51.125 44 
L 36.921875 44 
L 32.8125 27.6875 
L 47.125 27.6875 
z
M 43.796875 71.78125 
L 38.71875 51.515625 
L 52.984375 51.515625 
L 58.109375 71.78125 
L 65.921875 71.78125 
L 60.890625 51.515625 
L 76.125 51.515625 
L 76.125 44 
L 58.984375 44 
L 54.984375 27.6875 
L 70.515625 27.6875 
L 70.515625 20.21875 
L 53.078125 20.21875 
L 48 0 
L 40.1875 0 
L 45.21875 20.21875 
L 30.90625 20.21875 
L 25.875 0 
L 18.015625 0 
L 23.09375 20.21875 
L 7.71875 20.21875 
L 7.71875 27.6875 
L 24.90625 27.6875 
L 29 44 
L 13.28125 44 
L 13.28125 51.515625 
L 30.90625 51.515625 
L 35.890625 71.78125 
z
" id="DejaVuSans-35"/>
      <path d="M 18.3125 70.21875 
L 18.3125 54.6875 
L 36.8125 54.6875 
L 36.8125 47.703125 
L 18.3125 47.703125 
L 18.3125 18.015625 
Q 18.3125 11.328125 20.140625 9.421875 
Q 21.96875 7.515625 27.59375 7.515625 
L 36.8125 7.515625 
L 36.8125 0 
L 27.59375 0 
Q 17.1875 0 13.234375 3.875 
Q 9.28125 7.765625 9.28125 18.015625 
L 9.28125 47.703125 
L 2.6875 47.703125 
L 2.6875 54.6875 
L 9.28125 54.6875 
L 9.28125 70.21875 
z
" id="DejaVuSans-116"/>
      <path d="M 25.390625 72.90625 
L 33.6875 72.90625 
L 8.296875 -9.28125 
L 0 -9.28125 
z
" id="DejaVuSans-47"/>
     </defs>
     <g transform="translate(47.517187 287.443438)rotate(-90)scale(0.1 -0.1)">
      <use xlink:href="#DejaVuSans-35"/>
      <use x="83.789062" xlink:href="#DejaVuSans-99"/>
      <use x="138.769531" xlink:href="#DejaVuSans-111"/>
      <use x="199.951172" xlink:href="#DejaVuSans-114"/>
      <use x="239.314453" xlink:href="#DejaVuSans-114"/>
      <use x="278.177734" xlink:href="#DejaVuSans-101"/>
      <use x="339.701172" xlink:href="#DejaVuSans-99"/>
      <use x="394.681641" xlink:href="#DejaVuSans-116"/>
      <use x="433.890625" xlink:href="#DejaVuSans-47"/>
      <use x="467.582031" xlink:href="#DejaVuSans-53"/>
      <use x="531.205078" xlink:href="#DejaVuSans-49"/>
      <use x="594.828125" xlink:href="#DejaVuSans-54"/>
     </g>
    </g>
   </g>
   <g id="line2d_45">
    <path clip-path="url(#p5c0f9c195a)" d="M 76.5 447.807907 
L 76.5 388.392558 
L 82.355556 388.392558 
L 81.6 379.367442 
L 80.891667 368.086047 
L 80.519492 360.565116 
L 84.471429 360.565116 
L 83.579104 349.283721 
L 83.475 347.779535 
L 86.886131 347.779535 
L 85.861184 336.49814 
L 85.283333 328.977209 
L 88.139264 328.977209 
L 87.218644 318.447907 
L 89.823034 318.447907 
L 89.388587 313.935349 
L 91.882703 313.935349 
L 91.718182 312.431163 
L 94.160106 312.431163 
L 93.792188 309.422791 
L 96.160104 309.422791 
L 96.058763 308.670698 
L 100.69898 308.670698 
L 100.334171 306.414419 
L 102.5865 306.414419 
L 100.879907 295.885116 
L 99.282969 284.603721 
L 99.183913 283.851628 
L 101.138961 283.851628 
L 100.51519 279.33907 
L 102.407143 279.33907 
L 100.775197 267.305581 
L 100.215 262.793023 
L 101.941379 262.793023 
L 101.844275 262.04093 
L 103.551331 262.04093 
L 102.85 256.776279 
L 104.502952 256.776279 
L 102.85 243.990698 
L 104.4 243.990698 
L 103.110891 233.461395 
L 104.583553 233.461395 
L 104.491475 232.709302 
L 105.95 232.709302 
L 105.758766 231.205116 
L 108.63 231.205116 
L 108.019937 226.692558 
L 110.804717 226.692558 
L 110.590313 225.188372 
L 111.961682 225.188372 
L 111.311009 220.675814 
L 112.650915 220.675814 
L 112.541033 219.923721 
L 113.869091 219.923721 
L 113.756193 219.171628 
L 115.07259 219.171628 
L 114.38787 214.65907 
L 115.675221 214.65907 
L 115.56 213.906977 
L 116.836364 213.906977 
L 116.601166 212.402791 
L 117.863372 212.402791 
L 117.743478 211.650698 
L 118.995087 211.650698 
L 118.750862 210.146512 
L 121.219714 210.146512 
L 121.092308 209.394419 
L 122.313068 209.394419 
L 121.925915 207.13814 
L 124.328571 207.13814 
L 124.062117 205.633953 
L 125.2475 205.633953 
L 124.844628 203.377674 
L 127.17863 203.377674 
L 126.091689 197.36093 
L 128.3568 197.36093 
L 128.081698 195.856744 
L 129.2 195.856744 
L 129.06095 195.104651 
L 130.170789 195.104651 
L 130.029921 194.352558 
L 131.131414 194.352558 
L 130.425581 190.592093 
L 131.509021 190.592093 
L 131.367609 189.84 
L 134.577551 189.84 
L 133.846096 186.079535 
L 134.893719 186.079535 
L 134.60175 184.575349 
L 135.639651 184.575349 
L 134.91133 180.814884 
L 136.95 180.814884 
L 136.508759 178.558605 
L 137.51432 178.558605 
L 137.219565 177.054419 
L 138.216145 177.054419 
L 138.067788 176.302326 
L 140.042584 176.302326 
L 139.589786 174.046047 
L 140.564218 174.046047 
L 139.962676 171.037674 
L 140.924824 171.037674 
L 140.774299 170.285581 
L 141.73007 170.285581 
L 141.578372 169.533488 
L 143.472917 169.533488 
L 143.164286 168.029302 
L 144.101379 168.029302 
L 143.94633 167.277209 
L 145.80411 167.277209 
L 145.646241 166.525116 
L 146.567045 166.525116 
L 146.408163 165.773023 
L 149.140541 165.773023 
L 148.814798 164.268837 
L 151.500668 164.268837 
L 151.334 163.516744 
L 153.101549 163.516744 
L 152.93245 162.764651 
L 155.55 162.764651 
L 155.204803 161.260465 
L 156.924783 161.260465 
L 156.750325 160.508372 
L 160.978326 160.508372 
L 160.79743 159.756279 
L 161.630769 159.756279 
L 160.909322 156.747907 
L 162.55443 156.747907 
L 162.013208 154.491628 
L 162.826569 154.491628 
L 162.646347 153.739535 
L 170.584049 153.739535 
L 170.392041 152.987442 
L 171.166802 152.987442 
L 170.97439 152.235349 
L 174.0375 152.235349 
L 173.645783 150.731163 
L 175.1544 150.731163 
L 174.957485 149.97907 
L 176.451889 149.97907 
L 176.253571 149.226977 
L 176.995248 149.226977 
L 176.79664 148.474884 
L 177.53432 148.474884 
L 177.335433 147.722791 
L 179.527984 147.722791 
L 179.126316 146.218605 
L 181.287209 146.218605 
L 180.882625 144.714419 
L 181.595376 144.714419 
L 181.393269 143.962326 
L 182.102303 143.962326 
L 181.49771 141.706047 
L 182.201143 141.706047 
L 182.00019 140.953953 
L 183.397159 140.953953 
L 183.195085 140.20186 
L 183.888679 140.20186 
L 183.686441 139.449767 
L 184.376504 139.449767 
L 183.972472 137.945581 
L 185.341231 137.945581 
L 184.735436 135.689302 
L 187.432044 135.689302 
L 187.024954 134.185116 
L 187.691209 134.185116 
L 187.487934 133.433023 
L 190.125408 133.433023 
L 189.919565 132.68093 
L 191.222383 132.68093 
L 191.015676 131.928837 
L 192.30754 131.928837 
L 191.893202 130.424651 
L 193.809075 130.424651 
L 193.60071 129.672558 
L 194.865133 129.672558 
L 194.656007 128.920465 
L 195.910035 128.920465 
L 195.700176 128.168372 
L 198.79338 128.168372 
L 198.580696 127.416279 
L 200.408824 127.416279 
L 200.194819 126.664186 
L 202.600343 126.664186 
L 202.169231 125.16 
L 206.291554 125.16 
L 206.072681 124.407907 
L 212.910248 124.407907 
L 212.685149 123.655814 
L 214.350739 123.655814 
L 214.124754 122.903721 
L 214.675777 122.903721 
L 214.45 122.151628 
L 218.79 122.151628 
L 218.56087 121.399535 
L 223.307143 121.399535 
L 223.074485 120.647442 
L 224.109953 120.647442 
L 223.877129 119.895349 
L 228.453033 119.895349 
L 228.217081 119.143256 
L 235.080547 119.143256 
L 234.839909 118.391163 
L 235.795915 118.391163 
L 235.555287 117.63907 
L 236.030769 117.63907 
L 235.550977 116.134884 
L 238.834821 116.134884 
L 238.353116 114.630698 
L 245.155298 114.630698 
L 244.91087 113.878605 
L 258.062829 113.878605 
L 257.811357 113.126512 
L 266.092328 113.126512 
L 265.8375 112.374419 
L 268.493609 112.374419 
L 268.238298 111.622326 
L 268.987798 111.622326 
L 268.732848 110.870233 
L 273.86801 110.870233 
L 273.611688 110.11814 
L 275.044186 110.11814 
L 274.788 109.366047 
L 275.852314 109.366047 
L 275.596406 108.613953 
L 278.739594 108.613953 
L 278.48327 107.86186 
L 287.170675 107.86186 
L 286.9125 107.109767 
L 290.736957 107.109767 
L 290.478528 106.357674 
L 317.999029 106.357674 
L 317.738793 105.605581 
L 322.414784 105.605581 
L 322.15538 104.853488 
L 362.644531 104.853488 
L 362.644531 104.853488 
" style="fill:none;stroke:#1f77b4;stroke-linecap:square;stroke-width:2;"/>
   </g>
   <g id="line2d_46">
    <path clip-path="url(#p5c0f9c195a)" d="M 76.5 447.807907 
L 76.5 371.846512 
L 81.104854 371.846512 
L 80.93271 368.83814 
L 85.283333 368.83814 
L 85.045946 366.58186 
L 89.204464 366.58186 
L 88.068293 358.308837 
L 87.616406 354.548372 
L 94.742308 354.548372 
L 93.319149 346.275349 
L 93.200704 345.523256 
L 96.400699 345.523256 
L 96.2625 344.771163 
L 102.489041 344.771163 
L 100.823077 337.250233 
L 99.636585 331.233488 
L 102.370909 331.233488 
L 100.753977 322.960465 
L 99.205851 313.935349 
L 97.632178 303.406047 
L 96.447196 294.38093 
L 100.654167 294.38093 
L 99.085714 283.099535 
L 101.032759 283.099535 
L 100.927468 282.347442 
L 102.85 282.347442 
L 102.407143 279.33907 
L 104.283264 279.33907 
L 103.825926 276.330698 
L 105.657787 276.330698 
L 105.420732 274.826512 
L 107.223887 274.826512 
L 105.464885 263.545116 
L 105.245455 262.04093 
L 108.595489 262.04093 
L 108.12 259.032558 
L 109.753506 259.032558 
L 109.389416 256.776279 
L 110.994545 256.776279 
L 110.869565 256.024186 
L 112.457762 256.024186 
L 111.820213 252.263721 
L 113.371378 252.263721 
L 113.241549 251.511628 
L 114.776842 251.511628 
L 114.116897 247.751163 
L 115.617526 247.751163 
L 113.821967 237.22186 
L 116.66873 237.22186 
L 116.28 234.965581 
L 117.67717 234.965581 
L 117.283758 232.709302 
L 118.66 232.709302 
L 118.262264 230.453023 
L 119.618182 230.453023 
L 118.563303 224.436279 
L 119.881098 224.436279 
L 119.74924 223.684186 
L 121.055455 223.684186 
L 120.787048 222.18 
L 122.078378 222.18 
L 121.941916 221.427907 
L 124.494643 221.427907 
L 124.210651 219.923721 
L 125.469027 219.923721 
L 125.181818 218.419535 
L 126.426316 218.419535 
L 126.280758 217.667442 
L 127.514826 217.667442 
L 127.219942 216.163256 
L 128.440634 216.163256 
L 128.291379 215.411163 
L 129.502006 215.411163 
L 129.350571 214.65907 
L 130.551282 214.65907 
L 130.397727 213.906977 
L 131.588669 213.906977 
L 131.433051 213.154884 
L 137.273816 213.154884 
L 136.439011 209.394419 
L 137.574247 209.394419 
L 137.241417 207.890233 
L 141.70027 207.890233 
L 141.35067 206.386047 
L 142.445455 206.386047 
L 142.094681 204.88186 
L 143.17878 204.88186 
L 143.002381 204.129767 
L 144.078364 204.129767 
L 143.900526 203.377674 
L 146.03089 203.377674 
L 145.489091 201.121395 
L 146.539119 201.121395 
L 146.35814 200.369302 
L 147.400515 200.369302 
L 147.036923 198.865116 
L 148.069565 198.865116 
L 147.165909 195.104651 
L 149.194221 195.104651 
L 149.01203 194.352558 
L 150.0165 194.352558 
L 149.469231 192.096279 
L 150.462624 192.096279 
L 150.28 191.344186 
L 153.225 191.344186 
L 152.664964 189.087907 
L 154.592978 189.087907 
L 154.029808 186.831628 
L 157.808571 186.831628 
L 157.423223 185.327442 
L 162.029508 185.327442 
L 161.829673 184.575349 
L 162.736364 184.575349 
L 162.535814 183.823256 
L 163.436659 183.823256 
L 162.835714 181.566977 
L 164.615367 181.566977 
L 163.814318 178.558605 
L 165.565385 178.558605 
L 165.164189 177.054419 
L 169.458575 177.054419 
L 169.252 176.302326 
L 170.098004 176.302326 
L 169.890929 175.550233 
L 170.731788 175.550233 
L 170.317582 174.046047 
L 176.082468 174.046047 
L 175.867387 173.293953 
L 182.235669 173.293953 
L 182.011653 172.54186 
L 185.877358 172.54186 
L 185.648536 171.789767 
L 195.316497 171.789767 
L 194.834483 170.285581 
L 195.555061 170.285581 
L 195.314545 169.533488 
L 196.03125 169.533488 
L 195.790744 168.781395 
L 197.213627 168.781395 
L 196.9722 168.029302 
L 197.678443 168.029302 
L 197.437052 167.277209 
L 198.139563 167.277209 
L 197.657822 165.773023 
L 198.355731 165.773023 
L 198.115385 165.02093 
L 199.501179 165.02093 
L 199.26 164.268837 
L 202.67301 164.268837 
L 202.428488 163.516744 
L 205.771785 163.516744 
L 205.524138 162.764651 
L 206.184321 162.764651 
L 205.936832 162.012558 
L 207.248099 162.012558 
L 207 161.260465 
L 207.651136 161.260465 
L 207.156226 159.756279 
L 208.44812 159.756279 
L 207.953933 158.252093 
L 209.233209 158.252093 
L 208.739777 156.747907 
L 209.374397 156.747907 
L 209.128333 155.995814 
L 213.500731 155.995814 
L 213.25073 155.243721 
L 214.478182 155.243721 
L 214.227768 154.491628 
L 215.445027 154.491628 
L 215.194224 153.739535 
L 221.728142 153.739535 
L 221.471555 152.987442 
L 223.782632 152.987442 
L 223.524694 152.235349 
L 224.096853 152.235349 
L 223.839267 151.483256 
L 227.785345 151.483256 
L 227.524957 150.731163 
L 228.080412 150.731163 
L 227.561301 149.226977 
L 231.389848 149.226977 
L 231.128209 148.474884 
L 236.959701 148.474884 
L 236.165347 146.218605 
L 239.25 146.218605 
L 238.984502 145.466512 
L 239.492345 145.466512 
L 239.227317 144.714419 
L 249.515094 144.714419 
L 248.972727 143.210233 
L 254.544923 143.210233 
L 254.271429 142.45814 
L 256.979452 142.45814 
L 256.705167 141.706047 
L 258.923077 141.706047 
L 258.374436 140.20186 
L 260.12287 140.20186 
L 259.848806 139.449767 
L 261.575519 139.449767 
L 261.301333 138.697674 
L 261.729586 138.697674 
L 261.455982 137.945581 
L 263.997804 137.945581 
L 263.723684 137.193488 
L 265.806967 137.193488 
L 265.259045 135.689302 
L 277.140083 135.689302 
L 276.862188 134.937209 
L 289.872427 134.937209 
L 289.591304 134.185116 
L 292.652344 134.185116 
L 292.371261 133.433023 
L 295.688703 133.433023 
L 295.407692 132.68093 
L 306.675 132.68093 
L 305.831868 130.424651 
L 312.523397 130.424651 
L 311.9641 128.920465 
L 319.633142 128.920465 
L 319.354639 128.168372 
L 322.234615 128.168372 
L 321.956949 127.416279 
L 324.513855 127.416279 
L 324.237054 126.664186 
L 328.698906 126.664186 
L 328.423279 125.912093 
L 334.107029 125.912093 
L 333.832979 125.16 
L 338.794802 125.16 
L 338.52243 124.407907 
L 354.804506 124.407907 
L 354.537931 123.655814 
L 357.317847 123.655814 
L 357.052925 122.903721 
L 360.464597 122.903721 
L 360.201667 122.151628 
L 372.114063 122.151628 
L 372.114063 122.151628 
" style="fill:none;stroke:#ff7f0e;stroke-linecap:square;stroke-width:2;"/>
   </g>
   <g id="line2d_47">
    <path clip-path="url(#p5c0f9c195a)" d="M 76.5 447.807907 
L 76.5 429.757674 
L 111.633333 429.757674 
L 109.210345 428.253488 
L 107.1 426.749302 
L 104.4 424.493023 
L 103.602857 423.74093 
L 116.025 423.74093 
L 114.956757 422.988837 
L 126.426316 422.988837 
L 125.146154 422.236744 
L 135.7875 422.236744 
L 134.341463 421.484651 
L 144.257143 421.484651 
L 139.74 419.228372 
L 138.365217 418.476279 
L 147.140426 418.476279 
L 142.902 416.22 
L 139.143396 413.963721 
L 135.7875 411.707442 
L 133.743103 410.203256 
L 140.811864 410.203256 
L 138.703279 408.69907 
L 145.35 408.69907 
L 142.172308 406.442791 
L 138.365217 403.434419 
L 137.481429 402.682326 
L 143.302817 402.682326 
L 141.472603 401.17814 
L 147.004054 401.17814 
L 143.388462 398.169767 
L 140.12561 395.161395 
L 138.610714 393.657209 
L 148.196512 393.657209 
L 145.01 390.648837 
L 142.094681 387.640465 
L 138.781818 383.88 
L 135.7875 380.119535 
L 134.668868 378.615349 
L 146.122018 378.615349 
L 143.068421 374.854884 
L 146.613913 374.854884 
L 146.009483 374.102791 
L 149.469231 374.102791 
L 148.850847 373.350698 
L 155.55 373.350698 
L 152.388 369.590233 
L 149.469231 365.829767 
L 152.532824 365.829767 
L 150.28 362.821395 
L 161.805755 362.821395 
L 161.196429 362.069302 
L 163.959574 362.069302 
L 163.343662 361.317209 
L 166.053147 361.317209 
L 162.44698 356.804651 
L 161.308609 355.300465 
L 166.4 355.300465 
L 165.816234 354.548372 
L 168.3 354.548372 
L 166.556962 352.292093 
L 168.973585 352.292093 
L 165.610909 347.779535 
L 164.019643 345.523256 
L 166.308284 345.523256 
L 164.231792 342.514884 
L 166.453448 342.514884 
L 165.43125 341.010698 
L 167.608475 341.010698 
L 164.142391 335.746047 
L 163.668649 334.993953 
L 165.75 334.993953 
L 164.800532 333.489767 
L 168.863684 333.489767 
L 165.581726 328.225116 
L 162.948768 323.712558 
L 168.597087 323.712558 
L 167.27512 321.456279 
L 169.101429 321.456279 
L 167.370561 318.447907 
L 169.153953 318.447907 
L 168.725 317.695814 
L 172.230275 317.695814 
L 170.930769 315.439535 
L 172.641892 315.439535 
L 171.783482 313.935349 
L 173.468 313.935349 
L 172.613656 312.431163 
L 174.272368 312.431163 
L 173.422174 310.926977 
L 175.055844 310.926977 
L 172.967797 307.166512 
L 179.265 307.166512 
L 178.838589 306.414419 
L 180.37562 306.414419 
L 179.52418 304.910233 
L 181.039592 304.910233 
L 180.614634 304.15814 
L 183.6 304.15814 
L 181.483399 300.397674 
L 182.937402 300.397674 
L 181.694942 298.141395 
L 183.125581 298.141395 
L 179.918797 292.124651 
L 181.307865 292.124651 
L 179.760886 289.116279 
L 181.125 289.116279 
L 179.983636 286.86 
L 183.985252 286.86 
L 183.6 286.107907 
L 186.213523 286.107907 
L 185.054577 283.851628 
L 186.337895 283.851628 
L 185.572474 282.347442 
L 186.840625 282.347442 
L 186.458824 281.595349 
L 187.715172 281.595349 
L 185.830169 277.834884 
L 187.063176 277.834884 
L 186.690909 277.082791 
L 189.126421 277.082791 
L 188.007616 274.826512 
L 191.576066 274.826512 
L 191.2 274.074419 
L 193.535065 274.074419 
L 192.78 272.570233 
L 193.93119 272.570233 
L 193.554808 271.81814 
L 194.696166 271.81814 
L 193.574051 269.56186 
L 201.315789 269.56186 
L 200.930556 268.809767 
L 203.076994 268.809767 
L 202.305183 267.305581 
L 203.364438 267.305581 
L 202.597885 265.801395 
L 204.689189 265.801395 
L 203.544643 263.545116 
L 205.599408 263.545116 
L 205.218584 262.793023 
L 206.235 262.793023 
L 205.100292 260.536744 
L 208.097688 260.536744 
L 207.341379 259.032558 
L 209.304 259.032558 
L 208.549432 257.528372 
L 209.51898 257.528372 
L 207.295822 253.015814 
L 208.25 253.015814 
L 207.522099 251.511628 
L 208.467769 251.511628 
L 207.744658 250.007442 
L 208.681967 250.007442 
L 205.5096 243.238605 
L 206.427926 243.238605 
L 205.399472 240.982326 
L 209.006789 240.982326 
L 208.661719 240.230233 
L 209.55039 240.230233 
L 208.182262 237.22186 
L 209.934783 237.22186 
L 209.594388 236.469767 
L 210.462595 236.469767 
L 210.122589 235.717674 
L 215.23275 235.717674 
L 214.886783 234.965581 
L 216.553846 234.965581 
L 215.862222 233.461395 
L 216.687192 233.461395 
L 216.342752 232.709302 
L 217.1625 232.709302 
L 216.135766 230.453023 
L 216.948058 230.453023 
L 216.60799 229.70093 
L 217.415217 229.70093 
L 216.73774 228.196744 
L 217.538849 228.196744 
L 217.201435 227.444651 
L 218.79 227.444651 
L 217.447642 224.436279 
L 219.012676 224.436279 
L 218.678923 223.684186 
L 219.454907 223.684186 
L 218.13125 220.675814 
L 221.937529 220.675814 
L 221.605479 219.923721 
L 223.101818 219.923721 
L 222.109029 217.667442 
L 224.319955 217.667442 
L 223.332294 215.411163 
L 225.505752 215.411163 
L 225.176821 214.65907 
L 226.608132 214.65907 
L 226.278947 213.906977 
L 229.798698 213.906977 
L 229.466883 213.154884 
L 230.160907 213.154884 
L 229.171674 210.898605 
L 231.228998 210.898605 
L 230.899787 210.146512 
L 234.932143 210.146512 
L 234.6 209.394419 
L 235.920251 209.394419 
L 235.25738 207.890233 
L 236.563975 207.890233 
L 235.903918 206.386047 
L 236.551852 206.386047 
L 235.895902 204.88186 
L 236.539877 204.88186 
L 236.213265 204.129767 
L 237.492073 204.129767 
L 237.165517 203.377674 
L 240.314458 203.377674 
L 239.6592 201.873488 
L 240.28024 201.873488 
L 239.953984 201.121395 
L 241.1875 201.121395 
L 240.861386 200.369302 
L 242.691732 200.369302 
L 242.365226 199.617209 
L 242.97 199.617209 
L 241.996491 197.36093 
L 242.597276 197.36093 
L 242.274757 196.608837 
L 244.061583 196.608837 
L 243.417115 195.104651 
L 244.594828 195.104651 
L 244.273423 194.352558 
L 248.891525 194.352558 
L 247.923034 192.096279 
L 249.053172 192.096279 
L 248.731844 191.344186 
L 249.85269 191.344186 
L 249.531667 190.592093 
L 254.470492 190.592093 
L 253.824501 189.087907 
L 254.3625 189.087907 
L 254.040868 188.335814 
L 256.171993 188.335814 
L 255.85 187.583721 
L 260.531746 187.583721 
L 259.563158 185.327442 
L 262.596875 185.327442 
L 261.952941 183.823256 
L 262.948966 183.823256 
L 262.628055 183.071163 
L 263.616638 183.071163 
L 263.296233 182.31907 
L 264.765588 182.31907 
L 264.445408 181.566977 
L 265.898985 181.566977 
L 265.260202 180.062791 
L 265.740909 180.062791 
L 265.422857 179.310698 
L 269.208955 179.310698 
L 268.889901 178.558605 
L 273.028874 178.558605 
L 272.389756 177.054419 
L 273.741262 177.054419 
L 273.422617 176.302326 
L 274.76045 176.302326 
L 274.442215 175.550233 
L 279.664724 175.550233 
L 279.345283 174.79814 
L 279.771429 174.79814 
L 279.452821 174.046047 
L 279.877465 174.046047 
L 279.559687 173.293953 
L 284.55184 173.293953 
L 284.233231 172.54186 
L 284.640826 172.54186 
L 284.323053 171.789767 
L 284.729268 171.789767 
L 284.412329 171.037674 
L 285.220789 171.037674 
L 284.904545 170.285581 
L 285.707855 170.285581 
L 285.392308 169.533488 
L 285.792018 169.533488 
L 285.477293 168.781395 
L 292.847368 168.781395 
L 292.531533 168.029302 
L 292.908017 168.029302 
L 292.593013 167.277209 
L 293.715652 167.277209 
L 293.401302 166.525116 
L 294.144156 166.525116 
L 293.206034 164.268837 
L 294.678 164.268837 
L 294.366762 163.516744 
L 298.328511 163.516744 
L 297.707143 162.012558 
L 298.414106 162.012558 
L 298.104603 161.260465 
L 299.506519 161.260465 
L 299.197645 160.508372 
L 300.928061 160.508372 
L 300.61978 159.756279 
L 305.008907 159.756279 
L 304.700943 159.004186 
L 305.3625 159.004186 
L 305.055302 158.252093 
L 308.950859 158.252093 
L 308.644195 157.5 
L 308.963241 157.5 
L 308.657368 156.747907 
L 311.491287 156.747907 
L 311.186104 155.995814 
L 311.806865 155.995814 
L 311.502458 155.243721 
L 312.734363 155.243721 
L 312.43072 154.491628 
L 313.65 154.491628 
L 313.347126 153.739535 
L 319.549254 153.739535 
L 319.247329 152.987442 
L 320.676667 152.987442 
L 320.375586 152.235349 
L 320.65936 152.235349 
L 320.359041 151.483256 
L 321.487271 151.483256 
L 321.187775 150.731163 
L 322.026797 150.731163 
L 321.728102 149.97907 
L 327.963195 149.97907 
L 327.665957 149.226977 
L 327.929398 149.226977 
L 327.632901 148.474884 
L 329.718575 148.474884 
L 329.423104 147.722791 
L 332.480092 147.722791 
L 332.185862 146.970698 
L 333.683219 146.970698 
L 333.389966 146.218605 
L 336.324634 146.218605 
L 336.032697 145.466512 
L 340.521782 145.466512 
L 340.231648 144.714419 
L 341.153173 144.714419 
L 340.863934 143.962326 
L 343.133514 143.962326 
L 342.845572 143.210233 
L 343.069903 143.210233 
L 342.782651 142.45814 
L 345.874204 142.45814 
L 345.588547 141.706047 
L 347.100632 141.706047 
L 346.816088 140.953953 
L 353.255499 140.953953 
L 352.973957 140.20186 
L 355.359799 140.20186 
L 355.079819 139.449767 
L 356.251796 139.449767 
L 355.972881 138.697674 
L 356.360597 138.697674 
L 355.804767 137.193488 
L 359.602142 137.193488 
L 359.326751 136.441395 
L 361.171387 136.441395 
L 360.897401 135.689302 
L 362.16826 135.689302 
L 361.895415 134.937209 
L 372.456357 134.937209 
L 372.18973 134.185116 
L 376.431135 134.185116 
L 376.167575 133.433023 
L 378.289844 133.433023 
L 378.289844 133.433023 
" style="fill:none;stroke:#2ca02c;stroke-linecap:square;stroke-width:2;"/>
   </g>
   <g id="line2d_48">
    <path clip-path="url(#p5c0f9c195a)" d="M 76.5 447.807907 
L 76.5 438.030698 
L 108.12 438.030698 
L 104.4 436.526512 
L 101.463158 435.022326 
L 99.085714 433.51814 
L 97.121739 432.013953 
L 95.472 430.509767 
L 94.066667 429.005581 
L 92.31 426.749302 
L 90.872727 424.493023 
L 89.675 422.236744 
L 88.3575 419.228372 
L 87.792857 417.724186 
L 98.560465 417.724186 
L 96.682979 414.715814 
L 95.1 411.707442 
L 93.747273 408.69907 
L 92.31 404.938605 
L 91.093846 401.17814 
L 89.860563 396.665581 
L 89.148 393.657209 
L 95.222368 393.657209 
L 94.742308 392.153023 
L 100.51519 392.153023 
L 98.82 387.640465 
L 97.816854 384.632093 
L 102.85 384.632093 
L 101.203125 380.119535 
L 99.524272 374.854884 
L 99.302885 374.102791 
L 103.602857 374.102791 
L 101.908929 368.83814 
L 105.881416 368.83814 
L 104.1675 363.573488 
L 103.713934 362.069302 
L 107.34878 362.069302 
L 105.464885 356.052558 
L 108.838636 356.052558 
L 106.990714 350.035814 
L 106.561268 348.531628 
L 109.667832 348.531628 
L 108.986301 346.275349 
L 111.991837 346.275349 
L 111.051656 343.266977 
L 113.944737 343.266977 
L 112.296226 338.002326 
L 115.036875 338.002326 
L 114.797516 337.250233 
L 117.488889 337.250233 
L 117.237423 336.49814 
L 119.881098 336.49814 
L 119.618182 335.746047 
L 122.215663 335.746047 
L 121.941916 334.993953 
L 127.01716 334.993953 
L 125.285143 330.481395 
L 127.702841 330.481395 
L 126.014835 325.968837 
L 128.336066 325.968837 
L 128.054348 325.216744 
L 130.339459 325.216744 
L 129.2 322.208372 
L 131.418947 322.208372 
L 131.131414 321.456279 
L 133.317188 321.456279 
L 131.875127 317.695814 
L 133.990909 317.695814 
L 132.574877 313.935349 
L 134.625 313.935349 
L 132.169014 307.166512 
L 131.908879 306.414419 
L 135.7875 306.414419 
L 133.926457 301.149767 
L 135.7875 301.149767 
L 133.990909 295.885116 
L 135.7875 295.885116 
L 134.536709 292.124651 
L 136.285714 292.124651 
L 135.7875 290.620465 
L 137.509544 290.620465 
L 136.759426 288.364186 
L 138.449388 288.364186 
L 138.197561 287.612093 
L 139.868016 287.612093 
L 139.1076 285.355814 
L 142.375 285.355814 
L 141.6 283.099535 
L 143.198438 283.099535 
L 140.690977 275.578605 
L 143.751493 275.578605 
L 141.1 267.305581 
L 140.869286 266.553488 
L 142.328114 266.553488 
L 141.632746 264.297209 
L 144.494056 264.297209 
L 144.257143 263.545116 
L 147.070588 263.545116 
L 145.870408 259.784651 
L 148.606419 259.784651 
L 147.882943 257.528372 
L 150.560133 257.528372 
L 149.829276 255.272093 
L 151.143934 255.272093 
L 150.657655 253.767907 
L 151.956818 253.767907 
L 149.127188 244.742791 
L 148.900935 243.990698 
L 152.622222 243.990698 
L 152.155215 242.486512 
L 154.585976 242.486512 
L 153.645181 239.47814 
L 154.837838 239.47814 
L 153.908012 236.469767 
L 155.082249 236.469767 
L 154.850442 235.717674 
L 156.015 235.717674 
L 155.781818 234.965581 
L 156.936842 234.965581 
L 155.77781 231.205116 
L 156.912931 231.205116 
L 156.225641 228.948837 
L 157.346591 228.948837 
L 157.117564 228.196744 
L 158.229661 228.196744 
L 157.542857 225.940465 
L 162.974586 225.940465 
L 162.263836 223.684186 
L 165.43125 223.684186 
L 165.190244 222.932093 
L 166.232432 222.932093 
L 165.990566 222.18 
L 168.053887 222.18 
L 167.323404 219.923721 
L 168.340584 219.923721 
L 166.666406 214.65907 
L 167.664156 214.65907 
L 167.193023 213.154884 
L 168.181701 213.154884 
L 167.946015 212.402791 
L 168.927692 212.402791 
L 168.222137 210.146512 
L 169.193147 210.146512 
L 168.958481 209.394419 
L 169.922727 209.394419 
L 169.687406 208.642326 
L 172.54575 208.642326 
L 172.306234 207.890233 
L 173.247761 207.890233 
L 172.768812 206.386047 
L 173.702222 206.386047 
L 173.462808 205.633953 
L 174.389926 205.633953 
L 174.15 204.88186 
L 175.070905 204.88186 
L 174.116223 201.873488 
L 175.026087 201.873488 
L 174.552404 200.369302 
L 177.246301 200.369302 
L 177.006429 199.617209 
L 177.894299 199.617209 
L 177.176887 197.36093 
L 178.056 197.36093 
L 177.817606 196.608837 
L 178.691101 196.608837 
L 178.452336 195.856744 
L 181.044084 195.856744 
L 180.561201 194.352558 
L 181.414286 194.352558 
L 180.69405 192.096279 
L 183.2175 192.096279 
L 182.734615 190.592093 
L 185.215955 190.592093 
L 184.487946 188.335814 
L 186.924612 188.335814 
L 186.68031 187.583721 
L 190.664114 187.583721 
L 190.166667 186.079535 
L 193.282289 186.079535 
L 193.030603 185.327442 
L 193.8 185.327442 
L 193.048077 183.071163 
L 193.810874 183.071163 
L 193.561277 182.31907 
L 194.319745 182.31907 
L 194.070127 181.566977 
L 196.323158 181.566977 
L 195.075 177.806512 
L 195.814553 177.806512 
L 195.567012 177.054419 
L 196.302484 177.054419 
L 196.054959 176.302326 
L 200.398776 176.302326 
L 200.146436 175.550233 
L 202.275911 175.550233 
L 201.76875 174.046047 
L 202.471026 174.046047 
L 202.218072 173.293953 
L 206.367857 173.293953 
L 206.110693 172.54186 
L 206.791897 172.54186 
L 206.534911 171.789767 
L 208.56 171.789767 
L 208.301566 171.037674 
L 210.961748 171.037674 
L 210.441586 169.533488 
L 211.098649 169.533488 
L 210.839306 168.781395 
L 212.793103 168.781395 
L 212.532505 168.029302 
L 213.821143 168.029302 
L 213.560076 167.277209 
L 217.363534 167.277209 
L 217.09925 166.525116 
L 220.200558 166.525116 
L 219.668333 165.02093 
L 220.890221 165.02093 
L 220.624309 164.268837 
L 223.038757 164.268837 
L 222.77135 163.516744 
L 223.368852 163.516744 
L 223.101818 162.764651 
L 227.8 162.764651 
L 227.529338 162.012558 
L 228.106607 162.012558 
L 227.567082 160.508372 
L 229.851413 160.508372 
L 229.580952 159.756279 
L 230.146479 159.756279 
L 229.607368 158.252093 
L 231.289005 158.252093 
L 231.019338 157.5 
L 233.232353 157.5 
L 232.691897 155.995814 
L 238.61269 155.995814 
L 238.338851 155.243721 
L 239.390909 155.243721 
L 239.117143 154.491628 
L 240.680769 154.491628 
L 240.406678 153.739535 
L 241.439601 153.739535 
L 240.892537 152.235349 
L 246.444625 152.235349 
L 246.168293 151.483256 
L 248.136834 151.483256 
L 247.86 150.731163 
L 248.347826 150.731163 
L 248.071543 149.97907 
L 249.041827 149.97907 
L 248.76576 149.226977 
L 249.729187 149.226977 
L 249.453344 148.474884 
L 251.833649 148.474884 
L 251.557098 147.722791 
L 254.3625 147.722791 
L 253.808411 146.218605 
L 254.270295 146.218605 
L 253.994255 145.466512 
L 254.913158 145.466512 
L 254.637403 144.714419 
L 262.653835 144.714419 
L 262.095652 143.210233 
L 262.527844 143.210233 
L 262.249776 142.45814 
L 263.537946 142.45814 
L 263.26003 141.706047 
L 265.800884 141.706047 
L 265.5225 140.953953 
L 266.359091 140.953953 
L 266.081113 140.20186 
L 268.969565 140.20186 
L 268.691027 139.449767 
L 270.314676 139.449767 
L 270.036207 138.697674 
L 273.226705 138.697674 
L 272.94766 137.945581 
L 273.733663 137.945581 
L 273.455085 137.193488 
L 276.936402 137.193488 
L 276.657242 136.441395 
L 278.176039 136.441395 
L 277.897095 135.689302 
L 284.526316 135.689302 
L 284.245957 134.937209 
L 284.604711 134.937209 
L 284.325 134.185116 
L 286.103872 134.185116 
L 285.8244 133.433023 
L 288.274637 133.433023 
L 287.438684 131.176744 
L 294.191538 131.176744 
L 293.912804 130.424651 
L 300.639277 130.424651 
L 300.360149 129.672558 
L 301.292308 129.672558 
L 301.013755 128.920465 
L 301.631273 128.920465 
L 301.353333 128.168372 
L 308.821796 128.168372 
L 308.5439 127.416279 
L 311.407447 127.416279 
L 311.130106 126.664186 
L 312.53662 126.664186 
L 312.259906 125.912093 
L 314.201512 125.912093 
L 313.925436 125.16 
L 329.59718 125.16 
L 329.322969 124.407907 
L 330.516272 124.407907 
L 330.242842 123.655814 
L 332.125934 123.655814 
L 331.853412 122.903721 
L 332.551435 122.903721 
L 332.279618 122.151628 
L 338.148967 122.151628 
L 337.878947 121.399535 
L 339.406045 121.399535 
L 339.13695 120.647442 
L 346.052673 120.647442 
L 345.786053 119.895349 
L 346.79498 119.895349 
L 346.263949 118.391163 
L 355.839607 118.391163 
L 355.578297 117.63907 
L 369.64375 117.63907 
L 369.64375 117.63907 
" style="fill:none;stroke:#d62728;stroke-linecap:square;stroke-width:2;"/>
   </g>
   <g id="line2d_49">
    <path clip-path="url(#p5c0f9c195a)" d="M 76.5 447.807907 
L 76.5 365.829767 
L 80.772973 365.829767 
L 80.120611 350.787907 
L 83.686364 350.787907 
L 82.824 337.250233 
L 82.503797 331.233488 
L 88.3575 331.233488 
L 87.998182 327.473023 
L 90.786145 327.473023 
L 89.60221 316.191628 
L 88.477273 303.406047 
L 90.800503 303.406047 
L 89.614286 289.868372 
L 89.494521 288.364186 
L 91.591364 288.364186 
L 90.688462 277.834884 
L 92.646383 277.834884 
L 91.617131 265.801395 
L 93.439286 265.801395 
L 93.305906 264.297209 
L 95.1 264.297209 
L 95.027344 263.545116 
L 96.800778 263.545116 
L 96.489655 260.536744 
L 98.223664 260.536744 
L 97.502214 253.767907 
L 99.16875 253.767907 
L 98.287633 245.494884 
L 101.463158 245.494884 
L 101.032759 241.734419 
L 102.578351 241.734419 
L 102.224746 238.726047 
L 103.740203 238.726047 
L 103.023355 232.709302 
L 105.95 232.709302 
L 105.383654 228.196744 
L 106.806709 228.196744 
L 106.614286 226.692558 
L 108.019937 226.692558 
L 107.528972 222.932093 
L 108.90559 222.932093 
L 108.705556 221.427907 
L 111.417791 221.427907 
L 110.581437 215.411163 
L 111.895522 215.411163 
L 111.790179 214.65907 
L 113.092878 214.65907 
L 112.663636 211.650698 
L 113.944737 211.650698 
L 113.193696 206.386047 
L 114.444 206.386047 
L 114.228409 204.88186 
L 116.694915 204.88186 
L 116.135097 201.121395 
L 118.543213 201.121395 
L 118.427072 200.369302 
L 120.802747 200.369302 
L 120.560656 198.865116 
L 122.898913 198.865116 
L 121.315748 189.087907 
L 123.558486 189.087907 
L 122.832648 184.575349 
L 123.93 184.575349 
L 123.808696 183.823256 
L 127.059898 183.823256 
L 125.325 173.293953 
L 128.430657 173.293953 
L 127.80649 169.533488 
L 130.835084 169.533488 
L 130.57696 168.029302 
L 133.550236 168.029302 
L 133.149415 165.773023 
L 134.125234 165.773023 
L 133.990909 165.02093 
L 134.960233 165.02093 
L 134.689583 163.516744 
L 136.607143 163.516744 
L 136.058219 160.508372 
L 137.002961 160.508372 
L 136.728571 159.004186 
L 137.665385 159.004186 
L 137.389865 157.5 
L 140.16443 157.5 
L 139.880846 155.995814 
L 140.794 155.995814 
L 140.368212 153.739535 
L 145.733333 153.739535 
L 145.582826 152.987442 
L 146.461822 152.987442 
L 146.31039 152.235349 
L 147.184017 152.235349 
L 146.88 150.731163 
L 147.746781 150.731163 
L 147.442308 149.226977 
L 148.302345 149.226977 
L 148.149574 148.474884 
L 149.85572 148.474884 
L 149.546203 146.970698 
L 152.903975 146.970698 
L 152.744468 146.218605 
L 154.399584 146.218605 
L 154.237967 145.466512 
L 155.876653 145.466512 
L 155.71299 144.714419 
L 158.141803 144.714419 
L 157.974847 143.962326 
L 160.370122 143.962326 
L 160.2 143.210233 
L 160.990688 143.210233 
L 160.82 142.45814 
L 163.169277 142.45814 
L 162.995591 141.706047 
L 163.7712 141.706047 
L 163.597006 140.953953 
L 166.66396 140.953953 
L 166.485771 140.20186 
L 168.750884 140.20186 
L 168.389824 138.697674 
L 169.880702 138.697674 
L 169.699027 137.945581 
L 171.176163 137.945581 
L 170.993037 137.193488 
L 173.184231 137.193488 
L 172.998656 136.441395 
L 173.722414 136.441395 
L 173.166857 134.185116 
L 174.6 134.185116 
L 174.414205 133.433023 
L 175.125709 133.433023 
L 174.939623 132.68093 
L 176.352632 132.68093 
L 175.607463 129.672558 
L 176.306145 129.672558 
L 175.935807 128.168372 
L 176.63 128.168372 
L 175.348629 122.903721 
L 176.033759 122.903721 
L 175.852459 122.151628 
L 177.890217 122.151628 
L 177.706872 121.399535 
L 181.711449 121.399535 
L 181.523571 120.647442 
L 182.837722 120.647442 
L 182.648845 119.895349 
L 185.246032 119.895349 
L 184.863796 118.391163 
L 186.145534 118.391163 
L 185.953846 117.63907 
L 186.590576 117.63907 
L 186.39878 116.886977 
L 187.664062 116.886977 
L 186.897414 113.878605 
L 189.389897 113.878605 
L 189.004608 112.374419 
L 190.235204 112.374419 
L 190.042105 111.622326 
L 191.262944 111.622326 
L 191.069088 110.870233 
L 192.882857 110.870233 
L 192.687584 110.11814 
L 195.075 110.11814 
L 194.877704 109.366047 
L 195.468937 109.366047 
L 195.271642 108.613953 
L 197.614498 108.613953 
L 197.415296 107.86186 
L 198.573934 107.86186 
L 198.374141 107.109767 
L 198.95 107.109767 
L 198.750245 106.357674 
L 199.895122 106.357674 
L 199.495138 104.853488 
L 202.319132 104.853488 
L 202.117175 104.101395 
L 205.991429 104.101395 
L 205.786212 103.349302 
L 206.876303 103.349302 
L 206.670662 102.597209 
L 218.717808 102.597209 
L 218.501672 101.845116 
L 223.476198 101.845116 
L 223.256502 101.093023 
L 224.232787 101.093023 
L 224.012946 100.34093 
L 225.465333 100.34093 
L 225.24497 99.588837 
L 225.725849 99.588837 
L 225.505752 98.836744 
L 226.938767 98.836744 
L 226.718182 98.084651 
L 229.076856 98.084651 
L 228.855087 97.332558 
L 231.177922 97.332558 
L 230.955043 96.580465 
L 233.696571 96.580465 
L 233.472325 95.828372 
L 252.213826 95.828372 
L 251.743373 94.324186 
L 261.802199 94.324186 
L 261.562791 93.572093 
L 304.247577 93.572093 
L 303.99703 92.82 
L 313.65 92.82 
L 313.399578 92.067907 
L 324.85206 92.067907 
L 324.602711 91.315814 
L 340.049298 91.315814 
L 339.802991 90.563721 
L 354.821875 90.563721 
L 354.821875 90.563721 
" style="fill:none;stroke:#9467bd;stroke-linecap:square;stroke-width:2;"/>
   </g>
   <g id="line2d_50">
    <path clip-path="url(#p5c0f9c195a)" d="M 76.5 447.807907 
L 76.5 375.606977 
L 81.339796 375.606977 
L 80.660526 363.573488 
L 80.039552 348.531628 
L 79.683221 337.250233 
L 82.824 337.250233 
L 82.503797 331.233488 
L 85.449057 331.233488 
L 85.071687 325.968837 
L 87.860479 325.968837 
L 87.341143 319.952093 
L 92.577966 319.952093 
L 92.136264 316.191628 
L 94.642623 316.191628 
L 93.268182 304.910233 
L 92.385646 296.637209 
L 94.568571 296.637209 
L 94.148372 292.876744 
L 96.2625 292.876744 
L 96.081193 291.372558 
L 100.215 291.372558 
L 99.791518 288.364186 
L 101.796 288.364186 
L 101.463158 286.107907 
L 103.425328 286.107907 
L 102.298745 278.586977 
L 107.858678 278.586977 
L 106.028405 267.305581 
L 107.752326 267.305581 
L 107.275191 264.297209 
L 108.961597 264.297209 
L 108.35597 260.536744 
L 113.253875 260.536744 
L 113.11875 259.784651 
L 114.721978 259.784651 
L 114.582482 259.032558 
L 116.168727 259.032558 
L 114.510105 250.007442 
L 117.529412 250.007442 
L 115.377049 237.973953 
L 115.25 237.22186 
L 116.66873 237.22186 
L 116.538312 236.469767 
L 119.34 236.469767 
L 119.202251 235.717674 
L 121.960064 235.717674 
L 121.815287 234.965581 
L 123.177143 234.965581 
L 122.736792 232.709302 
L 126.737383 232.709302 
L 125.966871 228.948837 
L 128.557317 228.948837 
L 127.622156 224.436279 
L 130.141071 224.436279 
L 129.666372 222.18 
L 132.136364 222.18 
L 131.973684 221.427907 
L 133.194752 221.427907 
L 133.029942 220.675814 
L 134.24087 220.675814 
L 134.073988 219.923721 
L 135.274928 219.923721 
L 134.938109 218.419535 
L 136.126286 218.419535 
L 134.957143 213.154884 
L 136.118715 213.154884 
L 135.623269 210.898605 
L 136.770166 210.898605 
L 136.274795 208.642326 
L 137.407377 208.642326 
L 137.241417 207.890233 
L 138.365217 207.890233 
L 138.030811 206.386047 
L 139.143396 206.386047 
L 138.640909 204.129767 
L 141.92069 204.129767 
L 141.064398 200.369302 
L 143.198438 200.369302 
L 142.85285 198.865116 
L 144.95567 198.865116 
L 143.572727 192.848372 
L 144.598489 192.848372 
L 144.427387 192.096279 
L 146.45925 192.096279 
L 145.595556 188.335814 
L 146.593596 188.335814 
L 146.25 186.831628 
L 147.23912 186.831628 
L 147.066585 186.079535 
L 148.048905 186.079535 
L 147.188942 182.31907 
L 152.927488 182.31907 
L 151.68042 177.054419 
L 152.608605 177.054419 
L 152.432019 176.302326 
L 153.354167 176.302326 
L 153.176674 175.550233 
L 155.004828 175.550233 
L 154.467123 173.293953 
L 157.163265 173.293953 
L 156.980769 172.54186 
L 158.75473 172.54186 
L 158.385874 171.037674 
L 160.137723 171.037674 
L 159.581375 168.781395 
L 160.446903 168.781395 
L 160.261589 168.029302 
L 161.978242 168.029302 
L 161.790789 167.277209 
L 163.48952 167.277209 
L 163.3 166.525116 
L 165.816234 166.525116 
L 165.43125 165.02093 
L 167.085193 165.02093 
L 166.505757 162.764651 
L 170.559494 162.764651 
L 169.967925 160.508372 
L 170.764644 160.508372 
L 170.176715 158.252093 
L 170.96639 158.252093 
L 170.770807 157.5 
L 172.337938 157.5 
L 172.140741 156.747907 
L 172.918275 156.747907 
L 172.327959 154.491628 
L 174.631034 154.491628 
L 174.432389 153.739535 
L 175.192727 153.739535 
L 174.795573 152.235349 
L 181.483399 152.235349 
L 181.276331 151.483256 
L 184.884961 151.483256 
L 184.044767 148.474884 
L 186.16474 148.474884 
L 185.953846 147.722791 
L 186.654127 147.722791 
L 186.443103 146.970698 
L 187.833779 146.970698 
L 187.410456 145.466512 
L 193.523551 145.466512 
L 193.305224 144.714419 
L 195.953333 144.714419 
L 195.732532 143.962326 
L 197.690625 143.962326 
L 197.468257 143.210233 
L 214.146503 143.210233 
L 213.428348 140.953953 
L 216.912392 140.953953 
L 216.671134 140.20186 
L 225.066332 140.20186 
L 224.817893 139.449767 
L 228.056126 139.449767 
L 227.555941 137.945581 
L 233.318801 137.945581 
L 233.065049 137.193488 
L 233.578352 137.193488 
L 233.325 136.441395 
L 238.364286 136.441395 
L 238.107765 135.689302 
L 239.095735 135.689302 
L 238.839274 134.937209 
L 243.205754 134.937209 
L 242.946894 134.185116 
L 246.257143 134.185116 
L 245.996779 133.433023 
L 246.463553 133.433023 
L 246.20367 132.68093 
L 248.972727 132.68093 
L 248.451662 131.176744 
L 252.507004 131.176744 
L 252.245089 130.424651 
L 258.338047 130.424651 
L 258.073362 129.672558 
L 258.498837 129.672558 
L 258.234688 128.920465 
L 261.177155 128.920465 
L 260.912195 128.168372 
L 263.794602 128.168372 
L 263.528936 127.416279 
L 265.149647 127.416279 
L 264.883944 126.664186 
L 266.086957 126.664186 
L 265.821429 125.912093 
L 271.301786 125.912093 
L 271.034568 125.16 
L 274.446341 125.16 
L 274.178484 124.407907 
L 274.925101 124.407907 
L 274.657682 123.655814 
L 276.872727 123.655814 
L 276.605207 122.903721 
L 276.9708 122.903721 
L 276.703862 122.151628 
L 279.235092 122.151628 
L 278.967984 121.399535 
L 281.803259 121.399535 
L 281.535938 120.647442 
L 290.024716 120.647442 
L 289.755793 119.895349 
L 294.912222 119.895349 
L 294.374261 118.391163 
L 298.414909 118.391163 
L 298.146247 117.63907 
L 303.241281 117.63907 
L 302.97263 116.886977 
L 307.583372 116.886977 
L 307.314983 116.134884 
L 314.718243 116.134884 
L 314.450281 115.382791 
L 323.402922 115.382791 
L 323.136 114.630698 
L 338.298285 114.630698 
L 338.034375 113.878605 
L 353.728571 113.878605 
L 353.469963 113.126512 
L 360.909695 113.126512 
L 360.654619 112.374419 
L 361.334316 112.374419 
L 361.08 111.622326 
L 366.35 111.622326 
L 366.35 111.622326 
" style="fill:none;stroke:#8c564b;stroke-linecap:square;stroke-width:2;"/>
   </g>
   <g id="patch_3">
    <path d="M 76.5 448.56 
L 76.5 60.48 
" style="fill:none;stroke:#000000;stroke-linecap:square;stroke-linejoin:miter;stroke-width:0.8;"/>
   </g>
   <g id="patch_4">
    <path d="M 550.8 448.56 
L 550.8 60.48 
" style="fill:none;stroke:#000000;stroke-linecap:square;stroke-linejoin:miter;stroke-width:0.8;"/>
   </g>
   <g id="patch_5">
    <path d="M 76.5 448.56 
L 550.8 448.56 
" style="fill:none;stroke:#000000;stroke-linecap:square;stroke-linejoin:miter;stroke-width:0.8;"/>
   </g>
   <g id="patch_6">
    <path d="M 76.5 60.48 
L 550.8 60.48 
" style="fill:none;stroke:#000000;stroke-linecap:square;stroke-linejoin:miter;stroke-width:0.8;"/>
   </g>
   <g id="text_25">
    <!-- leuven: img1-img6 -->
    <defs>
     <path d="M 9.421875 75.984375 
L 18.40625 75.984375 
L 18.40625 0 
L 9.421875 0 
z
" id="DejaVuSans-108"/>
     <path d="M 8.5 21.578125 
L 8.5 54.6875 
L 17.484375 54.6875 
L 17.484375 21.921875 
Q 17.484375 14.15625 20.5 10.265625 
Q 23.53125 6.390625 29.59375 6.390625 
Q 36.859375 6.390625 41.078125 11.03125 
Q 45.3125 15.671875 45.3125 23.6875 
L 45.3125 54.6875 
L 54.296875 54.6875 
L 54.296875 0 
L 45.3125 0 
L 45.3125 8.40625 
Q 42.046875 3.421875 37.71875 1 
Q 33.40625 -1.421875 27.6875 -1.421875 
Q 18.265625 -1.421875 13.375 4.4375 
Q 8.5 10.296875 8.5 21.578125 
z
M 31.109375 56 
z
" id="DejaVuSans-117"/>
     <path d="M 2.984375 54.6875 
L 12.5 54.6875 
L 29.59375 8.796875 
L 46.6875 54.6875 
L 56.203125 54.6875 
L 35.6875 0 
L 23.484375 0 
z
" id="DejaVuSans-118"/>
     <path d="M 11.71875 12.40625 
L 22.015625 12.40625 
L 22.015625 0 
L 11.71875 0 
z
M 11.71875 51.703125 
L 22.015625 51.703125 
L 22.015625 39.3125 
L 11.71875 39.3125 
z
" id="DejaVuSans-58"/>
     <path id="DejaVuSans-32"/>
     <path d="M 52 44.1875 
Q 55.375 50.25 60.0625 53.125 
Q 64.75 56 71.09375 56 
Q 79.640625 56 84.28125 50.015625 
Q 88.921875 44.046875 88.921875 33.015625 
L 88.921875 0 
L 79.890625 0 
L 79.890625 32.71875 
Q 79.890625 40.578125 77.09375 44.375 
Q 74.3125 48.1875 68.609375 48.1875 
Q 61.625 48.1875 57.5625 43.546875 
Q 53.515625 38.921875 53.515625 30.90625 
L 53.515625 0 
L 44.484375 0 
L 44.484375 32.71875 
Q 44.484375 40.625 41.703125 44.40625 
Q 38.921875 48.1875 33.109375 48.1875 
Q 26.21875 48.1875 22.15625 43.53125 
Q 18.109375 38.875 18.109375 30.90625 
L 18.109375 0 
L 9.078125 0 
L 9.078125 54.6875 
L 18.109375 54.6875 
L 18.109375 46.1875 
Q 21.1875 51.21875 25.484375 53.609375 
Q 29.78125 56 35.6875 56 
Q 41.65625 56 45.828125 52.96875 
Q 50 49.953125 52 44.1875 
z
" id="DejaVuSans-109"/>
     <path d="M 45.40625 27.984375 
Q 45.40625 37.75 41.375 43.109375 
Q 37.359375 48.484375 30.078125 48.484375 
Q 22.859375 48.484375 18.828125 43.109375 
Q 14.796875 37.75 14.796875 27.984375 
Q 14.796875 18.265625 18.828125 12.890625 
Q 22.859375 7.515625 30.078125 7.515625 
Q 37.359375 7.515625 41.375 12.890625 
Q 45.40625 18.265625 45.40625 27.984375 
z
M 54.390625 6.78125 
Q 54.390625 -7.171875 48.1875 -13.984375 
Q 42 -20.796875 29.203125 -20.796875 
Q 24.46875 -20.796875 20.265625 -20.09375 
Q 16.0625 -19.390625 12.109375 -17.921875 
L 12.109375 -9.1875 
Q 16.0625 -11.328125 19.921875 -12.34375 
Q 23.78125 -13.375 27.78125 -13.375 
Q 36.625 -13.375 41.015625 -8.765625 
Q 45.40625 -4.15625 45.40625 5.171875 
L 45.40625 9.625 
Q 42.625 4.78125 38.28125 2.390625 
Q 33.9375 0 27.875 0 
Q 17.828125 0 11.671875 7.65625 
Q 5.515625 15.328125 5.515625 27.984375 
Q 5.515625 40.671875 11.671875 48.328125 
Q 17.828125 56 27.875 56 
Q 33.9375 56 38.28125 53.609375 
Q 42.625 51.21875 45.40625 46.390625 
L 45.40625 54.6875 
L 54.390625 54.6875 
z
" id="DejaVuSans-103"/>
    </defs>
    <g transform="translate(257.074688 41.042625)scale(0.12 -0.12)">
     <use xlink:href="#DejaVuSans-108"/>
     <use x="27.783203" xlink:href="#DejaVuSans-101"/>
     <use x="89.306641" xlink:href="#DejaVuSans-117"/>
     <use x="152.685547" xlink:href="#DejaVuSans-118"/>
     <use x="211.865234" xlink:href="#DejaVuSans-101"/>
     <use x="273.388672" xlink:href="#DejaVuSans-110"/>
     <use x="336.767578" xlink:href="#DejaVuSans-58"/>
     <use x="370.458984" xlink:href="#DejaVuSans-32"/>
     <use x="402.246094" xlink:href="#DejaVuSans-105"/>
     <use x="430.029297" xlink:href="#DejaVuSans-109"/>
     <use x="527.441406" xlink:href="#DejaVuSans-103"/>
     <use x="590.917969" xlink:href="#DejaVuSans-49"/>
     <use x="654.541016" xlink:href="#DejaVuSans-45"/>
     <use x="690.625" xlink:href="#DejaVuSans-105"/>
     <use x="718.408203" xlink:href="#DejaVuSans-109"/>
     <use x="815.820312" xlink:href="#DejaVuSans-103"/>
     <use x="879.296875" xlink:href="#DejaVuSans-54"/>
    </g>
    <!-- NearestNeighbours -->
    <defs>
     <path d="M 9.8125 72.90625 
L 23.09375 72.90625 
L 55.421875 11.921875 
L 55.421875 72.90625 
L 64.984375 72.90625 
L 64.984375 0 
L 51.703125 0 
L 19.390625 60.984375 
L 19.390625 0 
L 9.8125 0 
z
" id="DejaVuSans-78"/>
     <path d="M 34.28125 27.484375 
Q 23.390625 27.484375 19.1875 25 
Q 14.984375 22.515625 14.984375 16.5 
Q 14.984375 11.71875 18.140625 8.90625 
Q 21.296875 6.109375 26.703125 6.109375 
Q 34.1875 6.109375 38.703125 11.40625 
Q 43.21875 16.703125 43.21875 25.484375 
L 43.21875 27.484375 
z
M 52.203125 31.203125 
L 52.203125 0 
L 43.21875 0 
L 43.21875 8.296875 
Q 40.140625 3.328125 35.546875 0.953125 
Q 30.953125 -1.421875 24.3125 -1.421875 
Q 15.921875 -1.421875 10.953125 3.296875 
Q 6 8.015625 6 15.921875 
Q 6 25.140625 12.171875 29.828125 
Q 18.359375 34.515625 30.609375 34.515625 
L 43.21875 34.515625 
L 43.21875 35.40625 
Q 43.21875 41.609375 39.140625 45 
Q 35.0625 48.390625 27.6875 48.390625 
Q 23 48.390625 18.546875 47.265625 
Q 14.109375 46.140625 10.015625 43.890625 
L 10.015625 52.203125 
Q 14.9375 54.109375 19.578125 55.046875 
Q 24.21875 56 28.609375 56 
Q 40.484375 56 46.34375 49.84375 
Q 52.203125 43.703125 52.203125 31.203125 
z
" id="DejaVuSans-97"/>
     <path d="M 54.890625 33.015625 
L 54.890625 0 
L 45.90625 0 
L 45.90625 32.71875 
Q 45.90625 40.484375 42.875 44.328125 
Q 39.84375 48.1875 33.796875 48.1875 
Q 26.515625 48.1875 22.3125 43.546875 
Q 18.109375 38.921875 18.109375 30.90625 
L 18.109375 0 
L 9.078125 0 
L 9.078125 75.984375 
L 18.109375 75.984375 
L 18.109375 46.1875 
Q 21.34375 51.125 25.703125 53.5625 
Q 30.078125 56 35.796875 56 
Q 45.21875 56 50.046875 50.171875 
Q 54.890625 44.34375 54.890625 33.015625 
z
" id="DejaVuSans-104"/>
     <path d="M 48.6875 27.296875 
Q 48.6875 37.203125 44.609375 42.84375 
Q 40.53125 48.484375 33.40625 48.484375 
Q 26.265625 48.484375 22.1875 42.84375 
Q 18.109375 37.203125 18.109375 27.296875 
Q 18.109375 17.390625 22.1875 11.75 
Q 26.265625 6.109375 33.40625 6.109375 
Q 40.53125 6.109375 44.609375 11.75 
Q 48.6875 17.390625 48.6875 27.296875 
z
M 18.109375 46.390625 
Q 20.953125 51.265625 25.265625 53.625 
Q 29.59375 56 35.59375 56 
Q 45.5625 56 51.78125 48.09375 
Q 58.015625 40.1875 58.015625 27.296875 
Q 58.015625 14.40625 51.78125 6.484375 
Q 45.5625 -1.421875 35.59375 -1.421875 
Q 29.59375 -1.421875 25.265625 0.953125 
Q 20.953125 3.328125 18.109375 8.203125 
L 18.109375 0 
L 9.078125 0 
L 9.078125 75.984375 
L 18.109375 75.984375 
z
" id="DejaVuSans-98"/>
    </defs>
    <g transform="translate(255.957188 54.48)scale(0.12 -0.12)">
     <use xlink:href="#DejaVuSans-78"/>
     <use x="74.804688" xlink:href="#DejaVuSans-101"/>
     <use x="136.328125" xlink:href="#DejaVuSans-97"/>
     <use x="197.607422" xlink:href="#DejaVuSans-114"/>
     <use x="236.470703" xlink:href="#DejaVuSans-101"/>
     <use x="297.994141" xlink:href="#DejaVuSans-115"/>
     <use x="350.09375" xlink:href="#DejaVuSans-116"/>
     <use x="389.302734" xlink:href="#DejaVuSans-78"/>
     <use x="464.107422" xlink:href="#DejaVuSans-101"/>
     <use x="525.630859" xlink:href="#DejaVuSans-105"/>
     <use x="553.414062" xlink:href="#DejaVuSans-103"/>
     <use x="616.890625" xlink:href="#DejaVuSans-104"/>
     <use x="680.269531" xlink:href="#DejaVuSans-98"/>
     <use x="743.746094" xlink:href="#DejaVuSans-111"/>
     <use x="804.927734" xlink:href="#DejaVuSans-117"/>
     <use x="868.306641" xlink:href="#DejaVuSans-114"/>
     <use x="909.419922" xlink:href="#DejaVuSans-115"/>
    </g>
   </g>
   <g id="legend_1">
    <g id="patch_7">
     <path d="M 362.659375 443.56 
L 543.8 443.56 
Q 545.8 443.56 545.8 441.56 
L 545.8 354.49125 
Q 545.8 352.49125 543.8 352.49125 
L 362.659375 352.49125 
Q 360.659375 352.49125 360.659375 354.49125 
L 360.659375 441.56 
Q 360.659375 443.56 362.659375 443.56 
z
" style="fill:#ffffff;opacity:0.8;stroke:#cccccc;stroke-linejoin:miter;"/>
    </g>
    <g id="line2d_51">
     <path d="M 364.659375 360.589688 
L 384.659375 360.589688 
" style="fill:none;stroke:#1f77b4;stroke-linecap:square;stroke-width:2;"/>
    </g>
    <g id="line2d_52"/>
    <g id="text_26">
     <!-- root-cvsift AP: 81.0, %In: 39.7 -->
     <defs>
      <path d="M 37.109375 75.984375 
L 37.109375 68.5 
L 28.515625 68.5 
Q 23.6875 68.5 21.796875 66.546875 
Q 19.921875 64.59375 19.921875 59.515625 
L 19.921875 54.6875 
L 34.71875 54.6875 
L 34.71875 47.703125 
L 19.921875 47.703125 
L 19.921875 0 
L 10.890625 0 
L 10.890625 47.703125 
L 2.296875 47.703125 
L 2.296875 54.6875 
L 10.890625 54.6875 
L 10.890625 58.5 
Q 10.890625 67.625 15.140625 71.796875 
Q 19.390625 75.984375 28.609375 75.984375 
z
" id="DejaVuSans-102"/>
      <path d="M 34.1875 63.1875 
L 20.796875 26.90625 
L 47.609375 26.90625 
z
M 28.609375 72.90625 
L 39.796875 72.90625 
L 67.578125 0 
L 57.328125 0 
L 50.6875 18.703125 
L 17.828125 18.703125 
L 11.1875 0 
L 0.78125 0 
z
" id="DejaVuSans-65"/>
      <path d="M 19.671875 64.796875 
L 19.671875 37.40625 
L 32.078125 37.40625 
Q 38.96875 37.40625 42.71875 40.96875 
Q 46.484375 44.53125 46.484375 51.125 
Q 46.484375 57.671875 42.71875 61.234375 
Q 38.96875 64.796875 32.078125 64.796875 
z
M 9.8125 72.90625 
L 32.078125 72.90625 
Q 44.34375 72.90625 50.609375 67.359375 
Q 56.890625 61.8125 56.890625 51.125 
Q 56.890625 40.328125 50.609375 34.8125 
Q 44.34375 29.296875 32.078125 29.296875 
L 19.671875 29.296875 
L 19.671875 0 
L 9.8125 0 
z
" id="DejaVuSans-80"/>
      <path d="M 11.71875 12.40625 
L 22.015625 12.40625 
L 22.015625 4 
L 14.015625 -11.625 
L 7.71875 -11.625 
L 11.71875 4 
z
" id="DejaVuSans-44"/>
      <path d="M 72.703125 32.078125 
Q 68.453125 32.078125 66.03125 28.46875 
Q 63.625 24.859375 63.625 18.40625 
Q 63.625 12.0625 66.03125 8.421875 
Q 68.453125 4.78125 72.703125 4.78125 
Q 76.859375 4.78125 79.265625 8.421875 
Q 81.6875 12.0625 81.6875 18.40625 
Q 81.6875 24.8125 79.265625 28.4375 
Q 76.859375 32.078125 72.703125 32.078125 
z
M 72.703125 38.28125 
Q 80.421875 38.28125 84.953125 32.90625 
Q 89.5 27.546875 89.5 18.40625 
Q 89.5 9.28125 84.9375 3.921875 
Q 80.375 -1.421875 72.703125 -1.421875 
Q 64.890625 -1.421875 60.34375 3.921875 
Q 55.8125 9.28125 55.8125 18.40625 
Q 55.8125 27.59375 60.375 32.9375 
Q 64.9375 38.28125 72.703125 38.28125 
z
M 22.3125 68.015625 
Q 18.109375 68.015625 15.6875 64.375 
Q 13.28125 60.75 13.28125 54.390625 
Q 13.28125 47.953125 15.671875 44.328125 
Q 18.0625 40.71875 22.3125 40.71875 
Q 26.5625 40.71875 28.96875 44.328125 
Q 31.390625 47.953125 31.390625 54.390625 
Q 31.390625 60.6875 28.953125 64.34375 
Q 26.515625 68.015625 22.3125 68.015625 
z
M 66.40625 74.21875 
L 74.21875 74.21875 
L 28.609375 -1.421875 
L 20.796875 -1.421875 
z
M 22.3125 74.21875 
Q 30.03125 74.21875 34.609375 68.875 
Q 39.203125 63.53125 39.203125 54.390625 
Q 39.203125 45.171875 34.640625 39.84375 
Q 30.078125 34.515625 22.3125 34.515625 
Q 14.546875 34.515625 10.03125 39.859375 
Q 5.515625 45.21875 5.515625 54.390625 
Q 5.515625 63.484375 10.046875 68.84375 
Q 14.59375 74.21875 22.3125 74.21875 
z
" id="DejaVuSans-37"/>
      <path d="M 9.8125 72.90625 
L 19.671875 72.90625 
L 19.671875 0 
L 9.8125 0 
z
" id="DejaVuSans-73"/>
     </defs>
     <g transform="translate(392.659375 364.089688)scale(0.1 -0.1)">
      <use xlink:href="#DejaVuSans-114"/>
      <use x="38.863281" xlink:href="#DejaVuSans-111"/>
      <use x="100.044922" xlink:href="#DejaVuSans-111"/>
      <use x="161.226562" xlink:href="#DejaVuSans-116"/>
      <use x="200.435547" xlink:href="#DejaVuSans-45"/>
      <use x="236.519531" xlink:href="#DejaVuSans-99"/>
      <use x="291.5" xlink:href="#DejaVuSans-118"/>
      <use x="350.679688" xlink:href="#DejaVuSans-115"/>
      <use x="402.779297" xlink:href="#DejaVuSans-105"/>
      <use x="430.5625" xlink:href="#DejaVuSans-102"/>
      <use x="464.017578" xlink:href="#DejaVuSans-116"/>
      <use x="503.226562" xlink:href="#DejaVuSans-32"/>
      <use x="535.013672" xlink:href="#DejaVuSans-65"/>
      <use x="603.421875" xlink:href="#DejaVuSans-80"/>
      <use x="663.724609" xlink:href="#DejaVuSans-58"/>
      <use x="697.416016" xlink:href="#DejaVuSans-32"/>
      <use x="729.203125" xlink:href="#DejaVuSans-56"/>
      <use x="792.826172" xlink:href="#DejaVuSans-49"/>
      <use x="856.449219" xlink:href="#DejaVuSans-46"/>
      <use x="888.236328" xlink:href="#DejaVuSans-48"/>
      <use x="951.859375" xlink:href="#DejaVuSans-44"/>
      <use x="983.646484" xlink:href="#DejaVuSans-32"/>
      <use x="1015.433594" xlink:href="#DejaVuSans-37"/>
      <use x="1110.453125" xlink:href="#DejaVuSans-73"/>
      <use x="1139.945312" xlink:href="#DejaVuSans-110"/>
      <use x="1203.324219" xlink:href="#DejaVuSans-58"/>
      <use x="1237.015625" xlink:href="#DejaVuSans-32"/>
      <use x="1268.802734" xlink:href="#DejaVuSans-51"/>
      <use x="1332.425781" xlink:href="#DejaVuSans-57"/>
      <use x="1396.048828" xlink:href="#DejaVuSans-46"/>
      <use x="1427.835938" xlink:href="#DejaVuSans-55"/>
     </g>
    </g>
    <g id="line2d_53">
     <path d="M 364.659375 375.267812 
L 384.659375 375.267812 
" style="fill:none;stroke:#ff7f0e;stroke-linecap:square;stroke-width:2;"/>
    </g>
    <g id="line2d_54"/>
    <g id="text_27">
     <!-- orb AP: 75.1, %In: 37.7 -->
     <g transform="translate(392.659375 378.767812)scale(0.1 -0.1)">
      <use xlink:href="#DejaVuSans-111"/>
      <use x="61.181641" xlink:href="#DejaVuSans-114"/>
      <use x="102.294922" xlink:href="#DejaVuSans-98"/>
      <use x="165.771484" xlink:href="#DejaVuSans-32"/>
      <use x="197.558594" xlink:href="#DejaVuSans-65"/>
      <use x="265.966797" xlink:href="#DejaVuSans-80"/>
      <use x="326.269531" xlink:href="#DejaVuSans-58"/>
      <use x="359.960938" xlink:href="#DejaVuSans-32"/>
      <use x="391.748047" xlink:href="#DejaVuSans-55"/>
      <use x="455.371094" xlink:href="#DejaVuSans-53"/>
      <use x="518.994141" xlink:href="#DejaVuSans-46"/>
      <use x="550.78125" xlink:href="#DejaVuSans-49"/>
      <use x="614.404297" xlink:href="#DejaVuSans-44"/>
      <use x="646.191406" xlink:href="#DejaVuSans-32"/>
      <use x="677.978516" xlink:href="#DejaVuSans-37"/>
      <use x="772.998047" xlink:href="#DejaVuSans-73"/>
      <use x="802.490234" xlink:href="#DejaVuSans-110"/>
      <use x="865.869141" xlink:href="#DejaVuSans-58"/>
      <use x="899.560547" xlink:href="#DejaVuSans-32"/>
      <use x="931.347656" xlink:href="#DejaVuSans-51"/>
      <use x="994.970703" xlink:href="#DejaVuSans-55"/>
      <use x="1058.59375" xlink:href="#DejaVuSans-46"/>
      <use x="1090.380859" xlink:href="#DejaVuSans-55"/>
     </g>
    </g>
    <g id="line2d_55">
     <path d="M 364.659375 389.945938 
L 384.659375 389.945938 
" style="fill:none;stroke:#2ca02c;stroke-linecap:square;stroke-width:2;"/>
    </g>
    <g id="line2d_56"/>
    <g id="text_28">
     <!-- binboost AP: 60.5, %In: 36.4 -->
     <g transform="translate(392.659375 393.445938)scale(0.1 -0.1)">
      <use xlink:href="#DejaVuSans-98"/>
      <use x="63.476562" xlink:href="#DejaVuSans-105"/>
      <use x="91.259766" xlink:href="#DejaVuSans-110"/>
      <use x="154.638672" xlink:href="#DejaVuSans-98"/>
      <use x="218.115234" xlink:href="#DejaVuSans-111"/>
      <use x="279.296875" xlink:href="#DejaVuSans-111"/>
      <use x="340.478516" xlink:href="#DejaVuSans-115"/>
      <use x="392.578125" xlink:href="#DejaVuSans-116"/>
      <use x="431.787109" xlink:href="#DejaVuSans-32"/>
      <use x="463.574219" xlink:href="#DejaVuSans-65"/>
      <use x="531.982422" xlink:href="#DejaVuSans-80"/>
      <use x="592.285156" xlink:href="#DejaVuSans-58"/>
      <use x="625.976562" xlink:href="#DejaVuSans-32"/>
      <use x="657.763672" xlink:href="#DejaVuSans-54"/>
      <use x="721.386719" xlink:href="#DejaVuSans-48"/>
      <use x="785.009766" xlink:href="#DejaVuSans-46"/>
      <use x="816.796875" xlink:href="#DejaVuSans-53"/>
      <use x="880.419922" xlink:href="#DejaVuSans-44"/>
      <use x="912.207031" xlink:href="#DejaVuSans-32"/>
      <use x="943.994141" xlink:href="#DejaVuSans-37"/>
      <use x="1039.013672" xlink:href="#DejaVuSans-73"/>
      <use x="1068.505859" xlink:href="#DejaVuSans-110"/>
      <use x="1131.884766" xlink:href="#DejaVuSans-58"/>
      <use x="1165.576172" xlink:href="#DejaVuSans-32"/>
      <use x="1197.363281" xlink:href="#DejaVuSans-51"/>
      <use x="1260.986328" xlink:href="#DejaVuSans-54"/>
      <use x="1324.609375" xlink:href="#DejaVuSans-46"/>
      <use x="1356.396484" xlink:href="#DejaVuSans-52"/>
     </g>
    </g>
    <g id="line2d_57">
     <path d="M 364.659375 404.624063 
L 384.659375 404.624063 
" style="fill:none;stroke:#d62728;stroke-linecap:square;stroke-width:2;"/>
    </g>
    <g id="line2d_58"/>
    <g id="text_29">
     <!-- tfeat AP: 71.3, %In: 38.2 -->
     <g transform="translate(392.659375 408.124063)scale(0.1 -0.1)">
      <use xlink:href="#DejaVuSans-116"/>
      <use x="39.208984" xlink:href="#DejaVuSans-102"/>
      <use x="74.414062" xlink:href="#DejaVuSans-101"/>
      <use x="135.9375" xlink:href="#DejaVuSans-97"/>
      <use x="197.216797" xlink:href="#DejaVuSans-116"/>
      <use x="236.425781" xlink:href="#DejaVuSans-32"/>
      <use x="268.212891" xlink:href="#DejaVuSans-65"/>
      <use x="336.621094" xlink:href="#DejaVuSans-80"/>
      <use x="396.923828" xlink:href="#DejaVuSans-58"/>
      <use x="430.615234" xlink:href="#DejaVuSans-32"/>
      <use x="462.402344" xlink:href="#DejaVuSans-55"/>
      <use x="526.025391" xlink:href="#DejaVuSans-49"/>
      <use x="589.648438" xlink:href="#DejaVuSans-46"/>
      <use x="621.435547" xlink:href="#DejaVuSans-51"/>
      <use x="685.058594" xlink:href="#DejaVuSans-44"/>
      <use x="716.845703" xlink:href="#DejaVuSans-32"/>
      <use x="748.632812" xlink:href="#DejaVuSans-37"/>
      <use x="843.652344" xlink:href="#DejaVuSans-73"/>
      <use x="873.144531" xlink:href="#DejaVuSans-110"/>
      <use x="936.523438" xlink:href="#DejaVuSans-58"/>
      <use x="970.214844" xlink:href="#DejaVuSans-32"/>
      <use x="1002.001953" xlink:href="#DejaVuSans-51"/>
      <use x="1065.625" xlink:href="#DejaVuSans-56"/>
      <use x="1129.248047" xlink:href="#DejaVuSans-46"/>
      <use x="1161.035156" xlink:href="#DejaVuSans-50"/>
     </g>
    </g>
    <g id="line2d_59">
     <path d="M 364.659375 419.302188 
L 384.659375 419.302188 
" style="fill:none;stroke:#9467bd;stroke-linecap:square;stroke-width:2;"/>
    </g>
    <g id="line2d_60"/>
    <g id="text_30">
     <!-- hardnet AP: 85.2, %In: 41.3 -->
     <defs>
      <path d="M 45.40625 46.390625 
L 45.40625 75.984375 
L 54.390625 75.984375 
L 54.390625 0 
L 45.40625 0 
L 45.40625 8.203125 
Q 42.578125 3.328125 38.25 0.953125 
Q 33.9375 -1.421875 27.875 -1.421875 
Q 17.96875 -1.421875 11.734375 6.484375 
Q 5.515625 14.40625 5.515625 27.296875 
Q 5.515625 40.1875 11.734375 48.09375 
Q 17.96875 56 27.875 56 
Q 33.9375 56 38.25 53.625 
Q 42.578125 51.265625 45.40625 46.390625 
z
M 14.796875 27.296875 
Q 14.796875 17.390625 18.875 11.75 
Q 22.953125 6.109375 30.078125 6.109375 
Q 37.203125 6.109375 41.296875 11.75 
Q 45.40625 17.390625 45.40625 27.296875 
Q 45.40625 37.203125 41.296875 42.84375 
Q 37.203125 48.484375 30.078125 48.484375 
Q 22.953125 48.484375 18.875 42.84375 
Q 14.796875 37.203125 14.796875 27.296875 
z
" id="DejaVuSans-100"/>
     </defs>
     <g transform="translate(392.659375 422.802188)scale(0.1 -0.1)">
      <use xlink:href="#DejaVuSans-104"/>
      <use x="63.378906" xlink:href="#DejaVuSans-97"/>
      <use x="124.658203" xlink:href="#DejaVuSans-114"/>
      <use x="164.021484" xlink:href="#DejaVuSans-100"/>
      <use x="227.498047" xlink:href="#DejaVuSans-110"/>
      <use x="290.876953" xlink:href="#DejaVuSans-101"/>
      <use x="352.400391" xlink:href="#DejaVuSans-116"/>
      <use x="391.609375" xlink:href="#DejaVuSans-32"/>
      <use x="423.396484" xlink:href="#DejaVuSans-65"/>
      <use x="491.804688" xlink:href="#DejaVuSans-80"/>
      <use x="552.107422" xlink:href="#DejaVuSans-58"/>
      <use x="585.798828" xlink:href="#DejaVuSans-32"/>
      <use x="617.585938" xlink:href="#DejaVuSans-56"/>
      <use x="681.208984" xlink:href="#DejaVuSans-53"/>
      <use x="744.832031" xlink:href="#DejaVuSans-46"/>
      <use x="776.619141" xlink:href="#DejaVuSans-50"/>
      <use x="840.242188" xlink:href="#DejaVuSans-44"/>
      <use x="872.029297" xlink:href="#DejaVuSans-32"/>
      <use x="903.816406" xlink:href="#DejaVuSans-37"/>
      <use x="998.835938" xlink:href="#DejaVuSans-73"/>
      <use x="1028.328125" xlink:href="#DejaVuSans-110"/>
      <use x="1091.707031" xlink:href="#DejaVuSans-58"/>
      <use x="1125.398438" xlink:href="#DejaVuSans-32"/>
      <use x="1157.185547" xlink:href="#DejaVuSans-52"/>
      <use x="1220.808594" xlink:href="#DejaVuSans-49"/>
      <use x="1284.431641" xlink:href="#DejaVuSans-46"/>
      <use x="1316.21875" xlink:href="#DejaVuSans-51"/>
     </g>
    </g>
    <g id="line2d_61">
     <path d="M 364.659375 433.980313 
L 384.659375 433.980313 
" style="fill:none;stroke:#8c564b;stroke-linecap:square;stroke-width:2;"/>
    </g>
    <g id="line2d_62"/>
    <g id="text_31">
     <!-- beblid AP: 78.2, %In: 38.9 -->
     <g transform="translate(392.659375 437.480313)scale(0.1 -0.1)">
      <use xlink:href="#DejaVuSans-98"/>
      <use x="63.476562" xlink:href="#DejaVuSans-101"/>
      <use x="125" xlink:href="#DejaVuSans-98"/>
      <use x="188.476562" xlink:href="#DejaVuSans-108"/>
      <use x="216.259766" xlink:href="#DejaVuSans-105"/>
      <use x="244.042969" xlink:href="#DejaVuSans-100"/>
      <use x="307.519531" xlink:href="#DejaVuSans-32"/>
      <use x="339.306641" xlink:href="#DejaVuSans-65"/>
      <use x="407.714844" xlink:href="#DejaVuSans-80"/>
      <use x="468.017578" xlink:href="#DejaVuSans-58"/>
      <use x="501.708984" xlink:href="#DejaVuSans-32"/>
      <use x="533.496094" xlink:href="#DejaVuSans-55"/>
      <use x="597.119141" xlink:href="#DejaVuSans-56"/>
      <use x="660.742188" xlink:href="#DejaVuSans-46"/>
      <use x="692.529297" xlink:href="#DejaVuSans-50"/>
      <use x="756.152344" xlink:href="#DejaVuSans-44"/>
      <use x="787.939453" xlink:href="#DejaVuSans-32"/>
      <use x="819.726562" xlink:href="#DejaVuSans-37"/>
      <use x="914.746094" xlink:href="#DejaVuSans-73"/>
      <use x="944.238281" xlink:href="#DejaVuSans-110"/>
      <use x="1007.617188" xlink:href="#DejaVuSans-58"/>
      <use x="1041.308594" xlink:href="#DejaVuSans-32"/>
      <use x="1073.095703" xlink:href="#DejaVuSans-51"/>
      <use x="1136.71875" xlink:href="#DejaVuSans-56"/>
      <use x="1200.341797" xlink:href="#DejaVuSans-46"/>
      <use x="1232.128906" xlink:href="#DejaVuSans-57"/>
     </g>
    </g>
   </g>
  </g>
 </g>
 <defs>
  <clipPath id="p5c0f9c195a">
   <rect height="388.08" width="474.3" x="76.5" y="60.48"/>
  </clipPath>
 </defs>
</svg>
