<?xml version="1.0" encoding="utf-8" standalone="no"?>
<!DOCTYPE svg PUBLIC "-//W3C//DTD SVG 1.1//EN"
  "http://www.w3.org/Graphics/SVG/1.1/DTD/svg11.dtd">
<!-- Created with matplotlib (https://matplotlib.org/) -->
<svg height="504pt" version="1.1" viewBox="0 0 612 504" width="612pt" xmlns="http://www.w3.org/2000/svg" xmlns:xlink="http://www.w3.org/1999/xlink">
 <defs>
  <style type="text/css">
*{stroke-linecap:butt;stroke-linejoin:round;}
  </style>
 </defs>
 <g id="figure_1">
  <g id="patch_1">
   <path d="M 0 504 
L 612 504 
L 612 0 
L 0 0 
z
" style="fill:#ffffff;"/>
  </g>
  <g id="axes_1">
   <g id="patch_2">
    <path d="M 76.5 448.56 
L 550.8 448.56 
L 550.8 60.48 
L 76.5 60.48 
z
" style="fill:#ffffff;"/>
   </g>
   <g id="matplotlib.axis_1">
    <g id="xtick_1">
     <g id="line2d_1">
      <path clip-path="url(#pd86267e806)" d="M 76.5 448.56 
L 76.5 60.48 
" style="fill:none;stroke:#b0b0b0;stroke-linecap:square;stroke-width:0.8;"/>
     </g>
     <g id="line2d_2">
      <defs>
       <path d="M 0 0 
L 0 3.5 
" id="m0f7c2646c6" style="stroke:#000000;stroke-width:0.8;"/>
      </defs>
      <g>
       <use style="stroke:#000000;stroke-width:0.8;" x="76.5" xlink:href="#m0f7c2646c6" y="448.56"/>
      </g>
     </g>
     <g id="text_1">
      <!-- 0.0 -->
      <defs>
       <path d="M 31.78125 66.40625 
Q 24.171875 66.40625 20.328125 58.90625 
Q 16.5 51.421875 16.5 36.375 
Q 16.5 21.390625 20.328125 13.890625 
Q 24.171875 6.390625 31.78125 6.390625 
Q 39.453125 6.390625 43.28125 13.890625 
Q 47.125 21.390625 47.125 36.375 
Q 47.125 51.421875 43.28125 58.90625 
Q 39.453125 66.40625 31.78125 66.40625 
z
M 31.78125 74.21875 
Q 44.046875 74.21875 50.515625 64.515625 
Q 56.984375 54.828125 56.984375 36.375 
Q 56.984375 17.96875 50.515625 8.265625 
Q 44.046875 -1.421875 31.78125 -1.421875 
Q 19.53125 -1.421875 13.0625 8.265625 
Q 6.59375 17.96875 6.59375 36.375 
Q 6.59375 54.828125 13.0625 64.515625 
Q 19.53125 74.21875 31.78125 74.21875 
z
" id="DejaVuSans-48"/>
       <path d="M 10.6875 12.40625 
L 21 12.40625 
L 21 0 
L 10.6875 0 
z
" id="DejaVuSans-46"/>
      </defs>
      <g transform="translate(68.548438 463.158437)scale(0.1 -0.1)">
       <use xlink:href="#DejaVuSans-48"/>
       <use x="63.623047" xlink:href="#DejaVuSans-46"/>
       <use x="95.410156" xlink:href="#DejaVuSans-48"/>
      </g>
     </g>
    </g>
    <g id="xtick_2">
     <g id="line2d_3">
      <path clip-path="url(#pd86267e806)" d="M 123.93 448.56 
L 123.93 60.48 
" style="fill:none;stroke:#b0b0b0;stroke-linecap:square;stroke-width:0.8;"/>
     </g>
     <g id="line2d_4">
      <g>
       <use style="stroke:#000000;stroke-width:0.8;" x="123.93" xlink:href="#m0f7c2646c6" y="448.56"/>
      </g>
     </g>
     <g id="text_2">
      <!-- 0.1 -->
      <defs>
       <path d="M 12.40625 8.296875 
L 28.515625 8.296875 
L 28.515625 63.921875 
L 10.984375 60.40625 
L 10.984375 69.390625 
L 28.421875 72.90625 
L 38.28125 72.90625 
L 38.28125 8.296875 
L 54.390625 8.296875 
L 54.390625 0 
L 12.40625 0 
z
" id="DejaVuSans-49"/>
      </defs>
      <g transform="translate(115.978438 463.158437)scale(0.1 -0.1)">
       <use xlink:href="#DejaVuSans-48"/>
       <use x="63.623047" xlink:href="#DejaVuSans-46"/>
       <use x="95.410156" xlink:href="#DejaVuSans-49"/>
      </g>
     </g>
    </g>
    <g id="xtick_3">
     <g id="line2d_5">
      <path clip-path="url(#pd86267e806)" d="M 171.36 448.56 
L 171.36 60.48 
" style="fill:none;stroke:#b0b0b0;stroke-linecap:square;stroke-width:0.8;"/>
     </g>
     <g id="line2d_6">
      <g>
       <use style="stroke:#000000;stroke-width:0.8;" x="171.36" xlink:href="#m0f7c2646c6" y="448.56"/>
      </g>
     </g>
     <g id="text_3">
      <!-- 0.2 -->
      <defs>
       <path d="M 19.1875 8.296875 
L 53.609375 8.296875 
L 53.609375 0 
L 7.328125 0 
L 7.328125 8.296875 
Q 12.9375 14.109375 22.625 23.890625 
Q 32.328125 33.6875 34.8125 36.53125 
Q 39.546875 41.84375 41.421875 45.53125 
Q 43.3125 49.21875 43.3125 52.78125 
Q 43.3125 58.59375 39.234375 62.25 
Q 35.15625 65.921875 28.609375 65.921875 
Q 23.96875 65.921875 18.8125 64.3125 
Q 13.671875 62.703125 7.8125 59.421875 
L 7.8125 69.390625 
Q 13.765625 71.78125 18.9375 73 
Q 24.125 74.21875 28.421875 74.21875 
Q 39.75 74.21875 46.484375 68.546875 
Q 53.21875 62.890625 53.21875 53.421875 
Q 53.21875 48.921875 51.53125 44.890625 
Q 49.859375 40.875 45.40625 35.40625 
Q 44.1875 33.984375 37.640625 27.21875 
Q 31.109375 20.453125 19.1875 8.296875 
z
" id="DejaVuSans-50"/>
      </defs>
      <g transform="translate(163.408438 463.158437)scale(0.1 -0.1)">
       <use xlink:href="#DejaVuSans-48"/>
       <use x="63.623047" xlink:href="#DejaVuSans-46"/>
       <use x="95.410156" xlink:href="#DejaVuSans-50"/>
      </g>
     </g>
    </g>
    <g id="xtick_4">
     <g id="line2d_7">
      <path clip-path="url(#pd86267e806)" d="M 218.79 448.56 
L 218.79 60.48 
" style="fill:none;stroke:#b0b0b0;stroke-linecap:square;stroke-width:0.8;"/>
     </g>
     <g id="line2d_8">
      <g>
       <use style="stroke:#000000;stroke-width:0.8;" x="218.79" xlink:href="#m0f7c2646c6" y="448.56"/>
      </g>
     </g>
     <g id="text_4">
      <!-- 0.3 -->
      <defs>
       <path d="M 40.578125 39.3125 
Q 47.65625 37.796875 51.625 33 
Q 55.609375 28.21875 55.609375 21.1875 
Q 55.609375 10.40625 48.1875 4.484375 
Q 40.765625 -1.421875 27.09375 -1.421875 
Q 22.515625 -1.421875 17.65625 -0.515625 
Q 12.796875 0.390625 7.625 2.203125 
L 7.625 11.71875 
Q 11.71875 9.328125 16.59375 8.109375 
Q 21.484375 6.890625 26.8125 6.890625 
Q 36.078125 6.890625 40.9375 10.546875 
Q 45.796875 14.203125 45.796875 21.1875 
Q 45.796875 27.640625 41.28125 31.265625 
Q 36.765625 34.90625 28.71875 34.90625 
L 20.21875 34.90625 
L 20.21875 43.015625 
L 29.109375 43.015625 
Q 36.375 43.015625 40.234375 45.921875 
Q 44.09375 48.828125 44.09375 54.296875 
Q 44.09375 59.90625 40.109375 62.90625 
Q 36.140625 65.921875 28.71875 65.921875 
Q 24.65625 65.921875 20.015625 65.03125 
Q 15.375 64.15625 9.8125 62.3125 
L 9.8125 71.09375 
Q 15.4375 72.65625 20.34375 73.4375 
Q 25.25 74.21875 29.59375 74.21875 
Q 40.828125 74.21875 47.359375 69.109375 
Q 53.90625 64.015625 53.90625 55.328125 
Q 53.90625 49.265625 50.4375 45.09375 
Q 46.96875 40.921875 40.578125 39.3125 
z
" id="DejaVuSans-51"/>
      </defs>
      <g transform="translate(210.838438 463.158437)scale(0.1 -0.1)">
       <use xlink:href="#DejaVuSans-48"/>
       <use x="63.623047" xlink:href="#DejaVuSans-46"/>
       <use x="95.410156" xlink:href="#DejaVuSans-51"/>
      </g>
     </g>
    </g>
    <g id="xtick_5">
     <g id="line2d_9">
      <path clip-path="url(#pd86267e806)" d="M 266.22 448.56 
L 266.22 60.48 
" style="fill:none;stroke:#b0b0b0;stroke-linecap:square;stroke-width:0.8;"/>
     </g>
     <g id="line2d_10">
      <g>
       <use style="stroke:#000000;stroke-width:0.8;" x="266.22" xlink:href="#m0f7c2646c6" y="448.56"/>
      </g>
     </g>
     <g id="text_5">
      <!-- 0.4 -->
      <defs>
       <path d="M 37.796875 64.3125 
L 12.890625 25.390625 
L 37.796875 25.390625 
z
M 35.203125 72.90625 
L 47.609375 72.90625 
L 47.609375 25.390625 
L 58.015625 25.390625 
L 58.015625 17.1875 
L 47.609375 17.1875 
L 47.609375 0 
L 37.796875 0 
L 37.796875 17.1875 
L 4.890625 17.1875 
L 4.890625 26.703125 
z
" id="DejaVuSans-52"/>
      </defs>
      <g transform="translate(258.268438 463.158437)scale(0.1 -0.1)">
       <use xlink:href="#DejaVuSans-48"/>
       <use x="63.623047" xlink:href="#DejaVuSans-46"/>
       <use x="95.410156" xlink:href="#DejaVuSans-52"/>
      </g>
     </g>
    </g>
    <g id="xtick_6">
     <g id="line2d_11">
      <path clip-path="url(#pd86267e806)" d="M 313.65 448.56 
L 313.65 60.48 
" style="fill:none;stroke:#b0b0b0;stroke-linecap:square;stroke-width:0.8;"/>
     </g>
     <g id="line2d_12">
      <g>
       <use style="stroke:#000000;stroke-width:0.8;" x="313.65" xlink:href="#m0f7c2646c6" y="448.56"/>
      </g>
     </g>
     <g id="text_6">
      <!-- 0.5 -->
      <defs>
       <path d="M 10.796875 72.90625 
L 49.515625 72.90625 
L 49.515625 64.59375 
L 19.828125 64.59375 
L 19.828125 46.734375 
Q 21.96875 47.46875 24.109375 47.828125 
Q 26.265625 48.1875 28.421875 48.1875 
Q 40.625 48.1875 47.75 41.5 
Q 54.890625 34.8125 54.890625 23.390625 
Q 54.890625 11.625 47.5625 5.09375 
Q 40.234375 -1.421875 26.90625 -1.421875 
Q 22.3125 -1.421875 17.546875 -0.640625 
Q 12.796875 0.140625 7.71875 1.703125 
L 7.71875 11.625 
Q 12.109375 9.234375 16.796875 8.0625 
Q 21.484375 6.890625 26.703125 6.890625 
Q 35.15625 6.890625 40.078125 11.328125 
Q 45.015625 15.765625 45.015625 23.390625 
Q 45.015625 31 40.078125 35.4375 
Q 35.15625 39.890625 26.703125 39.890625 
Q 22.75 39.890625 18.8125 39.015625 
Q 14.890625 38.140625 10.796875 36.28125 
z
" id="DejaVuSans-53"/>
      </defs>
      <g transform="translate(305.698438 463.158437)scale(0.1 -0.1)">
       <use xlink:href="#DejaVuSans-48"/>
       <use x="63.623047" xlink:href="#DejaVuSans-46"/>
       <use x="95.410156" xlink:href="#DejaVuSans-53"/>
      </g>
     </g>
    </g>
    <g id="xtick_7">
     <g id="line2d_13">
      <path clip-path="url(#pd86267e806)" d="M 361.08 448.56 
L 361.08 60.48 
" style="fill:none;stroke:#b0b0b0;stroke-linecap:square;stroke-width:0.8;"/>
     </g>
     <g id="line2d_14">
      <g>
       <use style="stroke:#000000;stroke-width:0.8;" x="361.08" xlink:href="#m0f7c2646c6" y="448.56"/>
      </g>
     </g>
     <g id="text_7">
      <!-- 0.6 -->
      <defs>
       <path d="M 33.015625 40.375 
Q 26.375 40.375 22.484375 35.828125 
Q 18.609375 31.296875 18.609375 23.390625 
Q 18.609375 15.53125 22.484375 10.953125 
Q 26.375 6.390625 33.015625 6.390625 
Q 39.65625 6.390625 43.53125 10.953125 
Q 47.40625 15.53125 47.40625 23.390625 
Q 47.40625 31.296875 43.53125 35.828125 
Q 39.65625 40.375 33.015625 40.375 
z
M 52.59375 71.296875 
L 52.59375 62.3125 
Q 48.875 64.0625 45.09375 64.984375 
Q 41.3125 65.921875 37.59375 65.921875 
Q 27.828125 65.921875 22.671875 59.328125 
Q 17.53125 52.734375 16.796875 39.40625 
Q 19.671875 43.65625 24.015625 45.921875 
Q 28.375 48.1875 33.59375 48.1875 
Q 44.578125 48.1875 50.953125 41.515625 
Q 57.328125 34.859375 57.328125 23.390625 
Q 57.328125 12.15625 50.6875 5.359375 
Q 44.046875 -1.421875 33.015625 -1.421875 
Q 20.359375 -1.421875 13.671875 8.265625 
Q 6.984375 17.96875 6.984375 36.375 
Q 6.984375 53.65625 15.1875 63.9375 
Q 23.390625 74.21875 37.203125 74.21875 
Q 40.921875 74.21875 44.703125 73.484375 
Q 48.484375 72.75 52.59375 71.296875 
z
" id="DejaVuSans-54"/>
      </defs>
      <g transform="translate(353.128438 463.158437)scale(0.1 -0.1)">
       <use xlink:href="#DejaVuSans-48"/>
       <use x="63.623047" xlink:href="#DejaVuSans-46"/>
       <use x="95.410156" xlink:href="#DejaVuSans-54"/>
      </g>
     </g>
    </g>
    <g id="xtick_8">
     <g id="line2d_15">
      <path clip-path="url(#pd86267e806)" d="M 408.51 448.56 
L 408.51 60.48 
" style="fill:none;stroke:#b0b0b0;stroke-linecap:square;stroke-width:0.8;"/>
     </g>
     <g id="line2d_16">
      <g>
       <use style="stroke:#000000;stroke-width:0.8;" x="408.51" xlink:href="#m0f7c2646c6" y="448.56"/>
      </g>
     </g>
     <g id="text_8">
      <!-- 0.7 -->
      <defs>
       <path d="M 8.203125 72.90625 
L 55.078125 72.90625 
L 55.078125 68.703125 
L 28.609375 0 
L 18.3125 0 
L 43.21875 64.59375 
L 8.203125 64.59375 
z
" id="DejaVuSans-55"/>
      </defs>
      <g transform="translate(400.558438 463.158437)scale(0.1 -0.1)">
       <use xlink:href="#DejaVuSans-48"/>
       <use x="63.623047" xlink:href="#DejaVuSans-46"/>
       <use x="95.410156" xlink:href="#DejaVuSans-55"/>
      </g>
     </g>
    </g>
    <g id="xtick_9">
     <g id="line2d_17">
      <path clip-path="url(#pd86267e806)" d="M 455.94 448.56 
L 455.94 60.48 
" style="fill:none;stroke:#b0b0b0;stroke-linecap:square;stroke-width:0.8;"/>
     </g>
     <g id="line2d_18">
      <g>
       <use style="stroke:#000000;stroke-width:0.8;" x="455.94" xlink:href="#m0f7c2646c6" y="448.56"/>
      </g>
     </g>
     <g id="text_9">
      <!-- 0.8 -->
      <defs>
       <path d="M 31.78125 34.625 
Q 24.75 34.625 20.71875 30.859375 
Q 16.703125 27.09375 16.703125 20.515625 
Q 16.703125 13.921875 20.71875 10.15625 
Q 24.75 6.390625 31.78125 6.390625 
Q 38.8125 6.390625 42.859375 10.171875 
Q 46.921875 13.96875 46.921875 20.515625 
Q 46.921875 27.09375 42.890625 30.859375 
Q 38.875 34.625 31.78125 34.625 
z
M 21.921875 38.8125 
Q 15.578125 40.375 12.03125 44.71875 
Q 8.5 49.078125 8.5 55.328125 
Q 8.5 64.0625 14.71875 69.140625 
Q 20.953125 74.21875 31.78125 74.21875 
Q 42.671875 74.21875 48.875 69.140625 
Q 55.078125 64.0625 55.078125 55.328125 
Q 55.078125 49.078125 51.53125 44.71875 
Q 48 40.375 41.703125 38.8125 
Q 48.828125 37.15625 52.796875 32.3125 
Q 56.78125 27.484375 56.78125 20.515625 
Q 56.78125 9.90625 50.3125 4.234375 
Q 43.84375 -1.421875 31.78125 -1.421875 
Q 19.734375 -1.421875 13.25 4.234375 
Q 6.78125 9.90625 6.78125 20.515625 
Q 6.78125 27.484375 10.78125 32.3125 
Q 14.796875 37.15625 21.921875 38.8125 
z
M 18.3125 54.390625 
Q 18.3125 48.734375 21.84375 45.5625 
Q 25.390625 42.390625 31.78125 42.390625 
Q 38.140625 42.390625 41.71875 45.5625 
Q 45.3125 48.734375 45.3125 54.390625 
Q 45.3125 60.0625 41.71875 63.234375 
Q 38.140625 66.40625 31.78125 66.40625 
Q 25.390625 66.40625 21.84375 63.234375 
Q 18.3125 60.0625 18.3125 54.390625 
z
" id="DejaVuSans-56"/>
      </defs>
      <g transform="translate(447.988438 463.158437)scale(0.1 -0.1)">
       <use xlink:href="#DejaVuSans-48"/>
       <use x="63.623047" xlink:href="#DejaVuSans-46"/>
       <use x="95.410156" xlink:href="#DejaVuSans-56"/>
      </g>
     </g>
    </g>
    <g id="xtick_10">
     <g id="line2d_19">
      <path clip-path="url(#pd86267e806)" d="M 503.37 448.56 
L 503.37 60.48 
" style="fill:none;stroke:#b0b0b0;stroke-linecap:square;stroke-width:0.8;"/>
     </g>
     <g id="line2d_20">
      <g>
       <use style="stroke:#000000;stroke-width:0.8;" x="503.37" xlink:href="#m0f7c2646c6" y="448.56"/>
      </g>
     </g>
     <g id="text_10">
      <!-- 0.9 -->
      <defs>
       <path d="M 10.984375 1.515625 
L 10.984375 10.5 
Q 14.703125 8.734375 18.5 7.8125 
Q 22.3125 6.890625 25.984375 6.890625 
Q 35.75 6.890625 40.890625 13.453125 
Q 46.046875 20.015625 46.78125 33.40625 
Q 43.953125 29.203125 39.59375 26.953125 
Q 35.25 24.703125 29.984375 24.703125 
Q 19.046875 24.703125 12.671875 31.3125 
Q 6.296875 37.9375 6.296875 49.421875 
Q 6.296875 60.640625 12.9375 67.421875 
Q 19.578125 74.21875 30.609375 74.21875 
Q 43.265625 74.21875 49.921875 64.515625 
Q 56.59375 54.828125 56.59375 36.375 
Q 56.59375 19.140625 48.40625 8.859375 
Q 40.234375 -1.421875 26.421875 -1.421875 
Q 22.703125 -1.421875 18.890625 -0.6875 
Q 15.09375 0.046875 10.984375 1.515625 
z
M 30.609375 32.421875 
Q 37.25 32.421875 41.125 36.953125 
Q 45.015625 41.5 45.015625 49.421875 
Q 45.015625 57.28125 41.125 61.84375 
Q 37.25 66.40625 30.609375 66.40625 
Q 23.96875 66.40625 20.09375 61.84375 
Q 16.21875 57.28125 16.21875 49.421875 
Q 16.21875 41.5 20.09375 36.953125 
Q 23.96875 32.421875 30.609375 32.421875 
z
" id="DejaVuSans-57"/>
      </defs>
      <g transform="translate(495.418438 463.158437)scale(0.1 -0.1)">
       <use xlink:href="#DejaVuSans-48"/>
       <use x="63.623047" xlink:href="#DejaVuSans-46"/>
       <use x="95.410156" xlink:href="#DejaVuSans-57"/>
      </g>
     </g>
    </g>
    <g id="xtick_11">
     <g id="line2d_21">
      <path clip-path="url(#pd86267e806)" d="M 550.8 448.56 
L 550.8 60.48 
" style="fill:none;stroke:#b0b0b0;stroke-linecap:square;stroke-width:0.8;"/>
     </g>
     <g id="line2d_22">
      <g>
       <use style="stroke:#000000;stroke-width:0.8;" x="550.8" xlink:href="#m0f7c2646c6" y="448.56"/>
      </g>
     </g>
     <g id="text_11">
      <!-- 1.0 -->
      <g transform="translate(542.848438 463.158437)scale(0.1 -0.1)">
       <use xlink:href="#DejaVuSans-49"/>
       <use x="63.623047" xlink:href="#DejaVuSans-46"/>
       <use x="95.410156" xlink:href="#DejaVuSans-48"/>
      </g>
     </g>
    </g>
    <g id="text_12">
     <!-- 1-precision -->
     <defs>
      <path d="M 4.890625 31.390625 
L 31.203125 31.390625 
L 31.203125 23.390625 
L 4.890625 23.390625 
z
" id="DejaVuSans-45"/>
      <path d="M 18.109375 8.203125 
L 18.109375 -20.796875 
L 9.078125 -20.796875 
L 9.078125 54.6875 
L 18.109375 54.6875 
L 18.109375 46.390625 
Q 20.953125 51.265625 25.265625 53.625 
Q 29.59375 56 35.59375 56 
Q 45.5625 56 51.78125 48.09375 
Q 58.015625 40.1875 58.015625 27.296875 
Q 58.015625 14.40625 51.78125 6.484375 
Q 45.5625 -1.421875 35.59375 -1.421875 
Q 29.59375 -1.421875 25.265625 0.953125 
Q 20.953125 3.328125 18.109375 8.203125 
z
M 48.6875 27.296875 
Q 48.6875 37.203125 44.609375 42.84375 
Q 40.53125 48.484375 33.40625 48.484375 
Q 26.265625 48.484375 22.1875 42.84375 
Q 18.109375 37.203125 18.109375 27.296875 
Q 18.109375 17.390625 22.1875 11.75 
Q 26.265625 6.109375 33.40625 6.109375 
Q 40.53125 6.109375 44.609375 11.75 
Q 48.6875 17.390625 48.6875 27.296875 
z
" id="DejaVuSans-112"/>
      <path d="M 41.109375 46.296875 
Q 39.59375 47.171875 37.8125 47.578125 
Q 36.03125 48 33.890625 48 
Q 26.265625 48 22.1875 43.046875 
Q 18.109375 38.09375 18.109375 28.8125 
L 18.109375 0 
L 9.078125 0 
L 9.078125 54.6875 
L 18.109375 54.6875 
L 18.109375 46.1875 
Q 20.953125 51.171875 25.484375 53.578125 
Q 30.03125 56 36.53125 56 
Q 37.453125 56 38.578125 55.875 
Q 39.703125 55.765625 41.0625 55.515625 
z
" id="DejaVuSans-114"/>
      <path d="M 56.203125 29.59375 
L 56.203125 25.203125 
L 14.890625 25.203125 
Q 15.484375 15.921875 20.484375 11.0625 
Q 25.484375 6.203125 34.421875 6.203125 
Q 39.59375 6.203125 44.453125 7.46875 
Q 49.3125 8.734375 54.109375 11.28125 
L 54.109375 2.78125 
Q 49.265625 0.734375 44.1875 -0.34375 
Q 39.109375 -1.421875 33.890625 -1.421875 
Q 20.796875 -1.421875 13.15625 6.1875 
Q 5.515625 13.8125 5.515625 26.8125 
Q 5.515625 40.234375 12.765625 48.109375 
Q 20.015625 56 32.328125 56 
Q 43.359375 56 49.78125 48.890625 
Q 56.203125 41.796875 56.203125 29.59375 
z
M 47.21875 32.234375 
Q 47.125 39.59375 43.09375 43.984375 
Q 39.0625 48.390625 32.421875 48.390625 
Q 24.90625 48.390625 20.390625 44.140625 
Q 15.875 39.890625 15.1875 32.171875 
z
" id="DejaVuSans-101"/>
      <path d="M 48.78125 52.59375 
L 48.78125 44.1875 
Q 44.96875 46.296875 41.140625 47.34375 
Q 37.3125 48.390625 33.40625 48.390625 
Q 24.65625 48.390625 19.8125 42.84375 
Q 14.984375 37.3125 14.984375 27.296875 
Q 14.984375 17.28125 19.8125 11.734375 
Q 24.65625 6.203125 33.40625 6.203125 
Q 37.3125 6.203125 41.140625 7.25 
Q 44.96875 8.296875 48.78125 10.40625 
L 48.78125 2.09375 
Q 45.015625 0.34375 40.984375 -0.53125 
Q 36.96875 -1.421875 32.421875 -1.421875 
Q 20.0625 -1.421875 12.78125 6.34375 
Q 5.515625 14.109375 5.515625 27.296875 
Q 5.515625 40.671875 12.859375 48.328125 
Q 20.21875 56 33.015625 56 
Q 37.15625 56 41.109375 55.140625 
Q 45.0625 54.296875 48.78125 52.59375 
z
" id="DejaVuSans-99"/>
      <path d="M 9.421875 54.6875 
L 18.40625 54.6875 
L 18.40625 0 
L 9.421875 0 
z
M 9.421875 75.984375 
L 18.40625 75.984375 
L 18.40625 64.59375 
L 9.421875 64.59375 
z
" id="DejaVuSans-105"/>
      <path d="M 44.28125 53.078125 
L 44.28125 44.578125 
Q 40.484375 46.53125 36.375 47.5 
Q 32.28125 48.484375 27.875 48.484375 
Q 21.1875 48.484375 17.84375 46.4375 
Q 14.5 44.390625 14.5 40.28125 
Q 14.5 37.15625 16.890625 35.375 
Q 19.28125 33.59375 26.515625 31.984375 
L 29.59375 31.296875 
Q 39.15625 29.25 43.1875 25.515625 
Q 47.21875 21.78125 47.21875 15.09375 
Q 47.21875 7.46875 41.1875 3.015625 
Q 35.15625 -1.421875 24.609375 -1.421875 
Q 20.21875 -1.421875 15.453125 -0.5625 
Q 10.6875 0.296875 5.421875 2 
L 5.421875 11.28125 
Q 10.40625 8.6875 15.234375 7.390625 
Q 20.0625 6.109375 24.8125 6.109375 
Q 31.15625 6.109375 34.5625 8.28125 
Q 37.984375 10.453125 37.984375 14.40625 
Q 37.984375 18.0625 35.515625 20.015625 
Q 33.0625 21.96875 24.703125 23.78125 
L 21.578125 24.515625 
Q 13.234375 26.265625 9.515625 29.90625 
Q 5.8125 33.546875 5.8125 39.890625 
Q 5.8125 47.609375 11.28125 51.796875 
Q 16.75 56 26.8125 56 
Q 31.78125 56 36.171875 55.265625 
Q 40.578125 54.546875 44.28125 53.078125 
z
" id="DejaVuSans-115"/>
      <path d="M 30.609375 48.390625 
Q 23.390625 48.390625 19.1875 42.75 
Q 14.984375 37.109375 14.984375 27.296875 
Q 14.984375 17.484375 19.15625 11.84375 
Q 23.34375 6.203125 30.609375 6.203125 
Q 37.796875 6.203125 41.984375 11.859375 
Q 46.1875 17.53125 46.1875 27.296875 
Q 46.1875 37.015625 41.984375 42.703125 
Q 37.796875 48.390625 30.609375 48.390625 
z
M 30.609375 56 
Q 42.328125 56 49.015625 48.375 
Q 55.71875 40.765625 55.71875 27.296875 
Q 55.71875 13.875 49.015625 6.21875 
Q 42.328125 -1.421875 30.609375 -1.421875 
Q 18.84375 -1.421875 12.171875 6.21875 
Q 5.515625 13.875 5.515625 27.296875 
Q 5.515625 40.765625 12.171875 48.375 
Q 18.84375 56 30.609375 56 
z
" id="DejaVuSans-111"/>
      <path d="M 54.890625 33.015625 
L 54.890625 0 
L 45.90625 0 
L 45.90625 32.71875 
Q 45.90625 40.484375 42.875 44.328125 
Q 39.84375 48.1875 33.796875 48.1875 
Q 26.515625 48.1875 22.3125 43.546875 
Q 18.109375 38.921875 18.109375 30.90625 
L 18.109375 0 
L 9.078125 0 
L 9.078125 54.6875 
L 18.109375 54.6875 
L 18.109375 46.1875 
Q 21.34375 51.125 25.703125 53.5625 
Q 30.078125 56 35.796875 56 
Q 45.21875 56 50.046875 50.171875 
Q 54.890625 44.34375 54.890625 33.015625 
z
" id="DejaVuSans-110"/>
     </defs>
     <g transform="translate(286.110938 476.836563)scale(0.1 -0.1)">
      <use xlink:href="#DejaVuSans-49"/>
      <use x="63.623047" xlink:href="#DejaVuSans-45"/>
      <use x="99.707031" xlink:href="#DejaVuSans-112"/>
      <use x="163.183594" xlink:href="#DejaVuSans-114"/>
      <use x="202.046875" xlink:href="#DejaVuSans-101"/>
      <use x="263.570312" xlink:href="#DejaVuSans-99"/>
      <use x="318.550781" xlink:href="#DejaVuSans-105"/>
      <use x="346.333984" xlink:href="#DejaVuSans-115"/>
      <use x="398.433594" xlink:href="#DejaVuSans-105"/>
      <use x="426.216797" xlink:href="#DejaVuSans-111"/>
      <use x="487.398438" xlink:href="#DejaVuSans-110"/>
     </g>
    </g>
   </g>
   <g id="matplotlib.axis_2">
    <g id="ytick_1">
     <g id="line2d_23">
      <path clip-path="url(#pd86267e806)" d="M 76.5 448.56 
L 550.8 448.56 
" style="fill:none;stroke:#b0b0b0;stroke-linecap:square;stroke-width:0.8;"/>
     </g>
     <g id="line2d_24">
      <defs>
       <path d="M 0 0 
L -3.5 0 
" id="mdfedf46c0a" style="stroke:#000000;stroke-width:0.8;"/>
      </defs>
      <g>
       <use style="stroke:#000000;stroke-width:0.8;" x="76.5" xlink:href="#mdfedf46c0a" y="448.56"/>
      </g>
     </g>
     <g id="text_13">
      <!-- 0.0 -->
      <g transform="translate(53.596875 452.359219)scale(0.1 -0.1)">
       <use xlink:href="#DejaVuSans-48"/>
       <use x="63.623047" xlink:href="#DejaVuSans-46"/>
       <use x="95.410156" xlink:href="#DejaVuSans-48"/>
      </g>
     </g>
    </g>
    <g id="ytick_2">
     <g id="line2d_25">
      <path clip-path="url(#pd86267e806)" d="M 76.5 409.752 
L 550.8 409.752 
" style="fill:none;stroke:#b0b0b0;stroke-linecap:square;stroke-width:0.8;"/>
     </g>
     <g id="line2d_26">
      <g>
       <use style="stroke:#000000;stroke-width:0.8;" x="76.5" xlink:href="#mdfedf46c0a" y="409.752"/>
      </g>
     </g>
     <g id="text_14">
      <!-- 0.1 -->
      <g transform="translate(53.596875 413.551219)scale(0.1 -0.1)">
       <use xlink:href="#DejaVuSans-48"/>
       <use x="63.623047" xlink:href="#DejaVuSans-46"/>
       <use x="95.410156" xlink:href="#DejaVuSans-49"/>
      </g>
     </g>
    </g>
    <g id="ytick_3">
     <g id="line2d_27">
      <path clip-path="url(#pd86267e806)" d="M 76.5 370.944 
L 550.8 370.944 
" style="fill:none;stroke:#b0b0b0;stroke-linecap:square;stroke-width:0.8;"/>
     </g>
     <g id="line2d_28">
      <g>
       <use style="stroke:#000000;stroke-width:0.8;" x="76.5" xlink:href="#mdfedf46c0a" y="370.944"/>
      </g>
     </g>
     <g id="text_15">
      <!-- 0.2 -->
      <g transform="translate(53.596875 374.743219)scale(0.1 -0.1)">
       <use xlink:href="#DejaVuSans-48"/>
       <use x="63.623047" xlink:href="#DejaVuSans-46"/>
       <use x="95.410156" xlink:href="#DejaVuSans-50"/>
      </g>
     </g>
    </g>
    <g id="ytick_4">
     <g id="line2d_29">
      <path clip-path="url(#pd86267e806)" d="M 76.5 332.136 
L 550.8 332.136 
" style="fill:none;stroke:#b0b0b0;stroke-linecap:square;stroke-width:0.8;"/>
     </g>
     <g id="line2d_30">
      <g>
       <use style="stroke:#000000;stroke-width:0.8;" x="76.5" xlink:href="#mdfedf46c0a" y="332.136"/>
      </g>
     </g>
     <g id="text_16">
      <!-- 0.3 -->
      <g transform="translate(53.596875 335.935219)scale(0.1 -0.1)">
       <use xlink:href="#DejaVuSans-48"/>
       <use x="63.623047" xlink:href="#DejaVuSans-46"/>
       <use x="95.410156" xlink:href="#DejaVuSans-51"/>
      </g>
     </g>
    </g>
    <g id="ytick_5">
     <g id="line2d_31">
      <path clip-path="url(#pd86267e806)" d="M 76.5 293.328 
L 550.8 293.328 
" style="fill:none;stroke:#b0b0b0;stroke-linecap:square;stroke-width:0.8;"/>
     </g>
     <g id="line2d_32">
      <g>
       <use style="stroke:#000000;stroke-width:0.8;" x="76.5" xlink:href="#mdfedf46c0a" y="293.328"/>
      </g>
     </g>
     <g id="text_17">
      <!-- 0.4 -->
      <g transform="translate(53.596875 297.127219)scale(0.1 -0.1)">
       <use xlink:href="#DejaVuSans-48"/>
       <use x="63.623047" xlink:href="#DejaVuSans-46"/>
       <use x="95.410156" xlink:href="#DejaVuSans-52"/>
      </g>
     </g>
    </g>
    <g id="ytick_6">
     <g id="line2d_33">
      <path clip-path="url(#pd86267e806)" d="M 76.5 254.52 
L 550.8 254.52 
" style="fill:none;stroke:#b0b0b0;stroke-linecap:square;stroke-width:0.8;"/>
     </g>
     <g id="line2d_34">
      <g>
       <use style="stroke:#000000;stroke-width:0.8;" x="76.5" xlink:href="#mdfedf46c0a" y="254.52"/>
      </g>
     </g>
     <g id="text_18">
      <!-- 0.5 -->
      <g transform="translate(53.596875 258.319219)scale(0.1 -0.1)">
       <use xlink:href="#DejaVuSans-48"/>
       <use x="63.623047" xlink:href="#DejaVuSans-46"/>
       <use x="95.410156" xlink:href="#DejaVuSans-53"/>
      </g>
     </g>
    </g>
    <g id="ytick_7">
     <g id="line2d_35">
      <path clip-path="url(#pd86267e806)" d="M 76.5 215.712 
L 550.8 215.712 
" style="fill:none;stroke:#b0b0b0;stroke-linecap:square;stroke-width:0.8;"/>
     </g>
     <g id="line2d_36">
      <g>
       <use style="stroke:#000000;stroke-width:0.8;" x="76.5" xlink:href="#mdfedf46c0a" y="215.712"/>
      </g>
     </g>
     <g id="text_19">
      <!-- 0.6 -->
      <g transform="translate(53.596875 219.511219)scale(0.1 -0.1)">
       <use xlink:href="#DejaVuSans-48"/>
       <use x="63.623047" xlink:href="#DejaVuSans-46"/>
       <use x="95.410156" xlink:href="#DejaVuSans-54"/>
      </g>
     </g>
    </g>
    <g id="ytick_8">
     <g id="line2d_37">
      <path clip-path="url(#pd86267e806)" d="M 76.5 176.904 
L 550.8 176.904 
" style="fill:none;stroke:#b0b0b0;stroke-linecap:square;stroke-width:0.8;"/>
     </g>
     <g id="line2d_38">
      <g>
       <use style="stroke:#000000;stroke-width:0.8;" x="76.5" xlink:href="#mdfedf46c0a" y="176.904"/>
      </g>
     </g>
     <g id="text_20">
      <!-- 0.7 -->
      <g transform="translate(53.596875 180.703219)scale(0.1 -0.1)">
       <use xlink:href="#DejaVuSans-48"/>
       <use x="63.623047" xlink:href="#DejaVuSans-46"/>
       <use x="95.410156" xlink:href="#DejaVuSans-55"/>
      </g>
     </g>
    </g>
    <g id="ytick_9">
     <g id="line2d_39">
      <path clip-path="url(#pd86267e806)" d="M 76.5 138.096 
L 550.8 138.096 
" style="fill:none;stroke:#b0b0b0;stroke-linecap:square;stroke-width:0.8;"/>
     </g>
     <g id="line2d_40">
      <g>
       <use style="stroke:#000000;stroke-width:0.8;" x="76.5" xlink:href="#mdfedf46c0a" y="138.096"/>
      </g>
     </g>
     <g id="text_21">
      <!-- 0.8 -->
      <g transform="translate(53.596875 141.895219)scale(0.1 -0.1)">
       <use xlink:href="#DejaVuSans-48"/>
       <use x="63.623047" xlink:href="#DejaVuSans-46"/>
       <use x="95.410156" xlink:href="#DejaVuSans-56"/>
      </g>
     </g>
    </g>
    <g id="ytick_10">
     <g id="line2d_41">
      <path clip-path="url(#pd86267e806)" d="M 76.5 99.288 
L 550.8 99.288 
" style="fill:none;stroke:#b0b0b0;stroke-linecap:square;stroke-width:0.8;"/>
     </g>
     <g id="line2d_42">
      <g>
       <use style="stroke:#000000;stroke-width:0.8;" x="76.5" xlink:href="#mdfedf46c0a" y="99.288"/>
      </g>
     </g>
     <g id="text_22">
      <!-- 0.9 -->
      <g transform="translate(53.596875 103.087219)scale(0.1 -0.1)">
       <use xlink:href="#DejaVuSans-48"/>
       <use x="63.623047" xlink:href="#DejaVuSans-46"/>
       <use x="95.410156" xlink:href="#DejaVuSans-57"/>
      </g>
     </g>
    </g>
    <g id="ytick_11">
     <g id="line2d_43">
      <path clip-path="url(#pd86267e806)" d="M 76.5 60.48 
L 550.8 60.48 
" style="fill:none;stroke:#b0b0b0;stroke-linecap:square;stroke-width:0.8;"/>
     </g>
     <g id="line2d_44">
      <g>
       <use style="stroke:#000000;stroke-width:0.8;" x="76.5" xlink:href="#mdfedf46c0a" y="60.48"/>
      </g>
     </g>
     <g id="text_23">
      <!-- 1.0 -->
      <g transform="translate(53.596875 64.279219)scale(0.1 -0.1)">
       <use xlink:href="#DejaVuSans-49"/>
       <use x="63.623047" xlink:href="#DejaVuSans-46"/>
       <use x="95.410156" xlink:href="#DejaVuSans-48"/>
      </g>
     </g>
    </g>
    <g id="text_24">
     <!-- #correct/1659 -->
     <defs>
      <path d="M 51.125 44 
L 36.921875 44 
L 32.8125 27.6875 
L 47.125 27.6875 
z
M 43.796875 71.78125 
L 38.71875 51.515625 
L 52.984375 51.515625 
L 58.109375 71.78125 
L 65.921875 71.78125 
L 60.890625 51.515625 
L 76.125 51.515625 
L 76.125 44 
L 58.984375 44 
L 54.984375 27.6875 
L 70.515625 27.6875 
L 70.515625 20.21875 
L 53.078125 20.21875 
L 48 0 
L 40.1875 0 
L 45.21875 20.21875 
L 30.90625 20.21875 
L 25.875 0 
L 18.015625 0 
L 23.09375 20.21875 
L 7.71875 20.21875 
L 7.71875 27.6875 
L 24.90625 27.6875 
L 29 44 
L 13.28125 44 
L 13.28125 51.515625 
L 30.90625 51.515625 
L 35.890625 71.78125 
z
" id="DejaVuSans-35"/>
      <path d="M 18.3125 70.21875 
L 18.3125 54.6875 
L 36.8125 54.6875 
L 36.8125 47.703125 
L 18.3125 47.703125 
L 18.3125 18.015625 
Q 18.3125 11.328125 20.140625 9.421875 
Q 21.96875 7.515625 27.59375 7.515625 
L 36.8125 7.515625 
L 36.8125 0 
L 27.59375 0 
Q 17.1875 0 13.234375 3.875 
Q 9.28125 7.765625 9.28125 18.015625 
L 9.28125 47.703125 
L 2.6875 47.703125 
L 2.6875 54.6875 
L 9.28125 54.6875 
L 9.28125 70.21875 
z
" id="DejaVuSans-116"/>
      <path d="M 25.390625 72.90625 
L 33.6875 72.90625 
L 8.296875 -9.28125 
L 0 -9.28125 
z
" id="DejaVuSans-47"/>
     </defs>
     <g transform="translate(47.517187 290.624688)rotate(-90)scale(0.1 -0.1)">
      <use xlink:href="#DejaVuSans-35"/>
      <use x="83.789062" xlink:href="#DejaVuSans-99"/>
      <use x="138.769531" xlink:href="#DejaVuSans-111"/>
      <use x="199.951172" xlink:href="#DejaVuSans-114"/>
      <use x="239.314453" xlink:href="#DejaVuSans-114"/>
      <use x="278.177734" xlink:href="#DejaVuSans-101"/>
      <use x="339.701172" xlink:href="#DejaVuSans-99"/>
      <use x="394.681641" xlink:href="#DejaVuSans-116"/>
      <use x="433.890625" xlink:href="#DejaVuSans-47"/>
      <use x="467.582031" xlink:href="#DejaVuSans-49"/>
      <use x="531.205078" xlink:href="#DejaVuSans-54"/>
      <use x="594.828125" xlink:href="#DejaVuSans-53"/>
      <use x="658.451172" xlink:href="#DejaVuSans-57"/>
     </g>
    </g>
   </g>
   <g id="line2d_45">
    <path clip-path="url(#pd86267e806)" d="M 550.8 448.56 
L 313.65 448.326076 
L 234.6 448.092152 
L 361.08 448.092152 
L 313.65 447.858228 
L 408.51 447.858228 
L 378.327273 447.624304 
L 450.947368 447.624304 
L 432.225 447.39038 
L 437.871429 447.39038 
L 451.9875 447.39038 
L 427.833333 446.922532 
L 443.7 446.922532 
L 421.445455 446.454684 
L 425.25 446.454684 
L 444.0825 446.454684 
L 421.445455 445.752911 
L 439.2 445.752911 
L 432.225 445.518987 
L 434.462264 445.518987 
L 451.35 445.518987 
L 445.4 445.285063 
L 447.046875 445.285063 
L 455.94 445.285063 
L 445.4 444.817215 
L 446.843836 444.817215 
L 453.507692 444.817215 
L 448.735443 444.583291 
L 450.01125 444.583291 
L 464.1 444.583291 
L 459.976596 444.349367 
L 461.86875 444.349367 
L 466.271287 444.349367 
L 462.45 444.115443 
L 464.149038 444.115443 
L 468.875455 444.115443 
L 465.340541 443.881519 
L 466.853097 443.881519 
L 469.024138 443.881519 
L 463.114286 443.413671 
L 463.845 443.413671 
L 467.985714 443.413671 
L 463.236923 442.945823 
L 460.284733 442.711899 
L 461.645865 442.711899 
L 475.274522 442.711899 
L 472.750633 442.477975 
L 473.72625 442.477975 
L 478.26 442.477975 
L 475.910526 442.244051 
L 476.776301 442.244051 
L 478.038068 442.244051 
L 475.769492 442.010127 
L 476.607821 442.010127 
L 480.159574 442.010127 
L 478.02381 441.776203 
L 478.785864 441.776203 
L 480.979188 441.776203 
L 478.936364 441.542278 
L 479.655 441.542278 
L 489.73133 441.542278 
L 487.965385 441.308354 
L 488.760759 441.308354 
L 490.292593 441.308354 
L 488.596721 441.07443 
L 489.352227 441.07443 
L 489.845783 441.07443 
L 487.060079 440.606582 
L 487.311024 440.606582 
L 488.53668 440.606582 
L 486.951923 440.372658 
L 487.680228 440.372658 
L 489.76875 440.372658 
L 488.254945 440.138734 
L 488.934783 440.138734 
L 489.158123 440.138734 
L 486.2 439.670886 
L 486.887234 439.670886 
L 492.66 439.670886 
L 491.321865 439.436962 
L 491.890127 439.436962 
L 492.077143 439.436962 
L 490.762025 439.203038 
L 491.326646 439.203038 
L 493.309091 439.203038 
L 492.049849 438.969114 
L 492.577545 438.969114 
L 492.924107 438.969114 
L 491.688427 438.73519 
L 492.21 438.73519 
L 493.720917 438.73519 
L 492.528857 438.501266 
L 493.024079 438.501266 
L 493.349577 438.501266 
L 492.178652 438.267342 
L 492.668524 438.267342 
L 503.044394 438.267342 
L 501.438462 437.799494 
L 501.549887 437.799494 
L 502.423503 437.799494 
L 501.481195 437.56557 
L 501.913816 437.56557 
L 502.020788 437.56557 
L 498.667888 436.629873 
L 502.324449 436.629873 
L 499.881113 435.928101 
L 500.183004 435.928101 
L 502.475094 435.928101 
L 501.672881 435.694177 
L 502.040187 435.694177 
L 502.402041 435.694177 
L 501.613333 435.460253 
L 501.975 435.460253 
L 502.76962 435.460253 
L 502.000181 435.226329 
L 502.35 435.226329 
L 503.286643 435.226329 
L 502.537895 434.992405 
L 502.874216 434.992405 
L 509.055842 434.992405 
L 508.400455 434.758481 
L 508.719248 434.758481 
L 509.768182 434.758481 
L 508.119884 434.056709 
L 508.181739 434.056709 
L 508.910256 434.056709 
L 508.295164 433.822785 
L 508.595339 433.822785 
L 510.365765 433.822785 
L 509.418121 433.354937 
L 509.473592 433.354937 
L 510.288173 433.354937 
L 508.859298 432.653165 
L 509.29112 432.653165 
L 508.179974 432.185316 
L 508.451786 432.185316 
L 509.090201 432.185316 
L 508.113 431.717468 
L 508.272478 431.717468 
L 510.529245 431.717468 
L 510.018021 431.483544 
L 510.256792 431.483544 
L 511.588335 431.483544 
L 510.605085 431.015696 
L 510.830899 431.015696 
L 515.544797 431.015696 
L 515.110099 430.781772 
L 515.320866 430.781772 
L 516.534981 430.781772 
L 516.117094 430.547848 
L 516.313598 430.547848 
L 517.957284 430.547848 
L 517.560647 430.313924 
L 517.768393 430.313924 
L 517.973558 430.313924 
L 517.582181 430.08 
L 517.787048 430.08 
L 518.93801 430.08 
L 518.562107 429.846076 
L 518.752703 429.846076 
L 519.36338 429.846076 
L 518.996772 429.612152 
L 519.18 429.612152 
L 519.8175 429.612152 
L 519.460274 429.378228 
L 519.661009 429.378228 
L 522.514473 429.378228 
L 522.190334 429.144304 
L 522.376245 429.144304 
L 522.58 429.144304 
L 522.260458 428.91038 
L 522.443274 428.91038 
L 522.603822 428.91038 
L 522.288331 428.676456 
L 522.468658 428.676456 
L 523.796986 428.676456 
L 523.49759 428.442532 
L 523.661078 428.442532 
L 524.105105 428.442532 
L 523.812361 428.208608 
L 523.987719 428.208608 
L 524.331687 428.208608 
L 524.044615 427.974684 
L 524.215032 427.974684 
L 524.416688 427.974684 
L 524.133733 427.740759 
L 524.30113 427.740759 
L 525.583333 427.740759 
L 525.215353 427.272911 
L 525.89446 427.272911 
L 525.635294 427.038987 
L 525.793926 427.038987 
L 525.851115 427.038987 
L 525.352397 426.571139 
L 525.496822 426.571139 
L 526.276238 426.571139 
L 525.877833 426.103291 
L 525.932277 426.103291 
L 526.683051 426.103291 
L 526.444733 425.869367 
L 526.598474 425.869367 
L 527.704066 425.869367 
L 527.477672 425.635443 
L 527.628814 425.635443 
L 528.026164 425.635443 
L 527.805044 425.401519 
L 527.950511 425.401519 
L 528.257657 425.401519 
L 528.040883 425.167595 
L 528.181974 425.167595 
L 528.667476 425.167595 
L 528.456576 424.933671 
L 528.601529 424.933671 
L 529.565824 424.933671 
L 529.288375 424.465823 
L 529.307303 424.465823 
L 530.090844 424.465823 
L 529.898644 424.231899 
L 530.039394 424.231899 
L 530.65 424.231899 
L 530.464557 423.997975 
L 530.604745 423.997975 
L 530.686309 423.997975 
L 530.40205 423.530127 
L 530.459279 423.530127 
L 530.708907 423.530127 
L 530.470193 423.062278 
L 530.486169 423.062278 
L 530.823686 423.062278 
L 530.648204 422.828354 
L 530.779662 422.828354 
L 531.476667 422.828354 
L 531.081126 422.126582 
L 531.102867 422.126582 
L 531.310582 422.126582 
L 531.145256 421.892658 
L 531.280072 421.892658 
L 532.180785 421.892658 
L 531.964396 421.42481 
L 531.996582 421.42481 
L 532.015842 421.42481 
L 531.526041 420.489114 
L 532.083788 420.489114 
L 531.934024 420.25519 
L 532.063369 420.25519 
L 532.263081 420.25519 
L 532.115919 420.021266 
L 532.241758 420.021266 
L 532.592133 420.021266 
L 532.448663 419.787342 
L 532.574789 419.787342 
L 532.597535 419.787342 
L 532.455271 419.553418 
L 532.580297 419.553418 
L 532.999395 419.553418 
L 532.83193 419.08557 
L 532.848123 419.08557 
L 533.040178 419.08557 
L 532.904545 418.851646 
L 533.031239 418.851646 
L 534.224298 418.851646 
L 534.098377 418.617722 
L 534.221518 418.617722 
L 534.248637 418.617722 
L 534.123876 418.383797 
L 534.245698 418.383797 
L 534.343653 418.383797 
L 534.220543 418.149873 
L 534.344436 418.149873 
L 534.586747 418.149873 
L 534.466325 417.915949 
L 534.589903 417.915949 
L 535.10581 417.915949 
L 534.902344 417.448101 
L 534.997921 417.448101 
L 535.319779 417.448101 
L 535.094702 416.980253 
L 535.217011 416.980253 
L 535.251068 416.980253 
L 535.028374 416.512405 
L 535.149928 416.512405 
L 535.474741 416.512405 
L 535.265669 416.044557 
L 535.378316 416.044557 
L 535.661607 416.044557 
L 535.556198 415.810633 
L 535.677704 415.810633 
L 536.254107 415.810633 
L 536.153417 415.576709 
L 536.274305 415.576709 
L 536.479593 415.576709 
L 536.381118 415.342785 
L 536.50051 415.342785 
L 536.557962 415.342785 
L 536.460698 415.108861 
L 536.580943 415.108861 
L 536.938381 415.108861 
L 536.844299 414.874937 
L 536.963047 414.874937 
L 537.002182 414.874937 
L 536.90917 414.641013 
L 537.026016 414.641013 
L 537.135486 414.641013 
L 537.043981 414.407089 
L 537.163174 414.407089 
L 537.330286 414.407089 
L 537.240665 414.173165 
L 537.3583 414.173165 
L 537.514539 414.173165 
L 537.42671 413.939241 
L 537.545393 413.939241 
L 537.552897 413.939241 
L 537.394121 413.471392 
L 537.496896 413.471392 
L 537.516766 413.471392 
L 537.430707 413.237468 
L 537.546984 413.237468 
L 537.556786 413.237468 
L 537.39625 412.76962 
L 537.504306 412.76962 
L 537.548009 412.76962 
L 537.463831 412.535696 
L 537.579692 412.535696 
L 537.639243 412.535696 
L 537.55617 412.301772 
L 537.672054 412.301772 
L 537.850114 412.301772 
L 537.768862 412.067848 
L 537.884866 412.067848 
L 538.049561 412.067848 
L 537.981081 411.6 
L 538.00734 411.6 
L 538.113459 411.6 
L 538.035325 411.366076 
L 538.150939 411.366076 
L 538.402548 411.366076 
L 538.326627 411.132152 
L 538.442404 411.132152 
L 538.881043 411.132152 
L 538.808433 410.898228 
L 538.924059 410.898228 
L 538.962719 410.898228 
L 538.86378 410.43038 
L 538.935221 410.43038 
L 539.063109 410.43038 
L 538.935309 409.962532 
L 539.036961 409.962532 
L 539.183628 409.962532 
L 539.11496 409.728608 
L 539.230007 409.728608 
L 539.2402 409.728608 
L 539.13347 409.260759 
L 539.219939 409.260759 
L 539.310108 409.260759 
L 539.243382 409.026835 
L 539.35885 409.026835 
L 539.518269 409.026835 
L 539.45311 408.792911 
L 539.566927 408.792911 
L 539.911276 408.792911 
L 539.851188 408.325063 
L 539.900922 408.325063 
L 540.07431 408.325063 
L 539.970949 407.857215 
L 540.066719 407.857215 
L 540.407329 407.857215 
L 540.348917 407.623291 
L 540.462162 407.623291 
L 540.485286 407.623291 
L 540.416849 406.921519 
L 540.42578 406.921519 
L 540.819459 406.921519 
L 540.780753 406.453671 
L 540.822905 406.453671 
L 541.315054 406.453671 
L 541.298338 405.985823 
L 541.325453 405.985823 
L 541.424242 405.985823 
L 541.373751 405.751899 
L 541.487028 405.751899 
L 541.530788 405.751899 
L 541.481132 405.517975 
L 541.594177 405.517975 
L 542.44149 405.517975 
L 542.396868 405.284051 
L 542.509609 405.284051 
L 542.699418 405.284051 
L 542.699418 405.284051 
" style="fill:none;stroke:#1f77b4;stroke-linecap:square;stroke-width:2;"/>
   </g>
   <g id="line2d_46">
    <path clip-path="url(#pd86267e806)" d="M 550.8 448.56 
L 548.066282 448.092152 
L 548.236216 448.092152 
L 548.336104 448.092152 
L 544.765649 447.39038 
L 545.259112 447.39038 
L 547.925455 447.39038 
L 546.907737 446.922532 
L 547.073737 446.922532 
L 548.463547 446.922532 
L 547.804421 446.454684 
L 547.991645 446.454684 
L 548.848148 446.454684 
L 548.461452 445.986835 
L 548.567522 445.986835 
L 549.380327 445.986835 
L 549.251687 445.752911 
L 549.378166 445.752911 
L 549.477295 445.752911 
L 549.281199 445.285063 
L 549.380244 445.285063 
L 549.470098 445.285063 
L 549.37539 445.051139 
L 549.495066 445.051139 
L 549.660404 445.051139 
L 549.584625 444.817215 
L 549.701289 444.817215 
L 549.77101 444.817215 
L 549.732291 444.349367 
L 549.757837 444.349367 
L 549.786418 444.349367 
L 549.684918 443.881519 
L 549.788268 443.881519 
L 549.924261 443.881519 
L 549.924261 443.881519 
" style="fill:none;stroke:#ff7f0e;stroke-linecap:square;stroke-width:2;"/>
   </g>
   <g id="line2d_47">
    <path clip-path="url(#pd86267e806)" d="M 550.8 448.56 
L 483.042857 448.326076 
L 514.315385 448.326076 
L 539.507143 448.326076 
L 519.18 447.858228 
L 522.9 447.858228 
L 534.06 447.858228 
L 528.739535 447.624304 
L 531.241237 447.624304 
L 543.558779 447.624304 
L 540.298893 447.156456 
L 540.84965 447.156456 
L 545.348276 447.156456 
L 544.451816 446.922532 
L 544.881818 446.922532 
L 545.931818 446.922532 
L 544.796203 446.454684 
L 544.895851 446.454684 
L 544.248895 446.220759 
L 544.575591 446.220759 
L 545.39795 446.220759 
L 544.368814 445.752911 
L 544.606746 445.752911 
L 545.102703 445.752911 
L 544.6341 445.518987 
L 544.88263 445.518987 
L 545.66175 445.518987 
L 545.271107 445.285063 
L 545.483587 445.285063 
L 545.525814 445.285063 
L 545.153571 445.051139 
L 545.36078 445.051139 
L 547.428199 445.051139 
L 547.012729 444.583291 
L 547.134955 444.583291 
L 547.661386 444.583291 
L 547.478054 444.349367 
L 547.619151 444.349367 
L 547.774699 444.349367 
L 547.486692 443.881519 
L 547.576758 443.881519 
L 547.952207 443.881519 
L 547.473524 442.945823 
L 547.514805 442.945823 
L 547.264507 442.477975 
L 547.37069 442.477975 
L 547.703892 442.477975 
L 547.233835 441.308354 
L 547.236428 441.308354 
L 547.270643 441.308354 
L 547.157667 441.07443 
L 547.280965 441.07443 
L 547.606733 441.07443 
L 547.36162 440.372658 
L 547.430024 440.372658 
L 547.479236 440.372658 
L 547.38504 440.138734 
L 547.504343 440.138734 
L 547.769329 440.138734 
L 547.528387 439.436962 
L 547.636378 439.436962 
L 547.958571 439.436962 
L 547.886162 439.203038 
L 548.002183 439.203038 
L 548.124496 439.203038 
L 548.057995 438.969114 
L 548.173187 438.969114 
L 548.462142 438.969114 
L 548.30756 438.267342 
L 548.406194 438.267342 
L 548.412493 438.267342 
L 548.358511 438.033418 
L 548.472465 438.033418 
L 548.582494 438.033418 
L 548.525634 437.331646 
L 548.548799 437.331646 
L 548.620146 437.331646 
L 548.574945 437.097722 
L 548.654441 437.097722 
" style="fill:none;stroke:#2ca02c;stroke-linecap:square;stroke-width:2;"/>
   </g>
   <g id="line2d_48">
    <path clip-path="url(#pd86267e806)" d="M 550.8 448.56 
L 392.7 448.326076 
L 313.65 448.092152 
L 415.285714 448.092152 
L 372.9375 447.858228 
L 392.7 447.858228 
L 408.51 447.858228 
L 378.327273 447.624304 
L 404.861538 447.624304 
L 381.407143 447.39038 
L 411.3 447.39038 
L 392.7 447.156456 
L 401.021053 447.156456 
L 384.795 446.922532 
L 455.94 446.922532 
L 429.184615 446.220759 
L 435.117073 446.220759 
L 426.578571 445.986835 
L 429.467442 445.986835 
L 437.380435 445.986835 
L 429.702128 445.752911 
L 432.225 445.752911 
L 457.495082 445.752911 
L 447.046875 445.285063 
L 464.563636 445.285063 
L 459.588462 445.051139 
L 461.86875 445.051139 
L 468.073256 445.051139 
L 461.21 444.583291 
L 472.517476 444.583291 
L 468.709615 444.349367 
L 470.258491 444.349367 
L 478.449153 444.349367 
L 475.071429 444.115443 
L 476.32314 444.115443 
L 494.826708 444.115443 
L 492.244444 443.881519 
L 493.309091 443.881519 
L 500.072727 443.881519 
L 493.982813 443.179747 
L 494.277202 443.179747 
L 494.856923 443.179747 
L 492.722449 442.945823 
L 493.59799 442.945823 
L 502.153846 442.945823 
L 500.342553 442.711899 
L 501.187029 442.711899 
L 504.3 442.711899 
L 502.628906 442.477975 
L 503.37 442.477975 
L 505.295203 442.477975 
L 503.71875 442.244051 
L 504.401087 442.244051 
L 508.395695 442.244051 
L 506.970297 442.010127 
L 507.541368 442.010127 
L 511.508876 442.010127 
L 510.225664 441.776203 
L 510.815407 441.776203 
L 516.240452 441.776203 
L 515.138346 441.542278 
L 515.666667 441.542278 
L 518.824719 441.542278 
L 517.83296 441.308354 
L 518.270575 441.308354 
L 518.342384 441.308354 
L 517.369163 441.07443 
L 517.805217 441.07443 
L 517.87679 441.07443 
L 516.921429 440.840506 
L 517.355769 440.840506 
L 517.498085 440.840506 
L 516.070921 440.372658 
L 517.127586 440.372658 
L 516.235628 440.138734 
L 516.6504 440.138734 
L 516.786454 440.138734 
L 514.387205 439.436962 
L 514.53 439.436962 
L 514.882136 439.436962 
L 514.032558 439.203038 
L 514.385413 439.203038 
L 514.524665 439.203038 
L 513.68874 438.969114 
L 514.039509 438.969114 
L 517.21399 438.969114 
L 516.454138 438.73519 
L 516.805802 438.73519 
L 517.543573 438.73519 
L 516.075874 438.267342 
L 516.41911 438.267342 
L 517.031068 438.267342 
L 515.075481 437.56557 
L 515.246411 437.56557 
L 515.914085 437.56557 
L 515.2275 437.331646 
L 515.557895 437.331646 
L 515.720801 437.331646 
L 515.045077 437.097722 
L 515.372104 437.097722 
L 516.471049 437.097722 
L 515.822124 436.863797 
L 516.128947 436.863797 
L 516.280349 436.863797 
L 515.261671 436.395949 
L 515.312806 436.395949 
L 519.931915 436.395949 
L 519.062454 435.928101 
L 519.101733 435.928101 
L 522.716447 435.928101 
L 521.382046 435.226329 
L 521.477766 435.226329 
L 522.401786 435.226329 
L 521.933893 434.992405 
L 522.174194 434.992405 
L 522.585231 434.992405 
L 522.128176 434.758481 
L 522.36128 434.758481 
L 522.8163 434.758481 
L 522.37043 434.524557 
L 522.595837 434.524557 
L 522.651632 434.524557 
L 522.210771 434.290633 
L 522.435 434.290633 
L 523.033877 434.290633 
L 522.605753 434.056709 
L 522.820362 434.056709 
L 523.796694 434.056709 
L 523.154098 433.588861 
L 523.179254 433.588861 
L 523.865484 433.588861 
L 523.468883 433.354937 
L 523.685224 433.354937 
L 524.892857 433.354937 
L 524.516373 433.121013 
L 524.7135 433.121013 
L 524.800166 433.121013 
L 524.428133 432.887089 
L 524.623641 432.887089 
L 526.355308 432.887089 
L 526.009531 432.653165 
L 526.198627 432.653165 
L 526.962306 432.653165 
L 526.629616 432.419241 
L 526.806818 432.419241 
L 527.930189 432.419241 
L 527.614944 432.185316 
L 527.791684 432.185316 
L 528.321327 432.185316 
L 528.015629 431.951392 
L 528.183949 431.951392 
L 528.424385 431.951392 
L 528.124303 431.717468 
L 528.303557 431.717468 
L 528.362681 431.717468 
L 528.065988 431.483544 
L 528.243713 431.483544 
L 529.571367 431.483544 
L 529.29375 431.24962 
L 529.463708 431.24962 
L 530.286733 431.24962 
L 530.021671 431.015696 
L 530.178261 431.015696 
L 530.747858 431.015696 
L 530.362899 430.547848 
L 530.397151 430.547848 
L 530.711386 430.547848 
L 530.324754 430.08 
L 530.369411 430.08 
L 530.911624 430.08 
L 530.670557 429.846076 
L 530.829474 429.846076 
L 530.89234 429.846076 
L 530.654064 429.612152 
L 530.81129 429.612152 
L 532.6009 429.612152 
L 532.384943 429.378228 
L 532.531987 429.378228 
L 533.048927 429.378228 
L 532.840648 429.144304 
L 532.986923 429.144304 
L 533.264633 429.144304 
L 533.061264 428.91038 
L 533.202297 428.91038 
L 534.240898 428.91038 
L 534.050727 428.676456 
L 534.188752 428.676456 
L 534.222903 428.676456 
L 534.034772 428.442532 
L 534.171464 428.442532 
L 534.48408 428.442532 
L 534.30096 428.208608 
L 534.438343 428.208608 
L 534.477176 428.208608 
L 534.296085 427.974684 
L 534.432 427.974684 
L 534.832747 427.974684 
L 534.482339 427.506835 
L 534.618423 427.506835 
L 534.836275 427.506835 
L 534.664935 427.272911 
L 534.802483 427.272911 
L 535.368716 427.272911 
L 535.046464 426.805063 
L 535.174814 426.805063 
L 536.213393 426.805063 
L 535.982999 426.337215 
L 536.041238 426.337215 
L 536.974133 426.337215 
L 536.650411 425.635443 
L 536.676208 425.635443 
L 536.684786 425.635443 
L 536.545082 425.401519 
L 536.673736 425.401519 
L 536.787556 425.401519 
L 536.635512 424.933671 
L 536.639698 424.933671 
L 536.668938 424.933671 
L 536.423043 424.465823 
L 536.523875 424.465823 
L 536.590314 424.465823 
L 536.456528 424.231899 
L 536.580571 424.231899 
L 536.678271 424.231899 
L 536.541407 423.764051 
L 536.573684 423.764051 
L 536.443536 423.530127 
L 536.56834 423.530127 
L 536.675285 423.530127 
L 536.547245 423.296203 
L 536.673028 423.296203 
L 536.804262 423.296203 
L 536.67853 423.062278 
L 536.800894 423.062278 
L 536.838698 423.062278 
L 536.714417 422.828354 
L 536.838801 422.828354 
L 536.902025 422.828354 
L 536.609929 422.126582 
L 536.658602 422.126582 
L 536.798981 422.126582 
L 536.678767 421.892658 
L 536.803055 421.892658 
L 536.93229 421.892658 
L 536.814231 421.658734 
L 536.938628 421.658734 
L 536.942149 421.658734 
L 536.722603 421.190886 
L 536.832444 421.190886 
L 537.101382 421.190886 
L 536.98771 420.956962 
L 537.109344 420.956962 
L 537.665196 420.956962 
L 537.45197 420.489114 
L 537.569874 420.489114 
L 539.105732 420.489114 
L 539.010703 420.25519 
L 539.130561 420.25519 
L 539.132934 420.25519 
L 539.038902 420.021266 
L 539.157223 420.021266 
L 539.4026 420.021266 
L 539.311442 419.787342 
L 539.430111 419.787342 
L 539.458845 419.787342 
L 539.345692 419.319494 
L 539.396365 419.319494 
L 539.55 419.319494 
L 539.462151 419.08557 
L 539.579234 419.08557 
L 539.83252 419.08557 
L 539.747505 418.851646 
L 539.863889 418.851646 
L 540.087551 418.851646 
L 540.005121 418.617722 
L 540.122828 418.617722 
L 540.923572 418.617722 
L 540.848032 418.383797 
L 540.963232 418.383797 
L 541.043231 418.383797 
L 540.862713 417.448101 
L 540.932661 417.448101 
L 540.851196 416.980253 
L 540.903478 416.980253 
L 541.092526 416.980253 
L 541.022101 416.746329 
L 541.137807 416.746329 
L 541.28321 416.746329 
L 541.214648 416.512405 
L 541.329209 416.512405 
L 541.453179 416.512405 
L 541.386308 416.278481 
L 541.501321 416.278481 
L 542.276312 416.278481 
L 542.215664 416.044557 
L 542.330357 416.044557 
L 542.505121 416.044557 
L 542.446496 415.810633 
L 542.560516 415.810633 
L 542.588029 415.810633 
L 542.506612 415.342785 
L 542.586512 415.342785 
L 542.739852 415.342785 
L 542.646819 414.874937 
L 542.742048 414.874937 
L 542.943196 414.874937 
L 542.938079 414.407089 
L 542.949666 414.407089 
L 543.108364 414.407089 
L 543.056542 414.173165 
L 543.170092 414.173165 
L 543.252685 414.173165 
L 543.202165 413.939241 
L 543.315577 413.939241 
L 543.4 413.939241 
L 543.382108 413.471392 
L 543.41445 413.471392 
L 544.231961 413.471392 
L 544.231961 413.471392 
" style="fill:none;stroke:#d62728;stroke-linecap:square;stroke-width:2;"/>
   </g>
   <g id="line2d_49">
    <path clip-path="url(#pd86267e806)" d="M 76.5 448.326076 
L 313.65 448.326076 
L 234.6 448.092152 
L 195.075 447.858228 
L 266.22 447.858228 
L 234.6 447.624304 
L 279.771429 447.624304 
L 234.6 447.156456 
L 266.22 447.156456 
L 234.6 446.688608 
L 258.923077 446.688608 
L 224.71875 445.986835 
L 201.315789 445.285063 
L 189.428571 444.817215 
L 205.854545 444.817215 
L 185.953846 443.881519 
L 199.466667 443.881519 
L 195.075 443.647595 
L 218.79 443.647595 
L 209.896875 443.179747 
L 229.95 443.179747 
L 221.425 442.711899 
L 238.760526 442.711899 
L 219.893023 441.542278 
L 266.22 441.542278 
L 258.923077 441.07443 
L 264.430189 441.07443 
L 257.596364 440.606582 
L 272.762069 440.606582 
L 263.109836 439.90481 
L 267.75 439.90481 
L 264.714286 439.670886 
L 269.184375 439.670886 
L 266.22 439.436962 
L 270.531818 439.436962 
L 264.825 438.969114 
L 272.995714 438.969114 
L 264.920548 438.267342 
L 272.544 438.267342 
L 267.451948 437.799494 
L 271.084615 437.799494 
L 266.22 437.331646 
L 269.733333 437.331646 
L 254.3625 435.694177 
L 264.135165 435.694177 
L 258.146809 434.992405 
L 264.24375 434.992405 
L 258.554545 434.290633 
L 264.341584 434.290633 
L 262.5 434.056709 
L 268.044231 434.056709 
L 262.673832 433.354937 
L 265.341667 433.354937 
L 263.609174 433.121013 
L 266.22 433.121013 
L 264.510811 432.887089 
L 267.066964 432.887089 
L 263.723684 432.419241 
L 266.22 432.419241 
L 264.584483 432.185316 
L 267.030769 432.185316 
L 260.732231 431.24962 
L 265.44878 431.24962 
L 259.497638 430.313924 
L 261.773438 430.313924 
L 260.337209 430.08 
L 269.072932 430.08 
L 267.635821 429.846076 
L 269.733333 429.846076 
L 268.3125 429.612152 
L 274.409353 429.612152 
L 272.995714 429.378228 
L 278.823776 429.378228 
L 277.41875 429.144304 
L 279.304138 429.144304 
L 276.544898 428.676456 
L 278.397973 428.676456 
L 277.042953 428.442532 
L 280.668874 428.442532 
L 279.325658 428.208608 
L 282.851299 428.208608 
L 280.205769 427.740759 
L 283.631013 427.740759 
L 282.328302 427.506835 
L 284.00625 427.506835 
L 282.717391 427.272911 
L 284.372222 427.272911 
L 280.592727 426.571139 
L 282.220482 426.571139 
L 280.988623 426.337215 
L 285.75 426.337215 
L 284.526316 426.103291 
L 286.074419 426.103291 
L 281.311364 425.167595 
L 284.339326 425.167595 
L 282.03 424.699747 
L 283.514917 424.699747 
L 281.252459 424.231899 
L 287.018182 424.231899 
L 285.898404 423.997975 
L 287.3 423.997975 
L 286.190526 423.764051 
L 287.575916 423.764051 
L 285.388601 423.296203 
L 290.777665 423.296203 
L 288.624121 422.828354 
L 291.232836 422.828354 
L 289.117241 422.360506 
L 295.407692 422.360506 
L 293.322857 421.892658 
L 295.751887 421.892658 
L 294.722535 421.658734 
L 297.104651 421.658734 
L 288.241071 419.553418 
L 291.711013 419.553418 
L 287.984416 418.617722 
L 289.117241 418.617722 
L 287.3 418.149873 
L 288.421277 418.149873 
L 287.523305 417.915949 
L 290.828033 417.915949 
L 289.049378 417.448101 
L 301.464427 417.448101 
L 300.57874 417.214177 
L 301.56 417.214177 
L 300.680859 416.980253 
L 301.654086 416.980253 
L 300.781395 416.746329 
L 310.110448 416.746329 
L 309.242007 416.512405 
L 310.136667 416.512405 
L 309.274539 416.278481 
L 310.1625 416.278481 
L 309.306593 416.044557 
L 311.062909 416.044557 
L 309.369314 415.576709 
L 311.956071 415.576709 
L 311.118149 415.342785 
L 316.94375 415.342785 
L 316.111765 415.108861 
L 319.3157 415.108861 
L 318.489796 414.874937 
L 326.131579 414.874937 
L 325.313115 414.641013 
L 330.372115 414.641013 
L 329.561022 414.407089 
L 330.965714 414.407089 
L 330.160443 414.173165 
L 338.232622 414.173165 
L 337.437082 413.939241 
L 338.083636 413.939241 
L 337.293353 413.705316 
L 339.211078 413.705316 
L 338.426866 413.471392 
L 340.311834 413.471392 
L 339.533628 413.237468 
L 343.207826 413.237468 
L 342.436994 413.003544 
L 343.634483 413.003544 
L 341.351282 412.301772 
L 343.126271 412.301772 
L 342.375211 412.067848 
L 345.27 412.067848 
L 344.525485 411.833924 
L 345.095304 411.833924 
L 344.355372 411.6 
L 344.922527 411.6 
L 344.187123 411.366076 
L 344.751639 411.366076 
L 344.020708 411.132152 
L 345.697297 411.132152 
L 344.971698 410.898228 
L 346.075335 410.898228 
L 345.354545 410.664304 
L 345.9024 410.664304 
L 345.185904 410.43038 
L 346.813456 410.43038 
L 346.102105 410.196456 
L 349.283938 410.196456 
L 348.57907 409.962532 
L 358.042611 409.962532 
L 357.35086 409.728608 
L 359.233577 409.728608 
L 357.864407 409.260759 
L 358.330435 409.260759 
L 357.651325 409.026835 
L 359.495227 409.026835 
L 358.150831 408.558987 
L 361.743357 408.558987 
L 361.08 408.325063 
L 367.062162 408.325063 
L 366.409213 408.091139 
L 367.643973 408.091139 
L 366.995546 407.857215 
L 369.019824 407.857215 
L 368.376923 407.623291 
L 368.776974 407.623291 
L 368.137418 407.389367 
L 369.722343 407.389367 
L 369.087662 407.155443 
L 372.180638 407.155443 
L 371.552866 406.921519 
L 373.435714 406.921519 
L 372.813208 406.687595 
L 375.024224 406.687595 
L 374.407438 406.453671 
L 374.771134 406.453671 
L 374.157407 406.219747 
L 375.956212 406.219747 
L 374.741379 405.751899 
L 376.858317 405.751899 
L 376.2576 405.517975 
L 377.642857 405.517975 
L 377.046535 405.284051 
L 377.389921 405.284051 
L 376.205315 404.816203 
L 376.54833 404.816203 
L 375.96 404.582278 
L 376.982456 404.582278 
L 376.39786 404.348354 
L 378.078035 404.348354 
L 377.498077 404.11443 
L 382.984358 404.11443 
L 382.414684 403.880506 
L 382.727087 403.880506 
L 382.16 403.646582 
L 382.782288 403.646582 
L 382.218232 403.412658 
L 387.627273 403.412658 
L 387.073665 403.178734 
L 387.654255 403.178734 
L 387.10354 402.94481 
L 387.968134 402.94481 
L 387.420738 402.710886 
L 390.795181 402.710886 
L 390.255155 402.476962 
L 390.530532 402.476962 
L 392.432034 402.476962 
L 391.897462 402.243038 
L 392.165878 402.243038 
L 395.31755 402.243038 
L 394.790579 402.009114 
L 395.04802 402.009114 
L 395.815271 402.009114 
L 395.291803 401.77519 
L 395.546318 401.77519 
L 396.806494 401.77519 
L 396.287358 401.541266 
L 396.537379 401.541266 
L 401.840156 401.541266 
L 400.826636 401.073418 
L 401.059876 401.073418 
L 402.9 401.073418 
L 402.399387 400.839494 
L 402.626646 400.839494 
L 402.853211 400.839494 
L 401.858232 400.371646 
L 402.084932 400.371646 
L 407.325991 400.371646 
L 406.840909 400.137722 
L 407.051684 400.137722 
L 409.125974 400.137722 
L 408.646686 399.903797 
L 408.851223 399.903797 
L 413.206695 399.903797 
L 412.4625 399.435949 
L 415.65346 399.435949 
L 414.735589 398.968101 
L 414.919459 398.968101 
L 417.795238 398.968101 
L 417.071146 398.500253 
L 417.422602 398.500253 
L 416.975197 398.266329 
L 417.15059 398.266329 
L 418.537354 398.266329 
L 418.094301 398.032405 
L 418.265977 398.032405 
L 420.623634 398.032405 
L 420.186929 397.798481 
L 420.352471 397.798481 
L 421.823684 397.798481 
L 421.391489 397.564557 
L 421.55325 397.564557 
L 423.776167 397.564557 
L 423.350061 397.330633 
L 423.50625 397.330633 
L 425.954207 397.330633 
L 425.534694 397.096709 
L 425.684892 397.096709 
L 431.954897 397.096709 
L 431.550512 396.862785 
L 431.686023 396.862785 
L 432.090713 396.862785 
L 431.688462 396.628861 
L 431.823051 396.628861 
L 434.452376 396.628861 
L 434.057285 396.394937 
L 434.185998 396.394937 
L 437.678182 396.394937 
L 437.292308 396.161013 
L 437.413447 396.161013 
L 438.847208 396.161013 
L 438.465789 395.927089 
L 438.583912 395.927089 
L 440.211917 395.927089 
L 439.835404 395.693165 
L 439.950155 395.693165 
L 440.29299 395.693165 
L 439.918332 395.459241 
L 440.032407 395.459241 
L 440.486373 395.459241 
L 440.113818 395.225316 
L 440.226994 395.225316 
L 440.339939 395.225316 
L 439.968673 394.991392 
L 440.081651 394.991392 
L 440.194399 394.991392 
L 439.2 394.28962 
L 441.527309 394.28962 
L 440.803766 393.821772 
L 440.912673 393.821772 
L 442.52078 393.821772 
L 442.164035 393.587848 
L 442.269815 393.587848 
L 442.480758 393.587848 
L 442.125437 393.353924 
L 442.230844 393.353924 
L 443.066795 393.353924 
L 442.714327 393.12 
L 442.818156 393.12 
L 443.641659 393.12 
L 443.292 392.886076 
L 443.394291 392.886076 
L 444.306226 392.886076 
L 443.959566 392.652152 
L 444.060169 392.652152 
L 447.559836 392.652152 
L 447.222202 392.418228 
L 447.410354 392.418228 
L 448.616876 392.418228 
L 448.283139 392.184304 
L 448.466697 392.184304 
L 448.831847 392.184304 
L 448.3512 391.716456 
L 448.804513 391.716456 
L 448.475332 391.482532 
L 448.655958 391.482532 
L 453.138228 391.482532 
L 452.820658 391.248608 
L 452.985606 391.248608 
L 453.558577 391.248608 
L 453.243311 391.014684 
L 453.406177 391.014684 
L 456.780822 391.014684 
L 456.168946 390.546835 
L 456.320964 390.546835 
L 457.593661 390.546835 
L 457.064822 390.078987 
L 457.138863 390.078987 
L 459.094664 390.078987 
L 458.646106 389.611139 
L 460.045558 389.611139 
L 459.754552 389.377215 
L 459.8925 389.377215 
L 460.167145 389.377215 
L 459.877585 389.143291 
L 460.014619 389.143291 
L 460.355405 389.143291 
L 460.067442 388.909367 
L 460.203371 388.909367 
L 461.408647 388.909367 
L 460.906858 388.441519 
L 460.973102 388.441519 
L 462.916006 388.441519 
L 462.423237 387.973671 
L 462.486772 387.973671 
L 465.845851 387.973671 
L 465.57678 387.739747 
L 465.69441 387.739747 
L 465.811716 387.739747 
L 465.543595 387.505823 
L 465.660867 387.505823 
L 466.587551 387.505823 
L 466.322366 387.271899 
L 466.437067 387.271899 
L 466.494301 387.271899 
L 466.229898 387.037975 
L 466.344414 387.037975 
L 468.190132 387.037975 
L 467.930907 386.804051 
L 468.095112 386.804051 
L 472.442553 386.804051 
L 472.194934 386.570127 
L 472.342135 386.570127 
L 472.780447 386.570127 
L 472.534615 386.336203 
L 472.68 386.336203 
L 473.112931 386.336203 
L 472.868862 386.102278 
L 473.012469 386.102278 
L 473.107914 386.102278 
L 472.523105 385.400506 
L 473.793987 385.400506 
L 473.555228 385.166582 
L 473.694241 385.166582 
L 474.199702 385.166582 
L 473.962835 384.932658 
L 474.099881 384.932658 
L 475.355789 384.932658 
L 474.889836 384.46481 
L 475.022624 384.46481 
L 475.809694 384.46481 
L 475.579412 384.230886 
L 475.709326 384.230886 
L 477.23401 384.230886 
L 476.682293 383.529114 
L 477.383853 383.529114 
L 477.160768 383.29519 
L 477.2835 383.29519 
L 477.971326 383.29519 
L 477.750495 383.061266 
L 477.87084 383.061266 
L 478.269143 383.061266 
L 478.049836 382.827342 
L 478.168774 382.827342 
L 478.405486 382.827342 
L 478.187296 382.593418 
L 478.305366 382.593418 
L 478.89 382.593418 
L 478.673778 382.359494 
L 478.789861 382.359494 
L 479.020909 382.359494 
L 478.805772 382.12557 
L 478.921025 382.12557 
L 479.567213 382.12557 
L 479.354175 381.891646 
L 479.467282 381.891646 
L 480.505928 381.891646 
L 480.295946 381.657722 
L 480.44222 381.657722 
L 480.841362 381.657722 
L 480.56946 381.189873 
L 480.60555 381.189873 
L 480.397997 380.955949 
L 480.542337 380.955949 
L 482.02293 380.955949 
L 481.651052 380.488101 
L 481.754827 380.488101 
L 481.78935 380.488101 
L 481.586807 380.254177 
L 481.724888 380.254177 
L 482.407111 380.254177 
L 482.206762 380.020253 
L 482.341921 380.020253 
L 482.610648 380.020253 
L 482.411476 379.786329 
L 482.545374 379.786329 
L 483.174297 379.786329 
L 482.813172 379.318481 
L 482.911799 379.318481 
L 485.712935 379.318481 
L 485.523309 379.084557 
L 485.64408 379.084557 
L 485.884286 379.084557 
L 485.695716 378.850633 
L 485.815448 378.850633 
L 485.994223 378.850633 
L 485.806554 378.616709 
L 485.92548 378.616709 
L 487.005263 378.616709 
L 486.820683 378.382785 
L 486.935548 378.382785 
L 488.988532 378.382785 
L 488.809422 378.148861 
L 488.943718 378.148861 
L 489.396 378.148861 
L 489.218487 377.914937 
L 489.350579 377.914937 
L 489.665301 377.914937 
L 489.417625 377.447089 
L 489.443745 377.447089 
L 491.316832 377.447089 
L 491.145773 377.213165 
L 491.268519 377.213165 
L 491.317475 377.213165 
L 491.146979 376.979241 
L 491.269319 376.979241 
L 491.609217 376.979241 
L 491.439992 376.745316 
L 491.56074 376.745316 
L 491.8724 376.745316 
L 491.608279 376.277468 
L 491.656053 376.277468 
L 491.798913 376.277468 
L 491.631791 376.043544 
L 491.750602 376.043544 
L 492.360811 376.043544 
L 492.19559 375.80962 
L 492.311776 375.80962 
L 493.224941 375.80962 
L 493.062349 375.575696 
L 493.197197 375.575696 
L 493.219611 375.575696 
L 493.057526 375.341772 
L 493.191967 375.341772 
L 494.223819 375.341772 
L 493.927332 374.873924 
L 494.035372 374.873924 
L 494.843258 374.873924 
L 494.686634 374.64 
L 494.812402 374.64 
L 495.6975 374.64 
L 495.54344 374.406076 
L 495.665017 374.406076 
L 496.422749 374.406076 
L 496.138981 373.938228 
L 496.237541 373.938228 
L 496.276865 373.938228 
L 495.994276 373.47038 
L 496.092742 373.47038 
L 497.077241 373.47038 
L 496.81871 373.002532 
L 496.894687 373.002532 
L 497.881554 373.002532 
L 497.73605 372.768608 
L 497.864003 372.768608 
L 498.423313 372.768608 
L 498.279557 372.534684 
L 498.404521 372.534684 
L 498.475662 372.534684 
L 498.332474 372.300759 
L 498.456804 372.300759 
L 500.27 372.300759 
L 499.993207 371.832911 
L 500.109091 371.832911 
L 500.567388 371.832911 
L 500.430504 371.598987 
L 500.544058 371.598987 
L 500.737536 371.598987 
L 500.601475 371.365063 
L 500.729942 371.365063 
L 500.921415 371.365063 
L 500.786206 371.131139 
L 500.913346 371.131139 
L 501.197062 371.131139 
L 501.062919 370.897215 
L 501.18828 370.897215 
L 501.452585 370.897215 
L 501.319455 370.663291 
L 501.443156 370.663291 
L 501.535527 370.663291 
L 501.402993 370.429367 
L 501.52591 370.429367 
L 501.678698 370.429367 
L 501.5469 370.195443 
L 501.668738 370.195443 
L 502.505015 370.195443 
L 502.37557 369.961519 
L 502.492998 369.961519 
L 502.899549 369.961519 
L 502.771424 369.727595 
L 502.886601 369.727595 
L 503.001226 369.727595 
L 502.873722 369.493671 
L 502.98807 369.493671 
L 503.271568 369.493671 
L 503.14508 369.259747 
L 503.257806 369.259747 
L 503.565071 369.259747 
L 503.439648 369.025823 
L 503.564499 369.025823 
L 503.866938 369.025823 
L 503.673155 368.557975 
L 503.741514 368.557975 
L 504.066897 368.557975 
L 503.94375 368.324051 
L 504.064895 368.324051 
L 505.357291 368.324051 
L 505.036531 367.622278 
L 505.112973 367.622278 
L 505.428753 367.622278 
L 505.310199 367.388354 
L 505.423077 367.388354 
L 505.671922 367.388354 
L 505.554276 367.15443 
L 505.677966 367.15443 
L 505.739558 367.15443 
L 505.622407 366.920506 
L 505.745373 366.920506 
L 506.915933 366.920506 
L 506.801855 366.686582 
L 506.91816 366.686582 
L 509.628125 366.686582 
L 509.520729 366.452658 
L 509.633012 366.452658 
L 509.683848 366.452658 
L 509.576889 366.218734 
L 509.698671 366.218734 
L 510.772764 366.218734 
L 510.668672 365.98481 
L 510.783772 365.98481 
L 510.983615 365.98481 
L 510.880314 365.750886 
L 510.993883 365.750886 
L 511.497051 365.750886 
L 511.395249 365.516962 
L 511.514769 365.516962 
L 512.436705 365.516962 
L 512.337403 365.283038 
L 512.450965 365.283038 
L 512.607102 365.283038 
L 512.50848 365.049114 
L 512.620722 365.049114 
L 512.775051 365.049114 
L 512.690398 364.581266 
L 512.698926 364.581266 
L 514.118893 364.581266 
L 514.024639 364.347342 
L 514.143066 364.347342 
L 514.33097 364.347342 
L 514.237476 364.113418 
L 514.354215 364.113418 
L 514.431627 364.113418 
L 514.338628 363.879494 
L 514.454403 363.879494 
L 514.736862 363.879494 
L 514.644834 363.64557 
L 514.758363 363.64557 
L 514.953467 363.64557 
L 514.862198 363.411646 
L 514.974061 363.411646 
L 515.203052 363.411646 
L 515.112616 363.177722 
L 515.229936 363.177722 
L 515.259146 363.177722 
L 515.169089 362.943797 
L 515.28572 362.943797 
L 515.292984 362.943797 
L 515.229916 362.475949 
L 516.037522 362.475949 
L 515.95 362.242025 
L 516.067573 362.242025 
L 516.590324 362.242025 
L 516.504319 362.008101 
L 516.617881 362.008101 
L 516.809878 362.008101 
L 516.724613 361.774177 
L 516.836422 361.774177 
L 516.869167 361.774177 
L 516.784268 361.540253 
L 516.901902 361.540253 
L 517.012256 361.540253 
L 516.81137 360.838481 
L 516.876197 360.838481 
L 517.05 360.838481 
L 516.953492 360.370633 
L 516.99828 360.370633 
L 517.04932 360.370633 
L 516.966182 360.136709 
L 517.080722 360.136709 
L 518.589184 360.136709 
L 518.509772 359.902785 
L 518.625362 359.902785 
L 518.814288 359.902785 
L 518.735599 359.668861 
L 518.849282 359.668861 
L 518.928382 359.668861 
L 518.850159 359.434937 
L 518.962738 359.434937 
L 519.246255 359.434937 
L 519.135907 358.967089 
L 519.207496 358.967089 
L 519.689039 358.967089 
L 519.613151 358.733165 
L 519.724893 358.733165 
L 520.102006 358.733165 
L 520.02725 358.499241 
L 520.140917 358.499241 
L 520.30476 358.499241 
L 520.263633 358.031392 
L 520.268713 358.031392 
L 520.440407 358.031392 
L 520.366992 357.797468 
L 520.482306 357.797468 
L 520.661055 357.797468 
L 520.588325 357.563544 
L 520.70168 357.563544 
L 520.819061 357.563544 
L 520.781984 357.095696 
L 520.786843 357.095696 
L 520.796554 357.095696 
L 520.652838 356.627848 
L 520.764567 356.627848 
L 520.885075 356.627848 
L 520.805043 356.16 
L 520.857775 356.16 
L 521.099857 356.16 
L 521.029387 355.926076 
L 521.142207 355.926076 
L 521.548668 355.926076 
L 521.479368 355.692152 
L 521.593067 355.692152 
L 521.755252 355.692152 
L 521.676316 355.224304 
L 521.73 355.224304 
L 522.256154 355.224304 
L 522.188931 354.99038 
L 522.300676 354.99038 
L 522.697497 354.99038 
L 522.631413 354.756456 
L 522.743605 354.756456 
L 522.793182 354.756456 
L 522.727473 354.522532 
L 522.842727 354.522532 
L 523.017893 354.522532 
L 522.952841 354.288608 
L 523.065975 354.288608 
L 523.43915 354.288608 
L 523.375182 354.054684 
L 523.48854 354.054684 
L 523.535174 354.054684 
L 523.471575 353.820759 
L 523.583862 353.820759 
L 523.782911 353.820759 
L 523.720011 353.586835 
L 523.833777 353.586835 
L 523.976515 353.586835 
L 523.914192 353.352911 
L 524.026061 353.352911 
L 524.759247 353.352911 
L 524.698786 353.118987 
L 524.810959 353.118987 
L 525.124745 353.118987 
L 525.06523 352.885063 
L 525.177401 352.885063 
L 526.188391 352.885063 
L 526.131346 352.651139 
L 526.24349 352.651139 
L 526.403688 352.651139 
L 526.347253 352.417215 
L 526.46022 352.417215 
L 526.629225 352.417215 
L 526.573419 352.183291 
L 526.687019 352.183291 
L 526.695942 352.183291 
L 526.596845 351.715443 
L 526.697852 351.715443 
L 527.01318 351.715443 
L 526.958612 351.481519 
L 527.070705 351.481519 
L 527.116388 351.481519 
L 527.062175 351.247595 
L 527.175862 351.247595 
L 527.477447 351.247595 
L 527.424146 351.013671 
L 527.536874 351.013671 
L 528.37307 351.013671 
L 528.321837 350.779747 
L 528.433416 350.779747 
L 528.598723 350.779747 
L 528.548102 350.545823 
L 528.659659 350.545823 
L 528.79206 350.545823 
L 528.741978 350.311899 
L 528.853762 350.311899 
L 529.111813 350.311899 
L 529.081836 349.844051 
L 529.126519 349.844051 
L 529.358693 349.844051 
L 529.310186 349.610127 
L 529.422387 349.610127 
L 529.707811 349.610127 
L 529.672498 349.142278 
L 529.72551 349.142278 
L 531.41382 349.142278 
L 531.370074 348.908354 
L 531.481537 348.908354 
L 531.525766 348.908354 
L 531.482364 348.67443 
L 531.594111 348.67443 
L 531.686552 348.67443 
L 531.643597 348.440506 
L 531.755024 348.440506 
L 532.059195 348.440506 
L 532.059195 348.440506 
" style="fill:none;stroke:#9467bd;stroke-linecap:square;stroke-width:2;"/>
   </g>
   <g id="line2d_50">
    <path clip-path="url(#pd86267e806)" d="M 550.8 448.56 
L 529.240909 448.326076 
L 539.231707 448.326076 
L 542.478947 448.326076 
L 534.444828 448.092152 
L 538.152 448.092152 
L 546.080597 448.092152 
L 543.755941 447.858228 
L 544.846444 447.858228 
L 546.36729 447.858228 
L 543.569817 447.39038 
L 544.138483 447.39038 
L 544.542744 447.39038 
L 543.311053 447.156456 
L 543.892718 447.156456 
L 545.015854 447.156456 
L 544.065517 446.922532 
L 544.523819 446.922532 
L 545.375 446.922532 
L 544.610114 446.688608 
L 544.98928 446.688608 
L 545.448237 446.688608 
L 544.787746 446.454684 
L 545.115979 446.454684 
L 544.492819 446.220759 
L 544.803793 446.220759 
L 545.541685 446.220759 
L 545.022259 445.986835 
L 545.290707 445.986835 
L 546.733515 445.986835 
L 545.71562 445.285063 
L 545.840926 445.285063 
L 548.156608 445.285063 
L 547.804027 444.817215 
L 547.923275 444.817215 
L 548.089714 444.817215 
L 547.607758 444.115443 
L 547.721182 444.115443 
L 547.741039 444.115443 
L 547.581133 443.881519 
L 547.715122 443.881519 
L 547.891076 443.881519 
L 547.638958 443.413671 
L 547.731902 443.413671 
L 547.907927 443.413671 
L 547.777307 443.179747 
L 547.904088 443.179747 
L 548.014275 443.179747 
L 547.893898 442.945823 
L 548.018182 442.945823 
L 548.265895 442.945823 
L 548.073535 442.477975 
L 548.177329 442.477975 
L 548.29659 442.477975 
L 548.175934 442.010127 
L 548.224782 442.010127 
L 548.363676 442.010127 
L 548.301931 441.542278 
L 548.308929 441.542278 
L 548.357253 441.542278 
L 548.276262 441.308354 
L 548.393568 441.308354 
L 548.500094 441.308354 
L 548.455497 440.840506 
L 548.468767 440.840506 
L 548.61337 440.840506 
L 548.547423 440.606582 
L 548.662664 440.606582 
L 548.869181 440.606582 
L 548.81263 440.372658 
L 548.926777 440.372658 
L 549.012309 440.372658 
L 548.96143 440.138734 
L 549.075098 440.138734 
L 549.200637 440.138734 
L 549.156364 439.90481 
L 549.179884 439.90481 
" style="fill:none;stroke:#8c564b;stroke-linecap:square;stroke-width:2;"/>
   </g>
   <g id="patch_3">
    <path d="M 76.5 448.56 
L 76.5 60.48 
" style="fill:none;stroke:#000000;stroke-linecap:square;stroke-linejoin:miter;stroke-width:0.8;"/>
   </g>
   <g id="patch_4">
    <path d="M 550.8 448.56 
L 550.8 60.48 
" style="fill:none;stroke:#000000;stroke-linecap:square;stroke-linejoin:miter;stroke-width:0.8;"/>
   </g>
   <g id="patch_5">
    <path d="M 76.5 448.56 
L 550.8 448.56 
" style="fill:none;stroke:#000000;stroke-linecap:square;stroke-linejoin:miter;stroke-width:0.8;"/>
   </g>
   <g id="patch_6">
    <path d="M 76.5 60.48 
L 550.8 60.48 
" style="fill:none;stroke:#000000;stroke-linecap:square;stroke-linejoin:miter;stroke-width:0.8;"/>
   </g>
   <g id="text_25">
    <!-- wall: img1-img6 -->
    <defs>
     <path d="M 4.203125 54.6875 
L 13.1875 54.6875 
L 24.421875 12.015625 
L 35.59375 54.6875 
L 46.1875 54.6875 
L 57.421875 12.015625 
L 68.609375 54.6875 
L 77.59375 54.6875 
L 63.28125 0 
L 52.6875 0 
L 40.921875 44.828125 
L 29.109375 0 
L 18.5 0 
z
" id="DejaVuSans-119"/>
     <path d="M 34.28125 27.484375 
Q 23.390625 27.484375 19.1875 25 
Q 14.984375 22.515625 14.984375 16.5 
Q 14.984375 11.71875 18.140625 8.90625 
Q 21.296875 6.109375 26.703125 6.109375 
Q 34.1875 6.109375 38.703125 11.40625 
Q 43.21875 16.703125 43.21875 25.484375 
L 43.21875 27.484375 
z
M 52.203125 31.203125 
L 52.203125 0 
L 43.21875 0 
L 43.21875 8.296875 
Q 40.140625 3.328125 35.546875 0.953125 
Q 30.953125 -1.421875 24.3125 -1.421875 
Q 15.921875 -1.421875 10.953125 3.296875 
Q 6 8.015625 6 15.921875 
Q 6 25.140625 12.171875 29.828125 
Q 18.359375 34.515625 30.609375 34.515625 
L 43.21875 34.515625 
L 43.21875 35.40625 
Q 43.21875 41.609375 39.140625 45 
Q 35.0625 48.390625 27.6875 48.390625 
Q 23 48.390625 18.546875 47.265625 
Q 14.109375 46.140625 10.015625 43.890625 
L 10.015625 52.203125 
Q 14.9375 54.109375 19.578125 55.046875 
Q 24.21875 56 28.609375 56 
Q 40.484375 56 46.34375 49.84375 
Q 52.203125 43.703125 52.203125 31.203125 
z
" id="DejaVuSans-97"/>
     <path d="M 9.421875 75.984375 
L 18.40625 75.984375 
L 18.40625 0 
L 9.421875 0 
z
" id="DejaVuSans-108"/>
     <path d="M 11.71875 12.40625 
L 22.015625 12.40625 
L 22.015625 0 
L 11.71875 0 
z
M 11.71875 51.703125 
L 22.015625 51.703125 
L 22.015625 39.3125 
L 11.71875 39.3125 
z
" id="DejaVuSans-58"/>
     <path id="DejaVuSans-32"/>
     <path d="M 52 44.1875 
Q 55.375 50.25 60.0625 53.125 
Q 64.75 56 71.09375 56 
Q 79.640625 56 84.28125 50.015625 
Q 88.921875 44.046875 88.921875 33.015625 
L 88.921875 0 
L 79.890625 0 
L 79.890625 32.71875 
Q 79.890625 40.578125 77.09375 44.375 
Q 74.3125 48.1875 68.609375 48.1875 
Q 61.625 48.1875 57.5625 43.546875 
Q 53.515625 38.921875 53.515625 30.90625 
L 53.515625 0 
L 44.484375 0 
L 44.484375 32.71875 
Q 44.484375 40.625 41.703125 44.40625 
Q 38.921875 48.1875 33.109375 48.1875 
Q 26.21875 48.1875 22.15625 43.53125 
Q 18.109375 38.875 18.109375 30.90625 
L 18.109375 0 
L 9.078125 0 
L 9.078125 54.6875 
L 18.109375 54.6875 
L 18.109375 46.1875 
Q 21.1875 51.21875 25.484375 53.609375 
Q 29.78125 56 35.6875 56 
Q 41.65625 56 45.828125 52.96875 
Q 50 49.953125 52 44.1875 
z
" id="DejaVuSans-109"/>
     <path d="M 45.40625 27.984375 
Q 45.40625 37.75 41.375 43.109375 
Q 37.359375 48.484375 30.078125 48.484375 
Q 22.859375 48.484375 18.828125 43.109375 
Q 14.796875 37.75 14.796875 27.984375 
Q 14.796875 18.265625 18.828125 12.890625 
Q 22.859375 7.515625 30.078125 7.515625 
Q 37.359375 7.515625 41.375 12.890625 
Q 45.40625 18.265625 45.40625 27.984375 
z
M 54.390625 6.78125 
Q 54.390625 -7.171875 48.1875 -13.984375 
Q 42 -20.796875 29.203125 -20.796875 
Q 24.46875 -20.796875 20.265625 -20.09375 
Q 16.0625 -19.390625 12.109375 -17.921875 
L 12.109375 -9.1875 
Q 16.0625 -11.328125 19.921875 -12.34375 
Q 23.78125 -13.375 27.78125 -13.375 
Q 36.625 -13.375 41.015625 -8.765625 
Q 45.40625 -4.15625 45.40625 5.171875 
L 45.40625 9.625 
Q 42.625 4.78125 38.28125 2.390625 
Q 33.9375 0 27.875 0 
Q 17.828125 0 11.671875 7.65625 
Q 5.515625 15.328125 5.515625 27.984375 
Q 5.515625 40.671875 11.671875 48.328125 
Q 17.828125 56 27.875 56 
Q 33.9375 56 38.28125 53.609375 
Q 42.625 51.21875 45.40625 46.390625 
L 45.40625 54.6875 
L 54.390625 54.6875 
z
" id="DejaVuSans-103"/>
    </defs>
    <g transform="translate(265.364063 41.042625)scale(0.12 -0.12)">
     <use xlink:href="#DejaVuSans-119"/>
     <use x="81.787109" xlink:href="#DejaVuSans-97"/>
     <use x="143.066406" xlink:href="#DejaVuSans-108"/>
     <use x="170.849609" xlink:href="#DejaVuSans-108"/>
     <use x="198.632812" xlink:href="#DejaVuSans-58"/>
     <use x="232.324219" xlink:href="#DejaVuSans-32"/>
     <use x="264.111328" xlink:href="#DejaVuSans-105"/>
     <use x="291.894531" xlink:href="#DejaVuSans-109"/>
     <use x="389.306641" xlink:href="#DejaVuSans-103"/>
     <use x="452.783203" xlink:href="#DejaVuSans-49"/>
     <use x="516.40625" xlink:href="#DejaVuSans-45"/>
     <use x="552.490234" xlink:href="#DejaVuSans-105"/>
     <use x="580.273438" xlink:href="#DejaVuSans-109"/>
     <use x="677.685547" xlink:href="#DejaVuSans-103"/>
     <use x="741.162109" xlink:href="#DejaVuSans-54"/>
    </g>
    <!-- NearestNeighbours -->
    <defs>
     <path d="M 9.8125 72.90625 
L 23.09375 72.90625 
L 55.421875 11.921875 
L 55.421875 72.90625 
L 64.984375 72.90625 
L 64.984375 0 
L 51.703125 0 
L 19.390625 60.984375 
L 19.390625 0 
L 9.8125 0 
z
" id="DejaVuSans-78"/>
     <path d="M 54.890625 33.015625 
L 54.890625 0 
L 45.90625 0 
L 45.90625 32.71875 
Q 45.90625 40.484375 42.875 44.328125 
Q 39.84375 48.1875 33.796875 48.1875 
Q 26.515625 48.1875 22.3125 43.546875 
Q 18.109375 38.921875 18.109375 30.90625 
L 18.109375 0 
L 9.078125 0 
L 9.078125 75.984375 
L 18.109375 75.984375 
L 18.109375 46.1875 
Q 21.34375 51.125 25.703125 53.5625 
Q 30.078125 56 35.796875 56 
Q 45.21875 56 50.046875 50.171875 
Q 54.890625 44.34375 54.890625 33.015625 
z
" id="DejaVuSans-104"/>
     <path d="M 48.6875 27.296875 
Q 48.6875 37.203125 44.609375 42.84375 
Q 40.53125 48.484375 33.40625 48.484375 
Q 26.265625 48.484375 22.1875 42.84375 
Q 18.109375 37.203125 18.109375 27.296875 
Q 18.109375 17.390625 22.1875 11.75 
Q 26.265625 6.109375 33.40625 6.109375 
Q 40.53125 6.109375 44.609375 11.75 
Q 48.6875 17.390625 48.6875 27.296875 
z
M 18.109375 46.390625 
Q 20.953125 51.265625 25.265625 53.625 
Q 29.59375 56 35.59375 56 
Q 45.5625 56 51.78125 48.09375 
Q 58.015625 40.1875 58.015625 27.296875 
Q 58.015625 14.40625 51.78125 6.484375 
Q 45.5625 -1.421875 35.59375 -1.421875 
Q 29.59375 -1.421875 25.265625 0.953125 
Q 20.953125 3.328125 18.109375 8.203125 
L 18.109375 0 
L 9.078125 0 
L 9.078125 75.984375 
L 18.109375 75.984375 
z
" id="DejaVuSans-98"/>
     <path d="M 8.5 21.578125 
L 8.5 54.6875 
L 17.484375 54.6875 
L 17.484375 21.921875 
Q 17.484375 14.15625 20.5 10.265625 
Q 23.53125 6.390625 29.59375 6.390625 
Q 36.859375 6.390625 41.078125 11.03125 
Q 45.3125 15.671875 45.3125 23.6875 
L 45.3125 54.6875 
L 54.296875 54.6875 
L 54.296875 0 
L 45.3125 0 
L 45.3125 8.40625 
Q 42.046875 3.421875 37.71875 1 
Q 33.40625 -1.421875 27.6875 -1.421875 
Q 18.265625 -1.421875 13.375 4.4375 
Q 8.5 10.296875 8.5 21.578125 
z
M 31.109375 56 
z
" id="DejaVuSans-117"/>
    </defs>
    <g transform="translate(255.957188 54.48)scale(0.12 -0.12)">
     <use xlink:href="#DejaVuSans-78"/>
     <use x="74.804688" xlink:href="#DejaVuSans-101"/>
     <use x="136.328125" xlink:href="#DejaVuSans-97"/>
     <use x="197.607422" xlink:href="#DejaVuSans-114"/>
     <use x="236.470703" xlink:href="#DejaVuSans-101"/>
     <use x="297.994141" xlink:href="#DejaVuSans-115"/>
     <use x="350.09375" xlink:href="#DejaVuSans-116"/>
     <use x="389.302734" xlink:href="#DejaVuSans-78"/>
     <use x="464.107422" xlink:href="#DejaVuSans-101"/>
     <use x="525.630859" xlink:href="#DejaVuSans-105"/>
     <use x="553.414062" xlink:href="#DejaVuSans-103"/>
     <use x="616.890625" xlink:href="#DejaVuSans-104"/>
     <use x="680.269531" xlink:href="#DejaVuSans-98"/>
     <use x="743.746094" xlink:href="#DejaVuSans-111"/>
     <use x="804.927734" xlink:href="#DejaVuSans-117"/>
     <use x="868.306641" xlink:href="#DejaVuSans-114"/>
     <use x="909.419922" xlink:href="#DejaVuSans-115"/>
    </g>
   </g>
   <g id="legend_1">
    <g id="patch_7">
     <path d="M 375.384375 156.54875 
L 543.8 156.54875 
Q 545.8 156.54875 545.8 154.54875 
L 545.8 67.48 
Q 545.8 65.48 543.8 65.48 
L 375.384375 65.48 
Q 373.384375 65.48 373.384375 67.48 
L 373.384375 154.54875 
Q 373.384375 156.54875 375.384375 156.54875 
z
" style="fill:#ffffff;opacity:0.8;stroke:#cccccc;stroke-linejoin:miter;"/>
    </g>
    <g id="line2d_51">
     <path d="M 377.384375 73.578438 
L 397.384375 73.578438 
" style="fill:none;stroke:#1f77b4;stroke-linecap:square;stroke-width:2;"/>
    </g>
    <g id="line2d_52"/>
    <g id="text_26">
     <!-- root-cvsift AP: 0.9, %In: 1.7 -->
     <defs>
      <path d="M 2.984375 54.6875 
L 12.5 54.6875 
L 29.59375 8.796875 
L 46.6875 54.6875 
L 56.203125 54.6875 
L 35.6875 0 
L 23.484375 0 
z
" id="DejaVuSans-118"/>
      <path d="M 37.109375 75.984375 
L 37.109375 68.5 
L 28.515625 68.5 
Q 23.6875 68.5 21.796875 66.546875 
Q 19.921875 64.59375 19.921875 59.515625 
L 19.921875 54.6875 
L 34.71875 54.6875 
L 34.71875 47.703125 
L 19.921875 47.703125 
L 19.921875 0 
L 10.890625 0 
L 10.890625 47.703125 
L 2.296875 47.703125 
L 2.296875 54.6875 
L 10.890625 54.6875 
L 10.890625 58.5 
Q 10.890625 67.625 15.140625 71.796875 
Q 19.390625 75.984375 28.609375 75.984375 
z
" id="DejaVuSans-102"/>
      <path d="M 34.1875 63.1875 
L 20.796875 26.90625 
L 47.609375 26.90625 
z
M 28.609375 72.90625 
L 39.796875 72.90625 
L 67.578125 0 
L 57.328125 0 
L 50.6875 18.703125 
L 17.828125 18.703125 
L 11.1875 0 
L 0.78125 0 
z
" id="DejaVuSans-65"/>
      <path d="M 19.671875 64.796875 
L 19.671875 37.40625 
L 32.078125 37.40625 
Q 38.96875 37.40625 42.71875 40.96875 
Q 46.484375 44.53125 46.484375 51.125 
Q 46.484375 57.671875 42.71875 61.234375 
Q 38.96875 64.796875 32.078125 64.796875 
z
M 9.8125 72.90625 
L 32.078125 72.90625 
Q 44.34375 72.90625 50.609375 67.359375 
Q 56.890625 61.8125 56.890625 51.125 
Q 56.890625 40.328125 50.609375 34.8125 
Q 44.34375 29.296875 32.078125 29.296875 
L 19.671875 29.296875 
L 19.671875 0 
L 9.8125 0 
z
" id="DejaVuSans-80"/>
      <path d="M 11.71875 12.40625 
L 22.015625 12.40625 
L 22.015625 4 
L 14.015625 -11.625 
L 7.71875 -11.625 
L 11.71875 4 
z
" id="DejaVuSans-44"/>
      <path d="M 72.703125 32.078125 
Q 68.453125 32.078125 66.03125 28.46875 
Q 63.625 24.859375 63.625 18.40625 
Q 63.625 12.0625 66.03125 8.421875 
Q 68.453125 4.78125 72.703125 4.78125 
Q 76.859375 4.78125 79.265625 8.421875 
Q 81.6875 12.0625 81.6875 18.40625 
Q 81.6875 24.8125 79.265625 28.4375 
Q 76.859375 32.078125 72.703125 32.078125 
z
M 72.703125 38.28125 
Q 80.421875 38.28125 84.953125 32.90625 
Q 89.5 27.546875 89.5 18.40625 
Q 89.5 9.28125 84.9375 3.921875 
Q 80.375 -1.421875 72.703125 -1.421875 
Q 64.890625 -1.421875 60.34375 3.921875 
Q 55.8125 9.28125 55.8125 18.40625 
Q 55.8125 27.59375 60.375 32.9375 
Q 64.9375 38.28125 72.703125 38.28125 
z
M 22.3125 68.015625 
Q 18.109375 68.015625 15.6875 64.375 
Q 13.28125 60.75 13.28125 54.390625 
Q 13.28125 47.953125 15.671875 44.328125 
Q 18.0625 40.71875 22.3125 40.71875 
Q 26.5625 40.71875 28.96875 44.328125 
Q 31.390625 47.953125 31.390625 54.390625 
Q 31.390625 60.6875 28.953125 64.34375 
Q 26.515625 68.015625 22.3125 68.015625 
z
M 66.40625 74.21875 
L 74.21875 74.21875 
L 28.609375 -1.421875 
L 20.796875 -1.421875 
z
M 22.3125 74.21875 
Q 30.03125 74.21875 34.609375 68.875 
Q 39.203125 63.53125 39.203125 54.390625 
Q 39.203125 45.171875 34.640625 39.84375 
Q 30.078125 34.515625 22.3125 34.515625 
Q 14.546875 34.515625 10.03125 39.859375 
Q 5.515625 45.21875 5.515625 54.390625 
Q 5.515625 63.484375 10.046875 68.84375 
Q 14.59375 74.21875 22.3125 74.21875 
z
" id="DejaVuSans-37"/>
      <path d="M 9.8125 72.90625 
L 19.671875 72.90625 
L 19.671875 0 
L 9.8125 0 
z
" id="DejaVuSans-73"/>
     </defs>
     <g transform="translate(405.384375 77.078438)scale(0.1 -0.1)">
      <use xlink:href="#DejaVuSans-114"/>
      <use x="38.863281" xlink:href="#DejaVuSans-111"/>
      <use x="100.044922" xlink:href="#DejaVuSans-111"/>
      <use x="161.226562" xlink:href="#DejaVuSans-116"/>
      <use x="200.435547" xlink:href="#DejaVuSans-45"/>
      <use x="236.519531" xlink:href="#DejaVuSans-99"/>
      <use x="291.5" xlink:href="#DejaVuSans-118"/>
      <use x="350.679688" xlink:href="#DejaVuSans-115"/>
      <use x="402.779297" xlink:href="#DejaVuSans-105"/>
      <use x="430.5625" xlink:href="#DejaVuSans-102"/>
      <use x="464.017578" xlink:href="#DejaVuSans-116"/>
      <use x="503.226562" xlink:href="#DejaVuSans-32"/>
      <use x="535.013672" xlink:href="#DejaVuSans-65"/>
      <use x="603.421875" xlink:href="#DejaVuSans-80"/>
      <use x="663.724609" xlink:href="#DejaVuSans-58"/>
      <use x="697.416016" xlink:href="#DejaVuSans-32"/>
      <use x="729.203125" xlink:href="#DejaVuSans-48"/>
      <use x="792.826172" xlink:href="#DejaVuSans-46"/>
      <use x="824.613281" xlink:href="#DejaVuSans-57"/>
      <use x="888.236328" xlink:href="#DejaVuSans-44"/>
      <use x="920.023438" xlink:href="#DejaVuSans-32"/>
      <use x="951.810547" xlink:href="#DejaVuSans-37"/>
      <use x="1046.830078" xlink:href="#DejaVuSans-73"/>
      <use x="1076.322266" xlink:href="#DejaVuSans-110"/>
      <use x="1139.701172" xlink:href="#DejaVuSans-58"/>
      <use x="1173.392578" xlink:href="#DejaVuSans-32"/>
      <use x="1205.179688" xlink:href="#DejaVuSans-49"/>
      <use x="1268.802734" xlink:href="#DejaVuSans-46"/>
      <use x="1300.589844" xlink:href="#DejaVuSans-55"/>
     </g>
    </g>
    <g id="line2d_53">
     <path d="M 377.384375 88.256563 
L 397.384375 88.256563 
" style="fill:none;stroke:#ff7f0e;stroke-linecap:square;stroke-width:2;"/>
    </g>
    <g id="line2d_54"/>
    <g id="text_27">
     <!-- orb AP: 0.0, %In: 0.2 -->
     <g transform="translate(405.384375 91.756563)scale(0.1 -0.1)">
      <use xlink:href="#DejaVuSans-111"/>
      <use x="61.181641" xlink:href="#DejaVuSans-114"/>
      <use x="102.294922" xlink:href="#DejaVuSans-98"/>
      <use x="165.771484" xlink:href="#DejaVuSans-32"/>
      <use x="197.558594" xlink:href="#DejaVuSans-65"/>
      <use x="265.966797" xlink:href="#DejaVuSans-80"/>
      <use x="326.269531" xlink:href="#DejaVuSans-58"/>
      <use x="359.960938" xlink:href="#DejaVuSans-32"/>
      <use x="391.748047" xlink:href="#DejaVuSans-48"/>
      <use x="455.371094" xlink:href="#DejaVuSans-46"/>
      <use x="487.158203" xlink:href="#DejaVuSans-48"/>
      <use x="550.78125" xlink:href="#DejaVuSans-44"/>
      <use x="582.568359" xlink:href="#DejaVuSans-32"/>
      <use x="614.355469" xlink:href="#DejaVuSans-37"/>
      <use x="709.375" xlink:href="#DejaVuSans-73"/>
      <use x="738.867188" xlink:href="#DejaVuSans-110"/>
      <use x="802.246094" xlink:href="#DejaVuSans-58"/>
      <use x="835.9375" xlink:href="#DejaVuSans-32"/>
      <use x="867.724609" xlink:href="#DejaVuSans-48"/>
      <use x="931.347656" xlink:href="#DejaVuSans-46"/>
      <use x="963.134766" xlink:href="#DejaVuSans-50"/>
     </g>
    </g>
    <g id="line2d_55">
     <path d="M 377.384375 102.934687 
L 397.384375 102.934687 
" style="fill:none;stroke:#2ca02c;stroke-linecap:square;stroke-width:2;"/>
    </g>
    <g id="line2d_56"/>
    <g id="text_28">
     <!-- binboost AP: 0.0, %In: 0.5 -->
     <g transform="translate(405.384375 106.434687)scale(0.1 -0.1)">
      <use xlink:href="#DejaVuSans-98"/>
      <use x="63.476562" xlink:href="#DejaVuSans-105"/>
      <use x="91.259766" xlink:href="#DejaVuSans-110"/>
      <use x="154.638672" xlink:href="#DejaVuSans-98"/>
      <use x="218.115234" xlink:href="#DejaVuSans-111"/>
      <use x="279.296875" xlink:href="#DejaVuSans-111"/>
      <use x="340.478516" xlink:href="#DejaVuSans-115"/>
      <use x="392.578125" xlink:href="#DejaVuSans-116"/>
      <use x="431.787109" xlink:href="#DejaVuSans-32"/>
      <use x="463.574219" xlink:href="#DejaVuSans-65"/>
      <use x="531.982422" xlink:href="#DejaVuSans-80"/>
      <use x="592.285156" xlink:href="#DejaVuSans-58"/>
      <use x="625.976562" xlink:href="#DejaVuSans-32"/>
      <use x="657.763672" xlink:href="#DejaVuSans-48"/>
      <use x="721.386719" xlink:href="#DejaVuSans-46"/>
      <use x="753.173828" xlink:href="#DejaVuSans-48"/>
      <use x="816.796875" xlink:href="#DejaVuSans-44"/>
      <use x="848.583984" xlink:href="#DejaVuSans-32"/>
      <use x="880.371094" xlink:href="#DejaVuSans-37"/>
      <use x="975.390625" xlink:href="#DejaVuSans-73"/>
      <use x="1004.882812" xlink:href="#DejaVuSans-110"/>
      <use x="1068.261719" xlink:href="#DejaVuSans-58"/>
      <use x="1101.953125" xlink:href="#DejaVuSans-32"/>
      <use x="1133.740234" xlink:href="#DejaVuSans-48"/>
      <use x="1197.363281" xlink:href="#DejaVuSans-46"/>
      <use x="1229.150391" xlink:href="#DejaVuSans-53"/>
     </g>
    </g>
    <g id="line2d_57">
     <path d="M 377.384375 117.612813 
L 397.384375 117.612813 
" style="fill:none;stroke:#d62728;stroke-linecap:square;stroke-width:2;"/>
    </g>
    <g id="line2d_58"/>
    <g id="text_29">
     <!-- tfeat AP: 0.7, %In: 1.4 -->
     <g transform="translate(405.384375 121.112813)scale(0.1 -0.1)">
      <use xlink:href="#DejaVuSans-116"/>
      <use x="39.208984" xlink:href="#DejaVuSans-102"/>
      <use x="74.414062" xlink:href="#DejaVuSans-101"/>
      <use x="135.9375" xlink:href="#DejaVuSans-97"/>
      <use x="197.216797" xlink:href="#DejaVuSans-116"/>
      <use x="236.425781" xlink:href="#DejaVuSans-32"/>
      <use x="268.212891" xlink:href="#DejaVuSans-65"/>
      <use x="336.621094" xlink:href="#DejaVuSans-80"/>
      <use x="396.923828" xlink:href="#DejaVuSans-58"/>
      <use x="430.615234" xlink:href="#DejaVuSans-32"/>
      <use x="462.402344" xlink:href="#DejaVuSans-48"/>
      <use x="526.025391" xlink:href="#DejaVuSans-46"/>
      <use x="557.8125" xlink:href="#DejaVuSans-55"/>
      <use x="621.435547" xlink:href="#DejaVuSans-44"/>
      <use x="653.222656" xlink:href="#DejaVuSans-32"/>
      <use x="685.009766" xlink:href="#DejaVuSans-37"/>
      <use x="780.029297" xlink:href="#DejaVuSans-73"/>
      <use x="809.521484" xlink:href="#DejaVuSans-110"/>
      <use x="872.900391" xlink:href="#DejaVuSans-58"/>
      <use x="906.591797" xlink:href="#DejaVuSans-32"/>
      <use x="938.378906" xlink:href="#DejaVuSans-49"/>
      <use x="1002.001953" xlink:href="#DejaVuSans-46"/>
      <use x="1033.789062" xlink:href="#DejaVuSans-52"/>
     </g>
    </g>
    <g id="line2d_59">
     <path d="M 377.384375 132.290938 
L 397.384375 132.290938 
" style="fill:none;stroke:#9467bd;stroke-linecap:square;stroke-width:2;"/>
    </g>
    <g id="line2d_60"/>
    <g id="text_30">
     <!-- hardnet AP: 8.4, %In: 4.0 -->
     <defs>
      <path d="M 45.40625 46.390625 
L 45.40625 75.984375 
L 54.390625 75.984375 
L 54.390625 0 
L 45.40625 0 
L 45.40625 8.203125 
Q 42.578125 3.328125 38.25 0.953125 
Q 33.9375 -1.421875 27.875 -1.421875 
Q 17.96875 -1.421875 11.734375 6.484375 
Q 5.515625 14.40625 5.515625 27.296875 
Q 5.515625 40.1875 11.734375 48.09375 
Q 17.96875 56 27.875 56 
Q 33.9375 56 38.25 53.625 
Q 42.578125 51.265625 45.40625 46.390625 
z
M 14.796875 27.296875 
Q 14.796875 17.390625 18.875 11.75 
Q 22.953125 6.109375 30.078125 6.109375 
Q 37.203125 6.109375 41.296875 11.75 
Q 45.40625 17.390625 45.40625 27.296875 
Q 45.40625 37.203125 41.296875 42.84375 
Q 37.203125 48.484375 30.078125 48.484375 
Q 22.953125 48.484375 18.875 42.84375 
Q 14.796875 37.203125 14.796875 27.296875 
z
" id="DejaVuSans-100"/>
     </defs>
     <g transform="translate(405.384375 135.790938)scale(0.1 -0.1)">
      <use xlink:href="#DejaVuSans-104"/>
      <use x="63.378906" xlink:href="#DejaVuSans-97"/>
      <use x="124.658203" xlink:href="#DejaVuSans-114"/>
      <use x="164.021484" xlink:href="#DejaVuSans-100"/>
      <use x="227.498047" xlink:href="#DejaVuSans-110"/>
      <use x="290.876953" xlink:href="#DejaVuSans-101"/>
      <use x="352.400391" xlink:href="#DejaVuSans-116"/>
      <use x="391.609375" xlink:href="#DejaVuSans-32"/>
      <use x="423.396484" xlink:href="#DejaVuSans-65"/>
      <use x="491.804688" xlink:href="#DejaVuSans-80"/>
      <use x="552.107422" xlink:href="#DejaVuSans-58"/>
      <use x="585.798828" xlink:href="#DejaVuSans-32"/>
      <use x="617.585938" xlink:href="#DejaVuSans-56"/>
      <use x="681.208984" xlink:href="#DejaVuSans-46"/>
      <use x="712.996094" xlink:href="#DejaVuSans-52"/>
      <use x="776.619141" xlink:href="#DejaVuSans-44"/>
      <use x="808.40625" xlink:href="#DejaVuSans-32"/>
      <use x="840.193359" xlink:href="#DejaVuSans-37"/>
      <use x="935.212891" xlink:href="#DejaVuSans-73"/>
      <use x="964.705078" xlink:href="#DejaVuSans-110"/>
      <use x="1028.083984" xlink:href="#DejaVuSans-58"/>
      <use x="1061.775391" xlink:href="#DejaVuSans-32"/>
      <use x="1093.5625" xlink:href="#DejaVuSans-52"/>
      <use x="1157.185547" xlink:href="#DejaVuSans-46"/>
      <use x="1188.972656" xlink:href="#DejaVuSans-48"/>
     </g>
    </g>
    <g id="line2d_61">
     <path d="M 377.384375 146.969063 
L 397.384375 146.969063 
" style="fill:none;stroke:#8c564b;stroke-linecap:square;stroke-width:2;"/>
    </g>
    <g id="line2d_62"/>
    <g id="text_31">
     <!-- beblid AP: 0.0, %In: 0.3 -->
     <g transform="translate(405.384375 150.469063)scale(0.1 -0.1)">
      <use xlink:href="#DejaVuSans-98"/>
      <use x="63.476562" xlink:href="#DejaVuSans-101"/>
      <use x="125" xlink:href="#DejaVuSans-98"/>
      <use x="188.476562" xlink:href="#DejaVuSans-108"/>
      <use x="216.259766" xlink:href="#DejaVuSans-105"/>
      <use x="244.042969" xlink:href="#DejaVuSans-100"/>
      <use x="307.519531" xlink:href="#DejaVuSans-32"/>
      <use x="339.306641" xlink:href="#DejaVuSans-65"/>
      <use x="407.714844" xlink:href="#DejaVuSans-80"/>
      <use x="468.017578" xlink:href="#DejaVuSans-58"/>
      <use x="501.708984" xlink:href="#DejaVuSans-32"/>
      <use x="533.496094" xlink:href="#DejaVuSans-48"/>
      <use x="597.119141" xlink:href="#DejaVuSans-46"/>
      <use x="628.90625" xlink:href="#DejaVuSans-48"/>
      <use x="692.529297" xlink:href="#DejaVuSans-44"/>
      <use x="724.316406" xlink:href="#DejaVuSans-32"/>
      <use x="756.103516" xlink:href="#DejaVuSans-37"/>
      <use x="851.123047" xlink:href="#DejaVuSans-73"/>
      <use x="880.615234" xlink:href="#DejaVuSans-110"/>
      <use x="943.994141" xlink:href="#DejaVuSans-58"/>
      <use x="977.685547" xlink:href="#DejaVuSans-32"/>
      <use x="1009.472656" xlink:href="#DejaVuSans-48"/>
      <use x="1073.095703" xlink:href="#DejaVuSans-46"/>
      <use x="1104.882812" xlink:href="#DejaVuSans-51"/>
     </g>
    </g>
   </g>
  </g>
 </g>
 <defs>
  <clipPath id="pd86267e806">
   <rect height="388.08" width="474.3" x="76.5" y="60.48"/>
  </clipPath>
 </defs>
</svg>
