<?xml version="1.0" encoding="utf-8" standalone="no"?>
<!DOCTYPE svg PUBLIC "-//W3C//DTD SVG 1.1//EN"
  "http://www.w3.org/Graphics/SVG/1.1/DTD/svg11.dtd">
<!-- Created with matplotlib (https://matplotlib.org/) -->
<svg height="504pt" version="1.1" viewBox="0 0 612 504" width="612pt" xmlns="http://www.w3.org/2000/svg" xmlns:xlink="http://www.w3.org/1999/xlink">
 <defs>
  <style type="text/css">
*{stroke-linecap:butt;stroke-linejoin:round;}
  </style>
 </defs>
 <g id="figure_1">
  <g id="patch_1">
   <path d="M 0 504 
L 612 504 
L 612 0 
L 0 0 
z
" style="fill:#ffffff;"/>
  </g>
  <g id="axes_1">
   <g id="patch_2">
    <path d="M 76.5 448.56 
L 550.8 448.56 
L 550.8 60.48 
L 76.5 60.48 
z
" style="fill:#ffffff;"/>
   </g>
   <g id="matplotlib.axis_1">
    <g id="xtick_1">
     <g id="line2d_1">
      <path clip-path="url(#p0e53790ce2)" d="M 76.5 448.56 
L 76.5 60.48 
" style="fill:none;stroke:#b0b0b0;stroke-linecap:square;stroke-width:0.8;"/>
     </g>
     <g id="line2d_2">
      <defs>
       <path d="M 0 0 
L 0 3.5 
" id="mb5cc081258" style="stroke:#000000;stroke-width:0.8;"/>
      </defs>
      <g>
       <use style="stroke:#000000;stroke-width:0.8;" x="76.5" xlink:href="#mb5cc081258" y="448.56"/>
      </g>
     </g>
     <g id="text_1">
      <!-- 0.0 -->
      <defs>
       <path d="M 31.78125 66.40625 
Q 24.171875 66.40625 20.328125 58.90625 
Q 16.5 51.421875 16.5 36.375 
Q 16.5 21.390625 20.328125 13.890625 
Q 24.171875 6.390625 31.78125 6.390625 
Q 39.453125 6.390625 43.28125 13.890625 
Q 47.125 21.390625 47.125 36.375 
Q 47.125 51.421875 43.28125 58.90625 
Q 39.453125 66.40625 31.78125 66.40625 
z
M 31.78125 74.21875 
Q 44.046875 74.21875 50.515625 64.515625 
Q 56.984375 54.828125 56.984375 36.375 
Q 56.984375 17.96875 50.515625 8.265625 
Q 44.046875 -1.421875 31.78125 -1.421875 
Q 19.53125 -1.421875 13.0625 8.265625 
Q 6.59375 17.96875 6.59375 36.375 
Q 6.59375 54.828125 13.0625 64.515625 
Q 19.53125 74.21875 31.78125 74.21875 
z
" id="DejaVuSans-48"/>
       <path d="M 10.6875 12.40625 
L 21 12.40625 
L 21 0 
L 10.6875 0 
z
" id="DejaVuSans-46"/>
      </defs>
      <g transform="translate(68.548438 463.158437)scale(0.1 -0.1)">
       <use xlink:href="#DejaVuSans-48"/>
       <use x="63.623047" xlink:href="#DejaVuSans-46"/>
       <use x="95.410156" xlink:href="#DejaVuSans-48"/>
      </g>
     </g>
    </g>
    <g id="xtick_2">
     <g id="line2d_3">
      <path clip-path="url(#p0e53790ce2)" d="M 123.93 448.56 
L 123.93 60.48 
" style="fill:none;stroke:#b0b0b0;stroke-linecap:square;stroke-width:0.8;"/>
     </g>
     <g id="line2d_4">
      <g>
       <use style="stroke:#000000;stroke-width:0.8;" x="123.93" xlink:href="#mb5cc081258" y="448.56"/>
      </g>
     </g>
     <g id="text_2">
      <!-- 0.1 -->
      <defs>
       <path d="M 12.40625 8.296875 
L 28.515625 8.296875 
L 28.515625 63.921875 
L 10.984375 60.40625 
L 10.984375 69.390625 
L 28.421875 72.90625 
L 38.28125 72.90625 
L 38.28125 8.296875 
L 54.390625 8.296875 
L 54.390625 0 
L 12.40625 0 
z
" id="DejaVuSans-49"/>
      </defs>
      <g transform="translate(115.978438 463.158437)scale(0.1 -0.1)">
       <use xlink:href="#DejaVuSans-48"/>
       <use x="63.623047" xlink:href="#DejaVuSans-46"/>
       <use x="95.410156" xlink:href="#DejaVuSans-49"/>
      </g>
     </g>
    </g>
    <g id="xtick_3">
     <g id="line2d_5">
      <path clip-path="url(#p0e53790ce2)" d="M 171.36 448.56 
L 171.36 60.48 
" style="fill:none;stroke:#b0b0b0;stroke-linecap:square;stroke-width:0.8;"/>
     </g>
     <g id="line2d_6">
      <g>
       <use style="stroke:#000000;stroke-width:0.8;" x="171.36" xlink:href="#mb5cc081258" y="448.56"/>
      </g>
     </g>
     <g id="text_3">
      <!-- 0.2 -->
      <defs>
       <path d="M 19.1875 8.296875 
L 53.609375 8.296875 
L 53.609375 0 
L 7.328125 0 
L 7.328125 8.296875 
Q 12.9375 14.109375 22.625 23.890625 
Q 32.328125 33.6875 34.8125 36.53125 
Q 39.546875 41.84375 41.421875 45.53125 
Q 43.3125 49.21875 43.3125 52.78125 
Q 43.3125 58.59375 39.234375 62.25 
Q 35.15625 65.921875 28.609375 65.921875 
Q 23.96875 65.921875 18.8125 64.3125 
Q 13.671875 62.703125 7.8125 59.421875 
L 7.8125 69.390625 
Q 13.765625 71.78125 18.9375 73 
Q 24.125 74.21875 28.421875 74.21875 
Q 39.75 74.21875 46.484375 68.546875 
Q 53.21875 62.890625 53.21875 53.421875 
Q 53.21875 48.921875 51.53125 44.890625 
Q 49.859375 40.875 45.40625 35.40625 
Q 44.1875 33.984375 37.640625 27.21875 
Q 31.109375 20.453125 19.1875 8.296875 
z
" id="DejaVuSans-50"/>
      </defs>
      <g transform="translate(163.408438 463.158437)scale(0.1 -0.1)">
       <use xlink:href="#DejaVuSans-48"/>
       <use x="63.623047" xlink:href="#DejaVuSans-46"/>
       <use x="95.410156" xlink:href="#DejaVuSans-50"/>
      </g>
     </g>
    </g>
    <g id="xtick_4">
     <g id="line2d_7">
      <path clip-path="url(#p0e53790ce2)" d="M 218.79 448.56 
L 218.79 60.48 
" style="fill:none;stroke:#b0b0b0;stroke-linecap:square;stroke-width:0.8;"/>
     </g>
     <g id="line2d_8">
      <g>
       <use style="stroke:#000000;stroke-width:0.8;" x="218.79" xlink:href="#mb5cc081258" y="448.56"/>
      </g>
     </g>
     <g id="text_4">
      <!-- 0.3 -->
      <defs>
       <path d="M 40.578125 39.3125 
Q 47.65625 37.796875 51.625 33 
Q 55.609375 28.21875 55.609375 21.1875 
Q 55.609375 10.40625 48.1875 4.484375 
Q 40.765625 -1.421875 27.09375 -1.421875 
Q 22.515625 -1.421875 17.65625 -0.515625 
Q 12.796875 0.390625 7.625 2.203125 
L 7.625 11.71875 
Q 11.71875 9.328125 16.59375 8.109375 
Q 21.484375 6.890625 26.8125 6.890625 
Q 36.078125 6.890625 40.9375 10.546875 
Q 45.796875 14.203125 45.796875 21.1875 
Q 45.796875 27.640625 41.28125 31.265625 
Q 36.765625 34.90625 28.71875 34.90625 
L 20.21875 34.90625 
L 20.21875 43.015625 
L 29.109375 43.015625 
Q 36.375 43.015625 40.234375 45.921875 
Q 44.09375 48.828125 44.09375 54.296875 
Q 44.09375 59.90625 40.109375 62.90625 
Q 36.140625 65.921875 28.71875 65.921875 
Q 24.65625 65.921875 20.015625 65.03125 
Q 15.375 64.15625 9.8125 62.3125 
L 9.8125 71.09375 
Q 15.4375 72.65625 20.34375 73.4375 
Q 25.25 74.21875 29.59375 74.21875 
Q 40.828125 74.21875 47.359375 69.109375 
Q 53.90625 64.015625 53.90625 55.328125 
Q 53.90625 49.265625 50.4375 45.09375 
Q 46.96875 40.921875 40.578125 39.3125 
z
" id="DejaVuSans-51"/>
      </defs>
      <g transform="translate(210.838438 463.158437)scale(0.1 -0.1)">
       <use xlink:href="#DejaVuSans-48"/>
       <use x="63.623047" xlink:href="#DejaVuSans-46"/>
       <use x="95.410156" xlink:href="#DejaVuSans-51"/>
      </g>
     </g>
    </g>
    <g id="xtick_5">
     <g id="line2d_9">
      <path clip-path="url(#p0e53790ce2)" d="M 266.22 448.56 
L 266.22 60.48 
" style="fill:none;stroke:#b0b0b0;stroke-linecap:square;stroke-width:0.8;"/>
     </g>
     <g id="line2d_10">
      <g>
       <use style="stroke:#000000;stroke-width:0.8;" x="266.22" xlink:href="#mb5cc081258" y="448.56"/>
      </g>
     </g>
     <g id="text_5">
      <!-- 0.4 -->
      <defs>
       <path d="M 37.796875 64.3125 
L 12.890625 25.390625 
L 37.796875 25.390625 
z
M 35.203125 72.90625 
L 47.609375 72.90625 
L 47.609375 25.390625 
L 58.015625 25.390625 
L 58.015625 17.1875 
L 47.609375 17.1875 
L 47.609375 0 
L 37.796875 0 
L 37.796875 17.1875 
L 4.890625 17.1875 
L 4.890625 26.703125 
z
" id="DejaVuSans-52"/>
      </defs>
      <g transform="translate(258.268438 463.158437)scale(0.1 -0.1)">
       <use xlink:href="#DejaVuSans-48"/>
       <use x="63.623047" xlink:href="#DejaVuSans-46"/>
       <use x="95.410156" xlink:href="#DejaVuSans-52"/>
      </g>
     </g>
    </g>
    <g id="xtick_6">
     <g id="line2d_11">
      <path clip-path="url(#p0e53790ce2)" d="M 313.65 448.56 
L 313.65 60.48 
" style="fill:none;stroke:#b0b0b0;stroke-linecap:square;stroke-width:0.8;"/>
     </g>
     <g id="line2d_12">
      <g>
       <use style="stroke:#000000;stroke-width:0.8;" x="313.65" xlink:href="#mb5cc081258" y="448.56"/>
      </g>
     </g>
     <g id="text_6">
      <!-- 0.5 -->
      <defs>
       <path d="M 10.796875 72.90625 
L 49.515625 72.90625 
L 49.515625 64.59375 
L 19.828125 64.59375 
L 19.828125 46.734375 
Q 21.96875 47.46875 24.109375 47.828125 
Q 26.265625 48.1875 28.421875 48.1875 
Q 40.625 48.1875 47.75 41.5 
Q 54.890625 34.8125 54.890625 23.390625 
Q 54.890625 11.625 47.5625 5.09375 
Q 40.234375 -1.421875 26.90625 -1.421875 
Q 22.3125 -1.421875 17.546875 -0.640625 
Q 12.796875 0.140625 7.71875 1.703125 
L 7.71875 11.625 
Q 12.109375 9.234375 16.796875 8.0625 
Q 21.484375 6.890625 26.703125 6.890625 
Q 35.15625 6.890625 40.078125 11.328125 
Q 45.015625 15.765625 45.015625 23.390625 
Q 45.015625 31 40.078125 35.4375 
Q 35.15625 39.890625 26.703125 39.890625 
Q 22.75 39.890625 18.8125 39.015625 
Q 14.890625 38.140625 10.796875 36.28125 
z
" id="DejaVuSans-53"/>
      </defs>
      <g transform="translate(305.698438 463.158437)scale(0.1 -0.1)">
       <use xlink:href="#DejaVuSans-48"/>
       <use x="63.623047" xlink:href="#DejaVuSans-46"/>
       <use x="95.410156" xlink:href="#DejaVuSans-53"/>
      </g>
     </g>
    </g>
    <g id="xtick_7">
     <g id="line2d_13">
      <path clip-path="url(#p0e53790ce2)" d="M 361.08 448.56 
L 361.08 60.48 
" style="fill:none;stroke:#b0b0b0;stroke-linecap:square;stroke-width:0.8;"/>
     </g>
     <g id="line2d_14">
      <g>
       <use style="stroke:#000000;stroke-width:0.8;" x="361.08" xlink:href="#mb5cc081258" y="448.56"/>
      </g>
     </g>
     <g id="text_7">
      <!-- 0.6 -->
      <defs>
       <path d="M 33.015625 40.375 
Q 26.375 40.375 22.484375 35.828125 
Q 18.609375 31.296875 18.609375 23.390625 
Q 18.609375 15.53125 22.484375 10.953125 
Q 26.375 6.390625 33.015625 6.390625 
Q 39.65625 6.390625 43.53125 10.953125 
Q 47.40625 15.53125 47.40625 23.390625 
Q 47.40625 31.296875 43.53125 35.828125 
Q 39.65625 40.375 33.015625 40.375 
z
M 52.59375 71.296875 
L 52.59375 62.3125 
Q 48.875 64.0625 45.09375 64.984375 
Q 41.3125 65.921875 37.59375 65.921875 
Q 27.828125 65.921875 22.671875 59.328125 
Q 17.53125 52.734375 16.796875 39.40625 
Q 19.671875 43.65625 24.015625 45.921875 
Q 28.375 48.1875 33.59375 48.1875 
Q 44.578125 48.1875 50.953125 41.515625 
Q 57.328125 34.859375 57.328125 23.390625 
Q 57.328125 12.15625 50.6875 5.359375 
Q 44.046875 -1.421875 33.015625 -1.421875 
Q 20.359375 -1.421875 13.671875 8.265625 
Q 6.984375 17.96875 6.984375 36.375 
Q 6.984375 53.65625 15.1875 63.9375 
Q 23.390625 74.21875 37.203125 74.21875 
Q 40.921875 74.21875 44.703125 73.484375 
Q 48.484375 72.75 52.59375 71.296875 
z
" id="DejaVuSans-54"/>
      </defs>
      <g transform="translate(353.128438 463.158437)scale(0.1 -0.1)">
       <use xlink:href="#DejaVuSans-48"/>
       <use x="63.623047" xlink:href="#DejaVuSans-46"/>
       <use x="95.410156" xlink:href="#DejaVuSans-54"/>
      </g>
     </g>
    </g>
    <g id="xtick_8">
     <g id="line2d_15">
      <path clip-path="url(#p0e53790ce2)" d="M 408.51 448.56 
L 408.51 60.48 
" style="fill:none;stroke:#b0b0b0;stroke-linecap:square;stroke-width:0.8;"/>
     </g>
     <g id="line2d_16">
      <g>
       <use style="stroke:#000000;stroke-width:0.8;" x="408.51" xlink:href="#mb5cc081258" y="448.56"/>
      </g>
     </g>
     <g id="text_8">
      <!-- 0.7 -->
      <defs>
       <path d="M 8.203125 72.90625 
L 55.078125 72.90625 
L 55.078125 68.703125 
L 28.609375 0 
L 18.3125 0 
L 43.21875 64.59375 
L 8.203125 64.59375 
z
" id="DejaVuSans-55"/>
      </defs>
      <g transform="translate(400.558438 463.158437)scale(0.1 -0.1)">
       <use xlink:href="#DejaVuSans-48"/>
       <use x="63.623047" xlink:href="#DejaVuSans-46"/>
       <use x="95.410156" xlink:href="#DejaVuSans-55"/>
      </g>
     </g>
    </g>
    <g id="xtick_9">
     <g id="line2d_17">
      <path clip-path="url(#p0e53790ce2)" d="M 455.94 448.56 
L 455.94 60.48 
" style="fill:none;stroke:#b0b0b0;stroke-linecap:square;stroke-width:0.8;"/>
     </g>
     <g id="line2d_18">
      <g>
       <use style="stroke:#000000;stroke-width:0.8;" x="455.94" xlink:href="#mb5cc081258" y="448.56"/>
      </g>
     </g>
     <g id="text_9">
      <!-- 0.8 -->
      <defs>
       <path d="M 31.78125 34.625 
Q 24.75 34.625 20.71875 30.859375 
Q 16.703125 27.09375 16.703125 20.515625 
Q 16.703125 13.921875 20.71875 10.15625 
Q 24.75 6.390625 31.78125 6.390625 
Q 38.8125 6.390625 42.859375 10.171875 
Q 46.921875 13.96875 46.921875 20.515625 
Q 46.921875 27.09375 42.890625 30.859375 
Q 38.875 34.625 31.78125 34.625 
z
M 21.921875 38.8125 
Q 15.578125 40.375 12.03125 44.71875 
Q 8.5 49.078125 8.5 55.328125 
Q 8.5 64.0625 14.71875 69.140625 
Q 20.953125 74.21875 31.78125 74.21875 
Q 42.671875 74.21875 48.875 69.140625 
Q 55.078125 64.0625 55.078125 55.328125 
Q 55.078125 49.078125 51.53125 44.71875 
Q 48 40.375 41.703125 38.8125 
Q 48.828125 37.15625 52.796875 32.3125 
Q 56.78125 27.484375 56.78125 20.515625 
Q 56.78125 9.90625 50.3125 4.234375 
Q 43.84375 -1.421875 31.78125 -1.421875 
Q 19.734375 -1.421875 13.25 4.234375 
Q 6.78125 9.90625 6.78125 20.515625 
Q 6.78125 27.484375 10.78125 32.3125 
Q 14.796875 37.15625 21.921875 38.8125 
z
M 18.3125 54.390625 
Q 18.3125 48.734375 21.84375 45.5625 
Q 25.390625 42.390625 31.78125 42.390625 
Q 38.140625 42.390625 41.71875 45.5625 
Q 45.3125 48.734375 45.3125 54.390625 
Q 45.3125 60.0625 41.71875 63.234375 
Q 38.140625 66.40625 31.78125 66.40625 
Q 25.390625 66.40625 21.84375 63.234375 
Q 18.3125 60.0625 18.3125 54.390625 
z
" id="DejaVuSans-56"/>
      </defs>
      <g transform="translate(447.988438 463.158437)scale(0.1 -0.1)">
       <use xlink:href="#DejaVuSans-48"/>
       <use x="63.623047" xlink:href="#DejaVuSans-46"/>
       <use x="95.410156" xlink:href="#DejaVuSans-56"/>
      </g>
     </g>
    </g>
    <g id="xtick_10">
     <g id="line2d_19">
      <path clip-path="url(#p0e53790ce2)" d="M 503.37 448.56 
L 503.37 60.48 
" style="fill:none;stroke:#b0b0b0;stroke-linecap:square;stroke-width:0.8;"/>
     </g>
     <g id="line2d_20">
      <g>
       <use style="stroke:#000000;stroke-width:0.8;" x="503.37" xlink:href="#mb5cc081258" y="448.56"/>
      </g>
     </g>
     <g id="text_10">
      <!-- 0.9 -->
      <defs>
       <path d="M 10.984375 1.515625 
L 10.984375 10.5 
Q 14.703125 8.734375 18.5 7.8125 
Q 22.3125 6.890625 25.984375 6.890625 
Q 35.75 6.890625 40.890625 13.453125 
Q 46.046875 20.015625 46.78125 33.40625 
Q 43.953125 29.203125 39.59375 26.953125 
Q 35.25 24.703125 29.984375 24.703125 
Q 19.046875 24.703125 12.671875 31.3125 
Q 6.296875 37.9375 6.296875 49.421875 
Q 6.296875 60.640625 12.9375 67.421875 
Q 19.578125 74.21875 30.609375 74.21875 
Q 43.265625 74.21875 49.921875 64.515625 
Q 56.59375 54.828125 56.59375 36.375 
Q 56.59375 19.140625 48.40625 8.859375 
Q 40.234375 -1.421875 26.421875 -1.421875 
Q 22.703125 -1.421875 18.890625 -0.6875 
Q 15.09375 0.046875 10.984375 1.515625 
z
M 30.609375 32.421875 
Q 37.25 32.421875 41.125 36.953125 
Q 45.015625 41.5 45.015625 49.421875 
Q 45.015625 57.28125 41.125 61.84375 
Q 37.25 66.40625 30.609375 66.40625 
Q 23.96875 66.40625 20.09375 61.84375 
Q 16.21875 57.28125 16.21875 49.421875 
Q 16.21875 41.5 20.09375 36.953125 
Q 23.96875 32.421875 30.609375 32.421875 
z
" id="DejaVuSans-57"/>
      </defs>
      <g transform="translate(495.418438 463.158437)scale(0.1 -0.1)">
       <use xlink:href="#DejaVuSans-48"/>
       <use x="63.623047" xlink:href="#DejaVuSans-46"/>
       <use x="95.410156" xlink:href="#DejaVuSans-57"/>
      </g>
     </g>
    </g>
    <g id="xtick_11">
     <g id="line2d_21">
      <path clip-path="url(#p0e53790ce2)" d="M 550.8 448.56 
L 550.8 60.48 
" style="fill:none;stroke:#b0b0b0;stroke-linecap:square;stroke-width:0.8;"/>
     </g>
     <g id="line2d_22">
      <g>
       <use style="stroke:#000000;stroke-width:0.8;" x="550.8" xlink:href="#mb5cc081258" y="448.56"/>
      </g>
     </g>
     <g id="text_11">
      <!-- 1.0 -->
      <g transform="translate(542.848438 463.158437)scale(0.1 -0.1)">
       <use xlink:href="#DejaVuSans-49"/>
       <use x="63.623047" xlink:href="#DejaVuSans-46"/>
       <use x="95.410156" xlink:href="#DejaVuSans-48"/>
      </g>
     </g>
    </g>
    <g id="text_12">
     <!-- 1-precision -->
     <defs>
      <path d="M 4.890625 31.390625 
L 31.203125 31.390625 
L 31.203125 23.390625 
L 4.890625 23.390625 
z
" id="DejaVuSans-45"/>
      <path d="M 18.109375 8.203125 
L 18.109375 -20.796875 
L 9.078125 -20.796875 
L 9.078125 54.6875 
L 18.109375 54.6875 
L 18.109375 46.390625 
Q 20.953125 51.265625 25.265625 53.625 
Q 29.59375 56 35.59375 56 
Q 45.5625 56 51.78125 48.09375 
Q 58.015625 40.1875 58.015625 27.296875 
Q 58.015625 14.40625 51.78125 6.484375 
Q 45.5625 -1.421875 35.59375 -1.421875 
Q 29.59375 -1.421875 25.265625 0.953125 
Q 20.953125 3.328125 18.109375 8.203125 
z
M 48.6875 27.296875 
Q 48.6875 37.203125 44.609375 42.84375 
Q 40.53125 48.484375 33.40625 48.484375 
Q 26.265625 48.484375 22.1875 42.84375 
Q 18.109375 37.203125 18.109375 27.296875 
Q 18.109375 17.390625 22.1875 11.75 
Q 26.265625 6.109375 33.40625 6.109375 
Q 40.53125 6.109375 44.609375 11.75 
Q 48.6875 17.390625 48.6875 27.296875 
z
" id="DejaVuSans-112"/>
      <path d="M 41.109375 46.296875 
Q 39.59375 47.171875 37.8125 47.578125 
Q 36.03125 48 33.890625 48 
Q 26.265625 48 22.1875 43.046875 
Q 18.109375 38.09375 18.109375 28.8125 
L 18.109375 0 
L 9.078125 0 
L 9.078125 54.6875 
L 18.109375 54.6875 
L 18.109375 46.1875 
Q 20.953125 51.171875 25.484375 53.578125 
Q 30.03125 56 36.53125 56 
Q 37.453125 56 38.578125 55.875 
Q 39.703125 55.765625 41.0625 55.515625 
z
" id="DejaVuSans-114"/>
      <path d="M 56.203125 29.59375 
L 56.203125 25.203125 
L 14.890625 25.203125 
Q 15.484375 15.921875 20.484375 11.0625 
Q 25.484375 6.203125 34.421875 6.203125 
Q 39.59375 6.203125 44.453125 7.46875 
Q 49.3125 8.734375 54.109375 11.28125 
L 54.109375 2.78125 
Q 49.265625 0.734375 44.1875 -0.34375 
Q 39.109375 -1.421875 33.890625 -1.421875 
Q 20.796875 -1.421875 13.15625 6.1875 
Q 5.515625 13.8125 5.515625 26.8125 
Q 5.515625 40.234375 12.765625 48.109375 
Q 20.015625 56 32.328125 56 
Q 43.359375 56 49.78125 48.890625 
Q 56.203125 41.796875 56.203125 29.59375 
z
M 47.21875 32.234375 
Q 47.125 39.59375 43.09375 43.984375 
Q 39.0625 48.390625 32.421875 48.390625 
Q 24.90625 48.390625 20.390625 44.140625 
Q 15.875 39.890625 15.1875 32.171875 
z
" id="DejaVuSans-101"/>
      <path d="M 48.78125 52.59375 
L 48.78125 44.1875 
Q 44.96875 46.296875 41.140625 47.34375 
Q 37.3125 48.390625 33.40625 48.390625 
Q 24.65625 48.390625 19.8125 42.84375 
Q 14.984375 37.3125 14.984375 27.296875 
Q 14.984375 17.28125 19.8125 11.734375 
Q 24.65625 6.203125 33.40625 6.203125 
Q 37.3125 6.203125 41.140625 7.25 
Q 44.96875 8.296875 48.78125 10.40625 
L 48.78125 2.09375 
Q 45.015625 0.34375 40.984375 -0.53125 
Q 36.96875 -1.421875 32.421875 -1.421875 
Q 20.0625 -1.421875 12.78125 6.34375 
Q 5.515625 14.109375 5.515625 27.296875 
Q 5.515625 40.671875 12.859375 48.328125 
Q 20.21875 56 33.015625 56 
Q 37.15625 56 41.109375 55.140625 
Q 45.0625 54.296875 48.78125 52.59375 
z
" id="DejaVuSans-99"/>
      <path d="M 9.421875 54.6875 
L 18.40625 54.6875 
L 18.40625 0 
L 9.421875 0 
z
M 9.421875 75.984375 
L 18.40625 75.984375 
L 18.40625 64.59375 
L 9.421875 64.59375 
z
" id="DejaVuSans-105"/>
      <path d="M 44.28125 53.078125 
L 44.28125 44.578125 
Q 40.484375 46.53125 36.375 47.5 
Q 32.28125 48.484375 27.875 48.484375 
Q 21.1875 48.484375 17.84375 46.4375 
Q 14.5 44.390625 14.5 40.28125 
Q 14.5 37.15625 16.890625 35.375 
Q 19.28125 33.59375 26.515625 31.984375 
L 29.59375 31.296875 
Q 39.15625 29.25 43.1875 25.515625 
Q 47.21875 21.78125 47.21875 15.09375 
Q 47.21875 7.46875 41.1875 3.015625 
Q 35.15625 -1.421875 24.609375 -1.421875 
Q 20.21875 -1.421875 15.453125 -0.5625 
Q 10.6875 0.296875 5.421875 2 
L 5.421875 11.28125 
Q 10.40625 8.6875 15.234375 7.390625 
Q 20.0625 6.109375 24.8125 6.109375 
Q 31.15625 6.109375 34.5625 8.28125 
Q 37.984375 10.453125 37.984375 14.40625 
Q 37.984375 18.0625 35.515625 20.015625 
Q 33.0625 21.96875 24.703125 23.78125 
L 21.578125 24.515625 
Q 13.234375 26.265625 9.515625 29.90625 
Q 5.8125 33.546875 5.8125 39.890625 
Q 5.8125 47.609375 11.28125 51.796875 
Q 16.75 56 26.8125 56 
Q 31.78125 56 36.171875 55.265625 
Q 40.578125 54.546875 44.28125 53.078125 
z
" id="DejaVuSans-115"/>
      <path d="M 30.609375 48.390625 
Q 23.390625 48.390625 19.1875 42.75 
Q 14.984375 37.109375 14.984375 27.296875 
Q 14.984375 17.484375 19.15625 11.84375 
Q 23.34375 6.203125 30.609375 6.203125 
Q 37.796875 6.203125 41.984375 11.859375 
Q 46.1875 17.53125 46.1875 27.296875 
Q 46.1875 37.015625 41.984375 42.703125 
Q 37.796875 48.390625 30.609375 48.390625 
z
M 30.609375 56 
Q 42.328125 56 49.015625 48.375 
Q 55.71875 40.765625 55.71875 27.296875 
Q 55.71875 13.875 49.015625 6.21875 
Q 42.328125 -1.421875 30.609375 -1.421875 
Q 18.84375 -1.421875 12.171875 6.21875 
Q 5.515625 13.875 5.515625 27.296875 
Q 5.515625 40.765625 12.171875 48.375 
Q 18.84375 56 30.609375 56 
z
" id="DejaVuSans-111"/>
      <path d="M 54.890625 33.015625 
L 54.890625 0 
L 45.90625 0 
L 45.90625 32.71875 
Q 45.90625 40.484375 42.875 44.328125 
Q 39.84375 48.1875 33.796875 48.1875 
Q 26.515625 48.1875 22.3125 43.546875 
Q 18.109375 38.921875 18.109375 30.90625 
L 18.109375 0 
L 9.078125 0 
L 9.078125 54.6875 
L 18.109375 54.6875 
L 18.109375 46.1875 
Q 21.34375 51.125 25.703125 53.5625 
Q 30.078125 56 35.796875 56 
Q 45.21875 56 50.046875 50.171875 
Q 54.890625 44.34375 54.890625 33.015625 
z
" id="DejaVuSans-110"/>
     </defs>
     <g transform="translate(286.110938 476.836563)scale(0.1 -0.1)">
      <use xlink:href="#DejaVuSans-49"/>
      <use x="63.623047" xlink:href="#DejaVuSans-45"/>
      <use x="99.707031" xlink:href="#DejaVuSans-112"/>
      <use x="163.183594" xlink:href="#DejaVuSans-114"/>
      <use x="202.046875" xlink:href="#DejaVuSans-101"/>
      <use x="263.570312" xlink:href="#DejaVuSans-99"/>
      <use x="318.550781" xlink:href="#DejaVuSans-105"/>
      <use x="346.333984" xlink:href="#DejaVuSans-115"/>
      <use x="398.433594" xlink:href="#DejaVuSans-105"/>
      <use x="426.216797" xlink:href="#DejaVuSans-111"/>
      <use x="487.398438" xlink:href="#DejaVuSans-110"/>
     </g>
    </g>
   </g>
   <g id="matplotlib.axis_2">
    <g id="ytick_1">
     <g id="line2d_23">
      <path clip-path="url(#p0e53790ce2)" d="M 76.5 448.56 
L 550.8 448.56 
" style="fill:none;stroke:#b0b0b0;stroke-linecap:square;stroke-width:0.8;"/>
     </g>
     <g id="line2d_24">
      <defs>
       <path d="M 0 0 
L -3.5 0 
" id="mfd713336d0" style="stroke:#000000;stroke-width:0.8;"/>
      </defs>
      <g>
       <use style="stroke:#000000;stroke-width:0.8;" x="76.5" xlink:href="#mfd713336d0" y="448.56"/>
      </g>
     </g>
     <g id="text_13">
      <!-- 0.0 -->
      <g transform="translate(53.596875 452.359219)scale(0.1 -0.1)">
       <use xlink:href="#DejaVuSans-48"/>
       <use x="63.623047" xlink:href="#DejaVuSans-46"/>
       <use x="95.410156" xlink:href="#DejaVuSans-48"/>
      </g>
     </g>
    </g>
    <g id="ytick_2">
     <g id="line2d_25">
      <path clip-path="url(#p0e53790ce2)" d="M 76.5 409.752 
L 550.8 409.752 
" style="fill:none;stroke:#b0b0b0;stroke-linecap:square;stroke-width:0.8;"/>
     </g>
     <g id="line2d_26">
      <g>
       <use style="stroke:#000000;stroke-width:0.8;" x="76.5" xlink:href="#mfd713336d0" y="409.752"/>
      </g>
     </g>
     <g id="text_14">
      <!-- 0.1 -->
      <g transform="translate(53.596875 413.551219)scale(0.1 -0.1)">
       <use xlink:href="#DejaVuSans-48"/>
       <use x="63.623047" xlink:href="#DejaVuSans-46"/>
       <use x="95.410156" xlink:href="#DejaVuSans-49"/>
      </g>
     </g>
    </g>
    <g id="ytick_3">
     <g id="line2d_27">
      <path clip-path="url(#p0e53790ce2)" d="M 76.5 370.944 
L 550.8 370.944 
" style="fill:none;stroke:#b0b0b0;stroke-linecap:square;stroke-width:0.8;"/>
     </g>
     <g id="line2d_28">
      <g>
       <use style="stroke:#000000;stroke-width:0.8;" x="76.5" xlink:href="#mfd713336d0" y="370.944"/>
      </g>
     </g>
     <g id="text_15">
      <!-- 0.2 -->
      <g transform="translate(53.596875 374.743219)scale(0.1 -0.1)">
       <use xlink:href="#DejaVuSans-48"/>
       <use x="63.623047" xlink:href="#DejaVuSans-46"/>
       <use x="95.410156" xlink:href="#DejaVuSans-50"/>
      </g>
     </g>
    </g>
    <g id="ytick_4">
     <g id="line2d_29">
      <path clip-path="url(#p0e53790ce2)" d="M 76.5 332.136 
L 550.8 332.136 
" style="fill:none;stroke:#b0b0b0;stroke-linecap:square;stroke-width:0.8;"/>
     </g>
     <g id="line2d_30">
      <g>
       <use style="stroke:#000000;stroke-width:0.8;" x="76.5" xlink:href="#mfd713336d0" y="332.136"/>
      </g>
     </g>
     <g id="text_16">
      <!-- 0.3 -->
      <g transform="translate(53.596875 335.935219)scale(0.1 -0.1)">
       <use xlink:href="#DejaVuSans-48"/>
       <use x="63.623047" xlink:href="#DejaVuSans-46"/>
       <use x="95.410156" xlink:href="#DejaVuSans-51"/>
      </g>
     </g>
    </g>
    <g id="ytick_5">
     <g id="line2d_31">
      <path clip-path="url(#p0e53790ce2)" d="M 76.5 293.328 
L 550.8 293.328 
" style="fill:none;stroke:#b0b0b0;stroke-linecap:square;stroke-width:0.8;"/>
     </g>
     <g id="line2d_32">
      <g>
       <use style="stroke:#000000;stroke-width:0.8;" x="76.5" xlink:href="#mfd713336d0" y="293.328"/>
      </g>
     </g>
     <g id="text_17">
      <!-- 0.4 -->
      <g transform="translate(53.596875 297.127219)scale(0.1 -0.1)">
       <use xlink:href="#DejaVuSans-48"/>
       <use x="63.623047" xlink:href="#DejaVuSans-46"/>
       <use x="95.410156" xlink:href="#DejaVuSans-52"/>
      </g>
     </g>
    </g>
    <g id="ytick_6">
     <g id="line2d_33">
      <path clip-path="url(#p0e53790ce2)" d="M 76.5 254.52 
L 550.8 254.52 
" style="fill:none;stroke:#b0b0b0;stroke-linecap:square;stroke-width:0.8;"/>
     </g>
     <g id="line2d_34">
      <g>
       <use style="stroke:#000000;stroke-width:0.8;" x="76.5" xlink:href="#mfd713336d0" y="254.52"/>
      </g>
     </g>
     <g id="text_18">
      <!-- 0.5 -->
      <g transform="translate(53.596875 258.319219)scale(0.1 -0.1)">
       <use xlink:href="#DejaVuSans-48"/>
       <use x="63.623047" xlink:href="#DejaVuSans-46"/>
       <use x="95.410156" xlink:href="#DejaVuSans-53"/>
      </g>
     </g>
    </g>
    <g id="ytick_7">
     <g id="line2d_35">
      <path clip-path="url(#p0e53790ce2)" d="M 76.5 215.712 
L 550.8 215.712 
" style="fill:none;stroke:#b0b0b0;stroke-linecap:square;stroke-width:0.8;"/>
     </g>
     <g id="line2d_36">
      <g>
       <use style="stroke:#000000;stroke-width:0.8;" x="76.5" xlink:href="#mfd713336d0" y="215.712"/>
      </g>
     </g>
     <g id="text_19">
      <!-- 0.6 -->
      <g transform="translate(53.596875 219.511219)scale(0.1 -0.1)">
       <use xlink:href="#DejaVuSans-48"/>
       <use x="63.623047" xlink:href="#DejaVuSans-46"/>
       <use x="95.410156" xlink:href="#DejaVuSans-54"/>
      </g>
     </g>
    </g>
    <g id="ytick_8">
     <g id="line2d_37">
      <path clip-path="url(#p0e53790ce2)" d="M 76.5 176.904 
L 550.8 176.904 
" style="fill:none;stroke:#b0b0b0;stroke-linecap:square;stroke-width:0.8;"/>
     </g>
     <g id="line2d_38">
      <g>
       <use style="stroke:#000000;stroke-width:0.8;" x="76.5" xlink:href="#mfd713336d0" y="176.904"/>
      </g>
     </g>
     <g id="text_20">
      <!-- 0.7 -->
      <g transform="translate(53.596875 180.703219)scale(0.1 -0.1)">
       <use xlink:href="#DejaVuSans-48"/>
       <use x="63.623047" xlink:href="#DejaVuSans-46"/>
       <use x="95.410156" xlink:href="#DejaVuSans-55"/>
      </g>
     </g>
    </g>
    <g id="ytick_9">
     <g id="line2d_39">
      <path clip-path="url(#p0e53790ce2)" d="M 76.5 138.096 
L 550.8 138.096 
" style="fill:none;stroke:#b0b0b0;stroke-linecap:square;stroke-width:0.8;"/>
     </g>
     <g id="line2d_40">
      <g>
       <use style="stroke:#000000;stroke-width:0.8;" x="76.5" xlink:href="#mfd713336d0" y="138.096"/>
      </g>
     </g>
     <g id="text_21">
      <!-- 0.8 -->
      <g transform="translate(53.596875 141.895219)scale(0.1 -0.1)">
       <use xlink:href="#DejaVuSans-48"/>
       <use x="63.623047" xlink:href="#DejaVuSans-46"/>
       <use x="95.410156" xlink:href="#DejaVuSans-56"/>
      </g>
     </g>
    </g>
    <g id="ytick_10">
     <g id="line2d_41">
      <path clip-path="url(#p0e53790ce2)" d="M 76.5 99.288 
L 550.8 99.288 
" style="fill:none;stroke:#b0b0b0;stroke-linecap:square;stroke-width:0.8;"/>
     </g>
     <g id="line2d_42">
      <g>
       <use style="stroke:#000000;stroke-width:0.8;" x="76.5" xlink:href="#mfd713336d0" y="99.288"/>
      </g>
     </g>
     <g id="text_22">
      <!-- 0.9 -->
      <g transform="translate(53.596875 103.087219)scale(0.1 -0.1)">
       <use xlink:href="#DejaVuSans-48"/>
       <use x="63.623047" xlink:href="#DejaVuSans-46"/>
       <use x="95.410156" xlink:href="#DejaVuSans-57"/>
      </g>
     </g>
    </g>
    <g id="ytick_11">
     <g id="line2d_43">
      <path clip-path="url(#p0e53790ce2)" d="M 76.5 60.48 
L 550.8 60.48 
" style="fill:none;stroke:#b0b0b0;stroke-linecap:square;stroke-width:0.8;"/>
     </g>
     <g id="line2d_44">
      <g>
       <use style="stroke:#000000;stroke-width:0.8;" x="76.5" xlink:href="#mfd713336d0" y="60.48"/>
      </g>
     </g>
     <g id="text_23">
      <!-- 1.0 -->
      <g transform="translate(53.596875 64.279219)scale(0.1 -0.1)">
       <use xlink:href="#DejaVuSans-49"/>
       <use x="63.623047" xlink:href="#DejaVuSans-46"/>
       <use x="95.410156" xlink:href="#DejaVuSans-48"/>
      </g>
     </g>
    </g>
    <g id="text_24">
     <!-- #correct/751 -->
     <defs>
      <path d="M 51.125 44 
L 36.921875 44 
L 32.8125 27.6875 
L 47.125 27.6875 
z
M 43.796875 71.78125 
L 38.71875 51.515625 
L 52.984375 51.515625 
L 58.109375 71.78125 
L 65.921875 71.78125 
L 60.890625 51.515625 
L 76.125 51.515625 
L 76.125 44 
L 58.984375 44 
L 54.984375 27.6875 
L 70.515625 27.6875 
L 70.515625 20.21875 
L 53.078125 20.21875 
L 48 0 
L 40.1875 0 
L 45.21875 20.21875 
L 30.90625 20.21875 
L 25.875 0 
L 18.015625 0 
L 23.09375 20.21875 
L 7.71875 20.21875 
L 7.71875 27.6875 
L 24.90625 27.6875 
L 29 44 
L 13.28125 44 
L 13.28125 51.515625 
L 30.90625 51.515625 
L 35.890625 71.78125 
z
" id="DejaVuSans-35"/>
      <path d="M 18.3125 70.21875 
L 18.3125 54.6875 
L 36.8125 54.6875 
L 36.8125 47.703125 
L 18.3125 47.703125 
L 18.3125 18.015625 
Q 18.3125 11.328125 20.140625 9.421875 
Q 21.96875 7.515625 27.59375 7.515625 
L 36.8125 7.515625 
L 36.8125 0 
L 27.59375 0 
Q 17.1875 0 13.234375 3.875 
Q 9.28125 7.765625 9.28125 18.015625 
L 9.28125 47.703125 
L 2.6875 47.703125 
L 2.6875 54.6875 
L 9.28125 54.6875 
L 9.28125 70.21875 
z
" id="DejaVuSans-116"/>
      <path d="M 25.390625 72.90625 
L 33.6875 72.90625 
L 8.296875 -9.28125 
L 0 -9.28125 
z
" id="DejaVuSans-47"/>
     </defs>
     <g transform="translate(47.517187 287.443438)rotate(-90)scale(0.1 -0.1)">
      <use xlink:href="#DejaVuSans-35"/>
      <use x="83.789062" xlink:href="#DejaVuSans-99"/>
      <use x="138.769531" xlink:href="#DejaVuSans-111"/>
      <use x="199.951172" xlink:href="#DejaVuSans-114"/>
      <use x="239.314453" xlink:href="#DejaVuSans-114"/>
      <use x="278.177734" xlink:href="#DejaVuSans-101"/>
      <use x="339.701172" xlink:href="#DejaVuSans-99"/>
      <use x="394.681641" xlink:href="#DejaVuSans-116"/>
      <use x="433.890625" xlink:href="#DejaVuSans-47"/>
      <use x="467.582031" xlink:href="#DejaVuSans-55"/>
      <use x="531.205078" xlink:href="#DejaVuSans-53"/>
      <use x="594.828125" xlink:href="#DejaVuSans-49"/>
     </g>
    </g>
   </g>
   <g id="line2d_45">
    <path clip-path="url(#p0e53790ce2)" d="M 76.5 448.043249 
L 76.5 354.511318 
L 79.091803 354.511318 
L 78.970313 349.860559 
L 81.415026 349.860559 
L 81.290909 347.276804 
L 83.650251 347.276804 
L 82.796018 333.324527 
L 82.606867 329.70727 
L 84.607692 329.70727 
L 84.405 326.606764 
L 86.340249 326.606764 
L 85.763672 318.855499 
L 87.573152 318.855499 
L 87.487645 317.821997 
L 92.792748 317.821997 
L 92.136264 312.137736 
L 95.472 312.137736 
L 95.335018 311.104234 
L 96.973381 311.104234 
L 96.754804 309.553981 
L 98.364894 309.553981 
L 98.059091 307.486977 
L 101.203125 307.486977 
L 99.599026 297.151957 
L 101.059223 297.151957 
L 100.98 296.635206 
L 103.863462 296.635206 
L 103.096262 291.984447 
L 105.868421 291.984447 
L 105.332827 288.883941 
L 108.024471 288.883941 
L 107.929518 288.36719 
L 110.581437 288.36719 
L 110.078761 285.783435 
L 112.663636 285.783435 
L 111.533523 280.099174 
L 112.777904 280.099174 
L 112.472191 278.548921 
L 116.135097 278.548921 
L 115.915512 277.515419 
L 117.116851 277.515419 
L 116.563488 274.931664 
L 117.743478 274.931664 
L 117.520541 273.898162 
L 118.68841 273.898162 
L 118.016976 270.797656 
L 120.300792 270.797656 
L 119.956806 269.247403 
L 121.081723 269.247403 
L 120.85013 268.213901 
L 121.96399 268.213901 
L 121.846512 267.69715 
L 122.952062 267.69715 
L 122.832648 267.180399 
L 125.021739 267.180399 
L 124.897959 266.663648 
L 127.059898 266.663648 
L 126.804545 265.630146 
L 127.872544 265.630146 
L 127.615038 264.596644 
L 128.673 264.596644 
L 128.413433 263.563142 
L 131.542222 263.563142 
L 131.271744 262.52964 
L 132.3 262.52964 
L 132.027805 261.496138 
L 133.046715 261.496138 
L 132.501687 259.429134 
L 134.507914 259.429134 
L 133.95677 257.36213 
L 135.92766 257.36213 
L 135.509155 255.811877 
L 137.449766 255.811877 
L 137.307692 255.295126 
L 138.269302 255.295126 
L 137.983333 254.261625 
L 139.885714 254.261625 
L 139.594954 253.228123 
L 140.535927 253.228123 
L 140.389726 252.711372 
L 141.324601 252.711372 
L 140.884615 251.161119 
L 141.809932 251.161119 
L 141.516404 250.127617 
L 144.257143 250.127617 
L 143.80643 248.577364 
L 145.603311 248.577364 
L 145.29956 247.543862 
L 146.188816 247.543862 
L 145.884498 246.51036 
L 147.645 246.51036 
L 147.184017 244.960107 
L 148.053879 244.960107 
L 147.9 244.443356 
L 148.764592 244.443356 
L 148.60985 243.926605 
L 149.469231 243.926605 
L 149.313646 243.409854 
L 154.385053 243.409854 
L 154.221429 242.893103 
L 155.05283 242.893103 
L 154.724843 241.859601 
L 155.55 241.859601 
L 155.221992 240.826099 
L 160.884663 240.826099 
L 160.712449 240.309348 
L 170.794235 240.309348 
L 170.420792 239.275846 
L 171.17253 239.275846 
L 170.985799 238.759095 
L 173.958904 238.759095 
L 173.768555 238.242344 
L 178.135714 238.242344 
L 177.744808 237.208842 
L 180.592557 237.208842 
L 180.394286 236.692091 
L 181.8 236.692091 
L 181.600568 236.17534 
L 185.063977 236.17534 
L 184.860674 235.658589 
L 186.226119 235.658589 
L 185.818216 234.625087 
L 186.495362 234.625087 
L 186.291667 234.108336 
L 188.305525 234.108336 
L 188.1 233.591585 
L 190.747445 233.591585 
L 190.539344 233.074834 
L 191.194364 233.074834 
L 190.986207 232.558083 
L 191.638043 232.558083 
L 191.429837 232.041332 
L 192.07852 232.041332 
L 191.87027 231.524581 
L 192.515827 231.524581 
L 192.30754 231.00783 
L 193.590161 231.00783 
L 193.172727 229.974328 
L 196.957143 229.974328 
L 196.533743 228.940826 
L 197.155263 228.940826 
L 196.943958 228.424075 
L 197.562587 228.424075 
L 197.351309 227.907324 
L 202.81701 227.907324 
L 202.600343 227.390573 
L 203.790769 227.390573 
L 203.573549 226.873822 
L 207.092736 226.873822 
L 206.434286 225.323569 
L 207.012081 225.323569 
L 206.793467 224.806818 
L 210.780298 224.806818 
L 210.558347 224.290067 
L 211.119802 224.290067 
L 210.898023 223.773316 
L 216.406969 223.773316 
L 216.180583 223.256565 
L 220.456869 223.256565 
L 219.542857 221.189561 
L 221.632808 221.189561 
L 221.404252 220.67281 
L 224.48752 220.67281 
L 224.257009 220.156059 
L 226.278947 220.156059 
L 226.04745 219.639308 
L 230.013893 219.639308 
L 229.546575 218.605806 
L 232.933283 218.605806 
L 232.698045 218.089055 
L 235.542474 218.089055 
L 235.305804 217.572304 
L 239.47533 217.572304 
L 239.236364 217.055553 
L 244.623631 217.055553 
L 244.381727 216.538802 
L 247.004422 216.538802 
L 246.761538 216.022051 
L 247.625284 216.022051 
L 247.382553 215.5053 
L 247.812323 215.5053 
L 247.570014 214.988549 
L 249.275949 214.988549 
L 249.033287 214.471798 
L 256.47411 214.471798 
L 255.982377 213.438296 
L 260.7375 213.438296 
L 260.490201 212.921545 
L 263.574502 212.921545 
L 263.326393 212.404794 
L 263.707152 212.404794 
L 263.459524 211.888043 
L 264.595257 211.888043 
L 264.347763 211.371292 
L 268.800389 211.371292 
L 268.551617 210.854541 
L 273.219847 210.854541 
L 272.969886 210.33779 
L 273.322462 210.33779 
L 273.073004 209.821039 
L 274.473897 209.821039 
L 274.224559 209.304288 
L 274.572453 209.304288 
L 274.323618 208.787537 
L 276.39202 208.787537 
L 276.143088 208.270786 
L 279.854668 208.270786 
L 279.605153 207.754035 
L 282.892364 207.754035 
L 282.642494 207.237284 
L 286.482458 207.237284 
L 285.9825 206.203782 
L 291.235589 206.203782 
L 290.985315 205.687031 
L 295.449485 205.687031 
L 294.949029 204.653529 
L 296.402727 204.653529 
L 295.904082 203.620027 
L 297.340924 203.620027 
L 297.09223 203.103276 
L 299.637793 203.103276 
L 299.38931 202.586525 
L 311.132484 202.586525 
L 310.883669 202.069774 
L 312.651474 202.069774 
L 312.155357 201.036272 
L 317.545688 201.036272 
L 317.298462 200.519521 
L 323.816949 200.519521 
L 323.570618 200.00277 
L 326.033202 200.00277 
L 325.787598 199.486019 
L 326.229666 199.486019 
L 325.984593 198.969268 
L 329.46 198.969268 
L 329.21583 198.452517 
L 334.436946 198.452517 
L 334.194068 197.935766 
L 334.804225 197.935766 
L 334.561914 197.419015 
L 336.770474 197.419015 
L 336.529035 196.902264 
L 336.727618 196.902264 
L 336.486667 196.385513 
L 337.277491 196.385513 
L 337.037143 195.868762 
L 337.233978 195.868762 
L 336.994112 195.352011 
L 338.167795 195.352011 
L 337.928611 194.83526 
L 340.428455 194.83526 
L 340.190253 194.318509 
L 342.26059 194.318509 
L 342.023304 193.801758 
L 343.320053 193.801758 
L 343.083511 193.285007 
L 343.634483 193.285007 
L 343.398498 192.768256 
L 344.310554 192.768256 
L 344.07522 192.251505 
L 347.82088 192.251505 
L 347.586983 191.734754 
L 353.868421 191.734754 
L 353.636895 191.218003 
L 354.782241 191.218003 
L 354.321127 190.184501 
L 361.835857 190.184501 
L 361.608678 189.66775 
L 364.71989 189.66775 
L 364.494366 189.150999 
L 366.940077 189.150999 
L 366.492213 188.117497 
L 367.2 188.117497 
L 366.976899 187.600746 
L 369.344318 187.600746 
L 369.122634 187.083995 
L 374.3325 187.083995 
L 374.113666 186.567244 
L 375.657902 186.567244 
L 375.222764 185.533742 
L 377.987759 185.533742 
L 377.772103 185.016991 
L 380.212553 185.016991 
L 379.99852 184.50024 
L 380.836957 184.50024 
L 380.410714 183.466738 
L 380.529951 183.466738 
L 382.531743 183.466738 
L 382.320249 182.949987 
L 382.436602 182.949987 
L 384.50382 182.949987 
L 384.293865 182.433236 
L 384.407289 182.433236 
L 387.193503 182.433236 
L 386.985542 181.916485 
L 387.095117 181.916485 
L 388.613917 181.916485 
L 388.407219 181.399734 
L 388.514692 181.399734 
L 389.049934 181.399734 
L 388.843902 180.882983 
L 388.950593 180.882983 
L 389.375953 180.882983 
L 389.170519 180.366232 
L 389.276575 180.366232 
L 390.850877 180.366232 
L 390.646753 179.849481 
L 390.750681 179.849481 
L 396.940986 179.849481 
L 396.741209 179.33273 
L 396.837196 179.33273 
L 397.88521 179.33273 
L 397.686456 178.815979 
L 397.781088 178.815979 
L 401.292391 178.815979 
L 401.096379 178.299228 
L 401.186671 178.299228 
L 408.482788 178.299228 
L 408.292431 177.782477 
L 408.374097 177.782477 
L 410.465048 177.782477 
L 410.27658 177.265726 
L 410.355838 177.265726 
L 411.143522 177.265726 
L 410.955942 176.748975 
L 411.034286 176.748975 
L 412.121957 176.748975 
L 411.9355 176.232224 
L 412.012604 176.232224 
L 419.244158 176.232224 
L 419.063861 175.715473 
L 419.133123 175.715473 
L 419.684607 175.715473 
L 419.505024 175.198722 
L 419.573692 175.198722 
L 424.016422 175.198722 
L 423.840909 174.681971 
L 423.904997 174.681971 
L 427.332908 174.681971 
L 427.160677 174.16522 
L 427.221344 174.16522 
L 428.24365 174.16522 
L 428.072568 173.648469 
L 428.132231 173.648469 
L 432.447467 173.648469 
L 432.280591 173.131718 
L 432.391616 173.131718 
L 434.032379 173.131718 
L 433.867313 172.614967 
L 433.975185 172.614967 
L 437.121275 172.614967 
L 436.959489 172.098216 
L 437.061542 172.098216 
L 437.770824 172.098216 
L 437.609973 171.581465 
L 437.710676 171.581465 
L 440.459375 171.581465 
L 440.301475 171.064714 
L 440.397269 171.064714 
L 441.861121 171.064714 
L 441.704917 170.547963 
L 441.79812 170.547963 
L 444.433431 170.547963 
L 444.280125 170.031212 
L 444.368818 170.031212 
L 444.766114 170.031212 
L 444.613433 169.514461 
L 444.701408 169.514461 
L 451.527907 169.514461 
L 451.382604 168.99771 
L 451.459582 168.99771 
L 465.125109 168.99771 
L 464.995394 168.480959 
L 465.1098 168.480959 
L 465.592642 168.480959 
L 465.463718 167.964208 
L 465.576671 167.964208 
L 466.081283 167.964208 
L 465.953173 167.447457 
L 466.064631 167.447457 
L 468.837103 167.447457 
L 468.712512 166.930706 
L 468.816651 166.930706 
L 472.254421 166.930706 
L 472.134204 166.413955 
L 472.229672 166.413955 
L 472.514692 166.413955 
L 472.395014 165.897204 
L 472.489677 165.897204 
L 475.773366 165.897204 
L 475.657936 165.380453 
L 475.766397 165.380453 
L 480.228075 165.380453 
L 480.118485 164.863702 
L 480.214286 164.863702 
L 481.877104 164.863702 
L 481.769833 164.346951 
L 481.87926 164.346951 
L 483.445236 164.346951 
L 483.340191 163.8302 
L 483.44451 163.8302 
L 484.40282 163.8302 
L 484.299213 163.313449 
L 484.400406 163.313449 
L 488.210088 163.313449 
L 488.111687 162.796698 
L 488.216392 162.796698 
L 489.589288 162.796698 
L 489.492907 162.279947 
L 489.592872 162.279947 
L 489.635615 162.279947 
L 489.539469 161.763196 
L 489.639103 161.763196 
L 493.387459 161.763196 
L 493.296555 161.246445 
L 493.409184 161.246445 
L 493.434153 161.246445 
L 493.343475 160.729694 
L 493.45572 160.729694 
L 497.223626 160.729694 
L 497.223626 160.729694 
" style="fill:none;stroke:#1f77b4;stroke-linecap:square;stroke-width:2;"/>
   </g>
   <g id="line2d_46">
    <path clip-path="url(#p0e53790ce2)" d="M 550.8 448.56 
L 392.7 448.043249 
L 455.94 448.043249 
L 392.7 447.526498 
L 347.528571 447.009747 
L 313.65 446.492996 
L 287.3 445.976245 
L 335.209091 445.976245 
L 295.407692 444.942743 
L 266.22 443.909241 
L 243.9 442.875739 
L 226.278947 441.842237 
L 218.79 441.325486 
L 234.6 441.325486 
L 227.413636 440.808735 
L 254.3625 440.808735 
L 247.248 440.291984 
L 258.923077 440.291984 
L 240.051724 438.741731 
L 224.71875 437.191478 
L 234.6 437.191478 
L 225.565714 436.157976 
L 234.6 436.157976 
L 230.327027 435.641225 
L 246.761538 435.641225 
L 242.505 435.124474 
L 250.02439 435.124474 
L 245.892857 434.607723 
L 252.983721 434.607723 
L 248.972727 434.090972 
L 309.338182 434.090972 
L 301.168421 433.05747 
L 309.630508 433.05747 
L 301.986885 432.023968 
L 317.298462 432.023968 
L 313.65 431.507217 
L 323.96087 431.507217 
L 320.425714 430.990466 
L 326.825 430.990466 
L 323.39589 430.473715 
L 332.372368 430.473715 
L 329.049351 429.956964 
L 331.892308 429.956964 
L 328.659494 429.440213 
L 349.086207 429.440213 
L 345.988636 428.923462 
L 350.54 428.923462 
L 347.528571 428.406711 
L 369.45 428.406711 
L 363.816346 427.373209 
L 375.608108 427.373209 
L 372.9375 426.856458 
L 386.166942 426.856458 
L 381.131707 425.822956 
L 383.8464 425.822956 
L 381.407143 425.306205 
L 399.42766 425.306205 
L 397.153521 424.789454 
L 404.371812 424.789454 
L 400.029139 423.755952 
L 406.708861 423.755952 
L 404.632075 423.239201 
L 409.947273 423.239201 
L 407.938554 422.72245 
L 411.3 422.72245 
L 409.342105 422.205699 
L 410.977457 422.205699 
L 409.055172 421.688948 
L 411.457627 421.688948 
L 409.575843 421.172197 
L 421.223196 421.172197 
L 419.455385 420.655446 
L 424.631527 420.655446 
L 422.925 420.138695 
L 424.778261 420.138695 
L 423.103846 419.621944 
L 442.829268 419.621944 
L 441.346154 419.105193 
L 445.194141 419.105193 
L 443.759533 418.588442 
L 444.994615 418.588442 
L 443.582759 418.071691 
L 445.201132 418.071691 
L 443.815038 417.55494 
L 446.558242 417.55494 
L 443.866909 416.521438 
L 453.748515 416.521438 
L 452.507566 416.004687 
L 457.422188 416.004687 
L 456.235514 415.487936 
L 457.399385 415.487936 
L 456.230982 414.971185 
L 459.045536 414.971185 
L 457.910386 414.454434 
L 461.615385 414.454434 
L 460.521307 413.937683 
L 460.777054 413.937683 
L 462.281616 413.937683 
L 461.21 413.420932 
L 461.458172 413.420932 
L 462.43726 413.420932 
L 461.382787 412.904181 
L 461.626431 412.904181 
L 466.234884 412.904181 
L 465.230412 412.38743 
L 465.450386 412.38743 
L 471.561337 412.38743 
L 470.620714 411.870679 
L 470.811164 411.870679 
L 473.385517 411.870679 
L 472.475229 411.353928 
L 472.654462 411.353928 
L 474.23139 411.353928 
L 473.341611 410.837177 
L 473.514509 410.837177 
L 478.060714 410.837177 
L 477.218868 410.320426 
L 477.372803 410.320426 
L 478.729774 410.320426 
L 477.905533 409.803675 
L 478.054601 409.803675 
L 478.498171 409.803675 
L 477.682759 409.286924 
L 477.830769 409.286924 
L 479.981139 409.286924 
L 479.19 408.770173 
L 479.330137 408.770173 
L 481.103244 408.770173 
L 480.332571 408.253422 
L 480.46654 408.253422 
L 482.668508 408.253422 
L 481.921875 407.736671 
L 482.048257 407.736671 
L 483.889821 407.736671 
L 483.163636 407.21992 
L 483.283986 407.21992 
L 486.705405 407.21992 
L 486.013659 406.703169 
L 486.122727 406.703169 
L 488.533712 406.703169 
L 487.86699 406.186418 
L 487.968659 406.186418 
L 490.313841 406.186418 
L 489.671273 405.669667 
L 489.766047 405.669667 
L 490.328571 405.669667 
L 489.693865 405.152916 
L 489.787443 405.152916 
L 493.226012 405.152916 
L 492.025072 404.119414 
L 492.10964 404.119414 
L 493.43038 404.119414 
L 492.844803 403.602663 
L 493.007143 403.602663 
L 495.7812 403.602663 
L 495.222903 403.085912 
L 495.370518 403.085912 
L 496.453125 403.085912 
L 495.907022 402.569161 
L 496.049416 402.569161 
L 502.111765 402.569161 
L 501.621429 402.05241 
L 501.734483 402.05241 
L 503.527575 402.05241 
L 503.055199 401.535659 
L 503.160596 401.535659 
L 503.732061 401.535659 
L 503.266667 401.018908 
L 503.37 401.018908 
L 503.575325 401.018908 
L 503.113622 400.502157 
L 503.216505 400.502157 
L 508.016392 400.502157 
L 507.598256 399.985406 
L 507.723478 399.985406 
L 508.5 399.985406 
L 508.090521 399.468655 
L 508.211626 399.468655 
L 508.885116 399.468655 
L 508.483271 398.951904 
L 508.600927 398.951904 
L 508.71793 398.951904 
L 507.999448 397.918402 
L 508.038822 397.918402 
L 509.446441 397.918402 
L 508.752128 396.8849 
L 508.789371 396.8849 
L 509.158209 396.8849 
L 508.778684 396.368149 
L 508.888976 396.368149 
L 510.306086 396.368149 
L 509.939696 395.851398 
L 510.042965 395.851398 
L 511.14541 395.851398 
L 510.789435 395.334647 
L 510.920082 395.334647 
L 511.655048 395.334647 
L 511.306645 394.817896 
L 511.432721 394.817896 
L 512.472727 394.817896 
L 512.134239 394.301145 
L 512.253947 394.301145 
L 512.343243 394.301145 
L 511.396615 392.750892 
L 511.457143 392.750892 
L 511.667532 392.750892 
L 511.335344 392.234141 
L 511.455479 392.234141 
L 511.515274 392.234141 
L 510.945874 391.200639 
L 510.976021 391.200639 
L 512.315132 391.200639 
L 511.678905 390.167137 
L 511.792795 390.167137 
L 515.608995 390.167137 
L 515.033115 389.133635 
L 515.15 389.133635 
L 515.266124 389.133635 
L 514.980469 388.616884 
L 515.09669 388.616884 
L 515.867429 388.616884 
L 515.588642 388.100133 
L 515.7 388.100133 
L 516.776027 388.100133 
L 516.50625 387.583382 
L 516.610996 387.583382 
L 516.880364 387.583382 
L 516.613628 387.066631 
L 516.737417 387.066631 
L 517.599 387.066631 
L 517.339683 386.54988 
L 517.457293 386.54988 
L 517.709302 386.54988 
L 517.452934 386.033129 
L 517.56879 386.033129 
L 518.154778 386.033129 
L 517.903695 385.516378 
L 518.015524 385.516378 
L 519.504922 385.516378 
L 519.265459 384.999627 
L 519.38433 384.999627 
L 519.535852 384.999627 
L 519.298554 384.482876 
L 519.416222 384.482876 
L 520.854379 384.482876 
L 520.628244 383.966125 
L 520.735345 383.966125 
L 521.808557 383.966125 
L 521.590909 383.449374 
L 521.704674 383.449374 
L 522.301288 383.449374 
L 522.088799 382.932623 
L 522.197863 382.932623 
L 523.054215 382.932623 
L 522.848619 382.415872 
L 522.963961 382.415872 
L 523.304348 382.415872 
L 523.102082 381.899121 
L 523.214472 381.899121 
L 523.226904 381.899121 
L 523.025676 381.38237 
L 523.13782 381.38237 
L 523.310477 381.38237 
L 522.93725 380.348868 
L 523.02378 380.348868 
L 523.243838 380.348868 
L 523.047294 379.832117 
L 523.156748 379.832117 
L 525.188185 379.832117 
L 525.006088 379.315366 
L 525.120727 379.315366 
L 525.387685 379.315366 
L 525.208273 378.798615 
L 525.320294 378.798615 
L 525.421284 378.798615 
L 525.243423 378.281864 
L 525.35432 378.281864 
L 525.434369 378.281864 
L 525.257901 377.765113 
L 525.367867 377.765113 
L 525.62406 377.765113 
L 525.450116 377.248362 
L 525.557655 377.248362 
L 525.683576 377.248362 
L 525.511277 376.731611 
L 525.627148 376.731611 
L 526.291561 376.731611 
L 526.124415 376.21486 
L 526.233962 376.21486 
L 526.485829 376.21486 
L 526.32112 375.698109 
L 526.437049 375.698109 
L 526.454787 375.698109 
L 526.291048 375.181358 
L 526.406447 375.181358 
L 526.746214 375.181358 
L 526.459587 374.147856 
L 526.537407 374.147856 
L 526.59759 374.147856 
L 526.438151 373.631105 
L 526.549824 373.631105 
L 526.626538 373.631105 
L 526.468377 373.114354 
L 526.579014 373.114354 
L 527.165939 373.114354 
L 526.899285 372.080852 
L 526.972301 372.080852 
L 527.117004 372.080852 
L 526.965025 371.564101 
L 527.077039 371.564101 
L 527.598851 371.564101 
L 527.450804 371.04735 
L 527.565186 371.04735 
L 527.685965 371.04735 
L 527.539428 370.530599 
L 527.652198 370.530599 
L 528.606229 370.530599 
L 528.437011 369.497097 
L 528.74959 369.497097 
L 528.612211 368.980346 
L 528.726201 368.980346 
L 528.931078 368.980346 
L 528.79566 368.463595 
L 528.907058 368.463595 
L 528.946106 368.463595 
L 528.50804 366.396591 
L 528.521211 366.396591 
L 528.794252 366.396591 
L 528.66231 365.87984 
L 528.771553 365.87984 
L 528.986835 365.87984 
L 528.85681 365.363089 
L 528.969726 365.363089 
L 529.013324 365.363089 
L 528.884256 364.846338 
L 528.996198 364.846338 
L 529.271112 364.846338 
L 529.144286 364.329587 
L 529.252926 364.329587 
L 529.431592 364.329587 
L 529.306438 363.812836 
L 529.418692 363.812836 
L 529.873123 363.812836 
L 529.751183 363.296085 
L 529.863804 363.296085 
L 529.925233 363.296085 
L 529.683471 362.262583 
L 529.795465 362.262583 
L 529.911788 362.262583 
L 529.792249 361.745832 
L 529.902439 361.745832 
L 529.946192 361.745832 
L 529.796874 360.71233 
L 529.818735 360.71233 
L 529.91655 360.71233 
L 529.635723 359.162077 
L 529.673867 359.162077 
L 529.782095 359.162077 
L 529.666018 358.645326 
L 529.779063 358.645326 
L 529.853756 358.645326 
L 529.738721 358.128575 
L 529.850353 358.128575 
L 529.860923 358.128575 
L 529.746583 357.611824 
L 529.857501 357.611824 
L 529.862754 357.611824 
L 529.749072 357.095073 
L 529.859341 357.095073 
L 530.081565 357.095073 
L 529.839038 355.54482 
L 529.854465 355.54482 
L 530.650366 355.54482 
L 530.450495 354.511318 
L 530.545988 354.511318 
L 530.891651 354.511318 
L 530.78688 353.994567 
L 530.897019 353.994567 
L 531.028497 353.994567 
L 530.903061 352.961065 
L 530.934594 352.961065 
L 530.983943 352.961065 
L 530.868742 351.927563 
L 530.891111 351.927563 
L 530.944594 351.927563 
L 530.842883 351.410812 
L 530.953928 351.410812 
L 531.006792 351.410812 
L 530.766541 349.860559 
L 530.815156 349.860559 
L 530.854756 349.860559 
L 530.754744 349.343808 
L 530.864448 349.343808 
L 531.084564 349.343808 
L 530.986169 348.827057 
L 531.097051 348.827057 
L 531.69735 348.827057 
L 531.602378 348.310306 
L 531.713877 348.310306 
L 532.139647 348.310306 
L 532.139647 348.310306 
" style="fill:none;stroke:#ff7f0e;stroke-linecap:square;stroke-width:2;"/>
   </g>
   <g id="line2d_47">
    <path clip-path="url(#p0e53790ce2)" d="M 76.5 448.043249 
L 76.5 437.708229 
L 98.059091 437.708229 
L 95.472 436.157976 
L 93.439286 434.607723 
L 91.8 433.05747 
L 90.45 431.507217 
L 90.051429 430.990466 
L 102.85 430.990466 
L 100.823077 429.440213 
L 98.560465 427.373209 
L 96.682979 425.306205 
L 95.1 423.239201 
L 93.439286 420.655446 
L 92.05082 418.071691 
L 90.658209 414.971185 
L 89.494521 411.870679 
L 95.728378 411.870679 
L 94.28625 408.770173 
L 93.439286 406.703169 
L 98.82 406.703169 
L 98.560465 406.186418 
L 103.758621 406.186418 
L 102 403.085912 
L 100.215 399.468655 
L 104.676238 399.468655 
L 103.863462 397.918402 
L 112.296226 397.918402 
L 110.683784 395.334647 
L 114.613393 395.334647 
L 113.944737 394.301145 
L 121.476724 394.301145 
L 118.917073 390.683888 
L 116.633077 387.066631 
L 119.947328 387.066631 
L 118.974627 385.516378 
L 122.173333 385.516378 
L 120.858993 383.449374 
L 123.93 383.449374 
L 122.934965 381.899121 
L 125.90625 381.899121 
L 125.229452 380.865619 
L 128.12449 380.865619 
L 127.092 379.315366 
L 132.667105 379.315366 
L 132.3 378.798615 
L 140.348077 378.798615 
L 139.941401 378.281864 
L 142.541772 378.281864 
L 142.126415 377.765113 
L 147.203106 377.765113 
L 146.766667 377.248362 
L 149.245399 377.248362 
L 148.363636 376.21486 
L 150.787952 376.21486 
L 149.903571 375.181358 
L 152.27574 375.181358 
L 151.83 374.664607 
L 154.163158 374.664607 
L 153.265318 373.631105 
L 155.55 373.631105 
L 153.773596 371.564101 
L 155.99162 371.564101 
L 155.11326 370.530599 
L 157.287363 370.530599 
L 156.845902 370.013848 
L 158.986957 370.013848 
L 157.231915 367.946844 
L 167.427979 367.946844 
L 166.959278 367.430093 
L 170.87602 367.430093 
L 169.922727 366.396591 
L 173.7315 366.396591 
L 172.768812 365.363089 
L 176.475 365.363089 
L 175.987317 364.846338 
L 177.806796 364.846338 
L 177.317391 364.329587 
L 179.112981 364.329587 
L 178.62201 363.812836 
L 180.394286 363.812836 
L 177.042857 360.195579 
L 180.456164 360.195579 
L 179.515385 359.162077 
L 184.487946 359.162077 
L 183.060793 357.611824 
L 186.272489 357.611824 
L 185.795217 357.095073 
L 187.375325 357.095073 
L 186.423605 356.061571 
L 187.980769 356.061571 
L 187.506383 355.54482 
L 193.586611 355.54482 
L 193.09875 355.028069 
L 196.054959 355.028069 
L 195.562963 354.511318 
L 199.895122 354.511318 
L 199.395547 353.994567 
L 200.8125 353.994567 
L 200.313253 353.477816 
L 203.105976 353.477816 
L 202.603571 352.961065 
L 203.979842 352.961065 
L 203.477953 352.444314 
L 206.191406 352.444314 
L 205.68677 351.927563 
L 207.024419 351.927563 
L 206.020385 350.894061 
L 212.52566 350.894061 
L 211.002985 349.343808 
L 216 349.343808 
L 214.478182 347.793555 
L 215.696739 347.793555 
L 214.695324 346.760053 
L 218.28363 346.760053 
L 217.281625 345.726551 
L 218.455986 345.726551 
L 217.957895 345.2098 
L 224.820619 345.2098 
L 223.808191 344.176298 
L 224.920408 344.176298 
L 224.417288 343.659547 
L 225.519932 343.659547 
L 225.018182 343.142796 
L 229.347508 343.142796 
L 228.841391 342.626045 
L 230.959539 342.626045 
L 230.453115 342.109294 
L 234.6 342.109294 
L 234.09 341.592543 
L 238.124522 341.592543 
L 237.101582 340.559041 
L 241.022813 340.559041 
L 240.51028 340.04229 
L 241.473913 340.04229 
L 239.951077 338.492037 
L 243.730395 338.492037 
L 242.71994 337.458535 
L 244.57027 337.458535 
L 244.067066 336.941784 
L 245.892857 336.941784 
L 244.890533 335.908282 
L 246.69 335.908282 
L 246.190909 335.391531 
L 247.081579 335.391531 
L 246.584257 334.87478 
L 247.468605 334.87478 
L 246.480347 333.841278 
L 247.357349 333.841278 
L 246.866379 333.324527 
L 249.464103 333.324527 
L 248.972727 332.807776 
L 249.827762 332.807776 
L 248.851268 331.774274 
L 259.517935 331.774274 
L 259.021951 331.257523 
L 259.810541 331.257523 
L 259.316442 330.740772 
L 263.192553 330.740772 
L 262.697347 330.224021 
L 263.459524 330.224021 
L 261.987402 328.673768 
L 265.728497 328.673768 
L 265.239535 328.157017 
L 271.023038 328.157017 
L 270.531818 327.640266 
L 272.639098 327.640266 
L 272.14875 327.123515 
L 276.941278 327.123515 
L 275.961125 326.090013 
L 279.934699 326.090013 
L 279.445673 325.573262 
L 282.668409 325.573262 
L 282.179858 325.056511 
L 284.702113 325.056511 
L 284.21452 324.53976 
L 287.3 324.53976 
L 286.813164 324.023009 
L 291.602041 324.023009 
L 291.115385 323.506258 
L 300.733333 323.506258 
L 300.24587 322.989507 
L 307.646203 322.989507 
L 307.159579 322.472756 
L 308.688703 322.472756 
L 308.203967 321.956005 
L 311.698148 321.956005 
L 311.215195 321.439254 
L 312.195092 321.439254 
L 311.714082 320.922503 
L 320.18563 320.922503 
L 319.706876 320.405752 
L 325.462069 320.405752 
L 324.986042 319.889001 
L 329.63764 319.889001 
L 329.164486 319.37225 
L 333.62967 319.37225 
L 333.159598 318.855499 
L 336.682554 318.855499 
L 336.21544 318.338748 
L 339.627562 318.338748 
L 338.240246 316.788495 
L 343.344597 316.788495 
L 342.887671 316.271744 
L 348.768719 316.271744 
L 348.316445 315.754993 
L 358.839213 315.754993 
L 358.395283 315.238242 
L 367.062162 315.238242 
L 366.626537 314.721491 
L 367.996875 314.721491 
L 367.563744 314.20474 
L 369.45 314.20474 
L 369.019824 313.687989 
L 370.344752 313.687989 
L 369.917031 313.171238 
L 374.033855 313.171238 
L 373.611222 312.654487 
L 381.08449 312.654487 
L 380.670652 312.137736 
L 382.046361 312.137736 
L 381.635128 311.620985 
L 382.089262 311.620985 
L 381.679625 311.104234 
L 382.131818 311.104234 
L 381.723765 310.587483 
L 381.9492 310.587483 
L 381.542477 310.070732 
L 392.503113 310.070732 
L 392.110075 309.553981 
L 397.266065 309.553981 
L 396.880529 309.03723 
L 397.065306 309.03723 
L 396.680935 308.520479 
L 402.375866 308.520479 
L 402 308.003728 
L 410.572174 308.003728 
L 410.209446 307.486977 
L 412.4625 307.486977 
L 412.103949 306.970226 
L 413.713291 306.970226 
L 413.357956 306.453475 
L 414.364331 306.453475 
L 414.011285 305.936724 
L 416.67418 305.936724 
L 416.325998 305.419973 
L 418.492749 305.419973 
L 418.148692 304.903222 
L 418.28201 304.903222 
L 418.680361 304.903222 
L 418.337838 304.386471 
L 418.4703 304.386471 
L 418.602498 304.386471 
L 418.261078 303.86972 
L 418.39322 303.86972 
L 418.788072 303.86972 
L 418.448163 303.352969 
L 418.579464 303.352969 
L 420.135 303.352969 
L 419.798433 302.836218 
L 419.926614 302.836218 
L 421.445455 302.836218 
L 421.112174 302.319467 
L 421.237355 302.319467 
L 422.598567 302.319467 
L 422.268321 301.802716 
L 422.390848 301.802716 
L 423.723396 301.802716 
L 423.396136 301.285965 
L 423.516102 301.285965 
L 426.78578 301.285965 
L 426.144231 300.252463 
L 426.25828 300.252463 
L 426.372121 300.252463 
L 426.052603 299.735712 
L 426.166423 299.735712 
L 426.732425 299.735712 
L 426.41461 299.218961 
L 426.52738 299.218961 
L 426.639946 299.218961 
L 426.323077 298.70221 
L 426.435624 298.70221 
L 426.660108 298.70221 
L 426.344364 298.185459 
L 426.456486 298.185459 
L 426.568407 298.185459 
L 426.253597 297.668708 
L 426.365499 297.668708 
L 426.7 297.668708 
L 426.386482 297.151957 
L 426.497764 297.151957 
L 429.322815 297.151957 
L 429.014672 296.635206 
L 429.120942 296.635206 
L 432.022998 296.635206 
L 431.720426 296.118455 
L 431.821684 296.118455 
L 434.006594 296.118455 
L 433.708424 295.601704 
L 433.806 295.601704 
L 439.992739 295.601704 
L 439.706073 295.084953 
L 439.793617 295.084953 
L 442.190054 295.084953 
L 441.90832 294.568202 
L 441.992148 294.568202 
L 446.025056 294.568202 
L 445.478016 293.5347 
L 445.555917 293.5347 
L 445.633703 293.5347 
L 445.361078 293.017949 
L 445.438893 293.017949 
L 450.190909 293.017949 
L 449.927746 292.501198 
L 449.998733 292.501198 
L 451.878315 292.501198 
L 451.619255 291.984447 
L 451.687655 291.984447 
L 452.29904 291.984447 
L 452.041644 291.467696 
L 452.10924 291.467696 
L 452.846739 291.467696 
L 452.591242 290.950945 
L 452.65787 290.950945 
L 455.313861 290.950945 
L 455.063984 290.434194 
L 455.127093 290.434194 
L 458.591741 290.434194 
L 458.349143 289.917443 
L 458.466392 289.917443 
L 459.163688 289.917443 
L 458.923019 289.400692 
L 459.038442 289.400692 
L 459.781682 289.400692 
L 459.304667 288.36719 
L 459.418397 288.36719 
L 461.958308 288.36719 
L 461.725543 287.850439 
L 461.832992 287.850439 
L 462.945742 287.850439 
L 462.715714 287.333688 
L 462.820452 287.333688 
L 463.029181 287.333688 
L 462.800059 286.816937 
L 462.904263 286.816937 
L 466.92661 286.816937 
L 466.706155 286.300186 
L 466.801015 286.300186 
L 468.880198 286.300186 
L 468.539407 285.266684 
L 469.564878 285.266684 
L 469.35195 284.749933 
L 469.440097 284.749933 
L 470.268077 284.749933 
L 470.057281 284.233182 
L 470.143636 284.233182 
L 470.272824 284.233182 
L 470.0627 283.716431 
L 470.148774 283.716431 
L 471.167526 283.716431 
L 470.959916 283.19968 
L 471.043826 283.19968 
L 473.756345 283.19968 
L 473.554795 282.682929 
L 473.672188 282.682929 
L 474.788867 282.682929 
L 474.59012 282.166178 
L 474.704036 282.166178 
L 475.006154 282.166178 
L 474.611006 281.132676 
L 474.724158 281.132676 
L 476.381985 281.132676 
L 476.031238 280.099174 
L 476.103478 280.099174 
L 477.100381 280.099174 
L 476.909528 279.582423 
L 477.014986 279.582423 
L 477.294739 279.582423 
L 477.104879 279.065672 
L 477.209461 279.065672 
L 477.279017 279.065672 
L 476.900567 278.03217 
L 477.005092 278.03217 
L 477.282386 278.03217 
L 477.094225 277.515419 
L 477.19789 277.515419 
L 477.370019 277.515419 
L 477.182609 276.998668 
L 477.285714 276.998668 
L 477.695265 276.998668 
L 477.509095 276.481917 
L 477.610982 276.481917 
L 478.082735 276.481917 
L 477.897929 275.965166 
L 477.998438 275.965166 
L 478.098669 275.965166 
L 477.91445 275.448415 
L 478.014613 275.448415 
L 478.511328 275.448415 
L 478.328513 274.931664 
L 478.427248 274.931664 
L 479.143165 274.931664 
L 478.962202 274.414913 
L 479.058932 274.414913 
L 479.123274 274.414913 
L 478.942806 273.898162 
L 479.039302 273.898162 
L 479.263454 273.898162 
L 479.083809 273.381411 
L 479.179644 273.381411 
L 480.402583 273.381411 
L 480.225821 272.86466 
L 480.318357 272.86466 
L 480.502703 272.86466 
L 480.242975 271.831158 
L 480.304302 271.831158 
L 480.128888 271.314407 
L 480.220868 271.314407 
L 480.586405 271.314407 
L 480.412079 270.797656 
L 480.503059 270.797656 
L 481.073846 270.797656 
L 480.901025 270.280905 
L 480.990486 270.280905 
L 481.551799 270.280905 
L 481.380457 269.764154 
L 481.468441 269.764154 
L 483.735104 269.764154 
L 483.56875 269.247403 
L 483.678426 269.247403 
L 484.005317 269.247403 
L 483.756379 268.213901 
L 483.783522 268.213901 
L 484.026825 268.213901 
L 483.8625 267.69715 
L 483.97029 267.69715 
L 485.954297 267.69715 
L 485.794416 267.180399 
L 485.895789 267.180399 
L 486.072434 267.180399 
L 485.913253 266.663648 
L 486.01397 266.663648 
L 486.784049 266.663648 
L 486.626792 266.146897 
L 486.725029 266.146897 
L 487.809819 266.146897 
L 487.655134 265.630146 
L 487.749981 265.630146 
L 488.934783 265.630146 
L 488.782873 265.113395 
L 488.896875 265.113395 
L 489.348723 265.113395 
L 489.198103 264.596644 
L 489.310269 264.596644 
L 490.105967 264.596644 
L 489.957348 264.079893 
L 490.066463 264.079893 
L 492.970389 264.079893 
L 492.765337 263.046391 
L 492.785111 263.046391 
L 493.060529 263.046391 
L 492.817508 262.012889 
L 492.876353 262.012889 
L 495.009091 262.012889 
L 494.773023 260.979387 
L 494.845856 260.979387 
L 496.962946 260.979387 
L 496.83151 260.462636 
L 496.932543 260.462636 
L 497.497993 260.462636 
L 497.368056 259.945885 
L 497.466821 259.945885 
L 498.967814 259.945885 
L 498.841365 259.429134 
L 498.95 259.429134 
L 499.257898 259.429134 
L 499.132413 258.912383 
L 499.239544 258.912383 
L 499.932642 258.912383 
L 499.80894 258.395632 
L 499.913003 258.395632 
L 500.644138 258.395632 
L 500.522292 257.878881 
L 500.623194 257.878881 
L 501.582705 257.878881 
L 501.463199 257.36213 
L 501.573913 257.36213 
L 501.957529 257.36213 
L 501.839149 256.845379 
L 501.94789 256.845379 
L 502.311353 256.845379 
L 502.090226 255.811877 
L 502.183924 255.811877 
L 502.868843 255.811877 
L 502.753359 255.295126 
L 502.857243 255.295126 
L 503.709955 255.295126 
L 503.596576 254.778375 
L 503.709055 254.778375 
L 503.969431 254.778375 
L 503.85691 254.261625 
L 503.967857 254.261625 
L 504.694312 254.261625 
L 504.583639 253.744874 
L 504.690897 253.744874 
L 505.816075 253.744874 
L 505.708099 253.228123 
L 505.821224 253.228123 
L 506.586584 253.228123 
L 506.480547 252.711372 
L 506.589547 252.711372 
L 506.676362 252.711372 
L 506.570798 252.194621 
L 506.67907 252.194621 
L 507.244176 252.194621 
L 507.140106 251.67787 
L 507.245336 251.67787 
L 507.763968 251.67787 
L 507.661286 251.161119 
L 507.773973 251.161119 
L 508.86929 251.161119 
L 508.76925 250.644368 
L 508.875952 250.644368 
L 509.116453 250.644368 
L 509.017206 250.127617 
L 509.12238 250.127617 
L 509.556522 250.127617 
L 509.458479 249.610866 
L 509.57049 249.610866 
L 510.981967 249.610866 
L 510.887247 249.094115 
L 511.000043 249.094115 
L 513.671669 249.094115 
L 513.671669 249.094115 
" style="fill:none;stroke:#2ca02c;stroke-linecap:square;stroke-width:2;"/>
   </g>
   <g id="patch_3">
    <path d="M 76.5 448.56 
L 76.5 60.48 
" style="fill:none;stroke:#000000;stroke-linecap:square;stroke-linejoin:miter;stroke-width:0.8;"/>
   </g>
   <g id="patch_4">
    <path d="M 550.8 448.56 
L 550.8 60.48 
" style="fill:none;stroke:#000000;stroke-linecap:square;stroke-linejoin:miter;stroke-width:0.8;"/>
   </g>
   <g id="patch_5">
    <path d="M 76.5 448.56 
L 550.8 448.56 
" style="fill:none;stroke:#000000;stroke-linecap:square;stroke-linejoin:miter;stroke-width:0.8;"/>
   </g>
   <g id="patch_6">
    <path d="M 76.5 60.48 
L 550.8 60.48 
" style="fill:none;stroke:#000000;stroke-linecap:square;stroke-linejoin:miter;stroke-width:0.8;"/>
   </g>
   <g id="text_25">
    <!-- boat: img1-img5 -->
    <defs>
     <path d="M 48.6875 27.296875 
Q 48.6875 37.203125 44.609375 42.84375 
Q 40.53125 48.484375 33.40625 48.484375 
Q 26.265625 48.484375 22.1875 42.84375 
Q 18.109375 37.203125 18.109375 27.296875 
Q 18.109375 17.390625 22.1875 11.75 
Q 26.265625 6.109375 33.40625 6.109375 
Q 40.53125 6.109375 44.609375 11.75 
Q 48.6875 17.390625 48.6875 27.296875 
z
M 18.109375 46.390625 
Q 20.953125 51.265625 25.265625 53.625 
Q 29.59375 56 35.59375 56 
Q 45.5625 56 51.78125 48.09375 
Q 58.015625 40.1875 58.015625 27.296875 
Q 58.015625 14.40625 51.78125 6.484375 
Q 45.5625 -1.421875 35.59375 -1.421875 
Q 29.59375 -1.421875 25.265625 0.953125 
Q 20.953125 3.328125 18.109375 8.203125 
L 18.109375 0 
L 9.078125 0 
L 9.078125 75.984375 
L 18.109375 75.984375 
z
" id="DejaVuSans-98"/>
     <path d="M 34.28125 27.484375 
Q 23.390625 27.484375 19.1875 25 
Q 14.984375 22.515625 14.984375 16.5 
Q 14.984375 11.71875 18.140625 8.90625 
Q 21.296875 6.109375 26.703125 6.109375 
Q 34.1875 6.109375 38.703125 11.40625 
Q 43.21875 16.703125 43.21875 25.484375 
L 43.21875 27.484375 
z
M 52.203125 31.203125 
L 52.203125 0 
L 43.21875 0 
L 43.21875 8.296875 
Q 40.140625 3.328125 35.546875 0.953125 
Q 30.953125 -1.421875 24.3125 -1.421875 
Q 15.921875 -1.421875 10.953125 3.296875 
Q 6 8.015625 6 15.921875 
Q 6 25.140625 12.171875 29.828125 
Q 18.359375 34.515625 30.609375 34.515625 
L 43.21875 34.515625 
L 43.21875 35.40625 
Q 43.21875 41.609375 39.140625 45 
Q 35.0625 48.390625 27.6875 48.390625 
Q 23 48.390625 18.546875 47.265625 
Q 14.109375 46.140625 10.015625 43.890625 
L 10.015625 52.203125 
Q 14.9375 54.109375 19.578125 55.046875 
Q 24.21875 56 28.609375 56 
Q 40.484375 56 46.34375 49.84375 
Q 52.203125 43.703125 52.203125 31.203125 
z
" id="DejaVuSans-97"/>
     <path d="M 11.71875 12.40625 
L 22.015625 12.40625 
L 22.015625 0 
L 11.71875 0 
z
M 11.71875 51.703125 
L 22.015625 51.703125 
L 22.015625 39.3125 
L 11.71875 39.3125 
z
" id="DejaVuSans-58"/>
     <path id="DejaVuSans-32"/>
     <path d="M 52 44.1875 
Q 55.375 50.25 60.0625 53.125 
Q 64.75 56 71.09375 56 
Q 79.640625 56 84.28125 50.015625 
Q 88.921875 44.046875 88.921875 33.015625 
L 88.921875 0 
L 79.890625 0 
L 79.890625 32.71875 
Q 79.890625 40.578125 77.09375 44.375 
Q 74.3125 48.1875 68.609375 48.1875 
Q 61.625 48.1875 57.5625 43.546875 
Q 53.515625 38.921875 53.515625 30.90625 
L 53.515625 0 
L 44.484375 0 
L 44.484375 32.71875 
Q 44.484375 40.625 41.703125 44.40625 
Q 38.921875 48.1875 33.109375 48.1875 
Q 26.21875 48.1875 22.15625 43.53125 
Q 18.109375 38.875 18.109375 30.90625 
L 18.109375 0 
L 9.078125 0 
L 9.078125 54.6875 
L 18.109375 54.6875 
L 18.109375 46.1875 
Q 21.1875 51.21875 25.484375 53.609375 
Q 29.78125 56 35.6875 56 
Q 41.65625 56 45.828125 52.96875 
Q 50 49.953125 52 44.1875 
z
" id="DejaVuSans-109"/>
     <path d="M 45.40625 27.984375 
Q 45.40625 37.75 41.375 43.109375 
Q 37.359375 48.484375 30.078125 48.484375 
Q 22.859375 48.484375 18.828125 43.109375 
Q 14.796875 37.75 14.796875 27.984375 
Q 14.796875 18.265625 18.828125 12.890625 
Q 22.859375 7.515625 30.078125 7.515625 
Q 37.359375 7.515625 41.375 12.890625 
Q 45.40625 18.265625 45.40625 27.984375 
z
M 54.390625 6.78125 
Q 54.390625 -7.171875 48.1875 -13.984375 
Q 42 -20.796875 29.203125 -20.796875 
Q 24.46875 -20.796875 20.265625 -20.09375 
Q 16.0625 -19.390625 12.109375 -17.921875 
L 12.109375 -9.1875 
Q 16.0625 -11.328125 19.921875 -12.34375 
Q 23.78125 -13.375 27.78125 -13.375 
Q 36.625 -13.375 41.015625 -8.765625 
Q 45.40625 -4.15625 45.40625 5.171875 
L 45.40625 9.625 
Q 42.625 4.78125 38.28125 2.390625 
Q 33.9375 0 27.875 0 
Q 17.828125 0 11.671875 7.65625 
Q 5.515625 15.328125 5.515625 27.984375 
Q 5.515625 40.671875 11.671875 48.328125 
Q 17.828125 56 27.875 56 
Q 33.9375 56 38.28125 53.609375 
Q 42.625 51.21875 45.40625 46.390625 
L 45.40625 54.6875 
L 54.390625 54.6875 
z
" id="DejaVuSans-103"/>
    </defs>
    <g transform="translate(263.772188 41.042625)scale(0.12 -0.12)">
     <use xlink:href="#DejaVuSans-98"/>
     <use x="63.476562" xlink:href="#DejaVuSans-111"/>
     <use x="124.658203" xlink:href="#DejaVuSans-97"/>
     <use x="185.9375" xlink:href="#DejaVuSans-116"/>
     <use x="225.146484" xlink:href="#DejaVuSans-58"/>
     <use x="258.837891" xlink:href="#DejaVuSans-32"/>
     <use x="290.625" xlink:href="#DejaVuSans-105"/>
     <use x="318.408203" xlink:href="#DejaVuSans-109"/>
     <use x="415.820312" xlink:href="#DejaVuSans-103"/>
     <use x="479.296875" xlink:href="#DejaVuSans-49"/>
     <use x="542.919922" xlink:href="#DejaVuSans-45"/>
     <use x="579.003906" xlink:href="#DejaVuSans-105"/>
     <use x="606.787109" xlink:href="#DejaVuSans-109"/>
     <use x="704.199219" xlink:href="#DejaVuSans-103"/>
     <use x="767.675781" xlink:href="#DejaVuSans-53"/>
    </g>
    <!-- NearestNeighbours -->
    <defs>
     <path d="M 9.8125 72.90625 
L 23.09375 72.90625 
L 55.421875 11.921875 
L 55.421875 72.90625 
L 64.984375 72.90625 
L 64.984375 0 
L 51.703125 0 
L 19.390625 60.984375 
L 19.390625 0 
L 9.8125 0 
z
" id="DejaVuSans-78"/>
     <path d="M 54.890625 33.015625 
L 54.890625 0 
L 45.90625 0 
L 45.90625 32.71875 
Q 45.90625 40.484375 42.875 44.328125 
Q 39.84375 48.1875 33.796875 48.1875 
Q 26.515625 48.1875 22.3125 43.546875 
Q 18.109375 38.921875 18.109375 30.90625 
L 18.109375 0 
L 9.078125 0 
L 9.078125 75.984375 
L 18.109375 75.984375 
L 18.109375 46.1875 
Q 21.34375 51.125 25.703125 53.5625 
Q 30.078125 56 35.796875 56 
Q 45.21875 56 50.046875 50.171875 
Q 54.890625 44.34375 54.890625 33.015625 
z
" id="DejaVuSans-104"/>
     <path d="M 8.5 21.578125 
L 8.5 54.6875 
L 17.484375 54.6875 
L 17.484375 21.921875 
Q 17.484375 14.15625 20.5 10.265625 
Q 23.53125 6.390625 29.59375 6.390625 
Q 36.859375 6.390625 41.078125 11.03125 
Q 45.3125 15.671875 45.3125 23.6875 
L 45.3125 54.6875 
L 54.296875 54.6875 
L 54.296875 0 
L 45.3125 0 
L 45.3125 8.40625 
Q 42.046875 3.421875 37.71875 1 
Q 33.40625 -1.421875 27.6875 -1.421875 
Q 18.265625 -1.421875 13.375 4.4375 
Q 8.5 10.296875 8.5 21.578125 
z
M 31.109375 56 
z
" id="DejaVuSans-117"/>
    </defs>
    <g transform="translate(255.957188 54.48)scale(0.12 -0.12)">
     <use xlink:href="#DejaVuSans-78"/>
     <use x="74.804688" xlink:href="#DejaVuSans-101"/>
     <use x="136.328125" xlink:href="#DejaVuSans-97"/>
     <use x="197.607422" xlink:href="#DejaVuSans-114"/>
     <use x="236.470703" xlink:href="#DejaVuSans-101"/>
     <use x="297.994141" xlink:href="#DejaVuSans-115"/>
     <use x="350.09375" xlink:href="#DejaVuSans-116"/>
     <use x="389.302734" xlink:href="#DejaVuSans-78"/>
     <use x="464.107422" xlink:href="#DejaVuSans-101"/>
     <use x="525.630859" xlink:href="#DejaVuSans-105"/>
     <use x="553.414062" xlink:href="#DejaVuSans-103"/>
     <use x="616.890625" xlink:href="#DejaVuSans-104"/>
     <use x="680.269531" xlink:href="#DejaVuSans-98"/>
     <use x="743.746094" xlink:href="#DejaVuSans-111"/>
     <use x="804.927734" xlink:href="#DejaVuSans-117"/>
     <use x="868.306641" xlink:href="#DejaVuSans-114"/>
     <use x="909.419922" xlink:href="#DejaVuSans-115"/>
    </g>
   </g>
   <g id="legend_1">
    <g id="patch_7">
     <path d="M 362.659375 112.514375 
L 543.8 112.514375 
Q 545.8 112.514375 545.8 110.514375 
L 545.8 67.48 
Q 545.8 65.48 543.8 65.48 
L 362.659375 65.48 
Q 360.659375 65.48 360.659375 67.48 
L 360.659375 110.514375 
Q 360.659375 112.514375 362.659375 112.514375 
z
" style="fill:#ffffff;opacity:0.8;stroke:#cccccc;stroke-linejoin:miter;"/>
    </g>
    <g id="line2d_48">
     <path d="M 364.659375 73.578438 
L 384.659375 73.578438 
" style="fill:none;stroke:#1f77b4;stroke-linecap:square;stroke-width:2;"/>
    </g>
    <g id="line2d_49"/>
    <g id="text_26">
     <!-- root-cvsift AP: 61.7, %In: 11.3 -->
     <defs>
      <path d="M 2.984375 54.6875 
L 12.5 54.6875 
L 29.59375 8.796875 
L 46.6875 54.6875 
L 56.203125 54.6875 
L 35.6875 0 
L 23.484375 0 
z
" id="DejaVuSans-118"/>
      <path d="M 37.109375 75.984375 
L 37.109375 68.5 
L 28.515625 68.5 
Q 23.6875 68.5 21.796875 66.546875 
Q 19.921875 64.59375 19.921875 59.515625 
L 19.921875 54.6875 
L 34.71875 54.6875 
L 34.71875 47.703125 
L 19.921875 47.703125 
L 19.921875 0 
L 10.890625 0 
L 10.890625 47.703125 
L 2.296875 47.703125 
L 2.296875 54.6875 
L 10.890625 54.6875 
L 10.890625 58.5 
Q 10.890625 67.625 15.140625 71.796875 
Q 19.390625 75.984375 28.609375 75.984375 
z
" id="DejaVuSans-102"/>
      <path d="M 34.1875 63.1875 
L 20.796875 26.90625 
L 47.609375 26.90625 
z
M 28.609375 72.90625 
L 39.796875 72.90625 
L 67.578125 0 
L 57.328125 0 
L 50.6875 18.703125 
L 17.828125 18.703125 
L 11.1875 0 
L 0.78125 0 
z
" id="DejaVuSans-65"/>
      <path d="M 19.671875 64.796875 
L 19.671875 37.40625 
L 32.078125 37.40625 
Q 38.96875 37.40625 42.71875 40.96875 
Q 46.484375 44.53125 46.484375 51.125 
Q 46.484375 57.671875 42.71875 61.234375 
Q 38.96875 64.796875 32.078125 64.796875 
z
M 9.8125 72.90625 
L 32.078125 72.90625 
Q 44.34375 72.90625 50.609375 67.359375 
Q 56.890625 61.8125 56.890625 51.125 
Q 56.890625 40.328125 50.609375 34.8125 
Q 44.34375 29.296875 32.078125 29.296875 
L 19.671875 29.296875 
L 19.671875 0 
L 9.8125 0 
z
" id="DejaVuSans-80"/>
      <path d="M 11.71875 12.40625 
L 22.015625 12.40625 
L 22.015625 4 
L 14.015625 -11.625 
L 7.71875 -11.625 
L 11.71875 4 
z
" id="DejaVuSans-44"/>
      <path d="M 72.703125 32.078125 
Q 68.453125 32.078125 66.03125 28.46875 
Q 63.625 24.859375 63.625 18.40625 
Q 63.625 12.0625 66.03125 8.421875 
Q 68.453125 4.78125 72.703125 4.78125 
Q 76.859375 4.78125 79.265625 8.421875 
Q 81.6875 12.0625 81.6875 18.40625 
Q 81.6875 24.8125 79.265625 28.4375 
Q 76.859375 32.078125 72.703125 32.078125 
z
M 72.703125 38.28125 
Q 80.421875 38.28125 84.953125 32.90625 
Q 89.5 27.546875 89.5 18.40625 
Q 89.5 9.28125 84.9375 3.921875 
Q 80.375 -1.421875 72.703125 -1.421875 
Q 64.890625 -1.421875 60.34375 3.921875 
Q 55.8125 9.28125 55.8125 18.40625 
Q 55.8125 27.59375 60.375 32.9375 
Q 64.9375 38.28125 72.703125 38.28125 
z
M 22.3125 68.015625 
Q 18.109375 68.015625 15.6875 64.375 
Q 13.28125 60.75 13.28125 54.390625 
Q 13.28125 47.953125 15.671875 44.328125 
Q 18.0625 40.71875 22.3125 40.71875 
Q 26.5625 40.71875 28.96875 44.328125 
Q 31.390625 47.953125 31.390625 54.390625 
Q 31.390625 60.6875 28.953125 64.34375 
Q 26.515625 68.015625 22.3125 68.015625 
z
M 66.40625 74.21875 
L 74.21875 74.21875 
L 28.609375 -1.421875 
L 20.796875 -1.421875 
z
M 22.3125 74.21875 
Q 30.03125 74.21875 34.609375 68.875 
Q 39.203125 63.53125 39.203125 54.390625 
Q 39.203125 45.171875 34.640625 39.84375 
Q 30.078125 34.515625 22.3125 34.515625 
Q 14.546875 34.515625 10.03125 39.859375 
Q 5.515625 45.21875 5.515625 54.390625 
Q 5.515625 63.484375 10.046875 68.84375 
Q 14.59375 74.21875 22.3125 74.21875 
z
" id="DejaVuSans-37"/>
      <path d="M 9.8125 72.90625 
L 19.671875 72.90625 
L 19.671875 0 
L 9.8125 0 
z
" id="DejaVuSans-73"/>
     </defs>
     <g transform="translate(392.659375 77.078438)scale(0.1 -0.1)">
      <use xlink:href="#DejaVuSans-114"/>
      <use x="38.863281" xlink:href="#DejaVuSans-111"/>
      <use x="100.044922" xlink:href="#DejaVuSans-111"/>
      <use x="161.226562" xlink:href="#DejaVuSans-116"/>
      <use x="200.435547" xlink:href="#DejaVuSans-45"/>
      <use x="236.519531" xlink:href="#DejaVuSans-99"/>
      <use x="291.5" xlink:href="#DejaVuSans-118"/>
      <use x="350.679688" xlink:href="#DejaVuSans-115"/>
      <use x="402.779297" xlink:href="#DejaVuSans-105"/>
      <use x="430.5625" xlink:href="#DejaVuSans-102"/>
      <use x="464.017578" xlink:href="#DejaVuSans-116"/>
      <use x="503.226562" xlink:href="#DejaVuSans-32"/>
      <use x="535.013672" xlink:href="#DejaVuSans-65"/>
      <use x="603.421875" xlink:href="#DejaVuSans-80"/>
      <use x="663.724609" xlink:href="#DejaVuSans-58"/>
      <use x="697.416016" xlink:href="#DejaVuSans-32"/>
      <use x="729.203125" xlink:href="#DejaVuSans-54"/>
      <use x="792.826172" xlink:href="#DejaVuSans-49"/>
      <use x="856.449219" xlink:href="#DejaVuSans-46"/>
      <use x="888.236328" xlink:href="#DejaVuSans-55"/>
      <use x="951.859375" xlink:href="#DejaVuSans-44"/>
      <use x="983.646484" xlink:href="#DejaVuSans-32"/>
      <use x="1015.433594" xlink:href="#DejaVuSans-37"/>
      <use x="1110.453125" xlink:href="#DejaVuSans-73"/>
      <use x="1139.945312" xlink:href="#DejaVuSans-110"/>
      <use x="1203.324219" xlink:href="#DejaVuSans-58"/>
      <use x="1237.015625" xlink:href="#DejaVuSans-32"/>
      <use x="1268.802734" xlink:href="#DejaVuSans-49"/>
      <use x="1332.425781" xlink:href="#DejaVuSans-49"/>
      <use x="1396.048828" xlink:href="#DejaVuSans-46"/>
      <use x="1427.835938" xlink:href="#DejaVuSans-51"/>
     </g>
    </g>
    <g id="line2d_50">
     <path d="M 364.659375 88.256563 
L 384.659375 88.256563 
" style="fill:none;stroke:#ff7f0e;stroke-linecap:square;stroke-width:2;"/>
    </g>
    <g id="line2d_51"/>
    <g id="text_27">
     <!-- tfeat AP: 5.2, %In: 3.9 -->
     <g transform="translate(392.659375 91.756563)scale(0.1 -0.1)">
      <use xlink:href="#DejaVuSans-116"/>
      <use x="39.208984" xlink:href="#DejaVuSans-102"/>
      <use x="74.414062" xlink:href="#DejaVuSans-101"/>
      <use x="135.9375" xlink:href="#DejaVuSans-97"/>
      <use x="197.216797" xlink:href="#DejaVuSans-116"/>
      <use x="236.425781" xlink:href="#DejaVuSans-32"/>
      <use x="268.212891" xlink:href="#DejaVuSans-65"/>
      <use x="336.621094" xlink:href="#DejaVuSans-80"/>
      <use x="396.923828" xlink:href="#DejaVuSans-58"/>
      <use x="430.615234" xlink:href="#DejaVuSans-32"/>
      <use x="462.402344" xlink:href="#DejaVuSans-53"/>
      <use x="526.025391" xlink:href="#DejaVuSans-46"/>
      <use x="557.8125" xlink:href="#DejaVuSans-50"/>
      <use x="621.435547" xlink:href="#DejaVuSans-44"/>
      <use x="653.222656" xlink:href="#DejaVuSans-32"/>
      <use x="685.009766" xlink:href="#DejaVuSans-37"/>
      <use x="780.029297" xlink:href="#DejaVuSans-73"/>
      <use x="809.521484" xlink:href="#DejaVuSans-110"/>
      <use x="872.900391" xlink:href="#DejaVuSans-58"/>
      <use x="906.591797" xlink:href="#DejaVuSans-32"/>
      <use x="938.378906" xlink:href="#DejaVuSans-51"/>
      <use x="1002.001953" xlink:href="#DejaVuSans-46"/>
      <use x="1033.789062" xlink:href="#DejaVuSans-57"/>
     </g>
    </g>
    <g id="line2d_52">
     <path d="M 364.659375 102.934687 
L 384.659375 102.934687 
" style="fill:none;stroke:#2ca02c;stroke-linecap:square;stroke-width:2;"/>
    </g>
    <g id="line2d_53"/>
    <g id="text_28">
     <!-- hardnet AP: 31.5, %In: 7.8 -->
     <defs>
      <path d="M 45.40625 46.390625 
L 45.40625 75.984375 
L 54.390625 75.984375 
L 54.390625 0 
L 45.40625 0 
L 45.40625 8.203125 
Q 42.578125 3.328125 38.25 0.953125 
Q 33.9375 -1.421875 27.875 -1.421875 
Q 17.96875 -1.421875 11.734375 6.484375 
Q 5.515625 14.40625 5.515625 27.296875 
Q 5.515625 40.1875 11.734375 48.09375 
Q 17.96875 56 27.875 56 
Q 33.9375 56 38.25 53.625 
Q 42.578125 51.265625 45.40625 46.390625 
z
M 14.796875 27.296875 
Q 14.796875 17.390625 18.875 11.75 
Q 22.953125 6.109375 30.078125 6.109375 
Q 37.203125 6.109375 41.296875 11.75 
Q 45.40625 17.390625 45.40625 27.296875 
Q 45.40625 37.203125 41.296875 42.84375 
Q 37.203125 48.484375 30.078125 48.484375 
Q 22.953125 48.484375 18.875 42.84375 
Q 14.796875 37.203125 14.796875 27.296875 
z
" id="DejaVuSans-100"/>
     </defs>
     <g transform="translate(392.659375 106.434687)scale(0.1 -0.1)">
      <use xlink:href="#DejaVuSans-104"/>
      <use x="63.378906" xlink:href="#DejaVuSans-97"/>
      <use x="124.658203" xlink:href="#DejaVuSans-114"/>
      <use x="164.021484" xlink:href="#DejaVuSans-100"/>
      <use x="227.498047" xlink:href="#DejaVuSans-110"/>
      <use x="290.876953" xlink:href="#DejaVuSans-101"/>
      <use x="352.400391" xlink:href="#DejaVuSans-116"/>
      <use x="391.609375" xlink:href="#DejaVuSans-32"/>
      <use x="423.396484" xlink:href="#DejaVuSans-65"/>
      <use x="491.804688" xlink:href="#DejaVuSans-80"/>
      <use x="552.107422" xlink:href="#DejaVuSans-58"/>
      <use x="585.798828" xlink:href="#DejaVuSans-32"/>
      <use x="617.585938" xlink:href="#DejaVuSans-51"/>
      <use x="681.208984" xlink:href="#DejaVuSans-49"/>
      <use x="744.832031" xlink:href="#DejaVuSans-46"/>
      <use x="776.619141" xlink:href="#DejaVuSans-53"/>
      <use x="840.242188" xlink:href="#DejaVuSans-44"/>
      <use x="872.029297" xlink:href="#DejaVuSans-32"/>
      <use x="903.816406" xlink:href="#DejaVuSans-37"/>
      <use x="998.835938" xlink:href="#DejaVuSans-73"/>
      <use x="1028.328125" xlink:href="#DejaVuSans-110"/>
      <use x="1091.707031" xlink:href="#DejaVuSans-58"/>
      <use x="1125.398438" xlink:href="#DejaVuSans-32"/>
      <use x="1157.185547" xlink:href="#DejaVuSans-55"/>
      <use x="1220.808594" xlink:href="#DejaVuSans-46"/>
      <use x="1252.595703" xlink:href="#DejaVuSans-56"/>
     </g>
    </g>
   </g>
  </g>
 </g>
 <defs>
  <clipPath id="p0e53790ce2">
   <rect height="388.08" width="474.3" x="76.5" y="60.48"/>
  </clipPath>
 </defs>
</svg>
