<?xml version="1.0" encoding="utf-8" standalone="no"?>
<!DOCTYPE svg PUBLIC "-//W3C//DTD SVG 1.1//EN"
  "http://www.w3.org/Graphics/SVG/1.1/DTD/svg11.dtd">
<!-- Created with matplotlib (https://matplotlib.org/) -->
<svg height="504pt" version="1.1" viewBox="0 0 612 504" width="612pt" xmlns="http://www.w3.org/2000/svg" xmlns:xlink="http://www.w3.org/1999/xlink">
 <defs>
  <style type="text/css">
*{stroke-linecap:butt;stroke-linejoin:round;}
  </style>
 </defs>
 <g id="figure_1">
  <g id="patch_1">
   <path d="M 0 504 
L 612 504 
L 612 0 
L 0 0 
z
" style="fill:#ffffff;"/>
  </g>
  <g id="axes_1">
   <g id="patch_2">
    <path d="M 76.5 448.56 
L 550.8 448.56 
L 550.8 60.48 
L 76.5 60.48 
z
" style="fill:#ffffff;"/>
   </g>
   <g id="matplotlib.axis_1">
    <g id="xtick_1">
     <g id="line2d_1">
      <path clip-path="url(#pb3423ffce5)" d="M 76.5 448.56 
L 76.5 60.48 
" style="fill:none;stroke:#b0b0b0;stroke-linecap:square;stroke-width:0.8;"/>
     </g>
     <g id="line2d_2">
      <defs>
       <path d="M 0 0 
L 0 3.5 
" id="m3fee6e3796" style="stroke:#000000;stroke-width:0.8;"/>
      </defs>
      <g>
       <use style="stroke:#000000;stroke-width:0.8;" x="76.5" xlink:href="#m3fee6e3796" y="448.56"/>
      </g>
     </g>
     <g id="text_1">
      <!-- 0.0 -->
      <defs>
       <path d="M 31.78125 66.40625 
Q 24.171875 66.40625 20.328125 58.90625 
Q 16.5 51.421875 16.5 36.375 
Q 16.5 21.390625 20.328125 13.890625 
Q 24.171875 6.390625 31.78125 6.390625 
Q 39.453125 6.390625 43.28125 13.890625 
Q 47.125 21.390625 47.125 36.375 
Q 47.125 51.421875 43.28125 58.90625 
Q 39.453125 66.40625 31.78125 66.40625 
z
M 31.78125 74.21875 
Q 44.046875 74.21875 50.515625 64.515625 
Q 56.984375 54.828125 56.984375 36.375 
Q 56.984375 17.96875 50.515625 8.265625 
Q 44.046875 -1.421875 31.78125 -1.421875 
Q 19.53125 -1.421875 13.0625 8.265625 
Q 6.59375 17.96875 6.59375 36.375 
Q 6.59375 54.828125 13.0625 64.515625 
Q 19.53125 74.21875 31.78125 74.21875 
z
" id="DejaVuSans-48"/>
       <path d="M 10.6875 12.40625 
L 21 12.40625 
L 21 0 
L 10.6875 0 
z
" id="DejaVuSans-46"/>
      </defs>
      <g transform="translate(68.548438 463.158437)scale(0.1 -0.1)">
       <use xlink:href="#DejaVuSans-48"/>
       <use x="63.623047" xlink:href="#DejaVuSans-46"/>
       <use x="95.410156" xlink:href="#DejaVuSans-48"/>
      </g>
     </g>
    </g>
    <g id="xtick_2">
     <g id="line2d_3">
      <path clip-path="url(#pb3423ffce5)" d="M 123.93 448.56 
L 123.93 60.48 
" style="fill:none;stroke:#b0b0b0;stroke-linecap:square;stroke-width:0.8;"/>
     </g>
     <g id="line2d_4">
      <g>
       <use style="stroke:#000000;stroke-width:0.8;" x="123.93" xlink:href="#m3fee6e3796" y="448.56"/>
      </g>
     </g>
     <g id="text_2">
      <!-- 0.1 -->
      <defs>
       <path d="M 12.40625 8.296875 
L 28.515625 8.296875 
L 28.515625 63.921875 
L 10.984375 60.40625 
L 10.984375 69.390625 
L 28.421875 72.90625 
L 38.28125 72.90625 
L 38.28125 8.296875 
L 54.390625 8.296875 
L 54.390625 0 
L 12.40625 0 
z
" id="DejaVuSans-49"/>
      </defs>
      <g transform="translate(115.978438 463.158437)scale(0.1 -0.1)">
       <use xlink:href="#DejaVuSans-48"/>
       <use x="63.623047" xlink:href="#DejaVuSans-46"/>
       <use x="95.410156" xlink:href="#DejaVuSans-49"/>
      </g>
     </g>
    </g>
    <g id="xtick_3">
     <g id="line2d_5">
      <path clip-path="url(#pb3423ffce5)" d="M 171.36 448.56 
L 171.36 60.48 
" style="fill:none;stroke:#b0b0b0;stroke-linecap:square;stroke-width:0.8;"/>
     </g>
     <g id="line2d_6">
      <g>
       <use style="stroke:#000000;stroke-width:0.8;" x="171.36" xlink:href="#m3fee6e3796" y="448.56"/>
      </g>
     </g>
     <g id="text_3">
      <!-- 0.2 -->
      <defs>
       <path d="M 19.1875 8.296875 
L 53.609375 8.296875 
L 53.609375 0 
L 7.328125 0 
L 7.328125 8.296875 
Q 12.9375 14.109375 22.625 23.890625 
Q 32.328125 33.6875 34.8125 36.53125 
Q 39.546875 41.84375 41.421875 45.53125 
Q 43.3125 49.21875 43.3125 52.78125 
Q 43.3125 58.59375 39.234375 62.25 
Q 35.15625 65.921875 28.609375 65.921875 
Q 23.96875 65.921875 18.8125 64.3125 
Q 13.671875 62.703125 7.8125 59.421875 
L 7.8125 69.390625 
Q 13.765625 71.78125 18.9375 73 
Q 24.125 74.21875 28.421875 74.21875 
Q 39.75 74.21875 46.484375 68.546875 
Q 53.21875 62.890625 53.21875 53.421875 
Q 53.21875 48.921875 51.53125 44.890625 
Q 49.859375 40.875 45.40625 35.40625 
Q 44.1875 33.984375 37.640625 27.21875 
Q 31.109375 20.453125 19.1875 8.296875 
z
" id="DejaVuSans-50"/>
      </defs>
      <g transform="translate(163.408438 463.158437)scale(0.1 -0.1)">
       <use xlink:href="#DejaVuSans-48"/>
       <use x="63.623047" xlink:href="#DejaVuSans-46"/>
       <use x="95.410156" xlink:href="#DejaVuSans-50"/>
      </g>
     </g>
    </g>
    <g id="xtick_4">
     <g id="line2d_7">
      <path clip-path="url(#pb3423ffce5)" d="M 218.79 448.56 
L 218.79 60.48 
" style="fill:none;stroke:#b0b0b0;stroke-linecap:square;stroke-width:0.8;"/>
     </g>
     <g id="line2d_8">
      <g>
       <use style="stroke:#000000;stroke-width:0.8;" x="218.79" xlink:href="#m3fee6e3796" y="448.56"/>
      </g>
     </g>
     <g id="text_4">
      <!-- 0.3 -->
      <defs>
       <path d="M 40.578125 39.3125 
Q 47.65625 37.796875 51.625 33 
Q 55.609375 28.21875 55.609375 21.1875 
Q 55.609375 10.40625 48.1875 4.484375 
Q 40.765625 -1.421875 27.09375 -1.421875 
Q 22.515625 -1.421875 17.65625 -0.515625 
Q 12.796875 0.390625 7.625 2.203125 
L 7.625 11.71875 
Q 11.71875 9.328125 16.59375 8.109375 
Q 21.484375 6.890625 26.8125 6.890625 
Q 36.078125 6.890625 40.9375 10.546875 
Q 45.796875 14.203125 45.796875 21.1875 
Q 45.796875 27.640625 41.28125 31.265625 
Q 36.765625 34.90625 28.71875 34.90625 
L 20.21875 34.90625 
L 20.21875 43.015625 
L 29.109375 43.015625 
Q 36.375 43.015625 40.234375 45.921875 
Q 44.09375 48.828125 44.09375 54.296875 
Q 44.09375 59.90625 40.109375 62.90625 
Q 36.140625 65.921875 28.71875 65.921875 
Q 24.65625 65.921875 20.015625 65.03125 
Q 15.375 64.15625 9.8125 62.3125 
L 9.8125 71.09375 
Q 15.4375 72.65625 20.34375 73.4375 
Q 25.25 74.21875 29.59375 74.21875 
Q 40.828125 74.21875 47.359375 69.109375 
Q 53.90625 64.015625 53.90625 55.328125 
Q 53.90625 49.265625 50.4375 45.09375 
Q 46.96875 40.921875 40.578125 39.3125 
z
" id="DejaVuSans-51"/>
      </defs>
      <g transform="translate(210.838438 463.158437)scale(0.1 -0.1)">
       <use xlink:href="#DejaVuSans-48"/>
       <use x="63.623047" xlink:href="#DejaVuSans-46"/>
       <use x="95.410156" xlink:href="#DejaVuSans-51"/>
      </g>
     </g>
    </g>
    <g id="xtick_5">
     <g id="line2d_9">
      <path clip-path="url(#pb3423ffce5)" d="M 266.22 448.56 
L 266.22 60.48 
" style="fill:none;stroke:#b0b0b0;stroke-linecap:square;stroke-width:0.8;"/>
     </g>
     <g id="line2d_10">
      <g>
       <use style="stroke:#000000;stroke-width:0.8;" x="266.22" xlink:href="#m3fee6e3796" y="448.56"/>
      </g>
     </g>
     <g id="text_5">
      <!-- 0.4 -->
      <defs>
       <path d="M 37.796875 64.3125 
L 12.890625 25.390625 
L 37.796875 25.390625 
z
M 35.203125 72.90625 
L 47.609375 72.90625 
L 47.609375 25.390625 
L 58.015625 25.390625 
L 58.015625 17.1875 
L 47.609375 17.1875 
L 47.609375 0 
L 37.796875 0 
L 37.796875 17.1875 
L 4.890625 17.1875 
L 4.890625 26.703125 
z
" id="DejaVuSans-52"/>
      </defs>
      <g transform="translate(258.268438 463.158437)scale(0.1 -0.1)">
       <use xlink:href="#DejaVuSans-48"/>
       <use x="63.623047" xlink:href="#DejaVuSans-46"/>
       <use x="95.410156" xlink:href="#DejaVuSans-52"/>
      </g>
     </g>
    </g>
    <g id="xtick_6">
     <g id="line2d_11">
      <path clip-path="url(#pb3423ffce5)" d="M 313.65 448.56 
L 313.65 60.48 
" style="fill:none;stroke:#b0b0b0;stroke-linecap:square;stroke-width:0.8;"/>
     </g>
     <g id="line2d_12">
      <g>
       <use style="stroke:#000000;stroke-width:0.8;" x="313.65" xlink:href="#m3fee6e3796" y="448.56"/>
      </g>
     </g>
     <g id="text_6">
      <!-- 0.5 -->
      <defs>
       <path d="M 10.796875 72.90625 
L 49.515625 72.90625 
L 49.515625 64.59375 
L 19.828125 64.59375 
L 19.828125 46.734375 
Q 21.96875 47.46875 24.109375 47.828125 
Q 26.265625 48.1875 28.421875 48.1875 
Q 40.625 48.1875 47.75 41.5 
Q 54.890625 34.8125 54.890625 23.390625 
Q 54.890625 11.625 47.5625 5.09375 
Q 40.234375 -1.421875 26.90625 -1.421875 
Q 22.3125 -1.421875 17.546875 -0.640625 
Q 12.796875 0.140625 7.71875 1.703125 
L 7.71875 11.625 
Q 12.109375 9.234375 16.796875 8.0625 
Q 21.484375 6.890625 26.703125 6.890625 
Q 35.15625 6.890625 40.078125 11.328125 
Q 45.015625 15.765625 45.015625 23.390625 
Q 45.015625 31 40.078125 35.4375 
Q 35.15625 39.890625 26.703125 39.890625 
Q 22.75 39.890625 18.8125 39.015625 
Q 14.890625 38.140625 10.796875 36.28125 
z
" id="DejaVuSans-53"/>
      </defs>
      <g transform="translate(305.698438 463.158437)scale(0.1 -0.1)">
       <use xlink:href="#DejaVuSans-48"/>
       <use x="63.623047" xlink:href="#DejaVuSans-46"/>
       <use x="95.410156" xlink:href="#DejaVuSans-53"/>
      </g>
     </g>
    </g>
    <g id="xtick_7">
     <g id="line2d_13">
      <path clip-path="url(#pb3423ffce5)" d="M 361.08 448.56 
L 361.08 60.48 
" style="fill:none;stroke:#b0b0b0;stroke-linecap:square;stroke-width:0.8;"/>
     </g>
     <g id="line2d_14">
      <g>
       <use style="stroke:#000000;stroke-width:0.8;" x="361.08" xlink:href="#m3fee6e3796" y="448.56"/>
      </g>
     </g>
     <g id="text_7">
      <!-- 0.6 -->
      <defs>
       <path d="M 33.015625 40.375 
Q 26.375 40.375 22.484375 35.828125 
Q 18.609375 31.296875 18.609375 23.390625 
Q 18.609375 15.53125 22.484375 10.953125 
Q 26.375 6.390625 33.015625 6.390625 
Q 39.65625 6.390625 43.53125 10.953125 
Q 47.40625 15.53125 47.40625 23.390625 
Q 47.40625 31.296875 43.53125 35.828125 
Q 39.65625 40.375 33.015625 40.375 
z
M 52.59375 71.296875 
L 52.59375 62.3125 
Q 48.875 64.0625 45.09375 64.984375 
Q 41.3125 65.921875 37.59375 65.921875 
Q 27.828125 65.921875 22.671875 59.328125 
Q 17.53125 52.734375 16.796875 39.40625 
Q 19.671875 43.65625 24.015625 45.921875 
Q 28.375 48.1875 33.59375 48.1875 
Q 44.578125 48.1875 50.953125 41.515625 
Q 57.328125 34.859375 57.328125 23.390625 
Q 57.328125 12.15625 50.6875 5.359375 
Q 44.046875 -1.421875 33.015625 -1.421875 
Q 20.359375 -1.421875 13.671875 8.265625 
Q 6.984375 17.96875 6.984375 36.375 
Q 6.984375 53.65625 15.1875 63.9375 
Q 23.390625 74.21875 37.203125 74.21875 
Q 40.921875 74.21875 44.703125 73.484375 
Q 48.484375 72.75 52.59375 71.296875 
z
" id="DejaVuSans-54"/>
      </defs>
      <g transform="translate(353.128438 463.158437)scale(0.1 -0.1)">
       <use xlink:href="#DejaVuSans-48"/>
       <use x="63.623047" xlink:href="#DejaVuSans-46"/>
       <use x="95.410156" xlink:href="#DejaVuSans-54"/>
      </g>
     </g>
    </g>
    <g id="xtick_8">
     <g id="line2d_15">
      <path clip-path="url(#pb3423ffce5)" d="M 408.51 448.56 
L 408.51 60.48 
" style="fill:none;stroke:#b0b0b0;stroke-linecap:square;stroke-width:0.8;"/>
     </g>
     <g id="line2d_16">
      <g>
       <use style="stroke:#000000;stroke-width:0.8;" x="408.51" xlink:href="#m3fee6e3796" y="448.56"/>
      </g>
     </g>
     <g id="text_8">
      <!-- 0.7 -->
      <defs>
       <path d="M 8.203125 72.90625 
L 55.078125 72.90625 
L 55.078125 68.703125 
L 28.609375 0 
L 18.3125 0 
L 43.21875 64.59375 
L 8.203125 64.59375 
z
" id="DejaVuSans-55"/>
      </defs>
      <g transform="translate(400.558438 463.158437)scale(0.1 -0.1)">
       <use xlink:href="#DejaVuSans-48"/>
       <use x="63.623047" xlink:href="#DejaVuSans-46"/>
       <use x="95.410156" xlink:href="#DejaVuSans-55"/>
      </g>
     </g>
    </g>
    <g id="xtick_9">
     <g id="line2d_17">
      <path clip-path="url(#pb3423ffce5)" d="M 455.94 448.56 
L 455.94 60.48 
" style="fill:none;stroke:#b0b0b0;stroke-linecap:square;stroke-width:0.8;"/>
     </g>
     <g id="line2d_18">
      <g>
       <use style="stroke:#000000;stroke-width:0.8;" x="455.94" xlink:href="#m3fee6e3796" y="448.56"/>
      </g>
     </g>
     <g id="text_9">
      <!-- 0.8 -->
      <defs>
       <path d="M 31.78125 34.625 
Q 24.75 34.625 20.71875 30.859375 
Q 16.703125 27.09375 16.703125 20.515625 
Q 16.703125 13.921875 20.71875 10.15625 
Q 24.75 6.390625 31.78125 6.390625 
Q 38.8125 6.390625 42.859375 10.171875 
Q 46.921875 13.96875 46.921875 20.515625 
Q 46.921875 27.09375 42.890625 30.859375 
Q 38.875 34.625 31.78125 34.625 
z
M 21.921875 38.8125 
Q 15.578125 40.375 12.03125 44.71875 
Q 8.5 49.078125 8.5 55.328125 
Q 8.5 64.0625 14.71875 69.140625 
Q 20.953125 74.21875 31.78125 74.21875 
Q 42.671875 74.21875 48.875 69.140625 
Q 55.078125 64.0625 55.078125 55.328125 
Q 55.078125 49.078125 51.53125 44.71875 
Q 48 40.375 41.703125 38.8125 
Q 48.828125 37.15625 52.796875 32.3125 
Q 56.78125 27.484375 56.78125 20.515625 
Q 56.78125 9.90625 50.3125 4.234375 
Q 43.84375 -1.421875 31.78125 -1.421875 
Q 19.734375 -1.421875 13.25 4.234375 
Q 6.78125 9.90625 6.78125 20.515625 
Q 6.78125 27.484375 10.78125 32.3125 
Q 14.796875 37.15625 21.921875 38.8125 
z
M 18.3125 54.390625 
Q 18.3125 48.734375 21.84375 45.5625 
Q 25.390625 42.390625 31.78125 42.390625 
Q 38.140625 42.390625 41.71875 45.5625 
Q 45.3125 48.734375 45.3125 54.390625 
Q 45.3125 60.0625 41.71875 63.234375 
Q 38.140625 66.40625 31.78125 66.40625 
Q 25.390625 66.40625 21.84375 63.234375 
Q 18.3125 60.0625 18.3125 54.390625 
z
" id="DejaVuSans-56"/>
      </defs>
      <g transform="translate(447.988438 463.158437)scale(0.1 -0.1)">
       <use xlink:href="#DejaVuSans-48"/>
       <use x="63.623047" xlink:href="#DejaVuSans-46"/>
       <use x="95.410156" xlink:href="#DejaVuSans-56"/>
      </g>
     </g>
    </g>
    <g id="xtick_10">
     <g id="line2d_19">
      <path clip-path="url(#pb3423ffce5)" d="M 503.37 448.56 
L 503.37 60.48 
" style="fill:none;stroke:#b0b0b0;stroke-linecap:square;stroke-width:0.8;"/>
     </g>
     <g id="line2d_20">
      <g>
       <use style="stroke:#000000;stroke-width:0.8;" x="503.37" xlink:href="#m3fee6e3796" y="448.56"/>
      </g>
     </g>
     <g id="text_10">
      <!-- 0.9 -->
      <defs>
       <path d="M 10.984375 1.515625 
L 10.984375 10.5 
Q 14.703125 8.734375 18.5 7.8125 
Q 22.3125 6.890625 25.984375 6.890625 
Q 35.75 6.890625 40.890625 13.453125 
Q 46.046875 20.015625 46.78125 33.40625 
Q 43.953125 29.203125 39.59375 26.953125 
Q 35.25 24.703125 29.984375 24.703125 
Q 19.046875 24.703125 12.671875 31.3125 
Q 6.296875 37.9375 6.296875 49.421875 
Q 6.296875 60.640625 12.9375 67.421875 
Q 19.578125 74.21875 30.609375 74.21875 
Q 43.265625 74.21875 49.921875 64.515625 
Q 56.59375 54.828125 56.59375 36.375 
Q 56.59375 19.140625 48.40625 8.859375 
Q 40.234375 -1.421875 26.421875 -1.421875 
Q 22.703125 -1.421875 18.890625 -0.6875 
Q 15.09375 0.046875 10.984375 1.515625 
z
M 30.609375 32.421875 
Q 37.25 32.421875 41.125 36.953125 
Q 45.015625 41.5 45.015625 49.421875 
Q 45.015625 57.28125 41.125 61.84375 
Q 37.25 66.40625 30.609375 66.40625 
Q 23.96875 66.40625 20.09375 61.84375 
Q 16.21875 57.28125 16.21875 49.421875 
Q 16.21875 41.5 20.09375 36.953125 
Q 23.96875 32.421875 30.609375 32.421875 
z
" id="DejaVuSans-57"/>
      </defs>
      <g transform="translate(495.418438 463.158437)scale(0.1 -0.1)">
       <use xlink:href="#DejaVuSans-48"/>
       <use x="63.623047" xlink:href="#DejaVuSans-46"/>
       <use x="95.410156" xlink:href="#DejaVuSans-57"/>
      </g>
     </g>
    </g>
    <g id="xtick_11">
     <g id="line2d_21">
      <path clip-path="url(#pb3423ffce5)" d="M 550.8 448.56 
L 550.8 60.48 
" style="fill:none;stroke:#b0b0b0;stroke-linecap:square;stroke-width:0.8;"/>
     </g>
     <g id="line2d_22">
      <g>
       <use style="stroke:#000000;stroke-width:0.8;" x="550.8" xlink:href="#m3fee6e3796" y="448.56"/>
      </g>
     </g>
     <g id="text_11">
      <!-- 1.0 -->
      <g transform="translate(542.848438 463.158437)scale(0.1 -0.1)">
       <use xlink:href="#DejaVuSans-49"/>
       <use x="63.623047" xlink:href="#DejaVuSans-46"/>
       <use x="95.410156" xlink:href="#DejaVuSans-48"/>
      </g>
     </g>
    </g>
    <g id="text_12">
     <!-- 1-precision -->
     <defs>
      <path d="M 4.890625 31.390625 
L 31.203125 31.390625 
L 31.203125 23.390625 
L 4.890625 23.390625 
z
" id="DejaVuSans-45"/>
      <path d="M 18.109375 8.203125 
L 18.109375 -20.796875 
L 9.078125 -20.796875 
L 9.078125 54.6875 
L 18.109375 54.6875 
L 18.109375 46.390625 
Q 20.953125 51.265625 25.265625 53.625 
Q 29.59375 56 35.59375 56 
Q 45.5625 56 51.78125 48.09375 
Q 58.015625 40.1875 58.015625 27.296875 
Q 58.015625 14.40625 51.78125 6.484375 
Q 45.5625 -1.421875 35.59375 -1.421875 
Q 29.59375 -1.421875 25.265625 0.953125 
Q 20.953125 3.328125 18.109375 8.203125 
z
M 48.6875 27.296875 
Q 48.6875 37.203125 44.609375 42.84375 
Q 40.53125 48.484375 33.40625 48.484375 
Q 26.265625 48.484375 22.1875 42.84375 
Q 18.109375 37.203125 18.109375 27.296875 
Q 18.109375 17.390625 22.1875 11.75 
Q 26.265625 6.109375 33.40625 6.109375 
Q 40.53125 6.109375 44.609375 11.75 
Q 48.6875 17.390625 48.6875 27.296875 
z
" id="DejaVuSans-112"/>
      <path d="M 41.109375 46.296875 
Q 39.59375 47.171875 37.8125 47.578125 
Q 36.03125 48 33.890625 48 
Q 26.265625 48 22.1875 43.046875 
Q 18.109375 38.09375 18.109375 28.8125 
L 18.109375 0 
L 9.078125 0 
L 9.078125 54.6875 
L 18.109375 54.6875 
L 18.109375 46.1875 
Q 20.953125 51.171875 25.484375 53.578125 
Q 30.03125 56 36.53125 56 
Q 37.453125 56 38.578125 55.875 
Q 39.703125 55.765625 41.0625 55.515625 
z
" id="DejaVuSans-114"/>
      <path d="M 56.203125 29.59375 
L 56.203125 25.203125 
L 14.890625 25.203125 
Q 15.484375 15.921875 20.484375 11.0625 
Q 25.484375 6.203125 34.421875 6.203125 
Q 39.59375 6.203125 44.453125 7.46875 
Q 49.3125 8.734375 54.109375 11.28125 
L 54.109375 2.78125 
Q 49.265625 0.734375 44.1875 -0.34375 
Q 39.109375 -1.421875 33.890625 -1.421875 
Q 20.796875 -1.421875 13.15625 6.1875 
Q 5.515625 13.8125 5.515625 26.8125 
Q 5.515625 40.234375 12.765625 48.109375 
Q 20.015625 56 32.328125 56 
Q 43.359375 56 49.78125 48.890625 
Q 56.203125 41.796875 56.203125 29.59375 
z
M 47.21875 32.234375 
Q 47.125 39.59375 43.09375 43.984375 
Q 39.0625 48.390625 32.421875 48.390625 
Q 24.90625 48.390625 20.390625 44.140625 
Q 15.875 39.890625 15.1875 32.171875 
z
" id="DejaVuSans-101"/>
      <path d="M 48.78125 52.59375 
L 48.78125 44.1875 
Q 44.96875 46.296875 41.140625 47.34375 
Q 37.3125 48.390625 33.40625 48.390625 
Q 24.65625 48.390625 19.8125 42.84375 
Q 14.984375 37.3125 14.984375 27.296875 
Q 14.984375 17.28125 19.8125 11.734375 
Q 24.65625 6.203125 33.40625 6.203125 
Q 37.3125 6.203125 41.140625 7.25 
Q 44.96875 8.296875 48.78125 10.40625 
L 48.78125 2.09375 
Q 45.015625 0.34375 40.984375 -0.53125 
Q 36.96875 -1.421875 32.421875 -1.421875 
Q 20.0625 -1.421875 12.78125 6.34375 
Q 5.515625 14.109375 5.515625 27.296875 
Q 5.515625 40.671875 12.859375 48.328125 
Q 20.21875 56 33.015625 56 
Q 37.15625 56 41.109375 55.140625 
Q 45.0625 54.296875 48.78125 52.59375 
z
" id="DejaVuSans-99"/>
      <path d="M 9.421875 54.6875 
L 18.40625 54.6875 
L 18.40625 0 
L 9.421875 0 
z
M 9.421875 75.984375 
L 18.40625 75.984375 
L 18.40625 64.59375 
L 9.421875 64.59375 
z
" id="DejaVuSans-105"/>
      <path d="M 44.28125 53.078125 
L 44.28125 44.578125 
Q 40.484375 46.53125 36.375 47.5 
Q 32.28125 48.484375 27.875 48.484375 
Q 21.1875 48.484375 17.84375 46.4375 
Q 14.5 44.390625 14.5 40.28125 
Q 14.5 37.15625 16.890625 35.375 
Q 19.28125 33.59375 26.515625 31.984375 
L 29.59375 31.296875 
Q 39.15625 29.25 43.1875 25.515625 
Q 47.21875 21.78125 47.21875 15.09375 
Q 47.21875 7.46875 41.1875 3.015625 
Q 35.15625 -1.421875 24.609375 -1.421875 
Q 20.21875 -1.421875 15.453125 -0.5625 
Q 10.6875 0.296875 5.421875 2 
L 5.421875 11.28125 
Q 10.40625 8.6875 15.234375 7.390625 
Q 20.0625 6.109375 24.8125 6.109375 
Q 31.15625 6.109375 34.5625 8.28125 
Q 37.984375 10.453125 37.984375 14.40625 
Q 37.984375 18.0625 35.515625 20.015625 
Q 33.0625 21.96875 24.703125 23.78125 
L 21.578125 24.515625 
Q 13.234375 26.265625 9.515625 29.90625 
Q 5.8125 33.546875 5.8125 39.890625 
Q 5.8125 47.609375 11.28125 51.796875 
Q 16.75 56 26.8125 56 
Q 31.78125 56 36.171875 55.265625 
Q 40.578125 54.546875 44.28125 53.078125 
z
" id="DejaVuSans-115"/>
      <path d="M 30.609375 48.390625 
Q 23.390625 48.390625 19.1875 42.75 
Q 14.984375 37.109375 14.984375 27.296875 
Q 14.984375 17.484375 19.15625 11.84375 
Q 23.34375 6.203125 30.609375 6.203125 
Q 37.796875 6.203125 41.984375 11.859375 
Q 46.1875 17.53125 46.1875 27.296875 
Q 46.1875 37.015625 41.984375 42.703125 
Q 37.796875 48.390625 30.609375 48.390625 
z
M 30.609375 56 
Q 42.328125 56 49.015625 48.375 
Q 55.71875 40.765625 55.71875 27.296875 
Q 55.71875 13.875 49.015625 6.21875 
Q 42.328125 -1.421875 30.609375 -1.421875 
Q 18.84375 -1.421875 12.171875 6.21875 
Q 5.515625 13.875 5.515625 27.296875 
Q 5.515625 40.765625 12.171875 48.375 
Q 18.84375 56 30.609375 56 
z
" id="DejaVuSans-111"/>
      <path d="M 54.890625 33.015625 
L 54.890625 0 
L 45.90625 0 
L 45.90625 32.71875 
Q 45.90625 40.484375 42.875 44.328125 
Q 39.84375 48.1875 33.796875 48.1875 
Q 26.515625 48.1875 22.3125 43.546875 
Q 18.109375 38.921875 18.109375 30.90625 
L 18.109375 0 
L 9.078125 0 
L 9.078125 54.6875 
L 18.109375 54.6875 
L 18.109375 46.1875 
Q 21.34375 51.125 25.703125 53.5625 
Q 30.078125 56 35.796875 56 
Q 45.21875 56 50.046875 50.171875 
Q 54.890625 44.34375 54.890625 33.015625 
z
" id="DejaVuSans-110"/>
     </defs>
     <g transform="translate(286.110938 476.836563)scale(0.1 -0.1)">
      <use xlink:href="#DejaVuSans-49"/>
      <use x="63.623047" xlink:href="#DejaVuSans-45"/>
      <use x="99.707031" xlink:href="#DejaVuSans-112"/>
      <use x="163.183594" xlink:href="#DejaVuSans-114"/>
      <use x="202.046875" xlink:href="#DejaVuSans-101"/>
      <use x="263.570312" xlink:href="#DejaVuSans-99"/>
      <use x="318.550781" xlink:href="#DejaVuSans-105"/>
      <use x="346.333984" xlink:href="#DejaVuSans-115"/>
      <use x="398.433594" xlink:href="#DejaVuSans-105"/>
      <use x="426.216797" xlink:href="#DejaVuSans-111"/>
      <use x="487.398438" xlink:href="#DejaVuSans-110"/>
     </g>
    </g>
   </g>
   <g id="matplotlib.axis_2">
    <g id="ytick_1">
     <g id="line2d_23">
      <path clip-path="url(#pb3423ffce5)" d="M 76.5 448.56 
L 550.8 448.56 
" style="fill:none;stroke:#b0b0b0;stroke-linecap:square;stroke-width:0.8;"/>
     </g>
     <g id="line2d_24">
      <defs>
       <path d="M 0 0 
L -3.5 0 
" id="m6816a3d9b5" style="stroke:#000000;stroke-width:0.8;"/>
      </defs>
      <g>
       <use style="stroke:#000000;stroke-width:0.8;" x="76.5" xlink:href="#m6816a3d9b5" y="448.56"/>
      </g>
     </g>
     <g id="text_13">
      <!-- 0.0 -->
      <g transform="translate(53.596875 452.359219)scale(0.1 -0.1)">
       <use xlink:href="#DejaVuSans-48"/>
       <use x="63.623047" xlink:href="#DejaVuSans-46"/>
       <use x="95.410156" xlink:href="#DejaVuSans-48"/>
      </g>
     </g>
    </g>
    <g id="ytick_2">
     <g id="line2d_25">
      <path clip-path="url(#pb3423ffce5)" d="M 76.5 409.752 
L 550.8 409.752 
" style="fill:none;stroke:#b0b0b0;stroke-linecap:square;stroke-width:0.8;"/>
     </g>
     <g id="line2d_26">
      <g>
       <use style="stroke:#000000;stroke-width:0.8;" x="76.5" xlink:href="#m6816a3d9b5" y="409.752"/>
      </g>
     </g>
     <g id="text_14">
      <!-- 0.1 -->
      <g transform="translate(53.596875 413.551219)scale(0.1 -0.1)">
       <use xlink:href="#DejaVuSans-48"/>
       <use x="63.623047" xlink:href="#DejaVuSans-46"/>
       <use x="95.410156" xlink:href="#DejaVuSans-49"/>
      </g>
     </g>
    </g>
    <g id="ytick_3">
     <g id="line2d_27">
      <path clip-path="url(#pb3423ffce5)" d="M 76.5 370.944 
L 550.8 370.944 
" style="fill:none;stroke:#b0b0b0;stroke-linecap:square;stroke-width:0.8;"/>
     </g>
     <g id="line2d_28">
      <g>
       <use style="stroke:#000000;stroke-width:0.8;" x="76.5" xlink:href="#m6816a3d9b5" y="370.944"/>
      </g>
     </g>
     <g id="text_15">
      <!-- 0.2 -->
      <g transform="translate(53.596875 374.743219)scale(0.1 -0.1)">
       <use xlink:href="#DejaVuSans-48"/>
       <use x="63.623047" xlink:href="#DejaVuSans-46"/>
       <use x="95.410156" xlink:href="#DejaVuSans-50"/>
      </g>
     </g>
    </g>
    <g id="ytick_4">
     <g id="line2d_29">
      <path clip-path="url(#pb3423ffce5)" d="M 76.5 332.136 
L 550.8 332.136 
" style="fill:none;stroke:#b0b0b0;stroke-linecap:square;stroke-width:0.8;"/>
     </g>
     <g id="line2d_30">
      <g>
       <use style="stroke:#000000;stroke-width:0.8;" x="76.5" xlink:href="#m6816a3d9b5" y="332.136"/>
      </g>
     </g>
     <g id="text_16">
      <!-- 0.3 -->
      <g transform="translate(53.596875 335.935219)scale(0.1 -0.1)">
       <use xlink:href="#DejaVuSans-48"/>
       <use x="63.623047" xlink:href="#DejaVuSans-46"/>
       <use x="95.410156" xlink:href="#DejaVuSans-51"/>
      </g>
     </g>
    </g>
    <g id="ytick_5">
     <g id="line2d_31">
      <path clip-path="url(#pb3423ffce5)" d="M 76.5 293.328 
L 550.8 293.328 
" style="fill:none;stroke:#b0b0b0;stroke-linecap:square;stroke-width:0.8;"/>
     </g>
     <g id="line2d_32">
      <g>
       <use style="stroke:#000000;stroke-width:0.8;" x="76.5" xlink:href="#m6816a3d9b5" y="293.328"/>
      </g>
     </g>
     <g id="text_17">
      <!-- 0.4 -->
      <g transform="translate(53.596875 297.127219)scale(0.1 -0.1)">
       <use xlink:href="#DejaVuSans-48"/>
       <use x="63.623047" xlink:href="#DejaVuSans-46"/>
       <use x="95.410156" xlink:href="#DejaVuSans-52"/>
      </g>
     </g>
    </g>
    <g id="ytick_6">
     <g id="line2d_33">
      <path clip-path="url(#pb3423ffce5)" d="M 76.5 254.52 
L 550.8 254.52 
" style="fill:none;stroke:#b0b0b0;stroke-linecap:square;stroke-width:0.8;"/>
     </g>
     <g id="line2d_34">
      <g>
       <use style="stroke:#000000;stroke-width:0.8;" x="76.5" xlink:href="#m6816a3d9b5" y="254.52"/>
      </g>
     </g>
     <g id="text_18">
      <!-- 0.5 -->
      <g transform="translate(53.596875 258.319219)scale(0.1 -0.1)">
       <use xlink:href="#DejaVuSans-48"/>
       <use x="63.623047" xlink:href="#DejaVuSans-46"/>
       <use x="95.410156" xlink:href="#DejaVuSans-53"/>
      </g>
     </g>
    </g>
    <g id="ytick_7">
     <g id="line2d_35">
      <path clip-path="url(#pb3423ffce5)" d="M 76.5 215.712 
L 550.8 215.712 
" style="fill:none;stroke:#b0b0b0;stroke-linecap:square;stroke-width:0.8;"/>
     </g>
     <g id="line2d_36">
      <g>
       <use style="stroke:#000000;stroke-width:0.8;" x="76.5" xlink:href="#m6816a3d9b5" y="215.712"/>
      </g>
     </g>
     <g id="text_19">
      <!-- 0.6 -->
      <g transform="translate(53.596875 219.511219)scale(0.1 -0.1)">
       <use xlink:href="#DejaVuSans-48"/>
       <use x="63.623047" xlink:href="#DejaVuSans-46"/>
       <use x="95.410156" xlink:href="#DejaVuSans-54"/>
      </g>
     </g>
    </g>
    <g id="ytick_8">
     <g id="line2d_37">
      <path clip-path="url(#pb3423ffce5)" d="M 76.5 176.904 
L 550.8 176.904 
" style="fill:none;stroke:#b0b0b0;stroke-linecap:square;stroke-width:0.8;"/>
     </g>
     <g id="line2d_38">
      <g>
       <use style="stroke:#000000;stroke-width:0.8;" x="76.5" xlink:href="#m6816a3d9b5" y="176.904"/>
      </g>
     </g>
     <g id="text_20">
      <!-- 0.7 -->
      <g transform="translate(53.596875 180.703219)scale(0.1 -0.1)">
       <use xlink:href="#DejaVuSans-48"/>
       <use x="63.623047" xlink:href="#DejaVuSans-46"/>
       <use x="95.410156" xlink:href="#DejaVuSans-55"/>
      </g>
     </g>
    </g>
    <g id="ytick_9">
     <g id="line2d_39">
      <path clip-path="url(#pb3423ffce5)" d="M 76.5 138.096 
L 550.8 138.096 
" style="fill:none;stroke:#b0b0b0;stroke-linecap:square;stroke-width:0.8;"/>
     </g>
     <g id="line2d_40">
      <g>
       <use style="stroke:#000000;stroke-width:0.8;" x="76.5" xlink:href="#m6816a3d9b5" y="138.096"/>
      </g>
     </g>
     <g id="text_21">
      <!-- 0.8 -->
      <g transform="translate(53.596875 141.895219)scale(0.1 -0.1)">
       <use xlink:href="#DejaVuSans-48"/>
       <use x="63.623047" xlink:href="#DejaVuSans-46"/>
       <use x="95.410156" xlink:href="#DejaVuSans-56"/>
      </g>
     </g>
    </g>
    <g id="ytick_10">
     <g id="line2d_41">
      <path clip-path="url(#pb3423ffce5)" d="M 76.5 99.288 
L 550.8 99.288 
" style="fill:none;stroke:#b0b0b0;stroke-linecap:square;stroke-width:0.8;"/>
     </g>
     <g id="line2d_42">
      <g>
       <use style="stroke:#000000;stroke-width:0.8;" x="76.5" xlink:href="#m6816a3d9b5" y="99.288"/>
      </g>
     </g>
     <g id="text_22">
      <!-- 0.9 -->
      <g transform="translate(53.596875 103.087219)scale(0.1 -0.1)">
       <use xlink:href="#DejaVuSans-48"/>
       <use x="63.623047" xlink:href="#DejaVuSans-46"/>
       <use x="95.410156" xlink:href="#DejaVuSans-57"/>
      </g>
     </g>
    </g>
    <g id="ytick_11">
     <g id="line2d_43">
      <path clip-path="url(#pb3423ffce5)" d="M 76.5 60.48 
L 550.8 60.48 
" style="fill:none;stroke:#b0b0b0;stroke-linecap:square;stroke-width:0.8;"/>
     </g>
     <g id="line2d_44">
      <g>
       <use style="stroke:#000000;stroke-width:0.8;" x="76.5" xlink:href="#m6816a3d9b5" y="60.48"/>
      </g>
     </g>
     <g id="text_23">
      <!-- 1.0 -->
      <g transform="translate(53.596875 64.279219)scale(0.1 -0.1)">
       <use xlink:href="#DejaVuSans-49"/>
       <use x="63.623047" xlink:href="#DejaVuSans-46"/>
       <use x="95.410156" xlink:href="#DejaVuSans-48"/>
      </g>
     </g>
    </g>
    <g id="text_24">
     <!-- #correct/1039 -->
     <defs>
      <path d="M 51.125 44 
L 36.921875 44 
L 32.8125 27.6875 
L 47.125 27.6875 
z
M 43.796875 71.78125 
L 38.71875 51.515625 
L 52.984375 51.515625 
L 58.109375 71.78125 
L 65.921875 71.78125 
L 60.890625 51.515625 
L 76.125 51.515625 
L 76.125 44 
L 58.984375 44 
L 54.984375 27.6875 
L 70.515625 27.6875 
L 70.515625 20.21875 
L 53.078125 20.21875 
L 48 0 
L 40.1875 0 
L 45.21875 20.21875 
L 30.90625 20.21875 
L 25.875 0 
L 18.015625 0 
L 23.09375 20.21875 
L 7.71875 20.21875 
L 7.71875 27.6875 
L 24.90625 27.6875 
L 29 44 
L 13.28125 44 
L 13.28125 51.515625 
L 30.90625 51.515625 
L 35.890625 71.78125 
z
" id="DejaVuSans-35"/>
      <path d="M 18.3125 70.21875 
L 18.3125 54.6875 
L 36.8125 54.6875 
L 36.8125 47.703125 
L 18.3125 47.703125 
L 18.3125 18.015625 
Q 18.3125 11.328125 20.140625 9.421875 
Q 21.96875 7.515625 27.59375 7.515625 
L 36.8125 7.515625 
L 36.8125 0 
L 27.59375 0 
Q 17.1875 0 13.234375 3.875 
Q 9.28125 7.765625 9.28125 18.015625 
L 9.28125 47.703125 
L 2.6875 47.703125 
L 2.6875 54.6875 
L 9.28125 54.6875 
L 9.28125 70.21875 
z
" id="DejaVuSans-116"/>
      <path d="M 25.390625 72.90625 
L 33.6875 72.90625 
L 8.296875 -9.28125 
L 0 -9.28125 
z
" id="DejaVuSans-47"/>
     </defs>
     <g transform="translate(47.517187 290.624688)rotate(-90)scale(0.1 -0.1)">
      <use xlink:href="#DejaVuSans-35"/>
      <use x="83.789062" xlink:href="#DejaVuSans-99"/>
      <use x="138.769531" xlink:href="#DejaVuSans-111"/>
      <use x="199.951172" xlink:href="#DejaVuSans-114"/>
      <use x="239.314453" xlink:href="#DejaVuSans-114"/>
      <use x="278.177734" xlink:href="#DejaVuSans-101"/>
      <use x="339.701172" xlink:href="#DejaVuSans-99"/>
      <use x="394.681641" xlink:href="#DejaVuSans-116"/>
      <use x="433.890625" xlink:href="#DejaVuSans-47"/>
      <use x="467.582031" xlink:href="#DejaVuSans-49"/>
      <use x="531.205078" xlink:href="#DejaVuSans-48"/>
      <use x="594.828125" xlink:href="#DejaVuSans-51"/>
      <use x="658.451172" xlink:href="#DejaVuSans-57"/>
     </g>
    </g>
   </g>
   <g id="line2d_45">
    <path clip-path="url(#pb3423ffce5)" d="M 76.5 448.186487 
L 76.5 370.869297 
L 78.769378 370.869297 
L 78.317241 351.446622 
L 78.146875 341.361771 
L 79.782353 341.361771 
L 79.348649 324.927199 
L 80.76018 324.927199 
L 80.553846 318.577478 
L 81.889773 318.577478 
L 81.844225 317.456939 
L 83.161517 317.456939 
L 83.069252 315.589374 
L 84.361326 315.589374 
L 84.233152 313.348296 
L 85.497561 313.348296 
L 85.401072 311.854244 
L 86.645455 311.854244 
L 86.591489 311.107218 
L 87.822812 311.107218 
L 87.703937 309.613167 
L 88.91623 309.613167 
L 88.538071 305.131011 
L 89.708354 305.131011 
L 89.510723 302.889933 
L 91.8 302.889933 
L 91.724444 302.142907 
L 92.855172 302.142907 
L 92.347733 297.287238 
L 94.525653 297.287238 
L 94.230841 294.672647 
L 95.295105 294.672647 
L 95.035862 292.431569 
L 96.081193 292.431569 
L 95.815385 290.190491 
L 99.895964 290.190491 
L 99.739644 289.069952 
L 101.739911 289.069952 
L 101.408534 286.828874 
L 102.389738 286.828874 
L 102.165584 285.334822 
L 104.099353 285.334822 
L 103.980901 284.587796 
L 105.890385 284.587796 
L 105.579704 282.720231 
L 107.454316 282.720231 
L 106.941615 279.732127 
L 107.858678 279.732127 
L 107.794021 279.358614 
L 108.705556 279.358614 
L 108.639425 278.985101 
L 109.545492 278.985101 
L 109.477914 278.611588 
L 111.27556 278.611588 
L 110.925 276.744023 
L 111.81006 276.744023 
L 111.668537 275.996997 
L 114.292829 275.996997 
L 114.068317 274.876458 
L 116.647441 274.876458 
L 116.25614 273.008893 
L 117.101556 273.008893 
L 117.022718 272.63538 
L 118.700774 272.63538 
L 118.619305 272.261867 
L 119.452023 272.261867 
L 119.28714 271.514841 
L 120.937285 271.514841 
L 120.768 270.767815 
L 122.4 270.767815 
L 122.226465 270.020789 
L 123.840678 270.020789 
L 123.663039 269.273763 
L 124.462921 269.273763 
L 124.017996 267.406198 
L 126.380258 267.406198 
L 125.924314 265.538633 
L 126.699635 265.538633 
L 126.33587 264.044581 
L 129.389568 264.044581 
L 129.294614 263.671068 
L 131.552679 263.671068 
L 131.356762 262.924042 
L 133.583894 262.924042 
L 133.483039 262.550529 
L 134.219048 262.550529 
L 133.71451 260.682964 
L 135.890609 260.682964 
L 135.378621 258.815399 
L 136.093632 258.815399 
L 135.991237 258.441886 
L 136.702744 258.441886 
L 136.496923 257.69486 
L 138.610714 257.69486 
L 138.505263 257.321347 
L 139.204068 257.321347 
L 139.09797 256.947834 
L 140.486509 256.947834 
L 139.951505 255.080269 
L 144.705124 255.080269 
L 144.592574 254.706756 
L 145.261779 254.706756 
L 145.035961 253.959731 
L 145.701148 253.959731 
L 145.587889 253.586218 
L 146.25 253.586218 
L 146.022801 252.839192 
L 149.292407 252.839192 
L 149.175 252.465679 
L 149.821739 252.465679 
L 149.703859 252.092166 
L 150.347673 252.092166 
L 150.229327 251.718653 
L 150.87024 251.718653 
L 150.751438 251.34514 
L 152.659459 251.34514 
L 152.538571 250.971627 
L 153.798892 250.971627 
L 153.192151 249.104062 
L 156.288785 249.104062 
L 156.040994 248.357036 
L 157.871406 248.357036 
L 157.745833 247.983523 
L 158.351464 247.983523 
L 157.974847 246.862984 
L 158.576417 246.862984 
L 158.450917 246.489471 
L 159.049924 246.489471 
L 158.79863 245.742445 
L 159.394377 245.742445 
L 159.268589 245.368932 
L 159.861818 245.368932 
L 159.60997 244.621906 
L 161.374737 244.621906 
L 161.247297 244.248393 
L 162.99417 244.248393 
L 162.736364 243.501367 
L 163.889599 243.501367 
L 163.759941 243.127854 
L 164.90503 243.127854 
L 164.774446 242.754341 
L 168.165593 242.754341 
L 167.764723 241.633802 
L 168.878198 241.633802 
L 168.744122 241.260289 
L 169.297826 241.260289 
L 169.163531 240.886776 
L 170.813256 240.886776 
L 170.407317 239.766237 
L 172.037571 239.766237 
L 171.494744 238.272185 
L 172.032766 238.272185 
L 171.627966 237.151646 
L 172.162764 237.151646 
L 172.028028 236.778133 
L 173.091994 236.778133 
L 172.956522 236.40462 
L 175.064435 236.40462 
L 174.790264 235.657594 
L 175.3125 235.657594 
L 174.90249 234.537055 
L 176.970702 234.537055 
L 176.557808 233.416516 
L 177.069767 233.416516 
L 176.795362 232.66949 
L 179.831935 232.66949 
L 179.692297 232.295977 
L 180.193117 232.295977 
L 180.053369 231.922464 
L 180.552355 231.922464 
L 180.27302 231.175438 
L 181.26506 231.175438 
L 181.125 230.801925 
L 181.618558 230.801925 
L 181.4784 230.428412 
L 182.949801 230.428412 
L 182.808621 230.054899 
L 189.045763 230.054899 
L 188.899219 229.681386 
L 189.369831 229.681386 
L 189.223247 229.307873 
L 192.94126 229.307873 
L 192.791784 228.93436 
L 193.250769 228.93436 
L 192.952174 228.187334 
L 201.87606 228.187334 
L 201.564179 227.440308 
L 203.722621 227.440308 
L 203.565556 227.066795 
L 203.993711 227.066795 
L 203.8367 226.693282 
L 205.113865 226.693282 
L 204.95625 226.319769 
L 205.801834 226.319769 
L 205.486463 225.572743 
L 207.162743 225.572743 
L 207.004364 225.19923 
L 209.486643 225.19923 
L 209.167347 224.452204 
L 209.576978 224.452204 
L 209.417605 224.078691 
L 209.825957 224.078691 
L 209.666667 223.705178 
L 210.073747 223.705178 
L 209.914541 223.331665 
L 210.725208 223.331665 
L 210.406762 222.584639 
L 211.61383 222.584639 
L 211.454309 222.211126 
L 213.049354 222.211126 
L 212.729191 221.4641 
L 213.914019 221.4641 
L 213.434109 220.343561 
L 216.547059 220.343561 
L 216.385714 219.970048 
L 218.301031 219.970048 
L 218.138787 219.596535 
L 218.518971 219.596535 
L 218.356849 219.223022 
L 219.491468 219.223022 
L 219.328977 218.849509 
L 219.705221 218.849509 
L 219.542857 218.475996 
L 221.038375 218.475996 
L 220.875423 218.102483 
L 221.246959 218.102483 
L 221.084139 217.72897 
L 222.193049 217.72897 
L 222.029899 217.355457 
L 222.397651 217.355457 
L 222.234637 216.981944 
L 222.601339 216.981944 
L 222.438462 216.608431 
L 222.80412 216.608431 
L 222.641379 216.234918 
L 224.095017 216.234918 
L 223.931748 215.861405 
L 224.292928 215.861405 
L 224.129801 215.487892 
L 224.489967 215.487892 
L 224.326982 215.114379 
L 225.044505 215.114379 
L 224.881449 214.740866 
L 229.466883 214.740866 
L 229.301514 214.367353 
L 230.685791 214.367353 
L 230.52 213.99384 
L 230.864017 213.99384 
L 230.698391 213.620327 
L 231.725455 213.620327 
L 231.559615 213.246814 
L 232.240299 213.246814 
L 232.074441 212.873301 
L 234.766948 212.873301 
L 234.6 212.499788 
L 235.265684 212.499788 
L 235.098738 212.126275 
L 236.749895 212.126275 
L 236.415344 211.379249 
L 236.74317 211.379249 
L 236.57625 211.005736 
L 237.55514 211.005736 
L 237.388071 210.632223 
L 239.005263 210.632223 
L 238.670546 209.885197 
L 241.537041 209.885197 
L 241.368807 209.511684 
L 241.68391 209.511684 
L 241.180812 208.391145 
L 242.433064 208.391145 
L 242.265455 208.017632 
L 244.124096 208.017632 
L 243.955968 207.644119 
L 244.8765 207.644119 
L 244.708292 207.270606 
L 245.926567 207.270606 
L 245.758151 206.897093 
L 246.665114 206.897093 
L 246.496634 206.52358 
L 247.098024 206.52358 
L 246.761538 205.776554 
L 247.360039 205.776554 
L 247.192035 205.403041 
L 247.787929 205.403041 
L 247.62 205.029528 
L 250.854704 205.029528 
L 250.685756 204.656015 
L 250.976283 204.656015 
L 250.807544 204.282502 
L 251.963584 204.282502 
L 251.794706 203.908989 
L 254.927143 203.908989 
L 254.587928 203.161963 
L 257.100566 203.161963 
L 256.760771 202.414937 
L 257.588274 202.414937 
L 257.418557 202.041424 
L 257.693258 202.041424 
L 257.523761 201.667911 
L 258.617055 201.667911 
L 258.278233 200.920885 
L 260.439058 200.920885 
L 260.269373 200.547372 
L 261.3375 200.547372 
L 261.167769 200.173859 
L 262.227722 200.173859 
L 262.057952 199.800346 
L 266.22 199.800346 
L 266.049235 199.426833 
L 269.091986 199.426833 
L 268.920641 199.053321 
L 270.665252 199.053321 
L 270.493728 198.679808 
L 270.988095 198.679808 
L 270.81674 198.306295 
L 271.063204 198.306295 
L 270.892084 197.932782 
L 273.574129 197.932782 
L 273.402611 197.559269 
L 273.643826 197.559269 
L 273.472546 197.185756 
L 274.910717 197.185756 
L 274.739378 196.812243 
L 275.926225 196.812243 
L 275.754897 196.43873 
L 277.399061 196.43873 
L 277.227645 196.065217 
L 286.474526 196.065217 
L 286.301565 195.691704 
L 287.602377 195.691704 
L 287.429484 195.318191 
L 290.625728 195.318191 
L 290.452627 194.944678 
L 294.594988 194.944678 
L 294.421622 194.571165 
L 297.84 194.571165 
L 297.666536 194.197652 
L 300.607668 194.197652 
L 300.434211 193.824139 
L 309.041704 193.824139 
L 308.868036 193.450626 
L 315.030786 193.450626 
L 314.857309 193.077113 
L 317.403453 193.077113 
L 317.230266 192.7036 
L 320.37766 192.7036 
L 320.204819 192.330087 
L 321.019068 192.330087 
L 320.846507 191.956574 
L 321.170613 191.956574 
L 320.826249 191.209548 
L 321.149473 191.209548 
L 320.806105 190.462522 
L 321.449895 190.462522 
L 321.278601 190.089009 
L 322.8725 190.089009 
L 322.701527 189.715496 
L 327.505231 189.715496 
L 327.334827 189.341983 
L 331.064219 189.341983 
L 330.894396 188.96847 
L 331.916534 188.96847 
L 331.747047 188.594957 
L 332.61573 188.594957 
L 332.446565 188.221444 
L 333.451479 188.221444 
L 333.282654 187.847931 
L 338.581154 187.847931 
L 338.413261 187.474418 
L 339.765181 187.474418 
L 339.59771 187.100905 
L 340.133756 187.100905 
L 339.966582 186.727392 
L 344.799814 186.727392 
L 344.633684 186.353879 
L 346.405525 186.353879 
L 346.239939 185.980366 
L 352.328036 185.980366 
L 352.16395 185.606853 
L 352.282045 185.606853 
L 355.418373 185.606853 
L 355.255263 185.23334 
L 355.36955 185.23334 
L 355.71161 185.23334 
L 355.548805 184.859827 
L 355.662587 184.859827 
L 356.003141 184.859827 
L 355.84064 184.486314 
L 355.953922 184.486314 
L 357.6375 184.486314 
L 357.475648 184.112801 
L 357.586881 184.112801 
L 358.251606 184.112801 
L 358.090143 183.739288 
L 358.200515 183.739288 
L 360.812034 183.739288 
L 360.651496 183.365775 
L 360.758804 183.365775 
L 363.506897 183.365775 
L 363.34736 182.992262 
L 363.4515 182.992262 
L 366.119113 182.992262 
L 365.960591 182.618749 
L 366.061707 182.618749 
L 367.166721 182.618749 
L 367.00875 182.245236 
L 367.108582 182.245236 
L 370.6317 182.245236 
L 370.47508 181.871723 
L 370.571048 181.871723 
L 372.09277 181.871723 
L 371.936867 181.49821 
L 372.031154 181.49821 
L 373.526346 181.49821 
L 373.30882 180.751184 
L 377.910778 180.751184 
L 377.757622 180.377671 
L 377.845505 180.377671 
L 380.013942 180.377671 
L 379.70982 179.630645 
L 379.795493 179.630645 
L 384.216585 179.630645 
L 384.066553 179.257132 
L 384.147807 179.257132 
L 392.846051 179.257132 
L 392.7 178.883619 
L 392.772958 178.883619 
L 394.859836 178.883619 
L 394.714929 178.510106 
L 394.785942 178.510106 
L 394.998592 178.510106 
L 394.853951 178.136593 
L 394.924739 178.136593 
L 396.048671 178.136593 
L 395.90473 177.76308 
L 395.974471 177.76308 
L 397.21916 177.76308 
L 397.075982 177.389567 
L 397.144578 177.389567 
L 398.503759 177.389567 
L 398.361406 177.016054 
L 398.428767 177.016054 
L 404.319074 177.016054 
L 404.179873 176.642541 
L 404.242105 176.642541 
L 405.659016 176.642541 
L 405.520714 176.269028 
L 405.58173 176.269028 
L 406.731375 176.269028 
L 406.593836 175.895515 
L 406.653872 175.895515 
L 415.179553 175.895515 
L 414.967606 175.148489 
L 415.020727 175.148489 
L 418.939916 175.148489 
L 418.809909 174.774976 
L 418.910053 174.774976 
L 422.889073 174.774976 
L 422.761677 174.401463 
L 422.855788 174.401463 
L 426.109384 174.401463 
L 425.984211 174.02795 
L 426.073524 174.02795 
L 426.95968 174.02795 
L 426.835227 173.654437 
L 426.923208 173.654437 
L 427.404878 173.654437 
L 427.280883 173.280924 
L 427.368114 173.280924 
L 427.62907 173.280924 
L 427.505389 172.907411 
L 427.592186 172.907411 
L 429.218409 172.907411 
L 429.095938 172.533898 
L 429.180396 172.533898 
L 429.222581 172.533898 
L 429.100277 172.160385 
L 429.184615 172.160385 
L 429.436929 172.160385 
L 429.314933 171.786872 
L 429.39886 171.786872 
L 439.297367 171.786872 
L 439.182303 171.413359 
L 439.288403 171.413359 
L 439.5 171.413359 
L 439.385236 171.039846 
L 439.490809 171.039846 
L 441.391462 171.039846 
L 441.278212 170.666333 
L 441.380093 170.666333 
L 442.58804 170.666333 
L 442.475812 170.29282 
L 442.575345 170.29282 
L 444.528271 170.29282 
L 444.417619 169.919307 
L 444.513488 169.919307 
L 450.593883 169.919307 
L 450.487967 169.545794 
L 450.601442 169.545794 
L 450.629771 169.545794 
L 450.524025 169.172281 
L 450.637267 169.172281 
L 456.469662 169.172281 
L 456.36866 168.798768 
L 456.468959 168.798768 
L 456.544044 168.798768 
L 456.443236 168.425255 
L 456.543243 168.425255 
L 459.611843 168.425255 
L 459.51366 168.051742 
L 459.607143 168.051742 
L 462.588187 168.051742 
L 462.492597 167.678229 
L 462.60178 167.678229 
L 462.992614 167.678229 
L 462.89749 167.304716 
L 463.005531 167.304716 
L 464.469833 167.304716 
L 464.376075 166.931203 
L 464.480377 166.931203 
L 466.255745 166.931203 
L 466.163626 166.55769 
L 466.263527 166.55769 
L 468.949371 166.55769 
L 468.859689 166.184177 
L 468.971885 166.184177 
L 469.546703 166.184177 
L 469.457657 165.810664 
L 469.568077 165.810664 
L 472.268701 165.810664 
L 472.182156 165.437151 
L 472.285171 165.437151 
L 473.015621 165.437151 
L 472.929851 165.063638 
L 473.030784 165.063638 
L 473.248578 165.063638 
L 473.163127 164.690125 
L 473.263325 164.690125 
L 473.908362 164.690125 
L 473.823608 164.316612 
L 473.921981 164.316612 
L 474.003766 164.316612 
L 473.919209 163.943099 
L 474.017208 163.943099 
L 474.422866 163.943099 
L 474.335514 163.196073 
L 474.367771 163.196073 
L 474.383889 163.196073 
L 474.3 162.82256 
L 474.412737 162.82256 
L 475.443925 162.82256 
L 475.361088 162.449047 
L 475.470578 162.449047 
L 479.729225 162.449047 
L 479.650362 162.075534 
L 479.761511 162.075534 
L 480.746447 162.075534 
L 480.668618 161.702021 
L 480.776471 161.702021 
L 481.666882 161.702021 
L 481.666882 161.702021 
" style="fill:none;stroke:#1f77b4;stroke-linecap:square;stroke-width:2;"/>
   </g>
   <g id="line2d_46">
    <path clip-path="url(#pb3423ffce5)" d="M 76.5 448.186487 
L 76.5 445.945409 
L 135.7875 445.945409 
L 123.93 445.198383 
L 116.025 444.451357 
L 110.378571 443.704331 
L 106.14375 442.957305 
L 102.85 442.210279 
L 99.085714 441.08974 
L 96.2625 439.969201 
L 94.066667 438.848662 
L 92.31 437.728123 
L 90.45 436.234071 
L 103.602857 436.234071 
L 100.823077 434.740019 
L 98.560465 433.245967 
L 96.682979 431.751915 
L 95.859184 431.004889 
L 104.958 431.004889 
L 104.4 430.631376 
L 112.984615 430.631376 
L 110.378571 429.137324 
L 108.655932 428.016785 
L 130.05 428.016785 
L 126.053731 426.14922 
L 125.325 425.775707 
L 143.302817 425.775707 
L 142.375 425.402194 
L 147.969863 425.402194 
L 146.064 424.655168 
L 156.576623 424.655168 
L 155.55 424.281655 
L 165.43125 424.281655 
L 163.262195 423.534629 
L 167.931325 423.534629 
L 166.842857 423.161116 
L 171.36 423.161116 
L 170.256977 422.787603 
L 174.631034 422.787603 
L 173.515909 422.41409 
L 177.755056 422.41409 
L 172.369149 420.546526 
L 169.404124 419.425987 
L 177.109091 419.425987 
L 172.272115 417.558422 
L 179.414151 417.558422 
L 173.900893 415.317344 
L 180.513158 415.317344 
L 177.846154 414.196805 
L 184.114286 414.196805 
L 182.335537 413.449779 
L 185.355738 413.449779 
L 184.470732 413.076266 
L 187.425 413.076266 
L 186.5376 412.702753 
L 205.854545 412.702753 
L 202.98 411.582214 
L 205.5375 411.582214 
L 204.59562 411.208701 
L 207.104348 411.208701 
L 206.164748 410.835188 
L 211.053191 410.835188 
L 210.105634 410.461675 
L 212.488112 410.461675 
L 211.54375 410.088162 
L 213.883448 410.088162 
L 209.304 408.220597 
L 211.565563 408.220597 
L 210.676974 407.847084 
L 231.672222 407.847084 
L 229.779878 407.100058 
L 237.423214 407.100058 
L 236.471006 406.726545 
L 238.32 406.726545 
L 237.373684 406.353032 
L 240.99711 406.353032 
L 238.193182 405.232493 
L 251.784783 405.232493 
L 250.837297 404.85898 
L 261.773438 404.85898 
L 260.813472 404.485467 
L 263.787692 404.485467 
L 262.832143 404.111954 
L 265.740909 404.111954 
L 264.78995 403.738441 
L 267.635821 403.738441 
L 266.689604 403.364928 
L 268.089163 403.364928 
L 267.15 402.991415 
L 287.779091 402.991415 
L 286.823077 402.617902 
L 289.190583 402.617902 
L 288.241071 402.244389 
L 289.408 402.244389 
L 288.465929 401.870876 
L 293.028261 401.870876 
L 292.090909 401.497363 
L 297.572034 401.497363 
L 296.639241 401.12385 
L 304.938367 401.12385 
L 304.009756 400.750337 
L 306 400.750337 
L 304.164 400.003311 
L 312.734363 400.003311 
L 311.825769 399.629798 
L 321.52583 399.629798 
L 319.730769 398.882772 
L 320.574088 398.882772 
L 319.686545 398.509259 
L 323.813571 398.509259 
L 322.933452 398.135746 
L 325.340493 398.135746 
L 324.467368 397.762233 
L 328.369655 397.762233 
L 327.504124 397.38872 
L 330.531864 397.38872 
L 328.821212 396.641694 
L 333.216832 396.641694 
L 332.372368 396.268181 
L 337.973077 396.268181 
L 337.1377 395.894668 
L 339.166139 395.894668 
L 338.337539 395.521155 
L 339.00566 395.521155 
L 338.182759 395.147642 
L 348.337612 395.147642 
L 347.528571 394.774129 
L 348.131751 394.774129 
L 347.328107 394.400616 
L 348.525 394.400616 
L 347.727273 394.027103 
L 352.949143 394.027103 
L 350.599717 392.906564 
L 357.181644 392.906564 
L 356.414754 392.533051 
L 362.585714 392.533051 
L 361.830871 392.159538 
L 366.214175 392.159538 
L 365.469409 391.786025 
L 366.887755 391.786025 
L 366.148855 391.412512 
L 367.083797 391.412512 
L 366.35 391.038999 
L 373.081752 391.038999 
L 372.361893 390.665486 
L 373.223913 390.665486 
L 371.797356 389.91846 
L 378.825173 389.91846 
L 378.128571 389.544947 
L 378.920642 389.544947 
L 378.228604 389.171434 
L 381.331011 389.171434 
L 380.647534 388.797921 
L 381.028188 388.797921 
L 380.348438 388.424408 
L 381.106 388.424408 
L 380.430599 388.050895 
L 383.4 388.050895 
L 382.732826 387.677382 
L 383.46039 387.677382 
L 382.797408 387.303869 
L 384.946695 387.303869 
L 384.290426 386.930356 
L 388.435892 386.930356 
L 387.790062 386.556843 
L 393.016834 386.556843 
L 392.3838 386.18333 
L 397.88861 386.18333 
L 397.269364 385.809817 
L 403.512754 385.809817 
L 402.90941 385.436304 
L 404.52865 385.436304 
L 403.931148 385.062791 
L 410.327875 385.062791 
L 409.16875 384.315765 
L 409.902591 384.315765 
L 409.327759 383.942252 
L 411.014821 383.942252 
L 410.445918 383.568739 
L 410.684211 383.568739 
L 410.117797 383.195226 
L 415.616775 383.195226 
L 415.065366 382.821713 
L 423.742466 382.821713 
L 423.214742 382.4482 
L 425.124701 382.4482 
L 424.08403 381.701174 
L 424.272876 381.701174 
L 424.461161 381.701174 
L 423.428635 380.954148 
L 427.98412 380.954148 
L 427.482 380.580635 
L 427.657917 380.580635 
L 429.047391 380.580635 
L 428.550845 380.207122 
L 428.722785 380.207122 
L 430.748963 380.207122 
L 430.259669 379.833609 
L 430.425931 379.833609 
L 431.08642 379.833609 
L 430.600685 379.460096 
L 430.765116 379.460096 
L 430.929098 379.460096 
L 430.445566 379.086583 
L 430.609537 379.086583 
L 433.797613 379.086583 
L 433.324371 378.71307 
L 433.479762 378.71307 
L 435.162321 378.71307 
L 434.695313 378.339557 
L 434.846294 378.339557 
L 440.715556 378.339557 
L 439.818473 377.592531 
L 439.954982 377.592531 
L 442.616327 377.592531 
L 441.869856 376.845505 
L 450.175028 376.845505 
L 449.762583 376.471992 
L 449.87398 376.471992 
L 450.646937 376.471992 
L 450.238033 376.098479 
L 450.347817 376.098479 
L 451.217532 376.098479 
L 450.812432 375.724966 
L 450.92041 375.724966 
L 453.238291 375.724966 
L 452.841307 375.351453 
L 452.944421 375.351453 
L 454.565217 375.351453 
L 454.17425 374.97794 
L 454.27407 374.97794 
L 455.065266 374.97794 
L 454.291104 374.230914 
L 454.389683 374.230914 
L 454.976954 374.230914 
L 454.593103 373.857401 
L 454.690578 373.857401 
L 458.613411 373.857401 
L 458.242427 373.483888 
L 458.332202 373.483888 
L 460.264103 373.483888 
L 459.9 373.110375 
L 459.986161 373.110375 
L 461.841226 373.110375 
L 461.483766 372.736862 
L 461.566543 372.736862 
L 461.731637 372.736862 
L 461.375601 372.363349 
L 461.458172 372.363349 
L 464.255098 372.363349 
L 463.908579 371.989836 
L 463.986161 371.989836 
L 464.982259 371.989836 
L 464.639683 371.616323 
L 464.715595 371.616323 
L 465.243257 371.616323 
L 464.90315 371.24281 
L 465.053188 371.24281 
L 465.869118 371.24281 
L 465.270492 370.495784 
L 465.344224 370.495784 
L 466.146968 370.495784 
L 465.814505 370.122271 
L 465.959284 370.122271 
L 467.728274 370.122271 
L 467.40225 369.748758 
L 467.541015 369.748758 
L 470.35201 369.748758 
L 470.035663 369.375245 
L 470.165196 369.375245 
L 471.874097 369.375245 
L 471.564 369.001732 
L 471.688097 369.001732 
L 471.935129 369.001732 
L 471.626677 368.628219 
L 471.75 368.628219 
L 472.117674 368.628219 
L 471.811232 368.254706 
L 471.933411 368.254706 
L 472.115972 368.254706 
L 471.810948 367.881193 
L 471.932564 367.881193 
L 472.295172 367.881193 
L 471.81039 367.134167 
L 471.991006 367.134167 
L 471.689794 366.760654 
L 471.810114 366.760654 
L 472.049659 366.760654 
L 471.75 366.387141 
L 471.869592 366.387141 
L 472.107692 366.387141 
L 471.80957 366.013628 
L 471.928442 366.013628 
L 472.106081 366.013628 
L 471.809302 365.640115 
L 471.92764 365.640115 
L 472.861732 365.640115 
L 472.568565 365.266603 
L 472.684121 365.266603 
L 472.856817 365.266603 
L 472.564948 364.89309 
L 472.68 364.89309 
L 473.363265 364.89309 
L 473.074217 364.519577 
L 473.187273 364.519577 
L 474.518728 364.519577 
L 474.234429 364.146064 
L 474.343652 364.146064 
L 474.506904 364.146064 
L 474.223826 363.772551 
L 474.332599 363.772551 
L 475.085443 363.772551 
L 474.805341 363.399038 
L 474.912 363.399038 
L 475.388285 363.399038 
L 475.110314 363.025525 
L 475.215658 363.025525 
L 478.630764 363.025525 
L 478.363745 362.652012 
L 478.459814 362.652012 
L 478.555629 362.652012 
L 478.289543 362.278499 
L 478.385393 362.278499 
L 478.433223 362.278499 
L 478.167921 361.904986 
L 478.263678 361.904986 
L 479.114267 361.904986 
L 478.852148 361.531473 
L 478.945709 361.531473 
L 481.470075 361.531473 
L 480.796998 360.410934 
L 480.84075 360.410934 
L 482.128344 360.410934 
L 481.879644 360.037421 
L 482.006181 360.037421 
L 482.383019 360.037421 
L 482.136131 359.663908 
L 482.261202 359.663908 
L 482.34433 359.663908 
L 482.098364 359.290395 
L 482.223049 359.290395 
L 483.882822 359.290395 
L 483.642478 358.916882 
L 483.761131 358.916882 
L 484.075498 358.916882 
L 483.836731 358.543369 
L 483.954211 358.543369 
L 484.458561 358.543369 
L 484.221926 358.169856 
L 484.33758 358.169856 
L 484.947676 358.169856 
L 484.713475 357.796343 
L 484.826961 357.796343 
L 485.462755 357.796343 
L 485.231048 357.42283 
L 485.342308 357.42283 
L 486.002016 357.42283 
L 485.77286 357.049317 
L 485.881844 357.049317 
L 486.2425 357.049317 
L 486.014992 356.675804 
L 486.122727 356.675804 
L 487.56 356.675804 
L 487.337324 356.302291 
L 487.440292 356.302291 
L 488.151818 356.302291 
L 487.931801 355.928778 
L 488.032444 355.928778 
L 488.56381 355.928778 
L 488.128224 355.181752 
L 488.227441 355.181752 
L 488.457729 355.181752 
L 488.241251 354.808239 
L 488.339717 354.808239 
L 488.698122 354.808239 
L 488.483212 354.434726 
L 488.580531 354.434726 
L 490.035587 354.434726 
L 489.825457 354.061213 
L 489.949138 354.061213 
L 490.01079 354.061213 
L 489.801418 353.6877 
L 489.924709 353.6877 
L 491.395562 353.6877 
L 491.191079 353.314187 
L 491.308362 353.314187 
L 493.452205 353.314187 
L 493.254597 352.940674 
L 493.363482 352.940674 
L 493.741353 352.940674 
L 493.545373 352.567161 
L 493.652743 352.567161 
L 493.892857 352.567161 
L 493.698087 352.193648 
L 493.804471 352.193648 
L 494.042393 352.193648 
L 493.848818 351.820135 
L 493.954234 351.820135 
L 495.7625 351.820135 
L 495.574742 351.446622 
L 495.698123 351.446622 
L 496.426984 351.446622 
L 496.153298 350.699596 
L 496.177319 350.699596 
L 496.392557 350.699596 
L 496.208796 350.326083 
L 496.327991 350.326083 
L 496.351768 350.326083 
L 496.168586 349.95257 
L 496.287505 349.95257 
L 496.334928 349.95257 
L 496.065163 349.205544 
L 496.088899 349.205544 
L 498.319218 349.205544 
L 498.143825 348.832031 
L 498.253071 348.832031 
L 498.340141 348.832031 
L 498.165466 348.458518 
L 498.274215 348.458518 
L 498.554871 348.458518 
L 498.381471 348.085005 
L 498.48893 348.085005 
L 498.57458 348.085005 
L 498.272293 347.337979 
L 498.336612 347.337979 
L 499.05471 347.337979 
L 498.884668 346.964466 
L 498.988916 346.964466 
L 500.028808 346.964466 
L 499.862195 346.590953 
L 499.982143 346.590953 
L 500.299259 346.590953 
L 499.988742 345.843927 
L 500.087519 345.843927 
L 500.107229 345.843927 
L 499.877093 345.096901 
L 499.896823 345.096901 
L 500.327046 345.096901 
L 500.001651 344.349875 
L 500.118384 344.349875 
L 500.369474 344.349875 
L 500.104564 343.602849 
L 500.162348 343.602849 
L 500.258362 343.602849 
L 500.097726 343.229336 
L 500.212784 343.229336 
L 500.948118 343.229336 
L 500.706582 342.48231 
L 500.743813 342.48231 
L 501.021286 342.48231 
L 500.864463 342.108797 
L 500.974899 342.108797 
L 502.228135 342.108797 
L 502.075216 341.735284 
L 502.18 341.735284 
L 502.663094 341.735284 
L 502.511919 341.361771 
L 502.631529 341.361771 
L 502.682609 341.361771 
L 502.532014 340.988258 
L 502.65111 340.988258 
L 502.837079 340.988258 
L 502.687434 340.614745 
L 502.805357 340.614745 
L 503.353583 340.614745 
L 503.107775 339.867719 
L 503.173602 339.867719 
L 503.885894 339.867719 
L 503.740673 339.494206 
L 503.852339 339.494206 
L 504.604003 339.494206 
L 503.842724 337.253128 
L 503.858319 337.253128 
L 504.549542 337.253128 
L 504.409519 336.879615 
L 504.515503 336.879615 
L 505.404449 336.879615 
L 505.2672 336.506102 
L 505.383466 336.506102 
L 505.785764 336.506102 
L 505.65 336.132589 
L 505.763943 336.132589 
L 505.792339 336.132589 
L 505.657044 335.759076 
L 505.770575 335.759076 
L 506.177383 335.759076 
L 506.021366 335.01205 
L 506.746471 335.01205 
L 506.615058 334.638537 
L 506.722761 334.638537 
L 507.240379 334.638537 
L 507.110716 334.265024 
L 507.215676 334.265024 
L 507.50173 334.265024 
L 507.3225 333.517998 
L 507.361285 333.517998 
L 508.493484 333.517998 
L 508.329463 332.770972 
L 508.353984 332.770972 
L 509.041125 332.770972 
L 508.918313 332.397459 
L 509.025064 332.397459 
L 509.072334 332.397459 
L 508.910638 331.650433 
L 508.934264 331.650433 
L 508.946067 331.650433 
L 508.824183 331.27692 
L 508.930391 331.27692 
L 509.499334 331.27692 
L 509.37929 330.903407 
L 509.493807 330.903407 
L 509.596332 330.903407 
L 509.476923 330.529894 
L 509.590542 330.529894 
L 509.624505 330.529894 
L 509.505548 330.156381 
L 509.618652 330.156381 
L 510.240761 330.156381 
L 510.123786 329.782868 
L 510.23319 329.782868 
L 510.590083 329.782868 
L 510.474387 329.409355 
L 510.581579 329.409355 
L 510.847082 329.409355 
L 510.723585 328.662329 
L 512.118521 328.662329 
L 511.995821 327.915303 
L 512.005647 327.915303 
L 512.991782 327.915303 
L 512.832635 327.168277 
L 512.888662 327.168277 
L 513.439966 327.168277 
L 513.334093 326.794764 
L 513.442716 326.794764 
L 513.667003 326.794764 
L 513.562041 326.421251 
L 513.669021 326.421251 
L 513.960071 326.421251 
L 513.856186 326.047738 
L 513.969886 326.047738 
L 514.074221 326.047738 
L 513.885142 325.300712 
L 513.980663 325.300712 
L 514.247221 325.300712 
L 513.983706 324.180173 
L 514.052234 324.180173 
L 514.154548 324.180173 
L 514.053027 323.80666 
L 514.163506 323.80666 
L 514.197366 323.80666 
L 513.936739 322.686121 
L 514.004627 322.686121 
L 514.563523 322.686121 
L 514.41446 321.939095 
L 514.472006 321.939095 
L 514.989822 321.939095 
L 514.906458 321.192069 
L 515.509513 321.192069 
L 515.356667 320.445043 
L 515.426027 320.445043 
L 515.472117 320.445043 
L 515.289258 319.698017 
L 515.389158 319.698017 
L 515.677978 319.698017 
L 515.471147 318.577478 
L 515.508916 318.577478 
L 515.561657 318.577478 
L 515.449702 317.830452 
L 515.487301 317.830452 
L 515.547292 317.830452 
L 515.454076 317.456939 
L 515.566286 317.456939 
L 515.62584 317.456939 
L 515.53308 317.083426 
L 515.644473 317.083426 
L 515.799245 317.083426 
L 515.707168 316.709913 
L 515.817154 316.709913 
L 515.875532 316.709913 
L 515.692306 315.962887 
L 515.801767 315.962887 
L 515.925 315.962887 
L 515.834003 315.589374 
L 515.942279 315.589374 
L 515.999753 315.589374 
L 515.883405 314.842348 
L 515.926433 314.842348 
L 516.385853 314.842348 
L 516.291512 314.095322 
L 516.319386 314.095322 
L 516.437352 314.095322 
L 516.348833 313.721809 
L 516.459386 313.721809 
L 516.630712 313.721809 
L 516.470074 312.60127 
L 516.476899 312.60127 
L 517.393421 312.60127 
L 517.308125 312.227757 
L 517.417914 312.227757 
L 517.424349 312.227757 
L 517.33936 311.854244 
L 517.448646 311.854244 
L 517.853748 311.854244 
L 517.853748 311.854244 
" style="fill:none;stroke:#ff7f0e;stroke-linecap:square;stroke-width:2;"/>
   </g>
   <g id="line2d_47">
    <path clip-path="url(#pb3423ffce5)" d="M 76.5 448.186487 
L 76.5 392.906564 
L 82.782119 392.906564 
L 81.983237 384.689278 
L 81.545745 379.086583 
L 84.028571 379.086583 
L 83.834536 377.219018 
L 86.229231 377.219018 
L 86.130457 376.471992 
L 88.477273 376.471992 
L 88.125 374.230914 
L 90.381951 374.230914 
L 89.987204 371.989836 
L 92.160849 371.989836 
L 90.935217 365.266603 
L 94.899569 365.266603 
L 94.360669 362.652012 
L 96.2625 362.652012 
L 96.018519 361.531473 
L 97.882377 361.531473 
L 96.337643 354.434726 
L 99.767547 354.434726 
L 99.680075 354.061213 
L 103.046642 354.061213 
L 102.85 353.314187 
L 104.502952 353.314187 
L 104.4 352.940674 
L 106.035165 352.940674 
L 105.503957 351.073109 
L 107.1 351.073109 
L 106.561268 349.205544 
L 108.12 349.205544 
L 106.241584 342.48231 
L 105.95 341.361771 
L 107.399023 341.361771 
L 107.298701 340.988258 
L 110.16 340.988258 
L 109.73121 339.494206 
L 112.522785 339.494206 
L 112.184013 338.373667 
L 113.554688 338.373667 
L 113.439252 338.000154 
L 116.147368 338.000154 
L 115.903385 337.253128 
L 117.237423 337.253128 
L 116.989024 336.506102 
L 118.307599 336.506102 
L 117.929819 335.385563 
L 121.806269 335.385563 
L 121.14 333.517998 
L 122.4 333.517998 
L 121.736705 331.650433 
L 122.973199 331.650433 
L 122.839655 331.27692 
L 124.065903 331.27692 
L 123.660511 330.156381 
L 124.870538 330.156381 
L 124.462921 329.035842 
L 131.529282 329.035842 
L 131.377686 328.662329 
L 133.67589 328.662329 
L 133.364305 327.915303 
L 134.498641 327.915303 
L 133.114058 324.553686 
L 135.318206 324.553686 
L 134.401558 322.312608 
L 135.480311 322.312608 
L 135.327907 321.939095 
L 136.398711 321.939095 
L 136.24473 321.565582 
L 138.365217 321.565582 
L 137.584091 319.698017 
L 138.624937 319.698017 
L 138.005237 318.203965 
L 140.053846 318.203965 
L 139.896535 317.830452 
L 140.911111 317.830452 
L 140.594595 317.083426 
L 141.6 317.083426 
L 141.124818 315.962887 
L 143.108717 315.962887 
L 142.947826 315.589374 
L 143.930602 315.589374 
L 143.607194 314.842348 
L 144.58134 314.842348 
L 144.257143 314.095322 
L 147.140426 314.095322 
L 146.973821 313.721809 
L 151.68042 313.721809 
L 151.505581 313.348296 
L 152.432019 313.348296 
L 152.25625 312.974783 
L 153.176674 312.974783 
L 153 312.60127 
L 153.914483 312.60127 
L 153.736927 312.227757 
L 157.346591 312.227757 
L 157.163265 311.854244 
L 161.576233 311.854244 
L 160.82 310.360192 
L 163.402649 310.360192 
L 163.211233 309.986679 
L 164.063077 309.986679 
L 163.679869 309.239654 
L 164.525109 309.239654 
L 164.333333 308.866141 
L 166.009978 308.866141 
L 165.816234 308.492628 
L 172.369149 308.492628 
L 172.165605 308.119115 
L 176.142857 308.119115 
L 175.725941 307.372089 
L 178.065281 307.372089 
L 177.854564 306.998576 
L 179.395661 306.998576 
L 178.761807 305.878037 
L 181.792668 305.878037 
L 181.578659 305.504524 
L 188.211377 305.504524 
L 187.988845 305.131011 
L 189.428571 305.131011 
L 189.20495 304.757498 
L 189.919565 304.757498 
L 189.03 303.263446 
L 189.737965 303.263446 
L 189.516797 302.889933 
L 192.317442 302.889933 
L 192.093424 302.51642 
L 194.847409 302.51642 
L 194.62069 302.142907 
L 199.333837 302.142907 
L 199.102075 301.769394 
L 203.686592 301.769394 
L 203.214657 301.022368 
L 205.775138 301.022368 
L 205.5375 300.648855 
L 208.681967 300.648855 
L 208.202178 299.901829 
L 209.44123 299.901829 
L 209.201264 299.528316 
L 211.041113 299.528316 
L 210.8 299.154803 
L 213.219929 299.154803 
L 212.977087 298.78129 
L 214.17292 298.78129 
L 213.929682 298.407777 
L 216.87951 298.407777 
L 216.634091 298.034264 
L 221.810499 298.034264 
L 221.560825 297.660751 
L 222.688356 297.660751 
L 222.438462 297.287238 
L 224.113776 297.287238 
L 223.61339 296.540212 
L 226.362857 296.540212 
L 226.111409 296.166699 
L 227.197324 296.166699 
L 226.945743 295.793186 
L 233.306219 295.793186 
L 232.794617 295.04616 
L 233.312541 295.04616 
L 233.057561 294.672647 
L 235.110824 294.672647 
L 234.855 294.299134 
L 236.376404 294.299134 
L 236.120192 293.925621 
L 241.083596 293.925621 
L 240.824409 293.552108 
L 242.281975 293.552108 
L 242.022535 293.178595 
L 246.311111 293.178595 
L 246.049461 292.805082 
L 247.916233 292.805082 
L 247.654128 292.431569 
L 248.116947 292.431569 
L 247.855335 292.058056 
L 248.77614 292.058056 
L 248.514719 291.684543 
L 251.242105 291.684543 
L 250.97973 291.31103 
L 251.877395 291.31103 
L 251.615247 290.937517 
L 254.713314 290.937517 
L 254.450074 290.564004 
L 256.190749 290.564004 
L 255.927273 290.190491 
L 257.646647 290.190491 
L 257.382969 289.816978 
L 258.234688 289.816978 
L 257.971304 289.443465 
L 259.238961 289.443465 
L 258.975648 289.069952 
L 259.814224 289.069952 
L 259.288968 288.322926 
L 261.362304 288.322926 
L 261.099716 287.949413 
L 261.920397 287.949413 
L 261.658133 287.5759 
L 263.28481 287.5759 
L 263.022472 287.202387 
L 268.96011 287.202387 
L 268.695742 286.828874 
L 269.46863 286.828874 
L 269.204651 286.455361 
L 270.737143 286.455361 
L 270.473234 286.081848 
L 276.072304 286.081848 
L 275.542231 285.334822 
L 276.996697 285.334822 
L 276.73219 284.961309 
L 278.884555 284.961309 
L 278.62 284.587796 
L 279.683203 284.587796 
L 279.418986 284.214283 
L 281.52 284.214283 
L 281.255799 283.84077 
L 282.638077 283.84077 
L 282.374136 283.467257 
L 283.05977 283.467257 
L 282.796301 283.093744 
L 285.503409 283.093744 
L 285.239849 282.720231 
L 286.572647 282.720231 
L 286.309398 282.346718 
L 286.640426 282.346718 
L 286.37775 281.973205 
L 292.827073 281.973205 
L 292.563581 281.599692 
L 293.19113 281.599692 
L 292.928155 281.226179 
L 293.552542 281.226179 
L 293.290085 280.852666 
L 298.476896 280.852666 
L 298.214201 280.479153 
L 299.995065 280.479153 
L 299.732746 280.10564 
L 300.905958 280.10564 
L 300.644107 279.732127 
L 303.814286 279.732127 
L 303.552704 279.358614 
L 306.08713 279.358614 
L 305.825939 278.985101 
L 311.009131 278.985101 
L 310.748276 278.611588 
L 311.811628 278.611588 
L 311.551327 278.238075 
L 316.982919 278.238075 
L 316.723218 277.864562 
L 316.975728 277.864562 
L 316.458019 277.117536 
L 321.154747 277.117536 
L 320.896944 276.744023 
L 321.138947 276.744023 
L 320.881703 276.37051 
L 321.364218 276.37051 
L 321.107547 275.996997 
L 321.827586 275.996997 
L 321.571503 275.623484 
L 323.234301 275.623484 
L 322.978882 275.249971 
L 323.214478 275.249971 
L 322.959607 274.876458 
L 328.471875 274.876458 
L 328.218127 274.502945 
L 329.333267 274.502945 
L 328.8276 273.755919 
L 329.270659 273.755919 
L 329.018644 273.382406 
L 329.239542 273.382406 
L 328.98806 273.008893 
L 330.522332 273.008893 
L 330.27157 272.63538 
L 331.785 272.63538 
L 331.285421 271.888354 
L 332.141228 271.888354 
L 331.892308 271.514841 
L 332.105253 271.514841 
L 331.856851 271.141328 
L 332.704647 271.141328 
L 332.456867 270.767815 
L 333.088525 270.767815 
L 332.841329 270.394302 
L 333.260481 270.394302 
L 333.013833 270.020789 
L 336.310501 270.020789 
L 336.064934 269.647276 
L 337.275846 269.647276 
L 337.030986 269.273763 
L 338.62479 269.273763 
L 338.380726 268.90025 
L 343.21283 268.90025 
L 342.970364 268.526737 
L 344.09783 268.526737 
L 343.856098 268.153224 
L 344.415405 268.153224 
L 344.174257 267.779711 
L 344.545553 267.779711 
L 344.304937 267.406198 
L 346.324 267.406198 
L 346.084369 267.032685 
L 349.832432 267.032685 
L 349.594338 266.659172 
L 352.87018 266.659172 
L 352.397348 265.912146 
L 353.578316 265.912146 
L 353.342906 265.538633 
L 353.844915 265.538633 
L 353.610076 265.16512 
L 355.265743 265.16512 
L 355.031879 264.791607 
L 355.523347 264.791607 
L 355.29005 264.418094 
L 355.453383 264.418094 
L 355.220534 264.044581 
L 355.871381 264.044581 
L 355.639152 263.671068 
L 356.124627 263.671068 
L 355.892958 263.297555 
L 360.619887 263.297555 
L 360.390388 262.924042 
L 363.268496 262.924042 
L 362.812947 262.177016 
L 363.556566 262.177016 
L 363.329644 261.803503 
L 363.625572 261.803503 
L 363.399132 261.42999 
L 363.546809 261.42999 
L 363.320787 261.056477 
L 364.494366 261.056477 
L 364.269195 260.682964 
L 364.995561 260.682964 
L 364.771051 260.309451 
L 367.481595 260.309451 
L 367.258621 259.935938 
L 367.819481 259.935938 
L 367.375057 259.188912 
L 369.313132 259.188912 
L 369.092308 258.815399 
L 369.229239 258.815399 
L 369.00881 258.441886 
L 369.28218 258.441886 
L 369.062209 258.068373 
L 375.768886 258.068373 
L 375.552495 257.69486 
L 375.679118 257.69486 
L 376.935366 257.69486 
L 376.72 257.321347 
L 376.844699 257.321347 
L 377.589158 257.321347 
L 377.374555 256.947834 
L 377.498077 256.947834 
L 378.235532 256.947834 
L 378.021687 256.574321 
L 378.144051 256.574321 
L 378.995772 256.574321 
L 378.782746 256.200808 
L 378.9038 256.200808 
L 379.86613 256.200808 
L 379.442138 255.453782 
L 379.561802 255.453782 
L 381.21971 255.453782 
L 381.009122 255.080269 
L 381.126381 255.080269 
L 382.290123 255.080269 
L 382.080535 254.706756 
L 382.196096 254.706756 
L 383.684114 254.706756 
L 383.475712 254.333244 
L 383.589153 254.333244 
L 384.603235 254.333244 
L 384.395758 253.959731 
L 384.507739 253.959731 
L 384.61957 253.959731 
L 384.4125 253.586218 
L 384.524244 253.586218 
L 384.969725 253.586218 
L 384.763253 253.212705 
L 384.874314 253.212705 
L 386.739881 253.212705 
L 386.534831 252.839192 
L 386.643329 252.839192 
L 390.145055 252.839192 
L 389.942442 252.465679 
L 390.046288 252.465679 
L 390.769473 252.465679 
L 390.56763 252.092166 
L 390.670475 252.092166 
L 391.386709 252.092166 
L 391.185632 251.718653 
L 391.287492 251.718653 
L 394.087712 251.718653 
L 393.888722 251.34514 
L 393.986976 251.34514 
L 394.768598 251.34514 
L 394.570423 250.971627 
L 394.667642 250.971627 
L 395.63321 250.971627 
L 395.43597 250.598114 
L 395.531933 250.598114 
L 395.914603 250.598114 
L 395.717919 250.224601 
L 395.813354 250.224601 
L 400.079892 250.224601 
L 399.886364 249.851088 
L 399.976569 249.851088 
L 402.459259 249.851088 
L 402.267744 249.477575 
L 402.354962 249.477575 
L 403.651048 249.477575 
L 403.460733 249.104062 
L 403.546395 249.104062 
L 405.656046 249.104062 
L 405.467526 248.730549 
L 405.550716 248.730549 
L 407.032011 248.730549 
L 406.844847 248.357036 
L 406.926316 248.357036 
L 407.088977 248.357036 
L 406.902203 247.983523 
L 406.983456 247.983523 
L 412.601899 247.983523 
L 412.419631 247.61001 
L 412.494634 247.61001 
L 414.489423 247.61001 
L 414.30897 247.236497 
L 414.381804 247.236497 
L 415.536667 247.236497 
L 415.357377 246.862984 
L 415.428964 246.862984 
L 416.140694 246.862984 
L 415.676758 245.742445 
L 415.747614 245.742445 
L 415.569811 245.368932 
L 415.64065 245.368932 
L 416.27487 245.368932 
L 415.920938 244.621906 
L 415.99115 244.621906 
L 418.538611 244.621906 
L 418.364012 244.248393 
L 418.431582 244.248393 
L 419.636148 244.248393 
L 419.462759 243.87488 
L 419.529091 243.87488 
L 422.699261 243.87488 
L 422.528719 243.501367 
L 422.591876 243.501367 
L 423.094899 243.501367 
L 422.925 243.127854 
L 422.987653 243.127854 
L 423.672807 243.127854 
L 423.503702 242.754341 
L 423.565677 242.754341 
L 424.182122 242.754341 
L 424.013753 242.380828 
L 424.075121 242.380828 
L 424.685549 242.380828 
L 424.51791 242.007315 
L 424.639394 242.007315 
L 427.020906 242.007315 
L 426.642373 240.886776 
L 427.339888 240.886776 
L 427.175714 240.513263 
L 427.291304 240.513263 
L 428.887171 240.513263 
L 428.724631 240.13975 
L 428.837143 240.13975 
L 431.422733 240.13975 
L 431.210626 239.392724 
L 434.202985 239.392724 
L 434.046029 239.019211 
L 434.1484 239.019211 
L 435.6627 239.019211 
L 435.507353 238.645698 
L 435.607001 238.645698 
L 437.804409 238.645698 
L 437.594245 237.898672 
L 437.642132 237.898672 
L 437.489429 237.525159 
L 437.585171 237.525159 
L 437.680751 237.525159 
L 437.528354 237.151646 
L 437.623862 237.151646 
L 439.362142 237.151646 
L 439.211577 236.778133 
L 439.304104 236.778133 
L 440.718911 236.778133 
L 440.569885 236.40462 
L 440.660016 236.40462 
L 440.794937 236.40462 
L 440.646245 236.031107 
L 440.736093 236.031107 
L 441.272119 236.031107 
L 441.124138 235.657594 
L 441.213052 235.657594 
L 441.611389 235.657594 
L 441.25792 234.537055 
L 442.177338 234.537055 
L 442.031243 234.163542 
L 442.118084 234.163542 
L 443.488924 234.163542 
L 443.344326 233.790029 
L 443.428937 233.790029 
L 446.905714 233.790029 
L 446.764661 233.416516 
L 446.883378 233.416516 
L 446.92289 233.416516 
L 446.782098 233.043003 
L 446.900569 233.043003 
L 447.644666 233.043003 
L 447.504823 232.66949 
L 447.621453 232.66949 
L 448.277412 232.66949 
L 448.13843 232.295977 
L 448.253435 232.295977 
L 448.634933 232.295977 
L 448.496541 231.922464 
L 448.61055 231.922464 
L 448.951055 231.922464 
L 448.813212 231.548951 
L 448.926322 231.548951 
L 449.785227 231.548951 
L 449.585908 230.801925 
L 449.622942 230.801925 
L 449.733882 230.801925 
L 449.572163 230.054899 
L 449.940131 230.054899 
L 449.804433 229.681386 
L 449.91441 229.681386 
L 452.657415 229.681386 
L 452.524638 229.307873 
L 452.628597 229.307873 
L 454.496264 229.307873 
L 454.36556 228.93436 
L 454.465492 228.93436 
L 456.803236 228.93436 
L 456.675101 228.560847 
L 456.770145 228.560847 
L 457.648049 228.560847 
L 457.521 228.187334 
L 457.614186 228.187334 
L 458.444554 228.187334 
L 458.318542 227.813821 
L 458.409987 227.813821 
L 459.135088 227.813821 
L 459.010003 227.440308 
L 459.099935 227.440308 
L 459.724554 227.440308 
L 459.600292 227.066795 
L 459.688921 227.066795 
L 461.312281 227.066795 
L 461.189885 226.693282 
L 461.303748 226.693282 
L 461.558885 226.693282 
L 461.436954 226.319769 
L 461.55 226.319769 
L 462.110968 226.319769 
L 461.989821 225.946256 
L 462.101286 225.946256 
L 463.17359 225.946256 
L 463.015599 225.19923 
L 463.04276 225.19923 
L 466.335616 225.19923 
L 466.219559 224.825717 
L 466.320161 224.825717 
L 466.844415 224.825717 
L 466.729099 224.452204 
L 466.828327 224.452204 
L 467.12461 224.452204 
L 467.009788 224.078691 
L 467.108191 224.078691 
L 468.223436 224.078691 
L 468.109991 223.705178 
L 468.20567 223.705178 
L 468.4439 223.705178 
L 468.330882 223.331665 
L 468.425893 223.331665 
L 469.410444 223.331665 
L 469.298663 222.958152 
L 469.414432 222.958152 
L 469.94276 222.958152 
L 469.789346 222.211126 
L 469.834986 222.211126 
L 469.971597 222.211126 
L 469.860978 221.837613 
L 469.974593 221.837613 
L 470.133119 221.837613 
L 470.022857 221.4641 
L 470.135832 221.4641 
L 470.428094 221.4641 
L 470.318334 221.090587 
L 470.430301 221.090587 
L 471.402336 221.090587 
L 471.293817 220.717074 
L 471.402909 220.717074 
L 471.64186 220.717074 
L 471.53378 220.343561 
L 471.642038 220.343561 
L 471.900653 220.343561 
L 471.793032 219.970048 
L 471.900408 219.970048 
L 472.007492 219.970048 
L 471.835738 219.223022 
L 471.899919 219.223022 
L 472.808516 219.223022 
L 472.70241 218.849509 
L 472.806818 218.849509 
L 472.952522 218.849509 
L 472.803438 218.102483 
L 472.844992 218.102483 
L 475.044603 218.102483 
L 474.94146 217.72897 
L 475.039493 217.72897 
L 475.699462 217.72897 
L 475.597208 217.355457 
L 475.6934 217.355457 
L 476.996154 217.355457 
L 476.895501 216.981944 
L 477.006775 216.981944 
L 479.006543 216.981944 
L 478.908299 216.608431 
L 479.013429 216.608431 
L 479.568972 216.608431 
L 479.471518 216.234918 
L 479.574843 216.234918 
L 479.985166 216.234918 
L 479.888337 215.861405 
L 479.990295 215.861405 
L 481.582642 215.861405 
L 481.487775 215.487892 
L 481.601216 215.487892 
L 481.714286 215.487892 
L 481.479231 214.367353 
L 481.543805 214.367353 
L 483.011967 214.367353 
L 482.919325 213.99384 
L 483.02744 213.99384 
L 483.72943 213.99384 
L 483.637753 213.620327 
L 483.743425 213.620327 
L 486.169432 213.620327 
L 486.076103 212.873301 
L 486.104086 212.873301 
L 486.146014 212.873301 
L 486.057538 212.499788 
L 486.169211 212.499788 
L 486.210989 212.499788 
L 486.122727 212.126275 
L 486.234 212.126275 
L 486.289493 212.126275 
L 486.201461 211.752762 
L 486.312288 211.752762 
L 486.656186 211.752762 
L 486.563458 211.005736 
L 486.590805 211.005736 
L 487.146318 211.005736 
L 487.059684 210.632223 
L 487.167081 210.632223 
L 488.363732 210.632223 
L 488.278636 210.25871 
L 488.381807 210.25871 
L 489.182529 210.25871 
L 489.098514 209.885197 
L 489.211359 209.885197 
L 493.279085 209.885197 
L 493.279085 209.885197 
" style="fill:none;stroke:#2ca02c;stroke-linecap:square;stroke-width:2;"/>
   </g>
   <g id="patch_3">
    <path d="M 76.5 448.56 
L 76.5 60.48 
" style="fill:none;stroke:#000000;stroke-linecap:square;stroke-linejoin:miter;stroke-width:0.8;"/>
   </g>
   <g id="patch_4">
    <path d="M 550.8 448.56 
L 550.8 60.48 
" style="fill:none;stroke:#000000;stroke-linecap:square;stroke-linejoin:miter;stroke-width:0.8;"/>
   </g>
   <g id="patch_5">
    <path d="M 76.5 448.56 
L 550.8 448.56 
" style="fill:none;stroke:#000000;stroke-linecap:square;stroke-linejoin:miter;stroke-width:0.8;"/>
   </g>
   <g id="patch_6">
    <path d="M 76.5 60.48 
L 550.8 60.48 
" style="fill:none;stroke:#000000;stroke-linecap:square;stroke-linejoin:miter;stroke-width:0.8;"/>
   </g>
   <g id="text_25">
    <!-- boat: img1-img4 -->
    <defs>
     <path d="M 48.6875 27.296875 
Q 48.6875 37.203125 44.609375 42.84375 
Q 40.53125 48.484375 33.40625 48.484375 
Q 26.265625 48.484375 22.1875 42.84375 
Q 18.109375 37.203125 18.109375 27.296875 
Q 18.109375 17.390625 22.1875 11.75 
Q 26.265625 6.109375 33.40625 6.109375 
Q 40.53125 6.109375 44.609375 11.75 
Q 48.6875 17.390625 48.6875 27.296875 
z
M 18.109375 46.390625 
Q 20.953125 51.265625 25.265625 53.625 
Q 29.59375 56 35.59375 56 
Q 45.5625 56 51.78125 48.09375 
Q 58.015625 40.1875 58.015625 27.296875 
Q 58.015625 14.40625 51.78125 6.484375 
Q 45.5625 -1.421875 35.59375 -1.421875 
Q 29.59375 -1.421875 25.265625 0.953125 
Q 20.953125 3.328125 18.109375 8.203125 
L 18.109375 0 
L 9.078125 0 
L 9.078125 75.984375 
L 18.109375 75.984375 
z
" id="DejaVuSans-98"/>
     <path d="M 34.28125 27.484375 
Q 23.390625 27.484375 19.1875 25 
Q 14.984375 22.515625 14.984375 16.5 
Q 14.984375 11.71875 18.140625 8.90625 
Q 21.296875 6.109375 26.703125 6.109375 
Q 34.1875 6.109375 38.703125 11.40625 
Q 43.21875 16.703125 43.21875 25.484375 
L 43.21875 27.484375 
z
M 52.203125 31.203125 
L 52.203125 0 
L 43.21875 0 
L 43.21875 8.296875 
Q 40.140625 3.328125 35.546875 0.953125 
Q 30.953125 -1.421875 24.3125 -1.421875 
Q 15.921875 -1.421875 10.953125 3.296875 
Q 6 8.015625 6 15.921875 
Q 6 25.140625 12.171875 29.828125 
Q 18.359375 34.515625 30.609375 34.515625 
L 43.21875 34.515625 
L 43.21875 35.40625 
Q 43.21875 41.609375 39.140625 45 
Q 35.0625 48.390625 27.6875 48.390625 
Q 23 48.390625 18.546875 47.265625 
Q 14.109375 46.140625 10.015625 43.890625 
L 10.015625 52.203125 
Q 14.9375 54.109375 19.578125 55.046875 
Q 24.21875 56 28.609375 56 
Q 40.484375 56 46.34375 49.84375 
Q 52.203125 43.703125 52.203125 31.203125 
z
" id="DejaVuSans-97"/>
     <path d="M 11.71875 12.40625 
L 22.015625 12.40625 
L 22.015625 0 
L 11.71875 0 
z
M 11.71875 51.703125 
L 22.015625 51.703125 
L 22.015625 39.3125 
L 11.71875 39.3125 
z
" id="DejaVuSans-58"/>
     <path id="DejaVuSans-32"/>
     <path d="M 52 44.1875 
Q 55.375 50.25 60.0625 53.125 
Q 64.75 56 71.09375 56 
Q 79.640625 56 84.28125 50.015625 
Q 88.921875 44.046875 88.921875 33.015625 
L 88.921875 0 
L 79.890625 0 
L 79.890625 32.71875 
Q 79.890625 40.578125 77.09375 44.375 
Q 74.3125 48.1875 68.609375 48.1875 
Q 61.625 48.1875 57.5625 43.546875 
Q 53.515625 38.921875 53.515625 30.90625 
L 53.515625 0 
L 44.484375 0 
L 44.484375 32.71875 
Q 44.484375 40.625 41.703125 44.40625 
Q 38.921875 48.1875 33.109375 48.1875 
Q 26.21875 48.1875 22.15625 43.53125 
Q 18.109375 38.875 18.109375 30.90625 
L 18.109375 0 
L 9.078125 0 
L 9.078125 54.6875 
L 18.109375 54.6875 
L 18.109375 46.1875 
Q 21.1875 51.21875 25.484375 53.609375 
Q 29.78125 56 35.6875 56 
Q 41.65625 56 45.828125 52.96875 
Q 50 49.953125 52 44.1875 
z
" id="DejaVuSans-109"/>
     <path d="M 45.40625 27.984375 
Q 45.40625 37.75 41.375 43.109375 
Q 37.359375 48.484375 30.078125 48.484375 
Q 22.859375 48.484375 18.828125 43.109375 
Q 14.796875 37.75 14.796875 27.984375 
Q 14.796875 18.265625 18.828125 12.890625 
Q 22.859375 7.515625 30.078125 7.515625 
Q 37.359375 7.515625 41.375 12.890625 
Q 45.40625 18.265625 45.40625 27.984375 
z
M 54.390625 6.78125 
Q 54.390625 -7.171875 48.1875 -13.984375 
Q 42 -20.796875 29.203125 -20.796875 
Q 24.46875 -20.796875 20.265625 -20.09375 
Q 16.0625 -19.390625 12.109375 -17.921875 
L 12.109375 -9.1875 
Q 16.0625 -11.328125 19.921875 -12.34375 
Q 23.78125 -13.375 27.78125 -13.375 
Q 36.625 -13.375 41.015625 -8.765625 
Q 45.40625 -4.15625 45.40625 5.171875 
L 45.40625 9.625 
Q 42.625 4.78125 38.28125 2.390625 
Q 33.9375 0 27.875 0 
Q 17.828125 0 11.671875 7.65625 
Q 5.515625 15.328125 5.515625 27.984375 
Q 5.515625 40.671875 11.671875 48.328125 
Q 17.828125 56 27.875 56 
Q 33.9375 56 38.28125 53.609375 
Q 42.625 51.21875 45.40625 46.390625 
L 45.40625 54.6875 
L 54.390625 54.6875 
z
" id="DejaVuSans-103"/>
    </defs>
    <g transform="translate(263.772188 41.042625)scale(0.12 -0.12)">
     <use xlink:href="#DejaVuSans-98"/>
     <use x="63.476562" xlink:href="#DejaVuSans-111"/>
     <use x="124.658203" xlink:href="#DejaVuSans-97"/>
     <use x="185.9375" xlink:href="#DejaVuSans-116"/>
     <use x="225.146484" xlink:href="#DejaVuSans-58"/>
     <use x="258.837891" xlink:href="#DejaVuSans-32"/>
     <use x="290.625" xlink:href="#DejaVuSans-105"/>
     <use x="318.408203" xlink:href="#DejaVuSans-109"/>
     <use x="415.820312" xlink:href="#DejaVuSans-103"/>
     <use x="479.296875" xlink:href="#DejaVuSans-49"/>
     <use x="542.919922" xlink:href="#DejaVuSans-45"/>
     <use x="579.003906" xlink:href="#DejaVuSans-105"/>
     <use x="606.787109" xlink:href="#DejaVuSans-109"/>
     <use x="704.199219" xlink:href="#DejaVuSans-103"/>
     <use x="767.675781" xlink:href="#DejaVuSans-52"/>
    </g>
    <!-- NearestNeighbours -->
    <defs>
     <path d="M 9.8125 72.90625 
L 23.09375 72.90625 
L 55.421875 11.921875 
L 55.421875 72.90625 
L 64.984375 72.90625 
L 64.984375 0 
L 51.703125 0 
L 19.390625 60.984375 
L 19.390625 0 
L 9.8125 0 
z
" id="DejaVuSans-78"/>
     <path d="M 54.890625 33.015625 
L 54.890625 0 
L 45.90625 0 
L 45.90625 32.71875 
Q 45.90625 40.484375 42.875 44.328125 
Q 39.84375 48.1875 33.796875 48.1875 
Q 26.515625 48.1875 22.3125 43.546875 
Q 18.109375 38.921875 18.109375 30.90625 
L 18.109375 0 
L 9.078125 0 
L 9.078125 75.984375 
L 18.109375 75.984375 
L 18.109375 46.1875 
Q 21.34375 51.125 25.703125 53.5625 
Q 30.078125 56 35.796875 56 
Q 45.21875 56 50.046875 50.171875 
Q 54.890625 44.34375 54.890625 33.015625 
z
" id="DejaVuSans-104"/>
     <path d="M 8.5 21.578125 
L 8.5 54.6875 
L 17.484375 54.6875 
L 17.484375 21.921875 
Q 17.484375 14.15625 20.5 10.265625 
Q 23.53125 6.390625 29.59375 6.390625 
Q 36.859375 6.390625 41.078125 11.03125 
Q 45.3125 15.671875 45.3125 23.6875 
L 45.3125 54.6875 
L 54.296875 54.6875 
L 54.296875 0 
L 45.3125 0 
L 45.3125 8.40625 
Q 42.046875 3.421875 37.71875 1 
Q 33.40625 -1.421875 27.6875 -1.421875 
Q 18.265625 -1.421875 13.375 4.4375 
Q 8.5 10.296875 8.5 21.578125 
z
M 31.109375 56 
z
" id="DejaVuSans-117"/>
    </defs>
    <g transform="translate(255.957188 54.48)scale(0.12 -0.12)">
     <use xlink:href="#DejaVuSans-78"/>
     <use x="74.804688" xlink:href="#DejaVuSans-101"/>
     <use x="136.328125" xlink:href="#DejaVuSans-97"/>
     <use x="197.607422" xlink:href="#DejaVuSans-114"/>
     <use x="236.470703" xlink:href="#DejaVuSans-101"/>
     <use x="297.994141" xlink:href="#DejaVuSans-115"/>
     <use x="350.09375" xlink:href="#DejaVuSans-116"/>
     <use x="389.302734" xlink:href="#DejaVuSans-78"/>
     <use x="464.107422" xlink:href="#DejaVuSans-101"/>
     <use x="525.630859" xlink:href="#DejaVuSans-105"/>
     <use x="553.414062" xlink:href="#DejaVuSans-103"/>
     <use x="616.890625" xlink:href="#DejaVuSans-104"/>
     <use x="680.269531" xlink:href="#DejaVuSans-98"/>
     <use x="743.746094" xlink:href="#DejaVuSans-111"/>
     <use x="804.927734" xlink:href="#DejaVuSans-117"/>
     <use x="868.306641" xlink:href="#DejaVuSans-114"/>
     <use x="909.419922" xlink:href="#DejaVuSans-115"/>
    </g>
   </g>
   <g id="legend_1">
    <g id="patch_7">
     <path d="M 362.659375 112.514375 
L 543.8 112.514375 
Q 545.8 112.514375 545.8 110.514375 
L 545.8 67.48 
Q 545.8 65.48 543.8 65.48 
L 362.659375 65.48 
Q 360.659375 65.48 360.659375 67.48 
L 360.659375 110.514375 
Q 360.659375 112.514375 362.659375 112.514375 
z
" style="fill:#ffffff;opacity:0.8;stroke:#cccccc;stroke-linejoin:miter;"/>
    </g>
    <g id="line2d_48">
     <path d="M 364.659375 73.578438 
L 384.659375 73.578438 
" style="fill:none;stroke:#1f77b4;stroke-linecap:square;stroke-width:2;"/>
    </g>
    <g id="line2d_49"/>
    <g id="text_26">
     <!-- root-cvsift AP: 62.8, %In: 14.6 -->
     <defs>
      <path d="M 2.984375 54.6875 
L 12.5 54.6875 
L 29.59375 8.796875 
L 46.6875 54.6875 
L 56.203125 54.6875 
L 35.6875 0 
L 23.484375 0 
z
" id="DejaVuSans-118"/>
      <path d="M 37.109375 75.984375 
L 37.109375 68.5 
L 28.515625 68.5 
Q 23.6875 68.5 21.796875 66.546875 
Q 19.921875 64.59375 19.921875 59.515625 
L 19.921875 54.6875 
L 34.71875 54.6875 
L 34.71875 47.703125 
L 19.921875 47.703125 
L 19.921875 0 
L 10.890625 0 
L 10.890625 47.703125 
L 2.296875 47.703125 
L 2.296875 54.6875 
L 10.890625 54.6875 
L 10.890625 58.5 
Q 10.890625 67.625 15.140625 71.796875 
Q 19.390625 75.984375 28.609375 75.984375 
z
" id="DejaVuSans-102"/>
      <path d="M 34.1875 63.1875 
L 20.796875 26.90625 
L 47.609375 26.90625 
z
M 28.609375 72.90625 
L 39.796875 72.90625 
L 67.578125 0 
L 57.328125 0 
L 50.6875 18.703125 
L 17.828125 18.703125 
L 11.1875 0 
L 0.78125 0 
z
" id="DejaVuSans-65"/>
      <path d="M 19.671875 64.796875 
L 19.671875 37.40625 
L 32.078125 37.40625 
Q 38.96875 37.40625 42.71875 40.96875 
Q 46.484375 44.53125 46.484375 51.125 
Q 46.484375 57.671875 42.71875 61.234375 
Q 38.96875 64.796875 32.078125 64.796875 
z
M 9.8125 72.90625 
L 32.078125 72.90625 
Q 44.34375 72.90625 50.609375 67.359375 
Q 56.890625 61.8125 56.890625 51.125 
Q 56.890625 40.328125 50.609375 34.8125 
Q 44.34375 29.296875 32.078125 29.296875 
L 19.671875 29.296875 
L 19.671875 0 
L 9.8125 0 
z
" id="DejaVuSans-80"/>
      <path d="M 11.71875 12.40625 
L 22.015625 12.40625 
L 22.015625 4 
L 14.015625 -11.625 
L 7.71875 -11.625 
L 11.71875 4 
z
" id="DejaVuSans-44"/>
      <path d="M 72.703125 32.078125 
Q 68.453125 32.078125 66.03125 28.46875 
Q 63.625 24.859375 63.625 18.40625 
Q 63.625 12.0625 66.03125 8.421875 
Q 68.453125 4.78125 72.703125 4.78125 
Q 76.859375 4.78125 79.265625 8.421875 
Q 81.6875 12.0625 81.6875 18.40625 
Q 81.6875 24.8125 79.265625 28.4375 
Q 76.859375 32.078125 72.703125 32.078125 
z
M 72.703125 38.28125 
Q 80.421875 38.28125 84.953125 32.90625 
Q 89.5 27.546875 89.5 18.40625 
Q 89.5 9.28125 84.9375 3.921875 
Q 80.375 -1.421875 72.703125 -1.421875 
Q 64.890625 -1.421875 60.34375 3.921875 
Q 55.8125 9.28125 55.8125 18.40625 
Q 55.8125 27.59375 60.375 32.9375 
Q 64.9375 38.28125 72.703125 38.28125 
z
M 22.3125 68.015625 
Q 18.109375 68.015625 15.6875 64.375 
Q 13.28125 60.75 13.28125 54.390625 
Q 13.28125 47.953125 15.671875 44.328125 
Q 18.0625 40.71875 22.3125 40.71875 
Q 26.5625 40.71875 28.96875 44.328125 
Q 31.390625 47.953125 31.390625 54.390625 
Q 31.390625 60.6875 28.953125 64.34375 
Q 26.515625 68.015625 22.3125 68.015625 
z
M 66.40625 74.21875 
L 74.21875 74.21875 
L 28.609375 -1.421875 
L 20.796875 -1.421875 
z
M 22.3125 74.21875 
Q 30.03125 74.21875 34.609375 68.875 
Q 39.203125 63.53125 39.203125 54.390625 
Q 39.203125 45.171875 34.640625 39.84375 
Q 30.078125 34.515625 22.3125 34.515625 
Q 14.546875 34.515625 10.03125 39.859375 
Q 5.515625 45.21875 5.515625 54.390625 
Q 5.515625 63.484375 10.046875 68.84375 
Q 14.59375 74.21875 22.3125 74.21875 
z
" id="DejaVuSans-37"/>
      <path d="M 9.8125 72.90625 
L 19.671875 72.90625 
L 19.671875 0 
L 9.8125 0 
z
" id="DejaVuSans-73"/>
     </defs>
     <g transform="translate(392.659375 77.078438)scale(0.1 -0.1)">
      <use xlink:href="#DejaVuSans-114"/>
      <use x="38.863281" xlink:href="#DejaVuSans-111"/>
      <use x="100.044922" xlink:href="#DejaVuSans-111"/>
      <use x="161.226562" xlink:href="#DejaVuSans-116"/>
      <use x="200.435547" xlink:href="#DejaVuSans-45"/>
      <use x="236.519531" xlink:href="#DejaVuSans-99"/>
      <use x="291.5" xlink:href="#DejaVuSans-118"/>
      <use x="350.679688" xlink:href="#DejaVuSans-115"/>
      <use x="402.779297" xlink:href="#DejaVuSans-105"/>
      <use x="430.5625" xlink:href="#DejaVuSans-102"/>
      <use x="464.017578" xlink:href="#DejaVuSans-116"/>
      <use x="503.226562" xlink:href="#DejaVuSans-32"/>
      <use x="535.013672" xlink:href="#DejaVuSans-65"/>
      <use x="603.421875" xlink:href="#DejaVuSans-80"/>
      <use x="663.724609" xlink:href="#DejaVuSans-58"/>
      <use x="697.416016" xlink:href="#DejaVuSans-32"/>
      <use x="729.203125" xlink:href="#DejaVuSans-54"/>
      <use x="792.826172" xlink:href="#DejaVuSans-50"/>
      <use x="856.449219" xlink:href="#DejaVuSans-46"/>
      <use x="888.236328" xlink:href="#DejaVuSans-56"/>
      <use x="951.859375" xlink:href="#DejaVuSans-44"/>
      <use x="983.646484" xlink:href="#DejaVuSans-32"/>
      <use x="1015.433594" xlink:href="#DejaVuSans-37"/>
      <use x="1110.453125" xlink:href="#DejaVuSans-73"/>
      <use x="1139.945312" xlink:href="#DejaVuSans-110"/>
      <use x="1203.324219" xlink:href="#DejaVuSans-58"/>
      <use x="1237.015625" xlink:href="#DejaVuSans-32"/>
      <use x="1268.802734" xlink:href="#DejaVuSans-49"/>
      <use x="1332.425781" xlink:href="#DejaVuSans-52"/>
      <use x="1396.048828" xlink:href="#DejaVuSans-46"/>
      <use x="1427.835938" xlink:href="#DejaVuSans-54"/>
     </g>
    </g>
    <g id="line2d_50">
     <path d="M 364.659375 88.256563 
L 384.659375 88.256563 
" style="fill:none;stroke:#ff7f0e;stroke-linecap:square;stroke-width:2;"/>
    </g>
    <g id="line2d_51"/>
    <g id="text_27">
     <!-- tfeat AP: 14.3, %In: 6.9 -->
     <g transform="translate(392.659375 91.756563)scale(0.1 -0.1)">
      <use xlink:href="#DejaVuSans-116"/>
      <use x="39.208984" xlink:href="#DejaVuSans-102"/>
      <use x="74.414062" xlink:href="#DejaVuSans-101"/>
      <use x="135.9375" xlink:href="#DejaVuSans-97"/>
      <use x="197.216797" xlink:href="#DejaVuSans-116"/>
      <use x="236.425781" xlink:href="#DejaVuSans-32"/>
      <use x="268.212891" xlink:href="#DejaVuSans-65"/>
      <use x="336.621094" xlink:href="#DejaVuSans-80"/>
      <use x="396.923828" xlink:href="#DejaVuSans-58"/>
      <use x="430.615234" xlink:href="#DejaVuSans-32"/>
      <use x="462.402344" xlink:href="#DejaVuSans-49"/>
      <use x="526.025391" xlink:href="#DejaVuSans-52"/>
      <use x="589.648438" xlink:href="#DejaVuSans-46"/>
      <use x="621.435547" xlink:href="#DejaVuSans-51"/>
      <use x="685.058594" xlink:href="#DejaVuSans-44"/>
      <use x="716.845703" xlink:href="#DejaVuSans-32"/>
      <use x="748.632812" xlink:href="#DejaVuSans-37"/>
      <use x="843.652344" xlink:href="#DejaVuSans-73"/>
      <use x="873.144531" xlink:href="#DejaVuSans-110"/>
      <use x="936.523438" xlink:href="#DejaVuSans-58"/>
      <use x="970.214844" xlink:href="#DejaVuSans-32"/>
      <use x="1002.001953" xlink:href="#DejaVuSans-54"/>
      <use x="1065.625" xlink:href="#DejaVuSans-46"/>
      <use x="1097.412109" xlink:href="#DejaVuSans-57"/>
     </g>
    </g>
    <g id="line2d_52">
     <path d="M 364.659375 102.934687 
L 384.659375 102.934687 
" style="fill:none;stroke:#2ca02c;stroke-linecap:square;stroke-width:2;"/>
    </g>
    <g id="line2d_53"/>
    <g id="text_28">
     <!-- hardnet AP: 44.8, %In: 12.1 -->
     <defs>
      <path d="M 45.40625 46.390625 
L 45.40625 75.984375 
L 54.390625 75.984375 
L 54.390625 0 
L 45.40625 0 
L 45.40625 8.203125 
Q 42.578125 3.328125 38.25 0.953125 
Q 33.9375 -1.421875 27.875 -1.421875 
Q 17.96875 -1.421875 11.734375 6.484375 
Q 5.515625 14.40625 5.515625 27.296875 
Q 5.515625 40.1875 11.734375 48.09375 
Q 17.96875 56 27.875 56 
Q 33.9375 56 38.25 53.625 
Q 42.578125 51.265625 45.40625 46.390625 
z
M 14.796875 27.296875 
Q 14.796875 17.390625 18.875 11.75 
Q 22.953125 6.109375 30.078125 6.109375 
Q 37.203125 6.109375 41.296875 11.75 
Q 45.40625 17.390625 45.40625 27.296875 
Q 45.40625 37.203125 41.296875 42.84375 
Q 37.203125 48.484375 30.078125 48.484375 
Q 22.953125 48.484375 18.875 42.84375 
Q 14.796875 37.203125 14.796875 27.296875 
z
" id="DejaVuSans-100"/>
     </defs>
     <g transform="translate(392.659375 106.434687)scale(0.1 -0.1)">
      <use xlink:href="#DejaVuSans-104"/>
      <use x="63.378906" xlink:href="#DejaVuSans-97"/>
      <use x="124.658203" xlink:href="#DejaVuSans-114"/>
      <use x="164.021484" xlink:href="#DejaVuSans-100"/>
      <use x="227.498047" xlink:href="#DejaVuSans-110"/>
      <use x="290.876953" xlink:href="#DejaVuSans-101"/>
      <use x="352.400391" xlink:href="#DejaVuSans-116"/>
      <use x="391.609375" xlink:href="#DejaVuSans-32"/>
      <use x="423.396484" xlink:href="#DejaVuSans-65"/>
      <use x="491.804688" xlink:href="#DejaVuSans-80"/>
      <use x="552.107422" xlink:href="#DejaVuSans-58"/>
      <use x="585.798828" xlink:href="#DejaVuSans-32"/>
      <use x="617.585938" xlink:href="#DejaVuSans-52"/>
      <use x="681.208984" xlink:href="#DejaVuSans-52"/>
      <use x="744.832031" xlink:href="#DejaVuSans-46"/>
      <use x="776.619141" xlink:href="#DejaVuSans-56"/>
      <use x="840.242188" xlink:href="#DejaVuSans-44"/>
      <use x="872.029297" xlink:href="#DejaVuSans-32"/>
      <use x="903.816406" xlink:href="#DejaVuSans-37"/>
      <use x="998.835938" xlink:href="#DejaVuSans-73"/>
      <use x="1028.328125" xlink:href="#DejaVuSans-110"/>
      <use x="1091.707031" xlink:href="#DejaVuSans-58"/>
      <use x="1125.398438" xlink:href="#DejaVuSans-32"/>
      <use x="1157.185547" xlink:href="#DejaVuSans-49"/>
      <use x="1220.808594" xlink:href="#DejaVuSans-50"/>
      <use x="1284.431641" xlink:href="#DejaVuSans-46"/>
      <use x="1316.21875" xlink:href="#DejaVuSans-49"/>
     </g>
    </g>
   </g>
  </g>
 </g>
 <defs>
  <clipPath id="pb3423ffce5">
   <rect height="388.08" width="474.3" x="76.5" y="60.48"/>
  </clipPath>
 </defs>
</svg>
