<?xml version="1.0" encoding="utf-8" standalone="no"?>
<!DOCTYPE svg PUBLIC "-//W3C//DTD SVG 1.1//EN"
  "http://www.w3.org/Graphics/SVG/1.1/DTD/svg11.dtd">
<!-- Created with matplotlib (https://matplotlib.org/) -->
<svg height="504pt" version="1.1" viewBox="0 0 612 504" width="612pt" xmlns="http://www.w3.org/2000/svg" xmlns:xlink="http://www.w3.org/1999/xlink">
 <defs>
  <style type="text/css">
*{stroke-linecap:butt;stroke-linejoin:round;}
  </style>
 </defs>
 <g id="figure_1">
  <g id="patch_1">
   <path d="M 0 504 
L 612 504 
L 612 0 
L 0 0 
z
" style="fill:#ffffff;"/>
  </g>
  <g id="axes_1">
   <g id="patch_2">
    <path d="M 76.5 448.56 
L 550.8 448.56 
L 550.8 60.48 
L 76.5 60.48 
z
" style="fill:#ffffff;"/>
   </g>
   <g id="matplotlib.axis_1">
    <g id="xtick_1">
     <g id="line2d_1">
      <path clip-path="url(#pe176e97c36)" d="M 76.5 448.56 
L 76.5 60.48 
" style="fill:none;stroke:#b0b0b0;stroke-linecap:square;stroke-width:0.8;"/>
     </g>
     <g id="line2d_2">
      <defs>
       <path d="M 0 0 
L 0 3.5 
" id="m0c54211be2" style="stroke:#000000;stroke-width:0.8;"/>
      </defs>
      <g>
       <use style="stroke:#000000;stroke-width:0.8;" x="76.5" xlink:href="#m0c54211be2" y="448.56"/>
      </g>
     </g>
     <g id="text_1">
      <!-- 0.0 -->
      <defs>
       <path d="M 31.78125 66.40625 
Q 24.171875 66.40625 20.328125 58.90625 
Q 16.5 51.421875 16.5 36.375 
Q 16.5 21.390625 20.328125 13.890625 
Q 24.171875 6.390625 31.78125 6.390625 
Q 39.453125 6.390625 43.28125 13.890625 
Q 47.125 21.390625 47.125 36.375 
Q 47.125 51.421875 43.28125 58.90625 
Q 39.453125 66.40625 31.78125 66.40625 
z
M 31.78125 74.21875 
Q 44.046875 74.21875 50.515625 64.515625 
Q 56.984375 54.828125 56.984375 36.375 
Q 56.984375 17.96875 50.515625 8.265625 
Q 44.046875 -1.421875 31.78125 -1.421875 
Q 19.53125 -1.421875 13.0625 8.265625 
Q 6.59375 17.96875 6.59375 36.375 
Q 6.59375 54.828125 13.0625 64.515625 
Q 19.53125 74.21875 31.78125 74.21875 
z
" id="DejaVuSans-48"/>
       <path d="M 10.6875 12.40625 
L 21 12.40625 
L 21 0 
L 10.6875 0 
z
" id="DejaVuSans-46"/>
      </defs>
      <g transform="translate(68.548438 463.158437)scale(0.1 -0.1)">
       <use xlink:href="#DejaVuSans-48"/>
       <use x="63.623047" xlink:href="#DejaVuSans-46"/>
       <use x="95.410156" xlink:href="#DejaVuSans-48"/>
      </g>
     </g>
    </g>
    <g id="xtick_2">
     <g id="line2d_3">
      <path clip-path="url(#pe176e97c36)" d="M 123.93 448.56 
L 123.93 60.48 
" style="fill:none;stroke:#b0b0b0;stroke-linecap:square;stroke-width:0.8;"/>
     </g>
     <g id="line2d_4">
      <g>
       <use style="stroke:#000000;stroke-width:0.8;" x="123.93" xlink:href="#m0c54211be2" y="448.56"/>
      </g>
     </g>
     <g id="text_2">
      <!-- 0.1 -->
      <defs>
       <path d="M 12.40625 8.296875 
L 28.515625 8.296875 
L 28.515625 63.921875 
L 10.984375 60.40625 
L 10.984375 69.390625 
L 28.421875 72.90625 
L 38.28125 72.90625 
L 38.28125 8.296875 
L 54.390625 8.296875 
L 54.390625 0 
L 12.40625 0 
z
" id="DejaVuSans-49"/>
      </defs>
      <g transform="translate(115.978438 463.158437)scale(0.1 -0.1)">
       <use xlink:href="#DejaVuSans-48"/>
       <use x="63.623047" xlink:href="#DejaVuSans-46"/>
       <use x="95.410156" xlink:href="#DejaVuSans-49"/>
      </g>
     </g>
    </g>
    <g id="xtick_3">
     <g id="line2d_5">
      <path clip-path="url(#pe176e97c36)" d="M 171.36 448.56 
L 171.36 60.48 
" style="fill:none;stroke:#b0b0b0;stroke-linecap:square;stroke-width:0.8;"/>
     </g>
     <g id="line2d_6">
      <g>
       <use style="stroke:#000000;stroke-width:0.8;" x="171.36" xlink:href="#m0c54211be2" y="448.56"/>
      </g>
     </g>
     <g id="text_3">
      <!-- 0.2 -->
      <defs>
       <path d="M 19.1875 8.296875 
L 53.609375 8.296875 
L 53.609375 0 
L 7.328125 0 
L 7.328125 8.296875 
Q 12.9375 14.109375 22.625 23.890625 
Q 32.328125 33.6875 34.8125 36.53125 
Q 39.546875 41.84375 41.421875 45.53125 
Q 43.3125 49.21875 43.3125 52.78125 
Q 43.3125 58.59375 39.234375 62.25 
Q 35.15625 65.921875 28.609375 65.921875 
Q 23.96875 65.921875 18.8125 64.3125 
Q 13.671875 62.703125 7.8125 59.421875 
L 7.8125 69.390625 
Q 13.765625 71.78125 18.9375 73 
Q 24.125 74.21875 28.421875 74.21875 
Q 39.75 74.21875 46.484375 68.546875 
Q 53.21875 62.890625 53.21875 53.421875 
Q 53.21875 48.921875 51.53125 44.890625 
Q 49.859375 40.875 45.40625 35.40625 
Q 44.1875 33.984375 37.640625 27.21875 
Q 31.109375 20.453125 19.1875 8.296875 
z
" id="DejaVuSans-50"/>
      </defs>
      <g transform="translate(163.408438 463.158437)scale(0.1 -0.1)">
       <use xlink:href="#DejaVuSans-48"/>
       <use x="63.623047" xlink:href="#DejaVuSans-46"/>
       <use x="95.410156" xlink:href="#DejaVuSans-50"/>
      </g>
     </g>
    </g>
    <g id="xtick_4">
     <g id="line2d_7">
      <path clip-path="url(#pe176e97c36)" d="M 218.79 448.56 
L 218.79 60.48 
" style="fill:none;stroke:#b0b0b0;stroke-linecap:square;stroke-width:0.8;"/>
     </g>
     <g id="line2d_8">
      <g>
       <use style="stroke:#000000;stroke-width:0.8;" x="218.79" xlink:href="#m0c54211be2" y="448.56"/>
      </g>
     </g>
     <g id="text_4">
      <!-- 0.3 -->
      <defs>
       <path d="M 40.578125 39.3125 
Q 47.65625 37.796875 51.625 33 
Q 55.609375 28.21875 55.609375 21.1875 
Q 55.609375 10.40625 48.1875 4.484375 
Q 40.765625 -1.421875 27.09375 -1.421875 
Q 22.515625 -1.421875 17.65625 -0.515625 
Q 12.796875 0.390625 7.625 2.203125 
L 7.625 11.71875 
Q 11.71875 9.328125 16.59375 8.109375 
Q 21.484375 6.890625 26.8125 6.890625 
Q 36.078125 6.890625 40.9375 10.546875 
Q 45.796875 14.203125 45.796875 21.1875 
Q 45.796875 27.640625 41.28125 31.265625 
Q 36.765625 34.90625 28.71875 34.90625 
L 20.21875 34.90625 
L 20.21875 43.015625 
L 29.109375 43.015625 
Q 36.375 43.015625 40.234375 45.921875 
Q 44.09375 48.828125 44.09375 54.296875 
Q 44.09375 59.90625 40.109375 62.90625 
Q 36.140625 65.921875 28.71875 65.921875 
Q 24.65625 65.921875 20.015625 65.03125 
Q 15.375 64.15625 9.8125 62.3125 
L 9.8125 71.09375 
Q 15.4375 72.65625 20.34375 73.4375 
Q 25.25 74.21875 29.59375 74.21875 
Q 40.828125 74.21875 47.359375 69.109375 
Q 53.90625 64.015625 53.90625 55.328125 
Q 53.90625 49.265625 50.4375 45.09375 
Q 46.96875 40.921875 40.578125 39.3125 
z
" id="DejaVuSans-51"/>
      </defs>
      <g transform="translate(210.838438 463.158437)scale(0.1 -0.1)">
       <use xlink:href="#DejaVuSans-48"/>
       <use x="63.623047" xlink:href="#DejaVuSans-46"/>
       <use x="95.410156" xlink:href="#DejaVuSans-51"/>
      </g>
     </g>
    </g>
    <g id="xtick_5">
     <g id="line2d_9">
      <path clip-path="url(#pe176e97c36)" d="M 266.22 448.56 
L 266.22 60.48 
" style="fill:none;stroke:#b0b0b0;stroke-linecap:square;stroke-width:0.8;"/>
     </g>
     <g id="line2d_10">
      <g>
       <use style="stroke:#000000;stroke-width:0.8;" x="266.22" xlink:href="#m0c54211be2" y="448.56"/>
      </g>
     </g>
     <g id="text_5">
      <!-- 0.4 -->
      <defs>
       <path d="M 37.796875 64.3125 
L 12.890625 25.390625 
L 37.796875 25.390625 
z
M 35.203125 72.90625 
L 47.609375 72.90625 
L 47.609375 25.390625 
L 58.015625 25.390625 
L 58.015625 17.1875 
L 47.609375 17.1875 
L 47.609375 0 
L 37.796875 0 
L 37.796875 17.1875 
L 4.890625 17.1875 
L 4.890625 26.703125 
z
" id="DejaVuSans-52"/>
      </defs>
      <g transform="translate(258.268438 463.158437)scale(0.1 -0.1)">
       <use xlink:href="#DejaVuSans-48"/>
       <use x="63.623047" xlink:href="#DejaVuSans-46"/>
       <use x="95.410156" xlink:href="#DejaVuSans-52"/>
      </g>
     </g>
    </g>
    <g id="xtick_6">
     <g id="line2d_11">
      <path clip-path="url(#pe176e97c36)" d="M 313.65 448.56 
L 313.65 60.48 
" style="fill:none;stroke:#b0b0b0;stroke-linecap:square;stroke-width:0.8;"/>
     </g>
     <g id="line2d_12">
      <g>
       <use style="stroke:#000000;stroke-width:0.8;" x="313.65" xlink:href="#m0c54211be2" y="448.56"/>
      </g>
     </g>
     <g id="text_6">
      <!-- 0.5 -->
      <defs>
       <path d="M 10.796875 72.90625 
L 49.515625 72.90625 
L 49.515625 64.59375 
L 19.828125 64.59375 
L 19.828125 46.734375 
Q 21.96875 47.46875 24.109375 47.828125 
Q 26.265625 48.1875 28.421875 48.1875 
Q 40.625 48.1875 47.75 41.5 
Q 54.890625 34.8125 54.890625 23.390625 
Q 54.890625 11.625 47.5625 5.09375 
Q 40.234375 -1.421875 26.90625 -1.421875 
Q 22.3125 -1.421875 17.546875 -0.640625 
Q 12.796875 0.140625 7.71875 1.703125 
L 7.71875 11.625 
Q 12.109375 9.234375 16.796875 8.0625 
Q 21.484375 6.890625 26.703125 6.890625 
Q 35.15625 6.890625 40.078125 11.328125 
Q 45.015625 15.765625 45.015625 23.390625 
Q 45.015625 31 40.078125 35.4375 
Q 35.15625 39.890625 26.703125 39.890625 
Q 22.75 39.890625 18.8125 39.015625 
Q 14.890625 38.140625 10.796875 36.28125 
z
" id="DejaVuSans-53"/>
      </defs>
      <g transform="translate(305.698438 463.158437)scale(0.1 -0.1)">
       <use xlink:href="#DejaVuSans-48"/>
       <use x="63.623047" xlink:href="#DejaVuSans-46"/>
       <use x="95.410156" xlink:href="#DejaVuSans-53"/>
      </g>
     </g>
    </g>
    <g id="xtick_7">
     <g id="line2d_13">
      <path clip-path="url(#pe176e97c36)" d="M 361.08 448.56 
L 361.08 60.48 
" style="fill:none;stroke:#b0b0b0;stroke-linecap:square;stroke-width:0.8;"/>
     </g>
     <g id="line2d_14">
      <g>
       <use style="stroke:#000000;stroke-width:0.8;" x="361.08" xlink:href="#m0c54211be2" y="448.56"/>
      </g>
     </g>
     <g id="text_7">
      <!-- 0.6 -->
      <defs>
       <path d="M 33.015625 40.375 
Q 26.375 40.375 22.484375 35.828125 
Q 18.609375 31.296875 18.609375 23.390625 
Q 18.609375 15.53125 22.484375 10.953125 
Q 26.375 6.390625 33.015625 6.390625 
Q 39.65625 6.390625 43.53125 10.953125 
Q 47.40625 15.53125 47.40625 23.390625 
Q 47.40625 31.296875 43.53125 35.828125 
Q 39.65625 40.375 33.015625 40.375 
z
M 52.59375 71.296875 
L 52.59375 62.3125 
Q 48.875 64.0625 45.09375 64.984375 
Q 41.3125 65.921875 37.59375 65.921875 
Q 27.828125 65.921875 22.671875 59.328125 
Q 17.53125 52.734375 16.796875 39.40625 
Q 19.671875 43.65625 24.015625 45.921875 
Q 28.375 48.1875 33.59375 48.1875 
Q 44.578125 48.1875 50.953125 41.515625 
Q 57.328125 34.859375 57.328125 23.390625 
Q 57.328125 12.15625 50.6875 5.359375 
Q 44.046875 -1.421875 33.015625 -1.421875 
Q 20.359375 -1.421875 13.671875 8.265625 
Q 6.984375 17.96875 6.984375 36.375 
Q 6.984375 53.65625 15.1875 63.9375 
Q 23.390625 74.21875 37.203125 74.21875 
Q 40.921875 74.21875 44.703125 73.484375 
Q 48.484375 72.75 52.59375 71.296875 
z
" id="DejaVuSans-54"/>
      </defs>
      <g transform="translate(353.128438 463.158437)scale(0.1 -0.1)">
       <use xlink:href="#DejaVuSans-48"/>
       <use x="63.623047" xlink:href="#DejaVuSans-46"/>
       <use x="95.410156" xlink:href="#DejaVuSans-54"/>
      </g>
     </g>
    </g>
    <g id="xtick_8">
     <g id="line2d_15">
      <path clip-path="url(#pe176e97c36)" d="M 408.51 448.56 
L 408.51 60.48 
" style="fill:none;stroke:#b0b0b0;stroke-linecap:square;stroke-width:0.8;"/>
     </g>
     <g id="line2d_16">
      <g>
       <use style="stroke:#000000;stroke-width:0.8;" x="408.51" xlink:href="#m0c54211be2" y="448.56"/>
      </g>
     </g>
     <g id="text_8">
      <!-- 0.7 -->
      <defs>
       <path d="M 8.203125 72.90625 
L 55.078125 72.90625 
L 55.078125 68.703125 
L 28.609375 0 
L 18.3125 0 
L 43.21875 64.59375 
L 8.203125 64.59375 
z
" id="DejaVuSans-55"/>
      </defs>
      <g transform="translate(400.558438 463.158437)scale(0.1 -0.1)">
       <use xlink:href="#DejaVuSans-48"/>
       <use x="63.623047" xlink:href="#DejaVuSans-46"/>
       <use x="95.410156" xlink:href="#DejaVuSans-55"/>
      </g>
     </g>
    </g>
    <g id="xtick_9">
     <g id="line2d_17">
      <path clip-path="url(#pe176e97c36)" d="M 455.94 448.56 
L 455.94 60.48 
" style="fill:none;stroke:#b0b0b0;stroke-linecap:square;stroke-width:0.8;"/>
     </g>
     <g id="line2d_18">
      <g>
       <use style="stroke:#000000;stroke-width:0.8;" x="455.94" xlink:href="#m0c54211be2" y="448.56"/>
      </g>
     </g>
     <g id="text_9">
      <!-- 0.8 -->
      <defs>
       <path d="M 31.78125 34.625 
Q 24.75 34.625 20.71875 30.859375 
Q 16.703125 27.09375 16.703125 20.515625 
Q 16.703125 13.921875 20.71875 10.15625 
Q 24.75 6.390625 31.78125 6.390625 
Q 38.8125 6.390625 42.859375 10.171875 
Q 46.921875 13.96875 46.921875 20.515625 
Q 46.921875 27.09375 42.890625 30.859375 
Q 38.875 34.625 31.78125 34.625 
z
M 21.921875 38.8125 
Q 15.578125 40.375 12.03125 44.71875 
Q 8.5 49.078125 8.5 55.328125 
Q 8.5 64.0625 14.71875 69.140625 
Q 20.953125 74.21875 31.78125 74.21875 
Q 42.671875 74.21875 48.875 69.140625 
Q 55.078125 64.0625 55.078125 55.328125 
Q 55.078125 49.078125 51.53125 44.71875 
Q 48 40.375 41.703125 38.8125 
Q 48.828125 37.15625 52.796875 32.3125 
Q 56.78125 27.484375 56.78125 20.515625 
Q 56.78125 9.90625 50.3125 4.234375 
Q 43.84375 -1.421875 31.78125 -1.421875 
Q 19.734375 -1.421875 13.25 4.234375 
Q 6.78125 9.90625 6.78125 20.515625 
Q 6.78125 27.484375 10.78125 32.3125 
Q 14.796875 37.15625 21.921875 38.8125 
z
M 18.3125 54.390625 
Q 18.3125 48.734375 21.84375 45.5625 
Q 25.390625 42.390625 31.78125 42.390625 
Q 38.140625 42.390625 41.71875 45.5625 
Q 45.3125 48.734375 45.3125 54.390625 
Q 45.3125 60.0625 41.71875 63.234375 
Q 38.140625 66.40625 31.78125 66.40625 
Q 25.390625 66.40625 21.84375 63.234375 
Q 18.3125 60.0625 18.3125 54.390625 
z
" id="DejaVuSans-56"/>
      </defs>
      <g transform="translate(447.988438 463.158437)scale(0.1 -0.1)">
       <use xlink:href="#DejaVuSans-48"/>
       <use x="63.623047" xlink:href="#DejaVuSans-46"/>
       <use x="95.410156" xlink:href="#DejaVuSans-56"/>
      </g>
     </g>
    </g>
    <g id="xtick_10">
     <g id="line2d_19">
      <path clip-path="url(#pe176e97c36)" d="M 503.37 448.56 
L 503.37 60.48 
" style="fill:none;stroke:#b0b0b0;stroke-linecap:square;stroke-width:0.8;"/>
     </g>
     <g id="line2d_20">
      <g>
       <use style="stroke:#000000;stroke-width:0.8;" x="503.37" xlink:href="#m0c54211be2" y="448.56"/>
      </g>
     </g>
     <g id="text_10">
      <!-- 0.9 -->
      <defs>
       <path d="M 10.984375 1.515625 
L 10.984375 10.5 
Q 14.703125 8.734375 18.5 7.8125 
Q 22.3125 6.890625 25.984375 6.890625 
Q 35.75 6.890625 40.890625 13.453125 
Q 46.046875 20.015625 46.78125 33.40625 
Q 43.953125 29.203125 39.59375 26.953125 
Q 35.25 24.703125 29.984375 24.703125 
Q 19.046875 24.703125 12.671875 31.3125 
Q 6.296875 37.9375 6.296875 49.421875 
Q 6.296875 60.640625 12.9375 67.421875 
Q 19.578125 74.21875 30.609375 74.21875 
Q 43.265625 74.21875 49.921875 64.515625 
Q 56.59375 54.828125 56.59375 36.375 
Q 56.59375 19.140625 48.40625 8.859375 
Q 40.234375 -1.421875 26.421875 -1.421875 
Q 22.703125 -1.421875 18.890625 -0.6875 
Q 15.09375 0.046875 10.984375 1.515625 
z
M 30.609375 32.421875 
Q 37.25 32.421875 41.125 36.953125 
Q 45.015625 41.5 45.015625 49.421875 
Q 45.015625 57.28125 41.125 61.84375 
Q 37.25 66.40625 30.609375 66.40625 
Q 23.96875 66.40625 20.09375 61.84375 
Q 16.21875 57.28125 16.21875 49.421875 
Q 16.21875 41.5 20.09375 36.953125 
Q 23.96875 32.421875 30.609375 32.421875 
z
" id="DejaVuSans-57"/>
      </defs>
      <g transform="translate(495.418438 463.158437)scale(0.1 -0.1)">
       <use xlink:href="#DejaVuSans-48"/>
       <use x="63.623047" xlink:href="#DejaVuSans-46"/>
       <use x="95.410156" xlink:href="#DejaVuSans-57"/>
      </g>
     </g>
    </g>
    <g id="xtick_11">
     <g id="line2d_21">
      <path clip-path="url(#pe176e97c36)" d="M 550.8 448.56 
L 550.8 60.48 
" style="fill:none;stroke:#b0b0b0;stroke-linecap:square;stroke-width:0.8;"/>
     </g>
     <g id="line2d_22">
      <g>
       <use style="stroke:#000000;stroke-width:0.8;" x="550.8" xlink:href="#m0c54211be2" y="448.56"/>
      </g>
     </g>
     <g id="text_11">
      <!-- 1.0 -->
      <g transform="translate(542.848438 463.158437)scale(0.1 -0.1)">
       <use xlink:href="#DejaVuSans-49"/>
       <use x="63.623047" xlink:href="#DejaVuSans-46"/>
       <use x="95.410156" xlink:href="#DejaVuSans-48"/>
      </g>
     </g>
    </g>
    <g id="text_12">
     <!-- 1-precision -->
     <defs>
      <path d="M 4.890625 31.390625 
L 31.203125 31.390625 
L 31.203125 23.390625 
L 4.890625 23.390625 
z
" id="DejaVuSans-45"/>
      <path d="M 18.109375 8.203125 
L 18.109375 -20.796875 
L 9.078125 -20.796875 
L 9.078125 54.6875 
L 18.109375 54.6875 
L 18.109375 46.390625 
Q 20.953125 51.265625 25.265625 53.625 
Q 29.59375 56 35.59375 56 
Q 45.5625 56 51.78125 48.09375 
Q 58.015625 40.1875 58.015625 27.296875 
Q 58.015625 14.40625 51.78125 6.484375 
Q 45.5625 -1.421875 35.59375 -1.421875 
Q 29.59375 -1.421875 25.265625 0.953125 
Q 20.953125 3.328125 18.109375 8.203125 
z
M 48.6875 27.296875 
Q 48.6875 37.203125 44.609375 42.84375 
Q 40.53125 48.484375 33.40625 48.484375 
Q 26.265625 48.484375 22.1875 42.84375 
Q 18.109375 37.203125 18.109375 27.296875 
Q 18.109375 17.390625 22.1875 11.75 
Q 26.265625 6.109375 33.40625 6.109375 
Q 40.53125 6.109375 44.609375 11.75 
Q 48.6875 17.390625 48.6875 27.296875 
z
" id="DejaVuSans-112"/>
      <path d="M 41.109375 46.296875 
Q 39.59375 47.171875 37.8125 47.578125 
Q 36.03125 48 33.890625 48 
Q 26.265625 48 22.1875 43.046875 
Q 18.109375 38.09375 18.109375 28.8125 
L 18.109375 0 
L 9.078125 0 
L 9.078125 54.6875 
L 18.109375 54.6875 
L 18.109375 46.1875 
Q 20.953125 51.171875 25.484375 53.578125 
Q 30.03125 56 36.53125 56 
Q 37.453125 56 38.578125 55.875 
Q 39.703125 55.765625 41.0625 55.515625 
z
" id="DejaVuSans-114"/>
      <path d="M 56.203125 29.59375 
L 56.203125 25.203125 
L 14.890625 25.203125 
Q 15.484375 15.921875 20.484375 11.0625 
Q 25.484375 6.203125 34.421875 6.203125 
Q 39.59375 6.203125 44.453125 7.46875 
Q 49.3125 8.734375 54.109375 11.28125 
L 54.109375 2.78125 
Q 49.265625 0.734375 44.1875 -0.34375 
Q 39.109375 -1.421875 33.890625 -1.421875 
Q 20.796875 -1.421875 13.15625 6.1875 
Q 5.515625 13.8125 5.515625 26.8125 
Q 5.515625 40.234375 12.765625 48.109375 
Q 20.015625 56 32.328125 56 
Q 43.359375 56 49.78125 48.890625 
Q 56.203125 41.796875 56.203125 29.59375 
z
M 47.21875 32.234375 
Q 47.125 39.59375 43.09375 43.984375 
Q 39.0625 48.390625 32.421875 48.390625 
Q 24.90625 48.390625 20.390625 44.140625 
Q 15.875 39.890625 15.1875 32.171875 
z
" id="DejaVuSans-101"/>
      <path d="M 48.78125 52.59375 
L 48.78125 44.1875 
Q 44.96875 46.296875 41.140625 47.34375 
Q 37.3125 48.390625 33.40625 48.390625 
Q 24.65625 48.390625 19.8125 42.84375 
Q 14.984375 37.3125 14.984375 27.296875 
Q 14.984375 17.28125 19.8125 11.734375 
Q 24.65625 6.203125 33.40625 6.203125 
Q 37.3125 6.203125 41.140625 7.25 
Q 44.96875 8.296875 48.78125 10.40625 
L 48.78125 2.09375 
Q 45.015625 0.34375 40.984375 -0.53125 
Q 36.96875 -1.421875 32.421875 -1.421875 
Q 20.0625 -1.421875 12.78125 6.34375 
Q 5.515625 14.109375 5.515625 27.296875 
Q 5.515625 40.671875 12.859375 48.328125 
Q 20.21875 56 33.015625 56 
Q 37.15625 56 41.109375 55.140625 
Q 45.0625 54.296875 48.78125 52.59375 
z
" id="DejaVuSans-99"/>
      <path d="M 9.421875 54.6875 
L 18.40625 54.6875 
L 18.40625 0 
L 9.421875 0 
z
M 9.421875 75.984375 
L 18.40625 75.984375 
L 18.40625 64.59375 
L 9.421875 64.59375 
z
" id="DejaVuSans-105"/>
      <path d="M 44.28125 53.078125 
L 44.28125 44.578125 
Q 40.484375 46.53125 36.375 47.5 
Q 32.28125 48.484375 27.875 48.484375 
Q 21.1875 48.484375 17.84375 46.4375 
Q 14.5 44.390625 14.5 40.28125 
Q 14.5 37.15625 16.890625 35.375 
Q 19.28125 33.59375 26.515625 31.984375 
L 29.59375 31.296875 
Q 39.15625 29.25 43.1875 25.515625 
Q 47.21875 21.78125 47.21875 15.09375 
Q 47.21875 7.46875 41.1875 3.015625 
Q 35.15625 -1.421875 24.609375 -1.421875 
Q 20.21875 -1.421875 15.453125 -0.5625 
Q 10.6875 0.296875 5.421875 2 
L 5.421875 11.28125 
Q 10.40625 8.6875 15.234375 7.390625 
Q 20.0625 6.109375 24.8125 6.109375 
Q 31.15625 6.109375 34.5625 8.28125 
Q 37.984375 10.453125 37.984375 14.40625 
Q 37.984375 18.0625 35.515625 20.015625 
Q 33.0625 21.96875 24.703125 23.78125 
L 21.578125 24.515625 
Q 13.234375 26.265625 9.515625 29.90625 
Q 5.8125 33.546875 5.8125 39.890625 
Q 5.8125 47.609375 11.28125 51.796875 
Q 16.75 56 26.8125 56 
Q 31.78125 56 36.171875 55.265625 
Q 40.578125 54.546875 44.28125 53.078125 
z
" id="DejaVuSans-115"/>
      <path d="M 30.609375 48.390625 
Q 23.390625 48.390625 19.1875 42.75 
Q 14.984375 37.109375 14.984375 27.296875 
Q 14.984375 17.484375 19.15625 11.84375 
Q 23.34375 6.203125 30.609375 6.203125 
Q 37.796875 6.203125 41.984375 11.859375 
Q 46.1875 17.53125 46.1875 27.296875 
Q 46.1875 37.015625 41.984375 42.703125 
Q 37.796875 48.390625 30.609375 48.390625 
z
M 30.609375 56 
Q 42.328125 56 49.015625 48.375 
Q 55.71875 40.765625 55.71875 27.296875 
Q 55.71875 13.875 49.015625 6.21875 
Q 42.328125 -1.421875 30.609375 -1.421875 
Q 18.84375 -1.421875 12.171875 6.21875 
Q 5.515625 13.875 5.515625 27.296875 
Q 5.515625 40.765625 12.171875 48.375 
Q 18.84375 56 30.609375 56 
z
" id="DejaVuSans-111"/>
      <path d="M 54.890625 33.015625 
L 54.890625 0 
L 45.90625 0 
L 45.90625 32.71875 
Q 45.90625 40.484375 42.875 44.328125 
Q 39.84375 48.1875 33.796875 48.1875 
Q 26.515625 48.1875 22.3125 43.546875 
Q 18.109375 38.921875 18.109375 30.90625 
L 18.109375 0 
L 9.078125 0 
L 9.078125 54.6875 
L 18.109375 54.6875 
L 18.109375 46.1875 
Q 21.34375 51.125 25.703125 53.5625 
Q 30.078125 56 35.796875 56 
Q 45.21875 56 50.046875 50.171875 
Q 54.890625 44.34375 54.890625 33.015625 
z
" id="DejaVuSans-110"/>
     </defs>
     <g transform="translate(286.110938 476.836563)scale(0.1 -0.1)">
      <use xlink:href="#DejaVuSans-49"/>
      <use x="63.623047" xlink:href="#DejaVuSans-45"/>
      <use x="99.707031" xlink:href="#DejaVuSans-112"/>
      <use x="163.183594" xlink:href="#DejaVuSans-114"/>
      <use x="202.046875" xlink:href="#DejaVuSans-101"/>
      <use x="263.570312" xlink:href="#DejaVuSans-99"/>
      <use x="318.550781" xlink:href="#DejaVuSans-105"/>
      <use x="346.333984" xlink:href="#DejaVuSans-115"/>
      <use x="398.433594" xlink:href="#DejaVuSans-105"/>
      <use x="426.216797" xlink:href="#DejaVuSans-111"/>
      <use x="487.398438" xlink:href="#DejaVuSans-110"/>
     </g>
    </g>
   </g>
   <g id="matplotlib.axis_2">
    <g id="ytick_1">
     <g id="line2d_23">
      <path clip-path="url(#pe176e97c36)" d="M 76.5 448.56 
L 550.8 448.56 
" style="fill:none;stroke:#b0b0b0;stroke-linecap:square;stroke-width:0.8;"/>
     </g>
     <g id="line2d_24">
      <defs>
       <path d="M 0 0 
L -3.5 0 
" id="mf0a132d130" style="stroke:#000000;stroke-width:0.8;"/>
      </defs>
      <g>
       <use style="stroke:#000000;stroke-width:0.8;" x="76.5" xlink:href="#mf0a132d130" y="448.56"/>
      </g>
     </g>
     <g id="text_13">
      <!-- 0.0 -->
      <g transform="translate(53.596875 452.359219)scale(0.1 -0.1)">
       <use xlink:href="#DejaVuSans-48"/>
       <use x="63.623047" xlink:href="#DejaVuSans-46"/>
       <use x="95.410156" xlink:href="#DejaVuSans-48"/>
      </g>
     </g>
    </g>
    <g id="ytick_2">
     <g id="line2d_25">
      <path clip-path="url(#pe176e97c36)" d="M 76.5 409.752 
L 550.8 409.752 
" style="fill:none;stroke:#b0b0b0;stroke-linecap:square;stroke-width:0.8;"/>
     </g>
     <g id="line2d_26">
      <g>
       <use style="stroke:#000000;stroke-width:0.8;" x="76.5" xlink:href="#mf0a132d130" y="409.752"/>
      </g>
     </g>
     <g id="text_14">
      <!-- 0.1 -->
      <g transform="translate(53.596875 413.551219)scale(0.1 -0.1)">
       <use xlink:href="#DejaVuSans-48"/>
       <use x="63.623047" xlink:href="#DejaVuSans-46"/>
       <use x="95.410156" xlink:href="#DejaVuSans-49"/>
      </g>
     </g>
    </g>
    <g id="ytick_3">
     <g id="line2d_27">
      <path clip-path="url(#pe176e97c36)" d="M 76.5 370.944 
L 550.8 370.944 
" style="fill:none;stroke:#b0b0b0;stroke-linecap:square;stroke-width:0.8;"/>
     </g>
     <g id="line2d_28">
      <g>
       <use style="stroke:#000000;stroke-width:0.8;" x="76.5" xlink:href="#mf0a132d130" y="370.944"/>
      </g>
     </g>
     <g id="text_15">
      <!-- 0.2 -->
      <g transform="translate(53.596875 374.743219)scale(0.1 -0.1)">
       <use xlink:href="#DejaVuSans-48"/>
       <use x="63.623047" xlink:href="#DejaVuSans-46"/>
       <use x="95.410156" xlink:href="#DejaVuSans-50"/>
      </g>
     </g>
    </g>
    <g id="ytick_4">
     <g id="line2d_29">
      <path clip-path="url(#pe176e97c36)" d="M 76.5 332.136 
L 550.8 332.136 
" style="fill:none;stroke:#b0b0b0;stroke-linecap:square;stroke-width:0.8;"/>
     </g>
     <g id="line2d_30">
      <g>
       <use style="stroke:#000000;stroke-width:0.8;" x="76.5" xlink:href="#mf0a132d130" y="332.136"/>
      </g>
     </g>
     <g id="text_16">
      <!-- 0.3 -->
      <g transform="translate(53.596875 335.935219)scale(0.1 -0.1)">
       <use xlink:href="#DejaVuSans-48"/>
       <use x="63.623047" xlink:href="#DejaVuSans-46"/>
       <use x="95.410156" xlink:href="#DejaVuSans-51"/>
      </g>
     </g>
    </g>
    <g id="ytick_5">
     <g id="line2d_31">
      <path clip-path="url(#pe176e97c36)" d="M 76.5 293.328 
L 550.8 293.328 
" style="fill:none;stroke:#b0b0b0;stroke-linecap:square;stroke-width:0.8;"/>
     </g>
     <g id="line2d_32">
      <g>
       <use style="stroke:#000000;stroke-width:0.8;" x="76.5" xlink:href="#mf0a132d130" y="293.328"/>
      </g>
     </g>
     <g id="text_17">
      <!-- 0.4 -->
      <g transform="translate(53.596875 297.127219)scale(0.1 -0.1)">
       <use xlink:href="#DejaVuSans-48"/>
       <use x="63.623047" xlink:href="#DejaVuSans-46"/>
       <use x="95.410156" xlink:href="#DejaVuSans-52"/>
      </g>
     </g>
    </g>
    <g id="ytick_6">
     <g id="line2d_33">
      <path clip-path="url(#pe176e97c36)" d="M 76.5 254.52 
L 550.8 254.52 
" style="fill:none;stroke:#b0b0b0;stroke-linecap:square;stroke-width:0.8;"/>
     </g>
     <g id="line2d_34">
      <g>
       <use style="stroke:#000000;stroke-width:0.8;" x="76.5" xlink:href="#mf0a132d130" y="254.52"/>
      </g>
     </g>
     <g id="text_18">
      <!-- 0.5 -->
      <g transform="translate(53.596875 258.319219)scale(0.1 -0.1)">
       <use xlink:href="#DejaVuSans-48"/>
       <use x="63.623047" xlink:href="#DejaVuSans-46"/>
       <use x="95.410156" xlink:href="#DejaVuSans-53"/>
      </g>
     </g>
    </g>
    <g id="ytick_7">
     <g id="line2d_35">
      <path clip-path="url(#pe176e97c36)" d="M 76.5 215.712 
L 550.8 215.712 
" style="fill:none;stroke:#b0b0b0;stroke-linecap:square;stroke-width:0.8;"/>
     </g>
     <g id="line2d_36">
      <g>
       <use style="stroke:#000000;stroke-width:0.8;" x="76.5" xlink:href="#mf0a132d130" y="215.712"/>
      </g>
     </g>
     <g id="text_19">
      <!-- 0.6 -->
      <g transform="translate(53.596875 219.511219)scale(0.1 -0.1)">
       <use xlink:href="#DejaVuSans-48"/>
       <use x="63.623047" xlink:href="#DejaVuSans-46"/>
       <use x="95.410156" xlink:href="#DejaVuSans-54"/>
      </g>
     </g>
    </g>
    <g id="ytick_8">
     <g id="line2d_37">
      <path clip-path="url(#pe176e97c36)" d="M 76.5 176.904 
L 550.8 176.904 
" style="fill:none;stroke:#b0b0b0;stroke-linecap:square;stroke-width:0.8;"/>
     </g>
     <g id="line2d_38">
      <g>
       <use style="stroke:#000000;stroke-width:0.8;" x="76.5" xlink:href="#mf0a132d130" y="176.904"/>
      </g>
     </g>
     <g id="text_20">
      <!-- 0.7 -->
      <g transform="translate(53.596875 180.703219)scale(0.1 -0.1)">
       <use xlink:href="#DejaVuSans-48"/>
       <use x="63.623047" xlink:href="#DejaVuSans-46"/>
       <use x="95.410156" xlink:href="#DejaVuSans-55"/>
      </g>
     </g>
    </g>
    <g id="ytick_9">
     <g id="line2d_39">
      <path clip-path="url(#pe176e97c36)" d="M 76.5 138.096 
L 550.8 138.096 
" style="fill:none;stroke:#b0b0b0;stroke-linecap:square;stroke-width:0.8;"/>
     </g>
     <g id="line2d_40">
      <g>
       <use style="stroke:#000000;stroke-width:0.8;" x="76.5" xlink:href="#mf0a132d130" y="138.096"/>
      </g>
     </g>
     <g id="text_21">
      <!-- 0.8 -->
      <g transform="translate(53.596875 141.895219)scale(0.1 -0.1)">
       <use xlink:href="#DejaVuSans-48"/>
       <use x="63.623047" xlink:href="#DejaVuSans-46"/>
       <use x="95.410156" xlink:href="#DejaVuSans-56"/>
      </g>
     </g>
    </g>
    <g id="ytick_10">
     <g id="line2d_41">
      <path clip-path="url(#pe176e97c36)" d="M 76.5 99.288 
L 550.8 99.288 
" style="fill:none;stroke:#b0b0b0;stroke-linecap:square;stroke-width:0.8;"/>
     </g>
     <g id="line2d_42">
      <g>
       <use style="stroke:#000000;stroke-width:0.8;" x="76.5" xlink:href="#mf0a132d130" y="99.288"/>
      </g>
     </g>
     <g id="text_22">
      <!-- 0.9 -->
      <g transform="translate(53.596875 103.087219)scale(0.1 -0.1)">
       <use xlink:href="#DejaVuSans-48"/>
       <use x="63.623047" xlink:href="#DejaVuSans-46"/>
       <use x="95.410156" xlink:href="#DejaVuSans-57"/>
      </g>
     </g>
    </g>
    <g id="ytick_11">
     <g id="line2d_43">
      <path clip-path="url(#pe176e97c36)" d="M 76.5 60.48 
L 550.8 60.48 
" style="fill:none;stroke:#b0b0b0;stroke-linecap:square;stroke-width:0.8;"/>
     </g>
     <g id="line2d_44">
      <g>
       <use style="stroke:#000000;stroke-width:0.8;" x="76.5" xlink:href="#mf0a132d130" y="60.48"/>
      </g>
     </g>
     <g id="text_23">
      <!-- 1.0 -->
      <g transform="translate(53.596875 64.279219)scale(0.1 -0.1)">
       <use xlink:href="#DejaVuSans-49"/>
       <use x="63.623047" xlink:href="#DejaVuSans-46"/>
       <use x="95.410156" xlink:href="#DejaVuSans-48"/>
      </g>
     </g>
    </g>
    <g id="text_24">
     <!-- #correct/618 -->
     <defs>
      <path d="M 51.125 44 
L 36.921875 44 
L 32.8125 27.6875 
L 47.125 27.6875 
z
M 43.796875 71.78125 
L 38.71875 51.515625 
L 52.984375 51.515625 
L 58.109375 71.78125 
L 65.921875 71.78125 
L 60.890625 51.515625 
L 76.125 51.515625 
L 76.125 44 
L 58.984375 44 
L 54.984375 27.6875 
L 70.515625 27.6875 
L 70.515625 20.21875 
L 53.078125 20.21875 
L 48 0 
L 40.1875 0 
L 45.21875 20.21875 
L 30.90625 20.21875 
L 25.875 0 
L 18.015625 0 
L 23.09375 20.21875 
L 7.71875 20.21875 
L 7.71875 27.6875 
L 24.90625 27.6875 
L 29 44 
L 13.28125 44 
L 13.28125 51.515625 
L 30.90625 51.515625 
L 35.890625 71.78125 
z
" id="DejaVuSans-35"/>
      <path d="M 18.3125 70.21875 
L 18.3125 54.6875 
L 36.8125 54.6875 
L 36.8125 47.703125 
L 18.3125 47.703125 
L 18.3125 18.015625 
Q 18.3125 11.328125 20.140625 9.421875 
Q 21.96875 7.515625 27.59375 7.515625 
L 36.8125 7.515625 
L 36.8125 0 
L 27.59375 0 
Q 17.1875 0 13.234375 3.875 
Q 9.28125 7.765625 9.28125 18.015625 
L 9.28125 47.703125 
L 2.6875 47.703125 
L 2.6875 54.6875 
L 9.28125 54.6875 
L 9.28125 70.21875 
z
" id="DejaVuSans-116"/>
      <path d="M 25.390625 72.90625 
L 33.6875 72.90625 
L 8.296875 -9.28125 
L 0 -9.28125 
z
" id="DejaVuSans-47"/>
     </defs>
     <g transform="translate(47.517187 287.443438)rotate(-90)scale(0.1 -0.1)">
      <use xlink:href="#DejaVuSans-35"/>
      <use x="83.789062" xlink:href="#DejaVuSans-99"/>
      <use x="138.769531" xlink:href="#DejaVuSans-111"/>
      <use x="199.951172" xlink:href="#DejaVuSans-114"/>
      <use x="239.314453" xlink:href="#DejaVuSans-114"/>
      <use x="278.177734" xlink:href="#DejaVuSans-101"/>
      <use x="339.701172" xlink:href="#DejaVuSans-99"/>
      <use x="394.681641" xlink:href="#DejaVuSans-116"/>
      <use x="433.890625" xlink:href="#DejaVuSans-47"/>
      <use x="467.582031" xlink:href="#DejaVuSans-54"/>
      <use x="531.205078" xlink:href="#DejaVuSans-49"/>
      <use x="594.828125" xlink:href="#DejaVuSans-56"/>
     </g>
    </g>
   </g>
   <g id="line2d_45">
    <path clip-path="url(#pe176e97c36)" d="M 550.8 448.56 
L 313.65 447.932039 
L 234.6 447.304078 
L 313.65 447.304078 
L 266.22 446.676117 
L 313.65 446.676117 
L 279.771429 446.048155 
L 361.08 446.048155 
L 335.209091 445.420194 
L 411.3 445.420194 
L 392.7 444.792233 
L 455.94 444.792233 
L 443.7 444.164272 
L 447.046875 444.164272 
L 435.818182 443.536311 
L 474.912 443.536311 
L 459.588462 442.280388 
L 494.335714 442.280388 
L 489.42 441.652427 
L 490.133721 441.652427 
L 493.467033 441.652427 
L 488.934783 441.024466 
L 489.6 441.024466 
L 492.123711 441.024466 
L 487.882653 440.396505 
L 488.518182 440.396505 
L 489.751485 440.396505 
L 485.7 439.768544 
L 486.332039 439.768544 
L 488.742056 439.768544 
L 484.925 439.140583 
L 485.529358 439.140583 
L 487.839823 439.140583 
L 484.231579 438.512621 
L 484.810435 438.512621 
L 490.571429 438.512621 
L 487.311024 437.88466 
L 487.807031 437.88466 
L 495.573288 437.88466 
L 492.722449 437.256699 
L 493.114865 437.256699 
L 499.36988 437.256699 
L 496.837725 436.628738 
L 497.158929 436.628738 
L 499.597159 436.628738 
L 497.20678 436.000777 
L 497.507865 436.000777 
L 498.39116 436.000777 
L 496.073077 435.372816 
L 496.372131 435.372816 
L 496.667935 435.372816 
L 494.396757 434.744854 
L 494.7 434.744854 
L 495.590476 434.744854 
L 493.384737 434.116893 
L 493.68534 434.116893 
L 497.585854 434.116893 
L 495.541748 433.488932 
L 495.808696 433.488932 
L 499.058182 433.488932 
L 497.146154 432.860971 
L 497.387838 432.860971 
L 501.187029 432.860971 
L 499.4175 432.23301 
L 499.630705 432.23301 
L 503.911027 432.23301 
L 500.873684 430.977087 
L 501.246269 430.977087 
L 499.667286 430.349126 
L 499.856667 430.349126 
L 501.5 430.349126 
L 499.982143 429.721165 
L 500.162989 429.721165 
L 501.39375 429.721165 
L 497.197603 427.837282 
L 498.627 427.837282 
L 497.224585 427.20932 
L 497.401987 427.20932 
L 497.578218 427.20932 
L 496.193092 426.581359 
L 496.372131 426.581359 
L 496.902273 426.581359 
L 495.541748 425.953398 
L 495.72 425.953398 
L 497.607477 425.953398 
L 496.299689 425.325437 
L 496.468421 425.325437 
L 496.802769 425.325437 
L 494.23211 424.069515 
L 494.404573 424.069515 
L 498.398584 424.069515 
L 497.20678 423.441553 
L 497.357746 423.441553 
L 499.524324 423.441553 
L 498.384097 422.813592 
L 498.525 422.813592 
L 499.218302 422.813592 
L 498.1 422.185631 
L 498.23905 422.185631 
L 499.058182 422.185631 
L 496.874419 420.929709 
L 497.013402 420.929709 
L 498.496241 420.929709 
L 497.44125 420.301748 
L 497.574314 420.301748 
L 500.697887 420.301748 
L 499.70445 419.673786 
L 499.823832 419.673786 
L 502.637086 419.673786 
L 500.763956 418.417864 
L 500.873684 418.417864 
L 501.307826 418.417864 
L 500.386334 417.789903 
L 500.495455 417.789903 
L 501.140385 417.789903 
L 498.435669 415.906019 
L 498.54661 415.906019 
L 498.985714 415.906019 
L 497.329854 414.650097 
L 497.772671 414.650097 
L 496.902273 414.022136 
L 497.013402 414.022136 
L 497.670672 414.022136 
L 496.814634 413.394175 
L 496.924138 413.394175 
L 497.033198 413.394175 
L 496.183636 412.766214 
L 496.29375 412.766214 
L 496.512651 412.766214 
L 495.670942 412.138252 
L 495.7812 412.138252 
L 497.175439 412.138252 
L 496.357004 411.510291 
L 496.462718 411.510291 
L 497.800568 411.510291 
L 497.004159 410.88233 
L 497.10566 410.88233 
L 497.40788 410.88233 
L 495.93694 409.626408 
L 496.039106 409.626408 
L 493.813863 407.742524 
L 494.335714 407.742524 
L 493.571846 407.114563 
L 493.676277 407.114563 
L 494.396757 407.114563 
L 492.15 405.23068 
L 492.254919 405.23068 
L 492.67087 405.23068 
L 491.932979 404.602718 
L 492.037168 404.602718 
L 492.756294 404.602718 
L 492.029843 403.974757 
L 492.13223 403.974757 
L 493.235385 403.974757 
L 492.524232 403.346796 
L 492.623509 403.346796 
L 493.017259 403.346796 
L 492.313682 402.718835 
L 492.41231 402.718835 
L 492.900502 402.718835 
L 492.205342 402.090874 
L 492.303 402.090874 
L 492.786446 402.090874 
L 492.099505 401.462913 
L 492.196211 401.462913 
L 492.292599 401.462913 
L 490.929344 400.20699 
L 491.027332 400.20699 
L 491.319381 400.20699 
L 490.071151 398.951068 
L 490.752404 398.951068 
L 490.0896 398.323107 
L 490.186581 398.323107 
L 491.045669 398.323107 
L 490.393868 397.695146 
L 490.488697 397.695146 
L 490.677465 397.695146 
L 490.030313 397.067184 
L 490.125117 397.067184 
L 492.577545 397.067184 
L 491.955605 396.439223 
L 492.043433 396.439223 
L 492.478667 396.439223 
L 491.249778 395.183301 
L 491.337611 395.183301 
L 491.686364 395.183301 
L 491.078477 394.55534 
L 491.165789 394.55534 
L 491.94026 394.55534 
L 491.341643 393.927379 
L 491.427194 393.927379 
L 492.269362 393.927379 
L 491.680453 393.299417 
L 491.764074 393.299417 
L 492.587448 393.299417 
L 492.007939 392.671456 
L 492.089708 392.671456 
L 492.735763 392.671456 
L 492.164011 392.043495 
L 492.244444 392.043495 
L 492.404651 392.043495 
L 491.836475 391.415534 
L 491.916917 391.415534 
L 492.315854 391.415534 
L 491.75318 390.787573 
L 491.832973 390.787573 
L 491.912551 390.787573 
L 491.352695 390.159612 
L 491.432705 390.159612 
L 492.376291 390.159612 
L 491.277543 388.903689 
L 491.356069 388.903689 
L 491.434387 388.903689 
L 490.888421 388.275728 
L 490.967148 388.275728 
L 491.202094 388.275728 
L 490.66 387.647767 
L 490.738512 387.647767 
L 492.042529 387.647767 
L 491.5125 387.019806 
L 491.588025 387.019806 
L 491.888213 387.019806 
L 491.362405 386.391845 
L 491.437547 386.391845 
L 492.83 386.391845 
L 492.316646 385.763883 
L 492.38867 385.763883 
L 492.532187 385.763883 
L 492.021718 385.135922 
L 492.09375 385.135922 
L 493.703099 385.135922 
L 492.848754 383.88 
L 493.460915 383.88 
L 492.972098 383.252039 
L 493.107368 383.252039 
L 493.376019 383.252039 
L 492.891279 382.624078 
L 493.025638 382.624078 
L 493.092584 382.624078 
L 491.717647 380.740194 
L 491.785714 380.740194 
L 491.921379 380.740194 
L 491.444432 380.112233 
L 491.580412 380.112233 
L 491.715771 380.112233 
L 491.241781 379.484272 
L 491.377449 379.484272 
L 491.445051 379.484272 
L 490.973523 378.856311 
L 491.109184 378.856311 
L 491.44566 378.856311 
L 490.978378 378.22835 
L 491.112809 378.22835 
L 491.446257 378.22835 
L 490.983147 377.600388 
L 491.11637 377.600388 
L 491.249 377.600388 
L 490.788679 376.972427 
L 490.921595 376.972427 
L 491.119868 376.972427 
L 490.662734 376.344466 
L 490.79505 376.344466 
L 490.926784 376.344466 
L 490.085449 375.088544 
L 490.151803 375.088544 
L 490.218013 375.088544 
L 489.766848 374.460583 
L 489.899674 374.460583 
L 489.96587 374.460583 
L 489.516938 373.832621 
L 489.649729 373.832621 
L 490.240236 373.832621 
L 489.796785 373.20466 
L 489.927273 373.20466 
L 489.992308 373.20466 
L 489.110661 371.948738 
L 489.241915 371.948738 
L 489.437752 371.948738 
L 488.56381 370.692816 
L 488.695248 370.692816 
L 488.760759 370.692816 
L 488.326344 370.064854 
L 488.457729 370.064854 
L 488.913257 370.064854 
L 488.483212 369.436893 
L 488.612903 369.436893 
L 488.998759 369.436893 
L 488.572624 368.808932 
L 488.700928 368.808932 
L 488.764882 368.808932 
L 488.340741 368.180971 
L 488.468994 368.180971 
L 488.532923 368.180971 
L 487.818386 366.925049 
L 488.010794 366.925049 
L 487.17439 365.669126 
L 487.303448 365.669126 
L 487.496057 365.669126 
L 486.73125 364.413204 
L 486.79577 364.413204 
L 486.988554 364.413204 
L 486.57683 363.785243 
L 486.705405 363.785243 
L 486.897305 363.785243 
L 485.736978 361.901359 
L 485.801589 361.901359 
L 486.377362 361.901359 
L 485.974336 361.273398 
L 486.10157 361.273398 
L 486.228306 361.273398 
L 485.827397 360.645437 
L 485.954297 360.645437 
L 486.767213 360.645437 
L 486.371965 360.017476 
L 486.495865 360.017476 
L 486.864723 360.017476 
L 486.472779 359.389515 
L 486.595424 359.389515 
L 486.717602 359.389515 
L 486.327662 358.761553 
L 486.45 358.761553 
L 486.571875 358.761553 
L 485.858074 357.505631 
L 485.91934 357.505631 
L 486.645616 357.505631 
L 486.263374 356.87767 
L 486.383442 356.87767 
L 486.503064 356.87767 
L 486.122727 356.249709 
L 486.2425 356.249709 
L 486.54 356.249709 
L 485.845313 354.993786 
L 485.904959 354.993786 
L 486.201554 354.993786 
L 485.827397 354.365825 
L 485.945852 354.365825 
L 486.063876 354.365825 
L 485.691545 353.737864 
L 485.80971 353.737864 
L 486.567444 353.737864 
L 486.2 353.109903 
L 486.315564 353.109903 
L 486.602671 353.109903 
L 485.625798 351.226019 
L 486.141689 351.226019 
L 485.781722 350.598058 
L 485.895789 350.598058 
L 486.179214 350.598058 
L 485.464865 349.342136 
L 485.57859 349.342136 
L 485.635304 349.342136 
L 484.685455 347.458252 
L 484.799741 347.458252 
L 484.44715 346.830291 
L 484.561552 346.830291 
L 484.618605 346.830291 
L 484.267384 346.20233 
L 484.381701 346.20233 
L 484.495626 346.20233 
L 483.85432 344.946408 
L 483.911538 344.946408 
L 484.309346 344.946408 
L 483.329721 343.062524 
L 483.386802 343.062524 
L 483.500676 343.062524 
L 482.814334 341.806602 
L 482.928788 341.806602 
L 483.099748 341.806602 
L 482.758641 341.178641 
L 482.872613 341.178641 
L 483.21225 341.178641 
L 482.873605 340.55068 
L 482.986534 340.55068 
L 483.042857 340.55068 
L 482.146154 338.666796 
L 482.372547 338.666796 
L 482.038221 338.038835 
L 482.151316 338.038835 
L 482.711256 338.038835 
L 482.380196 337.410874 
L 482.491538 337.410874 
L 482.823401 337.410874 
L 482.49466 336.782913 
L 482.605008 336.782913 
L 483.313669 336.782913 
L 482.988738 336.154951 
L 483.09689 336.154951 
L 483.738626 336.154951 
L 483.417206 335.52699 
L 483.523404 335.52699 
L 483.84 335.52699 
L 483.520768 334.899029 
L 483.626056 334.899029 
L 484.302479 334.899029 
L 483.986842 334.271068 
L 484.090108 334.271068 
L 484.703063 334.271068 
L 484.390742 333.643107 
L 484.492208 333.643107 
L 486.314933 333.643107 
L 486.01069 333.015146 
L 486.106746 333.015146 
L 487.65152 333.015146 
L 487.35423 332.387184 
L 487.445848 332.387184 
L 487.719123 332.387184 
L 487.128715 331.131262 
L 487.22 331.131262 
L 487.717425 331.131262 
L 487.42516 330.503301 
L 487.515117 330.503301 
L 487.694268 330.503301 
L 487.403465 329.87534 
L 487.493008 329.87534 
L 487.62685 329.87534 
L 487.337324 329.247379 
L 487.426582 329.247379 
L 488.693177 329.247379 
L 488.409298 328.619417 
L 488.495117 328.619417 
L 489.21516 328.619417 
L 488.934783 327.991456 
L 489.018725 327.991456 
L 489.227586 327.991456 
L 488.948716 327.363495 
L 489.032186 327.363495 
L 489.239879 327.363495 
L 488.9625 326.735534 
L 489.045503 326.735534 
L 490.304142 326.735534 
L 489.880734 325.479612 
L 489.960471 325.479612 
L 489.690059 324.85165 
L 489.809726 324.85165 
L 489.889244 324.85165 
L 489.350977 323.595728 
L 489.47076 323.595728 
L 489.510584 323.595728 
L 488.787961 321.711845 
L 490.084791 321.711845 
L 489.822863 321.083883 
L 489.938496 321.083883 
L 490.091992 321.083883 
L 489.609629 319.827961 
L 489.686549 319.827961 
L 489.724937 319.827961 
L 489.322167 318.572039 
L 489.399062 318.572039 
L 489.141 317.944078 
L 489.256394 317.944078 
L 489.409583 317.944078 
L 488.973184 316.688155 
L 489.011538 316.688155 
L 489.581192 316.688155 
L 489.327457 316.060194 
L 489.440527 316.060194 
L 489.515677 316.060194 
L 489.262913 315.432233 
L 489.375687 315.432233 
L 489.450641 315.432233 
L 489.022642 314.176311 
L 489.060219 314.176311 
L 489.39637 314.176311 
L 489.146735 313.54835 
L 489.258358 313.54835 
L 489.810467 313.54835 
L 489.353373 312.292427 
L 489.426655 312.292427 
L 489.609096 312.292427 
L 489.118468 311.036505 
L 489.228156 311.036505 
L 489.482586 311.036505 
L 489.238938 310.408544 
L 489.347703 310.408544 
L 489.383873 310.408544 
L 489.141 309.780583 
L 489.249618 309.780583 
L 489.644632 309.780583 
L 489.234866 308.52466 
L 489.270681 308.52466 
L 489.555704 308.52466 
L 489.316667 307.896699 
L 489.423224 307.896699 
L 489.635233 307.896699 
L 489.397526 307.268738 
L 489.503331 307.268738 
L 489.64384 307.268738 
L 489.407216 306.640777 
L 489.512521 306.640777 
L 489.582524 306.640777 
L 489.216629 305.384854 
L 489.944401 305.384854 
L 489.711867 304.756893 
L 489.814767 304.756893 
L 490.324109 304.756893 
L 490.093823 304.128932 
L 490.195 304.128932 
L 490.463164 304.128932 
L 490.234328 303.500971 
L 490.334603 303.500971 
L 490.467786 303.500971 
L 490.239956 302.87301 
L 490.33978 302.87301 
L 490.439276 302.87301 
L 490.212336 302.245049 
L 490.311823 302.245049 
L 490.377966 302.245049 
L 490.151803 301.617087 
L 490.251064 301.617087 
L 491.06577 301.617087 
L 490.842765 300.989126 
L 490.939366 300.989126 
L 491.386087 300.989126 
L 490.944249 299.733204 
L 491.039713 299.733204 
L 491.166525 299.733204 
L 490.94666 299.105243 
L 491.041715 299.105243 
L 492.82188 299.105243 
L 492.608162 298.477282 
L 492.697642 298.477282 
L 493.836332 298.477282 
L 493.474875 297.221359 
L 493.532315 297.221359 
L 493.58964 297.221359 
L 493.201349 295.965437 
L 493.287575 295.965437 
L 493.771351 295.965437 
L 493.564985 295.337476 
L 493.677986 295.337476 
L 493.762445 295.337476 
L 493.379823 294.081553 
L 493.464472 294.081553 
L 494.324782 294.081553 
L 493.920696 292.825631 
L 494.030502 292.825631 
L 494.492484 292.825631 
L 494.092683 291.569709 
L 494.200955 291.569709 
L 494.416262 291.569709 
L 494.217633 290.941748 
L 494.325 290.941748 
L 496.290247 290.941748 
L 496.098124 290.313786 
L 496.198081 290.313786 
L 496.618858 290.313786 
L 496.4285 289.685825 
L 496.526866 289.685825 
L 498.05367 289.685825 
L 497.776545 288.429903 
L 498.122953 288.429903 
L 497.939399 287.801942 
L 498.054214 287.801942 
L 498.777378 287.801942 
L 498.596531 287.173981 
L 498.708077 287.173981 
L 499.648049 287.173981 
L 499.470554 286.546019 
L 499.577982 286.546019 
L 499.770225 286.546019 
L 499.593789 285.918058 
L 499.700291 285.918058 
L 499.975134 285.918058 
L 499.8 285.290097 
L 499.905241 285.290097 
L 499.989122 285.290097 
L 499.814703 284.662136 
L 499.919482 284.662136 
L 500.313744 284.662136 
L 500.14097 284.034175 
L 500.24402 284.034175 
L 500.326158 284.034175 
L 500.15408 283.406214 
L 500.256686 283.406214 
L 500.662982 283.406214 
L 500.423447 282.150291 
L 500.483947 282.150291 
L 500.14476 280.894369 
L 500.245868 280.894369 
L 500.685991 280.894369 
L 500.518196 280.266408 
L 500.61745 280.266408 
L 501.282119 280.266408 
L 501.116706 279.638447 
L 501.213253 279.638447 
L 502.269494 279.638447 
L 502.107605 279.010485 
L 502.218437 279.010485 
L 502.872979 279.010485 
L 502.66209 277.754563 
L 503.335099 277.754563 
L 503.178117 277.126602 
L 503.282972 277.126602 
L 503.456709 277.126602 
L 503.300658 276.498641 
L 503.404595 276.498641 
L 503.968216 276.498641 
L 503.814229 275.87068 
L 503.915564 275.87068 
L 503.966068 275.87068 
L 503.812635 275.242718 
L 503.91361 275.242718 
L 504.21395 275.242718 
L 504.061793 274.614757 
L 504.161342 274.614757 
L 504.539049 274.614757 
L 504.388384 273.986796 
L 504.502458 273.986796 
L 506.118401 273.986796 
L 505.972866 273.358835 
L 506.078912 273.358835 
L 506.453586 273.358835 
L 506.309548 272.730874 
L 506.413636 272.730874 
L 506.737624 272.730874 
L 506.594925 272.102913 
L 506.69732 272.102913 
L 507.583949 272.102913 
L 507.374927 270.84699 
L 507.417033 270.84699 
L 507.998055 270.84699 
L 507.736763 269.591068 
L 507.832581 269.591068 
L 508.14443 269.591068 
L 507.91276 268.335146 
L 507.980214 268.335146 
L 507.993679 268.335146 
L 507.72247 267.079223 
L 507.830502 267.079223 
L 507.91117 267.079223 
L 507.776228 266.451262 
L 507.883619 266.451262 
L 507.897006 266.451262 
L 507.762488 265.823301 
L 507.86958 265.823301 
L 508.134992 265.823301 
L 508.001607 265.19534 
L 508.107152 265.19534 
L 508.575732 265.19534 
L 508.444041 264.567379 
L 508.547066 264.567379 
L 509.167316 264.567379 
L 509.037736 263.939417 
L 509.15 263.939417 
L 509.261662 263.939417 
L 509.132787 263.311456 
L 509.244164 263.311456 
L 509.586892 263.311456 
L 509.459364 262.683495 
L 509.568634 262.683495 
L 509.857218 262.683495 
L 509.730875 262.055534 
L 509.838354 262.055534 
L 512.385192 262.055534 
L 512.385192 262.055534 
" style="fill:none;stroke:#1f77b4;stroke-linecap:square;stroke-width:2;"/>
   </g>
   <g id="line2d_46">
    <path clip-path="url(#pe176e97c36)" d="M 550.8 448.56 
L 313.65 447.932039 
L 234.6 447.304078 
L 195.075 446.676117 
L 313.65 446.676117 
L 279.771429 446.048155 
L 313.65 446.048155 
L 287.3 445.420194 
L 402.58125 445.420194 
L 383.4 444.792233 
L 469.491429 444.792233 
L 458.575 444.164272 
L 463.428947 444.164272 
L 453.507692 443.536311 
L 458.253659 443.536311 
L 449.164286 442.90835 
L 461.86875 442.90835 
L 454.004082 442.280388 
L 466.103571 442.280388 
L 459.268421 441.652427 
L 462.371186 441.652427 
L 455.94 441.024466 
L 461.86875 441.024466 
L 450.190909 439.768544 
L 467.7975 439.768544 
L 462.966667 439.140583 
L 466.103571 439.140583 
L 461.52 438.512621 
L 466.48 438.512621 
L 462.194505 437.88466 
L 463.157609 437.88466 
L 459 437.256699 
L 467.912621 437.256699 
L 464.149038 436.628738 
L 464.974286 436.628738 
L 461.309434 436.000777 
L 467.589474 436.000777 
L 464.188696 435.372816 
L 472.985156 435.372816 
L 469.911628 434.744854 
L 472.929851 434.744854 
L 469.993333 434.116893 
L 472.879286 434.116893 
L 470.068085 433.488932 
L 479.655 433.488932 
L 477.150932 432.860971 
L 477.605556 432.860971 
L 478.936364 432.860971 
L 476.512048 432.23301 
L 477.396429 432.23301 
L 475.02426 431.605049 
L 476.34593 431.605049 
L 474.034682 430.977087 
L 474.475862 430.977087 
L 472.201714 430.349126 
L 472.648295 430.349126 
L 470.410169 429.721165 
L 471.75 429.721165 
L 465.270492 427.837282 
L 466.195135 427.837282 
L 464.1 427.20932 
L 465.47619 427.20932 
L 463.428947 426.581359 
L 465.230412 426.581359 
L 463.236923 425.953398 
L 463.683673 425.953398 
L 461.718274 425.325437 
L 466.429327 425.325437 
L 464.563636 424.697476 
L 464.974286 424.697476 
L 461.309434 423.441553 
L 461.729577 423.441553 
L 458.146047 422.185631 
L 459 422.185631 
L 457.245413 421.55767 
L 461.348684 421.55767 
L 458.002174 420.301748 
L 465.083133 420.301748 
L 460.457143 418.417864 
L 464.235741 418.417864 
L 459.862782 416.533981 
L 460.876952 416.533981 
L 459.453333 415.906019 
L 459.790406 415.906019 
L 456.982418 414.650097 
L 457.664727 414.650097 
L 456.283696 414.022136 
L 457.3 414.022136 
L 455.94 413.394175 
L 458.253659 413.394175 
L 456.928125 412.766214 
L 457.895876 412.766214 
L 456.589726 412.138252 
L 459.102 412.138252 
L 457.830897 411.510291 
L 458.444554 411.510291 
L 457.188158 410.88233 
L 457.495082 410.88233 
L 456.25 410.254369 
L 458.068269 410.254369 
L 456.849201 409.626408 
L 458.326415 409.626408 
L 457.129467 408.998447 
L 457.713084 408.998447 
L 456.529193 408.370485 
L 459.092447 408.370485 
L 456.794595 407.114563 
L 457.633929 407.114563 
L 456.502967 406.486602 
L 458.689565 406.486602 
L 456.486744 405.23068 
L 457.561538 405.23068 
L 456.478977 404.602718 
L 458.318106 404.602718 
L 456.20277 403.346796 
L 456.982418 403.346796 
L 455.94 402.718835 
L 457.725 402.718835 
L 455.686364 401.462913 
L 458.881395 401.462913 
L 457.895876 400.834951 
L 462.014778 400.834951 
L 461.067568 400.20699 
L 463.219424 400.20699 
L 461.373508 398.951068 
L 461.798337 398.951068 
L 460.885308 398.323107 
L 462.762877 398.323107 
L 461.86875 397.695146 
L 463.683673 397.695146 
L 462.807692 397.067184 
L 463.204054 397.067184 
L 462.335056 396.439223 
L 463.705088 396.439223 
L 462.850331 395.811262 
L 465.486938 395.811262 
L 464.655769 395.183301 
L 464.839446 395.183301 
L 466.281132 395.183301 
L 465.46569 394.55534 
L 465.643841 394.55534 
L 464.833125 393.927379 
L 465.01185 393.927379 
L 465.189834 393.927379 
L 464.385093 393.299417 
L 464.563636 393.299417 
L 466.48 393.299417 
L 465.69375 392.671456 
L 465.86499 392.671456 
L 466.205411 392.671456 
L 464.821315 391.415534 
L 466.664912 391.415534 
L 465.905837 390.787573 
L 466.07068 390.787573 
L 467.842586 390.787573 
L 466.519849 389.53165 
L 468.692818 389.53165 
L 467.971875 388.903689 
L 468.123853 388.903689 
L 468.275275 388.903689 
L 466.845438 387.647767 
L 466.998361 387.647767 
L 468.053417 387.647767 
L 467.350449 387.019806 
L 467.5 387.019806 
L 469.110369 387.019806 
L 467.735201 385.763883 
L 467.88042 385.763883 
L 469.584247 385.763883 
L 467.716837 383.88 
L 468.417369 383.88 
L 467.240436 382.624078 
L 467.7975 382.624078 
L 467.146423 381.996117 
L 467.285382 381.996117 
L 467.973311 381.996117 
L 467.329441 381.368155 
L 467.466502 381.368155 
L 467.73928 381.368155 
L 467.1 380.740194 
L 467.236542 380.740194 
L 469.232484 380.740194 
L 468.608108 380.112233 
L 468.738571 380.112233 
L 469.384724 380.112233 
L 468.766981 379.484272 
L 468.895761 379.484272 
L 469.660031 379.484272 
L 468.568421 378.22835 
L 468.822222 378.22835 
L 468.21772 377.600388 
L 468.344769 377.600388 
L 468.723583 377.600388 
L 468.123853 376.972427 
L 468.250076 376.972427 
L 469.246154 376.972427 
L 468.654669 376.344466 
L 468.778195 376.344466 
L 469.26861 376.344466 
L 468.682388 375.716505 
L 468.804769 375.716505 
L 469.531462 375.716505 
L 468.95177 375.088544 
L 469.072312 375.088544 
L 469.550952 375.088544 
L 468.976316 374.460583 
L 469.095766 374.460583 
L 469.214869 374.460583 
L 468.643231 373.832621 
L 468.762645 373.832621 
L 470.398718 373.832621 
L 469.838407 373.20466 
L 469.953409 373.20466 
L 471.640056 373.20466 
L 470.655125 371.948738 
L 471.424691 371.948738 
L 470.344186 370.692816 
L 470.454098 370.692816 
L 470.673025 370.692816 
L 470.136735 370.064854 
L 470.246332 370.064854 
L 470.681757 370.064854 
L 469.619272 368.808932 
L 469.728533 368.808932 
L 470.054558 368.808932 
L 469.527711 368.180971 
L 469.636364 368.180971 
L 469.744726 368.180971 
L 469.2204 367.55301 
L 469.329028 367.55301 
L 469.437367 367.55301 
L 468.915538 366.925049 
L 469.024138 366.925049 
L 469.13245 366.925049 
L 468.204222 365.669126 
L 468.637795 365.669126 
L 468.123853 365.041165 
L 468.232068 365.041165 
L 469.508892 365.041165 
L 468.101538 363.157282 
L 470.868401 363.157282 
L 470.380322 362.52932 
L 470.479728 362.52932 
L 470.973096 362.52932 
L 470.00625 361.273398 
L 470.105141 361.273398 
L 470.984383 361.273398 
L 470.507376 360.645437 
L 470.604348 360.645437 
L 472.587986 360.645437 
L 472.122 360.017476 
L 472.214454 360.017476 
L 473.307184 360.017476 
L 472.480254 358.761553 
L 472.570588 358.761553 
L 471.204828 356.87767 
L 471.296211 356.87767 
L 471.387385 356.87767 
L 470.935052 356.249709 
L 471.02643 356.249709 
L 471.1176 356.249709 
L 470.667123 355.621748 
L 470.758495 355.621748 
L 471.212245 355.621748 
L 470.765232 354.993786 
L 470.855769 354.993786 
L 471.394719 354.993786 
L 470.509305 353.737864 
L 470.599216 353.737864 
L 471.75 353.737864 
L 471.314223 353.109903 
L 471.401762 353.109903 
L 471.489109 353.109903 
L 471.055055 352.481942 
L 471.142591 352.481942 
L 471.404048 352.481942 
L 470.541812 351.226019 
L 470.629335 351.226019 
L 470.890761 351.226019 
L 470.462541 350.598058 
L 470.549675 350.598058 
L 471.068534 350.598058 
L 470.22 349.342136 
L 470.306552 349.342136 
L 470.907249 349.342136 
L 469.735987 347.458252 
L 469.907733 347.458252 
L 469.162302 346.20233 
L 469.248418 346.20233 
L 468.834563 345.574369 
L 468.920842 345.574369 
L 469.77375 345.574369 
L 469.364516 344.946408 
L 469.449168 344.946408 
L 469.702073 344.946408 
L 469.295031 344.318447 
L 469.379317 344.318447 
L 469.964476 344.318447 
L 467.954954 341.178641 
L 468.03949 341.178641 
L 468.958123 341.178641 
L 468.250805 339.922718 
L 468.581663 339.922718 
L 467.88042 338.666796 
L 468.537859 338.666796 
L 467.458045 336.782913 
L 467.622266 336.782913 
L 467.237303 336.154951 
L 467.319469 336.154951 
L 468.373107 336.154951 
L 467.993016 335.52699 
L 468.073256 335.52699 
L 468.15334 335.52699 
L 467.774565 334.899029 
L 467.854783 334.899029 
L 468.411996 334.899029 
L 468.036242 334.271068 
L 468.115517 334.271068 
L 470.871667 334.271068 
L 470.506846 333.643107 
L 470.581054 333.643107 
L 471.169817 333.643107 
L 470.808066 333.015146 
L 470.881319 333.015146 
L 470.954437 333.015146 
L 470.593876 332.387184 
L 470.667123 332.387184 
L 471.103815 332.387184 
L 470.745735 331.759223 
L 470.818314 331.759223 
L 472.172727 331.759223 
L 471.1176 329.87534 
L 471.188366 329.87534 
L 472.645946 329.87534 
L 472.300871 329.247379 
L 472.369191 329.247379 
L 472.709012 329.247379 
L 472.091616 327.991456 
L 473.494737 327.991456 
L 473.158015 327.363495 
L 473.223814 327.363495 
L 473.420541 327.363495 
L 473.085304 326.735534 
L 473.150886 326.735534 
L 473.216358 326.735534 
L 472.88214 326.107573 
L 472.947727 326.107573 
L 473.274015 326.107573 
L 472.941709 325.479612 
L 473.006862 325.479612 
L 473.331 325.479612 
L 473.000583 324.85165 
L 473.065308 324.85165 
L 473.515385 324.85165 
L 472.92401 323.595728 
L 473.180181 323.595728 
L 472.854232 322.967767 
L 472.918227 322.967767 
L 473.740699 322.967767 
L 473.09635 321.711845 
L 473.159319 321.711845 
L 474.579952 321.711845 
L 474.263514 321.083883 
L 474.385 321.083883 
L 474.445599 321.083883 
L 474.130269 320.455922 
L 474.251582 320.455922 
L 474.312095 320.455922 
L 473.997867 319.827961 
L 474.119006 319.827961 
L 474.54 319.827961 
L 474.228056 319.2 
L 474.347887 319.2 
L 474.467344 319.2 
L 473.84649 317.944078 
L 473.966355 317.944078 
L 474.442105 317.944078 
L 474.134339 317.316117 
L 474.252741 317.316117 
L 474.370779 317.316117 
L 474.064253 316.688155 
L 474.182308 316.688155 
L 474.417331 316.688155 
L 474.112414 316.060194 
L 474.229763 316.060194 
L 474.288303 316.060194 
L 473.984416 315.432233 
L 474.101602 315.432233 
L 474.218431 315.432233 
L 473.370615 313.54835 
L 473.429363 313.54835 
L 473.488021 313.54835 
L 473.187273 312.920388 
L 473.30469 312.920388 
L 473.363265 312.920388 
L 472.881839 311.664466 
L 473.232558 311.664466 
L 472.755123 310.408544 
L 473.045902 310.408544 
L 472.750633 309.780583 
L 472.866691 309.780583 
L 472.982405 309.780583 
L 472.688279 309.152621 
L 472.804 309.152621 
L 473.434386 309.152621 
L 473.142952 308.52466 
L 473.256818 308.52466 
L 473.313626 308.52466 
L 473.023133 307.896699 
L 473.136842 307.896699 
L 474.200721 307.896699 
L 473.739037 306.640777 
L 474.938854 306.640777 
L 474.429661 305.384854 
L 474.483557 305.384854 
L 474.644789 305.384854 
L 474.364602 304.756893 
L 474.472031 304.756893 
L 474.579158 304.756893 
L 473.850629 302.87301 
L 474.27872 302.87301 
L 473.72625 301.617087 
L 473.833148 301.617087 
L 474.046058 301.617087 
L 473.550311 300.361165 
L 473.603586 300.361165 
L 474.757337 300.361165 
L 473.947322 298.477282 
L 474.051388 298.477282 
L 474.567518 298.477282 
L 474.084362 297.221359 
L 474.135815 297.221359 
L 474.238513 297.221359 
L 473.972289 296.593398 
L 474.075 296.593398 
L 474.786358 296.593398 
L 474.360634 295.337476 
L 475.699935 295.337476 
L 475.441051 294.709515 
L 475.538666 294.709515 
L 476.310577 294.709515 
L 476.054452 294.081553 
L 476.150096 294.081553 
L 476.388138 294.081553 
L 476.13327 293.453592 
L 476.228326 293.453592 
L 477.488298 293.453592 
L 477.237523 292.825631 
L 477.329419 292.825631 
L 477.421085 292.825631 
L 477.013441 291.569709 
L 477.105158 291.569709 
L 476.856335 290.941748 
L 476.948077 290.941748 
L 477.358112 290.941748 
L 477.110974 290.313786 
L 477.201724 290.313786 
L 477.517597 290.313786 
L 477.071603 289.057864 
L 477.116697 289.057864 
L 477.161736 289.057864 
L 476.916982 288.429903 
L 477.007138 288.429903 
L 477.052134 288.429903 
L 476.808044 287.801942 
L 476.898113 287.801942 
L 477.522511 287.801942 
L 477.280639 287.173981 
L 477.369217 287.173981 
L 477.58973 287.173981 
L 477.34898 286.546019 
L 477.43705 286.546019 
L 478.349201 286.546019 
L 477.960071 285.290097 
L 478.26 285.290097 
L 478.02381 284.662136 
L 478.109278 284.662136 
L 479.036348 284.662136 
L 478.421272 282.778252 
L 479.896716 282.778252 
L 479.212606 280.894369 
L 479.29345 280.894369 
L 479.333804 280.894369 
L 479.106599 280.266408 
L 479.18738 280.266408 
L 479.747792 280.266408 
L 479.522514 279.638447 
L 479.602065 279.638447 
L 480.114848 279.638447 
L 479.668124 278.382524 
L 479.746766 278.382524 
L 479.825235 278.382524 
L 479.015465 275.87068 
L 480.712681 275.87068 
L 480.495596 275.242718 
L 480.608686 275.242718 
L 480.646302 275.242718 
L 480.429834 274.614757 
L 480.542727 274.614757 
L 480.580278 274.614757 
L 480.148799 273.358835 
L 480.26178 273.358835 
L 480.336901 273.358835 
L 480.12198 272.730874 
L 480.234644 272.730874 
L 480.309554 272.730874 
L 480.095332 272.102913 
L 480.20768 272.102913 
L 480.431309 272.102913 
L 480.218153 271.474951 
L 480.329715 271.474951 
L 480.477918 271.474951 
L 480.164866 270.219029 
L 480.386409 270.219029 
L 480.175392 269.591068 
L 480.285915 269.591068 
L 481.832908 269.591068 
L 481.419725 268.335146 
L 481.525649 268.335146 
L 481.63125 268.335146 
L 481.255251 267.079223 
L 481.325748 267.079223 
L 481.396101 267.079223 
L 481.191194 266.451262 
L 481.296716 266.451262 
L 481.646154 266.451262 
L 481.442563 265.823301 
L 481.546964 265.823301 
L 482.098507 265.823301 
L 481.695127 264.567379 
L 481.798064 264.567379 
L 481.934836 264.567379 
L 481.734027 263.939417 
L 481.836499 263.939417 
L 482.142097 263.939417 
L 481.94247 263.311456 
L 482.04398 263.311456 
L 482.145191 263.311456 
L 481.946248 262.683495 
L 482.047405 262.683495 
L 482.449075 262.683495 
L 482.251533 262.055534 
L 482.351458 262.055534 
L 482.912241 262.055534 
L 482.716474 261.427573 
L 482.814719 261.427573 
L 482.847404 261.427573 
L 482.652138 260.799612 
L 482.75024 260.799612 
L 483.684193 260.799612 
L 483.49158 260.17165 
L 483.586963 260.17165 
L 484.028531 260.17165 
L 483.837383 259.543689 
L 483.931475 259.543689 
L 484.367101 259.543689 
L 484.177395 258.915728 
L 484.270228 258.915728 
L 484.577809 258.915728 
L 484.389233 258.287767 
L 484.481172 258.287767 
L 484.755469 258.287767 
L 484.567938 257.659806 
L 484.659083 257.659806 
L 484.749977 257.659806 
L 484.563049 257.031845 
L 484.653909 257.031845 
L 485.431044 257.031845 
L 485.061806 255.775922 
L 485.150721 255.775922 
L 485.620904 255.775922 
L 485.437852 255.147961 
L 485.525469 255.147961 
L 485.554623 255.147961 
L 485.372009 254.52 
L 485.459519 254.52 
L 485.517728 254.52 
L 485.335619 253.892039 
L 485.422944 253.892039 
L 485.769925 253.892039 
L 485.523599 252.636117 
L 485.695908 252.636117 
L 485.515963 252.008155 
L 485.630597 252.008155 
L 486.810388 252.008155 
L 486.633606 251.380194 
L 486.744 251.380194 
L 486.936278 251.380194 
L 486.760351 250.752233 
L 486.869961 250.752233 
L 487.196552 250.752233 
L 487.021787 250.124272 
L 487.130161 250.124272 
L 487.184211 250.124272 
L 487.00997 249.496311 
L 487.118043 249.496311 
L 488.335064 249.496311 
L 488.164037 248.86835 
L 488.26791 248.86835 
L 488.679984 248.86835 
L 488.510292 248.240388 
L 488.6127 248.240388 
L 488.765683 248.240388 
L 488.596721 247.612427 
L 488.698527 247.612427 
L 489.001954 247.612427 
L 488.666314 246.356505 
L 488.767262 246.356505 
L 488.792448 246.356505 
L 488.625122 245.728544 
L 488.725891 245.728544 
L 488.801255 245.728544 
L 488.634466 245.100583 
L 488.734895 245.100583 
L 488.759952 245.100583 
L 488.593584 244.472621 
L 488.693836 244.472621 
L 488.718848 244.472621 
L 488.552899 243.84466 
L 488.652974 243.84466 
L 489.02541 243.84466 
L 488.860663 243.216699 
L 488.95945 243.216699 
L 490.2865 243.216699 
L 490.125117 242.588738 
L 490.219626 242.588738 
L 490.919169 242.588738 
L 490.759715 241.960777 
L 490.851978 241.960777 
L 491.012759 241.960777 
L 490.854002 241.332816 
L 490.968578 241.332816 
L 490.991441 241.332816 
L 490.833117 240.704854 
L 490.947427 240.704854 
L 491.10673 240.704854 
L 490.949145 240.076893 
L 491.062671 240.076893 
L 492.240089 240.076893 
L 492.085539 239.448932 
L 492.194471 239.448932 
L 492.818392 239.448932 
L 492.44599 237.565049 
L 492.46735 237.565049 
L 492.531335 237.565049 
L 492.379276 236.937087 
L 492.485845 236.937087 
L 493.51 236.937087 
L 493.360588 236.309126 
L 493.463305 236.309126 
L 494.092041 236.309126 
L 493.857203 235.053204 
L 493.897389 235.053204 
L 494.961357 235.053204 
L 494.816511 234.425243 
L 494.913234 234.425243 
L 495.048087 234.425243 
L 494.903859 233.797282 
L 495 233.797282 
L 496.29375 233.797282 
L 496.152738 233.16932 
L 496.262655 233.16932 
L 496.463026 233.16932 
L 496.322805 232.541359 
L 496.431723 232.541359 
L 496.82739 232.541359 
L 496.567416 231.285437 
L 496.656879 231.285437 
L 497.362097 231.285437 
L 497.225098 230.657476 
L 497.329532 230.657476 
L 498.435348 230.657476 
L 498.301145 230.029515 
L 498.401143 230.029515 
L 499.556163 230.029515 
L 499.42486 229.401553 
L 499.536234 229.401553 
L 502.596535 229.401553 
L 502.472489 228.773592 
L 502.584781 228.773592 
L 502.766146 228.773592 
L 502.642841 228.145631 
L 502.754026 228.145631 
L 505.400682 228.145631 
L 505.400682 228.145631 
" style="fill:none;stroke:#ff7f0e;stroke-linecap:square;stroke-width:2;"/>
   </g>
   <g id="line2d_47">
    <path clip-path="url(#pe176e97c36)" d="M 76.5 447.932039 
L 313.65 447.932039 
L 234.6 447.304078 
L 195.075 446.676117 
L 171.36 446.048155 
L 279.771429 446.048155 
L 254.3625 445.420194 
L 234.6 444.792233 
L 218.79 444.164272 
L 195.075 442.90835 
L 185.953846 442.280388 
L 212.014286 442.280388 
L 195.075 441.024466 
L 181.9 439.768544 
L 176.352632 439.140583 
L 227.413636 439.140583 
L 214.8375 437.88466 
L 228.276 437.88466 
L 222.438462 437.256699 
L 234.6 437.256699 
L 228.953571 436.628738 
L 240.051724 436.628738 
L 234.6 436.000777 
L 244.8 436.000777 
L 229.95 434.116893 
L 217.508108 432.23301 
L 206.9325 430.349126 
L 197.832558 428.465243 
L 189.919565 426.581359 
L 204.95625 426.581359 
L 199.818 425.325437 
L 206.7 425.325437 
L 199.466667 423.441553 
L 195.075 422.185631 
L 201.315789 422.185631 
L 197.084746 420.929709 
L 202.98 420.929709 
L 200.906557 420.301748 
L 206.55 420.301748 
L 198.668182 417.789903 
L 203.923881 417.789903 
L 196.74507 415.278058 
L 193.450685 414.022136 
L 207.556579 414.022136 
L 204.196154 412.766214 
L 212.86125 412.766214 
L 206.367857 410.254369 
L 204.84 409.626408 
L 208.862791 409.626408 
L 207.341379 408.998447 
L 211.244318 408.998447 
L 205.38587 406.486602 
L 201.315789 404.602718 
L 204.95625 404.602718 
L 203.631959 403.974757 
L 207.17449 403.974757 
L 204.561 402.718835 
L 207.989109 402.718835 
L 201.786792 399.579029 
L 205.048598 399.579029 
L 203.858333 398.951068 
L 207.041284 398.951068 
L 204.689189 397.695146 
L 210.815044 397.695146 
L 209.636842 397.067184 
L 215.518966 397.067184 
L 213.162712 395.811262 
L 216 395.811262 
L 213.694215 394.55534 
L 216.457377 394.55534 
L 214.2 393.299417 
L 219.542857 393.299417 
L 218.416535 392.671456 
L 221.013281 392.671456 
L 219.893023 392.043495 
L 227.413636 392.043495 
L 224.06 390.159612 
L 228.829927 390.159612 
L 226.638129 388.903689 
L 228.953571 388.903689 
L 224.71875 386.391845 
L 226.967586 386.391845 
L 224.920408 385.135922 
L 229.294631 385.135922 
L 228.276 384.507961 
L 232.519737 384.507961 
L 230.493506 383.252039 
L 232.56 383.252039 
L 228.633962 380.740194 
L 230.6475 380.740194 
L 229.690062 380.112233 
L 231.672222 380.112233 
L 230.720245 379.484272 
L 232.671951 379.484272 
L 230.790361 378.22835 
L 234.6 378.22835 
L 230.923256 375.716505 
L 234.6 375.716505 
L 233.696571 375.088544 
L 235.498295 375.088544 
L 234.6 374.460583 
L 238.132961 374.460583 
L 235.468681 372.576699 
L 238.896196 372.576699 
L 236.290909 370.692816 
L 237.96383 370.692816 
L 237.109524 370.064854 
L 248.312755 370.064854 
L 246.577273 368.808932 
L 252.601485 368.808932 
L 251.73399 368.180971 
L 254.651707 368.180971 
L 253.786893 367.55301 
L 256.642788 367.55301 
L 254.081517 365.669126 
L 256.867606 365.669126 
L 254.3625 363.785243 
L 255.728571 363.785243 
L 254.906422 363.157282 
L 261.540807 363.157282 
L 260.714732 362.52932 
L 265.803947 362.52932 
L 264.157826 361.273398 
L 272.624051 361.273398 
L 270.982845 360.017476 
L 273.304979 360.017476 
L 272.491736 359.389515 
L 273.637037 359.389515 
L 272.027755 358.133592 
L 275.4 358.133592 
L 273.8088 356.87767 
L 277.093281 356.87767 
L 275.52 355.621748 
L 277.662257 355.621748 
L 276.882558 354.993786 
L 280.031034 354.993786 
L 274.714925 350.598058 
L 275.741264 350.598058 
L 274.270849 349.342136 
L 275.2875 349.342136 
L 273.118909 347.458252 
L 274.125 347.458252 
L 272.703237 346.20233 
L 274.689643 346.20233 
L 271.898239 343.690485 
L 274.813589 343.690485 
L 272.762069 341.806602 
L 276.544898 341.806602 
L 275.193243 340.55068 
L 276.121212 340.55068 
L 274.785953 339.294757 
L 280.215738 339.294757 
L 278.888599 338.038835 
L 282.385852 338.038835 
L 281.725962 337.410874 
L 282.585623 337.410874 
L 281.929299 336.782913 
L 284.473817 336.782913 
L 283.819811 336.154951 
L 284.65674 336.154951 
L 284.00625 335.52699 
L 284.837383 335.52699 
L 284.190373 334.899029 
L 285.836111 334.899029 
L 285.192 334.271068 
L 287.621341 334.271068 
L 286.979635 333.643107 
L 288.573716 333.643107 
L 287.3 332.387184 
L 288.088922 332.387184 
L 286.829464 331.131262 
L 288.39142 331.131262 
L 287.766372 330.503301 
L 293.830548 330.503301 
L 292.5851 329.247379 
L 294.785795 329.247379 
L 294.167422 328.619417 
L 294.892373 328.619417 
L 294.277183 327.991456 
L 294.997753 327.991456 
L 294.385714 327.363495 
L 295.814206 327.363495 
L 295.205 326.735534 
L 297.317355 326.735534 
L 296.710714 326.107573 
L 298.787738 326.107573 
L 298.183696 325.479612 
L 298.868293 325.479612 
L 298.267297 324.85165 
L 300.298391 324.85165 
L 299.7 324.223689 
L 301.698143 324.223689 
L 301.102381 323.595728 
L 301.761214 323.595728 
L 301.168421 322.967767 
L 303.12376 322.967767 
L 302.533594 322.339806 
L 304.45814 322.339806 
L 302.704615 320.455922 
L 303.33913 320.455922 
L 300.475 317.316117 
L 301.732915 317.316117 
L 301.168421 316.688155 
L 302.413466 316.688155 
L 301.851493 316.060194 
L 303.695556 316.060194 
L 302.579115 314.804272 
L 303.1875 314.804272 
L 302.633252 314.176311 
L 303.238537 314.176311 
L 302.137864 312.920388 
L 302.739952 312.920388 
L 302.193478 312.292427 
L 302.79253 312.292427 
L 301.707194 311.036505 
L 302.30311 311.036505 
L 301.7642 310.408544 
L 303.534597 310.408544 
L 302.997872 309.780583 
L 304.164 309.780583 
L 303.629577 309.152621 
L 304.208431 309.152621 
L 303.676402 308.52466 
L 305.39652 308.52466 
L 304.339261 307.268738 
L 307.15274 307.268738 
L 306.104318 306.012816 
L 306.659184 306.012816 
L 305.62009 304.756893 
L 306.722022 304.756893 
L 305.180357 302.87301 
L 306.272 302.87301 
L 305.25531 301.617087 
L 306.337004 301.617087 
L 305.831868 300.989126 
L 306.903939 300.989126 
L 305.401304 299.105243 
L 306.463636 299.105243 
L 305.966955 298.477282 
L 307.02 298.477282 
L 306.032762 297.221359 
L 309.647468 297.221359 
L 308.667857 295.965437 
L 309.680962 295.965437 
L 309.194154 295.337476 
L 309.6975 295.337476 
L 306.818519 291.569709 
L 311.7375 291.569709 
L 311.264185 290.941748 
L 312.224248 290.941748 
L 311.7528 290.313786 
L 312.22994 290.313786 
L 311.760359 289.685825 
L 312.235586 289.685825 
L 311.767857 289.057864 
L 312.712648 289.057864 
L 312.246746 288.429903 
L 312.716339 288.429903 
L 311.79 287.173981 
L 312.25773 287.173981 
L 311.797266 286.546019 
L 312.727237 286.546019 
L 311.811628 285.290097 
L 314.105182 285.290097 
L 313.196558 284.034175 
L 315 284.034175 
L 314.548295 283.406214 
L 315.439811 283.406214 
L 314.989831 282.778252 
L 316.752897 282.778252 
L 316.304664 282.150291 
L 318.900554 282.150291 
L 318.009375 280.894369 
L 319.286106 280.894369 
L 318.843066 280.266408 
L 320.940325 280.266408 
L 320.499097 279.638447 
L 321.739497 279.638447 
L 320.862075 278.382524 
L 321.681818 278.382524 
L 321.245552 277.754563 
L 322.464425 277.754563 
L 322.029859 277.126602 
L 322.835387 277.126602 
L 322.40246 276.498641 
L 322.803158 276.498641 
L 321.941958 275.242718 
L 322.341361 275.242718 
L 321.060938 273.358835 
L 321.459099 273.358835 
L 321.035294 272.730874 
L 322.221687 272.730874 
L 321.799485 272.102913 
L 322.973846 272.102913 
L 322.134072 270.84699 
L 323.29678 270.84699 
L 322.048229 268.963107 
L 322.817143 268.963107 
L 320.7645 265.823301 
L 321.147255 265.823301 
L 320.740864 265.19534 
L 322.635914 265.19534 
L 321.827586 263.939417 
L 322.577087 263.939417 
L 321.774225 262.683495 
L 322.147231 262.683495 
L 321.747805 262.055534 
L 322.119643 262.055534 
L 321.324757 260.799612 
L 324.257348 260.799612 
L 323.468312 259.543689 
L 323.82973 259.543689 
L 323.437143 258.915728 
L 325.582075 258.915728 
L 324.412676 257.031845 
L 324.766406 257.031845 
L 324.379095 256.403883 
L 325.433851 256.403883 
L 324.663158 255.147961 
L 326.054769 255.147961 
L 325.289264 253.892039 
L 325.978899 253.892039 
L 324.839726 252.008155 
L 328.892825 252.008155 
L 327.766071 250.124272 
L 328.097474 250.124272 
L 327.352 248.86835 
L 328.012112 248.86835 
L 327.64115 248.240388 
L 329.274817 248.240388 
L 328.536788 246.984466 
L 328.860787 246.984466 
L 328.49345 246.356505 
L 328.81657 246.356505 
L 328.450363 245.728544 
L 329.093922 245.728544 
L 328.728902 245.100583 
L 329.687482 245.100583 
L 329.323707 244.472621 
L 329.641463 244.472621 
L 329.278797 243.84466 
L 331.166761 243.84466 
L 330.805532 243.216699 
L 331.117139 243.216699 
L 330.757001 242.588738 
L 332.608696 242.588738 
L 331.892308 241.332816 
L 332.198045 241.332816 
L 331.841423 240.704854 
L 332.450487 240.704854 
L 331.740499 239.448932 
L 334.144444 239.448932 
L 333.791507 238.820971 
L 337.012955 238.820971 
L 336.66186 238.19301 
L 338.379545 238.19301 
L 338.029907 237.565049 
L 339.160159 237.565049 
L 338.811804 236.937087 
L 340.2083 236.937087 
L 338.825819 234.425243 
L 339.656005 234.425243 
L 339.312907 233.797282 
L 339.862939 233.797282 
L 339.520909 233.16932 
L 340.34088 233.16932 
L 340 232.541359 
L 340.272 232.541359 
L 339.932088 231.913398 
L 340.474165 231.913398 
L 340.135302 231.285437 
L 340.405385 231.285437 
L 339.730435 230.029515 
L 340.80458 230.029515 
L 340.468742 229.401553 
L 340.73566 229.401553 
L 340.40076 228.773592 
L 340.667089 228.773592 
L 340.333123 228.145631 
L 340.598864 228.145631 
L 339.602264 226.261748 
L 340.396241 226.261748 
L 340.065957 225.633786 
L 340.329375 225.633786 
L 340 225.005825 
L 341.826238 225.005825 
L 341.498269 224.377864 
L 342.271552 224.377864 
L 341.944649 223.749903 
L 342.457178 223.749903 
L 342.13125 223.121942 
L 342.895604 223.121942 
L 342.570732 222.493981 
L 343.329769 222.493981 
L 343.005947 221.866019 
L 344.259228 221.866019 
L 343.936627 221.238058 
L 345.175329 221.238058 
L 344.853947 220.610097 
L 345.345465 220.610097 
L 345.02503 219.982136 
L 346.968595 219.982136 
L 346.649646 219.354175 
L 347.846307 219.354175 
L 347.528571 218.726214 
L 348.24014 218.726214 
L 347.923427 218.098252 
L 349.332292 218.098252 
L 349.016879 217.470291 
L 349.482353 217.470291 
L 349.167857 216.84233 
L 351.464351 216.84233 
L 351.151536 216.214369 
L 351.830612 216.214369 
L 351.5188 215.586408 
L 353.529484 215.586408 
L 353.219261 214.958447 
L 353.880804 214.958447 
L 353.571572 214.330485 
L 353.791203 214.330485 
L 353.482759 213.702524 
L 355.438546 213.702524 
L 355.131683 213.074563 
L 355.346703 213.074563 
L 355.040615 212.446602 
L 357.376139 212.446602 
L 357.071831 211.818641 
L 357.490703 211.818641 
L 357.187257 211.19068 
L 358.227068 211.19068 
L 357.924785 210.562718 
L 358.131511 210.562718 
L 357.829979 209.934757 
L 358.036364 209.934757 
L 357.435432 208.678835 
L 358.257386 208.678835 
L 357.95828 208.050874 
L 358.773679 208.050874 
L 358.475607 207.422913 
L 360.485266 207.422913 
L 360.188831 206.794951 
L 360.387591 206.794951 
L 360.091875 206.16699 
L 360.290323 206.16699 
L 359.995322 205.539029 
L 360.193458 205.539029 
L 359.89917 204.911068 
L 360.29441 204.911068 
L 360.000931 204.283107 
L 360.394737 204.283107 
L 359.518519 202.399223 
L 360.88621 202.399223 
L 359.728993 199.887379 
L 360.88817 199.887379 
L 360.600909 199.259417 
L 360.984375 199.259417 
L 360.411972 198.003495 
L 361.17505 198.003495 
L 360.89009 197.375534 
L 361.458683 197.375534 
L 361.174576 196.747573 
L 361.363446 196.747573 
L 361.08 196.119612 
L 362.019208 196.119612 
L 361.736795 195.49165 
L 361.923617 195.49165 
L 361.641856 194.863689 
L 362.755643 194.863689 
L 362.475 194.235728 
L 363.393659 194.235728 
L 363.114035 193.607767 
L 364.205233 193.607767 
L 363.926718 192.979806 
L 364.287826 192.979806 
L 364.010039 192.351845 
L 364.190164 192.351845 
L 363.913006 191.723883 
L 364.630422 191.723883 
L 364.354171 191.095922 
L 365.066476 191.095922 
L 364.791126 190.467961 
L 365.322074 190.467961 
L 365.047529 189.84 
L 365.4 189.84 
L 365.126161 189.212039 
L 365.652647 189.212039 
L 365.379603 188.584078 
L 366.25094 188.584078 
L 365.43627 186.700194 
L 368.174792 186.700194 
L 367.90572 186.072233 
L 368.578125 186.072233 
L 368.309917 185.444272 
L 368.644455 185.444272 
L 368.376923 184.816311 
L 369.86812 184.816311 
L 369.601906 184.18835 
L 369.766183 184.18835 
L 369.500543 183.560388 
L 369.828391 183.560388 
L 369.298917 182.304466 
L 371.882562 182.304466 
L 371.62 181.676505 
L 373.355018 181.676505 
L 372.833304 180.420583 
L 373.301227 180.420583 
L 373.041331 179.792621 
L 373.19685 179.792621 
L 372.9375 179.16466 
L 374.935955 179.16466 
L 374.678238 178.536699 
L 375.133333 178.536699 
L 374.876334 177.908738 
L 375.178608 177.908738 
L 374.922232 177.280777 
L 376.270528 177.280777 
L 376.015404 176.652816 
L 376.460526 176.652816 
L 376.206107 176.024854 
L 376.79645 176.024854 
L 376.542821 175.396893 
L 377.129545 175.396893 
L 376.876703 174.768932 
L 380.45832 174.768932 
L 380.208148 174.140971 
L 380.767925 174.140971 
L 380.518525 173.51301 
L 381.489976 173.51301 
L 381.241612 172.885049 
L 381.654833 172.885049 
L 381.407143 172.257087 
L 382.5 172.257087 
L 382.007246 171.001165 
L 382.278617 171.001165 
L 381.787801 169.745243 
L 383.665714 169.745243 
L 383.422125 169.117282 
L 384.083175 169.117282 
L 383.84041 168.48932 
L 384.103546 168.48932 
L 383.861339 167.861359 
L 384.906338 167.861359 
L 384.424453 166.605437 
L 385.84206 166.605437 
L 385.602632 165.977476 
L 386.745427 165.977476 
L 386.507143 165.349515 
L 389.72372 165.349515 
L 389.488036 164.721553 
L 391.525409 164.721553 
L 391.291537 164.093592 
L 391.409866 164.093592 
L 391.176427 163.465631 
L 391.294667 163.465631 
L 392.7 163.465631 
L 392.468012 162.83767 
L 392.584091 162.83767 
L 394.870448 162.83767 
L 394.640578 162.209709 
L 394.753247 162.209709 
L 399.448845 162.209709 
L 399.103492 160.953786 
L 400.050937 160.953786 
L 399.82656 160.325825 
L 399.931185 160.325825 
L 400.348238 160.325825 
L 400.124586 159.697864 
L 400.228571 159.697864 
L 400.952473 159.697864 
L 400.729787 159.069903 
L 400.832716 159.069903 
L 402.359878 159.069903 
L 402.138806 158.441942 
L 402.239593 158.441942 
L 407.016142 158.441942 
L 406.79941 157.813981 
L 406.893775 157.813981 
L 410.390217 157.813981 
L 410.176869 157.186019 
L 410.266667 157.186019 
L 411.069714 157.186019 
L 410.857424 156.558058 
L 410.946164 156.558058 
L 411.3 156.558058 
L 411.088369 155.930097 
L 411.176627 155.930097 
L 411.440731 155.930097 
L 411.229679 155.302136 
L 411.317569 155.302136 
L 411.668028 155.302136 
L 411.457627 154.674175 
L 411.545044 154.674175 
L 412.928944 154.674175 
L 412.720112 154.046214 
L 412.805769 154.046214 
L 413.656535 154.046214 
L 413.448799 153.418252 
L 413.533374 153.418252 
L 413.617846 153.418252 
L 413.410517 152.790291 
L 413.49496 152.790291 
L 415.326804 152.790291 
L 415.121455 152.16233 
L 415.203634 152.16233 
L 415.449577 152.16233 
L 415.244773 151.534369 
L 415.32663 151.534369 
L 418.209043 151.534369 
L 417.884071 150.278447 
L 419.280736 150.278447 
L 419.080747 149.650485 
L 419.157551 149.650485 
L 419.920696 149.650485 
L 419.721727 149.022524 
L 419.797626 149.022524 
L 421.887692 149.022524 
L 421.691002 148.394563 
L 421.764485 148.394563 
L 422.422084 148.394563 
L 422.226316 147.766602 
L 422.299038 147.766602 
L 424.020033 147.766602 
L 423.826213 147.138641 
L 423.89699 147.138641 
L 428.268245 147.138641 
L 428.079021 146.51068 
L 428.145 146.51068 
L 429.707484 146.51068 
L 429.332927 145.254757 
L 429.397297 145.254757 
L 434.334875 145.254757 
L 434.153049 144.626796 
L 434.212291 144.626796 
L 435.731729 144.626796 
L 435.551754 143.998835 
L 435.667117 143.998835 
L 436.069077 143.998835 
L 435.889831 143.370874 
L 436.004283 143.370874 
L 437.583006 143.370874 
L 437.405744 142.742913 
L 437.516969 142.742913 
L 444.159141 142.742913 
L 443.989479 142.114951 
L 444.087967 142.114951 
L 445.782577 142.114951 
L 445.615102 141.48699 
L 445.710421 141.48699 
L 446.089977 141.48699 
L 445.923195 140.859029 
L 446.017764 140.859029 
L 454.36556 140.859029 
L 454.208835 140.231068 
L 454.288893 140.231068 
L 454.766474 140.231068 
L 454.534088 138.975146 
L 473.679321 138.975146 
L 473.548368 138.347184 
L 473.650115 138.347184 
L 473.802235 138.347184 
L 473.671715 137.719223 
L 473.772933 137.719223 
L 477.201724 137.719223 
L 477.076152 137.091262 
L 477.168451 137.091262 
L 486.645978 137.091262 
L 486.645978 137.091262 
" style="fill:none;stroke:#2ca02c;stroke-linecap:square;stroke-width:2;"/>
   </g>
   <g id="patch_3">
    <path d="M 76.5 448.56 
L 76.5 60.48 
" style="fill:none;stroke:#000000;stroke-linecap:square;stroke-linejoin:miter;stroke-width:0.8;"/>
   </g>
   <g id="patch_4">
    <path d="M 550.8 448.56 
L 550.8 60.48 
" style="fill:none;stroke:#000000;stroke-linecap:square;stroke-linejoin:miter;stroke-width:0.8;"/>
   </g>
   <g id="patch_5">
    <path d="M 76.5 448.56 
L 550.8 448.56 
" style="fill:none;stroke:#000000;stroke-linecap:square;stroke-linejoin:miter;stroke-width:0.8;"/>
   </g>
   <g id="patch_6">
    <path d="M 76.5 60.48 
L 550.8 60.48 
" style="fill:none;stroke:#000000;stroke-linecap:square;stroke-linejoin:miter;stroke-width:0.8;"/>
   </g>
   <g id="text_25">
    <!-- graf: img1-img4 -->
    <defs>
     <path d="M 45.40625 27.984375 
Q 45.40625 37.75 41.375 43.109375 
Q 37.359375 48.484375 30.078125 48.484375 
Q 22.859375 48.484375 18.828125 43.109375 
Q 14.796875 37.75 14.796875 27.984375 
Q 14.796875 18.265625 18.828125 12.890625 
Q 22.859375 7.515625 30.078125 7.515625 
Q 37.359375 7.515625 41.375 12.890625 
Q 45.40625 18.265625 45.40625 27.984375 
z
M 54.390625 6.78125 
Q 54.390625 -7.171875 48.1875 -13.984375 
Q 42 -20.796875 29.203125 -20.796875 
Q 24.46875 -20.796875 20.265625 -20.09375 
Q 16.0625 -19.390625 12.109375 -17.921875 
L 12.109375 -9.1875 
Q 16.0625 -11.328125 19.921875 -12.34375 
Q 23.78125 -13.375 27.78125 -13.375 
Q 36.625 -13.375 41.015625 -8.765625 
Q 45.40625 -4.15625 45.40625 5.171875 
L 45.40625 9.625 
Q 42.625 4.78125 38.28125 2.390625 
Q 33.9375 0 27.875 0 
Q 17.828125 0 11.671875 7.65625 
Q 5.515625 15.328125 5.515625 27.984375 
Q 5.515625 40.671875 11.671875 48.328125 
Q 17.828125 56 27.875 56 
Q 33.9375 56 38.28125 53.609375 
Q 42.625 51.21875 45.40625 46.390625 
L 45.40625 54.6875 
L 54.390625 54.6875 
z
" id="DejaVuSans-103"/>
     <path d="M 34.28125 27.484375 
Q 23.390625 27.484375 19.1875 25 
Q 14.984375 22.515625 14.984375 16.5 
Q 14.984375 11.71875 18.140625 8.90625 
Q 21.296875 6.109375 26.703125 6.109375 
Q 34.1875 6.109375 38.703125 11.40625 
Q 43.21875 16.703125 43.21875 25.484375 
L 43.21875 27.484375 
z
M 52.203125 31.203125 
L 52.203125 0 
L 43.21875 0 
L 43.21875 8.296875 
Q 40.140625 3.328125 35.546875 0.953125 
Q 30.953125 -1.421875 24.3125 -1.421875 
Q 15.921875 -1.421875 10.953125 3.296875 
Q 6 8.015625 6 15.921875 
Q 6 25.140625 12.171875 29.828125 
Q 18.359375 34.515625 30.609375 34.515625 
L 43.21875 34.515625 
L 43.21875 35.40625 
Q 43.21875 41.609375 39.140625 45 
Q 35.0625 48.390625 27.6875 48.390625 
Q 23 48.390625 18.546875 47.265625 
Q 14.109375 46.140625 10.015625 43.890625 
L 10.015625 52.203125 
Q 14.9375 54.109375 19.578125 55.046875 
Q 24.21875 56 28.609375 56 
Q 40.484375 56 46.34375 49.84375 
Q 52.203125 43.703125 52.203125 31.203125 
z
" id="DejaVuSans-97"/>
     <path d="M 37.109375 75.984375 
L 37.109375 68.5 
L 28.515625 68.5 
Q 23.6875 68.5 21.796875 66.546875 
Q 19.921875 64.59375 19.921875 59.515625 
L 19.921875 54.6875 
L 34.71875 54.6875 
L 34.71875 47.703125 
L 19.921875 47.703125 
L 19.921875 0 
L 10.890625 0 
L 10.890625 47.703125 
L 2.296875 47.703125 
L 2.296875 54.6875 
L 10.890625 54.6875 
L 10.890625 58.5 
Q 10.890625 67.625 15.140625 71.796875 
Q 19.390625 75.984375 28.609375 75.984375 
z
" id="DejaVuSans-102"/>
     <path d="M 11.71875 12.40625 
L 22.015625 12.40625 
L 22.015625 0 
L 11.71875 0 
z
M 11.71875 51.703125 
L 22.015625 51.703125 
L 22.015625 39.3125 
L 11.71875 39.3125 
z
" id="DejaVuSans-58"/>
     <path id="DejaVuSans-32"/>
     <path d="M 52 44.1875 
Q 55.375 50.25 60.0625 53.125 
Q 64.75 56 71.09375 56 
Q 79.640625 56 84.28125 50.015625 
Q 88.921875 44.046875 88.921875 33.015625 
L 88.921875 0 
L 79.890625 0 
L 79.890625 32.71875 
Q 79.890625 40.578125 77.09375 44.375 
Q 74.3125 48.1875 68.609375 48.1875 
Q 61.625 48.1875 57.5625 43.546875 
Q 53.515625 38.921875 53.515625 30.90625 
L 53.515625 0 
L 44.484375 0 
L 44.484375 32.71875 
Q 44.484375 40.625 41.703125 44.40625 
Q 38.921875 48.1875 33.109375 48.1875 
Q 26.21875 48.1875 22.15625 43.53125 
Q 18.109375 38.875 18.109375 30.90625 
L 18.109375 0 
L 9.078125 0 
L 9.078125 54.6875 
L 18.109375 54.6875 
L 18.109375 46.1875 
Q 21.1875 51.21875 25.484375 53.609375 
Q 29.78125 56 35.6875 56 
Q 41.65625 56 45.828125 52.96875 
Q 50 49.953125 52 44.1875 
z
" id="DejaVuSans-109"/>
    </defs>
    <g transform="translate(265.434375 41.042625)scale(0.12 -0.12)">
     <use xlink:href="#DejaVuSans-103"/>
     <use x="63.476562" xlink:href="#DejaVuSans-114"/>
     <use x="104.589844" xlink:href="#DejaVuSans-97"/>
     <use x="165.869141" xlink:href="#DejaVuSans-102"/>
     <use x="197.449219" xlink:href="#DejaVuSans-58"/>
     <use x="231.140625" xlink:href="#DejaVuSans-32"/>
     <use x="262.927734" xlink:href="#DejaVuSans-105"/>
     <use x="290.710938" xlink:href="#DejaVuSans-109"/>
     <use x="388.123047" xlink:href="#DejaVuSans-103"/>
     <use x="451.599609" xlink:href="#DejaVuSans-49"/>
     <use x="515.222656" xlink:href="#DejaVuSans-45"/>
     <use x="551.306641" xlink:href="#DejaVuSans-105"/>
     <use x="579.089844" xlink:href="#DejaVuSans-109"/>
     <use x="676.501953" xlink:href="#DejaVuSans-103"/>
     <use x="739.978516" xlink:href="#DejaVuSans-52"/>
    </g>
    <!-- NearestNeighbours -->
    <defs>
     <path d="M 9.8125 72.90625 
L 23.09375 72.90625 
L 55.421875 11.921875 
L 55.421875 72.90625 
L 64.984375 72.90625 
L 64.984375 0 
L 51.703125 0 
L 19.390625 60.984375 
L 19.390625 0 
L 9.8125 0 
z
" id="DejaVuSans-78"/>
     <path d="M 54.890625 33.015625 
L 54.890625 0 
L 45.90625 0 
L 45.90625 32.71875 
Q 45.90625 40.484375 42.875 44.328125 
Q 39.84375 48.1875 33.796875 48.1875 
Q 26.515625 48.1875 22.3125 43.546875 
Q 18.109375 38.921875 18.109375 30.90625 
L 18.109375 0 
L 9.078125 0 
L 9.078125 75.984375 
L 18.109375 75.984375 
L 18.109375 46.1875 
Q 21.34375 51.125 25.703125 53.5625 
Q 30.078125 56 35.796875 56 
Q 45.21875 56 50.046875 50.171875 
Q 54.890625 44.34375 54.890625 33.015625 
z
" id="DejaVuSans-104"/>
     <path d="M 48.6875 27.296875 
Q 48.6875 37.203125 44.609375 42.84375 
Q 40.53125 48.484375 33.40625 48.484375 
Q 26.265625 48.484375 22.1875 42.84375 
Q 18.109375 37.203125 18.109375 27.296875 
Q 18.109375 17.390625 22.1875 11.75 
Q 26.265625 6.109375 33.40625 6.109375 
Q 40.53125 6.109375 44.609375 11.75 
Q 48.6875 17.390625 48.6875 27.296875 
z
M 18.109375 46.390625 
Q 20.953125 51.265625 25.265625 53.625 
Q 29.59375 56 35.59375 56 
Q 45.5625 56 51.78125 48.09375 
Q 58.015625 40.1875 58.015625 27.296875 
Q 58.015625 14.40625 51.78125 6.484375 
Q 45.5625 -1.421875 35.59375 -1.421875 
Q 29.59375 -1.421875 25.265625 0.953125 
Q 20.953125 3.328125 18.109375 8.203125 
L 18.109375 0 
L 9.078125 0 
L 9.078125 75.984375 
L 18.109375 75.984375 
z
" id="DejaVuSans-98"/>
     <path d="M 8.5 21.578125 
L 8.5 54.6875 
L 17.484375 54.6875 
L 17.484375 21.921875 
Q 17.484375 14.15625 20.5 10.265625 
Q 23.53125 6.390625 29.59375 6.390625 
Q 36.859375 6.390625 41.078125 11.03125 
Q 45.3125 15.671875 45.3125 23.6875 
L 45.3125 54.6875 
L 54.296875 54.6875 
L 54.296875 0 
L 45.3125 0 
L 45.3125 8.40625 
Q 42.046875 3.421875 37.71875 1 
Q 33.40625 -1.421875 27.6875 -1.421875 
Q 18.265625 -1.421875 13.375 4.4375 
Q 8.5 10.296875 8.5 21.578125 
z
M 31.109375 56 
z
" id="DejaVuSans-117"/>
    </defs>
    <g transform="translate(255.957188 54.48)scale(0.12 -0.12)">
     <use xlink:href="#DejaVuSans-78"/>
     <use x="74.804688" xlink:href="#DejaVuSans-101"/>
     <use x="136.328125" xlink:href="#DejaVuSans-97"/>
     <use x="197.607422" xlink:href="#DejaVuSans-114"/>
     <use x="236.470703" xlink:href="#DejaVuSans-101"/>
     <use x="297.994141" xlink:href="#DejaVuSans-115"/>
     <use x="350.09375" xlink:href="#DejaVuSans-116"/>
     <use x="389.302734" xlink:href="#DejaVuSans-78"/>
     <use x="464.107422" xlink:href="#DejaVuSans-101"/>
     <use x="525.630859" xlink:href="#DejaVuSans-105"/>
     <use x="553.414062" xlink:href="#DejaVuSans-103"/>
     <use x="616.890625" xlink:href="#DejaVuSans-104"/>
     <use x="680.269531" xlink:href="#DejaVuSans-98"/>
     <use x="743.746094" xlink:href="#DejaVuSans-111"/>
     <use x="804.927734" xlink:href="#DejaVuSans-117"/>
     <use x="868.306641" xlink:href="#DejaVuSans-114"/>
     <use x="909.419922" xlink:href="#DejaVuSans-115"/>
    </g>
   </g>
   <g id="legend_1">
    <g id="patch_7">
     <path d="M 373.820313 112.514375 
L 543.8 112.514375 
Q 545.8 112.514375 545.8 110.514375 
L 545.8 67.48 
Q 545.8 65.48 543.8 65.48 
L 373.820313 65.48 
Q 371.820313 65.48 371.820313 67.48 
L 371.820313 110.514375 
Q 371.820313 112.514375 373.820313 112.514375 
z
" style="fill:#ffffff;opacity:0.8;stroke:#cccccc;stroke-linejoin:miter;"/>
    </g>
    <g id="line2d_48">
     <path d="M 375.820313 73.578438 
L 395.820313 73.578438 
" style="fill:none;stroke:#1f77b4;stroke-linecap:square;stroke-width:2;"/>
    </g>
    <g id="line2d_49"/>
    <g id="text_26">
     <!-- root-cvsift AP: 6.2, %In: 8.1 -->
     <defs>
      <path d="M 2.984375 54.6875 
L 12.5 54.6875 
L 29.59375 8.796875 
L 46.6875 54.6875 
L 56.203125 54.6875 
L 35.6875 0 
L 23.484375 0 
z
" id="DejaVuSans-118"/>
      <path d="M 34.1875 63.1875 
L 20.796875 26.90625 
L 47.609375 26.90625 
z
M 28.609375 72.90625 
L 39.796875 72.90625 
L 67.578125 0 
L 57.328125 0 
L 50.6875 18.703125 
L 17.828125 18.703125 
L 11.1875 0 
L 0.78125 0 
z
" id="DejaVuSans-65"/>
      <path d="M 19.671875 64.796875 
L 19.671875 37.40625 
L 32.078125 37.40625 
Q 38.96875 37.40625 42.71875 40.96875 
Q 46.484375 44.53125 46.484375 51.125 
Q 46.484375 57.671875 42.71875 61.234375 
Q 38.96875 64.796875 32.078125 64.796875 
z
M 9.8125 72.90625 
L 32.078125 72.90625 
Q 44.34375 72.90625 50.609375 67.359375 
Q 56.890625 61.8125 56.890625 51.125 
Q 56.890625 40.328125 50.609375 34.8125 
Q 44.34375 29.296875 32.078125 29.296875 
L 19.671875 29.296875 
L 19.671875 0 
L 9.8125 0 
z
" id="DejaVuSans-80"/>
      <path d="M 11.71875 12.40625 
L 22.015625 12.40625 
L 22.015625 4 
L 14.015625 -11.625 
L 7.71875 -11.625 
L 11.71875 4 
z
" id="DejaVuSans-44"/>
      <path d="M 72.703125 32.078125 
Q 68.453125 32.078125 66.03125 28.46875 
Q 63.625 24.859375 63.625 18.40625 
Q 63.625 12.0625 66.03125 8.421875 
Q 68.453125 4.78125 72.703125 4.78125 
Q 76.859375 4.78125 79.265625 8.421875 
Q 81.6875 12.0625 81.6875 18.40625 
Q 81.6875 24.8125 79.265625 28.4375 
Q 76.859375 32.078125 72.703125 32.078125 
z
M 72.703125 38.28125 
Q 80.421875 38.28125 84.953125 32.90625 
Q 89.5 27.546875 89.5 18.40625 
Q 89.5 9.28125 84.9375 3.921875 
Q 80.375 -1.421875 72.703125 -1.421875 
Q 64.890625 -1.421875 60.34375 3.921875 
Q 55.8125 9.28125 55.8125 18.40625 
Q 55.8125 27.59375 60.375 32.9375 
Q 64.9375 38.28125 72.703125 38.28125 
z
M 22.3125 68.015625 
Q 18.109375 68.015625 15.6875 64.375 
Q 13.28125 60.75 13.28125 54.390625 
Q 13.28125 47.953125 15.671875 44.328125 
Q 18.0625 40.71875 22.3125 40.71875 
Q 26.5625 40.71875 28.96875 44.328125 
Q 31.390625 47.953125 31.390625 54.390625 
Q 31.390625 60.6875 28.953125 64.34375 
Q 26.515625 68.015625 22.3125 68.015625 
z
M 66.40625 74.21875 
L 74.21875 74.21875 
L 28.609375 -1.421875 
L 20.796875 -1.421875 
z
M 22.3125 74.21875 
Q 30.03125 74.21875 34.609375 68.875 
Q 39.203125 63.53125 39.203125 54.390625 
Q 39.203125 45.171875 34.640625 39.84375 
Q 30.078125 34.515625 22.3125 34.515625 
Q 14.546875 34.515625 10.03125 39.859375 
Q 5.515625 45.21875 5.515625 54.390625 
Q 5.515625 63.484375 10.046875 68.84375 
Q 14.59375 74.21875 22.3125 74.21875 
z
" id="DejaVuSans-37"/>
      <path d="M 9.8125 72.90625 
L 19.671875 72.90625 
L 19.671875 0 
L 9.8125 0 
z
" id="DejaVuSans-73"/>
     </defs>
     <g transform="translate(403.820313 77.078438)scale(0.1 -0.1)">
      <use xlink:href="#DejaVuSans-114"/>
      <use x="38.863281" xlink:href="#DejaVuSans-111"/>
      <use x="100.044922" xlink:href="#DejaVuSans-111"/>
      <use x="161.226562" xlink:href="#DejaVuSans-116"/>
      <use x="200.435547" xlink:href="#DejaVuSans-45"/>
      <use x="236.519531" xlink:href="#DejaVuSans-99"/>
      <use x="291.5" xlink:href="#DejaVuSans-118"/>
      <use x="350.679688" xlink:href="#DejaVuSans-115"/>
      <use x="402.779297" xlink:href="#DejaVuSans-105"/>
      <use x="430.5625" xlink:href="#DejaVuSans-102"/>
      <use x="464.017578" xlink:href="#DejaVuSans-116"/>
      <use x="503.226562" xlink:href="#DejaVuSans-32"/>
      <use x="535.013672" xlink:href="#DejaVuSans-65"/>
      <use x="603.421875" xlink:href="#DejaVuSans-80"/>
      <use x="663.724609" xlink:href="#DejaVuSans-58"/>
      <use x="697.416016" xlink:href="#DejaVuSans-32"/>
      <use x="729.203125" xlink:href="#DejaVuSans-54"/>
      <use x="792.826172" xlink:href="#DejaVuSans-46"/>
      <use x="824.613281" xlink:href="#DejaVuSans-50"/>
      <use x="888.236328" xlink:href="#DejaVuSans-44"/>
      <use x="920.023438" xlink:href="#DejaVuSans-32"/>
      <use x="951.810547" xlink:href="#DejaVuSans-37"/>
      <use x="1046.830078" xlink:href="#DejaVuSans-73"/>
      <use x="1076.322266" xlink:href="#DejaVuSans-110"/>
      <use x="1139.701172" xlink:href="#DejaVuSans-58"/>
      <use x="1173.392578" xlink:href="#DejaVuSans-32"/>
      <use x="1205.179688" xlink:href="#DejaVuSans-56"/>
      <use x="1268.802734" xlink:href="#DejaVuSans-46"/>
      <use x="1300.589844" xlink:href="#DejaVuSans-49"/>
     </g>
    </g>
    <g id="line2d_50">
     <path d="M 375.820313 88.256563 
L 395.820313 88.256563 
" style="fill:none;stroke:#ff7f0e;stroke-linecap:square;stroke-width:2;"/>
    </g>
    <g id="line2d_51"/>
    <g id="text_27">
     <!-- tfeat AP: 9.6, %In: 9.6 -->
     <g transform="translate(403.820313 91.756563)scale(0.1 -0.1)">
      <use xlink:href="#DejaVuSans-116"/>
      <use x="39.208984" xlink:href="#DejaVuSans-102"/>
      <use x="74.414062" xlink:href="#DejaVuSans-101"/>
      <use x="135.9375" xlink:href="#DejaVuSans-97"/>
      <use x="197.216797" xlink:href="#DejaVuSans-116"/>
      <use x="236.425781" xlink:href="#DejaVuSans-32"/>
      <use x="268.212891" xlink:href="#DejaVuSans-65"/>
      <use x="336.621094" xlink:href="#DejaVuSans-80"/>
      <use x="396.923828" xlink:href="#DejaVuSans-58"/>
      <use x="430.615234" xlink:href="#DejaVuSans-32"/>
      <use x="462.402344" xlink:href="#DejaVuSans-57"/>
      <use x="526.025391" xlink:href="#DejaVuSans-46"/>
      <use x="557.8125" xlink:href="#DejaVuSans-54"/>
      <use x="621.435547" xlink:href="#DejaVuSans-44"/>
      <use x="653.222656" xlink:href="#DejaVuSans-32"/>
      <use x="685.009766" xlink:href="#DejaVuSans-37"/>
      <use x="780.029297" xlink:href="#DejaVuSans-73"/>
      <use x="809.521484" xlink:href="#DejaVuSans-110"/>
      <use x="872.900391" xlink:href="#DejaVuSans-58"/>
      <use x="906.591797" xlink:href="#DejaVuSans-32"/>
      <use x="938.378906" xlink:href="#DejaVuSans-57"/>
      <use x="1002.001953" xlink:href="#DejaVuSans-46"/>
      <use x="1033.789062" xlink:href="#DejaVuSans-54"/>
     </g>
    </g>
    <g id="line2d_52">
     <path d="M 375.820313 102.934687 
L 395.820313 102.934687 
" style="fill:none;stroke:#2ca02c;stroke-linecap:square;stroke-width:2;"/>
    </g>
    <g id="line2d_53"/>
    <g id="text_28">
     <!-- hardnet AP: 41.5, %In: 13.5 -->
     <defs>
      <path d="M 45.40625 46.390625 
L 45.40625 75.984375 
L 54.390625 75.984375 
L 54.390625 0 
L 45.40625 0 
L 45.40625 8.203125 
Q 42.578125 3.328125 38.25 0.953125 
Q 33.9375 -1.421875 27.875 -1.421875 
Q 17.96875 -1.421875 11.734375 6.484375 
Q 5.515625 14.40625 5.515625 27.296875 
Q 5.515625 40.1875 11.734375 48.09375 
Q 17.96875 56 27.875 56 
Q 33.9375 56 38.25 53.625 
Q 42.578125 51.265625 45.40625 46.390625 
z
M 14.796875 27.296875 
Q 14.796875 17.390625 18.875 11.75 
Q 22.953125 6.109375 30.078125 6.109375 
Q 37.203125 6.109375 41.296875 11.75 
Q 45.40625 17.390625 45.40625 27.296875 
Q 45.40625 37.203125 41.296875 42.84375 
Q 37.203125 48.484375 30.078125 48.484375 
Q 22.953125 48.484375 18.875 42.84375 
Q 14.796875 37.203125 14.796875 27.296875 
z
" id="DejaVuSans-100"/>
     </defs>
     <g transform="translate(403.820313 106.434687)scale(0.1 -0.1)">
      <use xlink:href="#DejaVuSans-104"/>
      <use x="63.378906" xlink:href="#DejaVuSans-97"/>
      <use x="124.658203" xlink:href="#DejaVuSans-114"/>
      <use x="164.021484" xlink:href="#DejaVuSans-100"/>
      <use x="227.498047" xlink:href="#DejaVuSans-110"/>
      <use x="290.876953" xlink:href="#DejaVuSans-101"/>
      <use x="352.400391" xlink:href="#DejaVuSans-116"/>
      <use x="391.609375" xlink:href="#DejaVuSans-32"/>
      <use x="423.396484" xlink:href="#DejaVuSans-65"/>
      <use x="491.804688" xlink:href="#DejaVuSans-80"/>
      <use x="552.107422" xlink:href="#DejaVuSans-58"/>
      <use x="585.798828" xlink:href="#DejaVuSans-32"/>
      <use x="617.585938" xlink:href="#DejaVuSans-52"/>
      <use x="681.208984" xlink:href="#DejaVuSans-49"/>
      <use x="744.832031" xlink:href="#DejaVuSans-46"/>
      <use x="776.619141" xlink:href="#DejaVuSans-53"/>
      <use x="840.242188" xlink:href="#DejaVuSans-44"/>
      <use x="872.029297" xlink:href="#DejaVuSans-32"/>
      <use x="903.816406" xlink:href="#DejaVuSans-37"/>
      <use x="998.835938" xlink:href="#DejaVuSans-73"/>
      <use x="1028.328125" xlink:href="#DejaVuSans-110"/>
      <use x="1091.707031" xlink:href="#DejaVuSans-58"/>
      <use x="1125.398438" xlink:href="#DejaVuSans-32"/>
      <use x="1157.185547" xlink:href="#DejaVuSans-49"/>
      <use x="1220.808594" xlink:href="#DejaVuSans-51"/>
      <use x="1284.431641" xlink:href="#DejaVuSans-46"/>
      <use x="1316.21875" xlink:href="#DejaVuSans-53"/>
     </g>
    </g>
   </g>
  </g>
 </g>
 <defs>
  <clipPath id="pe176e97c36">
   <rect height="388.08" width="474.3" x="76.5" y="60.48"/>
  </clipPath>
 </defs>
</svg>
