<?xml version="1.0" encoding="utf-8" standalone="no"?>
<!DOCTYPE svg PUBLIC "-//W3C//DTD SVG 1.1//EN"
  "http://www.w3.org/Graphics/SVG/1.1/DTD/svg11.dtd">
<!-- Created with matplotlib (https://matplotlib.org/) -->
<svg height="504pt" version="1.1" viewBox="0 0 612 504" width="612pt" xmlns="http://www.w3.org/2000/svg" xmlns:xlink="http://www.w3.org/1999/xlink">
 <defs>
  <style type="text/css">
*{stroke-linecap:butt;stroke-linejoin:round;}
  </style>
 </defs>
 <g id="figure_1">
  <g id="patch_1">
   <path d="M 0 504 
L 612 504 
L 612 0 
L 0 0 
z
" style="fill:#ffffff;"/>
  </g>
  <g id="axes_1">
   <g id="patch_2">
    <path d="M 76.5 448.56 
L 550.8 448.56 
L 550.8 60.48 
L 76.5 60.48 
z
" style="fill:#ffffff;"/>
   </g>
   <g id="matplotlib.axis_1">
    <g id="xtick_1">
     <g id="line2d_1">
      <path clip-path="url(#p54c37eebdc)" d="M 76.5 448.56 
L 76.5 60.48 
" style="fill:none;stroke:#b0b0b0;stroke-linecap:square;stroke-width:0.8;"/>
     </g>
     <g id="line2d_2">
      <defs>
       <path d="M 0 0 
L 0 3.5 
" id="mee55977083" style="stroke:#000000;stroke-width:0.8;"/>
      </defs>
      <g>
       <use style="stroke:#000000;stroke-width:0.8;" x="76.5" xlink:href="#mee55977083" y="448.56"/>
      </g>
     </g>
     <g id="text_1">
      <!-- 0.0 -->
      <defs>
       <path d="M 31.78125 66.40625 
Q 24.171875 66.40625 20.328125 58.90625 
Q 16.5 51.421875 16.5 36.375 
Q 16.5 21.390625 20.328125 13.890625 
Q 24.171875 6.390625 31.78125 6.390625 
Q 39.453125 6.390625 43.28125 13.890625 
Q 47.125 21.390625 47.125 36.375 
Q 47.125 51.421875 43.28125 58.90625 
Q 39.453125 66.40625 31.78125 66.40625 
z
M 31.78125 74.21875 
Q 44.046875 74.21875 50.515625 64.515625 
Q 56.984375 54.828125 56.984375 36.375 
Q 56.984375 17.96875 50.515625 8.265625 
Q 44.046875 -1.421875 31.78125 -1.421875 
Q 19.53125 -1.421875 13.0625 8.265625 
Q 6.59375 17.96875 6.59375 36.375 
Q 6.59375 54.828125 13.0625 64.515625 
Q 19.53125 74.21875 31.78125 74.21875 
z
" id="DejaVuSans-48"/>
       <path d="M 10.6875 12.40625 
L 21 12.40625 
L 21 0 
L 10.6875 0 
z
" id="DejaVuSans-46"/>
      </defs>
      <g transform="translate(68.548438 463.158437)scale(0.1 -0.1)">
       <use xlink:href="#DejaVuSans-48"/>
       <use x="63.623047" xlink:href="#DejaVuSans-46"/>
       <use x="95.410156" xlink:href="#DejaVuSans-48"/>
      </g>
     </g>
    </g>
    <g id="xtick_2">
     <g id="line2d_3">
      <path clip-path="url(#p54c37eebdc)" d="M 123.93 448.56 
L 123.93 60.48 
" style="fill:none;stroke:#b0b0b0;stroke-linecap:square;stroke-width:0.8;"/>
     </g>
     <g id="line2d_4">
      <g>
       <use style="stroke:#000000;stroke-width:0.8;" x="123.93" xlink:href="#mee55977083" y="448.56"/>
      </g>
     </g>
     <g id="text_2">
      <!-- 0.1 -->
      <defs>
       <path d="M 12.40625 8.296875 
L 28.515625 8.296875 
L 28.515625 63.921875 
L 10.984375 60.40625 
L 10.984375 69.390625 
L 28.421875 72.90625 
L 38.28125 72.90625 
L 38.28125 8.296875 
L 54.390625 8.296875 
L 54.390625 0 
L 12.40625 0 
z
" id="DejaVuSans-49"/>
      </defs>
      <g transform="translate(115.978438 463.158437)scale(0.1 -0.1)">
       <use xlink:href="#DejaVuSans-48"/>
       <use x="63.623047" xlink:href="#DejaVuSans-46"/>
       <use x="95.410156" xlink:href="#DejaVuSans-49"/>
      </g>
     </g>
    </g>
    <g id="xtick_3">
     <g id="line2d_5">
      <path clip-path="url(#p54c37eebdc)" d="M 171.36 448.56 
L 171.36 60.48 
" style="fill:none;stroke:#b0b0b0;stroke-linecap:square;stroke-width:0.8;"/>
     </g>
     <g id="line2d_6">
      <g>
       <use style="stroke:#000000;stroke-width:0.8;" x="171.36" xlink:href="#mee55977083" y="448.56"/>
      </g>
     </g>
     <g id="text_3">
      <!-- 0.2 -->
      <defs>
       <path d="M 19.1875 8.296875 
L 53.609375 8.296875 
L 53.609375 0 
L 7.328125 0 
L 7.328125 8.296875 
Q 12.9375 14.109375 22.625 23.890625 
Q 32.328125 33.6875 34.8125 36.53125 
Q 39.546875 41.84375 41.421875 45.53125 
Q 43.3125 49.21875 43.3125 52.78125 
Q 43.3125 58.59375 39.234375 62.25 
Q 35.15625 65.921875 28.609375 65.921875 
Q 23.96875 65.921875 18.8125 64.3125 
Q 13.671875 62.703125 7.8125 59.421875 
L 7.8125 69.390625 
Q 13.765625 71.78125 18.9375 73 
Q 24.125 74.21875 28.421875 74.21875 
Q 39.75 74.21875 46.484375 68.546875 
Q 53.21875 62.890625 53.21875 53.421875 
Q 53.21875 48.921875 51.53125 44.890625 
Q 49.859375 40.875 45.40625 35.40625 
Q 44.1875 33.984375 37.640625 27.21875 
Q 31.109375 20.453125 19.1875 8.296875 
z
" id="DejaVuSans-50"/>
      </defs>
      <g transform="translate(163.408438 463.158437)scale(0.1 -0.1)">
       <use xlink:href="#DejaVuSans-48"/>
       <use x="63.623047" xlink:href="#DejaVuSans-46"/>
       <use x="95.410156" xlink:href="#DejaVuSans-50"/>
      </g>
     </g>
    </g>
    <g id="xtick_4">
     <g id="line2d_7">
      <path clip-path="url(#p54c37eebdc)" d="M 218.79 448.56 
L 218.79 60.48 
" style="fill:none;stroke:#b0b0b0;stroke-linecap:square;stroke-width:0.8;"/>
     </g>
     <g id="line2d_8">
      <g>
       <use style="stroke:#000000;stroke-width:0.8;" x="218.79" xlink:href="#mee55977083" y="448.56"/>
      </g>
     </g>
     <g id="text_4">
      <!-- 0.3 -->
      <defs>
       <path d="M 40.578125 39.3125 
Q 47.65625 37.796875 51.625 33 
Q 55.609375 28.21875 55.609375 21.1875 
Q 55.609375 10.40625 48.1875 4.484375 
Q 40.765625 -1.421875 27.09375 -1.421875 
Q 22.515625 -1.421875 17.65625 -0.515625 
Q 12.796875 0.390625 7.625 2.203125 
L 7.625 11.71875 
Q 11.71875 9.328125 16.59375 8.109375 
Q 21.484375 6.890625 26.8125 6.890625 
Q 36.078125 6.890625 40.9375 10.546875 
Q 45.796875 14.203125 45.796875 21.1875 
Q 45.796875 27.640625 41.28125 31.265625 
Q 36.765625 34.90625 28.71875 34.90625 
L 20.21875 34.90625 
L 20.21875 43.015625 
L 29.109375 43.015625 
Q 36.375 43.015625 40.234375 45.921875 
Q 44.09375 48.828125 44.09375 54.296875 
Q 44.09375 59.90625 40.109375 62.90625 
Q 36.140625 65.921875 28.71875 65.921875 
Q 24.65625 65.921875 20.015625 65.03125 
Q 15.375 64.15625 9.8125 62.3125 
L 9.8125 71.09375 
Q 15.4375 72.65625 20.34375 73.4375 
Q 25.25 74.21875 29.59375 74.21875 
Q 40.828125 74.21875 47.359375 69.109375 
Q 53.90625 64.015625 53.90625 55.328125 
Q 53.90625 49.265625 50.4375 45.09375 
Q 46.96875 40.921875 40.578125 39.3125 
z
" id="DejaVuSans-51"/>
      </defs>
      <g transform="translate(210.838438 463.158437)scale(0.1 -0.1)">
       <use xlink:href="#DejaVuSans-48"/>
       <use x="63.623047" xlink:href="#DejaVuSans-46"/>
       <use x="95.410156" xlink:href="#DejaVuSans-51"/>
      </g>
     </g>
    </g>
    <g id="xtick_5">
     <g id="line2d_9">
      <path clip-path="url(#p54c37eebdc)" d="M 266.22 448.56 
L 266.22 60.48 
" style="fill:none;stroke:#b0b0b0;stroke-linecap:square;stroke-width:0.8;"/>
     </g>
     <g id="line2d_10">
      <g>
       <use style="stroke:#000000;stroke-width:0.8;" x="266.22" xlink:href="#mee55977083" y="448.56"/>
      </g>
     </g>
     <g id="text_5">
      <!-- 0.4 -->
      <defs>
       <path d="M 37.796875 64.3125 
L 12.890625 25.390625 
L 37.796875 25.390625 
z
M 35.203125 72.90625 
L 47.609375 72.90625 
L 47.609375 25.390625 
L 58.015625 25.390625 
L 58.015625 17.1875 
L 47.609375 17.1875 
L 47.609375 0 
L 37.796875 0 
L 37.796875 17.1875 
L 4.890625 17.1875 
L 4.890625 26.703125 
z
" id="DejaVuSans-52"/>
      </defs>
      <g transform="translate(258.268438 463.158437)scale(0.1 -0.1)">
       <use xlink:href="#DejaVuSans-48"/>
       <use x="63.623047" xlink:href="#DejaVuSans-46"/>
       <use x="95.410156" xlink:href="#DejaVuSans-52"/>
      </g>
     </g>
    </g>
    <g id="xtick_6">
     <g id="line2d_11">
      <path clip-path="url(#p54c37eebdc)" d="M 313.65 448.56 
L 313.65 60.48 
" style="fill:none;stroke:#b0b0b0;stroke-linecap:square;stroke-width:0.8;"/>
     </g>
     <g id="line2d_12">
      <g>
       <use style="stroke:#000000;stroke-width:0.8;" x="313.65" xlink:href="#mee55977083" y="448.56"/>
      </g>
     </g>
     <g id="text_6">
      <!-- 0.5 -->
      <defs>
       <path d="M 10.796875 72.90625 
L 49.515625 72.90625 
L 49.515625 64.59375 
L 19.828125 64.59375 
L 19.828125 46.734375 
Q 21.96875 47.46875 24.109375 47.828125 
Q 26.265625 48.1875 28.421875 48.1875 
Q 40.625 48.1875 47.75 41.5 
Q 54.890625 34.8125 54.890625 23.390625 
Q 54.890625 11.625 47.5625 5.09375 
Q 40.234375 -1.421875 26.90625 -1.421875 
Q 22.3125 -1.421875 17.546875 -0.640625 
Q 12.796875 0.140625 7.71875 1.703125 
L 7.71875 11.625 
Q 12.109375 9.234375 16.796875 8.0625 
Q 21.484375 6.890625 26.703125 6.890625 
Q 35.15625 6.890625 40.078125 11.328125 
Q 45.015625 15.765625 45.015625 23.390625 
Q 45.015625 31 40.078125 35.4375 
Q 35.15625 39.890625 26.703125 39.890625 
Q 22.75 39.890625 18.8125 39.015625 
Q 14.890625 38.140625 10.796875 36.28125 
z
" id="DejaVuSans-53"/>
      </defs>
      <g transform="translate(305.698438 463.158437)scale(0.1 -0.1)">
       <use xlink:href="#DejaVuSans-48"/>
       <use x="63.623047" xlink:href="#DejaVuSans-46"/>
       <use x="95.410156" xlink:href="#DejaVuSans-53"/>
      </g>
     </g>
    </g>
    <g id="xtick_7">
     <g id="line2d_13">
      <path clip-path="url(#p54c37eebdc)" d="M 361.08 448.56 
L 361.08 60.48 
" style="fill:none;stroke:#b0b0b0;stroke-linecap:square;stroke-width:0.8;"/>
     </g>
     <g id="line2d_14">
      <g>
       <use style="stroke:#000000;stroke-width:0.8;" x="361.08" xlink:href="#mee55977083" y="448.56"/>
      </g>
     </g>
     <g id="text_7">
      <!-- 0.6 -->
      <defs>
       <path d="M 33.015625 40.375 
Q 26.375 40.375 22.484375 35.828125 
Q 18.609375 31.296875 18.609375 23.390625 
Q 18.609375 15.53125 22.484375 10.953125 
Q 26.375 6.390625 33.015625 6.390625 
Q 39.65625 6.390625 43.53125 10.953125 
Q 47.40625 15.53125 47.40625 23.390625 
Q 47.40625 31.296875 43.53125 35.828125 
Q 39.65625 40.375 33.015625 40.375 
z
M 52.59375 71.296875 
L 52.59375 62.3125 
Q 48.875 64.0625 45.09375 64.984375 
Q 41.3125 65.921875 37.59375 65.921875 
Q 27.828125 65.921875 22.671875 59.328125 
Q 17.53125 52.734375 16.796875 39.40625 
Q 19.671875 43.65625 24.015625 45.921875 
Q 28.375 48.1875 33.59375 48.1875 
Q 44.578125 48.1875 50.953125 41.515625 
Q 57.328125 34.859375 57.328125 23.390625 
Q 57.328125 12.15625 50.6875 5.359375 
Q 44.046875 -1.421875 33.015625 -1.421875 
Q 20.359375 -1.421875 13.671875 8.265625 
Q 6.984375 17.96875 6.984375 36.375 
Q 6.984375 53.65625 15.1875 63.9375 
Q 23.390625 74.21875 37.203125 74.21875 
Q 40.921875 74.21875 44.703125 73.484375 
Q 48.484375 72.75 52.59375 71.296875 
z
" id="DejaVuSans-54"/>
      </defs>
      <g transform="translate(353.128438 463.158437)scale(0.1 -0.1)">
       <use xlink:href="#DejaVuSans-48"/>
       <use x="63.623047" xlink:href="#DejaVuSans-46"/>
       <use x="95.410156" xlink:href="#DejaVuSans-54"/>
      </g>
     </g>
    </g>
    <g id="xtick_8">
     <g id="line2d_15">
      <path clip-path="url(#p54c37eebdc)" d="M 408.51 448.56 
L 408.51 60.48 
" style="fill:none;stroke:#b0b0b0;stroke-linecap:square;stroke-width:0.8;"/>
     </g>
     <g id="line2d_16">
      <g>
       <use style="stroke:#000000;stroke-width:0.8;" x="408.51" xlink:href="#mee55977083" y="448.56"/>
      </g>
     </g>
     <g id="text_8">
      <!-- 0.7 -->
      <defs>
       <path d="M 8.203125 72.90625 
L 55.078125 72.90625 
L 55.078125 68.703125 
L 28.609375 0 
L 18.3125 0 
L 43.21875 64.59375 
L 8.203125 64.59375 
z
" id="DejaVuSans-55"/>
      </defs>
      <g transform="translate(400.558438 463.158437)scale(0.1 -0.1)">
       <use xlink:href="#DejaVuSans-48"/>
       <use x="63.623047" xlink:href="#DejaVuSans-46"/>
       <use x="95.410156" xlink:href="#DejaVuSans-55"/>
      </g>
     </g>
    </g>
    <g id="xtick_9">
     <g id="line2d_17">
      <path clip-path="url(#p54c37eebdc)" d="M 455.94 448.56 
L 455.94 60.48 
" style="fill:none;stroke:#b0b0b0;stroke-linecap:square;stroke-width:0.8;"/>
     </g>
     <g id="line2d_18">
      <g>
       <use style="stroke:#000000;stroke-width:0.8;" x="455.94" xlink:href="#mee55977083" y="448.56"/>
      </g>
     </g>
     <g id="text_9">
      <!-- 0.8 -->
      <defs>
       <path d="M 31.78125 34.625 
Q 24.75 34.625 20.71875 30.859375 
Q 16.703125 27.09375 16.703125 20.515625 
Q 16.703125 13.921875 20.71875 10.15625 
Q 24.75 6.390625 31.78125 6.390625 
Q 38.8125 6.390625 42.859375 10.171875 
Q 46.921875 13.96875 46.921875 20.515625 
Q 46.921875 27.09375 42.890625 30.859375 
Q 38.875 34.625 31.78125 34.625 
z
M 21.921875 38.8125 
Q 15.578125 40.375 12.03125 44.71875 
Q 8.5 49.078125 8.5 55.328125 
Q 8.5 64.0625 14.71875 69.140625 
Q 20.953125 74.21875 31.78125 74.21875 
Q 42.671875 74.21875 48.875 69.140625 
Q 55.078125 64.0625 55.078125 55.328125 
Q 55.078125 49.078125 51.53125 44.71875 
Q 48 40.375 41.703125 38.8125 
Q 48.828125 37.15625 52.796875 32.3125 
Q 56.78125 27.484375 56.78125 20.515625 
Q 56.78125 9.90625 50.3125 4.234375 
Q 43.84375 -1.421875 31.78125 -1.421875 
Q 19.734375 -1.421875 13.25 4.234375 
Q 6.78125 9.90625 6.78125 20.515625 
Q 6.78125 27.484375 10.78125 32.3125 
Q 14.796875 37.15625 21.921875 38.8125 
z
M 18.3125 54.390625 
Q 18.3125 48.734375 21.84375 45.5625 
Q 25.390625 42.390625 31.78125 42.390625 
Q 38.140625 42.390625 41.71875 45.5625 
Q 45.3125 48.734375 45.3125 54.390625 
Q 45.3125 60.0625 41.71875 63.234375 
Q 38.140625 66.40625 31.78125 66.40625 
Q 25.390625 66.40625 21.84375 63.234375 
Q 18.3125 60.0625 18.3125 54.390625 
z
" id="DejaVuSans-56"/>
      </defs>
      <g transform="translate(447.988438 463.158437)scale(0.1 -0.1)">
       <use xlink:href="#DejaVuSans-48"/>
       <use x="63.623047" xlink:href="#DejaVuSans-46"/>
       <use x="95.410156" xlink:href="#DejaVuSans-56"/>
      </g>
     </g>
    </g>
    <g id="xtick_10">
     <g id="line2d_19">
      <path clip-path="url(#p54c37eebdc)" d="M 503.37 448.56 
L 503.37 60.48 
" style="fill:none;stroke:#b0b0b0;stroke-linecap:square;stroke-width:0.8;"/>
     </g>
     <g id="line2d_20">
      <g>
       <use style="stroke:#000000;stroke-width:0.8;" x="503.37" xlink:href="#mee55977083" y="448.56"/>
      </g>
     </g>
     <g id="text_10">
      <!-- 0.9 -->
      <defs>
       <path d="M 10.984375 1.515625 
L 10.984375 10.5 
Q 14.703125 8.734375 18.5 7.8125 
Q 22.3125 6.890625 25.984375 6.890625 
Q 35.75 6.890625 40.890625 13.453125 
Q 46.046875 20.015625 46.78125 33.40625 
Q 43.953125 29.203125 39.59375 26.953125 
Q 35.25 24.703125 29.984375 24.703125 
Q 19.046875 24.703125 12.671875 31.3125 
Q 6.296875 37.9375 6.296875 49.421875 
Q 6.296875 60.640625 12.9375 67.421875 
Q 19.578125 74.21875 30.609375 74.21875 
Q 43.265625 74.21875 49.921875 64.515625 
Q 56.59375 54.828125 56.59375 36.375 
Q 56.59375 19.140625 48.40625 8.859375 
Q 40.234375 -1.421875 26.421875 -1.421875 
Q 22.703125 -1.421875 18.890625 -0.6875 
Q 15.09375 0.046875 10.984375 1.515625 
z
M 30.609375 32.421875 
Q 37.25 32.421875 41.125 36.953125 
Q 45.015625 41.5 45.015625 49.421875 
Q 45.015625 57.28125 41.125 61.84375 
Q 37.25 66.40625 30.609375 66.40625 
Q 23.96875 66.40625 20.09375 61.84375 
Q 16.21875 57.28125 16.21875 49.421875 
Q 16.21875 41.5 20.09375 36.953125 
Q 23.96875 32.421875 30.609375 32.421875 
z
" id="DejaVuSans-57"/>
      </defs>
      <g transform="translate(495.418438 463.158437)scale(0.1 -0.1)">
       <use xlink:href="#DejaVuSans-48"/>
       <use x="63.623047" xlink:href="#DejaVuSans-46"/>
       <use x="95.410156" xlink:href="#DejaVuSans-57"/>
      </g>
     </g>
    </g>
    <g id="xtick_11">
     <g id="line2d_21">
      <path clip-path="url(#p54c37eebdc)" d="M 550.8 448.56 
L 550.8 60.48 
" style="fill:none;stroke:#b0b0b0;stroke-linecap:square;stroke-width:0.8;"/>
     </g>
     <g id="line2d_22">
      <g>
       <use style="stroke:#000000;stroke-width:0.8;" x="550.8" xlink:href="#mee55977083" y="448.56"/>
      </g>
     </g>
     <g id="text_11">
      <!-- 1.0 -->
      <g transform="translate(542.848438 463.158437)scale(0.1 -0.1)">
       <use xlink:href="#DejaVuSans-49"/>
       <use x="63.623047" xlink:href="#DejaVuSans-46"/>
       <use x="95.410156" xlink:href="#DejaVuSans-48"/>
      </g>
     </g>
    </g>
    <g id="text_12">
     <!-- 1-precision -->
     <defs>
      <path d="M 4.890625 31.390625 
L 31.203125 31.390625 
L 31.203125 23.390625 
L 4.890625 23.390625 
z
" id="DejaVuSans-45"/>
      <path d="M 18.109375 8.203125 
L 18.109375 -20.796875 
L 9.078125 -20.796875 
L 9.078125 54.6875 
L 18.109375 54.6875 
L 18.109375 46.390625 
Q 20.953125 51.265625 25.265625 53.625 
Q 29.59375 56 35.59375 56 
Q 45.5625 56 51.78125 48.09375 
Q 58.015625 40.1875 58.015625 27.296875 
Q 58.015625 14.40625 51.78125 6.484375 
Q 45.5625 -1.421875 35.59375 -1.421875 
Q 29.59375 -1.421875 25.265625 0.953125 
Q 20.953125 3.328125 18.109375 8.203125 
z
M 48.6875 27.296875 
Q 48.6875 37.203125 44.609375 42.84375 
Q 40.53125 48.484375 33.40625 48.484375 
Q 26.265625 48.484375 22.1875 42.84375 
Q 18.109375 37.203125 18.109375 27.296875 
Q 18.109375 17.390625 22.1875 11.75 
Q 26.265625 6.109375 33.40625 6.109375 
Q 40.53125 6.109375 44.609375 11.75 
Q 48.6875 17.390625 48.6875 27.296875 
z
" id="DejaVuSans-112"/>
      <path d="M 41.109375 46.296875 
Q 39.59375 47.171875 37.8125 47.578125 
Q 36.03125 48 33.890625 48 
Q 26.265625 48 22.1875 43.046875 
Q 18.109375 38.09375 18.109375 28.8125 
L 18.109375 0 
L 9.078125 0 
L 9.078125 54.6875 
L 18.109375 54.6875 
L 18.109375 46.1875 
Q 20.953125 51.171875 25.484375 53.578125 
Q 30.03125 56 36.53125 56 
Q 37.453125 56 38.578125 55.875 
Q 39.703125 55.765625 41.0625 55.515625 
z
" id="DejaVuSans-114"/>
      <path d="M 56.203125 29.59375 
L 56.203125 25.203125 
L 14.890625 25.203125 
Q 15.484375 15.921875 20.484375 11.0625 
Q 25.484375 6.203125 34.421875 6.203125 
Q 39.59375 6.203125 44.453125 7.46875 
Q 49.3125 8.734375 54.109375 11.28125 
L 54.109375 2.78125 
Q 49.265625 0.734375 44.1875 -0.34375 
Q 39.109375 -1.421875 33.890625 -1.421875 
Q 20.796875 -1.421875 13.15625 6.1875 
Q 5.515625 13.8125 5.515625 26.8125 
Q 5.515625 40.234375 12.765625 48.109375 
Q 20.015625 56 32.328125 56 
Q 43.359375 56 49.78125 48.890625 
Q 56.203125 41.796875 56.203125 29.59375 
z
M 47.21875 32.234375 
Q 47.125 39.59375 43.09375 43.984375 
Q 39.0625 48.390625 32.421875 48.390625 
Q 24.90625 48.390625 20.390625 44.140625 
Q 15.875 39.890625 15.1875 32.171875 
z
" id="DejaVuSans-101"/>
      <path d="M 48.78125 52.59375 
L 48.78125 44.1875 
Q 44.96875 46.296875 41.140625 47.34375 
Q 37.3125 48.390625 33.40625 48.390625 
Q 24.65625 48.390625 19.8125 42.84375 
Q 14.984375 37.3125 14.984375 27.296875 
Q 14.984375 17.28125 19.8125 11.734375 
Q 24.65625 6.203125 33.40625 6.203125 
Q 37.3125 6.203125 41.140625 7.25 
Q 44.96875 8.296875 48.78125 10.40625 
L 48.78125 2.09375 
Q 45.015625 0.34375 40.984375 -0.53125 
Q 36.96875 -1.421875 32.421875 -1.421875 
Q 20.0625 -1.421875 12.78125 6.34375 
Q 5.515625 14.109375 5.515625 27.296875 
Q 5.515625 40.671875 12.859375 48.328125 
Q 20.21875 56 33.015625 56 
Q 37.15625 56 41.109375 55.140625 
Q 45.0625 54.296875 48.78125 52.59375 
z
" id="DejaVuSans-99"/>
      <path d="M 9.421875 54.6875 
L 18.40625 54.6875 
L 18.40625 0 
L 9.421875 0 
z
M 9.421875 75.984375 
L 18.40625 75.984375 
L 18.40625 64.59375 
L 9.421875 64.59375 
z
" id="DejaVuSans-105"/>
      <path d="M 44.28125 53.078125 
L 44.28125 44.578125 
Q 40.484375 46.53125 36.375 47.5 
Q 32.28125 48.484375 27.875 48.484375 
Q 21.1875 48.484375 17.84375 46.4375 
Q 14.5 44.390625 14.5 40.28125 
Q 14.5 37.15625 16.890625 35.375 
Q 19.28125 33.59375 26.515625 31.984375 
L 29.59375 31.296875 
Q 39.15625 29.25 43.1875 25.515625 
Q 47.21875 21.78125 47.21875 15.09375 
Q 47.21875 7.46875 41.1875 3.015625 
Q 35.15625 -1.421875 24.609375 -1.421875 
Q 20.21875 -1.421875 15.453125 -0.5625 
Q 10.6875 0.296875 5.421875 2 
L 5.421875 11.28125 
Q 10.40625 8.6875 15.234375 7.390625 
Q 20.0625 6.109375 24.8125 6.109375 
Q 31.15625 6.109375 34.5625 8.28125 
Q 37.984375 10.453125 37.984375 14.40625 
Q 37.984375 18.0625 35.515625 20.015625 
Q 33.0625 21.96875 24.703125 23.78125 
L 21.578125 24.515625 
Q 13.234375 26.265625 9.515625 29.90625 
Q 5.8125 33.546875 5.8125 39.890625 
Q 5.8125 47.609375 11.28125 51.796875 
Q 16.75 56 26.8125 56 
Q 31.78125 56 36.171875 55.265625 
Q 40.578125 54.546875 44.28125 53.078125 
z
" id="DejaVuSans-115"/>
      <path d="M 30.609375 48.390625 
Q 23.390625 48.390625 19.1875 42.75 
Q 14.984375 37.109375 14.984375 27.296875 
Q 14.984375 17.484375 19.15625 11.84375 
Q 23.34375 6.203125 30.609375 6.203125 
Q 37.796875 6.203125 41.984375 11.859375 
Q 46.1875 17.53125 46.1875 27.296875 
Q 46.1875 37.015625 41.984375 42.703125 
Q 37.796875 48.390625 30.609375 48.390625 
z
M 30.609375 56 
Q 42.328125 56 49.015625 48.375 
Q 55.71875 40.765625 55.71875 27.296875 
Q 55.71875 13.875 49.015625 6.21875 
Q 42.328125 -1.421875 30.609375 -1.421875 
Q 18.84375 -1.421875 12.171875 6.21875 
Q 5.515625 13.875 5.515625 27.296875 
Q 5.515625 40.765625 12.171875 48.375 
Q 18.84375 56 30.609375 56 
z
" id="DejaVuSans-111"/>
      <path d="M 54.890625 33.015625 
L 54.890625 0 
L 45.90625 0 
L 45.90625 32.71875 
Q 45.90625 40.484375 42.875 44.328125 
Q 39.84375 48.1875 33.796875 48.1875 
Q 26.515625 48.1875 22.3125 43.546875 
Q 18.109375 38.921875 18.109375 30.90625 
L 18.109375 0 
L 9.078125 0 
L 9.078125 54.6875 
L 18.109375 54.6875 
L 18.109375 46.1875 
Q 21.34375 51.125 25.703125 53.5625 
Q 30.078125 56 35.796875 56 
Q 45.21875 56 50.046875 50.171875 
Q 54.890625 44.34375 54.890625 33.015625 
z
" id="DejaVuSans-110"/>
     </defs>
     <g transform="translate(286.110938 476.836563)scale(0.1 -0.1)">
      <use xlink:href="#DejaVuSans-49"/>
      <use x="63.623047" xlink:href="#DejaVuSans-45"/>
      <use x="99.707031" xlink:href="#DejaVuSans-112"/>
      <use x="163.183594" xlink:href="#DejaVuSans-114"/>
      <use x="202.046875" xlink:href="#DejaVuSans-101"/>
      <use x="263.570312" xlink:href="#DejaVuSans-99"/>
      <use x="318.550781" xlink:href="#DejaVuSans-105"/>
      <use x="346.333984" xlink:href="#DejaVuSans-115"/>
      <use x="398.433594" xlink:href="#DejaVuSans-105"/>
      <use x="426.216797" xlink:href="#DejaVuSans-111"/>
      <use x="487.398438" xlink:href="#DejaVuSans-110"/>
     </g>
    </g>
   </g>
   <g id="matplotlib.axis_2">
    <g id="ytick_1">
     <g id="line2d_23">
      <path clip-path="url(#p54c37eebdc)" d="M 76.5 448.56 
L 550.8 448.56 
" style="fill:none;stroke:#b0b0b0;stroke-linecap:square;stroke-width:0.8;"/>
     </g>
     <g id="line2d_24">
      <defs>
       <path d="M 0 0 
L -3.5 0 
" id="m280066f1f5" style="stroke:#000000;stroke-width:0.8;"/>
      </defs>
      <g>
       <use style="stroke:#000000;stroke-width:0.8;" x="76.5" xlink:href="#m280066f1f5" y="448.56"/>
      </g>
     </g>
     <g id="text_13">
      <!-- 0.0 -->
      <g transform="translate(53.596875 452.359219)scale(0.1 -0.1)">
       <use xlink:href="#DejaVuSans-48"/>
       <use x="63.623047" xlink:href="#DejaVuSans-46"/>
       <use x="95.410156" xlink:href="#DejaVuSans-48"/>
      </g>
     </g>
    </g>
    <g id="ytick_2">
     <g id="line2d_25">
      <path clip-path="url(#p54c37eebdc)" d="M 76.5 409.752 
L 550.8 409.752 
" style="fill:none;stroke:#b0b0b0;stroke-linecap:square;stroke-width:0.8;"/>
     </g>
     <g id="line2d_26">
      <g>
       <use style="stroke:#000000;stroke-width:0.8;" x="76.5" xlink:href="#m280066f1f5" y="409.752"/>
      </g>
     </g>
     <g id="text_14">
      <!-- 0.1 -->
      <g transform="translate(53.596875 413.551219)scale(0.1 -0.1)">
       <use xlink:href="#DejaVuSans-48"/>
       <use x="63.623047" xlink:href="#DejaVuSans-46"/>
       <use x="95.410156" xlink:href="#DejaVuSans-49"/>
      </g>
     </g>
    </g>
    <g id="ytick_3">
     <g id="line2d_27">
      <path clip-path="url(#p54c37eebdc)" d="M 76.5 370.944 
L 550.8 370.944 
" style="fill:none;stroke:#b0b0b0;stroke-linecap:square;stroke-width:0.8;"/>
     </g>
     <g id="line2d_28">
      <g>
       <use style="stroke:#000000;stroke-width:0.8;" x="76.5" xlink:href="#m280066f1f5" y="370.944"/>
      </g>
     </g>
     <g id="text_15">
      <!-- 0.2 -->
      <g transform="translate(53.596875 374.743219)scale(0.1 -0.1)">
       <use xlink:href="#DejaVuSans-48"/>
       <use x="63.623047" xlink:href="#DejaVuSans-46"/>
       <use x="95.410156" xlink:href="#DejaVuSans-50"/>
      </g>
     </g>
    </g>
    <g id="ytick_4">
     <g id="line2d_29">
      <path clip-path="url(#p54c37eebdc)" d="M 76.5 332.136 
L 550.8 332.136 
" style="fill:none;stroke:#b0b0b0;stroke-linecap:square;stroke-width:0.8;"/>
     </g>
     <g id="line2d_30">
      <g>
       <use style="stroke:#000000;stroke-width:0.8;" x="76.5" xlink:href="#m280066f1f5" y="332.136"/>
      </g>
     </g>
     <g id="text_16">
      <!-- 0.3 -->
      <g transform="translate(53.596875 335.935219)scale(0.1 -0.1)">
       <use xlink:href="#DejaVuSans-48"/>
       <use x="63.623047" xlink:href="#DejaVuSans-46"/>
       <use x="95.410156" xlink:href="#DejaVuSans-51"/>
      </g>
     </g>
    </g>
    <g id="ytick_5">
     <g id="line2d_31">
      <path clip-path="url(#p54c37eebdc)" d="M 76.5 293.328 
L 550.8 293.328 
" style="fill:none;stroke:#b0b0b0;stroke-linecap:square;stroke-width:0.8;"/>
     </g>
     <g id="line2d_32">
      <g>
       <use style="stroke:#000000;stroke-width:0.8;" x="76.5" xlink:href="#m280066f1f5" y="293.328"/>
      </g>
     </g>
     <g id="text_17">
      <!-- 0.4 -->
      <g transform="translate(53.596875 297.127219)scale(0.1 -0.1)">
       <use xlink:href="#DejaVuSans-48"/>
       <use x="63.623047" xlink:href="#DejaVuSans-46"/>
       <use x="95.410156" xlink:href="#DejaVuSans-52"/>
      </g>
     </g>
    </g>
    <g id="ytick_6">
     <g id="line2d_33">
      <path clip-path="url(#p54c37eebdc)" d="M 76.5 254.52 
L 550.8 254.52 
" style="fill:none;stroke:#b0b0b0;stroke-linecap:square;stroke-width:0.8;"/>
     </g>
     <g id="line2d_34">
      <g>
       <use style="stroke:#000000;stroke-width:0.8;" x="76.5" xlink:href="#m280066f1f5" y="254.52"/>
      </g>
     </g>
     <g id="text_18">
      <!-- 0.5 -->
      <g transform="translate(53.596875 258.319219)scale(0.1 -0.1)">
       <use xlink:href="#DejaVuSans-48"/>
       <use x="63.623047" xlink:href="#DejaVuSans-46"/>
       <use x="95.410156" xlink:href="#DejaVuSans-53"/>
      </g>
     </g>
    </g>
    <g id="ytick_7">
     <g id="line2d_35">
      <path clip-path="url(#p54c37eebdc)" d="M 76.5 215.712 
L 550.8 215.712 
" style="fill:none;stroke:#b0b0b0;stroke-linecap:square;stroke-width:0.8;"/>
     </g>
     <g id="line2d_36">
      <g>
       <use style="stroke:#000000;stroke-width:0.8;" x="76.5" xlink:href="#m280066f1f5" y="215.712"/>
      </g>
     </g>
     <g id="text_19">
      <!-- 0.6 -->
      <g transform="translate(53.596875 219.511219)scale(0.1 -0.1)">
       <use xlink:href="#DejaVuSans-48"/>
       <use x="63.623047" xlink:href="#DejaVuSans-46"/>
       <use x="95.410156" xlink:href="#DejaVuSans-54"/>
      </g>
     </g>
    </g>
    <g id="ytick_8">
     <g id="line2d_37">
      <path clip-path="url(#p54c37eebdc)" d="M 76.5 176.904 
L 550.8 176.904 
" style="fill:none;stroke:#b0b0b0;stroke-linecap:square;stroke-width:0.8;"/>
     </g>
     <g id="line2d_38">
      <g>
       <use style="stroke:#000000;stroke-width:0.8;" x="76.5" xlink:href="#m280066f1f5" y="176.904"/>
      </g>
     </g>
     <g id="text_20">
      <!-- 0.7 -->
      <g transform="translate(53.596875 180.703219)scale(0.1 -0.1)">
       <use xlink:href="#DejaVuSans-48"/>
       <use x="63.623047" xlink:href="#DejaVuSans-46"/>
       <use x="95.410156" xlink:href="#DejaVuSans-55"/>
      </g>
     </g>
    </g>
    <g id="ytick_9">
     <g id="line2d_39">
      <path clip-path="url(#p54c37eebdc)" d="M 76.5 138.096 
L 550.8 138.096 
" style="fill:none;stroke:#b0b0b0;stroke-linecap:square;stroke-width:0.8;"/>
     </g>
     <g id="line2d_40">
      <g>
       <use style="stroke:#000000;stroke-width:0.8;" x="76.5" xlink:href="#m280066f1f5" y="138.096"/>
      </g>
     </g>
     <g id="text_21">
      <!-- 0.8 -->
      <g transform="translate(53.596875 141.895219)scale(0.1 -0.1)">
       <use xlink:href="#DejaVuSans-48"/>
       <use x="63.623047" xlink:href="#DejaVuSans-46"/>
       <use x="95.410156" xlink:href="#DejaVuSans-56"/>
      </g>
     </g>
    </g>
    <g id="ytick_10">
     <g id="line2d_41">
      <path clip-path="url(#p54c37eebdc)" d="M 76.5 99.288 
L 550.8 99.288 
" style="fill:none;stroke:#b0b0b0;stroke-linecap:square;stroke-width:0.8;"/>
     </g>
     <g id="line2d_42">
      <g>
       <use style="stroke:#000000;stroke-width:0.8;" x="76.5" xlink:href="#m280066f1f5" y="99.288"/>
      </g>
     </g>
     <g id="text_22">
      <!-- 0.9 -->
      <g transform="translate(53.596875 103.087219)scale(0.1 -0.1)">
       <use xlink:href="#DejaVuSans-48"/>
       <use x="63.623047" xlink:href="#DejaVuSans-46"/>
       <use x="95.410156" xlink:href="#DejaVuSans-57"/>
      </g>
     </g>
    </g>
    <g id="ytick_11">
     <g id="line2d_43">
      <path clip-path="url(#p54c37eebdc)" d="M 76.5 60.48 
L 550.8 60.48 
" style="fill:none;stroke:#b0b0b0;stroke-linecap:square;stroke-width:0.8;"/>
     </g>
     <g id="line2d_44">
      <g>
       <use style="stroke:#000000;stroke-width:0.8;" x="76.5" xlink:href="#m280066f1f5" y="60.48"/>
      </g>
     </g>
     <g id="text_23">
      <!-- 1.0 -->
      <g transform="translate(53.596875 64.279219)scale(0.1 -0.1)">
       <use xlink:href="#DejaVuSans-49"/>
       <use x="63.623047" xlink:href="#DejaVuSans-46"/>
       <use x="95.410156" xlink:href="#DejaVuSans-48"/>
      </g>
     </g>
    </g>
    <g id="text_24">
     <!-- #correct/971 -->
     <defs>
      <path d="M 51.125 44 
L 36.921875 44 
L 32.8125 27.6875 
L 47.125 27.6875 
z
M 43.796875 71.78125 
L 38.71875 51.515625 
L 52.984375 51.515625 
L 58.109375 71.78125 
L 65.921875 71.78125 
L 60.890625 51.515625 
L 76.125 51.515625 
L 76.125 44 
L 58.984375 44 
L 54.984375 27.6875 
L 70.515625 27.6875 
L 70.515625 20.21875 
L 53.078125 20.21875 
L 48 0 
L 40.1875 0 
L 45.21875 20.21875 
L 30.90625 20.21875 
L 25.875 0 
L 18.015625 0 
L 23.09375 20.21875 
L 7.71875 20.21875 
L 7.71875 27.6875 
L 24.90625 27.6875 
L 29 44 
L 13.28125 44 
L 13.28125 51.515625 
L 30.90625 51.515625 
L 35.890625 71.78125 
z
" id="DejaVuSans-35"/>
      <path d="M 18.3125 70.21875 
L 18.3125 54.6875 
L 36.8125 54.6875 
L 36.8125 47.703125 
L 18.3125 47.703125 
L 18.3125 18.015625 
Q 18.3125 11.328125 20.140625 9.421875 
Q 21.96875 7.515625 27.59375 7.515625 
L 36.8125 7.515625 
L 36.8125 0 
L 27.59375 0 
Q 17.1875 0 13.234375 3.875 
Q 9.28125 7.765625 9.28125 18.015625 
L 9.28125 47.703125 
L 2.6875 47.703125 
L 2.6875 54.6875 
L 9.28125 54.6875 
L 9.28125 70.21875 
z
" id="DejaVuSans-116"/>
      <path d="M 25.390625 72.90625 
L 33.6875 72.90625 
L 8.296875 -9.28125 
L 0 -9.28125 
z
" id="DejaVuSans-47"/>
     </defs>
     <g transform="translate(47.517187 287.443438)rotate(-90)scale(0.1 -0.1)">
      <use xlink:href="#DejaVuSans-35"/>
      <use x="83.789062" xlink:href="#DejaVuSans-99"/>
      <use x="138.769531" xlink:href="#DejaVuSans-111"/>
      <use x="199.951172" xlink:href="#DejaVuSans-114"/>
      <use x="239.314453" xlink:href="#DejaVuSans-114"/>
      <use x="278.177734" xlink:href="#DejaVuSans-101"/>
      <use x="339.701172" xlink:href="#DejaVuSans-99"/>
      <use x="394.681641" xlink:href="#DejaVuSans-116"/>
      <use x="433.890625" xlink:href="#DejaVuSans-47"/>
      <use x="467.582031" xlink:href="#DejaVuSans-57"/>
      <use x="531.205078" xlink:href="#DejaVuSans-55"/>
      <use x="594.828125" xlink:href="#DejaVuSans-49"/>
     </g>
    </g>
   </g>
   <g id="line2d_45">
    <path clip-path="url(#p54c37eebdc)" d="M 76.5 448.16033 
L 76.5 407.393944 
L 81.060577 407.393944 
L 80.772973 404.596251 
L 84.969643 404.596251 
L 84.028571 399.000865 
L 83.632331 396.203172 
L 87.118657 396.203172 
L 86.9625 395.403831 
L 90.348175 395.403831 
L 89.148 390.208115 
L 88.74 388.209763 
L 94.626115 388.209763 
L 93.24 383.014047 
L 92.48764 379.816684 
L 95.048045 379.816684 
L 93.613918 373.821627 
L 93.1005 371.423605 
L 95.377612 371.423605 
L 95.191626 370.624264 
L 97.425 370.624264 
L 97.322927 370.224593 
L 101.704348 370.224593 
L 101.583173 369.824923 
L 103.732536 369.824923 
L 103.602857 369.425252 
L 105.722275 369.425252 
L 105.447887 368.625911 
L 107.528972 368.625911 
L 107.241667 367.826571 
L 109.285714 367.826571 
L 108.986301 367.02723 
L 110.994545 367.02723 
L 109.069957 361.831514 
L 110.957692 361.831514 
L 110.811064 361.431843 
L 112.675424 361.431843 
L 112.0725 359.833162 
L 113.892946 359.833162 
L 113.585185 359.033821 
L 115.377049 359.033821 
L 114.75 357.435139 
L 119.961753 357.435139 
L 119.28 355.836457 
L 120.965625 355.836457 
L 120.792607 355.436787 
L 124.113127 355.436787 
L 122.86015 352.639094 
L 124.462921 352.639094 
L 124.283955 352.239423 
L 127.443333 352.239423 
L 127.255351 351.839753 
L 128.8125 351.839753 
L 127.683453 349.44173 
L 129.2 349.44173 
L 128.824911 348.642389 
L 134.747368 348.642389 
L 134.543706 348.242719 
L 137.434375 348.242719 
L 137.014138 347.443378 
L 141.250853 347.443378 
L 140.594595 346.244367 
L 141.975758 346.244367 
L 141.75604 345.844696 
L 144.483 345.844696 
L 144.257143 345.445026 
L 146.940594 345.445026 
L 146.708882 345.045355 
L 148.03377 345.045355 
L 147.337013 343.846344 
L 149.94 343.846344 
L 149.703859 343.446674 
L 152.266773 343.446674 
L 151.547468 342.247662 
L 152.80694 342.247662 
L 152.566981 341.847992 
L 161.144308 341.847992 
L 160.884663 341.448321 
L 164.440122 341.448321 
L 164.173636 341.048651 
L 171.077679 341.048651 
L 170.797033 340.64898 
L 171.921302 340.64898 
L 171.639823 340.24931 
L 174.965789 340.24931 
L 174.678717 339.84964 
L 175.772093 339.84964 
L 175.198266 339.050299 
L 176.280692 339.050299 
L 175.993966 338.650628 
L 177.067908 338.650628 
L 176.780571 338.250958 
L 178.905682 338.250958 
L 178.615581 337.851287 
L 184.835933 337.851287 
L 184.535 337.451617 
L 187.561983 337.451617 
L 187.256868 337.051946 
L 188.252877 337.051946 
L 187.643869 336.252606 
L 189.612195 336.252606 
L 188.7 335.053594 
L 191.5968 335.053594 
L 191.290691 334.653924 
L 192.244297 334.653924 
L 191.938095 334.254253 
L 193.826842 334.254253 
L 193.518898 333.854583 
L 196.310156 333.854583 
L 195.689378 333.055242 
L 198.428021 333.055242 
L 198.115385 332.655572 
L 199.017391 332.655572 
L 198.704847 332.255901 
L 204.881955 332.255901 
L 204.561 331.856231 
L 207.989109 331.856231 
L 207.341379 331.05689 
L 208.185258 331.05689 
L 207.8625 330.657219 
L 208.700978 330.657219 
L 208.378537 330.257549 
L 214.126619 330.257549 
L 213.797368 329.857878 
L 231.373469 329.857878 
L 231.023077 329.458208 
L 232.463514 329.458208 
L 232.113034 329.058538 
L 232.827578 329.058538 
L 231.783073 327.859526 
L 232.492 327.859526 
L 232.14612 327.459856 
L 234.251762 327.459856 
L 233.216193 326.260844 
L 237.331749 326.260844 
L 236.985129 325.861174 
L 239.667308 325.861174 
L 239.319403 325.461504 
L 243.253895 325.461504 
L 242.903571 325.061833 
L 254.12247 325.061833 
L 253.763636 324.662163 
L 257.905578 324.662163 
L 257.54493 324.262492 
L 259.283597 324.262492 
L 258.923077 323.862822 
L 260.64 323.862822 
L 260.279648 323.463151 
L 262.536117 323.463151 
L 261.816441 322.663811 
L 268.371834 322.663811 
L 268.009811 322.26414 
L 268.542373 322.26414 
L 268.181391 321.86447 
L 273.395756 321.86447 
L 273.033149 321.464799 
L 274.559341 321.464799 
L 274.197258 321.065129 
L 276.205263 321.065129 
L 275.843478 320.665458 
L 276.340687 320.665458 
L 275.620541 319.866117 
L 276.608618 319.866117 
L 276.25 319.466447 
L 277.718182 319.466447 
L 276.293628 317.867765 
L 277.261905 317.867765 
L 276.556239 317.068424 
L 278.470681 317.068424 
L 277.768174 316.269083 
L 280.121897 316.269083 
L 279.771429 315.869413 
L 282.997959 315.869413 
L 282.297966 315.070072 
L 282.752284 315.070072 
L 282.403885 314.670402 
L 284.651759 314.670402 
L 284.303679 314.270731 
L 286.950993 314.270731 
L 286.60314 313.871061 
L 287.039109 313.871061 
L 286.692257 313.47139 
L 287.991148 313.47139 
L 287.645008 313.07172 
L 288.075 313.07172 
L 287.729853 312.672049 
L 294.013376 312.672049 
L 293.667568 312.272379 
L 294.888133 312.272379 
L 294.543128 311.872709 
L 294.947319 311.872709 
L 294.603307 311.473038 
L 300.129892 311.473038 
L 299.785846 311.073368 
L 300.555828 311.073368 
L 300.212711 310.673697 
L 300.595872 310.673697 
L 300.25374 310.274027 
L 300.635671 310.274027 
L 300.294521 309.874356 
L 300.675228 309.874356 
L 299.995909 309.075015 
L 304.107452 309.075015 
L 303.76875 308.675345 
L 308.456934 308.675345 
L 308.118805 308.275675 
L 309.175472 308.275675 
L 308.838261 307.876004 
L 310.924138 307.876004 
L 310.587805 307.476334 
L 310.931948 307.476334 
L 310.596567 307.076663 
L 314.982303 307.076663 
L 314.647826 306.676993 
L 314.978571 306.676993 
L 314.645035 306.277322 
L 319.813953 306.277322 
L 319.481557 305.877652 
L 321.982297 305.877652 
L 321.651012 305.477981 
L 327.966142 305.477981 
L 327.636566 305.078311 
L 334.716624 305.078311 
L 334.062911 304.27897 
L 334.88285 304.27897 
L 334.557431 303.8793 
L 338.566873 303.8793 
L 338.243333 303.479629 
L 338.766872 303.479629 
L 338.44428 303.079959 
L 338.965399 303.079959 
L 338.64375 302.680288 
L 339.420879 302.680288 
L 339.100244 302.280618 
L 340.383273 302.280618 
L 340.063801 301.880947 
L 344.06829 301.880947 
L 343.75089 301.481277 
L 347.843721 301.481277 
L 347.528571 301.081607 
L 349.399885 301.081607 
L 349.086207 300.681936 
L 351.378409 300.681936 
L 351.066402 300.282266 
L 357.431538 300.282266 
L 357.123161 299.882595 
L 357.335526 299.882595 
L 357.02793 299.482925 
L 358.293036 299.482925 
L 357.986739 299.083254 
L 359.028973 299.083254 
L 358.723866 298.683584 
L 362.784672 298.683584 
L 362.482365 298.283913 
L 363.864151 298.283913 
L 363.563246 297.884243 
L 367.404 297.884243 
L 367.105943 297.484573 
L 367.855714 297.484573 
L 367.558716 297.084902 
L 369.224545 297.084902 
L 368.929162 296.685232 
L 370.925749 296.685232 
L 370.632203 296.285561 
L 371.347865 296.285561 
L 371.055357 295.885891 
L 371.942547 295.885891 
L 371.651183 295.48622 
L 372.179646 295.48622 
L 371.889194 295.08655 
L 372.064769 295.08655 
L 371.775 294.68688 
L 375.217788 294.68688 
L 374.930836 294.287209 
L 376.272069 294.287209 
L 375.417205 293.088198 
L 375.75 293.088198 
L 375.466351 292.688527 
L 377.762582 292.688527 
L 377.481028 292.288857 
L 378.287163 292.288857 
L 378.006691 291.889186 
L 380.226055 291.889186 
L 379.947663 291.489516 
L 381.191356 291.489516 
L 380.914364 291.089846 
L 381.222686 291.089846 
L 380.946419 290.690175 
L 381.100272 290.690175 
L 380.824615 290.290505 
L 381.284838 290.290505 
L 381.010009 289.890834 
L 381.772083 289.890834 
L 381.498296 289.491164 
L 386.364983 289.491164 
L 386.0953 289.091493 
L 387.375389 289.091493 
L 387.107161 288.691823 
L 387.950215 288.691823 
L 387.683105 288.292152 
L 388.932511 288.292152 
L 388.666837 287.892482 
L 390.574286 287.892482 
L 390.310579 287.492812 
L 390.445218 287.492812 
L 390.182062 287.093141 
L 390.450879 287.093141 
L 389.926316 286.2938 
L 390.861628 286.2938 
L 390.600747 285.89413 
L 391.52599 285.89413 
L 391.266282 285.494459 
L 391.397694 285.494459 
L 395.116653 285.494459 
L 394.860531 285.094789 
L 394.985783 285.094789 
L 395.360337 285.094789 
L 395.105044 284.695118 
L 395.2296 284.695118 
L 397.558865 284.695118 
L 397.306063 284.295448 
L 397.426829 284.295448 
L 399.802866 284.295448 
L 399.552632 283.895778 
L 399.669606 283.895778 
L 401.516883 283.895778 
L 401.268779 283.496107 
L 401.382838 283.496107 
L 401.837338 283.496107 
L 401.590122 283.096437 
L 401.703417 283.096437 
L 403.160752 283.096437 
L 402.915327 282.696766 
L 403.026351 282.696766 
L 403.137209 282.696766 
L 402.892354 282.297096 
L 403.003146 282.297096 
L 403.992857 282.297096 
L 403.749368 281.897425 
L 403.858618 281.897425 
L 406.748216 281.897425 
L 406.50786 281.497755 
L 406.6128 281.497755 
L 409.69153 281.497755 
L 409.454552 281.098084 
L 409.555011 281.098084 
L 410.452754 281.098084 
L 410.217078 280.698414 
L 410.31622 280.698414 
L 411.883682 280.698414 
L 411.649965 280.298744 
L 411.746866 280.298744 
L 412.612941 280.298744 
L 412.380498 279.899073 
L 412.476158 279.899073 
L 415.651722 279.899073 
L 415.422874 279.499403 
L 415.51416 279.499403 
L 415.787281 279.499403 
L 415.559112 279.099732 
L 415.65 279.099732 
L 416.282809 279.099732 
L 416.055682 278.700062 
L 416.145691 278.700062 
L 416.415 278.700062 
L 416.188541 278.300391 
L 416.278162 278.300391 
L 416.813395 278.300391 
L 416.587873 277.900721 
L 416.676755 277.900721 
L 417.996 277.900721 
L 417.772215 277.50105 
L 417.859332 277.50105 
L 419.237848 277.50105 
L 419.015868 277.10138 
L 419.101165 277.10138 
L 419.695168 277.10138 
L 419.474179 276.70171 
L 419.558687 276.70171 
L 421.226302 276.70171 
L 421.007429 276.302039 
L 421.089784 276.302039 
L 421.744886 276.302039 
L 421.527066 275.902369 
L 421.608575 275.902369 
L 422.418045 275.902369 
L 422.065666 275.103028 
L 424.977139 275.103028 
L 424.764264 274.703357 
L 424.841209 274.703357 
L 425.681443 274.703357 
L 425.469818 274.303687 
L 425.54573 274.303687 
L 426.224819 274.303687 
L 426.014269 273.904016 
L 426.08935 273.904016 
L 426.164342 273.904016 
L 425.954207 273.504346 
L 426.029189 273.504346 
L 428.020213 273.504346 
L 427.812581 273.104676 
L 427.885183 273.104676 
L 429.248511 273.104676 
L 429.042707 272.705005 
L 429.113703 272.705005 
L 429.889224 272.705005 
L 429.684598 272.305335 
L 429.754688 272.305335 
L 433.224789 272.305335 
L 433.024382 271.905664 
L 433.090511 271.905664 
L 433.48573 271.905664 
L 433.286074 271.505994 
L 433.351761 271.505994 
L 435.034215 271.505994 
L 434.836784 271.106323 
L 434.900605 271.106323 
L 435.471851 271.106323 
L 435.275369 270.706653 
L 435.338567 270.706653 
L 435.527744 270.706653 
L 435.331769 270.306982 
L 435.394763 270.306982 
L 435.708705 270.306982 
L 435.318261 269.507642 
L 435.380989 269.507642 
L 436.252075 269.507642 
L 436.058244 269.107971 
L 436.120032 269.107971 
L 439.882969 269.107971 
L 439.693805 268.708301 
L 439.80936 268.708301 
L 440.497674 268.708301 
L 440.309659 268.30863 
L 440.423684 268.30863 
L 440.877441 268.30863 
L 440.690293 267.90896 
L 440.803284 267.90896 
L 442.086207 267.90896 
L 441.900912 267.509289 
L 442.01119 267.509289 
L 442.504688 267.509289 
L 442.136103 266.709949 
L 442.245423 266.709949 
L 443.273094 266.709949 
L 443.090438 266.310278 
L 443.197612 266.310278 
L 444.728004 266.310278 
L 444.5475 265.910608 
L 444.651567 265.910608 
L 446.790835 265.910608 
L 446.613237 265.510937 
L 446.713081 265.510937 
L 447.896447 265.510937 
L 447.720597 265.111267 
L 447.818117 265.111267 
L 450.01125 265.111267 
L 449.838408 264.711596 
L 449.931761 264.711596 
L 452.210755 264.711596 
L 452.041057 264.311926 
L 452.13019 264.311926 
L 457.158758 264.311926 
L 456.995805 263.912255 
L 457.076048 263.912255 
L 459.762775 263.912255 
L 459.603613 263.512585 
L 459.717088 263.512585 
L 464.512809 263.512585 
L 464.360408 263.112915 
L 464.462142 263.112915 
L 468.096054 263.112915 
L 467.948948 262.713244 
L 468.042214 262.713244 
L 468.780848 262.713244 
L 468.635019 262.313574 
L 468.72655 262.313574 
L 470.602685 262.313574 
L 470.459739 261.913903 
L 470.576132 261.913903 
L 471.296016 261.913903 
L 471.15436 261.514233 
L 471.268506 261.514233 
L 479.288273 261.514233 
L 479.158551 261.114562 
L 479.27373 261.114562 
L 482.291623 261.114562 
L 482.291623 261.114562 
" style="fill:none;stroke:#1f77b4;stroke-linecap:square;stroke-width:2;"/>
   </g>
   <g id="line2d_46">
    <path clip-path="url(#p54c37eebdc)" d="M 76.5 448.16033 
L 76.5 433.372523 
L 88.661538 433.372523 
L 87.279545 431.374171 
L 86.179592 429.375819 
L 85.123636 426.977796 
L 84.538983 425.379114 
L 92.31 425.379114 
L 91.8 424.579773 
L 99.085714 424.579773 
L 97.425 422.581421 
L 96.2625 420.982739 
L 102.489041 420.982739 
L 102.137838 420.583069 
L 108.12 420.583069 
L 105.777778 418.185046 
L 104.075581 416.186694 
L 109.210345 416.186694 
L 107.1 413.788671 
L 106.774468 413.389001 
L 111.448421 413.389001 
L 110.727835 412.58966 
L 115.218367 412.58966 
L 113.338835 410.591308 
L 117.545192 410.591308 
L 115.306364 408.193285 
L 123.083036 408.193285 
L 122.670796 407.793615 
L 126.426316 407.793615 
L 125.565517 406.994274 
L 132.772881 406.994274 
L 132.3 406.594604 
L 135.7875 406.594604 
L 132.964286 404.196581 
L 148.912214 404.196581 
L 148.363636 403.79691 
L 151.389474 403.79691 
L 148.676087 401.798558 
L 151.569065 401.798558 
L 149.983099 400.599547 
L 158.275862 400.599547 
L 157.715753 400.199876 
L 160.389796 400.199876 
L 158.712 399.000865 
L 161.308609 399.000865 
L 160.2 398.201524 
L 162.736364 398.201524 
L 162.18 397.801854 
L 164.671154 397.801854 
L 164.109554 397.402183 
L 166.556962 397.402183 
L 165.990566 397.002513 
L 168.395625 397.002513 
L 167.824845 396.602842 
L 174.830488 396.602842 
L 174.234545 396.203172 
L 176.503012 396.203172 
L 175.904192 395.803502 
L 178.135714 395.803502 
L 176.94 395.004161 
L 179.126316 395.004161 
L 176.780571 393.405479 
L 178.905682 393.405479 
L 178.327119 393.005808 
L 182.488827 393.005808 
L 181.31768 392.206468 
L 183.347802 392.206468 
L 182.763934 391.806797 
L 186.742703 391.806797 
L 184.409524 390.208115 
L 190.134375 390.208115 
L 189.545596 389.808445 
L 191.407732 389.808445 
L 190.235204 389.009104 
L 200.94505 389.009104 
L 200.33202 388.609434 
L 202.05 388.609434 
L 200.831068 387.810093 
L 202.521739 387.810093 
L 200.132701 386.211411 
L 201.786792 386.211411 
L 200.615888 385.41207 
L 205.457143 385.41207 
L 204.279452 384.612729 
L 208.962162 384.612729 
L 208.368161 384.213059 
L 212.913717 384.213059 
L 211.717105 383.413718 
L 217.563362 383.413718 
L 216.357692 382.614377 
L 217.780851 382.614377 
L 216 381.415366 
L 217.400837 381.415366 
L 215.654132 380.216354 
L 217.033333 380.216354 
L 216.457377 379.816684 
L 229.620472 379.816684 
L 229.02 379.417013 
L 230.276953 379.417013 
L 228.495753 378.218002 
L 229.735385 378.218002 
L 229.148276 377.818332 
L 238.714126 377.818332 
L 238.113333 377.418661 
L 252.477032 377.418661 
L 250.631119 376.21965 
L 251.677003 376.21965 
L 251.06875 375.819979 
L 261.126846 375.819979 
L 259.896 375.020639 
L 264.664918 375.020639 
L 264.05 374.620968 
L 264.984039 374.620968 
L 264.372078 374.221298 
L 265.299029 374.221298 
L 264.69 373.821627 
L 267.432268 373.821627 
L 266.824204 373.421957 
L 267.725714 373.421957 
L 266.519243 372.622616 
L 280.178378 372.622616 
L 279.568563 372.222945 
L 280.378209 372.222945 
L 279.771429 371.823275 
L 286.074419 371.823275 
L 285.466957 371.423605 
L 289.257429 371.423605 
L 288.651282 371.023934 
L 290.872881 371.023934 
L 289.668539 370.224593 
L 292.57 370.224593 
L 291.376243 369.425252 
L 292.801648 369.425252 
L 292.209041 369.025582 
L 292.915574 369.025582 
L 292.325886 368.625911 
L 298.512766 368.625911 
L 297.923873 368.226241 
L 298.592857 368.226241 
L 298.00686 367.826571 
L 299.992147 367.826571 
L 299.408616 367.4269 
L 300.063281 367.4269 
L 299.482597 367.02723 
L 301.425773 367.02723 
L 300.847558 366.627559 
L 302.126087 366.627559 
L 301.55051 366.227889 
L 303.443544 366.227889 
L 302.870455 365.828218 
L 305.34975 365.828218 
L 304.779052 365.428548 
L 306 365.428548 
L 305.431931 365.028877 
L 306.037778 365.028877 
L 305.472414 364.629207 
L 306.075184 364.629207 
L 304.952567 363.829866 
L 305.552195 363.829866 
L 304.994891 363.430196 
L 305.591505 363.430196 
L 305.036804 363.030525 
L 315.845833 363.030525 
L 315.293072 362.630855 
L 316.375862 362.630855 
L 315.825688 362.231184 
L 317.431435 362.231184 
L 316.883864 361.831514 
L 326.566667 361.831514 
L 326.023043 361.431843 
L 327.960776 361.431843 
L 327.42 361.032173 
L 327.899356 361.032173 
L 327.361028 360.632503 
L 329.727966 360.632503 
L 329.1926 360.232832 
L 341.994622 360.232832 
L 341.466799 359.833162 
L 344.34 359.833162 
L 343.815851 359.433491 
L 345.02393 359.433491 
L 344.502524 359.033821 
L 345.30058 359.033821 
L 344.78166 358.63415 
L 350.203195 358.63415 
L 349.689681 358.23448 
L 351.187709 358.23448 
L 350.677138 357.834809 
L 352.51989 357.834809 
L 352.0125 357.435139 
L 352.377248 357.435139 
L 351.871978 357.035469 
L 352.597993 357.035469 
L 352.095082 356.635798 
L 354.243243 356.635798 
L 353.743705 356.236128 
L 355.5 356.236128 
L 355.003559 355.836457 
L 356.730159 355.836457 
L 356.236796 355.436787 
L 357.934555 355.436787 
L 357.444251 355.037116 
L 357.780522 355.037116 
L 357.292188 354.637446 
L 360.269231 354.637446 
L 359.784983 354.237775 
L 378.592615 354.237775 
L 378.128571 353.838105 
L 379.705479 353.838105 
L 379.244681 353.438435 
L 380.538462 353.438435 
L 380.080572 353.038764 
L 380.337293 353.038764 
L 379.881081 352.639094 
L 386.54026 352.639094 
L 385.648058 351.839753 
L 390.042857 351.839753 
L 389.604336 351.440082 
L 389.829469 351.440082 
L 389.392469 351.040412 
L 389.61727 351.040412 
L 389.18178 350.640742 
L 389.40625 350.640742 
L 388.539474 349.841401 
L 392.057317 349.841401 
L 391.630311 349.44173 
L 392.487214 349.44173 
L 392.0625 349.04206 
L 393.122163 349.04206 
L 392.7 348.642389 
L 394.574704 348.642389 
L 393.738765 347.843048 
L 395.574545 347.843048 
L 395.1607 347.443378 
L 396.561054 347.443378 
L 396.150193 347.043708 
L 400.20975 347.043708 
L 399.805618 346.644037 
L 403.483922 346.644037 
L 403.086131 346.244367 
L 405.036735 346.244367 
L 404.642806 345.844696 
L 412.282841 345.844696 
L 411.901703 345.445026 
L 416.475741 345.445026 
L 416.102961 345.045355 
L 416.250493 345.045355 
L 417.274239 345.045355 
L 416.904235 344.645685 
L 417.049458 344.645685 
L 419.330917 344.645685 
L 418.965815 344.246014 
L 419.106064 344.246014 
L 420.629338 344.246014 
L 420.267857 343.846344 
L 420.404827 343.846344 
L 422.425413 343.846344 
L 421.712165 343.047003 
L 421.845108 343.047003 
L 425.834731 343.047003 
L 425.486441 342.647333 
L 425.611255 342.647333 
L 429.243424 342.647333 
L 428.902609 342.247662 
L 429.02027 342.247662 
L 433.109888 342.247662 
L 432.44581 341.448321 
L 432.555907 341.448321 
L 433.320887 341.448321 
L 432.991413 341.048651 
L 433.100092 341.048651 
L 438.685149 341.048651 
L 438.367164 340.64898 
L 438.465789 340.64898 
L 440.307334 340.64898 
L 439.776248 339.84964 
L 441.004596 339.84964 
L 440.694643 339.449969 
L 440.78819 339.449969 
L 441.253553 339.449969 
L 440.945224 339.050299 
L 441.038007 339.050299 
L 443.573762 339.050299 
L 443.271146 338.650628 
L 443.35972 338.650628 
L 443.80041 338.650628 
L 443.499344 338.250958 
L 443.587224 338.250958 
L 444.28511 338.250958 
L 443.986098 337.851287 
L 444.072868 337.851287 
L 444.159497 337.851287 
L 443.861314 337.451617 
L 443.947974 337.451617 
L 444.034494 337.451617 
L 443.737136 337.051946 
L 443.823686 337.051946 
L 445.525776 337.051946 
L 445.232432 336.652276 
L 445.316283 336.652276 
L 446.229921 336.652276 
L 445.939024 336.252606 
L 446.021462 336.252606 
L 446.349922 336.252606 
L 446.060298 335.852935 
L 446.142254 335.852935 
L 451.281696 335.852935 
L 451.003048 335.453265 
L 451.077192 335.453265 
L 454.717752 335.453265 
L 454.44721 335.053594 
L 454.516083 335.053594 
L 457.710021 335.053594 
L 457.446754 334.653924 
L 457.575517 334.653924 
L 460.982392 334.653924 
L 460.727092 334.254253 
L 460.846552 334.254253 
L 461.262178 334.254253 
L 461.008377 333.854583 
L 461.12668 333.854583 
L 463.708445 333.854583 
L 463.26954 333.055242 
L 463.325399 333.055242 
L 463.824937 333.055242 
L 463.579328 332.655572 
L 463.689804 332.655572 
L 464.671634 332.655572 
L 464.428723 332.255901 
L 464.536688 332.255901 
L 467.654639 332.255901 
L 467.419145 331.856231 
L 467.519423 331.856231 
L 467.669388 331.856231 
L 467.434733 331.45656 
L 467.534632 331.45656 
L 468.030554 331.45656 
L 467.7975 331.05689 
L 467.896195 331.05689 
L 469.253684 331.05689 
L 469.024138 330.657219 
L 469.119615 330.657219 
L 471.436132 330.657219 
L 471.212245 330.257549 
L 471.302378 330.257549 
L 472.586741 330.257549 
L 472.366203 329.857878 
L 472.453448 329.857878 
L 474.158487 329.857878 
L 473.809935 329.058538 
L 473.851709 329.058538 
L 475.40622 329.058538 
L 475.194261 328.658867 
L 475.314589 328.658867 
L 475.752532 328.658867 
L 475.542066 328.259197 
L 475.660895 328.259197 
L 475.975943 328.259197 
L 475.766684 327.859526 
L 475.884414 327.859526 
L 477.003709 327.859526 
L 476.797477 327.459856 
L 476.91162 327.459856 
L 477.176588 327.459856 
L 476.971429 327.060185 
L 477.084663 327.060185 
L 477.310092 327.060185 
L 477.105909 326.660515 
L 477.218362 326.660515 
L 478.360591 326.660515 
L 478.159459 326.260844 
L 478.268366 326.260844 
L 478.62904 326.260844 
L 478.429175 325.861174 
L 478.536923 325.861174 
L 481.527831 325.861174 
L 481.335235 325.461504 
L 481.434188 325.461504 
L 481.663985 325.461504 
L 481.472327 325.061833 
L 481.570572 325.061833 
L 482.664854 325.061833 
L 482.476115 324.662163 
L 482.57123 324.662163 
L 482.760666 324.662163 
L 482.572757 324.262492 
L 482.667298 324.262492 
L 484.295356 324.262492 
L 484.111582 323.862822 
L 484.231579 323.862822 
L 487.667918 323.862822 
L 487.425447 323.063481 
L 489.511852 323.063481 
L 489.197534 322.26414 
L 489.273399 322.26414 
L 490.872451 322.26414 
L 490.706835 321.86447 
L 490.826685 321.86447 
L 491.418839 321.86447 
L 491.185461 321.065129 
L 491.208941 321.065129 
L 492.494913 321.065129 
L 492.334669 320.665458 
L 492.447059 320.665458 
L 492.692802 320.665458 
L 492.533525 320.265788 
L 492.644805 320.265788 
L 493.94776 320.265788 
L 493.791937 319.866117 
L 493.898137 319.866117 
L 494.815909 319.866117 
L 494.662624 319.466447 
L 494.765289 319.466447 
L 494.928775 319.466447 
L 494.705568 318.667106 
L 494.725973 318.667106 
L 496.95875 318.667106 
L 496.811941 318.267436 
L 496.924808 318.267436 
L 497.149133 318.267436 
L 497.003226 317.867765 
L 497.114953 317.867765 
L 498.438049 317.867765 
L 498.295646 317.468095 
L 498.401751 317.468095 
L 499.388764 317.468095 
L 499.249058 317.068424 
L 499.351039 317.068424 
L 499.871573 317.068424 
L 499.733442 316.668754 
L 499.849805 316.668754 
L 500.228433 316.668754 
L 500.09157 316.269083 
L 500.205962 316.269083 
L 501.212729 316.269083 
L 501.078623 315.869413 
L 501.18828 315.869413 
L 501.698784 315.869413 
L 501.566241 315.469743 
L 501.673437 315.469743 
L 502.157592 315.469743 
L 502.157592 315.469743 
" style="fill:none;stroke:#ff7f0e;stroke-linecap:square;stroke-width:2;"/>
   </g>
   <g id="line2d_47">
    <path clip-path="url(#p54c37eebdc)" d="M 76.5 448.16033 
L 76.5 409.791967 
L 86.081818 409.791967 
L 85.892079 408.992626 
L 90.45 408.992626 
L 90.314563 408.592956 
L 94.742308 408.592956 
L 93.289381 404.995922 
L 91.92439 400.999217 
L 91.8 400.599547 
L 95.472 400.599547 
L 94.330827 397.402183 
L 97.737313 397.402183 
L 96.2625 393.405479 
L 102.489041 393.405479 
L 101.965772 392.206468 
L 104.958 392.206468 
L 104.218831 390.607786 
L 107.1 390.607786 
L 106.330189 389.009104 
L 109.108125 389.009104 
L 108.705556 388.209763 
L 111.417791 388.209763 
L 111.204878 387.810093 
L 121.671429 387.810093 
L 119.618182 384.612729 
L 122.054237 384.612729 
L 121.545251 383.813388 
L 123.93 383.813388 
L 123.667956 383.413718 
L 128.336066 383.413718 
L 128.054348 383.014047 
L 130.339459 383.014047 
L 129.2 381.415366 
L 131.418947 381.415366 
L 131.131414 381.015695 
L 133.317188 381.015695 
L 132.731443 380.216354 
L 134.875385 380.216354 
L 133.990909 379.017343 
L 142.244554 379.017343 
L 140.348077 376.61932 
L 142.311962 376.61932 
L 141.998571 376.21965 
L 143.936019 376.21965 
L 142.681395 374.620968 
L 144.570833 374.620968 
L 144.257143 374.221298 
L 147.969863 374.221298 
L 147.645 373.821627 
L 149.469231 373.821627 
L 148.814798 373.022286 
L 152.388 373.022286 
L 151.389474 371.823275 
L 156.576623 371.823275 
L 156.231466 371.423605 
L 159.603846 371.423605 
L 158.551899 370.224593 
L 163.455 370.224593 
L 163.094191 369.824923 
L 167.861066 369.824923 
L 167.118293 369.025582 
L 168.67166 369.025582 
L 168.3 368.625911 
L 169.836145 368.625911 
L 169.4628 368.226241 
L 170.982072 368.226241 
L 170.607143 367.826571 
L 173.600787 367.826571 
L 173.22 367.4269 
L 180.481154 367.4269 
L 178.905682 365.828218 
L 183.08427 365.828218 
L 182.686567 365.428548 
L 189.428571 365.428548 
L 189.016423 365.028877 
L 190.332 365.028877 
L 189.103597 363.829866 
L 194.234043 363.829866 
L 193.818021 363.430196 
L 196.323158 363.430196 
L 195.904196 363.030525 
L 199.588235 363.030525 
L 199.163793 362.630855 
L 202.764164 362.630855 
L 202.334694 362.231184 
L 205.854545 362.231184 
L 204.135548 360.632503 
L 206.423762 360.632503 
L 205.571803 359.833162 
L 206.7 359.833162 
L 206.275896 359.433491 
L 211.797115 359.433491 
L 211.364856 359.033821 
L 213.52 359.033821 
L 213.086392 358.63415 
L 216.262382 358.63415 
L 215.825625 358.23448 
L 216.869159 358.23448 
L 216.43323 357.834809 
L 217.468421 357.834809 
L 217.033333 357.435139 
L 221.103659 357.435139 
L 219.361446 355.836457 
L 224.278932 355.836457 
L 223.841716 355.436787 
L 225.765 355.436787 
L 224.892105 354.637446 
L 227.726087 354.637446 
L 227.289017 354.237775 
L 228.221326 354.237775 
L 227.785345 353.838105 
L 229.631143 353.838105 
L 229.194872 353.438435 
L 230.108523 353.438435 
L 229.673371 353.038764 
L 230.580508 353.038764 
L 230.146479 352.639094 
L 231.047191 352.639094 
L 230.614286 352.239423 
L 233.2825 352.239423 
L 232.848199 351.839753 
L 238.046322 351.839753 
L 237.607337 351.440082 
L 244.271011 351.440082 
L 243.825995 351.040412 
L 245.44591 351.040412 
L 245.001316 350.640742 
L 245.803937 350.640742 
L 245.360733 350.241071 
L 248.525907 350.241071 
L 247.639175 349.44173 
L 250.732653 349.44173 
L 250.289313 349.04206 
L 257.746154 349.04206 
L 257.297525 348.642389 
L 258.022222 348.642389 
L 257.575123 348.242719 
L 269.359574 348.242719 
L 268.452 347.443378 
L 271.735116 347.443378 
L 271.282135 347.043708 
L 271.929167 347.043708 
L 271.477829 346.644037 
L 276.544898 346.644037 
L 275.641761 345.844696 
L 276.261486 345.844696 
L 275.812584 345.445026 
L 288.204721 345.445026 
L 287.3 344.645685 
L 288.978344 344.645685 
L 288.528178 344.246014 
L 290.732143 344.246014 
L 290.283019 343.846344 
L 291.370772 343.846344 
L 290.923125 343.446674 
L 297.261585 343.446674 
L 296.813793 343.047003 
L 298.35 343.047003 
L 297.903622 342.647333 
L 300.920278 342.647333 
L 299.589723 341.448321 
L 301.070334 341.448321 
L 300.63 341.048651 
L 302.576848 341.048651 
L 302.137864 340.64898 
L 304.528846 340.64898 
L 304.091171 340.24931 
L 304.563793 340.24931 
L 303.693321 339.449969 
L 309.675419 339.449969 
L 309.242007 339.050299 
L 310.581516 339.050299 
L 310.149631 338.650628 
L 311.474312 338.650628 
L 310.615174 337.851287 
L 311.925273 337.851287 
L 311.498004 337.451617 
L 312.793863 337.451617 
L 312.368108 337.051946 
L 313.224237 337.051946 
L 312.8 336.652276 
L 313.22576 336.652276 
L 312.803036 336.252606 
L 313.227273 336.252606 
L 312.80605 335.852935 
L 313.65 335.852935 
L 313.230265 335.453265 
L 313.65 335.453265 
L 313.231746 335.053594 
L 314.066784 335.053594 
L 313.65 334.653924 
L 315.302613 334.653924 
L 314.887304 334.254253 
L 316.921034 334.254253 
L 316.507229 333.854583 
L 323.9265 333.854583 
L 323.514809 333.454912 
L 330.834783 333.454912 
L 330.425884 333.055242 
L 334.25545 333.055242 
L 333.443622 332.255901 
L 335.141719 332.255901 
L 334.738222 331.856231 
L 335.074766 331.856231 
L 334.672628 331.45656 
L 337.000154 331.45656 
L 336.6 331.05689 
L 338.878723 331.05689 
L 338.480577 330.657219 
L 339.442749 330.657219 
L 339.046154 330.257549 
L 340.631138 330.257549 
L 340.236323 329.857878 
L 345.454373 329.857878 
L 345.062882 329.458208 
L 351.165254 329.458208 
L 350.777856 329.058538 
L 351.340506 329.058538 
L 350.954494 328.658867 
L 353.175 328.658867 
L 352.791262 328.259197 
L 353.883724 328.259197 
L 353.501653 327.859526 
L 354.58274 327.859526 
L 353.822951 327.060185 
L 354.893478 327.060185 
L 354.515739 326.660515 
L 356.3625 326.660515 
L 355.986846 326.260844 
L 356.508434 326.260844 
L 356.134091 325.861174 
L 360.46 325.861174 
L 360.089295 325.461504 
L 360.33794 325.461504 
L 359.968359 325.061833 
L 362.421208 325.061833 
L 362.054172 324.662163 
L 363.257908 324.662163 
L 362.892611 324.262492 
L 363.845247 324.262492 
L 363.11871 323.463151 
L 366.611538 323.463151 
L 366.252045 323.063481 
L 367.162269 323.063481 
L 366.80431 322.663811 
L 368.821315 322.663811 
L 368.465693 322.26414 
L 369.348668 322.26414 
L 368.994559 321.86447 
L 369.651687 321.86447 
L 369.298917 321.464799 
L 370.38445 321.464799 
L 370.033333 321.065129 
L 370.249045 321.065129 
L 369.898927 320.665458 
L 370.114286 320.665458 
L 369.765161 320.265788 
L 370.408649 320.265788 
L 369.71383 319.466447 
L 370.35371 319.466447 
L 370.008 319.066777 
L 371.275234 319.066777 
L 370.931272 318.667106 
L 371.350058 318.667106 
L 371.007209 318.267436 
L 373.887185 318.267436 
L 373.547314 317.867765 
L 374.353925 317.867765 
L 374.015455 317.468095 
L 374.416327 317.468095 
L 373.742308 316.668754 
L 374.141986 316.668754 
L 373.806426 316.269083 
L 378.658224 316.269083 
L 378.327273 315.869413 
L 379.453319 315.869413 
L 379.124022 315.469743 
L 380.787191 315.469743 
L 380.133512 314.670402 
L 381.58754 314.670402 
L 381.262979 314.270731 
L 381.443146 314.270731 
L 381.119427 313.871061 
L 382.548316 313.871061 
L 382.226498 313.47139 
L 382.580273 313.47139 
L 382.259434 313.07172 
L 386.56333 313.07172 
L 386.246939 312.672049 
L 386.414679 312.672049 
L 386.099084 312.272379 
L 388.739579 312.272379 
L 388.427027 311.872709 
L 388.5894 311.872709 
L 388.277622 311.473038 
L 388.763247 311.473038 
L 388.452537 311.073368 
L 392.239067 311.073368 
L 391.932524 310.673697 
L 392.086615 310.673697 
L 391.780814 310.274027 
L 392.852166 310.274027 
L 392.547981 309.874356 
L 392.7 309.874356 
L 392.396545 309.474686 
L 393.603429 309.474686 
L 393.301713 309.075015 
L 395.07968 309.075015 
L 394.481408 308.275675 
L 397.079501 308.275675 
L 396.783764 307.876004 
L 399.024 307.876004 
L 398.731063 307.476334 
L 400.775 307.476334 
L 400.484691 307.076663 
L 400.619141 307.076663 
L 401.287801 307.076663 
L 400.998843 306.676993 
L 401.132 306.676993 
L 402.711609 306.676993 
L 402.424956 306.277322 
L 402.555224 306.277322 
L 411.599011 306.277322 
L 411.322982 305.877652 
L 411.437778 305.877652 
L 413.025305 305.877652 
L 412.751707 305.477981 
L 412.863851 305.477981 
L 415.931533 305.477981 
L 415.662143 305.078311 
L 415.76931 305.078311 
L 416.089794 305.078311 
L 415.821344 304.678641 
L 415.927962 304.678641 
L 416.88 304.678641 
L 416.613245 304.27897 
L 416.718324 304.27897 
L 416.927991 304.27897 
L 416.662031 303.8793 
L 416.766745 303.8793 
L 417.183969 303.8793 
L 416.919051 303.479629 
L 417.023077 303.479629 
L 422.314254 303.479629 
L 422.056376 303.079959 
L 422.15231 303.079959 
L 423.668041 303.079959 
L 423.251286 302.280618 
L 423.718155 302.280618 
L 423.464155 301.880947 
L 423.557237 301.880947 
L 427.172088 301.880947 
L 426.923208 301.481277 
L 427.011064 301.481277 
L 427.273885 301.481277 
L 427.025813 301.081607 
L 427.113286 301.081607 
L 429.260625 301.081607 
L 429.015822 300.681936 
L 429.100277 300.681936 
L 436.473616 300.681936 
L 436.239258 300.282266 
L 436.313793 300.282266 
L 438.073991 300.282266 
L 437.611324 299.482925 
L 437.683696 299.482925 
L 438.259351 299.482925 
L 438.029371 299.083254 
L 438.101017 299.083254 
L 439.305217 299.083254 
L 439.077324 298.683584 
L 439.147458 298.683584 
L 440.257738 298.683584 
L 440.031801 298.283913 
L 440.100559 298.283913 
L 445.212789 298.283913 
L 444.994615 297.884243 
L 445.119681 297.884243 
L 450.625714 297.884243 
L 450.416237 297.484573 
L 450.528523 297.484573 
L 451.801988 297.484573 
L 451.594868 297.084902 
L 451.704245 297.084902 
L 452.463184 297.084902 
L 452.257627 296.685232 
L 452.365265 296.685232 
L 461.309434 296.685232 
L 461.118462 296.285561 
L 461.207387 296.285561 
L 462.52042 296.285561 
L 462.331934 295.885891 
L 462.418244 295.885891 
L 462.847282 295.885891 
L 462.659825 295.48622 
L 462.745274 295.48622 
L 465.434915 295.48622 
L 465.252231 295.08655 
L 465.372608 295.08655 
L 466.674734 295.08655 
L 466.494598 294.68688 
L 466.611203 294.68688 
L 470.17947 294.68688 
L 470.005737 294.287209 
L 470.112561 294.287209 
L 471.681677 294.287209 
L 471.510972 293.887539 
L 471.613589 293.887539 
L 472.122718 293.887539 
L 471.953213 293.487868 
L 472.054429 293.487868 
L 474.47134 293.487868 
L 474.306343 293.088198 
L 474.401366 293.088198 
L 480.352234 293.088198 
L 480.198092 292.688527 
L 480.305716 292.688527 
L 483.876339 292.688527 
L 483.729005 292.288857 
L 483.825894 292.288857 
L 486.961343 292.288857 
L 486.820096 291.889186 
L 486.92999 291.889186 
L 493.539267 291.889186 
L 493.539267 291.889186 
" style="fill:none;stroke:#2ca02c;stroke-linecap:square;stroke-width:2;"/>
   </g>
   <g id="patch_3">
    <path d="M 76.5 448.56 
L 76.5 60.48 
" style="fill:none;stroke:#000000;stroke-linecap:square;stroke-linejoin:miter;stroke-width:0.8;"/>
   </g>
   <g id="patch_4">
    <path d="M 550.8 448.56 
L 550.8 60.48 
" style="fill:none;stroke:#000000;stroke-linecap:square;stroke-linejoin:miter;stroke-width:0.8;"/>
   </g>
   <g id="patch_5">
    <path d="M 76.5 448.56 
L 550.8 448.56 
" style="fill:none;stroke:#000000;stroke-linecap:square;stroke-linejoin:miter;stroke-width:0.8;"/>
   </g>
   <g id="patch_6">
    <path d="M 76.5 60.48 
L 550.8 60.48 
" style="fill:none;stroke:#000000;stroke-linecap:square;stroke-linejoin:miter;stroke-width:0.8;"/>
   </g>
   <g id="text_25">
    <!-- ubc: img1-img6 -->
    <defs>
     <path d="M 8.5 21.578125 
L 8.5 54.6875 
L 17.484375 54.6875 
L 17.484375 21.921875 
Q 17.484375 14.15625 20.5 10.265625 
Q 23.53125 6.390625 29.59375 6.390625 
Q 36.859375 6.390625 41.078125 11.03125 
Q 45.3125 15.671875 45.3125 23.6875 
L 45.3125 54.6875 
L 54.296875 54.6875 
L 54.296875 0 
L 45.3125 0 
L 45.3125 8.40625 
Q 42.046875 3.421875 37.71875 1 
Q 33.40625 -1.421875 27.6875 -1.421875 
Q 18.265625 -1.421875 13.375 4.4375 
Q 8.5 10.296875 8.5 21.578125 
z
M 31.109375 56 
z
" id="DejaVuSans-117"/>
     <path d="M 48.6875 27.296875 
Q 48.6875 37.203125 44.609375 42.84375 
Q 40.53125 48.484375 33.40625 48.484375 
Q 26.265625 48.484375 22.1875 42.84375 
Q 18.109375 37.203125 18.109375 27.296875 
Q 18.109375 17.390625 22.1875 11.75 
Q 26.265625 6.109375 33.40625 6.109375 
Q 40.53125 6.109375 44.609375 11.75 
Q 48.6875 17.390625 48.6875 27.296875 
z
M 18.109375 46.390625 
Q 20.953125 51.265625 25.265625 53.625 
Q 29.59375 56 35.59375 56 
Q 45.5625 56 51.78125 48.09375 
Q 58.015625 40.1875 58.015625 27.296875 
Q 58.015625 14.40625 51.78125 6.484375 
Q 45.5625 -1.421875 35.59375 -1.421875 
Q 29.59375 -1.421875 25.265625 0.953125 
Q 20.953125 3.328125 18.109375 8.203125 
L 18.109375 0 
L 9.078125 0 
L 9.078125 75.984375 
L 18.109375 75.984375 
z
" id="DejaVuSans-98"/>
     <path d="M 11.71875 12.40625 
L 22.015625 12.40625 
L 22.015625 0 
L 11.71875 0 
z
M 11.71875 51.703125 
L 22.015625 51.703125 
L 22.015625 39.3125 
L 11.71875 39.3125 
z
" id="DejaVuSans-58"/>
     <path id="DejaVuSans-32"/>
     <path d="M 52 44.1875 
Q 55.375 50.25 60.0625 53.125 
Q 64.75 56 71.09375 56 
Q 79.640625 56 84.28125 50.015625 
Q 88.921875 44.046875 88.921875 33.015625 
L 88.921875 0 
L 79.890625 0 
L 79.890625 32.71875 
Q 79.890625 40.578125 77.09375 44.375 
Q 74.3125 48.1875 68.609375 48.1875 
Q 61.625 48.1875 57.5625 43.546875 
Q 53.515625 38.921875 53.515625 30.90625 
L 53.515625 0 
L 44.484375 0 
L 44.484375 32.71875 
Q 44.484375 40.625 41.703125 44.40625 
Q 38.921875 48.1875 33.109375 48.1875 
Q 26.21875 48.1875 22.15625 43.53125 
Q 18.109375 38.875 18.109375 30.90625 
L 18.109375 0 
L 9.078125 0 
L 9.078125 54.6875 
L 18.109375 54.6875 
L 18.109375 46.1875 
Q 21.1875 51.21875 25.484375 53.609375 
Q 29.78125 56 35.6875 56 
Q 41.65625 56 45.828125 52.96875 
Q 50 49.953125 52 44.1875 
z
" id="DejaVuSans-109"/>
     <path d="M 45.40625 27.984375 
Q 45.40625 37.75 41.375 43.109375 
Q 37.359375 48.484375 30.078125 48.484375 
Q 22.859375 48.484375 18.828125 43.109375 
Q 14.796875 37.75 14.796875 27.984375 
Q 14.796875 18.265625 18.828125 12.890625 
Q 22.859375 7.515625 30.078125 7.515625 
Q 37.359375 7.515625 41.375 12.890625 
Q 45.40625 18.265625 45.40625 27.984375 
z
M 54.390625 6.78125 
Q 54.390625 -7.171875 48.1875 -13.984375 
Q 42 -20.796875 29.203125 -20.796875 
Q 24.46875 -20.796875 20.265625 -20.09375 
Q 16.0625 -19.390625 12.109375 -17.921875 
L 12.109375 -9.1875 
Q 16.0625 -11.328125 19.921875 -12.34375 
Q 23.78125 -13.375 27.78125 -13.375 
Q 36.625 -13.375 41.015625 -8.765625 
Q 45.40625 -4.15625 45.40625 5.171875 
L 45.40625 9.625 
Q 42.625 4.78125 38.28125 2.390625 
Q 33.9375 0 27.875 0 
Q 17.828125 0 11.671875 7.65625 
Q 5.515625 15.328125 5.515625 27.984375 
Q 5.515625 40.671875 11.671875 48.328125 
Q 17.828125 56 27.875 56 
Q 33.9375 56 38.28125 53.609375 
Q 42.625 51.21875 45.40625 46.390625 
L 45.40625 54.6875 
L 54.390625 54.6875 
z
" id="DejaVuSans-103"/>
    </defs>
    <g transform="translate(266.370938 41.042625)scale(0.12 -0.12)">
     <use xlink:href="#DejaVuSans-117"/>
     <use x="63.378906" xlink:href="#DejaVuSans-98"/>
     <use x="126.855469" xlink:href="#DejaVuSans-99"/>
     <use x="181.835938" xlink:href="#DejaVuSans-58"/>
     <use x="215.527344" xlink:href="#DejaVuSans-32"/>
     <use x="247.314453" xlink:href="#DejaVuSans-105"/>
     <use x="275.097656" xlink:href="#DejaVuSans-109"/>
     <use x="372.509766" xlink:href="#DejaVuSans-103"/>
     <use x="435.986328" xlink:href="#DejaVuSans-49"/>
     <use x="499.609375" xlink:href="#DejaVuSans-45"/>
     <use x="535.693359" xlink:href="#DejaVuSans-105"/>
     <use x="563.476562" xlink:href="#DejaVuSans-109"/>
     <use x="660.888672" xlink:href="#DejaVuSans-103"/>
     <use x="724.365234" xlink:href="#DejaVuSans-54"/>
    </g>
    <!-- NearestNeighbours -->
    <defs>
     <path d="M 9.8125 72.90625 
L 23.09375 72.90625 
L 55.421875 11.921875 
L 55.421875 72.90625 
L 64.984375 72.90625 
L 64.984375 0 
L 51.703125 0 
L 19.390625 60.984375 
L 19.390625 0 
L 9.8125 0 
z
" id="DejaVuSans-78"/>
     <path d="M 34.28125 27.484375 
Q 23.390625 27.484375 19.1875 25 
Q 14.984375 22.515625 14.984375 16.5 
Q 14.984375 11.71875 18.140625 8.90625 
Q 21.296875 6.109375 26.703125 6.109375 
Q 34.1875 6.109375 38.703125 11.40625 
Q 43.21875 16.703125 43.21875 25.484375 
L 43.21875 27.484375 
z
M 52.203125 31.203125 
L 52.203125 0 
L 43.21875 0 
L 43.21875 8.296875 
Q 40.140625 3.328125 35.546875 0.953125 
Q 30.953125 -1.421875 24.3125 -1.421875 
Q 15.921875 -1.421875 10.953125 3.296875 
Q 6 8.015625 6 15.921875 
Q 6 25.140625 12.171875 29.828125 
Q 18.359375 34.515625 30.609375 34.515625 
L 43.21875 34.515625 
L 43.21875 35.40625 
Q 43.21875 41.609375 39.140625 45 
Q 35.0625 48.390625 27.6875 48.390625 
Q 23 48.390625 18.546875 47.265625 
Q 14.109375 46.140625 10.015625 43.890625 
L 10.015625 52.203125 
Q 14.9375 54.109375 19.578125 55.046875 
Q 24.21875 56 28.609375 56 
Q 40.484375 56 46.34375 49.84375 
Q 52.203125 43.703125 52.203125 31.203125 
z
" id="DejaVuSans-97"/>
     <path d="M 54.890625 33.015625 
L 54.890625 0 
L 45.90625 0 
L 45.90625 32.71875 
Q 45.90625 40.484375 42.875 44.328125 
Q 39.84375 48.1875 33.796875 48.1875 
Q 26.515625 48.1875 22.3125 43.546875 
Q 18.109375 38.921875 18.109375 30.90625 
L 18.109375 0 
L 9.078125 0 
L 9.078125 75.984375 
L 18.109375 75.984375 
L 18.109375 46.1875 
Q 21.34375 51.125 25.703125 53.5625 
Q 30.078125 56 35.796875 56 
Q 45.21875 56 50.046875 50.171875 
Q 54.890625 44.34375 54.890625 33.015625 
z
" id="DejaVuSans-104"/>
    </defs>
    <g transform="translate(255.957188 54.48)scale(0.12 -0.12)">
     <use xlink:href="#DejaVuSans-78"/>
     <use x="74.804688" xlink:href="#DejaVuSans-101"/>
     <use x="136.328125" xlink:href="#DejaVuSans-97"/>
     <use x="197.607422" xlink:href="#DejaVuSans-114"/>
     <use x="236.470703" xlink:href="#DejaVuSans-101"/>
     <use x="297.994141" xlink:href="#DejaVuSans-115"/>
     <use x="350.09375" xlink:href="#DejaVuSans-116"/>
     <use x="389.302734" xlink:href="#DejaVuSans-78"/>
     <use x="464.107422" xlink:href="#DejaVuSans-101"/>
     <use x="525.630859" xlink:href="#DejaVuSans-105"/>
     <use x="553.414062" xlink:href="#DejaVuSans-103"/>
     <use x="616.890625" xlink:href="#DejaVuSans-104"/>
     <use x="680.269531" xlink:href="#DejaVuSans-98"/>
     <use x="743.746094" xlink:href="#DejaVuSans-111"/>
     <use x="804.927734" xlink:href="#DejaVuSans-117"/>
     <use x="868.306641" xlink:href="#DejaVuSans-114"/>
     <use x="909.419922" xlink:href="#DejaVuSans-115"/>
    </g>
   </g>
   <g id="legend_1">
    <g id="patch_7">
     <path d="M 362.659375 112.514375 
L 543.8 112.514375 
Q 545.8 112.514375 545.8 110.514375 
L 545.8 67.48 
Q 545.8 65.48 543.8 65.48 
L 362.659375 65.48 
Q 360.659375 65.48 360.659375 67.48 
L 360.659375 110.514375 
Q 360.659375 112.514375 362.659375 112.514375 
z
" style="fill:#ffffff;opacity:0.8;stroke:#cccccc;stroke-linejoin:miter;"/>
    </g>
    <g id="line2d_48">
     <path d="M 364.659375 73.578438 
L 384.659375 73.578438 
" style="fill:none;stroke:#1f77b4;stroke-linecap:square;stroke-width:2;"/>
    </g>
    <g id="line2d_49"/>
    <g id="text_26">
     <!-- root-cvsift AP: 36.0, %In: 14.4 -->
     <defs>
      <path d="M 2.984375 54.6875 
L 12.5 54.6875 
L 29.59375 8.796875 
L 46.6875 54.6875 
L 56.203125 54.6875 
L 35.6875 0 
L 23.484375 0 
z
" id="DejaVuSans-118"/>
      <path d="M 37.109375 75.984375 
L 37.109375 68.5 
L 28.515625 68.5 
Q 23.6875 68.5 21.796875 66.546875 
Q 19.921875 64.59375 19.921875 59.515625 
L 19.921875 54.6875 
L 34.71875 54.6875 
L 34.71875 47.703125 
L 19.921875 47.703125 
L 19.921875 0 
L 10.890625 0 
L 10.890625 47.703125 
L 2.296875 47.703125 
L 2.296875 54.6875 
L 10.890625 54.6875 
L 10.890625 58.5 
Q 10.890625 67.625 15.140625 71.796875 
Q 19.390625 75.984375 28.609375 75.984375 
z
" id="DejaVuSans-102"/>
      <path d="M 34.1875 63.1875 
L 20.796875 26.90625 
L 47.609375 26.90625 
z
M 28.609375 72.90625 
L 39.796875 72.90625 
L 67.578125 0 
L 57.328125 0 
L 50.6875 18.703125 
L 17.828125 18.703125 
L 11.1875 0 
L 0.78125 0 
z
" id="DejaVuSans-65"/>
      <path d="M 19.671875 64.796875 
L 19.671875 37.40625 
L 32.078125 37.40625 
Q 38.96875 37.40625 42.71875 40.96875 
Q 46.484375 44.53125 46.484375 51.125 
Q 46.484375 57.671875 42.71875 61.234375 
Q 38.96875 64.796875 32.078125 64.796875 
z
M 9.8125 72.90625 
L 32.078125 72.90625 
Q 44.34375 72.90625 50.609375 67.359375 
Q 56.890625 61.8125 56.890625 51.125 
Q 56.890625 40.328125 50.609375 34.8125 
Q 44.34375 29.296875 32.078125 29.296875 
L 19.671875 29.296875 
L 19.671875 0 
L 9.8125 0 
z
" id="DejaVuSans-80"/>
      <path d="M 11.71875 12.40625 
L 22.015625 12.40625 
L 22.015625 4 
L 14.015625 -11.625 
L 7.71875 -11.625 
L 11.71875 4 
z
" id="DejaVuSans-44"/>
      <path d="M 72.703125 32.078125 
Q 68.453125 32.078125 66.03125 28.46875 
Q 63.625 24.859375 63.625 18.40625 
Q 63.625 12.0625 66.03125 8.421875 
Q 68.453125 4.78125 72.703125 4.78125 
Q 76.859375 4.78125 79.265625 8.421875 
Q 81.6875 12.0625 81.6875 18.40625 
Q 81.6875 24.8125 79.265625 28.4375 
Q 76.859375 32.078125 72.703125 32.078125 
z
M 72.703125 38.28125 
Q 80.421875 38.28125 84.953125 32.90625 
Q 89.5 27.546875 89.5 18.40625 
Q 89.5 9.28125 84.9375 3.921875 
Q 80.375 -1.421875 72.703125 -1.421875 
Q 64.890625 -1.421875 60.34375 3.921875 
Q 55.8125 9.28125 55.8125 18.40625 
Q 55.8125 27.59375 60.375 32.9375 
Q 64.9375 38.28125 72.703125 38.28125 
z
M 22.3125 68.015625 
Q 18.109375 68.015625 15.6875 64.375 
Q 13.28125 60.75 13.28125 54.390625 
Q 13.28125 47.953125 15.671875 44.328125 
Q 18.0625 40.71875 22.3125 40.71875 
Q 26.5625 40.71875 28.96875 44.328125 
Q 31.390625 47.953125 31.390625 54.390625 
Q 31.390625 60.6875 28.953125 64.34375 
Q 26.515625 68.015625 22.3125 68.015625 
z
M 66.40625 74.21875 
L 74.21875 74.21875 
L 28.609375 -1.421875 
L 20.796875 -1.421875 
z
M 22.3125 74.21875 
Q 30.03125 74.21875 34.609375 68.875 
Q 39.203125 63.53125 39.203125 54.390625 
Q 39.203125 45.171875 34.640625 39.84375 
Q 30.078125 34.515625 22.3125 34.515625 
Q 14.546875 34.515625 10.03125 39.859375 
Q 5.515625 45.21875 5.515625 54.390625 
Q 5.515625 63.484375 10.046875 68.84375 
Q 14.59375 74.21875 22.3125 74.21875 
z
" id="DejaVuSans-37"/>
      <path d="M 9.8125 72.90625 
L 19.671875 72.90625 
L 19.671875 0 
L 9.8125 0 
z
" id="DejaVuSans-73"/>
     </defs>
     <g transform="translate(392.659375 77.078438)scale(0.1 -0.1)">
      <use xlink:href="#DejaVuSans-114"/>
      <use x="38.863281" xlink:href="#DejaVuSans-111"/>
      <use x="100.044922" xlink:href="#DejaVuSans-111"/>
      <use x="161.226562" xlink:href="#DejaVuSans-116"/>
      <use x="200.435547" xlink:href="#DejaVuSans-45"/>
      <use x="236.519531" xlink:href="#DejaVuSans-99"/>
      <use x="291.5" xlink:href="#DejaVuSans-118"/>
      <use x="350.679688" xlink:href="#DejaVuSans-115"/>
      <use x="402.779297" xlink:href="#DejaVuSans-105"/>
      <use x="430.5625" xlink:href="#DejaVuSans-102"/>
      <use x="464.017578" xlink:href="#DejaVuSans-116"/>
      <use x="503.226562" xlink:href="#DejaVuSans-32"/>
      <use x="535.013672" xlink:href="#DejaVuSans-65"/>
      <use x="603.421875" xlink:href="#DejaVuSans-80"/>
      <use x="663.724609" xlink:href="#DejaVuSans-58"/>
      <use x="697.416016" xlink:href="#DejaVuSans-32"/>
      <use x="729.203125" xlink:href="#DejaVuSans-51"/>
      <use x="792.826172" xlink:href="#DejaVuSans-54"/>
      <use x="856.449219" xlink:href="#DejaVuSans-46"/>
      <use x="888.236328" xlink:href="#DejaVuSans-48"/>
      <use x="951.859375" xlink:href="#DejaVuSans-44"/>
      <use x="983.646484" xlink:href="#DejaVuSans-32"/>
      <use x="1015.433594" xlink:href="#DejaVuSans-37"/>
      <use x="1110.453125" xlink:href="#DejaVuSans-73"/>
      <use x="1139.945312" xlink:href="#DejaVuSans-110"/>
      <use x="1203.324219" xlink:href="#DejaVuSans-58"/>
      <use x="1237.015625" xlink:href="#DejaVuSans-32"/>
      <use x="1268.802734" xlink:href="#DejaVuSans-49"/>
      <use x="1332.425781" xlink:href="#DejaVuSans-52"/>
      <use x="1396.048828" xlink:href="#DejaVuSans-46"/>
      <use x="1427.835938" xlink:href="#DejaVuSans-52"/>
     </g>
    </g>
    <g id="line2d_50">
     <path d="M 364.659375 88.256563 
L 384.659375 88.256563 
" style="fill:none;stroke:#ff7f0e;stroke-linecap:square;stroke-width:2;"/>
    </g>
    <g id="line2d_51"/>
    <g id="text_27">
     <!-- tfeat AP: 21.4, %In: 10.3 -->
     <g transform="translate(392.659375 91.756563)scale(0.1 -0.1)">
      <use xlink:href="#DejaVuSans-116"/>
      <use x="39.208984" xlink:href="#DejaVuSans-102"/>
      <use x="74.414062" xlink:href="#DejaVuSans-101"/>
      <use x="135.9375" xlink:href="#DejaVuSans-97"/>
      <use x="197.216797" xlink:href="#DejaVuSans-116"/>
      <use x="236.425781" xlink:href="#DejaVuSans-32"/>
      <use x="268.212891" xlink:href="#DejaVuSans-65"/>
      <use x="336.621094" xlink:href="#DejaVuSans-80"/>
      <use x="396.923828" xlink:href="#DejaVuSans-58"/>
      <use x="430.615234" xlink:href="#DejaVuSans-32"/>
      <use x="462.402344" xlink:href="#DejaVuSans-50"/>
      <use x="526.025391" xlink:href="#DejaVuSans-49"/>
      <use x="589.648438" xlink:href="#DejaVuSans-46"/>
      <use x="621.435547" xlink:href="#DejaVuSans-52"/>
      <use x="685.058594" xlink:href="#DejaVuSans-44"/>
      <use x="716.845703" xlink:href="#DejaVuSans-32"/>
      <use x="748.632812" xlink:href="#DejaVuSans-37"/>
      <use x="843.652344" xlink:href="#DejaVuSans-73"/>
      <use x="873.144531" xlink:href="#DejaVuSans-110"/>
      <use x="936.523438" xlink:href="#DejaVuSans-58"/>
      <use x="970.214844" xlink:href="#DejaVuSans-32"/>
      <use x="1002.001953" xlink:href="#DejaVuSans-49"/>
      <use x="1065.625" xlink:href="#DejaVuSans-48"/>
      <use x="1129.248047" xlink:href="#DejaVuSans-46"/>
      <use x="1161.035156" xlink:href="#DejaVuSans-51"/>
     </g>
    </g>
    <g id="line2d_52">
     <path d="M 364.659375 102.934687 
L 384.659375 102.934687 
" style="fill:none;stroke:#2ca02c;stroke-linecap:square;stroke-width:2;"/>
    </g>
    <g id="line2d_53"/>
    <g id="text_28">
     <!-- hardnet AP: 28.9, %In: 12.1 -->
     <defs>
      <path d="M 45.40625 46.390625 
L 45.40625 75.984375 
L 54.390625 75.984375 
L 54.390625 0 
L 45.40625 0 
L 45.40625 8.203125 
Q 42.578125 3.328125 38.25 0.953125 
Q 33.9375 -1.421875 27.875 -1.421875 
Q 17.96875 -1.421875 11.734375 6.484375 
Q 5.515625 14.40625 5.515625 27.296875 
Q 5.515625 40.1875 11.734375 48.09375 
Q 17.96875 56 27.875 56 
Q 33.9375 56 38.25 53.625 
Q 42.578125 51.265625 45.40625 46.390625 
z
M 14.796875 27.296875 
Q 14.796875 17.390625 18.875 11.75 
Q 22.953125 6.109375 30.078125 6.109375 
Q 37.203125 6.109375 41.296875 11.75 
Q 45.40625 17.390625 45.40625 27.296875 
Q 45.40625 37.203125 41.296875 42.84375 
Q 37.203125 48.484375 30.078125 48.484375 
Q 22.953125 48.484375 18.875 42.84375 
Q 14.796875 37.203125 14.796875 27.296875 
z
" id="DejaVuSans-100"/>
     </defs>
     <g transform="translate(392.659375 106.434687)scale(0.1 -0.1)">
      <use xlink:href="#DejaVuSans-104"/>
      <use x="63.378906" xlink:href="#DejaVuSans-97"/>
      <use x="124.658203" xlink:href="#DejaVuSans-114"/>
      <use x="164.021484" xlink:href="#DejaVuSans-100"/>
      <use x="227.498047" xlink:href="#DejaVuSans-110"/>
      <use x="290.876953" xlink:href="#DejaVuSans-101"/>
      <use x="352.400391" xlink:href="#DejaVuSans-116"/>
      <use x="391.609375" xlink:href="#DejaVuSans-32"/>
      <use x="423.396484" xlink:href="#DejaVuSans-65"/>
      <use x="491.804688" xlink:href="#DejaVuSans-80"/>
      <use x="552.107422" xlink:href="#DejaVuSans-58"/>
      <use x="585.798828" xlink:href="#DejaVuSans-32"/>
      <use x="617.585938" xlink:href="#DejaVuSans-50"/>
      <use x="681.208984" xlink:href="#DejaVuSans-56"/>
      <use x="744.832031" xlink:href="#DejaVuSans-46"/>
      <use x="776.619141" xlink:href="#DejaVuSans-57"/>
      <use x="840.242188" xlink:href="#DejaVuSans-44"/>
      <use x="872.029297" xlink:href="#DejaVuSans-32"/>
      <use x="903.816406" xlink:href="#DejaVuSans-37"/>
      <use x="998.835938" xlink:href="#DejaVuSans-73"/>
      <use x="1028.328125" xlink:href="#DejaVuSans-110"/>
      <use x="1091.707031" xlink:href="#DejaVuSans-58"/>
      <use x="1125.398438" xlink:href="#DejaVuSans-32"/>
      <use x="1157.185547" xlink:href="#DejaVuSans-49"/>
      <use x="1220.808594" xlink:href="#DejaVuSans-50"/>
      <use x="1284.431641" xlink:href="#DejaVuSans-46"/>
      <use x="1316.21875" xlink:href="#DejaVuSans-49"/>
     </g>
    </g>
   </g>
  </g>
 </g>
 <defs>
  <clipPath id="p54c37eebdc">
   <rect height="388.08" width="474.3" x="76.5" y="60.48"/>
  </clipPath>
 </defs>
</svg>
