<?xml version="1.0" encoding="utf-8" standalone="no"?>
<!DOCTYPE svg PUBLIC "-//W3C//DTD SVG 1.1//EN"
  "http://www.w3.org/Graphics/SVG/1.1/DTD/svg11.dtd">
<!-- Created with matplotlib (https://matplotlib.org/) -->
<svg height="504pt" version="1.1" viewBox="0 0 612 504" width="612pt" xmlns="http://www.w3.org/2000/svg" xmlns:xlink="http://www.w3.org/1999/xlink">
 <defs>
  <style type="text/css">
*{stroke-linecap:butt;stroke-linejoin:round;}
  </style>
 </defs>
 <g id="figure_1">
  <g id="patch_1">
   <path d="M 0 504 
L 612 504 
L 612 0 
L 0 0 
z
" style="fill:#ffffff;"/>
  </g>
  <g id="axes_1">
   <g id="patch_2">
    <path d="M 76.5 448.56 
L 550.8 448.56 
L 550.8 60.48 
L 76.5 60.48 
z
" style="fill:#ffffff;"/>
   </g>
   <g id="matplotlib.axis_1">
    <g id="xtick_1">
     <g id="line2d_1">
      <path clip-path="url(#p7049384c2c)" d="M 76.5 448.56 
L 76.5 60.48 
" style="fill:none;stroke:#b0b0b0;stroke-linecap:square;stroke-width:0.8;"/>
     </g>
     <g id="line2d_2">
      <defs>
       <path d="M 0 0 
L 0 3.5 
" id="m537b820252" style="stroke:#000000;stroke-width:0.8;"/>
      </defs>
      <g>
       <use style="stroke:#000000;stroke-width:0.8;" x="76.5" xlink:href="#m537b820252" y="448.56"/>
      </g>
     </g>
     <g id="text_1">
      <!-- 0.0 -->
      <defs>
       <path d="M 31.78125 66.40625 
Q 24.171875 66.40625 20.328125 58.90625 
Q 16.5 51.421875 16.5 36.375 
Q 16.5 21.390625 20.328125 13.890625 
Q 24.171875 6.390625 31.78125 6.390625 
Q 39.453125 6.390625 43.28125 13.890625 
Q 47.125 21.390625 47.125 36.375 
Q 47.125 51.421875 43.28125 58.90625 
Q 39.453125 66.40625 31.78125 66.40625 
z
M 31.78125 74.21875 
Q 44.046875 74.21875 50.515625 64.515625 
Q 56.984375 54.828125 56.984375 36.375 
Q 56.984375 17.96875 50.515625 8.265625 
Q 44.046875 -1.421875 31.78125 -1.421875 
Q 19.53125 -1.421875 13.0625 8.265625 
Q 6.59375 17.96875 6.59375 36.375 
Q 6.59375 54.828125 13.0625 64.515625 
Q 19.53125 74.21875 31.78125 74.21875 
z
" id="DejaVuSans-48"/>
       <path d="M 10.6875 12.40625 
L 21 12.40625 
L 21 0 
L 10.6875 0 
z
" id="DejaVuSans-46"/>
      </defs>
      <g transform="translate(68.548438 463.158437)scale(0.1 -0.1)">
       <use xlink:href="#DejaVuSans-48"/>
       <use x="63.623047" xlink:href="#DejaVuSans-46"/>
       <use x="95.410156" xlink:href="#DejaVuSans-48"/>
      </g>
     </g>
    </g>
    <g id="xtick_2">
     <g id="line2d_3">
      <path clip-path="url(#p7049384c2c)" d="M 123.93 448.56 
L 123.93 60.48 
" style="fill:none;stroke:#b0b0b0;stroke-linecap:square;stroke-width:0.8;"/>
     </g>
     <g id="line2d_4">
      <g>
       <use style="stroke:#000000;stroke-width:0.8;" x="123.93" xlink:href="#m537b820252" y="448.56"/>
      </g>
     </g>
     <g id="text_2">
      <!-- 0.1 -->
      <defs>
       <path d="M 12.40625 8.296875 
L 28.515625 8.296875 
L 28.515625 63.921875 
L 10.984375 60.40625 
L 10.984375 69.390625 
L 28.421875 72.90625 
L 38.28125 72.90625 
L 38.28125 8.296875 
L 54.390625 8.296875 
L 54.390625 0 
L 12.40625 0 
z
" id="DejaVuSans-49"/>
      </defs>
      <g transform="translate(115.978438 463.158437)scale(0.1 -0.1)">
       <use xlink:href="#DejaVuSans-48"/>
       <use x="63.623047" xlink:href="#DejaVuSans-46"/>
       <use x="95.410156" xlink:href="#DejaVuSans-49"/>
      </g>
     </g>
    </g>
    <g id="xtick_3">
     <g id="line2d_5">
      <path clip-path="url(#p7049384c2c)" d="M 171.36 448.56 
L 171.36 60.48 
" style="fill:none;stroke:#b0b0b0;stroke-linecap:square;stroke-width:0.8;"/>
     </g>
     <g id="line2d_6">
      <g>
       <use style="stroke:#000000;stroke-width:0.8;" x="171.36" xlink:href="#m537b820252" y="448.56"/>
      </g>
     </g>
     <g id="text_3">
      <!-- 0.2 -->
      <defs>
       <path d="M 19.1875 8.296875 
L 53.609375 8.296875 
L 53.609375 0 
L 7.328125 0 
L 7.328125 8.296875 
Q 12.9375 14.109375 22.625 23.890625 
Q 32.328125 33.6875 34.8125 36.53125 
Q 39.546875 41.84375 41.421875 45.53125 
Q 43.3125 49.21875 43.3125 52.78125 
Q 43.3125 58.59375 39.234375 62.25 
Q 35.15625 65.921875 28.609375 65.921875 
Q 23.96875 65.921875 18.8125 64.3125 
Q 13.671875 62.703125 7.8125 59.421875 
L 7.8125 69.390625 
Q 13.765625 71.78125 18.9375 73 
Q 24.125 74.21875 28.421875 74.21875 
Q 39.75 74.21875 46.484375 68.546875 
Q 53.21875 62.890625 53.21875 53.421875 
Q 53.21875 48.921875 51.53125 44.890625 
Q 49.859375 40.875 45.40625 35.40625 
Q 44.1875 33.984375 37.640625 27.21875 
Q 31.109375 20.453125 19.1875 8.296875 
z
" id="DejaVuSans-50"/>
      </defs>
      <g transform="translate(163.408438 463.158437)scale(0.1 -0.1)">
       <use xlink:href="#DejaVuSans-48"/>
       <use x="63.623047" xlink:href="#DejaVuSans-46"/>
       <use x="95.410156" xlink:href="#DejaVuSans-50"/>
      </g>
     </g>
    </g>
    <g id="xtick_4">
     <g id="line2d_7">
      <path clip-path="url(#p7049384c2c)" d="M 218.79 448.56 
L 218.79 60.48 
" style="fill:none;stroke:#b0b0b0;stroke-linecap:square;stroke-width:0.8;"/>
     </g>
     <g id="line2d_8">
      <g>
       <use style="stroke:#000000;stroke-width:0.8;" x="218.79" xlink:href="#m537b820252" y="448.56"/>
      </g>
     </g>
     <g id="text_4">
      <!-- 0.3 -->
      <defs>
       <path d="M 40.578125 39.3125 
Q 47.65625 37.796875 51.625 33 
Q 55.609375 28.21875 55.609375 21.1875 
Q 55.609375 10.40625 48.1875 4.484375 
Q 40.765625 -1.421875 27.09375 -1.421875 
Q 22.515625 -1.421875 17.65625 -0.515625 
Q 12.796875 0.390625 7.625 2.203125 
L 7.625 11.71875 
Q 11.71875 9.328125 16.59375 8.109375 
Q 21.484375 6.890625 26.8125 6.890625 
Q 36.078125 6.890625 40.9375 10.546875 
Q 45.796875 14.203125 45.796875 21.1875 
Q 45.796875 27.640625 41.28125 31.265625 
Q 36.765625 34.90625 28.71875 34.90625 
L 20.21875 34.90625 
L 20.21875 43.015625 
L 29.109375 43.015625 
Q 36.375 43.015625 40.234375 45.921875 
Q 44.09375 48.828125 44.09375 54.296875 
Q 44.09375 59.90625 40.109375 62.90625 
Q 36.140625 65.921875 28.71875 65.921875 
Q 24.65625 65.921875 20.015625 65.03125 
Q 15.375 64.15625 9.8125 62.3125 
L 9.8125 71.09375 
Q 15.4375 72.65625 20.34375 73.4375 
Q 25.25 74.21875 29.59375 74.21875 
Q 40.828125 74.21875 47.359375 69.109375 
Q 53.90625 64.015625 53.90625 55.328125 
Q 53.90625 49.265625 50.4375 45.09375 
Q 46.96875 40.921875 40.578125 39.3125 
z
" id="DejaVuSans-51"/>
      </defs>
      <g transform="translate(210.838438 463.158437)scale(0.1 -0.1)">
       <use xlink:href="#DejaVuSans-48"/>
       <use x="63.623047" xlink:href="#DejaVuSans-46"/>
       <use x="95.410156" xlink:href="#DejaVuSans-51"/>
      </g>
     </g>
    </g>
    <g id="xtick_5">
     <g id="line2d_9">
      <path clip-path="url(#p7049384c2c)" d="M 266.22 448.56 
L 266.22 60.48 
" style="fill:none;stroke:#b0b0b0;stroke-linecap:square;stroke-width:0.8;"/>
     </g>
     <g id="line2d_10">
      <g>
       <use style="stroke:#000000;stroke-width:0.8;" x="266.22" xlink:href="#m537b820252" y="448.56"/>
      </g>
     </g>
     <g id="text_5">
      <!-- 0.4 -->
      <defs>
       <path d="M 37.796875 64.3125 
L 12.890625 25.390625 
L 37.796875 25.390625 
z
M 35.203125 72.90625 
L 47.609375 72.90625 
L 47.609375 25.390625 
L 58.015625 25.390625 
L 58.015625 17.1875 
L 47.609375 17.1875 
L 47.609375 0 
L 37.796875 0 
L 37.796875 17.1875 
L 4.890625 17.1875 
L 4.890625 26.703125 
z
" id="DejaVuSans-52"/>
      </defs>
      <g transform="translate(258.268438 463.158437)scale(0.1 -0.1)">
       <use xlink:href="#DejaVuSans-48"/>
       <use x="63.623047" xlink:href="#DejaVuSans-46"/>
       <use x="95.410156" xlink:href="#DejaVuSans-52"/>
      </g>
     </g>
    </g>
    <g id="xtick_6">
     <g id="line2d_11">
      <path clip-path="url(#p7049384c2c)" d="M 313.65 448.56 
L 313.65 60.48 
" style="fill:none;stroke:#b0b0b0;stroke-linecap:square;stroke-width:0.8;"/>
     </g>
     <g id="line2d_12">
      <g>
       <use style="stroke:#000000;stroke-width:0.8;" x="313.65" xlink:href="#m537b820252" y="448.56"/>
      </g>
     </g>
     <g id="text_6">
      <!-- 0.5 -->
      <defs>
       <path d="M 10.796875 72.90625 
L 49.515625 72.90625 
L 49.515625 64.59375 
L 19.828125 64.59375 
L 19.828125 46.734375 
Q 21.96875 47.46875 24.109375 47.828125 
Q 26.265625 48.1875 28.421875 48.1875 
Q 40.625 48.1875 47.75 41.5 
Q 54.890625 34.8125 54.890625 23.390625 
Q 54.890625 11.625 47.5625 5.09375 
Q 40.234375 -1.421875 26.90625 -1.421875 
Q 22.3125 -1.421875 17.546875 -0.640625 
Q 12.796875 0.140625 7.71875 1.703125 
L 7.71875 11.625 
Q 12.109375 9.234375 16.796875 8.0625 
Q 21.484375 6.890625 26.703125 6.890625 
Q 35.15625 6.890625 40.078125 11.328125 
Q 45.015625 15.765625 45.015625 23.390625 
Q 45.015625 31 40.078125 35.4375 
Q 35.15625 39.890625 26.703125 39.890625 
Q 22.75 39.890625 18.8125 39.015625 
Q 14.890625 38.140625 10.796875 36.28125 
z
" id="DejaVuSans-53"/>
      </defs>
      <g transform="translate(305.698438 463.158437)scale(0.1 -0.1)">
       <use xlink:href="#DejaVuSans-48"/>
       <use x="63.623047" xlink:href="#DejaVuSans-46"/>
       <use x="95.410156" xlink:href="#DejaVuSans-53"/>
      </g>
     </g>
    </g>
    <g id="xtick_7">
     <g id="line2d_13">
      <path clip-path="url(#p7049384c2c)" d="M 361.08 448.56 
L 361.08 60.48 
" style="fill:none;stroke:#b0b0b0;stroke-linecap:square;stroke-width:0.8;"/>
     </g>
     <g id="line2d_14">
      <g>
       <use style="stroke:#000000;stroke-width:0.8;" x="361.08" xlink:href="#m537b820252" y="448.56"/>
      </g>
     </g>
     <g id="text_7">
      <!-- 0.6 -->
      <defs>
       <path d="M 33.015625 40.375 
Q 26.375 40.375 22.484375 35.828125 
Q 18.609375 31.296875 18.609375 23.390625 
Q 18.609375 15.53125 22.484375 10.953125 
Q 26.375 6.390625 33.015625 6.390625 
Q 39.65625 6.390625 43.53125 10.953125 
Q 47.40625 15.53125 47.40625 23.390625 
Q 47.40625 31.296875 43.53125 35.828125 
Q 39.65625 40.375 33.015625 40.375 
z
M 52.59375 71.296875 
L 52.59375 62.3125 
Q 48.875 64.0625 45.09375 64.984375 
Q 41.3125 65.921875 37.59375 65.921875 
Q 27.828125 65.921875 22.671875 59.328125 
Q 17.53125 52.734375 16.796875 39.40625 
Q 19.671875 43.65625 24.015625 45.921875 
Q 28.375 48.1875 33.59375 48.1875 
Q 44.578125 48.1875 50.953125 41.515625 
Q 57.328125 34.859375 57.328125 23.390625 
Q 57.328125 12.15625 50.6875 5.359375 
Q 44.046875 -1.421875 33.015625 -1.421875 
Q 20.359375 -1.421875 13.671875 8.265625 
Q 6.984375 17.96875 6.984375 36.375 
Q 6.984375 53.65625 15.1875 63.9375 
Q 23.390625 74.21875 37.203125 74.21875 
Q 40.921875 74.21875 44.703125 73.484375 
Q 48.484375 72.75 52.59375 71.296875 
z
" id="DejaVuSans-54"/>
      </defs>
      <g transform="translate(353.128438 463.158437)scale(0.1 -0.1)">
       <use xlink:href="#DejaVuSans-48"/>
       <use x="63.623047" xlink:href="#DejaVuSans-46"/>
       <use x="95.410156" xlink:href="#DejaVuSans-54"/>
      </g>
     </g>
    </g>
    <g id="xtick_8">
     <g id="line2d_15">
      <path clip-path="url(#p7049384c2c)" d="M 408.51 448.56 
L 408.51 60.48 
" style="fill:none;stroke:#b0b0b0;stroke-linecap:square;stroke-width:0.8;"/>
     </g>
     <g id="line2d_16">
      <g>
       <use style="stroke:#000000;stroke-width:0.8;" x="408.51" xlink:href="#m537b820252" y="448.56"/>
      </g>
     </g>
     <g id="text_8">
      <!-- 0.7 -->
      <defs>
       <path d="M 8.203125 72.90625 
L 55.078125 72.90625 
L 55.078125 68.703125 
L 28.609375 0 
L 18.3125 0 
L 43.21875 64.59375 
L 8.203125 64.59375 
z
" id="DejaVuSans-55"/>
      </defs>
      <g transform="translate(400.558438 463.158437)scale(0.1 -0.1)">
       <use xlink:href="#DejaVuSans-48"/>
       <use x="63.623047" xlink:href="#DejaVuSans-46"/>
       <use x="95.410156" xlink:href="#DejaVuSans-55"/>
      </g>
     </g>
    </g>
    <g id="xtick_9">
     <g id="line2d_17">
      <path clip-path="url(#p7049384c2c)" d="M 455.94 448.56 
L 455.94 60.48 
" style="fill:none;stroke:#b0b0b0;stroke-linecap:square;stroke-width:0.8;"/>
     </g>
     <g id="line2d_18">
      <g>
       <use style="stroke:#000000;stroke-width:0.8;" x="455.94" xlink:href="#m537b820252" y="448.56"/>
      </g>
     </g>
     <g id="text_9">
      <!-- 0.8 -->
      <defs>
       <path d="M 31.78125 34.625 
Q 24.75 34.625 20.71875 30.859375 
Q 16.703125 27.09375 16.703125 20.515625 
Q 16.703125 13.921875 20.71875 10.15625 
Q 24.75 6.390625 31.78125 6.390625 
Q 38.8125 6.390625 42.859375 10.171875 
Q 46.921875 13.96875 46.921875 20.515625 
Q 46.921875 27.09375 42.890625 30.859375 
Q 38.875 34.625 31.78125 34.625 
z
M 21.921875 38.8125 
Q 15.578125 40.375 12.03125 44.71875 
Q 8.5 49.078125 8.5 55.328125 
Q 8.5 64.0625 14.71875 69.140625 
Q 20.953125 74.21875 31.78125 74.21875 
Q 42.671875 74.21875 48.875 69.140625 
Q 55.078125 64.0625 55.078125 55.328125 
Q 55.078125 49.078125 51.53125 44.71875 
Q 48 40.375 41.703125 38.8125 
Q 48.828125 37.15625 52.796875 32.3125 
Q 56.78125 27.484375 56.78125 20.515625 
Q 56.78125 9.90625 50.3125 4.234375 
Q 43.84375 -1.421875 31.78125 -1.421875 
Q 19.734375 -1.421875 13.25 4.234375 
Q 6.78125 9.90625 6.78125 20.515625 
Q 6.78125 27.484375 10.78125 32.3125 
Q 14.796875 37.15625 21.921875 38.8125 
z
M 18.3125 54.390625 
Q 18.3125 48.734375 21.84375 45.5625 
Q 25.390625 42.390625 31.78125 42.390625 
Q 38.140625 42.390625 41.71875 45.5625 
Q 45.3125 48.734375 45.3125 54.390625 
Q 45.3125 60.0625 41.71875 63.234375 
Q 38.140625 66.40625 31.78125 66.40625 
Q 25.390625 66.40625 21.84375 63.234375 
Q 18.3125 60.0625 18.3125 54.390625 
z
" id="DejaVuSans-56"/>
      </defs>
      <g transform="translate(447.988438 463.158437)scale(0.1 -0.1)">
       <use xlink:href="#DejaVuSans-48"/>
       <use x="63.623047" xlink:href="#DejaVuSans-46"/>
       <use x="95.410156" xlink:href="#DejaVuSans-56"/>
      </g>
     </g>
    </g>
    <g id="xtick_10">
     <g id="line2d_19">
      <path clip-path="url(#p7049384c2c)" d="M 503.37 448.56 
L 503.37 60.48 
" style="fill:none;stroke:#b0b0b0;stroke-linecap:square;stroke-width:0.8;"/>
     </g>
     <g id="line2d_20">
      <g>
       <use style="stroke:#000000;stroke-width:0.8;" x="503.37" xlink:href="#m537b820252" y="448.56"/>
      </g>
     </g>
     <g id="text_10">
      <!-- 0.9 -->
      <defs>
       <path d="M 10.984375 1.515625 
L 10.984375 10.5 
Q 14.703125 8.734375 18.5 7.8125 
Q 22.3125 6.890625 25.984375 6.890625 
Q 35.75 6.890625 40.890625 13.453125 
Q 46.046875 20.015625 46.78125 33.40625 
Q 43.953125 29.203125 39.59375 26.953125 
Q 35.25 24.703125 29.984375 24.703125 
Q 19.046875 24.703125 12.671875 31.3125 
Q 6.296875 37.9375 6.296875 49.421875 
Q 6.296875 60.640625 12.9375 67.421875 
Q 19.578125 74.21875 30.609375 74.21875 
Q 43.265625 74.21875 49.921875 64.515625 
Q 56.59375 54.828125 56.59375 36.375 
Q 56.59375 19.140625 48.40625 8.859375 
Q 40.234375 -1.421875 26.421875 -1.421875 
Q 22.703125 -1.421875 18.890625 -0.6875 
Q 15.09375 0.046875 10.984375 1.515625 
z
M 30.609375 32.421875 
Q 37.25 32.421875 41.125 36.953125 
Q 45.015625 41.5 45.015625 49.421875 
Q 45.015625 57.28125 41.125 61.84375 
Q 37.25 66.40625 30.609375 66.40625 
Q 23.96875 66.40625 20.09375 61.84375 
Q 16.21875 57.28125 16.21875 49.421875 
Q 16.21875 41.5 20.09375 36.953125 
Q 23.96875 32.421875 30.609375 32.421875 
z
" id="DejaVuSans-57"/>
      </defs>
      <g transform="translate(495.418438 463.158437)scale(0.1 -0.1)">
       <use xlink:href="#DejaVuSans-48"/>
       <use x="63.623047" xlink:href="#DejaVuSans-46"/>
       <use x="95.410156" xlink:href="#DejaVuSans-57"/>
      </g>
     </g>
    </g>
    <g id="xtick_11">
     <g id="line2d_21">
      <path clip-path="url(#p7049384c2c)" d="M 550.8 448.56 
L 550.8 60.48 
" style="fill:none;stroke:#b0b0b0;stroke-linecap:square;stroke-width:0.8;"/>
     </g>
     <g id="line2d_22">
      <g>
       <use style="stroke:#000000;stroke-width:0.8;" x="550.8" xlink:href="#m537b820252" y="448.56"/>
      </g>
     </g>
     <g id="text_11">
      <!-- 1.0 -->
      <g transform="translate(542.848438 463.158437)scale(0.1 -0.1)">
       <use xlink:href="#DejaVuSans-49"/>
       <use x="63.623047" xlink:href="#DejaVuSans-46"/>
       <use x="95.410156" xlink:href="#DejaVuSans-48"/>
      </g>
     </g>
    </g>
    <g id="text_12">
     <!-- 1-precision -->
     <defs>
      <path d="M 4.890625 31.390625 
L 31.203125 31.390625 
L 31.203125 23.390625 
L 4.890625 23.390625 
z
" id="DejaVuSans-45"/>
      <path d="M 18.109375 8.203125 
L 18.109375 -20.796875 
L 9.078125 -20.796875 
L 9.078125 54.6875 
L 18.109375 54.6875 
L 18.109375 46.390625 
Q 20.953125 51.265625 25.265625 53.625 
Q 29.59375 56 35.59375 56 
Q 45.5625 56 51.78125 48.09375 
Q 58.015625 40.1875 58.015625 27.296875 
Q 58.015625 14.40625 51.78125 6.484375 
Q 45.5625 -1.421875 35.59375 -1.421875 
Q 29.59375 -1.421875 25.265625 0.953125 
Q 20.953125 3.328125 18.109375 8.203125 
z
M 48.6875 27.296875 
Q 48.6875 37.203125 44.609375 42.84375 
Q 40.53125 48.484375 33.40625 48.484375 
Q 26.265625 48.484375 22.1875 42.84375 
Q 18.109375 37.203125 18.109375 27.296875 
Q 18.109375 17.390625 22.1875 11.75 
Q 26.265625 6.109375 33.40625 6.109375 
Q 40.53125 6.109375 44.609375 11.75 
Q 48.6875 17.390625 48.6875 27.296875 
z
" id="DejaVuSans-112"/>
      <path d="M 41.109375 46.296875 
Q 39.59375 47.171875 37.8125 47.578125 
Q 36.03125 48 33.890625 48 
Q 26.265625 48 22.1875 43.046875 
Q 18.109375 38.09375 18.109375 28.8125 
L 18.109375 0 
L 9.078125 0 
L 9.078125 54.6875 
L 18.109375 54.6875 
L 18.109375 46.1875 
Q 20.953125 51.171875 25.484375 53.578125 
Q 30.03125 56 36.53125 56 
Q 37.453125 56 38.578125 55.875 
Q 39.703125 55.765625 41.0625 55.515625 
z
" id="DejaVuSans-114"/>
      <path d="M 56.203125 29.59375 
L 56.203125 25.203125 
L 14.890625 25.203125 
Q 15.484375 15.921875 20.484375 11.0625 
Q 25.484375 6.203125 34.421875 6.203125 
Q 39.59375 6.203125 44.453125 7.46875 
Q 49.3125 8.734375 54.109375 11.28125 
L 54.109375 2.78125 
Q 49.265625 0.734375 44.1875 -0.34375 
Q 39.109375 -1.421875 33.890625 -1.421875 
Q 20.796875 -1.421875 13.15625 6.1875 
Q 5.515625 13.8125 5.515625 26.8125 
Q 5.515625 40.234375 12.765625 48.109375 
Q 20.015625 56 32.328125 56 
Q 43.359375 56 49.78125 48.890625 
Q 56.203125 41.796875 56.203125 29.59375 
z
M 47.21875 32.234375 
Q 47.125 39.59375 43.09375 43.984375 
Q 39.0625 48.390625 32.421875 48.390625 
Q 24.90625 48.390625 20.390625 44.140625 
Q 15.875 39.890625 15.1875 32.171875 
z
" id="DejaVuSans-101"/>
      <path d="M 48.78125 52.59375 
L 48.78125 44.1875 
Q 44.96875 46.296875 41.140625 47.34375 
Q 37.3125 48.390625 33.40625 48.390625 
Q 24.65625 48.390625 19.8125 42.84375 
Q 14.984375 37.3125 14.984375 27.296875 
Q 14.984375 17.28125 19.8125 11.734375 
Q 24.65625 6.203125 33.40625 6.203125 
Q 37.3125 6.203125 41.140625 7.25 
Q 44.96875 8.296875 48.78125 10.40625 
L 48.78125 2.09375 
Q 45.015625 0.34375 40.984375 -0.53125 
Q 36.96875 -1.421875 32.421875 -1.421875 
Q 20.0625 -1.421875 12.78125 6.34375 
Q 5.515625 14.109375 5.515625 27.296875 
Q 5.515625 40.671875 12.859375 48.328125 
Q 20.21875 56 33.015625 56 
Q 37.15625 56 41.109375 55.140625 
Q 45.0625 54.296875 48.78125 52.59375 
z
" id="DejaVuSans-99"/>
      <path d="M 9.421875 54.6875 
L 18.40625 54.6875 
L 18.40625 0 
L 9.421875 0 
z
M 9.421875 75.984375 
L 18.40625 75.984375 
L 18.40625 64.59375 
L 9.421875 64.59375 
z
" id="DejaVuSans-105"/>
      <path d="M 44.28125 53.078125 
L 44.28125 44.578125 
Q 40.484375 46.53125 36.375 47.5 
Q 32.28125 48.484375 27.875 48.484375 
Q 21.1875 48.484375 17.84375 46.4375 
Q 14.5 44.390625 14.5 40.28125 
Q 14.5 37.15625 16.890625 35.375 
Q 19.28125 33.59375 26.515625 31.984375 
L 29.59375 31.296875 
Q 39.15625 29.25 43.1875 25.515625 
Q 47.21875 21.78125 47.21875 15.09375 
Q 47.21875 7.46875 41.1875 3.015625 
Q 35.15625 -1.421875 24.609375 -1.421875 
Q 20.21875 -1.421875 15.453125 -0.5625 
Q 10.6875 0.296875 5.421875 2 
L 5.421875 11.28125 
Q 10.40625 8.6875 15.234375 7.390625 
Q 20.0625 6.109375 24.8125 6.109375 
Q 31.15625 6.109375 34.5625 8.28125 
Q 37.984375 10.453125 37.984375 14.40625 
Q 37.984375 18.0625 35.515625 20.015625 
Q 33.0625 21.96875 24.703125 23.78125 
L 21.578125 24.515625 
Q 13.234375 26.265625 9.515625 29.90625 
Q 5.8125 33.546875 5.8125 39.890625 
Q 5.8125 47.609375 11.28125 51.796875 
Q 16.75 56 26.8125 56 
Q 31.78125 56 36.171875 55.265625 
Q 40.578125 54.546875 44.28125 53.078125 
z
" id="DejaVuSans-115"/>
      <path d="M 30.609375 48.390625 
Q 23.390625 48.390625 19.1875 42.75 
Q 14.984375 37.109375 14.984375 27.296875 
Q 14.984375 17.484375 19.15625 11.84375 
Q 23.34375 6.203125 30.609375 6.203125 
Q 37.796875 6.203125 41.984375 11.859375 
Q 46.1875 17.53125 46.1875 27.296875 
Q 46.1875 37.015625 41.984375 42.703125 
Q 37.796875 48.390625 30.609375 48.390625 
z
M 30.609375 56 
Q 42.328125 56 49.015625 48.375 
Q 55.71875 40.765625 55.71875 27.296875 
Q 55.71875 13.875 49.015625 6.21875 
Q 42.328125 -1.421875 30.609375 -1.421875 
Q 18.84375 -1.421875 12.171875 6.21875 
Q 5.515625 13.875 5.515625 27.296875 
Q 5.515625 40.765625 12.171875 48.375 
Q 18.84375 56 30.609375 56 
z
" id="DejaVuSans-111"/>
      <path d="M 54.890625 33.015625 
L 54.890625 0 
L 45.90625 0 
L 45.90625 32.71875 
Q 45.90625 40.484375 42.875 44.328125 
Q 39.84375 48.1875 33.796875 48.1875 
Q 26.515625 48.1875 22.3125 43.546875 
Q 18.109375 38.921875 18.109375 30.90625 
L 18.109375 0 
L 9.078125 0 
L 9.078125 54.6875 
L 18.109375 54.6875 
L 18.109375 46.1875 
Q 21.34375 51.125 25.703125 53.5625 
Q 30.078125 56 35.796875 56 
Q 45.21875 56 50.046875 50.171875 
Q 54.890625 44.34375 54.890625 33.015625 
z
" id="DejaVuSans-110"/>
     </defs>
     <g transform="translate(286.110938 476.836563)scale(0.1 -0.1)">
      <use xlink:href="#DejaVuSans-49"/>
      <use x="63.623047" xlink:href="#DejaVuSans-45"/>
      <use x="99.707031" xlink:href="#DejaVuSans-112"/>
      <use x="163.183594" xlink:href="#DejaVuSans-114"/>
      <use x="202.046875" xlink:href="#DejaVuSans-101"/>
      <use x="263.570312" xlink:href="#DejaVuSans-99"/>
      <use x="318.550781" xlink:href="#DejaVuSans-105"/>
      <use x="346.333984" xlink:href="#DejaVuSans-115"/>
      <use x="398.433594" xlink:href="#DejaVuSans-105"/>
      <use x="426.216797" xlink:href="#DejaVuSans-111"/>
      <use x="487.398438" xlink:href="#DejaVuSans-110"/>
     </g>
    </g>
   </g>
   <g id="matplotlib.axis_2">
    <g id="ytick_1">
     <g id="line2d_23">
      <path clip-path="url(#p7049384c2c)" d="M 76.5 448.56 
L 550.8 448.56 
" style="fill:none;stroke:#b0b0b0;stroke-linecap:square;stroke-width:0.8;"/>
     </g>
     <g id="line2d_24">
      <defs>
       <path d="M 0 0 
L -3.5 0 
" id="m64370d8246" style="stroke:#000000;stroke-width:0.8;"/>
      </defs>
      <g>
       <use style="stroke:#000000;stroke-width:0.8;" x="76.5" xlink:href="#m64370d8246" y="448.56"/>
      </g>
     </g>
     <g id="text_13">
      <!-- 0.0 -->
      <g transform="translate(53.596875 452.359219)scale(0.1 -0.1)">
       <use xlink:href="#DejaVuSans-48"/>
       <use x="63.623047" xlink:href="#DejaVuSans-46"/>
       <use x="95.410156" xlink:href="#DejaVuSans-48"/>
      </g>
     </g>
    </g>
    <g id="ytick_2">
     <g id="line2d_25">
      <path clip-path="url(#p7049384c2c)" d="M 76.5 409.752 
L 550.8 409.752 
" style="fill:none;stroke:#b0b0b0;stroke-linecap:square;stroke-width:0.8;"/>
     </g>
     <g id="line2d_26">
      <g>
       <use style="stroke:#000000;stroke-width:0.8;" x="76.5" xlink:href="#m64370d8246" y="409.752"/>
      </g>
     </g>
     <g id="text_14">
      <!-- 0.1 -->
      <g transform="translate(53.596875 413.551219)scale(0.1 -0.1)">
       <use xlink:href="#DejaVuSans-48"/>
       <use x="63.623047" xlink:href="#DejaVuSans-46"/>
       <use x="95.410156" xlink:href="#DejaVuSans-49"/>
      </g>
     </g>
    </g>
    <g id="ytick_3">
     <g id="line2d_27">
      <path clip-path="url(#p7049384c2c)" d="M 76.5 370.944 
L 550.8 370.944 
" style="fill:none;stroke:#b0b0b0;stroke-linecap:square;stroke-width:0.8;"/>
     </g>
     <g id="line2d_28">
      <g>
       <use style="stroke:#000000;stroke-width:0.8;" x="76.5" xlink:href="#m64370d8246" y="370.944"/>
      </g>
     </g>
     <g id="text_15">
      <!-- 0.2 -->
      <g transform="translate(53.596875 374.743219)scale(0.1 -0.1)">
       <use xlink:href="#DejaVuSans-48"/>
       <use x="63.623047" xlink:href="#DejaVuSans-46"/>
       <use x="95.410156" xlink:href="#DejaVuSans-50"/>
      </g>
     </g>
    </g>
    <g id="ytick_4">
     <g id="line2d_29">
      <path clip-path="url(#p7049384c2c)" d="M 76.5 332.136 
L 550.8 332.136 
" style="fill:none;stroke:#b0b0b0;stroke-linecap:square;stroke-width:0.8;"/>
     </g>
     <g id="line2d_30">
      <g>
       <use style="stroke:#000000;stroke-width:0.8;" x="76.5" xlink:href="#m64370d8246" y="332.136"/>
      </g>
     </g>
     <g id="text_16">
      <!-- 0.3 -->
      <g transform="translate(53.596875 335.935219)scale(0.1 -0.1)">
       <use xlink:href="#DejaVuSans-48"/>
       <use x="63.623047" xlink:href="#DejaVuSans-46"/>
       <use x="95.410156" xlink:href="#DejaVuSans-51"/>
      </g>
     </g>
    </g>
    <g id="ytick_5">
     <g id="line2d_31">
      <path clip-path="url(#p7049384c2c)" d="M 76.5 293.328 
L 550.8 293.328 
" style="fill:none;stroke:#b0b0b0;stroke-linecap:square;stroke-width:0.8;"/>
     </g>
     <g id="line2d_32">
      <g>
       <use style="stroke:#000000;stroke-width:0.8;" x="76.5" xlink:href="#m64370d8246" y="293.328"/>
      </g>
     </g>
     <g id="text_17">
      <!-- 0.4 -->
      <g transform="translate(53.596875 297.127219)scale(0.1 -0.1)">
       <use xlink:href="#DejaVuSans-48"/>
       <use x="63.623047" xlink:href="#DejaVuSans-46"/>
       <use x="95.410156" xlink:href="#DejaVuSans-52"/>
      </g>
     </g>
    </g>
    <g id="ytick_6">
     <g id="line2d_33">
      <path clip-path="url(#p7049384c2c)" d="M 76.5 254.52 
L 550.8 254.52 
" style="fill:none;stroke:#b0b0b0;stroke-linecap:square;stroke-width:0.8;"/>
     </g>
     <g id="line2d_34">
      <g>
       <use style="stroke:#000000;stroke-width:0.8;" x="76.5" xlink:href="#m64370d8246" y="254.52"/>
      </g>
     </g>
     <g id="text_18">
      <!-- 0.5 -->
      <g transform="translate(53.596875 258.319219)scale(0.1 -0.1)">
       <use xlink:href="#DejaVuSans-48"/>
       <use x="63.623047" xlink:href="#DejaVuSans-46"/>
       <use x="95.410156" xlink:href="#DejaVuSans-53"/>
      </g>
     </g>
    </g>
    <g id="ytick_7">
     <g id="line2d_35">
      <path clip-path="url(#p7049384c2c)" d="M 76.5 215.712 
L 550.8 215.712 
" style="fill:none;stroke:#b0b0b0;stroke-linecap:square;stroke-width:0.8;"/>
     </g>
     <g id="line2d_36">
      <g>
       <use style="stroke:#000000;stroke-width:0.8;" x="76.5" xlink:href="#m64370d8246" y="215.712"/>
      </g>
     </g>
     <g id="text_19">
      <!-- 0.6 -->
      <g transform="translate(53.596875 219.511219)scale(0.1 -0.1)">
       <use xlink:href="#DejaVuSans-48"/>
       <use x="63.623047" xlink:href="#DejaVuSans-46"/>
       <use x="95.410156" xlink:href="#DejaVuSans-54"/>
      </g>
     </g>
    </g>
    <g id="ytick_8">
     <g id="line2d_37">
      <path clip-path="url(#p7049384c2c)" d="M 76.5 176.904 
L 550.8 176.904 
" style="fill:none;stroke:#b0b0b0;stroke-linecap:square;stroke-width:0.8;"/>
     </g>
     <g id="line2d_38">
      <g>
       <use style="stroke:#000000;stroke-width:0.8;" x="76.5" xlink:href="#m64370d8246" y="176.904"/>
      </g>
     </g>
     <g id="text_20">
      <!-- 0.7 -->
      <g transform="translate(53.596875 180.703219)scale(0.1 -0.1)">
       <use xlink:href="#DejaVuSans-48"/>
       <use x="63.623047" xlink:href="#DejaVuSans-46"/>
       <use x="95.410156" xlink:href="#DejaVuSans-55"/>
      </g>
     </g>
    </g>
    <g id="ytick_9">
     <g id="line2d_39">
      <path clip-path="url(#p7049384c2c)" d="M 76.5 138.096 
L 550.8 138.096 
" style="fill:none;stroke:#b0b0b0;stroke-linecap:square;stroke-width:0.8;"/>
     </g>
     <g id="line2d_40">
      <g>
       <use style="stroke:#000000;stroke-width:0.8;" x="76.5" xlink:href="#m64370d8246" y="138.096"/>
      </g>
     </g>
     <g id="text_21">
      <!-- 0.8 -->
      <g transform="translate(53.596875 141.895219)scale(0.1 -0.1)">
       <use xlink:href="#DejaVuSans-48"/>
       <use x="63.623047" xlink:href="#DejaVuSans-46"/>
       <use x="95.410156" xlink:href="#DejaVuSans-56"/>
      </g>
     </g>
    </g>
    <g id="ytick_10">
     <g id="line2d_41">
      <path clip-path="url(#p7049384c2c)" d="M 76.5 99.288 
L 550.8 99.288 
" style="fill:none;stroke:#b0b0b0;stroke-linecap:square;stroke-width:0.8;"/>
     </g>
     <g id="line2d_42">
      <g>
       <use style="stroke:#000000;stroke-width:0.8;" x="76.5" xlink:href="#m64370d8246" y="99.288"/>
      </g>
     </g>
     <g id="text_22">
      <!-- 0.9 -->
      <g transform="translate(53.596875 103.087219)scale(0.1 -0.1)">
       <use xlink:href="#DejaVuSans-48"/>
       <use x="63.623047" xlink:href="#DejaVuSans-46"/>
       <use x="95.410156" xlink:href="#DejaVuSans-57"/>
      </g>
     </g>
    </g>
    <g id="ytick_11">
     <g id="line2d_43">
      <path clip-path="url(#p7049384c2c)" d="M 76.5 60.48 
L 550.8 60.48 
" style="fill:none;stroke:#b0b0b0;stroke-linecap:square;stroke-width:0.8;"/>
     </g>
     <g id="line2d_44">
      <g>
       <use style="stroke:#000000;stroke-width:0.8;" x="76.5" xlink:href="#m64370d8246" y="60.48"/>
      </g>
     </g>
     <g id="text_23">
      <!-- 1.0 -->
      <g transform="translate(53.596875 64.279219)scale(0.1 -0.1)">
       <use xlink:href="#DejaVuSans-49"/>
       <use x="63.623047" xlink:href="#DejaVuSans-46"/>
       <use x="95.410156" xlink:href="#DejaVuSans-48"/>
      </g>
     </g>
    </g>
    <g id="text_24">
     <!-- #correct/1659 -->
     <defs>
      <path d="M 51.125 44 
L 36.921875 44 
L 32.8125 27.6875 
L 47.125 27.6875 
z
M 43.796875 71.78125 
L 38.71875 51.515625 
L 52.984375 51.515625 
L 58.109375 71.78125 
L 65.921875 71.78125 
L 60.890625 51.515625 
L 76.125 51.515625 
L 76.125 44 
L 58.984375 44 
L 54.984375 27.6875 
L 70.515625 27.6875 
L 70.515625 20.21875 
L 53.078125 20.21875 
L 48 0 
L 40.1875 0 
L 45.21875 20.21875 
L 30.90625 20.21875 
L 25.875 0 
L 18.015625 0 
L 23.09375 20.21875 
L 7.71875 20.21875 
L 7.71875 27.6875 
L 24.90625 27.6875 
L 29 44 
L 13.28125 44 
L 13.28125 51.515625 
L 30.90625 51.515625 
L 35.890625 71.78125 
z
" id="DejaVuSans-35"/>
      <path d="M 18.3125 70.21875 
L 18.3125 54.6875 
L 36.8125 54.6875 
L 36.8125 47.703125 
L 18.3125 47.703125 
L 18.3125 18.015625 
Q 18.3125 11.328125 20.140625 9.421875 
Q 21.96875 7.515625 27.59375 7.515625 
L 36.8125 7.515625 
L 36.8125 0 
L 27.59375 0 
Q 17.1875 0 13.234375 3.875 
Q 9.28125 7.765625 9.28125 18.015625 
L 9.28125 47.703125 
L 2.6875 47.703125 
L 2.6875 54.6875 
L 9.28125 54.6875 
L 9.28125 70.21875 
z
" id="DejaVuSans-116"/>
      <path d="M 25.390625 72.90625 
L 33.6875 72.90625 
L 8.296875 -9.28125 
L 0 -9.28125 
z
" id="DejaVuSans-47"/>
     </defs>
     <g transform="translate(47.517187 290.624688)rotate(-90)scale(0.1 -0.1)">
      <use xlink:href="#DejaVuSans-35"/>
      <use x="83.789062" xlink:href="#DejaVuSans-99"/>
      <use x="138.769531" xlink:href="#DejaVuSans-111"/>
      <use x="199.951172" xlink:href="#DejaVuSans-114"/>
      <use x="239.314453" xlink:href="#DejaVuSans-114"/>
      <use x="278.177734" xlink:href="#DejaVuSans-101"/>
      <use x="339.701172" xlink:href="#DejaVuSans-99"/>
      <use x="394.681641" xlink:href="#DejaVuSans-116"/>
      <use x="433.890625" xlink:href="#DejaVuSans-47"/>
      <use x="467.582031" xlink:href="#DejaVuSans-49"/>
      <use x="531.205078" xlink:href="#DejaVuSans-54"/>
      <use x="594.828125" xlink:href="#DejaVuSans-53"/>
      <use x="658.451172" xlink:href="#DejaVuSans-57"/>
     </g>
    </g>
   </g>
   <g id="line2d_45">
    <path clip-path="url(#p7049384c2c)" d="M 550.8 448.56 
L 313.65 448.326076 
L 234.6 448.092152 
L 361.08 448.092152 
L 313.65 447.858228 
L 408.51 447.858228 
L 378.327273 447.624304 
L 450.947368 447.624304 
L 432.225 447.39038 
L 437.871429 447.39038 
L 451.9875 447.39038 
L 427.833333 446.922532 
L 443.7 446.922532 
L 421.445455 446.454684 
L 425.25 446.454684 
L 444.0825 446.454684 
L 421.445455 445.752911 
L 439.2 445.752911 
L 432.225 445.518987 
L 434.462264 445.518987 
L 451.35 445.518987 
L 445.4 445.285063 
L 447.046875 445.285063 
L 455.94 445.285063 
L 445.4 444.817215 
L 446.843836 444.817215 
L 453.507692 444.817215 
L 448.735443 444.583291 
L 450.01125 444.583291 
L 464.1 444.583291 
L 459.976596 444.349367 
L 461.86875 444.349367 
L 466.271287 444.349367 
L 462.45 444.115443 
L 464.149038 444.115443 
L 468.875455 444.115443 
L 465.340541 443.881519 
L 466.853097 443.881519 
L 469.024138 443.881519 
L 463.114286 443.413671 
L 463.845 443.413671 
L 467.985714 443.413671 
L 463.236923 442.945823 
L 460.284733 442.711899 
L 461.645865 442.711899 
L 475.274522 442.711899 
L 472.750633 442.477975 
L 473.72625 442.477975 
L 478.26 442.477975 
L 475.910526 442.244051 
L 476.776301 442.244051 
L 478.038068 442.244051 
L 475.769492 442.010127 
L 476.607821 442.010127 
L 480.159574 442.010127 
L 478.02381 441.776203 
L 478.785864 441.776203 
L 480.979188 441.776203 
L 478.936364 441.542278 
L 479.655 441.542278 
L 489.73133 441.542278 
L 487.965385 441.308354 
L 488.760759 441.308354 
L 490.292593 441.308354 
L 488.596721 441.07443 
L 489.352227 441.07443 
L 489.845783 441.07443 
L 487.060079 440.606582 
L 487.311024 440.606582 
L 488.53668 440.606582 
L 486.951923 440.372658 
L 487.680228 440.372658 
L 489.76875 440.372658 
L 488.254945 440.138734 
L 488.934783 440.138734 
L 489.158123 440.138734 
L 486.2 439.670886 
L 486.887234 439.670886 
L 492.66 439.670886 
L 491.321865 439.436962 
L 491.890127 439.436962 
L 492.077143 439.436962 
L 490.762025 439.203038 
L 491.326646 439.203038 
L 493.309091 439.203038 
L 492.049849 438.969114 
L 492.577545 438.969114 
L 492.924107 438.969114 
L 491.688427 438.73519 
L 492.21 438.73519 
L 493.720917 438.73519 
L 492.528857 438.501266 
L 493.024079 438.501266 
L 493.349577 438.501266 
L 492.178652 438.267342 
L 492.668524 438.267342 
L 503.044394 438.267342 
L 501.438462 437.799494 
L 501.549887 437.799494 
L 502.423503 437.799494 
L 501.481195 437.56557 
L 501.913816 437.56557 
L 502.020788 437.56557 
L 498.667888 436.629873 
L 502.324449 436.629873 
L 499.881113 435.928101 
L 500.183004 435.928101 
L 502.475094 435.928101 
L 501.672881 435.694177 
L 502.040187 435.694177 
L 502.402041 435.694177 
L 501.613333 435.460253 
L 501.975 435.460253 
L 502.76962 435.460253 
L 502.000181 435.226329 
L 502.35 435.226329 
L 503.286643 435.226329 
L 502.537895 434.992405 
L 502.874216 434.992405 
L 509.055842 434.992405 
L 508.400455 434.758481 
L 508.719248 434.758481 
L 509.768182 434.758481 
L 508.119884 434.056709 
L 508.181739 434.056709 
L 508.910256 434.056709 
L 508.295164 433.822785 
L 508.595339 433.822785 
L 510.365765 433.822785 
L 509.418121 433.354937 
L 509.473592 433.354937 
L 510.288173 433.354937 
L 508.859298 432.653165 
L 509.29112 432.653165 
L 508.179974 432.185316 
L 508.451786 432.185316 
L 509.090201 432.185316 
L 508.113 431.717468 
L 508.272478 431.717468 
L 510.529245 431.717468 
L 510.018021 431.483544 
L 510.256792 431.483544 
L 511.588335 431.483544 
L 510.605085 431.015696 
L 510.830899 431.015696 
L 515.544797 431.015696 
L 515.110099 430.781772 
L 515.320866 430.781772 
L 516.534981 430.781772 
L 516.117094 430.547848 
L 516.313598 430.547848 
L 517.957284 430.547848 
L 517.560647 430.313924 
L 517.768393 430.313924 
L 517.973558 430.313924 
L 517.582181 430.08 
L 517.787048 430.08 
L 518.93801 430.08 
L 518.562107 429.846076 
L 518.752703 429.846076 
L 519.36338 429.846076 
L 518.996772 429.612152 
L 519.18 429.612152 
L 519.8175 429.612152 
L 519.460274 429.378228 
L 519.661009 429.378228 
L 522.514473 429.378228 
L 522.190334 429.144304 
L 522.376245 429.144304 
L 522.58 429.144304 
L 522.260458 428.91038 
L 522.443274 428.91038 
L 522.603822 428.91038 
L 522.288331 428.676456 
L 522.468658 428.676456 
L 523.796986 428.676456 
L 523.49759 428.442532 
L 523.661078 428.442532 
L 524.105105 428.442532 
L 523.812361 428.208608 
L 523.987719 428.208608 
L 524.331687 428.208608 
L 524.044615 427.974684 
L 524.215032 427.974684 
L 524.416688 427.974684 
L 524.133733 427.740759 
L 524.30113 427.740759 
L 525.583333 427.740759 
L 525.215353 427.272911 
L 525.89446 427.272911 
L 525.635294 427.038987 
L 525.793926 427.038987 
L 525.851115 427.038987 
L 525.352397 426.571139 
L 525.496822 426.571139 
L 526.276238 426.571139 
L 525.877833 426.103291 
L 525.932277 426.103291 
L 526.683051 426.103291 
L 526.444733 425.869367 
L 526.598474 425.869367 
L 527.704066 425.869367 
L 527.477672 425.635443 
L 527.628814 425.635443 
L 528.026164 425.635443 
L 527.805044 425.401519 
L 527.950511 425.401519 
L 528.257657 425.401519 
L 528.040883 425.167595 
L 528.181974 425.167595 
L 528.667476 425.167595 
L 528.456576 424.933671 
L 528.601529 424.933671 
L 529.565824 424.933671 
L 529.288375 424.465823 
L 529.307303 424.465823 
L 530.090844 424.465823 
L 529.898644 424.231899 
L 530.039394 424.231899 
L 530.65 424.231899 
L 530.464557 423.997975 
L 530.604745 423.997975 
L 530.686309 423.997975 
L 530.40205 423.530127 
L 530.459279 423.530127 
L 530.708907 423.530127 
L 530.470193 423.062278 
L 530.486169 423.062278 
L 530.823686 423.062278 
L 530.648204 422.828354 
L 530.779662 422.828354 
L 531.476667 422.828354 
L 531.081126 422.126582 
L 531.102867 422.126582 
L 531.310582 422.126582 
L 531.145256 421.892658 
L 531.280072 421.892658 
L 532.180785 421.892658 
L 531.964396 421.42481 
L 531.996582 421.42481 
L 532.015842 421.42481 
L 531.526041 420.489114 
L 532.083788 420.489114 
L 531.934024 420.25519 
L 532.063369 420.25519 
L 532.263081 420.25519 
L 532.115919 420.021266 
L 532.241758 420.021266 
L 532.592133 420.021266 
L 532.448663 419.787342 
L 532.574789 419.787342 
L 532.597535 419.787342 
L 532.455271 419.553418 
L 532.580297 419.553418 
L 532.999395 419.553418 
L 532.83193 419.08557 
L 532.848123 419.08557 
L 533.040178 419.08557 
L 532.904545 418.851646 
L 533.031239 418.851646 
L 534.224298 418.851646 
L 534.098377 418.617722 
L 534.221518 418.617722 
L 534.248637 418.617722 
L 534.123876 418.383797 
L 534.245698 418.383797 
L 534.343653 418.383797 
L 534.220543 418.149873 
L 534.344436 418.149873 
L 534.586747 418.149873 
L 534.466325 417.915949 
L 534.589903 417.915949 
L 535.10581 417.915949 
L 534.902344 417.448101 
L 534.997921 417.448101 
L 535.319779 417.448101 
L 535.094702 416.980253 
L 535.217011 416.980253 
L 535.251068 416.980253 
L 535.028374 416.512405 
L 535.149928 416.512405 
L 535.474741 416.512405 
L 535.265669 416.044557 
L 535.378316 416.044557 
L 535.661607 416.044557 
L 535.556198 415.810633 
L 535.677704 415.810633 
L 536.254107 415.810633 
L 536.153417 415.576709 
L 536.274305 415.576709 
L 536.479593 415.576709 
L 536.381118 415.342785 
L 536.50051 415.342785 
L 536.557962 415.342785 
L 536.460698 415.108861 
L 536.580943 415.108861 
L 536.938381 415.108861 
L 536.844299 414.874937 
L 536.963047 414.874937 
L 537.002182 414.874937 
L 536.90917 414.641013 
L 537.026016 414.641013 
L 537.135486 414.641013 
L 537.043981 414.407089 
L 537.163174 414.407089 
L 537.330286 414.407089 
L 537.240665 414.173165 
L 537.3583 414.173165 
L 537.514539 414.173165 
L 537.42671 413.939241 
L 537.545393 413.939241 
L 537.552897 413.939241 
L 537.394121 413.471392 
L 537.496896 413.471392 
L 537.516766 413.471392 
L 537.430707 413.237468 
L 537.546984 413.237468 
L 537.556786 413.237468 
L 537.39625 412.76962 
L 537.504306 412.76962 
L 537.548009 412.76962 
L 537.463831 412.535696 
L 537.579692 412.535696 
L 537.639243 412.535696 
L 537.55617 412.301772 
L 537.672054 412.301772 
L 537.850114 412.301772 
L 537.768862 412.067848 
L 537.884866 412.067848 
L 538.049561 412.067848 
L 537.981081 411.6 
L 538.00734 411.6 
L 538.113459 411.6 
L 538.035325 411.366076 
L 538.150939 411.366076 
L 538.402548 411.366076 
L 538.326627 411.132152 
L 538.442404 411.132152 
L 538.881043 411.132152 
L 538.808433 410.898228 
L 538.924059 410.898228 
L 538.962719 410.898228 
L 538.86378 410.43038 
L 538.935221 410.43038 
L 539.063109 410.43038 
L 538.935309 409.962532 
L 539.036961 409.962532 
L 539.183628 409.962532 
L 539.11496 409.728608 
L 539.230007 409.728608 
L 539.2402 409.728608 
L 539.13347 409.260759 
L 539.219939 409.260759 
L 539.310108 409.260759 
L 539.243382 409.026835 
L 539.35885 409.026835 
L 539.518269 409.026835 
L 539.45311 408.792911 
L 539.566927 408.792911 
L 539.911276 408.792911 
L 539.851188 408.325063 
L 539.900922 408.325063 
L 540.07431 408.325063 
L 539.970949 407.857215 
L 540.066719 407.857215 
L 540.407329 407.857215 
L 540.348917 407.623291 
L 540.462162 407.623291 
L 540.485286 407.623291 
L 540.416849 406.921519 
L 540.42578 406.921519 
L 540.819459 406.921519 
L 540.780753 406.453671 
L 540.822905 406.453671 
L 541.315054 406.453671 
L 541.298338 405.985823 
L 541.325453 405.985823 
L 541.424242 405.985823 
L 541.373751 405.751899 
L 541.487028 405.751899 
L 541.530788 405.751899 
L 541.481132 405.517975 
L 541.594177 405.517975 
L 542.44149 405.517975 
L 542.396868 405.284051 
L 542.509609 405.284051 
L 542.699418 405.284051 
L 542.699418 405.284051 
" style="fill:none;stroke:#1f77b4;stroke-linecap:square;stroke-width:2;"/>
   </g>
   <g id="line2d_46">
    <path clip-path="url(#p7049384c2c)" d="M 76.5 448.326076 
L 455.94 448.326076 
L 347.528571 447.858228 
L 432.225 447.858228 
L 381.407143 447.39038 
L 419.05 447.39038 
L 401.021053 447.156456 
L 408.51 447.156456 
L 421.445455 447.156456 
L 406.447826 446.922532 
L 412.4625 446.922532 
L 471.75 446.922532 
L 462.55814 446.688608 
L 466.48 446.688608 
L 474.912 446.688608 
L 467.1 446.454684 
L 470.258491 446.454684 
L 502.292045 446.454684 
L 492.83 445.986835 
L 494.7 445.986835 
L 495.296809 445.986835 
L 490.888421 445.752911 
L 492.722449 445.752911 
L 499.524324 445.752911 
L 495.747321 445.518987 
L 497.183478 445.518987 
L 509.966225 445.518987 
L 507.114474 445.285063 
L 508.234615 445.285063 
L 514.514754 445.285063 
L 512.134239 445.051139 
L 513.157143 445.051139 
L 520.265665 445.051139 
L 515.2275 444.349367 
L 515.375104 444.349367 
L 521.957432 444.349367 
L 520.457576 444.115443 
L 521.15625 444.115443 
L 521.253443 444.115443 
L 515.723151 443.179747 
L 516.05828 443.179747 
L 518.809091 443.179747 
L 517.515789 442.945823 
L 518.089655 442.945823 
L 520.765172 442.945823 
L 519.596053 442.711899 
L 520.160465 442.711899 
L 520.628244 442.711899 
L 519.501015 442.477975 
L 520.047382 442.477975 
L 520.868447 442.477975 
L 519.792494 442.244051 
L 520.309286 442.244051 
L 520.809133 442.244051 
L 518.960417 441.776203 
L 519.18 441.776203 
L 519.959865 441.776203 
L 518.967785 441.542278 
L 519.389404 441.542278 
L 519.732314 441.542278 
L 518.766667 441.308354 
L 519.18 441.308354 
L 519.382692 441.308354 
L 518.43838 441.07443 
L 518.847158 441.07443 
L 523.354069 441.07443 
L 522.547473 440.840506 
L 522.9 440.840506 
L 525.099015 440.840506 
L 524.363607 440.606582 
L 524.705825 440.606582 
L 526.217378 440.606582 
L 525.532877 440.372658 
L 525.874324 440.372658 
L 526.06006 440.372658 
L 525.030396 439.90481 
L 526.493767 439.90481 
L 525.871369 439.670886 
L 526.177869 439.670886 
L 529.006288 439.670886 
L 527.914596 439.203038 
L 528.187366 439.203038 
L 528.214286 439.203038 
L 527.67717 438.969114 
L 527.948884 438.969114 
L 528.999215 438.969114 
L 528.063211 438.501266 
L 528.23927 438.501266 
L 531.394767 438.501266 
L 530.962357 438.267342 
L 531.18609 438.267342 
L 531.862432 438.267342 
L 530.717027 437.56557 
L 530.842883 437.56557 
L 532.61721 437.56557 
L 531.874349 437.097722 
L 532.072603 437.097722 
L 532.132771 437.097722 
L 531.767095 436.863797 
L 531.963622 436.863797 
L 533.933001 436.863797 
L 533.607889 436.629873 
L 533.789241 436.629873 
L 534.175052 436.629873 
L 533.570459 436.162025 
L 533.722622 436.162025 
L 534.849556 436.162025 
L 534.558909 435.928101 
L 534.73212 435.928101 
L 534.742194 435.928101 
L 534.455075 435.694177 
L 534.62734 435.694177 
L 535.884906 435.694177 
L 535.525932 435.226329 
L 536.689823 435.226329 
L 536.449765 434.992405 
L 536.605263 434.992405 
L 537.215111 434.992405 
L 536.98771 434.758481 
L 537.136084 434.758481 
L 537.182628 434.758481 
L 536.870149 434.290633 
L 536.88355 434.290633 
L 536.970029 434.290633 
L 536.625 433.822785 
L 536.678592 433.822785 
L 536.823901 433.822785 
L 536.608696 433.588861 
L 536.759667 433.588861 
L 536.785596 433.588861 
L 536.573189 433.354937 
L 536.722603 433.354937 
L 536.862613 433.354937 
L 536.549731 432.887089 
L 536.594323 432.887089 
L 536.81316 432.887089 
L 536.610647 432.653165 
L 536.752787 432.653165 
L 536.758903 432.653165 
L 536.483053 432.185316 
L 536.50155 432.185316 
L 536.507706 432.185316 
L 536.218617 431.717468 
L 536.255877 431.717468 
L 536.439361 431.717468 
L 536.246028 431.483544 
L 536.385387 431.483544 
L 536.685079 431.483544 
L 536.386507 431.015696 
L 536.450464 431.015696 
L 536.622041 431.015696 
L 536.438725 430.781772 
L 536.574743 430.781772 
L 536.591565 430.781772 
L 536.410284 430.547848 
L 536.550644 430.547848 
L 536.617049 430.547848 
L 536.438432 430.313924 
L 536.576471 430.313924 
L 536.65262 430.313924 
L 536.317557 429.846076 
L 536.438153 429.846076 
L 537.229185 429.846076 
L 537.064462 429.612152 
L 537.195786 429.612152 
L 537.215028 429.612152 
L 537.052174 429.378228 
L 537.186909 429.378228 
L 537.220182 429.378228 
L 537.059372 429.144304 
L 537.192361 429.144304 
L 537.989424 429.144304 
L 537.723289 428.676456 
L 537.820122 428.676456 
L 538.283545 428.676456 
L 538.08379 428.208608 
L 538.126751 428.208608 
L 538.303301 428.208608 
L 538.112083 427.740759 
L 538.150105 427.740759 
L 538.770162 427.740759 
L 538.638462 427.506835 
L 538.765323 427.506835 
L 539.225434 427.506835 
L 539.1 427.272911 
L 539.225503 427.272911 
L 539.624107 427.272911 
L 539.341712 426.571139 
L 539.388636 426.571139 
L 539.420674 426.571139 
L 539.302552 426.337215 
L 539.424464 426.337215 
L 540.084542 426.337215 
L 539.974322 426.103291 
L 540.096474 426.103291 
L 540.2159 426.103291 
L 540.108134 425.869367 
L 540.228516 425.869367 
L 540.421678 425.869367 
L 540.241039 425.401519 
L 540.332835 425.401519 
L 540.335168 425.401519 
L 540.220428 424.933671 
L 540.248392 424.933671 
L 540.319952 424.933671 
L 540.218504 424.699747 
L 540.3375 424.699747 
L 540.74417 424.699747 
L 540.618947 424.231899 
L 540.671211 424.231899 
L 540.869016 424.231899 
L 540.775543 423.997975 
L 540.895167 423.997975 
L 541.185811 423.997975 
L 541.09612 423.764051 
L 541.214528 423.764051 
L 541.319366 423.764051 
L 541.231731 423.530127 
L 541.34933 423.530127 
L 541.422672 423.530127 
L 541.336782 423.296203 
L 541.454187 423.296203 
L 541.461003 423.296203 
L 541.329497 422.828354 
L 541.409611 422.828354 
L 542.075418 422.828354 
L 541.953772 422.360506 
L 542.035506 422.360506 
L 542.091541 422.360506 
L 541.975457 421.658734 
L 541.978311 421.658734 
L 541.993978 421.658734 
L 541.888309 421.190886 
L 541.959296 421.190886 
L 542.058176 421.190886 
L 541.984848 420.956962 
L 542.099953 420.956962 
L 542.27618 420.956962 
L 542.167208 420.489114 
L 542.250203 420.489114 
L 542.308877 420.489114 
L 542.239394 420.25519 
L 542.355283 420.25519 
L 542.531696 420.25519 
L 542.310954 419.319494 
L 542.37848 419.319494 
L 542.455524 419.319494 
L 542.426897 418.851646 
L 542.439681 418.851646 
L 542.514429 418.851646 
L 542.450337 418.617722 
L 542.564731 418.617722 
L 542.683636 418.617722 
L 542.572218 418.149873 
L 542.673072 418.149873 
L 543.298905 418.149873 
L 543.242124 417.915949 
L 543.356212 417.915949 
L 543.468637 417.915949 
L 543.415755 417.214177 
L 543.41747 417.214177 
L 543.537264 417.214177 
L 543.437279 416.746329 
L 543.544117 416.746329 
L 543.569331 416.746329 
L 543.473674 416.278481 
L 543.577954 416.278481 
L 543.597821 416.278481 
L 543.54643 416.044557 
L 543.659558 416.044557 
L 543.813913 416.044557 
L 543.764399 415.810633 
L 543.877356 415.810633 
L 544.66983 415.810633 
L 544.66983 415.810633 
" style="fill:none;stroke:#ff7f0e;stroke-linecap:square;stroke-width:2;"/>
   </g>
   <g id="line2d_47">
    <path clip-path="url(#p7049384c2c)" d="M 76.5 448.326076 
L 76.5 447.858228 
L 195.075 447.858228 
L 155.55 447.39038 
L 135.7875 446.922532 
L 181.9 446.922532 
L 171.36 446.688608 
L 205.854545 446.688608 
L 195.075 446.454684 
L 222.438462 446.454684 
L 195.075 445.752911 
L 176.352632 445.051139 
L 195.075 445.051139 
L 189.428571 444.817215 
L 220.852174 444.817215 
L 214.8375 444.583291 
L 240.680769 444.583291 
L 218.79 443.647595 
L 229.5 443.647595 
L 220.227273 443.179747 
L 247.775 443.179747 
L 243.145946 442.945823 
L 258.923077 442.945823 
L 250.02439 442.477975 
L 257.185714 442.477975 
L 248.972727 442.010127 
L 255.68 442.010127 
L 248.055319 441.542278 
L 254.3625 441.542278 
L 240.680769 440.606582 
L 252.166667 440.606582 
L 245.892857 440.138734 
L 251.242105 440.138734 
L 248.22931 439.90481 
L 253.357627 439.90481 
L 250.41 439.670886 
L 255.334426 439.670886 
L 241.786364 438.501266 
L 246.398507 438.501266 
L 236.826761 437.56557 
L 265.003846 437.56557 
L 258.022222 436.863797 
L 268.478571 436.863797 
L 266.22 436.629873 
L 269.52907 436.629873 
L 267.310345 436.395949 
L 273.680899 436.395949 
L 269.347253 435.928101 
L 275.4 435.928101 
L 273.284043 435.694177 
L 279.065625 435.694177 
L 276.97732 435.460253 
L 279.771429 435.460253 
L 277.718182 435.226329 
L 283.125743 435.226329 
L 281.1 434.992405 
L 283.718447 434.992405 
L 279.771429 434.524557 
L 282.328302 434.524557 
L 278.516667 434.056709 
L 281.014679 434.056709 
L 270.344348 432.653165 
L 277.474576 432.653165 
L 275.785714 432.419241 
L 278.0775 432.419241 
L 273.160976 431.717468 
L 281.905512 431.717468 
L 278.72093 431.24962 
L 280.813846 431.24962 
L 279.254198 431.015696 
L 281.311364 431.015696 
L 279.771429 430.781772 
L 281.79403 430.781772 
L 272.995714 429.378228 
L 274.965957 429.378228 
L 266.865306 427.974684 
L 268.783784 427.974684 
L 267.493289 427.740759 
L 271.245695 427.740759 
L 269.964474 427.506835 
L 273.611688 427.506835 
L 268.621519 426.571139 
L 272.14875 426.571139 
L 270.93354 426.337215 
L 274.367485 426.337215 
L 273.160976 426.103291 
L 276.506024 426.103291 
L 275.308383 425.869367 
L 278.568639 425.869367 
L 277.38 425.635443 
L 282.121387 425.635443 
L 278.616477 424.933671 
L 281.674719 424.933671 
L 280.528492 424.699747 
L 283.514917 424.699747 
L 282.377473 424.465823 
L 286.73027 424.465823 
L 279.065625 422.828354 
L 284.611224 422.828354 
L 283.554822 422.59443 
L 287.5635 422.59443 
L 283.425 421.658734 
L 286.020874 421.658734 
L 285.008696 421.42481 
L 290.047393 421.42481 
L 288.042254 420.956962 
L 290.486512 420.956962 
L 288.514286 420.489114 
L 289.717431 420.489114 
L 288.743836 420.25519 
L 294.593304 420.25519 
L 293.624 420.021266 
L 294.761947 420.021266 
L 293.800441 419.787342 
L 296.044978 419.787342 
L 295.090435 419.553418 
L 298.382833 419.553418 
L 296.494468 419.08557 
L 299.7 419.08557 
L 298.766109 418.851646 
L 300.857676 418.851646 
L 299.930579 418.617722 
L 300.962963 418.617722 
L 300.043033 418.383797 
L 302.081707 418.383797 
L 301.168421 418.149873 
L 305.146614 418.149873 
L 304.239286 417.915949 
L 312.741379 417.915949 
L 311.839695 417.682025 
L 313.65 417.682025 
L 312.755094 417.448101 
L 316.294796 417.448101 
L 315.406667 417.214177 
L 316.275277 417.214177 
L 314.518681 416.746329 
L 316.237091 416.746329 
L 314.506137 416.278481 
L 315.356115 416.278481 
L 314.5 416.044557 
L 315.343929 416.044557 
L 314.49395 415.810633 
L 315.331915 415.810633 
L 313.65 415.342785 
L 314.482105 415.342785 
L 313.65 415.108861 
L 315.296875 415.108861 
L 313.65 414.641013 
L 315.274315 414.641013 
L 312.846102 413.939241 
L 315.241611 413.939241 
L 313.65 413.471392 
L 314.437874 413.471392 
L 312.867327 413.003544 
L 314.427541 413.003544 
L 312.877524 412.535696 
L 315.937621 412.535696 
L 315.170192 412.301772 
L 315.923003 412.301772 
L 315.16051 412.067848 
L 317.390536 412.067848 
L 316.633019 411.833924 
L 317.367085 411.833924 
L 316.614375 411.6 
L 317.343925 411.6 
L 316.595963 411.366076 
L 318.041667 411.366076 
L 317.298462 411.132152 
L 320.836364 411.132152 
L 320.098187 410.898228 
L 320.793072 410.898228 
L 320.059459 410.664304 
L 322.119643 410.664304 
L 319.946018 409.962532 
L 323.96087 409.962532 
L 323.245665 409.728608 
L 323.901441 409.728608 
L 323.190517 409.494684 
L 326.414448 409.494684 
L 324.308427 408.792911 
L 326.825 408.792911 
L 325.441989 408.325063 
L 326.06281 408.325063 
L 324.695342 407.857215 
L 325.92752 407.857215 
L 325.249728 407.623291 
L 330.04867 407.623291 
L 328.041689 406.921519 
L 329.791099 406.921519 
L 329.129765 406.687595 
L 333.665217 406.687595 
L 333.009184 406.453671 
L 333.563359 406.453671 
L 332.910914 406.219747 
L 333.462532 406.219747 
L 332.813636 405.985823 
L 334.452632 405.985823 
L 333.80775 405.751899 
L 334.348878 405.751899 
L 333.069231 405.284051 
L 334.678079 405.284051 
L 334.043735 405.050127 
L 337.708696 405.050127 
L 337.079277 404.816203 
L 339.623571 404.816203 
L 338.998575 404.582278 
L 341.484507 404.582278 
L 340.863934 404.348354 
L 343.772979 404.348354 
L 342.544138 403.880506 
L 345.842308 403.880506 
L 345.234312 403.646582 
L 347.981292 403.646582 
L 347.378 403.412658 
L 348.278097 403.412658 
L 347.678146 403.178734 
L 348.570989 403.178734 
L 347.974342 402.94481 
L 348.418162 402.94481 
L 347.824454 402.710886 
L 349.145336 402.710886 
L 348.555195 402.476962 
L 354.090316 402.476962 
L 353.507143 402.243038 
L 355.15125 402.243038 
L 354.571933 402.009114 
L 354.979046 402.009114 
L 354.402484 401.77519 
L 355.614815 401.77519 
L 355.041684 401.541266 
L 357.424138 401.541266 
L 356.855466 401.307342 
L 357.247273 401.307342 
L 354.4398 400.137722 
L 359.788132 400.137722 
L 359.238058 399.903797 
L 360.34749 399.903797 
L 359.255769 399.435949 
L 362.157955 399.435949 
L 361.617958 399.202025 
L 363.389326 399.202025 
L 362.853084 398.968101 
L 365.9625 398.968101 
L 364.902198 398.500253 
L 365.242048 398.500253 
L 364.715146 398.266329 
L 366.397649 398.266329 
L 365.874368 398.032405 
L 367.528444 398.032405 
L 367.00875 397.798481 
L 368.312234 397.798481 
L 367.795752 397.564557 
L 368.762324 397.564557 
L 368.248682 397.330633 
L 370.467188 397.330633 
L 369.45 396.862785 
L 370.696392 396.862785 
L 370.191767 396.628861 
L 371.116382 396.628861 
L 370.61448 396.394937 
L 371.226316 396.394937 
L 370.72678 396.161013 
L 371.335135 396.161013 
L 370.837943 395.927089 
L 372.342642 395.927089 
L 371.848748 395.693165 
L 376.220521 395.693165 
L 375.733171 395.459241 
L 379.901429 395.459241 
L 379.420602 395.225316 
L 384.173806 395.225316 
L 383.700462 394.991392 
L 384.468147 394.991392 
L 383.997248 394.757468 
L 392.470537 394.757468 
L 392.012609 394.523544 
L 392.242402 394.523544 
L 392.471532 394.523544 
L 392.015584 394.28962 
L 392.24438 394.28962 
L 392.926829 394.28962 
L 392.473496 394.055696 
L 392.7 394.055696 
L 394.267564 394.055696 
L 393.818105 393.821772 
L 394.039831 393.821772 
L 395.574545 393.821772 
L 394.45911 393.12 
L 395.108726 393.12 
L 394.66805 392.886076 
L 394.883702 392.886076 
L 400.2888 392.886076 
L 399.857656 392.652152 
L 400.058378 392.652152 
L 405.096015 392.652152 
L 404.674198 392.418228 
L 404.861538 392.418228 
L 408.331915 392.418228 
L 407.917125 392.184304 
L 408.095506 392.184304 
L 408.273441 392.184304 
L 407.448134 391.716456 
L 407.626211 391.716456 
L 409.729131 391.716456 
L 409.32176 391.482532 
L 409.494505 391.482532 
L 409.838733 391.482532 
L 409.433212 391.248608 
L 409.604982 391.248608 
L 409.947273 391.248608 
L 409.543584 391.014684 
L 409.714389 391.014684 
L 411.566348 391.014684 
L 411.166985 390.780759 
L 411.333214 390.780759 
L 416.297015 390.780759 
L 415.907339 390.546835 
L 416.061856 390.546835 
L 416.216018 390.546835 
L 415.827771 390.312911 
L 415.981849 390.312911 
L 418.102584 390.312911 
L 417.719192 390.078987 
L 417.868386 390.078987 
L 418.165772 390.078987 
L 417.784022 389.845063 
L 417.932478 389.845063 
L 419.108296 389.845063 
L 418.351987 389.377215 
L 418.498015 389.377215 
L 419.223355 389.377215 
L 418.847974 389.143291 
L 418.992341 389.143291 
L 420.700432 389.143291 
L 420.329126 388.909367 
L 420.46972 388.909367 
L 421.445455 388.909367 
L 421.076923 388.675443 
L 421.215368 388.675443 
L 421.628936 388.675443 
L 420.668962 387.973671 
L 422.302406 387.973671 
L 421.941066 387.739747 
L 422.075574 387.739747 
L 424.578915 387.739747 
L 423.643119 387.037975 
L 423.901831 387.037975 
L 423.54878 386.804051 
L 423.67797 386.804051 
L 424.955578 386.804051 
L 424.605723 386.570127 
L 424.732297 386.570127 
L 428.771359 386.570127 
L 428.088663 386.102278 
L 428.207454 386.102278 
L 432.002533 386.102278 
L 431.669353 385.868354 
L 431.780899 385.868354 
L 433.645714 385.868354 
L 433.096875 385.400506 
L 434.697552 385.400506 
L 434.154792 384.932658 
L 435.612857 384.932658 
L 435.292507 384.698734 
L 435.395455 384.698734 
L 437.515748 384.698734 
L 437.200175 384.46481 
L 437.299389 384.46481 
L 437.595993 384.46481 
L 437.281723 384.230886 
L 437.380435 384.230886 
L 437.478975 384.230886 
L 437.165625 383.996962 
L 437.26418 383.996962 
L 438.143546 383.996962 
L 437.832588 383.763038 
L 437.929639 383.763038 
L 439.836233 383.763038 
L 439.317523 383.29519 
L 441.436612 383.29519 
L 441.13526 383.061266 
L 441.316076 383.061266 
L 441.765517 383.061266 
L 441.465874 382.827342 
L 441.644963 382.827342 
L 441.823467 382.827342 
L 441.525 382.593418 
L 441.703263 382.593418 
L 441.969569 382.593418 
L 441.672439 382.359494 
L 441.849594 382.359494 
L 442.377625 382.359494 
L 442.082324 382.12557 
L 442.257534 382.12557 
L 445.234796 382.12557 
L 444.946045 381.891646 
L 445.111572 381.891646 
L 447.137807 381.891646 
L 446.570214 381.423797 
L 446.729587 381.423797 
L 449.592491 381.423797 
L 449.315305 381.189873 
L 449.465875 381.189873 
L 451.815652 381.189873 
L 451.543881 380.955949 
L 451.687419 380.955949 
L 452.469512 380.955949 
L 452.2 380.722025 
L 452.34116 380.722025 
L 452.971408 380.722025 
L 452.703838 380.488101 
L 452.84308 380.488101 
L 454.885268 380.488101 
L 454.6225 380.254177 
L 454.755895 380.254177 
L 455.219876 380.254177 
L 454.95869 380.020253 
L 455.090702 380.020253 
L 456.391101 380.020253 
L 456.133198 379.786329 
L 456.261559 379.786329 
L 459.301181 379.786329 
L 459.050164 379.552405 
L 459.170334 379.552405 
L 460.237864 379.552405 
L 459.989651 379.318481 
L 460.106977 379.318481 
L 460.282398 379.318481 
L 459.600193 378.616709 
L 459.658805 378.616709 
L 460.066987 378.616709 
L 459.821739 378.382785 
L 459.937931 378.382785 
L 460.686004 378.382785 
L 460.442848 378.148861 
L 460.55708 378.148861 
L 462.071411 378.148861 
L 461.592737 377.681013 
L 461.703348 377.681013 
L 461.978677 377.681013 
L 461.083364 376.745316 
L 461.138608 376.745316 
L 462.551455 376.745316 
L 462.317626 376.511392 
L 462.424682 376.511392 
L 462.584783 376.511392 
L 462.119059 376.043544 
L 462.225904 376.043544 
L 462.385689 376.043544 
L 462.153786 375.80962 
L 462.260204 375.80962 
L 463.102438 375.80962 
L 462.872727 375.575696 
L 462.977092 375.575696 
L 463.18508 375.575696 
L 462.956272 375.341772 
L 463.060106 375.341772 
L 464.738609 375.341772 
L 464.513673 375.107848 
L 464.663389 375.107848 
L 464.961268 375.107848 
L 464.563636 374.64 
L 464.662759 374.64 
L 465.398974 374.64 
L 465.177506 374.406076 
L 465.323536 374.406076 
L 465.614108 374.406076 
L 465.393771 374.172152 
L 465.538609 374.172152 
L 467.239114 374.172152 
L 466.899502 373.704304 
L 466.945856 373.704304 
L 467.314851 373.704304 
L 467.1 373.47038 
L 467.237816 373.47038 
L 467.693941 373.47038 
L 467.480524 373.236456 
L 467.616667 373.236456 
L 468.997858 373.236456 
L 468.787741 373.002532 
L 468.919241 373.002532 
L 469.527374 373.002532 
L 469.318982 372.768608 
L 469.448385 372.768608 
L 469.919368 372.768608 
L 469.633701 372.300759 
L 470.057546 372.300759 
L 469.85214 372.066835 
L 469.978687 372.066835 
L 470.104839 372.066835 
L 469.737818 371.598987 
L 469.821951 371.598987 
L 470.777077 371.598987 
L 470.574987 371.365063 
L 470.698158 371.365063 
L 470.73913 371.365063 
L 470.537577 371.131139 
L 470.66049 371.131139 
L 472.420919 371.131139 
L 472.223353 370.897215 
L 472.340807 370.897215 
L 472.496867 370.897215 
L 472.30005 370.663291 
L 472.416923 370.663291 
L 473.11092 370.663291 
L 472.915929 370.429367 
L 473.030633 370.429367 
L 473.259031 370.429367 
L 472.871002 369.961519 
L 472.985156 369.961519 
L 473.061073 369.961519 
L 472.867723 369.727595 
L 472.981548 369.727595 
L 473.657577 369.727595 
L 473.465991 369.493671 
L 473.577746 369.493671 
L 473.874184 369.493671 
L 473.683597 369.259747 
L 473.794397 369.259747 
L 474.088311 369.259747 
L 473.746022 368.791899 
L 473.819372 368.791899 
L 474.184036 368.791899 
L 473.995739 368.557975 
L 474.104681 368.557975 
L 475.806657 368.557975 
L 475.622135 368.324051 
L 475.760839 368.324051 
L 477.716038 368.324051 
L 477.535878 368.090127 
L 477.667234 368.090127 
L 478.058493 368.090127 
L 477.733304 367.622278 
L 477.830769 367.622278 
L 478.314223 367.622278 
L 478.136821 367.388354 
L 478.264918 367.388354 
L 478.296872 367.388354 
L 478.119947 367.15443 
L 478.247736 367.15443 
L 479.777453 367.15443 
L 479.604 366.920506 
L 479.726277 366.920506 
L 480.837743 366.920506 
L 480.66692 366.686582 
L 480.785238 366.686582 
L 482.231227 366.686582 
L 482.063708 366.452658 
L 482.17704 366.452658 
L 482.261795 366.452658 
L 482.094815 366.218734 
L 482.207724 366.218734 
L 483.09781 366.218734 
L 482.932996 365.98481 
L 483.042857 365.98481 
L 484.570609 365.98481 
L 484.409253 365.750886 
L 484.540253 365.750886 
L 484.592508 365.750886 
L 484.431652 365.516962 
L 484.562195 365.516962 
L 484.640275 365.516962 
L 484.479969 365.283038 
L 484.609957 365.283038 
L 484.894145 365.283038 
L 484.734803 365.049114 
L 484.863435 365.049114 
L 485.32239 365.049114 
L 485.16436 364.81519 
L 485.290972 364.81519 
L 486.555051 364.81519 
L 486.399962 364.581266 
L 486.521518 364.581266 
L 487.642099 364.581266 
L 487.489655 364.347342 
L 487.60681 364.347342 
L 487.932548 364.347342 
L 487.781119 364.113418 
L 487.896877 364.113418 
L 488.986895 364.113418 
L 488.838037 363.879494 
L 488.94964 363.879494 
L 490.322156 363.879494 
L 490.176444 363.64557 
L 490.304252 363.64557 
L 490.367954 363.64557 
L 490.060392 362.943797 
L 490.79523 362.943797 
L 490.652073 362.709873 
L 490.776517 362.709873 
L 491.228439 362.709873 
L 491.086555 362.475949 
L 491.208877 362.475949 
L 491.431837 362.475949 
L 491.290751 362.242025 
L 491.41191 362.242025 
L 491.75253 362.242025 
L 491.612479 362.008101 
L 491.732009 362.008101 
L 491.83125 362.008101 
L 491.611942 361.540253 
L 491.671448 361.540253 
L 492.950951 361.540253 
L 492.814454 361.306329 
L 492.928263 361.306329 
L 493.267024 361.306329 
L 493.131534 361.072405 
L 493.243803 361.072405 
L 493.596453 361.072405 
L 493.364638 360.604557 
L 493.438533 360.604557 
L 493.75048 360.604557 
L 493.556897 360.136709 
L 493.593427 360.136709 
L 493.702739 360.136709 
L 493.569914 359.902785 
L 493.697173 359.902785 
L 495.008659 359.902785 
L 494.878809 359.668861 
L 495 359.668861 
L 495.086244 359.668861 
L 494.956891 359.434937 
L 495.077428 359.434937 
L 495.163208 359.434937 
L 495.034349 359.201013 
L 495.154238 359.201013 
L 495.205462 359.201013 
L 495 358.733165 
L 495.068299 358.733165 
L 495.440973 358.733165 
L 495.313674 358.499241 
L 495.431443 358.499241 
L 495.515259 358.499241 
L 495.388438 358.265316 
L 495.505587 358.265316 
L 495.622242 358.265316 
L 495.469753 357.797468 
L 495.486384 357.797468 
L 495.767584 357.797468 
L 495.642242 357.563544 
L 495.757428 357.563544 
L 496.035174 357.563544 
L 495.910682 357.32962 
L 496.02446 357.32962 
L 496.202302 357.32962 
L 496.07846 357.095696 
L 496.191254 357.095696 
L 496.271538 357.095696 
L 496.148148 356.861772 
L 496.26037 356.861772 
L 496.515153 356.861772 
L 496.392557 356.627848 
L 496.503495 356.627848 
L 496.724021 356.627848 
L 496.602146 356.393924 
L 496.711954 356.393924 
L 497.300372 356.393924 
L 497.179937 356.16 
L 497.302427 356.16 
L 497.651489 356.16 
L 497.473152 355.692152 
L 497.533494 355.692152 
L 497.668764 355.692152 
L 497.549958 355.458228 
L 497.669856 355.458228 
L 497.996811 355.458228 
L 497.878943 355.224304 
L 497.99707 355.224304 
L 498.158637 355.224304 
L 497.938883 354.756456 
L 498.041526 354.756456 
L 498.862725 354.756456 
L 498.74742 354.522532 
L 498.860855 354.522532 
L 499.531218 354.522532 
L 499.41432 354.054684 
L 500.387687 354.054684 
L 500.276197 353.820759 
L 500.395513 353.820759 
L 501.125446 353.820759 
L 501.015667 353.586835 
L 501.131235 353.586835 
L 501.512618 353.586835 
L 501.396273 353.118987 
L 501.408882 353.118987 
L 501.459255 353.118987 
L 501.35093 352.885063 
L 501.464115 352.885063 
L 501.514253 352.885063 
L 501.406299 352.651139 
L 501.518956 352.651139 
L 501.829212 352.651139 
L 501.72213 352.417215 
L 501.833082 352.417215 
L 502.053488 352.417215 
L 501.926272 351.949367 
L 501.950648 351.949367 
L 502.847515 351.949367 
L 502.743172 351.715443 
L 502.860498 351.715443 
L 503.070248 351.715443 
L 502.966586 351.481519 
L 503.082545 351.481519 
L 504.540423 351.481519 
L 504.43985 351.247595 
L 504.559363 351.247595 
L 504.785821 351.247595 
L 504.685964 351.013671 
L 504.80393 351.013671 
L 504.953199 351.013671 
L 504.853905 350.779747 
L 504.970735 350.779747 
L 505.731257 350.779747 
L 505.633705 350.545823 
L 505.746339 350.545823 
L 505.787157 350.545823 
L 505.689946 350.311899 
L 505.802033 350.311899 
L 506.214951 350.311899 
L 506.118796 350.077975 
L 506.238451 350.077975 
L 506.307955 350.077975 
L 506.166207 349.610127 
L 506.235606 349.610127 
L 506.908313 349.610127 
L 506.835442 349.142278 
L 506.845028 349.142278 
L 506.772587 348.67443 
L 507.123895 348.67443 
L 507.031048 348.440506 
L 507.144 348.440506 
L 507.20962 348.440506 
L 507.117153 348.206582 
L 507.2294 348.206582 
L 507.479859 348.206582 
L 507.388123 347.972658 
L 507.498726 347.972658 
L 507.836233 347.972658 
L 507.745388 347.738734 
L 507.862949 347.738734 
L 509.004191 347.738734 
L 508.915781 347.50481 
L 509.026789 347.50481 
L 509.162609 347.50481 
L 509.074705 347.270886 
L 509.193051 347.270886 
L 509.394375 347.270886 
L 509.307116 347.036962 
L 509.423879 347.036962 
L 509.92506 347.036962 
L 509.839011 346.803038 
L 509.952544 346.803038 
L 510.939007 346.803038 
L 510.85509 346.569114 
L 510.970493 346.569114 
L 511.016468 346.569114 
L 510.932891 346.33519 
L 511.047583 346.33519 
L 513.004759 346.33519 
L 512.925178 346.101266 
L 513.042203 346.101266 
L 513.382241 346.101266 
L 513.303566 345.867342 
L 513.418007 345.867342 
L 514.180637 345.867342 
L 514.136319 345.399494 
L 514.142744 345.399494 
L 514.543058 345.399494 
L 514.422767 344.931646 
L 514.504457 344.931646 
L 514.516992 344.931646 
L 514.441367 344.697722 
L 514.55401 344.697722 
L 515.173338 344.697722 
L 515.109465 344.229873 
L 515.139548 344.229873 
L 516.448295 344.229873 
L 516.376863 343.995949 
L 516.488283 343.995949 
L 516.626547 343.995949 
L 516.550933 343.528101 
L 516.600434 343.528101 
L 516.671683 343.528101 
L 516.601154 343.294177 
L 516.715842 343.294177 
L 516.726724 343.294177 
L 516.656457 343.060253 
L 516.770522 343.060253 
L 516.996381 343.060253 
L 516.926781 342.826329 
L 517.038803 342.826329 
L 518.209 342.826329 
L 518.14186 342.592405 
L 518.255635 342.592405 
L 518.309769 342.592405 
L 518.259816 342.124557 
L 518.289229 342.124557 
L 518.323476 342.124557 
L 518.256997 341.890633 
L 518.369231 341.890633 
L 518.79633 341.890633 
L 518.730892 341.656709 
L 518.844361 341.656709 
L 518.896099 341.656709 
L 518.822371 341.188861 
L 518.878636 341.188861 
L 519.009156 341.188861 
L 518.958978 340.721013 
L 518.991402 340.721013 
L 520.511553 340.721013 
L 520.450055 340.487089 
L 520.56313 340.487089 
L 521.656949 340.487089 
L 521.597753 340.253165 
L 521.709935 340.253165 
L 522.018755 340.253165 
L 521.960372 340.019241 
L 522.073306 340.019241 
L 522.107014 340.019241 
L 522.004095 339.317468 
L 522.045216 339.317468 
L 522.104819 339.317468 
L 521.993124 338.84962 
L 522.100903 338.84962 
L 522.123102 338.84962 
L 522.065661 338.615696 
L 522.180023 338.615696 
L 522.198383 338.615696 
L 522.141206 338.381772 
L 522.254728 338.381772 
L 523.345742 338.381772 
L 523.290833 338.147848 
L 523.401934 338.147848 
L 523.528761 338.147848 
L 523.474312 337.913924 
L 523.587009 337.913924 
L 523.6068 337.913924 
L 523.541379 337.446076 
L 523.610463 337.446076 
L 523.656325 337.446076 
L 523.602458 337.212152 
L 523.713401 337.212152 
L 524.639305 337.212152 
L 524.587383 336.978228 
L 524.699273 336.978228 
L 524.964543 336.978228 
L 524.897629 336.51038 
L 524.974184 336.51038 
L 525.412839 336.51038 
L 525.362682 336.276456 
L 525.475862 336.276456 
L 526.754373 336.276456 
L 526.758292 335.808608 
L 526.770927 335.808608 
L 528.036623 335.808608 
L 527.991667 335.574684 
L 528.104646 335.574684 
L 528.236531 335.574684 
L 528.161049 334.872911 
L 528.214286 334.872911 
L 528.220923 334.872911 
L 528.17668 334.638987 
L 528.289124 334.638987 
L 528.328544 334.638987 
L 528.284591 334.405063 
L 528.395741 334.405063 
L 528.796159 334.405063 
L 528.753165 334.171139 
L 528.865756 334.171139 
L 529.388192 334.171139 
L 529.388192 334.171139 
" style="fill:none;stroke:#2ca02c;stroke-linecap:square;stroke-width:2;"/>
   </g>
   <g id="patch_3">
    <path d="M 76.5 448.56 
L 76.5 60.48 
" style="fill:none;stroke:#000000;stroke-linecap:square;stroke-linejoin:miter;stroke-width:0.8;"/>
   </g>
   <g id="patch_4">
    <path d="M 550.8 448.56 
L 550.8 60.48 
" style="fill:none;stroke:#000000;stroke-linecap:square;stroke-linejoin:miter;stroke-width:0.8;"/>
   </g>
   <g id="patch_5">
    <path d="M 76.5 448.56 
L 550.8 448.56 
" style="fill:none;stroke:#000000;stroke-linecap:square;stroke-linejoin:miter;stroke-width:0.8;"/>
   </g>
   <g id="patch_6">
    <path d="M 76.5 60.48 
L 550.8 60.48 
" style="fill:none;stroke:#000000;stroke-linecap:square;stroke-linejoin:miter;stroke-width:0.8;"/>
   </g>
   <g id="text_25">
    <!-- wall: img1-img6 -->
    <defs>
     <path d="M 4.203125 54.6875 
L 13.1875 54.6875 
L 24.421875 12.015625 
L 35.59375 54.6875 
L 46.1875 54.6875 
L 57.421875 12.015625 
L 68.609375 54.6875 
L 77.59375 54.6875 
L 63.28125 0 
L 52.6875 0 
L 40.921875 44.828125 
L 29.109375 0 
L 18.5 0 
z
" id="DejaVuSans-119"/>
     <path d="M 34.28125 27.484375 
Q 23.390625 27.484375 19.1875 25 
Q 14.984375 22.515625 14.984375 16.5 
Q 14.984375 11.71875 18.140625 8.90625 
Q 21.296875 6.109375 26.703125 6.109375 
Q 34.1875 6.109375 38.703125 11.40625 
Q 43.21875 16.703125 43.21875 25.484375 
L 43.21875 27.484375 
z
M 52.203125 31.203125 
L 52.203125 0 
L 43.21875 0 
L 43.21875 8.296875 
Q 40.140625 3.328125 35.546875 0.953125 
Q 30.953125 -1.421875 24.3125 -1.421875 
Q 15.921875 -1.421875 10.953125 3.296875 
Q 6 8.015625 6 15.921875 
Q 6 25.140625 12.171875 29.828125 
Q 18.359375 34.515625 30.609375 34.515625 
L 43.21875 34.515625 
L 43.21875 35.40625 
Q 43.21875 41.609375 39.140625 45 
Q 35.0625 48.390625 27.6875 48.390625 
Q 23 48.390625 18.546875 47.265625 
Q 14.109375 46.140625 10.015625 43.890625 
L 10.015625 52.203125 
Q 14.9375 54.109375 19.578125 55.046875 
Q 24.21875 56 28.609375 56 
Q 40.484375 56 46.34375 49.84375 
Q 52.203125 43.703125 52.203125 31.203125 
z
" id="DejaVuSans-97"/>
     <path d="M 9.421875 75.984375 
L 18.40625 75.984375 
L 18.40625 0 
L 9.421875 0 
z
" id="DejaVuSans-108"/>
     <path d="M 11.71875 12.40625 
L 22.015625 12.40625 
L 22.015625 0 
L 11.71875 0 
z
M 11.71875 51.703125 
L 22.015625 51.703125 
L 22.015625 39.3125 
L 11.71875 39.3125 
z
" id="DejaVuSans-58"/>
     <path id="DejaVuSans-32"/>
     <path d="M 52 44.1875 
Q 55.375 50.25 60.0625 53.125 
Q 64.75 56 71.09375 56 
Q 79.640625 56 84.28125 50.015625 
Q 88.921875 44.046875 88.921875 33.015625 
L 88.921875 0 
L 79.890625 0 
L 79.890625 32.71875 
Q 79.890625 40.578125 77.09375 44.375 
Q 74.3125 48.1875 68.609375 48.1875 
Q 61.625 48.1875 57.5625 43.546875 
Q 53.515625 38.921875 53.515625 30.90625 
L 53.515625 0 
L 44.484375 0 
L 44.484375 32.71875 
Q 44.484375 40.625 41.703125 44.40625 
Q 38.921875 48.1875 33.109375 48.1875 
Q 26.21875 48.1875 22.15625 43.53125 
Q 18.109375 38.875 18.109375 30.90625 
L 18.109375 0 
L 9.078125 0 
L 9.078125 54.6875 
L 18.109375 54.6875 
L 18.109375 46.1875 
Q 21.1875 51.21875 25.484375 53.609375 
Q 29.78125 56 35.6875 56 
Q 41.65625 56 45.828125 52.96875 
Q 50 49.953125 52 44.1875 
z
" id="DejaVuSans-109"/>
     <path d="M 45.40625 27.984375 
Q 45.40625 37.75 41.375 43.109375 
Q 37.359375 48.484375 30.078125 48.484375 
Q 22.859375 48.484375 18.828125 43.109375 
Q 14.796875 37.75 14.796875 27.984375 
Q 14.796875 18.265625 18.828125 12.890625 
Q 22.859375 7.515625 30.078125 7.515625 
Q 37.359375 7.515625 41.375 12.890625 
Q 45.40625 18.265625 45.40625 27.984375 
z
M 54.390625 6.78125 
Q 54.390625 -7.171875 48.1875 -13.984375 
Q 42 -20.796875 29.203125 -20.796875 
Q 24.46875 -20.796875 20.265625 -20.09375 
Q 16.0625 -19.390625 12.109375 -17.921875 
L 12.109375 -9.1875 
Q 16.0625 -11.328125 19.921875 -12.34375 
Q 23.78125 -13.375 27.78125 -13.375 
Q 36.625 -13.375 41.015625 -8.765625 
Q 45.40625 -4.15625 45.40625 5.171875 
L 45.40625 9.625 
Q 42.625 4.78125 38.28125 2.390625 
Q 33.9375 0 27.875 0 
Q 17.828125 0 11.671875 7.65625 
Q 5.515625 15.328125 5.515625 27.984375 
Q 5.515625 40.671875 11.671875 48.328125 
Q 17.828125 56 27.875 56 
Q 33.9375 56 38.28125 53.609375 
Q 42.625 51.21875 45.40625 46.390625 
L 45.40625 54.6875 
L 54.390625 54.6875 
z
" id="DejaVuSans-103"/>
    </defs>
    <g transform="translate(265.364063 41.042625)scale(0.12 -0.12)">
     <use xlink:href="#DejaVuSans-119"/>
     <use x="81.787109" xlink:href="#DejaVuSans-97"/>
     <use x="143.066406" xlink:href="#DejaVuSans-108"/>
     <use x="170.849609" xlink:href="#DejaVuSans-108"/>
     <use x="198.632812" xlink:href="#DejaVuSans-58"/>
     <use x="232.324219" xlink:href="#DejaVuSans-32"/>
     <use x="264.111328" xlink:href="#DejaVuSans-105"/>
     <use x="291.894531" xlink:href="#DejaVuSans-109"/>
     <use x="389.306641" xlink:href="#DejaVuSans-103"/>
     <use x="452.783203" xlink:href="#DejaVuSans-49"/>
     <use x="516.40625" xlink:href="#DejaVuSans-45"/>
     <use x="552.490234" xlink:href="#DejaVuSans-105"/>
     <use x="580.273438" xlink:href="#DejaVuSans-109"/>
     <use x="677.685547" xlink:href="#DejaVuSans-103"/>
     <use x="741.162109" xlink:href="#DejaVuSans-54"/>
    </g>
    <!-- NearestNeighbours -->
    <defs>
     <path d="M 9.8125 72.90625 
L 23.09375 72.90625 
L 55.421875 11.921875 
L 55.421875 72.90625 
L 64.984375 72.90625 
L 64.984375 0 
L 51.703125 0 
L 19.390625 60.984375 
L 19.390625 0 
L 9.8125 0 
z
" id="DejaVuSans-78"/>
     <path d="M 54.890625 33.015625 
L 54.890625 0 
L 45.90625 0 
L 45.90625 32.71875 
Q 45.90625 40.484375 42.875 44.328125 
Q 39.84375 48.1875 33.796875 48.1875 
Q 26.515625 48.1875 22.3125 43.546875 
Q 18.109375 38.921875 18.109375 30.90625 
L 18.109375 0 
L 9.078125 0 
L 9.078125 75.984375 
L 18.109375 75.984375 
L 18.109375 46.1875 
Q 21.34375 51.125 25.703125 53.5625 
Q 30.078125 56 35.796875 56 
Q 45.21875 56 50.046875 50.171875 
Q 54.890625 44.34375 54.890625 33.015625 
z
" id="DejaVuSans-104"/>
     <path d="M 48.6875 27.296875 
Q 48.6875 37.203125 44.609375 42.84375 
Q 40.53125 48.484375 33.40625 48.484375 
Q 26.265625 48.484375 22.1875 42.84375 
Q 18.109375 37.203125 18.109375 27.296875 
Q 18.109375 17.390625 22.1875 11.75 
Q 26.265625 6.109375 33.40625 6.109375 
Q 40.53125 6.109375 44.609375 11.75 
Q 48.6875 17.390625 48.6875 27.296875 
z
M 18.109375 46.390625 
Q 20.953125 51.265625 25.265625 53.625 
Q 29.59375 56 35.59375 56 
Q 45.5625 56 51.78125 48.09375 
Q 58.015625 40.1875 58.015625 27.296875 
Q 58.015625 14.40625 51.78125 6.484375 
Q 45.5625 -1.421875 35.59375 -1.421875 
Q 29.59375 -1.421875 25.265625 0.953125 
Q 20.953125 3.328125 18.109375 8.203125 
L 18.109375 0 
L 9.078125 0 
L 9.078125 75.984375 
L 18.109375 75.984375 
z
" id="DejaVuSans-98"/>
     <path d="M 8.5 21.578125 
L 8.5 54.6875 
L 17.484375 54.6875 
L 17.484375 21.921875 
Q 17.484375 14.15625 20.5 10.265625 
Q 23.53125 6.390625 29.59375 6.390625 
Q 36.859375 6.390625 41.078125 11.03125 
Q 45.3125 15.671875 45.3125 23.6875 
L 45.3125 54.6875 
L 54.296875 54.6875 
L 54.296875 0 
L 45.3125 0 
L 45.3125 8.40625 
Q 42.046875 3.421875 37.71875 1 
Q 33.40625 -1.421875 27.6875 -1.421875 
Q 18.265625 -1.421875 13.375 4.4375 
Q 8.5 10.296875 8.5 21.578125 
z
M 31.109375 56 
z
" id="DejaVuSans-117"/>
    </defs>
    <g transform="translate(255.957188 54.48)scale(0.12 -0.12)">
     <use xlink:href="#DejaVuSans-78"/>
     <use x="74.804688" xlink:href="#DejaVuSans-101"/>
     <use x="136.328125" xlink:href="#DejaVuSans-97"/>
     <use x="197.607422" xlink:href="#DejaVuSans-114"/>
     <use x="236.470703" xlink:href="#DejaVuSans-101"/>
     <use x="297.994141" xlink:href="#DejaVuSans-115"/>
     <use x="350.09375" xlink:href="#DejaVuSans-116"/>
     <use x="389.302734" xlink:href="#DejaVuSans-78"/>
     <use x="464.107422" xlink:href="#DejaVuSans-101"/>
     <use x="525.630859" xlink:href="#DejaVuSans-105"/>
     <use x="553.414062" xlink:href="#DejaVuSans-103"/>
     <use x="616.890625" xlink:href="#DejaVuSans-104"/>
     <use x="680.269531" xlink:href="#DejaVuSans-98"/>
     <use x="743.746094" xlink:href="#DejaVuSans-111"/>
     <use x="804.927734" xlink:href="#DejaVuSans-117"/>
     <use x="868.306641" xlink:href="#DejaVuSans-114"/>
     <use x="909.419922" xlink:href="#DejaVuSans-115"/>
    </g>
   </g>
   <g id="legend_1">
    <g id="patch_7">
     <path d="M 375.384375 112.514375 
L 543.8 112.514375 
Q 545.8 112.514375 545.8 110.514375 
L 545.8 67.48 
Q 545.8 65.48 543.8 65.48 
L 375.384375 65.48 
Q 373.384375 65.48 373.384375 67.48 
L 373.384375 110.514375 
Q 373.384375 112.514375 375.384375 112.514375 
z
" style="fill:#ffffff;opacity:0.8;stroke:#cccccc;stroke-linejoin:miter;"/>
    </g>
    <g id="line2d_48">
     <path d="M 377.384375 73.578438 
L 397.384375 73.578438 
" style="fill:none;stroke:#1f77b4;stroke-linecap:square;stroke-width:2;"/>
    </g>
    <g id="line2d_49"/>
    <g id="text_26">
     <!-- root-cvsift AP: 0.9, %In: 1.7 -->
     <defs>
      <path d="M 2.984375 54.6875 
L 12.5 54.6875 
L 29.59375 8.796875 
L 46.6875 54.6875 
L 56.203125 54.6875 
L 35.6875 0 
L 23.484375 0 
z
" id="DejaVuSans-118"/>
      <path d="M 37.109375 75.984375 
L 37.109375 68.5 
L 28.515625 68.5 
Q 23.6875 68.5 21.796875 66.546875 
Q 19.921875 64.59375 19.921875 59.515625 
L 19.921875 54.6875 
L 34.71875 54.6875 
L 34.71875 47.703125 
L 19.921875 47.703125 
L 19.921875 0 
L 10.890625 0 
L 10.890625 47.703125 
L 2.296875 47.703125 
L 2.296875 54.6875 
L 10.890625 54.6875 
L 10.890625 58.5 
Q 10.890625 67.625 15.140625 71.796875 
Q 19.390625 75.984375 28.609375 75.984375 
z
" id="DejaVuSans-102"/>
      <path d="M 34.1875 63.1875 
L 20.796875 26.90625 
L 47.609375 26.90625 
z
M 28.609375 72.90625 
L 39.796875 72.90625 
L 67.578125 0 
L 57.328125 0 
L 50.6875 18.703125 
L 17.828125 18.703125 
L 11.1875 0 
L 0.78125 0 
z
" id="DejaVuSans-65"/>
      <path d="M 19.671875 64.796875 
L 19.671875 37.40625 
L 32.078125 37.40625 
Q 38.96875 37.40625 42.71875 40.96875 
Q 46.484375 44.53125 46.484375 51.125 
Q 46.484375 57.671875 42.71875 61.234375 
Q 38.96875 64.796875 32.078125 64.796875 
z
M 9.8125 72.90625 
L 32.078125 72.90625 
Q 44.34375 72.90625 50.609375 67.359375 
Q 56.890625 61.8125 56.890625 51.125 
Q 56.890625 40.328125 50.609375 34.8125 
Q 44.34375 29.296875 32.078125 29.296875 
L 19.671875 29.296875 
L 19.671875 0 
L 9.8125 0 
z
" id="DejaVuSans-80"/>
      <path d="M 11.71875 12.40625 
L 22.015625 12.40625 
L 22.015625 4 
L 14.015625 -11.625 
L 7.71875 -11.625 
L 11.71875 4 
z
" id="DejaVuSans-44"/>
      <path d="M 72.703125 32.078125 
Q 68.453125 32.078125 66.03125 28.46875 
Q 63.625 24.859375 63.625 18.40625 
Q 63.625 12.0625 66.03125 8.421875 
Q 68.453125 4.78125 72.703125 4.78125 
Q 76.859375 4.78125 79.265625 8.421875 
Q 81.6875 12.0625 81.6875 18.40625 
Q 81.6875 24.8125 79.265625 28.4375 
Q 76.859375 32.078125 72.703125 32.078125 
z
M 72.703125 38.28125 
Q 80.421875 38.28125 84.953125 32.90625 
Q 89.5 27.546875 89.5 18.40625 
Q 89.5 9.28125 84.9375 3.921875 
Q 80.375 -1.421875 72.703125 -1.421875 
Q 64.890625 -1.421875 60.34375 3.921875 
Q 55.8125 9.28125 55.8125 18.40625 
Q 55.8125 27.59375 60.375 32.9375 
Q 64.9375 38.28125 72.703125 38.28125 
z
M 22.3125 68.015625 
Q 18.109375 68.015625 15.6875 64.375 
Q 13.28125 60.75 13.28125 54.390625 
Q 13.28125 47.953125 15.671875 44.328125 
Q 18.0625 40.71875 22.3125 40.71875 
Q 26.5625 40.71875 28.96875 44.328125 
Q 31.390625 47.953125 31.390625 54.390625 
Q 31.390625 60.6875 28.953125 64.34375 
Q 26.515625 68.015625 22.3125 68.015625 
z
M 66.40625 74.21875 
L 74.21875 74.21875 
L 28.609375 -1.421875 
L 20.796875 -1.421875 
z
M 22.3125 74.21875 
Q 30.03125 74.21875 34.609375 68.875 
Q 39.203125 63.53125 39.203125 54.390625 
Q 39.203125 45.171875 34.640625 39.84375 
Q 30.078125 34.515625 22.3125 34.515625 
Q 14.546875 34.515625 10.03125 39.859375 
Q 5.515625 45.21875 5.515625 54.390625 
Q 5.515625 63.484375 10.046875 68.84375 
Q 14.59375 74.21875 22.3125 74.21875 
z
" id="DejaVuSans-37"/>
      <path d="M 9.8125 72.90625 
L 19.671875 72.90625 
L 19.671875 0 
L 9.8125 0 
z
" id="DejaVuSans-73"/>
     </defs>
     <g transform="translate(405.384375 77.078438)scale(0.1 -0.1)">
      <use xlink:href="#DejaVuSans-114"/>
      <use x="38.863281" xlink:href="#DejaVuSans-111"/>
      <use x="100.044922" xlink:href="#DejaVuSans-111"/>
      <use x="161.226562" xlink:href="#DejaVuSans-116"/>
      <use x="200.435547" xlink:href="#DejaVuSans-45"/>
      <use x="236.519531" xlink:href="#DejaVuSans-99"/>
      <use x="291.5" xlink:href="#DejaVuSans-118"/>
      <use x="350.679688" xlink:href="#DejaVuSans-115"/>
      <use x="402.779297" xlink:href="#DejaVuSans-105"/>
      <use x="430.5625" xlink:href="#DejaVuSans-102"/>
      <use x="464.017578" xlink:href="#DejaVuSans-116"/>
      <use x="503.226562" xlink:href="#DejaVuSans-32"/>
      <use x="535.013672" xlink:href="#DejaVuSans-65"/>
      <use x="603.421875" xlink:href="#DejaVuSans-80"/>
      <use x="663.724609" xlink:href="#DejaVuSans-58"/>
      <use x="697.416016" xlink:href="#DejaVuSans-32"/>
      <use x="729.203125" xlink:href="#DejaVuSans-48"/>
      <use x="792.826172" xlink:href="#DejaVuSans-46"/>
      <use x="824.613281" xlink:href="#DejaVuSans-57"/>
      <use x="888.236328" xlink:href="#DejaVuSans-44"/>
      <use x="920.023438" xlink:href="#DejaVuSans-32"/>
      <use x="951.810547" xlink:href="#DejaVuSans-37"/>
      <use x="1046.830078" xlink:href="#DejaVuSans-73"/>
      <use x="1076.322266" xlink:href="#DejaVuSans-110"/>
      <use x="1139.701172" xlink:href="#DejaVuSans-58"/>
      <use x="1173.392578" xlink:href="#DejaVuSans-32"/>
      <use x="1205.179688" xlink:href="#DejaVuSans-49"/>
      <use x="1268.802734" xlink:href="#DejaVuSans-46"/>
      <use x="1300.589844" xlink:href="#DejaVuSans-55"/>
     </g>
    </g>
    <g id="line2d_50">
     <path d="M 377.384375 88.256563 
L 397.384375 88.256563 
" style="fill:none;stroke:#ff7f0e;stroke-linecap:square;stroke-width:2;"/>
    </g>
    <g id="line2d_51"/>
    <g id="text_27">
     <!-- tfeat AP: 0.4, %In: 1.3 -->
     <g transform="translate(405.384375 91.756563)scale(0.1 -0.1)">
      <use xlink:href="#DejaVuSans-116"/>
      <use x="39.208984" xlink:href="#DejaVuSans-102"/>
      <use x="74.414062" xlink:href="#DejaVuSans-101"/>
      <use x="135.9375" xlink:href="#DejaVuSans-97"/>
      <use x="197.216797" xlink:href="#DejaVuSans-116"/>
      <use x="236.425781" xlink:href="#DejaVuSans-32"/>
      <use x="268.212891" xlink:href="#DejaVuSans-65"/>
      <use x="336.621094" xlink:href="#DejaVuSans-80"/>
      <use x="396.923828" xlink:href="#DejaVuSans-58"/>
      <use x="430.615234" xlink:href="#DejaVuSans-32"/>
      <use x="462.402344" xlink:href="#DejaVuSans-48"/>
      <use x="526.025391" xlink:href="#DejaVuSans-46"/>
      <use x="557.8125" xlink:href="#DejaVuSans-52"/>
      <use x="621.435547" xlink:href="#DejaVuSans-44"/>
      <use x="653.222656" xlink:href="#DejaVuSans-32"/>
      <use x="685.009766" xlink:href="#DejaVuSans-37"/>
      <use x="780.029297" xlink:href="#DejaVuSans-73"/>
      <use x="809.521484" xlink:href="#DejaVuSans-110"/>
      <use x="872.900391" xlink:href="#DejaVuSans-58"/>
      <use x="906.591797" xlink:href="#DejaVuSans-32"/>
      <use x="938.378906" xlink:href="#DejaVuSans-49"/>
      <use x="1002.001953" xlink:href="#DejaVuSans-46"/>
      <use x="1033.789062" xlink:href="#DejaVuSans-51"/>
     </g>
    </g>
    <g id="line2d_52">
     <path d="M 377.384375 102.934687 
L 397.384375 102.934687 
" style="fill:none;stroke:#2ca02c;stroke-linecap:square;stroke-width:2;"/>
    </g>
    <g id="line2d_53"/>
    <g id="text_28">
     <!-- hardnet AP: 9.9, %In: 4.5 -->
     <defs>
      <path d="M 45.40625 46.390625 
L 45.40625 75.984375 
L 54.390625 75.984375 
L 54.390625 0 
L 45.40625 0 
L 45.40625 8.203125 
Q 42.578125 3.328125 38.25 0.953125 
Q 33.9375 -1.421875 27.875 -1.421875 
Q 17.96875 -1.421875 11.734375 6.484375 
Q 5.515625 14.40625 5.515625 27.296875 
Q 5.515625 40.1875 11.734375 48.09375 
Q 17.96875 56 27.875 56 
Q 33.9375 56 38.25 53.625 
Q 42.578125 51.265625 45.40625 46.390625 
z
M 14.796875 27.296875 
Q 14.796875 17.390625 18.875 11.75 
Q 22.953125 6.109375 30.078125 6.109375 
Q 37.203125 6.109375 41.296875 11.75 
Q 45.40625 17.390625 45.40625 27.296875 
Q 45.40625 37.203125 41.296875 42.84375 
Q 37.203125 48.484375 30.078125 48.484375 
Q 22.953125 48.484375 18.875 42.84375 
Q 14.796875 37.203125 14.796875 27.296875 
z
" id="DejaVuSans-100"/>
     </defs>
     <g transform="translate(405.384375 106.434687)scale(0.1 -0.1)">
      <use xlink:href="#DejaVuSans-104"/>
      <use x="63.378906" xlink:href="#DejaVuSans-97"/>
      <use x="124.658203" xlink:href="#DejaVuSans-114"/>
      <use x="164.021484" xlink:href="#DejaVuSans-100"/>
      <use x="227.498047" xlink:href="#DejaVuSans-110"/>
      <use x="290.876953" xlink:href="#DejaVuSans-101"/>
      <use x="352.400391" xlink:href="#DejaVuSans-116"/>
      <use x="391.609375" xlink:href="#DejaVuSans-32"/>
      <use x="423.396484" xlink:href="#DejaVuSans-65"/>
      <use x="491.804688" xlink:href="#DejaVuSans-80"/>
      <use x="552.107422" xlink:href="#DejaVuSans-58"/>
      <use x="585.798828" xlink:href="#DejaVuSans-32"/>
      <use x="617.585938" xlink:href="#DejaVuSans-57"/>
      <use x="681.208984" xlink:href="#DejaVuSans-46"/>
      <use x="712.996094" xlink:href="#DejaVuSans-57"/>
      <use x="776.619141" xlink:href="#DejaVuSans-44"/>
      <use x="808.40625" xlink:href="#DejaVuSans-32"/>
      <use x="840.193359" xlink:href="#DejaVuSans-37"/>
      <use x="935.212891" xlink:href="#DejaVuSans-73"/>
      <use x="964.705078" xlink:href="#DejaVuSans-110"/>
      <use x="1028.083984" xlink:href="#DejaVuSans-58"/>
      <use x="1061.775391" xlink:href="#DejaVuSans-32"/>
      <use x="1093.5625" xlink:href="#DejaVuSans-52"/>
      <use x="1157.185547" xlink:href="#DejaVuSans-46"/>
      <use x="1188.972656" xlink:href="#DejaVuSans-53"/>
     </g>
    </g>
   </g>
  </g>
 </g>
 <defs>
  <clipPath id="p7049384c2c">
   <rect height="388.08" width="474.3" x="76.5" y="60.48"/>
  </clipPath>
 </defs>
</svg>
