<?xml version="1.0" encoding="utf-8" standalone="no"?>
<!DOCTYPE svg PUBLIC "-//W3C//DTD SVG 1.1//EN"
  "http://www.w3.org/Graphics/SVG/1.1/DTD/svg11.dtd">
<!-- Created with matplotlib (https://matplotlib.org/) -->
<svg height="504pt" version="1.1" viewBox="0 0 612 504" width="612pt" xmlns="http://www.w3.org/2000/svg" xmlns:xlink="http://www.w3.org/1999/xlink">
 <defs>
  <style type="text/css">
*{stroke-linecap:butt;stroke-linejoin:round;}
  </style>
 </defs>
 <g id="figure_1">
  <g id="patch_1">
   <path d="M 0 504 
L 612 504 
L 612 0 
L 0 0 
z
" style="fill:#ffffff;"/>
  </g>
  <g id="axes_1">
   <g id="patch_2">
    <path d="M 76.5 448.56 
L 550.8 448.56 
L 550.8 60.48 
L 76.5 60.48 
z
" style="fill:#ffffff;"/>
   </g>
   <g id="matplotlib.axis_1">
    <g id="xtick_1">
     <g id="line2d_1">
      <path clip-path="url(#pa31ab22e62)" d="M 76.5 448.56 
L 76.5 60.48 
" style="fill:none;stroke:#b0b0b0;stroke-linecap:square;stroke-width:0.8;"/>
     </g>
     <g id="line2d_2">
      <defs>
       <path d="M 0 0 
L 0 3.5 
" id="m6bb89d2f8b" style="stroke:#000000;stroke-width:0.8;"/>
      </defs>
      <g>
       <use style="stroke:#000000;stroke-width:0.8;" x="76.5" xlink:href="#m6bb89d2f8b" y="448.56"/>
      </g>
     </g>
     <g id="text_1">
      <!-- 0.0 -->
      <defs>
       <path d="M 31.78125 66.40625 
Q 24.171875 66.40625 20.328125 58.90625 
Q 16.5 51.421875 16.5 36.375 
Q 16.5 21.390625 20.328125 13.890625 
Q 24.171875 6.390625 31.78125 6.390625 
Q 39.453125 6.390625 43.28125 13.890625 
Q 47.125 21.390625 47.125 36.375 
Q 47.125 51.421875 43.28125 58.90625 
Q 39.453125 66.40625 31.78125 66.40625 
z
M 31.78125 74.21875 
Q 44.046875 74.21875 50.515625 64.515625 
Q 56.984375 54.828125 56.984375 36.375 
Q 56.984375 17.96875 50.515625 8.265625 
Q 44.046875 -1.421875 31.78125 -1.421875 
Q 19.53125 -1.421875 13.0625 8.265625 
Q 6.59375 17.96875 6.59375 36.375 
Q 6.59375 54.828125 13.0625 64.515625 
Q 19.53125 74.21875 31.78125 74.21875 
z
" id="DejaVuSans-48"/>
       <path d="M 10.6875 12.40625 
L 21 12.40625 
L 21 0 
L 10.6875 0 
z
" id="DejaVuSans-46"/>
      </defs>
      <g transform="translate(68.548438 463.158437)scale(0.1 -0.1)">
       <use xlink:href="#DejaVuSans-48"/>
       <use x="63.623047" xlink:href="#DejaVuSans-46"/>
       <use x="95.410156" xlink:href="#DejaVuSans-48"/>
      </g>
     </g>
    </g>
    <g id="xtick_2">
     <g id="line2d_3">
      <path clip-path="url(#pa31ab22e62)" d="M 123.93 448.56 
L 123.93 60.48 
" style="fill:none;stroke:#b0b0b0;stroke-linecap:square;stroke-width:0.8;"/>
     </g>
     <g id="line2d_4">
      <g>
       <use style="stroke:#000000;stroke-width:0.8;" x="123.93" xlink:href="#m6bb89d2f8b" y="448.56"/>
      </g>
     </g>
     <g id="text_2">
      <!-- 0.1 -->
      <defs>
       <path d="M 12.40625 8.296875 
L 28.515625 8.296875 
L 28.515625 63.921875 
L 10.984375 60.40625 
L 10.984375 69.390625 
L 28.421875 72.90625 
L 38.28125 72.90625 
L 38.28125 8.296875 
L 54.390625 8.296875 
L 54.390625 0 
L 12.40625 0 
z
" id="DejaVuSans-49"/>
      </defs>
      <g transform="translate(115.978438 463.158437)scale(0.1 -0.1)">
       <use xlink:href="#DejaVuSans-48"/>
       <use x="63.623047" xlink:href="#DejaVuSans-46"/>
       <use x="95.410156" xlink:href="#DejaVuSans-49"/>
      </g>
     </g>
    </g>
    <g id="xtick_3">
     <g id="line2d_5">
      <path clip-path="url(#pa31ab22e62)" d="M 171.36 448.56 
L 171.36 60.48 
" style="fill:none;stroke:#b0b0b0;stroke-linecap:square;stroke-width:0.8;"/>
     </g>
     <g id="line2d_6">
      <g>
       <use style="stroke:#000000;stroke-width:0.8;" x="171.36" xlink:href="#m6bb89d2f8b" y="448.56"/>
      </g>
     </g>
     <g id="text_3">
      <!-- 0.2 -->
      <defs>
       <path d="M 19.1875 8.296875 
L 53.609375 8.296875 
L 53.609375 0 
L 7.328125 0 
L 7.328125 8.296875 
Q 12.9375 14.109375 22.625 23.890625 
Q 32.328125 33.6875 34.8125 36.53125 
Q 39.546875 41.84375 41.421875 45.53125 
Q 43.3125 49.21875 43.3125 52.78125 
Q 43.3125 58.59375 39.234375 62.25 
Q 35.15625 65.921875 28.609375 65.921875 
Q 23.96875 65.921875 18.8125 64.3125 
Q 13.671875 62.703125 7.8125 59.421875 
L 7.8125 69.390625 
Q 13.765625 71.78125 18.9375 73 
Q 24.125 74.21875 28.421875 74.21875 
Q 39.75 74.21875 46.484375 68.546875 
Q 53.21875 62.890625 53.21875 53.421875 
Q 53.21875 48.921875 51.53125 44.890625 
Q 49.859375 40.875 45.40625 35.40625 
Q 44.1875 33.984375 37.640625 27.21875 
Q 31.109375 20.453125 19.1875 8.296875 
z
" id="DejaVuSans-50"/>
      </defs>
      <g transform="translate(163.408438 463.158437)scale(0.1 -0.1)">
       <use xlink:href="#DejaVuSans-48"/>
       <use x="63.623047" xlink:href="#DejaVuSans-46"/>
       <use x="95.410156" xlink:href="#DejaVuSans-50"/>
      </g>
     </g>
    </g>
    <g id="xtick_4">
     <g id="line2d_7">
      <path clip-path="url(#pa31ab22e62)" d="M 218.79 448.56 
L 218.79 60.48 
" style="fill:none;stroke:#b0b0b0;stroke-linecap:square;stroke-width:0.8;"/>
     </g>
     <g id="line2d_8">
      <g>
       <use style="stroke:#000000;stroke-width:0.8;" x="218.79" xlink:href="#m6bb89d2f8b" y="448.56"/>
      </g>
     </g>
     <g id="text_4">
      <!-- 0.3 -->
      <defs>
       <path d="M 40.578125 39.3125 
Q 47.65625 37.796875 51.625 33 
Q 55.609375 28.21875 55.609375 21.1875 
Q 55.609375 10.40625 48.1875 4.484375 
Q 40.765625 -1.421875 27.09375 -1.421875 
Q 22.515625 -1.421875 17.65625 -0.515625 
Q 12.796875 0.390625 7.625 2.203125 
L 7.625 11.71875 
Q 11.71875 9.328125 16.59375 8.109375 
Q 21.484375 6.890625 26.8125 6.890625 
Q 36.078125 6.890625 40.9375 10.546875 
Q 45.796875 14.203125 45.796875 21.1875 
Q 45.796875 27.640625 41.28125 31.265625 
Q 36.765625 34.90625 28.71875 34.90625 
L 20.21875 34.90625 
L 20.21875 43.015625 
L 29.109375 43.015625 
Q 36.375 43.015625 40.234375 45.921875 
Q 44.09375 48.828125 44.09375 54.296875 
Q 44.09375 59.90625 40.109375 62.90625 
Q 36.140625 65.921875 28.71875 65.921875 
Q 24.65625 65.921875 20.015625 65.03125 
Q 15.375 64.15625 9.8125 62.3125 
L 9.8125 71.09375 
Q 15.4375 72.65625 20.34375 73.4375 
Q 25.25 74.21875 29.59375 74.21875 
Q 40.828125 74.21875 47.359375 69.109375 
Q 53.90625 64.015625 53.90625 55.328125 
Q 53.90625 49.265625 50.4375 45.09375 
Q 46.96875 40.921875 40.578125 39.3125 
z
" id="DejaVuSans-51"/>
      </defs>
      <g transform="translate(210.838438 463.158437)scale(0.1 -0.1)">
       <use xlink:href="#DejaVuSans-48"/>
       <use x="63.623047" xlink:href="#DejaVuSans-46"/>
       <use x="95.410156" xlink:href="#DejaVuSans-51"/>
      </g>
     </g>
    </g>
    <g id="xtick_5">
     <g id="line2d_9">
      <path clip-path="url(#pa31ab22e62)" d="M 266.22 448.56 
L 266.22 60.48 
" style="fill:none;stroke:#b0b0b0;stroke-linecap:square;stroke-width:0.8;"/>
     </g>
     <g id="line2d_10">
      <g>
       <use style="stroke:#000000;stroke-width:0.8;" x="266.22" xlink:href="#m6bb89d2f8b" y="448.56"/>
      </g>
     </g>
     <g id="text_5">
      <!-- 0.4 -->
      <defs>
       <path d="M 37.796875 64.3125 
L 12.890625 25.390625 
L 37.796875 25.390625 
z
M 35.203125 72.90625 
L 47.609375 72.90625 
L 47.609375 25.390625 
L 58.015625 25.390625 
L 58.015625 17.1875 
L 47.609375 17.1875 
L 47.609375 0 
L 37.796875 0 
L 37.796875 17.1875 
L 4.890625 17.1875 
L 4.890625 26.703125 
z
" id="DejaVuSans-52"/>
      </defs>
      <g transform="translate(258.268438 463.158437)scale(0.1 -0.1)">
       <use xlink:href="#DejaVuSans-48"/>
       <use x="63.623047" xlink:href="#DejaVuSans-46"/>
       <use x="95.410156" xlink:href="#DejaVuSans-52"/>
      </g>
     </g>
    </g>
    <g id="xtick_6">
     <g id="line2d_11">
      <path clip-path="url(#pa31ab22e62)" d="M 313.65 448.56 
L 313.65 60.48 
" style="fill:none;stroke:#b0b0b0;stroke-linecap:square;stroke-width:0.8;"/>
     </g>
     <g id="line2d_12">
      <g>
       <use style="stroke:#000000;stroke-width:0.8;" x="313.65" xlink:href="#m6bb89d2f8b" y="448.56"/>
      </g>
     </g>
     <g id="text_6">
      <!-- 0.5 -->
      <defs>
       <path d="M 10.796875 72.90625 
L 49.515625 72.90625 
L 49.515625 64.59375 
L 19.828125 64.59375 
L 19.828125 46.734375 
Q 21.96875 47.46875 24.109375 47.828125 
Q 26.265625 48.1875 28.421875 48.1875 
Q 40.625 48.1875 47.75 41.5 
Q 54.890625 34.8125 54.890625 23.390625 
Q 54.890625 11.625 47.5625 5.09375 
Q 40.234375 -1.421875 26.90625 -1.421875 
Q 22.3125 -1.421875 17.546875 -0.640625 
Q 12.796875 0.140625 7.71875 1.703125 
L 7.71875 11.625 
Q 12.109375 9.234375 16.796875 8.0625 
Q 21.484375 6.890625 26.703125 6.890625 
Q 35.15625 6.890625 40.078125 11.328125 
Q 45.015625 15.765625 45.015625 23.390625 
Q 45.015625 31 40.078125 35.4375 
Q 35.15625 39.890625 26.703125 39.890625 
Q 22.75 39.890625 18.8125 39.015625 
Q 14.890625 38.140625 10.796875 36.28125 
z
" id="DejaVuSans-53"/>
      </defs>
      <g transform="translate(305.698438 463.158437)scale(0.1 -0.1)">
       <use xlink:href="#DejaVuSans-48"/>
       <use x="63.623047" xlink:href="#DejaVuSans-46"/>
       <use x="95.410156" xlink:href="#DejaVuSans-53"/>
      </g>
     </g>
    </g>
    <g id="xtick_7">
     <g id="line2d_13">
      <path clip-path="url(#pa31ab22e62)" d="M 361.08 448.56 
L 361.08 60.48 
" style="fill:none;stroke:#b0b0b0;stroke-linecap:square;stroke-width:0.8;"/>
     </g>
     <g id="line2d_14">
      <g>
       <use style="stroke:#000000;stroke-width:0.8;" x="361.08" xlink:href="#m6bb89d2f8b" y="448.56"/>
      </g>
     </g>
     <g id="text_7">
      <!-- 0.6 -->
      <defs>
       <path d="M 33.015625 40.375 
Q 26.375 40.375 22.484375 35.828125 
Q 18.609375 31.296875 18.609375 23.390625 
Q 18.609375 15.53125 22.484375 10.953125 
Q 26.375 6.390625 33.015625 6.390625 
Q 39.65625 6.390625 43.53125 10.953125 
Q 47.40625 15.53125 47.40625 23.390625 
Q 47.40625 31.296875 43.53125 35.828125 
Q 39.65625 40.375 33.015625 40.375 
z
M 52.59375 71.296875 
L 52.59375 62.3125 
Q 48.875 64.0625 45.09375 64.984375 
Q 41.3125 65.921875 37.59375 65.921875 
Q 27.828125 65.921875 22.671875 59.328125 
Q 17.53125 52.734375 16.796875 39.40625 
Q 19.671875 43.65625 24.015625 45.921875 
Q 28.375 48.1875 33.59375 48.1875 
Q 44.578125 48.1875 50.953125 41.515625 
Q 57.328125 34.859375 57.328125 23.390625 
Q 57.328125 12.15625 50.6875 5.359375 
Q 44.046875 -1.421875 33.015625 -1.421875 
Q 20.359375 -1.421875 13.671875 8.265625 
Q 6.984375 17.96875 6.984375 36.375 
Q 6.984375 53.65625 15.1875 63.9375 
Q 23.390625 74.21875 37.203125 74.21875 
Q 40.921875 74.21875 44.703125 73.484375 
Q 48.484375 72.75 52.59375 71.296875 
z
" id="DejaVuSans-54"/>
      </defs>
      <g transform="translate(353.128438 463.158437)scale(0.1 -0.1)">
       <use xlink:href="#DejaVuSans-48"/>
       <use x="63.623047" xlink:href="#DejaVuSans-46"/>
       <use x="95.410156" xlink:href="#DejaVuSans-54"/>
      </g>
     </g>
    </g>
    <g id="xtick_8">
     <g id="line2d_15">
      <path clip-path="url(#pa31ab22e62)" d="M 408.51 448.56 
L 408.51 60.48 
" style="fill:none;stroke:#b0b0b0;stroke-linecap:square;stroke-width:0.8;"/>
     </g>
     <g id="line2d_16">
      <g>
       <use style="stroke:#000000;stroke-width:0.8;" x="408.51" xlink:href="#m6bb89d2f8b" y="448.56"/>
      </g>
     </g>
     <g id="text_8">
      <!-- 0.7 -->
      <defs>
       <path d="M 8.203125 72.90625 
L 55.078125 72.90625 
L 55.078125 68.703125 
L 28.609375 0 
L 18.3125 0 
L 43.21875 64.59375 
L 8.203125 64.59375 
z
" id="DejaVuSans-55"/>
      </defs>
      <g transform="translate(400.558438 463.158437)scale(0.1 -0.1)">
       <use xlink:href="#DejaVuSans-48"/>
       <use x="63.623047" xlink:href="#DejaVuSans-46"/>
       <use x="95.410156" xlink:href="#DejaVuSans-55"/>
      </g>
     </g>
    </g>
    <g id="xtick_9">
     <g id="line2d_17">
      <path clip-path="url(#pa31ab22e62)" d="M 455.94 448.56 
L 455.94 60.48 
" style="fill:none;stroke:#b0b0b0;stroke-linecap:square;stroke-width:0.8;"/>
     </g>
     <g id="line2d_18">
      <g>
       <use style="stroke:#000000;stroke-width:0.8;" x="455.94" xlink:href="#m6bb89d2f8b" y="448.56"/>
      </g>
     </g>
     <g id="text_9">
      <!-- 0.8 -->
      <defs>
       <path d="M 31.78125 34.625 
Q 24.75 34.625 20.71875 30.859375 
Q 16.703125 27.09375 16.703125 20.515625 
Q 16.703125 13.921875 20.71875 10.15625 
Q 24.75 6.390625 31.78125 6.390625 
Q 38.8125 6.390625 42.859375 10.171875 
Q 46.921875 13.96875 46.921875 20.515625 
Q 46.921875 27.09375 42.890625 30.859375 
Q 38.875 34.625 31.78125 34.625 
z
M 21.921875 38.8125 
Q 15.578125 40.375 12.03125 44.71875 
Q 8.5 49.078125 8.5 55.328125 
Q 8.5 64.0625 14.71875 69.140625 
Q 20.953125 74.21875 31.78125 74.21875 
Q 42.671875 74.21875 48.875 69.140625 
Q 55.078125 64.0625 55.078125 55.328125 
Q 55.078125 49.078125 51.53125 44.71875 
Q 48 40.375 41.703125 38.8125 
Q 48.828125 37.15625 52.796875 32.3125 
Q 56.78125 27.484375 56.78125 20.515625 
Q 56.78125 9.90625 50.3125 4.234375 
Q 43.84375 -1.421875 31.78125 -1.421875 
Q 19.734375 -1.421875 13.25 4.234375 
Q 6.78125 9.90625 6.78125 20.515625 
Q 6.78125 27.484375 10.78125 32.3125 
Q 14.796875 37.15625 21.921875 38.8125 
z
M 18.3125 54.390625 
Q 18.3125 48.734375 21.84375 45.5625 
Q 25.390625 42.390625 31.78125 42.390625 
Q 38.140625 42.390625 41.71875 45.5625 
Q 45.3125 48.734375 45.3125 54.390625 
Q 45.3125 60.0625 41.71875 63.234375 
Q 38.140625 66.40625 31.78125 66.40625 
Q 25.390625 66.40625 21.84375 63.234375 
Q 18.3125 60.0625 18.3125 54.390625 
z
" id="DejaVuSans-56"/>
      </defs>
      <g transform="translate(447.988438 463.158437)scale(0.1 -0.1)">
       <use xlink:href="#DejaVuSans-48"/>
       <use x="63.623047" xlink:href="#DejaVuSans-46"/>
       <use x="95.410156" xlink:href="#DejaVuSans-56"/>
      </g>
     </g>
    </g>
    <g id="xtick_10">
     <g id="line2d_19">
      <path clip-path="url(#pa31ab22e62)" d="M 503.37 448.56 
L 503.37 60.48 
" style="fill:none;stroke:#b0b0b0;stroke-linecap:square;stroke-width:0.8;"/>
     </g>
     <g id="line2d_20">
      <g>
       <use style="stroke:#000000;stroke-width:0.8;" x="503.37" xlink:href="#m6bb89d2f8b" y="448.56"/>
      </g>
     </g>
     <g id="text_10">
      <!-- 0.9 -->
      <defs>
       <path d="M 10.984375 1.515625 
L 10.984375 10.5 
Q 14.703125 8.734375 18.5 7.8125 
Q 22.3125 6.890625 25.984375 6.890625 
Q 35.75 6.890625 40.890625 13.453125 
Q 46.046875 20.015625 46.78125 33.40625 
Q 43.953125 29.203125 39.59375 26.953125 
Q 35.25 24.703125 29.984375 24.703125 
Q 19.046875 24.703125 12.671875 31.3125 
Q 6.296875 37.9375 6.296875 49.421875 
Q 6.296875 60.640625 12.9375 67.421875 
Q 19.578125 74.21875 30.609375 74.21875 
Q 43.265625 74.21875 49.921875 64.515625 
Q 56.59375 54.828125 56.59375 36.375 
Q 56.59375 19.140625 48.40625 8.859375 
Q 40.234375 -1.421875 26.421875 -1.421875 
Q 22.703125 -1.421875 18.890625 -0.6875 
Q 15.09375 0.046875 10.984375 1.515625 
z
M 30.609375 32.421875 
Q 37.25 32.421875 41.125 36.953125 
Q 45.015625 41.5 45.015625 49.421875 
Q 45.015625 57.28125 41.125 61.84375 
Q 37.25 66.40625 30.609375 66.40625 
Q 23.96875 66.40625 20.09375 61.84375 
Q 16.21875 57.28125 16.21875 49.421875 
Q 16.21875 41.5 20.09375 36.953125 
Q 23.96875 32.421875 30.609375 32.421875 
z
" id="DejaVuSans-57"/>
      </defs>
      <g transform="translate(495.418438 463.158437)scale(0.1 -0.1)">
       <use xlink:href="#DejaVuSans-48"/>
       <use x="63.623047" xlink:href="#DejaVuSans-46"/>
       <use x="95.410156" xlink:href="#DejaVuSans-57"/>
      </g>
     </g>
    </g>
    <g id="xtick_11">
     <g id="line2d_21">
      <path clip-path="url(#pa31ab22e62)" d="M 550.8 448.56 
L 550.8 60.48 
" style="fill:none;stroke:#b0b0b0;stroke-linecap:square;stroke-width:0.8;"/>
     </g>
     <g id="line2d_22">
      <g>
       <use style="stroke:#000000;stroke-width:0.8;" x="550.8" xlink:href="#m6bb89d2f8b" y="448.56"/>
      </g>
     </g>
     <g id="text_11">
      <!-- 1.0 -->
      <g transform="translate(542.848438 463.158437)scale(0.1 -0.1)">
       <use xlink:href="#DejaVuSans-49"/>
       <use x="63.623047" xlink:href="#DejaVuSans-46"/>
       <use x="95.410156" xlink:href="#DejaVuSans-48"/>
      </g>
     </g>
    </g>
    <g id="text_12">
     <!-- 1-precision -->
     <defs>
      <path d="M 4.890625 31.390625 
L 31.203125 31.390625 
L 31.203125 23.390625 
L 4.890625 23.390625 
z
" id="DejaVuSans-45"/>
      <path d="M 18.109375 8.203125 
L 18.109375 -20.796875 
L 9.078125 -20.796875 
L 9.078125 54.6875 
L 18.109375 54.6875 
L 18.109375 46.390625 
Q 20.953125 51.265625 25.265625 53.625 
Q 29.59375 56 35.59375 56 
Q 45.5625 56 51.78125 48.09375 
Q 58.015625 40.1875 58.015625 27.296875 
Q 58.015625 14.40625 51.78125 6.484375 
Q 45.5625 -1.421875 35.59375 -1.421875 
Q 29.59375 -1.421875 25.265625 0.953125 
Q 20.953125 3.328125 18.109375 8.203125 
z
M 48.6875 27.296875 
Q 48.6875 37.203125 44.609375 42.84375 
Q 40.53125 48.484375 33.40625 48.484375 
Q 26.265625 48.484375 22.1875 42.84375 
Q 18.109375 37.203125 18.109375 27.296875 
Q 18.109375 17.390625 22.1875 11.75 
Q 26.265625 6.109375 33.40625 6.109375 
Q 40.53125 6.109375 44.609375 11.75 
Q 48.6875 17.390625 48.6875 27.296875 
z
" id="DejaVuSans-112"/>
      <path d="M 41.109375 46.296875 
Q 39.59375 47.171875 37.8125 47.578125 
Q 36.03125 48 33.890625 48 
Q 26.265625 48 22.1875 43.046875 
Q 18.109375 38.09375 18.109375 28.8125 
L 18.109375 0 
L 9.078125 0 
L 9.078125 54.6875 
L 18.109375 54.6875 
L 18.109375 46.1875 
Q 20.953125 51.171875 25.484375 53.578125 
Q 30.03125 56 36.53125 56 
Q 37.453125 56 38.578125 55.875 
Q 39.703125 55.765625 41.0625 55.515625 
z
" id="DejaVuSans-114"/>
      <path d="M 56.203125 29.59375 
L 56.203125 25.203125 
L 14.890625 25.203125 
Q 15.484375 15.921875 20.484375 11.0625 
Q 25.484375 6.203125 34.421875 6.203125 
Q 39.59375 6.203125 44.453125 7.46875 
Q 49.3125 8.734375 54.109375 11.28125 
L 54.109375 2.78125 
Q 49.265625 0.734375 44.1875 -0.34375 
Q 39.109375 -1.421875 33.890625 -1.421875 
Q 20.796875 -1.421875 13.15625 6.1875 
Q 5.515625 13.8125 5.515625 26.8125 
Q 5.515625 40.234375 12.765625 48.109375 
Q 20.015625 56 32.328125 56 
Q 43.359375 56 49.78125 48.890625 
Q 56.203125 41.796875 56.203125 29.59375 
z
M 47.21875 32.234375 
Q 47.125 39.59375 43.09375 43.984375 
Q 39.0625 48.390625 32.421875 48.390625 
Q 24.90625 48.390625 20.390625 44.140625 
Q 15.875 39.890625 15.1875 32.171875 
z
" id="DejaVuSans-101"/>
      <path d="M 48.78125 52.59375 
L 48.78125 44.1875 
Q 44.96875 46.296875 41.140625 47.34375 
Q 37.3125 48.390625 33.40625 48.390625 
Q 24.65625 48.390625 19.8125 42.84375 
Q 14.984375 37.3125 14.984375 27.296875 
Q 14.984375 17.28125 19.8125 11.734375 
Q 24.65625 6.203125 33.40625 6.203125 
Q 37.3125 6.203125 41.140625 7.25 
Q 44.96875 8.296875 48.78125 10.40625 
L 48.78125 2.09375 
Q 45.015625 0.34375 40.984375 -0.53125 
Q 36.96875 -1.421875 32.421875 -1.421875 
Q 20.0625 -1.421875 12.78125 6.34375 
Q 5.515625 14.109375 5.515625 27.296875 
Q 5.515625 40.671875 12.859375 48.328125 
Q 20.21875 56 33.015625 56 
Q 37.15625 56 41.109375 55.140625 
Q 45.0625 54.296875 48.78125 52.59375 
z
" id="DejaVuSans-99"/>
      <path d="M 9.421875 54.6875 
L 18.40625 54.6875 
L 18.40625 0 
L 9.421875 0 
z
M 9.421875 75.984375 
L 18.40625 75.984375 
L 18.40625 64.59375 
L 9.421875 64.59375 
z
" id="DejaVuSans-105"/>
      <path d="M 44.28125 53.078125 
L 44.28125 44.578125 
Q 40.484375 46.53125 36.375 47.5 
Q 32.28125 48.484375 27.875 48.484375 
Q 21.1875 48.484375 17.84375 46.4375 
Q 14.5 44.390625 14.5 40.28125 
Q 14.5 37.15625 16.890625 35.375 
Q 19.28125 33.59375 26.515625 31.984375 
L 29.59375 31.296875 
Q 39.15625 29.25 43.1875 25.515625 
Q 47.21875 21.78125 47.21875 15.09375 
Q 47.21875 7.46875 41.1875 3.015625 
Q 35.15625 -1.421875 24.609375 -1.421875 
Q 20.21875 -1.421875 15.453125 -0.5625 
Q 10.6875 0.296875 5.421875 2 
L 5.421875 11.28125 
Q 10.40625 8.6875 15.234375 7.390625 
Q 20.0625 6.109375 24.8125 6.109375 
Q 31.15625 6.109375 34.5625 8.28125 
Q 37.984375 10.453125 37.984375 14.40625 
Q 37.984375 18.0625 35.515625 20.015625 
Q 33.0625 21.96875 24.703125 23.78125 
L 21.578125 24.515625 
Q 13.234375 26.265625 9.515625 29.90625 
Q 5.8125 33.546875 5.8125 39.890625 
Q 5.8125 47.609375 11.28125 51.796875 
Q 16.75 56 26.8125 56 
Q 31.78125 56 36.171875 55.265625 
Q 40.578125 54.546875 44.28125 53.078125 
z
" id="DejaVuSans-115"/>
      <path d="M 30.609375 48.390625 
Q 23.390625 48.390625 19.1875 42.75 
Q 14.984375 37.109375 14.984375 27.296875 
Q 14.984375 17.484375 19.15625 11.84375 
Q 23.34375 6.203125 30.609375 6.203125 
Q 37.796875 6.203125 41.984375 11.859375 
Q 46.1875 17.53125 46.1875 27.296875 
Q 46.1875 37.015625 41.984375 42.703125 
Q 37.796875 48.390625 30.609375 48.390625 
z
M 30.609375 56 
Q 42.328125 56 49.015625 48.375 
Q 55.71875 40.765625 55.71875 27.296875 
Q 55.71875 13.875 49.015625 6.21875 
Q 42.328125 -1.421875 30.609375 -1.421875 
Q 18.84375 -1.421875 12.171875 6.21875 
Q 5.515625 13.875 5.515625 27.296875 
Q 5.515625 40.765625 12.171875 48.375 
Q 18.84375 56 30.609375 56 
z
" id="DejaVuSans-111"/>
      <path d="M 54.890625 33.015625 
L 54.890625 0 
L 45.90625 0 
L 45.90625 32.71875 
Q 45.90625 40.484375 42.875 44.328125 
Q 39.84375 48.1875 33.796875 48.1875 
Q 26.515625 48.1875 22.3125 43.546875 
Q 18.109375 38.921875 18.109375 30.90625 
L 18.109375 0 
L 9.078125 0 
L 9.078125 54.6875 
L 18.109375 54.6875 
L 18.109375 46.1875 
Q 21.34375 51.125 25.703125 53.5625 
Q 30.078125 56 35.796875 56 
Q 45.21875 56 50.046875 50.171875 
Q 54.890625 44.34375 54.890625 33.015625 
z
" id="DejaVuSans-110"/>
     </defs>
     <g transform="translate(286.110938 476.836563)scale(0.1 -0.1)">
      <use xlink:href="#DejaVuSans-49"/>
      <use x="63.623047" xlink:href="#DejaVuSans-45"/>
      <use x="99.707031" xlink:href="#DejaVuSans-112"/>
      <use x="163.183594" xlink:href="#DejaVuSans-114"/>
      <use x="202.046875" xlink:href="#DejaVuSans-101"/>
      <use x="263.570312" xlink:href="#DejaVuSans-99"/>
      <use x="318.550781" xlink:href="#DejaVuSans-105"/>
      <use x="346.333984" xlink:href="#DejaVuSans-115"/>
      <use x="398.433594" xlink:href="#DejaVuSans-105"/>
      <use x="426.216797" xlink:href="#DejaVuSans-111"/>
      <use x="487.398438" xlink:href="#DejaVuSans-110"/>
     </g>
    </g>
   </g>
   <g id="matplotlib.axis_2">
    <g id="ytick_1">
     <g id="line2d_23">
      <path clip-path="url(#pa31ab22e62)" d="M 76.5 448.56 
L 550.8 448.56 
" style="fill:none;stroke:#b0b0b0;stroke-linecap:square;stroke-width:0.8;"/>
     </g>
     <g id="line2d_24">
      <defs>
       <path d="M 0 0 
L -3.5 0 
" id="mc7172fd832" style="stroke:#000000;stroke-width:0.8;"/>
      </defs>
      <g>
       <use style="stroke:#000000;stroke-width:0.8;" x="76.5" xlink:href="#mc7172fd832" y="448.56"/>
      </g>
     </g>
     <g id="text_13">
      <!-- 0.0 -->
      <g transform="translate(53.596875 452.359219)scale(0.1 -0.1)">
       <use xlink:href="#DejaVuSans-48"/>
       <use x="63.623047" xlink:href="#DejaVuSans-46"/>
       <use x="95.410156" xlink:href="#DejaVuSans-48"/>
      </g>
     </g>
    </g>
    <g id="ytick_2">
     <g id="line2d_25">
      <path clip-path="url(#pa31ab22e62)" d="M 76.5 409.752 
L 550.8 409.752 
" style="fill:none;stroke:#b0b0b0;stroke-linecap:square;stroke-width:0.8;"/>
     </g>
     <g id="line2d_26">
      <g>
       <use style="stroke:#000000;stroke-width:0.8;" x="76.5" xlink:href="#mc7172fd832" y="409.752"/>
      </g>
     </g>
     <g id="text_14">
      <!-- 0.1 -->
      <g transform="translate(53.596875 413.551219)scale(0.1 -0.1)">
       <use xlink:href="#DejaVuSans-48"/>
       <use x="63.623047" xlink:href="#DejaVuSans-46"/>
       <use x="95.410156" xlink:href="#DejaVuSans-49"/>
      </g>
     </g>
    </g>
    <g id="ytick_3">
     <g id="line2d_27">
      <path clip-path="url(#pa31ab22e62)" d="M 76.5 370.944 
L 550.8 370.944 
" style="fill:none;stroke:#b0b0b0;stroke-linecap:square;stroke-width:0.8;"/>
     </g>
     <g id="line2d_28">
      <g>
       <use style="stroke:#000000;stroke-width:0.8;" x="76.5" xlink:href="#mc7172fd832" y="370.944"/>
      </g>
     </g>
     <g id="text_15">
      <!-- 0.2 -->
      <g transform="translate(53.596875 374.743219)scale(0.1 -0.1)">
       <use xlink:href="#DejaVuSans-48"/>
       <use x="63.623047" xlink:href="#DejaVuSans-46"/>
       <use x="95.410156" xlink:href="#DejaVuSans-50"/>
      </g>
     </g>
    </g>
    <g id="ytick_4">
     <g id="line2d_29">
      <path clip-path="url(#pa31ab22e62)" d="M 76.5 332.136 
L 550.8 332.136 
" style="fill:none;stroke:#b0b0b0;stroke-linecap:square;stroke-width:0.8;"/>
     </g>
     <g id="line2d_30">
      <g>
       <use style="stroke:#000000;stroke-width:0.8;" x="76.5" xlink:href="#mc7172fd832" y="332.136"/>
      </g>
     </g>
     <g id="text_16">
      <!-- 0.3 -->
      <g transform="translate(53.596875 335.935219)scale(0.1 -0.1)">
       <use xlink:href="#DejaVuSans-48"/>
       <use x="63.623047" xlink:href="#DejaVuSans-46"/>
       <use x="95.410156" xlink:href="#DejaVuSans-51"/>
      </g>
     </g>
    </g>
    <g id="ytick_5">
     <g id="line2d_31">
      <path clip-path="url(#pa31ab22e62)" d="M 76.5 293.328 
L 550.8 293.328 
" style="fill:none;stroke:#b0b0b0;stroke-linecap:square;stroke-width:0.8;"/>
     </g>
     <g id="line2d_32">
      <g>
       <use style="stroke:#000000;stroke-width:0.8;" x="76.5" xlink:href="#mc7172fd832" y="293.328"/>
      </g>
     </g>
     <g id="text_17">
      <!-- 0.4 -->
      <g transform="translate(53.596875 297.127219)scale(0.1 -0.1)">
       <use xlink:href="#DejaVuSans-48"/>
       <use x="63.623047" xlink:href="#DejaVuSans-46"/>
       <use x="95.410156" xlink:href="#DejaVuSans-52"/>
      </g>
     </g>
    </g>
    <g id="ytick_6">
     <g id="line2d_33">
      <path clip-path="url(#pa31ab22e62)" d="M 76.5 254.52 
L 550.8 254.52 
" style="fill:none;stroke:#b0b0b0;stroke-linecap:square;stroke-width:0.8;"/>
     </g>
     <g id="line2d_34">
      <g>
       <use style="stroke:#000000;stroke-width:0.8;" x="76.5" xlink:href="#mc7172fd832" y="254.52"/>
      </g>
     </g>
     <g id="text_18">
      <!-- 0.5 -->
      <g transform="translate(53.596875 258.319219)scale(0.1 -0.1)">
       <use xlink:href="#DejaVuSans-48"/>
       <use x="63.623047" xlink:href="#DejaVuSans-46"/>
       <use x="95.410156" xlink:href="#DejaVuSans-53"/>
      </g>
     </g>
    </g>
    <g id="ytick_7">
     <g id="line2d_35">
      <path clip-path="url(#pa31ab22e62)" d="M 76.5 215.712 
L 550.8 215.712 
" style="fill:none;stroke:#b0b0b0;stroke-linecap:square;stroke-width:0.8;"/>
     </g>
     <g id="line2d_36">
      <g>
       <use style="stroke:#000000;stroke-width:0.8;" x="76.5" xlink:href="#mc7172fd832" y="215.712"/>
      </g>
     </g>
     <g id="text_19">
      <!-- 0.6 -->
      <g transform="translate(53.596875 219.511219)scale(0.1 -0.1)">
       <use xlink:href="#DejaVuSans-48"/>
       <use x="63.623047" xlink:href="#DejaVuSans-46"/>
       <use x="95.410156" xlink:href="#DejaVuSans-54"/>
      </g>
     </g>
    </g>
    <g id="ytick_8">
     <g id="line2d_37">
      <path clip-path="url(#pa31ab22e62)" d="M 76.5 176.904 
L 550.8 176.904 
" style="fill:none;stroke:#b0b0b0;stroke-linecap:square;stroke-width:0.8;"/>
     </g>
     <g id="line2d_38">
      <g>
       <use style="stroke:#000000;stroke-width:0.8;" x="76.5" xlink:href="#mc7172fd832" y="176.904"/>
      </g>
     </g>
     <g id="text_20">
      <!-- 0.7 -->
      <g transform="translate(53.596875 180.703219)scale(0.1 -0.1)">
       <use xlink:href="#DejaVuSans-48"/>
       <use x="63.623047" xlink:href="#DejaVuSans-46"/>
       <use x="95.410156" xlink:href="#DejaVuSans-55"/>
      </g>
     </g>
    </g>
    <g id="ytick_9">
     <g id="line2d_39">
      <path clip-path="url(#pa31ab22e62)" d="M 76.5 138.096 
L 550.8 138.096 
" style="fill:none;stroke:#b0b0b0;stroke-linecap:square;stroke-width:0.8;"/>
     </g>
     <g id="line2d_40">
      <g>
       <use style="stroke:#000000;stroke-width:0.8;" x="76.5" xlink:href="#mc7172fd832" y="138.096"/>
      </g>
     </g>
     <g id="text_21">
      <!-- 0.8 -->
      <g transform="translate(53.596875 141.895219)scale(0.1 -0.1)">
       <use xlink:href="#DejaVuSans-48"/>
       <use x="63.623047" xlink:href="#DejaVuSans-46"/>
       <use x="95.410156" xlink:href="#DejaVuSans-56"/>
      </g>
     </g>
    </g>
    <g id="ytick_10">
     <g id="line2d_41">
      <path clip-path="url(#pa31ab22e62)" d="M 76.5 99.288 
L 550.8 99.288 
" style="fill:none;stroke:#b0b0b0;stroke-linecap:square;stroke-width:0.8;"/>
     </g>
     <g id="line2d_42">
      <g>
       <use style="stroke:#000000;stroke-width:0.8;" x="76.5" xlink:href="#mc7172fd832" y="99.288"/>
      </g>
     </g>
     <g id="text_22">
      <!-- 0.9 -->
      <g transform="translate(53.596875 103.087219)scale(0.1 -0.1)">
       <use xlink:href="#DejaVuSans-48"/>
       <use x="63.623047" xlink:href="#DejaVuSans-46"/>
       <use x="95.410156" xlink:href="#DejaVuSans-57"/>
      </g>
     </g>
    </g>
    <g id="ytick_11">
     <g id="line2d_43">
      <path clip-path="url(#pa31ab22e62)" d="M 76.5 60.48 
L 550.8 60.48 
" style="fill:none;stroke:#b0b0b0;stroke-linecap:square;stroke-width:0.8;"/>
     </g>
     <g id="line2d_44">
      <g>
       <use style="stroke:#000000;stroke-width:0.8;" x="76.5" xlink:href="#mc7172fd832" y="60.48"/>
      </g>
     </g>
     <g id="text_23">
      <!-- 1.0 -->
      <g transform="translate(53.596875 64.279219)scale(0.1 -0.1)">
       <use xlink:href="#DejaVuSans-49"/>
       <use x="63.623047" xlink:href="#DejaVuSans-46"/>
       <use x="95.410156" xlink:href="#DejaVuSans-48"/>
      </g>
     </g>
    </g>
    <g id="text_24">
     <!-- #correct/647 -->
     <defs>
      <path d="M 51.125 44 
L 36.921875 44 
L 32.8125 27.6875 
L 47.125 27.6875 
z
M 43.796875 71.78125 
L 38.71875 51.515625 
L 52.984375 51.515625 
L 58.109375 71.78125 
L 65.921875 71.78125 
L 60.890625 51.515625 
L 76.125 51.515625 
L 76.125 44 
L 58.984375 44 
L 54.984375 27.6875 
L 70.515625 27.6875 
L 70.515625 20.21875 
L 53.078125 20.21875 
L 48 0 
L 40.1875 0 
L 45.21875 20.21875 
L 30.90625 20.21875 
L 25.875 0 
L 18.015625 0 
L 23.09375 20.21875 
L 7.71875 20.21875 
L 7.71875 27.6875 
L 24.90625 27.6875 
L 29 44 
L 13.28125 44 
L 13.28125 51.515625 
L 30.90625 51.515625 
L 35.890625 71.78125 
z
" id="DejaVuSans-35"/>
      <path d="M 18.3125 70.21875 
L 18.3125 54.6875 
L 36.8125 54.6875 
L 36.8125 47.703125 
L 18.3125 47.703125 
L 18.3125 18.015625 
Q 18.3125 11.328125 20.140625 9.421875 
Q 21.96875 7.515625 27.59375 7.515625 
L 36.8125 7.515625 
L 36.8125 0 
L 27.59375 0 
Q 17.1875 0 13.234375 3.875 
Q 9.28125 7.765625 9.28125 18.015625 
L 9.28125 47.703125 
L 2.6875 47.703125 
L 2.6875 54.6875 
L 9.28125 54.6875 
L 9.28125 70.21875 
z
" id="DejaVuSans-116"/>
      <path d="M 25.390625 72.90625 
L 33.6875 72.90625 
L 8.296875 -9.28125 
L 0 -9.28125 
z
" id="DejaVuSans-47"/>
     </defs>
     <g transform="translate(47.517187 287.443438)rotate(-90)scale(0.1 -0.1)">
      <use xlink:href="#DejaVuSans-35"/>
      <use x="83.789062" xlink:href="#DejaVuSans-99"/>
      <use x="138.769531" xlink:href="#DejaVuSans-111"/>
      <use x="199.951172" xlink:href="#DejaVuSans-114"/>
      <use x="239.314453" xlink:href="#DejaVuSans-114"/>
      <use x="278.177734" xlink:href="#DejaVuSans-101"/>
      <use x="339.701172" xlink:href="#DejaVuSans-99"/>
      <use x="394.681641" xlink:href="#DejaVuSans-116"/>
      <use x="433.890625" xlink:href="#DejaVuSans-47"/>
      <use x="467.582031" xlink:href="#DejaVuSans-54"/>
      <use x="531.205078" xlink:href="#DejaVuSans-52"/>
      <use x="594.828125" xlink:href="#DejaVuSans-55"/>
     </g>
    </g>
   </g>
   <g id="line2d_45">
    <path clip-path="url(#pa31ab22e62)" d="M 76.5 447.960185 
L 76.5 288.409521 
L 78.269776 288.409521 
L 78.193929 281.211747 
L 79.875801 281.211747 
L 79.79375 277.013045 
L 81.423529 277.013045 
L 81.372945 275.213601 
L 82.975085 275.213601 
L 82.887879 272.814343 
L 84.458054 272.814343 
L 84.378738 271.0149 
L 85.923179 271.0149 
L 85.534286 263.217311 
L 87.006646 263.217311 
L 86.747222 258.418794 
L 88.175077 258.418794 
L 87.128571 239.22473 
L 88.423743 239.22473 
L 88.3575 238.0251 
L 90.912431 238.0251 
L 90.525 232.026955 
L 91.758981 232.026955 
L 91.517414 228.428068 
L 92.726053 228.428068 
L 92.557031 226.02881 
L 93.747273 226.02881 
L 92.656204 210.433632 
L 93.768204 210.433632 
L 93.24 202.636043 
L 94.314085 202.636043 
L 94.230841 201.436414 
L 95.295105 201.436414 
L 94.660135 192.439196 
L 95.685169 192.439196 
L 95.556696 190.639753 
L 96.570601 190.639753 
L 95.921767 181.642535 
L 96.9 181.642535 
L 96.640127 178.043648 
L 98.560465 178.043648 
L 98.375472 175.644389 
L 99.321967 175.644389 
L 99.226875 174.44476 
L 101.100622 174.44476 
L 100.798156 170.845873 
L 101.718405 170.845873 
L 101.463158 167.846801 
L 102.370909 167.846801 
L 102.266801 166.647172 
L 103.16747 166.647172 
L 102.489041 158.849583 
L 103.364648 158.849583 
L 103.312281 158.249768 
L 105.050097 158.249768 
L 104.939652 157.050139 
L 105.800386 157.050139 
L 105.687692 155.85051 
L 106.542035 155.85051 
L 106.427151 154.650881 
L 108.961597 154.650881 
L 108.9 154.051066 
L 110.570699 154.051066 
L 110.378571 152.251623 
L 111.204878 152.251623 
L 110.755 148.052921 
L 111.568392 148.052921 
L 111.183729 144.454034 
L 111.985949 144.454034 
L 111.921311 143.854219 
L 113.514338 143.854219 
L 113.447283 143.254405 
L 115.026173 143.254405 
L 114.88759 142.054776 
L 116.45 142.054776 
L 116.165658 139.655518 
L 116.937655 139.655518 
L 116.865957 139.055703 
L 118.399293 139.055703 
L 118.178383 137.25626 
L 120.447378 137.25626 
L 120.218087 135.456816 
L 123.192746 135.456816 
L 123.032014 134.257187 
L 128.12449 134.257187 
L 128.036842 133.657372 
L 129.467513 133.657372 
L 129.378041 133.057558 
L 131.502857 133.057558 
L 131.226923 131.258114 
L 133.321298 131.258114 
L 133.039073 129.458671 
L 133.729587 129.458671 
L 133.635149 128.858856 
L 134.322405 128.858856 
L 134.038033 127.059413 
L 134.720131 127.059413 
L 134.625 126.459598 
L 135.303915 126.459598 
L 135.208143 125.859784 
L 137.898058 125.859784 
L 137.798869 125.259969 
L 139.790836 125.259969 
L 139.587981 124.06034 
L 140.24592 124.06034 
L 140.144089 123.460526 
L 140.799043 123.460526 
L 140.189573 119.861638 
L 140.837224 119.861638 
L 140.634906 118.662009 
L 142.560563 118.662009 
L 142.354446 117.46238 
L 144.257143 117.46238 
L 143.942968 115.662937 
L 144.570833 115.662937 
L 144.465948 115.063122 
L 145.091077 115.063122 
L 144.985714 114.463308 
L 145.608129 114.463308 
L 145.502297 113.863493 
L 146.122018 113.863493 
L 145.909756 112.663864 
L 148.363636 112.663864 
L 148.254917 112.064049 
L 149.469231 112.064049 
L 149.249774 110.86442 
L 149.852703 110.86442 
L 149.633084 109.664791 
L 152.020982 109.664791 
L 151.796884 108.465162 
L 153.564993 108.465162 
L 153.451327 107.865348 
L 154.036524 107.865348 
L 153.9225 107.265533 
L 157.966376 107.265533 
L 157.847965 106.665719 
L 158.418287 106.665719 
L 158.299565 106.065904 
L 158.867583 106.065904 
L 158.62987 104.866275 
L 160.880488 104.866275 
L 160.759599 104.266461 
L 174.766575 104.266461 
L 174.495868 103.066832 
L 177.580328 103.066832 
L 177.442428 102.467017 
L 190.232016 102.467017 
L 189.933114 101.267388 
L 200.51977 101.267388 
L 200.361783 100.667573 
L 201.252351 100.667573 
L 200.936122 99.467944 
L 217.415217 99.467944 
L 217.245235 98.86813 
L 218.048014 98.86813 
L 217.877885 98.268315 
L 220.655542 98.268315 
L 220.483929 97.668501 
L 220.876694 97.668501 
L 220.534164 96.468872 
L 220.925474 96.468872 
L 220.754556 95.869057 
L 233.520819 95.869057 
L 233.342386 95.269243 
L 241.428239 95.269243 
L 241.245796 94.669428 
L 245.301092 94.669428 
L 245.117012 94.069614 
L 260.622671 94.069614 
L 260.432265 93.469799 
L 277.927697 93.469799 
L 277.732136 92.869985 
L 282.165903 92.869985 
L 281.969656 92.27017 
L 286.756701 92.27017 
L 286.559831 91.670355 
L 294.246818 91.670355 
L 294.049046 91.070541 
L 298.629795 91.070541 
L 298.431818 90.470726 
L 309.198379 90.470726 
L 309 89.870912 
L 320.952836 89.870912 
L 320.952836 89.870912 
" style="fill:none;stroke:#1f77b4;stroke-linecap:square;stroke-width:2;"/>
   </g>
   <g id="line2d_46">
    <path clip-path="url(#pa31ab22e62)" d="M 76.5 447.960185 
L 76.5 277.013045 
L 81.423529 277.013045 
L 81.258863 271.0149 
L 82.824 271.0149 
L 82.249091 253.020464 
L 83.664653 253.020464 
L 83.537092 249.421577 
L 84.919527 249.421577 
L 84.89469 248.821762 
L 86.265 248.821762 
L 86.207895 247.622133 
L 88.909012 247.622133 
L 88.661538 243.423431 
L 89.974432 243.423431 
L 89.936261 242.823617 
L 91.238136 242.823617 
L 90.952355 238.624915 
L 92.222652 238.624915 
L 91.92439 234.426213 
L 94.398113 234.426213 
L 93.928346 228.428068 
L 95.124346 228.428068 
L 94.83634 224.829181 
L 96.008483 224.829181 
L 95.567337 219.43085 
L 96.708271 219.43085 
L 96.507692 217.031592 
L 97.632178 217.031592 
L 97.58 216.431777 
L 98.696305 216.431777 
L 98.641769 215.831963 
L 99.75 215.831963 
L 99.693154 215.232148 
L 100.793415 215.232148 
L 100.271599 209.833818 
L 101.344286 209.833818 
L 101.285273 209.234003 
L 102.350474 209.234003 
L 102.228538 208.034374 
L 103.284 208.034374 
L 102.668276 202.036229 
L 103.696101 202.036229 
L 103.448864 199.636971 
L 104.463265 199.636971 
L 104.274324 197.837527 
L 105.277753 197.837527 
L 105.148993 196.637898 
L 106.14375 196.637898 
L 106.077728 196.038083 
L 107.066 196.038083 
L 106.597812 191.839382 
L 107.567686 191.839382 
L 107.298701 189.440124 
L 110.16 189.440124 
L 110.015846 188.240495 
L 110.957692 188.240495 
L 110.884222 187.64068 
L 111.820213 187.64068 
L 111.745223 187.040866 
L 112.675424 187.040866 
L 112.446947 185.241422 
L 115.198117 185.241422 
L 114.876971 182.842164 
L 115.779503 182.842164 
L 115.617526 181.642535 
L 116.512963 181.642535 
L 116.430801 181.04272 
L 118.207362 181.04272 
L 117.953049 179.243277 
L 119.705466 179.243277 
L 119.618182 178.643462 
L 120.4875 178.643462 
L 120.398994 178.043648 
L 121.263253 178.043648 
L 121.173547 177.443833 
L 122.0328 177.443833 
L 121.761233 175.644389 
L 122.6125 175.644389 
L 122.521188 175.044575 
L 125.050394 175.044575 
L 124.95501 174.44476 
L 125.79 174.44476 
L 125.597461 173.245131 
L 130.522587 173.245131 
L 129.700951 168.446615 
L 131.296023 168.446615 
L 131.192439 167.846801 
L 131.984151 167.846801 
L 131.879661 167.246986 
L 132.667105 167.246986 
L 132.561726 166.647172 
L 134.125234 166.647172 
L 133.910615 165.447543 
L 134.685502 165.447543 
L 134.577551 164.847728 
L 135.348333 164.847728 
L 135.131181 163.648099 
L 136.659375 163.648099 
L 136.548991 163.048284 
L 138.816788 163.048284 
L 138.365217 160.649026 
L 139.854152 160.649026 
L 139.74 160.049212 
L 141.215978 160.049212 
L 141.1 159.449397 
L 146.175929 159.449397 
L 145.930159 158.249768 
L 147.353251 158.249768 
L 147.228947 157.649954 
L 148.640035 157.649954 
L 148.388676 156.450325 
L 149.088522 156.450325 
L 148.9625 155.85051 
L 150.352941 155.85051 
L 150.225389 155.250696 
L 152.973756 155.250696 
L 152.842808 154.650881 
L 153.523077 154.650881 
L 153.391638 154.051066 
L 155.415789 154.051066 
L 155.282034 153.451252 
L 155.951269 153.451252 
L 155.817061 152.851437 
L 157.14697 152.851437 
L 156.876342 151.651808 
L 158.193813 151.651808 
L 158.057429 151.051994 
L 160.662687 151.051994 
L 160.523344 150.452179 
L 166.879642 150.452179 
L 166.732683 149.852365 
L 174.683121 149.852365 
L 174.527027 149.25255 
L 176.904739 149.25255 
L 176.746372 148.652736 
L 179.673239 148.652736 
L 179.512031 148.052921 
L 182.390233 148.052921 
L 182.226316 147.453107 
L 184.494462 147.453107 
L 184.328571 146.853292 
L 186.566565 146.853292 
L 186.231507 145.653663 
L 186.785562 145.653663 
L 186.618209 145.053849 
L 189.90406 145.053849 
L 189.733784 144.454034 
L 191.889403 144.454034 
L 191.717437 143.854219 
L 192.784547 143.854219 
L 192.44 142.65459 
L 194.025664 142.65459 
L 193.852577 142.054776 
L 194.3775 142.054776 
L 194.204405 141.454961 
L 202.889398 141.454961 
L 202.708584 140.855147 
L 205.671064 140.855147 
L 205.488102 140.255332 
L 205.976521 140.255332 
L 205.793644 139.655518 
L 209.171329 139.655518 
L 208.986034 139.055703 
L 217.368392 139.055703 
L 216.985598 137.856074 
L 219.684906 137.856074 
L 219.492194 137.25626 
L 220.381611 137.25626 
L 220.18874 136.656445 
L 223.262151 136.656445 
L 223.067507 136.056631 
L 225.654868 136.056631 
L 225.45887 135.456816 
L 228.843433 135.456816 
L 228.645584 134.857002 
L 229.89586 134.857002 
L 229.697674 134.257187 
L 234.6 134.257187 
L 234.399111 133.657372 
L 234.800635 133.657372 
L 234.6 133.057558 
L 249.129141 133.057558 
L 248.920652 132.457743 
L 251.80945 132.457743 
L 251.39105 131.258114 
L 255.270318 131.258114 
L 255.06 130.6583 
L 256.100117 130.6583 
L 255.889813 130.058485 
L 262.967657 130.058485 
L 262.754795 129.458671 
L 267.285843 129.458671 
L 267.071717 128.858856 
L 269.283408 128.858856 
L 269.068966 128.259042 
L 273.99541 128.259042 
L 273.779803 127.659227 
L 274.383333 127.659227 
L 274.168009 127.059413 
L 276.259179 127.059413 
L 276.043689 126.459598 
L 280.705514 126.459598 
L 280.489195 125.859784 
L 289.083692 125.859784 
L 288.865881 125.259969 
L 289.668539 125.259969 
L 289.45102 124.660155 
L 289.983299 124.660155 
L 289.766124 124.06034 
L 292.134375 124.06034 
L 291.917221 123.460526 
L 293.472072 123.460526 
L 293.2551 122.860711 
L 296.560217 122.860711 
L 296.343195 122.260896 
L 299.319298 122.260896 
L 299.102337 121.661082 
L 301.2889 121.661082 
L 301.072131 121.061267 
L 305.332891 121.061267 
L 305.116193 120.461453 
L 313.866575 120.461453 
L 313.65 119.861638 
L 315.368478 119.861638 
L 315.152308 119.261824 
L 318.929386 119.261824 
L 318.713701 118.662009 
L 339.402107 118.662009 
L 339.402107 118.662009 
" style="fill:none;stroke:#ff7f0e;stroke-linecap:square;stroke-width:2;"/>
   </g>
   <g id="line2d_47">
    <path clip-path="url(#pa31ab22e62)" d="M 76.5 447.960185 
L 76.5 387.378918 
L 81.104854 387.378918 
L 80.4525 377.182071 
L 80.419835 376.582257 
L 84.27541 376.582257 
L 83.373913 366.985224 
L 82.542038 355.588748 
L 85.505696 355.588748 
L 85.337888 353.789304 
L 88.211111 353.789304 
L 87.928916 351.390046 
L 90.700599 351.390046 
L 90.051429 346.59153 
L 92.669318 346.59153 
L 91.399476 337.594312 
L 91.169072 335.794869 
L 93.526154 335.794869 
L 92.235071 326.197836 
L 94.398113 326.197836 
L 93.669231 320.799505 
L 95.728378 320.799505 
L 95.556696 319.599876 
L 101.573128 319.599876 
L 100.719574 314.80136 
L 102.626695 314.80136 
L 102.19125 312.402102 
L 104.052697 312.402102 
L 103.492683 309.403029 
L 108.881928 309.403029 
L 108.623904 308.2034 
L 113.846457 308.2034 
L 113.554688 307.003771 
L 116.944186 307.003771 
L 116.47931 305.204328 
L 121.414773 305.204328 
L 121.245283 304.604513 
L 122.86015 304.604513 
L 122.173333 302.205255 
L 125.325 302.205255 
L 124.968613 301.005626 
L 126.517091 301.005626 
L 125.977338 299.206182 
L 127.5 299.206182 
L 127.317857 298.606368 
L 128.824911 298.606368 
L 128.455124 297.406739 
L 129.942254 297.406739 
L 129.754737 296.806924 
L 132.68885 296.806924 
L 132.107586 295.007481 
L 133.546392 295.007481 
L 132.020067 290.208964 
L 144.257143 290.208964 
L 144.037864 289.60915 
L 147.949038 289.60915 
L 147.268571 287.809706 
L 148.54557 287.809706 
L 148.318297 287.209892 
L 149.583962 287.209892 
L 149.354859 286.610077 
L 151.856075 286.610077 
L 151.62205 286.010263 
L 152.857895 286.010263 
L 152.622222 285.410448 
L 156.275229 285.410448 
L 155.790274 284.210819 
L 159.359639 284.210819 
L 158.863473 283.01119 
L 160.033433 283.01119 
L 159.047788 280.611932 
L 160.2 280.611932 
L 158.275862 275.813416 
L 159.400573 275.813416 
L 159.163714 275.213601 
L 161.38892 275.213601 
L 160.909322 274.013972 
L 164.185714 274.013972 
L 163.940782 273.414158 
L 166.09 273.414158 
L 165.595028 272.214529 
L 166.656198 272.214529 
L 166.162192 271.0149 
L 167.213115 271.0149 
L 166.47561 269.215456 
L 167.514324 269.215456 
L 167.025 268.015827 
L 168.053887 268.015827 
L 167.5656 266.816198 
L 169.598674 266.816198 
L 168.62126 264.41694 
L 170.616971 264.41694 
L 170.128052 263.217311 
L 171.114249 263.217311 
L 170.869767 262.617496 
L 171.848969 262.617496 
L 171.117391 260.818053 
L 173.049618 260.818053 
L 172.804569 260.218238 
L 173.761519 260.218238 
L 173.271537 259.018609 
L 176.103 259.018609 
L 174.873333 256.019536 
L 175.799261 256.019536 
L 175.3125 254.819907 
L 178.95801 254.819907 
L 178.709927 254.220093 
L 180.503133 254.220093 
L 180.253125 253.620278 
L 182.026077 253.620278 
L 181.523571 252.420649 
L 183.273697 252.420649 
L 183.021277 251.820835 
L 183.888679 251.820835 
L 183.384507 250.621206 
L 184.244965 250.621206 
L 183.993224 250.021391 
L 184.848252 250.021391 
L 184.345476 248.821762 
L 186.038106 248.821762 
L 185.785714 248.221947 
L 186.624828 248.221947 
L 186.372248 247.622133 
L 188.862642 247.622133 
L 188.353061 246.422504 
L 194.810913 246.422504 
L 194.548 245.822689 
L 195.337916 245.822689 
L 194.293187 243.423431 
L 195.075 243.423431 
L 194.815536 242.823617 
L 196.366667 242.823617 
L 196.106087 242.223802 
L 196.875488 242.223802 
L 196.097198 240.424359 
L 197.619528 240.424359 
L 197.360171 239.824544 
L 200.361783 239.824544 
L 200.099364 239.22473 
L 201.579114 239.22473 
L 201.053571 238.0251 
L 203.24405 238.0251 
L 202.98 237.425286 
L 204.423237 237.425286 
L 204.158385 236.825471 
L 206.298148 236.825471 
L 206.031622 236.225657 
L 206.738115 236.225657 
L 206.471779 235.625842 
L 207.17449 235.625842 
L 206.90835 235.026028 
L 208.996761 235.026028 
L 207.93253 232.62677 
L 209.304 232.62677 
L 208.7749 231.427141 
L 210.132143 231.427141 
L 209.603953 230.227512 
L 211.614931 230.227512 
L 210.561404 227.828253 
L 212.539535 227.828253 
L 212.276402 227.228439 
L 212.929923 227.228439 
L 212.405192 226.02881 
L 214.346272 226.02881 
L 214.083206 225.428995 
L 217.265784 225.428995 
L 217.000189 224.829181 
L 217.628814 224.829181 
L 217.363534 224.229366 
L 218.61236 224.229366 
L 218.346729 223.629552 
L 220.200558 223.629552 
L 219.668333 222.429923 
L 220.280407 222.429923 
L 220.015129 221.830108 
L 220.624309 221.830108 
L 220.095413 220.630479 
L 222.504918 220.630479 
L 222.239455 220.030665 
L 224.611733 220.030665 
L 223.814004 218.231221 
L 225.565714 218.231221 
L 225.3 217.631406 
L 226.456306 217.631406 
L 226.190426 217.031592 
L 229.042882 217.031592 
L 228.508581 215.831963 
L 229.072028 215.831963 
L 228.805759 215.232148 
L 229.366725 215.232148 
L 228.571924 213.432705 
L 229.684974 213.432705 
L 229.420862 212.83289 
L 230.525258 212.83289 
L 230.261063 212.233076 
L 231.356923 212.233076 
L 231.092662 211.633261 
L 231.637308 211.633261 
L 231.373469 211.033447 
L 232.994924 211.033447 
L 232.730574 210.433632 
L 233.266948 210.433632 
L 233.00303 209.833818 
L 234.069463 209.833818 
L 233.805528 209.234003 
L 235.3905 209.234003 
L 235.126123 208.634189 
L 237.213223 208.634189 
L 236.42023 206.834745 
L 237.450984 206.834745 
L 237.187561 206.23493 
L 237.7 206.23493 
L 236.913659 204.435487 
L 237.931118 204.435487 
L 237.669903 203.835672 
L 239.182609 203.835672 
L 238.921061 203.235858 
L 239.421669 203.235858 
L 238.640895 201.436414 
L 239.635032 201.436414 
L 239.117143 200.236785 
L 240.594313 200.236785 
L 240.335489 199.636971 
L 241.797645 199.636971 
L 241.538558 199.037156 
L 244.419876 199.037156 
L 244.159535 198.437342 
L 245.579167 198.437342 
L 245.318644 197.837527 
L 245.788615 197.837527 
L 245.528571 197.237713 
L 249.691364 197.237713 
L 249.429349 196.637898 
L 250.790964 196.637898 
L 250.528872 196.038083 
L 251.877395 196.038083 
L 251.615247 195.438269 
L 252.061791 195.438269 
L 251.800149 194.838454 
L 252.688707 194.838454 
L 252.4273 194.23864 
L 257.218686 194.23864 
L 256.955248 193.638825 
L 258.658696 193.638825 
L 258.132225 192.439196 
L 264.746186 192.439196 
L 264.480677 191.839382 
L 264.883944 191.839382 
L 264.354775 190.639753 
L 265.556643 190.639753 
L 265.292598 190.039938 
L 269.225207 190.039938 
L 268.96011 189.440124 
L 269.733333 189.440124 
L 269.46863 188.840309 
L 269.853488 188.840309 
L 269.589344 188.240495 
L 271.497151 188.240495 
L 271.232927 187.64068 
L 274.970455 187.64068 
L 274.705474 187.040866 
L 278.701579 187.040866 
L 278.435874 186.441051 
L 281.269311 186.441051 
L 281.003377 185.841236 
L 281.702332 185.841236 
L 281.436869 185.241422 
L 282.478222 185.241422 
L 282.213127 184.641607 
L 283.588732 184.641607 
L 283.323913 184.041793 
L 284.346115 184.041793 
L 284.081679 183.441978 
L 284.420584 183.441978 
L 284.156726 182.842164 
L 287.82766 182.842164 
L 287.5635 182.242349 
L 291.453695 182.242349 
L 291.189299 181.642535 
L 293.405488 181.642535 
L 293.141291 181.04272 
L 296.853061 181.04272 
L 296.588849 180.442906 
L 302.542272 180.442906 
L 301.750992 178.643462 
L 302.619767 178.643462 
L 302.357143 178.043648 
L 302.932908 178.043648 
L 302.670833 177.443833 
L 313.387375 177.443833 
L 312.60298 175.644389 
L 313.389109 175.644389 
L 313.128791 175.044575 
L 316.982919 175.044575 
L 316.723218 174.44476 
L 317.479117 174.44476 
L 317.22 173.844946 
L 317.721245 173.844946 
L 317.204711 172.645317 
L 323.53125 172.645317 
L 323.274194 172.045502 
L 324.685936 172.045502 
L 324.429545 171.445688 
L 325.361111 171.445688 
L 325.105344 170.845873 
L 333.373366 170.845873 
L 332.865711 169.646244 
L 336.257685 169.646244 
L 336.005248 169.04643 
L 342.679661 169.04643 
L 342.429257 168.446615 
L 347.590734 168.446615 
L 347.342255 167.846801 
L 351.00486 167.846801 
L 350.758004 167.246986 
L 356.013047 167.246986 
L 355.768504 166.647172 
L 360.431939 166.647172 
L 360.189676 166.047357 
L 369.030024 166.047357 
L 368.792195 165.447543 
L 369.382172 165.447543 
L 369.382172 165.447543 
" style="fill:none;stroke:#2ca02c;stroke-linecap:square;stroke-width:2;"/>
   </g>
   <g id="line2d_48">
    <path clip-path="url(#pa31ab22e62)" d="M 76.5 447.960185 
L 76.5 447.360371 
L 234.6 447.360371 
L 195.075 446.760556 
L 266.22 446.760556 
L 234.6 446.160742 
L 212.014286 445.560927 
L 195.075 444.961113 
L 181.9 444.361298 
L 162.736364 443.161669 
L 149.469231 441.96204 
L 139.74 440.762411 
L 132.3 439.562782 
L 126.426316 438.363153 
L 121.671429 437.163524 
L 117.743478 435.963895 
L 114.444 434.764266 
L 111.633333 433.564637 
L 108.12 431.765193 
L 105.245455 429.96575 
L 102.85 428.166306 
L 100.823077 426.366862 
L 100.215 425.767048 
L 111.204878 425.767048 
L 108.838636 423.967604 
L 106.774468 422.168161 
L 104.4 419.768903 
L 102.370909 417.369645 
L 100.616949 414.970386 
L 98.732812 411.971314 
L 97.121739 408.972241 
L 95.472 405.373354 
L 94.28625 402.374281 
L 105.420732 402.374281 
L 103.448864 398.775394 
L 101.728723 395.176507 
L 99.980198 390.977805 
L 98.256881 386.179289 
L 96.769231 381.380773 
L 95.321429 375.982442 
L 93.9375 369.984297 
L 93.439286 367.585039 
L 96.682979 367.585039 
L 96.540845 366.985224 
L 99.717483 366.985224 
L 98.933108 363.986151 
L 101.965772 363.986151 
L 101.796 363.386337 
L 104.769536 363.386337 
L 103.689172 359.78745 
L 109.313208 359.78745 
L 109.108125 359.187635 
L 117.237423 359.187635 
L 116.989024 358.587821 
L 119.618182 358.587821 
L 119.101796 357.388192 
L 121.671429 357.388192 
L 119.864571 353.18949 
L 122.313068 353.18949 
L 121.295 350.790232 
L 126.014835 350.790232 
L 125.47663 349.590603 
L 127.775676 349.590603 
L 125.650259 344.792087 
L 127.841753 344.792087 
L 127.578462 344.192272 
L 129.737755 344.192272 
L 128.413433 341.193199 
L 132.574877 341.193199 
L 130.965072 337.594312 
L 132.964286 337.594312 
L 132.169014 335.794869 
L 134.125234 335.794869 
L 133.591667 334.59524 
L 137.419266 334.59524 
L 136.321622 332.195981 
L 138.180269 332.195981 
L 137.632 330.996352 
L 139.460177 330.996352 
L 139.182819 330.396538 
L 142.777729 330.396538 
L 141.639914 327.99728 
L 145.122128 327.99728 
L 144.831356 327.397465 
L 146.544304 327.397465 
L 145.66875 325.598022 
L 152.310246 325.598022 
L 151.389474 323.798578 
L 156.1824 323.798578 
L 153.117692 317.800433 
L 152.243726 316.000989 
L 156.738722 316.000989 
L 156.438202 315.401175 
L 157.909701 315.401175 
L 157.607063 314.80136 
L 161.94375 314.80136 
L 161.630769 314.201546 
L 163.051095 314.201546 
L 162.736364 313.601731 
L 168.3 313.601731 
L 167.972143 313.001917 
L 169.33452 313.001917 
L 168.353873 311.202473 
L 171.028322 311.202473 
L 170.371875 310.002844 
L 171.688235 310.002844 
L 171.36 309.403029 
L 176.522449 309.403029 
L 175.179866 307.003771 
L 177.684 307.003771 
L 176.682178 305.204328 
L 179.13541 305.204328 
L 178.8 304.604513 
L 180.011726 304.604513 
L 179.01 302.80507 
L 182.573482 302.80507 
L 182.235669 302.205255 
L 186.871698 302.205255 
L 186.525705 301.60544 
L 191.036842 301.60544 
L 190.683333 301.005626 
L 192.892638 301.005626 
L 192.536697 300.405811 
L 198.991892 300.405811 
L 198.62515 299.805997 
L 199.676418 299.805997 
L 199.309821 299.206182 
L 200.352819 299.206182 
L 199.986391 298.606368 
L 202.05 298.606368 
L 200.590116 296.20711 
L 201.605217 296.20711 
L 201.243642 295.607295 
L 202.251009 295.607295 
L 201.530372 294.407666 
L 203.520513 294.407666 
L 203.159659 293.807852 
L 205.123729 293.807852 
L 204.761408 293.208037 
L 206.7 293.208037 
L 206.336313 292.608223 
L 209.198892 292.608223 
L 208.83232 292.008408 
L 210.711264 292.008408 
L 209.977869 290.808779 
L 212.74878 290.808779 
L 212.380541 290.208964 
L 214.2 290.208964 
L 213.463636 289.009335 
L 217.913984 289.009335 
L 217.171654 287.809706 
L 223.190722 287.809706 
L 221.693878 285.410448 
L 223.364467 285.410448 
L 222.992658 284.810634 
L 224.644081 284.810634 
L 224.271859 284.210819 
L 225.090226 284.210819 
L 224.349127 283.01119 
L 225.161194 283.01119 
L 224.792308 282.411376 
L 227.201232 282.411376 
L 226.830958 281.811561 
L 228.415159 281.811561 
L 227.675912 280.611932 
L 228.460194 280.611932 
L 227.726087 279.412303 
L 229.279327 279.412303 
L 228.548325 278.212674 
L 230.082857 278.212674 
L 229.354976 277.013045 
L 237.521016 277.013045 
L 237.15 276.41323 
L 240.014384 276.41323 
L 239.641913 275.813416 
L 241.753846 275.813416 
L 241.380813 275.213601 
L 244.834152 275.213601 
L 244.086 274.013972 
L 245.443142 274.013972 
L 245.070199 273.414158 
L 246.414066 273.414158 
L 246.041447 272.814343 
L 246.708315 272.814343 
L 244.866234 269.81527 
L 248.788462 269.81527 
L 248.421109 269.215456 
L 249.064468 269.215456 
L 247.969979 267.416012 
L 253.624481 267.416012 
L 253.257764 266.816198 
L 254.484742 266.816198 
L 254.118519 266.216383 
L 256.540408 266.216383 
L 255.808537 265.016754 
L 259.362651 265.016754 
L 258.996192 264.41694 
L 264.729077 264.41694 
L 264.36 263.817125 
L 266.589105 263.817125 
L 265.486074 262.017682 
L 266.036873 262.017682 
L 265.307885 260.818053 
L 267.487214 260.818053 
L 266.761027 259.618423 
L 268.371834 259.618423 
L 268.009811 259.018609 
L 269.072932 259.018609 
L 268.711632 258.418794 
L 270.290485 258.418794 
L 269.929609 257.81898 
L 270.451673 257.81898 
L 270.091837 257.219165 
L 271.645572 257.219165 
L 271.286188 256.619351 
L 272.821978 256.619351 
L 271.74918 254.819907 
L 274.26769 254.819907 
L 273.911351 254.220093 
L 275.892665 254.220093 
L 275.536607 253.620278 
L 282.717391 253.620278 
L 282.359375 253.020464 
L 282.82461 253.020464 
L 282.467647 252.420649 
L 283.392931 252.420649 
L 283.036833 251.820835 
L 283.955403 251.820835 
L 283.246154 250.621206 
L 286.855649 250.621206 
L 286.501515 250.021391 
L 288.269398 250.021391 
L 287.5635 248.821762 
L 293.565635 248.821762 
L 293.212683 248.221947 
L 294.04765 248.221947 
L 292.995 246.422504 
L 294.236437 246.422504 
L 293.8875 245.822689 
L 297.540284 245.822689 
L 297.19164 245.222875 
L 297.591024 245.222875 
L 297.243396 244.62306 
L 298.828125 244.62306 
L 298.481279 244.023246 
L 303.11807 244.023246 
L 302.77156 243.423431 
L 303.150229 243.423431 
L 302.460274 242.223802 
L 303.213961 242.223802 
L 302.870455 241.623988 
L 306.570896 241.623988 
L 305.886161 240.424359 
L 309.122907 240.424359 
L 308.781818 239.824544 
L 312.279191 239.824544 
L 311.938961 239.22473 
L 312.968534 239.22473 
L 312.290974 238.0251 
L 314.993626 238.0251 
L 314.656294 237.425286 
L 318.92 237.425286 
L 318.583773 236.825471 
L 319.864966 236.825471 
L 319.529752 236.225657 
L 320.16511 236.225657 
L 319.497534 235.026028 
L 321.694437 235.026028 
L 321.030853 233.826399 
L 321.959838 233.826399 
L 321.629475 233.226584 
L 322.551072 233.226584 
L 322.221687 232.62677 
L 324.643709 232.62677 
L 324.315476 232.026955 
L 328.72179 232.026955 
L 328.395078 231.427141 
L 329.826255 231.427141 
L 329.500643 230.827326 
L 332.031385 230.827326 
L 331.38365 229.627697 
L 331.938432 229.627697 
L 331.615909 229.027883 
L 331.892308 229.027883 
L 331.570655 228.428068 
L 332.121482 228.428068 
L 331.800753 227.828253 
L 332.075188 227.828253 
L 331.43625 226.628624 
L 332.798758 226.628624 
L 332.480769 226.02881 
L 334.891656 226.02881 
L 334.575 225.428995 
L 337.451028 225.428995 
L 337.13587 224.829181 
L 345.801275 224.829181 
L 344.558824 222.429923 
L 345.27 222.429923 
L 344.653555 221.230294 
L 344.889691 221.230294 
L 344.582609 220.630479 
L 345.755631 220.630479 
L 345.449659 220.030665 
L 354.804013 220.030665 
L 354.502492 219.43085 
L 355.349515 219.43085 
L 355.04903 218.831036 
L 359.783281 218.831036 
L 359.485714 218.231221 
L 360.286192 218.231221 
L 359.989655 217.631406 
L 366.163498 217.631406 
L 365.870909 217.031592 
L 370.603346 217.031592 
L 370.314159 216.431777 
L 381.625714 216.431777 
L 381.344751 215.831963 
L 381.65625 215.831963 
L 381.376033 215.232148 
L 388.242555 215.232148 
L 387.968134 214.632334 
L 393.640272 214.632334 
L 393.371053 214.032519 
L 395.350461 214.032519 
L 395.083417 213.432705 
L 400.130956 213.432705 
L 400.130956 213.432705 
" style="fill:none;stroke:#d62728;stroke-linecap:square;stroke-width:2;"/>
   </g>
   <g id="line2d_49">
    <path clip-path="url(#pa31ab22e62)" d="M 76.5 447.960185 
L 76.5 342.392828 
L 79.164607 342.392828 
L 79.135 341.193199 
L 81.740884 341.193199 
L 81.364615 332.795796 
L 88.477273 332.795796 
L 88.182266 329.796723 
L 90.45 329.796723 
L 89.494521 320.799505 
L 91.591364 320.799505 
L 91.321875 318.400247 
L 93.364 318.400247 
L 92.05082 307.003771 
L 91.264202 299.206182 
L 93.045349 299.206182 
L 92.48764 293.807852 
L 94.197761 293.807852 
L 92.855172 280.611932 
L 92.743151 279.412303 
L 94.306485 279.412303 
L 92.95836 265.016754 
L 92.855172 263.817125 
L 94.28625 263.817125 
L 94.121053 262.017682 
L 95.530556 262.017682 
L 95.071988 257.219165 
L 96.440541 257.219165 
L 95.310765 245.222875 
L 96.597458 245.222875 
L 96.153315 240.424359 
L 97.405785 240.424359 
L 95.908696 223.629552 
L 95.760914 221.830108 
L 96.912911 221.830108 
L 96.810076 220.630479 
L 97.950754 220.630479 
L 97.476413 215.232148 
L 98.5875 215.232148 
L 97.506294 202.636043 
L 98.560465 202.636043 
L 98.256881 199.037156 
L 99.292449 199.037156 
L 98.683296 191.839382 
L 99.688 191.839382 
L 99.534437 190.039938 
L 100.528414 190.039938 
L 100.423026 188.840309 
L 101.408534 188.840309 
L 101.138961 185.841236 
L 102.110151 185.841236 
L 101.836538 182.842164 
L 102.793817 182.842164 
L 102.407143 178.643462 
L 103.34717 178.643462 
L 103.291004 178.043648 
L 106.082121 178.043648 
L 106.020747 177.443833 
L 106.941615 177.443833 
L 106.816082 176.244204 
L 108.639425 176.244204 
L 108.442653 174.44476 
L 109.343585 174.44476 
L 109.276829 173.844946 
L 111.064372 173.844946 
L 110.786747 171.445688 
L 111.668537 171.445688 
L 111.458367 169.646244 
L 113.201786 169.646244 
L 113.056719 168.446615 
L 113.920118 168.446615 
L 113.7 166.647172 
L 114.555382 166.647172 
L 114.333268 164.847728 
L 117.703668 164.847728 
L 117.624277 164.247913 
L 118.457308 164.247913 
L 118.376775 163.648099 
L 122.487262 163.648099 
L 121.629291 157.649954 
L 122.428492 157.649954 
L 122.173333 155.85051 
L 124.541436 155.85051 
L 124.277473 154.051066 
L 125.834124 154.051066 
L 125.744262 153.451252 
L 128.054348 153.451252 
L 127.961121 152.851437 
L 128.724368 152.851437 
L 128.443088 151.051994 
L 129.2 151.051994 
L 128.918182 149.25255 
L 129.668861 149.25255 
L 129.574423 148.652736 
L 130.321277 148.652736 
L 130.131095 147.453107 
L 131.612324 147.453107 
L 131.515466 146.853292 
L 132.984063 146.853292 
L 132.885315 146.253478 
L 133.61466 146.253478 
L 133.515157 145.653663 
L 134.24087 145.653663 
L 134.140625 145.053849 
L 136.299482 145.053849 
L 135.991237 143.254405 
L 136.702744 143.254405 
L 136.599658 142.65459 
L 143.572727 142.65459 
L 143.347651 141.454961 
L 144.030151 141.454961 
L 143.917224 140.855147 
L 144.596494 140.855147 
L 144.483 140.255332 
L 145.159068 140.255332 
L 145.045017 139.655518 
L 153.621951 139.655518 
L 153.371961 138.455889 
L 155.295 138.455889 
L 155.168116 137.856074 
L 155.80418 137.856074 
L 155.297444 135.456816 
L 156.557006 135.456816 
L 156.42973 134.857002 
L 157.055714 134.857002 
L 156.800791 133.657372 
L 158.043691 133.657372 
L 157.915276 133.057558 
L 158.533019 133.057558 
L 158.404239 132.457743 
L 160.852886 132.457743 
L 160.721495 131.857929 
L 162.535814 131.857929 
L 162.402632 131.258114 
L 163.601389 131.258114 
L 163.46718 130.6583 
L 167.600305 130.6583 
L 167.461644 130.058485 
L 170.356949 130.058485 
L 170.215385 129.458671 
L 177.53432 129.458671 
L 177.385081 128.858856 
L 180.122727 128.858856 
L 179.97101 128.259042 
L 180.513158 128.259042 
L 180.361314 127.659227 
L 180.901312 127.659227 
L 180.749345 127.059413 
L 184.481844 127.059413 
L 184.326475 126.459598 
L 190.036402 126.459598 
L 189.875813 125.859784 
L 190.893935 125.859784 
L 190.732817 125.259969 
L 191.239241 125.259969 
L 191.07809 124.660155 
L 196.551037 124.660155 
L 196.385221 124.06034 
L 197.84773 124.06034 
L 197.349041 122.260896 
L 199.753469 122.260896 
L 199.586005 121.661082 
L 201.484459 121.661082 
L 201.315789 121.061267 
L 204.122892 121.061267 
L 203.782109 119.861638 
L 210.595288 119.861638 
L 210.42 119.261824 
L 218.244828 119.261824 
L 218.064031 118.662009 
L 219.753046 118.662009 
L 219.571483 118.062195 
L 220.826136 118.062195 
L 220.644136 117.46238 
L 221.05995 117.46238 
L 220.878113 116.862566 
L 222.118421 116.862566 
L 221.93617 116.262751 
L 224.792308 116.262751 
L 224.425248 115.063122 
L 233.839904 115.063122 
L 233.65102 114.463308 
L 236.293929 114.463308 
L 236.103924 113.863493 
L 237.593609 113.863493 
L 237.403191 113.263679 
L 246.398507 113.263679 
L 246.20367 112.663864 
L 246.900686 112.663864 
L 246.705943 112.064049 
L 247.053082 112.064049 
L 246.664579 110.86442 
L 248.38675 110.86442 
L 248.192308 110.264606 
L 271.567015 110.264606 
L 271.363608 109.664791 
L 283.888147 109.664791 
L 283.681791 109.064977 
L 284.212314 109.064977 
L 284.00625 108.465162 
L 295.407692 108.465162 
L 295.2 107.865348 
L 297.125424 107.865348 
L 296.917874 107.265533 
L 299.049347 107.265533 
L 298.841938 106.665719 
L 300.243003 106.665719 
L 300.035833 106.065904 
L 300.961162 106.065904 
L 300.754286 105.46609 
L 307.917637 105.46609 
L 307.710644 104.866275 
L 319.503064 104.866275 
L 319.296429 104.266461 
L 330.177472 104.266461 
L 330.177472 104.266461 
" style="fill:none;stroke:#9467bd;stroke-linecap:square;stroke-width:2;"/>
   </g>
   <g id="patch_3">
    <path d="M 76.5 448.56 
L 76.5 60.48 
" style="fill:none;stroke:#000000;stroke-linecap:square;stroke-linejoin:miter;stroke-width:0.8;"/>
   </g>
   <g id="patch_4">
    <path d="M 550.8 448.56 
L 550.8 60.48 
" style="fill:none;stroke:#000000;stroke-linecap:square;stroke-linejoin:miter;stroke-width:0.8;"/>
   </g>
   <g id="patch_5">
    <path d="M 76.5 448.56 
L 550.8 448.56 
" style="fill:none;stroke:#000000;stroke-linecap:square;stroke-linejoin:miter;stroke-width:0.8;"/>
   </g>
   <g id="patch_6">
    <path d="M 76.5 60.48 
L 550.8 60.48 
" style="fill:none;stroke:#000000;stroke-linecap:square;stroke-linejoin:miter;stroke-width:0.8;"/>
   </g>
   <g id="text_25">
    <!-- bikes: img1-img3 -->
    <defs>
     <path d="M 48.6875 27.296875 
Q 48.6875 37.203125 44.609375 42.84375 
Q 40.53125 48.484375 33.40625 48.484375 
Q 26.265625 48.484375 22.1875 42.84375 
Q 18.109375 37.203125 18.109375 27.296875 
Q 18.109375 17.390625 22.1875 11.75 
Q 26.265625 6.109375 33.40625 6.109375 
Q 40.53125 6.109375 44.609375 11.75 
Q 48.6875 17.390625 48.6875 27.296875 
z
M 18.109375 46.390625 
Q 20.953125 51.265625 25.265625 53.625 
Q 29.59375 56 35.59375 56 
Q 45.5625 56 51.78125 48.09375 
Q 58.015625 40.1875 58.015625 27.296875 
Q 58.015625 14.40625 51.78125 6.484375 
Q 45.5625 -1.421875 35.59375 -1.421875 
Q 29.59375 -1.421875 25.265625 0.953125 
Q 20.953125 3.328125 18.109375 8.203125 
L 18.109375 0 
L 9.078125 0 
L 9.078125 75.984375 
L 18.109375 75.984375 
z
" id="DejaVuSans-98"/>
     <path d="M 9.078125 75.984375 
L 18.109375 75.984375 
L 18.109375 31.109375 
L 44.921875 54.6875 
L 56.390625 54.6875 
L 27.390625 29.109375 
L 57.625 0 
L 45.90625 0 
L 18.109375 26.703125 
L 18.109375 0 
L 9.078125 0 
z
" id="DejaVuSans-107"/>
     <path d="M 11.71875 12.40625 
L 22.015625 12.40625 
L 22.015625 0 
L 11.71875 0 
z
M 11.71875 51.703125 
L 22.015625 51.703125 
L 22.015625 39.3125 
L 11.71875 39.3125 
z
" id="DejaVuSans-58"/>
     <path id="DejaVuSans-32"/>
     <path d="M 52 44.1875 
Q 55.375 50.25 60.0625 53.125 
Q 64.75 56 71.09375 56 
Q 79.640625 56 84.28125 50.015625 
Q 88.921875 44.046875 88.921875 33.015625 
L 88.921875 0 
L 79.890625 0 
L 79.890625 32.71875 
Q 79.890625 40.578125 77.09375 44.375 
Q 74.3125 48.1875 68.609375 48.1875 
Q 61.625 48.1875 57.5625 43.546875 
Q 53.515625 38.921875 53.515625 30.90625 
L 53.515625 0 
L 44.484375 0 
L 44.484375 32.71875 
Q 44.484375 40.625 41.703125 44.40625 
Q 38.921875 48.1875 33.109375 48.1875 
Q 26.21875 48.1875 22.15625 43.53125 
Q 18.109375 38.875 18.109375 30.90625 
L 18.109375 0 
L 9.078125 0 
L 9.078125 54.6875 
L 18.109375 54.6875 
L 18.109375 46.1875 
Q 21.1875 51.21875 25.484375 53.609375 
Q 29.78125 56 35.6875 56 
Q 41.65625 56 45.828125 52.96875 
Q 50 49.953125 52 44.1875 
z
" id="DejaVuSans-109"/>
     <path d="M 45.40625 27.984375 
Q 45.40625 37.75 41.375 43.109375 
Q 37.359375 48.484375 30.078125 48.484375 
Q 22.859375 48.484375 18.828125 43.109375 
Q 14.796875 37.75 14.796875 27.984375 
Q 14.796875 18.265625 18.828125 12.890625 
Q 22.859375 7.515625 30.078125 7.515625 
Q 37.359375 7.515625 41.375 12.890625 
Q 45.40625 18.265625 45.40625 27.984375 
z
M 54.390625 6.78125 
Q 54.390625 -7.171875 48.1875 -13.984375 
Q 42 -20.796875 29.203125 -20.796875 
Q 24.46875 -20.796875 20.265625 -20.09375 
Q 16.0625 -19.390625 12.109375 -17.921875 
L 12.109375 -9.1875 
Q 16.0625 -11.328125 19.921875 -12.34375 
Q 23.78125 -13.375 27.78125 -13.375 
Q 36.625 -13.375 41.015625 -8.765625 
Q 45.40625 -4.15625 45.40625 5.171875 
L 45.40625 9.625 
Q 42.625 4.78125 38.28125 2.390625 
Q 33.9375 0 27.875 0 
Q 17.828125 0 11.671875 7.65625 
Q 5.515625 15.328125 5.515625 27.984375 
Q 5.515625 40.671875 11.671875 48.328125 
Q 17.828125 56 27.875 56 
Q 33.9375 56 38.28125 53.609375 
Q 42.625 51.21875 45.40625 46.390625 
L 45.40625 54.6875 
L 54.390625 54.6875 
z
" id="DejaVuSans-103"/>
    </defs>
    <g transform="translate(261.73125 41.042625)scale(0.12 -0.12)">
     <use xlink:href="#DejaVuSans-98"/>
     <use x="63.476562" xlink:href="#DejaVuSans-105"/>
     <use x="91.259766" xlink:href="#DejaVuSans-107"/>
     <use x="145.544922" xlink:href="#DejaVuSans-101"/>
     <use x="207.068359" xlink:href="#DejaVuSans-115"/>
     <use x="259.167969" xlink:href="#DejaVuSans-58"/>
     <use x="292.859375" xlink:href="#DejaVuSans-32"/>
     <use x="324.646484" xlink:href="#DejaVuSans-105"/>
     <use x="352.429688" xlink:href="#DejaVuSans-109"/>
     <use x="449.841797" xlink:href="#DejaVuSans-103"/>
     <use x="513.318359" xlink:href="#DejaVuSans-49"/>
     <use x="576.941406" xlink:href="#DejaVuSans-45"/>
     <use x="613.025391" xlink:href="#DejaVuSans-105"/>
     <use x="640.808594" xlink:href="#DejaVuSans-109"/>
     <use x="738.220703" xlink:href="#DejaVuSans-103"/>
     <use x="801.697266" xlink:href="#DejaVuSans-51"/>
    </g>
    <!-- NearestNeighbours -->
    <defs>
     <path d="M 9.8125 72.90625 
L 23.09375 72.90625 
L 55.421875 11.921875 
L 55.421875 72.90625 
L 64.984375 72.90625 
L 64.984375 0 
L 51.703125 0 
L 19.390625 60.984375 
L 19.390625 0 
L 9.8125 0 
z
" id="DejaVuSans-78"/>
     <path d="M 34.28125 27.484375 
Q 23.390625 27.484375 19.1875 25 
Q 14.984375 22.515625 14.984375 16.5 
Q 14.984375 11.71875 18.140625 8.90625 
Q 21.296875 6.109375 26.703125 6.109375 
Q 34.1875 6.109375 38.703125 11.40625 
Q 43.21875 16.703125 43.21875 25.484375 
L 43.21875 27.484375 
z
M 52.203125 31.203125 
L 52.203125 0 
L 43.21875 0 
L 43.21875 8.296875 
Q 40.140625 3.328125 35.546875 0.953125 
Q 30.953125 -1.421875 24.3125 -1.421875 
Q 15.921875 -1.421875 10.953125 3.296875 
Q 6 8.015625 6 15.921875 
Q 6 25.140625 12.171875 29.828125 
Q 18.359375 34.515625 30.609375 34.515625 
L 43.21875 34.515625 
L 43.21875 35.40625 
Q 43.21875 41.609375 39.140625 45 
Q 35.0625 48.390625 27.6875 48.390625 
Q 23 48.390625 18.546875 47.265625 
Q 14.109375 46.140625 10.015625 43.890625 
L 10.015625 52.203125 
Q 14.9375 54.109375 19.578125 55.046875 
Q 24.21875 56 28.609375 56 
Q 40.484375 56 46.34375 49.84375 
Q 52.203125 43.703125 52.203125 31.203125 
z
" id="DejaVuSans-97"/>
     <path d="M 54.890625 33.015625 
L 54.890625 0 
L 45.90625 0 
L 45.90625 32.71875 
Q 45.90625 40.484375 42.875 44.328125 
Q 39.84375 48.1875 33.796875 48.1875 
Q 26.515625 48.1875 22.3125 43.546875 
Q 18.109375 38.921875 18.109375 30.90625 
L 18.109375 0 
L 9.078125 0 
L 9.078125 75.984375 
L 18.109375 75.984375 
L 18.109375 46.1875 
Q 21.34375 51.125 25.703125 53.5625 
Q 30.078125 56 35.796875 56 
Q 45.21875 56 50.046875 50.171875 
Q 54.890625 44.34375 54.890625 33.015625 
z
" id="DejaVuSans-104"/>
     <path d="M 8.5 21.578125 
L 8.5 54.6875 
L 17.484375 54.6875 
L 17.484375 21.921875 
Q 17.484375 14.15625 20.5 10.265625 
Q 23.53125 6.390625 29.59375 6.390625 
Q 36.859375 6.390625 41.078125 11.03125 
Q 45.3125 15.671875 45.3125 23.6875 
L 45.3125 54.6875 
L 54.296875 54.6875 
L 54.296875 0 
L 45.3125 0 
L 45.3125 8.40625 
Q 42.046875 3.421875 37.71875 1 
Q 33.40625 -1.421875 27.6875 -1.421875 
Q 18.265625 -1.421875 13.375 4.4375 
Q 8.5 10.296875 8.5 21.578125 
z
M 31.109375 56 
z
" id="DejaVuSans-117"/>
    </defs>
    <g transform="translate(255.957188 54.48)scale(0.12 -0.12)">
     <use xlink:href="#DejaVuSans-78"/>
     <use x="74.804688" xlink:href="#DejaVuSans-101"/>
     <use x="136.328125" xlink:href="#DejaVuSans-97"/>
     <use x="197.607422" xlink:href="#DejaVuSans-114"/>
     <use x="236.470703" xlink:href="#DejaVuSans-101"/>
     <use x="297.994141" xlink:href="#DejaVuSans-115"/>
     <use x="350.09375" xlink:href="#DejaVuSans-116"/>
     <use x="389.302734" xlink:href="#DejaVuSans-78"/>
     <use x="464.107422" xlink:href="#DejaVuSans-101"/>
     <use x="525.630859" xlink:href="#DejaVuSans-105"/>
     <use x="553.414062" xlink:href="#DejaVuSans-103"/>
     <use x="616.890625" xlink:href="#DejaVuSans-104"/>
     <use x="680.269531" xlink:href="#DejaVuSans-98"/>
     <use x="743.746094" xlink:href="#DejaVuSans-111"/>
     <use x="804.927734" xlink:href="#DejaVuSans-117"/>
     <use x="868.306641" xlink:href="#DejaVuSans-114"/>
     <use x="909.419922" xlink:href="#DejaVuSans-115"/>
    </g>
   </g>
   <g id="legend_1">
    <g id="patch_7">
     <path d="M 362.659375 141.870625 
L 543.8 141.870625 
Q 545.8 141.870625 545.8 139.870625 
L 545.8 67.48 
Q 545.8 65.48 543.8 65.48 
L 362.659375 65.48 
Q 360.659375 65.48 360.659375 67.48 
L 360.659375 139.870625 
Q 360.659375 141.870625 362.659375 141.870625 
z
" style="fill:#ffffff;opacity:0.8;stroke:#cccccc;stroke-linejoin:miter;"/>
    </g>
    <g id="line2d_50">
     <path d="M 364.659375 73.578438 
L 384.659375 73.578438 
" style="fill:none;stroke:#1f77b4;stroke-linecap:square;stroke-width:2;"/>
    </g>
    <g id="line2d_51"/>
    <g id="text_26">
     <!-- root-cvsift AP: 88.4, %In: 48.5 -->
     <defs>
      <path d="M 2.984375 54.6875 
L 12.5 54.6875 
L 29.59375 8.796875 
L 46.6875 54.6875 
L 56.203125 54.6875 
L 35.6875 0 
L 23.484375 0 
z
" id="DejaVuSans-118"/>
      <path d="M 37.109375 75.984375 
L 37.109375 68.5 
L 28.515625 68.5 
Q 23.6875 68.5 21.796875 66.546875 
Q 19.921875 64.59375 19.921875 59.515625 
L 19.921875 54.6875 
L 34.71875 54.6875 
L 34.71875 47.703125 
L 19.921875 47.703125 
L 19.921875 0 
L 10.890625 0 
L 10.890625 47.703125 
L 2.296875 47.703125 
L 2.296875 54.6875 
L 10.890625 54.6875 
L 10.890625 58.5 
Q 10.890625 67.625 15.140625 71.796875 
Q 19.390625 75.984375 28.609375 75.984375 
z
" id="DejaVuSans-102"/>
      <path d="M 34.1875 63.1875 
L 20.796875 26.90625 
L 47.609375 26.90625 
z
M 28.609375 72.90625 
L 39.796875 72.90625 
L 67.578125 0 
L 57.328125 0 
L 50.6875 18.703125 
L 17.828125 18.703125 
L 11.1875 0 
L 0.78125 0 
z
" id="DejaVuSans-65"/>
      <path d="M 19.671875 64.796875 
L 19.671875 37.40625 
L 32.078125 37.40625 
Q 38.96875 37.40625 42.71875 40.96875 
Q 46.484375 44.53125 46.484375 51.125 
Q 46.484375 57.671875 42.71875 61.234375 
Q 38.96875 64.796875 32.078125 64.796875 
z
M 9.8125 72.90625 
L 32.078125 72.90625 
Q 44.34375 72.90625 50.609375 67.359375 
Q 56.890625 61.8125 56.890625 51.125 
Q 56.890625 40.328125 50.609375 34.8125 
Q 44.34375 29.296875 32.078125 29.296875 
L 19.671875 29.296875 
L 19.671875 0 
L 9.8125 0 
z
" id="DejaVuSans-80"/>
      <path d="M 11.71875 12.40625 
L 22.015625 12.40625 
L 22.015625 4 
L 14.015625 -11.625 
L 7.71875 -11.625 
L 11.71875 4 
z
" id="DejaVuSans-44"/>
      <path d="M 72.703125 32.078125 
Q 68.453125 32.078125 66.03125 28.46875 
Q 63.625 24.859375 63.625 18.40625 
Q 63.625 12.0625 66.03125 8.421875 
Q 68.453125 4.78125 72.703125 4.78125 
Q 76.859375 4.78125 79.265625 8.421875 
Q 81.6875 12.0625 81.6875 18.40625 
Q 81.6875 24.8125 79.265625 28.4375 
Q 76.859375 32.078125 72.703125 32.078125 
z
M 72.703125 38.28125 
Q 80.421875 38.28125 84.953125 32.90625 
Q 89.5 27.546875 89.5 18.40625 
Q 89.5 9.28125 84.9375 3.921875 
Q 80.375 -1.421875 72.703125 -1.421875 
Q 64.890625 -1.421875 60.34375 3.921875 
Q 55.8125 9.28125 55.8125 18.40625 
Q 55.8125 27.59375 60.375 32.9375 
Q 64.9375 38.28125 72.703125 38.28125 
z
M 22.3125 68.015625 
Q 18.109375 68.015625 15.6875 64.375 
Q 13.28125 60.75 13.28125 54.390625 
Q 13.28125 47.953125 15.671875 44.328125 
Q 18.0625 40.71875 22.3125 40.71875 
Q 26.5625 40.71875 28.96875 44.328125 
Q 31.390625 47.953125 31.390625 54.390625 
Q 31.390625 60.6875 28.953125 64.34375 
Q 26.515625 68.015625 22.3125 68.015625 
z
M 66.40625 74.21875 
L 74.21875 74.21875 
L 28.609375 -1.421875 
L 20.796875 -1.421875 
z
M 22.3125 74.21875 
Q 30.03125 74.21875 34.609375 68.875 
Q 39.203125 63.53125 39.203125 54.390625 
Q 39.203125 45.171875 34.640625 39.84375 
Q 30.078125 34.515625 22.3125 34.515625 
Q 14.546875 34.515625 10.03125 39.859375 
Q 5.515625 45.21875 5.515625 54.390625 
Q 5.515625 63.484375 10.046875 68.84375 
Q 14.59375 74.21875 22.3125 74.21875 
z
" id="DejaVuSans-37"/>
      <path d="M 9.8125 72.90625 
L 19.671875 72.90625 
L 19.671875 0 
L 9.8125 0 
z
" id="DejaVuSans-73"/>
     </defs>
     <g transform="translate(392.659375 77.078438)scale(0.1 -0.1)">
      <use xlink:href="#DejaVuSans-114"/>
      <use x="38.863281" xlink:href="#DejaVuSans-111"/>
      <use x="100.044922" xlink:href="#DejaVuSans-111"/>
      <use x="161.226562" xlink:href="#DejaVuSans-116"/>
      <use x="200.435547" xlink:href="#DejaVuSans-45"/>
      <use x="236.519531" xlink:href="#DejaVuSans-99"/>
      <use x="291.5" xlink:href="#DejaVuSans-118"/>
      <use x="350.679688" xlink:href="#DejaVuSans-115"/>
      <use x="402.779297" xlink:href="#DejaVuSans-105"/>
      <use x="430.5625" xlink:href="#DejaVuSans-102"/>
      <use x="464.017578" xlink:href="#DejaVuSans-116"/>
      <use x="503.226562" xlink:href="#DejaVuSans-32"/>
      <use x="535.013672" xlink:href="#DejaVuSans-65"/>
      <use x="603.421875" xlink:href="#DejaVuSans-80"/>
      <use x="663.724609" xlink:href="#DejaVuSans-58"/>
      <use x="697.416016" xlink:href="#DejaVuSans-32"/>
      <use x="729.203125" xlink:href="#DejaVuSans-56"/>
      <use x="792.826172" xlink:href="#DejaVuSans-56"/>
      <use x="856.449219" xlink:href="#DejaVuSans-46"/>
      <use x="888.236328" xlink:href="#DejaVuSans-52"/>
      <use x="951.859375" xlink:href="#DejaVuSans-44"/>
      <use x="983.646484" xlink:href="#DejaVuSans-32"/>
      <use x="1015.433594" xlink:href="#DejaVuSans-37"/>
      <use x="1110.453125" xlink:href="#DejaVuSans-73"/>
      <use x="1139.945312" xlink:href="#DejaVuSans-110"/>
      <use x="1203.324219" xlink:href="#DejaVuSans-58"/>
      <use x="1237.015625" xlink:href="#DejaVuSans-32"/>
      <use x="1268.802734" xlink:href="#DejaVuSans-52"/>
      <use x="1332.425781" xlink:href="#DejaVuSans-56"/>
      <use x="1396.048828" xlink:href="#DejaVuSans-46"/>
      <use x="1427.835938" xlink:href="#DejaVuSans-53"/>
     </g>
    </g>
    <g id="line2d_52">
     <path d="M 364.659375 88.256563 
L 384.659375 88.256563 
" style="fill:none;stroke:#ff7f0e;stroke-linecap:square;stroke-width:2;"/>
    </g>
    <g id="line2d_53"/>
    <g id="text_27">
     <!-- orb AP: 80.1, %In: 44.6 -->
     <g transform="translate(392.659375 91.756563)scale(0.1 -0.1)">
      <use xlink:href="#DejaVuSans-111"/>
      <use x="61.181641" xlink:href="#DejaVuSans-114"/>
      <use x="102.294922" xlink:href="#DejaVuSans-98"/>
      <use x="165.771484" xlink:href="#DejaVuSans-32"/>
      <use x="197.558594" xlink:href="#DejaVuSans-65"/>
      <use x="265.966797" xlink:href="#DejaVuSans-80"/>
      <use x="326.269531" xlink:href="#DejaVuSans-58"/>
      <use x="359.960938" xlink:href="#DejaVuSans-32"/>
      <use x="391.748047" xlink:href="#DejaVuSans-56"/>
      <use x="455.371094" xlink:href="#DejaVuSans-48"/>
      <use x="518.994141" xlink:href="#DejaVuSans-46"/>
      <use x="550.78125" xlink:href="#DejaVuSans-49"/>
      <use x="614.404297" xlink:href="#DejaVuSans-44"/>
      <use x="646.191406" xlink:href="#DejaVuSans-32"/>
      <use x="677.978516" xlink:href="#DejaVuSans-37"/>
      <use x="772.998047" xlink:href="#DejaVuSans-73"/>
      <use x="802.490234" xlink:href="#DejaVuSans-110"/>
      <use x="865.869141" xlink:href="#DejaVuSans-58"/>
      <use x="899.560547" xlink:href="#DejaVuSans-32"/>
      <use x="931.347656" xlink:href="#DejaVuSans-52"/>
      <use x="994.970703" xlink:href="#DejaVuSans-52"/>
      <use x="1058.59375" xlink:href="#DejaVuSans-46"/>
      <use x="1090.380859" xlink:href="#DejaVuSans-54"/>
     </g>
    </g>
    <g id="line2d_54">
     <path d="M 364.659375 102.934687 
L 384.659375 102.934687 
" style="fill:none;stroke:#2ca02c;stroke-linecap:square;stroke-width:2;"/>
    </g>
    <g id="line2d_55"/>
    <g id="text_28">
     <!-- binboost AP: 61.9, %In: 38.2 -->
     <g transform="translate(392.659375 106.434687)scale(0.1 -0.1)">
      <use xlink:href="#DejaVuSans-98"/>
      <use x="63.476562" xlink:href="#DejaVuSans-105"/>
      <use x="91.259766" xlink:href="#DejaVuSans-110"/>
      <use x="154.638672" xlink:href="#DejaVuSans-98"/>
      <use x="218.115234" xlink:href="#DejaVuSans-111"/>
      <use x="279.296875" xlink:href="#DejaVuSans-111"/>
      <use x="340.478516" xlink:href="#DejaVuSans-115"/>
      <use x="392.578125" xlink:href="#DejaVuSans-116"/>
      <use x="431.787109" xlink:href="#DejaVuSans-32"/>
      <use x="463.574219" xlink:href="#DejaVuSans-65"/>
      <use x="531.982422" xlink:href="#DejaVuSans-80"/>
      <use x="592.285156" xlink:href="#DejaVuSans-58"/>
      <use x="625.976562" xlink:href="#DejaVuSans-32"/>
      <use x="657.763672" xlink:href="#DejaVuSans-54"/>
      <use x="721.386719" xlink:href="#DejaVuSans-49"/>
      <use x="785.009766" xlink:href="#DejaVuSans-46"/>
      <use x="816.796875" xlink:href="#DejaVuSans-57"/>
      <use x="880.419922" xlink:href="#DejaVuSans-44"/>
      <use x="912.207031" xlink:href="#DejaVuSans-32"/>
      <use x="943.994141" xlink:href="#DejaVuSans-37"/>
      <use x="1039.013672" xlink:href="#DejaVuSans-73"/>
      <use x="1068.505859" xlink:href="#DejaVuSans-110"/>
      <use x="1131.884766" xlink:href="#DejaVuSans-58"/>
      <use x="1165.576172" xlink:href="#DejaVuSans-32"/>
      <use x="1197.363281" xlink:href="#DejaVuSans-51"/>
      <use x="1260.986328" xlink:href="#DejaVuSans-56"/>
      <use x="1324.609375" xlink:href="#DejaVuSans-46"/>
      <use x="1356.396484" xlink:href="#DejaVuSans-50"/>
     </g>
    </g>
    <g id="line2d_56">
     <path d="M 364.659375 117.612813 
L 384.659375 117.612813 
" style="fill:none;stroke:#d62728;stroke-linecap:square;stroke-width:2;"/>
    </g>
    <g id="line2d_57"/>
    <g id="text_29">
     <!-- tfeat AP: 47.2, %In: 31.8 -->
     <g transform="translate(392.659375 121.112813)scale(0.1 -0.1)">
      <use xlink:href="#DejaVuSans-116"/>
      <use x="39.208984" xlink:href="#DejaVuSans-102"/>
      <use x="74.414062" xlink:href="#DejaVuSans-101"/>
      <use x="135.9375" xlink:href="#DejaVuSans-97"/>
      <use x="197.216797" xlink:href="#DejaVuSans-116"/>
      <use x="236.425781" xlink:href="#DejaVuSans-32"/>
      <use x="268.212891" xlink:href="#DejaVuSans-65"/>
      <use x="336.621094" xlink:href="#DejaVuSans-80"/>
      <use x="396.923828" xlink:href="#DejaVuSans-58"/>
      <use x="430.615234" xlink:href="#DejaVuSans-32"/>
      <use x="462.402344" xlink:href="#DejaVuSans-52"/>
      <use x="526.025391" xlink:href="#DejaVuSans-55"/>
      <use x="589.648438" xlink:href="#DejaVuSans-46"/>
      <use x="621.435547" xlink:href="#DejaVuSans-50"/>
      <use x="685.058594" xlink:href="#DejaVuSans-44"/>
      <use x="716.845703" xlink:href="#DejaVuSans-32"/>
      <use x="748.632812" xlink:href="#DejaVuSans-37"/>
      <use x="843.652344" xlink:href="#DejaVuSans-73"/>
      <use x="873.144531" xlink:href="#DejaVuSans-110"/>
      <use x="936.523438" xlink:href="#DejaVuSans-58"/>
      <use x="970.214844" xlink:href="#DejaVuSans-32"/>
      <use x="1002.001953" xlink:href="#DejaVuSans-51"/>
      <use x="1065.625" xlink:href="#DejaVuSans-49"/>
      <use x="1129.248047" xlink:href="#DejaVuSans-46"/>
      <use x="1161.035156" xlink:href="#DejaVuSans-56"/>
     </g>
    </g>
    <g id="line2d_58">
     <path d="M 364.659375 132.290938 
L 384.659375 132.290938 
" style="fill:none;stroke:#9467bd;stroke-linecap:square;stroke-width:2;"/>
    </g>
    <g id="line2d_59"/>
    <g id="text_30">
     <!-- hardnet AP: 83.4, %In: 46.5 -->
     <defs>
      <path d="M 45.40625 46.390625 
L 45.40625 75.984375 
L 54.390625 75.984375 
L 54.390625 0 
L 45.40625 0 
L 45.40625 8.203125 
Q 42.578125 3.328125 38.25 0.953125 
Q 33.9375 -1.421875 27.875 -1.421875 
Q 17.96875 -1.421875 11.734375 6.484375 
Q 5.515625 14.40625 5.515625 27.296875 
Q 5.515625 40.1875 11.734375 48.09375 
Q 17.96875 56 27.875 56 
Q 33.9375 56 38.25 53.625 
Q 42.578125 51.265625 45.40625 46.390625 
z
M 14.796875 27.296875 
Q 14.796875 17.390625 18.875 11.75 
Q 22.953125 6.109375 30.078125 6.109375 
Q 37.203125 6.109375 41.296875 11.75 
Q 45.40625 17.390625 45.40625 27.296875 
Q 45.40625 37.203125 41.296875 42.84375 
Q 37.203125 48.484375 30.078125 48.484375 
Q 22.953125 48.484375 18.875 42.84375 
Q 14.796875 37.203125 14.796875 27.296875 
z
" id="DejaVuSans-100"/>
     </defs>
     <g transform="translate(392.659375 135.790938)scale(0.1 -0.1)">
      <use xlink:href="#DejaVuSans-104"/>
      <use x="63.378906" xlink:href="#DejaVuSans-97"/>
      <use x="124.658203" xlink:href="#DejaVuSans-114"/>
      <use x="164.021484" xlink:href="#DejaVuSans-100"/>
      <use x="227.498047" xlink:href="#DejaVuSans-110"/>
      <use x="290.876953" xlink:href="#DejaVuSans-101"/>
      <use x="352.400391" xlink:href="#DejaVuSans-116"/>
      <use x="391.609375" xlink:href="#DejaVuSans-32"/>
      <use x="423.396484" xlink:href="#DejaVuSans-65"/>
      <use x="491.804688" xlink:href="#DejaVuSans-80"/>
      <use x="552.107422" xlink:href="#DejaVuSans-58"/>
      <use x="585.798828" xlink:href="#DejaVuSans-32"/>
      <use x="617.585938" xlink:href="#DejaVuSans-56"/>
      <use x="681.208984" xlink:href="#DejaVuSans-51"/>
      <use x="744.832031" xlink:href="#DejaVuSans-46"/>
      <use x="776.619141" xlink:href="#DejaVuSans-52"/>
      <use x="840.242188" xlink:href="#DejaVuSans-44"/>
      <use x="872.029297" xlink:href="#DejaVuSans-32"/>
      <use x="903.816406" xlink:href="#DejaVuSans-37"/>
      <use x="998.835938" xlink:href="#DejaVuSans-73"/>
      <use x="1028.328125" xlink:href="#DejaVuSans-110"/>
      <use x="1091.707031" xlink:href="#DejaVuSans-58"/>
      <use x="1125.398438" xlink:href="#DejaVuSans-32"/>
      <use x="1157.185547" xlink:href="#DejaVuSans-52"/>
      <use x="1220.808594" xlink:href="#DejaVuSans-54"/>
      <use x="1284.431641" xlink:href="#DejaVuSans-46"/>
      <use x="1316.21875" xlink:href="#DejaVuSans-53"/>
     </g>
    </g>
   </g>
  </g>
 </g>
 <defs>
  <clipPath id="pa31ab22e62">
   <rect height="388.08" width="474.3" x="76.5" y="60.48"/>
  </clipPath>
 </defs>
</svg>
