<?xml version="1.0" encoding="utf-8" standalone="no"?>
<!DOCTYPE svg PUBLIC "-//W3C//DTD SVG 1.1//EN"
  "http://www.w3.org/Graphics/SVG/1.1/DTD/svg11.dtd">
<!-- Created with matplotlib (https://matplotlib.org/) -->
<svg height="504pt" version="1.1" viewBox="0 0 612 504" width="612pt" xmlns="http://www.w3.org/2000/svg" xmlns:xlink="http://www.w3.org/1999/xlink">
 <defs>
  <style type="text/css">
*{stroke-linecap:butt;stroke-linejoin:round;}
  </style>
 </defs>
 <g id="figure_1">
  <g id="patch_1">
   <path d="M 0 504 
L 612 504 
L 612 0 
L 0 0 
z
" style="fill:#ffffff;"/>
  </g>
  <g id="axes_1">
   <g id="patch_2">
    <path d="M 76.5 448.56 
L 550.8 448.56 
L 550.8 60.48 
L 76.5 60.48 
z
" style="fill:#ffffff;"/>
   </g>
   <g id="matplotlib.axis_1">
    <g id="xtick_1">
     <g id="line2d_1">
      <path clip-path="url(#pbb5b60b402)" d="M 76.5 448.56 
L 76.5 60.48 
" style="fill:none;stroke:#b0b0b0;stroke-linecap:square;stroke-width:0.8;"/>
     </g>
     <g id="line2d_2">
      <defs>
       <path d="M 0 0 
L 0 3.5 
" id="m9da2b20e42" style="stroke:#000000;stroke-width:0.8;"/>
      </defs>
      <g>
       <use style="stroke:#000000;stroke-width:0.8;" x="76.5" xlink:href="#m9da2b20e42" y="448.56"/>
      </g>
     </g>
     <g id="text_1">
      <!-- 0.0 -->
      <defs>
       <path d="M 31.78125 66.40625 
Q 24.171875 66.40625 20.328125 58.90625 
Q 16.5 51.421875 16.5 36.375 
Q 16.5 21.390625 20.328125 13.890625 
Q 24.171875 6.390625 31.78125 6.390625 
Q 39.453125 6.390625 43.28125 13.890625 
Q 47.125 21.390625 47.125 36.375 
Q 47.125 51.421875 43.28125 58.90625 
Q 39.453125 66.40625 31.78125 66.40625 
z
M 31.78125 74.21875 
Q 44.046875 74.21875 50.515625 64.515625 
Q 56.984375 54.828125 56.984375 36.375 
Q 56.984375 17.96875 50.515625 8.265625 
Q 44.046875 -1.421875 31.78125 -1.421875 
Q 19.53125 -1.421875 13.0625 8.265625 
Q 6.59375 17.96875 6.59375 36.375 
Q 6.59375 54.828125 13.0625 64.515625 
Q 19.53125 74.21875 31.78125 74.21875 
z
" id="DejaVuSans-48"/>
       <path d="M 10.6875 12.40625 
L 21 12.40625 
L 21 0 
L 10.6875 0 
z
" id="DejaVuSans-46"/>
      </defs>
      <g transform="translate(68.548438 463.158437)scale(0.1 -0.1)">
       <use xlink:href="#DejaVuSans-48"/>
       <use x="63.623047" xlink:href="#DejaVuSans-46"/>
       <use x="95.410156" xlink:href="#DejaVuSans-48"/>
      </g>
     </g>
    </g>
    <g id="xtick_2">
     <g id="line2d_3">
      <path clip-path="url(#pbb5b60b402)" d="M 123.93 448.56 
L 123.93 60.48 
" style="fill:none;stroke:#b0b0b0;stroke-linecap:square;stroke-width:0.8;"/>
     </g>
     <g id="line2d_4">
      <g>
       <use style="stroke:#000000;stroke-width:0.8;" x="123.93" xlink:href="#m9da2b20e42" y="448.56"/>
      </g>
     </g>
     <g id="text_2">
      <!-- 0.1 -->
      <defs>
       <path d="M 12.40625 8.296875 
L 28.515625 8.296875 
L 28.515625 63.921875 
L 10.984375 60.40625 
L 10.984375 69.390625 
L 28.421875 72.90625 
L 38.28125 72.90625 
L 38.28125 8.296875 
L 54.390625 8.296875 
L 54.390625 0 
L 12.40625 0 
z
" id="DejaVuSans-49"/>
      </defs>
      <g transform="translate(115.978438 463.158437)scale(0.1 -0.1)">
       <use xlink:href="#DejaVuSans-48"/>
       <use x="63.623047" xlink:href="#DejaVuSans-46"/>
       <use x="95.410156" xlink:href="#DejaVuSans-49"/>
      </g>
     </g>
    </g>
    <g id="xtick_3">
     <g id="line2d_5">
      <path clip-path="url(#pbb5b60b402)" d="M 171.36 448.56 
L 171.36 60.48 
" style="fill:none;stroke:#b0b0b0;stroke-linecap:square;stroke-width:0.8;"/>
     </g>
     <g id="line2d_6">
      <g>
       <use style="stroke:#000000;stroke-width:0.8;" x="171.36" xlink:href="#m9da2b20e42" y="448.56"/>
      </g>
     </g>
     <g id="text_3">
      <!-- 0.2 -->
      <defs>
       <path d="M 19.1875 8.296875 
L 53.609375 8.296875 
L 53.609375 0 
L 7.328125 0 
L 7.328125 8.296875 
Q 12.9375 14.109375 22.625 23.890625 
Q 32.328125 33.6875 34.8125 36.53125 
Q 39.546875 41.84375 41.421875 45.53125 
Q 43.3125 49.21875 43.3125 52.78125 
Q 43.3125 58.59375 39.234375 62.25 
Q 35.15625 65.921875 28.609375 65.921875 
Q 23.96875 65.921875 18.8125 64.3125 
Q 13.671875 62.703125 7.8125 59.421875 
L 7.8125 69.390625 
Q 13.765625 71.78125 18.9375 73 
Q 24.125 74.21875 28.421875 74.21875 
Q 39.75 74.21875 46.484375 68.546875 
Q 53.21875 62.890625 53.21875 53.421875 
Q 53.21875 48.921875 51.53125 44.890625 
Q 49.859375 40.875 45.40625 35.40625 
Q 44.1875 33.984375 37.640625 27.21875 
Q 31.109375 20.453125 19.1875 8.296875 
z
" id="DejaVuSans-50"/>
      </defs>
      <g transform="translate(163.408438 463.158437)scale(0.1 -0.1)">
       <use xlink:href="#DejaVuSans-48"/>
       <use x="63.623047" xlink:href="#DejaVuSans-46"/>
       <use x="95.410156" xlink:href="#DejaVuSans-50"/>
      </g>
     </g>
    </g>
    <g id="xtick_4">
     <g id="line2d_7">
      <path clip-path="url(#pbb5b60b402)" d="M 218.79 448.56 
L 218.79 60.48 
" style="fill:none;stroke:#b0b0b0;stroke-linecap:square;stroke-width:0.8;"/>
     </g>
     <g id="line2d_8">
      <g>
       <use style="stroke:#000000;stroke-width:0.8;" x="218.79" xlink:href="#m9da2b20e42" y="448.56"/>
      </g>
     </g>
     <g id="text_4">
      <!-- 0.3 -->
      <defs>
       <path d="M 40.578125 39.3125 
Q 47.65625 37.796875 51.625 33 
Q 55.609375 28.21875 55.609375 21.1875 
Q 55.609375 10.40625 48.1875 4.484375 
Q 40.765625 -1.421875 27.09375 -1.421875 
Q 22.515625 -1.421875 17.65625 -0.515625 
Q 12.796875 0.390625 7.625 2.203125 
L 7.625 11.71875 
Q 11.71875 9.328125 16.59375 8.109375 
Q 21.484375 6.890625 26.8125 6.890625 
Q 36.078125 6.890625 40.9375 10.546875 
Q 45.796875 14.203125 45.796875 21.1875 
Q 45.796875 27.640625 41.28125 31.265625 
Q 36.765625 34.90625 28.71875 34.90625 
L 20.21875 34.90625 
L 20.21875 43.015625 
L 29.109375 43.015625 
Q 36.375 43.015625 40.234375 45.921875 
Q 44.09375 48.828125 44.09375 54.296875 
Q 44.09375 59.90625 40.109375 62.90625 
Q 36.140625 65.921875 28.71875 65.921875 
Q 24.65625 65.921875 20.015625 65.03125 
Q 15.375 64.15625 9.8125 62.3125 
L 9.8125 71.09375 
Q 15.4375 72.65625 20.34375 73.4375 
Q 25.25 74.21875 29.59375 74.21875 
Q 40.828125 74.21875 47.359375 69.109375 
Q 53.90625 64.015625 53.90625 55.328125 
Q 53.90625 49.265625 50.4375 45.09375 
Q 46.96875 40.921875 40.578125 39.3125 
z
" id="DejaVuSans-51"/>
      </defs>
      <g transform="translate(210.838438 463.158437)scale(0.1 -0.1)">
       <use xlink:href="#DejaVuSans-48"/>
       <use x="63.623047" xlink:href="#DejaVuSans-46"/>
       <use x="95.410156" xlink:href="#DejaVuSans-51"/>
      </g>
     </g>
    </g>
    <g id="xtick_5">
     <g id="line2d_9">
      <path clip-path="url(#pbb5b60b402)" d="M 266.22 448.56 
L 266.22 60.48 
" style="fill:none;stroke:#b0b0b0;stroke-linecap:square;stroke-width:0.8;"/>
     </g>
     <g id="line2d_10">
      <g>
       <use style="stroke:#000000;stroke-width:0.8;" x="266.22" xlink:href="#m9da2b20e42" y="448.56"/>
      </g>
     </g>
     <g id="text_5">
      <!-- 0.4 -->
      <defs>
       <path d="M 37.796875 64.3125 
L 12.890625 25.390625 
L 37.796875 25.390625 
z
M 35.203125 72.90625 
L 47.609375 72.90625 
L 47.609375 25.390625 
L 58.015625 25.390625 
L 58.015625 17.1875 
L 47.609375 17.1875 
L 47.609375 0 
L 37.796875 0 
L 37.796875 17.1875 
L 4.890625 17.1875 
L 4.890625 26.703125 
z
" id="DejaVuSans-52"/>
      </defs>
      <g transform="translate(258.268438 463.158437)scale(0.1 -0.1)">
       <use xlink:href="#DejaVuSans-48"/>
       <use x="63.623047" xlink:href="#DejaVuSans-46"/>
       <use x="95.410156" xlink:href="#DejaVuSans-52"/>
      </g>
     </g>
    </g>
    <g id="xtick_6">
     <g id="line2d_11">
      <path clip-path="url(#pbb5b60b402)" d="M 313.65 448.56 
L 313.65 60.48 
" style="fill:none;stroke:#b0b0b0;stroke-linecap:square;stroke-width:0.8;"/>
     </g>
     <g id="line2d_12">
      <g>
       <use style="stroke:#000000;stroke-width:0.8;" x="313.65" xlink:href="#m9da2b20e42" y="448.56"/>
      </g>
     </g>
     <g id="text_6">
      <!-- 0.5 -->
      <defs>
       <path d="M 10.796875 72.90625 
L 49.515625 72.90625 
L 49.515625 64.59375 
L 19.828125 64.59375 
L 19.828125 46.734375 
Q 21.96875 47.46875 24.109375 47.828125 
Q 26.265625 48.1875 28.421875 48.1875 
Q 40.625 48.1875 47.75 41.5 
Q 54.890625 34.8125 54.890625 23.390625 
Q 54.890625 11.625 47.5625 5.09375 
Q 40.234375 -1.421875 26.90625 -1.421875 
Q 22.3125 -1.421875 17.546875 -0.640625 
Q 12.796875 0.140625 7.71875 1.703125 
L 7.71875 11.625 
Q 12.109375 9.234375 16.796875 8.0625 
Q 21.484375 6.890625 26.703125 6.890625 
Q 35.15625 6.890625 40.078125 11.328125 
Q 45.015625 15.765625 45.015625 23.390625 
Q 45.015625 31 40.078125 35.4375 
Q 35.15625 39.890625 26.703125 39.890625 
Q 22.75 39.890625 18.8125 39.015625 
Q 14.890625 38.140625 10.796875 36.28125 
z
" id="DejaVuSans-53"/>
      </defs>
      <g transform="translate(305.698438 463.158437)scale(0.1 -0.1)">
       <use xlink:href="#DejaVuSans-48"/>
       <use x="63.623047" xlink:href="#DejaVuSans-46"/>
       <use x="95.410156" xlink:href="#DejaVuSans-53"/>
      </g>
     </g>
    </g>
    <g id="xtick_7">
     <g id="line2d_13">
      <path clip-path="url(#pbb5b60b402)" d="M 361.08 448.56 
L 361.08 60.48 
" style="fill:none;stroke:#b0b0b0;stroke-linecap:square;stroke-width:0.8;"/>
     </g>
     <g id="line2d_14">
      <g>
       <use style="stroke:#000000;stroke-width:0.8;" x="361.08" xlink:href="#m9da2b20e42" y="448.56"/>
      </g>
     </g>
     <g id="text_7">
      <!-- 0.6 -->
      <defs>
       <path d="M 33.015625 40.375 
Q 26.375 40.375 22.484375 35.828125 
Q 18.609375 31.296875 18.609375 23.390625 
Q 18.609375 15.53125 22.484375 10.953125 
Q 26.375 6.390625 33.015625 6.390625 
Q 39.65625 6.390625 43.53125 10.953125 
Q 47.40625 15.53125 47.40625 23.390625 
Q 47.40625 31.296875 43.53125 35.828125 
Q 39.65625 40.375 33.015625 40.375 
z
M 52.59375 71.296875 
L 52.59375 62.3125 
Q 48.875 64.0625 45.09375 64.984375 
Q 41.3125 65.921875 37.59375 65.921875 
Q 27.828125 65.921875 22.671875 59.328125 
Q 17.53125 52.734375 16.796875 39.40625 
Q 19.671875 43.65625 24.015625 45.921875 
Q 28.375 48.1875 33.59375 48.1875 
Q 44.578125 48.1875 50.953125 41.515625 
Q 57.328125 34.859375 57.328125 23.390625 
Q 57.328125 12.15625 50.6875 5.359375 
Q 44.046875 -1.421875 33.015625 -1.421875 
Q 20.359375 -1.421875 13.671875 8.265625 
Q 6.984375 17.96875 6.984375 36.375 
Q 6.984375 53.65625 15.1875 63.9375 
Q 23.390625 74.21875 37.203125 74.21875 
Q 40.921875 74.21875 44.703125 73.484375 
Q 48.484375 72.75 52.59375 71.296875 
z
" id="DejaVuSans-54"/>
      </defs>
      <g transform="translate(353.128438 463.158437)scale(0.1 -0.1)">
       <use xlink:href="#DejaVuSans-48"/>
       <use x="63.623047" xlink:href="#DejaVuSans-46"/>
       <use x="95.410156" xlink:href="#DejaVuSans-54"/>
      </g>
     </g>
    </g>
    <g id="xtick_8">
     <g id="line2d_15">
      <path clip-path="url(#pbb5b60b402)" d="M 408.51 448.56 
L 408.51 60.48 
" style="fill:none;stroke:#b0b0b0;stroke-linecap:square;stroke-width:0.8;"/>
     </g>
     <g id="line2d_16">
      <g>
       <use style="stroke:#000000;stroke-width:0.8;" x="408.51" xlink:href="#m9da2b20e42" y="448.56"/>
      </g>
     </g>
     <g id="text_8">
      <!-- 0.7 -->
      <defs>
       <path d="M 8.203125 72.90625 
L 55.078125 72.90625 
L 55.078125 68.703125 
L 28.609375 0 
L 18.3125 0 
L 43.21875 64.59375 
L 8.203125 64.59375 
z
" id="DejaVuSans-55"/>
      </defs>
      <g transform="translate(400.558438 463.158437)scale(0.1 -0.1)">
       <use xlink:href="#DejaVuSans-48"/>
       <use x="63.623047" xlink:href="#DejaVuSans-46"/>
       <use x="95.410156" xlink:href="#DejaVuSans-55"/>
      </g>
     </g>
    </g>
    <g id="xtick_9">
     <g id="line2d_17">
      <path clip-path="url(#pbb5b60b402)" d="M 455.94 448.56 
L 455.94 60.48 
" style="fill:none;stroke:#b0b0b0;stroke-linecap:square;stroke-width:0.8;"/>
     </g>
     <g id="line2d_18">
      <g>
       <use style="stroke:#000000;stroke-width:0.8;" x="455.94" xlink:href="#m9da2b20e42" y="448.56"/>
      </g>
     </g>
     <g id="text_9">
      <!-- 0.8 -->
      <defs>
       <path d="M 31.78125 34.625 
Q 24.75 34.625 20.71875 30.859375 
Q 16.703125 27.09375 16.703125 20.515625 
Q 16.703125 13.921875 20.71875 10.15625 
Q 24.75 6.390625 31.78125 6.390625 
Q 38.8125 6.390625 42.859375 10.171875 
Q 46.921875 13.96875 46.921875 20.515625 
Q 46.921875 27.09375 42.890625 30.859375 
Q 38.875 34.625 31.78125 34.625 
z
M 21.921875 38.8125 
Q 15.578125 40.375 12.03125 44.71875 
Q 8.5 49.078125 8.5 55.328125 
Q 8.5 64.0625 14.71875 69.140625 
Q 20.953125 74.21875 31.78125 74.21875 
Q 42.671875 74.21875 48.875 69.140625 
Q 55.078125 64.0625 55.078125 55.328125 
Q 55.078125 49.078125 51.53125 44.71875 
Q 48 40.375 41.703125 38.8125 
Q 48.828125 37.15625 52.796875 32.3125 
Q 56.78125 27.484375 56.78125 20.515625 
Q 56.78125 9.90625 50.3125 4.234375 
Q 43.84375 -1.421875 31.78125 -1.421875 
Q 19.734375 -1.421875 13.25 4.234375 
Q 6.78125 9.90625 6.78125 20.515625 
Q 6.78125 27.484375 10.78125 32.3125 
Q 14.796875 37.15625 21.921875 38.8125 
z
M 18.3125 54.390625 
Q 18.3125 48.734375 21.84375 45.5625 
Q 25.390625 42.390625 31.78125 42.390625 
Q 38.140625 42.390625 41.71875 45.5625 
Q 45.3125 48.734375 45.3125 54.390625 
Q 45.3125 60.0625 41.71875 63.234375 
Q 38.140625 66.40625 31.78125 66.40625 
Q 25.390625 66.40625 21.84375 63.234375 
Q 18.3125 60.0625 18.3125 54.390625 
z
" id="DejaVuSans-56"/>
      </defs>
      <g transform="translate(447.988438 463.158437)scale(0.1 -0.1)">
       <use xlink:href="#DejaVuSans-48"/>
       <use x="63.623047" xlink:href="#DejaVuSans-46"/>
       <use x="95.410156" xlink:href="#DejaVuSans-56"/>
      </g>
     </g>
    </g>
    <g id="xtick_10">
     <g id="line2d_19">
      <path clip-path="url(#pbb5b60b402)" d="M 503.37 448.56 
L 503.37 60.48 
" style="fill:none;stroke:#b0b0b0;stroke-linecap:square;stroke-width:0.8;"/>
     </g>
     <g id="line2d_20">
      <g>
       <use style="stroke:#000000;stroke-width:0.8;" x="503.37" xlink:href="#m9da2b20e42" y="448.56"/>
      </g>
     </g>
     <g id="text_10">
      <!-- 0.9 -->
      <defs>
       <path d="M 10.984375 1.515625 
L 10.984375 10.5 
Q 14.703125 8.734375 18.5 7.8125 
Q 22.3125 6.890625 25.984375 6.890625 
Q 35.75 6.890625 40.890625 13.453125 
Q 46.046875 20.015625 46.78125 33.40625 
Q 43.953125 29.203125 39.59375 26.953125 
Q 35.25 24.703125 29.984375 24.703125 
Q 19.046875 24.703125 12.671875 31.3125 
Q 6.296875 37.9375 6.296875 49.421875 
Q 6.296875 60.640625 12.9375 67.421875 
Q 19.578125 74.21875 30.609375 74.21875 
Q 43.265625 74.21875 49.921875 64.515625 
Q 56.59375 54.828125 56.59375 36.375 
Q 56.59375 19.140625 48.40625 8.859375 
Q 40.234375 -1.421875 26.421875 -1.421875 
Q 22.703125 -1.421875 18.890625 -0.6875 
Q 15.09375 0.046875 10.984375 1.515625 
z
M 30.609375 32.421875 
Q 37.25 32.421875 41.125 36.953125 
Q 45.015625 41.5 45.015625 49.421875 
Q 45.015625 57.28125 41.125 61.84375 
Q 37.25 66.40625 30.609375 66.40625 
Q 23.96875 66.40625 20.09375 61.84375 
Q 16.21875 57.28125 16.21875 49.421875 
Q 16.21875 41.5 20.09375 36.953125 
Q 23.96875 32.421875 30.609375 32.421875 
z
" id="DejaVuSans-57"/>
      </defs>
      <g transform="translate(495.418438 463.158437)scale(0.1 -0.1)">
       <use xlink:href="#DejaVuSans-48"/>
       <use x="63.623047" xlink:href="#DejaVuSans-46"/>
       <use x="95.410156" xlink:href="#DejaVuSans-57"/>
      </g>
     </g>
    </g>
    <g id="xtick_11">
     <g id="line2d_21">
      <path clip-path="url(#pbb5b60b402)" d="M 550.8 448.56 
L 550.8 60.48 
" style="fill:none;stroke:#b0b0b0;stroke-linecap:square;stroke-width:0.8;"/>
     </g>
     <g id="line2d_22">
      <g>
       <use style="stroke:#000000;stroke-width:0.8;" x="550.8" xlink:href="#m9da2b20e42" y="448.56"/>
      </g>
     </g>
     <g id="text_11">
      <!-- 1.0 -->
      <g transform="translate(542.848438 463.158437)scale(0.1 -0.1)">
       <use xlink:href="#DejaVuSans-49"/>
       <use x="63.623047" xlink:href="#DejaVuSans-46"/>
       <use x="95.410156" xlink:href="#DejaVuSans-48"/>
      </g>
     </g>
    </g>
    <g id="text_12">
     <!-- 1-precision -->
     <defs>
      <path d="M 4.890625 31.390625 
L 31.203125 31.390625 
L 31.203125 23.390625 
L 4.890625 23.390625 
z
" id="DejaVuSans-45"/>
      <path d="M 18.109375 8.203125 
L 18.109375 -20.796875 
L 9.078125 -20.796875 
L 9.078125 54.6875 
L 18.109375 54.6875 
L 18.109375 46.390625 
Q 20.953125 51.265625 25.265625 53.625 
Q 29.59375 56 35.59375 56 
Q 45.5625 56 51.78125 48.09375 
Q 58.015625 40.1875 58.015625 27.296875 
Q 58.015625 14.40625 51.78125 6.484375 
Q 45.5625 -1.421875 35.59375 -1.421875 
Q 29.59375 -1.421875 25.265625 0.953125 
Q 20.953125 3.328125 18.109375 8.203125 
z
M 48.6875 27.296875 
Q 48.6875 37.203125 44.609375 42.84375 
Q 40.53125 48.484375 33.40625 48.484375 
Q 26.265625 48.484375 22.1875 42.84375 
Q 18.109375 37.203125 18.109375 27.296875 
Q 18.109375 17.390625 22.1875 11.75 
Q 26.265625 6.109375 33.40625 6.109375 
Q 40.53125 6.109375 44.609375 11.75 
Q 48.6875 17.390625 48.6875 27.296875 
z
" id="DejaVuSans-112"/>
      <path d="M 41.109375 46.296875 
Q 39.59375 47.171875 37.8125 47.578125 
Q 36.03125 48 33.890625 48 
Q 26.265625 48 22.1875 43.046875 
Q 18.109375 38.09375 18.109375 28.8125 
L 18.109375 0 
L 9.078125 0 
L 9.078125 54.6875 
L 18.109375 54.6875 
L 18.109375 46.1875 
Q 20.953125 51.171875 25.484375 53.578125 
Q 30.03125 56 36.53125 56 
Q 37.453125 56 38.578125 55.875 
Q 39.703125 55.765625 41.0625 55.515625 
z
" id="DejaVuSans-114"/>
      <path d="M 56.203125 29.59375 
L 56.203125 25.203125 
L 14.890625 25.203125 
Q 15.484375 15.921875 20.484375 11.0625 
Q 25.484375 6.203125 34.421875 6.203125 
Q 39.59375 6.203125 44.453125 7.46875 
Q 49.3125 8.734375 54.109375 11.28125 
L 54.109375 2.78125 
Q 49.265625 0.734375 44.1875 -0.34375 
Q 39.109375 -1.421875 33.890625 -1.421875 
Q 20.796875 -1.421875 13.15625 6.1875 
Q 5.515625 13.8125 5.515625 26.8125 
Q 5.515625 40.234375 12.765625 48.109375 
Q 20.015625 56 32.328125 56 
Q 43.359375 56 49.78125 48.890625 
Q 56.203125 41.796875 56.203125 29.59375 
z
M 47.21875 32.234375 
Q 47.125 39.59375 43.09375 43.984375 
Q 39.0625 48.390625 32.421875 48.390625 
Q 24.90625 48.390625 20.390625 44.140625 
Q 15.875 39.890625 15.1875 32.171875 
z
" id="DejaVuSans-101"/>
      <path d="M 48.78125 52.59375 
L 48.78125 44.1875 
Q 44.96875 46.296875 41.140625 47.34375 
Q 37.3125 48.390625 33.40625 48.390625 
Q 24.65625 48.390625 19.8125 42.84375 
Q 14.984375 37.3125 14.984375 27.296875 
Q 14.984375 17.28125 19.8125 11.734375 
Q 24.65625 6.203125 33.40625 6.203125 
Q 37.3125 6.203125 41.140625 7.25 
Q 44.96875 8.296875 48.78125 10.40625 
L 48.78125 2.09375 
Q 45.015625 0.34375 40.984375 -0.53125 
Q 36.96875 -1.421875 32.421875 -1.421875 
Q 20.0625 -1.421875 12.78125 6.34375 
Q 5.515625 14.109375 5.515625 27.296875 
Q 5.515625 40.671875 12.859375 48.328125 
Q 20.21875 56 33.015625 56 
Q 37.15625 56 41.109375 55.140625 
Q 45.0625 54.296875 48.78125 52.59375 
z
" id="DejaVuSans-99"/>
      <path d="M 9.421875 54.6875 
L 18.40625 54.6875 
L 18.40625 0 
L 9.421875 0 
z
M 9.421875 75.984375 
L 18.40625 75.984375 
L 18.40625 64.59375 
L 9.421875 64.59375 
z
" id="DejaVuSans-105"/>
      <path d="M 44.28125 53.078125 
L 44.28125 44.578125 
Q 40.484375 46.53125 36.375 47.5 
Q 32.28125 48.484375 27.875 48.484375 
Q 21.1875 48.484375 17.84375 46.4375 
Q 14.5 44.390625 14.5 40.28125 
Q 14.5 37.15625 16.890625 35.375 
Q 19.28125 33.59375 26.515625 31.984375 
L 29.59375 31.296875 
Q 39.15625 29.25 43.1875 25.515625 
Q 47.21875 21.78125 47.21875 15.09375 
Q 47.21875 7.46875 41.1875 3.015625 
Q 35.15625 -1.421875 24.609375 -1.421875 
Q 20.21875 -1.421875 15.453125 -0.5625 
Q 10.6875 0.296875 5.421875 2 
L 5.421875 11.28125 
Q 10.40625 8.6875 15.234375 7.390625 
Q 20.0625 6.109375 24.8125 6.109375 
Q 31.15625 6.109375 34.5625 8.28125 
Q 37.984375 10.453125 37.984375 14.40625 
Q 37.984375 18.0625 35.515625 20.015625 
Q 33.0625 21.96875 24.703125 23.78125 
L 21.578125 24.515625 
Q 13.234375 26.265625 9.515625 29.90625 
Q 5.8125 33.546875 5.8125 39.890625 
Q 5.8125 47.609375 11.28125 51.796875 
Q 16.75 56 26.8125 56 
Q 31.78125 56 36.171875 55.265625 
Q 40.578125 54.546875 44.28125 53.078125 
z
" id="DejaVuSans-115"/>
      <path d="M 30.609375 48.390625 
Q 23.390625 48.390625 19.1875 42.75 
Q 14.984375 37.109375 14.984375 27.296875 
Q 14.984375 17.484375 19.15625 11.84375 
Q 23.34375 6.203125 30.609375 6.203125 
Q 37.796875 6.203125 41.984375 11.859375 
Q 46.1875 17.53125 46.1875 27.296875 
Q 46.1875 37.015625 41.984375 42.703125 
Q 37.796875 48.390625 30.609375 48.390625 
z
M 30.609375 56 
Q 42.328125 56 49.015625 48.375 
Q 55.71875 40.765625 55.71875 27.296875 
Q 55.71875 13.875 49.015625 6.21875 
Q 42.328125 -1.421875 30.609375 -1.421875 
Q 18.84375 -1.421875 12.171875 6.21875 
Q 5.515625 13.875 5.515625 27.296875 
Q 5.515625 40.765625 12.171875 48.375 
Q 18.84375 56 30.609375 56 
z
" id="DejaVuSans-111"/>
      <path d="M 54.890625 33.015625 
L 54.890625 0 
L 45.90625 0 
L 45.90625 32.71875 
Q 45.90625 40.484375 42.875 44.328125 
Q 39.84375 48.1875 33.796875 48.1875 
Q 26.515625 48.1875 22.3125 43.546875 
Q 18.109375 38.921875 18.109375 30.90625 
L 18.109375 0 
L 9.078125 0 
L 9.078125 54.6875 
L 18.109375 54.6875 
L 18.109375 46.1875 
Q 21.34375 51.125 25.703125 53.5625 
Q 30.078125 56 35.796875 56 
Q 45.21875 56 50.046875 50.171875 
Q 54.890625 44.34375 54.890625 33.015625 
z
" id="DejaVuSans-110"/>
     </defs>
     <g transform="translate(286.110938 476.836563)scale(0.1 -0.1)">
      <use xlink:href="#DejaVuSans-49"/>
      <use x="63.623047" xlink:href="#DejaVuSans-45"/>
      <use x="99.707031" xlink:href="#DejaVuSans-112"/>
      <use x="163.183594" xlink:href="#DejaVuSans-114"/>
      <use x="202.046875" xlink:href="#DejaVuSans-101"/>
      <use x="263.570312" xlink:href="#DejaVuSans-99"/>
      <use x="318.550781" xlink:href="#DejaVuSans-105"/>
      <use x="346.333984" xlink:href="#DejaVuSans-115"/>
      <use x="398.433594" xlink:href="#DejaVuSans-105"/>
      <use x="426.216797" xlink:href="#DejaVuSans-111"/>
      <use x="487.398438" xlink:href="#DejaVuSans-110"/>
     </g>
    </g>
   </g>
   <g id="matplotlib.axis_2">
    <g id="ytick_1">
     <g id="line2d_23">
      <path clip-path="url(#pbb5b60b402)" d="M 76.5 448.56 
L 550.8 448.56 
" style="fill:none;stroke:#b0b0b0;stroke-linecap:square;stroke-width:0.8;"/>
     </g>
     <g id="line2d_24">
      <defs>
       <path d="M 0 0 
L -3.5 0 
" id="m29f8ecff0c" style="stroke:#000000;stroke-width:0.8;"/>
      </defs>
      <g>
       <use style="stroke:#000000;stroke-width:0.8;" x="76.5" xlink:href="#m29f8ecff0c" y="448.56"/>
      </g>
     </g>
     <g id="text_13">
      <!-- 0.0 -->
      <g transform="translate(53.596875 452.359219)scale(0.1 -0.1)">
       <use xlink:href="#DejaVuSans-48"/>
       <use x="63.623047" xlink:href="#DejaVuSans-46"/>
       <use x="95.410156" xlink:href="#DejaVuSans-48"/>
      </g>
     </g>
    </g>
    <g id="ytick_2">
     <g id="line2d_25">
      <path clip-path="url(#pbb5b60b402)" d="M 76.5 409.752 
L 550.8 409.752 
" style="fill:none;stroke:#b0b0b0;stroke-linecap:square;stroke-width:0.8;"/>
     </g>
     <g id="line2d_26">
      <g>
       <use style="stroke:#000000;stroke-width:0.8;" x="76.5" xlink:href="#m29f8ecff0c" y="409.752"/>
      </g>
     </g>
     <g id="text_14">
      <!-- 0.1 -->
      <g transform="translate(53.596875 413.551219)scale(0.1 -0.1)">
       <use xlink:href="#DejaVuSans-48"/>
       <use x="63.623047" xlink:href="#DejaVuSans-46"/>
       <use x="95.410156" xlink:href="#DejaVuSans-49"/>
      </g>
     </g>
    </g>
    <g id="ytick_3">
     <g id="line2d_27">
      <path clip-path="url(#pbb5b60b402)" d="M 76.5 370.944 
L 550.8 370.944 
" style="fill:none;stroke:#b0b0b0;stroke-linecap:square;stroke-width:0.8;"/>
     </g>
     <g id="line2d_28">
      <g>
       <use style="stroke:#000000;stroke-width:0.8;" x="76.5" xlink:href="#m29f8ecff0c" y="370.944"/>
      </g>
     </g>
     <g id="text_15">
      <!-- 0.2 -->
      <g transform="translate(53.596875 374.743219)scale(0.1 -0.1)">
       <use xlink:href="#DejaVuSans-48"/>
       <use x="63.623047" xlink:href="#DejaVuSans-46"/>
       <use x="95.410156" xlink:href="#DejaVuSans-50"/>
      </g>
     </g>
    </g>
    <g id="ytick_4">
     <g id="line2d_29">
      <path clip-path="url(#pbb5b60b402)" d="M 76.5 332.136 
L 550.8 332.136 
" style="fill:none;stroke:#b0b0b0;stroke-linecap:square;stroke-width:0.8;"/>
     </g>
     <g id="line2d_30">
      <g>
       <use style="stroke:#000000;stroke-width:0.8;" x="76.5" xlink:href="#m29f8ecff0c" y="332.136"/>
      </g>
     </g>
     <g id="text_16">
      <!-- 0.3 -->
      <g transform="translate(53.596875 335.935219)scale(0.1 -0.1)">
       <use xlink:href="#DejaVuSans-48"/>
       <use x="63.623047" xlink:href="#DejaVuSans-46"/>
       <use x="95.410156" xlink:href="#DejaVuSans-51"/>
      </g>
     </g>
    </g>
    <g id="ytick_5">
     <g id="line2d_31">
      <path clip-path="url(#pbb5b60b402)" d="M 76.5 293.328 
L 550.8 293.328 
" style="fill:none;stroke:#b0b0b0;stroke-linecap:square;stroke-width:0.8;"/>
     </g>
     <g id="line2d_32">
      <g>
       <use style="stroke:#000000;stroke-width:0.8;" x="76.5" xlink:href="#m29f8ecff0c" y="293.328"/>
      </g>
     </g>
     <g id="text_17">
      <!-- 0.4 -->
      <g transform="translate(53.596875 297.127219)scale(0.1 -0.1)">
       <use xlink:href="#DejaVuSans-48"/>
       <use x="63.623047" xlink:href="#DejaVuSans-46"/>
       <use x="95.410156" xlink:href="#DejaVuSans-52"/>
      </g>
     </g>
    </g>
    <g id="ytick_6">
     <g id="line2d_33">
      <path clip-path="url(#pbb5b60b402)" d="M 76.5 254.52 
L 550.8 254.52 
" style="fill:none;stroke:#b0b0b0;stroke-linecap:square;stroke-width:0.8;"/>
     </g>
     <g id="line2d_34">
      <g>
       <use style="stroke:#000000;stroke-width:0.8;" x="76.5" xlink:href="#m29f8ecff0c" y="254.52"/>
      </g>
     </g>
     <g id="text_18">
      <!-- 0.5 -->
      <g transform="translate(53.596875 258.319219)scale(0.1 -0.1)">
       <use xlink:href="#DejaVuSans-48"/>
       <use x="63.623047" xlink:href="#DejaVuSans-46"/>
       <use x="95.410156" xlink:href="#DejaVuSans-53"/>
      </g>
     </g>
    </g>
    <g id="ytick_7">
     <g id="line2d_35">
      <path clip-path="url(#pbb5b60b402)" d="M 76.5 215.712 
L 550.8 215.712 
" style="fill:none;stroke:#b0b0b0;stroke-linecap:square;stroke-width:0.8;"/>
     </g>
     <g id="line2d_36">
      <g>
       <use style="stroke:#000000;stroke-width:0.8;" x="76.5" xlink:href="#m29f8ecff0c" y="215.712"/>
      </g>
     </g>
     <g id="text_19">
      <!-- 0.6 -->
      <g transform="translate(53.596875 219.511219)scale(0.1 -0.1)">
       <use xlink:href="#DejaVuSans-48"/>
       <use x="63.623047" xlink:href="#DejaVuSans-46"/>
       <use x="95.410156" xlink:href="#DejaVuSans-54"/>
      </g>
     </g>
    </g>
    <g id="ytick_8">
     <g id="line2d_37">
      <path clip-path="url(#pbb5b60b402)" d="M 76.5 176.904 
L 550.8 176.904 
" style="fill:none;stroke:#b0b0b0;stroke-linecap:square;stroke-width:0.8;"/>
     </g>
     <g id="line2d_38">
      <g>
       <use style="stroke:#000000;stroke-width:0.8;" x="76.5" xlink:href="#m29f8ecff0c" y="176.904"/>
      </g>
     </g>
     <g id="text_20">
      <!-- 0.7 -->
      <g transform="translate(53.596875 180.703219)scale(0.1 -0.1)">
       <use xlink:href="#DejaVuSans-48"/>
       <use x="63.623047" xlink:href="#DejaVuSans-46"/>
       <use x="95.410156" xlink:href="#DejaVuSans-55"/>
      </g>
     </g>
    </g>
    <g id="ytick_9">
     <g id="line2d_39">
      <path clip-path="url(#pbb5b60b402)" d="M 76.5 138.096 
L 550.8 138.096 
" style="fill:none;stroke:#b0b0b0;stroke-linecap:square;stroke-width:0.8;"/>
     </g>
     <g id="line2d_40">
      <g>
       <use style="stroke:#000000;stroke-width:0.8;" x="76.5" xlink:href="#m29f8ecff0c" y="138.096"/>
      </g>
     </g>
     <g id="text_21">
      <!-- 0.8 -->
      <g transform="translate(53.596875 141.895219)scale(0.1 -0.1)">
       <use xlink:href="#DejaVuSans-48"/>
       <use x="63.623047" xlink:href="#DejaVuSans-46"/>
       <use x="95.410156" xlink:href="#DejaVuSans-56"/>
      </g>
     </g>
    </g>
    <g id="ytick_10">
     <g id="line2d_41">
      <path clip-path="url(#pbb5b60b402)" d="M 76.5 99.288 
L 550.8 99.288 
" style="fill:none;stroke:#b0b0b0;stroke-linecap:square;stroke-width:0.8;"/>
     </g>
     <g id="line2d_42">
      <g>
       <use style="stroke:#000000;stroke-width:0.8;" x="76.5" xlink:href="#m29f8ecff0c" y="99.288"/>
      </g>
     </g>
     <g id="text_22">
      <!-- 0.9 -->
      <g transform="translate(53.596875 103.087219)scale(0.1 -0.1)">
       <use xlink:href="#DejaVuSans-48"/>
       <use x="63.623047" xlink:href="#DejaVuSans-46"/>
       <use x="95.410156" xlink:href="#DejaVuSans-57"/>
      </g>
     </g>
    </g>
    <g id="ytick_11">
     <g id="line2d_43">
      <path clip-path="url(#pbb5b60b402)" d="M 76.5 60.48 
L 550.8 60.48 
" style="fill:none;stroke:#b0b0b0;stroke-linecap:square;stroke-width:0.8;"/>
     </g>
     <g id="line2d_44">
      <g>
       <use style="stroke:#000000;stroke-width:0.8;" x="76.5" xlink:href="#m29f8ecff0c" y="60.48"/>
      </g>
     </g>
     <g id="text_23">
      <!-- 1.0 -->
      <g transform="translate(53.596875 64.279219)scale(0.1 -0.1)">
       <use xlink:href="#DejaVuSans-49"/>
       <use x="63.623047" xlink:href="#DejaVuSans-46"/>
       <use x="95.410156" xlink:href="#DejaVuSans-48"/>
      </g>
     </g>
    </g>
    <g id="text_24">
     <!-- #correct/1001 -->
     <defs>
      <path d="M 51.125 44 
L 36.921875 44 
L 32.8125 27.6875 
L 47.125 27.6875 
z
M 43.796875 71.78125 
L 38.71875 51.515625 
L 52.984375 51.515625 
L 58.109375 71.78125 
L 65.921875 71.78125 
L 60.890625 51.515625 
L 76.125 51.515625 
L 76.125 44 
L 58.984375 44 
L 54.984375 27.6875 
L 70.515625 27.6875 
L 70.515625 20.21875 
L 53.078125 20.21875 
L 48 0 
L 40.1875 0 
L 45.21875 20.21875 
L 30.90625 20.21875 
L 25.875 0 
L 18.015625 0 
L 23.09375 20.21875 
L 7.71875 20.21875 
L 7.71875 27.6875 
L 24.90625 27.6875 
L 29 44 
L 13.28125 44 
L 13.28125 51.515625 
L 30.90625 51.515625 
L 35.890625 71.78125 
z
" id="DejaVuSans-35"/>
      <path d="M 18.3125 70.21875 
L 18.3125 54.6875 
L 36.8125 54.6875 
L 36.8125 47.703125 
L 18.3125 47.703125 
L 18.3125 18.015625 
Q 18.3125 11.328125 20.140625 9.421875 
Q 21.96875 7.515625 27.59375 7.515625 
L 36.8125 7.515625 
L 36.8125 0 
L 27.59375 0 
Q 17.1875 0 13.234375 3.875 
Q 9.28125 7.765625 9.28125 18.015625 
L 9.28125 47.703125 
L 2.6875 47.703125 
L 2.6875 54.6875 
L 9.28125 54.6875 
L 9.28125 70.21875 
z
" id="DejaVuSans-116"/>
      <path d="M 25.390625 72.90625 
L 33.6875 72.90625 
L 8.296875 -9.28125 
L 0 -9.28125 
z
" id="DejaVuSans-47"/>
     </defs>
     <g transform="translate(47.517187 290.624688)rotate(-90)scale(0.1 -0.1)">
      <use xlink:href="#DejaVuSans-35"/>
      <use x="83.789062" xlink:href="#DejaVuSans-99"/>
      <use x="138.769531" xlink:href="#DejaVuSans-111"/>
      <use x="199.951172" xlink:href="#DejaVuSans-114"/>
      <use x="239.314453" xlink:href="#DejaVuSans-114"/>
      <use x="278.177734" xlink:href="#DejaVuSans-101"/>
      <use x="339.701172" xlink:href="#DejaVuSans-99"/>
      <use x="394.681641" xlink:href="#DejaVuSans-116"/>
      <use x="433.890625" xlink:href="#DejaVuSans-47"/>
      <use x="467.582031" xlink:href="#DejaVuSans-49"/>
      <use x="531.205078" xlink:href="#DejaVuSans-48"/>
      <use x="594.828125" xlink:href="#DejaVuSans-48"/>
      <use x="658.451172" xlink:href="#DejaVuSans-49"/>
     </g>
    </g>
   </g>
   <g id="line2d_45">
    <path clip-path="url(#pbb5b60b402)" d="M 76.5 448.172308 
L 76.5 305.113846 
L 77.778437 305.113846 
L 77.716154 297.747692 
L 78.926087 297.747692 
L 78.895455 295.809231 
L 80.084131 295.809231 
L 79.962044 290.381538 
L 81.104854 290.381538 
L 80.744295 276.812308 
L 81.793527 276.812308 
L 81.735099 274.873846 
L 82.768282 274.873846 
L 82.307755 260.916923 
L 83.261914 260.916923 
L 83.166867 258.203077 
L 84.104008 258.203077 
L 83.579104 243.858462 
L 84.449162 243.858462 
L 84.177518 236.492308 
L 85.01526 236.492308 
L 84.924512 234.166154 
L 85.750532 234.166154 
L 85.253859 221.76 
L 86.033668 221.76 
L 85.754634 214.781538 
L 86.509578 214.781538 
L 85.986 201.6 
L 87.41181 201.6 
L 87.214608 196.947692 
L 87.911729 196.947692 
L 87.860479 195.784615 
L 88.552466 195.784615 
L 88.135065 186.48 
L 88.801729 186.48 
L 88.74878 185.316923 
L 89.410745 185.316923 
L 89.174684 180.276923 
L 89.823034 180.276923 
L 89.804348 179.889231 
L 90.45 179.889231 
L 90.43049 179.501538 
L 91.073464 179.501538 
L 90.892552 176.012308 
L 91.526033 176.012308 
L 91.443699 174.461538 
L 92.072093 174.461538 
L 91.945319 172.135385 
L 92.567073 172.135385 
L 92.45895 170.196923 
L 93.075 170.196923 
L 93.052752 169.809231 
L 93.666354 169.809231 
L 93.461722 166.32 
L 94.066667 166.32 
L 94.043461 165.932308 
L 94.646042 165.932308 
L 94.598289 165.156923 
L 95.197766 165.156923 
L 95.173228 164.769231 
L 96.365969 164.769231 
L 95.908696 157.790769 
L 96.489655 157.790769 
L 96.21272 153.526154 
L 96.784528 153.526154 
L 96.733626 152.750769 
L 97.302632 152.750769 
L 97.276596 152.363077 
L 97.8435 152.363077 
L 97.790274 151.587692 
L 98.354421 151.587692 
L 98.138841 148.486154 
L 98.696305 148.486154 
L 98.5875 146.935385 
L 99.141004 146.935385 
L 99.113325 146.547692 
L 99.664835 146.547692 
L 99.468523 143.833846 
L 100.014268 143.833846 
L 99.957539 143.058462 
L 101.583173 143.058462 
L 101.553061 142.670769 
L 102.091727 142.670769 
L 102.061078 142.283077 
L 102.597847 142.283077 
L 102.535561 141.507692 
L 103.069845 141.507692 
L 103.038214 141.12 
L 104.631673 141.12 
L 104.531915 139.956923 
L 106.108834 139.956923 
L 106.039248 139.181538 
L 106.561268 139.181538 
L 106.455789 138.018462 
L 107.492765 138.018462 
L 107.384651 136.855385 
L 107.899652 136.855385 
L 107.682353 134.529231 
L 108.192857 134.529231 
L 108.156387 134.141538 
L 109.17279 134.141538 
L 108.80193 130.264615 
L 109.303061 130.264615 
L 109.265912 129.876923 
L 110.263729 129.876923 
L 109.88648 126 
L 111.359465 126 
L 111.282 125.224615 
L 112.256541 125.224615 
L 112.177434 124.449231 
L 112.662099 124.449231 
L 112.622185 124.061538 
L 113.105292 124.061538 
L 113.064978 123.673846 
L 114.027033 123.673846 
L 113.781223 121.347692 
L 114.257797 121.347692 
L 114.134674 120.184615 
L 115.081887 120.184615 
L 114.873786 118.246154 
L 115.343534 118.246154 
L 115.301722 117.858462 
L 115.77 117.858462 
L 115.60182 116.307692 
L 116.067273 116.307692 
L 115.982818 115.532308 
L 116.446375 115.532308 
L 116.403834 115.144615 
L 116.865957 115.144615 
L 116.823061 114.756923 
L 117.283758 114.756923 
L 117.240509 114.369231 
L 118.158095 114.369231 
L 118.070116 113.593846 
L 118.526582 113.593846 
L 118.482297 113.206154 
L 118.937368 113.206154 
L 118.848214 112.430769 
L 119.301469 112.430769 
L 119.122571 110.88 
L 119.573173 110.88 
L 119.43871 109.716923 
L 119.88711 109.716923 
L 119.797095 108.941538 
L 120.243731 108.941538 
L 120.153257 108.166154 
L 120.59814 108.166154 
L 120.507216 107.390769 
L 120.95036 107.390769 
L 120.90463 107.003077 
L 121.346454 107.003077 
L 121.162845 105.452308 
L 121.602147 105.452308 
L 121.556078 105.064615 
L 123.302747 105.064615 
L 123.255183 104.676923 
L 123.689239 104.676923 
L 123.641379 104.289231 
L 124.506073 104.289231 
L 124.360747 103.126154 
L 124.790625 103.126154 
L 124.693461 102.350769 
L 125.121709 102.350769 
L 124.927027 100.8 
L 126.202096 100.8 
L 126.103088 100.024615 
L 127.788393 100.024615 
L 127.686832 99.249231 
L 129.355917 99.249231 
L 129.25187 98.473846 
L 130.905 98.473846 
L 130.851714 98.086154 
L 131.672727 98.086154 
L 131.618848 97.698462 
L 132.027805 97.698462 
L 131.973684 97.310769 
L 132.788521 97.310769 
L 132.733819 96.923077 
L 134.352662 96.923077 
L 134.296712 96.535385 
L 135.100772 96.535385 
L 134.987861 95.76 
L 135.388065 95.76 
L 135.331442 95.372308 
L 135.730548 95.372308 
L 135.560345 94.209231 
L 136.750143 94.209231 
L 136.692653 93.821538 
L 137.087417 93.821538 
L 136.914639 92.658462 
L 138.482386 92.658462 
L 138.423746 92.270769 
L 139.590849 92.270769 
L 139.472034 91.495385 
L 140.245207 91.495385 
L 140.065979 90.332308 
L 141.981716 90.332308 
L 141.859777 89.556923 
L 142.240186 89.556923 
L 142.179089 89.169231 
L 143.6925 89.169231 
L 143.630342 88.781538 
L 145.877829 88.781538 
L 145.750413 88.006154 
L 147.969863 88.006154 
L 147.904653 87.618462 
L 149.369727 87.618462 
L 149.303542 87.230769 
L 150.756923 87.230769 
L 150.622764 86.455385 
L 150.983935 86.455385 
L 150.916772 86.067692 
L 154.490349 86.067692 
L 154.420714 85.68 
L 155.479608 85.68 
L 155.409342 85.292308 
L 156.111634 85.292308 
L 156.040994 84.904615 
L 157.437135 84.904615 
L 157.365636 84.516923 
L 159.439982 84.516923 
L 159.367164 84.129231 
L 163.784375 84.129231 
L 163.708673 83.741538 
L 164.378961 83.741538 
L 164.302941 83.353846 
L 172.484505 83.353846 
L 172.322232 82.578462 
L 175.494719 82.578462 
L 175.411809 82.190769 
L 176.977231 82.190769 
L 176.8935 81.803077 
L 186.309504 81.803077 
L 186.220373 81.415385 
L 190.316774 81.415385 
L 190.225501 81.027692 
L 195.917285 81.027692 
L 195.823107 80.64 
L 198.048668 80.64 
L 197.858451 79.864615 
L 203.028759 79.864615 
L 202.931279 79.476923 
L 208.729091 79.476923 
L 208.628993 79.089231 
L 210.688713 79.089231 
L 210.58782 78.701538 
L 227.136052 78.701538 
L 227.028377 78.313846 
L 231.141214 78.313846 
L 231.032158 77.926154 
L 235.260125 77.926154 
L 235.149722 77.538462 
L 253.935971 77.538462 
L 253.82 77.150769 
L 298.926718 77.150769 
L 298.80349 76.763077 
L 305.595849 76.763077 
L 305.595849 76.763077 
" style="fill:none;stroke:#1f77b4;stroke-linecap:square;stroke-width:2;"/>
   </g>
   <g id="line2d_46">
    <path clip-path="url(#pbb5b60b402)" d="M 76.5 448.172308 
L 76.5 320.233846 
L 77.928614 320.233846 
L 77.851282 312.867692 
L 79.194886 312.867692 
L 79.091803 307.44 
L 80.377112 307.44 
L 80.195844 300.461538 
L 81.415026 300.461538 
L 80.72539 276.036923 
L 80.528025 267.507692 
L 82.51649 267.507692 
L 82.331557 261.692308 
L 83.289571 261.692308 
L 82.471403 235.716923 
L 82.324737 230.289231 
L 83.145184 230.289231 
L 82.887879 221.372308 
L 83.674286 221.372308 
L 83.6145 219.433846 
L 84.391847 219.433846 
L 84.365672 218.658462 
L 85.137914 218.658462 
L 84.781429 208.578462 
L 86.256171 208.578462 
L 86.179592 206.64 
L 86.907837 206.64 
L 86.545688 197.723077 
L 87.946154 197.723077 
L 87.792857 194.233846 
L 88.480832 194.233846 
L 88.410044 192.683077 
L 89.092035 192.683077 
L 88.891001 188.418462 
L 89.560435 188.418462 
L 89.503896 187.255385 
L 90.168588 187.255385 
L 89.993599 183.766154 
L 90.648153 183.766154 
L 89.996341 170.584615 
L 90.619892 170.584615 
L 90.506174 168.258462 
L 91.12319 168.258462 
L 91.084091 167.483077 
L 91.697864 167.483077 
L 91.557143 164.769231 
L 92.163804 164.769231 
L 92.081472 163.218462 
L 92.683465 163.218462 
L 92.662254 162.830769 
L 93.261911 162.830769 
L 93.218146 162.055385 
L 95.003251 162.055385 
L 94.979221 161.667692 
L 95.570428 161.667692 
L 95.447552 159.729231 
L 96.033591 159.729231 
L 95.859184 157.015385 
L 96.438726 157.015385 
L 96.413359 156.627692 
L 96.990724 156.627692 
L 96.964721 156.24 
L 97.539924 156.24 
L 97.486726 155.464615 
L 98.059091 155.464615 
L 97.8435 152.363077 
L 98.408989 152.363077 
L 98.354421 151.587692 
L 98.917164 151.587692 
L 98.833829 150.424615 
L 99.393193 150.424615 
L 99.364895 150.036923 
L 101.032759 150.036923 
L 101.002583 149.649231 
L 102.10638 149.649231 
L 102.075 149.261538 
L 103.172127 149.261538 
L 103.074665 148.098462 
L 103.619343 148.098462 
L 103.553519 147.323077 
L 104.636441 147.323077 
L 104.602418 146.935385 
L 105.141304 146.935385 
L 105.106755 146.547692 
L 106.179422 146.547692 
L 106.14375 146.16 
L 106.677551 146.16 
L 106.641367 145.772308 
L 107.703947 145.772308 
L 107.408175 142.670769 
L 107.932899 142.670769 
L 107.748 140.732308 
L 108.268625 140.732308 
L 108.157026 139.569231 
L 108.674737 139.569231 
L 108.59965 138.793846 
L 109.62922 138.793846 
L 109.552265 138.018462 
L 110.064153 138.018462 
L 109.832143 135.692308 
L 110.339586 135.692308 
L 110.30069 135.304615 
L 110.806429 135.304615 
L 110.767087 134.916923 
L 112.275771 134.916923 
L 112.234932 134.529231 
L 115.711665 134.529231 
L 115.534837 132.978462 
L 116.025 132.978462 
L 115.98054 132.590769 
L 116.469101 132.590769 
L 116.290268 131.04 
L 116.775754 131.04 
L 116.685953 130.264615 
L 118.133 130.264615 
L 118.086792 129.876923 
L 119.522788 129.876923 
L 119.475249 129.489231 
L 121.373267 129.489231 
L 121.274753 128.713846 
L 121.745724 128.713846 
L 121.548144 127.163077 
L 122.016249 127.163077 
L 121.769414 125.224615 
L 122.698052 125.224615 
L 122.498922 123.673846 
L 122.959957 123.673846 
L 122.760772 122.123077 
L 125.495847 122.123077 
L 125.443723 121.735385 
L 126.796925 121.735385 
L 126.690476 120.96 
L 127.138795 120.96 
L 127.085322 120.572308 
L 127.532278 120.572308 
L 127.371293 119.409231 
L 129.144817 119.409231 
L 129.089749 119.021538 
L 129.530408 119.021538 
L 129.419812 118.246154 
L 132.039793 118.246154 
L 131.982298 117.858462 
L 133.709381 117.858462 
L 133.650463 117.470769 
L 134.507914 117.470769 
L 134.388923 116.695385 
L 135.241351 116.695385 
L 135.181288 116.307692 
L 135.605822 116.307692 
L 135.54551 115.92 
L 137.653401 115.92 
L 137.591379 115.532308 
L 138.844793 115.532308 
L 138.65625 114.369231 
L 139.485513 114.369231 
L 139.422211 113.981538 
L 142.296108 113.981538 
L 142.230508 113.593846 
L 143.043582 113.593846 
L 142.977435 113.206154 
L 143.382423 113.206154 
L 143.051976 111.267692 
L 143.454492 111.267692 
L 143.256791 110.104615 
L 146.045455 110.104615 
L 145.977539 109.716923 
L 147.160078 109.716923 
L 147.091342 109.329231 
L 152.515451 109.329231 
L 152.44257 108.941538 
L 153.585086 108.941538 
L 153.511461 108.553846 
L 155.399715 108.553846 
L 155.324786 108.166154 
L 155.7 108.166154 
L 155.624929 107.778462 
L 157.117564 107.778462 
L 157.041509 107.390769 
L 157.41263 107.390769 
L 157.336441 107.003077 
L 158.812852 107.003077 
L 158.735708 106.615385 
L 159.469224 106.615385 
L 159.314286 105.84 
L 160.407821 105.84 
L 160.329767 105.452308 
L 160.692658 105.452308 
L 160.536456 104.676923 
L 160.898146 104.676923 
L 160.82 104.289231 
L 168.258311 104.289231 
L 168.175045 103.901538 
L 170.590171 103.901538 
L 170.505405 103.513846 
L 172.88863 103.513846 
L 172.802415 103.126154 
L 173.477411 103.126154 
L 173.390901 102.738462 
L 174.063045 102.738462 
L 173.976246 102.350769 
L 174.3112 102.350769 
L 174.224334 101.963077 
L 175.557345 101.963077 
L 175.469761 101.575385 
L 178.759246 101.575385 
L 178.669702 101.187692 
L 181.9 101.187692 
L 181.808586 100.8 
L 187.480529 100.8 
L 187.385836 100.412308 
L 188.621939 100.412308 
L 188.526678 100.024615 
L 190.972405 100.024615 
L 190.875885 99.636923 
L 192.687584 99.636923 
L 192.590193 99.249231 
L 200.517787 99.249231 
L 200.416216 98.861538 
L 200.989207 98.861538 
L 200.8875 98.473846 
L 203.723096 98.473846 
L 203.620081 98.086154 
L 203.900971 98.086154 
L 203.797979 97.698462 
L 204.6375 97.698462 
L 204.534247 97.310769 
L 209.755714 97.310769 
L 209.65004 96.923077 
L 210.728775 96.923077 
L 210.51689 96.147692 
L 211.587805 96.147692 
L 211.37557 95.372308 
L 219.444709 95.372308 
L 219.335172 94.984615 
L 220.852174 94.984615 
L 220.742149 94.596923 
L 225.209098 94.596923 
L 225.09737 94.209231 
L 232.276708 94.209231 
L 232.162335 93.821538 
L 235.862046 93.821538 
L 235.746483 93.433846 
L 242.454507 93.433846 
L 242.336809 93.046154 
L 246.650979 93.046154 
L 246.532075 92.658462 
L 254.402859 92.658462 
L 254.281837 92.270769 
L 258.654088 92.270769 
L 258.532083 91.883077 
L 276.362264 91.883077 
L 276.236644 91.495385 
L 279.308204 91.495385 
L 279.182236 91.107692 
L 290.809156 91.107692 
L 290.681818 90.72 
L 301.353333 90.72 
L 301.225285 90.332308 
L 304.174676 90.332308 
L 304.046625 89.944615 
L 314.289218 89.944615 
L 314.289218 89.944615 
" style="fill:none;stroke:#ff7f0e;stroke-linecap:square;stroke-width:2;"/>
   </g>
   <g id="line2d_47">
    <path clip-path="url(#pbb5b60b402)" d="M 76.5 448.172308 
L 76.5 439.643077 
L 96.2625 439.643077 
L 94.066667 438.48 
L 92.31 437.316923 
L 90.45 435.766154 
L 103.602857 435.766154 
L 100.823077 434.215385 
L 98.560465 432.664615 
L 97.121739 431.501538 
L 106.774468 431.501538 
L 104.4 429.950769 
L 102.370909 428.4 
L 100.215 426.461538 
L 98.390769 424.523077 
L 96.540845 422.196923 
L 95.222368 420.258462 
L 101.138961 420.258462 
L 99.357831 417.932308 
L 97.58 415.218462 
L 96.058763 412.504615 
L 94.568571 409.403077 
L 93.142105 405.913846 
L 91.8 402.036923 
L 90.553333 397.772308 
L 90.45 397.384615 
L 93.810219 397.384615 
L 93.684783 396.996923 
L 96.973381 396.996923 
L 95.472 392.732308 
L 94.066667 388.08 
L 93.852439 387.304615 
L 96.621818 387.304615 
L 95.802907 384.590769 
L 98.432948 384.590769 
L 96.9 379.550769 
L 95.663636 374.898462 
L 97.950754 374.898462 
L 97.8435 374.510769 
L 100.097015 374.510769 
L 98.458333 368.695385 
L 97.58 365.206154 
L 99.585398 365.206154 
L 99.4837 364.818462 
L 101.463158 364.818462 
L 100.823077 362.492308 
L 104.636441 362.492308 
L 102.85 356.289231 
L 101.369663 350.473846 
L 103.046642 350.473846 
L 102.465328 348.147692 
L 104.095636 348.147692 
L 103.221127 344.658462 
L 104.791579 344.658462 
L 103.92551 341.169231 
L 105.440339 341.169231 
L 103.689172 333.803077 
L 103.179375 331.476923 
L 104.573832 331.476923 
L 102.85 323.335385 
L 101.189589 314.418462 
L 100.790296 312.092308 
L 102 312.092308 
L 101.138961 307.052308 
L 102.303886 307.052308 
L 102.104884 305.889231 
L 104.4 305.889231 
L 103.909296 303.175385 
L 105.029323 303.175385 
L 104.816418 302.012308 
L 105.923077 302.012308 
L 105.777778 301.236923 
L 107.964619 301.236923 
L 107.358072 298.135385 
L 108.424038 298.135385 
L 106.959633 290.381538 
L 108.986301 290.381538 
L 108.049889 285.341538 
L 109.029425 285.341538 
L 108.188147 280.689231 
L 109.14 280.689231 
L 108.792766 278.750769 
L 109.73121 278.750769 
L 109.1762 275.649231 
L 111.012474 275.649231 
L 110.798554 274.486154 
L 111.705773 274.486154 
L 111.417791 272.935385 
L 112.31449 272.935385 
L 111.5982 269.058462 
L 112.47485 269.058462 
L 111.84 265.569231 
L 112.699022 265.569231 
L 112.557895 264.793846 
L 113.410506 264.793846 
L 112.296226 258.590769 
L 113.122034 258.590769 
L 112.78041 256.652308 
L 113.596089 256.652308 
L 113.458442 255.876923 
L 114.268333 255.876923 
L 113.38047 250.836923 
L 114.170036 250.836923 
L 112.173846 238.818462 
L 112.922355 238.818462 
L 112.860307 238.430769 
L 114.347368 238.430769 
L 114.28322 238.043077 
L 116.491568 238.043077 
L 116.357143 237.267692 
L 117.086074 237.267692 
L 117.01809 236.88 
L 119.187 236.88 
L 118.625329 233.778462 
L 119.334975 233.778462 
L 119.125 232.615385 
L 119.829201 232.615385 
L 118.593185 225.636923 
L 119.277057 225.636923 
L 119.074961 224.473846 
L 122.447812 224.473846 
L 122.162422 222.923077 
L 123.489474 222.923077 
L 123.200308 221.372308 
L 123.857143 221.372308 
L 122.445604 213.618462 
L 124.352226 213.618462 
L 122.839655 205.089231 
L 123.453659 205.089231 
L 123.38639 204.701538 
L 124.607571 204.701538 
L 124.538944 204.313846 
L 125.146154 204.313846 
L 124.733898 201.987692 
L 126.531646 201.987692 
L 126.461376 201.6 
L 127.056522 201.6 
L 126.985714 201.212308 
L 128.169553 201.212308 
L 127.669295 198.498462 
L 128.836552 198.498462 
L 127.845061 193.070769 
L 128.98664 193.070769 
L 128.845357 192.295385 
L 129.978121 192.295385 
L 129.906434 191.907692 
L 130.46988 191.907692 
L 130.397727 191.52 
L 130.959012 191.52 
L 130.526225 189.193846 
L 131.082143 189.193846 
L 130.794868 187.643077 
L 131.346781 187.643077 
L 131.274803 187.255385 
L 132.373037 187.255385 
L 131.865759 184.541538 
L 133.489535 184.541538 
L 132.978745 181.827692 
L 133.513043 181.827692 
L 133.44023 181.44 
L 133.972577 181.44 
L 133.035132 176.4 
L 133.558647 176.4 
L 132.992308 173.298462 
L 136.589668 173.298462 
L 136.36875 172.135385 
L 136.87601 172.135385 
L 136.8022 171.747692 
L 137.307692 171.747692 
L 136.938714 169.809231 
L 137.440364 169.809231 
L 136.927644 167.095385 
L 137.920144 167.095385 
L 137.7 165.932308 
L 139.664804 165.932308 
L 139.440284 164.769231 
L 139.927101 164.769231 
L 138.893364 159.341538 
L 139.850174 159.341538 
L 139.776682 158.953846 
L 140.252955 158.953846 
L 139.812773 156.627692 
L 140.285172 156.627692 
L 139.632082 153.138462 
L 140.565494 153.138462 
L 139.988976 150.036923 
L 140.450562 150.036923 
L 140.378788 149.649231 
L 142.213073 149.649231 
L 142.066555 148.873846 
L 142.521715 148.873846 
L 142.375 148.098462 
L 143.280599 148.098462 
L 143.206645 147.710769 
L 143.657522 147.710769 
L 143.214725 145.384615 
L 144.553998 145.384615 
L 144.331114 144.221538 
L 145.657998 144.221538 
L 145.432972 143.058462 
L 146.31039 143.058462 
L 146.009483 141.507692 
L 146.44521 141.507692 
L 146.37 141.12 
L 147.237876 141.12 
L 146.935577 139.569231 
L 147.796695 139.569231 
L 147.645 138.793846 
L 148.073433 138.793846 
L 147.997452 138.406154 
L 148.850847 138.406154 
L 148.621647 137.243077 
L 149.045886 137.243077 
L 148.969442 136.855385 
L 149.814511 136.855385 
L 149.660651 136.08 
L 150.081132 136.08 
L 150.004084 135.692308 
L 150.423326 135.692308 
L 150.115313 134.141538 
L 150.948337 134.141538 
L 150.871028 133.753846 
L 151.285892 133.753846 
L 151.131056 132.978462 
L 151.544364 132.978462 
L 151.466839 132.590769 
L 152.290206 132.590769 
L 152.212152 132.203077 
L 153.031449 132.203077 
L 152.874462 131.427692 
L 153.689048 131.427692 
L 153.610123 131.04 
L 154.824771 131.04 
L 154.74501 130.652308 
L 155.147915 130.652308 
L 155.067988 130.264615 
L 155.469746 130.264615 
L 155.389655 129.876923 
L 156.190081 129.876923 
L 156.029091 129.101538 
L 157.221752 129.101538 
L 156.978614 127.938462 
L 158.161261 127.938462 
L 158.0796 127.550769 
L 158.863473 127.550769 
L 158.617612 126.387692 
L 159.007455 126.387692 
L 158.925521 126 
L 159.702279 126 
L 159.619901 125.612308 
L 160.006825 125.612308 
L 159.924308 125.224615 
L 160.310168 125.224615 
L 160.062697 124.061538 
L 161.213052 124.061538 
L 160.964384 122.898462 
L 162.862317 122.898462 
L 162.778307 122.510769 
L 164.282267 122.510769 
L 164.112476 121.735385 
L 167.449185 121.735385 
L 167.27512 120.96 
L 167.641778 120.96 
L 167.554728 120.572308 
L 167.92042 120.572308 
L 167.572814 119.021538 
L 169.38562 119.021538 
L 169.297826 118.633846 
L 169.658074 118.633846 
L 169.482469 117.858462 
L 170.199906 117.858462 
L 170.111842 117.470769 
L 172.246542 117.470769 
L 172.157143 117.083077 
L 173.214804 117.083077 
L 172.945404 115.92 
L 173.645783 115.92 
L 173.555833 115.532308 
L 173.90481 115.532308 
L 173.814787 115.144615 
L 174.162881 115.144615 
L 174.072786 114.756923 
L 175.802479 114.756923 
L 175.711376 114.369231 
L 178.444262 114.369231 
L 178.258909 113.593846 
L 181.615135 113.593846 
L 181.331806 112.430769 
L 181.663465 112.430769 
L 181.569148 112.043077 
L 182.889008 112.043077 
L 182.604545 110.88 
L 184.238066 110.88 
L 184.142553 110.492308 
L 185.115119 110.492308 
L 185.01917 110.104615 
L 185.985991 110.104615 
L 185.505789 108.166154 
L 185.825942 108.166154 
L 185.73021 107.778462 
L 186.686725 107.778462 
L 186.590576 107.390769 
L 186.908108 107.390769 
L 186.811934 107.003077 
L 190.266523 107.003077 
L 190.168448 106.615385 
L 192.33162 106.615385 
L 192.232449 106.227692 
L 192.539179 106.227692 
L 192.44 105.84 
L 192.746029 105.84 
L 192.350298 104.289231 
L 192.959388 104.289231 
L 192.860526 103.901538 
L 193.467203 103.901538 
L 193.368163 103.513846 
L 196.36927 103.513846 
L 196.268708 103.126154 
L 198.044324 103.126154 
L 197.942952 102.738462 
L 198.237 102.738462 
L 198.135637 102.350769 
L 200.179222 102.350769 
L 200.076923 101.963077 
L 201.233471 101.963077 
L 201.130725 101.575385 
L 203.703925 101.575385 
L 203.6 101.187692 
L 204.730945 101.187692 
L 204.626607 100.8 
L 205.189033 100.8 
L 205.084578 100.412308 
L 206.481973 100.412308 
L 206.376979 100.024615 
L 209.410328 100.024615 
L 209.304 99.636923 
L 209.576978 99.636923 
L 209.364565 98.861538 
L 211.53069 98.861538 
L 211.423693 98.473846 
L 212.228538 98.473846 
L 212.121327 98.086154 
L 213.453659 98.086154 
L 213.345991 97.698462 
L 214.930282 97.698462 
L 214.822048 97.310769 
L 218.973127 97.310769 
L 218.863194 96.923077 
L 219.629792 96.923077 
L 219.519692 96.535385 
L 220.53589 96.535385 
L 220.425517 96.147692 
L 220.931064 96.147692 
L 220.71039 95.372308 
L 222.216502 95.372308 
L 222.105775 94.984615 
L 223.844898 94.984615 
L 223.73361 94.596923 
L 226.428539 94.596923 
L 226.316317 94.209231 
L 227.767064 94.209231 
L 227.65443 93.821538 
L 229.56795 93.821538 
L 229.454734 93.433846 
L 232.281818 93.433846 
L 232.167692 93.046154 
L 235.402538 93.046154 
L 235.287391 92.658462 
L 236.199277 92.658462 
L 236.083971 92.270769 
L 236.764193 92.270769 
L 236.648812 91.883077 
L 239.117143 91.883077 
L 239.001071 91.495385 
L 241.430099 91.495385 
L 241.313376 91.107692 
L 245.632798 91.107692 
L 245.514854 90.72 
L 247.838824 90.72 
L 247.720332 90.332308 
L 247.929786 90.332308 
L 247.811395 89.944615 
L 251.735583 89.944615 
L 251.616213 89.556923 
L 256.033691 89.556923 
L 255.91328 89.169231 
L 256.110925 89.169231 
L 255.990623 88.781538 
L 260.84585 88.781538 
L 260.72449 88.393846 
L 263.560952 88.393846 
L 263.439088 88.006154 
L 267.862861 88.006154 
L 267.740192 87.618462 
L 273.777854 87.618462 
L 273.654169 87.230769 
L 290.465724 87.230769 
L 290.339788 86.843077 
L 297.060378 86.843077 
L 296.933983 86.455385 
L 311.988032 86.455385 
L 311.988032 86.455385 
" style="fill:none;stroke:#2ca02c;stroke-linecap:square;stroke-width:2;"/>
   </g>
   <g id="line2d_48">
    <path clip-path="url(#pbb5b60b402)" d="M 76.5 448.172308 
L 76.5 409.403077 
L 81.15 409.403077 
L 81.060577 408.627692 
L 85.534286 408.627692 
L 84.538983 403.587692 
L 83.632331 397.772308 
L 83.32446 395.446154 
L 86.663571 395.446154 
L 85.621154 389.243077 
L 84.677586 382.264615 
L 83.759694 373.735385 
L 82.909459 363.655385 
L 82.880717 363.267692 
L 84.969643 363.267692 
L 84.058566 352.8 
L 83.713688 348.147692 
L 87.238868 348.147692 
L 86.886131 344.658462 
L 88.573091 344.658462 
L 88.485921 343.883077 
L 90.148921 343.883077 
L 89.907774 341.944615 
L 91.530634 341.944615 
L 90.27 331.864615 
L 90.181731 331.089231 
L 91.653355 331.089231 
L 90.960366 325.273846 
L 92.358055 325.273846 
L 91.890265 321.396923 
L 93.24 321.396923 
L 92.808309 317.907692 
L 94.116857 317.907692 
L 94.066667 317.52 
L 95.364205 317.52 
L 95.204789 316.356923 
L 96.484551 316.356923 
L 95.027344 305.501538 
L 94.330827 299.686154 
L 95.472 299.686154 
L 94.18951 288.443077 
L 95.251395 288.443077 
L 94.260132 279.138462 
L 95.263516 279.138462 
L 95.222368 278.750769 
L 96.219256 278.750769 
L 95.235343 269.446154 
L 96.180498 269.446154 
L 94.777457 255.101538 
L 95.654423 255.101538 
L 95.581034 254.326154 
L 96.451434 254.326154 
L 96.3 252.775385 
L 98.018336 252.775385 
L 97.58 248.510769 
L 99.252399 248.510769 
L 99.210497 248.123077 
L 100.040625 248.123077 
L 99.911517 246.96 
L 100.734307 246.96 
L 100.602359 245.796923 
L 101.417935 245.796923 
L 101.372875 245.409231 
L 102.184116 245.409231 
L 102.137838 245.021538 
L 102.944784 245.021538 
L 102.85 244.246154 
L 103.651342 244.246154 
L 103.410638 242.307692 
L 104.991519 242.307692 
L 104.791579 240.756923 
L 106.351049 240.756923 
L 105.93931 237.655385 
L 106.704991 237.655385 
L 106.244237 234.166154 
L 106.996447 234.166154 
L 106.944932 233.778462 
L 107.693423 233.778462 
L 107.588571 233.003077 
L 108.332215 233.003077 
L 107.755354 228.738462 
L 109.934262 228.738462 
L 109.448142 225.249231 
L 110.16 225.249231 
L 109.944231 223.698462 
L 111.352716 223.698462 
L 111.297129 223.310769 
L 111.996975 223.310769 
L 111.716588 221.372308 
L 112.409148 221.372308 
L 111.851553 217.495385 
L 112.532093 217.495385 
L 112.365278 216.332308 
L 113.040832 216.332308 
L 112.928571 215.556923 
L 113.600153 215.556923 
L 113.430229 214.393846 
L 114.096951 214.393846 
L 113.869091 212.843077 
L 114.530106 212.843077 
L 113.963338 208.966154 
L 115.261516 208.966154 
L 115.204006 208.578462 
L 115.849333 208.578462 
L 115.388433 205.476923 
L 116.025 205.476923 
L 115.738171 203.538462 
L 116.997395 203.538462 
L 116.938873 203.150769 
L 117.564935 203.150769 
L 117.329268 201.6 
L 117.950287 201.6 
L 117.714103 200.049231 
L 118.330156 200.049231 
L 118.034746 198.110769 
L 118.645134 198.110769 
L 118.408696 196.56 
L 119.014286 196.56 
L 118.254058 191.52 
L 118.848214 191.52 
L 118.559345 189.581538 
L 119.148229 189.581538 
L 119.032337 188.806154 
L 119.618182 188.806154 
L 119.443378 187.643077 
L 120.025506 187.643077 
L 119.73378 185.704615 
L 120.310843 185.704615 
L 120.252273 185.316923 
L 120.827103 185.316923 
L 120.474834 182.990769 
L 121.044048 182.990769 
L 120.348047 178.338462 
L 120.907802 178.338462 
L 120.85013 177.950769 
L 121.407782 177.950769 
L 120.832778 174.073846 
L 121.382609 174.073846 
L 121.097459 172.135385 
L 121.642766 172.135385 
L 121.585551 171.747692 
L 122.128861 171.747692 
L 121.956242 170.584615 
L 122.496348 170.584615 
L 122.380779 169.809231 
L 122.918319 169.809231 
L 122.74425 168.646154 
L 123.811721 168.646154 
L 123.752802 168.258462 
L 125.869517 168.258462 
L 125.808416 167.870769 
L 126.333745 167.870769 
L 126.210851 167.095385 
L 126.733744 167.095385 
L 126.671956 166.707692 
L 127.712761 166.707692 
L 127.65 166.32 
L 128.167931 166.32 
L 128.041758 165.544615 
L 128.557317 165.544615 
L 128.49391 165.156923 
L 129.52017 165.156923 
L 129.2 163.218462 
L 129.708565 163.218462 
L 129.263038 160.504615 
L 129.766667 160.504615 
L 129.513317 158.953846 
L 130.013658 158.953846 
L 129.697757 157.015385 
L 130.19434 157.015385 
L 129.445116 152.363077 
L 129.934495 152.363077 
L 129.872506 151.975385 
L 130.360255 151.975385 
L 130.173672 150.812308 
L 131.625777 150.812308 
L 131.499196 150.036923 
L 132.459794 150.036923 
L 132.204561 148.486154 
L 132.681321 148.486154 
L 132.490011 147.323077 
L 132.964286 147.323077 
L 132.772881 146.16 
L 133.244695 146.16 
L 133.116892 145.384615 
L 134.523232 145.384615 
L 134.263911 143.833846 
L 134.728795 143.833846 
L 134.66388 143.446154 
L 135.127283 143.446154 
L 134.867295 141.895385 
L 135.7875 141.895385 
L 135.721989 141.507692 
L 136.637266 141.507692 
L 136.439011 140.344615 
L 137.347697 140.344615 
L 137.214551 139.569231 
L 137.666557 139.569231 
L 137.466667 138.406154 
L 137.916431 138.406154 
L 137.518054 136.08 
L 137.964363 136.08 
L 137.765877 134.916923 
L 139.095386 134.916923 
L 138.961349 134.141538 
L 139.841346 134.141538 
L 139.70629 133.366154 
L 140.144089 133.366154 
L 140.076383 132.978462 
L 140.512859 132.978462 
L 140.444904 132.590769 
L 140.880064 132.590769 
L 140.675899 131.427692 
L 141.108976 131.427692 
L 140.972813 130.652308 
L 141.8347 130.652308 
L 141.629245 129.489231 
L 142.057696 129.489231 
L 141.989121 129.101538 
L 142.416301 129.101538 
L 142.278832 128.326154 
L 142.704375 128.326154 
L 142.635484 127.938462 
L 143.059771 127.938462 
L 142.92168 127.163077 
L 143.344352 127.163077 
L 143.206101 126.387692 
L 143.627169 126.387692 
L 143.28222 124.449231 
L 143.700616 124.449231 
L 143.631692 124.061538 
L 144.4652 124.061538 
L 144.257143 122.898462 
L 145.085132 122.898462 
L 145.015361 122.510769 
L 145.427744 122.510769 
L 145.287931 121.735385 
L 145.698784 121.735385 
L 145.489091 120.572308 
L 145.898083 120.572308 
L 145.688632 119.409231 
L 146.907623 119.409231 
L 146.837074 119.021538 
L 147.241441 119.021538 
L 146.959322 117.470769 
L 147.762985 117.470769 
L 147.692147 117.083077 
L 148.890684 117.083077 
L 148.676087 115.92 
L 149.07305 115.92 
L 149.001479 115.532308 
L 149.39734 115.532308 
L 149.253982 114.756923 
L 149.648428 114.756923 
L 149.576644 114.369231 
L 149.97 114.369231 
L 149.898041 113.981538 
L 150.290313 113.981538 
L 150.218182 113.593846 
L 150.609375 113.593846 
L 150.537073 113.206154 
L 150.927193 113.206154 
L 150.782393 112.430769 
L 151.171137 112.430769 
L 151.026285 111.655385 
L 151.413663 111.655385 
L 151.341142 111.267692 
L 151.727466 111.267692 
L 151.654783 110.88 
L 152.040058 110.88 
L 151.967213 110.492308 
L 152.351445 110.492308 
L 152.278441 110.104615 
L 153.044092 110.104615 
L 152.824138 108.941538 
L 153.96447 108.941538 
L 153.890553 108.553846 
L 154.646571 108.553846 
L 154.35 107.003077 
L 156.965598 107.003077 
L 156.889831 106.615385 
L 157.260395 106.615385 
L 157.033114 105.452308 
L 158.50514 105.452308 
L 158.352146 104.676923 
L 159.811059 104.676923 
L 159.733705 104.289231 
L 160.096475 104.289231 
L 160.018999 103.901538 
L 160.380833 103.901538 
L 160.303238 103.513846 
L 161.024377 103.513846 
L 160.946402 103.126154 
L 162.736364 103.126154 
L 162.657248 102.738462 
L 163.013016 102.738462 
L 162.933791 102.350769 
L 163.288655 102.350769 
L 163.209324 101.963077 
L 163.563288 101.963077 
L 163.404558 101.187692 
L 166.556962 101.187692 
L 166.47561 100.8 
L 166.822473 100.8 
L 166.741028 100.412308 
L 167.777158 100.412308 
L 167.695148 100.024615 
L 170.768182 100.024615 
L 170.600445 99.249231 
L 171.612511 99.249231 
L 171.36 98.086154 
L 171.695491 98.086154 
L 171.527449 97.310769 
L 172.529049 97.310769 
L 172.444591 96.923077 
L 172.777065 96.923077 
L 172.608158 96.147692 
L 172.939614 96.147692 
L 172.770866 95.372308 
L 173.760471 95.372308 
L 173.675676 94.984615 
L 174.332115 94.984615 
L 174.247043 94.596923 
L 180.999915 94.596923 
L 180.910751 94.209231 
L 182.168878 94.209231 
L 182.079099 93.821538 
L 183.327942 93.821538 
L 183.237563 93.433846 
L 183.548267 93.433846 
L 183.457855 93.046154 
L 184.694697 93.046154 
L 184.603701 92.658462 
L 186.74699 92.658462 
L 186.654887 92.270769 
L 187.867694 92.270769 
L 187.682544 91.495385 
L 191.564556 91.495385 
L 191.375616 90.72 
L 194.302524 90.72 
L 194.206672 90.332308 
L 195.075 90.332308 
L 194.978832 89.944615 
L 196.9875 89.944615 
L 196.890411 89.556923 
L 198.875481 89.556923 
L 198.777502 89.169231 
L 200.460478 89.169231 
L 200.361783 88.781538 
L 204.224882 88.781538 
L 204.12439 88.393846 
L 204.396934 88.393846 
L 204.296465 88.006154 
L 206.729017 88.006154 
L 206.627514 87.618462 
L 207.697203 87.618462 
L 207.595342 87.230769 
L 211.02475 87.230769 
L 210.921429 86.843077 
L 211.442715 86.843077 
L 211.132976 85.68 
L 211.651948 85.68 
L 211.548779 85.292308 
L 213.863609 85.292308 
L 213.759545 84.904615 
L 234.149893 84.904615 
L 234.037767 84.516923 
L 235.383782 84.516923 
L 235.271338 84.129231 
L 238.366924 84.129231 
L 238.253571 83.741538 
L 239.126606 83.741538 
L 238.899791 82.966154 
L 241.059765 82.966154 
L 240.945882 82.578462 
L 247.453659 82.578462 
L 247.337915 82.190769 
L 254.558427 82.190769 
L 254.440819 81.803077 
L 257.348201 81.803077 
L 257.23 81.415385 
L 270.249032 81.415385 
L 270.12809 81.027692 
L 308.40841 81.027692 
L 308.40841 81.027692 
" style="fill:none;stroke:#d62728;stroke-linecap:square;stroke-width:2;"/>
   </g>
   <g id="line2d_49">
    <path clip-path="url(#pbb5b60b402)" d="M 76.5 448.172308 
L 76.5 354.350769 
L 78.443852 354.350769 
L 78.283083 345.821538 
L 80.052809 345.821538 
L 79.620395 331.476923 
L 81.165246 331.476923 
L 80.49691 311.704615 
L 80.377112 307.44 
L 81.655435 307.44 
L 81.545745 304.338462 
L 82.790451 304.338462 
L 82.00232 283.403077 
L 81.27163 257.815385 
L 81.252505 257.04 
L 82.1916 257.04 
L 81.859322 245.021538 
L 82.740789 245.021538 
L 82.729081 244.633846 
L 83.605618 244.633846 
L 83.251601 233.778462 
L 84.08206 233.778462 
L 83.962762 230.289231 
L 84.777487 230.289231 
L 84.763066 229.901538 
L 85.573565 229.901538 
L 85.224582 220.984615 
L 86.001836 220.984615 
L 85.8 215.944615 
L 86.558564 215.944615 
L 85.986 201.6 
L 86.7 201.6 
L 86.63771 200.049231 
L 87.345274 200.049231 
L 87.198496 196.56 
L 87.894595 196.56 
L 87.860479 195.784615 
L 88.552466 195.784615 
L 88.445333 193.458462 
L 89.12929 193.458462 
L 89.036564 191.52 
L 89.713636 191.52 
L 89.447845 186.092308 
L 90.109756 186.092308 
L 90.032097 184.541538 
L 90.688462 184.541538 
L 90.314563 177.175385 
L 90.952355 177.175385 
L 90.852957 175.236923 
L 91.484753 175.236923 
L 91.342041 172.523077 
L 91.966304 172.523077 
L 91.92439 171.747692 
L 92.545332 171.747692 
L 92.502024 170.972308 
L 93.119677 170.972308 
L 93.075 170.196923 
L 93.689396 170.196923 
L 93.506773 167.095385 
L 94.113263 167.095385 
L 93.951248 164.381538 
L 94.550787 164.381538 
L 94.340078 160.892308 
L 94.931347 160.892308 
L 94.86 159.729231 
L 95.447552 159.729231 
L 95.326248 157.790769 
L 96.489655 157.790769 
L 96.21272 153.526154 
L 96.784528 153.526154 
L 96.632584 151.2 
L 97.198878 151.2 
L 97.096154 149.649231 
L 97.658364 149.649231 
L 97.632178 149.261538 
L 98.192336 149.261538 
L 98.165556 148.873846 
L 99.835793 148.873846 
L 99.664835 146.547692 
L 100.215 146.547692 
L 100.186114 146.16 
L 100.734307 146.16 
L 100.500723 143.058462 
L 101.583173 143.058462 
L 101.22654 138.406154 
L 101.75858 138.406154 
L 101.728723 138.018462 
L 102.258914 138.018462 
L 102.228538 137.630769 
L 102.75689 137.630769 
L 102.664437 136.467692 
L 103.189801 136.467692 
L 103.003376 134.141538 
L 103.52407 134.141538 
L 103.461369 133.366154 
L 103.979722 133.366154 
L 103.884527 132.203077 
L 104.4 132.203077 
L 104.303793 131.04 
L 104.816418 131.04 
L 104.783945 130.652308 
L 105.804577 130.652308 
L 105.637884 128.713846 
L 106.14375 128.713846 
L 106.110102 128.326154 
L 107.117327 128.326154 
L 107.048136 127.550769 
L 107.548984 127.550769 
L 107.305599 124.836923 
L 107.801678 124.836923 
L 107.766704 124.449231 
L 108.261161 124.449231 
L 108.190423 123.673846 
L 108.682759 123.673846 
L 108.469392 121.347692 
L 108.957616 121.347692 
L 108.92183 120.96 
L 109.40848 120.96 
L 108.76879 113.981538 
L 109.245631 113.981538 
L 109.175135 113.206154 
L 109.65 113.206154 
L 109.578863 112.430769 
L 110.994545 112.430769 
L 110.847604 110.88 
L 111.782678 110.88 
L 111.670551 109.716923 
L 112.135238 109.716923 
L 112.059979 108.941538 
L 112.984615 108.941538 
L 112.946211 108.553846 
L 113.406625 108.553846 
L 113.252042 107.003077 
L 113.709728 107.003077 
L 113.516129 105.064615 
L 113.970686 105.064615 
L 113.892946 104.289231 
L 114.797516 104.289231 
L 114.718388 103.513846 
L 116.512963 103.513846 
L 116.47184 103.126154 
L 116.917762 103.126154 
L 116.670306 100.8 
L 117.995219 100.8 
L 117.827052 99.249231 
L 119.574672 99.249231 
L 119.401508 97.698462 
L 119.834639 97.698462 
L 119.791174 97.310769 
L 121.513487 97.310769 
L 121.423729 96.535385 
L 122.278209 96.535385 
L 122.232704 96.147692 
L 122.658292 96.147692 
L 122.475668 94.596923 
L 123.742899 94.596923 
L 123.60354 93.433846 
L 124.023183 93.433846 
L 123.837182 91.883077 
L 125.086829 91.883077 
L 124.99221 91.107692 
L 125.819825 91.107692 
L 125.724151 90.332308 
L 126.136047 90.332308 
L 126.087996 89.944615 
L 126.498743 89.944615 
L 126.40222 89.169231 
L 127.219942 89.169231 
L 127.073775 88.006154 
L 127.88629 88.006154 
L 127.73891 86.843077 
L 129.350571 86.843077 
L 129.300285 86.455385 
L 129.700951 86.455385 
L 129.650427 86.067692 
L 130.448815 86.067692 
L 130.397727 85.68 
L 131.192439 85.68 
L 131.089245 84.904615 
L 133.059718 84.904615 
L 133.00666 84.516923 
L 134.568505 84.516923 
L 134.460168 83.741538 
L 136.393036 83.741538 
L 136.337477 83.353846 
L 136.721594 83.353846 
L 136.610176 82.578462 
L 136.992976 82.578462 
L 136.937119 82.190769 
L 137.318911 82.190769 
L 137.262857 81.803077 
L 138.023735 81.803077 
L 137.967188 81.415385 
L 139.479396 81.415385 
L 139.421775 81.027692 
L 142.039636 81.027692 
L 141.861378 79.864615 
L 144.44027 79.864615 
L 144.379118 79.476923 
L 145.109434 79.476923 
L 144.986368 78.701538 
L 146.436997 78.701538 
L 146.374554 78.313846 
L 148.886513 78.313846 
L 148.758282 77.538462 
L 149.114071 77.538462 
L 149.049867 77.150769 
L 150.112698 77.150769 
L 150.047841 76.763077 
L 150.400616 76.763077 
L 150.33562 76.375385 
L 151.038806 76.375385 
L 150.908151 75.6 
L 155.412998 75.6 
L 155.344675 75.212308 
L 161.080802 75.212308 
L 160.936712 74.436923 
L 162.590076 74.436923 
L 162.517119 74.049231 
L 162.845893 74.049231 
L 162.772843 73.661538 
L 164.407329 73.661538 
L 164.333333 73.273846 
L 165.95306 73.273846 
L 165.878141 72.886154 
L 173.772354 72.886154 
L 173.692623 72.498462 
L 176.758537 72.498462 
L 176.677092 72.110769 
L 184.415513 72.110769 
L 184.32973 71.723077 
L 191.470616 71.723077 
L 191.381075 71.335385 
L 193.329899 71.335385 
L 193.239474 70.947692 
L 194.617887 70.947692 
L 194.526888 70.56 
L 195.348424 70.56 
L 195.257143 70.172308 
L 205.597315 70.172308 
L 205.501118 69.784615 
L 206.527266 69.784615 
L 206.430735 69.396923 
L 210.223348 69.396923 
L 210.125238 69.009231 
L 210.873426 69.009231 
L 210.775128 68.621538 
L 215.436364 68.621538 
L 215.336193 68.233846 
L 233.197065 68.233846 
L 233.090177 67.846154 
L 253.757526 67.846154 
L 253.644551 67.458462 
L 268.915538 67.458462 
L 268.799275 67.070769 
L 299.203666 67.070769 
L 299.203666 67.070769 
" style="fill:none;stroke:#9467bd;stroke-linecap:square;stroke-width:2;"/>
   </g>
   <g id="patch_3">
    <path d="M 76.5 448.56 
L 76.5 60.48 
" style="fill:none;stroke:#000000;stroke-linecap:square;stroke-linejoin:miter;stroke-width:0.8;"/>
   </g>
   <g id="patch_4">
    <path d="M 550.8 448.56 
L 550.8 60.48 
" style="fill:none;stroke:#000000;stroke-linecap:square;stroke-linejoin:miter;stroke-width:0.8;"/>
   </g>
   <g id="patch_5">
    <path d="M 76.5 448.56 
L 550.8 448.56 
" style="fill:none;stroke:#000000;stroke-linecap:square;stroke-linejoin:miter;stroke-width:0.8;"/>
   </g>
   <g id="patch_6">
    <path d="M 76.5 60.48 
L 550.8 60.48 
" style="fill:none;stroke:#000000;stroke-linecap:square;stroke-linejoin:miter;stroke-width:0.8;"/>
   </g>
   <g id="text_25">
    <!-- leuven: img1-img3 -->
    <defs>
     <path d="M 9.421875 75.984375 
L 18.40625 75.984375 
L 18.40625 0 
L 9.421875 0 
z
" id="DejaVuSans-108"/>
     <path d="M 8.5 21.578125 
L 8.5 54.6875 
L 17.484375 54.6875 
L 17.484375 21.921875 
Q 17.484375 14.15625 20.5 10.265625 
Q 23.53125 6.390625 29.59375 6.390625 
Q 36.859375 6.390625 41.078125 11.03125 
Q 45.3125 15.671875 45.3125 23.6875 
L 45.3125 54.6875 
L 54.296875 54.6875 
L 54.296875 0 
L 45.3125 0 
L 45.3125 8.40625 
Q 42.046875 3.421875 37.71875 1 
Q 33.40625 -1.421875 27.6875 -1.421875 
Q 18.265625 -1.421875 13.375 4.4375 
Q 8.5 10.296875 8.5 21.578125 
z
M 31.109375 56 
z
" id="DejaVuSans-117"/>
     <path d="M 2.984375 54.6875 
L 12.5 54.6875 
L 29.59375 8.796875 
L 46.6875 54.6875 
L 56.203125 54.6875 
L 35.6875 0 
L 23.484375 0 
z
" id="DejaVuSans-118"/>
     <path d="M 11.71875 12.40625 
L 22.015625 12.40625 
L 22.015625 0 
L 11.71875 0 
z
M 11.71875 51.703125 
L 22.015625 51.703125 
L 22.015625 39.3125 
L 11.71875 39.3125 
z
" id="DejaVuSans-58"/>
     <path id="DejaVuSans-32"/>
     <path d="M 52 44.1875 
Q 55.375 50.25 60.0625 53.125 
Q 64.75 56 71.09375 56 
Q 79.640625 56 84.28125 50.015625 
Q 88.921875 44.046875 88.921875 33.015625 
L 88.921875 0 
L 79.890625 0 
L 79.890625 32.71875 
Q 79.890625 40.578125 77.09375 44.375 
Q 74.3125 48.1875 68.609375 48.1875 
Q 61.625 48.1875 57.5625 43.546875 
Q 53.515625 38.921875 53.515625 30.90625 
L 53.515625 0 
L 44.484375 0 
L 44.484375 32.71875 
Q 44.484375 40.625 41.703125 44.40625 
Q 38.921875 48.1875 33.109375 48.1875 
Q 26.21875 48.1875 22.15625 43.53125 
Q 18.109375 38.875 18.109375 30.90625 
L 18.109375 0 
L 9.078125 0 
L 9.078125 54.6875 
L 18.109375 54.6875 
L 18.109375 46.1875 
Q 21.1875 51.21875 25.484375 53.609375 
Q 29.78125 56 35.6875 56 
Q 41.65625 56 45.828125 52.96875 
Q 50 49.953125 52 44.1875 
z
" id="DejaVuSans-109"/>
     <path d="M 45.40625 27.984375 
Q 45.40625 37.75 41.375 43.109375 
Q 37.359375 48.484375 30.078125 48.484375 
Q 22.859375 48.484375 18.828125 43.109375 
Q 14.796875 37.75 14.796875 27.984375 
Q 14.796875 18.265625 18.828125 12.890625 
Q 22.859375 7.515625 30.078125 7.515625 
Q 37.359375 7.515625 41.375 12.890625 
Q 45.40625 18.265625 45.40625 27.984375 
z
M 54.390625 6.78125 
Q 54.390625 -7.171875 48.1875 -13.984375 
Q 42 -20.796875 29.203125 -20.796875 
Q 24.46875 -20.796875 20.265625 -20.09375 
Q 16.0625 -19.390625 12.109375 -17.921875 
L 12.109375 -9.1875 
Q 16.0625 -11.328125 19.921875 -12.34375 
Q 23.78125 -13.375 27.78125 -13.375 
Q 36.625 -13.375 41.015625 -8.765625 
Q 45.40625 -4.15625 45.40625 5.171875 
L 45.40625 9.625 
Q 42.625 4.78125 38.28125 2.390625 
Q 33.9375 0 27.875 0 
Q 17.828125 0 11.671875 7.65625 
Q 5.515625 15.328125 5.515625 27.984375 
Q 5.515625 40.671875 11.671875 48.328125 
Q 17.828125 56 27.875 56 
Q 33.9375 56 38.28125 53.609375 
Q 42.625 51.21875 45.40625 46.390625 
L 45.40625 54.6875 
L 54.390625 54.6875 
z
" id="DejaVuSans-103"/>
    </defs>
    <g transform="translate(257.074688 41.042625)scale(0.12 -0.12)">
     <use xlink:href="#DejaVuSans-108"/>
     <use x="27.783203" xlink:href="#DejaVuSans-101"/>
     <use x="89.306641" xlink:href="#DejaVuSans-117"/>
     <use x="152.685547" xlink:href="#DejaVuSans-118"/>
     <use x="211.865234" xlink:href="#DejaVuSans-101"/>
     <use x="273.388672" xlink:href="#DejaVuSans-110"/>
     <use x="336.767578" xlink:href="#DejaVuSans-58"/>
     <use x="370.458984" xlink:href="#DejaVuSans-32"/>
     <use x="402.246094" xlink:href="#DejaVuSans-105"/>
     <use x="430.029297" xlink:href="#DejaVuSans-109"/>
     <use x="527.441406" xlink:href="#DejaVuSans-103"/>
     <use x="590.917969" xlink:href="#DejaVuSans-49"/>
     <use x="654.541016" xlink:href="#DejaVuSans-45"/>
     <use x="690.625" xlink:href="#DejaVuSans-105"/>
     <use x="718.408203" xlink:href="#DejaVuSans-109"/>
     <use x="815.820312" xlink:href="#DejaVuSans-103"/>
     <use x="879.296875" xlink:href="#DejaVuSans-51"/>
    </g>
    <!-- NearestNeighbours -->
    <defs>
     <path d="M 9.8125 72.90625 
L 23.09375 72.90625 
L 55.421875 11.921875 
L 55.421875 72.90625 
L 64.984375 72.90625 
L 64.984375 0 
L 51.703125 0 
L 19.390625 60.984375 
L 19.390625 0 
L 9.8125 0 
z
" id="DejaVuSans-78"/>
     <path d="M 34.28125 27.484375 
Q 23.390625 27.484375 19.1875 25 
Q 14.984375 22.515625 14.984375 16.5 
Q 14.984375 11.71875 18.140625 8.90625 
Q 21.296875 6.109375 26.703125 6.109375 
Q 34.1875 6.109375 38.703125 11.40625 
Q 43.21875 16.703125 43.21875 25.484375 
L 43.21875 27.484375 
z
M 52.203125 31.203125 
L 52.203125 0 
L 43.21875 0 
L 43.21875 8.296875 
Q 40.140625 3.328125 35.546875 0.953125 
Q 30.953125 -1.421875 24.3125 -1.421875 
Q 15.921875 -1.421875 10.953125 3.296875 
Q 6 8.015625 6 15.921875 
Q 6 25.140625 12.171875 29.828125 
Q 18.359375 34.515625 30.609375 34.515625 
L 43.21875 34.515625 
L 43.21875 35.40625 
Q 43.21875 41.609375 39.140625 45 
Q 35.0625 48.390625 27.6875 48.390625 
Q 23 48.390625 18.546875 47.265625 
Q 14.109375 46.140625 10.015625 43.890625 
L 10.015625 52.203125 
Q 14.9375 54.109375 19.578125 55.046875 
Q 24.21875 56 28.609375 56 
Q 40.484375 56 46.34375 49.84375 
Q 52.203125 43.703125 52.203125 31.203125 
z
" id="DejaVuSans-97"/>
     <path d="M 54.890625 33.015625 
L 54.890625 0 
L 45.90625 0 
L 45.90625 32.71875 
Q 45.90625 40.484375 42.875 44.328125 
Q 39.84375 48.1875 33.796875 48.1875 
Q 26.515625 48.1875 22.3125 43.546875 
Q 18.109375 38.921875 18.109375 30.90625 
L 18.109375 0 
L 9.078125 0 
L 9.078125 75.984375 
L 18.109375 75.984375 
L 18.109375 46.1875 
Q 21.34375 51.125 25.703125 53.5625 
Q 30.078125 56 35.796875 56 
Q 45.21875 56 50.046875 50.171875 
Q 54.890625 44.34375 54.890625 33.015625 
z
" id="DejaVuSans-104"/>
     <path d="M 48.6875 27.296875 
Q 48.6875 37.203125 44.609375 42.84375 
Q 40.53125 48.484375 33.40625 48.484375 
Q 26.265625 48.484375 22.1875 42.84375 
Q 18.109375 37.203125 18.109375 27.296875 
Q 18.109375 17.390625 22.1875 11.75 
Q 26.265625 6.109375 33.40625 6.109375 
Q 40.53125 6.109375 44.609375 11.75 
Q 48.6875 17.390625 48.6875 27.296875 
z
M 18.109375 46.390625 
Q 20.953125 51.265625 25.265625 53.625 
Q 29.59375 56 35.59375 56 
Q 45.5625 56 51.78125 48.09375 
Q 58.015625 40.1875 58.015625 27.296875 
Q 58.015625 14.40625 51.78125 6.484375 
Q 45.5625 -1.421875 35.59375 -1.421875 
Q 29.59375 -1.421875 25.265625 0.953125 
Q 20.953125 3.328125 18.109375 8.203125 
L 18.109375 0 
L 9.078125 0 
L 9.078125 75.984375 
L 18.109375 75.984375 
z
" id="DejaVuSans-98"/>
    </defs>
    <g transform="translate(255.957188 54.48)scale(0.12 -0.12)">
     <use xlink:href="#DejaVuSans-78"/>
     <use x="74.804688" xlink:href="#DejaVuSans-101"/>
     <use x="136.328125" xlink:href="#DejaVuSans-97"/>
     <use x="197.607422" xlink:href="#DejaVuSans-114"/>
     <use x="236.470703" xlink:href="#DejaVuSans-101"/>
     <use x="297.994141" xlink:href="#DejaVuSans-115"/>
     <use x="350.09375" xlink:href="#DejaVuSans-116"/>
     <use x="389.302734" xlink:href="#DejaVuSans-78"/>
     <use x="464.107422" xlink:href="#DejaVuSans-101"/>
     <use x="525.630859" xlink:href="#DejaVuSans-105"/>
     <use x="553.414062" xlink:href="#DejaVuSans-103"/>
     <use x="616.890625" xlink:href="#DejaVuSans-104"/>
     <use x="680.269531" xlink:href="#DejaVuSans-98"/>
     <use x="743.746094" xlink:href="#DejaVuSans-111"/>
     <use x="804.927734" xlink:href="#DejaVuSans-117"/>
     <use x="868.306641" xlink:href="#DejaVuSans-114"/>
     <use x="909.419922" xlink:href="#DejaVuSans-115"/>
    </g>
   </g>
   <g id="legend_1">
    <g id="patch_7">
     <path d="M 362.659375 141.870625 
L 543.8 141.870625 
Q 545.8 141.870625 545.8 139.870625 
L 545.8 67.48 
Q 545.8 65.48 543.8 65.48 
L 362.659375 65.48 
Q 360.659375 65.48 360.659375 67.48 
L 360.659375 139.870625 
Q 360.659375 141.870625 362.659375 141.870625 
z
" style="fill:#ffffff;opacity:0.8;stroke:#cccccc;stroke-linejoin:miter;"/>
    </g>
    <g id="line2d_50">
     <path d="M 364.659375 73.578438 
L 384.659375 73.578438 
" style="fill:none;stroke:#1f77b4;stroke-linecap:square;stroke-width:2;"/>
    </g>
    <g id="line2d_51"/>
    <g id="text_26">
     <!-- root-cvsift AP: 92.9, %In: 51.7 -->
     <defs>
      <path d="M 37.109375 75.984375 
L 37.109375 68.5 
L 28.515625 68.5 
Q 23.6875 68.5 21.796875 66.546875 
Q 19.921875 64.59375 19.921875 59.515625 
L 19.921875 54.6875 
L 34.71875 54.6875 
L 34.71875 47.703125 
L 19.921875 47.703125 
L 19.921875 0 
L 10.890625 0 
L 10.890625 47.703125 
L 2.296875 47.703125 
L 2.296875 54.6875 
L 10.890625 54.6875 
L 10.890625 58.5 
Q 10.890625 67.625 15.140625 71.796875 
Q 19.390625 75.984375 28.609375 75.984375 
z
" id="DejaVuSans-102"/>
      <path d="M 34.1875 63.1875 
L 20.796875 26.90625 
L 47.609375 26.90625 
z
M 28.609375 72.90625 
L 39.796875 72.90625 
L 67.578125 0 
L 57.328125 0 
L 50.6875 18.703125 
L 17.828125 18.703125 
L 11.1875 0 
L 0.78125 0 
z
" id="DejaVuSans-65"/>
      <path d="M 19.671875 64.796875 
L 19.671875 37.40625 
L 32.078125 37.40625 
Q 38.96875 37.40625 42.71875 40.96875 
Q 46.484375 44.53125 46.484375 51.125 
Q 46.484375 57.671875 42.71875 61.234375 
Q 38.96875 64.796875 32.078125 64.796875 
z
M 9.8125 72.90625 
L 32.078125 72.90625 
Q 44.34375 72.90625 50.609375 67.359375 
Q 56.890625 61.8125 56.890625 51.125 
Q 56.890625 40.328125 50.609375 34.8125 
Q 44.34375 29.296875 32.078125 29.296875 
L 19.671875 29.296875 
L 19.671875 0 
L 9.8125 0 
z
" id="DejaVuSans-80"/>
      <path d="M 11.71875 12.40625 
L 22.015625 12.40625 
L 22.015625 4 
L 14.015625 -11.625 
L 7.71875 -11.625 
L 11.71875 4 
z
" id="DejaVuSans-44"/>
      <path d="M 72.703125 32.078125 
Q 68.453125 32.078125 66.03125 28.46875 
Q 63.625 24.859375 63.625 18.40625 
Q 63.625 12.0625 66.03125 8.421875 
Q 68.453125 4.78125 72.703125 4.78125 
Q 76.859375 4.78125 79.265625 8.421875 
Q 81.6875 12.0625 81.6875 18.40625 
Q 81.6875 24.8125 79.265625 28.4375 
Q 76.859375 32.078125 72.703125 32.078125 
z
M 72.703125 38.28125 
Q 80.421875 38.28125 84.953125 32.90625 
Q 89.5 27.546875 89.5 18.40625 
Q 89.5 9.28125 84.9375 3.921875 
Q 80.375 -1.421875 72.703125 -1.421875 
Q 64.890625 -1.421875 60.34375 3.921875 
Q 55.8125 9.28125 55.8125 18.40625 
Q 55.8125 27.59375 60.375 32.9375 
Q 64.9375 38.28125 72.703125 38.28125 
z
M 22.3125 68.015625 
Q 18.109375 68.015625 15.6875 64.375 
Q 13.28125 60.75 13.28125 54.390625 
Q 13.28125 47.953125 15.671875 44.328125 
Q 18.0625 40.71875 22.3125 40.71875 
Q 26.5625 40.71875 28.96875 44.328125 
Q 31.390625 47.953125 31.390625 54.390625 
Q 31.390625 60.6875 28.953125 64.34375 
Q 26.515625 68.015625 22.3125 68.015625 
z
M 66.40625 74.21875 
L 74.21875 74.21875 
L 28.609375 -1.421875 
L 20.796875 -1.421875 
z
M 22.3125 74.21875 
Q 30.03125 74.21875 34.609375 68.875 
Q 39.203125 63.53125 39.203125 54.390625 
Q 39.203125 45.171875 34.640625 39.84375 
Q 30.078125 34.515625 22.3125 34.515625 
Q 14.546875 34.515625 10.03125 39.859375 
Q 5.515625 45.21875 5.515625 54.390625 
Q 5.515625 63.484375 10.046875 68.84375 
Q 14.59375 74.21875 22.3125 74.21875 
z
" id="DejaVuSans-37"/>
      <path d="M 9.8125 72.90625 
L 19.671875 72.90625 
L 19.671875 0 
L 9.8125 0 
z
" id="DejaVuSans-73"/>
     </defs>
     <g transform="translate(392.659375 77.078438)scale(0.1 -0.1)">
      <use xlink:href="#DejaVuSans-114"/>
      <use x="38.863281" xlink:href="#DejaVuSans-111"/>
      <use x="100.044922" xlink:href="#DejaVuSans-111"/>
      <use x="161.226562" xlink:href="#DejaVuSans-116"/>
      <use x="200.435547" xlink:href="#DejaVuSans-45"/>
      <use x="236.519531" xlink:href="#DejaVuSans-99"/>
      <use x="291.5" xlink:href="#DejaVuSans-118"/>
      <use x="350.679688" xlink:href="#DejaVuSans-115"/>
      <use x="402.779297" xlink:href="#DejaVuSans-105"/>
      <use x="430.5625" xlink:href="#DejaVuSans-102"/>
      <use x="464.017578" xlink:href="#DejaVuSans-116"/>
      <use x="503.226562" xlink:href="#DejaVuSans-32"/>
      <use x="535.013672" xlink:href="#DejaVuSans-65"/>
      <use x="603.421875" xlink:href="#DejaVuSans-80"/>
      <use x="663.724609" xlink:href="#DejaVuSans-58"/>
      <use x="697.416016" xlink:href="#DejaVuSans-32"/>
      <use x="729.203125" xlink:href="#DejaVuSans-57"/>
      <use x="792.826172" xlink:href="#DejaVuSans-50"/>
      <use x="856.449219" xlink:href="#DejaVuSans-46"/>
      <use x="888.236328" xlink:href="#DejaVuSans-57"/>
      <use x="951.859375" xlink:href="#DejaVuSans-44"/>
      <use x="983.646484" xlink:href="#DejaVuSans-32"/>
      <use x="1015.433594" xlink:href="#DejaVuSans-37"/>
      <use x="1110.453125" xlink:href="#DejaVuSans-73"/>
      <use x="1139.945312" xlink:href="#DejaVuSans-110"/>
      <use x="1203.324219" xlink:href="#DejaVuSans-58"/>
      <use x="1237.015625" xlink:href="#DejaVuSans-32"/>
      <use x="1268.802734" xlink:href="#DejaVuSans-53"/>
      <use x="1332.425781" xlink:href="#DejaVuSans-49"/>
      <use x="1396.048828" xlink:href="#DejaVuSans-46"/>
      <use x="1427.835938" xlink:href="#DejaVuSans-55"/>
     </g>
    </g>
    <g id="line2d_52">
     <path d="M 364.659375 88.256563 
L 384.659375 88.256563 
" style="fill:none;stroke:#ff7f0e;stroke-linecap:square;stroke-width:2;"/>
    </g>
    <g id="line2d_53"/>
    <g id="text_27">
     <!-- orb AP: 89.3, %In: 49.9 -->
     <g transform="translate(392.659375 91.756563)scale(0.1 -0.1)">
      <use xlink:href="#DejaVuSans-111"/>
      <use x="61.181641" xlink:href="#DejaVuSans-114"/>
      <use x="102.294922" xlink:href="#DejaVuSans-98"/>
      <use x="165.771484" xlink:href="#DejaVuSans-32"/>
      <use x="197.558594" xlink:href="#DejaVuSans-65"/>
      <use x="265.966797" xlink:href="#DejaVuSans-80"/>
      <use x="326.269531" xlink:href="#DejaVuSans-58"/>
      <use x="359.960938" xlink:href="#DejaVuSans-32"/>
      <use x="391.748047" xlink:href="#DejaVuSans-56"/>
      <use x="455.371094" xlink:href="#DejaVuSans-57"/>
      <use x="518.994141" xlink:href="#DejaVuSans-46"/>
      <use x="550.78125" xlink:href="#DejaVuSans-51"/>
      <use x="614.404297" xlink:href="#DejaVuSans-44"/>
      <use x="646.191406" xlink:href="#DejaVuSans-32"/>
      <use x="677.978516" xlink:href="#DejaVuSans-37"/>
      <use x="772.998047" xlink:href="#DejaVuSans-73"/>
      <use x="802.490234" xlink:href="#DejaVuSans-110"/>
      <use x="865.869141" xlink:href="#DejaVuSans-58"/>
      <use x="899.560547" xlink:href="#DejaVuSans-32"/>
      <use x="931.347656" xlink:href="#DejaVuSans-52"/>
      <use x="994.970703" xlink:href="#DejaVuSans-57"/>
      <use x="1058.59375" xlink:href="#DejaVuSans-46"/>
      <use x="1090.380859" xlink:href="#DejaVuSans-57"/>
     </g>
    </g>
    <g id="line2d_54">
     <path d="M 364.659375 102.934687 
L 384.659375 102.934687 
" style="fill:none;stroke:#2ca02c;stroke-linecap:square;stroke-width:2;"/>
    </g>
    <g id="line2d_55"/>
    <g id="text_28">
     <!-- binboost AP: 84.2, %In: 50.4 -->
     <g transform="translate(392.659375 106.434687)scale(0.1 -0.1)">
      <use xlink:href="#DejaVuSans-98"/>
      <use x="63.476562" xlink:href="#DejaVuSans-105"/>
      <use x="91.259766" xlink:href="#DejaVuSans-110"/>
      <use x="154.638672" xlink:href="#DejaVuSans-98"/>
      <use x="218.115234" xlink:href="#DejaVuSans-111"/>
      <use x="279.296875" xlink:href="#DejaVuSans-111"/>
      <use x="340.478516" xlink:href="#DejaVuSans-115"/>
      <use x="392.578125" xlink:href="#DejaVuSans-116"/>
      <use x="431.787109" xlink:href="#DejaVuSans-32"/>
      <use x="463.574219" xlink:href="#DejaVuSans-65"/>
      <use x="531.982422" xlink:href="#DejaVuSans-80"/>
      <use x="592.285156" xlink:href="#DejaVuSans-58"/>
      <use x="625.976562" xlink:href="#DejaVuSans-32"/>
      <use x="657.763672" xlink:href="#DejaVuSans-56"/>
      <use x="721.386719" xlink:href="#DejaVuSans-52"/>
      <use x="785.009766" xlink:href="#DejaVuSans-46"/>
      <use x="816.796875" xlink:href="#DejaVuSans-50"/>
      <use x="880.419922" xlink:href="#DejaVuSans-44"/>
      <use x="912.207031" xlink:href="#DejaVuSans-32"/>
      <use x="943.994141" xlink:href="#DejaVuSans-37"/>
      <use x="1039.013672" xlink:href="#DejaVuSans-73"/>
      <use x="1068.505859" xlink:href="#DejaVuSans-110"/>
      <use x="1131.884766" xlink:href="#DejaVuSans-58"/>
      <use x="1165.576172" xlink:href="#DejaVuSans-32"/>
      <use x="1197.363281" xlink:href="#DejaVuSans-53"/>
      <use x="1260.986328" xlink:href="#DejaVuSans-48"/>
      <use x="1324.609375" xlink:href="#DejaVuSans-46"/>
      <use x="1356.396484" xlink:href="#DejaVuSans-52"/>
     </g>
    </g>
    <g id="line2d_56">
     <path d="M 364.659375 117.612813 
L 384.659375 117.612813 
" style="fill:none;stroke:#d62728;stroke-linecap:square;stroke-width:2;"/>
    </g>
    <g id="line2d_57"/>
    <g id="text_29">
     <!-- tfeat AP: 88.1, %In: 51.1 -->
     <g transform="translate(392.659375 121.112813)scale(0.1 -0.1)">
      <use xlink:href="#DejaVuSans-116"/>
      <use x="39.208984" xlink:href="#DejaVuSans-102"/>
      <use x="74.414062" xlink:href="#DejaVuSans-101"/>
      <use x="135.9375" xlink:href="#DejaVuSans-97"/>
      <use x="197.216797" xlink:href="#DejaVuSans-116"/>
      <use x="236.425781" xlink:href="#DejaVuSans-32"/>
      <use x="268.212891" xlink:href="#DejaVuSans-65"/>
      <use x="336.621094" xlink:href="#DejaVuSans-80"/>
      <use x="396.923828" xlink:href="#DejaVuSans-58"/>
      <use x="430.615234" xlink:href="#DejaVuSans-32"/>
      <use x="462.402344" xlink:href="#DejaVuSans-56"/>
      <use x="526.025391" xlink:href="#DejaVuSans-56"/>
      <use x="589.648438" xlink:href="#DejaVuSans-46"/>
      <use x="621.435547" xlink:href="#DejaVuSans-49"/>
      <use x="685.058594" xlink:href="#DejaVuSans-44"/>
      <use x="716.845703" xlink:href="#DejaVuSans-32"/>
      <use x="748.632812" xlink:href="#DejaVuSans-37"/>
      <use x="843.652344" xlink:href="#DejaVuSans-73"/>
      <use x="873.144531" xlink:href="#DejaVuSans-110"/>
      <use x="936.523438" xlink:href="#DejaVuSans-58"/>
      <use x="970.214844" xlink:href="#DejaVuSans-32"/>
      <use x="1002.001953" xlink:href="#DejaVuSans-53"/>
      <use x="1065.625" xlink:href="#DejaVuSans-49"/>
      <use x="1129.248047" xlink:href="#DejaVuSans-46"/>
      <use x="1161.035156" xlink:href="#DejaVuSans-49"/>
     </g>
    </g>
    <g id="line2d_58">
     <path d="M 364.659375 132.290938 
L 384.659375 132.290938 
" style="fill:none;stroke:#9467bd;stroke-linecap:square;stroke-width:2;"/>
    </g>
    <g id="line2d_59"/>
    <g id="text_30">
     <!-- hardnet AP: 95.2, %In: 53.0 -->
     <defs>
      <path d="M 45.40625 46.390625 
L 45.40625 75.984375 
L 54.390625 75.984375 
L 54.390625 0 
L 45.40625 0 
L 45.40625 8.203125 
Q 42.578125 3.328125 38.25 0.953125 
Q 33.9375 -1.421875 27.875 -1.421875 
Q 17.96875 -1.421875 11.734375 6.484375 
Q 5.515625 14.40625 5.515625 27.296875 
Q 5.515625 40.1875 11.734375 48.09375 
Q 17.96875 56 27.875 56 
Q 33.9375 56 38.25 53.625 
Q 42.578125 51.265625 45.40625 46.390625 
z
M 14.796875 27.296875 
Q 14.796875 17.390625 18.875 11.75 
Q 22.953125 6.109375 30.078125 6.109375 
Q 37.203125 6.109375 41.296875 11.75 
Q 45.40625 17.390625 45.40625 27.296875 
Q 45.40625 37.203125 41.296875 42.84375 
Q 37.203125 48.484375 30.078125 48.484375 
Q 22.953125 48.484375 18.875 42.84375 
Q 14.796875 37.203125 14.796875 27.296875 
z
" id="DejaVuSans-100"/>
     </defs>
     <g transform="translate(392.659375 135.790938)scale(0.1 -0.1)">
      <use xlink:href="#DejaVuSans-104"/>
      <use x="63.378906" xlink:href="#DejaVuSans-97"/>
      <use x="124.658203" xlink:href="#DejaVuSans-114"/>
      <use x="164.021484" xlink:href="#DejaVuSans-100"/>
      <use x="227.498047" xlink:href="#DejaVuSans-110"/>
      <use x="290.876953" xlink:href="#DejaVuSans-101"/>
      <use x="352.400391" xlink:href="#DejaVuSans-116"/>
      <use x="391.609375" xlink:href="#DejaVuSans-32"/>
      <use x="423.396484" xlink:href="#DejaVuSans-65"/>
      <use x="491.804688" xlink:href="#DejaVuSans-80"/>
      <use x="552.107422" xlink:href="#DejaVuSans-58"/>
      <use x="585.798828" xlink:href="#DejaVuSans-32"/>
      <use x="617.585938" xlink:href="#DejaVuSans-57"/>
      <use x="681.208984" xlink:href="#DejaVuSans-53"/>
      <use x="744.832031" xlink:href="#DejaVuSans-46"/>
      <use x="776.619141" xlink:href="#DejaVuSans-50"/>
      <use x="840.242188" xlink:href="#DejaVuSans-44"/>
      <use x="872.029297" xlink:href="#DejaVuSans-32"/>
      <use x="903.816406" xlink:href="#DejaVuSans-37"/>
      <use x="998.835938" xlink:href="#DejaVuSans-73"/>
      <use x="1028.328125" xlink:href="#DejaVuSans-110"/>
      <use x="1091.707031" xlink:href="#DejaVuSans-58"/>
      <use x="1125.398438" xlink:href="#DejaVuSans-32"/>
      <use x="1157.185547" xlink:href="#DejaVuSans-53"/>
      <use x="1220.808594" xlink:href="#DejaVuSans-51"/>
      <use x="1284.431641" xlink:href="#DejaVuSans-46"/>
      <use x="1316.21875" xlink:href="#DejaVuSans-48"/>
     </g>
    </g>
   </g>
  </g>
 </g>
 <defs>
  <clipPath id="pbb5b60b402">
   <rect height="388.08" width="474.3" x="76.5" y="60.48"/>
  </clipPath>
 </defs>
</svg>
