<?xml version="1.0" encoding="utf-8" standalone="no"?>
<!DOCTYPE svg PUBLIC "-//W3C//DTD SVG 1.1//EN"
  "http://www.w3.org/Graphics/SVG/1.1/DTD/svg11.dtd">
<!-- Created with matplotlib (https://matplotlib.org/) -->
<svg height="504pt" version="1.1" viewBox="0 0 612 504" width="612pt" xmlns="http://www.w3.org/2000/svg" xmlns:xlink="http://www.w3.org/1999/xlink">
 <defs>
  <style type="text/css">
*{stroke-linecap:butt;stroke-linejoin:round;}
  </style>
 </defs>
 <g id="figure_1">
  <g id="patch_1">
   <path d="M 0 504 
L 612 504 
L 612 0 
L 0 0 
z
" style="fill:#ffffff;"/>
  </g>
  <g id="axes_1">
   <g id="patch_2">
    <path d="M 76.5 448.56 
L 550.8 448.56 
L 550.8 60.48 
L 76.5 60.48 
z
" style="fill:#ffffff;"/>
   </g>
   <g id="matplotlib.axis_1">
    <g id="xtick_1">
     <g id="line2d_1">
      <path clip-path="url(#pbb17e8fe93)" d="M 76.5 448.56 
L 76.5 60.48 
" style="fill:none;stroke:#b0b0b0;stroke-linecap:square;stroke-width:0.8;"/>
     </g>
     <g id="line2d_2">
      <defs>
       <path d="M 0 0 
L 0 3.5 
" id="m538c89a0b7" style="stroke:#000000;stroke-width:0.8;"/>
      </defs>
      <g>
       <use style="stroke:#000000;stroke-width:0.8;" x="76.5" xlink:href="#m538c89a0b7" y="448.56"/>
      </g>
     </g>
     <g id="text_1">
      <!-- 0.0 -->
      <defs>
       <path d="M 31.78125 66.40625 
Q 24.171875 66.40625 20.328125 58.90625 
Q 16.5 51.421875 16.5 36.375 
Q 16.5 21.390625 20.328125 13.890625 
Q 24.171875 6.390625 31.78125 6.390625 
Q 39.453125 6.390625 43.28125 13.890625 
Q 47.125 21.390625 47.125 36.375 
Q 47.125 51.421875 43.28125 58.90625 
Q 39.453125 66.40625 31.78125 66.40625 
z
M 31.78125 74.21875 
Q 44.046875 74.21875 50.515625 64.515625 
Q 56.984375 54.828125 56.984375 36.375 
Q 56.984375 17.96875 50.515625 8.265625 
Q 44.046875 -1.421875 31.78125 -1.421875 
Q 19.53125 -1.421875 13.0625 8.265625 
Q 6.59375 17.96875 6.59375 36.375 
Q 6.59375 54.828125 13.0625 64.515625 
Q 19.53125 74.21875 31.78125 74.21875 
z
" id="DejaVuSans-48"/>
       <path d="M 10.6875 12.40625 
L 21 12.40625 
L 21 0 
L 10.6875 0 
z
" id="DejaVuSans-46"/>
      </defs>
      <g transform="translate(68.548438 463.158437)scale(0.1 -0.1)">
       <use xlink:href="#DejaVuSans-48"/>
       <use x="63.623047" xlink:href="#DejaVuSans-46"/>
       <use x="95.410156" xlink:href="#DejaVuSans-48"/>
      </g>
     </g>
    </g>
    <g id="xtick_2">
     <g id="line2d_3">
      <path clip-path="url(#pbb17e8fe93)" d="M 123.93 448.56 
L 123.93 60.48 
" style="fill:none;stroke:#b0b0b0;stroke-linecap:square;stroke-width:0.8;"/>
     </g>
     <g id="line2d_4">
      <g>
       <use style="stroke:#000000;stroke-width:0.8;" x="123.93" xlink:href="#m538c89a0b7" y="448.56"/>
      </g>
     </g>
     <g id="text_2">
      <!-- 0.1 -->
      <defs>
       <path d="M 12.40625 8.296875 
L 28.515625 8.296875 
L 28.515625 63.921875 
L 10.984375 60.40625 
L 10.984375 69.390625 
L 28.421875 72.90625 
L 38.28125 72.90625 
L 38.28125 8.296875 
L 54.390625 8.296875 
L 54.390625 0 
L 12.40625 0 
z
" id="DejaVuSans-49"/>
      </defs>
      <g transform="translate(115.978438 463.158437)scale(0.1 -0.1)">
       <use xlink:href="#DejaVuSans-48"/>
       <use x="63.623047" xlink:href="#DejaVuSans-46"/>
       <use x="95.410156" xlink:href="#DejaVuSans-49"/>
      </g>
     </g>
    </g>
    <g id="xtick_3">
     <g id="line2d_5">
      <path clip-path="url(#pbb17e8fe93)" d="M 171.36 448.56 
L 171.36 60.48 
" style="fill:none;stroke:#b0b0b0;stroke-linecap:square;stroke-width:0.8;"/>
     </g>
     <g id="line2d_6">
      <g>
       <use style="stroke:#000000;stroke-width:0.8;" x="171.36" xlink:href="#m538c89a0b7" y="448.56"/>
      </g>
     </g>
     <g id="text_3">
      <!-- 0.2 -->
      <defs>
       <path d="M 19.1875 8.296875 
L 53.609375 8.296875 
L 53.609375 0 
L 7.328125 0 
L 7.328125 8.296875 
Q 12.9375 14.109375 22.625 23.890625 
Q 32.328125 33.6875 34.8125 36.53125 
Q 39.546875 41.84375 41.421875 45.53125 
Q 43.3125 49.21875 43.3125 52.78125 
Q 43.3125 58.59375 39.234375 62.25 
Q 35.15625 65.921875 28.609375 65.921875 
Q 23.96875 65.921875 18.8125 64.3125 
Q 13.671875 62.703125 7.8125 59.421875 
L 7.8125 69.390625 
Q 13.765625 71.78125 18.9375 73 
Q 24.125 74.21875 28.421875 74.21875 
Q 39.75 74.21875 46.484375 68.546875 
Q 53.21875 62.890625 53.21875 53.421875 
Q 53.21875 48.921875 51.53125 44.890625 
Q 49.859375 40.875 45.40625 35.40625 
Q 44.1875 33.984375 37.640625 27.21875 
Q 31.109375 20.453125 19.1875 8.296875 
z
" id="DejaVuSans-50"/>
      </defs>
      <g transform="translate(163.408438 463.158437)scale(0.1 -0.1)">
       <use xlink:href="#DejaVuSans-48"/>
       <use x="63.623047" xlink:href="#DejaVuSans-46"/>
       <use x="95.410156" xlink:href="#DejaVuSans-50"/>
      </g>
     </g>
    </g>
    <g id="xtick_4">
     <g id="line2d_7">
      <path clip-path="url(#pbb17e8fe93)" d="M 218.79 448.56 
L 218.79 60.48 
" style="fill:none;stroke:#b0b0b0;stroke-linecap:square;stroke-width:0.8;"/>
     </g>
     <g id="line2d_8">
      <g>
       <use style="stroke:#000000;stroke-width:0.8;" x="218.79" xlink:href="#m538c89a0b7" y="448.56"/>
      </g>
     </g>
     <g id="text_4">
      <!-- 0.3 -->
      <defs>
       <path d="M 40.578125 39.3125 
Q 47.65625 37.796875 51.625 33 
Q 55.609375 28.21875 55.609375 21.1875 
Q 55.609375 10.40625 48.1875 4.484375 
Q 40.765625 -1.421875 27.09375 -1.421875 
Q 22.515625 -1.421875 17.65625 -0.515625 
Q 12.796875 0.390625 7.625 2.203125 
L 7.625 11.71875 
Q 11.71875 9.328125 16.59375 8.109375 
Q 21.484375 6.890625 26.8125 6.890625 
Q 36.078125 6.890625 40.9375 10.546875 
Q 45.796875 14.203125 45.796875 21.1875 
Q 45.796875 27.640625 41.28125 31.265625 
Q 36.765625 34.90625 28.71875 34.90625 
L 20.21875 34.90625 
L 20.21875 43.015625 
L 29.109375 43.015625 
Q 36.375 43.015625 40.234375 45.921875 
Q 44.09375 48.828125 44.09375 54.296875 
Q 44.09375 59.90625 40.109375 62.90625 
Q 36.140625 65.921875 28.71875 65.921875 
Q 24.65625 65.921875 20.015625 65.03125 
Q 15.375 64.15625 9.8125 62.3125 
L 9.8125 71.09375 
Q 15.4375 72.65625 20.34375 73.4375 
Q 25.25 74.21875 29.59375 74.21875 
Q 40.828125 74.21875 47.359375 69.109375 
Q 53.90625 64.015625 53.90625 55.328125 
Q 53.90625 49.265625 50.4375 45.09375 
Q 46.96875 40.921875 40.578125 39.3125 
z
" id="DejaVuSans-51"/>
      </defs>
      <g transform="translate(210.838438 463.158437)scale(0.1 -0.1)">
       <use xlink:href="#DejaVuSans-48"/>
       <use x="63.623047" xlink:href="#DejaVuSans-46"/>
       <use x="95.410156" xlink:href="#DejaVuSans-51"/>
      </g>
     </g>
    </g>
    <g id="xtick_5">
     <g id="line2d_9">
      <path clip-path="url(#pbb17e8fe93)" d="M 266.22 448.56 
L 266.22 60.48 
" style="fill:none;stroke:#b0b0b0;stroke-linecap:square;stroke-width:0.8;"/>
     </g>
     <g id="line2d_10">
      <g>
       <use style="stroke:#000000;stroke-width:0.8;" x="266.22" xlink:href="#m538c89a0b7" y="448.56"/>
      </g>
     </g>
     <g id="text_5">
      <!-- 0.4 -->
      <defs>
       <path d="M 37.796875 64.3125 
L 12.890625 25.390625 
L 37.796875 25.390625 
z
M 35.203125 72.90625 
L 47.609375 72.90625 
L 47.609375 25.390625 
L 58.015625 25.390625 
L 58.015625 17.1875 
L 47.609375 17.1875 
L 47.609375 0 
L 37.796875 0 
L 37.796875 17.1875 
L 4.890625 17.1875 
L 4.890625 26.703125 
z
" id="DejaVuSans-52"/>
      </defs>
      <g transform="translate(258.268438 463.158437)scale(0.1 -0.1)">
       <use xlink:href="#DejaVuSans-48"/>
       <use x="63.623047" xlink:href="#DejaVuSans-46"/>
       <use x="95.410156" xlink:href="#DejaVuSans-52"/>
      </g>
     </g>
    </g>
    <g id="xtick_6">
     <g id="line2d_11">
      <path clip-path="url(#pbb17e8fe93)" d="M 313.65 448.56 
L 313.65 60.48 
" style="fill:none;stroke:#b0b0b0;stroke-linecap:square;stroke-width:0.8;"/>
     </g>
     <g id="line2d_12">
      <g>
       <use style="stroke:#000000;stroke-width:0.8;" x="313.65" xlink:href="#m538c89a0b7" y="448.56"/>
      </g>
     </g>
     <g id="text_6">
      <!-- 0.5 -->
      <defs>
       <path d="M 10.796875 72.90625 
L 49.515625 72.90625 
L 49.515625 64.59375 
L 19.828125 64.59375 
L 19.828125 46.734375 
Q 21.96875 47.46875 24.109375 47.828125 
Q 26.265625 48.1875 28.421875 48.1875 
Q 40.625 48.1875 47.75 41.5 
Q 54.890625 34.8125 54.890625 23.390625 
Q 54.890625 11.625 47.5625 5.09375 
Q 40.234375 -1.421875 26.90625 -1.421875 
Q 22.3125 -1.421875 17.546875 -0.640625 
Q 12.796875 0.140625 7.71875 1.703125 
L 7.71875 11.625 
Q 12.109375 9.234375 16.796875 8.0625 
Q 21.484375 6.890625 26.703125 6.890625 
Q 35.15625 6.890625 40.078125 11.328125 
Q 45.015625 15.765625 45.015625 23.390625 
Q 45.015625 31 40.078125 35.4375 
Q 35.15625 39.890625 26.703125 39.890625 
Q 22.75 39.890625 18.8125 39.015625 
Q 14.890625 38.140625 10.796875 36.28125 
z
" id="DejaVuSans-53"/>
      </defs>
      <g transform="translate(305.698438 463.158437)scale(0.1 -0.1)">
       <use xlink:href="#DejaVuSans-48"/>
       <use x="63.623047" xlink:href="#DejaVuSans-46"/>
       <use x="95.410156" xlink:href="#DejaVuSans-53"/>
      </g>
     </g>
    </g>
    <g id="xtick_7">
     <g id="line2d_13">
      <path clip-path="url(#pbb17e8fe93)" d="M 361.08 448.56 
L 361.08 60.48 
" style="fill:none;stroke:#b0b0b0;stroke-linecap:square;stroke-width:0.8;"/>
     </g>
     <g id="line2d_14">
      <g>
       <use style="stroke:#000000;stroke-width:0.8;" x="361.08" xlink:href="#m538c89a0b7" y="448.56"/>
      </g>
     </g>
     <g id="text_7">
      <!-- 0.6 -->
      <defs>
       <path d="M 33.015625 40.375 
Q 26.375 40.375 22.484375 35.828125 
Q 18.609375 31.296875 18.609375 23.390625 
Q 18.609375 15.53125 22.484375 10.953125 
Q 26.375 6.390625 33.015625 6.390625 
Q 39.65625 6.390625 43.53125 10.953125 
Q 47.40625 15.53125 47.40625 23.390625 
Q 47.40625 31.296875 43.53125 35.828125 
Q 39.65625 40.375 33.015625 40.375 
z
M 52.59375 71.296875 
L 52.59375 62.3125 
Q 48.875 64.0625 45.09375 64.984375 
Q 41.3125 65.921875 37.59375 65.921875 
Q 27.828125 65.921875 22.671875 59.328125 
Q 17.53125 52.734375 16.796875 39.40625 
Q 19.671875 43.65625 24.015625 45.921875 
Q 28.375 48.1875 33.59375 48.1875 
Q 44.578125 48.1875 50.953125 41.515625 
Q 57.328125 34.859375 57.328125 23.390625 
Q 57.328125 12.15625 50.6875 5.359375 
Q 44.046875 -1.421875 33.015625 -1.421875 
Q 20.359375 -1.421875 13.671875 8.265625 
Q 6.984375 17.96875 6.984375 36.375 
Q 6.984375 53.65625 15.1875 63.9375 
Q 23.390625 74.21875 37.203125 74.21875 
Q 40.921875 74.21875 44.703125 73.484375 
Q 48.484375 72.75 52.59375 71.296875 
z
" id="DejaVuSans-54"/>
      </defs>
      <g transform="translate(353.128438 463.158437)scale(0.1 -0.1)">
       <use xlink:href="#DejaVuSans-48"/>
       <use x="63.623047" xlink:href="#DejaVuSans-46"/>
       <use x="95.410156" xlink:href="#DejaVuSans-54"/>
      </g>
     </g>
    </g>
    <g id="xtick_8">
     <g id="line2d_15">
      <path clip-path="url(#pbb17e8fe93)" d="M 408.51 448.56 
L 408.51 60.48 
" style="fill:none;stroke:#b0b0b0;stroke-linecap:square;stroke-width:0.8;"/>
     </g>
     <g id="line2d_16">
      <g>
       <use style="stroke:#000000;stroke-width:0.8;" x="408.51" xlink:href="#m538c89a0b7" y="448.56"/>
      </g>
     </g>
     <g id="text_8">
      <!-- 0.7 -->
      <defs>
       <path d="M 8.203125 72.90625 
L 55.078125 72.90625 
L 55.078125 68.703125 
L 28.609375 0 
L 18.3125 0 
L 43.21875 64.59375 
L 8.203125 64.59375 
z
" id="DejaVuSans-55"/>
      </defs>
      <g transform="translate(400.558438 463.158437)scale(0.1 -0.1)">
       <use xlink:href="#DejaVuSans-48"/>
       <use x="63.623047" xlink:href="#DejaVuSans-46"/>
       <use x="95.410156" xlink:href="#DejaVuSans-55"/>
      </g>
     </g>
    </g>
    <g id="xtick_9">
     <g id="line2d_17">
      <path clip-path="url(#pbb17e8fe93)" d="M 455.94 448.56 
L 455.94 60.48 
" style="fill:none;stroke:#b0b0b0;stroke-linecap:square;stroke-width:0.8;"/>
     </g>
     <g id="line2d_18">
      <g>
       <use style="stroke:#000000;stroke-width:0.8;" x="455.94" xlink:href="#m538c89a0b7" y="448.56"/>
      </g>
     </g>
     <g id="text_9">
      <!-- 0.8 -->
      <defs>
       <path d="M 31.78125 34.625 
Q 24.75 34.625 20.71875 30.859375 
Q 16.703125 27.09375 16.703125 20.515625 
Q 16.703125 13.921875 20.71875 10.15625 
Q 24.75 6.390625 31.78125 6.390625 
Q 38.8125 6.390625 42.859375 10.171875 
Q 46.921875 13.96875 46.921875 20.515625 
Q 46.921875 27.09375 42.890625 30.859375 
Q 38.875 34.625 31.78125 34.625 
z
M 21.921875 38.8125 
Q 15.578125 40.375 12.03125 44.71875 
Q 8.5 49.078125 8.5 55.328125 
Q 8.5 64.0625 14.71875 69.140625 
Q 20.953125 74.21875 31.78125 74.21875 
Q 42.671875 74.21875 48.875 69.140625 
Q 55.078125 64.0625 55.078125 55.328125 
Q 55.078125 49.078125 51.53125 44.71875 
Q 48 40.375 41.703125 38.8125 
Q 48.828125 37.15625 52.796875 32.3125 
Q 56.78125 27.484375 56.78125 20.515625 
Q 56.78125 9.90625 50.3125 4.234375 
Q 43.84375 -1.421875 31.78125 -1.421875 
Q 19.734375 -1.421875 13.25 4.234375 
Q 6.78125 9.90625 6.78125 20.515625 
Q 6.78125 27.484375 10.78125 32.3125 
Q 14.796875 37.15625 21.921875 38.8125 
z
M 18.3125 54.390625 
Q 18.3125 48.734375 21.84375 45.5625 
Q 25.390625 42.390625 31.78125 42.390625 
Q 38.140625 42.390625 41.71875 45.5625 
Q 45.3125 48.734375 45.3125 54.390625 
Q 45.3125 60.0625 41.71875 63.234375 
Q 38.140625 66.40625 31.78125 66.40625 
Q 25.390625 66.40625 21.84375 63.234375 
Q 18.3125 60.0625 18.3125 54.390625 
z
" id="DejaVuSans-56"/>
      </defs>
      <g transform="translate(447.988438 463.158437)scale(0.1 -0.1)">
       <use xlink:href="#DejaVuSans-48"/>
       <use x="63.623047" xlink:href="#DejaVuSans-46"/>
       <use x="95.410156" xlink:href="#DejaVuSans-56"/>
      </g>
     </g>
    </g>
    <g id="xtick_10">
     <g id="line2d_19">
      <path clip-path="url(#pbb17e8fe93)" d="M 503.37 448.56 
L 503.37 60.48 
" style="fill:none;stroke:#b0b0b0;stroke-linecap:square;stroke-width:0.8;"/>
     </g>
     <g id="line2d_20">
      <g>
       <use style="stroke:#000000;stroke-width:0.8;" x="503.37" xlink:href="#m538c89a0b7" y="448.56"/>
      </g>
     </g>
     <g id="text_10">
      <!-- 0.9 -->
      <defs>
       <path d="M 10.984375 1.515625 
L 10.984375 10.5 
Q 14.703125 8.734375 18.5 7.8125 
Q 22.3125 6.890625 25.984375 6.890625 
Q 35.75 6.890625 40.890625 13.453125 
Q 46.046875 20.015625 46.78125 33.40625 
Q 43.953125 29.203125 39.59375 26.953125 
Q 35.25 24.703125 29.984375 24.703125 
Q 19.046875 24.703125 12.671875 31.3125 
Q 6.296875 37.9375 6.296875 49.421875 
Q 6.296875 60.640625 12.9375 67.421875 
Q 19.578125 74.21875 30.609375 74.21875 
Q 43.265625 74.21875 49.921875 64.515625 
Q 56.59375 54.828125 56.59375 36.375 
Q 56.59375 19.140625 48.40625 8.859375 
Q 40.234375 -1.421875 26.421875 -1.421875 
Q 22.703125 -1.421875 18.890625 -0.6875 
Q 15.09375 0.046875 10.984375 1.515625 
z
M 30.609375 32.421875 
Q 37.25 32.421875 41.125 36.953125 
Q 45.015625 41.5 45.015625 49.421875 
Q 45.015625 57.28125 41.125 61.84375 
Q 37.25 66.40625 30.609375 66.40625 
Q 23.96875 66.40625 20.09375 61.84375 
Q 16.21875 57.28125 16.21875 49.421875 
Q 16.21875 41.5 20.09375 36.953125 
Q 23.96875 32.421875 30.609375 32.421875 
z
" id="DejaVuSans-57"/>
      </defs>
      <g transform="translate(495.418438 463.158437)scale(0.1 -0.1)">
       <use xlink:href="#DejaVuSans-48"/>
       <use x="63.623047" xlink:href="#DejaVuSans-46"/>
       <use x="95.410156" xlink:href="#DejaVuSans-57"/>
      </g>
     </g>
    </g>
    <g id="xtick_11">
     <g id="line2d_21">
      <path clip-path="url(#pbb17e8fe93)" d="M 550.8 448.56 
L 550.8 60.48 
" style="fill:none;stroke:#b0b0b0;stroke-linecap:square;stroke-width:0.8;"/>
     </g>
     <g id="line2d_22">
      <g>
       <use style="stroke:#000000;stroke-width:0.8;" x="550.8" xlink:href="#m538c89a0b7" y="448.56"/>
      </g>
     </g>
     <g id="text_11">
      <!-- 1.0 -->
      <g transform="translate(542.848438 463.158437)scale(0.1 -0.1)">
       <use xlink:href="#DejaVuSans-49"/>
       <use x="63.623047" xlink:href="#DejaVuSans-46"/>
       <use x="95.410156" xlink:href="#DejaVuSans-48"/>
      </g>
     </g>
    </g>
    <g id="text_12">
     <!-- 1-precision -->
     <defs>
      <path d="M 4.890625 31.390625 
L 31.203125 31.390625 
L 31.203125 23.390625 
L 4.890625 23.390625 
z
" id="DejaVuSans-45"/>
      <path d="M 18.109375 8.203125 
L 18.109375 -20.796875 
L 9.078125 -20.796875 
L 9.078125 54.6875 
L 18.109375 54.6875 
L 18.109375 46.390625 
Q 20.953125 51.265625 25.265625 53.625 
Q 29.59375 56 35.59375 56 
Q 45.5625 56 51.78125 48.09375 
Q 58.015625 40.1875 58.015625 27.296875 
Q 58.015625 14.40625 51.78125 6.484375 
Q 45.5625 -1.421875 35.59375 -1.421875 
Q 29.59375 -1.421875 25.265625 0.953125 
Q 20.953125 3.328125 18.109375 8.203125 
z
M 48.6875 27.296875 
Q 48.6875 37.203125 44.609375 42.84375 
Q 40.53125 48.484375 33.40625 48.484375 
Q 26.265625 48.484375 22.1875 42.84375 
Q 18.109375 37.203125 18.109375 27.296875 
Q 18.109375 17.390625 22.1875 11.75 
Q 26.265625 6.109375 33.40625 6.109375 
Q 40.53125 6.109375 44.609375 11.75 
Q 48.6875 17.390625 48.6875 27.296875 
z
" id="DejaVuSans-112"/>
      <path d="M 41.109375 46.296875 
Q 39.59375 47.171875 37.8125 47.578125 
Q 36.03125 48 33.890625 48 
Q 26.265625 48 22.1875 43.046875 
Q 18.109375 38.09375 18.109375 28.8125 
L 18.109375 0 
L 9.078125 0 
L 9.078125 54.6875 
L 18.109375 54.6875 
L 18.109375 46.1875 
Q 20.953125 51.171875 25.484375 53.578125 
Q 30.03125 56 36.53125 56 
Q 37.453125 56 38.578125 55.875 
Q 39.703125 55.765625 41.0625 55.515625 
z
" id="DejaVuSans-114"/>
      <path d="M 56.203125 29.59375 
L 56.203125 25.203125 
L 14.890625 25.203125 
Q 15.484375 15.921875 20.484375 11.0625 
Q 25.484375 6.203125 34.421875 6.203125 
Q 39.59375 6.203125 44.453125 7.46875 
Q 49.3125 8.734375 54.109375 11.28125 
L 54.109375 2.78125 
Q 49.265625 0.734375 44.1875 -0.34375 
Q 39.109375 -1.421875 33.890625 -1.421875 
Q 20.796875 -1.421875 13.15625 6.1875 
Q 5.515625 13.8125 5.515625 26.8125 
Q 5.515625 40.234375 12.765625 48.109375 
Q 20.015625 56 32.328125 56 
Q 43.359375 56 49.78125 48.890625 
Q 56.203125 41.796875 56.203125 29.59375 
z
M 47.21875 32.234375 
Q 47.125 39.59375 43.09375 43.984375 
Q 39.0625 48.390625 32.421875 48.390625 
Q 24.90625 48.390625 20.390625 44.140625 
Q 15.875 39.890625 15.1875 32.171875 
z
" id="DejaVuSans-101"/>
      <path d="M 48.78125 52.59375 
L 48.78125 44.1875 
Q 44.96875 46.296875 41.140625 47.34375 
Q 37.3125 48.390625 33.40625 48.390625 
Q 24.65625 48.390625 19.8125 42.84375 
Q 14.984375 37.3125 14.984375 27.296875 
Q 14.984375 17.28125 19.8125 11.734375 
Q 24.65625 6.203125 33.40625 6.203125 
Q 37.3125 6.203125 41.140625 7.25 
Q 44.96875 8.296875 48.78125 10.40625 
L 48.78125 2.09375 
Q 45.015625 0.34375 40.984375 -0.53125 
Q 36.96875 -1.421875 32.421875 -1.421875 
Q 20.0625 -1.421875 12.78125 6.34375 
Q 5.515625 14.109375 5.515625 27.296875 
Q 5.515625 40.671875 12.859375 48.328125 
Q 20.21875 56 33.015625 56 
Q 37.15625 56 41.109375 55.140625 
Q 45.0625 54.296875 48.78125 52.59375 
z
" id="DejaVuSans-99"/>
      <path d="M 9.421875 54.6875 
L 18.40625 54.6875 
L 18.40625 0 
L 9.421875 0 
z
M 9.421875 75.984375 
L 18.40625 75.984375 
L 18.40625 64.59375 
L 9.421875 64.59375 
z
" id="DejaVuSans-105"/>
      <path d="M 44.28125 53.078125 
L 44.28125 44.578125 
Q 40.484375 46.53125 36.375 47.5 
Q 32.28125 48.484375 27.875 48.484375 
Q 21.1875 48.484375 17.84375 46.4375 
Q 14.5 44.390625 14.5 40.28125 
Q 14.5 37.15625 16.890625 35.375 
Q 19.28125 33.59375 26.515625 31.984375 
L 29.59375 31.296875 
Q 39.15625 29.25 43.1875 25.515625 
Q 47.21875 21.78125 47.21875 15.09375 
Q 47.21875 7.46875 41.1875 3.015625 
Q 35.15625 -1.421875 24.609375 -1.421875 
Q 20.21875 -1.421875 15.453125 -0.5625 
Q 10.6875 0.296875 5.421875 2 
L 5.421875 11.28125 
Q 10.40625 8.6875 15.234375 7.390625 
Q 20.0625 6.109375 24.8125 6.109375 
Q 31.15625 6.109375 34.5625 8.28125 
Q 37.984375 10.453125 37.984375 14.40625 
Q 37.984375 18.0625 35.515625 20.015625 
Q 33.0625 21.96875 24.703125 23.78125 
L 21.578125 24.515625 
Q 13.234375 26.265625 9.515625 29.90625 
Q 5.8125 33.546875 5.8125 39.890625 
Q 5.8125 47.609375 11.28125 51.796875 
Q 16.75 56 26.8125 56 
Q 31.78125 56 36.171875 55.265625 
Q 40.578125 54.546875 44.28125 53.078125 
z
" id="DejaVuSans-115"/>
      <path d="M 30.609375 48.390625 
Q 23.390625 48.390625 19.1875 42.75 
Q 14.984375 37.109375 14.984375 27.296875 
Q 14.984375 17.484375 19.15625 11.84375 
Q 23.34375 6.203125 30.609375 6.203125 
Q 37.796875 6.203125 41.984375 11.859375 
Q 46.1875 17.53125 46.1875 27.296875 
Q 46.1875 37.015625 41.984375 42.703125 
Q 37.796875 48.390625 30.609375 48.390625 
z
M 30.609375 56 
Q 42.328125 56 49.015625 48.375 
Q 55.71875 40.765625 55.71875 27.296875 
Q 55.71875 13.875 49.015625 6.21875 
Q 42.328125 -1.421875 30.609375 -1.421875 
Q 18.84375 -1.421875 12.171875 6.21875 
Q 5.515625 13.875 5.515625 27.296875 
Q 5.515625 40.765625 12.171875 48.375 
Q 18.84375 56 30.609375 56 
z
" id="DejaVuSans-111"/>
      <path d="M 54.890625 33.015625 
L 54.890625 0 
L 45.90625 0 
L 45.90625 32.71875 
Q 45.90625 40.484375 42.875 44.328125 
Q 39.84375 48.1875 33.796875 48.1875 
Q 26.515625 48.1875 22.3125 43.546875 
Q 18.109375 38.921875 18.109375 30.90625 
L 18.109375 0 
L 9.078125 0 
L 9.078125 54.6875 
L 18.109375 54.6875 
L 18.109375 46.1875 
Q 21.34375 51.125 25.703125 53.5625 
Q 30.078125 56 35.796875 56 
Q 45.21875 56 50.046875 50.171875 
Q 54.890625 44.34375 54.890625 33.015625 
z
" id="DejaVuSans-110"/>
     </defs>
     <g transform="translate(286.110938 476.836563)scale(0.1 -0.1)">
      <use xlink:href="#DejaVuSans-49"/>
      <use x="63.623047" xlink:href="#DejaVuSans-45"/>
      <use x="99.707031" xlink:href="#DejaVuSans-112"/>
      <use x="163.183594" xlink:href="#DejaVuSans-114"/>
      <use x="202.046875" xlink:href="#DejaVuSans-101"/>
      <use x="263.570312" xlink:href="#DejaVuSans-99"/>
      <use x="318.550781" xlink:href="#DejaVuSans-105"/>
      <use x="346.333984" xlink:href="#DejaVuSans-115"/>
      <use x="398.433594" xlink:href="#DejaVuSans-105"/>
      <use x="426.216797" xlink:href="#DejaVuSans-111"/>
      <use x="487.398438" xlink:href="#DejaVuSans-110"/>
     </g>
    </g>
   </g>
   <g id="matplotlib.axis_2">
    <g id="ytick_1">
     <g id="line2d_23">
      <path clip-path="url(#pbb17e8fe93)" d="M 76.5 448.56 
L 550.8 448.56 
" style="fill:none;stroke:#b0b0b0;stroke-linecap:square;stroke-width:0.8;"/>
     </g>
     <g id="line2d_24">
      <defs>
       <path d="M 0 0 
L -3.5 0 
" id="m4689643033" style="stroke:#000000;stroke-width:0.8;"/>
      </defs>
      <g>
       <use style="stroke:#000000;stroke-width:0.8;" x="76.5" xlink:href="#m4689643033" y="448.56"/>
      </g>
     </g>
     <g id="text_13">
      <!-- 0.0 -->
      <g transform="translate(53.596875 452.359219)scale(0.1 -0.1)">
       <use xlink:href="#DejaVuSans-48"/>
       <use x="63.623047" xlink:href="#DejaVuSans-46"/>
       <use x="95.410156" xlink:href="#DejaVuSans-48"/>
      </g>
     </g>
    </g>
    <g id="ytick_2">
     <g id="line2d_25">
      <path clip-path="url(#pbb17e8fe93)" d="M 76.5 409.752 
L 550.8 409.752 
" style="fill:none;stroke:#b0b0b0;stroke-linecap:square;stroke-width:0.8;"/>
     </g>
     <g id="line2d_26">
      <g>
       <use style="stroke:#000000;stroke-width:0.8;" x="76.5" xlink:href="#m4689643033" y="409.752"/>
      </g>
     </g>
     <g id="text_14">
      <!-- 0.1 -->
      <g transform="translate(53.596875 413.551219)scale(0.1 -0.1)">
       <use xlink:href="#DejaVuSans-48"/>
       <use x="63.623047" xlink:href="#DejaVuSans-46"/>
       <use x="95.410156" xlink:href="#DejaVuSans-49"/>
      </g>
     </g>
    </g>
    <g id="ytick_3">
     <g id="line2d_27">
      <path clip-path="url(#pbb17e8fe93)" d="M 76.5 370.944 
L 550.8 370.944 
" style="fill:none;stroke:#b0b0b0;stroke-linecap:square;stroke-width:0.8;"/>
     </g>
     <g id="line2d_28">
      <g>
       <use style="stroke:#000000;stroke-width:0.8;" x="76.5" xlink:href="#m4689643033" y="370.944"/>
      </g>
     </g>
     <g id="text_15">
      <!-- 0.2 -->
      <g transform="translate(53.596875 374.743219)scale(0.1 -0.1)">
       <use xlink:href="#DejaVuSans-48"/>
       <use x="63.623047" xlink:href="#DejaVuSans-46"/>
       <use x="95.410156" xlink:href="#DejaVuSans-50"/>
      </g>
     </g>
    </g>
    <g id="ytick_4">
     <g id="line2d_29">
      <path clip-path="url(#pbb17e8fe93)" d="M 76.5 332.136 
L 550.8 332.136 
" style="fill:none;stroke:#b0b0b0;stroke-linecap:square;stroke-width:0.8;"/>
     </g>
     <g id="line2d_30">
      <g>
       <use style="stroke:#000000;stroke-width:0.8;" x="76.5" xlink:href="#m4689643033" y="332.136"/>
      </g>
     </g>
     <g id="text_16">
      <!-- 0.3 -->
      <g transform="translate(53.596875 335.935219)scale(0.1 -0.1)">
       <use xlink:href="#DejaVuSans-48"/>
       <use x="63.623047" xlink:href="#DejaVuSans-46"/>
       <use x="95.410156" xlink:href="#DejaVuSans-51"/>
      </g>
     </g>
    </g>
    <g id="ytick_5">
     <g id="line2d_31">
      <path clip-path="url(#pbb17e8fe93)" d="M 76.5 293.328 
L 550.8 293.328 
" style="fill:none;stroke:#b0b0b0;stroke-linecap:square;stroke-width:0.8;"/>
     </g>
     <g id="line2d_32">
      <g>
       <use style="stroke:#000000;stroke-width:0.8;" x="76.5" xlink:href="#m4689643033" y="293.328"/>
      </g>
     </g>
     <g id="text_17">
      <!-- 0.4 -->
      <g transform="translate(53.596875 297.127219)scale(0.1 -0.1)">
       <use xlink:href="#DejaVuSans-48"/>
       <use x="63.623047" xlink:href="#DejaVuSans-46"/>
       <use x="95.410156" xlink:href="#DejaVuSans-52"/>
      </g>
     </g>
    </g>
    <g id="ytick_6">
     <g id="line2d_33">
      <path clip-path="url(#pbb17e8fe93)" d="M 76.5 254.52 
L 550.8 254.52 
" style="fill:none;stroke:#b0b0b0;stroke-linecap:square;stroke-width:0.8;"/>
     </g>
     <g id="line2d_34">
      <g>
       <use style="stroke:#000000;stroke-width:0.8;" x="76.5" xlink:href="#m4689643033" y="254.52"/>
      </g>
     </g>
     <g id="text_18">
      <!-- 0.5 -->
      <g transform="translate(53.596875 258.319219)scale(0.1 -0.1)">
       <use xlink:href="#DejaVuSans-48"/>
       <use x="63.623047" xlink:href="#DejaVuSans-46"/>
       <use x="95.410156" xlink:href="#DejaVuSans-53"/>
      </g>
     </g>
    </g>
    <g id="ytick_7">
     <g id="line2d_35">
      <path clip-path="url(#pbb17e8fe93)" d="M 76.5 215.712 
L 550.8 215.712 
" style="fill:none;stroke:#b0b0b0;stroke-linecap:square;stroke-width:0.8;"/>
     </g>
     <g id="line2d_36">
      <g>
       <use style="stroke:#000000;stroke-width:0.8;" x="76.5" xlink:href="#m4689643033" y="215.712"/>
      </g>
     </g>
     <g id="text_19">
      <!-- 0.6 -->
      <g transform="translate(53.596875 219.511219)scale(0.1 -0.1)">
       <use xlink:href="#DejaVuSans-48"/>
       <use x="63.623047" xlink:href="#DejaVuSans-46"/>
       <use x="95.410156" xlink:href="#DejaVuSans-54"/>
      </g>
     </g>
    </g>
    <g id="ytick_8">
     <g id="line2d_37">
      <path clip-path="url(#pbb17e8fe93)" d="M 76.5 176.904 
L 550.8 176.904 
" style="fill:none;stroke:#b0b0b0;stroke-linecap:square;stroke-width:0.8;"/>
     </g>
     <g id="line2d_38">
      <g>
       <use style="stroke:#000000;stroke-width:0.8;" x="76.5" xlink:href="#m4689643033" y="176.904"/>
      </g>
     </g>
     <g id="text_20">
      <!-- 0.7 -->
      <g transform="translate(53.596875 180.703219)scale(0.1 -0.1)">
       <use xlink:href="#DejaVuSans-48"/>
       <use x="63.623047" xlink:href="#DejaVuSans-46"/>
       <use x="95.410156" xlink:href="#DejaVuSans-55"/>
      </g>
     </g>
    </g>
    <g id="ytick_9">
     <g id="line2d_39">
      <path clip-path="url(#pbb17e8fe93)" d="M 76.5 138.096 
L 550.8 138.096 
" style="fill:none;stroke:#b0b0b0;stroke-linecap:square;stroke-width:0.8;"/>
     </g>
     <g id="line2d_40">
      <g>
       <use style="stroke:#000000;stroke-width:0.8;" x="76.5" xlink:href="#m4689643033" y="138.096"/>
      </g>
     </g>
     <g id="text_21">
      <!-- 0.8 -->
      <g transform="translate(53.596875 141.895219)scale(0.1 -0.1)">
       <use xlink:href="#DejaVuSans-48"/>
       <use x="63.623047" xlink:href="#DejaVuSans-46"/>
       <use x="95.410156" xlink:href="#DejaVuSans-56"/>
      </g>
     </g>
    </g>
    <g id="ytick_10">
     <g id="line2d_41">
      <path clip-path="url(#pbb17e8fe93)" d="M 76.5 99.288 
L 550.8 99.288 
" style="fill:none;stroke:#b0b0b0;stroke-linecap:square;stroke-width:0.8;"/>
     </g>
     <g id="line2d_42">
      <g>
       <use style="stroke:#000000;stroke-width:0.8;" x="76.5" xlink:href="#m4689643033" y="99.288"/>
      </g>
     </g>
     <g id="text_22">
      <!-- 0.9 -->
      <g transform="translate(53.596875 103.087219)scale(0.1 -0.1)">
       <use xlink:href="#DejaVuSans-48"/>
       <use x="63.623047" xlink:href="#DejaVuSans-46"/>
       <use x="95.410156" xlink:href="#DejaVuSans-57"/>
      </g>
     </g>
    </g>
    <g id="ytick_11">
     <g id="line2d_43">
      <path clip-path="url(#pbb17e8fe93)" d="M 76.5 60.48 
L 550.8 60.48 
" style="fill:none;stroke:#b0b0b0;stroke-linecap:square;stroke-width:0.8;"/>
     </g>
     <g id="line2d_44">
      <g>
       <use style="stroke:#000000;stroke-width:0.8;" x="76.5" xlink:href="#m4689643033" y="60.48"/>
      </g>
     </g>
     <g id="text_23">
      <!-- 1.0 -->
      <g transform="translate(53.596875 64.279219)scale(0.1 -0.1)">
       <use xlink:href="#DejaVuSans-49"/>
       <use x="63.623047" xlink:href="#DejaVuSans-46"/>
       <use x="95.410156" xlink:href="#DejaVuSans-48"/>
      </g>
     </g>
    </g>
    <g id="text_24">
     <!-- #correct/1258 -->
     <defs>
      <path d="M 51.125 44 
L 36.921875 44 
L 32.8125 27.6875 
L 47.125 27.6875 
z
M 43.796875 71.78125 
L 38.71875 51.515625 
L 52.984375 51.515625 
L 58.109375 71.78125 
L 65.921875 71.78125 
L 60.890625 51.515625 
L 76.125 51.515625 
L 76.125 44 
L 58.984375 44 
L 54.984375 27.6875 
L 70.515625 27.6875 
L 70.515625 20.21875 
L 53.078125 20.21875 
L 48 0 
L 40.1875 0 
L 45.21875 20.21875 
L 30.90625 20.21875 
L 25.875 0 
L 18.015625 0 
L 23.09375 20.21875 
L 7.71875 20.21875 
L 7.71875 27.6875 
L 24.90625 27.6875 
L 29 44 
L 13.28125 44 
L 13.28125 51.515625 
L 30.90625 51.515625 
L 35.890625 71.78125 
z
" id="DejaVuSans-35"/>
      <path d="M 18.3125 70.21875 
L 18.3125 54.6875 
L 36.8125 54.6875 
L 36.8125 47.703125 
L 18.3125 47.703125 
L 18.3125 18.015625 
Q 18.3125 11.328125 20.140625 9.421875 
Q 21.96875 7.515625 27.59375 7.515625 
L 36.8125 7.515625 
L 36.8125 0 
L 27.59375 0 
Q 17.1875 0 13.234375 3.875 
Q 9.28125 7.765625 9.28125 18.015625 
L 9.28125 47.703125 
L 2.6875 47.703125 
L 2.6875 54.6875 
L 9.28125 54.6875 
L 9.28125 70.21875 
z
" id="DejaVuSans-116"/>
      <path d="M 25.390625 72.90625 
L 33.6875 72.90625 
L 8.296875 -9.28125 
L 0 -9.28125 
z
" id="DejaVuSans-47"/>
     </defs>
     <g transform="translate(47.517187 290.624688)rotate(-90)scale(0.1 -0.1)">
      <use xlink:href="#DejaVuSans-35"/>
      <use x="83.789062" xlink:href="#DejaVuSans-99"/>
      <use x="138.769531" xlink:href="#DejaVuSans-111"/>
      <use x="199.951172" xlink:href="#DejaVuSans-114"/>
      <use x="239.314453" xlink:href="#DejaVuSans-114"/>
      <use x="278.177734" xlink:href="#DejaVuSans-101"/>
      <use x="339.701172" xlink:href="#DejaVuSans-99"/>
      <use x="394.681641" xlink:href="#DejaVuSans-116"/>
      <use x="433.890625" xlink:href="#DejaVuSans-47"/>
      <use x="467.582031" xlink:href="#DejaVuSans-49"/>
      <use x="531.205078" xlink:href="#DejaVuSans-50"/>
      <use x="594.828125" xlink:href="#DejaVuSans-53"/>
      <use x="658.451172" xlink:href="#DejaVuSans-56"/>
     </g>
    </g>
   </g>
   <g id="line2d_45">
    <path clip-path="url(#pbb17e8fe93)" d="M 76.5 448.25151 
L 76.5 267.476566 
L 77.306633 267.476566 
L 77.243417 252.052083 
L 77.984507 252.052083 
L 77.975272 250.818124 
L 78.709472 250.818124 
L 78.669055 247.116248 
L 79.387671 247.116248 
L 79.07422 222.437075 
L 79.713415 222.437075 
L 79.696092 221.203116 
L 80.330148 221.203116 
L 80.205469 213.490874 
L 80.817425 213.490874 
L 80.795084 212.256916 
L 81.402326 212.256916 
L 81.333631 208.863529 
L 81.930916 208.863529 
L 81.835875 204.544674 
L 82.421348 204.544674 
L 82.221351 195.906963 
L 82.785904 195.906963 
L 82.630787 189.42868 
L 83.180282 189.42868 
L 82.960386 180.48248 
L 83.490816 180.48248 
L 83.459255 179.248521 
L 83.986133 179.248521 
L 83.845354 174.004197 
L 84.876159 174.004197 
L 84.802845 171.53628 
L 85.312131 171.53628 
L 84.864212 156.420286 
L 85.347047 156.420286 
L 85.337888 156.111797 
L 85.819235 156.111797 
L 85.723849 153.0269 
L 86.199387 153.0269 
L 86.12069 150.558983 
L 86.591489 150.558983 
L 86.400895 144.697679 
L 86.862066 144.697679 
L 86.831287 143.77221 
L 87.290208 143.77221 
L 87.17407 140.378824 
L 87.627273 140.378824 
L 87.605561 139.761844 
L 88.057018 139.761844 
L 87.989826 137.910906 
L 88.88501 137.910906 
L 88.813558 136.059968 
L 89.257349 136.059968 
L 89.208517 134.82601 
L 89.649809 134.82601 
L 89.599714 133.592051 
L 90.038535 133.592051 
L 90.025665 133.283561 
L 90.9 133.283561 
L 90.872727 132.666582 
L 91.307852 132.666582 
L 91.265943 131.741113 
L 92.131356 131.741113 
L 92.014486 129.273196 
L 92.442857 129.273196 
L 92.368773 127.730747 
L 92.794429 127.730747 
L 92.629688 124.337361 
L 93.050413 124.337361 
L 93.020073 123.720382 
L 93.439286 123.720382 
L 93.209756 119.093037 
L 93.622744 119.093037 
L 93.607304 118.784547 
L 94.019189 118.784547 
L 94.00342 118.476057 
L 94.414209 118.476057 
L 94.35 117.242099 
L 94.758639 117.242099 
L 94.742308 116.933609 
L 95.149866 116.933609 
L 95.0504 115.082671 
L 95.859184 115.082671 
L 95.824889 114.465692 
L 97.030654 114.465692 
L 96.904478 112.306264 
L 97.302632 112.306264 
L 97.068083 108.295898 
L 97.461265 108.295898 
L 97.425 107.678919 
L 97.816854 107.678919 
L 97.798446 107.370429 
L 98.189301 107.370429 
L 98.114703 106.136471 
L 98.891845 106.136471 
L 98.834332 105.211002 
L 99.220958 105.211002 
L 99.201538 104.902512 
L 99.58719 104.902512 
L 99.547826 104.285533 
L 99.932198 104.285533 
L 99.872472 103.360064 
L 101.018898 103.360064 
L 100.977411 102.743084 
L 101.35765 102.743084 
L 101.336655 102.434595 
L 102.094604 102.434595 
L 102.030025 101.509126 
L 102.783627 101.509126 
L 102.761577 101.200636 
L 103.137133 101.200636 
L 103.114824 100.892146 
L 104.236842 100.892146 
L 104.121464 99.349698 
L 104.492768 99.349698 
L 104.446307 98.732719 
L 104.816418 98.732719 
L 104.769536 98.115739 
L 105.138462 98.115739 
L 105.114793 97.80725 
L 105.482824 97.80725 
L 105.387407 96.573291 
L 106.119392 96.573291 
L 106.095074 96.264801 
L 106.459885 96.264801 
L 106.410811 95.647822 
L 107.137531 95.647822 
L 106.987958 93.796884 
L 107.34878 93.796884 
L 107.298701 93.179905 
L 108.017504 93.179905 
L 107.966505 92.562925 
L 108.324495 92.562925 
L 108.298788 92.254436 
L 109.0125 92.254436 
L 108.907958 91.020477 
L 109.262892 91.020477 
L 109.236597 90.711987 
L 110.6496 90.711987 
L 110.595048 90.095008 
L 111.297129 90.095008 
L 111.24172 89.478029 
L 111.940541 89.478029 
L 111.912391 89.169539 
L 112.260714 89.169539 
L 112.175772 88.24407 
L 112.869249 88.24407 
L 112.811839 87.627091 
L 113.157256 87.627091 
L 113.128369 87.318601 
L 113.472992 87.318601 
L 113.443902 87.010111 
L 113.787736 87.010111 
L 113.758445 86.701622 
L 114.444 86.701622 
L 114.414263 86.393132 
L 115.097183 86.393132 
L 115.067005 86.084642 
L 118.111724 86.084642 
L 118.047209 85.467663 
L 118.382417 85.467663 
L 118.35 85.159173 
L 119.018393 85.159173 
L 118.952778 84.542194 
L 119.618182 84.542194 
L 119.551846 83.925215 
L 119.883321 83.925215 
L 119.816731 83.308235 
L 121.46422 83.308235 
L 121.42987 82.999746 
L 124.038041 82.999746 
L 123.965959 82.382766 
L 124.289318 82.382766 
L 124.21702 81.765787 
L 127.101503 81.765787 
L 127.063514 81.457297 
L 127.381395 81.457297 
L 127.343253 81.148808 
L 127.977171 81.148808 
L 127.938669 80.840318 
L 128.570276 80.840318 
L 128.531418 80.531828 
L 129.16073 80.531828 
L 129.121519 80.223339 
L 129.74855 80.223339 
L 129.70899 79.914849 
L 130.645441 79.914849 
L 130.605333 79.606359 
L 133.388079 79.606359 
L 133.304482 78.98938 
L 133.611013 78.98938 
L 133.569112 78.68089 
L 135.094079 78.68089 
L 135.051278 78.372401 
L 135.354745 78.372401 
L 135.183406 77.138442 
L 136.088889 77.138442 
L 136.045646 76.829952 
L 136.34641 76.829952 
L 136.259739 76.212973 
L 141.007516 76.212973 
L 140.915297 75.595994 
L 142.375 75.595994 
L 142.281294 74.979014 
L 142.861577 74.979014 
L 142.767447 74.362035 
L 144.496398 74.362035 
L 144.448412 74.053545 
L 145.592259 74.053545 
L 145.543671 73.745056 
L 146.680435 73.745056 
L 146.631254 73.436566 
L 147.761006 73.436566 
L 147.711243 73.128076 
L 148.273431 73.128076 
L 148.223415 72.819587 
L 148.783716 72.819587 
L 148.733449 72.511097 
L 150.681176 72.511097 
L 150.578645 71.894118 
L 151.131056 71.894118 
L 151.079586 71.585628 
L 154.902049 71.585628 
L 154.848532 71.277138 
L 159.390486 71.277138 
L 159.334592 70.968649 
L 160.65 70.968649 
L 160.593486 70.660159 
L 169.304596 70.660159 
L 169.243701 70.351669 
L 169.743775 70.351669 
L 169.682711 70.04318 
L 171.174364 70.04318 
L 171.112647 69.73469 
L 172.591948 69.73469 
L 172.529591 69.4262 
L 173.019896 69.4262 
L 172.957383 69.117711 
L 174.662669 69.117711 
L 174.59942 68.809221 
L 175.083591 68.809221 
L 174.956877 68.192242 
L 177.833227 68.192242 
L 177.768642 67.883752 
L 179.661002 67.883752 
L 179.595627 67.575262 
L 182.628724 67.575262 
L 182.56206 67.266773 
L 185.544673 67.266773 
L 185.476775 66.958283 
L 190.192071 66.958283 
L 190.122236 66.649793 
L 195.577132 66.649793 
L 195.505139 66.341304 
L 198.48723 66.341304 
L 198.41414 66.032814 
L 212.793103 66.032814 
L 212.714819 65.724324 
L 217.689474 65.724324 
L 217.609615 65.415835 
L 263.863517 65.415835 
L 263.772298 65.107345 
L 270.193194 65.107345 
L 270.101047 64.798855 
L 272.089939 64.798855 
L 272.089939 64.798855 
" style="fill:none;stroke:#1f77b4;stroke-linecap:square;stroke-width:2;"/>
   </g>
   <g id="line2d_46">
    <path clip-path="url(#pbb17e8fe93)" d="M 76.5 448.25151 
L 76.5 418.944992 
L 81.389691 418.944992 
L 80.697345 414.009157 
L 80.066165 407.839364 
L 79.483019 399.818633 
L 78.957513 389.329984 
L 78.484519 375.139459 
L 78.065347 355.396121 
L 77.700759 327.015072 
L 77.386542 283.826518 
L 77.29182 264.08318 
L 78.081 264.08318 
L 77.851282 232.617234 
L 78.52404 232.617234 
L 78.441201 223.362544 
L 79.084741 223.362544 
L 78.986501 214.416343 
L 79.604058 214.416343 
L 79.567917 211.639936 
L 80.176744 211.639936 
L 79.895943 191.896598 
L 80.457211 191.896598 
L 80.429112 190.04566 
L 80.985106 190.04566 
L 80.906969 185.418315 
L 81.452088 185.418315 
L 81.406552 182.950397 
L 81.945465 182.950397 
L 81.926773 182.024928 
L 82.462629 182.024928 
L 82.401923 179.248521 
L 82.931186 179.248521 
L 82.646436 166.600445 
L 83.151456 166.600445 
L 83.0386 161.66461 
L 83.53411 161.66461 
L 83.50443 160.430652 
L 83.996839 160.430652 
L 83.834536 153.952369 
L 84.315448 153.952369 
L 84.307407 153.643879 
L 85.742769 153.643879 
L 85.705005 152.409921 
L 86.179592 152.409921 
L 86.150051 151.484452 
L 87.093503 151.484452 
L 87.061336 150.558983 
L 87.998182 150.558983 
L 87.951911 149.325024 
L 88.417085 149.325024 
L 88.333832 147.165596 
L 88.794915 147.165596 
L 88.733929 145.623148 
L 89.191873 145.623148 
L 88.993756 140.687313 
L 89.893087 140.687313 
L 89.880058 140.378824 
L 90.327988 140.378824 
L 90.247826 138.527886 
L 90.692375 138.527886 
L 90.665029 137.910906 
L 91.549904 137.910906 
L 91.463576 136.059968 
L 92.340172 136.059968 
L 92.279943 134.82601 
L 93.15 134.82601 
L 92.91637 130.198665 
L 94.623299 130.198665 
L 94.555989 128.964706 
L 94.979221 128.964706 
L 94.927937 128.039237 
L 95.349261 128.039237 
L 95.297143 127.113768 
L 95.716575 127.113768 
L 95.663636 126.188299 
L 96.081193 126.188299 
L 96.063245 125.879809 
L 96.47967 125.879809 
L 96.406752 124.645851 
L 97.234426 124.645851 
L 97.140435 123.103402 
L 97.551359 123.103402 
L 97.494309 122.177933 
L 99.938005 122.177933 
L 99.833184 120.635485 
L 100.638482 120.635485 
L 100.403714 117.242099 
L 100.80159 117.242099 
L 100.780141 116.933609 
L 101.176984 116.933609 
L 101.068657 115.391161 
L 101.463158 115.391161 
L 101.310811 113.231733 
L 101.702352 113.231733 
L 101.680418 112.923243 
L 102.070957 112.923243 
L 102.04874 112.614754 
L 102.438281 112.614754 
L 102.303886 110.763816 
L 102.690854 110.763816 
L 102.623236 109.838347 
L 103.008598 109.838347 
L 102.985825 109.529857 
L 104.137018 109.529857 
L 104.066154 108.604388 
L 105.967149 108.604388 
L 105.942092 108.295898 
L 107.825487 108.295898 
L 107.798985 107.987409 
L 108.173457 107.987409 
L 108.093339 107.06194 
L 108.838636 107.06194 
L 108.811438 106.75345 
L 109.182857 106.75345 
L 109.155416 106.44496 
L 109.525923 106.44496 
L 109.470603 105.827981 
L 110.208612 105.827981 
L 110.180451 105.519491 
L 110.548247 105.519491 
L 110.51985 105.211002 
L 110.88675 105.211002 
L 110.829534 104.594022 
L 111.924896 104.594022 
L 111.895522 104.285533 
L 112.259155 104.285533 
L 112.111634 102.743084 
L 113.194815 102.743084 
L 113.104433 101.817615 
L 114.179853 101.817615 
L 114.149018 101.509126 
L 114.8625 101.509126 
L 114.831184 101.200636 
L 115.541809 101.200636 
L 115.510016 100.892146 
L 117.275182 100.892146 
L 117.20915 100.275167 
L 117.910186 100.275167 
L 117.876737 99.966677 
L 118.22615 99.966677 
L 118.158904 99.349698 
L 119.548916 99.349698 
L 119.514366 99.041208 
L 119.860225 99.041208 
L 119.825481 98.732719 
L 120.858993 98.732719 
L 120.752871 97.80725 
L 121.437659 97.80725 
L 121.401909 97.49876 
L 121.743243 97.49876 
L 121.707307 97.19027 
L 123.066271 97.19027 
L 122.992648 96.573291 
L 123.330569 96.573291 
L 123.293607 96.264801 
L 124.639024 96.264801 
L 124.601179 95.956312 
L 124.935978 95.956312 
L 124.897959 95.647822 
L 127.885581 95.647822 
L 127.805603 95.030843 
L 129.118231 95.030843 
L 129.077442 94.722353 
L 130.055916 94.722353 
L 130.014529 94.413863 
L 130.339459 94.413863 
L 130.297917 94.105374 
L 130.622128 94.105374 
L 130.538799 93.488394 
L 130.862077 93.488394 
L 130.778571 92.871415 
L 132.705275 92.871415 
L 132.619466 92.254436 
L 133.574943 92.254436 
L 133.488137 91.637456 
L 134.438012 91.637456 
L 134.262708 90.403498 
L 134.577551 90.403498 
L 134.533686 90.095008 
L 134.847849 90.095008 
L 134.75991 89.478029 
L 136.632558 89.478029 
L 136.587481 89.169539 
L 137.20756 89.169539 
L 137.162154 88.861049 
L 141.145333 88.861049 
L 141.097483 88.55256 
L 145.29956 88.55256 
L 145.198903 87.93558 
L 145.791454 87.93558 
L 145.740876 87.627091 
L 148.092453 87.627091 
L 148.040537 87.318601 
L 148.914834 87.318601 
L 148.862473 87.010111 
L 149.15289 87.010111 
L 149.100433 86.701622 
L 150.257235 86.701622 
L 150.204173 86.393132 
L 155.04435 86.393132 
L 154.93286 85.776153 
L 155.773938 85.776153 
L 155.717834 85.467663 
L 156.276254 85.467663 
L 156.219915 85.159173 
L 158.160928 85.159173 
L 158.103581 84.850684 
L 167.523989 84.850684 
L 167.461644 84.542194 
L 167.724025 84.542194 
L 167.661628 84.233704 
L 168.707026 84.233704 
L 168.644172 83.925215 
L 169.424082 83.925215 
L 169.360911 83.616725 
L 172.702358 83.616725 
L 172.637576 83.308235 
L 173.1462 83.308235 
L 173.08125 82.999746 
L 176.352632 82.999746 
L 176.286152 82.691256 
L 176.784176 82.691256 
L 176.717542 82.382766 
L 183.550098 82.382766 
L 183.480313 82.074277 
L 190.526087 82.074277 
L 190.453227 81.765787 
L 190.913146 81.765787 
L 190.840179 81.457297 
L 193.121293 81.457297 
L 192.973671 80.840318 
L 203.096679 80.840318 
L 203.018869 80.531828 
L 215.983491 80.531828 
L 215.901005 80.223339 
L 221.547558 80.223339 
L 221.463277 79.914849 
L 222.036369 79.914849 
L 221.952 79.606359 
L 223.470052 79.606359 
L 223.385294 79.29787 
L 226.933999 79.29787 
L 226.848233 78.98938 
L 228.501985 78.98938 
L 228.415816 78.68089 
L 228.59847 78.68089 
L 228.512344 78.372401 
L 236.520596 78.372401 
L 236.432285 78.063911 
L 240.372589 78.063911 
L 240.283333 77.755421 
L 255.406943 77.755421 
L 255.314293 77.446932 
L 256.229582 77.446932 
L 256.136842 77.138442 
L 260.333469 77.138442 
L 260.24001 76.829952 
L 263.886596 76.829952 
L 263.792574 76.521463 
L 266.502883 76.521463 
L 266.408495 76.212973 
L 270.1725 76.212973 
L 270.077609 75.904483 
L 276.265069 75.904483 
L 276.169397 75.595994 
L 279.93146 75.595994 
L 279.93146 75.595994 
" style="fill:none;stroke:#ff7f0e;stroke-linecap:square;stroke-width:2;"/>
   </g>
   <g id="line2d_47">
    <path clip-path="url(#pbb17e8fe93)" d="M 76.5 448.25151 
L 76.5 446.092083 
L 129.2 446.092083 
L 119.618182 445.475103 
L 112.984615 444.858124 
L 108.12 444.241145 
L 102.85 443.315676 
L 99.085714 442.390207 
L 96.2625 441.464738 
L 94.066667 440.539269 
L 91.8 439.30531 
L 90.051429 438.071351 
L 88.661538 436.837393 
L 87.279545 435.294944 
L 86.179592 433.752496 
L 85.123636 431.901558 
L 84.15 429.74213 
L 83.275714 427.274213 
L 82.42875 424.189316 
L 81.655435 420.48744 
L 80.93271 415.860095 
L 80.264286 409.998792 
L 80.039552 407.530874 
L 83.526667 407.530874 
L 83.042069 404.445978 
L 86.24589 404.445978 
L 85.68 401.669571 
L 88.661538 401.669571 
L 87.530233 396.733736 
L 86.485263 391.180922 
L 85.709709 386.245087 
L 87.956522 386.245087 
L 86.855895 379.458315 
L 85.836614 371.746073 
L 84.879859 362.799873 
L 84.511824 358.789507 
L 86.081818 358.789507 
L 85.449057 352.311224 
L 86.907837 352.311224 
L 86.622256 349.534817 
L 88.033131 349.534817 
L 87.826567 347.683879 
L 89.204464 347.683879 
L 89.092035 346.75841 
L 90.45 346.75841 
L 89.25 336.886741 
L 90.487399 336.886741 
L 90.122193 333.801844 
L 91.321875 333.801844 
L 90.982443 331.025437 
L 92.149492 331.025437 
L 90.872727 320.228299 
L 90.839302 319.919809 
L 92.96875 319.919809 
L 92.559819 316.526423 
L 93.591892 316.526423 
L 93.553483 316.217933 
L 94.5787 316.217933 
L 93.403774 306.654754 
L 94.360669 306.654754 
L 93.272888 297.091574 
L 94.17 297.091574 
L 93.6 291.84725 
L 95.328544 291.84725 
L 94.910906 288.145374 
L 95.75203 288.145374 
L 95.716575 287.836884 
L 96.553125 287.836884 
L 95.807788 281.358601 
L 96.611661 281.358601 
L 95.958462 275.497297 
L 97.508177 275.497297 
L 97.156281 272.412401 
L 97.914883 272.412401 
L 96.416174 258.530366 
L 96.293045 257.296407 
L 96.994444 257.296407 
L 96.962866 256.987917 
L 98.357143 256.987917 
L 98.223664 255.753959 
L 98.913567 255.753959 
L 98.543928 252.360572 
L 99.895964 252.360572 
L 99.619498 249.892655 
L 100.284956 249.892655 
L 99.181013 239.712496 
L 99.815309 239.712496 
L 99.365702 235.393641 
L 99.986657 235.393641 
L 99.82623 233.851192 
L 100.441473 233.851192 
L 99.231995 221.820095 
L 99.816171 221.820095 
L 99.31443 216.575771 
L 99.885209 216.575771 
L 99.058171 207.629571 
L 99.608404 207.629571 
L 99.496364 206.395612 
L 100.042736 206.395612 
L 99.98587 205.778633 
L 100.529674 205.778633 
L 100.243266 202.693736 
L 101.314744 202.693736 
L 100.766512 196.832432 
L 101.289199 196.832432 
L 101.23175 196.215453 
L 101.752083 196.215453 
L 101.72289 195.906963 
L 102.241455 195.906963 
L 102.064335 194.056025 
L 103.09119 194.056025 
L 103.0608 193.747536 
L 103.571918 193.747536 
L 103.387755 191.896598 
L 104.904407 191.896598 
L 104.808446 190.971129 
L 105.310124 190.971129 
L 104.8949 186.960763 
L 105.881416 186.960763 
L 105.339088 181.716439 
L 105.822234 181.716439 
L 105.632651 179.865501 
L 106.111841 179.865501 
L 106.048228 179.248521 
L 106.525429 179.248521 
L 106.461135 178.631542 
L 108.827157 178.631542 
L 108.690032 177.397583 
L 109.625714 177.397583 
L 109.244561 174.004197 
L 109.705956 174.004197 
L 109.533368 172.461749 
L 112.721053 172.461749 
L 112.683711 172.153259 
L 113.134912 172.153259 
L 112.909928 170.302321 
L 113.357669 170.302321 
L 113.282449 169.685342 
L 114.617701 169.685342 
L 114.463222 168.451383 
L 115.345602 168.451383 
L 115.306364 168.142893 
L 115.745812 168.142893 
L 115.548795 166.600445 
L 115.985356 166.600445 
L 115.8669 165.674976 
L 116.73503 165.674976 
L 116.65488 165.057997 
L 117.086866 165.057997 
L 116.966071 164.132528 
L 117.825149 164.132528 
L 117.500393 161.66461 
L 117.925613 161.66461 
L 117.167341 155.803307 
L 117.584697 155.803307 
L 117.505764 155.186328 
L 117.921593 155.186328 
L 117.842241 154.569348 
L 118.256555 154.569348 
L 118.176791 153.952369 
L 118.589599 153.952369 
L 118.509429 153.33539 
L 118.920742 153.33539 
L 118.8 152.409921 
L 119.209479 152.409921 
L 118.927966 150.250493 
L 119.739756 150.250493 
L 119.337151 147.165596 
L 119.738512 147.165596 
L 119.49852 145.314658 
L 120.692159 145.314658 
L 120.448899 143.46372 
L 121.237088 143.46372 
L 120.551307 138.219396 
L 120.938919 138.219396 
L 120.739641 136.676948 
L 121.893649 136.676948 
L 121.6112 134.51752 
L 122.75266 134.51752 
L 122.589223 133.283561 
L 123.344444 133.283561 
L 123.261972 132.666582 
L 123.637995 132.666582 
L 123.267801 129.890175 
L 123.640541 129.890175 
L 123.599477 129.581685 
L 123.971279 129.581685 
L 123.602332 126.805278 
L 123.970923 126.805278 
L 123.93 126.496789 
L 124.297674 126.496789 
L 124.011216 124.337361 
L 124.376305 124.337361 
L 124.335385 124.028871 
L 125.06314 124.028871 
L 125.021739 123.720382 
L 125.384412 123.720382 
L 125.342809 123.411892 
L 125.704592 123.411892 
L 125.454822 121.560954 
L 126.889376 121.560954 
L 126.762237 120.635485 
L 127.829446 120.635485 
L 127.743467 120.018506 
L 128.45092 120.018506 
L 128.36419 119.401526 
L 128.716514 119.401526 
L 128.673 119.093037 
L 129.375374 119.093037 
L 129.156338 117.550588 
L 129.505381 117.550588 
L 129.461538 117.242099 
L 130.504455 117.242099 
L 130.415486 116.625119 
L 130.761481 116.625119 
L 130.450655 114.465692 
L 132.16357 114.465692 
L 132.118241 114.157202 
L 132.799024 114.157202 
L 132.662044 113.231733 
L 134.014147 113.231733 
L 133.96769 112.923243 
L 134.64 112.923243 
L 134.499678 111.997774 
L 134.834325 111.997774 
L 134.78747 111.689285 
L 135.7875 111.689285 
L 135.69264 111.072305 
L 136.355751 111.072305 
L 136.165127 109.838347 
L 136.824324 109.838347 
L 136.77641 109.529857 
L 137.105 109.529857 
L 137.056939 109.221367 
L 137.384786 109.221367 
L 137.288449 108.604388 
L 137.615336 108.604388 
L 137.326829 106.75345 
L 137.651887 106.75345 
L 137.603849 106.44496 
L 137.928179 106.44496 
L 137.831897 105.827981 
L 138.800547 105.827981 
L 138.751875 105.519491 
L 139.073536 105.519491 
L 138.975994 104.902512 
L 139.296729 104.902512 
L 139.15035 103.977043 
L 139.469953 103.977043 
L 139.421102 103.668553 
L 140.058404 103.668553 
L 139.911051 102.743084 
L 140.545139 102.743084 
L 140.446456 102.126105 
L 140.762356 102.126105 
L 140.663566 101.509126 
L 140.978571 101.509126 
L 140.929087 101.200636 
L 141.870597 101.200636 
L 141.820581 100.892146 
L 142.757176 100.892146 
L 142.656174 100.275167 
L 144.514188 100.275167 
L 144.359727 99.349698 
L 144.667171 99.349698 
L 144.615646 99.041208 
L 147.360135 99.041208 
L 147.253898 98.424229 
L 147.55618 98.424229 
L 147.502994 98.115739 
L 147.804637 98.115739 
L 147.698133 97.49876 
L 148.599255 97.49876 
L 148.54557 97.19027 
L 149.143717 97.19027 
L 149.035857 96.573291 
L 149.333902 96.573291 
L 149.226 95.956312 
L 153.929649 95.956312 
L 153.873007 95.647822 
L 154.452885 95.647822 
L 154.225783 94.413863 
L 156.808394 94.413863 
L 156.750325 94.105374 
L 157.31935 94.105374 
L 157.261039 93.796884 
L 158.675629 93.796884 
L 158.557645 93.179905 
L 159.960515 93.179905 
L 159.841286 92.562925 
L 161.509673 92.562925 
L 161.449254 92.254436 
L 161.725781 92.254436 
L 161.665295 91.945946 
L 161.941277 91.945946 
L 161.880723 91.637456 
L 162.156161 91.637456 
L 162.095541 91.328967 
L 163.46615 91.328967 
L 163.404863 91.020477 
L 164.222152 91.020477 
L 164.098947 90.403498 
L 164.911913 90.403498 
L 164.85 90.095008 
L 165.120084 90.095008 
L 165.058112 89.786518 
L 166.40216 89.786518 
L 166.09 88.24407 
L 170.839506 88.24407 
L 170.710274 87.627091 
L 173.552549 87.627091 
L 173.486617 87.318601 
L 175.526149 87.318601 
L 175.459284 87.010111 
L 175.712551 87.010111 
L 175.645651 86.701622 
L 176.403028 86.701622 
L 176.335844 86.393132 
L 177.340443 86.393132 
L 177.137952 85.467663 
L 178.6326 85.467663 
L 178.564557 85.159173 
L 180.29244 85.159173 
L 180.223658 84.850684 
L 181.934763 84.850684 
L 181.86526 84.542194 
L 182.1083 84.542194 
L 182.038776 84.233704 
L 182.281382 84.233704 
L 182.211834 83.925215 
L 182.695863 83.925215 
L 182.626181 83.616725 
L 182.867607 83.616725 
L 182.728291 82.999746 
L 182.969175 82.999746 
L 182.899542 82.691256 
L 183.380144 82.691256 
L 183.310379 82.382766 
L 184.744018 82.382766 
L 184.673684 82.074277 
L 187.506383 82.074277 
L 187.434858 81.765787 
L 190.222826 81.765787 
L 190.15016 81.457297 
L 196.933542 81.457297 
L 196.858083 81.148808 
L 200.153631 81.148808 
L 200.076923 80.840318 
L 201.16141 80.840318 
L 201.084363 80.531828 
L 201.516111 80.531828 
L 201.438988 80.223339 
L 202.727351 80.223339 
L 202.649816 79.914849 
L 204.986394 79.914849 
L 204.908049 79.606359 
L 208.663209 79.606359 
L 208.583544 79.29787 
L 214.263485 79.29787 
L 214.181872 78.98938 
L 214.580237 78.98938 
L 214.498581 78.68089 
L 219.20484 78.68089 
L 219.121678 78.372401 
L 221.6155 78.372401 
L 221.531618 78.063911 
L 225.480583 78.063911 
L 225.395548 77.755421 
L 228.704746 77.755421 
L 228.618803 77.446932 
L 233.103508 77.446932 
L 232.92931 76.829952 
L 235.733021 76.829952 
L 235.645289 76.521463 
L 247.026341 76.521463 
L 246.935828 76.212973 
L 254.638541 76.212973 
L 254.546432 75.904483 
L 274.943284 75.904483 
L 274.847786 75.595994 
L 276.037805 75.595994 
L 275.942241 75.287504 
L 279.707416 75.287504 
L 279.707416 75.287504 
" style="fill:none;stroke:#2ca02c;stroke-linecap:square;stroke-width:2;"/>
   </g>
   <g id="line2d_48">
    <path clip-path="url(#pbb17e8fe93)" d="M 76.5 448.25151 
L 76.5 370.512114 
L 78.367323 370.512114 
L 78.345525 369.586645 
L 80.176744 369.586645 
L 79.589902 354.470652 
L 79.383283 347.683879 
L 80.811818 347.683879 
L 80.356098 335.652782 
L 81.627568 335.652782 
L 81.184444 324.855644 
L 82.341133 324.855644 
L 82.106383 319.61132 
L 83.211792 319.61132 
L 83.196 319.30283 
L 84.293662 319.30283 
L 84.257243 318.685851 
L 85.344755 318.685851 
L 84.695248 308.197202 
L 85.699784 308.197202 
L 85.141093 298.942512 
L 86.081818 298.942512 
L 85.449057 288.145374 
L 86.325424 288.145374 
L 86.306955 287.836884 
L 87.178424 287.836884 
L 86.981768 284.751987 
L 87.834375 284.751987 
L 87.731148 283.209539 
L 88.573091 283.209539 
L 88.442806 281.358601 
L 89.27289 281.358601 
L 89.136767 279.507663 
L 90.770973 279.507663 
L 90.097133 270.869952 
L 90.872727 270.869952 
L 90.564909 266.859587 
L 91.321875 266.859587 
L 90.647096 257.913386 
L 91.368339 257.913386 
L 91.229814 256.062448 
L 91.942326 256.062448 
L 91.918421 255.753959 
L 92.627666 255.753959 
L 92.05082 248.350207 
L 93.414116 248.350207 
L 93.364 247.733227 
L 94.04068 247.733227 
L 93.9375 246.499269 
L 94.60837 246.499269 
L 94.398113 244.031351 
L 95.059565 244.031351 
L 95.032706 243.722862 
L 95.691329 243.722862 
L 95.499142 241.563434 
L 96.149571 241.563434 
L 95.84557 238.170048 
L 96.484551 238.170048 
L 96.372905 236.936089 
L 97.006695 236.936089 
L 96.892926 235.70213 
L 97.521607 235.70213 
L 97.234426 232.617234 
L 97.853206 232.617234 
L 97.766168 231.691765 
L 98.380868 231.691765 
L 98.204172 229.840827 
L 98.8125 229.840827 
L 97.620229 216.884261 
L 98.196061 216.884261 
L 97.816854 212.565405 
L 98.381671 212.565405 
L 98.192336 210.405978 
L 99.308508 210.405978 
L 99.280419 210.097488 
L 99.835793 210.097488 
L 99.75 209.172019 
L 100.302081 209.172019 
L 100.157299 207.629571 
L 100.70486 207.629571 
L 100.500723 205.470143 
L 101.583173 205.470143 
L 101.523022 204.853164 
L 102.061078 204.853164 
L 102.030502 204.544674 
L 102.566667 204.544674 
L 102.198233 200.842798 
L 102.726 200.842798 
L 102.695182 200.534308 
L 103.745838 200.534308 
L 103.713934 200.225819 
L 104.236842 200.225819 
L 104.107683 198.99186 
L 104.627093 198.99186 
L 104.019113 193.130556 
L 104.526818 193.130556 
L 104.368475 191.588108 
L 104.872348 191.588108 
L 104.338206 186.343784 
L 104.83208 186.343784 
L 104.4 182.024928 
L 104.885745 182.024928 
L 104.854891 181.716439 
L 105.822234 181.716439 
L 105.230181 175.855135 
L 106.175186 175.855135 
L 106.14375 175.546645 
L 106.614286 175.546645 
L 106.518987 174.621176 
L 106.987144 174.621176 
L 106.955053 174.312687 
L 107.8875 174.312687 
L 107.561227 171.22779 
L 108.021495 171.22779 
L 107.794021 169.068362 
L 108.250257 169.068362 
L 108.023006 166.908935 
L 108.475281 166.908935 
L 108.442653 166.600445 
L 108.893578 166.600445 
L 108.82767 165.983466 
L 109.276829 165.983466 
L 109.078182 164.132528 
L 109.523915 164.132528 
L 109.2267 161.356121 
L 109.667832 161.356121 
L 109.372277 158.579714 
L 109.808902 158.579714 
L 109.775988 158.271224 
L 110.211352 158.271224 
L 110.178107 157.962734 
L 111.045472 157.962734 
L 110.542871 153.33539 
L 110.969477 153.33539 
L 110.936108 153.0269 
L 111.361509 153.0269 
L 111.260656 152.101431 
L 111.684104 152.101431 
L 111.650241 151.792941 
L 112.0725 151.792941 
L 111.902297 150.250493 
L 112.740688 150.250493 
L 112.602759 149.016534 
L 113.435043 149.016534 
L 113.4 148.708045 
L 113.814597 148.708045 
L 113.533772 146.240127 
L 113.944737 146.240127 
L 113.839456 145.314658 
L 114.248596 145.314658 
L 114.142857 144.389189 
L 114.550187 144.389189 
L 114.408736 143.155231 
L 114.813928 143.155231 
L 114.287637 138.527886 
L 114.687008 138.527886 
L 114.306522 135.134499 
L 114.701538 135.134499 
L 114.63252 134.51752 
L 115.026173 134.51752 
L 114.922142 133.592051 
L 115.705391 133.592051 
L 115.670197 133.283561 
L 116.060448 133.283561 
L 115.848707 131.432623 
L 116.236364 131.432623 
L 116.1304 130.507154 
L 116.51643 130.507154 
L 116.480923 130.198665 
L 116.865957 130.198665 
L 116.794513 129.581685 
L 117.178249 129.581685 
L 117.142314 129.273196 
L 117.525066 129.273196 
L 117.488889 128.964706 
L 117.870661 128.964706 
L 117.725373 127.730747 
L 118.484487 127.730747 
L 118.374388 126.805278 
L 118.752052 126.805278 
L 118.604961 125.57132 
L 118.980783 125.57132 
L 118.907031 124.95434 
L 119.281613 124.95434 
L 119.133708 123.720382 
L 119.506477 123.720382 
L 119.432328 123.103402 
L 119.803876 123.103402 
L 119.655193 121.869444 
L 120.394087 121.869444 
L 120.356507 121.560954 
L 120.724722 121.560954 
L 120.611519 120.635485 
L 121.709872 120.635485 
L 121.366216 117.859078 
L 121.728608 117.859078 
L 121.614394 116.933609 
L 121.975357 116.933609 
L 121.937143 116.625119 
L 122.297229 116.625119 
L 122.143933 115.391161 
L 123.217362 115.391161 
L 123.023192 113.848712 
L 124.087313 113.848712 
L 124.047887 113.540223 
L 124.401159 113.540223 
L 124.361538 113.231733 
L 124.713967 113.231733 
L 124.515556 111.689285 
L 124.866118 111.689285 
L 124.826376 111.380795 
L 125.176108 111.380795 
L 125.056511 110.455326 
L 125.40491 110.455326 
L 125.325 109.838347 
L 125.672327 109.838347 
L 125.512286 108.604388 
L 125.858049 108.604388 
L 125.658219 107.06194 
L 126.002184 107.06194 
L 125.922213 106.44496 
L 126.265133 106.44496 
L 126.225 106.136471 
L 126.567123 106.136471 
L 126.406265 104.902512 
L 126.74687 104.902512 
L 126.706576 104.594022 
L 127.046394 104.594022 
L 126.96552 103.977043 
L 127.304317 103.977043 
L 127.14239 102.743084 
L 127.479697 102.743084 
L 127.398649 102.126105 
L 127.734948 102.126105 
L 127.532278 100.583657 
L 129.2 100.583657 
L 129.158504 100.275167 
L 129.490244 100.275167 
L 129.448585 99.966677 
L 129.779576 99.966677 
L 129.737755 99.658188 
L 130.068 99.658188 
L 130.026019 99.349698 
L 130.355521 99.349698 
L 130.187354 98.115739 
L 131.822706 98.115739 
L 131.77972 97.80725 
L 132.754186 97.80725 
L 132.667105 97.19027 
L 133.635753 97.19027 
L 133.591667 96.881781 
L 133.913338 96.881781 
L 133.869106 96.573291 
L 135.15 96.573291 
L 135.104988 96.264801 
L 135.423773 96.264801 
L 135.378621 95.956312 
L 136.331422 95.956312 
L 136.240076 95.339332 
L 136.556293 95.339332 
L 136.419178 94.413863 
L 136.734297 94.413863 
L 136.688526 94.105374 
L 137.31692 94.105374 
L 137.224773 93.488394 
L 137.850454 93.488394 
L 137.757779 92.871415 
L 138.69156 92.871415 
L 138.504658 91.637456 
L 139.123256 91.637456 
L 139.076312 91.328967 
L 139.692665 91.328967 
L 139.6454 91.020477 
L 139.952691 91.020477 
L 139.905302 90.711987 
L 140.21194 90.711987 
L 140.16443 90.403498 
L 141.993541 90.403498 
L 141.944955 90.095008 
L 142.248036 90.095008 
L 142.150703 89.478029 
L 142.452959 89.478029 
L 142.404213 89.169539 
L 142.705835 89.169539 
L 142.608186 88.55256 
L 143.80875 88.55256 
L 143.709912 87.93558 
L 144.008584 87.93558 
L 143.959091 87.627091 
L 144.851939 87.627091 
L 144.801974 87.318601 
L 145.690372 87.318601 
L 145.589585 86.701622 
L 146.473038 86.701622 
L 146.422222 86.393132 
L 146.715675 86.393132 
L 146.664757 86.084642 
L 147.250036 86.084642 
L 147.198842 85.776153 
L 147.490672 85.776153 
L 147.439379 85.467663 
L 148.891361 85.467663 
L 148.787275 84.850684 
L 149.076078 84.850684 
L 149.023977 84.542194 
L 150.460944 84.542194 
L 150.408077 84.233704 
L 150.979657 84.233704 
L 150.820513 83.308235 
L 151.105196 83.308235 
L 151.052134 82.999746 
L 151.903265 82.999746 
L 151.796386 82.382766 
L 152.078966 82.382766 
L 152.025478 82.074277 
L 152.589117 82.074277 
L 152.535381 81.765787 
L 152.816443 81.765787 
L 152.762623 81.457297 
L 153.323239 81.457297 
L 153.21519 80.840318 
L 153.494589 80.840318 
L 153.44052 80.531828 
L 154.553571 80.531828 
L 154.49895 80.223339 
L 155.32919 80.223339 
L 155.27418 79.914849 
L 155.55 79.914849 
L 155.494913 79.606359 
L 156.319611 79.606359 
L 156.20875 78.98938 
L 158.117623 78.98938 
L 158.061257 78.68089 
L 158.87326 78.68089 
L 158.703301 77.755421 
L 159.241896 77.755421 
L 159.185106 77.446932 
L 159.989795 77.446932 
L 159.875581 76.829952 
L 160.942224 76.829952 
L 160.884663 76.521463 
L 161.415521 76.521463 
L 161.357755 76.212973 
L 162.940854 76.212973 
L 162.882329 75.904483 
L 163.406897 75.904483 
L 163.348176 75.595994 
L 163.871053 75.595994 
L 163.812138 75.287504 
L 165.888531 75.287504 
L 165.828619 74.979014 
L 166.08647 74.979014 
L 166.026506 74.670525 
L 167.30994 74.670525 
L 167.2494 74.362035 
L 168.269481 74.362035 
L 168.208505 74.053545 
L 170.231461 74.053545 
L 170.169551 73.745056 
L 171.422449 73.745056 
L 171.36 73.436566 
L 174.086218 73.436566 
L 174.02252 73.128076 
L 175.736257 73.128076 
L 175.543191 72.202607 
L 176.271845 72.202607 
L 176.142857 71.585628 
L 183.270133 71.585628 
L 183.202471 71.277138 
L 185.976792 71.277138 
L 185.907982 70.968649 
L 187.506383 70.968649 
L 187.436961 70.660159 
L 187.890881 70.660159 
L 187.751903 70.04318 
L 188.430075 70.04318 
L 188.360423 69.73469 
L 190.601855 69.73469 
L 190.460902 69.117711 
L 191.348983 69.117711 
L 191.278264 68.809221 
L 201.599462 68.809221 
L 201.524686 68.500731 
L 214.2 68.500731 
L 214.120725 68.192242 
L 220.397797 68.192242 
L 220.316544 67.883752 
L 221.061296 67.883752 
L 220.979899 67.575262 
L 222.642857 67.575262 
L 222.56103 67.266773 
L 224.932963 67.266773 
L 224.8505 66.958283 
L 226.472139 66.958283 
L 226.389282 66.649793 
L 235.787446 66.649793 
L 235.702038 66.341304 
L 273.210156 66.341304 
L 273.210156 66.341304 
" style="fill:none;stroke:#d62728;stroke-linecap:square;stroke-width:2;"/>
   </g>
   <g id="line2d_49">
    <path clip-path="url(#pbb17e8fe93)" d="M 76.5 448.25151 
L 76.5 366.501749 
L 78.276404 366.501749 
L 78.218478 363.725342 
L 79.924549 363.725342 
L 79.357229 346.75841 
L 78.84802 324.547154 
L 78.690762 315.600954 
L 79.778571 315.600954 
L 79.357229 295.857615 
L 80.302004 295.857615 
L 79.70473 267.168076 
L 80.499157 267.168076 
L 80.18818 251.743593 
L 81.647442 251.743593 
L 81.368182 240.329475 
L 82.05549 240.329475 
L 81.806853 230.457806 
L 82.461872 230.457806 
L 82.13153 217.50124 
L 82.749012 217.50124 
L 82.496207 207.629571 
L 83.0875 207.629571 
L 82.84708 198.374881 
L 83.415674 198.374881 
L 83.196 190.04566 
L 83.745476 190.04566 
L 83.467119 179.557011 
L 83.994582 179.557011 
L 83.919218 176.780604 
L 84.44029 176.780604 
L 84.396226 175.238156 
L 84.913304 175.238156 
L 84.784716 170.9193 
L 85.292912 170.9193 
L 85.245228 169.376852 
L 85.749621 169.376852 
L 85.719654 168.451383 
L 86.221359 168.451383 
L 86.200431 167.834404 
L 86.7 167.834404 
L 86.591489 164.749507 
L 87.084803 164.749507 
L 87.051165 163.824038 
L 87.541905 163.824038 
L 87.313057 157.654245 
L 87.792857 157.654245 
L 87.781179 157.345755 
L 88.259504 157.345755 
L 88.235258 156.728776 
L 88.711637 156.728776 
L 88.562564 153.0269 
L 89.032317 153.0269 
L 88.8318 148.091065 
L 89.293307 148.091065 
L 89.204464 145.931638 
L 89.661943 145.931638 
L 89.635905 145.314658 
L 90.091601 145.314658 
L 90.038091 144.0807 
L 90.49115 144.0807 
L 90.422701 142.538251 
L 90.872727 142.538251 
L 90.747384 139.761844 
L 91.19274 139.761844 
L 91.024019 136.059968 
L 91.463576 136.059968 
L 91.449284 135.751479 
L 91.887595 135.751479 
L 91.771023 133.283561 
L 92.205298 133.283561 
L 92.190454 132.975072 
L 92.623513 132.975072 
L 92.457757 129.581685 
L 92.885714 129.581685 
L 92.870429 129.273196 
L 93.297204 129.273196 
L 93.126753 125.879809 
L 93.969613 125.879809 
L 93.921488 124.95434 
L 94.340642 124.95434 
L 94.162398 121.560954 
L 94.57677 121.560954 
L 94.398113 118.167568 
L 95.216771 118.167568 
L 95.2 117.859078 
L 95.607878 117.859078 
L 95.539697 116.625119 
L 95.945455 116.625119 
L 95.842021 114.774181 
L 96.244996 114.774181 
L 96.106069 112.306264 
L 96.505624 112.306264 
L 96.48806 111.997774 
L 96.886579 111.997774 
L 96.868712 111.689285 
L 97.2662 111.689285 
L 97.121739 109.221367 
L 97.515899 109.221367 
L 97.38886 107.06194 
L 97.780069 107.06194 
L 97.743411 106.44496 
L 98.133305 106.44496 
L 98.059091 105.211002 
L 98.447044 105.211002 
L 98.372075 103.977043 
L 98.758106 103.977043 
L 98.73913 103.668553 
L 99.508596 103.668553 
L 99.430534 102.434595 
L 99.813051 102.434595 
L 99.617143 99.349698 
L 99.99597 99.349698 
L 99.976258 99.041208 
L 100.354149 99.041208 
L 100.175541 96.264801 
L 100.550125 96.264801 
L 100.371535 93.488394 
L 101.483704 93.488394 
L 101.422167 92.562925 
L 101.790812 92.562925 
L 101.708095 91.328967 
L 102.075 91.328967 
L 102.012469 90.403498 
L 102.377932 90.403498 
L 102.314866 89.478029 
L 102.678896 89.478029 
L 102.636467 88.861049 
L 103.36165 88.861049 
L 103.29661 87.93558 
L 103.6575 87.93558 
L 103.570177 86.701622 
L 103.929398 86.701622 
L 103.885405 86.084642 
L 104.601041 86.084642 
L 104.556115 85.467663 
L 104.91254 85.467663 
L 104.867225 84.850684 
L 105.22255 84.850684 
L 105.17685 84.233704 
L 105.531081 84.233704 
L 105.439065 82.999746 
L 106.14375 82.999746 
L 106.096919 82.382766 
L 106.447908 82.382766 
L 106.330189 80.840318 
L 107.027943 80.840318 
L 107.004 80.531828 
L 108.737578 80.531828 
L 108.63715 79.29787 
L 108.981245 79.29787 
L 108.955988 78.98938 
L 109.299301 78.98938 
L 109.273835 78.68089 
L 111.321097 78.68089 
L 111.294208 78.372401 
L 111.633333 78.372401 
L 111.552194 77.446932 
L 113.571724 77.446932 
L 113.543338 77.138442 
L 113.877888 77.138442 
L 113.820779 76.521463 
L 114.154351 76.521463 
L 114.125629 76.212973 
L 114.45846 76.212973 
L 114.429551 75.904483 
L 114.761644 75.904483 
L 114.732548 75.595994 
L 115.725114 75.595994 
L 115.695375 75.287504 
L 116.354126 75.287504 
L 116.323979 74.979014 
L 116.652381 74.979014 
L 116.591774 74.362035 
L 116.919231 74.362035 
L 116.827991 73.436566 
L 117.154286 73.436566 
L 117.093243 72.819587 
L 117.743478 72.819587 
L 117.712584 72.511097 
L 119.006348 72.511097 
L 118.974627 72.202607 
L 120.259821 72.202607 
L 120.227286 71.894118 
L 121.185534 71.894118 
L 121.086306 70.968649 
L 121.721508 70.968649 
L 121.65476 70.351669 
L 122.287251 70.351669 
L 122.253535 70.04318 
L 124.451209 70.04318 
L 124.311103 68.809221 
L 124.93326 68.809221 
L 124.862709 68.192242 
L 125.482255 68.192242 
L 125.446657 67.883752 
L 126.372009 67.883752 
L 126.33587 67.575262 
L 126.64323 67.575262 
L 126.570716 66.958283 
L 129.313578 66.958283 
L 129.275664 66.649793 
L 130.181519 66.649793 
L 130.143092 66.341304 
L 131.0445 66.341304 
L 130.96669 65.724324 
L 131.26593 65.724324 
L 131.226923 65.415835 
L 131.823755 65.415835 
L 131.784435 65.107345 
L 132.379205 65.107345 
L 132.339574 64.798855 
L 134.112712 64.798855 
L 133.990909 63.873386 
L 134.577551 63.873386 
L 134.536709 63.564897 
L 134.829234 63.564897 
L 134.788272 63.256407 
L 136.243877 63.256407 
L 136.202098 62.947917 
L 139.08125 62.947917 
L 139.037821 62.639428 
L 139.608524 62.639428 
L 139.56482 62.330938 
L 140.417415 62.330938 
L 140.373273 62.022448 
L 141.221847 62.022448 
L 141.177273 61.713959 
L 144.534836 61.713959 
L 144.488396 61.405469 
L 146.145683 61.405469 
L 146.09837 61.096979 
L 150.180767 61.096979 
L 150.13125 60.78849 
L 152.273864 60.78849 
L 152.223246 60.48 
L 156.958812 60.48 
L 156.905739 60.17151 
L 160.254742 60.17151 
L 160.2 59.863021 
L 161.97892 59.863021 
L 161.923342 59.554531 
L 165.182785 59.554531 
L 165.125644 59.246041 
L 168.573563 59.246041 
L 168.514805 58.937552 
L 169.48816 58.937552 
L 169.429008 58.629062 
L 172.318182 58.629062 
L 172.257729 58.320572 
L 174.158757 58.320572 
L 174.097491 58.012083 
L 196.125576 58.012083 
L 196.054959 57.703593 
L 196.890636 57.703593 
L 196.819776 57.395103 
L 199.712785 57.395103 
L 199.640898 57.086614 
L 202.687392 57.086614 
L 202.614451 56.778124 
L 204.615517 56.778124 
L 204.54193 56.469634 
L 210.791371 56.469634 
L 210.715671 56.161145 
L 224.686703 56.161145 
L 224.606645 55.852655 
L 265.592678 55.852655 
L 265.592678 55.852655 
" style="fill:none;stroke:#9467bd;stroke-linecap:square;stroke-width:2;"/>
   </g>
   <g id="patch_3">
    <path d="M 76.5 448.56 
L 76.5 60.48 
" style="fill:none;stroke:#000000;stroke-linecap:square;stroke-linejoin:miter;stroke-width:0.8;"/>
   </g>
   <g id="patch_4">
    <path d="M 550.8 448.56 
L 550.8 60.48 
" style="fill:none;stroke:#000000;stroke-linecap:square;stroke-linejoin:miter;stroke-width:0.8;"/>
   </g>
   <g id="patch_5">
    <path d="M 76.5 448.56 
L 550.8 448.56 
" style="fill:none;stroke:#000000;stroke-linecap:square;stroke-linejoin:miter;stroke-width:0.8;"/>
   </g>
   <g id="patch_6">
    <path d="M 76.5 60.48 
L 550.8 60.48 
" style="fill:none;stroke:#000000;stroke-linecap:square;stroke-linejoin:miter;stroke-width:0.8;"/>
   </g>
   <g id="text_25">
    <!-- leuven: img1-img2 -->
    <defs>
     <path d="M 9.421875 75.984375 
L 18.40625 75.984375 
L 18.40625 0 
L 9.421875 0 
z
" id="DejaVuSans-108"/>
     <path d="M 8.5 21.578125 
L 8.5 54.6875 
L 17.484375 54.6875 
L 17.484375 21.921875 
Q 17.484375 14.15625 20.5 10.265625 
Q 23.53125 6.390625 29.59375 6.390625 
Q 36.859375 6.390625 41.078125 11.03125 
Q 45.3125 15.671875 45.3125 23.6875 
L 45.3125 54.6875 
L 54.296875 54.6875 
L 54.296875 0 
L 45.3125 0 
L 45.3125 8.40625 
Q 42.046875 3.421875 37.71875 1 
Q 33.40625 -1.421875 27.6875 -1.421875 
Q 18.265625 -1.421875 13.375 4.4375 
Q 8.5 10.296875 8.5 21.578125 
z
M 31.109375 56 
z
" id="DejaVuSans-117"/>
     <path d="M 2.984375 54.6875 
L 12.5 54.6875 
L 29.59375 8.796875 
L 46.6875 54.6875 
L 56.203125 54.6875 
L 35.6875 0 
L 23.484375 0 
z
" id="DejaVuSans-118"/>
     <path d="M 11.71875 12.40625 
L 22.015625 12.40625 
L 22.015625 0 
L 11.71875 0 
z
M 11.71875 51.703125 
L 22.015625 51.703125 
L 22.015625 39.3125 
L 11.71875 39.3125 
z
" id="DejaVuSans-58"/>
     <path id="DejaVuSans-32"/>
     <path d="M 52 44.1875 
Q 55.375 50.25 60.0625 53.125 
Q 64.75 56 71.09375 56 
Q 79.640625 56 84.28125 50.015625 
Q 88.921875 44.046875 88.921875 33.015625 
L 88.921875 0 
L 79.890625 0 
L 79.890625 32.71875 
Q 79.890625 40.578125 77.09375 44.375 
Q 74.3125 48.1875 68.609375 48.1875 
Q 61.625 48.1875 57.5625 43.546875 
Q 53.515625 38.921875 53.515625 30.90625 
L 53.515625 0 
L 44.484375 0 
L 44.484375 32.71875 
Q 44.484375 40.625 41.703125 44.40625 
Q 38.921875 48.1875 33.109375 48.1875 
Q 26.21875 48.1875 22.15625 43.53125 
Q 18.109375 38.875 18.109375 30.90625 
L 18.109375 0 
L 9.078125 0 
L 9.078125 54.6875 
L 18.109375 54.6875 
L 18.109375 46.1875 
Q 21.1875 51.21875 25.484375 53.609375 
Q 29.78125 56 35.6875 56 
Q 41.65625 56 45.828125 52.96875 
Q 50 49.953125 52 44.1875 
z
" id="DejaVuSans-109"/>
     <path d="M 45.40625 27.984375 
Q 45.40625 37.75 41.375 43.109375 
Q 37.359375 48.484375 30.078125 48.484375 
Q 22.859375 48.484375 18.828125 43.109375 
Q 14.796875 37.75 14.796875 27.984375 
Q 14.796875 18.265625 18.828125 12.890625 
Q 22.859375 7.515625 30.078125 7.515625 
Q 37.359375 7.515625 41.375 12.890625 
Q 45.40625 18.265625 45.40625 27.984375 
z
M 54.390625 6.78125 
Q 54.390625 -7.171875 48.1875 -13.984375 
Q 42 -20.796875 29.203125 -20.796875 
Q 24.46875 -20.796875 20.265625 -20.09375 
Q 16.0625 -19.390625 12.109375 -17.921875 
L 12.109375 -9.1875 
Q 16.0625 -11.328125 19.921875 -12.34375 
Q 23.78125 -13.375 27.78125 -13.375 
Q 36.625 -13.375 41.015625 -8.765625 
Q 45.40625 -4.15625 45.40625 5.171875 
L 45.40625 9.625 
Q 42.625 4.78125 38.28125 2.390625 
Q 33.9375 0 27.875 0 
Q 17.828125 0 11.671875 7.65625 
Q 5.515625 15.328125 5.515625 27.984375 
Q 5.515625 40.671875 11.671875 48.328125 
Q 17.828125 56 27.875 56 
Q 33.9375 56 38.28125 53.609375 
Q 42.625 51.21875 45.40625 46.390625 
L 45.40625 54.6875 
L 54.390625 54.6875 
z
" id="DejaVuSans-103"/>
    </defs>
    <g transform="translate(257.074688 41.042625)scale(0.12 -0.12)">
     <use xlink:href="#DejaVuSans-108"/>
     <use x="27.783203" xlink:href="#DejaVuSans-101"/>
     <use x="89.306641" xlink:href="#DejaVuSans-117"/>
     <use x="152.685547" xlink:href="#DejaVuSans-118"/>
     <use x="211.865234" xlink:href="#DejaVuSans-101"/>
     <use x="273.388672" xlink:href="#DejaVuSans-110"/>
     <use x="336.767578" xlink:href="#DejaVuSans-58"/>
     <use x="370.458984" xlink:href="#DejaVuSans-32"/>
     <use x="402.246094" xlink:href="#DejaVuSans-105"/>
     <use x="430.029297" xlink:href="#DejaVuSans-109"/>
     <use x="527.441406" xlink:href="#DejaVuSans-103"/>
     <use x="590.917969" xlink:href="#DejaVuSans-49"/>
     <use x="654.541016" xlink:href="#DejaVuSans-45"/>
     <use x="690.625" xlink:href="#DejaVuSans-105"/>
     <use x="718.408203" xlink:href="#DejaVuSans-109"/>
     <use x="815.820312" xlink:href="#DejaVuSans-103"/>
     <use x="879.296875" xlink:href="#DejaVuSans-50"/>
    </g>
    <!-- NearestNeighbours -->
    <defs>
     <path d="M 9.8125 72.90625 
L 23.09375 72.90625 
L 55.421875 11.921875 
L 55.421875 72.90625 
L 64.984375 72.90625 
L 64.984375 0 
L 51.703125 0 
L 19.390625 60.984375 
L 19.390625 0 
L 9.8125 0 
z
" id="DejaVuSans-78"/>
     <path d="M 34.28125 27.484375 
Q 23.390625 27.484375 19.1875 25 
Q 14.984375 22.515625 14.984375 16.5 
Q 14.984375 11.71875 18.140625 8.90625 
Q 21.296875 6.109375 26.703125 6.109375 
Q 34.1875 6.109375 38.703125 11.40625 
Q 43.21875 16.703125 43.21875 25.484375 
L 43.21875 27.484375 
z
M 52.203125 31.203125 
L 52.203125 0 
L 43.21875 0 
L 43.21875 8.296875 
Q 40.140625 3.328125 35.546875 0.953125 
Q 30.953125 -1.421875 24.3125 -1.421875 
Q 15.921875 -1.421875 10.953125 3.296875 
Q 6 8.015625 6 15.921875 
Q 6 25.140625 12.171875 29.828125 
Q 18.359375 34.515625 30.609375 34.515625 
L 43.21875 34.515625 
L 43.21875 35.40625 
Q 43.21875 41.609375 39.140625 45 
Q 35.0625 48.390625 27.6875 48.390625 
Q 23 48.390625 18.546875 47.265625 
Q 14.109375 46.140625 10.015625 43.890625 
L 10.015625 52.203125 
Q 14.9375 54.109375 19.578125 55.046875 
Q 24.21875 56 28.609375 56 
Q 40.484375 56 46.34375 49.84375 
Q 52.203125 43.703125 52.203125 31.203125 
z
" id="DejaVuSans-97"/>
     <path d="M 54.890625 33.015625 
L 54.890625 0 
L 45.90625 0 
L 45.90625 32.71875 
Q 45.90625 40.484375 42.875 44.328125 
Q 39.84375 48.1875 33.796875 48.1875 
Q 26.515625 48.1875 22.3125 43.546875 
Q 18.109375 38.921875 18.109375 30.90625 
L 18.109375 0 
L 9.078125 0 
L 9.078125 75.984375 
L 18.109375 75.984375 
L 18.109375 46.1875 
Q 21.34375 51.125 25.703125 53.5625 
Q 30.078125 56 35.796875 56 
Q 45.21875 56 50.046875 50.171875 
Q 54.890625 44.34375 54.890625 33.015625 
z
" id="DejaVuSans-104"/>
     <path d="M 48.6875 27.296875 
Q 48.6875 37.203125 44.609375 42.84375 
Q 40.53125 48.484375 33.40625 48.484375 
Q 26.265625 48.484375 22.1875 42.84375 
Q 18.109375 37.203125 18.109375 27.296875 
Q 18.109375 17.390625 22.1875 11.75 
Q 26.265625 6.109375 33.40625 6.109375 
Q 40.53125 6.109375 44.609375 11.75 
Q 48.6875 17.390625 48.6875 27.296875 
z
M 18.109375 46.390625 
Q 20.953125 51.265625 25.265625 53.625 
Q 29.59375 56 35.59375 56 
Q 45.5625 56 51.78125 48.09375 
Q 58.015625 40.1875 58.015625 27.296875 
Q 58.015625 14.40625 51.78125 6.484375 
Q 45.5625 -1.421875 35.59375 -1.421875 
Q 29.59375 -1.421875 25.265625 0.953125 
Q 20.953125 3.328125 18.109375 8.203125 
L 18.109375 0 
L 9.078125 0 
L 9.078125 75.984375 
L 18.109375 75.984375 
z
" id="DejaVuSans-98"/>
    </defs>
    <g transform="translate(255.957188 54.48)scale(0.12 -0.12)">
     <use xlink:href="#DejaVuSans-78"/>
     <use x="74.804688" xlink:href="#DejaVuSans-101"/>
     <use x="136.328125" xlink:href="#DejaVuSans-97"/>
     <use x="197.607422" xlink:href="#DejaVuSans-114"/>
     <use x="236.470703" xlink:href="#DejaVuSans-101"/>
     <use x="297.994141" xlink:href="#DejaVuSans-115"/>
     <use x="350.09375" xlink:href="#DejaVuSans-116"/>
     <use x="389.302734" xlink:href="#DejaVuSans-78"/>
     <use x="464.107422" xlink:href="#DejaVuSans-101"/>
     <use x="525.630859" xlink:href="#DejaVuSans-105"/>
     <use x="553.414062" xlink:href="#DejaVuSans-103"/>
     <use x="616.890625" xlink:href="#DejaVuSans-104"/>
     <use x="680.269531" xlink:href="#DejaVuSans-98"/>
     <use x="743.746094" xlink:href="#DejaVuSans-111"/>
     <use x="804.927734" xlink:href="#DejaVuSans-117"/>
     <use x="868.306641" xlink:href="#DejaVuSans-114"/>
     <use x="909.419922" xlink:href="#DejaVuSans-115"/>
    </g>
   </g>
   <g id="legend_1">
    <g id="patch_7">
     <path d="M 362.659375 141.870625 
L 543.8 141.870625 
Q 545.8 141.870625 545.8 139.870625 
L 545.8 67.48 
Q 545.8 65.48 543.8 65.48 
L 362.659375 65.48 
Q 360.659375 65.48 360.659375 67.48 
L 360.659375 139.870625 
Q 360.659375 141.870625 362.659375 141.870625 
z
" style="fill:#ffffff;opacity:0.8;stroke:#cccccc;stroke-linejoin:miter;"/>
    </g>
    <g id="line2d_50">
     <path d="M 364.659375 73.578438 
L 384.659375 73.578438 
" style="fill:none;stroke:#1f77b4;stroke-linecap:square;stroke-width:2;"/>
    </g>
    <g id="line2d_51"/>
    <g id="text_26">
     <!-- root-cvsift AP: 96.9, %In: 58.8 -->
     <defs>
      <path d="M 37.109375 75.984375 
L 37.109375 68.5 
L 28.515625 68.5 
Q 23.6875 68.5 21.796875 66.546875 
Q 19.921875 64.59375 19.921875 59.515625 
L 19.921875 54.6875 
L 34.71875 54.6875 
L 34.71875 47.703125 
L 19.921875 47.703125 
L 19.921875 0 
L 10.890625 0 
L 10.890625 47.703125 
L 2.296875 47.703125 
L 2.296875 54.6875 
L 10.890625 54.6875 
L 10.890625 58.5 
Q 10.890625 67.625 15.140625 71.796875 
Q 19.390625 75.984375 28.609375 75.984375 
z
" id="DejaVuSans-102"/>
      <path d="M 34.1875 63.1875 
L 20.796875 26.90625 
L 47.609375 26.90625 
z
M 28.609375 72.90625 
L 39.796875 72.90625 
L 67.578125 0 
L 57.328125 0 
L 50.6875 18.703125 
L 17.828125 18.703125 
L 11.1875 0 
L 0.78125 0 
z
" id="DejaVuSans-65"/>
      <path d="M 19.671875 64.796875 
L 19.671875 37.40625 
L 32.078125 37.40625 
Q 38.96875 37.40625 42.71875 40.96875 
Q 46.484375 44.53125 46.484375 51.125 
Q 46.484375 57.671875 42.71875 61.234375 
Q 38.96875 64.796875 32.078125 64.796875 
z
M 9.8125 72.90625 
L 32.078125 72.90625 
Q 44.34375 72.90625 50.609375 67.359375 
Q 56.890625 61.8125 56.890625 51.125 
Q 56.890625 40.328125 50.609375 34.8125 
Q 44.34375 29.296875 32.078125 29.296875 
L 19.671875 29.296875 
L 19.671875 0 
L 9.8125 0 
z
" id="DejaVuSans-80"/>
      <path d="M 11.71875 12.40625 
L 22.015625 12.40625 
L 22.015625 4 
L 14.015625 -11.625 
L 7.71875 -11.625 
L 11.71875 4 
z
" id="DejaVuSans-44"/>
      <path d="M 72.703125 32.078125 
Q 68.453125 32.078125 66.03125 28.46875 
Q 63.625 24.859375 63.625 18.40625 
Q 63.625 12.0625 66.03125 8.421875 
Q 68.453125 4.78125 72.703125 4.78125 
Q 76.859375 4.78125 79.265625 8.421875 
Q 81.6875 12.0625 81.6875 18.40625 
Q 81.6875 24.8125 79.265625 28.4375 
Q 76.859375 32.078125 72.703125 32.078125 
z
M 72.703125 38.28125 
Q 80.421875 38.28125 84.953125 32.90625 
Q 89.5 27.546875 89.5 18.40625 
Q 89.5 9.28125 84.9375 3.921875 
Q 80.375 -1.421875 72.703125 -1.421875 
Q 64.890625 -1.421875 60.34375 3.921875 
Q 55.8125 9.28125 55.8125 18.40625 
Q 55.8125 27.59375 60.375 32.9375 
Q 64.9375 38.28125 72.703125 38.28125 
z
M 22.3125 68.015625 
Q 18.109375 68.015625 15.6875 64.375 
Q 13.28125 60.75 13.28125 54.390625 
Q 13.28125 47.953125 15.671875 44.328125 
Q 18.0625 40.71875 22.3125 40.71875 
Q 26.5625 40.71875 28.96875 44.328125 
Q 31.390625 47.953125 31.390625 54.390625 
Q 31.390625 60.6875 28.953125 64.34375 
Q 26.515625 68.015625 22.3125 68.015625 
z
M 66.40625 74.21875 
L 74.21875 74.21875 
L 28.609375 -1.421875 
L 20.796875 -1.421875 
z
M 22.3125 74.21875 
Q 30.03125 74.21875 34.609375 68.875 
Q 39.203125 63.53125 39.203125 54.390625 
Q 39.203125 45.171875 34.640625 39.84375 
Q 30.078125 34.515625 22.3125 34.515625 
Q 14.546875 34.515625 10.03125 39.859375 
Q 5.515625 45.21875 5.515625 54.390625 
Q 5.515625 63.484375 10.046875 68.84375 
Q 14.59375 74.21875 22.3125 74.21875 
z
" id="DejaVuSans-37"/>
      <path d="M 9.8125 72.90625 
L 19.671875 72.90625 
L 19.671875 0 
L 9.8125 0 
z
" id="DejaVuSans-73"/>
     </defs>
     <g transform="translate(392.659375 77.078438)scale(0.1 -0.1)">
      <use xlink:href="#DejaVuSans-114"/>
      <use x="38.863281" xlink:href="#DejaVuSans-111"/>
      <use x="100.044922" xlink:href="#DejaVuSans-111"/>
      <use x="161.226562" xlink:href="#DejaVuSans-116"/>
      <use x="200.435547" xlink:href="#DejaVuSans-45"/>
      <use x="236.519531" xlink:href="#DejaVuSans-99"/>
      <use x="291.5" xlink:href="#DejaVuSans-118"/>
      <use x="350.679688" xlink:href="#DejaVuSans-115"/>
      <use x="402.779297" xlink:href="#DejaVuSans-105"/>
      <use x="430.5625" xlink:href="#DejaVuSans-102"/>
      <use x="464.017578" xlink:href="#DejaVuSans-116"/>
      <use x="503.226562" xlink:href="#DejaVuSans-32"/>
      <use x="535.013672" xlink:href="#DejaVuSans-65"/>
      <use x="603.421875" xlink:href="#DejaVuSans-80"/>
      <use x="663.724609" xlink:href="#DejaVuSans-58"/>
      <use x="697.416016" xlink:href="#DejaVuSans-32"/>
      <use x="729.203125" xlink:href="#DejaVuSans-57"/>
      <use x="792.826172" xlink:href="#DejaVuSans-54"/>
      <use x="856.449219" xlink:href="#DejaVuSans-46"/>
      <use x="888.236328" xlink:href="#DejaVuSans-57"/>
      <use x="951.859375" xlink:href="#DejaVuSans-44"/>
      <use x="983.646484" xlink:href="#DejaVuSans-32"/>
      <use x="1015.433594" xlink:href="#DejaVuSans-37"/>
      <use x="1110.453125" xlink:href="#DejaVuSans-73"/>
      <use x="1139.945312" xlink:href="#DejaVuSans-110"/>
      <use x="1203.324219" xlink:href="#DejaVuSans-58"/>
      <use x="1237.015625" xlink:href="#DejaVuSans-32"/>
      <use x="1268.802734" xlink:href="#DejaVuSans-53"/>
      <use x="1332.425781" xlink:href="#DejaVuSans-56"/>
      <use x="1396.048828" xlink:href="#DejaVuSans-46"/>
      <use x="1427.835938" xlink:href="#DejaVuSans-56"/>
     </g>
    </g>
    <g id="line2d_52">
     <path d="M 364.659375 88.256563 
L 384.659375 88.256563 
" style="fill:none;stroke:#ff7f0e;stroke-linecap:square;stroke-width:2;"/>
    </g>
    <g id="line2d_53"/>
    <g id="text_27">
     <!-- orb AP: 93.9, %In: 57.1 -->
     <g transform="translate(392.659375 91.756563)scale(0.1 -0.1)">
      <use xlink:href="#DejaVuSans-111"/>
      <use x="61.181641" xlink:href="#DejaVuSans-114"/>
      <use x="102.294922" xlink:href="#DejaVuSans-98"/>
      <use x="165.771484" xlink:href="#DejaVuSans-32"/>
      <use x="197.558594" xlink:href="#DejaVuSans-65"/>
      <use x="265.966797" xlink:href="#DejaVuSans-80"/>
      <use x="326.269531" xlink:href="#DejaVuSans-58"/>
      <use x="359.960938" xlink:href="#DejaVuSans-32"/>
      <use x="391.748047" xlink:href="#DejaVuSans-57"/>
      <use x="455.371094" xlink:href="#DejaVuSans-51"/>
      <use x="518.994141" xlink:href="#DejaVuSans-46"/>
      <use x="550.78125" xlink:href="#DejaVuSans-57"/>
      <use x="614.404297" xlink:href="#DejaVuSans-44"/>
      <use x="646.191406" xlink:href="#DejaVuSans-32"/>
      <use x="677.978516" xlink:href="#DejaVuSans-37"/>
      <use x="772.998047" xlink:href="#DejaVuSans-73"/>
      <use x="802.490234" xlink:href="#DejaVuSans-110"/>
      <use x="865.869141" xlink:href="#DejaVuSans-58"/>
      <use x="899.560547" xlink:href="#DejaVuSans-32"/>
      <use x="931.347656" xlink:href="#DejaVuSans-53"/>
      <use x="994.970703" xlink:href="#DejaVuSans-55"/>
      <use x="1058.59375" xlink:href="#DejaVuSans-46"/>
      <use x="1090.380859" xlink:href="#DejaVuSans-49"/>
     </g>
    </g>
    <g id="line2d_54">
     <path d="M 364.659375 102.934687 
L 384.659375 102.934687 
" style="fill:none;stroke:#2ca02c;stroke-linecap:square;stroke-width:2;"/>
    </g>
    <g id="line2d_55"/>
    <g id="text_28">
     <!-- binboost AP: 90.3, %In: 57.2 -->
     <g transform="translate(392.659375 106.434687)scale(0.1 -0.1)">
      <use xlink:href="#DejaVuSans-98"/>
      <use x="63.476562" xlink:href="#DejaVuSans-105"/>
      <use x="91.259766" xlink:href="#DejaVuSans-110"/>
      <use x="154.638672" xlink:href="#DejaVuSans-98"/>
      <use x="218.115234" xlink:href="#DejaVuSans-111"/>
      <use x="279.296875" xlink:href="#DejaVuSans-111"/>
      <use x="340.478516" xlink:href="#DejaVuSans-115"/>
      <use x="392.578125" xlink:href="#DejaVuSans-116"/>
      <use x="431.787109" xlink:href="#DejaVuSans-32"/>
      <use x="463.574219" xlink:href="#DejaVuSans-65"/>
      <use x="531.982422" xlink:href="#DejaVuSans-80"/>
      <use x="592.285156" xlink:href="#DejaVuSans-58"/>
      <use x="625.976562" xlink:href="#DejaVuSans-32"/>
      <use x="657.763672" xlink:href="#DejaVuSans-57"/>
      <use x="721.386719" xlink:href="#DejaVuSans-48"/>
      <use x="785.009766" xlink:href="#DejaVuSans-46"/>
      <use x="816.796875" xlink:href="#DejaVuSans-51"/>
      <use x="880.419922" xlink:href="#DejaVuSans-44"/>
      <use x="912.207031" xlink:href="#DejaVuSans-32"/>
      <use x="943.994141" xlink:href="#DejaVuSans-37"/>
      <use x="1039.013672" xlink:href="#DejaVuSans-73"/>
      <use x="1068.505859" xlink:href="#DejaVuSans-110"/>
      <use x="1131.884766" xlink:href="#DejaVuSans-58"/>
      <use x="1165.576172" xlink:href="#DejaVuSans-32"/>
      <use x="1197.363281" xlink:href="#DejaVuSans-53"/>
      <use x="1260.986328" xlink:href="#DejaVuSans-55"/>
      <use x="1324.609375" xlink:href="#DejaVuSans-46"/>
      <use x="1356.396484" xlink:href="#DejaVuSans-50"/>
     </g>
    </g>
    <g id="line2d_56">
     <path d="M 364.659375 117.612813 
L 384.659375 117.612813 
" style="fill:none;stroke:#d62728;stroke-linecap:square;stroke-width:2;"/>
    </g>
    <g id="line2d_57"/>
    <g id="text_29">
     <!-- tfeat AP: 93.8, %In: 58.5 -->
     <g transform="translate(392.659375 121.112813)scale(0.1 -0.1)">
      <use xlink:href="#DejaVuSans-116"/>
      <use x="39.208984" xlink:href="#DejaVuSans-102"/>
      <use x="74.414062" xlink:href="#DejaVuSans-101"/>
      <use x="135.9375" xlink:href="#DejaVuSans-97"/>
      <use x="197.216797" xlink:href="#DejaVuSans-116"/>
      <use x="236.425781" xlink:href="#DejaVuSans-32"/>
      <use x="268.212891" xlink:href="#DejaVuSans-65"/>
      <use x="336.621094" xlink:href="#DejaVuSans-80"/>
      <use x="396.923828" xlink:href="#DejaVuSans-58"/>
      <use x="430.615234" xlink:href="#DejaVuSans-32"/>
      <use x="462.402344" xlink:href="#DejaVuSans-57"/>
      <use x="526.025391" xlink:href="#DejaVuSans-51"/>
      <use x="589.648438" xlink:href="#DejaVuSans-46"/>
      <use x="621.435547" xlink:href="#DejaVuSans-56"/>
      <use x="685.058594" xlink:href="#DejaVuSans-44"/>
      <use x="716.845703" xlink:href="#DejaVuSans-32"/>
      <use x="748.632812" xlink:href="#DejaVuSans-37"/>
      <use x="843.652344" xlink:href="#DejaVuSans-73"/>
      <use x="873.144531" xlink:href="#DejaVuSans-110"/>
      <use x="936.523438" xlink:href="#DejaVuSans-58"/>
      <use x="970.214844" xlink:href="#DejaVuSans-32"/>
      <use x="1002.001953" xlink:href="#DejaVuSans-53"/>
      <use x="1065.625" xlink:href="#DejaVuSans-56"/>
      <use x="1129.248047" xlink:href="#DejaVuSans-46"/>
      <use x="1161.035156" xlink:href="#DejaVuSans-53"/>
     </g>
    </g>
    <g id="line2d_58">
     <path d="M 364.659375 132.290938 
L 384.659375 132.290938 
" style="fill:none;stroke:#9467bd;stroke-linecap:square;stroke-width:2;"/>
    </g>
    <g id="line2d_59"/>
    <g id="text_30">
     <!-- hardnet AP: 99.0, %In: 60.1 -->
     <defs>
      <path d="M 45.40625 46.390625 
L 45.40625 75.984375 
L 54.390625 75.984375 
L 54.390625 0 
L 45.40625 0 
L 45.40625 8.203125 
Q 42.578125 3.328125 38.25 0.953125 
Q 33.9375 -1.421875 27.875 -1.421875 
Q 17.96875 -1.421875 11.734375 6.484375 
Q 5.515625 14.40625 5.515625 27.296875 
Q 5.515625 40.1875 11.734375 48.09375 
Q 17.96875 56 27.875 56 
Q 33.9375 56 38.25 53.625 
Q 42.578125 51.265625 45.40625 46.390625 
z
M 14.796875 27.296875 
Q 14.796875 17.390625 18.875 11.75 
Q 22.953125 6.109375 30.078125 6.109375 
Q 37.203125 6.109375 41.296875 11.75 
Q 45.40625 17.390625 45.40625 27.296875 
Q 45.40625 37.203125 41.296875 42.84375 
Q 37.203125 48.484375 30.078125 48.484375 
Q 22.953125 48.484375 18.875 42.84375 
Q 14.796875 37.203125 14.796875 27.296875 
z
" id="DejaVuSans-100"/>
     </defs>
     <g transform="translate(392.659375 135.790938)scale(0.1 -0.1)">
      <use xlink:href="#DejaVuSans-104"/>
      <use x="63.378906" xlink:href="#DejaVuSans-97"/>
      <use x="124.658203" xlink:href="#DejaVuSans-114"/>
      <use x="164.021484" xlink:href="#DejaVuSans-100"/>
      <use x="227.498047" xlink:href="#DejaVuSans-110"/>
      <use x="290.876953" xlink:href="#DejaVuSans-101"/>
      <use x="352.400391" xlink:href="#DejaVuSans-116"/>
      <use x="391.609375" xlink:href="#DejaVuSans-32"/>
      <use x="423.396484" xlink:href="#DejaVuSans-65"/>
      <use x="491.804688" xlink:href="#DejaVuSans-80"/>
      <use x="552.107422" xlink:href="#DejaVuSans-58"/>
      <use x="585.798828" xlink:href="#DejaVuSans-32"/>
      <use x="617.585938" xlink:href="#DejaVuSans-57"/>
      <use x="681.208984" xlink:href="#DejaVuSans-57"/>
      <use x="744.832031" xlink:href="#DejaVuSans-46"/>
      <use x="776.619141" xlink:href="#DejaVuSans-48"/>
      <use x="840.242188" xlink:href="#DejaVuSans-44"/>
      <use x="872.029297" xlink:href="#DejaVuSans-32"/>
      <use x="903.816406" xlink:href="#DejaVuSans-37"/>
      <use x="998.835938" xlink:href="#DejaVuSans-73"/>
      <use x="1028.328125" xlink:href="#DejaVuSans-110"/>
      <use x="1091.707031" xlink:href="#DejaVuSans-58"/>
      <use x="1125.398438" xlink:href="#DejaVuSans-32"/>
      <use x="1157.185547" xlink:href="#DejaVuSans-54"/>
      <use x="1220.808594" xlink:href="#DejaVuSans-48"/>
      <use x="1284.431641" xlink:href="#DejaVuSans-46"/>
      <use x="1316.21875" xlink:href="#DejaVuSans-49"/>
     </g>
    </g>
   </g>
  </g>
 </g>
 <defs>
  <clipPath id="pbb17e8fe93">
   <rect height="388.08" width="474.3" x="76.5" y="60.48"/>
  </clipPath>
 </defs>
</svg>
