<?xml version="1.0" encoding="utf-8" standalone="no"?>
<!DOCTYPE svg PUBLIC "-//W3C//DTD SVG 1.1//EN"
  "http://www.w3.org/Graphics/SVG/1.1/DTD/svg11.dtd">
<!-- Created with matplotlib (https://matplotlib.org/) -->
<svg height="504pt" version="1.1" viewBox="0 0 612 504" width="612pt" xmlns="http://www.w3.org/2000/svg" xmlns:xlink="http://www.w3.org/1999/xlink">
 <defs>
  <style type="text/css">
*{stroke-linecap:butt;stroke-linejoin:round;}
  </style>
 </defs>
 <g id="figure_1">
  <g id="patch_1">
   <path d="M 0 504 
L 612 504 
L 612 0 
L 0 0 
z
" style="fill:#ffffff;"/>
  </g>
  <g id="axes_1">
   <g id="patch_2">
    <path d="M 76.5 448.56 
L 550.8 448.56 
L 550.8 60.48 
L 76.5 60.48 
z
" style="fill:#ffffff;"/>
   </g>
   <g id="matplotlib.axis_1">
    <g id="xtick_1">
     <g id="line2d_1">
      <path clip-path="url(#p090d1868fa)" d="M 76.5 448.56 
L 76.5 60.48 
" style="fill:none;stroke:#b0b0b0;stroke-linecap:square;stroke-width:0.8;"/>
     </g>
     <g id="line2d_2">
      <defs>
       <path d="M 0 0 
L 0 3.5 
" id="m66e44f0d69" style="stroke:#000000;stroke-width:0.8;"/>
      </defs>
      <g>
       <use style="stroke:#000000;stroke-width:0.8;" x="76.5" xlink:href="#m66e44f0d69" y="448.56"/>
      </g>
     </g>
     <g id="text_1">
      <!-- 0.0 -->
      <defs>
       <path d="M 31.78125 66.40625 
Q 24.171875 66.40625 20.328125 58.90625 
Q 16.5 51.421875 16.5 36.375 
Q 16.5 21.390625 20.328125 13.890625 
Q 24.171875 6.390625 31.78125 6.390625 
Q 39.453125 6.390625 43.28125 13.890625 
Q 47.125 21.390625 47.125 36.375 
Q 47.125 51.421875 43.28125 58.90625 
Q 39.453125 66.40625 31.78125 66.40625 
z
M 31.78125 74.21875 
Q 44.046875 74.21875 50.515625 64.515625 
Q 56.984375 54.828125 56.984375 36.375 
Q 56.984375 17.96875 50.515625 8.265625 
Q 44.046875 -1.421875 31.78125 -1.421875 
Q 19.53125 -1.421875 13.0625 8.265625 
Q 6.59375 17.96875 6.59375 36.375 
Q 6.59375 54.828125 13.0625 64.515625 
Q 19.53125 74.21875 31.78125 74.21875 
z
" id="DejaVuSans-48"/>
       <path d="M 10.6875 12.40625 
L 21 12.40625 
L 21 0 
L 10.6875 0 
z
" id="DejaVuSans-46"/>
      </defs>
      <g transform="translate(68.548438 463.158437)scale(0.1 -0.1)">
       <use xlink:href="#DejaVuSans-48"/>
       <use x="63.623047" xlink:href="#DejaVuSans-46"/>
       <use x="95.410156" xlink:href="#DejaVuSans-48"/>
      </g>
     </g>
    </g>
    <g id="xtick_2">
     <g id="line2d_3">
      <path clip-path="url(#p090d1868fa)" d="M 123.93 448.56 
L 123.93 60.48 
" style="fill:none;stroke:#b0b0b0;stroke-linecap:square;stroke-width:0.8;"/>
     </g>
     <g id="line2d_4">
      <g>
       <use style="stroke:#000000;stroke-width:0.8;" x="123.93" xlink:href="#m66e44f0d69" y="448.56"/>
      </g>
     </g>
     <g id="text_2">
      <!-- 0.1 -->
      <defs>
       <path d="M 12.40625 8.296875 
L 28.515625 8.296875 
L 28.515625 63.921875 
L 10.984375 60.40625 
L 10.984375 69.390625 
L 28.421875 72.90625 
L 38.28125 72.90625 
L 38.28125 8.296875 
L 54.390625 8.296875 
L 54.390625 0 
L 12.40625 0 
z
" id="DejaVuSans-49"/>
      </defs>
      <g transform="translate(115.978438 463.158437)scale(0.1 -0.1)">
       <use xlink:href="#DejaVuSans-48"/>
       <use x="63.623047" xlink:href="#DejaVuSans-46"/>
       <use x="95.410156" xlink:href="#DejaVuSans-49"/>
      </g>
     </g>
    </g>
    <g id="xtick_3">
     <g id="line2d_5">
      <path clip-path="url(#p090d1868fa)" d="M 171.36 448.56 
L 171.36 60.48 
" style="fill:none;stroke:#b0b0b0;stroke-linecap:square;stroke-width:0.8;"/>
     </g>
     <g id="line2d_6">
      <g>
       <use style="stroke:#000000;stroke-width:0.8;" x="171.36" xlink:href="#m66e44f0d69" y="448.56"/>
      </g>
     </g>
     <g id="text_3">
      <!-- 0.2 -->
      <defs>
       <path d="M 19.1875 8.296875 
L 53.609375 8.296875 
L 53.609375 0 
L 7.328125 0 
L 7.328125 8.296875 
Q 12.9375 14.109375 22.625 23.890625 
Q 32.328125 33.6875 34.8125 36.53125 
Q 39.546875 41.84375 41.421875 45.53125 
Q 43.3125 49.21875 43.3125 52.78125 
Q 43.3125 58.59375 39.234375 62.25 
Q 35.15625 65.921875 28.609375 65.921875 
Q 23.96875 65.921875 18.8125 64.3125 
Q 13.671875 62.703125 7.8125 59.421875 
L 7.8125 69.390625 
Q 13.765625 71.78125 18.9375 73 
Q 24.125 74.21875 28.421875 74.21875 
Q 39.75 74.21875 46.484375 68.546875 
Q 53.21875 62.890625 53.21875 53.421875 
Q 53.21875 48.921875 51.53125 44.890625 
Q 49.859375 40.875 45.40625 35.40625 
Q 44.1875 33.984375 37.640625 27.21875 
Q 31.109375 20.453125 19.1875 8.296875 
z
" id="DejaVuSans-50"/>
      </defs>
      <g transform="translate(163.408438 463.158437)scale(0.1 -0.1)">
       <use xlink:href="#DejaVuSans-48"/>
       <use x="63.623047" xlink:href="#DejaVuSans-46"/>
       <use x="95.410156" xlink:href="#DejaVuSans-50"/>
      </g>
     </g>
    </g>
    <g id="xtick_4">
     <g id="line2d_7">
      <path clip-path="url(#p090d1868fa)" d="M 218.79 448.56 
L 218.79 60.48 
" style="fill:none;stroke:#b0b0b0;stroke-linecap:square;stroke-width:0.8;"/>
     </g>
     <g id="line2d_8">
      <g>
       <use style="stroke:#000000;stroke-width:0.8;" x="218.79" xlink:href="#m66e44f0d69" y="448.56"/>
      </g>
     </g>
     <g id="text_4">
      <!-- 0.3 -->
      <defs>
       <path d="M 40.578125 39.3125 
Q 47.65625 37.796875 51.625 33 
Q 55.609375 28.21875 55.609375 21.1875 
Q 55.609375 10.40625 48.1875 4.484375 
Q 40.765625 -1.421875 27.09375 -1.421875 
Q 22.515625 -1.421875 17.65625 -0.515625 
Q 12.796875 0.390625 7.625 2.203125 
L 7.625 11.71875 
Q 11.71875 9.328125 16.59375 8.109375 
Q 21.484375 6.890625 26.8125 6.890625 
Q 36.078125 6.890625 40.9375 10.546875 
Q 45.796875 14.203125 45.796875 21.1875 
Q 45.796875 27.640625 41.28125 31.265625 
Q 36.765625 34.90625 28.71875 34.90625 
L 20.21875 34.90625 
L 20.21875 43.015625 
L 29.109375 43.015625 
Q 36.375 43.015625 40.234375 45.921875 
Q 44.09375 48.828125 44.09375 54.296875 
Q 44.09375 59.90625 40.109375 62.90625 
Q 36.140625 65.921875 28.71875 65.921875 
Q 24.65625 65.921875 20.015625 65.03125 
Q 15.375 64.15625 9.8125 62.3125 
L 9.8125 71.09375 
Q 15.4375 72.65625 20.34375 73.4375 
Q 25.25 74.21875 29.59375 74.21875 
Q 40.828125 74.21875 47.359375 69.109375 
Q 53.90625 64.015625 53.90625 55.328125 
Q 53.90625 49.265625 50.4375 45.09375 
Q 46.96875 40.921875 40.578125 39.3125 
z
" id="DejaVuSans-51"/>
      </defs>
      <g transform="translate(210.838438 463.158437)scale(0.1 -0.1)">
       <use xlink:href="#DejaVuSans-48"/>
       <use x="63.623047" xlink:href="#DejaVuSans-46"/>
       <use x="95.410156" xlink:href="#DejaVuSans-51"/>
      </g>
     </g>
    </g>
    <g id="xtick_5">
     <g id="line2d_9">
      <path clip-path="url(#p090d1868fa)" d="M 266.22 448.56 
L 266.22 60.48 
" style="fill:none;stroke:#b0b0b0;stroke-linecap:square;stroke-width:0.8;"/>
     </g>
     <g id="line2d_10">
      <g>
       <use style="stroke:#000000;stroke-width:0.8;" x="266.22" xlink:href="#m66e44f0d69" y="448.56"/>
      </g>
     </g>
     <g id="text_5">
      <!-- 0.4 -->
      <defs>
       <path d="M 37.796875 64.3125 
L 12.890625 25.390625 
L 37.796875 25.390625 
z
M 35.203125 72.90625 
L 47.609375 72.90625 
L 47.609375 25.390625 
L 58.015625 25.390625 
L 58.015625 17.1875 
L 47.609375 17.1875 
L 47.609375 0 
L 37.796875 0 
L 37.796875 17.1875 
L 4.890625 17.1875 
L 4.890625 26.703125 
z
" id="DejaVuSans-52"/>
      </defs>
      <g transform="translate(258.268438 463.158437)scale(0.1 -0.1)">
       <use xlink:href="#DejaVuSans-48"/>
       <use x="63.623047" xlink:href="#DejaVuSans-46"/>
       <use x="95.410156" xlink:href="#DejaVuSans-52"/>
      </g>
     </g>
    </g>
    <g id="xtick_6">
     <g id="line2d_11">
      <path clip-path="url(#p090d1868fa)" d="M 313.65 448.56 
L 313.65 60.48 
" style="fill:none;stroke:#b0b0b0;stroke-linecap:square;stroke-width:0.8;"/>
     </g>
     <g id="line2d_12">
      <g>
       <use style="stroke:#000000;stroke-width:0.8;" x="313.65" xlink:href="#m66e44f0d69" y="448.56"/>
      </g>
     </g>
     <g id="text_6">
      <!-- 0.5 -->
      <defs>
       <path d="M 10.796875 72.90625 
L 49.515625 72.90625 
L 49.515625 64.59375 
L 19.828125 64.59375 
L 19.828125 46.734375 
Q 21.96875 47.46875 24.109375 47.828125 
Q 26.265625 48.1875 28.421875 48.1875 
Q 40.625 48.1875 47.75 41.5 
Q 54.890625 34.8125 54.890625 23.390625 
Q 54.890625 11.625 47.5625 5.09375 
Q 40.234375 -1.421875 26.90625 -1.421875 
Q 22.3125 -1.421875 17.546875 -0.640625 
Q 12.796875 0.140625 7.71875 1.703125 
L 7.71875 11.625 
Q 12.109375 9.234375 16.796875 8.0625 
Q 21.484375 6.890625 26.703125 6.890625 
Q 35.15625 6.890625 40.078125 11.328125 
Q 45.015625 15.765625 45.015625 23.390625 
Q 45.015625 31 40.078125 35.4375 
Q 35.15625 39.890625 26.703125 39.890625 
Q 22.75 39.890625 18.8125 39.015625 
Q 14.890625 38.140625 10.796875 36.28125 
z
" id="DejaVuSans-53"/>
      </defs>
      <g transform="translate(305.698438 463.158437)scale(0.1 -0.1)">
       <use xlink:href="#DejaVuSans-48"/>
       <use x="63.623047" xlink:href="#DejaVuSans-46"/>
       <use x="95.410156" xlink:href="#DejaVuSans-53"/>
      </g>
     </g>
    </g>
    <g id="xtick_7">
     <g id="line2d_13">
      <path clip-path="url(#p090d1868fa)" d="M 361.08 448.56 
L 361.08 60.48 
" style="fill:none;stroke:#b0b0b0;stroke-linecap:square;stroke-width:0.8;"/>
     </g>
     <g id="line2d_14">
      <g>
       <use style="stroke:#000000;stroke-width:0.8;" x="361.08" xlink:href="#m66e44f0d69" y="448.56"/>
      </g>
     </g>
     <g id="text_7">
      <!-- 0.6 -->
      <defs>
       <path d="M 33.015625 40.375 
Q 26.375 40.375 22.484375 35.828125 
Q 18.609375 31.296875 18.609375 23.390625 
Q 18.609375 15.53125 22.484375 10.953125 
Q 26.375 6.390625 33.015625 6.390625 
Q 39.65625 6.390625 43.53125 10.953125 
Q 47.40625 15.53125 47.40625 23.390625 
Q 47.40625 31.296875 43.53125 35.828125 
Q 39.65625 40.375 33.015625 40.375 
z
M 52.59375 71.296875 
L 52.59375 62.3125 
Q 48.875 64.0625 45.09375 64.984375 
Q 41.3125 65.921875 37.59375 65.921875 
Q 27.828125 65.921875 22.671875 59.328125 
Q 17.53125 52.734375 16.796875 39.40625 
Q 19.671875 43.65625 24.015625 45.921875 
Q 28.375 48.1875 33.59375 48.1875 
Q 44.578125 48.1875 50.953125 41.515625 
Q 57.328125 34.859375 57.328125 23.390625 
Q 57.328125 12.15625 50.6875 5.359375 
Q 44.046875 -1.421875 33.015625 -1.421875 
Q 20.359375 -1.421875 13.671875 8.265625 
Q 6.984375 17.96875 6.984375 36.375 
Q 6.984375 53.65625 15.1875 63.9375 
Q 23.390625 74.21875 37.203125 74.21875 
Q 40.921875 74.21875 44.703125 73.484375 
Q 48.484375 72.75 52.59375 71.296875 
z
" id="DejaVuSans-54"/>
      </defs>
      <g transform="translate(353.128438 463.158437)scale(0.1 -0.1)">
       <use xlink:href="#DejaVuSans-48"/>
       <use x="63.623047" xlink:href="#DejaVuSans-46"/>
       <use x="95.410156" xlink:href="#DejaVuSans-54"/>
      </g>
     </g>
    </g>
    <g id="xtick_8">
     <g id="line2d_15">
      <path clip-path="url(#p090d1868fa)" d="M 408.51 448.56 
L 408.51 60.48 
" style="fill:none;stroke:#b0b0b0;stroke-linecap:square;stroke-width:0.8;"/>
     </g>
     <g id="line2d_16">
      <g>
       <use style="stroke:#000000;stroke-width:0.8;" x="408.51" xlink:href="#m66e44f0d69" y="448.56"/>
      </g>
     </g>
     <g id="text_8">
      <!-- 0.7 -->
      <defs>
       <path d="M 8.203125 72.90625 
L 55.078125 72.90625 
L 55.078125 68.703125 
L 28.609375 0 
L 18.3125 0 
L 43.21875 64.59375 
L 8.203125 64.59375 
z
" id="DejaVuSans-55"/>
      </defs>
      <g transform="translate(400.558438 463.158437)scale(0.1 -0.1)">
       <use xlink:href="#DejaVuSans-48"/>
       <use x="63.623047" xlink:href="#DejaVuSans-46"/>
       <use x="95.410156" xlink:href="#DejaVuSans-55"/>
      </g>
     </g>
    </g>
    <g id="xtick_9">
     <g id="line2d_17">
      <path clip-path="url(#p090d1868fa)" d="M 455.94 448.56 
L 455.94 60.48 
" style="fill:none;stroke:#b0b0b0;stroke-linecap:square;stroke-width:0.8;"/>
     </g>
     <g id="line2d_18">
      <g>
       <use style="stroke:#000000;stroke-width:0.8;" x="455.94" xlink:href="#m66e44f0d69" y="448.56"/>
      </g>
     </g>
     <g id="text_9">
      <!-- 0.8 -->
      <defs>
       <path d="M 31.78125 34.625 
Q 24.75 34.625 20.71875 30.859375 
Q 16.703125 27.09375 16.703125 20.515625 
Q 16.703125 13.921875 20.71875 10.15625 
Q 24.75 6.390625 31.78125 6.390625 
Q 38.8125 6.390625 42.859375 10.171875 
Q 46.921875 13.96875 46.921875 20.515625 
Q 46.921875 27.09375 42.890625 30.859375 
Q 38.875 34.625 31.78125 34.625 
z
M 21.921875 38.8125 
Q 15.578125 40.375 12.03125 44.71875 
Q 8.5 49.078125 8.5 55.328125 
Q 8.5 64.0625 14.71875 69.140625 
Q 20.953125 74.21875 31.78125 74.21875 
Q 42.671875 74.21875 48.875 69.140625 
Q 55.078125 64.0625 55.078125 55.328125 
Q 55.078125 49.078125 51.53125 44.71875 
Q 48 40.375 41.703125 38.8125 
Q 48.828125 37.15625 52.796875 32.3125 
Q 56.78125 27.484375 56.78125 20.515625 
Q 56.78125 9.90625 50.3125 4.234375 
Q 43.84375 -1.421875 31.78125 -1.421875 
Q 19.734375 -1.421875 13.25 4.234375 
Q 6.78125 9.90625 6.78125 20.515625 
Q 6.78125 27.484375 10.78125 32.3125 
Q 14.796875 37.15625 21.921875 38.8125 
z
M 18.3125 54.390625 
Q 18.3125 48.734375 21.84375 45.5625 
Q 25.390625 42.390625 31.78125 42.390625 
Q 38.140625 42.390625 41.71875 45.5625 
Q 45.3125 48.734375 45.3125 54.390625 
Q 45.3125 60.0625 41.71875 63.234375 
Q 38.140625 66.40625 31.78125 66.40625 
Q 25.390625 66.40625 21.84375 63.234375 
Q 18.3125 60.0625 18.3125 54.390625 
z
" id="DejaVuSans-56"/>
      </defs>
      <g transform="translate(447.988438 463.158437)scale(0.1 -0.1)">
       <use xlink:href="#DejaVuSans-48"/>
       <use x="63.623047" xlink:href="#DejaVuSans-46"/>
       <use x="95.410156" xlink:href="#DejaVuSans-56"/>
      </g>
     </g>
    </g>
    <g id="xtick_10">
     <g id="line2d_19">
      <path clip-path="url(#p090d1868fa)" d="M 503.37 448.56 
L 503.37 60.48 
" style="fill:none;stroke:#b0b0b0;stroke-linecap:square;stroke-width:0.8;"/>
     </g>
     <g id="line2d_20">
      <g>
       <use style="stroke:#000000;stroke-width:0.8;" x="503.37" xlink:href="#m66e44f0d69" y="448.56"/>
      </g>
     </g>
     <g id="text_10">
      <!-- 0.9 -->
      <defs>
       <path d="M 10.984375 1.515625 
L 10.984375 10.5 
Q 14.703125 8.734375 18.5 7.8125 
Q 22.3125 6.890625 25.984375 6.890625 
Q 35.75 6.890625 40.890625 13.453125 
Q 46.046875 20.015625 46.78125 33.40625 
Q 43.953125 29.203125 39.59375 26.953125 
Q 35.25 24.703125 29.984375 24.703125 
Q 19.046875 24.703125 12.671875 31.3125 
Q 6.296875 37.9375 6.296875 49.421875 
Q 6.296875 60.640625 12.9375 67.421875 
Q 19.578125 74.21875 30.609375 74.21875 
Q 43.265625 74.21875 49.921875 64.515625 
Q 56.59375 54.828125 56.59375 36.375 
Q 56.59375 19.140625 48.40625 8.859375 
Q 40.234375 -1.421875 26.421875 -1.421875 
Q 22.703125 -1.421875 18.890625 -0.6875 
Q 15.09375 0.046875 10.984375 1.515625 
z
M 30.609375 32.421875 
Q 37.25 32.421875 41.125 36.953125 
Q 45.015625 41.5 45.015625 49.421875 
Q 45.015625 57.28125 41.125 61.84375 
Q 37.25 66.40625 30.609375 66.40625 
Q 23.96875 66.40625 20.09375 61.84375 
Q 16.21875 57.28125 16.21875 49.421875 
Q 16.21875 41.5 20.09375 36.953125 
Q 23.96875 32.421875 30.609375 32.421875 
z
" id="DejaVuSans-57"/>
      </defs>
      <g transform="translate(495.418438 463.158437)scale(0.1 -0.1)">
       <use xlink:href="#DejaVuSans-48"/>
       <use x="63.623047" xlink:href="#DejaVuSans-46"/>
       <use x="95.410156" xlink:href="#DejaVuSans-57"/>
      </g>
     </g>
    </g>
    <g id="xtick_11">
     <g id="line2d_21">
      <path clip-path="url(#p090d1868fa)" d="M 550.8 448.56 
L 550.8 60.48 
" style="fill:none;stroke:#b0b0b0;stroke-linecap:square;stroke-width:0.8;"/>
     </g>
     <g id="line2d_22">
      <g>
       <use style="stroke:#000000;stroke-width:0.8;" x="550.8" xlink:href="#m66e44f0d69" y="448.56"/>
      </g>
     </g>
     <g id="text_11">
      <!-- 1.0 -->
      <g transform="translate(542.848438 463.158437)scale(0.1 -0.1)">
       <use xlink:href="#DejaVuSans-49"/>
       <use x="63.623047" xlink:href="#DejaVuSans-46"/>
       <use x="95.410156" xlink:href="#DejaVuSans-48"/>
      </g>
     </g>
    </g>
    <g id="text_12">
     <!-- 1-precision -->
     <defs>
      <path d="M 4.890625 31.390625 
L 31.203125 31.390625 
L 31.203125 23.390625 
L 4.890625 23.390625 
z
" id="DejaVuSans-45"/>
      <path d="M 18.109375 8.203125 
L 18.109375 -20.796875 
L 9.078125 -20.796875 
L 9.078125 54.6875 
L 18.109375 54.6875 
L 18.109375 46.390625 
Q 20.953125 51.265625 25.265625 53.625 
Q 29.59375 56 35.59375 56 
Q 45.5625 56 51.78125 48.09375 
Q 58.015625 40.1875 58.015625 27.296875 
Q 58.015625 14.40625 51.78125 6.484375 
Q 45.5625 -1.421875 35.59375 -1.421875 
Q 29.59375 -1.421875 25.265625 0.953125 
Q 20.953125 3.328125 18.109375 8.203125 
z
M 48.6875 27.296875 
Q 48.6875 37.203125 44.609375 42.84375 
Q 40.53125 48.484375 33.40625 48.484375 
Q 26.265625 48.484375 22.1875 42.84375 
Q 18.109375 37.203125 18.109375 27.296875 
Q 18.109375 17.390625 22.1875 11.75 
Q 26.265625 6.109375 33.40625 6.109375 
Q 40.53125 6.109375 44.609375 11.75 
Q 48.6875 17.390625 48.6875 27.296875 
z
" id="DejaVuSans-112"/>
      <path d="M 41.109375 46.296875 
Q 39.59375 47.171875 37.8125 47.578125 
Q 36.03125 48 33.890625 48 
Q 26.265625 48 22.1875 43.046875 
Q 18.109375 38.09375 18.109375 28.8125 
L 18.109375 0 
L 9.078125 0 
L 9.078125 54.6875 
L 18.109375 54.6875 
L 18.109375 46.1875 
Q 20.953125 51.171875 25.484375 53.578125 
Q 30.03125 56 36.53125 56 
Q 37.453125 56 38.578125 55.875 
Q 39.703125 55.765625 41.0625 55.515625 
z
" id="DejaVuSans-114"/>
      <path d="M 56.203125 29.59375 
L 56.203125 25.203125 
L 14.890625 25.203125 
Q 15.484375 15.921875 20.484375 11.0625 
Q 25.484375 6.203125 34.421875 6.203125 
Q 39.59375 6.203125 44.453125 7.46875 
Q 49.3125 8.734375 54.109375 11.28125 
L 54.109375 2.78125 
Q 49.265625 0.734375 44.1875 -0.34375 
Q 39.109375 -1.421875 33.890625 -1.421875 
Q 20.796875 -1.421875 13.15625 6.1875 
Q 5.515625 13.8125 5.515625 26.8125 
Q 5.515625 40.234375 12.765625 48.109375 
Q 20.015625 56 32.328125 56 
Q 43.359375 56 49.78125 48.890625 
Q 56.203125 41.796875 56.203125 29.59375 
z
M 47.21875 32.234375 
Q 47.125 39.59375 43.09375 43.984375 
Q 39.0625 48.390625 32.421875 48.390625 
Q 24.90625 48.390625 20.390625 44.140625 
Q 15.875 39.890625 15.1875 32.171875 
z
" id="DejaVuSans-101"/>
      <path d="M 48.78125 52.59375 
L 48.78125 44.1875 
Q 44.96875 46.296875 41.140625 47.34375 
Q 37.3125 48.390625 33.40625 48.390625 
Q 24.65625 48.390625 19.8125 42.84375 
Q 14.984375 37.3125 14.984375 27.296875 
Q 14.984375 17.28125 19.8125 11.734375 
Q 24.65625 6.203125 33.40625 6.203125 
Q 37.3125 6.203125 41.140625 7.25 
Q 44.96875 8.296875 48.78125 10.40625 
L 48.78125 2.09375 
Q 45.015625 0.34375 40.984375 -0.53125 
Q 36.96875 -1.421875 32.421875 -1.421875 
Q 20.0625 -1.421875 12.78125 6.34375 
Q 5.515625 14.109375 5.515625 27.296875 
Q 5.515625 40.671875 12.859375 48.328125 
Q 20.21875 56 33.015625 56 
Q 37.15625 56 41.109375 55.140625 
Q 45.0625 54.296875 48.78125 52.59375 
z
" id="DejaVuSans-99"/>
      <path d="M 9.421875 54.6875 
L 18.40625 54.6875 
L 18.40625 0 
L 9.421875 0 
z
M 9.421875 75.984375 
L 18.40625 75.984375 
L 18.40625 64.59375 
L 9.421875 64.59375 
z
" id="DejaVuSans-105"/>
      <path d="M 44.28125 53.078125 
L 44.28125 44.578125 
Q 40.484375 46.53125 36.375 47.5 
Q 32.28125 48.484375 27.875 48.484375 
Q 21.1875 48.484375 17.84375 46.4375 
Q 14.5 44.390625 14.5 40.28125 
Q 14.5 37.15625 16.890625 35.375 
Q 19.28125 33.59375 26.515625 31.984375 
L 29.59375 31.296875 
Q 39.15625 29.25 43.1875 25.515625 
Q 47.21875 21.78125 47.21875 15.09375 
Q 47.21875 7.46875 41.1875 3.015625 
Q 35.15625 -1.421875 24.609375 -1.421875 
Q 20.21875 -1.421875 15.453125 -0.5625 
Q 10.6875 0.296875 5.421875 2 
L 5.421875 11.28125 
Q 10.40625 8.6875 15.234375 7.390625 
Q 20.0625 6.109375 24.8125 6.109375 
Q 31.15625 6.109375 34.5625 8.28125 
Q 37.984375 10.453125 37.984375 14.40625 
Q 37.984375 18.0625 35.515625 20.015625 
Q 33.0625 21.96875 24.703125 23.78125 
L 21.578125 24.515625 
Q 13.234375 26.265625 9.515625 29.90625 
Q 5.8125 33.546875 5.8125 39.890625 
Q 5.8125 47.609375 11.28125 51.796875 
Q 16.75 56 26.8125 56 
Q 31.78125 56 36.171875 55.265625 
Q 40.578125 54.546875 44.28125 53.078125 
z
" id="DejaVuSans-115"/>
      <path d="M 30.609375 48.390625 
Q 23.390625 48.390625 19.1875 42.75 
Q 14.984375 37.109375 14.984375 27.296875 
Q 14.984375 17.484375 19.15625 11.84375 
Q 23.34375 6.203125 30.609375 6.203125 
Q 37.796875 6.203125 41.984375 11.859375 
Q 46.1875 17.53125 46.1875 27.296875 
Q 46.1875 37.015625 41.984375 42.703125 
Q 37.796875 48.390625 30.609375 48.390625 
z
M 30.609375 56 
Q 42.328125 56 49.015625 48.375 
Q 55.71875 40.765625 55.71875 27.296875 
Q 55.71875 13.875 49.015625 6.21875 
Q 42.328125 -1.421875 30.609375 -1.421875 
Q 18.84375 -1.421875 12.171875 6.21875 
Q 5.515625 13.875 5.515625 27.296875 
Q 5.515625 40.765625 12.171875 48.375 
Q 18.84375 56 30.609375 56 
z
" id="DejaVuSans-111"/>
      <path d="M 54.890625 33.015625 
L 54.890625 0 
L 45.90625 0 
L 45.90625 32.71875 
Q 45.90625 40.484375 42.875 44.328125 
Q 39.84375 48.1875 33.796875 48.1875 
Q 26.515625 48.1875 22.3125 43.546875 
Q 18.109375 38.921875 18.109375 30.90625 
L 18.109375 0 
L 9.078125 0 
L 9.078125 54.6875 
L 18.109375 54.6875 
L 18.109375 46.1875 
Q 21.34375 51.125 25.703125 53.5625 
Q 30.078125 56 35.796875 56 
Q 45.21875 56 50.046875 50.171875 
Q 54.890625 44.34375 54.890625 33.015625 
z
" id="DejaVuSans-110"/>
     </defs>
     <g transform="translate(286.110938 476.836563)scale(0.1 -0.1)">
      <use xlink:href="#DejaVuSans-49"/>
      <use x="63.623047" xlink:href="#DejaVuSans-45"/>
      <use x="99.707031" xlink:href="#DejaVuSans-112"/>
      <use x="163.183594" xlink:href="#DejaVuSans-114"/>
      <use x="202.046875" xlink:href="#DejaVuSans-101"/>
      <use x="263.570312" xlink:href="#DejaVuSans-99"/>
      <use x="318.550781" xlink:href="#DejaVuSans-105"/>
      <use x="346.333984" xlink:href="#DejaVuSans-115"/>
      <use x="398.433594" xlink:href="#DejaVuSans-105"/>
      <use x="426.216797" xlink:href="#DejaVuSans-111"/>
      <use x="487.398438" xlink:href="#DejaVuSans-110"/>
     </g>
    </g>
   </g>
   <g id="matplotlib.axis_2">
    <g id="ytick_1">
     <g id="line2d_23">
      <path clip-path="url(#p090d1868fa)" d="M 76.5 448.56 
L 550.8 448.56 
" style="fill:none;stroke:#b0b0b0;stroke-linecap:square;stroke-width:0.8;"/>
     </g>
     <g id="line2d_24">
      <defs>
       <path d="M 0 0 
L -3.5 0 
" id="m6555acb624" style="stroke:#000000;stroke-width:0.8;"/>
      </defs>
      <g>
       <use style="stroke:#000000;stroke-width:0.8;" x="76.5" xlink:href="#m6555acb624" y="448.56"/>
      </g>
     </g>
     <g id="text_13">
      <!-- 0.0 -->
      <g transform="translate(53.596875 452.359219)scale(0.1 -0.1)">
       <use xlink:href="#DejaVuSans-48"/>
       <use x="63.623047" xlink:href="#DejaVuSans-46"/>
       <use x="95.410156" xlink:href="#DejaVuSans-48"/>
      </g>
     </g>
    </g>
    <g id="ytick_2">
     <g id="line2d_25">
      <path clip-path="url(#p090d1868fa)" d="M 76.5 409.752 
L 550.8 409.752 
" style="fill:none;stroke:#b0b0b0;stroke-linecap:square;stroke-width:0.8;"/>
     </g>
     <g id="line2d_26">
      <g>
       <use style="stroke:#000000;stroke-width:0.8;" x="76.5" xlink:href="#m6555acb624" y="409.752"/>
      </g>
     </g>
     <g id="text_14">
      <!-- 0.1 -->
      <g transform="translate(53.596875 413.551219)scale(0.1 -0.1)">
       <use xlink:href="#DejaVuSans-48"/>
       <use x="63.623047" xlink:href="#DejaVuSans-46"/>
       <use x="95.410156" xlink:href="#DejaVuSans-49"/>
      </g>
     </g>
    </g>
    <g id="ytick_3">
     <g id="line2d_27">
      <path clip-path="url(#p090d1868fa)" d="M 76.5 370.944 
L 550.8 370.944 
" style="fill:none;stroke:#b0b0b0;stroke-linecap:square;stroke-width:0.8;"/>
     </g>
     <g id="line2d_28">
      <g>
       <use style="stroke:#000000;stroke-width:0.8;" x="76.5" xlink:href="#m6555acb624" y="370.944"/>
      </g>
     </g>
     <g id="text_15">
      <!-- 0.2 -->
      <g transform="translate(53.596875 374.743219)scale(0.1 -0.1)">
       <use xlink:href="#DejaVuSans-48"/>
       <use x="63.623047" xlink:href="#DejaVuSans-46"/>
       <use x="95.410156" xlink:href="#DejaVuSans-50"/>
      </g>
     </g>
    </g>
    <g id="ytick_4">
     <g id="line2d_29">
      <path clip-path="url(#p090d1868fa)" d="M 76.5 332.136 
L 550.8 332.136 
" style="fill:none;stroke:#b0b0b0;stroke-linecap:square;stroke-width:0.8;"/>
     </g>
     <g id="line2d_30">
      <g>
       <use style="stroke:#000000;stroke-width:0.8;" x="76.5" xlink:href="#m6555acb624" y="332.136"/>
      </g>
     </g>
     <g id="text_16">
      <!-- 0.3 -->
      <g transform="translate(53.596875 335.935219)scale(0.1 -0.1)">
       <use xlink:href="#DejaVuSans-48"/>
       <use x="63.623047" xlink:href="#DejaVuSans-46"/>
       <use x="95.410156" xlink:href="#DejaVuSans-51"/>
      </g>
     </g>
    </g>
    <g id="ytick_5">
     <g id="line2d_31">
      <path clip-path="url(#p090d1868fa)" d="M 76.5 293.328 
L 550.8 293.328 
" style="fill:none;stroke:#b0b0b0;stroke-linecap:square;stroke-width:0.8;"/>
     </g>
     <g id="line2d_32">
      <g>
       <use style="stroke:#000000;stroke-width:0.8;" x="76.5" xlink:href="#m6555acb624" y="293.328"/>
      </g>
     </g>
     <g id="text_17">
      <!-- 0.4 -->
      <g transform="translate(53.596875 297.127219)scale(0.1 -0.1)">
       <use xlink:href="#DejaVuSans-48"/>
       <use x="63.623047" xlink:href="#DejaVuSans-46"/>
       <use x="95.410156" xlink:href="#DejaVuSans-52"/>
      </g>
     </g>
    </g>
    <g id="ytick_6">
     <g id="line2d_33">
      <path clip-path="url(#p090d1868fa)" d="M 76.5 254.52 
L 550.8 254.52 
" style="fill:none;stroke:#b0b0b0;stroke-linecap:square;stroke-width:0.8;"/>
     </g>
     <g id="line2d_34">
      <g>
       <use style="stroke:#000000;stroke-width:0.8;" x="76.5" xlink:href="#m6555acb624" y="254.52"/>
      </g>
     </g>
     <g id="text_18">
      <!-- 0.5 -->
      <g transform="translate(53.596875 258.319219)scale(0.1 -0.1)">
       <use xlink:href="#DejaVuSans-48"/>
       <use x="63.623047" xlink:href="#DejaVuSans-46"/>
       <use x="95.410156" xlink:href="#DejaVuSans-53"/>
      </g>
     </g>
    </g>
    <g id="ytick_7">
     <g id="line2d_35">
      <path clip-path="url(#p090d1868fa)" d="M 76.5 215.712 
L 550.8 215.712 
" style="fill:none;stroke:#b0b0b0;stroke-linecap:square;stroke-width:0.8;"/>
     </g>
     <g id="line2d_36">
      <g>
       <use style="stroke:#000000;stroke-width:0.8;" x="76.5" xlink:href="#m6555acb624" y="215.712"/>
      </g>
     </g>
     <g id="text_19">
      <!-- 0.6 -->
      <g transform="translate(53.596875 219.511219)scale(0.1 -0.1)">
       <use xlink:href="#DejaVuSans-48"/>
       <use x="63.623047" xlink:href="#DejaVuSans-46"/>
       <use x="95.410156" xlink:href="#DejaVuSans-54"/>
      </g>
     </g>
    </g>
    <g id="ytick_8">
     <g id="line2d_37">
      <path clip-path="url(#p090d1868fa)" d="M 76.5 176.904 
L 550.8 176.904 
" style="fill:none;stroke:#b0b0b0;stroke-linecap:square;stroke-width:0.8;"/>
     </g>
     <g id="line2d_38">
      <g>
       <use style="stroke:#000000;stroke-width:0.8;" x="76.5" xlink:href="#m6555acb624" y="176.904"/>
      </g>
     </g>
     <g id="text_20">
      <!-- 0.7 -->
      <g transform="translate(53.596875 180.703219)scale(0.1 -0.1)">
       <use xlink:href="#DejaVuSans-48"/>
       <use x="63.623047" xlink:href="#DejaVuSans-46"/>
       <use x="95.410156" xlink:href="#DejaVuSans-55"/>
      </g>
     </g>
    </g>
    <g id="ytick_9">
     <g id="line2d_39">
      <path clip-path="url(#p090d1868fa)" d="M 76.5 138.096 
L 550.8 138.096 
" style="fill:none;stroke:#b0b0b0;stroke-linecap:square;stroke-width:0.8;"/>
     </g>
     <g id="line2d_40">
      <g>
       <use style="stroke:#000000;stroke-width:0.8;" x="76.5" xlink:href="#m6555acb624" y="138.096"/>
      </g>
     </g>
     <g id="text_21">
      <!-- 0.8 -->
      <g transform="translate(53.596875 141.895219)scale(0.1 -0.1)">
       <use xlink:href="#DejaVuSans-48"/>
       <use x="63.623047" xlink:href="#DejaVuSans-46"/>
       <use x="95.410156" xlink:href="#DejaVuSans-56"/>
      </g>
     </g>
    </g>
    <g id="ytick_10">
     <g id="line2d_41">
      <path clip-path="url(#p090d1868fa)" d="M 76.5 99.288 
L 550.8 99.288 
" style="fill:none;stroke:#b0b0b0;stroke-linecap:square;stroke-width:0.8;"/>
     </g>
     <g id="line2d_42">
      <g>
       <use style="stroke:#000000;stroke-width:0.8;" x="76.5" xlink:href="#m6555acb624" y="99.288"/>
      </g>
     </g>
     <g id="text_22">
      <!-- 0.9 -->
      <g transform="translate(53.596875 103.087219)scale(0.1 -0.1)">
       <use xlink:href="#DejaVuSans-48"/>
       <use x="63.623047" xlink:href="#DejaVuSans-46"/>
       <use x="95.410156" xlink:href="#DejaVuSans-57"/>
      </g>
     </g>
    </g>
    <g id="ytick_11">
     <g id="line2d_43">
      <path clip-path="url(#p090d1868fa)" d="M 76.5 60.48 
L 550.8 60.48 
" style="fill:none;stroke:#b0b0b0;stroke-linecap:square;stroke-width:0.8;"/>
     </g>
     <g id="line2d_44">
      <g>
       <use style="stroke:#000000;stroke-width:0.8;" x="76.5" xlink:href="#m6555acb624" y="60.48"/>
      </g>
     </g>
     <g id="text_23">
      <!-- 1.0 -->
      <g transform="translate(53.596875 64.279219)scale(0.1 -0.1)">
       <use xlink:href="#DejaVuSans-49"/>
       <use x="63.623047" xlink:href="#DejaVuSans-46"/>
       <use x="95.410156" xlink:href="#DejaVuSans-48"/>
      </g>
     </g>
    </g>
    <g id="text_24">
     <!-- #correct/873 -->
     <defs>
      <path d="M 51.125 44 
L 36.921875 44 
L 32.8125 27.6875 
L 47.125 27.6875 
z
M 43.796875 71.78125 
L 38.71875 51.515625 
L 52.984375 51.515625 
L 58.109375 71.78125 
L 65.921875 71.78125 
L 60.890625 51.515625 
L 76.125 51.515625 
L 76.125 44 
L 58.984375 44 
L 54.984375 27.6875 
L 70.515625 27.6875 
L 70.515625 20.21875 
L 53.078125 20.21875 
L 48 0 
L 40.1875 0 
L 45.21875 20.21875 
L 30.90625 20.21875 
L 25.875 0 
L 18.015625 0 
L 23.09375 20.21875 
L 7.71875 20.21875 
L 7.71875 27.6875 
L 24.90625 27.6875 
L 29 44 
L 13.28125 44 
L 13.28125 51.515625 
L 30.90625 51.515625 
L 35.890625 71.78125 
z
" id="DejaVuSans-35"/>
      <path d="M 18.3125 70.21875 
L 18.3125 54.6875 
L 36.8125 54.6875 
L 36.8125 47.703125 
L 18.3125 47.703125 
L 18.3125 18.015625 
Q 18.3125 11.328125 20.140625 9.421875 
Q 21.96875 7.515625 27.59375 7.515625 
L 36.8125 7.515625 
L 36.8125 0 
L 27.59375 0 
Q 17.1875 0 13.234375 3.875 
Q 9.28125 7.765625 9.28125 18.015625 
L 9.28125 47.703125 
L 2.6875 47.703125 
L 2.6875 54.6875 
L 9.28125 54.6875 
L 9.28125 70.21875 
z
" id="DejaVuSans-116"/>
      <path d="M 25.390625 72.90625 
L 33.6875 72.90625 
L 8.296875 -9.28125 
L 0 -9.28125 
z
" id="DejaVuSans-47"/>
     </defs>
     <g transform="translate(47.517187 287.443438)rotate(-90)scale(0.1 -0.1)">
      <use xlink:href="#DejaVuSans-35"/>
      <use x="83.789062" xlink:href="#DejaVuSans-99"/>
      <use x="138.769531" xlink:href="#DejaVuSans-111"/>
      <use x="199.951172" xlink:href="#DejaVuSans-114"/>
      <use x="239.314453" xlink:href="#DejaVuSans-114"/>
      <use x="278.177734" xlink:href="#DejaVuSans-101"/>
      <use x="339.701172" xlink:href="#DejaVuSans-99"/>
      <use x="394.681641" xlink:href="#DejaVuSans-116"/>
      <use x="433.890625" xlink:href="#DejaVuSans-47"/>
      <use x="467.582031" xlink:href="#DejaVuSans-56"/>
      <use x="531.205078" xlink:href="#DejaVuSans-55"/>
      <use x="594.828125" xlink:href="#DejaVuSans-51"/>
     </g>
    </g>
   </g>
   <g id="line2d_45">
    <path clip-path="url(#p090d1868fa)" d="M 76.5 448.115464 
L 76.5 292.972371 
L 77.851282 292.972371 
L 77.751451 280.525361 
L 78.996316 280.525361 
L 78.932308 276.08 
L 82.534351 276.08 
L 82.214458 266.300206 
L 83.340865 266.300206 
L 83.275714 264.522062 
L 84.386223 264.522062 
L 84.367536 264.077526 
L 85.470213 264.077526 
L 85.365421 261.854845 
L 86.45035 261.854845 
L 86.028348 253.40866 
L 87.063474 253.40866 
L 86.279381 237.405361 
L 88.187064 237.405361 
L 88.068293 235.18268 
L 89.006897 235.18268 
L 88.856513 232.515464 
L 89.7804 232.515464 
L 89.622925 229.848247 
L 90.532544 229.848247 
L 90.181731 224.069278 
L 91.065835 224.069278 
L 90.818491 220.068454 
L 92.547744 220.068454 
L 92.022545 212.066804 
L 93.684783 212.066804 
L 93.289381 206.287835 
L 94.097703 206.287835 
L 93.381864 195.618969 
L 94.155838 195.618969 
L 93.63399 187.61732 
L 95.130442 187.61732 
L 94.86 183.616495 
L 96.326045 183.616495 
L 96.136624 180.949278 
L 96.859459 180.949278 
L 96.794929 180.060206 
L 97.513291 180.060206 
L 97.283099 176.948454 
L 97.991719 176.948454 
L 97.825116 174.725773 
L 99.225348 174.725773 
L 99.085714 172.947629 
L 99.778528 172.947629 
L 99.742879 172.503093 
L 100.432569 172.503093 
L 100.359604 171.614021 
L 101.045205 171.614021 
L 101.007903 171.169485 
L 101.69044 171.169485 
L 101.313901 166.724124 
L 101.984776 166.724124 
L 101.61 162.278763 
L 102.269604 162.278763 
L 102.081778 160.056082 
L 102.734934 160.056082 
L 102.545376 157.833402 
L 103.192208 157.833402 
L 103.153746 157.388866 
L 103.797842 157.388866 
L 103.719512 156.499794 
L 104.998712 156.499794 
L 104.876923 155.166186 
L 105.511238 155.166186 
L 105.470028 154.721649 
L 106.101702 154.721649 
L 106.017963 153.832577 
L 107.272638 153.832577 
L 107.229296 153.388041 
L 108.475281 153.388041 
L 108.252301 151.165361 
L 108.868663 151.165361 
L 108.689335 149.387216 
L 109.30083 149.387216 
L 109.255525 148.94268 
L 109.864552 148.94268 
L 109.681481 147.164536 
L 110.285753 147.164536 
L 110.193443 146.275464 
L 111.394005 146.275464 
L 111.111081 143.608247 
L 112.886406 143.608247 
L 112.74008 142.274639 
L 113.911364 142.274639 
L 113.712367 140.496495 
L 114.871751 140.496495 
L 114.719683 139.162887 
L 115.294987 139.162887 
L 115.192895 138.273814 
L 115.765309 138.273814 
L 115.611126 136.940206 
L 116.747389 136.940206 
L 116.694915 136.49567 
L 117.260156 136.49567 
L 117.207152 136.051134 
L 119.450841 136.051134 
L 119.395349 135.606598 
L 121.061004 135.606598 
L 120.946598 134.717526 
L 123.68801 134.717526 
L 123.567939 133.828454 
L 124.652284 133.828454 
L 124.591255 133.383918 
L 125.6689 133.383918 
L 125.606818 132.939381 
L 126.677834 132.939381 
L 126.551759 132.050309 
L 127.084065 132.050309 
L 126.957447 131.161237 
L 129.068742 131.161237 
L 128.938137 130.272165 
L 129.461538 130.272165 
L 129.395911 129.827629 
L 130.437701 129.827629 
L 130.172325 128.049485 
L 130.689066 128.049485 
L 130.622577 127.604948 
L 131.1375 127.604948 
L 131.070624 127.160412 
L 131.583741 127.160412 
L 131.516484 126.715876 
L 133.046715 126.715876 
L 132.909466 125.826804 
L 134.928261 125.826804 
L 134.577551 123.604124 
L 136.071172 123.604124 
L 136 123.159588 
L 136.988796 123.159588 
L 136.773278 121.825979 
L 137.754384 121.825979 
L 137.681893 121.381443 
L 138.170213 121.381443 
L 138.097403 120.936907 
L 138.58408 120.936907 
L 138.510954 120.492371 
L 139.479906 120.492371 
L 139.405986 120.047835 
L 141.328388 120.047835 
L 141.252742 119.603299 
L 141.73007 119.603299 
L 141.578372 118.714227 
L 143.943815 118.714227 
L 143.865935 118.269691 
L 146.201952 118.269691 
L 146.042268 117.380619 
L 146.505378 117.380619 
L 146.425371 116.936082 
L 146.886986 116.936082 
L 146.806727 116.491546 
L 147.266856 116.491546 
L 147.186348 116.04701 
L 148.102611 116.04701 
L 148.021429 115.602474 
L 150.291883 115.602474 
L 150.208784 115.157938 
L 151.108989 115.157938 
L 151.025253 114.713402 
L 151.920605 114.713402 
L 151.836242 114.268866 
L 152.726786 114.268866 
L 152.557016 113.379794 
L 153.442 113.379794 
L 153.356604 112.935258 
L 154.675553 112.935258 
L 154.589171 112.490722 
L 155.02649 112.490722 
L 154.939912 112.046186 
L 156.678046 112.046186 
L 156.590132 111.601649 
L 157.882623 111.601649 
L 157.793777 111.157113 
L 158.222356 111.157113 
L 158.133333 110.712577 
L 160.683117 110.712577 
L 160.592108 110.268041 
L 161.853556 110.268041 
L 161.761679 109.823505 
L 162.597422 109.823505 
L 162.505043 109.378969 
L 165.399681 109.378969 
L 165.305106 108.934433 
L 165.714772 108.934433 
L 165.525557 108.045361 
L 165.933686 108.045361 
L 165.839048 107.600825 
L 167.865158 107.600825 
L 167.769085 107.156289 
L 168.572928 107.156289 
L 168.476415 106.711753 
L 171.655821 106.711753 
L 171.557009 106.267216 
L 173.12575 106.267216 
L 173.02593 105.82268 
L 175.35308 105.82268 
L 175.049539 104.489072 
L 179.608696 104.489072 
L 179.504545 104.044536 
L 180.998692 104.044536 
L 180.893668 103.6 
L 182.7432 103.6 
L 182.637063 103.155464 
L 183.737151 103.155464 
L 183.523956 102.266392 
L 187.49646 102.266392 
L 187.387426 101.821856 
L 188.1 101.821856 
L 187.990695 101.37732 
L 189.406537 101.37732 
L 189.296491 100.932784 
L 190.350437 100.932784 
L 190.239903 100.488247 
L 190.938663 100.488247 
L 190.82788 100.043711 
L 193.937044 100.043711 
L 193.824449 99.599175 
L 194.166379 99.599175 
L 193.941396 98.710103 
L 200.964855 98.710103 
L 200.848315 98.265567 
L 202.803352 98.265567 
L 202.68586 97.821031 
L 207.791109 97.821031 
L 207.670879 97.376495 
L 208.610959 97.376495 
L 208.49042 96.931959 
L 212.503066 96.931959 
L 212.380541 96.487423 
L 216.29813 96.487423 
L 216.173754 96.042887 
L 217.360372 96.042887 
L 217.235607 95.598351 
L 218.413239 95.598351 
L 218.288095 95.153814 
L 220.906299 95.153814 
L 220.78007 94.709278 
L 222.216188 94.709278 
L 222.089478 94.264742 
L 223.512468 94.264742 
L 223.385294 93.820206 
L 223.66828 93.820206 
L 223.541192 93.37567 
L 224.386822 93.37567 
L 224.259552 92.931134 
L 227.321739 92.931134 
L 227.193271 92.486598 
L 232.347108 92.486598 
L 232.216583 92.042062 
L 234.6 92.042062 
L 234.468688 91.597526 
L 236.815746 91.597526 
L 236.68369 91.15299 
L 243.517808 91.15299 
L 243.383333 90.708454 
L 244.615958 90.708454 
L 244.48125 90.263918 
L 248.597787 90.263918 
L 248.461848 89.819381 
L 248.700474 89.819381 
L 248.564669 89.374845 
L 256.908589 89.374845 
L 256.770345 88.930309 
L 259.22804 88.930309 
L 259.089294 88.485773 
L 264.949554 88.485773 
L 264.809442 88.041237 
L 274.465733 88.041237 
L 274.323618 87.596701 
L 274.72 87.596701 
L 274.578009 87.152165 
L 276.347402 87.152165 
L 276.205263 86.707629 
L 286.723256 86.707629 
L 286.579563 86.263093 
L 294.464125 86.263093 
L 294.319682 85.818557 
L 306.309286 85.818557 
L 306.164205 85.374021 
L 306.626654 85.374021 
L 306.481738 84.929485 
L 326.276042 84.929485 
L 326.276042 84.929485 
" style="fill:none;stroke:#1f77b4;stroke-linecap:square;stroke-width:2;"/>
   </g>
   <g id="line2d_46">
    <path clip-path="url(#p090d1868fa)" d="M 76.5 448.115464 
L 76.5 443.225567 
L 112.984615 443.225567 
L 108.12 442.336495 
L 104.4 441.447423 
L 101.463158 440.558351 
L 99.085714 439.669278 
L 96.2625 438.33567 
L 94.066667 437.002062 
L 92.31 435.668454 
L 90.872727 434.334845 
L 89.318919 432.556701 
L 88.068293 430.778557 
L 86.81087 428.555876 
L 86.38125 427.666804 
L 113.7 427.666804 
L 110.994545 425.88866 
L 118.848214 425.88866 
L 118.105263 425.444124 
L 132.772881 425.444124 
L 129.2 423.665979 
L 135.7875 423.665979 
L 132.3 421.887835 
L 129.942254 420.554227 
L 135.7875 420.554227 
L 133.416 419.220619 
L 138.907895 419.220619 
L 135.055556 416.997938 
L 131.651163 414.775258 
L 130.397727 413.886186 
L 135.121348 413.886186 
L 133.832967 412.997113 
L 138.365217 412.997113 
L 137.7 412.552577 
L 142.094681 412.552577 
L 138.781818 410.329897 
L 136.95 408.996289 
L 140.967961 408.996289 
L 138.557944 407.218144 
L 146.122018 407.218144 
L 145.489091 406.773608 
L 149.140541 406.773608 
L 147.854867 405.884536 
L 158.275862 405.884536 
L 157.576923 405.44 
L 160.909322 405.44 
L 159.5025 404.550928 
L 162.736364 404.550928 
L 162.029508 404.106392 
L 168.3 404.106392 
L 165.43125 402.328247 
L 171.36 402.328247 
L 169.922727 401.439175 
L 172.786466 401.439175 
L 169.975182 399.661031 
L 172.734783 399.661031 
L 170.687234 398.327423 
L 173.364085 398.327423 
L 170.710274 396.549278 
L 178.363087 396.549278 
L 177.013907 395.660206 
L 181.9 395.660206 
L 181.215584 395.21567 
L 183.6 395.21567 
L 182.913462 394.771134 
L 185.256688 394.771134 
L 184.568354 394.326598 
L 189.14625 394.326598 
L 188.446584 393.882062 
L 195.075 393.882062 
L 194.356364 393.437526 
L 200.721429 393.437526 
L 198.542105 392.103918 
L 202.614451 392.103918 
L 201.173143 391.214845 
L 203.159659 391.214845 
L 200.345 389.436701 
L 204.196154 389.436701 
L 203.498361 388.992165 
L 209.1 388.992165 
L 208.390909 388.547629 
L 212.014286 388.547629 
L 211.301053 388.103093 
L 214.8375 388.103093 
L 214.120725 387.658557 
L 219.27398 387.658557 
L 218.549239 387.214021 
L 221.888442 387.214021 
L 221.1615 386.769485 
L 222.801493 386.769485 
L 221.360099 385.880412 
L 227.726087 385.880412 
L 226.278947 384.99134 
L 250.689823 384.99134 
L 249.922467 384.546804 
L 253.846957 384.546804 
L 252.318103 383.657732 
L 257.377119 383.657732 
L 256.613924 383.213196 
L 260.29125 383.213196 
L 256.540408 380.990515 
L 258.923077 380.990515 
L 258.1875 380.545979 
L 262.832143 380.545979 
L 262.095652 380.101443 
L 265.478906 380.101443 
L 263.289961 378.767835 
L 264.395769 378.767835 
L 263.675862 378.323299 
L 265.859316 378.323299 
L 265.142045 377.878763 
L 268.351685 377.878763 
L 267.635821 377.434227 
L 268.688476 377.434227 
L 267.976667 376.989691 
L 272.105474 376.989691 
L 271.394182 376.545155 
L 281.197895 376.545155 
L 280.482168 376.100619 
L 286.036644 376.100619 
L 285.321502 375.656082 
L 286.22449 375.656082 
L 285.513559 375.211546 
L 299.161736 375.211546 
L 297.738978 374.322474 
L 300.141456 374.322474 
L 299.435962 373.877938 
L 301.011912 373.877938 
L 300.310313 373.433402 
L 301.866149 373.433402 
L 301.168421 372.988866 
L 306.463636 372.988866 
L 305.768882 372.54433 
L 310.843491 372.54433 
L 310.152212 372.099794 
L 312.958601 372.099794 
L 311.587826 371.210722 
L 312.279191 371.210722 
L 311.599712 370.766186 
L 314.997443 370.766186 
L 314.321813 370.321649 
L 322.096438 370.321649 
L 321.42541 369.877113 
L 322.050409 369.877113 
L 321.383152 369.432577 
L 322.623243 369.432577 
L 321.3 368.543505 
L 322.527273 368.543505 
L 321.8712 368.098969 
L 324.287335 368.098969 
L 323.635263 367.654433 
L 327.166321 367.654433 
L 325.874227 366.765361 
L 329.299492 366.765361 
L 328.659494 366.320825 
L 331.983292 366.320825 
L 331.347761 365.876289 
L 332.434158 365.876289 
L 331.173399 364.987216 
L 332.25 364.987216 
L 331.624694 364.54268 
L 337.365 364.54268 
L 336.745368 364.098144 
L 337.252607 364.098144 
L 336.63617 363.653608 
L 340.611369 363.653608 
L 340 363.209072 
L 340.486836 363.209072 
L 339.878571 362.764536 
L 340.846101 362.764536 
L 339.639041 361.875464 
L 345.725721 361.875464 
L 345.130088 361.430928 
L 348.266667 361.430928 
L 347.67587 360.986392 
L 350.291202 360.986392 
L 349.121154 360.09732 
L 352.926415 360.09732 
L 352.348117 359.652784 
L 354.402484 359.652784 
L 353.256495 358.763711 
L 354.067762 358.763711 
L 353.498975 358.319175 
L 353.902454 358.319175 
L 353.336327 357.874639 
L 353.738493 357.874639 
L 353.175 357.430103 
L 356.72515 357.430103 
L 355.610934 356.541031 
L 356.38396 356.541031 
L 355.83083 356.096495 
L 356.979961 356.096495 
L 356.43 355.651959 
L 359.431853 355.651959 
L 358.886705 355.207423 
L 364.973507 355.207423 
L 364.436313 354.762887 
L 367.843327 354.762887 
L 367.311679 354.318351 
L 368.310708 354.318351 
L 367.255335 353.429278 
L 370.515453 353.429278 
L 369.994149 352.984742 
L 376.18613 352.984742 
L 375.673846 352.540206 
L 375.972696 352.540206 
L 375.462521 352.09567 
L 376.943412 352.09567 
L 376.436762 351.651134 
L 377.022857 351.651134 
L 376.518624 351.206598 
L 377.6805 351.206598 
L 377.179368 350.762062 
L 378.327273 350.762062 
L 377.829208 350.317526 
L 379.525 350.317526 
L 379.030669 349.87299 
L 381.243478 349.87299 
L 380.753537 349.428454 
L 381.298558 349.428454 
L 380.81088 348.983918 
L 381.082428 348.983918 
L 380.596651 348.539381 
L 381.675594 348.539381 
L 381.192722 348.094845 
L 382.259434 348.094845 
L 381.30094 347.205773 
L 383.658733 347.205773 
L 383.184722 346.761237 
L 384.213037 346.761237 
L 383.741807 346.316701 
L 383.997248 346.316701 
L 383.527786 345.872165 
L 384.036986 345.872165 
L 383.569605 345.427629 
L 385.826087 345.427629 
L 385.363024 344.983093 
L 385.856866 344.983093 
L 385.395827 344.538557 
L 386.619231 344.538557 
L 385.249043 343.204948 
L 385.4925 343.204948 
L 385.038767 342.760412 
L 387.437627 342.760412 
L 386.988295 342.315876 
L 387.929741 342.315876 
L 387.482927 341.87134 
L 391.147826 341.87134 
L 389.392469 340.093196 
L 391.393388 340.093196 
L 390.528297 339.204124 
L 392.485482 339.204124 
L 392.057317 338.759588 
L 394.5972 338.759588 
L 394.173635 338.315052 
L 395.003444 338.315052 
L 394.582143 337.870515 
L 398.017723 337.870515 
L 397.602326 337.425979 
L 398.585623 337.425979 
L 398.172692 336.981443 
L 399.337786 336.981443 
L 398.927573 336.536907 
L 399.120305 336.536907 
L 398.303544 335.647835 
L 398.496334 335.647835 
L 397.684237 334.758763 
L 400.526733 334.758763 
L 400.126205 334.314227 
L 401.783985 334.314227 
L 401.386813 333.869691 
L 402.473455 333.869691 
L 402.078814 333.425155 
L 402.617008 333.425155 
L 402.224096 332.980619 
L 403.466667 332.980619 
L 403.076492 332.536082 
L 404.300237 332.536082 
L 403.912766 332.091546 
L 404.259198 332.091546 
L 403.488 331.202474 
L 404.349474 331.202474 
L 403.966472 330.757938 
L 404.308741 330.757938 
L 403.927125 330.313402 
L 404.777083 330.313402 
L 404.397572 329.868866 
L 406.893068 329.868866 
L 406.518048 329.42433 
L 407.007692 329.42433 
L 406.634237 328.979794 
L 408.721269 328.979794 
L 408.351724 328.535258 
L 411.905206 328.535258 
L 411.54182 328.090722 
L 411.692532 328.090722 
L 410.968575 327.201649 
L 412.904473 327.201649 
L 412.546596 326.757113 
L 413.568532 326.757113 
L 413.212975 326.312577 
L 413.647003 326.312577 
L 412.939454 325.423505 
L 413.083962 325.423505 
L 412.731518 324.978969 
L 413.163883 324.978969 
L 412.812826 324.534433 
L 413.670777 324.534433 
L 413.321739 324.089897 
L 413.88866 324.089897 
L 413.541195 323.645361 
L 414.940367 323.645361 
L 414.595723 323.200825 
L 414.734283 323.200825 
L 415.010558 323.200825 
L 414.667241 322.756289 
L 414.805167 322.756289 
L 414.942814 322.756289 
L 414.600607 322.311753 
L 414.738182 322.311753 
L 415.557831 322.311753 
L 415.217753 321.867216 
L 415.353607 321.867216 
L 416.163048 321.867216 
L 415.622145 320.978144 
L 416.422804 320.978144 
L 416.087574 320.533608 
L 416.220296 320.533608 
L 418.69323 320.533608 
L 418.362609 320.089072 
L 418.490444 320.089072 
L 419.629952 320.089072 
L 419.301912 319.644536 
L 419.427507 319.644536 
L 420.051901 319.644536 
L 419.725641 319.2 
L 419.85 319.2 
L 420.468272 319.2 
L 420.143774 318.755464 
L 420.266918 318.755464 
L 420.634962 318.755464 
L 420.111903 317.866392 
L 422.398343 317.866392 
L 422.080129 317.421856 
L 422.198438 317.421856 
L 422.552062 317.421856 
L 422.235165 316.97732 
L 422.35279 316.97732 
L 422.821149 316.97732 
L 422.505738 316.532784 
L 422.622475 316.532784 
L 423.892703 316.532784 
L 423.580018 316.088247 
L 423.694424 316.088247 
L 424.15 316.088247 
L 423.838765 315.643711 
L 423.952326 315.643711 
L 424.291793 315.643711 
L 423.981818 315.199175 
L 424.094746 315.199175 
L 424.879646 315.199175 
L 424.571618 314.754639 
L 424.683127 314.754639 
L 426.440854 314.754639 
L 426.136292 314.310103 
L 426.244696 314.310103 
L 426.568777 314.310103 
L 425.962597 313.421031 
L 426.070588 313.421031 
L 427.352055 313.421031 
L 427.051925 312.976495 
L 427.157692 312.976495 
L 427.263279 312.976495 
L 426.770954 312.087423 
L 427.192105 312.087423 
L 426.894656 311.642887 
L 426.999661 311.642887 
L 429.063 311.642887 
L 428.769442 311.198351 
L 428.870965 311.198351 
L 430.076194 311.198351 
L 429.785185 310.753814 
L 429.884704 310.753814 
L 430.083251 310.753814 
L 429.793191 310.309278 
L 429.892377 310.309278 
L 430.972786 310.309278 
L 430.685065 309.864742 
L 430.782482 309.864742 
L 434.003157 309.864742 
L 433.532126 308.97567 
L 434.629797 308.97567 
L 434.350663 308.531134 
L 434.441355 308.531134 
L 434.531907 308.531134 
L 434.253499 308.086598 
L 434.344056 308.086598 
L 434.614884 308.086598 
L 434.150812 307.197526 
L 434.510563 307.197526 
L 434.234746 306.75299 
L 434.32448 306.75299 
L 434.682041 306.75299 
L 434.407362 306.308454 
L 434.496552 306.308454 
L 434.674522 306.308454 
L 434.400688 305.863918 
L 434.48961 305.863918 
L 434.843945 305.863918 
L 434.571233 305.419381 
L 434.65962 305.419381 
L 434.747872 305.419381 
L 434.475854 304.974845 
L 434.564112 304.974845 
L 434.652237 304.974845 
L 434.380909 304.530309 
L 434.469039 304.530309 
L 435.42973 304.530309 
L 434.891604 303.641237 
L 434.978427 303.641237 
L 436.18043 303.641237 
L 435.914 303.196701 
L 435.999038 303.196701 
L 436.08395 303.196701 
L 435.818182 302.752165 
L 435.903102 302.752165 
L 436.325828 302.752165 
L 436.06125 302.307629 
L 436.145555 302.307629 
L 436.397727 302.307629 
L 436.134066 301.863093 
L 436.218009 301.863093 
L 436.469102 301.863093 
L 436.20635 301.418557 
L 436.289934 301.418557 
L 436.373397 301.418557 
L 436.111289 300.974021 
L 436.19476 300.974021 
L 436.527431 300.974021 
L 436.266352 300.529485 
L 436.349348 300.529485 
L 436.597614 300.529485 
L 436.337428 300.084948 
L 436.420072 300.084948 
L 436.502597 300.084948 
L 435.983862 299.195876 
L 436.066523 299.195876 
L 436.231488 299.195876 
L 435.715004 298.306804 
L 435.797561 298.306804 
L 435.88 298.306804 
L 435.622564 297.862268 
L 435.705011 297.862268 
L 436.44175 297.862268 
L 436.185928 297.417732 
L 436.26733 297.417732 
L 436.348616 297.417732 
L 436.093404 296.973196 
L 436.174699 296.973196 
L 436.579449 296.973196 
L 436.07158 296.084124 
L 436.152431 296.084124 
L 436.394304 296.084124 
L 436.141391 295.639588 
L 436.22191 295.639588 
L 436.302316 295.639588 
L 435.878571 294.750515 
L 436.119497 294.750515 
L 435.868366 294.305979 
L 435.948569 294.305979 
L 437.451446 294.305979 
L 437.203028 293.861443 
L 437.281155 293.861443 
L 438.36376 293.861443 
L 438.117427 293.416907 
L 438.194082 293.416907 
L 439.181187 293.416907 
L 438.936792 292.972371 
L 439.012121 292.972371 
L 439.387248 292.972371 
L 439.143863 292.527835 
L 439.2187 292.527835 
L 439.293436 292.527835 
L 438.808094 291.638763 
L 438.882955 291.638763 
L 439.330027 291.638763 
L 439.088623 291.194227 
L 439.162899 291.194227 
L 440.844401 291.194227 
L 440.605955 290.749691 
L 440.678025 290.749691 
L 441.888939 290.749691 
L 441.252 289.416082 
L 441.533977 289.416082 
L 441.299228 288.971546 
L 441.369602 288.971546 
L 441.58018 288.971546 
L 441.346154 288.52701 
L 441.416272 288.52701 
L 441.626087 288.52701 
L 441.15977 287.637938 
L 441.229738 287.637938 
L 441.578244 287.637938 
L 441.346154 287.193402 
L 441.415693 287.193402 
L 441.485143 287.193402 
L 441.253553 286.748866 
L 441.323018 286.748866 
L 441.461685 286.748866 
L 441.230696 286.30433 
L 441.3 286.30433 
L 441.85129 286.30433 
L 441.621509 285.859794 
L 441.690132 285.859794 
L 441.758668 285.859794 
L 441.529379 285.415258 
L 441.59793 285.415258 
L 442.278741 285.415258 
L 442.050841 284.970722 
L 442.118555 284.970722 
L 444.046239 284.970722 
L 443.821577 284.526186 
L 443.886927 284.526186 
L 444.212485 284.526186 
L 443.988679 284.081649 
L 444.05365 284.081649 
L 444.312743 284.081649 
L 443.931678 283.192577 
L 444.382871 283.192577 
L 444.161121 282.748041 
L 444.225361 282.748041 
L 444.417619 282.748041 
L 443.975676 281.858969 
L 444.039796 281.858969 
L 444.422907 281.858969 
L 444.202989 281.414433 
L 444.266667 281.414433 
L 444.583919 281.414433 
L 444.364821 280.969897 
L 444.428138 280.969897 
L 445.986928 280.969897 
L 445.770475 280.525361 
L 445.893388 280.525361 
L 447.046875 280.525361 
L 447.046875 280.525361 
" style="fill:none;stroke:#ff7f0e;stroke-linecap:square;stroke-width:2;"/>
   </g>
   <g id="line2d_47">
    <path clip-path="url(#p090d1868fa)" d="M 76.5 448.115464 
L 76.5 361.875464 
L 78.919898 361.875464 
L 78.791304 356.985567 
L 81.060577 356.985567 
L 80.624348 347.205773 
L 82.65974 347.205773 
L 82.478571 344.094021 
L 84.438075 344.094021 
L 84.372199 343.204948 
L 86.299587 343.204948 
L 85.948207 339.204124 
L 87.792857 339.204124 
L 87.403448 335.203299 
L 89.172137 335.203299 
L 88.796667 331.64701 
L 90.501476 331.64701 
L 90.45 331.202474 
L 92.136264 331.202474 
L 91.966304 329.868866 
L 93.622744 329.868866 
L 93.5 328.979794 
L 95.133214 328.979794 
L 95.066904 328.535258 
L 96.682979 328.535258 
L 96.470526 327.201649 
L 98.059091 327.201649 
L 97.835294 325.868041 
L 99.397241 325.868041 
L 99.240411 324.978969 
L 100.78157 324.978969 
L 100.616949 324.089897 
L 105.148993 324.089897 
L 104.863455 322.756289 
L 107.806931 322.756289 
L 107.601639 321.867216 
L 110.488925 321.867216 
L 109.83738 319.2 
L 111.24172 319.2 
L 111.131429 318.755464 
L 112.522785 318.755464 
L 112.0725 316.97732 
L 116.147368 316.97732 
L 116.025 316.532784 
L 117.362769 316.532784 
L 117.237423 316.088247 
L 118.563303 316.088247 
L 118.180909 314.754639 
L 119.487915 314.754639 
L 118.722552 312.087423 
L 121.271681 312.087423 
L 121.14 311.642887 
L 122.4 311.642887 
L 121.999709 310.309278 
L 124.478324 310.309278 
L 124.065903 308.97567 
L 125.285143 308.97567 
L 125.146154 308.531134 
L 127.55779 308.531134 
L 127.270141 307.642062 
L 128.459831 307.642062 
L 127.8825 305.863918 
L 132.529945 305.863918 
L 132.071935 304.530309 
L 133.209783 304.530309 
L 133.056098 304.085773 
L 134.185135 304.085773 
L 134.02965 303.641237 
L 135.15 303.641237 
L 134.219048 300.974021 
L 137.499213 300.974021 
L 137.022656 299.640412 
L 138.097403 299.640412 
L 137.937824 299.195876 
L 139.004651 299.195876 
L 138.843557 298.75134 
L 139.902571 298.75134 
L 139.578261 297.862268 
L 140.627296 297.862268 
L 140.464122 297.417732 
L 143.572727 297.417732 
L 143.235678 296.52866 
L 147.291045 296.52866 
L 147.115385 296.084124 
L 148.114604 296.084124 
L 147.761823 295.195052 
L 148.752088 295.195052 
L 148.223415 293.861443 
L 149.20292 293.861443 
L 149.026456 293.416907 
L 149.999274 293.416907 
L 149.821739 292.972371 
L 150.787952 292.972371 
L 149.903571 290.749691 
L 150.855819 290.749691 
L 150.156 288.971546 
L 152.964252 288.971546 
L 152.786014 288.52701 
L 153.711628 288.52701 
L 153.354167 287.637938 
L 155.185714 287.637938 
L 154.467123 285.859794 
L 155.369932 285.859794 
L 155.190682 285.415258 
L 160.51278 285.415258 
L 159.951448 284.081649 
L 163.402649 284.081649 
L 163.211233 283.637113 
L 164.063077 283.637113 
L 163.48952 282.303505 
L 164.333333 282.303505 
L 163.952278 281.414433 
L 168.922484 281.414433 
L 168.332553 280.080825 
L 169.144586 280.080825 
L 168.558228 278.747216 
L 170.962264 278.747216 
L 170.371875 277.413608 
L 171.162786 277.413608 
L 170.96639 276.969072 
L 171.752795 276.969072 
L 171.555992 276.524536 
L 174.664549 276.524536 
L 174.463804 276.08 
L 180.521529 276.08 
L 180.312651 275.635464 
L 181.05511 275.635464 
L 180.846 275.190928 
L 182.31992 275.190928 
L 182.109543 274.746392 
L 183.569703 274.746392 
L 183.358103 274.301856 
L 184.08284 274.301856 
L 183.660118 273.412784 
L 184.38 273.412784 
L 183.749123 272.079175 
L 185.174563 272.079175 
L 184.754159 271.190103 
L 185.460811 271.190103 
L 184.833397 269.856495 
L 185.534483 269.856495 
L 185.118321 268.967423 
L 186.508745 268.967423 
L 185.884877 267.633814 
L 187.942669 267.633814 
L 187.525281 266.744742 
L 189.554749 266.744742 
L 189.34461 266.300206 
L 190.683333 266.300206 
L 190.472274 265.85567 
L 191.799448 265.85567 
L 191.5875 265.411134 
L 192.246606 265.411134 
L 191.8234 264.522062 
L 192.478467 264.522062 
L 192.056727 263.63299 
L 192.707804 263.63299 
L 192.287523 262.743918 
L 192.934657 262.743918 
L 192.724865 262.299381 
L 195.28712 262.299381 
L 194.443162 260.521237 
L 197.580106 260.521237 
L 197.367311 260.076701 
L 197.987368 260.076701 
L 197.774606 259.632165 
L 198.391783 259.632165 
L 198.179058 259.187629 
L 202.434828 259.187629 
L 202.218072 258.743093 
L 202.81701 258.743093 
L 202.384418 257.854021 
L 203.573549 257.854021 
L 203.35707 257.409485 
L 203.947959 257.409485 
L 203.731579 256.964948 
L 206.072681 256.964948 
L 205.42047 255.63134 
L 206.575585 255.63134 
L 206.358431 255.186804 
L 206.9325 255.186804 
L 206.068709 253.40866 
L 207.206436 253.40866 
L 206.77648 252.519588 
L 207.904426 252.519588 
L 207.689362 252.075052 
L 209.920976 252.075052 
L 209.704383 251.630515 
L 210.808252 251.630515 
L 210.591276 251.185979 
L 211.14 251.185979 
L 210.707074 250.296907 
L 211.25297 250.296907 
L 210.82176 249.407835 
L 212.983784 249.407835 
L 212.767143 248.963299 
L 214.369194 248.963299 
L 213.934961 248.074227 
L 214.464623 248.074227 
L 213.816901 246.740619 
L 215.913219 246.740619 
L 215.696739 246.296082 
L 216.734211 246.296082 
L 216.517465 245.851546 
L 217.547612 245.851546 
L 216.683614 244.073402 
L 218.211585 244.073402 
L 217.99589 243.628866 
L 219.005918 243.628866 
L 218.79 243.18433 
L 219.793051 243.18433 
L 219.576923 242.739794 
L 220.573083 242.739794 
L 220.141079 241.850722 
L 221.621642 241.850722 
L 221.405365 241.406186 
L 221.895536 241.406186 
L 221.679495 240.961649 
L 222.167804 240.961649 
L 221.522304 239.628041 
L 223.456388 239.628041 
L 223.240909 239.183505 
L 223.720498 239.183505 
L 223.505263 238.738969 
L 224.934498 238.738969 
L 224.71875 238.294433 
L 226.134443 238.294433 
L 225.918208 237.849897 
L 229.631143 237.849897 
L 229.412696 237.405361 
L 230.327027 237.405361 
L 230.108523 236.960825 
L 230.563404 236.960825 
L 230.345184 236.516289 
L 233.045646 236.516289 
L 232.607143 235.627216 
L 233.052168 235.627216 
L 232.83352 235.18268 
L 233.276987 235.18268 
L 233.058635 234.738144 
L 233.94125 234.738144 
L 233.505125 233.849072 
L 234.38163 233.849072 
L 234.163862 233.404536 
L 236.332603 233.404536 
L 236.113953 232.96 
L 236.972578 232.96 
L 236.535918 232.070928 
L 237.388738 232.070928 
L 236.953315 231.181856 
L 238.222237 231.181856 
L 238.004576 230.73732 
L 240.095455 230.73732 
L 239.877036 230.292784 
L 242.347947 230.292784 
L 242.128571 229.848247 
L 242.536328 229.848247 
L 242.317282 229.403711 
L 243.936614 229.403711 
L 243.717169 228.959175 
L 246.113134 228.959175 
L 245.892857 228.514639 
L 246.288327 228.514639 
L 246.068394 228.070103 
L 246.855814 228.070103 
L 246.416753 227.181031 
L 249.522704 227.181031 
L 249.302293 226.736495 
L 251.589254 226.736495 
L 251.368182 226.291959 
L 252.498113 226.291959 
L 252.27701 225.847423 
L 253.769625 225.847423 
L 253.548315 225.402887 
L 255.392308 225.402887 
L 254.949505 224.513814 
L 256.406897 224.513814 
L 256.185609 224.069278 
L 258.343956 224.069278 
L 257.900974 223.180206 
L 260.025998 223.180206 
L 259.804348 222.73567 
L 260.854874 222.73567 
L 260.633293 222.291134 
L 260.981633 222.291134 
L 260.760432 221.846598 
L 262.832143 221.846598 
L 262.610583 221.402062 
L 263.294306 221.402062 
L 263.072986 220.957526 
L 263.413491 220.957526 
L 263.192553 220.51299 
L 264.208834 220.51299 
L 263.988 220.068454 
L 264.661268 220.068454 
L 264.44068 219.623918 
L 266.440861 219.623918 
L 266.22 219.179381 
L 269.814007 219.179381 
L 269.592317 218.734845 
L 273.723051 218.734845 
L 273.500451 218.290309 
L 275.056566 218.290309 
L 274.833969 217.845773 
L 276.982759 217.845773 
L 276.76 217.401237 
L 278.574834 217.401237 
L 278.35204 216.956701 
L 279.548299 216.956701 
L 279.325658 216.512165 
L 284.293434 216.512165 
L 284.07 216.067629 
L 285.496364 216.067629 
L 285.273077 215.623093 
L 286.402979 215.623093 
L 286.179915 215.178557 
L 286.460828 215.178557 
L 286.238176 214.734021 
L 288.463722 214.734021 
L 288.241071 214.289485 
L 289.065864 214.289485 
L 288.843515 213.844948 
L 291.55528 213.844948 
L 291.332885 213.400412 
L 293.725512 213.400412 
L 293.059857 212.066804 
L 293.847251 212.066804 
L 293.626144 211.622268 
L 295.70222 211.622268 
L 295.040644 210.28866 
L 299.589723 210.28866 
L 299.369497 209.844124 
L 301.827273 209.844124 
L 301.607227 209.399588 
L 307.313931 209.399588 
L 307.093899 208.955052 
L 307.326 208.955052 
L 307.106375 208.510515 
L 308.947309 208.510515 
L 308.728019 208.065979 
L 311.214286 208.065979 
L 310.995336 207.621443 
L 312.330056 207.621443 
L 312.111492 207.176907 
L 312.77329 207.176907 
L 312.555125 206.732371 
L 312.774908 206.732371 
L 312.557143 206.287835 
L 312.776519 206.287835 
L 312.559154 205.843299 
L 313.214862 205.843299 
L 312.997892 205.398763 
L 313.866575 205.398763 
L 313.65 204.954227 
L 317.272237 204.954227 
L 316.840359 204.065155 
L 317.259266 204.065155 
L 317.043918 203.620619 
L 317.461339 203.620619 
L 317.031818 202.731546 
L 317.862256 202.731546 
L 317.434309 201.842474 
L 318.669048 201.842474 
L 318.455683 201.397938 
L 319.06819 201.397938 
L 318.855224 200.953402 
L 321.273414 200.953402 
L 321.060938 200.508866 
L 321.260191 200.508866 
L 321.048094 200.06433 
L 321.445588 200.06433 
L 321.233881 199.619794 
L 321.630026 199.619794 
L 321.418707 199.175258 
L 322.010404 199.175258 
L 321.588927 198.286186 
L 323.346082 198.286186 
L 322.926276 197.397113 
L 327.48375 197.397113 
L 327.274771 196.952577 
L 328.201493 196.952577 
L 327.992958 196.508041 
L 328.177401 196.508041 
L 327.346782 194.729897 
L 328.081826 194.729897 
L 327.875103 194.285361 
L 328.423279 194.285361 
L 328.216953 193.840825 
L 329.485749 193.840825 
L 329.279902 193.396289 
L 331.774899 193.396289 
L 331.569695 192.951753 
L 331.921589 192.951753 
L 331.71676 192.507216 
L 332.24256 192.507216 
L 332.038129 192.06268 
L 332.38731 192.06268 
L 332.183254 191.618144 
L 334.597003 191.618144 
L 334.393617 191.173608 
L 336.085614 191.173608 
L 335.882813 190.729072 
L 337.217702 190.729072 
L 337.015438 190.284536 
L 339.15 190.284536 
L 338.948427 189.84 
L 340.401677 189.84 
L 340 188.950928 
L 341.907692 188.950928 
L 341.707687 188.506392 
L 344.659212 188.506392 
L 344.460134 188.061856 
L 344.613205 188.061856 
L 344.414455 187.61732 
L 344.567333 187.61732 
L 344.368912 187.172784 
L 345.130088 187.172784 
L 344.93213 186.728247 
L 345.235099 186.728247 
L 345.0375 186.283711 
L 345.339648 186.283711 
L 345.142406 185.839175 
L 345.744184 185.839175 
L 345.547368 185.394639 
L 345.697297 185.394639 
L 345.500803 184.950103 
L 345.949381 184.950103 
L 345.753275 184.505567 
L 348.259238 184.505567 
L 347.67439 183.171959 
L 349.264698 183.171959 
L 349.070697 182.727423 
L 350.918816 182.727423 
L 350.725563 182.282887 
L 350.866362 182.282887 
L 350.673418 181.838351 
L 354.266851 181.838351 
L 354.075155 181.393814 
L 354.210828 181.393814 
L 354.019435 180.949278 
L 354.560412 180.949278 
L 354.369437 180.504742 
L 358.59375 180.504742 
L 358.404298 180.060206 
L 360.196407 180.060206 
L 360.007779 179.61567 
L 360.891661 179.61567 
L 360.703571 179.171134 
L 361.08 179.171134 
L 360.892282 178.726598 
L 361.392039 178.726598 
L 361.204734 178.282062 
L 361.82595 178.282062 
L 361.639096 177.837526 
L 362.379452 177.837526 
L 362.19309 177.39299 
L 362.805848 177.39299 
L 362.619935 176.948454 
L 363.834 176.948454 
L 363.648743 176.503918 
L 368.583051 176.503918 
L 368.216803 175.614845 
L 368.331203 175.614845 
L 370.477895 175.614845 
L 370.295978 175.170309 
L 370.407607 175.170309 
L 370.519098 175.170309 
L 370.337492 174.725773 
L 370.448889 174.725773 
L 373.513107 174.725773 
L 373.33299 174.281237 
L 373.440545 174.281237 
L 373.976375 174.281237 
L 373.796739 173.836701 
L 373.903561 173.836701 
L 378.276516 173.836701 
L 378.099 173.392165 
L 378.200529 173.392165 
L 380.897396 173.392165 
L 380.897396 173.392165 
" style="fill:none;stroke:#2ca02c;stroke-linecap:square;stroke-width:2;"/>
   </g>
   <g id="patch_3">
    <path d="M 76.5 448.56 
L 76.5 60.48 
" style="fill:none;stroke:#000000;stroke-linecap:square;stroke-linejoin:miter;stroke-width:0.8;"/>
   </g>
   <g id="patch_4">
    <path d="M 550.8 448.56 
L 550.8 60.48 
" style="fill:none;stroke:#000000;stroke-linecap:square;stroke-linejoin:miter;stroke-width:0.8;"/>
   </g>
   <g id="patch_5">
    <path d="M 76.5 448.56 
L 550.8 448.56 
" style="fill:none;stroke:#000000;stroke-linecap:square;stroke-linejoin:miter;stroke-width:0.8;"/>
   </g>
   <g id="patch_6">
    <path d="M 76.5 60.48 
L 550.8 60.48 
" style="fill:none;stroke:#000000;stroke-linecap:square;stroke-linejoin:miter;stroke-width:0.8;"/>
   </g>
   <g id="text_25">
    <!-- bikes: img1-img2 -->
    <defs>
     <path d="M 48.6875 27.296875 
Q 48.6875 37.203125 44.609375 42.84375 
Q 40.53125 48.484375 33.40625 48.484375 
Q 26.265625 48.484375 22.1875 42.84375 
Q 18.109375 37.203125 18.109375 27.296875 
Q 18.109375 17.390625 22.1875 11.75 
Q 26.265625 6.109375 33.40625 6.109375 
Q 40.53125 6.109375 44.609375 11.75 
Q 48.6875 17.390625 48.6875 27.296875 
z
M 18.109375 46.390625 
Q 20.953125 51.265625 25.265625 53.625 
Q 29.59375 56 35.59375 56 
Q 45.5625 56 51.78125 48.09375 
Q 58.015625 40.1875 58.015625 27.296875 
Q 58.015625 14.40625 51.78125 6.484375 
Q 45.5625 -1.421875 35.59375 -1.421875 
Q 29.59375 -1.421875 25.265625 0.953125 
Q 20.953125 3.328125 18.109375 8.203125 
L 18.109375 0 
L 9.078125 0 
L 9.078125 75.984375 
L 18.109375 75.984375 
z
" id="DejaVuSans-98"/>
     <path d="M 9.078125 75.984375 
L 18.109375 75.984375 
L 18.109375 31.109375 
L 44.921875 54.6875 
L 56.390625 54.6875 
L 27.390625 29.109375 
L 57.625 0 
L 45.90625 0 
L 18.109375 26.703125 
L 18.109375 0 
L 9.078125 0 
z
" id="DejaVuSans-107"/>
     <path d="M 11.71875 12.40625 
L 22.015625 12.40625 
L 22.015625 0 
L 11.71875 0 
z
M 11.71875 51.703125 
L 22.015625 51.703125 
L 22.015625 39.3125 
L 11.71875 39.3125 
z
" id="DejaVuSans-58"/>
     <path id="DejaVuSans-32"/>
     <path d="M 52 44.1875 
Q 55.375 50.25 60.0625 53.125 
Q 64.75 56 71.09375 56 
Q 79.640625 56 84.28125 50.015625 
Q 88.921875 44.046875 88.921875 33.015625 
L 88.921875 0 
L 79.890625 0 
L 79.890625 32.71875 
Q 79.890625 40.578125 77.09375 44.375 
Q 74.3125 48.1875 68.609375 48.1875 
Q 61.625 48.1875 57.5625 43.546875 
Q 53.515625 38.921875 53.515625 30.90625 
L 53.515625 0 
L 44.484375 0 
L 44.484375 32.71875 
Q 44.484375 40.625 41.703125 44.40625 
Q 38.921875 48.1875 33.109375 48.1875 
Q 26.21875 48.1875 22.15625 43.53125 
Q 18.109375 38.875 18.109375 30.90625 
L 18.109375 0 
L 9.078125 0 
L 9.078125 54.6875 
L 18.109375 54.6875 
L 18.109375 46.1875 
Q 21.1875 51.21875 25.484375 53.609375 
Q 29.78125 56 35.6875 56 
Q 41.65625 56 45.828125 52.96875 
Q 50 49.953125 52 44.1875 
z
" id="DejaVuSans-109"/>
     <path d="M 45.40625 27.984375 
Q 45.40625 37.75 41.375 43.109375 
Q 37.359375 48.484375 30.078125 48.484375 
Q 22.859375 48.484375 18.828125 43.109375 
Q 14.796875 37.75 14.796875 27.984375 
Q 14.796875 18.265625 18.828125 12.890625 
Q 22.859375 7.515625 30.078125 7.515625 
Q 37.359375 7.515625 41.375 12.890625 
Q 45.40625 18.265625 45.40625 27.984375 
z
M 54.390625 6.78125 
Q 54.390625 -7.171875 48.1875 -13.984375 
Q 42 -20.796875 29.203125 -20.796875 
Q 24.46875 -20.796875 20.265625 -20.09375 
Q 16.0625 -19.390625 12.109375 -17.921875 
L 12.109375 -9.1875 
Q 16.0625 -11.328125 19.921875 -12.34375 
Q 23.78125 -13.375 27.78125 -13.375 
Q 36.625 -13.375 41.015625 -8.765625 
Q 45.40625 -4.15625 45.40625 5.171875 
L 45.40625 9.625 
Q 42.625 4.78125 38.28125 2.390625 
Q 33.9375 0 27.875 0 
Q 17.828125 0 11.671875 7.65625 
Q 5.515625 15.328125 5.515625 27.984375 
Q 5.515625 40.671875 11.671875 48.328125 
Q 17.828125 56 27.875 56 
Q 33.9375 56 38.28125 53.609375 
Q 42.625 51.21875 45.40625 46.390625 
L 45.40625 54.6875 
L 54.390625 54.6875 
z
" id="DejaVuSans-103"/>
    </defs>
    <g transform="translate(261.73125 41.042625)scale(0.12 -0.12)">
     <use xlink:href="#DejaVuSans-98"/>
     <use x="63.476562" xlink:href="#DejaVuSans-105"/>
     <use x="91.259766" xlink:href="#DejaVuSans-107"/>
     <use x="145.544922" xlink:href="#DejaVuSans-101"/>
     <use x="207.068359" xlink:href="#DejaVuSans-115"/>
     <use x="259.167969" xlink:href="#DejaVuSans-58"/>
     <use x="292.859375" xlink:href="#DejaVuSans-32"/>
     <use x="324.646484" xlink:href="#DejaVuSans-105"/>
     <use x="352.429688" xlink:href="#DejaVuSans-109"/>
     <use x="449.841797" xlink:href="#DejaVuSans-103"/>
     <use x="513.318359" xlink:href="#DejaVuSans-49"/>
     <use x="576.941406" xlink:href="#DejaVuSans-45"/>
     <use x="613.025391" xlink:href="#DejaVuSans-105"/>
     <use x="640.808594" xlink:href="#DejaVuSans-109"/>
     <use x="738.220703" xlink:href="#DejaVuSans-103"/>
     <use x="801.697266" xlink:href="#DejaVuSans-50"/>
    </g>
    <!-- NearestNeighbours -->
    <defs>
     <path d="M 9.8125 72.90625 
L 23.09375 72.90625 
L 55.421875 11.921875 
L 55.421875 72.90625 
L 64.984375 72.90625 
L 64.984375 0 
L 51.703125 0 
L 19.390625 60.984375 
L 19.390625 0 
L 9.8125 0 
z
" id="DejaVuSans-78"/>
     <path d="M 34.28125 27.484375 
Q 23.390625 27.484375 19.1875 25 
Q 14.984375 22.515625 14.984375 16.5 
Q 14.984375 11.71875 18.140625 8.90625 
Q 21.296875 6.109375 26.703125 6.109375 
Q 34.1875 6.109375 38.703125 11.40625 
Q 43.21875 16.703125 43.21875 25.484375 
L 43.21875 27.484375 
z
M 52.203125 31.203125 
L 52.203125 0 
L 43.21875 0 
L 43.21875 8.296875 
Q 40.140625 3.328125 35.546875 0.953125 
Q 30.953125 -1.421875 24.3125 -1.421875 
Q 15.921875 -1.421875 10.953125 3.296875 
Q 6 8.015625 6 15.921875 
Q 6 25.140625 12.171875 29.828125 
Q 18.359375 34.515625 30.609375 34.515625 
L 43.21875 34.515625 
L 43.21875 35.40625 
Q 43.21875 41.609375 39.140625 45 
Q 35.0625 48.390625 27.6875 48.390625 
Q 23 48.390625 18.546875 47.265625 
Q 14.109375 46.140625 10.015625 43.890625 
L 10.015625 52.203125 
Q 14.9375 54.109375 19.578125 55.046875 
Q 24.21875 56 28.609375 56 
Q 40.484375 56 46.34375 49.84375 
Q 52.203125 43.703125 52.203125 31.203125 
z
" id="DejaVuSans-97"/>
     <path d="M 54.890625 33.015625 
L 54.890625 0 
L 45.90625 0 
L 45.90625 32.71875 
Q 45.90625 40.484375 42.875 44.328125 
Q 39.84375 48.1875 33.796875 48.1875 
Q 26.515625 48.1875 22.3125 43.546875 
Q 18.109375 38.921875 18.109375 30.90625 
L 18.109375 0 
L 9.078125 0 
L 9.078125 75.984375 
L 18.109375 75.984375 
L 18.109375 46.1875 
Q 21.34375 51.125 25.703125 53.5625 
Q 30.078125 56 35.796875 56 
Q 45.21875 56 50.046875 50.171875 
Q 54.890625 44.34375 54.890625 33.015625 
z
" id="DejaVuSans-104"/>
     <path d="M 8.5 21.578125 
L 8.5 54.6875 
L 17.484375 54.6875 
L 17.484375 21.921875 
Q 17.484375 14.15625 20.5 10.265625 
Q 23.53125 6.390625 29.59375 6.390625 
Q 36.859375 6.390625 41.078125 11.03125 
Q 45.3125 15.671875 45.3125 23.6875 
L 45.3125 54.6875 
L 54.296875 54.6875 
L 54.296875 0 
L 45.3125 0 
L 45.3125 8.40625 
Q 42.046875 3.421875 37.71875 1 
Q 33.40625 -1.421875 27.6875 -1.421875 
Q 18.265625 -1.421875 13.375 4.4375 
Q 8.5 10.296875 8.5 21.578125 
z
M 31.109375 56 
z
" id="DejaVuSans-117"/>
    </defs>
    <g transform="translate(255.957188 54.48)scale(0.12 -0.12)">
     <use xlink:href="#DejaVuSans-78"/>
     <use x="74.804688" xlink:href="#DejaVuSans-101"/>
     <use x="136.328125" xlink:href="#DejaVuSans-97"/>
     <use x="197.607422" xlink:href="#DejaVuSans-114"/>
     <use x="236.470703" xlink:href="#DejaVuSans-101"/>
     <use x="297.994141" xlink:href="#DejaVuSans-115"/>
     <use x="350.09375" xlink:href="#DejaVuSans-116"/>
     <use x="389.302734" xlink:href="#DejaVuSans-78"/>
     <use x="464.107422" xlink:href="#DejaVuSans-101"/>
     <use x="525.630859" xlink:href="#DejaVuSans-105"/>
     <use x="553.414062" xlink:href="#DejaVuSans-103"/>
     <use x="616.890625" xlink:href="#DejaVuSans-104"/>
     <use x="680.269531" xlink:href="#DejaVuSans-98"/>
     <use x="743.746094" xlink:href="#DejaVuSans-111"/>
     <use x="804.927734" xlink:href="#DejaVuSans-117"/>
     <use x="868.306641" xlink:href="#DejaVuSans-114"/>
     <use x="909.419922" xlink:href="#DejaVuSans-115"/>
    </g>
   </g>
   <g id="legend_1">
    <g id="patch_7">
     <path d="M 362.659375 112.514375 
L 543.8 112.514375 
Q 545.8 112.514375 545.8 110.514375 
L 545.8 67.48 
Q 545.8 65.48 543.8 65.48 
L 362.659375 65.48 
Q 360.659375 65.48 360.659375 67.48 
L 360.659375 110.514375 
Q 360.659375 112.514375 362.659375 112.514375 
z
" style="fill:#ffffff;opacity:0.8;stroke:#cccccc;stroke-linejoin:miter;"/>
    </g>
    <g id="line2d_48">
     <path d="M 364.659375 73.578438 
L 384.659375 73.578438 
" style="fill:none;stroke:#1f77b4;stroke-linecap:square;stroke-width:2;"/>
    </g>
    <g id="line2d_49"/>
    <g id="text_26">
     <!-- root-cvsift AP: 89.4, %In: 47.3 -->
     <defs>
      <path d="M 2.984375 54.6875 
L 12.5 54.6875 
L 29.59375 8.796875 
L 46.6875 54.6875 
L 56.203125 54.6875 
L 35.6875 0 
L 23.484375 0 
z
" id="DejaVuSans-118"/>
      <path d="M 37.109375 75.984375 
L 37.109375 68.5 
L 28.515625 68.5 
Q 23.6875 68.5 21.796875 66.546875 
Q 19.921875 64.59375 19.921875 59.515625 
L 19.921875 54.6875 
L 34.71875 54.6875 
L 34.71875 47.703125 
L 19.921875 47.703125 
L 19.921875 0 
L 10.890625 0 
L 10.890625 47.703125 
L 2.296875 47.703125 
L 2.296875 54.6875 
L 10.890625 54.6875 
L 10.890625 58.5 
Q 10.890625 67.625 15.140625 71.796875 
Q 19.390625 75.984375 28.609375 75.984375 
z
" id="DejaVuSans-102"/>
      <path d="M 34.1875 63.1875 
L 20.796875 26.90625 
L 47.609375 26.90625 
z
M 28.609375 72.90625 
L 39.796875 72.90625 
L 67.578125 0 
L 57.328125 0 
L 50.6875 18.703125 
L 17.828125 18.703125 
L 11.1875 0 
L 0.78125 0 
z
" id="DejaVuSans-65"/>
      <path d="M 19.671875 64.796875 
L 19.671875 37.40625 
L 32.078125 37.40625 
Q 38.96875 37.40625 42.71875 40.96875 
Q 46.484375 44.53125 46.484375 51.125 
Q 46.484375 57.671875 42.71875 61.234375 
Q 38.96875 64.796875 32.078125 64.796875 
z
M 9.8125 72.90625 
L 32.078125 72.90625 
Q 44.34375 72.90625 50.609375 67.359375 
Q 56.890625 61.8125 56.890625 51.125 
Q 56.890625 40.328125 50.609375 34.8125 
Q 44.34375 29.296875 32.078125 29.296875 
L 19.671875 29.296875 
L 19.671875 0 
L 9.8125 0 
z
" id="DejaVuSans-80"/>
      <path d="M 11.71875 12.40625 
L 22.015625 12.40625 
L 22.015625 4 
L 14.015625 -11.625 
L 7.71875 -11.625 
L 11.71875 4 
z
" id="DejaVuSans-44"/>
      <path d="M 72.703125 32.078125 
Q 68.453125 32.078125 66.03125 28.46875 
Q 63.625 24.859375 63.625 18.40625 
Q 63.625 12.0625 66.03125 8.421875 
Q 68.453125 4.78125 72.703125 4.78125 
Q 76.859375 4.78125 79.265625 8.421875 
Q 81.6875 12.0625 81.6875 18.40625 
Q 81.6875 24.8125 79.265625 28.4375 
Q 76.859375 32.078125 72.703125 32.078125 
z
M 72.703125 38.28125 
Q 80.421875 38.28125 84.953125 32.90625 
Q 89.5 27.546875 89.5 18.40625 
Q 89.5 9.28125 84.9375 3.921875 
Q 80.375 -1.421875 72.703125 -1.421875 
Q 64.890625 -1.421875 60.34375 3.921875 
Q 55.8125 9.28125 55.8125 18.40625 
Q 55.8125 27.59375 60.375 32.9375 
Q 64.9375 38.28125 72.703125 38.28125 
z
M 22.3125 68.015625 
Q 18.109375 68.015625 15.6875 64.375 
Q 13.28125 60.75 13.28125 54.390625 
Q 13.28125 47.953125 15.671875 44.328125 
Q 18.0625 40.71875 22.3125 40.71875 
Q 26.5625 40.71875 28.96875 44.328125 
Q 31.390625 47.953125 31.390625 54.390625 
Q 31.390625 60.6875 28.953125 64.34375 
Q 26.515625 68.015625 22.3125 68.015625 
z
M 66.40625 74.21875 
L 74.21875 74.21875 
L 28.609375 -1.421875 
L 20.796875 -1.421875 
z
M 22.3125 74.21875 
Q 30.03125 74.21875 34.609375 68.875 
Q 39.203125 63.53125 39.203125 54.390625 
Q 39.203125 45.171875 34.640625 39.84375 
Q 30.078125 34.515625 22.3125 34.515625 
Q 14.546875 34.515625 10.03125 39.859375 
Q 5.515625 45.21875 5.515625 54.390625 
Q 5.515625 63.484375 10.046875 68.84375 
Q 14.59375 74.21875 22.3125 74.21875 
z
" id="DejaVuSans-37"/>
      <path d="M 9.8125 72.90625 
L 19.671875 72.90625 
L 19.671875 0 
L 9.8125 0 
z
" id="DejaVuSans-73"/>
     </defs>
     <g transform="translate(392.659375 77.078438)scale(0.1 -0.1)">
      <use xlink:href="#DejaVuSans-114"/>
      <use x="38.863281" xlink:href="#DejaVuSans-111"/>
      <use x="100.044922" xlink:href="#DejaVuSans-111"/>
      <use x="161.226562" xlink:href="#DejaVuSans-116"/>
      <use x="200.435547" xlink:href="#DejaVuSans-45"/>
      <use x="236.519531" xlink:href="#DejaVuSans-99"/>
      <use x="291.5" xlink:href="#DejaVuSans-118"/>
      <use x="350.679688" xlink:href="#DejaVuSans-115"/>
      <use x="402.779297" xlink:href="#DejaVuSans-105"/>
      <use x="430.5625" xlink:href="#DejaVuSans-102"/>
      <use x="464.017578" xlink:href="#DejaVuSans-116"/>
      <use x="503.226562" xlink:href="#DejaVuSans-32"/>
      <use x="535.013672" xlink:href="#DejaVuSans-65"/>
      <use x="603.421875" xlink:href="#DejaVuSans-80"/>
      <use x="663.724609" xlink:href="#DejaVuSans-58"/>
      <use x="697.416016" xlink:href="#DejaVuSans-32"/>
      <use x="729.203125" xlink:href="#DejaVuSans-56"/>
      <use x="792.826172" xlink:href="#DejaVuSans-57"/>
      <use x="856.449219" xlink:href="#DejaVuSans-46"/>
      <use x="888.236328" xlink:href="#DejaVuSans-52"/>
      <use x="951.859375" xlink:href="#DejaVuSans-44"/>
      <use x="983.646484" xlink:href="#DejaVuSans-32"/>
      <use x="1015.433594" xlink:href="#DejaVuSans-37"/>
      <use x="1110.453125" xlink:href="#DejaVuSans-73"/>
      <use x="1139.945312" xlink:href="#DejaVuSans-110"/>
      <use x="1203.324219" xlink:href="#DejaVuSans-58"/>
      <use x="1237.015625" xlink:href="#DejaVuSans-32"/>
      <use x="1268.802734" xlink:href="#DejaVuSans-52"/>
      <use x="1332.425781" xlink:href="#DejaVuSans-55"/>
      <use x="1396.048828" xlink:href="#DejaVuSans-46"/>
      <use x="1427.835938" xlink:href="#DejaVuSans-51"/>
     </g>
    </g>
    <g id="line2d_50">
     <path d="M 364.659375 88.256563 
L 384.659375 88.256563 
" style="fill:none;stroke:#ff7f0e;stroke-linecap:square;stroke-width:2;"/>
    </g>
    <g id="line2d_51"/>
    <g id="text_27">
     <!-- tfeat AP: 23.5, %In: 21.9 -->
     <g transform="translate(392.659375 91.756563)scale(0.1 -0.1)">
      <use xlink:href="#DejaVuSans-116"/>
      <use x="39.208984" xlink:href="#DejaVuSans-102"/>
      <use x="74.414062" xlink:href="#DejaVuSans-101"/>
      <use x="135.9375" xlink:href="#DejaVuSans-97"/>
      <use x="197.216797" xlink:href="#DejaVuSans-116"/>
      <use x="236.425781" xlink:href="#DejaVuSans-32"/>
      <use x="268.212891" xlink:href="#DejaVuSans-65"/>
      <use x="336.621094" xlink:href="#DejaVuSans-80"/>
      <use x="396.923828" xlink:href="#DejaVuSans-58"/>
      <use x="430.615234" xlink:href="#DejaVuSans-32"/>
      <use x="462.402344" xlink:href="#DejaVuSans-50"/>
      <use x="526.025391" xlink:href="#DejaVuSans-51"/>
      <use x="589.648438" xlink:href="#DejaVuSans-46"/>
      <use x="621.435547" xlink:href="#DejaVuSans-53"/>
      <use x="685.058594" xlink:href="#DejaVuSans-44"/>
      <use x="716.845703" xlink:href="#DejaVuSans-32"/>
      <use x="748.632812" xlink:href="#DejaVuSans-37"/>
      <use x="843.652344" xlink:href="#DejaVuSans-73"/>
      <use x="873.144531" xlink:href="#DejaVuSans-110"/>
      <use x="936.523438" xlink:href="#DejaVuSans-58"/>
      <use x="970.214844" xlink:href="#DejaVuSans-32"/>
      <use x="1002.001953" xlink:href="#DejaVuSans-50"/>
      <use x="1065.625" xlink:href="#DejaVuSans-49"/>
      <use x="1129.248047" xlink:href="#DejaVuSans-46"/>
      <use x="1161.035156" xlink:href="#DejaVuSans-57"/>
     </g>
    </g>
    <g id="line2d_52">
     <path d="M 364.659375 102.934687 
L 384.659375 102.934687 
" style="fill:none;stroke:#2ca02c;stroke-linecap:square;stroke-width:2;"/>
    </g>
    <g id="line2d_53"/>
    <g id="text_28">
     <!-- hardnet AP: 58.4, %In: 35.8 -->
     <defs>
      <path d="M 45.40625 46.390625 
L 45.40625 75.984375 
L 54.390625 75.984375 
L 54.390625 0 
L 45.40625 0 
L 45.40625 8.203125 
Q 42.578125 3.328125 38.25 0.953125 
Q 33.9375 -1.421875 27.875 -1.421875 
Q 17.96875 -1.421875 11.734375 6.484375 
Q 5.515625 14.40625 5.515625 27.296875 
Q 5.515625 40.1875 11.734375 48.09375 
Q 17.96875 56 27.875 56 
Q 33.9375 56 38.25 53.625 
Q 42.578125 51.265625 45.40625 46.390625 
z
M 14.796875 27.296875 
Q 14.796875 17.390625 18.875 11.75 
Q 22.953125 6.109375 30.078125 6.109375 
Q 37.203125 6.109375 41.296875 11.75 
Q 45.40625 17.390625 45.40625 27.296875 
Q 45.40625 37.203125 41.296875 42.84375 
Q 37.203125 48.484375 30.078125 48.484375 
Q 22.953125 48.484375 18.875 42.84375 
Q 14.796875 37.203125 14.796875 27.296875 
z
" id="DejaVuSans-100"/>
     </defs>
     <g transform="translate(392.659375 106.434687)scale(0.1 -0.1)">
      <use xlink:href="#DejaVuSans-104"/>
      <use x="63.378906" xlink:href="#DejaVuSans-97"/>
      <use x="124.658203" xlink:href="#DejaVuSans-114"/>
      <use x="164.021484" xlink:href="#DejaVuSans-100"/>
      <use x="227.498047" xlink:href="#DejaVuSans-110"/>
      <use x="290.876953" xlink:href="#DejaVuSans-101"/>
      <use x="352.400391" xlink:href="#DejaVuSans-116"/>
      <use x="391.609375" xlink:href="#DejaVuSans-32"/>
      <use x="423.396484" xlink:href="#DejaVuSans-65"/>
      <use x="491.804688" xlink:href="#DejaVuSans-80"/>
      <use x="552.107422" xlink:href="#DejaVuSans-58"/>
      <use x="585.798828" xlink:href="#DejaVuSans-32"/>
      <use x="617.585938" xlink:href="#DejaVuSans-53"/>
      <use x="681.208984" xlink:href="#DejaVuSans-56"/>
      <use x="744.832031" xlink:href="#DejaVuSans-46"/>
      <use x="776.619141" xlink:href="#DejaVuSans-52"/>
      <use x="840.242188" xlink:href="#DejaVuSans-44"/>
      <use x="872.029297" xlink:href="#DejaVuSans-32"/>
      <use x="903.816406" xlink:href="#DejaVuSans-37"/>
      <use x="998.835938" xlink:href="#DejaVuSans-73"/>
      <use x="1028.328125" xlink:href="#DejaVuSans-110"/>
      <use x="1091.707031" xlink:href="#DejaVuSans-58"/>
      <use x="1125.398438" xlink:href="#DejaVuSans-32"/>
      <use x="1157.185547" xlink:href="#DejaVuSans-51"/>
      <use x="1220.808594" xlink:href="#DejaVuSans-53"/>
      <use x="1284.431641" xlink:href="#DejaVuSans-46"/>
      <use x="1316.21875" xlink:href="#DejaVuSans-56"/>
     </g>
    </g>
   </g>
  </g>
 </g>
 <defs>
  <clipPath id="p090d1868fa">
   <rect height="388.08" width="474.3" x="76.5" y="60.48"/>
  </clipPath>
 </defs>
</svg>
