<?xml version="1.0" encoding="utf-8" standalone="no"?>
<!DOCTYPE svg PUBLIC "-//W3C//DTD SVG 1.1//EN"
  "http://www.w3.org/Graphics/SVG/1.1/DTD/svg11.dtd">
<!-- Created with matplotlib (https://matplotlib.org/) -->
<svg height="504pt" version="1.1" viewBox="0 0 612 504" width="612pt" xmlns="http://www.w3.org/2000/svg" xmlns:xlink="http://www.w3.org/1999/xlink">
 <defs>
  <style type="text/css">
*{stroke-linecap:butt;stroke-linejoin:round;}
  </style>
 </defs>
 <g id="figure_1">
  <g id="patch_1">
   <path d="M 0 504 
L 612 504 
L 612 0 
L 0 0 
z
" style="fill:#ffffff;"/>
  </g>
  <g id="axes_1">
   <g id="patch_2">
    <path d="M 76.5 448.56 
L 550.8 448.56 
L 550.8 60.48 
L 76.5 60.48 
z
" style="fill:#ffffff;"/>
   </g>
   <g id="matplotlib.axis_1">
    <g id="xtick_1">
     <g id="line2d_1">
      <path clip-path="url(#pb3c1a39da8)" d="M 76.5 448.56 
L 76.5 60.48 
" style="fill:none;stroke:#b0b0b0;stroke-linecap:square;stroke-width:0.8;"/>
     </g>
     <g id="line2d_2">
      <defs>
       <path d="M 0 0 
L 0 3.5 
" id="mac20277237" style="stroke:#000000;stroke-width:0.8;"/>
      </defs>
      <g>
       <use style="stroke:#000000;stroke-width:0.8;" x="76.5" xlink:href="#mac20277237" y="448.56"/>
      </g>
     </g>
     <g id="text_1">
      <!-- 0.0 -->
      <defs>
       <path d="M 31.78125 66.40625 
Q 24.171875 66.40625 20.328125 58.90625 
Q 16.5 51.421875 16.5 36.375 
Q 16.5 21.390625 20.328125 13.890625 
Q 24.171875 6.390625 31.78125 6.390625 
Q 39.453125 6.390625 43.28125 13.890625 
Q 47.125 21.390625 47.125 36.375 
Q 47.125 51.421875 43.28125 58.90625 
Q 39.453125 66.40625 31.78125 66.40625 
z
M 31.78125 74.21875 
Q 44.046875 74.21875 50.515625 64.515625 
Q 56.984375 54.828125 56.984375 36.375 
Q 56.984375 17.96875 50.515625 8.265625 
Q 44.046875 -1.421875 31.78125 -1.421875 
Q 19.53125 -1.421875 13.0625 8.265625 
Q 6.59375 17.96875 6.59375 36.375 
Q 6.59375 54.828125 13.0625 64.515625 
Q 19.53125 74.21875 31.78125 74.21875 
z
" id="DejaVuSans-48"/>
       <path d="M 10.6875 12.40625 
L 21 12.40625 
L 21 0 
L 10.6875 0 
z
" id="DejaVuSans-46"/>
      </defs>
      <g transform="translate(68.548438 463.158437)scale(0.1 -0.1)">
       <use xlink:href="#DejaVuSans-48"/>
       <use x="63.623047" xlink:href="#DejaVuSans-46"/>
       <use x="95.410156" xlink:href="#DejaVuSans-48"/>
      </g>
     </g>
    </g>
    <g id="xtick_2">
     <g id="line2d_3">
      <path clip-path="url(#pb3c1a39da8)" d="M 123.93 448.56 
L 123.93 60.48 
" style="fill:none;stroke:#b0b0b0;stroke-linecap:square;stroke-width:0.8;"/>
     </g>
     <g id="line2d_4">
      <g>
       <use style="stroke:#000000;stroke-width:0.8;" x="123.93" xlink:href="#mac20277237" y="448.56"/>
      </g>
     </g>
     <g id="text_2">
      <!-- 0.1 -->
      <defs>
       <path d="M 12.40625 8.296875 
L 28.515625 8.296875 
L 28.515625 63.921875 
L 10.984375 60.40625 
L 10.984375 69.390625 
L 28.421875 72.90625 
L 38.28125 72.90625 
L 38.28125 8.296875 
L 54.390625 8.296875 
L 54.390625 0 
L 12.40625 0 
z
" id="DejaVuSans-49"/>
      </defs>
      <g transform="translate(115.978438 463.158437)scale(0.1 -0.1)">
       <use xlink:href="#DejaVuSans-48"/>
       <use x="63.623047" xlink:href="#DejaVuSans-46"/>
       <use x="95.410156" xlink:href="#DejaVuSans-49"/>
      </g>
     </g>
    </g>
    <g id="xtick_3">
     <g id="line2d_5">
      <path clip-path="url(#pb3c1a39da8)" d="M 171.36 448.56 
L 171.36 60.48 
" style="fill:none;stroke:#b0b0b0;stroke-linecap:square;stroke-width:0.8;"/>
     </g>
     <g id="line2d_6">
      <g>
       <use style="stroke:#000000;stroke-width:0.8;" x="171.36" xlink:href="#mac20277237" y="448.56"/>
      </g>
     </g>
     <g id="text_3">
      <!-- 0.2 -->
      <defs>
       <path d="M 19.1875 8.296875 
L 53.609375 8.296875 
L 53.609375 0 
L 7.328125 0 
L 7.328125 8.296875 
Q 12.9375 14.109375 22.625 23.890625 
Q 32.328125 33.6875 34.8125 36.53125 
Q 39.546875 41.84375 41.421875 45.53125 
Q 43.3125 49.21875 43.3125 52.78125 
Q 43.3125 58.59375 39.234375 62.25 
Q 35.15625 65.921875 28.609375 65.921875 
Q 23.96875 65.921875 18.8125 64.3125 
Q 13.671875 62.703125 7.8125 59.421875 
L 7.8125 69.390625 
Q 13.765625 71.78125 18.9375 73 
Q 24.125 74.21875 28.421875 74.21875 
Q 39.75 74.21875 46.484375 68.546875 
Q 53.21875 62.890625 53.21875 53.421875 
Q 53.21875 48.921875 51.53125 44.890625 
Q 49.859375 40.875 45.40625 35.40625 
Q 44.1875 33.984375 37.640625 27.21875 
Q 31.109375 20.453125 19.1875 8.296875 
z
" id="DejaVuSans-50"/>
      </defs>
      <g transform="translate(163.408438 463.158437)scale(0.1 -0.1)">
       <use xlink:href="#DejaVuSans-48"/>
       <use x="63.623047" xlink:href="#DejaVuSans-46"/>
       <use x="95.410156" xlink:href="#DejaVuSans-50"/>
      </g>
     </g>
    </g>
    <g id="xtick_4">
     <g id="line2d_7">
      <path clip-path="url(#pb3c1a39da8)" d="M 218.79 448.56 
L 218.79 60.48 
" style="fill:none;stroke:#b0b0b0;stroke-linecap:square;stroke-width:0.8;"/>
     </g>
     <g id="line2d_8">
      <g>
       <use style="stroke:#000000;stroke-width:0.8;" x="218.79" xlink:href="#mac20277237" y="448.56"/>
      </g>
     </g>
     <g id="text_4">
      <!-- 0.3 -->
      <defs>
       <path d="M 40.578125 39.3125 
Q 47.65625 37.796875 51.625 33 
Q 55.609375 28.21875 55.609375 21.1875 
Q 55.609375 10.40625 48.1875 4.484375 
Q 40.765625 -1.421875 27.09375 -1.421875 
Q 22.515625 -1.421875 17.65625 -0.515625 
Q 12.796875 0.390625 7.625 2.203125 
L 7.625 11.71875 
Q 11.71875 9.328125 16.59375 8.109375 
Q 21.484375 6.890625 26.8125 6.890625 
Q 36.078125 6.890625 40.9375 10.546875 
Q 45.796875 14.203125 45.796875 21.1875 
Q 45.796875 27.640625 41.28125 31.265625 
Q 36.765625 34.90625 28.71875 34.90625 
L 20.21875 34.90625 
L 20.21875 43.015625 
L 29.109375 43.015625 
Q 36.375 43.015625 40.234375 45.921875 
Q 44.09375 48.828125 44.09375 54.296875 
Q 44.09375 59.90625 40.109375 62.90625 
Q 36.140625 65.921875 28.71875 65.921875 
Q 24.65625 65.921875 20.015625 65.03125 
Q 15.375 64.15625 9.8125 62.3125 
L 9.8125 71.09375 
Q 15.4375 72.65625 20.34375 73.4375 
Q 25.25 74.21875 29.59375 74.21875 
Q 40.828125 74.21875 47.359375 69.109375 
Q 53.90625 64.015625 53.90625 55.328125 
Q 53.90625 49.265625 50.4375 45.09375 
Q 46.96875 40.921875 40.578125 39.3125 
z
" id="DejaVuSans-51"/>
      </defs>
      <g transform="translate(210.838438 463.158437)scale(0.1 -0.1)">
       <use xlink:href="#DejaVuSans-48"/>
       <use x="63.623047" xlink:href="#DejaVuSans-46"/>
       <use x="95.410156" xlink:href="#DejaVuSans-51"/>
      </g>
     </g>
    </g>
    <g id="xtick_5">
     <g id="line2d_9">
      <path clip-path="url(#pb3c1a39da8)" d="M 266.22 448.56 
L 266.22 60.48 
" style="fill:none;stroke:#b0b0b0;stroke-linecap:square;stroke-width:0.8;"/>
     </g>
     <g id="line2d_10">
      <g>
       <use style="stroke:#000000;stroke-width:0.8;" x="266.22" xlink:href="#mac20277237" y="448.56"/>
      </g>
     </g>
     <g id="text_5">
      <!-- 0.4 -->
      <defs>
       <path d="M 37.796875 64.3125 
L 12.890625 25.390625 
L 37.796875 25.390625 
z
M 35.203125 72.90625 
L 47.609375 72.90625 
L 47.609375 25.390625 
L 58.015625 25.390625 
L 58.015625 17.1875 
L 47.609375 17.1875 
L 47.609375 0 
L 37.796875 0 
L 37.796875 17.1875 
L 4.890625 17.1875 
L 4.890625 26.703125 
z
" id="DejaVuSans-52"/>
      </defs>
      <g transform="translate(258.268438 463.158437)scale(0.1 -0.1)">
       <use xlink:href="#DejaVuSans-48"/>
       <use x="63.623047" xlink:href="#DejaVuSans-46"/>
       <use x="95.410156" xlink:href="#DejaVuSans-52"/>
      </g>
     </g>
    </g>
    <g id="xtick_6">
     <g id="line2d_11">
      <path clip-path="url(#pb3c1a39da8)" d="M 313.65 448.56 
L 313.65 60.48 
" style="fill:none;stroke:#b0b0b0;stroke-linecap:square;stroke-width:0.8;"/>
     </g>
     <g id="line2d_12">
      <g>
       <use style="stroke:#000000;stroke-width:0.8;" x="313.65" xlink:href="#mac20277237" y="448.56"/>
      </g>
     </g>
     <g id="text_6">
      <!-- 0.5 -->
      <defs>
       <path d="M 10.796875 72.90625 
L 49.515625 72.90625 
L 49.515625 64.59375 
L 19.828125 64.59375 
L 19.828125 46.734375 
Q 21.96875 47.46875 24.109375 47.828125 
Q 26.265625 48.1875 28.421875 48.1875 
Q 40.625 48.1875 47.75 41.5 
Q 54.890625 34.8125 54.890625 23.390625 
Q 54.890625 11.625 47.5625 5.09375 
Q 40.234375 -1.421875 26.90625 -1.421875 
Q 22.3125 -1.421875 17.546875 -0.640625 
Q 12.796875 0.140625 7.71875 1.703125 
L 7.71875 11.625 
Q 12.109375 9.234375 16.796875 8.0625 
Q 21.484375 6.890625 26.703125 6.890625 
Q 35.15625 6.890625 40.078125 11.328125 
Q 45.015625 15.765625 45.015625 23.390625 
Q 45.015625 31 40.078125 35.4375 
Q 35.15625 39.890625 26.703125 39.890625 
Q 22.75 39.890625 18.8125 39.015625 
Q 14.890625 38.140625 10.796875 36.28125 
z
" id="DejaVuSans-53"/>
      </defs>
      <g transform="translate(305.698438 463.158437)scale(0.1 -0.1)">
       <use xlink:href="#DejaVuSans-48"/>
       <use x="63.623047" xlink:href="#DejaVuSans-46"/>
       <use x="95.410156" xlink:href="#DejaVuSans-53"/>
      </g>
     </g>
    </g>
    <g id="xtick_7">
     <g id="line2d_13">
      <path clip-path="url(#pb3c1a39da8)" d="M 361.08 448.56 
L 361.08 60.48 
" style="fill:none;stroke:#b0b0b0;stroke-linecap:square;stroke-width:0.8;"/>
     </g>
     <g id="line2d_14">
      <g>
       <use style="stroke:#000000;stroke-width:0.8;" x="361.08" xlink:href="#mac20277237" y="448.56"/>
      </g>
     </g>
     <g id="text_7">
      <!-- 0.6 -->
      <defs>
       <path d="M 33.015625 40.375 
Q 26.375 40.375 22.484375 35.828125 
Q 18.609375 31.296875 18.609375 23.390625 
Q 18.609375 15.53125 22.484375 10.953125 
Q 26.375 6.390625 33.015625 6.390625 
Q 39.65625 6.390625 43.53125 10.953125 
Q 47.40625 15.53125 47.40625 23.390625 
Q 47.40625 31.296875 43.53125 35.828125 
Q 39.65625 40.375 33.015625 40.375 
z
M 52.59375 71.296875 
L 52.59375 62.3125 
Q 48.875 64.0625 45.09375 64.984375 
Q 41.3125 65.921875 37.59375 65.921875 
Q 27.828125 65.921875 22.671875 59.328125 
Q 17.53125 52.734375 16.796875 39.40625 
Q 19.671875 43.65625 24.015625 45.921875 
Q 28.375 48.1875 33.59375 48.1875 
Q 44.578125 48.1875 50.953125 41.515625 
Q 57.328125 34.859375 57.328125 23.390625 
Q 57.328125 12.15625 50.6875 5.359375 
Q 44.046875 -1.421875 33.015625 -1.421875 
Q 20.359375 -1.421875 13.671875 8.265625 
Q 6.984375 17.96875 6.984375 36.375 
Q 6.984375 53.65625 15.1875 63.9375 
Q 23.390625 74.21875 37.203125 74.21875 
Q 40.921875 74.21875 44.703125 73.484375 
Q 48.484375 72.75 52.59375 71.296875 
z
" id="DejaVuSans-54"/>
      </defs>
      <g transform="translate(353.128438 463.158437)scale(0.1 -0.1)">
       <use xlink:href="#DejaVuSans-48"/>
       <use x="63.623047" xlink:href="#DejaVuSans-46"/>
       <use x="95.410156" xlink:href="#DejaVuSans-54"/>
      </g>
     </g>
    </g>
    <g id="xtick_8">
     <g id="line2d_15">
      <path clip-path="url(#pb3c1a39da8)" d="M 408.51 448.56 
L 408.51 60.48 
" style="fill:none;stroke:#b0b0b0;stroke-linecap:square;stroke-width:0.8;"/>
     </g>
     <g id="line2d_16">
      <g>
       <use style="stroke:#000000;stroke-width:0.8;" x="408.51" xlink:href="#mac20277237" y="448.56"/>
      </g>
     </g>
     <g id="text_8">
      <!-- 0.7 -->
      <defs>
       <path d="M 8.203125 72.90625 
L 55.078125 72.90625 
L 55.078125 68.703125 
L 28.609375 0 
L 18.3125 0 
L 43.21875 64.59375 
L 8.203125 64.59375 
z
" id="DejaVuSans-55"/>
      </defs>
      <g transform="translate(400.558438 463.158437)scale(0.1 -0.1)">
       <use xlink:href="#DejaVuSans-48"/>
       <use x="63.623047" xlink:href="#DejaVuSans-46"/>
       <use x="95.410156" xlink:href="#DejaVuSans-55"/>
      </g>
     </g>
    </g>
    <g id="xtick_9">
     <g id="line2d_17">
      <path clip-path="url(#pb3c1a39da8)" d="M 455.94 448.56 
L 455.94 60.48 
" style="fill:none;stroke:#b0b0b0;stroke-linecap:square;stroke-width:0.8;"/>
     </g>
     <g id="line2d_18">
      <g>
       <use style="stroke:#000000;stroke-width:0.8;" x="455.94" xlink:href="#mac20277237" y="448.56"/>
      </g>
     </g>
     <g id="text_9">
      <!-- 0.8 -->
      <defs>
       <path d="M 31.78125 34.625 
Q 24.75 34.625 20.71875 30.859375 
Q 16.703125 27.09375 16.703125 20.515625 
Q 16.703125 13.921875 20.71875 10.15625 
Q 24.75 6.390625 31.78125 6.390625 
Q 38.8125 6.390625 42.859375 10.171875 
Q 46.921875 13.96875 46.921875 20.515625 
Q 46.921875 27.09375 42.890625 30.859375 
Q 38.875 34.625 31.78125 34.625 
z
M 21.921875 38.8125 
Q 15.578125 40.375 12.03125 44.71875 
Q 8.5 49.078125 8.5 55.328125 
Q 8.5 64.0625 14.71875 69.140625 
Q 20.953125 74.21875 31.78125 74.21875 
Q 42.671875 74.21875 48.875 69.140625 
Q 55.078125 64.0625 55.078125 55.328125 
Q 55.078125 49.078125 51.53125 44.71875 
Q 48 40.375 41.703125 38.8125 
Q 48.828125 37.15625 52.796875 32.3125 
Q 56.78125 27.484375 56.78125 20.515625 
Q 56.78125 9.90625 50.3125 4.234375 
Q 43.84375 -1.421875 31.78125 -1.421875 
Q 19.734375 -1.421875 13.25 4.234375 
Q 6.78125 9.90625 6.78125 20.515625 
Q 6.78125 27.484375 10.78125 32.3125 
Q 14.796875 37.15625 21.921875 38.8125 
z
M 18.3125 54.390625 
Q 18.3125 48.734375 21.84375 45.5625 
Q 25.390625 42.390625 31.78125 42.390625 
Q 38.140625 42.390625 41.71875 45.5625 
Q 45.3125 48.734375 45.3125 54.390625 
Q 45.3125 60.0625 41.71875 63.234375 
Q 38.140625 66.40625 31.78125 66.40625 
Q 25.390625 66.40625 21.84375 63.234375 
Q 18.3125 60.0625 18.3125 54.390625 
z
" id="DejaVuSans-56"/>
      </defs>
      <g transform="translate(447.988438 463.158437)scale(0.1 -0.1)">
       <use xlink:href="#DejaVuSans-48"/>
       <use x="63.623047" xlink:href="#DejaVuSans-46"/>
       <use x="95.410156" xlink:href="#DejaVuSans-56"/>
      </g>
     </g>
    </g>
    <g id="xtick_10">
     <g id="line2d_19">
      <path clip-path="url(#pb3c1a39da8)" d="M 503.37 448.56 
L 503.37 60.48 
" style="fill:none;stroke:#b0b0b0;stroke-linecap:square;stroke-width:0.8;"/>
     </g>
     <g id="line2d_20">
      <g>
       <use style="stroke:#000000;stroke-width:0.8;" x="503.37" xlink:href="#mac20277237" y="448.56"/>
      </g>
     </g>
     <g id="text_10">
      <!-- 0.9 -->
      <defs>
       <path d="M 10.984375 1.515625 
L 10.984375 10.5 
Q 14.703125 8.734375 18.5 7.8125 
Q 22.3125 6.890625 25.984375 6.890625 
Q 35.75 6.890625 40.890625 13.453125 
Q 46.046875 20.015625 46.78125 33.40625 
Q 43.953125 29.203125 39.59375 26.953125 
Q 35.25 24.703125 29.984375 24.703125 
Q 19.046875 24.703125 12.671875 31.3125 
Q 6.296875 37.9375 6.296875 49.421875 
Q 6.296875 60.640625 12.9375 67.421875 
Q 19.578125 74.21875 30.609375 74.21875 
Q 43.265625 74.21875 49.921875 64.515625 
Q 56.59375 54.828125 56.59375 36.375 
Q 56.59375 19.140625 48.40625 8.859375 
Q 40.234375 -1.421875 26.421875 -1.421875 
Q 22.703125 -1.421875 18.890625 -0.6875 
Q 15.09375 0.046875 10.984375 1.515625 
z
M 30.609375 32.421875 
Q 37.25 32.421875 41.125 36.953125 
Q 45.015625 41.5 45.015625 49.421875 
Q 45.015625 57.28125 41.125 61.84375 
Q 37.25 66.40625 30.609375 66.40625 
Q 23.96875 66.40625 20.09375 61.84375 
Q 16.21875 57.28125 16.21875 49.421875 
Q 16.21875 41.5 20.09375 36.953125 
Q 23.96875 32.421875 30.609375 32.421875 
z
" id="DejaVuSans-57"/>
      </defs>
      <g transform="translate(495.418438 463.158437)scale(0.1 -0.1)">
       <use xlink:href="#DejaVuSans-48"/>
       <use x="63.623047" xlink:href="#DejaVuSans-46"/>
       <use x="95.410156" xlink:href="#DejaVuSans-57"/>
      </g>
     </g>
    </g>
    <g id="xtick_11">
     <g id="line2d_21">
      <path clip-path="url(#pb3c1a39da8)" d="M 550.8 448.56 
L 550.8 60.48 
" style="fill:none;stroke:#b0b0b0;stroke-linecap:square;stroke-width:0.8;"/>
     </g>
     <g id="line2d_22">
      <g>
       <use style="stroke:#000000;stroke-width:0.8;" x="550.8" xlink:href="#mac20277237" y="448.56"/>
      </g>
     </g>
     <g id="text_11">
      <!-- 1.0 -->
      <g transform="translate(542.848438 463.158437)scale(0.1 -0.1)">
       <use xlink:href="#DejaVuSans-49"/>
       <use x="63.623047" xlink:href="#DejaVuSans-46"/>
       <use x="95.410156" xlink:href="#DejaVuSans-48"/>
      </g>
     </g>
    </g>
    <g id="text_12">
     <!-- 1-precision -->
     <defs>
      <path d="M 4.890625 31.390625 
L 31.203125 31.390625 
L 31.203125 23.390625 
L 4.890625 23.390625 
z
" id="DejaVuSans-45"/>
      <path d="M 18.109375 8.203125 
L 18.109375 -20.796875 
L 9.078125 -20.796875 
L 9.078125 54.6875 
L 18.109375 54.6875 
L 18.109375 46.390625 
Q 20.953125 51.265625 25.265625 53.625 
Q 29.59375 56 35.59375 56 
Q 45.5625 56 51.78125 48.09375 
Q 58.015625 40.1875 58.015625 27.296875 
Q 58.015625 14.40625 51.78125 6.484375 
Q 45.5625 -1.421875 35.59375 -1.421875 
Q 29.59375 -1.421875 25.265625 0.953125 
Q 20.953125 3.328125 18.109375 8.203125 
z
M 48.6875 27.296875 
Q 48.6875 37.203125 44.609375 42.84375 
Q 40.53125 48.484375 33.40625 48.484375 
Q 26.265625 48.484375 22.1875 42.84375 
Q 18.109375 37.203125 18.109375 27.296875 
Q 18.109375 17.390625 22.1875 11.75 
Q 26.265625 6.109375 33.40625 6.109375 
Q 40.53125 6.109375 44.609375 11.75 
Q 48.6875 17.390625 48.6875 27.296875 
z
" id="DejaVuSans-112"/>
      <path d="M 41.109375 46.296875 
Q 39.59375 47.171875 37.8125 47.578125 
Q 36.03125 48 33.890625 48 
Q 26.265625 48 22.1875 43.046875 
Q 18.109375 38.09375 18.109375 28.8125 
L 18.109375 0 
L 9.078125 0 
L 9.078125 54.6875 
L 18.109375 54.6875 
L 18.109375 46.1875 
Q 20.953125 51.171875 25.484375 53.578125 
Q 30.03125 56 36.53125 56 
Q 37.453125 56 38.578125 55.875 
Q 39.703125 55.765625 41.0625 55.515625 
z
" id="DejaVuSans-114"/>
      <path d="M 56.203125 29.59375 
L 56.203125 25.203125 
L 14.890625 25.203125 
Q 15.484375 15.921875 20.484375 11.0625 
Q 25.484375 6.203125 34.421875 6.203125 
Q 39.59375 6.203125 44.453125 7.46875 
Q 49.3125 8.734375 54.109375 11.28125 
L 54.109375 2.78125 
Q 49.265625 0.734375 44.1875 -0.34375 
Q 39.109375 -1.421875 33.890625 -1.421875 
Q 20.796875 -1.421875 13.15625 6.1875 
Q 5.515625 13.8125 5.515625 26.8125 
Q 5.515625 40.234375 12.765625 48.109375 
Q 20.015625 56 32.328125 56 
Q 43.359375 56 49.78125 48.890625 
Q 56.203125 41.796875 56.203125 29.59375 
z
M 47.21875 32.234375 
Q 47.125 39.59375 43.09375 43.984375 
Q 39.0625 48.390625 32.421875 48.390625 
Q 24.90625 48.390625 20.390625 44.140625 
Q 15.875 39.890625 15.1875 32.171875 
z
" id="DejaVuSans-101"/>
      <path d="M 48.78125 52.59375 
L 48.78125 44.1875 
Q 44.96875 46.296875 41.140625 47.34375 
Q 37.3125 48.390625 33.40625 48.390625 
Q 24.65625 48.390625 19.8125 42.84375 
Q 14.984375 37.3125 14.984375 27.296875 
Q 14.984375 17.28125 19.8125 11.734375 
Q 24.65625 6.203125 33.40625 6.203125 
Q 37.3125 6.203125 41.140625 7.25 
Q 44.96875 8.296875 48.78125 10.40625 
L 48.78125 2.09375 
Q 45.015625 0.34375 40.984375 -0.53125 
Q 36.96875 -1.421875 32.421875 -1.421875 
Q 20.0625 -1.421875 12.78125 6.34375 
Q 5.515625 14.109375 5.515625 27.296875 
Q 5.515625 40.671875 12.859375 48.328125 
Q 20.21875 56 33.015625 56 
Q 37.15625 56 41.109375 55.140625 
Q 45.0625 54.296875 48.78125 52.59375 
z
" id="DejaVuSans-99"/>
      <path d="M 9.421875 54.6875 
L 18.40625 54.6875 
L 18.40625 0 
L 9.421875 0 
z
M 9.421875 75.984375 
L 18.40625 75.984375 
L 18.40625 64.59375 
L 9.421875 64.59375 
z
" id="DejaVuSans-105"/>
      <path d="M 44.28125 53.078125 
L 44.28125 44.578125 
Q 40.484375 46.53125 36.375 47.5 
Q 32.28125 48.484375 27.875 48.484375 
Q 21.1875 48.484375 17.84375 46.4375 
Q 14.5 44.390625 14.5 40.28125 
Q 14.5 37.15625 16.890625 35.375 
Q 19.28125 33.59375 26.515625 31.984375 
L 29.59375 31.296875 
Q 39.15625 29.25 43.1875 25.515625 
Q 47.21875 21.78125 47.21875 15.09375 
Q 47.21875 7.46875 41.1875 3.015625 
Q 35.15625 -1.421875 24.609375 -1.421875 
Q 20.21875 -1.421875 15.453125 -0.5625 
Q 10.6875 0.296875 5.421875 2 
L 5.421875 11.28125 
Q 10.40625 8.6875 15.234375 7.390625 
Q 20.0625 6.109375 24.8125 6.109375 
Q 31.15625 6.109375 34.5625 8.28125 
Q 37.984375 10.453125 37.984375 14.40625 
Q 37.984375 18.0625 35.515625 20.015625 
Q 33.0625 21.96875 24.703125 23.78125 
L 21.578125 24.515625 
Q 13.234375 26.265625 9.515625 29.90625 
Q 5.8125 33.546875 5.8125 39.890625 
Q 5.8125 47.609375 11.28125 51.796875 
Q 16.75 56 26.8125 56 
Q 31.78125 56 36.171875 55.265625 
Q 40.578125 54.546875 44.28125 53.078125 
z
" id="DejaVuSans-115"/>
      <path d="M 30.609375 48.390625 
Q 23.390625 48.390625 19.1875 42.75 
Q 14.984375 37.109375 14.984375 27.296875 
Q 14.984375 17.484375 19.15625 11.84375 
Q 23.34375 6.203125 30.609375 6.203125 
Q 37.796875 6.203125 41.984375 11.859375 
Q 46.1875 17.53125 46.1875 27.296875 
Q 46.1875 37.015625 41.984375 42.703125 
Q 37.796875 48.390625 30.609375 48.390625 
z
M 30.609375 56 
Q 42.328125 56 49.015625 48.375 
Q 55.71875 40.765625 55.71875 27.296875 
Q 55.71875 13.875 49.015625 6.21875 
Q 42.328125 -1.421875 30.609375 -1.421875 
Q 18.84375 -1.421875 12.171875 6.21875 
Q 5.515625 13.875 5.515625 27.296875 
Q 5.515625 40.765625 12.171875 48.375 
Q 18.84375 56 30.609375 56 
z
" id="DejaVuSans-111"/>
      <path d="M 54.890625 33.015625 
L 54.890625 0 
L 45.90625 0 
L 45.90625 32.71875 
Q 45.90625 40.484375 42.875 44.328125 
Q 39.84375 48.1875 33.796875 48.1875 
Q 26.515625 48.1875 22.3125 43.546875 
Q 18.109375 38.921875 18.109375 30.90625 
L 18.109375 0 
L 9.078125 0 
L 9.078125 54.6875 
L 18.109375 54.6875 
L 18.109375 46.1875 
Q 21.34375 51.125 25.703125 53.5625 
Q 30.078125 56 35.796875 56 
Q 45.21875 56 50.046875 50.171875 
Q 54.890625 44.34375 54.890625 33.015625 
z
" id="DejaVuSans-110"/>
     </defs>
     <g transform="translate(286.110938 476.836563)scale(0.1 -0.1)">
      <use xlink:href="#DejaVuSans-49"/>
      <use x="63.623047" xlink:href="#DejaVuSans-45"/>
      <use x="99.707031" xlink:href="#DejaVuSans-112"/>
      <use x="163.183594" xlink:href="#DejaVuSans-114"/>
      <use x="202.046875" xlink:href="#DejaVuSans-101"/>
      <use x="263.570312" xlink:href="#DejaVuSans-99"/>
      <use x="318.550781" xlink:href="#DejaVuSans-105"/>
      <use x="346.333984" xlink:href="#DejaVuSans-115"/>
      <use x="398.433594" xlink:href="#DejaVuSans-105"/>
      <use x="426.216797" xlink:href="#DejaVuSans-111"/>
      <use x="487.398438" xlink:href="#DejaVuSans-110"/>
     </g>
    </g>
   </g>
   <g id="matplotlib.axis_2">
    <g id="ytick_1">
     <g id="line2d_23">
      <path clip-path="url(#pb3c1a39da8)" d="M 76.5 448.56 
L 550.8 448.56 
" style="fill:none;stroke:#b0b0b0;stroke-linecap:square;stroke-width:0.8;"/>
     </g>
     <g id="line2d_24">
      <defs>
       <path d="M 0 0 
L -3.5 0 
" id="m985e51f952" style="stroke:#000000;stroke-width:0.8;"/>
      </defs>
      <g>
       <use style="stroke:#000000;stroke-width:0.8;" x="76.5" xlink:href="#m985e51f952" y="448.56"/>
      </g>
     </g>
     <g id="text_13">
      <!-- 0.0 -->
      <g transform="translate(53.596875 452.359219)scale(0.1 -0.1)">
       <use xlink:href="#DejaVuSans-48"/>
       <use x="63.623047" xlink:href="#DejaVuSans-46"/>
       <use x="95.410156" xlink:href="#DejaVuSans-48"/>
      </g>
     </g>
    </g>
    <g id="ytick_2">
     <g id="line2d_25">
      <path clip-path="url(#pb3c1a39da8)" d="M 76.5 409.752 
L 550.8 409.752 
" style="fill:none;stroke:#b0b0b0;stroke-linecap:square;stroke-width:0.8;"/>
     </g>
     <g id="line2d_26">
      <g>
       <use style="stroke:#000000;stroke-width:0.8;" x="76.5" xlink:href="#m985e51f952" y="409.752"/>
      </g>
     </g>
     <g id="text_14">
      <!-- 0.1 -->
      <g transform="translate(53.596875 413.551219)scale(0.1 -0.1)">
       <use xlink:href="#DejaVuSans-48"/>
       <use x="63.623047" xlink:href="#DejaVuSans-46"/>
       <use x="95.410156" xlink:href="#DejaVuSans-49"/>
      </g>
     </g>
    </g>
    <g id="ytick_3">
     <g id="line2d_27">
      <path clip-path="url(#pb3c1a39da8)" d="M 76.5 370.944 
L 550.8 370.944 
" style="fill:none;stroke:#b0b0b0;stroke-linecap:square;stroke-width:0.8;"/>
     </g>
     <g id="line2d_28">
      <g>
       <use style="stroke:#000000;stroke-width:0.8;" x="76.5" xlink:href="#m985e51f952" y="370.944"/>
      </g>
     </g>
     <g id="text_15">
      <!-- 0.2 -->
      <g transform="translate(53.596875 374.743219)scale(0.1 -0.1)">
       <use xlink:href="#DejaVuSans-48"/>
       <use x="63.623047" xlink:href="#DejaVuSans-46"/>
       <use x="95.410156" xlink:href="#DejaVuSans-50"/>
      </g>
     </g>
    </g>
    <g id="ytick_4">
     <g id="line2d_29">
      <path clip-path="url(#pb3c1a39da8)" d="M 76.5 332.136 
L 550.8 332.136 
" style="fill:none;stroke:#b0b0b0;stroke-linecap:square;stroke-width:0.8;"/>
     </g>
     <g id="line2d_30">
      <g>
       <use style="stroke:#000000;stroke-width:0.8;" x="76.5" xlink:href="#m985e51f952" y="332.136"/>
      </g>
     </g>
     <g id="text_16">
      <!-- 0.3 -->
      <g transform="translate(53.596875 335.935219)scale(0.1 -0.1)">
       <use xlink:href="#DejaVuSans-48"/>
       <use x="63.623047" xlink:href="#DejaVuSans-46"/>
       <use x="95.410156" xlink:href="#DejaVuSans-51"/>
      </g>
     </g>
    </g>
    <g id="ytick_5">
     <g id="line2d_31">
      <path clip-path="url(#pb3c1a39da8)" d="M 76.5 293.328 
L 550.8 293.328 
" style="fill:none;stroke:#b0b0b0;stroke-linecap:square;stroke-width:0.8;"/>
     </g>
     <g id="line2d_32">
      <g>
       <use style="stroke:#000000;stroke-width:0.8;" x="76.5" xlink:href="#m985e51f952" y="293.328"/>
      </g>
     </g>
     <g id="text_17">
      <!-- 0.4 -->
      <g transform="translate(53.596875 297.127219)scale(0.1 -0.1)">
       <use xlink:href="#DejaVuSans-48"/>
       <use x="63.623047" xlink:href="#DejaVuSans-46"/>
       <use x="95.410156" xlink:href="#DejaVuSans-52"/>
      </g>
     </g>
    </g>
    <g id="ytick_6">
     <g id="line2d_33">
      <path clip-path="url(#pb3c1a39da8)" d="M 76.5 254.52 
L 550.8 254.52 
" style="fill:none;stroke:#b0b0b0;stroke-linecap:square;stroke-width:0.8;"/>
     </g>
     <g id="line2d_34">
      <g>
       <use style="stroke:#000000;stroke-width:0.8;" x="76.5" xlink:href="#m985e51f952" y="254.52"/>
      </g>
     </g>
     <g id="text_18">
      <!-- 0.5 -->
      <g transform="translate(53.596875 258.319219)scale(0.1 -0.1)">
       <use xlink:href="#DejaVuSans-48"/>
       <use x="63.623047" xlink:href="#DejaVuSans-46"/>
       <use x="95.410156" xlink:href="#DejaVuSans-53"/>
      </g>
     </g>
    </g>
    <g id="ytick_7">
     <g id="line2d_35">
      <path clip-path="url(#pb3c1a39da8)" d="M 76.5 215.712 
L 550.8 215.712 
" style="fill:none;stroke:#b0b0b0;stroke-linecap:square;stroke-width:0.8;"/>
     </g>
     <g id="line2d_36">
      <g>
       <use style="stroke:#000000;stroke-width:0.8;" x="76.5" xlink:href="#m985e51f952" y="215.712"/>
      </g>
     </g>
     <g id="text_19">
      <!-- 0.6 -->
      <g transform="translate(53.596875 219.511219)scale(0.1 -0.1)">
       <use xlink:href="#DejaVuSans-48"/>
       <use x="63.623047" xlink:href="#DejaVuSans-46"/>
       <use x="95.410156" xlink:href="#DejaVuSans-54"/>
      </g>
     </g>
    </g>
    <g id="ytick_8">
     <g id="line2d_37">
      <path clip-path="url(#pb3c1a39da8)" d="M 76.5 176.904 
L 550.8 176.904 
" style="fill:none;stroke:#b0b0b0;stroke-linecap:square;stroke-width:0.8;"/>
     </g>
     <g id="line2d_38">
      <g>
       <use style="stroke:#000000;stroke-width:0.8;" x="76.5" xlink:href="#m985e51f952" y="176.904"/>
      </g>
     </g>
     <g id="text_20">
      <!-- 0.7 -->
      <g transform="translate(53.596875 180.703219)scale(0.1 -0.1)">
       <use xlink:href="#DejaVuSans-48"/>
       <use x="63.623047" xlink:href="#DejaVuSans-46"/>
       <use x="95.410156" xlink:href="#DejaVuSans-55"/>
      </g>
     </g>
    </g>
    <g id="ytick_9">
     <g id="line2d_39">
      <path clip-path="url(#pb3c1a39da8)" d="M 76.5 138.096 
L 550.8 138.096 
" style="fill:none;stroke:#b0b0b0;stroke-linecap:square;stroke-width:0.8;"/>
     </g>
     <g id="line2d_40">
      <g>
       <use style="stroke:#000000;stroke-width:0.8;" x="76.5" xlink:href="#m985e51f952" y="138.096"/>
      </g>
     </g>
     <g id="text_21">
      <!-- 0.8 -->
      <g transform="translate(53.596875 141.895219)scale(0.1 -0.1)">
       <use xlink:href="#DejaVuSans-48"/>
       <use x="63.623047" xlink:href="#DejaVuSans-46"/>
       <use x="95.410156" xlink:href="#DejaVuSans-56"/>
      </g>
     </g>
    </g>
    <g id="ytick_10">
     <g id="line2d_41">
      <path clip-path="url(#pb3c1a39da8)" d="M 76.5 99.288 
L 550.8 99.288 
" style="fill:none;stroke:#b0b0b0;stroke-linecap:square;stroke-width:0.8;"/>
     </g>
     <g id="line2d_42">
      <g>
       <use style="stroke:#000000;stroke-width:0.8;" x="76.5" xlink:href="#m985e51f952" y="99.288"/>
      </g>
     </g>
     <g id="text_22">
      <!-- 0.9 -->
      <g transform="translate(53.596875 103.087219)scale(0.1 -0.1)">
       <use xlink:href="#DejaVuSans-48"/>
       <use x="63.623047" xlink:href="#DejaVuSans-46"/>
       <use x="95.410156" xlink:href="#DejaVuSans-57"/>
      </g>
     </g>
    </g>
    <g id="ytick_11">
     <g id="line2d_43">
      <path clip-path="url(#pb3c1a39da8)" d="M 76.5 60.48 
L 550.8 60.48 
" style="fill:none;stroke:#b0b0b0;stroke-linecap:square;stroke-width:0.8;"/>
     </g>
     <g id="line2d_44">
      <g>
       <use style="stroke:#000000;stroke-width:0.8;" x="76.5" xlink:href="#m985e51f952" y="60.48"/>
      </g>
     </g>
     <g id="text_23">
      <!-- 1.0 -->
      <g transform="translate(53.596875 64.279219)scale(0.1 -0.1)">
       <use xlink:href="#DejaVuSans-49"/>
       <use x="63.623047" xlink:href="#DejaVuSans-46"/>
       <use x="95.410156" xlink:href="#DejaVuSans-48"/>
      </g>
     </g>
    </g>
    <g id="text_24">
     <!-- #correct/618 -->
     <defs>
      <path d="M 51.125 44 
L 36.921875 44 
L 32.8125 27.6875 
L 47.125 27.6875 
z
M 43.796875 71.78125 
L 38.71875 51.515625 
L 52.984375 51.515625 
L 58.109375 71.78125 
L 65.921875 71.78125 
L 60.890625 51.515625 
L 76.125 51.515625 
L 76.125 44 
L 58.984375 44 
L 54.984375 27.6875 
L 70.515625 27.6875 
L 70.515625 20.21875 
L 53.078125 20.21875 
L 48 0 
L 40.1875 0 
L 45.21875 20.21875 
L 30.90625 20.21875 
L 25.875 0 
L 18.015625 0 
L 23.09375 20.21875 
L 7.71875 20.21875 
L 7.71875 27.6875 
L 24.90625 27.6875 
L 29 44 
L 13.28125 44 
L 13.28125 51.515625 
L 30.90625 51.515625 
L 35.890625 71.78125 
z
" id="DejaVuSans-35"/>
      <path d="M 18.3125 70.21875 
L 18.3125 54.6875 
L 36.8125 54.6875 
L 36.8125 47.703125 
L 18.3125 47.703125 
L 18.3125 18.015625 
Q 18.3125 11.328125 20.140625 9.421875 
Q 21.96875 7.515625 27.59375 7.515625 
L 36.8125 7.515625 
L 36.8125 0 
L 27.59375 0 
Q 17.1875 0 13.234375 3.875 
Q 9.28125 7.765625 9.28125 18.015625 
L 9.28125 47.703125 
L 2.6875 47.703125 
L 2.6875 54.6875 
L 9.28125 54.6875 
L 9.28125 70.21875 
z
" id="DejaVuSans-116"/>
      <path d="M 25.390625 72.90625 
L 33.6875 72.90625 
L 8.296875 -9.28125 
L 0 -9.28125 
z
" id="DejaVuSans-47"/>
     </defs>
     <g transform="translate(47.517187 287.443438)rotate(-90)scale(0.1 -0.1)">
      <use xlink:href="#DejaVuSans-35"/>
      <use x="83.789062" xlink:href="#DejaVuSans-99"/>
      <use x="138.769531" xlink:href="#DejaVuSans-111"/>
      <use x="199.951172" xlink:href="#DejaVuSans-114"/>
      <use x="239.314453" xlink:href="#DejaVuSans-114"/>
      <use x="278.177734" xlink:href="#DejaVuSans-101"/>
      <use x="339.701172" xlink:href="#DejaVuSans-99"/>
      <use x="394.681641" xlink:href="#DejaVuSans-116"/>
      <use x="433.890625" xlink:href="#DejaVuSans-47"/>
      <use x="467.582031" xlink:href="#DejaVuSans-54"/>
      <use x="531.205078" xlink:href="#DejaVuSans-49"/>
      <use x="594.828125" xlink:href="#DejaVuSans-56"/>
     </g>
    </g>
   </g>
   <g id="line2d_45">
    <path clip-path="url(#pb3c1a39da8)" d="M 550.8 448.56 
L 313.65 447.932039 
L 234.6 447.304078 
L 313.65 447.304078 
L 266.22 446.676117 
L 313.65 446.676117 
L 279.771429 446.048155 
L 361.08 446.048155 
L 335.209091 445.420194 
L 411.3 445.420194 
L 392.7 444.792233 
L 455.94 444.792233 
L 443.7 444.164272 
L 447.046875 444.164272 
L 435.818182 443.536311 
L 474.912 443.536311 
L 459.588462 442.280388 
L 494.335714 442.280388 
L 489.42 441.652427 
L 490.133721 441.652427 
L 493.467033 441.652427 
L 488.934783 441.024466 
L 489.6 441.024466 
L 492.123711 441.024466 
L 487.882653 440.396505 
L 488.518182 440.396505 
L 489.751485 440.396505 
L 485.7 439.768544 
L 486.332039 439.768544 
L 488.742056 439.768544 
L 484.925 439.140583 
L 485.529358 439.140583 
L 487.839823 439.140583 
L 484.231579 438.512621 
L 484.810435 438.512621 
L 490.571429 438.512621 
L 487.311024 437.88466 
L 487.807031 437.88466 
L 495.573288 437.88466 
L 492.722449 437.256699 
L 493.114865 437.256699 
L 499.36988 437.256699 
L 496.837725 436.628738 
L 497.158929 436.628738 
L 499.597159 436.628738 
L 497.20678 436.000777 
L 497.507865 436.000777 
L 498.39116 436.000777 
L 496.073077 435.372816 
L 496.372131 435.372816 
L 496.667935 435.372816 
L 494.396757 434.744854 
L 494.7 434.744854 
L 495.590476 434.744854 
L 493.384737 434.116893 
L 493.68534 434.116893 
L 497.585854 434.116893 
L 495.541748 433.488932 
L 495.808696 433.488932 
L 499.058182 433.488932 
L 497.146154 432.860971 
L 497.387838 432.860971 
L 501.187029 432.860971 
L 499.4175 432.23301 
L 499.630705 432.23301 
L 503.911027 432.23301 
L 500.873684 430.977087 
L 501.246269 430.977087 
L 499.667286 430.349126 
L 499.856667 430.349126 
L 501.5 430.349126 
L 499.982143 429.721165 
L 500.162989 429.721165 
L 501.39375 429.721165 
L 497.197603 427.837282 
L 498.627 427.837282 
L 497.224585 427.20932 
L 497.401987 427.20932 
L 497.578218 427.20932 
L 496.193092 426.581359 
L 496.372131 426.581359 
L 496.902273 426.581359 
L 495.541748 425.953398 
L 495.72 425.953398 
L 497.607477 425.953398 
L 496.299689 425.325437 
L 496.468421 425.325437 
L 496.802769 425.325437 
L 494.23211 424.069515 
L 494.404573 424.069515 
L 498.398584 424.069515 
L 497.20678 423.441553 
L 497.357746 423.441553 
L 499.524324 423.441553 
L 498.384097 422.813592 
L 498.525 422.813592 
L 499.218302 422.813592 
L 498.1 422.185631 
L 498.23905 422.185631 
L 499.058182 422.185631 
L 496.874419 420.929709 
L 497.013402 420.929709 
L 498.496241 420.929709 
L 497.44125 420.301748 
L 497.574314 420.301748 
L 500.697887 420.301748 
L 499.70445 419.673786 
L 499.823832 419.673786 
L 502.637086 419.673786 
L 500.763956 418.417864 
L 500.873684 418.417864 
L 501.307826 418.417864 
L 500.386334 417.789903 
L 500.495455 417.789903 
L 501.140385 417.789903 
L 498.435669 415.906019 
L 498.54661 415.906019 
L 498.985714 415.906019 
L 497.329854 414.650097 
L 497.772671 414.650097 
L 496.902273 414.022136 
L 497.013402 414.022136 
L 497.670672 414.022136 
L 496.814634 413.394175 
L 496.924138 413.394175 
L 497.033198 413.394175 
L 496.183636 412.766214 
L 496.29375 412.766214 
L 496.512651 412.766214 
L 495.670942 412.138252 
L 495.7812 412.138252 
L 497.175439 412.138252 
L 496.357004 411.510291 
L 496.462718 411.510291 
L 497.800568 411.510291 
L 497.004159 410.88233 
L 497.10566 410.88233 
L 497.40788 410.88233 
L 495.93694 409.626408 
L 496.039106 409.626408 
L 493.813863 407.742524 
L 494.335714 407.742524 
L 493.571846 407.114563 
L 493.676277 407.114563 
L 494.396757 407.114563 
L 492.15 405.23068 
L 492.254919 405.23068 
L 492.67087 405.23068 
L 491.932979 404.602718 
L 492.037168 404.602718 
L 492.756294 404.602718 
L 492.029843 403.974757 
L 492.13223 403.974757 
L 493.235385 403.974757 
L 492.524232 403.346796 
L 492.623509 403.346796 
L 493.017259 403.346796 
L 492.313682 402.718835 
L 492.41231 402.718835 
L 492.900502 402.718835 
L 492.205342 402.090874 
L 492.303 402.090874 
L 492.786446 402.090874 
L 492.099505 401.462913 
L 492.196211 401.462913 
L 492.292599 401.462913 
L 490.929344 400.20699 
L 491.027332 400.20699 
L 491.319381 400.20699 
L 490.071151 398.951068 
L 490.752404 398.951068 
L 490.0896 398.323107 
L 490.186581 398.323107 
L 491.045669 398.323107 
L 490.393868 397.695146 
L 490.488697 397.695146 
L 490.677465 397.695146 
L 490.030313 397.067184 
L 490.125117 397.067184 
L 492.577545 397.067184 
L 491.955605 396.439223 
L 492.043433 396.439223 
L 492.478667 396.439223 
L 491.249778 395.183301 
L 491.337611 395.183301 
L 491.686364 395.183301 
L 491.078477 394.55534 
L 491.165789 394.55534 
L 491.94026 394.55534 
L 491.341643 393.927379 
L 491.427194 393.927379 
L 492.269362 393.927379 
L 491.680453 393.299417 
L 491.764074 393.299417 
L 492.587448 393.299417 
L 492.007939 392.671456 
L 492.089708 392.671456 
L 492.735763 392.671456 
L 492.164011 392.043495 
L 492.244444 392.043495 
L 492.404651 392.043495 
L 491.836475 391.415534 
L 491.916917 391.415534 
L 492.315854 391.415534 
L 491.75318 390.787573 
L 491.832973 390.787573 
L 491.912551 390.787573 
L 491.352695 390.159612 
L 491.432705 390.159612 
L 492.376291 390.159612 
L 491.277543 388.903689 
L 491.356069 388.903689 
L 491.434387 388.903689 
L 490.888421 388.275728 
L 490.967148 388.275728 
L 491.202094 388.275728 
L 490.66 387.647767 
L 490.738512 387.647767 
L 492.042529 387.647767 
L 491.5125 387.019806 
L 491.588025 387.019806 
L 491.888213 387.019806 
L 491.362405 386.391845 
L 491.437547 386.391845 
L 492.83 386.391845 
L 492.316646 385.763883 
L 492.38867 385.763883 
L 492.532187 385.763883 
L 492.021718 385.135922 
L 492.09375 385.135922 
L 493.703099 385.135922 
L 492.848754 383.88 
L 493.460915 383.88 
L 492.972098 383.252039 
L 493.107368 383.252039 
L 493.376019 383.252039 
L 492.891279 382.624078 
L 493.025638 382.624078 
L 493.092584 382.624078 
L 491.717647 380.740194 
L 491.785714 380.740194 
L 491.921379 380.740194 
L 491.444432 380.112233 
L 491.580412 380.112233 
L 491.715771 380.112233 
L 491.241781 379.484272 
L 491.377449 379.484272 
L 491.445051 379.484272 
L 490.973523 378.856311 
L 491.109184 378.856311 
L 491.44566 378.856311 
L 490.978378 378.22835 
L 491.112809 378.22835 
L 491.446257 378.22835 
L 490.983147 377.600388 
L 491.11637 377.600388 
L 491.249 377.600388 
L 490.788679 376.972427 
L 490.921595 376.972427 
L 491.119868 376.972427 
L 490.662734 376.344466 
L 490.79505 376.344466 
L 490.926784 376.344466 
L 490.085449 375.088544 
L 490.151803 375.088544 
L 490.218013 375.088544 
L 489.766848 374.460583 
L 489.899674 374.460583 
L 489.96587 374.460583 
L 489.516938 373.832621 
L 489.649729 373.832621 
L 490.240236 373.832621 
L 489.796785 373.20466 
L 489.927273 373.20466 
L 489.992308 373.20466 
L 489.110661 371.948738 
L 489.241915 371.948738 
L 489.437752 371.948738 
L 488.56381 370.692816 
L 488.695248 370.692816 
L 488.760759 370.692816 
L 488.326344 370.064854 
L 488.457729 370.064854 
L 488.913257 370.064854 
L 488.483212 369.436893 
L 488.612903 369.436893 
L 488.998759 369.436893 
L 488.572624 368.808932 
L 488.700928 368.808932 
L 488.764882 368.808932 
L 488.340741 368.180971 
L 488.468994 368.180971 
L 488.532923 368.180971 
L 487.818386 366.925049 
L 488.010794 366.925049 
L 487.17439 365.669126 
L 487.303448 365.669126 
L 487.496057 365.669126 
L 486.73125 364.413204 
L 486.79577 364.413204 
L 486.988554 364.413204 
L 486.57683 363.785243 
L 486.705405 363.785243 
L 486.897305 363.785243 
L 485.736978 361.901359 
L 485.801589 361.901359 
L 486.377362 361.901359 
L 485.974336 361.273398 
L 486.10157 361.273398 
L 486.228306 361.273398 
L 485.827397 360.645437 
L 485.954297 360.645437 
L 486.767213 360.645437 
L 486.371965 360.017476 
L 486.495865 360.017476 
L 486.864723 360.017476 
L 486.472779 359.389515 
L 486.595424 359.389515 
L 486.717602 359.389515 
L 486.327662 358.761553 
L 486.45 358.761553 
L 486.571875 358.761553 
L 485.858074 357.505631 
L 485.91934 357.505631 
L 486.645616 357.505631 
L 486.263374 356.87767 
L 486.383442 356.87767 
L 486.503064 356.87767 
L 486.122727 356.249709 
L 486.2425 356.249709 
L 486.54 356.249709 
L 485.845313 354.993786 
L 485.904959 354.993786 
L 486.201554 354.993786 
L 485.827397 354.365825 
L 485.945852 354.365825 
L 486.063876 354.365825 
L 485.691545 353.737864 
L 485.80971 353.737864 
L 486.567444 353.737864 
L 486.2 353.109903 
L 486.315564 353.109903 
L 486.602671 353.109903 
L 485.625798 351.226019 
L 486.141689 351.226019 
L 485.781722 350.598058 
L 485.895789 350.598058 
L 486.179214 350.598058 
L 485.464865 349.342136 
L 485.57859 349.342136 
L 485.635304 349.342136 
L 484.685455 347.458252 
L 484.799741 347.458252 
L 484.44715 346.830291 
L 484.561552 346.830291 
L 484.618605 346.830291 
L 484.267384 346.20233 
L 484.381701 346.20233 
L 484.495626 346.20233 
L 483.85432 344.946408 
L 483.911538 344.946408 
L 484.309346 344.946408 
L 483.329721 343.062524 
L 483.386802 343.062524 
L 483.500676 343.062524 
L 482.814334 341.806602 
L 482.928788 341.806602 
L 483.099748 341.806602 
L 482.758641 341.178641 
L 482.872613 341.178641 
L 483.21225 341.178641 
L 482.873605 340.55068 
L 482.986534 340.55068 
L 483.042857 340.55068 
L 482.146154 338.666796 
L 482.372547 338.666796 
L 482.038221 338.038835 
L 482.151316 338.038835 
L 482.711256 338.038835 
L 482.380196 337.410874 
L 482.491538 337.410874 
L 482.823401 337.410874 
L 482.49466 336.782913 
L 482.605008 336.782913 
L 483.313669 336.782913 
L 482.988738 336.154951 
L 483.09689 336.154951 
L 483.738626 336.154951 
L 483.417206 335.52699 
L 483.523404 335.52699 
L 483.84 335.52699 
L 483.520768 334.899029 
L 483.626056 334.899029 
L 484.302479 334.899029 
L 483.986842 334.271068 
L 484.090108 334.271068 
L 484.703063 334.271068 
L 484.390742 333.643107 
L 484.492208 333.643107 
L 486.314933 333.643107 
L 486.01069 333.015146 
L 486.106746 333.015146 
L 487.65152 333.015146 
L 487.35423 332.387184 
L 487.445848 332.387184 
L 487.719123 332.387184 
L 487.128715 331.131262 
L 487.22 331.131262 
L 487.717425 331.131262 
L 487.42516 330.503301 
L 487.515117 330.503301 
L 487.694268 330.503301 
L 487.403465 329.87534 
L 487.493008 329.87534 
L 487.62685 329.87534 
L 487.337324 329.247379 
L 487.426582 329.247379 
L 488.693177 329.247379 
L 488.409298 328.619417 
L 488.495117 328.619417 
L 489.21516 328.619417 
L 488.934783 327.991456 
L 489.018725 327.991456 
L 489.227586 327.991456 
L 488.948716 327.363495 
L 489.032186 327.363495 
L 489.239879 327.363495 
L 488.9625 326.735534 
L 489.045503 326.735534 
L 490.304142 326.735534 
L 489.880734 325.479612 
L 489.960471 325.479612 
L 489.690059 324.85165 
L 489.809726 324.85165 
L 489.889244 324.85165 
L 489.350977 323.595728 
L 489.47076 323.595728 
L 489.510584 323.595728 
L 488.787961 321.711845 
L 490.084791 321.711845 
L 489.822863 321.083883 
L 489.938496 321.083883 
L 490.091992 321.083883 
L 489.609629 319.827961 
L 489.686549 319.827961 
L 489.724937 319.827961 
L 489.322167 318.572039 
L 489.399062 318.572039 
L 489.141 317.944078 
L 489.256394 317.944078 
L 489.409583 317.944078 
L 488.973184 316.688155 
L 489.011538 316.688155 
L 489.581192 316.688155 
L 489.327457 316.060194 
L 489.440527 316.060194 
L 489.515677 316.060194 
L 489.262913 315.432233 
L 489.375687 315.432233 
L 489.450641 315.432233 
L 489.022642 314.176311 
L 489.060219 314.176311 
L 489.39637 314.176311 
L 489.146735 313.54835 
L 489.258358 313.54835 
L 489.810467 313.54835 
L 489.353373 312.292427 
L 489.426655 312.292427 
L 489.609096 312.292427 
L 489.118468 311.036505 
L 489.228156 311.036505 
L 489.482586 311.036505 
L 489.238938 310.408544 
L 489.347703 310.408544 
L 489.383873 310.408544 
L 489.141 309.780583 
L 489.249618 309.780583 
L 489.644632 309.780583 
L 489.234866 308.52466 
L 489.270681 308.52466 
L 489.555704 308.52466 
L 489.316667 307.896699 
L 489.423224 307.896699 
L 489.635233 307.896699 
L 489.397526 307.268738 
L 489.503331 307.268738 
L 489.64384 307.268738 
L 489.407216 306.640777 
L 489.512521 306.640777 
L 489.582524 306.640777 
L 489.216629 305.384854 
L 489.944401 305.384854 
L 489.711867 304.756893 
L 489.814767 304.756893 
L 490.324109 304.756893 
L 490.093823 304.128932 
L 490.195 304.128932 
L 490.463164 304.128932 
L 490.234328 303.500971 
L 490.334603 303.500971 
L 490.467786 303.500971 
L 490.239956 302.87301 
L 490.33978 302.87301 
L 490.439276 302.87301 
L 490.212336 302.245049 
L 490.311823 302.245049 
L 490.377966 302.245049 
L 490.151803 301.617087 
L 490.251064 301.617087 
L 491.06577 301.617087 
L 490.842765 300.989126 
L 490.939366 300.989126 
L 491.386087 300.989126 
L 490.944249 299.733204 
L 491.039713 299.733204 
L 491.166525 299.733204 
L 490.94666 299.105243 
L 491.041715 299.105243 
L 492.82188 299.105243 
L 492.608162 298.477282 
L 492.697642 298.477282 
L 493.836332 298.477282 
L 493.474875 297.221359 
L 493.532315 297.221359 
L 493.58964 297.221359 
L 493.201349 295.965437 
L 493.287575 295.965437 
L 493.771351 295.965437 
L 493.564985 295.337476 
L 493.677986 295.337476 
L 493.762445 295.337476 
L 493.379823 294.081553 
L 493.464472 294.081553 
L 494.324782 294.081553 
L 493.920696 292.825631 
L 494.030502 292.825631 
L 494.492484 292.825631 
L 494.092683 291.569709 
L 494.200955 291.569709 
L 494.416262 291.569709 
L 494.217633 290.941748 
L 494.325 290.941748 
L 496.290247 290.941748 
L 496.098124 290.313786 
L 496.198081 290.313786 
L 496.618858 290.313786 
L 496.4285 289.685825 
L 496.526866 289.685825 
L 498.05367 289.685825 
L 497.776545 288.429903 
L 498.122953 288.429903 
L 497.939399 287.801942 
L 498.054214 287.801942 
L 498.777378 287.801942 
L 498.596531 287.173981 
L 498.708077 287.173981 
L 499.648049 287.173981 
L 499.470554 286.546019 
L 499.577982 286.546019 
L 499.770225 286.546019 
L 499.593789 285.918058 
L 499.700291 285.918058 
L 499.975134 285.918058 
L 499.8 285.290097 
L 499.905241 285.290097 
L 499.989122 285.290097 
L 499.814703 284.662136 
L 499.919482 284.662136 
L 500.313744 284.662136 
L 500.14097 284.034175 
L 500.24402 284.034175 
L 500.326158 284.034175 
L 500.15408 283.406214 
L 500.256686 283.406214 
L 500.662982 283.406214 
L 500.423447 282.150291 
L 500.483947 282.150291 
L 500.14476 280.894369 
L 500.245868 280.894369 
L 500.685991 280.894369 
L 500.518196 280.266408 
L 500.61745 280.266408 
L 501.282119 280.266408 
L 501.116706 279.638447 
L 501.213253 279.638447 
L 502.269494 279.638447 
L 502.107605 279.010485 
L 502.218437 279.010485 
L 502.872979 279.010485 
L 502.66209 277.754563 
L 503.335099 277.754563 
L 503.178117 277.126602 
L 503.282972 277.126602 
L 503.456709 277.126602 
L 503.300658 276.498641 
L 503.404595 276.498641 
L 503.968216 276.498641 
L 503.814229 275.87068 
L 503.915564 275.87068 
L 503.966068 275.87068 
L 503.812635 275.242718 
L 503.91361 275.242718 
L 504.21395 275.242718 
L 504.061793 274.614757 
L 504.161342 274.614757 
L 504.539049 274.614757 
L 504.388384 273.986796 
L 504.502458 273.986796 
L 506.118401 273.986796 
L 505.972866 273.358835 
L 506.078912 273.358835 
L 506.453586 273.358835 
L 506.309548 272.730874 
L 506.413636 272.730874 
L 506.737624 272.730874 
L 506.594925 272.102913 
L 506.69732 272.102913 
L 507.583949 272.102913 
L 507.374927 270.84699 
L 507.417033 270.84699 
L 507.998055 270.84699 
L 507.736763 269.591068 
L 507.832581 269.591068 
L 508.14443 269.591068 
L 507.91276 268.335146 
L 507.980214 268.335146 
L 507.993679 268.335146 
L 507.72247 267.079223 
L 507.830502 267.079223 
L 507.91117 267.079223 
L 507.776228 266.451262 
L 507.883619 266.451262 
L 507.897006 266.451262 
L 507.762488 265.823301 
L 507.86958 265.823301 
L 508.134992 265.823301 
L 508.001607 265.19534 
L 508.107152 265.19534 
L 508.575732 265.19534 
L 508.444041 264.567379 
L 508.547066 264.567379 
L 509.167316 264.567379 
L 509.037736 263.939417 
L 509.15 263.939417 
L 509.261662 263.939417 
L 509.132787 263.311456 
L 509.244164 263.311456 
L 509.586892 263.311456 
L 509.459364 262.683495 
L 509.568634 262.683495 
L 509.857218 262.683495 
L 509.730875 262.055534 
L 509.838354 262.055534 
L 512.385192 262.055534 
L 512.385192 262.055534 
" style="fill:none;stroke:#1f77b4;stroke-linecap:square;stroke-width:2;"/>
   </g>
   <g id="line2d_46">
    <path clip-path="url(#pb3c1a39da8)" d="M 550.8 448.56 
L 511.275 447.932039 
L 516.921429 447.932039 
L 527.085 447.932039 
L 505.628571 447.304078 
L 507.681818 447.304078 
L 520.2 447.304078 
L 506.334375 446.676117 
L 507.681818 446.676117 
L 524.45 446.676117 
L 516.305455 446.048155 
L 517.515789 446.048155 
L 528.214286 446.048155 
L 522.9 445.420194 
L 523.541379 445.420194 
L 531.0375 445.420194 
L 527.280992 444.792233 
L 527.85 444.792233 
L 530.617021 444.792233 
L 527.419014 444.164272 
L 527.902759 444.164272 
L 528.812583 444.164272 
L 525.836842 443.536311 
L 526.32 443.536311 
L 528.214286 443.536311 
L 522.9 442.280388 
L 523.224419 442.280388 
L 524.45 442.280388 
L 521.975138 441.652427 
L 522.290164 441.652427 
L 524.316244 441.652427 
L 522.054545 441.024466 
L 522.342 441.024466 
L 523.697143 441.024466 
L 519.771028 439.768544 
L 520.889189 439.768544 
L 518.896413 439.140583 
L 519.18 439.140583 
L 520.396154 439.140583 
L 518.507234 438.512621 
L 518.779747 438.512621 
L 521.386047 438.512621 
L 518.089655 437.256699 
L 518.214504 437.256699 
L 523.081169 437.256699 
L 521.635922 436.628738 
L 521.823473 436.628738 
L 522.008626 436.628738 
L 520.589809 436.000777 
L 520.781013 436.000777 
L 523.144023 436.000777 
L 521.84564 435.372816 
L 522.095965 435.372816 
L 522.977933 435.372816 
L 521.734262 434.744854 
L 521.975138 434.744854 
L 522.133516 434.744854 
L 520.912603 434.116893 
L 521.075477 434.116893 
L 521.786968 434.116893 
L 519.596053 432.860971 
L 520.081088 432.860971 
L 518.934884 432.23301 
L 519.098715 432.23301 
L 519.341327 432.23301 
L 517.263636 430.977087 
L 517.681796 430.977087 
L 516.584328 430.349126 
L 516.753713 430.349126 
L 517.815108 430.349126 
L 516.75933 429.721165 
L 516.921429 429.721165 
L 518.461364 429.721165 
L 517.459184 429.093204 
L 517.609707 429.093204 
L 518.270575 429.093204 
L 516.475658 427.837282 
L 517.709302 427.837282 
L 516.778481 427.20932 
L 516.921429 427.20932 
L 517.343154 427.20932 
L 516.430435 426.581359 
L 516.572165 426.581359 
L 517.195749 426.581359 
L 516.305455 425.953398 
L 516.444266 425.953398 
L 517.055336 425.953398 
L 516.186391 425.325437 
L 516.322397 425.325437 
L 516.790116 425.325437 
L 515.938491 424.697476 
L 516.072832 424.697476 
L 516.729301 424.697476 
L 515.071186 423.441553 
L 515.205253 423.441553 
L 515.925 423.441553 
L 514.315385 422.185631 
L 514.44854 422.185631 
L 515.790158 422.185631 
L 515.019474 421.55767 
L 515.14458 421.55767 
L 515.330609 421.55767 
L 513.937306 420.301748 
L 514.190223 420.301748 
L 512.693846 419.045825 
L 512.82368 419.045825 
L 513.080711 419.045825 
L 512.343243 418.417864 
L 512.472727 418.417864 
L 513.169587 418.417864 
L 511.859113 417.161942 
L 512.856 417.161942 
L 512.158946 416.533981 
L 512.282006 416.533981 
L 512.586256 416.533981 
L 511.275 415.278058 
L 511.337049 415.278058 
L 511.398903 415.278058 
L 510.103432 414.022136 
L 510.166822 414.022136 
L 510.230016 414.022136 
L 509.556522 413.394175 
L 509.684211 413.394175 
L 510.187156 413.394175 
L 509.525038 412.766214 
L 509.650685 412.766214 
L 510.449104 412.766214 
L 508.00074 410.254369 
L 508.747238 410.254369 
L 508.119884 409.626408 
L 508.243415 409.626408 
L 508.790571 409.626408 
L 507.620484 408.370485 
L 507.681818 408.370485 
L 507.803966 408.370485 
L 507.193918 407.742524 
L 507.316925 407.742524 
L 507.802092 407.742524 
L 507.201393 407.114563 
L 507.3225 407.114563 
L 507.681818 407.114563 
L 506.61863 405.858641 
L 506.799454 405.858641 
L 506.213215 405.23068 
L 506.334375 405.23068 
L 506.930429 405.23068 
L 506.354217 404.602718 
L 506.472897 404.602718 
L 506.649734 404.602718 
L 506.078486 403.974757 
L 506.196954 403.974757 
L 506.54862 403.974757 
L 505.984252 403.346796 
L 506.101571 403.346796 
L 506.792784 403.346796 
L 506.238996 402.718835 
L 506.353402 402.718835 
L 507.465957 402.718835 
L 506.92725 402.090874 
L 507.036658 402.090874 
L 507.361634 402.090874 
L 505.767818 400.20699 
L 505.878598 400.20699 
L 507.114474 400.20699 
L 506.6 399.579029 
L 506.705364 399.579029 
L 506.810226 399.579029 
L 506.299169 398.951068 
L 506.404621 398.951068 
L 507.780827 398.951068 
L 507.286239 398.323107 
L 507.385812 398.323107 
L 507.534322 398.323107 
L 506.65403 397.067184 
L 507.537931 397.067184 
L 507.059 396.439223 
L 507.155987 396.439223 
L 508.741346 396.439223 
L 507.91117 395.183301 
L 508.092903 395.183301 
L 507.63619 394.55534 
L 507.772785 394.55534 
L 507.818124 394.55534 
L 506.957143 393.299417 
L 507.003148 393.299417 
L 507.502905 393.299417 
L 507.056269 392.671456 
L 507.191839 392.671456 
L 507.326571 392.671456 
L 506.883333 392.043495 
L 507.018462 392.043495 
L 507.76875 392.043495 
L 507.334441 391.415534 
L 507.465361 391.415534 
L 507.767797 391.415534 
L 506.613479 389.53165 
L 507.004126 389.53165 
L 506.290909 388.275728 
L 506.507393 388.275728 
L 505.256159 386.391845 
L 505.344337 386.391845 
L 505.650288 386.391845 
L 505.23804 385.763883 
L 505.368966 385.763883 
L 505.49914 385.763883 
L 505.08979 385.135922 
L 505.220266 385.135922 
L 505.306838 385.135922 
L 504.9 384.507961 
L 505.030274 384.507961 
L 505.073535 384.507961 
L 504.264906 383.252039 
L 504.396237 383.252039 
L 504.871508 383.252039 
L 504.473023 382.624078 
L 504.601948 382.624078 
L 505.026563 382.624078 
L 504.36807 381.368155 
L 504.452877 381.368155 
L 504.062409 380.740194 
L 504.189991 380.740194 
L 504.526829 380.740194 
L 504.140523 380.112233 
L 504.266517 380.112233 
L 504.516473 380.112233 
L 503.793482 378.856311 
L 503.877273 378.856311 
L 504.819825 378.856311 
L 504.446073 378.22835 
L 504.567102 378.22835 
L 504.6875 378.22835 
L 504.316132 377.600388 
L 504.436765 377.600388 
L 504.991538 377.600388 
L 504.625619 376.972427 
L 504.743612 376.972427 
L 505.016596 376.972427 
L 504.370633 375.716505 
L 504.409781 375.716505 
L 504.912761 375.716505 
L 504.55575 375.088544 
L 504.671072 375.088544 
L 504.785821 375.088544 
L 504.192486 373.832621 
L 504.345926 373.832621 
L 503.37 371.948738 
L 503.408845 371.948738 
L 503.983981 371.948738 
L 503.638399 371.320777 
L 503.7525 371.320777 
L 503.86605 371.320777 
L 503.179518 370.064854 
L 503.29399 370.064854 
L 503.969431 370.064854 
L 503.632044 369.436893 
L 503.743465 369.436893 
L 503.891209 369.436893 
L 503.221317 368.180971 
L 503.332916 368.180971 
L 503.955556 368.180971 
L 503.37 366.925049 
L 503.406457 366.925049 
L 503.587902 366.925049 
L 503.261132 366.297087 
L 503.37 366.297087 
L 503.442302 366.297087 
L 503.117136 365.669126 
L 503.225836 365.669126 
L 503.261959 365.669126 
L 502.938164 365.041165 
L 503.046858 365.041165 
L 503.08298 365.041165 
L 502.760544 364.413204 
L 502.869231 364.413204 
L 503.54632 364.413204 
L 503.229049 363.785243 
L 503.334841 363.785243 
L 503.510118 363.785243 
L 503.194982 363.157282 
L 503.300147 363.157282 
L 503.853275 363.157282 
L 503.542473 362.52932 
L 503.645356 362.52932 
L 503.67955 362.52932 
L 503.164379 361.273398 
L 505.080374 361.273398 
L 504.783368 360.645437 
L 504.878838 360.645437 
L 506.20497 360.645437 
L 505.401807 358.761553 
L 505.432174 358.761553 
L 505.5834 358.761553 
L 505.297535 358.133592 
L 505.418472 358.133592 
L 505.598676 358.133592 
L 505.061691 356.87767 
L 505.152142 356.87767 
L 506.238996 356.87767 
L 505.744544 355.621748 
L 505.802308 355.621748 
L 506.651321 355.621748 
L 506.380955 354.993786 
L 506.492351 354.993786 
L 507.256747 354.993786 
L 506.991502 354.365825 
L 507.09914 354.365825 
L 507.445338 354.365825 
L 506.76608 352.481942 
L 506.792784 352.481942 
L 506.532 351.853981 
L 506.639057 351.853981 
L 506.71901 351.853981 
L 506.45953 351.226019 
L 506.566245 351.226019 
L 507.580423 351.226019 
L 507.125455 349.970097 
L 507.176626 349.970097 
L 507.253158 349.970097 
L 507.001403 349.342136 
L 507.103557 349.342136 
L 507.281185 349.342136 
L 507.031167 348.714175 
L 507.132542 348.714175 
L 507.358929 348.714175 
L 506.964007 347.458252 
L 507.288718 347.458252 
L 506.84838 346.20233 
L 506.898296 346.20233 
L 507.269088 346.20233 
L 507.026674 345.574369 
L 507.124986 345.574369 
L 507.149495 345.574369 
L 506.907964 344.946408 
L 507.006212 344.946408 
L 507.249917 344.946408 
L 507.010345 344.318447 
L 507.107547 344.318447 
L 507.444383 344.318447 
L 507.042504 343.062524 
L 507.06652 343.062524 
L 507.281486 343.062524 
L 506.439152 340.55068 
L 506.774312 340.55068 
L 506.542233 339.922718 
L 506.637513 339.922718 
L 506.685 339.922718 
L 506.24686 338.666796 
L 506.318489 338.666796 
L 506.790191 338.666796 
L 506.404918 337.410874 
L 506.451823 337.410874 
L 506.545335 337.410874 
L 506.318757 336.782913 
L 506.435628 336.782913 
L 506.988168 336.782913 
L 506.764886 336.154951 
L 506.878789 336.154951 
L 507.350819 336.154951 
L 507.130435 335.52699 
L 507.241837 335.52699 
L 507.308406 335.52699 
L 507.089053 334.899029 
L 507.200051 334.899029 
L 507.486024 334.899029 
L 507.161538 333.643107 
L 507.270963 333.643107 
L 506.839329 332.387184 
L 506.949175 332.387184 
L 507.123793 332.387184 
L 506.717445 331.131262 
L 506.804911 331.131262 
L 506.89203 331.131262 
L 506.532 329.87534 
L 506.575678 329.87534 
L 506.641034 329.87534 
L 506.429247 329.247379 
L 506.538212 329.247379 
L 506.603335 329.247379 
L 506.3925 328.619417 
L 506.501076 328.619417 
L 506.673697 328.619417 
L 506.464265 327.991456 
L 506.571928 327.991456 
L 506.828199 327.991456 
L 506.413025 326.735534 
L 506.519827 326.735534 
L 506.604899 326.735534 
L 506.398416 326.107573 
L 506.504741 326.107573 
L 506.547129 326.107573 
L 505.768655 323.595728 
L 505.833016 323.595728 
L 505.961188 323.595728 
L 505.553536 322.339806 
L 505.660653 322.339806 
L 505.9368 322.339806 
L 505.734807 321.711845 
L 505.840544 321.711845 
L 505.987746 321.711845 
L 505.470629 319.827961 
L 505.491752 319.827961 
L 505.512855 319.827961 
L 505.113588 318.572039 
L 505.219638 318.572039 
L 505.555714 318.572039 
L 505.005517 316.688155 
L 505.068595 316.688155 
L 505.402097 316.688155 
L 505.011475 315.432233 
L 505.115493 315.432233 
L 505.363217 315.432233 
L 505.169512 314.804272 
L 505.27233 314.804272 
L 505.415499 314.804272 
L 505.222901 314.176311 
L 505.325 314.176311 
L 505.467173 314.176311 
L 505.165791 312.920388 
L 505.186109 312.920388 
L 505.348004 312.920388 
L 504.839071 311.036505 
L 504.879708 311.036505 
L 505.122032 311.036505 
L 504.933626 310.408544 
L 505.034211 310.408544 
L 505.154331 310.408544 
L 504.9669 309.780583 
L 505.066885 309.780583 
L 505.186292 309.780583 
L 504.873426 308.52466 
L 504.913275 308.52466 
L 505.052206 308.52466 
L 504.866926 307.896699 
L 504.966005 307.896699 
L 505.319178 307.896699 
L 505.135687 307.268738 
L 505.233177 307.268738 
L 505.368966 307.268738 
L 505.186468 306.640777 
L 505.283312 306.640777 
L 505.456599 306.640777 
L 504.990342 304.756893 
L 505.009654 304.756893 
L 505.105974 304.756893 
L 504.925736 304.128932 
L 505.041191 304.128932 
L 505.962762 304.128932 
L 505.647107 302.87301 
L 505.721098 302.87301 
L 506.087444 302.87301 
L 505.912957 302.245049 
L 506.022083 302.245049 
L 506.256711 302.245049 
L 505.792039 300.361165 
L 505.846265 300.361165 
L 505.864312 300.361165 
L 505.692014 299.733204 
L 505.80036 299.733204 
L 505.961907 299.733204 
L 505.79067 299.105243 
L 505.898091 299.105243 
L 506.058264 299.105243 
L 505.888074 298.477282 
L 505.994585 298.477282 
L 506.311107 298.477282 
L 506.142487 297.84932 
L 506.247358 297.84932 
L 506.438348 297.84932 
L 506.270861 297.221359 
L 506.374699 297.221359 
L 506.529551 297.221359 
L 506.248434 295.965437 
L 506.300039 295.965437 
L 506.725468 295.965437 
L 506.561009 295.337476 
L 506.662243 295.337476 
L 507.423238 295.337476 
L 507.261783 294.709515 
L 507.375673 294.709515 
L 507.713793 294.709515 
L 507.553966 294.081553 
L 507.665878 294.081553 
L 507.697747 294.081553 
L 507.538516 293.453592 
L 507.650055 293.453592 
L 507.665943 293.453592 
L 507.444383 292.19767 
L 507.460294 292.19767 
L 507.697555 292.19767 
L 507.540241 291.569709 
L 507.650437 291.569709 
L 507.666133 291.569709 
L 507.509345 290.941748 
L 507.61926 290.941748 
L 507.697429 290.941748 
L 507.541368 290.313786 
L 507.650686 290.313786 
L 507.759453 290.313786 
L 507.604212 289.685825 
L 507.712783 289.685825 
L 508.397915 289.685825 
L 507.985896 287.801942 
L 508.046197 287.801942 
L 508.136332 287.801942 
L 507.984721 287.173981 
L 508.089734 287.173981 
L 508.134582 287.173981 
L 507.983555 286.546019 
L 508.088168 286.546019 
L 508.132845 286.546019 
L 507.982398 285.918058 
L 508.086613 285.918058 
L 508.234615 285.918058 
L 508.085071 285.290097 
L 508.18839 285.290097 
L 509.06802 285.290097 
L 508.921685 284.662136 
L 509.034717 284.662136 
L 509.048803 284.662136 
L 508.771395 283.406214 
L 508.870286 283.406214 
L 508.912525 283.406214 
L 508.767372 282.778252 
L 508.879946 282.778252 
L 509.01982 282.778252 
L 508.87555 282.150291 
L 508.987126 282.150291 
L 509.070418 282.150291 
L 508.783378 280.894369 
L 508.894606 280.894369 
L 509.005248 280.894369 
L 508.747693 279.638447 
L 508.830691 279.638447 
L 509.30839 279.638447 
L 509.167685 279.010485 
L 509.275681 279.010485 
L 509.688925 279.010485 
L 509.549904 278.382524 
L 509.655538 278.382524 
L 509.721285 278.382524 
L 509.582875 277.754563 
L 509.687954 277.754563 
L 509.805529 277.754563 
L 509.543429 276.498641 
L 509.634907 276.498641 
L 510.035194 276.498641 
L 509.801942 275.242718 
L 509.866041 275.242718 
L 510.71831 275.242718 
L 510.538809 273.986796 
L 510.563381 273.986796 
L 510.758882 273.986796 
L 510.627049 273.358835 
L 510.736512 273.358835 
L 510.784971 273.358835 
L 510.653688 272.730874 
L 510.762617 272.730874 
L 511.157015 272.730874 
L 511.027305 272.102913 
L 511.133839 272.102913 
L 512.753097 272.102913 
L 512.628596 271.474951 
L 512.737223 271.474951 
L 513.397148 271.474951 
L 513.275007 270.84699 
L 513.379621 270.84699 
L 514.195991 270.84699 
L 514.195991 270.84699 
" style="fill:none;stroke:#ff7f0e;stroke-linecap:square;stroke-width:2;"/>
   </g>
   <g id="line2d_47">
    <path clip-path="url(#pb3c1a39da8)" d="M 550.8 448.56 
L 432.225 447.932039 
L 361.08 447.304078 
L 392.7 447.304078 
L 347.528571 446.676117 
L 372.9375 446.676117 
L 340 446.048155 
L 415.285714 446.048155 
L 372.9375 444.792233 
L 421.445455 444.792233 
L 406.447826 444.164272 
L 412.4625 444.164272 
L 399.024 443.536311 
L 453.507692 443.536311 
L 435.117073 442.280388 
L 445.4 442.280388 
L 437.380435 441.652427 
L 444.32449 441.652427 
L 429.9 440.396505 
L 432.225 440.396505 
L 412.821818 438.512621 
L 406.816071 437.88466 
L 409.342105 437.88466 
L 398.059322 436.628738 
L 403.067213 436.628738 
L 392.7 435.372816 
L 404.325 435.372816 
L 399.573913 434.744854 
L 401.734286 434.744854 
L 392.7 433.488932 
L 399.024 433.488932 
L 394.780263 432.860971 
L 396.806494 432.860971 
L 384.795 430.977087 
L 390.795181 430.977087 
L 383.4 429.721165 
L 387.248276 429.721165 
L 383.717045 429.093204 
L 387.43 429.093204 
L 384.013187 428.465243 
L 387.6 428.465243 
L 384.290426 427.837282 
L 392.7 427.837282 
L 383.4 425.953398 
L 392.7 425.953398 
L 389.799083 425.325437 
L 391.262727 425.325437 
L 388.427027 424.697476 
L 391.300885 424.697476 
L 388.539474 424.069515 
L 389.950435 424.069515 
L 387.248276 423.441553 
L 390.020339 423.441553 
L 387.385714 422.813592 
L 398.875781 422.813592 
L 396.376744 422.185631 
L 399.886364 422.185631 
L 397.454887 421.55767 
L 399.726667 421.55767 
L 397.35 420.929709 
L 398.470073 420.929709 
L 393.83741 419.673786 
L 397.153521 419.673786 
L 394.911189 419.045825 
L 398.114384 419.045825 
L 393.768243 417.789903 
L 395.862 417.789903 
L 393.74702 417.161942 
L 395.8 417.161942 
L 393.726623 416.533981 
L 395.740385 416.533981 
L 389.716981 414.650097 
L 390.72375 414.650097 
L 388.77205 414.022136 
L 389.772222 414.022136 
L 385.951829 412.766214 
L 386.950909 412.766214 
L 385.080723 412.138252 
L 386.073054 412.138252 
L 384.230357 411.510291 
L 385.215976 411.510291 
L 381.605263 410.254369 
L 382.588953 410.254369 
L 379.07069 408.998447 
L 381.981356 408.998447 
L 380.265169 408.370485 
L 383.091713 408.370485 
L 381.407143 407.742524 
L 386.813298 407.742524 
L 385.171429 407.114563 
L 386.043158 407.114563 
L 384.422513 406.486602 
L 386.995361 406.486602 
L 385.403077 405.858641 
L 386.246939 405.858641 
L 384.674619 405.23068 
L 388.786634 405.23068 
L 385.725 403.974757 
L 386.530244 403.974757 
L 382.058654 402.090874 
L 384.45782 402.090874 
L 383.005189 401.462913 
L 389.106818 401.462913 
L 387.692308 400.834951 
L 390.592 400.834951 
L 389.202212 400.20699 
L 390.619737 400.20699 
L 389.248035 399.579029 
L 389.950435 399.579029 
L 388.593506 398.951068 
L 389.985837 398.951068 
L 387.317872 397.695146 
L 389.378571 397.695146 
L 388.069456 397.067184 
L 390.748148 397.067184 
L 385.659109 394.55534 
L 389.575494 394.55534 
L 387.12 393.299417 
L 387.759375 393.299417 
L 385.346512 392.043495 
L 389.106818 392.043495 
L 387.92717 391.415534 
L 394.418478 391.415534 
L 393.270758 390.787573 
L 394.958571 390.787573 
L 393.825267 390.159612 
L 394.381915 390.159612 
L 393.258657 389.53165 
L 397.589691 389.53165 
L 396.490068 388.903689 
L 399.087879 388.903689 
L 398.005369 388.275728 
L 398.516388 388.275728 
L 397.443 387.647767 
L 401.426299 387.647767 
L 399.33 386.391845 
L 402.206013 386.391845 
L 400.157547 385.135922 
L 400.629781 385.135922 
L 399.616875 384.507961 
L 400.08785 384.507961 
L 398.084211 383.252039 
L 398.555556 383.252039 
L 397.564615 382.624078 
L 399.886364 382.624078 
L 398.909366 381.996117 
L 399.821622 381.996117 
L 398.853593 381.368155 
L 400.206231 381.368155 
L 399.248521 380.740194 
L 399.695575 380.740194 
L 398.745 380.112233 
L 399.190909 380.112233 
L 396.376744 378.22835 
L 399.886364 378.22835 
L 398.970255 377.600388 
L 399.399153 377.600388 
L 398.489577 376.972427 
L 399.342857 376.972427 
L 398.441061 376.344466 
L 400.124586 376.344466 
L 399.233058 375.716505 
L 399.649451 375.716505 
L 398.76411 375.088544 
L 399.592643 375.088544 
L 398.714674 374.460583 
L 399.126829 374.460583 
L 398.254865 373.832621 
L 399.075 373.832621 
L 398.210188 373.20466 
L 399.024 373.20466 
L 397.312997 371.948738 
L 399.32199 371.948738 
L 398.479112 371.320777 
L 399.27039 371.320777 
L 397.602326 370.064854 
L 397.997165 370.064854 
L 392.299747 365.669126 
L 395.059701 365.669126 
L 394.269231 365.041165 
L 396.1875 365.041165 
L 395.405868 364.413204 
L 396.537379 364.413204 
L 395.76247 363.785243 
L 398.708551 363.785243 
L 397.945024 363.157282 
L 398.666038 363.157282 
L 396.402576 361.273398 
L 396.763318 361.273398 
L 396.016783 360.645437 
L 399.542597 360.645437 
L 397.35 358.761553 
L 397.696388 358.761553 
L 396.972973 358.133592 
L 399.024 358.133592 
L 398.308869 357.505631 
L 398.982119 357.505631 
L 398.271806 356.87767 
L 400.261304 356.87767 
L 399.559002 356.249709 
L 400.86 356.249709 
L 400.163948 355.621748 
L 402.393235 355.621748 
L 401.705696 354.993786 
L 402.332143 354.993786 
L 400.968828 353.737864 
L 404.339264 353.737864 
L 403.670204 353.109903 
L 404.268293 353.109903 
L 403.603448 352.481942 
L 404.198182 352.481942 
L 403.5375 351.853981 
L 407.016142 351.853981 
L 406.366798 351.226019 
L 406.932094 351.226019 
L 406.286719 350.598058 
L 407.128544 350.598058 
L 406.487791 349.970097 
L 407.044981 349.970097 
L 406.408092 349.342136 
L 406.685769 349.342136 
L 406.052015 348.714175 
L 407.971023 348.714175 
L 407.344423 348.086214 
L 408.421013 348.086214 
L 407.799438 347.458252 
L 409.388333 347.458252 
L 408.773013 346.830291 
L 411.603261 346.830291 
L 410.997288 346.20233 
L 411.501081 346.20233 
L 410.898561 345.574369 
L 411.4 345.574369 
L 410.800894 344.946408 
L 412.532332 344.946408 
L 411.939683 344.318447 
L 412.184155 344.318447 
L 411.5942 343.690485 
L 413.046783 343.690485 
L 412.4625 343.062524 
L 412.702253 343.062524 
L 412.120588 342.434563 
L 412.598793 342.434563 
L 412.02031 341.806602 
L 413.905263 341.806602 
L 413.33339 341.178641 
L 414.945226 341.178641 
L 414.379264 340.55068 
L 415.060233 340.55068 
L 413.378642 338.666796 
L 413.605785 338.666796 
L 413.049505 338.038835 
L 414.176759 338.038835 
L 413.625 337.410874 
L 415.830386 337.410874 
L 415.285714 336.782913 
L 416.791429 336.782913 
L 416.252139 336.154951 
L 416.465032 336.154951 
L 415.927962 335.52699 
L 416.140694 335.52699 
L 415.605827 334.899029 
L 416.030298 334.899029 
L 415.498119 334.271068 
L 416.550233 334.271068 
L 416.022205 333.643107 
L 416.439474 333.643107 
L 415.914065 333.015146 
L 416.329738 333.015146 
L 415.806923 332.387184 
L 416.427106 332.387184 
L 415.907339 331.759223 
L 416.318598 331.759223 
L 415.80137 331.131262 
L 416.415 331.131262 
L 415.900756 330.503301 
L 416.71218 330.503301 
L 415.692054 329.247379 
L 416.697321 329.247379 
L 416.191828 328.619417 
L 418.162665 328.619417 
L 417.165109 327.363495 
L 417.74782 327.363495 
L 417.25254 326.735534 
L 417.639074 326.735534 
L 417.146098 326.107573 
L 417.338961 326.107573 
L 416.847839 325.479612 
L 418.562731 325.479612 
L 418.076847 324.85165 
L 419.935714 324.85165 
L 418.976397 323.595728 
L 419.343593 323.595728 
L 417.444183 321.083883 
L 417.628631 321.083883 
L 417.157459 320.455922 
L 419.157551 320.455922 
L 418.22768 319.2 
L 418.407317 319.2 
L 417.483243 317.944078 
L 418.021534 317.944078 
L 416.648123 316.060194 
L 417.006818 316.060194 
L 416.0988 314.804272 
L 416.990861 314.804272 
L 416.540476 314.176311 
L 417.946335 314.176311 
L 417.5 313.54835 
L 418.537354 313.54835 
L 418.094301 312.920388 
L 418.437209 312.920388 
L 417.116988 311.036505 
L 417.288817 311.036505 
L 416.415 309.780583 
L 417.270955 309.780583 
L 416.837405 309.152621 
L 417.515696 309.152621 
L 417.084576 308.52466 
L 418.753933 308.52466 
L 418.327182 307.896699 
L 419.635556 307.896699 
L 419.212454 307.268738 
L 419.374507 307.268738 
L 418.112393 305.384854 
L 419.56165 305.384854 
L 419.145818 304.756893 
L 420.566547 304.756893 
L 419.743421 303.500971 
L 420.056205 303.500971 
L 419.646722 302.87301 
L 420.114014 302.87301 
L 419.299763 301.617087 
L 419.610638 301.617087 
L 419.205549 300.989126 
L 419.67 300.989126 
L 418.864437 299.733204 
L 419.480958 299.733204 
L 419.080747 299.105243 
L 419.234266 299.105243 
L 418.835274 298.477282 
L 419.294548 298.477282 
L 418.897335 297.84932 
L 419.202312 297.84932 
L 418.411765 296.593398 
L 418.716456 296.593398 
L 418.323103 295.965437 
L 421.008446 295.965437 
L 420.620922 295.337476 
L 421.204031 295.337476 
L 420.818456 294.709515 
L 420.963687 294.709515 
L 420.579241 294.081553 
L 422.30022 294.081553 
L 421.919802 293.453592 
L 422.764918 293.453592 
L 422.3869 292.825631 
L 422.526936 292.825631 
L 422.15 292.19767 
L 422.289989 292.19767 
L 421.539088 290.941748 
L 421.819177 290.941748 
L 421.445455 290.313786 
L 422.418045 290.313786 
L 422.046888 289.685825 
L 423.683581 289.685825 
L 422.949577 288.429903 
L 424.15445 288.429903 
L 423.790795 287.801942 
L 424.32 287.801942 
L 423.958065 287.173981 
L 424.614596 287.173981 
L 424.254602 286.546019 
L 424.515789 286.546019 
L 424.15701 285.918058 
L 424.677105 285.918058 
L 424.32 285.290097 
L 425.221589 285.290097 
L 424.512805 284.034175 
L 424.768966 284.034175 
L 424.416109 283.406214 
L 425.179758 283.406214 
L 424.828974 282.778252 
L 424.955578 282.778252 
L 424.605723 282.150291 
L 424.732297 282.150291 
L 425.486441 282.150291 
L 425.138845 281.52233 
L 425.263881 281.52233 
L 425.885347 281.52233 
L 425.318855 280.266408 
L 425.566108 280.266408 
L 425.222539 279.638447 
L 425.346018 279.638447 
L 427.646815 279.638447 
L 427.089413 278.382524 
L 428.03467 278.382524 
L 427.699237 277.754563 
L 427.816587 277.754563 
L 427.933714 277.754563 
L 427.599334 277.126602 
L 427.716445 277.126602 
L 428.066445 277.126602 
L 427.40123 275.87068 
L 427.517864 275.87068 
L 429.014286 275.87068 
L 428.685448 275.242718 
L 428.799254 275.242718 
L 429.925762 275.242718 
L 429.386188 273.986796 
L 429.497884 273.986796 
L 429.173438 273.358835 
L 429.285124 273.358835 
L 429.729826 273.358835 
L 429.195712 272.102913 
L 429.417213 272.102913 
L 429.096087 271.474951 
L 429.206727 271.474951 
L 429.866365 271.474951 
L 429.547154 270.84699 
L 429.656588 270.84699 
L 431.061463 270.84699 
L 430.430009 269.591068 
L 430.5371 269.591068 
L 431.597619 269.591068 
L 431.284758 268.963107 
L 431.389965 268.963107 
L 431.599824 268.963107 
L 431.28806 268.335146 
L 431.392895 268.335146 
L 432.121622 268.335146 
L 431.502611 267.079223 
L 431.606348 267.079223 
L 432.122338 267.079223 
L 431.814706 266.451262 
L 431.917545 266.451262 
L 433.738723 266.451262 
L 433.434949 265.823301 
L 433.534664 265.823301 
L 434.326329 265.823301 
L 433.82197 264.567379 
L 434.116625 264.567379 
L 433.5171 263.311456 
L 433.615327 263.311456 
L 435.069231 263.311456 
L 434.772893 262.683495 
L 434.868704 262.683495 
L 435.25037 262.683495 
L 434.955345 262.055534 
L 435.050534 262.055534 
L 435.42973 262.055534 
L 435.136007 261.427573 
L 435.230581 261.427573 
L 435.888293 261.427573 
L 435.596344 260.799612 
L 435.689854 260.799612 
L 435.876418 260.799612 
L 435.585425 260.17165 
L 435.678641 260.17165 
L 435.86462 260.17165 
L 435.574576 259.543689 
L 435.6675 259.543689 
L 436.12988 259.543689 
L 435.841252 258.915728 
L 435.93344 258.915728 
L 436.574641 258.915728 
L 436.287729 258.287767 
L 436.378901 258.287767 
L 437.282701 258.287767 
L 436.997948 257.659806 
L 437.087697 257.659806 
L 437.266772 257.659806 
L 436.982927 257.031845 
L 437.072406 257.031845 
L 437.428918 257.031845 
L 437.14628 256.403883 
L 437.235211 256.403883 
L 437.589548 256.403883 
L 437.115642 255.147961 
L 438.254237 255.147961 
L 437.507143 253.264078 
L 437.680905 253.264078 
L 437.404138 252.636117 
L 437.490965 252.636117 
L 438.009146 252.636117 
L 437.458904 251.380194 
L 437.545095 251.380194 
L 439.325299 251.380194 
L 438.78296 250.124272 
L 438.866617 250.124272 
L 439.778667 250.124272 
L 439.509771 249.496311 
L 439.592086 249.496311 
L 439.756352 249.496311 
L 439.488266 248.86835 
L 439.570354 248.86835 
L 440.707007 248.86835 
L 440.176093 247.612427 
L 440.256664 247.612427 
L 440.577778 247.612427 
L 440.31357 246.984466 
L 440.393691 246.984466 
L 440.951299 246.984466 
L 440.688536 246.356505 
L 440.767867 246.356505 
L 441.788865 246.356505 
L 441.528317 245.728544 
L 441.606201 245.728544 
L 442.071185 245.728544 
L 441.811915 245.100583 
L 441.889157 245.100583 
L 442.120226 245.100583 
L 441.861837 244.472621 
L 441.938771 244.472621 
L 442.168922 244.472621 
L 441.654258 243.216699 
L 441.731013 243.216699 
L 442.643724 243.216699 
L 442.133774 241.960777 
L 442.209395 241.960777 
L 443.182966 241.960777 
L 442.930255 241.332816 
L 443.004545 241.332816 
L 443.448148 241.332816 
L 443.196642 240.704854 
L 443.270342 240.704854 
L 443.417442 240.704854 
L 443.166644 240.076893 
L 443.240164 240.076893 
L 443.533243 240.076893 
L 443.28339 239.448932 
L 443.356531 239.448932 
L 443.865741 239.448932 
L 443.617185 238.820971 
L 443.689655 238.820971 
L 444.835987 238.820971 
L 444.589773 238.19301 
L 444.660721 238.19301 
L 444.802335 238.19301 
L 444.5568 237.565049 
L 444.627582 237.565049 
L 446.843836 237.565049 
L 446.602412 236.937087 
L 446.670293 236.937087 
L 446.738086 236.937087 
L 446.497202 236.309126 
L 446.56502 236.309126 
L 446.835409 236.309126 
L 446.355699 235.053204 
L 446.423301 235.053204 
L 448.08535 235.053204 
L 447.848822 234.425243 
L 447.914313 234.425243 
L 448.564665 234.425243 
L 448.329627 233.797282 
L 448.394318 233.797282 
L 448.587902 233.797282 
L 448.353589 233.16932 
L 448.418062 233.16932 
L 449.058349 233.16932 
L 448.8255 232.541359 
L 448.889194 232.541359 
L 449.206476 232.541359 
L 448.974549 231.913398 
L 449.037873 231.913398 
L 449.227374 231.913398 
L 448.996154 231.285437 
L 449.059268 231.285437 
L 449.872694 231.285437 
L 449.643208 230.657476 
L 449.705344 230.657476 
L 449.891294 230.657476 
L 449.6625 230.029515 
L 449.724434 230.029515 
L 450.886925 230.029515 
L 450.660436 229.401553 
L 450.720979 229.401553 
L 452.38698 229.401553 
L 452.163636 228.773592 
L 452.280712 228.773592 
L 452.746249 228.773592 
L 452.418385 227.51767 
L 453.620955 227.51767 
L 453.182442 226.261748 
L 453.295819 226.261748 
L 453.578112 226.261748 
L 453.359896 225.633786 
L 453.472543 225.633786 
L 454.364433 225.633786 
L 454.14814 225.005825 
L 454.258662 225.005825 
L 454.588718 225.005825 
L 454.373405 224.377864 
L 454.483106 224.377864 
L 455.190119 224.377864 
L 454.976411 223.749903 
L 455.084442 223.749903 
L 456.467 223.749903 
L 456.256024 223.121942 
L 456.360899 223.121942 
L 457.70339 223.121942 
L 457.495082 222.493981 
L 457.596943 222.493981 
L 457.647791 222.493981 
L 457.334241 221.238058 
L 457.435889 221.238058 
L 457.228859 220.610097 
L 457.330456 220.610097 
L 458.284739 220.610097 
L 457.924732 219.354175 
L 457.974531 219.354175 
L 459.347544 219.354175 
L 459.145407 218.726214 
L 459.242089 218.726214 
L 459.290353 218.726214 
L 459.088672 218.098252 
L 459.185211 218.098252 
L 459.712559 218.098252 
L 459.512134 217.470291 
L 459.607524 217.470291 
L 459.8925 217.470291 
L 459.69292 216.84233 
L 459.787676 216.84233 
L 459.976596 216.84233 
L 459.777697 216.214369 
L 459.872021 216.214369 
L 461.400611 216.214369 
L 461.204633 215.586408 
L 461.295778 215.586408 
L 461.703646 215.586408 
L 461.508704 214.958447 
L 461.598989 214.958447 
L 463.410401 214.958447 
L 463.218861 214.330485 
L 463.30549 214.330485 
L 464.331818 214.330485 
L 464.142355 213.702524 
L 464.22694 213.702524 
L 466.329429 213.702524 
L 466.143884 213.074563 
L 466.224394 213.074563 
L 466.425 213.074563 
L 466.240114 212.446602 
L 466.320227 212.446602 
L 466.599433 212.446602 
L 466.415337 211.818641 
L 466.494908 211.818641 
L 469.225593 211.818641 
L 469.046512 211.19068 
L 469.158197 211.19068 
L 469.85851 211.19068 
L 469.540307 209.934757 
L 469.613514 209.934757 
L 471.156164 209.934757 
L 470.842983 208.678835 
L 470.913492 208.678835 
L 471.438371 208.678835 
L 471.265455 208.050874 
L 471.369786 208.050874 
L 471.681141 208.050874 
L 471.509099 207.422913 
L 471.612522 207.422913 
L 472.531328 207.422913 
L 472.361211 206.794951 
L 472.462162 206.794951 
L 472.562853 206.794951 
L 472.393233 206.16699 
L 472.493841 206.16699 
L 472.627583 206.16699 
L 472.356522 204.911068 
L 472.389945 204.911068 
L 473.832873 204.911068 
L 473.666764 204.283107 
L 473.763382 204.283107 
L 473.955893 204.283107 
L 473.657196 203.027184 
L 473.721322 203.027184 
L 474.008571 203.027184 
L 473.743406 201.771262 
L 473.775248 201.771262 
L 474.218283 201.771262 
L 474.054949 201.143301 
L 474.149385 201.143301 
L 474.555936 201.143301 
L 474.293768 199.887379 
L 474.324919 199.887379 
L 475.760927 199.887379 
L 475.601478 199.259417 
L 475.691464 199.259417 
L 475.751335 199.259417 
L 475.592271 198.631456 
L 475.682053 198.631456 
L 475.950119 198.631456 
L 475.722833 197.375534 
L 476.018762 197.375534 
L 475.861348 196.747573 
L 475.949823 196.747573 
L 476.214 196.747573 
L 476.057311 196.119612 
L 476.145106 196.119612 
L 476.261845 196.119612 
L 476.105627 195.49165 
L 476.193091 195.49165 
L 478.23246 195.49165 
L 478.08 194.863689 
L 478.190224 194.863689 
L 479.060127 194.863689 
L 478.866567 193.607767 
L 480.392029 193.607767 
L 480.244408 192.979806 
L 480.347409 192.979806 
L 480.398796 192.979806 
L 480.10441 191.723883 
L 480.207314 191.723883 
L 480.590554 191.723883 
L 480.444356 191.095922 
L 480.546026 191.095922 
L 481.620704 191.095922 
L 481.476636 190.467961 
L 481.575107 190.467961 
L 482.014785 190.467961 
L 481.871746 189.84 
L 481.968862 189.84 
L 486.56213 189.84 
L 486.427374 189.212039 
L 486.532972 189.212039 
L 490.060186 189.212039 
L 489.93199 188.584078 
L 490.044988 188.584078 
L 492.567438 188.584078 
L 492.444085 187.956117 
L 492.547706 187.956117 
L 492.633777 187.956117 
L 492.510842 187.328155 
L 492.613978 187.328155 
L 492.71675 187.328155 
L 492.594261 186.700194 
L 492.696857 186.700194 
L 494.274393 186.700194 
L 494.155029 186.072233 
L 494.268092 186.072233 
L 494.90561 186.072233 
L 494.787683 185.444272 
L 494.897975 185.444272 
L 496.605372 185.444272 
L 496.605372 185.444272 
" style="fill:none;stroke:#2ca02c;stroke-linecap:square;stroke-width:2;"/>
   </g>
   <g id="patch_3">
    <path d="M 76.5 448.56 
L 76.5 60.48 
" style="fill:none;stroke:#000000;stroke-linecap:square;stroke-linejoin:miter;stroke-width:0.8;"/>
   </g>
   <g id="patch_4">
    <path d="M 550.8 448.56 
L 550.8 60.48 
" style="fill:none;stroke:#000000;stroke-linecap:square;stroke-linejoin:miter;stroke-width:0.8;"/>
   </g>
   <g id="patch_5">
    <path d="M 76.5 448.56 
L 550.8 448.56 
" style="fill:none;stroke:#000000;stroke-linecap:square;stroke-linejoin:miter;stroke-width:0.8;"/>
   </g>
   <g id="patch_6">
    <path d="M 76.5 60.48 
L 550.8 60.48 
" style="fill:none;stroke:#000000;stroke-linecap:square;stroke-linejoin:miter;stroke-width:0.8;"/>
   </g>
   <g id="text_25">
    <!-- graf: img1-img4 -->
    <defs>
     <path d="M 45.40625 27.984375 
Q 45.40625 37.75 41.375 43.109375 
Q 37.359375 48.484375 30.078125 48.484375 
Q 22.859375 48.484375 18.828125 43.109375 
Q 14.796875 37.75 14.796875 27.984375 
Q 14.796875 18.265625 18.828125 12.890625 
Q 22.859375 7.515625 30.078125 7.515625 
Q 37.359375 7.515625 41.375 12.890625 
Q 45.40625 18.265625 45.40625 27.984375 
z
M 54.390625 6.78125 
Q 54.390625 -7.171875 48.1875 -13.984375 
Q 42 -20.796875 29.203125 -20.796875 
Q 24.46875 -20.796875 20.265625 -20.09375 
Q 16.0625 -19.390625 12.109375 -17.921875 
L 12.109375 -9.1875 
Q 16.0625 -11.328125 19.921875 -12.34375 
Q 23.78125 -13.375 27.78125 -13.375 
Q 36.625 -13.375 41.015625 -8.765625 
Q 45.40625 -4.15625 45.40625 5.171875 
L 45.40625 9.625 
Q 42.625 4.78125 38.28125 2.390625 
Q 33.9375 0 27.875 0 
Q 17.828125 0 11.671875 7.65625 
Q 5.515625 15.328125 5.515625 27.984375 
Q 5.515625 40.671875 11.671875 48.328125 
Q 17.828125 56 27.875 56 
Q 33.9375 56 38.28125 53.609375 
Q 42.625 51.21875 45.40625 46.390625 
L 45.40625 54.6875 
L 54.390625 54.6875 
z
" id="DejaVuSans-103"/>
     <path d="M 34.28125 27.484375 
Q 23.390625 27.484375 19.1875 25 
Q 14.984375 22.515625 14.984375 16.5 
Q 14.984375 11.71875 18.140625 8.90625 
Q 21.296875 6.109375 26.703125 6.109375 
Q 34.1875 6.109375 38.703125 11.40625 
Q 43.21875 16.703125 43.21875 25.484375 
L 43.21875 27.484375 
z
M 52.203125 31.203125 
L 52.203125 0 
L 43.21875 0 
L 43.21875 8.296875 
Q 40.140625 3.328125 35.546875 0.953125 
Q 30.953125 -1.421875 24.3125 -1.421875 
Q 15.921875 -1.421875 10.953125 3.296875 
Q 6 8.015625 6 15.921875 
Q 6 25.140625 12.171875 29.828125 
Q 18.359375 34.515625 30.609375 34.515625 
L 43.21875 34.515625 
L 43.21875 35.40625 
Q 43.21875 41.609375 39.140625 45 
Q 35.0625 48.390625 27.6875 48.390625 
Q 23 48.390625 18.546875 47.265625 
Q 14.109375 46.140625 10.015625 43.890625 
L 10.015625 52.203125 
Q 14.9375 54.109375 19.578125 55.046875 
Q 24.21875 56 28.609375 56 
Q 40.484375 56 46.34375 49.84375 
Q 52.203125 43.703125 52.203125 31.203125 
z
" id="DejaVuSans-97"/>
     <path d="M 37.109375 75.984375 
L 37.109375 68.5 
L 28.515625 68.5 
Q 23.6875 68.5 21.796875 66.546875 
Q 19.921875 64.59375 19.921875 59.515625 
L 19.921875 54.6875 
L 34.71875 54.6875 
L 34.71875 47.703125 
L 19.921875 47.703125 
L 19.921875 0 
L 10.890625 0 
L 10.890625 47.703125 
L 2.296875 47.703125 
L 2.296875 54.6875 
L 10.890625 54.6875 
L 10.890625 58.5 
Q 10.890625 67.625 15.140625 71.796875 
Q 19.390625 75.984375 28.609375 75.984375 
z
" id="DejaVuSans-102"/>
     <path d="M 11.71875 12.40625 
L 22.015625 12.40625 
L 22.015625 0 
L 11.71875 0 
z
M 11.71875 51.703125 
L 22.015625 51.703125 
L 22.015625 39.3125 
L 11.71875 39.3125 
z
" id="DejaVuSans-58"/>
     <path id="DejaVuSans-32"/>
     <path d="M 52 44.1875 
Q 55.375 50.25 60.0625 53.125 
Q 64.75 56 71.09375 56 
Q 79.640625 56 84.28125 50.015625 
Q 88.921875 44.046875 88.921875 33.015625 
L 88.921875 0 
L 79.890625 0 
L 79.890625 32.71875 
Q 79.890625 40.578125 77.09375 44.375 
Q 74.3125 48.1875 68.609375 48.1875 
Q 61.625 48.1875 57.5625 43.546875 
Q 53.515625 38.921875 53.515625 30.90625 
L 53.515625 0 
L 44.484375 0 
L 44.484375 32.71875 
Q 44.484375 40.625 41.703125 44.40625 
Q 38.921875 48.1875 33.109375 48.1875 
Q 26.21875 48.1875 22.15625 43.53125 
Q 18.109375 38.875 18.109375 30.90625 
L 18.109375 0 
L 9.078125 0 
L 9.078125 54.6875 
L 18.109375 54.6875 
L 18.109375 46.1875 
Q 21.1875 51.21875 25.484375 53.609375 
Q 29.78125 56 35.6875 56 
Q 41.65625 56 45.828125 52.96875 
Q 50 49.953125 52 44.1875 
z
" id="DejaVuSans-109"/>
    </defs>
    <g transform="translate(265.434375 41.042625)scale(0.12 -0.12)">
     <use xlink:href="#DejaVuSans-103"/>
     <use x="63.476562" xlink:href="#DejaVuSans-114"/>
     <use x="104.589844" xlink:href="#DejaVuSans-97"/>
     <use x="165.869141" xlink:href="#DejaVuSans-102"/>
     <use x="197.449219" xlink:href="#DejaVuSans-58"/>
     <use x="231.140625" xlink:href="#DejaVuSans-32"/>
     <use x="262.927734" xlink:href="#DejaVuSans-105"/>
     <use x="290.710938" xlink:href="#DejaVuSans-109"/>
     <use x="388.123047" xlink:href="#DejaVuSans-103"/>
     <use x="451.599609" xlink:href="#DejaVuSans-49"/>
     <use x="515.222656" xlink:href="#DejaVuSans-45"/>
     <use x="551.306641" xlink:href="#DejaVuSans-105"/>
     <use x="579.089844" xlink:href="#DejaVuSans-109"/>
     <use x="676.501953" xlink:href="#DejaVuSans-103"/>
     <use x="739.978516" xlink:href="#DejaVuSans-52"/>
    </g>
    <!-- NearestNeighbours -->
    <defs>
     <path d="M 9.8125 72.90625 
L 23.09375 72.90625 
L 55.421875 11.921875 
L 55.421875 72.90625 
L 64.984375 72.90625 
L 64.984375 0 
L 51.703125 0 
L 19.390625 60.984375 
L 19.390625 0 
L 9.8125 0 
z
" id="DejaVuSans-78"/>
     <path d="M 54.890625 33.015625 
L 54.890625 0 
L 45.90625 0 
L 45.90625 32.71875 
Q 45.90625 40.484375 42.875 44.328125 
Q 39.84375 48.1875 33.796875 48.1875 
Q 26.515625 48.1875 22.3125 43.546875 
Q 18.109375 38.921875 18.109375 30.90625 
L 18.109375 0 
L 9.078125 0 
L 9.078125 75.984375 
L 18.109375 75.984375 
L 18.109375 46.1875 
Q 21.34375 51.125 25.703125 53.5625 
Q 30.078125 56 35.796875 56 
Q 45.21875 56 50.046875 50.171875 
Q 54.890625 44.34375 54.890625 33.015625 
z
" id="DejaVuSans-104"/>
     <path d="M 48.6875 27.296875 
Q 48.6875 37.203125 44.609375 42.84375 
Q 40.53125 48.484375 33.40625 48.484375 
Q 26.265625 48.484375 22.1875 42.84375 
Q 18.109375 37.203125 18.109375 27.296875 
Q 18.109375 17.390625 22.1875 11.75 
Q 26.265625 6.109375 33.40625 6.109375 
Q 40.53125 6.109375 44.609375 11.75 
Q 48.6875 17.390625 48.6875 27.296875 
z
M 18.109375 46.390625 
Q 20.953125 51.265625 25.265625 53.625 
Q 29.59375 56 35.59375 56 
Q 45.5625 56 51.78125 48.09375 
Q 58.015625 40.1875 58.015625 27.296875 
Q 58.015625 14.40625 51.78125 6.484375 
Q 45.5625 -1.421875 35.59375 -1.421875 
Q 29.59375 -1.421875 25.265625 0.953125 
Q 20.953125 3.328125 18.109375 8.203125 
L 18.109375 0 
L 9.078125 0 
L 9.078125 75.984375 
L 18.109375 75.984375 
z
" id="DejaVuSans-98"/>
     <path d="M 8.5 21.578125 
L 8.5 54.6875 
L 17.484375 54.6875 
L 17.484375 21.921875 
Q 17.484375 14.15625 20.5 10.265625 
Q 23.53125 6.390625 29.59375 6.390625 
Q 36.859375 6.390625 41.078125 11.03125 
Q 45.3125 15.671875 45.3125 23.6875 
L 45.3125 54.6875 
L 54.296875 54.6875 
L 54.296875 0 
L 45.3125 0 
L 45.3125 8.40625 
Q 42.046875 3.421875 37.71875 1 
Q 33.40625 -1.421875 27.6875 -1.421875 
Q 18.265625 -1.421875 13.375 4.4375 
Q 8.5 10.296875 8.5 21.578125 
z
M 31.109375 56 
z
" id="DejaVuSans-117"/>
    </defs>
    <g transform="translate(255.957188 54.48)scale(0.12 -0.12)">
     <use xlink:href="#DejaVuSans-78"/>
     <use x="74.804688" xlink:href="#DejaVuSans-101"/>
     <use x="136.328125" xlink:href="#DejaVuSans-97"/>
     <use x="197.607422" xlink:href="#DejaVuSans-114"/>
     <use x="236.470703" xlink:href="#DejaVuSans-101"/>
     <use x="297.994141" xlink:href="#DejaVuSans-115"/>
     <use x="350.09375" xlink:href="#DejaVuSans-116"/>
     <use x="389.302734" xlink:href="#DejaVuSans-78"/>
     <use x="464.107422" xlink:href="#DejaVuSans-101"/>
     <use x="525.630859" xlink:href="#DejaVuSans-105"/>
     <use x="553.414062" xlink:href="#DejaVuSans-103"/>
     <use x="616.890625" xlink:href="#DejaVuSans-104"/>
     <use x="680.269531" xlink:href="#DejaVuSans-98"/>
     <use x="743.746094" xlink:href="#DejaVuSans-111"/>
     <use x="804.927734" xlink:href="#DejaVuSans-117"/>
     <use x="868.306641" xlink:href="#DejaVuSans-114"/>
     <use x="909.419922" xlink:href="#DejaVuSans-115"/>
    </g>
   </g>
   <g id="legend_1">
    <g id="patch_7">
     <path d="M 373.820313 112.514375 
L 543.8 112.514375 
Q 545.8 112.514375 545.8 110.514375 
L 545.8 67.48 
Q 545.8 65.48 543.8 65.48 
L 373.820313 65.48 
Q 371.820313 65.48 371.820313 67.48 
L 371.820313 110.514375 
Q 371.820313 112.514375 373.820313 112.514375 
z
" style="fill:#ffffff;opacity:0.8;stroke:#cccccc;stroke-linejoin:miter;"/>
    </g>
    <g id="line2d_48">
     <path d="M 375.820313 73.578438 
L 395.820313 73.578438 
" style="fill:none;stroke:#1f77b4;stroke-linecap:square;stroke-width:2;"/>
    </g>
    <g id="line2d_49"/>
    <g id="text_26">
     <!-- root-cvsift AP: 6.2, %In: 8.1 -->
     <defs>
      <path d="M 2.984375 54.6875 
L 12.5 54.6875 
L 29.59375 8.796875 
L 46.6875 54.6875 
L 56.203125 54.6875 
L 35.6875 0 
L 23.484375 0 
z
" id="DejaVuSans-118"/>
      <path d="M 34.1875 63.1875 
L 20.796875 26.90625 
L 47.609375 26.90625 
z
M 28.609375 72.90625 
L 39.796875 72.90625 
L 67.578125 0 
L 57.328125 0 
L 50.6875 18.703125 
L 17.828125 18.703125 
L 11.1875 0 
L 0.78125 0 
z
" id="DejaVuSans-65"/>
      <path d="M 19.671875 64.796875 
L 19.671875 37.40625 
L 32.078125 37.40625 
Q 38.96875 37.40625 42.71875 40.96875 
Q 46.484375 44.53125 46.484375 51.125 
Q 46.484375 57.671875 42.71875 61.234375 
Q 38.96875 64.796875 32.078125 64.796875 
z
M 9.8125 72.90625 
L 32.078125 72.90625 
Q 44.34375 72.90625 50.609375 67.359375 
Q 56.890625 61.8125 56.890625 51.125 
Q 56.890625 40.328125 50.609375 34.8125 
Q 44.34375 29.296875 32.078125 29.296875 
L 19.671875 29.296875 
L 19.671875 0 
L 9.8125 0 
z
" id="DejaVuSans-80"/>
      <path d="M 11.71875 12.40625 
L 22.015625 12.40625 
L 22.015625 4 
L 14.015625 -11.625 
L 7.71875 -11.625 
L 11.71875 4 
z
" id="DejaVuSans-44"/>
      <path d="M 72.703125 32.078125 
Q 68.453125 32.078125 66.03125 28.46875 
Q 63.625 24.859375 63.625 18.40625 
Q 63.625 12.0625 66.03125 8.421875 
Q 68.453125 4.78125 72.703125 4.78125 
Q 76.859375 4.78125 79.265625 8.421875 
Q 81.6875 12.0625 81.6875 18.40625 
Q 81.6875 24.8125 79.265625 28.4375 
Q 76.859375 32.078125 72.703125 32.078125 
z
M 72.703125 38.28125 
Q 80.421875 38.28125 84.953125 32.90625 
Q 89.5 27.546875 89.5 18.40625 
Q 89.5 9.28125 84.9375 3.921875 
Q 80.375 -1.421875 72.703125 -1.421875 
Q 64.890625 -1.421875 60.34375 3.921875 
Q 55.8125 9.28125 55.8125 18.40625 
Q 55.8125 27.59375 60.375 32.9375 
Q 64.9375 38.28125 72.703125 38.28125 
z
M 22.3125 68.015625 
Q 18.109375 68.015625 15.6875 64.375 
Q 13.28125 60.75 13.28125 54.390625 
Q 13.28125 47.953125 15.671875 44.328125 
Q 18.0625 40.71875 22.3125 40.71875 
Q 26.5625 40.71875 28.96875 44.328125 
Q 31.390625 47.953125 31.390625 54.390625 
Q 31.390625 60.6875 28.953125 64.34375 
Q 26.515625 68.015625 22.3125 68.015625 
z
M 66.40625 74.21875 
L 74.21875 74.21875 
L 28.609375 -1.421875 
L 20.796875 -1.421875 
z
M 22.3125 74.21875 
Q 30.03125 74.21875 34.609375 68.875 
Q 39.203125 63.53125 39.203125 54.390625 
Q 39.203125 45.171875 34.640625 39.84375 
Q 30.078125 34.515625 22.3125 34.515625 
Q 14.546875 34.515625 10.03125 39.859375 
Q 5.515625 45.21875 5.515625 54.390625 
Q 5.515625 63.484375 10.046875 68.84375 
Q 14.59375 74.21875 22.3125 74.21875 
z
" id="DejaVuSans-37"/>
      <path d="M 9.8125 72.90625 
L 19.671875 72.90625 
L 19.671875 0 
L 9.8125 0 
z
" id="DejaVuSans-73"/>
     </defs>
     <g transform="translate(403.820313 77.078438)scale(0.1 -0.1)">
      <use xlink:href="#DejaVuSans-114"/>
      <use x="38.863281" xlink:href="#DejaVuSans-111"/>
      <use x="100.044922" xlink:href="#DejaVuSans-111"/>
      <use x="161.226562" xlink:href="#DejaVuSans-116"/>
      <use x="200.435547" xlink:href="#DejaVuSans-45"/>
      <use x="236.519531" xlink:href="#DejaVuSans-99"/>
      <use x="291.5" xlink:href="#DejaVuSans-118"/>
      <use x="350.679688" xlink:href="#DejaVuSans-115"/>
      <use x="402.779297" xlink:href="#DejaVuSans-105"/>
      <use x="430.5625" xlink:href="#DejaVuSans-102"/>
      <use x="464.017578" xlink:href="#DejaVuSans-116"/>
      <use x="503.226562" xlink:href="#DejaVuSans-32"/>
      <use x="535.013672" xlink:href="#DejaVuSans-65"/>
      <use x="603.421875" xlink:href="#DejaVuSans-80"/>
      <use x="663.724609" xlink:href="#DejaVuSans-58"/>
      <use x="697.416016" xlink:href="#DejaVuSans-32"/>
      <use x="729.203125" xlink:href="#DejaVuSans-54"/>
      <use x="792.826172" xlink:href="#DejaVuSans-46"/>
      <use x="824.613281" xlink:href="#DejaVuSans-50"/>
      <use x="888.236328" xlink:href="#DejaVuSans-44"/>
      <use x="920.023438" xlink:href="#DejaVuSans-32"/>
      <use x="951.810547" xlink:href="#DejaVuSans-37"/>
      <use x="1046.830078" xlink:href="#DejaVuSans-73"/>
      <use x="1076.322266" xlink:href="#DejaVuSans-110"/>
      <use x="1139.701172" xlink:href="#DejaVuSans-58"/>
      <use x="1173.392578" xlink:href="#DejaVuSans-32"/>
      <use x="1205.179688" xlink:href="#DejaVuSans-56"/>
      <use x="1268.802734" xlink:href="#DejaVuSans-46"/>
      <use x="1300.589844" xlink:href="#DejaVuSans-49"/>
     </g>
    </g>
    <g id="line2d_50">
     <path d="M 375.820313 88.256563 
L 395.820313 88.256563 
" style="fill:none;stroke:#ff7f0e;stroke-linecap:square;stroke-width:2;"/>
    </g>
    <g id="line2d_51"/>
    <g id="text_27">
     <!-- tfeat AP: 4.0, %In: 7.7 -->
     <g transform="translate(403.820313 91.756563)scale(0.1 -0.1)">
      <use xlink:href="#DejaVuSans-116"/>
      <use x="39.208984" xlink:href="#DejaVuSans-102"/>
      <use x="74.414062" xlink:href="#DejaVuSans-101"/>
      <use x="135.9375" xlink:href="#DejaVuSans-97"/>
      <use x="197.216797" xlink:href="#DejaVuSans-116"/>
      <use x="236.425781" xlink:href="#DejaVuSans-32"/>
      <use x="268.212891" xlink:href="#DejaVuSans-65"/>
      <use x="336.621094" xlink:href="#DejaVuSans-80"/>
      <use x="396.923828" xlink:href="#DejaVuSans-58"/>
      <use x="430.615234" xlink:href="#DejaVuSans-32"/>
      <use x="462.402344" xlink:href="#DejaVuSans-52"/>
      <use x="526.025391" xlink:href="#DejaVuSans-46"/>
      <use x="557.8125" xlink:href="#DejaVuSans-48"/>
      <use x="621.435547" xlink:href="#DejaVuSans-44"/>
      <use x="653.222656" xlink:href="#DejaVuSans-32"/>
      <use x="685.009766" xlink:href="#DejaVuSans-37"/>
      <use x="780.029297" xlink:href="#DejaVuSans-73"/>
      <use x="809.521484" xlink:href="#DejaVuSans-110"/>
      <use x="872.900391" xlink:href="#DejaVuSans-58"/>
      <use x="906.591797" xlink:href="#DejaVuSans-32"/>
      <use x="938.378906" xlink:href="#DejaVuSans-55"/>
      <use x="1002.001953" xlink:href="#DejaVuSans-46"/>
      <use x="1033.789062" xlink:href="#DejaVuSans-55"/>
     </g>
    </g>
    <g id="line2d_52">
     <path d="M 375.820313 102.934687 
L 395.820313 102.934687 
" style="fill:none;stroke:#2ca02c;stroke-linecap:square;stroke-width:2;"/>
    </g>
    <g id="line2d_53"/>
    <g id="text_28">
     <!-- hardnet AP: 18.3, %In: 11.4 -->
     <defs>
      <path d="M 45.40625 46.390625 
L 45.40625 75.984375 
L 54.390625 75.984375 
L 54.390625 0 
L 45.40625 0 
L 45.40625 8.203125 
Q 42.578125 3.328125 38.25 0.953125 
Q 33.9375 -1.421875 27.875 -1.421875 
Q 17.96875 -1.421875 11.734375 6.484375 
Q 5.515625 14.40625 5.515625 27.296875 
Q 5.515625 40.1875 11.734375 48.09375 
Q 17.96875 56 27.875 56 
Q 33.9375 56 38.25 53.625 
Q 42.578125 51.265625 45.40625 46.390625 
z
M 14.796875 27.296875 
Q 14.796875 17.390625 18.875 11.75 
Q 22.953125 6.109375 30.078125 6.109375 
Q 37.203125 6.109375 41.296875 11.75 
Q 45.40625 17.390625 45.40625 27.296875 
Q 45.40625 37.203125 41.296875 42.84375 
Q 37.203125 48.484375 30.078125 48.484375 
Q 22.953125 48.484375 18.875 42.84375 
Q 14.796875 37.203125 14.796875 27.296875 
z
" id="DejaVuSans-100"/>
     </defs>
     <g transform="translate(403.820313 106.434687)scale(0.1 -0.1)">
      <use xlink:href="#DejaVuSans-104"/>
      <use x="63.378906" xlink:href="#DejaVuSans-97"/>
      <use x="124.658203" xlink:href="#DejaVuSans-114"/>
      <use x="164.021484" xlink:href="#DejaVuSans-100"/>
      <use x="227.498047" xlink:href="#DejaVuSans-110"/>
      <use x="290.876953" xlink:href="#DejaVuSans-101"/>
      <use x="352.400391" xlink:href="#DejaVuSans-116"/>
      <use x="391.609375" xlink:href="#DejaVuSans-32"/>
      <use x="423.396484" xlink:href="#DejaVuSans-65"/>
      <use x="491.804688" xlink:href="#DejaVuSans-80"/>
      <use x="552.107422" xlink:href="#DejaVuSans-58"/>
      <use x="585.798828" xlink:href="#DejaVuSans-32"/>
      <use x="617.585938" xlink:href="#DejaVuSans-49"/>
      <use x="681.208984" xlink:href="#DejaVuSans-56"/>
      <use x="744.832031" xlink:href="#DejaVuSans-46"/>
      <use x="776.619141" xlink:href="#DejaVuSans-51"/>
      <use x="840.242188" xlink:href="#DejaVuSans-44"/>
      <use x="872.029297" xlink:href="#DejaVuSans-32"/>
      <use x="903.816406" xlink:href="#DejaVuSans-37"/>
      <use x="998.835938" xlink:href="#DejaVuSans-73"/>
      <use x="1028.328125" xlink:href="#DejaVuSans-110"/>
      <use x="1091.707031" xlink:href="#DejaVuSans-58"/>
      <use x="1125.398438" xlink:href="#DejaVuSans-32"/>
      <use x="1157.185547" xlink:href="#DejaVuSans-49"/>
      <use x="1220.808594" xlink:href="#DejaVuSans-49"/>
      <use x="1284.431641" xlink:href="#DejaVuSans-46"/>
      <use x="1316.21875" xlink:href="#DejaVuSans-52"/>
     </g>
    </g>
   </g>
  </g>
 </g>
 <defs>
  <clipPath id="pb3c1a39da8">
   <rect height="388.08" width="474.3" x="76.5" y="60.48"/>
  </clipPath>
 </defs>
</svg>
