<?xml version="1.0" encoding="utf-8" standalone="no"?>
<!DOCTYPE svg PUBLIC "-//W3C//DTD SVG 1.1//EN"
  "http://www.w3.org/Graphics/SVG/1.1/DTD/svg11.dtd">
<!-- Created with matplotlib (https://matplotlib.org/) -->
<svg height="504pt" version="1.1" viewBox="0 0 612 504" width="612pt" xmlns="http://www.w3.org/2000/svg" xmlns:xlink="http://www.w3.org/1999/xlink">
 <defs>
  <style type="text/css">
*{stroke-linecap:butt;stroke-linejoin:round;}
  </style>
 </defs>
 <g id="figure_1">
  <g id="patch_1">
   <path d="M 0 504 
L 612 504 
L 612 0 
L 0 0 
z
" style="fill:#ffffff;"/>
  </g>
  <g id="axes_1">
   <g id="patch_2">
    <path d="M 76.5 448.56 
L 550.8 448.56 
L 550.8 60.48 
L 76.5 60.48 
z
" style="fill:#ffffff;"/>
   </g>
   <g id="matplotlib.axis_1">
    <g id="xtick_1">
     <g id="line2d_1">
      <path clip-path="url(#pb32ce40631)" d="M 76.5 448.56 
L 76.5 60.48 
" style="fill:none;stroke:#b0b0b0;stroke-linecap:square;stroke-width:0.8;"/>
     </g>
     <g id="line2d_2">
      <defs>
       <path d="M 0 0 
L 0 3.5 
" id="m9a1f0e5e17" style="stroke:#000000;stroke-width:0.8;"/>
      </defs>
      <g>
       <use style="stroke:#000000;stroke-width:0.8;" x="76.5" xlink:href="#m9a1f0e5e17" y="448.56"/>
      </g>
     </g>
     <g id="text_1">
      <!-- 0.0 -->
      <defs>
       <path d="M 31.78125 66.40625 
Q 24.171875 66.40625 20.328125 58.90625 
Q 16.5 51.421875 16.5 36.375 
Q 16.5 21.390625 20.328125 13.890625 
Q 24.171875 6.390625 31.78125 6.390625 
Q 39.453125 6.390625 43.28125 13.890625 
Q 47.125 21.390625 47.125 36.375 
Q 47.125 51.421875 43.28125 58.90625 
Q 39.453125 66.40625 31.78125 66.40625 
z
M 31.78125 74.21875 
Q 44.046875 74.21875 50.515625 64.515625 
Q 56.984375 54.828125 56.984375 36.375 
Q 56.984375 17.96875 50.515625 8.265625 
Q 44.046875 -1.421875 31.78125 -1.421875 
Q 19.53125 -1.421875 13.0625 8.265625 
Q 6.59375 17.96875 6.59375 36.375 
Q 6.59375 54.828125 13.0625 64.515625 
Q 19.53125 74.21875 31.78125 74.21875 
z
" id="DejaVuSans-48"/>
       <path d="M 10.6875 12.40625 
L 21 12.40625 
L 21 0 
L 10.6875 0 
z
" id="DejaVuSans-46"/>
      </defs>
      <g transform="translate(68.548438 463.158437)scale(0.1 -0.1)">
       <use xlink:href="#DejaVuSans-48"/>
       <use x="63.623047" xlink:href="#DejaVuSans-46"/>
       <use x="95.410156" xlink:href="#DejaVuSans-48"/>
      </g>
     </g>
    </g>
    <g id="xtick_2">
     <g id="line2d_3">
      <path clip-path="url(#pb32ce40631)" d="M 123.93 448.56 
L 123.93 60.48 
" style="fill:none;stroke:#b0b0b0;stroke-linecap:square;stroke-width:0.8;"/>
     </g>
     <g id="line2d_4">
      <g>
       <use style="stroke:#000000;stroke-width:0.8;" x="123.93" xlink:href="#m9a1f0e5e17" y="448.56"/>
      </g>
     </g>
     <g id="text_2">
      <!-- 0.1 -->
      <defs>
       <path d="M 12.40625 8.296875 
L 28.515625 8.296875 
L 28.515625 63.921875 
L 10.984375 60.40625 
L 10.984375 69.390625 
L 28.421875 72.90625 
L 38.28125 72.90625 
L 38.28125 8.296875 
L 54.390625 8.296875 
L 54.390625 0 
L 12.40625 0 
z
" id="DejaVuSans-49"/>
      </defs>
      <g transform="translate(115.978438 463.158437)scale(0.1 -0.1)">
       <use xlink:href="#DejaVuSans-48"/>
       <use x="63.623047" xlink:href="#DejaVuSans-46"/>
       <use x="95.410156" xlink:href="#DejaVuSans-49"/>
      </g>
     </g>
    </g>
    <g id="xtick_3">
     <g id="line2d_5">
      <path clip-path="url(#pb32ce40631)" d="M 171.36 448.56 
L 171.36 60.48 
" style="fill:none;stroke:#b0b0b0;stroke-linecap:square;stroke-width:0.8;"/>
     </g>
     <g id="line2d_6">
      <g>
       <use style="stroke:#000000;stroke-width:0.8;" x="171.36" xlink:href="#m9a1f0e5e17" y="448.56"/>
      </g>
     </g>
     <g id="text_3">
      <!-- 0.2 -->
      <defs>
       <path d="M 19.1875 8.296875 
L 53.609375 8.296875 
L 53.609375 0 
L 7.328125 0 
L 7.328125 8.296875 
Q 12.9375 14.109375 22.625 23.890625 
Q 32.328125 33.6875 34.8125 36.53125 
Q 39.546875 41.84375 41.421875 45.53125 
Q 43.3125 49.21875 43.3125 52.78125 
Q 43.3125 58.59375 39.234375 62.25 
Q 35.15625 65.921875 28.609375 65.921875 
Q 23.96875 65.921875 18.8125 64.3125 
Q 13.671875 62.703125 7.8125 59.421875 
L 7.8125 69.390625 
Q 13.765625 71.78125 18.9375 73 
Q 24.125 74.21875 28.421875 74.21875 
Q 39.75 74.21875 46.484375 68.546875 
Q 53.21875 62.890625 53.21875 53.421875 
Q 53.21875 48.921875 51.53125 44.890625 
Q 49.859375 40.875 45.40625 35.40625 
Q 44.1875 33.984375 37.640625 27.21875 
Q 31.109375 20.453125 19.1875 8.296875 
z
" id="DejaVuSans-50"/>
      </defs>
      <g transform="translate(163.408438 463.158437)scale(0.1 -0.1)">
       <use xlink:href="#DejaVuSans-48"/>
       <use x="63.623047" xlink:href="#DejaVuSans-46"/>
       <use x="95.410156" xlink:href="#DejaVuSans-50"/>
      </g>
     </g>
    </g>
    <g id="xtick_4">
     <g id="line2d_7">
      <path clip-path="url(#pb32ce40631)" d="M 218.79 448.56 
L 218.79 60.48 
" style="fill:none;stroke:#b0b0b0;stroke-linecap:square;stroke-width:0.8;"/>
     </g>
     <g id="line2d_8">
      <g>
       <use style="stroke:#000000;stroke-width:0.8;" x="218.79" xlink:href="#m9a1f0e5e17" y="448.56"/>
      </g>
     </g>
     <g id="text_4">
      <!-- 0.3 -->
      <defs>
       <path d="M 40.578125 39.3125 
Q 47.65625 37.796875 51.625 33 
Q 55.609375 28.21875 55.609375 21.1875 
Q 55.609375 10.40625 48.1875 4.484375 
Q 40.765625 -1.421875 27.09375 -1.421875 
Q 22.515625 -1.421875 17.65625 -0.515625 
Q 12.796875 0.390625 7.625 2.203125 
L 7.625 11.71875 
Q 11.71875 9.328125 16.59375 8.109375 
Q 21.484375 6.890625 26.8125 6.890625 
Q 36.078125 6.890625 40.9375 10.546875 
Q 45.796875 14.203125 45.796875 21.1875 
Q 45.796875 27.640625 41.28125 31.265625 
Q 36.765625 34.90625 28.71875 34.90625 
L 20.21875 34.90625 
L 20.21875 43.015625 
L 29.109375 43.015625 
Q 36.375 43.015625 40.234375 45.921875 
Q 44.09375 48.828125 44.09375 54.296875 
Q 44.09375 59.90625 40.109375 62.90625 
Q 36.140625 65.921875 28.71875 65.921875 
Q 24.65625 65.921875 20.015625 65.03125 
Q 15.375 64.15625 9.8125 62.3125 
L 9.8125 71.09375 
Q 15.4375 72.65625 20.34375 73.4375 
Q 25.25 74.21875 29.59375 74.21875 
Q 40.828125 74.21875 47.359375 69.109375 
Q 53.90625 64.015625 53.90625 55.328125 
Q 53.90625 49.265625 50.4375 45.09375 
Q 46.96875 40.921875 40.578125 39.3125 
z
" id="DejaVuSans-51"/>
      </defs>
      <g transform="translate(210.838438 463.158437)scale(0.1 -0.1)">
       <use xlink:href="#DejaVuSans-48"/>
       <use x="63.623047" xlink:href="#DejaVuSans-46"/>
       <use x="95.410156" xlink:href="#DejaVuSans-51"/>
      </g>
     </g>
    </g>
    <g id="xtick_5">
     <g id="line2d_9">
      <path clip-path="url(#pb32ce40631)" d="M 266.22 448.56 
L 266.22 60.48 
" style="fill:none;stroke:#b0b0b0;stroke-linecap:square;stroke-width:0.8;"/>
     </g>
     <g id="line2d_10">
      <g>
       <use style="stroke:#000000;stroke-width:0.8;" x="266.22" xlink:href="#m9a1f0e5e17" y="448.56"/>
      </g>
     </g>
     <g id="text_5">
      <!-- 0.4 -->
      <defs>
       <path d="M 37.796875 64.3125 
L 12.890625 25.390625 
L 37.796875 25.390625 
z
M 35.203125 72.90625 
L 47.609375 72.90625 
L 47.609375 25.390625 
L 58.015625 25.390625 
L 58.015625 17.1875 
L 47.609375 17.1875 
L 47.609375 0 
L 37.796875 0 
L 37.796875 17.1875 
L 4.890625 17.1875 
L 4.890625 26.703125 
z
" id="DejaVuSans-52"/>
      </defs>
      <g transform="translate(258.268438 463.158437)scale(0.1 -0.1)">
       <use xlink:href="#DejaVuSans-48"/>
       <use x="63.623047" xlink:href="#DejaVuSans-46"/>
       <use x="95.410156" xlink:href="#DejaVuSans-52"/>
      </g>
     </g>
    </g>
    <g id="xtick_6">
     <g id="line2d_11">
      <path clip-path="url(#pb32ce40631)" d="M 313.65 448.56 
L 313.65 60.48 
" style="fill:none;stroke:#b0b0b0;stroke-linecap:square;stroke-width:0.8;"/>
     </g>
     <g id="line2d_12">
      <g>
       <use style="stroke:#000000;stroke-width:0.8;" x="313.65" xlink:href="#m9a1f0e5e17" y="448.56"/>
      </g>
     </g>
     <g id="text_6">
      <!-- 0.5 -->
      <defs>
       <path d="M 10.796875 72.90625 
L 49.515625 72.90625 
L 49.515625 64.59375 
L 19.828125 64.59375 
L 19.828125 46.734375 
Q 21.96875 47.46875 24.109375 47.828125 
Q 26.265625 48.1875 28.421875 48.1875 
Q 40.625 48.1875 47.75 41.5 
Q 54.890625 34.8125 54.890625 23.390625 
Q 54.890625 11.625 47.5625 5.09375 
Q 40.234375 -1.421875 26.90625 -1.421875 
Q 22.3125 -1.421875 17.546875 -0.640625 
Q 12.796875 0.140625 7.71875 1.703125 
L 7.71875 11.625 
Q 12.109375 9.234375 16.796875 8.0625 
Q 21.484375 6.890625 26.703125 6.890625 
Q 35.15625 6.890625 40.078125 11.328125 
Q 45.015625 15.765625 45.015625 23.390625 
Q 45.015625 31 40.078125 35.4375 
Q 35.15625 39.890625 26.703125 39.890625 
Q 22.75 39.890625 18.8125 39.015625 
Q 14.890625 38.140625 10.796875 36.28125 
z
" id="DejaVuSans-53"/>
      </defs>
      <g transform="translate(305.698438 463.158437)scale(0.1 -0.1)">
       <use xlink:href="#DejaVuSans-48"/>
       <use x="63.623047" xlink:href="#DejaVuSans-46"/>
       <use x="95.410156" xlink:href="#DejaVuSans-53"/>
      </g>
     </g>
    </g>
    <g id="xtick_7">
     <g id="line2d_13">
      <path clip-path="url(#pb32ce40631)" d="M 361.08 448.56 
L 361.08 60.48 
" style="fill:none;stroke:#b0b0b0;stroke-linecap:square;stroke-width:0.8;"/>
     </g>
     <g id="line2d_14">
      <g>
       <use style="stroke:#000000;stroke-width:0.8;" x="361.08" xlink:href="#m9a1f0e5e17" y="448.56"/>
      </g>
     </g>
     <g id="text_7">
      <!-- 0.6 -->
      <defs>
       <path d="M 33.015625 40.375 
Q 26.375 40.375 22.484375 35.828125 
Q 18.609375 31.296875 18.609375 23.390625 
Q 18.609375 15.53125 22.484375 10.953125 
Q 26.375 6.390625 33.015625 6.390625 
Q 39.65625 6.390625 43.53125 10.953125 
Q 47.40625 15.53125 47.40625 23.390625 
Q 47.40625 31.296875 43.53125 35.828125 
Q 39.65625 40.375 33.015625 40.375 
z
M 52.59375 71.296875 
L 52.59375 62.3125 
Q 48.875 64.0625 45.09375 64.984375 
Q 41.3125 65.921875 37.59375 65.921875 
Q 27.828125 65.921875 22.671875 59.328125 
Q 17.53125 52.734375 16.796875 39.40625 
Q 19.671875 43.65625 24.015625 45.921875 
Q 28.375 48.1875 33.59375 48.1875 
Q 44.578125 48.1875 50.953125 41.515625 
Q 57.328125 34.859375 57.328125 23.390625 
Q 57.328125 12.15625 50.6875 5.359375 
Q 44.046875 -1.421875 33.015625 -1.421875 
Q 20.359375 -1.421875 13.671875 8.265625 
Q 6.984375 17.96875 6.984375 36.375 
Q 6.984375 53.65625 15.1875 63.9375 
Q 23.390625 74.21875 37.203125 74.21875 
Q 40.921875 74.21875 44.703125 73.484375 
Q 48.484375 72.75 52.59375 71.296875 
z
" id="DejaVuSans-54"/>
      </defs>
      <g transform="translate(353.128438 463.158437)scale(0.1 -0.1)">
       <use xlink:href="#DejaVuSans-48"/>
       <use x="63.623047" xlink:href="#DejaVuSans-46"/>
       <use x="95.410156" xlink:href="#DejaVuSans-54"/>
      </g>
     </g>
    </g>
    <g id="xtick_8">
     <g id="line2d_15">
      <path clip-path="url(#pb32ce40631)" d="M 408.51 448.56 
L 408.51 60.48 
" style="fill:none;stroke:#b0b0b0;stroke-linecap:square;stroke-width:0.8;"/>
     </g>
     <g id="line2d_16">
      <g>
       <use style="stroke:#000000;stroke-width:0.8;" x="408.51" xlink:href="#m9a1f0e5e17" y="448.56"/>
      </g>
     </g>
     <g id="text_8">
      <!-- 0.7 -->
      <defs>
       <path d="M 8.203125 72.90625 
L 55.078125 72.90625 
L 55.078125 68.703125 
L 28.609375 0 
L 18.3125 0 
L 43.21875 64.59375 
L 8.203125 64.59375 
z
" id="DejaVuSans-55"/>
      </defs>
      <g transform="translate(400.558438 463.158437)scale(0.1 -0.1)">
       <use xlink:href="#DejaVuSans-48"/>
       <use x="63.623047" xlink:href="#DejaVuSans-46"/>
       <use x="95.410156" xlink:href="#DejaVuSans-55"/>
      </g>
     </g>
    </g>
    <g id="xtick_9">
     <g id="line2d_17">
      <path clip-path="url(#pb32ce40631)" d="M 455.94 448.56 
L 455.94 60.48 
" style="fill:none;stroke:#b0b0b0;stroke-linecap:square;stroke-width:0.8;"/>
     </g>
     <g id="line2d_18">
      <g>
       <use style="stroke:#000000;stroke-width:0.8;" x="455.94" xlink:href="#m9a1f0e5e17" y="448.56"/>
      </g>
     </g>
     <g id="text_9">
      <!-- 0.8 -->
      <defs>
       <path d="M 31.78125 34.625 
Q 24.75 34.625 20.71875 30.859375 
Q 16.703125 27.09375 16.703125 20.515625 
Q 16.703125 13.921875 20.71875 10.15625 
Q 24.75 6.390625 31.78125 6.390625 
Q 38.8125 6.390625 42.859375 10.171875 
Q 46.921875 13.96875 46.921875 20.515625 
Q 46.921875 27.09375 42.890625 30.859375 
Q 38.875 34.625 31.78125 34.625 
z
M 21.921875 38.8125 
Q 15.578125 40.375 12.03125 44.71875 
Q 8.5 49.078125 8.5 55.328125 
Q 8.5 64.0625 14.71875 69.140625 
Q 20.953125 74.21875 31.78125 74.21875 
Q 42.671875 74.21875 48.875 69.140625 
Q 55.078125 64.0625 55.078125 55.328125 
Q 55.078125 49.078125 51.53125 44.71875 
Q 48 40.375 41.703125 38.8125 
Q 48.828125 37.15625 52.796875 32.3125 
Q 56.78125 27.484375 56.78125 20.515625 
Q 56.78125 9.90625 50.3125 4.234375 
Q 43.84375 -1.421875 31.78125 -1.421875 
Q 19.734375 -1.421875 13.25 4.234375 
Q 6.78125 9.90625 6.78125 20.515625 
Q 6.78125 27.484375 10.78125 32.3125 
Q 14.796875 37.15625 21.921875 38.8125 
z
M 18.3125 54.390625 
Q 18.3125 48.734375 21.84375 45.5625 
Q 25.390625 42.390625 31.78125 42.390625 
Q 38.140625 42.390625 41.71875 45.5625 
Q 45.3125 48.734375 45.3125 54.390625 
Q 45.3125 60.0625 41.71875 63.234375 
Q 38.140625 66.40625 31.78125 66.40625 
Q 25.390625 66.40625 21.84375 63.234375 
Q 18.3125 60.0625 18.3125 54.390625 
z
" id="DejaVuSans-56"/>
      </defs>
      <g transform="translate(447.988438 463.158437)scale(0.1 -0.1)">
       <use xlink:href="#DejaVuSans-48"/>
       <use x="63.623047" xlink:href="#DejaVuSans-46"/>
       <use x="95.410156" xlink:href="#DejaVuSans-56"/>
      </g>
     </g>
    </g>
    <g id="xtick_10">
     <g id="line2d_19">
      <path clip-path="url(#pb32ce40631)" d="M 503.37 448.56 
L 503.37 60.48 
" style="fill:none;stroke:#b0b0b0;stroke-linecap:square;stroke-width:0.8;"/>
     </g>
     <g id="line2d_20">
      <g>
       <use style="stroke:#000000;stroke-width:0.8;" x="503.37" xlink:href="#m9a1f0e5e17" y="448.56"/>
      </g>
     </g>
     <g id="text_10">
      <!-- 0.9 -->
      <defs>
       <path d="M 10.984375 1.515625 
L 10.984375 10.5 
Q 14.703125 8.734375 18.5 7.8125 
Q 22.3125 6.890625 25.984375 6.890625 
Q 35.75 6.890625 40.890625 13.453125 
Q 46.046875 20.015625 46.78125 33.40625 
Q 43.953125 29.203125 39.59375 26.953125 
Q 35.25 24.703125 29.984375 24.703125 
Q 19.046875 24.703125 12.671875 31.3125 
Q 6.296875 37.9375 6.296875 49.421875 
Q 6.296875 60.640625 12.9375 67.421875 
Q 19.578125 74.21875 30.609375 74.21875 
Q 43.265625 74.21875 49.921875 64.515625 
Q 56.59375 54.828125 56.59375 36.375 
Q 56.59375 19.140625 48.40625 8.859375 
Q 40.234375 -1.421875 26.421875 -1.421875 
Q 22.703125 -1.421875 18.890625 -0.6875 
Q 15.09375 0.046875 10.984375 1.515625 
z
M 30.609375 32.421875 
Q 37.25 32.421875 41.125 36.953125 
Q 45.015625 41.5 45.015625 49.421875 
Q 45.015625 57.28125 41.125 61.84375 
Q 37.25 66.40625 30.609375 66.40625 
Q 23.96875 66.40625 20.09375 61.84375 
Q 16.21875 57.28125 16.21875 49.421875 
Q 16.21875 41.5 20.09375 36.953125 
Q 23.96875 32.421875 30.609375 32.421875 
z
" id="DejaVuSans-57"/>
      </defs>
      <g transform="translate(495.418438 463.158437)scale(0.1 -0.1)">
       <use xlink:href="#DejaVuSans-48"/>
       <use x="63.623047" xlink:href="#DejaVuSans-46"/>
       <use x="95.410156" xlink:href="#DejaVuSans-57"/>
      </g>
     </g>
    </g>
    <g id="xtick_11">
     <g id="line2d_21">
      <path clip-path="url(#pb32ce40631)" d="M 550.8 448.56 
L 550.8 60.48 
" style="fill:none;stroke:#b0b0b0;stroke-linecap:square;stroke-width:0.8;"/>
     </g>
     <g id="line2d_22">
      <g>
       <use style="stroke:#000000;stroke-width:0.8;" x="550.8" xlink:href="#m9a1f0e5e17" y="448.56"/>
      </g>
     </g>
     <g id="text_11">
      <!-- 1.0 -->
      <g transform="translate(542.848438 463.158437)scale(0.1 -0.1)">
       <use xlink:href="#DejaVuSans-49"/>
       <use x="63.623047" xlink:href="#DejaVuSans-46"/>
       <use x="95.410156" xlink:href="#DejaVuSans-48"/>
      </g>
     </g>
    </g>
    <g id="text_12">
     <!-- 1-precision -->
     <defs>
      <path d="M 4.890625 31.390625 
L 31.203125 31.390625 
L 31.203125 23.390625 
L 4.890625 23.390625 
z
" id="DejaVuSans-45"/>
      <path d="M 18.109375 8.203125 
L 18.109375 -20.796875 
L 9.078125 -20.796875 
L 9.078125 54.6875 
L 18.109375 54.6875 
L 18.109375 46.390625 
Q 20.953125 51.265625 25.265625 53.625 
Q 29.59375 56 35.59375 56 
Q 45.5625 56 51.78125 48.09375 
Q 58.015625 40.1875 58.015625 27.296875 
Q 58.015625 14.40625 51.78125 6.484375 
Q 45.5625 -1.421875 35.59375 -1.421875 
Q 29.59375 -1.421875 25.265625 0.953125 
Q 20.953125 3.328125 18.109375 8.203125 
z
M 48.6875 27.296875 
Q 48.6875 37.203125 44.609375 42.84375 
Q 40.53125 48.484375 33.40625 48.484375 
Q 26.265625 48.484375 22.1875 42.84375 
Q 18.109375 37.203125 18.109375 27.296875 
Q 18.109375 17.390625 22.1875 11.75 
Q 26.265625 6.109375 33.40625 6.109375 
Q 40.53125 6.109375 44.609375 11.75 
Q 48.6875 17.390625 48.6875 27.296875 
z
" id="DejaVuSans-112"/>
      <path d="M 41.109375 46.296875 
Q 39.59375 47.171875 37.8125 47.578125 
Q 36.03125 48 33.890625 48 
Q 26.265625 48 22.1875 43.046875 
Q 18.109375 38.09375 18.109375 28.8125 
L 18.109375 0 
L 9.078125 0 
L 9.078125 54.6875 
L 18.109375 54.6875 
L 18.109375 46.1875 
Q 20.953125 51.171875 25.484375 53.578125 
Q 30.03125 56 36.53125 56 
Q 37.453125 56 38.578125 55.875 
Q 39.703125 55.765625 41.0625 55.515625 
z
" id="DejaVuSans-114"/>
      <path d="M 56.203125 29.59375 
L 56.203125 25.203125 
L 14.890625 25.203125 
Q 15.484375 15.921875 20.484375 11.0625 
Q 25.484375 6.203125 34.421875 6.203125 
Q 39.59375 6.203125 44.453125 7.46875 
Q 49.3125 8.734375 54.109375 11.28125 
L 54.109375 2.78125 
Q 49.265625 0.734375 44.1875 -0.34375 
Q 39.109375 -1.421875 33.890625 -1.421875 
Q 20.796875 -1.421875 13.15625 6.1875 
Q 5.515625 13.8125 5.515625 26.8125 
Q 5.515625 40.234375 12.765625 48.109375 
Q 20.015625 56 32.328125 56 
Q 43.359375 56 49.78125 48.890625 
Q 56.203125 41.796875 56.203125 29.59375 
z
M 47.21875 32.234375 
Q 47.125 39.59375 43.09375 43.984375 
Q 39.0625 48.390625 32.421875 48.390625 
Q 24.90625 48.390625 20.390625 44.140625 
Q 15.875 39.890625 15.1875 32.171875 
z
" id="DejaVuSans-101"/>
      <path d="M 48.78125 52.59375 
L 48.78125 44.1875 
Q 44.96875 46.296875 41.140625 47.34375 
Q 37.3125 48.390625 33.40625 48.390625 
Q 24.65625 48.390625 19.8125 42.84375 
Q 14.984375 37.3125 14.984375 27.296875 
Q 14.984375 17.28125 19.8125 11.734375 
Q 24.65625 6.203125 33.40625 6.203125 
Q 37.3125 6.203125 41.140625 7.25 
Q 44.96875 8.296875 48.78125 10.40625 
L 48.78125 2.09375 
Q 45.015625 0.34375 40.984375 -0.53125 
Q 36.96875 -1.421875 32.421875 -1.421875 
Q 20.0625 -1.421875 12.78125 6.34375 
Q 5.515625 14.109375 5.515625 27.296875 
Q 5.515625 40.671875 12.859375 48.328125 
Q 20.21875 56 33.015625 56 
Q 37.15625 56 41.109375 55.140625 
Q 45.0625 54.296875 48.78125 52.59375 
z
" id="DejaVuSans-99"/>
      <path d="M 9.421875 54.6875 
L 18.40625 54.6875 
L 18.40625 0 
L 9.421875 0 
z
M 9.421875 75.984375 
L 18.40625 75.984375 
L 18.40625 64.59375 
L 9.421875 64.59375 
z
" id="DejaVuSans-105"/>
      <path d="M 44.28125 53.078125 
L 44.28125 44.578125 
Q 40.484375 46.53125 36.375 47.5 
Q 32.28125 48.484375 27.875 48.484375 
Q 21.1875 48.484375 17.84375 46.4375 
Q 14.5 44.390625 14.5 40.28125 
Q 14.5 37.15625 16.890625 35.375 
Q 19.28125 33.59375 26.515625 31.984375 
L 29.59375 31.296875 
Q 39.15625 29.25 43.1875 25.515625 
Q 47.21875 21.78125 47.21875 15.09375 
Q 47.21875 7.46875 41.1875 3.015625 
Q 35.15625 -1.421875 24.609375 -1.421875 
Q 20.21875 -1.421875 15.453125 -0.5625 
Q 10.6875 0.296875 5.421875 2 
L 5.421875 11.28125 
Q 10.40625 8.6875 15.234375 7.390625 
Q 20.0625 6.109375 24.8125 6.109375 
Q 31.15625 6.109375 34.5625 8.28125 
Q 37.984375 10.453125 37.984375 14.40625 
Q 37.984375 18.0625 35.515625 20.015625 
Q 33.0625 21.96875 24.703125 23.78125 
L 21.578125 24.515625 
Q 13.234375 26.265625 9.515625 29.90625 
Q 5.8125 33.546875 5.8125 39.890625 
Q 5.8125 47.609375 11.28125 51.796875 
Q 16.75 56 26.8125 56 
Q 31.78125 56 36.171875 55.265625 
Q 40.578125 54.546875 44.28125 53.078125 
z
" id="DejaVuSans-115"/>
      <path d="M 30.609375 48.390625 
Q 23.390625 48.390625 19.1875 42.75 
Q 14.984375 37.109375 14.984375 27.296875 
Q 14.984375 17.484375 19.15625 11.84375 
Q 23.34375 6.203125 30.609375 6.203125 
Q 37.796875 6.203125 41.984375 11.859375 
Q 46.1875 17.53125 46.1875 27.296875 
Q 46.1875 37.015625 41.984375 42.703125 
Q 37.796875 48.390625 30.609375 48.390625 
z
M 30.609375 56 
Q 42.328125 56 49.015625 48.375 
Q 55.71875 40.765625 55.71875 27.296875 
Q 55.71875 13.875 49.015625 6.21875 
Q 42.328125 -1.421875 30.609375 -1.421875 
Q 18.84375 -1.421875 12.171875 6.21875 
Q 5.515625 13.875 5.515625 27.296875 
Q 5.515625 40.765625 12.171875 48.375 
Q 18.84375 56 30.609375 56 
z
" id="DejaVuSans-111"/>
      <path d="M 54.890625 33.015625 
L 54.890625 0 
L 45.90625 0 
L 45.90625 32.71875 
Q 45.90625 40.484375 42.875 44.328125 
Q 39.84375 48.1875 33.796875 48.1875 
Q 26.515625 48.1875 22.3125 43.546875 
Q 18.109375 38.921875 18.109375 30.90625 
L 18.109375 0 
L 9.078125 0 
L 9.078125 54.6875 
L 18.109375 54.6875 
L 18.109375 46.1875 
Q 21.34375 51.125 25.703125 53.5625 
Q 30.078125 56 35.796875 56 
Q 45.21875 56 50.046875 50.171875 
Q 54.890625 44.34375 54.890625 33.015625 
z
" id="DejaVuSans-110"/>
     </defs>
     <g transform="translate(286.110938 476.836563)scale(0.1 -0.1)">
      <use xlink:href="#DejaVuSans-49"/>
      <use x="63.623047" xlink:href="#DejaVuSans-45"/>
      <use x="99.707031" xlink:href="#DejaVuSans-112"/>
      <use x="163.183594" xlink:href="#DejaVuSans-114"/>
      <use x="202.046875" xlink:href="#DejaVuSans-101"/>
      <use x="263.570312" xlink:href="#DejaVuSans-99"/>
      <use x="318.550781" xlink:href="#DejaVuSans-105"/>
      <use x="346.333984" xlink:href="#DejaVuSans-115"/>
      <use x="398.433594" xlink:href="#DejaVuSans-105"/>
      <use x="426.216797" xlink:href="#DejaVuSans-111"/>
      <use x="487.398438" xlink:href="#DejaVuSans-110"/>
     </g>
    </g>
   </g>
   <g id="matplotlib.axis_2">
    <g id="ytick_1">
     <g id="line2d_23">
      <path clip-path="url(#pb32ce40631)" d="M 76.5 448.56 
L 550.8 448.56 
" style="fill:none;stroke:#b0b0b0;stroke-linecap:square;stroke-width:0.8;"/>
     </g>
     <g id="line2d_24">
      <defs>
       <path d="M 0 0 
L -3.5 0 
" id="mdc1a25bf63" style="stroke:#000000;stroke-width:0.8;"/>
      </defs>
      <g>
       <use style="stroke:#000000;stroke-width:0.8;" x="76.5" xlink:href="#mdc1a25bf63" y="448.56"/>
      </g>
     </g>
     <g id="text_13">
      <!-- 0.0 -->
      <g transform="translate(53.596875 452.359219)scale(0.1 -0.1)">
       <use xlink:href="#DejaVuSans-48"/>
       <use x="63.623047" xlink:href="#DejaVuSans-46"/>
       <use x="95.410156" xlink:href="#DejaVuSans-48"/>
      </g>
     </g>
    </g>
    <g id="ytick_2">
     <g id="line2d_25">
      <path clip-path="url(#pb32ce40631)" d="M 76.5 409.752 
L 550.8 409.752 
" style="fill:none;stroke:#b0b0b0;stroke-linecap:square;stroke-width:0.8;"/>
     </g>
     <g id="line2d_26">
      <g>
       <use style="stroke:#000000;stroke-width:0.8;" x="76.5" xlink:href="#mdc1a25bf63" y="409.752"/>
      </g>
     </g>
     <g id="text_14">
      <!-- 0.1 -->
      <g transform="translate(53.596875 413.551219)scale(0.1 -0.1)">
       <use xlink:href="#DejaVuSans-48"/>
       <use x="63.623047" xlink:href="#DejaVuSans-46"/>
       <use x="95.410156" xlink:href="#DejaVuSans-49"/>
      </g>
     </g>
    </g>
    <g id="ytick_3">
     <g id="line2d_27">
      <path clip-path="url(#pb32ce40631)" d="M 76.5 370.944 
L 550.8 370.944 
" style="fill:none;stroke:#b0b0b0;stroke-linecap:square;stroke-width:0.8;"/>
     </g>
     <g id="line2d_28">
      <g>
       <use style="stroke:#000000;stroke-width:0.8;" x="76.5" xlink:href="#mdc1a25bf63" y="370.944"/>
      </g>
     </g>
     <g id="text_15">
      <!-- 0.2 -->
      <g transform="translate(53.596875 374.743219)scale(0.1 -0.1)">
       <use xlink:href="#DejaVuSans-48"/>
       <use x="63.623047" xlink:href="#DejaVuSans-46"/>
       <use x="95.410156" xlink:href="#DejaVuSans-50"/>
      </g>
     </g>
    </g>
    <g id="ytick_4">
     <g id="line2d_29">
      <path clip-path="url(#pb32ce40631)" d="M 76.5 332.136 
L 550.8 332.136 
" style="fill:none;stroke:#b0b0b0;stroke-linecap:square;stroke-width:0.8;"/>
     </g>
     <g id="line2d_30">
      <g>
       <use style="stroke:#000000;stroke-width:0.8;" x="76.5" xlink:href="#mdc1a25bf63" y="332.136"/>
      </g>
     </g>
     <g id="text_16">
      <!-- 0.3 -->
      <g transform="translate(53.596875 335.935219)scale(0.1 -0.1)">
       <use xlink:href="#DejaVuSans-48"/>
       <use x="63.623047" xlink:href="#DejaVuSans-46"/>
       <use x="95.410156" xlink:href="#DejaVuSans-51"/>
      </g>
     </g>
    </g>
    <g id="ytick_5">
     <g id="line2d_31">
      <path clip-path="url(#pb32ce40631)" d="M 76.5 293.328 
L 550.8 293.328 
" style="fill:none;stroke:#b0b0b0;stroke-linecap:square;stroke-width:0.8;"/>
     </g>
     <g id="line2d_32">
      <g>
       <use style="stroke:#000000;stroke-width:0.8;" x="76.5" xlink:href="#mdc1a25bf63" y="293.328"/>
      </g>
     </g>
     <g id="text_17">
      <!-- 0.4 -->
      <g transform="translate(53.596875 297.127219)scale(0.1 -0.1)">
       <use xlink:href="#DejaVuSans-48"/>
       <use x="63.623047" xlink:href="#DejaVuSans-46"/>
       <use x="95.410156" xlink:href="#DejaVuSans-52"/>
      </g>
     </g>
    </g>
    <g id="ytick_6">
     <g id="line2d_33">
      <path clip-path="url(#pb32ce40631)" d="M 76.5 254.52 
L 550.8 254.52 
" style="fill:none;stroke:#b0b0b0;stroke-linecap:square;stroke-width:0.8;"/>
     </g>
     <g id="line2d_34">
      <g>
       <use style="stroke:#000000;stroke-width:0.8;" x="76.5" xlink:href="#mdc1a25bf63" y="254.52"/>
      </g>
     </g>
     <g id="text_18">
      <!-- 0.5 -->
      <g transform="translate(53.596875 258.319219)scale(0.1 -0.1)">
       <use xlink:href="#DejaVuSans-48"/>
       <use x="63.623047" xlink:href="#DejaVuSans-46"/>
       <use x="95.410156" xlink:href="#DejaVuSans-53"/>
      </g>
     </g>
    </g>
    <g id="ytick_7">
     <g id="line2d_35">
      <path clip-path="url(#pb32ce40631)" d="M 76.5 215.712 
L 550.8 215.712 
" style="fill:none;stroke:#b0b0b0;stroke-linecap:square;stroke-width:0.8;"/>
     </g>
     <g id="line2d_36">
      <g>
       <use style="stroke:#000000;stroke-width:0.8;" x="76.5" xlink:href="#mdc1a25bf63" y="215.712"/>
      </g>
     </g>
     <g id="text_19">
      <!-- 0.6 -->
      <g transform="translate(53.596875 219.511219)scale(0.1 -0.1)">
       <use xlink:href="#DejaVuSans-48"/>
       <use x="63.623047" xlink:href="#DejaVuSans-46"/>
       <use x="95.410156" xlink:href="#DejaVuSans-54"/>
      </g>
     </g>
    </g>
    <g id="ytick_8">
     <g id="line2d_37">
      <path clip-path="url(#pb32ce40631)" d="M 76.5 176.904 
L 550.8 176.904 
" style="fill:none;stroke:#b0b0b0;stroke-linecap:square;stroke-width:0.8;"/>
     </g>
     <g id="line2d_38">
      <g>
       <use style="stroke:#000000;stroke-width:0.8;" x="76.5" xlink:href="#mdc1a25bf63" y="176.904"/>
      </g>
     </g>
     <g id="text_20">
      <!-- 0.7 -->
      <g transform="translate(53.596875 180.703219)scale(0.1 -0.1)">
       <use xlink:href="#DejaVuSans-48"/>
       <use x="63.623047" xlink:href="#DejaVuSans-46"/>
       <use x="95.410156" xlink:href="#DejaVuSans-55"/>
      </g>
     </g>
    </g>
    <g id="ytick_9">
     <g id="line2d_39">
      <path clip-path="url(#pb32ce40631)" d="M 76.5 138.096 
L 550.8 138.096 
" style="fill:none;stroke:#b0b0b0;stroke-linecap:square;stroke-width:0.8;"/>
     </g>
     <g id="line2d_40">
      <g>
       <use style="stroke:#000000;stroke-width:0.8;" x="76.5" xlink:href="#mdc1a25bf63" y="138.096"/>
      </g>
     </g>
     <g id="text_21">
      <!-- 0.8 -->
      <g transform="translate(53.596875 141.895219)scale(0.1 -0.1)">
       <use xlink:href="#DejaVuSans-48"/>
       <use x="63.623047" xlink:href="#DejaVuSans-46"/>
       <use x="95.410156" xlink:href="#DejaVuSans-56"/>
      </g>
     </g>
    </g>
    <g id="ytick_10">
     <g id="line2d_41">
      <path clip-path="url(#pb32ce40631)" d="M 76.5 99.288 
L 550.8 99.288 
" style="fill:none;stroke:#b0b0b0;stroke-linecap:square;stroke-width:0.8;"/>
     </g>
     <g id="line2d_42">
      <g>
       <use style="stroke:#000000;stroke-width:0.8;" x="76.5" xlink:href="#mdc1a25bf63" y="99.288"/>
      </g>
     </g>
     <g id="text_22">
      <!-- 0.9 -->
      <g transform="translate(53.596875 103.087219)scale(0.1 -0.1)">
       <use xlink:href="#DejaVuSans-48"/>
       <use x="63.623047" xlink:href="#DejaVuSans-46"/>
       <use x="95.410156" xlink:href="#DejaVuSans-57"/>
      </g>
     </g>
    </g>
    <g id="ytick_11">
     <g id="line2d_43">
      <path clip-path="url(#pb32ce40631)" d="M 76.5 60.48 
L 550.8 60.48 
" style="fill:none;stroke:#b0b0b0;stroke-linecap:square;stroke-width:0.8;"/>
     </g>
     <g id="line2d_44">
      <g>
       <use style="stroke:#000000;stroke-width:0.8;" x="76.5" xlink:href="#mdc1a25bf63" y="60.48"/>
      </g>
     </g>
     <g id="text_23">
      <!-- 1.0 -->
      <g transform="translate(53.596875 64.279219)scale(0.1 -0.1)">
       <use xlink:href="#DejaVuSans-49"/>
       <use x="63.623047" xlink:href="#DejaVuSans-46"/>
       <use x="95.410156" xlink:href="#DejaVuSans-48"/>
      </g>
     </g>
    </g>
    <g id="text_24">
     <!-- #correct/744 -->
     <defs>
      <path d="M 51.125 44 
L 36.921875 44 
L 32.8125 27.6875 
L 47.125 27.6875 
z
M 43.796875 71.78125 
L 38.71875 51.515625 
L 52.984375 51.515625 
L 58.109375 71.78125 
L 65.921875 71.78125 
L 60.890625 51.515625 
L 76.125 51.515625 
L 76.125 44 
L 58.984375 44 
L 54.984375 27.6875 
L 70.515625 27.6875 
L 70.515625 20.21875 
L 53.078125 20.21875 
L 48 0 
L 40.1875 0 
L 45.21875 20.21875 
L 30.90625 20.21875 
L 25.875 0 
L 18.015625 0 
L 23.09375 20.21875 
L 7.71875 20.21875 
L 7.71875 27.6875 
L 24.90625 27.6875 
L 29 44 
L 13.28125 44 
L 13.28125 51.515625 
L 30.90625 51.515625 
L 35.890625 71.78125 
z
" id="DejaVuSans-35"/>
      <path d="M 18.3125 70.21875 
L 18.3125 54.6875 
L 36.8125 54.6875 
L 36.8125 47.703125 
L 18.3125 47.703125 
L 18.3125 18.015625 
Q 18.3125 11.328125 20.140625 9.421875 
Q 21.96875 7.515625 27.59375 7.515625 
L 36.8125 7.515625 
L 36.8125 0 
L 27.59375 0 
Q 17.1875 0 13.234375 3.875 
Q 9.28125 7.765625 9.28125 18.015625 
L 9.28125 47.703125 
L 2.6875 47.703125 
L 2.6875 54.6875 
L 9.28125 54.6875 
L 9.28125 70.21875 
z
" id="DejaVuSans-116"/>
      <path d="M 25.390625 72.90625 
L 33.6875 72.90625 
L 8.296875 -9.28125 
L 0 -9.28125 
z
" id="DejaVuSans-47"/>
     </defs>
     <g transform="translate(47.517187 287.443438)rotate(-90)scale(0.1 -0.1)">
      <use xlink:href="#DejaVuSans-35"/>
      <use x="83.789062" xlink:href="#DejaVuSans-99"/>
      <use x="138.769531" xlink:href="#DejaVuSans-111"/>
      <use x="199.951172" xlink:href="#DejaVuSans-114"/>
      <use x="239.314453" xlink:href="#DejaVuSans-114"/>
      <use x="278.177734" xlink:href="#DejaVuSans-101"/>
      <use x="339.701172" xlink:href="#DejaVuSans-99"/>
      <use x="394.681641" xlink:href="#DejaVuSans-116"/>
      <use x="433.890625" xlink:href="#DejaVuSans-47"/>
      <use x="467.582031" xlink:href="#DejaVuSans-55"/>
      <use x="531.205078" xlink:href="#DejaVuSans-52"/>
      <use x="594.828125" xlink:href="#DejaVuSans-52"/>
     </g>
    </g>
   </g>
   <g id="line2d_45">
    <path clip-path="url(#pb32ce40631)" d="M 76.5 448.038387 
L 76.5 391.704194 
L 80.811818 391.704194 
L 80.176744 381.793548 
L 79.57987 368.753226 
L 79.483019 366.145161 
L 82.42875 366.145161 
L 81.983237 359.364194 
L 84.677586 359.364194 
L 83.759694 347.88871 
L 83.275714 340.586129 
L 85.491469 340.586129 
L 84.677586 329.632258 
L 86.678112 329.632258 
L 86.024096 321.286452 
L 87.8832 321.286452 
L 86.81087 307.724516 
L 86.591489 304.594839 
L 88.231802 304.594839 
L 87.604013 296.249032 
L 89.148 296.249032 
L 88.819481 292.076129 
L 90.314563 292.076129 
L 90.27 291.554516 
L 91.750804 291.554516 
L 91.557143 289.468065 
L 93.010443 289.468065 
L 92.652632 285.816774 
L 94.066667 285.816774 
L 94.012615 285.295161 
L 98.190549 285.295161 
L 96.711648 272.776452 
L 96.04533 266.517097 
L 97.291233 266.517097 
L 96.790909 261.822581 
L 98.0016 261.822581 
L 97.830952 260.257742 
L 99.026121 260.257742 
L 98.390769 254.52 
L 99.547826 254.52 
L 99.489031 253.998387 
L 100.637405 253.998387 
L 99.75 246.174194 
L 100.852812 246.174194 
L 100.500723 243.044516 
L 101.583173 243.044516 
L 100.432569 232.612258 
L 101.463158 232.612258 
L 101.180769 230.004194 
L 102.195711 230.004194 
L 101.965772 227.917742 
L 102.967634 227.917742 
L 102.617841 224.788065 
L 103.602857 224.788065 
L 103.134557 220.615161 
L 104.099353 220.615161 
L 103.805117 218.007097 
L 104.75617 218.007097 
L 104.696178 217.485484 
L 105.641314 217.485484 
L 105.579704 216.963871 
L 106.518987 216.963871 
L 106.392857 215.920645 
L 107.324528 215.920645 
L 106.941615 212.790968 
L 108.771959 212.790968 
L 108.705556 212.269355 
L 109.613347 212.269355 
L 108.817034 206.01 
L 109.701 206.01 
L 109.568725 204.966774 
L 110.445924 204.966774 
L 110.045776 201.837097 
L 110.91 201.837097 
L 110.842661 201.315484 
L 111.701953 201.315484 
L 111.633333 200.793871 
L 112.487743 200.793871 
L 112.0725 197.664194 
L 112.914587 197.664194 
L 112.637143 195.577742 
L 113.470152 195.577742 
L 113.330114 194.534516 
L 114.980943 194.534516 
L 114.764353 192.969677 
L 115.580899 192.969677 
L 115.36257 191.404839 
L 116.171933 191.404839 
L 115.879151 189.318387 
L 116.68011 189.318387 
L 116.313504 186.710323 
L 117.104918 186.710323 
L 116.957532 185.667097 
L 118.526582 185.667097 
L 118.450722 185.145484 
L 119.22973 185.145484 
L 118.697509 181.494194 
L 120.229787 181.494194 
L 119.998413 179.929355 
L 122.265789 179.929355 
L 122.185639 179.407742 
L 122.934965 179.407742 
L 122.373575 175.756452 
L 123.112241 175.756452 
L 122.872384 174.191613 
L 124.335385 174.191613 
L 124.172402 173.148387 
L 124.897959 173.148387 
L 124.815789 172.626774 
L 125.537797 172.626774 
L 125.454822 172.105161 
L 126.889376 172.105161 
L 126.72 171.061935 
L 127.431544 171.061935 
L 127.261204 170.01871 
L 127.96828 170.01871 
L 127.797005 168.975484 
L 129.898013 168.975484 
L 129.809752 168.453871 
L 131.19687 168.453871 
L 131.017241 167.410645 
L 131.70541 167.410645 
L 131.525 166.367419 
L 132.208972 166.367419 
L 132.027805 165.324194 
L 133.385251 165.324194 
L 133.201454 164.280968 
L 133.875 164.280968 
L 133.782609 163.759355 
L 134.453055 163.759355 
L 134.267308 162.716129 
L 134.93376 162.716129 
L 134.840415 162.194516 
L 136.824324 162.194516 
L 136.443128 160.108065 
L 137.096688 160.108065 
L 137.00126 159.586452 
L 138.300471 159.586452 
L 138.203605 159.064839 
L 139.492969 159.064839 
L 139.394696 158.543226 
L 140.035514 158.543226 
L 139.838199 157.5 
L 140.475349 157.5 
L 140.376316 156.978387 
L 141.643056 156.978387 
L 141.442615 155.935161 
L 143.323277 155.935161 
L 143.119237 154.891935 
L 143.740701 154.891935 
L 143.638356 154.370323 
L 144.257143 154.370323 
L 144.154325 153.84871 
L 145.38472 153.84871 
L 145.176923 152.805484 
L 146.396842 152.805484 
L 146.082934 151.240645 
L 147.291045 151.240645 
L 147.185544 150.719032 
L 147.786161 150.719032 
L 147.680238 150.197419 
L 149.469231 150.197419 
L 149.361448 149.675806 
L 151.1325 149.675806 
L 151.022907 149.154194 
L 152.776316 149.154194 
L 152.553936 148.110968 
L 153.711628 148.110968 
L 153.599565 147.589355 
L 154.175217 147.589355 
L 154.062808 147.067742 
L 155.77781 147.067742 
L 155.436585 145.502903 
L 156.567811 145.502903 
L 156.453429 144.98129 
L 157.576923 144.98129 
L 156.66338 140.808387 
L 157.217722 140.808387 
L 156.991304 139.765161 
L 157.542857 139.765161 
L 157.42951 139.243548 
L 157.978911 139.243548 
L 157.75195 138.200323 
L 158.84375 138.200323 
L 158.615651 137.157097 
L 159.158091 137.157097 
L 159.043923 136.635484 
L 159.584276 136.635484 
L 159.241896 135.070645 
L 160.314658 135.070645 
L 160.085656 134.027419 
L 162.209103 134.027419 
L 162.092809 133.505806 
L 163.668649 133.505806 
L 163.551012 132.984194 
L 164.072911 132.984194 
L 163.955047 132.462581 
L 164.475 132.462581 
L 164.356913 131.940968 
L 164.874933 131.940968 
L 164.286551 129.332903 
L 165.313147 129.332903 
L 165.195358 128.81129 
L 165.706093 128.81129 
L 165.588095 128.289677 
L 166.604485 128.289677 
L 166.485771 127.768065 
L 167.998819 127.768065 
L 167.878899 127.246452 
L 168.380105 127.246452 
L 167.901563 125.16 
L 168.39948 125.16 
L 168.28013 124.638387 
L 168.776265 124.638387 
L 168.656736 124.116774 
L 169.1511 124.116774 
L 168.555656 121.50871 
L 173.884791 121.50871 
L 173.515909 119.943871 
L 175.882811 119.943871 
L 175.758271 119.422258 
L 176.22766 119.422258 
L 176.103 118.900645 
L 176.570787 118.900645 
L 176.321544 117.857419 
L 178.177695 117.857419 
L 178.051856 117.335806 
L 179.888054 117.335806 
L 179.634029 116.292581 
L 180.99694 116.292581 
L 180.869193 115.770968 
L 181.320879 115.770968 
L 181.06553 114.727742 
L 182.41165 114.727742 
L 182.155206 113.684516 
L 183.045652 113.684516 
L 182.788916 112.64129 
L 183.673558 112.64129 
L 183.544898 112.119677 
L 184.424551 112.119677 
L 184.295455 111.598065 
L 184.733333 111.598065 
L 184.604177 111.076452 
L 188.495277 111.076452 
L 188.363208 110.554839 
L 190.064789 110.554839 
L 189.931653 110.033226 
L 195.348845 110.033226 
L 195.211765 109.511613 
L 195.621429 109.511613 
L 195.48435 108.99 
L 199.526621 108.99 
L 199.386818 108.468387 
L 203.335281 108.468387 
L 203.192929 107.946774 
L 205.902561 107.946774 
L 205.758621 107.425161 
L 206.142 107.425161 
L 205.998113 106.903548 
L 206.761794 106.903548 
L 206.473923 105.860323 
L 207.989109 105.860323 
L 207.700439 104.817097 
L 208.076645 104.817097 
L 207.93253 104.295484 
L 210.171055 104.295484 
L 210.025761 103.773871 
L 214.052095 103.773871 
L 213.904506 103.252258 
L 214.265595 103.252258 
L 213.824038 101.687419 
L 214.900639 101.687419 
L 214.753404 101.165806 
L 222.779439 101.165806 
L 222.627697 100.644194 
L 224.657629 100.644194 
L 224.200822 99.079355 
L 228.833435 99.079355 
L 228.525379 98.036129 
L 229.175782 98.036129 
L 229.021875 97.514516 
L 242.985246 97.514516 
L 242.824855 96.992903 
L 243.417115 96.992903 
L 243.256772 96.47129 
L 245.602193 96.47129 
L 245.441143 95.949677 
L 245.731684 95.949677 
L 245.570817 95.428065 
L 246.726989 95.428065 
L 246.565941 94.906452 
L 247.426981 94.906452 
L 247.265881 94.384839 
L 252.329472 94.384839 
L 252.166667 93.863226 
L 253.542857 93.863226 
L 253.379834 93.341613 
L 255.824384 93.341613 
L 255.660766 92.82 
L 259.907374 92.82 
L 259.742588 92.298387 
L 260.78487 92.298387 
L 260.620036 91.776774 
L 266.966929 91.776774 
L 266.800437 91.255161 
L 271.199742 91.255161 
L 271.03233 90.733548 
L 276.226329 90.733548 
L 276.057926 90.211935 
L 288.656718 90.211935 
L 288.486174 89.690323 
L 295.464789 89.690323 
L 295.293589 89.16871 
L 299.227483 89.16871 
L 299.056154 88.647097 
L 305.104054 88.647097 
L 304.932558 88.125484 
L 324.459323 88.125484 
L 324.459323 88.125484 
" style="fill:none;stroke:#1f77b4;stroke-linecap:square;stroke-width:2;"/>
   </g>
   <g id="line2d_46">
    <path clip-path="url(#pb32ce40631)" d="M 76.5 448.038387 
L 76.5 428.73871 
L 88.661538 428.73871 
L 87.530233 426.652258 
L 86.38125 424.044194 
L 85.283333 420.914516 
L 93.747273 420.914516 
L 93.142105 419.87129 
L 101.032759 419.87129 
L 99.085714 417.263226 
L 97.425 414.655161 
L 95.991781 412.047097 
L 102.137838 412.047097 
L 100.215 408.917419 
L 98.560465 405.787742 
L 96.9 402.136452 
L 96.470526 401.093226 
L 101.203125 401.093226 
L 100.454545 399.528387 
L 104.958 399.528387 
L 104.129126 397.963548 
L 112.637143 397.963548 
L 110.994545 395.355484 
L 114.956757 395.355484 
L 114.276106 394.312258 
L 118.105263 394.312258 
L 116.357143 391.704194 
L 123.538017 391.704194 
L 120.965625 388.052903 
L 119.947328 386.488065 
L 123.211364 386.488065 
L 121.8375 384.401613 
L 124.968613 384.401613 
L 122.6125 380.750323 
L 125.565517 380.750323 
L 124.248322 378.663871 
L 127.092 378.663871 
L 124.53038 374.490968 
L 127.211321 374.490968 
L 125.966871 372.404516 
L 128.557317 372.404516 
L 127.622156 370.839677 
L 130.141071 370.839677 
L 129.2 369.274839 
L 134.073988 369.274839 
L 133.416 368.231613 
L 135.7875 368.231613 
L 132.903243 363.537097 
L 135.15 363.537097 
L 133.022798 359.885806 
L 135.176289 359.885806 
L 134.875385 359.364194 
L 136.997449 359.364194 
L 134.341463 354.669677 
L 136.363107 354.669677 
L 136.073913 354.148065 
L 138.067788 354.148065 
L 135.243578 348.931935 
L 134.975342 348.410323 
L 136.865455 348.410323 
L 136.321622 347.367097 
L 138.180269 347.367097 
L 137.632 346.323871 
L 141.272247 346.323871 
L 138.802119 341.629355 
L 140.540506 341.629355 
L 139.74 340.064516 
L 141.445643 340.064516 
L 139.868016 336.934839 
L 148.021429 336.934839 
L 147.738735 336.413226 
L 149.325591 336.413226 
L 149.04 335.891613 
L 158.275862 335.891613 
L 157.653992 334.848387 
L 160.621132 334.848387 
L 157.268478 329.110645 
L 154.99331 324.937742 
L 156.382105 324.937742 
L 156.102797 324.416129 
L 157.478049 324.416129 
L 157.196875 323.894516 
L 158.558824 323.894516 
L 157.994845 322.85129 
L 159.340068 322.85129 
L 157.400669 319.2 
L 158.712 319.2 
L 158.16755 318.156774 
L 159.463366 318.156774 
L 158.38241 316.070323 
L 160.92233 316.070323 
L 158.533019 311.375806 
L 159.762696 311.375806 
L 158.986957 309.810968 
L 161.405556 309.810968 
L 160.370122 307.724516 
L 161.556839 307.724516 
L 161.299091 307.202903 
L 162.475831 307.202903 
L 161.449254 305.116452 
L 163.759941 305.116452 
L 161.490173 300.421935 
L 163.727586 300.421935 
L 163.229143 299.37871 
L 164.333333 299.37871 
L 163.343662 297.292258 
L 164.432022 297.292258 
L 162.736364 293.640968 
L 163.802473 293.640968 
L 162.386757 290.51129 
L 163.433693 290.51129 
L 162.736364 288.946452 
L 164.800532 288.946452 
L 164.566313 288.424839 
L 165.588095 288.424839 
L 164.886614 286.86 
L 165.896859 286.86 
L 164.74186 284.251935 
L 166.726735 284.251935 
L 166.036224 282.687097 
L 167.98934 282.687097 
L 167.757722 282.165484 
L 168.725 282.165484 
L 168.261558 281.122258 
L 169.220301 281.122258 
L 168.9885 280.600645 
L 170.88806 280.600645 
L 169.958128 278.514194 
L 170.893857 278.514194 
L 170.203171 276.949355 
L 171.129197 276.949355 
L 168.881473 271.733226 
L 169.786493 271.733226 
L 169.346462 270.69 
L 171.137324 270.69 
L 170.915691 270.168387 
L 171.803271 270.168387 
L 171.581119 269.646774 
L 175.084296 269.646774 
L 174.631034 268.603548 
L 175.493807 268.603548 
L 175.267277 268.081935 
L 176.124658 268.081935 
L 175.897722 267.560323 
L 176.749773 267.560323 
L 176.296154 266.517097 
L 177.983108 266.517097 
L 176.853007 263.909032 
L 178.511308 263.909032 
L 178.060927 262.865806 
L 180.513158 262.865806 
L 179.162338 259.736129 
L 179.965011 259.736129 
L 179.742026 259.214516 
L 181.334549 259.214516 
L 180.001907 256.084839 
L 180.785835 256.084839 
L 180.346737 255.041613 
L 182.671757 255.041613 
L 181.790664 252.955161 
L 184.073196 252.955161 
L 183.631417 251.911935 
L 184.383811 251.911935 
L 184.16319 251.390323 
L 184.911429 251.390323 
L 184.690631 250.86871 
L 186.175862 250.86871 
L 185.5125 249.303871 
L 186.979518 249.303871 
L 186.317964 247.739032 
L 188.4875 247.739032 
L 187.605709 245.652581 
L 188.319253 245.652581 
L 188.1 245.130968 
L 189.516797 245.130968 
L 189.296491 244.609355 
L 190.700388 244.609355 
L 189.168966 240.958065 
L 191.235429 240.958065 
L 190.583523 239.393226 
L 194.630899 239.393226 
L 193.752602 237.306774 
L 195.075 237.306774 
L 194.855823 236.785161 
L 196.166851 236.785161 
L 195.727706 235.741935 
L 196.378022 235.741935 
L 196.158867 235.220323 
L 198.093273 235.220323 
L 197.872595 234.69871 
L 198.511957 234.69871 
L 197.852432 233.133871 
L 198.48723 233.133871 
L 198.268223 232.612258 
L 200.156786 232.612258 
L 199.936364 232.090645 
L 201.182771 232.090645 
L 200.961702 231.569032 
L 201.580885 231.569032 
L 201.139683 230.525806 
L 201.755282 230.525806 
L 201.535149 230.004194 
L 202.758494 230.004194 
L 201.6625 227.396129 
L 203.471503 227.396129 
L 203.252586 226.874516 
L 207.397104 226.874516 
L 206.072681 223.744839 
L 207.231429 223.744839 
L 207.012081 223.223226 
L 209.304 223.223226 
L 209.083028 222.701613 
L 209.650664 222.701613 
L 208.771782 220.615161 
L 211.01459 220.615161 
L 210.575 219.571935 
L 211.683225 219.571935 
L 211.244318 218.52871 
L 211.794652 218.52871 
L 211.575728 218.007097 
L 213.757235 218.007097 
L 213.317308 216.963871 
L 213.85728 216.963871 
L 213.419139 215.920645 
L 213.956369 215.920645 
L 213.737838 215.399032 
L 214.806181 215.399032 
L 214.587342 214.877419 
L 215.64795 214.877419 
L 214.775549 212.790968 
L 215.825625 212.790968 
L 215.391589 211.747742 
L 216.951628 211.747742 
L 216.734211 211.226129 
L 217.250541 211.226129 
L 216.385714 209.139677 
L 216.89862 209.139677 
L 216.469266 208.096452 
L 216.979695 208.096452 
L 216.552055 207.053226 
L 219.076586 207.053226 
L 218.861538 206.531613 
L 219.85985 206.531613 
L 219.644595 206.01 
L 220.141079 206.01 
L 219.926048 205.488387 
L 220.420628 205.488387 
L 220.205821 204.966774 
L 221.189732 204.966774 
L 220.760386 203.923548 
L 221.249333 203.923548 
L 220.821713 202.880323 
L 221.308407 202.880323 
L 220.8825 201.837097 
L 221.85 201.837097 
L 221.637189 201.315484 
L 222.118421 201.315484 
L 220.852174 198.185806 
L 221.80578 198.185806 
L 221.178561 196.620968 
L 222.12439 196.620968 
L 221.915759 196.099355 
L 222.386266 196.099355 
L 221.762821 194.534516 
L 222.230868 194.534516 
L 222.023864 194.012903 
L 222.490213 194.012903 
L 222.077228 192.969677 
L 222.541525 192.969677 
L 222.130141 191.926452 
L 223.513043 191.926452 
L 223.307143 191.404839 
L 223.765175 191.404839 
L 223.559497 190.883226 
L 224.924896 190.883226 
L 224.513176 189.84 
L 225.415768 189.84 
L 225.210083 189.318387 
L 225.659172 189.318387 
L 225.248831 188.275161 
L 225.696016 188.275161 
L 224.880738 186.18871 
L 225.325375 186.18871 
L 224.920408 185.145484 
L 225.363179 185.145484 
L 225.161194 184.623871 
L 226.04249 184.623871 
L 225.638866 183.580645 
L 226.077089 183.580645 
L 225.875774 183.059032 
L 226.748054 183.059032 
L 226.546649 182.537419 
L 227.413636 182.537419 
L 227.0112 181.494194 
L 228.728912 181.494194 
L 228.32619 180.450968 
L 228.75218 180.450968 
L 228.350988 179.407742 
L 229.198423 179.407742 
L 228.798165 178.364516 
L 230.477445 178.364516 
L 230.276953 177.842903 
L 230.693758 177.842903 
L 230.293774 176.799677 
L 231.948 176.799677 
L 231.547876 175.756452 
L 232.775769 175.756452 
L 232.376087 174.713226 
L 233.188393 174.713226 
L 232.98879 174.191613 
L 233.796442 174.191613 
L 233.596827 173.67 
L 234.799874 173.67 
L 234.201763 172.105161 
L 234.6 172.105161 
L 234.401382 171.583548 
L 235.589362 171.583548 
L 234.994264 170.01871 
L 236.17118 170.01871 
L 235.775465 168.975484 
L 236.554265 168.975484 
L 236.356667 168.453871 
L 236.74439 168.453871 
L 236.547044 167.932258 
L 236.933579 167.932258 
L 236.736486 167.410645 
L 237.50625 167.410645 
L 237.30918 166.889032 
L 237.692421 166.889032 
L 237.495604 166.367419 
L 240.150726 166.367419 
L 239.952842 165.845806 
L 241.449097 165.845806 
L 241.250841 165.324194 
L 241.993165 165.324194 
L 241.79497 164.802581 
L 243.268176 164.802581 
L 242.67399 163.237742 
L 243.404147 163.237742 
L 243.206627 162.716129 
L 245.016 162.716129 
L 244.817979 162.194516 
L 249.421875 162.194516 
L 249.221965 161.672903 
L 249.570208 161.672903 
L 249.370588 161.15129 
L 251.098968 161.15129 
L 250.898969 160.629677 
L 252.606834 160.629677 
L 252.406485 160.108065 
L 252.745568 160.108065 
L 252.545516 159.586452 
L 254.228668 159.586452 
L 254.028298 159.064839 
L 254.3625 159.064839 
L 253.962809 158.021613 
L 254.29596 158.021613 
L 254.096637 157.5 
L 256.734 157.5 
L 256.135216 155.935161 
L 256.786409 155.935161 
L 256.388864 154.891935 
L 256.713106 154.891935 
L 256.317033 153.84871 
L 257.284666 153.84871 
L 257.086871 153.327097 
L 259.002391 153.327097 
L 258.804235 152.805484 
L 260.066919 152.805484 
L 259.868683 152.283871 
L 260.49569 152.283871 
L 260.1 151.240645 
L 266.519243 151.240645 
L 266.319643 150.719032 
L 267.213298 150.719032 
L 267.013808 150.197419 
L 268.19625 150.197419 
L 267.996774 149.675806 
L 268.290748 149.675806 
L 268.091589 149.154194 
L 268.677513 149.154194 
L 268.280041 148.110968 
L 268.571901 148.110968 
L 268.373684 147.589355 
L 269.24537 147.589355 
L 269.047276 147.067742 
L 271.344954 147.067742 
L 270.750915 145.502903 
L 271.602128 145.502903 
L 271.404656 144.98129 
L 272.81148 144.98129 
L 272.613984 144.459677 
L 272.893568 144.459677 
L 272.696386 143.938065 
L 275.186866 143.938065 
L 274.989364 143.416452 
L 275.536607 143.416452 
L 275.339346 142.894839 
L 276.967685 142.894839 
L 276.770374 142.373226 
L 278.379159 142.373226 
L 278.181818 141.851613 
L 279.771429 141.851613 
L 279.574078 141.33 
L 280.099709 141.33 
L 279.902614 140.808387 
L 280.426087 140.808387 
L 280.229247 140.286774 
L 281.528818 140.286774 
L 281.332054 139.765161 
L 281.848276 139.765161 
L 281.65177 139.243548 
L 283.442681 139.243548 
L 283.246154 138.721935 
L 283.5 138.721935 
L 283.303791 138.200323 
L 283.809934 138.200323 
L 283.613989 137.67871 
L 284.118113 137.67871 
L 283.922432 137.157097 
L 288.6175 137.157097 
L 288.225416 136.113871 
L 288.709871 136.113871 
L 288.514286 135.592258 
L 288.996872 135.592258 
L 288.801563 135.070645 
L 293.065552 135.070645 
L 292.869919 134.549032 
L 295.407692 134.549032 
L 295.212064 134.027419 
L 296.12244 134.027419 
L 295.927046 133.505806 
L 297.728269 133.505806 
L 297.53301 132.984194 
L 297.756349 132.984194 
L 297.56141 132.462581 
L 298.228998 132.462581 
L 298.034328 131.940968 
L 298.256053 131.940968 
L 298.0617 131.419355 
L 300.475 131.419355 
L 300.280746 130.897742 
L 302.006977 130.897742 
L 301.812909 130.376129 
L 302.240722 130.376129 
L 302.046953 129.854516 
L 305.624619 129.854516 
L 305.237584 128.81129 
L 306.885654 128.81129 
L 306.69254 128.289677 
L 307.711352 128.289677 
L 307.518515 127.768065 
L 310.326381 127.768065 
L 310.133773 127.246452 
L 310.331852 127.246452 
L 310.139556 126.724839 
L 312.102529 126.724839 
L 311.910513 126.203226 
L 312.493171 126.203226 
L 312.301462 125.681613 
L 312.688321 125.681613 
L 312.496921 125.16 
L 313.841096 125.16 
L 313.65 124.638387 
L 314.790144 124.638387 
L 314.599359 124.116774 
L 315.541148 124.116774 
L 315.350677 123.595161 
L 317.211937 123.595161 
L 317.021801 123.073548 
L 325.903951 123.073548 
L 325.714579 122.551935 
L 326.226136 122.551935 
L 326.037093 122.030323 
L 328.892825 122.030323 
L 328.516119 120.987097 
L 330.325981 120.987097 
L 330.13824 120.465484 
L 332.079545 120.465484 
L 331.892308 119.943871 
L 334.42853 119.943871 
L 334.241896 119.422258 
L 339.142786 119.422258 
L 338.957173 118.900645 
L 343.785083 118.900645 
L 343.785083 118.900645 
" style="fill:none;stroke:#ff7f0e;stroke-linecap:square;stroke-width:2;"/>
   </g>
   <g id="line2d_47">
    <path clip-path="url(#pb32ce40631)" d="M 76.5 448.038387 
L 76.5 392.747419 
L 80.891667 392.747419 
L 80.811818 391.704194 
L 85.045946 391.704194 
L 84.0888 384.401613 
L 83.22766 376.055806 
L 82.42875 366.145161 
L 81.983237 359.364194 
L 84.677586 359.364194 
L 83.872539 349.453548 
L 86.279381 349.453548 
L 86.179592 348.410323 
L 88.538071 348.410323 
L 87.581776 339.542903 
L 89.736279 339.542903 
L 89.148 334.326774 
L 91.190708 334.326774 
L 91.061842 333.283548 
L 93.069432 333.283548 
L 92.31 327.545806 
L 96.099174 327.545806 
L 94.672414 317.635161 
L 93.319149 306.68129 
L 92.911765 303.03 
L 94.49069 303.03 
L 94.007718 298.857097 
L 95.535452 298.857097 
L 95.284158 296.770645 
L 98.271148 296.770645 
L 98.2 296.249032 
L 99.674267 296.249032 
L 99.157643 292.597742 
L 100.591429 292.597742 
L 99.018694 281.122258 
L 98.560465 277.470968 
L 99.871304 277.470968 
L 98.8975 269.646774 
L 100.149307 269.646774 
L 100.019008 268.603548 
L 101.257418 268.603548 
L 100.921951 265.995484 
L 102.137838 265.995484 
L 101.931635 264.430645 
L 104.3256 264.430645 
L 104.031926 262.344194 
L 105.207632 262.344194 
L 104.615722 258.17129 
L 105.762725 258.17129 
L 105.318228 255.041613 
L 106.443182 255.041613 
L 105.850248 250.86871 
L 106.948889 250.86871 
L 106.799263 249.825484 
L 107.8875 249.825484 
L 107.810758 249.303871 
L 109.966423 249.303871 
L 109.327446 245.130968 
L 110.378571 245.130968 
L 109.901408 242.00129 
L 110.933958 242.00129 
L 110.145995 236.785161 
L 112.153531 236.785161 
L 111.831603 234.69871 
L 113.804494 234.69871 
L 113.554688 233.133871 
L 114.528508 233.133871 
L 114.276106 231.569032 
L 115.239735 231.569032 
L 114.321336 225.83129 
L 115.26 225.83129 
L 114.84766 223.223226 
L 117.612685 223.223226 
L 117.353571 221.658387 
L 118.262264 221.658387 
L 117.914969 219.571935 
L 118.813071 219.571935 
L 118.638223 218.52871 
L 119.529278 218.52871 
L 119.264754 216.963871 
L 121.901426 216.963871 
L 121.809146 216.442258 
L 122.67931 216.442258 
L 122.58583 215.920645 
L 123.450909 215.920645 
L 123.168072 214.355806 
L 124.8786 214.355806 
L 124.782036 213.834194 
L 126.475944 213.834194 
L 125.886837 210.704516 
L 127.549902 210.704516 
L 127.450195 210.182903 
L 129.097471 210.182903 
L 128.792263 208.618065 
L 129.60695 208.618065 
L 129.504624 208.096452 
L 130.314808 208.096452 
L 130.211516 207.574839 
L 131.017241 207.574839 
L 130.5 204.966774 
L 132.089036 204.966774 
L 131.568539 202.35871 
L 132.35215 202.35871 
L 131.428125 197.664194 
L 132.197615 197.664194 
L 132.095604 197.142581 
L 134.383607 197.142581 
L 133.654856 193.49129 
L 134.40377 193.49129 
L 134.3 192.969677 
L 135.045081 192.969677 
L 134.940536 192.448065 
L 135.681818 192.448065 
L 135.367021 190.883226 
L 136.102301 190.883226 
L 135.372902 187.231935 
L 136.097906 187.231935 
L 135.7875 185.667097 
L 136.506759 185.667097 
L 136.093632 183.580645 
L 136.806186 183.580645 
L 136.190816 180.450968 
L 136.894737 180.450968 
L 136.792373 179.929355 
L 137.492893 179.929355 
L 137.389865 179.407742 
L 138.087015 179.407742 
L 137.470117 176.278065 
L 138.159 176.278065 
L 138.056406 175.756452 
L 140.785289 175.756452 
L 140.679208 175.234839 
L 141.35486 175.234839 
L 141.248191 174.713226 
L 141.92069 174.713226 
L 141.813443 174.191613 
L 142.482815 174.191613 
L 142.267537 173.148387 
L 142.932899 173.148387 
L 142.824878 172.626774 
L 143.487175 172.626774 
L 143.378606 172.105161 
L 144.037864 172.105161 
L 143.28144 168.453871 
L 143.932428 168.453871 
L 142.976693 163.759355 
L 143.617925 163.759355 
L 143.512559 163.237742 
L 144.15094 163.237742 
L 144.04507 162.716129 
L 145.314197 162.716129 
L 145.100156 161.672903 
L 145.730124 161.672903 
L 145.515789 160.629677 
L 146.766667 160.629677 
L 146.550462 159.586452 
L 147.171429 159.586452 
L 146.847248 158.021613 
L 147.463969 158.021613 
L 147.247945 156.978387 
L 148.472686 156.978387 
L 148.254917 155.935161 
L 151.277027 155.935161 
L 150.941704 154.370323 
L 151.538507 154.370323 
L 151.204012 152.805484 
L 152.977367 152.805484 
L 152.193558 149.154194 
L 152.776316 149.154194 
L 152.664964 148.632581 
L 153.824017 148.632581 
L 153.711628 148.110968 
L 154.287954 148.110968 
L 154.175217 147.589355 
L 154.749204 147.589355 
L 154.636127 147.067742 
L 155.207792 147.067742 
L 154.981295 146.024516 
L 156.117073 146.024516 
L 155.88927 144.98129 
L 157.576923 144.98129 
L 156.889831 141.851613 
L 157.999437 141.851613 
L 157.88481 141.33 
L 158.436657 141.33 
L 158.321739 140.808387 
L 158.871429 140.808387 
L 158.756224 140.286774 
L 161.47875 140.286774 
L 161.360888 139.765161 
L 161.900277 139.765161 
L 161.546897 138.200323 
L 162.083058 138.200323 
L 161.730864 136.635484 
L 162.263836 136.635484 
L 162.146512 136.113871 
L 162.677459 136.113871 
L 162.559891 135.592258 
L 163.088828 135.592258 
L 162.736364 134.027419 
L 166.3875 134.027419 
L 166.266846 133.505806 
L 167.296386 133.505806 
L 167.175 132.984194 
L 167.687183 132.984194 
L 167.444341 131.940968 
L 169.475364 131.940968 
L 169.229723 130.897742 
L 170.235178 130.897742 
L 170.111842 130.376129 
L 171.111024 130.376129 
L 170.987025 129.854516 
L 172.474543 129.854516 
L 172.224609 128.81129 
L 173.697665 128.81129 
L 173.571762 128.289677 
L 175.032 128.289677 
L 174.905026 127.768065 
L 175.388803 127.768065 
L 175.261697 127.246452 
L 176.704225 127.246452 
L 176.576087 126.724839 
L 177.054023 126.724839 
L 176.925765 126.203226 
L 178.823604 126.203226 
L 178.564557 125.16 
L 180.90566 125.16 
L 180.774497 124.638387 
L 181.23877 124.638387 
L 181.107519 124.116774 
L 184.776923 124.116774 
L 184.642751 123.595161 
L 185.095916 123.595161 
L 184.961681 123.073548 
L 187.208845 123.073548 
L 186.9375 122.030323 
L 187.827139 122.030323 
L 187.691209 121.50871 
L 188.134024 121.50871 
L 187.998051 120.987097 
L 188.879708 120.987097 
L 188.607273 119.943871 
L 190.789157 119.943871 
L 190.514423 118.900645 
L 190.946939 118.900645 
L 190.809712 118.379032 
L 195.075 118.379032 
L 194.794681 117.335806 
L 195.214994 117.335806 
L 195.075 116.814194 
L 196.74507 116.814194 
L 196.604103 116.292581 
L 201.113542 116.292581 
L 200.96948 115.770968 
L 202.178571 115.770968 
L 202.033947 115.249355 
L 202.834788 115.249355 
L 202.545361 114.206129 
L 202.943822 114.206129 
L 202.799314 113.684516 
L 203.988383 113.684516 
L 203.843345 113.162903 
L 204.237614 113.162903 
L 204.092622 112.64129 
L 204.485714 112.64129 
L 204.34077 112.119677 
L 205.123729 112.119677 
L 204.978555 111.598065 
L 208.456089 111.598065 
L 208.308817 111.076452 
L 210.963787 111.076452 
L 210.815044 110.554839 
L 211.939581 110.554839 
L 211.790419 110.033226 
L 212.163366 110.033226 
L 211.865532 108.99 
L 212.237171 108.99 
L 211.940153 107.946774 
L 213.783787 107.946774 
L 213.485668 106.903548 
L 214.944324 106.903548 
L 214.794816 106.381935 
L 218.029091 106.381935 
L 217.877885 105.860323 
L 218.58774 105.860323 
L 218.436422 105.33871 
L 218.79 105.33871 
L 218.487898 104.295484 
L 219.542857 104.295484 
L 219.391649 103.773871 
L 223.20094 103.773871 
L 223.047808 103.252258 
L 223.389572 103.252258 
L 223.236563 102.730645 
L 226.613505 102.730645 
L 226.458908 102.209032 
L 227.125591 102.209032 
L 226.970945 101.687419 
L 228.295399 101.687419 
L 228.140347 101.165806 
L 229.779878 101.165806 
L 229.624264 100.644194 
L 231.568819 100.644194 
L 231.4125 100.122581 
L 233.332665 100.122581 
L 233.175676 99.600968 
L 237.56535 99.600968 
L 237.406509 99.079355 
L 239.25 99.079355 
L 239.090597 98.557742 
L 239.7 98.557742 
L 239.540625 98.036129 
L 240.147368 98.036129 
L 239.988023 97.514516 
L 243.577767 97.514516 
L 243.417115 96.992903 
L 249.784746 96.992903 
L 249.621731 96.47129 
L 251.592056 96.47129 
L 251.428571 95.949677 
L 255.018819 95.949677 
L 254.854286 95.428065 
L 263.332587 95.428065 
L 263.165474 94.906452 
L 268.963541 94.906452 
L 268.795009 94.384839 
L 277.413158 94.384839 
L 277.072627 93.341613 
L 282.973881 93.341613 
L 282.632036 92.298387 
L 283.075289 92.298387 
L 282.904707 91.776774 
L 286.398044 91.776774 
L 286.227117 91.255161 
L 301.264286 91.255161 
L 301.091788 90.733548 
L 302.993602 90.733548 
L 302.821233 90.211935 
L 322.777537 90.211935 
L 322.605315 89.690323 
L 325.441989 89.690323 
L 325.441989 89.690323 
" style="fill:none;stroke:#2ca02c;stroke-linecap:square;stroke-width:2;"/>
   </g>
   <g id="patch_3">
    <path d="M 76.5 448.56 
L 76.5 60.48 
" style="fill:none;stroke:#000000;stroke-linecap:square;stroke-linejoin:miter;stroke-width:0.8;"/>
   </g>
   <g id="patch_4">
    <path d="M 550.8 448.56 
L 550.8 60.48 
" style="fill:none;stroke:#000000;stroke-linecap:square;stroke-linejoin:miter;stroke-width:0.8;"/>
   </g>
   <g id="patch_5">
    <path d="M 76.5 448.56 
L 550.8 448.56 
" style="fill:none;stroke:#000000;stroke-linecap:square;stroke-linejoin:miter;stroke-width:0.8;"/>
   </g>
   <g id="patch_6">
    <path d="M 76.5 60.48 
L 550.8 60.48 
" style="fill:none;stroke:#000000;stroke-linecap:square;stroke-linejoin:miter;stroke-width:0.8;"/>
   </g>
   <g id="text_25">
    <!-- leuven: img1-img5 -->
    <defs>
     <path d="M 9.421875 75.984375 
L 18.40625 75.984375 
L 18.40625 0 
L 9.421875 0 
z
" id="DejaVuSans-108"/>
     <path d="M 8.5 21.578125 
L 8.5 54.6875 
L 17.484375 54.6875 
L 17.484375 21.921875 
Q 17.484375 14.15625 20.5 10.265625 
Q 23.53125 6.390625 29.59375 6.390625 
Q 36.859375 6.390625 41.078125 11.03125 
Q 45.3125 15.671875 45.3125 23.6875 
L 45.3125 54.6875 
L 54.296875 54.6875 
L 54.296875 0 
L 45.3125 0 
L 45.3125 8.40625 
Q 42.046875 3.421875 37.71875 1 
Q 33.40625 -1.421875 27.6875 -1.421875 
Q 18.265625 -1.421875 13.375 4.4375 
Q 8.5 10.296875 8.5 21.578125 
z
M 31.109375 56 
z
" id="DejaVuSans-117"/>
     <path d="M 2.984375 54.6875 
L 12.5 54.6875 
L 29.59375 8.796875 
L 46.6875 54.6875 
L 56.203125 54.6875 
L 35.6875 0 
L 23.484375 0 
z
" id="DejaVuSans-118"/>
     <path d="M 11.71875 12.40625 
L 22.015625 12.40625 
L 22.015625 0 
L 11.71875 0 
z
M 11.71875 51.703125 
L 22.015625 51.703125 
L 22.015625 39.3125 
L 11.71875 39.3125 
z
" id="DejaVuSans-58"/>
     <path id="DejaVuSans-32"/>
     <path d="M 52 44.1875 
Q 55.375 50.25 60.0625 53.125 
Q 64.75 56 71.09375 56 
Q 79.640625 56 84.28125 50.015625 
Q 88.921875 44.046875 88.921875 33.015625 
L 88.921875 0 
L 79.890625 0 
L 79.890625 32.71875 
Q 79.890625 40.578125 77.09375 44.375 
Q 74.3125 48.1875 68.609375 48.1875 
Q 61.625 48.1875 57.5625 43.546875 
Q 53.515625 38.921875 53.515625 30.90625 
L 53.515625 0 
L 44.484375 0 
L 44.484375 32.71875 
Q 44.484375 40.625 41.703125 44.40625 
Q 38.921875 48.1875 33.109375 48.1875 
Q 26.21875 48.1875 22.15625 43.53125 
Q 18.109375 38.875 18.109375 30.90625 
L 18.109375 0 
L 9.078125 0 
L 9.078125 54.6875 
L 18.109375 54.6875 
L 18.109375 46.1875 
Q 21.1875 51.21875 25.484375 53.609375 
Q 29.78125 56 35.6875 56 
Q 41.65625 56 45.828125 52.96875 
Q 50 49.953125 52 44.1875 
z
" id="DejaVuSans-109"/>
     <path d="M 45.40625 27.984375 
Q 45.40625 37.75 41.375 43.109375 
Q 37.359375 48.484375 30.078125 48.484375 
Q 22.859375 48.484375 18.828125 43.109375 
Q 14.796875 37.75 14.796875 27.984375 
Q 14.796875 18.265625 18.828125 12.890625 
Q 22.859375 7.515625 30.078125 7.515625 
Q 37.359375 7.515625 41.375 12.890625 
Q 45.40625 18.265625 45.40625 27.984375 
z
M 54.390625 6.78125 
Q 54.390625 -7.171875 48.1875 -13.984375 
Q 42 -20.796875 29.203125 -20.796875 
Q 24.46875 -20.796875 20.265625 -20.09375 
Q 16.0625 -19.390625 12.109375 -17.921875 
L 12.109375 -9.1875 
Q 16.0625 -11.328125 19.921875 -12.34375 
Q 23.78125 -13.375 27.78125 -13.375 
Q 36.625 -13.375 41.015625 -8.765625 
Q 45.40625 -4.15625 45.40625 5.171875 
L 45.40625 9.625 
Q 42.625 4.78125 38.28125 2.390625 
Q 33.9375 0 27.875 0 
Q 17.828125 0 11.671875 7.65625 
Q 5.515625 15.328125 5.515625 27.984375 
Q 5.515625 40.671875 11.671875 48.328125 
Q 17.828125 56 27.875 56 
Q 33.9375 56 38.28125 53.609375 
Q 42.625 51.21875 45.40625 46.390625 
L 45.40625 54.6875 
L 54.390625 54.6875 
z
" id="DejaVuSans-103"/>
    </defs>
    <g transform="translate(257.074688 41.042625)scale(0.12 -0.12)">
     <use xlink:href="#DejaVuSans-108"/>
     <use x="27.783203" xlink:href="#DejaVuSans-101"/>
     <use x="89.306641" xlink:href="#DejaVuSans-117"/>
     <use x="152.685547" xlink:href="#DejaVuSans-118"/>
     <use x="211.865234" xlink:href="#DejaVuSans-101"/>
     <use x="273.388672" xlink:href="#DejaVuSans-110"/>
     <use x="336.767578" xlink:href="#DejaVuSans-58"/>
     <use x="370.458984" xlink:href="#DejaVuSans-32"/>
     <use x="402.246094" xlink:href="#DejaVuSans-105"/>
     <use x="430.029297" xlink:href="#DejaVuSans-109"/>
     <use x="527.441406" xlink:href="#DejaVuSans-103"/>
     <use x="590.917969" xlink:href="#DejaVuSans-49"/>
     <use x="654.541016" xlink:href="#DejaVuSans-45"/>
     <use x="690.625" xlink:href="#DejaVuSans-105"/>
     <use x="718.408203" xlink:href="#DejaVuSans-109"/>
     <use x="815.820312" xlink:href="#DejaVuSans-103"/>
     <use x="879.296875" xlink:href="#DejaVuSans-53"/>
    </g>
    <!-- NearestNeighbours -->
    <defs>
     <path d="M 9.8125 72.90625 
L 23.09375 72.90625 
L 55.421875 11.921875 
L 55.421875 72.90625 
L 64.984375 72.90625 
L 64.984375 0 
L 51.703125 0 
L 19.390625 60.984375 
L 19.390625 0 
L 9.8125 0 
z
" id="DejaVuSans-78"/>
     <path d="M 34.28125 27.484375 
Q 23.390625 27.484375 19.1875 25 
Q 14.984375 22.515625 14.984375 16.5 
Q 14.984375 11.71875 18.140625 8.90625 
Q 21.296875 6.109375 26.703125 6.109375 
Q 34.1875 6.109375 38.703125 11.40625 
Q 43.21875 16.703125 43.21875 25.484375 
L 43.21875 27.484375 
z
M 52.203125 31.203125 
L 52.203125 0 
L 43.21875 0 
L 43.21875 8.296875 
Q 40.140625 3.328125 35.546875 0.953125 
Q 30.953125 -1.421875 24.3125 -1.421875 
Q 15.921875 -1.421875 10.953125 3.296875 
Q 6 8.015625 6 15.921875 
Q 6 25.140625 12.171875 29.828125 
Q 18.359375 34.515625 30.609375 34.515625 
L 43.21875 34.515625 
L 43.21875 35.40625 
Q 43.21875 41.609375 39.140625 45 
Q 35.0625 48.390625 27.6875 48.390625 
Q 23 48.390625 18.546875 47.265625 
Q 14.109375 46.140625 10.015625 43.890625 
L 10.015625 52.203125 
Q 14.9375 54.109375 19.578125 55.046875 
Q 24.21875 56 28.609375 56 
Q 40.484375 56 46.34375 49.84375 
Q 52.203125 43.703125 52.203125 31.203125 
z
" id="DejaVuSans-97"/>
     <path d="M 54.890625 33.015625 
L 54.890625 0 
L 45.90625 0 
L 45.90625 32.71875 
Q 45.90625 40.484375 42.875 44.328125 
Q 39.84375 48.1875 33.796875 48.1875 
Q 26.515625 48.1875 22.3125 43.546875 
Q 18.109375 38.921875 18.109375 30.90625 
L 18.109375 0 
L 9.078125 0 
L 9.078125 75.984375 
L 18.109375 75.984375 
L 18.109375 46.1875 
Q 21.34375 51.125 25.703125 53.5625 
Q 30.078125 56 35.796875 56 
Q 45.21875 56 50.046875 50.171875 
Q 54.890625 44.34375 54.890625 33.015625 
z
" id="DejaVuSans-104"/>
     <path d="M 48.6875 27.296875 
Q 48.6875 37.203125 44.609375 42.84375 
Q 40.53125 48.484375 33.40625 48.484375 
Q 26.265625 48.484375 22.1875 42.84375 
Q 18.109375 37.203125 18.109375 27.296875 
Q 18.109375 17.390625 22.1875 11.75 
Q 26.265625 6.109375 33.40625 6.109375 
Q 40.53125 6.109375 44.609375 11.75 
Q 48.6875 17.390625 48.6875 27.296875 
z
M 18.109375 46.390625 
Q 20.953125 51.265625 25.265625 53.625 
Q 29.59375 56 35.59375 56 
Q 45.5625 56 51.78125 48.09375 
Q 58.015625 40.1875 58.015625 27.296875 
Q 58.015625 14.40625 51.78125 6.484375 
Q 45.5625 -1.421875 35.59375 -1.421875 
Q 29.59375 -1.421875 25.265625 0.953125 
Q 20.953125 3.328125 18.109375 8.203125 
L 18.109375 0 
L 9.078125 0 
L 9.078125 75.984375 
L 18.109375 75.984375 
z
" id="DejaVuSans-98"/>
    </defs>
    <g transform="translate(255.957188 54.48)scale(0.12 -0.12)">
     <use xlink:href="#DejaVuSans-78"/>
     <use x="74.804688" xlink:href="#DejaVuSans-101"/>
     <use x="136.328125" xlink:href="#DejaVuSans-97"/>
     <use x="197.607422" xlink:href="#DejaVuSans-114"/>
     <use x="236.470703" xlink:href="#DejaVuSans-101"/>
     <use x="297.994141" xlink:href="#DejaVuSans-115"/>
     <use x="350.09375" xlink:href="#DejaVuSans-116"/>
     <use x="389.302734" xlink:href="#DejaVuSans-78"/>
     <use x="464.107422" xlink:href="#DejaVuSans-101"/>
     <use x="525.630859" xlink:href="#DejaVuSans-105"/>
     <use x="553.414062" xlink:href="#DejaVuSans-103"/>
     <use x="616.890625" xlink:href="#DejaVuSans-104"/>
     <use x="680.269531" xlink:href="#DejaVuSans-98"/>
     <use x="743.746094" xlink:href="#DejaVuSans-111"/>
     <use x="804.927734" xlink:href="#DejaVuSans-117"/>
     <use x="868.306641" xlink:href="#DejaVuSans-114"/>
     <use x="909.419922" xlink:href="#DejaVuSans-115"/>
    </g>
   </g>
   <g id="legend_1">
    <g id="patch_7">
     <path d="M 362.659375 112.514375 
L 543.8 112.514375 
Q 545.8 112.514375 545.8 110.514375 
L 545.8 67.48 
Q 545.8 65.48 543.8 65.48 
L 362.659375 65.48 
Q 360.659375 65.48 360.659375 67.48 
L 360.659375 110.514375 
Q 360.659375 112.514375 362.659375 112.514375 
z
" style="fill:#ffffff;opacity:0.8;stroke:#cccccc;stroke-linejoin:miter;"/>
    </g>
    <g id="line2d_48">
     <path d="M 364.659375 73.578438 
L 384.659375 73.578438 
" style="fill:none;stroke:#1f77b4;stroke-linecap:square;stroke-width:2;"/>
    </g>
    <g id="line2d_49"/>
    <g id="text_26">
     <!-- root-cvsift AP: 85.9, %In: 47.7 -->
     <defs>
      <path d="M 37.109375 75.984375 
L 37.109375 68.5 
L 28.515625 68.5 
Q 23.6875 68.5 21.796875 66.546875 
Q 19.921875 64.59375 19.921875 59.515625 
L 19.921875 54.6875 
L 34.71875 54.6875 
L 34.71875 47.703125 
L 19.921875 47.703125 
L 19.921875 0 
L 10.890625 0 
L 10.890625 47.703125 
L 2.296875 47.703125 
L 2.296875 54.6875 
L 10.890625 54.6875 
L 10.890625 58.5 
Q 10.890625 67.625 15.140625 71.796875 
Q 19.390625 75.984375 28.609375 75.984375 
z
" id="DejaVuSans-102"/>
      <path d="M 34.1875 63.1875 
L 20.796875 26.90625 
L 47.609375 26.90625 
z
M 28.609375 72.90625 
L 39.796875 72.90625 
L 67.578125 0 
L 57.328125 0 
L 50.6875 18.703125 
L 17.828125 18.703125 
L 11.1875 0 
L 0.78125 0 
z
" id="DejaVuSans-65"/>
      <path d="M 19.671875 64.796875 
L 19.671875 37.40625 
L 32.078125 37.40625 
Q 38.96875 37.40625 42.71875 40.96875 
Q 46.484375 44.53125 46.484375 51.125 
Q 46.484375 57.671875 42.71875 61.234375 
Q 38.96875 64.796875 32.078125 64.796875 
z
M 9.8125 72.90625 
L 32.078125 72.90625 
Q 44.34375 72.90625 50.609375 67.359375 
Q 56.890625 61.8125 56.890625 51.125 
Q 56.890625 40.328125 50.609375 34.8125 
Q 44.34375 29.296875 32.078125 29.296875 
L 19.671875 29.296875 
L 19.671875 0 
L 9.8125 0 
z
" id="DejaVuSans-80"/>
      <path d="M 11.71875 12.40625 
L 22.015625 12.40625 
L 22.015625 4 
L 14.015625 -11.625 
L 7.71875 -11.625 
L 11.71875 4 
z
" id="DejaVuSans-44"/>
      <path d="M 72.703125 32.078125 
Q 68.453125 32.078125 66.03125 28.46875 
Q 63.625 24.859375 63.625 18.40625 
Q 63.625 12.0625 66.03125 8.421875 
Q 68.453125 4.78125 72.703125 4.78125 
Q 76.859375 4.78125 79.265625 8.421875 
Q 81.6875 12.0625 81.6875 18.40625 
Q 81.6875 24.8125 79.265625 28.4375 
Q 76.859375 32.078125 72.703125 32.078125 
z
M 72.703125 38.28125 
Q 80.421875 38.28125 84.953125 32.90625 
Q 89.5 27.546875 89.5 18.40625 
Q 89.5 9.28125 84.9375 3.921875 
Q 80.375 -1.421875 72.703125 -1.421875 
Q 64.890625 -1.421875 60.34375 3.921875 
Q 55.8125 9.28125 55.8125 18.40625 
Q 55.8125 27.59375 60.375 32.9375 
Q 64.9375 38.28125 72.703125 38.28125 
z
M 22.3125 68.015625 
Q 18.109375 68.015625 15.6875 64.375 
Q 13.28125 60.75 13.28125 54.390625 
Q 13.28125 47.953125 15.671875 44.328125 
Q 18.0625 40.71875 22.3125 40.71875 
Q 26.5625 40.71875 28.96875 44.328125 
Q 31.390625 47.953125 31.390625 54.390625 
Q 31.390625 60.6875 28.953125 64.34375 
Q 26.515625 68.015625 22.3125 68.015625 
z
M 66.40625 74.21875 
L 74.21875 74.21875 
L 28.609375 -1.421875 
L 20.796875 -1.421875 
z
M 22.3125 74.21875 
Q 30.03125 74.21875 34.609375 68.875 
Q 39.203125 63.53125 39.203125 54.390625 
Q 39.203125 45.171875 34.640625 39.84375 
Q 30.078125 34.515625 22.3125 34.515625 
Q 14.546875 34.515625 10.03125 39.859375 
Q 5.515625 45.21875 5.515625 54.390625 
Q 5.515625 63.484375 10.046875 68.84375 
Q 14.59375 74.21875 22.3125 74.21875 
z
" id="DejaVuSans-37"/>
      <path d="M 9.8125 72.90625 
L 19.671875 72.90625 
L 19.671875 0 
L 9.8125 0 
z
" id="DejaVuSans-73"/>
     </defs>
     <g transform="translate(392.659375 77.078438)scale(0.1 -0.1)">
      <use xlink:href="#DejaVuSans-114"/>
      <use x="38.863281" xlink:href="#DejaVuSans-111"/>
      <use x="100.044922" xlink:href="#DejaVuSans-111"/>
      <use x="161.226562" xlink:href="#DejaVuSans-116"/>
      <use x="200.435547" xlink:href="#DejaVuSans-45"/>
      <use x="236.519531" xlink:href="#DejaVuSans-99"/>
      <use x="291.5" xlink:href="#DejaVuSans-118"/>
      <use x="350.679688" xlink:href="#DejaVuSans-115"/>
      <use x="402.779297" xlink:href="#DejaVuSans-105"/>
      <use x="430.5625" xlink:href="#DejaVuSans-102"/>
      <use x="464.017578" xlink:href="#DejaVuSans-116"/>
      <use x="503.226562" xlink:href="#DejaVuSans-32"/>
      <use x="535.013672" xlink:href="#DejaVuSans-65"/>
      <use x="603.421875" xlink:href="#DejaVuSans-80"/>
      <use x="663.724609" xlink:href="#DejaVuSans-58"/>
      <use x="697.416016" xlink:href="#DejaVuSans-32"/>
      <use x="729.203125" xlink:href="#DejaVuSans-56"/>
      <use x="792.826172" xlink:href="#DejaVuSans-53"/>
      <use x="856.449219" xlink:href="#DejaVuSans-46"/>
      <use x="888.236328" xlink:href="#DejaVuSans-57"/>
      <use x="951.859375" xlink:href="#DejaVuSans-44"/>
      <use x="983.646484" xlink:href="#DejaVuSans-32"/>
      <use x="1015.433594" xlink:href="#DejaVuSans-37"/>
      <use x="1110.453125" xlink:href="#DejaVuSans-73"/>
      <use x="1139.945312" xlink:href="#DejaVuSans-110"/>
      <use x="1203.324219" xlink:href="#DejaVuSans-58"/>
      <use x="1237.015625" xlink:href="#DejaVuSans-32"/>
      <use x="1268.802734" xlink:href="#DejaVuSans-52"/>
      <use x="1332.425781" xlink:href="#DejaVuSans-55"/>
      <use x="1396.048828" xlink:href="#DejaVuSans-46"/>
      <use x="1427.835938" xlink:href="#DejaVuSans-55"/>
     </g>
    </g>
    <g id="line2d_50">
     <path d="M 364.659375 88.256563 
L 384.659375 88.256563 
" style="fill:none;stroke:#ff7f0e;stroke-linecap:square;stroke-width:2;"/>
    </g>
    <g id="line2d_51"/>
    <g id="text_27">
     <!-- tfeat AP: 66.9, %In: 43.6 -->
     <g transform="translate(392.659375 91.756563)scale(0.1 -0.1)">
      <use xlink:href="#DejaVuSans-116"/>
      <use x="39.208984" xlink:href="#DejaVuSans-102"/>
      <use x="74.414062" xlink:href="#DejaVuSans-101"/>
      <use x="135.9375" xlink:href="#DejaVuSans-97"/>
      <use x="197.216797" xlink:href="#DejaVuSans-116"/>
      <use x="236.425781" xlink:href="#DejaVuSans-32"/>
      <use x="268.212891" xlink:href="#DejaVuSans-65"/>
      <use x="336.621094" xlink:href="#DejaVuSans-80"/>
      <use x="396.923828" xlink:href="#DejaVuSans-58"/>
      <use x="430.615234" xlink:href="#DejaVuSans-32"/>
      <use x="462.402344" xlink:href="#DejaVuSans-54"/>
      <use x="526.025391" xlink:href="#DejaVuSans-54"/>
      <use x="589.648438" xlink:href="#DejaVuSans-46"/>
      <use x="621.435547" xlink:href="#DejaVuSans-57"/>
      <use x="685.058594" xlink:href="#DejaVuSans-44"/>
      <use x="716.845703" xlink:href="#DejaVuSans-32"/>
      <use x="748.632812" xlink:href="#DejaVuSans-37"/>
      <use x="843.652344" xlink:href="#DejaVuSans-73"/>
      <use x="873.144531" xlink:href="#DejaVuSans-110"/>
      <use x="936.523438" xlink:href="#DejaVuSans-58"/>
      <use x="970.214844" xlink:href="#DejaVuSans-32"/>
      <use x="1002.001953" xlink:href="#DejaVuSans-52"/>
      <use x="1065.625" xlink:href="#DejaVuSans-51"/>
      <use x="1129.248047" xlink:href="#DejaVuSans-46"/>
      <use x="1161.035156" xlink:href="#DejaVuSans-54"/>
     </g>
    </g>
    <g id="line2d_52">
     <path d="M 364.659375 102.934687 
L 384.659375 102.934687 
" style="fill:none;stroke:#2ca02c;stroke-linecap:square;stroke-width:2;"/>
    </g>
    <g id="line2d_53"/>
    <g id="text_28">
     <!-- hardnet AP: 84.2, %In: 47.5 -->
     <defs>
      <path d="M 45.40625 46.390625 
L 45.40625 75.984375 
L 54.390625 75.984375 
L 54.390625 0 
L 45.40625 0 
L 45.40625 8.203125 
Q 42.578125 3.328125 38.25 0.953125 
Q 33.9375 -1.421875 27.875 -1.421875 
Q 17.96875 -1.421875 11.734375 6.484375 
Q 5.515625 14.40625 5.515625 27.296875 
Q 5.515625 40.1875 11.734375 48.09375 
Q 17.96875 56 27.875 56 
Q 33.9375 56 38.25 53.625 
Q 42.578125 51.265625 45.40625 46.390625 
z
M 14.796875 27.296875 
Q 14.796875 17.390625 18.875 11.75 
Q 22.953125 6.109375 30.078125 6.109375 
Q 37.203125 6.109375 41.296875 11.75 
Q 45.40625 17.390625 45.40625 27.296875 
Q 45.40625 37.203125 41.296875 42.84375 
Q 37.203125 48.484375 30.078125 48.484375 
Q 22.953125 48.484375 18.875 42.84375 
Q 14.796875 37.203125 14.796875 27.296875 
z
" id="DejaVuSans-100"/>
     </defs>
     <g transform="translate(392.659375 106.434687)scale(0.1 -0.1)">
      <use xlink:href="#DejaVuSans-104"/>
      <use x="63.378906" xlink:href="#DejaVuSans-97"/>
      <use x="124.658203" xlink:href="#DejaVuSans-114"/>
      <use x="164.021484" xlink:href="#DejaVuSans-100"/>
      <use x="227.498047" xlink:href="#DejaVuSans-110"/>
      <use x="290.876953" xlink:href="#DejaVuSans-101"/>
      <use x="352.400391" xlink:href="#DejaVuSans-116"/>
      <use x="391.609375" xlink:href="#DejaVuSans-32"/>
      <use x="423.396484" xlink:href="#DejaVuSans-65"/>
      <use x="491.804688" xlink:href="#DejaVuSans-80"/>
      <use x="552.107422" xlink:href="#DejaVuSans-58"/>
      <use x="585.798828" xlink:href="#DejaVuSans-32"/>
      <use x="617.585938" xlink:href="#DejaVuSans-56"/>
      <use x="681.208984" xlink:href="#DejaVuSans-52"/>
      <use x="744.832031" xlink:href="#DejaVuSans-46"/>
      <use x="776.619141" xlink:href="#DejaVuSans-50"/>
      <use x="840.242188" xlink:href="#DejaVuSans-44"/>
      <use x="872.029297" xlink:href="#DejaVuSans-32"/>
      <use x="903.816406" xlink:href="#DejaVuSans-37"/>
      <use x="998.835938" xlink:href="#DejaVuSans-73"/>
      <use x="1028.328125" xlink:href="#DejaVuSans-110"/>
      <use x="1091.707031" xlink:href="#DejaVuSans-58"/>
      <use x="1125.398438" xlink:href="#DejaVuSans-32"/>
      <use x="1157.185547" xlink:href="#DejaVuSans-52"/>
      <use x="1220.808594" xlink:href="#DejaVuSans-55"/>
      <use x="1284.431641" xlink:href="#DejaVuSans-46"/>
      <use x="1316.21875" xlink:href="#DejaVuSans-53"/>
     </g>
    </g>
   </g>
  </g>
 </g>
 <defs>
  <clipPath id="pb32ce40631">
   <rect height="388.08" width="474.3" x="76.5" y="60.48"/>
  </clipPath>
 </defs>
</svg>
