<?xml version="1.0" encoding="utf-8" standalone="no"?>
<!DOCTYPE svg PUBLIC "-//W3C//DTD SVG 1.1//EN"
  "http://www.w3.org/Graphics/SVG/1.1/DTD/svg11.dtd">
<!-- Created with matplotlib (https://matplotlib.org/) -->
<svg height="504pt" version="1.1" viewBox="0 0 612 504" width="612pt" xmlns="http://www.w3.org/2000/svg" xmlns:xlink="http://www.w3.org/1999/xlink">
 <defs>
  <style type="text/css">
*{stroke-linecap:butt;stroke-linejoin:round;}
  </style>
 </defs>
 <g id="figure_1">
  <g id="patch_1">
   <path d="M 0 504 
L 612 504 
L 612 0 
L 0 0 
z
" style="fill:#ffffff;"/>
  </g>
  <g id="axes_1">
   <g id="patch_2">
    <path d="M 76.5 448.56 
L 550.8 448.56 
L 550.8 60.48 
L 76.5 60.48 
z
" style="fill:#ffffff;"/>
   </g>
   <g id="matplotlib.axis_1">
    <g id="xtick_1">
     <g id="line2d_1">
      <path clip-path="url(#p430de52436)" d="M 76.5 448.56 
L 76.5 60.48 
" style="fill:none;stroke:#b0b0b0;stroke-linecap:square;stroke-width:0.8;"/>
     </g>
     <g id="line2d_2">
      <defs>
       <path d="M 0 0 
L 0 3.5 
" id="m152d291d06" style="stroke:#000000;stroke-width:0.8;"/>
      </defs>
      <g>
       <use style="stroke:#000000;stroke-width:0.8;" x="76.5" xlink:href="#m152d291d06" y="448.56"/>
      </g>
     </g>
     <g id="text_1">
      <!-- 0.0 -->
      <defs>
       <path d="M 31.78125 66.40625 
Q 24.171875 66.40625 20.328125 58.90625 
Q 16.5 51.421875 16.5 36.375 
Q 16.5 21.390625 20.328125 13.890625 
Q 24.171875 6.390625 31.78125 6.390625 
Q 39.453125 6.390625 43.28125 13.890625 
Q 47.125 21.390625 47.125 36.375 
Q 47.125 51.421875 43.28125 58.90625 
Q 39.453125 66.40625 31.78125 66.40625 
z
M 31.78125 74.21875 
Q 44.046875 74.21875 50.515625 64.515625 
Q 56.984375 54.828125 56.984375 36.375 
Q 56.984375 17.96875 50.515625 8.265625 
Q 44.046875 -1.421875 31.78125 -1.421875 
Q 19.53125 -1.421875 13.0625 8.265625 
Q 6.59375 17.96875 6.59375 36.375 
Q 6.59375 54.828125 13.0625 64.515625 
Q 19.53125 74.21875 31.78125 74.21875 
z
" id="DejaVuSans-48"/>
       <path d="M 10.6875 12.40625 
L 21 12.40625 
L 21 0 
L 10.6875 0 
z
" id="DejaVuSans-46"/>
      </defs>
      <g transform="translate(68.548438 463.158437)scale(0.1 -0.1)">
       <use xlink:href="#DejaVuSans-48"/>
       <use x="63.623047" xlink:href="#DejaVuSans-46"/>
       <use x="95.410156" xlink:href="#DejaVuSans-48"/>
      </g>
     </g>
    </g>
    <g id="xtick_2">
     <g id="line2d_3">
      <path clip-path="url(#p430de52436)" d="M 123.93 448.56 
L 123.93 60.48 
" style="fill:none;stroke:#b0b0b0;stroke-linecap:square;stroke-width:0.8;"/>
     </g>
     <g id="line2d_4">
      <g>
       <use style="stroke:#000000;stroke-width:0.8;" x="123.93" xlink:href="#m152d291d06" y="448.56"/>
      </g>
     </g>
     <g id="text_2">
      <!-- 0.1 -->
      <defs>
       <path d="M 12.40625 8.296875 
L 28.515625 8.296875 
L 28.515625 63.921875 
L 10.984375 60.40625 
L 10.984375 69.390625 
L 28.421875 72.90625 
L 38.28125 72.90625 
L 38.28125 8.296875 
L 54.390625 8.296875 
L 54.390625 0 
L 12.40625 0 
z
" id="DejaVuSans-49"/>
      </defs>
      <g transform="translate(115.978438 463.158437)scale(0.1 -0.1)">
       <use xlink:href="#DejaVuSans-48"/>
       <use x="63.623047" xlink:href="#DejaVuSans-46"/>
       <use x="95.410156" xlink:href="#DejaVuSans-49"/>
      </g>
     </g>
    </g>
    <g id="xtick_3">
     <g id="line2d_5">
      <path clip-path="url(#p430de52436)" d="M 171.36 448.56 
L 171.36 60.48 
" style="fill:none;stroke:#b0b0b0;stroke-linecap:square;stroke-width:0.8;"/>
     </g>
     <g id="line2d_6">
      <g>
       <use style="stroke:#000000;stroke-width:0.8;" x="171.36" xlink:href="#m152d291d06" y="448.56"/>
      </g>
     </g>
     <g id="text_3">
      <!-- 0.2 -->
      <defs>
       <path d="M 19.1875 8.296875 
L 53.609375 8.296875 
L 53.609375 0 
L 7.328125 0 
L 7.328125 8.296875 
Q 12.9375 14.109375 22.625 23.890625 
Q 32.328125 33.6875 34.8125 36.53125 
Q 39.546875 41.84375 41.421875 45.53125 
Q 43.3125 49.21875 43.3125 52.78125 
Q 43.3125 58.59375 39.234375 62.25 
Q 35.15625 65.921875 28.609375 65.921875 
Q 23.96875 65.921875 18.8125 64.3125 
Q 13.671875 62.703125 7.8125 59.421875 
L 7.8125 69.390625 
Q 13.765625 71.78125 18.9375 73 
Q 24.125 74.21875 28.421875 74.21875 
Q 39.75 74.21875 46.484375 68.546875 
Q 53.21875 62.890625 53.21875 53.421875 
Q 53.21875 48.921875 51.53125 44.890625 
Q 49.859375 40.875 45.40625 35.40625 
Q 44.1875 33.984375 37.640625 27.21875 
Q 31.109375 20.453125 19.1875 8.296875 
z
" id="DejaVuSans-50"/>
      </defs>
      <g transform="translate(163.408438 463.158437)scale(0.1 -0.1)">
       <use xlink:href="#DejaVuSans-48"/>
       <use x="63.623047" xlink:href="#DejaVuSans-46"/>
       <use x="95.410156" xlink:href="#DejaVuSans-50"/>
      </g>
     </g>
    </g>
    <g id="xtick_4">
     <g id="line2d_7">
      <path clip-path="url(#p430de52436)" d="M 218.79 448.56 
L 218.79 60.48 
" style="fill:none;stroke:#b0b0b0;stroke-linecap:square;stroke-width:0.8;"/>
     </g>
     <g id="line2d_8">
      <g>
       <use style="stroke:#000000;stroke-width:0.8;" x="218.79" xlink:href="#m152d291d06" y="448.56"/>
      </g>
     </g>
     <g id="text_4">
      <!-- 0.3 -->
      <defs>
       <path d="M 40.578125 39.3125 
Q 47.65625 37.796875 51.625 33 
Q 55.609375 28.21875 55.609375 21.1875 
Q 55.609375 10.40625 48.1875 4.484375 
Q 40.765625 -1.421875 27.09375 -1.421875 
Q 22.515625 -1.421875 17.65625 -0.515625 
Q 12.796875 0.390625 7.625 2.203125 
L 7.625 11.71875 
Q 11.71875 9.328125 16.59375 8.109375 
Q 21.484375 6.890625 26.8125 6.890625 
Q 36.078125 6.890625 40.9375 10.546875 
Q 45.796875 14.203125 45.796875 21.1875 
Q 45.796875 27.640625 41.28125 31.265625 
Q 36.765625 34.90625 28.71875 34.90625 
L 20.21875 34.90625 
L 20.21875 43.015625 
L 29.109375 43.015625 
Q 36.375 43.015625 40.234375 45.921875 
Q 44.09375 48.828125 44.09375 54.296875 
Q 44.09375 59.90625 40.109375 62.90625 
Q 36.140625 65.921875 28.71875 65.921875 
Q 24.65625 65.921875 20.015625 65.03125 
Q 15.375 64.15625 9.8125 62.3125 
L 9.8125 71.09375 
Q 15.4375 72.65625 20.34375 73.4375 
Q 25.25 74.21875 29.59375 74.21875 
Q 40.828125 74.21875 47.359375 69.109375 
Q 53.90625 64.015625 53.90625 55.328125 
Q 53.90625 49.265625 50.4375 45.09375 
Q 46.96875 40.921875 40.578125 39.3125 
z
" id="DejaVuSans-51"/>
      </defs>
      <g transform="translate(210.838438 463.158437)scale(0.1 -0.1)">
       <use xlink:href="#DejaVuSans-48"/>
       <use x="63.623047" xlink:href="#DejaVuSans-46"/>
       <use x="95.410156" xlink:href="#DejaVuSans-51"/>
      </g>
     </g>
    </g>
    <g id="xtick_5">
     <g id="line2d_9">
      <path clip-path="url(#p430de52436)" d="M 266.22 448.56 
L 266.22 60.48 
" style="fill:none;stroke:#b0b0b0;stroke-linecap:square;stroke-width:0.8;"/>
     </g>
     <g id="line2d_10">
      <g>
       <use style="stroke:#000000;stroke-width:0.8;" x="266.22" xlink:href="#m152d291d06" y="448.56"/>
      </g>
     </g>
     <g id="text_5">
      <!-- 0.4 -->
      <defs>
       <path d="M 37.796875 64.3125 
L 12.890625 25.390625 
L 37.796875 25.390625 
z
M 35.203125 72.90625 
L 47.609375 72.90625 
L 47.609375 25.390625 
L 58.015625 25.390625 
L 58.015625 17.1875 
L 47.609375 17.1875 
L 47.609375 0 
L 37.796875 0 
L 37.796875 17.1875 
L 4.890625 17.1875 
L 4.890625 26.703125 
z
" id="DejaVuSans-52"/>
      </defs>
      <g transform="translate(258.268438 463.158437)scale(0.1 -0.1)">
       <use xlink:href="#DejaVuSans-48"/>
       <use x="63.623047" xlink:href="#DejaVuSans-46"/>
       <use x="95.410156" xlink:href="#DejaVuSans-52"/>
      </g>
     </g>
    </g>
    <g id="xtick_6">
     <g id="line2d_11">
      <path clip-path="url(#p430de52436)" d="M 313.65 448.56 
L 313.65 60.48 
" style="fill:none;stroke:#b0b0b0;stroke-linecap:square;stroke-width:0.8;"/>
     </g>
     <g id="line2d_12">
      <g>
       <use style="stroke:#000000;stroke-width:0.8;" x="313.65" xlink:href="#m152d291d06" y="448.56"/>
      </g>
     </g>
     <g id="text_6">
      <!-- 0.5 -->
      <defs>
       <path d="M 10.796875 72.90625 
L 49.515625 72.90625 
L 49.515625 64.59375 
L 19.828125 64.59375 
L 19.828125 46.734375 
Q 21.96875 47.46875 24.109375 47.828125 
Q 26.265625 48.1875 28.421875 48.1875 
Q 40.625 48.1875 47.75 41.5 
Q 54.890625 34.8125 54.890625 23.390625 
Q 54.890625 11.625 47.5625 5.09375 
Q 40.234375 -1.421875 26.90625 -1.421875 
Q 22.3125 -1.421875 17.546875 -0.640625 
Q 12.796875 0.140625 7.71875 1.703125 
L 7.71875 11.625 
Q 12.109375 9.234375 16.796875 8.0625 
Q 21.484375 6.890625 26.703125 6.890625 
Q 35.15625 6.890625 40.078125 11.328125 
Q 45.015625 15.765625 45.015625 23.390625 
Q 45.015625 31 40.078125 35.4375 
Q 35.15625 39.890625 26.703125 39.890625 
Q 22.75 39.890625 18.8125 39.015625 
Q 14.890625 38.140625 10.796875 36.28125 
z
" id="DejaVuSans-53"/>
      </defs>
      <g transform="translate(305.698438 463.158437)scale(0.1 -0.1)">
       <use xlink:href="#DejaVuSans-48"/>
       <use x="63.623047" xlink:href="#DejaVuSans-46"/>
       <use x="95.410156" xlink:href="#DejaVuSans-53"/>
      </g>
     </g>
    </g>
    <g id="xtick_7">
     <g id="line2d_13">
      <path clip-path="url(#p430de52436)" d="M 361.08 448.56 
L 361.08 60.48 
" style="fill:none;stroke:#b0b0b0;stroke-linecap:square;stroke-width:0.8;"/>
     </g>
     <g id="line2d_14">
      <g>
       <use style="stroke:#000000;stroke-width:0.8;" x="361.08" xlink:href="#m152d291d06" y="448.56"/>
      </g>
     </g>
     <g id="text_7">
      <!-- 0.6 -->
      <defs>
       <path d="M 33.015625 40.375 
Q 26.375 40.375 22.484375 35.828125 
Q 18.609375 31.296875 18.609375 23.390625 
Q 18.609375 15.53125 22.484375 10.953125 
Q 26.375 6.390625 33.015625 6.390625 
Q 39.65625 6.390625 43.53125 10.953125 
Q 47.40625 15.53125 47.40625 23.390625 
Q 47.40625 31.296875 43.53125 35.828125 
Q 39.65625 40.375 33.015625 40.375 
z
M 52.59375 71.296875 
L 52.59375 62.3125 
Q 48.875 64.0625 45.09375 64.984375 
Q 41.3125 65.921875 37.59375 65.921875 
Q 27.828125 65.921875 22.671875 59.328125 
Q 17.53125 52.734375 16.796875 39.40625 
Q 19.671875 43.65625 24.015625 45.921875 
Q 28.375 48.1875 33.59375 48.1875 
Q 44.578125 48.1875 50.953125 41.515625 
Q 57.328125 34.859375 57.328125 23.390625 
Q 57.328125 12.15625 50.6875 5.359375 
Q 44.046875 -1.421875 33.015625 -1.421875 
Q 20.359375 -1.421875 13.671875 8.265625 
Q 6.984375 17.96875 6.984375 36.375 
Q 6.984375 53.65625 15.1875 63.9375 
Q 23.390625 74.21875 37.203125 74.21875 
Q 40.921875 74.21875 44.703125 73.484375 
Q 48.484375 72.75 52.59375 71.296875 
z
" id="DejaVuSans-54"/>
      </defs>
      <g transform="translate(353.128438 463.158437)scale(0.1 -0.1)">
       <use xlink:href="#DejaVuSans-48"/>
       <use x="63.623047" xlink:href="#DejaVuSans-46"/>
       <use x="95.410156" xlink:href="#DejaVuSans-54"/>
      </g>
     </g>
    </g>
    <g id="xtick_8">
     <g id="line2d_15">
      <path clip-path="url(#p430de52436)" d="M 408.51 448.56 
L 408.51 60.48 
" style="fill:none;stroke:#b0b0b0;stroke-linecap:square;stroke-width:0.8;"/>
     </g>
     <g id="line2d_16">
      <g>
       <use style="stroke:#000000;stroke-width:0.8;" x="408.51" xlink:href="#m152d291d06" y="448.56"/>
      </g>
     </g>
     <g id="text_8">
      <!-- 0.7 -->
      <defs>
       <path d="M 8.203125 72.90625 
L 55.078125 72.90625 
L 55.078125 68.703125 
L 28.609375 0 
L 18.3125 0 
L 43.21875 64.59375 
L 8.203125 64.59375 
z
" id="DejaVuSans-55"/>
      </defs>
      <g transform="translate(400.558438 463.158437)scale(0.1 -0.1)">
       <use xlink:href="#DejaVuSans-48"/>
       <use x="63.623047" xlink:href="#DejaVuSans-46"/>
       <use x="95.410156" xlink:href="#DejaVuSans-55"/>
      </g>
     </g>
    </g>
    <g id="xtick_9">
     <g id="line2d_17">
      <path clip-path="url(#p430de52436)" d="M 455.94 448.56 
L 455.94 60.48 
" style="fill:none;stroke:#b0b0b0;stroke-linecap:square;stroke-width:0.8;"/>
     </g>
     <g id="line2d_18">
      <g>
       <use style="stroke:#000000;stroke-width:0.8;" x="455.94" xlink:href="#m152d291d06" y="448.56"/>
      </g>
     </g>
     <g id="text_9">
      <!-- 0.8 -->
      <defs>
       <path d="M 31.78125 34.625 
Q 24.75 34.625 20.71875 30.859375 
Q 16.703125 27.09375 16.703125 20.515625 
Q 16.703125 13.921875 20.71875 10.15625 
Q 24.75 6.390625 31.78125 6.390625 
Q 38.8125 6.390625 42.859375 10.171875 
Q 46.921875 13.96875 46.921875 20.515625 
Q 46.921875 27.09375 42.890625 30.859375 
Q 38.875 34.625 31.78125 34.625 
z
M 21.921875 38.8125 
Q 15.578125 40.375 12.03125 44.71875 
Q 8.5 49.078125 8.5 55.328125 
Q 8.5 64.0625 14.71875 69.140625 
Q 20.953125 74.21875 31.78125 74.21875 
Q 42.671875 74.21875 48.875 69.140625 
Q 55.078125 64.0625 55.078125 55.328125 
Q 55.078125 49.078125 51.53125 44.71875 
Q 48 40.375 41.703125 38.8125 
Q 48.828125 37.15625 52.796875 32.3125 
Q 56.78125 27.484375 56.78125 20.515625 
Q 56.78125 9.90625 50.3125 4.234375 
Q 43.84375 -1.421875 31.78125 -1.421875 
Q 19.734375 -1.421875 13.25 4.234375 
Q 6.78125 9.90625 6.78125 20.515625 
Q 6.78125 27.484375 10.78125 32.3125 
Q 14.796875 37.15625 21.921875 38.8125 
z
M 18.3125 54.390625 
Q 18.3125 48.734375 21.84375 45.5625 
Q 25.390625 42.390625 31.78125 42.390625 
Q 38.140625 42.390625 41.71875 45.5625 
Q 45.3125 48.734375 45.3125 54.390625 
Q 45.3125 60.0625 41.71875 63.234375 
Q 38.140625 66.40625 31.78125 66.40625 
Q 25.390625 66.40625 21.84375 63.234375 
Q 18.3125 60.0625 18.3125 54.390625 
z
" id="DejaVuSans-56"/>
      </defs>
      <g transform="translate(447.988438 463.158437)scale(0.1 -0.1)">
       <use xlink:href="#DejaVuSans-48"/>
       <use x="63.623047" xlink:href="#DejaVuSans-46"/>
       <use x="95.410156" xlink:href="#DejaVuSans-56"/>
      </g>
     </g>
    </g>
    <g id="xtick_10">
     <g id="line2d_19">
      <path clip-path="url(#p430de52436)" d="M 503.37 448.56 
L 503.37 60.48 
" style="fill:none;stroke:#b0b0b0;stroke-linecap:square;stroke-width:0.8;"/>
     </g>
     <g id="line2d_20">
      <g>
       <use style="stroke:#000000;stroke-width:0.8;" x="503.37" xlink:href="#m152d291d06" y="448.56"/>
      </g>
     </g>
     <g id="text_10">
      <!-- 0.9 -->
      <defs>
       <path d="M 10.984375 1.515625 
L 10.984375 10.5 
Q 14.703125 8.734375 18.5 7.8125 
Q 22.3125 6.890625 25.984375 6.890625 
Q 35.75 6.890625 40.890625 13.453125 
Q 46.046875 20.015625 46.78125 33.40625 
Q 43.953125 29.203125 39.59375 26.953125 
Q 35.25 24.703125 29.984375 24.703125 
Q 19.046875 24.703125 12.671875 31.3125 
Q 6.296875 37.9375 6.296875 49.421875 
Q 6.296875 60.640625 12.9375 67.421875 
Q 19.578125 74.21875 30.609375 74.21875 
Q 43.265625 74.21875 49.921875 64.515625 
Q 56.59375 54.828125 56.59375 36.375 
Q 56.59375 19.140625 48.40625 8.859375 
Q 40.234375 -1.421875 26.421875 -1.421875 
Q 22.703125 -1.421875 18.890625 -0.6875 
Q 15.09375 0.046875 10.984375 1.515625 
z
M 30.609375 32.421875 
Q 37.25 32.421875 41.125 36.953125 
Q 45.015625 41.5 45.015625 49.421875 
Q 45.015625 57.28125 41.125 61.84375 
Q 37.25 66.40625 30.609375 66.40625 
Q 23.96875 66.40625 20.09375 61.84375 
Q 16.21875 57.28125 16.21875 49.421875 
Q 16.21875 41.5 20.09375 36.953125 
Q 23.96875 32.421875 30.609375 32.421875 
z
" id="DejaVuSans-57"/>
      </defs>
      <g transform="translate(495.418438 463.158437)scale(0.1 -0.1)">
       <use xlink:href="#DejaVuSans-48"/>
       <use x="63.623047" xlink:href="#DejaVuSans-46"/>
       <use x="95.410156" xlink:href="#DejaVuSans-57"/>
      </g>
     </g>
    </g>
    <g id="xtick_11">
     <g id="line2d_21">
      <path clip-path="url(#p430de52436)" d="M 550.8 448.56 
L 550.8 60.48 
" style="fill:none;stroke:#b0b0b0;stroke-linecap:square;stroke-width:0.8;"/>
     </g>
     <g id="line2d_22">
      <g>
       <use style="stroke:#000000;stroke-width:0.8;" x="550.8" xlink:href="#m152d291d06" y="448.56"/>
      </g>
     </g>
     <g id="text_11">
      <!-- 1.0 -->
      <g transform="translate(542.848438 463.158437)scale(0.1 -0.1)">
       <use xlink:href="#DejaVuSans-49"/>
       <use x="63.623047" xlink:href="#DejaVuSans-46"/>
       <use x="95.410156" xlink:href="#DejaVuSans-48"/>
      </g>
     </g>
    </g>
    <g id="text_12">
     <!-- 1-precision -->
     <defs>
      <path d="M 4.890625 31.390625 
L 31.203125 31.390625 
L 31.203125 23.390625 
L 4.890625 23.390625 
z
" id="DejaVuSans-45"/>
      <path d="M 18.109375 8.203125 
L 18.109375 -20.796875 
L 9.078125 -20.796875 
L 9.078125 54.6875 
L 18.109375 54.6875 
L 18.109375 46.390625 
Q 20.953125 51.265625 25.265625 53.625 
Q 29.59375 56 35.59375 56 
Q 45.5625 56 51.78125 48.09375 
Q 58.015625 40.1875 58.015625 27.296875 
Q 58.015625 14.40625 51.78125 6.484375 
Q 45.5625 -1.421875 35.59375 -1.421875 
Q 29.59375 -1.421875 25.265625 0.953125 
Q 20.953125 3.328125 18.109375 8.203125 
z
M 48.6875 27.296875 
Q 48.6875 37.203125 44.609375 42.84375 
Q 40.53125 48.484375 33.40625 48.484375 
Q 26.265625 48.484375 22.1875 42.84375 
Q 18.109375 37.203125 18.109375 27.296875 
Q 18.109375 17.390625 22.1875 11.75 
Q 26.265625 6.109375 33.40625 6.109375 
Q 40.53125 6.109375 44.609375 11.75 
Q 48.6875 17.390625 48.6875 27.296875 
z
" id="DejaVuSans-112"/>
      <path d="M 41.109375 46.296875 
Q 39.59375 47.171875 37.8125 47.578125 
Q 36.03125 48 33.890625 48 
Q 26.265625 48 22.1875 43.046875 
Q 18.109375 38.09375 18.109375 28.8125 
L 18.109375 0 
L 9.078125 0 
L 9.078125 54.6875 
L 18.109375 54.6875 
L 18.109375 46.1875 
Q 20.953125 51.171875 25.484375 53.578125 
Q 30.03125 56 36.53125 56 
Q 37.453125 56 38.578125 55.875 
Q 39.703125 55.765625 41.0625 55.515625 
z
" id="DejaVuSans-114"/>
      <path d="M 56.203125 29.59375 
L 56.203125 25.203125 
L 14.890625 25.203125 
Q 15.484375 15.921875 20.484375 11.0625 
Q 25.484375 6.203125 34.421875 6.203125 
Q 39.59375 6.203125 44.453125 7.46875 
Q 49.3125 8.734375 54.109375 11.28125 
L 54.109375 2.78125 
Q 49.265625 0.734375 44.1875 -0.34375 
Q 39.109375 -1.421875 33.890625 -1.421875 
Q 20.796875 -1.421875 13.15625 6.1875 
Q 5.515625 13.8125 5.515625 26.8125 
Q 5.515625 40.234375 12.765625 48.109375 
Q 20.015625 56 32.328125 56 
Q 43.359375 56 49.78125 48.890625 
Q 56.203125 41.796875 56.203125 29.59375 
z
M 47.21875 32.234375 
Q 47.125 39.59375 43.09375 43.984375 
Q 39.0625 48.390625 32.421875 48.390625 
Q 24.90625 48.390625 20.390625 44.140625 
Q 15.875 39.890625 15.1875 32.171875 
z
" id="DejaVuSans-101"/>
      <path d="M 48.78125 52.59375 
L 48.78125 44.1875 
Q 44.96875 46.296875 41.140625 47.34375 
Q 37.3125 48.390625 33.40625 48.390625 
Q 24.65625 48.390625 19.8125 42.84375 
Q 14.984375 37.3125 14.984375 27.296875 
Q 14.984375 17.28125 19.8125 11.734375 
Q 24.65625 6.203125 33.40625 6.203125 
Q 37.3125 6.203125 41.140625 7.25 
Q 44.96875 8.296875 48.78125 10.40625 
L 48.78125 2.09375 
Q 45.015625 0.34375 40.984375 -0.53125 
Q 36.96875 -1.421875 32.421875 -1.421875 
Q 20.0625 -1.421875 12.78125 6.34375 
Q 5.515625 14.109375 5.515625 27.296875 
Q 5.515625 40.671875 12.859375 48.328125 
Q 20.21875 56 33.015625 56 
Q 37.15625 56 41.109375 55.140625 
Q 45.0625 54.296875 48.78125 52.59375 
z
" id="DejaVuSans-99"/>
      <path d="M 9.421875 54.6875 
L 18.40625 54.6875 
L 18.40625 0 
L 9.421875 0 
z
M 9.421875 75.984375 
L 18.40625 75.984375 
L 18.40625 64.59375 
L 9.421875 64.59375 
z
" id="DejaVuSans-105"/>
      <path d="M 44.28125 53.078125 
L 44.28125 44.578125 
Q 40.484375 46.53125 36.375 47.5 
Q 32.28125 48.484375 27.875 48.484375 
Q 21.1875 48.484375 17.84375 46.4375 
Q 14.5 44.390625 14.5 40.28125 
Q 14.5 37.15625 16.890625 35.375 
Q 19.28125 33.59375 26.515625 31.984375 
L 29.59375 31.296875 
Q 39.15625 29.25 43.1875 25.515625 
Q 47.21875 21.78125 47.21875 15.09375 
Q 47.21875 7.46875 41.1875 3.015625 
Q 35.15625 -1.421875 24.609375 -1.421875 
Q 20.21875 -1.421875 15.453125 -0.5625 
Q 10.6875 0.296875 5.421875 2 
L 5.421875 11.28125 
Q 10.40625 8.6875 15.234375 7.390625 
Q 20.0625 6.109375 24.8125 6.109375 
Q 31.15625 6.109375 34.5625 8.28125 
Q 37.984375 10.453125 37.984375 14.40625 
Q 37.984375 18.0625 35.515625 20.015625 
Q 33.0625 21.96875 24.703125 23.78125 
L 21.578125 24.515625 
Q 13.234375 26.265625 9.515625 29.90625 
Q 5.8125 33.546875 5.8125 39.890625 
Q 5.8125 47.609375 11.28125 51.796875 
Q 16.75 56 26.8125 56 
Q 31.78125 56 36.171875 55.265625 
Q 40.578125 54.546875 44.28125 53.078125 
z
" id="DejaVuSans-115"/>
      <path d="M 30.609375 48.390625 
Q 23.390625 48.390625 19.1875 42.75 
Q 14.984375 37.109375 14.984375 27.296875 
Q 14.984375 17.484375 19.15625 11.84375 
Q 23.34375 6.203125 30.609375 6.203125 
Q 37.796875 6.203125 41.984375 11.859375 
Q 46.1875 17.53125 46.1875 27.296875 
Q 46.1875 37.015625 41.984375 42.703125 
Q 37.796875 48.390625 30.609375 48.390625 
z
M 30.609375 56 
Q 42.328125 56 49.015625 48.375 
Q 55.71875 40.765625 55.71875 27.296875 
Q 55.71875 13.875 49.015625 6.21875 
Q 42.328125 -1.421875 30.609375 -1.421875 
Q 18.84375 -1.421875 12.171875 6.21875 
Q 5.515625 13.875 5.515625 27.296875 
Q 5.515625 40.765625 12.171875 48.375 
Q 18.84375 56 30.609375 56 
z
" id="DejaVuSans-111"/>
      <path d="M 54.890625 33.015625 
L 54.890625 0 
L 45.90625 0 
L 45.90625 32.71875 
Q 45.90625 40.484375 42.875 44.328125 
Q 39.84375 48.1875 33.796875 48.1875 
Q 26.515625 48.1875 22.3125 43.546875 
Q 18.109375 38.921875 18.109375 30.90625 
L 18.109375 0 
L 9.078125 0 
L 9.078125 54.6875 
L 18.109375 54.6875 
L 18.109375 46.1875 
Q 21.34375 51.125 25.703125 53.5625 
Q 30.078125 56 35.796875 56 
Q 45.21875 56 50.046875 50.171875 
Q 54.890625 44.34375 54.890625 33.015625 
z
" id="DejaVuSans-110"/>
     </defs>
     <g transform="translate(286.110938 476.836563)scale(0.1 -0.1)">
      <use xlink:href="#DejaVuSans-49"/>
      <use x="63.623047" xlink:href="#DejaVuSans-45"/>
      <use x="99.707031" xlink:href="#DejaVuSans-112"/>
      <use x="163.183594" xlink:href="#DejaVuSans-114"/>
      <use x="202.046875" xlink:href="#DejaVuSans-101"/>
      <use x="263.570312" xlink:href="#DejaVuSans-99"/>
      <use x="318.550781" xlink:href="#DejaVuSans-105"/>
      <use x="346.333984" xlink:href="#DejaVuSans-115"/>
      <use x="398.433594" xlink:href="#DejaVuSans-105"/>
      <use x="426.216797" xlink:href="#DejaVuSans-111"/>
      <use x="487.398438" xlink:href="#DejaVuSans-110"/>
     </g>
    </g>
   </g>
   <g id="matplotlib.axis_2">
    <g id="ytick_1">
     <g id="line2d_23">
      <path clip-path="url(#p430de52436)" d="M 76.5 448.56 
L 550.8 448.56 
" style="fill:none;stroke:#b0b0b0;stroke-linecap:square;stroke-width:0.8;"/>
     </g>
     <g id="line2d_24">
      <defs>
       <path d="M 0 0 
L -3.5 0 
" id="m7ee0d159e2" style="stroke:#000000;stroke-width:0.8;"/>
      </defs>
      <g>
       <use style="stroke:#000000;stroke-width:0.8;" x="76.5" xlink:href="#m7ee0d159e2" y="448.56"/>
      </g>
     </g>
     <g id="text_13">
      <!-- 0.0 -->
      <g transform="translate(53.596875 452.359219)scale(0.1 -0.1)">
       <use xlink:href="#DejaVuSans-48"/>
       <use x="63.623047" xlink:href="#DejaVuSans-46"/>
       <use x="95.410156" xlink:href="#DejaVuSans-48"/>
      </g>
     </g>
    </g>
    <g id="ytick_2">
     <g id="line2d_25">
      <path clip-path="url(#p430de52436)" d="M 76.5 409.752 
L 550.8 409.752 
" style="fill:none;stroke:#b0b0b0;stroke-linecap:square;stroke-width:0.8;"/>
     </g>
     <g id="line2d_26">
      <g>
       <use style="stroke:#000000;stroke-width:0.8;" x="76.5" xlink:href="#m7ee0d159e2" y="409.752"/>
      </g>
     </g>
     <g id="text_14">
      <!-- 0.1 -->
      <g transform="translate(53.596875 413.551219)scale(0.1 -0.1)">
       <use xlink:href="#DejaVuSans-48"/>
       <use x="63.623047" xlink:href="#DejaVuSans-46"/>
       <use x="95.410156" xlink:href="#DejaVuSans-49"/>
      </g>
     </g>
    </g>
    <g id="ytick_3">
     <g id="line2d_27">
      <path clip-path="url(#p430de52436)" d="M 76.5 370.944 
L 550.8 370.944 
" style="fill:none;stroke:#b0b0b0;stroke-linecap:square;stroke-width:0.8;"/>
     </g>
     <g id="line2d_28">
      <g>
       <use style="stroke:#000000;stroke-width:0.8;" x="76.5" xlink:href="#m7ee0d159e2" y="370.944"/>
      </g>
     </g>
     <g id="text_15">
      <!-- 0.2 -->
      <g transform="translate(53.596875 374.743219)scale(0.1 -0.1)">
       <use xlink:href="#DejaVuSans-48"/>
       <use x="63.623047" xlink:href="#DejaVuSans-46"/>
       <use x="95.410156" xlink:href="#DejaVuSans-50"/>
      </g>
     </g>
    </g>
    <g id="ytick_4">
     <g id="line2d_29">
      <path clip-path="url(#p430de52436)" d="M 76.5 332.136 
L 550.8 332.136 
" style="fill:none;stroke:#b0b0b0;stroke-linecap:square;stroke-width:0.8;"/>
     </g>
     <g id="line2d_30">
      <g>
       <use style="stroke:#000000;stroke-width:0.8;" x="76.5" xlink:href="#m7ee0d159e2" y="332.136"/>
      </g>
     </g>
     <g id="text_16">
      <!-- 0.3 -->
      <g transform="translate(53.596875 335.935219)scale(0.1 -0.1)">
       <use xlink:href="#DejaVuSans-48"/>
       <use x="63.623047" xlink:href="#DejaVuSans-46"/>
       <use x="95.410156" xlink:href="#DejaVuSans-51"/>
      </g>
     </g>
    </g>
    <g id="ytick_5">
     <g id="line2d_31">
      <path clip-path="url(#p430de52436)" d="M 76.5 293.328 
L 550.8 293.328 
" style="fill:none;stroke:#b0b0b0;stroke-linecap:square;stroke-width:0.8;"/>
     </g>
     <g id="line2d_32">
      <g>
       <use style="stroke:#000000;stroke-width:0.8;" x="76.5" xlink:href="#m7ee0d159e2" y="293.328"/>
      </g>
     </g>
     <g id="text_17">
      <!-- 0.4 -->
      <g transform="translate(53.596875 297.127219)scale(0.1 -0.1)">
       <use xlink:href="#DejaVuSans-48"/>
       <use x="63.623047" xlink:href="#DejaVuSans-46"/>
       <use x="95.410156" xlink:href="#DejaVuSans-52"/>
      </g>
     </g>
    </g>
    <g id="ytick_6">
     <g id="line2d_33">
      <path clip-path="url(#p430de52436)" d="M 76.5 254.52 
L 550.8 254.52 
" style="fill:none;stroke:#b0b0b0;stroke-linecap:square;stroke-width:0.8;"/>
     </g>
     <g id="line2d_34">
      <g>
       <use style="stroke:#000000;stroke-width:0.8;" x="76.5" xlink:href="#m7ee0d159e2" y="254.52"/>
      </g>
     </g>
     <g id="text_18">
      <!-- 0.5 -->
      <g transform="translate(53.596875 258.319219)scale(0.1 -0.1)">
       <use xlink:href="#DejaVuSans-48"/>
       <use x="63.623047" xlink:href="#DejaVuSans-46"/>
       <use x="95.410156" xlink:href="#DejaVuSans-53"/>
      </g>
     </g>
    </g>
    <g id="ytick_7">
     <g id="line2d_35">
      <path clip-path="url(#p430de52436)" d="M 76.5 215.712 
L 550.8 215.712 
" style="fill:none;stroke:#b0b0b0;stroke-linecap:square;stroke-width:0.8;"/>
     </g>
     <g id="line2d_36">
      <g>
       <use style="stroke:#000000;stroke-width:0.8;" x="76.5" xlink:href="#m7ee0d159e2" y="215.712"/>
      </g>
     </g>
     <g id="text_19">
      <!-- 0.6 -->
      <g transform="translate(53.596875 219.511219)scale(0.1 -0.1)">
       <use xlink:href="#DejaVuSans-48"/>
       <use x="63.623047" xlink:href="#DejaVuSans-46"/>
       <use x="95.410156" xlink:href="#DejaVuSans-54"/>
      </g>
     </g>
    </g>
    <g id="ytick_8">
     <g id="line2d_37">
      <path clip-path="url(#p430de52436)" d="M 76.5 176.904 
L 550.8 176.904 
" style="fill:none;stroke:#b0b0b0;stroke-linecap:square;stroke-width:0.8;"/>
     </g>
     <g id="line2d_38">
      <g>
       <use style="stroke:#000000;stroke-width:0.8;" x="76.5" xlink:href="#m7ee0d159e2" y="176.904"/>
      </g>
     </g>
     <g id="text_20">
      <!-- 0.7 -->
      <g transform="translate(53.596875 180.703219)scale(0.1 -0.1)">
       <use xlink:href="#DejaVuSans-48"/>
       <use x="63.623047" xlink:href="#DejaVuSans-46"/>
       <use x="95.410156" xlink:href="#DejaVuSans-55"/>
      </g>
     </g>
    </g>
    <g id="ytick_9">
     <g id="line2d_39">
      <path clip-path="url(#p430de52436)" d="M 76.5 138.096 
L 550.8 138.096 
" style="fill:none;stroke:#b0b0b0;stroke-linecap:square;stroke-width:0.8;"/>
     </g>
     <g id="line2d_40">
      <g>
       <use style="stroke:#000000;stroke-width:0.8;" x="76.5" xlink:href="#m7ee0d159e2" y="138.096"/>
      </g>
     </g>
     <g id="text_21">
      <!-- 0.8 -->
      <g transform="translate(53.596875 141.895219)scale(0.1 -0.1)">
       <use xlink:href="#DejaVuSans-48"/>
       <use x="63.623047" xlink:href="#DejaVuSans-46"/>
       <use x="95.410156" xlink:href="#DejaVuSans-56"/>
      </g>
     </g>
    </g>
    <g id="ytick_10">
     <g id="line2d_41">
      <path clip-path="url(#p430de52436)" d="M 76.5 99.288 
L 550.8 99.288 
" style="fill:none;stroke:#b0b0b0;stroke-linecap:square;stroke-width:0.8;"/>
     </g>
     <g id="line2d_42">
      <g>
       <use style="stroke:#000000;stroke-width:0.8;" x="76.5" xlink:href="#m7ee0d159e2" y="99.288"/>
      </g>
     </g>
     <g id="text_22">
      <!-- 0.9 -->
      <g transform="translate(53.596875 103.087219)scale(0.1 -0.1)">
       <use xlink:href="#DejaVuSans-48"/>
       <use x="63.623047" xlink:href="#DejaVuSans-46"/>
       <use x="95.410156" xlink:href="#DejaVuSans-57"/>
      </g>
     </g>
    </g>
    <g id="ytick_11">
     <g id="line2d_43">
      <path clip-path="url(#p430de52436)" d="M 76.5 60.48 
L 550.8 60.48 
" style="fill:none;stroke:#b0b0b0;stroke-linecap:square;stroke-width:0.8;"/>
     </g>
     <g id="line2d_44">
      <g>
       <use style="stroke:#000000;stroke-width:0.8;" x="76.5" xlink:href="#m7ee0d159e2" y="60.48"/>
      </g>
     </g>
     <g id="text_23">
      <!-- 1.0 -->
      <g transform="translate(53.596875 64.279219)scale(0.1 -0.1)">
       <use xlink:href="#DejaVuSans-49"/>
       <use x="63.623047" xlink:href="#DejaVuSans-46"/>
       <use x="95.410156" xlink:href="#DejaVuSans-48"/>
      </g>
     </g>
    </g>
    <g id="text_24">
     <!-- #correct/1258 -->
     <defs>
      <path d="M 51.125 44 
L 36.921875 44 
L 32.8125 27.6875 
L 47.125 27.6875 
z
M 43.796875 71.78125 
L 38.71875 51.515625 
L 52.984375 51.515625 
L 58.109375 71.78125 
L 65.921875 71.78125 
L 60.890625 51.515625 
L 76.125 51.515625 
L 76.125 44 
L 58.984375 44 
L 54.984375 27.6875 
L 70.515625 27.6875 
L 70.515625 20.21875 
L 53.078125 20.21875 
L 48 0 
L 40.1875 0 
L 45.21875 20.21875 
L 30.90625 20.21875 
L 25.875 0 
L 18.015625 0 
L 23.09375 20.21875 
L 7.71875 20.21875 
L 7.71875 27.6875 
L 24.90625 27.6875 
L 29 44 
L 13.28125 44 
L 13.28125 51.515625 
L 30.90625 51.515625 
L 35.890625 71.78125 
z
" id="DejaVuSans-35"/>
      <path d="M 18.3125 70.21875 
L 18.3125 54.6875 
L 36.8125 54.6875 
L 36.8125 47.703125 
L 18.3125 47.703125 
L 18.3125 18.015625 
Q 18.3125 11.328125 20.140625 9.421875 
Q 21.96875 7.515625 27.59375 7.515625 
L 36.8125 7.515625 
L 36.8125 0 
L 27.59375 0 
Q 17.1875 0 13.234375 3.875 
Q 9.28125 7.765625 9.28125 18.015625 
L 9.28125 47.703125 
L 2.6875 47.703125 
L 2.6875 54.6875 
L 9.28125 54.6875 
L 9.28125 70.21875 
z
" id="DejaVuSans-116"/>
      <path d="M 25.390625 72.90625 
L 33.6875 72.90625 
L 8.296875 -9.28125 
L 0 -9.28125 
z
" id="DejaVuSans-47"/>
     </defs>
     <g transform="translate(47.517187 290.624688)rotate(-90)scale(0.1 -0.1)">
      <use xlink:href="#DejaVuSans-35"/>
      <use x="83.789062" xlink:href="#DejaVuSans-99"/>
      <use x="138.769531" xlink:href="#DejaVuSans-111"/>
      <use x="199.951172" xlink:href="#DejaVuSans-114"/>
      <use x="239.314453" xlink:href="#DejaVuSans-114"/>
      <use x="278.177734" xlink:href="#DejaVuSans-101"/>
      <use x="339.701172" xlink:href="#DejaVuSans-99"/>
      <use x="394.681641" xlink:href="#DejaVuSans-116"/>
      <use x="433.890625" xlink:href="#DejaVuSans-47"/>
      <use x="467.582031" xlink:href="#DejaVuSans-49"/>
      <use x="531.205078" xlink:href="#DejaVuSans-50"/>
      <use x="594.828125" xlink:href="#DejaVuSans-53"/>
      <use x="658.451172" xlink:href="#DejaVuSans-56"/>
     </g>
    </g>
   </g>
   <g id="line2d_45">
    <path clip-path="url(#p430de52436)" d="M 76.5 448.25151 
L 76.5 267.476566 
L 77.306633 267.476566 
L 77.243417 252.052083 
L 77.984507 252.052083 
L 77.975272 250.818124 
L 78.709472 250.818124 
L 78.669055 247.116248 
L 79.387671 247.116248 
L 79.07422 222.437075 
L 79.713415 222.437075 
L 79.696092 221.203116 
L 80.330148 221.203116 
L 80.205469 213.490874 
L 80.817425 213.490874 
L 80.795084 212.256916 
L 81.402326 212.256916 
L 81.333631 208.863529 
L 81.930916 208.863529 
L 81.835875 204.544674 
L 82.421348 204.544674 
L 82.221351 195.906963 
L 82.785904 195.906963 
L 82.630787 189.42868 
L 83.180282 189.42868 
L 82.960386 180.48248 
L 83.490816 180.48248 
L 83.459255 179.248521 
L 83.986133 179.248521 
L 83.845354 174.004197 
L 84.876159 174.004197 
L 84.802845 171.53628 
L 85.312131 171.53628 
L 84.864212 156.420286 
L 85.347047 156.420286 
L 85.337888 156.111797 
L 85.819235 156.111797 
L 85.723849 153.0269 
L 86.199387 153.0269 
L 86.12069 150.558983 
L 86.591489 150.558983 
L 86.400895 144.697679 
L 86.862066 144.697679 
L 86.831287 143.77221 
L 87.290208 143.77221 
L 87.17407 140.378824 
L 87.627273 140.378824 
L 87.605561 139.761844 
L 88.057018 139.761844 
L 87.989826 137.910906 
L 88.88501 137.910906 
L 88.813558 136.059968 
L 89.257349 136.059968 
L 89.208517 134.82601 
L 89.649809 134.82601 
L 89.599714 133.592051 
L 90.038535 133.592051 
L 90.025665 133.283561 
L 90.9 133.283561 
L 90.872727 132.666582 
L 91.307852 132.666582 
L 91.265943 131.741113 
L 92.131356 131.741113 
L 92.014486 129.273196 
L 92.442857 129.273196 
L 92.368773 127.730747 
L 92.794429 127.730747 
L 92.629688 124.337361 
L 93.050413 124.337361 
L 93.020073 123.720382 
L 93.439286 123.720382 
L 93.209756 119.093037 
L 93.622744 119.093037 
L 93.607304 118.784547 
L 94.019189 118.784547 
L 94.00342 118.476057 
L 94.414209 118.476057 
L 94.35 117.242099 
L 94.758639 117.242099 
L 94.742308 116.933609 
L 95.149866 116.933609 
L 95.0504 115.082671 
L 95.859184 115.082671 
L 95.824889 114.465692 
L 97.030654 114.465692 
L 96.904478 112.306264 
L 97.302632 112.306264 
L 97.068083 108.295898 
L 97.461265 108.295898 
L 97.425 107.678919 
L 97.816854 107.678919 
L 97.798446 107.370429 
L 98.189301 107.370429 
L 98.114703 106.136471 
L 98.891845 106.136471 
L 98.834332 105.211002 
L 99.220958 105.211002 
L 99.201538 104.902512 
L 99.58719 104.902512 
L 99.547826 104.285533 
L 99.932198 104.285533 
L 99.872472 103.360064 
L 101.018898 103.360064 
L 100.977411 102.743084 
L 101.35765 102.743084 
L 101.336655 102.434595 
L 102.094604 102.434595 
L 102.030025 101.509126 
L 102.783627 101.509126 
L 102.761577 101.200636 
L 103.137133 101.200636 
L 103.114824 100.892146 
L 104.236842 100.892146 
L 104.121464 99.349698 
L 104.492768 99.349698 
L 104.446307 98.732719 
L 104.816418 98.732719 
L 104.769536 98.115739 
L 105.138462 98.115739 
L 105.114793 97.80725 
L 105.482824 97.80725 
L 105.387407 96.573291 
L 106.119392 96.573291 
L 106.095074 96.264801 
L 106.459885 96.264801 
L 106.410811 95.647822 
L 107.137531 95.647822 
L 106.987958 93.796884 
L 107.34878 93.796884 
L 107.298701 93.179905 
L 108.017504 93.179905 
L 107.966505 92.562925 
L 108.324495 92.562925 
L 108.298788 92.254436 
L 109.0125 92.254436 
L 108.907958 91.020477 
L 109.262892 91.020477 
L 109.236597 90.711987 
L 110.6496 90.711987 
L 110.595048 90.095008 
L 111.297129 90.095008 
L 111.24172 89.478029 
L 111.940541 89.478029 
L 111.912391 89.169539 
L 112.260714 89.169539 
L 112.175772 88.24407 
L 112.869249 88.24407 
L 112.811839 87.627091 
L 113.157256 87.627091 
L 113.128369 87.318601 
L 113.472992 87.318601 
L 113.443902 87.010111 
L 113.787736 87.010111 
L 113.758445 86.701622 
L 114.444 86.701622 
L 114.414263 86.393132 
L 115.097183 86.393132 
L 115.067005 86.084642 
L 118.111724 86.084642 
L 118.047209 85.467663 
L 118.382417 85.467663 
L 118.35 85.159173 
L 119.018393 85.159173 
L 118.952778 84.542194 
L 119.618182 84.542194 
L 119.551846 83.925215 
L 119.883321 83.925215 
L 119.816731 83.308235 
L 121.46422 83.308235 
L 121.42987 82.999746 
L 124.038041 82.999746 
L 123.965959 82.382766 
L 124.289318 82.382766 
L 124.21702 81.765787 
L 127.101503 81.765787 
L 127.063514 81.457297 
L 127.381395 81.457297 
L 127.343253 81.148808 
L 127.977171 81.148808 
L 127.938669 80.840318 
L 128.570276 80.840318 
L 128.531418 80.531828 
L 129.16073 80.531828 
L 129.121519 80.223339 
L 129.74855 80.223339 
L 129.70899 79.914849 
L 130.645441 79.914849 
L 130.605333 79.606359 
L 133.388079 79.606359 
L 133.304482 78.98938 
L 133.611013 78.98938 
L 133.569112 78.68089 
L 135.094079 78.68089 
L 135.051278 78.372401 
L 135.354745 78.372401 
L 135.183406 77.138442 
L 136.088889 77.138442 
L 136.045646 76.829952 
L 136.34641 76.829952 
L 136.259739 76.212973 
L 141.007516 76.212973 
L 140.915297 75.595994 
L 142.375 75.595994 
L 142.281294 74.979014 
L 142.861577 74.979014 
L 142.767447 74.362035 
L 144.496398 74.362035 
L 144.448412 74.053545 
L 145.592259 74.053545 
L 145.543671 73.745056 
L 146.680435 73.745056 
L 146.631254 73.436566 
L 147.761006 73.436566 
L 147.711243 73.128076 
L 148.273431 73.128076 
L 148.223415 72.819587 
L 148.783716 72.819587 
L 148.733449 72.511097 
L 150.681176 72.511097 
L 150.578645 71.894118 
L 151.131056 71.894118 
L 151.079586 71.585628 
L 154.902049 71.585628 
L 154.848532 71.277138 
L 159.390486 71.277138 
L 159.334592 70.968649 
L 160.65 70.968649 
L 160.593486 70.660159 
L 169.304596 70.660159 
L 169.243701 70.351669 
L 169.743775 70.351669 
L 169.682711 70.04318 
L 171.174364 70.04318 
L 171.112647 69.73469 
L 172.591948 69.73469 
L 172.529591 69.4262 
L 173.019896 69.4262 
L 172.957383 69.117711 
L 174.662669 69.117711 
L 174.59942 68.809221 
L 175.083591 68.809221 
L 174.956877 68.192242 
L 177.833227 68.192242 
L 177.768642 67.883752 
L 179.661002 67.883752 
L 179.595627 67.575262 
L 182.628724 67.575262 
L 182.56206 67.266773 
L 185.544673 67.266773 
L 185.476775 66.958283 
L 190.192071 66.958283 
L 190.122236 66.649793 
L 195.577132 66.649793 
L 195.505139 66.341304 
L 198.48723 66.341304 
L 198.41414 66.032814 
L 212.793103 66.032814 
L 212.714819 65.724324 
L 217.689474 65.724324 
L 217.609615 65.415835 
L 263.863517 65.415835 
L 263.772298 65.107345 
L 270.193194 65.107345 
L 270.101047 64.798855 
L 272.089939 64.798855 
L 272.089939 64.798855 
" style="fill:none;stroke:#1f77b4;stroke-linecap:square;stroke-width:2;"/>
   </g>
   <g id="line2d_46">
    <path clip-path="url(#p430de52436)" d="M 76.5 448.25151 
L 76.5 428.816661 
L 83.796923 428.816661 
L 82.909459 426.040254 
L 82.214458 423.263847 
L 87.792857 423.263847 
L 86.7 420.48744 
L 85.621154 417.094054 
L 84.677586 413.392178 
L 84.405 412.158219 
L 88.259504 412.158219 
L 87.118657 408.147854 
L 86.45035 405.371447 
L 89.675 405.371447 
L 88.981579 402.903529 
L 92 402.903529 
L 90.872727 399.201653 
L 93.643373 399.201653 
L 92.31 394.882798 
L 91.019388 389.946963 
L 90.314563 386.862067 
L 92.53913 386.862067 
L 91.256 381.309253 
L 91.061842 380.383784 
L 93.069432 380.383784 
L 91.738554 374.21399 
L 90.501476 367.427218 
L 89.318919 359.714976 
L 88.700643 355.087631 
L 90.181731 355.087631 
L 89.756832 352.002734 
L 91.184211 352.002734 
L 89.936261 342.748045 
L 89.388587 338.1207 
L 90.639024 338.1207 
L 90.338992 335.652782 
L 92.768865 335.652782 
L 92.598956 334.418824 
L 93.792188 334.418824 
L 93.1005 329.482989 
L 94.241895 329.482989 
L 94.110149 328.55752 
L 95.237778 328.55752 
L 94.742308 325.164134 
L 95.835971 325.164134 
L 95.743675 324.547154 
L 96.827143 324.547154 
L 95.388053 314.675485 
L 95.1814 313.133037 
L 96.176201 313.133037 
L 95.633121 309.122671 
L 96.597458 309.122671 
L 96.554968 308.814181 
L 97.513291 308.814181 
L 97.293946 307.271733 
L 98.23875 307.271733 
L 96.96 298.017043 
L 97.848141 298.017043 
L 97.478654 295.240636 
L 98.348752 295.240636 
L 98.182286 294.006677 
L 99.042776 294.006677 
L 98.377306 289.070843 
L 99.210497 289.070843 
L 98.962295 287.219905 
L 99.783818 287.219905 
L 98.503608 277.348235 
L 99.279417 277.348235 
L 99.201538 276.731256 
L 100.740204 276.731256 
L 100.454545 274.571828 
L 101.211429 274.571828 
L 100.215 266.859587 
L 100.94058 266.859587 
L 100.591429 264.08318 
L 102.725118 264.08318 
L 102.601415 263.157711 
L 103.305024 263.157711 
L 103.179375 262.232242 
L 103.877691 262.232242 
L 103.623802 260.381304 
L 104.313889 260.381304 
L 103.808182 256.679428 
L 104.484418 256.679428 
L 104.4 256.062448 
L 105.742556 256.062448 
L 105.567713 254.82849 
L 106.894784 254.82849 
L 106.66997 253.286041 
L 107.325997 253.286041 
L 107.144934 252.052083 
L 107.795455 252.052083 
L 107.477504 249.892655 
L 108.12 249.892655 
L 107.668286 246.807758 
L 108.300428 246.807758 
L 108.075212 245.26531 
L 108.701414 245.26531 
L 108.163978 241.563434 
L 108.77875 241.563434 
L 108.689335 240.946455 
L 109.30083 240.946455 
L 109.165289 240.020986 
L 109.772765 240.020986 
L 109.545492 238.478537 
L 110.147476 238.478537 
L 109.964858 237.244579 
L 110.562195 237.244579 
L 110.424291 236.31911 
L 111.60969 236.31911 
L 110.96037 232.000254 
L 111.540633 232.000254 
L 111.402497 231.074785 
L 111.979134 231.074785 
L 111.886257 230.457806 
L 112.46 230.457806 
L 112.413055 230.149316 
L 113.554688 230.149316 
L 113.22 227.989889 
L 113.783892 227.989889 
L 113.688046 227.372909 
L 114.249166 227.372909 
L 113.912977 225.213482 
L 114.468107 225.213482 
L 114.180832 223.362544 
L 114.73073 223.362544 
L 114.11487 219.352178 
L 114.655322 219.352178 
L 114.51418 218.426709 
L 115.051478 218.426709 
L 114.956757 217.80973 
L 115.491534 217.80973 
L 115.112515 215.341812 
L 115.641262 215.341812 
L 115.546489 214.724833 
L 116.597826 214.724833 
L 116.453069 213.799364 
L 117.495918 213.799364 
L 117.446763 213.490874 
L 117.965749 213.490874 
L 117.043208 207.629571 
L 117.550526 207.629571 
L 117.31186 206.087122 
L 117.815331 206.087122 
L 117.719583 205.470143 
L 118.720925 205.470143 
L 118.478276 203.927695 
L 118.974627 203.927695 
L 118.828833 203.002226 
L 119.322514 203.002226 
L 118.886538 200.225819 
L 119.374576 200.225819 
L 118.990482 197.757901 
L 119.47349 197.757901 
L 119.234483 196.215453 
L 120.192453 196.215453 
L 120.095681 195.598474 
L 120.572124 195.598474 
L 120.523425 195.289984 
L 121.472216 195.289984 
L 121.12779 193.130556 
L 122.065939 193.130556 
L 122.016249 192.822067 
L 122.483333 192.822067 
L 122.33355 191.896598 
L 122.798265 191.896598 
L 122.252412 188.503211 
L 122.711242 188.503211 
L 122.6125 187.886232 
L 123.069477 187.886232 
L 122.970288 187.269253 
L 123.425426 187.269253 
L 123.375558 186.960763 
L 123.829299 186.960763 
L 123.48019 184.801335 
L 123.93 184.801335 
L 123.880126 184.492846 
L 124.328571 184.492846 
L 124.278384 184.184356 
L 124.725472 184.184356 
L 124.674974 183.875866 
L 125.120711 183.875866 
L 125.019207 183.258887 
L 125.463191 183.258887 
L 125.158756 181.407949 
L 125.599379 181.407949 
L 125.447368 180.48248 
L 126.323481 180.48248 
L 125.815596 177.397583 
L 126.680264 177.397583 
L 126.225 174.621176 
L 126.652568 174.621176 
L 126.551759 174.004197 
L 126.977711 174.004197 
L 126.826126 173.078728 
L 127.2501 173.078728 
L 127.199401 172.770238 
L 127.622156 172.770238 
L 127.520319 172.153259 
L 127.941493 172.153259 
L 127.890358 171.844769 
L 128.310328 171.844769 
L 128.258929 171.53628 
L 128.677701 171.53628 
L 128.574481 170.9193 
L 128.9917 170.9193 
L 128.631109 168.759873 
L 129.45808 168.759873 
L 129.30293 167.834404 
L 129.714146 167.834404 
L 129.610516 167.217424 
L 130.429155 167.217424 
L 130.324539 166.600445 
L 131.544487 166.600445 
L 131.438224 165.983466 
L 131.842623 165.983466 
L 131.682981 165.057997 
L 132.085591 165.057997 
L 131.925862 164.132528 
L 132.326699 164.132528 
L 132.166889 163.207059 
L 132.565968 163.207059 
L 132.247109 161.356121 
L 132.643466 161.356121 
L 132.273754 159.196693 
L 132.667105 159.196693 
L 132.561726 158.579714 
L 133.344944 158.579714 
L 132.713333 154.877838 
L 133.100093 154.877838 
L 132.94345 153.952369 
L 133.328571 153.952369 
L 133.119835 152.71841 
L 133.503028 152.71841 
L 133.450779 152.409921 
L 133.832967 152.409921 
L 133.67589 151.484452 
L 134.056478 151.484452 
L 133.899363 150.558983 
L 134.278364 150.558983 
L 133.964919 148.708045 
L 134.341463 148.708045 
L 134.02965 146.857107 
L 134.77722 146.857107 
L 134.725 146.548617 
L 135.46932 146.548617 
L 135.416622 146.240127 
L 135.7875 146.240127 
L 135.629118 145.314658 
L 135.998488 145.314658 
L 135.9456 145.006169 
L 137.048936 145.006169 
L 136.94177 144.389189 
L 137.307692 144.389189 
L 137.040053 142.846741 
L 137.403958 142.846741 
L 137.137303 141.304293 
L 137.86049 141.304293 
L 137.753403 140.687313 
L 138.113514 140.687313 
L 138.059843 140.378824 
L 138.41906 140.378824 
L 138.365217 140.070334 
L 138.723545 140.070334 
L 138.669531 139.761844 
L 139.026973 139.761844 
L 138.918701 139.144865 
L 139.275 139.144865 
L 139.220743 138.836375 
L 139.576166 138.836375 
L 139.521743 138.527886 
L 140.230233 138.527886 
L 139.956947 136.985437 
L 140.308997 136.985437 
L 139.766865 133.900541 
L 140.811864 133.900541 
L 140.648774 132.975072 
L 140.995186 132.975072 
L 140.832182 132.049603 
L 141.521783 132.049603 
L 141.249497 130.507154 
L 141.592218 130.507154 
L 141.483459 129.890175 
L 142.166222 129.890175 
L 142.1115 129.581685 
L 142.45179 129.581685 
L 142.069619 127.422258 
L 142.407692 127.422258 
L 142.298844 126.805278 
L 142.972383 126.805278 
L 142.862963 126.188299 
L 143.198438 126.188299 
L 143.143632 125.879809 
L 143.478325 125.879809 
L 143.095592 123.720382 
L 143.760147 123.720382 
L 143.705375 123.411892 
L 144.367317 123.411892 
L 144.092551 121.869444 
L 144.421602 121.869444 
L 144.147945 120.326995 
L 144.475362 120.326995 
L 144.366077 119.710016 
L 144.69253 119.710016 
L 144.637801 119.401526 
L 145.288702 119.401526 
L 145.17864 118.784547 
L 145.502878 118.784547 
L 145.447764 118.476057 
L 145.771269 118.476057 
L 145.716029 118.167568 
L 146.361067 118.167568 
L 146.305489 117.859078 
L 146.948054 117.859078 
L 146.83632 117.242099 
L 147.156418 117.242099 
L 147.04462 116.625119 
L 147.363794 116.625119 
L 147.251934 116.00814 
L 147.887943 116.00814 
L 147.831732 115.69965 
L 148.781383 115.69965 
L 148.329977 113.231733 
L 148.643916 113.231733 
L 148.475486 112.306264 
L 148.788336 112.306264 
L 148.620093 111.380795 
L 149.243145 111.380795 
L 149.130626 110.763816 
L 150.060417 110.763816 
L 149.890531 109.838347 
L 150.198923 109.838347 
L 150.142275 109.529857 
L 150.45 109.529857 
L 150.393246 109.221367 
L 151.006897 109.221367 
L 150.949847 108.912878 
L 152.474828 108.912878 
L 152.416921 108.604388 
L 153.023288 108.604388 
L 152.965095 108.295898 
L 153.569248 108.295898 
L 153.510774 107.987409 
L 154.712859 107.987409 
L 154.476923 106.75345 
L 154.775584 106.75345 
L 154.716642 106.44496 
L 155.014673 106.44496 
L 154.896694 105.827981 
L 155.787031 105.827981 
L 155.72764 105.519491 
L 156.023353 105.519491 
L 155.963874 105.211002 
L 156.258969 105.211002 
L 156.139925 104.594022 
L 156.434228 104.594022 
L 156.374665 104.285533 
L 156.961607 104.285533 
L 156.901784 103.977043 
L 157.486637 103.977043 
L 157.426558 103.668553 
L 158.009333 103.668553 
L 157.888757 103.051574 
L 158.179157 103.051574 
L 158.118833 102.743084 
L 160.138501 102.743084 
L 160.077093 102.434595 
L 161.790789 102.434595 
L 161.728488 102.126105 
L 162.012482 102.126105 
L 161.887828 101.509126 
L 162.45393 101.509126 
L 162.391418 101.200636 
L 162.955556 101.200636 
L 162.892816 100.892146 
L 163.735482 100.892146 
L 163.546387 99.966677 
L 164.105195 99.966677 
L 163.978963 99.349698 
L 164.813228 99.349698 
L 164.749784 99.041208 
L 166.406652 99.041208 
L 166.278214 98.424229 
L 166.826748 98.424229 
L 166.762366 98.115739 
L 168.939759 98.115739 
L 168.874292 97.80725 
L 169.684028 97.80725 
L 169.61822 97.49876 
L 169.887227 97.49876 
L 169.68993 96.573291 
L 169.958128 96.573291 
L 169.826774 95.956312 
L 170.628261 95.956312 
L 170.562299 95.647822 
L 173.733148 95.647822 
L 173.665625 95.339332 
L 173.927342 95.339332 
L 173.859778 95.030843 
L 174.120998 95.030843 
L 174.053393 94.722353 
L 174.574481 94.722353 
L 174.371429 93.796884 
L 174.631034 93.796884 
L 174.563405 93.488394 
L 174.822521 93.488394 
L 174.754852 93.179905 
L 175.52967 93.179905 
L 175.461702 92.871415 
L 175.719136 92.871415 
L 175.651131 92.562925 
L 175.908082 92.562925 
L 175.840041 92.254436 
L 177.118895 92.254436 
L 177.050307 91.945946 
L 177.304905 91.945946 
L 177.167755 91.328967 
L 177.928717 91.328967 
L 177.859905 91.020477 
L 178.365244 91.020477 
L 178.227402 90.403498 
L 179.232996 90.403498 
L 179.163722 90.095008 
L 179.913997 90.095008 
L 179.844452 89.786518 
L 181.087601 89.786518 
L 181.017549 89.478029 
L 182.005611 89.478029 
L 181.7946 88.55256 
L 182.285952 88.55256 
L 182.215569 88.24407 
L 182.949801 88.24407 
L 182.808621 87.627091 
L 183.539246 87.627091 
L 183.327147 86.701622 
L 184.777697 86.701622 
L 184.706509 86.393132 
L 184.947043 86.393132 
L 184.875837 86.084642 
L 186.073233 86.084642 
L 186.00157 85.776153 
L 186.953425 85.776153 
L 186.881421 85.467663 
L 187.355273 85.467663 
L 187.283149 85.159173 
L 188.931218 85.159173 
L 188.78577 84.542194 
L 189.01978 84.542194 
L 188.8745 83.925215 
L 190.502699 83.925215 
L 190.42948 83.616725 
L 190.89179 83.616725 
L 190.818462 83.308235 
L 191.049071 83.308235 
L 190.975736 82.999746 
L 193.264695 82.999746 
L 193.190464 82.691256 
L 195 82.691256 
L 194.925095 82.382766 
L 196.046314 82.382766 
L 195.971033 82.074277 
L 196.640101 82.074277 
L 196.564636 81.765787 
L 198.115385 81.765787 
L 197.96346 81.148808 
L 199.49944 81.148808 
L 199.422996 80.840318 
L 200.076923 80.840318 
L 199.923792 80.223339 
L 202.08436 80.223339 
L 202.007077 79.914849 
L 205.61821 79.914849 
L 205.539623 79.606359 
L 206.587136 79.606359 
L 206.508247 79.29787 
L 207.341379 79.29787 
L 207.262273 78.98938 
L 207.469849 78.98938 
L 207.390761 78.68089 
L 209.041767 78.68089 
L 208.962162 78.372401 
L 212.014286 78.372401 
L 211.853151 77.755421 
L 212.255701 77.755421 
L 212.175134 77.446932 
L 215.95088 77.446932 
L 215.869091 77.138442 
L 218.016084 77.138442 
L 217.933663 76.829952 
L 219.285209 76.829952 
L 219.202435 76.521463 
L 220.35182 76.521463 
L 220.268764 76.212973 
L 228.457601 76.212973 
L 228.372088 75.904483 
L 233.725069 75.904483 
L 233.638108 75.595994 
L 235.382673 75.595994 
L 235.295327 75.287504 
L 235.987603 75.287504 
L 235.900164 74.979014 
L 236.245071 74.979014 
L 236.157635 74.670525 
L 249.198951 74.670525 
L 249.10839 74.362035 
L 255.912301 74.362035 
L 255.820389 74.053545 
L 262.178346 74.053545 
L 262.085321 73.745056 
L 264.238836 73.745056 
L 264.145527 73.436566 
L 271.50276 73.436566 
L 271.408374 73.128076 
L 278.139112 73.128076 
L 278.139112 73.128076 
" style="fill:none;stroke:#ff7f0e;stroke-linecap:square;stroke-width:2;"/>
   </g>
   <g id="line2d_47">
    <path clip-path="url(#p430de52436)" d="M 76.5 448.25151 
L 76.5 425.731765 
L 82.824 425.731765 
L 82.015116 422.338378 
L 81.290909 418.328013 
L 80.588793 413.083688 
L 79.962044 406.605405 
L 79.392073 398.276184 
L 78.8715 387.170556 
L 78.4125 372.363052 
L 78.296591 367.427218 
L 81.849248 367.427218 
L 81.134853 354.779141 
L 81.060577 353.236693 
L 82.561342 353.236693 
L 81.874504 340.897107 
L 83.199153 340.897107 
L 82.807181 334.110334 
L 84.048541 334.110334 
L 83.650251 327.632051 
L 84.821053 327.632051 
L 84.239161 318.377361 
L 85.324186 318.377361 
L 84.766667 309.431161 
L 85.779783 309.431161 
L 85.430335 303.878347 
L 86.401879 303.878347 
L 85.986 297.400064 
L 86.913772 297.400064 
L 86.143808 285.060477 
L 87.001107 285.060477 
L 86.520423 277.039746 
L 87.33638 277.039746 
L 87.09433 273.02938 
L 87.889708 273.02938 
L 87.831399 272.103911 
L 89.406122 272.103911 
L 88.961084 265.625628 
L 89.718197 265.625628 
L 89.059346 255.753959 
L 90.493323 255.753959 
L 90.45 255.136979 
L 91.161515 255.136979 
L 91.093846 254.21151 
L 91.8 254.21151 
L 91.706565 252.977552 
L 92.406402 252.977552 
L 91.890265 246.190779 
L 92.566127 246.190779 
L 92.241558 241.871924 
L 92.902305 241.871924 
L 92.808309 240.637965 
L 93.463519 240.637965 
L 93.34304 239.095517 
L 94.638952 239.095517 
L 94.236981 234.159682 
L 94.868465 234.159682 
L 94.817793 233.542703 
L 95.445868 233.542703 
L 95.163094 230.149316 
L 95.780488 230.149316 
L 95.421543 225.830461 
L 96.026295 225.830461 
L 95.111772 214.416343 
L 95.687863 214.416343 
L 95.1457 207.321081 
L 95.704785 207.321081 
L 95.289796 201.768267 
L 95.835971 201.768267 
L 95.121478 191.896598 
L 95.647059 191.896598 
L 95.257627 186.343784 
L 96.28478 186.343784 
L 95.891271 180.79097 
L 96.393377 180.79097 
L 96.11197 176.780604 
L 96.606196 176.780604 
L 96.432866 174.312687 
L 96.921959 174.312687 
L 96.856223 173.387218 
L 97.828266 173.387218 
L 97.737313 172.153259 
L 98.219808 172.153259 
L 97.990938 169.068362 
L 98.467579 169.068362 
L 98.148548 164.749507 
L 98.617617 164.749507 
L 98.037336 156.728776 
L 98.49375 156.728776 
L 98.449497 156.111797 
L 98.904121 156.111797 
L 98.881627 155.803307 
L 99.787275 155.803307 
L 99.694311 154.569348 
L 100.144068 154.569348 
L 100.097015 153.952369 
L 100.54503 153.952369 
L 100.521152 153.643879 
L 100.967857 153.643879 
L 100.943608 153.33539 
L 101.38901 153.33539 
L 101.169185 150.558983 
L 101.61 150.558983 
L 101.560861 149.942003 
L 102 149.942003 
L 101.950244 149.325024 
L 102.387719 149.325024 
L 102.312245 148.399555 
L 102.74767 148.399555 
L 102.570492 146.240127 
L 103.002312 146.240127 
L 102.824785 144.0807 
L 103.253059 144.0807 
L 103.227507 143.77221 
L 103.65458 143.77221 
L 103.628694 143.46372 
L 104.054571 143.46372 
L 103.898011 141.612782 
L 104.320814 141.612782 
L 104.294518 141.304293 
L 104.716147 141.304293 
L 104.662959 140.687313 
L 105.083051 140.687313 
L 105.029323 140.070334 
L 105.447887 140.070334 
L 105.312617 138.527886 
L 105.728571 138.527886 
L 105.701306 138.219396 
L 106.530168 138.219396 
L 106.363333 136.368458 
L 106.774468 136.368458 
L 106.71856 135.751479 
L 107.128229 135.751479 
L 107.071823 135.134499 
L 107.480037 135.134499 
L 107.451563 134.82601 
L 107.858678 134.82601 
L 107.829908 134.51752 
L 108.23593 134.51752 
L 108.148903 133.592051 
L 108.553151 133.592051 
L 108.349546 131.432623 
L 108.75068 131.432623 
L 108.605144 129.890175 
L 109.003877 129.890175 
L 108.916187 128.964706 
L 109.709515 128.964706 
L 109.531607 127.113768 
L 109.925245 127.113768 
L 109.836032 126.188299 
L 110.619272 126.188299 
L 110.588997 125.879809 
L 110.979255 125.879809 
L 110.91823 125.26283 
L 111.307162 125.26283 
L 111.245719 124.645851 
L 111.633333 124.645851 
L 111.602379 124.337361 
L 112.374934 124.337361 
L 112.15542 122.177933 
L 112.538515 122.177933 
L 112.381826 120.635485 
L 112.762728 120.635485 
L 112.543523 118.476057 
L 112.921657 118.476057 
L 112.858915 117.859078 
L 113.987629 117.859078 
L 113.955451 117.550588 
L 114.330103 117.550588 
L 114.265325 116.933609 
L 114.638751 116.933609 
L 114.508696 115.69965 
L 114.880324 115.69965 
L 114.75 114.465692 
L 115.119847 114.465692 
L 115.054445 113.848712 
L 115.791124 113.848712 
L 115.658719 112.614754 
L 116.025 112.614754 
L 115.859346 111.072305 
L 116.223618 111.072305 
L 116.190377 110.763816 
L 116.916541 110.763816 
L 116.38343 105.827981 
L 118.166749 105.827981 
L 118.098443 105.211002 
L 118.452826 105.211002 
L 118.418494 104.902512 
L 119.125 104.902512 
L 118.986156 103.668553 
L 119.33751 103.668553 
L 119.163938 102.126105 
L 119.862379 102.126105 
L 119.827324 101.817615 
L 121.216438 101.817615 
L 121.180435 101.509126 
L 121.871141 101.509126 
L 121.834699 101.200636 
L 122.178973 101.200636 
L 122.105769 100.583657 
L 122.79168 100.583657 
L 122.53389 98.424229 
L 122.874324 98.424229 
L 122.83749 98.115739 
L 123.177143 98.115739 
L 123.10317 97.49876 
L 124.11747 97.49876 
L 124.079858 97.19027 
L 124.416654 97.19027 
L 124.228302 95.647822 
L 125.565517 95.647822 
L 125.527095 95.339332 
L 125.859859 95.339332 
L 125.629206 93.488394 
L 125.960078 93.488394 
L 125.883217 92.871415 
L 126.542514 92.871415 
L 126.503721 92.562925 
L 127.160526 92.562925 
L 127.043166 91.637456 
L 127.696608 91.637456 
L 127.617783 91.020477 
L 128.592857 91.020477 
L 128.552878 90.711987 
L 130.166972 90.711987 
L 130.125974 90.403498 
L 130.447099 90.403498 
L 130.323839 89.478029 
L 130.643836 89.478029 
L 130.56155 88.861049 
L 132.785034 88.861049 
L 132.742523 88.55256 
L 133.373077 88.55256 
L 133.20203 87.318601 
L 133.515778 87.318601 
L 133.472973 87.010111 
L 134.410787 87.010111 
L 134.36744 86.701622 
L 134.678908 86.701622 
L 134.548657 85.776153 
L 135.478481 85.776153 
L 135.434598 85.467663 
L 136.051783 85.467663 
L 136.007572 85.159173 
L 136.315282 85.159173 
L 136.270941 84.850684 
L 136.884604 84.850684 
L 136.706347 83.616725 
L 137.011726 83.616725 
L 136.922607 82.999746 
L 137.227152 82.999746 
L 137.1825 82.691256 
L 138.092883 82.691256 
L 138.047727 82.382766 
L 138.35011 82.382766 
L 138.304832 82.074277 
L 139.509197 82.074277 
L 139.463239 81.765787 
L 139.763047 81.765787 
L 139.670961 81.148808 
L 140.268532 81.148808 
L 140.222222 80.840318 
L 140.817694 80.840318 
L 140.771087 80.531828 
L 144.013587 80.531828 
L 143.916655 79.914849 
L 144.5 79.914849 
L 144.402649 79.29787 
L 144.983631 79.29787 
L 144.934714 78.98938 
L 145.224411 78.98938 
L 145.175392 78.68089 
L 145.753205 78.68089 
L 145.654694 78.063911 
L 147.090361 78.063911 
L 146.990446 77.446932 
L 147.561201 77.446932 
L 147.511017 77.138442 
L 148.079831 77.138442 
L 147.878481 75.904483 
L 149.852204 75.904483 
L 149.800909 75.595994 
L 150.360964 75.595994 
L 150.309421 75.287504 
L 150.867596 75.287504 
L 150.815808 74.979014 
L 151.372114 74.979014 
L 151.320083 74.670525 
L 154.896694 74.670525 
L 154.788858 74.053545 
L 155.33283 74.053545 
L 155.278723 73.745056 
L 155.55 73.745056 
L 155.495819 73.436566 
L 155.766575 73.436566 
L 155.71232 73.128076 
L 158.664742 73.128076 
L 158.608961 72.819587 
L 160.463919 72.819587 
L 160.294066 71.894118 
L 164.462241 71.894118 
L 164.4036 71.585628 
L 168.481662 71.585628 
L 168.3 70.660159 
L 170.801635 70.660159 
L 170.74 70.351669 
L 172.470917 70.351669 
L 172.408518 70.04318 
L 185.70207 70.04318 
L 185.633605 69.73469 
L 188.134745 69.73469 
L 188.065277 69.4262 
L 188.290858 69.4262 
L 188.22138 69.117711 
L 190.238195 69.117711 
L 190.167943 68.809221 
L 196.514017 68.809221 
L 196.441237 68.500731 
L 197.725921 68.500731 
L 197.652717 68.192242 
L 201.032117 68.192242 
L 200.957681 67.883752 
L 209.126795 67.883752 
L 209.049417 67.575262 
L 256.3 67.575262 
L 256.209648 67.266773 
L 268.685082 67.266773 
L 268.592641 66.958283 
L 273.658243 66.958283 
L 273.658243 66.958283 
" style="fill:none;stroke:#2ca02c;stroke-linecap:square;stroke-width:2;"/>
   </g>
   <g id="patch_3">
    <path d="M 76.5 448.56 
L 76.5 60.48 
" style="fill:none;stroke:#000000;stroke-linecap:square;stroke-linejoin:miter;stroke-width:0.8;"/>
   </g>
   <g id="patch_4">
    <path d="M 550.8 448.56 
L 550.8 60.48 
" style="fill:none;stroke:#000000;stroke-linecap:square;stroke-linejoin:miter;stroke-width:0.8;"/>
   </g>
   <g id="patch_5">
    <path d="M 76.5 448.56 
L 550.8 448.56 
" style="fill:none;stroke:#000000;stroke-linecap:square;stroke-linejoin:miter;stroke-width:0.8;"/>
   </g>
   <g id="patch_6">
    <path d="M 76.5 60.48 
L 550.8 60.48 
" style="fill:none;stroke:#000000;stroke-linecap:square;stroke-linejoin:miter;stroke-width:0.8;"/>
   </g>
   <g id="text_25">
    <!-- leuven: img1-img2 -->
    <defs>
     <path d="M 9.421875 75.984375 
L 18.40625 75.984375 
L 18.40625 0 
L 9.421875 0 
z
" id="DejaVuSans-108"/>
     <path d="M 8.5 21.578125 
L 8.5 54.6875 
L 17.484375 54.6875 
L 17.484375 21.921875 
Q 17.484375 14.15625 20.5 10.265625 
Q 23.53125 6.390625 29.59375 6.390625 
Q 36.859375 6.390625 41.078125 11.03125 
Q 45.3125 15.671875 45.3125 23.6875 
L 45.3125 54.6875 
L 54.296875 54.6875 
L 54.296875 0 
L 45.3125 0 
L 45.3125 8.40625 
Q 42.046875 3.421875 37.71875 1 
Q 33.40625 -1.421875 27.6875 -1.421875 
Q 18.265625 -1.421875 13.375 4.4375 
Q 8.5 10.296875 8.5 21.578125 
z
M 31.109375 56 
z
" id="DejaVuSans-117"/>
     <path d="M 2.984375 54.6875 
L 12.5 54.6875 
L 29.59375 8.796875 
L 46.6875 54.6875 
L 56.203125 54.6875 
L 35.6875 0 
L 23.484375 0 
z
" id="DejaVuSans-118"/>
     <path d="M 11.71875 12.40625 
L 22.015625 12.40625 
L 22.015625 0 
L 11.71875 0 
z
M 11.71875 51.703125 
L 22.015625 51.703125 
L 22.015625 39.3125 
L 11.71875 39.3125 
z
" id="DejaVuSans-58"/>
     <path id="DejaVuSans-32"/>
     <path d="M 52 44.1875 
Q 55.375 50.25 60.0625 53.125 
Q 64.75 56 71.09375 56 
Q 79.640625 56 84.28125 50.015625 
Q 88.921875 44.046875 88.921875 33.015625 
L 88.921875 0 
L 79.890625 0 
L 79.890625 32.71875 
Q 79.890625 40.578125 77.09375 44.375 
Q 74.3125 48.1875 68.609375 48.1875 
Q 61.625 48.1875 57.5625 43.546875 
Q 53.515625 38.921875 53.515625 30.90625 
L 53.515625 0 
L 44.484375 0 
L 44.484375 32.71875 
Q 44.484375 40.625 41.703125 44.40625 
Q 38.921875 48.1875 33.109375 48.1875 
Q 26.21875 48.1875 22.15625 43.53125 
Q 18.109375 38.875 18.109375 30.90625 
L 18.109375 0 
L 9.078125 0 
L 9.078125 54.6875 
L 18.109375 54.6875 
L 18.109375 46.1875 
Q 21.1875 51.21875 25.484375 53.609375 
Q 29.78125 56 35.6875 56 
Q 41.65625 56 45.828125 52.96875 
Q 50 49.953125 52 44.1875 
z
" id="DejaVuSans-109"/>
     <path d="M 45.40625 27.984375 
Q 45.40625 37.75 41.375 43.109375 
Q 37.359375 48.484375 30.078125 48.484375 
Q 22.859375 48.484375 18.828125 43.109375 
Q 14.796875 37.75 14.796875 27.984375 
Q 14.796875 18.265625 18.828125 12.890625 
Q 22.859375 7.515625 30.078125 7.515625 
Q 37.359375 7.515625 41.375 12.890625 
Q 45.40625 18.265625 45.40625 27.984375 
z
M 54.390625 6.78125 
Q 54.390625 -7.171875 48.1875 -13.984375 
Q 42 -20.796875 29.203125 -20.796875 
Q 24.46875 -20.796875 20.265625 -20.09375 
Q 16.0625 -19.390625 12.109375 -17.921875 
L 12.109375 -9.1875 
Q 16.0625 -11.328125 19.921875 -12.34375 
Q 23.78125 -13.375 27.78125 -13.375 
Q 36.625 -13.375 41.015625 -8.765625 
Q 45.40625 -4.15625 45.40625 5.171875 
L 45.40625 9.625 
Q 42.625 4.78125 38.28125 2.390625 
Q 33.9375 0 27.875 0 
Q 17.828125 0 11.671875 7.65625 
Q 5.515625 15.328125 5.515625 27.984375 
Q 5.515625 40.671875 11.671875 48.328125 
Q 17.828125 56 27.875 56 
Q 33.9375 56 38.28125 53.609375 
Q 42.625 51.21875 45.40625 46.390625 
L 45.40625 54.6875 
L 54.390625 54.6875 
z
" id="DejaVuSans-103"/>
    </defs>
    <g transform="translate(257.074688 41.042625)scale(0.12 -0.12)">
     <use xlink:href="#DejaVuSans-108"/>
     <use x="27.783203" xlink:href="#DejaVuSans-101"/>
     <use x="89.306641" xlink:href="#DejaVuSans-117"/>
     <use x="152.685547" xlink:href="#DejaVuSans-118"/>
     <use x="211.865234" xlink:href="#DejaVuSans-101"/>
     <use x="273.388672" xlink:href="#DejaVuSans-110"/>
     <use x="336.767578" xlink:href="#DejaVuSans-58"/>
     <use x="370.458984" xlink:href="#DejaVuSans-32"/>
     <use x="402.246094" xlink:href="#DejaVuSans-105"/>
     <use x="430.029297" xlink:href="#DejaVuSans-109"/>
     <use x="527.441406" xlink:href="#DejaVuSans-103"/>
     <use x="590.917969" xlink:href="#DejaVuSans-49"/>
     <use x="654.541016" xlink:href="#DejaVuSans-45"/>
     <use x="690.625" xlink:href="#DejaVuSans-105"/>
     <use x="718.408203" xlink:href="#DejaVuSans-109"/>
     <use x="815.820312" xlink:href="#DejaVuSans-103"/>
     <use x="879.296875" xlink:href="#DejaVuSans-50"/>
    </g>
    <!-- NearestNeighbours -->
    <defs>
     <path d="M 9.8125 72.90625 
L 23.09375 72.90625 
L 55.421875 11.921875 
L 55.421875 72.90625 
L 64.984375 72.90625 
L 64.984375 0 
L 51.703125 0 
L 19.390625 60.984375 
L 19.390625 0 
L 9.8125 0 
z
" id="DejaVuSans-78"/>
     <path d="M 34.28125 27.484375 
Q 23.390625 27.484375 19.1875 25 
Q 14.984375 22.515625 14.984375 16.5 
Q 14.984375 11.71875 18.140625 8.90625 
Q 21.296875 6.109375 26.703125 6.109375 
Q 34.1875 6.109375 38.703125 11.40625 
Q 43.21875 16.703125 43.21875 25.484375 
L 43.21875 27.484375 
z
M 52.203125 31.203125 
L 52.203125 0 
L 43.21875 0 
L 43.21875 8.296875 
Q 40.140625 3.328125 35.546875 0.953125 
Q 30.953125 -1.421875 24.3125 -1.421875 
Q 15.921875 -1.421875 10.953125 3.296875 
Q 6 8.015625 6 15.921875 
Q 6 25.140625 12.171875 29.828125 
Q 18.359375 34.515625 30.609375 34.515625 
L 43.21875 34.515625 
L 43.21875 35.40625 
Q 43.21875 41.609375 39.140625 45 
Q 35.0625 48.390625 27.6875 48.390625 
Q 23 48.390625 18.546875 47.265625 
Q 14.109375 46.140625 10.015625 43.890625 
L 10.015625 52.203125 
Q 14.9375 54.109375 19.578125 55.046875 
Q 24.21875 56 28.609375 56 
Q 40.484375 56 46.34375 49.84375 
Q 52.203125 43.703125 52.203125 31.203125 
z
" id="DejaVuSans-97"/>
     <path d="M 54.890625 33.015625 
L 54.890625 0 
L 45.90625 0 
L 45.90625 32.71875 
Q 45.90625 40.484375 42.875 44.328125 
Q 39.84375 48.1875 33.796875 48.1875 
Q 26.515625 48.1875 22.3125 43.546875 
Q 18.109375 38.921875 18.109375 30.90625 
L 18.109375 0 
L 9.078125 0 
L 9.078125 75.984375 
L 18.109375 75.984375 
L 18.109375 46.1875 
Q 21.34375 51.125 25.703125 53.5625 
Q 30.078125 56 35.796875 56 
Q 45.21875 56 50.046875 50.171875 
Q 54.890625 44.34375 54.890625 33.015625 
z
" id="DejaVuSans-104"/>
     <path d="M 48.6875 27.296875 
Q 48.6875 37.203125 44.609375 42.84375 
Q 40.53125 48.484375 33.40625 48.484375 
Q 26.265625 48.484375 22.1875 42.84375 
Q 18.109375 37.203125 18.109375 27.296875 
Q 18.109375 17.390625 22.1875 11.75 
Q 26.265625 6.109375 33.40625 6.109375 
Q 40.53125 6.109375 44.609375 11.75 
Q 48.6875 17.390625 48.6875 27.296875 
z
M 18.109375 46.390625 
Q 20.953125 51.265625 25.265625 53.625 
Q 29.59375 56 35.59375 56 
Q 45.5625 56 51.78125 48.09375 
Q 58.015625 40.1875 58.015625 27.296875 
Q 58.015625 14.40625 51.78125 6.484375 
Q 45.5625 -1.421875 35.59375 -1.421875 
Q 29.59375 -1.421875 25.265625 0.953125 
Q 20.953125 3.328125 18.109375 8.203125 
L 18.109375 0 
L 9.078125 0 
L 9.078125 75.984375 
L 18.109375 75.984375 
z
" id="DejaVuSans-98"/>
    </defs>
    <g transform="translate(255.957188 54.48)scale(0.12 -0.12)">
     <use xlink:href="#DejaVuSans-78"/>
     <use x="74.804688" xlink:href="#DejaVuSans-101"/>
     <use x="136.328125" xlink:href="#DejaVuSans-97"/>
     <use x="197.607422" xlink:href="#DejaVuSans-114"/>
     <use x="236.470703" xlink:href="#DejaVuSans-101"/>
     <use x="297.994141" xlink:href="#DejaVuSans-115"/>
     <use x="350.09375" xlink:href="#DejaVuSans-116"/>
     <use x="389.302734" xlink:href="#DejaVuSans-78"/>
     <use x="464.107422" xlink:href="#DejaVuSans-101"/>
     <use x="525.630859" xlink:href="#DejaVuSans-105"/>
     <use x="553.414062" xlink:href="#DejaVuSans-103"/>
     <use x="616.890625" xlink:href="#DejaVuSans-104"/>
     <use x="680.269531" xlink:href="#DejaVuSans-98"/>
     <use x="743.746094" xlink:href="#DejaVuSans-111"/>
     <use x="804.927734" xlink:href="#DejaVuSans-117"/>
     <use x="868.306641" xlink:href="#DejaVuSans-114"/>
     <use x="909.419922" xlink:href="#DejaVuSans-115"/>
    </g>
   </g>
   <g id="legend_1">
    <g id="patch_7">
     <path d="M 362.659375 112.514375 
L 543.8 112.514375 
Q 545.8 112.514375 545.8 110.514375 
L 545.8 67.48 
Q 545.8 65.48 543.8 65.48 
L 362.659375 65.48 
Q 360.659375 65.48 360.659375 67.48 
L 360.659375 110.514375 
Q 360.659375 112.514375 362.659375 112.514375 
z
" style="fill:#ffffff;opacity:0.8;stroke:#cccccc;stroke-linejoin:miter;"/>
    </g>
    <g id="line2d_48">
     <path d="M 364.659375 73.578438 
L 384.659375 73.578438 
" style="fill:none;stroke:#1f77b4;stroke-linecap:square;stroke-width:2;"/>
    </g>
    <g id="line2d_49"/>
    <g id="text_26">
     <!-- root-cvsift AP: 96.9, %In: 58.8 -->
     <defs>
      <path d="M 37.109375 75.984375 
L 37.109375 68.5 
L 28.515625 68.5 
Q 23.6875 68.5 21.796875 66.546875 
Q 19.921875 64.59375 19.921875 59.515625 
L 19.921875 54.6875 
L 34.71875 54.6875 
L 34.71875 47.703125 
L 19.921875 47.703125 
L 19.921875 0 
L 10.890625 0 
L 10.890625 47.703125 
L 2.296875 47.703125 
L 2.296875 54.6875 
L 10.890625 54.6875 
L 10.890625 58.5 
Q 10.890625 67.625 15.140625 71.796875 
Q 19.390625 75.984375 28.609375 75.984375 
z
" id="DejaVuSans-102"/>
      <path d="M 34.1875 63.1875 
L 20.796875 26.90625 
L 47.609375 26.90625 
z
M 28.609375 72.90625 
L 39.796875 72.90625 
L 67.578125 0 
L 57.328125 0 
L 50.6875 18.703125 
L 17.828125 18.703125 
L 11.1875 0 
L 0.78125 0 
z
" id="DejaVuSans-65"/>
      <path d="M 19.671875 64.796875 
L 19.671875 37.40625 
L 32.078125 37.40625 
Q 38.96875 37.40625 42.71875 40.96875 
Q 46.484375 44.53125 46.484375 51.125 
Q 46.484375 57.671875 42.71875 61.234375 
Q 38.96875 64.796875 32.078125 64.796875 
z
M 9.8125 72.90625 
L 32.078125 72.90625 
Q 44.34375 72.90625 50.609375 67.359375 
Q 56.890625 61.8125 56.890625 51.125 
Q 56.890625 40.328125 50.609375 34.8125 
Q 44.34375 29.296875 32.078125 29.296875 
L 19.671875 29.296875 
L 19.671875 0 
L 9.8125 0 
z
" id="DejaVuSans-80"/>
      <path d="M 11.71875 12.40625 
L 22.015625 12.40625 
L 22.015625 4 
L 14.015625 -11.625 
L 7.71875 -11.625 
L 11.71875 4 
z
" id="DejaVuSans-44"/>
      <path d="M 72.703125 32.078125 
Q 68.453125 32.078125 66.03125 28.46875 
Q 63.625 24.859375 63.625 18.40625 
Q 63.625 12.0625 66.03125 8.421875 
Q 68.453125 4.78125 72.703125 4.78125 
Q 76.859375 4.78125 79.265625 8.421875 
Q 81.6875 12.0625 81.6875 18.40625 
Q 81.6875 24.8125 79.265625 28.4375 
Q 76.859375 32.078125 72.703125 32.078125 
z
M 72.703125 38.28125 
Q 80.421875 38.28125 84.953125 32.90625 
Q 89.5 27.546875 89.5 18.40625 
Q 89.5 9.28125 84.9375 3.921875 
Q 80.375 -1.421875 72.703125 -1.421875 
Q 64.890625 -1.421875 60.34375 3.921875 
Q 55.8125 9.28125 55.8125 18.40625 
Q 55.8125 27.59375 60.375 32.9375 
Q 64.9375 38.28125 72.703125 38.28125 
z
M 22.3125 68.015625 
Q 18.109375 68.015625 15.6875 64.375 
Q 13.28125 60.75 13.28125 54.390625 
Q 13.28125 47.953125 15.671875 44.328125 
Q 18.0625 40.71875 22.3125 40.71875 
Q 26.5625 40.71875 28.96875 44.328125 
Q 31.390625 47.953125 31.390625 54.390625 
Q 31.390625 60.6875 28.953125 64.34375 
Q 26.515625 68.015625 22.3125 68.015625 
z
M 66.40625 74.21875 
L 74.21875 74.21875 
L 28.609375 -1.421875 
L 20.796875 -1.421875 
z
M 22.3125 74.21875 
Q 30.03125 74.21875 34.609375 68.875 
Q 39.203125 63.53125 39.203125 54.390625 
Q 39.203125 45.171875 34.640625 39.84375 
Q 30.078125 34.515625 22.3125 34.515625 
Q 14.546875 34.515625 10.03125 39.859375 
Q 5.515625 45.21875 5.515625 54.390625 
Q 5.515625 63.484375 10.046875 68.84375 
Q 14.59375 74.21875 22.3125 74.21875 
z
" id="DejaVuSans-37"/>
      <path d="M 9.8125 72.90625 
L 19.671875 72.90625 
L 19.671875 0 
L 9.8125 0 
z
" id="DejaVuSans-73"/>
     </defs>
     <g transform="translate(392.659375 77.078438)scale(0.1 -0.1)">
      <use xlink:href="#DejaVuSans-114"/>
      <use x="38.863281" xlink:href="#DejaVuSans-111"/>
      <use x="100.044922" xlink:href="#DejaVuSans-111"/>
      <use x="161.226562" xlink:href="#DejaVuSans-116"/>
      <use x="200.435547" xlink:href="#DejaVuSans-45"/>
      <use x="236.519531" xlink:href="#DejaVuSans-99"/>
      <use x="291.5" xlink:href="#DejaVuSans-118"/>
      <use x="350.679688" xlink:href="#DejaVuSans-115"/>
      <use x="402.779297" xlink:href="#DejaVuSans-105"/>
      <use x="430.5625" xlink:href="#DejaVuSans-102"/>
      <use x="464.017578" xlink:href="#DejaVuSans-116"/>
      <use x="503.226562" xlink:href="#DejaVuSans-32"/>
      <use x="535.013672" xlink:href="#DejaVuSans-65"/>
      <use x="603.421875" xlink:href="#DejaVuSans-80"/>
      <use x="663.724609" xlink:href="#DejaVuSans-58"/>
      <use x="697.416016" xlink:href="#DejaVuSans-32"/>
      <use x="729.203125" xlink:href="#DejaVuSans-57"/>
      <use x="792.826172" xlink:href="#DejaVuSans-54"/>
      <use x="856.449219" xlink:href="#DejaVuSans-46"/>
      <use x="888.236328" xlink:href="#DejaVuSans-57"/>
      <use x="951.859375" xlink:href="#DejaVuSans-44"/>
      <use x="983.646484" xlink:href="#DejaVuSans-32"/>
      <use x="1015.433594" xlink:href="#DejaVuSans-37"/>
      <use x="1110.453125" xlink:href="#DejaVuSans-73"/>
      <use x="1139.945312" xlink:href="#DejaVuSans-110"/>
      <use x="1203.324219" xlink:href="#DejaVuSans-58"/>
      <use x="1237.015625" xlink:href="#DejaVuSans-32"/>
      <use x="1268.802734" xlink:href="#DejaVuSans-53"/>
      <use x="1332.425781" xlink:href="#DejaVuSans-56"/>
      <use x="1396.048828" xlink:href="#DejaVuSans-46"/>
      <use x="1427.835938" xlink:href="#DejaVuSans-56"/>
     </g>
    </g>
    <g id="line2d_50">
     <path d="M 364.659375 88.256563 
L 384.659375 88.256563 
" style="fill:none;stroke:#ff7f0e;stroke-linecap:square;stroke-width:2;"/>
    </g>
    <g id="line2d_51"/>
    <g id="text_27">
     <!-- tfeat AP: 89.0, %In: 57.5 -->
     <g transform="translate(392.659375 91.756563)scale(0.1 -0.1)">
      <use xlink:href="#DejaVuSans-116"/>
      <use x="39.208984" xlink:href="#DejaVuSans-102"/>
      <use x="74.414062" xlink:href="#DejaVuSans-101"/>
      <use x="135.9375" xlink:href="#DejaVuSans-97"/>
      <use x="197.216797" xlink:href="#DejaVuSans-116"/>
      <use x="236.425781" xlink:href="#DejaVuSans-32"/>
      <use x="268.212891" xlink:href="#DejaVuSans-65"/>
      <use x="336.621094" xlink:href="#DejaVuSans-80"/>
      <use x="396.923828" xlink:href="#DejaVuSans-58"/>
      <use x="430.615234" xlink:href="#DejaVuSans-32"/>
      <use x="462.402344" xlink:href="#DejaVuSans-56"/>
      <use x="526.025391" xlink:href="#DejaVuSans-57"/>
      <use x="589.648438" xlink:href="#DejaVuSans-46"/>
      <use x="621.435547" xlink:href="#DejaVuSans-48"/>
      <use x="685.058594" xlink:href="#DejaVuSans-44"/>
      <use x="716.845703" xlink:href="#DejaVuSans-32"/>
      <use x="748.632812" xlink:href="#DejaVuSans-37"/>
      <use x="843.652344" xlink:href="#DejaVuSans-73"/>
      <use x="873.144531" xlink:href="#DejaVuSans-110"/>
      <use x="936.523438" xlink:href="#DejaVuSans-58"/>
      <use x="970.214844" xlink:href="#DejaVuSans-32"/>
      <use x="1002.001953" xlink:href="#DejaVuSans-53"/>
      <use x="1065.625" xlink:href="#DejaVuSans-55"/>
      <use x="1129.248047" xlink:href="#DejaVuSans-46"/>
      <use x="1161.035156" xlink:href="#DejaVuSans-53"/>
     </g>
    </g>
    <g id="line2d_52">
     <path d="M 364.659375 102.934687 
L 384.659375 102.934687 
" style="fill:none;stroke:#2ca02c;stroke-linecap:square;stroke-width:2;"/>
    </g>
    <g id="line2d_53"/>
    <g id="text_28">
     <!-- hardnet AP: 94.4, %In: 58.4 -->
     <defs>
      <path d="M 45.40625 46.390625 
L 45.40625 75.984375 
L 54.390625 75.984375 
L 54.390625 0 
L 45.40625 0 
L 45.40625 8.203125 
Q 42.578125 3.328125 38.25 0.953125 
Q 33.9375 -1.421875 27.875 -1.421875 
Q 17.96875 -1.421875 11.734375 6.484375 
Q 5.515625 14.40625 5.515625 27.296875 
Q 5.515625 40.1875 11.734375 48.09375 
Q 17.96875 56 27.875 56 
Q 33.9375 56 38.25 53.625 
Q 42.578125 51.265625 45.40625 46.390625 
z
M 14.796875 27.296875 
Q 14.796875 17.390625 18.875 11.75 
Q 22.953125 6.109375 30.078125 6.109375 
Q 37.203125 6.109375 41.296875 11.75 
Q 45.40625 17.390625 45.40625 27.296875 
Q 45.40625 37.203125 41.296875 42.84375 
Q 37.203125 48.484375 30.078125 48.484375 
Q 22.953125 48.484375 18.875 42.84375 
Q 14.796875 37.203125 14.796875 27.296875 
z
" id="DejaVuSans-100"/>
     </defs>
     <g transform="translate(392.659375 106.434687)scale(0.1 -0.1)">
      <use xlink:href="#DejaVuSans-104"/>
      <use x="63.378906" xlink:href="#DejaVuSans-97"/>
      <use x="124.658203" xlink:href="#DejaVuSans-114"/>
      <use x="164.021484" xlink:href="#DejaVuSans-100"/>
      <use x="227.498047" xlink:href="#DejaVuSans-110"/>
      <use x="290.876953" xlink:href="#DejaVuSans-101"/>
      <use x="352.400391" xlink:href="#DejaVuSans-116"/>
      <use x="391.609375" xlink:href="#DejaVuSans-32"/>
      <use x="423.396484" xlink:href="#DejaVuSans-65"/>
      <use x="491.804688" xlink:href="#DejaVuSans-80"/>
      <use x="552.107422" xlink:href="#DejaVuSans-58"/>
      <use x="585.798828" xlink:href="#DejaVuSans-32"/>
      <use x="617.585938" xlink:href="#DejaVuSans-57"/>
      <use x="681.208984" xlink:href="#DejaVuSans-52"/>
      <use x="744.832031" xlink:href="#DejaVuSans-46"/>
      <use x="776.619141" xlink:href="#DejaVuSans-52"/>
      <use x="840.242188" xlink:href="#DejaVuSans-44"/>
      <use x="872.029297" xlink:href="#DejaVuSans-32"/>
      <use x="903.816406" xlink:href="#DejaVuSans-37"/>
      <use x="998.835938" xlink:href="#DejaVuSans-73"/>
      <use x="1028.328125" xlink:href="#DejaVuSans-110"/>
      <use x="1091.707031" xlink:href="#DejaVuSans-58"/>
      <use x="1125.398438" xlink:href="#DejaVuSans-32"/>
      <use x="1157.185547" xlink:href="#DejaVuSans-53"/>
      <use x="1220.808594" xlink:href="#DejaVuSans-56"/>
      <use x="1284.431641" xlink:href="#DejaVuSans-46"/>
      <use x="1316.21875" xlink:href="#DejaVuSans-52"/>
     </g>
    </g>
   </g>
  </g>
 </g>
 <defs>
  <clipPath id="p430de52436">
   <rect height="388.08" width="474.3" x="76.5" y="60.48"/>
  </clipPath>
 </defs>
</svg>
