<?xml version="1.0" encoding="utf-8" standalone="no"?>
<!DOCTYPE svg PUBLIC "-//W3C//DTD SVG 1.1//EN"
  "http://www.w3.org/Graphics/SVG/1.1/DTD/svg11.dtd">
<!-- Created with matplotlib (https://matplotlib.org/) -->
<svg height="504pt" version="1.1" viewBox="0 0 612 504" width="612pt" xmlns="http://www.w3.org/2000/svg" xmlns:xlink="http://www.w3.org/1999/xlink">
 <defs>
  <style type="text/css">
*{stroke-linecap:butt;stroke-linejoin:round;}
  </style>
 </defs>
 <g id="figure_1">
  <g id="patch_1">
   <path d="M 0 504 
L 612 504 
L 612 0 
L 0 0 
z
" style="fill:#ffffff;"/>
  </g>
  <g id="axes_1">
   <g id="patch_2">
    <path d="M 76.5 448.56 
L 550.8 448.56 
L 550.8 60.48 
L 76.5 60.48 
z
" style="fill:#ffffff;"/>
   </g>
   <g id="matplotlib.axis_1">
    <g id="xtick_1">
     <g id="line2d_1">
      <path clip-path="url(#p7fe53650d1)" d="M 76.5 448.56 
L 76.5 60.48 
" style="fill:none;stroke:#b0b0b0;stroke-linecap:square;stroke-width:0.8;"/>
     </g>
     <g id="line2d_2">
      <defs>
       <path d="M 0 0 
L 0 3.5 
" id="m2102c60237" style="stroke:#000000;stroke-width:0.8;"/>
      </defs>
      <g>
       <use style="stroke:#000000;stroke-width:0.8;" x="76.5" xlink:href="#m2102c60237" y="448.56"/>
      </g>
     </g>
     <g id="text_1">
      <!-- 0.0 -->
      <defs>
       <path d="M 31.78125 66.40625 
Q 24.171875 66.40625 20.328125 58.90625 
Q 16.5 51.421875 16.5 36.375 
Q 16.5 21.390625 20.328125 13.890625 
Q 24.171875 6.390625 31.78125 6.390625 
Q 39.453125 6.390625 43.28125 13.890625 
Q 47.125 21.390625 47.125 36.375 
Q 47.125 51.421875 43.28125 58.90625 
Q 39.453125 66.40625 31.78125 66.40625 
z
M 31.78125 74.21875 
Q 44.046875 74.21875 50.515625 64.515625 
Q 56.984375 54.828125 56.984375 36.375 
Q 56.984375 17.96875 50.515625 8.265625 
Q 44.046875 -1.421875 31.78125 -1.421875 
Q 19.53125 -1.421875 13.0625 8.265625 
Q 6.59375 17.96875 6.59375 36.375 
Q 6.59375 54.828125 13.0625 64.515625 
Q 19.53125 74.21875 31.78125 74.21875 
z
" id="DejaVuSans-48"/>
       <path d="M 10.6875 12.40625 
L 21 12.40625 
L 21 0 
L 10.6875 0 
z
" id="DejaVuSans-46"/>
      </defs>
      <g transform="translate(68.548438 463.158437)scale(0.1 -0.1)">
       <use xlink:href="#DejaVuSans-48"/>
       <use x="63.623047" xlink:href="#DejaVuSans-46"/>
       <use x="95.410156" xlink:href="#DejaVuSans-48"/>
      </g>
     </g>
    </g>
    <g id="xtick_2">
     <g id="line2d_3">
      <path clip-path="url(#p7fe53650d1)" d="M 123.93 448.56 
L 123.93 60.48 
" style="fill:none;stroke:#b0b0b0;stroke-linecap:square;stroke-width:0.8;"/>
     </g>
     <g id="line2d_4">
      <g>
       <use style="stroke:#000000;stroke-width:0.8;" x="123.93" xlink:href="#m2102c60237" y="448.56"/>
      </g>
     </g>
     <g id="text_2">
      <!-- 0.1 -->
      <defs>
       <path d="M 12.40625 8.296875 
L 28.515625 8.296875 
L 28.515625 63.921875 
L 10.984375 60.40625 
L 10.984375 69.390625 
L 28.421875 72.90625 
L 38.28125 72.90625 
L 38.28125 8.296875 
L 54.390625 8.296875 
L 54.390625 0 
L 12.40625 0 
z
" id="DejaVuSans-49"/>
      </defs>
      <g transform="translate(115.978438 463.158437)scale(0.1 -0.1)">
       <use xlink:href="#DejaVuSans-48"/>
       <use x="63.623047" xlink:href="#DejaVuSans-46"/>
       <use x="95.410156" xlink:href="#DejaVuSans-49"/>
      </g>
     </g>
    </g>
    <g id="xtick_3">
     <g id="line2d_5">
      <path clip-path="url(#p7fe53650d1)" d="M 171.36 448.56 
L 171.36 60.48 
" style="fill:none;stroke:#b0b0b0;stroke-linecap:square;stroke-width:0.8;"/>
     </g>
     <g id="line2d_6">
      <g>
       <use style="stroke:#000000;stroke-width:0.8;" x="171.36" xlink:href="#m2102c60237" y="448.56"/>
      </g>
     </g>
     <g id="text_3">
      <!-- 0.2 -->
      <defs>
       <path d="M 19.1875 8.296875 
L 53.609375 8.296875 
L 53.609375 0 
L 7.328125 0 
L 7.328125 8.296875 
Q 12.9375 14.109375 22.625 23.890625 
Q 32.328125 33.6875 34.8125 36.53125 
Q 39.546875 41.84375 41.421875 45.53125 
Q 43.3125 49.21875 43.3125 52.78125 
Q 43.3125 58.59375 39.234375 62.25 
Q 35.15625 65.921875 28.609375 65.921875 
Q 23.96875 65.921875 18.8125 64.3125 
Q 13.671875 62.703125 7.8125 59.421875 
L 7.8125 69.390625 
Q 13.765625 71.78125 18.9375 73 
Q 24.125 74.21875 28.421875 74.21875 
Q 39.75 74.21875 46.484375 68.546875 
Q 53.21875 62.890625 53.21875 53.421875 
Q 53.21875 48.921875 51.53125 44.890625 
Q 49.859375 40.875 45.40625 35.40625 
Q 44.1875 33.984375 37.640625 27.21875 
Q 31.109375 20.453125 19.1875 8.296875 
z
" id="DejaVuSans-50"/>
      </defs>
      <g transform="translate(163.408438 463.158437)scale(0.1 -0.1)">
       <use xlink:href="#DejaVuSans-48"/>
       <use x="63.623047" xlink:href="#DejaVuSans-46"/>
       <use x="95.410156" xlink:href="#DejaVuSans-50"/>
      </g>
     </g>
    </g>
    <g id="xtick_4">
     <g id="line2d_7">
      <path clip-path="url(#p7fe53650d1)" d="M 218.79 448.56 
L 218.79 60.48 
" style="fill:none;stroke:#b0b0b0;stroke-linecap:square;stroke-width:0.8;"/>
     </g>
     <g id="line2d_8">
      <g>
       <use style="stroke:#000000;stroke-width:0.8;" x="218.79" xlink:href="#m2102c60237" y="448.56"/>
      </g>
     </g>
     <g id="text_4">
      <!-- 0.3 -->
      <defs>
       <path d="M 40.578125 39.3125 
Q 47.65625 37.796875 51.625 33 
Q 55.609375 28.21875 55.609375 21.1875 
Q 55.609375 10.40625 48.1875 4.484375 
Q 40.765625 -1.421875 27.09375 -1.421875 
Q 22.515625 -1.421875 17.65625 -0.515625 
Q 12.796875 0.390625 7.625 2.203125 
L 7.625 11.71875 
Q 11.71875 9.328125 16.59375 8.109375 
Q 21.484375 6.890625 26.8125 6.890625 
Q 36.078125 6.890625 40.9375 10.546875 
Q 45.796875 14.203125 45.796875 21.1875 
Q 45.796875 27.640625 41.28125 31.265625 
Q 36.765625 34.90625 28.71875 34.90625 
L 20.21875 34.90625 
L 20.21875 43.015625 
L 29.109375 43.015625 
Q 36.375 43.015625 40.234375 45.921875 
Q 44.09375 48.828125 44.09375 54.296875 
Q 44.09375 59.90625 40.109375 62.90625 
Q 36.140625 65.921875 28.71875 65.921875 
Q 24.65625 65.921875 20.015625 65.03125 
Q 15.375 64.15625 9.8125 62.3125 
L 9.8125 71.09375 
Q 15.4375 72.65625 20.34375 73.4375 
Q 25.25 74.21875 29.59375 74.21875 
Q 40.828125 74.21875 47.359375 69.109375 
Q 53.90625 64.015625 53.90625 55.328125 
Q 53.90625 49.265625 50.4375 45.09375 
Q 46.96875 40.921875 40.578125 39.3125 
z
" id="DejaVuSans-51"/>
      </defs>
      <g transform="translate(210.838438 463.158437)scale(0.1 -0.1)">
       <use xlink:href="#DejaVuSans-48"/>
       <use x="63.623047" xlink:href="#DejaVuSans-46"/>
       <use x="95.410156" xlink:href="#DejaVuSans-51"/>
      </g>
     </g>
    </g>
    <g id="xtick_5">
     <g id="line2d_9">
      <path clip-path="url(#p7fe53650d1)" d="M 266.22 448.56 
L 266.22 60.48 
" style="fill:none;stroke:#b0b0b0;stroke-linecap:square;stroke-width:0.8;"/>
     </g>
     <g id="line2d_10">
      <g>
       <use style="stroke:#000000;stroke-width:0.8;" x="266.22" xlink:href="#m2102c60237" y="448.56"/>
      </g>
     </g>
     <g id="text_5">
      <!-- 0.4 -->
      <defs>
       <path d="M 37.796875 64.3125 
L 12.890625 25.390625 
L 37.796875 25.390625 
z
M 35.203125 72.90625 
L 47.609375 72.90625 
L 47.609375 25.390625 
L 58.015625 25.390625 
L 58.015625 17.1875 
L 47.609375 17.1875 
L 47.609375 0 
L 37.796875 0 
L 37.796875 17.1875 
L 4.890625 17.1875 
L 4.890625 26.703125 
z
" id="DejaVuSans-52"/>
      </defs>
      <g transform="translate(258.268438 463.158437)scale(0.1 -0.1)">
       <use xlink:href="#DejaVuSans-48"/>
       <use x="63.623047" xlink:href="#DejaVuSans-46"/>
       <use x="95.410156" xlink:href="#DejaVuSans-52"/>
      </g>
     </g>
    </g>
    <g id="xtick_6">
     <g id="line2d_11">
      <path clip-path="url(#p7fe53650d1)" d="M 313.65 448.56 
L 313.65 60.48 
" style="fill:none;stroke:#b0b0b0;stroke-linecap:square;stroke-width:0.8;"/>
     </g>
     <g id="line2d_12">
      <g>
       <use style="stroke:#000000;stroke-width:0.8;" x="313.65" xlink:href="#m2102c60237" y="448.56"/>
      </g>
     </g>
     <g id="text_6">
      <!-- 0.5 -->
      <defs>
       <path d="M 10.796875 72.90625 
L 49.515625 72.90625 
L 49.515625 64.59375 
L 19.828125 64.59375 
L 19.828125 46.734375 
Q 21.96875 47.46875 24.109375 47.828125 
Q 26.265625 48.1875 28.421875 48.1875 
Q 40.625 48.1875 47.75 41.5 
Q 54.890625 34.8125 54.890625 23.390625 
Q 54.890625 11.625 47.5625 5.09375 
Q 40.234375 -1.421875 26.90625 -1.421875 
Q 22.3125 -1.421875 17.546875 -0.640625 
Q 12.796875 0.140625 7.71875 1.703125 
L 7.71875 11.625 
Q 12.109375 9.234375 16.796875 8.0625 
Q 21.484375 6.890625 26.703125 6.890625 
Q 35.15625 6.890625 40.078125 11.328125 
Q 45.015625 15.765625 45.015625 23.390625 
Q 45.015625 31 40.078125 35.4375 
Q 35.15625 39.890625 26.703125 39.890625 
Q 22.75 39.890625 18.8125 39.015625 
Q 14.890625 38.140625 10.796875 36.28125 
z
" id="DejaVuSans-53"/>
      </defs>
      <g transform="translate(305.698438 463.158437)scale(0.1 -0.1)">
       <use xlink:href="#DejaVuSans-48"/>
       <use x="63.623047" xlink:href="#DejaVuSans-46"/>
       <use x="95.410156" xlink:href="#DejaVuSans-53"/>
      </g>
     </g>
    </g>
    <g id="xtick_7">
     <g id="line2d_13">
      <path clip-path="url(#p7fe53650d1)" d="M 361.08 448.56 
L 361.08 60.48 
" style="fill:none;stroke:#b0b0b0;stroke-linecap:square;stroke-width:0.8;"/>
     </g>
     <g id="line2d_14">
      <g>
       <use style="stroke:#000000;stroke-width:0.8;" x="361.08" xlink:href="#m2102c60237" y="448.56"/>
      </g>
     </g>
     <g id="text_7">
      <!-- 0.6 -->
      <defs>
       <path d="M 33.015625 40.375 
Q 26.375 40.375 22.484375 35.828125 
Q 18.609375 31.296875 18.609375 23.390625 
Q 18.609375 15.53125 22.484375 10.953125 
Q 26.375 6.390625 33.015625 6.390625 
Q 39.65625 6.390625 43.53125 10.953125 
Q 47.40625 15.53125 47.40625 23.390625 
Q 47.40625 31.296875 43.53125 35.828125 
Q 39.65625 40.375 33.015625 40.375 
z
M 52.59375 71.296875 
L 52.59375 62.3125 
Q 48.875 64.0625 45.09375 64.984375 
Q 41.3125 65.921875 37.59375 65.921875 
Q 27.828125 65.921875 22.671875 59.328125 
Q 17.53125 52.734375 16.796875 39.40625 
Q 19.671875 43.65625 24.015625 45.921875 
Q 28.375 48.1875 33.59375 48.1875 
Q 44.578125 48.1875 50.953125 41.515625 
Q 57.328125 34.859375 57.328125 23.390625 
Q 57.328125 12.15625 50.6875 5.359375 
Q 44.046875 -1.421875 33.015625 -1.421875 
Q 20.359375 -1.421875 13.671875 8.265625 
Q 6.984375 17.96875 6.984375 36.375 
Q 6.984375 53.65625 15.1875 63.9375 
Q 23.390625 74.21875 37.203125 74.21875 
Q 40.921875 74.21875 44.703125 73.484375 
Q 48.484375 72.75 52.59375 71.296875 
z
" id="DejaVuSans-54"/>
      </defs>
      <g transform="translate(353.128438 463.158437)scale(0.1 -0.1)">
       <use xlink:href="#DejaVuSans-48"/>
       <use x="63.623047" xlink:href="#DejaVuSans-46"/>
       <use x="95.410156" xlink:href="#DejaVuSans-54"/>
      </g>
     </g>
    </g>
    <g id="xtick_8">
     <g id="line2d_15">
      <path clip-path="url(#p7fe53650d1)" d="M 408.51 448.56 
L 408.51 60.48 
" style="fill:none;stroke:#b0b0b0;stroke-linecap:square;stroke-width:0.8;"/>
     </g>
     <g id="line2d_16">
      <g>
       <use style="stroke:#000000;stroke-width:0.8;" x="408.51" xlink:href="#m2102c60237" y="448.56"/>
      </g>
     </g>
     <g id="text_8">
      <!-- 0.7 -->
      <defs>
       <path d="M 8.203125 72.90625 
L 55.078125 72.90625 
L 55.078125 68.703125 
L 28.609375 0 
L 18.3125 0 
L 43.21875 64.59375 
L 8.203125 64.59375 
z
" id="DejaVuSans-55"/>
      </defs>
      <g transform="translate(400.558438 463.158437)scale(0.1 -0.1)">
       <use xlink:href="#DejaVuSans-48"/>
       <use x="63.623047" xlink:href="#DejaVuSans-46"/>
       <use x="95.410156" xlink:href="#DejaVuSans-55"/>
      </g>
     </g>
    </g>
    <g id="xtick_9">
     <g id="line2d_17">
      <path clip-path="url(#p7fe53650d1)" d="M 455.94 448.56 
L 455.94 60.48 
" style="fill:none;stroke:#b0b0b0;stroke-linecap:square;stroke-width:0.8;"/>
     </g>
     <g id="line2d_18">
      <g>
       <use style="stroke:#000000;stroke-width:0.8;" x="455.94" xlink:href="#m2102c60237" y="448.56"/>
      </g>
     </g>
     <g id="text_9">
      <!-- 0.8 -->
      <defs>
       <path d="M 31.78125 34.625 
Q 24.75 34.625 20.71875 30.859375 
Q 16.703125 27.09375 16.703125 20.515625 
Q 16.703125 13.921875 20.71875 10.15625 
Q 24.75 6.390625 31.78125 6.390625 
Q 38.8125 6.390625 42.859375 10.171875 
Q 46.921875 13.96875 46.921875 20.515625 
Q 46.921875 27.09375 42.890625 30.859375 
Q 38.875 34.625 31.78125 34.625 
z
M 21.921875 38.8125 
Q 15.578125 40.375 12.03125 44.71875 
Q 8.5 49.078125 8.5 55.328125 
Q 8.5 64.0625 14.71875 69.140625 
Q 20.953125 74.21875 31.78125 74.21875 
Q 42.671875 74.21875 48.875 69.140625 
Q 55.078125 64.0625 55.078125 55.328125 
Q 55.078125 49.078125 51.53125 44.71875 
Q 48 40.375 41.703125 38.8125 
Q 48.828125 37.15625 52.796875 32.3125 
Q 56.78125 27.484375 56.78125 20.515625 
Q 56.78125 9.90625 50.3125 4.234375 
Q 43.84375 -1.421875 31.78125 -1.421875 
Q 19.734375 -1.421875 13.25 4.234375 
Q 6.78125 9.90625 6.78125 20.515625 
Q 6.78125 27.484375 10.78125 32.3125 
Q 14.796875 37.15625 21.921875 38.8125 
z
M 18.3125 54.390625 
Q 18.3125 48.734375 21.84375 45.5625 
Q 25.390625 42.390625 31.78125 42.390625 
Q 38.140625 42.390625 41.71875 45.5625 
Q 45.3125 48.734375 45.3125 54.390625 
Q 45.3125 60.0625 41.71875 63.234375 
Q 38.140625 66.40625 31.78125 66.40625 
Q 25.390625 66.40625 21.84375 63.234375 
Q 18.3125 60.0625 18.3125 54.390625 
z
" id="DejaVuSans-56"/>
      </defs>
      <g transform="translate(447.988438 463.158437)scale(0.1 -0.1)">
       <use xlink:href="#DejaVuSans-48"/>
       <use x="63.623047" xlink:href="#DejaVuSans-46"/>
       <use x="95.410156" xlink:href="#DejaVuSans-56"/>
      </g>
     </g>
    </g>
    <g id="xtick_10">
     <g id="line2d_19">
      <path clip-path="url(#p7fe53650d1)" d="M 503.37 448.56 
L 503.37 60.48 
" style="fill:none;stroke:#b0b0b0;stroke-linecap:square;stroke-width:0.8;"/>
     </g>
     <g id="line2d_20">
      <g>
       <use style="stroke:#000000;stroke-width:0.8;" x="503.37" xlink:href="#m2102c60237" y="448.56"/>
      </g>
     </g>
     <g id="text_10">
      <!-- 0.9 -->
      <defs>
       <path d="M 10.984375 1.515625 
L 10.984375 10.5 
Q 14.703125 8.734375 18.5 7.8125 
Q 22.3125 6.890625 25.984375 6.890625 
Q 35.75 6.890625 40.890625 13.453125 
Q 46.046875 20.015625 46.78125 33.40625 
Q 43.953125 29.203125 39.59375 26.953125 
Q 35.25 24.703125 29.984375 24.703125 
Q 19.046875 24.703125 12.671875 31.3125 
Q 6.296875 37.9375 6.296875 49.421875 
Q 6.296875 60.640625 12.9375 67.421875 
Q 19.578125 74.21875 30.609375 74.21875 
Q 43.265625 74.21875 49.921875 64.515625 
Q 56.59375 54.828125 56.59375 36.375 
Q 56.59375 19.140625 48.40625 8.859375 
Q 40.234375 -1.421875 26.421875 -1.421875 
Q 22.703125 -1.421875 18.890625 -0.6875 
Q 15.09375 0.046875 10.984375 1.515625 
z
M 30.609375 32.421875 
Q 37.25 32.421875 41.125 36.953125 
Q 45.015625 41.5 45.015625 49.421875 
Q 45.015625 57.28125 41.125 61.84375 
Q 37.25 66.40625 30.609375 66.40625 
Q 23.96875 66.40625 20.09375 61.84375 
Q 16.21875 57.28125 16.21875 49.421875 
Q 16.21875 41.5 20.09375 36.953125 
Q 23.96875 32.421875 30.609375 32.421875 
z
" id="DejaVuSans-57"/>
      </defs>
      <g transform="translate(495.418438 463.158437)scale(0.1 -0.1)">
       <use xlink:href="#DejaVuSans-48"/>
       <use x="63.623047" xlink:href="#DejaVuSans-46"/>
       <use x="95.410156" xlink:href="#DejaVuSans-57"/>
      </g>
     </g>
    </g>
    <g id="xtick_11">
     <g id="line2d_21">
      <path clip-path="url(#p7fe53650d1)" d="M 550.8 448.56 
L 550.8 60.48 
" style="fill:none;stroke:#b0b0b0;stroke-linecap:square;stroke-width:0.8;"/>
     </g>
     <g id="line2d_22">
      <g>
       <use style="stroke:#000000;stroke-width:0.8;" x="550.8" xlink:href="#m2102c60237" y="448.56"/>
      </g>
     </g>
     <g id="text_11">
      <!-- 1.0 -->
      <g transform="translate(542.848438 463.158437)scale(0.1 -0.1)">
       <use xlink:href="#DejaVuSans-49"/>
       <use x="63.623047" xlink:href="#DejaVuSans-46"/>
       <use x="95.410156" xlink:href="#DejaVuSans-48"/>
      </g>
     </g>
    </g>
    <g id="text_12">
     <!-- 1-precision -->
     <defs>
      <path d="M 4.890625 31.390625 
L 31.203125 31.390625 
L 31.203125 23.390625 
L 4.890625 23.390625 
z
" id="DejaVuSans-45"/>
      <path d="M 18.109375 8.203125 
L 18.109375 -20.796875 
L 9.078125 -20.796875 
L 9.078125 54.6875 
L 18.109375 54.6875 
L 18.109375 46.390625 
Q 20.953125 51.265625 25.265625 53.625 
Q 29.59375 56 35.59375 56 
Q 45.5625 56 51.78125 48.09375 
Q 58.015625 40.1875 58.015625 27.296875 
Q 58.015625 14.40625 51.78125 6.484375 
Q 45.5625 -1.421875 35.59375 -1.421875 
Q 29.59375 -1.421875 25.265625 0.953125 
Q 20.953125 3.328125 18.109375 8.203125 
z
M 48.6875 27.296875 
Q 48.6875 37.203125 44.609375 42.84375 
Q 40.53125 48.484375 33.40625 48.484375 
Q 26.265625 48.484375 22.1875 42.84375 
Q 18.109375 37.203125 18.109375 27.296875 
Q 18.109375 17.390625 22.1875 11.75 
Q 26.265625 6.109375 33.40625 6.109375 
Q 40.53125 6.109375 44.609375 11.75 
Q 48.6875 17.390625 48.6875 27.296875 
z
" id="DejaVuSans-112"/>
      <path d="M 41.109375 46.296875 
Q 39.59375 47.171875 37.8125 47.578125 
Q 36.03125 48 33.890625 48 
Q 26.265625 48 22.1875 43.046875 
Q 18.109375 38.09375 18.109375 28.8125 
L 18.109375 0 
L 9.078125 0 
L 9.078125 54.6875 
L 18.109375 54.6875 
L 18.109375 46.1875 
Q 20.953125 51.171875 25.484375 53.578125 
Q 30.03125 56 36.53125 56 
Q 37.453125 56 38.578125 55.875 
Q 39.703125 55.765625 41.0625 55.515625 
z
" id="DejaVuSans-114"/>
      <path d="M 56.203125 29.59375 
L 56.203125 25.203125 
L 14.890625 25.203125 
Q 15.484375 15.921875 20.484375 11.0625 
Q 25.484375 6.203125 34.421875 6.203125 
Q 39.59375 6.203125 44.453125 7.46875 
Q 49.3125 8.734375 54.109375 11.28125 
L 54.109375 2.78125 
Q 49.265625 0.734375 44.1875 -0.34375 
Q 39.109375 -1.421875 33.890625 -1.421875 
Q 20.796875 -1.421875 13.15625 6.1875 
Q 5.515625 13.8125 5.515625 26.8125 
Q 5.515625 40.234375 12.765625 48.109375 
Q 20.015625 56 32.328125 56 
Q 43.359375 56 49.78125 48.890625 
Q 56.203125 41.796875 56.203125 29.59375 
z
M 47.21875 32.234375 
Q 47.125 39.59375 43.09375 43.984375 
Q 39.0625 48.390625 32.421875 48.390625 
Q 24.90625 48.390625 20.390625 44.140625 
Q 15.875 39.890625 15.1875 32.171875 
z
" id="DejaVuSans-101"/>
      <path d="M 48.78125 52.59375 
L 48.78125 44.1875 
Q 44.96875 46.296875 41.140625 47.34375 
Q 37.3125 48.390625 33.40625 48.390625 
Q 24.65625 48.390625 19.8125 42.84375 
Q 14.984375 37.3125 14.984375 27.296875 
Q 14.984375 17.28125 19.8125 11.734375 
Q 24.65625 6.203125 33.40625 6.203125 
Q 37.3125 6.203125 41.140625 7.25 
Q 44.96875 8.296875 48.78125 10.40625 
L 48.78125 2.09375 
Q 45.015625 0.34375 40.984375 -0.53125 
Q 36.96875 -1.421875 32.421875 -1.421875 
Q 20.0625 -1.421875 12.78125 6.34375 
Q 5.515625 14.109375 5.515625 27.296875 
Q 5.515625 40.671875 12.859375 48.328125 
Q 20.21875 56 33.015625 56 
Q 37.15625 56 41.109375 55.140625 
Q 45.0625 54.296875 48.78125 52.59375 
z
" id="DejaVuSans-99"/>
      <path d="M 9.421875 54.6875 
L 18.40625 54.6875 
L 18.40625 0 
L 9.421875 0 
z
M 9.421875 75.984375 
L 18.40625 75.984375 
L 18.40625 64.59375 
L 9.421875 64.59375 
z
" id="DejaVuSans-105"/>
      <path d="M 44.28125 53.078125 
L 44.28125 44.578125 
Q 40.484375 46.53125 36.375 47.5 
Q 32.28125 48.484375 27.875 48.484375 
Q 21.1875 48.484375 17.84375 46.4375 
Q 14.5 44.390625 14.5 40.28125 
Q 14.5 37.15625 16.890625 35.375 
Q 19.28125 33.59375 26.515625 31.984375 
L 29.59375 31.296875 
Q 39.15625 29.25 43.1875 25.515625 
Q 47.21875 21.78125 47.21875 15.09375 
Q 47.21875 7.46875 41.1875 3.015625 
Q 35.15625 -1.421875 24.609375 -1.421875 
Q 20.21875 -1.421875 15.453125 -0.5625 
Q 10.6875 0.296875 5.421875 2 
L 5.421875 11.28125 
Q 10.40625 8.6875 15.234375 7.390625 
Q 20.0625 6.109375 24.8125 6.109375 
Q 31.15625 6.109375 34.5625 8.28125 
Q 37.984375 10.453125 37.984375 14.40625 
Q 37.984375 18.0625 35.515625 20.015625 
Q 33.0625 21.96875 24.703125 23.78125 
L 21.578125 24.515625 
Q 13.234375 26.265625 9.515625 29.90625 
Q 5.8125 33.546875 5.8125 39.890625 
Q 5.8125 47.609375 11.28125 51.796875 
Q 16.75 56 26.8125 56 
Q 31.78125 56 36.171875 55.265625 
Q 40.578125 54.546875 44.28125 53.078125 
z
" id="DejaVuSans-115"/>
      <path d="M 30.609375 48.390625 
Q 23.390625 48.390625 19.1875 42.75 
Q 14.984375 37.109375 14.984375 27.296875 
Q 14.984375 17.484375 19.15625 11.84375 
Q 23.34375 6.203125 30.609375 6.203125 
Q 37.796875 6.203125 41.984375 11.859375 
Q 46.1875 17.53125 46.1875 27.296875 
Q 46.1875 37.015625 41.984375 42.703125 
Q 37.796875 48.390625 30.609375 48.390625 
z
M 30.609375 56 
Q 42.328125 56 49.015625 48.375 
Q 55.71875 40.765625 55.71875 27.296875 
Q 55.71875 13.875 49.015625 6.21875 
Q 42.328125 -1.421875 30.609375 -1.421875 
Q 18.84375 -1.421875 12.171875 6.21875 
Q 5.515625 13.875 5.515625 27.296875 
Q 5.515625 40.765625 12.171875 48.375 
Q 18.84375 56 30.609375 56 
z
" id="DejaVuSans-111"/>
      <path d="M 54.890625 33.015625 
L 54.890625 0 
L 45.90625 0 
L 45.90625 32.71875 
Q 45.90625 40.484375 42.875 44.328125 
Q 39.84375 48.1875 33.796875 48.1875 
Q 26.515625 48.1875 22.3125 43.546875 
Q 18.109375 38.921875 18.109375 30.90625 
L 18.109375 0 
L 9.078125 0 
L 9.078125 54.6875 
L 18.109375 54.6875 
L 18.109375 46.1875 
Q 21.34375 51.125 25.703125 53.5625 
Q 30.078125 56 35.796875 56 
Q 45.21875 56 50.046875 50.171875 
Q 54.890625 44.34375 54.890625 33.015625 
z
" id="DejaVuSans-110"/>
     </defs>
     <g transform="translate(286.110938 476.836563)scale(0.1 -0.1)">
      <use xlink:href="#DejaVuSans-49"/>
      <use x="63.623047" xlink:href="#DejaVuSans-45"/>
      <use x="99.707031" xlink:href="#DejaVuSans-112"/>
      <use x="163.183594" xlink:href="#DejaVuSans-114"/>
      <use x="202.046875" xlink:href="#DejaVuSans-101"/>
      <use x="263.570312" xlink:href="#DejaVuSans-99"/>
      <use x="318.550781" xlink:href="#DejaVuSans-105"/>
      <use x="346.333984" xlink:href="#DejaVuSans-115"/>
      <use x="398.433594" xlink:href="#DejaVuSans-105"/>
      <use x="426.216797" xlink:href="#DejaVuSans-111"/>
      <use x="487.398438" xlink:href="#DejaVuSans-110"/>
     </g>
    </g>
   </g>
   <g id="matplotlib.axis_2">
    <g id="ytick_1">
     <g id="line2d_23">
      <path clip-path="url(#p7fe53650d1)" d="M 76.5 448.56 
L 550.8 448.56 
" style="fill:none;stroke:#b0b0b0;stroke-linecap:square;stroke-width:0.8;"/>
     </g>
     <g id="line2d_24">
      <defs>
       <path d="M 0 0 
L -3.5 0 
" id="ma32cb23ca1" style="stroke:#000000;stroke-width:0.8;"/>
      </defs>
      <g>
       <use style="stroke:#000000;stroke-width:0.8;" x="76.5" xlink:href="#ma32cb23ca1" y="448.56"/>
      </g>
     </g>
     <g id="text_13">
      <!-- 0.0 -->
      <g transform="translate(53.596875 452.359219)scale(0.1 -0.1)">
       <use xlink:href="#DejaVuSans-48"/>
       <use x="63.623047" xlink:href="#DejaVuSans-46"/>
       <use x="95.410156" xlink:href="#DejaVuSans-48"/>
      </g>
     </g>
    </g>
    <g id="ytick_2">
     <g id="line2d_25">
      <path clip-path="url(#p7fe53650d1)" d="M 76.5 409.752 
L 550.8 409.752 
" style="fill:none;stroke:#b0b0b0;stroke-linecap:square;stroke-width:0.8;"/>
     </g>
     <g id="line2d_26">
      <g>
       <use style="stroke:#000000;stroke-width:0.8;" x="76.5" xlink:href="#ma32cb23ca1" y="409.752"/>
      </g>
     </g>
     <g id="text_14">
      <!-- 0.1 -->
      <g transform="translate(53.596875 413.551219)scale(0.1 -0.1)">
       <use xlink:href="#DejaVuSans-48"/>
       <use x="63.623047" xlink:href="#DejaVuSans-46"/>
       <use x="95.410156" xlink:href="#DejaVuSans-49"/>
      </g>
     </g>
    </g>
    <g id="ytick_3">
     <g id="line2d_27">
      <path clip-path="url(#p7fe53650d1)" d="M 76.5 370.944 
L 550.8 370.944 
" style="fill:none;stroke:#b0b0b0;stroke-linecap:square;stroke-width:0.8;"/>
     </g>
     <g id="line2d_28">
      <g>
       <use style="stroke:#000000;stroke-width:0.8;" x="76.5" xlink:href="#ma32cb23ca1" y="370.944"/>
      </g>
     </g>
     <g id="text_15">
      <!-- 0.2 -->
      <g transform="translate(53.596875 374.743219)scale(0.1 -0.1)">
       <use xlink:href="#DejaVuSans-48"/>
       <use x="63.623047" xlink:href="#DejaVuSans-46"/>
       <use x="95.410156" xlink:href="#DejaVuSans-50"/>
      </g>
     </g>
    </g>
    <g id="ytick_4">
     <g id="line2d_29">
      <path clip-path="url(#p7fe53650d1)" d="M 76.5 332.136 
L 550.8 332.136 
" style="fill:none;stroke:#b0b0b0;stroke-linecap:square;stroke-width:0.8;"/>
     </g>
     <g id="line2d_30">
      <g>
       <use style="stroke:#000000;stroke-width:0.8;" x="76.5" xlink:href="#ma32cb23ca1" y="332.136"/>
      </g>
     </g>
     <g id="text_16">
      <!-- 0.3 -->
      <g transform="translate(53.596875 335.935219)scale(0.1 -0.1)">
       <use xlink:href="#DejaVuSans-48"/>
       <use x="63.623047" xlink:href="#DejaVuSans-46"/>
       <use x="95.410156" xlink:href="#DejaVuSans-51"/>
      </g>
     </g>
    </g>
    <g id="ytick_5">
     <g id="line2d_31">
      <path clip-path="url(#p7fe53650d1)" d="M 76.5 293.328 
L 550.8 293.328 
" style="fill:none;stroke:#b0b0b0;stroke-linecap:square;stroke-width:0.8;"/>
     </g>
     <g id="line2d_32">
      <g>
       <use style="stroke:#000000;stroke-width:0.8;" x="76.5" xlink:href="#ma32cb23ca1" y="293.328"/>
      </g>
     </g>
     <g id="text_17">
      <!-- 0.4 -->
      <g transform="translate(53.596875 297.127219)scale(0.1 -0.1)">
       <use xlink:href="#DejaVuSans-48"/>
       <use x="63.623047" xlink:href="#DejaVuSans-46"/>
       <use x="95.410156" xlink:href="#DejaVuSans-52"/>
      </g>
     </g>
    </g>
    <g id="ytick_6">
     <g id="line2d_33">
      <path clip-path="url(#p7fe53650d1)" d="M 76.5 254.52 
L 550.8 254.52 
" style="fill:none;stroke:#b0b0b0;stroke-linecap:square;stroke-width:0.8;"/>
     </g>
     <g id="line2d_34">
      <g>
       <use style="stroke:#000000;stroke-width:0.8;" x="76.5" xlink:href="#ma32cb23ca1" y="254.52"/>
      </g>
     </g>
     <g id="text_18">
      <!-- 0.5 -->
      <g transform="translate(53.596875 258.319219)scale(0.1 -0.1)">
       <use xlink:href="#DejaVuSans-48"/>
       <use x="63.623047" xlink:href="#DejaVuSans-46"/>
       <use x="95.410156" xlink:href="#DejaVuSans-53"/>
      </g>
     </g>
    </g>
    <g id="ytick_7">
     <g id="line2d_35">
      <path clip-path="url(#p7fe53650d1)" d="M 76.5 215.712 
L 550.8 215.712 
" style="fill:none;stroke:#b0b0b0;stroke-linecap:square;stroke-width:0.8;"/>
     </g>
     <g id="line2d_36">
      <g>
       <use style="stroke:#000000;stroke-width:0.8;" x="76.5" xlink:href="#ma32cb23ca1" y="215.712"/>
      </g>
     </g>
     <g id="text_19">
      <!-- 0.6 -->
      <g transform="translate(53.596875 219.511219)scale(0.1 -0.1)">
       <use xlink:href="#DejaVuSans-48"/>
       <use x="63.623047" xlink:href="#DejaVuSans-46"/>
       <use x="95.410156" xlink:href="#DejaVuSans-54"/>
      </g>
     </g>
    </g>
    <g id="ytick_8">
     <g id="line2d_37">
      <path clip-path="url(#p7fe53650d1)" d="M 76.5 176.904 
L 550.8 176.904 
" style="fill:none;stroke:#b0b0b0;stroke-linecap:square;stroke-width:0.8;"/>
     </g>
     <g id="line2d_38">
      <g>
       <use style="stroke:#000000;stroke-width:0.8;" x="76.5" xlink:href="#ma32cb23ca1" y="176.904"/>
      </g>
     </g>
     <g id="text_20">
      <!-- 0.7 -->
      <g transform="translate(53.596875 180.703219)scale(0.1 -0.1)">
       <use xlink:href="#DejaVuSans-48"/>
       <use x="63.623047" xlink:href="#DejaVuSans-46"/>
       <use x="95.410156" xlink:href="#DejaVuSans-55"/>
      </g>
     </g>
    </g>
    <g id="ytick_9">
     <g id="line2d_39">
      <path clip-path="url(#p7fe53650d1)" d="M 76.5 138.096 
L 550.8 138.096 
" style="fill:none;stroke:#b0b0b0;stroke-linecap:square;stroke-width:0.8;"/>
     </g>
     <g id="line2d_40">
      <g>
       <use style="stroke:#000000;stroke-width:0.8;" x="76.5" xlink:href="#ma32cb23ca1" y="138.096"/>
      </g>
     </g>
     <g id="text_21">
      <!-- 0.8 -->
      <g transform="translate(53.596875 141.895219)scale(0.1 -0.1)">
       <use xlink:href="#DejaVuSans-48"/>
       <use x="63.623047" xlink:href="#DejaVuSans-46"/>
       <use x="95.410156" xlink:href="#DejaVuSans-56"/>
      </g>
     </g>
    </g>
    <g id="ytick_10">
     <g id="line2d_41">
      <path clip-path="url(#p7fe53650d1)" d="M 76.5 99.288 
L 550.8 99.288 
" style="fill:none;stroke:#b0b0b0;stroke-linecap:square;stroke-width:0.8;"/>
     </g>
     <g id="line2d_42">
      <g>
       <use style="stroke:#000000;stroke-width:0.8;" x="76.5" xlink:href="#ma32cb23ca1" y="99.288"/>
      </g>
     </g>
     <g id="text_22">
      <!-- 0.9 -->
      <g transform="translate(53.596875 103.087219)scale(0.1 -0.1)">
       <use xlink:href="#DejaVuSans-48"/>
       <use x="63.623047" xlink:href="#DejaVuSans-46"/>
       <use x="95.410156" xlink:href="#DejaVuSans-57"/>
      </g>
     </g>
    </g>
    <g id="ytick_11">
     <g id="line2d_43">
      <path clip-path="url(#p7fe53650d1)" d="M 76.5 60.48 
L 550.8 60.48 
" style="fill:none;stroke:#b0b0b0;stroke-linecap:square;stroke-width:0.8;"/>
     </g>
     <g id="line2d_44">
      <g>
       <use style="stroke:#000000;stroke-width:0.8;" x="76.5" xlink:href="#ma32cb23ca1" y="60.48"/>
      </g>
     </g>
     <g id="text_23">
      <!-- 1.0 -->
      <g transform="translate(53.596875 64.279219)scale(0.1 -0.1)">
       <use xlink:href="#DejaVuSans-49"/>
       <use x="63.623047" xlink:href="#DejaVuSans-46"/>
       <use x="95.410156" xlink:href="#DejaVuSans-48"/>
      </g>
     </g>
    </g>
    <g id="text_24">
     <!-- #correct/829 -->
     <defs>
      <path d="M 51.125 44 
L 36.921875 44 
L 32.8125 27.6875 
L 47.125 27.6875 
z
M 43.796875 71.78125 
L 38.71875 51.515625 
L 52.984375 51.515625 
L 58.109375 71.78125 
L 65.921875 71.78125 
L 60.890625 51.515625 
L 76.125 51.515625 
L 76.125 44 
L 58.984375 44 
L 54.984375 27.6875 
L 70.515625 27.6875 
L 70.515625 20.21875 
L 53.078125 20.21875 
L 48 0 
L 40.1875 0 
L 45.21875 20.21875 
L 30.90625 20.21875 
L 25.875 0 
L 18.015625 0 
L 23.09375 20.21875 
L 7.71875 20.21875 
L 7.71875 27.6875 
L 24.90625 27.6875 
L 29 44 
L 13.28125 44 
L 13.28125 51.515625 
L 30.90625 51.515625 
L 35.890625 71.78125 
z
" id="DejaVuSans-35"/>
      <path d="M 18.3125 70.21875 
L 18.3125 54.6875 
L 36.8125 54.6875 
L 36.8125 47.703125 
L 18.3125 47.703125 
L 18.3125 18.015625 
Q 18.3125 11.328125 20.140625 9.421875 
Q 21.96875 7.515625 27.59375 7.515625 
L 36.8125 7.515625 
L 36.8125 0 
L 27.59375 0 
Q 17.1875 0 13.234375 3.875 
Q 9.28125 7.765625 9.28125 18.015625 
L 9.28125 47.703125 
L 2.6875 47.703125 
L 2.6875 54.6875 
L 9.28125 54.6875 
L 9.28125 70.21875 
z
" id="DejaVuSans-116"/>
      <path d="M 25.390625 72.90625 
L 33.6875 72.90625 
L 8.296875 -9.28125 
L 0 -9.28125 
z
" id="DejaVuSans-47"/>
     </defs>
     <g transform="translate(47.517187 287.443438)rotate(-90)scale(0.1 -0.1)">
      <use xlink:href="#DejaVuSans-35"/>
      <use x="83.789062" xlink:href="#DejaVuSans-99"/>
      <use x="138.769531" xlink:href="#DejaVuSans-111"/>
      <use x="199.951172" xlink:href="#DejaVuSans-114"/>
      <use x="239.314453" xlink:href="#DejaVuSans-114"/>
      <use x="278.177734" xlink:href="#DejaVuSans-101"/>
      <use x="339.701172" xlink:href="#DejaVuSans-99"/>
      <use x="394.681641" xlink:href="#DejaVuSans-116"/>
      <use x="433.890625" xlink:href="#DejaVuSans-47"/>
      <use x="467.582031" xlink:href="#DejaVuSans-56"/>
      <use x="531.205078" xlink:href="#DejaVuSans-50"/>
      <use x="594.828125" xlink:href="#DejaVuSans-57"/>
     </g>
    </g>
   </g>
   <g id="line2d_45">
    <path clip-path="url(#p7fe53650d1)" d="M 76.5 448.09187 
L 76.5 381.14924 
L 79.771034 381.14924 
L 79.726531 380.212979 
L 82.909459 380.212979 
L 82.113018 370.382244 
L 81.364615 358.210856 
L 80.678855 343.230688 
L 80.485714 338.081255 
L 82.453556 338.081255 
L 82.058203 330.12304 
L 83.882101 330.12304 
L 83.500738 323.569216 
L 85.21875 323.569216 
L 84.27541 308.120917 
L 84.100962 304.844005 
L 85.592013 304.844005 
L 84.630857 287.523185 
L 84.339669 281.437491 
L 85.621154 281.437491 
L 85.596164 280.969361 
L 86.867213 280.969361 
L 86.645455 277.224318 
L 87.8832 277.224318 
L 87.587532 272.543016 
L 88.787565 272.543016 
L 87.984262 259.903498 
L 89.102174 259.903498 
L 88.605104 251.945283 
L 89.675 251.945283 
L 89.232886 244.923329 
L 90.26317 244.923329 
L 89.992123 240.710157 
L 90.998253 240.710157 
L 90.903905 239.305766 
L 91.899351 239.305766 
L 91.866091 238.837636 
L 92.855172 238.837636 
L 92.784979 237.901375 
L 93.765739 237.901375 
L 93.159298 229.94316 
L 94.102887 229.94316 
L 94.030595 229.0069 
L 94.966598 229.0069 
L 94.34495 221.048685 
L 95.247036 221.048685 
L 94.707294 214.026731 
L 96.451434 214.026731 
L 96.187925 210.749819 
L 97.044068 210.749819 
L 96.852425 208.409168 
L 97.697765 208.409168 
L 97.58 207.004777 
L 98.417745 207.004777 
L 98.177331 204.195995 
L 99.003285 204.195995 
L 98.921455 203.259735 
L 99.741561 203.259735 
L 99.615704 201.855344 
L 100.428649 201.855344 
L 100.257424 199.982823 
L 101.061964 199.982823 
L 100.716021 196.23778 
L 102.295263 196.23778 
L 101.894301 192.024608 
L 102.668276 192.024608 
L 102.623236 191.556478 
L 103.393299 191.556478 
L 103.34717 191.088347 
L 104.113356 191.088347 
L 103.832542 188.279566 
L 104.588832 188.279566 
L 104.494098 187.343305 
L 105.994286 187.343305 
L 105.944799 186.875175 
L 106.68995 186.875175 
L 106.639465 186.407045 
L 107.380968 186.407045 
L 106.97397 182.662002 
L 107.703947 182.662002 
L 107.550736 181.257612 
L 108.275 181.257612 
L 108.223165 180.789481 
L 109.662439 180.789481 
L 109.554943 179.853221 
L 110.268932 179.853221 
L 110.214378 179.38509 
L 110.925 179.38509 
L 110.814309 178.44883 
L 111.520546 178.44883 
L 110.750863 171.895006 
L 112.128169 171.895006 
L 111.742105 168.618094 
L 112.420711 168.618094 
L 112.036239 165.341182 
L 113.373933 165.341182 
L 113.150455 163.468661 
L 113.812557 163.468661 
L 113.7 162.5324 
L 114.358283 162.5324 
L 114.244595 161.59614 
L 114.8991 161.59614 
L 114.841617 161.12801 
L 115.493274 161.12801 
L 115.089497 157.851098 
L 115.733087 157.851098 
L 115.502643 155.978577 
L 116.140909 155.978577 
L 115.967299 154.574186 
L 117.233188 154.574186 
L 117.056087 153.169795 
L 117.683792 153.169795 
L 117.564935 152.233534 
L 118.189193 152.233534 
L 118.129209 151.765404 
L 119.988825 151.765404 
L 119.435219 147.552232 
L 120.652045 147.552232 
L 120.589859 147.084101 
L 121.194937 147.084101 
L 121.132163 146.615971 
L 121.734783 146.615971 
L 121.671429 146.147841 
L 122.870112 146.147841 
L 122.805439 145.67971 
L 123.401532 145.67971 
L 123.3363 145.21158 
L 124.522053 145.21158 
L 124.45554 144.74345 
L 125.045228 144.74345 
L 124.844628 143.339059 
L 125.430536 143.339059 
L 125.363324 142.870929 
L 126.528904 142.870929 
L 126.460465 142.402799 
L 127.040164 142.402799 
L 126.971214 141.934668 
L 127.548638 141.934668 
L 127.479184 141.466538 
L 129.770501 141.466538 
L 129.483715 139.594017 
L 130.614765 139.594017 
L 130.111037 136.317105 
L 130.669721 136.317105 
L 130.526225 135.380844 
L 131.082143 135.380844 
L 130.652362 132.572063 
L 131.203014 132.572063 
L 131.06 131.635802 
L 131.607963 131.635802 
L 131.536115 131.167672 
L 132.626528 131.167672 
L 132.553636 130.699542 
L 133.096109 130.699542 
L 133.022798 130.231411 
L 133.56326 130.231411 
L 133.489535 129.763281 
L 135.100772 129.763281 
L 135.02545 129.295151 
L 136.622535 129.295151 
L 136.392474 127.89076 
L 137.446947 127.89076 
L 137.292259 126.954499 
L 138.339114 126.954499 
L 138.260936 126.486369 
L 138.781818 126.486369 
L 138.624937 125.550109 
L 139.143396 125.550109 
L 139.064698 125.081978 
L 139.581305 125.081978 
L 139.109963 122.273197 
L 141.150558 122.273197 
L 140.831689 120.400676 
L 141.840221 120.400676 
L 141.520318 118.528154 
L 142.02066 118.528154 
L 141.860854 117.591894 
L 142.855839 117.591894 
L 142.614545 116.187503 
L 143.108717 116.187503 
L 142.867672 114.783112 
L 143.359157 114.783112 
L 143.198438 113.846852 
L 143.687755 113.846852 
L 143.607194 113.378721 
L 144.09485 113.378721 
L 144.013995 112.910591 
L 144.984845 112.910591 
L 144.821786 111.974331 
L 145.304518 111.974331 
L 145.222803 111.5062 
L 145.703915 111.5062 
L 145.540118 110.56994 
L 147.44947 110.56994 
L 147.116764 108.697419 
L 147.589461 108.697419 
L 147.423364 107.761158 
L 147.894049 107.761158 
L 147.810839 107.293028 
L 148.748023 107.293028 
L 148.496871 105.888637 
L 151.274568 105.888637 
L 151.188621 105.420507 
L 151.647417 105.420507 
L 151.561239 104.952376 
L 152.018557 104.952376 
L 151.845943 104.016116 
L 152.755758 104.016116 
L 152.668907 103.547986 
L 153.121843 103.547986 
L 153.034773 103.079855 
L 154.386183 103.079855 
L 154.298077 102.611725 
L 155.193115 102.611725 
L 154.839438 100.739204 
L 155.283838 100.739204 
L 155.195516 100.271074 
L 158.712 100.271074 
L 158.620755 99.802943 
L 159.922235 99.802943 
L 159.830055 99.334813 
L 160.692172 99.334813 
L 160.599449 98.866683 
L 161.457033 98.866683 
L 161.363776 98.398552 
L 162.642013 98.398552 
L 162.547869 97.930422 
L 163.816667 97.930422 
L 163.721654 97.462292 
L 164.981128 97.462292 
L 164.885265 96.994162 
L 165.302922 96.994162 
L 165.206919 96.526031 
L 166.038835 96.526031 
L 165.846071 95.589771 
L 167.085193 95.589771 
L 166.988103 95.121641 
L 167.399036 95.121641 
L 167.301818 94.65351 
L 168.528358 94.65351 
L 168.430351 94.18538 
L 168.837128 94.18538 
L 168.739001 93.71725 
L 169.549311 93.71725 
L 169.450742 93.249119 
L 171.05981 93.249119 
L 170.960169 92.780989 
L 172.157143 92.780989 
L 171.956604 91.844729 
L 176.275026 91.844729 
L 176.171739 91.376598 
L 176.945764 91.376598 
L 176.73866 90.440338 
L 181.309674 90.440338 
L 181.203052 89.972207 
L 181.953503 89.972207 
L 181.846552 89.504077 
L 183.337273 89.504077 
L 183.229465 89.035947 
L 184.338833 89.035947 
L 184.122289 88.099686 
L 187.40597 88.099686 
L 187.295726 87.631556 
L 187.656703 87.631556 
L 187.546429 87.163426 
L 188.265743 87.163426 
L 188.155193 86.695296 
L 188.871175 86.695296 
L 188.760355 86.227165 
L 189.117044 86.227165 
L 189.006201 85.759035 
L 190.071344 85.759035 
L 189.96 85.290905 
L 191.720195 85.290905 
L 191.607895 84.822774 
L 192.655102 84.822774 
L 192.54233 84.354644 
L 215.645232 84.354644 
L 215.518966 83.886514 
L 219.13061 83.886514 
L 218.875 82.950253 
L 223.566519 82.950253 
L 223.436717 82.482123 
L 235.138213 82.482123 
L 235.003316 82.013993 
L 239.242198 82.013993 
L 239.105784 81.545862 
L 241.182015 81.545862 
L 241.045008 81.077732 
L 245.114039 81.077732 
L 244.975718 80.609602 
L 247.217101 80.609602 
L 247.078194 80.141472 
L 252.89569 80.141472 
L 252.755024 79.673341 
L 273.126597 79.673341 
L 272.980624 79.205211 
L 282.924052 79.205211 
L 282.776395 78.737081 
L 288.407143 78.737081 
L 288.258852 78.268951 
L 310.613508 78.268951 
L 310.613508 78.268951 
" style="fill:none;stroke:#1f77b4;stroke-linecap:square;stroke-width:2;"/>
   </g>
   <g id="line2d_46">
    <path clip-path="url(#p7fe53650d1)" d="M 76.5 448.09187 
L 313.65 448.09187 
L 234.6 447.623739 
L 195.075 447.155609 
L 171.36 446.687479 
L 155.55 446.219349 
L 144.257143 445.751218 
L 129.2 444.814958 
L 119.618182 443.878697 
L 112.984615 442.942437 
L 108.12 442.006176 
L 104.4 441.069916 
L 101.463158 440.133655 
L 99.085714 439.197394 
L 96.2625 437.793004 
L 94.066667 436.388613 
L 92.31 434.984222 
L 90.872727 433.579831 
L 89.318919 431.70731 
L 88.068293 429.834789 
L 86.81087 427.494138 
L 85.8 425.153486 
L 84.821053 422.344704 
L 83.910938 419.067793 
L 82.99726 414.85462 
L 82.909459 414.38649 
L 89.148 414.38649 
L 87.928916 410.641448 
L 86.81087 406.428275 
L 86.081818 403.151363 
L 90.729 403.151363 
L 90.314563 401.746972 
L 94.742308 401.746972 
L 93.289381 397.5338 
L 93.142105 397.065669 
L 97.121739 397.065669 
L 95.625 392.852497 
L 94.197761 388.171194 
L 92.855172 383.021761 
L 91.899351 378.808589 
L 94.86 378.808589 
L 94.626115 377.872328 
L 97.513291 377.872328 
L 96.500602 374.127286 
L 101.908929 374.127286 
L 101.463158 372.722895 
L 104.075581 372.722895 
L 103.448864 370.850374 
L 105.976271 370.850374 
L 105.810674 370.382244 
L 108.296648 370.382244 
L 106.455789 365.232811 
L 105.838144 363.36029 
L 108.12 363.36029 
L 107.484422 361.487768 
L 109.701 361.487768 
L 108.733981 358.678987 
L 110.869565 358.678987 
L 109.901408 355.870205 
L 111.961682 355.870205 
L 111.796744 355.402075 
L 113.829167 355.402075 
L 112.657399 352.125163 
L 114.613393 352.125163 
L 113.61913 349.316381 
L 117.387931 349.316381 
L 116.694915 347.44386 
L 118.526582 347.44386 
L 116.3412 341.358166 
L 118.072112 341.358166 
L 117.907143 340.890036 
L 119.618182 340.890036 
L 119.448425 340.421906 
L 121.14 340.421906 
L 119.618182 336.208733 
L 121.245283 336.208733 
L 120.579926 334.336212 
L 122.173333 334.336212 
L 120.229787 328.718649 
L 121.751237 328.718649 
L 120.811765 325.909867 
L 125.229452 325.909867 
L 125.06314 325.441737 
L 126.511224 325.441737 
L 125.511 322.632955 
L 126.92392 322.632955 
L 124.836306 316.547262 
L 126.188571 316.547262 
L 125.875079 315.611001 
L 127.211321 315.611001 
L 125.966871 311.865959 
L 127.266055 311.865959 
L 126.804545 310.461568 
L 128.085498 310.461568 
L 127.469552 308.589047 
L 128.729464 308.589047 
L 128.574481 308.120917 
L 129.823669 308.120917 
L 129.354545 306.716526 
L 131.811953 306.716526 
L 130.861032 303.907744 
L 133.253846 303.907744 
L 132.456742 301.567093 
L 133.628571 301.567093 
L 133.468994 301.098963 
L 134.631476 301.098963 
L 134.47 300.630832 
L 135.623269 300.630832 
L 135.135989 299.226441 
L 136.274795 299.226441 
L 136.111475 298.758311 
L 137.241417 298.758311 
L 136.912195 297.822051 
L 138.030811 297.822051 
L 135.633506 290.800097 
L 136.709067 290.800097 
L 135.7875 287.991315 
L 136.843511 287.991315 
L 136.537975 287.055054 
L 137.584091 287.055054 
L 137.277136 286.118794 
L 138.313534 286.118794 
L 138.005237 285.182533 
L 139.03209 285.182533 
L 138.876923 284.714403 
L 139.896535 284.714403 
L 139.275 282.841882 
L 140.281174 282.841882 
L 139.816748 281.437491 
L 141.802174 281.437491 
L 140.869286 278.628709 
L 141.842993 278.628709 
L 141.688152 278.160579 
L 142.655319 278.160579 
L 141.73007 275.351797 
L 142.681395 275.351797 
L 142.071429 273.479276 
L 143.011034 273.479276 
L 142.706636 272.543016 
L 143.638356 272.543016 
L 143.030769 270.670495 
L 143.951242 270.670495 
L 143.049889 267.861713 
L 143.956 267.861713 
L 142.489565 263.18041 
L 143.375271 263.18041 
L 142.234542 259.435368 
L 143.10383 259.435368 
L 142.402737 257.094717 
L 144.115094 257.094717 
L 143.6925 255.690326 
L 144.538877 255.690326 
L 144.397718 255.222195 
L 146.077066 255.222195 
L 145.790741 254.285935 
L 146.622382 254.285935 
L 146.193061 252.881544 
L 147.017108 252.881544 
L 146.731034 251.945283 
L 147.548988 251.945283 
L 147.405455 251.477153 
L 148.21875 251.477153 
L 147.361554 248.668372 
L 148.163618 248.668372 
L 147.318861 245.85959 
L 148.11 245.85959 
L 146.598081 240.710157 
L 147.372414 240.710157 
L 146.567045 237.901375 
L 147.331191 237.901375 
L 145.378125 230.879421 
L 146.863187 230.879421 
L 146.734552 230.411291 
L 147.471898 230.411291 
L 147.342623 229.94316 
L 148.076182 229.94316 
L 147.559386 228.070639 
L 148.285946 228.070639 
L 147.391815 224.793727 
L 148.108348 224.793727 
L 146.736063 219.644294 
L 147.438783 219.644294 
L 147.070588 218.239903 
L 147.767876 218.239903 
L 146.796593 214.494861 
L 147.483673 214.494861 
L 147.363158 214.026731 
L 148.728426 214.026731 
L 148.606419 213.558601 
L 149.284654 213.558601 
L 149.162121 213.09047 
L 149.837143 213.09047 
L 149.591457 212.15421 
L 150.262375 212.15421 
L 150.139232 211.68608 
L 151.472546 211.68608 
L 151.100166 210.281689 
L 151.760826 210.281689 
L 151.51285 209.345428 
L 152.169572 209.345428 
L 151.921475 208.409168 
L 153.225 208.409168 
L 152.975081 207.472907 
L 153.621951 207.472907 
L 153.247573 206.068516 
L 153.889822 206.068516 
L 153.64058 205.132256 
L 154.2791 205.132256 
L 154.154254 204.664125 
L 154.789904 204.664125 
L 154.66464 204.195995 
L 155.297444 204.195995 
L 155.17177 203.727865 
L 156.42973 203.727865 
L 156.176387 202.791604 
L 156.800791 202.791604 
L 156.547476 201.855344 
L 157.168346 201.855344 
L 156.789028 200.450953 
L 157.405634 200.450953 
L 157.279219 199.982823 
L 157.893136 199.982823 
L 157.766355 199.514692 
L 158.377605 199.514692 
L 158.250466 199.046562 
L 158.85907 199.046562 
L 158.604482 198.110302 
L 159.209722 198.110302 
L 159.08228 197.642171 
L 159.684923 197.642171 
L 159.302757 196.23778 
L 162.27766 196.23778 
L 162.147496 195.76965 
L 162.736364 195.76965 
L 162.6059 195.30152 
L 163.192296 195.30152 
L 162.671622 193.428999 
L 163.253523 193.428999 
L 162.99417 192.492738 
L 163.572985 192.492738 
L 163.056231 190.620217 
L 164.774446 190.620217 
L 164.127273 188.279566 
L 164.693411 188.279566 
L 164.307726 186.875175 
L 165.43125 186.875175 
L 165.302177 186.407045 
L 165.86087 186.407045 
L 165.731548 185.938914 
L 166.288006 185.938914 
L 165.771983 184.066393 
L 166.875215 184.066393 
L 166.745923 183.598263 
L 168.387179 183.598263 
L 168.256472 183.130133 
L 168.799858 183.130133 
L 168.668936 182.662002 
L 169.210198 182.662002 
L 169.079066 182.193872 
L 170.691972 182.193872 
L 170.295652 180.789481 
L 170.828571 180.789481 
L 170.696643 180.321351 
L 171.227514 180.321351 
L 171.095397 179.853221 
L 172.6775 179.853221 
L 172.544105 179.38509 
L 174.111464 179.38509 
L 173.044672 175.640048 
L 174.073978 175.640048 
L 173.676798 174.235657 
L 174.187805 174.235657 
L 174.055616 173.767527 
L 174.56473 173.767527 
L 174.300404 172.831267 
L 174.807133 172.831267 
L 174.15 170.490615 
L 175.654594 170.490615 
L 175.391235 169.554355 
L 175.889125 169.554355 
L 175.234387 167.213703 
L 176.221419 167.213703 
L 175.960026 166.277443 
L 176.450654 166.277443 
L 176.32 165.809312 
L 177.29648 165.809312 
L 177.165234 165.341182 
L 177.651105 165.341182 
L 177.388716 164.404922 
L 177.872409 164.404922 
L 177.610465 163.468661 
L 179.051351 163.468661 
L 178.656923 162.06427 
L 179.608696 162.06427 
L 179.345663 161.12801 
L 180.29084 161.12801 
L 180.027411 160.191749 
L 180.966076 160.191749 
L 180.702273 159.255489 
L 181.168979 159.255489 
L 180.774497 157.851098 
L 181.23877 157.851098 
L 180.976596 156.914837 
L 182.359975 156.914837 
L 182.228144 156.446707 
L 183.143851 156.446707 
L 183.011538 155.978577 
L 183.921906 155.978577 
L 183.392734 154.106055 
L 183.844649 154.106055 
L 183.712776 153.637925 
L 184.16319 153.637925 
L 184.03125 153.169795 
L 184.927995 153.169795 
L 184.795604 152.701665 
L 185.687211 152.701665 
L 185.55438 152.233534 
L 186.440898 152.233534 
L 185.777805 149.892883 
L 186.21759 149.892883 
L 185.953846 148.956622 
L 186.391837 148.956622 
L 186.128623 148.020362 
L 186.564833 148.020362 
L 186.302148 147.084101 
L 187.17 147.084101 
L 186.907126 146.147841 
L 187.33879 146.147841 
L 187.207464 145.67971 
L 187.637751 145.67971 
L 187.506383 145.21158 
L 188.363208 145.21158 
L 188.231449 144.74345 
L 188.658 144.74345 
L 188.526204 144.27532 
L 189.375615 144.27532 
L 189.111579 143.339059 
L 189.534112 143.339059 
L 189.402217 142.870929 
L 190.243655 142.870929 
L 189.979443 141.934668 
L 190.398028 141.934668 
L 190.266049 141.466538 
L 191.929412 141.466538 
L 191.796429 140.998408 
L 192.209551 140.998408 
L 191.811468 139.594017 
L 193.450685 139.594017 
L 192.919091 137.721496 
L 193.730612 137.721496 
L 193.33322 136.317105 
L 194.139233 136.317105 
L 194.006757 135.848975 
L 194.408099 135.848975 
L 194.275618 135.380844 
L 195.075 135.380844 
L 194.942217 134.912714 
L 195.340268 134.912714 
L 194.942809 133.508323 
L 196.129 133.508323 
L 195.996226 133.040193 
L 196.78206 133.040193 
L 196.649004 132.572063 
L 197.040331 132.572063 
L 196.907285 132.103932 
L 198.075248 132.103932 
L 197.941648 131.635802 
L 199.101095 131.635802 
L 198.966958 131.167672 
L 199.351475 131.167672 
L 199.217358 130.699542 
L 199.600763 130.699542 
L 199.466667 130.231411 
L 200.230435 130.231411 
L 200.096091 129.763281 
L 200.476464 129.763281 
L 200.342145 129.295151 
L 200.721429 129.295151 
L 200.453132 128.35889 
L 200.831068 128.35889 
L 200.697091 127.89076 
L 201.07395 127.89076 
L 200.806337 126.954499 
L 201.930514 126.954499 
L 201.796364 126.486369 
L 202.541302 126.486369 
L 202.40693 126.018239 
L 202.777955 126.018239 
L 202.643617 125.550109 
L 204.118856 125.550109 
L 203.98381 125.081978 
L 209.04682 125.081978 
L 208.90875 124.613848 
L 209.973832 124.613848 
L 209.835373 124.145718 
L 210.188705 124.145718 
L 210.050311 123.677587 
L 210.402689 123.677587 
L 210.26436 123.209457 
L 212.709231 123.209457 
L 212.569672 122.741327 
L 212.915865 122.741327 
L 212.77638 122.273197 
L 213.121655 122.273197 
L 212.982245 121.805066 
L 213.670265 121.805066 
L 213.391463 120.868806 
L 215.436364 120.868806 
L 215.296165 120.400676 
L 216.644925 120.400676 
L 216.504217 119.932545 
L 217.508108 119.932545 
L 217.226374 118.996285 
L 217.559281 118.996285 
L 217.418644 118.528154 
L 218.412823 118.528154 
L 218.271897 118.060024 
L 219.587537 118.060024 
L 219.446146 117.591894 
L 220.099704 117.591894 
L 219.817028 116.655633 
L 221.437904 116.655633 
L 221.296086 116.187503 
L 222.580702 116.187503 
L 222.438462 115.719373 
L 223.712415 115.719373 
L 223.569767 115.251242 
L 224.202708 115.251242 
L 224.06 114.783112 
L 227.186699 114.783112 
L 227.042639 114.314982 
L 228.276 114.314982 
L 228.131589 113.846852 
L 235.04162 113.846852 
L 234.746933 112.910591 
L 238.80633 112.910591 
L 238.657562 112.442461 
L 239.797808 112.442461 
L 239.648814 111.974331 
L 242.183077 111.974331 
L 242.033273 111.5062 
L 250.715641 111.5062 
L 250.562687 111.03807 
L 253.175718 111.03807 
L 253.022087 110.56994 
L 255.079275 110.56994 
L 254.925194 110.101809 
L 257.205051 110.101809 
L 257.05047 109.633679 
L 258.052174 109.633679 
L 257.89753 109.165549 
L 258.892105 109.165549 
L 258.582966 108.229288 
L 260.79487 108.229288 
L 260.64 107.761158 
L 264.013953 107.761158 
L 263.85834 107.293028 
L 271.732446 107.293028 
L 271.575 106.824897 
L 274.251278 106.824897 
L 274.093456 106.356767 
L 276.71834 106.356767 
L 276.402289 105.420507 
L 277.050472 105.420507 
L 276.892683 104.952376 
L 280.926977 104.952376 
L 280.768629 104.484246 
L 280.977632 104.484246 
L 280.81949 104.016116 
L 281.02813 104.016116 
L 280.870193 103.547986 
L 283.348508 103.547986 
L 283.190367 103.079855 
L 283.394805 103.079855 
L 283.23687 102.611725 
L 283.440961 102.611725 
L 283.283232 102.143595 
L 284.501062 102.143595 
L 284.343366 101.675464 
L 285.75 101.675464 
L 285.592313 101.207334 
L 285.991422 101.207334 
L 285.83391 100.739204 
L 288.203204 100.739204 
L 288.04557 100.271074 
L 291.33 100.271074 
L 291.014537 99.334813 
L 291.96474 99.334813 
L 291.807237 98.866683 
L 295.722894 98.866683 
L 295.56518 98.398552 
L 297.749786 98.398552 
L 297.592088 97.930422 
L 299.561881 97.930422 
L 299.40424 97.462292 
L 320.258846 97.462292 
L 320.100972 96.994162 
L 320.548352 96.994162 
L 320.390698 96.526031 
L 322.455826 96.526031 
L 322.455826 96.526031 
" style="fill:none;stroke:#ff7f0e;stroke-linecap:square;stroke-width:2;"/>
   </g>
   <g id="line2d_47">
    <path clip-path="url(#p7fe53650d1)" d="M 76.5 448.09187 
L 76.5 434.047961 
L 91.321875 434.047961 
L 89.675 432.17544 
L 88.3575 430.302919 
L 87.04 427.962268 
L 85.986 425.621616 
L 84.969643 422.812835 
L 84.028571 419.535923 
L 83.686364 418.131532 
L 90.658209 418.131532 
L 89.318919 414.85462 
L 88.068293 411.109578 
L 86.924176 406.896405 
L 85.892079 402.215103 
L 85.449057 399.874451 
L 89.798131 399.874451 
L 88.558475 394.725018 
L 87.975 391.916236 
L 91.6776 391.916236 
L 90.45 386.766803 
L 93.810219 386.766803 
L 92.743151 382.553631 
L 95.859184 382.553631 
L 94.398113 376.936068 
L 93.045349 370.850374 
L 91.718182 363.82842 
L 90.45 355.870205 
L 89.261435 346.97573 
L 88.661538 341.826297 
L 90.628085 341.826297 
L 90.219421 338.549385 
L 92.114815 338.549385 
L 91.617131 334.804343 
L 93.439286 334.804343 
L 92.792748 330.12304 
L 94.534221 330.12304 
L 94.001845 326.377998 
L 95.68125 326.377998 
L 95.541241 325.441737 
L 97.196727 325.441737 
L 96.754804 322.632955 
L 98.364894 322.632955 
L 97.330743 316.079131 
L 98.857576 316.079131 
L 98.2 311.865959 
L 99.674267 311.865959 
L 98.12462 301.567093 
L 96.827143 291.736357 
L 98.120513 291.736357 
L 97.065854 283.310012 
L 98.292162 283.310012 
L 96.759045 270.202364 
L 95.383138 256.626586 
L 96.447196 256.626586 
L 95.599329 247.732111 
L 96.615402 247.732111 
L 95.67383 237.433245 
L 97.602331 237.433245 
L 97.469053 236.028854 
L 98.421429 236.028854 
L 98.193555 233.688203 
L 99.132573 233.688203 
L 98.992577 232.283812 
L 99.922222 232.283812 
L 99.636585 229.47503 
L 100.551724 229.47503 
L 100.310241 227.134379 
L 101.213026 227.134379 
L 100.871146 223.857467 
L 101.75858 223.857467 
L 101.414591 220.580555 
L 102.287184 220.580555 
L 102.187427 219.644294 
L 103.053475 219.644294 
L 102.20972 211.68608 
L 103.046642 211.68608 
L 102.997207 211.217949 
L 103.829554 211.217949 
L 103.528125 208.409168 
L 104.348807 208.409168 
L 104.045554 205.600386 
L 104.854891 205.600386 
L 104.55 202.791604 
L 105.348301 202.791604 
L 105.092553 200.450953 
L 105.881416 200.450953 
L 105.674868 198.578432 
L 106.455789 198.578432 
L 105.93931 193.897129 
L 106.704991 193.897129 
L 105.846321 185.938914 
L 107.3295 185.938914 
L 107.227076 185.002654 
L 107.962687 185.002654 
L 107.806931 183.598263 
L 108.536738 183.598263 
L 108.327005 181.725742 
L 109.05 181.725742 
L 108.786224 179.38509 
L 109.501456 179.38509 
L 109.448142 178.91696 
L 110.16 178.91696 
L 109.89072 176.576309 
L 110.595048 176.576309 
L 110.486465 175.640048 
L 111.186486 175.640048 
L 110.697179 171.426876 
L 111.385915 171.426876 
L 111.331406 170.958745 
L 112.700467 170.958745 
L 112.420711 168.618094 
L 113.097222 168.618094 
L 112.928571 167.213703 
L 113.600153 167.213703 
L 113.543338 166.745573 
L 114.211927 166.745573 
L 114.154351 166.277443 
L 114.81997 166.277443 
L 114.587727 164.404922 
L 115.247655 164.404922 
L 115.130769 163.468661 
L 115.786898 163.468661 
L 115.668919 162.5324 
L 116.321289 162.5324 
L 115.96627 159.723619 
L 116.611424 159.723619 
L 116.433678 158.319228 
L 117.713108 158.319228 
L 117.59207 157.382967 
L 118.227273 157.382967 
L 118.166179 156.914837 
L 119.429343 156.914837 
L 119.366764 156.446707 
L 119.99476 156.446707 
L 119.931541 155.978577 
L 120.556894 155.978577 
L 120.429378 155.042316 
L 121.051301 155.042316 
L 120.987013 154.574186 
L 121.60634 154.574186 
L 121.15592 151.297274 
L 121.767949 151.297274 
L 121.194937 147.084101 
L 121.798315 147.084101 
L 121.734783 146.615971 
L 122.335714 146.615971 
L 122.207682 145.67971 
L 122.805439 145.67971 
L 122.740947 145.21158 
L 123.93 145.21158 
L 123.538017 142.402799 
L 124.125722 142.402799 
L 123.995062 141.466538 
L 125.744262 141.466538 
L 125.543265 140.062147 
L 126.12106 140.062147 
L 125.919621 138.657756 
L 128.775 138.657756 
L 128.704832 138.189626 
L 129.270643 138.189626 
L 129.2 137.721496 
L 129.763636 137.721496 
L 129.550866 136.317105 
L 130.111037 136.317105 
L 130.039841 135.848975 
L 131.154437 135.848975 
L 130.938127 134.444584 
L 132.043026 134.444584 
L 131.607963 131.635802 
L 133.243303 131.635802 
L 133.16961 131.167672 
L 133.711284 131.167672 
L 133.489535 129.763281 
L 134.565077 129.763281 
L 134.341463 128.35889 
L 134.875385 128.35889 
L 134.80064 127.89076 
L 135.332609 127.89076 
L 135.182526 126.954499 
L 135.711975 126.954499 
L 135.636641 126.486369 
L 136.164168 126.486369 
L 135.712736 123.677587 
L 136.756981 123.677587 
L 136.681281 123.209457 
L 137.200878 123.209457 
L 137.048936 122.273197 
L 137.566125 122.273197 
L 137.489888 121.805066 
L 138.005237 121.805066 
L 137.928643 121.336936 
L 139.465385 121.336936 
L 139.231891 119.932545 
L 140.246856 119.932545 
L 140.090037 118.996285 
L 141.097914 118.996285 
L 141.01875 118.528154 
L 141.520318 118.528154 
L 141.361538 117.591894 
L 143.351519 117.591894 
L 143.270388 117.123764 
L 143.764364 117.123764 
L 143.68293 116.655633 
L 144.666304 116.655633 
L 144.502048 115.719373 
L 144.990975 115.719373 
L 144.908654 115.251242 
L 148.295113 115.251242 
L 148.124376 114.314982 
L 148.602613 114.314982 
L 148.176978 111.974331 
L 148.651769 111.974331 
L 148.566784 111.5062 
L 149.04 111.5062 
L 148.869718 110.56994 
L 149.811007 110.56994 
L 149.554376 109.165549 
L 152.344032 109.165549 
L 152.168671 108.229288 
L 153.546429 108.229288 
L 153.457768 107.761158 
L 153.914483 107.761158 
L 153.736927 106.824897 
L 154.191753 106.824897 
L 154.10286 106.356767 
L 154.556229 106.356767 
L 154.467123 105.888637 
L 155.819795 105.888637 
L 155.729659 105.420507 
L 156.178093 105.420507 
L 156.087755 104.952376 
L 157.425763 104.952376 
L 157.243292 104.016116 
L 158.128684 104.016116 
L 158.036966 103.547986 
L 158.477778 103.547986 
L 158.385874 103.079855 
L 161.441379 103.079855 
L 161.065116 101.207334 
L 161.496239 101.207334 
L 161.40232 100.739204 
L 162.688877 100.739204 
L 162.594059 100.271074 
L 163.446323 100.271074 
L 163.350987 99.802943 
L 164.621311 99.802943 
L 164.525109 99.334813 
L 164.946347 99.334813 
L 164.85 98.866683 
L 165.269967 98.866683 
L 165.173478 98.398552 
L 166.009978 98.398552 
L 165.816234 97.462292 
L 167.062136 97.462292 
L 166.867169 96.526031 
L 169.330909 96.526031 
L 169.231731 96.057901 
L 169.638954 96.057901 
L 169.440575 95.121641 
L 169.846277 95.121641 
L 169.747078 94.65351 
L 170.151592 94.65351 
L 170.05228 94.18538 
L 170.455614 94.18538 
L 170.35619 93.71725 
L 171.959747 93.71725 
L 171.859263 93.249119 
L 172.257729 93.249119 
L 172.056768 92.312859 
L 174.818438 92.312859 
L 174.716129 91.844729 
L 175.107069 91.844729 
L 175.004673 91.376598 
L 178.100824 91.376598 
L 177.996296 90.908468 
L 179.904197 90.908468 
L 179.798466 90.440338 
L 184.665288 90.440338 
L 184.55625 89.972207 
L 187.122523 89.972207 
L 187.0119 89.504077 
L 188.821791 89.504077 
L 188.710139 89.035947 
L 189.428571 89.035947 
L 189.31665 88.567817 
L 190.388241 88.567817 
L 190.163609 87.631556 
L 194.381579 87.631556 
L 194.266796 87.163426 
L 194.959767 87.163426 
L 194.844757 86.695296 
L 195.878509 86.695296 
L 195.763056 86.227165 
L 199.500287 86.227165 
L 199.382696 85.759035 
L 212.637626 85.759035 
L 212.5125 85.290905 
L 213.442713 85.290905 
L 213.192132 84.354644 
L 214.729508 84.354644 
L 214.603731 83.886514 
L 229.792441 83.886514 
L 229.659375 83.418384 
L 242.761699 83.418384 
L 242.623378 82.950253 
L 244.154056 82.950253 
L 244.015385 82.482123 
L 247.279051 82.482123 
L 247.139411 82.013993 
L 250.08996 82.013993 
L 249.949515 81.545862 
L 264.760615 81.545862 
L 264.615911 81.077732 
L 265.493103 81.077732 
L 265.348392 80.609602 
L 276.076492 80.609602 
L 275.929529 80.141472 
L 280.898265 80.141472 
L 280.750578 79.673341 
L 281.528818 79.673341 
L 281.38121 79.205211 
L 286.518432 79.205211 
L 286.370219 78.737081 
L 308.903938 78.737081 
L 308.754 78.268951 
L 310.613508 78.268951 
L 310.613508 78.268951 
" style="fill:none;stroke:#2ca02c;stroke-linecap:square;stroke-width:2;"/>
   </g>
   <g id="patch_3">
    <path d="M 76.5 448.56 
L 76.5 60.48 
" style="fill:none;stroke:#000000;stroke-linecap:square;stroke-linejoin:miter;stroke-width:0.8;"/>
   </g>
   <g id="patch_4">
    <path d="M 550.8 448.56 
L 550.8 60.48 
" style="fill:none;stroke:#000000;stroke-linecap:square;stroke-linejoin:miter;stroke-width:0.8;"/>
   </g>
   <g id="patch_5">
    <path d="M 76.5 448.56 
L 550.8 448.56 
" style="fill:none;stroke:#000000;stroke-linecap:square;stroke-linejoin:miter;stroke-width:0.8;"/>
   </g>
   <g id="patch_6">
    <path d="M 76.5 60.48 
L 550.8 60.48 
" style="fill:none;stroke:#000000;stroke-linecap:square;stroke-linejoin:miter;stroke-width:0.8;"/>
   </g>
   <g id="text_25">
    <!-- leuven: img1-img4 -->
    <defs>
     <path d="M 9.421875 75.984375 
L 18.40625 75.984375 
L 18.40625 0 
L 9.421875 0 
z
" id="DejaVuSans-108"/>
     <path d="M 8.5 21.578125 
L 8.5 54.6875 
L 17.484375 54.6875 
L 17.484375 21.921875 
Q 17.484375 14.15625 20.5 10.265625 
Q 23.53125 6.390625 29.59375 6.390625 
Q 36.859375 6.390625 41.078125 11.03125 
Q 45.3125 15.671875 45.3125 23.6875 
L 45.3125 54.6875 
L 54.296875 54.6875 
L 54.296875 0 
L 45.3125 0 
L 45.3125 8.40625 
Q 42.046875 3.421875 37.71875 1 
Q 33.40625 -1.421875 27.6875 -1.421875 
Q 18.265625 -1.421875 13.375 4.4375 
Q 8.5 10.296875 8.5 21.578125 
z
M 31.109375 56 
z
" id="DejaVuSans-117"/>
     <path d="M 2.984375 54.6875 
L 12.5 54.6875 
L 29.59375 8.796875 
L 46.6875 54.6875 
L 56.203125 54.6875 
L 35.6875 0 
L 23.484375 0 
z
" id="DejaVuSans-118"/>
     <path d="M 11.71875 12.40625 
L 22.015625 12.40625 
L 22.015625 0 
L 11.71875 0 
z
M 11.71875 51.703125 
L 22.015625 51.703125 
L 22.015625 39.3125 
L 11.71875 39.3125 
z
" id="DejaVuSans-58"/>
     <path id="DejaVuSans-32"/>
     <path d="M 52 44.1875 
Q 55.375 50.25 60.0625 53.125 
Q 64.75 56 71.09375 56 
Q 79.640625 56 84.28125 50.015625 
Q 88.921875 44.046875 88.921875 33.015625 
L 88.921875 0 
L 79.890625 0 
L 79.890625 32.71875 
Q 79.890625 40.578125 77.09375 44.375 
Q 74.3125 48.1875 68.609375 48.1875 
Q 61.625 48.1875 57.5625 43.546875 
Q 53.515625 38.921875 53.515625 30.90625 
L 53.515625 0 
L 44.484375 0 
L 44.484375 32.71875 
Q 44.484375 40.625 41.703125 44.40625 
Q 38.921875 48.1875 33.109375 48.1875 
Q 26.21875 48.1875 22.15625 43.53125 
Q 18.109375 38.875 18.109375 30.90625 
L 18.109375 0 
L 9.078125 0 
L 9.078125 54.6875 
L 18.109375 54.6875 
L 18.109375 46.1875 
Q 21.1875 51.21875 25.484375 53.609375 
Q 29.78125 56 35.6875 56 
Q 41.65625 56 45.828125 52.96875 
Q 50 49.953125 52 44.1875 
z
" id="DejaVuSans-109"/>
     <path d="M 45.40625 27.984375 
Q 45.40625 37.75 41.375 43.109375 
Q 37.359375 48.484375 30.078125 48.484375 
Q 22.859375 48.484375 18.828125 43.109375 
Q 14.796875 37.75 14.796875 27.984375 
Q 14.796875 18.265625 18.828125 12.890625 
Q 22.859375 7.515625 30.078125 7.515625 
Q 37.359375 7.515625 41.375 12.890625 
Q 45.40625 18.265625 45.40625 27.984375 
z
M 54.390625 6.78125 
Q 54.390625 -7.171875 48.1875 -13.984375 
Q 42 -20.796875 29.203125 -20.796875 
Q 24.46875 -20.796875 20.265625 -20.09375 
Q 16.0625 -19.390625 12.109375 -17.921875 
L 12.109375 -9.1875 
Q 16.0625 -11.328125 19.921875 -12.34375 
Q 23.78125 -13.375 27.78125 -13.375 
Q 36.625 -13.375 41.015625 -8.765625 
Q 45.40625 -4.15625 45.40625 5.171875 
L 45.40625 9.625 
Q 42.625 4.78125 38.28125 2.390625 
Q 33.9375 0 27.875 0 
Q 17.828125 0 11.671875 7.65625 
Q 5.515625 15.328125 5.515625 27.984375 
Q 5.515625 40.671875 11.671875 48.328125 
Q 17.828125 56 27.875 56 
Q 33.9375 56 38.28125 53.609375 
Q 42.625 51.21875 45.40625 46.390625 
L 45.40625 54.6875 
L 54.390625 54.6875 
z
" id="DejaVuSans-103"/>
    </defs>
    <g transform="translate(257.074688 41.042625)scale(0.12 -0.12)">
     <use xlink:href="#DejaVuSans-108"/>
     <use x="27.783203" xlink:href="#DejaVuSans-101"/>
     <use x="89.306641" xlink:href="#DejaVuSans-117"/>
     <use x="152.685547" xlink:href="#DejaVuSans-118"/>
     <use x="211.865234" xlink:href="#DejaVuSans-101"/>
     <use x="273.388672" xlink:href="#DejaVuSans-110"/>
     <use x="336.767578" xlink:href="#DejaVuSans-58"/>
     <use x="370.458984" xlink:href="#DejaVuSans-32"/>
     <use x="402.246094" xlink:href="#DejaVuSans-105"/>
     <use x="430.029297" xlink:href="#DejaVuSans-109"/>
     <use x="527.441406" xlink:href="#DejaVuSans-103"/>
     <use x="590.917969" xlink:href="#DejaVuSans-49"/>
     <use x="654.541016" xlink:href="#DejaVuSans-45"/>
     <use x="690.625" xlink:href="#DejaVuSans-105"/>
     <use x="718.408203" xlink:href="#DejaVuSans-109"/>
     <use x="815.820312" xlink:href="#DejaVuSans-103"/>
     <use x="879.296875" xlink:href="#DejaVuSans-52"/>
    </g>
    <!-- NearestNeighbours -->
    <defs>
     <path d="M 9.8125 72.90625 
L 23.09375 72.90625 
L 55.421875 11.921875 
L 55.421875 72.90625 
L 64.984375 72.90625 
L 64.984375 0 
L 51.703125 0 
L 19.390625 60.984375 
L 19.390625 0 
L 9.8125 0 
z
" id="DejaVuSans-78"/>
     <path d="M 34.28125 27.484375 
Q 23.390625 27.484375 19.1875 25 
Q 14.984375 22.515625 14.984375 16.5 
Q 14.984375 11.71875 18.140625 8.90625 
Q 21.296875 6.109375 26.703125 6.109375 
Q 34.1875 6.109375 38.703125 11.40625 
Q 43.21875 16.703125 43.21875 25.484375 
L 43.21875 27.484375 
z
M 52.203125 31.203125 
L 52.203125 0 
L 43.21875 0 
L 43.21875 8.296875 
Q 40.140625 3.328125 35.546875 0.953125 
Q 30.953125 -1.421875 24.3125 -1.421875 
Q 15.921875 -1.421875 10.953125 3.296875 
Q 6 8.015625 6 15.921875 
Q 6 25.140625 12.171875 29.828125 
Q 18.359375 34.515625 30.609375 34.515625 
L 43.21875 34.515625 
L 43.21875 35.40625 
Q 43.21875 41.609375 39.140625 45 
Q 35.0625 48.390625 27.6875 48.390625 
Q 23 48.390625 18.546875 47.265625 
Q 14.109375 46.140625 10.015625 43.890625 
L 10.015625 52.203125 
Q 14.9375 54.109375 19.578125 55.046875 
Q 24.21875 56 28.609375 56 
Q 40.484375 56 46.34375 49.84375 
Q 52.203125 43.703125 52.203125 31.203125 
z
" id="DejaVuSans-97"/>
     <path d="M 54.890625 33.015625 
L 54.890625 0 
L 45.90625 0 
L 45.90625 32.71875 
Q 45.90625 40.484375 42.875 44.328125 
Q 39.84375 48.1875 33.796875 48.1875 
Q 26.515625 48.1875 22.3125 43.546875 
Q 18.109375 38.921875 18.109375 30.90625 
L 18.109375 0 
L 9.078125 0 
L 9.078125 75.984375 
L 18.109375 75.984375 
L 18.109375 46.1875 
Q 21.34375 51.125 25.703125 53.5625 
Q 30.078125 56 35.796875 56 
Q 45.21875 56 50.046875 50.171875 
Q 54.890625 44.34375 54.890625 33.015625 
z
" id="DejaVuSans-104"/>
     <path d="M 48.6875 27.296875 
Q 48.6875 37.203125 44.609375 42.84375 
Q 40.53125 48.484375 33.40625 48.484375 
Q 26.265625 48.484375 22.1875 42.84375 
Q 18.109375 37.203125 18.109375 27.296875 
Q 18.109375 17.390625 22.1875 11.75 
Q 26.265625 6.109375 33.40625 6.109375 
Q 40.53125 6.109375 44.609375 11.75 
Q 48.6875 17.390625 48.6875 27.296875 
z
M 18.109375 46.390625 
Q 20.953125 51.265625 25.265625 53.625 
Q 29.59375 56 35.59375 56 
Q 45.5625 56 51.78125 48.09375 
Q 58.015625 40.1875 58.015625 27.296875 
Q 58.015625 14.40625 51.78125 6.484375 
Q 45.5625 -1.421875 35.59375 -1.421875 
Q 29.59375 -1.421875 25.265625 0.953125 
Q 20.953125 3.328125 18.109375 8.203125 
L 18.109375 0 
L 9.078125 0 
L 9.078125 75.984375 
L 18.109375 75.984375 
z
" id="DejaVuSans-98"/>
    </defs>
    <g transform="translate(255.957188 54.48)scale(0.12 -0.12)">
     <use xlink:href="#DejaVuSans-78"/>
     <use x="74.804688" xlink:href="#DejaVuSans-101"/>
     <use x="136.328125" xlink:href="#DejaVuSans-97"/>
     <use x="197.607422" xlink:href="#DejaVuSans-114"/>
     <use x="236.470703" xlink:href="#DejaVuSans-101"/>
     <use x="297.994141" xlink:href="#DejaVuSans-115"/>
     <use x="350.09375" xlink:href="#DejaVuSans-116"/>
     <use x="389.302734" xlink:href="#DejaVuSans-78"/>
     <use x="464.107422" xlink:href="#DejaVuSans-101"/>
     <use x="525.630859" xlink:href="#DejaVuSans-105"/>
     <use x="553.414062" xlink:href="#DejaVuSans-103"/>
     <use x="616.890625" xlink:href="#DejaVuSans-104"/>
     <use x="680.269531" xlink:href="#DejaVuSans-98"/>
     <use x="743.746094" xlink:href="#DejaVuSans-111"/>
     <use x="804.927734" xlink:href="#DejaVuSans-117"/>
     <use x="868.306641" xlink:href="#DejaVuSans-114"/>
     <use x="909.419922" xlink:href="#DejaVuSans-115"/>
    </g>
   </g>
   <g id="legend_1">
    <g id="patch_7">
     <path d="M 362.659375 112.514375 
L 543.8 112.514375 
Q 545.8 112.514375 545.8 110.514375 
L 545.8 67.48 
Q 545.8 65.48 543.8 65.48 
L 362.659375 65.48 
Q 360.659375 65.48 360.659375 67.48 
L 360.659375 110.514375 
Q 360.659375 112.514375 362.659375 112.514375 
z
" style="fill:#ffffff;opacity:0.8;stroke:#cccccc;stroke-linejoin:miter;"/>
    </g>
    <g id="line2d_48">
     <path d="M 364.659375 73.578438 
L 384.659375 73.578438 
" style="fill:none;stroke:#1f77b4;stroke-linecap:square;stroke-width:2;"/>
    </g>
    <g id="line2d_49"/>
    <g id="text_26">
     <!-- root-cvsift AP: 90.3, %In: 50.6 -->
     <defs>
      <path d="M 37.109375 75.984375 
L 37.109375 68.5 
L 28.515625 68.5 
Q 23.6875 68.5 21.796875 66.546875 
Q 19.921875 64.59375 19.921875 59.515625 
L 19.921875 54.6875 
L 34.71875 54.6875 
L 34.71875 47.703125 
L 19.921875 47.703125 
L 19.921875 0 
L 10.890625 0 
L 10.890625 47.703125 
L 2.296875 47.703125 
L 2.296875 54.6875 
L 10.890625 54.6875 
L 10.890625 58.5 
Q 10.890625 67.625 15.140625 71.796875 
Q 19.390625 75.984375 28.609375 75.984375 
z
" id="DejaVuSans-102"/>
      <path d="M 34.1875 63.1875 
L 20.796875 26.90625 
L 47.609375 26.90625 
z
M 28.609375 72.90625 
L 39.796875 72.90625 
L 67.578125 0 
L 57.328125 0 
L 50.6875 18.703125 
L 17.828125 18.703125 
L 11.1875 0 
L 0.78125 0 
z
" id="DejaVuSans-65"/>
      <path d="M 19.671875 64.796875 
L 19.671875 37.40625 
L 32.078125 37.40625 
Q 38.96875 37.40625 42.71875 40.96875 
Q 46.484375 44.53125 46.484375 51.125 
Q 46.484375 57.671875 42.71875 61.234375 
Q 38.96875 64.796875 32.078125 64.796875 
z
M 9.8125 72.90625 
L 32.078125 72.90625 
Q 44.34375 72.90625 50.609375 67.359375 
Q 56.890625 61.8125 56.890625 51.125 
Q 56.890625 40.328125 50.609375 34.8125 
Q 44.34375 29.296875 32.078125 29.296875 
L 19.671875 29.296875 
L 19.671875 0 
L 9.8125 0 
z
" id="DejaVuSans-80"/>
      <path d="M 11.71875 12.40625 
L 22.015625 12.40625 
L 22.015625 4 
L 14.015625 -11.625 
L 7.71875 -11.625 
L 11.71875 4 
z
" id="DejaVuSans-44"/>
      <path d="M 72.703125 32.078125 
Q 68.453125 32.078125 66.03125 28.46875 
Q 63.625 24.859375 63.625 18.40625 
Q 63.625 12.0625 66.03125 8.421875 
Q 68.453125 4.78125 72.703125 4.78125 
Q 76.859375 4.78125 79.265625 8.421875 
Q 81.6875 12.0625 81.6875 18.40625 
Q 81.6875 24.8125 79.265625 28.4375 
Q 76.859375 32.078125 72.703125 32.078125 
z
M 72.703125 38.28125 
Q 80.421875 38.28125 84.953125 32.90625 
Q 89.5 27.546875 89.5 18.40625 
Q 89.5 9.28125 84.9375 3.921875 
Q 80.375 -1.421875 72.703125 -1.421875 
Q 64.890625 -1.421875 60.34375 3.921875 
Q 55.8125 9.28125 55.8125 18.40625 
Q 55.8125 27.59375 60.375 32.9375 
Q 64.9375 38.28125 72.703125 38.28125 
z
M 22.3125 68.015625 
Q 18.109375 68.015625 15.6875 64.375 
Q 13.28125 60.75 13.28125 54.390625 
Q 13.28125 47.953125 15.671875 44.328125 
Q 18.0625 40.71875 22.3125 40.71875 
Q 26.5625 40.71875 28.96875 44.328125 
Q 31.390625 47.953125 31.390625 54.390625 
Q 31.390625 60.6875 28.953125 64.34375 
Q 26.515625 68.015625 22.3125 68.015625 
z
M 66.40625 74.21875 
L 74.21875 74.21875 
L 28.609375 -1.421875 
L 20.796875 -1.421875 
z
M 22.3125 74.21875 
Q 30.03125 74.21875 34.609375 68.875 
Q 39.203125 63.53125 39.203125 54.390625 
Q 39.203125 45.171875 34.640625 39.84375 
Q 30.078125 34.515625 22.3125 34.515625 
Q 14.546875 34.515625 10.03125 39.859375 
Q 5.515625 45.21875 5.515625 54.390625 
Q 5.515625 63.484375 10.046875 68.84375 
Q 14.59375 74.21875 22.3125 74.21875 
z
" id="DejaVuSans-37"/>
      <path d="M 9.8125 72.90625 
L 19.671875 72.90625 
L 19.671875 0 
L 9.8125 0 
z
" id="DejaVuSans-73"/>
     </defs>
     <g transform="translate(392.659375 77.078438)scale(0.1 -0.1)">
      <use xlink:href="#DejaVuSans-114"/>
      <use x="38.863281" xlink:href="#DejaVuSans-111"/>
      <use x="100.044922" xlink:href="#DejaVuSans-111"/>
      <use x="161.226562" xlink:href="#DejaVuSans-116"/>
      <use x="200.435547" xlink:href="#DejaVuSans-45"/>
      <use x="236.519531" xlink:href="#DejaVuSans-99"/>
      <use x="291.5" xlink:href="#DejaVuSans-118"/>
      <use x="350.679688" xlink:href="#DejaVuSans-115"/>
      <use x="402.779297" xlink:href="#DejaVuSans-105"/>
      <use x="430.5625" xlink:href="#DejaVuSans-102"/>
      <use x="464.017578" xlink:href="#DejaVuSans-116"/>
      <use x="503.226562" xlink:href="#DejaVuSans-32"/>
      <use x="535.013672" xlink:href="#DejaVuSans-65"/>
      <use x="603.421875" xlink:href="#DejaVuSans-80"/>
      <use x="663.724609" xlink:href="#DejaVuSans-58"/>
      <use x="697.416016" xlink:href="#DejaVuSans-32"/>
      <use x="729.203125" xlink:href="#DejaVuSans-57"/>
      <use x="792.826172" xlink:href="#DejaVuSans-48"/>
      <use x="856.449219" xlink:href="#DejaVuSans-46"/>
      <use x="888.236328" xlink:href="#DejaVuSans-51"/>
      <use x="951.859375" xlink:href="#DejaVuSans-44"/>
      <use x="983.646484" xlink:href="#DejaVuSans-32"/>
      <use x="1015.433594" xlink:href="#DejaVuSans-37"/>
      <use x="1110.453125" xlink:href="#DejaVuSans-73"/>
      <use x="1139.945312" xlink:href="#DejaVuSans-110"/>
      <use x="1203.324219" xlink:href="#DejaVuSans-58"/>
      <use x="1237.015625" xlink:href="#DejaVuSans-32"/>
      <use x="1268.802734" xlink:href="#DejaVuSans-53"/>
      <use x="1332.425781" xlink:href="#DejaVuSans-48"/>
      <use x="1396.048828" xlink:href="#DejaVuSans-46"/>
      <use x="1427.835938" xlink:href="#DejaVuSans-54"/>
     </g>
    </g>
    <g id="line2d_50">
     <path d="M 364.659375 88.256563 
L 384.659375 88.256563 
" style="fill:none;stroke:#ff7f0e;stroke-linecap:square;stroke-width:2;"/>
    </g>
    <g id="line2d_51"/>
    <g id="text_27">
     <!-- tfeat AP: 77.5, %In: 48.1 -->
     <g transform="translate(392.659375 91.756563)scale(0.1 -0.1)">
      <use xlink:href="#DejaVuSans-116"/>
      <use x="39.208984" xlink:href="#DejaVuSans-102"/>
      <use x="74.414062" xlink:href="#DejaVuSans-101"/>
      <use x="135.9375" xlink:href="#DejaVuSans-97"/>
      <use x="197.216797" xlink:href="#DejaVuSans-116"/>
      <use x="236.425781" xlink:href="#DejaVuSans-32"/>
      <use x="268.212891" xlink:href="#DejaVuSans-65"/>
      <use x="336.621094" xlink:href="#DejaVuSans-80"/>
      <use x="396.923828" xlink:href="#DejaVuSans-58"/>
      <use x="430.615234" xlink:href="#DejaVuSans-32"/>
      <use x="462.402344" xlink:href="#DejaVuSans-55"/>
      <use x="526.025391" xlink:href="#DejaVuSans-55"/>
      <use x="589.648438" xlink:href="#DejaVuSans-46"/>
      <use x="621.435547" xlink:href="#DejaVuSans-53"/>
      <use x="685.058594" xlink:href="#DejaVuSans-44"/>
      <use x="716.845703" xlink:href="#DejaVuSans-32"/>
      <use x="748.632812" xlink:href="#DejaVuSans-37"/>
      <use x="843.652344" xlink:href="#DejaVuSans-73"/>
      <use x="873.144531" xlink:href="#DejaVuSans-110"/>
      <use x="936.523438" xlink:href="#DejaVuSans-58"/>
      <use x="970.214844" xlink:href="#DejaVuSans-32"/>
      <use x="1002.001953" xlink:href="#DejaVuSans-52"/>
      <use x="1065.625" xlink:href="#DejaVuSans-56"/>
      <use x="1129.248047" xlink:href="#DejaVuSans-46"/>
      <use x="1161.035156" xlink:href="#DejaVuSans-49"/>
     </g>
    </g>
    <g id="line2d_52">
     <path d="M 364.659375 102.934687 
L 384.659375 102.934687 
" style="fill:none;stroke:#2ca02c;stroke-linecap:square;stroke-width:2;"/>
    </g>
    <g id="line2d_53"/>
    <g id="text_28">
     <!-- hardnet AP: 88.8, %In: 50.6 -->
     <defs>
      <path d="M 45.40625 46.390625 
L 45.40625 75.984375 
L 54.390625 75.984375 
L 54.390625 0 
L 45.40625 0 
L 45.40625 8.203125 
Q 42.578125 3.328125 38.25 0.953125 
Q 33.9375 -1.421875 27.875 -1.421875 
Q 17.96875 -1.421875 11.734375 6.484375 
Q 5.515625 14.40625 5.515625 27.296875 
Q 5.515625 40.1875 11.734375 48.09375 
Q 17.96875 56 27.875 56 
Q 33.9375 56 38.25 53.625 
Q 42.578125 51.265625 45.40625 46.390625 
z
M 14.796875 27.296875 
Q 14.796875 17.390625 18.875 11.75 
Q 22.953125 6.109375 30.078125 6.109375 
Q 37.203125 6.109375 41.296875 11.75 
Q 45.40625 17.390625 45.40625 27.296875 
Q 45.40625 37.203125 41.296875 42.84375 
Q 37.203125 48.484375 30.078125 48.484375 
Q 22.953125 48.484375 18.875 42.84375 
Q 14.796875 37.203125 14.796875 27.296875 
z
" id="DejaVuSans-100"/>
     </defs>
     <g transform="translate(392.659375 106.434687)scale(0.1 -0.1)">
      <use xlink:href="#DejaVuSans-104"/>
      <use x="63.378906" xlink:href="#DejaVuSans-97"/>
      <use x="124.658203" xlink:href="#DejaVuSans-114"/>
      <use x="164.021484" xlink:href="#DejaVuSans-100"/>
      <use x="227.498047" xlink:href="#DejaVuSans-110"/>
      <use x="290.876953" xlink:href="#DejaVuSans-101"/>
      <use x="352.400391" xlink:href="#DejaVuSans-116"/>
      <use x="391.609375" xlink:href="#DejaVuSans-32"/>
      <use x="423.396484" xlink:href="#DejaVuSans-65"/>
      <use x="491.804688" xlink:href="#DejaVuSans-80"/>
      <use x="552.107422" xlink:href="#DejaVuSans-58"/>
      <use x="585.798828" xlink:href="#DejaVuSans-32"/>
      <use x="617.585938" xlink:href="#DejaVuSans-56"/>
      <use x="681.208984" xlink:href="#DejaVuSans-56"/>
      <use x="744.832031" xlink:href="#DejaVuSans-46"/>
      <use x="776.619141" xlink:href="#DejaVuSans-56"/>
      <use x="840.242188" xlink:href="#DejaVuSans-44"/>
      <use x="872.029297" xlink:href="#DejaVuSans-32"/>
      <use x="903.816406" xlink:href="#DejaVuSans-37"/>
      <use x="998.835938" xlink:href="#DejaVuSans-73"/>
      <use x="1028.328125" xlink:href="#DejaVuSans-110"/>
      <use x="1091.707031" xlink:href="#DejaVuSans-58"/>
      <use x="1125.398438" xlink:href="#DejaVuSans-32"/>
      <use x="1157.185547" xlink:href="#DejaVuSans-53"/>
      <use x="1220.808594" xlink:href="#DejaVuSans-48"/>
      <use x="1284.431641" xlink:href="#DejaVuSans-46"/>
      <use x="1316.21875" xlink:href="#DejaVuSans-54"/>
     </g>
    </g>
   </g>
  </g>
 </g>
 <defs>
  <clipPath id="p7fe53650d1">
   <rect height="388.08" width="474.3" x="76.5" y="60.48"/>
  </clipPath>
 </defs>
</svg>
