<?xml version="1.0" encoding="utf-8" standalone="no"?>
<!DOCTYPE svg PUBLIC "-//W3C//DTD SVG 1.1//EN"
  "http://www.w3.org/Graphics/SVG/1.1/DTD/svg11.dtd">
<!-- Created with matplotlib (https://matplotlib.org/) -->
<svg height="504pt" version="1.1" viewBox="0 0 612 504" width="612pt" xmlns="http://www.w3.org/2000/svg" xmlns:xlink="http://www.w3.org/1999/xlink">
 <defs>
  <style type="text/css">
*{stroke-linecap:butt;stroke-linejoin:round;}
  </style>
 </defs>
 <g id="figure_1">
  <g id="patch_1">
   <path d="M 0 504 
L 612 504 
L 612 0 
L 0 0 
z
" style="fill:#ffffff;"/>
  </g>
  <g id="axes_1">
   <g id="patch_2">
    <path d="M 76.5 448.56 
L 550.8 448.56 
L 550.8 60.48 
L 76.5 60.48 
z
" style="fill:#ffffff;"/>
   </g>
   <g id="matplotlib.axis_1">
    <g id="xtick_1">
     <g id="line2d_1">
      <path clip-path="url(#p5527d6e36b)" d="M 76.5 448.56 
L 76.5 60.48 
" style="fill:none;stroke:#b0b0b0;stroke-linecap:square;stroke-width:0.8;"/>
     </g>
     <g id="line2d_2">
      <defs>
       <path d="M 0 0 
L 0 3.5 
" id="m793488379e" style="stroke:#000000;stroke-width:0.8;"/>
      </defs>
      <g>
       <use style="stroke:#000000;stroke-width:0.8;" x="76.5" xlink:href="#m793488379e" y="448.56"/>
      </g>
     </g>
     <g id="text_1">
      <!-- 0.0 -->
      <defs>
       <path d="M 31.78125 66.40625 
Q 24.171875 66.40625 20.328125 58.90625 
Q 16.5 51.421875 16.5 36.375 
Q 16.5 21.390625 20.328125 13.890625 
Q 24.171875 6.390625 31.78125 6.390625 
Q 39.453125 6.390625 43.28125 13.890625 
Q 47.125 21.390625 47.125 36.375 
Q 47.125 51.421875 43.28125 58.90625 
Q 39.453125 66.40625 31.78125 66.40625 
z
M 31.78125 74.21875 
Q 44.046875 74.21875 50.515625 64.515625 
Q 56.984375 54.828125 56.984375 36.375 
Q 56.984375 17.96875 50.515625 8.265625 
Q 44.046875 -1.421875 31.78125 -1.421875 
Q 19.53125 -1.421875 13.0625 8.265625 
Q 6.59375 17.96875 6.59375 36.375 
Q 6.59375 54.828125 13.0625 64.515625 
Q 19.53125 74.21875 31.78125 74.21875 
z
" id="DejaVuSans-48"/>
       <path d="M 10.6875 12.40625 
L 21 12.40625 
L 21 0 
L 10.6875 0 
z
" id="DejaVuSans-46"/>
      </defs>
      <g transform="translate(68.548438 463.158437)scale(0.1 -0.1)">
       <use xlink:href="#DejaVuSans-48"/>
       <use x="63.623047" xlink:href="#DejaVuSans-46"/>
       <use x="95.410156" xlink:href="#DejaVuSans-48"/>
      </g>
     </g>
    </g>
    <g id="xtick_2">
     <g id="line2d_3">
      <path clip-path="url(#p5527d6e36b)" d="M 123.93 448.56 
L 123.93 60.48 
" style="fill:none;stroke:#b0b0b0;stroke-linecap:square;stroke-width:0.8;"/>
     </g>
     <g id="line2d_4">
      <g>
       <use style="stroke:#000000;stroke-width:0.8;" x="123.93" xlink:href="#m793488379e" y="448.56"/>
      </g>
     </g>
     <g id="text_2">
      <!-- 0.1 -->
      <defs>
       <path d="M 12.40625 8.296875 
L 28.515625 8.296875 
L 28.515625 63.921875 
L 10.984375 60.40625 
L 10.984375 69.390625 
L 28.421875 72.90625 
L 38.28125 72.90625 
L 38.28125 8.296875 
L 54.390625 8.296875 
L 54.390625 0 
L 12.40625 0 
z
" id="DejaVuSans-49"/>
      </defs>
      <g transform="translate(115.978438 463.158437)scale(0.1 -0.1)">
       <use xlink:href="#DejaVuSans-48"/>
       <use x="63.623047" xlink:href="#DejaVuSans-46"/>
       <use x="95.410156" xlink:href="#DejaVuSans-49"/>
      </g>
     </g>
    </g>
    <g id="xtick_3">
     <g id="line2d_5">
      <path clip-path="url(#p5527d6e36b)" d="M 171.36 448.56 
L 171.36 60.48 
" style="fill:none;stroke:#b0b0b0;stroke-linecap:square;stroke-width:0.8;"/>
     </g>
     <g id="line2d_6">
      <g>
       <use style="stroke:#000000;stroke-width:0.8;" x="171.36" xlink:href="#m793488379e" y="448.56"/>
      </g>
     </g>
     <g id="text_3">
      <!-- 0.2 -->
      <defs>
       <path d="M 19.1875 8.296875 
L 53.609375 8.296875 
L 53.609375 0 
L 7.328125 0 
L 7.328125 8.296875 
Q 12.9375 14.109375 22.625 23.890625 
Q 32.328125 33.6875 34.8125 36.53125 
Q 39.546875 41.84375 41.421875 45.53125 
Q 43.3125 49.21875 43.3125 52.78125 
Q 43.3125 58.59375 39.234375 62.25 
Q 35.15625 65.921875 28.609375 65.921875 
Q 23.96875 65.921875 18.8125 64.3125 
Q 13.671875 62.703125 7.8125 59.421875 
L 7.8125 69.390625 
Q 13.765625 71.78125 18.9375 73 
Q 24.125 74.21875 28.421875 74.21875 
Q 39.75 74.21875 46.484375 68.546875 
Q 53.21875 62.890625 53.21875 53.421875 
Q 53.21875 48.921875 51.53125 44.890625 
Q 49.859375 40.875 45.40625 35.40625 
Q 44.1875 33.984375 37.640625 27.21875 
Q 31.109375 20.453125 19.1875 8.296875 
z
" id="DejaVuSans-50"/>
      </defs>
      <g transform="translate(163.408438 463.158437)scale(0.1 -0.1)">
       <use xlink:href="#DejaVuSans-48"/>
       <use x="63.623047" xlink:href="#DejaVuSans-46"/>
       <use x="95.410156" xlink:href="#DejaVuSans-50"/>
      </g>
     </g>
    </g>
    <g id="xtick_4">
     <g id="line2d_7">
      <path clip-path="url(#p5527d6e36b)" d="M 218.79 448.56 
L 218.79 60.48 
" style="fill:none;stroke:#b0b0b0;stroke-linecap:square;stroke-width:0.8;"/>
     </g>
     <g id="line2d_8">
      <g>
       <use style="stroke:#000000;stroke-width:0.8;" x="218.79" xlink:href="#m793488379e" y="448.56"/>
      </g>
     </g>
     <g id="text_4">
      <!-- 0.3 -->
      <defs>
       <path d="M 40.578125 39.3125 
Q 47.65625 37.796875 51.625 33 
Q 55.609375 28.21875 55.609375 21.1875 
Q 55.609375 10.40625 48.1875 4.484375 
Q 40.765625 -1.421875 27.09375 -1.421875 
Q 22.515625 -1.421875 17.65625 -0.515625 
Q 12.796875 0.390625 7.625 2.203125 
L 7.625 11.71875 
Q 11.71875 9.328125 16.59375 8.109375 
Q 21.484375 6.890625 26.8125 6.890625 
Q 36.078125 6.890625 40.9375 10.546875 
Q 45.796875 14.203125 45.796875 21.1875 
Q 45.796875 27.640625 41.28125 31.265625 
Q 36.765625 34.90625 28.71875 34.90625 
L 20.21875 34.90625 
L 20.21875 43.015625 
L 29.109375 43.015625 
Q 36.375 43.015625 40.234375 45.921875 
Q 44.09375 48.828125 44.09375 54.296875 
Q 44.09375 59.90625 40.109375 62.90625 
Q 36.140625 65.921875 28.71875 65.921875 
Q 24.65625 65.921875 20.015625 65.03125 
Q 15.375 64.15625 9.8125 62.3125 
L 9.8125 71.09375 
Q 15.4375 72.65625 20.34375 73.4375 
Q 25.25 74.21875 29.59375 74.21875 
Q 40.828125 74.21875 47.359375 69.109375 
Q 53.90625 64.015625 53.90625 55.328125 
Q 53.90625 49.265625 50.4375 45.09375 
Q 46.96875 40.921875 40.578125 39.3125 
z
" id="DejaVuSans-51"/>
      </defs>
      <g transform="translate(210.838438 463.158437)scale(0.1 -0.1)">
       <use xlink:href="#DejaVuSans-48"/>
       <use x="63.623047" xlink:href="#DejaVuSans-46"/>
       <use x="95.410156" xlink:href="#DejaVuSans-51"/>
      </g>
     </g>
    </g>
    <g id="xtick_5">
     <g id="line2d_9">
      <path clip-path="url(#p5527d6e36b)" d="M 266.22 448.56 
L 266.22 60.48 
" style="fill:none;stroke:#b0b0b0;stroke-linecap:square;stroke-width:0.8;"/>
     </g>
     <g id="line2d_10">
      <g>
       <use style="stroke:#000000;stroke-width:0.8;" x="266.22" xlink:href="#m793488379e" y="448.56"/>
      </g>
     </g>
     <g id="text_5">
      <!-- 0.4 -->
      <defs>
       <path d="M 37.796875 64.3125 
L 12.890625 25.390625 
L 37.796875 25.390625 
z
M 35.203125 72.90625 
L 47.609375 72.90625 
L 47.609375 25.390625 
L 58.015625 25.390625 
L 58.015625 17.1875 
L 47.609375 17.1875 
L 47.609375 0 
L 37.796875 0 
L 37.796875 17.1875 
L 4.890625 17.1875 
L 4.890625 26.703125 
z
" id="DejaVuSans-52"/>
      </defs>
      <g transform="translate(258.268438 463.158437)scale(0.1 -0.1)">
       <use xlink:href="#DejaVuSans-48"/>
       <use x="63.623047" xlink:href="#DejaVuSans-46"/>
       <use x="95.410156" xlink:href="#DejaVuSans-52"/>
      </g>
     </g>
    </g>
    <g id="xtick_6">
     <g id="line2d_11">
      <path clip-path="url(#p5527d6e36b)" d="M 313.65 448.56 
L 313.65 60.48 
" style="fill:none;stroke:#b0b0b0;stroke-linecap:square;stroke-width:0.8;"/>
     </g>
     <g id="line2d_12">
      <g>
       <use style="stroke:#000000;stroke-width:0.8;" x="313.65" xlink:href="#m793488379e" y="448.56"/>
      </g>
     </g>
     <g id="text_6">
      <!-- 0.5 -->
      <defs>
       <path d="M 10.796875 72.90625 
L 49.515625 72.90625 
L 49.515625 64.59375 
L 19.828125 64.59375 
L 19.828125 46.734375 
Q 21.96875 47.46875 24.109375 47.828125 
Q 26.265625 48.1875 28.421875 48.1875 
Q 40.625 48.1875 47.75 41.5 
Q 54.890625 34.8125 54.890625 23.390625 
Q 54.890625 11.625 47.5625 5.09375 
Q 40.234375 -1.421875 26.90625 -1.421875 
Q 22.3125 -1.421875 17.546875 -0.640625 
Q 12.796875 0.140625 7.71875 1.703125 
L 7.71875 11.625 
Q 12.109375 9.234375 16.796875 8.0625 
Q 21.484375 6.890625 26.703125 6.890625 
Q 35.15625 6.890625 40.078125 11.328125 
Q 45.015625 15.765625 45.015625 23.390625 
Q 45.015625 31 40.078125 35.4375 
Q 35.15625 39.890625 26.703125 39.890625 
Q 22.75 39.890625 18.8125 39.015625 
Q 14.890625 38.140625 10.796875 36.28125 
z
" id="DejaVuSans-53"/>
      </defs>
      <g transform="translate(305.698438 463.158437)scale(0.1 -0.1)">
       <use xlink:href="#DejaVuSans-48"/>
       <use x="63.623047" xlink:href="#DejaVuSans-46"/>
       <use x="95.410156" xlink:href="#DejaVuSans-53"/>
      </g>
     </g>
    </g>
    <g id="xtick_7">
     <g id="line2d_13">
      <path clip-path="url(#p5527d6e36b)" d="M 361.08 448.56 
L 361.08 60.48 
" style="fill:none;stroke:#b0b0b0;stroke-linecap:square;stroke-width:0.8;"/>
     </g>
     <g id="line2d_14">
      <g>
       <use style="stroke:#000000;stroke-width:0.8;" x="361.08" xlink:href="#m793488379e" y="448.56"/>
      </g>
     </g>
     <g id="text_7">
      <!-- 0.6 -->
      <defs>
       <path d="M 33.015625 40.375 
Q 26.375 40.375 22.484375 35.828125 
Q 18.609375 31.296875 18.609375 23.390625 
Q 18.609375 15.53125 22.484375 10.953125 
Q 26.375 6.390625 33.015625 6.390625 
Q 39.65625 6.390625 43.53125 10.953125 
Q 47.40625 15.53125 47.40625 23.390625 
Q 47.40625 31.296875 43.53125 35.828125 
Q 39.65625 40.375 33.015625 40.375 
z
M 52.59375 71.296875 
L 52.59375 62.3125 
Q 48.875 64.0625 45.09375 64.984375 
Q 41.3125 65.921875 37.59375 65.921875 
Q 27.828125 65.921875 22.671875 59.328125 
Q 17.53125 52.734375 16.796875 39.40625 
Q 19.671875 43.65625 24.015625 45.921875 
Q 28.375 48.1875 33.59375 48.1875 
Q 44.578125 48.1875 50.953125 41.515625 
Q 57.328125 34.859375 57.328125 23.390625 
Q 57.328125 12.15625 50.6875 5.359375 
Q 44.046875 -1.421875 33.015625 -1.421875 
Q 20.359375 -1.421875 13.671875 8.265625 
Q 6.984375 17.96875 6.984375 36.375 
Q 6.984375 53.65625 15.1875 63.9375 
Q 23.390625 74.21875 37.203125 74.21875 
Q 40.921875 74.21875 44.703125 73.484375 
Q 48.484375 72.75 52.59375 71.296875 
z
" id="DejaVuSans-54"/>
      </defs>
      <g transform="translate(353.128438 463.158437)scale(0.1 -0.1)">
       <use xlink:href="#DejaVuSans-48"/>
       <use x="63.623047" xlink:href="#DejaVuSans-46"/>
       <use x="95.410156" xlink:href="#DejaVuSans-54"/>
      </g>
     </g>
    </g>
    <g id="xtick_8">
     <g id="line2d_15">
      <path clip-path="url(#p5527d6e36b)" d="M 408.51 448.56 
L 408.51 60.48 
" style="fill:none;stroke:#b0b0b0;stroke-linecap:square;stroke-width:0.8;"/>
     </g>
     <g id="line2d_16">
      <g>
       <use style="stroke:#000000;stroke-width:0.8;" x="408.51" xlink:href="#m793488379e" y="448.56"/>
      </g>
     </g>
     <g id="text_8">
      <!-- 0.7 -->
      <defs>
       <path d="M 8.203125 72.90625 
L 55.078125 72.90625 
L 55.078125 68.703125 
L 28.609375 0 
L 18.3125 0 
L 43.21875 64.59375 
L 8.203125 64.59375 
z
" id="DejaVuSans-55"/>
      </defs>
      <g transform="translate(400.558438 463.158437)scale(0.1 -0.1)">
       <use xlink:href="#DejaVuSans-48"/>
       <use x="63.623047" xlink:href="#DejaVuSans-46"/>
       <use x="95.410156" xlink:href="#DejaVuSans-55"/>
      </g>
     </g>
    </g>
    <g id="xtick_9">
     <g id="line2d_17">
      <path clip-path="url(#p5527d6e36b)" d="M 455.94 448.56 
L 455.94 60.48 
" style="fill:none;stroke:#b0b0b0;stroke-linecap:square;stroke-width:0.8;"/>
     </g>
     <g id="line2d_18">
      <g>
       <use style="stroke:#000000;stroke-width:0.8;" x="455.94" xlink:href="#m793488379e" y="448.56"/>
      </g>
     </g>
     <g id="text_9">
      <!-- 0.8 -->
      <defs>
       <path d="M 31.78125 34.625 
Q 24.75 34.625 20.71875 30.859375 
Q 16.703125 27.09375 16.703125 20.515625 
Q 16.703125 13.921875 20.71875 10.15625 
Q 24.75 6.390625 31.78125 6.390625 
Q 38.8125 6.390625 42.859375 10.171875 
Q 46.921875 13.96875 46.921875 20.515625 
Q 46.921875 27.09375 42.890625 30.859375 
Q 38.875 34.625 31.78125 34.625 
z
M 21.921875 38.8125 
Q 15.578125 40.375 12.03125 44.71875 
Q 8.5 49.078125 8.5 55.328125 
Q 8.5 64.0625 14.71875 69.140625 
Q 20.953125 74.21875 31.78125 74.21875 
Q 42.671875 74.21875 48.875 69.140625 
Q 55.078125 64.0625 55.078125 55.328125 
Q 55.078125 49.078125 51.53125 44.71875 
Q 48 40.375 41.703125 38.8125 
Q 48.828125 37.15625 52.796875 32.3125 
Q 56.78125 27.484375 56.78125 20.515625 
Q 56.78125 9.90625 50.3125 4.234375 
Q 43.84375 -1.421875 31.78125 -1.421875 
Q 19.734375 -1.421875 13.25 4.234375 
Q 6.78125 9.90625 6.78125 20.515625 
Q 6.78125 27.484375 10.78125 32.3125 
Q 14.796875 37.15625 21.921875 38.8125 
z
M 18.3125 54.390625 
Q 18.3125 48.734375 21.84375 45.5625 
Q 25.390625 42.390625 31.78125 42.390625 
Q 38.140625 42.390625 41.71875 45.5625 
Q 45.3125 48.734375 45.3125 54.390625 
Q 45.3125 60.0625 41.71875 63.234375 
Q 38.140625 66.40625 31.78125 66.40625 
Q 25.390625 66.40625 21.84375 63.234375 
Q 18.3125 60.0625 18.3125 54.390625 
z
" id="DejaVuSans-56"/>
      </defs>
      <g transform="translate(447.988438 463.158437)scale(0.1 -0.1)">
       <use xlink:href="#DejaVuSans-48"/>
       <use x="63.623047" xlink:href="#DejaVuSans-46"/>
       <use x="95.410156" xlink:href="#DejaVuSans-56"/>
      </g>
     </g>
    </g>
    <g id="xtick_10">
     <g id="line2d_19">
      <path clip-path="url(#p5527d6e36b)" d="M 503.37 448.56 
L 503.37 60.48 
" style="fill:none;stroke:#b0b0b0;stroke-linecap:square;stroke-width:0.8;"/>
     </g>
     <g id="line2d_20">
      <g>
       <use style="stroke:#000000;stroke-width:0.8;" x="503.37" xlink:href="#m793488379e" y="448.56"/>
      </g>
     </g>
     <g id="text_10">
      <!-- 0.9 -->
      <defs>
       <path d="M 10.984375 1.515625 
L 10.984375 10.5 
Q 14.703125 8.734375 18.5 7.8125 
Q 22.3125 6.890625 25.984375 6.890625 
Q 35.75 6.890625 40.890625 13.453125 
Q 46.046875 20.015625 46.78125 33.40625 
Q 43.953125 29.203125 39.59375 26.953125 
Q 35.25 24.703125 29.984375 24.703125 
Q 19.046875 24.703125 12.671875 31.3125 
Q 6.296875 37.9375 6.296875 49.421875 
Q 6.296875 60.640625 12.9375 67.421875 
Q 19.578125 74.21875 30.609375 74.21875 
Q 43.265625 74.21875 49.921875 64.515625 
Q 56.59375 54.828125 56.59375 36.375 
Q 56.59375 19.140625 48.40625 8.859375 
Q 40.234375 -1.421875 26.421875 -1.421875 
Q 22.703125 -1.421875 18.890625 -0.6875 
Q 15.09375 0.046875 10.984375 1.515625 
z
M 30.609375 32.421875 
Q 37.25 32.421875 41.125 36.953125 
Q 45.015625 41.5 45.015625 49.421875 
Q 45.015625 57.28125 41.125 61.84375 
Q 37.25 66.40625 30.609375 66.40625 
Q 23.96875 66.40625 20.09375 61.84375 
Q 16.21875 57.28125 16.21875 49.421875 
Q 16.21875 41.5 20.09375 36.953125 
Q 23.96875 32.421875 30.609375 32.421875 
z
" id="DejaVuSans-57"/>
      </defs>
      <g transform="translate(495.418438 463.158437)scale(0.1 -0.1)">
       <use xlink:href="#DejaVuSans-48"/>
       <use x="63.623047" xlink:href="#DejaVuSans-46"/>
       <use x="95.410156" xlink:href="#DejaVuSans-57"/>
      </g>
     </g>
    </g>
    <g id="xtick_11">
     <g id="line2d_21">
      <path clip-path="url(#p5527d6e36b)" d="M 550.8 448.56 
L 550.8 60.48 
" style="fill:none;stroke:#b0b0b0;stroke-linecap:square;stroke-width:0.8;"/>
     </g>
     <g id="line2d_22">
      <g>
       <use style="stroke:#000000;stroke-width:0.8;" x="550.8" xlink:href="#m793488379e" y="448.56"/>
      </g>
     </g>
     <g id="text_11">
      <!-- 1.0 -->
      <g transform="translate(542.848438 463.158437)scale(0.1 -0.1)">
       <use xlink:href="#DejaVuSans-49"/>
       <use x="63.623047" xlink:href="#DejaVuSans-46"/>
       <use x="95.410156" xlink:href="#DejaVuSans-48"/>
      </g>
     </g>
    </g>
    <g id="text_12">
     <!-- 1-precision -->
     <defs>
      <path d="M 4.890625 31.390625 
L 31.203125 31.390625 
L 31.203125 23.390625 
L 4.890625 23.390625 
z
" id="DejaVuSans-45"/>
      <path d="M 18.109375 8.203125 
L 18.109375 -20.796875 
L 9.078125 -20.796875 
L 9.078125 54.6875 
L 18.109375 54.6875 
L 18.109375 46.390625 
Q 20.953125 51.265625 25.265625 53.625 
Q 29.59375 56 35.59375 56 
Q 45.5625 56 51.78125 48.09375 
Q 58.015625 40.1875 58.015625 27.296875 
Q 58.015625 14.40625 51.78125 6.484375 
Q 45.5625 -1.421875 35.59375 -1.421875 
Q 29.59375 -1.421875 25.265625 0.953125 
Q 20.953125 3.328125 18.109375 8.203125 
z
M 48.6875 27.296875 
Q 48.6875 37.203125 44.609375 42.84375 
Q 40.53125 48.484375 33.40625 48.484375 
Q 26.265625 48.484375 22.1875 42.84375 
Q 18.109375 37.203125 18.109375 27.296875 
Q 18.109375 17.390625 22.1875 11.75 
Q 26.265625 6.109375 33.40625 6.109375 
Q 40.53125 6.109375 44.609375 11.75 
Q 48.6875 17.390625 48.6875 27.296875 
z
" id="DejaVuSans-112"/>
      <path d="M 41.109375 46.296875 
Q 39.59375 47.171875 37.8125 47.578125 
Q 36.03125 48 33.890625 48 
Q 26.265625 48 22.1875 43.046875 
Q 18.109375 38.09375 18.109375 28.8125 
L 18.109375 0 
L 9.078125 0 
L 9.078125 54.6875 
L 18.109375 54.6875 
L 18.109375 46.1875 
Q 20.953125 51.171875 25.484375 53.578125 
Q 30.03125 56 36.53125 56 
Q 37.453125 56 38.578125 55.875 
Q 39.703125 55.765625 41.0625 55.515625 
z
" id="DejaVuSans-114"/>
      <path d="M 56.203125 29.59375 
L 56.203125 25.203125 
L 14.890625 25.203125 
Q 15.484375 15.921875 20.484375 11.0625 
Q 25.484375 6.203125 34.421875 6.203125 
Q 39.59375 6.203125 44.453125 7.46875 
Q 49.3125 8.734375 54.109375 11.28125 
L 54.109375 2.78125 
Q 49.265625 0.734375 44.1875 -0.34375 
Q 39.109375 -1.421875 33.890625 -1.421875 
Q 20.796875 -1.421875 13.15625 6.1875 
Q 5.515625 13.8125 5.515625 26.8125 
Q 5.515625 40.234375 12.765625 48.109375 
Q 20.015625 56 32.328125 56 
Q 43.359375 56 49.78125 48.890625 
Q 56.203125 41.796875 56.203125 29.59375 
z
M 47.21875 32.234375 
Q 47.125 39.59375 43.09375 43.984375 
Q 39.0625 48.390625 32.421875 48.390625 
Q 24.90625 48.390625 20.390625 44.140625 
Q 15.875 39.890625 15.1875 32.171875 
z
" id="DejaVuSans-101"/>
      <path d="M 48.78125 52.59375 
L 48.78125 44.1875 
Q 44.96875 46.296875 41.140625 47.34375 
Q 37.3125 48.390625 33.40625 48.390625 
Q 24.65625 48.390625 19.8125 42.84375 
Q 14.984375 37.3125 14.984375 27.296875 
Q 14.984375 17.28125 19.8125 11.734375 
Q 24.65625 6.203125 33.40625 6.203125 
Q 37.3125 6.203125 41.140625 7.25 
Q 44.96875 8.296875 48.78125 10.40625 
L 48.78125 2.09375 
Q 45.015625 0.34375 40.984375 -0.53125 
Q 36.96875 -1.421875 32.421875 -1.421875 
Q 20.0625 -1.421875 12.78125 6.34375 
Q 5.515625 14.109375 5.515625 27.296875 
Q 5.515625 40.671875 12.859375 48.328125 
Q 20.21875 56 33.015625 56 
Q 37.15625 56 41.109375 55.140625 
Q 45.0625 54.296875 48.78125 52.59375 
z
" id="DejaVuSans-99"/>
      <path d="M 9.421875 54.6875 
L 18.40625 54.6875 
L 18.40625 0 
L 9.421875 0 
z
M 9.421875 75.984375 
L 18.40625 75.984375 
L 18.40625 64.59375 
L 9.421875 64.59375 
z
" id="DejaVuSans-105"/>
      <path d="M 44.28125 53.078125 
L 44.28125 44.578125 
Q 40.484375 46.53125 36.375 47.5 
Q 32.28125 48.484375 27.875 48.484375 
Q 21.1875 48.484375 17.84375 46.4375 
Q 14.5 44.390625 14.5 40.28125 
Q 14.5 37.15625 16.890625 35.375 
Q 19.28125 33.59375 26.515625 31.984375 
L 29.59375 31.296875 
Q 39.15625 29.25 43.1875 25.515625 
Q 47.21875 21.78125 47.21875 15.09375 
Q 47.21875 7.46875 41.1875 3.015625 
Q 35.15625 -1.421875 24.609375 -1.421875 
Q 20.21875 -1.421875 15.453125 -0.5625 
Q 10.6875 0.296875 5.421875 2 
L 5.421875 11.28125 
Q 10.40625 8.6875 15.234375 7.390625 
Q 20.0625 6.109375 24.8125 6.109375 
Q 31.15625 6.109375 34.5625 8.28125 
Q 37.984375 10.453125 37.984375 14.40625 
Q 37.984375 18.0625 35.515625 20.015625 
Q 33.0625 21.96875 24.703125 23.78125 
L 21.578125 24.515625 
Q 13.234375 26.265625 9.515625 29.90625 
Q 5.8125 33.546875 5.8125 39.890625 
Q 5.8125 47.609375 11.28125 51.796875 
Q 16.75 56 26.8125 56 
Q 31.78125 56 36.171875 55.265625 
Q 40.578125 54.546875 44.28125 53.078125 
z
" id="DejaVuSans-115"/>
      <path d="M 30.609375 48.390625 
Q 23.390625 48.390625 19.1875 42.75 
Q 14.984375 37.109375 14.984375 27.296875 
Q 14.984375 17.484375 19.15625 11.84375 
Q 23.34375 6.203125 30.609375 6.203125 
Q 37.796875 6.203125 41.984375 11.859375 
Q 46.1875 17.53125 46.1875 27.296875 
Q 46.1875 37.015625 41.984375 42.703125 
Q 37.796875 48.390625 30.609375 48.390625 
z
M 30.609375 56 
Q 42.328125 56 49.015625 48.375 
Q 55.71875 40.765625 55.71875 27.296875 
Q 55.71875 13.875 49.015625 6.21875 
Q 42.328125 -1.421875 30.609375 -1.421875 
Q 18.84375 -1.421875 12.171875 6.21875 
Q 5.515625 13.875 5.515625 27.296875 
Q 5.515625 40.765625 12.171875 48.375 
Q 18.84375 56 30.609375 56 
z
" id="DejaVuSans-111"/>
      <path d="M 54.890625 33.015625 
L 54.890625 0 
L 45.90625 0 
L 45.90625 32.71875 
Q 45.90625 40.484375 42.875 44.328125 
Q 39.84375 48.1875 33.796875 48.1875 
Q 26.515625 48.1875 22.3125 43.546875 
Q 18.109375 38.921875 18.109375 30.90625 
L 18.109375 0 
L 9.078125 0 
L 9.078125 54.6875 
L 18.109375 54.6875 
L 18.109375 46.1875 
Q 21.34375 51.125 25.703125 53.5625 
Q 30.078125 56 35.796875 56 
Q 45.21875 56 50.046875 50.171875 
Q 54.890625 44.34375 54.890625 33.015625 
z
" id="DejaVuSans-110"/>
     </defs>
     <g transform="translate(286 476.836563)scale(0.1 -0.1)">
      <use xlink:href="#DejaVuSans-49"/>
      <use x="63.623047" xlink:href="#DejaVuSans-45"/>
      <use x="99.707031" xlink:href="#DejaVuSans-112"/>
      <use x="163.183594" xlink:href="#DejaVuSans-114"/>
      <use x="204.265625" xlink:href="#DejaVuSans-101"/>
      <use x="265.789062" xlink:href="#DejaVuSans-99"/>
      <use x="320.769531" xlink:href="#DejaVuSans-105"/>
      <use x="348.552734" xlink:href="#DejaVuSans-115"/>
      <use x="400.652344" xlink:href="#DejaVuSans-105"/>
      <use x="428.435547" xlink:href="#DejaVuSans-111"/>
      <use x="489.617188" xlink:href="#DejaVuSans-110"/>
     </g>
    </g>
   </g>
   <g id="matplotlib.axis_2">
    <g id="ytick_1">
     <g id="line2d_23">
      <path clip-path="url(#p5527d6e36b)" d="M 76.5 448.56 
L 550.8 448.56 
" style="fill:none;stroke:#b0b0b0;stroke-linecap:square;stroke-width:0.8;"/>
     </g>
     <g id="line2d_24">
      <defs>
       <path d="M 0 0 
L -3.5 0 
" id="m580d026aea" style="stroke:#000000;stroke-width:0.8;"/>
      </defs>
      <g>
       <use style="stroke:#000000;stroke-width:0.8;" x="76.5" xlink:href="#m580d026aea" y="448.56"/>
      </g>
     </g>
     <g id="text_13">
      <!-- 0.0 -->
      <g transform="translate(53.596875 452.359219)scale(0.1 -0.1)">
       <use xlink:href="#DejaVuSans-48"/>
       <use x="63.623047" xlink:href="#DejaVuSans-46"/>
       <use x="95.410156" xlink:href="#DejaVuSans-48"/>
      </g>
     </g>
    </g>
    <g id="ytick_2">
     <g id="line2d_25">
      <path clip-path="url(#p5527d6e36b)" d="M 76.5 409.752 
L 550.8 409.752 
" style="fill:none;stroke:#b0b0b0;stroke-linecap:square;stroke-width:0.8;"/>
     </g>
     <g id="line2d_26">
      <g>
       <use style="stroke:#000000;stroke-width:0.8;" x="76.5" xlink:href="#m580d026aea" y="409.752"/>
      </g>
     </g>
     <g id="text_14">
      <!-- 0.1 -->
      <g transform="translate(53.596875 413.551219)scale(0.1 -0.1)">
       <use xlink:href="#DejaVuSans-48"/>
       <use x="63.623047" xlink:href="#DejaVuSans-46"/>
       <use x="95.410156" xlink:href="#DejaVuSans-49"/>
      </g>
     </g>
    </g>
    <g id="ytick_3">
     <g id="line2d_27">
      <path clip-path="url(#p5527d6e36b)" d="M 76.5 370.944 
L 550.8 370.944 
" style="fill:none;stroke:#b0b0b0;stroke-linecap:square;stroke-width:0.8;"/>
     </g>
     <g id="line2d_28">
      <g>
       <use style="stroke:#000000;stroke-width:0.8;" x="76.5" xlink:href="#m580d026aea" y="370.944"/>
      </g>
     </g>
     <g id="text_15">
      <!-- 0.2 -->
      <g transform="translate(53.596875 374.743219)scale(0.1 -0.1)">
       <use xlink:href="#DejaVuSans-48"/>
       <use x="63.623047" xlink:href="#DejaVuSans-46"/>
       <use x="95.410156" xlink:href="#DejaVuSans-50"/>
      </g>
     </g>
    </g>
    <g id="ytick_4">
     <g id="line2d_29">
      <path clip-path="url(#p5527d6e36b)" d="M 76.5 332.136 
L 550.8 332.136 
" style="fill:none;stroke:#b0b0b0;stroke-linecap:square;stroke-width:0.8;"/>
     </g>
     <g id="line2d_30">
      <g>
       <use style="stroke:#000000;stroke-width:0.8;" x="76.5" xlink:href="#m580d026aea" y="332.136"/>
      </g>
     </g>
     <g id="text_16">
      <!-- 0.3 -->
      <g transform="translate(53.596875 335.935219)scale(0.1 -0.1)">
       <use xlink:href="#DejaVuSans-48"/>
       <use x="63.623047" xlink:href="#DejaVuSans-46"/>
       <use x="95.410156" xlink:href="#DejaVuSans-51"/>
      </g>
     </g>
    </g>
    <g id="ytick_5">
     <g id="line2d_31">
      <path clip-path="url(#p5527d6e36b)" d="M 76.5 293.328 
L 550.8 293.328 
" style="fill:none;stroke:#b0b0b0;stroke-linecap:square;stroke-width:0.8;"/>
     </g>
     <g id="line2d_32">
      <g>
       <use style="stroke:#000000;stroke-width:0.8;" x="76.5" xlink:href="#m580d026aea" y="293.328"/>
      </g>
     </g>
     <g id="text_17">
      <!-- 0.4 -->
      <g transform="translate(53.596875 297.127219)scale(0.1 -0.1)">
       <use xlink:href="#DejaVuSans-48"/>
       <use x="63.623047" xlink:href="#DejaVuSans-46"/>
       <use x="95.410156" xlink:href="#DejaVuSans-52"/>
      </g>
     </g>
    </g>
    <g id="ytick_6">
     <g id="line2d_33">
      <path clip-path="url(#p5527d6e36b)" d="M 76.5 254.52 
L 550.8 254.52 
" style="fill:none;stroke:#b0b0b0;stroke-linecap:square;stroke-width:0.8;"/>
     </g>
     <g id="line2d_34">
      <g>
       <use style="stroke:#000000;stroke-width:0.8;" x="76.5" xlink:href="#m580d026aea" y="254.52"/>
      </g>
     </g>
     <g id="text_18">
      <!-- 0.5 -->
      <g transform="translate(53.596875 258.319219)scale(0.1 -0.1)">
       <use xlink:href="#DejaVuSans-48"/>
       <use x="63.623047" xlink:href="#DejaVuSans-46"/>
       <use x="95.410156" xlink:href="#DejaVuSans-53"/>
      </g>
     </g>
    </g>
    <g id="ytick_7">
     <g id="line2d_35">
      <path clip-path="url(#p5527d6e36b)" d="M 76.5 215.712 
L 550.8 215.712 
" style="fill:none;stroke:#b0b0b0;stroke-linecap:square;stroke-width:0.8;"/>
     </g>
     <g id="line2d_36">
      <g>
       <use style="stroke:#000000;stroke-width:0.8;" x="76.5" xlink:href="#m580d026aea" y="215.712"/>
      </g>
     </g>
     <g id="text_19">
      <!-- 0.6 -->
      <g transform="translate(53.596875 219.511219)scale(0.1 -0.1)">
       <use xlink:href="#DejaVuSans-48"/>
       <use x="63.623047" xlink:href="#DejaVuSans-46"/>
       <use x="95.410156" xlink:href="#DejaVuSans-54"/>
      </g>
     </g>
    </g>
    <g id="ytick_8">
     <g id="line2d_37">
      <path clip-path="url(#p5527d6e36b)" d="M 76.5 176.904 
L 550.8 176.904 
" style="fill:none;stroke:#b0b0b0;stroke-linecap:square;stroke-width:0.8;"/>
     </g>
     <g id="line2d_38">
      <g>
       <use style="stroke:#000000;stroke-width:0.8;" x="76.5" xlink:href="#m580d026aea" y="176.904"/>
      </g>
     </g>
     <g id="text_20">
      <!-- 0.7 -->
      <g transform="translate(53.596875 180.703219)scale(0.1 -0.1)">
       <use xlink:href="#DejaVuSans-48"/>
       <use x="63.623047" xlink:href="#DejaVuSans-46"/>
       <use x="95.410156" xlink:href="#DejaVuSans-55"/>
      </g>
     </g>
    </g>
    <g id="ytick_9">
     <g id="line2d_39">
      <path clip-path="url(#p5527d6e36b)" d="M 76.5 138.096 
L 550.8 138.096 
" style="fill:none;stroke:#b0b0b0;stroke-linecap:square;stroke-width:0.8;"/>
     </g>
     <g id="line2d_40">
      <g>
       <use style="stroke:#000000;stroke-width:0.8;" x="76.5" xlink:href="#m580d026aea" y="138.096"/>
      </g>
     </g>
     <g id="text_21">
      <!-- 0.8 -->
      <g transform="translate(53.596875 141.895219)scale(0.1 -0.1)">
       <use xlink:href="#DejaVuSans-48"/>
       <use x="63.623047" xlink:href="#DejaVuSans-46"/>
       <use x="95.410156" xlink:href="#DejaVuSans-56"/>
      </g>
     </g>
    </g>
    <g id="ytick_10">
     <g id="line2d_41">
      <path clip-path="url(#p5527d6e36b)" d="M 76.5 99.288 
L 550.8 99.288 
" style="fill:none;stroke:#b0b0b0;stroke-linecap:square;stroke-width:0.8;"/>
     </g>
     <g id="line2d_42">
      <g>
       <use style="stroke:#000000;stroke-width:0.8;" x="76.5" xlink:href="#m580d026aea" y="99.288"/>
      </g>
     </g>
     <g id="text_22">
      <!-- 0.9 -->
      <g transform="translate(53.596875 103.087219)scale(0.1 -0.1)">
       <use xlink:href="#DejaVuSans-48"/>
       <use x="63.623047" xlink:href="#DejaVuSans-46"/>
       <use x="95.410156" xlink:href="#DejaVuSans-57"/>
      </g>
     </g>
    </g>
    <g id="ytick_11">
     <g id="line2d_43">
      <path clip-path="url(#p5527d6e36b)" d="M 76.5 60.48 
L 550.8 60.48 
" style="fill:none;stroke:#b0b0b0;stroke-linecap:square;stroke-width:0.8;"/>
     </g>
     <g id="line2d_44">
      <g>
       <use style="stroke:#000000;stroke-width:0.8;" x="76.5" xlink:href="#m580d026aea" y="60.48"/>
      </g>
     </g>
     <g id="text_23">
      <!-- 1.0 -->
      <g transform="translate(53.596875 64.279219)scale(0.1 -0.1)">
       <use xlink:href="#DejaVuSans-49"/>
       <use x="63.623047" xlink:href="#DejaVuSans-46"/>
       <use x="95.410156" xlink:href="#DejaVuSans-48"/>
      </g>
     </g>
    </g>
    <g id="text_24">
     <!-- #correct/653 -->
     <defs>
      <path d="M 51.125 44 
L 36.921875 44 
L 32.8125 27.6875 
L 47.125 27.6875 
z
M 43.796875 71.78125 
L 38.71875 51.515625 
L 52.984375 51.515625 
L 58.109375 71.78125 
L 65.921875 71.78125 
L 60.890625 51.515625 
L 76.125 51.515625 
L 76.125 44 
L 58.984375 44 
L 54.984375 27.6875 
L 70.515625 27.6875 
L 70.515625 20.21875 
L 53.078125 20.21875 
L 48 0 
L 40.1875 0 
L 45.21875 20.21875 
L 30.90625 20.21875 
L 25.875 0 
L 18.015625 0 
L 23.09375 20.21875 
L 7.71875 20.21875 
L 7.71875 27.6875 
L 24.90625 27.6875 
L 29 44 
L 13.28125 44 
L 13.28125 51.515625 
L 30.90625 51.515625 
L 35.890625 71.78125 
z
" id="DejaVuSans-35"/>
      <path d="M 18.3125 70.21875 
L 18.3125 54.6875 
L 36.8125 54.6875 
L 36.8125 47.703125 
L 18.3125 47.703125 
L 18.3125 18.015625 
Q 18.3125 11.328125 20.140625 9.421875 
Q 21.96875 7.515625 27.59375 7.515625 
L 36.8125 7.515625 
L 36.8125 0 
L 27.59375 0 
Q 17.1875 0 13.234375 3.875 
Q 9.28125 7.765625 9.28125 18.015625 
L 9.28125 47.703125 
L 2.6875 47.703125 
L 2.6875 54.6875 
L 9.28125 54.6875 
L 9.28125 70.21875 
z
" id="DejaVuSans-116"/>
      <path d="M 25.390625 72.90625 
L 33.6875 72.90625 
L 8.296875 -9.28125 
L 0 -9.28125 
z
" id="DejaVuSans-47"/>
     </defs>
     <g transform="translate(47.517187 287.641094)rotate(-90)scale(0.1 -0.1)">
      <use xlink:href="#DejaVuSans-35"/>
      <use x="83.789062" xlink:href="#DejaVuSans-99"/>
      <use x="138.769531" xlink:href="#DejaVuSans-111"/>
      <use x="199.951172" xlink:href="#DejaVuSans-114"/>
      <use x="241.048828" xlink:href="#DejaVuSans-114"/>
      <use x="282.130859" xlink:href="#DejaVuSans-101"/>
      <use x="343.654297" xlink:href="#DejaVuSans-99"/>
      <use x="398.634766" xlink:href="#DejaVuSans-116"/>
      <use x="437.84375" xlink:href="#DejaVuSans-47"/>
      <use x="471.535156" xlink:href="#DejaVuSans-54"/>
      <use x="535.158203" xlink:href="#DejaVuSans-53"/>
      <use x="598.78125" xlink:href="#DejaVuSans-51"/>
     </g>
    </g>
   </g>
   <g id="line2d_45">
    <path clip-path="url(#p5527d6e36b)" d="M 76.5 447.965697 
L 76.5 261.354487 
L 78.000949 261.354487 
L 77.859026 241.742481 
L 79.210286 241.742481 
L 79.098904 232.827933 
L 80.387705 232.827933 
L 80.377112 232.233629 
L 81.655435 232.233629 
L 81.532361 226.8849 
L 82.77381 226.8849 
L 82.549745 218.564655 
L 84.92665 218.564655 
L 84.405 203.112772 
L 85.512827 203.112772 
L 85.324186 197.764043 
L 87.479167 197.764043 
L 87.182432 190.632404 
L 88.22427 190.632404 
L 88.042699 186.472282 
L 89.064238 186.472282 
L 88.927074 183.500766 
L 91.932755 183.500766 
L 91.8 181.123553 
L 92.784979 181.123553 
L 92.68081 179.340643 
L 93.655532 179.340643 
L 93.510759 176.96343 
L 94.473474 176.96343 
L 94.360669 175.180521 
L 95.31357 175.180521 
L 95.235343 173.991914 
L 96.180498 173.991914 
L 95.859184 169.237489 
L 98.627586 169.237489 
L 98.582794 168.643185 
L 99.496364 168.643185 
L 99.312024 166.265972 
L 100.215 166.265972 
L 100.073559 164.483063 
L 100.967857 164.483063 
L 100.823077 162.700153 
L 101.708858 162.700153 
L 101.560861 160.917243 
L 102.438281 160.917243 
L 102.337354 159.728637 
L 103.208155 159.728637 
L 103.002312 157.351424 
L 103.863462 157.351424 
L 103.65458 154.974211 
L 107.042045 154.974211 
L 106.812406 152.596998 
L 109.302056 152.596998 
L 109.179888 151.408392 
L 110.000743 151.408392 
L 109.93859 150.814089 
L 110.755 150.814089 
L 110.565746 149.031179 
L 113.785009 149.031179 
L 113.716971 148.436876 
L 115.306364 148.436876 
L 115.235935 147.842573 
L 119.927828 147.842573 
L 119.772451 146.653966 
L 120.542143 146.653966 
L 120.463636 146.059663 
L 122.75266 146.059663 
L 122.670796 145.46536 
L 125.680492 145.46536 
L 125.594211 144.871057 
L 127.080944 144.871057 
L 126.99267 144.276753 
L 127.73101 144.276753 
L 127.553125 143.088147 
L 128.286655 143.088147 
L 128.197059 142.493844 
L 129.65431 142.493844 
L 129.562823 141.899541 
L 132.443077 141.899541 
L 132.347611 141.305237 
L 138.677143 141.305237 
L 138.572819 140.710934 
L 139.263317 140.710934 
L 139.158361 140.116631 
L 141.893522 140.116631 
L 141.785075 139.522328 
L 143.13719 139.522328 
L 143.027228 138.928025 
L 147.683687 138.928025 
L 147.567752 138.333721 
L 148.223415 138.333721 
L 147.990924 137.145115 
L 149.94 137.145115 
L 149.821739 136.550812 
L 152.388 136.550812 
L 152.266773 135.956508 
L 156.673934 135.956508 
L 156.547476 135.362205 
L 159.019279 135.362205 
L 158.890141 134.767902 
L 163.736012 134.767902 
L 163.46718 133.579296 
L 166.42844 133.579296 
L 166.154268 132.390689 
L 171.92973 132.390689 
L 171.786657 131.796386 
L 177.385081 131.796386 
L 177.236283 131.202083 
L 184.264255 131.202083 
L 184.108526 130.607779 
L 190.870213 130.607779 
L 190.708215 130.013476 
L 201.109766 130.013476 
L 200.938599 129.419173 
L 204.74144 129.419173 
L 204.393902 128.230567 
L 211.744695 128.230567 
L 211.565563 127.636263 
L 217.307813 127.636263 
L 217.124707 127.04196 
L 218.851358 127.04196 
L 218.667442 126.447657 
L 219.523454 126.447657 
L 219.339382 125.853354 
L 237.10341 125.853354 
L 236.908029 125.259051 
L 241.42446 125.259051 
L 241.226946 124.664747 
L 244.890533 124.664747 
L 244.691489 124.070444 
L 246.490012 124.070444 
L 246.290493 123.476141 
L 255.307859 123.476141 
L 255.104437 122.881838 
L 266.116101 122.881838 
L 265.908643 122.287534 
L 270.206573 122.287534 
L 269.998062 121.693231 
L 304.468555 121.693231 
L 304.253491 121.098928 
L 318.4984 121.098928 
L 318.283481 120.504625 
L 331.709121 120.504625 
L 331.495736 119.910322 
L 334.03314 119.910322 
L 333.820479 119.316018 
L 336.475204 119.316018 
L 336.263325 118.721715 
L 339.195096 118.721715 
L 338.984096 118.127412 
L 341.837401 118.127412 
L 341.627316 117.533109 
L 351.113605 117.533109 
L 350.906193 116.938806 
L 353.292985 116.938806 
L 353.086577 116.344502 
L 369.697746 116.344502 
L 369.497611 115.750199 
L 380.319897 115.750199 
L 380.125016 115.155896 
L 380.234423 115.155896 
L 380.561804 115.155896 
L 380.367391 114.561593 
L 380.476294 114.561593 
L 385.544823 114.561593 
L 385.353346 113.967289 
L 385.455789 113.967289 
L 385.762361 113.967289 
L 385.57134 113.372986 
L 385.673333 113.372986 
L 400.092845 113.372986 
L 399.910642 112.778683 
L 399.995554 112.778683 
L 403.47757 112.778683 
L 403.297912 112.18438 
L 403.378913 112.18438 
L 413.131385 112.18438 
L 412.958842 111.590077 
L 413.029457 111.590077 
L 417.930385 111.590077 
L 417.761778 110.995773 
L 417.827443 110.995773 
L 428.288677 110.995773 
L 428.128773 110.40147 
L 428.240191 110.40147 
L 430.587661 110.40147 
L 430.430009 109.807167 
L 430.5371 109.807167 
L 436.19593 109.807167 
L 436.043517 109.212864 
L 436.140686 109.212864 
L 438.050083 109.212864 
L 437.899625 108.61856 
L 437.993514 108.61856 
L 440.828537 108.61856 
L 440.680916 108.024257 
L 440.770081 108.024257 
L 441.741453 108.024257 
L 441.594946 107.429954 
L 441.682485 107.429954 
L 459.74709 107.429954 
L 459.618957 106.835651 
L 459.710321 106.835651 
L 464.65897 106.835651 
L 464.536407 106.241348 
L 464.645222 106.241348 
L 468.437383 106.241348 
L 468.319259 105.647044 
L 468.418573 105.647044 
L 471.977679 105.647044 
L 471.863807 105.052741 
L 471.954616 105.052741 
L 480.488279 105.052741 
L 480.384692 104.458438 
L 480.492857 104.458438 
L 482.230787 104.458438 
L 482.129506 103.864135 
L 482.232203 103.864135 
L 482.85878 103.864135 
L 482.85878 103.864135 
" style="fill:none;stroke:#1f77b4;stroke-linecap:square;stroke-width:2;"/>
   </g>
   <g id="line2d_46">
    <path clip-path="url(#p5527d6e36b)" d="M 76.5 447.965697 
L 76.5 353.471485 
L 79.445963 353.471485 
L 79.05 338.613905 
L 81.572727 338.613905 
L 81.060577 326.133538 
L 83.308134 326.133538 
L 82.768282 315.43608 
L 84.821053 315.43608 
L 84.642489 312.464564 
L 86.634615 312.464564 
L 86.591489 311.87026 
L 88.558475 311.87026 
L 88.163115 307.115835 
L 90.051429 307.115835 
L 89.996341 306.521531 
L 91.861943 306.521531 
L 91.438583 302.361409 
L 93.24 302.361409 
L 92.427985 294.635467 
L 94.13197 294.635467 
L 93.9375 292.852557 
L 97.272263 292.852557 
L 96.682979 288.098132 
L 98.287633 288.098132 
L 97.121739 278.58928 
L 100.136213 278.58928 
L 99.902961 276.806371 
L 101.381311 276.806371 
L 101.138961 275.023461 
L 102.594175 275.023461 
L 102.178662 272.051945 
L 103.602857 272.051945 
L 103.517089 271.457642 
L 104.928076 271.457642 
L 104.661563 269.674732 
L 106.051402 269.674732 
L 105.959627 269.080429 
L 107.336842 269.080429 
L 106.774468 265.514609 
L 108.12 265.514609 
L 107.929518 264.326003 
L 110.581437 264.326003 
L 110.178107 261.94879 
L 111.477876 261.94879 
L 111.375 261.354487 
L 112.663636 261.354487 
L 112.45277 260.165881 
L 113.727035 260.165881 
L 113.61913 259.571577 
L 114.882659 259.571577 
L 114.662069 258.382971 
L 117.154286 258.382971 
L 117.038462 257.788668 
L 119.496034 257.788668 
L 119.374576 257.194364 
L 123 257.194364 
L 122.870112 256.600061 
L 124.062117 256.600061 
L 123.798615 255.411455 
L 126.15124 255.411455 
L 125.744262 253.628545 
L 126.902452 253.628545 
L 126.765489 253.034242 
L 127.914634 253.034242 
L 127.637466 251.845636 
L 129.906434 251.845636 
L 129.480319 250.062726 
L 131.709524 250.062726 
L 131.563852 249.468423 
L 134.856283 249.468423 
L 134.401558 247.685513 
L 136.553488 247.685513 
L 136.24473 246.496907 
L 140.464122 246.496907 
L 140.301777 245.902603 
L 143.403778 245.902603 
L 143.068421 244.713997 
L 144.08775 244.713997 
L 143.751493 243.525391 
L 145.766584 243.525391 
L 145.595556 242.931087 
L 147.586732 242.931087 
L 147.4125 242.336784 
L 148.398778 242.336784 
L 148.223415 241.742481 
L 150.17767 241.742481 
L 149.469231 239.365268 
L 152.342721 239.365268 
L 151.803555 237.582358 
L 152.746809 237.582358 
L 152.566981 236.988055 
L 154.43662 236.988055 
L 154.07243 235.799449 
L 154.997203 235.799449 
L 154.814651 235.205145 
L 162.04726 235.205145 
L 161.852392 234.610842 
L 165.364334 234.610842 
L 165.164189 234.016539 
L 166.893498 234.016539 
L 166.691275 233.422236 
L 167.548661 233.422236 
L 167.34588 232.827933 
L 182.125696 232.827933 
L 181.9 232.233629 
L 187.336421 232.233629 
L 187.103571 231.639326 
L 190.134375 231.639326 
L 189.898129 231.045023 
L 191.392547 231.045023 
L 191.155165 230.45072 
L 214.761197 230.45072 
L 214.494798 229.856417 
L 219.6 229.856417 
L 219.328977 229.262113 
L 221.201695 229.262113 
L 220.929699 228.66781 
L 227.015867 228.66781 
L 226.738674 228.073507 
L 227.334375 228.073507 
L 227.057615 227.479204 
L 237.408171 227.479204 
L 237.122872 226.8849 
L 239.331866 226.8849 
L 239.045694 226.290597 
L 243.9 226.290597 
L 243.610881 225.696294 
L 246.761538 225.696294 
L 246.47099 225.101991 
L 246.989438 225.101991 
L 246.69949 224.507688 
L 248.243147 224.507688 
L 247.953041 223.913384 
L 248.463744 223.913384 
L 248.174242 223.319081 
L 249.694975 223.319081 
L 249.405351 222.724778 
L 249.908514 222.724778 
L 249.331448 221.536172 
L 257.149109 221.536172 
L 256.856796 220.941868 
L 260.613259 220.941868 
L 260.319617 220.347565 
L 260.782166 220.347565 
L 260.489189 219.753262 
L 261.40935 219.753262 
L 261.116772 219.158959 
L 262.938679 219.158959 
L 262.645997 218.564655 
L 266.22 218.564655 
L 265.926316 217.970352 
L 273.648795 217.970352 
L 273.056757 216.781746 
L 273.473163 216.781746 
L 273.178293 216.187443 
L 278.0775 216.187443 
L 277.781498 215.593139 
L 284.812017 215.593139 
L 284.514429 214.998836 
L 284.894294 214.998836 
L 284.597436 214.404533 
L 285.730213 214.404533 
L 285.138331 213.215926 
L 287.373913 213.215926 
L 287.078571 212.621623 
L 288.547772 212.621623 
L 288.252851 212.02732 
L 288.6175 212.02732 
L 288.323301 211.433017 
L 291.913953 211.433017 
L 291.326194 210.24441 
L 291.6797 210.24441 
L 291.386939 209.650107 
L 294.525 209.650107 
L 294.232349 209.055804 
L 319.671947 209.055804 
L 319.378261 208.461501 
L 326.423888 208.461501 
L 326.131579 207.867198 
L 326.917133 207.867198 
L 326.625611 207.272894 
L 327.146341 207.272894 
L 326.855568 206.678591 
L 328.659494 206.678591 
L 328.369655 206.084288 
L 329.893151 206.084288 
L 329.604219 205.489985 
L 334.294754 205.489985 
L 334.007358 204.895681 
L 339.656678 204.895681 
L 339.371258 204.301378 
L 339.600325 204.301378 
L 339.315584 203.707075 
L 344.886828 203.707075 
L 344.604316 203.112772 
L 345.0375 203.112772 
L 344.755719 202.518469 
L 345.616928 202.518469 
L 345.336013 201.924165 
L 345.764063 201.924165 
L 345.483871 201.329862 
L 359.051895 201.329862 
L 358.777573 200.735559 
L 360.440905 200.735559 
L 360.167885 200.141256 
L 360.533781 200.141256 
L 360.261457 199.546953 
L 368.309917 199.546953 
L 368.042202 198.952649 
L 371.979533 198.952649 
L 371.714529 198.358346 
L 374.403975 198.358346 
L 374.141041 197.764043 
L 374.917223 197.764043 
L 374.655224 197.16974 
L 375.117951 197.16974 
L 374.856693 196.575436 
L 376.079583 196.575436 
L 375.819531 195.981133 
L 376.274026 195.981133 
L 376.014706 195.38683 
L 378.253629 195.38683 
L 377.99616 194.792527 
L 378.876316 194.792527 
L 378.619847 194.198224 
L 379.924242 194.198224 
L 379.66905 193.60392 
L 380.528285 193.60392 
L 380.27408 193.009617 
L 381.407143 193.009617 
L 381.154108 192.415314 
L 402.774439 192.415314 
L 402.53835 191.821011 
L 402.645553 191.821011 
L 408.014216 191.821011 
L 407.783357 191.226708 
L 407.882881 191.226708 
L 412.78125 191.226708 
L 412.555406 190.632404 
L 412.648188 190.632404 
L 413.202273 190.632404 
L 412.977355 190.038101 
L 413.069359 190.038101 
L 414.07336 190.038101 
L 413.626539 188.849495 
L 413.717262 188.849495 
L 418.8655 188.849495 
L 418.64771 188.255191 
L 418.731723 188.255191 
L 420.553354 188.255191 
L 420.337782 187.660888 
L 420.419474 187.660888 
L 422.82354 187.660888 
L 422.610811 187.066585 
L 422.689503 187.066585 
L 423.858394 187.066585 
L 423.647234 186.472282 
L 423.724484 186.472282 
L 424.64421 186.472282 
L 424.434358 185.877979 
L 424.510482 185.877979 
L 425.641433 185.877979 
L 425.433115 185.283675 
L 425.507871 185.283675 
L 426.17669 185.283675 
L 425.969413 184.689372 
L 426.043365 184.689372 
L 432.624242 184.689372 
L 432.424509 184.095069 
L 432.490863 184.095069 
L 433.150334 184.095069 
L 432.951643 183.500766 
L 433.017261 183.500766 
L 433.799004 183.500766 
L 433.601493 182.906462 
L 433.666243 182.906462 
L 437.666542 182.906462 
L 437.47392 182.312159 
L 437.534328 182.312159 
L 442.609369 182.312159 
L 442.423053 181.717856 
L 442.533249 181.717856 
L 442.917173 181.717856 
L 442.731646 181.123553 
L 442.840971 181.123553 
L 444.295509 181.123553 
L 444.11207 180.52925 
L 444.218386 180.52925 
L 444.536066 180.52925 
L 444.353327 179.934946 
L 444.458929 179.934946 
L 446.931977 179.934946 
L 446.752591 179.340643 
L 446.853266 179.340643 
L 449.26035 179.340643 
L 449.08427 178.74634 
L 449.180274 178.74634 
L 452.788075 178.74634 
L 452.535211 177.557734 
L 454.760568 177.557734 
L 454.592676 176.96343 
L 454.678004 176.96343 
L 458.011002 176.96343 
L 457.847754 176.369127 
L 457.927234 176.369127 
L 465.411085 176.369127 
L 465.258271 175.774824 
L 465.358987 175.774824 
L 466.090389 175.774824 
L 465.938856 175.180521 
L 466.037762 175.180521 
L 469.933432 175.180521 
L 469.787662 174.586217 
L 469.877609 174.586217 
L 479.531323 174.586217 
L 479.292055 173.397611 
L 479.361841 173.397611 
L 480.166066 173.397611 
L 480.03627 172.803308 
L 480.149856 172.803308 
L 487.139254 172.803308 
L 487.020503 172.209005 
L 487.130976 172.209005 
L 487.623403 172.209005 
L 487.50567 171.614701 
L 487.614237 171.614701 
L 489.130413 171.614701 
L 489.015314 171.020398 
L 489.118546 171.020398 
L 496.095604 171.020398 
L 496.095604 171.020398 
" style="fill:none;stroke:#ff7f0e;stroke-linecap:square;stroke-width:2;"/>
   </g>
   <g id="line2d_47">
    <path clip-path="url(#p5527d6e36b)" d="M 76.5 447.965697 
L 76.5 288.098132 
L 78.250185 288.098132 
L 77.895 247.09121 
L 79.281818 247.09121 
L 78.951163 219.753262 
L 80.167268 219.753262 
L 80.039552 211.433017 
L 81.207692 211.433017 
L 81.038756 202.518469 
L 82.159905 202.518469 
L 82.09316 199.546953 
L 83.196 199.546953 
L 83.149065 197.764043 
L 84.239161 197.764043 
L 84.080137 192.415314 
L 85.14328 192.415314 
L 84.988591 187.660888 
L 88.094 187.660888 
L 87.99185 185.283675 
L 89.009011 185.283675 
L 88.713734 178.74634 
L 89.703212 178.74634 
L 89.591083 176.369127 
L 90.56822 176.369127 
L 90.45 173.991914 
L 91.415094 173.991914 
L 91.352818 172.803308 
L 92.31 172.803308 
L 92.179339 170.426095 
L 94.066667 170.426095 
L 93.207241 155.568515 
L 94.100977 155.568515 
L 94.066667 154.974211 
L 95.840388 154.974211 
L 95.581034 150.814089 
L 96.451434 150.814089 
L 96.2625 147.842573 
L 97.121739 147.842573 
L 96.664325 140.710934 
L 97.502214 140.710934 
L 97.463536 140.116631 
L 98.296875 140.116631 
L 98.137774 137.739418 
L 98.962295 137.739418 
L 98.880762 136.550812 
L 99.699457 136.550812 
L 99.574054 134.767902 
L 100.385612 134.767902 
L 100.130605 131.202083 
L 100.931083 131.202083 
L 100.80159 129.419173 
L 101.595238 129.419173 
L 101.551056 128.82487 
L 102.340598 128.82487 
L 102.026563 124.664747 
L 103.579412 124.664747 
L 103.532642 124.070444 
L 105.072289 124.070444 
L 105.023196 123.476141 
L 105.787822 123.476141 
L 105.737671 122.881838 
L 106.498462 122.881838 
L 106.396252 121.693231 
L 107.152041 121.693231 
L 107.048136 120.504625 
L 110.036364 120.504625 
L 109.98 119.910322 
L 110.719631 119.910322 
L 110.548247 118.127412 
L 111.282 118.127412 
L 111.051656 115.750199 
L 112.50297 115.750199 
L 112.443657 115.155896 
L 113.164638 115.155896 
L 112.806352 111.590077 
L 115.641262 111.590077 
L 115.578029 110.995773 
L 117.67717 110.995773 
L 117.545192 109.807167 
L 118.2384 109.807167 
L 118.171725 109.212864 
L 122.955924 109.212864 
L 122.809606 108.024257 
L 126.153281 108.024257 
L 125.921617 106.241348 
L 136.237329 106.241348 
L 136.146818 105.647044 
L 137.399547 105.647044 
L 137.216114 104.458438 
L 137.838045 104.458438 
L 137.745946 103.864135 
L 138.365217 103.864135 
L 138.180269 102.675528 
L 160.909322 102.675528 
L 160.790268 102.081225 
L 161.339577 102.081225 
L 161.220253 101.486922 
L 167.686307 101.486922 
L 167.560359 100.892619 
L 173.808832 100.892619 
L 173.676798 100.298315 
L 178.226542 100.298315 
L 178.090361 99.704012 
L 186.383639 99.704012 
L 186.24 99.109709 
L 191.407732 99.109709 
L 191.259846 98.515406 
L 194.923949 98.515406 
L 194.773282 97.921103 
L 207.019902 97.921103 
L 206.859755 97.326799 
L 217.096071 97.326799 
L 216.928894 96.732496 
L 241.90495 96.732496 
L 241.723187 96.138193 
L 257.820938 96.138193 
L 257.632258 95.54389 
L 274.047348 95.54389 
L 273.853484 94.949587 
L 281.773785 94.949587 
L 281.578286 94.355283 
L 309.190769 94.355283 
L 308.992058 93.76098 
L 309.609966 93.76098 
L 309.411574 93.166677 
L 336.9 93.166677 
L 336.703768 92.572374 
L 338.622479 92.572374 
L 338.426866 91.97807 
L 340 91.97807 
L 339.804959 91.383767 
L 344.238913 91.383767 
L 344.04504 90.789464 
L 370.769357 90.789464 
L 370.583932 90.195161 
L 370.697418 90.195161 
L 381.567515 90.195161 
L 381.387108 89.600858 
L 381.487234 89.600858 
L 390.935491 89.600858 
L 390.760123 89.006554 
L 390.849331 89.006554 
L 414.739545 89.006554 
L 414.579242 88.412251 
L 414.643771 88.412251 
L 419.495386 88.412251 
L 419.338767 87.817948 
L 419.398768 87.817948 
L 427.502313 87.817948 
L 427.352055 87.223645 
L 427.457656 87.223645 
L 434.237995 87.223645 
L 434.093455 86.629342 
L 434.187687 86.629342 
L 457.802994 86.629342 
L 457.68027 86.035038 
L 457.770096 86.035038 
L 459.184104 86.035038 
L 459.062963 85.440735 
L 459.15 85.440735 
L 459.294695 85.440735 
L 459.173864 84.846432 
L 459.260549 84.846432 
L 460.061769 84.846432 
L 459.941906 84.252129 
L 460.027006 84.252129 
L 478.993159 84.252129 
L 478.993159 84.252129 
" style="fill:none;stroke:#2ca02c;stroke-linecap:square;stroke-width:2;"/>
   </g>
   <g id="patch_3">
    <path d="M 76.5 448.56 
L 76.5 60.48 
" style="fill:none;stroke:#000000;stroke-linecap:square;stroke-linejoin:miter;stroke-width:0.8;"/>
   </g>
   <g id="patch_4">
    <path d="M 550.8 448.56 
L 550.8 60.48 
" style="fill:none;stroke:#000000;stroke-linecap:square;stroke-linejoin:miter;stroke-width:0.8;"/>
   </g>
   <g id="patch_5">
    <path d="M 76.5 448.56 
L 550.8 448.56 
" style="fill:none;stroke:#000000;stroke-linecap:square;stroke-linejoin:miter;stroke-width:0.8;"/>
   </g>
   <g id="patch_6">
    <path d="M 76.5 60.48 
L 550.8 60.48 
" style="fill:none;stroke:#000000;stroke-linecap:square;stroke-linejoin:miter;stroke-width:0.8;"/>
   </g>
   <g id="text_25">
    <!-- bark: img1-img3 -->
    <defs>
     <path d="M 48.6875 27.296875 
Q 48.6875 37.203125 44.609375 42.84375 
Q 40.53125 48.484375 33.40625 48.484375 
Q 26.265625 48.484375 22.1875 42.84375 
Q 18.109375 37.203125 18.109375 27.296875 
Q 18.109375 17.390625 22.1875 11.75 
Q 26.265625 6.109375 33.40625 6.109375 
Q 40.53125 6.109375 44.609375 11.75 
Q 48.6875 17.390625 48.6875 27.296875 
z
M 18.109375 46.390625 
Q 20.953125 51.265625 25.265625 53.625 
Q 29.59375 56 35.59375 56 
Q 45.5625 56 51.78125 48.09375 
Q 58.015625 40.1875 58.015625 27.296875 
Q 58.015625 14.40625 51.78125 6.484375 
Q 45.5625 -1.421875 35.59375 -1.421875 
Q 29.59375 -1.421875 25.265625 0.953125 
Q 20.953125 3.328125 18.109375 8.203125 
L 18.109375 0 
L 9.078125 0 
L 9.078125 75.984375 
L 18.109375 75.984375 
z
" id="DejaVuSans-98"/>
     <path d="M 34.28125 27.484375 
Q 23.390625 27.484375 19.1875 25 
Q 14.984375 22.515625 14.984375 16.5 
Q 14.984375 11.71875 18.140625 8.90625 
Q 21.296875 6.109375 26.703125 6.109375 
Q 34.1875 6.109375 38.703125 11.40625 
Q 43.21875 16.703125 43.21875 25.484375 
L 43.21875 27.484375 
z
M 52.203125 31.203125 
L 52.203125 0 
L 43.21875 0 
L 43.21875 8.296875 
Q 40.140625 3.328125 35.546875 0.953125 
Q 30.953125 -1.421875 24.3125 -1.421875 
Q 15.921875 -1.421875 10.953125 3.296875 
Q 6 8.015625 6 15.921875 
Q 6 25.140625 12.171875 29.828125 
Q 18.359375 34.515625 30.609375 34.515625 
L 43.21875 34.515625 
L 43.21875 35.40625 
Q 43.21875 41.609375 39.140625 45 
Q 35.0625 48.390625 27.6875 48.390625 
Q 23 48.390625 18.546875 47.265625 
Q 14.109375 46.140625 10.015625 43.890625 
L 10.015625 52.203125 
Q 14.9375 54.109375 19.578125 55.046875 
Q 24.21875 56 28.609375 56 
Q 40.484375 56 46.34375 49.84375 
Q 52.203125 43.703125 52.203125 31.203125 
z
" id="DejaVuSans-97"/>
     <path d="M 9.078125 75.984375 
L 18.109375 75.984375 
L 18.109375 31.109375 
L 44.921875 54.6875 
L 56.390625 54.6875 
L 27.390625 29.109375 
L 57.625 0 
L 45.90625 0 
L 18.109375 26.703125 
L 18.109375 0 
L 9.078125 0 
z
" id="DejaVuSans-107"/>
     <path d="M 11.71875 12.40625 
L 22.015625 12.40625 
L 22.015625 0 
L 11.71875 0 
z
M 11.71875 51.703125 
L 22.015625 51.703125 
L 22.015625 39.3125 
L 11.71875 39.3125 
z
" id="DejaVuSans-58"/>
     <path id="DejaVuSans-32"/>
     <path d="M 52 44.1875 
Q 55.375 50.25 60.0625 53.125 
Q 64.75 56 71.09375 56 
Q 79.640625 56 84.28125 50.015625 
Q 88.921875 44.046875 88.921875 33.015625 
L 88.921875 0 
L 79.890625 0 
L 79.890625 32.71875 
Q 79.890625 40.578125 77.09375 44.375 
Q 74.3125 48.1875 68.609375 48.1875 
Q 61.625 48.1875 57.5625 43.546875 
Q 53.515625 38.921875 53.515625 30.90625 
L 53.515625 0 
L 44.484375 0 
L 44.484375 32.71875 
Q 44.484375 40.625 41.703125 44.40625 
Q 38.921875 48.1875 33.109375 48.1875 
Q 26.21875 48.1875 22.15625 43.53125 
Q 18.109375 38.875 18.109375 30.90625 
L 18.109375 0 
L 9.078125 0 
L 9.078125 54.6875 
L 18.109375 54.6875 
L 18.109375 46.1875 
Q 21.1875 51.21875 25.484375 53.609375 
Q 29.78125 56 35.6875 56 
Q 41.65625 56 45.828125 52.96875 
Q 50 49.953125 52 44.1875 
z
" id="DejaVuSans-109"/>
     <path d="M 45.40625 27.984375 
Q 45.40625 37.75 41.375 43.109375 
Q 37.359375 48.484375 30.078125 48.484375 
Q 22.859375 48.484375 18.828125 43.109375 
Q 14.796875 37.75 14.796875 27.984375 
Q 14.796875 18.265625 18.828125 12.890625 
Q 22.859375 7.515625 30.078125 7.515625 
Q 37.359375 7.515625 41.375 12.890625 
Q 45.40625 18.265625 45.40625 27.984375 
z
M 54.390625 6.78125 
Q 54.390625 -7.171875 48.1875 -13.984375 
Q 42 -20.796875 29.203125 -20.796875 
Q 24.46875 -20.796875 20.265625 -20.09375 
Q 16.0625 -19.390625 12.109375 -17.921875 
L 12.109375 -9.1875 
Q 16.0625 -11.328125 19.921875 -12.34375 
Q 23.78125 -13.375 27.78125 -13.375 
Q 36.625 -13.375 41.015625 -8.765625 
Q 45.40625 -4.15625 45.40625 5.171875 
L 45.40625 9.625 
Q 42.625 4.78125 38.28125 2.390625 
Q 33.9375 0 27.875 0 
Q 17.828125 0 11.671875 7.65625 
Q 5.515625 15.328125 5.515625 27.984375 
Q 5.515625 40.671875 11.671875 48.328125 
Q 17.828125 56 27.875 56 
Q 33.9375 56 38.28125 53.609375 
Q 42.625 51.21875 45.40625 46.390625 
L 45.40625 54.6875 
L 54.390625 54.6875 
z
" id="DejaVuSans-103"/>
    </defs>
    <g transform="translate(263.854688 41.042625)scale(0.12 -0.12)">
     <use xlink:href="#DejaVuSans-98"/>
     <use x="63.476562" xlink:href="#DejaVuSans-97"/>
     <use x="124.755859" xlink:href="#DejaVuSans-114"/>
     <use x="165.869141" xlink:href="#DejaVuSans-107"/>
     <use x="223.779297" xlink:href="#DejaVuSans-58"/>
     <use x="257.470703" xlink:href="#DejaVuSans-32"/>
     <use x="289.257812" xlink:href="#DejaVuSans-105"/>
     <use x="317.041016" xlink:href="#DejaVuSans-109"/>
     <use x="414.453125" xlink:href="#DejaVuSans-103"/>
     <use x="477.929688" xlink:href="#DejaVuSans-49"/>
     <use x="541.552734" xlink:href="#DejaVuSans-45"/>
     <use x="577.636719" xlink:href="#DejaVuSans-105"/>
     <use x="605.419922" xlink:href="#DejaVuSans-109"/>
     <use x="702.832031" xlink:href="#DejaVuSans-103"/>
     <use x="766.308594" xlink:href="#DejaVuSans-51"/>
    </g>
    <!-- NearestNeighbours -->
    <defs>
     <path d="M 9.8125 72.90625 
L 23.09375 72.90625 
L 55.421875 11.921875 
L 55.421875 72.90625 
L 64.984375 72.90625 
L 64.984375 0 
L 51.703125 0 
L 19.390625 60.984375 
L 19.390625 0 
L 9.8125 0 
z
" id="DejaVuSans-78"/>
     <path d="M 54.890625 33.015625 
L 54.890625 0 
L 45.90625 0 
L 45.90625 32.71875 
Q 45.90625 40.484375 42.875 44.328125 
Q 39.84375 48.1875 33.796875 48.1875 
Q 26.515625 48.1875 22.3125 43.546875 
Q 18.109375 38.921875 18.109375 30.90625 
L 18.109375 0 
L 9.078125 0 
L 9.078125 75.984375 
L 18.109375 75.984375 
L 18.109375 46.1875 
Q 21.34375 51.125 25.703125 53.5625 
Q 30.078125 56 35.796875 56 
Q 45.21875 56 50.046875 50.171875 
Q 54.890625 44.34375 54.890625 33.015625 
z
" id="DejaVuSans-104"/>
     <path d="M 8.5 21.578125 
L 8.5 54.6875 
L 17.484375 54.6875 
L 17.484375 21.921875 
Q 17.484375 14.15625 20.5 10.265625 
Q 23.53125 6.390625 29.59375 6.390625 
Q 36.859375 6.390625 41.078125 11.03125 
Q 45.3125 15.671875 45.3125 23.6875 
L 45.3125 54.6875 
L 54.296875 54.6875 
L 54.296875 0 
L 45.3125 0 
L 45.3125 8.40625 
Q 42.046875 3.421875 37.71875 1 
Q 33.40625 -1.421875 27.6875 -1.421875 
Q 18.265625 -1.421875 13.375 4.4375 
Q 8.5 10.296875 8.5 21.578125 
z
M 31.109375 56 
z
" id="DejaVuSans-117"/>
    </defs>
    <g transform="translate(255.824063 54.48)scale(0.12 -0.12)">
     <use xlink:href="#DejaVuSans-78"/>
     <use x="74.804688" xlink:href="#DejaVuSans-101"/>
     <use x="136.328125" xlink:href="#DejaVuSans-97"/>
     <use x="197.607422" xlink:href="#DejaVuSans-114"/>
     <use x="238.689453" xlink:href="#DejaVuSans-101"/>
     <use x="300.212891" xlink:href="#DejaVuSans-115"/>
     <use x="352.3125" xlink:href="#DejaVuSans-116"/>
     <use x="391.521484" xlink:href="#DejaVuSans-78"/>
     <use x="466.326172" xlink:href="#DejaVuSans-101"/>
     <use x="527.849609" xlink:href="#DejaVuSans-105"/>
     <use x="555.632812" xlink:href="#DejaVuSans-103"/>
     <use x="619.109375" xlink:href="#DejaVuSans-104"/>
     <use x="682.488281" xlink:href="#DejaVuSans-98"/>
     <use x="745.964844" xlink:href="#DejaVuSans-111"/>
     <use x="807.146484" xlink:href="#DejaVuSans-117"/>
     <use x="870.525391" xlink:href="#DejaVuSans-114"/>
     <use x="911.638672" xlink:href="#DejaVuSans-115"/>
    </g>
   </g>
   <g id="legend_1">
    <g id="patch_7">
     <path d="M 83.5 443.56 
L 265.035938 443.56 
Q 267.035938 443.56 267.035938 441.56 
L 267.035938 398.525625 
Q 267.035938 396.525625 265.035938 396.525625 
L 83.5 396.525625 
Q 81.5 396.525625 81.5 398.525625 
L 81.5 441.56 
Q 81.5 443.56 83.5 443.56 
z
" style="fill:#ffffff;opacity:0.8;stroke:#cccccc;stroke-linejoin:miter;"/>
    </g>
    <g id="line2d_48">
     <path d="M 85.5 404.624063 
L 105.5 404.624063 
" style="fill:none;stroke:#1f77b4;stroke-linecap:square;stroke-width:2;"/>
    </g>
    <g id="line2d_49"/>
    <g id="text_26">
     <!-- root-cvsift AP: 83.4, %In: 14.3 -->
     <defs>
      <path d="M 2.984375 54.6875 
L 12.5 54.6875 
L 29.59375 8.796875 
L 46.6875 54.6875 
L 56.203125 54.6875 
L 35.6875 0 
L 23.484375 0 
z
" id="DejaVuSans-118"/>
      <path d="M 37.109375 75.984375 
L 37.109375 68.5 
L 28.515625 68.5 
Q 23.6875 68.5 21.796875 66.546875 
Q 19.921875 64.59375 19.921875 59.515625 
L 19.921875 54.6875 
L 34.71875 54.6875 
L 34.71875 47.703125 
L 19.921875 47.703125 
L 19.921875 0 
L 10.890625 0 
L 10.890625 47.703125 
L 2.296875 47.703125 
L 2.296875 54.6875 
L 10.890625 54.6875 
L 10.890625 58.5 
Q 10.890625 67.625 15.140625 71.796875 
Q 19.390625 75.984375 28.609375 75.984375 
z
" id="DejaVuSans-102"/>
      <path d="M 34.1875 63.1875 
L 20.796875 26.90625 
L 47.609375 26.90625 
z
M 28.609375 72.90625 
L 39.796875 72.90625 
L 67.578125 0 
L 57.328125 0 
L 50.6875 18.703125 
L 17.828125 18.703125 
L 11.1875 0 
L 0.78125 0 
z
" id="DejaVuSans-65"/>
      <path d="M 19.671875 64.796875 
L 19.671875 37.40625 
L 32.078125 37.40625 
Q 38.96875 37.40625 42.71875 40.96875 
Q 46.484375 44.53125 46.484375 51.125 
Q 46.484375 57.671875 42.71875 61.234375 
Q 38.96875 64.796875 32.078125 64.796875 
z
M 9.8125 72.90625 
L 32.078125 72.90625 
Q 44.34375 72.90625 50.609375 67.359375 
Q 56.890625 61.8125 56.890625 51.125 
Q 56.890625 40.328125 50.609375 34.8125 
Q 44.34375 29.296875 32.078125 29.296875 
L 19.671875 29.296875 
L 19.671875 0 
L 9.8125 0 
z
" id="DejaVuSans-80"/>
      <path d="M 11.71875 12.40625 
L 22.015625 12.40625 
L 22.015625 4 
L 14.015625 -11.625 
L 7.71875 -11.625 
L 11.71875 4 
z
" id="DejaVuSans-44"/>
      <path d="M 72.703125 32.078125 
Q 68.453125 32.078125 66.03125 28.46875 
Q 63.625 24.859375 63.625 18.40625 
Q 63.625 12.0625 66.03125 8.421875 
Q 68.453125 4.78125 72.703125 4.78125 
Q 76.859375 4.78125 79.265625 8.421875 
Q 81.6875 12.0625 81.6875 18.40625 
Q 81.6875 24.8125 79.265625 28.4375 
Q 76.859375 32.078125 72.703125 32.078125 
z
M 72.703125 38.28125 
Q 80.421875 38.28125 84.953125 32.90625 
Q 89.5 27.546875 89.5 18.40625 
Q 89.5 9.28125 84.9375 3.921875 
Q 80.375 -1.421875 72.703125 -1.421875 
Q 64.890625 -1.421875 60.34375 3.921875 
Q 55.8125 9.28125 55.8125 18.40625 
Q 55.8125 27.59375 60.375 32.9375 
Q 64.9375 38.28125 72.703125 38.28125 
z
M 22.3125 68.015625 
Q 18.109375 68.015625 15.6875 64.375 
Q 13.28125 60.75 13.28125 54.390625 
Q 13.28125 47.953125 15.671875 44.328125 
Q 18.0625 40.71875 22.3125 40.71875 
Q 26.5625 40.71875 28.96875 44.328125 
Q 31.390625 47.953125 31.390625 54.390625 
Q 31.390625 60.6875 28.953125 64.34375 
Q 26.515625 68.015625 22.3125 68.015625 
z
M 66.40625 74.21875 
L 74.21875 74.21875 
L 28.609375 -1.421875 
L 20.796875 -1.421875 
z
M 22.3125 74.21875 
Q 30.03125 74.21875 34.609375 68.875 
Q 39.203125 63.53125 39.203125 54.390625 
Q 39.203125 45.171875 34.640625 39.84375 
Q 30.078125 34.515625 22.3125 34.515625 
Q 14.546875 34.515625 10.03125 39.859375 
Q 5.515625 45.21875 5.515625 54.390625 
Q 5.515625 63.484375 10.046875 68.84375 
Q 14.59375 74.21875 22.3125 74.21875 
z
" id="DejaVuSans-37"/>
      <path d="M 9.8125 72.90625 
L 19.671875 72.90625 
L 19.671875 0 
L 9.8125 0 
z
" id="DejaVuSans-73"/>
     </defs>
     <g transform="translate(113.5 408.124063)scale(0.1 -0.1)">
      <use xlink:href="#DejaVuSans-114"/>
      <use x="41.082031" xlink:href="#DejaVuSans-111"/>
      <use x="102.263672" xlink:href="#DejaVuSans-111"/>
      <use x="163.445312" xlink:href="#DejaVuSans-116"/>
      <use x="202.654297" xlink:href="#DejaVuSans-45"/>
      <use x="238.738281" xlink:href="#DejaVuSans-99"/>
      <use x="293.71875" xlink:href="#DejaVuSans-118"/>
      <use x="352.898438" xlink:href="#DejaVuSans-115"/>
      <use x="404.998047" xlink:href="#DejaVuSans-105"/>
      <use x="432.78125" xlink:href="#DejaVuSans-102"/>
      <use x="467.970703" xlink:href="#DejaVuSans-116"/>
      <use x="507.179688" xlink:href="#DejaVuSans-32"/>
      <use x="538.966797" xlink:href="#DejaVuSans-65"/>
      <use x="607.375" xlink:href="#DejaVuSans-80"/>
      <use x="667.677734" xlink:href="#DejaVuSans-58"/>
      <use x="701.369141" xlink:href="#DejaVuSans-32"/>
      <use x="733.15625" xlink:href="#DejaVuSans-56"/>
      <use x="796.779297" xlink:href="#DejaVuSans-51"/>
      <use x="860.402344" xlink:href="#DejaVuSans-46"/>
      <use x="892.189453" xlink:href="#DejaVuSans-52"/>
      <use x="955.8125" xlink:href="#DejaVuSans-44"/>
      <use x="987.599609" xlink:href="#DejaVuSans-32"/>
      <use x="1019.386719" xlink:href="#DejaVuSans-37"/>
      <use x="1114.40625" xlink:href="#DejaVuSans-73"/>
      <use x="1143.898438" xlink:href="#DejaVuSans-110"/>
      <use x="1207.277344" xlink:href="#DejaVuSans-58"/>
      <use x="1240.96875" xlink:href="#DejaVuSans-32"/>
      <use x="1272.755859" xlink:href="#DejaVuSans-49"/>
      <use x="1336.378906" xlink:href="#DejaVuSans-52"/>
      <use x="1400.001953" xlink:href="#DejaVuSans-46"/>
      <use x="1431.789062" xlink:href="#DejaVuSans-51"/>
     </g>
    </g>
    <g id="line2d_50">
     <path d="M 85.5 419.302188 
L 105.5 419.302188 
" style="fill:none;stroke:#ff7f0e;stroke-linecap:square;stroke-width:2;"/>
    </g>
    <g id="line2d_51"/>
    <g id="text_27">
     <!-- tfeat AP: 60.6, %In: 11.5 -->
     <g transform="translate(113.5 422.802188)scale(0.1 -0.1)">
      <use xlink:href="#DejaVuSans-116"/>
      <use x="39.208984" xlink:href="#DejaVuSans-102"/>
      <use x="74.414062" xlink:href="#DejaVuSans-101"/>
      <use x="135.9375" xlink:href="#DejaVuSans-97"/>
      <use x="197.216797" xlink:href="#DejaVuSans-116"/>
      <use x="236.425781" xlink:href="#DejaVuSans-32"/>
      <use x="268.212891" xlink:href="#DejaVuSans-65"/>
      <use x="336.621094" xlink:href="#DejaVuSans-80"/>
      <use x="396.923828" xlink:href="#DejaVuSans-58"/>
      <use x="430.615234" xlink:href="#DejaVuSans-32"/>
      <use x="462.402344" xlink:href="#DejaVuSans-54"/>
      <use x="526.025391" xlink:href="#DejaVuSans-48"/>
      <use x="589.648438" xlink:href="#DejaVuSans-46"/>
      <use x="621.435547" xlink:href="#DejaVuSans-54"/>
      <use x="685.058594" xlink:href="#DejaVuSans-44"/>
      <use x="716.845703" xlink:href="#DejaVuSans-32"/>
      <use x="748.632812" xlink:href="#DejaVuSans-37"/>
      <use x="843.652344" xlink:href="#DejaVuSans-73"/>
      <use x="873.144531" xlink:href="#DejaVuSans-110"/>
      <use x="936.523438" xlink:href="#DejaVuSans-58"/>
      <use x="970.214844" xlink:href="#DejaVuSans-32"/>
      <use x="1002.001953" xlink:href="#DejaVuSans-49"/>
      <use x="1065.625" xlink:href="#DejaVuSans-49"/>
      <use x="1129.248047" xlink:href="#DejaVuSans-46"/>
      <use x="1161.035156" xlink:href="#DejaVuSans-53"/>
     </g>
    </g>
    <g id="line2d_52">
     <path d="M 85.5 433.980313 
L 105.5 433.980313 
" style="fill:none;stroke:#2ca02c;stroke-linecap:square;stroke-width:2;"/>
    </g>
    <g id="line2d_53"/>
    <g id="text_28">
     <!-- hardnet AP: 90.1, %In: 15.1 -->
     <defs>
      <path d="M 45.40625 46.390625 
L 45.40625 75.984375 
L 54.390625 75.984375 
L 54.390625 0 
L 45.40625 0 
L 45.40625 8.203125 
Q 42.578125 3.328125 38.25 0.953125 
Q 33.9375 -1.421875 27.875 -1.421875 
Q 17.96875 -1.421875 11.734375 6.484375 
Q 5.515625 14.40625 5.515625 27.296875 
Q 5.515625 40.1875 11.734375 48.09375 
Q 17.96875 56 27.875 56 
Q 33.9375 56 38.25 53.625 
Q 42.578125 51.265625 45.40625 46.390625 
z
M 14.796875 27.296875 
Q 14.796875 17.390625 18.875 11.75 
Q 22.953125 6.109375 30.078125 6.109375 
Q 37.203125 6.109375 41.296875 11.75 
Q 45.40625 17.390625 45.40625 27.296875 
Q 45.40625 37.203125 41.296875 42.84375 
Q 37.203125 48.484375 30.078125 48.484375 
Q 22.953125 48.484375 18.875 42.84375 
Q 14.796875 37.203125 14.796875 27.296875 
z
" id="DejaVuSans-100"/>
     </defs>
     <g transform="translate(113.5 437.480313)scale(0.1 -0.1)">
      <use xlink:href="#DejaVuSans-104"/>
      <use x="63.378906" xlink:href="#DejaVuSans-97"/>
      <use x="124.658203" xlink:href="#DejaVuSans-114"/>
      <use x="165.755859" xlink:href="#DejaVuSans-100"/>
      <use x="229.232422" xlink:href="#DejaVuSans-110"/>
      <use x="292.611328" xlink:href="#DejaVuSans-101"/>
      <use x="354.134766" xlink:href="#DejaVuSans-116"/>
      <use x="393.34375" xlink:href="#DejaVuSans-32"/>
      <use x="425.130859" xlink:href="#DejaVuSans-65"/>
      <use x="493.539062" xlink:href="#DejaVuSans-80"/>
      <use x="553.841797" xlink:href="#DejaVuSans-58"/>
      <use x="587.533203" xlink:href="#DejaVuSans-32"/>
      <use x="619.320312" xlink:href="#DejaVuSans-57"/>
      <use x="682.943359" xlink:href="#DejaVuSans-48"/>
      <use x="746.566406" xlink:href="#DejaVuSans-46"/>
      <use x="778.353516" xlink:href="#DejaVuSans-49"/>
      <use x="841.976562" xlink:href="#DejaVuSans-44"/>
      <use x="873.763672" xlink:href="#DejaVuSans-32"/>
      <use x="905.550781" xlink:href="#DejaVuSans-37"/>
      <use x="1000.570312" xlink:href="#DejaVuSans-73"/>
      <use x="1030.0625" xlink:href="#DejaVuSans-110"/>
      <use x="1093.441406" xlink:href="#DejaVuSans-58"/>
      <use x="1127.132812" xlink:href="#DejaVuSans-32"/>
      <use x="1158.919922" xlink:href="#DejaVuSans-49"/>
      <use x="1222.542969" xlink:href="#DejaVuSans-53"/>
      <use x="1286.166016" xlink:href="#DejaVuSans-46"/>
      <use x="1317.953125" xlink:href="#DejaVuSans-49"/>
     </g>
    </g>
   </g>
  </g>
 </g>
 <defs>
  <clipPath id="p5527d6e36b">
   <rect height="388.08" width="474.3" x="76.5" y="60.48"/>
  </clipPath>
 </defs>
</svg>
