<?xml version="1.0" encoding="utf-8" standalone="no"?>
<!DOCTYPE svg PUBLIC "-//W3C//DTD SVG 1.1//EN"
  "http://www.w3.org/Graphics/SVG/1.1/DTD/svg11.dtd">
<!-- Created with matplotlib (https://matplotlib.org/) -->
<svg height="504pt" version="1.1" viewBox="0 0 612 504" width="612pt" xmlns="http://www.w3.org/2000/svg" xmlns:xlink="http://www.w3.org/1999/xlink">
 <defs>
  <style type="text/css">
*{stroke-linecap:butt;stroke-linejoin:round;}
  </style>
 </defs>
 <g id="figure_1">
  <g id="patch_1">
   <path d="M 0 504 
L 612 504 
L 612 0 
L 0 0 
z
" style="fill:#ffffff;"/>
  </g>
  <g id="axes_1">
   <g id="patch_2">
    <path d="M 76.5 448.56 
L 550.8 448.56 
L 550.8 60.48 
L 76.5 60.48 
z
" style="fill:#ffffff;"/>
   </g>
   <g id="matplotlib.axis_1">
    <g id="xtick_1">
     <g id="line2d_1">
      <path clip-path="url(#p61a569e505)" d="M 76.5 448.56 
L 76.5 60.48 
" style="fill:none;stroke:#b0b0b0;stroke-linecap:square;stroke-width:0.8;"/>
     </g>
     <g id="line2d_2">
      <defs>
       <path d="M 0 0 
L 0 3.5 
" id="m429656c928" style="stroke:#000000;stroke-width:0.8;"/>
      </defs>
      <g>
       <use style="stroke:#000000;stroke-width:0.8;" x="76.5" xlink:href="#m429656c928" y="448.56"/>
      </g>
     </g>
     <g id="text_1">
      <!-- 0.0 -->
      <defs>
       <path d="M 31.78125 66.40625 
Q 24.171875 66.40625 20.328125 58.90625 
Q 16.5 51.421875 16.5 36.375 
Q 16.5 21.390625 20.328125 13.890625 
Q 24.171875 6.390625 31.78125 6.390625 
Q 39.453125 6.390625 43.28125 13.890625 
Q 47.125 21.390625 47.125 36.375 
Q 47.125 51.421875 43.28125 58.90625 
Q 39.453125 66.40625 31.78125 66.40625 
z
M 31.78125 74.21875 
Q 44.046875 74.21875 50.515625 64.515625 
Q 56.984375 54.828125 56.984375 36.375 
Q 56.984375 17.96875 50.515625 8.265625 
Q 44.046875 -1.421875 31.78125 -1.421875 
Q 19.53125 -1.421875 13.0625 8.265625 
Q 6.59375 17.96875 6.59375 36.375 
Q 6.59375 54.828125 13.0625 64.515625 
Q 19.53125 74.21875 31.78125 74.21875 
z
" id="DejaVuSans-48"/>
       <path d="M 10.6875 12.40625 
L 21 12.40625 
L 21 0 
L 10.6875 0 
z
" id="DejaVuSans-46"/>
      </defs>
      <g transform="translate(68.548438 463.158437)scale(0.1 -0.1)">
       <use xlink:href="#DejaVuSans-48"/>
       <use x="63.623047" xlink:href="#DejaVuSans-46"/>
       <use x="95.410156" xlink:href="#DejaVuSans-48"/>
      </g>
     </g>
    </g>
    <g id="xtick_2">
     <g id="line2d_3">
      <path clip-path="url(#p61a569e505)" d="M 123.93 448.56 
L 123.93 60.48 
" style="fill:none;stroke:#b0b0b0;stroke-linecap:square;stroke-width:0.8;"/>
     </g>
     <g id="line2d_4">
      <g>
       <use style="stroke:#000000;stroke-width:0.8;" x="123.93" xlink:href="#m429656c928" y="448.56"/>
      </g>
     </g>
     <g id="text_2">
      <!-- 0.1 -->
      <defs>
       <path d="M 12.40625 8.296875 
L 28.515625 8.296875 
L 28.515625 63.921875 
L 10.984375 60.40625 
L 10.984375 69.390625 
L 28.421875 72.90625 
L 38.28125 72.90625 
L 38.28125 8.296875 
L 54.390625 8.296875 
L 54.390625 0 
L 12.40625 0 
z
" id="DejaVuSans-49"/>
      </defs>
      <g transform="translate(115.978438 463.158437)scale(0.1 -0.1)">
       <use xlink:href="#DejaVuSans-48"/>
       <use x="63.623047" xlink:href="#DejaVuSans-46"/>
       <use x="95.410156" xlink:href="#DejaVuSans-49"/>
      </g>
     </g>
    </g>
    <g id="xtick_3">
     <g id="line2d_5">
      <path clip-path="url(#p61a569e505)" d="M 171.36 448.56 
L 171.36 60.48 
" style="fill:none;stroke:#b0b0b0;stroke-linecap:square;stroke-width:0.8;"/>
     </g>
     <g id="line2d_6">
      <g>
       <use style="stroke:#000000;stroke-width:0.8;" x="171.36" xlink:href="#m429656c928" y="448.56"/>
      </g>
     </g>
     <g id="text_3">
      <!-- 0.2 -->
      <defs>
       <path d="M 19.1875 8.296875 
L 53.609375 8.296875 
L 53.609375 0 
L 7.328125 0 
L 7.328125 8.296875 
Q 12.9375 14.109375 22.625 23.890625 
Q 32.328125 33.6875 34.8125 36.53125 
Q 39.546875 41.84375 41.421875 45.53125 
Q 43.3125 49.21875 43.3125 52.78125 
Q 43.3125 58.59375 39.234375 62.25 
Q 35.15625 65.921875 28.609375 65.921875 
Q 23.96875 65.921875 18.8125 64.3125 
Q 13.671875 62.703125 7.8125 59.421875 
L 7.8125 69.390625 
Q 13.765625 71.78125 18.9375 73 
Q 24.125 74.21875 28.421875 74.21875 
Q 39.75 74.21875 46.484375 68.546875 
Q 53.21875 62.890625 53.21875 53.421875 
Q 53.21875 48.921875 51.53125 44.890625 
Q 49.859375 40.875 45.40625 35.40625 
Q 44.1875 33.984375 37.640625 27.21875 
Q 31.109375 20.453125 19.1875 8.296875 
z
" id="DejaVuSans-50"/>
      </defs>
      <g transform="translate(163.408438 463.158437)scale(0.1 -0.1)">
       <use xlink:href="#DejaVuSans-48"/>
       <use x="63.623047" xlink:href="#DejaVuSans-46"/>
       <use x="95.410156" xlink:href="#DejaVuSans-50"/>
      </g>
     </g>
    </g>
    <g id="xtick_4">
     <g id="line2d_7">
      <path clip-path="url(#p61a569e505)" d="M 218.79 448.56 
L 218.79 60.48 
" style="fill:none;stroke:#b0b0b0;stroke-linecap:square;stroke-width:0.8;"/>
     </g>
     <g id="line2d_8">
      <g>
       <use style="stroke:#000000;stroke-width:0.8;" x="218.79" xlink:href="#m429656c928" y="448.56"/>
      </g>
     </g>
     <g id="text_4">
      <!-- 0.3 -->
      <defs>
       <path d="M 40.578125 39.3125 
Q 47.65625 37.796875 51.625 33 
Q 55.609375 28.21875 55.609375 21.1875 
Q 55.609375 10.40625 48.1875 4.484375 
Q 40.765625 -1.421875 27.09375 -1.421875 
Q 22.515625 -1.421875 17.65625 -0.515625 
Q 12.796875 0.390625 7.625 2.203125 
L 7.625 11.71875 
Q 11.71875 9.328125 16.59375 8.109375 
Q 21.484375 6.890625 26.8125 6.890625 
Q 36.078125 6.890625 40.9375 10.546875 
Q 45.796875 14.203125 45.796875 21.1875 
Q 45.796875 27.640625 41.28125 31.265625 
Q 36.765625 34.90625 28.71875 34.90625 
L 20.21875 34.90625 
L 20.21875 43.015625 
L 29.109375 43.015625 
Q 36.375 43.015625 40.234375 45.921875 
Q 44.09375 48.828125 44.09375 54.296875 
Q 44.09375 59.90625 40.109375 62.90625 
Q 36.140625 65.921875 28.71875 65.921875 
Q 24.65625 65.921875 20.015625 65.03125 
Q 15.375 64.15625 9.8125 62.3125 
L 9.8125 71.09375 
Q 15.4375 72.65625 20.34375 73.4375 
Q 25.25 74.21875 29.59375 74.21875 
Q 40.828125 74.21875 47.359375 69.109375 
Q 53.90625 64.015625 53.90625 55.328125 
Q 53.90625 49.265625 50.4375 45.09375 
Q 46.96875 40.921875 40.578125 39.3125 
z
" id="DejaVuSans-51"/>
      </defs>
      <g transform="translate(210.838438 463.158437)scale(0.1 -0.1)">
       <use xlink:href="#DejaVuSans-48"/>
       <use x="63.623047" xlink:href="#DejaVuSans-46"/>
       <use x="95.410156" xlink:href="#DejaVuSans-51"/>
      </g>
     </g>
    </g>
    <g id="xtick_5">
     <g id="line2d_9">
      <path clip-path="url(#p61a569e505)" d="M 266.22 448.56 
L 266.22 60.48 
" style="fill:none;stroke:#b0b0b0;stroke-linecap:square;stroke-width:0.8;"/>
     </g>
     <g id="line2d_10">
      <g>
       <use style="stroke:#000000;stroke-width:0.8;" x="266.22" xlink:href="#m429656c928" y="448.56"/>
      </g>
     </g>
     <g id="text_5">
      <!-- 0.4 -->
      <defs>
       <path d="M 37.796875 64.3125 
L 12.890625 25.390625 
L 37.796875 25.390625 
z
M 35.203125 72.90625 
L 47.609375 72.90625 
L 47.609375 25.390625 
L 58.015625 25.390625 
L 58.015625 17.1875 
L 47.609375 17.1875 
L 47.609375 0 
L 37.796875 0 
L 37.796875 17.1875 
L 4.890625 17.1875 
L 4.890625 26.703125 
z
" id="DejaVuSans-52"/>
      </defs>
      <g transform="translate(258.268438 463.158437)scale(0.1 -0.1)">
       <use xlink:href="#DejaVuSans-48"/>
       <use x="63.623047" xlink:href="#DejaVuSans-46"/>
       <use x="95.410156" xlink:href="#DejaVuSans-52"/>
      </g>
     </g>
    </g>
    <g id="xtick_6">
     <g id="line2d_11">
      <path clip-path="url(#p61a569e505)" d="M 313.65 448.56 
L 313.65 60.48 
" style="fill:none;stroke:#b0b0b0;stroke-linecap:square;stroke-width:0.8;"/>
     </g>
     <g id="line2d_12">
      <g>
       <use style="stroke:#000000;stroke-width:0.8;" x="313.65" xlink:href="#m429656c928" y="448.56"/>
      </g>
     </g>
     <g id="text_6">
      <!-- 0.5 -->
      <defs>
       <path d="M 10.796875 72.90625 
L 49.515625 72.90625 
L 49.515625 64.59375 
L 19.828125 64.59375 
L 19.828125 46.734375 
Q 21.96875 47.46875 24.109375 47.828125 
Q 26.265625 48.1875 28.421875 48.1875 
Q 40.625 48.1875 47.75 41.5 
Q 54.890625 34.8125 54.890625 23.390625 
Q 54.890625 11.625 47.5625 5.09375 
Q 40.234375 -1.421875 26.90625 -1.421875 
Q 22.3125 -1.421875 17.546875 -0.640625 
Q 12.796875 0.140625 7.71875 1.703125 
L 7.71875 11.625 
Q 12.109375 9.234375 16.796875 8.0625 
Q 21.484375 6.890625 26.703125 6.890625 
Q 35.15625 6.890625 40.078125 11.328125 
Q 45.015625 15.765625 45.015625 23.390625 
Q 45.015625 31 40.078125 35.4375 
Q 35.15625 39.890625 26.703125 39.890625 
Q 22.75 39.890625 18.8125 39.015625 
Q 14.890625 38.140625 10.796875 36.28125 
z
" id="DejaVuSans-53"/>
      </defs>
      <g transform="translate(305.698438 463.158437)scale(0.1 -0.1)">
       <use xlink:href="#DejaVuSans-48"/>
       <use x="63.623047" xlink:href="#DejaVuSans-46"/>
       <use x="95.410156" xlink:href="#DejaVuSans-53"/>
      </g>
     </g>
    </g>
    <g id="xtick_7">
     <g id="line2d_13">
      <path clip-path="url(#p61a569e505)" d="M 361.08 448.56 
L 361.08 60.48 
" style="fill:none;stroke:#b0b0b0;stroke-linecap:square;stroke-width:0.8;"/>
     </g>
     <g id="line2d_14">
      <g>
       <use style="stroke:#000000;stroke-width:0.8;" x="361.08" xlink:href="#m429656c928" y="448.56"/>
      </g>
     </g>
     <g id="text_7">
      <!-- 0.6 -->
      <defs>
       <path d="M 33.015625 40.375 
Q 26.375 40.375 22.484375 35.828125 
Q 18.609375 31.296875 18.609375 23.390625 
Q 18.609375 15.53125 22.484375 10.953125 
Q 26.375 6.390625 33.015625 6.390625 
Q 39.65625 6.390625 43.53125 10.953125 
Q 47.40625 15.53125 47.40625 23.390625 
Q 47.40625 31.296875 43.53125 35.828125 
Q 39.65625 40.375 33.015625 40.375 
z
M 52.59375 71.296875 
L 52.59375 62.3125 
Q 48.875 64.0625 45.09375 64.984375 
Q 41.3125 65.921875 37.59375 65.921875 
Q 27.828125 65.921875 22.671875 59.328125 
Q 17.53125 52.734375 16.796875 39.40625 
Q 19.671875 43.65625 24.015625 45.921875 
Q 28.375 48.1875 33.59375 48.1875 
Q 44.578125 48.1875 50.953125 41.515625 
Q 57.328125 34.859375 57.328125 23.390625 
Q 57.328125 12.15625 50.6875 5.359375 
Q 44.046875 -1.421875 33.015625 -1.421875 
Q 20.359375 -1.421875 13.671875 8.265625 
Q 6.984375 17.96875 6.984375 36.375 
Q 6.984375 53.65625 15.1875 63.9375 
Q 23.390625 74.21875 37.203125 74.21875 
Q 40.921875 74.21875 44.703125 73.484375 
Q 48.484375 72.75 52.59375 71.296875 
z
" id="DejaVuSans-54"/>
      </defs>
      <g transform="translate(353.128438 463.158437)scale(0.1 -0.1)">
       <use xlink:href="#DejaVuSans-48"/>
       <use x="63.623047" xlink:href="#DejaVuSans-46"/>
       <use x="95.410156" xlink:href="#DejaVuSans-54"/>
      </g>
     </g>
    </g>
    <g id="xtick_8">
     <g id="line2d_15">
      <path clip-path="url(#p61a569e505)" d="M 408.51 448.56 
L 408.51 60.48 
" style="fill:none;stroke:#b0b0b0;stroke-linecap:square;stroke-width:0.8;"/>
     </g>
     <g id="line2d_16">
      <g>
       <use style="stroke:#000000;stroke-width:0.8;" x="408.51" xlink:href="#m429656c928" y="448.56"/>
      </g>
     </g>
     <g id="text_8">
      <!-- 0.7 -->
      <defs>
       <path d="M 8.203125 72.90625 
L 55.078125 72.90625 
L 55.078125 68.703125 
L 28.609375 0 
L 18.3125 0 
L 43.21875 64.59375 
L 8.203125 64.59375 
z
" id="DejaVuSans-55"/>
      </defs>
      <g transform="translate(400.558438 463.158437)scale(0.1 -0.1)">
       <use xlink:href="#DejaVuSans-48"/>
       <use x="63.623047" xlink:href="#DejaVuSans-46"/>
       <use x="95.410156" xlink:href="#DejaVuSans-55"/>
      </g>
     </g>
    </g>
    <g id="xtick_9">
     <g id="line2d_17">
      <path clip-path="url(#p61a569e505)" d="M 455.94 448.56 
L 455.94 60.48 
" style="fill:none;stroke:#b0b0b0;stroke-linecap:square;stroke-width:0.8;"/>
     </g>
     <g id="line2d_18">
      <g>
       <use style="stroke:#000000;stroke-width:0.8;" x="455.94" xlink:href="#m429656c928" y="448.56"/>
      </g>
     </g>
     <g id="text_9">
      <!-- 0.8 -->
      <defs>
       <path d="M 31.78125 34.625 
Q 24.75 34.625 20.71875 30.859375 
Q 16.703125 27.09375 16.703125 20.515625 
Q 16.703125 13.921875 20.71875 10.15625 
Q 24.75 6.390625 31.78125 6.390625 
Q 38.8125 6.390625 42.859375 10.171875 
Q 46.921875 13.96875 46.921875 20.515625 
Q 46.921875 27.09375 42.890625 30.859375 
Q 38.875 34.625 31.78125 34.625 
z
M 21.921875 38.8125 
Q 15.578125 40.375 12.03125 44.71875 
Q 8.5 49.078125 8.5 55.328125 
Q 8.5 64.0625 14.71875 69.140625 
Q 20.953125 74.21875 31.78125 74.21875 
Q 42.671875 74.21875 48.875 69.140625 
Q 55.078125 64.0625 55.078125 55.328125 
Q 55.078125 49.078125 51.53125 44.71875 
Q 48 40.375 41.703125 38.8125 
Q 48.828125 37.15625 52.796875 32.3125 
Q 56.78125 27.484375 56.78125 20.515625 
Q 56.78125 9.90625 50.3125 4.234375 
Q 43.84375 -1.421875 31.78125 -1.421875 
Q 19.734375 -1.421875 13.25 4.234375 
Q 6.78125 9.90625 6.78125 20.515625 
Q 6.78125 27.484375 10.78125 32.3125 
Q 14.796875 37.15625 21.921875 38.8125 
z
M 18.3125 54.390625 
Q 18.3125 48.734375 21.84375 45.5625 
Q 25.390625 42.390625 31.78125 42.390625 
Q 38.140625 42.390625 41.71875 45.5625 
Q 45.3125 48.734375 45.3125 54.390625 
Q 45.3125 60.0625 41.71875 63.234375 
Q 38.140625 66.40625 31.78125 66.40625 
Q 25.390625 66.40625 21.84375 63.234375 
Q 18.3125 60.0625 18.3125 54.390625 
z
" id="DejaVuSans-56"/>
      </defs>
      <g transform="translate(447.988438 463.158437)scale(0.1 -0.1)">
       <use xlink:href="#DejaVuSans-48"/>
       <use x="63.623047" xlink:href="#DejaVuSans-46"/>
       <use x="95.410156" xlink:href="#DejaVuSans-56"/>
      </g>
     </g>
    </g>
    <g id="xtick_10">
     <g id="line2d_19">
      <path clip-path="url(#p61a569e505)" d="M 503.37 448.56 
L 503.37 60.48 
" style="fill:none;stroke:#b0b0b0;stroke-linecap:square;stroke-width:0.8;"/>
     </g>
     <g id="line2d_20">
      <g>
       <use style="stroke:#000000;stroke-width:0.8;" x="503.37" xlink:href="#m429656c928" y="448.56"/>
      </g>
     </g>
     <g id="text_10">
      <!-- 0.9 -->
      <defs>
       <path d="M 10.984375 1.515625 
L 10.984375 10.5 
Q 14.703125 8.734375 18.5 7.8125 
Q 22.3125 6.890625 25.984375 6.890625 
Q 35.75 6.890625 40.890625 13.453125 
Q 46.046875 20.015625 46.78125 33.40625 
Q 43.953125 29.203125 39.59375 26.953125 
Q 35.25 24.703125 29.984375 24.703125 
Q 19.046875 24.703125 12.671875 31.3125 
Q 6.296875 37.9375 6.296875 49.421875 
Q 6.296875 60.640625 12.9375 67.421875 
Q 19.578125 74.21875 30.609375 74.21875 
Q 43.265625 74.21875 49.921875 64.515625 
Q 56.59375 54.828125 56.59375 36.375 
Q 56.59375 19.140625 48.40625 8.859375 
Q 40.234375 -1.421875 26.421875 -1.421875 
Q 22.703125 -1.421875 18.890625 -0.6875 
Q 15.09375 0.046875 10.984375 1.515625 
z
M 30.609375 32.421875 
Q 37.25 32.421875 41.125 36.953125 
Q 45.015625 41.5 45.015625 49.421875 
Q 45.015625 57.28125 41.125 61.84375 
Q 37.25 66.40625 30.609375 66.40625 
Q 23.96875 66.40625 20.09375 61.84375 
Q 16.21875 57.28125 16.21875 49.421875 
Q 16.21875 41.5 20.09375 36.953125 
Q 23.96875 32.421875 30.609375 32.421875 
z
" id="DejaVuSans-57"/>
      </defs>
      <g transform="translate(495.418438 463.158437)scale(0.1 -0.1)">
       <use xlink:href="#DejaVuSans-48"/>
       <use x="63.623047" xlink:href="#DejaVuSans-46"/>
       <use x="95.410156" xlink:href="#DejaVuSans-57"/>
      </g>
     </g>
    </g>
    <g id="xtick_11">
     <g id="line2d_21">
      <path clip-path="url(#p61a569e505)" d="M 550.8 448.56 
L 550.8 60.48 
" style="fill:none;stroke:#b0b0b0;stroke-linecap:square;stroke-width:0.8;"/>
     </g>
     <g id="line2d_22">
      <g>
       <use style="stroke:#000000;stroke-width:0.8;" x="550.8" xlink:href="#m429656c928" y="448.56"/>
      </g>
     </g>
     <g id="text_11">
      <!-- 1.0 -->
      <g transform="translate(542.848438 463.158437)scale(0.1 -0.1)">
       <use xlink:href="#DejaVuSans-49"/>
       <use x="63.623047" xlink:href="#DejaVuSans-46"/>
       <use x="95.410156" xlink:href="#DejaVuSans-48"/>
      </g>
     </g>
    </g>
    <g id="text_12">
     <!-- 1-precision -->
     <defs>
      <path d="M 4.890625 31.390625 
L 31.203125 31.390625 
L 31.203125 23.390625 
L 4.890625 23.390625 
z
" id="DejaVuSans-45"/>
      <path d="M 18.109375 8.203125 
L 18.109375 -20.796875 
L 9.078125 -20.796875 
L 9.078125 54.6875 
L 18.109375 54.6875 
L 18.109375 46.390625 
Q 20.953125 51.265625 25.265625 53.625 
Q 29.59375 56 35.59375 56 
Q 45.5625 56 51.78125 48.09375 
Q 58.015625 40.1875 58.015625 27.296875 
Q 58.015625 14.40625 51.78125 6.484375 
Q 45.5625 -1.421875 35.59375 -1.421875 
Q 29.59375 -1.421875 25.265625 0.953125 
Q 20.953125 3.328125 18.109375 8.203125 
z
M 48.6875 27.296875 
Q 48.6875 37.203125 44.609375 42.84375 
Q 40.53125 48.484375 33.40625 48.484375 
Q 26.265625 48.484375 22.1875 42.84375 
Q 18.109375 37.203125 18.109375 27.296875 
Q 18.109375 17.390625 22.1875 11.75 
Q 26.265625 6.109375 33.40625 6.109375 
Q 40.53125 6.109375 44.609375 11.75 
Q 48.6875 17.390625 48.6875 27.296875 
z
" id="DejaVuSans-112"/>
      <path d="M 41.109375 46.296875 
Q 39.59375 47.171875 37.8125 47.578125 
Q 36.03125 48 33.890625 48 
Q 26.265625 48 22.1875 43.046875 
Q 18.109375 38.09375 18.109375 28.8125 
L 18.109375 0 
L 9.078125 0 
L 9.078125 54.6875 
L 18.109375 54.6875 
L 18.109375 46.1875 
Q 20.953125 51.171875 25.484375 53.578125 
Q 30.03125 56 36.53125 56 
Q 37.453125 56 38.578125 55.875 
Q 39.703125 55.765625 41.0625 55.515625 
z
" id="DejaVuSans-114"/>
      <path d="M 56.203125 29.59375 
L 56.203125 25.203125 
L 14.890625 25.203125 
Q 15.484375 15.921875 20.484375 11.0625 
Q 25.484375 6.203125 34.421875 6.203125 
Q 39.59375 6.203125 44.453125 7.46875 
Q 49.3125 8.734375 54.109375 11.28125 
L 54.109375 2.78125 
Q 49.265625 0.734375 44.1875 -0.34375 
Q 39.109375 -1.421875 33.890625 -1.421875 
Q 20.796875 -1.421875 13.15625 6.1875 
Q 5.515625 13.8125 5.515625 26.8125 
Q 5.515625 40.234375 12.765625 48.109375 
Q 20.015625 56 32.328125 56 
Q 43.359375 56 49.78125 48.890625 
Q 56.203125 41.796875 56.203125 29.59375 
z
M 47.21875 32.234375 
Q 47.125 39.59375 43.09375 43.984375 
Q 39.0625 48.390625 32.421875 48.390625 
Q 24.90625 48.390625 20.390625 44.140625 
Q 15.875 39.890625 15.1875 32.171875 
z
" id="DejaVuSans-101"/>
      <path d="M 48.78125 52.59375 
L 48.78125 44.1875 
Q 44.96875 46.296875 41.140625 47.34375 
Q 37.3125 48.390625 33.40625 48.390625 
Q 24.65625 48.390625 19.8125 42.84375 
Q 14.984375 37.3125 14.984375 27.296875 
Q 14.984375 17.28125 19.8125 11.734375 
Q 24.65625 6.203125 33.40625 6.203125 
Q 37.3125 6.203125 41.140625 7.25 
Q 44.96875 8.296875 48.78125 10.40625 
L 48.78125 2.09375 
Q 45.015625 0.34375 40.984375 -0.53125 
Q 36.96875 -1.421875 32.421875 -1.421875 
Q 20.0625 -1.421875 12.78125 6.34375 
Q 5.515625 14.109375 5.515625 27.296875 
Q 5.515625 40.671875 12.859375 48.328125 
Q 20.21875 56 33.015625 56 
Q 37.15625 56 41.109375 55.140625 
Q 45.0625 54.296875 48.78125 52.59375 
z
" id="DejaVuSans-99"/>
      <path d="M 9.421875 54.6875 
L 18.40625 54.6875 
L 18.40625 0 
L 9.421875 0 
z
M 9.421875 75.984375 
L 18.40625 75.984375 
L 18.40625 64.59375 
L 9.421875 64.59375 
z
" id="DejaVuSans-105"/>
      <path d="M 44.28125 53.078125 
L 44.28125 44.578125 
Q 40.484375 46.53125 36.375 47.5 
Q 32.28125 48.484375 27.875 48.484375 
Q 21.1875 48.484375 17.84375 46.4375 
Q 14.5 44.390625 14.5 40.28125 
Q 14.5 37.15625 16.890625 35.375 
Q 19.28125 33.59375 26.515625 31.984375 
L 29.59375 31.296875 
Q 39.15625 29.25 43.1875 25.515625 
Q 47.21875 21.78125 47.21875 15.09375 
Q 47.21875 7.46875 41.1875 3.015625 
Q 35.15625 -1.421875 24.609375 -1.421875 
Q 20.21875 -1.421875 15.453125 -0.5625 
Q 10.6875 0.296875 5.421875 2 
L 5.421875 11.28125 
Q 10.40625 8.6875 15.234375 7.390625 
Q 20.0625 6.109375 24.8125 6.109375 
Q 31.15625 6.109375 34.5625 8.28125 
Q 37.984375 10.453125 37.984375 14.40625 
Q 37.984375 18.0625 35.515625 20.015625 
Q 33.0625 21.96875 24.703125 23.78125 
L 21.578125 24.515625 
Q 13.234375 26.265625 9.515625 29.90625 
Q 5.8125 33.546875 5.8125 39.890625 
Q 5.8125 47.609375 11.28125 51.796875 
Q 16.75 56 26.8125 56 
Q 31.78125 56 36.171875 55.265625 
Q 40.578125 54.546875 44.28125 53.078125 
z
" id="DejaVuSans-115"/>
      <path d="M 30.609375 48.390625 
Q 23.390625 48.390625 19.1875 42.75 
Q 14.984375 37.109375 14.984375 27.296875 
Q 14.984375 17.484375 19.15625 11.84375 
Q 23.34375 6.203125 30.609375 6.203125 
Q 37.796875 6.203125 41.984375 11.859375 
Q 46.1875 17.53125 46.1875 27.296875 
Q 46.1875 37.015625 41.984375 42.703125 
Q 37.796875 48.390625 30.609375 48.390625 
z
M 30.609375 56 
Q 42.328125 56 49.015625 48.375 
Q 55.71875 40.765625 55.71875 27.296875 
Q 55.71875 13.875 49.015625 6.21875 
Q 42.328125 -1.421875 30.609375 -1.421875 
Q 18.84375 -1.421875 12.171875 6.21875 
Q 5.515625 13.875 5.515625 27.296875 
Q 5.515625 40.765625 12.171875 48.375 
Q 18.84375 56 30.609375 56 
z
" id="DejaVuSans-111"/>
      <path d="M 54.890625 33.015625 
L 54.890625 0 
L 45.90625 0 
L 45.90625 32.71875 
Q 45.90625 40.484375 42.875 44.328125 
Q 39.84375 48.1875 33.796875 48.1875 
Q 26.515625 48.1875 22.3125 43.546875 
Q 18.109375 38.921875 18.109375 30.90625 
L 18.109375 0 
L 9.078125 0 
L 9.078125 54.6875 
L 18.109375 54.6875 
L 18.109375 46.1875 
Q 21.34375 51.125 25.703125 53.5625 
Q 30.078125 56 35.796875 56 
Q 45.21875 56 50.046875 50.171875 
Q 54.890625 44.34375 54.890625 33.015625 
z
" id="DejaVuSans-110"/>
     </defs>
     <g transform="translate(286 476.836563)scale(0.1 -0.1)">
      <use xlink:href="#DejaVuSans-49"/>
      <use x="63.623047" xlink:href="#DejaVuSans-45"/>
      <use x="99.707031" xlink:href="#DejaVuSans-112"/>
      <use x="163.183594" xlink:href="#DejaVuSans-114"/>
      <use x="204.265625" xlink:href="#DejaVuSans-101"/>
      <use x="265.789062" xlink:href="#DejaVuSans-99"/>
      <use x="320.769531" xlink:href="#DejaVuSans-105"/>
      <use x="348.552734" xlink:href="#DejaVuSans-115"/>
      <use x="400.652344" xlink:href="#DejaVuSans-105"/>
      <use x="428.435547" xlink:href="#DejaVuSans-111"/>
      <use x="489.617188" xlink:href="#DejaVuSans-110"/>
     </g>
    </g>
   </g>
   <g id="matplotlib.axis_2">
    <g id="ytick_1">
     <g id="line2d_23">
      <path clip-path="url(#p61a569e505)" d="M 76.5 448.56 
L 550.8 448.56 
" style="fill:none;stroke:#b0b0b0;stroke-linecap:square;stroke-width:0.8;"/>
     </g>
     <g id="line2d_24">
      <defs>
       <path d="M 0 0 
L -3.5 0 
" id="m7162e5dbfc" style="stroke:#000000;stroke-width:0.8;"/>
      </defs>
      <g>
       <use style="stroke:#000000;stroke-width:0.8;" x="76.5" xlink:href="#m7162e5dbfc" y="448.56"/>
      </g>
     </g>
     <g id="text_13">
      <!-- 0.0 -->
      <g transform="translate(53.596875 452.359219)scale(0.1 -0.1)">
       <use xlink:href="#DejaVuSans-48"/>
       <use x="63.623047" xlink:href="#DejaVuSans-46"/>
       <use x="95.410156" xlink:href="#DejaVuSans-48"/>
      </g>
     </g>
    </g>
    <g id="ytick_2">
     <g id="line2d_25">
      <path clip-path="url(#p61a569e505)" d="M 76.5 409.752 
L 550.8 409.752 
" style="fill:none;stroke:#b0b0b0;stroke-linecap:square;stroke-width:0.8;"/>
     </g>
     <g id="line2d_26">
      <g>
       <use style="stroke:#000000;stroke-width:0.8;" x="76.5" xlink:href="#m7162e5dbfc" y="409.752"/>
      </g>
     </g>
     <g id="text_14">
      <!-- 0.1 -->
      <g transform="translate(53.596875 413.551219)scale(0.1 -0.1)">
       <use xlink:href="#DejaVuSans-48"/>
       <use x="63.623047" xlink:href="#DejaVuSans-46"/>
       <use x="95.410156" xlink:href="#DejaVuSans-49"/>
      </g>
     </g>
    </g>
    <g id="ytick_3">
     <g id="line2d_27">
      <path clip-path="url(#p61a569e505)" d="M 76.5 370.944 
L 550.8 370.944 
" style="fill:none;stroke:#b0b0b0;stroke-linecap:square;stroke-width:0.8;"/>
     </g>
     <g id="line2d_28">
      <g>
       <use style="stroke:#000000;stroke-width:0.8;" x="76.5" xlink:href="#m7162e5dbfc" y="370.944"/>
      </g>
     </g>
     <g id="text_15">
      <!-- 0.2 -->
      <g transform="translate(53.596875 374.743219)scale(0.1 -0.1)">
       <use xlink:href="#DejaVuSans-48"/>
       <use x="63.623047" xlink:href="#DejaVuSans-46"/>
       <use x="95.410156" xlink:href="#DejaVuSans-50"/>
      </g>
     </g>
    </g>
    <g id="ytick_4">
     <g id="line2d_29">
      <path clip-path="url(#p61a569e505)" d="M 76.5 332.136 
L 550.8 332.136 
" style="fill:none;stroke:#b0b0b0;stroke-linecap:square;stroke-width:0.8;"/>
     </g>
     <g id="line2d_30">
      <g>
       <use style="stroke:#000000;stroke-width:0.8;" x="76.5" xlink:href="#m7162e5dbfc" y="332.136"/>
      </g>
     </g>
     <g id="text_16">
      <!-- 0.3 -->
      <g transform="translate(53.596875 335.935219)scale(0.1 -0.1)">
       <use xlink:href="#DejaVuSans-48"/>
       <use x="63.623047" xlink:href="#DejaVuSans-46"/>
       <use x="95.410156" xlink:href="#DejaVuSans-51"/>
      </g>
     </g>
    </g>
    <g id="ytick_5">
     <g id="line2d_31">
      <path clip-path="url(#p61a569e505)" d="M 76.5 293.328 
L 550.8 293.328 
" style="fill:none;stroke:#b0b0b0;stroke-linecap:square;stroke-width:0.8;"/>
     </g>
     <g id="line2d_32">
      <g>
       <use style="stroke:#000000;stroke-width:0.8;" x="76.5" xlink:href="#m7162e5dbfc" y="293.328"/>
      </g>
     </g>
     <g id="text_17">
      <!-- 0.4 -->
      <g transform="translate(53.596875 297.127219)scale(0.1 -0.1)">
       <use xlink:href="#DejaVuSans-48"/>
       <use x="63.623047" xlink:href="#DejaVuSans-46"/>
       <use x="95.410156" xlink:href="#DejaVuSans-52"/>
      </g>
     </g>
    </g>
    <g id="ytick_6">
     <g id="line2d_33">
      <path clip-path="url(#p61a569e505)" d="M 76.5 254.52 
L 550.8 254.52 
" style="fill:none;stroke:#b0b0b0;stroke-linecap:square;stroke-width:0.8;"/>
     </g>
     <g id="line2d_34">
      <g>
       <use style="stroke:#000000;stroke-width:0.8;" x="76.5" xlink:href="#m7162e5dbfc" y="254.52"/>
      </g>
     </g>
     <g id="text_18">
      <!-- 0.5 -->
      <g transform="translate(53.596875 258.319219)scale(0.1 -0.1)">
       <use xlink:href="#DejaVuSans-48"/>
       <use x="63.623047" xlink:href="#DejaVuSans-46"/>
       <use x="95.410156" xlink:href="#DejaVuSans-53"/>
      </g>
     </g>
    </g>
    <g id="ytick_7">
     <g id="line2d_35">
      <path clip-path="url(#p61a569e505)" d="M 76.5 215.712 
L 550.8 215.712 
" style="fill:none;stroke:#b0b0b0;stroke-linecap:square;stroke-width:0.8;"/>
     </g>
     <g id="line2d_36">
      <g>
       <use style="stroke:#000000;stroke-width:0.8;" x="76.5" xlink:href="#m7162e5dbfc" y="215.712"/>
      </g>
     </g>
     <g id="text_19">
      <!-- 0.6 -->
      <g transform="translate(53.596875 219.511219)scale(0.1 -0.1)">
       <use xlink:href="#DejaVuSans-48"/>
       <use x="63.623047" xlink:href="#DejaVuSans-46"/>
       <use x="95.410156" xlink:href="#DejaVuSans-54"/>
      </g>
     </g>
    </g>
    <g id="ytick_8">
     <g id="line2d_37">
      <path clip-path="url(#p61a569e505)" d="M 76.5 176.904 
L 550.8 176.904 
" style="fill:none;stroke:#b0b0b0;stroke-linecap:square;stroke-width:0.8;"/>
     </g>
     <g id="line2d_38">
      <g>
       <use style="stroke:#000000;stroke-width:0.8;" x="76.5" xlink:href="#m7162e5dbfc" y="176.904"/>
      </g>
     </g>
     <g id="text_20">
      <!-- 0.7 -->
      <g transform="translate(53.596875 180.703219)scale(0.1 -0.1)">
       <use xlink:href="#DejaVuSans-48"/>
       <use x="63.623047" xlink:href="#DejaVuSans-46"/>
       <use x="95.410156" xlink:href="#DejaVuSans-55"/>
      </g>
     </g>
    </g>
    <g id="ytick_9">
     <g id="line2d_39">
      <path clip-path="url(#p61a569e505)" d="M 76.5 138.096 
L 550.8 138.096 
" style="fill:none;stroke:#b0b0b0;stroke-linecap:square;stroke-width:0.8;"/>
     </g>
     <g id="line2d_40">
      <g>
       <use style="stroke:#000000;stroke-width:0.8;" x="76.5" xlink:href="#m7162e5dbfc" y="138.096"/>
      </g>
     </g>
     <g id="text_21">
      <!-- 0.8 -->
      <g transform="translate(53.596875 141.895219)scale(0.1 -0.1)">
       <use xlink:href="#DejaVuSans-48"/>
       <use x="63.623047" xlink:href="#DejaVuSans-46"/>
       <use x="95.410156" xlink:href="#DejaVuSans-56"/>
      </g>
     </g>
    </g>
    <g id="ytick_10">
     <g id="line2d_41">
      <path clip-path="url(#p61a569e505)" d="M 76.5 99.288 
L 550.8 99.288 
" style="fill:none;stroke:#b0b0b0;stroke-linecap:square;stroke-width:0.8;"/>
     </g>
     <g id="line2d_42">
      <g>
       <use style="stroke:#000000;stroke-width:0.8;" x="76.5" xlink:href="#m7162e5dbfc" y="99.288"/>
      </g>
     </g>
     <g id="text_22">
      <!-- 0.9 -->
      <g transform="translate(53.596875 103.087219)scale(0.1 -0.1)">
       <use xlink:href="#DejaVuSans-48"/>
       <use x="63.623047" xlink:href="#DejaVuSans-46"/>
       <use x="95.410156" xlink:href="#DejaVuSans-57"/>
      </g>
     </g>
    </g>
    <g id="ytick_11">
     <g id="line2d_43">
      <path clip-path="url(#p61a569e505)" d="M 76.5 60.48 
L 550.8 60.48 
" style="fill:none;stroke:#b0b0b0;stroke-linecap:square;stroke-width:0.8;"/>
     </g>
     <g id="line2d_44">
      <g>
       <use style="stroke:#000000;stroke-width:0.8;" x="76.5" xlink:href="#m7162e5dbfc" y="60.48"/>
      </g>
     </g>
     <g id="text_23">
      <!-- 1.0 -->
      <g transform="translate(53.596875 64.279219)scale(0.1 -0.1)">
       <use xlink:href="#DejaVuSans-49"/>
       <use x="63.623047" xlink:href="#DejaVuSans-46"/>
       <use x="95.410156" xlink:href="#DejaVuSans-48"/>
      </g>
     </g>
    </g>
    <g id="text_24">
     <!-- #correct/647 -->
     <defs>
      <path d="M 51.125 44 
L 36.921875 44 
L 32.8125 27.6875 
L 47.125 27.6875 
z
M 43.796875 71.78125 
L 38.71875 51.515625 
L 52.984375 51.515625 
L 58.109375 71.78125 
L 65.921875 71.78125 
L 60.890625 51.515625 
L 76.125 51.515625 
L 76.125 44 
L 58.984375 44 
L 54.984375 27.6875 
L 70.515625 27.6875 
L 70.515625 20.21875 
L 53.078125 20.21875 
L 48 0 
L 40.1875 0 
L 45.21875 20.21875 
L 30.90625 20.21875 
L 25.875 0 
L 18.015625 0 
L 23.09375 20.21875 
L 7.71875 20.21875 
L 7.71875 27.6875 
L 24.90625 27.6875 
L 29 44 
L 13.28125 44 
L 13.28125 51.515625 
L 30.90625 51.515625 
L 35.890625 71.78125 
z
" id="DejaVuSans-35"/>
      <path d="M 18.3125 70.21875 
L 18.3125 54.6875 
L 36.8125 54.6875 
L 36.8125 47.703125 
L 18.3125 47.703125 
L 18.3125 18.015625 
Q 18.3125 11.328125 20.140625 9.421875 
Q 21.96875 7.515625 27.59375 7.515625 
L 36.8125 7.515625 
L 36.8125 0 
L 27.59375 0 
Q 17.1875 0 13.234375 3.875 
Q 9.28125 7.765625 9.28125 18.015625 
L 9.28125 47.703125 
L 2.6875 47.703125 
L 2.6875 54.6875 
L 9.28125 54.6875 
L 9.28125 70.21875 
z
" id="DejaVuSans-116"/>
      <path d="M 25.390625 72.90625 
L 33.6875 72.90625 
L 8.296875 -9.28125 
L 0 -9.28125 
z
" id="DejaVuSans-47"/>
     </defs>
     <g transform="translate(47.517187 287.641094)rotate(-90)scale(0.1 -0.1)">
      <use xlink:href="#DejaVuSans-35"/>
      <use x="83.789062" xlink:href="#DejaVuSans-99"/>
      <use x="138.769531" xlink:href="#DejaVuSans-111"/>
      <use x="199.951172" xlink:href="#DejaVuSans-114"/>
      <use x="241.048828" xlink:href="#DejaVuSans-114"/>
      <use x="282.130859" xlink:href="#DejaVuSans-101"/>
      <use x="343.654297" xlink:href="#DejaVuSans-99"/>
      <use x="398.634766" xlink:href="#DejaVuSans-116"/>
      <use x="437.84375" xlink:href="#DejaVuSans-47"/>
      <use x="471.535156" xlink:href="#DejaVuSans-54"/>
      <use x="535.158203" xlink:href="#DejaVuSans-52"/>
      <use x="598.78125" xlink:href="#DejaVuSans-55"/>
     </g>
    </g>
   </g>
   <g id="line2d_45">
    <path clip-path="url(#p61a569e505)" d="M 76.5 447.960185 
L 76.5 289.009335 
L 78.276404 289.009335 
L 78.206115 282.411376 
L 79.9 282.411376 
L 79.79375 277.013045 
L 81.423529 277.013045 
L 81.372945 275.213601 
L 82.975085 275.213601 
L 82.866443 272.214529 
L 84.431438 272.214529 
L 84.378738 271.0149 
L 85.923179 271.0149 
L 85.534286 263.217311 
L 87.006646 263.217311 
L 86.778947 259.018609 
L 88.211111 259.018609 
L 87.158427 239.824544 
L 88.457143 239.824544 
L 88.3575 238.0251 
L 89.638504 238.0251 
L 89.566116 236.825471 
L 90.833242 236.825471 
L 90.525 232.026955 
L 91.758981 232.026955 
L 91.557143 229.027883 
L 92.768865 229.027883 
L 92.515325 225.428995 
L 93.702591 225.428995 
L 92.656204 210.433632 
L 93.768204 210.433632 
L 93.24 202.636043 
L 94.314085 202.636043 
L 94.230841 201.436414 
L 95.295105 201.436414 
L 94.660135 192.439196 
L 95.685169 192.439196 
L 95.642152 191.839382 
L 96.660403 191.839382 
L 95.88 181.04272 
L 96.856223 181.04272 
L 96.640127 178.043648 
L 97.602331 178.043648 
L 97.513291 176.844019 
L 98.467579 176.844019 
L 98.375472 175.644389 
L 99.321967 175.644389 
L 99.226875 174.44476 
L 101.100622 174.44476 
L 100.848049 171.445688 
L 101.770082 171.445688 
L 101.463158 167.846801 
L 102.370909 167.846801 
L 102.163527 165.447543 
L 103.0608 165.447543 
L 102.438281 158.249768 
L 105.050097 158.249768 
L 104.939652 157.050139 
L 105.800386 157.050139 
L 105.63167 155.250696 
L 106.484483 155.250696 
L 106.427151 154.650881 
L 108.961597 154.650881 
L 108.9 154.051066 
L 110.570699 154.051066 
L 110.378571 152.251623 
L 111.204878 152.251623 
L 110.755 148.052921 
L 111.568392 148.052921 
L 111.183729 144.454034 
L 111.985949 144.454034 
L 111.921311 143.854219 
L 112.719273 143.854219 
L 112.653539 143.254405 
L 115.026173 143.254405 
L 114.88759 142.054776 
L 116.45 142.054776 
L 116.165658 139.655518 
L 117.706915 139.655518 
L 117.633982 139.055703 
L 118.399293 139.055703 
L 118.251761 137.856074 
L 119.011951 137.856074 
L 118.937368 137.25626 
L 120.447378 137.25626 
L 120.218087 135.456816 
L 123.192746 135.456816 
L 123.032014 134.257187 
L 128.12449 134.257187 
L 128.036842 133.657372 
L 130.179223 133.657372 
L 130.088702 133.057558 
L 131.502857 133.057558 
L 131.226923 131.258114 
L 132.6255 131.258114 
L 132.439037 130.058485 
L 133.132836 130.058485 
L 133.039073 129.458671 
L 134.417822 129.458671 
L 134.038033 127.059413 
L 134.720131 127.059413 
L 134.625 126.459598 
L 135.303915 126.459598 
L 135.208143 125.859784 
L 137.898058 125.859784 
L 137.798869 125.259969 
L 139.790836 125.259969 
L 139.587981 124.06034 
L 140.901757 124.06034 
L 140.189573 119.861638 
L 140.837224 119.861638 
L 140.634906 118.662009 
L 142.560563 118.662009 
L 142.354446 117.46238 
L 144.257143 117.46238 
L 143.942968 115.662937 
L 145.196764 115.662937 
L 144.985714 114.463308 
L 145.608129 114.463308 
L 145.291603 112.663864 
L 148.363636 112.663864 
L 148.254917 112.064049 
L 148.862991 112.064049 
L 148.753846 111.464235 
L 149.359337 111.464235 
L 149.249774 110.86442 
L 149.852703 110.86442 
L 149.633084 109.664791 
L 151.426677 109.664791 
L 151.204012 108.465162 
L 153.564993 108.465162 
L 153.337997 107.265533 
L 157.393732 107.265533 
L 157.275983 106.665719 
L 157.847965 106.665719 
L 157.729898 106.065904 
L 158.867583 106.065904 
L 158.748555 105.46609 
L 159.314286 105.46609 
L 159.194957 104.866275 
L 160.880488 104.866275 
L 160.759599 104.266461 
L 174.246473 104.266461 
L 173.976828 103.066832 
L 177.580328 103.066832 
L 177.442428 102.467017 
L 189.756332 102.467017 
L 189.607115 101.867202 
L 190.556373 101.867202 
L 190.406693 101.267388 
L 199.623913 101.267388 
L 199.466667 100.667573 
L 200.807634 100.667573 
L 200.649682 100.067759 
L 201.537262 100.067759 
L 201.378987 99.467944 
L 217.81737 99.467944 
L 217.647108 98.86813 
L 218.447957 98.86813 
L 218.277551 98.268315 
L 221.048571 98.268315 
L 220.534164 96.468872 
L 220.925474 96.468872 
L 220.754556 95.869057 
L 233.520819 95.869057 
L 233.342386 95.269243 
L 241.770465 95.269243 
L 241.587845 94.669428 
L 245.301092 94.669428 
L 245.117012 94.069614 
L 260.622671 94.069614 
L 260.432265 93.469799 
L 277.927697 93.469799 
L 277.732136 92.869985 
L 282.678074 92.869985 
L 282.481714 92.27017 
L 287.003933 92.27017 
L 286.807016 91.670355 
L 294.246818 91.670355 
L 294.049046 91.070541 
L 298.404643 91.070541 
L 298.20669 90.470726 
L 309.198379 90.470726 
L 309 89.870912 
L 320.952836 89.870912 
L 320.952836 89.870912 
" style="fill:none;stroke:#1f77b4;stroke-linecap:square;stroke-width:2;"/>
   </g>
   <g id="line2d_46">
    <path clip-path="url(#p61a569e505)" d="M 76.5 447.960185 
L 76.5 429.96575 
L 91.321875 429.96575 
L 90.051429 428.166306 
L 88.981579 426.366862 
L 100.823077 426.366862 
L 99.085714 424.567419 
L 97.121739 422.168161 
L 95.472 419.768903 
L 94.066667 417.369645 
L 92.577966 414.370572 
L 91.321875 411.371499 
L 98.390769 411.371499 
L 96.827143 408.372427 
L 95.222368 404.773539 
L 94.742308 403.57391 
L 100.51519 403.57391 
L 98.82 399.975023 
L 97.121739 395.776321 
L 95.663636 391.57762 
L 95.284158 390.377991 
L 99.75 390.377991 
L 98.059091 385.579474 
L 97.302632 383.180216 
L 101.246087 383.180216 
L 99.636585 378.3817 
L 98.059091 372.983369 
L 97.737313 371.78374 
L 101.093333 371.78374 
L 99.880986 367.585039 
L 103.034266 367.585039 
L 101.3 361.586893 
L 104.218831 361.586893 
L 102.528659 355.588748 
L 100.892571 348.990788 
L 99.327273 341.793014 
L 98.849215 339.393756 
L 101.203125 339.393756 
L 101.07513 338.793941 
L 103.393299 338.793941 
L 101.704348 330.996352 
L 101.109906 327.99728 
L 103.221127 327.99728 
L 101.573128 319.599876 
L 99.922222 310.002844 
L 98.390769 299.805997 
L 97.121739 290.208964 
L 100.385612 290.208964 
L 99.963604 287.209892 
L 101.551056 287.209892 
L 101.117647 284.210819 
L 102.668276 284.210819 
L 102.312245 281.811561 
L 103.832542 281.811561 
L 102.178662 270.415085 
L 103.602857 270.415085 
L 102.21506 260.218238 
L 103.562162 260.218238 
L 103.481138 259.618423 
L 107.463205 259.618423 
L 107.1 257.219165 
L 108.397368 257.219165 
L 108.028613 254.819907 
L 109.304611 254.819907 
L 109.116619 253.620278 
L 111.633333 253.620278 
L 110.946369 249.421577 
L 112.171588 249.421577 
L 111.681593 246.422504 
L 114.081148 246.422504 
L 113.674865 244.023246 
L 114.8531 244.023246 
L 114.242706 240.424359 
L 115.397619 240.424359 
L 115.192895 239.22473 
L 116.33622 239.22473 
L 115.718605 235.625842 
L 119.065385 235.625842 
L 118.956522 235.026028 
L 122.24467 235.026028 
L 122.128861 234.426213 
L 123.211364 234.426213 
L 122.976633 233.226584 
L 124.048872 233.226584 
L 123.576923 230.827326 
L 125.686667 230.827326 
L 125.205623 228.428068 
L 126.243659 228.428068 
L 126.122628 227.828253 
L 127.153398 227.828253 
L 126.546043 224.829181 
L 127.561005 224.829181 
L 127.439141 224.229366 
L 128.447143 224.229366 
L 128.078723 222.429923 
L 130.068 222.429923 
L 129.942254 221.830108 
L 131.908879 221.830108 
L 131.651163 220.630479 
L 132.623666 220.630479 
L 132.49375 220.030665 
L 134.421429 220.030665 
L 134.288276 219.43085 
L 136.194508 219.43085 
L 135.922551 218.231221 
L 136.865455 218.231221 
L 136.728571 217.631406 
L 137.665385 217.631406 
L 137.253034 215.831963 
L 139.103356 215.831963 
L 138.963616 215.232148 
L 139.880846 215.232148 
L 139.74 214.632334 
L 148.676087 214.632334 
L 148.519523 214.032519 
L 149.39026 214.032519 
L 149.232829 213.432705 
L 150.96 213.432705 
L 150.800215 212.83289 
L 151.656745 212.83289 
L 150.860593 209.833818 
L 151.706131 209.833818 
L 151.547468 209.234003 
L 152.388 209.234003 
L 152.069811 208.034374 
L 152.903975 208.034374 
L 152.744468 207.43456 
L 156.040994 207.43456 
L 155.71299 206.23493 
L 157.335524 206.23493 
L 157.169877 205.635116 
L 157.974847 205.635116 
L 157.808571 205.035301 
L 158.608961 205.035301 
L 158.442073 204.435487 
L 163.169277 204.435487 
L 162.995591 203.835672 
L 164.543713 203.835672 
L 164.368327 203.235858 
L 165.136581 203.235858 
L 164.960714 202.636043 
L 165.724752 202.636043 
L 165.372781 201.436414 
L 166.131496 201.436414 
L 165.955403 200.8366 
L 170.439029 200.8366 
L 170.256977 200.236785 
L 171.726255 200.236785 
L 171.542775 199.636971 
L 175.877143 199.636971 
L 175.688213 199.037156 
L 177.109091 199.037156 
L 176.729434 197.837527 
L 177.433898 197.837527 
L 177.244173 197.237713 
L 177.945028 197.237713 
L 177.565794 196.038083 
L 180.335622 196.038083 
L 180.143333 195.438269 
L 180.828466 195.438269 
L 180.635978 194.838454 
L 182.673578 194.838454 
L 182.285375 193.638825 
L 188.25054 193.638825 
L 188.04991 193.039011 
L 193.818021 193.039011 
L 193.611111 192.439196 
L 196.733392 192.439196 
L 196.31446 191.239567 
L 198.157539 191.239567 
L 197.947059 190.639753 
L 201.57226 190.639753 
L 201.358462 190.039938 
L 206.072681 190.039938 
L 205.854545 189.440124 
L 212.685149 189.440124 
L 212.460791 188.840309 
L 215.225 188.840309 
L 214.998695 188.240495 
L 216.634091 188.240495 
L 216.406969 187.64068 
L 219.627448 187.64068 
L 219.398077 187.040866 
L 220.983732 187.040866 
L 220.753662 186.441051 
L 225.416797 186.441051 
L 224.48752 184.041793 
L 229.005692 184.041793 
L 228.771429 183.441978 
L 232.197264 183.441978 
L 231.961002 182.842164 
L 234.837744 182.842164 
L 234.6 182.242349 
L 241.11 182.242349 
L 240.868282 181.642535 
L 241.775842 181.642535 
L 241.534211 181.04272 
L 247.302439 181.04272 
L 247.057736 180.442906 
L 247.925571 180.442906 
L 247.437179 179.243277 
L 248.299006 179.243277 
L 248.055319 178.643462 
L 248.91174 178.643462 
L 248.425388 177.443833 
L 249.275949 177.443833 
L 249.033287 176.844019 
L 249.456522 176.844019 
L 248.972727 175.644389 
L 250.233844 175.644389 
L 249.75125 174.44476 
L 254.686475 174.44476 
L 254.443383 173.844946 
L 254.847139 173.844946 
L 254.60449 173.245131 
L 256.605811 173.245131 
L 256.362753 172.645317 
L 265.6 172.645317 
L 265.353133 172.045502 
L 267.938034 172.045502 
L 267.690698 171.445688 
L 268.783784 171.445688 
L 268.536632 170.845873 
L 272.118655 170.845873 
L 271.870722 170.246059 
L 273.627204 170.246059 
L 273.379245 169.646244 
L 273.727764 169.646244 
L 273.480301 169.04643 
L 273.82782 169.04643 
L 273.580851 168.446615 
L 279.02319 168.446615 
L 278.775 167.846801 
L 281.416019 167.846801 
L 280.919855 166.647172 
L 288.54 166.647172 
L 288.290834 166.047357 
L 294.906186 166.047357 
L 294.656293 165.447543 
L 298.125508 165.447543 
L 297.875648 164.847728 
L 301.529 164.847728 
L 301.279245 164.247913 
L 301.831894 164.247913 
L 301.582633 163.648099 
L 302.132781 163.648099 
L 301.884013 163.048284 
L 303.519825 163.048284 
L 303.271444 162.44847 
L 305.950325 162.44847 
L 305.70227 161.848655 
L 307.281847 161.848655 
L 307.034227 161.248841 
L 340.633765 161.248841 
L 340.389649 160.649026 
L 349.50557 160.649026 
L 349.264399 160.049212 
L 353.959362 160.049212 
L 353.720172 159.449397 
L 357.877975 159.449397 
L 357.403875 158.249768 
L 364.769854 158.249768 
L 364.769854 158.249768 
" style="fill:none;stroke:#ff7f0e;stroke-linecap:square;stroke-width:2;"/>
   </g>
   <g id="line2d_47">
    <path clip-path="url(#p61a569e505)" d="M 76.5 447.960185 
L 76.5 390.377991 
L 81.339796 390.377991 
L 80.660526 380.780958 
L 80.039552 368.784668 
L 79.464375 353.18949 
L 78.944845 332.795796 
L 78.747867 322.598949 
L 80.974528 322.598949 
L 80.792308 317.200618 
L 82.909459 317.200618 
L 82.796018 314.80136 
L 84.857709 314.80136 
L 83.94 298.006553 
L 83.579104 290.208964 
L 85.315985 290.208964 
L 85.21875 288.409521 
L 86.924176 288.409521 
L 85.986 272.214529 
L 87.530233 272.214529 
L 86.500301 253.620278 
L 87.894595 253.620278 
L 87.562391 247.622133 
L 88.909012 247.622133 
L 88.068293 232.62677 
L 89.318919 232.62677 
L 88.692802 221.230294 
L 89.877692 221.230294 
L 89.775573 219.43085 
L 90.945685 219.43085 
L 90.836524 217.631406 
L 91.992211 217.631406 
L 91.8 214.632334 
L 92.936139 214.632334 
L 92.814988 212.83289 
L 93.9375 212.83289 
L 92.596154 192.439196 
L 92.523649 191.239567 
L 93.553483 191.239567 
L 93.142105 184.641607 
L 94.143545 184.641607 
L 93.582839 175.644389 
L 94.549471 175.644389 
L 94.398113 173.245131 
L 95.352929 173.245131 
L 95.157764 170.246059 
L 96.099174 170.246059 
L 95.702429 164.247913 
L 96.621818 164.247913 
L 96.301789 159.449397 
L 97.203571 159.449397 
L 97.121739 158.249768 
L 98.016568 158.249768 
L 97.723541 154.051066 
L 98.603301 154.051066 
L 98.306897 149.852365 
L 99.172084 149.852365 
L 99 147.453107 
L 99.855682 147.453107 
L 99.680075 145.053849 
L 100.526454 145.053849 
L 100.481461 144.454034 
L 101.323178 144.454034 
L 100.734307 136.656445 
L 101.554098 136.656445 
L 101.463158 135.456816 
L 103.89639 135.456816 
L 103.797842 134.257187 
L 106.990714 134.257187 
L 106.936364 133.657372 
L 107.726157 133.657372 
L 107.233975 128.259042 
L 108.009441 128.259042 
L 107.95445 127.659227 
L 110.260938 127.659227 
L 110.028103 125.259969 
L 110.786747 125.259969 
L 110.552308 122.860711 
L 111.303584 122.860711 
L 111.244293 122.260896 
L 113.479322 122.260896 
L 113.168571 119.261824 
L 113.902852 119.261824 
L 113.591681 116.262751 
L 115.763245 116.262751 
L 115.633663 115.063122 
L 118.487213 115.063122 
L 118.281729 113.263679 
L 118.986156 113.263679 
L 118.917073 112.663864 
L 120.317018 112.663864 
L 120.246117 112.064049 
L 120.94168 112.064049 
L 120.87 111.464235 
L 122.252412 111.464235 
L 122.178973 110.86442 
L 122.865865 110.86442 
L 122.79168 110.264606 
L 124.156938 110.264606 
L 124.081051 109.664791 
L 125.435714 109.664791 
L 125.358162 109.064977 
L 128.03811 109.064977 
L 127.715493 106.665719 
L 128.376563 106.665719 
L 128.214953 105.46609 
L 132.127778 105.46609 
L 131.871429 103.666646 
L 133.793119 103.666646 
L 133.531507 101.867202 
L 136.056581 101.867202 
L 135.966616 101.267388 
L 137.216114 101.267388 
L 137.124812 100.667573 
L 138.365217 100.667573 
L 138.088209 98.86813 
L 139.316518 98.86813 
L 139.22318 98.268315 
L 139.833828 98.268315 
L 139.74 97.668501 
L 143.959091 97.668501 
L 143.761842 96.468872 
L 145.539301 96.468872 
L 145.23913 94.669428 
L 145.826049 94.669428 
L 145.625974 93.469799 
L 147.372414 93.469799 
L 147.270732 92.869985 
L 149.000143 92.869985 
L 148.79359 91.670355 
L 151.636634 91.670355 
L 151.424683 90.470726 
L 152.548101 90.470726 
L 152.334783 89.271097 
L 155.10961 89.271097 
L 155.000278 88.671283 
L 162.559891 88.671283 
L 162.442643 88.071468 
L 164.023474 88.071468 
L 163.904878 87.471654 
L 168.053887 87.471654 
L 167.931325 86.871839 
L 172.989036 86.871839 
L 172.861741 86.272025 
L 176.32 86.272025 
L 176.189687 85.67221 
L 177.165234 85.67221 
L 177.03433 85.072396 
L 178.968435 85.072396 
L 178.836047 84.472581 
L 180.748458 84.472581 
L 179.950638 80.873694 
L 181.833122 80.873694 
L 181.69962 80.273879 
L 184.485283 80.273879 
L 184.349623 79.674065 
L 187.544085 79.674065 
L 187.40597 79.07425 
L 193.625428 79.07425 
L 193.339756 77.874621 
L 202.265636 77.874621 
L 202.116271 77.274807 
L 206.208803 77.274807 
L 206.056741 76.674992 
L 207.264953 76.674992 
L 207.112369 76.075178 
L 208.709059 76.075178 
L 208.555684 75.475363 
L 216.316327 75.475363 
L 216.157984 74.875549 
L 220.275503 74.875549 
L 220.11486 74.275734 
L 229.798698 74.275734 
L 229.632611 73.67592 
L 234.093269 73.67592 
L 233.92508 73.076105 
L 236.274788 73.076105 
L 236.105714 72.476291 
L 250.106269 72.476291 
L 249.930909 71.876476 
L 269.268431 71.876476 
L 269.086402 71.276662 
L 277.599725 71.276662 
L 277.415737 70.676847 
L 295.62579 70.676847 
L 295.438823 70.077032 
L 298.240253 70.077032 
L 298.053288 69.477218 
L 298.266217 69.477218 
L 298.079545 68.877403 
L 307.500243 68.877403 
L 307.500243 68.877403 
" style="fill:none;stroke:#2ca02c;stroke-linecap:square;stroke-width:2;"/>
   </g>
   <g id="patch_3">
    <path d="M 76.5 448.56 
L 76.5 60.48 
" style="fill:none;stroke:#000000;stroke-linecap:square;stroke-linejoin:miter;stroke-width:0.8;"/>
   </g>
   <g id="patch_4">
    <path d="M 550.8 448.56 
L 550.8 60.48 
" style="fill:none;stroke:#000000;stroke-linecap:square;stroke-linejoin:miter;stroke-width:0.8;"/>
   </g>
   <g id="patch_5">
    <path d="M 76.5 448.56 
L 550.8 448.56 
" style="fill:none;stroke:#000000;stroke-linecap:square;stroke-linejoin:miter;stroke-width:0.8;"/>
   </g>
   <g id="patch_6">
    <path d="M 76.5 60.48 
L 550.8 60.48 
" style="fill:none;stroke:#000000;stroke-linecap:square;stroke-linejoin:miter;stroke-width:0.8;"/>
   </g>
   <g id="text_25">
    <!-- bikes: img1-img3 -->
    <defs>
     <path d="M 48.6875 27.296875 
Q 48.6875 37.203125 44.609375 42.84375 
Q 40.53125 48.484375 33.40625 48.484375 
Q 26.265625 48.484375 22.1875 42.84375 
Q 18.109375 37.203125 18.109375 27.296875 
Q 18.109375 17.390625 22.1875 11.75 
Q 26.265625 6.109375 33.40625 6.109375 
Q 40.53125 6.109375 44.609375 11.75 
Q 48.6875 17.390625 48.6875 27.296875 
z
M 18.109375 46.390625 
Q 20.953125 51.265625 25.265625 53.625 
Q 29.59375 56 35.59375 56 
Q 45.5625 56 51.78125 48.09375 
Q 58.015625 40.1875 58.015625 27.296875 
Q 58.015625 14.40625 51.78125 6.484375 
Q 45.5625 -1.421875 35.59375 -1.421875 
Q 29.59375 -1.421875 25.265625 0.953125 
Q 20.953125 3.328125 18.109375 8.203125 
L 18.109375 0 
L 9.078125 0 
L 9.078125 75.984375 
L 18.109375 75.984375 
z
" id="DejaVuSans-98"/>
     <path d="M 9.078125 75.984375 
L 18.109375 75.984375 
L 18.109375 31.109375 
L 44.921875 54.6875 
L 56.390625 54.6875 
L 27.390625 29.109375 
L 57.625 0 
L 45.90625 0 
L 18.109375 26.703125 
L 18.109375 0 
L 9.078125 0 
z
" id="DejaVuSans-107"/>
     <path d="M 11.71875 12.40625 
L 22.015625 12.40625 
L 22.015625 0 
L 11.71875 0 
z
M 11.71875 51.703125 
L 22.015625 51.703125 
L 22.015625 39.3125 
L 11.71875 39.3125 
z
" id="DejaVuSans-58"/>
     <path id="DejaVuSans-32"/>
     <path d="M 52 44.1875 
Q 55.375 50.25 60.0625 53.125 
Q 64.75 56 71.09375 56 
Q 79.640625 56 84.28125 50.015625 
Q 88.921875 44.046875 88.921875 33.015625 
L 88.921875 0 
L 79.890625 0 
L 79.890625 32.71875 
Q 79.890625 40.578125 77.09375 44.375 
Q 74.3125 48.1875 68.609375 48.1875 
Q 61.625 48.1875 57.5625 43.546875 
Q 53.515625 38.921875 53.515625 30.90625 
L 53.515625 0 
L 44.484375 0 
L 44.484375 32.71875 
Q 44.484375 40.625 41.703125 44.40625 
Q 38.921875 48.1875 33.109375 48.1875 
Q 26.21875 48.1875 22.15625 43.53125 
Q 18.109375 38.875 18.109375 30.90625 
L 18.109375 0 
L 9.078125 0 
L 9.078125 54.6875 
L 18.109375 54.6875 
L 18.109375 46.1875 
Q 21.1875 51.21875 25.484375 53.609375 
Q 29.78125 56 35.6875 56 
Q 41.65625 56 45.828125 52.96875 
Q 50 49.953125 52 44.1875 
z
" id="DejaVuSans-109"/>
     <path d="M 45.40625 27.984375 
Q 45.40625 37.75 41.375 43.109375 
Q 37.359375 48.484375 30.078125 48.484375 
Q 22.859375 48.484375 18.828125 43.109375 
Q 14.796875 37.75 14.796875 27.984375 
Q 14.796875 18.265625 18.828125 12.890625 
Q 22.859375 7.515625 30.078125 7.515625 
Q 37.359375 7.515625 41.375 12.890625 
Q 45.40625 18.265625 45.40625 27.984375 
z
M 54.390625 6.78125 
Q 54.390625 -7.171875 48.1875 -13.984375 
Q 42 -20.796875 29.203125 -20.796875 
Q 24.46875 -20.796875 20.265625 -20.09375 
Q 16.0625 -19.390625 12.109375 -17.921875 
L 12.109375 -9.1875 
Q 16.0625 -11.328125 19.921875 -12.34375 
Q 23.78125 -13.375 27.78125 -13.375 
Q 36.625 -13.375 41.015625 -8.765625 
Q 45.40625 -4.15625 45.40625 5.171875 
L 45.40625 9.625 
Q 42.625 4.78125 38.28125 2.390625 
Q 33.9375 0 27.875 0 
Q 17.828125 0 11.671875 7.65625 
Q 5.515625 15.328125 5.515625 27.984375 
Q 5.515625 40.671875 11.671875 48.328125 
Q 17.828125 56 27.875 56 
Q 33.9375 56 38.28125 53.609375 
Q 42.625 51.21875 45.40625 46.390625 
L 45.40625 54.6875 
L 54.390625 54.6875 
z
" id="DejaVuSans-103"/>
    </defs>
    <g transform="translate(261.516563 41.042625)scale(0.12 -0.12)">
     <use xlink:href="#DejaVuSans-98"/>
     <use x="63.476562" xlink:href="#DejaVuSans-105"/>
     <use x="91.259766" xlink:href="#DejaVuSans-107"/>
     <use x="149.123047" xlink:href="#DejaVuSans-101"/>
     <use x="210.646484" xlink:href="#DejaVuSans-115"/>
     <use x="262.746094" xlink:href="#DejaVuSans-58"/>
     <use x="296.4375" xlink:href="#DejaVuSans-32"/>
     <use x="328.224609" xlink:href="#DejaVuSans-105"/>
     <use x="356.007812" xlink:href="#DejaVuSans-109"/>
     <use x="453.419922" xlink:href="#DejaVuSans-103"/>
     <use x="516.896484" xlink:href="#DejaVuSans-49"/>
     <use x="580.519531" xlink:href="#DejaVuSans-45"/>
     <use x="616.603516" xlink:href="#DejaVuSans-105"/>
     <use x="644.386719" xlink:href="#DejaVuSans-109"/>
     <use x="741.798828" xlink:href="#DejaVuSans-103"/>
     <use x="805.275391" xlink:href="#DejaVuSans-51"/>
    </g>
    <!-- NearestNeighbours -->
    <defs>
     <path d="M 9.8125 72.90625 
L 23.09375 72.90625 
L 55.421875 11.921875 
L 55.421875 72.90625 
L 64.984375 72.90625 
L 64.984375 0 
L 51.703125 0 
L 19.390625 60.984375 
L 19.390625 0 
L 9.8125 0 
z
" id="DejaVuSans-78"/>
     <path d="M 34.28125 27.484375 
Q 23.390625 27.484375 19.1875 25 
Q 14.984375 22.515625 14.984375 16.5 
Q 14.984375 11.71875 18.140625 8.90625 
Q 21.296875 6.109375 26.703125 6.109375 
Q 34.1875 6.109375 38.703125 11.40625 
Q 43.21875 16.703125 43.21875 25.484375 
L 43.21875 27.484375 
z
M 52.203125 31.203125 
L 52.203125 0 
L 43.21875 0 
L 43.21875 8.296875 
Q 40.140625 3.328125 35.546875 0.953125 
Q 30.953125 -1.421875 24.3125 -1.421875 
Q 15.921875 -1.421875 10.953125 3.296875 
Q 6 8.015625 6 15.921875 
Q 6 25.140625 12.171875 29.828125 
Q 18.359375 34.515625 30.609375 34.515625 
L 43.21875 34.515625 
L 43.21875 35.40625 
Q 43.21875 41.609375 39.140625 45 
Q 35.0625 48.390625 27.6875 48.390625 
Q 23 48.390625 18.546875 47.265625 
Q 14.109375 46.140625 10.015625 43.890625 
L 10.015625 52.203125 
Q 14.9375 54.109375 19.578125 55.046875 
Q 24.21875 56 28.609375 56 
Q 40.484375 56 46.34375 49.84375 
Q 52.203125 43.703125 52.203125 31.203125 
z
" id="DejaVuSans-97"/>
     <path d="M 54.890625 33.015625 
L 54.890625 0 
L 45.90625 0 
L 45.90625 32.71875 
Q 45.90625 40.484375 42.875 44.328125 
Q 39.84375 48.1875 33.796875 48.1875 
Q 26.515625 48.1875 22.3125 43.546875 
Q 18.109375 38.921875 18.109375 30.90625 
L 18.109375 0 
L 9.078125 0 
L 9.078125 75.984375 
L 18.109375 75.984375 
L 18.109375 46.1875 
Q 21.34375 51.125 25.703125 53.5625 
Q 30.078125 56 35.796875 56 
Q 45.21875 56 50.046875 50.171875 
Q 54.890625 44.34375 54.890625 33.015625 
z
" id="DejaVuSans-104"/>
     <path d="M 8.5 21.578125 
L 8.5 54.6875 
L 17.484375 54.6875 
L 17.484375 21.921875 
Q 17.484375 14.15625 20.5 10.265625 
Q 23.53125 6.390625 29.59375 6.390625 
Q 36.859375 6.390625 41.078125 11.03125 
Q 45.3125 15.671875 45.3125 23.6875 
L 45.3125 54.6875 
L 54.296875 54.6875 
L 54.296875 0 
L 45.3125 0 
L 45.3125 8.40625 
Q 42.046875 3.421875 37.71875 1 
Q 33.40625 -1.421875 27.6875 -1.421875 
Q 18.265625 -1.421875 13.375 4.4375 
Q 8.5 10.296875 8.5 21.578125 
z
M 31.109375 56 
z
" id="DejaVuSans-117"/>
    </defs>
    <g transform="translate(255.824063 54.48)scale(0.12 -0.12)">
     <use xlink:href="#DejaVuSans-78"/>
     <use x="74.804688" xlink:href="#DejaVuSans-101"/>
     <use x="136.328125" xlink:href="#DejaVuSans-97"/>
     <use x="197.607422" xlink:href="#DejaVuSans-114"/>
     <use x="238.689453" xlink:href="#DejaVuSans-101"/>
     <use x="300.212891" xlink:href="#DejaVuSans-115"/>
     <use x="352.3125" xlink:href="#DejaVuSans-116"/>
     <use x="391.521484" xlink:href="#DejaVuSans-78"/>
     <use x="466.326172" xlink:href="#DejaVuSans-101"/>
     <use x="527.849609" xlink:href="#DejaVuSans-105"/>
     <use x="555.632812" xlink:href="#DejaVuSans-103"/>
     <use x="619.109375" xlink:href="#DejaVuSans-104"/>
     <use x="682.488281" xlink:href="#DejaVuSans-98"/>
     <use x="745.964844" xlink:href="#DejaVuSans-111"/>
     <use x="807.146484" xlink:href="#DejaVuSans-117"/>
     <use x="870.525391" xlink:href="#DejaVuSans-114"/>
     <use x="911.638672" xlink:href="#DejaVuSans-115"/>
    </g>
   </g>
   <g id="legend_1">
    <g id="patch_7">
     <path d="M 362.264063 112.514375 
L 543.8 112.514375 
Q 545.8 112.514375 545.8 110.514375 
L 545.8 67.48 
Q 545.8 65.48 543.8 65.48 
L 362.264063 65.48 
Q 360.264063 65.48 360.264063 67.48 
L 360.264063 110.514375 
Q 360.264063 112.514375 362.264063 112.514375 
z
" style="fill:#ffffff;opacity:0.8;stroke:#cccccc;stroke-linejoin:miter;"/>
    </g>
    <g id="line2d_48">
     <path d="M 364.264063 73.578438 
L 384.264063 73.578438 
" style="fill:none;stroke:#1f77b4;stroke-linecap:square;stroke-width:2;"/>
    </g>
    <g id="line2d_49"/>
    <g id="text_26">
     <!-- root-cvsift AP: 88.4, %In: 48.5 -->
     <defs>
      <path d="M 2.984375 54.6875 
L 12.5 54.6875 
L 29.59375 8.796875 
L 46.6875 54.6875 
L 56.203125 54.6875 
L 35.6875 0 
L 23.484375 0 
z
" id="DejaVuSans-118"/>
      <path d="M 37.109375 75.984375 
L 37.109375 68.5 
L 28.515625 68.5 
Q 23.6875 68.5 21.796875 66.546875 
Q 19.921875 64.59375 19.921875 59.515625 
L 19.921875 54.6875 
L 34.71875 54.6875 
L 34.71875 47.703125 
L 19.921875 47.703125 
L 19.921875 0 
L 10.890625 0 
L 10.890625 47.703125 
L 2.296875 47.703125 
L 2.296875 54.6875 
L 10.890625 54.6875 
L 10.890625 58.5 
Q 10.890625 67.625 15.140625 71.796875 
Q 19.390625 75.984375 28.609375 75.984375 
z
" id="DejaVuSans-102"/>
      <path d="M 34.1875 63.1875 
L 20.796875 26.90625 
L 47.609375 26.90625 
z
M 28.609375 72.90625 
L 39.796875 72.90625 
L 67.578125 0 
L 57.328125 0 
L 50.6875 18.703125 
L 17.828125 18.703125 
L 11.1875 0 
L 0.78125 0 
z
" id="DejaVuSans-65"/>
      <path d="M 19.671875 64.796875 
L 19.671875 37.40625 
L 32.078125 37.40625 
Q 38.96875 37.40625 42.71875 40.96875 
Q 46.484375 44.53125 46.484375 51.125 
Q 46.484375 57.671875 42.71875 61.234375 
Q 38.96875 64.796875 32.078125 64.796875 
z
M 9.8125 72.90625 
L 32.078125 72.90625 
Q 44.34375 72.90625 50.609375 67.359375 
Q 56.890625 61.8125 56.890625 51.125 
Q 56.890625 40.328125 50.609375 34.8125 
Q 44.34375 29.296875 32.078125 29.296875 
L 19.671875 29.296875 
L 19.671875 0 
L 9.8125 0 
z
" id="DejaVuSans-80"/>
      <path d="M 11.71875 12.40625 
L 22.015625 12.40625 
L 22.015625 4 
L 14.015625 -11.625 
L 7.71875 -11.625 
L 11.71875 4 
z
" id="DejaVuSans-44"/>
      <path d="M 72.703125 32.078125 
Q 68.453125 32.078125 66.03125 28.46875 
Q 63.625 24.859375 63.625 18.40625 
Q 63.625 12.0625 66.03125 8.421875 
Q 68.453125 4.78125 72.703125 4.78125 
Q 76.859375 4.78125 79.265625 8.421875 
Q 81.6875 12.0625 81.6875 18.40625 
Q 81.6875 24.8125 79.265625 28.4375 
Q 76.859375 32.078125 72.703125 32.078125 
z
M 72.703125 38.28125 
Q 80.421875 38.28125 84.953125 32.90625 
Q 89.5 27.546875 89.5 18.40625 
Q 89.5 9.28125 84.9375 3.921875 
Q 80.375 -1.421875 72.703125 -1.421875 
Q 64.890625 -1.421875 60.34375 3.921875 
Q 55.8125 9.28125 55.8125 18.40625 
Q 55.8125 27.59375 60.375 32.9375 
Q 64.9375 38.28125 72.703125 38.28125 
z
M 22.3125 68.015625 
Q 18.109375 68.015625 15.6875 64.375 
Q 13.28125 60.75 13.28125 54.390625 
Q 13.28125 47.953125 15.671875 44.328125 
Q 18.0625 40.71875 22.3125 40.71875 
Q 26.5625 40.71875 28.96875 44.328125 
Q 31.390625 47.953125 31.390625 54.390625 
Q 31.390625 60.6875 28.953125 64.34375 
Q 26.515625 68.015625 22.3125 68.015625 
z
M 66.40625 74.21875 
L 74.21875 74.21875 
L 28.609375 -1.421875 
L 20.796875 -1.421875 
z
M 22.3125 74.21875 
Q 30.03125 74.21875 34.609375 68.875 
Q 39.203125 63.53125 39.203125 54.390625 
Q 39.203125 45.171875 34.640625 39.84375 
Q 30.078125 34.515625 22.3125 34.515625 
Q 14.546875 34.515625 10.03125 39.859375 
Q 5.515625 45.21875 5.515625 54.390625 
Q 5.515625 63.484375 10.046875 68.84375 
Q 14.59375 74.21875 22.3125 74.21875 
z
" id="DejaVuSans-37"/>
      <path d="M 9.8125 72.90625 
L 19.671875 72.90625 
L 19.671875 0 
L 9.8125 0 
z
" id="DejaVuSans-73"/>
     </defs>
     <g transform="translate(392.264063 77.078438)scale(0.1 -0.1)">
      <use xlink:href="#DejaVuSans-114"/>
      <use x="41.082031" xlink:href="#DejaVuSans-111"/>
      <use x="102.263672" xlink:href="#DejaVuSans-111"/>
      <use x="163.445312" xlink:href="#DejaVuSans-116"/>
      <use x="202.654297" xlink:href="#DejaVuSans-45"/>
      <use x="238.738281" xlink:href="#DejaVuSans-99"/>
      <use x="293.71875" xlink:href="#DejaVuSans-118"/>
      <use x="352.898438" xlink:href="#DejaVuSans-115"/>
      <use x="404.998047" xlink:href="#DejaVuSans-105"/>
      <use x="432.78125" xlink:href="#DejaVuSans-102"/>
      <use x="467.970703" xlink:href="#DejaVuSans-116"/>
      <use x="507.179688" xlink:href="#DejaVuSans-32"/>
      <use x="538.966797" xlink:href="#DejaVuSans-65"/>
      <use x="607.375" xlink:href="#DejaVuSans-80"/>
      <use x="667.677734" xlink:href="#DejaVuSans-58"/>
      <use x="701.369141" xlink:href="#DejaVuSans-32"/>
      <use x="733.15625" xlink:href="#DejaVuSans-56"/>
      <use x="796.779297" xlink:href="#DejaVuSans-56"/>
      <use x="860.402344" xlink:href="#DejaVuSans-46"/>
      <use x="892.189453" xlink:href="#DejaVuSans-52"/>
      <use x="955.8125" xlink:href="#DejaVuSans-44"/>
      <use x="987.599609" xlink:href="#DejaVuSans-32"/>
      <use x="1019.386719" xlink:href="#DejaVuSans-37"/>
      <use x="1114.40625" xlink:href="#DejaVuSans-73"/>
      <use x="1143.898438" xlink:href="#DejaVuSans-110"/>
      <use x="1207.277344" xlink:href="#DejaVuSans-58"/>
      <use x="1240.96875" xlink:href="#DejaVuSans-32"/>
      <use x="1272.755859" xlink:href="#DejaVuSans-52"/>
      <use x="1336.378906" xlink:href="#DejaVuSans-56"/>
      <use x="1400.001953" xlink:href="#DejaVuSans-46"/>
      <use x="1431.789062" xlink:href="#DejaVuSans-53"/>
     </g>
    </g>
    <g id="line2d_50">
     <path d="M 364.264063 88.256563 
L 384.264063 88.256563 
" style="fill:none;stroke:#ff7f0e;stroke-linecap:square;stroke-width:2;"/>
    </g>
    <g id="line2d_51"/>
    <g id="text_27">
     <!-- tfeat AP: 66.9, %In: 39.2 -->
     <g transform="translate(392.264063 91.756563)scale(0.1 -0.1)">
      <use xlink:href="#DejaVuSans-116"/>
      <use x="39.208984" xlink:href="#DejaVuSans-102"/>
      <use x="74.414062" xlink:href="#DejaVuSans-101"/>
      <use x="135.9375" xlink:href="#DejaVuSans-97"/>
      <use x="197.216797" xlink:href="#DejaVuSans-116"/>
      <use x="236.425781" xlink:href="#DejaVuSans-32"/>
      <use x="268.212891" xlink:href="#DejaVuSans-65"/>
      <use x="336.621094" xlink:href="#DejaVuSans-80"/>
      <use x="396.923828" xlink:href="#DejaVuSans-58"/>
      <use x="430.615234" xlink:href="#DejaVuSans-32"/>
      <use x="462.402344" xlink:href="#DejaVuSans-54"/>
      <use x="526.025391" xlink:href="#DejaVuSans-54"/>
      <use x="589.648438" xlink:href="#DejaVuSans-46"/>
      <use x="621.435547" xlink:href="#DejaVuSans-57"/>
      <use x="685.058594" xlink:href="#DejaVuSans-44"/>
      <use x="716.845703" xlink:href="#DejaVuSans-32"/>
      <use x="748.632812" xlink:href="#DejaVuSans-37"/>
      <use x="843.652344" xlink:href="#DejaVuSans-73"/>
      <use x="873.144531" xlink:href="#DejaVuSans-110"/>
      <use x="936.523438" xlink:href="#DejaVuSans-58"/>
      <use x="970.214844" xlink:href="#DejaVuSans-32"/>
      <use x="1002.001953" xlink:href="#DejaVuSans-51"/>
      <use x="1065.625" xlink:href="#DejaVuSans-57"/>
      <use x="1129.248047" xlink:href="#DejaVuSans-46"/>
      <use x="1161.035156" xlink:href="#DejaVuSans-50"/>
     </g>
    </g>
    <g id="line2d_52">
     <path d="M 364.264063 102.934687 
L 384.264063 102.934687 
" style="fill:none;stroke:#2ca02c;stroke-linecap:square;stroke-width:2;"/>
    </g>
    <g id="line2d_53"/>
    <g id="text_28">
     <!-- hardnet AP: 93.5, %In: 51.3 -->
     <defs>
      <path d="M 45.40625 46.390625 
L 45.40625 75.984375 
L 54.390625 75.984375 
L 54.390625 0 
L 45.40625 0 
L 45.40625 8.203125 
Q 42.578125 3.328125 38.25 0.953125 
Q 33.9375 -1.421875 27.875 -1.421875 
Q 17.96875 -1.421875 11.734375 6.484375 
Q 5.515625 14.40625 5.515625 27.296875 
Q 5.515625 40.1875 11.734375 48.09375 
Q 17.96875 56 27.875 56 
Q 33.9375 56 38.25 53.625 
Q 42.578125 51.265625 45.40625 46.390625 
z
M 14.796875 27.296875 
Q 14.796875 17.390625 18.875 11.75 
Q 22.953125 6.109375 30.078125 6.109375 
Q 37.203125 6.109375 41.296875 11.75 
Q 45.40625 17.390625 45.40625 27.296875 
Q 45.40625 37.203125 41.296875 42.84375 
Q 37.203125 48.484375 30.078125 48.484375 
Q 22.953125 48.484375 18.875 42.84375 
Q 14.796875 37.203125 14.796875 27.296875 
z
" id="DejaVuSans-100"/>
     </defs>
     <g transform="translate(392.264063 106.434687)scale(0.1 -0.1)">
      <use xlink:href="#DejaVuSans-104"/>
      <use x="63.378906" xlink:href="#DejaVuSans-97"/>
      <use x="124.658203" xlink:href="#DejaVuSans-114"/>
      <use x="165.755859" xlink:href="#DejaVuSans-100"/>
      <use x="229.232422" xlink:href="#DejaVuSans-110"/>
      <use x="292.611328" xlink:href="#DejaVuSans-101"/>
      <use x="354.134766" xlink:href="#DejaVuSans-116"/>
      <use x="393.34375" xlink:href="#DejaVuSans-32"/>
      <use x="425.130859" xlink:href="#DejaVuSans-65"/>
      <use x="493.539062" xlink:href="#DejaVuSans-80"/>
      <use x="553.841797" xlink:href="#DejaVuSans-58"/>
      <use x="587.533203" xlink:href="#DejaVuSans-32"/>
      <use x="619.320312" xlink:href="#DejaVuSans-57"/>
      <use x="682.943359" xlink:href="#DejaVuSans-51"/>
      <use x="746.566406" xlink:href="#DejaVuSans-46"/>
      <use x="778.353516" xlink:href="#DejaVuSans-53"/>
      <use x="841.976562" xlink:href="#DejaVuSans-44"/>
      <use x="873.763672" xlink:href="#DejaVuSans-32"/>
      <use x="905.550781" xlink:href="#DejaVuSans-37"/>
      <use x="1000.570312" xlink:href="#DejaVuSans-73"/>
      <use x="1030.0625" xlink:href="#DejaVuSans-110"/>
      <use x="1093.441406" xlink:href="#DejaVuSans-58"/>
      <use x="1127.132812" xlink:href="#DejaVuSans-32"/>
      <use x="1158.919922" xlink:href="#DejaVuSans-53"/>
      <use x="1222.542969" xlink:href="#DejaVuSans-49"/>
      <use x="1286.166016" xlink:href="#DejaVuSans-46"/>
      <use x="1317.953125" xlink:href="#DejaVuSans-51"/>
     </g>
    </g>
   </g>
  </g>
 </g>
 <defs>
  <clipPath id="p61a569e505">
   <rect height="388.08" width="474.3" x="76.5" y="60.48"/>
  </clipPath>
 </defs>
</svg>
