<?xml version="1.0" encoding="utf-8" standalone="no"?>
<!DOCTYPE svg PUBLIC "-//W3C//DTD SVG 1.1//EN"
  "http://www.w3.org/Graphics/SVG/1.1/DTD/svg11.dtd">
<!-- Created with matplotlib (https://matplotlib.org/) -->
<svg height="504pt" version="1.1" viewBox="0 0 612 504" width="612pt" xmlns="http://www.w3.org/2000/svg" xmlns:xlink="http://www.w3.org/1999/xlink">
 <defs>
  <style type="text/css">
*{stroke-linecap:butt;stroke-linejoin:round;}
  </style>
 </defs>
 <g id="figure_1">
  <g id="patch_1">
   <path d="M 0 504 
L 612 504 
L 612 0 
L 0 0 
z
" style="fill:#ffffff;"/>
  </g>
  <g id="axes_1">
   <g id="patch_2">
    <path d="M 76.5 448.56 
L 550.8 448.56 
L 550.8 60.48 
L 76.5 60.48 
z
" style="fill:#ffffff;"/>
   </g>
   <g id="matplotlib.axis_1">
    <g id="xtick_1">
     <g id="line2d_1">
      <path clip-path="url(#pcdc89d1c58)" d="M 76.5 448.56 
L 76.5 60.48 
" style="fill:none;stroke:#b0b0b0;stroke-linecap:square;stroke-width:0.8;"/>
     </g>
     <g id="line2d_2">
      <defs>
       <path d="M 0 0 
L 0 3.5 
" id="mf543e46c20" style="stroke:#000000;stroke-width:0.8;"/>
      </defs>
      <g>
       <use style="stroke:#000000;stroke-width:0.8;" x="76.5" xlink:href="#mf543e46c20" y="448.56"/>
      </g>
     </g>
     <g id="text_1">
      <!-- 0.0 -->
      <defs>
       <path d="M 31.78125 66.40625 
Q 24.171875 66.40625 20.328125 58.90625 
Q 16.5 51.421875 16.5 36.375 
Q 16.5 21.390625 20.328125 13.890625 
Q 24.171875 6.390625 31.78125 6.390625 
Q 39.453125 6.390625 43.28125 13.890625 
Q 47.125 21.390625 47.125 36.375 
Q 47.125 51.421875 43.28125 58.90625 
Q 39.453125 66.40625 31.78125 66.40625 
z
M 31.78125 74.21875 
Q 44.046875 74.21875 50.515625 64.515625 
Q 56.984375 54.828125 56.984375 36.375 
Q 56.984375 17.96875 50.515625 8.265625 
Q 44.046875 -1.421875 31.78125 -1.421875 
Q 19.53125 -1.421875 13.0625 8.265625 
Q 6.59375 17.96875 6.59375 36.375 
Q 6.59375 54.828125 13.0625 64.515625 
Q 19.53125 74.21875 31.78125 74.21875 
z
" id="DejaVuSans-48"/>
       <path d="M 10.6875 12.40625 
L 21 12.40625 
L 21 0 
L 10.6875 0 
z
" id="DejaVuSans-46"/>
      </defs>
      <g transform="translate(68.548438 463.158437)scale(0.1 -0.1)">
       <use xlink:href="#DejaVuSans-48"/>
       <use x="63.623047" xlink:href="#DejaVuSans-46"/>
       <use x="95.410156" xlink:href="#DejaVuSans-48"/>
      </g>
     </g>
    </g>
    <g id="xtick_2">
     <g id="line2d_3">
      <path clip-path="url(#pcdc89d1c58)" d="M 123.93 448.56 
L 123.93 60.48 
" style="fill:none;stroke:#b0b0b0;stroke-linecap:square;stroke-width:0.8;"/>
     </g>
     <g id="line2d_4">
      <g>
       <use style="stroke:#000000;stroke-width:0.8;" x="123.93" xlink:href="#mf543e46c20" y="448.56"/>
      </g>
     </g>
     <g id="text_2">
      <!-- 0.1 -->
      <defs>
       <path d="M 12.40625 8.296875 
L 28.515625 8.296875 
L 28.515625 63.921875 
L 10.984375 60.40625 
L 10.984375 69.390625 
L 28.421875 72.90625 
L 38.28125 72.90625 
L 38.28125 8.296875 
L 54.390625 8.296875 
L 54.390625 0 
L 12.40625 0 
z
" id="DejaVuSans-49"/>
      </defs>
      <g transform="translate(115.978438 463.158437)scale(0.1 -0.1)">
       <use xlink:href="#DejaVuSans-48"/>
       <use x="63.623047" xlink:href="#DejaVuSans-46"/>
       <use x="95.410156" xlink:href="#DejaVuSans-49"/>
      </g>
     </g>
    </g>
    <g id="xtick_3">
     <g id="line2d_5">
      <path clip-path="url(#pcdc89d1c58)" d="M 171.36 448.56 
L 171.36 60.48 
" style="fill:none;stroke:#b0b0b0;stroke-linecap:square;stroke-width:0.8;"/>
     </g>
     <g id="line2d_6">
      <g>
       <use style="stroke:#000000;stroke-width:0.8;" x="171.36" xlink:href="#mf543e46c20" y="448.56"/>
      </g>
     </g>
     <g id="text_3">
      <!-- 0.2 -->
      <defs>
       <path d="M 19.1875 8.296875 
L 53.609375 8.296875 
L 53.609375 0 
L 7.328125 0 
L 7.328125 8.296875 
Q 12.9375 14.109375 22.625 23.890625 
Q 32.328125 33.6875 34.8125 36.53125 
Q 39.546875 41.84375 41.421875 45.53125 
Q 43.3125 49.21875 43.3125 52.78125 
Q 43.3125 58.59375 39.234375 62.25 
Q 35.15625 65.921875 28.609375 65.921875 
Q 23.96875 65.921875 18.8125 64.3125 
Q 13.671875 62.703125 7.8125 59.421875 
L 7.8125 69.390625 
Q 13.765625 71.78125 18.9375 73 
Q 24.125 74.21875 28.421875 74.21875 
Q 39.75 74.21875 46.484375 68.546875 
Q 53.21875 62.890625 53.21875 53.421875 
Q 53.21875 48.921875 51.53125 44.890625 
Q 49.859375 40.875 45.40625 35.40625 
Q 44.1875 33.984375 37.640625 27.21875 
Q 31.109375 20.453125 19.1875 8.296875 
z
" id="DejaVuSans-50"/>
      </defs>
      <g transform="translate(163.408438 463.158437)scale(0.1 -0.1)">
       <use xlink:href="#DejaVuSans-48"/>
       <use x="63.623047" xlink:href="#DejaVuSans-46"/>
       <use x="95.410156" xlink:href="#DejaVuSans-50"/>
      </g>
     </g>
    </g>
    <g id="xtick_4">
     <g id="line2d_7">
      <path clip-path="url(#pcdc89d1c58)" d="M 218.79 448.56 
L 218.79 60.48 
" style="fill:none;stroke:#b0b0b0;stroke-linecap:square;stroke-width:0.8;"/>
     </g>
     <g id="line2d_8">
      <g>
       <use style="stroke:#000000;stroke-width:0.8;" x="218.79" xlink:href="#mf543e46c20" y="448.56"/>
      </g>
     </g>
     <g id="text_4">
      <!-- 0.3 -->
      <defs>
       <path d="M 40.578125 39.3125 
Q 47.65625 37.796875 51.625 33 
Q 55.609375 28.21875 55.609375 21.1875 
Q 55.609375 10.40625 48.1875 4.484375 
Q 40.765625 -1.421875 27.09375 -1.421875 
Q 22.515625 -1.421875 17.65625 -0.515625 
Q 12.796875 0.390625 7.625 2.203125 
L 7.625 11.71875 
Q 11.71875 9.328125 16.59375 8.109375 
Q 21.484375 6.890625 26.8125 6.890625 
Q 36.078125 6.890625 40.9375 10.546875 
Q 45.796875 14.203125 45.796875 21.1875 
Q 45.796875 27.640625 41.28125 31.265625 
Q 36.765625 34.90625 28.71875 34.90625 
L 20.21875 34.90625 
L 20.21875 43.015625 
L 29.109375 43.015625 
Q 36.375 43.015625 40.234375 45.921875 
Q 44.09375 48.828125 44.09375 54.296875 
Q 44.09375 59.90625 40.109375 62.90625 
Q 36.140625 65.921875 28.71875 65.921875 
Q 24.65625 65.921875 20.015625 65.03125 
Q 15.375 64.15625 9.8125 62.3125 
L 9.8125 71.09375 
Q 15.4375 72.65625 20.34375 73.4375 
Q 25.25 74.21875 29.59375 74.21875 
Q 40.828125 74.21875 47.359375 69.109375 
Q 53.90625 64.015625 53.90625 55.328125 
Q 53.90625 49.265625 50.4375 45.09375 
Q 46.96875 40.921875 40.578125 39.3125 
z
" id="DejaVuSans-51"/>
      </defs>
      <g transform="translate(210.838438 463.158437)scale(0.1 -0.1)">
       <use xlink:href="#DejaVuSans-48"/>
       <use x="63.623047" xlink:href="#DejaVuSans-46"/>
       <use x="95.410156" xlink:href="#DejaVuSans-51"/>
      </g>
     </g>
    </g>
    <g id="xtick_5">
     <g id="line2d_9">
      <path clip-path="url(#pcdc89d1c58)" d="M 266.22 448.56 
L 266.22 60.48 
" style="fill:none;stroke:#b0b0b0;stroke-linecap:square;stroke-width:0.8;"/>
     </g>
     <g id="line2d_10">
      <g>
       <use style="stroke:#000000;stroke-width:0.8;" x="266.22" xlink:href="#mf543e46c20" y="448.56"/>
      </g>
     </g>
     <g id="text_5">
      <!-- 0.4 -->
      <defs>
       <path d="M 37.796875 64.3125 
L 12.890625 25.390625 
L 37.796875 25.390625 
z
M 35.203125 72.90625 
L 47.609375 72.90625 
L 47.609375 25.390625 
L 58.015625 25.390625 
L 58.015625 17.1875 
L 47.609375 17.1875 
L 47.609375 0 
L 37.796875 0 
L 37.796875 17.1875 
L 4.890625 17.1875 
L 4.890625 26.703125 
z
" id="DejaVuSans-52"/>
      </defs>
      <g transform="translate(258.268438 463.158437)scale(0.1 -0.1)">
       <use xlink:href="#DejaVuSans-48"/>
       <use x="63.623047" xlink:href="#DejaVuSans-46"/>
       <use x="95.410156" xlink:href="#DejaVuSans-52"/>
      </g>
     </g>
    </g>
    <g id="xtick_6">
     <g id="line2d_11">
      <path clip-path="url(#pcdc89d1c58)" d="M 313.65 448.56 
L 313.65 60.48 
" style="fill:none;stroke:#b0b0b0;stroke-linecap:square;stroke-width:0.8;"/>
     </g>
     <g id="line2d_12">
      <g>
       <use style="stroke:#000000;stroke-width:0.8;" x="313.65" xlink:href="#mf543e46c20" y="448.56"/>
      </g>
     </g>
     <g id="text_6">
      <!-- 0.5 -->
      <defs>
       <path d="M 10.796875 72.90625 
L 49.515625 72.90625 
L 49.515625 64.59375 
L 19.828125 64.59375 
L 19.828125 46.734375 
Q 21.96875 47.46875 24.109375 47.828125 
Q 26.265625 48.1875 28.421875 48.1875 
Q 40.625 48.1875 47.75 41.5 
Q 54.890625 34.8125 54.890625 23.390625 
Q 54.890625 11.625 47.5625 5.09375 
Q 40.234375 -1.421875 26.90625 -1.421875 
Q 22.3125 -1.421875 17.546875 -0.640625 
Q 12.796875 0.140625 7.71875 1.703125 
L 7.71875 11.625 
Q 12.109375 9.234375 16.796875 8.0625 
Q 21.484375 6.890625 26.703125 6.890625 
Q 35.15625 6.890625 40.078125 11.328125 
Q 45.015625 15.765625 45.015625 23.390625 
Q 45.015625 31 40.078125 35.4375 
Q 35.15625 39.890625 26.703125 39.890625 
Q 22.75 39.890625 18.8125 39.015625 
Q 14.890625 38.140625 10.796875 36.28125 
z
" id="DejaVuSans-53"/>
      </defs>
      <g transform="translate(305.698438 463.158437)scale(0.1 -0.1)">
       <use xlink:href="#DejaVuSans-48"/>
       <use x="63.623047" xlink:href="#DejaVuSans-46"/>
       <use x="95.410156" xlink:href="#DejaVuSans-53"/>
      </g>
     </g>
    </g>
    <g id="xtick_7">
     <g id="line2d_13">
      <path clip-path="url(#pcdc89d1c58)" d="M 361.08 448.56 
L 361.08 60.48 
" style="fill:none;stroke:#b0b0b0;stroke-linecap:square;stroke-width:0.8;"/>
     </g>
     <g id="line2d_14">
      <g>
       <use style="stroke:#000000;stroke-width:0.8;" x="361.08" xlink:href="#mf543e46c20" y="448.56"/>
      </g>
     </g>
     <g id="text_7">
      <!-- 0.6 -->
      <defs>
       <path d="M 33.015625 40.375 
Q 26.375 40.375 22.484375 35.828125 
Q 18.609375 31.296875 18.609375 23.390625 
Q 18.609375 15.53125 22.484375 10.953125 
Q 26.375 6.390625 33.015625 6.390625 
Q 39.65625 6.390625 43.53125 10.953125 
Q 47.40625 15.53125 47.40625 23.390625 
Q 47.40625 31.296875 43.53125 35.828125 
Q 39.65625 40.375 33.015625 40.375 
z
M 52.59375 71.296875 
L 52.59375 62.3125 
Q 48.875 64.0625 45.09375 64.984375 
Q 41.3125 65.921875 37.59375 65.921875 
Q 27.828125 65.921875 22.671875 59.328125 
Q 17.53125 52.734375 16.796875 39.40625 
Q 19.671875 43.65625 24.015625 45.921875 
Q 28.375 48.1875 33.59375 48.1875 
Q 44.578125 48.1875 50.953125 41.515625 
Q 57.328125 34.859375 57.328125 23.390625 
Q 57.328125 12.15625 50.6875 5.359375 
Q 44.046875 -1.421875 33.015625 -1.421875 
Q 20.359375 -1.421875 13.671875 8.265625 
Q 6.984375 17.96875 6.984375 36.375 
Q 6.984375 53.65625 15.1875 63.9375 
Q 23.390625 74.21875 37.203125 74.21875 
Q 40.921875 74.21875 44.703125 73.484375 
Q 48.484375 72.75 52.59375 71.296875 
z
" id="DejaVuSans-54"/>
      </defs>
      <g transform="translate(353.128438 463.158437)scale(0.1 -0.1)">
       <use xlink:href="#DejaVuSans-48"/>
       <use x="63.623047" xlink:href="#DejaVuSans-46"/>
       <use x="95.410156" xlink:href="#DejaVuSans-54"/>
      </g>
     </g>
    </g>
    <g id="xtick_8">
     <g id="line2d_15">
      <path clip-path="url(#pcdc89d1c58)" d="M 408.51 448.56 
L 408.51 60.48 
" style="fill:none;stroke:#b0b0b0;stroke-linecap:square;stroke-width:0.8;"/>
     </g>
     <g id="line2d_16">
      <g>
       <use style="stroke:#000000;stroke-width:0.8;" x="408.51" xlink:href="#mf543e46c20" y="448.56"/>
      </g>
     </g>
     <g id="text_8">
      <!-- 0.7 -->
      <defs>
       <path d="M 8.203125 72.90625 
L 55.078125 72.90625 
L 55.078125 68.703125 
L 28.609375 0 
L 18.3125 0 
L 43.21875 64.59375 
L 8.203125 64.59375 
z
" id="DejaVuSans-55"/>
      </defs>
      <g transform="translate(400.558438 463.158437)scale(0.1 -0.1)">
       <use xlink:href="#DejaVuSans-48"/>
       <use x="63.623047" xlink:href="#DejaVuSans-46"/>
       <use x="95.410156" xlink:href="#DejaVuSans-55"/>
      </g>
     </g>
    </g>
    <g id="xtick_9">
     <g id="line2d_17">
      <path clip-path="url(#pcdc89d1c58)" d="M 455.94 448.56 
L 455.94 60.48 
" style="fill:none;stroke:#b0b0b0;stroke-linecap:square;stroke-width:0.8;"/>
     </g>
     <g id="line2d_18">
      <g>
       <use style="stroke:#000000;stroke-width:0.8;" x="455.94" xlink:href="#mf543e46c20" y="448.56"/>
      </g>
     </g>
     <g id="text_9">
      <!-- 0.8 -->
      <defs>
       <path d="M 31.78125 34.625 
Q 24.75 34.625 20.71875 30.859375 
Q 16.703125 27.09375 16.703125 20.515625 
Q 16.703125 13.921875 20.71875 10.15625 
Q 24.75 6.390625 31.78125 6.390625 
Q 38.8125 6.390625 42.859375 10.171875 
Q 46.921875 13.96875 46.921875 20.515625 
Q 46.921875 27.09375 42.890625 30.859375 
Q 38.875 34.625 31.78125 34.625 
z
M 21.921875 38.8125 
Q 15.578125 40.375 12.03125 44.71875 
Q 8.5 49.078125 8.5 55.328125 
Q 8.5 64.0625 14.71875 69.140625 
Q 20.953125 74.21875 31.78125 74.21875 
Q 42.671875 74.21875 48.875 69.140625 
Q 55.078125 64.0625 55.078125 55.328125 
Q 55.078125 49.078125 51.53125 44.71875 
Q 48 40.375 41.703125 38.8125 
Q 48.828125 37.15625 52.796875 32.3125 
Q 56.78125 27.484375 56.78125 20.515625 
Q 56.78125 9.90625 50.3125 4.234375 
Q 43.84375 -1.421875 31.78125 -1.421875 
Q 19.734375 -1.421875 13.25 4.234375 
Q 6.78125 9.90625 6.78125 20.515625 
Q 6.78125 27.484375 10.78125 32.3125 
Q 14.796875 37.15625 21.921875 38.8125 
z
M 18.3125 54.390625 
Q 18.3125 48.734375 21.84375 45.5625 
Q 25.390625 42.390625 31.78125 42.390625 
Q 38.140625 42.390625 41.71875 45.5625 
Q 45.3125 48.734375 45.3125 54.390625 
Q 45.3125 60.0625 41.71875 63.234375 
Q 38.140625 66.40625 31.78125 66.40625 
Q 25.390625 66.40625 21.84375 63.234375 
Q 18.3125 60.0625 18.3125 54.390625 
z
" id="DejaVuSans-56"/>
      </defs>
      <g transform="translate(447.988438 463.158437)scale(0.1 -0.1)">
       <use xlink:href="#DejaVuSans-48"/>
       <use x="63.623047" xlink:href="#DejaVuSans-46"/>
       <use x="95.410156" xlink:href="#DejaVuSans-56"/>
      </g>
     </g>
    </g>
    <g id="xtick_10">
     <g id="line2d_19">
      <path clip-path="url(#pcdc89d1c58)" d="M 503.37 448.56 
L 503.37 60.48 
" style="fill:none;stroke:#b0b0b0;stroke-linecap:square;stroke-width:0.8;"/>
     </g>
     <g id="line2d_20">
      <g>
       <use style="stroke:#000000;stroke-width:0.8;" x="503.37" xlink:href="#mf543e46c20" y="448.56"/>
      </g>
     </g>
     <g id="text_10">
      <!-- 0.9 -->
      <defs>
       <path d="M 10.984375 1.515625 
L 10.984375 10.5 
Q 14.703125 8.734375 18.5 7.8125 
Q 22.3125 6.890625 25.984375 6.890625 
Q 35.75 6.890625 40.890625 13.453125 
Q 46.046875 20.015625 46.78125 33.40625 
Q 43.953125 29.203125 39.59375 26.953125 
Q 35.25 24.703125 29.984375 24.703125 
Q 19.046875 24.703125 12.671875 31.3125 
Q 6.296875 37.9375 6.296875 49.421875 
Q 6.296875 60.640625 12.9375 67.421875 
Q 19.578125 74.21875 30.609375 74.21875 
Q 43.265625 74.21875 49.921875 64.515625 
Q 56.59375 54.828125 56.59375 36.375 
Q 56.59375 19.140625 48.40625 8.859375 
Q 40.234375 -1.421875 26.421875 -1.421875 
Q 22.703125 -1.421875 18.890625 -0.6875 
Q 15.09375 0.046875 10.984375 1.515625 
z
M 30.609375 32.421875 
Q 37.25 32.421875 41.125 36.953125 
Q 45.015625 41.5 45.015625 49.421875 
Q 45.015625 57.28125 41.125 61.84375 
Q 37.25 66.40625 30.609375 66.40625 
Q 23.96875 66.40625 20.09375 61.84375 
Q 16.21875 57.28125 16.21875 49.421875 
Q 16.21875 41.5 20.09375 36.953125 
Q 23.96875 32.421875 30.609375 32.421875 
z
" id="DejaVuSans-57"/>
      </defs>
      <g transform="translate(495.418438 463.158437)scale(0.1 -0.1)">
       <use xlink:href="#DejaVuSans-48"/>
       <use x="63.623047" xlink:href="#DejaVuSans-46"/>
       <use x="95.410156" xlink:href="#DejaVuSans-57"/>
      </g>
     </g>
    </g>
    <g id="xtick_11">
     <g id="line2d_21">
      <path clip-path="url(#pcdc89d1c58)" d="M 550.8 448.56 
L 550.8 60.48 
" style="fill:none;stroke:#b0b0b0;stroke-linecap:square;stroke-width:0.8;"/>
     </g>
     <g id="line2d_22">
      <g>
       <use style="stroke:#000000;stroke-width:0.8;" x="550.8" xlink:href="#mf543e46c20" y="448.56"/>
      </g>
     </g>
     <g id="text_11">
      <!-- 1.0 -->
      <g transform="translate(542.848438 463.158437)scale(0.1 -0.1)">
       <use xlink:href="#DejaVuSans-49"/>
       <use x="63.623047" xlink:href="#DejaVuSans-46"/>
       <use x="95.410156" xlink:href="#DejaVuSans-48"/>
      </g>
     </g>
    </g>
    <g id="text_12">
     <!-- 1-precision -->
     <defs>
      <path d="M 4.890625 31.390625 
L 31.203125 31.390625 
L 31.203125 23.390625 
L 4.890625 23.390625 
z
" id="DejaVuSans-45"/>
      <path d="M 18.109375 8.203125 
L 18.109375 -20.796875 
L 9.078125 -20.796875 
L 9.078125 54.6875 
L 18.109375 54.6875 
L 18.109375 46.390625 
Q 20.953125 51.265625 25.265625 53.625 
Q 29.59375 56 35.59375 56 
Q 45.5625 56 51.78125 48.09375 
Q 58.015625 40.1875 58.015625 27.296875 
Q 58.015625 14.40625 51.78125 6.484375 
Q 45.5625 -1.421875 35.59375 -1.421875 
Q 29.59375 -1.421875 25.265625 0.953125 
Q 20.953125 3.328125 18.109375 8.203125 
z
M 48.6875 27.296875 
Q 48.6875 37.203125 44.609375 42.84375 
Q 40.53125 48.484375 33.40625 48.484375 
Q 26.265625 48.484375 22.1875 42.84375 
Q 18.109375 37.203125 18.109375 27.296875 
Q 18.109375 17.390625 22.1875 11.75 
Q 26.265625 6.109375 33.40625 6.109375 
Q 40.53125 6.109375 44.609375 11.75 
Q 48.6875 17.390625 48.6875 27.296875 
z
" id="DejaVuSans-112"/>
      <path d="M 41.109375 46.296875 
Q 39.59375 47.171875 37.8125 47.578125 
Q 36.03125 48 33.890625 48 
Q 26.265625 48 22.1875 43.046875 
Q 18.109375 38.09375 18.109375 28.8125 
L 18.109375 0 
L 9.078125 0 
L 9.078125 54.6875 
L 18.109375 54.6875 
L 18.109375 46.1875 
Q 20.953125 51.171875 25.484375 53.578125 
Q 30.03125 56 36.53125 56 
Q 37.453125 56 38.578125 55.875 
Q 39.703125 55.765625 41.0625 55.515625 
z
" id="DejaVuSans-114"/>
      <path d="M 56.203125 29.59375 
L 56.203125 25.203125 
L 14.890625 25.203125 
Q 15.484375 15.921875 20.484375 11.0625 
Q 25.484375 6.203125 34.421875 6.203125 
Q 39.59375 6.203125 44.453125 7.46875 
Q 49.3125 8.734375 54.109375 11.28125 
L 54.109375 2.78125 
Q 49.265625 0.734375 44.1875 -0.34375 
Q 39.109375 -1.421875 33.890625 -1.421875 
Q 20.796875 -1.421875 13.15625 6.1875 
Q 5.515625 13.8125 5.515625 26.8125 
Q 5.515625 40.234375 12.765625 48.109375 
Q 20.015625 56 32.328125 56 
Q 43.359375 56 49.78125 48.890625 
Q 56.203125 41.796875 56.203125 29.59375 
z
M 47.21875 32.234375 
Q 47.125 39.59375 43.09375 43.984375 
Q 39.0625 48.390625 32.421875 48.390625 
Q 24.90625 48.390625 20.390625 44.140625 
Q 15.875 39.890625 15.1875 32.171875 
z
" id="DejaVuSans-101"/>
      <path d="M 48.78125 52.59375 
L 48.78125 44.1875 
Q 44.96875 46.296875 41.140625 47.34375 
Q 37.3125 48.390625 33.40625 48.390625 
Q 24.65625 48.390625 19.8125 42.84375 
Q 14.984375 37.3125 14.984375 27.296875 
Q 14.984375 17.28125 19.8125 11.734375 
Q 24.65625 6.203125 33.40625 6.203125 
Q 37.3125 6.203125 41.140625 7.25 
Q 44.96875 8.296875 48.78125 10.40625 
L 48.78125 2.09375 
Q 45.015625 0.34375 40.984375 -0.53125 
Q 36.96875 -1.421875 32.421875 -1.421875 
Q 20.0625 -1.421875 12.78125 6.34375 
Q 5.515625 14.109375 5.515625 27.296875 
Q 5.515625 40.671875 12.859375 48.328125 
Q 20.21875 56 33.015625 56 
Q 37.15625 56 41.109375 55.140625 
Q 45.0625 54.296875 48.78125 52.59375 
z
" id="DejaVuSans-99"/>
      <path d="M 9.421875 54.6875 
L 18.40625 54.6875 
L 18.40625 0 
L 9.421875 0 
z
M 9.421875 75.984375 
L 18.40625 75.984375 
L 18.40625 64.59375 
L 9.421875 64.59375 
z
" id="DejaVuSans-105"/>
      <path d="M 44.28125 53.078125 
L 44.28125 44.578125 
Q 40.484375 46.53125 36.375 47.5 
Q 32.28125 48.484375 27.875 48.484375 
Q 21.1875 48.484375 17.84375 46.4375 
Q 14.5 44.390625 14.5 40.28125 
Q 14.5 37.15625 16.890625 35.375 
Q 19.28125 33.59375 26.515625 31.984375 
L 29.59375 31.296875 
Q 39.15625 29.25 43.1875 25.515625 
Q 47.21875 21.78125 47.21875 15.09375 
Q 47.21875 7.46875 41.1875 3.015625 
Q 35.15625 -1.421875 24.609375 -1.421875 
Q 20.21875 -1.421875 15.453125 -0.5625 
Q 10.6875 0.296875 5.421875 2 
L 5.421875 11.28125 
Q 10.40625 8.6875 15.234375 7.390625 
Q 20.0625 6.109375 24.8125 6.109375 
Q 31.15625 6.109375 34.5625 8.28125 
Q 37.984375 10.453125 37.984375 14.40625 
Q 37.984375 18.0625 35.515625 20.015625 
Q 33.0625 21.96875 24.703125 23.78125 
L 21.578125 24.515625 
Q 13.234375 26.265625 9.515625 29.90625 
Q 5.8125 33.546875 5.8125 39.890625 
Q 5.8125 47.609375 11.28125 51.796875 
Q 16.75 56 26.8125 56 
Q 31.78125 56 36.171875 55.265625 
Q 40.578125 54.546875 44.28125 53.078125 
z
" id="DejaVuSans-115"/>
      <path d="M 30.609375 48.390625 
Q 23.390625 48.390625 19.1875 42.75 
Q 14.984375 37.109375 14.984375 27.296875 
Q 14.984375 17.484375 19.15625 11.84375 
Q 23.34375 6.203125 30.609375 6.203125 
Q 37.796875 6.203125 41.984375 11.859375 
Q 46.1875 17.53125 46.1875 27.296875 
Q 46.1875 37.015625 41.984375 42.703125 
Q 37.796875 48.390625 30.609375 48.390625 
z
M 30.609375 56 
Q 42.328125 56 49.015625 48.375 
Q 55.71875 40.765625 55.71875 27.296875 
Q 55.71875 13.875 49.015625 6.21875 
Q 42.328125 -1.421875 30.609375 -1.421875 
Q 18.84375 -1.421875 12.171875 6.21875 
Q 5.515625 13.875 5.515625 27.296875 
Q 5.515625 40.765625 12.171875 48.375 
Q 18.84375 56 30.609375 56 
z
" id="DejaVuSans-111"/>
      <path d="M 54.890625 33.015625 
L 54.890625 0 
L 45.90625 0 
L 45.90625 32.71875 
Q 45.90625 40.484375 42.875 44.328125 
Q 39.84375 48.1875 33.796875 48.1875 
Q 26.515625 48.1875 22.3125 43.546875 
Q 18.109375 38.921875 18.109375 30.90625 
L 18.109375 0 
L 9.078125 0 
L 9.078125 54.6875 
L 18.109375 54.6875 
L 18.109375 46.1875 
Q 21.34375 51.125 25.703125 53.5625 
Q 30.078125 56 35.796875 56 
Q 45.21875 56 50.046875 50.171875 
Q 54.890625 44.34375 54.890625 33.015625 
z
" id="DejaVuSans-110"/>
     </defs>
     <g transform="translate(286 476.836563)scale(0.1 -0.1)">
      <use xlink:href="#DejaVuSans-49"/>
      <use x="63.623047" xlink:href="#DejaVuSans-45"/>
      <use x="99.707031" xlink:href="#DejaVuSans-112"/>
      <use x="163.183594" xlink:href="#DejaVuSans-114"/>
      <use x="204.265625" xlink:href="#DejaVuSans-101"/>
      <use x="265.789062" xlink:href="#DejaVuSans-99"/>
      <use x="320.769531" xlink:href="#DejaVuSans-105"/>
      <use x="348.552734" xlink:href="#DejaVuSans-115"/>
      <use x="400.652344" xlink:href="#DejaVuSans-105"/>
      <use x="428.435547" xlink:href="#DejaVuSans-111"/>
      <use x="489.617188" xlink:href="#DejaVuSans-110"/>
     </g>
    </g>
   </g>
   <g id="matplotlib.axis_2">
    <g id="ytick_1">
     <g id="line2d_23">
      <path clip-path="url(#pcdc89d1c58)" d="M 76.5 448.56 
L 550.8 448.56 
" style="fill:none;stroke:#b0b0b0;stroke-linecap:square;stroke-width:0.8;"/>
     </g>
     <g id="line2d_24">
      <defs>
       <path d="M 0 0 
L -3.5 0 
" id="m7574a0f40e" style="stroke:#000000;stroke-width:0.8;"/>
      </defs>
      <g>
       <use style="stroke:#000000;stroke-width:0.8;" x="76.5" xlink:href="#m7574a0f40e" y="448.56"/>
      </g>
     </g>
     <g id="text_13">
      <!-- 0.0 -->
      <g transform="translate(53.596875 452.359219)scale(0.1 -0.1)">
       <use xlink:href="#DejaVuSans-48"/>
       <use x="63.623047" xlink:href="#DejaVuSans-46"/>
       <use x="95.410156" xlink:href="#DejaVuSans-48"/>
      </g>
     </g>
    </g>
    <g id="ytick_2">
     <g id="line2d_25">
      <path clip-path="url(#pcdc89d1c58)" d="M 76.5 409.752 
L 550.8 409.752 
" style="fill:none;stroke:#b0b0b0;stroke-linecap:square;stroke-width:0.8;"/>
     </g>
     <g id="line2d_26">
      <g>
       <use style="stroke:#000000;stroke-width:0.8;" x="76.5" xlink:href="#m7574a0f40e" y="409.752"/>
      </g>
     </g>
     <g id="text_14">
      <!-- 0.1 -->
      <g transform="translate(53.596875 413.551219)scale(0.1 -0.1)">
       <use xlink:href="#DejaVuSans-48"/>
       <use x="63.623047" xlink:href="#DejaVuSans-46"/>
       <use x="95.410156" xlink:href="#DejaVuSans-49"/>
      </g>
     </g>
    </g>
    <g id="ytick_3">
     <g id="line2d_27">
      <path clip-path="url(#pcdc89d1c58)" d="M 76.5 370.944 
L 550.8 370.944 
" style="fill:none;stroke:#b0b0b0;stroke-linecap:square;stroke-width:0.8;"/>
     </g>
     <g id="line2d_28">
      <g>
       <use style="stroke:#000000;stroke-width:0.8;" x="76.5" xlink:href="#m7574a0f40e" y="370.944"/>
      </g>
     </g>
     <g id="text_15">
      <!-- 0.2 -->
      <g transform="translate(53.596875 374.743219)scale(0.1 -0.1)">
       <use xlink:href="#DejaVuSans-48"/>
       <use x="63.623047" xlink:href="#DejaVuSans-46"/>
       <use x="95.410156" xlink:href="#DejaVuSans-50"/>
      </g>
     </g>
    </g>
    <g id="ytick_4">
     <g id="line2d_29">
      <path clip-path="url(#pcdc89d1c58)" d="M 76.5 332.136 
L 550.8 332.136 
" style="fill:none;stroke:#b0b0b0;stroke-linecap:square;stroke-width:0.8;"/>
     </g>
     <g id="line2d_30">
      <g>
       <use style="stroke:#000000;stroke-width:0.8;" x="76.5" xlink:href="#m7574a0f40e" y="332.136"/>
      </g>
     </g>
     <g id="text_16">
      <!-- 0.3 -->
      <g transform="translate(53.596875 335.935219)scale(0.1 -0.1)">
       <use xlink:href="#DejaVuSans-48"/>
       <use x="63.623047" xlink:href="#DejaVuSans-46"/>
       <use x="95.410156" xlink:href="#DejaVuSans-51"/>
      </g>
     </g>
    </g>
    <g id="ytick_5">
     <g id="line2d_31">
      <path clip-path="url(#pcdc89d1c58)" d="M 76.5 293.328 
L 550.8 293.328 
" style="fill:none;stroke:#b0b0b0;stroke-linecap:square;stroke-width:0.8;"/>
     </g>
     <g id="line2d_32">
      <g>
       <use style="stroke:#000000;stroke-width:0.8;" x="76.5" xlink:href="#m7574a0f40e" y="293.328"/>
      </g>
     </g>
     <g id="text_17">
      <!-- 0.4 -->
      <g transform="translate(53.596875 297.127219)scale(0.1 -0.1)">
       <use xlink:href="#DejaVuSans-48"/>
       <use x="63.623047" xlink:href="#DejaVuSans-46"/>
       <use x="95.410156" xlink:href="#DejaVuSans-52"/>
      </g>
     </g>
    </g>
    <g id="ytick_6">
     <g id="line2d_33">
      <path clip-path="url(#pcdc89d1c58)" d="M 76.5 254.52 
L 550.8 254.52 
" style="fill:none;stroke:#b0b0b0;stroke-linecap:square;stroke-width:0.8;"/>
     </g>
     <g id="line2d_34">
      <g>
       <use style="stroke:#000000;stroke-width:0.8;" x="76.5" xlink:href="#m7574a0f40e" y="254.52"/>
      </g>
     </g>
     <g id="text_18">
      <!-- 0.5 -->
      <g transform="translate(53.596875 258.319219)scale(0.1 -0.1)">
       <use xlink:href="#DejaVuSans-48"/>
       <use x="63.623047" xlink:href="#DejaVuSans-46"/>
       <use x="95.410156" xlink:href="#DejaVuSans-53"/>
      </g>
     </g>
    </g>
    <g id="ytick_7">
     <g id="line2d_35">
      <path clip-path="url(#pcdc89d1c58)" d="M 76.5 215.712 
L 550.8 215.712 
" style="fill:none;stroke:#b0b0b0;stroke-linecap:square;stroke-width:0.8;"/>
     </g>
     <g id="line2d_36">
      <g>
       <use style="stroke:#000000;stroke-width:0.8;" x="76.5" xlink:href="#m7574a0f40e" y="215.712"/>
      </g>
     </g>
     <g id="text_19">
      <!-- 0.6 -->
      <g transform="translate(53.596875 219.511219)scale(0.1 -0.1)">
       <use xlink:href="#DejaVuSans-48"/>
       <use x="63.623047" xlink:href="#DejaVuSans-46"/>
       <use x="95.410156" xlink:href="#DejaVuSans-54"/>
      </g>
     </g>
    </g>
    <g id="ytick_8">
     <g id="line2d_37">
      <path clip-path="url(#pcdc89d1c58)" d="M 76.5 176.904 
L 550.8 176.904 
" style="fill:none;stroke:#b0b0b0;stroke-linecap:square;stroke-width:0.8;"/>
     </g>
     <g id="line2d_38">
      <g>
       <use style="stroke:#000000;stroke-width:0.8;" x="76.5" xlink:href="#m7574a0f40e" y="176.904"/>
      </g>
     </g>
     <g id="text_20">
      <!-- 0.7 -->
      <g transform="translate(53.596875 180.703219)scale(0.1 -0.1)">
       <use xlink:href="#DejaVuSans-48"/>
       <use x="63.623047" xlink:href="#DejaVuSans-46"/>
       <use x="95.410156" xlink:href="#DejaVuSans-55"/>
      </g>
     </g>
    </g>
    <g id="ytick_9">
     <g id="line2d_39">
      <path clip-path="url(#pcdc89d1c58)" d="M 76.5 138.096 
L 550.8 138.096 
" style="fill:none;stroke:#b0b0b0;stroke-linecap:square;stroke-width:0.8;"/>
     </g>
     <g id="line2d_40">
      <g>
       <use style="stroke:#000000;stroke-width:0.8;" x="76.5" xlink:href="#m7574a0f40e" y="138.096"/>
      </g>
     </g>
     <g id="text_21">
      <!-- 0.8 -->
      <g transform="translate(53.596875 141.895219)scale(0.1 -0.1)">
       <use xlink:href="#DejaVuSans-48"/>
       <use x="63.623047" xlink:href="#DejaVuSans-46"/>
       <use x="95.410156" xlink:href="#DejaVuSans-56"/>
      </g>
     </g>
    </g>
    <g id="ytick_10">
     <g id="line2d_41">
      <path clip-path="url(#pcdc89d1c58)" d="M 76.5 99.288 
L 550.8 99.288 
" style="fill:none;stroke:#b0b0b0;stroke-linecap:square;stroke-width:0.8;"/>
     </g>
     <g id="line2d_42">
      <g>
       <use style="stroke:#000000;stroke-width:0.8;" x="76.5" xlink:href="#m7574a0f40e" y="99.288"/>
      </g>
     </g>
     <g id="text_22">
      <!-- 0.9 -->
      <g transform="translate(53.596875 103.087219)scale(0.1 -0.1)">
       <use xlink:href="#DejaVuSans-48"/>
       <use x="63.623047" xlink:href="#DejaVuSans-46"/>
       <use x="95.410156" xlink:href="#DejaVuSans-57"/>
      </g>
     </g>
    </g>
    <g id="ytick_11">
     <g id="line2d_43">
      <path clip-path="url(#pcdc89d1c58)" d="M 76.5 60.48 
L 550.8 60.48 
" style="fill:none;stroke:#b0b0b0;stroke-linecap:square;stroke-width:0.8;"/>
     </g>
     <g id="line2d_44">
      <g>
       <use style="stroke:#000000;stroke-width:0.8;" x="76.5" xlink:href="#m7574a0f40e" y="60.48"/>
      </g>
     </g>
     <g id="text_23">
      <!-- 1.0 -->
      <g transform="translate(53.596875 64.279219)scale(0.1 -0.1)">
       <use xlink:href="#DejaVuSans-49"/>
       <use x="63.623047" xlink:href="#DejaVuSans-46"/>
       <use x="95.410156" xlink:href="#DejaVuSans-48"/>
      </g>
     </g>
    </g>
    <g id="text_24">
     <!-- #correct/751 -->
     <defs>
      <path d="M 51.125 44 
L 36.921875 44 
L 32.8125 27.6875 
L 47.125 27.6875 
z
M 43.796875 71.78125 
L 38.71875 51.515625 
L 52.984375 51.515625 
L 58.109375 71.78125 
L 65.921875 71.78125 
L 60.890625 51.515625 
L 76.125 51.515625 
L 76.125 44 
L 58.984375 44 
L 54.984375 27.6875 
L 70.515625 27.6875 
L 70.515625 20.21875 
L 53.078125 20.21875 
L 48 0 
L 40.1875 0 
L 45.21875 20.21875 
L 30.90625 20.21875 
L 25.875 0 
L 18.015625 0 
L 23.09375 20.21875 
L 7.71875 20.21875 
L 7.71875 27.6875 
L 24.90625 27.6875 
L 29 44 
L 13.28125 44 
L 13.28125 51.515625 
L 30.90625 51.515625 
L 35.890625 71.78125 
z
" id="DejaVuSans-35"/>
      <path d="M 18.3125 70.21875 
L 18.3125 54.6875 
L 36.8125 54.6875 
L 36.8125 47.703125 
L 18.3125 47.703125 
L 18.3125 18.015625 
Q 18.3125 11.328125 20.140625 9.421875 
Q 21.96875 7.515625 27.59375 7.515625 
L 36.8125 7.515625 
L 36.8125 0 
L 27.59375 0 
Q 17.1875 0 13.234375 3.875 
Q 9.28125 7.765625 9.28125 18.015625 
L 9.28125 47.703125 
L 2.6875 47.703125 
L 2.6875 54.6875 
L 9.28125 54.6875 
L 9.28125 70.21875 
z
" id="DejaVuSans-116"/>
      <path d="M 25.390625 72.90625 
L 33.6875 72.90625 
L 8.296875 -9.28125 
L 0 -9.28125 
z
" id="DejaVuSans-47"/>
     </defs>
     <g transform="translate(47.517187 287.641094)rotate(-90)scale(0.1 -0.1)">
      <use xlink:href="#DejaVuSans-35"/>
      <use x="83.789062" xlink:href="#DejaVuSans-99"/>
      <use x="138.769531" xlink:href="#DejaVuSans-111"/>
      <use x="199.951172" xlink:href="#DejaVuSans-114"/>
      <use x="241.048828" xlink:href="#DejaVuSans-114"/>
      <use x="282.130859" xlink:href="#DejaVuSans-101"/>
      <use x="343.654297" xlink:href="#DejaVuSans-99"/>
      <use x="398.634766" xlink:href="#DejaVuSans-116"/>
      <use x="437.84375" xlink:href="#DejaVuSans-47"/>
      <use x="471.535156" xlink:href="#DejaVuSans-55"/>
      <use x="535.158203" xlink:href="#DejaVuSans-53"/>
      <use x="598.78125" xlink:href="#DejaVuSans-49"/>
     </g>
    </g>
   </g>
   <g id="line2d_45">
    <path clip-path="url(#pcdc89d1c58)" d="M 76.5 448.043249 
L 76.5 353.994567 
L 79.077717 353.994567 
L 78.970313 349.860559 
L 81.415026 349.860559 
L 81.290909 347.276804 
L 83.650251 347.276804 
L 82.796018 333.324527 
L 82.606867 329.70727 
L 84.607692 329.70727 
L 84.438075 327.123515 
L 86.38125 327.123515 
L 85.8 319.37225 
L 87.616406 319.37225 
L 87.530233 318.338748 
L 89.318919 318.338748 
L 89.269615 317.821997 
L 92.792748 317.821997 
L 92.136264 312.137736 
L 95.472 312.137736 
L 95.267266 310.587483 
L 96.9 310.587483 
L 96.827143 310.070732 
L 98.442705 310.070732 
L 98.059091 307.486977 
L 101.203125 307.486977 
L 99.599026 297.151957 
L 101.059223 297.151957 
L 100.98 296.635206 
L 103.863462 296.635206 
L 103.096262 291.984447 
L 105.868421 291.984447 
L 105.332827 288.883941 
L 106.682727 288.883941 
L 106.591541 288.36719 
L 109.259459 288.36719 
L 108.870623 286.300186 
L 110.178107 286.300186 
L 110.078761 285.783435 
L 111.375 285.783435 
L 111.272727 285.266684 
L 112.557895 285.266684 
L 111.533523 280.099174 
L 114.015254 280.099174 
L 113.7 278.548921 
L 116.135097 278.548921 
L 115.915512 277.515419 
L 117.116851 277.515419 
L 116.346341 273.898162 
L 118.68841 273.898162 
L 118.35 272.347909 
L 119.5032 272.347909 
L 119.161905 270.797656 
L 120.300792 270.797656 
L 120.070866 269.764154 
L 121.198429 269.764154 
L 120.85013 268.213901 
L 121.96399 268.213901 
L 121.846512 267.69715 
L 125.146154 267.69715 
L 125.021739 267.180399 
L 127.18855 267.180399 
L 127.059898 266.663648 
L 128.132658 266.663648 
L 127.872544 265.630146 
L 128.935176 265.630146 
L 128.413433 263.563142 
L 130.504455 263.563142 
L 130.371111 263.046391 
L 131.40665 263.046391 
L 131.003912 261.496138 
L 132.027805 261.496138 
L 131.758252 260.462636 
L 132.772881 260.462636 
L 132.501687 259.429134 
L 133.507212 259.429134 
L 133.370504 258.912383 
L 134.369139 258.912383 
L 133.95677 257.36213 
L 134.94455 257.36213 
L 134.806383 256.845379 
L 135.7875 256.845379 
L 135.37096 255.295126 
L 137.307692 255.295126 
L 136.745958 253.228123 
L 140.535927 253.228123 
L 140.389726 252.711372 
L 141.324601 252.711372 
L 141.030612 251.67787 
L 141.957692 251.67787 
L 141.662838 250.644368 
L 143.497534 250.644368 
L 143.347651 250.127617 
L 144.257143 250.127617 
L 143.80643 248.577364 
L 145.603311 248.577364 
L 145.148684 247.027111 
L 146.036324 247.027111 
L 145.884498 246.51036 
L 146.766667 246.51036 
L 146.613913 245.993609 
L 147.490672 245.993609 
L 147.031681 244.443356 
L 147.9 244.443356 
L 147.746781 243.926605 
L 149.469231 243.926605 
L 149.313646 243.409854 
L 152.708879 243.409854 
L 152.548101 242.893103 
L 155.05283 242.893103 
L 154.724843 241.859601 
L 155.55 241.859601 
L 155.221992 240.826099 
L 161.680408 240.826099 
L 161.506925 240.309348 
L 170.794235 240.309348 
L 170.420792 239.275846 
L 171.17253 239.275846 
L 170.985799 238.759095 
L 173.22 238.759095 
L 173.030724 238.242344 
L 178.135714 238.242344 
L 177.744808 237.208842 
L 181.297714 237.208842 
L 181.098479 236.692091 
L 182.498864 236.692091 
L 182.298488 236.17534 
L 183.686441 236.17534 
L 183.484962 235.658589 
L 186.226119 235.658589 
L 186.021788 235.141838 
L 186.699814 235.141838 
L 186.291667 234.108336 
L 187.636716 234.108336 
L 187.432044 233.591585 
L 190.747445 233.591585 
L 190.125408 232.041332 
L 191.429837 232.041332 
L 191.222383 231.524581 
L 192.515827 231.524581 
L 192.30754 231.00783 
L 193.590161 231.00783 
L 193.172727 229.974328 
L 196.957143 229.974328 
L 196.74507 229.457577 
L 197.367311 229.457577 
L 196.943958 228.424075 
L 197.562587 228.424075 
L 197.351309 227.907324 
L 202.81701 227.907324 
L 202.600343 227.390573 
L 203.790769 227.390573 
L 203.573549 226.873822 
L 207.092736 226.873822 
L 206.872513 226.357071 
L 207.451515 226.357071 
L 207.231429 225.84032 
L 207.807886 225.84032 
L 207.58794 225.323569 
L 212.126281 225.323569 
L 211.902475 224.806818 
L 212.460791 224.806818 
L 212.237171 224.290067 
L 216.634091 224.290067 
L 216.406969 223.773316 
L 219.095016 223.773316 
L 218.866132 223.256565 
L 220.456869 223.256565 
L 220.227273 222.739814 
L 220.753662 222.739814 
L 220.067829 221.189561 
L 222.151181 221.189561 
L 221.92217 220.67281 
L 224.48752 220.67281 
L 224.257009 220.156059 
L 227.779045 220.156059 
L 227.546308 219.639308 
L 230.013893 219.639308 
L 229.546575 218.605806 
L 231.49062 218.605806 
L 231.256495 218.089055 
L 235.542474 218.089055 
L 235.305804 217.572304 
L 239.0175 217.572304 
L 238.778855 217.055553 
L 244.181818 217.055553 
L 243.940202 216.538802 
L 247.004422 216.538802 
L 246.519346 215.5053 
L 247.812323 215.5053 
L 247.570014 214.988549 
L 249.699438 214.988549 
L 249.456522 214.471798 
L 256.47411 214.471798 
L 256.227907 213.955047 
L 256.630328 213.955047 
L 256.384584 213.438296 
L 260.7375 213.438296 
L 260.490201 212.921545 
L 262.809587 212.921545 
L 262.561835 212.404794 
L 262.944622 212.404794 
L 262.697347 211.888043 
L 265.347438 211.888043 
L 265.099606 211.371292 
L 269.892 211.371292 
L 269.642784 210.854541 
L 274.275285 210.854541 
L 273.775221 209.821039 
L 274.821914 209.821039 
L 274.572453 209.304288 
L 275.955319 209.304288 
L 275.706 208.787537 
L 276.39202 208.787537 
L 276.143088 208.270786 
L 280.51875 208.270786 
L 280.269033 207.754035 
L 282.241312 207.754035 
L 281.991626 207.237284 
L 284.576322 207.237284 
L 284.326531 206.720533 
L 286.232181 206.720533 
L 285.9825 206.203782 
L 290.93236 206.203782 
L 290.682147 205.687031 
L 295.156651 205.687031 
L 294.656293 204.653529 
L 296.691487 204.653529 
L 296.441837 204.136778 
L 296.729898 204.136778 
L 296.480769 203.620027 
L 297.911136 203.620027 
L 297.66236 203.103276 
L 299.637793 203.103276 
L 299.38931 202.586525 
L 311.386638 202.586525 
L 311.137818 202.069774 
L 312.901893 202.069774 
L 312.653571 201.553023 
L 313.401675 201.553023 
L 313.15387 201.036272 
L 317.305961 201.036272 
L 317.058727 200.519521 
L 322.908108 200.519521 
L 322.6617 200.00277 
L 326.254429 200.00277 
L 326.00885 199.486019 
L 326.229666 199.486019 
L 325.984593 198.969268 
L 329.245938 198.969268 
L 329.001739 198.452517 
L 334.436946 198.452517 
L 334.194068 197.935766 
L 336.614246 197.935766 
L 336.130762 196.902264 
L 336.925833 196.902264 
L 336.684921 196.385513 
L 337.080332 196.385513 
L 336.839945 195.868762 
L 338.407418 195.868762 
L 337.928611 194.83526 
L 339.665549 194.83526 
L 339.427174 194.318509 
L 342.818182 194.318509 
L 342.581033 193.801758 
L 342.9512 193.801758 
L 342.714565 193.285007 
L 343.267493 193.285007 
L 343.031416 192.768256 
L 345.034443 192.768256 
L 344.799299 192.251505 
L 347.117922 192.251505 
L 346.883824 191.734754 
L 353.703763 191.734754 
L 353.47218 191.218003 
L 354.293012 191.218003 
L 353.831561 190.184501 
L 361.835857 190.184501 
L 361.608678 189.66775 
L 364.428 189.66775 
L 364.202351 189.150999 
L 366.797991 189.150999 
L 366.573822 188.634248 
L 366.857903 188.634248 
L 366.634206 188.117497 
L 367.2 188.117497 
L 366.976899 187.600746 
L 368.792781 187.600746 
L 368.570843 187.083995 
L 374.3325 187.083995 
L 374.113666 186.567244 
L 375.402407 186.567244 
L 375.184548 186.050493 
L 376.202609 186.050493 
L 375.98559 185.533742 
L 377.615854 185.533742 
L 377.4 185.016991 
L 380.212553 185.016991 
L 379.99852 184.50024 
L 380.238916 184.50024 
L 380.025316 183.983489 
L 380.145327 183.983489 
L 380.623686 183.983489 
L 380.198041 182.949987 
L 380.317343 182.949987 
L 384.617178 182.949987 
L 384.407289 182.433236 
L 384.520558 182.433236 
L 387.193503 182.433236 
L 386.985542 181.916485 
L 387.095117 181.916485 
L 388.398673 181.916485 
L 388.191844 181.399734 
L 388.299602 181.399734 
L 389.581657 181.399734 
L 389.375953 180.882983 
L 389.481944 180.882983 
L 391.159064 180.882983 
L 390.95474 180.366232 
L 391.058469 180.366232 
L 392.088395 180.366232 
L 391.885052 179.849481 
L 391.987379 179.849481 
L 396.844944 179.849481 
L 396.645103 179.33273 
L 396.741209 179.33273 
L 398.074227 179.33273 
L 397.875602 178.815979 
L 397.97 178.815979 
L 401.742444 178.815979 
L 401.546751 178.299228 
L 401.6365 178.299228 
L 408.645903 178.299228 
L 408.45567 177.782477 
L 408.537149 177.782477 
L 410.938886 177.782477 
L 410.750787 177.265726 
L 410.829511 177.265726 
L 411.456128 177.265726 
L 411.268792 176.748975 
L 411.346786 176.748975 
L 412.044828 176.748975 
L 411.85831 176.232224 
L 411.9355 176.232224 
L 419.382492 176.232224 
L 419.202312 175.715473 
L 419.271429 175.715473 
L 419.684607 175.715473 
L 419.505024 175.198722 
L 419.573692 175.198722 
L 423.307774 175.198722 
L 423.13164 174.681971 
L 423.196447 174.681971 
L 427.332908 174.681971 
L 427.160677 174.16522 
L 427.221344 174.16522 
L 428.422303 174.16522 
L 428.251384 173.648469 
L 428.310874 173.648469 
L 432.61377 173.648469 
L 432.447051 173.131718 
L 432.557764 173.131718 
L 433.762083 173.131718 
L 433.596761 172.614967 
L 433.705132 172.614967 
L 437.070229 172.614967 
L 436.908393 172.098216 
L 437.010538 172.098216 
L 437.720455 172.098216 
L 437.559555 171.581465 
L 437.660347 171.581465 
L 440.459375 171.581465 
L 440.301475 171.064714 
L 440.397269 171.064714 
L 441.674422 171.064714 
L 441.51803 170.547963 
L 441.611553 170.547963 
L 444.566278 170.547963 
L 444.413109 170.031212 
L 444.50158 170.031212 
L 444.589904 170.031212 
L 444.437043 169.514461 
L 444.525311 169.514461 
L 451.56637 169.514461 
L 451.421108 168.99771 
L 451.536441 168.99771 
L 465.153705 168.99771 
L 465.024024 168.480959 
L 465.138354 168.480959 
L 465.536119 168.480959 
L 465.407129 167.964208 
L 465.520232 167.964208 
L 466.136982 167.964208 
L 466.008939 167.447457 
L 466.120249 167.447457 
L 468.811058 167.447457 
L 468.686436 166.930706 
L 468.790641 166.930706 
L 472.086998 166.930706 
L 471.966575 166.413955 
L 472.062451 166.413955 
L 472.443631 166.413955 
L 472.323866 165.897204 
L 472.418701 165.897204 
L 475.816734 165.897204 
L 475.701358 165.380453 
L 475.809694 165.380453 
L 480.266377 165.380453 
L 480.156837 164.863702 
L 480.252533 164.863702 
L 481.858856 164.863702 
L 481.751562 164.346951 
L 481.861047 164.346951 
L 483.497368 164.346951 
L 483.392391 163.8302 
L 483.496549 163.8302 
L 484.436541 163.8302 
L 484.332978 163.313449 
L 484.434068 163.313449 
L 488.165167 163.313449 
L 488.066707 162.796698 
L 488.171562 162.796698 
L 489.646374 162.796698 
L 489.539469 161.763196 
L 489.553723 161.763196 
L 493.349869 161.763196 
L 493.193131 160.729694 
L 493.268402 160.729694 
L 497.223626 160.729694 
L 497.223626 160.729694 
" style="fill:none;stroke:#1f77b4;stroke-linecap:square;stroke-width:2;"/>
   </g>
   <g id="line2d_46">
    <path clip-path="url(#pcdc89d1c58)" d="M 76.5 448.043249 
L 76.5 443.39249 
L 119.618182 443.39249 
L 112.984615 442.358988 
L 108.12 441.325486 
L 104.4 440.291984 
L 101.463158 439.258482 
L 144.257143 439.258482 
L 138.365217 438.22498 
L 155.55 438.22498 
L 149.469231 437.191478 
L 141.92069 435.641225 
L 139.74 435.124474 
L 153 435.124474 
L 146.25 433.574221 
L 140.594595 432.023968 
L 135.7875 430.473715 
L 145.909756 430.473715 
L 141.177273 428.923462 
L 150.28 428.923462 
L 145.66875 427.373209 
L 141.6 425.822956 
L 139.143396 424.789454 
L 146.766667 424.789454 
L 141.92069 422.72245 
L 140.811864 422.205699 
L 147.645 422.205699 
L 143.198438 420.138695 
L 141.177273 419.105193 
L 147.291045 419.105193 
L 144.257143 417.55494 
L 155.55 417.55494 
L 154.467123 417.038189 
L 159.822973 417.038189 
L 157.630263 416.004687 
L 167.711538 416.004687 
L 166.556962 415.487936 
L 176.044444 415.487936 
L 170.256977 412.904181 
L 169.17931 412.38743 
L 173.515909 412.38743 
L 168.3 409.803675 
L 163.616327 407.21992 
L 178.8 407.21992 
L 175.877143 405.669667 
L 179.414151 405.669667 
L 175.671818 403.602663 
L 185.630973 403.602663 
L 183.733043 402.569161 
L 186.897414 402.569161 
L 185.026271 401.535659 
L 188.1 401.535659 
L 187.17 401.018908 
L 190.175207 401.018908 
L 185.664286 398.435153 
L 188.53937 398.435153 
L 185.953846 396.8849 
L 188.738931 396.8849 
L 187.888636 396.368149 
L 190.617293 396.368149 
L 188.926667 395.334647 
L 194.209489 395.334647 
L 193.356522 394.817896 
L 195.928058 394.817896 
L 195.075 394.301145 
L 197.597872 394.301145 
L 194.257241 392.234141 
L 199.108163 392.234141 
L 198.27973 391.71739 
L 202.98 391.71739 
L 199.694805 389.650386 
L 201.96 389.650386 
L 201.155769 389.133635 
L 203.382803 389.133635 
L 202.579747 388.616884 
L 204.769811 388.616884 
L 203.968125 388.100133 
L 208.25 388.100133 
L 206.643293 387.066631 
L 210.789759 387.066631 
L 209.985629 386.54988 
L 214.018935 386.54988 
L 212.410526 385.516378 
L 214.377907 385.516378 
L 213.580925 384.999627 
L 215.518966 384.999627 
L 214.724571 384.482876 
L 216.634091 384.482876 
L 215.059551 383.449374 
L 218.79 383.449374 
L 217.226374 382.415872 
L 219.04918 382.415872 
L 217.508108 381.38237 
L 221.072727 381.38237 
L 217.307813 378.798615 
L 224.113776 378.798615 
L 223.364467 378.281864 
L 225.018182 378.281864 
L 220.65 375.181358 
L 226.999038 375.181358 
L 224.859242 373.631105 
L 226.396698 373.631105 
L 225.692958 373.114354 
L 227.21215 373.114354 
L 223.771233 370.530599 
L 226.730769 370.530599 
L 226.054054 370.013848 
L 230.384 370.013848 
L 227.69607 367.946844 
L 229.10087 367.946844 
L 227.785345 366.913342 
L 230.546154 366.913342 
L 229.240678 365.87984 
L 233.276987 365.87984 
L 232.62375 365.363089 
L 241.640891 365.363089 
L 240.314458 364.329587 
L 245.22332 364.329587 
L 243.9 363.296085 
L 246.288327 363.296085 
L 245.630233 362.779334 
L 247.977692 362.779334 
L 246.668702 361.745832 
L 248.972727 361.745832 
L 248.321887 361.229081 
L 249.459023 361.229081 
L 248.811236 360.71233 
L 253.268635 360.71233 
L 252.61875 360.195579 
L 263.192553 360.195579 
L 261.227368 358.645326 
L 263.245296 358.645326 
L 262.596875 358.128575 
L 264.584483 358.128575 
L 263.938144 357.611824 
L 266.865306 357.611824 
L 266.22 357.095073 
L 268.136364 357.095073 
L 267.493289 356.578322 
L 270.316944 356.578322 
L 269.675166 356.061571 
L 276.043689 356.061571 
L 275.4 355.54482 
L 280.629114 355.54482 
L 279.985174 355.028069 
L 285.015789 355.028069 
L 284.372222 354.511318 
L 287.621341 354.511318 
L 286.979635 353.994567 
L 290.148649 353.994567 
L 289.508982 353.477816 
L 290.288955 353.477816 
L 289.652679 352.961065 
L 292.725 352.961065 
L 291.460526 351.927563 
L 293.715652 351.927563 
L 293.087861 351.410812 
L 294.568966 351.410812 
L 293.944126 350.894061 
L 294.678 350.894061 
L 293.438352 349.860559 
L 307.275 349.860559 
L 306.6563 349.343808 
L 308.604255 349.343808 
L 307.37619 348.310306 
L 309.292913 348.310306 
L 308.683508 347.793555 
L 317.243182 347.793555 
L 316.636776 347.276804 
L 317.225126 347.276804 
L 316.621805 346.760053 
L 319.52005 346.760053 
L 318.92 346.243302 
L 321.187775 346.243302 
L 320.590976 345.726551 
L 322.263196 345.726551 
L 321.669565 345.2098 
L 323.862201 345.2098 
L 321.517536 343.142796 
L 335.305122 343.142796 
L 334.73 342.626045 
L 338.504148 342.626045 
L 337.933333 342.109294 
L 341.579872 342.109294 
L 341.013462 341.592543 
L 348.783333 341.592543 
L 348.22423 341.075792 
L 351.094737 341.075792 
L 350.54 340.559041 
L 352.938323 340.559041 
L 352.387649 340.04229 
L 356.262891 340.04229 
L 355.717544 339.525539 
L 357.600579 339.525539 
L 357.05896 339.008788 
L 358.907634 339.008788 
L 358.369714 338.492037 
L 360.185094 338.492037 
L 359.650847 337.975286 
L 361.08 337.975286 
L 360.549067 337.458535 
L 362.307394 337.458535 
L 361.780074 336.941784 
L 364.529455 336.941784 
L 364.006715 336.425033 
L 364.682278 336.425033 
L 364.162094 335.908282 
L 364.498378 335.908282 
L 363.980396 335.391531 
L 364.65 335.391531 
L 364.134526 334.87478 
L 367.736842 334.87478 
L 366.718531 333.841278 
L 369.570052 333.841278 
L 369.066495 333.324527 
L 369.998462 333.324527 
L 369.497611 332.807776 
L 370.72678 332.807776 
L 369.73277 331.774274 
L 370.038111 331.774274 
L 369.543939 331.257523 
L 371.952658 331.257523 
L 371.462687 330.740772 
L 372.9375 330.740772 
L 372.450739 330.224021 
L 374.190732 330.224021 
L 373.707468 329.70727 
L 382.192581 329.70727 
L 381.250539 328.673768 
L 382.289127 328.673768 
L 381.82156 328.157017 
L 382.079542 328.157017 
L 381.61372 327.640266 
L 382.639091 327.640266 
L 382.175946 327.123515 
L 384.688972 327.123515 
L 384.230357 326.606764 
L 384.970667 326.606764 
L 384.514349 326.090013 
L 384.75997 326.090013 
L 384.30531 325.573262 
L 385.524158 325.573262 
L 385.072368 325.056511 
L 389.091441 325.056511 
L 388.646154 324.53976 
L 388.876814 324.53976 
L 388.433097 324.023009 
L 392.261442 324.023009 
L 391.387967 322.989507 
L 395.050135 322.989507 
L 394.620243 322.472756 
L 397.719048 322.472756 
L 397.294716 321.956005 
L 397.49723 321.956005 
L 397.074308 321.439254 
L 397.679528 321.439254 
L 397.258585 320.922503 
L 399.636 320.922503 
L 399.219588 320.405752 
L 402.094058 320.405752 
L 401.682955 319.889001 
L 402.618444 319.889001 
L 402.209774 319.37225 
L 404.230161 319.37225 
L 403.825556 318.855499 
L 404.90625 318.855499 
L 404.103301 317.821997 
L 406.398195 317.821997 
L 406.001683 317.305246 
L 407.380714 317.305246 
L 406.987277 316.788495 
L 414.291535 316.788495 
L 413.91071 316.271744 
L 414.218673 316.271744 
L 413.839213 315.754993 
L 414.299328 315.754993 
L 413.921477 315.238242 
L 415.734437 315.238242 
L 415.360419 314.721491 
L 415.658416 314.721491 
L 415.285714 314.20474 
L 416.320174 314.20474 
L 415.95 313.687989 
L 416.535033 313.687989 
L 416.166631 313.171238 
L 422.292658 313.171238 
L 421.935434 312.654487 
L 422.068421 312.654487 
L 422.597636 312.654487 
L 422.2423 312.137736 
L 422.374154 312.137736 
L 424.828974 312.137736 
L 424.478894 311.620985 
L 424.605723 311.620985 
L 425.486441 311.620985 
L 425.138845 311.104234 
L 425.263881 311.104234 
L 425.885347 311.104234 
L 425.539763 310.587483 
L 425.663538 310.587483 
L 426.766601 310.587483 
L 426.423875 310.070732 
L 426.545455 310.070732 
L 427.029406 310.070732 
L 426.688424 309.553981 
L 426.809038 309.553981 
L 427.289158 309.553981 
L 426.949903 309.03723 
L 427.069565 309.03723 
L 428.0186 309.03723 
L 427.681897 308.520479 
L 427.799713 308.520479 
L 430.222795 308.520479 
L 429.891284 308.003728 
L 430.004494 308.003728 
L 430.902602 308.003728 
L 430.573538 307.486977 
L 430.685065 307.486977 
L 434.462264 307.486977 
L 434.140934 306.970226 
L 434.245561 306.970226 
L 434.35 306.970226 
L 433.814477 305.936724 
L 442.163651 305.936724 
L 441.648179 304.903222 
L 441.828595 304.903222 
L 441.52692 304.386471 
L 441.617079 304.386471 
L 443.039658 304.386471 
L 442.741416 303.86972 
L 442.829268 303.86972 
L 444.13012 303.86972 
L 443.835072 303.352969 
L 443.92085 303.352969 
L 444.602151 303.352969 
L 444.309076 302.836218 
L 444.393795 302.836218 
L 447.516139 302.836218 
L 447.229861 302.319467 
L 447.309715 302.319467 
L 449.189932 302.319467 
L 448.908018 301.802716 
L 448.985034 301.802716 
L 454.378239 301.802716 
L 454.10794 301.285965 
L 454.177055 301.285965 
L 454.58968 301.285965 
L 454.320768 300.769214 
L 454.389339 300.769214 
L 455.137236 300.769214 
L 454.870402 300.252463 
L 454.937958 300.252463 
L 455.207233 300.252463 
L 454.941474 299.735712 
L 455.008696 299.735712 
L 455.075823 299.735712 
L 454.810714 299.218961 
L 454.877887 299.218961 
L 455.94 299.218961 
L 455.677593 298.70221 
L 455.743331 298.70221 
L 458.733735 298.70221 
L 458.47806 298.185459 
L 458.601403 298.185459 
L 459.091495 298.185459 
L 458.83745 297.668708 
L 458.959416 297.668708 
L 459.744379 297.668708 
L 459.492576 297.151957 
L 459.612402 297.151957 
L 460.735256 297.151957 
L 460.486399 296.635206 
L 460.603234 296.635206 
L 460.719767 296.635206 
L 460.471724 296.118455 
L 460.588201 296.118455 
L 462.355942 296.118455 
L 462.112192 295.601704 
L 462.224101 295.601704 
L 462.447074 295.601704 
L 462.20434 295.084953 
L 462.315641 295.084953 
L 462.758063 295.084953 
L 462.516802 294.568202 
L 462.626949 294.568202 
L 463.713494 294.568202 
L 463.475062 294.051451 
L 463.582472 294.051451 
L 464.379707 294.051451 
L 464.143484 293.5347 
L 464.248905 293.5347 
L 466.753928 293.5347 
L 466.523554 293.017949 
L 466.622936 293.017949 
L 469.033505 293.017949 
L 468.808815 292.501198 
L 468.902573 292.501198 
L 470.464274 292.501198 
L 470.243442 291.984447 
L 470.333651 291.984447 
L 471.966813 291.984447 
L 471.75 291.467696 
L 471.836583 291.467696 
L 472.266667 291.467696 
L 472.051225 290.950945 
L 472.136868 290.950945 
L 472.222325 290.950945 
L 471.792892 289.917443 
L 471.878537 289.917443 
L 472.430732 289.917443 
L 472.217751 289.400692 
L 472.302203 289.400692 
L 475.846485 289.400692 
L 475.641692 288.883941 
L 475.757143 288.883941 
L 478.639143 288.883941 
L 478.44124 288.36719 
L 478.547912 288.36719 
L 479.390092 288.36719 
L 479.194515 287.850439 
L 479.298643 287.850439 
L 481.286664 287.850439 
L 481.095996 287.333688 
L 481.194356 287.333688 
L 481.875175 287.333688 
L 481.686453 286.816937 
L 481.782845 286.816937 
L 481.910951 286.816937 
L 481.722913 286.300186 
L 481.818898 286.300186 
L 482.231768 286.300186 
L 482.045053 285.783435 
L 482.139844 285.783435 
L 482.360009 285.783435 
L 482.174176 285.266684 
L 482.268313 285.266684 
L 482.455814 285.266684 
L 482.270784 284.749933 
L 482.36436 284.749933 
L 484.360274 284.749933 
L 484.180124 284.233182 
L 484.297619 284.233182 
L 485.251369 284.233182 
L 485.073805 283.716431 
L 485.187814 283.716431 
L 485.386381 283.716431 
L 485.20968 283.19968 
L 485.322865 283.19968 
L 486.351592 283.19968 
L 486.177632 282.682929 
L 486.287161 282.682929 
L 486.640582 282.682929 
L 486.467818 282.166178 
L 486.57603 282.166178 
L 487.924496 282.166178 
L 487.755185 281.649427 
L 487.858792 281.649427 
L 488.951433 281.649427 
L 488.618677 280.615925 
L 488.718848 280.615925 
L 490.373697 280.615925 
L 490.21152 280.099174 
L 490.306338 280.099174 
L 490.729371 280.099174 
L 490.568505 279.582423 
L 490.661923 279.582423 
L 491.805668 279.582423 
L 491.35488 278.03217 
L 491.445051 278.03217 
L 491.803015 278.03217 
L 491.646534 277.515419 
L 491.757766 277.515419 
L 492.954274 277.515419 
L 492.800884 276.998668 
L 492.9075 276.998668 
L 493.35104 276.998668 
L 493.199015 276.481917 
L 493.303859 276.481917 
L 495.323393 276.481917 
L 495.176334 275.965166 
L 495.273817 275.965166 
L 495.679541 275.965166 
L 495.533739 275.448415 
L 495.648837 275.448415 
L 495.97236 275.448415 
L 495.796869 274.414913 
L 496.488379 274.414913 
L 496.34572 273.898162 
L 496.456475 273.898162 
L 497.021603 273.898162 
L 496.880584 273.381411 
L 496.988855 273.381411 
L 497.132543 273.381411 
L 496.992192 272.86466 
L 497.0997 272.86466 
L 497.909872 272.86466 
L 497.771705 272.347909 
L 497.875818 272.347909 
L 498.305258 272.347909 
L 498.168397 271.831158 
L 498.270661 271.831158 
L 499.435022 271.831158 
L 499.30114 271.314407 
L 499.415003 271.314407 
L 501.049266 271.314407 
L 500.919474 270.797656 
L 501.025991 270.797656 
L 502.966755 270.797656 
L 502.841764 270.280905 
L 502.953947 270.280905 
L 505.028392 270.280905 
L 504.908557 269.764154 
L 505.010993 269.764154 
L 506.791472 269.764154 
L 506.676113 269.247403 
L 506.782321 269.247403 
L 506.864576 269.247403 
L 506.74972 268.730652 
L 506.855272 268.730652 
L 508.08354 268.730652 
L 507.971876 268.213901 
L 508.0824 268.213901 
L 508.148441 268.213901 
L 508.037249 267.69715 
L 508.147122 267.69715 
L 508.3 267.69715 
L 508.18948 267.180399 
L 508.298264 267.180399 
L 508.535644 267.180399 
L 508.327169 266.146897 
L 508.423918 266.146897 
L 508.943025 266.146897 
L 508.834941 265.630146 
L 508.939566 265.630146 
L 511.969704 265.630146 
L 511.869017 265.113395 
L 511.976735 265.113395 
L 513.761615 265.113395 
L 513.66545 264.596644 
L 513.771316 264.596644 
L 513.973217 264.596644 
L 513.877824 264.079893 
L 513.990196 264.079893 
L 514.078009 264.079893 
L 513.983131 263.563142 
L 514.094553 263.563142 
L 514.595437 263.563142 
L 514.502046 263.046391 
L 514.610053 263.046391 
L 514.679147 263.046391 
L 514.586214 262.52964 
L 514.693424 262.52964 
L 515.419146 262.52964 
L 515.328216 262.012889 
L 515.438104 262.012889 
L 515.598047 262.012889 
L 515.50779 261.496138 
L 515.61627 261.496138 
L 515.980166 261.496138 
L 515.980166 261.496138 
" style="fill:none;stroke:#ff7f0e;stroke-linecap:square;stroke-width:2;"/>
   </g>
   <g id="line2d_47">
    <path clip-path="url(#pcdc89d1c58)" d="M 76.5 448.043249 
L 76.5 336.425033 
L 78.675688 336.425033 
L 78.526923 328.157017 
L 80.536596 328.157017 
L 80.469038 326.090013 
L 82.42875 326.090013 
L 82.036576 317.305246 
L 83.853488 317.305246 
L 83.398909 308.520479 
L 86.773646 308.520479 
L 86.38125 302.836218 
L 87.988235 302.836218 
L 87.792857 300.252463 
L 90.921284 300.252463 
L 90.872727 299.735712 
L 93.949164 299.735712 
L 93.891 299.218961 
L 96.916887 299.218961 
L 96.782566 298.185459 
L 98.271148 298.185459 
L 96.744512 286.300186 
L 96.500602 284.233182 
L 97.864865 284.233182 
L 97.363636 280.099174 
L 100.00758 280.099174 
L 99.736599 278.03217 
L 101.032759 278.03217 
L 100.892571 276.998668 
L 102.174359 276.998668 
L 102.028895 275.965166 
L 103.29661 275.965166 
L 103.221127 275.448415 
L 104.478371 275.448415 
L 103.566033 269.247403 
L 104.778049 269.247403 
L 104.701622 268.730652 
L 105.904043 268.730652 
L 105.359524 265.113395 
L 107.703947 265.113395 
L 107.622047 264.596644 
L 108.782199 264.596644 
L 108.697911 264.079893 
L 109.849219 264.079893 
L 109.590698 262.52964 
L 114.104348 262.52964 
L 113.81802 260.979387 
L 114.924304 260.979387 
L 114.161538 256.845379 
L 116.317778 256.845379 
L 116.122113 255.811877 
L 117.1875 255.811877 
L 116.890511 254.261625 
L 117.943689 254.261625 
L 117.743478 253.228123 
L 118.786988 253.228123 
L 118.685337 252.711372 
L 119.721583 252.711372 
L 119.412857 251.161119 
L 120.43753 251.161119 
L 120.333412 250.644368 
L 121.351064 250.644368 
L 120.827103 248.060613 
L 124.808333 248.060613 
L 124.475172 246.51036 
L 126.426316 246.51036 
L 126.198861 245.476858 
L 127.163864 245.476858 
L 126.934615 244.443356 
L 127.891422 244.443356 
L 127.317857 241.859601 
L 130.134812 241.859601 
L 129.898013 240.826099 
L 131.748132 240.826099 
L 131.626974 240.309348 
L 134.366667 240.309348 
L 134.115618 239.275846 
L 137.7 239.275846 
L 137.56867 238.759095 
L 139.334615 238.759095 
L 139.067234 237.725593 
L 142.541772 237.725593 
L 142.402737 237.208842 
L 143.260714 237.208842 
L 143.120755 236.692091 
L 143.97364 236.692091 
L 143.6925 235.658589 
L 144.538877 235.658589 
L 143.838889 233.074834 
L 144.674538 233.074834 
L 144.534836 232.558083 
L 147.017108 232.558083 
L 146.87378 232.041332 
L 147.693103 232.041332 
L 147.405455 231.00783 
L 151.4394 231.00783 
L 151.28982 230.491079 
L 152.085657 230.491079 
L 151.785714 229.457577 
L 155.705305 229.457577 
L 155.395303 228.424075 
L 156.167578 228.424075 
L 156.012281 227.907324 
L 159.822973 227.907324 
L 159.662428 227.390573 
L 160.414615 227.390573 
L 160.253551 226.873822 
L 163.229143 226.873822 
L 162.9 225.84032 
L 163.634659 225.84032 
L 162.979511 223.773316 
L 167.304647 223.773316 
L 167.136178 223.256565 
L 167.846667 223.256565 
L 167.175 221.189561 
L 169.278976 221.189561 
L 168.940984 220.156059 
L 175.772093 220.156059 
L 175.594821 219.639308 
L 179.572261 219.639308 
L 179.390476 219.122557 
L 181.345263 219.122557 
L 181.161646 218.605806 
L 181.807867 218.605806 
L 181.076563 216.538802 
L 185.51578 216.538802 
L 185.32911 216.022051 
L 185.953846 216.022051 
L 185.767065 215.5053 
L 188.85533 215.5053 
L 188.476391 214.471798 
L 191.505853 214.471798 
L 191.313856 213.955047 
L 191.913 213.955047 
L 191.720965 213.438296 
L 192.91194 213.438296 
L 192.719205 212.921545 
L 195.075 212.921545 
L 194.880296 212.404794 
L 198.924838 212.404794 
L 198.726418 211.888043 
L 199.296117 211.888043 
L 199.097738 211.371292 
L 202.47408 211.371292 
L 202.272843 210.854541 
L 202.828708 210.854541 
L 202.627548 210.33779 
L 203.181081 210.33779 
L 202.779556 209.304288 
L 207.673594 209.304288 
L 207.468955 208.787537 
L 211.701079 208.787537 
L 211.285714 207.754035 
L 212.325574 207.754035 
L 212.11789 207.237284 
L 213.664384 207.237284 
L 213.455927 206.720533 
L 216 206.720533 
L 215.580451 205.687031 
L 221.522304 205.687031 
L 221.308407 205.17028 
L 224.198684 205.17028 
L 223.983066 204.653529 
L 224.934498 204.653529 
L 224.71875 204.136778 
L 227.071429 204.136778 
L 226.854467 203.620027 
L 227.785345 203.620027 
L 227.568293 203.103276 
L 233.932911 203.103276 
L 233.271429 201.553023 
L 236.35423 201.553023 
L 236.132825 201.036272 
L 239.581233 201.036272 
L 239.135656 200.00277 
L 239.984877 200.00277 
L 239.762449 199.486019 
L 241.864054 199.486019 
L 241.418329 198.452517 
L 242.664161 198.452517 
L 242.441421 197.935766 
L 244.494407 197.935766 
L 244.271011 197.419015 
L 247.497632 197.419015 
L 247.048819 196.385513 
L 252.144 196.385513 
L 251.691892 195.352011 
L 252.842308 195.352011 
L 251.942602 193.285007 
L 257.553191 193.285007 
L 257.101124 192.251505 
L 263.20489 192.251505 
L 262.976923 191.734754 
L 270.1725 191.734754 
L 269.942212 191.218003 
L 272.916 191.218003 
L 272.685194 190.701252 
L 276.552375 190.701252 
L 276.320833 190.184501 
L 280.697494 190.184501 
L 280.465188 189.66775 
L 281.689807 189.66775 
L 281.457692 189.150999 
L 281.762034 189.150999 
L 281.299211 188.117497 
L 282.20764 188.117497 
L 281.976768 187.600746 
L 282.578835 187.600746 
L 282.348322 187.083995 
L 284.138 187.083995 
L 283.907547 186.567244 
L 289.135038 186.567244 
L 288.903913 186.050493 
L 290.037662 186.050493 
L 289.806811 185.533742 
L 294.516879 185.533742 
L 294.285684 185.016991 
L 296.977335 185.016991 
L 296.746226 184.50024 
L 304.741827 184.50024 
L 304.510345 183.983489 
L 310.12448 183.983489 
L 309.893168 183.466738 
L 310.369269 183.466738 
L 310.138401 182.949987 
L 311.79 182.949987 
L 311.559549 182.433236 
L 313.65 182.433236 
L 313.419981 181.916485 
L 314.565637 181.916485 
L 314.336066 181.399734 
L 315.696357 181.399734 
L 315.467241 180.882983 
L 316.141547 180.882983 
L 315.912882 180.366232 
L 318.132987 180.366232 
L 317.904816 179.849481 
L 326.992377 179.849481 
L 326.538587 178.815979 
L 330.332858 178.815979 
L 330.107028 178.299228 
L 330.3032 178.299228 
L 330.077798 177.782477 
L 333.36063 177.782477 
L 333.136101 177.265726 
L 334.271739 177.265726 
L 334.047785 176.748975 
L 334.423764 176.748975 
L 333.977143 175.715473 
L 340 175.715473 
L 339.778385 175.198722 
L 346.812439 175.198722 
L 346.592851 174.681971 
L 350.816706 174.681971 
L 350.598649 174.16522 
L 355.867105 174.16522 
L 355.651044 173.648469 
L 355.801855 173.648469 
L 355.586178 173.131718 
L 357.82145 173.131718 
L 357.606865 172.614967 
L 358.340881 172.614967 
L 358.126879 172.098216 
L 358.564773 172.098216 
L 358.351249 171.581465 
L 359.221402 171.581465 
L 359.008509 171.064714 
L 361.291741 171.064714 
L 361.08 170.547963 
L 370.082295 170.547963 
L 369.874522 170.031212 
L 370.002475 170.031212 
L 369.795053 169.514461 
L 373.552941 169.514461 
L 373.34751 168.99771 
L 375.88773 168.99771 
L 375.683787 168.480959 
L 375.802995 168.480959 
L 377.220932 168.480959 
L 377.018016 167.964208 
L 377.135199 167.964208 
L 381.473964 167.964208 
L 381.273587 167.447457 
L 381.384898 167.447457 
L 382.599739 167.447457 
L 382.400326 166.930706 
L 382.509961 166.930706 
L 383.38193 166.930706 
L 383.183301 166.413955 
L 383.291721 166.413955 
L 386.376 166.413955 
L 386.179378 165.897204 
L 386.283767 165.897204 
L 387.423363 165.897204 
L 387.22769 165.380453 
L 387.330566 165.380453 
L 389.761338 165.380453 
L 389.567368 164.863702 
L 389.667141 164.863702 
L 390.756546 164.863702 
L 390.563514 164.346951 
L 390.661878 164.346951 
L 393.272826 164.346951 
L 393.081654 163.8302 
L 393.176779 163.8302 
L 395.333432 163.8302 
L 395.143876 163.313449 
L 395.236364 163.313449 
L 395.328741 163.313449 
L 395.139525 162.796698 
L 395.231851 162.796698 
L 396.240247 162.796698 
L 396.051943 162.279947 
L 396.143025 162.279947 
L 398.738542 162.279947 
L 398.552169 161.763196 
L 398.640173 161.763196 
L 398.903578 161.763196 
L 398.717647 161.246445 
L 398.805303 161.246445 
L 401.304082 161.246445 
L 401.120057 160.729694 
L 401.204813 160.729694 
L 403.12806 160.729694 
L 402.945587 160.212943 
L 403.028141 160.212943 
L 403.68527 160.212943 
L 403.5035 159.696192 
L 403.585286 159.696192 
L 403.992857 159.696192 
L 403.811621 159.179441 
L 403.89292 159.179441 
L 406.290751 159.179441 
L 406.111419 158.66269 
L 406.190054 158.66269 
L 408.433868 158.66269 
L 408.155288 157.629188 
L 409.214157 157.629188 
L 409.037838 157.112437 
L 409.112924 157.112437 
L 410.007789 157.112437 
L 409.832351 156.595686 
L 409.906467 156.595686 
L 413.936108 156.595686 
L 413.763859 156.078935 
L 413.833776 156.078935 
L 418.361026 156.078935 
L 418.192456 155.562184 
L 418.257812 155.562184 
L 421.507644 155.562184 
L 421.341855 155.045433 
L 421.404035 155.045433 
L 427.334189 155.045433 
L 427.173477 154.528682 
L 427.286636 154.528682 
L 427.56863 154.528682 
L 427.408398 154.011931 
L 427.52093 154.011931 
L 428.413852 154.011931 
L 428.254615 153.49518 
L 428.365416 153.49518 
L 429.4625 153.49518 
L 429.304433 152.978429 
L 429.413154 152.978429 
L 429.9 152.978429 
L 429.742584 152.461678 
L 429.850334 152.461678 
L 430.172437 152.461678 
L 430.015528 151.944927 
L 430.122606 151.944927 
L 431.862385 151.944927 
L 431.707205 151.428176 
L 431.811126 151.428176 
L 434.994268 151.428176 
L 434.842105 150.911425 
L 434.940458 150.911425 
L 438.373333 150.911425 
L 438.224476 150.394674 
L 438.317016 150.394674 
L 440.225818 150.394674 
L 440.078918 149.877923 
L 440.168281 149.877923 
L 443.038443 149.877923 
L 442.89442 149.361172 
L 442.979152 149.361172 
L 445.581724 149.361172 
L 445.440368 148.844421 
L 445.52101 148.844421 
L 448.61055 148.844421 
L 448.472373 148.32767 
L 448.586239 148.32767 
L 449.859231 148.32767 
L 449.722519 147.810919 
L 449.833431 147.810919 
L 450.530258 147.810919 
L 450.394444 147.294168 
L 450.5037 147.294168 
L 455.515059 147.294168 
L 455.384499 146.777417 
L 455.483001 146.777417 
L 458.776346 146.777417 
L 458.649386 146.260666 
L 458.741108 146.260666 
L 459.528454 146.260666 
L 459.402499 145.743915 
L 459.492576 145.743915 
L 460.058962 145.743915 
L 459.933779 145.227164 
L 460.022661 145.227164 
L 461.392775 145.227164 
L 461.269213 144.710413 
L 461.355356 144.710413 
L 466.77216 144.710413 
L 466.654608 144.193662 
L 466.755866 144.193662 
L 468.51349 144.193662 
L 468.398057 143.676911 
L 468.495 143.676911 
L 470.479392 143.676911 
L 470.366341 143.16016 
L 470.458555 143.16016 
L 472.914115 143.16016 
L 472.804 142.643409 
L 472.912178 142.643409 
L 477.064286 142.643409 
L 476.959123 142.126658 
L 477.055926 142.126658 
L 477.745481 142.126658 
L 477.641288 141.609907 
L 477.736151 141.609907 
L 480.012513 141.609907 
L 479.911153 141.093156 
L 480.017833 141.093156 
L 481.563371 141.093156 
L 481.464018 140.576405 
L 481.565907 140.576405 
L 481.852976 140.576405 
L 481.754133 140.059654 
L 481.855004 140.059654 
L 493.376131 140.059654 
L 493.376131 140.059654 
" style="fill:none;stroke:#2ca02c;stroke-linecap:square;stroke-width:2;"/>
   </g>
   <g id="patch_3">
    <path d="M 76.5 448.56 
L 76.5 60.48 
" style="fill:none;stroke:#000000;stroke-linecap:square;stroke-linejoin:miter;stroke-width:0.8;"/>
   </g>
   <g id="patch_4">
    <path d="M 550.8 448.56 
L 550.8 60.48 
" style="fill:none;stroke:#000000;stroke-linecap:square;stroke-linejoin:miter;stroke-width:0.8;"/>
   </g>
   <g id="patch_5">
    <path d="M 76.5 448.56 
L 550.8 448.56 
" style="fill:none;stroke:#000000;stroke-linecap:square;stroke-linejoin:miter;stroke-width:0.8;"/>
   </g>
   <g id="patch_6">
    <path d="M 76.5 60.48 
L 550.8 60.48 
" style="fill:none;stroke:#000000;stroke-linecap:square;stroke-linejoin:miter;stroke-width:0.8;"/>
   </g>
   <g id="text_25">
    <!-- boat: img1-img5 -->
    <defs>
     <path d="M 48.6875 27.296875 
Q 48.6875 37.203125 44.609375 42.84375 
Q 40.53125 48.484375 33.40625 48.484375 
Q 26.265625 48.484375 22.1875 42.84375 
Q 18.109375 37.203125 18.109375 27.296875 
Q 18.109375 17.390625 22.1875 11.75 
Q 26.265625 6.109375 33.40625 6.109375 
Q 40.53125 6.109375 44.609375 11.75 
Q 48.6875 17.390625 48.6875 27.296875 
z
M 18.109375 46.390625 
Q 20.953125 51.265625 25.265625 53.625 
Q 29.59375 56 35.59375 56 
Q 45.5625 56 51.78125 48.09375 
Q 58.015625 40.1875 58.015625 27.296875 
Q 58.015625 14.40625 51.78125 6.484375 
Q 45.5625 -1.421875 35.59375 -1.421875 
Q 29.59375 -1.421875 25.265625 0.953125 
Q 20.953125 3.328125 18.109375 8.203125 
L 18.109375 0 
L 9.078125 0 
L 9.078125 75.984375 
L 18.109375 75.984375 
z
" id="DejaVuSans-98"/>
     <path d="M 34.28125 27.484375 
Q 23.390625 27.484375 19.1875 25 
Q 14.984375 22.515625 14.984375 16.5 
Q 14.984375 11.71875 18.140625 8.90625 
Q 21.296875 6.109375 26.703125 6.109375 
Q 34.1875 6.109375 38.703125 11.40625 
Q 43.21875 16.703125 43.21875 25.484375 
L 43.21875 27.484375 
z
M 52.203125 31.203125 
L 52.203125 0 
L 43.21875 0 
L 43.21875 8.296875 
Q 40.140625 3.328125 35.546875 0.953125 
Q 30.953125 -1.421875 24.3125 -1.421875 
Q 15.921875 -1.421875 10.953125 3.296875 
Q 6 8.015625 6 15.921875 
Q 6 25.140625 12.171875 29.828125 
Q 18.359375 34.515625 30.609375 34.515625 
L 43.21875 34.515625 
L 43.21875 35.40625 
Q 43.21875 41.609375 39.140625 45 
Q 35.0625 48.390625 27.6875 48.390625 
Q 23 48.390625 18.546875 47.265625 
Q 14.109375 46.140625 10.015625 43.890625 
L 10.015625 52.203125 
Q 14.9375 54.109375 19.578125 55.046875 
Q 24.21875 56 28.609375 56 
Q 40.484375 56 46.34375 49.84375 
Q 52.203125 43.703125 52.203125 31.203125 
z
" id="DejaVuSans-97"/>
     <path d="M 11.71875 12.40625 
L 22.015625 12.40625 
L 22.015625 0 
L 11.71875 0 
z
M 11.71875 51.703125 
L 22.015625 51.703125 
L 22.015625 39.3125 
L 11.71875 39.3125 
z
" id="DejaVuSans-58"/>
     <path id="DejaVuSans-32"/>
     <path d="M 52 44.1875 
Q 55.375 50.25 60.0625 53.125 
Q 64.75 56 71.09375 56 
Q 79.640625 56 84.28125 50.015625 
Q 88.921875 44.046875 88.921875 33.015625 
L 88.921875 0 
L 79.890625 0 
L 79.890625 32.71875 
Q 79.890625 40.578125 77.09375 44.375 
Q 74.3125 48.1875 68.609375 48.1875 
Q 61.625 48.1875 57.5625 43.546875 
Q 53.515625 38.921875 53.515625 30.90625 
L 53.515625 0 
L 44.484375 0 
L 44.484375 32.71875 
Q 44.484375 40.625 41.703125 44.40625 
Q 38.921875 48.1875 33.109375 48.1875 
Q 26.21875 48.1875 22.15625 43.53125 
Q 18.109375 38.875 18.109375 30.90625 
L 18.109375 0 
L 9.078125 0 
L 9.078125 54.6875 
L 18.109375 54.6875 
L 18.109375 46.1875 
Q 21.1875 51.21875 25.484375 53.609375 
Q 29.78125 56 35.6875 56 
Q 41.65625 56 45.828125 52.96875 
Q 50 49.953125 52 44.1875 
z
" id="DejaVuSans-109"/>
     <path d="M 45.40625 27.984375 
Q 45.40625 37.75 41.375 43.109375 
Q 37.359375 48.484375 30.078125 48.484375 
Q 22.859375 48.484375 18.828125 43.109375 
Q 14.796875 37.75 14.796875 27.984375 
Q 14.796875 18.265625 18.828125 12.890625 
Q 22.859375 7.515625 30.078125 7.515625 
Q 37.359375 7.515625 41.375 12.890625 
Q 45.40625 18.265625 45.40625 27.984375 
z
M 54.390625 6.78125 
Q 54.390625 -7.171875 48.1875 -13.984375 
Q 42 -20.796875 29.203125 -20.796875 
Q 24.46875 -20.796875 20.265625 -20.09375 
Q 16.0625 -19.390625 12.109375 -17.921875 
L 12.109375 -9.1875 
Q 16.0625 -11.328125 19.921875 -12.34375 
Q 23.78125 -13.375 27.78125 -13.375 
Q 36.625 -13.375 41.015625 -8.765625 
Q 45.40625 -4.15625 45.40625 5.171875 
L 45.40625 9.625 
Q 42.625 4.78125 38.28125 2.390625 
Q 33.9375 0 27.875 0 
Q 17.828125 0 11.671875 7.65625 
Q 5.515625 15.328125 5.515625 27.984375 
Q 5.515625 40.671875 11.671875 48.328125 
Q 17.828125 56 27.875 56 
Q 33.9375 56 38.28125 53.609375 
Q 42.625 51.21875 45.40625 46.390625 
L 45.40625 54.6875 
L 54.390625 54.6875 
z
" id="DejaVuSans-103"/>
    </defs>
    <g transform="translate(263.772188 41.042625)scale(0.12 -0.12)">
     <use xlink:href="#DejaVuSans-98"/>
     <use x="63.476562" xlink:href="#DejaVuSans-111"/>
     <use x="124.658203" xlink:href="#DejaVuSans-97"/>
     <use x="185.9375" xlink:href="#DejaVuSans-116"/>
     <use x="225.146484" xlink:href="#DejaVuSans-58"/>
     <use x="258.837891" xlink:href="#DejaVuSans-32"/>
     <use x="290.625" xlink:href="#DejaVuSans-105"/>
     <use x="318.408203" xlink:href="#DejaVuSans-109"/>
     <use x="415.820312" xlink:href="#DejaVuSans-103"/>
     <use x="479.296875" xlink:href="#DejaVuSans-49"/>
     <use x="542.919922" xlink:href="#DejaVuSans-45"/>
     <use x="579.003906" xlink:href="#DejaVuSans-105"/>
     <use x="606.787109" xlink:href="#DejaVuSans-109"/>
     <use x="704.199219" xlink:href="#DejaVuSans-103"/>
     <use x="767.675781" xlink:href="#DejaVuSans-53"/>
    </g>
    <!-- NearestNeighbours -->
    <defs>
     <path d="M 9.8125 72.90625 
L 23.09375 72.90625 
L 55.421875 11.921875 
L 55.421875 72.90625 
L 64.984375 72.90625 
L 64.984375 0 
L 51.703125 0 
L 19.390625 60.984375 
L 19.390625 0 
L 9.8125 0 
z
" id="DejaVuSans-78"/>
     <path d="M 54.890625 33.015625 
L 54.890625 0 
L 45.90625 0 
L 45.90625 32.71875 
Q 45.90625 40.484375 42.875 44.328125 
Q 39.84375 48.1875 33.796875 48.1875 
Q 26.515625 48.1875 22.3125 43.546875 
Q 18.109375 38.921875 18.109375 30.90625 
L 18.109375 0 
L 9.078125 0 
L 9.078125 75.984375 
L 18.109375 75.984375 
L 18.109375 46.1875 
Q 21.34375 51.125 25.703125 53.5625 
Q 30.078125 56 35.796875 56 
Q 45.21875 56 50.046875 50.171875 
Q 54.890625 44.34375 54.890625 33.015625 
z
" id="DejaVuSans-104"/>
     <path d="M 8.5 21.578125 
L 8.5 54.6875 
L 17.484375 54.6875 
L 17.484375 21.921875 
Q 17.484375 14.15625 20.5 10.265625 
Q 23.53125 6.390625 29.59375 6.390625 
Q 36.859375 6.390625 41.078125 11.03125 
Q 45.3125 15.671875 45.3125 23.6875 
L 45.3125 54.6875 
L 54.296875 54.6875 
L 54.296875 0 
L 45.3125 0 
L 45.3125 8.40625 
Q 42.046875 3.421875 37.71875 1 
Q 33.40625 -1.421875 27.6875 -1.421875 
Q 18.265625 -1.421875 13.375 4.4375 
Q 8.5 10.296875 8.5 21.578125 
z
M 31.109375 56 
z
" id="DejaVuSans-117"/>
    </defs>
    <g transform="translate(255.824063 54.48)scale(0.12 -0.12)">
     <use xlink:href="#DejaVuSans-78"/>
     <use x="74.804688" xlink:href="#DejaVuSans-101"/>
     <use x="136.328125" xlink:href="#DejaVuSans-97"/>
     <use x="197.607422" xlink:href="#DejaVuSans-114"/>
     <use x="238.689453" xlink:href="#DejaVuSans-101"/>
     <use x="300.212891" xlink:href="#DejaVuSans-115"/>
     <use x="352.3125" xlink:href="#DejaVuSans-116"/>
     <use x="391.521484" xlink:href="#DejaVuSans-78"/>
     <use x="466.326172" xlink:href="#DejaVuSans-101"/>
     <use x="527.849609" xlink:href="#DejaVuSans-105"/>
     <use x="555.632812" xlink:href="#DejaVuSans-103"/>
     <use x="619.109375" xlink:href="#DejaVuSans-104"/>
     <use x="682.488281" xlink:href="#DejaVuSans-98"/>
     <use x="745.964844" xlink:href="#DejaVuSans-111"/>
     <use x="807.146484" xlink:href="#DejaVuSans-117"/>
     <use x="870.525391" xlink:href="#DejaVuSans-114"/>
     <use x="911.638672" xlink:href="#DejaVuSans-115"/>
    </g>
   </g>
   <g id="legend_1">
    <g id="patch_7">
     <path d="M 362.264063 112.514375 
L 543.8 112.514375 
Q 545.8 112.514375 545.8 110.514375 
L 545.8 67.48 
Q 545.8 65.48 543.8 65.48 
L 362.264063 65.48 
Q 360.264063 65.48 360.264063 67.48 
L 360.264063 110.514375 
Q 360.264063 112.514375 362.264063 112.514375 
z
" style="fill:#ffffff;opacity:0.8;stroke:#cccccc;stroke-linejoin:miter;"/>
    </g>
    <g id="line2d_48">
     <path d="M 364.264063 73.578438 
L 384.264063 73.578438 
" style="fill:none;stroke:#1f77b4;stroke-linecap:square;stroke-width:2;"/>
    </g>
    <g id="line2d_49"/>
    <g id="text_26">
     <!-- root-cvsift AP: 61.7, %In: 11.3 -->
     <defs>
      <path d="M 2.984375 54.6875 
L 12.5 54.6875 
L 29.59375 8.796875 
L 46.6875 54.6875 
L 56.203125 54.6875 
L 35.6875 0 
L 23.484375 0 
z
" id="DejaVuSans-118"/>
      <path d="M 37.109375 75.984375 
L 37.109375 68.5 
L 28.515625 68.5 
Q 23.6875 68.5 21.796875 66.546875 
Q 19.921875 64.59375 19.921875 59.515625 
L 19.921875 54.6875 
L 34.71875 54.6875 
L 34.71875 47.703125 
L 19.921875 47.703125 
L 19.921875 0 
L 10.890625 0 
L 10.890625 47.703125 
L 2.296875 47.703125 
L 2.296875 54.6875 
L 10.890625 54.6875 
L 10.890625 58.5 
Q 10.890625 67.625 15.140625 71.796875 
Q 19.390625 75.984375 28.609375 75.984375 
z
" id="DejaVuSans-102"/>
      <path d="M 34.1875 63.1875 
L 20.796875 26.90625 
L 47.609375 26.90625 
z
M 28.609375 72.90625 
L 39.796875 72.90625 
L 67.578125 0 
L 57.328125 0 
L 50.6875 18.703125 
L 17.828125 18.703125 
L 11.1875 0 
L 0.78125 0 
z
" id="DejaVuSans-65"/>
      <path d="M 19.671875 64.796875 
L 19.671875 37.40625 
L 32.078125 37.40625 
Q 38.96875 37.40625 42.71875 40.96875 
Q 46.484375 44.53125 46.484375 51.125 
Q 46.484375 57.671875 42.71875 61.234375 
Q 38.96875 64.796875 32.078125 64.796875 
z
M 9.8125 72.90625 
L 32.078125 72.90625 
Q 44.34375 72.90625 50.609375 67.359375 
Q 56.890625 61.8125 56.890625 51.125 
Q 56.890625 40.328125 50.609375 34.8125 
Q 44.34375 29.296875 32.078125 29.296875 
L 19.671875 29.296875 
L 19.671875 0 
L 9.8125 0 
z
" id="DejaVuSans-80"/>
      <path d="M 11.71875 12.40625 
L 22.015625 12.40625 
L 22.015625 4 
L 14.015625 -11.625 
L 7.71875 -11.625 
L 11.71875 4 
z
" id="DejaVuSans-44"/>
      <path d="M 72.703125 32.078125 
Q 68.453125 32.078125 66.03125 28.46875 
Q 63.625 24.859375 63.625 18.40625 
Q 63.625 12.0625 66.03125 8.421875 
Q 68.453125 4.78125 72.703125 4.78125 
Q 76.859375 4.78125 79.265625 8.421875 
Q 81.6875 12.0625 81.6875 18.40625 
Q 81.6875 24.8125 79.265625 28.4375 
Q 76.859375 32.078125 72.703125 32.078125 
z
M 72.703125 38.28125 
Q 80.421875 38.28125 84.953125 32.90625 
Q 89.5 27.546875 89.5 18.40625 
Q 89.5 9.28125 84.9375 3.921875 
Q 80.375 -1.421875 72.703125 -1.421875 
Q 64.890625 -1.421875 60.34375 3.921875 
Q 55.8125 9.28125 55.8125 18.40625 
Q 55.8125 27.59375 60.375 32.9375 
Q 64.9375 38.28125 72.703125 38.28125 
z
M 22.3125 68.015625 
Q 18.109375 68.015625 15.6875 64.375 
Q 13.28125 60.75 13.28125 54.390625 
Q 13.28125 47.953125 15.671875 44.328125 
Q 18.0625 40.71875 22.3125 40.71875 
Q 26.5625 40.71875 28.96875 44.328125 
Q 31.390625 47.953125 31.390625 54.390625 
Q 31.390625 60.6875 28.953125 64.34375 
Q 26.515625 68.015625 22.3125 68.015625 
z
M 66.40625 74.21875 
L 74.21875 74.21875 
L 28.609375 -1.421875 
L 20.796875 -1.421875 
z
M 22.3125 74.21875 
Q 30.03125 74.21875 34.609375 68.875 
Q 39.203125 63.53125 39.203125 54.390625 
Q 39.203125 45.171875 34.640625 39.84375 
Q 30.078125 34.515625 22.3125 34.515625 
Q 14.546875 34.515625 10.03125 39.859375 
Q 5.515625 45.21875 5.515625 54.390625 
Q 5.515625 63.484375 10.046875 68.84375 
Q 14.59375 74.21875 22.3125 74.21875 
z
" id="DejaVuSans-37"/>
      <path d="M 9.8125 72.90625 
L 19.671875 72.90625 
L 19.671875 0 
L 9.8125 0 
z
" id="DejaVuSans-73"/>
     </defs>
     <g transform="translate(392.264063 77.078438)scale(0.1 -0.1)">
      <use xlink:href="#DejaVuSans-114"/>
      <use x="41.082031" xlink:href="#DejaVuSans-111"/>
      <use x="102.263672" xlink:href="#DejaVuSans-111"/>
      <use x="163.445312" xlink:href="#DejaVuSans-116"/>
      <use x="202.654297" xlink:href="#DejaVuSans-45"/>
      <use x="238.738281" xlink:href="#DejaVuSans-99"/>
      <use x="293.71875" xlink:href="#DejaVuSans-118"/>
      <use x="352.898438" xlink:href="#DejaVuSans-115"/>
      <use x="404.998047" xlink:href="#DejaVuSans-105"/>
      <use x="432.78125" xlink:href="#DejaVuSans-102"/>
      <use x="467.970703" xlink:href="#DejaVuSans-116"/>
      <use x="507.179688" xlink:href="#DejaVuSans-32"/>
      <use x="538.966797" xlink:href="#DejaVuSans-65"/>
      <use x="607.375" xlink:href="#DejaVuSans-80"/>
      <use x="667.677734" xlink:href="#DejaVuSans-58"/>
      <use x="701.369141" xlink:href="#DejaVuSans-32"/>
      <use x="733.15625" xlink:href="#DejaVuSans-54"/>
      <use x="796.779297" xlink:href="#DejaVuSans-49"/>
      <use x="860.402344" xlink:href="#DejaVuSans-46"/>
      <use x="892.189453" xlink:href="#DejaVuSans-55"/>
      <use x="955.8125" xlink:href="#DejaVuSans-44"/>
      <use x="987.599609" xlink:href="#DejaVuSans-32"/>
      <use x="1019.386719" xlink:href="#DejaVuSans-37"/>
      <use x="1114.40625" xlink:href="#DejaVuSans-73"/>
      <use x="1143.898438" xlink:href="#DejaVuSans-110"/>
      <use x="1207.277344" xlink:href="#DejaVuSans-58"/>
      <use x="1240.96875" xlink:href="#DejaVuSans-32"/>
      <use x="1272.755859" xlink:href="#DejaVuSans-49"/>
      <use x="1336.378906" xlink:href="#DejaVuSans-49"/>
      <use x="1400.001953" xlink:href="#DejaVuSans-46"/>
      <use x="1431.789062" xlink:href="#DejaVuSans-51"/>
     </g>
    </g>
    <g id="line2d_50">
     <path d="M 364.264063 88.256563 
L 384.264063 88.256563 
" style="fill:none;stroke:#ff7f0e;stroke-linecap:square;stroke-width:2;"/>
    </g>
    <g id="line2d_51"/>
    <g id="text_27">
     <!-- tfeat AP: 25.1, %In: 7.3 -->
     <g transform="translate(392.264063 91.756563)scale(0.1 -0.1)">
      <use xlink:href="#DejaVuSans-116"/>
      <use x="39.208984" xlink:href="#DejaVuSans-102"/>
      <use x="74.414062" xlink:href="#DejaVuSans-101"/>
      <use x="135.9375" xlink:href="#DejaVuSans-97"/>
      <use x="197.216797" xlink:href="#DejaVuSans-116"/>
      <use x="236.425781" xlink:href="#DejaVuSans-32"/>
      <use x="268.212891" xlink:href="#DejaVuSans-65"/>
      <use x="336.621094" xlink:href="#DejaVuSans-80"/>
      <use x="396.923828" xlink:href="#DejaVuSans-58"/>
      <use x="430.615234" xlink:href="#DejaVuSans-32"/>
      <use x="462.402344" xlink:href="#DejaVuSans-50"/>
      <use x="526.025391" xlink:href="#DejaVuSans-53"/>
      <use x="589.648438" xlink:href="#DejaVuSans-46"/>
      <use x="621.435547" xlink:href="#DejaVuSans-49"/>
      <use x="685.058594" xlink:href="#DejaVuSans-44"/>
      <use x="716.845703" xlink:href="#DejaVuSans-32"/>
      <use x="748.632812" xlink:href="#DejaVuSans-37"/>
      <use x="843.652344" xlink:href="#DejaVuSans-73"/>
      <use x="873.144531" xlink:href="#DejaVuSans-110"/>
      <use x="936.523438" xlink:href="#DejaVuSans-58"/>
      <use x="970.214844" xlink:href="#DejaVuSans-32"/>
      <use x="1002.001953" xlink:href="#DejaVuSans-55"/>
      <use x="1065.625" xlink:href="#DejaVuSans-46"/>
      <use x="1097.412109" xlink:href="#DejaVuSans-51"/>
     </g>
    </g>
    <g id="line2d_52">
     <path d="M 364.264063 102.934687 
L 384.264063 102.934687 
" style="fill:none;stroke:#2ca02c;stroke-linecap:square;stroke-width:2;"/>
    </g>
    <g id="line2d_53"/>
    <g id="text_28">
     <!-- hardnet AP: 66.7, %In: 12.1 -->
     <defs>
      <path d="M 45.40625 46.390625 
L 45.40625 75.984375 
L 54.390625 75.984375 
L 54.390625 0 
L 45.40625 0 
L 45.40625 8.203125 
Q 42.578125 3.328125 38.25 0.953125 
Q 33.9375 -1.421875 27.875 -1.421875 
Q 17.96875 -1.421875 11.734375 6.484375 
Q 5.515625 14.40625 5.515625 27.296875 
Q 5.515625 40.1875 11.734375 48.09375 
Q 17.96875 56 27.875 56 
Q 33.9375 56 38.25 53.625 
Q 42.578125 51.265625 45.40625 46.390625 
z
M 14.796875 27.296875 
Q 14.796875 17.390625 18.875 11.75 
Q 22.953125 6.109375 30.078125 6.109375 
Q 37.203125 6.109375 41.296875 11.75 
Q 45.40625 17.390625 45.40625 27.296875 
Q 45.40625 37.203125 41.296875 42.84375 
Q 37.203125 48.484375 30.078125 48.484375 
Q 22.953125 48.484375 18.875 42.84375 
Q 14.796875 37.203125 14.796875 27.296875 
z
" id="DejaVuSans-100"/>
     </defs>
     <g transform="translate(392.264063 106.434687)scale(0.1 -0.1)">
      <use xlink:href="#DejaVuSans-104"/>
      <use x="63.378906" xlink:href="#DejaVuSans-97"/>
      <use x="124.658203" xlink:href="#DejaVuSans-114"/>
      <use x="165.755859" xlink:href="#DejaVuSans-100"/>
      <use x="229.232422" xlink:href="#DejaVuSans-110"/>
      <use x="292.611328" xlink:href="#DejaVuSans-101"/>
      <use x="354.134766" xlink:href="#DejaVuSans-116"/>
      <use x="393.34375" xlink:href="#DejaVuSans-32"/>
      <use x="425.130859" xlink:href="#DejaVuSans-65"/>
      <use x="493.539062" xlink:href="#DejaVuSans-80"/>
      <use x="553.841797" xlink:href="#DejaVuSans-58"/>
      <use x="587.533203" xlink:href="#DejaVuSans-32"/>
      <use x="619.320312" xlink:href="#DejaVuSans-54"/>
      <use x="682.943359" xlink:href="#DejaVuSans-54"/>
      <use x="746.566406" xlink:href="#DejaVuSans-46"/>
      <use x="778.353516" xlink:href="#DejaVuSans-55"/>
      <use x="841.976562" xlink:href="#DejaVuSans-44"/>
      <use x="873.763672" xlink:href="#DejaVuSans-32"/>
      <use x="905.550781" xlink:href="#DejaVuSans-37"/>
      <use x="1000.570312" xlink:href="#DejaVuSans-73"/>
      <use x="1030.0625" xlink:href="#DejaVuSans-110"/>
      <use x="1093.441406" xlink:href="#DejaVuSans-58"/>
      <use x="1127.132812" xlink:href="#DejaVuSans-32"/>
      <use x="1158.919922" xlink:href="#DejaVuSans-49"/>
      <use x="1222.542969" xlink:href="#DejaVuSans-50"/>
      <use x="1286.166016" xlink:href="#DejaVuSans-46"/>
      <use x="1317.953125" xlink:href="#DejaVuSans-49"/>
     </g>
    </g>
   </g>
  </g>
 </g>
 <defs>
  <clipPath id="pcdc89d1c58">
   <rect height="388.08" width="474.3" x="76.5" y="60.48"/>
  </clipPath>
 </defs>
</svg>
