<?xml version="1.0" encoding="utf-8" standalone="no"?>
<!DOCTYPE svg PUBLIC "-//W3C//DTD SVG 1.1//EN"
  "http://www.w3.org/Graphics/SVG/1.1/DTD/svg11.dtd">
<!-- Created with matplotlib (https://matplotlib.org/) -->
<svg height="504pt" version="1.1" viewBox="0 0 612 504" width="612pt" xmlns="http://www.w3.org/2000/svg" xmlns:xlink="http://www.w3.org/1999/xlink">
 <defs>
  <style type="text/css">
*{stroke-linecap:butt;stroke-linejoin:round;}
  </style>
 </defs>
 <g id="figure_1">
  <g id="patch_1">
   <path d="M 0 504 
L 612 504 
L 612 0 
L 0 0 
z
" style="fill:#ffffff;"/>
  </g>
  <g id="axes_1">
   <g id="patch_2">
    <path d="M 76.5 448.56 
L 550.8 448.56 
L 550.8 60.48 
L 76.5 60.48 
z
" style="fill:#ffffff;"/>
   </g>
   <g id="matplotlib.axis_1">
    <g id="xtick_1">
     <g id="line2d_1">
      <path clip-path="url(#pf3e64fba13)" d="M 76.5 448.56 
L 76.5 60.48 
" style="fill:none;stroke:#b0b0b0;stroke-linecap:square;stroke-width:0.8;"/>
     </g>
     <g id="line2d_2">
      <defs>
       <path d="M 0 0 
L 0 3.5 
" id="mb4435d6fde" style="stroke:#000000;stroke-width:0.8;"/>
      </defs>
      <g>
       <use style="stroke:#000000;stroke-width:0.8;" x="76.5" xlink:href="#mb4435d6fde" y="448.56"/>
      </g>
     </g>
     <g id="text_1">
      <!-- 0.0 -->
      <defs>
       <path d="M 31.78125 66.40625 
Q 24.171875 66.40625 20.328125 58.90625 
Q 16.5 51.421875 16.5 36.375 
Q 16.5 21.390625 20.328125 13.890625 
Q 24.171875 6.390625 31.78125 6.390625 
Q 39.453125 6.390625 43.28125 13.890625 
Q 47.125 21.390625 47.125 36.375 
Q 47.125 51.421875 43.28125 58.90625 
Q 39.453125 66.40625 31.78125 66.40625 
z
M 31.78125 74.21875 
Q 44.046875 74.21875 50.515625 64.515625 
Q 56.984375 54.828125 56.984375 36.375 
Q 56.984375 17.96875 50.515625 8.265625 
Q 44.046875 -1.421875 31.78125 -1.421875 
Q 19.53125 -1.421875 13.0625 8.265625 
Q 6.59375 17.96875 6.59375 36.375 
Q 6.59375 54.828125 13.0625 64.515625 
Q 19.53125 74.21875 31.78125 74.21875 
z
" id="DejaVuSans-48"/>
       <path d="M 10.6875 12.40625 
L 21 12.40625 
L 21 0 
L 10.6875 0 
z
" id="DejaVuSans-46"/>
      </defs>
      <g transform="translate(68.548438 463.158437)scale(0.1 -0.1)">
       <use xlink:href="#DejaVuSans-48"/>
       <use x="63.623047" xlink:href="#DejaVuSans-46"/>
       <use x="95.410156" xlink:href="#DejaVuSans-48"/>
      </g>
     </g>
    </g>
    <g id="xtick_2">
     <g id="line2d_3">
      <path clip-path="url(#pf3e64fba13)" d="M 123.93 448.56 
L 123.93 60.48 
" style="fill:none;stroke:#b0b0b0;stroke-linecap:square;stroke-width:0.8;"/>
     </g>
     <g id="line2d_4">
      <g>
       <use style="stroke:#000000;stroke-width:0.8;" x="123.93" xlink:href="#mb4435d6fde" y="448.56"/>
      </g>
     </g>
     <g id="text_2">
      <!-- 0.1 -->
      <defs>
       <path d="M 12.40625 8.296875 
L 28.515625 8.296875 
L 28.515625 63.921875 
L 10.984375 60.40625 
L 10.984375 69.390625 
L 28.421875 72.90625 
L 38.28125 72.90625 
L 38.28125 8.296875 
L 54.390625 8.296875 
L 54.390625 0 
L 12.40625 0 
z
" id="DejaVuSans-49"/>
      </defs>
      <g transform="translate(115.978438 463.158437)scale(0.1 -0.1)">
       <use xlink:href="#DejaVuSans-48"/>
       <use x="63.623047" xlink:href="#DejaVuSans-46"/>
       <use x="95.410156" xlink:href="#DejaVuSans-49"/>
      </g>
     </g>
    </g>
    <g id="xtick_3">
     <g id="line2d_5">
      <path clip-path="url(#pf3e64fba13)" d="M 171.36 448.56 
L 171.36 60.48 
" style="fill:none;stroke:#b0b0b0;stroke-linecap:square;stroke-width:0.8;"/>
     </g>
     <g id="line2d_6">
      <g>
       <use style="stroke:#000000;stroke-width:0.8;" x="171.36" xlink:href="#mb4435d6fde" y="448.56"/>
      </g>
     </g>
     <g id="text_3">
      <!-- 0.2 -->
      <defs>
       <path d="M 19.1875 8.296875 
L 53.609375 8.296875 
L 53.609375 0 
L 7.328125 0 
L 7.328125 8.296875 
Q 12.9375 14.109375 22.625 23.890625 
Q 32.328125 33.6875 34.8125 36.53125 
Q 39.546875 41.84375 41.421875 45.53125 
Q 43.3125 49.21875 43.3125 52.78125 
Q 43.3125 58.59375 39.234375 62.25 
Q 35.15625 65.921875 28.609375 65.921875 
Q 23.96875 65.921875 18.8125 64.3125 
Q 13.671875 62.703125 7.8125 59.421875 
L 7.8125 69.390625 
Q 13.765625 71.78125 18.9375 73 
Q 24.125 74.21875 28.421875 74.21875 
Q 39.75 74.21875 46.484375 68.546875 
Q 53.21875 62.890625 53.21875 53.421875 
Q 53.21875 48.921875 51.53125 44.890625 
Q 49.859375 40.875 45.40625 35.40625 
Q 44.1875 33.984375 37.640625 27.21875 
Q 31.109375 20.453125 19.1875 8.296875 
z
" id="DejaVuSans-50"/>
      </defs>
      <g transform="translate(163.408438 463.158437)scale(0.1 -0.1)">
       <use xlink:href="#DejaVuSans-48"/>
       <use x="63.623047" xlink:href="#DejaVuSans-46"/>
       <use x="95.410156" xlink:href="#DejaVuSans-50"/>
      </g>
     </g>
    </g>
    <g id="xtick_4">
     <g id="line2d_7">
      <path clip-path="url(#pf3e64fba13)" d="M 218.79 448.56 
L 218.79 60.48 
" style="fill:none;stroke:#b0b0b0;stroke-linecap:square;stroke-width:0.8;"/>
     </g>
     <g id="line2d_8">
      <g>
       <use style="stroke:#000000;stroke-width:0.8;" x="218.79" xlink:href="#mb4435d6fde" y="448.56"/>
      </g>
     </g>
     <g id="text_4">
      <!-- 0.3 -->
      <defs>
       <path d="M 40.578125 39.3125 
Q 47.65625 37.796875 51.625 33 
Q 55.609375 28.21875 55.609375 21.1875 
Q 55.609375 10.40625 48.1875 4.484375 
Q 40.765625 -1.421875 27.09375 -1.421875 
Q 22.515625 -1.421875 17.65625 -0.515625 
Q 12.796875 0.390625 7.625 2.203125 
L 7.625 11.71875 
Q 11.71875 9.328125 16.59375 8.109375 
Q 21.484375 6.890625 26.8125 6.890625 
Q 36.078125 6.890625 40.9375 10.546875 
Q 45.796875 14.203125 45.796875 21.1875 
Q 45.796875 27.640625 41.28125 31.265625 
Q 36.765625 34.90625 28.71875 34.90625 
L 20.21875 34.90625 
L 20.21875 43.015625 
L 29.109375 43.015625 
Q 36.375 43.015625 40.234375 45.921875 
Q 44.09375 48.828125 44.09375 54.296875 
Q 44.09375 59.90625 40.109375 62.90625 
Q 36.140625 65.921875 28.71875 65.921875 
Q 24.65625 65.921875 20.015625 65.03125 
Q 15.375 64.15625 9.8125 62.3125 
L 9.8125 71.09375 
Q 15.4375 72.65625 20.34375 73.4375 
Q 25.25 74.21875 29.59375 74.21875 
Q 40.828125 74.21875 47.359375 69.109375 
Q 53.90625 64.015625 53.90625 55.328125 
Q 53.90625 49.265625 50.4375 45.09375 
Q 46.96875 40.921875 40.578125 39.3125 
z
" id="DejaVuSans-51"/>
      </defs>
      <g transform="translate(210.838438 463.158437)scale(0.1 -0.1)">
       <use xlink:href="#DejaVuSans-48"/>
       <use x="63.623047" xlink:href="#DejaVuSans-46"/>
       <use x="95.410156" xlink:href="#DejaVuSans-51"/>
      </g>
     </g>
    </g>
    <g id="xtick_5">
     <g id="line2d_9">
      <path clip-path="url(#pf3e64fba13)" d="M 266.22 448.56 
L 266.22 60.48 
" style="fill:none;stroke:#b0b0b0;stroke-linecap:square;stroke-width:0.8;"/>
     </g>
     <g id="line2d_10">
      <g>
       <use style="stroke:#000000;stroke-width:0.8;" x="266.22" xlink:href="#mb4435d6fde" y="448.56"/>
      </g>
     </g>
     <g id="text_5">
      <!-- 0.4 -->
      <defs>
       <path d="M 37.796875 64.3125 
L 12.890625 25.390625 
L 37.796875 25.390625 
z
M 35.203125 72.90625 
L 47.609375 72.90625 
L 47.609375 25.390625 
L 58.015625 25.390625 
L 58.015625 17.1875 
L 47.609375 17.1875 
L 47.609375 0 
L 37.796875 0 
L 37.796875 17.1875 
L 4.890625 17.1875 
L 4.890625 26.703125 
z
" id="DejaVuSans-52"/>
      </defs>
      <g transform="translate(258.268438 463.158437)scale(0.1 -0.1)">
       <use xlink:href="#DejaVuSans-48"/>
       <use x="63.623047" xlink:href="#DejaVuSans-46"/>
       <use x="95.410156" xlink:href="#DejaVuSans-52"/>
      </g>
     </g>
    </g>
    <g id="xtick_6">
     <g id="line2d_11">
      <path clip-path="url(#pf3e64fba13)" d="M 313.65 448.56 
L 313.65 60.48 
" style="fill:none;stroke:#b0b0b0;stroke-linecap:square;stroke-width:0.8;"/>
     </g>
     <g id="line2d_12">
      <g>
       <use style="stroke:#000000;stroke-width:0.8;" x="313.65" xlink:href="#mb4435d6fde" y="448.56"/>
      </g>
     </g>
     <g id="text_6">
      <!-- 0.5 -->
      <defs>
       <path d="M 10.796875 72.90625 
L 49.515625 72.90625 
L 49.515625 64.59375 
L 19.828125 64.59375 
L 19.828125 46.734375 
Q 21.96875 47.46875 24.109375 47.828125 
Q 26.265625 48.1875 28.421875 48.1875 
Q 40.625 48.1875 47.75 41.5 
Q 54.890625 34.8125 54.890625 23.390625 
Q 54.890625 11.625 47.5625 5.09375 
Q 40.234375 -1.421875 26.90625 -1.421875 
Q 22.3125 -1.421875 17.546875 -0.640625 
Q 12.796875 0.140625 7.71875 1.703125 
L 7.71875 11.625 
Q 12.109375 9.234375 16.796875 8.0625 
Q 21.484375 6.890625 26.703125 6.890625 
Q 35.15625 6.890625 40.078125 11.328125 
Q 45.015625 15.765625 45.015625 23.390625 
Q 45.015625 31 40.078125 35.4375 
Q 35.15625 39.890625 26.703125 39.890625 
Q 22.75 39.890625 18.8125 39.015625 
Q 14.890625 38.140625 10.796875 36.28125 
z
" id="DejaVuSans-53"/>
      </defs>
      <g transform="translate(305.698438 463.158437)scale(0.1 -0.1)">
       <use xlink:href="#DejaVuSans-48"/>
       <use x="63.623047" xlink:href="#DejaVuSans-46"/>
       <use x="95.410156" xlink:href="#DejaVuSans-53"/>
      </g>
     </g>
    </g>
    <g id="xtick_7">
     <g id="line2d_13">
      <path clip-path="url(#pf3e64fba13)" d="M 361.08 448.56 
L 361.08 60.48 
" style="fill:none;stroke:#b0b0b0;stroke-linecap:square;stroke-width:0.8;"/>
     </g>
     <g id="line2d_14">
      <g>
       <use style="stroke:#000000;stroke-width:0.8;" x="361.08" xlink:href="#mb4435d6fde" y="448.56"/>
      </g>
     </g>
     <g id="text_7">
      <!-- 0.6 -->
      <defs>
       <path d="M 33.015625 40.375 
Q 26.375 40.375 22.484375 35.828125 
Q 18.609375 31.296875 18.609375 23.390625 
Q 18.609375 15.53125 22.484375 10.953125 
Q 26.375 6.390625 33.015625 6.390625 
Q 39.65625 6.390625 43.53125 10.953125 
Q 47.40625 15.53125 47.40625 23.390625 
Q 47.40625 31.296875 43.53125 35.828125 
Q 39.65625 40.375 33.015625 40.375 
z
M 52.59375 71.296875 
L 52.59375 62.3125 
Q 48.875 64.0625 45.09375 64.984375 
Q 41.3125 65.921875 37.59375 65.921875 
Q 27.828125 65.921875 22.671875 59.328125 
Q 17.53125 52.734375 16.796875 39.40625 
Q 19.671875 43.65625 24.015625 45.921875 
Q 28.375 48.1875 33.59375 48.1875 
Q 44.578125 48.1875 50.953125 41.515625 
Q 57.328125 34.859375 57.328125 23.390625 
Q 57.328125 12.15625 50.6875 5.359375 
Q 44.046875 -1.421875 33.015625 -1.421875 
Q 20.359375 -1.421875 13.671875 8.265625 
Q 6.984375 17.96875 6.984375 36.375 
Q 6.984375 53.65625 15.1875 63.9375 
Q 23.390625 74.21875 37.203125 74.21875 
Q 40.921875 74.21875 44.703125 73.484375 
Q 48.484375 72.75 52.59375 71.296875 
z
" id="DejaVuSans-54"/>
      </defs>
      <g transform="translate(353.128438 463.158437)scale(0.1 -0.1)">
       <use xlink:href="#DejaVuSans-48"/>
       <use x="63.623047" xlink:href="#DejaVuSans-46"/>
       <use x="95.410156" xlink:href="#DejaVuSans-54"/>
      </g>
     </g>
    </g>
    <g id="xtick_8">
     <g id="line2d_15">
      <path clip-path="url(#pf3e64fba13)" d="M 408.51 448.56 
L 408.51 60.48 
" style="fill:none;stroke:#b0b0b0;stroke-linecap:square;stroke-width:0.8;"/>
     </g>
     <g id="line2d_16">
      <g>
       <use style="stroke:#000000;stroke-width:0.8;" x="408.51" xlink:href="#mb4435d6fde" y="448.56"/>
      </g>
     </g>
     <g id="text_8">
      <!-- 0.7 -->
      <defs>
       <path d="M 8.203125 72.90625 
L 55.078125 72.90625 
L 55.078125 68.703125 
L 28.609375 0 
L 18.3125 0 
L 43.21875 64.59375 
L 8.203125 64.59375 
z
" id="DejaVuSans-55"/>
      </defs>
      <g transform="translate(400.558438 463.158437)scale(0.1 -0.1)">
       <use xlink:href="#DejaVuSans-48"/>
       <use x="63.623047" xlink:href="#DejaVuSans-46"/>
       <use x="95.410156" xlink:href="#DejaVuSans-55"/>
      </g>
     </g>
    </g>
    <g id="xtick_9">
     <g id="line2d_17">
      <path clip-path="url(#pf3e64fba13)" d="M 455.94 448.56 
L 455.94 60.48 
" style="fill:none;stroke:#b0b0b0;stroke-linecap:square;stroke-width:0.8;"/>
     </g>
     <g id="line2d_18">
      <g>
       <use style="stroke:#000000;stroke-width:0.8;" x="455.94" xlink:href="#mb4435d6fde" y="448.56"/>
      </g>
     </g>
     <g id="text_9">
      <!-- 0.8 -->
      <defs>
       <path d="M 31.78125 34.625 
Q 24.75 34.625 20.71875 30.859375 
Q 16.703125 27.09375 16.703125 20.515625 
Q 16.703125 13.921875 20.71875 10.15625 
Q 24.75 6.390625 31.78125 6.390625 
Q 38.8125 6.390625 42.859375 10.171875 
Q 46.921875 13.96875 46.921875 20.515625 
Q 46.921875 27.09375 42.890625 30.859375 
Q 38.875 34.625 31.78125 34.625 
z
M 21.921875 38.8125 
Q 15.578125 40.375 12.03125 44.71875 
Q 8.5 49.078125 8.5 55.328125 
Q 8.5 64.0625 14.71875 69.140625 
Q 20.953125 74.21875 31.78125 74.21875 
Q 42.671875 74.21875 48.875 69.140625 
Q 55.078125 64.0625 55.078125 55.328125 
Q 55.078125 49.078125 51.53125 44.71875 
Q 48 40.375 41.703125 38.8125 
Q 48.828125 37.15625 52.796875 32.3125 
Q 56.78125 27.484375 56.78125 20.515625 
Q 56.78125 9.90625 50.3125 4.234375 
Q 43.84375 -1.421875 31.78125 -1.421875 
Q 19.734375 -1.421875 13.25 4.234375 
Q 6.78125 9.90625 6.78125 20.515625 
Q 6.78125 27.484375 10.78125 32.3125 
Q 14.796875 37.15625 21.921875 38.8125 
z
M 18.3125 54.390625 
Q 18.3125 48.734375 21.84375 45.5625 
Q 25.390625 42.390625 31.78125 42.390625 
Q 38.140625 42.390625 41.71875 45.5625 
Q 45.3125 48.734375 45.3125 54.390625 
Q 45.3125 60.0625 41.71875 63.234375 
Q 38.140625 66.40625 31.78125 66.40625 
Q 25.390625 66.40625 21.84375 63.234375 
Q 18.3125 60.0625 18.3125 54.390625 
z
" id="DejaVuSans-56"/>
      </defs>
      <g transform="translate(447.988438 463.158437)scale(0.1 -0.1)">
       <use xlink:href="#DejaVuSans-48"/>
       <use x="63.623047" xlink:href="#DejaVuSans-46"/>
       <use x="95.410156" xlink:href="#DejaVuSans-56"/>
      </g>
     </g>
    </g>
    <g id="xtick_10">
     <g id="line2d_19">
      <path clip-path="url(#pf3e64fba13)" d="M 503.37 448.56 
L 503.37 60.48 
" style="fill:none;stroke:#b0b0b0;stroke-linecap:square;stroke-width:0.8;"/>
     </g>
     <g id="line2d_20">
      <g>
       <use style="stroke:#000000;stroke-width:0.8;" x="503.37" xlink:href="#mb4435d6fde" y="448.56"/>
      </g>
     </g>
     <g id="text_10">
      <!-- 0.9 -->
      <defs>
       <path d="M 10.984375 1.515625 
L 10.984375 10.5 
Q 14.703125 8.734375 18.5 7.8125 
Q 22.3125 6.890625 25.984375 6.890625 
Q 35.75 6.890625 40.890625 13.453125 
Q 46.046875 20.015625 46.78125 33.40625 
Q 43.953125 29.203125 39.59375 26.953125 
Q 35.25 24.703125 29.984375 24.703125 
Q 19.046875 24.703125 12.671875 31.3125 
Q 6.296875 37.9375 6.296875 49.421875 
Q 6.296875 60.640625 12.9375 67.421875 
Q 19.578125 74.21875 30.609375 74.21875 
Q 43.265625 74.21875 49.921875 64.515625 
Q 56.59375 54.828125 56.59375 36.375 
Q 56.59375 19.140625 48.40625 8.859375 
Q 40.234375 -1.421875 26.421875 -1.421875 
Q 22.703125 -1.421875 18.890625 -0.6875 
Q 15.09375 0.046875 10.984375 1.515625 
z
M 30.609375 32.421875 
Q 37.25 32.421875 41.125 36.953125 
Q 45.015625 41.5 45.015625 49.421875 
Q 45.015625 57.28125 41.125 61.84375 
Q 37.25 66.40625 30.609375 66.40625 
Q 23.96875 66.40625 20.09375 61.84375 
Q 16.21875 57.28125 16.21875 49.421875 
Q 16.21875 41.5 20.09375 36.953125 
Q 23.96875 32.421875 30.609375 32.421875 
z
" id="DejaVuSans-57"/>
      </defs>
      <g transform="translate(495.418438 463.158437)scale(0.1 -0.1)">
       <use xlink:href="#DejaVuSans-48"/>
       <use x="63.623047" xlink:href="#DejaVuSans-46"/>
       <use x="95.410156" xlink:href="#DejaVuSans-57"/>
      </g>
     </g>
    </g>
    <g id="xtick_11">
     <g id="line2d_21">
      <path clip-path="url(#pf3e64fba13)" d="M 550.8 448.56 
L 550.8 60.48 
" style="fill:none;stroke:#b0b0b0;stroke-linecap:square;stroke-width:0.8;"/>
     </g>
     <g id="line2d_22">
      <g>
       <use style="stroke:#000000;stroke-width:0.8;" x="550.8" xlink:href="#mb4435d6fde" y="448.56"/>
      </g>
     </g>
     <g id="text_11">
      <!-- 1.0 -->
      <g transform="translate(542.848438 463.158437)scale(0.1 -0.1)">
       <use xlink:href="#DejaVuSans-49"/>
       <use x="63.623047" xlink:href="#DejaVuSans-46"/>
       <use x="95.410156" xlink:href="#DejaVuSans-48"/>
      </g>
     </g>
    </g>
    <g id="text_12">
     <!-- 1-precision -->
     <defs>
      <path d="M 4.890625 31.390625 
L 31.203125 31.390625 
L 31.203125 23.390625 
L 4.890625 23.390625 
z
" id="DejaVuSans-45"/>
      <path d="M 18.109375 8.203125 
L 18.109375 -20.796875 
L 9.078125 -20.796875 
L 9.078125 54.6875 
L 18.109375 54.6875 
L 18.109375 46.390625 
Q 20.953125 51.265625 25.265625 53.625 
Q 29.59375 56 35.59375 56 
Q 45.5625 56 51.78125 48.09375 
Q 58.015625 40.1875 58.015625 27.296875 
Q 58.015625 14.40625 51.78125 6.484375 
Q 45.5625 -1.421875 35.59375 -1.421875 
Q 29.59375 -1.421875 25.265625 0.953125 
Q 20.953125 3.328125 18.109375 8.203125 
z
M 48.6875 27.296875 
Q 48.6875 37.203125 44.609375 42.84375 
Q 40.53125 48.484375 33.40625 48.484375 
Q 26.265625 48.484375 22.1875 42.84375 
Q 18.109375 37.203125 18.109375 27.296875 
Q 18.109375 17.390625 22.1875 11.75 
Q 26.265625 6.109375 33.40625 6.109375 
Q 40.53125 6.109375 44.609375 11.75 
Q 48.6875 17.390625 48.6875 27.296875 
z
" id="DejaVuSans-112"/>
      <path d="M 41.109375 46.296875 
Q 39.59375 47.171875 37.8125 47.578125 
Q 36.03125 48 33.890625 48 
Q 26.265625 48 22.1875 43.046875 
Q 18.109375 38.09375 18.109375 28.8125 
L 18.109375 0 
L 9.078125 0 
L 9.078125 54.6875 
L 18.109375 54.6875 
L 18.109375 46.1875 
Q 20.953125 51.171875 25.484375 53.578125 
Q 30.03125 56 36.53125 56 
Q 37.453125 56 38.578125 55.875 
Q 39.703125 55.765625 41.0625 55.515625 
z
" id="DejaVuSans-114"/>
      <path d="M 56.203125 29.59375 
L 56.203125 25.203125 
L 14.890625 25.203125 
Q 15.484375 15.921875 20.484375 11.0625 
Q 25.484375 6.203125 34.421875 6.203125 
Q 39.59375 6.203125 44.453125 7.46875 
Q 49.3125 8.734375 54.109375 11.28125 
L 54.109375 2.78125 
Q 49.265625 0.734375 44.1875 -0.34375 
Q 39.109375 -1.421875 33.890625 -1.421875 
Q 20.796875 -1.421875 13.15625 6.1875 
Q 5.515625 13.8125 5.515625 26.8125 
Q 5.515625 40.234375 12.765625 48.109375 
Q 20.015625 56 32.328125 56 
Q 43.359375 56 49.78125 48.890625 
Q 56.203125 41.796875 56.203125 29.59375 
z
M 47.21875 32.234375 
Q 47.125 39.59375 43.09375 43.984375 
Q 39.0625 48.390625 32.421875 48.390625 
Q 24.90625 48.390625 20.390625 44.140625 
Q 15.875 39.890625 15.1875 32.171875 
z
" id="DejaVuSans-101"/>
      <path d="M 48.78125 52.59375 
L 48.78125 44.1875 
Q 44.96875 46.296875 41.140625 47.34375 
Q 37.3125 48.390625 33.40625 48.390625 
Q 24.65625 48.390625 19.8125 42.84375 
Q 14.984375 37.3125 14.984375 27.296875 
Q 14.984375 17.28125 19.8125 11.734375 
Q 24.65625 6.203125 33.40625 6.203125 
Q 37.3125 6.203125 41.140625 7.25 
Q 44.96875 8.296875 48.78125 10.40625 
L 48.78125 2.09375 
Q 45.015625 0.34375 40.984375 -0.53125 
Q 36.96875 -1.421875 32.421875 -1.421875 
Q 20.0625 -1.421875 12.78125 6.34375 
Q 5.515625 14.109375 5.515625 27.296875 
Q 5.515625 40.671875 12.859375 48.328125 
Q 20.21875 56 33.015625 56 
Q 37.15625 56 41.109375 55.140625 
Q 45.0625 54.296875 48.78125 52.59375 
z
" id="DejaVuSans-99"/>
      <path d="M 9.421875 54.6875 
L 18.40625 54.6875 
L 18.40625 0 
L 9.421875 0 
z
M 9.421875 75.984375 
L 18.40625 75.984375 
L 18.40625 64.59375 
L 9.421875 64.59375 
z
" id="DejaVuSans-105"/>
      <path d="M 44.28125 53.078125 
L 44.28125 44.578125 
Q 40.484375 46.53125 36.375 47.5 
Q 32.28125 48.484375 27.875 48.484375 
Q 21.1875 48.484375 17.84375 46.4375 
Q 14.5 44.390625 14.5 40.28125 
Q 14.5 37.15625 16.890625 35.375 
Q 19.28125 33.59375 26.515625 31.984375 
L 29.59375 31.296875 
Q 39.15625 29.25 43.1875 25.515625 
Q 47.21875 21.78125 47.21875 15.09375 
Q 47.21875 7.46875 41.1875 3.015625 
Q 35.15625 -1.421875 24.609375 -1.421875 
Q 20.21875 -1.421875 15.453125 -0.5625 
Q 10.6875 0.296875 5.421875 2 
L 5.421875 11.28125 
Q 10.40625 8.6875 15.234375 7.390625 
Q 20.0625 6.109375 24.8125 6.109375 
Q 31.15625 6.109375 34.5625 8.28125 
Q 37.984375 10.453125 37.984375 14.40625 
Q 37.984375 18.0625 35.515625 20.015625 
Q 33.0625 21.96875 24.703125 23.78125 
L 21.578125 24.515625 
Q 13.234375 26.265625 9.515625 29.90625 
Q 5.8125 33.546875 5.8125 39.890625 
Q 5.8125 47.609375 11.28125 51.796875 
Q 16.75 56 26.8125 56 
Q 31.78125 56 36.171875 55.265625 
Q 40.578125 54.546875 44.28125 53.078125 
z
" id="DejaVuSans-115"/>
      <path d="M 30.609375 48.390625 
Q 23.390625 48.390625 19.1875 42.75 
Q 14.984375 37.109375 14.984375 27.296875 
Q 14.984375 17.484375 19.15625 11.84375 
Q 23.34375 6.203125 30.609375 6.203125 
Q 37.796875 6.203125 41.984375 11.859375 
Q 46.1875 17.53125 46.1875 27.296875 
Q 46.1875 37.015625 41.984375 42.703125 
Q 37.796875 48.390625 30.609375 48.390625 
z
M 30.609375 56 
Q 42.328125 56 49.015625 48.375 
Q 55.71875 40.765625 55.71875 27.296875 
Q 55.71875 13.875 49.015625 6.21875 
Q 42.328125 -1.421875 30.609375 -1.421875 
Q 18.84375 -1.421875 12.171875 6.21875 
Q 5.515625 13.875 5.515625 27.296875 
Q 5.515625 40.765625 12.171875 48.375 
Q 18.84375 56 30.609375 56 
z
" id="DejaVuSans-111"/>
      <path d="M 54.890625 33.015625 
L 54.890625 0 
L 45.90625 0 
L 45.90625 32.71875 
Q 45.90625 40.484375 42.875 44.328125 
Q 39.84375 48.1875 33.796875 48.1875 
Q 26.515625 48.1875 22.3125 43.546875 
Q 18.109375 38.921875 18.109375 30.90625 
L 18.109375 0 
L 9.078125 0 
L 9.078125 54.6875 
L 18.109375 54.6875 
L 18.109375 46.1875 
Q 21.34375 51.125 25.703125 53.5625 
Q 30.078125 56 35.796875 56 
Q 45.21875 56 50.046875 50.171875 
Q 54.890625 44.34375 54.890625 33.015625 
z
" id="DejaVuSans-110"/>
     </defs>
     <g transform="translate(286 476.836563)scale(0.1 -0.1)">
      <use xlink:href="#DejaVuSans-49"/>
      <use x="63.623047" xlink:href="#DejaVuSans-45"/>
      <use x="99.707031" xlink:href="#DejaVuSans-112"/>
      <use x="163.183594" xlink:href="#DejaVuSans-114"/>
      <use x="204.265625" xlink:href="#DejaVuSans-101"/>
      <use x="265.789062" xlink:href="#DejaVuSans-99"/>
      <use x="320.769531" xlink:href="#DejaVuSans-105"/>
      <use x="348.552734" xlink:href="#DejaVuSans-115"/>
      <use x="400.652344" xlink:href="#DejaVuSans-105"/>
      <use x="428.435547" xlink:href="#DejaVuSans-111"/>
      <use x="489.617188" xlink:href="#DejaVuSans-110"/>
     </g>
    </g>
   </g>
   <g id="matplotlib.axis_2">
    <g id="ytick_1">
     <g id="line2d_23">
      <path clip-path="url(#pf3e64fba13)" d="M 76.5 448.56 
L 550.8 448.56 
" style="fill:none;stroke:#b0b0b0;stroke-linecap:square;stroke-width:0.8;"/>
     </g>
     <g id="line2d_24">
      <defs>
       <path d="M 0 0 
L -3.5 0 
" id="m85187be3fb" style="stroke:#000000;stroke-width:0.8;"/>
      </defs>
      <g>
       <use style="stroke:#000000;stroke-width:0.8;" x="76.5" xlink:href="#m85187be3fb" y="448.56"/>
      </g>
     </g>
     <g id="text_13">
      <!-- 0.0 -->
      <g transform="translate(53.596875 452.359219)scale(0.1 -0.1)">
       <use xlink:href="#DejaVuSans-48"/>
       <use x="63.623047" xlink:href="#DejaVuSans-46"/>
       <use x="95.410156" xlink:href="#DejaVuSans-48"/>
      </g>
     </g>
    </g>
    <g id="ytick_2">
     <g id="line2d_25">
      <path clip-path="url(#pf3e64fba13)" d="M 76.5 409.752 
L 550.8 409.752 
" style="fill:none;stroke:#b0b0b0;stroke-linecap:square;stroke-width:0.8;"/>
     </g>
     <g id="line2d_26">
      <g>
       <use style="stroke:#000000;stroke-width:0.8;" x="76.5" xlink:href="#m85187be3fb" y="409.752"/>
      </g>
     </g>
     <g id="text_14">
      <!-- 0.1 -->
      <g transform="translate(53.596875 413.551219)scale(0.1 -0.1)">
       <use xlink:href="#DejaVuSans-48"/>
       <use x="63.623047" xlink:href="#DejaVuSans-46"/>
       <use x="95.410156" xlink:href="#DejaVuSans-49"/>
      </g>
     </g>
    </g>
    <g id="ytick_3">
     <g id="line2d_27">
      <path clip-path="url(#pf3e64fba13)" d="M 76.5 370.944 
L 550.8 370.944 
" style="fill:none;stroke:#b0b0b0;stroke-linecap:square;stroke-width:0.8;"/>
     </g>
     <g id="line2d_28">
      <g>
       <use style="stroke:#000000;stroke-width:0.8;" x="76.5" xlink:href="#m85187be3fb" y="370.944"/>
      </g>
     </g>
     <g id="text_15">
      <!-- 0.2 -->
      <g transform="translate(53.596875 374.743219)scale(0.1 -0.1)">
       <use xlink:href="#DejaVuSans-48"/>
       <use x="63.623047" xlink:href="#DejaVuSans-46"/>
       <use x="95.410156" xlink:href="#DejaVuSans-50"/>
      </g>
     </g>
    </g>
    <g id="ytick_4">
     <g id="line2d_29">
      <path clip-path="url(#pf3e64fba13)" d="M 76.5 332.136 
L 550.8 332.136 
" style="fill:none;stroke:#b0b0b0;stroke-linecap:square;stroke-width:0.8;"/>
     </g>
     <g id="line2d_30">
      <g>
       <use style="stroke:#000000;stroke-width:0.8;" x="76.5" xlink:href="#m85187be3fb" y="332.136"/>
      </g>
     </g>
     <g id="text_16">
      <!-- 0.3 -->
      <g transform="translate(53.596875 335.935219)scale(0.1 -0.1)">
       <use xlink:href="#DejaVuSans-48"/>
       <use x="63.623047" xlink:href="#DejaVuSans-46"/>
       <use x="95.410156" xlink:href="#DejaVuSans-51"/>
      </g>
     </g>
    </g>
    <g id="ytick_5">
     <g id="line2d_31">
      <path clip-path="url(#pf3e64fba13)" d="M 76.5 293.328 
L 550.8 293.328 
" style="fill:none;stroke:#b0b0b0;stroke-linecap:square;stroke-width:0.8;"/>
     </g>
     <g id="line2d_32">
      <g>
       <use style="stroke:#000000;stroke-width:0.8;" x="76.5" xlink:href="#m85187be3fb" y="293.328"/>
      </g>
     </g>
     <g id="text_17">
      <!-- 0.4 -->
      <g transform="translate(53.596875 297.127219)scale(0.1 -0.1)">
       <use xlink:href="#DejaVuSans-48"/>
       <use x="63.623047" xlink:href="#DejaVuSans-46"/>
       <use x="95.410156" xlink:href="#DejaVuSans-52"/>
      </g>
     </g>
    </g>
    <g id="ytick_6">
     <g id="line2d_33">
      <path clip-path="url(#pf3e64fba13)" d="M 76.5 254.52 
L 550.8 254.52 
" style="fill:none;stroke:#b0b0b0;stroke-linecap:square;stroke-width:0.8;"/>
     </g>
     <g id="line2d_34">
      <g>
       <use style="stroke:#000000;stroke-width:0.8;" x="76.5" xlink:href="#m85187be3fb" y="254.52"/>
      </g>
     </g>
     <g id="text_18">
      <!-- 0.5 -->
      <g transform="translate(53.596875 258.319219)scale(0.1 -0.1)">
       <use xlink:href="#DejaVuSans-48"/>
       <use x="63.623047" xlink:href="#DejaVuSans-46"/>
       <use x="95.410156" xlink:href="#DejaVuSans-53"/>
      </g>
     </g>
    </g>
    <g id="ytick_7">
     <g id="line2d_35">
      <path clip-path="url(#pf3e64fba13)" d="M 76.5 215.712 
L 550.8 215.712 
" style="fill:none;stroke:#b0b0b0;stroke-linecap:square;stroke-width:0.8;"/>
     </g>
     <g id="line2d_36">
      <g>
       <use style="stroke:#000000;stroke-width:0.8;" x="76.5" xlink:href="#m85187be3fb" y="215.712"/>
      </g>
     </g>
     <g id="text_19">
      <!-- 0.6 -->
      <g transform="translate(53.596875 219.511219)scale(0.1 -0.1)">
       <use xlink:href="#DejaVuSans-48"/>
       <use x="63.623047" xlink:href="#DejaVuSans-46"/>
       <use x="95.410156" xlink:href="#DejaVuSans-54"/>
      </g>
     </g>
    </g>
    <g id="ytick_8">
     <g id="line2d_37">
      <path clip-path="url(#pf3e64fba13)" d="M 76.5 176.904 
L 550.8 176.904 
" style="fill:none;stroke:#b0b0b0;stroke-linecap:square;stroke-width:0.8;"/>
     </g>
     <g id="line2d_38">
      <g>
       <use style="stroke:#000000;stroke-width:0.8;" x="76.5" xlink:href="#m85187be3fb" y="176.904"/>
      </g>
     </g>
     <g id="text_20">
      <!-- 0.7 -->
      <g transform="translate(53.596875 180.703219)scale(0.1 -0.1)">
       <use xlink:href="#DejaVuSans-48"/>
       <use x="63.623047" xlink:href="#DejaVuSans-46"/>
       <use x="95.410156" xlink:href="#DejaVuSans-55"/>
      </g>
     </g>
    </g>
    <g id="ytick_9">
     <g id="line2d_39">
      <path clip-path="url(#pf3e64fba13)" d="M 76.5 138.096 
L 550.8 138.096 
" style="fill:none;stroke:#b0b0b0;stroke-linecap:square;stroke-width:0.8;"/>
     </g>
     <g id="line2d_40">
      <g>
       <use style="stroke:#000000;stroke-width:0.8;" x="76.5" xlink:href="#m85187be3fb" y="138.096"/>
      </g>
     </g>
     <g id="text_21">
      <!-- 0.8 -->
      <g transform="translate(53.596875 141.895219)scale(0.1 -0.1)">
       <use xlink:href="#DejaVuSans-48"/>
       <use x="63.623047" xlink:href="#DejaVuSans-46"/>
       <use x="95.410156" xlink:href="#DejaVuSans-56"/>
      </g>
     </g>
    </g>
    <g id="ytick_10">
     <g id="line2d_41">
      <path clip-path="url(#pf3e64fba13)" d="M 76.5 99.288 
L 550.8 99.288 
" style="fill:none;stroke:#b0b0b0;stroke-linecap:square;stroke-width:0.8;"/>
     </g>
     <g id="line2d_42">
      <g>
       <use style="stroke:#000000;stroke-width:0.8;" x="76.5" xlink:href="#m85187be3fb" y="99.288"/>
      </g>
     </g>
     <g id="text_22">
      <!-- 0.9 -->
      <g transform="translate(53.596875 103.087219)scale(0.1 -0.1)">
       <use xlink:href="#DejaVuSans-48"/>
       <use x="63.623047" xlink:href="#DejaVuSans-46"/>
       <use x="95.410156" xlink:href="#DejaVuSans-57"/>
      </g>
     </g>
    </g>
    <g id="ytick_11">
     <g id="line2d_43">
      <path clip-path="url(#pf3e64fba13)" d="M 76.5 60.48 
L 550.8 60.48 
" style="fill:none;stroke:#b0b0b0;stroke-linecap:square;stroke-width:0.8;"/>
     </g>
     <g id="line2d_44">
      <g>
       <use style="stroke:#000000;stroke-width:0.8;" x="76.5" xlink:href="#m85187be3fb" y="60.48"/>
      </g>
     </g>
     <g id="text_23">
      <!-- 1.0 -->
      <g transform="translate(53.596875 64.279219)scale(0.1 -0.1)">
       <use xlink:href="#DejaVuSans-49"/>
       <use x="63.623047" xlink:href="#DejaVuSans-46"/>
       <use x="95.410156" xlink:href="#DejaVuSans-48"/>
      </g>
     </g>
    </g>
    <g id="text_24">
     <!-- #correct/1039 -->
     <defs>
      <path d="M 51.125 44 
L 36.921875 44 
L 32.8125 27.6875 
L 47.125 27.6875 
z
M 43.796875 71.78125 
L 38.71875 51.515625 
L 52.984375 51.515625 
L 58.109375 71.78125 
L 65.921875 71.78125 
L 60.890625 51.515625 
L 76.125 51.515625 
L 76.125 44 
L 58.984375 44 
L 54.984375 27.6875 
L 70.515625 27.6875 
L 70.515625 20.21875 
L 53.078125 20.21875 
L 48 0 
L 40.1875 0 
L 45.21875 20.21875 
L 30.90625 20.21875 
L 25.875 0 
L 18.015625 0 
L 23.09375 20.21875 
L 7.71875 20.21875 
L 7.71875 27.6875 
L 24.90625 27.6875 
L 29 44 
L 13.28125 44 
L 13.28125 51.515625 
L 30.90625 51.515625 
L 35.890625 71.78125 
z
" id="DejaVuSans-35"/>
      <path d="M 18.3125 70.21875 
L 18.3125 54.6875 
L 36.8125 54.6875 
L 36.8125 47.703125 
L 18.3125 47.703125 
L 18.3125 18.015625 
Q 18.3125 11.328125 20.140625 9.421875 
Q 21.96875 7.515625 27.59375 7.515625 
L 36.8125 7.515625 
L 36.8125 0 
L 27.59375 0 
Q 17.1875 0 13.234375 3.875 
Q 9.28125 7.765625 9.28125 18.015625 
L 9.28125 47.703125 
L 2.6875 47.703125 
L 2.6875 54.6875 
L 9.28125 54.6875 
L 9.28125 70.21875 
z
" id="DejaVuSans-116"/>
      <path d="M 25.390625 72.90625 
L 33.6875 72.90625 
L 8.296875 -9.28125 
L 0 -9.28125 
z
" id="DejaVuSans-47"/>
     </defs>
     <g transform="translate(47.517187 290.822344)rotate(-90)scale(0.1 -0.1)">
      <use xlink:href="#DejaVuSans-35"/>
      <use x="83.789062" xlink:href="#DejaVuSans-99"/>
      <use x="138.769531" xlink:href="#DejaVuSans-111"/>
      <use x="199.951172" xlink:href="#DejaVuSans-114"/>
      <use x="241.048828" xlink:href="#DejaVuSans-114"/>
      <use x="282.130859" xlink:href="#DejaVuSans-101"/>
      <use x="343.654297" xlink:href="#DejaVuSans-99"/>
      <use x="398.634766" xlink:href="#DejaVuSans-116"/>
      <use x="437.84375" xlink:href="#DejaVuSans-47"/>
      <use x="471.535156" xlink:href="#DejaVuSans-49"/>
      <use x="535.158203" xlink:href="#DejaVuSans-48"/>
      <use x="598.78125" xlink:href="#DejaVuSans-51"/>
      <use x="662.404297" xlink:href="#DejaVuSans-57"/>
     </g>
    </g>
   </g>
   <g id="line2d_45">
    <path clip-path="url(#pf3e64fba13)" d="M 76.5 448.186487 
L 76.5 370.869297 
L 78.769378 370.869297 
L 78.317241 351.446622 
L 78.141176 340.988258 
L 79.771034 340.988258 
L 79.348649 324.927199 
L 80.76018 324.927199 
L 80.553846 318.577478 
L 81.889773 318.577478 
L 81.859322 317.830452 
L 83.180282 317.830452 
L 83.069252 315.589374 
L 84.361326 315.589374 
L 84.233152 313.348296 
L 85.497561 313.348296 
L 85.401072 311.854244 
L 86.645455 311.854244 
L 86.591489 311.107218 
L 87.822812 311.107218 
L 87.703937 309.613167 
L 88.91623 309.613167 
L 88.568702 305.504524 
L 89.741878 305.504524 
L 89.510723 302.889933 
L 91.8 302.889933 
L 91.724444 302.142907 
L 92.855172 302.142907 
L 92.347733 297.287238 
L 94.525653 297.287238 
L 94.230841 294.672647 
L 95.295105 294.672647 
L 95.078571 292.805082 
L 96.126207 292.805082 
L 95.859184 290.564004 
L 96.888462 290.564004 
L 96.842438 290.190491 
L 99.895964 290.190491 
L 99.739644 289.069952 
L 101.739911 289.069952 
L 101.463158 287.202387 
L 102.446389 287.202387 
L 102.165584 285.334822 
L 104.099353 285.334822 
L 103.980901 284.587796 
L 105.890385 284.587796 
L 105.641314 283.093744 
L 106.582452 283.093744 
L 106.518987 282.720231 
L 107.454316 282.720231 
L 107.131875 280.852666 
L 108.054262 280.852666 
L 107.794021 279.358614 
L 108.705556 279.358614 
L 108.573566 278.611588 
L 111.27556 278.611588 
L 110.925 276.744023 
L 111.81006 276.744023 
L 111.668537 275.996997 
L 114.292829 275.996997 
L 114.068317 274.876458 
L 116.647441 274.876458 
L 116.25614 273.008893 
L 117.101556 273.008893 
L 117.022718 272.63538 
L 118.700774 272.63538 
L 118.457308 271.514841 
L 120.937285 271.514841 
L 120.852481 271.141328 
L 121.671429 271.141328 
L 121.5 270.394302 
L 122.313068 270.394302 
L 122.226465 270.020789 
L 123.840678 270.020789 
L 123.751692 269.647276 
L 124.552908 269.647276 
L 124.194972 268.153224 
L 124.987918 268.153224 
L 124.897959 267.779711 
L 125.686667 267.779711 
L 125.595749 267.406198 
L 126.380258 267.406198 
L 126.105688 266.285659 
L 126.883516 266.285659 
L 126.33587 264.044581 
L 129.389568 264.044581 
L 129.294614 263.671068 
L 131.552679 263.671068 
L 131.454545 263.297555 
L 132.200712 263.297555 
L 132.101776 262.924042 
L 133.583894 262.924042 
L 133.483039 262.550529 
L 134.219048 262.550529 
L 133.814711 261.056477 
L 134.543706 261.056477 
L 134.442408 260.682964 
L 135.890609 260.682964 
L 135.277281 258.441886 
L 136.702744 258.441886 
L 136.496923 257.69486 
L 138.610714 257.69486 
L 138.505263 257.321347 
L 139.204068 257.321347 
L 139.09797 256.947834 
L 139.793412 256.947834 
L 139.686678 256.574321 
L 140.378788 256.574321 
L 139.951505 255.080269 
L 144.032781 255.080269 
L 143.921157 254.706756 
L 145.261779 254.706756 
L 145.035961 253.959731 
L 145.701148 253.959731 
L 145.587889 253.586218 
L 146.25 253.586218 
L 146.136215 253.212705 
L 146.795277 253.212705 
L 146.680976 252.839192 
L 149.292407 252.839192 
L 149.175 252.465679 
L 149.821739 252.465679 
L 149.703859 252.092166 
L 150.989423 252.092166 
L 150.751438 251.34514 
L 152.025478 251.34514 
L 151.905405 250.971627 
L 154.426066 250.971627 
L 154.058491 249.851088 
L 155.302194 249.851088 
L 155.055938 249.104062 
L 156.288785 249.104062 
L 156.040994 248.357036 
L 158.477778 248.357036 
L 157.974847 246.862984 
L 158.576417 246.862984 
L 158.450917 246.489471 
L 159.049924 246.489471 
L 158.924085 246.115958 
L 159.520548 246.115958 
L 159.143182 244.995419 
L 159.735703 244.995419 
L 159.60997 244.621906 
L 163.123653 244.621906 
L 162.736364 243.501367 
L 163.313839 243.501367 
L 163.184844 243.127854 
L 164.90503 243.127854 
L 164.774446 242.754341 
L 168.725 242.754341 
L 168.188808 241.260289 
L 168.744122 241.260289 
L 168.610435 240.886776 
L 170.264935 240.886776 
L 170.129827 240.513263 
L 170.677554 240.513263 
L 170.407317 239.766237 
L 172.037571 239.766237 
L 171.494744 238.272185 
L 172.032766 238.272185 
L 171.493794 236.778133 
L 173.091994 236.778133 
L 172.956522 236.40462 
L 175.064435 236.40462 
L 174.927159 236.031107 
L 175.44993 236.031107 
L 174.90249 234.537055 
L 176.970702 234.537055 
L 176.557808 233.416516 
L 177.069767 233.416516 
L 176.932377 233.043003 
L 177.95109 233.043003 
L 177.813061 232.66949 
L 180.333243 232.66949 
L 180.193117 232.295977 
L 180.692588 232.295977 
L 180.4125 231.548951 
L 181.405496 231.548951 
L 181.125 230.801925 
L 182.601731 230.801925 
L 182.460638 230.428412 
L 183.437666 230.428412 
L 183.296026 230.054899 
L 189.516797 230.054899 
L 189.223247 229.307873 
L 193.400642 229.307873 
L 193.250769 228.93436 
L 193.708579 228.93436 
L 193.409195 228.187334 
L 201.440449 228.187334 
L 201.284663 227.813821 
L 201.719925 227.813821 
L 201.564179 227.440308 
L 204.151111 227.440308 
L 203.993711 227.066795 
L 204.846863 227.066795 
L 204.689189 226.693282 
L 205.960098 226.693282 
L 205.801834 226.319769 
L 206.643293 226.319769 
L 206.484775 225.946256 
L 206.90365 225.946256 
L 206.7452 225.572743 
L 207.162743 225.572743 
L 207.004364 225.19923 
L 207.420581 225.19923 
L 207.262273 224.825717 
L 209.326803 224.825717 
L 209.167347 224.452204 
L 209.576978 224.452204 
L 209.417605 224.078691 
L 209.825957 224.078691 
L 209.666667 223.705178 
L 210.073747 223.705178 
L 209.755714 222.958152 
L 210.565796 222.958152 
L 210.406762 222.584639 
L 211.61383 222.584639 
L 211.454309 222.211126 
L 213.049354 222.211126 
L 212.729191 221.4641 
L 213.125059 221.4641 
L 212.965263 221.090587 
L 213.753676 221.090587 
L 213.434109 220.343561 
L 216.161085 220.343561 
L 216 219.970048 
L 218.301031 219.970048 
L 217.976914 219.223022 
L 219.491468 219.223022 
L 219.328977 218.849509 
L 220.080612 218.849509 
L 219.918007 218.475996 
L 220.292308 218.475996 
L 220.129831 218.102483 
L 221.246959 218.102483 
L 221.084139 217.72897 
L 221.454607 217.72897 
L 221.291919 217.355457 
L 221.661323 217.355457 
L 221.498768 216.981944 
L 221.867114 216.981944 
L 221.704693 216.608431 
L 222.438462 216.608431 
L 222.275947 216.234918 
L 223.006 216.234918 
L 222.843396 215.861405 
L 223.931748 215.861405 
L 223.76884 215.487892 
L 224.129801 215.487892 
L 223.967034 215.114379 
L 224.686139 215.114379 
L 224.523297 214.740866 
L 229.118743 214.740866 
L 228.953571 214.367353 
L 230.340841 214.367353 
L 230.175242 213.99384 
L 230.52 213.99384 
L 230.354565 213.620327 
L 231.725455 213.620327 
L 231.559615 213.246814 
L 232.240299 213.246814 
L 232.074441 212.873301 
L 234.098095 212.873301 
L 233.931501 212.499788 
L 235.597476 212.499788 
L 235.430357 212.126275 
L 236.091509 212.126275 
L 235.924398 211.752762 
L 236.253766 211.752762 
L 236.086834 211.379249 
L 236.415344 211.379249 
L 236.248592 211.005736 
L 237.55514 211.005736 
L 237.388071 210.632223 
L 238.683161 210.632223 
L 238.348763 209.885197 
L 239.63193 209.885197 
L 239.464615 209.511684 
L 241.053061 209.511684 
L 240.885321 209.138171 
L 241.200916 209.138171 
L 241.033367 208.764658 
L 241.348171 208.764658 
L 241.180812 208.391145 
L 241.808207 208.391145 
L 241.640891 208.017632 
L 243.507042 208.017632 
L 243.171687 207.270606 
L 245.622908 207.270606 
L 245.454627 206.897093 
L 245.758151 206.897093 
L 245.59007 206.52358 
L 246.496634 206.52358 
L 246.328487 206.150067 
L 246.929615 206.150067 
L 246.761538 205.776554 
L 247.360039 205.776554 
L 247.192035 205.403041 
L 249.26748 205.403041 
L 249.098927 205.029528 
L 249.686465 205.029528 
L 249.517996 204.656015 
L 251.266248 204.656015 
L 251.097391 204.282502 
L 251.67541 204.282502 
L 251.506647 203.908989 
L 254.3625 203.908989 
L 254.023714 203.161963 
L 256.545892 203.161963 
L 256.206503 202.414937 
L 256.760771 202.414937 
L 256.591353 202.041424 
L 258.241121 202.041424 
L 258.071429 201.667911 
L 259.431691 201.667911 
L 259.261838 201.294398 
L 259.802224 201.294398 
L 259.46309 200.547372 
L 259.732348 200.547372 
L 259.563158 200.173859 
L 261.698717 200.173859 
L 261.529121 199.800346 
L 266.22 199.800346 
L 266.049235 199.426833 
L 269.5928 199.426833 
L 269.421314 199.053321 
L 270.665252 199.053321 
L 270.322507 198.306295 
L 271.063204 198.306295 
L 270.892084 197.932782 
L 273.815405 197.932782 
L 273.472546 197.185756 
L 274.910717 197.185756 
L 274.739378 196.812243 
L 276.86838 196.812243 
L 276.696832 196.43873 
L 277.399061 196.43873 
L 277.227645 196.065217 
L 285.380464 196.065217 
L 285.207692 195.691704 
L 287.386464 195.691704 
L 287.213607 195.318191 
L 291.465 195.318191 
L 291.291781 194.944678 
L 293.982057 194.944678 
L 293.808765 194.571165 
L 297.442577 194.571165 
L 297.269152 194.197652 
L 300.219472 194.197652 
L 300.046047 193.824139 
L 308.316792 193.824139 
L 308.143146 193.450626 
L 314.342409 193.450626 
L 314.168928 193.077113 
L 317.403453 193.077113 
L 317.230266 192.7036 
L 320.214123 192.7036 
L 320.041277 192.330087 
L 320.856678 192.330087 
L 320.68411 191.956574 
L 321.008674 191.956574 
L 320.836364 191.583061 
L 320.99831 191.583061 
L 320.826249 191.209548 
L 321.149473 191.209548 
L 320.806105 190.462522 
L 321.128451 190.462522 
L 320.957143 190.089009 
L 323.346362 190.089009 
L 323.175416 189.715496 
L 327.049217 189.715496 
L 326.878776 189.341983 
L 331.940824 189.341983 
L 331.771096 188.96847 
L 332.061778 188.96847 
L 331.892308 188.594957 
L 333.047493 188.594957 
L 332.878378 188.221444 
L 333.021937 188.221444 
L 332.853061 187.847931 
L 338.172254 187.847931 
L 338.0043 187.474418 
L 339.899427 187.474418 
L 339.56474 186.727392 
L 344.672102 186.727392 
L 344.505948 186.353879 
L 346.279975 186.353879 
L 346.114365 185.980366 
L 351.972987 185.980366 
L 351.80882 185.606853 
L 351.927338 185.606853 
L 355.303981 185.606853 
L 355.140843 185.23334 
L 355.255263 185.23334 
L 355.36955 185.23334 
L 355.206659 184.859827 
L 355.320841 184.859827 
L 356.003141 184.859827 
L 355.84064 184.486314 
L 355.953922 184.486314 
L 357.303116 184.486314 
L 357.141176 184.112801 
L 357.252795 184.112801 
L 358.472165 184.112801 
L 358.310761 183.739288 
L 358.420881 183.739288 
L 360.597115 183.739288 
L 360.436518 183.365775 
L 360.544068 183.365775 
L 362.354001 183.365775 
L 362.194128 182.992262 
L 362.299553 182.992262 
L 365.916612 182.992262 
L 365.758027 182.618749 
L 365.859365 182.618749 
L 366.966794 182.618749 
L 366.80876 182.245236 
L 366.908809 182.245236 
L 370.535661 182.245236 
L 370.379009 181.871723 
L 370.47508 181.871723 
L 370.953903 181.871723 
L 370.797611 181.49821 
L 370.893103 181.49821 
L 373.340816 181.49821 
L 373.185565 181.124697 
L 373.278411 181.124697 
L 373.463812 181.124697 
L 373.30882 180.751184 
L 373.401408 180.751184 
L 377.470183 180.751184 
L 377.316862 180.377671 
L 377.405193 180.377671 
L 381.204681 180.377671 
L 381.053011 180.004158 
L 381.137463 180.004158 
L 381.642411 180.004158 
L 381.491125 179.630645 
L 381.575025 179.630645 
L 384.297806 179.630645 
L 384.147807 179.257132 
L 384.228982 179.257132 
L 394.148465 179.257132 
L 394.003022 178.883619 
L 394.074783 178.883619 
L 394.218107 178.883619 
L 394.072898 178.510106 
L 394.144495 178.510106 
L 396.95572 178.510106 
L 396.812018 178.136593 
L 396.88104 178.136593 
L 397.293876 178.136593 
L 397.150536 177.76308 
L 397.21916 177.76308 
L 397.902045 177.76308 
L 397.7592 177.389567 
L 397.827188 177.389567 
L 400.955875 177.389567 
L 400.814746 177.016054 
L 400.879957 177.016054 
L 404.256821 177.016054 
L 404.117587 176.642541 
L 404.179873 176.642541 
L 405.414568 176.642541 
L 405.276136 176.269028 
L 405.337358 176.269028 
L 406.791379 176.269028 
L 406.653872 175.895515 
L 406.713858 175.895515 
L 415.02 175.895515 
L 414.887299 175.522002 
L 414.993772 175.522002 
L 415.259226 175.522002 
L 415.126846 175.148489 
L 415.2328 175.148489 
L 418.638751 175.148489 
L 418.508562 174.774976 
L 418.609163 174.774976 
L 422.936116 174.774976 
L 422.80875 174.401463 
L 422.902792 174.401463 
L 426.287768 174.401463 
L 426.16271 174.02795 
L 426.251768 174.02795 
L 427.003658 174.02795 
L 426.879233 173.654437 
L 426.967151 173.654437 
L 427.752838 173.654437 
L 427.548803 172.907411 
L 427.592186 172.907411 
L 429.344969 172.907411 
L 429.222581 172.533898 
L 429.306863 172.533898 
L 429.559011 172.533898 
L 429.356911 171.786872 
L 429.39886 171.786872 
L 439.297367 171.786872 
L 439.182303 171.413359 
L 439.288403 171.413359 
L 439.5 171.413359 
L 439.385236 171.039846 
L 439.490809 171.039846 
L 441.153174 171.039846 
L 441.039751 170.666333 
L 441.142076 170.666333 
L 442.521632 170.666333 
L 442.409356 170.29282 
L 442.50901 170.29282 
L 444.528271 170.29282 
L 444.417619 169.919307 
L 444.513488 169.919307 
L 450.508673 169.919307 
L 450.402692 169.545794 
L 450.51636 169.545794 
L 450.629771 169.545794 
L 450.524025 169.172281 
L 450.637267 169.172281 
L 456.419473 169.172281 
L 456.318431 168.798768 
L 456.418836 168.798768 
L 456.594033 168.798768 
L 456.493266 168.425255 
L 456.593167 168.425255 
L 459.588462 168.425255 
L 459.490259 168.051742 
L 459.58379 168.051742 
L 462.544475 168.051742 
L 462.448848 167.678229 
L 462.55814 167.678229 
L 463.014226 167.678229 
L 462.919119 167.304716 
L 463.027107 167.304716 
L 464.428077 167.304716 
L 464.334284 166.931203 
L 464.438686 166.931203 
L 466.255745 166.931203 
L 466.163626 166.55769 
L 466.263527 166.55769 
L 468.893207 166.55769 
L 468.803476 166.184177 
L 468.915826 166.184177 
L 469.509862 166.184177 
L 469.420784 165.810664 
L 469.531304 165.810664 
L 472.285874 165.810664 
L 472.199344 165.437151 
L 472.302314 165.437151 
L 472.981948 165.437151 
L 472.896148 165.063638 
L 472.997169 165.063638 
L 473.281977 165.063638 
L 473.196555 164.690125 
L 473.296667 164.690125 
L 473.842699 164.690125 
L 473.757887 164.316612 
L 473.856427 164.316612 
L 474.085377 164.316612 
L 474.000892 163.943099 
L 474.098684 163.943099 
L 474.439003 163.943099 
L 474.319375 163.196073 
L 474.383889 163.196073 
L 474.416105 163.196073 
L 474.332244 162.82256 
L 474.444886 162.82256 
L 475.459572 162.82256 
L 475.376749 162.449047 
L 475.486194 162.449047 
L 479.673571 162.449047 
L 479.594656 162.075534 
L 479.70598 162.075534 
L 480.732955 162.075534 
L 480.655113 161.702021 
L 480.763007 161.702021 
L 481.653759 161.702021 
L 481.653759 161.702021 
" style="fill:none;stroke:#1f77b4;stroke-linecap:square;stroke-width:2;"/>
   </g>
   <g id="line2d_46">
    <path clip-path="url(#pf3e64fba13)" d="M 76.5 448.186487 
L 76.5 417.931935 
L 82.214458 417.931935 
L 81.440625 413.076266 
L 81.15 410.835188 
L 85.709709 410.835188 
L 84.89469 407.100058 
L 88.981579 407.100058 
L 87.792857 402.617902 
L 86.736691 397.762233 
L 86.591489 397.015207 
L 89.860563 397.015207 
L 89.064238 393.65359 
L 92.101974 393.65359 
L 90.786145 388.424408 
L 93.540719 388.424408 
L 93.24 387.303869 
L 98.560465 387.303869 
L 97.348352 383.568739 
L 99.82623 383.568739 
L 98.503608 379.460096 
L 100.823077 379.460096 
L 99.19378 374.230914 
L 98.357143 371.24281 
L 100.432569 371.24281 
L 100.215 370.495784 
L 102.253846 370.495784 
L 102.137838 370.122271 
L 104.149776 370.122271 
L 104.026339 369.748758 
L 106.012 369.748758 
L 105.496507 368.254706 
L 107.432609 368.254706 
L 107.034335 367.134167 
L 108.930769 367.134167 
L 106.977108 361.531473 
L 106.377165 359.663908 
L 109.849219 359.663908 
L 109.336154 358.169856 
L 112.706107 358.169856 
L 112.296226 357.049317 
L 113.944737 357.049317 
L 113.253875 355.181752 
L 114.8625 355.181752 
L 113.766429 352.193648 
L 115.321708 352.193648 
L 115.04735 351.446622 
L 116.58169 351.446622 
L 116.441053 351.073109 
L 119.467944 351.073109 
L 118.87732 349.579057 
L 120.356507 349.579057 
L 120.206826 349.205544 
L 121.671429 349.205544 
L 121.215152 348.085005 
L 122.656711 348.085005 
L 122.045364 346.590953 
L 123.460396 346.590953 
L 122.698052 344.723388 
L 124.083495 344.723388 
L 123.93 344.349875 
L 125.302572 344.349875 
L 124.53038 342.48231 
L 125.875079 342.48231 
L 125.719811 342.108797 
L 128.376563 342.108797 
L 128.214953 341.735284 
L 129.527329 341.735284 
L 129.363158 341.361771 
L 130.663889 341.361771 
L 129.679091 339.120693 
L 135.964478 339.120693 
L 135.7875 338.74718 
L 137.018991 338.74718 
L 136.485 337.626641 
L 140.108746 337.626641 
L 139.923837 337.253128 
L 141.114783 337.253128 
L 140.742363 336.506102 
L 144.257143 336.506102 
L 143.681303 335.385563 
L 145.97493 335.385563 
L 145.200836 333.891511 
L 149.670248 333.891511 
L 149.269315 333.144485 
L 152.542663 333.144485 
L 152.131622 332.397459 
L 153.206199 332.397459 
L 153 332.023946 
L 155.127273 332.023946 
L 154.9176 331.650433 
L 155.970479 331.650433 
L 155.55 330.903407 
L 156.592876 330.903407 
L 155.963874 329.782868 
L 158.020313 329.782868 
L 157.808571 329.409355 
L 159.839535 329.409355 
L 159.624742 329.035842 
L 160.630334 329.035842 
L 160.2 328.288816 
L 161.196429 328.288816 
L 159.710526 325.674225 
L 160.68825 325.674225 
L 160.478304 325.300712 
L 162.415385 325.300712 
L 161.991111 324.553686 
L 162.948768 324.553686 
L 162.31467 323.433147 
L 164.205109 323.433147 
L 163.992233 323.059634 
L 164.928814 323.059634 
L 164.715217 322.686121 
L 166.571394 322.686121 
L 166.355396 322.312608 
L 170.910427 322.312608 
L 170.687234 321.939095 
L 171.583726 321.939095 
L 171.36 321.565582 
L 173.137237 321.565582 
L 172.911449 321.192069 
L 173.792308 321.192069 
L 173.566047 320.818556 
L 175.3125 320.818556 
L 174.857143 320.07153 
L 177.437986 320.07153 
L 177.207534 319.698017 
L 178.058542 319.698017 
L 177.827727 319.324504 
L 179.515385 319.324504 
L 179.051351 318.577478 
L 180.718386 318.577478 
L 180.485235 318.203965 
L 182.954 318.203965 
L 182.71796 317.830452 
L 186.753947 317.830452 
L 186.272489 317.083426 
L 187.066667 317.083426 
L 186.826304 316.709913 
L 187.615835 316.709913 
L 187.135853 315.962887 
L 187.919612 315.962887 
L 187.68 315.589374 
L 190.007692 315.589374 
L 189.765672 315.215861 
L 193.574051 315.215861 
L 193.082143 314.468835 
L 196.800624 314.468835 
L 196.551037 314.095322 
L 197.284472 314.095322 
L 197.034917 313.721809 
L 199.214168 313.721809 
L 198.962705 313.348296 
L 199.682209 313.348296 
L 199.430816 312.974783 
L 200.146436 312.974783 
L 199.644828 312.227757 
L 201.063636 312.227757 
L 200.8125 311.854244 
L 202.218072 311.854244 
L 201.966132 311.480731 
L 203.358683 311.480731 
L 203.105976 311.107218 
L 205.171485 311.107218 
L 204.663905 310.360192 
L 206.023969 310.360192 
L 205.77 309.986679 
L 208.455058 309.986679 
L 208.198835 309.613167 
L 210.839306 309.613167 
L 210.067241 308.492628 
L 212.658365 308.492628 
L 212.4 308.119115 
L 213.040909 308.119115 
L 212.782798 307.745602 
L 214.68891 307.745602 
L 214.429644 307.372089 
L 215.687103 307.372089 
L 215.427425 306.998576 
L 221.56978 306.998576 
L 221.30457 306.625063 
L 221.905839 306.625063 
L 221.640984 306.25155 
L 223.429891 306.25155 
L 222.899458 305.504524 
L 223.49027 305.504524 
L 223.225899 305.131011 
L 227.298757 305.131011 
L 226.764956 304.383985 
L 229.607368 304.383985 
L 229.339229 304.010472 
L 234.327414 304.010472 
L 233.785052 303.263446 
L 234.870719 303.263446 
L 234.6 302.889933 
L 236.747368 302.889933 
L 236.475763 302.51642 
L 237.537669 302.51642 
L 236.995455 301.769394 
L 238.04849 301.769394 
L 237.239399 300.648855 
L 237.762 300.648855 
L 237.493677 300.275342 
L 238.532836 300.275342 
L 237.99719 299.528316 
L 240.561148 299.528316 
L 240.292635 299.154803 
L 242.812987 299.154803 
L 242.543436 298.78129 
L 243.539418 298.78129 
L 243.27 298.407777 
L 246.703349 298.407777 
L 246.432325 298.034264 
L 250.732653 298.034264 
L 250.459561 297.660751 
L 252.795023 297.660751 
L 252.521273 297.287238 
L 253.904328 297.287238 
L 253.630556 296.913725 
L 254.088444 296.913725 
L 253.815231 296.540212 
L 255.179632 296.540212 
L 254.906422 296.166699 
L 257.151442 296.166699 
L 256.877727 295.793186 
L 260.397754 295.793186 
L 260.12287 295.419673 
L 261.85052 295.419673 
L 261.301333 294.672647 
L 263.43 294.672647 
L 263.155507 294.299134 
L 263.577273 294.299134 
L 263.303367 293.925621 
L 263.723684 293.925621 
L 263.450365 293.552108 
L 263.869242 293.552108 
L 263.596507 293.178595 
L 265.259045 293.178595 
L 264.986272 292.805082 
L 265.398701 292.805082 
L 265.126513 292.431569 
L 268.783784 292.431569 
L 268.510653 292.058056 
L 269.31034 292.058056 
L 269.037624 291.684543 
L 269.83244 291.684543 
L 269.560141 291.31103 
L 274.617012 291.31103 
L 274.34337 290.937517 
L 277.364754 290.937517 
L 277.090723 290.564004 
L 280.045749 290.564004 
L 279.771429 290.190491 
L 281.585542 290.190491 
L 281.311364 289.816978 
L 283.809934 289.816978 
L 283.535714 289.443465 
L 286.334293 289.443465 
L 286.06 289.069952 
L 287.779091 289.069952 
L 287.505058 288.696439 
L 288.525581 288.696439 
L 288.252 288.322926 
L 288.927799 288.322926 
L 288.654756 287.949413 
L 292.309506 287.949413 
L 292.036329 287.5759 
L 292.363464 287.5759 
L 292.090909 287.202387 
L 296.584615 287.202387 
L 296.311896 286.828874 
L 296.941038 286.828874 
L 296.668889 286.455361 
L 298.846267 286.455361 
L 298.57445 286.081848 
L 306.344431 286.081848 
L 306.072426 285.708335 
L 307.225442 285.708335 
L 306.954 285.334822 
L 308.945741 285.334822 
L 308.674825 284.961309 
L 309.518467 284.961309 
L 309.248144 284.587796 
L 310.363857 284.587796 
L 310.094118 284.214283 
L 311.199541 284.214283 
L 310.93039 283.84077 
L 315.517323 283.84077 
L 314.980808 283.093744 
L 315.508959 283.093744 
L 314.97486 282.346718 
L 319.877133 282.346718 
L 319.611148 281.973205 
L 321.366377 281.973205 
L 321.101083 281.599692 
L 323.563023 281.599692 
L 323.298501 281.226179 
L 326.658228 281.226179 
L 326.394626 280.852666 
L 327.336516 280.852666 
L 327.073585 280.479153 
L 327.307853 280.479153 
L 327.045502 280.10564 
L 328.209677 280.10564 
L 327.948025 279.732127 
L 331.817773 279.732127 
L 331.557245 279.358614 
L 338.279822 279.358614 
L 338.021146 278.985101 
L 338.440828 278.985101 
L 338.182759 278.611588 
L 339.01737 278.611588 
L 338.76 278.238075 
L 340.614577 278.238075 
L 340.358155 277.864562 
L 340.56227 277.864562 
L 340.306395 277.491049 
L 341.119112 277.491049 
L 340.863934 277.117536 
L 342.869054 277.117536 
L 342.614885 276.744023 
L 345.359322 276.744023 
L 345.106397 276.37051 
L 350.017355 276.37051 
L 349.766422 275.996997 
L 349.950687 275.996997 
L 349.700275 275.623484 
L 353.84852 275.623484 
L 353.6 275.249971 
L 354.654545 275.249971 
L 354.406857 274.876458 
L 360.178133 274.876458 
L 359.933161 274.502945 
L 361.405141 274.502945 
L 361.161216 274.129432 
L 362.451276 274.129432 
L 362.208326 273.755919 
L 363.164835 273.755919 
L 362.92272 273.382406 
L 365.11828 273.382406 
L 364.63725 272.63538 
L 364.792256 272.63538 
L 364.552413 272.261867 
L 365.323944 272.261867 
L 365.084851 271.888354 
L 366.306661 271.888354 
L 366.068529 271.514841 
L 375.844202 271.514841 
L 375.379021 270.767815 
L 375.922541 270.767815 
L 375.459397 270.020789 
L 375.730193 270.020789 
L 375.499306 269.647276 
L 377.107569 269.647276 
L 376.648626 268.90025 
L 381.306464 268.90025 
L 380.980208 268.153224 
L 383.216313 268.153224 
L 382.992105 267.779711 
L 383.114682 267.779711 
L 385.766786 267.779711 
L 385.441463 267.032685 
L 386.50221 267.032685 
L 386.28141 266.659172 
L 386.398505 266.659172 
L 386.748793 266.659172 
L 386.528602 266.285659 
L 386.645106 266.285659 
L 389.167039 266.285659 
L 388.948849 265.912146 
L 389.061715 265.912146 
L 389.174425 265.912146 
L 388.956685 265.538633 
L 389.069311 265.538633 
L 389.40625 265.538633 
L 389.084407 264.791607 
L 390.418144 264.791607 
L 390.202541 264.418094 
L 390.312766 264.418094 
L 390.861628 264.418094 
L 390.646753 264.044581 
L 390.756148 264.044581 
L 391.517743 264.044581 
L 391.303736 263.671068 
L 391.412016 263.671068 
L 391.735976 263.671068 
L 391.522546 263.297555 
L 391.630311 263.297555 
L 392.593679 263.297555 
L 392.38125 262.924042 
L 392.487643 262.924042 
L 393.228409 262.924042 
L 393.016834 262.550529 
L 393.122163 262.550529 
L 394.685393 262.550529 
L 394.475231 262.177016 
L 394.578416 262.177016 
L 395.80609 262.177016 
L 395.59712 261.803503 
L 395.698627 261.803503 
L 397.8 261.803503 
L 397.592843 261.42999 
L 397.691559 261.42999 
L 399.543285 261.42999 
L 399.337786 261.056477 
L 399.434075 261.056477 
L 400.485227 261.056477 
L 400.28082 260.682964 
L 400.375725 260.682964 
L 403.350742 260.682964 
L 403.148857 260.309451 
L 403.24 260.309451 
L 404.593761 260.309451 
L 404.393215 259.935938 
L 404.482651 259.935938 
L 404.571978 259.935938 
L 404.371812 259.562425 
L 404.461098 259.562425 
L 405.08306 259.562425 
L 404.883677 259.188912 
L 404.972165 259.188912 
L 406.025707 259.188912 
L 405.827437 258.815399 
L 405.914612 258.815399 
L 407.380714 258.815399 
L 406.987277 258.068373 
L 407.072727 258.068373 
L 407.158076 258.068373 
L 406.96184 257.69486 
L 407.047153 257.69486 
L 407.472206 257.69486 
L 407.276596 257.321347 
L 407.36137 257.321347 
L 408.537786 257.321347 
L 408.343384 256.947834 
L 408.426741 256.947834 
L 412.709251 256.947834 
L 412.518548 256.574321 
L 412.596939 256.574321 
L 415.885667 256.574321 
L 415.697954 256.200808 
L 415.772637 256.200808 
L 416.588736 256.200808 
L 416.401977 255.827295 
L 416.475741 255.827295 
L 416.549424 255.827295 
L 416.176767 255.080269 
L 416.250493 255.080269 
L 416.764321 255.080269 
L 416.57879 254.706756 
L 416.651935 254.706756 
L 417.883315 254.706756 
L 417.699083 254.333244 
L 417.770874 254.333244 
L 418.555496 254.333244 
L 418.372186 253.959731 
L 418.443117 253.959731 
L 422.096719 253.959731 
L 421.916814 253.586218 
L 421.983871 253.586218 
L 424.674376 253.586218 
L 424.497098 253.212705 
L 424.561374 253.212705 
L 424.945662 253.212705 
L 424.768966 252.839192 
L 424.832843 252.839192 
L 425.971673 252.839192 
L 425.796235 252.465679 
L 425.858956 252.465679 
L 427.100298 252.465679 
L 426.926216 252.092166 
L 426.987692 252.092166 
L 427.35527 252.092166 
L 427.181751 251.718653 
L 427.303903 251.718653 
L 428.6915 251.718653 
L 428.519531 251.34514 
L 428.638829 251.34514 
L 430.516427 251.34514 
L 430.346471 250.971627 
L 430.462014 250.971627 
L 430.979226 250.971627 
L 430.810024 250.598114 
L 430.924464 250.598114 
L 432.336758 250.598114 
L 432.169147 250.224601 
L 432.2808 250.224601 
L 433.166511 250.224601 
L 433 249.851088 
L 433.109888 249.851088 
L 434.573561 249.851088 
L 434.408702 249.477575 
L 434.515777 249.477575 
L 435.942254 249.477575 
L 435.779019 249.104062 
L 435.883394 249.104062 
L 435.93551 249.104062 
L 435.772575 248.730549 
L 435.876766 248.730549 
L 436.136421 248.730549 
L 435.973984 248.357036 
L 436.077617 248.357036 
L 437.35743 248.357036 
L 437.196476 247.983523 
L 437.297727 247.983523 
L 440.731245 247.983523 
L 440.573909 247.61001 
L 440.669055 247.61001 
L 440.811466 247.61001 
L 440.654502 247.236497 
L 440.749333 247.236497 
L 440.796687 247.236497 
L 440.64 246.862984 
L 440.73468 246.862984 
L 440.829197 246.862984 
L 440.672833 246.489471 
L 440.767281 246.489471 
L 441.656529 246.489471 
L 441.501276 246.115958 
L 441.594138 246.115958 
L 444.835202 246.115958 
L 444.683436 245.742445 
L 444.770811 245.742445 
L 444.901604 245.742445 
L 444.750185 245.368932 
L 444.83729 245.368932 
L 445.828804 245.368932 
L 445.678609 244.995419 
L 445.764039 244.995419 
L 449.150963 244.995419 
L 449.004481 244.621906 
L 449.084446 244.621906 
L 450.190909 244.621906 
L 450.018147 243.87488 
L 450.600925 243.87488 
L 450.456763 243.501367 
L 450.572633 243.501367 
L 450.649731 243.501367 
L 450.505882 243.127854 
L 450.621429 243.127854 
L 452.024915 243.127854 
L 451.882778 242.754341 
L 451.994972 242.754341 
L 453.285336 242.754341 
L 453.144797 242.380828 
L 453.253949 242.380828 
L 453.616036 242.380828 
L 453.408525 241.633802 
L 453.444609 241.633802 
L 453.875544 241.633802 
L 453.736394 241.260289 
L 453.843646 241.260289 
L 453.879345 241.260289 
L 453.740449 240.886776 
L 453.8475 240.886776 
L 454.238008 240.886776 
L 454.099744 240.513263 
L 454.205814 240.513263 
L 454.241118 240.513263 
L 454.103106 240.13975 
L 454.208978 240.13975 
L 454.455115 240.13975 
L 454.317576 239.766237 
L 454.422792 239.766237 
L 454.492808 239.766237 
L 454.355556 239.392724 
L 454.460501 239.392724 
L 457.407595 239.392724 
L 457.273708 239.019211 
L 457.372226 239.019211 
L 457.894169 239.019211 
L 457.761047 238.645698 
L 457.858368 238.645698 
L 459.168305 238.645698 
L 459.036804 238.272185 
L 459.131308 238.272185 
L 460.495333 238.272185 
L 460.365517 237.898672 
L 460.457143 237.898672 
L 460.579022 237.898672 
L 460.320121 237.151646 
L 460.411515 237.151646 
L 460.533087 237.151646 
L 460.404 236.778133 
L 460.495064 236.778133 
L 460.676642 236.778133 
L 460.54794 236.40462 
L 460.638554 236.40462 
L 460.789175 236.40462 
L 460.660822 236.031107 
L 460.751051 236.031107 
L 460.811104 236.031107 
L 460.585043 235.284081 
L 460.645107 235.284081 
L 461.742026 235.284081 
L 461.615385 234.910568 
L 461.732502 234.910568 
L 461.936718 234.910568 
L 461.810511 234.537055 
L 461.926913 234.537055 
L 462.59036 234.537055 
L 462.465088 234.163542 
L 462.579585 234.163542 
L 465.455737 234.163542 
L 465.333845 233.790029 
L 465.440845 233.790029 
L 466.156145 233.790029 
L 466.035247 233.416516 
L 466.140316 233.416516 
L 466.765303 233.416516 
L 466.645295 233.043003 
L 466.748679 233.043003 
L 467.490685 233.043003 
L 467.371698 232.66949 
L 467.473131 232.66949 
L 467.49845 232.66949 
L 467.260978 231.922464 
L 467.362329 231.922464 
L 468.288302 231.922464 
L 468.170825 231.548951 
L 468.269811 231.548951 
L 469.125934 231.548951 
L 469.0096 231.175438 
L 469.106422 231.175438 
L 469.682574 231.175438 
L 469.567068 230.801925 
L 469.662412 230.801925 
L 469.85243 230.801925 
L 469.737313 230.428412 
L 469.832096 230.428412 
L 472.086957 230.428412 
L 471.974574 230.054899 
L 472.086383 230.054899 
L 472.220136 230.054899 
L 472.108097 229.681386 
L 472.219338 229.681386 
L 472.683137 229.681386 
L 472.571818 229.307873 
L 472.681566 229.307873 
L 473.095814 229.307873 
L 472.896291 228.560847 
L 472.983092 228.560847 
L 473.156115 228.560847 
L 473.045902 228.187334 
L 473.153774 228.187334 
L 474.02716 228.187334 
L 473.872438 227.440308 
L 473.914567 227.440308 
L 474.458075 227.440308 
L 474.349905 227.066795 
L 474.453664 227.066795 
L 475.293987 227.066795 
L 475.100295 226.319769 
L 475.181431 226.319769 
L 479.46317 226.319769 
L 479.361334 225.946256 
L 479.469493 225.946256 
L 480.182263 225.946256 
L 480.081444 225.572743 
L 480.187257 225.572743 
L 480.798245 225.572743 
L 480.698319 225.19923 
L 480.802122 225.19923 
L 481.806714 225.19923 
L 481.708147 224.825717 
L 481.808815 224.825717 
L 483.026694 224.825717 
L 482.92974 224.452204 
L 483.042857 224.452204 
L 484.802783 224.452204 
L 484.708115 224.078691 
L 484.815208 224.078691 
L 487.524906 224.078691 
L 487.433688 223.705178 
L 487.54599 223.705178 
L 488.484723 223.705178 
L 488.18 222.211126 
L 488.234523 222.211126 
L 488.51922 222.211126 
L 488.429961 221.837613 
L 488.537868 221.837613 
L 488.752565 221.837613 
L 488.663736 221.4641 
L 488.77066 221.4641 
L 488.943629 221.4641 
L 488.855179 221.090587 
L 488.961272 221.090587 
L 489.040603 221.090587 
L 488.952416 220.717074 
L 489.058003 220.717074 
L 491.108851 220.717074 
L 491.023329 220.343561 
L 491.134095 220.343561 
L 492.654474 220.343561 
L 492.570993 219.970048 
L 492.675931 219.970048 
L 493.592353 219.970048 
L 493.510167 219.596535 
L 493.622832 219.596535 
L 494.256651 219.596535 
L 494.175423 219.223022 
L 494.28531 219.223022 
L 495.519021 219.223022 
L 495.519021 219.223022 
" style="fill:none;stroke:#ff7f0e;stroke-linecap:square;stroke-width:2;"/>
   </g>
   <g id="line2d_47">
    <path clip-path="url(#pf3e64fba13)" d="M 76.5 448.186487 
L 76.5 305.878037 
L 77.738381 305.878037 
L 77.703807 301.769394 
L 78.901519 301.769394 
L 78.808029 295.793186 
L 79.953641 295.793186 
L 79.79375 288.322926 
L 80.881524 288.322926 
L 80.841419 286.828874 
L 81.914384 286.828874 
L 81.689278 279.732127 
L 82.713537 279.732127 
L 82.63319 277.491049 
L 83.64 277.491049 
L 83.564043 275.623484 
L 84.556051 275.623484 
L 84.538983 275.249971 
L 85.524736 275.249971 
L 85.449057 273.755919 
L 86.422594 273.755919 
L 86.38125 273.008893 
L 87.346778 273.008893 
L 87.279545 271.888354 
L 88.235258 271.888354 
L 87.837849 265.538633 
L 88.75825 265.538633 
L 88.472621 261.056477 
L 90.261122 261.056477 
L 90.208092 260.309451 
L 91.9762 260.309451 
L 91.946552 259.935938 
L 93.697901 259.935938 
L 93.065625 252.465679 
L 93.905505 252.465679 
L 93.622744 249.104062 
L 94.446486 249.104062 
L 94.382047 248.357036 
L 96.015027 248.357036 
L 95.945455 247.61001 
L 96.754804 247.61001 
L 96.718828 247.236497 
L 97.523936 247.236497 
L 97.412698 246.115958 
L 99.798947 246.115958 
L 99.717483 245.368932 
L 100.504712 245.368932 
L 99.972184 240.513263 
L 100.740204 240.513263 
L 100.454545 237.898672 
L 101.211429 237.898672 
L 101.128643 237.151646 
L 102.63005 237.151646 
L 102.456716 235.657594 
L 103.938843 235.657594 
L 103.848435 234.910568 
L 104.583553 234.910568 
L 104.537438 234.537055 
L 105.269016 234.537055 
L 105.221931 234.163542 
L 106.675693 234.163542 
L 106.577561 233.416516 
L 108.017504 233.416516 
L 107.713965 231.175438 
L 108.424038 231.175438 
L 108.37296 230.801925 
L 109.784211 230.801925 
L 109.678378 230.054899 
L 110.378571 230.054899 
L 110.271361 229.307873 
L 112.352598 229.307873 
L 112.240031 228.560847 
L 113.612676 228.560847 
L 113.49688 227.813821 
L 114.857076 227.813821 
L 114.73814 227.066795 
L 115.413158 227.066795 
L 115.055061 224.825717 
L 115.722358 224.825717 
L 115.662385 224.452204 
L 116.326718 224.452204 
L 116.084977 222.958152 
L 117.400303 222.958152 
L 117.33852 222.584639 
L 117.992308 222.584639 
L 117.743478 221.090587 
L 119.038117 221.090587 
L 118.911326 220.343561 
L 119.554018 220.343561 
L 119.490045 219.970048 
L 122.670796 219.970048 
L 122.602798 219.596535 
L 125.732895 219.596535 
L 125.446657 218.102483 
L 128.515584 218.102483 
L 128.217073 216.608431 
L 128.822493 216.608431 
L 128.747639 216.234918 
L 129.350571 216.234918 
L 129.275178 215.861405 
L 129.875641 215.861405 
L 129.799716 215.487892 
L 130.994043 215.487892 
L 130.686601 213.99384 
L 131.868354 213.99384 
L 131.79059 213.620327 
L 132.378261 213.620327 
L 132.3 213.246814 
L 133.468994 213.246814 
L 133.310306 212.499788 
L 133.89096 212.499788 
L 133.731761 211.752762 
L 134.309418 211.752762 
L 134.149724 211.005736 
L 135.297521 211.005736 
L 135.135989 210.25871 
L 135.706173 210.25871 
L 135.625068 209.885197 
L 136.193023 209.885197 
L 136.111475 209.511684 
L 137.804082 209.511684 
L 137.389865 207.644119 
L 138.504178 207.644119 
L 138.3375 206.897093 
L 141.090921 206.897093 
L 140.833245 205.776554 
L 143.002381 205.776554 
L 142.914531 205.403041 
L 145.058476 205.403041 
L 144.968504 205.029528 
L 146.03089 205.029528 
L 145.94 204.656015 
L 148.045904 204.656015 
L 147.952987 204.282502 
L 149.516429 204.282502 
L 149.328 203.535476 
L 149.845361 203.535476 
L 149.656812 202.78845 
L 150.171759 202.78845 
L 150.077308 202.414937 
L 150.590397 202.414937 
L 150.495652 202.041424 
L 151.516837 202.041424 
L 151.230877 200.920885 
L 152.243726 200.920885 
L 152.147848 200.547372 
L 152.651833 200.547372 
L 152.459773 199.800346 
L 152.961461 199.800346 
L 152.769347 199.053321 
L 154.7595 199.053321 
L 154.467123 197.932782 
L 155.451801 197.932782 
L 155.061434 196.43873 
L 157.974847 196.43873 
L 157.775398 195.691704 
L 159.213293 195.691704 
L 158.911786 194.571165 
L 161.74813 194.571165 
L 161.338776 193.077113 
L 162.271617 193.077113 
L 162.066667 192.330087 
L 162.993325 192.330087 
L 162.890357 191.956574 
L 165.18568 191.956574 
L 165.080851 191.583061 
L 165.990566 191.583061 
L 165.885159 191.209548 
L 166.338 191.209548 
L 166.232432 190.836035 
L 166.683803 190.836035 
L 166.4726 190.089009 
L 167.370561 190.089009 
L 167.264527 189.715496 
L 169.931054 189.715496 
L 169.715029 188.96847 
L 171.46916 188.96847 
L 171.36 188.594957 
L 172.663918 188.594957 
L 172.55389 188.221444 
L 173.847777 188.221444 
L 173.736902 187.847931 
L 175.020885 187.847931 
L 174.909184 187.474418 
L 175.759615 187.474418 
L 175.647458 187.100905 
L 177.335433 187.100905 
L 177.109091 186.353879 
L 177.946025 186.353879 
L 177.71933 185.606853 
L 178.135714 185.606853 
L 177.909354 184.859827 
L 178.324138 184.859827 
L 178.211 184.486314 
L 181.9 184.486314 
L 181.784176 184.112801 
L 184.601091 184.112801 
L 184.483333 183.739288 
L 186.862013 183.739288 
L 186.742703 183.365775 
L 187.919612 183.365775 
L 187.799677 182.992262 
L 188.19 182.992262 
L 188.070032 182.618749 
L 194.198522 182.618749 
L 193.950474 181.871723 
L 194.326105 181.871723 
L 194.202208 181.49821 
L 196.067259 181.49821 
L 195.817641 180.751184 
L 196.1878 180.751184 
L 196.063125 180.377671 
L 196.800624 180.377671 
L 196.551037 179.630645 
L 197.650052 179.630645 
L 197.4 178.883619 
L 197.76433 178.883619 
L 197.639444 178.510106 
L 199.448668 178.510106 
L 199.322825 178.136593 
L 204.986103 178.136593 
L 204.599096 177.016054 
L 204.946339 177.016054 
L 204.817635 176.642541 
L 205.5096 176.642541 
L 205.380719 176.269028 
L 206.755522 176.269028 
L 206.239148 174.774976 
L 207.260573 174.774976 
L 207.131491 174.401463 
L 207.80867 174.401463 
L 207.679429 174.02795 
L 209.025 174.02795 
L 208.895201 173.654437 
L 209.229746 173.654437 
L 209.1 173.280924 
L 209.433691 173.280924 
L 209.304 172.907411 
L 212.603478 172.907411 
L 212.472104 172.533898 
L 214.097118 172.533898 
L 213.701724 171.413359 
L 217.216493 171.413359 
L 217.083239 171.039846 
L 220.523618 171.039846 
L 220.388764 170.666333 
L 221.928425 170.666333 
L 221.793017 170.29282 
L 222.09907 170.29282 
L 221.963755 169.919307 
L 224.991713 169.919307 
L 224.71875 169.172281 
L 231.181622 169.172281 
L 231.042394 168.798768 
L 232.475 168.798768 
L 232.195975 168.051742 
L 233.048617 168.051742 
L 232.909091 167.678229 
L 235.438727 167.678229 
L 235.298322 167.304716 
L 236.132247 167.304716 
L 235.991725 166.931203 
L 241.705618 166.931203 
L 241.562953 166.55769 
L 245.256911 166.55769 
L 245.113043 166.184177 
L 245.373424 166.184177 
L 245.229702 165.810664 
L 247.03934 165.810664 
L 246.895182 165.437151 
L 247.408101 165.437151 
L 247.263997 165.063638 
L 248.284286 165.063638 
L 248.14005 164.690125 
L 250.159466 164.690125 
L 250.01475 164.316612 
L 250.515225 164.316612 
L 250.370574 163.943099 
L 250.869212 163.943099 
L 250.724627 163.569586 
L 252.210149 163.569586 
L 252.065293 163.196073 
L 252.557037 163.196073 
L 252.412253 162.82256 
L 254.120114 162.82256 
L 253.975 162.449047 
L 255.182587 162.449047 
L 255.037317 162.075534 
L 255.756934 162.075534 
L 255.611669 161.702021 
L 257.748994 161.702021 
L 257.603296 161.328508 
L 260.635561 161.328508 
L 260.489189 160.954995 
L 263.684434 160.954995 
L 263.537392 160.581482 
L 265.554056 160.581482 
L 265.406703 160.207969 
L 266.514596 160.207969 
L 266.367184 159.834456 
L 268.339368 159.834456 
L 268.191686 159.460943 
L 279.871439 159.460943 
L 279.571702 158.713917 
L 282.145401 158.713917 
L 281.995405 158.340404 
L 287.939016 158.340404 
L 287.788311 157.966891 
L 288.908304 157.966891 
L 288.75766 157.593378 
L 290.236037 157.593378 
L 290.085412 157.219865 
L 290.452357 157.219865 
L 290.301899 156.846352 
L 291.032609 156.846352 
L 290.88227 156.472839 
L 294.12 156.472839 
L 293.969502 156.099326 
L 294.32424 156.099326 
L 294.173913 155.725813 
L 298.355193 155.725813 
L 298.204681 155.3523 
L 299.568219 155.3523 
L 299.417802 154.978787 
L 300.2625 154.978787 
L 300.112223 154.605274 
L 300.448491 154.605274 
L 300.298391 154.231761 
L 300.466175 154.231761 
L 300.316265 153.858248 
L 300.651136 153.858248 
L 300.501403 153.484735 
L 309.215861 153.484735 
L 309.065915 153.111222 
L 311.685086 153.111222 
L 311.535287 152.737709 
L 312.597337 152.737709 
L 312.447719 152.364196 
L 316.749035 152.364196 
L 316.599627 151.990683 
L 317.47026 151.990683 
L 317.321053 151.61717 
L 319.894611 151.61717 
L 319.745655 151.243657 
L 323.227486 151.243657 
L 323.078855 150.870144 
L 324.442455 150.870144 
L 324.294075 150.496631 
L 324.429545 150.496631 
L 324.281351 150.123118 
L 324.821646 150.123118 
L 324.673659 149.749605 
L 324.942857 149.749605 
L 324.795062 149.376092 
L 326.396988 149.376092 
L 326.249469 149.002579 
L 331.04922 149.002579 
L 330.902252 148.629066 
L 333.4125 148.629066 
L 333.265944 148.255553 
L 345.559311 148.255553 
L 345.414578 147.88204 
L 345.525 147.88204 
L 352.559346 147.88204 
L 352.416087 147.508527 
L 352.518983 147.508527 
L 353.745464 147.508527 
L 353.602628 147.135014 
L 353.704171 147.135014 
L 354.210324 147.135014 
L 354.067762 146.761501 
L 354.168702 146.761501 
L 356.067073 146.761501 
L 355.925089 146.387988 
L 356.02401 146.387988 
L 356.517114 146.387988 
L 356.375405 146.014475 
L 356.473748 146.014475 
L 359.378475 146.014475 
L 359.2376 145.640962 
L 359.332952 145.640962 
L 359.523371 145.640962 
L 359.337289 144.893936 
L 360.094807 144.893936 
L 359.954622 144.520423 
L 360.048913 144.520423 
L 360.237216 144.520423 
L 360.097237 144.14691 
L 360.191272 144.14691 
L 364.148865 144.14691 
L 364.010039 143.773397 
L 364.100145 143.773397 
L 370.870293 143.773397 
L 370.733504 143.399885 
L 370.817139 143.399885 
L 373.453043 143.399885 
L 373.3172 143.026372 
L 373.398354 143.026372 
L 377.441019 143.026372 
L 377.30661 142.652859 
L 377.384063 142.652859 
L 377.693182 142.652859 
L 377.55902 142.279346 
L 377.636153 142.279346 
L 379.012898 142.279346 
L 378.879338 141.905833 
L 378.955207 141.905833 
L 381.200566 141.905833 
L 381.067915 141.53232 
L 381.141775 141.53232 
L 382.967628 141.53232 
L 382.704 140.785294 
L 382.776268 140.785294 
L 387.275649 140.785294 
L 387.145671 140.411781 
L 387.214089 140.411781 
L 394.406115 140.411781 
L 394.279105 140.038268 
L 394.341613 140.038268 
L 396.498385 140.038268 
L 396.372402 139.664755 
L 396.433176 139.664755 
L 396.554581 139.664755 
L 396.428774 139.291242 
L 396.48943 139.291242 
L 398.346429 139.291242 
L 398.221537 138.917729 
L 398.280721 138.917729 
L 400.782945 138.917729 
L 400.659268 138.544216 
L 400.773704 138.544216 
L 409.750555 138.544216 
L 409.631196 138.170703 
L 409.732248 138.170703 
L 411.230843 138.170703 
L 411.112354 137.79719 
L 411.211178 137.79719 
L 411.408407 137.79719 
L 411.290148 137.423677 
L 411.388603 137.423677 
L 416.597588 137.423677 
L 416.482105 137.050164 
L 416.573261 137.050164 
L 417.16277 137.050164 
L 417.04772 136.676651 
L 417.138002 136.676651 
L 417.766577 136.676651 
L 417.651981 136.303138 
L 417.741342 136.303138 
L 420.109558 136.303138 
L 419.996343 135.929625 
L 420.082483 135.929625 
L 421.318885 135.929625 
L 421.206456 135.556112 
L 421.290909 135.556112 
L 423.69306 135.556112 
L 423.582065 135.182599 
L 423.663355 135.182599 
L 425.741012 135.182599 
L 425.631291 134.809086 
L 425.70989 134.809086 
L 427.223077 134.809086 
L 427.114326 134.435573 
L 427.229275 134.435573 
L 430.435999 134.435573 
L 430.329231 134.06206 
L 430.438156 134.06206 
L 432.119287 134.06206 
L 432.013636 133.688547 
L 432.119412 133.688547 
L 435.040041 133.688547 
L 434.936266 133.315034 
L 435.036784 133.315034 
L 440.369876 133.315034 
L 440.169231 132.568008 
L 440.260661 132.568008 
L 449.676563 132.568008 
L 449.58254 132.194495 
L 449.684445 132.194495 
L 454.829599 132.194495 
L 454.739241 131.820982 
L 454.830923 131.820982 
L 458.846091 131.820982 
L 458.758697 131.447469 
L 458.863767 131.447469 
L 474.360991 131.447469 
L 474.360991 131.447469 
" style="fill:none;stroke:#2ca02c;stroke-linecap:square;stroke-width:2;"/>
   </g>
   <g id="patch_3">
    <path d="M 76.5 448.56 
L 76.5 60.48 
" style="fill:none;stroke:#000000;stroke-linecap:square;stroke-linejoin:miter;stroke-width:0.8;"/>
   </g>
   <g id="patch_4">
    <path d="M 550.8 448.56 
L 550.8 60.48 
" style="fill:none;stroke:#000000;stroke-linecap:square;stroke-linejoin:miter;stroke-width:0.8;"/>
   </g>
   <g id="patch_5">
    <path d="M 76.5 448.56 
L 550.8 448.56 
" style="fill:none;stroke:#000000;stroke-linecap:square;stroke-linejoin:miter;stroke-width:0.8;"/>
   </g>
   <g id="patch_6">
    <path d="M 76.5 60.48 
L 550.8 60.48 
" style="fill:none;stroke:#000000;stroke-linecap:square;stroke-linejoin:miter;stroke-width:0.8;"/>
   </g>
   <g id="text_25">
    <!-- boat: img1-img4 -->
    <defs>
     <path d="M 48.6875 27.296875 
Q 48.6875 37.203125 44.609375 42.84375 
Q 40.53125 48.484375 33.40625 48.484375 
Q 26.265625 48.484375 22.1875 42.84375 
Q 18.109375 37.203125 18.109375 27.296875 
Q 18.109375 17.390625 22.1875 11.75 
Q 26.265625 6.109375 33.40625 6.109375 
Q 40.53125 6.109375 44.609375 11.75 
Q 48.6875 17.390625 48.6875 27.296875 
z
M 18.109375 46.390625 
Q 20.953125 51.265625 25.265625 53.625 
Q 29.59375 56 35.59375 56 
Q 45.5625 56 51.78125 48.09375 
Q 58.015625 40.1875 58.015625 27.296875 
Q 58.015625 14.40625 51.78125 6.484375 
Q 45.5625 -1.421875 35.59375 -1.421875 
Q 29.59375 -1.421875 25.265625 0.953125 
Q 20.953125 3.328125 18.109375 8.203125 
L 18.109375 0 
L 9.078125 0 
L 9.078125 75.984375 
L 18.109375 75.984375 
z
" id="DejaVuSans-98"/>
     <path d="M 34.28125 27.484375 
Q 23.390625 27.484375 19.1875 25 
Q 14.984375 22.515625 14.984375 16.5 
Q 14.984375 11.71875 18.140625 8.90625 
Q 21.296875 6.109375 26.703125 6.109375 
Q 34.1875 6.109375 38.703125 11.40625 
Q 43.21875 16.703125 43.21875 25.484375 
L 43.21875 27.484375 
z
M 52.203125 31.203125 
L 52.203125 0 
L 43.21875 0 
L 43.21875 8.296875 
Q 40.140625 3.328125 35.546875 0.953125 
Q 30.953125 -1.421875 24.3125 -1.421875 
Q 15.921875 -1.421875 10.953125 3.296875 
Q 6 8.015625 6 15.921875 
Q 6 25.140625 12.171875 29.828125 
Q 18.359375 34.515625 30.609375 34.515625 
L 43.21875 34.515625 
L 43.21875 35.40625 
Q 43.21875 41.609375 39.140625 45 
Q 35.0625 48.390625 27.6875 48.390625 
Q 23 48.390625 18.546875 47.265625 
Q 14.109375 46.140625 10.015625 43.890625 
L 10.015625 52.203125 
Q 14.9375 54.109375 19.578125 55.046875 
Q 24.21875 56 28.609375 56 
Q 40.484375 56 46.34375 49.84375 
Q 52.203125 43.703125 52.203125 31.203125 
z
" id="DejaVuSans-97"/>
     <path d="M 11.71875 12.40625 
L 22.015625 12.40625 
L 22.015625 0 
L 11.71875 0 
z
M 11.71875 51.703125 
L 22.015625 51.703125 
L 22.015625 39.3125 
L 11.71875 39.3125 
z
" id="DejaVuSans-58"/>
     <path id="DejaVuSans-32"/>
     <path d="M 52 44.1875 
Q 55.375 50.25 60.0625 53.125 
Q 64.75 56 71.09375 56 
Q 79.640625 56 84.28125 50.015625 
Q 88.921875 44.046875 88.921875 33.015625 
L 88.921875 0 
L 79.890625 0 
L 79.890625 32.71875 
Q 79.890625 40.578125 77.09375 44.375 
Q 74.3125 48.1875 68.609375 48.1875 
Q 61.625 48.1875 57.5625 43.546875 
Q 53.515625 38.921875 53.515625 30.90625 
L 53.515625 0 
L 44.484375 0 
L 44.484375 32.71875 
Q 44.484375 40.625 41.703125 44.40625 
Q 38.921875 48.1875 33.109375 48.1875 
Q 26.21875 48.1875 22.15625 43.53125 
Q 18.109375 38.875 18.109375 30.90625 
L 18.109375 0 
L 9.078125 0 
L 9.078125 54.6875 
L 18.109375 54.6875 
L 18.109375 46.1875 
Q 21.1875 51.21875 25.484375 53.609375 
Q 29.78125 56 35.6875 56 
Q 41.65625 56 45.828125 52.96875 
Q 50 49.953125 52 44.1875 
z
" id="DejaVuSans-109"/>
     <path d="M 45.40625 27.984375 
Q 45.40625 37.75 41.375 43.109375 
Q 37.359375 48.484375 30.078125 48.484375 
Q 22.859375 48.484375 18.828125 43.109375 
Q 14.796875 37.75 14.796875 27.984375 
Q 14.796875 18.265625 18.828125 12.890625 
Q 22.859375 7.515625 30.078125 7.515625 
Q 37.359375 7.515625 41.375 12.890625 
Q 45.40625 18.265625 45.40625 27.984375 
z
M 54.390625 6.78125 
Q 54.390625 -7.171875 48.1875 -13.984375 
Q 42 -20.796875 29.203125 -20.796875 
Q 24.46875 -20.796875 20.265625 -20.09375 
Q 16.0625 -19.390625 12.109375 -17.921875 
L 12.109375 -9.1875 
Q 16.0625 -11.328125 19.921875 -12.34375 
Q 23.78125 -13.375 27.78125 -13.375 
Q 36.625 -13.375 41.015625 -8.765625 
Q 45.40625 -4.15625 45.40625 5.171875 
L 45.40625 9.625 
Q 42.625 4.78125 38.28125 2.390625 
Q 33.9375 0 27.875 0 
Q 17.828125 0 11.671875 7.65625 
Q 5.515625 15.328125 5.515625 27.984375 
Q 5.515625 40.671875 11.671875 48.328125 
Q 17.828125 56 27.875 56 
Q 33.9375 56 38.28125 53.609375 
Q 42.625 51.21875 45.40625 46.390625 
L 45.40625 54.6875 
L 54.390625 54.6875 
z
" id="DejaVuSans-103"/>
    </defs>
    <g transform="translate(263.772188 41.042625)scale(0.12 -0.12)">
     <use xlink:href="#DejaVuSans-98"/>
     <use x="63.476562" xlink:href="#DejaVuSans-111"/>
     <use x="124.658203" xlink:href="#DejaVuSans-97"/>
     <use x="185.9375" xlink:href="#DejaVuSans-116"/>
     <use x="225.146484" xlink:href="#DejaVuSans-58"/>
     <use x="258.837891" xlink:href="#DejaVuSans-32"/>
     <use x="290.625" xlink:href="#DejaVuSans-105"/>
     <use x="318.408203" xlink:href="#DejaVuSans-109"/>
     <use x="415.820312" xlink:href="#DejaVuSans-103"/>
     <use x="479.296875" xlink:href="#DejaVuSans-49"/>
     <use x="542.919922" xlink:href="#DejaVuSans-45"/>
     <use x="579.003906" xlink:href="#DejaVuSans-105"/>
     <use x="606.787109" xlink:href="#DejaVuSans-109"/>
     <use x="704.199219" xlink:href="#DejaVuSans-103"/>
     <use x="767.675781" xlink:href="#DejaVuSans-52"/>
    </g>
    <!-- NearestNeighbours -->
    <defs>
     <path d="M 9.8125 72.90625 
L 23.09375 72.90625 
L 55.421875 11.921875 
L 55.421875 72.90625 
L 64.984375 72.90625 
L 64.984375 0 
L 51.703125 0 
L 19.390625 60.984375 
L 19.390625 0 
L 9.8125 0 
z
" id="DejaVuSans-78"/>
     <path d="M 54.890625 33.015625 
L 54.890625 0 
L 45.90625 0 
L 45.90625 32.71875 
Q 45.90625 40.484375 42.875 44.328125 
Q 39.84375 48.1875 33.796875 48.1875 
Q 26.515625 48.1875 22.3125 43.546875 
Q 18.109375 38.921875 18.109375 30.90625 
L 18.109375 0 
L 9.078125 0 
L 9.078125 75.984375 
L 18.109375 75.984375 
L 18.109375 46.1875 
Q 21.34375 51.125 25.703125 53.5625 
Q 30.078125 56 35.796875 56 
Q 45.21875 56 50.046875 50.171875 
Q 54.890625 44.34375 54.890625 33.015625 
z
" id="DejaVuSans-104"/>
     <path d="M 8.5 21.578125 
L 8.5 54.6875 
L 17.484375 54.6875 
L 17.484375 21.921875 
Q 17.484375 14.15625 20.5 10.265625 
Q 23.53125 6.390625 29.59375 6.390625 
Q 36.859375 6.390625 41.078125 11.03125 
Q 45.3125 15.671875 45.3125 23.6875 
L 45.3125 54.6875 
L 54.296875 54.6875 
L 54.296875 0 
L 45.3125 0 
L 45.3125 8.40625 
Q 42.046875 3.421875 37.71875 1 
Q 33.40625 -1.421875 27.6875 -1.421875 
Q 18.265625 -1.421875 13.375 4.4375 
Q 8.5 10.296875 8.5 21.578125 
z
M 31.109375 56 
z
" id="DejaVuSans-117"/>
    </defs>
    <g transform="translate(255.824063 54.48)scale(0.12 -0.12)">
     <use xlink:href="#DejaVuSans-78"/>
     <use x="74.804688" xlink:href="#DejaVuSans-101"/>
     <use x="136.328125" xlink:href="#DejaVuSans-97"/>
     <use x="197.607422" xlink:href="#DejaVuSans-114"/>
     <use x="238.689453" xlink:href="#DejaVuSans-101"/>
     <use x="300.212891" xlink:href="#DejaVuSans-115"/>
     <use x="352.3125" xlink:href="#DejaVuSans-116"/>
     <use x="391.521484" xlink:href="#DejaVuSans-78"/>
     <use x="466.326172" xlink:href="#DejaVuSans-101"/>
     <use x="527.849609" xlink:href="#DejaVuSans-105"/>
     <use x="555.632812" xlink:href="#DejaVuSans-103"/>
     <use x="619.109375" xlink:href="#DejaVuSans-104"/>
     <use x="682.488281" xlink:href="#DejaVuSans-98"/>
     <use x="745.964844" xlink:href="#DejaVuSans-111"/>
     <use x="807.146484" xlink:href="#DejaVuSans-117"/>
     <use x="870.525391" xlink:href="#DejaVuSans-114"/>
     <use x="911.638672" xlink:href="#DejaVuSans-115"/>
    </g>
   </g>
   <g id="legend_1">
    <g id="patch_7">
     <path d="M 362.264063 112.514375 
L 543.8 112.514375 
Q 545.8 112.514375 545.8 110.514375 
L 545.8 67.48 
Q 545.8 65.48 543.8 65.48 
L 362.264063 65.48 
Q 360.264063 65.48 360.264063 67.48 
L 360.264063 110.514375 
Q 360.264063 112.514375 362.264063 112.514375 
z
" style="fill:#ffffff;opacity:0.8;stroke:#cccccc;stroke-linejoin:miter;"/>
    </g>
    <g id="line2d_48">
     <path d="M 364.264063 73.578438 
L 384.264063 73.578438 
" style="fill:none;stroke:#1f77b4;stroke-linecap:square;stroke-width:2;"/>
    </g>
    <g id="line2d_49"/>
    <g id="text_26">
     <!-- root-cvsift AP: 62.8, %In: 14.6 -->
     <defs>
      <path d="M 2.984375 54.6875 
L 12.5 54.6875 
L 29.59375 8.796875 
L 46.6875 54.6875 
L 56.203125 54.6875 
L 35.6875 0 
L 23.484375 0 
z
" id="DejaVuSans-118"/>
      <path d="M 37.109375 75.984375 
L 37.109375 68.5 
L 28.515625 68.5 
Q 23.6875 68.5 21.796875 66.546875 
Q 19.921875 64.59375 19.921875 59.515625 
L 19.921875 54.6875 
L 34.71875 54.6875 
L 34.71875 47.703125 
L 19.921875 47.703125 
L 19.921875 0 
L 10.890625 0 
L 10.890625 47.703125 
L 2.296875 47.703125 
L 2.296875 54.6875 
L 10.890625 54.6875 
L 10.890625 58.5 
Q 10.890625 67.625 15.140625 71.796875 
Q 19.390625 75.984375 28.609375 75.984375 
z
" id="DejaVuSans-102"/>
      <path d="M 34.1875 63.1875 
L 20.796875 26.90625 
L 47.609375 26.90625 
z
M 28.609375 72.90625 
L 39.796875 72.90625 
L 67.578125 0 
L 57.328125 0 
L 50.6875 18.703125 
L 17.828125 18.703125 
L 11.1875 0 
L 0.78125 0 
z
" id="DejaVuSans-65"/>
      <path d="M 19.671875 64.796875 
L 19.671875 37.40625 
L 32.078125 37.40625 
Q 38.96875 37.40625 42.71875 40.96875 
Q 46.484375 44.53125 46.484375 51.125 
Q 46.484375 57.671875 42.71875 61.234375 
Q 38.96875 64.796875 32.078125 64.796875 
z
M 9.8125 72.90625 
L 32.078125 72.90625 
Q 44.34375 72.90625 50.609375 67.359375 
Q 56.890625 61.8125 56.890625 51.125 
Q 56.890625 40.328125 50.609375 34.8125 
Q 44.34375 29.296875 32.078125 29.296875 
L 19.671875 29.296875 
L 19.671875 0 
L 9.8125 0 
z
" id="DejaVuSans-80"/>
      <path d="M 11.71875 12.40625 
L 22.015625 12.40625 
L 22.015625 4 
L 14.015625 -11.625 
L 7.71875 -11.625 
L 11.71875 4 
z
" id="DejaVuSans-44"/>
      <path d="M 72.703125 32.078125 
Q 68.453125 32.078125 66.03125 28.46875 
Q 63.625 24.859375 63.625 18.40625 
Q 63.625 12.0625 66.03125 8.421875 
Q 68.453125 4.78125 72.703125 4.78125 
Q 76.859375 4.78125 79.265625 8.421875 
Q 81.6875 12.0625 81.6875 18.40625 
Q 81.6875 24.8125 79.265625 28.4375 
Q 76.859375 32.078125 72.703125 32.078125 
z
M 72.703125 38.28125 
Q 80.421875 38.28125 84.953125 32.90625 
Q 89.5 27.546875 89.5 18.40625 
Q 89.5 9.28125 84.9375 3.921875 
Q 80.375 -1.421875 72.703125 -1.421875 
Q 64.890625 -1.421875 60.34375 3.921875 
Q 55.8125 9.28125 55.8125 18.40625 
Q 55.8125 27.59375 60.375 32.9375 
Q 64.9375 38.28125 72.703125 38.28125 
z
M 22.3125 68.015625 
Q 18.109375 68.015625 15.6875 64.375 
Q 13.28125 60.75 13.28125 54.390625 
Q 13.28125 47.953125 15.671875 44.328125 
Q 18.0625 40.71875 22.3125 40.71875 
Q 26.5625 40.71875 28.96875 44.328125 
Q 31.390625 47.953125 31.390625 54.390625 
Q 31.390625 60.6875 28.953125 64.34375 
Q 26.515625 68.015625 22.3125 68.015625 
z
M 66.40625 74.21875 
L 74.21875 74.21875 
L 28.609375 -1.421875 
L 20.796875 -1.421875 
z
M 22.3125 74.21875 
Q 30.03125 74.21875 34.609375 68.875 
Q 39.203125 63.53125 39.203125 54.390625 
Q 39.203125 45.171875 34.640625 39.84375 
Q 30.078125 34.515625 22.3125 34.515625 
Q 14.546875 34.515625 10.03125 39.859375 
Q 5.515625 45.21875 5.515625 54.390625 
Q 5.515625 63.484375 10.046875 68.84375 
Q 14.59375 74.21875 22.3125 74.21875 
z
" id="DejaVuSans-37"/>
      <path d="M 9.8125 72.90625 
L 19.671875 72.90625 
L 19.671875 0 
L 9.8125 0 
z
" id="DejaVuSans-73"/>
     </defs>
     <g transform="translate(392.264063 77.078438)scale(0.1 -0.1)">
      <use xlink:href="#DejaVuSans-114"/>
      <use x="41.082031" xlink:href="#DejaVuSans-111"/>
      <use x="102.263672" xlink:href="#DejaVuSans-111"/>
      <use x="163.445312" xlink:href="#DejaVuSans-116"/>
      <use x="202.654297" xlink:href="#DejaVuSans-45"/>
      <use x="238.738281" xlink:href="#DejaVuSans-99"/>
      <use x="293.71875" xlink:href="#DejaVuSans-118"/>
      <use x="352.898438" xlink:href="#DejaVuSans-115"/>
      <use x="404.998047" xlink:href="#DejaVuSans-105"/>
      <use x="432.78125" xlink:href="#DejaVuSans-102"/>
      <use x="467.970703" xlink:href="#DejaVuSans-116"/>
      <use x="507.179688" xlink:href="#DejaVuSans-32"/>
      <use x="538.966797" xlink:href="#DejaVuSans-65"/>
      <use x="607.375" xlink:href="#DejaVuSans-80"/>
      <use x="667.677734" xlink:href="#DejaVuSans-58"/>
      <use x="701.369141" xlink:href="#DejaVuSans-32"/>
      <use x="733.15625" xlink:href="#DejaVuSans-54"/>
      <use x="796.779297" xlink:href="#DejaVuSans-50"/>
      <use x="860.402344" xlink:href="#DejaVuSans-46"/>
      <use x="892.189453" xlink:href="#DejaVuSans-56"/>
      <use x="955.8125" xlink:href="#DejaVuSans-44"/>
      <use x="987.599609" xlink:href="#DejaVuSans-32"/>
      <use x="1019.386719" xlink:href="#DejaVuSans-37"/>
      <use x="1114.40625" xlink:href="#DejaVuSans-73"/>
      <use x="1143.898438" xlink:href="#DejaVuSans-110"/>
      <use x="1207.277344" xlink:href="#DejaVuSans-58"/>
      <use x="1240.96875" xlink:href="#DejaVuSans-32"/>
      <use x="1272.755859" xlink:href="#DejaVuSans-49"/>
      <use x="1336.378906" xlink:href="#DejaVuSans-52"/>
      <use x="1400.001953" xlink:href="#DejaVuSans-46"/>
      <use x="1431.789062" xlink:href="#DejaVuSans-54"/>
     </g>
    </g>
    <g id="line2d_50">
     <path d="M 364.264063 88.256563 
L 384.264063 88.256563 
" style="fill:none;stroke:#ff7f0e;stroke-linecap:square;stroke-width:2;"/>
    </g>
    <g id="line2d_51"/>
    <g id="text_27">
     <!-- tfeat AP: 41.9, %In: 11.7 -->
     <g transform="translate(392.264063 91.756563)scale(0.1 -0.1)">
      <use xlink:href="#DejaVuSans-116"/>
      <use x="39.208984" xlink:href="#DejaVuSans-102"/>
      <use x="74.414062" xlink:href="#DejaVuSans-101"/>
      <use x="135.9375" xlink:href="#DejaVuSans-97"/>
      <use x="197.216797" xlink:href="#DejaVuSans-116"/>
      <use x="236.425781" xlink:href="#DejaVuSans-32"/>
      <use x="268.212891" xlink:href="#DejaVuSans-65"/>
      <use x="336.621094" xlink:href="#DejaVuSans-80"/>
      <use x="396.923828" xlink:href="#DejaVuSans-58"/>
      <use x="430.615234" xlink:href="#DejaVuSans-32"/>
      <use x="462.402344" xlink:href="#DejaVuSans-52"/>
      <use x="526.025391" xlink:href="#DejaVuSans-49"/>
      <use x="589.648438" xlink:href="#DejaVuSans-46"/>
      <use x="621.435547" xlink:href="#DejaVuSans-57"/>
      <use x="685.058594" xlink:href="#DejaVuSans-44"/>
      <use x="716.845703" xlink:href="#DejaVuSans-32"/>
      <use x="748.632812" xlink:href="#DejaVuSans-37"/>
      <use x="843.652344" xlink:href="#DejaVuSans-73"/>
      <use x="873.144531" xlink:href="#DejaVuSans-110"/>
      <use x="936.523438" xlink:href="#DejaVuSans-58"/>
      <use x="970.214844" xlink:href="#DejaVuSans-32"/>
      <use x="1002.001953" xlink:href="#DejaVuSans-49"/>
      <use x="1065.625" xlink:href="#DejaVuSans-49"/>
      <use x="1129.248047" xlink:href="#DejaVuSans-46"/>
      <use x="1161.035156" xlink:href="#DejaVuSans-55"/>
     </g>
    </g>
    <g id="line2d_52">
     <path d="M 364.264063 102.934687 
L 384.264063 102.934687 
" style="fill:none;stroke:#2ca02c;stroke-linecap:square;stroke-width:2;"/>
    </g>
    <g id="line2d_53"/>
    <g id="text_28">
     <!-- hardnet AP: 73.2, %In: 16.1 -->
     <defs>
      <path d="M 45.40625 46.390625 
L 45.40625 75.984375 
L 54.390625 75.984375 
L 54.390625 0 
L 45.40625 0 
L 45.40625 8.203125 
Q 42.578125 3.328125 38.25 0.953125 
Q 33.9375 -1.421875 27.875 -1.421875 
Q 17.96875 -1.421875 11.734375 6.484375 
Q 5.515625 14.40625 5.515625 27.296875 
Q 5.515625 40.1875 11.734375 48.09375 
Q 17.96875 56 27.875 56 
Q 33.9375 56 38.25 53.625 
Q 42.578125 51.265625 45.40625 46.390625 
z
M 14.796875 27.296875 
Q 14.796875 17.390625 18.875 11.75 
Q 22.953125 6.109375 30.078125 6.109375 
Q 37.203125 6.109375 41.296875 11.75 
Q 45.40625 17.390625 45.40625 27.296875 
Q 45.40625 37.203125 41.296875 42.84375 
Q 37.203125 48.484375 30.078125 48.484375 
Q 22.953125 48.484375 18.875 42.84375 
Q 14.796875 37.203125 14.796875 27.296875 
z
" id="DejaVuSans-100"/>
     </defs>
     <g transform="translate(392.264063 106.434687)scale(0.1 -0.1)">
      <use xlink:href="#DejaVuSans-104"/>
      <use x="63.378906" xlink:href="#DejaVuSans-97"/>
      <use x="124.658203" xlink:href="#DejaVuSans-114"/>
      <use x="165.755859" xlink:href="#DejaVuSans-100"/>
      <use x="229.232422" xlink:href="#DejaVuSans-110"/>
      <use x="292.611328" xlink:href="#DejaVuSans-101"/>
      <use x="354.134766" xlink:href="#DejaVuSans-116"/>
      <use x="393.34375" xlink:href="#DejaVuSans-32"/>
      <use x="425.130859" xlink:href="#DejaVuSans-65"/>
      <use x="493.539062" xlink:href="#DejaVuSans-80"/>
      <use x="553.841797" xlink:href="#DejaVuSans-58"/>
      <use x="587.533203" xlink:href="#DejaVuSans-32"/>
      <use x="619.320312" xlink:href="#DejaVuSans-55"/>
      <use x="682.943359" xlink:href="#DejaVuSans-51"/>
      <use x="746.566406" xlink:href="#DejaVuSans-46"/>
      <use x="778.353516" xlink:href="#DejaVuSans-50"/>
      <use x="841.976562" xlink:href="#DejaVuSans-44"/>
      <use x="873.763672" xlink:href="#DejaVuSans-32"/>
      <use x="905.550781" xlink:href="#DejaVuSans-37"/>
      <use x="1000.570312" xlink:href="#DejaVuSans-73"/>
      <use x="1030.0625" xlink:href="#DejaVuSans-110"/>
      <use x="1093.441406" xlink:href="#DejaVuSans-58"/>
      <use x="1127.132812" xlink:href="#DejaVuSans-32"/>
      <use x="1158.919922" xlink:href="#DejaVuSans-49"/>
      <use x="1222.542969" xlink:href="#DejaVuSans-54"/>
      <use x="1286.166016" xlink:href="#DejaVuSans-46"/>
      <use x="1317.953125" xlink:href="#DejaVuSans-49"/>
     </g>
    </g>
   </g>
  </g>
 </g>
 <defs>
  <clipPath id="pf3e64fba13">
   <rect height="388.08" width="474.3" x="76.5" y="60.48"/>
  </clipPath>
 </defs>
</svg>
