<?xml version="1.0" encoding="utf-8" standalone="no"?>
<!DOCTYPE svg PUBLIC "-//W3C//DTD SVG 1.1//EN"
  "http://www.w3.org/Graphics/SVG/1.1/DTD/svg11.dtd">
<!-- Created with matplotlib (https://matplotlib.org/) -->
<svg height="504pt" version="1.1" viewBox="0 0 612 504" width="612pt" xmlns="http://www.w3.org/2000/svg" xmlns:xlink="http://www.w3.org/1999/xlink">
 <defs>
  <style type="text/css">
*{stroke-linecap:butt;stroke-linejoin:round;}
  </style>
 </defs>
 <g id="figure_1">
  <g id="patch_1">
   <path d="M 0 504 
L 612 504 
L 612 0 
L 0 0 
z
" style="fill:#ffffff;"/>
  </g>
  <g id="axes_1">
   <g id="patch_2">
    <path d="M 76.5 448.56 
L 550.8 448.56 
L 550.8 60.48 
L 76.5 60.48 
z
" style="fill:#ffffff;"/>
   </g>
   <g id="matplotlib.axis_1">
    <g id="xtick_1">
     <g id="line2d_1">
      <path clip-path="url(#p21750a4e6d)" d="M 76.5 448.56 
L 76.5 60.48 
" style="fill:none;stroke:#b0b0b0;stroke-linecap:square;stroke-width:0.8;"/>
     </g>
     <g id="line2d_2">
      <defs>
       <path d="M 0 0 
L 0 3.5 
" id="m5022dd38e1" style="stroke:#000000;stroke-width:0.8;"/>
      </defs>
      <g>
       <use style="stroke:#000000;stroke-width:0.8;" x="76.5" xlink:href="#m5022dd38e1" y="448.56"/>
      </g>
     </g>
     <g id="text_1">
      <!-- 0.0 -->
      <defs>
       <path d="M 31.78125 66.40625 
Q 24.171875 66.40625 20.328125 58.90625 
Q 16.5 51.421875 16.5 36.375 
Q 16.5 21.390625 20.328125 13.890625 
Q 24.171875 6.390625 31.78125 6.390625 
Q 39.453125 6.390625 43.28125 13.890625 
Q 47.125 21.390625 47.125 36.375 
Q 47.125 51.421875 43.28125 58.90625 
Q 39.453125 66.40625 31.78125 66.40625 
z
M 31.78125 74.21875 
Q 44.046875 74.21875 50.515625 64.515625 
Q 56.984375 54.828125 56.984375 36.375 
Q 56.984375 17.96875 50.515625 8.265625 
Q 44.046875 -1.421875 31.78125 -1.421875 
Q 19.53125 -1.421875 13.0625 8.265625 
Q 6.59375 17.96875 6.59375 36.375 
Q 6.59375 54.828125 13.0625 64.515625 
Q 19.53125 74.21875 31.78125 74.21875 
z
" id="DejaVuSans-48"/>
       <path d="M 10.6875 12.40625 
L 21 12.40625 
L 21 0 
L 10.6875 0 
z
" id="DejaVuSans-46"/>
      </defs>
      <g transform="translate(68.548438 463.158437)scale(0.1 -0.1)">
       <use xlink:href="#DejaVuSans-48"/>
       <use x="63.623047" xlink:href="#DejaVuSans-46"/>
       <use x="95.410156" xlink:href="#DejaVuSans-48"/>
      </g>
     </g>
    </g>
    <g id="xtick_2">
     <g id="line2d_3">
      <path clip-path="url(#p21750a4e6d)" d="M 123.93 448.56 
L 123.93 60.48 
" style="fill:none;stroke:#b0b0b0;stroke-linecap:square;stroke-width:0.8;"/>
     </g>
     <g id="line2d_4">
      <g>
       <use style="stroke:#000000;stroke-width:0.8;" x="123.93" xlink:href="#m5022dd38e1" y="448.56"/>
      </g>
     </g>
     <g id="text_2">
      <!-- 0.1 -->
      <defs>
       <path d="M 12.40625 8.296875 
L 28.515625 8.296875 
L 28.515625 63.921875 
L 10.984375 60.40625 
L 10.984375 69.390625 
L 28.421875 72.90625 
L 38.28125 72.90625 
L 38.28125 8.296875 
L 54.390625 8.296875 
L 54.390625 0 
L 12.40625 0 
z
" id="DejaVuSans-49"/>
      </defs>
      <g transform="translate(115.978438 463.158437)scale(0.1 -0.1)">
       <use xlink:href="#DejaVuSans-48"/>
       <use x="63.623047" xlink:href="#DejaVuSans-46"/>
       <use x="95.410156" xlink:href="#DejaVuSans-49"/>
      </g>
     </g>
    </g>
    <g id="xtick_3">
     <g id="line2d_5">
      <path clip-path="url(#p21750a4e6d)" d="M 171.36 448.56 
L 171.36 60.48 
" style="fill:none;stroke:#b0b0b0;stroke-linecap:square;stroke-width:0.8;"/>
     </g>
     <g id="line2d_6">
      <g>
       <use style="stroke:#000000;stroke-width:0.8;" x="171.36" xlink:href="#m5022dd38e1" y="448.56"/>
      </g>
     </g>
     <g id="text_3">
      <!-- 0.2 -->
      <defs>
       <path d="M 19.1875 8.296875 
L 53.609375 8.296875 
L 53.609375 0 
L 7.328125 0 
L 7.328125 8.296875 
Q 12.9375 14.109375 22.625 23.890625 
Q 32.328125 33.6875 34.8125 36.53125 
Q 39.546875 41.84375 41.421875 45.53125 
Q 43.3125 49.21875 43.3125 52.78125 
Q 43.3125 58.59375 39.234375 62.25 
Q 35.15625 65.921875 28.609375 65.921875 
Q 23.96875 65.921875 18.8125 64.3125 
Q 13.671875 62.703125 7.8125 59.421875 
L 7.8125 69.390625 
Q 13.765625 71.78125 18.9375 73 
Q 24.125 74.21875 28.421875 74.21875 
Q 39.75 74.21875 46.484375 68.546875 
Q 53.21875 62.890625 53.21875 53.421875 
Q 53.21875 48.921875 51.53125 44.890625 
Q 49.859375 40.875 45.40625 35.40625 
Q 44.1875 33.984375 37.640625 27.21875 
Q 31.109375 20.453125 19.1875 8.296875 
z
" id="DejaVuSans-50"/>
      </defs>
      <g transform="translate(163.408438 463.158437)scale(0.1 -0.1)">
       <use xlink:href="#DejaVuSans-48"/>
       <use x="63.623047" xlink:href="#DejaVuSans-46"/>
       <use x="95.410156" xlink:href="#DejaVuSans-50"/>
      </g>
     </g>
    </g>
    <g id="xtick_4">
     <g id="line2d_7">
      <path clip-path="url(#p21750a4e6d)" d="M 218.79 448.56 
L 218.79 60.48 
" style="fill:none;stroke:#b0b0b0;stroke-linecap:square;stroke-width:0.8;"/>
     </g>
     <g id="line2d_8">
      <g>
       <use style="stroke:#000000;stroke-width:0.8;" x="218.79" xlink:href="#m5022dd38e1" y="448.56"/>
      </g>
     </g>
     <g id="text_4">
      <!-- 0.3 -->
      <defs>
       <path d="M 40.578125 39.3125 
Q 47.65625 37.796875 51.625 33 
Q 55.609375 28.21875 55.609375 21.1875 
Q 55.609375 10.40625 48.1875 4.484375 
Q 40.765625 -1.421875 27.09375 -1.421875 
Q 22.515625 -1.421875 17.65625 -0.515625 
Q 12.796875 0.390625 7.625 2.203125 
L 7.625 11.71875 
Q 11.71875 9.328125 16.59375 8.109375 
Q 21.484375 6.890625 26.8125 6.890625 
Q 36.078125 6.890625 40.9375 10.546875 
Q 45.796875 14.203125 45.796875 21.1875 
Q 45.796875 27.640625 41.28125 31.265625 
Q 36.765625 34.90625 28.71875 34.90625 
L 20.21875 34.90625 
L 20.21875 43.015625 
L 29.109375 43.015625 
Q 36.375 43.015625 40.234375 45.921875 
Q 44.09375 48.828125 44.09375 54.296875 
Q 44.09375 59.90625 40.109375 62.90625 
Q 36.140625 65.921875 28.71875 65.921875 
Q 24.65625 65.921875 20.015625 65.03125 
Q 15.375 64.15625 9.8125 62.3125 
L 9.8125 71.09375 
Q 15.4375 72.65625 20.34375 73.4375 
Q 25.25 74.21875 29.59375 74.21875 
Q 40.828125 74.21875 47.359375 69.109375 
Q 53.90625 64.015625 53.90625 55.328125 
Q 53.90625 49.265625 50.4375 45.09375 
Q 46.96875 40.921875 40.578125 39.3125 
z
" id="DejaVuSans-51"/>
      </defs>
      <g transform="translate(210.838438 463.158437)scale(0.1 -0.1)">
       <use xlink:href="#DejaVuSans-48"/>
       <use x="63.623047" xlink:href="#DejaVuSans-46"/>
       <use x="95.410156" xlink:href="#DejaVuSans-51"/>
      </g>
     </g>
    </g>
    <g id="xtick_5">
     <g id="line2d_9">
      <path clip-path="url(#p21750a4e6d)" d="M 266.22 448.56 
L 266.22 60.48 
" style="fill:none;stroke:#b0b0b0;stroke-linecap:square;stroke-width:0.8;"/>
     </g>
     <g id="line2d_10">
      <g>
       <use style="stroke:#000000;stroke-width:0.8;" x="266.22" xlink:href="#m5022dd38e1" y="448.56"/>
      </g>
     </g>
     <g id="text_5">
      <!-- 0.4 -->
      <defs>
       <path d="M 37.796875 64.3125 
L 12.890625 25.390625 
L 37.796875 25.390625 
z
M 35.203125 72.90625 
L 47.609375 72.90625 
L 47.609375 25.390625 
L 58.015625 25.390625 
L 58.015625 17.1875 
L 47.609375 17.1875 
L 47.609375 0 
L 37.796875 0 
L 37.796875 17.1875 
L 4.890625 17.1875 
L 4.890625 26.703125 
z
" id="DejaVuSans-52"/>
      </defs>
      <g transform="translate(258.268438 463.158437)scale(0.1 -0.1)">
       <use xlink:href="#DejaVuSans-48"/>
       <use x="63.623047" xlink:href="#DejaVuSans-46"/>
       <use x="95.410156" xlink:href="#DejaVuSans-52"/>
      </g>
     </g>
    </g>
    <g id="xtick_6">
     <g id="line2d_11">
      <path clip-path="url(#p21750a4e6d)" d="M 313.65 448.56 
L 313.65 60.48 
" style="fill:none;stroke:#b0b0b0;stroke-linecap:square;stroke-width:0.8;"/>
     </g>
     <g id="line2d_12">
      <g>
       <use style="stroke:#000000;stroke-width:0.8;" x="313.65" xlink:href="#m5022dd38e1" y="448.56"/>
      </g>
     </g>
     <g id="text_6">
      <!-- 0.5 -->
      <defs>
       <path d="M 10.796875 72.90625 
L 49.515625 72.90625 
L 49.515625 64.59375 
L 19.828125 64.59375 
L 19.828125 46.734375 
Q 21.96875 47.46875 24.109375 47.828125 
Q 26.265625 48.1875 28.421875 48.1875 
Q 40.625 48.1875 47.75 41.5 
Q 54.890625 34.8125 54.890625 23.390625 
Q 54.890625 11.625 47.5625 5.09375 
Q 40.234375 -1.421875 26.90625 -1.421875 
Q 22.3125 -1.421875 17.546875 -0.640625 
Q 12.796875 0.140625 7.71875 1.703125 
L 7.71875 11.625 
Q 12.109375 9.234375 16.796875 8.0625 
Q 21.484375 6.890625 26.703125 6.890625 
Q 35.15625 6.890625 40.078125 11.328125 
Q 45.015625 15.765625 45.015625 23.390625 
Q 45.015625 31 40.078125 35.4375 
Q 35.15625 39.890625 26.703125 39.890625 
Q 22.75 39.890625 18.8125 39.015625 
Q 14.890625 38.140625 10.796875 36.28125 
z
" id="DejaVuSans-53"/>
      </defs>
      <g transform="translate(305.698438 463.158437)scale(0.1 -0.1)">
       <use xlink:href="#DejaVuSans-48"/>
       <use x="63.623047" xlink:href="#DejaVuSans-46"/>
       <use x="95.410156" xlink:href="#DejaVuSans-53"/>
      </g>
     </g>
    </g>
    <g id="xtick_7">
     <g id="line2d_13">
      <path clip-path="url(#p21750a4e6d)" d="M 361.08 448.56 
L 361.08 60.48 
" style="fill:none;stroke:#b0b0b0;stroke-linecap:square;stroke-width:0.8;"/>
     </g>
     <g id="line2d_14">
      <g>
       <use style="stroke:#000000;stroke-width:0.8;" x="361.08" xlink:href="#m5022dd38e1" y="448.56"/>
      </g>
     </g>
     <g id="text_7">
      <!-- 0.6 -->
      <defs>
       <path d="M 33.015625 40.375 
Q 26.375 40.375 22.484375 35.828125 
Q 18.609375 31.296875 18.609375 23.390625 
Q 18.609375 15.53125 22.484375 10.953125 
Q 26.375 6.390625 33.015625 6.390625 
Q 39.65625 6.390625 43.53125 10.953125 
Q 47.40625 15.53125 47.40625 23.390625 
Q 47.40625 31.296875 43.53125 35.828125 
Q 39.65625 40.375 33.015625 40.375 
z
M 52.59375 71.296875 
L 52.59375 62.3125 
Q 48.875 64.0625 45.09375 64.984375 
Q 41.3125 65.921875 37.59375 65.921875 
Q 27.828125 65.921875 22.671875 59.328125 
Q 17.53125 52.734375 16.796875 39.40625 
Q 19.671875 43.65625 24.015625 45.921875 
Q 28.375 48.1875 33.59375 48.1875 
Q 44.578125 48.1875 50.953125 41.515625 
Q 57.328125 34.859375 57.328125 23.390625 
Q 57.328125 12.15625 50.6875 5.359375 
Q 44.046875 -1.421875 33.015625 -1.421875 
Q 20.359375 -1.421875 13.671875 8.265625 
Q 6.984375 17.96875 6.984375 36.375 
Q 6.984375 53.65625 15.1875 63.9375 
Q 23.390625 74.21875 37.203125 74.21875 
Q 40.921875 74.21875 44.703125 73.484375 
Q 48.484375 72.75 52.59375 71.296875 
z
" id="DejaVuSans-54"/>
      </defs>
      <g transform="translate(353.128438 463.158437)scale(0.1 -0.1)">
       <use xlink:href="#DejaVuSans-48"/>
       <use x="63.623047" xlink:href="#DejaVuSans-46"/>
       <use x="95.410156" xlink:href="#DejaVuSans-54"/>
      </g>
     </g>
    </g>
    <g id="xtick_8">
     <g id="line2d_15">
      <path clip-path="url(#p21750a4e6d)" d="M 408.51 448.56 
L 408.51 60.48 
" style="fill:none;stroke:#b0b0b0;stroke-linecap:square;stroke-width:0.8;"/>
     </g>
     <g id="line2d_16">
      <g>
       <use style="stroke:#000000;stroke-width:0.8;" x="408.51" xlink:href="#m5022dd38e1" y="448.56"/>
      </g>
     </g>
     <g id="text_8">
      <!-- 0.7 -->
      <defs>
       <path d="M 8.203125 72.90625 
L 55.078125 72.90625 
L 55.078125 68.703125 
L 28.609375 0 
L 18.3125 0 
L 43.21875 64.59375 
L 8.203125 64.59375 
z
" id="DejaVuSans-55"/>
      </defs>
      <g transform="translate(400.558438 463.158437)scale(0.1 -0.1)">
       <use xlink:href="#DejaVuSans-48"/>
       <use x="63.623047" xlink:href="#DejaVuSans-46"/>
       <use x="95.410156" xlink:href="#DejaVuSans-55"/>
      </g>
     </g>
    </g>
    <g id="xtick_9">
     <g id="line2d_17">
      <path clip-path="url(#p21750a4e6d)" d="M 455.94 448.56 
L 455.94 60.48 
" style="fill:none;stroke:#b0b0b0;stroke-linecap:square;stroke-width:0.8;"/>
     </g>
     <g id="line2d_18">
      <g>
       <use style="stroke:#000000;stroke-width:0.8;" x="455.94" xlink:href="#m5022dd38e1" y="448.56"/>
      </g>
     </g>
     <g id="text_9">
      <!-- 0.8 -->
      <defs>
       <path d="M 31.78125 34.625 
Q 24.75 34.625 20.71875 30.859375 
Q 16.703125 27.09375 16.703125 20.515625 
Q 16.703125 13.921875 20.71875 10.15625 
Q 24.75 6.390625 31.78125 6.390625 
Q 38.8125 6.390625 42.859375 10.171875 
Q 46.921875 13.96875 46.921875 20.515625 
Q 46.921875 27.09375 42.890625 30.859375 
Q 38.875 34.625 31.78125 34.625 
z
M 21.921875 38.8125 
Q 15.578125 40.375 12.03125 44.71875 
Q 8.5 49.078125 8.5 55.328125 
Q 8.5 64.0625 14.71875 69.140625 
Q 20.953125 74.21875 31.78125 74.21875 
Q 42.671875 74.21875 48.875 69.140625 
Q 55.078125 64.0625 55.078125 55.328125 
Q 55.078125 49.078125 51.53125 44.71875 
Q 48 40.375 41.703125 38.8125 
Q 48.828125 37.15625 52.796875 32.3125 
Q 56.78125 27.484375 56.78125 20.515625 
Q 56.78125 9.90625 50.3125 4.234375 
Q 43.84375 -1.421875 31.78125 -1.421875 
Q 19.734375 -1.421875 13.25 4.234375 
Q 6.78125 9.90625 6.78125 20.515625 
Q 6.78125 27.484375 10.78125 32.3125 
Q 14.796875 37.15625 21.921875 38.8125 
z
M 18.3125 54.390625 
Q 18.3125 48.734375 21.84375 45.5625 
Q 25.390625 42.390625 31.78125 42.390625 
Q 38.140625 42.390625 41.71875 45.5625 
Q 45.3125 48.734375 45.3125 54.390625 
Q 45.3125 60.0625 41.71875 63.234375 
Q 38.140625 66.40625 31.78125 66.40625 
Q 25.390625 66.40625 21.84375 63.234375 
Q 18.3125 60.0625 18.3125 54.390625 
z
" id="DejaVuSans-56"/>
      </defs>
      <g transform="translate(447.988438 463.158437)scale(0.1 -0.1)">
       <use xlink:href="#DejaVuSans-48"/>
       <use x="63.623047" xlink:href="#DejaVuSans-46"/>
       <use x="95.410156" xlink:href="#DejaVuSans-56"/>
      </g>
     </g>
    </g>
    <g id="xtick_10">
     <g id="line2d_19">
      <path clip-path="url(#p21750a4e6d)" d="M 503.37 448.56 
L 503.37 60.48 
" style="fill:none;stroke:#b0b0b0;stroke-linecap:square;stroke-width:0.8;"/>
     </g>
     <g id="line2d_20">
      <g>
       <use style="stroke:#000000;stroke-width:0.8;" x="503.37" xlink:href="#m5022dd38e1" y="448.56"/>
      </g>
     </g>
     <g id="text_10">
      <!-- 0.9 -->
      <defs>
       <path d="M 10.984375 1.515625 
L 10.984375 10.5 
Q 14.703125 8.734375 18.5 7.8125 
Q 22.3125 6.890625 25.984375 6.890625 
Q 35.75 6.890625 40.890625 13.453125 
Q 46.046875 20.015625 46.78125 33.40625 
Q 43.953125 29.203125 39.59375 26.953125 
Q 35.25 24.703125 29.984375 24.703125 
Q 19.046875 24.703125 12.671875 31.3125 
Q 6.296875 37.9375 6.296875 49.421875 
Q 6.296875 60.640625 12.9375 67.421875 
Q 19.578125 74.21875 30.609375 74.21875 
Q 43.265625 74.21875 49.921875 64.515625 
Q 56.59375 54.828125 56.59375 36.375 
Q 56.59375 19.140625 48.40625 8.859375 
Q 40.234375 -1.421875 26.421875 -1.421875 
Q 22.703125 -1.421875 18.890625 -0.6875 
Q 15.09375 0.046875 10.984375 1.515625 
z
M 30.609375 32.421875 
Q 37.25 32.421875 41.125 36.953125 
Q 45.015625 41.5 45.015625 49.421875 
Q 45.015625 57.28125 41.125 61.84375 
Q 37.25 66.40625 30.609375 66.40625 
Q 23.96875 66.40625 20.09375 61.84375 
Q 16.21875 57.28125 16.21875 49.421875 
Q 16.21875 41.5 20.09375 36.953125 
Q 23.96875 32.421875 30.609375 32.421875 
z
" id="DejaVuSans-57"/>
      </defs>
      <g transform="translate(495.418438 463.158437)scale(0.1 -0.1)">
       <use xlink:href="#DejaVuSans-48"/>
       <use x="63.623047" xlink:href="#DejaVuSans-46"/>
       <use x="95.410156" xlink:href="#DejaVuSans-57"/>
      </g>
     </g>
    </g>
    <g id="xtick_11">
     <g id="line2d_21">
      <path clip-path="url(#p21750a4e6d)" d="M 550.8 448.56 
L 550.8 60.48 
" style="fill:none;stroke:#b0b0b0;stroke-linecap:square;stroke-width:0.8;"/>
     </g>
     <g id="line2d_22">
      <g>
       <use style="stroke:#000000;stroke-width:0.8;" x="550.8" xlink:href="#m5022dd38e1" y="448.56"/>
      </g>
     </g>
     <g id="text_11">
      <!-- 1.0 -->
      <g transform="translate(542.848438 463.158437)scale(0.1 -0.1)">
       <use xlink:href="#DejaVuSans-49"/>
       <use x="63.623047" xlink:href="#DejaVuSans-46"/>
       <use x="95.410156" xlink:href="#DejaVuSans-48"/>
      </g>
     </g>
    </g>
    <g id="text_12">
     <!-- 1-precision -->
     <defs>
      <path d="M 4.890625 31.390625 
L 31.203125 31.390625 
L 31.203125 23.390625 
L 4.890625 23.390625 
z
" id="DejaVuSans-45"/>
      <path d="M 18.109375 8.203125 
L 18.109375 -20.796875 
L 9.078125 -20.796875 
L 9.078125 54.6875 
L 18.109375 54.6875 
L 18.109375 46.390625 
Q 20.953125 51.265625 25.265625 53.625 
Q 29.59375 56 35.59375 56 
Q 45.5625 56 51.78125 48.09375 
Q 58.015625 40.1875 58.015625 27.296875 
Q 58.015625 14.40625 51.78125 6.484375 
Q 45.5625 -1.421875 35.59375 -1.421875 
Q 29.59375 -1.421875 25.265625 0.953125 
Q 20.953125 3.328125 18.109375 8.203125 
z
M 48.6875 27.296875 
Q 48.6875 37.203125 44.609375 42.84375 
Q 40.53125 48.484375 33.40625 48.484375 
Q 26.265625 48.484375 22.1875 42.84375 
Q 18.109375 37.203125 18.109375 27.296875 
Q 18.109375 17.390625 22.1875 11.75 
Q 26.265625 6.109375 33.40625 6.109375 
Q 40.53125 6.109375 44.609375 11.75 
Q 48.6875 17.390625 48.6875 27.296875 
z
" id="DejaVuSans-112"/>
      <path d="M 41.109375 46.296875 
Q 39.59375 47.171875 37.8125 47.578125 
Q 36.03125 48 33.890625 48 
Q 26.265625 48 22.1875 43.046875 
Q 18.109375 38.09375 18.109375 28.8125 
L 18.109375 0 
L 9.078125 0 
L 9.078125 54.6875 
L 18.109375 54.6875 
L 18.109375 46.1875 
Q 20.953125 51.171875 25.484375 53.578125 
Q 30.03125 56 36.53125 56 
Q 37.453125 56 38.578125 55.875 
Q 39.703125 55.765625 41.0625 55.515625 
z
" id="DejaVuSans-114"/>
      <path d="M 56.203125 29.59375 
L 56.203125 25.203125 
L 14.890625 25.203125 
Q 15.484375 15.921875 20.484375 11.0625 
Q 25.484375 6.203125 34.421875 6.203125 
Q 39.59375 6.203125 44.453125 7.46875 
Q 49.3125 8.734375 54.109375 11.28125 
L 54.109375 2.78125 
Q 49.265625 0.734375 44.1875 -0.34375 
Q 39.109375 -1.421875 33.890625 -1.421875 
Q 20.796875 -1.421875 13.15625 6.1875 
Q 5.515625 13.8125 5.515625 26.8125 
Q 5.515625 40.234375 12.765625 48.109375 
Q 20.015625 56 32.328125 56 
Q 43.359375 56 49.78125 48.890625 
Q 56.203125 41.796875 56.203125 29.59375 
z
M 47.21875 32.234375 
Q 47.125 39.59375 43.09375 43.984375 
Q 39.0625 48.390625 32.421875 48.390625 
Q 24.90625 48.390625 20.390625 44.140625 
Q 15.875 39.890625 15.1875 32.171875 
z
" id="DejaVuSans-101"/>
      <path d="M 48.78125 52.59375 
L 48.78125 44.1875 
Q 44.96875 46.296875 41.140625 47.34375 
Q 37.3125 48.390625 33.40625 48.390625 
Q 24.65625 48.390625 19.8125 42.84375 
Q 14.984375 37.3125 14.984375 27.296875 
Q 14.984375 17.28125 19.8125 11.734375 
Q 24.65625 6.203125 33.40625 6.203125 
Q 37.3125 6.203125 41.140625 7.25 
Q 44.96875 8.296875 48.78125 10.40625 
L 48.78125 2.09375 
Q 45.015625 0.34375 40.984375 -0.53125 
Q 36.96875 -1.421875 32.421875 -1.421875 
Q 20.0625 -1.421875 12.78125 6.34375 
Q 5.515625 14.109375 5.515625 27.296875 
Q 5.515625 40.671875 12.859375 48.328125 
Q 20.21875 56 33.015625 56 
Q 37.15625 56 41.109375 55.140625 
Q 45.0625 54.296875 48.78125 52.59375 
z
" id="DejaVuSans-99"/>
      <path d="M 9.421875 54.6875 
L 18.40625 54.6875 
L 18.40625 0 
L 9.421875 0 
z
M 9.421875 75.984375 
L 18.40625 75.984375 
L 18.40625 64.59375 
L 9.421875 64.59375 
z
" id="DejaVuSans-105"/>
      <path d="M 44.28125 53.078125 
L 44.28125 44.578125 
Q 40.484375 46.53125 36.375 47.5 
Q 32.28125 48.484375 27.875 48.484375 
Q 21.1875 48.484375 17.84375 46.4375 
Q 14.5 44.390625 14.5 40.28125 
Q 14.5 37.15625 16.890625 35.375 
Q 19.28125 33.59375 26.515625 31.984375 
L 29.59375 31.296875 
Q 39.15625 29.25 43.1875 25.515625 
Q 47.21875 21.78125 47.21875 15.09375 
Q 47.21875 7.46875 41.1875 3.015625 
Q 35.15625 -1.421875 24.609375 -1.421875 
Q 20.21875 -1.421875 15.453125 -0.5625 
Q 10.6875 0.296875 5.421875 2 
L 5.421875 11.28125 
Q 10.40625 8.6875 15.234375 7.390625 
Q 20.0625 6.109375 24.8125 6.109375 
Q 31.15625 6.109375 34.5625 8.28125 
Q 37.984375 10.453125 37.984375 14.40625 
Q 37.984375 18.0625 35.515625 20.015625 
Q 33.0625 21.96875 24.703125 23.78125 
L 21.578125 24.515625 
Q 13.234375 26.265625 9.515625 29.90625 
Q 5.8125 33.546875 5.8125 39.890625 
Q 5.8125 47.609375 11.28125 51.796875 
Q 16.75 56 26.8125 56 
Q 31.78125 56 36.171875 55.265625 
Q 40.578125 54.546875 44.28125 53.078125 
z
" id="DejaVuSans-115"/>
      <path d="M 30.609375 48.390625 
Q 23.390625 48.390625 19.1875 42.75 
Q 14.984375 37.109375 14.984375 27.296875 
Q 14.984375 17.484375 19.15625 11.84375 
Q 23.34375 6.203125 30.609375 6.203125 
Q 37.796875 6.203125 41.984375 11.859375 
Q 46.1875 17.53125 46.1875 27.296875 
Q 46.1875 37.015625 41.984375 42.703125 
Q 37.796875 48.390625 30.609375 48.390625 
z
M 30.609375 56 
Q 42.328125 56 49.015625 48.375 
Q 55.71875 40.765625 55.71875 27.296875 
Q 55.71875 13.875 49.015625 6.21875 
Q 42.328125 -1.421875 30.609375 -1.421875 
Q 18.84375 -1.421875 12.171875 6.21875 
Q 5.515625 13.875 5.515625 27.296875 
Q 5.515625 40.765625 12.171875 48.375 
Q 18.84375 56 30.609375 56 
z
" id="DejaVuSans-111"/>
      <path d="M 54.890625 33.015625 
L 54.890625 0 
L 45.90625 0 
L 45.90625 32.71875 
Q 45.90625 40.484375 42.875 44.328125 
Q 39.84375 48.1875 33.796875 48.1875 
Q 26.515625 48.1875 22.3125 43.546875 
Q 18.109375 38.921875 18.109375 30.90625 
L 18.109375 0 
L 9.078125 0 
L 9.078125 54.6875 
L 18.109375 54.6875 
L 18.109375 46.1875 
Q 21.34375 51.125 25.703125 53.5625 
Q 30.078125 56 35.796875 56 
Q 45.21875 56 50.046875 50.171875 
Q 54.890625 44.34375 54.890625 33.015625 
z
" id="DejaVuSans-110"/>
     </defs>
     <g transform="translate(286 476.836563)scale(0.1 -0.1)">
      <use xlink:href="#DejaVuSans-49"/>
      <use x="63.623047" xlink:href="#DejaVuSans-45"/>
      <use x="99.707031" xlink:href="#DejaVuSans-112"/>
      <use x="163.183594" xlink:href="#DejaVuSans-114"/>
      <use x="204.265625" xlink:href="#DejaVuSans-101"/>
      <use x="265.789062" xlink:href="#DejaVuSans-99"/>
      <use x="320.769531" xlink:href="#DejaVuSans-105"/>
      <use x="348.552734" xlink:href="#DejaVuSans-115"/>
      <use x="400.652344" xlink:href="#DejaVuSans-105"/>
      <use x="428.435547" xlink:href="#DejaVuSans-111"/>
      <use x="489.617188" xlink:href="#DejaVuSans-110"/>
     </g>
    </g>
   </g>
   <g id="matplotlib.axis_2">
    <g id="ytick_1">
     <g id="line2d_23">
      <path clip-path="url(#p21750a4e6d)" d="M 76.5 448.56 
L 550.8 448.56 
" style="fill:none;stroke:#b0b0b0;stroke-linecap:square;stroke-width:0.8;"/>
     </g>
     <g id="line2d_24">
      <defs>
       <path d="M 0 0 
L -3.5 0 
" id="mc8683547c6" style="stroke:#000000;stroke-width:0.8;"/>
      </defs>
      <g>
       <use style="stroke:#000000;stroke-width:0.8;" x="76.5" xlink:href="#mc8683547c6" y="448.56"/>
      </g>
     </g>
     <g id="text_13">
      <!-- 0.0 -->
      <g transform="translate(53.596875 452.359219)scale(0.1 -0.1)">
       <use xlink:href="#DejaVuSans-48"/>
       <use x="63.623047" xlink:href="#DejaVuSans-46"/>
       <use x="95.410156" xlink:href="#DejaVuSans-48"/>
      </g>
     </g>
    </g>
    <g id="ytick_2">
     <g id="line2d_25">
      <path clip-path="url(#p21750a4e6d)" d="M 76.5 409.752 
L 550.8 409.752 
" style="fill:none;stroke:#b0b0b0;stroke-linecap:square;stroke-width:0.8;"/>
     </g>
     <g id="line2d_26">
      <g>
       <use style="stroke:#000000;stroke-width:0.8;" x="76.5" xlink:href="#mc8683547c6" y="409.752"/>
      </g>
     </g>
     <g id="text_14">
      <!-- 0.1 -->
      <g transform="translate(53.596875 413.551219)scale(0.1 -0.1)">
       <use xlink:href="#DejaVuSans-48"/>
       <use x="63.623047" xlink:href="#DejaVuSans-46"/>
       <use x="95.410156" xlink:href="#DejaVuSans-49"/>
      </g>
     </g>
    </g>
    <g id="ytick_3">
     <g id="line2d_27">
      <path clip-path="url(#p21750a4e6d)" d="M 76.5 370.944 
L 550.8 370.944 
" style="fill:none;stroke:#b0b0b0;stroke-linecap:square;stroke-width:0.8;"/>
     </g>
     <g id="line2d_28">
      <g>
       <use style="stroke:#000000;stroke-width:0.8;" x="76.5" xlink:href="#mc8683547c6" y="370.944"/>
      </g>
     </g>
     <g id="text_15">
      <!-- 0.2 -->
      <g transform="translate(53.596875 374.743219)scale(0.1 -0.1)">
       <use xlink:href="#DejaVuSans-48"/>
       <use x="63.623047" xlink:href="#DejaVuSans-46"/>
       <use x="95.410156" xlink:href="#DejaVuSans-50"/>
      </g>
     </g>
    </g>
    <g id="ytick_4">
     <g id="line2d_29">
      <path clip-path="url(#p21750a4e6d)" d="M 76.5 332.136 
L 550.8 332.136 
" style="fill:none;stroke:#b0b0b0;stroke-linecap:square;stroke-width:0.8;"/>
     </g>
     <g id="line2d_30">
      <g>
       <use style="stroke:#000000;stroke-width:0.8;" x="76.5" xlink:href="#mc8683547c6" y="332.136"/>
      </g>
     </g>
     <g id="text_16">
      <!-- 0.3 -->
      <g transform="translate(53.596875 335.935219)scale(0.1 -0.1)">
       <use xlink:href="#DejaVuSans-48"/>
       <use x="63.623047" xlink:href="#DejaVuSans-46"/>
       <use x="95.410156" xlink:href="#DejaVuSans-51"/>
      </g>
     </g>
    </g>
    <g id="ytick_5">
     <g id="line2d_31">
      <path clip-path="url(#p21750a4e6d)" d="M 76.5 293.328 
L 550.8 293.328 
" style="fill:none;stroke:#b0b0b0;stroke-linecap:square;stroke-width:0.8;"/>
     </g>
     <g id="line2d_32">
      <g>
       <use style="stroke:#000000;stroke-width:0.8;" x="76.5" xlink:href="#mc8683547c6" y="293.328"/>
      </g>
     </g>
     <g id="text_17">
      <!-- 0.4 -->
      <g transform="translate(53.596875 297.127219)scale(0.1 -0.1)">
       <use xlink:href="#DejaVuSans-48"/>
       <use x="63.623047" xlink:href="#DejaVuSans-46"/>
       <use x="95.410156" xlink:href="#DejaVuSans-52"/>
      </g>
     </g>
    </g>
    <g id="ytick_6">
     <g id="line2d_33">
      <path clip-path="url(#p21750a4e6d)" d="M 76.5 254.52 
L 550.8 254.52 
" style="fill:none;stroke:#b0b0b0;stroke-linecap:square;stroke-width:0.8;"/>
     </g>
     <g id="line2d_34">
      <g>
       <use style="stroke:#000000;stroke-width:0.8;" x="76.5" xlink:href="#mc8683547c6" y="254.52"/>
      </g>
     </g>
     <g id="text_18">
      <!-- 0.5 -->
      <g transform="translate(53.596875 258.319219)scale(0.1 -0.1)">
       <use xlink:href="#DejaVuSans-48"/>
       <use x="63.623047" xlink:href="#DejaVuSans-46"/>
       <use x="95.410156" xlink:href="#DejaVuSans-53"/>
      </g>
     </g>
    </g>
    <g id="ytick_7">
     <g id="line2d_35">
      <path clip-path="url(#p21750a4e6d)" d="M 76.5 215.712 
L 550.8 215.712 
" style="fill:none;stroke:#b0b0b0;stroke-linecap:square;stroke-width:0.8;"/>
     </g>
     <g id="line2d_36">
      <g>
       <use style="stroke:#000000;stroke-width:0.8;" x="76.5" xlink:href="#mc8683547c6" y="215.712"/>
      </g>
     </g>
     <g id="text_19">
      <!-- 0.6 -->
      <g transform="translate(53.596875 219.511219)scale(0.1 -0.1)">
       <use xlink:href="#DejaVuSans-48"/>
       <use x="63.623047" xlink:href="#DejaVuSans-46"/>
       <use x="95.410156" xlink:href="#DejaVuSans-54"/>
      </g>
     </g>
    </g>
    <g id="ytick_8">
     <g id="line2d_37">
      <path clip-path="url(#p21750a4e6d)" d="M 76.5 176.904 
L 550.8 176.904 
" style="fill:none;stroke:#b0b0b0;stroke-linecap:square;stroke-width:0.8;"/>
     </g>
     <g id="line2d_38">
      <g>
       <use style="stroke:#000000;stroke-width:0.8;" x="76.5" xlink:href="#mc8683547c6" y="176.904"/>
      </g>
     </g>
     <g id="text_20">
      <!-- 0.7 -->
      <g transform="translate(53.596875 180.703219)scale(0.1 -0.1)">
       <use xlink:href="#DejaVuSans-48"/>
       <use x="63.623047" xlink:href="#DejaVuSans-46"/>
       <use x="95.410156" xlink:href="#DejaVuSans-55"/>
      </g>
     </g>
    </g>
    <g id="ytick_9">
     <g id="line2d_39">
      <path clip-path="url(#p21750a4e6d)" d="M 76.5 138.096 
L 550.8 138.096 
" style="fill:none;stroke:#b0b0b0;stroke-linecap:square;stroke-width:0.8;"/>
     </g>
     <g id="line2d_40">
      <g>
       <use style="stroke:#000000;stroke-width:0.8;" x="76.5" xlink:href="#mc8683547c6" y="138.096"/>
      </g>
     </g>
     <g id="text_21">
      <!-- 0.8 -->
      <g transform="translate(53.596875 141.895219)scale(0.1 -0.1)">
       <use xlink:href="#DejaVuSans-48"/>
       <use x="63.623047" xlink:href="#DejaVuSans-46"/>
       <use x="95.410156" xlink:href="#DejaVuSans-56"/>
      </g>
     </g>
    </g>
    <g id="ytick_10">
     <g id="line2d_41">
      <path clip-path="url(#p21750a4e6d)" d="M 76.5 99.288 
L 550.8 99.288 
" style="fill:none;stroke:#b0b0b0;stroke-linecap:square;stroke-width:0.8;"/>
     </g>
     <g id="line2d_42">
      <g>
       <use style="stroke:#000000;stroke-width:0.8;" x="76.5" xlink:href="#mc8683547c6" y="99.288"/>
      </g>
     </g>
     <g id="text_22">
      <!-- 0.9 -->
      <g transform="translate(53.596875 103.087219)scale(0.1 -0.1)">
       <use xlink:href="#DejaVuSans-48"/>
       <use x="63.623047" xlink:href="#DejaVuSans-46"/>
       <use x="95.410156" xlink:href="#DejaVuSans-57"/>
      </g>
     </g>
    </g>
    <g id="ytick_11">
     <g id="line2d_43">
      <path clip-path="url(#p21750a4e6d)" d="M 76.5 60.48 
L 550.8 60.48 
" style="fill:none;stroke:#b0b0b0;stroke-linecap:square;stroke-width:0.8;"/>
     </g>
     <g id="line2d_44">
      <g>
       <use style="stroke:#000000;stroke-width:0.8;" x="76.5" xlink:href="#mc8683547c6" y="60.48"/>
      </g>
     </g>
     <g id="text_23">
      <!-- 1.0 -->
      <g transform="translate(53.596875 64.279219)scale(0.1 -0.1)">
       <use xlink:href="#DejaVuSans-49"/>
       <use x="63.623047" xlink:href="#DejaVuSans-46"/>
       <use x="95.410156" xlink:href="#DejaVuSans-48"/>
      </g>
     </g>
    </g>
    <g id="text_24">
     <!-- #correct/353 -->
     <defs>
      <path d="M 51.125 44 
L 36.921875 44 
L 32.8125 27.6875 
L 47.125 27.6875 
z
M 43.796875 71.78125 
L 38.71875 51.515625 
L 52.984375 51.515625 
L 58.109375 71.78125 
L 65.921875 71.78125 
L 60.890625 51.515625 
L 76.125 51.515625 
L 76.125 44 
L 58.984375 44 
L 54.984375 27.6875 
L 70.515625 27.6875 
L 70.515625 20.21875 
L 53.078125 20.21875 
L 48 0 
L 40.1875 0 
L 45.21875 20.21875 
L 30.90625 20.21875 
L 25.875 0 
L 18.015625 0 
L 23.09375 20.21875 
L 7.71875 20.21875 
L 7.71875 27.6875 
L 24.90625 27.6875 
L 29 44 
L 13.28125 44 
L 13.28125 51.515625 
L 30.90625 51.515625 
L 35.890625 71.78125 
z
" id="DejaVuSans-35"/>
      <path d="M 18.3125 70.21875 
L 18.3125 54.6875 
L 36.8125 54.6875 
L 36.8125 47.703125 
L 18.3125 47.703125 
L 18.3125 18.015625 
Q 18.3125 11.328125 20.140625 9.421875 
Q 21.96875 7.515625 27.59375 7.515625 
L 36.8125 7.515625 
L 36.8125 0 
L 27.59375 0 
Q 17.1875 0 13.234375 3.875 
Q 9.28125 7.765625 9.28125 18.015625 
L 9.28125 47.703125 
L 2.6875 47.703125 
L 2.6875 54.6875 
L 9.28125 54.6875 
L 9.28125 70.21875 
z
" id="DejaVuSans-116"/>
      <path d="M 25.390625 72.90625 
L 33.6875 72.90625 
L 8.296875 -9.28125 
L 0 -9.28125 
z
" id="DejaVuSans-47"/>
     </defs>
     <g transform="translate(47.517187 287.641094)rotate(-90)scale(0.1 -0.1)">
      <use xlink:href="#DejaVuSans-35"/>
      <use x="83.789062" xlink:href="#DejaVuSans-99"/>
      <use x="138.769531" xlink:href="#DejaVuSans-111"/>
      <use x="199.951172" xlink:href="#DejaVuSans-114"/>
      <use x="241.048828" xlink:href="#DejaVuSans-114"/>
      <use x="282.130859" xlink:href="#DejaVuSans-101"/>
      <use x="343.654297" xlink:href="#DejaVuSans-99"/>
      <use x="398.634766" xlink:href="#DejaVuSans-116"/>
      <use x="437.84375" xlink:href="#DejaVuSans-47"/>
      <use x="471.535156" xlink:href="#DejaVuSans-51"/>
      <use x="535.158203" xlink:href="#DejaVuSans-53"/>
      <use x="598.78125" xlink:href="#DejaVuSans-51"/>
     </g>
    </g>
   </g>
   <g id="line2d_45">
    <path clip-path="url(#p21750a4e6d)" d="M 550.8 448.56 
L 519.18 447.460623 
L 521.15625 447.460623 
L 542.895 447.460623 
L 535.24918 446.361246 
L 535.978125 446.361246 
L 544.796203 446.361246 
L 538.9425 444.162493 
L 539.160736 444.162493 
L 542.828571 444.162493 
L 540.877406 443.063116 
L 541.080738 443.063116 
L 542.207609 443.063116 
L 540.526354 441.963739 
L 540.708511 441.963739 
L 540.986897 441.963739 
L 537.805479 439.764986 
L 537.981081 439.764986 
L 538.979439 439.764986 
L 537.543168 438.665609 
L 537.705828 438.665609 
L 538.741525 438.665609 
L 537.439437 437.566232 
L 537.588301 437.566232 
L 538.792405 437.566232 
L 537.625 436.466856 
L 537.75675 436.466856 
L 539.231707 436.466856 
L 538.207965 435.367479 
L 538.345733 435.367479 
L 540.708511 435.367479 
L 539.886903 434.268102 
L 540.020455 434.268102 
L 540.540599 434.268102 
L 539.769767 433.168725 
L 539.896552 433.168725 
L 540.739091 433.168725 
L 540.036762 432.069348 
L 540.165471 432.069348 
L 541.146676 432.069348 
L 539.889175 429.870595 
L 540.006024 429.870595 
L 540.48913 429.870595 
L 539.378327 427.671841 
L 539.421591 427.671841 
L 540.853311 427.671841 
L 540.341345 426.572465 
L 540.455398 426.572465 
L 540.544865 426.572465 
L 539.567922 424.373711 
L 539.663821 424.373711 
L 540.075848 424.373711 
L 539.599897 423.274334 
L 539.71372 423.274334 
L 540.972162 423.274334 
L 540.554095 422.174958 
L 540.672598 422.174958 
L 540.823488 422.174958 
L 540.4169 421.075581 
L 540.533766 421.075581 
L 540.682679 421.075581 
L 540.286957 419.976204 
L 540.402192 419.976204 
L 542.004137 419.976204 
L 541.394618 417.77745 
L 541.454187 417.77745 
L 541.753406 417.77745 
L 541.436692 416.678074 
L 541.550034 416.678074 
L 541.648503 416.678074 
L 541.339229 415.578697 
L 541.451117 415.578697 
L 541.572374 415.578697 
L 541.045758 413.379943 
L 541.083227 413.379943 
L 541.378771 413.379943 
L 541.090385 412.280567 
L 541.203495 412.280567 
L 540.91875 411.18119 
L 541.032465 411.18119 
L 541.286018 411.18119 
L 541.011969 410.081813 
L 541.126049 410.081813 
L 541.758333 410.081813 
L 541.30887 407.883059 
L 541.365 407.883059 
L 541.558768 407.883059 
L 541.314 406.783683 
L 541.427457 406.783683 
L 542.155683 406.783683 
L 541.932454 405.684306 
L 542.045764 405.684306 
L 542.152174 405.684306 
L 541.934579 404.584929 
L 542.045039 404.584929 
L 542.219267 404.584929 
L 542.008725 403.485552 
L 542.118616 403.485552 
L 543.206755 403.485552 
L 543.02459 402.386176 
L 543.135283 402.386176 
L 543.35861 402.386176 
L 543.184279 401.286799 
L 543.296358 401.286799 
L 543.367456 401.286799 
L 543.197377 400.187422 
L 543.309261 400.187422 
L 543.601242 400.187422 
L 543.440172 399.088045 
L 543.55017 399.088045 
L 544.026436 399.088045 
L 543.878109 397.988669 
L 543.988323 397.988669 
L 544.15431 397.988669 
L 543.965296 395.789915 
L 543.979629 395.789915 
L 544.995207 395.789915 
L 544.995207 395.789915 
" style="fill:none;stroke:#1f77b4;stroke-linecap:square;stroke-width:2;"/>
   </g>
   <g id="line2d_46">
    <path clip-path="url(#p21750a4e6d)" d="M 550.8 448.56 
L 537.248571 447.460623 
L 538.318421 447.460623 
L 541.5 447.460623 
L 532.557692 446.361246 
L 533.233333 446.361246 
L 536.427273 446.361246 
L 529.562687 445.26187 
L 530.178261 445.26187 
L 531.308219 445.26187 
L 525.162162 444.162493 
L 525.504 444.162493 
L 530.178261 444.162493 
L 525.3 443.063116 
L 525.571277 443.063116 
L 528.841667 443.063116 
L 524.691743 441.963739 
L 524.929091 441.963739 
L 527.47377 441.963739 
L 523.807317 440.864363 
L 524.025 440.864363 
L 526.023134 440.864363 
L 522.693333 439.764986 
L 522.9 439.764986 
L 536.149807 439.764986 
L 534.381923 438.665609 
L 534.569202 438.665609 
L 534.931227 438.665609 
L 533.233333 437.566232 
L 533.426374 437.566232 
L 535.931661 437.566232 
L 534.495938 436.466856 
L 534.647368 436.466856 
L 534.844954 436.466856 
L 532.058663 434.268102 
L 532.228012 434.268102 
L 536.818367 434.268102 
L 535.776923 433.168725 
L 535.911659 433.168725 
L 535.978125 433.168725 
L 533.039868 429.870595 
L 533.860714 429.870595 
L 532.901887 428.771218 
L 533.01375 428.771218 
L 534.381923 428.771218 
L 533.503071 427.671841 
L 533.634857 427.671841 
L 534.173247 427.671841 
L 533.330387 426.572465 
L 533.458135 426.572465 
L 533.615217 426.572465 
L 532.788608 425.473088 
L 532.917953 425.473088 
L 533.356392 425.473088 
L 532.557692 424.373711 
L 532.684375 424.373711 
L 532.901887 424.373711 
L 532.120377 423.274334 
L 532.247449 423.274334 
L 532.6185 423.274334 
L 531.859567 422.174958 
L 531.984793 422.174958 
L 533.041498 422.174958 
L 531.740031 419.976204 
L 532.530667 419.976204 
L 531.856065 418.876827 
L 531.9675 418.876827 
L 532.294075 418.876827 
L 531.636364 417.77745 
L 531.746341 417.77745 
L 531.855064 417.77745 
L 531.20641 416.678074 
L 531.317422 416.678074 
L 531.749169 416.678074 
L 530.547521 414.47932 
L 530.603159 414.47932 
L 530.95749 414.47932 
L 530.345013 413.379943 
L 530.454692 413.379943 
L 530.536182 413.379943 
L 529.9308 412.280567 
L 530.041512 412.280567 
L 530.784783 412.280567 
L 530.204598 411.18119 
L 530.309276 411.18119 
L 530.692519 411.18119 
L 530.126899 410.081813 
L 530.229368 410.081813 
L 530.254827 410.081813 
L 529.693943 408.982436 
L 529.797786 408.982436 
L 530.128329 408.982436 
L 529.579807 407.883059 
L 529.681949 407.883059 
L 530.226612 407.883059 
L 529.695316 406.783683 
L 529.818161 406.783683 
L 530.818404 406.783683 
L 529.88269 404.584929 
L 529.928713 404.584929 
L 530.552401 404.584929 
L 530.068337 403.485552 
L 530.178261 403.485552 
L 530.8346 403.485552 
L 530.368615 402.386176 
L 530.472857 402.386176 
L 532.006981 402.386176 
L 531.577663 401.286799 
L 531.685754 401.286799 
L 531.739346 401.286799 
L 531.314286 400.187422 
L 531.422841 400.187422 
L 532.083229 400.187422 
L 531.675 399.088045 
L 531.777273 399.088045 
L 533.262202 399.088045 
L 532.887192 397.988669 
L 533.004078 397.988669 
L 533.7947 397.988669 
L 533.096734 395.789915 
L 533.192575 395.789915 
L 533.772027 395.789915 
L 533.430269 394.690538 
L 533.546325 394.690538 
L 533.848359 394.690538 
L 533.194978 392.491785 
L 533.296889 392.491785 
L 533.729217 392.491785 
L 533.134575 390.293031 
L 533.196429 390.293031 
L 533.343125 390.293031 
L 533.026093 389.193654 
L 533.136414 389.193654 
L 535.06769 389.193654 
L 534.786188 388.094278 
L 534.893598 388.094278 
L 536.812601 388.094278 
L 536.565916 386.994901 
L 536.679426 386.994901 
L 536.694424 386.994901 
L 536.450159 385.895524 
L 536.563507 385.895524 
L 536.755792 385.895524 
L 536.516822 384.796147 
L 536.627202 384.796147 
L 536.743076 384.796147 
L 536.508018 383.696771 
L 536.616675 383.696771 
L 537.15607 383.696771 
L 536.931579 382.597394 
L 537.038878 382.597394 
L 537.190244 382.597394 
L 536.598051 379.299263 
L 536.638436 379.299263 
L 536.651847 379.299263 
L 536.223404 377.10051 
L 536.326056 377.10051 
L 536.925338 377.10051 
L 536.718219 376.001133 
L 536.825089 376.001133 
L 536.979338 376.001133 
L 536.776125 374.901756 
L 536.886646 374.901756 
L 537.24279 374.901756 
L 537.046311 373.80238 
L 537.156853 373.80238 
L 537.208597 373.80238 
L 536.914178 371.603626 
L 536.931579 371.603626 
L 537.108866 371.603626 
L 536.919002 370.504249 
L 537.026871 370.504249 
L 537.378198 370.504249 
L 537.194582 369.404873 
L 537.302134 369.404873 
L 537.640231 369.404873 
L 537.217526 366.106742 
L 537.967208 366.106742 
L 537.800793 365.007365 
L 537.912335 365.007365 
L 538.16087 365.007365 
L 537.869067 362.808612 
L 537.945448 362.808612 
L 538.108611 362.808612 
L 537.950309 361.709235 
L 538.059538 361.709235 
L 539.159832 361.709235 
L 539.016149 360.609858 
L 539.124923 360.609858 
L 539.142857 360.609858 
L 538.953335 358.411105 
L 538.967752 358.411105 
L 539.354267 358.411105 
L 539.140299 356.212351 
L 539.191259 356.212351 
L 539.605507 356.212351 
L 539.321808 352.914221 
L 539.325 352.914221 
L 539.353648 352.914221 
L 539.225291 351.814844 
L 539.336556 351.814844 
L 539.38671 351.814844 
L 539.260169 350.715467 
L 539.369537 350.715467 
L 539.53126 350.715467 
L 539.407686 349.616091 
L 539.51908 349.616091 
L 539.916012 349.616091 
L 539.916012 349.616091 
" style="fill:none;stroke:#ff7f0e;stroke-linecap:square;stroke-width:2;"/>
   </g>
   <g id="line2d_47">
    <path clip-path="url(#p21750a4e6d)" d="M 550.8 448.56 
L 455.94 447.460623 
L 498.1 447.460623 
L 455.94 446.361246 
L 464.563636 446.361246 
L 432.225 445.26187 
L 404.861538 444.162493 
L 381.407143 443.063116 
L 443.004545 443.063116 
L 427.069565 441.963739 
L 436.968 441.963739 
L 423.103846 440.864363 
L 432.225 440.864363 
L 419.958621 439.764986 
L 450.947368 439.764986 
L 441.346154 438.665609 
L 449.164286 438.665609 
L 440.497674 437.566232 
L 443.004545 437.566232 
L 434.86 436.466856 
L 459.268421 436.466856 
L 452.668966 435.367479 
L 461.86875 435.367479 
L 455.94 434.268102 
L 457.377273 434.268102 
L 451.692537 433.168725 
L 457.276056 433.168725 
L 451.9875 432.069348 
L 453.341096 432.069348 
L 448.248649 430.969972 
L 450.947368 430.969972 
L 446.084416 429.870595 
L 447.426923 429.870595 
L 442.731646 428.771218 
L 454.874157 428.771218 
L 450.67 427.671841 
L 452.846739 427.671841 
L 448.8 426.572465 
L 451.9875 426.572465 
L 448.116495 425.473088 
L 449.164286 425.473088 
L 445.4 424.373711 
L 465.965854 424.373711 
L 462.825 423.274334 
L 468.156818 423.274334 
L 459.453333 419.976204 
L 471.75 419.976204 
L 469.232484 418.876827 
L 477.201724 418.876827 
L 474.912 417.77745 
L 476.607821 417.77745 
L 474.385 416.678074 
L 476.45027 416.678074 
L 472.172727 414.47932 
L 477.2835 414.47932 
L 475.289552 413.379943 
L 477.830769 413.379943 
L 475.910526 412.280567 
L 476.620379 412.280567 
L 474.733019 411.18119 
L 479.759471 411.18119 
L 477.990789 410.081813 
L 481.918257 410.081813 
L 480.242975 408.982436 
L 483.042857 408.982436 
L 481.435968 407.883059 
L 483.818702 407.883059 
L 482.269962 406.783683 
L 485.260364 406.783683 
L 483.779348 405.684306 
L 484.5 405.684306 
L 483.042857 404.584929 
L 483.523404 404.584929 
L 482.085159 403.485552 
L 483.743793 403.485552 
L 480.954452 401.286799 
L 482.589632 401.286799 
L 481.236 400.187422 
L 482.376393 400.187422 
L 481.05 399.088045 
L 482.391346 399.088045 
L 481.094569 397.988669 
L 481.974132 397.988669 
L 480.699057 396.889292 
L 482.83628 396.889292 
L 481.601216 395.789915 
L 481.810909 395.789915 
L 480.586405 394.690538 
L 481.424776 394.690538 
L 480.219643 393.591161 
L 482.653448 393.591161 
L 481.489685 392.491785 
L 482.852528 392.491785 
L 481.714286 391.392408 
L 483.228493 391.392408 
L 482.117213 390.293031 
L 482.67561 390.293031 
L 481.577838 389.193654 
L 483.042857 389.193654 
L 481.970185 388.094278 
L 483.042857 388.094278 
L 481.989637 386.994901 
L 483.042857 386.994901 
L 482.008397 385.895524 
L 487.037972 385.895524 
L 486.072 384.796147 
L 487.849428 384.796147 
L 486.910274 383.696771 
L 487.055809 383.696771 
L 488.196644 383.696771 
L 487.277679 382.597394 
L 487.419154 382.597394 
L 487.56 382.597394 
L 486.648559 381.498017 
L 486.790487 381.498017 
L 488.04013 381.498017 
L 485.37931 378.199887 
L 485.799572 378.199887 
L 484.925 377.10051 
L 485.065458 377.10051 
L 485.895789 377.10051 
L 485.035714 376.001133 
L 485.173585 376.001133 
L 486.122727 376.001133 
L 485.278144 374.901756 
L 485.412963 374.901756 
L 486.471862 374.901756 
L 485.643636 373.80238 
L 485.775 373.80238 
L 486.423952 373.80238 
L 485.607371 372.703003 
L 485.736978 372.703003 
L 485.994653 372.703003 
L 485.185375 371.603626 
L 485.314793 371.603626 
L 487.318164 371.603626 
L 485.876806 369.404873 
L 486.488136 369.404873 
L 485.717481 368.305496 
L 485.839587 368.305496 
L 486.443309 368.305496 
L 485.682746 367.206119 
L 485.803333 367.206119 
L 491.311525 367.206119 
L 490.012816 365.007365 
L 490.318792 365.007365 
L 489.625628 363.907989 
L 489.727926 363.907989 
L 492.272596 363.907989 
L 491.60736 362.808612 
L 491.701917 362.808612 
L 491.796172 362.808612 
L 491.134873 361.709235 
L 491.22973 361.709235 
L 491.606161 361.709235 
L 490.95142 360.609858 
L 491.045669 360.609858 
L 491.697196 360.609858 
L 490.407764 358.411105 
L 490.501395 358.411105 
L 491.148773 358.411105 
L 489.880734 356.212351 
L 489.97374 356.212351 
L 490.251064 356.212351 
L 488.997273 354.013598 
L 489.090772 354.013598 
L 489.369578 354.013598 
L 488.748722 352.914221 
L 488.841892 352.914221 
L 490.295455 352.914221 
L 489.689605 351.814844 
L 489.778947 351.814844 
L 490.309565 351.814844 
L 489.710709 350.715467 
L 489.798988 350.715467 
L 489.974784 350.715467 
L 488.87561 348.516714 
L 489.316667 348.516714 
L 488.729445 347.417337 
L 488.817614 347.417337 
L 488.993201 347.417337 
L 488.40976 346.31796 
L 488.497881 346.31796 
L 488.585755 346.31796 
L 488.005352 345.218584 
L 488.093671 345.218584 
L 488.61841 345.218584 
L 487.56 343.01983 
L 487.909392 343.01983 
L 487.341931 341.920453 
L 487.429339 341.920453 
L 487.776575 341.920453 
L 487.213953 340.821076 
L 487.30082 340.821076 
L 488.989628 340.821076 
L 488.441833 339.7217 
L 488.524536 339.7217 
L 488.853166 339.7217 
L 488.309881 338.622323 
L 488.392105 338.622323 
L 491.438298 338.622323 
L 490.919625 337.522946 
L 490.994382 337.522946 
L 491.143337 337.522946 
L 490.627612 336.423569 
L 490.70236 336.423569 
L 491.585067 336.423569 
L 491.077628 335.324193 
L 491.150549 335.324193 
L 492.433333 335.324193 
L 491.936993 334.224816 
L 492.007151 334.224816 
L 494.490411 334.224816 
L 494.013797 333.125439 
L 494.078474 333.125439 
L 494.590632 333.125439 
L 494.119278 332.026062 
L 494.183108 332.026062 
L 494.310337 332.026062 
L 493.841414 330.926686 
L 493.905269 330.926686 
L 494.784437 330.926686 
L 493.863106 328.727932 
L 493.925743 328.727932 
L 494.050604 328.727932 
L 493.592763 327.628555 
L 493.655422 327.628555 
L 493.780328 327.628555 
L 492.870229 325.429802 
L 492.933333 325.429802 
L 493.184382 325.429802 
L 492.732936 324.330425 
L 492.795779 324.330425 
L 494.264241 324.330425 
L 493.824025 323.231048 
L 493.884 323.231048 
L 494.18199 323.231048 
L 493.745084 322.131671 
L 493.864196 322.131671 
L 493.923566 322.131671 
L 493.114865 319.932918 
L 493.472417 319.932918 
L 493.042105 318.833541 
L 493.161071 318.833541 
L 493.279548 318.833541 
L 492.424615 316.634788 
L 492.484426 316.634788 
L 492.722449 316.634788 
L 492.298165 315.535411 
L 492.417192 315.535411 
L 492.535736 315.535411 
L 492.113793 314.436034 
L 492.232591 314.436034 
L 492.409889 314.436034 
L 491.990625 313.336657 
L 492.108954 313.336657 
L 492.226807 313.336657 
L 491.453153 311.137904 
L 493.071178 311.137904 
L 492.665953 310.038527 
L 492.778835 310.038527 
L 493.391931 310.038527 
L 492.250048 306.740397 
L 492.306023 306.740397 
L 492.694872 306.740397 
L 492.3 305.64102 
L 492.410795 305.64102 
L 492.685957 305.64102 
L 491.958271 303.442266 
L 492.013521 303.442266 
L 492.178652 303.442266 
L 491.401682 301.243513 
L 491.5125 301.243513 
L 491.951667 301.243513 
L 491.293727 299.044759 
L 491.457958 299.044759 
L 491.076563 297.945382 
L 491.186147 297.945382 
L 493.700615 297.945382 
L 493.334328 296.846006 
L 493.435057 296.846006 
L 493.834465 296.846006 
L 493.109296 294.647252 
L 493.209367 294.647252 
L 493.606202 294.647252 
L 493.247246 293.547875 
L 493.346134 293.547875 
L 493.738311 293.547875 
L 493.382609 292.448499 
L 493.48034 292.448499 
L 493.529082 292.448499 
L 493.174766 291.349122 
L 493.272519 291.349122 
L 493.75635 291.349122 
L 493.405714 290.249745 
L 493.502013 290.249745 
L 493.978702 290.249745 
L 493.631671 289.150368 
L 493.726556 289.150368 
L 495.2479 289.150368 
L 494.909927 288.050992 
L 495 288.050992 
L 495.578469 288.050992 
L 495.244542 286.951615 
L 495.332936 286.951615 
L 495.814117 286.951615 
L 495.483688 285.852238 
L 495.570732 285.852238 
L 496.299689 285.852238 
L 495.974011 284.752861 
L 496.058947 284.752861 
L 497.058023 284.752861 
L 496.73845 283.653484 
L 496.820486 283.653484 
L 497.467916 283.653484 
L 497.152584 282.554108 
L 497.232835 282.554108 
L 498.1 282.554108 
L 497.79 281.454731 
L 497.867841 281.454731 
L 498.1 281.454731 
L 497.484526 279.255977 
L 497.562245 279.255977 
L 497.794049 279.255977 
L 497.488542 278.156601 
L 497.565749 278.156601 
L 497.681142 278.156601 
L 497.37704 277.057224 
L 497.454074 277.057224 
L 498.1 277.057224 
L 497.538166 274.85847 
L 497.613769 274.85847 
L 498.1 274.85847 
L 497.325 271.56034 
L 498.31732 271.56034 
L 497.738298 269.361586 
L 497.847329 269.361586 
L 498.84375 269.361586 
L 498.560107 268.26221 
L 498.665147 268.26221 
L 499.081117 268.26221 
L 498.800332 267.162833 
L 498.90378 267.162833 
L 499.381143 267.162833 
L 498.894299 264.964079 
L 498.928291 264.964079 
L 499.265777 264.964079 
L 498.990897 263.864703 
L 499.091759 263.864703 
L 499.125292 263.864703 
L 498.851393 262.765326 
L 498.952199 262.765326 
L 499.152642 262.765326 
L 498.880489 261.665949 
L 498.980591 261.665949 
L 499.113462 261.665949 
L 498.605758 259.467195 
L 498.67246 259.467195 
L 500.286316 259.467195 
L 500.024072 258.367819 
L 500.118159 258.367819 
L 500.305292 258.367819 
L 500.044649 257.268442 
L 500.138122 257.268442 
L 501.263265 257.268442 
L 501.008458 256.169065 
L 501.097904 256.169065 
L 501.334863 256.169065 
L 501.081834 255.069688 
L 501.170511 255.069688 
L 501.317605 255.069688 
L 500.903191 252.870935 
L 501.225484 252.870935 
L 500.976232 251.771558 
L 501.063796 251.771558 
L 501.439709 251.771558 
L 501.192795 250.672181 
L 501.279118 250.672181 
L 501.336501 250.672181 
L 501.090504 249.572805 
L 501.176705 249.572805 
L 501.291176 249.572805 
L 500.801786 247.374051 
L 500.888039 247.374051 
L 501.651133 247.374051 
L 501.410526 246.274674 
L 501.522078 246.274674 
L 503.032512 246.274674 
L 502.799179 245.175297 
L 502.903985 245.175297 
L 503.164007 245.175297 
L 502.932501 244.075921 
L 503.036167 244.075921 
L 504.947713 244.075921 
L 504.725143 242.976544 
L 504.820684 242.976544 
L 504.91583 242.976544 
L 504.694312 241.877167 
L 504.789474 241.877167 
L 505.096053 241.877167 
L 504.876486 240.77779 
L 504.970399 240.77779 
L 505.017211 240.77779 
L 504.798469 239.678414 
L 504.892206 239.678414 
L 507.784726 239.678414 
L 507.57896 238.579037 
L 507.681818 238.579037 
L 507.763753 238.579037 
L 507.558974 237.47966 
L 507.661393 237.47966 
L 508.502926 237.47966 
L 508.302368 236.380283 
L 508.400787 236.380283 
L 508.943621 236.380283 
L 508.428624 233.082153 
L 508.447927 233.082153 
L 508.75441 233.082153 
L 508.558996 231.982776 
L 508.654263 231.982776 
L 510.333521 231.982776 
L 510.145714 230.883399 
L 510.251036 230.883399 
L 511.174937 230.883399 
L 510.991607 229.784023 
L 511.092091 229.784023 
L 511.619552 229.784023 
L 511.340439 227.585269 
L 511.356765 227.585269 
L 513.311089 227.585269 
L 512.982679 225.386516 
L 513.071591 225.386516 
L 513.596406 225.386516 
L 513.287847 223.187762 
L 513.360069 223.187762 
L 514.761638 223.187762 
L 514.599259 222.088385 
L 514.706243 222.088385 
L 514.905143 222.088385 
L 514.744142 220.989008 
L 514.849762 220.989008 
L 514.993982 220.989008 
L 514.834123 219.889632 
L 514.938713 219.889632 
L 515.890446 219.889632 
L 515.735019 218.790255 
L 515.846298 218.790255 
L 516.499412 218.790255 
L 516.347215 217.690878 
L 516.454138 217.690878 
L 518.649258 217.690878 
L 518.384913 215.492125 
L 518.468296 215.492125 
L 519.436432 215.492125 
L 519.298316 214.392748 
L 519.405998 214.392748 
L 520.606964 214.392748 
L 520.474275 213.293371 
L 520.582614 213.293371 
L 522.652413 213.293371 
L 522.528722 212.193994 
L 522.638028 212.193994 
L 524.799363 212.193994 
L 524.799363 212.193994 
" style="fill:none;stroke:#2ca02c;stroke-linecap:square;stroke-width:2;"/>
   </g>
   <g id="patch_3">
    <path d="M 76.5 448.56 
L 76.5 60.48 
" style="fill:none;stroke:#000000;stroke-linecap:square;stroke-linejoin:miter;stroke-width:0.8;"/>
   </g>
   <g id="patch_4">
    <path d="M 550.8 448.56 
L 550.8 60.48 
" style="fill:none;stroke:#000000;stroke-linecap:square;stroke-linejoin:miter;stroke-width:0.8;"/>
   </g>
   <g id="patch_5">
    <path d="M 76.5 448.56 
L 550.8 448.56 
" style="fill:none;stroke:#000000;stroke-linecap:square;stroke-linejoin:miter;stroke-width:0.8;"/>
   </g>
   <g id="patch_6">
    <path d="M 76.5 60.48 
L 550.8 60.48 
" style="fill:none;stroke:#000000;stroke-linecap:square;stroke-linejoin:miter;stroke-width:0.8;"/>
   </g>
   <g id="text_25">
    <!-- graf: img1-img5 -->
    <defs>
     <path d="M 45.40625 27.984375 
Q 45.40625 37.75 41.375 43.109375 
Q 37.359375 48.484375 30.078125 48.484375 
Q 22.859375 48.484375 18.828125 43.109375 
Q 14.796875 37.75 14.796875 27.984375 
Q 14.796875 18.265625 18.828125 12.890625 
Q 22.859375 7.515625 30.078125 7.515625 
Q 37.359375 7.515625 41.375 12.890625 
Q 45.40625 18.265625 45.40625 27.984375 
z
M 54.390625 6.78125 
Q 54.390625 -7.171875 48.1875 -13.984375 
Q 42 -20.796875 29.203125 -20.796875 
Q 24.46875 -20.796875 20.265625 -20.09375 
Q 16.0625 -19.390625 12.109375 -17.921875 
L 12.109375 -9.1875 
Q 16.0625 -11.328125 19.921875 -12.34375 
Q 23.78125 -13.375 27.78125 -13.375 
Q 36.625 -13.375 41.015625 -8.765625 
Q 45.40625 -4.15625 45.40625 5.171875 
L 45.40625 9.625 
Q 42.625 4.78125 38.28125 2.390625 
Q 33.9375 0 27.875 0 
Q 17.828125 0 11.671875 7.65625 
Q 5.515625 15.328125 5.515625 27.984375 
Q 5.515625 40.671875 11.671875 48.328125 
Q 17.828125 56 27.875 56 
Q 33.9375 56 38.28125 53.609375 
Q 42.625 51.21875 45.40625 46.390625 
L 45.40625 54.6875 
L 54.390625 54.6875 
z
" id="DejaVuSans-103"/>
     <path d="M 34.28125 27.484375 
Q 23.390625 27.484375 19.1875 25 
Q 14.984375 22.515625 14.984375 16.5 
Q 14.984375 11.71875 18.140625 8.90625 
Q 21.296875 6.109375 26.703125 6.109375 
Q 34.1875 6.109375 38.703125 11.40625 
Q 43.21875 16.703125 43.21875 25.484375 
L 43.21875 27.484375 
z
M 52.203125 31.203125 
L 52.203125 0 
L 43.21875 0 
L 43.21875 8.296875 
Q 40.140625 3.328125 35.546875 0.953125 
Q 30.953125 -1.421875 24.3125 -1.421875 
Q 15.921875 -1.421875 10.953125 3.296875 
Q 6 8.015625 6 15.921875 
Q 6 25.140625 12.171875 29.828125 
Q 18.359375 34.515625 30.609375 34.515625 
L 43.21875 34.515625 
L 43.21875 35.40625 
Q 43.21875 41.609375 39.140625 45 
Q 35.0625 48.390625 27.6875 48.390625 
Q 23 48.390625 18.546875 47.265625 
Q 14.109375 46.140625 10.015625 43.890625 
L 10.015625 52.203125 
Q 14.9375 54.109375 19.578125 55.046875 
Q 24.21875 56 28.609375 56 
Q 40.484375 56 46.34375 49.84375 
Q 52.203125 43.703125 52.203125 31.203125 
z
" id="DejaVuSans-97"/>
     <path d="M 37.109375 75.984375 
L 37.109375 68.5 
L 28.515625 68.5 
Q 23.6875 68.5 21.796875 66.546875 
Q 19.921875 64.59375 19.921875 59.515625 
L 19.921875 54.6875 
L 34.71875 54.6875 
L 34.71875 47.703125 
L 19.921875 47.703125 
L 19.921875 0 
L 10.890625 0 
L 10.890625 47.703125 
L 2.296875 47.703125 
L 2.296875 54.6875 
L 10.890625 54.6875 
L 10.890625 58.5 
Q 10.890625 67.625 15.140625 71.796875 
Q 19.390625 75.984375 28.609375 75.984375 
z
" id="DejaVuSans-102"/>
     <path d="M 11.71875 12.40625 
L 22.015625 12.40625 
L 22.015625 0 
L 11.71875 0 
z
M 11.71875 51.703125 
L 22.015625 51.703125 
L 22.015625 39.3125 
L 11.71875 39.3125 
z
" id="DejaVuSans-58"/>
     <path id="DejaVuSans-32"/>
     <path d="M 52 44.1875 
Q 55.375 50.25 60.0625 53.125 
Q 64.75 56 71.09375 56 
Q 79.640625 56 84.28125 50.015625 
Q 88.921875 44.046875 88.921875 33.015625 
L 88.921875 0 
L 79.890625 0 
L 79.890625 32.71875 
Q 79.890625 40.578125 77.09375 44.375 
Q 74.3125 48.1875 68.609375 48.1875 
Q 61.625 48.1875 57.5625 43.546875 
Q 53.515625 38.921875 53.515625 30.90625 
L 53.515625 0 
L 44.484375 0 
L 44.484375 32.71875 
Q 44.484375 40.625 41.703125 44.40625 
Q 38.921875 48.1875 33.109375 48.1875 
Q 26.21875 48.1875 22.15625 43.53125 
Q 18.109375 38.875 18.109375 30.90625 
L 18.109375 0 
L 9.078125 0 
L 9.078125 54.6875 
L 18.109375 54.6875 
L 18.109375 46.1875 
Q 21.1875 51.21875 25.484375 53.609375 
Q 29.78125 56 35.6875 56 
Q 41.65625 56 45.828125 52.96875 
Q 50 49.953125 52 44.1875 
z
" id="DejaVuSans-109"/>
    </defs>
    <g transform="translate(265.219688 41.042625)scale(0.12 -0.12)">
     <use xlink:href="#DejaVuSans-103"/>
     <use x="63.476562" xlink:href="#DejaVuSans-114"/>
     <use x="104.589844" xlink:href="#DejaVuSans-97"/>
     <use x="165.869141" xlink:href="#DejaVuSans-102"/>
     <use x="201.027344" xlink:href="#DejaVuSans-58"/>
     <use x="234.71875" xlink:href="#DejaVuSans-32"/>
     <use x="266.505859" xlink:href="#DejaVuSans-105"/>
     <use x="294.289062" xlink:href="#DejaVuSans-109"/>
     <use x="391.701172" xlink:href="#DejaVuSans-103"/>
     <use x="455.177734" xlink:href="#DejaVuSans-49"/>
     <use x="518.800781" xlink:href="#DejaVuSans-45"/>
     <use x="554.884766" xlink:href="#DejaVuSans-105"/>
     <use x="582.667969" xlink:href="#DejaVuSans-109"/>
     <use x="680.080078" xlink:href="#DejaVuSans-103"/>
     <use x="743.556641" xlink:href="#DejaVuSans-53"/>
    </g>
    <!-- NearestNeighbours -->
    <defs>
     <path d="M 9.8125 72.90625 
L 23.09375 72.90625 
L 55.421875 11.921875 
L 55.421875 72.90625 
L 64.984375 72.90625 
L 64.984375 0 
L 51.703125 0 
L 19.390625 60.984375 
L 19.390625 0 
L 9.8125 0 
z
" id="DejaVuSans-78"/>
     <path d="M 54.890625 33.015625 
L 54.890625 0 
L 45.90625 0 
L 45.90625 32.71875 
Q 45.90625 40.484375 42.875 44.328125 
Q 39.84375 48.1875 33.796875 48.1875 
Q 26.515625 48.1875 22.3125 43.546875 
Q 18.109375 38.921875 18.109375 30.90625 
L 18.109375 0 
L 9.078125 0 
L 9.078125 75.984375 
L 18.109375 75.984375 
L 18.109375 46.1875 
Q 21.34375 51.125 25.703125 53.5625 
Q 30.078125 56 35.796875 56 
Q 45.21875 56 50.046875 50.171875 
Q 54.890625 44.34375 54.890625 33.015625 
z
" id="DejaVuSans-104"/>
     <path d="M 48.6875 27.296875 
Q 48.6875 37.203125 44.609375 42.84375 
Q 40.53125 48.484375 33.40625 48.484375 
Q 26.265625 48.484375 22.1875 42.84375 
Q 18.109375 37.203125 18.109375 27.296875 
Q 18.109375 17.390625 22.1875 11.75 
Q 26.265625 6.109375 33.40625 6.109375 
Q 40.53125 6.109375 44.609375 11.75 
Q 48.6875 17.390625 48.6875 27.296875 
z
M 18.109375 46.390625 
Q 20.953125 51.265625 25.265625 53.625 
Q 29.59375 56 35.59375 56 
Q 45.5625 56 51.78125 48.09375 
Q 58.015625 40.1875 58.015625 27.296875 
Q 58.015625 14.40625 51.78125 6.484375 
Q 45.5625 -1.421875 35.59375 -1.421875 
Q 29.59375 -1.421875 25.265625 0.953125 
Q 20.953125 3.328125 18.109375 8.203125 
L 18.109375 0 
L 9.078125 0 
L 9.078125 75.984375 
L 18.109375 75.984375 
z
" id="DejaVuSans-98"/>
     <path d="M 8.5 21.578125 
L 8.5 54.6875 
L 17.484375 54.6875 
L 17.484375 21.921875 
Q 17.484375 14.15625 20.5 10.265625 
Q 23.53125 6.390625 29.59375 6.390625 
Q 36.859375 6.390625 41.078125 11.03125 
Q 45.3125 15.671875 45.3125 23.6875 
L 45.3125 54.6875 
L 54.296875 54.6875 
L 54.296875 0 
L 45.3125 0 
L 45.3125 8.40625 
Q 42.046875 3.421875 37.71875 1 
Q 33.40625 -1.421875 27.6875 -1.421875 
Q 18.265625 -1.421875 13.375 4.4375 
Q 8.5 10.296875 8.5 21.578125 
z
M 31.109375 56 
z
" id="DejaVuSans-117"/>
    </defs>
    <g transform="translate(255.824063 54.48)scale(0.12 -0.12)">
     <use xlink:href="#DejaVuSans-78"/>
     <use x="74.804688" xlink:href="#DejaVuSans-101"/>
     <use x="136.328125" xlink:href="#DejaVuSans-97"/>
     <use x="197.607422" xlink:href="#DejaVuSans-114"/>
     <use x="238.689453" xlink:href="#DejaVuSans-101"/>
     <use x="300.212891" xlink:href="#DejaVuSans-115"/>
     <use x="352.3125" xlink:href="#DejaVuSans-116"/>
     <use x="391.521484" xlink:href="#DejaVuSans-78"/>
     <use x="466.326172" xlink:href="#DejaVuSans-101"/>
     <use x="527.849609" xlink:href="#DejaVuSans-105"/>
     <use x="555.632812" xlink:href="#DejaVuSans-103"/>
     <use x="619.109375" xlink:href="#DejaVuSans-104"/>
     <use x="682.488281" xlink:href="#DejaVuSans-98"/>
     <use x="745.964844" xlink:href="#DejaVuSans-111"/>
     <use x="807.146484" xlink:href="#DejaVuSans-117"/>
     <use x="870.525391" xlink:href="#DejaVuSans-114"/>
     <use x="911.638672" xlink:href="#DejaVuSans-115"/>
    </g>
   </g>
   <g id="legend_1">
    <g id="patch_7">
     <path d="M 374.989063 112.514375 
L 543.8 112.514375 
Q 545.8 112.514375 545.8 110.514375 
L 545.8 67.48 
Q 545.8 65.48 543.8 65.48 
L 374.989063 65.48 
Q 372.989063 65.48 372.989063 67.48 
L 372.989063 110.514375 
Q 372.989063 112.514375 374.989063 112.514375 
z
" style="fill:#ffffff;opacity:0.8;stroke:#cccccc;stroke-linejoin:miter;"/>
    </g>
    <g id="line2d_48">
     <path d="M 376.989063 73.578438 
L 396.989063 73.578438 
" style="fill:none;stroke:#1f77b4;stroke-linecap:square;stroke-width:2;"/>
    </g>
    <g id="line2d_49"/>
    <g id="text_26">
     <!-- root-cvsift AP: 0.3, %In: 1.2 -->
     <defs>
      <path d="M 2.984375 54.6875 
L 12.5 54.6875 
L 29.59375 8.796875 
L 46.6875 54.6875 
L 56.203125 54.6875 
L 35.6875 0 
L 23.484375 0 
z
" id="DejaVuSans-118"/>
      <path d="M 34.1875 63.1875 
L 20.796875 26.90625 
L 47.609375 26.90625 
z
M 28.609375 72.90625 
L 39.796875 72.90625 
L 67.578125 0 
L 57.328125 0 
L 50.6875 18.703125 
L 17.828125 18.703125 
L 11.1875 0 
L 0.78125 0 
z
" id="DejaVuSans-65"/>
      <path d="M 19.671875 64.796875 
L 19.671875 37.40625 
L 32.078125 37.40625 
Q 38.96875 37.40625 42.71875 40.96875 
Q 46.484375 44.53125 46.484375 51.125 
Q 46.484375 57.671875 42.71875 61.234375 
Q 38.96875 64.796875 32.078125 64.796875 
z
M 9.8125 72.90625 
L 32.078125 72.90625 
Q 44.34375 72.90625 50.609375 67.359375 
Q 56.890625 61.8125 56.890625 51.125 
Q 56.890625 40.328125 50.609375 34.8125 
Q 44.34375 29.296875 32.078125 29.296875 
L 19.671875 29.296875 
L 19.671875 0 
L 9.8125 0 
z
" id="DejaVuSans-80"/>
      <path d="M 11.71875 12.40625 
L 22.015625 12.40625 
L 22.015625 4 
L 14.015625 -11.625 
L 7.71875 -11.625 
L 11.71875 4 
z
" id="DejaVuSans-44"/>
      <path d="M 72.703125 32.078125 
Q 68.453125 32.078125 66.03125 28.46875 
Q 63.625 24.859375 63.625 18.40625 
Q 63.625 12.0625 66.03125 8.421875 
Q 68.453125 4.78125 72.703125 4.78125 
Q 76.859375 4.78125 79.265625 8.421875 
Q 81.6875 12.0625 81.6875 18.40625 
Q 81.6875 24.8125 79.265625 28.4375 
Q 76.859375 32.078125 72.703125 32.078125 
z
M 72.703125 38.28125 
Q 80.421875 38.28125 84.953125 32.90625 
Q 89.5 27.546875 89.5 18.40625 
Q 89.5 9.28125 84.9375 3.921875 
Q 80.375 -1.421875 72.703125 -1.421875 
Q 64.890625 -1.421875 60.34375 3.921875 
Q 55.8125 9.28125 55.8125 18.40625 
Q 55.8125 27.59375 60.375 32.9375 
Q 64.9375 38.28125 72.703125 38.28125 
z
M 22.3125 68.015625 
Q 18.109375 68.015625 15.6875 64.375 
Q 13.28125 60.75 13.28125 54.390625 
Q 13.28125 47.953125 15.671875 44.328125 
Q 18.0625 40.71875 22.3125 40.71875 
Q 26.5625 40.71875 28.96875 44.328125 
Q 31.390625 47.953125 31.390625 54.390625 
Q 31.390625 60.6875 28.953125 64.34375 
Q 26.515625 68.015625 22.3125 68.015625 
z
M 66.40625 74.21875 
L 74.21875 74.21875 
L 28.609375 -1.421875 
L 20.796875 -1.421875 
z
M 22.3125 74.21875 
Q 30.03125 74.21875 34.609375 68.875 
Q 39.203125 63.53125 39.203125 54.390625 
Q 39.203125 45.171875 34.640625 39.84375 
Q 30.078125 34.515625 22.3125 34.515625 
Q 14.546875 34.515625 10.03125 39.859375 
Q 5.515625 45.21875 5.515625 54.390625 
Q 5.515625 63.484375 10.046875 68.84375 
Q 14.59375 74.21875 22.3125 74.21875 
z
" id="DejaVuSans-37"/>
      <path d="M 9.8125 72.90625 
L 19.671875 72.90625 
L 19.671875 0 
L 9.8125 0 
z
" id="DejaVuSans-73"/>
     </defs>
     <g transform="translate(404.989063 77.078438)scale(0.1 -0.1)">
      <use xlink:href="#DejaVuSans-114"/>
      <use x="41.082031" xlink:href="#DejaVuSans-111"/>
      <use x="102.263672" xlink:href="#DejaVuSans-111"/>
      <use x="163.445312" xlink:href="#DejaVuSans-116"/>
      <use x="202.654297" xlink:href="#DejaVuSans-45"/>
      <use x="238.738281" xlink:href="#DejaVuSans-99"/>
      <use x="293.71875" xlink:href="#DejaVuSans-118"/>
      <use x="352.898438" xlink:href="#DejaVuSans-115"/>
      <use x="404.998047" xlink:href="#DejaVuSans-105"/>
      <use x="432.78125" xlink:href="#DejaVuSans-102"/>
      <use x="467.970703" xlink:href="#DejaVuSans-116"/>
      <use x="507.179688" xlink:href="#DejaVuSans-32"/>
      <use x="538.966797" xlink:href="#DejaVuSans-65"/>
      <use x="607.375" xlink:href="#DejaVuSans-80"/>
      <use x="667.677734" xlink:href="#DejaVuSans-58"/>
      <use x="701.369141" xlink:href="#DejaVuSans-32"/>
      <use x="733.15625" xlink:href="#DejaVuSans-48"/>
      <use x="796.779297" xlink:href="#DejaVuSans-46"/>
      <use x="828.566406" xlink:href="#DejaVuSans-51"/>
      <use x="892.189453" xlink:href="#DejaVuSans-44"/>
      <use x="923.976562" xlink:href="#DejaVuSans-32"/>
      <use x="955.763672" xlink:href="#DejaVuSans-37"/>
      <use x="1050.783203" xlink:href="#DejaVuSans-73"/>
      <use x="1080.275391" xlink:href="#DejaVuSans-110"/>
      <use x="1143.654297" xlink:href="#DejaVuSans-58"/>
      <use x="1177.345703" xlink:href="#DejaVuSans-32"/>
      <use x="1209.132812" xlink:href="#DejaVuSans-49"/>
      <use x="1272.755859" xlink:href="#DejaVuSans-46"/>
      <use x="1304.542969" xlink:href="#DejaVuSans-50"/>
     </g>
    </g>
    <g id="line2d_50">
     <path d="M 376.989063 88.256563 
L 396.989063 88.256563 
" style="fill:none;stroke:#ff7f0e;stroke-linecap:square;stroke-width:2;"/>
    </g>
    <g id="line2d_51"/>
    <g id="text_27">
     <!-- tfeat AP: 0.9, %In: 2.3 -->
     <g transform="translate(404.989063 91.756563)scale(0.1 -0.1)">
      <use xlink:href="#DejaVuSans-116"/>
      <use x="39.208984" xlink:href="#DejaVuSans-102"/>
      <use x="74.414062" xlink:href="#DejaVuSans-101"/>
      <use x="135.9375" xlink:href="#DejaVuSans-97"/>
      <use x="197.216797" xlink:href="#DejaVuSans-116"/>
      <use x="236.425781" xlink:href="#DejaVuSans-32"/>
      <use x="268.212891" xlink:href="#DejaVuSans-65"/>
      <use x="336.621094" xlink:href="#DejaVuSans-80"/>
      <use x="396.923828" xlink:href="#DejaVuSans-58"/>
      <use x="430.615234" xlink:href="#DejaVuSans-32"/>
      <use x="462.402344" xlink:href="#DejaVuSans-48"/>
      <use x="526.025391" xlink:href="#DejaVuSans-46"/>
      <use x="557.8125" xlink:href="#DejaVuSans-57"/>
      <use x="621.435547" xlink:href="#DejaVuSans-44"/>
      <use x="653.222656" xlink:href="#DejaVuSans-32"/>
      <use x="685.009766" xlink:href="#DejaVuSans-37"/>
      <use x="780.029297" xlink:href="#DejaVuSans-73"/>
      <use x="809.521484" xlink:href="#DejaVuSans-110"/>
      <use x="872.900391" xlink:href="#DejaVuSans-58"/>
      <use x="906.591797" xlink:href="#DejaVuSans-32"/>
      <use x="938.378906" xlink:href="#DejaVuSans-50"/>
      <use x="1002.001953" xlink:href="#DejaVuSans-46"/>
      <use x="1033.789062" xlink:href="#DejaVuSans-51"/>
     </g>
    </g>
    <g id="line2d_52">
     <path d="M 376.989063 102.934687 
L 396.989063 102.934687 
" style="fill:none;stroke:#2ca02c;stroke-linecap:square;stroke-width:2;"/>
    </g>
    <g id="line2d_53"/>
    <g id="text_28">
     <!-- hardnet AP: 8.0, %In: 5.5 -->
     <defs>
      <path d="M 45.40625 46.390625 
L 45.40625 75.984375 
L 54.390625 75.984375 
L 54.390625 0 
L 45.40625 0 
L 45.40625 8.203125 
Q 42.578125 3.328125 38.25 0.953125 
Q 33.9375 -1.421875 27.875 -1.421875 
Q 17.96875 -1.421875 11.734375 6.484375 
Q 5.515625 14.40625 5.515625 27.296875 
Q 5.515625 40.1875 11.734375 48.09375 
Q 17.96875 56 27.875 56 
Q 33.9375 56 38.25 53.625 
Q 42.578125 51.265625 45.40625 46.390625 
z
M 14.796875 27.296875 
Q 14.796875 17.390625 18.875 11.75 
Q 22.953125 6.109375 30.078125 6.109375 
Q 37.203125 6.109375 41.296875 11.75 
Q 45.40625 17.390625 45.40625 27.296875 
Q 45.40625 37.203125 41.296875 42.84375 
Q 37.203125 48.484375 30.078125 48.484375 
Q 22.953125 48.484375 18.875 42.84375 
Q 14.796875 37.203125 14.796875 27.296875 
z
" id="DejaVuSans-100"/>
     </defs>
     <g transform="translate(404.989063 106.434687)scale(0.1 -0.1)">
      <use xlink:href="#DejaVuSans-104"/>
      <use x="63.378906" xlink:href="#DejaVuSans-97"/>
      <use x="124.658203" xlink:href="#DejaVuSans-114"/>
      <use x="165.755859" xlink:href="#DejaVuSans-100"/>
      <use x="229.232422" xlink:href="#DejaVuSans-110"/>
      <use x="292.611328" xlink:href="#DejaVuSans-101"/>
      <use x="354.134766" xlink:href="#DejaVuSans-116"/>
      <use x="393.34375" xlink:href="#DejaVuSans-32"/>
      <use x="425.130859" xlink:href="#DejaVuSans-65"/>
      <use x="493.539062" xlink:href="#DejaVuSans-80"/>
      <use x="553.841797" xlink:href="#DejaVuSans-58"/>
      <use x="587.533203" xlink:href="#DejaVuSans-32"/>
      <use x="619.320312" xlink:href="#DejaVuSans-56"/>
      <use x="682.943359" xlink:href="#DejaVuSans-46"/>
      <use x="714.730469" xlink:href="#DejaVuSans-48"/>
      <use x="778.353516" xlink:href="#DejaVuSans-44"/>
      <use x="810.140625" xlink:href="#DejaVuSans-32"/>
      <use x="841.927734" xlink:href="#DejaVuSans-37"/>
      <use x="936.947266" xlink:href="#DejaVuSans-73"/>
      <use x="966.439453" xlink:href="#DejaVuSans-110"/>
      <use x="1029.818359" xlink:href="#DejaVuSans-58"/>
      <use x="1063.509766" xlink:href="#DejaVuSans-32"/>
      <use x="1095.296875" xlink:href="#DejaVuSans-53"/>
      <use x="1158.919922" xlink:href="#DejaVuSans-46"/>
      <use x="1190.707031" xlink:href="#DejaVuSans-53"/>
     </g>
    </g>
   </g>
  </g>
 </g>
 <defs>
  <clipPath id="p21750a4e6d">
   <rect height="388.08" width="474.3" x="76.5" y="60.48"/>
  </clipPath>
 </defs>
</svg>
