<?xml version="1.0" encoding="utf-8" standalone="no"?>
<!DOCTYPE svg PUBLIC "-//W3C//DTD SVG 1.1//EN"
  "http://www.w3.org/Graphics/SVG/1.1/DTD/svg11.dtd">
<!-- Created with matplotlib (https://matplotlib.org/) -->
<svg height="504pt" version="1.1" viewBox="0 0 612 504" width="612pt" xmlns="http://www.w3.org/2000/svg" xmlns:xlink="http://www.w3.org/1999/xlink">
 <defs>
  <style type="text/css">
*{stroke-linecap:butt;stroke-linejoin:round;}
  </style>
 </defs>
 <g id="figure_1">
  <g id="patch_1">
   <path d="M 0 504 
L 612 504 
L 612 0 
L 0 0 
z
" style="fill:#ffffff;"/>
  </g>
  <g id="axes_1">
   <g id="patch_2">
    <path d="M 76.5 448.56 
L 550.8 448.56 
L 550.8 60.48 
L 76.5 60.48 
z
" style="fill:#ffffff;"/>
   </g>
   <g id="matplotlib.axis_1">
    <g id="xtick_1">
     <g id="line2d_1">
      <path clip-path="url(#pebbecfa258)" d="M 76.5 448.56 
L 76.5 60.48 
" style="fill:none;stroke:#b0b0b0;stroke-linecap:square;stroke-width:0.8;"/>
     </g>
     <g id="line2d_2">
      <defs>
       <path d="M 0 0 
L 0 3.5 
" id="m9abf9e288f" style="stroke:#000000;stroke-width:0.8;"/>
      </defs>
      <g>
       <use style="stroke:#000000;stroke-width:0.8;" x="76.5" xlink:href="#m9abf9e288f" y="448.56"/>
      </g>
     </g>
     <g id="text_1">
      <!-- 0.0 -->
      <defs>
       <path d="M 31.78125 66.40625 
Q 24.171875 66.40625 20.328125 58.90625 
Q 16.5 51.421875 16.5 36.375 
Q 16.5 21.390625 20.328125 13.890625 
Q 24.171875 6.390625 31.78125 6.390625 
Q 39.453125 6.390625 43.28125 13.890625 
Q 47.125 21.390625 47.125 36.375 
Q 47.125 51.421875 43.28125 58.90625 
Q 39.453125 66.40625 31.78125 66.40625 
z
M 31.78125 74.21875 
Q 44.046875 74.21875 50.515625 64.515625 
Q 56.984375 54.828125 56.984375 36.375 
Q 56.984375 17.96875 50.515625 8.265625 
Q 44.046875 -1.421875 31.78125 -1.421875 
Q 19.53125 -1.421875 13.0625 8.265625 
Q 6.59375 17.96875 6.59375 36.375 
Q 6.59375 54.828125 13.0625 64.515625 
Q 19.53125 74.21875 31.78125 74.21875 
z
" id="DejaVuSans-48"/>
       <path d="M 10.6875 12.40625 
L 21 12.40625 
L 21 0 
L 10.6875 0 
z
" id="DejaVuSans-46"/>
      </defs>
      <g transform="translate(68.548438 463.158437)scale(0.1 -0.1)">
       <use xlink:href="#DejaVuSans-48"/>
       <use x="63.623047" xlink:href="#DejaVuSans-46"/>
       <use x="95.410156" xlink:href="#DejaVuSans-48"/>
      </g>
     </g>
    </g>
    <g id="xtick_2">
     <g id="line2d_3">
      <path clip-path="url(#pebbecfa258)" d="M 123.93 448.56 
L 123.93 60.48 
" style="fill:none;stroke:#b0b0b0;stroke-linecap:square;stroke-width:0.8;"/>
     </g>
     <g id="line2d_4">
      <g>
       <use style="stroke:#000000;stroke-width:0.8;" x="123.93" xlink:href="#m9abf9e288f" y="448.56"/>
      </g>
     </g>
     <g id="text_2">
      <!-- 0.1 -->
      <defs>
       <path d="M 12.40625 8.296875 
L 28.515625 8.296875 
L 28.515625 63.921875 
L 10.984375 60.40625 
L 10.984375 69.390625 
L 28.421875 72.90625 
L 38.28125 72.90625 
L 38.28125 8.296875 
L 54.390625 8.296875 
L 54.390625 0 
L 12.40625 0 
z
" id="DejaVuSans-49"/>
      </defs>
      <g transform="translate(115.978438 463.158437)scale(0.1 -0.1)">
       <use xlink:href="#DejaVuSans-48"/>
       <use x="63.623047" xlink:href="#DejaVuSans-46"/>
       <use x="95.410156" xlink:href="#DejaVuSans-49"/>
      </g>
     </g>
    </g>
    <g id="xtick_3">
     <g id="line2d_5">
      <path clip-path="url(#pebbecfa258)" d="M 171.36 448.56 
L 171.36 60.48 
" style="fill:none;stroke:#b0b0b0;stroke-linecap:square;stroke-width:0.8;"/>
     </g>
     <g id="line2d_6">
      <g>
       <use style="stroke:#000000;stroke-width:0.8;" x="171.36" xlink:href="#m9abf9e288f" y="448.56"/>
      </g>
     </g>
     <g id="text_3">
      <!-- 0.2 -->
      <defs>
       <path d="M 19.1875 8.296875 
L 53.609375 8.296875 
L 53.609375 0 
L 7.328125 0 
L 7.328125 8.296875 
Q 12.9375 14.109375 22.625 23.890625 
Q 32.328125 33.6875 34.8125 36.53125 
Q 39.546875 41.84375 41.421875 45.53125 
Q 43.3125 49.21875 43.3125 52.78125 
Q 43.3125 58.59375 39.234375 62.25 
Q 35.15625 65.921875 28.609375 65.921875 
Q 23.96875 65.921875 18.8125 64.3125 
Q 13.671875 62.703125 7.8125 59.421875 
L 7.8125 69.390625 
Q 13.765625 71.78125 18.9375 73 
Q 24.125 74.21875 28.421875 74.21875 
Q 39.75 74.21875 46.484375 68.546875 
Q 53.21875 62.890625 53.21875 53.421875 
Q 53.21875 48.921875 51.53125 44.890625 
Q 49.859375 40.875 45.40625 35.40625 
Q 44.1875 33.984375 37.640625 27.21875 
Q 31.109375 20.453125 19.1875 8.296875 
z
" id="DejaVuSans-50"/>
      </defs>
      <g transform="translate(163.408438 463.158437)scale(0.1 -0.1)">
       <use xlink:href="#DejaVuSans-48"/>
       <use x="63.623047" xlink:href="#DejaVuSans-46"/>
       <use x="95.410156" xlink:href="#DejaVuSans-50"/>
      </g>
     </g>
    </g>
    <g id="xtick_4">
     <g id="line2d_7">
      <path clip-path="url(#pebbecfa258)" d="M 218.79 448.56 
L 218.79 60.48 
" style="fill:none;stroke:#b0b0b0;stroke-linecap:square;stroke-width:0.8;"/>
     </g>
     <g id="line2d_8">
      <g>
       <use style="stroke:#000000;stroke-width:0.8;" x="218.79" xlink:href="#m9abf9e288f" y="448.56"/>
      </g>
     </g>
     <g id="text_4">
      <!-- 0.3 -->
      <defs>
       <path d="M 40.578125 39.3125 
Q 47.65625 37.796875 51.625 33 
Q 55.609375 28.21875 55.609375 21.1875 
Q 55.609375 10.40625 48.1875 4.484375 
Q 40.765625 -1.421875 27.09375 -1.421875 
Q 22.515625 -1.421875 17.65625 -0.515625 
Q 12.796875 0.390625 7.625 2.203125 
L 7.625 11.71875 
Q 11.71875 9.328125 16.59375 8.109375 
Q 21.484375 6.890625 26.8125 6.890625 
Q 36.078125 6.890625 40.9375 10.546875 
Q 45.796875 14.203125 45.796875 21.1875 
Q 45.796875 27.640625 41.28125 31.265625 
Q 36.765625 34.90625 28.71875 34.90625 
L 20.21875 34.90625 
L 20.21875 43.015625 
L 29.109375 43.015625 
Q 36.375 43.015625 40.234375 45.921875 
Q 44.09375 48.828125 44.09375 54.296875 
Q 44.09375 59.90625 40.109375 62.90625 
Q 36.140625 65.921875 28.71875 65.921875 
Q 24.65625 65.921875 20.015625 65.03125 
Q 15.375 64.15625 9.8125 62.3125 
L 9.8125 71.09375 
Q 15.4375 72.65625 20.34375 73.4375 
Q 25.25 74.21875 29.59375 74.21875 
Q 40.828125 74.21875 47.359375 69.109375 
Q 53.90625 64.015625 53.90625 55.328125 
Q 53.90625 49.265625 50.4375 45.09375 
Q 46.96875 40.921875 40.578125 39.3125 
z
" id="DejaVuSans-51"/>
      </defs>
      <g transform="translate(210.838438 463.158437)scale(0.1 -0.1)">
       <use xlink:href="#DejaVuSans-48"/>
       <use x="63.623047" xlink:href="#DejaVuSans-46"/>
       <use x="95.410156" xlink:href="#DejaVuSans-51"/>
      </g>
     </g>
    </g>
    <g id="xtick_5">
     <g id="line2d_9">
      <path clip-path="url(#pebbecfa258)" d="M 266.22 448.56 
L 266.22 60.48 
" style="fill:none;stroke:#b0b0b0;stroke-linecap:square;stroke-width:0.8;"/>
     </g>
     <g id="line2d_10">
      <g>
       <use style="stroke:#000000;stroke-width:0.8;" x="266.22" xlink:href="#m9abf9e288f" y="448.56"/>
      </g>
     </g>
     <g id="text_5">
      <!-- 0.4 -->
      <defs>
       <path d="M 37.796875 64.3125 
L 12.890625 25.390625 
L 37.796875 25.390625 
z
M 35.203125 72.90625 
L 47.609375 72.90625 
L 47.609375 25.390625 
L 58.015625 25.390625 
L 58.015625 17.1875 
L 47.609375 17.1875 
L 47.609375 0 
L 37.796875 0 
L 37.796875 17.1875 
L 4.890625 17.1875 
L 4.890625 26.703125 
z
" id="DejaVuSans-52"/>
      </defs>
      <g transform="translate(258.268438 463.158437)scale(0.1 -0.1)">
       <use xlink:href="#DejaVuSans-48"/>
       <use x="63.623047" xlink:href="#DejaVuSans-46"/>
       <use x="95.410156" xlink:href="#DejaVuSans-52"/>
      </g>
     </g>
    </g>
    <g id="xtick_6">
     <g id="line2d_11">
      <path clip-path="url(#pebbecfa258)" d="M 313.65 448.56 
L 313.65 60.48 
" style="fill:none;stroke:#b0b0b0;stroke-linecap:square;stroke-width:0.8;"/>
     </g>
     <g id="line2d_12">
      <g>
       <use style="stroke:#000000;stroke-width:0.8;" x="313.65" xlink:href="#m9abf9e288f" y="448.56"/>
      </g>
     </g>
     <g id="text_6">
      <!-- 0.5 -->
      <defs>
       <path d="M 10.796875 72.90625 
L 49.515625 72.90625 
L 49.515625 64.59375 
L 19.828125 64.59375 
L 19.828125 46.734375 
Q 21.96875 47.46875 24.109375 47.828125 
Q 26.265625 48.1875 28.421875 48.1875 
Q 40.625 48.1875 47.75 41.5 
Q 54.890625 34.8125 54.890625 23.390625 
Q 54.890625 11.625 47.5625 5.09375 
Q 40.234375 -1.421875 26.90625 -1.421875 
Q 22.3125 -1.421875 17.546875 -0.640625 
Q 12.796875 0.140625 7.71875 1.703125 
L 7.71875 11.625 
Q 12.109375 9.234375 16.796875 8.0625 
Q 21.484375 6.890625 26.703125 6.890625 
Q 35.15625 6.890625 40.078125 11.328125 
Q 45.015625 15.765625 45.015625 23.390625 
Q 45.015625 31 40.078125 35.4375 
Q 35.15625 39.890625 26.703125 39.890625 
Q 22.75 39.890625 18.8125 39.015625 
Q 14.890625 38.140625 10.796875 36.28125 
z
" id="DejaVuSans-53"/>
      </defs>
      <g transform="translate(305.698438 463.158437)scale(0.1 -0.1)">
       <use xlink:href="#DejaVuSans-48"/>
       <use x="63.623047" xlink:href="#DejaVuSans-46"/>
       <use x="95.410156" xlink:href="#DejaVuSans-53"/>
      </g>
     </g>
    </g>
    <g id="xtick_7">
     <g id="line2d_13">
      <path clip-path="url(#pebbecfa258)" d="M 361.08 448.56 
L 361.08 60.48 
" style="fill:none;stroke:#b0b0b0;stroke-linecap:square;stroke-width:0.8;"/>
     </g>
     <g id="line2d_14">
      <g>
       <use style="stroke:#000000;stroke-width:0.8;" x="361.08" xlink:href="#m9abf9e288f" y="448.56"/>
      </g>
     </g>
     <g id="text_7">
      <!-- 0.6 -->
      <defs>
       <path d="M 33.015625 40.375 
Q 26.375 40.375 22.484375 35.828125 
Q 18.609375 31.296875 18.609375 23.390625 
Q 18.609375 15.53125 22.484375 10.953125 
Q 26.375 6.390625 33.015625 6.390625 
Q 39.65625 6.390625 43.53125 10.953125 
Q 47.40625 15.53125 47.40625 23.390625 
Q 47.40625 31.296875 43.53125 35.828125 
Q 39.65625 40.375 33.015625 40.375 
z
M 52.59375 71.296875 
L 52.59375 62.3125 
Q 48.875 64.0625 45.09375 64.984375 
Q 41.3125 65.921875 37.59375 65.921875 
Q 27.828125 65.921875 22.671875 59.328125 
Q 17.53125 52.734375 16.796875 39.40625 
Q 19.671875 43.65625 24.015625 45.921875 
Q 28.375 48.1875 33.59375 48.1875 
Q 44.578125 48.1875 50.953125 41.515625 
Q 57.328125 34.859375 57.328125 23.390625 
Q 57.328125 12.15625 50.6875 5.359375 
Q 44.046875 -1.421875 33.015625 -1.421875 
Q 20.359375 -1.421875 13.671875 8.265625 
Q 6.984375 17.96875 6.984375 36.375 
Q 6.984375 53.65625 15.1875 63.9375 
Q 23.390625 74.21875 37.203125 74.21875 
Q 40.921875 74.21875 44.703125 73.484375 
Q 48.484375 72.75 52.59375 71.296875 
z
" id="DejaVuSans-54"/>
      </defs>
      <g transform="translate(353.128438 463.158437)scale(0.1 -0.1)">
       <use xlink:href="#DejaVuSans-48"/>
       <use x="63.623047" xlink:href="#DejaVuSans-46"/>
       <use x="95.410156" xlink:href="#DejaVuSans-54"/>
      </g>
     </g>
    </g>
    <g id="xtick_8">
     <g id="line2d_15">
      <path clip-path="url(#pebbecfa258)" d="M 408.51 448.56 
L 408.51 60.48 
" style="fill:none;stroke:#b0b0b0;stroke-linecap:square;stroke-width:0.8;"/>
     </g>
     <g id="line2d_16">
      <g>
       <use style="stroke:#000000;stroke-width:0.8;" x="408.51" xlink:href="#m9abf9e288f" y="448.56"/>
      </g>
     </g>
     <g id="text_8">
      <!-- 0.7 -->
      <defs>
       <path d="M 8.203125 72.90625 
L 55.078125 72.90625 
L 55.078125 68.703125 
L 28.609375 0 
L 18.3125 0 
L 43.21875 64.59375 
L 8.203125 64.59375 
z
" id="DejaVuSans-55"/>
      </defs>
      <g transform="translate(400.558438 463.158437)scale(0.1 -0.1)">
       <use xlink:href="#DejaVuSans-48"/>
       <use x="63.623047" xlink:href="#DejaVuSans-46"/>
       <use x="95.410156" xlink:href="#DejaVuSans-55"/>
      </g>
     </g>
    </g>
    <g id="xtick_9">
     <g id="line2d_17">
      <path clip-path="url(#pebbecfa258)" d="M 455.94 448.56 
L 455.94 60.48 
" style="fill:none;stroke:#b0b0b0;stroke-linecap:square;stroke-width:0.8;"/>
     </g>
     <g id="line2d_18">
      <g>
       <use style="stroke:#000000;stroke-width:0.8;" x="455.94" xlink:href="#m9abf9e288f" y="448.56"/>
      </g>
     </g>
     <g id="text_9">
      <!-- 0.8 -->
      <defs>
       <path d="M 31.78125 34.625 
Q 24.75 34.625 20.71875 30.859375 
Q 16.703125 27.09375 16.703125 20.515625 
Q 16.703125 13.921875 20.71875 10.15625 
Q 24.75 6.390625 31.78125 6.390625 
Q 38.8125 6.390625 42.859375 10.171875 
Q 46.921875 13.96875 46.921875 20.515625 
Q 46.921875 27.09375 42.890625 30.859375 
Q 38.875 34.625 31.78125 34.625 
z
M 21.921875 38.8125 
Q 15.578125 40.375 12.03125 44.71875 
Q 8.5 49.078125 8.5 55.328125 
Q 8.5 64.0625 14.71875 69.140625 
Q 20.953125 74.21875 31.78125 74.21875 
Q 42.671875 74.21875 48.875 69.140625 
Q 55.078125 64.0625 55.078125 55.328125 
Q 55.078125 49.078125 51.53125 44.71875 
Q 48 40.375 41.703125 38.8125 
Q 48.828125 37.15625 52.796875 32.3125 
Q 56.78125 27.484375 56.78125 20.515625 
Q 56.78125 9.90625 50.3125 4.234375 
Q 43.84375 -1.421875 31.78125 -1.421875 
Q 19.734375 -1.421875 13.25 4.234375 
Q 6.78125 9.90625 6.78125 20.515625 
Q 6.78125 27.484375 10.78125 32.3125 
Q 14.796875 37.15625 21.921875 38.8125 
z
M 18.3125 54.390625 
Q 18.3125 48.734375 21.84375 45.5625 
Q 25.390625 42.390625 31.78125 42.390625 
Q 38.140625 42.390625 41.71875 45.5625 
Q 45.3125 48.734375 45.3125 54.390625 
Q 45.3125 60.0625 41.71875 63.234375 
Q 38.140625 66.40625 31.78125 66.40625 
Q 25.390625 66.40625 21.84375 63.234375 
Q 18.3125 60.0625 18.3125 54.390625 
z
" id="DejaVuSans-56"/>
      </defs>
      <g transform="translate(447.988438 463.158437)scale(0.1 -0.1)">
       <use xlink:href="#DejaVuSans-48"/>
       <use x="63.623047" xlink:href="#DejaVuSans-46"/>
       <use x="95.410156" xlink:href="#DejaVuSans-56"/>
      </g>
     </g>
    </g>
    <g id="xtick_10">
     <g id="line2d_19">
      <path clip-path="url(#pebbecfa258)" d="M 503.37 448.56 
L 503.37 60.48 
" style="fill:none;stroke:#b0b0b0;stroke-linecap:square;stroke-width:0.8;"/>
     </g>
     <g id="line2d_20">
      <g>
       <use style="stroke:#000000;stroke-width:0.8;" x="503.37" xlink:href="#m9abf9e288f" y="448.56"/>
      </g>
     </g>
     <g id="text_10">
      <!-- 0.9 -->
      <defs>
       <path d="M 10.984375 1.515625 
L 10.984375 10.5 
Q 14.703125 8.734375 18.5 7.8125 
Q 22.3125 6.890625 25.984375 6.890625 
Q 35.75 6.890625 40.890625 13.453125 
Q 46.046875 20.015625 46.78125 33.40625 
Q 43.953125 29.203125 39.59375 26.953125 
Q 35.25 24.703125 29.984375 24.703125 
Q 19.046875 24.703125 12.671875 31.3125 
Q 6.296875 37.9375 6.296875 49.421875 
Q 6.296875 60.640625 12.9375 67.421875 
Q 19.578125 74.21875 30.609375 74.21875 
Q 43.265625 74.21875 49.921875 64.515625 
Q 56.59375 54.828125 56.59375 36.375 
Q 56.59375 19.140625 48.40625 8.859375 
Q 40.234375 -1.421875 26.421875 -1.421875 
Q 22.703125 -1.421875 18.890625 -0.6875 
Q 15.09375 0.046875 10.984375 1.515625 
z
M 30.609375 32.421875 
Q 37.25 32.421875 41.125 36.953125 
Q 45.015625 41.5 45.015625 49.421875 
Q 45.015625 57.28125 41.125 61.84375 
Q 37.25 66.40625 30.609375 66.40625 
Q 23.96875 66.40625 20.09375 61.84375 
Q 16.21875 57.28125 16.21875 49.421875 
Q 16.21875 41.5 20.09375 36.953125 
Q 23.96875 32.421875 30.609375 32.421875 
z
" id="DejaVuSans-57"/>
      </defs>
      <g transform="translate(495.418438 463.158437)scale(0.1 -0.1)">
       <use xlink:href="#DejaVuSans-48"/>
       <use x="63.623047" xlink:href="#DejaVuSans-46"/>
       <use x="95.410156" xlink:href="#DejaVuSans-57"/>
      </g>
     </g>
    </g>
    <g id="xtick_11">
     <g id="line2d_21">
      <path clip-path="url(#pebbecfa258)" d="M 550.8 448.56 
L 550.8 60.48 
" style="fill:none;stroke:#b0b0b0;stroke-linecap:square;stroke-width:0.8;"/>
     </g>
     <g id="line2d_22">
      <g>
       <use style="stroke:#000000;stroke-width:0.8;" x="550.8" xlink:href="#m9abf9e288f" y="448.56"/>
      </g>
     </g>
     <g id="text_11">
      <!-- 1.0 -->
      <g transform="translate(542.848438 463.158437)scale(0.1 -0.1)">
       <use xlink:href="#DejaVuSans-49"/>
       <use x="63.623047" xlink:href="#DejaVuSans-46"/>
       <use x="95.410156" xlink:href="#DejaVuSans-48"/>
      </g>
     </g>
    </g>
    <g id="text_12">
     <!-- 1-precision -->
     <defs>
      <path d="M 4.890625 31.390625 
L 31.203125 31.390625 
L 31.203125 23.390625 
L 4.890625 23.390625 
z
" id="DejaVuSans-45"/>
      <path d="M 18.109375 8.203125 
L 18.109375 -20.796875 
L 9.078125 -20.796875 
L 9.078125 54.6875 
L 18.109375 54.6875 
L 18.109375 46.390625 
Q 20.953125 51.265625 25.265625 53.625 
Q 29.59375 56 35.59375 56 
Q 45.5625 56 51.78125 48.09375 
Q 58.015625 40.1875 58.015625 27.296875 
Q 58.015625 14.40625 51.78125 6.484375 
Q 45.5625 -1.421875 35.59375 -1.421875 
Q 29.59375 -1.421875 25.265625 0.953125 
Q 20.953125 3.328125 18.109375 8.203125 
z
M 48.6875 27.296875 
Q 48.6875 37.203125 44.609375 42.84375 
Q 40.53125 48.484375 33.40625 48.484375 
Q 26.265625 48.484375 22.1875 42.84375 
Q 18.109375 37.203125 18.109375 27.296875 
Q 18.109375 17.390625 22.1875 11.75 
Q 26.265625 6.109375 33.40625 6.109375 
Q 40.53125 6.109375 44.609375 11.75 
Q 48.6875 17.390625 48.6875 27.296875 
z
" id="DejaVuSans-112"/>
      <path d="M 41.109375 46.296875 
Q 39.59375 47.171875 37.8125 47.578125 
Q 36.03125 48 33.890625 48 
Q 26.265625 48 22.1875 43.046875 
Q 18.109375 38.09375 18.109375 28.8125 
L 18.109375 0 
L 9.078125 0 
L 9.078125 54.6875 
L 18.109375 54.6875 
L 18.109375 46.1875 
Q 20.953125 51.171875 25.484375 53.578125 
Q 30.03125 56 36.53125 56 
Q 37.453125 56 38.578125 55.875 
Q 39.703125 55.765625 41.0625 55.515625 
z
" id="DejaVuSans-114"/>
      <path d="M 56.203125 29.59375 
L 56.203125 25.203125 
L 14.890625 25.203125 
Q 15.484375 15.921875 20.484375 11.0625 
Q 25.484375 6.203125 34.421875 6.203125 
Q 39.59375 6.203125 44.453125 7.46875 
Q 49.3125 8.734375 54.109375 11.28125 
L 54.109375 2.78125 
Q 49.265625 0.734375 44.1875 -0.34375 
Q 39.109375 -1.421875 33.890625 -1.421875 
Q 20.796875 -1.421875 13.15625 6.1875 
Q 5.515625 13.8125 5.515625 26.8125 
Q 5.515625 40.234375 12.765625 48.109375 
Q 20.015625 56 32.328125 56 
Q 43.359375 56 49.78125 48.890625 
Q 56.203125 41.796875 56.203125 29.59375 
z
M 47.21875 32.234375 
Q 47.125 39.59375 43.09375 43.984375 
Q 39.0625 48.390625 32.421875 48.390625 
Q 24.90625 48.390625 20.390625 44.140625 
Q 15.875 39.890625 15.1875 32.171875 
z
" id="DejaVuSans-101"/>
      <path d="M 48.78125 52.59375 
L 48.78125 44.1875 
Q 44.96875 46.296875 41.140625 47.34375 
Q 37.3125 48.390625 33.40625 48.390625 
Q 24.65625 48.390625 19.8125 42.84375 
Q 14.984375 37.3125 14.984375 27.296875 
Q 14.984375 17.28125 19.8125 11.734375 
Q 24.65625 6.203125 33.40625 6.203125 
Q 37.3125 6.203125 41.140625 7.25 
Q 44.96875 8.296875 48.78125 10.40625 
L 48.78125 2.09375 
Q 45.015625 0.34375 40.984375 -0.53125 
Q 36.96875 -1.421875 32.421875 -1.421875 
Q 20.0625 -1.421875 12.78125 6.34375 
Q 5.515625 14.109375 5.515625 27.296875 
Q 5.515625 40.671875 12.859375 48.328125 
Q 20.21875 56 33.015625 56 
Q 37.15625 56 41.109375 55.140625 
Q 45.0625 54.296875 48.78125 52.59375 
z
" id="DejaVuSans-99"/>
      <path d="M 9.421875 54.6875 
L 18.40625 54.6875 
L 18.40625 0 
L 9.421875 0 
z
M 9.421875 75.984375 
L 18.40625 75.984375 
L 18.40625 64.59375 
L 9.421875 64.59375 
z
" id="DejaVuSans-105"/>
      <path d="M 44.28125 53.078125 
L 44.28125 44.578125 
Q 40.484375 46.53125 36.375 47.5 
Q 32.28125 48.484375 27.875 48.484375 
Q 21.1875 48.484375 17.84375 46.4375 
Q 14.5 44.390625 14.5 40.28125 
Q 14.5 37.15625 16.890625 35.375 
Q 19.28125 33.59375 26.515625 31.984375 
L 29.59375 31.296875 
Q 39.15625 29.25 43.1875 25.515625 
Q 47.21875 21.78125 47.21875 15.09375 
Q 47.21875 7.46875 41.1875 3.015625 
Q 35.15625 -1.421875 24.609375 -1.421875 
Q 20.21875 -1.421875 15.453125 -0.5625 
Q 10.6875 0.296875 5.421875 2 
L 5.421875 11.28125 
Q 10.40625 8.6875 15.234375 7.390625 
Q 20.0625 6.109375 24.8125 6.109375 
Q 31.15625 6.109375 34.5625 8.28125 
Q 37.984375 10.453125 37.984375 14.40625 
Q 37.984375 18.0625 35.515625 20.015625 
Q 33.0625 21.96875 24.703125 23.78125 
L 21.578125 24.515625 
Q 13.234375 26.265625 9.515625 29.90625 
Q 5.8125 33.546875 5.8125 39.890625 
Q 5.8125 47.609375 11.28125 51.796875 
Q 16.75 56 26.8125 56 
Q 31.78125 56 36.171875 55.265625 
Q 40.578125 54.546875 44.28125 53.078125 
z
" id="DejaVuSans-115"/>
      <path d="M 30.609375 48.390625 
Q 23.390625 48.390625 19.1875 42.75 
Q 14.984375 37.109375 14.984375 27.296875 
Q 14.984375 17.484375 19.15625 11.84375 
Q 23.34375 6.203125 30.609375 6.203125 
Q 37.796875 6.203125 41.984375 11.859375 
Q 46.1875 17.53125 46.1875 27.296875 
Q 46.1875 37.015625 41.984375 42.703125 
Q 37.796875 48.390625 30.609375 48.390625 
z
M 30.609375 56 
Q 42.328125 56 49.015625 48.375 
Q 55.71875 40.765625 55.71875 27.296875 
Q 55.71875 13.875 49.015625 6.21875 
Q 42.328125 -1.421875 30.609375 -1.421875 
Q 18.84375 -1.421875 12.171875 6.21875 
Q 5.515625 13.875 5.515625 27.296875 
Q 5.515625 40.765625 12.171875 48.375 
Q 18.84375 56 30.609375 56 
z
" id="DejaVuSans-111"/>
      <path d="M 54.890625 33.015625 
L 54.890625 0 
L 45.90625 0 
L 45.90625 32.71875 
Q 45.90625 40.484375 42.875 44.328125 
Q 39.84375 48.1875 33.796875 48.1875 
Q 26.515625 48.1875 22.3125 43.546875 
Q 18.109375 38.921875 18.109375 30.90625 
L 18.109375 0 
L 9.078125 0 
L 9.078125 54.6875 
L 18.109375 54.6875 
L 18.109375 46.1875 
Q 21.34375 51.125 25.703125 53.5625 
Q 30.078125 56 35.796875 56 
Q 45.21875 56 50.046875 50.171875 
Q 54.890625 44.34375 54.890625 33.015625 
z
" id="DejaVuSans-110"/>
     </defs>
     <g transform="translate(286 476.836563)scale(0.1 -0.1)">
      <use xlink:href="#DejaVuSans-49"/>
      <use x="63.623047" xlink:href="#DejaVuSans-45"/>
      <use x="99.707031" xlink:href="#DejaVuSans-112"/>
      <use x="163.183594" xlink:href="#DejaVuSans-114"/>
      <use x="204.265625" xlink:href="#DejaVuSans-101"/>
      <use x="265.789062" xlink:href="#DejaVuSans-99"/>
      <use x="320.769531" xlink:href="#DejaVuSans-105"/>
      <use x="348.552734" xlink:href="#DejaVuSans-115"/>
      <use x="400.652344" xlink:href="#DejaVuSans-105"/>
      <use x="428.435547" xlink:href="#DejaVuSans-111"/>
      <use x="489.617188" xlink:href="#DejaVuSans-110"/>
     </g>
    </g>
   </g>
   <g id="matplotlib.axis_2">
    <g id="ytick_1">
     <g id="line2d_23">
      <path clip-path="url(#pebbecfa258)" d="M 76.5 448.56 
L 550.8 448.56 
" style="fill:none;stroke:#b0b0b0;stroke-linecap:square;stroke-width:0.8;"/>
     </g>
     <g id="line2d_24">
      <defs>
       <path d="M 0 0 
L -3.5 0 
" id="mc44b1eb275" style="stroke:#000000;stroke-width:0.8;"/>
      </defs>
      <g>
       <use style="stroke:#000000;stroke-width:0.8;" x="76.5" xlink:href="#mc44b1eb275" y="448.56"/>
      </g>
     </g>
     <g id="text_13">
      <!-- 0.0 -->
      <g transform="translate(53.596875 452.359219)scale(0.1 -0.1)">
       <use xlink:href="#DejaVuSans-48"/>
       <use x="63.623047" xlink:href="#DejaVuSans-46"/>
       <use x="95.410156" xlink:href="#DejaVuSans-48"/>
      </g>
     </g>
    </g>
    <g id="ytick_2">
     <g id="line2d_25">
      <path clip-path="url(#pebbecfa258)" d="M 76.5 409.752 
L 550.8 409.752 
" style="fill:none;stroke:#b0b0b0;stroke-linecap:square;stroke-width:0.8;"/>
     </g>
     <g id="line2d_26">
      <g>
       <use style="stroke:#000000;stroke-width:0.8;" x="76.5" xlink:href="#mc44b1eb275" y="409.752"/>
      </g>
     </g>
     <g id="text_14">
      <!-- 0.1 -->
      <g transform="translate(53.596875 413.551219)scale(0.1 -0.1)">
       <use xlink:href="#DejaVuSans-48"/>
       <use x="63.623047" xlink:href="#DejaVuSans-46"/>
       <use x="95.410156" xlink:href="#DejaVuSans-49"/>
      </g>
     </g>
    </g>
    <g id="ytick_3">
     <g id="line2d_27">
      <path clip-path="url(#pebbecfa258)" d="M 76.5 370.944 
L 550.8 370.944 
" style="fill:none;stroke:#b0b0b0;stroke-linecap:square;stroke-width:0.8;"/>
     </g>
     <g id="line2d_28">
      <g>
       <use style="stroke:#000000;stroke-width:0.8;" x="76.5" xlink:href="#mc44b1eb275" y="370.944"/>
      </g>
     </g>
     <g id="text_15">
      <!-- 0.2 -->
      <g transform="translate(53.596875 374.743219)scale(0.1 -0.1)">
       <use xlink:href="#DejaVuSans-48"/>
       <use x="63.623047" xlink:href="#DejaVuSans-46"/>
       <use x="95.410156" xlink:href="#DejaVuSans-50"/>
      </g>
     </g>
    </g>
    <g id="ytick_4">
     <g id="line2d_29">
      <path clip-path="url(#pebbecfa258)" d="M 76.5 332.136 
L 550.8 332.136 
" style="fill:none;stroke:#b0b0b0;stroke-linecap:square;stroke-width:0.8;"/>
     </g>
     <g id="line2d_30">
      <g>
       <use style="stroke:#000000;stroke-width:0.8;" x="76.5" xlink:href="#mc44b1eb275" y="332.136"/>
      </g>
     </g>
     <g id="text_16">
      <!-- 0.3 -->
      <g transform="translate(53.596875 335.935219)scale(0.1 -0.1)">
       <use xlink:href="#DejaVuSans-48"/>
       <use x="63.623047" xlink:href="#DejaVuSans-46"/>
       <use x="95.410156" xlink:href="#DejaVuSans-51"/>
      </g>
     </g>
    </g>
    <g id="ytick_5">
     <g id="line2d_31">
      <path clip-path="url(#pebbecfa258)" d="M 76.5 293.328 
L 550.8 293.328 
" style="fill:none;stroke:#b0b0b0;stroke-linecap:square;stroke-width:0.8;"/>
     </g>
     <g id="line2d_32">
      <g>
       <use style="stroke:#000000;stroke-width:0.8;" x="76.5" xlink:href="#mc44b1eb275" y="293.328"/>
      </g>
     </g>
     <g id="text_17">
      <!-- 0.4 -->
      <g transform="translate(53.596875 297.127219)scale(0.1 -0.1)">
       <use xlink:href="#DejaVuSans-48"/>
       <use x="63.623047" xlink:href="#DejaVuSans-46"/>
       <use x="95.410156" xlink:href="#DejaVuSans-52"/>
      </g>
     </g>
    </g>
    <g id="ytick_6">
     <g id="line2d_33">
      <path clip-path="url(#pebbecfa258)" d="M 76.5 254.52 
L 550.8 254.52 
" style="fill:none;stroke:#b0b0b0;stroke-linecap:square;stroke-width:0.8;"/>
     </g>
     <g id="line2d_34">
      <g>
       <use style="stroke:#000000;stroke-width:0.8;" x="76.5" xlink:href="#mc44b1eb275" y="254.52"/>
      </g>
     </g>
     <g id="text_18">
      <!-- 0.5 -->
      <g transform="translate(53.596875 258.319219)scale(0.1 -0.1)">
       <use xlink:href="#DejaVuSans-48"/>
       <use x="63.623047" xlink:href="#DejaVuSans-46"/>
       <use x="95.410156" xlink:href="#DejaVuSans-53"/>
      </g>
     </g>
    </g>
    <g id="ytick_7">
     <g id="line2d_35">
      <path clip-path="url(#pebbecfa258)" d="M 76.5 215.712 
L 550.8 215.712 
" style="fill:none;stroke:#b0b0b0;stroke-linecap:square;stroke-width:0.8;"/>
     </g>
     <g id="line2d_36">
      <g>
       <use style="stroke:#000000;stroke-width:0.8;" x="76.5" xlink:href="#mc44b1eb275" y="215.712"/>
      </g>
     </g>
     <g id="text_19">
      <!-- 0.6 -->
      <g transform="translate(53.596875 219.511219)scale(0.1 -0.1)">
       <use xlink:href="#DejaVuSans-48"/>
       <use x="63.623047" xlink:href="#DejaVuSans-46"/>
       <use x="95.410156" xlink:href="#DejaVuSans-54"/>
      </g>
     </g>
    </g>
    <g id="ytick_8">
     <g id="line2d_37">
      <path clip-path="url(#pebbecfa258)" d="M 76.5 176.904 
L 550.8 176.904 
" style="fill:none;stroke:#b0b0b0;stroke-linecap:square;stroke-width:0.8;"/>
     </g>
     <g id="line2d_38">
      <g>
       <use style="stroke:#000000;stroke-width:0.8;" x="76.5" xlink:href="#mc44b1eb275" y="176.904"/>
      </g>
     </g>
     <g id="text_20">
      <!-- 0.7 -->
      <g transform="translate(53.596875 180.703219)scale(0.1 -0.1)">
       <use xlink:href="#DejaVuSans-48"/>
       <use x="63.623047" xlink:href="#DejaVuSans-46"/>
       <use x="95.410156" xlink:href="#DejaVuSans-55"/>
      </g>
     </g>
    </g>
    <g id="ytick_9">
     <g id="line2d_39">
      <path clip-path="url(#pebbecfa258)" d="M 76.5 138.096 
L 550.8 138.096 
" style="fill:none;stroke:#b0b0b0;stroke-linecap:square;stroke-width:0.8;"/>
     </g>
     <g id="line2d_40">
      <g>
       <use style="stroke:#000000;stroke-width:0.8;" x="76.5" xlink:href="#mc44b1eb275" y="138.096"/>
      </g>
     </g>
     <g id="text_21">
      <!-- 0.8 -->
      <g transform="translate(53.596875 141.895219)scale(0.1 -0.1)">
       <use xlink:href="#DejaVuSans-48"/>
       <use x="63.623047" xlink:href="#DejaVuSans-46"/>
       <use x="95.410156" xlink:href="#DejaVuSans-56"/>
      </g>
     </g>
    </g>
    <g id="ytick_10">
     <g id="line2d_41">
      <path clip-path="url(#pebbecfa258)" d="M 76.5 99.288 
L 550.8 99.288 
" style="fill:none;stroke:#b0b0b0;stroke-linecap:square;stroke-width:0.8;"/>
     </g>
     <g id="line2d_42">
      <g>
       <use style="stroke:#000000;stroke-width:0.8;" x="76.5" xlink:href="#mc44b1eb275" y="99.288"/>
      </g>
     </g>
     <g id="text_22">
      <!-- 0.9 -->
      <g transform="translate(53.596875 103.087219)scale(0.1 -0.1)">
       <use xlink:href="#DejaVuSans-48"/>
       <use x="63.623047" xlink:href="#DejaVuSans-46"/>
       <use x="95.410156" xlink:href="#DejaVuSans-57"/>
      </g>
     </g>
    </g>
    <g id="ytick_11">
     <g id="line2d_43">
      <path clip-path="url(#pebbecfa258)" d="M 76.5 60.48 
L 550.8 60.48 
" style="fill:none;stroke:#b0b0b0;stroke-linecap:square;stroke-width:0.8;"/>
     </g>
     <g id="line2d_44">
      <g>
       <use style="stroke:#000000;stroke-width:0.8;" x="76.5" xlink:href="#mc44b1eb275" y="60.48"/>
      </g>
     </g>
     <g id="text_23">
      <!-- 1.0 -->
      <g transform="translate(53.596875 64.279219)scale(0.1 -0.1)">
       <use xlink:href="#DejaVuSans-49"/>
       <use x="63.623047" xlink:href="#DejaVuSans-46"/>
       <use x="95.410156" xlink:href="#DejaVuSans-48"/>
      </g>
     </g>
    </g>
    <g id="text_24">
     <!-- #correct/618 -->
     <defs>
      <path d="M 51.125 44 
L 36.921875 44 
L 32.8125 27.6875 
L 47.125 27.6875 
z
M 43.796875 71.78125 
L 38.71875 51.515625 
L 52.984375 51.515625 
L 58.109375 71.78125 
L 65.921875 71.78125 
L 60.890625 51.515625 
L 76.125 51.515625 
L 76.125 44 
L 58.984375 44 
L 54.984375 27.6875 
L 70.515625 27.6875 
L 70.515625 20.21875 
L 53.078125 20.21875 
L 48 0 
L 40.1875 0 
L 45.21875 20.21875 
L 30.90625 20.21875 
L 25.875 0 
L 18.015625 0 
L 23.09375 20.21875 
L 7.71875 20.21875 
L 7.71875 27.6875 
L 24.90625 27.6875 
L 29 44 
L 13.28125 44 
L 13.28125 51.515625 
L 30.90625 51.515625 
L 35.890625 71.78125 
z
" id="DejaVuSans-35"/>
      <path d="M 18.3125 70.21875 
L 18.3125 54.6875 
L 36.8125 54.6875 
L 36.8125 47.703125 
L 18.3125 47.703125 
L 18.3125 18.015625 
Q 18.3125 11.328125 20.140625 9.421875 
Q 21.96875 7.515625 27.59375 7.515625 
L 36.8125 7.515625 
L 36.8125 0 
L 27.59375 0 
Q 17.1875 0 13.234375 3.875 
Q 9.28125 7.765625 9.28125 18.015625 
L 9.28125 47.703125 
L 2.6875 47.703125 
L 2.6875 54.6875 
L 9.28125 54.6875 
L 9.28125 70.21875 
z
" id="DejaVuSans-116"/>
      <path d="M 25.390625 72.90625 
L 33.6875 72.90625 
L 8.296875 -9.28125 
L 0 -9.28125 
z
" id="DejaVuSans-47"/>
     </defs>
     <g transform="translate(47.517187 287.641094)rotate(-90)scale(0.1 -0.1)">
      <use xlink:href="#DejaVuSans-35"/>
      <use x="83.789062" xlink:href="#DejaVuSans-99"/>
      <use x="138.769531" xlink:href="#DejaVuSans-111"/>
      <use x="199.951172" xlink:href="#DejaVuSans-114"/>
      <use x="241.048828" xlink:href="#DejaVuSans-114"/>
      <use x="282.130859" xlink:href="#DejaVuSans-101"/>
      <use x="343.654297" xlink:href="#DejaVuSans-99"/>
      <use x="398.634766" xlink:href="#DejaVuSans-116"/>
      <use x="437.84375" xlink:href="#DejaVuSans-47"/>
      <use x="471.535156" xlink:href="#DejaVuSans-54"/>
      <use x="535.158203" xlink:href="#DejaVuSans-49"/>
      <use x="598.78125" xlink:href="#DejaVuSans-56"/>
     </g>
    </g>
   </g>
   <g id="line2d_45">
    <path clip-path="url(#pebbecfa258)" d="M 550.8 448.56 
L 313.65 447.932039 
L 234.6 447.304078 
L 313.65 447.304078 
L 266.22 446.676117 
L 313.65 446.676117 
L 279.771429 446.048155 
L 361.08 446.048155 
L 335.209091 445.420194 
L 411.3 445.420194 
L 392.7 444.792233 
L 455.94 444.792233 
L 432.225 443.536311 
L 474.912 443.536311 
L 459.588462 442.280388 
L 495.648837 442.280388 
L 490.831034 441.652427 
L 491.5125 441.652427 
L 494.090217 441.652427 
L 489.6 441.024466 
L 490.251064 441.024466 
L 491.5125 441.024466 
L 487.234021 440.396505 
L 487.882653 440.396505 
L 489.141 440.396505 
L 485.055446 439.768544 
L 485.7 439.768544 
L 488.742056 439.768544 
L 484.925 439.140583 
L 485.529358 439.140583 
L 487.839823 439.140583 
L 484.231579 438.512621 
L 484.810435 438.512621 
L 490.0896 438.512621 
L 486.807143 437.88466 
L 487.311024 437.88466 
L 493.206429 437.88466 
L 490.251064 437.256699 
L 490.677465 437.256699 
L 498.742683 437.256699 
L 496.183636 436.628738 
L 496.512651 436.628738 
L 499.597159 436.628738 
L 497.20678 436.000777 
L 497.507865 436.000777 
L 498.679121 436.000777 
L 494.090217 434.744854 
L 494.396757 434.744854 
L 496.168586 434.744854 
L 493.982813 434.116893 
L 494.277202 434.116893 
L 497.585854 434.116893 
L 495.541748 433.488932 
L 495.808696 433.488932 
L 499.292308 433.488932 
L 497.387838 432.860971 
L 497.627354 432.860971 
L 500.978571 432.860971 
L 499.20251 432.23301 
L 499.4175 432.23301 
L 503.911027 432.23301 
L 500.873684 430.977087 
L 501.246269 430.977087 
L 499.667286 430.349126 
L 499.856667 430.349126 
L 501.676071 430.349126 
L 500.162989 429.721165 
L 500.342553 429.721165 
L 501.564706 429.721165 
L 497.197603 427.837282 
L 497.380546 427.837282 
L 498.452508 427.837282 
L 497.046 427.20932 
L 497.224585 427.20932 
L 497.401987 427.20932 
L 496.012871 426.581359 
L 496.193092 426.581359 
L 496.72671 426.581359 
L 495.362338 425.953398 
L 495.541748 425.953398 
L 497.44125 425.953398 
L 496.129907 425.325437 
L 496.299689 425.325437 
L 496.468421 425.325437 
L 493.884 424.069515 
L 494.058589 424.069515 
L 498.398584 424.069515 
L 497.20678 423.441553 
L 497.357746 423.441553 
L 499.662534 423.441553 
L 498.525 422.813592 
L 498.665147 422.813592 
L 499.354762 422.813592 
L 498.23905 422.185631 
L 498.377368 422.185631 
L 499.058182 422.185631 
L 496.874419 420.929709 
L 497.013402 420.929709 
L 498.496241 420.929709 
L 497.44125 420.301748 
L 497.574314 420.301748 
L 500.815222 420.301748 
L 499.823832 419.673786 
L 499.942657 419.673786 
L 502.637086 419.673786 
L 500.763956 418.417864 
L 500.873684 418.417864 
L 501.415184 418.417864 
L 500.495455 417.789903 
L 500.604104 417.789903 
L 501.034047 417.789903 
L 499.333404 416.533981 
L 499.875158 416.533981 
L 497.329854 414.650097 
L 498.208214 414.650097 
L 497.344057 414.022136 
L 497.453374 414.022136 
L 497.99332 414.022136 
L 496.29375 412.766214 
L 496.403421 412.766214 
L 496.621443 412.766214 
L 495.7812 412.138252 
L 495.891018 412.138252 
L 497.175439 412.138252 
L 496.357004 411.510291 
L 496.462718 411.510291 
L 497.7 411.510291 
L 496.902273 410.88233 
L 497.004159 410.88233 
L 497.507865 410.88233 
L 494.482375 408.370485 
L 494.586667 408.370485 
L 493.813863 407.742524 
L 493.919004 407.742524 
L 494.023757 407.742524 
L 493.25625 407.114563 
L 493.361835 407.114563 
L 494.396757 407.114563 
L 492.15 405.23068 
L 492.254919 405.23068 
L 492.67087 405.23068 
L 491.932979 404.602718 
L 492.037168 404.602718 
L 492.756294 404.602718 
L 492.029843 403.974757 
L 492.13223 403.974757 
L 493.235385 403.974757 
L 492.524232 403.346796 
L 492.623509 403.346796 
L 493.017259 403.346796 
L 492.313682 402.718835 
L 492.41231 402.718835 
L 492.900502 402.718835 
L 492.205342 402.090874 
L 492.303 402.090874 
L 492.786446 402.090874 
L 492.099505 401.462913 
L 492.196211 401.462913 
L 492.292599 401.462913 
L 490.929344 400.20699 
L 491.027332 400.20699 
L 491.222349 400.20699 
L 489.972565 398.951068 
L 490.84848 398.951068 
L 490.186581 398.323107 
L 490.283254 398.323107 
L 491.045669 398.323107 
L 490.393868 397.695146 
L 490.488697 397.695146 
L 490.677465 397.695146 
L 490.030313 397.067184 
L 490.125117 397.067184 
L 492.577545 397.067184 
L 491.955605 396.439223 
L 492.043433 396.439223 
L 492.564941 396.439223 
L 491.950369 395.811262 
L 492.037168 395.811262 
L 492.21 395.811262 
L 491.599559 395.183301 
L 491.686364 395.183301 
L 491.772914 395.183301 
L 491.165789 394.55534 
L 491.252847 394.55534 
L 491.94026 394.55534 
L 491.341643 393.927379 
L 491.427194 393.927379 
L 492.102845 393.927379 
L 491.5125 393.299417 
L 491.596596 393.299417 
L 492.668524 393.299417 
L 492.089708 392.671456 
L 492.17125 392.671456 
L 492.655785 392.671456 
L 492.083356 392.043495 
L 492.164011 392.043495 
L 492.244444 392.043495 
L 491.674932 391.415534 
L 491.755814 391.415534 
L 492.315854 391.415534 
L 491.27247 390.159612 
L 492.298806 390.159612 
L 491.277543 388.903689 
L 491.356069 388.903689 
L 490.809486 388.275728 
L 490.888421 388.275728 
L 491.202094 388.275728 
L 490.66 387.647767 
L 490.738512 387.647767 
L 492.192229 387.647767 
L 491.663359 387.019806 
L 491.738501 387.019806 
L 491.813452 387.019806 
L 491.287072 386.391845 
L 491.362405 386.391845 
L 492.83 386.391845 
L 492.316646 385.763883 
L 492.38867 385.763883 
L 492.532187 385.763883 
L 492.021718 385.135922 
L 492.09375 385.135922 
L 493.703099 385.135922 
L 493.206429 384.507961 
L 493.34323 384.507961 
L 493.411388 384.507961 
L 492.917417 383.88 
L 493.054255 383.88 
L 493.460915 383.88 
L 492.972098 383.252039 
L 493.107368 383.252039 
L 493.57587 383.252039 
L 491.649423 380.740194 
L 491.717647 380.740194 
L 491.853625 380.740194 
L 491.376207 380.112233 
L 491.5125 380.112233 
L 491.580412 380.112233 
L 491.105492 379.484272 
L 491.241781 379.484272 
L 491.377449 379.484272 
L 490.905461 378.856311 
L 491.04143 378.856311 
L 491.378668 378.856311 
L 490.910936 378.22835 
L 491.045669 378.22835 
L 491.179798 378.22835 
L 490.71491 377.600388 
L 490.849329 377.600388 
L 491.446844 377.600388 
L 490.987832 376.972427 
L 491.119868 376.972427 
L 491.316832 376.972427 
L 490.538445 375.716505 
L 490.670164 375.716505 
L 490.218013 375.088544 
L 490.35 375.088544 
L 490.415778 375.088544 
L 489.516938 373.832621 
L 489.649729 373.832621 
L 490.11 373.832621 
L 489.665736 373.20466 
L 489.796785 373.20466 
L 490.121962 373.20466 
L 488.869108 371.320777 
L 488.934783 371.320777 
L 488.497881 370.692816 
L 488.629598 370.692816 
L 488.956467 370.692816 
L 488.523214 370.064854 
L 488.653774 370.064854 
L 488.977789 370.064854 
L 488.548125 369.436893 
L 488.677547 369.436893 
L 489.126316 369.436893 
L 488.276416 368.180971 
L 488.404933 368.180971 
L 488.723926 368.180971 
L 487.882653 366.925049 
L 488.010794 366.925049 
L 488.138415 366.925049 
L 486.951923 365.041165 
L 487.016481 365.041165 
L 487.145207 365.041165 
L 486.73125 364.413204 
L 486.860161 364.413204 
L 486.988554 364.413204 
L 486.57683 363.785243 
L 486.705405 363.785243 
L 486.7695 363.785243 
L 486.35964 363.157282 
L 486.488136 363.157282 
L 486.616119 363.157282 
L 485.801589 361.901359 
L 485.930426 361.901359 
L 486.313892 361.901359 
L 485.910531 361.273398 
L 486.038016 361.273398 
L 486.10157 361.273398 
L 485.7 360.645437 
L 485.827397 360.645437 
L 486.767213 360.645437 
L 486.371965 360.017476 
L 486.495865 360.017476 
L 486.557637 360.017476 
L 486.164107 359.389515 
L 486.287931 359.389515 
L 486.717602 359.389515 
L 486.327662 358.761553 
L 486.45 358.761553 
L 486.693289 358.761553 
L 485.98049 357.505631 
L 486.041525 357.505631 
L 486.705405 357.505631 
L 486.323464 356.87767 
L 486.443309 356.87767 
L 486.740981 356.87767 
L 486.36183 356.249709 
L 486.48072 356.249709 
L 486.54 356.249709 
L 485.845313 354.993786 
L 485.904959 354.993786 
L 486.142452 354.993786 
L 485.768007 354.365825 
L 485.886679 354.365825 
L 486.64761 354.365825 
L 486.278108 353.737864 
L 486.394155 353.737864 
L 486.509785 353.737864 
L 486.142063 353.109903 
L 486.257833 353.109903 
L 486.488136 353.109903 
L 486.122727 352.481942 
L 486.237811 352.481942 
L 486.352487 352.481942 
L 485.98882 351.853981 
L 486.103632 351.853981 
L 486.160885 351.853981 
L 485.494793 350.598058 
L 485.552381 350.598058 
L 486.291892 350.598058 
L 484.982134 348.086214 
L 485.039168 348.086214 
L 484.685455 347.458252 
L 484.799741 347.458252 
L 484.856736 347.458252 
L 484.152672 346.20233 
L 484.267384 346.20233 
L 484.552442 346.20233 
L 484.203082 345.574369 
L 484.316923 345.574369 
L 484.543441 345.574369 
L 484.19617 344.946408 
L 484.309346 344.946408 
L 484.365789 344.946408 
L 483.329721 343.062524 
L 483.443787 343.062524 
L 483.500676 343.062524 
L 482.928788 341.806602 
L 483.099748 341.806602 
L 482.758641 341.178641 
L 482.872613 341.178641 
L 483.21225 341.178641 
L 482.64892 339.922718 
L 482.705477 339.922718 
L 482.032394 338.666796 
L 482.146154 338.666796 
L 482.316089 338.666796 
L 481.981533 338.038835 
L 482.094815 338.038835 
L 482.711256 338.038835 
L 482.380196 337.410874 
L 482.491538 337.410874 
L 482.768314 337.410874 
L 482.439352 336.782913 
L 482.549879 336.782913 
L 483.47512 336.782913 
L 483.150837 336.154951 
L 483.258473 336.154951 
L 483.685613 336.154951 
L 483.363981 335.52699 
L 483.470347 335.52699 
L 483.892476 335.52699 
L 483.573453 334.899029 
L 483.678577 334.899029 
L 484.25093 334.899029 
L 483.935089 334.271068 
L 484.038515 334.271068 
L 484.550883 334.271068 
L 484.23796 333.643107 
L 484.339893 333.643107 
L 486.506 333.643107 
L 486.202517 333.015146 
L 486.298004 333.015146 
L 487.69718 333.015146 
L 487.400072 332.387184 
L 487.491558 332.387184 
L 487.719123 332.387184 
L 487.128715 331.131262 
L 487.22 331.131262 
L 487.672527 331.131262 
L 487.380085 330.503301 
L 487.47017 330.503301 
L 487.649575 330.503301 
L 487.358599 329.87534 
L 487.448269 329.87534 
L 487.582299 329.87534 
L 487.2926 329.247379 
L 487.381985 329.247379 
L 488.650345 329.247379 
L 488.366299 328.619417 
L 488.452237 328.619417 
L 489.465335 328.619417 
L 489.185927 327.991456 
L 489.269189 327.991456 
L 489.43504 327.991456 
L 488.879273 326.735534 
L 488.9625 326.735534 
L 490.144628 326.735534 
L 489.872134 326.107573 
L 489.992308 326.107573 
L 490.03226 326.107573 
L 489.259109 324.223689 
L 489.299411 324.223689 
L 489.500131 324.223689 
L 489.042188 322.967767 
L 489.28249 322.967767 
L 488.747798 321.711845 
L 488.868132 321.711845 
L 490.007741 321.711845 
L 489.745529 321.083883 
L 489.861456 321.083883 
L 490.015341 321.083883 
L 489.609629 319.827961 
L 489.686549 319.827961 
L 489.167797 318.572039 
L 489.283647 318.572039 
L 489.322167 318.572039 
L 489.06383 317.944078 
L 489.179513 317.944078 
L 489.409583 317.944078 
L 488.896333 316.688155 
L 489.011538 316.688155 
L 489.392478 316.688155 
L 489.138078 316.060194 
L 489.251845 316.060194 
L 489.327457 316.060194 
L 489.074033 315.432233 
L 489.1875 315.432233 
L 489.375687 315.432233 
L 488.985018 314.176311 
L 489.321987 314.176311 
L 489.072094 313.54835 
L 489.183988 313.54835 
L 489.810467 313.54835 
L 488.897914 311.036505 
L 488.934783 311.036505 
L 489.155074 311.036505 
L 488.91032 310.408544 
L 489.020249 310.408544 
L 489.129787 310.408544 
L 488.88606 309.780583 
L 488.995578 309.780583 
L 489.068375 309.780583 
L 488.825544 309.152621 
L 488.934783 309.152621 
L 489.510943 309.152621 
L 489.066589 307.896699 
L 489.138247 307.896699 
L 489.245423 307.896699 
L 489.006427 307.268738 
L 489.113584 307.268738 
L 489.678866 307.268738 
L 489.276514 306.012816 
L 489.31165 306.012816 
L 489.451795 306.012816 
L 489.216629 305.384854 
L 489.32166 305.384854 
L 489.910135 305.384854 
L 489.67749 304.756893 
L 489.780506 304.756893 
L 490.324109 304.756893 
L 490.093823 304.128932 
L 490.195 304.128932 
L 490.529834 304.128932 
L 490.106343 302.87301 
L 490.173223 302.87301 
L 490.33978 302.87301 
L 490.112521 302.245049 
L 490.212336 302.245049 
L 490.311823 302.245049 
L 490.085449 301.617087 
L 490.184926 301.617087 
L 491.06577 301.617087 
L 490.842765 300.989126 
L 490.939366 300.989126 
L 491.417741 300.989126 
L 491.071467 299.733204 
L 491.198144 299.733204 
L 490.978378 299.105243 
L 491.073333 299.105243 
L 492.881375 299.105243 
L 492.667846 298.477282 
L 492.757143 298.477282 
L 493.721601 298.477282 
L 493.388498 297.221359 
L 493.417319 297.221359 
L 493.446111 297.221359 
L 493.237011 296.593398 
L 493.352252 296.593398 
L 493.467033 296.593398 
L 493.258862 295.965437 
L 493.373543 295.965437 
L 493.487767 295.965437 
L 493.280517 295.337476 
L 493.394643 295.337476 
L 493.508317 295.337476 
L 493.301979 294.709515 
L 493.415556 294.709515 
L 493.472176 294.709515 
L 493.266568 294.081553 
L 493.379823 294.081553 
L 494.077686 294.081553 
L 493.874781 293.453592 
L 493.985209 293.453592 
L 494.095208 293.453592 
L 493.893179 292.825631 
L 494.00309 292.825631 
L 494.438524 292.825631 
L 494.238362 292.19767 
L 494.346511 292.19767 
L 494.454246 292.19767 
L 494.254936 291.569709 
L 494.362589 291.569709 
L 494.416262 291.569709 
L 494.217633 290.941748 
L 494.325 290.941748 
L 496.315195 290.941748 
L 496.123147 290.313786 
L 496.223014 290.313786 
L 496.471091 290.313786 
L 496.280282 289.685825 
L 496.379184 289.685825 
L 497.984023 289.685825 
L 497.798592 289.057864 
L 497.8917 289.057864 
L 498.32953 289.057864 
L 498.145886 288.429903 
L 498.260252 288.429903 
L 499.047112 288.429903 
L 498.866382 287.801942 
L 498.977209 287.801942 
L 499.825693 287.801942 
L 499.648049 287.173981 
L 499.755151 287.173981 
L 499.883083 287.173981 
L 499.706305 286.546019 
L 499.81275 286.546019 
L 500.087443 286.546019 
L 499.911972 285.918058 
L 500.017156 285.918058 
L 500.163685 285.918058 
L 499.989122 285.290097 
L 500.093586 285.290097 
L 500.609524 285.290097 
L 500.305648 284.034175 
L 500.367127 284.034175 
L 500.79332 284.034175 
L 500.622647 283.406214 
L 500.723364 283.406214 
L 500.743459 283.406214 
L 500.314286 281.52233 
L 500.33448 281.52233 
L 500.715125 281.52233 
L 500.546786 280.894369 
L 500.646297 280.894369 
L 501.428421 280.894369 
L 501.262822 280.266408 
L 501.35916 280.266408 
L 502.505015 280.266408 
L 502.343221 279.638447 
L 502.453391 279.638447 
L 503.014719 279.638447 
L 502.855036 279.010485 
L 502.962495 279.010485 
L 502.980358 279.010485 
L 502.821165 278.382524 
L 502.92838 278.382524 
L 503.492197 278.382524 
L 503.335099 277.754563 
L 503.439648 277.754563 
L 503.647368 277.754563 
L 503.491304 277.126602 
L 503.594787 277.126602 
L 504.105481 277.126602 
L 503.951334 276.498641 
L 504.052446 276.498641 
L 504.136373 276.498641 
L 503.982879 275.87068 
L 504.083489 275.87068 
L 504.399253 275.87068 
L 504.247084 275.242718 
L 504.346203 275.242718 
L 504.673573 275.242718 
L 504.522754 274.614757 
L 504.636578 274.614757 
L 506.112551 274.614757 
L 505.966474 273.986796 
L 506.072931 273.986796 
L 506.612534 273.986796 
L 506.468442 273.358835 
L 506.572159 273.358835 
L 506.89499 273.358835 
L 506.752239 272.730874 
L 506.854269 272.730874 
L 507.737743 272.730874 
L 507.57033 271.474951 
L 508.094828 271.474951 
L 507.846811 270.219029 
L 507.928835 270.219029 
L 508.294099 270.219029 
L 507.844528 267.707184 
L 507.858032 267.707184 
L 508.019417 267.707184 
L 507.856822 266.451262 
L 508.360321 266.451262 
L 508.227113 265.823301 
L 508.331908 265.823301 
L 508.733161 265.823301 
L 508.601463 265.19534 
L 508.704073 265.19534 
L 509.296973 265.19534 
L 509.167316 264.567379 
L 509.279265 264.567379 
L 509.390614 264.567379 
L 509.261662 263.939417 
L 509.372727 263.939417 
L 509.678148 263.939417 
L 509.550442 263.311456 
L 509.6596 263.311456 
L 509.959807 263.311456 
L 509.833324 262.683495 
L 509.940629 262.683495 
L 512.504092 262.683495 
L 512.504092 262.683495 
" style="fill:none;stroke:#1f77b4;stroke-linecap:square;stroke-width:2;"/>
   </g>
   <g id="line2d_46">
    <path clip-path="url(#pebbecfa258)" d="M 550.8 448.56 
L 313.65 447.932039 
L 234.6 447.304078 
L 195.075 446.676117 
L 408.51 446.676117 
L 378.327273 446.048155 
L 392.7 446.048155 
L 347.528571 444.792233 
L 383.4 444.792233 
L 366.35 444.164272 
L 399.886364 444.164272 
L 385.826087 443.536311 
L 410.266667 443.536311 
L 398.346429 442.90835 
L 403.603448 442.90835 
L 382.5 441.652427 
L 392.7 441.652427 
L 383.4 441.024466 
L 401.021053 441.024466 
L 384.795 439.768544 
L 417.996 439.768544 
L 411.3 439.140583 
L 413.982692 439.140583 
L 401.483333 437.88466 
L 409.342105 437.88466 
L 398.059322 436.628738 
L 414.259091 436.628738 
L 409.21791 436.000777 
L 413.321739 436.000777 
L 403.833803 434.744854 
L 415.285714 434.744854 
L 406.708861 433.488932 
L 413.653012 433.488932 
L 409.639286 432.860971 
L 412.922093 432.860971 
L 409.055172 432.23301 
L 426.236364 432.23301 
L 419.310891 430.977087 
L 423.103846 430.977087 
L 419.802857 430.349126 
L 424.610092 430.349126 
L 421.445455 429.721165 
L 429.184615 429.721165 
L 426.195763 429.093204 
L 435.025984 429.093204 
L 432.225 428.465243 
L 433.144186 428.465243 
L 430.400769 427.837282 
L 439.000714 427.837282 
L 436.429787 427.20932 
L 444.706579 427.20932 
L 439.924675 425.953398 
L 443.411321 425.953398 
L 438.853416 424.697476 
L 440.90122 424.697476 
L 436.510843 423.441553 
L 447.127869 423.441553 
L 445.113587 422.813592 
L 445.684865 422.813592 
L 441.736364 421.55767 
L 444.576563 421.55767 
L 442.66943 420.929709 
L 445.929648 420.929709 
L 444.0825 420.301748 
L 449.164286 420.301748 
L 443.915493 418.417864 
L 445.885714 418.417864 
L 444.191284 417.789903 
L 444.678082 417.789903 
L 443.004545 417.161942 
L 445.4 417.161942 
L 443.767699 416.533981 
L 445.169869 416.533981 
L 443.566957 415.906019 
L 444.031169 415.906019 
L 442.446983 415.278058 
L 444.283475 415.278058 
L 442.731646 414.650097 
L 445.831967 414.650097 
L 444.32449 414.022136 
L 450.467308 414.022136 
L 446.201521 412.138252 
L 447.381203 412.138252 
L 445.992135 411.510291 
L 446.383209 411.510291 
L 445.008178 410.88233 
L 449.164286 410.88233 
L 447.838078 410.254369 
L 449.283158 410.254369 
L 447.97972 409.626408 
L 449.047059 409.626408 
L 447.762414 408.998447 
L 449.851014 408.998447 
L 448.593939 408.370485 
L 449.277592 408.370485 
L 445.574503 406.486602 
L 446.609508 406.486602 
L 445.4 405.858641 
L 445.743322 405.858641 
L 440.994212 403.346796 
L 442.043312 403.346796 
L 440.882857 402.718835 
L 443.936111 402.718835 
L 442.805538 402.090874 
L 445.4 402.090874 
L 443.197612 400.834951 
L 444.467257 400.834951 
L 443.385 400.20699 
L 446.155014 400.20699 
L 445.098857 399.579029 
L 448.319668 399.579029 
L 447.292541 398.951068 
L 449.803504 398.951068 
L 447.801877 397.695146 
L 448.077273 397.695146 
L 447.0864 397.067184 
L 448.181003 397.067184 
L 447.202895 396.439223 
L 447.474803 396.439223 
L 446.503665 395.811262 
L 447.584456 395.811262 
L 445.671649 394.55534 
L 445.941902 394.55534 
L 444.994615 393.927379 
L 447.63975 393.927379 
L 446.714214 393.299417 
L 448.248649 393.299417 
L 447.3375 392.671456 
L 447.590465 392.671456 
L 446.685366 392.043495 
L 447.441646 392.043495 
L 445.653976 390.787573 
L 448.369014 390.787573 
L 445.768531 388.903689 
L 446.978571 388.903689 
L 446.126897 388.275728 
L 446.60595 388.275728 
L 444.919818 387.019806 
L 445.4 387.019806 
L 444.565385 386.391845 
L 445.043919 386.391845 
L 443.391256 385.135922 
L 444.108909 385.135922 
L 442.478714 383.88 
L 444.366667 383.88 
L 443.566957 383.252039 
L 446.071338 383.252039 
L 445.288347 382.624078 
L 448.327778 382.624078 
L 447.564271 381.996117 
L 448.196327 381.996117 
L 447.439308 381.368155 
L 448.067004 381.368155 
L 447.316364 380.740194 
L 448.3512 380.740194 
L 447.608982 380.112233 
L 448.019284 380.112233 
L 447.282143 379.484272 
L 447.691304 379.484272 
L 446.959172 378.856311 
L 448.967698 378.856311 
L 448.248649 378.22835 
L 448.643077 378.22835 
L 447.928791 377.600388 
L 449.866102 377.600388 
L 449.164286 376.972427 
L 450.29777 376.972427 
L 449.604267 376.344466 
L 450.349724 376.344466 
L 449.6625 375.716505 
L 450.032967 375.716505 
L 449.350091 375.088544 
L 450.992266 375.088544 
L 449.65 373.832621 
L 450.369929 373.832621 
L 449.705861 373.20466 
L 450.241696 373.20466 
L 449.58254 372.576699 
L 450.115263 372.576699 
L 449.460946 371.948738 
L 452.390816 371.948738 
L 451.752632 371.320777 
L 451.920508 371.320777 
L 451.285279 370.692816 
L 452.778 370.692816 
L 452.151913 370.064854 
L 452.479104 370.064854 
L 451.856623 369.436893 
L 452.020165 369.436893 
L 451.400495 368.808932 
L 452.695603 368.808932 
L 452.083902 368.180971 
L 452.563107 368.180971 
L 451.955574 367.55301 
L 452.273913 367.55301 
L 451.669775 366.925049 
L 452.1456 366.925049 
L 451.545527 366.297087 
L 451.861624 366.297087 
L 451.264865 365.669126 
L 451.422857 365.669126 
L 450.828685 365.041165 
L 452.694401 365.041165 
L 452.110248 364.413204 
L 452.415789 364.413204 
L 451.834776 363.785243 
L 452.442857 363.785243 
L 451.866258 363.157282 
L 453.800301 363.157282 
L 452.815868 361.901359 
L 453.543834 361.901359 
L 452.984421 361.273398 
L 453.129333 361.273398 
L 455.390883 361.273398 
L 454.843353 360.645437 
L 454.981818 360.645437 
L 455.257554 360.645437 
L 454.170732 359.389515 
L 454.309169 359.389515 
L 454.44721 359.389515 
L 453.907286 358.761553 
L 454.045506 358.761553 
L 455.406329 358.761553 
L 453.94993 356.87767 
L 454.085196 356.87767 
L 453.033426 355.621748 
L 453.169402 355.621748 
L 453.575069 355.621748 
L 452.533425 354.365825 
L 452.668966 354.365825 
L 453.073352 354.365825 
L 452.041644 353.109903 
L 452.176744 353.109903 
L 452.445839 353.109903 
L 451.933651 352.481942 
L 452.068163 352.481942 
L 452.336092 352.481942 
L 451.318945 351.226019 
L 451.453378 351.226019 
L 452.64713 351.226019 
L 451.645406 349.970097 
L 451.777261 349.970097 
L 452.30119 349.970097 
L 450.81581 348.086214 
L 450.947368 348.086214 
L 452.753488 348.086214 
L 452.268 347.458252 
L 452.394974 347.458252 
L 454.50454 347.458252 
L 453.553585 346.20233 
L 453.675754 346.20233 
L 453.919173 346.20233 
L 453.446809 345.574369 
L 453.5685 345.574369 
L 453.689888 345.574369 
L 453.219576 344.946408 
L 453.341096 344.946408 
L 453.462313 344.946408 
L 452.994037 344.318447 
L 453.115385 344.318447 
L 454.3125 344.318447 
L 453.507692 343.062524 
L 453.744702 343.062524 
L 452.827947 341.806602 
L 452.946845 341.806602 
L 453.065455 341.806602 
L 452.609564 341.178641 
L 452.728295 341.178641 
L 454.58968 341.178641 
L 453.809574 339.922718 
L 453.924085 339.922718 
L 453.479009 339.294757 
L 453.59364 339.294757 
L 453.822092 339.294757 
L 453.379225 338.666796 
L 453.493435 338.666796 
L 454.173108 338.666796 
L 453.733953 338.038835 
L 453.84669 338.038835 
L 454.295029 338.038835 
L 453.858776 337.410874 
L 453.970588 337.410874 
L 454.304483 337.410874 
L 453.870723 336.782913 
L 453.981881 336.782913 
L 454.203432 336.782913 
L 453.771771 336.154951 
L 453.882534 336.154951 
L 454.976411 336.154951 
L 454.232733 334.899029 
L 455.413 334.899029 
L 454.261062 333.015146 
L 454.474172 333.015146 
L 454.057442 332.387184 
L 454.163987 332.387184 
L 454.693209 332.387184 
L 454.279431 331.759223 
L 454.384918 331.759223 
L 455.013029 331.759223 
L 454.192849 330.503301 
L 454.297403 330.503301 
L 454.40173 330.503301 
L 453.993629 329.87534 
L 454.098058 329.87534 
L 454.41 329.87534 
L 454.004082 329.247379 
L 454.10794 329.247379 
L 454.726439 329.247379 
L 453.520616 327.363495 
L 453.623885 327.363495 
L 454.238924 327.363495 
L 453.840885 326.735534 
L 453.942947 326.735534 
L 455.645708 326.735534 
L 454.962062 325.479612 
L 456.229502 325.479612 
L 455.555172 324.223689 
L 455.747976 324.223689 
L 455.36451 323.595728 
L 455.460909 323.595728 
L 456.508591 323.595728 
L 456.129341 322.967767 
L 456.223729 322.967767 
L 457.708734 322.967767 
L 457.335 322.339806 
L 457.426543 322.339806 
L 457.700098 322.339806 
L 457.328195 321.711845 
L 457.419298 321.711845 
L 458.498844 321.711845 
L 457.397983 319.827961 
L 457.48762 319.827961 
L 457.666379 319.827961 
L 457.301627 319.2 
L 457.391013 319.2 
L 458.275568 319.2 
L 457.91438 318.572039 
L 458.002174 318.572039 
L 458.351695 318.572039 
L 457.992474 317.944078 
L 458.079699 317.944078 
L 458.166761 317.944078 
L 457.808724 317.316117 
L 457.895876 317.316117 
L 458.587256 317.316117 
L 457.2575 314.804272 
L 458.28544 314.804272 
L 457.936139 314.176311 
L 458.021024 314.176311 
L 458.527091 314.176311 
L 457.918042 312.920388 
L 458.337184 312.920388 
L 457.649189 311.664466 
L 457.733033 311.664466 
L 458.398391 311.664466 
L 458.057411 311.036505 
L 458.140143 311.036505 
L 459.040548 311.036505 
L 458.365873 309.780583 
L 458.447313 309.780583 
L 459.093701 309.780583 
L 458.506021 308.52466 
L 458.90695 308.52466 
L 458.575 307.896699 
L 458.654987 307.896699 
L 458.973552 307.896699 
L 458.643264 307.268738 
L 458.722778 307.268738 
L 459.275557 307.268738 
L 458.62012 306.012816 
L 458.698973 306.012816 
L 460.853383 306.012816 
L 460.21226 304.756893 
L 460.28775 304.756893 
L 461.183911 304.756893 
L 459.99318 302.245049 
L 460.290663 302.245049 
L 459.976596 301.617087 
L 460.050859 301.617087 
L 460.27292 301.617087 
L 459.960147 300.989126 
L 460.034121 300.989126 
L 460.255321 300.989126 
L 459.943831 300.361165 
L 460.017518 300.361165 
L 460.164534 300.361165 
L 459.854126 299.733204 
L 459.927648 299.733204 
L 460.584029 299.733204 
L 460.276022 299.105243 
L 460.348558 299.105243 
L 460.63754 299.105243 
L 460.097211 297.84932 
L 461.52 297.84932 
L 461.21826 297.221359 
L 461.28841 297.221359 
L 461.358451 297.221359 
L 461.057545 296.593398 
L 461.127656 296.593398 
L 461.753763 296.593398 
L 460.92877 294.709515 
L 461.067568 294.709515 
L 460.770833 294.081553 
L 460.840247 294.081553 
L 462.47464 294.081553 
L 461.891156 292.825631 
L 461.958308 292.825631 
L 462.491892 292.825631 
L 462.202326 292.19767 
L 462.268741 292.19767 
L 462.599328 292.19767 
L 462.311194 291.569709 
L 462.377181 291.569709 
L 462.508861 291.569709 
L 462.221652 290.941748 
L 462.287509 290.941748 
L 462.615333 290.941748 
L 462.329534 290.313786 
L 462.39497 290.313786 
L 462.720707 290.313786 
L 462.436303 289.685825 
L 462.501325 289.685825 
L 463.274179 289.685825 
L 462.774891 288.429903 
L 462.966667 288.429903 
L 462.686212 287.801942 
L 462.750109 287.801942 
L 462.813913 287.801942 
L 462.534178 287.173981 
L 462.598046 287.173981 
L 462.979323 287.173981 
L 462.70108 286.546019 
L 462.76446 286.546019 
L 463.517974 286.546019 
L 463.242124 285.918058 
L 463.304487 285.918058 
L 464.472734 285.918058 
L 464.200281 285.290097 
L 464.261053 285.290097 
L 465.043394 285.290097 
L 464.62344 284.034175 
L 465.039752 284.034175 
L 464.771793 283.406214 
L 464.890289 283.406214 
L 465.536227 283.406214 
L 465.270492 282.778252 
L 465.387176 282.778252 
L 465.965854 282.778252 
L 465.496552 281.52233 
L 465.554189 281.52233 
L 465.783962 281.52233 
L 465.521818 280.894369 
L 465.636516 280.894369 
L 466.035542 280.894369 
L 465.628638 279.638447 
L 465.7422 279.638447 
L 465.482878 279.010485 
L 465.596407 279.010485 
L 466.103571 279.010485 
L 465.846067 278.382524 
L 465.958218 278.382524 
L 466.181633 278.382524 
L 465.925263 277.754563 
L 466.036794 277.754563 
L 466.092449 277.754563 
L 465.836811 277.126602 
L 465.948165 277.126602 
L 467.20807 277.126602 
L 466.704255 275.87068 
L 466.812556 275.87068 
L 467.082092 275.87068 
L 466.831559 275.242718 
L 466.939142 275.242718 
L 467.260243 275.242718 
L 466.815669 273.986796 
L 466.869128 273.986796 
L 467.347215 273.986796 
L 466.906128 272.730874 
L 466.959091 272.730874 
L 467.952838 272.730874 
L 467.708791 272.102913 
L 467.812267 272.102913 
L 468.42775 272.102913 
L 468.18567 271.474951 
L 468.2876 271.474951 
L 468.793501 271.474951 
L 468.123853 269.591068 
L 468.174389 269.591068 
L 468.476309 269.591068 
L 468.049787 268.335146 
L 468.100061 268.335146 
L 468.450272 268.335146 
L 468.076584 267.079223 
L 468.226084 267.079223 
L 467.990247 266.451262 
L 468.089838 266.451262 
L 468.485817 266.451262 
L 468.251376 265.823301 
L 468.35 265.823301 
L 469.991276 265.823301 
L 469.76103 265.19534 
L 469.855757 265.19534 
L 471.159057 265.19534 
L 470.932241 264.567379 
L 471.023938 264.567379 
L 471.206701 264.567379 
L 470.980767 263.939417 
L 471.072041 263.939417 
L 471.525298 263.939417 
L 471.300852 263.311456 
L 471.39109 263.311456 
L 471.526062 263.311456 
L 471.124038 262.055534 
L 471.169079 262.055534 
L 471.303894 262.055534 
L 470.903831 260.799612 
L 470.948818 260.799612 
L 471.083474 260.799612 
L 470.861798 260.17165 
L 470.951515 260.17165 
L 471.441383 260.17165 
L 471.221237 259.543689 
L 471.309855 259.543689 
L 471.662361 259.543689 
L 471.443435 258.915728 
L 471.531267 258.915728 
L 471.618905 258.915728 
L 471.400608 258.287767 
L 471.488245 258.287767 
L 471.75 258.287767 
L 471.402909 257.031845 
L 474.380824 257.031845 
L 474.17075 256.403883 
L 474.251582 256.403883 
L 474.412737 256.403883 
L 474.203419 255.775922 
L 474.28392 255.775922 
L 474.364252 255.775922 
L 474.155509 255.147961 
L 474.235849 255.147961 
L 474.635036 255.147961 
L 474.260177 253.892039 
L 474.3 253.892039 
L 474.695963 253.892039 
L 474.489964 253.264078 
L 474.568837 253.264078 
L 474.765309 253.264078 
L 474.560124 252.636117 
L 474.6386 252.636117 
L 474.677778 252.636117 
L 474.473059 252.008155 
L 474.551464 252.008155 
L 475.211456 252.008155 
L 474.883079 250.752233 
L 474.921635 250.752233 
L 476.506365 250.752233 
L 476.220089 249.496311 
L 476.952701 249.496311 
L 476.756112 248.86835 
L 476.865 248.86835 
L 477.404672 248.86835 
L 477.014876 247.612427 
L 477.12233 247.612427 
L 478.005755 247.612427 
L 477.813279 246.984466 
L 477.918095 246.984466 
L 478.230744 246.984466 
L 478.039352 246.356505 
L 478.143197 246.356505 
L 478.895763 246.356505 
L 478.7064 245.728544 
L 478.808036 245.728544 
L 480.396094 245.728544 
L 480.210565 245.100583 
L 480.307706 245.100583 
L 480.436813 245.100583 
L 480.251945 244.472621 
L 480.348675 244.472621 
L 480.923527 244.472621 
L 480.740281 243.84466 
L 480.835385 243.84466 
L 481.024819 243.84466 
L 480.842355 243.216699 
L 480.936892 243.216699 
L 480.968348 243.216699 
L 480.699057 241.960777 
L 480.761984 241.960777 
L 480.580619 241.332816 
L 480.675 241.332816 
L 480.769128 241.332816 
L 480.588327 240.704854 
L 480.682403 240.704854 
L 482.124016 240.704854 
L 481.946655 240.076893 
L 482.036856 240.076893 
L 482.246408 240.076893 
L 482.069843 239.448932 
L 482.159452 239.448932 
L 482.278568 239.448932 
L 482.102602 238.820971 
L 482.191858 238.820971 
L 482.280882 238.820971 
L 482.105447 238.19301 
L 482.19443 238.19301 
L 482.371705 238.19301 
L 482.196987 237.565049 
L 482.285469 237.565049 
L 482.985191 237.565049 
L 482.812293 236.937087 
L 482.898938 236.937087 
L 483.865704 236.937087 
L 483.637218 235.681165 
L 484.686637 235.681165 
L 484.518866 235.053204 
L 484.627657 235.053204 
L 485.538163 235.053204 
L 485.372694 234.425243 
L 485.478393 234.425243 
L 486.286119 234.425243 
L 485.985299 233.16932 
L 486.062674 233.16932 
L 487.325595 233.16932 
L 487.165367 232.541359 
L 487.264486 232.541359 
L 487.289218 232.541359 
L 487.129377 231.913398 
L 487.228322 231.913398 
L 487.302328 231.913398 
L 487.142979 231.285437 
L 487.241596 231.285437 
L 489.058916 231.285437 
L 488.903761 230.657476 
L 488.996733 230.657476 
L 489.019932 230.657476 
L 488.865141 230.029515 
L 488.957962 230.029515 
L 489.690633 230.029515 
L 489.537713 229.401553 
L 489.650868 229.401553 
L 489.763606 229.401553 
L 489.611279 228.773592 
L 489.723841 228.773592 
L 490.036823 228.773592 
L 489.88551 228.145631 
L 489.996749 228.145631 
L 490.151803 228.145631 
L 490.001165 227.51767 
L 490.111668 227.51767 
L 490.96 227.51767 
L 490.749142 226.261748 
L 490.770611 226.261748 
L 491.344547 226.261748 
L 491.197699 225.633786 
L 491.303004 225.633786 
L 491.32402 225.633786 
L 491.177542 225.005825 
L 491.282622 225.005825 
L 493.717241 225.005825 
L 493.576242 224.377864 
L 493.672773 224.377864 
L 494.843258 224.377864 
L 494.705055 223.749903 
L 494.816024 223.749903 
L 495.164548 223.749903 
L 495.027416 223.121942 
L 495.136809 223.121942 
L 496.416832 223.121942 
L 496.282759 222.493981 
L 496.386998 222.493981 
L 497.507865 222.493981 
L 497.376505 221.866019 
L 497.476331 221.866019 
L 498.61399 221.866019 
L 498.485375 221.238058 
L 498.596716 221.238058 
L 502.298136 221.238058 
L 502.177888 220.610097 
L 502.287489 220.610097 
L 502.934862 220.610097 
L 502.816342 219.982136 
L 502.922795 219.982136 
L 503.041992 219.982136 
L 502.924032 219.354175 
L 503.029719 219.354175 
L 503.577005 219.354175 
L 503.577005 219.354175 
" style="fill:none;stroke:#ff7f0e;stroke-linecap:square;stroke-width:2;"/>
   </g>
   <g id="line2d_47">
    <path clip-path="url(#pebbecfa258)" d="M 76.5 447.932039 
L 313.65 447.932039 
L 234.6 447.304078 
L 195.075 446.676117 
L 266.22 446.676117 
L 234.6 446.048155 
L 279.771429 446.048155 
L 254.3625 445.420194 
L 234.6 444.792233 
L 266.22 444.792233 
L 234.6 443.536311 
L 222.438462 442.90835 
L 245.892857 442.90835 
L 224.71875 441.652427 
L 216 441.024466 
L 234.6 441.024466 
L 218.79 439.768544 
L 205.854545 438.512621 
L 220.852174 438.512621 
L 209.304 437.256699 
L 204.196154 436.628738 
L 217.033333 436.628738 
L 207.341379 435.372816 
L 198.9 434.116893 
L 188.1 432.23301 
L 184.911429 431.605049 
L 195.075 431.605049 
L 185.953846 429.721165 
L 180.614634 428.465243 
L 189.428571 428.465243 
L 181.9 426.581359 
L 175.3125 424.697476 
L 169.5 422.813592 
L 176.832692 422.813592 
L 174.939623 422.185631 
L 195.075 422.185631 
L 190.986207 420.929709 
L 197.084746 420.929709 
L 193.131148 419.673786 
L 198.9 419.673786 
L 196.957143 419.045825 
L 207.844615 419.045825 
L 200.230435 416.533981 
L 193.450685 414.022136 
L 198.27973 414.022136 
L 196.656 413.394175 
L 201.315789 413.394175 
L 198.115385 412.138252 
L 206.9325 412.138252 
L 200.721429 409.626408 
L 208.862791 409.626408 
L 202.98 407.114563 
L 200.230435 405.858641 
L 204 405.858641 
L 198.742268 403.346796 
L 209.304 403.346796 
L 204.196154 400.834951 
L 207.497143 400.834951 
L 206.261321 400.20699 
L 209.481308 400.20699 
L 205.854545 398.323107 
L 208.962162 398.323107 
L 206.617699 397.067184 
L 209.636842 397.067184 
L 204.042857 393.927379 
L 201.934711 392.671456 
L 204.794262 392.671456 
L 201.7152 390.787573 
L 204.485714 390.787573 
L 203.477953 390.159612 
L 206.191406 390.159612 
L 202.261364 387.647767 
L 204.881955 387.647767 
L 203.923881 387.019806 
L 206.493333 387.019806 
L 204.59562 385.763883 
L 209.576978 385.763883 
L 207.689362 384.507961 
L 214.8375 384.507961 
L 213.883448 383.88 
L 216.191096 383.88 
L 215.240816 383.252039 
L 217.508108 383.252039 
L 215.628 381.996117 
L 224.333766 381.996117 
L 223.38 381.368155 
L 229.596835 381.368155 
L 226.744099 379.484272 
L 228.744444 379.484272 
L 226.887805 378.22835 
L 228.850909 378.22835 
L 227.026347 376.972427 
L 228.953571 376.972427 
L 228.051479 376.344466 
L 229.95 376.344466 
L 229.052632 375.716505 
L 234.6 375.716505 
L 229.33 371.948738 
L 236.318478 371.948738 
L 231.271579 368.180971 
L 232.944503 368.180971 
L 232.129688 367.55301 
L 233.780829 367.55301 
L 232.970103 366.925049 
L 234.6 366.925049 
L 233.793367 366.297087 
L 235.402538 366.297087 
L 234.6 365.669126 
L 236.188945 365.669126 
L 235.3905 365.041165 
L 236.959701 365.041165 
L 233.82878 362.52932 
L 238.400481 362.52932 
L 237.625837 361.901359 
L 239.117143 361.901359 
L 238.346445 361.273398 
L 242.726636 361.273398 
L 241.953488 360.645437 
L 244.8 360.645437 
L 244.027982 360.017476 
L 245.428767 360.017476 
L 244.660909 359.389515 
L 246.046154 359.389515 
L 245.282432 358.761553 
L 246.652466 358.761553 
L 245.892857 358.133592 
L 247.248 358.133592 
L 246.492478 357.505631 
L 247.83304 357.505631 
L 245.598261 355.621748 
L 246.919481 355.621748 
L 241.907143 351.226019 
L 239.17314 348.714175 
L 240.455556 348.714175 
L 239.783607 348.086214 
L 242.312195 348.086214 
L 241.640891 347.458252 
L 247.775 347.458252 
L 246.426378 346.20233 
L 248.804297 346.20233 
L 248.133852 345.574369 
L 253.909924 345.574369 
L 252.565909 344.318447 
L 253.691321 344.318447 
L 250.41 341.178641 
L 252.61875 341.178641 
L 251.973626 340.55068 
L 253.064234 340.55068 
L 251.784783 339.294757 
L 259.180919 339.294757 
L 258.537676 338.666796 
L 261.592683 338.666796 
L 260.95 338.038835 
L 262.948966 338.038835 
L 261.039932 336.154951 
L 264.942424 336.154951 
L 264.310067 335.52699 
L 265.268227 335.52699 
L 263.393046 333.643107 
L 265.283882 333.643107 
L 264.664918 333.015146 
L 265.6 333.015146 
L 264.984039 332.387184 
L 266.833981 332.387184 
L 265.609968 331.131262 
L 266.524038 331.131262 
L 265.313694 329.87534 
L 266.22 329.87534 
L 265.61962 329.247379 
L 266.519243 329.247379 
L 265.921698 328.619417 
L 268.584112 328.619417 
L 267.987578 327.991456 
L 269.733333 327.991456 
L 268.547853 326.735534 
L 269.411009 326.735534 
L 268.822866 326.107573 
L 269.679939 326.107573 
L 267.934337 324.223689 
L 268.783784 324.223689 
L 268.208084 323.595728 
L 269.051642 323.595728 
L 267.908902 322.339806 
L 269.577876 322.339806 
L 268.445455 321.083883 
L 270.907849 321.083883 
L 270.344348 320.455922 
L 271.154913 320.455922 
L 270.036207 319.2 
L 272.435897 319.2 
L 270.228169 316.688155 
L 271.016292 316.688155 
L 268.855 314.176311 
L 270.412707 314.176311 
L 268.818904 312.292427 
L 272.629459 312.292427 
L 272.100809 311.664466 
L 273.595174 311.664466 
L 272.022606 309.780583 
L 272.762069 309.780583 
L 271.726385 308.52466 
L 272.460789 308.52466 
L 271.946457 307.896699 
L 274.125 307.896699 
L 273.611688 307.268738 
L 274.329793 307.268738 
L 271.301786 303.500971 
L 272.012977 303.500971 
L 270.531818 301.617087 
L 271.237783 301.617087 
L 270.748492 300.989126 
L 274.223077 300.989126 
L 272.279853 298.477282 
L 273.641809 298.477282 
L 273.160976 297.84932 
L 273.836496 297.84932 
L 272.406522 295.965437 
L 273.077349 295.965437 
L 272.134532 294.709515 
L 272.801196 294.709515 
L 272.332697 294.081553 
L 276.264 294.081553 
L 275.79507 293.453592 
L 277.08014 293.453592 
L 276.147209 292.19767 
L 278.050115 292.19767 
L 277.585714 291.569709 
L 280.080822 291.569709 
L 279.617084 290.941748 
L 280.233409 290.941748 
L 278.853725 289.057864 
L 281.287248 289.057864 
L 280.375056 287.801942 
L 282.169912 287.801942 
L 279.475546 284.034175 
L 282.984052 284.034175 
L 282.54 283.406214 
L 283.115665 283.406214 
L 282.673233 282.778252 
L 283.816631 282.778252 
L 283.375532 282.150291 
L 283.943312 282.150291 
L 283.066173 280.894369 
L 285.311321 280.894369 
L 284.439457 279.638447 
L 284.994375 279.638447 
L 284.560915 279.010485 
L 288.916564 279.010485 
L 288.483061 278.382524 
L 290.607085 278.382524 
L 289.314688 276.498641 
L 289.839759 276.498641 
L 287.3 272.730874 
L 288.341502 272.730874 
L 286.68 270.219029 
L 291.759231 270.219029 
L 291.346065 269.591068 
L 292.831489 269.591068 
L 292.419429 268.963107 
L 295.338983 268.963107 
L 294.109551 267.079223 
L 294.589346 267.079223 
L 292.57 263.939417 
L 293.522878 263.939417 
L 292.725 262.683495 
L 293.198532 262.683495 
L 292.406216 261.427573 
L 296.588849 261.427573 
L 296.193716 260.799612 
L 298.009091 260.799612 
L 296.440885 258.287767 
L 296.890283 258.287767 
L 296.501587 257.659806 
L 297.84 257.659806 
L 297.452364 257.031845 
L 298.776481 257.031845 
L 298.389913 256.403883 
L 301.853516 256.403883 
L 301.467637 255.775922 
L 304.00322 255.775922 
L 303.618274 255.147961 
L 304.035811 255.147961 
L 303.652108 254.52 
L 305.30804 254.52 
L 304.925418 253.892039 
L 306.559136 253.892039 
L 306.177612 253.264078 
L 306.986281 253.264078 
L 306.605941 252.636117 
L 307.409211 252.636117 
L 307.030049 252.008155 
L 308.225 252.008155 
L 307.846982 251.380194 
L 308.637073 251.380194 
L 307.884603 250.124272 
L 310.609615 250.124272 
L 310.23504 249.496311 
L 311.384236 249.496311 
L 310.267512 247.612427 
L 311.027488 247.612427 
L 309.921226 245.728544 
L 311.052113 245.728544 
L 310.685625 245.100583 
L 311.060218 245.100583 
L 310.69486 244.472621 
L 312.550386 244.472621 
L 312.186111 243.84466 
L 315.096037 243.84466 
L 314.732877 243.216699 
L 316.161422 243.216699 
L 315.799396 242.588738 
L 319.296429 242.588738 
L 318.935661 241.960777 
L 319.964645 241.960777 
L 319.605022 241.332816 
L 320.962996 241.332816 
L 319.535474 238.820971 
L 321.874855 238.820971 
L 321.167723 237.565049 
L 321.827586 237.565049 
L 321.47561 236.937087 
L 322.458429 236.937087 
L 322.107561 236.309126 
L 323.727195 236.309126 
L 323.377511 235.681165 
L 324.019041 235.681165 
L 322.976124 233.797282 
L 326.131579 233.797282 
L 325.786307 233.16932 
L 326.097099 233.16932 
L 325.752828 232.541359 
L 327.6 232.541359 
L 327.256967 231.913398 
L 328.471875 231.913398 
L 328.129986 231.285437 
L 330.816354 231.285437 
L 330.475904 230.657476 
L 331.064219 230.657476 
L 330.7248 230.029515 
L 332.759841 230.029515 
L 332.084585 228.773592 
L 333.515969 228.773592 
L 332.844909 227.51767 
L 334.53886 227.51767 
L 334.205045 226.889709 
L 335.320077 226.889709 
L 334.987404 226.261748 
L 336.365517 226.261748 
L 336.034056 225.633786 
L 336.580534 225.633786 
L 336.250064 225.005825 
L 338.675879 225.005825 
L 338.346926 224.377864 
L 338.613158 224.377864 
L 337.631461 222.493981 
L 338.162391 222.493981 
L 337.83694 221.866019 
L 338.101491 221.866019 
L 337.776923 221.238058 
L 338.304208 221.238058 
L 337.657778 219.982136 
L 337.920592 219.982136 
L 337.598645 219.354175 
L 339.678659 219.354175 
L 339.3581 218.726214 
L 339.615328 218.726214 
L 339.295626 218.098252 
L 340.063801 218.098252 
L 339.427174 216.84233 
L 339.682147 216.84233 
L 339.048736 215.586408 
L 339.810432 215.586408 
L 339.49509 214.958447 
L 339.747847 214.958447 
L 339.433333 214.330485 
L 341.434438 214.330485 
L 340.49717 212.446602 
L 341.238543 212.446602 
L 340.927817 211.818641 
L 341.173857 211.818641 
L 340.863934 211.19068 
L 341.109474 211.19068 
L 340.184266 209.306796 
L 340.429453 209.306796 
L 340.122558 208.678835 
L 340.367247 208.678835 
L 339.755736 207.422913 
L 340.243699 207.422913 
L 339.939145 206.794951 
L 341.629897 206.794951 
L 341.326545 206.16699 
L 342.043101 206.16699 
L 341.740661 205.539029 
L 342.452554 205.539029 
L 342.15102 204.911068 
L 342.623077 204.911068 
L 342.322373 204.283107 
L 343.260405 204.283107 
L 342.960674 203.655146 
L 343.426682 203.655146 
L 342.82953 202.399223 
L 344.445283 202.399223 
L 343.851827 201.143301 
L 346.11851 201.143301 
L 345.823523 200.51534 
L 346.047541 200.51534 
L 345.459651 199.259417 
L 345.683333 199.259417 
L 345.390424 198.631456 
L 345.613696 198.631456 
L 345.321498 198.003495 
L 345.54436 198.003495 
L 345.252871 197.375534 
L 346.139806 197.375534 
L 345.559311 196.119612 
L 347.094231 196.119612 
L 346.517271 194.863689 
L 347.168544 194.863689 
L 346.88121 194.235728 
L 347.313242 194.235728 
L 347.026667 193.607767 
L 348.949057 193.607767 
L 348.66377 192.979806 
L 351.378409 192.979806 
L 351.094737 192.351845 
L 351.300619 192.351845 
L 351.017611 191.723883 
L 351.428263 191.723883 
L 351.145996 191.095922 
L 351.350769 191.095922 
L 351.06916 190.467961 
L 351.681205 190.467961 
L 351.400408 189.84 
L 351.806517 189.84 
L 351.52645 189.212039 
L 352.735389 189.212039 
L 352.177901 187.956117 
L 352.378125 187.956117 
L 351.823038 186.700194 
L 354.000896 186.700194 
L 353.72505 186.072233 
L 354.116071 186.072233 
L 353.840932 185.444272 
L 354.230564 185.444272 
L 353.956126 184.816311 
L 354.150444 184.816311 
L 353.876627 184.18835 
L 354.457522 184.18835 
L 354.184479 183.560388 
L 354.762194 183.560388 
L 354.489922 182.932427 
L 358.442474 182.932427 
L 358.172414 182.304466 
L 359.090562 182.304466 
L 358.821429 181.676505 
L 359.186407 181.676505 
L 358.917949 181.048544 
L 360.005099 181.048544 
L 359.737642 180.420583 
L 360.455921 180.420583 
L 360.189296 179.792621 
L 360.546579 179.792621 
L 360.280618 179.16466 
L 360.45884 179.16466 
L 360.193458 178.536699 
L 360.903352 178.536699 
L 360.638791 177.908738 
L 362.910938 177.908738 
L 362.647934 177.280777 
L 364.020055 177.280777 
L 363.758197 176.652816 
L 365.111121 176.652816 
L 364.850407 176.024854 
L 366.51513 176.024854 
L 366.255725 175.396893 
L 366.585268 175.396893 
L 366.326494 174.768932 
L 366.9824 174.768932 
L 366.724423 174.140971 
L 368.825373 174.140971 
L 368.568947 173.51301 
L 368.728659 173.51301 
L 368.472767 172.885049 
L 369.425697 172.885049 
L 369.170757 172.257087 
L 369.328696 172.257087 
L 369.074283 171.629126 
L 369.389506 171.629126 
L 369.135702 171.001165 
L 369.292987 171.001165 
L 369.039706 170.373204 
L 369.666466 170.373204 
L 369.413953 169.745243 
L 371.422487 169.745243 
L 371.171489 169.117282 
L 373.435714 169.117282 
L 372.9375 167.861359 
L 375.728076 167.861359 
L 375.481188 167.233398 
L 376.63082 167.233398 
L 376.385012 166.605437 
L 376.954531 166.605437 
L 376.220521 164.721553 
L 377.490703 164.721553 
L 377.247577 164.093592 
L 377.667123 164.093592 
L 377.424638 163.465631 
L 378.258173 163.465631 
L 378.016573 162.83767 
L 378.705502 162.83767 
L 378.224283 161.581748 
L 379.722573 161.581748 
L 379.483438 160.953786 
L 379.61844 160.953786 
L 379.379764 160.325825 
L 379.514634 160.325825 
L 379.276415 159.697864 
L 379.411155 159.697864 
L 379.173391 159.069903 
L 381.302093 159.069903 
L 381.065995 158.441942 
L 381.328538 158.441942 
L 380.622917 156.558058 
L 381.015935 156.558058 
L 380.781692 155.930097 
L 381.82156 155.930097 
L 381.588312 155.302136 
L 382.232192 155.302136 
L 381.999696 154.674175 
L 382.256036 154.674175 
L 382.024052 154.046214 
L 384.671023 154.046214 
L 384.211409 152.790291 
L 388.212445 152.790291 
L 387.985745 152.16233 
L 393.367089 152.16233 
L 393.144413 151.534369 
L 393.255126 151.534369 
L 395.544706 151.534369 
L 395.324066 150.906408 
L 395.431513 150.906408 
L 395.645963 150.906408 
L 395.425862 150.278447 
L 395.532943 150.278447 
L 399.087879 150.278447 
L 398.654001 149.022524 
L 398.75625 149.022524 
L 399.366867 149.022524 
L 399.150903 148.394563 
L 399.252273 148.394563 
L 400.458223 148.394563 
L 400.243539 147.766602 
L 400.343245 147.766602 
L 401.529501 147.766602 
L 401.316087 147.138641 
L 401.414173 147.138641 
L 403.062167 147.138641 
L 402.850389 146.51068 
L 402.946273 146.51068 
L 403.042034 146.51068 
L 402.83068 145.882718 
L 402.926391 145.882718 
L 403.308 145.882718 
L 403.097292 145.254757 
L 403.192461 145.254757 
L 403.855228 145.254757 
L 403.645385 144.626796 
L 403.739654 144.626796 
L 409.705224 144.626796 
L 409.500553 143.998835 
L 409.587293 143.998835 
L 410.96079 143.998835 
L 410.757594 143.370874 
L 410.842623 143.370874 
L 410.927549 143.370874 
L 410.724742 142.742913 
L 410.809636 142.742913 
L 412.154082 142.742913 
L 411.952729 142.114951 
L 412.035971 142.114951 
L 412.78068 142.114951 
L 412.380107 140.859029 
L 412.4625 140.859029 
L 413.928975 140.859029 
L 413.730371 140.231068 
L 413.811 140.231068 
L 416.806157 140.231068 
L 416.610466 139.603107 
L 416.687586 139.603107 
L 420.579241 139.603107 
L 420.38734 138.975146 
L 420.460033 138.975146 
L 421.038679 138.975146 
L 420.847587 138.347184 
L 420.919623 138.347184 
L 426.895082 138.347184 
L 426.709884 137.719223 
L 426.775436 137.719223 
L 426.906332 137.719223 
L 426.721519 137.091262 
L 426.786927 137.091262 
L 426.852266 137.091262 
L 426.667773 136.463301 
L 426.733105 136.463301 
L 429.541204 136.463301 
L 429.240832 135.207379 
L 430.476817 135.207379 
L 430.296951 134.579417 
L 430.358151 134.579417 
L 431.087733 134.579417 
L 430.908829 133.951456 
L 430.969289 133.951456 
L 433.973894 133.951456 
L 433.798231 133.323495 
L 433.913108 133.323495 
L 438.277032 133.323495 
L 438.106141 132.695534 
L 438.212506 132.695534 
L 441.613318 132.695534 
L 441.446295 132.067573 
L 441.546252 132.067573 
L 443.50772 132.067573 
L 443.343069 131.439612 
L 443.439399 131.439612 
L 444.061364 131.439612 
L 443.897639 130.81165 
L 443.99279 130.81165 
L 449.32186 130.81165 
L 449.164286 130.183689 
L 449.250127 130.183689 
L 451.391112 130.183689 
L 451.236198 129.555728 
L 451.318415 129.555728 
L 453.566586 129.555728 
L 453.414482 128.927767 
L 453.492987 128.927767 
L 458.830971 128.927767 
L 458.685377 128.299806 
L 458.790491 128.299806 
L 467.128952 128.299806 
L 466.99388 127.671845 
L 467.080725 127.671845 
L 469.41407 127.671845 
L 469.282175 127.043883 
L 469.391485 127.043883 
L 472.891242 127.043883 
L 472.764112 126.415922 
L 472.864094 126.415922 
L 473.703707 126.415922 
L 473.57789 125.787961 
L 473.675609 125.787961 
L 476.767142 125.787961 
L 476.645628 125.16 
L 476.758018 125.16 
L 484.170295 125.16 
L 484.170295 125.16 
" style="fill:none;stroke:#2ca02c;stroke-linecap:square;stroke-width:2;"/>
   </g>
   <g id="patch_3">
    <path d="M 76.5 448.56 
L 76.5 60.48 
" style="fill:none;stroke:#000000;stroke-linecap:square;stroke-linejoin:miter;stroke-width:0.8;"/>
   </g>
   <g id="patch_4">
    <path d="M 550.8 448.56 
L 550.8 60.48 
" style="fill:none;stroke:#000000;stroke-linecap:square;stroke-linejoin:miter;stroke-width:0.8;"/>
   </g>
   <g id="patch_5">
    <path d="M 76.5 448.56 
L 550.8 448.56 
" style="fill:none;stroke:#000000;stroke-linecap:square;stroke-linejoin:miter;stroke-width:0.8;"/>
   </g>
   <g id="patch_6">
    <path d="M 76.5 60.48 
L 550.8 60.48 
" style="fill:none;stroke:#000000;stroke-linecap:square;stroke-linejoin:miter;stroke-width:0.8;"/>
   </g>
   <g id="text_25">
    <!-- graf: img1-img4 -->
    <defs>
     <path d="M 45.40625 27.984375 
Q 45.40625 37.75 41.375 43.109375 
Q 37.359375 48.484375 30.078125 48.484375 
Q 22.859375 48.484375 18.828125 43.109375 
Q 14.796875 37.75 14.796875 27.984375 
Q 14.796875 18.265625 18.828125 12.890625 
Q 22.859375 7.515625 30.078125 7.515625 
Q 37.359375 7.515625 41.375 12.890625 
Q 45.40625 18.265625 45.40625 27.984375 
z
M 54.390625 6.78125 
Q 54.390625 -7.171875 48.1875 -13.984375 
Q 42 -20.796875 29.203125 -20.796875 
Q 24.46875 -20.796875 20.265625 -20.09375 
Q 16.0625 -19.390625 12.109375 -17.921875 
L 12.109375 -9.1875 
Q 16.0625 -11.328125 19.921875 -12.34375 
Q 23.78125 -13.375 27.78125 -13.375 
Q 36.625 -13.375 41.015625 -8.765625 
Q 45.40625 -4.15625 45.40625 5.171875 
L 45.40625 9.625 
Q 42.625 4.78125 38.28125 2.390625 
Q 33.9375 0 27.875 0 
Q 17.828125 0 11.671875 7.65625 
Q 5.515625 15.328125 5.515625 27.984375 
Q 5.515625 40.671875 11.671875 48.328125 
Q 17.828125 56 27.875 56 
Q 33.9375 56 38.28125 53.609375 
Q 42.625 51.21875 45.40625 46.390625 
L 45.40625 54.6875 
L 54.390625 54.6875 
z
" id="DejaVuSans-103"/>
     <path d="M 34.28125 27.484375 
Q 23.390625 27.484375 19.1875 25 
Q 14.984375 22.515625 14.984375 16.5 
Q 14.984375 11.71875 18.140625 8.90625 
Q 21.296875 6.109375 26.703125 6.109375 
Q 34.1875 6.109375 38.703125 11.40625 
Q 43.21875 16.703125 43.21875 25.484375 
L 43.21875 27.484375 
z
M 52.203125 31.203125 
L 52.203125 0 
L 43.21875 0 
L 43.21875 8.296875 
Q 40.140625 3.328125 35.546875 0.953125 
Q 30.953125 -1.421875 24.3125 -1.421875 
Q 15.921875 -1.421875 10.953125 3.296875 
Q 6 8.015625 6 15.921875 
Q 6 25.140625 12.171875 29.828125 
Q 18.359375 34.515625 30.609375 34.515625 
L 43.21875 34.515625 
L 43.21875 35.40625 
Q 43.21875 41.609375 39.140625 45 
Q 35.0625 48.390625 27.6875 48.390625 
Q 23 48.390625 18.546875 47.265625 
Q 14.109375 46.140625 10.015625 43.890625 
L 10.015625 52.203125 
Q 14.9375 54.109375 19.578125 55.046875 
Q 24.21875 56 28.609375 56 
Q 40.484375 56 46.34375 49.84375 
Q 52.203125 43.703125 52.203125 31.203125 
z
" id="DejaVuSans-97"/>
     <path d="M 37.109375 75.984375 
L 37.109375 68.5 
L 28.515625 68.5 
Q 23.6875 68.5 21.796875 66.546875 
Q 19.921875 64.59375 19.921875 59.515625 
L 19.921875 54.6875 
L 34.71875 54.6875 
L 34.71875 47.703125 
L 19.921875 47.703125 
L 19.921875 0 
L 10.890625 0 
L 10.890625 47.703125 
L 2.296875 47.703125 
L 2.296875 54.6875 
L 10.890625 54.6875 
L 10.890625 58.5 
Q 10.890625 67.625 15.140625 71.796875 
Q 19.390625 75.984375 28.609375 75.984375 
z
" id="DejaVuSans-102"/>
     <path d="M 11.71875 12.40625 
L 22.015625 12.40625 
L 22.015625 0 
L 11.71875 0 
z
M 11.71875 51.703125 
L 22.015625 51.703125 
L 22.015625 39.3125 
L 11.71875 39.3125 
z
" id="DejaVuSans-58"/>
     <path id="DejaVuSans-32"/>
     <path d="M 52 44.1875 
Q 55.375 50.25 60.0625 53.125 
Q 64.75 56 71.09375 56 
Q 79.640625 56 84.28125 50.015625 
Q 88.921875 44.046875 88.921875 33.015625 
L 88.921875 0 
L 79.890625 0 
L 79.890625 32.71875 
Q 79.890625 40.578125 77.09375 44.375 
Q 74.3125 48.1875 68.609375 48.1875 
Q 61.625 48.1875 57.5625 43.546875 
Q 53.515625 38.921875 53.515625 30.90625 
L 53.515625 0 
L 44.484375 0 
L 44.484375 32.71875 
Q 44.484375 40.625 41.703125 44.40625 
Q 38.921875 48.1875 33.109375 48.1875 
Q 26.21875 48.1875 22.15625 43.53125 
Q 18.109375 38.875 18.109375 30.90625 
L 18.109375 0 
L 9.078125 0 
L 9.078125 54.6875 
L 18.109375 54.6875 
L 18.109375 46.1875 
Q 21.1875 51.21875 25.484375 53.609375 
Q 29.78125 56 35.6875 56 
Q 41.65625 56 45.828125 52.96875 
Q 50 49.953125 52 44.1875 
z
" id="DejaVuSans-109"/>
    </defs>
    <g transform="translate(265.219688 41.042625)scale(0.12 -0.12)">
     <use xlink:href="#DejaVuSans-103"/>
     <use x="63.476562" xlink:href="#DejaVuSans-114"/>
     <use x="104.589844" xlink:href="#DejaVuSans-97"/>
     <use x="165.869141" xlink:href="#DejaVuSans-102"/>
     <use x="201.027344" xlink:href="#DejaVuSans-58"/>
     <use x="234.71875" xlink:href="#DejaVuSans-32"/>
     <use x="266.505859" xlink:href="#DejaVuSans-105"/>
     <use x="294.289062" xlink:href="#DejaVuSans-109"/>
     <use x="391.701172" xlink:href="#DejaVuSans-103"/>
     <use x="455.177734" xlink:href="#DejaVuSans-49"/>
     <use x="518.800781" xlink:href="#DejaVuSans-45"/>
     <use x="554.884766" xlink:href="#DejaVuSans-105"/>
     <use x="582.667969" xlink:href="#DejaVuSans-109"/>
     <use x="680.080078" xlink:href="#DejaVuSans-103"/>
     <use x="743.556641" xlink:href="#DejaVuSans-52"/>
    </g>
    <!-- NearestNeighbours -->
    <defs>
     <path d="M 9.8125 72.90625 
L 23.09375 72.90625 
L 55.421875 11.921875 
L 55.421875 72.90625 
L 64.984375 72.90625 
L 64.984375 0 
L 51.703125 0 
L 19.390625 60.984375 
L 19.390625 0 
L 9.8125 0 
z
" id="DejaVuSans-78"/>
     <path d="M 54.890625 33.015625 
L 54.890625 0 
L 45.90625 0 
L 45.90625 32.71875 
Q 45.90625 40.484375 42.875 44.328125 
Q 39.84375 48.1875 33.796875 48.1875 
Q 26.515625 48.1875 22.3125 43.546875 
Q 18.109375 38.921875 18.109375 30.90625 
L 18.109375 0 
L 9.078125 0 
L 9.078125 75.984375 
L 18.109375 75.984375 
L 18.109375 46.1875 
Q 21.34375 51.125 25.703125 53.5625 
Q 30.078125 56 35.796875 56 
Q 45.21875 56 50.046875 50.171875 
Q 54.890625 44.34375 54.890625 33.015625 
z
" id="DejaVuSans-104"/>
     <path d="M 48.6875 27.296875 
Q 48.6875 37.203125 44.609375 42.84375 
Q 40.53125 48.484375 33.40625 48.484375 
Q 26.265625 48.484375 22.1875 42.84375 
Q 18.109375 37.203125 18.109375 27.296875 
Q 18.109375 17.390625 22.1875 11.75 
Q 26.265625 6.109375 33.40625 6.109375 
Q 40.53125 6.109375 44.609375 11.75 
Q 48.6875 17.390625 48.6875 27.296875 
z
M 18.109375 46.390625 
Q 20.953125 51.265625 25.265625 53.625 
Q 29.59375 56 35.59375 56 
Q 45.5625 56 51.78125 48.09375 
Q 58.015625 40.1875 58.015625 27.296875 
Q 58.015625 14.40625 51.78125 6.484375 
Q 45.5625 -1.421875 35.59375 -1.421875 
Q 29.59375 -1.421875 25.265625 0.953125 
Q 20.953125 3.328125 18.109375 8.203125 
L 18.109375 0 
L 9.078125 0 
L 9.078125 75.984375 
L 18.109375 75.984375 
z
" id="DejaVuSans-98"/>
     <path d="M 8.5 21.578125 
L 8.5 54.6875 
L 17.484375 54.6875 
L 17.484375 21.921875 
Q 17.484375 14.15625 20.5 10.265625 
Q 23.53125 6.390625 29.59375 6.390625 
Q 36.859375 6.390625 41.078125 11.03125 
Q 45.3125 15.671875 45.3125 23.6875 
L 45.3125 54.6875 
L 54.296875 54.6875 
L 54.296875 0 
L 45.3125 0 
L 45.3125 8.40625 
Q 42.046875 3.421875 37.71875 1 
Q 33.40625 -1.421875 27.6875 -1.421875 
Q 18.265625 -1.421875 13.375 4.4375 
Q 8.5 10.296875 8.5 21.578125 
z
M 31.109375 56 
z
" id="DejaVuSans-117"/>
    </defs>
    <g transform="translate(255.824063 54.48)scale(0.12 -0.12)">
     <use xlink:href="#DejaVuSans-78"/>
     <use x="74.804688" xlink:href="#DejaVuSans-101"/>
     <use x="136.328125" xlink:href="#DejaVuSans-97"/>
     <use x="197.607422" xlink:href="#DejaVuSans-114"/>
     <use x="238.689453" xlink:href="#DejaVuSans-101"/>
     <use x="300.212891" xlink:href="#DejaVuSans-115"/>
     <use x="352.3125" xlink:href="#DejaVuSans-116"/>
     <use x="391.521484" xlink:href="#DejaVuSans-78"/>
     <use x="466.326172" xlink:href="#DejaVuSans-101"/>
     <use x="527.849609" xlink:href="#DejaVuSans-105"/>
     <use x="555.632812" xlink:href="#DejaVuSans-103"/>
     <use x="619.109375" xlink:href="#DejaVuSans-104"/>
     <use x="682.488281" xlink:href="#DejaVuSans-98"/>
     <use x="745.964844" xlink:href="#DejaVuSans-111"/>
     <use x="807.146484" xlink:href="#DejaVuSans-117"/>
     <use x="870.525391" xlink:href="#DejaVuSans-114"/>
     <use x="911.638672" xlink:href="#DejaVuSans-115"/>
    </g>
   </g>
   <g id="legend_1">
    <g id="patch_7">
     <path d="M 373.646875 112.514375 
L 543.8 112.514375 
Q 545.8 112.514375 545.8 110.514375 
L 545.8 67.48 
Q 545.8 65.48 543.8 65.48 
L 373.646875 65.48 
Q 371.646875 65.48 371.646875 67.48 
L 371.646875 110.514375 
Q 371.646875 112.514375 373.646875 112.514375 
z
" style="fill:#ffffff;opacity:0.8;stroke:#cccccc;stroke-linejoin:miter;"/>
    </g>
    <g id="line2d_48">
     <path d="M 375.646875 73.578438 
L 395.646875 73.578438 
" style="fill:none;stroke:#1f77b4;stroke-linecap:square;stroke-width:2;"/>
    </g>
    <g id="line2d_49"/>
    <g id="text_26">
     <!-- root-cvsift AP: 6.2, %In: 8.1 -->
     <defs>
      <path d="M 2.984375 54.6875 
L 12.5 54.6875 
L 29.59375 8.796875 
L 46.6875 54.6875 
L 56.203125 54.6875 
L 35.6875 0 
L 23.484375 0 
z
" id="DejaVuSans-118"/>
      <path d="M 34.1875 63.1875 
L 20.796875 26.90625 
L 47.609375 26.90625 
z
M 28.609375 72.90625 
L 39.796875 72.90625 
L 67.578125 0 
L 57.328125 0 
L 50.6875 18.703125 
L 17.828125 18.703125 
L 11.1875 0 
L 0.78125 0 
z
" id="DejaVuSans-65"/>
      <path d="M 19.671875 64.796875 
L 19.671875 37.40625 
L 32.078125 37.40625 
Q 38.96875 37.40625 42.71875 40.96875 
Q 46.484375 44.53125 46.484375 51.125 
Q 46.484375 57.671875 42.71875 61.234375 
Q 38.96875 64.796875 32.078125 64.796875 
z
M 9.8125 72.90625 
L 32.078125 72.90625 
Q 44.34375 72.90625 50.609375 67.359375 
Q 56.890625 61.8125 56.890625 51.125 
Q 56.890625 40.328125 50.609375 34.8125 
Q 44.34375 29.296875 32.078125 29.296875 
L 19.671875 29.296875 
L 19.671875 0 
L 9.8125 0 
z
" id="DejaVuSans-80"/>
      <path d="M 11.71875 12.40625 
L 22.015625 12.40625 
L 22.015625 4 
L 14.015625 -11.625 
L 7.71875 -11.625 
L 11.71875 4 
z
" id="DejaVuSans-44"/>
      <path d="M 72.703125 32.078125 
Q 68.453125 32.078125 66.03125 28.46875 
Q 63.625 24.859375 63.625 18.40625 
Q 63.625 12.0625 66.03125 8.421875 
Q 68.453125 4.78125 72.703125 4.78125 
Q 76.859375 4.78125 79.265625 8.421875 
Q 81.6875 12.0625 81.6875 18.40625 
Q 81.6875 24.8125 79.265625 28.4375 
Q 76.859375 32.078125 72.703125 32.078125 
z
M 72.703125 38.28125 
Q 80.421875 38.28125 84.953125 32.90625 
Q 89.5 27.546875 89.5 18.40625 
Q 89.5 9.28125 84.9375 3.921875 
Q 80.375 -1.421875 72.703125 -1.421875 
Q 64.890625 -1.421875 60.34375 3.921875 
Q 55.8125 9.28125 55.8125 18.40625 
Q 55.8125 27.59375 60.375 32.9375 
Q 64.9375 38.28125 72.703125 38.28125 
z
M 22.3125 68.015625 
Q 18.109375 68.015625 15.6875 64.375 
Q 13.28125 60.75 13.28125 54.390625 
Q 13.28125 47.953125 15.671875 44.328125 
Q 18.0625 40.71875 22.3125 40.71875 
Q 26.5625 40.71875 28.96875 44.328125 
Q 31.390625 47.953125 31.390625 54.390625 
Q 31.390625 60.6875 28.953125 64.34375 
Q 26.515625 68.015625 22.3125 68.015625 
z
M 66.40625 74.21875 
L 74.21875 74.21875 
L 28.609375 -1.421875 
L 20.796875 -1.421875 
z
M 22.3125 74.21875 
Q 30.03125 74.21875 34.609375 68.875 
Q 39.203125 63.53125 39.203125 54.390625 
Q 39.203125 45.171875 34.640625 39.84375 
Q 30.078125 34.515625 22.3125 34.515625 
Q 14.546875 34.515625 10.03125 39.859375 
Q 5.515625 45.21875 5.515625 54.390625 
Q 5.515625 63.484375 10.046875 68.84375 
Q 14.59375 74.21875 22.3125 74.21875 
z
" id="DejaVuSans-37"/>
      <path d="M 9.8125 72.90625 
L 19.671875 72.90625 
L 19.671875 0 
L 9.8125 0 
z
" id="DejaVuSans-73"/>
     </defs>
     <g transform="translate(403.646875 77.078438)scale(0.1 -0.1)">
      <use xlink:href="#DejaVuSans-114"/>
      <use x="41.082031" xlink:href="#DejaVuSans-111"/>
      <use x="102.263672" xlink:href="#DejaVuSans-111"/>
      <use x="163.445312" xlink:href="#DejaVuSans-116"/>
      <use x="202.654297" xlink:href="#DejaVuSans-45"/>
      <use x="238.738281" xlink:href="#DejaVuSans-99"/>
      <use x="293.71875" xlink:href="#DejaVuSans-118"/>
      <use x="352.898438" xlink:href="#DejaVuSans-115"/>
      <use x="404.998047" xlink:href="#DejaVuSans-105"/>
      <use x="432.78125" xlink:href="#DejaVuSans-102"/>
      <use x="467.970703" xlink:href="#DejaVuSans-116"/>
      <use x="507.179688" xlink:href="#DejaVuSans-32"/>
      <use x="538.966797" xlink:href="#DejaVuSans-65"/>
      <use x="607.375" xlink:href="#DejaVuSans-80"/>
      <use x="667.677734" xlink:href="#DejaVuSans-58"/>
      <use x="701.369141" xlink:href="#DejaVuSans-32"/>
      <use x="733.15625" xlink:href="#DejaVuSans-54"/>
      <use x="796.779297" xlink:href="#DejaVuSans-46"/>
      <use x="828.566406" xlink:href="#DejaVuSans-50"/>
      <use x="892.189453" xlink:href="#DejaVuSans-44"/>
      <use x="923.976562" xlink:href="#DejaVuSans-32"/>
      <use x="955.763672" xlink:href="#DejaVuSans-37"/>
      <use x="1050.783203" xlink:href="#DejaVuSans-73"/>
      <use x="1080.275391" xlink:href="#DejaVuSans-110"/>
      <use x="1143.654297" xlink:href="#DejaVuSans-58"/>
      <use x="1177.345703" xlink:href="#DejaVuSans-32"/>
      <use x="1209.132812" xlink:href="#DejaVuSans-56"/>
      <use x="1272.755859" xlink:href="#DejaVuSans-46"/>
      <use x="1304.542969" xlink:href="#DejaVuSans-49"/>
     </g>
    </g>
    <g id="line2d_50">
     <path d="M 375.646875 88.256563 
L 395.646875 88.256563 
" style="fill:none;stroke:#ff7f0e;stroke-linecap:square;stroke-width:2;"/>
    </g>
    <g id="line2d_51"/>
    <g id="text_27">
     <!-- tfeat AP: 12.0, %In: 10.0 -->
     <g transform="translate(403.646875 91.756563)scale(0.1 -0.1)">
      <use xlink:href="#DejaVuSans-116"/>
      <use x="39.208984" xlink:href="#DejaVuSans-102"/>
      <use x="74.414062" xlink:href="#DejaVuSans-101"/>
      <use x="135.9375" xlink:href="#DejaVuSans-97"/>
      <use x="197.216797" xlink:href="#DejaVuSans-116"/>
      <use x="236.425781" xlink:href="#DejaVuSans-32"/>
      <use x="268.212891" xlink:href="#DejaVuSans-65"/>
      <use x="336.621094" xlink:href="#DejaVuSans-80"/>
      <use x="396.923828" xlink:href="#DejaVuSans-58"/>
      <use x="430.615234" xlink:href="#DejaVuSans-32"/>
      <use x="462.402344" xlink:href="#DejaVuSans-49"/>
      <use x="526.025391" xlink:href="#DejaVuSans-50"/>
      <use x="589.648438" xlink:href="#DejaVuSans-46"/>
      <use x="621.435547" xlink:href="#DejaVuSans-48"/>
      <use x="685.058594" xlink:href="#DejaVuSans-44"/>
      <use x="716.845703" xlink:href="#DejaVuSans-32"/>
      <use x="748.632812" xlink:href="#DejaVuSans-37"/>
      <use x="843.652344" xlink:href="#DejaVuSans-73"/>
      <use x="873.144531" xlink:href="#DejaVuSans-110"/>
      <use x="936.523438" xlink:href="#DejaVuSans-58"/>
      <use x="970.214844" xlink:href="#DejaVuSans-32"/>
      <use x="1002.001953" xlink:href="#DejaVuSans-49"/>
      <use x="1065.625" xlink:href="#DejaVuSans-48"/>
      <use x="1129.248047" xlink:href="#DejaVuSans-46"/>
      <use x="1161.035156" xlink:href="#DejaVuSans-48"/>
     </g>
    </g>
    <g id="line2d_52">
     <path d="M 375.646875 102.934687 
L 395.646875 102.934687 
" style="fill:none;stroke:#2ca02c;stroke-linecap:square;stroke-width:2;"/>
    </g>
    <g id="line2d_53"/>
    <g id="text_28">
     <!-- hardnet AP: 45.4, %In: 14.0 -->
     <defs>
      <path d="M 45.40625 46.390625 
L 45.40625 75.984375 
L 54.390625 75.984375 
L 54.390625 0 
L 45.40625 0 
L 45.40625 8.203125 
Q 42.578125 3.328125 38.25 0.953125 
Q 33.9375 -1.421875 27.875 -1.421875 
Q 17.96875 -1.421875 11.734375 6.484375 
Q 5.515625 14.40625 5.515625 27.296875 
Q 5.515625 40.1875 11.734375 48.09375 
Q 17.96875 56 27.875 56 
Q 33.9375 56 38.25 53.625 
Q 42.578125 51.265625 45.40625 46.390625 
z
M 14.796875 27.296875 
Q 14.796875 17.390625 18.875 11.75 
Q 22.953125 6.109375 30.078125 6.109375 
Q 37.203125 6.109375 41.296875 11.75 
Q 45.40625 17.390625 45.40625 27.296875 
Q 45.40625 37.203125 41.296875 42.84375 
Q 37.203125 48.484375 30.078125 48.484375 
Q 22.953125 48.484375 18.875 42.84375 
Q 14.796875 37.203125 14.796875 27.296875 
z
" id="DejaVuSans-100"/>
     </defs>
     <g transform="translate(403.646875 106.434687)scale(0.1 -0.1)">
      <use xlink:href="#DejaVuSans-104"/>
      <use x="63.378906" xlink:href="#DejaVuSans-97"/>
      <use x="124.658203" xlink:href="#DejaVuSans-114"/>
      <use x="165.755859" xlink:href="#DejaVuSans-100"/>
      <use x="229.232422" xlink:href="#DejaVuSans-110"/>
      <use x="292.611328" xlink:href="#DejaVuSans-101"/>
      <use x="354.134766" xlink:href="#DejaVuSans-116"/>
      <use x="393.34375" xlink:href="#DejaVuSans-32"/>
      <use x="425.130859" xlink:href="#DejaVuSans-65"/>
      <use x="493.539062" xlink:href="#DejaVuSans-80"/>
      <use x="553.841797" xlink:href="#DejaVuSans-58"/>
      <use x="587.533203" xlink:href="#DejaVuSans-32"/>
      <use x="619.320312" xlink:href="#DejaVuSans-52"/>
      <use x="682.943359" xlink:href="#DejaVuSans-53"/>
      <use x="746.566406" xlink:href="#DejaVuSans-46"/>
      <use x="778.353516" xlink:href="#DejaVuSans-52"/>
      <use x="841.976562" xlink:href="#DejaVuSans-44"/>
      <use x="873.763672" xlink:href="#DejaVuSans-32"/>
      <use x="905.550781" xlink:href="#DejaVuSans-37"/>
      <use x="1000.570312" xlink:href="#DejaVuSans-73"/>
      <use x="1030.0625" xlink:href="#DejaVuSans-110"/>
      <use x="1093.441406" xlink:href="#DejaVuSans-58"/>
      <use x="1127.132812" xlink:href="#DejaVuSans-32"/>
      <use x="1158.919922" xlink:href="#DejaVuSans-49"/>
      <use x="1222.542969" xlink:href="#DejaVuSans-52"/>
      <use x="1286.166016" xlink:href="#DejaVuSans-46"/>
      <use x="1317.953125" xlink:href="#DejaVuSans-48"/>
     </g>
    </g>
   </g>
  </g>
 </g>
 <defs>
  <clipPath id="pebbecfa258">
   <rect height="388.08" width="474.3" x="76.5" y="60.48"/>
  </clipPath>
 </defs>
</svg>
