<?xml version="1.0" encoding="utf-8" standalone="no"?>
<!DOCTYPE svg PUBLIC "-//W3C//DTD SVG 1.1//EN"
  "http://www.w3.org/Graphics/SVG/1.1/DTD/svg11.dtd">
<!-- Created with matplotlib (https://matplotlib.org/) -->
<svg height="504pt" version="1.1" viewBox="0 0 612 504" width="612pt" xmlns="http://www.w3.org/2000/svg" xmlns:xlink="http://www.w3.org/1999/xlink">
 <defs>
  <style type="text/css">
*{stroke-linecap:butt;stroke-linejoin:round;}
  </style>
 </defs>
 <g id="figure_1">
  <g id="patch_1">
   <path d="M 0 504 
L 612 504 
L 612 0 
L 0 0 
z
" style="fill:#ffffff;"/>
  </g>
  <g id="axes_1">
   <g id="patch_2">
    <path d="M 76.5 448.56 
L 550.8 448.56 
L 550.8 60.48 
L 76.5 60.48 
z
" style="fill:#ffffff;"/>
   </g>
   <g id="matplotlib.axis_1">
    <g id="xtick_1">
     <g id="line2d_1">
      <path clip-path="url(#p8e56efa2cb)" d="M 76.5 448.56 
L 76.5 60.48 
" style="fill:none;stroke:#b0b0b0;stroke-linecap:square;stroke-width:0.8;"/>
     </g>
     <g id="line2d_2">
      <defs>
       <path d="M 0 0 
L 0 3.5 
" id="mdbd1599c03" style="stroke:#000000;stroke-width:0.8;"/>
      </defs>
      <g>
       <use style="stroke:#000000;stroke-width:0.8;" x="76.5" xlink:href="#mdbd1599c03" y="448.56"/>
      </g>
     </g>
     <g id="text_1">
      <!-- 0.0 -->
      <defs>
       <path d="M 31.78125 66.40625 
Q 24.171875 66.40625 20.328125 58.90625 
Q 16.5 51.421875 16.5 36.375 
Q 16.5 21.390625 20.328125 13.890625 
Q 24.171875 6.390625 31.78125 6.390625 
Q 39.453125 6.390625 43.28125 13.890625 
Q 47.125 21.390625 47.125 36.375 
Q 47.125 51.421875 43.28125 58.90625 
Q 39.453125 66.40625 31.78125 66.40625 
z
M 31.78125 74.21875 
Q 44.046875 74.21875 50.515625 64.515625 
Q 56.984375 54.828125 56.984375 36.375 
Q 56.984375 17.96875 50.515625 8.265625 
Q 44.046875 -1.421875 31.78125 -1.421875 
Q 19.53125 -1.421875 13.0625 8.265625 
Q 6.59375 17.96875 6.59375 36.375 
Q 6.59375 54.828125 13.0625 64.515625 
Q 19.53125 74.21875 31.78125 74.21875 
z
" id="DejaVuSans-48"/>
       <path d="M 10.6875 12.40625 
L 21 12.40625 
L 21 0 
L 10.6875 0 
z
" id="DejaVuSans-46"/>
      </defs>
      <g transform="translate(68.548438 463.158437)scale(0.1 -0.1)">
       <use xlink:href="#DejaVuSans-48"/>
       <use x="63.623047" xlink:href="#DejaVuSans-46"/>
       <use x="95.410156" xlink:href="#DejaVuSans-48"/>
      </g>
     </g>
    </g>
    <g id="xtick_2">
     <g id="line2d_3">
      <path clip-path="url(#p8e56efa2cb)" d="M 123.93 448.56 
L 123.93 60.48 
" style="fill:none;stroke:#b0b0b0;stroke-linecap:square;stroke-width:0.8;"/>
     </g>
     <g id="line2d_4">
      <g>
       <use style="stroke:#000000;stroke-width:0.8;" x="123.93" xlink:href="#mdbd1599c03" y="448.56"/>
      </g>
     </g>
     <g id="text_2">
      <!-- 0.1 -->
      <defs>
       <path d="M 12.40625 8.296875 
L 28.515625 8.296875 
L 28.515625 63.921875 
L 10.984375 60.40625 
L 10.984375 69.390625 
L 28.421875 72.90625 
L 38.28125 72.90625 
L 38.28125 8.296875 
L 54.390625 8.296875 
L 54.390625 0 
L 12.40625 0 
z
" id="DejaVuSans-49"/>
      </defs>
      <g transform="translate(115.978438 463.158437)scale(0.1 -0.1)">
       <use xlink:href="#DejaVuSans-48"/>
       <use x="63.623047" xlink:href="#DejaVuSans-46"/>
       <use x="95.410156" xlink:href="#DejaVuSans-49"/>
      </g>
     </g>
    </g>
    <g id="xtick_3">
     <g id="line2d_5">
      <path clip-path="url(#p8e56efa2cb)" d="M 171.36 448.56 
L 171.36 60.48 
" style="fill:none;stroke:#b0b0b0;stroke-linecap:square;stroke-width:0.8;"/>
     </g>
     <g id="line2d_6">
      <g>
       <use style="stroke:#000000;stroke-width:0.8;" x="171.36" xlink:href="#mdbd1599c03" y="448.56"/>
      </g>
     </g>
     <g id="text_3">
      <!-- 0.2 -->
      <defs>
       <path d="M 19.1875 8.296875 
L 53.609375 8.296875 
L 53.609375 0 
L 7.328125 0 
L 7.328125 8.296875 
Q 12.9375 14.109375 22.625 23.890625 
Q 32.328125 33.6875 34.8125 36.53125 
Q 39.546875 41.84375 41.421875 45.53125 
Q 43.3125 49.21875 43.3125 52.78125 
Q 43.3125 58.59375 39.234375 62.25 
Q 35.15625 65.921875 28.609375 65.921875 
Q 23.96875 65.921875 18.8125 64.3125 
Q 13.671875 62.703125 7.8125 59.421875 
L 7.8125 69.390625 
Q 13.765625 71.78125 18.9375 73 
Q 24.125 74.21875 28.421875 74.21875 
Q 39.75 74.21875 46.484375 68.546875 
Q 53.21875 62.890625 53.21875 53.421875 
Q 53.21875 48.921875 51.53125 44.890625 
Q 49.859375 40.875 45.40625 35.40625 
Q 44.1875 33.984375 37.640625 27.21875 
Q 31.109375 20.453125 19.1875 8.296875 
z
" id="DejaVuSans-50"/>
      </defs>
      <g transform="translate(163.408438 463.158437)scale(0.1 -0.1)">
       <use xlink:href="#DejaVuSans-48"/>
       <use x="63.623047" xlink:href="#DejaVuSans-46"/>
       <use x="95.410156" xlink:href="#DejaVuSans-50"/>
      </g>
     </g>
    </g>
    <g id="xtick_4">
     <g id="line2d_7">
      <path clip-path="url(#p8e56efa2cb)" d="M 218.79 448.56 
L 218.79 60.48 
" style="fill:none;stroke:#b0b0b0;stroke-linecap:square;stroke-width:0.8;"/>
     </g>
     <g id="line2d_8">
      <g>
       <use style="stroke:#000000;stroke-width:0.8;" x="218.79" xlink:href="#mdbd1599c03" y="448.56"/>
      </g>
     </g>
     <g id="text_4">
      <!-- 0.3 -->
      <defs>
       <path d="M 40.578125 39.3125 
Q 47.65625 37.796875 51.625 33 
Q 55.609375 28.21875 55.609375 21.1875 
Q 55.609375 10.40625 48.1875 4.484375 
Q 40.765625 -1.421875 27.09375 -1.421875 
Q 22.515625 -1.421875 17.65625 -0.515625 
Q 12.796875 0.390625 7.625 2.203125 
L 7.625 11.71875 
Q 11.71875 9.328125 16.59375 8.109375 
Q 21.484375 6.890625 26.8125 6.890625 
Q 36.078125 6.890625 40.9375 10.546875 
Q 45.796875 14.203125 45.796875 21.1875 
Q 45.796875 27.640625 41.28125 31.265625 
Q 36.765625 34.90625 28.71875 34.90625 
L 20.21875 34.90625 
L 20.21875 43.015625 
L 29.109375 43.015625 
Q 36.375 43.015625 40.234375 45.921875 
Q 44.09375 48.828125 44.09375 54.296875 
Q 44.09375 59.90625 40.109375 62.90625 
Q 36.140625 65.921875 28.71875 65.921875 
Q 24.65625 65.921875 20.015625 65.03125 
Q 15.375 64.15625 9.8125 62.3125 
L 9.8125 71.09375 
Q 15.4375 72.65625 20.34375 73.4375 
Q 25.25 74.21875 29.59375 74.21875 
Q 40.828125 74.21875 47.359375 69.109375 
Q 53.90625 64.015625 53.90625 55.328125 
Q 53.90625 49.265625 50.4375 45.09375 
Q 46.96875 40.921875 40.578125 39.3125 
z
" id="DejaVuSans-51"/>
      </defs>
      <g transform="translate(210.838438 463.158437)scale(0.1 -0.1)">
       <use xlink:href="#DejaVuSans-48"/>
       <use x="63.623047" xlink:href="#DejaVuSans-46"/>
       <use x="95.410156" xlink:href="#DejaVuSans-51"/>
      </g>
     </g>
    </g>
    <g id="xtick_5">
     <g id="line2d_9">
      <path clip-path="url(#p8e56efa2cb)" d="M 266.22 448.56 
L 266.22 60.48 
" style="fill:none;stroke:#b0b0b0;stroke-linecap:square;stroke-width:0.8;"/>
     </g>
     <g id="line2d_10">
      <g>
       <use style="stroke:#000000;stroke-width:0.8;" x="266.22" xlink:href="#mdbd1599c03" y="448.56"/>
      </g>
     </g>
     <g id="text_5">
      <!-- 0.4 -->
      <defs>
       <path d="M 37.796875 64.3125 
L 12.890625 25.390625 
L 37.796875 25.390625 
z
M 35.203125 72.90625 
L 47.609375 72.90625 
L 47.609375 25.390625 
L 58.015625 25.390625 
L 58.015625 17.1875 
L 47.609375 17.1875 
L 47.609375 0 
L 37.796875 0 
L 37.796875 17.1875 
L 4.890625 17.1875 
L 4.890625 26.703125 
z
" id="DejaVuSans-52"/>
      </defs>
      <g transform="translate(258.268438 463.158437)scale(0.1 -0.1)">
       <use xlink:href="#DejaVuSans-48"/>
       <use x="63.623047" xlink:href="#DejaVuSans-46"/>
       <use x="95.410156" xlink:href="#DejaVuSans-52"/>
      </g>
     </g>
    </g>
    <g id="xtick_6">
     <g id="line2d_11">
      <path clip-path="url(#p8e56efa2cb)" d="M 313.65 448.56 
L 313.65 60.48 
" style="fill:none;stroke:#b0b0b0;stroke-linecap:square;stroke-width:0.8;"/>
     </g>
     <g id="line2d_12">
      <g>
       <use style="stroke:#000000;stroke-width:0.8;" x="313.65" xlink:href="#mdbd1599c03" y="448.56"/>
      </g>
     </g>
     <g id="text_6">
      <!-- 0.5 -->
      <defs>
       <path d="M 10.796875 72.90625 
L 49.515625 72.90625 
L 49.515625 64.59375 
L 19.828125 64.59375 
L 19.828125 46.734375 
Q 21.96875 47.46875 24.109375 47.828125 
Q 26.265625 48.1875 28.421875 48.1875 
Q 40.625 48.1875 47.75 41.5 
Q 54.890625 34.8125 54.890625 23.390625 
Q 54.890625 11.625 47.5625 5.09375 
Q 40.234375 -1.421875 26.90625 -1.421875 
Q 22.3125 -1.421875 17.546875 -0.640625 
Q 12.796875 0.140625 7.71875 1.703125 
L 7.71875 11.625 
Q 12.109375 9.234375 16.796875 8.0625 
Q 21.484375 6.890625 26.703125 6.890625 
Q 35.15625 6.890625 40.078125 11.328125 
Q 45.015625 15.765625 45.015625 23.390625 
Q 45.015625 31 40.078125 35.4375 
Q 35.15625 39.890625 26.703125 39.890625 
Q 22.75 39.890625 18.8125 39.015625 
Q 14.890625 38.140625 10.796875 36.28125 
z
" id="DejaVuSans-53"/>
      </defs>
      <g transform="translate(305.698438 463.158437)scale(0.1 -0.1)">
       <use xlink:href="#DejaVuSans-48"/>
       <use x="63.623047" xlink:href="#DejaVuSans-46"/>
       <use x="95.410156" xlink:href="#DejaVuSans-53"/>
      </g>
     </g>
    </g>
    <g id="xtick_7">
     <g id="line2d_13">
      <path clip-path="url(#p8e56efa2cb)" d="M 361.08 448.56 
L 361.08 60.48 
" style="fill:none;stroke:#b0b0b0;stroke-linecap:square;stroke-width:0.8;"/>
     </g>
     <g id="line2d_14">
      <g>
       <use style="stroke:#000000;stroke-width:0.8;" x="361.08" xlink:href="#mdbd1599c03" y="448.56"/>
      </g>
     </g>
     <g id="text_7">
      <!-- 0.6 -->
      <defs>
       <path d="M 33.015625 40.375 
Q 26.375 40.375 22.484375 35.828125 
Q 18.609375 31.296875 18.609375 23.390625 
Q 18.609375 15.53125 22.484375 10.953125 
Q 26.375 6.390625 33.015625 6.390625 
Q 39.65625 6.390625 43.53125 10.953125 
Q 47.40625 15.53125 47.40625 23.390625 
Q 47.40625 31.296875 43.53125 35.828125 
Q 39.65625 40.375 33.015625 40.375 
z
M 52.59375 71.296875 
L 52.59375 62.3125 
Q 48.875 64.0625 45.09375 64.984375 
Q 41.3125 65.921875 37.59375 65.921875 
Q 27.828125 65.921875 22.671875 59.328125 
Q 17.53125 52.734375 16.796875 39.40625 
Q 19.671875 43.65625 24.015625 45.921875 
Q 28.375 48.1875 33.59375 48.1875 
Q 44.578125 48.1875 50.953125 41.515625 
Q 57.328125 34.859375 57.328125 23.390625 
Q 57.328125 12.15625 50.6875 5.359375 
Q 44.046875 -1.421875 33.015625 -1.421875 
Q 20.359375 -1.421875 13.671875 8.265625 
Q 6.984375 17.96875 6.984375 36.375 
Q 6.984375 53.65625 15.1875 63.9375 
Q 23.390625 74.21875 37.203125 74.21875 
Q 40.921875 74.21875 44.703125 73.484375 
Q 48.484375 72.75 52.59375 71.296875 
z
" id="DejaVuSans-54"/>
      </defs>
      <g transform="translate(353.128438 463.158437)scale(0.1 -0.1)">
       <use xlink:href="#DejaVuSans-48"/>
       <use x="63.623047" xlink:href="#DejaVuSans-46"/>
       <use x="95.410156" xlink:href="#DejaVuSans-54"/>
      </g>
     </g>
    </g>
    <g id="xtick_8">
     <g id="line2d_15">
      <path clip-path="url(#p8e56efa2cb)" d="M 408.51 448.56 
L 408.51 60.48 
" style="fill:none;stroke:#b0b0b0;stroke-linecap:square;stroke-width:0.8;"/>
     </g>
     <g id="line2d_16">
      <g>
       <use style="stroke:#000000;stroke-width:0.8;" x="408.51" xlink:href="#mdbd1599c03" y="448.56"/>
      </g>
     </g>
     <g id="text_8">
      <!-- 0.7 -->
      <defs>
       <path d="M 8.203125 72.90625 
L 55.078125 72.90625 
L 55.078125 68.703125 
L 28.609375 0 
L 18.3125 0 
L 43.21875 64.59375 
L 8.203125 64.59375 
z
" id="DejaVuSans-55"/>
      </defs>
      <g transform="translate(400.558438 463.158437)scale(0.1 -0.1)">
       <use xlink:href="#DejaVuSans-48"/>
       <use x="63.623047" xlink:href="#DejaVuSans-46"/>
       <use x="95.410156" xlink:href="#DejaVuSans-55"/>
      </g>
     </g>
    </g>
    <g id="xtick_9">
     <g id="line2d_17">
      <path clip-path="url(#p8e56efa2cb)" d="M 455.94 448.56 
L 455.94 60.48 
" style="fill:none;stroke:#b0b0b0;stroke-linecap:square;stroke-width:0.8;"/>
     </g>
     <g id="line2d_18">
      <g>
       <use style="stroke:#000000;stroke-width:0.8;" x="455.94" xlink:href="#mdbd1599c03" y="448.56"/>
      </g>
     </g>
     <g id="text_9">
      <!-- 0.8 -->
      <defs>
       <path d="M 31.78125 34.625 
Q 24.75 34.625 20.71875 30.859375 
Q 16.703125 27.09375 16.703125 20.515625 
Q 16.703125 13.921875 20.71875 10.15625 
Q 24.75 6.390625 31.78125 6.390625 
Q 38.8125 6.390625 42.859375 10.171875 
Q 46.921875 13.96875 46.921875 20.515625 
Q 46.921875 27.09375 42.890625 30.859375 
Q 38.875 34.625 31.78125 34.625 
z
M 21.921875 38.8125 
Q 15.578125 40.375 12.03125 44.71875 
Q 8.5 49.078125 8.5 55.328125 
Q 8.5 64.0625 14.71875 69.140625 
Q 20.953125 74.21875 31.78125 74.21875 
Q 42.671875 74.21875 48.875 69.140625 
Q 55.078125 64.0625 55.078125 55.328125 
Q 55.078125 49.078125 51.53125 44.71875 
Q 48 40.375 41.703125 38.8125 
Q 48.828125 37.15625 52.796875 32.3125 
Q 56.78125 27.484375 56.78125 20.515625 
Q 56.78125 9.90625 50.3125 4.234375 
Q 43.84375 -1.421875 31.78125 -1.421875 
Q 19.734375 -1.421875 13.25 4.234375 
Q 6.78125 9.90625 6.78125 20.515625 
Q 6.78125 27.484375 10.78125 32.3125 
Q 14.796875 37.15625 21.921875 38.8125 
z
M 18.3125 54.390625 
Q 18.3125 48.734375 21.84375 45.5625 
Q 25.390625 42.390625 31.78125 42.390625 
Q 38.140625 42.390625 41.71875 45.5625 
Q 45.3125 48.734375 45.3125 54.390625 
Q 45.3125 60.0625 41.71875 63.234375 
Q 38.140625 66.40625 31.78125 66.40625 
Q 25.390625 66.40625 21.84375 63.234375 
Q 18.3125 60.0625 18.3125 54.390625 
z
" id="DejaVuSans-56"/>
      </defs>
      <g transform="translate(447.988438 463.158437)scale(0.1 -0.1)">
       <use xlink:href="#DejaVuSans-48"/>
       <use x="63.623047" xlink:href="#DejaVuSans-46"/>
       <use x="95.410156" xlink:href="#DejaVuSans-56"/>
      </g>
     </g>
    </g>
    <g id="xtick_10">
     <g id="line2d_19">
      <path clip-path="url(#p8e56efa2cb)" d="M 503.37 448.56 
L 503.37 60.48 
" style="fill:none;stroke:#b0b0b0;stroke-linecap:square;stroke-width:0.8;"/>
     </g>
     <g id="line2d_20">
      <g>
       <use style="stroke:#000000;stroke-width:0.8;" x="503.37" xlink:href="#mdbd1599c03" y="448.56"/>
      </g>
     </g>
     <g id="text_10">
      <!-- 0.9 -->
      <defs>
       <path d="M 10.984375 1.515625 
L 10.984375 10.5 
Q 14.703125 8.734375 18.5 7.8125 
Q 22.3125 6.890625 25.984375 6.890625 
Q 35.75 6.890625 40.890625 13.453125 
Q 46.046875 20.015625 46.78125 33.40625 
Q 43.953125 29.203125 39.59375 26.953125 
Q 35.25 24.703125 29.984375 24.703125 
Q 19.046875 24.703125 12.671875 31.3125 
Q 6.296875 37.9375 6.296875 49.421875 
Q 6.296875 60.640625 12.9375 67.421875 
Q 19.578125 74.21875 30.609375 74.21875 
Q 43.265625 74.21875 49.921875 64.515625 
Q 56.59375 54.828125 56.59375 36.375 
Q 56.59375 19.140625 48.40625 8.859375 
Q 40.234375 -1.421875 26.421875 -1.421875 
Q 22.703125 -1.421875 18.890625 -0.6875 
Q 15.09375 0.046875 10.984375 1.515625 
z
M 30.609375 32.421875 
Q 37.25 32.421875 41.125 36.953125 
Q 45.015625 41.5 45.015625 49.421875 
Q 45.015625 57.28125 41.125 61.84375 
Q 37.25 66.40625 30.609375 66.40625 
Q 23.96875 66.40625 20.09375 61.84375 
Q 16.21875 57.28125 16.21875 49.421875 
Q 16.21875 41.5 20.09375 36.953125 
Q 23.96875 32.421875 30.609375 32.421875 
z
" id="DejaVuSans-57"/>
      </defs>
      <g transform="translate(495.418438 463.158437)scale(0.1 -0.1)">
       <use xlink:href="#DejaVuSans-48"/>
       <use x="63.623047" xlink:href="#DejaVuSans-46"/>
       <use x="95.410156" xlink:href="#DejaVuSans-57"/>
      </g>
     </g>
    </g>
    <g id="xtick_11">
     <g id="line2d_21">
      <path clip-path="url(#p8e56efa2cb)" d="M 550.8 448.56 
L 550.8 60.48 
" style="fill:none;stroke:#b0b0b0;stroke-linecap:square;stroke-width:0.8;"/>
     </g>
     <g id="line2d_22">
      <g>
       <use style="stroke:#000000;stroke-width:0.8;" x="550.8" xlink:href="#mdbd1599c03" y="448.56"/>
      </g>
     </g>
     <g id="text_11">
      <!-- 1.0 -->
      <g transform="translate(542.848438 463.158437)scale(0.1 -0.1)">
       <use xlink:href="#DejaVuSans-49"/>
       <use x="63.623047" xlink:href="#DejaVuSans-46"/>
       <use x="95.410156" xlink:href="#DejaVuSans-48"/>
      </g>
     </g>
    </g>
    <g id="text_12">
     <!-- 1-precision -->
     <defs>
      <path d="M 4.890625 31.390625 
L 31.203125 31.390625 
L 31.203125 23.390625 
L 4.890625 23.390625 
z
" id="DejaVuSans-45"/>
      <path d="M 18.109375 8.203125 
L 18.109375 -20.796875 
L 9.078125 -20.796875 
L 9.078125 54.6875 
L 18.109375 54.6875 
L 18.109375 46.390625 
Q 20.953125 51.265625 25.265625 53.625 
Q 29.59375 56 35.59375 56 
Q 45.5625 56 51.78125 48.09375 
Q 58.015625 40.1875 58.015625 27.296875 
Q 58.015625 14.40625 51.78125 6.484375 
Q 45.5625 -1.421875 35.59375 -1.421875 
Q 29.59375 -1.421875 25.265625 0.953125 
Q 20.953125 3.328125 18.109375 8.203125 
z
M 48.6875 27.296875 
Q 48.6875 37.203125 44.609375 42.84375 
Q 40.53125 48.484375 33.40625 48.484375 
Q 26.265625 48.484375 22.1875 42.84375 
Q 18.109375 37.203125 18.109375 27.296875 
Q 18.109375 17.390625 22.1875 11.75 
Q 26.265625 6.109375 33.40625 6.109375 
Q 40.53125 6.109375 44.609375 11.75 
Q 48.6875 17.390625 48.6875 27.296875 
z
" id="DejaVuSans-112"/>
      <path d="M 41.109375 46.296875 
Q 39.59375 47.171875 37.8125 47.578125 
Q 36.03125 48 33.890625 48 
Q 26.265625 48 22.1875 43.046875 
Q 18.109375 38.09375 18.109375 28.8125 
L 18.109375 0 
L 9.078125 0 
L 9.078125 54.6875 
L 18.109375 54.6875 
L 18.109375 46.1875 
Q 20.953125 51.171875 25.484375 53.578125 
Q 30.03125 56 36.53125 56 
Q 37.453125 56 38.578125 55.875 
Q 39.703125 55.765625 41.0625 55.515625 
z
" id="DejaVuSans-114"/>
      <path d="M 56.203125 29.59375 
L 56.203125 25.203125 
L 14.890625 25.203125 
Q 15.484375 15.921875 20.484375 11.0625 
Q 25.484375 6.203125 34.421875 6.203125 
Q 39.59375 6.203125 44.453125 7.46875 
Q 49.3125 8.734375 54.109375 11.28125 
L 54.109375 2.78125 
Q 49.265625 0.734375 44.1875 -0.34375 
Q 39.109375 -1.421875 33.890625 -1.421875 
Q 20.796875 -1.421875 13.15625 6.1875 
Q 5.515625 13.8125 5.515625 26.8125 
Q 5.515625 40.234375 12.765625 48.109375 
Q 20.015625 56 32.328125 56 
Q 43.359375 56 49.78125 48.890625 
Q 56.203125 41.796875 56.203125 29.59375 
z
M 47.21875 32.234375 
Q 47.125 39.59375 43.09375 43.984375 
Q 39.0625 48.390625 32.421875 48.390625 
Q 24.90625 48.390625 20.390625 44.140625 
Q 15.875 39.890625 15.1875 32.171875 
z
" id="DejaVuSans-101"/>
      <path d="M 48.78125 52.59375 
L 48.78125 44.1875 
Q 44.96875 46.296875 41.140625 47.34375 
Q 37.3125 48.390625 33.40625 48.390625 
Q 24.65625 48.390625 19.8125 42.84375 
Q 14.984375 37.3125 14.984375 27.296875 
Q 14.984375 17.28125 19.8125 11.734375 
Q 24.65625 6.203125 33.40625 6.203125 
Q 37.3125 6.203125 41.140625 7.25 
Q 44.96875 8.296875 48.78125 10.40625 
L 48.78125 2.09375 
Q 45.015625 0.34375 40.984375 -0.53125 
Q 36.96875 -1.421875 32.421875 -1.421875 
Q 20.0625 -1.421875 12.78125 6.34375 
Q 5.515625 14.109375 5.515625 27.296875 
Q 5.515625 40.671875 12.859375 48.328125 
Q 20.21875 56 33.015625 56 
Q 37.15625 56 41.109375 55.140625 
Q 45.0625 54.296875 48.78125 52.59375 
z
" id="DejaVuSans-99"/>
      <path d="M 9.421875 54.6875 
L 18.40625 54.6875 
L 18.40625 0 
L 9.421875 0 
z
M 9.421875 75.984375 
L 18.40625 75.984375 
L 18.40625 64.59375 
L 9.421875 64.59375 
z
" id="DejaVuSans-105"/>
      <path d="M 44.28125 53.078125 
L 44.28125 44.578125 
Q 40.484375 46.53125 36.375 47.5 
Q 32.28125 48.484375 27.875 48.484375 
Q 21.1875 48.484375 17.84375 46.4375 
Q 14.5 44.390625 14.5 40.28125 
Q 14.5 37.15625 16.890625 35.375 
Q 19.28125 33.59375 26.515625 31.984375 
L 29.59375 31.296875 
Q 39.15625 29.25 43.1875 25.515625 
Q 47.21875 21.78125 47.21875 15.09375 
Q 47.21875 7.46875 41.1875 3.015625 
Q 35.15625 -1.421875 24.609375 -1.421875 
Q 20.21875 -1.421875 15.453125 -0.5625 
Q 10.6875 0.296875 5.421875 2 
L 5.421875 11.28125 
Q 10.40625 8.6875 15.234375 7.390625 
Q 20.0625 6.109375 24.8125 6.109375 
Q 31.15625 6.109375 34.5625 8.28125 
Q 37.984375 10.453125 37.984375 14.40625 
Q 37.984375 18.0625 35.515625 20.015625 
Q 33.0625 21.96875 24.703125 23.78125 
L 21.578125 24.515625 
Q 13.234375 26.265625 9.515625 29.90625 
Q 5.8125 33.546875 5.8125 39.890625 
Q 5.8125 47.609375 11.28125 51.796875 
Q 16.75 56 26.8125 56 
Q 31.78125 56 36.171875 55.265625 
Q 40.578125 54.546875 44.28125 53.078125 
z
" id="DejaVuSans-115"/>
      <path d="M 30.609375 48.390625 
Q 23.390625 48.390625 19.1875 42.75 
Q 14.984375 37.109375 14.984375 27.296875 
Q 14.984375 17.484375 19.15625 11.84375 
Q 23.34375 6.203125 30.609375 6.203125 
Q 37.796875 6.203125 41.984375 11.859375 
Q 46.1875 17.53125 46.1875 27.296875 
Q 46.1875 37.015625 41.984375 42.703125 
Q 37.796875 48.390625 30.609375 48.390625 
z
M 30.609375 56 
Q 42.328125 56 49.015625 48.375 
Q 55.71875 40.765625 55.71875 27.296875 
Q 55.71875 13.875 49.015625 6.21875 
Q 42.328125 -1.421875 30.609375 -1.421875 
Q 18.84375 -1.421875 12.171875 6.21875 
Q 5.515625 13.875 5.515625 27.296875 
Q 5.515625 40.765625 12.171875 48.375 
Q 18.84375 56 30.609375 56 
z
" id="DejaVuSans-111"/>
      <path d="M 54.890625 33.015625 
L 54.890625 0 
L 45.90625 0 
L 45.90625 32.71875 
Q 45.90625 40.484375 42.875 44.328125 
Q 39.84375 48.1875 33.796875 48.1875 
Q 26.515625 48.1875 22.3125 43.546875 
Q 18.109375 38.921875 18.109375 30.90625 
L 18.109375 0 
L 9.078125 0 
L 9.078125 54.6875 
L 18.109375 54.6875 
L 18.109375 46.1875 
Q 21.34375 51.125 25.703125 53.5625 
Q 30.078125 56 35.796875 56 
Q 45.21875 56 50.046875 50.171875 
Q 54.890625 44.34375 54.890625 33.015625 
z
" id="DejaVuSans-110"/>
     </defs>
     <g transform="translate(286 476.836563)scale(0.1 -0.1)">
      <use xlink:href="#DejaVuSans-49"/>
      <use x="63.623047" xlink:href="#DejaVuSans-45"/>
      <use x="99.707031" xlink:href="#DejaVuSans-112"/>
      <use x="163.183594" xlink:href="#DejaVuSans-114"/>
      <use x="204.265625" xlink:href="#DejaVuSans-101"/>
      <use x="265.789062" xlink:href="#DejaVuSans-99"/>
      <use x="320.769531" xlink:href="#DejaVuSans-105"/>
      <use x="348.552734" xlink:href="#DejaVuSans-115"/>
      <use x="400.652344" xlink:href="#DejaVuSans-105"/>
      <use x="428.435547" xlink:href="#DejaVuSans-111"/>
      <use x="489.617188" xlink:href="#DejaVuSans-110"/>
     </g>
    </g>
   </g>
   <g id="matplotlib.axis_2">
    <g id="ytick_1">
     <g id="line2d_23">
      <path clip-path="url(#p8e56efa2cb)" d="M 76.5 448.56 
L 550.8 448.56 
" style="fill:none;stroke:#b0b0b0;stroke-linecap:square;stroke-width:0.8;"/>
     </g>
     <g id="line2d_24">
      <defs>
       <path d="M 0 0 
L -3.5 0 
" id="mbcfc5fa690" style="stroke:#000000;stroke-width:0.8;"/>
      </defs>
      <g>
       <use style="stroke:#000000;stroke-width:0.8;" x="76.5" xlink:href="#mbcfc5fa690" y="448.56"/>
      </g>
     </g>
     <g id="text_13">
      <!-- 0.0 -->
      <g transform="translate(53.596875 452.359219)scale(0.1 -0.1)">
       <use xlink:href="#DejaVuSans-48"/>
       <use x="63.623047" xlink:href="#DejaVuSans-46"/>
       <use x="95.410156" xlink:href="#DejaVuSans-48"/>
      </g>
     </g>
    </g>
    <g id="ytick_2">
     <g id="line2d_25">
      <path clip-path="url(#p8e56efa2cb)" d="M 76.5 409.752 
L 550.8 409.752 
" style="fill:none;stroke:#b0b0b0;stroke-linecap:square;stroke-width:0.8;"/>
     </g>
     <g id="line2d_26">
      <g>
       <use style="stroke:#000000;stroke-width:0.8;" x="76.5" xlink:href="#mbcfc5fa690" y="409.752"/>
      </g>
     </g>
     <g id="text_14">
      <!-- 0.1 -->
      <g transform="translate(53.596875 413.551219)scale(0.1 -0.1)">
       <use xlink:href="#DejaVuSans-48"/>
       <use x="63.623047" xlink:href="#DejaVuSans-46"/>
       <use x="95.410156" xlink:href="#DejaVuSans-49"/>
      </g>
     </g>
    </g>
    <g id="ytick_3">
     <g id="line2d_27">
      <path clip-path="url(#p8e56efa2cb)" d="M 76.5 370.944 
L 550.8 370.944 
" style="fill:none;stroke:#b0b0b0;stroke-linecap:square;stroke-width:0.8;"/>
     </g>
     <g id="line2d_28">
      <g>
       <use style="stroke:#000000;stroke-width:0.8;" x="76.5" xlink:href="#mbcfc5fa690" y="370.944"/>
      </g>
     </g>
     <g id="text_15">
      <!-- 0.2 -->
      <g transform="translate(53.596875 374.743219)scale(0.1 -0.1)">
       <use xlink:href="#DejaVuSans-48"/>
       <use x="63.623047" xlink:href="#DejaVuSans-46"/>
       <use x="95.410156" xlink:href="#DejaVuSans-50"/>
      </g>
     </g>
    </g>
    <g id="ytick_4">
     <g id="line2d_29">
      <path clip-path="url(#p8e56efa2cb)" d="M 76.5 332.136 
L 550.8 332.136 
" style="fill:none;stroke:#b0b0b0;stroke-linecap:square;stroke-width:0.8;"/>
     </g>
     <g id="line2d_30">
      <g>
       <use style="stroke:#000000;stroke-width:0.8;" x="76.5" xlink:href="#mbcfc5fa690" y="332.136"/>
      </g>
     </g>
     <g id="text_16">
      <!-- 0.3 -->
      <g transform="translate(53.596875 335.935219)scale(0.1 -0.1)">
       <use xlink:href="#DejaVuSans-48"/>
       <use x="63.623047" xlink:href="#DejaVuSans-46"/>
       <use x="95.410156" xlink:href="#DejaVuSans-51"/>
      </g>
     </g>
    </g>
    <g id="ytick_5">
     <g id="line2d_31">
      <path clip-path="url(#p8e56efa2cb)" d="M 76.5 293.328 
L 550.8 293.328 
" style="fill:none;stroke:#b0b0b0;stroke-linecap:square;stroke-width:0.8;"/>
     </g>
     <g id="line2d_32">
      <g>
       <use style="stroke:#000000;stroke-width:0.8;" x="76.5" xlink:href="#mbcfc5fa690" y="293.328"/>
      </g>
     </g>
     <g id="text_17">
      <!-- 0.4 -->
      <g transform="translate(53.596875 297.127219)scale(0.1 -0.1)">
       <use xlink:href="#DejaVuSans-48"/>
       <use x="63.623047" xlink:href="#DejaVuSans-46"/>
       <use x="95.410156" xlink:href="#DejaVuSans-52"/>
      </g>
     </g>
    </g>
    <g id="ytick_6">
     <g id="line2d_33">
      <path clip-path="url(#p8e56efa2cb)" d="M 76.5 254.52 
L 550.8 254.52 
" style="fill:none;stroke:#b0b0b0;stroke-linecap:square;stroke-width:0.8;"/>
     </g>
     <g id="line2d_34">
      <g>
       <use style="stroke:#000000;stroke-width:0.8;" x="76.5" xlink:href="#mbcfc5fa690" y="254.52"/>
      </g>
     </g>
     <g id="text_18">
      <!-- 0.5 -->
      <g transform="translate(53.596875 258.319219)scale(0.1 -0.1)">
       <use xlink:href="#DejaVuSans-48"/>
       <use x="63.623047" xlink:href="#DejaVuSans-46"/>
       <use x="95.410156" xlink:href="#DejaVuSans-53"/>
      </g>
     </g>
    </g>
    <g id="ytick_7">
     <g id="line2d_35">
      <path clip-path="url(#p8e56efa2cb)" d="M 76.5 215.712 
L 550.8 215.712 
" style="fill:none;stroke:#b0b0b0;stroke-linecap:square;stroke-width:0.8;"/>
     </g>
     <g id="line2d_36">
      <g>
       <use style="stroke:#000000;stroke-width:0.8;" x="76.5" xlink:href="#mbcfc5fa690" y="215.712"/>
      </g>
     </g>
     <g id="text_19">
      <!-- 0.6 -->
      <g transform="translate(53.596875 219.511219)scale(0.1 -0.1)">
       <use xlink:href="#DejaVuSans-48"/>
       <use x="63.623047" xlink:href="#DejaVuSans-46"/>
       <use x="95.410156" xlink:href="#DejaVuSans-54"/>
      </g>
     </g>
    </g>
    <g id="ytick_8">
     <g id="line2d_37">
      <path clip-path="url(#p8e56efa2cb)" d="M 76.5 176.904 
L 550.8 176.904 
" style="fill:none;stroke:#b0b0b0;stroke-linecap:square;stroke-width:0.8;"/>
     </g>
     <g id="line2d_38">
      <g>
       <use style="stroke:#000000;stroke-width:0.8;" x="76.5" xlink:href="#mbcfc5fa690" y="176.904"/>
      </g>
     </g>
     <g id="text_20">
      <!-- 0.7 -->
      <g transform="translate(53.596875 180.703219)scale(0.1 -0.1)">
       <use xlink:href="#DejaVuSans-48"/>
       <use x="63.623047" xlink:href="#DejaVuSans-46"/>
       <use x="95.410156" xlink:href="#DejaVuSans-55"/>
      </g>
     </g>
    </g>
    <g id="ytick_9">
     <g id="line2d_39">
      <path clip-path="url(#p8e56efa2cb)" d="M 76.5 138.096 
L 550.8 138.096 
" style="fill:none;stroke:#b0b0b0;stroke-linecap:square;stroke-width:0.8;"/>
     </g>
     <g id="line2d_40">
      <g>
       <use style="stroke:#000000;stroke-width:0.8;" x="76.5" xlink:href="#mbcfc5fa690" y="138.096"/>
      </g>
     </g>
     <g id="text_21">
      <!-- 0.8 -->
      <g transform="translate(53.596875 141.895219)scale(0.1 -0.1)">
       <use xlink:href="#DejaVuSans-48"/>
       <use x="63.623047" xlink:href="#DejaVuSans-46"/>
       <use x="95.410156" xlink:href="#DejaVuSans-56"/>
      </g>
     </g>
    </g>
    <g id="ytick_10">
     <g id="line2d_41">
      <path clip-path="url(#p8e56efa2cb)" d="M 76.5 99.288 
L 550.8 99.288 
" style="fill:none;stroke:#b0b0b0;stroke-linecap:square;stroke-width:0.8;"/>
     </g>
     <g id="line2d_42">
      <g>
       <use style="stroke:#000000;stroke-width:0.8;" x="76.5" xlink:href="#mbcfc5fa690" y="99.288"/>
      </g>
     </g>
     <g id="text_22">
      <!-- 0.9 -->
      <g transform="translate(53.596875 103.087219)scale(0.1 -0.1)">
       <use xlink:href="#DejaVuSans-48"/>
       <use x="63.623047" xlink:href="#DejaVuSans-46"/>
       <use x="95.410156" xlink:href="#DejaVuSans-57"/>
      </g>
     </g>
    </g>
    <g id="ytick_11">
     <g id="line2d_43">
      <path clip-path="url(#p8e56efa2cb)" d="M 76.5 60.48 
L 550.8 60.48 
" style="fill:none;stroke:#b0b0b0;stroke-linecap:square;stroke-width:0.8;"/>
     </g>
     <g id="line2d_44">
      <g>
       <use style="stroke:#000000;stroke-width:0.8;" x="76.5" xlink:href="#mbcfc5fa690" y="60.48"/>
      </g>
     </g>
     <g id="text_23">
      <!-- 1.0 -->
      <g transform="translate(53.596875 64.279219)scale(0.1 -0.1)">
       <use xlink:href="#DejaVuSans-49"/>
       <use x="63.623047" xlink:href="#DejaVuSans-46"/>
       <use x="95.410156" xlink:href="#DejaVuSans-48"/>
      </g>
     </g>
    </g>
    <g id="text_24">
     <!-- #correct/744 -->
     <defs>
      <path d="M 51.125 44 
L 36.921875 44 
L 32.8125 27.6875 
L 47.125 27.6875 
z
M 43.796875 71.78125 
L 38.71875 51.515625 
L 52.984375 51.515625 
L 58.109375 71.78125 
L 65.921875 71.78125 
L 60.890625 51.515625 
L 76.125 51.515625 
L 76.125 44 
L 58.984375 44 
L 54.984375 27.6875 
L 70.515625 27.6875 
L 70.515625 20.21875 
L 53.078125 20.21875 
L 48 0 
L 40.1875 0 
L 45.21875 20.21875 
L 30.90625 20.21875 
L 25.875 0 
L 18.015625 0 
L 23.09375 20.21875 
L 7.71875 20.21875 
L 7.71875 27.6875 
L 24.90625 27.6875 
L 29 44 
L 13.28125 44 
L 13.28125 51.515625 
L 30.90625 51.515625 
L 35.890625 71.78125 
z
" id="DejaVuSans-35"/>
      <path d="M 18.3125 70.21875 
L 18.3125 54.6875 
L 36.8125 54.6875 
L 36.8125 47.703125 
L 18.3125 47.703125 
L 18.3125 18.015625 
Q 18.3125 11.328125 20.140625 9.421875 
Q 21.96875 7.515625 27.59375 7.515625 
L 36.8125 7.515625 
L 36.8125 0 
L 27.59375 0 
Q 17.1875 0 13.234375 3.875 
Q 9.28125 7.765625 9.28125 18.015625 
L 9.28125 47.703125 
L 2.6875 47.703125 
L 2.6875 54.6875 
L 9.28125 54.6875 
L 9.28125 70.21875 
z
" id="DejaVuSans-116"/>
      <path d="M 25.390625 72.90625 
L 33.6875 72.90625 
L 8.296875 -9.28125 
L 0 -9.28125 
z
" id="DejaVuSans-47"/>
     </defs>
     <g transform="translate(47.517187 287.641094)rotate(-90)scale(0.1 -0.1)">
      <use xlink:href="#DejaVuSans-35"/>
      <use x="83.789062" xlink:href="#DejaVuSans-99"/>
      <use x="138.769531" xlink:href="#DejaVuSans-111"/>
      <use x="199.951172" xlink:href="#DejaVuSans-114"/>
      <use x="241.048828" xlink:href="#DejaVuSans-114"/>
      <use x="282.130859" xlink:href="#DejaVuSans-101"/>
      <use x="343.654297" xlink:href="#DejaVuSans-99"/>
      <use x="398.634766" xlink:href="#DejaVuSans-116"/>
      <use x="437.84375" xlink:href="#DejaVuSans-47"/>
      <use x="471.535156" xlink:href="#DejaVuSans-55"/>
      <use x="535.158203" xlink:href="#DejaVuSans-52"/>
      <use x="598.78125" xlink:href="#DejaVuSans-52"/>
     </g>
    </g>
   </g>
   <g id="line2d_45">
    <path clip-path="url(#p8e56efa2cb)" d="M 76.5 448.038387 
L 76.5 391.704194 
L 80.811818 391.704194 
L 80.176744 381.793548 
L 79.57987 368.753226 
L 79.483019 366.145161 
L 82.42875 366.145161 
L 81.983237 359.364194 
L 84.677586 359.364194 
L 83.759694 347.88871 
L 83.275714 340.586129 
L 85.491469 340.586129 
L 84.677586 329.632258 
L 86.678112 329.632258 
L 85.986 320.764839 
L 87.837849 320.764839 
L 86.773646 307.202903 
L 86.591489 304.594839 
L 88.231802 304.594839 
L 87.567 295.727419 
L 89.10598 295.727419 
L 88.700643 290.51129 
L 90.181731 290.51129 
L 90.138019 289.989677 
L 91.605096 289.989677 
L 91.509494 288.946452 
L 92.95836 288.946452 
L 92.804063 287.381613 
L 94.230841 287.381613 
L 94.012615 285.295161 
L 98.190549 285.295161 
L 96.711648 272.776452 
L 96.04533 266.517097 
L 97.291233 266.517097 
L 96.845308 262.344194 
L 98.059091 262.344194 
L 97.887533 260.779355 
L 99.085714 260.779355 
L 98.560465 256.084839 
L 99.726031 256.084839 
L 99.547826 254.52 
L 100.69898 254.52 
L 99.75 246.174194 
L 100.852812 246.174194 
L 99.936 237.828387 
L 100.994366 237.828387 
L 100.377803 232.090645 
L 101.406164 232.090645 
L 101.180769 230.004194 
L 102.195711 230.004194 
L 101.965772 227.917742 
L 102.967634 227.917742 
L 102.56044 224.266452 
L 103.543421 224.266452 
L 102.906424 218.52871 
L 104.816418 218.52871 
L 104.576956 216.442258 
L 105.518354 216.442258 
L 105.457263 215.920645 
L 107.324528 215.920645 
L 107.004772 213.312581 
L 107.923602 213.312581 
L 107.858678 212.790968 
L 108.771959 212.790968 
L 108.705556 212.269355 
L 109.613347 212.269355 
L 108.623904 204.445161 
L 109.502982 204.445161 
L 109.372277 203.401935 
L 110.244664 203.401935 
L 110.111811 202.35871 
L 110.977603 202.35871 
L 110.842661 201.315484 
L 111.701953 201.315484 
L 111.294208 198.185806 
L 112.14104 198.185806 
L 112.0725 197.664194 
L 112.914587 197.664194 
L 112.637143 195.577742 
L 113.470152 195.577742 
L 113.330114 194.534516 
L 114.157089 194.534516 
L 113.944737 192.969677 
L 115.580899 192.969677 
L 115.36257 191.404839 
L 116.171933 191.404839 
L 115.879151 189.318387 
L 116.68011 189.318387 
L 116.313504 186.710323 
L 117.104918 186.710323 
L 117.031091 186.18871 
L 117.81833 186.18871 
L 117.743478 185.667097 
L 118.526582 185.667097 
L 118.450722 185.145484 
L 119.22973 185.145484 
L 118.697509 181.494194 
L 119.465009 181.494194 
L 119.31292 180.450968 
L 120.075265 180.450968 
L 119.998413 179.929355 
L 123.016287 179.929355 
L 122.373575 175.756452 
L 123.112241 175.756452 
L 122.872384 174.191613 
L 123.605137 174.191613 
L 123.524615 173.67 
L 124.980409 173.67 
L 124.897959 173.148387 
L 125.621053 173.148387 
L 125.454822 172.105161 
L 126.889376 172.105161 
L 126.804545 171.583548 
L 127.517143 171.583548 
L 127.261204 170.01871 
L 127.96828 170.01871 
L 127.797005 168.975484 
L 129.898013 168.975484 
L 129.809752 168.453871 
L 131.887007 168.453871 
L 131.435237 165.845806 
L 132.118241 165.845806 
L 132.027805 165.324194 
L 133.385251 165.324194 
L 133.293204 164.802581 
L 133.96769 164.802581 
L 133.782609 163.759355 
L 134.453055 163.759355 
L 134.267308 162.716129 
L 134.93376 162.716129 
L 134.840415 162.194516 
L 136.824324 162.194516 
L 136.443128 160.108065 
L 137.096688 160.108065 
L 137.00126 159.586452 
L 138.947022 159.586452 
L 138.849296 159.064839 
L 139.492969 159.064839 
L 139.394696 158.543226 
L 140.035514 158.543226 
L 139.838199 157.5 
L 140.475349 157.5 
L 140.376316 156.978387 
L 141.643056 156.978387 
L 141.442615 155.935161 
L 143.323277 155.935161 
L 143.221101 155.413548 
L 143.843359 155.413548 
L 143.638356 154.370323 
L 145.489091 154.370323 
L 145.176923 152.805484 
L 146.396842 152.805484 
L 146.082934 151.240645 
L 147.291045 151.240645 
L 147.185544 150.719032 
L 147.786161 150.719032 
L 147.680238 150.197419 
L 149.469231 150.197419 
L 149.361448 149.675806 
L 151.1325 149.675806 
L 151.022907 149.154194 
L 152.776316 149.154194 
L 152.553936 148.110968 
L 153.711628 148.110968 
L 153.487826 147.067742 
L 155.77781 147.067742 
L 155.323496 144.98129 
L 157.576923 144.98129 
L 156.776446 141.33 
L 157.331408 141.33 
L 156.878571 139.243548 
L 157.42951 139.243548 
L 157.31648 138.721935 
L 157.865272 138.721935 
L 157.638943 137.67871 
L 158.729542 137.67871 
L 158.615651 137.157097 
L 159.158091 137.157097 
L 159.043923 136.635484 
L 159.584276 136.635484 
L 159.241896 135.070645 
L 160.314658 135.070645 
L 160.085656 134.027419 
L 163.262195 134.027419 
L 163.14479 133.505806 
L 163.668649 133.505806 
L 163.551012 132.984194 
L 164.072911 132.984194 
L 163.955047 132.462581 
L 164.475 132.462581 
L 164.356913 131.940968 
L 164.874933 131.940968 
L 164.286551 129.332903 
L 165.824403 129.332903 
L 165.588095 128.289677 
L 166.096962 128.289677 
L 165.97876 127.768065 
L 167.495795 127.768065 
L 167.376378 127.246452 
L 168.380105 127.246452 
L 167.782705 124.638387 
L 168.28013 124.638387 
L 168.161089 124.116774 
L 169.1511 124.116774 
L 168.555656 121.50871 
L 173.884791 121.50871 
L 173.515909 119.943871 
L 175.882811 119.943871 
L 175.758271 119.422258 
L 176.22766 119.422258 
L 176.103 118.900645 
L 176.570787 118.900645 
L 176.321544 117.857419 
L 178.177695 117.857419 
L 178.051856 117.335806 
L 179.888054 117.335806 
L 179.634029 116.292581 
L 180.54375 116.292581 
L 180.416401 115.770968 
L 181.320879 115.770968 
L 181.193049 115.249355 
L 181.64324 115.249355 
L 181.515328 114.727742 
L 182.41165 114.727742 
L 182.155206 113.684516 
L 182.600967 113.684516 
L 182.472826 113.162903 
L 182.917129 113.162903 
L 182.788916 112.64129 
L 183.231769 112.64129 
L 183.103486 112.119677 
L 184.424551 112.119677 
L 184.295455 111.598065 
L 184.733333 111.598065 
L 184.604177 111.076452 
L 188.067021 111.076452 
L 187.935301 110.554839 
L 192.169428 110.554839 
L 192.034615 110.033226 
L 195.348845 110.033226 
L 195.211765 109.511613 
L 195.621429 109.511613 
L 195.48435 108.99 
L 199.526621 108.99 
L 199.386818 108.468387 
L 202.944432 108.468387 
L 202.80236 107.946774 
L 205.902561 107.946774 
L 205.615 106.903548 
L 206.761794 106.903548 
L 206.473923 105.860323 
L 207.989109 105.860323 
L 207.556579 104.295484 
L 210.171055 104.295484 
L 210.025761 103.773871 
L 214.052095 103.773871 
L 213.904506 103.252258 
L 214.265595 103.252258 
L 213.824038 101.687419 
L 214.542537 101.687419 
L 214.395527 101.165806 
L 222.779439 101.165806 
L 222.627697 100.644194 
L 224.657629 100.644194 
L 224.200822 99.079355 
L 228.506897 99.079355 
L 228.352888 98.557742 
L 228.679251 98.557742 
L 228.525379 98.036129 
L 229.175782 98.036129 
L 229.021875 97.514516 
L 242.985246 97.514516 
L 242.824855 96.992903 
L 243.712392 96.992903 
L 243.551919 96.47129 
L 245.602193 96.47129 
L 245.441143 95.949677 
L 246.021673 95.949677 
L 245.860684 95.428065 
L 246.726989 95.428065 
L 246.565941 94.906452 
L 247.426981 94.906452 
L 247.265881 94.384839 
L 252.881684 94.384839 
L 252.718669 93.863226 
L 253.268635 93.863226 
L 253.105714 93.341613 
L 255.824384 93.341613 
L 255.660766 92.82 
L 259.907374 92.82 
L 259.742588 92.298387 
L 260.525 92.298387 
L 260.360251 91.776774 
L 266.966929 91.776774 
L 266.800437 91.255161 
L 270.958915 91.255161 
L 270.791566 90.733548 
L 276.688964 90.733548 
L 276.520455 90.211935 
L 288.656718 90.211935 
L 288.486174 89.690323 
L 295.464789 89.690323 
L 295.293589 89.16871 
L 299.421 89.16871 
L 299.249654 88.647097 
L 305.104054 88.647097 
L 304.932558 88.125484 
L 324.459323 88.125484 
L 324.459323 88.125484 
" style="fill:none;stroke:#1f77b4;stroke-linecap:square;stroke-width:2;"/>
   </g>
   <g id="line2d_46">
    <path clip-path="url(#p8e56efa2cb)" d="M 76.5 448.038387 
L 76.5 442.300645 
L 112.984615 442.300645 
L 108.12 441.257419 
L 104.4 440.214194 
L 101.463158 439.170968 
L 99.085714 438.127742 
L 97.121739 437.084516 
L 94.742308 435.519677 
L 92.855172 433.954839 
L 91.321875 432.39 
L 90.051429 430.825161 
L 89.675 430.303548 
L 102.137838 430.303548 
L 100.215 428.73871 
L 98.560465 427.173871 
L 108.838636 427.173871 
L 106.14375 425.087419 
L 103.863462 423.000968 
L 102.370909 421.436129 
L 110.378571 421.436129 
L 108.12 419.349677 
L 106.14375 417.263226 
L 103.995652 414.655161 
L 103.602857 414.133548 
L 109.901408 414.133548 
L 107.703947 411.525484 
L 105.777778 408.917419 
L 103.758621 405.787742 
L 102 402.658065 
L 101.463158 401.614839 
L 106.14375 401.614839 
L 104.129126 397.963548 
L 103.34717 396.39871 
L 107.528972 396.39871 
L 107.241667 395.877097 
L 111.311009 395.877097 
L 109.210345 392.225806 
L 108.930769 391.704194 
L 112.675424 391.704194 
L 112.371429 391.182581 
L 116.025 391.182581 
L 115.377049 390.139355 
L 118.917073 390.139355 
L 116.633077 386.488065 
L 114.306522 382.315161 
L 114.034532 381.793548 
L 117.154286 381.793548 
L 114.956757 377.620645 
L 112.752229 372.926129 
L 110.786747 368.231613 
L 108.838636 363.015484 
L 111.335593 363.015484 
L 110.946369 361.972258 
L 113.39 361.972258 
L 111.820213 357.799355 
L 114.142857 357.799355 
L 112.798469 354.148065 
L 117.222727 354.148065 
L 116.8155 353.104839 
L 118.974627 353.104839 
L 116.770755 347.367097 
L 114.613393 341.107742 
L 113.61913 337.978065 
L 115.511688 337.978065 
L 115.176824 336.934839 
L 118.884255 336.934839 
L 117.658264 333.283548 
L 119.440741 333.283548 
L 118.072112 329.110645 
L 119.789286 329.110645 
L 118.947082 326.502581 
L 120.62093 326.502581 
L 120.113793 324.937742 
L 121.757634 324.937742 
L 119.618182 318.156774 
L 124.271223 318.156774 
L 124.1 317.635161 
L 125.623929 317.635161 
L 123.284694 310.332581 
L 121.597377 304.594839 
L 123 304.594839 
L 122.848534 304.073226 
L 124.237987 304.073226 
L 123.93 303.03 
L 126.666346 303.03 
L 124.957895 297.292258 
L 126.272222 297.292258 
L 125.072892 293.119355 
L 126.351351 293.119355 
L 124.202586 285.295161 
L 125.424928 285.295161 
L 124.598028 282.165484 
L 125.795225 282.165484 
L 124.187772 275.906129 
L 125.343902 275.906129 
L 124.820107 273.819677 
L 125.959091 273.819677 
L 123.68801 264.430645 
L 124.774809 264.430645 
L 124.652284 263.909032 
L 125.731139 263.909032 
L 125.11575 261.300968 
L 126.177307 261.300968 
L 125.930769 260.257742 
L 129.070197 260.257742 
L 128.941032 259.736129 
L 129.975 259.736129 
L 127.836 250.86871 
L 129.817096 250.86871 
L 128.12449 243.566129 
L 129.080769 243.566129 
L 128.261024 239.914839 
L 129.2 239.914839 
L 128.850993 238.35 
L 129.780396 238.35 
L 129.663297 237.828387 
L 131.506346 237.828387 
L 130.793521 234.69871 
L 131.698707 234.69871 
L 131.110235 232.090645 
L 133.777754 232.090645 
L 133.416 230.525806 
L 135.166038 230.525806 
L 134.799375 228.960968 
L 135.664241 228.960968 
L 135.419255 227.917742 
L 137.132165 227.917742 
L 136.513469 225.309677 
L 137.35723 225.309677 
L 136.622535 222.18 
L 137.454217 222.18 
L 136.728571 219.050323 
L 137.548515 219.050323 
L 137.307692 218.007097 
L 138.121654 218.007097 
L 138.000589 217.485484 
L 139.616243 217.485484 
L 139.370175 216.442258 
L 140.170623 216.442258 
L 139.801161 214.877419 
L 140.594595 214.877419 
L 139.981836 212.269355 
L 140.76584 212.269355 
L 140.278977 210.182903 
L 141.055009 210.182903 
L 140.570544 208.096452 
L 141.338764 208.096452 
L 140.856691 206.01 
L 141.617254 206.01 
L 140.782418 202.35871 
L 142.278832 202.35871 
L 142.159016 201.837097 
L 142.902 201.837097 
L 142.541772 200.272258 
L 143.2787 200.272258 
L 143.038489 199.229032 
L 143.770557 199.229032 
L 143.65 198.707419 
L 146.547865 198.707419 
L 146.175929 197.142581 
L 146.890813 197.142581 
L 146.766667 196.620968 
L 147.477993 196.620968 
L 146.981643 194.534516 
L 148.388676 194.534516 
L 148.263652 194.012903 
L 148.9625 194.012903 
L 148.462759 191.926452 
L 149.845361 191.926452 
L 149.469231 190.361613 
L 150.154096 190.361613 
L 149.903571 189.318387 
L 150.584211 189.318387 
L 150.458644 188.796774 
L 152.48398 188.796774 
L 151.974874 186.710323 
L 152.641806 186.710323 
L 152.388 185.667097 
L 153.050915 185.667097 
L 152.923754 185.145484 
L 153.583582 185.145484 
L 152.45 180.450968 
L 153.099837 180.450968 
L 152.850732 179.407742 
L 153.496753 179.407742 
L 153.371961 178.886129 
L 155.295 178.886129 
L 154.91557 177.32129 
L 156.1824 177.32129 
L 156.055112 176.799677 
L 156.684689 176.799677 
L 156.42973 175.756452 
L 158.921801 175.756452 
L 158.662205 174.713226 
L 160.506113 174.713226 
L 160.112949 173.148387 
L 160.721495 173.148387 
L 160.459938 172.105161 
L 161.065116 172.105161 
L 160.157209 168.453871 
L 161.946412 168.453871 
L 161.686301 167.410645 
L 162.27766 167.410645 
L 161.759366 165.324194 
L 162.931175 165.324194 
L 162.413623 163.237742 
L 164.150075 163.237742 
L 163.630667 161.15129 
L 165.343805 161.15129 
L 165.21296 160.629677 
L 166.345374 160.629677 
L 165.951316 159.064839 
L 167.073324 159.064839 
L 166.678955 157.5 
L 167.790738 157.5 
L 167.527273 156.456774 
L 168.079539 156.456774 
L 167.816379 155.413548 
L 168.365854 155.413548 
L 168.103004 154.370323 
L 168.649714 154.370323 
L 168.51826 153.84871 
L 169.062821 153.84871 
L 168.799858 152.805484 
L 169.341702 152.805484 
L 168.817913 150.719032 
L 170.96087 150.719032 
L 170.828571 150.197419 
L 171.36 150.197419 
L 170.963649 148.632581 
L 172.01875 148.632581 
L 171.886269 148.110968 
L 172.93444 148.110968 
L 172.801243 147.589355 
L 173.322621 147.589355 
L 172.923626 146.024516 
L 173.441975 146.024516 
L 172.91296 143.938065 
L 173.941224 143.938065 
L 173.808832 143.416452 
L 175.339242 143.416452 
L 175.07247 142.373226 
L 176.083849 142.373226 
L 175.81651 141.33 
L 177.819092 141.33 
L 177.684 140.808387 
L 180.154967 140.808387 
L 179.88111 139.765161 
L 180.370449 139.765161 
L 179.960972 138.200323 
L 180.447638 138.200323 
L 180.311402 137.67871 
L 180.796335 137.67871 
L 180.66 137.157097 
L 181.143211 137.157097 
L 181.00678 136.635484 
L 181.488281 136.635484 
L 181.215584 135.592258 
L 181.694942 135.592258 
L 181.558679 135.070645 
L 182.036352 135.070645 
L 181.9 134.549032 
L 183.324324 134.549032 
L 183.187018 134.027419 
L 183.658922 134.027419 
L 183.521538 133.505806 
L 185.860892 133.505806 
L 185.721756 132.984194 
L 186.185642 132.984194 
L 186.046447 132.462581 
L 186.508745 132.462581 
L 186.369494 131.940968 
L 186.830215 131.940968 
L 186.690909 131.419355 
L 188.064906 131.419355 
L 187.784944 130.376129 
L 188.23985 130.376129 
L 188.1 129.854516 
L 189.005618 129.854516 
L 188.865337 129.332903 
L 190.214161 129.332903 
L 190.073077 128.81129 
L 190.965965 128.81129 
L 190.824475 128.289677 
L 194.785086 128.289677 
L 194.640659 127.768065 
L 195.940511 127.768065 
L 195.795383 127.246452 
L 196.226214 127.246452 
L 195.791898 125.681613 
L 197.500722 125.681613 
L 197.355288 125.16 
L 198.202878 125.16 
L 198.057126 124.638387 
L 201.404626 124.638387 
L 201.108994 123.595161 
L 201.52234 123.595161 
L 201.227476 122.551935 
L 207.701042 122.551935 
L 207.549364 122.030323 
L 208.735714 122.030323 
L 208.583544 121.50871 
L 209.369346 121.50871 
L 209.216972 120.987097 
L 209.608247 120.987097 
L 209.45595 120.465484 
L 212.552041 120.465484 
L 212.397961 119.943871 
L 212.780769 119.943871 
L 212.62678 119.422258 
L 213.008465 119.422258 
L 212.854566 118.900645 
L 214.748879 118.900645 
L 214.594065 118.379032 
L 219.418212 118.379032 
L 219.260639 117.857419 
L 220.353626 117.857419 
L 220.195719 117.335806 
L 220.919934 117.335806 
L 220.761926 116.814194 
L 224.333766 116.814194 
L 224.173946 116.292581 
L 225.580301 116.292581 
L 225.42 115.770968 
L 226.11824 115.770968 
L 225.957878 115.249355 
L 226.999038 115.249355 
L 226.83842 114.727742 
L 228.899682 114.727742 
L 228.738242 114.206129 
L 229.079048 114.206129 
L 228.756811 113.162903 
L 232.786548 113.162903 
L 232.62375 112.64129 
L 232.954839 112.64129 
L 232.792204 112.119677 
L 233.451971 112.119677 
L 233.289326 111.598065 
L 238.149184 111.598065 
L 237.819959 110.554839 
L 240.975 110.554839 
L 240.809366 110.033226 
L 242.9793 110.033226 
L 242.812987 109.511613 
L 243.427119 109.511613 
L 243.260857 108.99 
L 243.566866 108.99 
L 243.400795 108.468387 
L 247.322473 108.468387 
L 247.155 107.946774 
L 255.54938 107.946774 
L 255.208658 106.903548 
L 256.329384 106.903548 
L 256.159091 106.381935 
L 257.547597 106.381935 
L 257.377119 105.860323 
L 259.298503 105.860323 
L 259.127664 105.33871 
L 267.597278 105.33871 
L 267.424025 104.817097 
L 267.680707 104.817097 
L 267.507692 104.295484 
L 271.551115 104.295484 
L 271.377273 103.773871 
L 273.845671 103.773871 
L 273.671492 103.252258 
L 274.889104 103.252258 
L 274.714925 102.730645 
L 276.879355 102.730645 
L 276.704961 102.209032 
L 282.770043 102.209032 
L 282.594643 101.687419 
L 283.503814 101.687419 
L 282.978867 100.122581 
L 283.205068 100.122581 
L 283.030633 99.600968 
L 287.474938 99.600968 
L 287.3 99.079355 
L 287.953846 99.079355 
L 287.779091 98.557742 
L 288.429596 98.557742 
L 288.255025 98.036129 
L 291.880747 98.036129 
L 291.705925 97.514516 
L 294.411325 97.514516 
L 294.061828 96.47129 
L 309.902709 96.47129 
L 309.727218 95.949677 
L 313.122609 95.949677 
L 312.947333 95.428065 
L 315.042952 95.428065 
L 314.867938 94.906452 
L 328.717541 94.906452 
L 328.717541 94.906452 
" style="fill:none;stroke:#ff7f0e;stroke-linecap:square;stroke-width:2;"/>
   </g>
   <g id="line2d_47">
    <path clip-path="url(#p8e56efa2cb)" d="M 76.5 448.038387 
L 76.5 356.756129 
L 79.179661 356.756129 
L 78.8715 344.759032 
L 81.219403 344.759032 
L 81.15 343.194194 
L 83.440976 343.194194 
L 82.606867 328.589032 
L 81.829213 310.854194 
L 81.440625 299.900323 
L 83.064706 299.900323 
L 82.824 294.162581 
L 84.378738 294.162581 
L 83.495575 274.34129 
L 82.708115 251.911935 
L 83.930287 251.911935 
L 83.815681 248.782258 
L 85.013077 248.782258 
L 84.905316 246.174194 
L 86.081818 246.174194 
L 86.009774 244.609355 
L 88.32793 244.609355 
L 88.240099 243.044516 
L 89.382222 243.044516 
L 89.256235 240.958065 
L 90.381951 240.958065 
L 90.083771 236.263548 
L 91.180714 236.263548 
L 90.772917 230.004194 
L 91.835335 230.004194 
L 91.321875 222.18 
L 93.364 222.18 
L 92.750107 213.312581 
L 93.728846 213.312581 
L 93.619108 211.747742 
L 95.55222 211.747742 
L 95.432143 210.182903 
L 96.386792 210.182903 
L 96.303758 209.139677 
L 99.132573 209.139677 
L 98.449497 201.315484 
L 99.357831 201.315484 
L 99.2664 200.272258 
L 100.167665 200.272258 
L 99.887574 197.142581 
L 101.659332 197.142581 
L 101.414591 194.534516 
L 103.156395 194.534516 
L 102.900576 191.926452 
L 103.758621 191.926452 
L 103.65458 190.883226 
L 104.506286 190.883226 
L 104.189831 187.753548 
L 105.029323 187.753548 
L 104.922472 186.710323 
L 106.586194 186.710323 
L 106.14375 182.537419 
L 106.959633 182.537419 
L 106.25 175.756452 
L 107.045259 175.756452 
L 106.403327 169.497097 
L 107.95445 169.497097 
L 107.790625 167.932258 
L 108.558406 167.932258 
L 108.447668 166.889032 
L 109.210345 166.889032 
L 109.154045 166.367419 
L 110.669125 166.367419 
L 110.552308 165.324194 
L 112.0523 165.324194 
L 111.282 158.543226 
L 112.013311 158.543226 
L 111.720297 155.935161 
L 112.443657 155.935161 
L 112.384539 155.413548 
L 114.537152 155.413548 
L 114.106311 151.762258 
L 114.811793 151.762258 
L 114.322967 147.589355 
L 115.710811 147.589355 
L 115.340315 144.459677 
L 116.025 144.459677 
L 115.962951 143.938065 
L 117.323944 143.938065 
L 117.196568 142.894839 
L 121.21762 142.894839 
L 121.148611 142.373226 
L 122.470615 142.373226 
L 122.4 141.851613 
L 124.365138 141.851613 
L 124.292061 141.33 
L 124.942226 141.33 
L 124.868493 140.808387 
L 125.515805 140.808387 
L 125.219637 138.721935 
L 125.861538 138.721935 
L 125.565517 136.635484 
L 126.202096 136.635484 
L 126.127803 136.113871 
L 126.761642 136.113871 
L 126.686736 135.592258 
L 127.317857 135.592258 
L 126.72 131.419355 
L 127.963636 131.419355 
L 127.293343 126.724839 
L 127.905347 126.724839 
L 127.831169 126.203226 
L 129.65431 126.203226 
L 129.275178 123.595161 
L 129.875641 123.595161 
L 129.573229 121.50871 
L 130.169024 121.50871 
L 130.01763 120.465484 
L 130.610282 120.465484 
L 130.458287 119.422258 
L 131.047826 119.422258 
L 130.971429 118.900645 
L 132.728033 118.900645 
L 132.571627 117.857419 
L 134.309418 117.857419 
L 133.911829 115.249355 
L 134.484478 115.249355 
L 133.932245 111.598065 
L 135.063501 111.598065 
L 134.668868 108.99 
L 136.344564 108.99 
L 136.264343 108.468387 
L 136.819277 108.468387 
L 136.658211 107.425161 
L 139.404509 107.425161 
L 138.907895 104.295484 
L 141.064398 104.295484 
L 140.895822 103.252258 
L 141.430248 103.252258 
L 141.261378 102.209032 
L 141.793247 102.209032 
L 141.70856 101.687419 
L 142.238472 101.687419 
L 141.984 100.122581 
L 142.510825 100.122581 
L 142.425869 99.600968 
L 142.950771 99.600968 
L 142.780385 98.557742 
L 143.302817 98.557742 
L 143.047194 96.992903 
L 143.566624 96.992903 
L 143.481298 96.47129 
L 145.543671 96.47129 
L 145.456384 95.949677 
L 148.507905 95.949677 
L 148.32766 94.906452 
L 149.332584 94.906452 
L 149.241771 94.384839 
L 150.240672 94.384839 
L 150.149068 93.863226 
L 152.130037 93.863226 
L 152.036667 93.341613 
L 152.52836 93.341613 
L 152.434729 92.82 
L 155.83956 92.82 
L 155.742805 92.298387 
L 156.704015 92.298387 
L 156.606561 91.776774 
L 158.986957 91.776774 
L 158.788193 90.733548 
L 159.730529 90.733548 
L 159.630612 90.211935 
L 161.5 90.211935 
L 161.398568 89.690323 
L 163.248456 89.690323 
L 163.145552 89.16871 
L 166.338 89.16871 
L 166.232432 88.647097 
L 166.683803 88.647097 
L 166.578077 88.125484 
L 167.027986 88.125484 
L 166.922105 87.603871 
L 170.039443 87.603871 
L 169.931054 87.082258 
L 170.371875 87.082258 
L 170.155081 86.039032 
L 170.594118 86.039032 
L 170.37756 84.995806 
L 173.417466 84.995806 
L 173.306956 84.474194 
L 175.020885 84.474194 
L 174.909184 83.952581 
L 180.36905 83.952581 
L 180.253125 83.430968 
L 180.666221 83.430968 
L 180.550223 82.909355 
L 181.373 82.909355 
L 181.256604 82.387742 
L 183.296026 82.387742 
L 183.17828 81.866129 
L 183.58315 81.866129 
L 183.465347 81.344516 
L 184.673684 81.344516 
L 184.555203 80.822903 
L 188.91526 80.822903 
L 188.79373 80.30129 
L 189.184665 80.30129 
L 189.063107 79.779677 
L 189.452909 79.779677 
L 189.331324 79.258065 
L 196.201901 79.258065 
L 196.075633 78.736452 
L 201.963174 78.736452 
L 201.833161 78.214839 
L 203.989495 78.214839 
L 203.858333 77.693226 
L 214.916235 77.693226 
L 214.778507 77.171613 
L 215.445879 77.171613 
L 215.308036 76.65 
L 217.293195 76.65 
L 217.154483 76.128387 
L 227.660496 76.128387 
L 227.516397 75.606774 
L 234.452519 75.606774 
L 234.305312 75.085161 
L 235.187732 75.085161 
L 235.04039 74.563548 
L 235.9175 74.563548 
L 235.770028 74.041935 
L 239.797808 74.041935 
L 239.648814 73.520323 
L 242.74065 73.520323 
L 242.590614 72.99871 
L 248.59115 72.99871 
L 248.438992 72.477097 
L 254.721818 72.477097 
L 254.567647 71.955484 
L 261.083756 71.955484 
L 260.927726 71.433871 
L 289.627951 71.433871 
L 289.465753 70.912258 
L 304.463415 70.912258 
L 304.3 70.390645 
L 313.322445 70.390645 
L 313.322445 70.390645 
" style="fill:none;stroke:#2ca02c;stroke-linecap:square;stroke-width:2;"/>
   </g>
   <g id="patch_3">
    <path d="M 76.5 448.56 
L 76.5 60.48 
" style="fill:none;stroke:#000000;stroke-linecap:square;stroke-linejoin:miter;stroke-width:0.8;"/>
   </g>
   <g id="patch_4">
    <path d="M 550.8 448.56 
L 550.8 60.48 
" style="fill:none;stroke:#000000;stroke-linecap:square;stroke-linejoin:miter;stroke-width:0.8;"/>
   </g>
   <g id="patch_5">
    <path d="M 76.5 448.56 
L 550.8 448.56 
" style="fill:none;stroke:#000000;stroke-linecap:square;stroke-linejoin:miter;stroke-width:0.8;"/>
   </g>
   <g id="patch_6">
    <path d="M 76.5 60.48 
L 550.8 60.48 
" style="fill:none;stroke:#000000;stroke-linecap:square;stroke-linejoin:miter;stroke-width:0.8;"/>
   </g>
   <g id="text_25">
    <!-- leuven: img1-img5 -->
    <defs>
     <path d="M 9.421875 75.984375 
L 18.40625 75.984375 
L 18.40625 0 
L 9.421875 0 
z
" id="DejaVuSans-108"/>
     <path d="M 8.5 21.578125 
L 8.5 54.6875 
L 17.484375 54.6875 
L 17.484375 21.921875 
Q 17.484375 14.15625 20.5 10.265625 
Q 23.53125 6.390625 29.59375 6.390625 
Q 36.859375 6.390625 41.078125 11.03125 
Q 45.3125 15.671875 45.3125 23.6875 
L 45.3125 54.6875 
L 54.296875 54.6875 
L 54.296875 0 
L 45.3125 0 
L 45.3125 8.40625 
Q 42.046875 3.421875 37.71875 1 
Q 33.40625 -1.421875 27.6875 -1.421875 
Q 18.265625 -1.421875 13.375 4.4375 
Q 8.5 10.296875 8.5 21.578125 
z
M 31.109375 56 
z
" id="DejaVuSans-117"/>
     <path d="M 2.984375 54.6875 
L 12.5 54.6875 
L 29.59375 8.796875 
L 46.6875 54.6875 
L 56.203125 54.6875 
L 35.6875 0 
L 23.484375 0 
z
" id="DejaVuSans-118"/>
     <path d="M 11.71875 12.40625 
L 22.015625 12.40625 
L 22.015625 0 
L 11.71875 0 
z
M 11.71875 51.703125 
L 22.015625 51.703125 
L 22.015625 39.3125 
L 11.71875 39.3125 
z
" id="DejaVuSans-58"/>
     <path id="DejaVuSans-32"/>
     <path d="M 52 44.1875 
Q 55.375 50.25 60.0625 53.125 
Q 64.75 56 71.09375 56 
Q 79.640625 56 84.28125 50.015625 
Q 88.921875 44.046875 88.921875 33.015625 
L 88.921875 0 
L 79.890625 0 
L 79.890625 32.71875 
Q 79.890625 40.578125 77.09375 44.375 
Q 74.3125 48.1875 68.609375 48.1875 
Q 61.625 48.1875 57.5625 43.546875 
Q 53.515625 38.921875 53.515625 30.90625 
L 53.515625 0 
L 44.484375 0 
L 44.484375 32.71875 
Q 44.484375 40.625 41.703125 44.40625 
Q 38.921875 48.1875 33.109375 48.1875 
Q 26.21875 48.1875 22.15625 43.53125 
Q 18.109375 38.875 18.109375 30.90625 
L 18.109375 0 
L 9.078125 0 
L 9.078125 54.6875 
L 18.109375 54.6875 
L 18.109375 46.1875 
Q 21.1875 51.21875 25.484375 53.609375 
Q 29.78125 56 35.6875 56 
Q 41.65625 56 45.828125 52.96875 
Q 50 49.953125 52 44.1875 
z
" id="DejaVuSans-109"/>
     <path d="M 45.40625 27.984375 
Q 45.40625 37.75 41.375 43.109375 
Q 37.359375 48.484375 30.078125 48.484375 
Q 22.859375 48.484375 18.828125 43.109375 
Q 14.796875 37.75 14.796875 27.984375 
Q 14.796875 18.265625 18.828125 12.890625 
Q 22.859375 7.515625 30.078125 7.515625 
Q 37.359375 7.515625 41.375 12.890625 
Q 45.40625 18.265625 45.40625 27.984375 
z
M 54.390625 6.78125 
Q 54.390625 -7.171875 48.1875 -13.984375 
Q 42 -20.796875 29.203125 -20.796875 
Q 24.46875 -20.796875 20.265625 -20.09375 
Q 16.0625 -19.390625 12.109375 -17.921875 
L 12.109375 -9.1875 
Q 16.0625 -11.328125 19.921875 -12.34375 
Q 23.78125 -13.375 27.78125 -13.375 
Q 36.625 -13.375 41.015625 -8.765625 
Q 45.40625 -4.15625 45.40625 5.171875 
L 45.40625 9.625 
Q 42.625 4.78125 38.28125 2.390625 
Q 33.9375 0 27.875 0 
Q 17.828125 0 11.671875 7.65625 
Q 5.515625 15.328125 5.515625 27.984375 
Q 5.515625 40.671875 11.671875 48.328125 
Q 17.828125 56 27.875 56 
Q 33.9375 56 38.28125 53.609375 
Q 42.625 51.21875 45.40625 46.390625 
L 45.40625 54.6875 
L 54.390625 54.6875 
z
" id="DejaVuSans-103"/>
    </defs>
    <g transform="translate(257.074688 41.042625)scale(0.12 -0.12)">
     <use xlink:href="#DejaVuSans-108"/>
     <use x="27.783203" xlink:href="#DejaVuSans-101"/>
     <use x="89.306641" xlink:href="#DejaVuSans-117"/>
     <use x="152.685547" xlink:href="#DejaVuSans-118"/>
     <use x="211.865234" xlink:href="#DejaVuSans-101"/>
     <use x="273.388672" xlink:href="#DejaVuSans-110"/>
     <use x="336.767578" xlink:href="#DejaVuSans-58"/>
     <use x="370.458984" xlink:href="#DejaVuSans-32"/>
     <use x="402.246094" xlink:href="#DejaVuSans-105"/>
     <use x="430.029297" xlink:href="#DejaVuSans-109"/>
     <use x="527.441406" xlink:href="#DejaVuSans-103"/>
     <use x="590.917969" xlink:href="#DejaVuSans-49"/>
     <use x="654.541016" xlink:href="#DejaVuSans-45"/>
     <use x="690.625" xlink:href="#DejaVuSans-105"/>
     <use x="718.408203" xlink:href="#DejaVuSans-109"/>
     <use x="815.820312" xlink:href="#DejaVuSans-103"/>
     <use x="879.296875" xlink:href="#DejaVuSans-53"/>
    </g>
    <!-- NearestNeighbours -->
    <defs>
     <path d="M 9.8125 72.90625 
L 23.09375 72.90625 
L 55.421875 11.921875 
L 55.421875 72.90625 
L 64.984375 72.90625 
L 64.984375 0 
L 51.703125 0 
L 19.390625 60.984375 
L 19.390625 0 
L 9.8125 0 
z
" id="DejaVuSans-78"/>
     <path d="M 34.28125 27.484375 
Q 23.390625 27.484375 19.1875 25 
Q 14.984375 22.515625 14.984375 16.5 
Q 14.984375 11.71875 18.140625 8.90625 
Q 21.296875 6.109375 26.703125 6.109375 
Q 34.1875 6.109375 38.703125 11.40625 
Q 43.21875 16.703125 43.21875 25.484375 
L 43.21875 27.484375 
z
M 52.203125 31.203125 
L 52.203125 0 
L 43.21875 0 
L 43.21875 8.296875 
Q 40.140625 3.328125 35.546875 0.953125 
Q 30.953125 -1.421875 24.3125 -1.421875 
Q 15.921875 -1.421875 10.953125 3.296875 
Q 6 8.015625 6 15.921875 
Q 6 25.140625 12.171875 29.828125 
Q 18.359375 34.515625 30.609375 34.515625 
L 43.21875 34.515625 
L 43.21875 35.40625 
Q 43.21875 41.609375 39.140625 45 
Q 35.0625 48.390625 27.6875 48.390625 
Q 23 48.390625 18.546875 47.265625 
Q 14.109375 46.140625 10.015625 43.890625 
L 10.015625 52.203125 
Q 14.9375 54.109375 19.578125 55.046875 
Q 24.21875 56 28.609375 56 
Q 40.484375 56 46.34375 49.84375 
Q 52.203125 43.703125 52.203125 31.203125 
z
" id="DejaVuSans-97"/>
     <path d="M 54.890625 33.015625 
L 54.890625 0 
L 45.90625 0 
L 45.90625 32.71875 
Q 45.90625 40.484375 42.875 44.328125 
Q 39.84375 48.1875 33.796875 48.1875 
Q 26.515625 48.1875 22.3125 43.546875 
Q 18.109375 38.921875 18.109375 30.90625 
L 18.109375 0 
L 9.078125 0 
L 9.078125 75.984375 
L 18.109375 75.984375 
L 18.109375 46.1875 
Q 21.34375 51.125 25.703125 53.5625 
Q 30.078125 56 35.796875 56 
Q 45.21875 56 50.046875 50.171875 
Q 54.890625 44.34375 54.890625 33.015625 
z
" id="DejaVuSans-104"/>
     <path d="M 48.6875 27.296875 
Q 48.6875 37.203125 44.609375 42.84375 
Q 40.53125 48.484375 33.40625 48.484375 
Q 26.265625 48.484375 22.1875 42.84375 
Q 18.109375 37.203125 18.109375 27.296875 
Q 18.109375 17.390625 22.1875 11.75 
Q 26.265625 6.109375 33.40625 6.109375 
Q 40.53125 6.109375 44.609375 11.75 
Q 48.6875 17.390625 48.6875 27.296875 
z
M 18.109375 46.390625 
Q 20.953125 51.265625 25.265625 53.625 
Q 29.59375 56 35.59375 56 
Q 45.5625 56 51.78125 48.09375 
Q 58.015625 40.1875 58.015625 27.296875 
Q 58.015625 14.40625 51.78125 6.484375 
Q 45.5625 -1.421875 35.59375 -1.421875 
Q 29.59375 -1.421875 25.265625 0.953125 
Q 20.953125 3.328125 18.109375 8.203125 
L 18.109375 0 
L 9.078125 0 
L 9.078125 75.984375 
L 18.109375 75.984375 
z
" id="DejaVuSans-98"/>
    </defs>
    <g transform="translate(255.824063 54.48)scale(0.12 -0.12)">
     <use xlink:href="#DejaVuSans-78"/>
     <use x="74.804688" xlink:href="#DejaVuSans-101"/>
     <use x="136.328125" xlink:href="#DejaVuSans-97"/>
     <use x="197.607422" xlink:href="#DejaVuSans-114"/>
     <use x="238.689453" xlink:href="#DejaVuSans-101"/>
     <use x="300.212891" xlink:href="#DejaVuSans-115"/>
     <use x="352.3125" xlink:href="#DejaVuSans-116"/>
     <use x="391.521484" xlink:href="#DejaVuSans-78"/>
     <use x="466.326172" xlink:href="#DejaVuSans-101"/>
     <use x="527.849609" xlink:href="#DejaVuSans-105"/>
     <use x="555.632812" xlink:href="#DejaVuSans-103"/>
     <use x="619.109375" xlink:href="#DejaVuSans-104"/>
     <use x="682.488281" xlink:href="#DejaVuSans-98"/>
     <use x="745.964844" xlink:href="#DejaVuSans-111"/>
     <use x="807.146484" xlink:href="#DejaVuSans-117"/>
     <use x="870.525391" xlink:href="#DejaVuSans-114"/>
     <use x="911.638672" xlink:href="#DejaVuSans-115"/>
    </g>
   </g>
   <g id="legend_1">
    <g id="patch_7">
     <path d="M 362.264063 112.514375 
L 543.8 112.514375 
Q 545.8 112.514375 545.8 110.514375 
L 545.8 67.48 
Q 545.8 65.48 543.8 65.48 
L 362.264063 65.48 
Q 360.264063 65.48 360.264063 67.48 
L 360.264063 110.514375 
Q 360.264063 112.514375 362.264063 112.514375 
z
" style="fill:#ffffff;opacity:0.8;stroke:#cccccc;stroke-linejoin:miter;"/>
    </g>
    <g id="line2d_48">
     <path d="M 364.264063 73.578438 
L 384.264063 73.578438 
" style="fill:none;stroke:#1f77b4;stroke-linecap:square;stroke-width:2;"/>
    </g>
    <g id="line2d_49"/>
    <g id="text_26">
     <!-- root-cvsift AP: 85.9, %In: 47.7 -->
     <defs>
      <path d="M 37.109375 75.984375 
L 37.109375 68.5 
L 28.515625 68.5 
Q 23.6875 68.5 21.796875 66.546875 
Q 19.921875 64.59375 19.921875 59.515625 
L 19.921875 54.6875 
L 34.71875 54.6875 
L 34.71875 47.703125 
L 19.921875 47.703125 
L 19.921875 0 
L 10.890625 0 
L 10.890625 47.703125 
L 2.296875 47.703125 
L 2.296875 54.6875 
L 10.890625 54.6875 
L 10.890625 58.5 
Q 10.890625 67.625 15.140625 71.796875 
Q 19.390625 75.984375 28.609375 75.984375 
z
" id="DejaVuSans-102"/>
      <path d="M 34.1875 63.1875 
L 20.796875 26.90625 
L 47.609375 26.90625 
z
M 28.609375 72.90625 
L 39.796875 72.90625 
L 67.578125 0 
L 57.328125 0 
L 50.6875 18.703125 
L 17.828125 18.703125 
L 11.1875 0 
L 0.78125 0 
z
" id="DejaVuSans-65"/>
      <path d="M 19.671875 64.796875 
L 19.671875 37.40625 
L 32.078125 37.40625 
Q 38.96875 37.40625 42.71875 40.96875 
Q 46.484375 44.53125 46.484375 51.125 
Q 46.484375 57.671875 42.71875 61.234375 
Q 38.96875 64.796875 32.078125 64.796875 
z
M 9.8125 72.90625 
L 32.078125 72.90625 
Q 44.34375 72.90625 50.609375 67.359375 
Q 56.890625 61.8125 56.890625 51.125 
Q 56.890625 40.328125 50.609375 34.8125 
Q 44.34375 29.296875 32.078125 29.296875 
L 19.671875 29.296875 
L 19.671875 0 
L 9.8125 0 
z
" id="DejaVuSans-80"/>
      <path d="M 11.71875 12.40625 
L 22.015625 12.40625 
L 22.015625 4 
L 14.015625 -11.625 
L 7.71875 -11.625 
L 11.71875 4 
z
" id="DejaVuSans-44"/>
      <path d="M 72.703125 32.078125 
Q 68.453125 32.078125 66.03125 28.46875 
Q 63.625 24.859375 63.625 18.40625 
Q 63.625 12.0625 66.03125 8.421875 
Q 68.453125 4.78125 72.703125 4.78125 
Q 76.859375 4.78125 79.265625 8.421875 
Q 81.6875 12.0625 81.6875 18.40625 
Q 81.6875 24.8125 79.265625 28.4375 
Q 76.859375 32.078125 72.703125 32.078125 
z
M 72.703125 38.28125 
Q 80.421875 38.28125 84.953125 32.90625 
Q 89.5 27.546875 89.5 18.40625 
Q 89.5 9.28125 84.9375 3.921875 
Q 80.375 -1.421875 72.703125 -1.421875 
Q 64.890625 -1.421875 60.34375 3.921875 
Q 55.8125 9.28125 55.8125 18.40625 
Q 55.8125 27.59375 60.375 32.9375 
Q 64.9375 38.28125 72.703125 38.28125 
z
M 22.3125 68.015625 
Q 18.109375 68.015625 15.6875 64.375 
Q 13.28125 60.75 13.28125 54.390625 
Q 13.28125 47.953125 15.671875 44.328125 
Q 18.0625 40.71875 22.3125 40.71875 
Q 26.5625 40.71875 28.96875 44.328125 
Q 31.390625 47.953125 31.390625 54.390625 
Q 31.390625 60.6875 28.953125 64.34375 
Q 26.515625 68.015625 22.3125 68.015625 
z
M 66.40625 74.21875 
L 74.21875 74.21875 
L 28.609375 -1.421875 
L 20.796875 -1.421875 
z
M 22.3125 74.21875 
Q 30.03125 74.21875 34.609375 68.875 
Q 39.203125 63.53125 39.203125 54.390625 
Q 39.203125 45.171875 34.640625 39.84375 
Q 30.078125 34.515625 22.3125 34.515625 
Q 14.546875 34.515625 10.03125 39.859375 
Q 5.515625 45.21875 5.515625 54.390625 
Q 5.515625 63.484375 10.046875 68.84375 
Q 14.59375 74.21875 22.3125 74.21875 
z
" id="DejaVuSans-37"/>
      <path d="M 9.8125 72.90625 
L 19.671875 72.90625 
L 19.671875 0 
L 9.8125 0 
z
" id="DejaVuSans-73"/>
     </defs>
     <g transform="translate(392.264063 77.078438)scale(0.1 -0.1)">
      <use xlink:href="#DejaVuSans-114"/>
      <use x="41.082031" xlink:href="#DejaVuSans-111"/>
      <use x="102.263672" xlink:href="#DejaVuSans-111"/>
      <use x="163.445312" xlink:href="#DejaVuSans-116"/>
      <use x="202.654297" xlink:href="#DejaVuSans-45"/>
      <use x="238.738281" xlink:href="#DejaVuSans-99"/>
      <use x="293.71875" xlink:href="#DejaVuSans-118"/>
      <use x="352.898438" xlink:href="#DejaVuSans-115"/>
      <use x="404.998047" xlink:href="#DejaVuSans-105"/>
      <use x="432.78125" xlink:href="#DejaVuSans-102"/>
      <use x="467.970703" xlink:href="#DejaVuSans-116"/>
      <use x="507.179688" xlink:href="#DejaVuSans-32"/>
      <use x="538.966797" xlink:href="#DejaVuSans-65"/>
      <use x="607.375" xlink:href="#DejaVuSans-80"/>
      <use x="667.677734" xlink:href="#DejaVuSans-58"/>
      <use x="701.369141" xlink:href="#DejaVuSans-32"/>
      <use x="733.15625" xlink:href="#DejaVuSans-56"/>
      <use x="796.779297" xlink:href="#DejaVuSans-53"/>
      <use x="860.402344" xlink:href="#DejaVuSans-46"/>
      <use x="892.189453" xlink:href="#DejaVuSans-57"/>
      <use x="955.8125" xlink:href="#DejaVuSans-44"/>
      <use x="987.599609" xlink:href="#DejaVuSans-32"/>
      <use x="1019.386719" xlink:href="#DejaVuSans-37"/>
      <use x="1114.40625" xlink:href="#DejaVuSans-73"/>
      <use x="1143.898438" xlink:href="#DejaVuSans-110"/>
      <use x="1207.277344" xlink:href="#DejaVuSans-58"/>
      <use x="1240.96875" xlink:href="#DejaVuSans-32"/>
      <use x="1272.755859" xlink:href="#DejaVuSans-52"/>
      <use x="1336.378906" xlink:href="#DejaVuSans-55"/>
      <use x="1400.001953" xlink:href="#DejaVuSans-46"/>
      <use x="1431.789062" xlink:href="#DejaVuSans-55"/>
     </g>
    </g>
    <g id="line2d_50">
     <path d="M 364.264063 88.256563 
L 384.264063 88.256563 
" style="fill:none;stroke:#ff7f0e;stroke-linecap:square;stroke-width:2;"/>
    </g>
    <g id="line2d_51"/>
    <g id="text_27">
     <!-- tfeat AP: 78.8, %In: 46.8 -->
     <g transform="translate(392.264063 91.756563)scale(0.1 -0.1)">
      <use xlink:href="#DejaVuSans-116"/>
      <use x="39.208984" xlink:href="#DejaVuSans-102"/>
      <use x="74.414062" xlink:href="#DejaVuSans-101"/>
      <use x="135.9375" xlink:href="#DejaVuSans-97"/>
      <use x="197.216797" xlink:href="#DejaVuSans-116"/>
      <use x="236.425781" xlink:href="#DejaVuSans-32"/>
      <use x="268.212891" xlink:href="#DejaVuSans-65"/>
      <use x="336.621094" xlink:href="#DejaVuSans-80"/>
      <use x="396.923828" xlink:href="#DejaVuSans-58"/>
      <use x="430.615234" xlink:href="#DejaVuSans-32"/>
      <use x="462.402344" xlink:href="#DejaVuSans-55"/>
      <use x="526.025391" xlink:href="#DejaVuSans-56"/>
      <use x="589.648438" xlink:href="#DejaVuSans-46"/>
      <use x="621.435547" xlink:href="#DejaVuSans-56"/>
      <use x="685.058594" xlink:href="#DejaVuSans-44"/>
      <use x="716.845703" xlink:href="#DejaVuSans-32"/>
      <use x="748.632812" xlink:href="#DejaVuSans-37"/>
      <use x="843.652344" xlink:href="#DejaVuSans-73"/>
      <use x="873.144531" xlink:href="#DejaVuSans-110"/>
      <use x="936.523438" xlink:href="#DejaVuSans-58"/>
      <use x="970.214844" xlink:href="#DejaVuSans-32"/>
      <use x="1002.001953" xlink:href="#DejaVuSans-52"/>
      <use x="1065.625" xlink:href="#DejaVuSans-54"/>
      <use x="1129.248047" xlink:href="#DejaVuSans-46"/>
      <use x="1161.035156" xlink:href="#DejaVuSans-56"/>
     </g>
    </g>
    <g id="line2d_52">
     <path d="M 364.264063 102.934687 
L 384.264063 102.934687 
" style="fill:none;stroke:#2ca02c;stroke-linecap:square;stroke-width:2;"/>
    </g>
    <g id="line2d_53"/>
    <g id="text_28">
     <!-- hardnet AP: 92.5, %In: 50.1 -->
     <defs>
      <path d="M 45.40625 46.390625 
L 45.40625 75.984375 
L 54.390625 75.984375 
L 54.390625 0 
L 45.40625 0 
L 45.40625 8.203125 
Q 42.578125 3.328125 38.25 0.953125 
Q 33.9375 -1.421875 27.875 -1.421875 
Q 17.96875 -1.421875 11.734375 6.484375 
Q 5.515625 14.40625 5.515625 27.296875 
Q 5.515625 40.1875 11.734375 48.09375 
Q 17.96875 56 27.875 56 
Q 33.9375 56 38.25 53.625 
Q 42.578125 51.265625 45.40625 46.390625 
z
M 14.796875 27.296875 
Q 14.796875 17.390625 18.875 11.75 
Q 22.953125 6.109375 30.078125 6.109375 
Q 37.203125 6.109375 41.296875 11.75 
Q 45.40625 17.390625 45.40625 27.296875 
Q 45.40625 37.203125 41.296875 42.84375 
Q 37.203125 48.484375 30.078125 48.484375 
Q 22.953125 48.484375 18.875 42.84375 
Q 14.796875 37.203125 14.796875 27.296875 
z
" id="DejaVuSans-100"/>
     </defs>
     <g transform="translate(392.264063 106.434687)scale(0.1 -0.1)">
      <use xlink:href="#DejaVuSans-104"/>
      <use x="63.378906" xlink:href="#DejaVuSans-97"/>
      <use x="124.658203" xlink:href="#DejaVuSans-114"/>
      <use x="165.755859" xlink:href="#DejaVuSans-100"/>
      <use x="229.232422" xlink:href="#DejaVuSans-110"/>
      <use x="292.611328" xlink:href="#DejaVuSans-101"/>
      <use x="354.134766" xlink:href="#DejaVuSans-116"/>
      <use x="393.34375" xlink:href="#DejaVuSans-32"/>
      <use x="425.130859" xlink:href="#DejaVuSans-65"/>
      <use x="493.539062" xlink:href="#DejaVuSans-80"/>
      <use x="553.841797" xlink:href="#DejaVuSans-58"/>
      <use x="587.533203" xlink:href="#DejaVuSans-32"/>
      <use x="619.320312" xlink:href="#DejaVuSans-57"/>
      <use x="682.943359" xlink:href="#DejaVuSans-50"/>
      <use x="746.566406" xlink:href="#DejaVuSans-46"/>
      <use x="778.353516" xlink:href="#DejaVuSans-53"/>
      <use x="841.976562" xlink:href="#DejaVuSans-44"/>
      <use x="873.763672" xlink:href="#DejaVuSans-32"/>
      <use x="905.550781" xlink:href="#DejaVuSans-37"/>
      <use x="1000.570312" xlink:href="#DejaVuSans-73"/>
      <use x="1030.0625" xlink:href="#DejaVuSans-110"/>
      <use x="1093.441406" xlink:href="#DejaVuSans-58"/>
      <use x="1127.132812" xlink:href="#DejaVuSans-32"/>
      <use x="1158.919922" xlink:href="#DejaVuSans-53"/>
      <use x="1222.542969" xlink:href="#DejaVuSans-48"/>
      <use x="1286.166016" xlink:href="#DejaVuSans-46"/>
      <use x="1317.953125" xlink:href="#DejaVuSans-49"/>
     </g>
    </g>
   </g>
  </g>
 </g>
 <defs>
  <clipPath id="p8e56efa2cb">
   <rect height="388.08" width="474.3" x="76.5" y="60.48"/>
  </clipPath>
 </defs>
</svg>
