<?xml version="1.0" encoding="utf-8" standalone="no"?>
<!DOCTYPE svg PUBLIC "-//W3C//DTD SVG 1.1//EN"
  "http://www.w3.org/Graphics/SVG/1.1/DTD/svg11.dtd">
<!-- Created with matplotlib (https://matplotlib.org/) -->
<svg height="504pt" version="1.1" viewBox="0 0 612 504" width="612pt" xmlns="http://www.w3.org/2000/svg" xmlns:xlink="http://www.w3.org/1999/xlink">
 <defs>
  <style type="text/css">
*{stroke-linecap:butt;stroke-linejoin:round;}
  </style>
 </defs>
 <g id="figure_1">
  <g id="patch_1">
   <path d="M 0 504 
L 612 504 
L 612 0 
L 0 0 
z
" style="fill:#ffffff;"/>
  </g>
  <g id="axes_1">
   <g id="patch_2">
    <path d="M 76.5 448.56 
L 550.8 448.56 
L 550.8 60.48 
L 76.5 60.48 
z
" style="fill:#ffffff;"/>
   </g>
   <g id="matplotlib.axis_1">
    <g id="xtick_1">
     <g id="line2d_1">
      <path clip-path="url(#p0579fc1add)" d="M 76.5 448.56 
L 76.5 60.48 
" style="fill:none;stroke:#b0b0b0;stroke-linecap:square;stroke-width:0.8;"/>
     </g>
     <g id="line2d_2">
      <defs>
       <path d="M 0 0 
L 0 3.5 
" id="m084fc2c114" style="stroke:#000000;stroke-width:0.8;"/>
      </defs>
      <g>
       <use style="stroke:#000000;stroke-width:0.8;" x="76.5" xlink:href="#m084fc2c114" y="448.56"/>
      </g>
     </g>
     <g id="text_1">
      <!-- 0.0 -->
      <defs>
       <path d="M 31.78125 66.40625 
Q 24.171875 66.40625 20.328125 58.90625 
Q 16.5 51.421875 16.5 36.375 
Q 16.5 21.390625 20.328125 13.890625 
Q 24.171875 6.390625 31.78125 6.390625 
Q 39.453125 6.390625 43.28125 13.890625 
Q 47.125 21.390625 47.125 36.375 
Q 47.125 51.421875 43.28125 58.90625 
Q 39.453125 66.40625 31.78125 66.40625 
z
M 31.78125 74.21875 
Q 44.046875 74.21875 50.515625 64.515625 
Q 56.984375 54.828125 56.984375 36.375 
Q 56.984375 17.96875 50.515625 8.265625 
Q 44.046875 -1.421875 31.78125 -1.421875 
Q 19.53125 -1.421875 13.0625 8.265625 
Q 6.59375 17.96875 6.59375 36.375 
Q 6.59375 54.828125 13.0625 64.515625 
Q 19.53125 74.21875 31.78125 74.21875 
z
" id="DejaVuSans-48"/>
       <path d="M 10.6875 12.40625 
L 21 12.40625 
L 21 0 
L 10.6875 0 
z
" id="DejaVuSans-46"/>
      </defs>
      <g transform="translate(68.548438 463.158437)scale(0.1 -0.1)">
       <use xlink:href="#DejaVuSans-48"/>
       <use x="63.623047" xlink:href="#DejaVuSans-46"/>
       <use x="95.410156" xlink:href="#DejaVuSans-48"/>
      </g>
     </g>
    </g>
    <g id="xtick_2">
     <g id="line2d_3">
      <path clip-path="url(#p0579fc1add)" d="M 123.93 448.56 
L 123.93 60.48 
" style="fill:none;stroke:#b0b0b0;stroke-linecap:square;stroke-width:0.8;"/>
     </g>
     <g id="line2d_4">
      <g>
       <use style="stroke:#000000;stroke-width:0.8;" x="123.93" xlink:href="#m084fc2c114" y="448.56"/>
      </g>
     </g>
     <g id="text_2">
      <!-- 0.1 -->
      <defs>
       <path d="M 12.40625 8.296875 
L 28.515625 8.296875 
L 28.515625 63.921875 
L 10.984375 60.40625 
L 10.984375 69.390625 
L 28.421875 72.90625 
L 38.28125 72.90625 
L 38.28125 8.296875 
L 54.390625 8.296875 
L 54.390625 0 
L 12.40625 0 
z
" id="DejaVuSans-49"/>
      </defs>
      <g transform="translate(115.978438 463.158437)scale(0.1 -0.1)">
       <use xlink:href="#DejaVuSans-48"/>
       <use x="63.623047" xlink:href="#DejaVuSans-46"/>
       <use x="95.410156" xlink:href="#DejaVuSans-49"/>
      </g>
     </g>
    </g>
    <g id="xtick_3">
     <g id="line2d_5">
      <path clip-path="url(#p0579fc1add)" d="M 171.36 448.56 
L 171.36 60.48 
" style="fill:none;stroke:#b0b0b0;stroke-linecap:square;stroke-width:0.8;"/>
     </g>
     <g id="line2d_6">
      <g>
       <use style="stroke:#000000;stroke-width:0.8;" x="171.36" xlink:href="#m084fc2c114" y="448.56"/>
      </g>
     </g>
     <g id="text_3">
      <!-- 0.2 -->
      <defs>
       <path d="M 19.1875 8.296875 
L 53.609375 8.296875 
L 53.609375 0 
L 7.328125 0 
L 7.328125 8.296875 
Q 12.9375 14.109375 22.625 23.890625 
Q 32.328125 33.6875 34.8125 36.53125 
Q 39.546875 41.84375 41.421875 45.53125 
Q 43.3125 49.21875 43.3125 52.78125 
Q 43.3125 58.59375 39.234375 62.25 
Q 35.15625 65.921875 28.609375 65.921875 
Q 23.96875 65.921875 18.8125 64.3125 
Q 13.671875 62.703125 7.8125 59.421875 
L 7.8125 69.390625 
Q 13.765625 71.78125 18.9375 73 
Q 24.125 74.21875 28.421875 74.21875 
Q 39.75 74.21875 46.484375 68.546875 
Q 53.21875 62.890625 53.21875 53.421875 
Q 53.21875 48.921875 51.53125 44.890625 
Q 49.859375 40.875 45.40625 35.40625 
Q 44.1875 33.984375 37.640625 27.21875 
Q 31.109375 20.453125 19.1875 8.296875 
z
" id="DejaVuSans-50"/>
      </defs>
      <g transform="translate(163.408438 463.158437)scale(0.1 -0.1)">
       <use xlink:href="#DejaVuSans-48"/>
       <use x="63.623047" xlink:href="#DejaVuSans-46"/>
       <use x="95.410156" xlink:href="#DejaVuSans-50"/>
      </g>
     </g>
    </g>
    <g id="xtick_4">
     <g id="line2d_7">
      <path clip-path="url(#p0579fc1add)" d="M 218.79 448.56 
L 218.79 60.48 
" style="fill:none;stroke:#b0b0b0;stroke-linecap:square;stroke-width:0.8;"/>
     </g>
     <g id="line2d_8">
      <g>
       <use style="stroke:#000000;stroke-width:0.8;" x="218.79" xlink:href="#m084fc2c114" y="448.56"/>
      </g>
     </g>
     <g id="text_4">
      <!-- 0.3 -->
      <defs>
       <path d="M 40.578125 39.3125 
Q 47.65625 37.796875 51.625 33 
Q 55.609375 28.21875 55.609375 21.1875 
Q 55.609375 10.40625 48.1875 4.484375 
Q 40.765625 -1.421875 27.09375 -1.421875 
Q 22.515625 -1.421875 17.65625 -0.515625 
Q 12.796875 0.390625 7.625 2.203125 
L 7.625 11.71875 
Q 11.71875 9.328125 16.59375 8.109375 
Q 21.484375 6.890625 26.8125 6.890625 
Q 36.078125 6.890625 40.9375 10.546875 
Q 45.796875 14.203125 45.796875 21.1875 
Q 45.796875 27.640625 41.28125 31.265625 
Q 36.765625 34.90625 28.71875 34.90625 
L 20.21875 34.90625 
L 20.21875 43.015625 
L 29.109375 43.015625 
Q 36.375 43.015625 40.234375 45.921875 
Q 44.09375 48.828125 44.09375 54.296875 
Q 44.09375 59.90625 40.109375 62.90625 
Q 36.140625 65.921875 28.71875 65.921875 
Q 24.65625 65.921875 20.015625 65.03125 
Q 15.375 64.15625 9.8125 62.3125 
L 9.8125 71.09375 
Q 15.4375 72.65625 20.34375 73.4375 
Q 25.25 74.21875 29.59375 74.21875 
Q 40.828125 74.21875 47.359375 69.109375 
Q 53.90625 64.015625 53.90625 55.328125 
Q 53.90625 49.265625 50.4375 45.09375 
Q 46.96875 40.921875 40.578125 39.3125 
z
" id="DejaVuSans-51"/>
      </defs>
      <g transform="translate(210.838438 463.158437)scale(0.1 -0.1)">
       <use xlink:href="#DejaVuSans-48"/>
       <use x="63.623047" xlink:href="#DejaVuSans-46"/>
       <use x="95.410156" xlink:href="#DejaVuSans-51"/>
      </g>
     </g>
    </g>
    <g id="xtick_5">
     <g id="line2d_9">
      <path clip-path="url(#p0579fc1add)" d="M 266.22 448.56 
L 266.22 60.48 
" style="fill:none;stroke:#b0b0b0;stroke-linecap:square;stroke-width:0.8;"/>
     </g>
     <g id="line2d_10">
      <g>
       <use style="stroke:#000000;stroke-width:0.8;" x="266.22" xlink:href="#m084fc2c114" y="448.56"/>
      </g>
     </g>
     <g id="text_5">
      <!-- 0.4 -->
      <defs>
       <path d="M 37.796875 64.3125 
L 12.890625 25.390625 
L 37.796875 25.390625 
z
M 35.203125 72.90625 
L 47.609375 72.90625 
L 47.609375 25.390625 
L 58.015625 25.390625 
L 58.015625 17.1875 
L 47.609375 17.1875 
L 47.609375 0 
L 37.796875 0 
L 37.796875 17.1875 
L 4.890625 17.1875 
L 4.890625 26.703125 
z
" id="DejaVuSans-52"/>
      </defs>
      <g transform="translate(258.268438 463.158437)scale(0.1 -0.1)">
       <use xlink:href="#DejaVuSans-48"/>
       <use x="63.623047" xlink:href="#DejaVuSans-46"/>
       <use x="95.410156" xlink:href="#DejaVuSans-52"/>
      </g>
     </g>
    </g>
    <g id="xtick_6">
     <g id="line2d_11">
      <path clip-path="url(#p0579fc1add)" d="M 313.65 448.56 
L 313.65 60.48 
" style="fill:none;stroke:#b0b0b0;stroke-linecap:square;stroke-width:0.8;"/>
     </g>
     <g id="line2d_12">
      <g>
       <use style="stroke:#000000;stroke-width:0.8;" x="313.65" xlink:href="#m084fc2c114" y="448.56"/>
      </g>
     </g>
     <g id="text_6">
      <!-- 0.5 -->
      <defs>
       <path d="M 10.796875 72.90625 
L 49.515625 72.90625 
L 49.515625 64.59375 
L 19.828125 64.59375 
L 19.828125 46.734375 
Q 21.96875 47.46875 24.109375 47.828125 
Q 26.265625 48.1875 28.421875 48.1875 
Q 40.625 48.1875 47.75 41.5 
Q 54.890625 34.8125 54.890625 23.390625 
Q 54.890625 11.625 47.5625 5.09375 
Q 40.234375 -1.421875 26.90625 -1.421875 
Q 22.3125 -1.421875 17.546875 -0.640625 
Q 12.796875 0.140625 7.71875 1.703125 
L 7.71875 11.625 
Q 12.109375 9.234375 16.796875 8.0625 
Q 21.484375 6.890625 26.703125 6.890625 
Q 35.15625 6.890625 40.078125 11.328125 
Q 45.015625 15.765625 45.015625 23.390625 
Q 45.015625 31 40.078125 35.4375 
Q 35.15625 39.890625 26.703125 39.890625 
Q 22.75 39.890625 18.8125 39.015625 
Q 14.890625 38.140625 10.796875 36.28125 
z
" id="DejaVuSans-53"/>
      </defs>
      <g transform="translate(305.698438 463.158437)scale(0.1 -0.1)">
       <use xlink:href="#DejaVuSans-48"/>
       <use x="63.623047" xlink:href="#DejaVuSans-46"/>
       <use x="95.410156" xlink:href="#DejaVuSans-53"/>
      </g>
     </g>
    </g>
    <g id="xtick_7">
     <g id="line2d_13">
      <path clip-path="url(#p0579fc1add)" d="M 361.08 448.56 
L 361.08 60.48 
" style="fill:none;stroke:#b0b0b0;stroke-linecap:square;stroke-width:0.8;"/>
     </g>
     <g id="line2d_14">
      <g>
       <use style="stroke:#000000;stroke-width:0.8;" x="361.08" xlink:href="#m084fc2c114" y="448.56"/>
      </g>
     </g>
     <g id="text_7">
      <!-- 0.6 -->
      <defs>
       <path d="M 33.015625 40.375 
Q 26.375 40.375 22.484375 35.828125 
Q 18.609375 31.296875 18.609375 23.390625 
Q 18.609375 15.53125 22.484375 10.953125 
Q 26.375 6.390625 33.015625 6.390625 
Q 39.65625 6.390625 43.53125 10.953125 
Q 47.40625 15.53125 47.40625 23.390625 
Q 47.40625 31.296875 43.53125 35.828125 
Q 39.65625 40.375 33.015625 40.375 
z
M 52.59375 71.296875 
L 52.59375 62.3125 
Q 48.875 64.0625 45.09375 64.984375 
Q 41.3125 65.921875 37.59375 65.921875 
Q 27.828125 65.921875 22.671875 59.328125 
Q 17.53125 52.734375 16.796875 39.40625 
Q 19.671875 43.65625 24.015625 45.921875 
Q 28.375 48.1875 33.59375 48.1875 
Q 44.578125 48.1875 50.953125 41.515625 
Q 57.328125 34.859375 57.328125 23.390625 
Q 57.328125 12.15625 50.6875 5.359375 
Q 44.046875 -1.421875 33.015625 -1.421875 
Q 20.359375 -1.421875 13.671875 8.265625 
Q 6.984375 17.96875 6.984375 36.375 
Q 6.984375 53.65625 15.1875 63.9375 
Q 23.390625 74.21875 37.203125 74.21875 
Q 40.921875 74.21875 44.703125 73.484375 
Q 48.484375 72.75 52.59375 71.296875 
z
" id="DejaVuSans-54"/>
      </defs>
      <g transform="translate(353.128438 463.158437)scale(0.1 -0.1)">
       <use xlink:href="#DejaVuSans-48"/>
       <use x="63.623047" xlink:href="#DejaVuSans-46"/>
       <use x="95.410156" xlink:href="#DejaVuSans-54"/>
      </g>
     </g>
    </g>
    <g id="xtick_8">
     <g id="line2d_15">
      <path clip-path="url(#p0579fc1add)" d="M 408.51 448.56 
L 408.51 60.48 
" style="fill:none;stroke:#b0b0b0;stroke-linecap:square;stroke-width:0.8;"/>
     </g>
     <g id="line2d_16">
      <g>
       <use style="stroke:#000000;stroke-width:0.8;" x="408.51" xlink:href="#m084fc2c114" y="448.56"/>
      </g>
     </g>
     <g id="text_8">
      <!-- 0.7 -->
      <defs>
       <path d="M 8.203125 72.90625 
L 55.078125 72.90625 
L 55.078125 68.703125 
L 28.609375 0 
L 18.3125 0 
L 43.21875 64.59375 
L 8.203125 64.59375 
z
" id="DejaVuSans-55"/>
      </defs>
      <g transform="translate(400.558438 463.158437)scale(0.1 -0.1)">
       <use xlink:href="#DejaVuSans-48"/>
       <use x="63.623047" xlink:href="#DejaVuSans-46"/>
       <use x="95.410156" xlink:href="#DejaVuSans-55"/>
      </g>
     </g>
    </g>
    <g id="xtick_9">
     <g id="line2d_17">
      <path clip-path="url(#p0579fc1add)" d="M 455.94 448.56 
L 455.94 60.48 
" style="fill:none;stroke:#b0b0b0;stroke-linecap:square;stroke-width:0.8;"/>
     </g>
     <g id="line2d_18">
      <g>
       <use style="stroke:#000000;stroke-width:0.8;" x="455.94" xlink:href="#m084fc2c114" y="448.56"/>
      </g>
     </g>
     <g id="text_9">
      <!-- 0.8 -->
      <defs>
       <path d="M 31.78125 34.625 
Q 24.75 34.625 20.71875 30.859375 
Q 16.703125 27.09375 16.703125 20.515625 
Q 16.703125 13.921875 20.71875 10.15625 
Q 24.75 6.390625 31.78125 6.390625 
Q 38.8125 6.390625 42.859375 10.171875 
Q 46.921875 13.96875 46.921875 20.515625 
Q 46.921875 27.09375 42.890625 30.859375 
Q 38.875 34.625 31.78125 34.625 
z
M 21.921875 38.8125 
Q 15.578125 40.375 12.03125 44.71875 
Q 8.5 49.078125 8.5 55.328125 
Q 8.5 64.0625 14.71875 69.140625 
Q 20.953125 74.21875 31.78125 74.21875 
Q 42.671875 74.21875 48.875 69.140625 
Q 55.078125 64.0625 55.078125 55.328125 
Q 55.078125 49.078125 51.53125 44.71875 
Q 48 40.375 41.703125 38.8125 
Q 48.828125 37.15625 52.796875 32.3125 
Q 56.78125 27.484375 56.78125 20.515625 
Q 56.78125 9.90625 50.3125 4.234375 
Q 43.84375 -1.421875 31.78125 -1.421875 
Q 19.734375 -1.421875 13.25 4.234375 
Q 6.78125 9.90625 6.78125 20.515625 
Q 6.78125 27.484375 10.78125 32.3125 
Q 14.796875 37.15625 21.921875 38.8125 
z
M 18.3125 54.390625 
Q 18.3125 48.734375 21.84375 45.5625 
Q 25.390625 42.390625 31.78125 42.390625 
Q 38.140625 42.390625 41.71875 45.5625 
Q 45.3125 48.734375 45.3125 54.390625 
Q 45.3125 60.0625 41.71875 63.234375 
Q 38.140625 66.40625 31.78125 66.40625 
Q 25.390625 66.40625 21.84375 63.234375 
Q 18.3125 60.0625 18.3125 54.390625 
z
" id="DejaVuSans-56"/>
      </defs>
      <g transform="translate(447.988438 463.158437)scale(0.1 -0.1)">
       <use xlink:href="#DejaVuSans-48"/>
       <use x="63.623047" xlink:href="#DejaVuSans-46"/>
       <use x="95.410156" xlink:href="#DejaVuSans-56"/>
      </g>
     </g>
    </g>
    <g id="xtick_10">
     <g id="line2d_19">
      <path clip-path="url(#p0579fc1add)" d="M 503.37 448.56 
L 503.37 60.48 
" style="fill:none;stroke:#b0b0b0;stroke-linecap:square;stroke-width:0.8;"/>
     </g>
     <g id="line2d_20">
      <g>
       <use style="stroke:#000000;stroke-width:0.8;" x="503.37" xlink:href="#m084fc2c114" y="448.56"/>
      </g>
     </g>
     <g id="text_10">
      <!-- 0.9 -->
      <defs>
       <path d="M 10.984375 1.515625 
L 10.984375 10.5 
Q 14.703125 8.734375 18.5 7.8125 
Q 22.3125 6.890625 25.984375 6.890625 
Q 35.75 6.890625 40.890625 13.453125 
Q 46.046875 20.015625 46.78125 33.40625 
Q 43.953125 29.203125 39.59375 26.953125 
Q 35.25 24.703125 29.984375 24.703125 
Q 19.046875 24.703125 12.671875 31.3125 
Q 6.296875 37.9375 6.296875 49.421875 
Q 6.296875 60.640625 12.9375 67.421875 
Q 19.578125 74.21875 30.609375 74.21875 
Q 43.265625 74.21875 49.921875 64.515625 
Q 56.59375 54.828125 56.59375 36.375 
Q 56.59375 19.140625 48.40625 8.859375 
Q 40.234375 -1.421875 26.421875 -1.421875 
Q 22.703125 -1.421875 18.890625 -0.6875 
Q 15.09375 0.046875 10.984375 1.515625 
z
M 30.609375 32.421875 
Q 37.25 32.421875 41.125 36.953125 
Q 45.015625 41.5 45.015625 49.421875 
Q 45.015625 57.28125 41.125 61.84375 
Q 37.25 66.40625 30.609375 66.40625 
Q 23.96875 66.40625 20.09375 61.84375 
Q 16.21875 57.28125 16.21875 49.421875 
Q 16.21875 41.5 20.09375 36.953125 
Q 23.96875 32.421875 30.609375 32.421875 
z
" id="DejaVuSans-57"/>
      </defs>
      <g transform="translate(495.418438 463.158437)scale(0.1 -0.1)">
       <use xlink:href="#DejaVuSans-48"/>
       <use x="63.623047" xlink:href="#DejaVuSans-46"/>
       <use x="95.410156" xlink:href="#DejaVuSans-57"/>
      </g>
     </g>
    </g>
    <g id="xtick_11">
     <g id="line2d_21">
      <path clip-path="url(#p0579fc1add)" d="M 550.8 448.56 
L 550.8 60.48 
" style="fill:none;stroke:#b0b0b0;stroke-linecap:square;stroke-width:0.8;"/>
     </g>
     <g id="line2d_22">
      <g>
       <use style="stroke:#000000;stroke-width:0.8;" x="550.8" xlink:href="#m084fc2c114" y="448.56"/>
      </g>
     </g>
     <g id="text_11">
      <!-- 1.0 -->
      <g transform="translate(542.848438 463.158437)scale(0.1 -0.1)">
       <use xlink:href="#DejaVuSans-49"/>
       <use x="63.623047" xlink:href="#DejaVuSans-46"/>
       <use x="95.410156" xlink:href="#DejaVuSans-48"/>
      </g>
     </g>
    </g>
    <g id="text_12">
     <!-- 1-precision -->
     <defs>
      <path d="M 4.890625 31.390625 
L 31.203125 31.390625 
L 31.203125 23.390625 
L 4.890625 23.390625 
z
" id="DejaVuSans-45"/>
      <path d="M 18.109375 8.203125 
L 18.109375 -20.796875 
L 9.078125 -20.796875 
L 9.078125 54.6875 
L 18.109375 54.6875 
L 18.109375 46.390625 
Q 20.953125 51.265625 25.265625 53.625 
Q 29.59375 56 35.59375 56 
Q 45.5625 56 51.78125 48.09375 
Q 58.015625 40.1875 58.015625 27.296875 
Q 58.015625 14.40625 51.78125 6.484375 
Q 45.5625 -1.421875 35.59375 -1.421875 
Q 29.59375 -1.421875 25.265625 0.953125 
Q 20.953125 3.328125 18.109375 8.203125 
z
M 48.6875 27.296875 
Q 48.6875 37.203125 44.609375 42.84375 
Q 40.53125 48.484375 33.40625 48.484375 
Q 26.265625 48.484375 22.1875 42.84375 
Q 18.109375 37.203125 18.109375 27.296875 
Q 18.109375 17.390625 22.1875 11.75 
Q 26.265625 6.109375 33.40625 6.109375 
Q 40.53125 6.109375 44.609375 11.75 
Q 48.6875 17.390625 48.6875 27.296875 
z
" id="DejaVuSans-112"/>
      <path d="M 41.109375 46.296875 
Q 39.59375 47.171875 37.8125 47.578125 
Q 36.03125 48 33.890625 48 
Q 26.265625 48 22.1875 43.046875 
Q 18.109375 38.09375 18.109375 28.8125 
L 18.109375 0 
L 9.078125 0 
L 9.078125 54.6875 
L 18.109375 54.6875 
L 18.109375 46.1875 
Q 20.953125 51.171875 25.484375 53.578125 
Q 30.03125 56 36.53125 56 
Q 37.453125 56 38.578125 55.875 
Q 39.703125 55.765625 41.0625 55.515625 
z
" id="DejaVuSans-114"/>
      <path d="M 56.203125 29.59375 
L 56.203125 25.203125 
L 14.890625 25.203125 
Q 15.484375 15.921875 20.484375 11.0625 
Q 25.484375 6.203125 34.421875 6.203125 
Q 39.59375 6.203125 44.453125 7.46875 
Q 49.3125 8.734375 54.109375 11.28125 
L 54.109375 2.78125 
Q 49.265625 0.734375 44.1875 -0.34375 
Q 39.109375 -1.421875 33.890625 -1.421875 
Q 20.796875 -1.421875 13.15625 6.1875 
Q 5.515625 13.8125 5.515625 26.8125 
Q 5.515625 40.234375 12.765625 48.109375 
Q 20.015625 56 32.328125 56 
Q 43.359375 56 49.78125 48.890625 
Q 56.203125 41.796875 56.203125 29.59375 
z
M 47.21875 32.234375 
Q 47.125 39.59375 43.09375 43.984375 
Q 39.0625 48.390625 32.421875 48.390625 
Q 24.90625 48.390625 20.390625 44.140625 
Q 15.875 39.890625 15.1875 32.171875 
z
" id="DejaVuSans-101"/>
      <path d="M 48.78125 52.59375 
L 48.78125 44.1875 
Q 44.96875 46.296875 41.140625 47.34375 
Q 37.3125 48.390625 33.40625 48.390625 
Q 24.65625 48.390625 19.8125 42.84375 
Q 14.984375 37.3125 14.984375 27.296875 
Q 14.984375 17.28125 19.8125 11.734375 
Q 24.65625 6.203125 33.40625 6.203125 
Q 37.3125 6.203125 41.140625 7.25 
Q 44.96875 8.296875 48.78125 10.40625 
L 48.78125 2.09375 
Q 45.015625 0.34375 40.984375 -0.53125 
Q 36.96875 -1.421875 32.421875 -1.421875 
Q 20.0625 -1.421875 12.78125 6.34375 
Q 5.515625 14.109375 5.515625 27.296875 
Q 5.515625 40.671875 12.859375 48.328125 
Q 20.21875 56 33.015625 56 
Q 37.15625 56 41.109375 55.140625 
Q 45.0625 54.296875 48.78125 52.59375 
z
" id="DejaVuSans-99"/>
      <path d="M 9.421875 54.6875 
L 18.40625 54.6875 
L 18.40625 0 
L 9.421875 0 
z
M 9.421875 75.984375 
L 18.40625 75.984375 
L 18.40625 64.59375 
L 9.421875 64.59375 
z
" id="DejaVuSans-105"/>
      <path d="M 44.28125 53.078125 
L 44.28125 44.578125 
Q 40.484375 46.53125 36.375 47.5 
Q 32.28125 48.484375 27.875 48.484375 
Q 21.1875 48.484375 17.84375 46.4375 
Q 14.5 44.390625 14.5 40.28125 
Q 14.5 37.15625 16.890625 35.375 
Q 19.28125 33.59375 26.515625 31.984375 
L 29.59375 31.296875 
Q 39.15625 29.25 43.1875 25.515625 
Q 47.21875 21.78125 47.21875 15.09375 
Q 47.21875 7.46875 41.1875 3.015625 
Q 35.15625 -1.421875 24.609375 -1.421875 
Q 20.21875 -1.421875 15.453125 -0.5625 
Q 10.6875 0.296875 5.421875 2 
L 5.421875 11.28125 
Q 10.40625 8.6875 15.234375 7.390625 
Q 20.0625 6.109375 24.8125 6.109375 
Q 31.15625 6.109375 34.5625 8.28125 
Q 37.984375 10.453125 37.984375 14.40625 
Q 37.984375 18.0625 35.515625 20.015625 
Q 33.0625 21.96875 24.703125 23.78125 
L 21.578125 24.515625 
Q 13.234375 26.265625 9.515625 29.90625 
Q 5.8125 33.546875 5.8125 39.890625 
Q 5.8125 47.609375 11.28125 51.796875 
Q 16.75 56 26.8125 56 
Q 31.78125 56 36.171875 55.265625 
Q 40.578125 54.546875 44.28125 53.078125 
z
" id="DejaVuSans-115"/>
      <path d="M 30.609375 48.390625 
Q 23.390625 48.390625 19.1875 42.75 
Q 14.984375 37.109375 14.984375 27.296875 
Q 14.984375 17.484375 19.15625 11.84375 
Q 23.34375 6.203125 30.609375 6.203125 
Q 37.796875 6.203125 41.984375 11.859375 
Q 46.1875 17.53125 46.1875 27.296875 
Q 46.1875 37.015625 41.984375 42.703125 
Q 37.796875 48.390625 30.609375 48.390625 
z
M 30.609375 56 
Q 42.328125 56 49.015625 48.375 
Q 55.71875 40.765625 55.71875 27.296875 
Q 55.71875 13.875 49.015625 6.21875 
Q 42.328125 -1.421875 30.609375 -1.421875 
Q 18.84375 -1.421875 12.171875 6.21875 
Q 5.515625 13.875 5.515625 27.296875 
Q 5.515625 40.765625 12.171875 48.375 
Q 18.84375 56 30.609375 56 
z
" id="DejaVuSans-111"/>
      <path d="M 54.890625 33.015625 
L 54.890625 0 
L 45.90625 0 
L 45.90625 32.71875 
Q 45.90625 40.484375 42.875 44.328125 
Q 39.84375 48.1875 33.796875 48.1875 
Q 26.515625 48.1875 22.3125 43.546875 
Q 18.109375 38.921875 18.109375 30.90625 
L 18.109375 0 
L 9.078125 0 
L 9.078125 54.6875 
L 18.109375 54.6875 
L 18.109375 46.1875 
Q 21.34375 51.125 25.703125 53.5625 
Q 30.078125 56 35.796875 56 
Q 45.21875 56 50.046875 50.171875 
Q 54.890625 44.34375 54.890625 33.015625 
z
" id="DejaVuSans-110"/>
     </defs>
     <g transform="translate(286 476.836563)scale(0.1 -0.1)">
      <use xlink:href="#DejaVuSans-49"/>
      <use x="63.623047" xlink:href="#DejaVuSans-45"/>
      <use x="99.707031" xlink:href="#DejaVuSans-112"/>
      <use x="163.183594" xlink:href="#DejaVuSans-114"/>
      <use x="204.265625" xlink:href="#DejaVuSans-101"/>
      <use x="265.789062" xlink:href="#DejaVuSans-99"/>
      <use x="320.769531" xlink:href="#DejaVuSans-105"/>
      <use x="348.552734" xlink:href="#DejaVuSans-115"/>
      <use x="400.652344" xlink:href="#DejaVuSans-105"/>
      <use x="428.435547" xlink:href="#DejaVuSans-111"/>
      <use x="489.617188" xlink:href="#DejaVuSans-110"/>
     </g>
    </g>
   </g>
   <g id="matplotlib.axis_2">
    <g id="ytick_1">
     <g id="line2d_23">
      <path clip-path="url(#p0579fc1add)" d="M 76.5 448.56 
L 550.8 448.56 
" style="fill:none;stroke:#b0b0b0;stroke-linecap:square;stroke-width:0.8;"/>
     </g>
     <g id="line2d_24">
      <defs>
       <path d="M 0 0 
L -3.5 0 
" id="mbcf2c1f272" style="stroke:#000000;stroke-width:0.8;"/>
      </defs>
      <g>
       <use style="stroke:#000000;stroke-width:0.8;" x="76.5" xlink:href="#mbcf2c1f272" y="448.56"/>
      </g>
     </g>
     <g id="text_13">
      <!-- 0.0 -->
      <g transform="translate(53.596875 452.359219)scale(0.1 -0.1)">
       <use xlink:href="#DejaVuSans-48"/>
       <use x="63.623047" xlink:href="#DejaVuSans-46"/>
       <use x="95.410156" xlink:href="#DejaVuSans-48"/>
      </g>
     </g>
    </g>
    <g id="ytick_2">
     <g id="line2d_25">
      <path clip-path="url(#p0579fc1add)" d="M 76.5 409.752 
L 550.8 409.752 
" style="fill:none;stroke:#b0b0b0;stroke-linecap:square;stroke-width:0.8;"/>
     </g>
     <g id="line2d_26">
      <g>
       <use style="stroke:#000000;stroke-width:0.8;" x="76.5" xlink:href="#mbcf2c1f272" y="409.752"/>
      </g>
     </g>
     <g id="text_14">
      <!-- 0.1 -->
      <g transform="translate(53.596875 413.551219)scale(0.1 -0.1)">
       <use xlink:href="#DejaVuSans-48"/>
       <use x="63.623047" xlink:href="#DejaVuSans-46"/>
       <use x="95.410156" xlink:href="#DejaVuSans-49"/>
      </g>
     </g>
    </g>
    <g id="ytick_3">
     <g id="line2d_27">
      <path clip-path="url(#p0579fc1add)" d="M 76.5 370.944 
L 550.8 370.944 
" style="fill:none;stroke:#b0b0b0;stroke-linecap:square;stroke-width:0.8;"/>
     </g>
     <g id="line2d_28">
      <g>
       <use style="stroke:#000000;stroke-width:0.8;" x="76.5" xlink:href="#mbcf2c1f272" y="370.944"/>
      </g>
     </g>
     <g id="text_15">
      <!-- 0.2 -->
      <g transform="translate(53.596875 374.743219)scale(0.1 -0.1)">
       <use xlink:href="#DejaVuSans-48"/>
       <use x="63.623047" xlink:href="#DejaVuSans-46"/>
       <use x="95.410156" xlink:href="#DejaVuSans-50"/>
      </g>
     </g>
    </g>
    <g id="ytick_4">
     <g id="line2d_29">
      <path clip-path="url(#p0579fc1add)" d="M 76.5 332.136 
L 550.8 332.136 
" style="fill:none;stroke:#b0b0b0;stroke-linecap:square;stroke-width:0.8;"/>
     </g>
     <g id="line2d_30">
      <g>
       <use style="stroke:#000000;stroke-width:0.8;" x="76.5" xlink:href="#mbcf2c1f272" y="332.136"/>
      </g>
     </g>
     <g id="text_16">
      <!-- 0.3 -->
      <g transform="translate(53.596875 335.935219)scale(0.1 -0.1)">
       <use xlink:href="#DejaVuSans-48"/>
       <use x="63.623047" xlink:href="#DejaVuSans-46"/>
       <use x="95.410156" xlink:href="#DejaVuSans-51"/>
      </g>
     </g>
    </g>
    <g id="ytick_5">
     <g id="line2d_31">
      <path clip-path="url(#p0579fc1add)" d="M 76.5 293.328 
L 550.8 293.328 
" style="fill:none;stroke:#b0b0b0;stroke-linecap:square;stroke-width:0.8;"/>
     </g>
     <g id="line2d_32">
      <g>
       <use style="stroke:#000000;stroke-width:0.8;" x="76.5" xlink:href="#mbcf2c1f272" y="293.328"/>
      </g>
     </g>
     <g id="text_17">
      <!-- 0.4 -->
      <g transform="translate(53.596875 297.127219)scale(0.1 -0.1)">
       <use xlink:href="#DejaVuSans-48"/>
       <use x="63.623047" xlink:href="#DejaVuSans-46"/>
       <use x="95.410156" xlink:href="#DejaVuSans-52"/>
      </g>
     </g>
    </g>
    <g id="ytick_6">
     <g id="line2d_33">
      <path clip-path="url(#p0579fc1add)" d="M 76.5 254.52 
L 550.8 254.52 
" style="fill:none;stroke:#b0b0b0;stroke-linecap:square;stroke-width:0.8;"/>
     </g>
     <g id="line2d_34">
      <g>
       <use style="stroke:#000000;stroke-width:0.8;" x="76.5" xlink:href="#mbcf2c1f272" y="254.52"/>
      </g>
     </g>
     <g id="text_18">
      <!-- 0.5 -->
      <g transform="translate(53.596875 258.319219)scale(0.1 -0.1)">
       <use xlink:href="#DejaVuSans-48"/>
       <use x="63.623047" xlink:href="#DejaVuSans-46"/>
       <use x="95.410156" xlink:href="#DejaVuSans-53"/>
      </g>
     </g>
    </g>
    <g id="ytick_7">
     <g id="line2d_35">
      <path clip-path="url(#p0579fc1add)" d="M 76.5 215.712 
L 550.8 215.712 
" style="fill:none;stroke:#b0b0b0;stroke-linecap:square;stroke-width:0.8;"/>
     </g>
     <g id="line2d_36">
      <g>
       <use style="stroke:#000000;stroke-width:0.8;" x="76.5" xlink:href="#mbcf2c1f272" y="215.712"/>
      </g>
     </g>
     <g id="text_19">
      <!-- 0.6 -->
      <g transform="translate(53.596875 219.511219)scale(0.1 -0.1)">
       <use xlink:href="#DejaVuSans-48"/>
       <use x="63.623047" xlink:href="#DejaVuSans-46"/>
       <use x="95.410156" xlink:href="#DejaVuSans-54"/>
      </g>
     </g>
    </g>
    <g id="ytick_8">
     <g id="line2d_37">
      <path clip-path="url(#p0579fc1add)" d="M 76.5 176.904 
L 550.8 176.904 
" style="fill:none;stroke:#b0b0b0;stroke-linecap:square;stroke-width:0.8;"/>
     </g>
     <g id="line2d_38">
      <g>
       <use style="stroke:#000000;stroke-width:0.8;" x="76.5" xlink:href="#mbcf2c1f272" y="176.904"/>
      </g>
     </g>
     <g id="text_20">
      <!-- 0.7 -->
      <g transform="translate(53.596875 180.703219)scale(0.1 -0.1)">
       <use xlink:href="#DejaVuSans-48"/>
       <use x="63.623047" xlink:href="#DejaVuSans-46"/>
       <use x="95.410156" xlink:href="#DejaVuSans-55"/>
      </g>
     </g>
    </g>
    <g id="ytick_9">
     <g id="line2d_39">
      <path clip-path="url(#p0579fc1add)" d="M 76.5 138.096 
L 550.8 138.096 
" style="fill:none;stroke:#b0b0b0;stroke-linecap:square;stroke-width:0.8;"/>
     </g>
     <g id="line2d_40">
      <g>
       <use style="stroke:#000000;stroke-width:0.8;" x="76.5" xlink:href="#mbcf2c1f272" y="138.096"/>
      </g>
     </g>
     <g id="text_21">
      <!-- 0.8 -->
      <g transform="translate(53.596875 141.895219)scale(0.1 -0.1)">
       <use xlink:href="#DejaVuSans-48"/>
       <use x="63.623047" xlink:href="#DejaVuSans-46"/>
       <use x="95.410156" xlink:href="#DejaVuSans-56"/>
      </g>
     </g>
    </g>
    <g id="ytick_10">
     <g id="line2d_41">
      <path clip-path="url(#p0579fc1add)" d="M 76.5 99.288 
L 550.8 99.288 
" style="fill:none;stroke:#b0b0b0;stroke-linecap:square;stroke-width:0.8;"/>
     </g>
     <g id="line2d_42">
      <g>
       <use style="stroke:#000000;stroke-width:0.8;" x="76.5" xlink:href="#mbcf2c1f272" y="99.288"/>
      </g>
     </g>
     <g id="text_22">
      <!-- 0.9 -->
      <g transform="translate(53.596875 103.087219)scale(0.1 -0.1)">
       <use xlink:href="#DejaVuSans-48"/>
       <use x="63.623047" xlink:href="#DejaVuSans-46"/>
       <use x="95.410156" xlink:href="#DejaVuSans-57"/>
      </g>
     </g>
    </g>
    <g id="ytick_11">
     <g id="line2d_43">
      <path clip-path="url(#p0579fc1add)" d="M 76.5 60.48 
L 550.8 60.48 
" style="fill:none;stroke:#b0b0b0;stroke-linecap:square;stroke-width:0.8;"/>
     </g>
     <g id="line2d_44">
      <g>
       <use style="stroke:#000000;stroke-width:0.8;" x="76.5" xlink:href="#mbcf2c1f272" y="60.48"/>
      </g>
     </g>
     <g id="text_23">
      <!-- 1.0 -->
      <g transform="translate(53.596875 64.279219)scale(0.1 -0.1)">
       <use xlink:href="#DejaVuSans-49"/>
       <use x="63.623047" xlink:href="#DejaVuSans-46"/>
       <use x="95.410156" xlink:href="#DejaVuSans-48"/>
      </g>
     </g>
    </g>
    <g id="text_24">
     <!-- #correct/1666 -->
     <defs>
      <path d="M 51.125 44 
L 36.921875 44 
L 32.8125 27.6875 
L 47.125 27.6875 
z
M 43.796875 71.78125 
L 38.71875 51.515625 
L 52.984375 51.515625 
L 58.109375 71.78125 
L 65.921875 71.78125 
L 60.890625 51.515625 
L 76.125 51.515625 
L 76.125 44 
L 58.984375 44 
L 54.984375 27.6875 
L 70.515625 27.6875 
L 70.515625 20.21875 
L 53.078125 20.21875 
L 48 0 
L 40.1875 0 
L 45.21875 20.21875 
L 30.90625 20.21875 
L 25.875 0 
L 18.015625 0 
L 23.09375 20.21875 
L 7.71875 20.21875 
L 7.71875 27.6875 
L 24.90625 27.6875 
L 29 44 
L 13.28125 44 
L 13.28125 51.515625 
L 30.90625 51.515625 
L 35.890625 71.78125 
z
" id="DejaVuSans-35"/>
      <path d="M 18.3125 70.21875 
L 18.3125 54.6875 
L 36.8125 54.6875 
L 36.8125 47.703125 
L 18.3125 47.703125 
L 18.3125 18.015625 
Q 18.3125 11.328125 20.140625 9.421875 
Q 21.96875 7.515625 27.59375 7.515625 
L 36.8125 7.515625 
L 36.8125 0 
L 27.59375 0 
Q 17.1875 0 13.234375 3.875 
Q 9.28125 7.765625 9.28125 18.015625 
L 9.28125 47.703125 
L 2.6875 47.703125 
L 2.6875 54.6875 
L 9.28125 54.6875 
L 9.28125 70.21875 
z
" id="DejaVuSans-116"/>
      <path d="M 25.390625 72.90625 
L 33.6875 72.90625 
L 8.296875 -9.28125 
L 0 -9.28125 
z
" id="DejaVuSans-47"/>
     </defs>
     <g transform="translate(47.517187 290.822344)rotate(-90)scale(0.1 -0.1)">
      <use xlink:href="#DejaVuSans-35"/>
      <use x="83.789062" xlink:href="#DejaVuSans-99"/>
      <use x="138.769531" xlink:href="#DejaVuSans-111"/>
      <use x="199.951172" xlink:href="#DejaVuSans-114"/>
      <use x="241.048828" xlink:href="#DejaVuSans-114"/>
      <use x="282.130859" xlink:href="#DejaVuSans-101"/>
      <use x="343.654297" xlink:href="#DejaVuSans-99"/>
      <use x="398.634766" xlink:href="#DejaVuSans-116"/>
      <use x="437.84375" xlink:href="#DejaVuSans-47"/>
      <use x="471.535156" xlink:href="#DejaVuSans-49"/>
      <use x="535.158203" xlink:href="#DejaVuSans-54"/>
      <use x="598.78125" xlink:href="#DejaVuSans-54"/>
      <use x="662.404297" xlink:href="#DejaVuSans-54"/>
     </g>
    </g>
   </g>
   <g id="line2d_45">
    <path clip-path="url(#p0579fc1add)" d="M 550.8 448.56 
L 313.65 448.327059 
L 234.6 448.094118 
L 171.36 447.628235 
L 144.257143 447.162353 
L 129.2 446.696471 
L 123.93 446.463529 
L 162.736364 446.463529 
L 144.257143 445.764706 
L 132.3 445.065882 
L 123.93 444.367059 
L 117.743478 443.668235 
L 111.633333 442.736471 
L 107.1 441.804706 
L 103.602857 440.872941 
L 100.823077 439.941176 
L 98.059091 438.776471 
L 108.12 438.776471 
L 104.958 437.611765 
L 103.863462 437.145882 
L 128.241818 437.145882 
L 123.152459 435.748235 
L 119.618182 434.583529 
L 126.053731 434.583529 
L 121.980822 433.185882 
L 121.366216 432.952941 
L 127.092 432.952941 
L 124.53038 432.021176 
L 129.85875 432.021176 
L 127.93012 431.322353 
L 132.964286 431.322353 
L 128.620879 429.691765 
L 124.897959 428.061176 
L 121.245283 426.197647 
L 118.105263 424.334118 
L 116.025 422.936471 
L 119.618182 422.936471 
L 116.633077 420.84 
L 116.025 420.374118 
L 119.293985 420.374118 
L 118.044526 419.442353 
L 121.180435 419.442353 
L 119.023448 417.811765 
L 121.980822 417.811765 
L 120.474834 416.647059 
L 123.305921 416.647059 
L 122.698052 416.181176 
L 125.46 416.181176 
L 122.492727 413.851765 
L 122.215663 413.618824 
L 124.782036 413.618824 
L 122.054237 411.289412 
L 121.047514 410.357647 
L 123.408791 410.357647 
L 121.433684 408.494118 
L 123.681675 408.494118 
L 121.334328 406.164706 
L 123.460396 406.164706 
L 120.827103 403.369412 
L 122.826977 403.369412 
L 120.185526 400.341176 
L 119.432328 399.409412 
L 121.283691 399.409412 
L 119.797095 397.545882 
L 121.578099 397.545882 
L 121.208607 397.08 
L 122.962041 397.08 
L 122.215663 396.148235 
L 125.630677 396.148235 
L 125.242292 395.682353 
L 126.917717 395.682353 
L 125.754231 394.284706 
L 127.382759 394.284706 
L 126.239326 392.887059 
L 127.823507 392.887059 
L 126.155957 390.790588 
L 129.2 390.790588 
L 128.824911 390.324706 
L 130.321277 390.324706 
L 130.131095 390.091765 
L 131.612324 390.091765 
L 131.226923 389.625882 
L 134.140625 389.625882 
L 133.743103 389.16 
L 135.176289 389.16 
L 134.577551 388.461176 
L 135.988475 388.461176 
L 134.997 387.296471 
L 136.378405 387.296471 
L 135.4 386.131765 
L 136.753094 386.131765 
L 136.17 385.432941 
L 137.503215 385.432941 
L 137.307692 385.2 
L 138.628754 385.2 
L 137.460188 383.802353 
L 138.751875 383.802353 
L 138.365217 383.336471 
L 139.642105 383.336471 
L 139.253538 382.870588 
L 143.017683 382.870588 
L 142.815502 382.637647 
L 144.051818 382.637647 
L 143.847734 382.404706 
L 145.073494 382.404706 
L 144.662874 381.938824 
L 149.469231 381.938824 
L 148.827273 381.24 
L 154.636127 381.24 
L 154.410951 381.007059 
L 155.55 381.007059 
L 154.651705 380.075294 
L 163.455 380.075294 
L 162.974586 379.609412 
L 164.042975 379.609412 
L 163.088828 378.677647 
L 168.3 378.677647 
L 168.053887 378.444706 
L 169.077273 378.444706 
L 168.8304 378.211765 
L 171.861905 378.211765 
L 171.36 377.745882 
L 178.223256 377.745882 
L 177.961082 377.512941 
L 178.919537 377.512941 
L 178.656923 377.28 
L 180.555612 377.28 
L 179.765316 376.581176 
L 187.130769 376.581176 
L 186.856931 376.348235 
L 190.425 376.348235 
L 190.146455 376.115294 
L 191.90146 376.115294 
L 191.621359 375.882353 
L 192.491041 375.882353 
L 192.21087 375.649412 
L 193.07494 375.649412 
L 192.794712 375.416471 
L 193.653237 375.416471 
L 193.094033 374.950588 
L 196.476596 374.950588 
L 195.912 374.484706 
L 199.220979 374.484706 
L 198.651508 374.018824 
L 199.466667 374.018824 
L 199.182679 373.785882 
L 203.196575 373.785882 
L 202.907973 373.552941 
L 208.368161 373.552941 
L 206.906208 372.388235 
L 209.178634 372.388235 
L 208.887033 372.155294 
L 209.636842 372.155294 
L 209.345514 371.922353 
L 210.091048 371.922353 
L 209.8 371.689412 
L 212.014286 371.689412 
L 211.430172 371.223529 
L 215.762553 371.223529 
L 215.172458 370.757647 
L 216.588608 370.757647 
L 215.416318 369.825882 
L 216.116493 369.825882 
L 215.535967 369.36 
L 216.231535 369.36 
L 215.942236 369.127059 
L 226.028313 369.127059 
L 225.728657 368.894118 
L 227.671315 368.894118 
L 227.370775 368.661176 
L 231.81 368.661176 
L 231.506067 368.428235 
L 232.129688 368.428235 
L 231.826316 368.195294 
L 232.446887 368.195294 
L 232.144078 367.962353 
L 234.6 367.962353 
L 233.99309 367.496471 
L 234.6 367.496471 
L 234.297706 367.263529 
L 236.102852 367.263529 
L 235.197732 366.564706 
L 236.386441 366.564706 
L 235.786492 366.098824 
L 236.964112 366.098824 
L 236.664739 365.865882 
L 238.991667 365.865882 
L 238.691312 365.632941 
L 242.114808 365.632941 
L 241.812591 365.4 
L 243.494918 365.4 
L 242.890958 364.934118 
L 245.102154 364.934118 
L 244.498927 364.468235 
L 245.590909 364.468235 
L 245.290036 364.235294 
L 245.832682 364.235294 
L 245.532447 364.002353 
L 256.490769 364.002353 
L 255.877513 363.536471 
L 259.35303 363.536471 
L 259.045714 363.303529 
L 260.023116 363.303529 
L 259.716221 363.070588 
L 263.084132 363.070588 
L 262.776238 362.837647 
L 265.6 362.837647 
L 265.291517 362.604706 
L 267.142464 362.604706 
L 266.833981 362.371765 
L 267.29273 362.371765 
L 266.985 362.138824 
L 267.897588 362.138824 
L 267.590369 361.905882 
L 272.064455 361.905882 
L 271.755994 361.672941 
L 273.939437 361.672941 
L 273.630938 361.44 
L 275.352484 361.44 
L 274.736842 360.974118 
L 276.012943 360.974118 
L 275.706 360.741176 
L 277.388532 360.741176 
L 277.081832 360.508235 
L 282.006297 360.508235 
L 281.698653 360.275294 
L 287.222727 360.275294 
L 286.914202 360.042353 
L 287.3 360.042353 
L 286.992263 359.809412 
L 288.523803 359.809412 
L 288.216522 359.576471 
L 288.975434 359.576471 
L 288.668831 359.343529 
L 290.546562 359.343529 
L 290.240343 359.110588 
L 291.722902 359.110588 
L 291.417188 358.877647 
L 296.120084 358.877647 
L 295.814206 358.644706 
L 301.032196 358.644706 
L 300.726294 358.411765 
L 301.066531 358.411765 
L 300.761413 358.178824 
L 309.292913 358.178824 
L 308.987811 357.945882 
L 309.304319 357.945882 
L 309 357.712941 
L 316.057614 357.712941 
L 315.753992 357.48 
L 316.051519 357.48 
L 315.748673 357.247059 
L 321.545253 357.247059 
L 321.243473 357.014118 
L 323.483049 357.014118 
L 323.182217 356.781176 
L 324.560048 356.781176 
L 324.260097 356.548235 
L 326.430539 356.548235 
L 325.833333 356.082353 
L 327.16924 356.082353 
L 326.871886 355.849412 
L 341.750831 355.849412 
L 341.164641 355.383529 
L 346.580409 355.383529 
L 346.000215 354.917647 
L 346.219957 354.917647 
L 345.930868 354.684706 
L 350.650366 354.684706 
L 350.363598 354.451765 
L 350.573041 354.451765 
L 350.286952 354.218824 
L 353.783077 354.218824 
L 353.498975 353.985882 
L 354.103575 353.985882 
L 353.820306 353.752941 
L 354.421465 353.752941 
L 354.139024 353.52 
L 360.520354 353.52 
L 360.241356 353.287059 
L 362.095039 353.287059 
L 361.817493 353.054118 
L 362.549274 353.054118 
L 362.272631 352.821176 
L 365.674359 352.821176 
L 365.4 352.588235 
L 366.79661 352.588235 
L 366.523518 352.355294 
L 366.696711 352.355294 
L 366.424225 352.122353 
L 367.969274 352.122353 
L 367.69814 351.889412 
L 367.868309 351.889412 
L 372.346238 351.889412 
L 372.078261 351.656471 
L 372.24 351.656471 
L 374.788582 351.656471 
L 374.257346 351.190588 
L 374.414413 351.190588 
L 375.506101 351.190588 
L 375.241961 350.957647 
L 375.396911 350.957647 
L 378.588821 350.957647 
L 378.327273 350.724706 
L 378.476471 350.724706 
L 382.693671 350.724706 
L 382.435497 350.491765 
L 382.577338 350.491765 
L 383.563568 350.491765 
L 383.306611 350.258824 
L 383.446656 350.258824 
L 385.655941 350.258824 
L 385.401072 350.025882 
L 385.537315 350.025882 
L 386.350082 350.025882 
L 386.096314 349.792941 
L 386.231097 349.792941 
L 387.69927 349.792941 
L 387.447083 349.56 
L 387.579352 349.56 
L 388.2375 349.56 
L 387.986301 349.327059 
L 388.117391 349.327059 
L 388.509398 349.327059 
L 388.258989 349.094118 
L 388.389334 349.094118 
L 388.908633 349.094118 
L 388.659105 348.861176 
L 388.788508 348.861176 
L 390.831206 348.861176 
L 390.583701 348.628235 
L 390.709756 348.628235 
L 391.711102 348.628235 
L 391.464844 348.395294 
L 391.589227 348.395294 
L 391.713417 348.395294 
L 391.467732 348.162353 
L 391.591822 348.162353 
L 393.672175 348.162353 
L 393.428571 347.929412 
L 393.549348 347.929412 
L 397.088372 347.929412 
L 396.848051 347.696471 
L 396.963371 347.696471 
L 398.78527 347.696471 
L 398.546893 347.463529 
L 398.659424 347.463529 
L 400.766327 347.463529 
L 400.530153 347.230588 
L 400.63952 347.230588 
L 401.724494 347.230588 
L 401.489675 346.997647 
L 401.597403 346.997647 
L 401.704975 346.997647 
L 401.470677 346.764706 
L 401.578186 346.764706 
L 401.899784 346.764706 
L 401.666188 346.531765 
L 401.773171 346.531765 
L 405.321429 346.531765 
L 405.091323 346.298824 
L 405.193217 346.298824 
L 408.087389 346.298824 
L 407.860274 346.065882 
L 407.958111 346.065882 
L 408.929164 346.065882 
L 408.703329 345.832941 
L 408.799796 345.832941 
L 412.187475 345.832941 
L 411.965166 345.6 
L 412.057048 345.6 
L 412.605801 345.6 
L 412.384387 345.367059 
L 412.47551 345.367059 
L 415.242 345.367059 
L 415.023598 345.134118 
L 415.111082 345.134118 
L 415.198455 345.134118 
L 414.980502 344.901176 
L 415.067846 344.901176 
L 418.222425 344.901176 
L 418.00791 344.668235 
L 418.091217 344.668235 
L 419.164779 344.668235 
L 418.951679 344.435294 
L 419.033623 344.435294 
L 421.445455 344.435294 
L 421.235122 344.202353 
L 421.314077 344.202353 
L 423.02706 344.202353 
L 422.81881 343.969412 
L 422.895676 343.969412 
L 423.659284 343.969412 
L 423.452148 343.736471 
L 423.528086 343.736471 
L 424.057126 343.736471 
L 423.850861 343.503529 
L 423.926157 343.503529 
L 424.376064 343.503529 
L 424.170585 343.270588 
L 424.245336 343.270588 
L 424.840188 343.270588 
L 424.635643 343.037647 
L 424.709683 343.037647 
L 427.176352 343.037647 
L 426.974698 342.804706 
L 427.116944 342.804706 
L 428.591033 342.804706 
L 428.391322 342.571765 
L 428.530028 342.571765 
L 429.287331 342.571765 
L 429.088801 342.338824 
L 429.225632 342.338824 
L 430.510345 342.338824 
L 430.313563 342.105882 
L 430.447363 342.105882 
L 431.111927 342.105882 
L 430.916225 341.872941 
L 431.048401 341.872941 
L 431.574204 341.872941 
L 431.37943 341.64 
L 431.510301 341.64 
L 435.977373 341.64 
L 435.719842 341.174118 
L 437.391131 341.174118 
L 437.204044 340.941176 
L 437.321699 340.941176 
L 438.484982 340.941176 
L 438.299539 340.708235 
L 438.414688 340.708235 
L 438.472174 340.708235 
L 438.287117 340.475294 
L 438.402043 340.475294 
L 446.350451 340.475294 
L 446.175 340.242353 
L 446.274171 340.242353 
L 447.546489 340.242353 
L 447.372859 340.009412 
L 447.469565 340.009412 
L 447.51785 340.009412 
L 447.344559 339.776471 
L 447.441111 339.776471 
L 447.585601 339.776471 
L 447.412762 339.543529 
L 447.508981 339.543529 
L 448.508571 339.543529 
L 448.337218 339.310588 
L 448.431523 339.310588 
L 449.133318 339.310588 
L 448.963088 339.077647 
L 449.056047 339.077647 
L 449.241458 339.077647 
L 449.071721 338.844706 
L 449.164286 338.844706 
L 450.622735 338.844706 
L 450.455043 338.611765 
L 450.589794 338.611765 
L 451.742655 338.611765 
L 451.576692 338.378824 
L 451.708171 338.378824 
L 452.057086 338.378824 
L 451.891861 338.145882 
L 452.022232 338.145882 
L 452.195526 338.145882 
L 452.03082 337.912941 
L 452.160552 337.912941 
L 452.332998 337.912941 
L 452.00476 337.447059 
L 452.134017 337.447059 
L 453.366279 337.447059 
L 453.204046 337.214118 
L 453.329923 337.214118 
L 454.489295 337.214118 
L 454.168421 336.748235 
L 454.29131 336.748235 
L 454.495431 336.748235 
L 454.335603 336.515294 
L 454.457813 336.515294 
L 456.838591 336.515294 
L 456.682009 336.282353 
L 456.798109 336.282353 
L 458.094161 336.282353 
L 457.939481 336.049412 
L 458.052267 336.049412 
L 458.127306 336.049412 
L 457.972988 335.816471 
L 458.08546 335.816471 
L 458.569707 335.816471 
L 458.416265 335.583529 
L 458.527437 335.583529 
L 459.588462 335.583529 
L 459.436623 335.350588 
L 459.545131 335.350588 
L 460.545576 335.350588 
L 460.395264 335.117647 
L 460.50129 335.117647 
L 460.712598 335.117647 
L 460.562807 334.884706 
L 460.668224 334.884706 
L 461.330189 334.884706 
L 461.181491 334.651765 
L 461.285257 334.651765 
L 461.457666 334.651765 
L 461.309434 334.418824 
L 461.412692 334.418824 
L 461.686887 334.418824 
L 461.539249 334.185882 
L 461.641769 334.185882 
L 462.117098 334.185882 
L 461.970308 333.952941 
L 462.071635 333.952941 
L 462.973278 333.952941 
L 462.827878 333.72 
L 462.927057 333.72 
L 464.035659 333.72 
L 463.891914 333.487059 
L 464.020667 333.487059 
L 464.595364 333.487059 
L 464.45263 333.254118 
L 464.579471 333.254118 
L 465.950524 333.254118 
L 465.809827 333.021176 
L 465.932468 333.021176 
L 466.085272 333.021176 
L 465.945032 332.788235 
L 466.067038 332.788235 
L 466.461145 332.788235 
L 466.321674 332.555294 
L 466.442357 332.555294 
L 466.652725 332.555294 
L 466.494988 332.089412 
L 467.355243 332.089412 
L 467.217763 331.856471 
L 467.335195 331.856471 
L 467.364501 331.856471 
L 467.227308 331.623529 
L 467.344479 331.623529 
L 468.298753 331.623529 
L 468.163041 331.390588 
L 468.277378 331.390588 
L 471.776184 331.390588 
L 471.645298 331.157647 
L 471.75 331.157647 
L 472.166053 331.157647 
L 472.035942 330.924706 
L 472.139409 330.924706 
L 473.108952 330.924706 
L 472.98035 330.691765 
L 473.106313 330.691765 
L 473.231868 330.691765 
L 473.103683 330.458824 
L 473.229 330.458824 
L 474.605418 330.458824 
L 474.479316 330.225882 
L 474.6 330.225882 
L 474.768318 330.225882 
L 474.642681 329.992941 
L 474.762614 329.992941 
L 474.929887 329.992941 
L 474.804713 329.76 
L 474.923902 329.76 
L 475.490847 329.76 
L 475.366667 329.527059 
L 475.483872 329.527059 
L 476.27131 329.527059 
L 476.148417 329.294118 
L 476.262983 329.294118 
L 476.491065 329.294118 
L 476.337508 328.828235 
L 476.360244 328.828235 
L 476.812079 328.828235 
L 476.690625 328.595294 
L 476.802878 328.595294 
L 479.21017 328.595294 
L 479.092177 328.362353 
L 479.197074 328.362353 
L 479.572177 328.362353 
L 479.454903 328.129412 
L 479.579233 328.129412 
L 479.888172 328.129412 
L 479.771552 327.896471 
L 479.894545 327.896471 
L 480.942906 327.896471 
L 480.827942 327.663529 
L 480.947077 327.663529 
L 481.026276 327.663529 
L 480.911646 327.430588 
L 481.030269 327.430588 
L 483.135802 327.430588 
L 483.024309 326.964706 
L 483.375 326.964706 
L 483.264225 326.731765 
L 483.374368 326.731765 
L 483.53891 326.731765 
L 483.428571 326.498824 
L 483.53797 326.498824 
L 483.864045 326.498824 
L 483.662809 326.032941 
L 483.753023 326.032941 
L 484.869292 326.032941 
L 484.7614 325.8 
L 484.883307 325.8 
L 485.143026 325.8 
L 484.963028 325.334118 
L 485.049292 325.334118 
L 487.456223 325.334118 
L 487.352499 325.101176 
L 487.464399 325.101176 
L 488.11197 325.101176 
L 488.009349 324.868235 
L 488.118741 324.868235 
L 492.188573 324.868235 
L 492.091857 324.635294 
L 492.200929 324.635294 
L 496.100759 324.635294 
L 496.009818 324.402353 
L 496.128309 324.402353 
L 496.469052 324.402353 
L 496.378814 324.169412 
L 496.495497 324.169412 
L 496.692715 324.169412 
L 496.602969 323.936471 
L 496.718478 323.936471 
L 498.918892 323.936471 
L 498.832543 323.703529 
L 498.949133 323.703529 
L 500.478385 323.703529 
L 500.478385 323.703529 
" style="fill:none;stroke:#1f77b4;stroke-linecap:square;stroke-width:2;"/>
   </g>
   <g id="line2d_46">
    <path clip-path="url(#p0579fc1add)" d="M 550.8 448.56 
L 361.08 448.094118 
L 415.285714 448.094118 
L 340 447.628235 
L 292.090909 447.162353 
L 274.125 446.929412 
L 313.65 446.929412 
L 284.00625 446.463529 
L 299.7 446.463529 
L 266.22 445.764706 
L 279.771429 445.764706 
L 254.3625 445.065882 
L 266.22 445.065882 
L 252.166667 444.6 
L 262.832143 444.6 
L 250.41 444.134118 
L 260.1 444.134118 
L 248.972727 443.668235 
L 257.85 443.668235 
L 238.760526 442.736471 
L 246.761538 442.736471 
L 242.505 442.503529 
L 257.185714 442.503529 
L 252.983721 442.270588 
L 259.752273 442.270588 
L 248.055319 441.571765 
L 260.412245 441.571765 
L 253.2 441.105882 
L 279.771429 441.105882 
L 276.205263 440.872941 
L 285.513559 440.872941 
L 282.03 440.64 
L 290.7 440.64 
L 284.00625 440.174118 
L 292.090909 440.174118 
L 288.873134 439.941176 
L 292.725 439.941176 
L 289.591304 439.708235 
L 303.90411 439.708235 
L 297.84 439.242353 
L 307.569231 439.242353 
L 304.644304 439.009412 
L 307.72125 439.009412 
L 302.081707 438.543529 
L 326.68022 438.543529 
L 323.96087 438.310588 
L 372.430769 438.310588 
L 365.0325 437.611765 
L 385.673333 437.611765 
L 383.4 437.378824 
L 384.621898 437.378824 
L 382.38913 437.145882 
L 407.338889 437.145882 
L 402.224096 436.447059 
L 400.273653 436.214118 
L 401.169643 436.214118 
L 420.551813 436.214118 
L 418.778351 435.981176 
L 419.455385 435.981176 
L 424.631527 435.981176 
L 422.925 435.748235 
L 423.54878 435.748235 
L 427.167299 435.748235 
L 425.513208 435.515294 
L 426.101408 435.515294 
L 426.684112 435.515294 
L 424.028571 435.049412 
L 425.186301 435.049412 
L 423.601364 434.816471 
L 424.176923 434.816471 
L 429.131739 434.816471 
L 427.605195 434.583529 
L 428.136207 434.583529 
L 431.228571 434.583529 
L 429.744351 434.350588 
L 430.24875 434.350588 
L 430.748963 434.350588 
L 429.285124 434.117647 
L 429.785185 434.117647 
L 439.411364 434.117647 
L 438.041887 433.884706 
L 438.465789 433.884706 
L 443.314748 433.884706 
L 442 433.651765 
L 442.388571 433.651765 
L 445.032753 433.651765 
L 442.855862 433.185882 
L 448.16459 433.185882 
L 446.95 432.952941 
L 447.288274 432.952941 
L 447.624351 432.952941 
L 446.423301 432.72 
L 446.76 432.72 
L 459.948169 432.72 
L 458.871067 432.487059 
L 459.384637 432.487059 
L 467.31352 432.487059 
L 466.319084 432.254118 
L 466.746835 432.254118 
L 480.008955 432.254118 
L 479.150426 432.021176 
L 479.454025 432.021176 
L 486.9 432.021176 
L 486.122727 431.788235 
L 486.488136 431.788235 
L 487.08806 431.788235 
L 486.323464 431.555294 
L 486.681667 431.555294 
L 487.847455 431.555294 
L 487.100907 431.322353 
L 487.445848 431.322353 
L 491.612479 431.322353 
L 490.913636 431.089412 
L 491.214573 431.089412 
L 492.099505 431.089412 
L 491.027332 430.623529 
L 491.125 430.623529 
L 490.448613 430.390588 
L 490.742532 430.390588 
L 498.1 430.390588 
L 496.978723 429.924706 
L 497.20678 429.924706 
L 502.216133 429.924706 
L 501.192092 429.458824 
L 501.381194 429.458824 
L 501.878491 429.458824 
L 501.344095 429.225882 
L 501.591375 429.225882 
L 505.706186 429.225882 
L 505.215103 428.992941 
L 505.422779 428.992941 
L 505.832506 428.992941 
L 505.348478 428.76 
L 505.603251 428.76 
L 508.407256 428.76 
L 507.953571 428.527059 
L 508.177429 428.527059 
L 511.766699 428.527059 
L 511.350574 428.294118 
L 511.57557 428.294118 
L 513.957054 428.294118 
L 513.566815 428.061176 
L 513.76504 428.061176 
L 518.064 428.061176 
L 517.717947 427.828235 
L 517.898441 427.828235 
L 518.893197 427.828235 
L 518.559063 427.595294 
L 518.752703 427.595294 
L 520.886195 427.595294 
L 520.575 427.362353 
L 520.743384 427.362353 
L 521.458532 427.362353 
L 521.15625 427.129412 
L 521.336394 427.129412 
L 521.728981 427.129412 
L 521.215262 426.663529 
L 521.313095 426.663529 
L 522.146915 426.663529 
L 521.860694 426.430588 
L 522.027011 426.430588 
L 523.190625 426.430588 
L 522.712637 425.964706 
L 522.798113 425.964706 
L 523.560746 425.964706 
L 523.296213 425.731765 
L 523.458 425.731765 
L 525.176295 425.731765 
L 524.929091 425.498824 
L 525.08494 425.498824 
L 525.527826 425.498824 
L 525.286283 425.265882 
L 525.436364 425.265882 
L 526.845455 425.265882 
L 526.618122 425.032941 
L 526.763723 425.032941 
L 527.988429 425.032941 
L 527.773536 424.8 
L 527.915137 424.8 
L 528.108349 424.8 
L 527.896624 424.567059 
L 528.045971 424.567059 
L 528.067148 424.567059 
L 527.857116 424.334118 
L 528.005545 424.334118 
L 528.798573 424.334118 
L 528.596924 424.101176 
L 528.734648 424.101176 
L 531.19311 424.101176 
L 530.936947 423.635294 
L 530.967995 423.635294 
L 531.813805 423.635294 
L 531.53101 423.169412 
L 531.609688 423.169412 
L 532.48012 423.169412 
L 532.288291 422.703529 
L 532.923158 422.703529 
L 532.768228 422.470588 
L 532.895854 422.470588 
L 533.039519 422.470588 
L 532.752537 422.004706 
L 532.866269 422.004706 
L 533.76465 422.004706 
L 533.558132 421.538824 
L 533.606625 421.538824 
L 533.718721 421.538824 
L 533.576816 421.305882 
L 533.704159 421.305882 
L 534.284196 421.305882 
L 534.135784 420.84 
L 534.492083 420.84 
L 534.359792 420.607059 
L 534.487016 420.607059 
L 535.726907 420.607059 
L 535.592484 420.141176 
L 535.608454 420.141176 
L 535.920957 420.141176 
L 535.802853 419.908235 
L 535.925217 419.908235 
L 536.511756 419.908235 
L 536.399119 419.675294 
L 536.521486 419.675294 
L 537.939033 419.675294 
L 537.83815 419.442353 
L 537.958869 419.442353 
L 538.959077 419.442353 
L 538.866733 419.209412 
L 538.970665 419.209412 
" style="fill:none;stroke:#ff7f0e;stroke-linecap:square;stroke-width:2;"/>
   </g>
   <g id="line2d_47">
    <path clip-path="url(#p0579fc1add)" d="M 550.8 448.56 
L 392.7 448.327059 
L 432.225 448.327059 
L 313.65 447.861176 
L 279.771429 447.628235 
L 313.65 447.628235 
L 266.22 447.162353 
L 222.438462 446.463529 
L 202.98 445.997647 
L 224.71875 445.997647 
L 216 445.764706 
L 234.6 445.764706 
L 212.014286 445.065882 
L 205.854545 444.832941 
L 220.852174 444.832941 
L 199.466667 443.901176 
L 183.6 442.969412 
L 171.36 442.037647 
L 161.630769 441.105882 
L 151.956818 439.941176 
L 150.28 439.708235 
L 167.323404 439.708235 
L 160.2 438.776471 
L 167.711538 438.776471 
L 161.196429 437.844706 
L 168.031579 437.844706 
L 166.453448 437.611765 
L 179.265 437.611765 
L 177.580328 437.378824 
L 183.6 437.378824 
L 177.109091 436.447059 
L 188.1 436.447059 
L 180.456164 435.282353 
L 185.460811 435.282353 
L 181.215584 434.583529 
L 190.572152 434.583529 
L 189.14625 434.350588 
L 193.611111 434.350588 
L 188.1 433.418824 
L 192.317442 433.418824 
L 184.76413 432.021176 
L 188.7 432.021176 
L 185.19375 431.322353 
L 192.655102 431.322353 
L 187.016505 430.157647 
L 193.945714 430.157647 
L 191.750467 429.691765 
L 198.338532 429.691765 
L 192.994737 428.527059 
L 199.163793 428.527059 
L 198.115385 428.294118 
L 201.104237 428.294118 
L 198.014876 427.595294 
L 200.906557 427.595294 
L 199.895122 427.362353 
L 210.947244 427.362353 
L 209.896875 427.129412 
L 215.141538 427.129412 
L 210.006667 425.964706 
L 222.177857 425.964706 
L 221.144681 425.731765 
L 225.755245 425.731765 
L 222.688356 425.032941 
L 224.920408 425.032941 
L 223.917568 424.8 
L 226.111409 424.8 
L 224.129801 424.334118 
L 226.278947 424.334118 
L 224.333766 423.868235 
L 226.44 423.868235 
L 220.852174 422.470588 
L 222.888889 422.470588 
L 221.990798 422.237647 
L 225.976364 422.237647 
L 225.075904 422.004706 
L 228.953571 422.004706 
L 228.051479 421.771765 
L 229.95 421.771765 
L 228.165698 421.305882 
L 231.874138 421.305882 
L 230.986286 421.072941 
L 236.376404 421.072941 
L 232.862637 420.141176 
L 234.6 420.141176 
L 230.395213 418.976471 
L 235.427749 418.976471 
L 234.6 418.743529 
L 236.238342 418.743529 
L 234.6 418.277647 
L 237.810152 418.277647 
L 236.995455 418.044706 
L 238.572362 418.044706 
L 236.959701 417.578824 
L 240.051724 417.578824 
L 239.25 417.345882 
L 245.241346 417.345882 
L 243.634286 416.88 
L 245.090047 416.88 
L 243.507042 416.414118 
L 247.775 416.414118 
L 246.985714 416.181176 
L 253.828378 416.181176 
L 251.464 415.482353 
L 255.402632 415.482353 
L 254.621397 415.249412 
L 255.90913 415.249412 
L 255.132468 415.016471 
L 258.923077 415.016471 
L 257.377119 414.550588 
L 271.575 414.550588 
L 270.791566 414.317647 
L 271.9116 414.317647 
L 271.133068 414.084706 
L 272.242857 414.084706 
L 271.46917 413.851765 
L 272.568898 413.851765 
L 271.8 413.618824 
L 272.889844 413.618824 
L 272.125681 413.385882 
L 273.205814 413.385882 
L 272.446332 413.152941 
L 273.516923 413.152941 
L 272.762069 412.92 
L 273.823282 412.92 
L 273.073004 412.687059 
L 274.125 412.687059 
L 272.639098 412.221176 
L 276.76 412.221176 
L 274.559341 411.522353 
L 279.527698 411.522353 
L 278.8 411.289412 
L 281.693617 411.289412 
L 280.968551 411.056471 
L 285.653125 411.056471 
L 284.929412 410.823529 
L 285.846207 410.823529 
L 285.126804 410.590588 
L 291.36745 410.590588 
L 290.648829 410.357647 
L 294.083168 410.357647 
L 293.367434 410.124706 
L 295.05 410.124706 
L 294.338111 409.891765 
L 295.170779 409.891765 
L 294.463107 409.658824 
L 297.738978 409.658824 
L 297.034395 409.425882 
L 297.84 409.425882 
L 297.139557 409.192941 
L 298.734906 409.192941 
L 297.345938 408.727059 
L 300.475 408.727059 
L 299.785846 408.494118 
L 304.335952 408.494118 
L 303.649699 408.261176 
L 309.465 408.261176 
L 308.781818 408.028235 
L 310.892442 408.028235 
L 310.213043 407.795294 
L 312.970487 407.795294 
L 312.294857 407.562353 
L 314.989831 407.562353 
L 314.318028 407.329412 
L 315.642857 407.329412 
L 314.97486 407.096471 
L 316.934626 407.096471 
L 316.270442 406.863529 
L 316.916529 406.863529 
L 316.256044 406.630588 
L 323.741489 406.630588 
L 323.085676 406.397647 
L 327.236719 406.397647 
L 326.585455 406.164706 
L 327.744186 406.164706 
L 327.096649 405.931765 
L 327.671722 405.931765 
L 327.027692 405.698824 
L 327.6 405.698824 
L 326.959439 405.465882 
L 328.095685 405.465882 
L 326.825 405 
L 329.06475 405 
L 328.434913 404.767059 
L 330.086139 404.767059 
L 329.46 404.534118 
L 330.005172 404.534118 
L 328.7625 404.068235 
L 330.383212 404.068235 
L 329.153753 403.602353 
L 329.68913 403.602353 
L 329.079036 403.369412 
L 330.142446 403.369412 
L 329.535646 403.136471 
L 330.063723 403.136471 
L 329.46 402.903529 
L 333.088525 402.903529 
L 332.489019 402.670588 
L 333.504419 402.670588 
L 332.908121 402.437647 
L 333.91455 402.437647 
L 333.321429 402.204706 
L 343.358901 402.204706 
L 342.773684 401.971765 
L 343.228884 401.971765 
L 342.646507 401.738824 
L 346.219957 401.738824 
L 345.642398 401.505882 
L 350.363598 401.505882 
L 349.791858 401.272941 
L 356.68125 401.272941 
L 356.117505 401.04 
L 361.451272 401.04 
L 360.894727 400.807059 
L 362.000971 400.807059 
L 360.896518 400.341176 
L 362.715517 400.341176 
L 362.16826 400.108235 
L 364.30775 400.108235 
L 363.764717 399.875294 
L 366.202793 399.875294 
L 365.664312 399.642353 
L 366.007792 399.642353 
L 364.937523 399.176471 
L 365.622099 399.176471 
L 365.090625 398.943529 
L 365.770879 398.943529 
L 365.242048 398.710588 
L 365.918033 398.710588 
L 365.391818 398.477647 
L 368.702679 398.477647 
L 368.181818 398.244706 
L 371.065263 398.244706 
L 370.549387 398.011765 
L 371.491463 398.011765 
L 370.978435 397.778824 
L 375.550169 397.778824 
L 375.044162 397.545882 
L 377.101505 397.545882 
L 376.599666 397.312941 
L 376.89 397.312941 
L 376.390183 397.08 
L 376.6799 397.08 
L 376.18209 396.847059 
L 377.332784 396.847059 
L 376.837993 396.614118 
L 380.205 396.614118 
L 379.715942 396.381176 
L 381.35311 396.381176 
L 380.867675 396.148235 
L 381.943196 396.148235 
L 381.460664 395.915294 
L 383.574103 395.915294 
L 383.095794 395.682353 
L 383.875814 395.682353 
L 382.925657 395.216471 
L 383.184722 395.216471 
L 382.712173 394.983529 
L 385.262822 394.983529 
L 384.795 394.750588 
L 385.546154 394.750588 
L 385.080723 394.517647 
L 385.578378 394.517647 
L 385.114993 394.284706 
L 387.562334 394.284706 
L 387.10354 394.051765 
L 387.344624 394.051765 
L 388.77635 394.051765 
L 388.321137 393.818824 
L 388.557642 393.818824 
L 393.591961 393.818824 
L 392.478261 393.12 
L 393.58078 393.12 
L 393.139777 392.887059 
L 393.35875 392.887059 
L 396.361717 392.887059 
L 395.926531 392.654118 
L 396.136957 392.654118 
L 397.8 392.654118 
L 396.288385 391.722353 
L 396.699867 391.722353 
L 396.274069 391.489412 
L 396.479283 391.489412 
L 398.101577 391.489412 
L 397.679528 391.256471 
L 397.88021 391.256471 
L 399.858473 391.256471 
L 399.440698 391.023529 
L 399.636 391.023529 
L 400.218895 391.023529 
L 399.803338 390.790588 
L 399.996923 390.790588 
L 400.766327 390.790588 
L 400.353248 390.557647 
L 400.544656 390.557647 
L 400.926015 390.557647 
L 400.514829 390.324706 
L 400.705063 390.324706 
L 402.58125 390.324706 
L 402.174157 390.091765 
L 402.359476 390.091765 
L 402.912671 390.091765 
L 402.507692 389.858824 
L 402.69145 389.858824 
L 403.057602 389.858824 
L 402.654444 389.625882 
L 402.837115 389.625882 
L 405.171481 389.625882 
L 404.773091 389.392941 
L 404.949879 389.392941 
L 405.302174 389.392941 
L 404.905549 389.16 
L 405.081325 389.16 
L 406.644458 389.16 
L 406.251429 388.927059 
L 406.423306 388.927059 
L 406.936493 388.927059 
L 406.545444 388.694118 
L 406.715957 388.694118 
L 407.730634 388.694118 
L 407.342321 388.461176 
L 407.510304 388.461176 
L 409.16875 388.461176 
L 408.784162 388.228235 
L 408.948152 388.228235 
L 409.111765 388.228235 
L 408.51 387.762353 
L 408.673364 387.762353 
L 408.292431 387.529412 
L 408.45567 387.529412 
L 408.618535 387.529412 
L 408.238971 387.296471 
L 408.401712 387.296471 
L 410.641685 387.296471 
L 410.266667 387.063529 
L 410.424215 387.063529 
L 411.050893 387.063529 
L 410.677926 386.830588 
L 410.833964 386.830588 
L 411.145 386.830588 
L 410.773585 386.597647 
L 410.928825 386.597647 
L 413.066594 386.597647 
L 412.699564 386.364706 
L 412.85 386.364706 
L 413.448482 386.364706 
L 412.868432 385.898824 
L 413.314332 385.898824 
L 412.738453 385.432941 
L 415.641956 385.432941 
L 415.285714 385.2 
L 415.427912 385.2 
L 416.833645 385.2 
L 415.916339 384.501176 
L 416.194737 384.501176 
L 415.844536 384.268235 
L 415.983522 384.268235 
L 418.437209 384.268235 
L 418.091818 384.035294 
L 418.225732 384.035294 
L 418.492749 384.035294 
L 418.148692 383.802353 
L 418.28201 383.802353 
L 419.076324 383.802353 
L 418.734431 383.569412 
L 418.866102 383.569412 
L 421.823684 383.569412 
L 421.487439 383.336471 
L 421.61323 383.336471 
L 421.738776 383.336471 
L 421.403592 383.103529 
L 421.529098 383.103529 
L 423.138793 383.103529 
L 422.598567 382.637647 
L 424.883583 382.637647 
L 424.557076 382.404706 
L 424.675281 382.404706 
L 427.334189 382.404706 
L 427.012912 382.171765 
L 427.126167 382.171765 
L 428.247416 382.171765 
L 427.928804 381.938824 
L 428.04 381.938824 
L 432.12126 381.938824 
L 431.810402 381.705882 
L 431.914323 381.705882 
L 432.121622 381.705882 
L 431.811847 381.472941 
L 431.915405 381.472941 
L 435.136664 381.472941 
L 434.833249 381.24 
L 434.931276 381.24 
L 436.952243 381.24 
L 436.653112 381.007059 
L 436.747761 381.007059 
L 439.154708 381.007059 
L 438.860584 380.774118 
L 438.951297 380.774118 
L 441.259286 380.774118 
L 440.68122 380.308235 
L 440.855459 380.308235 
L 442.229766 380.308235 
L 441.829206 379.842353 
L 442.503947 379.842353 
L 442.220882 379.609412 
L 442.388571 379.609412 
L 443.793293 379.609412 
L 443.513557 379.376471 
L 443.67673 379.376471 
L 445.360554 379.376471 
L 445.084667 379.143529 
L 445.242569 379.143529 
L 447.253187 379.143529 
L 446.981772 378.910588 
L 447.133553 378.910588 
L 449.791667 378.910588 
L 449.525979 378.677647 
L 449.669936 378.677647 
L 450.736709 378.677647 
L 450.473717 378.444706 
L 450.614526 378.444706 
L 450.684783 378.444706 
L 450.422565 378.211765 
L 450.563051 378.211765 
L 451.051671 378.211765 
L 450.791023 377.978824 
L 450.930021 377.978824 
L 452.028247 377.978824 
L 451.77033 377.745882 
L 451.906173 377.745882 
L 452.10924 377.745882 
L 451.852326 377.512941 
L 451.9875 377.512941 
L 453.58125 377.512941 
L 453.328005 377.28 
L 453.458753 377.28 
L 455.063984 377.28 
L 454.814436 377.047059 
L 454.940816 377.047059 
L 456.247987 377.047059 
L 456.001557 376.814118 
L 456.124433 376.814118 
L 457.035944 376.814118 
L 456.791854 376.581176 
L 456.9123 376.581176 
L 457.982584 376.581176 
L 457.741139 376.348235 
L 457.858786 376.348235 
L 457.976136 376.348235 
L 457.735457 376.115294 
L 457.852741 376.115294 
L 459.970382 376.115294 
L 459.7344 375.882353 
L 459.846343 375.882353 
L 463.598114 375.882353 
L 463.142437 375.416471 
L 463.296945 375.416471 
L 463.960233 375.416471 
L 463.734441 375.183529 
L 463.886387 375.183529 
L 464.588517 375.183529 
L 464.191071 374.717647 
L 464.290736 374.717647 
L 465.758654 374.717647 
L 465.538609 374.484706 
L 465.682957 374.484706 
L 465.778918 374.484706 
L 465.559606 374.251765 
L 465.703431 374.251765 
L 466.132009 374.251765 
L 465.914094 374.018824 
L 466.056281 374.018824 
L 468.536585 374.018824 
L 468.324215 373.785882 
L 468.458031 373.785882 
L 469.426243 373.785882 
L 469.216346 373.552941 
L 469.34688 373.552941 
L 469.606699 373.552941 
L 469.397821 373.32 
L 469.527374 373.32 
L 470.842328 373.32 
L 470.63662 373.087059 
L 470.761875 373.087059 
L 471.17658 373.087059 
L 470.972191 372.854118 
L 471.096019 372.854118 
L 471.137209 372.854118 
L 470.933368 372.621176 
L 471.056937 372.621176 
L 471.262037 372.621176 
L 470.897381 372.155294 
L 470.979374 372.155294 
L 471.467823 372.155294 
L 471.266514 371.922353 
L 471.387939 371.922353 
L 475.81456 371.922353 
L 475.539549 371.456471 
L 478.3527 371.456471 
L 478.167343 371.223529 
L 478.301105 371.223529 
L 478.500826 371.223529 
L 478.316338 370.990588 
L 478.449153 370.990588 
L 479.687033 370.990588 
L 479.388539 370.524706 
L 479.452672 370.524706 
L 480.463347 370.524706 
L 480.284602 370.291765 
L 480.409187 370.291765 
L 481.601216 370.291765 
L 481.425391 370.058824 
L 481.545624 370.058824 
L 482.346424 370.058824 
L 482.172688 369.825882 
L 482.29 369.825882 
L 482.406911 369.825882 
L 482.233817 369.592941 
L 482.350575 369.592941 
L 482.553947 369.592941 
L 482.381672 369.36 
L 482.497586 369.36 
L 483.410949 369.36 
L 483.240977 369.127059 
L 483.35367 369.127059 
L 485.372694 369.127059 
L 485.207359 368.894118 
L 485.339709 368.894118 
L 485.759663 368.894118 
L 485.595631 368.661176 
L 485.72604 368.661176 
L 486.088425 368.661176 
L 485.925567 368.428235 
L 486.054286 368.428235 
L 486.841082 368.428235 
L 486.68029 368.195294 
L 486.805671 368.195294 
L 487.888235 368.195294 
L 487.620691 367.729412 
L 487.693367 367.729412 
L 487.765875 367.729412 
L 487.608423 367.496471 
L 487.729156 367.496471 
L 488.040913 367.496471 
L 487.884493 367.263529 
L 488.003832 367.263529 
L 488.896223 367.263529 
L 488.742056 367.030588 
L 488.857836 367.030588 
L 491.3 367.030588 
L 491.151379 366.797647 
L 491.279335 366.797647 
L 492.035687 366.797647 
L 491.889061 366.564706 
L 492.013521 366.564706 
L 492.219789 366.564706 
L 492.073974 366.331765 
L 492.197305 366.331765 
L 492.523669 366.331765 
L 492.378914 366.098824 
L 492.500625 366.098824 
L 493.180851 366.098824 
L 493.037907 365.865882 
L 493.156556 365.865882 
L 493.294365 365.865882 
L 493.152066 365.632941 
L 493.269915 365.632941 
L 494.328161 365.632941 
L 494.188465 365.4 
L 494.301802 365.4 
L 494.82476 365.4 
L 494.686517 365.167059 
L 494.797559 365.167059 
L 495.472727 365.167059 
L 495.336254 364.934118 
L 495.462431 364.934118 
L 497.372419 364.934118 
L 497.142118 364.468235 
L 497.226064 364.468235 
L 497.242821 364.468235 
L 497.111257 364.235294 
L 497.228518 364.235294 
L 497.643158 364.235294 
L 497.512813 364.002353 
L 497.628011 364.002353 
L 499.359635 364.002353 
L 499.230295 363.536471 
L 500.386634 363.536471 
L 500.263231 363.303529 
L 500.380656 363.303529 
L 502.05139 363.303529 
L 501.867452 362.837647 
L 501.935946 362.837647 
L 502.113138 362.837647 
L 501.994451 362.604706 
L 502.116634 362.604706 
L 502.586033 362.604706 
L 502.468686 362.371765 
L 502.588187 362.371765 
L 502.707098 362.371765 
L 502.409984 361.672941 
L 502.476072 361.672941 
L 502.998352 361.672941 
L 502.883144 361.44 
L 502.999353 361.44 
L 503.697451 361.44 
L 503.584046 361.207059 
L 503.696584 361.207059 
L 503.808587 361.207059 
L 503.695721 360.974118 
L 503.807431 360.974118 
L 504.478753 360.974118 
L 504.367619 360.741176 
L 504.487879 360.741176 
L 504.499871 360.741176 
L 504.386445 360.275294 
L 504.398425 360.275294 
L 504.695948 360.275294 
L 504.586154 360.042353 
L 504.704348 360.042353 
L 504.821939 360.042353 
L 504.712701 359.809412 
L 504.829941 359.809412 
L 505.645502 359.809412 
L 505.538296 359.576471 
L 505.651084 359.576471 
L 506.511904 359.576471 
L 506.406818 359.343529 
L 506.525835 359.343529 
L 507.620323 359.343529 
L 507.517871 359.110588 
L 507.630718 359.110588 
L 508.166292 359.110588 
L 508.06527 358.877647 
L 508.184947 358.877647 
L 508.965979 358.877647 
L 508.866926 358.644706 
L 508.981864 358.644706 
L 509.020037 358.644706 
L 508.921355 358.411765 
L 509.0357 358.411765 
L 509.149421 358.411765 
L 509.05127 358.178824 
L 509.164615 358.178824 
L 510.923857 358.178824 
L 510.829744 357.945882 
L 510.941996 357.945882 
L 512.695353 357.945882 
L 512.605286 357.712941 
L 512.723219 357.712941 
L 513.157143 357.712941 
L 513.068301 357.48 
L 513.183103 357.48 
L 513.282035 357.48 
L 513.193689 357.247059 
L 513.307441 357.247059 
L 513.532892 357.247059 
L 513.445311 357.014118 
L 513.557263 357.014118 
L 513.903741 357.014118 
L 513.903741 357.014118 
" style="fill:none;stroke:#2ca02c;stroke-linecap:square;stroke-width:2;"/>
   </g>
   <g id="patch_3">
    <path d="M 76.5 448.56 
L 76.5 60.48 
" style="fill:none;stroke:#000000;stroke-linecap:square;stroke-linejoin:miter;stroke-width:0.8;"/>
   </g>
   <g id="patch_4">
    <path d="M 550.8 448.56 
L 550.8 60.48 
" style="fill:none;stroke:#000000;stroke-linecap:square;stroke-linejoin:miter;stroke-width:0.8;"/>
   </g>
   <g id="patch_5">
    <path d="M 76.5 448.56 
L 550.8 448.56 
" style="fill:none;stroke:#000000;stroke-linecap:square;stroke-linejoin:miter;stroke-width:0.8;"/>
   </g>
   <g id="patch_6">
    <path d="M 76.5 60.48 
L 550.8 60.48 
" style="fill:none;stroke:#000000;stroke-linecap:square;stroke-linejoin:miter;stroke-width:0.8;"/>
   </g>
   <g id="text_25">
    <!-- trees: img1-img5 -->
    <defs>
     <path d="M 11.71875 12.40625 
L 22.015625 12.40625 
L 22.015625 0 
L 11.71875 0 
z
M 11.71875 51.703125 
L 22.015625 51.703125 
L 22.015625 39.3125 
L 11.71875 39.3125 
z
" id="DejaVuSans-58"/>
     <path id="DejaVuSans-32"/>
     <path d="M 52 44.1875 
Q 55.375 50.25 60.0625 53.125 
Q 64.75 56 71.09375 56 
Q 79.640625 56 84.28125 50.015625 
Q 88.921875 44.046875 88.921875 33.015625 
L 88.921875 0 
L 79.890625 0 
L 79.890625 32.71875 
Q 79.890625 40.578125 77.09375 44.375 
Q 74.3125 48.1875 68.609375 48.1875 
Q 61.625 48.1875 57.5625 43.546875 
Q 53.515625 38.921875 53.515625 30.90625 
L 53.515625 0 
L 44.484375 0 
L 44.484375 32.71875 
Q 44.484375 40.625 41.703125 44.40625 
Q 38.921875 48.1875 33.109375 48.1875 
Q 26.21875 48.1875 22.15625 43.53125 
Q 18.109375 38.875 18.109375 30.90625 
L 18.109375 0 
L 9.078125 0 
L 9.078125 54.6875 
L 18.109375 54.6875 
L 18.109375 46.1875 
Q 21.1875 51.21875 25.484375 53.609375 
Q 29.78125 56 35.6875 56 
Q 41.65625 56 45.828125 52.96875 
Q 50 49.953125 52 44.1875 
z
" id="DejaVuSans-109"/>
     <path d="M 45.40625 27.984375 
Q 45.40625 37.75 41.375 43.109375 
Q 37.359375 48.484375 30.078125 48.484375 
Q 22.859375 48.484375 18.828125 43.109375 
Q 14.796875 37.75 14.796875 27.984375 
Q 14.796875 18.265625 18.828125 12.890625 
Q 22.859375 7.515625 30.078125 7.515625 
Q 37.359375 7.515625 41.375 12.890625 
Q 45.40625 18.265625 45.40625 27.984375 
z
M 54.390625 6.78125 
Q 54.390625 -7.171875 48.1875 -13.984375 
Q 42 -20.796875 29.203125 -20.796875 
Q 24.46875 -20.796875 20.265625 -20.09375 
Q 16.0625 -19.390625 12.109375 -17.921875 
L 12.109375 -9.1875 
Q 16.0625 -11.328125 19.921875 -12.34375 
Q 23.78125 -13.375 27.78125 -13.375 
Q 36.625 -13.375 41.015625 -8.765625 
Q 45.40625 -4.15625 45.40625 5.171875 
L 45.40625 9.625 
Q 42.625 4.78125 38.28125 2.390625 
Q 33.9375 0 27.875 0 
Q 17.828125 0 11.671875 7.65625 
Q 5.515625 15.328125 5.515625 27.984375 
Q 5.515625 40.671875 11.671875 48.328125 
Q 17.828125 56 27.875 56 
Q 33.9375 56 38.28125 53.609375 
Q 42.625 51.21875 45.40625 46.390625 
L 45.40625 54.6875 
L 54.390625 54.6875 
z
" id="DejaVuSans-103"/>
    </defs>
    <g transform="translate(261.955313 41.042625)scale(0.12 -0.12)">
     <use xlink:href="#DejaVuSans-116"/>
     <use x="39.208984" xlink:href="#DejaVuSans-114"/>
     <use x="80.291016" xlink:href="#DejaVuSans-101"/>
     <use x="141.814453" xlink:href="#DejaVuSans-101"/>
     <use x="203.337891" xlink:href="#DejaVuSans-115"/>
     <use x="255.4375" xlink:href="#DejaVuSans-58"/>
     <use x="289.128906" xlink:href="#DejaVuSans-32"/>
     <use x="320.916016" xlink:href="#DejaVuSans-105"/>
     <use x="348.699219" xlink:href="#DejaVuSans-109"/>
     <use x="446.111328" xlink:href="#DejaVuSans-103"/>
     <use x="509.587891" xlink:href="#DejaVuSans-49"/>
     <use x="573.210938" xlink:href="#DejaVuSans-45"/>
     <use x="609.294922" xlink:href="#DejaVuSans-105"/>
     <use x="637.078125" xlink:href="#DejaVuSans-109"/>
     <use x="734.490234" xlink:href="#DejaVuSans-103"/>
     <use x="797.966797" xlink:href="#DejaVuSans-53"/>
    </g>
    <!-- NearestNeighbours -->
    <defs>
     <path d="M 9.8125 72.90625 
L 23.09375 72.90625 
L 55.421875 11.921875 
L 55.421875 72.90625 
L 64.984375 72.90625 
L 64.984375 0 
L 51.703125 0 
L 19.390625 60.984375 
L 19.390625 0 
L 9.8125 0 
z
" id="DejaVuSans-78"/>
     <path d="M 34.28125 27.484375 
Q 23.390625 27.484375 19.1875 25 
Q 14.984375 22.515625 14.984375 16.5 
Q 14.984375 11.71875 18.140625 8.90625 
Q 21.296875 6.109375 26.703125 6.109375 
Q 34.1875 6.109375 38.703125 11.40625 
Q 43.21875 16.703125 43.21875 25.484375 
L 43.21875 27.484375 
z
M 52.203125 31.203125 
L 52.203125 0 
L 43.21875 0 
L 43.21875 8.296875 
Q 40.140625 3.328125 35.546875 0.953125 
Q 30.953125 -1.421875 24.3125 -1.421875 
Q 15.921875 -1.421875 10.953125 3.296875 
Q 6 8.015625 6 15.921875 
Q 6 25.140625 12.171875 29.828125 
Q 18.359375 34.515625 30.609375 34.515625 
L 43.21875 34.515625 
L 43.21875 35.40625 
Q 43.21875 41.609375 39.140625 45 
Q 35.0625 48.390625 27.6875 48.390625 
Q 23 48.390625 18.546875 47.265625 
Q 14.109375 46.140625 10.015625 43.890625 
L 10.015625 52.203125 
Q 14.9375 54.109375 19.578125 55.046875 
Q 24.21875 56 28.609375 56 
Q 40.484375 56 46.34375 49.84375 
Q 52.203125 43.703125 52.203125 31.203125 
z
" id="DejaVuSans-97"/>
     <path d="M 54.890625 33.015625 
L 54.890625 0 
L 45.90625 0 
L 45.90625 32.71875 
Q 45.90625 40.484375 42.875 44.328125 
Q 39.84375 48.1875 33.796875 48.1875 
Q 26.515625 48.1875 22.3125 43.546875 
Q 18.109375 38.921875 18.109375 30.90625 
L 18.109375 0 
L 9.078125 0 
L 9.078125 75.984375 
L 18.109375 75.984375 
L 18.109375 46.1875 
Q 21.34375 51.125 25.703125 53.5625 
Q 30.078125 56 35.796875 56 
Q 45.21875 56 50.046875 50.171875 
Q 54.890625 44.34375 54.890625 33.015625 
z
" id="DejaVuSans-104"/>
     <path d="M 48.6875 27.296875 
Q 48.6875 37.203125 44.609375 42.84375 
Q 40.53125 48.484375 33.40625 48.484375 
Q 26.265625 48.484375 22.1875 42.84375 
Q 18.109375 37.203125 18.109375 27.296875 
Q 18.109375 17.390625 22.1875 11.75 
Q 26.265625 6.109375 33.40625 6.109375 
Q 40.53125 6.109375 44.609375 11.75 
Q 48.6875 17.390625 48.6875 27.296875 
z
M 18.109375 46.390625 
Q 20.953125 51.265625 25.265625 53.625 
Q 29.59375 56 35.59375 56 
Q 45.5625 56 51.78125 48.09375 
Q 58.015625 40.1875 58.015625 27.296875 
Q 58.015625 14.40625 51.78125 6.484375 
Q 45.5625 -1.421875 35.59375 -1.421875 
Q 29.59375 -1.421875 25.265625 0.953125 
Q 20.953125 3.328125 18.109375 8.203125 
L 18.109375 0 
L 9.078125 0 
L 9.078125 75.984375 
L 18.109375 75.984375 
z
" id="DejaVuSans-98"/>
     <path d="M 8.5 21.578125 
L 8.5 54.6875 
L 17.484375 54.6875 
L 17.484375 21.921875 
Q 17.484375 14.15625 20.5 10.265625 
Q 23.53125 6.390625 29.59375 6.390625 
Q 36.859375 6.390625 41.078125 11.03125 
Q 45.3125 15.671875 45.3125 23.6875 
L 45.3125 54.6875 
L 54.296875 54.6875 
L 54.296875 0 
L 45.3125 0 
L 45.3125 8.40625 
Q 42.046875 3.421875 37.71875 1 
Q 33.40625 -1.421875 27.6875 -1.421875 
Q 18.265625 -1.421875 13.375 4.4375 
Q 8.5 10.296875 8.5 21.578125 
z
M 31.109375 56 
z
" id="DejaVuSans-117"/>
    </defs>
    <g transform="translate(255.824063 54.48)scale(0.12 -0.12)">
     <use xlink:href="#DejaVuSans-78"/>
     <use x="74.804688" xlink:href="#DejaVuSans-101"/>
     <use x="136.328125" xlink:href="#DejaVuSans-97"/>
     <use x="197.607422" xlink:href="#DejaVuSans-114"/>
     <use x="238.689453" xlink:href="#DejaVuSans-101"/>
     <use x="300.212891" xlink:href="#DejaVuSans-115"/>
     <use x="352.3125" xlink:href="#DejaVuSans-116"/>
     <use x="391.521484" xlink:href="#DejaVuSans-78"/>
     <use x="466.326172" xlink:href="#DejaVuSans-101"/>
     <use x="527.849609" xlink:href="#DejaVuSans-105"/>
     <use x="555.632812" xlink:href="#DejaVuSans-103"/>
     <use x="619.109375" xlink:href="#DejaVuSans-104"/>
     <use x="682.488281" xlink:href="#DejaVuSans-98"/>
     <use x="745.964844" xlink:href="#DejaVuSans-111"/>
     <use x="807.146484" xlink:href="#DejaVuSans-117"/>
     <use x="870.525391" xlink:href="#DejaVuSans-114"/>
     <use x="911.638672" xlink:href="#DejaVuSans-115"/>
    </g>
   </g>
   <g id="legend_1">
    <g id="patch_7">
     <path d="M 362.264063 112.514375 
L 543.8 112.514375 
Q 545.8 112.514375 545.8 110.514375 
L 545.8 67.48 
Q 545.8 65.48 543.8 65.48 
L 362.264063 65.48 
Q 360.264063 65.48 360.264063 67.48 
L 360.264063 110.514375 
Q 360.264063 112.514375 362.264063 112.514375 
z
" style="fill:#ffffff;opacity:0.8;stroke:#cccccc;stroke-linejoin:miter;"/>
    </g>
    <g id="line2d_48">
     <path d="M 364.264063 73.578438 
L 384.264063 73.578438 
" style="fill:none;stroke:#1f77b4;stroke-linecap:square;stroke-width:2;"/>
    </g>
    <g id="line2d_49"/>
    <g id="text_26">
     <!-- root-cvsift AP: 22.0, %In: 10.6 -->
     <defs>
      <path d="M 2.984375 54.6875 
L 12.5 54.6875 
L 29.59375 8.796875 
L 46.6875 54.6875 
L 56.203125 54.6875 
L 35.6875 0 
L 23.484375 0 
z
" id="DejaVuSans-118"/>
      <path d="M 37.109375 75.984375 
L 37.109375 68.5 
L 28.515625 68.5 
Q 23.6875 68.5 21.796875 66.546875 
Q 19.921875 64.59375 19.921875 59.515625 
L 19.921875 54.6875 
L 34.71875 54.6875 
L 34.71875 47.703125 
L 19.921875 47.703125 
L 19.921875 0 
L 10.890625 0 
L 10.890625 47.703125 
L 2.296875 47.703125 
L 2.296875 54.6875 
L 10.890625 54.6875 
L 10.890625 58.5 
Q 10.890625 67.625 15.140625 71.796875 
Q 19.390625 75.984375 28.609375 75.984375 
z
" id="DejaVuSans-102"/>
      <path d="M 34.1875 63.1875 
L 20.796875 26.90625 
L 47.609375 26.90625 
z
M 28.609375 72.90625 
L 39.796875 72.90625 
L 67.578125 0 
L 57.328125 0 
L 50.6875 18.703125 
L 17.828125 18.703125 
L 11.1875 0 
L 0.78125 0 
z
" id="DejaVuSans-65"/>
      <path d="M 19.671875 64.796875 
L 19.671875 37.40625 
L 32.078125 37.40625 
Q 38.96875 37.40625 42.71875 40.96875 
Q 46.484375 44.53125 46.484375 51.125 
Q 46.484375 57.671875 42.71875 61.234375 
Q 38.96875 64.796875 32.078125 64.796875 
z
M 9.8125 72.90625 
L 32.078125 72.90625 
Q 44.34375 72.90625 50.609375 67.359375 
Q 56.890625 61.8125 56.890625 51.125 
Q 56.890625 40.328125 50.609375 34.8125 
Q 44.34375 29.296875 32.078125 29.296875 
L 19.671875 29.296875 
L 19.671875 0 
L 9.8125 0 
z
" id="DejaVuSans-80"/>
      <path d="M 11.71875 12.40625 
L 22.015625 12.40625 
L 22.015625 4 
L 14.015625 -11.625 
L 7.71875 -11.625 
L 11.71875 4 
z
" id="DejaVuSans-44"/>
      <path d="M 72.703125 32.078125 
Q 68.453125 32.078125 66.03125 28.46875 
Q 63.625 24.859375 63.625 18.40625 
Q 63.625 12.0625 66.03125 8.421875 
Q 68.453125 4.78125 72.703125 4.78125 
Q 76.859375 4.78125 79.265625 8.421875 
Q 81.6875 12.0625 81.6875 18.40625 
Q 81.6875 24.8125 79.265625 28.4375 
Q 76.859375 32.078125 72.703125 32.078125 
z
M 72.703125 38.28125 
Q 80.421875 38.28125 84.953125 32.90625 
Q 89.5 27.546875 89.5 18.40625 
Q 89.5 9.28125 84.9375 3.921875 
Q 80.375 -1.421875 72.703125 -1.421875 
Q 64.890625 -1.421875 60.34375 3.921875 
Q 55.8125 9.28125 55.8125 18.40625 
Q 55.8125 27.59375 60.375 32.9375 
Q 64.9375 38.28125 72.703125 38.28125 
z
M 22.3125 68.015625 
Q 18.109375 68.015625 15.6875 64.375 
Q 13.28125 60.75 13.28125 54.390625 
Q 13.28125 47.953125 15.671875 44.328125 
Q 18.0625 40.71875 22.3125 40.71875 
Q 26.5625 40.71875 28.96875 44.328125 
Q 31.390625 47.953125 31.390625 54.390625 
Q 31.390625 60.6875 28.953125 64.34375 
Q 26.515625 68.015625 22.3125 68.015625 
z
M 66.40625 74.21875 
L 74.21875 74.21875 
L 28.609375 -1.421875 
L 20.796875 -1.421875 
z
M 22.3125 74.21875 
Q 30.03125 74.21875 34.609375 68.875 
Q 39.203125 63.53125 39.203125 54.390625 
Q 39.203125 45.171875 34.640625 39.84375 
Q 30.078125 34.515625 22.3125 34.515625 
Q 14.546875 34.515625 10.03125 39.859375 
Q 5.515625 45.21875 5.515625 54.390625 
Q 5.515625 63.484375 10.046875 68.84375 
Q 14.59375 74.21875 22.3125 74.21875 
z
" id="DejaVuSans-37"/>
      <path d="M 9.8125 72.90625 
L 19.671875 72.90625 
L 19.671875 0 
L 9.8125 0 
z
" id="DejaVuSans-73"/>
     </defs>
     <g transform="translate(392.264063 77.078438)scale(0.1 -0.1)">
      <use xlink:href="#DejaVuSans-114"/>
      <use x="41.082031" xlink:href="#DejaVuSans-111"/>
      <use x="102.263672" xlink:href="#DejaVuSans-111"/>
      <use x="163.445312" xlink:href="#DejaVuSans-116"/>
      <use x="202.654297" xlink:href="#DejaVuSans-45"/>
      <use x="238.738281" xlink:href="#DejaVuSans-99"/>
      <use x="293.71875" xlink:href="#DejaVuSans-118"/>
      <use x="352.898438" xlink:href="#DejaVuSans-115"/>
      <use x="404.998047" xlink:href="#DejaVuSans-105"/>
      <use x="432.78125" xlink:href="#DejaVuSans-102"/>
      <use x="467.970703" xlink:href="#DejaVuSans-116"/>
      <use x="507.179688" xlink:href="#DejaVuSans-32"/>
      <use x="538.966797" xlink:href="#DejaVuSans-65"/>
      <use x="607.375" xlink:href="#DejaVuSans-80"/>
      <use x="667.677734" xlink:href="#DejaVuSans-58"/>
      <use x="701.369141" xlink:href="#DejaVuSans-32"/>
      <use x="733.15625" xlink:href="#DejaVuSans-50"/>
      <use x="796.779297" xlink:href="#DejaVuSans-50"/>
      <use x="860.402344" xlink:href="#DejaVuSans-46"/>
      <use x="892.189453" xlink:href="#DejaVuSans-48"/>
      <use x="955.8125" xlink:href="#DejaVuSans-44"/>
      <use x="987.599609" xlink:href="#DejaVuSans-32"/>
      <use x="1019.386719" xlink:href="#DejaVuSans-37"/>
      <use x="1114.40625" xlink:href="#DejaVuSans-73"/>
      <use x="1143.898438" xlink:href="#DejaVuSans-110"/>
      <use x="1207.277344" xlink:href="#DejaVuSans-58"/>
      <use x="1240.96875" xlink:href="#DejaVuSans-32"/>
      <use x="1272.755859" xlink:href="#DejaVuSans-49"/>
      <use x="1336.378906" xlink:href="#DejaVuSans-48"/>
      <use x="1400.001953" xlink:href="#DejaVuSans-46"/>
      <use x="1431.789062" xlink:href="#DejaVuSans-54"/>
     </g>
    </g>
    <g id="line2d_50">
     <path d="M 364.264063 88.256563 
L 384.264063 88.256563 
" style="fill:none;stroke:#ff7f0e;stroke-linecap:square;stroke-width:2;"/>
    </g>
    <g id="line2d_51"/>
    <g id="text_27">
     <!-- tfeat AP: 2.1, %In: 2.5 -->
     <g transform="translate(392.264063 91.756563)scale(0.1 -0.1)">
      <use xlink:href="#DejaVuSans-116"/>
      <use x="39.208984" xlink:href="#DejaVuSans-102"/>
      <use x="74.414062" xlink:href="#DejaVuSans-101"/>
      <use x="135.9375" xlink:href="#DejaVuSans-97"/>
      <use x="197.216797" xlink:href="#DejaVuSans-116"/>
      <use x="236.425781" xlink:href="#DejaVuSans-32"/>
      <use x="268.212891" xlink:href="#DejaVuSans-65"/>
      <use x="336.621094" xlink:href="#DejaVuSans-80"/>
      <use x="396.923828" xlink:href="#DejaVuSans-58"/>
      <use x="430.615234" xlink:href="#DejaVuSans-32"/>
      <use x="462.402344" xlink:href="#DejaVuSans-50"/>
      <use x="526.025391" xlink:href="#DejaVuSans-46"/>
      <use x="557.8125" xlink:href="#DejaVuSans-49"/>
      <use x="621.435547" xlink:href="#DejaVuSans-44"/>
      <use x="653.222656" xlink:href="#DejaVuSans-32"/>
      <use x="685.009766" xlink:href="#DejaVuSans-37"/>
      <use x="780.029297" xlink:href="#DejaVuSans-73"/>
      <use x="809.521484" xlink:href="#DejaVuSans-110"/>
      <use x="872.900391" xlink:href="#DejaVuSans-58"/>
      <use x="906.591797" xlink:href="#DejaVuSans-32"/>
      <use x="938.378906" xlink:href="#DejaVuSans-50"/>
      <use x="1002.001953" xlink:href="#DejaVuSans-46"/>
      <use x="1033.789062" xlink:href="#DejaVuSans-53"/>
     </g>
    </g>
    <g id="line2d_52">
     <path d="M 364.264063 102.934687 
L 384.264063 102.934687 
" style="fill:none;stroke:#2ca02c;stroke-linecap:square;stroke-width:2;"/>
    </g>
    <g id="line2d_53"/>
    <g id="text_28">
     <!-- hardnet AP: 10.6, %In: 7.8 -->
     <defs>
      <path d="M 45.40625 46.390625 
L 45.40625 75.984375 
L 54.390625 75.984375 
L 54.390625 0 
L 45.40625 0 
L 45.40625 8.203125 
Q 42.578125 3.328125 38.25 0.953125 
Q 33.9375 -1.421875 27.875 -1.421875 
Q 17.96875 -1.421875 11.734375 6.484375 
Q 5.515625 14.40625 5.515625 27.296875 
Q 5.515625 40.1875 11.734375 48.09375 
Q 17.96875 56 27.875 56 
Q 33.9375 56 38.25 53.625 
Q 42.578125 51.265625 45.40625 46.390625 
z
M 14.796875 27.296875 
Q 14.796875 17.390625 18.875 11.75 
Q 22.953125 6.109375 30.078125 6.109375 
Q 37.203125 6.109375 41.296875 11.75 
Q 45.40625 17.390625 45.40625 27.296875 
Q 45.40625 37.203125 41.296875 42.84375 
Q 37.203125 48.484375 30.078125 48.484375 
Q 22.953125 48.484375 18.875 42.84375 
Q 14.796875 37.203125 14.796875 27.296875 
z
" id="DejaVuSans-100"/>
     </defs>
     <g transform="translate(392.264063 106.434687)scale(0.1 -0.1)">
      <use xlink:href="#DejaVuSans-104"/>
      <use x="63.378906" xlink:href="#DejaVuSans-97"/>
      <use x="124.658203" xlink:href="#DejaVuSans-114"/>
      <use x="165.755859" xlink:href="#DejaVuSans-100"/>
      <use x="229.232422" xlink:href="#DejaVuSans-110"/>
      <use x="292.611328" xlink:href="#DejaVuSans-101"/>
      <use x="354.134766" xlink:href="#DejaVuSans-116"/>
      <use x="393.34375" xlink:href="#DejaVuSans-32"/>
      <use x="425.130859" xlink:href="#DejaVuSans-65"/>
      <use x="493.539062" xlink:href="#DejaVuSans-80"/>
      <use x="553.841797" xlink:href="#DejaVuSans-58"/>
      <use x="587.533203" xlink:href="#DejaVuSans-32"/>
      <use x="619.320312" xlink:href="#DejaVuSans-49"/>
      <use x="682.943359" xlink:href="#DejaVuSans-48"/>
      <use x="746.566406" xlink:href="#DejaVuSans-46"/>
      <use x="778.353516" xlink:href="#DejaVuSans-54"/>
      <use x="841.976562" xlink:href="#DejaVuSans-44"/>
      <use x="873.763672" xlink:href="#DejaVuSans-32"/>
      <use x="905.550781" xlink:href="#DejaVuSans-37"/>
      <use x="1000.570312" xlink:href="#DejaVuSans-73"/>
      <use x="1030.0625" xlink:href="#DejaVuSans-110"/>
      <use x="1093.441406" xlink:href="#DejaVuSans-58"/>
      <use x="1127.132812" xlink:href="#DejaVuSans-32"/>
      <use x="1158.919922" xlink:href="#DejaVuSans-55"/>
      <use x="1222.542969" xlink:href="#DejaVuSans-46"/>
      <use x="1254.330078" xlink:href="#DejaVuSans-56"/>
     </g>
    </g>
   </g>
  </g>
 </g>
 <defs>
  <clipPath id="p0579fc1add">
   <rect height="388.08" width="474.3" x="76.5" y="60.48"/>
  </clipPath>
 </defs>
</svg>
