<?xml version="1.0" encoding="utf-8" standalone="no"?>
<!DOCTYPE svg PUBLIC "-//W3C//DTD SVG 1.1//EN"
  "http://www.w3.org/Graphics/SVG/1.1/DTD/svg11.dtd">
<!-- Created with matplotlib (https://matplotlib.org/) -->
<svg height="504pt" version="1.1" viewBox="0 0 612 504" width="612pt" xmlns="http://www.w3.org/2000/svg" xmlns:xlink="http://www.w3.org/1999/xlink">
 <defs>
  <style type="text/css">
*{stroke-linecap:butt;stroke-linejoin:round;}
  </style>
 </defs>
 <g id="figure_1">
  <g id="patch_1">
   <path d="M 0 504 
L 612 504 
L 612 0 
L 0 0 
z
" style="fill:#ffffff;"/>
  </g>
  <g id="axes_1">
   <g id="patch_2">
    <path d="M 76.5 448.56 
L 550.8 448.56 
L 550.8 60.48 
L 76.5 60.48 
z
" style="fill:#ffffff;"/>
   </g>
   <g id="matplotlib.axis_1">
    <g id="xtick_1">
     <g id="line2d_1">
      <path clip-path="url(#pb8c6d155bb)" d="M 76.5 448.56 
L 76.5 60.48 
" style="fill:none;stroke:#b0b0b0;stroke-linecap:square;stroke-width:0.8;"/>
     </g>
     <g id="line2d_2">
      <defs>
       <path d="M 0 0 
L 0 3.5 
" id="m4e11653521" style="stroke:#000000;stroke-width:0.8;"/>
      </defs>
      <g>
       <use style="stroke:#000000;stroke-width:0.8;" x="76.5" xlink:href="#m4e11653521" y="448.56"/>
      </g>
     </g>
     <g id="text_1">
      <!-- 0.0 -->
      <defs>
       <path d="M 31.78125 66.40625 
Q 24.171875 66.40625 20.328125 58.90625 
Q 16.5 51.421875 16.5 36.375 
Q 16.5 21.390625 20.328125 13.890625 
Q 24.171875 6.390625 31.78125 6.390625 
Q 39.453125 6.390625 43.28125 13.890625 
Q 47.125 21.390625 47.125 36.375 
Q 47.125 51.421875 43.28125 58.90625 
Q 39.453125 66.40625 31.78125 66.40625 
z
M 31.78125 74.21875 
Q 44.046875 74.21875 50.515625 64.515625 
Q 56.984375 54.828125 56.984375 36.375 
Q 56.984375 17.96875 50.515625 8.265625 
Q 44.046875 -1.421875 31.78125 -1.421875 
Q 19.53125 -1.421875 13.0625 8.265625 
Q 6.59375 17.96875 6.59375 36.375 
Q 6.59375 54.828125 13.0625 64.515625 
Q 19.53125 74.21875 31.78125 74.21875 
z
" id="DejaVuSans-48"/>
       <path d="M 10.6875 12.40625 
L 21 12.40625 
L 21 0 
L 10.6875 0 
z
" id="DejaVuSans-46"/>
      </defs>
      <g transform="translate(68.548438 463.158437)scale(0.1 -0.1)">
       <use xlink:href="#DejaVuSans-48"/>
       <use x="63.623047" xlink:href="#DejaVuSans-46"/>
       <use x="95.410156" xlink:href="#DejaVuSans-48"/>
      </g>
     </g>
    </g>
    <g id="xtick_2">
     <g id="line2d_3">
      <path clip-path="url(#pb8c6d155bb)" d="M 123.93 448.56 
L 123.93 60.48 
" style="fill:none;stroke:#b0b0b0;stroke-linecap:square;stroke-width:0.8;"/>
     </g>
     <g id="line2d_4">
      <g>
       <use style="stroke:#000000;stroke-width:0.8;" x="123.93" xlink:href="#m4e11653521" y="448.56"/>
      </g>
     </g>
     <g id="text_2">
      <!-- 0.1 -->
      <defs>
       <path d="M 12.40625 8.296875 
L 28.515625 8.296875 
L 28.515625 63.921875 
L 10.984375 60.40625 
L 10.984375 69.390625 
L 28.421875 72.90625 
L 38.28125 72.90625 
L 38.28125 8.296875 
L 54.390625 8.296875 
L 54.390625 0 
L 12.40625 0 
z
" id="DejaVuSans-49"/>
      </defs>
      <g transform="translate(115.978438 463.158437)scale(0.1 -0.1)">
       <use xlink:href="#DejaVuSans-48"/>
       <use x="63.623047" xlink:href="#DejaVuSans-46"/>
       <use x="95.410156" xlink:href="#DejaVuSans-49"/>
      </g>
     </g>
    </g>
    <g id="xtick_3">
     <g id="line2d_5">
      <path clip-path="url(#pb8c6d155bb)" d="M 171.36 448.56 
L 171.36 60.48 
" style="fill:none;stroke:#b0b0b0;stroke-linecap:square;stroke-width:0.8;"/>
     </g>
     <g id="line2d_6">
      <g>
       <use style="stroke:#000000;stroke-width:0.8;" x="171.36" xlink:href="#m4e11653521" y="448.56"/>
      </g>
     </g>
     <g id="text_3">
      <!-- 0.2 -->
      <defs>
       <path d="M 19.1875 8.296875 
L 53.609375 8.296875 
L 53.609375 0 
L 7.328125 0 
L 7.328125 8.296875 
Q 12.9375 14.109375 22.625 23.890625 
Q 32.328125 33.6875 34.8125 36.53125 
Q 39.546875 41.84375 41.421875 45.53125 
Q 43.3125 49.21875 43.3125 52.78125 
Q 43.3125 58.59375 39.234375 62.25 
Q 35.15625 65.921875 28.609375 65.921875 
Q 23.96875 65.921875 18.8125 64.3125 
Q 13.671875 62.703125 7.8125 59.421875 
L 7.8125 69.390625 
Q 13.765625 71.78125 18.9375 73 
Q 24.125 74.21875 28.421875 74.21875 
Q 39.75 74.21875 46.484375 68.546875 
Q 53.21875 62.890625 53.21875 53.421875 
Q 53.21875 48.921875 51.53125 44.890625 
Q 49.859375 40.875 45.40625 35.40625 
Q 44.1875 33.984375 37.640625 27.21875 
Q 31.109375 20.453125 19.1875 8.296875 
z
" id="DejaVuSans-50"/>
      </defs>
      <g transform="translate(163.408438 463.158437)scale(0.1 -0.1)">
       <use xlink:href="#DejaVuSans-48"/>
       <use x="63.623047" xlink:href="#DejaVuSans-46"/>
       <use x="95.410156" xlink:href="#DejaVuSans-50"/>
      </g>
     </g>
    </g>
    <g id="xtick_4">
     <g id="line2d_7">
      <path clip-path="url(#pb8c6d155bb)" d="M 218.79 448.56 
L 218.79 60.48 
" style="fill:none;stroke:#b0b0b0;stroke-linecap:square;stroke-width:0.8;"/>
     </g>
     <g id="line2d_8">
      <g>
       <use style="stroke:#000000;stroke-width:0.8;" x="218.79" xlink:href="#m4e11653521" y="448.56"/>
      </g>
     </g>
     <g id="text_4">
      <!-- 0.3 -->
      <defs>
       <path d="M 40.578125 39.3125 
Q 47.65625 37.796875 51.625 33 
Q 55.609375 28.21875 55.609375 21.1875 
Q 55.609375 10.40625 48.1875 4.484375 
Q 40.765625 -1.421875 27.09375 -1.421875 
Q 22.515625 -1.421875 17.65625 -0.515625 
Q 12.796875 0.390625 7.625 2.203125 
L 7.625 11.71875 
Q 11.71875 9.328125 16.59375 8.109375 
Q 21.484375 6.890625 26.8125 6.890625 
Q 36.078125 6.890625 40.9375 10.546875 
Q 45.796875 14.203125 45.796875 21.1875 
Q 45.796875 27.640625 41.28125 31.265625 
Q 36.765625 34.90625 28.71875 34.90625 
L 20.21875 34.90625 
L 20.21875 43.015625 
L 29.109375 43.015625 
Q 36.375 43.015625 40.234375 45.921875 
Q 44.09375 48.828125 44.09375 54.296875 
Q 44.09375 59.90625 40.109375 62.90625 
Q 36.140625 65.921875 28.71875 65.921875 
Q 24.65625 65.921875 20.015625 65.03125 
Q 15.375 64.15625 9.8125 62.3125 
L 9.8125 71.09375 
Q 15.4375 72.65625 20.34375 73.4375 
Q 25.25 74.21875 29.59375 74.21875 
Q 40.828125 74.21875 47.359375 69.109375 
Q 53.90625 64.015625 53.90625 55.328125 
Q 53.90625 49.265625 50.4375 45.09375 
Q 46.96875 40.921875 40.578125 39.3125 
z
" id="DejaVuSans-51"/>
      </defs>
      <g transform="translate(210.838438 463.158437)scale(0.1 -0.1)">
       <use xlink:href="#DejaVuSans-48"/>
       <use x="63.623047" xlink:href="#DejaVuSans-46"/>
       <use x="95.410156" xlink:href="#DejaVuSans-51"/>
      </g>
     </g>
    </g>
    <g id="xtick_5">
     <g id="line2d_9">
      <path clip-path="url(#pb8c6d155bb)" d="M 266.22 448.56 
L 266.22 60.48 
" style="fill:none;stroke:#b0b0b0;stroke-linecap:square;stroke-width:0.8;"/>
     </g>
     <g id="line2d_10">
      <g>
       <use style="stroke:#000000;stroke-width:0.8;" x="266.22" xlink:href="#m4e11653521" y="448.56"/>
      </g>
     </g>
     <g id="text_5">
      <!-- 0.4 -->
      <defs>
       <path d="M 37.796875 64.3125 
L 12.890625 25.390625 
L 37.796875 25.390625 
z
M 35.203125 72.90625 
L 47.609375 72.90625 
L 47.609375 25.390625 
L 58.015625 25.390625 
L 58.015625 17.1875 
L 47.609375 17.1875 
L 47.609375 0 
L 37.796875 0 
L 37.796875 17.1875 
L 4.890625 17.1875 
L 4.890625 26.703125 
z
" id="DejaVuSans-52"/>
      </defs>
      <g transform="translate(258.268438 463.158437)scale(0.1 -0.1)">
       <use xlink:href="#DejaVuSans-48"/>
       <use x="63.623047" xlink:href="#DejaVuSans-46"/>
       <use x="95.410156" xlink:href="#DejaVuSans-52"/>
      </g>
     </g>
    </g>
    <g id="xtick_6">
     <g id="line2d_11">
      <path clip-path="url(#pb8c6d155bb)" d="M 313.65 448.56 
L 313.65 60.48 
" style="fill:none;stroke:#b0b0b0;stroke-linecap:square;stroke-width:0.8;"/>
     </g>
     <g id="line2d_12">
      <g>
       <use style="stroke:#000000;stroke-width:0.8;" x="313.65" xlink:href="#m4e11653521" y="448.56"/>
      </g>
     </g>
     <g id="text_6">
      <!-- 0.5 -->
      <defs>
       <path d="M 10.796875 72.90625 
L 49.515625 72.90625 
L 49.515625 64.59375 
L 19.828125 64.59375 
L 19.828125 46.734375 
Q 21.96875 47.46875 24.109375 47.828125 
Q 26.265625 48.1875 28.421875 48.1875 
Q 40.625 48.1875 47.75 41.5 
Q 54.890625 34.8125 54.890625 23.390625 
Q 54.890625 11.625 47.5625 5.09375 
Q 40.234375 -1.421875 26.90625 -1.421875 
Q 22.3125 -1.421875 17.546875 -0.640625 
Q 12.796875 0.140625 7.71875 1.703125 
L 7.71875 11.625 
Q 12.109375 9.234375 16.796875 8.0625 
Q 21.484375 6.890625 26.703125 6.890625 
Q 35.15625 6.890625 40.078125 11.328125 
Q 45.015625 15.765625 45.015625 23.390625 
Q 45.015625 31 40.078125 35.4375 
Q 35.15625 39.890625 26.703125 39.890625 
Q 22.75 39.890625 18.8125 39.015625 
Q 14.890625 38.140625 10.796875 36.28125 
z
" id="DejaVuSans-53"/>
      </defs>
      <g transform="translate(305.698438 463.158437)scale(0.1 -0.1)">
       <use xlink:href="#DejaVuSans-48"/>
       <use x="63.623047" xlink:href="#DejaVuSans-46"/>
       <use x="95.410156" xlink:href="#DejaVuSans-53"/>
      </g>
     </g>
    </g>
    <g id="xtick_7">
     <g id="line2d_13">
      <path clip-path="url(#pb8c6d155bb)" d="M 361.08 448.56 
L 361.08 60.48 
" style="fill:none;stroke:#b0b0b0;stroke-linecap:square;stroke-width:0.8;"/>
     </g>
     <g id="line2d_14">
      <g>
       <use style="stroke:#000000;stroke-width:0.8;" x="361.08" xlink:href="#m4e11653521" y="448.56"/>
      </g>
     </g>
     <g id="text_7">
      <!-- 0.6 -->
      <defs>
       <path d="M 33.015625 40.375 
Q 26.375 40.375 22.484375 35.828125 
Q 18.609375 31.296875 18.609375 23.390625 
Q 18.609375 15.53125 22.484375 10.953125 
Q 26.375 6.390625 33.015625 6.390625 
Q 39.65625 6.390625 43.53125 10.953125 
Q 47.40625 15.53125 47.40625 23.390625 
Q 47.40625 31.296875 43.53125 35.828125 
Q 39.65625 40.375 33.015625 40.375 
z
M 52.59375 71.296875 
L 52.59375 62.3125 
Q 48.875 64.0625 45.09375 64.984375 
Q 41.3125 65.921875 37.59375 65.921875 
Q 27.828125 65.921875 22.671875 59.328125 
Q 17.53125 52.734375 16.796875 39.40625 
Q 19.671875 43.65625 24.015625 45.921875 
Q 28.375 48.1875 33.59375 48.1875 
Q 44.578125 48.1875 50.953125 41.515625 
Q 57.328125 34.859375 57.328125 23.390625 
Q 57.328125 12.15625 50.6875 5.359375 
Q 44.046875 -1.421875 33.015625 -1.421875 
Q 20.359375 -1.421875 13.671875 8.265625 
Q 6.984375 17.96875 6.984375 36.375 
Q 6.984375 53.65625 15.1875 63.9375 
Q 23.390625 74.21875 37.203125 74.21875 
Q 40.921875 74.21875 44.703125 73.484375 
Q 48.484375 72.75 52.59375 71.296875 
z
" id="DejaVuSans-54"/>
      </defs>
      <g transform="translate(353.128438 463.158437)scale(0.1 -0.1)">
       <use xlink:href="#DejaVuSans-48"/>
       <use x="63.623047" xlink:href="#DejaVuSans-46"/>
       <use x="95.410156" xlink:href="#DejaVuSans-54"/>
      </g>
     </g>
    </g>
    <g id="xtick_8">
     <g id="line2d_15">
      <path clip-path="url(#pb8c6d155bb)" d="M 408.51 448.56 
L 408.51 60.48 
" style="fill:none;stroke:#b0b0b0;stroke-linecap:square;stroke-width:0.8;"/>
     </g>
     <g id="line2d_16">
      <g>
       <use style="stroke:#000000;stroke-width:0.8;" x="408.51" xlink:href="#m4e11653521" y="448.56"/>
      </g>
     </g>
     <g id="text_8">
      <!-- 0.7 -->
      <defs>
       <path d="M 8.203125 72.90625 
L 55.078125 72.90625 
L 55.078125 68.703125 
L 28.609375 0 
L 18.3125 0 
L 43.21875 64.59375 
L 8.203125 64.59375 
z
" id="DejaVuSans-55"/>
      </defs>
      <g transform="translate(400.558438 463.158437)scale(0.1 -0.1)">
       <use xlink:href="#DejaVuSans-48"/>
       <use x="63.623047" xlink:href="#DejaVuSans-46"/>
       <use x="95.410156" xlink:href="#DejaVuSans-55"/>
      </g>
     </g>
    </g>
    <g id="xtick_9">
     <g id="line2d_17">
      <path clip-path="url(#pb8c6d155bb)" d="M 455.94 448.56 
L 455.94 60.48 
" style="fill:none;stroke:#b0b0b0;stroke-linecap:square;stroke-width:0.8;"/>
     </g>
     <g id="line2d_18">
      <g>
       <use style="stroke:#000000;stroke-width:0.8;" x="455.94" xlink:href="#m4e11653521" y="448.56"/>
      </g>
     </g>
     <g id="text_9">
      <!-- 0.8 -->
      <defs>
       <path d="M 31.78125 34.625 
Q 24.75 34.625 20.71875 30.859375 
Q 16.703125 27.09375 16.703125 20.515625 
Q 16.703125 13.921875 20.71875 10.15625 
Q 24.75 6.390625 31.78125 6.390625 
Q 38.8125 6.390625 42.859375 10.171875 
Q 46.921875 13.96875 46.921875 20.515625 
Q 46.921875 27.09375 42.890625 30.859375 
Q 38.875 34.625 31.78125 34.625 
z
M 21.921875 38.8125 
Q 15.578125 40.375 12.03125 44.71875 
Q 8.5 49.078125 8.5 55.328125 
Q 8.5 64.0625 14.71875 69.140625 
Q 20.953125 74.21875 31.78125 74.21875 
Q 42.671875 74.21875 48.875 69.140625 
Q 55.078125 64.0625 55.078125 55.328125 
Q 55.078125 49.078125 51.53125 44.71875 
Q 48 40.375 41.703125 38.8125 
Q 48.828125 37.15625 52.796875 32.3125 
Q 56.78125 27.484375 56.78125 20.515625 
Q 56.78125 9.90625 50.3125 4.234375 
Q 43.84375 -1.421875 31.78125 -1.421875 
Q 19.734375 -1.421875 13.25 4.234375 
Q 6.78125 9.90625 6.78125 20.515625 
Q 6.78125 27.484375 10.78125 32.3125 
Q 14.796875 37.15625 21.921875 38.8125 
z
M 18.3125 54.390625 
Q 18.3125 48.734375 21.84375 45.5625 
Q 25.390625 42.390625 31.78125 42.390625 
Q 38.140625 42.390625 41.71875 45.5625 
Q 45.3125 48.734375 45.3125 54.390625 
Q 45.3125 60.0625 41.71875 63.234375 
Q 38.140625 66.40625 31.78125 66.40625 
Q 25.390625 66.40625 21.84375 63.234375 
Q 18.3125 60.0625 18.3125 54.390625 
z
" id="DejaVuSans-56"/>
      </defs>
      <g transform="translate(447.988438 463.158437)scale(0.1 -0.1)">
       <use xlink:href="#DejaVuSans-48"/>
       <use x="63.623047" xlink:href="#DejaVuSans-46"/>
       <use x="95.410156" xlink:href="#DejaVuSans-56"/>
      </g>
     </g>
    </g>
    <g id="xtick_10">
     <g id="line2d_19">
      <path clip-path="url(#pb8c6d155bb)" d="M 503.37 448.56 
L 503.37 60.48 
" style="fill:none;stroke:#b0b0b0;stroke-linecap:square;stroke-width:0.8;"/>
     </g>
     <g id="line2d_20">
      <g>
       <use style="stroke:#000000;stroke-width:0.8;" x="503.37" xlink:href="#m4e11653521" y="448.56"/>
      </g>
     </g>
     <g id="text_10">
      <!-- 0.9 -->
      <defs>
       <path d="M 10.984375 1.515625 
L 10.984375 10.5 
Q 14.703125 8.734375 18.5 7.8125 
Q 22.3125 6.890625 25.984375 6.890625 
Q 35.75 6.890625 40.890625 13.453125 
Q 46.046875 20.015625 46.78125 33.40625 
Q 43.953125 29.203125 39.59375 26.953125 
Q 35.25 24.703125 29.984375 24.703125 
Q 19.046875 24.703125 12.671875 31.3125 
Q 6.296875 37.9375 6.296875 49.421875 
Q 6.296875 60.640625 12.9375 67.421875 
Q 19.578125 74.21875 30.609375 74.21875 
Q 43.265625 74.21875 49.921875 64.515625 
Q 56.59375 54.828125 56.59375 36.375 
Q 56.59375 19.140625 48.40625 8.859375 
Q 40.234375 -1.421875 26.421875 -1.421875 
Q 22.703125 -1.421875 18.890625 -0.6875 
Q 15.09375 0.046875 10.984375 1.515625 
z
M 30.609375 32.421875 
Q 37.25 32.421875 41.125 36.953125 
Q 45.015625 41.5 45.015625 49.421875 
Q 45.015625 57.28125 41.125 61.84375 
Q 37.25 66.40625 30.609375 66.40625 
Q 23.96875 66.40625 20.09375 61.84375 
Q 16.21875 57.28125 16.21875 49.421875 
Q 16.21875 41.5 20.09375 36.953125 
Q 23.96875 32.421875 30.609375 32.421875 
z
" id="DejaVuSans-57"/>
      </defs>
      <g transform="translate(495.418438 463.158437)scale(0.1 -0.1)">
       <use xlink:href="#DejaVuSans-48"/>
       <use x="63.623047" xlink:href="#DejaVuSans-46"/>
       <use x="95.410156" xlink:href="#DejaVuSans-57"/>
      </g>
     </g>
    </g>
    <g id="xtick_11">
     <g id="line2d_21">
      <path clip-path="url(#pb8c6d155bb)" d="M 550.8 448.56 
L 550.8 60.48 
" style="fill:none;stroke:#b0b0b0;stroke-linecap:square;stroke-width:0.8;"/>
     </g>
     <g id="line2d_22">
      <g>
       <use style="stroke:#000000;stroke-width:0.8;" x="550.8" xlink:href="#m4e11653521" y="448.56"/>
      </g>
     </g>
     <g id="text_11">
      <!-- 1.0 -->
      <g transform="translate(542.848438 463.158437)scale(0.1 -0.1)">
       <use xlink:href="#DejaVuSans-49"/>
       <use x="63.623047" xlink:href="#DejaVuSans-46"/>
       <use x="95.410156" xlink:href="#DejaVuSans-48"/>
      </g>
     </g>
    </g>
    <g id="text_12">
     <!-- 1-precision -->
     <defs>
      <path d="M 4.890625 31.390625 
L 31.203125 31.390625 
L 31.203125 23.390625 
L 4.890625 23.390625 
z
" id="DejaVuSans-45"/>
      <path d="M 18.109375 8.203125 
L 18.109375 -20.796875 
L 9.078125 -20.796875 
L 9.078125 54.6875 
L 18.109375 54.6875 
L 18.109375 46.390625 
Q 20.953125 51.265625 25.265625 53.625 
Q 29.59375 56 35.59375 56 
Q 45.5625 56 51.78125 48.09375 
Q 58.015625 40.1875 58.015625 27.296875 
Q 58.015625 14.40625 51.78125 6.484375 
Q 45.5625 -1.421875 35.59375 -1.421875 
Q 29.59375 -1.421875 25.265625 0.953125 
Q 20.953125 3.328125 18.109375 8.203125 
z
M 48.6875 27.296875 
Q 48.6875 37.203125 44.609375 42.84375 
Q 40.53125 48.484375 33.40625 48.484375 
Q 26.265625 48.484375 22.1875 42.84375 
Q 18.109375 37.203125 18.109375 27.296875 
Q 18.109375 17.390625 22.1875 11.75 
Q 26.265625 6.109375 33.40625 6.109375 
Q 40.53125 6.109375 44.609375 11.75 
Q 48.6875 17.390625 48.6875 27.296875 
z
" id="DejaVuSans-112"/>
      <path d="M 41.109375 46.296875 
Q 39.59375 47.171875 37.8125 47.578125 
Q 36.03125 48 33.890625 48 
Q 26.265625 48 22.1875 43.046875 
Q 18.109375 38.09375 18.109375 28.8125 
L 18.109375 0 
L 9.078125 0 
L 9.078125 54.6875 
L 18.109375 54.6875 
L 18.109375 46.1875 
Q 20.953125 51.171875 25.484375 53.578125 
Q 30.03125 56 36.53125 56 
Q 37.453125 56 38.578125 55.875 
Q 39.703125 55.765625 41.0625 55.515625 
z
" id="DejaVuSans-114"/>
      <path d="M 56.203125 29.59375 
L 56.203125 25.203125 
L 14.890625 25.203125 
Q 15.484375 15.921875 20.484375 11.0625 
Q 25.484375 6.203125 34.421875 6.203125 
Q 39.59375 6.203125 44.453125 7.46875 
Q 49.3125 8.734375 54.109375 11.28125 
L 54.109375 2.78125 
Q 49.265625 0.734375 44.1875 -0.34375 
Q 39.109375 -1.421875 33.890625 -1.421875 
Q 20.796875 -1.421875 13.15625 6.1875 
Q 5.515625 13.8125 5.515625 26.8125 
Q 5.515625 40.234375 12.765625 48.109375 
Q 20.015625 56 32.328125 56 
Q 43.359375 56 49.78125 48.890625 
Q 56.203125 41.796875 56.203125 29.59375 
z
M 47.21875 32.234375 
Q 47.125 39.59375 43.09375 43.984375 
Q 39.0625 48.390625 32.421875 48.390625 
Q 24.90625 48.390625 20.390625 44.140625 
Q 15.875 39.890625 15.1875 32.171875 
z
" id="DejaVuSans-101"/>
      <path d="M 48.78125 52.59375 
L 48.78125 44.1875 
Q 44.96875 46.296875 41.140625 47.34375 
Q 37.3125 48.390625 33.40625 48.390625 
Q 24.65625 48.390625 19.8125 42.84375 
Q 14.984375 37.3125 14.984375 27.296875 
Q 14.984375 17.28125 19.8125 11.734375 
Q 24.65625 6.203125 33.40625 6.203125 
Q 37.3125 6.203125 41.140625 7.25 
Q 44.96875 8.296875 48.78125 10.40625 
L 48.78125 2.09375 
Q 45.015625 0.34375 40.984375 -0.53125 
Q 36.96875 -1.421875 32.421875 -1.421875 
Q 20.0625 -1.421875 12.78125 6.34375 
Q 5.515625 14.109375 5.515625 27.296875 
Q 5.515625 40.671875 12.859375 48.328125 
Q 20.21875 56 33.015625 56 
Q 37.15625 56 41.109375 55.140625 
Q 45.0625 54.296875 48.78125 52.59375 
z
" id="DejaVuSans-99"/>
      <path d="M 9.421875 54.6875 
L 18.40625 54.6875 
L 18.40625 0 
L 9.421875 0 
z
M 9.421875 75.984375 
L 18.40625 75.984375 
L 18.40625 64.59375 
L 9.421875 64.59375 
z
" id="DejaVuSans-105"/>
      <path d="M 44.28125 53.078125 
L 44.28125 44.578125 
Q 40.484375 46.53125 36.375 47.5 
Q 32.28125 48.484375 27.875 48.484375 
Q 21.1875 48.484375 17.84375 46.4375 
Q 14.5 44.390625 14.5 40.28125 
Q 14.5 37.15625 16.890625 35.375 
Q 19.28125 33.59375 26.515625 31.984375 
L 29.59375 31.296875 
Q 39.15625 29.25 43.1875 25.515625 
Q 47.21875 21.78125 47.21875 15.09375 
Q 47.21875 7.46875 41.1875 3.015625 
Q 35.15625 -1.421875 24.609375 -1.421875 
Q 20.21875 -1.421875 15.453125 -0.5625 
Q 10.6875 0.296875 5.421875 2 
L 5.421875 11.28125 
Q 10.40625 8.6875 15.234375 7.390625 
Q 20.0625 6.109375 24.8125 6.109375 
Q 31.15625 6.109375 34.5625 8.28125 
Q 37.984375 10.453125 37.984375 14.40625 
Q 37.984375 18.0625 35.515625 20.015625 
Q 33.0625 21.96875 24.703125 23.78125 
L 21.578125 24.515625 
Q 13.234375 26.265625 9.515625 29.90625 
Q 5.8125 33.546875 5.8125 39.890625 
Q 5.8125 47.609375 11.28125 51.796875 
Q 16.75 56 26.8125 56 
Q 31.78125 56 36.171875 55.265625 
Q 40.578125 54.546875 44.28125 53.078125 
z
" id="DejaVuSans-115"/>
      <path d="M 30.609375 48.390625 
Q 23.390625 48.390625 19.1875 42.75 
Q 14.984375 37.109375 14.984375 27.296875 
Q 14.984375 17.484375 19.15625 11.84375 
Q 23.34375 6.203125 30.609375 6.203125 
Q 37.796875 6.203125 41.984375 11.859375 
Q 46.1875 17.53125 46.1875 27.296875 
Q 46.1875 37.015625 41.984375 42.703125 
Q 37.796875 48.390625 30.609375 48.390625 
z
M 30.609375 56 
Q 42.328125 56 49.015625 48.375 
Q 55.71875 40.765625 55.71875 27.296875 
Q 55.71875 13.875 49.015625 6.21875 
Q 42.328125 -1.421875 30.609375 -1.421875 
Q 18.84375 -1.421875 12.171875 6.21875 
Q 5.515625 13.875 5.515625 27.296875 
Q 5.515625 40.765625 12.171875 48.375 
Q 18.84375 56 30.609375 56 
z
" id="DejaVuSans-111"/>
      <path d="M 54.890625 33.015625 
L 54.890625 0 
L 45.90625 0 
L 45.90625 32.71875 
Q 45.90625 40.484375 42.875 44.328125 
Q 39.84375 48.1875 33.796875 48.1875 
Q 26.515625 48.1875 22.3125 43.546875 
Q 18.109375 38.921875 18.109375 30.90625 
L 18.109375 0 
L 9.078125 0 
L 9.078125 54.6875 
L 18.109375 54.6875 
L 18.109375 46.1875 
Q 21.34375 51.125 25.703125 53.5625 
Q 30.078125 56 35.796875 56 
Q 45.21875 56 50.046875 50.171875 
Q 54.890625 44.34375 54.890625 33.015625 
z
" id="DejaVuSans-110"/>
     </defs>
     <g transform="translate(286 476.836563)scale(0.1 -0.1)">
      <use xlink:href="#DejaVuSans-49"/>
      <use x="63.623047" xlink:href="#DejaVuSans-45"/>
      <use x="99.707031" xlink:href="#DejaVuSans-112"/>
      <use x="163.183594" xlink:href="#DejaVuSans-114"/>
      <use x="204.265625" xlink:href="#DejaVuSans-101"/>
      <use x="265.789062" xlink:href="#DejaVuSans-99"/>
      <use x="320.769531" xlink:href="#DejaVuSans-105"/>
      <use x="348.552734" xlink:href="#DejaVuSans-115"/>
      <use x="400.652344" xlink:href="#DejaVuSans-105"/>
      <use x="428.435547" xlink:href="#DejaVuSans-111"/>
      <use x="489.617188" xlink:href="#DejaVuSans-110"/>
     </g>
    </g>
   </g>
   <g id="matplotlib.axis_2">
    <g id="ytick_1">
     <g id="line2d_23">
      <path clip-path="url(#pb8c6d155bb)" d="M 76.5 448.56 
L 550.8 448.56 
" style="fill:none;stroke:#b0b0b0;stroke-linecap:square;stroke-width:0.8;"/>
     </g>
     <g id="line2d_24">
      <defs>
       <path d="M 0 0 
L -3.5 0 
" id="m57cce27855" style="stroke:#000000;stroke-width:0.8;"/>
      </defs>
      <g>
       <use style="stroke:#000000;stroke-width:0.8;" x="76.5" xlink:href="#m57cce27855" y="448.56"/>
      </g>
     </g>
     <g id="text_13">
      <!-- 0.0 -->
      <g transform="translate(53.596875 452.359219)scale(0.1 -0.1)">
       <use xlink:href="#DejaVuSans-48"/>
       <use x="63.623047" xlink:href="#DejaVuSans-46"/>
       <use x="95.410156" xlink:href="#DejaVuSans-48"/>
      </g>
     </g>
    </g>
    <g id="ytick_2">
     <g id="line2d_25">
      <path clip-path="url(#pb8c6d155bb)" d="M 76.5 409.752 
L 550.8 409.752 
" style="fill:none;stroke:#b0b0b0;stroke-linecap:square;stroke-width:0.8;"/>
     </g>
     <g id="line2d_26">
      <g>
       <use style="stroke:#000000;stroke-width:0.8;" x="76.5" xlink:href="#m57cce27855" y="409.752"/>
      </g>
     </g>
     <g id="text_14">
      <!-- 0.1 -->
      <g transform="translate(53.596875 413.551219)scale(0.1 -0.1)">
       <use xlink:href="#DejaVuSans-48"/>
       <use x="63.623047" xlink:href="#DejaVuSans-46"/>
       <use x="95.410156" xlink:href="#DejaVuSans-49"/>
      </g>
     </g>
    </g>
    <g id="ytick_3">
     <g id="line2d_27">
      <path clip-path="url(#pb8c6d155bb)" d="M 76.5 370.944 
L 550.8 370.944 
" style="fill:none;stroke:#b0b0b0;stroke-linecap:square;stroke-width:0.8;"/>
     </g>
     <g id="line2d_28">
      <g>
       <use style="stroke:#000000;stroke-width:0.8;" x="76.5" xlink:href="#m57cce27855" y="370.944"/>
      </g>
     </g>
     <g id="text_15">
      <!-- 0.2 -->
      <g transform="translate(53.596875 374.743219)scale(0.1 -0.1)">
       <use xlink:href="#DejaVuSans-48"/>
       <use x="63.623047" xlink:href="#DejaVuSans-46"/>
       <use x="95.410156" xlink:href="#DejaVuSans-50"/>
      </g>
     </g>
    </g>
    <g id="ytick_4">
     <g id="line2d_29">
      <path clip-path="url(#pb8c6d155bb)" d="M 76.5 332.136 
L 550.8 332.136 
" style="fill:none;stroke:#b0b0b0;stroke-linecap:square;stroke-width:0.8;"/>
     </g>
     <g id="line2d_30">
      <g>
       <use style="stroke:#000000;stroke-width:0.8;" x="76.5" xlink:href="#m57cce27855" y="332.136"/>
      </g>
     </g>
     <g id="text_16">
      <!-- 0.3 -->
      <g transform="translate(53.596875 335.935219)scale(0.1 -0.1)">
       <use xlink:href="#DejaVuSans-48"/>
       <use x="63.623047" xlink:href="#DejaVuSans-46"/>
       <use x="95.410156" xlink:href="#DejaVuSans-51"/>
      </g>
     </g>
    </g>
    <g id="ytick_5">
     <g id="line2d_31">
      <path clip-path="url(#pb8c6d155bb)" d="M 76.5 293.328 
L 550.8 293.328 
" style="fill:none;stroke:#b0b0b0;stroke-linecap:square;stroke-width:0.8;"/>
     </g>
     <g id="line2d_32">
      <g>
       <use style="stroke:#000000;stroke-width:0.8;" x="76.5" xlink:href="#m57cce27855" y="293.328"/>
      </g>
     </g>
     <g id="text_17">
      <!-- 0.4 -->
      <g transform="translate(53.596875 297.127219)scale(0.1 -0.1)">
       <use xlink:href="#DejaVuSans-48"/>
       <use x="63.623047" xlink:href="#DejaVuSans-46"/>
       <use x="95.410156" xlink:href="#DejaVuSans-52"/>
      </g>
     </g>
    </g>
    <g id="ytick_6">
     <g id="line2d_33">
      <path clip-path="url(#pb8c6d155bb)" d="M 76.5 254.52 
L 550.8 254.52 
" style="fill:none;stroke:#b0b0b0;stroke-linecap:square;stroke-width:0.8;"/>
     </g>
     <g id="line2d_34">
      <g>
       <use style="stroke:#000000;stroke-width:0.8;" x="76.5" xlink:href="#m57cce27855" y="254.52"/>
      </g>
     </g>
     <g id="text_18">
      <!-- 0.5 -->
      <g transform="translate(53.596875 258.319219)scale(0.1 -0.1)">
       <use xlink:href="#DejaVuSans-48"/>
       <use x="63.623047" xlink:href="#DejaVuSans-46"/>
       <use x="95.410156" xlink:href="#DejaVuSans-53"/>
      </g>
     </g>
    </g>
    <g id="ytick_7">
     <g id="line2d_35">
      <path clip-path="url(#pb8c6d155bb)" d="M 76.5 215.712 
L 550.8 215.712 
" style="fill:none;stroke:#b0b0b0;stroke-linecap:square;stroke-width:0.8;"/>
     </g>
     <g id="line2d_36">
      <g>
       <use style="stroke:#000000;stroke-width:0.8;" x="76.5" xlink:href="#m57cce27855" y="215.712"/>
      </g>
     </g>
     <g id="text_19">
      <!-- 0.6 -->
      <g transform="translate(53.596875 219.511219)scale(0.1 -0.1)">
       <use xlink:href="#DejaVuSans-48"/>
       <use x="63.623047" xlink:href="#DejaVuSans-46"/>
       <use x="95.410156" xlink:href="#DejaVuSans-54"/>
      </g>
     </g>
    </g>
    <g id="ytick_8">
     <g id="line2d_37">
      <path clip-path="url(#pb8c6d155bb)" d="M 76.5 176.904 
L 550.8 176.904 
" style="fill:none;stroke:#b0b0b0;stroke-linecap:square;stroke-width:0.8;"/>
     </g>
     <g id="line2d_38">
      <g>
       <use style="stroke:#000000;stroke-width:0.8;" x="76.5" xlink:href="#m57cce27855" y="176.904"/>
      </g>
     </g>
     <g id="text_20">
      <!-- 0.7 -->
      <g transform="translate(53.596875 180.703219)scale(0.1 -0.1)">
       <use xlink:href="#DejaVuSans-48"/>
       <use x="63.623047" xlink:href="#DejaVuSans-46"/>
       <use x="95.410156" xlink:href="#DejaVuSans-55"/>
      </g>
     </g>
    </g>
    <g id="ytick_9">
     <g id="line2d_39">
      <path clip-path="url(#pb8c6d155bb)" d="M 76.5 138.096 
L 550.8 138.096 
" style="fill:none;stroke:#b0b0b0;stroke-linecap:square;stroke-width:0.8;"/>
     </g>
     <g id="line2d_40">
      <g>
       <use style="stroke:#000000;stroke-width:0.8;" x="76.5" xlink:href="#m57cce27855" y="138.096"/>
      </g>
     </g>
     <g id="text_21">
      <!-- 0.8 -->
      <g transform="translate(53.596875 141.895219)scale(0.1 -0.1)">
       <use xlink:href="#DejaVuSans-48"/>
       <use x="63.623047" xlink:href="#DejaVuSans-46"/>
       <use x="95.410156" xlink:href="#DejaVuSans-56"/>
      </g>
     </g>
    </g>
    <g id="ytick_10">
     <g id="line2d_41">
      <path clip-path="url(#pb8c6d155bb)" d="M 76.5 99.288 
L 550.8 99.288 
" style="fill:none;stroke:#b0b0b0;stroke-linecap:square;stroke-width:0.8;"/>
     </g>
     <g id="line2d_42">
      <g>
       <use style="stroke:#000000;stroke-width:0.8;" x="76.5" xlink:href="#m57cce27855" y="99.288"/>
      </g>
     </g>
     <g id="text_22">
      <!-- 0.9 -->
      <g transform="translate(53.596875 103.087219)scale(0.1 -0.1)">
       <use xlink:href="#DejaVuSans-48"/>
       <use x="63.623047" xlink:href="#DejaVuSans-46"/>
       <use x="95.410156" xlink:href="#DejaVuSans-57"/>
      </g>
     </g>
    </g>
    <g id="ytick_11">
     <g id="line2d_43">
      <path clip-path="url(#pb8c6d155bb)" d="M 76.5 60.48 
L 550.8 60.48 
" style="fill:none;stroke:#b0b0b0;stroke-linecap:square;stroke-width:0.8;"/>
     </g>
     <g id="line2d_44">
      <g>
       <use style="stroke:#000000;stroke-width:0.8;" x="76.5" xlink:href="#m57cce27855" y="60.48"/>
      </g>
     </g>
     <g id="text_23">
      <!-- 1.0 -->
      <g transform="translate(53.596875 64.279219)scale(0.1 -0.1)">
       <use xlink:href="#DejaVuSans-49"/>
       <use x="63.623047" xlink:href="#DejaVuSans-46"/>
       <use x="95.410156" xlink:href="#DejaVuSans-48"/>
      </g>
     </g>
    </g>
    <g id="text_24">
     <!-- #correct/971 -->
     <defs>
      <path d="M 51.125 44 
L 36.921875 44 
L 32.8125 27.6875 
L 47.125 27.6875 
z
M 43.796875 71.78125 
L 38.71875 51.515625 
L 52.984375 51.515625 
L 58.109375 71.78125 
L 65.921875 71.78125 
L 60.890625 51.515625 
L 76.125 51.515625 
L 76.125 44 
L 58.984375 44 
L 54.984375 27.6875 
L 70.515625 27.6875 
L 70.515625 20.21875 
L 53.078125 20.21875 
L 48 0 
L 40.1875 0 
L 45.21875 20.21875 
L 30.90625 20.21875 
L 25.875 0 
L 18.015625 0 
L 23.09375 20.21875 
L 7.71875 20.21875 
L 7.71875 27.6875 
L 24.90625 27.6875 
L 29 44 
L 13.28125 44 
L 13.28125 51.515625 
L 30.90625 51.515625 
L 35.890625 71.78125 
z
" id="DejaVuSans-35"/>
      <path d="M 18.3125 70.21875 
L 18.3125 54.6875 
L 36.8125 54.6875 
L 36.8125 47.703125 
L 18.3125 47.703125 
L 18.3125 18.015625 
Q 18.3125 11.328125 20.140625 9.421875 
Q 21.96875 7.515625 27.59375 7.515625 
L 36.8125 7.515625 
L 36.8125 0 
L 27.59375 0 
Q 17.1875 0 13.234375 3.875 
Q 9.28125 7.765625 9.28125 18.015625 
L 9.28125 47.703125 
L 2.6875 47.703125 
L 2.6875 54.6875 
L 9.28125 54.6875 
L 9.28125 70.21875 
z
" id="DejaVuSans-116"/>
      <path d="M 25.390625 72.90625 
L 33.6875 72.90625 
L 8.296875 -9.28125 
L 0 -9.28125 
z
" id="DejaVuSans-47"/>
     </defs>
     <g transform="translate(47.517187 287.641094)rotate(-90)scale(0.1 -0.1)">
      <use xlink:href="#DejaVuSans-35"/>
      <use x="83.789062" xlink:href="#DejaVuSans-99"/>
      <use x="138.769531" xlink:href="#DejaVuSans-111"/>
      <use x="199.951172" xlink:href="#DejaVuSans-114"/>
      <use x="241.048828" xlink:href="#DejaVuSans-114"/>
      <use x="282.130859" xlink:href="#DejaVuSans-101"/>
      <use x="343.654297" xlink:href="#DejaVuSans-99"/>
      <use x="398.634766" xlink:href="#DejaVuSans-116"/>
      <use x="437.84375" xlink:href="#DejaVuSans-47"/>
      <use x="471.535156" xlink:href="#DejaVuSans-57"/>
      <use x="535.158203" xlink:href="#DejaVuSans-55"/>
      <use x="598.78125" xlink:href="#DejaVuSans-49"/>
     </g>
    </g>
   </g>
   <g id="line2d_45">
    <path clip-path="url(#pb8c6d155bb)" d="M 76.5 448.16033 
L 76.5 407.393944 
L 81.060577 407.393944 
L 80.772973 404.596251 
L 84.969643 404.596251 
L 84.028571 399.000865 
L 83.632331 396.203172 
L 87.118657 396.203172 
L 86.9625 395.403831 
L 90.348175 395.403831 
L 89.148 390.208115 
L 88.74 388.209763 
L 94.626115 388.209763 
L 93.24 383.014047 
L 92.48764 379.816684 
L 95.048045 379.816684 
L 93.613918 373.821627 
L 93.1005 371.423605 
L 95.377612 371.423605 
L 95.191626 370.624264 
L 99.636585 370.624264 
L 99.524272 370.224593 
L 101.704348 370.224593 
L 101.583173 369.824923 
L 103.732536 369.824923 
L 103.602857 369.425252 
L 105.722275 369.425252 
L 105.447887 368.625911 
L 107.528972 368.625911 
L 107.241667 367.826571 
L 109.285714 367.826571 
L 108.986301 367.02723 
L 110.994545 367.02723 
L 109.069957 361.831514 
L 110.957692 361.831514 
L 110.811064 361.431843 
L 112.675424 361.431843 
L 112.0725 359.833162 
L 113.892946 359.833162 
L 113.585185 359.033821 
L 115.377049 359.033821 
L 114.75 357.435139 
L 119.961753 357.435139 
L 119.448425 356.236128 
L 121.14 356.236128 
L 120.62093 355.037116 
L 123.93 355.037116 
L 122.86015 352.639094 
L 127.632714 352.639094 
L 127.443333 352.239423 
L 129.005535 352.239423 
L 127.683453 349.44173 
L 129.2 349.44173 
L 128.824911 348.642389 
L 134.747368 348.642389 
L 134.543706 348.242719 
L 137.434375 348.242719 
L 137.014138 347.443378 
L 141.250853 347.443378 
L 140.594595 346.244367 
L 141.975758 346.244367 
L 141.75604 345.844696 
L 145.83289 345.844696 
L 145.603311 345.445026 
L 146.940594 345.445026 
L 146.708882 345.045355 
L 148.03377 345.045355 
L 147.337013 343.846344 
L 149.94 343.846344 
L 149.703859 343.446674 
L 152.266773 343.446674 
L 151.547468 342.247662 
L 152.80694 342.247662 
L 152.566981 341.847992 
L 161.144308 341.847992 
L 160.884663 341.448321 
L 164.440122 341.448321 
L 164.173636 341.048651 
L 172.204451 341.048651 
L 171.639823 340.24931 
L 174.965789 340.24931 
L 174.678717 339.84964 
L 175.772093 339.84964 
L 175.198266 339.050299 
L 176.280692 339.050299 
L 175.993966 338.650628 
L 177.067908 338.650628 
L 176.780571 338.250958 
L 178.905682 338.250958 
L 178.615581 337.851287 
L 184.835933 337.851287 
L 184.535 337.451617 
L 187.561983 337.451617 
L 187.256868 337.051946 
L 188.252877 337.051946 
L 187.643869 336.252606 
L 189.612195 336.252606 
L 188.7 335.053594 
L 191.5968 335.053594 
L 191.290691 334.653924 
L 192.244297 334.653924 
L 191.938095 334.254253 
L 193.826842 334.254253 
L 193.518898 333.854583 
L 196.310156 333.854583 
L 195.689378 333.055242 
L 198.428021 333.055242 
L 198.115385 332.655572 
L 199.017391 332.655572 
L 198.704847 332.255901 
L 205.74675 332.255901 
L 205.424439 331.856231 
L 207.138462 331.856231 
L 206.815099 331.45656 
L 207.664444 331.45656 
L 207.341379 331.05689 
L 208.185258 331.05689 
L 207.8625 330.657219 
L 209.535366 330.657219 
L 209.211679 330.257549 
L 214.932057 330.257549 
L 214.601671 329.857878 
L 231.373469 329.857878 
L 231.023077 329.458208 
L 232.463514 329.458208 
L 232.113034 329.058538 
L 232.827578 329.058538 
L 231.438 327.459856 
L 234.251762 327.459856 
L 233.216193 326.260844 
L 237.331749 326.260844 
L 236.985129 325.861174 
L 239.667308 325.861174 
L 239.319403 325.461504 
L 243.253895 325.461504 
L 242.903571 325.061833 
L 254.12247 325.061833 
L 253.763636 324.662163 
L 257.320958 324.662163 
L 256.960757 324.262492 
L 261.001768 324.262492 
L 260.64 323.862822 
L 261.773438 323.862822 
L 261.412281 323.463151 
L 261.975292 323.463151 
L 261.256395 322.663811 
L 268.371834 322.663811 
L 268.009811 322.26414 
L 268.542373 322.26414 
L 268.181391 321.86447 
L 273.395756 321.86447 
L 273.033149 321.464799 
L 275.567518 321.464799 
L 275.204918 321.065129 
L 276.205263 321.065129 
L 275.843478 320.665458 
L 276.340687 320.665458 
L 275.620541 319.866117 
L 277.1 319.866117 
L 276.741145 319.466447 
L 277.718182 319.466447 
L 276.293628 317.867765 
L 277.261905 317.867765 
L 276.556239 317.068424 
L 277.99458 317.068424 
L 277.292509 316.269083 
L 279.654404 316.269083 
L 279.304138 315.869413 
L 282.541738 315.869413 
L 281.842105 315.070072 
L 282.297966 315.070072 
L 281.949746 314.670402 
L 285.096823 314.670402 
L 284.748581 314.270731 
L 286.950993 314.270731 
L 286.60314 313.871061 
L 287.039109 313.871061 
L 286.692257 313.47139 
L 288.421277 313.47139 
L 288.075 313.07172 
L 288.503589 313.07172 
L 288.158306 312.672049 
L 294.013376 312.672049 
L 293.667568 312.272379 
L 295.292417 312.272379 
L 294.603307 311.473038 
L 300.9 311.473038 
L 300.555828 311.073368 
L 300.939051 311.073368 
L 300.25374 310.274027 
L 300.635671 310.274027 
L 300.294521 309.874356 
L 300.675228 309.874356 
L 300.335053 309.474686 
L 300.714545 309.474686 
L 300.37534 309.075015 
L 303.739254 309.075015 
L 303.400596 308.675345 
L 308.102632 308.675345 
L 307.764526 308.275675 
L 309.525652 308.275675 
L 309.188423 307.876004 
L 311.268293 307.876004 
L 310.931948 307.476334 
L 311.275107 307.476334 
L 310.939714 307.076663 
L 314.982303 307.076663 
L 314.314286 306.277322 
L 320.129508 306.277322 
L 319.797135 305.877652 
L 321.982297 305.877652 
L 321.651012 305.477981 
L 327.966142 305.477981 
L 327.636566 305.078311 
L 334.442058 305.078311 
L 333.788213 304.27897 
L 336.504255 304.27897 
L 336.17925 303.8793 
L 338.566873 303.8793 
L 338.243333 303.479629 
L 338.766872 303.479629 
L 338.122482 302.680288 
L 339.162469 302.680288 
L 338.841758 302.280618 
L 340.383273 302.280618 
L 340.063801 301.880947 
L 344.313523 301.880947 
L 343.996209 301.481277 
L 347.843721 301.481277 
L 347.528571 301.081607 
L 349.631379 301.081607 
L 349.317796 300.681936 
L 351.378409 300.681936 
L 351.066402 300.282266 
L 357.005617 300.282266 
L 356.69703 299.882595 
L 357.335526 299.882595 
L 357.02793 299.482925 
L 358.502283 299.482925 
L 358.196091 299.083254 
L 359.854682 299.083254 
L 359.55 298.683584 
L 363.379031 298.683584 
L 363.077053 298.283913 
L 364.059895 298.283913 
L 363.7591 297.884243 
L 367.591906 297.884243 
L 367.293961 297.484573 
L 367.481595 297.484573 
L 367.184372 297.084902 
L 369.224545 297.084902 
L 368.929162 296.685232 
L 371.284064 296.685232 
L 370.990746 296.285561 
L 371.169483 296.285561 
L 370.876862 295.885891 
L 371.942547 295.885891 
L 371.651183 295.48622 
L 372.003839 295.48622 
L 371.713274 295.08655 
L 371.889194 295.08655 
L 371.599313 294.68688 
L 374.87948 294.68688 
L 374.5923 294.287209 
L 376.105534 294.287209 
L 375.534857 293.487868 
L 375.701618 293.487868 
L 375.417205 293.088198 
L 376.081534 293.088198 
L 375.798108 292.688527 
L 377.762582 292.688527 
L 377.481028 292.288857 
L 378.126536 292.288857 
L 377.845953 291.889186 
L 379.9125 291.889186 
L 379.633884 291.489516 
L 380.727099 291.489516 
L 380.449772 291.089846 
L 380.759782 291.089846 
L 380.483182 290.690175 
L 380.637875 290.690175 
L 380.361887 290.290505 
L 381.131707 290.290505 
L 380.856769 289.890834 
L 381.620216 289.890834 
L 381.34632 289.491164 
L 386.07801 289.491164 
L 385.808108 289.091493 
L 387.092647 289.091493 
L 386.824201 288.691823 
L 388.08988 288.691823 
L 387.822879 288.292152 
L 388.240769 288.292152 
L 387.974552 287.892482 
L 390.439529 287.892482 
L 390.175714 287.492812 
L 390.310579 287.492812 
L 390.047315 287.093141 
L 390.316583 287.093141 
L 390.053975 286.693471 
L 390.322556 286.693471 
L 390.060601 286.2938 
L 390.861628 286.2938 
L 390.600747 285.89413 
L 391.52599 285.89413 
L 391.266282 285.494459 
L 391.397694 285.494459 
L 395.116653 285.494459 
L 394.860531 285.094789 
L 394.985783 285.094789 
L 395.980607 285.094789 
L 395.725837 284.695118 
L 395.849402 284.695118 
L 397.074308 284.695118 
L 396.82109 284.295448 
L 396.94262 284.295448 
L 400.152937 284.295448 
L 399.903012 283.895778 
L 400.019444 283.895778 
L 401.516883 283.895778 
L 401.268779 283.496107 
L 401.382838 283.496107 
L 401.837338 283.496107 
L 401.590122 283.096437 
L 401.703417 283.096437 
L 402.715385 283.096437 
L 402.469555 282.696766 
L 402.58125 282.696766 
L 402.804135 282.696766 
L 402.558978 282.297096 
L 402.67027 282.297096 
L 404.210996 282.297096 
L 403.967706 281.897425 
L 404.076632 281.897425 
L 406.748216 281.897425 
L 406.50786 281.497755 
L 406.6128 281.497755 
L 409.591026 281.497755 
L 409.35395 281.098084 
L 409.454552 281.098084 
L 410.452754 281.098084 
L 410.217078 280.698414 
L 410.31622 280.698414 
L 412.366366 280.698414 
L 412.133125 280.298744 
L 412.229355 280.298744 
L 412.517244 280.298744 
L 412.284706 279.899073 
L 412.380498 279.899073 
L 415.560405 279.899073 
L 415.331465 279.499403 
L 415.422874 279.499403 
L 415.787281 279.499403 
L 415.559112 279.099732 
L 415.65 279.099732 
L 416.192771 279.099732 
L 415.965552 278.700062 
L 416.055682 278.700062 
L 416.32535 278.700062 
L 416.0988 278.300391 
L 416.188541 278.300391 
L 416.724486 278.300391 
L 416.498873 277.900721 
L 416.587873 277.900721 
L 417.908858 277.900721 
L 417.684984 277.50105 
L 417.772215 277.50105 
L 419.152529 277.50105 
L 418.93046 277.10138 
L 419.015868 277.10138 
L 419.610638 277.10138 
L 419.389562 276.70171 
L 419.474179 276.70171 
L 421.06145 276.70171 
L 420.842403 276.302039 
L 420.924968 276.302039 
L 421.581732 276.302039 
L 421.36374 275.902369 
L 421.445455 275.902369 
L 422.337555 275.902369 
L 421.904446 275.103028 
L 421.985106 275.103028 
L 424.900183 275.103028 
L 424.687225 274.703357 
L 424.764264 274.703357 
L 425.529508 274.703357 
L 425.317718 274.303687 
L 425.393814 274.303687 
L 426.149729 274.303687 
L 425.939096 273.904016 
L 426.014269 273.904016 
L 426.239243 273.904016 
L 426.029189 273.504346 
L 426.104082 273.504346 
L 428.092735 273.504346 
L 427.885183 273.104676 
L 427.957699 273.104676 
L 429.248511 273.104676 
L 429.042707 272.705005 
L 429.113703 272.705005 
L 429.537943 272.705005 
L 429.332927 272.305335 
L 429.403424 272.305335 
L 433.224789 272.305335 
L 433.024382 271.905664 
L 433.090511 271.905664 
L 433.222546 271.905664 
L 433.02259 271.505994 
L 433.088571 271.505994 
L 435.034215 271.505994 
L 434.836784 271.106323 
L 434.900605 271.106323 
L 435.471851 271.106323 
L 435.275369 270.706653 
L 435.338567 270.706653 
L 435.653519 270.706653 
L 435.457688 270.306982 
L 435.520545 270.306982 
L 435.646053 270.306982 
L 435.450653 269.907312 
L 435.513377 269.907312 
L 436.074838 269.907312 
L 435.880368 269.507642 
L 435.942486 269.507642 
L 436.12844 269.507642 
L 435.934466 269.107971 
L 435.996388 269.107971 
L 439.940708 269.107971 
L 439.678286 268.30863 
L 440.877441 268.30863 
L 440.690293 267.90896 
L 440.803284 267.90896 
L 442.141308 267.90896 
L 441.956079 267.509289 
L 442.066245 267.509289 
L 442.231076 267.509289 
L 442.046364 267.109619 
L 442.156105 267.109619 
L 442.320302 267.109619 
L 442.136103 266.709949 
L 442.245423 266.709949 
L 443.273094 266.709949 
L 443.090438 266.310278 
L 443.197612 266.310278 
L 444.414953 266.310278 
L 444.234071 265.910608 
L 444.338752 265.910608 
L 446.790835 265.910608 
L 446.613237 265.510937 
L 446.713081 265.510937 
L 447.94517 265.510937 
L 447.76938 265.111267 
L 447.866809 265.111267 
L 450.104487 265.111267 
L 449.931761 264.711596 
L 450.024942 264.711596 
L 452.166184 264.711596 
L 451.99643 264.311926 
L 452.085643 264.311926 
L 457.078483 264.311926 
L 456.915424 263.912255 
L 456.995805 263.912255 
L 459.687069 263.912255 
L 459.527805 263.512585 
L 459.641469 263.512585 
L 464.444947 263.512585 
L 464.292453 263.112915 
L 464.394346 263.112915 
L 468.064962 263.112915 
L 467.917813 262.713244 
L 468.011149 262.713244 
L 468.750335 262.713244 
L 468.604463 262.313574 
L 468.696062 262.313574 
L 470.427709 262.313574 
L 470.284515 261.913903 
L 470.401416 261.913903 
L 471.238901 261.913903 
L 471.097163 261.514233 
L 471.211474 261.514233 
L 479.219091 261.514233 
L 479.089265 261.114562 
L 479.204667 261.114562 
L 482.228268 261.114562 
L 482.228268 261.114562 
" style="fill:none;stroke:#1f77b4;stroke-linecap:square;stroke-width:2;"/>
   </g>
   <g id="line2d_46">
    <path clip-path="url(#pb8c6d155bb)" d="M 76.5 448.16033 
L 76.5 424.180103 
L 84.15 424.180103 
L 83.579104 422.181751 
L 103.602857 422.181751 
L 103.221127 421.78208 
L 115.483562 421.78208 
L 112.984615 419.783728 
L 110.378571 417.385705 
L 108.12 414.987683 
L 112.984615 414.987683 
L 110.727835 412.58966 
L 110.378571 412.18999 
L 114.827273 412.18999 
L 114.444 411.790319 
L 118.764356 411.790319 
L 117.154286 410.191637 
L 121.245283 410.191637 
L 118.473451 407.393944 
L 122.265789 407.393944 
L 121.867826 406.994274 
L 125.565517 406.994274 
L 122.773171 404.196581 
L 129.6216 404.196581 
L 129.2 403.79691 
L 132.519685 403.79691 
L 132.082031 403.39724 
L 135.327907 403.39724 
L 134.429771 402.597899 
L 137.584091 402.597899 
L 136.672388 401.798558 
L 139.74 401.798558 
L 138.365217 400.599547 
L 144.257143 400.599547 
L 143.302817 399.800206 
L 146.152448 399.800206 
L 142.902 397.002513 
L 141.177273 395.403831 
L 143.82 395.403831 
L 142.541772 394.20482 
L 147.645 394.20482 
L 145.073494 391.806797 
L 147.502994 391.806797 
L 147.080357 391.407127 
L 149.469231 391.407127 
L 148.196512 390.208115 
L 150.523699 390.208115 
L 150.098276 389.808445 
L 152.388 389.808445 
L 150.28 387.810093 
L 154.681319 387.810093 
L 154.254098 387.410422 
L 156.409239 387.410422 
L 155.977297 387.010752 
L 160.2 387.010752 
L 159.754787 386.611081 
L 161.82381 386.611081 
L 160.930366 385.81174 
L 164.970466 385.81174 
L 162.736364 383.813388 
L 166.617 383.813388 
L 166.168657 383.413718 
L 168.072772 383.413718 
L 166.732683 382.214706 
L 168.597087 382.214706 
L 167.27512 381.015695 
L 169.101429 381.015695 
L 166.947907 379.017343 
L 168.725 379.017343 
L 167.048182 377.418661 
L 170.505405 377.418661 
L 168.434802 375.420309 
L 170.111842 375.420309 
L 168.896104 374.221298 
L 173.792308 374.221298 
L 173.378298 373.821627 
L 181.24125 373.821627 
L 180.37562 373.022286 
L 183.411885 373.022286 
L 182.97551 372.622616 
L 184.470732 372.622616 
L 184.033603 372.222945 
L 185.5125 372.222945 
L 185.074699 371.823275 
L 193.68 371.823275 
L 192.768093 371.023934 
L 195.532819 371.023934 
L 194.62069 370.224593 
L 195.980153 370.224593 
L 194.183459 368.625911 
L 198.160595 368.625911 
L 196.81875 367.4269 
L 198.115385 367.4269 
L 197.671533 367.02723 
L 200.230435 367.02723 
L 199.783755 366.627559 
L 202.3 366.627559 
L 201.850714 366.227889 
L 203.092527 366.227889 
L 202.643617 365.828218 
L 203.873852 365.828218 
L 203.425352 365.428548 
L 207.056446 365.428548 
L 206.603125 365.028877 
L 208.976897 365.028877 
L 208.521649 364.629207 
L 213.162712 364.629207 
L 212.701014 364.229537 
L 213.839394 364.229537 
L 212.920736 363.430196 
L 216.277152 363.430196 
L 215.815842 363.030525 
L 216.917763 363.030525 
L 216.457377 362.630855 
L 218.635505 362.630855 
L 217.715534 361.831514 
L 218.79 361.831514 
L 218.332476 361.431843 
L 219.398077 361.431843 
L 218.941534 361.032173 
L 221.048571 361.032173 
L 220.591139 360.632503 
L 221.632808 360.632503 
L 220.272188 359.433491 
L 224.352778 359.433491 
L 223.897846 359.033821 
L 224.900613 359.033821 
L 224.446789 358.63415 
L 225.441768 358.63415 
L 224.989058 358.23448 
L 227.933133 358.23448 
L 227.478378 357.834809 
L 230.365179 357.834809 
L 229.908605 357.435139 
L 230.857988 357.435139 
L 230.402655 357.035469 
L 231.345 357.035469 
L 230.890909 356.635798 
L 238.224069 356.635798 
L 237.762 356.236128 
L 241.299153 356.236128 
L 240.83493 355.836457 
L 243.432402 355.836457 
L 242.967409 355.436787 
L 244.672853 355.436787 
L 244.208287 355.037116 
L 245.052893 355.037116 
L 244.589835 354.637446 
L 245.428767 354.637446 
L 244.967213 354.237775 
L 245.800545 354.237775 
L 244.882927 353.438435 
L 245.70973 353.438435 
L 245.253639 353.038764 
L 246.075 353.038764 
L 245.620375 352.639094 
L 246.436364 352.639094 
L 245.532447 351.839753 
L 249.538583 351.839753 
L 248.634987 351.040412 
L 253.29563 351.040412 
L 252.842308 350.640742 
L 253.604348 350.640742 
L 253.152551 350.241071 
L 253.909924 350.241071 
L 253.011646 349.44173 
L 253.763636 349.44173 
L 253.317128 349.04206 
L 255.54825 349.04206 
L 255.101746 348.642389 
L 261.592683 348.642389 
L 261.142336 348.242719 
L 265.310072 348.242719 
L 264.858373 347.843048 
L 267.56872 347.843048 
L 266.22 346.644037 
L 271.477829 346.644037 
L 270.581379 345.844696 
L 271.863844 345.844696 
L 271.417808 345.445026 
L 273.318367 345.445026 
L 272.873077 345.045355 
L 277.206013 345.045355 
L 276.76 344.645685 
L 285.6 344.645685 
L 285.151288 344.246014 
L 291.277358 344.246014 
L 290.828033 343.846344 
L 291.370772 343.846344 
L 290.923125 343.446674 
L 291.46341 343.446674 
L 291.017427 343.047003 
L 293.155556 343.047003 
L 292.710678 342.647333 
L 296.367814 342.647333 
L 295.48125 341.847992 
L 298.532869 341.847992 
L 298.091451 341.448321 
L 298.592857 341.448321 
L 298.153069 341.048651 
L 303.538953 341.048651 
L 302.662355 340.24931 
L 303.616731 340.24931 
L 302.313958 339.050299 
L 304.667045 339.050299 
L 304.235728 338.650628 
L 306.086116 338.650628 
L 305.65618 338.250958 
L 309.719337 338.250958 
L 309.290625 337.851287 
L 319.087302 337.851287 
L 318.660211 337.451617 
L 320.685864 337.451617 
L 320.260453 337.051946 
L 321.060938 337.051946 
L 320.637088 336.652276 
L 323.39589 336.652276 
L 322.973846 336.252606 
L 324.904576 336.252606 
L 324.065372 335.453265 
L 325.208571 335.453265 
L 324.791275 335.053594 
L 326.671547 335.053594 
L 326.25598 334.653924 
L 336.914715 334.653924 
L 336.093218 333.854583 
L 337.104396 333.854583 
L 336.695925 333.454912 
L 339.347368 333.454912 
L 338.941113 333.055242 
L 339.268056 333.055242 
L 338.459538 332.255901 
L 341.041185 332.255901 
L 340.239545 331.45656 
L 340.87568 331.45656 
L 340.476923 331.05689 
L 341.109474 331.05689 
L 340.712162 330.657219 
L 343.81997 330.657219 
L 343.425111 330.257549 
L 343.730973 330.257549 
L 343.337408 329.857878 
L 345.154599 329.857878 
L 344.762974 329.458208 
L 346.253835 329.458208 
L 345.864017 329.058538 
L 349.642979 329.058538 
L 349.256091 328.658867 
L 350.391549 328.658867 
L 350.006329 328.259197 
L 351.686611 328.259197 
L 351.303343 327.859526 
L 355.652044 327.859526 
L 355.272245 327.459856 
L 355.802849 327.459856 
L 355.42439 327.060185 
L 357.260134 327.060185 
L 356.508434 326.260844 
L 358.821429 326.260844 
L 358.448481 325.861174 
L 359.207763 325.861174 
L 358.836268 325.461504 
L 362.060465 325.461504 
L 361.692 325.061833 
L 366.449434 325.061833 
L 366.085176 324.662163 
L 366.54812 324.662163 
L 366.185106 324.262492 
L 367.104732 324.262492 
L 366.743284 323.862822 
L 367.2 323.862822 
L 366.839777 323.463151 
L 367.06745 323.463151 
L 366.708282 323.063481 
L 368.510894 323.063481 
L 368.153912 322.663811 
L 368.821315 322.663811 
L 368.465693 322.26414 
L 369.348668 322.26414 
L 368.641304 321.464799 
L 372.727509 321.464799 
L 372.378184 321.065129 
L 377.288876 321.065129 
L 376.94433 320.665458 
L 377.737286 320.665458 
L 377.394191 320.265788 
L 381.444828 320.265788 
L 381.106 319.866117 
L 387.632692 319.866117 
L 387.30064 319.466447 
L 390.884656 319.466447 
L 390.229688 318.667106 
L 393.345965 318.667106 
L 393.022653 318.267436 
L 398.162488 318.267436 
L 397.845266 317.867765 
L 402.666189 317.867765 
L 402.354962 317.468095 
L 404.035472 317.468095 
L 403.726767 317.068424 
L 403.865254 317.068424 
L 404.553796 317.068424 
L 404.246629 316.668754 
L 404.383723 316.668754 
L 410.926005 316.668754 
L 410.627411 316.269083 
L 410.752453 316.269083 
L 413.207274 316.269083 
L 412.912434 315.869413 
L 413.033071 315.869413 
L 414.346274 315.869413 
L 414.053766 315.469743 
L 414.172059 315.469743 
L 416.837405 315.469743 
L 416.548983 315.070072 
L 416.662659 315.070072 
L 417.228162 315.070072 
L 416.941112 314.670402 
L 417.053788 314.670402 
L 418.721446 314.670402 
L 418.153444 313.871061 
L 418.263433 313.871061 
L 419.028277 313.871061 
L 418.746129 313.47139 
L 418.854815 313.47139 
L 419.287777 313.47139 
L 419.006803 313.07172 
L 419.114742 313.07172 
L 419.222504 313.07172 
L 418.942273 312.672049 
L 419.05 312.672049 
L 422.099282 312.672049 
L 421.823684 312.272379 
L 421.926454 312.272379 
L 427.993394 312.272379 
L 427.726707 311.872709 
L 427.820015 311.872709 
L 430.732939 311.872709 
L 430.470932 311.473038 
L 430.559867 311.473038 
L 431.616923 311.473038 
L 431.356955 311.073368 
L 431.444331 311.073368 
L 432.052402 311.073368 
L 431.53561 310.274027 
L 431.622222 310.274027 
L 433.07561 310.274027 
L 432.82 309.874356 
L 432.904513 309.874356 
L 433.49273 309.874356 
L 433.238462 309.474686 
L 433.322135 309.474686 
L 434.399154 309.474686 
L 434.146934 309.075015 
L 434.229085 309.075015 
L 441.466645 309.075015 
L 441.225743 308.675345 
L 441.298021 308.675345 
L 443.422898 308.675345 
L 443.185714 308.275675 
L 443.255233 308.275675 
L 443.324661 308.275675 
L 443.088 307.876004 
L 443.157447 307.876004 
L 445.599244 307.876004 
L 445.134676 307.076663 
L 445.201132 307.076663 
L 446.188037 307.076663 
L 445.957846 306.676993 
L 446.023086 306.676993 
L 446.542105 306.676993 
L 446.313119 306.277322 
L 446.377737 306.277322 
L 452.056842 306.277322 
L 451.837347 305.877652 
L 451.95289 305.877652 
L 455.29797 305.877652 
L 455.084442 305.477981 
L 455.19223 305.477981 
L 456.414564 305.477981 
L 456.2035 305.078311 
L 456.308491 305.078311 
L 457.191589 305.078311 
L 456.982418 304.678641 
L 457.085401 304.678641 
L 457.239452 304.678641 
L 457.030942 304.27897 
L 457.133534 304.27897 
L 459.335096 304.27897 
L 459.130699 303.8793 
L 459.22848 303.8793 
L 459.472021 303.8793 
L 459.268421 303.479629 
L 459.36564 303.479629 
L 462.733043 303.479629 
L 462.535583 303.079959 
L 462.625741 303.079959 
L 462.939847 303.079959 
L 462.743286 302.680288 
L 462.832774 302.680288 
L 463.011207 302.680288 
L 462.815307 302.280618 
L 462.904405 302.280618 
L 463.95968 302.280618 
L 463.76595 301.880947 
L 463.852897 301.880947 
L 463.982993 301.880947 
L 463.789831 301.481277 
L 463.876494 301.481277 
L 464.092399 301.481277 
L 463.89995 301.081607 
L 463.986161 301.081607 
L 466.495231 301.081607 
L 466.307463 300.681936 
L 466.429327 300.681936 
L 468.60281 300.681936 
L 468.419242 300.282266 
L 468.534783 300.282266 
L 469.597739 300.282266 
L 469.416421 299.882595 
L 469.528881 299.882595 
L 469.752871 299.882595 
L 469.572314 299.482925 
L 469.684044 299.482925 
L 469.721219 299.482925 
L 469.54109 299.083254 
L 469.652608 299.083254 
L 469.726782 299.083254 
L 469.547145 298.683584 
L 469.658349 298.683584 
L 469.732315 298.683584 
L 469.485266 297.884243 
L 470.795034 297.884243 
L 470.618694 297.484573 
L 470.726128 297.484573 
L 476.34593 297.484573 
L 476.17995 297.084902 
L 476.272761 297.084902 
L 477.934293 297.084902 
L 477.771637 296.685232 
L 477.889806 296.685232 
L 477.948747 296.685232 
L 477.786545 296.285561 
L 477.904357 296.285561 
L 478.080362 296.285561 
L 477.918825 295.885891 
L 478.035904 295.885891 
L 478.902143 295.885891 
L 478.742523 295.48622 
L 478.856673 295.48622 
L 479.309681 295.48622 
L 479.15122 295.08655 
L 479.263786 295.08655 
L 480.124331 295.08655 
L 479.967766 294.68688 
L 480.077498 294.68688 
L 488.199554 294.68688 
L 488.058465 294.287209 
L 488.165789 294.287209 
L 492.568511 294.287209 
L 492.436216 293.887539 
L 492.54735 293.887539 
L 494.217355 293.887539 
L 494.217355 293.887539 
" style="fill:none;stroke:#ff7f0e;stroke-linecap:square;stroke-width:2;"/>
   </g>
   <g id="line2d_47">
    <path clip-path="url(#pb8c6d155bb)" d="M 76.5 448.16033 
L 76.5 409.791967 
L 81.339796 409.791967 
L 80.660526 403.39724 
L 80.519492 401.798558 
L 84.471429 401.798558 
L 83.579104 395.803502 
L 83.475 395.004161 
L 86.886131 395.004161 
L 85.861184 389.009104 
L 85.621154 387.410422 
L 88.584076 387.410422 
L 87.998182 384.213059 
L 90.786145 384.213059 
L 90.287791 381.815036 
L 92.949711 381.815036 
L 92.855172 381.415366 
L 95.472 381.415366 
L 95.364205 381.015695 
L 97.937288 381.015695 
L 97.816854 380.616025 
L 100.347486 380.616025 
L 99.699457 378.617673 
L 102.137838 378.617673 
L 101.595238 377.018991 
L 103.959474 377.018991 
L 102.983756 374.221298 
L 105.245455 374.221298 
L 104.816418 373.022286 
L 107.024257 373.022286 
L 106.431553 371.423605 
L 108.578261 371.423605 
L 108.12 370.224593 
L 110.218009 370.224593 
L 109.4375 368.226241 
L 111.471429 368.226241 
L 111.311009 367.826571 
L 113.317808 367.826571 
L 112.984615 367.02723 
L 118.848214 367.02723 
L 118.473451 366.227889 
L 120.377974 366.227889 
L 120.185526 365.828218 
L 122.065939 365.828218 
L 121.867826 365.428548 
L 123.724675 365.428548 
L 123.319313 364.629207 
L 126.957447 364.629207 
L 126.321429 363.430196 
L 133.337603 363.430196 
L 132.641633 362.231184 
L 134.341463 362.231184 
L 134.107287 361.831514 
L 140.747809 361.831514 
L 140.492857 361.431843 
L 142.114625 361.431843 
L 141.856299 361.032173 
L 143.46 361.032173 
L 143.198438 360.632503 
L 144.784436 360.632503 
L 143.996538 359.433491 
L 154.661798 359.433491 
L 154.370149 359.033821 
L 158.758672 359.033821 
L 158.45625 358.63415 
L 161.320073 358.63415 
L 160.705435 357.834809 
L 163.511871 357.834809 
L 162.582918 356.635798 
L 163.959574 356.635798 
L 163.343662 355.836457 
L 166.053147 355.836457 
L 165.43125 355.037116 
L 166.764706 355.037116 
L 165.837329 353.838105 
L 167.151195 353.838105 
L 166.842857 353.438435 
L 168.144407 353.438435 
L 167.834797 353.038764 
L 171.677258 353.038764 
L 171.36 352.639094 
L 172.620598 352.639094 
L 171.986139 351.839753 
L 176.921824 351.839753 
L 175.630225 350.241071 
L 179.21465 350.241071 
L 178.888571 349.841401 
L 182.39717 349.841401 
L 182.065204 349.44173 
L 185.500621 349.44173 
L 184.827778 348.642389 
L 192.567372 348.642389 
L 191.52485 347.443378 
L 195.776627 347.443378 
L 195.424779 347.043708 
L 197.509091 347.043708 
L 197.155263 346.644037 
L 203.252586 346.644037 
L 201.812216 345.045355 
L 202.80085 345.045355 
L 202.444068 344.645685 
L 205.371429 344.645685 
L 205.011453 344.246014 
L 210.711264 344.246014 
L 209.977869 343.446674 
L 213.662432 343.446674 
L 212.925 342.647333 
L 213.830831 342.647333 
L 213.0984 341.847992 
L 213.996543 341.847992 
L 213.63183 341.448321 
L 218.045026 341.448321 
L 217.675457 341.048651 
L 219.405974 341.048651 
L 218.301031 339.84964 
L 229.080299 339.84964 
L 228.700746 339.449969 
L 231.086667 339.449969 
L 230.327027 338.650628 
L 231.1125 338.650628 
L 230.734474 338.250958 
L 231.515122 338.250958 
L 230.389104 337.051946 
L 231.933253 337.051946 
L 231.559615 336.652276 
L 236.098578 336.652276 
L 235.345755 335.852935 
L 237.562061 335.852935 
L 236.811189 335.053594 
L 238.268213 335.053594 
L 237.89375 334.653924 
L 242.180137 334.653924 
L 240.680769 333.055242 
L 246.869401 333.055242 
L 245.743612 331.856231 
L 247.081579 331.856231 
L 246.336681 331.05689 
L 247 331.05689 
L 246.629348 330.657219 
L 250.545708 330.657219 
L 249.801923 329.857878 
L 251.082766 329.857878 
L 250.712102 329.458208 
L 251.980973 329.458208 
L 251.610759 329.058538 
L 252.867857 329.058538 
L 251.763257 327.859526 
L 252.38625 327.859526 
L 250.932645 326.260844 
L 251.550928 326.260844 
L 250.474795 325.061833 
L 251.088957 325.061833 
L 250.02439 323.862822 
L 250.634483 323.862822 
L 250.281984 323.463151 
L 251.49375 323.463151 
L 251.14165 323.063481 
L 252.9396 323.063481 
L 252.587425 322.663811 
L 258.423288 322.663811 
L 258.067969 322.26414 
L 258.638596 322.26414 
L 257.931262 321.464799 
L 261.858621 321.464799 
L 261.504207 321.065129 
L 262.056298 321.065129 
L 261.702857 320.665458 
L 264.430189 320.665458 
L 264.076271 320.265788 
L 264.615226 320.265788 
L 264.262289 319.866117 
L 266.396648 319.866117 
L 266.04368 319.466447 
L 270.215934 319.466447 
L 269.157377 318.267436 
L 272.202162 318.267436 
L 271.499461 317.468095 
L 272.498748 317.468095 
L 271.8 316.668754 
L 275.722671 316.668754 
L 275.373158 316.269083 
L 275.855517 316.269083 
L 274.813589 315.070072 
L 275.293565 315.070072 
L 274.948438 314.670402 
L 278.727226 314.670402 
L 278.381538 314.270731 
L 281.147208 314.270731 
L 280.80152 313.871061 
L 282.162857 313.871061 
L 281.817785 313.47139 
L 282.717391 313.47139 
L 282.373122 313.07172 
L 283.710797 313.07172 
L 283.367164 312.672049 
L 286.00197 312.672049 
L 285.316203 311.872709 
L 290.011254 311.872709 
L 289.668539 311.473038 
L 291.33445 311.473038 
L 290.992357 311.073368 
L 291.405405 311.073368 
L 291.064286 310.673697 
L 295.919159 310.673697 
L 295.577916 310.274027 
L 297.155796 310.274027 
L 296.475809 309.474686 
L 297.257143 309.474686 
L 296.918558 309.075015 
L 298.850685 309.075015 
L 298.175873 308.275675 
L 300.078163 308.275675 
L 299.741955 307.876004 
L 300.118919 307.876004 
L 299.783658 307.476334 
L 300.534081 307.476334 
L 300.199701 307.076663 
L 302.056 307.076663 
L 301.722337 306.676993 
L 303.551101 306.676993 
L 303.218182 306.277322 
L 304.302482 306.277322 
L 303.970408 305.877652 
L 308.907 305.877652 
L 308.575464 305.477981 
L 310.631117 305.477981 
L 310.300424 305.078311 
L 312.321429 305.078311 
L 311.662709 304.27897 
L 312.660501 304.27897 
L 312.005409 303.479629 
L 318.450607 303.479629 
L 318.124528 303.079959 
L 318.437685 303.079959 
L 318.1125 302.680288 
L 321.805952 302.680288 
L 321.481902 302.280618 
L 324.766406 302.280618 
L 324.443563 301.880947 
L 326.196 301.880947 
L 325.233162 300.681936 
L 325.811538 300.681936 
L 325.492318 300.282266 
L 326.640382 300.282266 
L 326.322137 299.882595 
L 326.891878 299.882595 
L 326.257975 299.083254 
L 331.260149 299.083254 
L 330.945241 298.683584 
L 331.487423 298.683584 
L 331.173399 298.283913 
L 331.713022 298.283913 
L 331.399877 297.884243 
L 332.471429 297.884243 
L 331.847868 297.084902 
L 334.742668 297.084902 
L 334.432653 296.685232 
L 336.235714 296.685232 
L 335.926873 296.285561 
L 337.196809 296.285561 
L 336.88902 295.885891 
L 337.141274 295.885891 
L 336.834276 295.48622 
L 338.087002 295.48622 
L 337.781053 295.08655 
L 339.265505 295.08655 
L 338.960673 294.68688 
L 340.667089 294.68688 
L 340.363448 294.287209 
L 341.804795 294.287209 
L 341.502281 293.887539 
L 342.215795 293.887539 
L 341.914188 293.487868 
L 343.093002 293.487868 
L 342.792446 293.088198 
L 343.260405 293.088198 
L 342.661616 292.288857 
L 342.894955 292.288857 
L 342.596641 291.889186 
L 343.061899 291.889186 
L 342.764397 291.489516 
L 344.60542 291.489516 
L 344.309171 291.089846 
L 348.116486 291.089846 
L 347.528571 290.290505 
L 348.186408 290.290505 
L 347.893642 289.890834 
L 354.04232 289.890834 
L 353.75261 289.491164 
L 354.163125 289.491164 
L 353.874194 289.091493 
L 354.283178 289.091493 
L 353.995021 288.691823 
L 355.815416 288.691823 
L 355.528645 288.292152 
L 356.724184 288.292152 
L 356.153462 287.492812 
L 357.335526 287.492812 
L 357.051567 287.093141 
L 357.442583 287.093141 
L 356.876737 286.2938 
L 358.426573 286.2938 
L 358.14521 285.89413 
L 362.284277 285.89413 
L 362.005463 285.494459 
L 364.010039 285.494459 
L 363.732787 285.094789 
L 365.342352 285.094789 
L 365.066476 284.695118 
L 365.420591 284.695118 
L 365.145429 284.295448 
L 365.674359 284.295448 
L 365.4 283.895778 
L 366.100945 283.895778 
L 365.827479 283.496107 
L 367.386236 283.496107 
L 367.114125 283.096437 
L 368.309108 283.096437 
L 368.038162 282.696766 
L 369.552762 282.696766 
L 369.283165 282.297096 
L 369.616529 282.297096 
L 369.347615 281.897425 
L 371.323503 281.897425 
L 370.789402 281.098084 
L 377.235197 281.098084 
L 376.972775 280.698414 
L 378.625411 280.698414 
L 378.104055 279.899073 
L 378.845876 279.899073 
L 378.586352 279.499403 
L 380.919475 279.499403 
L 380.661929 279.099732 
L 380.805748 279.099732 
L 380.548733 278.700062 
L 386.381158 278.700062 
L 386.128606 278.300391 
L 386.929927 278.300391 
L 386.678363 277.900721 
L 389.937331 277.900721 
L 389.688571 277.50105 
L 389.816336 277.50105 
L 395.600917 277.50105 
L 395.357143 277.10138 
L 395.475802 277.10138 
L 397.234189 277.10138 
L 396.992308 276.70171 
L 397.108214 276.70171 
L 398.257741 276.70171 
L 398.017265 276.302039 
L 398.131367 276.302039 
L 398.472653 276.302039 
L 398.232911 275.902369 
L 398.346429 275.902369 
L 399.806927 275.902369 
L 399.4425 275.103028 
L 399.886364 275.103028 
L 399.412884 274.303687 
L 399.523628 274.303687 
L 399.744631 274.303687 
L 399.508686 273.904016 
L 399.619037 273.904016 
L 403.800638 273.904016 
L 403.568675 273.504346 
L 403.672946 273.504346 
L 408.021031 273.504346 
L 407.793338 273.104676 
L 407.891489 273.104676 
L 411.337374 273.104676 
L 411.113253 272.705005 
L 411.206689 272.705005 
L 412.318248 272.705005 
L 412.095557 272.305335 
L 412.187475 272.305335 
L 412.553933 272.305335 
L 412.331968 271.905664 
L 412.423366 271.905664 
L 415.982894 271.905664 
L 415.764717 271.505994 
L 415.851445 271.505994 
L 419.478188 271.505994 
L 419.26396 271.106323 
L 419.346067 271.106323 
L 422.937705 271.106323 
L 422.727488 270.706653 
L 422.805155 270.706653 
L 424.263129 270.706653 
L 424.054763 270.306982 
L 424.130659 270.306982 
L 426.366 270.306982 
L 426.160317 269.907312 
L 426.233549 269.907312 
L 426.671136 269.907312 
L 426.466238 269.507642 
L 426.538947 269.507642 
L 427.690846 269.507642 
L 427.487493 269.107971 
L 427.558854 269.107971 
L 430.005502 269.107971 
L 429.805102 268.708301 
L 429.873654 268.708301 
L 431.960913 268.708301 
L 431.763105 268.30863 
L 431.82931 268.30863 
L 434.734183 268.30863 
L 434.539913 267.90896 
L 434.602927 267.90896 
L 436.156364 267.90896 
L 435.964137 267.509289 
L 436.086759 267.509289 
L 437.238742 267.509289 
L 437.048177 267.109619 
L 437.168232 267.109619 
L 437.407583 267.109619 
L 437.217632 266.709949 
L 437.337066 266.709949 
L 445.988684 266.709949 
L 445.80932 266.310278 
L 445.911154 266.310278 
L 446.568289 266.310278 
L 446.390029 265.910608 
L 446.49052 265.910608 
L 452.095492 265.910608 
L 451.924533 265.510937 
L 452.014461 265.510937 
L 461.294685 265.510937 
L 461.136203 265.111267 
L 461.246853 265.111267 
L 461.796034 265.111267 
L 461.638578 264.711596 
L 461.747755 264.711596 
L 463.14311 264.711596 
L 462.987831 264.311926 
L 463.093502 264.311926 
L 471.145246 264.311926 
L 471.001529 263.912255 
L 471.1176 263.912255 
L 473.424788 263.912255 
L 473.284681 263.512585 
L 473.393973 263.512585 
L 475.619959 263.512585 
L 475.483368 263.112915 
L 475.586329 263.112915 
L 482.959309 263.112915 
L 482.959309 263.112915 
" style="fill:none;stroke:#2ca02c;stroke-linecap:square;stroke-width:2;"/>
   </g>
   <g id="patch_3">
    <path d="M 76.5 448.56 
L 76.5 60.48 
" style="fill:none;stroke:#000000;stroke-linecap:square;stroke-linejoin:miter;stroke-width:0.8;"/>
   </g>
   <g id="patch_4">
    <path d="M 550.8 448.56 
L 550.8 60.48 
" style="fill:none;stroke:#000000;stroke-linecap:square;stroke-linejoin:miter;stroke-width:0.8;"/>
   </g>
   <g id="patch_5">
    <path d="M 76.5 448.56 
L 550.8 448.56 
" style="fill:none;stroke:#000000;stroke-linecap:square;stroke-linejoin:miter;stroke-width:0.8;"/>
   </g>
   <g id="patch_6">
    <path d="M 76.5 60.48 
L 550.8 60.48 
" style="fill:none;stroke:#000000;stroke-linecap:square;stroke-linejoin:miter;stroke-width:0.8;"/>
   </g>
   <g id="text_25">
    <!-- ubc: img1-img6 -->
    <defs>
     <path d="M 8.5 21.578125 
L 8.5 54.6875 
L 17.484375 54.6875 
L 17.484375 21.921875 
Q 17.484375 14.15625 20.5 10.265625 
Q 23.53125 6.390625 29.59375 6.390625 
Q 36.859375 6.390625 41.078125 11.03125 
Q 45.3125 15.671875 45.3125 23.6875 
L 45.3125 54.6875 
L 54.296875 54.6875 
L 54.296875 0 
L 45.3125 0 
L 45.3125 8.40625 
Q 42.046875 3.421875 37.71875 1 
Q 33.40625 -1.421875 27.6875 -1.421875 
Q 18.265625 -1.421875 13.375 4.4375 
Q 8.5 10.296875 8.5 21.578125 
z
M 31.109375 56 
z
" id="DejaVuSans-117"/>
     <path d="M 48.6875 27.296875 
Q 48.6875 37.203125 44.609375 42.84375 
Q 40.53125 48.484375 33.40625 48.484375 
Q 26.265625 48.484375 22.1875 42.84375 
Q 18.109375 37.203125 18.109375 27.296875 
Q 18.109375 17.390625 22.1875 11.75 
Q 26.265625 6.109375 33.40625 6.109375 
Q 40.53125 6.109375 44.609375 11.75 
Q 48.6875 17.390625 48.6875 27.296875 
z
M 18.109375 46.390625 
Q 20.953125 51.265625 25.265625 53.625 
Q 29.59375 56 35.59375 56 
Q 45.5625 56 51.78125 48.09375 
Q 58.015625 40.1875 58.015625 27.296875 
Q 58.015625 14.40625 51.78125 6.484375 
Q 45.5625 -1.421875 35.59375 -1.421875 
Q 29.59375 -1.421875 25.265625 0.953125 
Q 20.953125 3.328125 18.109375 8.203125 
L 18.109375 0 
L 9.078125 0 
L 9.078125 75.984375 
L 18.109375 75.984375 
z
" id="DejaVuSans-98"/>
     <path d="M 11.71875 12.40625 
L 22.015625 12.40625 
L 22.015625 0 
L 11.71875 0 
z
M 11.71875 51.703125 
L 22.015625 51.703125 
L 22.015625 39.3125 
L 11.71875 39.3125 
z
" id="DejaVuSans-58"/>
     <path id="DejaVuSans-32"/>
     <path d="M 52 44.1875 
Q 55.375 50.25 60.0625 53.125 
Q 64.75 56 71.09375 56 
Q 79.640625 56 84.28125 50.015625 
Q 88.921875 44.046875 88.921875 33.015625 
L 88.921875 0 
L 79.890625 0 
L 79.890625 32.71875 
Q 79.890625 40.578125 77.09375 44.375 
Q 74.3125 48.1875 68.609375 48.1875 
Q 61.625 48.1875 57.5625 43.546875 
Q 53.515625 38.921875 53.515625 30.90625 
L 53.515625 0 
L 44.484375 0 
L 44.484375 32.71875 
Q 44.484375 40.625 41.703125 44.40625 
Q 38.921875 48.1875 33.109375 48.1875 
Q 26.21875 48.1875 22.15625 43.53125 
Q 18.109375 38.875 18.109375 30.90625 
L 18.109375 0 
L 9.078125 0 
L 9.078125 54.6875 
L 18.109375 54.6875 
L 18.109375 46.1875 
Q 21.1875 51.21875 25.484375 53.609375 
Q 29.78125 56 35.6875 56 
Q 41.65625 56 45.828125 52.96875 
Q 50 49.953125 52 44.1875 
z
" id="DejaVuSans-109"/>
     <path d="M 45.40625 27.984375 
Q 45.40625 37.75 41.375 43.109375 
Q 37.359375 48.484375 30.078125 48.484375 
Q 22.859375 48.484375 18.828125 43.109375 
Q 14.796875 37.75 14.796875 27.984375 
Q 14.796875 18.265625 18.828125 12.890625 
Q 22.859375 7.515625 30.078125 7.515625 
Q 37.359375 7.515625 41.375 12.890625 
Q 45.40625 18.265625 45.40625 27.984375 
z
M 54.390625 6.78125 
Q 54.390625 -7.171875 48.1875 -13.984375 
Q 42 -20.796875 29.203125 -20.796875 
Q 24.46875 -20.796875 20.265625 -20.09375 
Q 16.0625 -19.390625 12.109375 -17.921875 
L 12.109375 -9.1875 
Q 16.0625 -11.328125 19.921875 -12.34375 
Q 23.78125 -13.375 27.78125 -13.375 
Q 36.625 -13.375 41.015625 -8.765625 
Q 45.40625 -4.15625 45.40625 5.171875 
L 45.40625 9.625 
Q 42.625 4.78125 38.28125 2.390625 
Q 33.9375 0 27.875 0 
Q 17.828125 0 11.671875 7.65625 
Q 5.515625 15.328125 5.515625 27.984375 
Q 5.515625 40.671875 11.671875 48.328125 
Q 17.828125 56 27.875 56 
Q 33.9375 56 38.28125 53.609375 
Q 42.625 51.21875 45.40625 46.390625 
L 45.40625 54.6875 
L 54.390625 54.6875 
z
" id="DejaVuSans-103"/>
    </defs>
    <g transform="translate(266.370938 41.042625)scale(0.12 -0.12)">
     <use xlink:href="#DejaVuSans-117"/>
     <use x="63.378906" xlink:href="#DejaVuSans-98"/>
     <use x="126.855469" xlink:href="#DejaVuSans-99"/>
     <use x="181.835938" xlink:href="#DejaVuSans-58"/>
     <use x="215.527344" xlink:href="#DejaVuSans-32"/>
     <use x="247.314453" xlink:href="#DejaVuSans-105"/>
     <use x="275.097656" xlink:href="#DejaVuSans-109"/>
     <use x="372.509766" xlink:href="#DejaVuSans-103"/>
     <use x="435.986328" xlink:href="#DejaVuSans-49"/>
     <use x="499.609375" xlink:href="#DejaVuSans-45"/>
     <use x="535.693359" xlink:href="#DejaVuSans-105"/>
     <use x="563.476562" xlink:href="#DejaVuSans-109"/>
     <use x="660.888672" xlink:href="#DejaVuSans-103"/>
     <use x="724.365234" xlink:href="#DejaVuSans-54"/>
    </g>
    <!-- NearestNeighbours -->
    <defs>
     <path d="M 9.8125 72.90625 
L 23.09375 72.90625 
L 55.421875 11.921875 
L 55.421875 72.90625 
L 64.984375 72.90625 
L 64.984375 0 
L 51.703125 0 
L 19.390625 60.984375 
L 19.390625 0 
L 9.8125 0 
z
" id="DejaVuSans-78"/>
     <path d="M 34.28125 27.484375 
Q 23.390625 27.484375 19.1875 25 
Q 14.984375 22.515625 14.984375 16.5 
Q 14.984375 11.71875 18.140625 8.90625 
Q 21.296875 6.109375 26.703125 6.109375 
Q 34.1875 6.109375 38.703125 11.40625 
Q 43.21875 16.703125 43.21875 25.484375 
L 43.21875 27.484375 
z
M 52.203125 31.203125 
L 52.203125 0 
L 43.21875 0 
L 43.21875 8.296875 
Q 40.140625 3.328125 35.546875 0.953125 
Q 30.953125 -1.421875 24.3125 -1.421875 
Q 15.921875 -1.421875 10.953125 3.296875 
Q 6 8.015625 6 15.921875 
Q 6 25.140625 12.171875 29.828125 
Q 18.359375 34.515625 30.609375 34.515625 
L 43.21875 34.515625 
L 43.21875 35.40625 
Q 43.21875 41.609375 39.140625 45 
Q 35.0625 48.390625 27.6875 48.390625 
Q 23 48.390625 18.546875 47.265625 
Q 14.109375 46.140625 10.015625 43.890625 
L 10.015625 52.203125 
Q 14.9375 54.109375 19.578125 55.046875 
Q 24.21875 56 28.609375 56 
Q 40.484375 56 46.34375 49.84375 
Q 52.203125 43.703125 52.203125 31.203125 
z
" id="DejaVuSans-97"/>
     <path d="M 54.890625 33.015625 
L 54.890625 0 
L 45.90625 0 
L 45.90625 32.71875 
Q 45.90625 40.484375 42.875 44.328125 
Q 39.84375 48.1875 33.796875 48.1875 
Q 26.515625 48.1875 22.3125 43.546875 
Q 18.109375 38.921875 18.109375 30.90625 
L 18.109375 0 
L 9.078125 0 
L 9.078125 75.984375 
L 18.109375 75.984375 
L 18.109375 46.1875 
Q 21.34375 51.125 25.703125 53.5625 
Q 30.078125 56 35.796875 56 
Q 45.21875 56 50.046875 50.171875 
Q 54.890625 44.34375 54.890625 33.015625 
z
" id="DejaVuSans-104"/>
    </defs>
    <g transform="translate(255.824063 54.48)scale(0.12 -0.12)">
     <use xlink:href="#DejaVuSans-78"/>
     <use x="74.804688" xlink:href="#DejaVuSans-101"/>
     <use x="136.328125" xlink:href="#DejaVuSans-97"/>
     <use x="197.607422" xlink:href="#DejaVuSans-114"/>
     <use x="238.689453" xlink:href="#DejaVuSans-101"/>
     <use x="300.212891" xlink:href="#DejaVuSans-115"/>
     <use x="352.3125" xlink:href="#DejaVuSans-116"/>
     <use x="391.521484" xlink:href="#DejaVuSans-78"/>
     <use x="466.326172" xlink:href="#DejaVuSans-101"/>
     <use x="527.849609" xlink:href="#DejaVuSans-105"/>
     <use x="555.632812" xlink:href="#DejaVuSans-103"/>
     <use x="619.109375" xlink:href="#DejaVuSans-104"/>
     <use x="682.488281" xlink:href="#DejaVuSans-98"/>
     <use x="745.964844" xlink:href="#DejaVuSans-111"/>
     <use x="807.146484" xlink:href="#DejaVuSans-117"/>
     <use x="870.525391" xlink:href="#DejaVuSans-114"/>
     <use x="911.638672" xlink:href="#DejaVuSans-115"/>
    </g>
   </g>
   <g id="legend_1">
    <g id="patch_7">
     <path d="M 362.264063 112.514375 
L 543.8 112.514375 
Q 545.8 112.514375 545.8 110.514375 
L 545.8 67.48 
Q 545.8 65.48 543.8 65.48 
L 362.264063 65.48 
Q 360.264063 65.48 360.264063 67.48 
L 360.264063 110.514375 
Q 360.264063 112.514375 362.264063 112.514375 
z
" style="fill:#ffffff;opacity:0.8;stroke:#cccccc;stroke-linejoin:miter;"/>
    </g>
    <g id="line2d_48">
     <path d="M 364.264063 73.578438 
L 384.264063 73.578438 
" style="fill:none;stroke:#1f77b4;stroke-linecap:square;stroke-width:2;"/>
    </g>
    <g id="line2d_49"/>
    <g id="text_26">
     <!-- root-cvsift AP: 36.0, %In: 14.5 -->
     <defs>
      <path d="M 2.984375 54.6875 
L 12.5 54.6875 
L 29.59375 8.796875 
L 46.6875 54.6875 
L 56.203125 54.6875 
L 35.6875 0 
L 23.484375 0 
z
" id="DejaVuSans-118"/>
      <path d="M 37.109375 75.984375 
L 37.109375 68.5 
L 28.515625 68.5 
Q 23.6875 68.5 21.796875 66.546875 
Q 19.921875 64.59375 19.921875 59.515625 
L 19.921875 54.6875 
L 34.71875 54.6875 
L 34.71875 47.703125 
L 19.921875 47.703125 
L 19.921875 0 
L 10.890625 0 
L 10.890625 47.703125 
L 2.296875 47.703125 
L 2.296875 54.6875 
L 10.890625 54.6875 
L 10.890625 58.5 
Q 10.890625 67.625 15.140625 71.796875 
Q 19.390625 75.984375 28.609375 75.984375 
z
" id="DejaVuSans-102"/>
      <path d="M 34.1875 63.1875 
L 20.796875 26.90625 
L 47.609375 26.90625 
z
M 28.609375 72.90625 
L 39.796875 72.90625 
L 67.578125 0 
L 57.328125 0 
L 50.6875 18.703125 
L 17.828125 18.703125 
L 11.1875 0 
L 0.78125 0 
z
" id="DejaVuSans-65"/>
      <path d="M 19.671875 64.796875 
L 19.671875 37.40625 
L 32.078125 37.40625 
Q 38.96875 37.40625 42.71875 40.96875 
Q 46.484375 44.53125 46.484375 51.125 
Q 46.484375 57.671875 42.71875 61.234375 
Q 38.96875 64.796875 32.078125 64.796875 
z
M 9.8125 72.90625 
L 32.078125 72.90625 
Q 44.34375 72.90625 50.609375 67.359375 
Q 56.890625 61.8125 56.890625 51.125 
Q 56.890625 40.328125 50.609375 34.8125 
Q 44.34375 29.296875 32.078125 29.296875 
L 19.671875 29.296875 
L 19.671875 0 
L 9.8125 0 
z
" id="DejaVuSans-80"/>
      <path d="M 11.71875 12.40625 
L 22.015625 12.40625 
L 22.015625 4 
L 14.015625 -11.625 
L 7.71875 -11.625 
L 11.71875 4 
z
" id="DejaVuSans-44"/>
      <path d="M 72.703125 32.078125 
Q 68.453125 32.078125 66.03125 28.46875 
Q 63.625 24.859375 63.625 18.40625 
Q 63.625 12.0625 66.03125 8.421875 
Q 68.453125 4.78125 72.703125 4.78125 
Q 76.859375 4.78125 79.265625 8.421875 
Q 81.6875 12.0625 81.6875 18.40625 
Q 81.6875 24.8125 79.265625 28.4375 
Q 76.859375 32.078125 72.703125 32.078125 
z
M 72.703125 38.28125 
Q 80.421875 38.28125 84.953125 32.90625 
Q 89.5 27.546875 89.5 18.40625 
Q 89.5 9.28125 84.9375 3.921875 
Q 80.375 -1.421875 72.703125 -1.421875 
Q 64.890625 -1.421875 60.34375 3.921875 
Q 55.8125 9.28125 55.8125 18.40625 
Q 55.8125 27.59375 60.375 32.9375 
Q 64.9375 38.28125 72.703125 38.28125 
z
M 22.3125 68.015625 
Q 18.109375 68.015625 15.6875 64.375 
Q 13.28125 60.75 13.28125 54.390625 
Q 13.28125 47.953125 15.671875 44.328125 
Q 18.0625 40.71875 22.3125 40.71875 
Q 26.5625 40.71875 28.96875 44.328125 
Q 31.390625 47.953125 31.390625 54.390625 
Q 31.390625 60.6875 28.953125 64.34375 
Q 26.515625 68.015625 22.3125 68.015625 
z
M 66.40625 74.21875 
L 74.21875 74.21875 
L 28.609375 -1.421875 
L 20.796875 -1.421875 
z
M 22.3125 74.21875 
Q 30.03125 74.21875 34.609375 68.875 
Q 39.203125 63.53125 39.203125 54.390625 
Q 39.203125 45.171875 34.640625 39.84375 
Q 30.078125 34.515625 22.3125 34.515625 
Q 14.546875 34.515625 10.03125 39.859375 
Q 5.515625 45.21875 5.515625 54.390625 
Q 5.515625 63.484375 10.046875 68.84375 
Q 14.59375 74.21875 22.3125 74.21875 
z
" id="DejaVuSans-37"/>
      <path d="M 9.8125 72.90625 
L 19.671875 72.90625 
L 19.671875 0 
L 9.8125 0 
z
" id="DejaVuSans-73"/>
     </defs>
     <g transform="translate(392.264063 77.078438)scale(0.1 -0.1)">
      <use xlink:href="#DejaVuSans-114"/>
      <use x="41.082031" xlink:href="#DejaVuSans-111"/>
      <use x="102.263672" xlink:href="#DejaVuSans-111"/>
      <use x="163.445312" xlink:href="#DejaVuSans-116"/>
      <use x="202.654297" xlink:href="#DejaVuSans-45"/>
      <use x="238.738281" xlink:href="#DejaVuSans-99"/>
      <use x="293.71875" xlink:href="#DejaVuSans-118"/>
      <use x="352.898438" xlink:href="#DejaVuSans-115"/>
      <use x="404.998047" xlink:href="#DejaVuSans-105"/>
      <use x="432.78125" xlink:href="#DejaVuSans-102"/>
      <use x="467.970703" xlink:href="#DejaVuSans-116"/>
      <use x="507.179688" xlink:href="#DejaVuSans-32"/>
      <use x="538.966797" xlink:href="#DejaVuSans-65"/>
      <use x="607.375" xlink:href="#DejaVuSans-80"/>
      <use x="667.677734" xlink:href="#DejaVuSans-58"/>
      <use x="701.369141" xlink:href="#DejaVuSans-32"/>
      <use x="733.15625" xlink:href="#DejaVuSans-51"/>
      <use x="796.779297" xlink:href="#DejaVuSans-54"/>
      <use x="860.402344" xlink:href="#DejaVuSans-46"/>
      <use x="892.189453" xlink:href="#DejaVuSans-48"/>
      <use x="955.8125" xlink:href="#DejaVuSans-44"/>
      <use x="987.599609" xlink:href="#DejaVuSans-32"/>
      <use x="1019.386719" xlink:href="#DejaVuSans-37"/>
      <use x="1114.40625" xlink:href="#DejaVuSans-73"/>
      <use x="1143.898438" xlink:href="#DejaVuSans-110"/>
      <use x="1207.277344" xlink:href="#DejaVuSans-58"/>
      <use x="1240.96875" xlink:href="#DejaVuSans-32"/>
      <use x="1272.755859" xlink:href="#DejaVuSans-49"/>
      <use x="1336.378906" xlink:href="#DejaVuSans-52"/>
      <use x="1400.001953" xlink:href="#DejaVuSans-46"/>
      <use x="1431.789062" xlink:href="#DejaVuSans-53"/>
     </g>
    </g>
    <g id="line2d_50">
     <path d="M 364.264063 88.256563 
L 384.264063 88.256563 
" style="fill:none;stroke:#ff7f0e;stroke-linecap:square;stroke-width:2;"/>
    </g>
    <g id="line2d_51"/>
    <g id="text_27">
     <!-- tfeat AP: 27.0, %In: 11.9 -->
     <g transform="translate(392.264063 91.756563)scale(0.1 -0.1)">
      <use xlink:href="#DejaVuSans-116"/>
      <use x="39.208984" xlink:href="#DejaVuSans-102"/>
      <use x="74.414062" xlink:href="#DejaVuSans-101"/>
      <use x="135.9375" xlink:href="#DejaVuSans-97"/>
      <use x="197.216797" xlink:href="#DejaVuSans-116"/>
      <use x="236.425781" xlink:href="#DejaVuSans-32"/>
      <use x="268.212891" xlink:href="#DejaVuSans-65"/>
      <use x="336.621094" xlink:href="#DejaVuSans-80"/>
      <use x="396.923828" xlink:href="#DejaVuSans-58"/>
      <use x="430.615234" xlink:href="#DejaVuSans-32"/>
      <use x="462.402344" xlink:href="#DejaVuSans-50"/>
      <use x="526.025391" xlink:href="#DejaVuSans-55"/>
      <use x="589.648438" xlink:href="#DejaVuSans-46"/>
      <use x="621.435547" xlink:href="#DejaVuSans-48"/>
      <use x="685.058594" xlink:href="#DejaVuSans-44"/>
      <use x="716.845703" xlink:href="#DejaVuSans-32"/>
      <use x="748.632812" xlink:href="#DejaVuSans-37"/>
      <use x="843.652344" xlink:href="#DejaVuSans-73"/>
      <use x="873.144531" xlink:href="#DejaVuSans-110"/>
      <use x="936.523438" xlink:href="#DejaVuSans-58"/>
      <use x="970.214844" xlink:href="#DejaVuSans-32"/>
      <use x="1002.001953" xlink:href="#DejaVuSans-49"/>
      <use x="1065.625" xlink:href="#DejaVuSans-49"/>
      <use x="1129.248047" xlink:href="#DejaVuSans-46"/>
      <use x="1161.035156" xlink:href="#DejaVuSans-57"/>
     </g>
    </g>
    <g id="line2d_52">
     <path d="M 364.264063 102.934687 
L 384.264063 102.934687 
" style="fill:none;stroke:#2ca02c;stroke-linecap:square;stroke-width:2;"/>
    </g>
    <g id="line2d_53"/>
    <g id="text_28">
     <!-- hardnet AP: 35.6, %In: 14.3 -->
     <defs>
      <path d="M 45.40625 46.390625 
L 45.40625 75.984375 
L 54.390625 75.984375 
L 54.390625 0 
L 45.40625 0 
L 45.40625 8.203125 
Q 42.578125 3.328125 38.25 0.953125 
Q 33.9375 -1.421875 27.875 -1.421875 
Q 17.96875 -1.421875 11.734375 6.484375 
Q 5.515625 14.40625 5.515625 27.296875 
Q 5.515625 40.1875 11.734375 48.09375 
Q 17.96875 56 27.875 56 
Q 33.9375 56 38.25 53.625 
Q 42.578125 51.265625 45.40625 46.390625 
z
M 14.796875 27.296875 
Q 14.796875 17.390625 18.875 11.75 
Q 22.953125 6.109375 30.078125 6.109375 
Q 37.203125 6.109375 41.296875 11.75 
Q 45.40625 17.390625 45.40625 27.296875 
Q 45.40625 37.203125 41.296875 42.84375 
Q 37.203125 48.484375 30.078125 48.484375 
Q 22.953125 48.484375 18.875 42.84375 
Q 14.796875 37.203125 14.796875 27.296875 
z
" id="DejaVuSans-100"/>
     </defs>
     <g transform="translate(392.264063 106.434687)scale(0.1 -0.1)">
      <use xlink:href="#DejaVuSans-104"/>
      <use x="63.378906" xlink:href="#DejaVuSans-97"/>
      <use x="124.658203" xlink:href="#DejaVuSans-114"/>
      <use x="165.755859" xlink:href="#DejaVuSans-100"/>
      <use x="229.232422" xlink:href="#DejaVuSans-110"/>
      <use x="292.611328" xlink:href="#DejaVuSans-101"/>
      <use x="354.134766" xlink:href="#DejaVuSans-116"/>
      <use x="393.34375" xlink:href="#DejaVuSans-32"/>
      <use x="425.130859" xlink:href="#DejaVuSans-65"/>
      <use x="493.539062" xlink:href="#DejaVuSans-80"/>
      <use x="553.841797" xlink:href="#DejaVuSans-58"/>
      <use x="587.533203" xlink:href="#DejaVuSans-32"/>
      <use x="619.320312" xlink:href="#DejaVuSans-51"/>
      <use x="682.943359" xlink:href="#DejaVuSans-53"/>
      <use x="746.566406" xlink:href="#DejaVuSans-46"/>
      <use x="778.353516" xlink:href="#DejaVuSans-54"/>
      <use x="841.976562" xlink:href="#DejaVuSans-44"/>
      <use x="873.763672" xlink:href="#DejaVuSans-32"/>
      <use x="905.550781" xlink:href="#DejaVuSans-37"/>
      <use x="1000.570312" xlink:href="#DejaVuSans-73"/>
      <use x="1030.0625" xlink:href="#DejaVuSans-110"/>
      <use x="1093.441406" xlink:href="#DejaVuSans-58"/>
      <use x="1127.132812" xlink:href="#DejaVuSans-32"/>
      <use x="1158.919922" xlink:href="#DejaVuSans-49"/>
      <use x="1222.542969" xlink:href="#DejaVuSans-52"/>
      <use x="1286.166016" xlink:href="#DejaVuSans-46"/>
      <use x="1317.953125" xlink:href="#DejaVuSans-51"/>
     </g>
    </g>
   </g>
  </g>
 </g>
 <defs>
  <clipPath id="pb8c6d155bb">
   <rect height="388.08" width="474.3" x="76.5" y="60.48"/>
  </clipPath>
 </defs>
</svg>
