<?xml version="1.0" encoding="utf-8" standalone="no"?>
<!DOCTYPE svg PUBLIC "-//W3C//DTD SVG 1.1//EN"
  "http://www.w3.org/Graphics/SVG/1.1/DTD/svg11.dtd">
<!-- Created with matplotlib (https://matplotlib.org/) -->
<svg height="504pt" version="1.1" viewBox="0 0 612 504" width="612pt" xmlns="http://www.w3.org/2000/svg" xmlns:xlink="http://www.w3.org/1999/xlink">
 <defs>
  <style type="text/css">
*{stroke-linecap:butt;stroke-linejoin:round;}
  </style>
 </defs>
 <g id="figure_1">
  <g id="patch_1">
   <path d="M 0 504 
L 612 504 
L 612 0 
L 0 0 
z
" style="fill:#ffffff;"/>
  </g>
  <g id="axes_1">
   <g id="patch_2">
    <path d="M 76.5 448.56 
L 550.8 448.56 
L 550.8 60.48 
L 76.5 60.48 
z
" style="fill:#ffffff;"/>
   </g>
   <g id="matplotlib.axis_1">
    <g id="xtick_1">
     <g id="line2d_1">
      <path clip-path="url(#pa5d63f9a7f)" d="M 76.5 448.56 
L 76.5 60.48 
" style="fill:none;stroke:#b0b0b0;stroke-linecap:square;stroke-width:0.8;"/>
     </g>
     <g id="line2d_2">
      <defs>
       <path d="M 0 0 
L 0 3.5 
" id="m355f496b4f" style="stroke:#000000;stroke-width:0.8;"/>
      </defs>
      <g>
       <use style="stroke:#000000;stroke-width:0.8;" x="76.5" xlink:href="#m355f496b4f" y="448.56"/>
      </g>
     </g>
     <g id="text_1">
      <!-- 0.0 -->
      <defs>
       <path d="M 31.78125 66.40625 
Q 24.171875 66.40625 20.328125 58.90625 
Q 16.5 51.421875 16.5 36.375 
Q 16.5 21.390625 20.328125 13.890625 
Q 24.171875 6.390625 31.78125 6.390625 
Q 39.453125 6.390625 43.28125 13.890625 
Q 47.125 21.390625 47.125 36.375 
Q 47.125 51.421875 43.28125 58.90625 
Q 39.453125 66.40625 31.78125 66.40625 
z
M 31.78125 74.21875 
Q 44.046875 74.21875 50.515625 64.515625 
Q 56.984375 54.828125 56.984375 36.375 
Q 56.984375 17.96875 50.515625 8.265625 
Q 44.046875 -1.421875 31.78125 -1.421875 
Q 19.53125 -1.421875 13.0625 8.265625 
Q 6.59375 17.96875 6.59375 36.375 
Q 6.59375 54.828125 13.0625 64.515625 
Q 19.53125 74.21875 31.78125 74.21875 
z
" id="DejaVuSans-48"/>
       <path d="M 10.6875 12.40625 
L 21 12.40625 
L 21 0 
L 10.6875 0 
z
" id="DejaVuSans-46"/>
      </defs>
      <g transform="translate(68.548438 463.158437)scale(0.1 -0.1)">
       <use xlink:href="#DejaVuSans-48"/>
       <use x="63.623047" xlink:href="#DejaVuSans-46"/>
       <use x="95.410156" xlink:href="#DejaVuSans-48"/>
      </g>
     </g>
    </g>
    <g id="xtick_2">
     <g id="line2d_3">
      <path clip-path="url(#pa5d63f9a7f)" d="M 123.93 448.56 
L 123.93 60.48 
" style="fill:none;stroke:#b0b0b0;stroke-linecap:square;stroke-width:0.8;"/>
     </g>
     <g id="line2d_4">
      <g>
       <use style="stroke:#000000;stroke-width:0.8;" x="123.93" xlink:href="#m355f496b4f" y="448.56"/>
      </g>
     </g>
     <g id="text_2">
      <!-- 0.1 -->
      <defs>
       <path d="M 12.40625 8.296875 
L 28.515625 8.296875 
L 28.515625 63.921875 
L 10.984375 60.40625 
L 10.984375 69.390625 
L 28.421875 72.90625 
L 38.28125 72.90625 
L 38.28125 8.296875 
L 54.390625 8.296875 
L 54.390625 0 
L 12.40625 0 
z
" id="DejaVuSans-49"/>
      </defs>
      <g transform="translate(115.978438 463.158437)scale(0.1 -0.1)">
       <use xlink:href="#DejaVuSans-48"/>
       <use x="63.623047" xlink:href="#DejaVuSans-46"/>
       <use x="95.410156" xlink:href="#DejaVuSans-49"/>
      </g>
     </g>
    </g>
    <g id="xtick_3">
     <g id="line2d_5">
      <path clip-path="url(#pa5d63f9a7f)" d="M 171.36 448.56 
L 171.36 60.48 
" style="fill:none;stroke:#b0b0b0;stroke-linecap:square;stroke-width:0.8;"/>
     </g>
     <g id="line2d_6">
      <g>
       <use style="stroke:#000000;stroke-width:0.8;" x="171.36" xlink:href="#m355f496b4f" y="448.56"/>
      </g>
     </g>
     <g id="text_3">
      <!-- 0.2 -->
      <defs>
       <path d="M 19.1875 8.296875 
L 53.609375 8.296875 
L 53.609375 0 
L 7.328125 0 
L 7.328125 8.296875 
Q 12.9375 14.109375 22.625 23.890625 
Q 32.328125 33.6875 34.8125 36.53125 
Q 39.546875 41.84375 41.421875 45.53125 
Q 43.3125 49.21875 43.3125 52.78125 
Q 43.3125 58.59375 39.234375 62.25 
Q 35.15625 65.921875 28.609375 65.921875 
Q 23.96875 65.921875 18.8125 64.3125 
Q 13.671875 62.703125 7.8125 59.421875 
L 7.8125 69.390625 
Q 13.765625 71.78125 18.9375 73 
Q 24.125 74.21875 28.421875 74.21875 
Q 39.75 74.21875 46.484375 68.546875 
Q 53.21875 62.890625 53.21875 53.421875 
Q 53.21875 48.921875 51.53125 44.890625 
Q 49.859375 40.875 45.40625 35.40625 
Q 44.1875 33.984375 37.640625 27.21875 
Q 31.109375 20.453125 19.1875 8.296875 
z
" id="DejaVuSans-50"/>
      </defs>
      <g transform="translate(163.408438 463.158437)scale(0.1 -0.1)">
       <use xlink:href="#DejaVuSans-48"/>
       <use x="63.623047" xlink:href="#DejaVuSans-46"/>
       <use x="95.410156" xlink:href="#DejaVuSans-50"/>
      </g>
     </g>
    </g>
    <g id="xtick_4">
     <g id="line2d_7">
      <path clip-path="url(#pa5d63f9a7f)" d="M 218.79 448.56 
L 218.79 60.48 
" style="fill:none;stroke:#b0b0b0;stroke-linecap:square;stroke-width:0.8;"/>
     </g>
     <g id="line2d_8">
      <g>
       <use style="stroke:#000000;stroke-width:0.8;" x="218.79" xlink:href="#m355f496b4f" y="448.56"/>
      </g>
     </g>
     <g id="text_4">
      <!-- 0.3 -->
      <defs>
       <path d="M 40.578125 39.3125 
Q 47.65625 37.796875 51.625 33 
Q 55.609375 28.21875 55.609375 21.1875 
Q 55.609375 10.40625 48.1875 4.484375 
Q 40.765625 -1.421875 27.09375 -1.421875 
Q 22.515625 -1.421875 17.65625 -0.515625 
Q 12.796875 0.390625 7.625 2.203125 
L 7.625 11.71875 
Q 11.71875 9.328125 16.59375 8.109375 
Q 21.484375 6.890625 26.8125 6.890625 
Q 36.078125 6.890625 40.9375 10.546875 
Q 45.796875 14.203125 45.796875 21.1875 
Q 45.796875 27.640625 41.28125 31.265625 
Q 36.765625 34.90625 28.71875 34.90625 
L 20.21875 34.90625 
L 20.21875 43.015625 
L 29.109375 43.015625 
Q 36.375 43.015625 40.234375 45.921875 
Q 44.09375 48.828125 44.09375 54.296875 
Q 44.09375 59.90625 40.109375 62.90625 
Q 36.140625 65.921875 28.71875 65.921875 
Q 24.65625 65.921875 20.015625 65.03125 
Q 15.375 64.15625 9.8125 62.3125 
L 9.8125 71.09375 
Q 15.4375 72.65625 20.34375 73.4375 
Q 25.25 74.21875 29.59375 74.21875 
Q 40.828125 74.21875 47.359375 69.109375 
Q 53.90625 64.015625 53.90625 55.328125 
Q 53.90625 49.265625 50.4375 45.09375 
Q 46.96875 40.921875 40.578125 39.3125 
z
" id="DejaVuSans-51"/>
      </defs>
      <g transform="translate(210.838438 463.158437)scale(0.1 -0.1)">
       <use xlink:href="#DejaVuSans-48"/>
       <use x="63.623047" xlink:href="#DejaVuSans-46"/>
       <use x="95.410156" xlink:href="#DejaVuSans-51"/>
      </g>
     </g>
    </g>
    <g id="xtick_5">
     <g id="line2d_9">
      <path clip-path="url(#pa5d63f9a7f)" d="M 266.22 448.56 
L 266.22 60.48 
" style="fill:none;stroke:#b0b0b0;stroke-linecap:square;stroke-width:0.8;"/>
     </g>
     <g id="line2d_10">
      <g>
       <use style="stroke:#000000;stroke-width:0.8;" x="266.22" xlink:href="#m355f496b4f" y="448.56"/>
      </g>
     </g>
     <g id="text_5">
      <!-- 0.4 -->
      <defs>
       <path d="M 37.796875 64.3125 
L 12.890625 25.390625 
L 37.796875 25.390625 
z
M 35.203125 72.90625 
L 47.609375 72.90625 
L 47.609375 25.390625 
L 58.015625 25.390625 
L 58.015625 17.1875 
L 47.609375 17.1875 
L 47.609375 0 
L 37.796875 0 
L 37.796875 17.1875 
L 4.890625 17.1875 
L 4.890625 26.703125 
z
" id="DejaVuSans-52"/>
      </defs>
      <g transform="translate(258.268438 463.158437)scale(0.1 -0.1)">
       <use xlink:href="#DejaVuSans-48"/>
       <use x="63.623047" xlink:href="#DejaVuSans-46"/>
       <use x="95.410156" xlink:href="#DejaVuSans-52"/>
      </g>
     </g>
    </g>
    <g id="xtick_6">
     <g id="line2d_11">
      <path clip-path="url(#pa5d63f9a7f)" d="M 313.65 448.56 
L 313.65 60.48 
" style="fill:none;stroke:#b0b0b0;stroke-linecap:square;stroke-width:0.8;"/>
     </g>
     <g id="line2d_12">
      <g>
       <use style="stroke:#000000;stroke-width:0.8;" x="313.65" xlink:href="#m355f496b4f" y="448.56"/>
      </g>
     </g>
     <g id="text_6">
      <!-- 0.5 -->
      <defs>
       <path d="M 10.796875 72.90625 
L 49.515625 72.90625 
L 49.515625 64.59375 
L 19.828125 64.59375 
L 19.828125 46.734375 
Q 21.96875 47.46875 24.109375 47.828125 
Q 26.265625 48.1875 28.421875 48.1875 
Q 40.625 48.1875 47.75 41.5 
Q 54.890625 34.8125 54.890625 23.390625 
Q 54.890625 11.625 47.5625 5.09375 
Q 40.234375 -1.421875 26.90625 -1.421875 
Q 22.3125 -1.421875 17.546875 -0.640625 
Q 12.796875 0.140625 7.71875 1.703125 
L 7.71875 11.625 
Q 12.109375 9.234375 16.796875 8.0625 
Q 21.484375 6.890625 26.703125 6.890625 
Q 35.15625 6.890625 40.078125 11.328125 
Q 45.015625 15.765625 45.015625 23.390625 
Q 45.015625 31 40.078125 35.4375 
Q 35.15625 39.890625 26.703125 39.890625 
Q 22.75 39.890625 18.8125 39.015625 
Q 14.890625 38.140625 10.796875 36.28125 
z
" id="DejaVuSans-53"/>
      </defs>
      <g transform="translate(305.698438 463.158437)scale(0.1 -0.1)">
       <use xlink:href="#DejaVuSans-48"/>
       <use x="63.623047" xlink:href="#DejaVuSans-46"/>
       <use x="95.410156" xlink:href="#DejaVuSans-53"/>
      </g>
     </g>
    </g>
    <g id="xtick_7">
     <g id="line2d_13">
      <path clip-path="url(#pa5d63f9a7f)" d="M 361.08 448.56 
L 361.08 60.48 
" style="fill:none;stroke:#b0b0b0;stroke-linecap:square;stroke-width:0.8;"/>
     </g>
     <g id="line2d_14">
      <g>
       <use style="stroke:#000000;stroke-width:0.8;" x="361.08" xlink:href="#m355f496b4f" y="448.56"/>
      </g>
     </g>
     <g id="text_7">
      <!-- 0.6 -->
      <defs>
       <path d="M 33.015625 40.375 
Q 26.375 40.375 22.484375 35.828125 
Q 18.609375 31.296875 18.609375 23.390625 
Q 18.609375 15.53125 22.484375 10.953125 
Q 26.375 6.390625 33.015625 6.390625 
Q 39.65625 6.390625 43.53125 10.953125 
Q 47.40625 15.53125 47.40625 23.390625 
Q 47.40625 31.296875 43.53125 35.828125 
Q 39.65625 40.375 33.015625 40.375 
z
M 52.59375 71.296875 
L 52.59375 62.3125 
Q 48.875 64.0625 45.09375 64.984375 
Q 41.3125 65.921875 37.59375 65.921875 
Q 27.828125 65.921875 22.671875 59.328125 
Q 17.53125 52.734375 16.796875 39.40625 
Q 19.671875 43.65625 24.015625 45.921875 
Q 28.375 48.1875 33.59375 48.1875 
Q 44.578125 48.1875 50.953125 41.515625 
Q 57.328125 34.859375 57.328125 23.390625 
Q 57.328125 12.15625 50.6875 5.359375 
Q 44.046875 -1.421875 33.015625 -1.421875 
Q 20.359375 -1.421875 13.671875 8.265625 
Q 6.984375 17.96875 6.984375 36.375 
Q 6.984375 53.65625 15.1875 63.9375 
Q 23.390625 74.21875 37.203125 74.21875 
Q 40.921875 74.21875 44.703125 73.484375 
Q 48.484375 72.75 52.59375 71.296875 
z
" id="DejaVuSans-54"/>
      </defs>
      <g transform="translate(353.128438 463.158437)scale(0.1 -0.1)">
       <use xlink:href="#DejaVuSans-48"/>
       <use x="63.623047" xlink:href="#DejaVuSans-46"/>
       <use x="95.410156" xlink:href="#DejaVuSans-54"/>
      </g>
     </g>
    </g>
    <g id="xtick_8">
     <g id="line2d_15">
      <path clip-path="url(#pa5d63f9a7f)" d="M 408.51 448.56 
L 408.51 60.48 
" style="fill:none;stroke:#b0b0b0;stroke-linecap:square;stroke-width:0.8;"/>
     </g>
     <g id="line2d_16">
      <g>
       <use style="stroke:#000000;stroke-width:0.8;" x="408.51" xlink:href="#m355f496b4f" y="448.56"/>
      </g>
     </g>
     <g id="text_8">
      <!-- 0.7 -->
      <defs>
       <path d="M 8.203125 72.90625 
L 55.078125 72.90625 
L 55.078125 68.703125 
L 28.609375 0 
L 18.3125 0 
L 43.21875 64.59375 
L 8.203125 64.59375 
z
" id="DejaVuSans-55"/>
      </defs>
      <g transform="translate(400.558438 463.158437)scale(0.1 -0.1)">
       <use xlink:href="#DejaVuSans-48"/>
       <use x="63.623047" xlink:href="#DejaVuSans-46"/>
       <use x="95.410156" xlink:href="#DejaVuSans-55"/>
      </g>
     </g>
    </g>
    <g id="xtick_9">
     <g id="line2d_17">
      <path clip-path="url(#pa5d63f9a7f)" d="M 455.94 448.56 
L 455.94 60.48 
" style="fill:none;stroke:#b0b0b0;stroke-linecap:square;stroke-width:0.8;"/>
     </g>
     <g id="line2d_18">
      <g>
       <use style="stroke:#000000;stroke-width:0.8;" x="455.94" xlink:href="#m355f496b4f" y="448.56"/>
      </g>
     </g>
     <g id="text_9">
      <!-- 0.8 -->
      <defs>
       <path d="M 31.78125 34.625 
Q 24.75 34.625 20.71875 30.859375 
Q 16.703125 27.09375 16.703125 20.515625 
Q 16.703125 13.921875 20.71875 10.15625 
Q 24.75 6.390625 31.78125 6.390625 
Q 38.8125 6.390625 42.859375 10.171875 
Q 46.921875 13.96875 46.921875 20.515625 
Q 46.921875 27.09375 42.890625 30.859375 
Q 38.875 34.625 31.78125 34.625 
z
M 21.921875 38.8125 
Q 15.578125 40.375 12.03125 44.71875 
Q 8.5 49.078125 8.5 55.328125 
Q 8.5 64.0625 14.71875 69.140625 
Q 20.953125 74.21875 31.78125 74.21875 
Q 42.671875 74.21875 48.875 69.140625 
Q 55.078125 64.0625 55.078125 55.328125 
Q 55.078125 49.078125 51.53125 44.71875 
Q 48 40.375 41.703125 38.8125 
Q 48.828125 37.15625 52.796875 32.3125 
Q 56.78125 27.484375 56.78125 20.515625 
Q 56.78125 9.90625 50.3125 4.234375 
Q 43.84375 -1.421875 31.78125 -1.421875 
Q 19.734375 -1.421875 13.25 4.234375 
Q 6.78125 9.90625 6.78125 20.515625 
Q 6.78125 27.484375 10.78125 32.3125 
Q 14.796875 37.15625 21.921875 38.8125 
z
M 18.3125 54.390625 
Q 18.3125 48.734375 21.84375 45.5625 
Q 25.390625 42.390625 31.78125 42.390625 
Q 38.140625 42.390625 41.71875 45.5625 
Q 45.3125 48.734375 45.3125 54.390625 
Q 45.3125 60.0625 41.71875 63.234375 
Q 38.140625 66.40625 31.78125 66.40625 
Q 25.390625 66.40625 21.84375 63.234375 
Q 18.3125 60.0625 18.3125 54.390625 
z
" id="DejaVuSans-56"/>
      </defs>
      <g transform="translate(447.988438 463.158437)scale(0.1 -0.1)">
       <use xlink:href="#DejaVuSans-48"/>
       <use x="63.623047" xlink:href="#DejaVuSans-46"/>
       <use x="95.410156" xlink:href="#DejaVuSans-56"/>
      </g>
     </g>
    </g>
    <g id="xtick_10">
     <g id="line2d_19">
      <path clip-path="url(#pa5d63f9a7f)" d="M 503.37 448.56 
L 503.37 60.48 
" style="fill:none;stroke:#b0b0b0;stroke-linecap:square;stroke-width:0.8;"/>
     </g>
     <g id="line2d_20">
      <g>
       <use style="stroke:#000000;stroke-width:0.8;" x="503.37" xlink:href="#m355f496b4f" y="448.56"/>
      </g>
     </g>
     <g id="text_10">
      <!-- 0.9 -->
      <defs>
       <path d="M 10.984375 1.515625 
L 10.984375 10.5 
Q 14.703125 8.734375 18.5 7.8125 
Q 22.3125 6.890625 25.984375 6.890625 
Q 35.75 6.890625 40.890625 13.453125 
Q 46.046875 20.015625 46.78125 33.40625 
Q 43.953125 29.203125 39.59375 26.953125 
Q 35.25 24.703125 29.984375 24.703125 
Q 19.046875 24.703125 12.671875 31.3125 
Q 6.296875 37.9375 6.296875 49.421875 
Q 6.296875 60.640625 12.9375 67.421875 
Q 19.578125 74.21875 30.609375 74.21875 
Q 43.265625 74.21875 49.921875 64.515625 
Q 56.59375 54.828125 56.59375 36.375 
Q 56.59375 19.140625 48.40625 8.859375 
Q 40.234375 -1.421875 26.421875 -1.421875 
Q 22.703125 -1.421875 18.890625 -0.6875 
Q 15.09375 0.046875 10.984375 1.515625 
z
M 30.609375 32.421875 
Q 37.25 32.421875 41.125 36.953125 
Q 45.015625 41.5 45.015625 49.421875 
Q 45.015625 57.28125 41.125 61.84375 
Q 37.25 66.40625 30.609375 66.40625 
Q 23.96875 66.40625 20.09375 61.84375 
Q 16.21875 57.28125 16.21875 49.421875 
Q 16.21875 41.5 20.09375 36.953125 
Q 23.96875 32.421875 30.609375 32.421875 
z
" id="DejaVuSans-57"/>
      </defs>
      <g transform="translate(495.418438 463.158437)scale(0.1 -0.1)">
       <use xlink:href="#DejaVuSans-48"/>
       <use x="63.623047" xlink:href="#DejaVuSans-46"/>
       <use x="95.410156" xlink:href="#DejaVuSans-57"/>
      </g>
     </g>
    </g>
    <g id="xtick_11">
     <g id="line2d_21">
      <path clip-path="url(#pa5d63f9a7f)" d="M 550.8 448.56 
L 550.8 60.48 
" style="fill:none;stroke:#b0b0b0;stroke-linecap:square;stroke-width:0.8;"/>
     </g>
     <g id="line2d_22">
      <g>
       <use style="stroke:#000000;stroke-width:0.8;" x="550.8" xlink:href="#m355f496b4f" y="448.56"/>
      </g>
     </g>
     <g id="text_11">
      <!-- 1.0 -->
      <g transform="translate(542.848438 463.158437)scale(0.1 -0.1)">
       <use xlink:href="#DejaVuSans-49"/>
       <use x="63.623047" xlink:href="#DejaVuSans-46"/>
       <use x="95.410156" xlink:href="#DejaVuSans-48"/>
      </g>
     </g>
    </g>
    <g id="text_12">
     <!-- 1-precision -->
     <defs>
      <path d="M 4.890625 31.390625 
L 31.203125 31.390625 
L 31.203125 23.390625 
L 4.890625 23.390625 
z
" id="DejaVuSans-45"/>
      <path d="M 18.109375 8.203125 
L 18.109375 -20.796875 
L 9.078125 -20.796875 
L 9.078125 54.6875 
L 18.109375 54.6875 
L 18.109375 46.390625 
Q 20.953125 51.265625 25.265625 53.625 
Q 29.59375 56 35.59375 56 
Q 45.5625 56 51.78125 48.09375 
Q 58.015625 40.1875 58.015625 27.296875 
Q 58.015625 14.40625 51.78125 6.484375 
Q 45.5625 -1.421875 35.59375 -1.421875 
Q 29.59375 -1.421875 25.265625 0.953125 
Q 20.953125 3.328125 18.109375 8.203125 
z
M 48.6875 27.296875 
Q 48.6875 37.203125 44.609375 42.84375 
Q 40.53125 48.484375 33.40625 48.484375 
Q 26.265625 48.484375 22.1875 42.84375 
Q 18.109375 37.203125 18.109375 27.296875 
Q 18.109375 17.390625 22.1875 11.75 
Q 26.265625 6.109375 33.40625 6.109375 
Q 40.53125 6.109375 44.609375 11.75 
Q 48.6875 17.390625 48.6875 27.296875 
z
" id="DejaVuSans-112"/>
      <path d="M 41.109375 46.296875 
Q 39.59375 47.171875 37.8125 47.578125 
Q 36.03125 48 33.890625 48 
Q 26.265625 48 22.1875 43.046875 
Q 18.109375 38.09375 18.109375 28.8125 
L 18.109375 0 
L 9.078125 0 
L 9.078125 54.6875 
L 18.109375 54.6875 
L 18.109375 46.1875 
Q 20.953125 51.171875 25.484375 53.578125 
Q 30.03125 56 36.53125 56 
Q 37.453125 56 38.578125 55.875 
Q 39.703125 55.765625 41.0625 55.515625 
z
" id="DejaVuSans-114"/>
      <path d="M 56.203125 29.59375 
L 56.203125 25.203125 
L 14.890625 25.203125 
Q 15.484375 15.921875 20.484375 11.0625 
Q 25.484375 6.203125 34.421875 6.203125 
Q 39.59375 6.203125 44.453125 7.46875 
Q 49.3125 8.734375 54.109375 11.28125 
L 54.109375 2.78125 
Q 49.265625 0.734375 44.1875 -0.34375 
Q 39.109375 -1.421875 33.890625 -1.421875 
Q 20.796875 -1.421875 13.15625 6.1875 
Q 5.515625 13.8125 5.515625 26.8125 
Q 5.515625 40.234375 12.765625 48.109375 
Q 20.015625 56 32.328125 56 
Q 43.359375 56 49.78125 48.890625 
Q 56.203125 41.796875 56.203125 29.59375 
z
M 47.21875 32.234375 
Q 47.125 39.59375 43.09375 43.984375 
Q 39.0625 48.390625 32.421875 48.390625 
Q 24.90625 48.390625 20.390625 44.140625 
Q 15.875 39.890625 15.1875 32.171875 
z
" id="DejaVuSans-101"/>
      <path d="M 48.78125 52.59375 
L 48.78125 44.1875 
Q 44.96875 46.296875 41.140625 47.34375 
Q 37.3125 48.390625 33.40625 48.390625 
Q 24.65625 48.390625 19.8125 42.84375 
Q 14.984375 37.3125 14.984375 27.296875 
Q 14.984375 17.28125 19.8125 11.734375 
Q 24.65625 6.203125 33.40625 6.203125 
Q 37.3125 6.203125 41.140625 7.25 
Q 44.96875 8.296875 48.78125 10.40625 
L 48.78125 2.09375 
Q 45.015625 0.34375 40.984375 -0.53125 
Q 36.96875 -1.421875 32.421875 -1.421875 
Q 20.0625 -1.421875 12.78125 6.34375 
Q 5.515625 14.109375 5.515625 27.296875 
Q 5.515625 40.671875 12.859375 48.328125 
Q 20.21875 56 33.015625 56 
Q 37.15625 56 41.109375 55.140625 
Q 45.0625 54.296875 48.78125 52.59375 
z
" id="DejaVuSans-99"/>
      <path d="M 9.421875 54.6875 
L 18.40625 54.6875 
L 18.40625 0 
L 9.421875 0 
z
M 9.421875 75.984375 
L 18.40625 75.984375 
L 18.40625 64.59375 
L 9.421875 64.59375 
z
" id="DejaVuSans-105"/>
      <path d="M 44.28125 53.078125 
L 44.28125 44.578125 
Q 40.484375 46.53125 36.375 47.5 
Q 32.28125 48.484375 27.875 48.484375 
Q 21.1875 48.484375 17.84375 46.4375 
Q 14.5 44.390625 14.5 40.28125 
Q 14.5 37.15625 16.890625 35.375 
Q 19.28125 33.59375 26.515625 31.984375 
L 29.59375 31.296875 
Q 39.15625 29.25 43.1875 25.515625 
Q 47.21875 21.78125 47.21875 15.09375 
Q 47.21875 7.46875 41.1875 3.015625 
Q 35.15625 -1.421875 24.609375 -1.421875 
Q 20.21875 -1.421875 15.453125 -0.5625 
Q 10.6875 0.296875 5.421875 2 
L 5.421875 11.28125 
Q 10.40625 8.6875 15.234375 7.390625 
Q 20.0625 6.109375 24.8125 6.109375 
Q 31.15625 6.109375 34.5625 8.28125 
Q 37.984375 10.453125 37.984375 14.40625 
Q 37.984375 18.0625 35.515625 20.015625 
Q 33.0625 21.96875 24.703125 23.78125 
L 21.578125 24.515625 
Q 13.234375 26.265625 9.515625 29.90625 
Q 5.8125 33.546875 5.8125 39.890625 
Q 5.8125 47.609375 11.28125 51.796875 
Q 16.75 56 26.8125 56 
Q 31.78125 56 36.171875 55.265625 
Q 40.578125 54.546875 44.28125 53.078125 
z
" id="DejaVuSans-115"/>
      <path d="M 30.609375 48.390625 
Q 23.390625 48.390625 19.1875 42.75 
Q 14.984375 37.109375 14.984375 27.296875 
Q 14.984375 17.484375 19.15625 11.84375 
Q 23.34375 6.203125 30.609375 6.203125 
Q 37.796875 6.203125 41.984375 11.859375 
Q 46.1875 17.53125 46.1875 27.296875 
Q 46.1875 37.015625 41.984375 42.703125 
Q 37.796875 48.390625 30.609375 48.390625 
z
M 30.609375 56 
Q 42.328125 56 49.015625 48.375 
Q 55.71875 40.765625 55.71875 27.296875 
Q 55.71875 13.875 49.015625 6.21875 
Q 42.328125 -1.421875 30.609375 -1.421875 
Q 18.84375 -1.421875 12.171875 6.21875 
Q 5.515625 13.875 5.515625 27.296875 
Q 5.515625 40.765625 12.171875 48.375 
Q 18.84375 56 30.609375 56 
z
" id="DejaVuSans-111"/>
      <path d="M 54.890625 33.015625 
L 54.890625 0 
L 45.90625 0 
L 45.90625 32.71875 
Q 45.90625 40.484375 42.875 44.328125 
Q 39.84375 48.1875 33.796875 48.1875 
Q 26.515625 48.1875 22.3125 43.546875 
Q 18.109375 38.921875 18.109375 30.90625 
L 18.109375 0 
L 9.078125 0 
L 9.078125 54.6875 
L 18.109375 54.6875 
L 18.109375 46.1875 
Q 21.34375 51.125 25.703125 53.5625 
Q 30.078125 56 35.796875 56 
Q 45.21875 56 50.046875 50.171875 
Q 54.890625 44.34375 54.890625 33.015625 
z
" id="DejaVuSans-110"/>
     </defs>
     <g transform="translate(286 476.836563)scale(0.1 -0.1)">
      <use xlink:href="#DejaVuSans-49"/>
      <use x="63.623047" xlink:href="#DejaVuSans-45"/>
      <use x="99.707031" xlink:href="#DejaVuSans-112"/>
      <use x="163.183594" xlink:href="#DejaVuSans-114"/>
      <use x="204.265625" xlink:href="#DejaVuSans-101"/>
      <use x="265.789062" xlink:href="#DejaVuSans-99"/>
      <use x="320.769531" xlink:href="#DejaVuSans-105"/>
      <use x="348.552734" xlink:href="#DejaVuSans-115"/>
      <use x="400.652344" xlink:href="#DejaVuSans-105"/>
      <use x="428.435547" xlink:href="#DejaVuSans-111"/>
      <use x="489.617188" xlink:href="#DejaVuSans-110"/>
     </g>
    </g>
   </g>
   <g id="matplotlib.axis_2">
    <g id="ytick_1">
     <g id="line2d_23">
      <path clip-path="url(#pa5d63f9a7f)" d="M 76.5 448.56 
L 550.8 448.56 
" style="fill:none;stroke:#b0b0b0;stroke-linecap:square;stroke-width:0.8;"/>
     </g>
     <g id="line2d_24">
      <defs>
       <path d="M 0 0 
L -3.5 0 
" id="m056f59282b" style="stroke:#000000;stroke-width:0.8;"/>
      </defs>
      <g>
       <use style="stroke:#000000;stroke-width:0.8;" x="76.5" xlink:href="#m056f59282b" y="448.56"/>
      </g>
     </g>
     <g id="text_13">
      <!-- 0.0 -->
      <g transform="translate(53.596875 452.359219)scale(0.1 -0.1)">
       <use xlink:href="#DejaVuSans-48"/>
       <use x="63.623047" xlink:href="#DejaVuSans-46"/>
       <use x="95.410156" xlink:href="#DejaVuSans-48"/>
      </g>
     </g>
    </g>
    <g id="ytick_2">
     <g id="line2d_25">
      <path clip-path="url(#pa5d63f9a7f)" d="M 76.5 409.752 
L 550.8 409.752 
" style="fill:none;stroke:#b0b0b0;stroke-linecap:square;stroke-width:0.8;"/>
     </g>
     <g id="line2d_26">
      <g>
       <use style="stroke:#000000;stroke-width:0.8;" x="76.5" xlink:href="#m056f59282b" y="409.752"/>
      </g>
     </g>
     <g id="text_14">
      <!-- 0.1 -->
      <g transform="translate(53.596875 413.551219)scale(0.1 -0.1)">
       <use xlink:href="#DejaVuSans-48"/>
       <use x="63.623047" xlink:href="#DejaVuSans-46"/>
       <use x="95.410156" xlink:href="#DejaVuSans-49"/>
      </g>
     </g>
    </g>
    <g id="ytick_3">
     <g id="line2d_27">
      <path clip-path="url(#pa5d63f9a7f)" d="M 76.5 370.944 
L 550.8 370.944 
" style="fill:none;stroke:#b0b0b0;stroke-linecap:square;stroke-width:0.8;"/>
     </g>
     <g id="line2d_28">
      <g>
       <use style="stroke:#000000;stroke-width:0.8;" x="76.5" xlink:href="#m056f59282b" y="370.944"/>
      </g>
     </g>
     <g id="text_15">
      <!-- 0.2 -->
      <g transform="translate(53.596875 374.743219)scale(0.1 -0.1)">
       <use xlink:href="#DejaVuSans-48"/>
       <use x="63.623047" xlink:href="#DejaVuSans-46"/>
       <use x="95.410156" xlink:href="#DejaVuSans-50"/>
      </g>
     </g>
    </g>
    <g id="ytick_4">
     <g id="line2d_29">
      <path clip-path="url(#pa5d63f9a7f)" d="M 76.5 332.136 
L 550.8 332.136 
" style="fill:none;stroke:#b0b0b0;stroke-linecap:square;stroke-width:0.8;"/>
     </g>
     <g id="line2d_30">
      <g>
       <use style="stroke:#000000;stroke-width:0.8;" x="76.5" xlink:href="#m056f59282b" y="332.136"/>
      </g>
     </g>
     <g id="text_16">
      <!-- 0.3 -->
      <g transform="translate(53.596875 335.935219)scale(0.1 -0.1)">
       <use xlink:href="#DejaVuSans-48"/>
       <use x="63.623047" xlink:href="#DejaVuSans-46"/>
       <use x="95.410156" xlink:href="#DejaVuSans-51"/>
      </g>
     </g>
    </g>
    <g id="ytick_5">
     <g id="line2d_31">
      <path clip-path="url(#pa5d63f9a7f)" d="M 76.5 293.328 
L 550.8 293.328 
" style="fill:none;stroke:#b0b0b0;stroke-linecap:square;stroke-width:0.8;"/>
     </g>
     <g id="line2d_32">
      <g>
       <use style="stroke:#000000;stroke-width:0.8;" x="76.5" xlink:href="#m056f59282b" y="293.328"/>
      </g>
     </g>
     <g id="text_17">
      <!-- 0.4 -->
      <g transform="translate(53.596875 297.127219)scale(0.1 -0.1)">
       <use xlink:href="#DejaVuSans-48"/>
       <use x="63.623047" xlink:href="#DejaVuSans-46"/>
       <use x="95.410156" xlink:href="#DejaVuSans-52"/>
      </g>
     </g>
    </g>
    <g id="ytick_6">
     <g id="line2d_33">
      <path clip-path="url(#pa5d63f9a7f)" d="M 76.5 254.52 
L 550.8 254.52 
" style="fill:none;stroke:#b0b0b0;stroke-linecap:square;stroke-width:0.8;"/>
     </g>
     <g id="line2d_34">
      <g>
       <use style="stroke:#000000;stroke-width:0.8;" x="76.5" xlink:href="#m056f59282b" y="254.52"/>
      </g>
     </g>
     <g id="text_18">
      <!-- 0.5 -->
      <g transform="translate(53.596875 258.319219)scale(0.1 -0.1)">
       <use xlink:href="#DejaVuSans-48"/>
       <use x="63.623047" xlink:href="#DejaVuSans-46"/>
       <use x="95.410156" xlink:href="#DejaVuSans-53"/>
      </g>
     </g>
    </g>
    <g id="ytick_7">
     <g id="line2d_35">
      <path clip-path="url(#pa5d63f9a7f)" d="M 76.5 215.712 
L 550.8 215.712 
" style="fill:none;stroke:#b0b0b0;stroke-linecap:square;stroke-width:0.8;"/>
     </g>
     <g id="line2d_36">
      <g>
       <use style="stroke:#000000;stroke-width:0.8;" x="76.5" xlink:href="#m056f59282b" y="215.712"/>
      </g>
     </g>
     <g id="text_19">
      <!-- 0.6 -->
      <g transform="translate(53.596875 219.511219)scale(0.1 -0.1)">
       <use xlink:href="#DejaVuSans-48"/>
       <use x="63.623047" xlink:href="#DejaVuSans-46"/>
       <use x="95.410156" xlink:href="#DejaVuSans-54"/>
      </g>
     </g>
    </g>
    <g id="ytick_8">
     <g id="line2d_37">
      <path clip-path="url(#pa5d63f9a7f)" d="M 76.5 176.904 
L 550.8 176.904 
" style="fill:none;stroke:#b0b0b0;stroke-linecap:square;stroke-width:0.8;"/>
     </g>
     <g id="line2d_38">
      <g>
       <use style="stroke:#000000;stroke-width:0.8;" x="76.5" xlink:href="#m056f59282b" y="176.904"/>
      </g>
     </g>
     <g id="text_20">
      <!-- 0.7 -->
      <g transform="translate(53.596875 180.703219)scale(0.1 -0.1)">
       <use xlink:href="#DejaVuSans-48"/>
       <use x="63.623047" xlink:href="#DejaVuSans-46"/>
       <use x="95.410156" xlink:href="#DejaVuSans-55"/>
      </g>
     </g>
    </g>
    <g id="ytick_9">
     <g id="line2d_39">
      <path clip-path="url(#pa5d63f9a7f)" d="M 76.5 138.096 
L 550.8 138.096 
" style="fill:none;stroke:#b0b0b0;stroke-linecap:square;stroke-width:0.8;"/>
     </g>
     <g id="line2d_40">
      <g>
       <use style="stroke:#000000;stroke-width:0.8;" x="76.5" xlink:href="#m056f59282b" y="138.096"/>
      </g>
     </g>
     <g id="text_21">
      <!-- 0.8 -->
      <g transform="translate(53.596875 141.895219)scale(0.1 -0.1)">
       <use xlink:href="#DejaVuSans-48"/>
       <use x="63.623047" xlink:href="#DejaVuSans-46"/>
       <use x="95.410156" xlink:href="#DejaVuSans-56"/>
      </g>
     </g>
    </g>
    <g id="ytick_10">
     <g id="line2d_41">
      <path clip-path="url(#pa5d63f9a7f)" d="M 76.5 99.288 
L 550.8 99.288 
" style="fill:none;stroke:#b0b0b0;stroke-linecap:square;stroke-width:0.8;"/>
     </g>
     <g id="line2d_42">
      <g>
       <use style="stroke:#000000;stroke-width:0.8;" x="76.5" xlink:href="#m056f59282b" y="99.288"/>
      </g>
     </g>
     <g id="text_22">
      <!-- 0.9 -->
      <g transform="translate(53.596875 103.087219)scale(0.1 -0.1)">
       <use xlink:href="#DejaVuSans-48"/>
       <use x="63.623047" xlink:href="#DejaVuSans-46"/>
       <use x="95.410156" xlink:href="#DejaVuSans-57"/>
      </g>
     </g>
    </g>
    <g id="ytick_11">
     <g id="line2d_43">
      <path clip-path="url(#pa5d63f9a7f)" d="M 76.5 60.48 
L 550.8 60.48 
" style="fill:none;stroke:#b0b0b0;stroke-linecap:square;stroke-width:0.8;"/>
     </g>
     <g id="line2d_44">
      <g>
       <use style="stroke:#000000;stroke-width:0.8;" x="76.5" xlink:href="#m056f59282b" y="60.48"/>
      </g>
     </g>
     <g id="text_23">
      <!-- 1.0 -->
      <g transform="translate(53.596875 64.279219)scale(0.1 -0.1)">
       <use xlink:href="#DejaVuSans-49"/>
       <use x="63.623047" xlink:href="#DejaVuSans-46"/>
       <use x="95.410156" xlink:href="#DejaVuSans-48"/>
      </g>
     </g>
    </g>
    <g id="text_24">
     <!-- #correct/1660 -->
     <defs>
      <path d="M 51.125 44 
L 36.921875 44 
L 32.8125 27.6875 
L 47.125 27.6875 
z
M 43.796875 71.78125 
L 38.71875 51.515625 
L 52.984375 51.515625 
L 58.109375 71.78125 
L 65.921875 71.78125 
L 60.890625 51.515625 
L 76.125 51.515625 
L 76.125 44 
L 58.984375 44 
L 54.984375 27.6875 
L 70.515625 27.6875 
L 70.515625 20.21875 
L 53.078125 20.21875 
L 48 0 
L 40.1875 0 
L 45.21875 20.21875 
L 30.90625 20.21875 
L 25.875 0 
L 18.015625 0 
L 23.09375 20.21875 
L 7.71875 20.21875 
L 7.71875 27.6875 
L 24.90625 27.6875 
L 29 44 
L 13.28125 44 
L 13.28125 51.515625 
L 30.90625 51.515625 
L 35.890625 71.78125 
z
" id="DejaVuSans-35"/>
      <path d="M 18.3125 70.21875 
L 18.3125 54.6875 
L 36.8125 54.6875 
L 36.8125 47.703125 
L 18.3125 47.703125 
L 18.3125 18.015625 
Q 18.3125 11.328125 20.140625 9.421875 
Q 21.96875 7.515625 27.59375 7.515625 
L 36.8125 7.515625 
L 36.8125 0 
L 27.59375 0 
Q 17.1875 0 13.234375 3.875 
Q 9.28125 7.765625 9.28125 18.015625 
L 9.28125 47.703125 
L 2.6875 47.703125 
L 2.6875 54.6875 
L 9.28125 54.6875 
L 9.28125 70.21875 
z
" id="DejaVuSans-116"/>
      <path d="M 25.390625 72.90625 
L 33.6875 72.90625 
L 8.296875 -9.28125 
L 0 -9.28125 
z
" id="DejaVuSans-47"/>
     </defs>
     <g transform="translate(47.517187 290.822344)rotate(-90)scale(0.1 -0.1)">
      <use xlink:href="#DejaVuSans-35"/>
      <use x="83.789062" xlink:href="#DejaVuSans-99"/>
      <use x="138.769531" xlink:href="#DejaVuSans-111"/>
      <use x="199.951172" xlink:href="#DejaVuSans-114"/>
      <use x="241.048828" xlink:href="#DejaVuSans-114"/>
      <use x="282.130859" xlink:href="#DejaVuSans-101"/>
      <use x="343.654297" xlink:href="#DejaVuSans-99"/>
      <use x="398.634766" xlink:href="#DejaVuSans-116"/>
      <use x="437.84375" xlink:href="#DejaVuSans-47"/>
      <use x="471.535156" xlink:href="#DejaVuSans-49"/>
      <use x="535.158203" xlink:href="#DejaVuSans-54"/>
      <use x="598.78125" xlink:href="#DejaVuSans-54"/>
      <use x="662.404297" xlink:href="#DejaVuSans-48"/>
     </g>
    </g>
   </g>
   <g id="line2d_45">
    <path clip-path="url(#pa5d63f9a7f)" d="M 550.8 448.56 
L 313.65 448.326217 
L 234.6 448.092434 
L 361.08 448.092434 
L 313.65 447.858651 
L 392.7 447.858651 
L 361.08 447.624867 
L 450.947368 447.624867 
L 432.225 447.391084 
L 437.871429 447.391084 
L 451.9875 447.391084 
L 427.833333 446.923518 
L 440.13 446.923518 
L 421.445455 446.455952 
L 441.346154 446.455952 
L 432.225 446.222169 
L 435.117073 446.222169 
L 437.871429 446.222169 
L 421.445455 445.754602 
L 424.32 445.754602 
L 441.346154 445.754602 
L 434.462264 445.520819 
L 436.616667 445.520819 
L 449.719672 445.520819 
L 443.7 445.287036 
L 445.4 445.287036 
L 454.565217 445.287036 
L 445.4 444.81947 
L 448.248649 444.81947 
L 443.292 444.585687 
L 444.706579 444.585687 
L 466.809375 444.585687 
L 462.785567 444.351904 
L 464.563636 444.351904 
L 466.271287 444.351904 
L 462.45 444.11812 
L 464.149038 444.11812 
L 468.875455 444.11812 
L 465.340541 443.884337 
L 466.853097 443.884337 
L 467.589474 443.884337 
L 462.371186 443.416771 
L 467.985714 443.416771 
L 463.236923 442.949205 
L 465.850746 442.949205 
L 462.966667 442.715422 
L 464.248905 442.715422 
L 474.3 442.715422 
L 471.75 442.481639 
L 472.750633 442.481639 
L 477.830769 442.481639 
L 475.47 442.247855 
L 476.34593 442.247855 
L 477.622286 442.247855 
L 475.343182 442.014072 
L 476.191011 442.014072 
L 480.159574 442.014072 
L 478.02381 441.780289 
L 478.785864 441.780289 
L 480.622959 441.780289 
L 478.571574 441.546506 
L 479.297487 441.546506 
L 489.73133 441.546506 
L 487.965385 441.312723 
L 488.760759 441.312723 
L 489.53625 441.312723 
L 487.822407 441.07894 
L 488.596721 441.07894 
L 489.352227 441.07894 
L 487.6875 440.845157 
L 488.441833 440.845157 
L 489.178346 440.845157 
L 487.56 440.611373 
L 488.295349 440.611373 
L 489.249618 440.611373 
L 487.680228 440.37759 
L 488.392105 440.37759 
L 490.870397 440.37759 
L 486.659786 439.676241 
L 487.113074 439.676241 
L 491.706885 439.676241 
L 490.35 439.442458 
L 490.936893 439.442458 
L 491.321865 439.442458 
L 489.992308 439.208675 
L 490.571429 439.208675 
L 494.167164 439.208675 
L 492.037168 438.741108 
L 492.21 438.741108 
L 493.556897 438.741108 
L 492.361891 438.507325 
L 492.859943 438.507325 
L 493.024079 438.507325 
L 491.847458 438.273542 
L 492.342857 438.273542 
L 503.37 438.273542 
L 501.549887 437.805976 
L 501.881166 437.805976 
L 502.530531 437.805976 
L 500.653744 437.33841 
L 501.091703 437.33841 
L 501.307826 437.33841 
L 498.891631 436.63706 
L 501.434082 436.63706 
L 500.016364 436.169494 
L 500.11875 436.169494 
L 500.220724 436.169494 
L 499.36988 435.935711 
L 499.779681 435.935711 
L 502.926729 435.935711 
L 502.131157 435.701928 
L 502.491667 435.701928 
L 503.283607 435.701928 
L 502.000181 435.234361 
L 502.088108 435.234361 
L 503.453065 435.234361 
L 502.706643 435.000578 
L 503.040625 435.000578 
L 509.119091 435.000578 
L 508.464599 434.766795 
L 508.782432 434.766795 
L 508.845427 434.766795 
L 508.198204 434.533012 
L 508.51471 434.533012 
L 508.764549 434.533012 
L 508.126991 434.299229 
L 508.439385 434.299229 
L 508.929812 434.299229 
L 508.304913 434.065446 
L 508.609756 434.065446 
L 509.323836 434.065446 
L 508.714225 433.831663 
L 509.008531 433.831663 
L 510.145714 433.831663 
L 509.556522 433.59788 
L 509.834818 433.59788 
L 510.109383 433.59788 
L 509.528916 433.364096 
L 509.803324 433.364096 
L 510.234868 433.364096 
L 509.664915 433.130313 
L 509.93342 433.130313 
L 510.145714 433.130313 
L 508.179974 432.195181 
L 508.985139 432.195181 
L 508.006015 431.727614 
L 508.166292 431.727614 
L 509.951196 431.727614 
L 509.433333 431.493831 
L 509.678979 431.493831 
L 510.864706 431.493831 
L 510.364286 431.260048 
L 510.595876 431.260048 
L 511.051189 431.260048 
L 510.559615 431.026265 
L 510.785939 431.026265 
L 515.544797 431.026265 
L 515.110099 430.792482 
L 515.320866 430.792482 
L 516.729301 430.792482 
L 516.313598 430.558699 
L 516.540056 430.558699 
L 518.04565 430.558699 
L 517.65 430.324916 
L 517.856634 430.324916 
L 518.00266 430.324916 
L 517.611603 430.091133 
L 517.816109 430.091133 
L 519.286375 430.091133 
L 518.914286 429.857349 
L 519.100752 429.857349 
L 519.415385 429.857349 
L 519.049339 429.623566 
L 519.231964 429.623566 
L 519.717233 429.623566 
L 519.358933 429.389783 
L 519.560964 429.389783 
L 522.555556 429.389783 
L 522.231858 429.156 
L 522.417231 429.156 
L 522.780854 429.156 
L 522.308481 428.688434 
L 522.328602 428.688434 
L 523.869138 428.688434 
L 523.570494 428.454651 
L 523.733112 428.454651 
L 524.585476 428.454651 
L 524.061755 427.987084 
L 524.181122 427.987084 
L 524.215032 427.987084 
L 523.930045 427.753301 
L 524.1 427.753301 
L 525.492626 427.753301 
L 525.223607 427.519518 
L 525.391071 427.519518 
L 525.54142 427.519518 
L 525.101767 427.051952 
L 525.177217 427.051952 
L 525.836842 427.051952 
L 525.337864 426.584386 
L 525.482453 426.584386 
L 526.316639 426.584386 
L 525.891466 426.116819 
L 525.972955 426.116819 
L 526.51584 426.116819 
L 526.275959 425.883036 
L 526.431833 425.883036 
L 527.704066 425.883036 
L 527.477672 425.649253 
L 527.628814 425.649253 
L 528.137201 425.649253 
L 527.917105 425.41547 
L 528.061162 425.41547 
L 528.75507 425.41547 
L 528.542844 425.181687 
L 528.688112 425.181687 
L 529.280036 425.181687 
L 528.998017 424.71412 
L 529.007838 424.71412 
L 529.231297 424.71412 
L 529.029545 424.480337 
L 529.174104 424.480337 
L 530.055669 424.480337 
L 529.863158 424.246554 
L 530.004384 424.246554 
L 530.550739 424.246554 
L 530.364423 424.012771 
L 530.50599 424.012771 
L 530.751087 424.012771 
L 530.56829 423.778988 
L 530.705755 423.778988 
L 530.833439 423.778988 
L 530.52114 423.311422 
L 530.609066 423.311422 
L 530.64085 423.311422 
L 530.462195 423.077639 
L 530.597304 423.077639 
L 530.675944 423.077639 
L 530.499222 422.843855 
L 530.632625 422.843855 
L 531.526635 422.843855 
L 531.095625 422.142506 
L 531.153409 422.142506 
L 531.345953 422.142506 
L 531.180914 421.908723 
L 531.315243 421.908723 
L 532.193599 421.908723 
L 531.970842 421.441157 
L 532.009426 421.441157 
L 532.028659 421.441157 
L 531.873295 421.207373 
L 532.001524 421.207373 
L 532.00789 421.207373 
L 531.718966 420.739807 
L 531.828 420.739807 
L 531.9861 420.739807 
L 531.834322 420.506024 
L 531.966115 420.506024 
L 532.003435 420.506024 
L 531.853054 420.272241 
L 531.983508 420.272241 
L 532.328709 420.272241 
L 532.182046 420.038458 
L 532.312907 420.038458 
L 532.476821 420.038458 
L 532.332479 419.804675 
L 532.460201 419.804675 
L 532.557692 419.804675 
L 532.41513 419.570892 
L 532.540702 419.570892 
L 532.874611 419.570892 
L 532.735558 419.337108 
L 532.861271 419.337108 
L 532.920778 419.337108 
L 532.783178 419.103325 
L 532.907246 419.103325 
L 533.029616 419.103325 
L 532.893906 418.869542 
L 533.02075 418.869542 
L 534.489115 418.869542 
L 534.242803 418.168193 
L 534.569676 418.168193 
L 534.449132 417.93441 
L 534.572969 417.93441 
L 535.070051 417.93441 
L 534.902344 417.466843 
L 534.958237 417.466843 
L 535.293142 417.466843 
L 535.110096 416.999277 
L 535.190419 416.999277 
L 535.269925 416.999277 
L 535.07037 416.531711 
L 535.168752 416.531711 
L 535.449398 416.531711 
L 535.280297 416.064145 
L 535.353022 416.064145 
L 535.661607 416.064145 
L 535.556198 415.830361 
L 535.677704 415.830361 
L 536.254107 415.830361 
L 536.153417 415.596578 
L 536.274305 415.596578 
L 536.497968 415.596578 
L 536.412028 415.129012 
L 536.421179 415.129012 
L 536.878633 415.129012 
L 536.784158 414.895229 
L 536.903927 414.895229 
L 537.002182 414.895229 
L 536.90917 414.661446 
L 537.026016 414.661446 
L 537.072754 414.661446 
L 536.980842 414.427663 
L 537.098417 414.427663 
L 537.327665 414.427663 
L 537.253802 413.960096 
L 537.266859 413.960096 
L 537.552897 413.960096 
L 537.479461 413.49253 
L 537.496896 413.49253 
L 537.511804 413.49253 
L 537.425714 413.258747 
L 537.542077 413.258747 
L 537.571463 413.258747 
L 537.413558 412.791181 
L 537.518906 412.791181 
L 537.743523 412.791181 
L 537.601346 412.323614 
L 537.695455 412.323614 
L 537.824974 412.323614 
L 537.743568 412.089831 
L 537.860021 412.089831 
L 537.983302 412.089831 
L 537.903377 411.856048 
L 538.02068 411.856048 
L 538.086136 411.856048 
L 538.035325 411.388482 
L 538.043961 411.388482 
L 538.437098 411.388482 
L 538.361383 411.154699 
L 538.476518 411.154699 
L 538.92766 411.154699 
L 538.855326 410.920916 
L 538.970054 410.920916 
L 538.973718 410.920916 
L 538.920636 410.453349 
L 538.946136 410.453349 
L 538.973336 410.453349 
L 538.931711 409.985783 
L 538.947887 409.985783 
L 539.187075 409.985783 
L 539.118427 409.752 
L 539.233407 409.752 
L 539.245289 409.752 
L 539.126633 409.284434 
L 539.224985 409.284434 
L 539.308451 409.284434 
L 539.241716 409.050651 
L 539.357216 409.050651 
L 539.467227 409.050651 
L 539.401781 408.816867 
L 539.516625 408.816867 
L 539.920092 408.816867 
L 539.896552 408.349301 
L 539.909652 408.349301 
L 540.086986 408.349301 
L 539.966684 407.881735 
L 540.079267 407.881735 
L 540.436042 407.881735 
L 540.432787 407.414169 
L 540.461035 407.414169 
L 540.42323 406.946602 
L 540.460086 406.946602 
L 540.818279 406.946602 
L 540.777225 406.479036 
L 540.821739 406.479036 
L 541.322425 406.479036 
L 541.296246 406.01147 
L 541.332726 406.01147 
L 541.383332 406.01147 
L 541.332624 405.777687 
L 541.445878 405.777687 
L 541.543639 405.777687 
L 541.49405 405.543904 
L 541.606784 405.543904 
L 542.446291 405.543904 
L 542.401694 405.31012 
L 542.514306 405.31012 
L 542.700166 405.31012 
L 542.700166 405.31012 
" style="fill:none;stroke:#1f77b4;stroke-linecap:square;stroke-width:2;"/>
   </g>
   <g id="line2d_46">
    <path clip-path="url(#pa5d63f9a7f)" d="M 550.8 448.56 
L 415.285714 448.092434 
L 455.94 448.092434 
L 421.445455 447.858651 
L 432.225 447.858651 
L 449.164286 447.858651 
L 402.58125 447.391084 
L 432.225 447.391084 
L 415.285714 447.157301 
L 421.445455 447.157301 
L 432.225 447.157301 
L 417.996 446.923518 
L 423.103846 446.923518 
L 467.7975 446.923518 
L 458.253659 446.689735 
L 462.55814 446.689735 
L 466.48 446.689735 
L 458.002174 446.455952 
L 461.86875 446.455952 
L 477.201724 446.455952 
L 466.65 445.988386 
L 460.457143 445.754602 
L 463.236923 445.754602 
L 465.850746 445.754602 
L 460.125 445.520819 
L 462.715714 445.520819 
L 473.72625 445.520819 
L 464.037805 445.053253 
L 466.103571 445.053253 
L 468.073256 445.053253 
L 461.21 444.585687 
L 456.982418 444.351904 
L 458.002174 444.351904 
L 460.932632 444.351904 
L 454.004082 443.884337 
L 457.8 443.884337 
L 454.098058 443.650554 
L 455.027885 443.650554 
L 455.94 443.650554 
L 452.360377 443.416771 
L 453.280374 443.416771 
L 456.794595 443.416771 
L 450.947368 442.949205 
L 460.457143 442.949205 
L 457.433858 442.715422 
L 458.163281 442.715422 
L 473.3 442.715422 
L 468.709615 442.247855 
L 469.232484 442.247855 
L 469.748734 442.247855 
L 467.275472 442.014072 
L 468.313043 442.014072 
L 470.312727 442.014072 
L 467.940361 441.780289 
L 468.926786 441.780289 
L 471.293064 441.780289 
L 469.024138 441.546506 
L 469.953409 441.546506 
L 472.18674 441.546506 
L 470.012637 441.312723 
L 470.890761 441.312723 
L 478.011386 441.312723 
L 476.033498 441.07894 
L 476.762927 441.07894 
L 481.810909 441.07894 
L 479.976923 440.845157 
L 480.612108 440.845157 
L 483.042857 440.845157 
L 481.290517 440.611373 
L 481.884615 440.611373 
L 491.293727 440.611373 
L 489.76875 440.37759 
L 490.434545 440.37759 
L 499.245652 440.37759 
L 497.936842 440.143807 
L 498.423313 440.143807 
L 502.014857 440.143807 
L 500.802564 439.910024 
L 501.365915 439.910024 
L 501.504775 439.910024 
L 499.4175 439.442458 
L 499.559834 439.442458 
L 502.121842 439.442458 
L 501.004724 439.208675 
L 501.522078 439.208675 
L 504.070936 439.208675 
L 502.094377 438.741108 
L 502.449029 438.741108 
L 503.48266 438.741108 
L 502.470853 438.507325 
L 502.924648 438.507325 
L 503.915172 438.507325 
L 502.934862 438.273542 
L 503.37 438.273542 
L 505.726134 438.273542 
L 503.980687 437.805976 
L 504.280171 437.805976 
L 507.1644 437.805976 
L 506.30479 437.572193 
L 506.657228 437.572193 
L 507.09 437.572193 
L 506.247358 437.33841 
L 506.593398 437.33841 
L 507.6 437.33841 
L 506.783523 437.104627 
L 507.114474 437.104627 
L 508.156514 437.104627 
L 507.365934 436.870843 
L 507.681818 436.870843 
L 508.223698 436.870843 
L 507.45 436.63706 
L 507.758541 436.63706 
L 507.98708 436.63706 
L 507.224735 436.403277 
L 507.530526 436.403277 
L 507.98125 436.403277 
L 507.233449 436.169494 
L 507.533391 436.169494 
L 508.337331 436.169494 
L 506.883333 435.701928 
L 507.17709 435.701928 
L 508.994712 435.701928 
L 508.30272 435.468145 
L 508.64 435.468145 
L 509.037736 435.468145 
L 507.749296 435.000578 
L 508.017107 435.000578 
L 509.055842 435.000578 
L 508.400455 434.766795 
L 508.719248 434.766795 
L 509.157589 434.766795 
L 508.189838 434.299229 
L 509.935169 434.299229 
L 509.323836 434.065446 
L 509.614286 434.065446 
L 512.208661 434.065446 
L 511.637615 433.831663 
L 511.892578 433.831663 
L 513.726923 433.831663 
L 512.644678 433.364096 
L 512.879336 433.364096 
L 514.358511 433.364096 
L 513.841558 433.130313 
L 514.101524 433.130313 
L 514.818621 433.130313 
L 514.315385 432.89653 
L 514.564994 432.89653 
L 514.606264 432.89653 
L 513.242308 432.195181 
L 513.369335 432.195181 
L 513.745313 432.195181 
L 513.25786 431.961398 
L 513.507309 431.961398 
L 515.051274 431.961398 
L 514.586214 431.727614 
L 514.815174 431.727614 
L 515.190407 431.727614 
L 514.733438 431.493831 
L 514.957453 431.493831 
L 515.46949 431.493831 
L 514.575458 431.026265 
L 514.795445 431.026265 
L 515.191892 431.026265 
L 514.49672 430.558699 
L 514.532771 430.558699 
L 514.995 430.558699 
L 514.565524 430.324916 
L 514.777215 430.324916 
L 515.363793 430.324916 
L 514.943828 430.091133 
L 515.148525 430.091133 
L 515.550988 430.091133 
L 515.138346 429.857349 
L 515.338318 429.857349 
L 515.957025 429.857349 
L 515.553853 429.623566 
L 515.746807 429.623566 
L 517.680776 429.623566 
L 517.300775 429.389783 
L 517.501541 429.389783 
L 517.615188 429.389783 
L 517.23913 429.156 
L 517.43822 429.156 
L 517.746348 429.156 
L 517.376174 428.922217 
L 517.571309 428.922217 
L 518.513776 428.922217 
L 518.15587 428.688434 
L 518.339855 428.688434 
L 520.095126 428.688434 
L 519.539318 428.220867 
L 519.610204 428.220867 
L 522.881123 428.220867 
L 522.57931 427.987084 
L 522.75 427.987084 
L 523.249901 427.987084 
L 522.955211 427.753301 
L 523.119541 427.753301 
L 523.513187 427.753301 
L 523.224419 427.519518 
L 523.383815 427.519518 
L 524.053759 427.519518 
L 523.561798 427.051952 
L 523.663433 427.051952 
L 524.686535 427.051952 
L 524.418481 426.818169 
L 524.575327 426.818169 
L 526.335275 426.818169 
L 525.850664 426.350602 
L 525.988051 426.350602 
L 526.483486 426.350602 
L 526.15774 425.883036 
L 526.328138 425.883036 
L 526.088995 425.649253 
L 526.245642 425.649253 
L 526.502352 425.649253 
L 526.267241 425.41547 
L 526.420093 425.41547 
L 526.546023 425.41547 
L 526.107062 424.947904 
L 526.233692 424.947904 
L 526.654688 424.947904 
L 526.427909 424.71412 
L 526.574362 424.71412 
L 526.979911 424.71412 
L 526.758219 424.480337 
L 526.911051 424.480337 
L 528.266375 424.480337 
L 528.058091 424.246554 
L 528.20394 424.246554 
L 528.719785 424.246554 
L 528.355446 423.778988 
L 528.4552 423.778988 
L 528.465127 423.778988 
L 528.264432 423.545205 
L 528.403663 423.545205 
L 528.452972 423.545205 
L 528.254049 423.311422 
L 528.392126 423.311422 
L 528.538201 423.311422 
L 528.341833 423.077639 
L 528.477591 423.077639 
L 529.105204 423.077639 
L 528.915352 422.843855 
L 529.052188 422.843855 
L 529.947482 422.843855 
L 529.66969 422.376289 
L 529.72 422.376289 
L 530.446897 422.376289 
L 530.273037 422.142506 
L 530.405822 422.142506 
L 530.605614 422.142506 
L 530.434576 421.908723 
L 530.571717 421.908723 
L 530.707023 421.908723 
L 530.538299 421.67494 
L 530.672878 421.67494 
L 531.340671 421.67494 
L 531.135542 421.207373 
L 531.149469 421.207373 
L 531.232616 421.207373 
L 530.995895 420.739807 
L 531.044417 420.739807 
L 531.699594 420.739807 
L 531.545602 420.506024 
L 531.675 420.506024 
L 531.809009 420.506024 
L 531.437604 419.804675 
L 531.482483 419.804675 
L 533.196228 419.804675 
L 533.058462 419.570892 
L 533.185984 419.570892 
L 533.557784 419.570892 
L 533.376735 419.103325 
L 533.417277 419.103325 
L 533.651707 419.103325 
L 533.394495 418.635759 
L 533.51344 418.635759 
L 533.865439 418.635759 
L 533.737897 418.401976 
L 533.860714 418.401976 
L 533.865403 418.401976 
L 533.716332 417.93441 
L 533.7351 417.93441 
L 534.217854 417.93441 
L 534.01397 417.466843 
L 534.098411 417.466843 
L 534.269104 417.466843 
L 534.149175 417.23306 
L 534.270429 417.23306 
L 534.453241 417.23306 
L 534.336294 416.765494 
L 534.340495 416.765494 
L 534.344694 416.765494 
L 534.115473 416.297928 
L 534.233713 416.297928 
L 534.622689 416.297928 
L 534.460925 415.830361 
L 534.517018 415.830361 
L 534.572727 415.830361 
L 534.460811 415.596578 
L 534.583632 415.596578 
L 534.750972 415.596578 
L 534.641027 415.362795 
L 534.760324 415.362795 
L 535.0381 415.362795 
L 534.930814 415.129012 
L 535.052403 415.129012 
L 535.197308 415.129012 
L 534.99 414.661446 
L 535.105454 414.661446 
L 535.166106 414.661446 
L 535.057823 414.19388 
L 535.079121 414.19388 
L 535.10036 414.19388 
L 534.997118 413.960096 
L 535.117158 413.960096 
L 535.449814 413.960096 
L 535.340417 413.49253 
L 535.367245 413.49253 
L 535.440544 413.49253 
L 535.315979 413.024964 
L 535.362398 413.024964 
L 535.82729 413.024964 
L 535.731914 412.791181 
L 535.849876 412.791181 
L 535.938665 412.791181 
L 535.844595 412.557398 
L 535.963071 412.557398 
L 536.897792 412.557398 
L 536.741326 412.089831 
L 536.839472 412.089831 
L 536.969944 412.089831 
L 536.883891 411.856048 
L 536.999944 411.856048 
L 537.081301 411.856048 
L 536.996463 411.622265 
L 537.112438 411.622265 
L 537.46084 411.622265 
L 537.378804 411.388482 
L 537.494831 411.388482 
L 537.501869 411.388482 
L 537.420592 411.154699 
L 537.537504 411.154699 
L 537.572181 411.154699 
L 537.491826 410.920916 
L 537.609069 410.920916 
L 537.81763 410.920916 
L 537.739215 410.687133 
L 537.855829 410.687133 
L 538.464697 410.687133 
L 538.30846 409.985783 
L 538.358108 409.985783 
L 538.481489 409.985783 
L 538.408782 409.752 
L 538.524696 409.752 
L 538.65909 409.752 
L 538.587835 409.518217 
L 538.703467 409.518217 
L 538.771435 409.518217 
L 538.693566 409.050651 
L 538.746361 409.050651 
L 538.748173 409.050651 
L 538.678683 408.816867 
L 538.794193 408.816867 
L 538.900502 408.816867 
L 538.832271 408.583084 
L 538.947698 408.583084 
L 539.013152 408.583084 
L 538.945946 408.349301 
L 539.060239 408.349301 
L 539.646103 408.349301 
L 539.582789 408.115518 
L 539.696631 408.115518 
L 540.037421 408.115518 
L 539.97663 407.881735 
L 540.090397 407.881735 
L 540.122267 407.881735 
L 540.06229 407.647952 
L 540.17636 407.647952 
L 540.552778 407.647952 
L 540.544552 407.180386 
L 540.552063 407.180386 
L 540.991483 407.180386 
L 540.972508 406.712819 
L 540.996339 406.712819 
L 541.287429 406.712819 
L 541.235357 406.479036 
L 541.348655 406.479036 
L 541.437789 406.479036 
L 541.373048 406.01147 
L 541.448619 406.01147 
L 541.87869 406.01147 
L 541.830598 405.777687 
L 541.943173 405.777687 
L 542.020221 405.777687 
L 541.955579 405.31012 
L 542.038592 405.31012 
L 542.347491 405.31012 
L 542.30262 405.076337 
L 542.415681 405.076337 
L 542.656383 405.076337 
L 542.656383 405.076337 
" style="fill:none;stroke:#ff7f0e;stroke-linecap:square;stroke-width:2;"/>
   </g>
   <g id="line2d_47">
    <path clip-path="url(#pa5d63f9a7f)" d="M 76.5 448.326217 
L 76.5 447.157301 
L 144.257143 447.157301 
L 135.7875 446.923518 
L 218.79 446.923518 
L 195.075 446.455952 
L 284.00625 446.455952 
L 271.8 446.222169 
L 301.168421 446.222169 
L 279.771429 445.754602 
L 303.33913 445.754602 
L 269.733333 444.81947 
L 289.117241 444.81947 
L 263.345455 443.884337 
L 279.771429 443.884337 
L 258.923077 442.949205 
L 273.160976 442.949205 
L 264.013953 442.481639 
L 276.76 442.481639 
L 272.406522 442.247855 
L 284.00625 442.247855 
L 275.706 441.780289 
L 286.286538 441.780289 
L 282.328302 441.546506 
L 287.3 441.546506 
L 283.467273 441.312723 
L 292.847368 441.312723 
L 289.117241 441.07894 
L 301.986885 441.07894 
L 281.79403 439.676241 
L 278.775 439.442458 
L 282.717391 439.442458 
L 276.908451 438.974892 
L 284.412329 438.974892 
L 281.602703 438.741108 
L 292.090909 438.741108 
L 281.444444 437.805976 
L 284.729268 437.805976 
L 282.220482 437.572193 
L 288.54 437.572193 
L 286.074419 437.33841 
L 289.117241 437.33841 
L 282.03 436.63706 
L 284.983516 436.63706 
L 282.717391 436.403277 
L 285.6 436.403277 
L 281.197895 435.935711 
L 284.00625 435.935711 
L 277.718182 435.234361 
L 280.449 435.234361 
L 272.604808 434.299229 
L 277.853774 434.299229 
L 272.311927 433.59788 
L 274.843636 433.59788 
L 269.577876 432.89653 
L 272.044737 432.89653 
L 270.344348 432.662747 
L 275.138462 432.662747 
L 271.8 432.195181 
L 276.41157 432.195181 
L 271.575 431.493831 
L 273.8088 431.493831 
L 272.242857 431.260048 
L 274.43622 431.260048 
L 271.367442 430.792482 
L 273.516923 430.792482 
L 270.531818 430.324916 
L 278.775 430.324916 
L 275.843478 429.857349 
L 277.821583 429.857349 
L 276.383571 429.623566 
L 278.329787 429.623566 
L 275.506993 429.156 
L 279.304138 429.156 
L 277.915068 428.922217 
L 279.771429 428.922217 
L 278.397973 428.688434 
L 280.226174 428.688434 
L 278.868 428.454651 
L 285.931169 428.454651 
L 284.58 428.220867 
L 291.277358 428.220867 
L 289.935 427.987084 
L 293.155556 427.987084 
L 291.82638 427.753301 
L 299.533929 427.753301 
L 298.214201 427.519518 
L 302.619767 427.519518 
L 300.02069 427.051952 
L 302.870455 427.051952 
L 297.84 426.116819 
L 303.33913 426.116819 
L 296.175789 424.71412 
L 301.425773 424.71412 
L 293.592537 423.077639 
L 294.865842 423.077639 
L 292.725 422.610072 
L 293.983902 422.610072 
L 292.928155 422.376289 
L 299.038863 422.376289 
L 297.989151 422.142506 
L 300.351869 422.142506 
L 299.310698 421.908723 
L 301.628571 421.908723 
L 300.595872 421.67494 
L 301.738356 421.67494 
L 299.7 421.207373 
L 300.831081 421.207373 
L 297.84 420.506024 
L 304.41039 420.506024 
L 303.428017 420.272241 
L 306.585957 420.272241 
L 305.611017 420.038458 
L 307.671429 420.038458 
L 306.704184 419.804675 
L 309.730165 419.804675 
L 308.77037 419.570892 
L 309.762295 419.570892 
L 307.865854 419.103325 
L 311.7528 419.103325 
L 309.885714 418.635759 
L 312.72 418.635759 
L 311.797266 418.401976 
L 313.65 418.401976 
L 312.734363 418.168193 
L 320.729104 418.168193 
L 319.82119 417.93441 
L 320.676667 417.93441 
L 319.775646 417.700627 
L 322.305109 417.700627 
L 321.411273 417.466843 
L 322.242391 417.466843 
L 321.355235 417.23306 
L 323.813571 417.23306 
L 321.191873 416.531711 
L 322.803158 416.531711 
L 321.941958 416.297928 
L 324.317647 416.297928 
L 323.463103 416.064145 
L 327.316271 416.064145 
L 326.468919 415.830361 
L 327.224242 415.830361 
L 326.382886 415.596578 
L 328.619601 415.596578 
L 327.784768 415.362795 
L 328.520792 415.362795 
L 327.691776 415.129012 
L 329.871987 415.129012 
L 329.049351 414.895229 
L 329.76699 414.895229 
L 328.95 414.661446 
L 330.372115 414.661446 
L 329.561022 414.427663 
L 330.965714 414.427663 
L 330.160443 414.19388 
L 331.548113 414.19388 
L 330.748589 413.960096 
L 331.43625 413.960096 
L 330.642056 413.726313 
L 333.351692 413.726313 
L 332.563804 413.49253 
L 333.231193 413.49253 
L 331.670517 413.024964 
L 332.334545 413.024964 
L 330.793373 412.557398 
L 333.4125 412.557398 
L 332.650148 412.323614 
L 333.295562 412.323614 
L 332.538053 412.089831 
L 333.18 412.089831 
L 332.427273 411.856048 
L 333.065789 411.856048 
L 331.574128 411.388482 
L 332.209565 411.388482 
L 330.005172 410.687133 
L 334.358873 410.687133 
L 333.634551 410.453349 
L 334.847765 410.453349 
L 334.128134 410.219566 
L 336.515702 410.219566 
L 335.801374 409.985783 
L 336.97623 409.985783 
L 332.775 408.583084 
L 335.094415 408.583084 
L 333.047493 407.881735 
L 334.190551 407.881735 
L 333.515969 407.647952 
L 334.08329 407.647952 
L 333.4125 407.414169 
L 333.977143 407.414169 
L 333.310104 407.180386 
L 341.445636 407.180386 
L 340.786567 406.946602 
L 341.307692 406.946602 
L 339.350985 406.245253 
L 340.3875 406.245253 
L 339.742298 406.01147 
L 341.279126 406.01147 
L 340 405.543904 
L 341.516547 405.543904 
L 340.251551 405.076337 
L 340.752857 405.076337 
L 340.125178 404.842554 
L 340.624408 404.842554 
L 340 404.608771 
L 340.992 404.608771 
L 340.371127 404.374988 
L 343.29375 404.374988 
L 342.677598 404.141205 
L 343.157143 404.141205 
L 342.544138 403.907422 
L 343.497254 403.907422 
L 341.07551 402.972289 
L 342.960674 402.972289 
L 341.768456 402.504723 
L 342.235045 402.504723 
L 341.643207 402.27094 
L 343.031416 402.27094 
L 342.443046 402.037157 
L 343.358901 402.037157 
L 341.033333 401.102024 
L 341.489348 401.102024 
L 340.914534 400.868241 
L 343.166524 400.868241 
L 341.460768 400.166892 
L 343.231078 400.166892 
L 342.668354 399.933108 
L 344.410042 399.933108 
L 343.850731 399.699325 
L 345.564596 399.699325 
L 345.008678 399.465542 
L 345.43299 399.465542 
L 344.87963 399.231759 
L 345.302464 399.231759 
L 344.203067 398.764193 
L 346.707273 398.764193 
L 346.1625 398.53041 
L 347.392786 398.53041 
L 346.851 398.296627 
L 347.258084 398.296627 
L 346.718725 398.062843 
L 347.124453 398.062843 
L 346.5875 397.82906 
L 350.560506 397.82906 
L 350.02835 397.595277 
L 350.417442 397.595277 
L 349.887621 397.361494 
L 353.7 397.361494 
L 352.651985 396.893928 
L 354.139024 396.893928 
L 353.619101 396.660145 
L 354.354851 396.660145 
L 353.321933 396.192578 
L 355.140331 396.192578 
L 354.628125 395.958795 
L 355.704022 395.958795 
L 354.686885 395.491229 
L 357.155935 395.491229 
L 356.652065 395.257446 
L 357.346691 395.257446 
L 356.845179 395.023663 
L 357.190909 395.023663 
L 356.193783 394.556096 
L 357.906866 394.556096 
L 357.412302 394.322313 
L 359.7625 394.322313 
L 359.271577 394.08853 
L 362.534412 394.08853 
L 361.08 393.387181 
L 363.304523 393.387181 
L 362.824916 393.153398 
L 366.522787 393.153398 
L 366.048118 392.919614 
L 367.249756 392.919614 
L 366.77776 392.685831 
L 367.669628 392.685831 
L 367.2 392.452048 
L 367.495652 392.452048 
L 367.027814 392.218265 
L 369.361429 392.218265 
L 368.897306 391.984482 
L 369.185127 391.984482 
L 368.722749 391.750699 
L 369.009937 391.750699 
L 368.549291 391.516916 
L 371.374884 391.516916 
L 370.918421 391.283133 
L 374.46692 391.283133 
L 374.015455 391.049349 
L 376.132635 391.049349 
L 375.684753 390.815566 
L 376.206706 390.815566 
L 375.760714 390.581783 
L 376.538667 390.581783 
L 376.094822 390.348 
L 376.610177 390.348 
L 376.168189 390.114217 
L 378.702758 390.114217 
L 378.264783 389.880434 
L 381.935745 389.880434 
L 381.503116 389.646651 
L 382.456901 389.646651 
L 381.597472 389.179084 
L 386.892245 389.179084 
L 386.273171 388.711518 
L 388.689453 388.711518 
L 388.2732 388.477735 
L 388.489614 388.477735 
L 388.920717 388.477735 
L 388.506366 388.243952 
L 388.721325 388.243952 
L 389.149538 388.243952 
L 388.737071 388.010169 
L 388.950593 388.010169 
L 389.587795 388.010169 
L 389.177457 387.776386 
L 389.389005 387.776386 
L 389.6 387.776386 
L 389.191253 387.542602 
L 389.401956 387.542602 
L 390.030779 387.542602 
L 389.624125 387.308819 
L 389.832902 387.308819 
L 390.041138 387.308819 
L 389.636047 387.075036 
L 389.844 387.075036 
L 390.051418 387.075036 
L 389.647876 386.841253 
L 389.855013 386.841253 
L 390.882759 386.841253 
L 389.887548 386.139904 
L 390.498608 386.139904 
L 390.101643 385.90612 
L 390.304545 385.90612 
L 394.64226 385.90612 
L 394.251902 385.672337 
L 394.44375 385.672337 
L 394.826039 385.672337 
L 394.24056 385.204771 
L 397.781786 385.204771 
L 397.201068 384.737205 
L 397.745745 384.737205 
L 397.36647 384.503422 
L 397.547406 384.503422 
L 398.087662 384.503422 
L 397.710211 384.269639 
L 397.889683 384.269639 
L 399.836458 384.269639 
L 399.089723 383.802072 
L 399.264706 383.802072 
L 399.439286 383.802072 
L 398.871527 383.334506 
L 399.219588 383.334506 
L 398.850343 383.100723 
L 399.024 383.100723 
L 399.19726 383.100723 
L 398.829304 382.86694 
L 399.002392 382.86694 
L 399.861948 382.86694 
L 399.30237 382.399373 
L 399.473168 382.399373 
L 399.109459 382.16559 
L 399.28009 382.16559 
L 399.958791 382.16559 
L 399.405134 381.698024 
L 400.245283 381.698024 
L 399.528239 381.230458 
L 399.695575 381.230458 
L 399.862541 381.230458 
L 399.149504 380.762892 
L 399.31652 380.762892 
L 399.649451 380.762892 
L 399.107119 380.295325 
L 400.097497 380.295325 
L 399.394788 379.827759 
L 399.559002 379.827759 
L 399.72286 379.827759 
L 399.373052 379.593976 
L 399.536757 379.593976 
L 400.833762 379.593976 
L 400.48651 379.360193 
L 400.647273 379.360193 
L 401.286901 379.360193 
L 400.756051 378.892627 
L 401.390486 378.892627 
L 401.047413 378.658843 
L 401.20538 378.658843 
L 402.76691 378.658843 
L 402.241935 378.191277 
L 403.923148 378.191277 
L 403.586639 377.957494 
L 403.737782 377.957494 
L 404.935845 377.957494 
L 404.601729 377.723711 
L 404.750305 377.723711 
L 404.898579 377.723711 
L 404.565517 377.489928 
L 404.713678 377.489928 
L 404.861538 377.489928 
L 404.529525 377.256145 
L 404.677273 377.256145 
L 404.824723 377.256145 
L 404.163444 376.788578 
L 404.310966 376.788578 
L 405.625424 376.788578 
L 405.29761 376.554795 
L 405.442388 376.554795 
L 406.447826 376.554795 
L 406.122113 376.321012 
L 406.264793 376.321012 
L 406.407192 376.321012 
L 406.08248 376.087229 
L 406.224779 376.087229 
L 407.492982 376.087229 
L 407.170691 375.853446 
L 407.310409 375.853446 
L 407.589029 375.853446 
L 407.267895 375.619663 
L 407.406977 375.619663 
L 408.783109 375.619663 
L 408.464525 375.38588 
L 408.600862 375.38588 
L 409.816239 375.38588 
L 409.5 375.152096 
L 409.633934 375.152096 
L 413.156562 375.152096 
L 412.845706 374.918313 
L 412.97297 374.918313 
L 414.977727 374.918313 
L 414.487126 374.450747 
L 415.346757 374.450747 
L 415.041764 374.216964 
L 415.163849 374.216964 
L 416.132679 374.216964 
L 415.345996 373.515614 
L 415.58659 373.515614 
L 414.685562 372.814265 
L 414.806018 372.814265 
L 415.166108 372.814265 
L 414.86746 372.580482 
L 414.987225 372.580482 
L 417.454412 372.580482 
L 417.159723 372.346699 
L 417.27513 372.346699 
L 418.077425 372.346699 
L 417.784477 372.112916 
L 417.898458 372.112916 
L 419.47392 372.112916 
L 419.183756 371.879133 
L 419.295013 371.879133 
L 419.406081 371.879133 
L 418.939006 371.411566 
L 419.271429 371.411566 
L 418.983627 371.177783 
L 419.094211 371.177783 
L 419.20461 371.177783 
L 418.917588 370.944 
L 419.02795 370.944 
L 420.338028 370.944 
L 420.053394 370.710217 
L 420.161538 370.710217 
L 420.484901 370.710217 
L 420.201319 370.476434 
L 420.308896 370.476434 
L 420.630567 370.476434 
L 420.34803 370.242651 
L 420.455045 370.242651 
L 421.199266 370.242651 
L 420.918337 370.008867 
L 421.024104 370.008867 
L 421.655105 370.008867 
L 421.375628 369.775084 
L 421.48034 369.775084 
L 421.689257 369.775084 
L 421.410654 369.541301 
L 421.515 369.541301 
L 422.034217 369.541301 
L 421.756902 369.307518 
L 421.860385 369.307518 
L 423.493824 369.307518 
L 423.219304 369.073735 
L 423.320158 369.073735 
L 423.621767 369.073735 
L 423.075118 368.606169 
L 423.17561 368.606169 
L 423.775255 368.606169 
L 423.331875 368.138602 
L 424.123602 368.138602 
L 423.853918 367.904819 
L 423.952326 367.904819 
L 424.246636 367.904819 
L 423.977898 367.671036 
L 424.07583 367.671036 
L 424.95046 367.671036 
L 424.683448 367.437253 
L 424.780015 367.437253 
L 424.876435 367.437253 
L 424.610092 367.20347 
L 424.706494 367.20347 
L 426.41688 367.20347 
L 426.153389 366.969687 
L 426.247178 366.969687 
L 428.002745 366.969687 
L 427.742179 366.735904 
L 427.833333 366.735904 
L 428.647682 366.735904 
L 428.220264 366.268337 
L 428.847042 366.268337 
L 428.589854 366.034554 
L 428.678993 366.034554 
L 429.651013 366.034554 
L 429.395662 365.800771 
L 429.483382 365.800771 
L 430.526218 365.800771 
L 430.272799 365.566988 
L 430.359013 365.566988 
L 431.973959 365.566988 
L 431.723272 365.333205 
L 431.807188 365.333205 
L 431.974666 365.333205 
L 431.724684 365.099422 
L 431.808363 365.099422 
L 432.141906 365.099422 
L 431.892857 364.865639 
L 431.976067 364.865639 
L 435.525458 364.865639 
L 435.281886 364.631855 
L 435.438415 364.631855 
L 436.06031 364.631855 
L 435.4125 363.930506 
L 435.489993 363.930506 
L 436.867286 363.930506 
L 436.628316 363.696723 
L 436.779536 363.696723 
L 437.380435 363.696723 
L 437.142857 363.46294 
L 437.292308 363.46294 
L 438.254237 363.46294 
L 437.856734 362.995373 
L 437.930169 362.995373 
L 438.51423 362.995373 
L 438.28022 362.76159 
L 438.4255 362.76159 
L 438.498 362.76159 
L 438.264603 362.527807 
L 438.40953 362.527807 
L 438.698266 362.527807 
L 438.465789 362.294024 
L 438.609808 362.294024 
L 438.681678 362.294024 
L 438.449808 362.060241 
L 438.593478 362.060241 
L 438.665176 362.060241 
L 438.433908 361.826458 
L 438.577232 361.826458 
L 439.5 361.826458 
L 439.111932 361.358892 
L 439.182397 361.358892 
L 440.159662 361.358892 
L 439.705372 360.891325 
L 439.84398 360.891325 
L 440.326398 360.891325 
L 440.012454 360.423759 
L 440.354602 360.423759 
L 440.13 360.189976 
L 440.266461 360.189976 
L 441.346154 360.189976 
L 441.123551 359.956193 
L 441.257221 359.956193 
L 441.854727 359.956193 
L 441.633434 359.72241 
L 441.765517 359.72241 
L 442.746043 359.72241 
L 442.526603 359.488627 
L 442.656194 359.488627 
L 443.363436 359.488627 
L 443.145455 359.254843 
L 443.273234 359.254843 
L 443.781335 359.254843 
L 443.564522 359.02106 
L 443.690979 359.02106 
L 444.939336 359.02106 
L 444.724752 358.787277 
L 444.848168 358.787277 
L 445.277868 358.787277 
L 445.064331 358.553494 
L 445.18664 358.553494 
L 446.095011 358.553494 
L 445.883209 358.319711 
L 446.00332 358.319711 
L 447.656451 358.319711 
L 447.238717 357.852145 
L 447.355143 357.852145 
L 447.587213 357.852145 
L 447.379204 357.618361 
L 447.495017 357.618361 
L 447.725866 357.618361 
L 447.518593 357.384578 
L 447.633798 357.384578 
L 447.977877 357.384578 
L 447.565353 356.917012 
L 447.679867 356.917012 
L 448.643077 356.917012 
L 448.438715 356.683229 
L 448.551015 356.683229 
L 450.960739 356.683229 
L 450.760278 356.449446 
L 450.867273 356.449446 
L 451.39883 356.449446 
L 451.199522 356.215663 
L 451.305311 356.215663 
L 451.568803 356.215663 
L 451.370249 355.98188 
L 451.47541 355.98188 
L 452.720209 355.98188 
L 452.523852 355.748096 
L 452.62633 355.748096 
L 453.28726 355.748096 
L 453.092236 355.514313 
L 453.193278 355.514313 
L 455.557114 355.514313 
L 455.365961 355.28053 
L 455.462116 355.28053 
L 456.17715 355.28053 
L 455.845282 354.812964 
L 455.94 354.812964 
L 456.31699 354.812964 
L 455.987054 354.345398 
L 456.081021 354.345398 
L 456.268398 354.345398 
L 456.080672 354.111614 
L 456.220928 354.111614 
L 456.360769 354.111614 
L 456.173645 353.877831 
L 456.313281 353.877831 
L 456.683635 353.877831 
L 456.497453 353.644048 
L 456.635795 353.644048 
L 457.862838 353.644048 
L 457.678871 353.410265 
L 457.813439 353.410265 
L 458.392101 353.410265 
L 458.209378 353.176482 
L 458.342093 353.176482 
L 459.390269 353.176482 
L 459.20949 352.942699 
L 459.339038 352.942699 
L 459.682715 352.942699 
L 459.502817 352.708916 
L 459.631224 352.708916 
L 460.520056 352.708916 
L 460.163822 352.241349 
L 460.289764 352.241349 
L 460.582271 352.241349 
L 460.40503 352.007566 
L 460.53 352.007566 
L 461.435995 352.007566 
L 461.260465 351.773783 
L 461.382787 351.773783 
L 461.545364 351.773783 
L 461.370423 351.54 
L 461.492151 351.54 
L 461.774898 351.54 
L 461.600723 351.306217 
L 461.721535 351.306217 
L 462.872727 351.306217 
L 462.700624 351.072434 
L 462.818194 351.072434 
L 463.40137 351.072434 
L 463.175794 350.604867 
L 464.731702 350.604867 
L 464.563636 350.371084 
L 464.675486 350.371084 
L 464.749892 350.371084 
L 464.582254 350.137301 
L 464.69379 350.137301 
L 464.879045 350.137301 
L 464.619201 349.669735 
L 464.656204 349.669735 
L 465.097779 349.669735 
L 464.766069 349.202169 
L 464.876087 349.202169 
L 466.351948 349.202169 
L 466.188693 348.968386 
L 466.294856 348.968386 
L 466.400752 348.968386 
L 466.237954 348.734602 
L 466.343745 348.734602 
L 468.739182 348.734602 
L 468.580316 348.500819 
L 468.713304 348.500819 
L 469.469712 348.500819 
L 469.03068 347.79947 
L 469.128686 347.79947 
L 470.634 347.79947 
L 470.479498 347.565687 
L 470.605245 347.565687 
L 471.320714 347.565687 
L 471.167623 347.331904 
L 471.290941 347.331904 
L 471.383179 347.331904 
L 471.139575 346.864337 
L 471.201042 346.864337 
L 472.081763 346.864337 
L 471.930892 346.630554 
L 472.051028 346.630554 
L 474.828361 346.630554 
L 474.682079 346.396771 
L 474.793729 346.396771 
L 474.932833 346.396771 
L 474.75263 345.929205 
L 475.522451 345.929205 
L 475.378244 345.695422 
L 475.487117 345.695422 
L 475.67689 345.695422 
L 475.471003 345.227855 
L 475.49806 345.227855 
L 476.008491 345.227855 
L 475.866013 344.994072 
L 475.972756 344.994072 
L 477.435859 344.994072 
L 477.207427 344.526506 
L 477.284326 344.526506 
L 477.717071 344.526506 
L 477.578193 344.292723 
L 477.704699 344.292723 
L 477.729948 344.292723 
L 477.591402 344.05894 
L 477.71758 344.05894 
L 477.81821 344.05894 
L 477.68011 343.825157 
L 477.805703 343.825157 
L 478.229508 343.825157 
L 478.092352 343.591373 
L 478.216258 343.591373 
L 478.560957 343.591373 
L 478.424619 343.35759 
L 478.547123 343.35759 
L 478.912159 343.35759 
L 478.776667 343.123807 
L 478.897714 343.123807 
L 479.018356 343.123807 
L 478.883328 342.890024 
L 479.003751 342.890024 
L 479.599867 342.890024 
L 479.466036 342.656241 
L 479.584256 342.656241 
L 480.377876 342.656241 
L 480.245544 342.422458 
L 480.360942 342.422458 
L 480.498923 342.422458 
L 480.367069 342.188675 
L 480.481818 342.188675 
L 481.27471 342.188675 
L 481.144348 341.954892 
L 481.256334 341.954892 
L 481.301028 341.954892 
L 481.170993 341.721108 
L 481.282649 341.721108 
L 481.659617 341.721108 
L 481.467611 341.253542 
L 481.511744 341.253542 
L 481.665767 341.253542 
L 481.537143 341.019759 
L 481.64691 341.019759 
L 482.039206 341.019759 
L 481.911437 340.785976 
L 482.019786 340.785976 
L 482.662792 340.785976 
L 482.536262 340.552193 
L 482.642426 340.552193 
L 482.769388 340.552193 
L 482.643296 340.31841 
L 482.7489 340.31841 
L 483.126379 340.31841 
L 483.001109 340.084627 
L 483.126199 340.084627 
L 483.84679 340.084627 
L 483.721457 339.61706 
L 484.186438 339.61706 
L 484.063603 339.383277 
L 484.18403 339.383277 
L 484.244081 339.383277 
L 484.121598 339.149494 
L 484.241559 339.149494 
L 484.756442 339.149494 
L 484.635009 338.915711 
L 484.75288 338.915711 
L 484.889867 338.915711 
L 484.768898 338.681928 
L 484.886044 338.681928 
L 485.080366 338.681928 
L 484.959947 338.448145 
L 485.076169 338.448145 
L 485.211245 338.448145 
L 485.029288 337.980578 
L 485.087083 337.980578 
L 485.904455 337.980578 
L 485.786061 337.746795 
L 485.898672 337.746795 
L 487.577784 337.746795 
L 487.462215 337.513012 
L 487.568875 337.513012 
L 487.869134 337.513012 
L 487.754259 337.279229 
L 487.877258 337.279229 
L 487.947327 337.279229 
L 487.832814 337.045446 
L 487.95525 337.045446 
L 488.129335 337.045446 
L 488.015342 336.811663 
L 488.136816 336.811663 
L 490.050965 336.811663 
L 489.878405 336.344096 
L 489.943545 336.344096 
L 491.727867 336.344096 
L 491.620156 336.110313 
L 491.727421 336.110313 
L 491.834298 336.110313 
L 491.726977 335.87653 
L 491.84884 335.87653 
L 492.894073 335.87653 
L 492.78863 335.642747 
L 492.905914 335.642747 
L 493.008148 335.642747 
L 492.795521 334.941398 
L 492.810113 334.941398 
L 493.244494 334.941398 
L 493.140464 334.707614 
L 493.255381 334.707614 
L 493.441147 334.707614 
L 493.337637 334.473831 
L 493.451536 334.473831 
L 493.494132 334.473831 
L 493.390916 334.240048 
L 493.504373 334.240048 
L 493.631476 334.240048 
L 493.528684 334.006265 
L 493.641367 334.006265 
L 495.293193 334.006265 
L 495.186177 333.538699 
L 495.212673 333.538699 
L 496.162772 333.538699 
L 496.064537 333.304916 
L 496.179608 333.304916 
L 497.450719 333.304916 
L 497.354699 333.071133 
L 497.464193 333.071133 
L 498.016896 333.071133 
L 497.921959 332.837349 
L 498.040787 332.837349 
L 498.347252 332.837349 
L 498.229282 332.369783 
L 498.276136 332.369783 
L 498.451099 332.369783 
L 498.357416 332.136 
L 498.473593 332.136 
L 498.508346 332.136 
L 498.286343 331.434651 
L 498.344305 331.434651 
L 498.928291 331.434651 
L 498.742683 330.733301 
L 498.765346 330.733301 
L 499.336663 330.733301 
L 499.245652 330.499518 
L 499.356379 330.499518 
L 499.488625 330.499518 
L 499.316154 329.798169 
L 499.327152 329.798169 
L 499.578827 329.798169 
L 499.442675 329.330602 
L 499.508015 329.330602 
L 500.374109 329.330602 
L 500.271161 328.863036 
L 500.313181 328.863036 
L 500.63648 328.863036 
L 500.548885 328.629253 
L 500.662786 328.629253 
L 500.878806 328.629253 
L 500.791754 328.39547 
L 500.904339 328.39547 
L 500.914549 328.39547 
L 500.827721 328.161687 
L 500.939927 328.161687 
L 501.888406 328.161687 
L 501.803243 327.927904 
L 501.920671 327.927904 
L 502.642031 327.927904 
L 502.558194 327.69412 
L 502.671816 327.69412 
L 502.822481 327.69412 
L 502.739085 327.460337 
L 502.851639 327.460337 
L 503.497844 327.460337 
L 503.41565 327.226554 
L 503.524851 327.226554 
L 504.098862 327.226554 
L 504.017754 326.992771 
L 504.132829 326.992771 
L 504.168123 326.992771 
L 504.087278 326.758988 
L 504.201791 326.758988 
L 504.254455 326.758988 
L 504.093372 326.291422 
L 504.207419 326.291422 
L 504.268599 326.291422 
L 504.178113 325.823855 
L 504.221717 325.823855 
L 505.068595 325.823855 
L 504.989901 325.590072 
L 505.098992 325.590072 
L 505.58764 325.590072 
L 505.509893 325.356289 
L 505.624489 325.356289 
L 505.640813 325.356289 
L 505.563295 325.122506 
L 505.677405 325.122506 
L 506.03232 325.122506 
L 505.95555 324.888723 
L 506.067481 324.888723 
L 506.131191 324.888723 
L 505.909838 324.187373 
L 506.013419 324.187373 
L 506.19551 324.187373 
L 506.119565 323.95359 
L 506.229848 323.95359 
L 506.742506 323.95359 
L 506.667538 323.719807 
L 506.782586 323.719807 
L 506.88181 323.719807 
L 506.807195 323.486024 
L 506.921304 323.486024 
L 507.042369 323.486024 
L 506.968138 323.252241 
L 507.081204 323.252241 
L 507.914575 323.252241 
L 507.841811 323.018458 
L 507.957426 323.018458 
L 508.022187 323.018458 
L 507.92048 322.550892 
L 507.992281 322.550892 
L 508.347708 322.550892 
L 508.276009 322.317108 
L 508.388674 322.317108 
L 508.584407 322.317108 
L 508.5132 322.083325 
L 508.624408 322.083325 
L 509.131228 322.083325 
L 509.060984 321.849542 
L 509.175874 321.849542 
L 509.615988 321.849542 
L 509.546612 321.615759 
L 509.658642 321.615759 
L 509.671782 321.615759 
L 509.553231 321.148193 
L 509.645168 321.148193 
L 509.931462 321.148193 
L 509.862947 320.91441 
L 509.972663 320.91441 
L 510.094593 320.91441 
L 510.02645 320.680627 
L 510.141467 320.680627 
L 510.501445 320.680627 
L 510.434043 320.446843 
L 510.54657 320.446843 
L 511.31103 320.446843 
L 511.244979 320.21306 
L 511.358816 320.21306 
L 512.097458 320.21306 
L 512.032724 319.979277 
L 512.147607 319.979277 
L 512.426214 319.979277 
L 512.303661 319.511711 
L 512.410909 319.511711 
L 512.439033 319.511711 
L 512.375168 319.277928 
L 512.487423 319.277928 
L 514.467004 319.277928 
L 514.370924 318.810361 
L 514.456427 318.810361 
L 514.769819 318.810361 
L 514.70984 318.576578 
L 514.823083 318.576578 
L 514.974596 318.576578 
L 514.915037 318.342795 
L 515.026798 318.342795 
L 516.175478 318.342795 
L 516.164637 317.875229 
L 516.173684 317.875229 
L 516.558272 317.875229 
L 516.501446 317.641446 
L 516.611816 317.641446 
L 518.174033 317.641446 
L 518.119786 317.407663 
L 518.231787 317.407663 
L 518.31925 317.407663 
L 518.265324 317.17388 
L 518.376134 317.17388 
L 518.657639 317.17388 
L 518.604328 316.940096 
L 518.716508 316.940096 
L 518.770385 316.940096 
L 518.725853 316.47253 
L 518.775681 316.47253 
L 518.874875 316.47253 
L 518.793062 315.771181 
L 518.827249 315.771181 
L 519.101871 315.771181 
L 519.0498 315.537398 
L 519.161465 315.537398 
L 520.642809 315.537398 
L 520.593184 315.303614 
L 520.704152 315.303614 
L 521.648501 315.303614 
L 521.609167 314.836048 
L 521.665593 314.836048 
L 522.072808 314.836048 
L 522.024162 314.368482 
L 522.090921 314.368482 
L 522.28039 314.368482 
L 522.233696 314.134699 
L 522.346948 314.134699 
L 524.148725 314.134699 
L 524.104983 313.900916 
L 524.216678 313.900916 
L 525.581058 313.900916 
L 525.581058 313.900916 
" style="fill:none;stroke:#2ca02c;stroke-linecap:square;stroke-width:2;"/>
   </g>
   <g id="patch_3">
    <path d="M 76.5 448.56 
L 76.5 60.48 
" style="fill:none;stroke:#000000;stroke-linecap:square;stroke-linejoin:miter;stroke-width:0.8;"/>
   </g>
   <g id="patch_4">
    <path d="M 550.8 448.56 
L 550.8 60.48 
" style="fill:none;stroke:#000000;stroke-linecap:square;stroke-linejoin:miter;stroke-width:0.8;"/>
   </g>
   <g id="patch_5">
    <path d="M 76.5 448.56 
L 550.8 448.56 
" style="fill:none;stroke:#000000;stroke-linecap:square;stroke-linejoin:miter;stroke-width:0.8;"/>
   </g>
   <g id="patch_6">
    <path d="M 76.5 60.48 
L 550.8 60.48 
" style="fill:none;stroke:#000000;stroke-linecap:square;stroke-linejoin:miter;stroke-width:0.8;"/>
   </g>
   <g id="text_25">
    <!-- wall: img1-img6 -->
    <defs>
     <path d="M 4.203125 54.6875 
L 13.1875 54.6875 
L 24.421875 12.015625 
L 35.59375 54.6875 
L 46.1875 54.6875 
L 57.421875 12.015625 
L 68.609375 54.6875 
L 77.59375 54.6875 
L 63.28125 0 
L 52.6875 0 
L 40.921875 44.828125 
L 29.109375 0 
L 18.5 0 
z
" id="DejaVuSans-119"/>
     <path d="M 34.28125 27.484375 
Q 23.390625 27.484375 19.1875 25 
Q 14.984375 22.515625 14.984375 16.5 
Q 14.984375 11.71875 18.140625 8.90625 
Q 21.296875 6.109375 26.703125 6.109375 
Q 34.1875 6.109375 38.703125 11.40625 
Q 43.21875 16.703125 43.21875 25.484375 
L 43.21875 27.484375 
z
M 52.203125 31.203125 
L 52.203125 0 
L 43.21875 0 
L 43.21875 8.296875 
Q 40.140625 3.328125 35.546875 0.953125 
Q 30.953125 -1.421875 24.3125 -1.421875 
Q 15.921875 -1.421875 10.953125 3.296875 
Q 6 8.015625 6 15.921875 
Q 6 25.140625 12.171875 29.828125 
Q 18.359375 34.515625 30.609375 34.515625 
L 43.21875 34.515625 
L 43.21875 35.40625 
Q 43.21875 41.609375 39.140625 45 
Q 35.0625 48.390625 27.6875 48.390625 
Q 23 48.390625 18.546875 47.265625 
Q 14.109375 46.140625 10.015625 43.890625 
L 10.015625 52.203125 
Q 14.9375 54.109375 19.578125 55.046875 
Q 24.21875 56 28.609375 56 
Q 40.484375 56 46.34375 49.84375 
Q 52.203125 43.703125 52.203125 31.203125 
z
" id="DejaVuSans-97"/>
     <path d="M 9.421875 75.984375 
L 18.40625 75.984375 
L 18.40625 0 
L 9.421875 0 
z
" id="DejaVuSans-108"/>
     <path d="M 11.71875 12.40625 
L 22.015625 12.40625 
L 22.015625 0 
L 11.71875 0 
z
M 11.71875 51.703125 
L 22.015625 51.703125 
L 22.015625 39.3125 
L 11.71875 39.3125 
z
" id="DejaVuSans-58"/>
     <path id="DejaVuSans-32"/>
     <path d="M 52 44.1875 
Q 55.375 50.25 60.0625 53.125 
Q 64.75 56 71.09375 56 
Q 79.640625 56 84.28125 50.015625 
Q 88.921875 44.046875 88.921875 33.015625 
L 88.921875 0 
L 79.890625 0 
L 79.890625 32.71875 
Q 79.890625 40.578125 77.09375 44.375 
Q 74.3125 48.1875 68.609375 48.1875 
Q 61.625 48.1875 57.5625 43.546875 
Q 53.515625 38.921875 53.515625 30.90625 
L 53.515625 0 
L 44.484375 0 
L 44.484375 32.71875 
Q 44.484375 40.625 41.703125 44.40625 
Q 38.921875 48.1875 33.109375 48.1875 
Q 26.21875 48.1875 22.15625 43.53125 
Q 18.109375 38.875 18.109375 30.90625 
L 18.109375 0 
L 9.078125 0 
L 9.078125 54.6875 
L 18.109375 54.6875 
L 18.109375 46.1875 
Q 21.1875 51.21875 25.484375 53.609375 
Q 29.78125 56 35.6875 56 
Q 41.65625 56 45.828125 52.96875 
Q 50 49.953125 52 44.1875 
z
" id="DejaVuSans-109"/>
     <path d="M 45.40625 27.984375 
Q 45.40625 37.75 41.375 43.109375 
Q 37.359375 48.484375 30.078125 48.484375 
Q 22.859375 48.484375 18.828125 43.109375 
Q 14.796875 37.75 14.796875 27.984375 
Q 14.796875 18.265625 18.828125 12.890625 
Q 22.859375 7.515625 30.078125 7.515625 
Q 37.359375 7.515625 41.375 12.890625 
Q 45.40625 18.265625 45.40625 27.984375 
z
M 54.390625 6.78125 
Q 54.390625 -7.171875 48.1875 -13.984375 
Q 42 -20.796875 29.203125 -20.796875 
Q 24.46875 -20.796875 20.265625 -20.09375 
Q 16.0625 -19.390625 12.109375 -17.921875 
L 12.109375 -9.1875 
Q 16.0625 -11.328125 19.921875 -12.34375 
Q 23.78125 -13.375 27.78125 -13.375 
Q 36.625 -13.375 41.015625 -8.765625 
Q 45.40625 -4.15625 45.40625 5.171875 
L 45.40625 9.625 
Q 42.625 4.78125 38.28125 2.390625 
Q 33.9375 0 27.875 0 
Q 17.828125 0 11.671875 7.65625 
Q 5.515625 15.328125 5.515625 27.984375 
Q 5.515625 40.671875 11.671875 48.328125 
Q 17.828125 56 27.875 56 
Q 33.9375 56 38.28125 53.609375 
Q 42.625 51.21875 45.40625 46.390625 
L 45.40625 54.6875 
L 54.390625 54.6875 
z
" id="DejaVuSans-103"/>
    </defs>
    <g transform="translate(265.364063 41.042625)scale(0.12 -0.12)">
     <use xlink:href="#DejaVuSans-119"/>
     <use x="81.787109" xlink:href="#DejaVuSans-97"/>
     <use x="143.066406" xlink:href="#DejaVuSans-108"/>
     <use x="170.849609" xlink:href="#DejaVuSans-108"/>
     <use x="198.632812" xlink:href="#DejaVuSans-58"/>
     <use x="232.324219" xlink:href="#DejaVuSans-32"/>
     <use x="264.111328" xlink:href="#DejaVuSans-105"/>
     <use x="291.894531" xlink:href="#DejaVuSans-109"/>
     <use x="389.306641" xlink:href="#DejaVuSans-103"/>
     <use x="452.783203" xlink:href="#DejaVuSans-49"/>
     <use x="516.40625" xlink:href="#DejaVuSans-45"/>
     <use x="552.490234" xlink:href="#DejaVuSans-105"/>
     <use x="580.273438" xlink:href="#DejaVuSans-109"/>
     <use x="677.685547" xlink:href="#DejaVuSans-103"/>
     <use x="741.162109" xlink:href="#DejaVuSans-54"/>
    </g>
    <!-- NearestNeighbours -->
    <defs>
     <path d="M 9.8125 72.90625 
L 23.09375 72.90625 
L 55.421875 11.921875 
L 55.421875 72.90625 
L 64.984375 72.90625 
L 64.984375 0 
L 51.703125 0 
L 19.390625 60.984375 
L 19.390625 0 
L 9.8125 0 
z
" id="DejaVuSans-78"/>
     <path d="M 54.890625 33.015625 
L 54.890625 0 
L 45.90625 0 
L 45.90625 32.71875 
Q 45.90625 40.484375 42.875 44.328125 
Q 39.84375 48.1875 33.796875 48.1875 
Q 26.515625 48.1875 22.3125 43.546875 
Q 18.109375 38.921875 18.109375 30.90625 
L 18.109375 0 
L 9.078125 0 
L 9.078125 75.984375 
L 18.109375 75.984375 
L 18.109375 46.1875 
Q 21.34375 51.125 25.703125 53.5625 
Q 30.078125 56 35.796875 56 
Q 45.21875 56 50.046875 50.171875 
Q 54.890625 44.34375 54.890625 33.015625 
z
" id="DejaVuSans-104"/>
     <path d="M 48.6875 27.296875 
Q 48.6875 37.203125 44.609375 42.84375 
Q 40.53125 48.484375 33.40625 48.484375 
Q 26.265625 48.484375 22.1875 42.84375 
Q 18.109375 37.203125 18.109375 27.296875 
Q 18.109375 17.390625 22.1875 11.75 
Q 26.265625 6.109375 33.40625 6.109375 
Q 40.53125 6.109375 44.609375 11.75 
Q 48.6875 17.390625 48.6875 27.296875 
z
M 18.109375 46.390625 
Q 20.953125 51.265625 25.265625 53.625 
Q 29.59375 56 35.59375 56 
Q 45.5625 56 51.78125 48.09375 
Q 58.015625 40.1875 58.015625 27.296875 
Q 58.015625 14.40625 51.78125 6.484375 
Q 45.5625 -1.421875 35.59375 -1.421875 
Q 29.59375 -1.421875 25.265625 0.953125 
Q 20.953125 3.328125 18.109375 8.203125 
L 18.109375 0 
L 9.078125 0 
L 9.078125 75.984375 
L 18.109375 75.984375 
z
" id="DejaVuSans-98"/>
     <path d="M 8.5 21.578125 
L 8.5 54.6875 
L 17.484375 54.6875 
L 17.484375 21.921875 
Q 17.484375 14.15625 20.5 10.265625 
Q 23.53125 6.390625 29.59375 6.390625 
Q 36.859375 6.390625 41.078125 11.03125 
Q 45.3125 15.671875 45.3125 23.6875 
L 45.3125 54.6875 
L 54.296875 54.6875 
L 54.296875 0 
L 45.3125 0 
L 45.3125 8.40625 
Q 42.046875 3.421875 37.71875 1 
Q 33.40625 -1.421875 27.6875 -1.421875 
Q 18.265625 -1.421875 13.375 4.4375 
Q 8.5 10.296875 8.5 21.578125 
z
M 31.109375 56 
z
" id="DejaVuSans-117"/>
    </defs>
    <g transform="translate(255.824063 54.48)scale(0.12 -0.12)">
     <use xlink:href="#DejaVuSans-78"/>
     <use x="74.804688" xlink:href="#DejaVuSans-101"/>
     <use x="136.328125" xlink:href="#DejaVuSans-97"/>
     <use x="197.607422" xlink:href="#DejaVuSans-114"/>
     <use x="238.689453" xlink:href="#DejaVuSans-101"/>
     <use x="300.212891" xlink:href="#DejaVuSans-115"/>
     <use x="352.3125" xlink:href="#DejaVuSans-116"/>
     <use x="391.521484" xlink:href="#DejaVuSans-78"/>
     <use x="466.326172" xlink:href="#DejaVuSans-101"/>
     <use x="527.849609" xlink:href="#DejaVuSans-105"/>
     <use x="555.632812" xlink:href="#DejaVuSans-103"/>
     <use x="619.109375" xlink:href="#DejaVuSans-104"/>
     <use x="682.488281" xlink:href="#DejaVuSans-98"/>
     <use x="745.964844" xlink:href="#DejaVuSans-111"/>
     <use x="807.146484" xlink:href="#DejaVuSans-117"/>
     <use x="870.525391" xlink:href="#DejaVuSans-114"/>
     <use x="911.638672" xlink:href="#DejaVuSans-115"/>
    </g>
   </g>
   <g id="legend_1">
    <g id="patch_7">
     <path d="M 374.989063 112.514375 
L 543.8 112.514375 
Q 545.8 112.514375 545.8 110.514375 
L 545.8 67.48 
Q 545.8 65.48 543.8 65.48 
L 374.989063 65.48 
Q 372.989063 65.48 372.989063 67.48 
L 372.989063 110.514375 
Q 372.989063 112.514375 374.989063 112.514375 
z
" style="fill:#ffffff;opacity:0.8;stroke:#cccccc;stroke-linejoin:miter;"/>
    </g>
    <g id="line2d_48">
     <path d="M 376.989063 73.578438 
L 396.989063 73.578438 
" style="fill:none;stroke:#1f77b4;stroke-linecap:square;stroke-width:2;"/>
    </g>
    <g id="line2d_49"/>
    <g id="text_26">
     <!-- root-cvsift AP: 1.0, %In: 1.7 -->
     <defs>
      <path d="M 2.984375 54.6875 
L 12.5 54.6875 
L 29.59375 8.796875 
L 46.6875 54.6875 
L 56.203125 54.6875 
L 35.6875 0 
L 23.484375 0 
z
" id="DejaVuSans-118"/>
      <path d="M 37.109375 75.984375 
L 37.109375 68.5 
L 28.515625 68.5 
Q 23.6875 68.5 21.796875 66.546875 
Q 19.921875 64.59375 19.921875 59.515625 
L 19.921875 54.6875 
L 34.71875 54.6875 
L 34.71875 47.703125 
L 19.921875 47.703125 
L 19.921875 0 
L 10.890625 0 
L 10.890625 47.703125 
L 2.296875 47.703125 
L 2.296875 54.6875 
L 10.890625 54.6875 
L 10.890625 58.5 
Q 10.890625 67.625 15.140625 71.796875 
Q 19.390625 75.984375 28.609375 75.984375 
z
" id="DejaVuSans-102"/>
      <path d="M 34.1875 63.1875 
L 20.796875 26.90625 
L 47.609375 26.90625 
z
M 28.609375 72.90625 
L 39.796875 72.90625 
L 67.578125 0 
L 57.328125 0 
L 50.6875 18.703125 
L 17.828125 18.703125 
L 11.1875 0 
L 0.78125 0 
z
" id="DejaVuSans-65"/>
      <path d="M 19.671875 64.796875 
L 19.671875 37.40625 
L 32.078125 37.40625 
Q 38.96875 37.40625 42.71875 40.96875 
Q 46.484375 44.53125 46.484375 51.125 
Q 46.484375 57.671875 42.71875 61.234375 
Q 38.96875 64.796875 32.078125 64.796875 
z
M 9.8125 72.90625 
L 32.078125 72.90625 
Q 44.34375 72.90625 50.609375 67.359375 
Q 56.890625 61.8125 56.890625 51.125 
Q 56.890625 40.328125 50.609375 34.8125 
Q 44.34375 29.296875 32.078125 29.296875 
L 19.671875 29.296875 
L 19.671875 0 
L 9.8125 0 
z
" id="DejaVuSans-80"/>
      <path d="M 11.71875 12.40625 
L 22.015625 12.40625 
L 22.015625 4 
L 14.015625 -11.625 
L 7.71875 -11.625 
L 11.71875 4 
z
" id="DejaVuSans-44"/>
      <path d="M 72.703125 32.078125 
Q 68.453125 32.078125 66.03125 28.46875 
Q 63.625 24.859375 63.625 18.40625 
Q 63.625 12.0625 66.03125 8.421875 
Q 68.453125 4.78125 72.703125 4.78125 
Q 76.859375 4.78125 79.265625 8.421875 
Q 81.6875 12.0625 81.6875 18.40625 
Q 81.6875 24.8125 79.265625 28.4375 
Q 76.859375 32.078125 72.703125 32.078125 
z
M 72.703125 38.28125 
Q 80.421875 38.28125 84.953125 32.90625 
Q 89.5 27.546875 89.5 18.40625 
Q 89.5 9.28125 84.9375 3.921875 
Q 80.375 -1.421875 72.703125 -1.421875 
Q 64.890625 -1.421875 60.34375 3.921875 
Q 55.8125 9.28125 55.8125 18.40625 
Q 55.8125 27.59375 60.375 32.9375 
Q 64.9375 38.28125 72.703125 38.28125 
z
M 22.3125 68.015625 
Q 18.109375 68.015625 15.6875 64.375 
Q 13.28125 60.75 13.28125 54.390625 
Q 13.28125 47.953125 15.671875 44.328125 
Q 18.0625 40.71875 22.3125 40.71875 
Q 26.5625 40.71875 28.96875 44.328125 
Q 31.390625 47.953125 31.390625 54.390625 
Q 31.390625 60.6875 28.953125 64.34375 
Q 26.515625 68.015625 22.3125 68.015625 
z
M 66.40625 74.21875 
L 74.21875 74.21875 
L 28.609375 -1.421875 
L 20.796875 -1.421875 
z
M 22.3125 74.21875 
Q 30.03125 74.21875 34.609375 68.875 
Q 39.203125 63.53125 39.203125 54.390625 
Q 39.203125 45.171875 34.640625 39.84375 
Q 30.078125 34.515625 22.3125 34.515625 
Q 14.546875 34.515625 10.03125 39.859375 
Q 5.515625 45.21875 5.515625 54.390625 
Q 5.515625 63.484375 10.046875 68.84375 
Q 14.59375 74.21875 22.3125 74.21875 
z
" id="DejaVuSans-37"/>
      <path d="M 9.8125 72.90625 
L 19.671875 72.90625 
L 19.671875 0 
L 9.8125 0 
z
" id="DejaVuSans-73"/>
     </defs>
     <g transform="translate(404.989063 77.078438)scale(0.1 -0.1)">
      <use xlink:href="#DejaVuSans-114"/>
      <use x="41.082031" xlink:href="#DejaVuSans-111"/>
      <use x="102.263672" xlink:href="#DejaVuSans-111"/>
      <use x="163.445312" xlink:href="#DejaVuSans-116"/>
      <use x="202.654297" xlink:href="#DejaVuSans-45"/>
      <use x="238.738281" xlink:href="#DejaVuSans-99"/>
      <use x="293.71875" xlink:href="#DejaVuSans-118"/>
      <use x="352.898438" xlink:href="#DejaVuSans-115"/>
      <use x="404.998047" xlink:href="#DejaVuSans-105"/>
      <use x="432.78125" xlink:href="#DejaVuSans-102"/>
      <use x="467.970703" xlink:href="#DejaVuSans-116"/>
      <use x="507.179688" xlink:href="#DejaVuSans-32"/>
      <use x="538.966797" xlink:href="#DejaVuSans-65"/>
      <use x="607.375" xlink:href="#DejaVuSans-80"/>
      <use x="667.677734" xlink:href="#DejaVuSans-58"/>
      <use x="701.369141" xlink:href="#DejaVuSans-32"/>
      <use x="733.15625" xlink:href="#DejaVuSans-49"/>
      <use x="796.779297" xlink:href="#DejaVuSans-46"/>
      <use x="828.566406" xlink:href="#DejaVuSans-48"/>
      <use x="892.189453" xlink:href="#DejaVuSans-44"/>
      <use x="923.976562" xlink:href="#DejaVuSans-32"/>
      <use x="955.763672" xlink:href="#DejaVuSans-37"/>
      <use x="1050.783203" xlink:href="#DejaVuSans-73"/>
      <use x="1080.275391" xlink:href="#DejaVuSans-110"/>
      <use x="1143.654297" xlink:href="#DejaVuSans-58"/>
      <use x="1177.345703" xlink:href="#DejaVuSans-32"/>
      <use x="1209.132812" xlink:href="#DejaVuSans-49"/>
      <use x="1272.755859" xlink:href="#DejaVuSans-46"/>
      <use x="1304.542969" xlink:href="#DejaVuSans-55"/>
     </g>
    </g>
    <g id="line2d_50">
     <path d="M 376.989063 88.256563 
L 396.989063 88.256563 
" style="fill:none;stroke:#ff7f0e;stroke-linecap:square;stroke-width:2;"/>
    </g>
    <g id="line2d_51"/>
    <g id="text_27">
     <!-- tfeat AP: 0.9, %In: 1.7 -->
     <g transform="translate(404.989063 91.756563)scale(0.1 -0.1)">
      <use xlink:href="#DejaVuSans-116"/>
      <use x="39.208984" xlink:href="#DejaVuSans-102"/>
      <use x="74.414062" xlink:href="#DejaVuSans-101"/>
      <use x="135.9375" xlink:href="#DejaVuSans-97"/>
      <use x="197.216797" xlink:href="#DejaVuSans-116"/>
      <use x="236.425781" xlink:href="#DejaVuSans-32"/>
      <use x="268.212891" xlink:href="#DejaVuSans-65"/>
      <use x="336.621094" xlink:href="#DejaVuSans-80"/>
      <use x="396.923828" xlink:href="#DejaVuSans-58"/>
      <use x="430.615234" xlink:href="#DejaVuSans-32"/>
      <use x="462.402344" xlink:href="#DejaVuSans-48"/>
      <use x="526.025391" xlink:href="#DejaVuSans-46"/>
      <use x="557.8125" xlink:href="#DejaVuSans-57"/>
      <use x="621.435547" xlink:href="#DejaVuSans-44"/>
      <use x="653.222656" xlink:href="#DejaVuSans-32"/>
      <use x="685.009766" xlink:href="#DejaVuSans-37"/>
      <use x="780.029297" xlink:href="#DejaVuSans-73"/>
      <use x="809.521484" xlink:href="#DejaVuSans-110"/>
      <use x="872.900391" xlink:href="#DejaVuSans-58"/>
      <use x="906.591797" xlink:href="#DejaVuSans-32"/>
      <use x="938.378906" xlink:href="#DejaVuSans-49"/>
      <use x="1002.001953" xlink:href="#DejaVuSans-46"/>
      <use x="1033.789062" xlink:href="#DejaVuSans-55"/>
     </g>
    </g>
    <g id="line2d_52">
     <path d="M 376.989063 102.934687 
L 396.989063 102.934687 
" style="fill:none;stroke:#2ca02c;stroke-linecap:square;stroke-width:2;"/>
    </g>
    <g id="line2d_53"/>
    <g id="text_28">
     <!-- hardnet AP: 11.5, %In: 5.3 -->
     <defs>
      <path d="M 45.40625 46.390625 
L 45.40625 75.984375 
L 54.390625 75.984375 
L 54.390625 0 
L 45.40625 0 
L 45.40625 8.203125 
Q 42.578125 3.328125 38.25 0.953125 
Q 33.9375 -1.421875 27.875 -1.421875 
Q 17.96875 -1.421875 11.734375 6.484375 
Q 5.515625 14.40625 5.515625 27.296875 
Q 5.515625 40.1875 11.734375 48.09375 
Q 17.96875 56 27.875 56 
Q 33.9375 56 38.25 53.625 
Q 42.578125 51.265625 45.40625 46.390625 
z
M 14.796875 27.296875 
Q 14.796875 17.390625 18.875 11.75 
Q 22.953125 6.109375 30.078125 6.109375 
Q 37.203125 6.109375 41.296875 11.75 
Q 45.40625 17.390625 45.40625 27.296875 
Q 45.40625 37.203125 41.296875 42.84375 
Q 37.203125 48.484375 30.078125 48.484375 
Q 22.953125 48.484375 18.875 42.84375 
Q 14.796875 37.203125 14.796875 27.296875 
z
" id="DejaVuSans-100"/>
     </defs>
     <g transform="translate(404.989063 106.434687)scale(0.1 -0.1)">
      <use xlink:href="#DejaVuSans-104"/>
      <use x="63.378906" xlink:href="#DejaVuSans-97"/>
      <use x="124.658203" xlink:href="#DejaVuSans-114"/>
      <use x="165.755859" xlink:href="#DejaVuSans-100"/>
      <use x="229.232422" xlink:href="#DejaVuSans-110"/>
      <use x="292.611328" xlink:href="#DejaVuSans-101"/>
      <use x="354.134766" xlink:href="#DejaVuSans-116"/>
      <use x="393.34375" xlink:href="#DejaVuSans-32"/>
      <use x="425.130859" xlink:href="#DejaVuSans-65"/>
      <use x="493.539062" xlink:href="#DejaVuSans-80"/>
      <use x="553.841797" xlink:href="#DejaVuSans-58"/>
      <use x="587.533203" xlink:href="#DejaVuSans-32"/>
      <use x="619.320312" xlink:href="#DejaVuSans-49"/>
      <use x="682.943359" xlink:href="#DejaVuSans-49"/>
      <use x="746.566406" xlink:href="#DejaVuSans-46"/>
      <use x="778.353516" xlink:href="#DejaVuSans-53"/>
      <use x="841.976562" xlink:href="#DejaVuSans-44"/>
      <use x="873.763672" xlink:href="#DejaVuSans-32"/>
      <use x="905.550781" xlink:href="#DejaVuSans-37"/>
      <use x="1000.570312" xlink:href="#DejaVuSans-73"/>
      <use x="1030.0625" xlink:href="#DejaVuSans-110"/>
      <use x="1093.441406" xlink:href="#DejaVuSans-58"/>
      <use x="1127.132812" xlink:href="#DejaVuSans-32"/>
      <use x="1158.919922" xlink:href="#DejaVuSans-53"/>
      <use x="1222.542969" xlink:href="#DejaVuSans-46"/>
      <use x="1254.330078" xlink:href="#DejaVuSans-51"/>
     </g>
    </g>
   </g>
  </g>
 </g>
 <defs>
  <clipPath id="pa5d63f9a7f">
   <rect height="388.08" width="474.3" x="76.5" y="60.48"/>
  </clipPath>
 </defs>
</svg>
