<?xml version="1.0" encoding="utf-8" standalone="no"?>
<!DOCTYPE svg PUBLIC "-//W3C//DTD SVG 1.1//EN"
  "http://www.w3.org/Graphics/SVG/1.1/DTD/svg11.dtd">
<!-- Created with matplotlib (https://matplotlib.org/) -->
<svg height="504pt" version="1.1" viewBox="0 0 612 504" width="612pt" xmlns="http://www.w3.org/2000/svg" xmlns:xlink="http://www.w3.org/1999/xlink">
 <defs>
  <style type="text/css">
*{stroke-linecap:butt;stroke-linejoin:round;}
  </style>
 </defs>
 <g id="figure_1">
  <g id="patch_1">
   <path d="M 0 504 
L 612 504 
L 612 0 
L 0 0 
z
" style="fill:#ffffff;"/>
  </g>
  <g id="axes_1">
   <g id="patch_2">
    <path d="M 76.5 448.56 
L 550.8 448.56 
L 550.8 60.48 
L 76.5 60.48 
z
" style="fill:#ffffff;"/>
   </g>
   <g id="matplotlib.axis_1">
    <g id="xtick_1">
     <g id="line2d_1">
      <path clip-path="url(#p3e697f7f67)" d="M 76.5 448.56 
L 76.5 60.48 
" style="fill:none;stroke:#b0b0b0;stroke-linecap:square;stroke-width:0.8;"/>
     </g>
     <g id="line2d_2">
      <defs>
       <path d="M 0 0 
L 0 3.5 
" id="m9ebb9a64d9" style="stroke:#000000;stroke-width:0.8;"/>
      </defs>
      <g>
       <use style="stroke:#000000;stroke-width:0.8;" x="76.5" xlink:href="#m9ebb9a64d9" y="448.56"/>
      </g>
     </g>
     <g id="text_1">
      <!-- 0.0 -->
      <defs>
       <path d="M 31.78125 66.40625 
Q 24.171875 66.40625 20.328125 58.90625 
Q 16.5 51.421875 16.5 36.375 
Q 16.5 21.390625 20.328125 13.890625 
Q 24.171875 6.390625 31.78125 6.390625 
Q 39.453125 6.390625 43.28125 13.890625 
Q 47.125 21.390625 47.125 36.375 
Q 47.125 51.421875 43.28125 58.90625 
Q 39.453125 66.40625 31.78125 66.40625 
z
M 31.78125 74.21875 
Q 44.046875 74.21875 50.515625 64.515625 
Q 56.984375 54.828125 56.984375 36.375 
Q 56.984375 17.96875 50.515625 8.265625 
Q 44.046875 -1.421875 31.78125 -1.421875 
Q 19.53125 -1.421875 13.0625 8.265625 
Q 6.59375 17.96875 6.59375 36.375 
Q 6.59375 54.828125 13.0625 64.515625 
Q 19.53125 74.21875 31.78125 74.21875 
z
" id="DejaVuSans-48"/>
       <path d="M 10.6875 12.40625 
L 21 12.40625 
L 21 0 
L 10.6875 0 
z
" id="DejaVuSans-46"/>
      </defs>
      <g transform="translate(68.548438 463.158437)scale(0.1 -0.1)">
       <use xlink:href="#DejaVuSans-48"/>
       <use x="63.623047" xlink:href="#DejaVuSans-46"/>
       <use x="95.410156" xlink:href="#DejaVuSans-48"/>
      </g>
     </g>
    </g>
    <g id="xtick_2">
     <g id="line2d_3">
      <path clip-path="url(#p3e697f7f67)" d="M 123.93 448.56 
L 123.93 60.48 
" style="fill:none;stroke:#b0b0b0;stroke-linecap:square;stroke-width:0.8;"/>
     </g>
     <g id="line2d_4">
      <g>
       <use style="stroke:#000000;stroke-width:0.8;" x="123.93" xlink:href="#m9ebb9a64d9" y="448.56"/>
      </g>
     </g>
     <g id="text_2">
      <!-- 0.1 -->
      <defs>
       <path d="M 12.40625 8.296875 
L 28.515625 8.296875 
L 28.515625 63.921875 
L 10.984375 60.40625 
L 10.984375 69.390625 
L 28.421875 72.90625 
L 38.28125 72.90625 
L 38.28125 8.296875 
L 54.390625 8.296875 
L 54.390625 0 
L 12.40625 0 
z
" id="DejaVuSans-49"/>
      </defs>
      <g transform="translate(115.978438 463.158437)scale(0.1 -0.1)">
       <use xlink:href="#DejaVuSans-48"/>
       <use x="63.623047" xlink:href="#DejaVuSans-46"/>
       <use x="95.410156" xlink:href="#DejaVuSans-49"/>
      </g>
     </g>
    </g>
    <g id="xtick_3">
     <g id="line2d_5">
      <path clip-path="url(#p3e697f7f67)" d="M 171.36 448.56 
L 171.36 60.48 
" style="fill:none;stroke:#b0b0b0;stroke-linecap:square;stroke-width:0.8;"/>
     </g>
     <g id="line2d_6">
      <g>
       <use style="stroke:#000000;stroke-width:0.8;" x="171.36" xlink:href="#m9ebb9a64d9" y="448.56"/>
      </g>
     </g>
     <g id="text_3">
      <!-- 0.2 -->
      <defs>
       <path d="M 19.1875 8.296875 
L 53.609375 8.296875 
L 53.609375 0 
L 7.328125 0 
L 7.328125 8.296875 
Q 12.9375 14.109375 22.625 23.890625 
Q 32.328125 33.6875 34.8125 36.53125 
Q 39.546875 41.84375 41.421875 45.53125 
Q 43.3125 49.21875 43.3125 52.78125 
Q 43.3125 58.59375 39.234375 62.25 
Q 35.15625 65.921875 28.609375 65.921875 
Q 23.96875 65.921875 18.8125 64.3125 
Q 13.671875 62.703125 7.8125 59.421875 
L 7.8125 69.390625 
Q 13.765625 71.78125 18.9375 73 
Q 24.125 74.21875 28.421875 74.21875 
Q 39.75 74.21875 46.484375 68.546875 
Q 53.21875 62.890625 53.21875 53.421875 
Q 53.21875 48.921875 51.53125 44.890625 
Q 49.859375 40.875 45.40625 35.40625 
Q 44.1875 33.984375 37.640625 27.21875 
Q 31.109375 20.453125 19.1875 8.296875 
z
" id="DejaVuSans-50"/>
      </defs>
      <g transform="translate(163.408438 463.158437)scale(0.1 -0.1)">
       <use xlink:href="#DejaVuSans-48"/>
       <use x="63.623047" xlink:href="#DejaVuSans-46"/>
       <use x="95.410156" xlink:href="#DejaVuSans-50"/>
      </g>
     </g>
    </g>
    <g id="xtick_4">
     <g id="line2d_7">
      <path clip-path="url(#p3e697f7f67)" d="M 218.79 448.56 
L 218.79 60.48 
" style="fill:none;stroke:#b0b0b0;stroke-linecap:square;stroke-width:0.8;"/>
     </g>
     <g id="line2d_8">
      <g>
       <use style="stroke:#000000;stroke-width:0.8;" x="218.79" xlink:href="#m9ebb9a64d9" y="448.56"/>
      </g>
     </g>
     <g id="text_4">
      <!-- 0.3 -->
      <defs>
       <path d="M 40.578125 39.3125 
Q 47.65625 37.796875 51.625 33 
Q 55.609375 28.21875 55.609375 21.1875 
Q 55.609375 10.40625 48.1875 4.484375 
Q 40.765625 -1.421875 27.09375 -1.421875 
Q 22.515625 -1.421875 17.65625 -0.515625 
Q 12.796875 0.390625 7.625 2.203125 
L 7.625 11.71875 
Q 11.71875 9.328125 16.59375 8.109375 
Q 21.484375 6.890625 26.8125 6.890625 
Q 36.078125 6.890625 40.9375 10.546875 
Q 45.796875 14.203125 45.796875 21.1875 
Q 45.796875 27.640625 41.28125 31.265625 
Q 36.765625 34.90625 28.71875 34.90625 
L 20.21875 34.90625 
L 20.21875 43.015625 
L 29.109375 43.015625 
Q 36.375 43.015625 40.234375 45.921875 
Q 44.09375 48.828125 44.09375 54.296875 
Q 44.09375 59.90625 40.109375 62.90625 
Q 36.140625 65.921875 28.71875 65.921875 
Q 24.65625 65.921875 20.015625 65.03125 
Q 15.375 64.15625 9.8125 62.3125 
L 9.8125 71.09375 
Q 15.4375 72.65625 20.34375 73.4375 
Q 25.25 74.21875 29.59375 74.21875 
Q 40.828125 74.21875 47.359375 69.109375 
Q 53.90625 64.015625 53.90625 55.328125 
Q 53.90625 49.265625 50.4375 45.09375 
Q 46.96875 40.921875 40.578125 39.3125 
z
" id="DejaVuSans-51"/>
      </defs>
      <g transform="translate(210.838438 463.158437)scale(0.1 -0.1)">
       <use xlink:href="#DejaVuSans-48"/>
       <use x="63.623047" xlink:href="#DejaVuSans-46"/>
       <use x="95.410156" xlink:href="#DejaVuSans-51"/>
      </g>
     </g>
    </g>
    <g id="xtick_5">
     <g id="line2d_9">
      <path clip-path="url(#p3e697f7f67)" d="M 266.22 448.56 
L 266.22 60.48 
" style="fill:none;stroke:#b0b0b0;stroke-linecap:square;stroke-width:0.8;"/>
     </g>
     <g id="line2d_10">
      <g>
       <use style="stroke:#000000;stroke-width:0.8;" x="266.22" xlink:href="#m9ebb9a64d9" y="448.56"/>
      </g>
     </g>
     <g id="text_5">
      <!-- 0.4 -->
      <defs>
       <path d="M 37.796875 64.3125 
L 12.890625 25.390625 
L 37.796875 25.390625 
z
M 35.203125 72.90625 
L 47.609375 72.90625 
L 47.609375 25.390625 
L 58.015625 25.390625 
L 58.015625 17.1875 
L 47.609375 17.1875 
L 47.609375 0 
L 37.796875 0 
L 37.796875 17.1875 
L 4.890625 17.1875 
L 4.890625 26.703125 
z
" id="DejaVuSans-52"/>
      </defs>
      <g transform="translate(258.268438 463.158437)scale(0.1 -0.1)">
       <use xlink:href="#DejaVuSans-48"/>
       <use x="63.623047" xlink:href="#DejaVuSans-46"/>
       <use x="95.410156" xlink:href="#DejaVuSans-52"/>
      </g>
     </g>
    </g>
    <g id="xtick_6">
     <g id="line2d_11">
      <path clip-path="url(#p3e697f7f67)" d="M 313.65 448.56 
L 313.65 60.48 
" style="fill:none;stroke:#b0b0b0;stroke-linecap:square;stroke-width:0.8;"/>
     </g>
     <g id="line2d_12">
      <g>
       <use style="stroke:#000000;stroke-width:0.8;" x="313.65" xlink:href="#m9ebb9a64d9" y="448.56"/>
      </g>
     </g>
     <g id="text_6">
      <!-- 0.5 -->
      <defs>
       <path d="M 10.796875 72.90625 
L 49.515625 72.90625 
L 49.515625 64.59375 
L 19.828125 64.59375 
L 19.828125 46.734375 
Q 21.96875 47.46875 24.109375 47.828125 
Q 26.265625 48.1875 28.421875 48.1875 
Q 40.625 48.1875 47.75 41.5 
Q 54.890625 34.8125 54.890625 23.390625 
Q 54.890625 11.625 47.5625 5.09375 
Q 40.234375 -1.421875 26.90625 -1.421875 
Q 22.3125 -1.421875 17.546875 -0.640625 
Q 12.796875 0.140625 7.71875 1.703125 
L 7.71875 11.625 
Q 12.109375 9.234375 16.796875 8.0625 
Q 21.484375 6.890625 26.703125 6.890625 
Q 35.15625 6.890625 40.078125 11.328125 
Q 45.015625 15.765625 45.015625 23.390625 
Q 45.015625 31 40.078125 35.4375 
Q 35.15625 39.890625 26.703125 39.890625 
Q 22.75 39.890625 18.8125 39.015625 
Q 14.890625 38.140625 10.796875 36.28125 
z
" id="DejaVuSans-53"/>
      </defs>
      <g transform="translate(305.698438 463.158437)scale(0.1 -0.1)">
       <use xlink:href="#DejaVuSans-48"/>
       <use x="63.623047" xlink:href="#DejaVuSans-46"/>
       <use x="95.410156" xlink:href="#DejaVuSans-53"/>
      </g>
     </g>
    </g>
    <g id="xtick_7">
     <g id="line2d_13">
      <path clip-path="url(#p3e697f7f67)" d="M 361.08 448.56 
L 361.08 60.48 
" style="fill:none;stroke:#b0b0b0;stroke-linecap:square;stroke-width:0.8;"/>
     </g>
     <g id="line2d_14">
      <g>
       <use style="stroke:#000000;stroke-width:0.8;" x="361.08" xlink:href="#m9ebb9a64d9" y="448.56"/>
      </g>
     </g>
     <g id="text_7">
      <!-- 0.6 -->
      <defs>
       <path d="M 33.015625 40.375 
Q 26.375 40.375 22.484375 35.828125 
Q 18.609375 31.296875 18.609375 23.390625 
Q 18.609375 15.53125 22.484375 10.953125 
Q 26.375 6.390625 33.015625 6.390625 
Q 39.65625 6.390625 43.53125 10.953125 
Q 47.40625 15.53125 47.40625 23.390625 
Q 47.40625 31.296875 43.53125 35.828125 
Q 39.65625 40.375 33.015625 40.375 
z
M 52.59375 71.296875 
L 52.59375 62.3125 
Q 48.875 64.0625 45.09375 64.984375 
Q 41.3125 65.921875 37.59375 65.921875 
Q 27.828125 65.921875 22.671875 59.328125 
Q 17.53125 52.734375 16.796875 39.40625 
Q 19.671875 43.65625 24.015625 45.921875 
Q 28.375 48.1875 33.59375 48.1875 
Q 44.578125 48.1875 50.953125 41.515625 
Q 57.328125 34.859375 57.328125 23.390625 
Q 57.328125 12.15625 50.6875 5.359375 
Q 44.046875 -1.421875 33.015625 -1.421875 
Q 20.359375 -1.421875 13.671875 8.265625 
Q 6.984375 17.96875 6.984375 36.375 
Q 6.984375 53.65625 15.1875 63.9375 
Q 23.390625 74.21875 37.203125 74.21875 
Q 40.921875 74.21875 44.703125 73.484375 
Q 48.484375 72.75 52.59375 71.296875 
z
" id="DejaVuSans-54"/>
      </defs>
      <g transform="translate(353.128438 463.158437)scale(0.1 -0.1)">
       <use xlink:href="#DejaVuSans-48"/>
       <use x="63.623047" xlink:href="#DejaVuSans-46"/>
       <use x="95.410156" xlink:href="#DejaVuSans-54"/>
      </g>
     </g>
    </g>
    <g id="xtick_8">
     <g id="line2d_15">
      <path clip-path="url(#p3e697f7f67)" d="M 408.51 448.56 
L 408.51 60.48 
" style="fill:none;stroke:#b0b0b0;stroke-linecap:square;stroke-width:0.8;"/>
     </g>
     <g id="line2d_16">
      <g>
       <use style="stroke:#000000;stroke-width:0.8;" x="408.51" xlink:href="#m9ebb9a64d9" y="448.56"/>
      </g>
     </g>
     <g id="text_8">
      <!-- 0.7 -->
      <defs>
       <path d="M 8.203125 72.90625 
L 55.078125 72.90625 
L 55.078125 68.703125 
L 28.609375 0 
L 18.3125 0 
L 43.21875 64.59375 
L 8.203125 64.59375 
z
" id="DejaVuSans-55"/>
      </defs>
      <g transform="translate(400.558438 463.158437)scale(0.1 -0.1)">
       <use xlink:href="#DejaVuSans-48"/>
       <use x="63.623047" xlink:href="#DejaVuSans-46"/>
       <use x="95.410156" xlink:href="#DejaVuSans-55"/>
      </g>
     </g>
    </g>
    <g id="xtick_9">
     <g id="line2d_17">
      <path clip-path="url(#p3e697f7f67)" d="M 455.94 448.56 
L 455.94 60.48 
" style="fill:none;stroke:#b0b0b0;stroke-linecap:square;stroke-width:0.8;"/>
     </g>
     <g id="line2d_18">
      <g>
       <use style="stroke:#000000;stroke-width:0.8;" x="455.94" xlink:href="#m9ebb9a64d9" y="448.56"/>
      </g>
     </g>
     <g id="text_9">
      <!-- 0.8 -->
      <defs>
       <path d="M 31.78125 34.625 
Q 24.75 34.625 20.71875 30.859375 
Q 16.703125 27.09375 16.703125 20.515625 
Q 16.703125 13.921875 20.71875 10.15625 
Q 24.75 6.390625 31.78125 6.390625 
Q 38.8125 6.390625 42.859375 10.171875 
Q 46.921875 13.96875 46.921875 20.515625 
Q 46.921875 27.09375 42.890625 30.859375 
Q 38.875 34.625 31.78125 34.625 
z
M 21.921875 38.8125 
Q 15.578125 40.375 12.03125 44.71875 
Q 8.5 49.078125 8.5 55.328125 
Q 8.5 64.0625 14.71875 69.140625 
Q 20.953125 74.21875 31.78125 74.21875 
Q 42.671875 74.21875 48.875 69.140625 
Q 55.078125 64.0625 55.078125 55.328125 
Q 55.078125 49.078125 51.53125 44.71875 
Q 48 40.375 41.703125 38.8125 
Q 48.828125 37.15625 52.796875 32.3125 
Q 56.78125 27.484375 56.78125 20.515625 
Q 56.78125 9.90625 50.3125 4.234375 
Q 43.84375 -1.421875 31.78125 -1.421875 
Q 19.734375 -1.421875 13.25 4.234375 
Q 6.78125 9.90625 6.78125 20.515625 
Q 6.78125 27.484375 10.78125 32.3125 
Q 14.796875 37.15625 21.921875 38.8125 
z
M 18.3125 54.390625 
Q 18.3125 48.734375 21.84375 45.5625 
Q 25.390625 42.390625 31.78125 42.390625 
Q 38.140625 42.390625 41.71875 45.5625 
Q 45.3125 48.734375 45.3125 54.390625 
Q 45.3125 60.0625 41.71875 63.234375 
Q 38.140625 66.40625 31.78125 66.40625 
Q 25.390625 66.40625 21.84375 63.234375 
Q 18.3125 60.0625 18.3125 54.390625 
z
" id="DejaVuSans-56"/>
      </defs>
      <g transform="translate(447.988438 463.158437)scale(0.1 -0.1)">
       <use xlink:href="#DejaVuSans-48"/>
       <use x="63.623047" xlink:href="#DejaVuSans-46"/>
       <use x="95.410156" xlink:href="#DejaVuSans-56"/>
      </g>
     </g>
    </g>
    <g id="xtick_10">
     <g id="line2d_19">
      <path clip-path="url(#p3e697f7f67)" d="M 503.37 448.56 
L 503.37 60.48 
" style="fill:none;stroke:#b0b0b0;stroke-linecap:square;stroke-width:0.8;"/>
     </g>
     <g id="line2d_20">
      <g>
       <use style="stroke:#000000;stroke-width:0.8;" x="503.37" xlink:href="#m9ebb9a64d9" y="448.56"/>
      </g>
     </g>
     <g id="text_10">
      <!-- 0.9 -->
      <defs>
       <path d="M 10.984375 1.515625 
L 10.984375 10.5 
Q 14.703125 8.734375 18.5 7.8125 
Q 22.3125 6.890625 25.984375 6.890625 
Q 35.75 6.890625 40.890625 13.453125 
Q 46.046875 20.015625 46.78125 33.40625 
Q 43.953125 29.203125 39.59375 26.953125 
Q 35.25 24.703125 29.984375 24.703125 
Q 19.046875 24.703125 12.671875 31.3125 
Q 6.296875 37.9375 6.296875 49.421875 
Q 6.296875 60.640625 12.9375 67.421875 
Q 19.578125 74.21875 30.609375 74.21875 
Q 43.265625 74.21875 49.921875 64.515625 
Q 56.59375 54.828125 56.59375 36.375 
Q 56.59375 19.140625 48.40625 8.859375 
Q 40.234375 -1.421875 26.421875 -1.421875 
Q 22.703125 -1.421875 18.890625 -0.6875 
Q 15.09375 0.046875 10.984375 1.515625 
z
M 30.609375 32.421875 
Q 37.25 32.421875 41.125 36.953125 
Q 45.015625 41.5 45.015625 49.421875 
Q 45.015625 57.28125 41.125 61.84375 
Q 37.25 66.40625 30.609375 66.40625 
Q 23.96875 66.40625 20.09375 61.84375 
Q 16.21875 57.28125 16.21875 49.421875 
Q 16.21875 41.5 20.09375 36.953125 
Q 23.96875 32.421875 30.609375 32.421875 
z
" id="DejaVuSans-57"/>
      </defs>
      <g transform="translate(495.418438 463.158437)scale(0.1 -0.1)">
       <use xlink:href="#DejaVuSans-48"/>
       <use x="63.623047" xlink:href="#DejaVuSans-46"/>
       <use x="95.410156" xlink:href="#DejaVuSans-57"/>
      </g>
     </g>
    </g>
    <g id="xtick_11">
     <g id="line2d_21">
      <path clip-path="url(#p3e697f7f67)" d="M 550.8 448.56 
L 550.8 60.48 
" style="fill:none;stroke:#b0b0b0;stroke-linecap:square;stroke-width:0.8;"/>
     </g>
     <g id="line2d_22">
      <g>
       <use style="stroke:#000000;stroke-width:0.8;" x="550.8" xlink:href="#m9ebb9a64d9" y="448.56"/>
      </g>
     </g>
     <g id="text_11">
      <!-- 1.0 -->
      <g transform="translate(542.848438 463.158437)scale(0.1 -0.1)">
       <use xlink:href="#DejaVuSans-49"/>
       <use x="63.623047" xlink:href="#DejaVuSans-46"/>
       <use x="95.410156" xlink:href="#DejaVuSans-48"/>
      </g>
     </g>
    </g>
    <g id="text_12">
     <!-- 1-precision -->
     <defs>
      <path d="M 4.890625 31.390625 
L 31.203125 31.390625 
L 31.203125 23.390625 
L 4.890625 23.390625 
z
" id="DejaVuSans-45"/>
      <path d="M 18.109375 8.203125 
L 18.109375 -20.796875 
L 9.078125 -20.796875 
L 9.078125 54.6875 
L 18.109375 54.6875 
L 18.109375 46.390625 
Q 20.953125 51.265625 25.265625 53.625 
Q 29.59375 56 35.59375 56 
Q 45.5625 56 51.78125 48.09375 
Q 58.015625 40.1875 58.015625 27.296875 
Q 58.015625 14.40625 51.78125 6.484375 
Q 45.5625 -1.421875 35.59375 -1.421875 
Q 29.59375 -1.421875 25.265625 0.953125 
Q 20.953125 3.328125 18.109375 8.203125 
z
M 48.6875 27.296875 
Q 48.6875 37.203125 44.609375 42.84375 
Q 40.53125 48.484375 33.40625 48.484375 
Q 26.265625 48.484375 22.1875 42.84375 
Q 18.109375 37.203125 18.109375 27.296875 
Q 18.109375 17.390625 22.1875 11.75 
Q 26.265625 6.109375 33.40625 6.109375 
Q 40.53125 6.109375 44.609375 11.75 
Q 48.6875 17.390625 48.6875 27.296875 
z
" id="DejaVuSans-112"/>
      <path d="M 41.109375 46.296875 
Q 39.59375 47.171875 37.8125 47.578125 
Q 36.03125 48 33.890625 48 
Q 26.265625 48 22.1875 43.046875 
Q 18.109375 38.09375 18.109375 28.8125 
L 18.109375 0 
L 9.078125 0 
L 9.078125 54.6875 
L 18.109375 54.6875 
L 18.109375 46.1875 
Q 20.953125 51.171875 25.484375 53.578125 
Q 30.03125 56 36.53125 56 
Q 37.453125 56 38.578125 55.875 
Q 39.703125 55.765625 41.0625 55.515625 
z
" id="DejaVuSans-114"/>
      <path d="M 56.203125 29.59375 
L 56.203125 25.203125 
L 14.890625 25.203125 
Q 15.484375 15.921875 20.484375 11.0625 
Q 25.484375 6.203125 34.421875 6.203125 
Q 39.59375 6.203125 44.453125 7.46875 
Q 49.3125 8.734375 54.109375 11.28125 
L 54.109375 2.78125 
Q 49.265625 0.734375 44.1875 -0.34375 
Q 39.109375 -1.421875 33.890625 -1.421875 
Q 20.796875 -1.421875 13.15625 6.1875 
Q 5.515625 13.8125 5.515625 26.8125 
Q 5.515625 40.234375 12.765625 48.109375 
Q 20.015625 56 32.328125 56 
Q 43.359375 56 49.78125 48.890625 
Q 56.203125 41.796875 56.203125 29.59375 
z
M 47.21875 32.234375 
Q 47.125 39.59375 43.09375 43.984375 
Q 39.0625 48.390625 32.421875 48.390625 
Q 24.90625 48.390625 20.390625 44.140625 
Q 15.875 39.890625 15.1875 32.171875 
z
" id="DejaVuSans-101"/>
      <path d="M 48.78125 52.59375 
L 48.78125 44.1875 
Q 44.96875 46.296875 41.140625 47.34375 
Q 37.3125 48.390625 33.40625 48.390625 
Q 24.65625 48.390625 19.8125 42.84375 
Q 14.984375 37.3125 14.984375 27.296875 
Q 14.984375 17.28125 19.8125 11.734375 
Q 24.65625 6.203125 33.40625 6.203125 
Q 37.3125 6.203125 41.140625 7.25 
Q 44.96875 8.296875 48.78125 10.40625 
L 48.78125 2.09375 
Q 45.015625 0.34375 40.984375 -0.53125 
Q 36.96875 -1.421875 32.421875 -1.421875 
Q 20.0625 -1.421875 12.78125 6.34375 
Q 5.515625 14.109375 5.515625 27.296875 
Q 5.515625 40.671875 12.859375 48.328125 
Q 20.21875 56 33.015625 56 
Q 37.15625 56 41.109375 55.140625 
Q 45.0625 54.296875 48.78125 52.59375 
z
" id="DejaVuSans-99"/>
      <path d="M 9.421875 54.6875 
L 18.40625 54.6875 
L 18.40625 0 
L 9.421875 0 
z
M 9.421875 75.984375 
L 18.40625 75.984375 
L 18.40625 64.59375 
L 9.421875 64.59375 
z
" id="DejaVuSans-105"/>
      <path d="M 44.28125 53.078125 
L 44.28125 44.578125 
Q 40.484375 46.53125 36.375 47.5 
Q 32.28125 48.484375 27.875 48.484375 
Q 21.1875 48.484375 17.84375 46.4375 
Q 14.5 44.390625 14.5 40.28125 
Q 14.5 37.15625 16.890625 35.375 
Q 19.28125 33.59375 26.515625 31.984375 
L 29.59375 31.296875 
Q 39.15625 29.25 43.1875 25.515625 
Q 47.21875 21.78125 47.21875 15.09375 
Q 47.21875 7.46875 41.1875 3.015625 
Q 35.15625 -1.421875 24.609375 -1.421875 
Q 20.21875 -1.421875 15.453125 -0.5625 
Q 10.6875 0.296875 5.421875 2 
L 5.421875 11.28125 
Q 10.40625 8.6875 15.234375 7.390625 
Q 20.0625 6.109375 24.8125 6.109375 
Q 31.15625 6.109375 34.5625 8.28125 
Q 37.984375 10.453125 37.984375 14.40625 
Q 37.984375 18.0625 35.515625 20.015625 
Q 33.0625 21.96875 24.703125 23.78125 
L 21.578125 24.515625 
Q 13.234375 26.265625 9.515625 29.90625 
Q 5.8125 33.546875 5.8125 39.890625 
Q 5.8125 47.609375 11.28125 51.796875 
Q 16.75 56 26.8125 56 
Q 31.78125 56 36.171875 55.265625 
Q 40.578125 54.546875 44.28125 53.078125 
z
" id="DejaVuSans-115"/>
      <path d="M 30.609375 48.390625 
Q 23.390625 48.390625 19.1875 42.75 
Q 14.984375 37.109375 14.984375 27.296875 
Q 14.984375 17.484375 19.15625 11.84375 
Q 23.34375 6.203125 30.609375 6.203125 
Q 37.796875 6.203125 41.984375 11.859375 
Q 46.1875 17.53125 46.1875 27.296875 
Q 46.1875 37.015625 41.984375 42.703125 
Q 37.796875 48.390625 30.609375 48.390625 
z
M 30.609375 56 
Q 42.328125 56 49.015625 48.375 
Q 55.71875 40.765625 55.71875 27.296875 
Q 55.71875 13.875 49.015625 6.21875 
Q 42.328125 -1.421875 30.609375 -1.421875 
Q 18.84375 -1.421875 12.171875 6.21875 
Q 5.515625 13.875 5.515625 27.296875 
Q 5.515625 40.765625 12.171875 48.375 
Q 18.84375 56 30.609375 56 
z
" id="DejaVuSans-111"/>
      <path d="M 54.890625 33.015625 
L 54.890625 0 
L 45.90625 0 
L 45.90625 32.71875 
Q 45.90625 40.484375 42.875 44.328125 
Q 39.84375 48.1875 33.796875 48.1875 
Q 26.515625 48.1875 22.3125 43.546875 
Q 18.109375 38.921875 18.109375 30.90625 
L 18.109375 0 
L 9.078125 0 
L 9.078125 54.6875 
L 18.109375 54.6875 
L 18.109375 46.1875 
Q 21.34375 51.125 25.703125 53.5625 
Q 30.078125 56 35.796875 56 
Q 45.21875 56 50.046875 50.171875 
Q 54.890625 44.34375 54.890625 33.015625 
z
" id="DejaVuSans-110"/>
     </defs>
     <g transform="translate(286 476.836563)scale(0.1 -0.1)">
      <use xlink:href="#DejaVuSans-49"/>
      <use x="63.623047" xlink:href="#DejaVuSans-45"/>
      <use x="99.707031" xlink:href="#DejaVuSans-112"/>
      <use x="163.183594" xlink:href="#DejaVuSans-114"/>
      <use x="204.265625" xlink:href="#DejaVuSans-101"/>
      <use x="265.789062" xlink:href="#DejaVuSans-99"/>
      <use x="320.769531" xlink:href="#DejaVuSans-105"/>
      <use x="348.552734" xlink:href="#DejaVuSans-115"/>
      <use x="400.652344" xlink:href="#DejaVuSans-105"/>
      <use x="428.435547" xlink:href="#DejaVuSans-111"/>
      <use x="489.617188" xlink:href="#DejaVuSans-110"/>
     </g>
    </g>
   </g>
   <g id="matplotlib.axis_2">
    <g id="ytick_1">
     <g id="line2d_23">
      <path clip-path="url(#p3e697f7f67)" d="M 76.5 448.56 
L 550.8 448.56 
" style="fill:none;stroke:#b0b0b0;stroke-linecap:square;stroke-width:0.8;"/>
     </g>
     <g id="line2d_24">
      <defs>
       <path d="M 0 0 
L -3.5 0 
" id="m0186cfa54e" style="stroke:#000000;stroke-width:0.8;"/>
      </defs>
      <g>
       <use style="stroke:#000000;stroke-width:0.8;" x="76.5" xlink:href="#m0186cfa54e" y="448.56"/>
      </g>
     </g>
     <g id="text_13">
      <!-- 0.0 -->
      <g transform="translate(53.596875 452.359219)scale(0.1 -0.1)">
       <use xlink:href="#DejaVuSans-48"/>
       <use x="63.623047" xlink:href="#DejaVuSans-46"/>
       <use x="95.410156" xlink:href="#DejaVuSans-48"/>
      </g>
     </g>
    </g>
    <g id="ytick_2">
     <g id="line2d_25">
      <path clip-path="url(#p3e697f7f67)" d="M 76.5 409.752 
L 550.8 409.752 
" style="fill:none;stroke:#b0b0b0;stroke-linecap:square;stroke-width:0.8;"/>
     </g>
     <g id="line2d_26">
      <g>
       <use style="stroke:#000000;stroke-width:0.8;" x="76.5" xlink:href="#m0186cfa54e" y="409.752"/>
      </g>
     </g>
     <g id="text_14">
      <!-- 0.1 -->
      <g transform="translate(53.596875 413.551219)scale(0.1 -0.1)">
       <use xlink:href="#DejaVuSans-48"/>
       <use x="63.623047" xlink:href="#DejaVuSans-46"/>
       <use x="95.410156" xlink:href="#DejaVuSans-49"/>
      </g>
     </g>
    </g>
    <g id="ytick_3">
     <g id="line2d_27">
      <path clip-path="url(#p3e697f7f67)" d="M 76.5 370.944 
L 550.8 370.944 
" style="fill:none;stroke:#b0b0b0;stroke-linecap:square;stroke-width:0.8;"/>
     </g>
     <g id="line2d_28">
      <g>
       <use style="stroke:#000000;stroke-width:0.8;" x="76.5" xlink:href="#m0186cfa54e" y="370.944"/>
      </g>
     </g>
     <g id="text_15">
      <!-- 0.2 -->
      <g transform="translate(53.596875 374.743219)scale(0.1 -0.1)">
       <use xlink:href="#DejaVuSans-48"/>
       <use x="63.623047" xlink:href="#DejaVuSans-46"/>
       <use x="95.410156" xlink:href="#DejaVuSans-50"/>
      </g>
     </g>
    </g>
    <g id="ytick_4">
     <g id="line2d_29">
      <path clip-path="url(#p3e697f7f67)" d="M 76.5 332.136 
L 550.8 332.136 
" style="fill:none;stroke:#b0b0b0;stroke-linecap:square;stroke-width:0.8;"/>
     </g>
     <g id="line2d_30">
      <g>
       <use style="stroke:#000000;stroke-width:0.8;" x="76.5" xlink:href="#m0186cfa54e" y="332.136"/>
      </g>
     </g>
     <g id="text_16">
      <!-- 0.3 -->
      <g transform="translate(53.596875 335.935219)scale(0.1 -0.1)">
       <use xlink:href="#DejaVuSans-48"/>
       <use x="63.623047" xlink:href="#DejaVuSans-46"/>
       <use x="95.410156" xlink:href="#DejaVuSans-51"/>
      </g>
     </g>
    </g>
    <g id="ytick_5">
     <g id="line2d_31">
      <path clip-path="url(#p3e697f7f67)" d="M 76.5 293.328 
L 550.8 293.328 
" style="fill:none;stroke:#b0b0b0;stroke-linecap:square;stroke-width:0.8;"/>
     </g>
     <g id="line2d_32">
      <g>
       <use style="stroke:#000000;stroke-width:0.8;" x="76.5" xlink:href="#m0186cfa54e" y="293.328"/>
      </g>
     </g>
     <g id="text_17">
      <!-- 0.4 -->
      <g transform="translate(53.596875 297.127219)scale(0.1 -0.1)">
       <use xlink:href="#DejaVuSans-48"/>
       <use x="63.623047" xlink:href="#DejaVuSans-46"/>
       <use x="95.410156" xlink:href="#DejaVuSans-52"/>
      </g>
     </g>
    </g>
    <g id="ytick_6">
     <g id="line2d_33">
      <path clip-path="url(#p3e697f7f67)" d="M 76.5 254.52 
L 550.8 254.52 
" style="fill:none;stroke:#b0b0b0;stroke-linecap:square;stroke-width:0.8;"/>
     </g>
     <g id="line2d_34">
      <g>
       <use style="stroke:#000000;stroke-width:0.8;" x="76.5" xlink:href="#m0186cfa54e" y="254.52"/>
      </g>
     </g>
     <g id="text_18">
      <!-- 0.5 -->
      <g transform="translate(53.596875 258.319219)scale(0.1 -0.1)">
       <use xlink:href="#DejaVuSans-48"/>
       <use x="63.623047" xlink:href="#DejaVuSans-46"/>
       <use x="95.410156" xlink:href="#DejaVuSans-53"/>
      </g>
     </g>
    </g>
    <g id="ytick_7">
     <g id="line2d_35">
      <path clip-path="url(#p3e697f7f67)" d="M 76.5 215.712 
L 550.8 215.712 
" style="fill:none;stroke:#b0b0b0;stroke-linecap:square;stroke-width:0.8;"/>
     </g>
     <g id="line2d_36">
      <g>
       <use style="stroke:#000000;stroke-width:0.8;" x="76.5" xlink:href="#m0186cfa54e" y="215.712"/>
      </g>
     </g>
     <g id="text_19">
      <!-- 0.6 -->
      <g transform="translate(53.596875 219.511219)scale(0.1 -0.1)">
       <use xlink:href="#DejaVuSans-48"/>
       <use x="63.623047" xlink:href="#DejaVuSans-46"/>
       <use x="95.410156" xlink:href="#DejaVuSans-54"/>
      </g>
     </g>
    </g>
    <g id="ytick_8">
     <g id="line2d_37">
      <path clip-path="url(#p3e697f7f67)" d="M 76.5 176.904 
L 550.8 176.904 
" style="fill:none;stroke:#b0b0b0;stroke-linecap:square;stroke-width:0.8;"/>
     </g>
     <g id="line2d_38">
      <g>
       <use style="stroke:#000000;stroke-width:0.8;" x="76.5" xlink:href="#m0186cfa54e" y="176.904"/>
      </g>
     </g>
     <g id="text_20">
      <!-- 0.7 -->
      <g transform="translate(53.596875 180.703219)scale(0.1 -0.1)">
       <use xlink:href="#DejaVuSans-48"/>
       <use x="63.623047" xlink:href="#DejaVuSans-46"/>
       <use x="95.410156" xlink:href="#DejaVuSans-55"/>
      </g>
     </g>
    </g>
    <g id="ytick_9">
     <g id="line2d_39">
      <path clip-path="url(#p3e697f7f67)" d="M 76.5 138.096 
L 550.8 138.096 
" style="fill:none;stroke:#b0b0b0;stroke-linecap:square;stroke-width:0.8;"/>
     </g>
     <g id="line2d_40">
      <g>
       <use style="stroke:#000000;stroke-width:0.8;" x="76.5" xlink:href="#m0186cfa54e" y="138.096"/>
      </g>
     </g>
     <g id="text_21">
      <!-- 0.8 -->
      <g transform="translate(53.596875 141.895219)scale(0.1 -0.1)">
       <use xlink:href="#DejaVuSans-48"/>
       <use x="63.623047" xlink:href="#DejaVuSans-46"/>
       <use x="95.410156" xlink:href="#DejaVuSans-56"/>
      </g>
     </g>
    </g>
    <g id="ytick_10">
     <g id="line2d_41">
      <path clip-path="url(#p3e697f7f67)" d="M 76.5 99.288 
L 550.8 99.288 
" style="fill:none;stroke:#b0b0b0;stroke-linecap:square;stroke-width:0.8;"/>
     </g>
     <g id="line2d_42">
      <g>
       <use style="stroke:#000000;stroke-width:0.8;" x="76.5" xlink:href="#m0186cfa54e" y="99.288"/>
      </g>
     </g>
     <g id="text_22">
      <!-- 0.9 -->
      <g transform="translate(53.596875 103.087219)scale(0.1 -0.1)">
       <use xlink:href="#DejaVuSans-48"/>
       <use x="63.623047" xlink:href="#DejaVuSans-46"/>
       <use x="95.410156" xlink:href="#DejaVuSans-57"/>
      </g>
     </g>
    </g>
    <g id="ytick_11">
     <g id="line2d_43">
      <path clip-path="url(#p3e697f7f67)" d="M 76.5 60.48 
L 550.8 60.48 
" style="fill:none;stroke:#b0b0b0;stroke-linecap:square;stroke-width:0.8;"/>
     </g>
     <g id="line2d_44">
      <g>
       <use style="stroke:#000000;stroke-width:0.8;" x="76.5" xlink:href="#m0186cfa54e" y="60.48"/>
      </g>
     </g>
     <g id="text_23">
      <!-- 1.0 -->
      <g transform="translate(53.596875 64.279219)scale(0.1 -0.1)">
       <use xlink:href="#DejaVuSans-49"/>
       <use x="63.623047" xlink:href="#DejaVuSans-46"/>
       <use x="95.410156" xlink:href="#DejaVuSans-48"/>
      </g>
     </g>
    </g>
    <g id="text_24">
     <!-- #correct/1039 -->
     <defs>
      <path d="M 51.125 44 
L 36.921875 44 
L 32.8125 27.6875 
L 47.125 27.6875 
z
M 43.796875 71.78125 
L 38.71875 51.515625 
L 52.984375 51.515625 
L 58.109375 71.78125 
L 65.921875 71.78125 
L 60.890625 51.515625 
L 76.125 51.515625 
L 76.125 44 
L 58.984375 44 
L 54.984375 27.6875 
L 70.515625 27.6875 
L 70.515625 20.21875 
L 53.078125 20.21875 
L 48 0 
L 40.1875 0 
L 45.21875 20.21875 
L 30.90625 20.21875 
L 25.875 0 
L 18.015625 0 
L 23.09375 20.21875 
L 7.71875 20.21875 
L 7.71875 27.6875 
L 24.90625 27.6875 
L 29 44 
L 13.28125 44 
L 13.28125 51.515625 
L 30.90625 51.515625 
L 35.890625 71.78125 
z
" id="DejaVuSans-35"/>
      <path d="M 18.3125 70.21875 
L 18.3125 54.6875 
L 36.8125 54.6875 
L 36.8125 47.703125 
L 18.3125 47.703125 
L 18.3125 18.015625 
Q 18.3125 11.328125 20.140625 9.421875 
Q 21.96875 7.515625 27.59375 7.515625 
L 36.8125 7.515625 
L 36.8125 0 
L 27.59375 0 
Q 17.1875 0 13.234375 3.875 
Q 9.28125 7.765625 9.28125 18.015625 
L 9.28125 47.703125 
L 2.6875 47.703125 
L 2.6875 54.6875 
L 9.28125 54.6875 
L 9.28125 70.21875 
z
" id="DejaVuSans-116"/>
      <path d="M 25.390625 72.90625 
L 33.6875 72.90625 
L 8.296875 -9.28125 
L 0 -9.28125 
z
" id="DejaVuSans-47"/>
     </defs>
     <g transform="translate(47.517187 290.822344)rotate(-90)scale(0.1 -0.1)">
      <use xlink:href="#DejaVuSans-35"/>
      <use x="83.789062" xlink:href="#DejaVuSans-99"/>
      <use x="138.769531" xlink:href="#DejaVuSans-111"/>
      <use x="199.951172" xlink:href="#DejaVuSans-114"/>
      <use x="241.048828" xlink:href="#DejaVuSans-114"/>
      <use x="282.130859" xlink:href="#DejaVuSans-101"/>
      <use x="343.654297" xlink:href="#DejaVuSans-99"/>
      <use x="398.634766" xlink:href="#DejaVuSans-116"/>
      <use x="437.84375" xlink:href="#DejaVuSans-47"/>
      <use x="471.535156" xlink:href="#DejaVuSans-49"/>
      <use x="535.158203" xlink:href="#DejaVuSans-48"/>
      <use x="598.78125" xlink:href="#DejaVuSans-51"/>
      <use x="662.404297" xlink:href="#DejaVuSans-57"/>
     </g>
    </g>
   </g>
   <g id="line2d_45">
    <path clip-path="url(#p3e697f7f67)" d="M 76.5 448.186487 
L 76.5 370.869297 
L 78.769378 370.869297 
L 78.317241 351.446622 
L 78.141176 340.988258 
L 79.771034 340.988258 
L 79.348649 324.927199 
L 80.76018 324.927199 
L 80.553846 318.577478 
L 81.889773 318.577478 
L 81.859322 317.830452 
L 83.180282 317.830452 
L 83.069252 315.589374 
L 84.361326 315.589374 
L 84.233152 313.348296 
L 85.497561 313.348296 
L 85.401072 311.854244 
L 86.645455 311.854244 
L 86.591489 311.107218 
L 87.822812 311.107218 
L 87.703937 309.613167 
L 88.91623 309.613167 
L 88.568702 305.504524 
L 89.741878 305.504524 
L 89.510723 302.889933 
L 91.8 302.889933 
L 91.724444 302.142907 
L 92.855172 302.142907 
L 92.347733 297.287238 
L 94.525653 297.287238 
L 94.230841 294.672647 
L 95.295105 294.672647 
L 95.078571 292.805082 
L 96.126207 292.805082 
L 95.859184 290.564004 
L 96.888462 290.564004 
L 96.842438 290.190491 
L 99.895964 290.190491 
L 99.739644 289.069952 
L 101.739911 289.069952 
L 101.463158 287.202387 
L 102.446389 287.202387 
L 102.165584 285.334822 
L 104.099353 285.334822 
L 103.980901 284.587796 
L 105.890385 284.587796 
L 105.641314 283.093744 
L 106.582452 283.093744 
L 106.518987 282.720231 
L 107.454316 282.720231 
L 107.131875 280.852666 
L 108.054262 280.852666 
L 107.794021 279.358614 
L 108.705556 279.358614 
L 108.573566 278.611588 
L 111.27556 278.611588 
L 110.925 276.744023 
L 111.81006 276.744023 
L 111.668537 275.996997 
L 114.292829 275.996997 
L 114.068317 274.876458 
L 116.647441 274.876458 
L 116.25614 273.008893 
L 117.101556 273.008893 
L 117.022718 272.63538 
L 118.700774 272.63538 
L 118.457308 271.514841 
L 120.937285 271.514841 
L 120.852481 271.141328 
L 121.671429 271.141328 
L 121.5 270.394302 
L 122.313068 270.394302 
L 122.226465 270.020789 
L 123.840678 270.020789 
L 123.751692 269.647276 
L 124.552908 269.647276 
L 124.194972 268.153224 
L 124.987918 268.153224 
L 124.897959 267.779711 
L 125.686667 267.779711 
L 125.595749 267.406198 
L 126.380258 267.406198 
L 126.105688 266.285659 
L 126.883516 266.285659 
L 126.33587 264.044581 
L 129.389568 264.044581 
L 129.294614 263.671068 
L 131.552679 263.671068 
L 131.454545 263.297555 
L 132.200712 263.297555 
L 132.101776 262.924042 
L 133.583894 262.924042 
L 133.483039 262.550529 
L 134.219048 262.550529 
L 133.814711 261.056477 
L 134.543706 261.056477 
L 134.442408 260.682964 
L 135.890609 260.682964 
L 135.277281 258.441886 
L 136.702744 258.441886 
L 136.496923 257.69486 
L 138.610714 257.69486 
L 138.505263 257.321347 
L 139.204068 257.321347 
L 139.09797 256.947834 
L 139.793412 256.947834 
L 139.686678 256.574321 
L 140.378788 256.574321 
L 139.951505 255.080269 
L 144.032781 255.080269 
L 143.921157 254.706756 
L 145.261779 254.706756 
L 145.035961 253.959731 
L 145.701148 253.959731 
L 145.587889 253.586218 
L 146.25 253.586218 
L 146.136215 253.212705 
L 146.795277 253.212705 
L 146.680976 252.839192 
L 149.292407 252.839192 
L 149.175 252.465679 
L 149.821739 252.465679 
L 149.703859 252.092166 
L 150.989423 252.092166 
L 150.751438 251.34514 
L 152.025478 251.34514 
L 151.905405 250.971627 
L 154.426066 250.971627 
L 154.058491 249.851088 
L 155.302194 249.851088 
L 155.055938 249.104062 
L 156.288785 249.104062 
L 156.040994 248.357036 
L 158.477778 248.357036 
L 157.974847 246.862984 
L 158.576417 246.862984 
L 158.450917 246.489471 
L 159.049924 246.489471 
L 158.924085 246.115958 
L 159.520548 246.115958 
L 159.143182 244.995419 
L 159.735703 244.995419 
L 159.60997 244.621906 
L 163.123653 244.621906 
L 162.736364 243.501367 
L 163.313839 243.501367 
L 163.184844 243.127854 
L 164.90503 243.127854 
L 164.774446 242.754341 
L 168.725 242.754341 
L 168.188808 241.260289 
L 168.744122 241.260289 
L 168.610435 240.886776 
L 170.264935 240.886776 
L 170.129827 240.513263 
L 170.677554 240.513263 
L 170.407317 239.766237 
L 172.037571 239.766237 
L 171.494744 238.272185 
L 172.032766 238.272185 
L 171.493794 236.778133 
L 173.091994 236.778133 
L 172.956522 236.40462 
L 175.064435 236.40462 
L 174.927159 236.031107 
L 175.44993 236.031107 
L 174.90249 234.537055 
L 176.970702 234.537055 
L 176.557808 233.416516 
L 177.069767 233.416516 
L 176.932377 233.043003 
L 177.95109 233.043003 
L 177.813061 232.66949 
L 180.333243 232.66949 
L 180.193117 232.295977 
L 180.692588 232.295977 
L 180.4125 231.548951 
L 181.405496 231.548951 
L 181.125 230.801925 
L 182.601731 230.801925 
L 182.460638 230.428412 
L 183.437666 230.428412 
L 183.296026 230.054899 
L 189.516797 230.054899 
L 189.223247 229.307873 
L 193.400642 229.307873 
L 193.250769 228.93436 
L 193.708579 228.93436 
L 193.409195 228.187334 
L 201.440449 228.187334 
L 201.284663 227.813821 
L 201.719925 227.813821 
L 201.564179 227.440308 
L 204.151111 227.440308 
L 203.993711 227.066795 
L 204.846863 227.066795 
L 204.689189 226.693282 
L 205.960098 226.693282 
L 205.801834 226.319769 
L 206.643293 226.319769 
L 206.484775 225.946256 
L 206.90365 225.946256 
L 206.7452 225.572743 
L 207.162743 225.572743 
L 207.004364 225.19923 
L 207.420581 225.19923 
L 207.262273 224.825717 
L 209.326803 224.825717 
L 209.167347 224.452204 
L 209.576978 224.452204 
L 209.417605 224.078691 
L 209.825957 224.078691 
L 209.666667 223.705178 
L 210.073747 223.705178 
L 209.755714 222.958152 
L 210.565796 222.958152 
L 210.406762 222.584639 
L 211.61383 222.584639 
L 211.454309 222.211126 
L 213.049354 222.211126 
L 212.729191 221.4641 
L 213.125059 221.4641 
L 212.965263 221.090587 
L 213.753676 221.090587 
L 213.434109 220.343561 
L 216.161085 220.343561 
L 216 219.970048 
L 218.301031 219.970048 
L 217.976914 219.223022 
L 219.491468 219.223022 
L 219.328977 218.849509 
L 220.080612 218.849509 
L 219.918007 218.475996 
L 220.292308 218.475996 
L 220.129831 218.102483 
L 221.246959 218.102483 
L 221.084139 217.72897 
L 221.454607 217.72897 
L 221.291919 217.355457 
L 221.661323 217.355457 
L 221.498768 216.981944 
L 221.867114 216.981944 
L 221.704693 216.608431 
L 222.438462 216.608431 
L 222.275947 216.234918 
L 223.006 216.234918 
L 222.843396 215.861405 
L 223.931748 215.861405 
L 223.76884 215.487892 
L 224.129801 215.487892 
L 223.967034 215.114379 
L 224.686139 215.114379 
L 224.523297 214.740866 
L 229.118743 214.740866 
L 228.953571 214.367353 
L 230.340841 214.367353 
L 230.175242 213.99384 
L 230.52 213.99384 
L 230.354565 213.620327 
L 231.725455 213.620327 
L 231.559615 213.246814 
L 232.240299 213.246814 
L 232.074441 212.873301 
L 234.098095 212.873301 
L 233.931501 212.499788 
L 235.597476 212.499788 
L 235.430357 212.126275 
L 236.091509 212.126275 
L 235.924398 211.752762 
L 236.253766 211.752762 
L 236.086834 211.379249 
L 236.415344 211.379249 
L 236.248592 211.005736 
L 237.55514 211.005736 
L 237.388071 210.632223 
L 238.683161 210.632223 
L 238.348763 209.885197 
L 239.63193 209.885197 
L 239.464615 209.511684 
L 241.053061 209.511684 
L 240.885321 209.138171 
L 241.200916 209.138171 
L 241.033367 208.764658 
L 241.348171 208.764658 
L 241.180812 208.391145 
L 241.808207 208.391145 
L 241.640891 208.017632 
L 243.507042 208.017632 
L 243.171687 207.270606 
L 245.622908 207.270606 
L 245.454627 206.897093 
L 245.758151 206.897093 
L 245.59007 206.52358 
L 246.496634 206.52358 
L 246.328487 206.150067 
L 246.929615 206.150067 
L 246.761538 205.776554 
L 247.360039 205.776554 
L 247.192035 205.403041 
L 249.26748 205.403041 
L 249.098927 205.029528 
L 249.686465 205.029528 
L 249.517996 204.656015 
L 251.266248 204.656015 
L 251.097391 204.282502 
L 251.67541 204.282502 
L 251.506647 203.908989 
L 254.3625 203.908989 
L 254.023714 203.161963 
L 256.545892 203.161963 
L 256.206503 202.414937 
L 256.760771 202.414937 
L 256.591353 202.041424 
L 258.241121 202.041424 
L 258.071429 201.667911 
L 259.431691 201.667911 
L 259.261838 201.294398 
L 259.802224 201.294398 
L 259.46309 200.547372 
L 259.732348 200.547372 
L 259.563158 200.173859 
L 261.698717 200.173859 
L 261.529121 199.800346 
L 266.22 199.800346 
L 266.049235 199.426833 
L 269.5928 199.426833 
L 269.421314 199.053321 
L 270.665252 199.053321 
L 270.322507 198.306295 
L 271.063204 198.306295 
L 270.892084 197.932782 
L 273.815405 197.932782 
L 273.472546 197.185756 
L 274.910717 197.185756 
L 274.739378 196.812243 
L 276.86838 196.812243 
L 276.696832 196.43873 
L 277.399061 196.43873 
L 277.227645 196.065217 
L 285.380464 196.065217 
L 285.207692 195.691704 
L 287.386464 195.691704 
L 287.213607 195.318191 
L 291.465 195.318191 
L 291.291781 194.944678 
L 293.982057 194.944678 
L 293.808765 194.571165 
L 297.442577 194.571165 
L 297.269152 194.197652 
L 300.219472 194.197652 
L 300.046047 193.824139 
L 308.316792 193.824139 
L 308.143146 193.450626 
L 314.342409 193.450626 
L 314.168928 193.077113 
L 317.403453 193.077113 
L 317.230266 192.7036 
L 320.214123 192.7036 
L 320.041277 192.330087 
L 320.856678 192.330087 
L 320.68411 191.956574 
L 321.008674 191.956574 
L 320.836364 191.583061 
L 320.99831 191.583061 
L 320.826249 191.209548 
L 321.149473 191.209548 
L 320.806105 190.462522 
L 321.128451 190.462522 
L 320.957143 190.089009 
L 323.346362 190.089009 
L 323.175416 189.715496 
L 327.049217 189.715496 
L 326.878776 189.341983 
L 331.940824 189.341983 
L 331.771096 188.96847 
L 332.061778 188.96847 
L 331.892308 188.594957 
L 333.047493 188.594957 
L 332.878378 188.221444 
L 333.021937 188.221444 
L 332.853061 187.847931 
L 338.172254 187.847931 
L 338.0043 187.474418 
L 339.899427 187.474418 
L 339.56474 186.727392 
L 344.672102 186.727392 
L 344.505948 186.353879 
L 346.279975 186.353879 
L 346.114365 185.980366 
L 351.972987 185.980366 
L 351.80882 185.606853 
L 351.927338 185.606853 
L 355.303981 185.606853 
L 355.140843 185.23334 
L 355.255263 185.23334 
L 355.36955 185.23334 
L 355.206659 184.859827 
L 355.320841 184.859827 
L 356.003141 184.859827 
L 355.84064 184.486314 
L 355.953922 184.486314 
L 357.303116 184.486314 
L 357.141176 184.112801 
L 357.252795 184.112801 
L 358.472165 184.112801 
L 358.310761 183.739288 
L 358.420881 183.739288 
L 360.597115 183.739288 
L 360.436518 183.365775 
L 360.544068 183.365775 
L 362.354001 183.365775 
L 362.194128 182.992262 
L 362.299553 182.992262 
L 365.916612 182.992262 
L 365.758027 182.618749 
L 365.859365 182.618749 
L 366.966794 182.618749 
L 366.80876 182.245236 
L 366.908809 182.245236 
L 370.535661 182.245236 
L 370.379009 181.871723 
L 370.47508 181.871723 
L 370.953903 181.871723 
L 370.797611 181.49821 
L 370.893103 181.49821 
L 373.340816 181.49821 
L 373.185565 181.124697 
L 373.278411 181.124697 
L 373.463812 181.124697 
L 373.30882 180.751184 
L 373.401408 180.751184 
L 377.470183 180.751184 
L 377.316862 180.377671 
L 377.405193 180.377671 
L 381.204681 180.377671 
L 381.053011 180.004158 
L 381.137463 180.004158 
L 381.642411 180.004158 
L 381.491125 179.630645 
L 381.575025 179.630645 
L 384.297806 179.630645 
L 384.147807 179.257132 
L 384.228982 179.257132 
L 394.148465 179.257132 
L 394.003022 178.883619 
L 394.074783 178.883619 
L 394.218107 178.883619 
L 394.072898 178.510106 
L 394.144495 178.510106 
L 396.95572 178.510106 
L 396.812018 178.136593 
L 396.88104 178.136593 
L 397.293876 178.136593 
L 397.150536 177.76308 
L 397.21916 177.76308 
L 397.902045 177.76308 
L 397.7592 177.389567 
L 397.827188 177.389567 
L 400.955875 177.389567 
L 400.814746 177.016054 
L 400.879957 177.016054 
L 404.256821 177.016054 
L 404.117587 176.642541 
L 404.179873 176.642541 
L 405.414568 176.642541 
L 405.276136 176.269028 
L 405.337358 176.269028 
L 406.791379 176.269028 
L 406.653872 175.895515 
L 406.713858 175.895515 
L 415.02 175.895515 
L 414.887299 175.522002 
L 414.993772 175.522002 
L 415.259226 175.522002 
L 415.126846 175.148489 
L 415.2328 175.148489 
L 418.638751 175.148489 
L 418.508562 174.774976 
L 418.609163 174.774976 
L 422.936116 174.774976 
L 422.80875 174.401463 
L 422.902792 174.401463 
L 426.287768 174.401463 
L 426.16271 174.02795 
L 426.251768 174.02795 
L 427.003658 174.02795 
L 426.879233 173.654437 
L 426.967151 173.654437 
L 427.752838 173.654437 
L 427.548803 172.907411 
L 427.592186 172.907411 
L 429.344969 172.907411 
L 429.222581 172.533898 
L 429.306863 172.533898 
L 429.559011 172.533898 
L 429.356911 171.786872 
L 429.39886 171.786872 
L 439.297367 171.786872 
L 439.182303 171.413359 
L 439.288403 171.413359 
L 439.5 171.413359 
L 439.385236 171.039846 
L 439.490809 171.039846 
L 441.153174 171.039846 
L 441.039751 170.666333 
L 441.142076 170.666333 
L 442.521632 170.666333 
L 442.409356 170.29282 
L 442.50901 170.29282 
L 444.528271 170.29282 
L 444.417619 169.919307 
L 444.513488 169.919307 
L 450.508673 169.919307 
L 450.402692 169.545794 
L 450.51636 169.545794 
L 450.629771 169.545794 
L 450.524025 169.172281 
L 450.637267 169.172281 
L 456.419473 169.172281 
L 456.318431 168.798768 
L 456.418836 168.798768 
L 456.594033 168.798768 
L 456.493266 168.425255 
L 456.593167 168.425255 
L 459.588462 168.425255 
L 459.490259 168.051742 
L 459.58379 168.051742 
L 462.544475 168.051742 
L 462.448848 167.678229 
L 462.55814 167.678229 
L 463.014226 167.678229 
L 462.919119 167.304716 
L 463.027107 167.304716 
L 464.428077 167.304716 
L 464.334284 166.931203 
L 464.438686 166.931203 
L 466.255745 166.931203 
L 466.163626 166.55769 
L 466.263527 166.55769 
L 468.893207 166.55769 
L 468.803476 166.184177 
L 468.915826 166.184177 
L 469.509862 166.184177 
L 469.420784 165.810664 
L 469.531304 165.810664 
L 472.285874 165.810664 
L 472.199344 165.437151 
L 472.302314 165.437151 
L 472.981948 165.437151 
L 472.896148 165.063638 
L 472.997169 165.063638 
L 473.281977 165.063638 
L 473.196555 164.690125 
L 473.296667 164.690125 
L 473.842699 164.690125 
L 473.757887 164.316612 
L 473.856427 164.316612 
L 474.085377 164.316612 
L 474.000892 163.943099 
L 474.098684 163.943099 
L 474.439003 163.943099 
L 474.319375 163.196073 
L 474.383889 163.196073 
L 474.416105 163.196073 
L 474.332244 162.82256 
L 474.444886 162.82256 
L 475.459572 162.82256 
L 475.376749 162.449047 
L 475.486194 162.449047 
L 479.673571 162.449047 
L 479.594656 162.075534 
L 479.70598 162.075534 
L 480.732955 162.075534 
L 480.655113 161.702021 
L 480.763007 161.702021 
L 481.653759 161.702021 
L 481.653759 161.702021 
" style="fill:none;stroke:#1f77b4;stroke-linecap:square;stroke-width:2;"/>
   </g>
   <g id="line2d_46">
    <path clip-path="url(#p3e697f7f67)" d="M 76.5 448.186487 
L 76.5 413.076266 
L 81.440625 413.076266 
L 80.891667 408.59411 
L 85.202752 408.59411 
L 84.27541 403.738441 
L 83.373913 397.762233 
L 83.22766 396.641694 
L 86.520423 396.641694 
L 86.45035 396.268181 
L 89.675 396.268181 
L 88.507595 391.038999 
L 87.403448 385.062791 
L 87.098883 383.195226 
L 89.675 383.195226 
L 88.787565 378.339557 
L 91.169072 378.339557 
L 89.923585 371.616323 
L 89.798131 370.869297 
L 94.066667 370.869297 
L 93.747273 369.375245 
L 97.864865 369.375245 
L 97.302632 367.134167 
L 99.282969 367.134167 
L 98.796154 365.266603 
L 100.719574 365.266603 
L 100.414286 364.146064 
L 102.298745 364.146064 
L 101.874074 362.652012 
L 103.713934 362.652012 
L 103.0608 360.410934 
L 104.844622 360.410934 
L 104.732143 360.037421 
L 106.495257 360.037421 
L 106.14375 358.916882 
L 107.87393 358.916882 
L 107.275191 357.049317 
L 112.296226 357.049317 
L 111.50369 354.808239 
L 114.721978 354.808239 
L 114.034532 352.940674 
L 115.6 352.940674 
L 114.510105 349.95257 
L 116.025 349.95257 
L 115.888235 349.579057 
L 117.387931 349.579057 
L 116.025 345.843927 
L 117.469435 345.843927 
L 116.932131 344.349875 
L 118.35 344.349875 
L 118.078247 343.602849 
L 119.478641 343.602849 
L 118.794268 341.735284 
L 120.165714 341.735284 
L 119.753774 340.614745 
L 121.105016 340.614745 
L 120.281538 338.373667 
L 121.602147 338.373667 
L 121.46422 338.000154 
L 122.773171 338.000154 
L 122.632523 337.626641 
L 123.93 337.626641 
L 122.944807 335.01205 
L 124.210651 335.01205 
L 124.069912 334.638537 
L 125.325 334.638537 
L 125.181818 334.265024 
L 128.893605 334.265024 
L 127.702841 331.27692 
L 128.901416 331.27692 
L 128.75339 330.903407 
L 129.942254 330.903407 
L 129.642857 330.156381 
L 130.819274 330.156381 
L 130.071074 328.288816 
L 131.226923 328.288816 
L 130.927869 327.54179 
L 132.071935 327.54179 
L 131.472776 326.047738 
L 133.72118 326.047738 
L 133.416 325.300712 
L 134.526064 325.300712 
L 133.915263 323.80666 
L 136.097906 323.80666 
L 135.942298 323.433147 
L 137.022656 323.433147 
L 136.24473 321.565582 
L 137.307692 321.565582 
L 137.152174 321.192069 
L 140.301777 321.192069 
L 140.140253 320.818556 
L 141.177273 320.818556 
L 140.690977 319.698017 
L 141.71625 319.698017 
L 141.391791 318.950991 
L 142.407692 318.950991 
L 142.244554 318.577478 
L 144.257143 318.577478 
L 143.432847 316.709913 
L 148.329087 316.709913 
L 147.985407 315.962887 
L 149.903571 315.962887 
L 149.382979 314.842348 
L 152.209859 314.842348 
L 151.505581 313.348296 
L 153.354167 313.348296 
L 153.176674 312.974783 
L 154.092857 312.974783 
L 153.914483 312.60127 
L 155.730892 312.60127 
L 155.55 312.227757 
L 156.450342 312.227757 
L 156.268636 311.854244 
L 157.163265 311.854244 
L 156.980769 311.480731 
L 159.63573 311.480731 
L 159.263758 310.733705 
L 160.137723 310.733705 
L 159.766 309.986679 
L 160.633038 309.986679 
L 160.077093 308.866141 
L 161.790789 308.866141 
L 161.233333 307.745602 
L 162.080217 307.745602 
L 161.894577 307.372089 
L 164.409052 307.372089 
L 163.286809 305.131011 
L 164.928814 305.131011 
L 164.74186 304.757498 
L 167.979245 304.757498 
L 167.597286 304.010472 
L 169.190644 304.010472 
L 168.99834 303.636959 
L 172.918275 303.636959 
L 172.327959 302.51642 
L 173.866463 302.51642 
L 173.668966 302.142907 
L 174.432389 302.142907 
L 173.841247 301.022368 
L 175.352104 301.022368 
L 175.1544 300.648855 
L 175.904192 300.648855 
L 175.706175 300.275342 
L 176.451889 300.275342 
L 176.253571 299.901829 
L 178.469822 299.901829 
L 178.269094 299.528316 
L 182.617704 299.528316 
L 182.206395 298.78129 
L 182.919342 298.78129 
L 182.509249 298.034264 
L 183.923033 298.034264 
L 183.717241 297.660751 
L 186.508745 297.660751 
L 186.092045 296.913725 
L 187.468302 296.913725 
L 187.259322 296.540212 
L 187.942669 296.540212 
L 187.733583 296.166699 
L 188.413483 296.166699 
L 188.204299 295.793186 
L 190.226208 295.793186 
L 190.015213 295.419673 
L 191.348983 295.419673 
L 191.137085 295.04616 
L 199.561622 295.04616 
L 199.340288 294.672647 
L 200.6 294.672647 
L 200.377996 294.299134 
L 201.627273 294.299134 
L 201.182771 293.552108 
L 206.683741 293.552108 
L 206.456545 293.178595 
L 208.25 293.178595 
L 208.021664 292.805082 
L 211.5494 292.805082 
L 210.629131 291.31103 
L 214.070995 291.31103 
L 213.839394 290.937517 
L 216.093311 290.937517 
L 215.628 290.190491 
L 225.915994 290.190491 
L 225.434783 289.443465 
L 225.957878 289.443465 
L 225.478846 288.696439 
L 228.064865 288.696439 
L 227.584469 287.949413 
L 229.11388 287.949413 
L 228.873543 287.5759 
L 231.388594 287.5759 
L 231.146958 287.202387 
L 232.141213 287.202387 
L 231.899534 286.828874 
L 232.886842 286.828874 
L 232.645131 286.455361 
L 234.113538 286.455361 
L 233.871429 286.081848 
L 236.287043 286.081848 
L 235.801368 285.334822 
L 236.755909 285.334822 
L 236.271752 284.587796 
L 238.629535 284.587796 
L 238.386826 284.214283 
L 241.626667 284.214283 
L 241.382396 283.84077 
L 242.295133 283.84077 
L 242.050957 283.467257 
L 242.505 283.467257 
L 242.261233 283.093744 
L 242.713636 283.093744 
L 242.470278 282.720231 
L 243.818659 282.720231 
L 243.575109 282.346718 
L 244.021657 282.346718 
L 243.536087 281.599692 
L 243.980753 281.599692 
L 243.738728 281.226179 
L 245.064173 281.226179 
L 244.821983 280.852666 
L 245.260976 280.852666 
L 245.019198 280.479153 
L 245.456652 280.479153 
L 245.215286 280.10564 
L 247.382553 280.10564 
L 247.14051 279.732127 
L 255.911967 279.732127 
L 255.665522 279.358614 
L 261.623822 279.358614 
L 261.375 278.985101 
L 268.951571 278.985101 
L 268.198827 277.864562 
L 268.93381 277.864562 
L 268.683896 277.491049 
L 270.14186 277.491049 
L 269.642784 276.744023 
L 277.393985 276.744023 
L 277.142553 276.37051 
L 277.484625 276.37051 
L 277.233708 275.996997 
L 279.603713 275.996997 
L 279.352658 275.623484 
L 279.687778 275.623484 
L 279.437238 275.249971 
L 281.759413 275.249971 
L 281.508791 274.876458 
L 281.837195 274.876458 
L 281.587089 274.502945 
L 282.567233 274.502945 
L 282.317455 274.129432 
L 283.612907 274.129432 
L 283.363373 273.755919 
L 285.282775 273.755919 
L 285.033333 273.382406 
L 287.549467 273.382406 
L 287.3 273.008893 
L 288.231095 273.008893 
L 287.982 272.63538 
L 288.290834 272.63538 
L 288.042254 272.261867 
L 293.182509 272.261867 
L 292.933448 271.888354 
L 297.875648 271.888354 
L 297.626351 271.514841 
L 298.195281 271.514841 
L 297.698206 270.767815 
L 298.828125 270.767815 
L 298.332962 270.020789 
L 298.613793 270.020789 
L 298.367 269.647276 
L 299.205648 269.647276 
L 298.713481 268.90025 
L 300.922344 268.90025 
L 300.676805 268.526737 
L 302.847072 268.526737 
L 302.601842 268.153224 
L 304.998605 268.153224 
L 304.753698 267.779711 
L 306.585957 267.779711 
L 306.341445 267.406198 
L 308.402213 267.406198 
L 308.158105 267.032685 
L 310.435245 267.032685 
L 310.191563 266.659172 
L 315.101939 266.659172 
L 314.858716 266.285659 
L 316.530364 266.285659 
L 316.287664 265.912146 
L 316.524545 265.912146 
L 316.282341 265.538633 
L 317.693681 265.538633 
L 317.452004 265.16512 
L 318.383533 265.16512 
L 318.142373 264.791607 
L 320.211462 264.791607 
L 319.970879 264.418094 
L 320.425714 264.418094 
L 319.946018 263.671068 
L 322.638192 263.671068 
L 322.399223 263.297555 
L 324.595385 263.297555 
L 324.357061 262.924042 
L 326.298 262.924042 
L 326.060324 262.550529 
L 328.178511 262.550529 
L 327.941525 262.177016 
L 328.569296 262.177016 
L 328.332833 261.803503 
L 330.400372 261.803503 
L 330.164624 261.42999 
L 331.993094 261.42999 
L 331.75805 261.056477 
L 332.760989 261.056477 
L 332.526532 260.682964 
L 338.357524 260.682964 
L 338.124555 260.309451 
L 340 260.309451 
L 339.767841 259.935938 
L 341.793455 259.935938 
L 341.562162 259.562425 
L 344.263167 259.562425 
L 344.032932 259.188912 
L 346.492353 259.188912 
L 346.263158 258.815399 
L 350.680066 258.815399 
L 350.452531 258.441886 
L 351.445169 258.441886 
L 351.218317 258.068373 
L 351.711111 258.068373 
L 351.484786 257.69486 
L 352.300983 257.69486 
L 352.075286 257.321347 
L 353.046254 257.321347 
L 352.821237 256.947834 
L 355.835337 256.947834 
L 355.611689 256.574321 
L 356.079393 256.574321 
L 355.856265 256.200808 
L 356.939286 256.200808 
L 356.494849 255.453782 
L 357.414274 255.453782 
L 357.192908 255.080269 
L 358.706646 255.080269 
L 358.486172 254.706756 
L 358.6363 254.706756 
L 358.416225 254.333244 
L 361.951608 254.333244 
L 361.733206 253.959731 
L 365.42093 253.959731 
L 365.204348 253.586218 
L 365.620793 253.586218 
L 365.188947 252.839192 
L 366.564863 252.839192 
L 366.35 252.465679 
L 369.175274 252.465679 
L 368.961953 252.092166 
L 369.622222 252.092166 
L 369.409507 251.718653 
L 370.065293 251.718653 
L 369.853179 251.34514 
L 373.44136 251.34514 
L 373.23121 250.971627 
L 373.356789 250.971627 
L 379.650819 250.971627 
L 379.444172 250.598114 
L 379.560899 250.598114 
L 381.635128 250.598114 
L 381.429926 250.224601 
L 381.54375 250.224601 
L 381.884306 250.224601 
L 381.679625 249.851088 
L 381.7929 249.851088 
L 383.916667 249.851088 
L 383.713483 249.477575 
L 383.823844 249.477575 
L 386.322511 249.477575 
L 386.121066 249.104062 
L 386.22807 249.104062 
L 387.184884 249.104062 
L 386.984312 248.730549 
L 387.09 248.730549 
L 387.826012 248.730549 
L 387.626187 248.357036 
L 387.730853 248.357036 
L 388.148177 248.357036 
L 387.948913 247.983523 
L 388.052971 247.983523 
L 388.364349 247.983523 
L 388.165583 247.61001 
L 388.269172 247.61001 
L 388.475954 247.61001 
L 388.277622 247.236497 
L 388.380877 247.236497 
L 389.508076 247.236497 
L 389.310719 246.862984 
L 389.412476 246.862984 
L 390.923596 246.862984 
L 390.631402 246.115958 
L 391.42579 246.115958 
L 391.035789 245.368932 
L 391.134653 245.368932 
L 391.233395 245.368932 
L 391.038875 244.995419 
L 391.137554 244.995419 
L 391.236111 244.995419 
L 391.041949 244.621906 
L 391.140444 244.621906 
L 393.659345 244.621906 
L 393.46701 244.248393 
L 393.562364 244.248393 
L 394.226614 244.248393 
L 394.034982 243.87488 
L 394.129476 243.87488 
L 394.787755 243.87488 
L 394.596821 243.501367 
L 394.690468 243.501367 
L 395.989834 243.501367 
L 395.8 243.127854 
L 395.892043 243.127854 
L 395.983976 243.127854 
L 395.794484 242.754341 
L 395.886366 242.754341 
L 396.526505 242.754341 
L 396.337699 242.380828 
L 396.428774 242.380828 
L 396.701354 242.380828 
L 396.513 242.007315 
L 396.603704 242.007315 
L 397.504909 242.007315 
L 397.317407 241.633802 
L 397.407005 241.633802 
L 400.39233 241.633802 
L 400.021955 240.886776 
L 400.108114 240.886776 
L 400.793857 240.886776 
L 400.609494 240.513263 
L 400.69483 240.513263 
L 402.714182 240.513263 
L 402.531429 240.13975 
L 402.614446 240.13975 
L 403.357437 240.13975 
L 403.175445 239.766237 
L 403.257596 239.766237 
L 403.585286 239.766237 
L 403.403774 239.392724 
L 403.485524 239.392724 
L 406.6828 239.392724 
L 406.503742 239.019211 
L 406.581951 239.019211 
L 409.791892 239.019211 
L 409.61536 238.645698 
L 409.690101 238.645698 
L 411.533229 238.645698 
L 411.358277 238.272185 
L 411.431054 238.272185 
L 411.721406 238.272185 
L 411.546903 237.898672 
L 411.619355 237.898672 
L 412.05249 237.898672 
L 411.878538 237.525159 
L 411.950518 237.525159 
L 412.452297 237.525159 
L 412.278947 237.151646 
L 412.350387 237.151646 
L 412.848407 237.151646 
L 412.675655 236.778133 
L 412.746561 236.778133 
L 412.817394 236.778133 
L 412.644923 236.40462 
L 412.715736 236.40462 
L 412.927738 236.40462 
L 412.755652 236.031107 
L 412.826227 236.031107 
L 413.107806 236.031107 
L 412.936155 235.657594 
L 413.006422 235.657594 
L 414.396872 235.657594 
L 414.226475 235.284081 
L 414.295313 235.284081 
L 414.364081 235.284081 
L 414.193958 234.910568 
L 414.262708 234.910568 
L 414.742026 234.910568 
L 414.572481 234.537055 
L 414.640731 234.537055 
L 415.790611 234.537055 
L 415.622145 234.163542 
L 415.689231 234.163542 
L 416.555325 234.163542 
L 416.387728 233.790029 
L 416.453941 233.790029 
L 417.634717 233.790029 
L 417.468228 233.416516 
L 417.533268 233.416516 
L 417.792795 233.416516 
L 417.626715 233.043003 
L 417.691488 233.043003 
L 418.655577 233.043003 
L 418.32547 232.295977 
L 418.389344 232.295977 
L 421.262406 232.295977 
L 421.099859 231.922464 
L 421.16098 231.922464 
L 421.283051 231.922464 
L 421.1208 231.548951 
L 421.181797 231.548951 
L 421.667713 231.548951 
L 421.506042 231.175438 
L 421.627047 231.175438 
L 422.168779 231.175438 
L 422.007778 230.801925 
L 422.127641 230.801925 
L 423.724219 230.801925 
L 423.564722 230.428412 
L 423.681505 230.428412 
L 424.952113 230.428412 
L 424.793869 230.054899 
L 424.908212 230.054899 
L 425.022348 230.054899 
L 424.864431 229.681386 
L 424.978452 229.681386 
L 426.107402 229.681386 
L 425.950628 229.307873 
L 426.0625 229.307873 
L 427.00538 229.307873 
L 426.8496 228.93436 
L 426.95968 228.93436 
L 427.014647 228.93436 
L 426.859139 228.560847 
L 426.969016 228.560847 
L 427.624206 228.560847 
L 427.469458 228.187334 
L 427.578071 228.187334 
L 427.956716 228.187334 
L 427.802501 227.813821 
L 427.910346 227.813821 
L 428.12547 227.813821 
L 427.925426 227.066795 
L 428.459896 227.066795 
L 428.153977 226.319769 
L 428.260486 226.319769 
L 428.419905 226.319769 
L 428.26736 225.946256 
L 428.373495 225.946256 
L 428.585214 225.946256 
L 428.43306 225.572743 
L 428.538731 225.572743 
L 429.947631 225.572743 
L 429.796843 225.19923 
L 429.9 225.19923 
L 430.157125 225.19923 
L 430.00676 224.825717 
L 430.109388 224.825717 
L 434.267719 224.825717 
L 434.121033 224.452204 
L 434.216633 224.452204 
L 436.003711 224.452204 
L 435.85875 224.078691 
L 435.95137 224.078691 
L 436.366319 224.078691 
L 435.881498 222.584639 
L 436.431128 222.584639 
L 436.287729 222.211126 
L 436.378901 222.211126 
L 436.515388 222.211126 
L 436.372297 221.837613 
L 436.463185 221.837613 
L 437.140268 221.837613 
L 436.997948 221.4641 
L 437.087697 221.4641 
L 437.667634 221.4641 
L 437.526 221.090587 
L 437.614773 221.090587 
L 438.582168 221.090587 
L 438.301048 220.343561 
L 438.388324 220.343561 
L 439.89403 220.343561 
L 439.755011 219.970048 
L 439.839908 219.970048 
L 439.96701 219.970048 
L 439.828282 219.596535 
L 439.912929 219.596535 
L 440.585481 219.596535 
L 440.447518 219.223022 
L 440.531087 219.223022 
L 443.378311 219.223022 
L 443.243031 218.849509 
L 443.322292 218.849509 
L 444.419803 218.849509 
L 444.229315 218.102483 
L 444.268111 218.102483 
L 444.345617 218.102483 
L 444.211855 217.72897 
L 444.328006 217.72897 
L 445.815258 217.72897 
L 445.683029 217.355457 
L 445.795815 217.355457 
L 445.945821 217.355457 
L 445.813924 216.981944 
L 445.926248 216.981944 
L 446.521277 216.981944 
L 446.39011 216.608431 
L 446.501027 216.608431 
L 446.537947 216.608431 
L 446.407006 216.234918 
L 446.517709 216.234918 
L 447.611962 216.234918 
L 447.222956 215.114379 
L 447.331414 215.114379 
L 449.001408 215.114379 
L 448.873532 214.740866 
L 448.978395 214.740866 
L 449.187474 214.740866 
L 449.059973 214.367353 
L 449.164286 214.367353 
L 451.439459 214.367353 
L 451.314228 213.99384 
L 451.413814 213.99384 
L 451.546285 213.99384 
L 451.421352 213.620327 
L 451.520566 213.620327 
L 452.501911 213.620327 
L 452.378063 213.246814 
L 452.475222 213.246814 
L 454.129343 213.246814 
L 454.007212 212.873301 
L 454.101034 212.873301 
L 454.163481 212.873301 
L 454.041575 212.499788 
L 454.135182 212.499788 
L 456.536604 212.499788 
L 456.417133 212.126275 
L 456.506062 212.126275 
L 457.18232 212.126275 
L 457.063653 211.752762 
L 457.15123 211.752762 
L 457.238643 211.752762 
L 457.120218 211.379249 
L 457.236626 211.379249 
L 460.082982 211.379249 
L 459.96748 211.005736 
L 460.076752 211.005736 
L 462.390035 211.005736 
L 462.27697 210.632223 
L 462.380597 210.632223 
L 462.920681 210.632223 
L 462.808316 210.25871 
L 462.910543 210.25871 
L 463.694819 210.25871 
L 463.583396 209.885197 
L 463.683673 209.885197 
L 466.23591 209.885197 
L 466.127197 209.511684 
L 466.221566 209.511684 
L 466.339232 209.511684 
L 466.230793 209.138171 
L 466.324785 209.138171 
L 467.436605 209.138171 
L 467.329441 208.764658 
L 467.44369 208.764658 
L 470.626066 208.764658 
L 470.522322 208.391145 
L 470.627839 208.391145 
L 470.838044 208.391145 
L 470.734679 208.017632 
L 470.839476 208.017632 
L 472.338865 208.017632 
L 472.237211 207.644119 
L 472.337958 207.644119 
L 472.498618 207.644119 
L 472.397288 207.270606 
L 472.49747 207.270606 
L 473.112931 207.270606 
L 473.012395 206.897093 
L 473.110861 206.897093 
L 475.493963 206.897093 
L 475.396075 206.52358 
L 475.506908 206.52358 
L 477.865401 206.52358 
L 477.770178 206.150067 
L 477.873987 206.150067 
L 478.473708 206.150067 
L 478.379281 205.776554 
L 478.48121 205.776554 
L 478.802102 205.776554 
L 478.708172 205.403041 
L 478.809023 205.403041 
L 479.556507 205.403041 
L 479.463529 205.029528 
L 479.562129 205.029528 
L 479.644087 205.029528 
L 479.551346 204.656015 
L 479.649552 204.656015 
L 483.601497 204.656015 
L 483.513189 204.282502 
L 483.615205 204.282502 
L 484.092 204.282502 
L 484.004365 203.908989 
L 484.104745 203.908989 
L 486.091293 203.908989 
L 486.005998 203.535476 
L 486.113763 203.535476 
L 486.910719 203.535476 
L 486.826463 203.161963 
L 486.931359 203.161963 
L 486.996744 203.161963 
L 486.912712 202.78845 
L 487.017167 202.78845 
L 487.250947 202.78845 
L 487.167325 202.414937 
L 487.270793 202.414937 
L 489.692727 202.414937 
L 489.531229 201.667911 
L 489.638802 201.667911 
L 491.287415 201.667911 
L 491.287415 201.667911 
" style="fill:none;stroke:#ff7f0e;stroke-linecap:square;stroke-width:2;"/>
   </g>
   <g id="line2d_47">
    <path clip-path="url(#p3e697f7f67)" d="M 76.5 448.186487 
L 76.5 301.769394 
L 77.703807 301.769394 
L 77.616 290.190491 
L 78.726761 290.190491 
L 78.54 275.623484 
L 79.553433 275.623484 
L 79.521019 273.755919 
L 80.519492 273.755919 
L 80.469038 271.514841 
L 81.450939 271.514841 
L 81.420124 270.394302 
L 82.391925 270.394302 
L 82.379752 270.020789 
L 83.345567 270.020789 
L 83.275714 268.153224 
L 84.227902 268.153224 
L 84.196552 267.406198 
L 85.141093 267.406198 
L 84.969643 263.671068 
L 85.892079 263.671068 
L 85.8 261.803503 
L 86.70998 261.803503 
L 86.690039 261.42999 
L 87.594737 261.42999 
L 87.487645 259.562425 
L 88.380347 259.562425 
L 88.222243 256.947834 
L 89.1 256.947834 
L 88.934831 254.333244 
L 89.798131 254.333244 
L 89.723978 253.212705 
L 90.579406 253.212705 
L 90.222966 247.983523 
L 93.530521 247.983523 
L 93.289381 244.995419 
L 94.903175 244.995419 
L 94.870775 244.621906 
L 95.672056 244.621906 
L 95.53822 243.127854 
L 97.121739 243.127854 
L 96.838765 240.13975 
L 97.616096 240.13975 
L 97.58 239.766237 
L 98.353413 239.766237 
L 97.667107 232.66949 
L 98.414851 232.66949 
L 98.378748 232.295977 
L 101.340589 232.295977 
L 101.3 231.922464 
L 102.033279 231.922464 
L 101.826699 230.054899 
L 103.275 230.054899 
L 103.188907 229.307873 
L 103.907384 229.307873 
L 103.863462 228.93436 
L 106.710191 228.93436 
L 106.566561 227.813821 
L 107.269462 227.813821 
L 107.220853 227.440308 
L 107.920505 227.440308 
L 107.674648 225.572743 
L 108.367031 225.572743 
L 108.267757 224.825717 
L 109.642081 224.825717 
L 109.590698 224.452204 
L 110.95456 224.452204 
L 110.53374 221.4641 
L 111.873973 221.4641 
L 111.820213 221.090587 
L 113.150455 221.090587 
L 113.095008 220.717074 
L 113.756193 220.717074 
L 113.311343 217.72897 
L 113.963338 217.72897 
L 113.907589 217.355457 
L 114.556761 217.355457 
L 114.500297 216.981944 
L 117.713108 216.981944 
L 117.59207 216.234918 
L 121.375546 216.234918 
L 120.987013 213.99384 
L 122.223885 213.99384 
L 121.832525 211.752762 
L 122.44359 211.752762 
L 122.183286 210.25871 
L 122.789533 210.25871 
L 122.593944 209.138171 
L 123.196203 209.138171 
L 123 208.017632 
L 123.598322 208.017632 
L 123.466946 207.270606 
L 124.062117 207.270606 
L 123.995967 206.897093 
L 125.179889 206.897093 
L 124.91131 205.403041 
L 125.497934 205.403041 
L 125.430536 205.029528 
L 126.597531 205.029528 
L 126.528904 204.656015 
L 127.109302 204.656015 
L 126.971214 203.908989 
L 127.548638 203.908989 
L 127.479184 203.535476 
L 128.627951 203.535476 
L 128.557317 203.161963 
L 129.128687 203.161963 
L 128.98664 202.414937 
L 129.555121 202.414937 
L 129.4125 201.667911 
L 129.978121 201.667911 
L 129.906434 201.294398 
L 130.46988 201.294398 
L 130.325768 200.547372 
L 134.219048 200.547372 
L 134.142801 200.173859 
L 136.876772 200.173859 
L 136.797641 199.800346 
L 137.339529 199.800346 
L 137.26 199.426833 
L 138.338331 199.426833 
L 138.257812 199.053321 
L 141.455814 199.053321 
L 141.372 198.679808 
L 141.899613 198.679808 
L 141.647754 197.559269 
L 142.172308 197.559269 
L 142.08822 197.185756 
L 142.61087 197.185756 
L 142.526437 196.812243 
L 143.566624 196.812243 
L 143.396188 196.065217 
L 145.968182 196.065217 
L 145.793199 195.318191 
L 146.810804 195.318191 
L 146.634586 194.571165 
L 147.140426 194.571165 
L 147.052125 194.197652 
L 147.55618 194.197652 
L 147.467581 193.824139 
L 149.966543 193.824139 
L 149.875619 193.450626 
L 150.371199 193.450626 
L 150.189026 192.7036 
L 151.174539 192.7036 
L 150.991288 191.956574 
L 151.970012 191.956574 
L 151.602314 190.462522 
L 153.055704 190.462522 
L 152.870339 189.715496 
L 153.351511 189.715496 
L 153.258696 189.341983 
L 155.644898 189.341983 
L 155.455329 188.594957 
L 155.92823 188.594957 
L 155.833333 188.221444 
L 156.304654 188.221444 
L 156.019976 187.100905 
L 156.488836 187.100905 
L 156.39395 186.727392 
L 157.792553 186.727392 
L 157.696576 186.353879 
L 158.622615 186.353879 
L 158.333451 185.23334 
L 158.793552 185.23334 
L 158.601053 184.486314 
L 159.972378 184.486314 
L 159.778256 183.739288 
L 161.588542 183.739288 
L 161.392032 182.992262 
L 161.841176 182.992262 
L 161.644764 182.245236 
L 164.754452 182.245236 
L 164.65382 181.871723 
L 165.093622 181.871723 
L 164.992833 181.49821 
L 166.740544 181.49821 
L 166.638462 181.124697 
L 168.7991 181.124697 
L 168.591919 180.377671 
L 169.447928 180.377671 
L 169.34396 180.004158 
L 170.195424 180.004158 
L 170.09097 179.630645 
L 170.937931 179.630645 
L 170.728302 178.883619 
L 171.149667 178.883619 
L 171.04485 178.510106 
L 172.302318 178.510106 
L 172.196692 178.136593 
L 173.444835 178.136593 
L 173.338419 177.76308 
L 173.752303 177.76308 
L 173.645783 177.389567 
L 174.058425 177.389567 
L 173.951803 177.016054 
L 175.999891 177.016054 
L 175.891857 176.642541 
L 176.704225 176.642541 
L 176.37959 175.522002 
L 177.18653 175.522002 
L 177.078149 175.148489 
L 177.48 175.148489 
L 177.371536 174.774976 
L 178.172026 174.774976 
L 178.063169 174.401463 
L 178.461818 174.401463 
L 178.352885 174.02795 
L 178.750374 174.02795 
L 178.532588 173.280924 
L 180.111665 173.280924 
L 180.001907 172.907411 
L 180.394286 172.907411 
L 180.284461 172.533898 
L 181.844526 172.533898 
L 181.733754 172.160385 
L 183.279581 172.160385 
L 183.167887 171.786872 
L 183.552038 171.786872 
L 183.440292 171.413359 
L 184.205625 171.413359 
L 184.093548 171.039846 
L 185.991615 171.039846 
L 185.878387 170.666333 
L 186.255372 170.666333 
L 186.142105 170.29282 
L 188.386154 170.29282 
L 188.271516 169.919307 
L 190.119266 169.919307 
L 190.003564 169.545794 
L 191.467241 169.545794 
L 191.35076 169.172281 
L 196.378022 169.172281 
L 196.258383 168.798768 
L 200.454142 168.798768 
L 200.210138 168.051742 
L 200.554867 168.051742 
L 200.433006 167.678229 
L 203.503408 167.678229 
L 203.379864 167.304716 
L 206.395082 167.304716 
L 206.269942 166.931203 
L 209.557443 166.931203 
L 209.430601 166.55769 
L 210.72735 166.55769 
L 210.6 166.184177 
L 211.565563 166.184177 
L 211.183302 165.063638 
L 211.503393 165.063638 
L 211.376271 164.690125 
L 211.695579 164.690125 
L 211.568515 164.316612 
L 211.887042 164.316612 
L 211.760038 163.943099 
L 214.910967 163.943099 
L 214.782451 163.569586 
L 215.094156 163.569586 
L 214.709528 162.449047 
L 215.330194 162.449047 
L 215.074286 161.702021 
L 218.443796 161.702021 
L 218.314403 161.328508 
L 225.722727 161.328508 
L 225.457206 160.581482 
L 229.459666 160.581482 
L 229.325373 160.207969 
L 232.400348 160.207969 
L 232.2649 159.834456 
L 235.280293 159.834456 
L 235.007474 159.08743 
L 235.278541 159.08743 
L 235.142367 158.713917 
L 235.412853 158.713917 
L 235.276798 158.340404 
L 243.178047 158.340404 
L 243.039033 157.966891 
L 245.331954 157.966891 
L 245.192308 157.593378 
L 246.701481 157.593378 
L 246.561513 157.219865 
L 246.811504 157.219865 
L 246.671675 156.846352 
L 247.915045 156.846352 
L 247.775 156.472839 
L 248.022367 156.472839 
L 247.882463 156.099326 
L 248.867561 156.099326 
L 248.727539 155.725813 
L 249.217518 155.725813 
L 249.077553 155.3523 
L 250.295157 155.3523 
L 250.155 154.978787 
L 252.798561 154.978787 
L 252.657748 154.605274 
L 255.020206 154.605274 
L 254.87886 154.231761 
L 255.580095 154.231761 
L 255.438753 153.858248 
L 260.254425 153.858248 
L 260.11187 153.484735 
L 264.553247 153.484735 
L 264.409695 153.111222 
L 265.498631 153.111222 
L 265.355015 152.737709 
L 265.571754 152.737709 
L 265.4283 152.364196 
L 269.062247 152.364196 
L 268.918114 151.990683 
L 270.804312 151.990683 
L 270.659955 151.61717 
L 274.559341 151.61717 
L 274.414348 151.243657 
L 274.818421 151.243657 
L 274.673557 150.870144 
L 275.478004 150.870144 
L 275.333188 150.496631 
L 275.933333 150.496631 
L 275.788607 150.123118 
L 281.073523 150.123118 
L 280.928023 149.749605 
L 284.526316 149.749605 
L 284.380435 149.376092 
L 291.295697 149.376092 
L 291.149078 149.002579 
L 293.780676 149.002579 
L 293.633964 148.629066 
L 297.398204 148.629066 
L 297.104651 147.88204 
L 297.777137 147.88204 
L 297.630596 147.508527 
L 300.120787 147.508527 
L 299.974246 147.135014 
L 307.313931 147.135014 
L 307.167196 146.761501 
L 309.468514 146.761501 
L 309.321901 146.387988 
L 309.928249 146.387988 
L 309.781807 146.014475 
L 315.104908 146.014475 
L 314.958614 145.640962 
L 320.32828 145.640962 
L 320.036445 144.893936 
L 335.377709 144.893936 
L 335.233166 144.520423 
L 335.713538 144.520423 
L 335.569209 144.14691 
L 337.469702 144.14691 
L 337.325758 143.773397 
L 337.44344 143.773397 
L 341.708266 143.773397 
L 341.565065 143.399885 
L 341.677982 143.399885 
L 342.352932 143.399885 
L 342.21 143.026372 
L 342.322085 143.026372 
L 342.545894 143.026372 
L 342.403165 142.652859 
L 342.514906 142.652859 
L 344.066791 142.652859 
L 343.924468 142.279346 
L 344.03445 142.279346 
L 344.801059 142.279346 
L 344.659026 141.905833 
L 344.768095 141.905833 
L 347.77586 141.905833 
L 347.634497 141.53232 
L 347.740313 141.53232 
L 349.937249 141.53232 
L 349.796447 141.158807 
L 349.899897 141.158807 
L 350.312635 141.158807 
L 350.172074 140.785294 
L 350.275013 140.785294 
L 355.583616 140.785294 
L 355.444284 140.411781 
L 355.541766 140.411781 
L 356.511271 140.411781 
L 356.372308 140.038268 
L 356.46875 140.038268 
L 360.342149 140.038268 
L 360.204227 139.664755 
L 360.296795 139.664755 
L 367.078173 139.664755 
L 366.942135 139.291242 
L 367.02817 139.291242 
L 369.069135 139.291242 
L 368.933811 138.917729 
L 369.017892 138.917729 
L 370.186909 138.917729 
L 370.052066 138.544216 
L 370.135016 138.544216 
L 370.960347 138.544216 
L 370.82589 138.170703 
L 370.908033 138.170703 
L 373.417777 138.170703 
L 373.284211 137.79719 
L 373.364029 137.79719 
L 377.797983 137.79719 
L 377.665951 137.423677 
L 377.741787 137.423677 
L 382.101494 137.423677 
L 381.971063 137.050164 
L 382.043089 137.050164 
L 384.735264 137.050164 
L 384.605917 136.676651 
L 384.675629 136.676651 
L 386.126195 136.676651 
L 385.997506 136.303138 
L 386.065974 136.303138 
L 387.625185 136.303138 
L 387.497203 135.929625 
L 387.56435 135.929625 
L 387.631443 135.929625 
L 387.503615 135.556112 
L 387.570678 135.556112 
L 393.823934 135.556112 
L 393.698658 135.182599 
L 393.760655 135.182599 
L 394.746 135.182599 
L 394.621247 134.809086 
L 394.682445 134.809086 
L 411.104348 134.809086 
L 410.987066 134.435573 
L 411.085009 134.435573 
L 415.995573 134.435573 
L 415.880878 134.06206 
L 415.971978 134.06206 
L 416.470838 134.06206 
L 416.356523 133.688547 
L 416.446875 133.688547 
L 416.492005 133.688547 
L 416.377837 133.315034 
L 416.468054 133.315034 
L 418.422619 133.315034 
L 418.309587 132.941521 
L 418.397126 132.941521 
L 418.919941 132.941521 
L 418.807303 132.568008 
L 418.894083 132.568008 
L 419.240066 132.568008 
L 419.127729 132.194495 
L 419.213986 132.194495 
L 426.846868 132.194495 
L 426.738803 131.820982 
L 426.853498 131.820982 
L 427.082252 131.820982 
L 426.974446 131.447469 
L 427.088571 131.447469 
L 428.664513 131.447469 
L 428.557732 131.073956 
L 428.668828 131.073956 
L 432.468623 131.073956 
L 432.364173 130.700443 
L 432.468338 130.700443 
L 432.848714 130.700443 
L 432.74461 130.32693 
L 432.847986 130.32693 
L 434.410714 130.32693 
L 434.307659 129.953417 
L 434.408199 129.953417 
L 437.026687 129.953417 
L 436.92533 129.579904 
L 437.021292 129.579904 
L 438.034911 129.579904 
L 437.934289 129.206391 
L 438.028448 129.206391 
L 438.776105 129.206391 
L 438.676056 128.832878 
L 438.768874 128.832878 
L 440.503667 128.832878 
L 440.404807 128.459365 
L 440.494681 128.459365 
L 445.276869 128.459365 
L 445.181158 128.085852 
L 445.290692 128.085852 
L 447.565753 128.085852 
L 447.471646 127.712339 
L 447.576362 127.712339 
L 471.084934 127.712339 
L 471.007746 127.338826 
L 471.116859 127.338826 
L 473.370615 127.338826 
L 473.370615 127.338826 
" style="fill:none;stroke:#2ca02c;stroke-linecap:square;stroke-width:2;"/>
   </g>
   <g id="patch_3">
    <path d="M 76.5 448.56 
L 76.5 60.48 
" style="fill:none;stroke:#000000;stroke-linecap:square;stroke-linejoin:miter;stroke-width:0.8;"/>
   </g>
   <g id="patch_4">
    <path d="M 550.8 448.56 
L 550.8 60.48 
" style="fill:none;stroke:#000000;stroke-linecap:square;stroke-linejoin:miter;stroke-width:0.8;"/>
   </g>
   <g id="patch_5">
    <path d="M 76.5 448.56 
L 550.8 448.56 
" style="fill:none;stroke:#000000;stroke-linecap:square;stroke-linejoin:miter;stroke-width:0.8;"/>
   </g>
   <g id="patch_6">
    <path d="M 76.5 60.48 
L 550.8 60.48 
" style="fill:none;stroke:#000000;stroke-linecap:square;stroke-linejoin:miter;stroke-width:0.8;"/>
   </g>
   <g id="text_25">
    <!-- boat: img1-img4 -->
    <defs>
     <path d="M 48.6875 27.296875 
Q 48.6875 37.203125 44.609375 42.84375 
Q 40.53125 48.484375 33.40625 48.484375 
Q 26.265625 48.484375 22.1875 42.84375 
Q 18.109375 37.203125 18.109375 27.296875 
Q 18.109375 17.390625 22.1875 11.75 
Q 26.265625 6.109375 33.40625 6.109375 
Q 40.53125 6.109375 44.609375 11.75 
Q 48.6875 17.390625 48.6875 27.296875 
z
M 18.109375 46.390625 
Q 20.953125 51.265625 25.265625 53.625 
Q 29.59375 56 35.59375 56 
Q 45.5625 56 51.78125 48.09375 
Q 58.015625 40.1875 58.015625 27.296875 
Q 58.015625 14.40625 51.78125 6.484375 
Q 45.5625 -1.421875 35.59375 -1.421875 
Q 29.59375 -1.421875 25.265625 0.953125 
Q 20.953125 3.328125 18.109375 8.203125 
L 18.109375 0 
L 9.078125 0 
L 9.078125 75.984375 
L 18.109375 75.984375 
z
" id="DejaVuSans-98"/>
     <path d="M 34.28125 27.484375 
Q 23.390625 27.484375 19.1875 25 
Q 14.984375 22.515625 14.984375 16.5 
Q 14.984375 11.71875 18.140625 8.90625 
Q 21.296875 6.109375 26.703125 6.109375 
Q 34.1875 6.109375 38.703125 11.40625 
Q 43.21875 16.703125 43.21875 25.484375 
L 43.21875 27.484375 
z
M 52.203125 31.203125 
L 52.203125 0 
L 43.21875 0 
L 43.21875 8.296875 
Q 40.140625 3.328125 35.546875 0.953125 
Q 30.953125 -1.421875 24.3125 -1.421875 
Q 15.921875 -1.421875 10.953125 3.296875 
Q 6 8.015625 6 15.921875 
Q 6 25.140625 12.171875 29.828125 
Q 18.359375 34.515625 30.609375 34.515625 
L 43.21875 34.515625 
L 43.21875 35.40625 
Q 43.21875 41.609375 39.140625 45 
Q 35.0625 48.390625 27.6875 48.390625 
Q 23 48.390625 18.546875 47.265625 
Q 14.109375 46.140625 10.015625 43.890625 
L 10.015625 52.203125 
Q 14.9375 54.109375 19.578125 55.046875 
Q 24.21875 56 28.609375 56 
Q 40.484375 56 46.34375 49.84375 
Q 52.203125 43.703125 52.203125 31.203125 
z
" id="DejaVuSans-97"/>
     <path d="M 11.71875 12.40625 
L 22.015625 12.40625 
L 22.015625 0 
L 11.71875 0 
z
M 11.71875 51.703125 
L 22.015625 51.703125 
L 22.015625 39.3125 
L 11.71875 39.3125 
z
" id="DejaVuSans-58"/>
     <path id="DejaVuSans-32"/>
     <path d="M 52 44.1875 
Q 55.375 50.25 60.0625 53.125 
Q 64.75 56 71.09375 56 
Q 79.640625 56 84.28125 50.015625 
Q 88.921875 44.046875 88.921875 33.015625 
L 88.921875 0 
L 79.890625 0 
L 79.890625 32.71875 
Q 79.890625 40.578125 77.09375 44.375 
Q 74.3125 48.1875 68.609375 48.1875 
Q 61.625 48.1875 57.5625 43.546875 
Q 53.515625 38.921875 53.515625 30.90625 
L 53.515625 0 
L 44.484375 0 
L 44.484375 32.71875 
Q 44.484375 40.625 41.703125 44.40625 
Q 38.921875 48.1875 33.109375 48.1875 
Q 26.21875 48.1875 22.15625 43.53125 
Q 18.109375 38.875 18.109375 30.90625 
L 18.109375 0 
L 9.078125 0 
L 9.078125 54.6875 
L 18.109375 54.6875 
L 18.109375 46.1875 
Q 21.1875 51.21875 25.484375 53.609375 
Q 29.78125 56 35.6875 56 
Q 41.65625 56 45.828125 52.96875 
Q 50 49.953125 52 44.1875 
z
" id="DejaVuSans-109"/>
     <path d="M 45.40625 27.984375 
Q 45.40625 37.75 41.375 43.109375 
Q 37.359375 48.484375 30.078125 48.484375 
Q 22.859375 48.484375 18.828125 43.109375 
Q 14.796875 37.75 14.796875 27.984375 
Q 14.796875 18.265625 18.828125 12.890625 
Q 22.859375 7.515625 30.078125 7.515625 
Q 37.359375 7.515625 41.375 12.890625 
Q 45.40625 18.265625 45.40625 27.984375 
z
M 54.390625 6.78125 
Q 54.390625 -7.171875 48.1875 -13.984375 
Q 42 -20.796875 29.203125 -20.796875 
Q 24.46875 -20.796875 20.265625 -20.09375 
Q 16.0625 -19.390625 12.109375 -17.921875 
L 12.109375 -9.1875 
Q 16.0625 -11.328125 19.921875 -12.34375 
Q 23.78125 -13.375 27.78125 -13.375 
Q 36.625 -13.375 41.015625 -8.765625 
Q 45.40625 -4.15625 45.40625 5.171875 
L 45.40625 9.625 
Q 42.625 4.78125 38.28125 2.390625 
Q 33.9375 0 27.875 0 
Q 17.828125 0 11.671875 7.65625 
Q 5.515625 15.328125 5.515625 27.984375 
Q 5.515625 40.671875 11.671875 48.328125 
Q 17.828125 56 27.875 56 
Q 33.9375 56 38.28125 53.609375 
Q 42.625 51.21875 45.40625 46.390625 
L 45.40625 54.6875 
L 54.390625 54.6875 
z
" id="DejaVuSans-103"/>
    </defs>
    <g transform="translate(263.772188 41.042625)scale(0.12 -0.12)">
     <use xlink:href="#DejaVuSans-98"/>
     <use x="63.476562" xlink:href="#DejaVuSans-111"/>
     <use x="124.658203" xlink:href="#DejaVuSans-97"/>
     <use x="185.9375" xlink:href="#DejaVuSans-116"/>
     <use x="225.146484" xlink:href="#DejaVuSans-58"/>
     <use x="258.837891" xlink:href="#DejaVuSans-32"/>
     <use x="290.625" xlink:href="#DejaVuSans-105"/>
     <use x="318.408203" xlink:href="#DejaVuSans-109"/>
     <use x="415.820312" xlink:href="#DejaVuSans-103"/>
     <use x="479.296875" xlink:href="#DejaVuSans-49"/>
     <use x="542.919922" xlink:href="#DejaVuSans-45"/>
     <use x="579.003906" xlink:href="#DejaVuSans-105"/>
     <use x="606.787109" xlink:href="#DejaVuSans-109"/>
     <use x="704.199219" xlink:href="#DejaVuSans-103"/>
     <use x="767.675781" xlink:href="#DejaVuSans-52"/>
    </g>
    <!-- NearestNeighbours -->
    <defs>
     <path d="M 9.8125 72.90625 
L 23.09375 72.90625 
L 55.421875 11.921875 
L 55.421875 72.90625 
L 64.984375 72.90625 
L 64.984375 0 
L 51.703125 0 
L 19.390625 60.984375 
L 19.390625 0 
L 9.8125 0 
z
" id="DejaVuSans-78"/>
     <path d="M 54.890625 33.015625 
L 54.890625 0 
L 45.90625 0 
L 45.90625 32.71875 
Q 45.90625 40.484375 42.875 44.328125 
Q 39.84375 48.1875 33.796875 48.1875 
Q 26.515625 48.1875 22.3125 43.546875 
Q 18.109375 38.921875 18.109375 30.90625 
L 18.109375 0 
L 9.078125 0 
L 9.078125 75.984375 
L 18.109375 75.984375 
L 18.109375 46.1875 
Q 21.34375 51.125 25.703125 53.5625 
Q 30.078125 56 35.796875 56 
Q 45.21875 56 50.046875 50.171875 
Q 54.890625 44.34375 54.890625 33.015625 
z
" id="DejaVuSans-104"/>
     <path d="M 8.5 21.578125 
L 8.5 54.6875 
L 17.484375 54.6875 
L 17.484375 21.921875 
Q 17.484375 14.15625 20.5 10.265625 
Q 23.53125 6.390625 29.59375 6.390625 
Q 36.859375 6.390625 41.078125 11.03125 
Q 45.3125 15.671875 45.3125 23.6875 
L 45.3125 54.6875 
L 54.296875 54.6875 
L 54.296875 0 
L 45.3125 0 
L 45.3125 8.40625 
Q 42.046875 3.421875 37.71875 1 
Q 33.40625 -1.421875 27.6875 -1.421875 
Q 18.265625 -1.421875 13.375 4.4375 
Q 8.5 10.296875 8.5 21.578125 
z
M 31.109375 56 
z
" id="DejaVuSans-117"/>
    </defs>
    <g transform="translate(255.824063 54.48)scale(0.12 -0.12)">
     <use xlink:href="#DejaVuSans-78"/>
     <use x="74.804688" xlink:href="#DejaVuSans-101"/>
     <use x="136.328125" xlink:href="#DejaVuSans-97"/>
     <use x="197.607422" xlink:href="#DejaVuSans-114"/>
     <use x="238.689453" xlink:href="#DejaVuSans-101"/>
     <use x="300.212891" xlink:href="#DejaVuSans-115"/>
     <use x="352.3125" xlink:href="#DejaVuSans-116"/>
     <use x="391.521484" xlink:href="#DejaVuSans-78"/>
     <use x="466.326172" xlink:href="#DejaVuSans-101"/>
     <use x="527.849609" xlink:href="#DejaVuSans-105"/>
     <use x="555.632812" xlink:href="#DejaVuSans-103"/>
     <use x="619.109375" xlink:href="#DejaVuSans-104"/>
     <use x="682.488281" xlink:href="#DejaVuSans-98"/>
     <use x="745.964844" xlink:href="#DejaVuSans-111"/>
     <use x="807.146484" xlink:href="#DejaVuSans-117"/>
     <use x="870.525391" xlink:href="#DejaVuSans-114"/>
     <use x="911.638672" xlink:href="#DejaVuSans-115"/>
    </g>
   </g>
   <g id="legend_1">
    <g id="patch_7">
     <path d="M 362.264063 112.514375 
L 543.8 112.514375 
Q 545.8 112.514375 545.8 110.514375 
L 545.8 67.48 
Q 545.8 65.48 543.8 65.48 
L 362.264063 65.48 
Q 360.264063 65.48 360.264063 67.48 
L 360.264063 110.514375 
Q 360.264063 112.514375 362.264063 112.514375 
z
" style="fill:#ffffff;opacity:0.8;stroke:#cccccc;stroke-linejoin:miter;"/>
    </g>
    <g id="line2d_48">
     <path d="M 364.264063 73.578438 
L 384.264063 73.578438 
" style="fill:none;stroke:#1f77b4;stroke-linecap:square;stroke-width:2;"/>
    </g>
    <g id="line2d_49"/>
    <g id="text_26">
     <!-- root-cvsift AP: 62.8, %In: 14.6 -->
     <defs>
      <path d="M 2.984375 54.6875 
L 12.5 54.6875 
L 29.59375 8.796875 
L 46.6875 54.6875 
L 56.203125 54.6875 
L 35.6875 0 
L 23.484375 0 
z
" id="DejaVuSans-118"/>
      <path d="M 37.109375 75.984375 
L 37.109375 68.5 
L 28.515625 68.5 
Q 23.6875 68.5 21.796875 66.546875 
Q 19.921875 64.59375 19.921875 59.515625 
L 19.921875 54.6875 
L 34.71875 54.6875 
L 34.71875 47.703125 
L 19.921875 47.703125 
L 19.921875 0 
L 10.890625 0 
L 10.890625 47.703125 
L 2.296875 47.703125 
L 2.296875 54.6875 
L 10.890625 54.6875 
L 10.890625 58.5 
Q 10.890625 67.625 15.140625 71.796875 
Q 19.390625 75.984375 28.609375 75.984375 
z
" id="DejaVuSans-102"/>
      <path d="M 34.1875 63.1875 
L 20.796875 26.90625 
L 47.609375 26.90625 
z
M 28.609375 72.90625 
L 39.796875 72.90625 
L 67.578125 0 
L 57.328125 0 
L 50.6875 18.703125 
L 17.828125 18.703125 
L 11.1875 0 
L 0.78125 0 
z
" id="DejaVuSans-65"/>
      <path d="M 19.671875 64.796875 
L 19.671875 37.40625 
L 32.078125 37.40625 
Q 38.96875 37.40625 42.71875 40.96875 
Q 46.484375 44.53125 46.484375 51.125 
Q 46.484375 57.671875 42.71875 61.234375 
Q 38.96875 64.796875 32.078125 64.796875 
z
M 9.8125 72.90625 
L 32.078125 72.90625 
Q 44.34375 72.90625 50.609375 67.359375 
Q 56.890625 61.8125 56.890625 51.125 
Q 56.890625 40.328125 50.609375 34.8125 
Q 44.34375 29.296875 32.078125 29.296875 
L 19.671875 29.296875 
L 19.671875 0 
L 9.8125 0 
z
" id="DejaVuSans-80"/>
      <path d="M 11.71875 12.40625 
L 22.015625 12.40625 
L 22.015625 4 
L 14.015625 -11.625 
L 7.71875 -11.625 
L 11.71875 4 
z
" id="DejaVuSans-44"/>
      <path d="M 72.703125 32.078125 
Q 68.453125 32.078125 66.03125 28.46875 
Q 63.625 24.859375 63.625 18.40625 
Q 63.625 12.0625 66.03125 8.421875 
Q 68.453125 4.78125 72.703125 4.78125 
Q 76.859375 4.78125 79.265625 8.421875 
Q 81.6875 12.0625 81.6875 18.40625 
Q 81.6875 24.8125 79.265625 28.4375 
Q 76.859375 32.078125 72.703125 32.078125 
z
M 72.703125 38.28125 
Q 80.421875 38.28125 84.953125 32.90625 
Q 89.5 27.546875 89.5 18.40625 
Q 89.5 9.28125 84.9375 3.921875 
Q 80.375 -1.421875 72.703125 -1.421875 
Q 64.890625 -1.421875 60.34375 3.921875 
Q 55.8125 9.28125 55.8125 18.40625 
Q 55.8125 27.59375 60.375 32.9375 
Q 64.9375 38.28125 72.703125 38.28125 
z
M 22.3125 68.015625 
Q 18.109375 68.015625 15.6875 64.375 
Q 13.28125 60.75 13.28125 54.390625 
Q 13.28125 47.953125 15.671875 44.328125 
Q 18.0625 40.71875 22.3125 40.71875 
Q 26.5625 40.71875 28.96875 44.328125 
Q 31.390625 47.953125 31.390625 54.390625 
Q 31.390625 60.6875 28.953125 64.34375 
Q 26.515625 68.015625 22.3125 68.015625 
z
M 66.40625 74.21875 
L 74.21875 74.21875 
L 28.609375 -1.421875 
L 20.796875 -1.421875 
z
M 22.3125 74.21875 
Q 30.03125 74.21875 34.609375 68.875 
Q 39.203125 63.53125 39.203125 54.390625 
Q 39.203125 45.171875 34.640625 39.84375 
Q 30.078125 34.515625 22.3125 34.515625 
Q 14.546875 34.515625 10.03125 39.859375 
Q 5.515625 45.21875 5.515625 54.390625 
Q 5.515625 63.484375 10.046875 68.84375 
Q 14.59375 74.21875 22.3125 74.21875 
z
" id="DejaVuSans-37"/>
      <path d="M 9.8125 72.90625 
L 19.671875 72.90625 
L 19.671875 0 
L 9.8125 0 
z
" id="DejaVuSans-73"/>
     </defs>
     <g transform="translate(392.264063 77.078438)scale(0.1 -0.1)">
      <use xlink:href="#DejaVuSans-114"/>
      <use x="41.082031" xlink:href="#DejaVuSans-111"/>
      <use x="102.263672" xlink:href="#DejaVuSans-111"/>
      <use x="163.445312" xlink:href="#DejaVuSans-116"/>
      <use x="202.654297" xlink:href="#DejaVuSans-45"/>
      <use x="238.738281" xlink:href="#DejaVuSans-99"/>
      <use x="293.71875" xlink:href="#DejaVuSans-118"/>
      <use x="352.898438" xlink:href="#DejaVuSans-115"/>
      <use x="404.998047" xlink:href="#DejaVuSans-105"/>
      <use x="432.78125" xlink:href="#DejaVuSans-102"/>
      <use x="467.970703" xlink:href="#DejaVuSans-116"/>
      <use x="507.179688" xlink:href="#DejaVuSans-32"/>
      <use x="538.966797" xlink:href="#DejaVuSans-65"/>
      <use x="607.375" xlink:href="#DejaVuSans-80"/>
      <use x="667.677734" xlink:href="#DejaVuSans-58"/>
      <use x="701.369141" xlink:href="#DejaVuSans-32"/>
      <use x="733.15625" xlink:href="#DejaVuSans-54"/>
      <use x="796.779297" xlink:href="#DejaVuSans-50"/>
      <use x="860.402344" xlink:href="#DejaVuSans-46"/>
      <use x="892.189453" xlink:href="#DejaVuSans-56"/>
      <use x="955.8125" xlink:href="#DejaVuSans-44"/>
      <use x="987.599609" xlink:href="#DejaVuSans-32"/>
      <use x="1019.386719" xlink:href="#DejaVuSans-37"/>
      <use x="1114.40625" xlink:href="#DejaVuSans-73"/>
      <use x="1143.898438" xlink:href="#DejaVuSans-110"/>
      <use x="1207.277344" xlink:href="#DejaVuSans-58"/>
      <use x="1240.96875" xlink:href="#DejaVuSans-32"/>
      <use x="1272.755859" xlink:href="#DejaVuSans-49"/>
      <use x="1336.378906" xlink:href="#DejaVuSans-52"/>
      <use x="1400.001953" xlink:href="#DejaVuSans-46"/>
      <use x="1431.789062" xlink:href="#DejaVuSans-54"/>
     </g>
    </g>
    <g id="line2d_50">
     <path d="M 364.264063 88.256563 
L 384.264063 88.256563 
" style="fill:none;stroke:#ff7f0e;stroke-linecap:square;stroke-width:2;"/>
    </g>
    <g id="line2d_51"/>
    <g id="text_27">
     <!-- tfeat AP: 46.4, %In: 12.5 -->
     <g transform="translate(392.264063 91.756563)scale(0.1 -0.1)">
      <use xlink:href="#DejaVuSans-116"/>
      <use x="39.208984" xlink:href="#DejaVuSans-102"/>
      <use x="74.414062" xlink:href="#DejaVuSans-101"/>
      <use x="135.9375" xlink:href="#DejaVuSans-97"/>
      <use x="197.216797" xlink:href="#DejaVuSans-116"/>
      <use x="236.425781" xlink:href="#DejaVuSans-32"/>
      <use x="268.212891" xlink:href="#DejaVuSans-65"/>
      <use x="336.621094" xlink:href="#DejaVuSans-80"/>
      <use x="396.923828" xlink:href="#DejaVuSans-58"/>
      <use x="430.615234" xlink:href="#DejaVuSans-32"/>
      <use x="462.402344" xlink:href="#DejaVuSans-52"/>
      <use x="526.025391" xlink:href="#DejaVuSans-54"/>
      <use x="589.648438" xlink:href="#DejaVuSans-46"/>
      <use x="621.435547" xlink:href="#DejaVuSans-52"/>
      <use x="685.058594" xlink:href="#DejaVuSans-44"/>
      <use x="716.845703" xlink:href="#DejaVuSans-32"/>
      <use x="748.632812" xlink:href="#DejaVuSans-37"/>
      <use x="843.652344" xlink:href="#DejaVuSans-73"/>
      <use x="873.144531" xlink:href="#DejaVuSans-110"/>
      <use x="936.523438" xlink:href="#DejaVuSans-58"/>
      <use x="970.214844" xlink:href="#DejaVuSans-32"/>
      <use x="1002.001953" xlink:href="#DejaVuSans-49"/>
      <use x="1065.625" xlink:href="#DejaVuSans-50"/>
      <use x="1129.248047" xlink:href="#DejaVuSans-46"/>
      <use x="1161.035156" xlink:href="#DejaVuSans-53"/>
     </g>
    </g>
    <g id="line2d_52">
     <path d="M 364.264063 102.934687 
L 384.264063 102.934687 
" style="fill:none;stroke:#2ca02c;stroke-linecap:square;stroke-width:2;"/>
    </g>
    <g id="line2d_53"/>
    <g id="text_28">
     <!-- hardnet AP: 74.9, %In: 16.3 -->
     <defs>
      <path d="M 45.40625 46.390625 
L 45.40625 75.984375 
L 54.390625 75.984375 
L 54.390625 0 
L 45.40625 0 
L 45.40625 8.203125 
Q 42.578125 3.328125 38.25 0.953125 
Q 33.9375 -1.421875 27.875 -1.421875 
Q 17.96875 -1.421875 11.734375 6.484375 
Q 5.515625 14.40625 5.515625 27.296875 
Q 5.515625 40.1875 11.734375 48.09375 
Q 17.96875 56 27.875 56 
Q 33.9375 56 38.25 53.625 
Q 42.578125 51.265625 45.40625 46.390625 
z
M 14.796875 27.296875 
Q 14.796875 17.390625 18.875 11.75 
Q 22.953125 6.109375 30.078125 6.109375 
Q 37.203125 6.109375 41.296875 11.75 
Q 45.40625 17.390625 45.40625 27.296875 
Q 45.40625 37.203125 41.296875 42.84375 
Q 37.203125 48.484375 30.078125 48.484375 
Q 22.953125 48.484375 18.875 42.84375 
Q 14.796875 37.203125 14.796875 27.296875 
z
" id="DejaVuSans-100"/>
     </defs>
     <g transform="translate(392.264063 106.434687)scale(0.1 -0.1)">
      <use xlink:href="#DejaVuSans-104"/>
      <use x="63.378906" xlink:href="#DejaVuSans-97"/>
      <use x="124.658203" xlink:href="#DejaVuSans-114"/>
      <use x="165.755859" xlink:href="#DejaVuSans-100"/>
      <use x="229.232422" xlink:href="#DejaVuSans-110"/>
      <use x="292.611328" xlink:href="#DejaVuSans-101"/>
      <use x="354.134766" xlink:href="#DejaVuSans-116"/>
      <use x="393.34375" xlink:href="#DejaVuSans-32"/>
      <use x="425.130859" xlink:href="#DejaVuSans-65"/>
      <use x="493.539062" xlink:href="#DejaVuSans-80"/>
      <use x="553.841797" xlink:href="#DejaVuSans-58"/>
      <use x="587.533203" xlink:href="#DejaVuSans-32"/>
      <use x="619.320312" xlink:href="#DejaVuSans-55"/>
      <use x="682.943359" xlink:href="#DejaVuSans-52"/>
      <use x="746.566406" xlink:href="#DejaVuSans-46"/>
      <use x="778.353516" xlink:href="#DejaVuSans-57"/>
      <use x="841.976562" xlink:href="#DejaVuSans-44"/>
      <use x="873.763672" xlink:href="#DejaVuSans-32"/>
      <use x="905.550781" xlink:href="#DejaVuSans-37"/>
      <use x="1000.570312" xlink:href="#DejaVuSans-73"/>
      <use x="1030.0625" xlink:href="#DejaVuSans-110"/>
      <use x="1093.441406" xlink:href="#DejaVuSans-58"/>
      <use x="1127.132812" xlink:href="#DejaVuSans-32"/>
      <use x="1158.919922" xlink:href="#DejaVuSans-49"/>
      <use x="1222.542969" xlink:href="#DejaVuSans-54"/>
      <use x="1286.166016" xlink:href="#DejaVuSans-46"/>
      <use x="1317.953125" xlink:href="#DejaVuSans-51"/>
     </g>
    </g>
   </g>
  </g>
 </g>
 <defs>
  <clipPath id="p3e697f7f67">
   <rect height="388.08" width="474.3" x="76.5" y="60.48"/>
  </clipPath>
 </defs>
</svg>
