<?xml version="1.0" encoding="utf-8" standalone="no"?>
<!DOCTYPE svg PUBLIC "-//W3C//DTD SVG 1.1//EN"
  "http://www.w3.org/Graphics/SVG/1.1/DTD/svg11.dtd">
<!-- Created with matplotlib (https://matplotlib.org/) -->
<svg height="504pt" version="1.1" viewBox="0 0 612 504" width="612pt" xmlns="http://www.w3.org/2000/svg" xmlns:xlink="http://www.w3.org/1999/xlink">
 <defs>
  <style type="text/css">
*{stroke-linecap:butt;stroke-linejoin:round;}
  </style>
 </defs>
 <g id="figure_1">
  <g id="patch_1">
   <path d="M 0 504 
L 612 504 
L 612 0 
L 0 0 
z
" style="fill:#ffffff;"/>
  </g>
  <g id="axes_1">
   <g id="patch_2">
    <path d="M 76.5 448.56 
L 550.8 448.56 
L 550.8 60.48 
L 76.5 60.48 
z
" style="fill:#ffffff;"/>
   </g>
   <g id="matplotlib.axis_1">
    <g id="xtick_1">
     <g id="line2d_1">
      <path clip-path="url(#p198c5ef534)" d="M 76.5 448.56 
L 76.5 60.48 
" style="fill:none;stroke:#b0b0b0;stroke-linecap:square;stroke-width:0.8;"/>
     </g>
     <g id="line2d_2">
      <defs>
       <path d="M 0 0 
L 0 3.5 
" id="m0070f57fe4" style="stroke:#000000;stroke-width:0.8;"/>
      </defs>
      <g>
       <use style="stroke:#000000;stroke-width:0.8;" x="76.5" xlink:href="#m0070f57fe4" y="448.56"/>
      </g>
     </g>
     <g id="text_1">
      <!-- 0.0 -->
      <defs>
       <path d="M 31.78125 66.40625 
Q 24.171875 66.40625 20.328125 58.90625 
Q 16.5 51.421875 16.5 36.375 
Q 16.5 21.390625 20.328125 13.890625 
Q 24.171875 6.390625 31.78125 6.390625 
Q 39.453125 6.390625 43.28125 13.890625 
Q 47.125 21.390625 47.125 36.375 
Q 47.125 51.421875 43.28125 58.90625 
Q 39.453125 66.40625 31.78125 66.40625 
z
M 31.78125 74.21875 
Q 44.046875 74.21875 50.515625 64.515625 
Q 56.984375 54.828125 56.984375 36.375 
Q 56.984375 17.96875 50.515625 8.265625 
Q 44.046875 -1.421875 31.78125 -1.421875 
Q 19.53125 -1.421875 13.0625 8.265625 
Q 6.59375 17.96875 6.59375 36.375 
Q 6.59375 54.828125 13.0625 64.515625 
Q 19.53125 74.21875 31.78125 74.21875 
z
" id="DejaVuSans-48"/>
       <path d="M 10.6875 12.40625 
L 21 12.40625 
L 21 0 
L 10.6875 0 
z
" id="DejaVuSans-46"/>
      </defs>
      <g transform="translate(68.548438 463.158437)scale(0.1 -0.1)">
       <use xlink:href="#DejaVuSans-48"/>
       <use x="63.623047" xlink:href="#DejaVuSans-46"/>
       <use x="95.410156" xlink:href="#DejaVuSans-48"/>
      </g>
     </g>
    </g>
    <g id="xtick_2">
     <g id="line2d_3">
      <path clip-path="url(#p198c5ef534)" d="M 123.93 448.56 
L 123.93 60.48 
" style="fill:none;stroke:#b0b0b0;stroke-linecap:square;stroke-width:0.8;"/>
     </g>
     <g id="line2d_4">
      <g>
       <use style="stroke:#000000;stroke-width:0.8;" x="123.93" xlink:href="#m0070f57fe4" y="448.56"/>
      </g>
     </g>
     <g id="text_2">
      <!-- 0.1 -->
      <defs>
       <path d="M 12.40625 8.296875 
L 28.515625 8.296875 
L 28.515625 63.921875 
L 10.984375 60.40625 
L 10.984375 69.390625 
L 28.421875 72.90625 
L 38.28125 72.90625 
L 38.28125 8.296875 
L 54.390625 8.296875 
L 54.390625 0 
L 12.40625 0 
z
" id="DejaVuSans-49"/>
      </defs>
      <g transform="translate(115.978438 463.158437)scale(0.1 -0.1)">
       <use xlink:href="#DejaVuSans-48"/>
       <use x="63.623047" xlink:href="#DejaVuSans-46"/>
       <use x="95.410156" xlink:href="#DejaVuSans-49"/>
      </g>
     </g>
    </g>
    <g id="xtick_3">
     <g id="line2d_5">
      <path clip-path="url(#p198c5ef534)" d="M 171.36 448.56 
L 171.36 60.48 
" style="fill:none;stroke:#b0b0b0;stroke-linecap:square;stroke-width:0.8;"/>
     </g>
     <g id="line2d_6">
      <g>
       <use style="stroke:#000000;stroke-width:0.8;" x="171.36" xlink:href="#m0070f57fe4" y="448.56"/>
      </g>
     </g>
     <g id="text_3">
      <!-- 0.2 -->
      <defs>
       <path d="M 19.1875 8.296875 
L 53.609375 8.296875 
L 53.609375 0 
L 7.328125 0 
L 7.328125 8.296875 
Q 12.9375 14.109375 22.625 23.890625 
Q 32.328125 33.6875 34.8125 36.53125 
Q 39.546875 41.84375 41.421875 45.53125 
Q 43.3125 49.21875 43.3125 52.78125 
Q 43.3125 58.59375 39.234375 62.25 
Q 35.15625 65.921875 28.609375 65.921875 
Q 23.96875 65.921875 18.8125 64.3125 
Q 13.671875 62.703125 7.8125 59.421875 
L 7.8125 69.390625 
Q 13.765625 71.78125 18.9375 73 
Q 24.125 74.21875 28.421875 74.21875 
Q 39.75 74.21875 46.484375 68.546875 
Q 53.21875 62.890625 53.21875 53.421875 
Q 53.21875 48.921875 51.53125 44.890625 
Q 49.859375 40.875 45.40625 35.40625 
Q 44.1875 33.984375 37.640625 27.21875 
Q 31.109375 20.453125 19.1875 8.296875 
z
" id="DejaVuSans-50"/>
      </defs>
      <g transform="translate(163.408438 463.158437)scale(0.1 -0.1)">
       <use xlink:href="#DejaVuSans-48"/>
       <use x="63.623047" xlink:href="#DejaVuSans-46"/>
       <use x="95.410156" xlink:href="#DejaVuSans-50"/>
      </g>
     </g>
    </g>
    <g id="xtick_4">
     <g id="line2d_7">
      <path clip-path="url(#p198c5ef534)" d="M 218.79 448.56 
L 218.79 60.48 
" style="fill:none;stroke:#b0b0b0;stroke-linecap:square;stroke-width:0.8;"/>
     </g>
     <g id="line2d_8">
      <g>
       <use style="stroke:#000000;stroke-width:0.8;" x="218.79" xlink:href="#m0070f57fe4" y="448.56"/>
      </g>
     </g>
     <g id="text_4">
      <!-- 0.3 -->
      <defs>
       <path d="M 40.578125 39.3125 
Q 47.65625 37.796875 51.625 33 
Q 55.609375 28.21875 55.609375 21.1875 
Q 55.609375 10.40625 48.1875 4.484375 
Q 40.765625 -1.421875 27.09375 -1.421875 
Q 22.515625 -1.421875 17.65625 -0.515625 
Q 12.796875 0.390625 7.625 2.203125 
L 7.625 11.71875 
Q 11.71875 9.328125 16.59375 8.109375 
Q 21.484375 6.890625 26.8125 6.890625 
Q 36.078125 6.890625 40.9375 10.546875 
Q 45.796875 14.203125 45.796875 21.1875 
Q 45.796875 27.640625 41.28125 31.265625 
Q 36.765625 34.90625 28.71875 34.90625 
L 20.21875 34.90625 
L 20.21875 43.015625 
L 29.109375 43.015625 
Q 36.375 43.015625 40.234375 45.921875 
Q 44.09375 48.828125 44.09375 54.296875 
Q 44.09375 59.90625 40.109375 62.90625 
Q 36.140625 65.921875 28.71875 65.921875 
Q 24.65625 65.921875 20.015625 65.03125 
Q 15.375 64.15625 9.8125 62.3125 
L 9.8125 71.09375 
Q 15.4375 72.65625 20.34375 73.4375 
Q 25.25 74.21875 29.59375 74.21875 
Q 40.828125 74.21875 47.359375 69.109375 
Q 53.90625 64.015625 53.90625 55.328125 
Q 53.90625 49.265625 50.4375 45.09375 
Q 46.96875 40.921875 40.578125 39.3125 
z
" id="DejaVuSans-51"/>
      </defs>
      <g transform="translate(210.838438 463.158437)scale(0.1 -0.1)">
       <use xlink:href="#DejaVuSans-48"/>
       <use x="63.623047" xlink:href="#DejaVuSans-46"/>
       <use x="95.410156" xlink:href="#DejaVuSans-51"/>
      </g>
     </g>
    </g>
    <g id="xtick_5">
     <g id="line2d_9">
      <path clip-path="url(#p198c5ef534)" d="M 266.22 448.56 
L 266.22 60.48 
" style="fill:none;stroke:#b0b0b0;stroke-linecap:square;stroke-width:0.8;"/>
     </g>
     <g id="line2d_10">
      <g>
       <use style="stroke:#000000;stroke-width:0.8;" x="266.22" xlink:href="#m0070f57fe4" y="448.56"/>
      </g>
     </g>
     <g id="text_5">
      <!-- 0.4 -->
      <defs>
       <path d="M 37.796875 64.3125 
L 12.890625 25.390625 
L 37.796875 25.390625 
z
M 35.203125 72.90625 
L 47.609375 72.90625 
L 47.609375 25.390625 
L 58.015625 25.390625 
L 58.015625 17.1875 
L 47.609375 17.1875 
L 47.609375 0 
L 37.796875 0 
L 37.796875 17.1875 
L 4.890625 17.1875 
L 4.890625 26.703125 
z
" id="DejaVuSans-52"/>
      </defs>
      <g transform="translate(258.268438 463.158437)scale(0.1 -0.1)">
       <use xlink:href="#DejaVuSans-48"/>
       <use x="63.623047" xlink:href="#DejaVuSans-46"/>
       <use x="95.410156" xlink:href="#DejaVuSans-52"/>
      </g>
     </g>
    </g>
    <g id="xtick_6">
     <g id="line2d_11">
      <path clip-path="url(#p198c5ef534)" d="M 313.65 448.56 
L 313.65 60.48 
" style="fill:none;stroke:#b0b0b0;stroke-linecap:square;stroke-width:0.8;"/>
     </g>
     <g id="line2d_12">
      <g>
       <use style="stroke:#000000;stroke-width:0.8;" x="313.65" xlink:href="#m0070f57fe4" y="448.56"/>
      </g>
     </g>
     <g id="text_6">
      <!-- 0.5 -->
      <defs>
       <path d="M 10.796875 72.90625 
L 49.515625 72.90625 
L 49.515625 64.59375 
L 19.828125 64.59375 
L 19.828125 46.734375 
Q 21.96875 47.46875 24.109375 47.828125 
Q 26.265625 48.1875 28.421875 48.1875 
Q 40.625 48.1875 47.75 41.5 
Q 54.890625 34.8125 54.890625 23.390625 
Q 54.890625 11.625 47.5625 5.09375 
Q 40.234375 -1.421875 26.90625 -1.421875 
Q 22.3125 -1.421875 17.546875 -0.640625 
Q 12.796875 0.140625 7.71875 1.703125 
L 7.71875 11.625 
Q 12.109375 9.234375 16.796875 8.0625 
Q 21.484375 6.890625 26.703125 6.890625 
Q 35.15625 6.890625 40.078125 11.328125 
Q 45.015625 15.765625 45.015625 23.390625 
Q 45.015625 31 40.078125 35.4375 
Q 35.15625 39.890625 26.703125 39.890625 
Q 22.75 39.890625 18.8125 39.015625 
Q 14.890625 38.140625 10.796875 36.28125 
z
" id="DejaVuSans-53"/>
      </defs>
      <g transform="translate(305.698438 463.158437)scale(0.1 -0.1)">
       <use xlink:href="#DejaVuSans-48"/>
       <use x="63.623047" xlink:href="#DejaVuSans-46"/>
       <use x="95.410156" xlink:href="#DejaVuSans-53"/>
      </g>
     </g>
    </g>
    <g id="xtick_7">
     <g id="line2d_13">
      <path clip-path="url(#p198c5ef534)" d="M 361.08 448.56 
L 361.08 60.48 
" style="fill:none;stroke:#b0b0b0;stroke-linecap:square;stroke-width:0.8;"/>
     </g>
     <g id="line2d_14">
      <g>
       <use style="stroke:#000000;stroke-width:0.8;" x="361.08" xlink:href="#m0070f57fe4" y="448.56"/>
      </g>
     </g>
     <g id="text_7">
      <!-- 0.6 -->
      <defs>
       <path d="M 33.015625 40.375 
Q 26.375 40.375 22.484375 35.828125 
Q 18.609375 31.296875 18.609375 23.390625 
Q 18.609375 15.53125 22.484375 10.953125 
Q 26.375 6.390625 33.015625 6.390625 
Q 39.65625 6.390625 43.53125 10.953125 
Q 47.40625 15.53125 47.40625 23.390625 
Q 47.40625 31.296875 43.53125 35.828125 
Q 39.65625 40.375 33.015625 40.375 
z
M 52.59375 71.296875 
L 52.59375 62.3125 
Q 48.875 64.0625 45.09375 64.984375 
Q 41.3125 65.921875 37.59375 65.921875 
Q 27.828125 65.921875 22.671875 59.328125 
Q 17.53125 52.734375 16.796875 39.40625 
Q 19.671875 43.65625 24.015625 45.921875 
Q 28.375 48.1875 33.59375 48.1875 
Q 44.578125 48.1875 50.953125 41.515625 
Q 57.328125 34.859375 57.328125 23.390625 
Q 57.328125 12.15625 50.6875 5.359375 
Q 44.046875 -1.421875 33.015625 -1.421875 
Q 20.359375 -1.421875 13.671875 8.265625 
Q 6.984375 17.96875 6.984375 36.375 
Q 6.984375 53.65625 15.1875 63.9375 
Q 23.390625 74.21875 37.203125 74.21875 
Q 40.921875 74.21875 44.703125 73.484375 
Q 48.484375 72.75 52.59375 71.296875 
z
" id="DejaVuSans-54"/>
      </defs>
      <g transform="translate(353.128438 463.158437)scale(0.1 -0.1)">
       <use xlink:href="#DejaVuSans-48"/>
       <use x="63.623047" xlink:href="#DejaVuSans-46"/>
       <use x="95.410156" xlink:href="#DejaVuSans-54"/>
      </g>
     </g>
    </g>
    <g id="xtick_8">
     <g id="line2d_15">
      <path clip-path="url(#p198c5ef534)" d="M 408.51 448.56 
L 408.51 60.48 
" style="fill:none;stroke:#b0b0b0;stroke-linecap:square;stroke-width:0.8;"/>
     </g>
     <g id="line2d_16">
      <g>
       <use style="stroke:#000000;stroke-width:0.8;" x="408.51" xlink:href="#m0070f57fe4" y="448.56"/>
      </g>
     </g>
     <g id="text_8">
      <!-- 0.7 -->
      <defs>
       <path d="M 8.203125 72.90625 
L 55.078125 72.90625 
L 55.078125 68.703125 
L 28.609375 0 
L 18.3125 0 
L 43.21875 64.59375 
L 8.203125 64.59375 
z
" id="DejaVuSans-55"/>
      </defs>
      <g transform="translate(400.558438 463.158437)scale(0.1 -0.1)">
       <use xlink:href="#DejaVuSans-48"/>
       <use x="63.623047" xlink:href="#DejaVuSans-46"/>
       <use x="95.410156" xlink:href="#DejaVuSans-55"/>
      </g>
     </g>
    </g>
    <g id="xtick_9">
     <g id="line2d_17">
      <path clip-path="url(#p198c5ef534)" d="M 455.94 448.56 
L 455.94 60.48 
" style="fill:none;stroke:#b0b0b0;stroke-linecap:square;stroke-width:0.8;"/>
     </g>
     <g id="line2d_18">
      <g>
       <use style="stroke:#000000;stroke-width:0.8;" x="455.94" xlink:href="#m0070f57fe4" y="448.56"/>
      </g>
     </g>
     <g id="text_9">
      <!-- 0.8 -->
      <defs>
       <path d="M 31.78125 34.625 
Q 24.75 34.625 20.71875 30.859375 
Q 16.703125 27.09375 16.703125 20.515625 
Q 16.703125 13.921875 20.71875 10.15625 
Q 24.75 6.390625 31.78125 6.390625 
Q 38.8125 6.390625 42.859375 10.171875 
Q 46.921875 13.96875 46.921875 20.515625 
Q 46.921875 27.09375 42.890625 30.859375 
Q 38.875 34.625 31.78125 34.625 
z
M 21.921875 38.8125 
Q 15.578125 40.375 12.03125 44.71875 
Q 8.5 49.078125 8.5 55.328125 
Q 8.5 64.0625 14.71875 69.140625 
Q 20.953125 74.21875 31.78125 74.21875 
Q 42.671875 74.21875 48.875 69.140625 
Q 55.078125 64.0625 55.078125 55.328125 
Q 55.078125 49.078125 51.53125 44.71875 
Q 48 40.375 41.703125 38.8125 
Q 48.828125 37.15625 52.796875 32.3125 
Q 56.78125 27.484375 56.78125 20.515625 
Q 56.78125 9.90625 50.3125 4.234375 
Q 43.84375 -1.421875 31.78125 -1.421875 
Q 19.734375 -1.421875 13.25 4.234375 
Q 6.78125 9.90625 6.78125 20.515625 
Q 6.78125 27.484375 10.78125 32.3125 
Q 14.796875 37.15625 21.921875 38.8125 
z
M 18.3125 54.390625 
Q 18.3125 48.734375 21.84375 45.5625 
Q 25.390625 42.390625 31.78125 42.390625 
Q 38.140625 42.390625 41.71875 45.5625 
Q 45.3125 48.734375 45.3125 54.390625 
Q 45.3125 60.0625 41.71875 63.234375 
Q 38.140625 66.40625 31.78125 66.40625 
Q 25.390625 66.40625 21.84375 63.234375 
Q 18.3125 60.0625 18.3125 54.390625 
z
" id="DejaVuSans-56"/>
      </defs>
      <g transform="translate(447.988438 463.158437)scale(0.1 -0.1)">
       <use xlink:href="#DejaVuSans-48"/>
       <use x="63.623047" xlink:href="#DejaVuSans-46"/>
       <use x="95.410156" xlink:href="#DejaVuSans-56"/>
      </g>
     </g>
    </g>
    <g id="xtick_10">
     <g id="line2d_19">
      <path clip-path="url(#p198c5ef534)" d="M 503.37 448.56 
L 503.37 60.48 
" style="fill:none;stroke:#b0b0b0;stroke-linecap:square;stroke-width:0.8;"/>
     </g>
     <g id="line2d_20">
      <g>
       <use style="stroke:#000000;stroke-width:0.8;" x="503.37" xlink:href="#m0070f57fe4" y="448.56"/>
      </g>
     </g>
     <g id="text_10">
      <!-- 0.9 -->
      <defs>
       <path d="M 10.984375 1.515625 
L 10.984375 10.5 
Q 14.703125 8.734375 18.5 7.8125 
Q 22.3125 6.890625 25.984375 6.890625 
Q 35.75 6.890625 40.890625 13.453125 
Q 46.046875 20.015625 46.78125 33.40625 
Q 43.953125 29.203125 39.59375 26.953125 
Q 35.25 24.703125 29.984375 24.703125 
Q 19.046875 24.703125 12.671875 31.3125 
Q 6.296875 37.9375 6.296875 49.421875 
Q 6.296875 60.640625 12.9375 67.421875 
Q 19.578125 74.21875 30.609375 74.21875 
Q 43.265625 74.21875 49.921875 64.515625 
Q 56.59375 54.828125 56.59375 36.375 
Q 56.59375 19.140625 48.40625 8.859375 
Q 40.234375 -1.421875 26.421875 -1.421875 
Q 22.703125 -1.421875 18.890625 -0.6875 
Q 15.09375 0.046875 10.984375 1.515625 
z
M 30.609375 32.421875 
Q 37.25 32.421875 41.125 36.953125 
Q 45.015625 41.5 45.015625 49.421875 
Q 45.015625 57.28125 41.125 61.84375 
Q 37.25 66.40625 30.609375 66.40625 
Q 23.96875 66.40625 20.09375 61.84375 
Q 16.21875 57.28125 16.21875 49.421875 
Q 16.21875 41.5 20.09375 36.953125 
Q 23.96875 32.421875 30.609375 32.421875 
z
" id="DejaVuSans-57"/>
      </defs>
      <g transform="translate(495.418438 463.158437)scale(0.1 -0.1)">
       <use xlink:href="#DejaVuSans-48"/>
       <use x="63.623047" xlink:href="#DejaVuSans-46"/>
       <use x="95.410156" xlink:href="#DejaVuSans-57"/>
      </g>
     </g>
    </g>
    <g id="xtick_11">
     <g id="line2d_21">
      <path clip-path="url(#p198c5ef534)" d="M 550.8 448.56 
L 550.8 60.48 
" style="fill:none;stroke:#b0b0b0;stroke-linecap:square;stroke-width:0.8;"/>
     </g>
     <g id="line2d_22">
      <g>
       <use style="stroke:#000000;stroke-width:0.8;" x="550.8" xlink:href="#m0070f57fe4" y="448.56"/>
      </g>
     </g>
     <g id="text_11">
      <!-- 1.0 -->
      <g transform="translate(542.848438 463.158437)scale(0.1 -0.1)">
       <use xlink:href="#DejaVuSans-49"/>
       <use x="63.623047" xlink:href="#DejaVuSans-46"/>
       <use x="95.410156" xlink:href="#DejaVuSans-48"/>
      </g>
     </g>
    </g>
    <g id="text_12">
     <!-- 1-precision -->
     <defs>
      <path d="M 4.890625 31.390625 
L 31.203125 31.390625 
L 31.203125 23.390625 
L 4.890625 23.390625 
z
" id="DejaVuSans-45"/>
      <path d="M 18.109375 8.203125 
L 18.109375 -20.796875 
L 9.078125 -20.796875 
L 9.078125 54.6875 
L 18.109375 54.6875 
L 18.109375 46.390625 
Q 20.953125 51.265625 25.265625 53.625 
Q 29.59375 56 35.59375 56 
Q 45.5625 56 51.78125 48.09375 
Q 58.015625 40.1875 58.015625 27.296875 
Q 58.015625 14.40625 51.78125 6.484375 
Q 45.5625 -1.421875 35.59375 -1.421875 
Q 29.59375 -1.421875 25.265625 0.953125 
Q 20.953125 3.328125 18.109375 8.203125 
z
M 48.6875 27.296875 
Q 48.6875 37.203125 44.609375 42.84375 
Q 40.53125 48.484375 33.40625 48.484375 
Q 26.265625 48.484375 22.1875 42.84375 
Q 18.109375 37.203125 18.109375 27.296875 
Q 18.109375 17.390625 22.1875 11.75 
Q 26.265625 6.109375 33.40625 6.109375 
Q 40.53125 6.109375 44.609375 11.75 
Q 48.6875 17.390625 48.6875 27.296875 
z
" id="DejaVuSans-112"/>
      <path d="M 41.109375 46.296875 
Q 39.59375 47.171875 37.8125 47.578125 
Q 36.03125 48 33.890625 48 
Q 26.265625 48 22.1875 43.046875 
Q 18.109375 38.09375 18.109375 28.8125 
L 18.109375 0 
L 9.078125 0 
L 9.078125 54.6875 
L 18.109375 54.6875 
L 18.109375 46.1875 
Q 20.953125 51.171875 25.484375 53.578125 
Q 30.03125 56 36.53125 56 
Q 37.453125 56 38.578125 55.875 
Q 39.703125 55.765625 41.0625 55.515625 
z
" id="DejaVuSans-114"/>
      <path d="M 56.203125 29.59375 
L 56.203125 25.203125 
L 14.890625 25.203125 
Q 15.484375 15.921875 20.484375 11.0625 
Q 25.484375 6.203125 34.421875 6.203125 
Q 39.59375 6.203125 44.453125 7.46875 
Q 49.3125 8.734375 54.109375 11.28125 
L 54.109375 2.78125 
Q 49.265625 0.734375 44.1875 -0.34375 
Q 39.109375 -1.421875 33.890625 -1.421875 
Q 20.796875 -1.421875 13.15625 6.1875 
Q 5.515625 13.8125 5.515625 26.8125 
Q 5.515625 40.234375 12.765625 48.109375 
Q 20.015625 56 32.328125 56 
Q 43.359375 56 49.78125 48.890625 
Q 56.203125 41.796875 56.203125 29.59375 
z
M 47.21875 32.234375 
Q 47.125 39.59375 43.09375 43.984375 
Q 39.0625 48.390625 32.421875 48.390625 
Q 24.90625 48.390625 20.390625 44.140625 
Q 15.875 39.890625 15.1875 32.171875 
z
" id="DejaVuSans-101"/>
      <path d="M 48.78125 52.59375 
L 48.78125 44.1875 
Q 44.96875 46.296875 41.140625 47.34375 
Q 37.3125 48.390625 33.40625 48.390625 
Q 24.65625 48.390625 19.8125 42.84375 
Q 14.984375 37.3125 14.984375 27.296875 
Q 14.984375 17.28125 19.8125 11.734375 
Q 24.65625 6.203125 33.40625 6.203125 
Q 37.3125 6.203125 41.140625 7.25 
Q 44.96875 8.296875 48.78125 10.40625 
L 48.78125 2.09375 
Q 45.015625 0.34375 40.984375 -0.53125 
Q 36.96875 -1.421875 32.421875 -1.421875 
Q 20.0625 -1.421875 12.78125 6.34375 
Q 5.515625 14.109375 5.515625 27.296875 
Q 5.515625 40.671875 12.859375 48.328125 
Q 20.21875 56 33.015625 56 
Q 37.15625 56 41.109375 55.140625 
Q 45.0625 54.296875 48.78125 52.59375 
z
" id="DejaVuSans-99"/>
      <path d="M 9.421875 54.6875 
L 18.40625 54.6875 
L 18.40625 0 
L 9.421875 0 
z
M 9.421875 75.984375 
L 18.40625 75.984375 
L 18.40625 64.59375 
L 9.421875 64.59375 
z
" id="DejaVuSans-105"/>
      <path d="M 44.28125 53.078125 
L 44.28125 44.578125 
Q 40.484375 46.53125 36.375 47.5 
Q 32.28125 48.484375 27.875 48.484375 
Q 21.1875 48.484375 17.84375 46.4375 
Q 14.5 44.390625 14.5 40.28125 
Q 14.5 37.15625 16.890625 35.375 
Q 19.28125 33.59375 26.515625 31.984375 
L 29.59375 31.296875 
Q 39.15625 29.25 43.1875 25.515625 
Q 47.21875 21.78125 47.21875 15.09375 
Q 47.21875 7.46875 41.1875 3.015625 
Q 35.15625 -1.421875 24.609375 -1.421875 
Q 20.21875 -1.421875 15.453125 -0.5625 
Q 10.6875 0.296875 5.421875 2 
L 5.421875 11.28125 
Q 10.40625 8.6875 15.234375 7.390625 
Q 20.0625 6.109375 24.8125 6.109375 
Q 31.15625 6.109375 34.5625 8.28125 
Q 37.984375 10.453125 37.984375 14.40625 
Q 37.984375 18.0625 35.515625 20.015625 
Q 33.0625 21.96875 24.703125 23.78125 
L 21.578125 24.515625 
Q 13.234375 26.265625 9.515625 29.90625 
Q 5.8125 33.546875 5.8125 39.890625 
Q 5.8125 47.609375 11.28125 51.796875 
Q 16.75 56 26.8125 56 
Q 31.78125 56 36.171875 55.265625 
Q 40.578125 54.546875 44.28125 53.078125 
z
" id="DejaVuSans-115"/>
      <path d="M 30.609375 48.390625 
Q 23.390625 48.390625 19.1875 42.75 
Q 14.984375 37.109375 14.984375 27.296875 
Q 14.984375 17.484375 19.15625 11.84375 
Q 23.34375 6.203125 30.609375 6.203125 
Q 37.796875 6.203125 41.984375 11.859375 
Q 46.1875 17.53125 46.1875 27.296875 
Q 46.1875 37.015625 41.984375 42.703125 
Q 37.796875 48.390625 30.609375 48.390625 
z
M 30.609375 56 
Q 42.328125 56 49.015625 48.375 
Q 55.71875 40.765625 55.71875 27.296875 
Q 55.71875 13.875 49.015625 6.21875 
Q 42.328125 -1.421875 30.609375 -1.421875 
Q 18.84375 -1.421875 12.171875 6.21875 
Q 5.515625 13.875 5.515625 27.296875 
Q 5.515625 40.765625 12.171875 48.375 
Q 18.84375 56 30.609375 56 
z
" id="DejaVuSans-111"/>
      <path d="M 54.890625 33.015625 
L 54.890625 0 
L 45.90625 0 
L 45.90625 32.71875 
Q 45.90625 40.484375 42.875 44.328125 
Q 39.84375 48.1875 33.796875 48.1875 
Q 26.515625 48.1875 22.3125 43.546875 
Q 18.109375 38.921875 18.109375 30.90625 
L 18.109375 0 
L 9.078125 0 
L 9.078125 54.6875 
L 18.109375 54.6875 
L 18.109375 46.1875 
Q 21.34375 51.125 25.703125 53.5625 
Q 30.078125 56 35.796875 56 
Q 45.21875 56 50.046875 50.171875 
Q 54.890625 44.34375 54.890625 33.015625 
z
" id="DejaVuSans-110"/>
     </defs>
     <g transform="translate(286 476.836563)scale(0.1 -0.1)">
      <use xlink:href="#DejaVuSans-49"/>
      <use x="63.623047" xlink:href="#DejaVuSans-45"/>
      <use x="99.707031" xlink:href="#DejaVuSans-112"/>
      <use x="163.183594" xlink:href="#DejaVuSans-114"/>
      <use x="204.265625" xlink:href="#DejaVuSans-101"/>
      <use x="265.789062" xlink:href="#DejaVuSans-99"/>
      <use x="320.769531" xlink:href="#DejaVuSans-105"/>
      <use x="348.552734" xlink:href="#DejaVuSans-115"/>
      <use x="400.652344" xlink:href="#DejaVuSans-105"/>
      <use x="428.435547" xlink:href="#DejaVuSans-111"/>
      <use x="489.617188" xlink:href="#DejaVuSans-110"/>
     </g>
    </g>
   </g>
   <g id="matplotlib.axis_2">
    <g id="ytick_1">
     <g id="line2d_23">
      <path clip-path="url(#p198c5ef534)" d="M 76.5 448.56 
L 550.8 448.56 
" style="fill:none;stroke:#b0b0b0;stroke-linecap:square;stroke-width:0.8;"/>
     </g>
     <g id="line2d_24">
      <defs>
       <path d="M 0 0 
L -3.5 0 
" id="mef4eedee03" style="stroke:#000000;stroke-width:0.8;"/>
      </defs>
      <g>
       <use style="stroke:#000000;stroke-width:0.8;" x="76.5" xlink:href="#mef4eedee03" y="448.56"/>
      </g>
     </g>
     <g id="text_13">
      <!-- 0.0 -->
      <g transform="translate(53.596875 452.359219)scale(0.1 -0.1)">
       <use xlink:href="#DejaVuSans-48"/>
       <use x="63.623047" xlink:href="#DejaVuSans-46"/>
       <use x="95.410156" xlink:href="#DejaVuSans-48"/>
      </g>
     </g>
    </g>
    <g id="ytick_2">
     <g id="line2d_25">
      <path clip-path="url(#p198c5ef534)" d="M 76.5 409.752 
L 550.8 409.752 
" style="fill:none;stroke:#b0b0b0;stroke-linecap:square;stroke-width:0.8;"/>
     </g>
     <g id="line2d_26">
      <g>
       <use style="stroke:#000000;stroke-width:0.8;" x="76.5" xlink:href="#mef4eedee03" y="409.752"/>
      </g>
     </g>
     <g id="text_14">
      <!-- 0.1 -->
      <g transform="translate(53.596875 413.551219)scale(0.1 -0.1)">
       <use xlink:href="#DejaVuSans-48"/>
       <use x="63.623047" xlink:href="#DejaVuSans-46"/>
       <use x="95.410156" xlink:href="#DejaVuSans-49"/>
      </g>
     </g>
    </g>
    <g id="ytick_3">
     <g id="line2d_27">
      <path clip-path="url(#p198c5ef534)" d="M 76.5 370.944 
L 550.8 370.944 
" style="fill:none;stroke:#b0b0b0;stroke-linecap:square;stroke-width:0.8;"/>
     </g>
     <g id="line2d_28">
      <g>
       <use style="stroke:#000000;stroke-width:0.8;" x="76.5" xlink:href="#mef4eedee03" y="370.944"/>
      </g>
     </g>
     <g id="text_15">
      <!-- 0.2 -->
      <g transform="translate(53.596875 374.743219)scale(0.1 -0.1)">
       <use xlink:href="#DejaVuSans-48"/>
       <use x="63.623047" xlink:href="#DejaVuSans-46"/>
       <use x="95.410156" xlink:href="#DejaVuSans-50"/>
      </g>
     </g>
    </g>
    <g id="ytick_4">
     <g id="line2d_29">
      <path clip-path="url(#p198c5ef534)" d="M 76.5 332.136 
L 550.8 332.136 
" style="fill:none;stroke:#b0b0b0;stroke-linecap:square;stroke-width:0.8;"/>
     </g>
     <g id="line2d_30">
      <g>
       <use style="stroke:#000000;stroke-width:0.8;" x="76.5" xlink:href="#mef4eedee03" y="332.136"/>
      </g>
     </g>
     <g id="text_16">
      <!-- 0.3 -->
      <g transform="translate(53.596875 335.935219)scale(0.1 -0.1)">
       <use xlink:href="#DejaVuSans-48"/>
       <use x="63.623047" xlink:href="#DejaVuSans-46"/>
       <use x="95.410156" xlink:href="#DejaVuSans-51"/>
      </g>
     </g>
    </g>
    <g id="ytick_5">
     <g id="line2d_31">
      <path clip-path="url(#p198c5ef534)" d="M 76.5 293.328 
L 550.8 293.328 
" style="fill:none;stroke:#b0b0b0;stroke-linecap:square;stroke-width:0.8;"/>
     </g>
     <g id="line2d_32">
      <g>
       <use style="stroke:#000000;stroke-width:0.8;" x="76.5" xlink:href="#mef4eedee03" y="293.328"/>
      </g>
     </g>
     <g id="text_17">
      <!-- 0.4 -->
      <g transform="translate(53.596875 297.127219)scale(0.1 -0.1)">
       <use xlink:href="#DejaVuSans-48"/>
       <use x="63.623047" xlink:href="#DejaVuSans-46"/>
       <use x="95.410156" xlink:href="#DejaVuSans-52"/>
      </g>
     </g>
    </g>
    <g id="ytick_6">
     <g id="line2d_33">
      <path clip-path="url(#p198c5ef534)" d="M 76.5 254.52 
L 550.8 254.52 
" style="fill:none;stroke:#b0b0b0;stroke-linecap:square;stroke-width:0.8;"/>
     </g>
     <g id="line2d_34">
      <g>
       <use style="stroke:#000000;stroke-width:0.8;" x="76.5" xlink:href="#mef4eedee03" y="254.52"/>
      </g>
     </g>
     <g id="text_18">
      <!-- 0.5 -->
      <g transform="translate(53.596875 258.319219)scale(0.1 -0.1)">
       <use xlink:href="#DejaVuSans-48"/>
       <use x="63.623047" xlink:href="#DejaVuSans-46"/>
       <use x="95.410156" xlink:href="#DejaVuSans-53"/>
      </g>
     </g>
    </g>
    <g id="ytick_7">
     <g id="line2d_35">
      <path clip-path="url(#p198c5ef534)" d="M 76.5 215.712 
L 550.8 215.712 
" style="fill:none;stroke:#b0b0b0;stroke-linecap:square;stroke-width:0.8;"/>
     </g>
     <g id="line2d_36">
      <g>
       <use style="stroke:#000000;stroke-width:0.8;" x="76.5" xlink:href="#mef4eedee03" y="215.712"/>
      </g>
     </g>
     <g id="text_19">
      <!-- 0.6 -->
      <g transform="translate(53.596875 219.511219)scale(0.1 -0.1)">
       <use xlink:href="#DejaVuSans-48"/>
       <use x="63.623047" xlink:href="#DejaVuSans-46"/>
       <use x="95.410156" xlink:href="#DejaVuSans-54"/>
      </g>
     </g>
    </g>
    <g id="ytick_8">
     <g id="line2d_37">
      <path clip-path="url(#p198c5ef534)" d="M 76.5 176.904 
L 550.8 176.904 
" style="fill:none;stroke:#b0b0b0;stroke-linecap:square;stroke-width:0.8;"/>
     </g>
     <g id="line2d_38">
      <g>
       <use style="stroke:#000000;stroke-width:0.8;" x="76.5" xlink:href="#mef4eedee03" y="176.904"/>
      </g>
     </g>
     <g id="text_20">
      <!-- 0.7 -->
      <g transform="translate(53.596875 180.703219)scale(0.1 -0.1)">
       <use xlink:href="#DejaVuSans-48"/>
       <use x="63.623047" xlink:href="#DejaVuSans-46"/>
       <use x="95.410156" xlink:href="#DejaVuSans-55"/>
      </g>
     </g>
    </g>
    <g id="ytick_9">
     <g id="line2d_39">
      <path clip-path="url(#p198c5ef534)" d="M 76.5 138.096 
L 550.8 138.096 
" style="fill:none;stroke:#b0b0b0;stroke-linecap:square;stroke-width:0.8;"/>
     </g>
     <g id="line2d_40">
      <g>
       <use style="stroke:#000000;stroke-width:0.8;" x="76.5" xlink:href="#mef4eedee03" y="138.096"/>
      </g>
     </g>
     <g id="text_21">
      <!-- 0.8 -->
      <g transform="translate(53.596875 141.895219)scale(0.1 -0.1)">
       <use xlink:href="#DejaVuSans-48"/>
       <use x="63.623047" xlink:href="#DejaVuSans-46"/>
       <use x="95.410156" xlink:href="#DejaVuSans-56"/>
      </g>
     </g>
    </g>
    <g id="ytick_10">
     <g id="line2d_41">
      <path clip-path="url(#p198c5ef534)" d="M 76.5 99.288 
L 550.8 99.288 
" style="fill:none;stroke:#b0b0b0;stroke-linecap:square;stroke-width:0.8;"/>
     </g>
     <g id="line2d_42">
      <g>
       <use style="stroke:#000000;stroke-width:0.8;" x="76.5" xlink:href="#mef4eedee03" y="99.288"/>
      </g>
     </g>
     <g id="text_22">
      <!-- 0.9 -->
      <g transform="translate(53.596875 103.087219)scale(0.1 -0.1)">
       <use xlink:href="#DejaVuSans-48"/>
       <use x="63.623047" xlink:href="#DejaVuSans-46"/>
       <use x="95.410156" xlink:href="#DejaVuSans-57"/>
      </g>
     </g>
    </g>
    <g id="ytick_11">
     <g id="line2d_43">
      <path clip-path="url(#p198c5ef534)" d="M 76.5 60.48 
L 550.8 60.48 
" style="fill:none;stroke:#b0b0b0;stroke-linecap:square;stroke-width:0.8;"/>
     </g>
     <g id="line2d_44">
      <g>
       <use style="stroke:#000000;stroke-width:0.8;" x="76.5" xlink:href="#mef4eedee03" y="60.48"/>
      </g>
     </g>
     <g id="text_23">
      <!-- 1.0 -->
      <g transform="translate(53.596875 64.279219)scale(0.1 -0.1)">
       <use xlink:href="#DejaVuSans-49"/>
       <use x="63.623047" xlink:href="#DejaVuSans-46"/>
       <use x="95.410156" xlink:href="#DejaVuSans-48"/>
      </g>
     </g>
    </g>
    <g id="text_24">
     <!-- #correct/1154 -->
     <defs>
      <path d="M 51.125 44 
L 36.921875 44 
L 32.8125 27.6875 
L 47.125 27.6875 
z
M 43.796875 71.78125 
L 38.71875 51.515625 
L 52.984375 51.515625 
L 58.109375 71.78125 
L 65.921875 71.78125 
L 60.890625 51.515625 
L 76.125 51.515625 
L 76.125 44 
L 58.984375 44 
L 54.984375 27.6875 
L 70.515625 27.6875 
L 70.515625 20.21875 
L 53.078125 20.21875 
L 48 0 
L 40.1875 0 
L 45.21875 20.21875 
L 30.90625 20.21875 
L 25.875 0 
L 18.015625 0 
L 23.09375 20.21875 
L 7.71875 20.21875 
L 7.71875 27.6875 
L 24.90625 27.6875 
L 29 44 
L 13.28125 44 
L 13.28125 51.515625 
L 30.90625 51.515625 
L 35.890625 71.78125 
z
" id="DejaVuSans-35"/>
      <path d="M 18.3125 70.21875 
L 18.3125 54.6875 
L 36.8125 54.6875 
L 36.8125 47.703125 
L 18.3125 47.703125 
L 18.3125 18.015625 
Q 18.3125 11.328125 20.140625 9.421875 
Q 21.96875 7.515625 27.59375 7.515625 
L 36.8125 7.515625 
L 36.8125 0 
L 27.59375 0 
Q 17.1875 0 13.234375 3.875 
Q 9.28125 7.765625 9.28125 18.015625 
L 9.28125 47.703125 
L 2.6875 47.703125 
L 2.6875 54.6875 
L 9.28125 54.6875 
L 9.28125 70.21875 
z
" id="DejaVuSans-116"/>
      <path d="M 25.390625 72.90625 
L 33.6875 72.90625 
L 8.296875 -9.28125 
L 0 -9.28125 
z
" id="DejaVuSans-47"/>
     </defs>
     <g transform="translate(47.517187 290.822344)rotate(-90)scale(0.1 -0.1)">
      <use xlink:href="#DejaVuSans-35"/>
      <use x="83.789062" xlink:href="#DejaVuSans-99"/>
      <use x="138.769531" xlink:href="#DejaVuSans-111"/>
      <use x="199.951172" xlink:href="#DejaVuSans-114"/>
      <use x="241.048828" xlink:href="#DejaVuSans-114"/>
      <use x="282.130859" xlink:href="#DejaVuSans-101"/>
      <use x="343.654297" xlink:href="#DejaVuSans-99"/>
      <use x="398.634766" xlink:href="#DejaVuSans-116"/>
      <use x="437.84375" xlink:href="#DejaVuSans-47"/>
      <use x="471.535156" xlink:href="#DejaVuSans-49"/>
      <use x="535.158203" xlink:href="#DejaVuSans-49"/>
      <use x="598.78125" xlink:href="#DejaVuSans-53"/>
      <use x="662.404297" xlink:href="#DejaVuSans-52"/>
     </g>
    </g>
   </g>
   <g id="line2d_45">
    <path clip-path="url(#p198c5ef534)" d="M 76.5 448.223709 
L 76.5 415.939757 
L 81.339796 415.939757 
L 80.660526 410.559099 
L 80.039552 403.833276 
L 79.683221 398.788908 
L 82.824 398.788908 
L 82.18024 393.071958 
L 84.969643 393.071958 
L 84.630857 390.71792 
L 87.279545 390.71792 
L 86.229231 384.328388 
L 85.242857 376.929983 
L 84.857709 373.567071 
L 86.901316 373.567071 
L 86.766234 372.558198 
L 88.766379 372.558198 
L 88.211111 368.858995 
L 90.106967 368.858995 
L 89.9417 367.850121 
L 91.8 367.850121 
L 90.553333 360.451716 
L 89.362373 352.044437 
L 88.981579 349.017816 
L 90.495738 349.017816 
L 90.40456 348.345234 
L 93.384466 348.345234 
L 93.33 348.008943 
L 94.800965 348.008943 
L 93.439286 339.601664 
L 93.190909 337.920208 
L 94.528947 337.920208 
L 93.164595 328.504055 
L 91.83806 317.742738 
L 91.649631 316.061282 
L 92.775 316.061282 
L 92.272447 311.689497 
L 93.359005 311.689497 
L 92.930716 307.990295 
L 93.985714 307.990295 
L 93.708163 305.636256 
L 94.742308 305.636256 
L 93.36841 293.529775 
L 92.43498 284.113622 
L 93.339053 284.113622 
L 93.207241 282.768458 
L 94.100977 282.768458 
L 93.035229 271.670849 
L 93.873626 271.670849 
L 93.715971 269.989393 
L 94.544022 269.989393 
L 93.672931 260.573241 
L 94.459725 260.573241 
L 93.862063 253.847418 
L 94.621096 253.847418 
L 94.123425 248.130468 
L 94.86 248.130468 
L 94.539937 244.431265 
L 95.261867 244.431265 
L 94.798611 239.050607 
L 95.501233 239.050607 
L 95.071988 234.006239 
L 95.757293 234.006239 
L 95.642152 232.661075 
L 96.321493 232.661075 
L 96.116544 230.307036 
L 96.787168 230.307036 
L 96.638653 228.625581 
L 97.302632 228.625581 
L 97.272263 228.289289 
L 97.933382 228.289289 
L 97.534764 223.917504 
L 98.182286 223.917504 
L 97.96761 221.563466 
L 98.607203 221.563466 
L 98.299304 218.200555 
L 98.928651 218.200555 
L 98.743034 216.182808 
L 99.365702 216.182808 
L 99.302885 215.510225 
L 99.922222 215.510225 
L 99.794407 214.165061 
L 100.408856 214.165061 
L 100.343886 213.492478 
L 100.955088 213.492478 
L 100.215 205.757782 
L 100.807096 205.757782 
L 100.68 204.412617 
L 101.267624 204.412617 
L 101.171001 203.403744 
L 101.754935 203.403744 
L 101.722179 203.067452 
L 102.884088 203.067452 
L 102.680873 201.049705 
L 103.828425 201.049705 
L 103.793478 200.713414 
L 104.364368 200.713414 
L 104.258015 199.704541 
L 104.825413 199.704541 
L 104.157692 193.315009 
L 105.263243 193.315009 
L 105.192222 192.642426 
L 105.741677 192.642426 
L 105.526928 190.624679 
L 106.071271 190.624679 
L 105.643735 186.589185 
L 106.179422 186.589185 
L 106.037246 185.244021 
L 106.569258 185.244021 
L 106.426071 183.898856 
L 106.954459 183.898856 
L 106.882206 183.226274 
L 107.408175 183.226274 
L 107.371598 182.889983 
L 107.895745 182.889983 
L 107.858678 182.553692 
L 108.381014 182.553692 
L 108.194138 180.872236 
L 109.229474 180.872236 
L 109.153092 180.199653 
L 109.667832 180.199653 
L 109.552265 179.19078 
L 110.064153 179.19078 
L 109.832143 177.173033 
L 110.339586 177.173033 
L 110.261883 176.500451 
L 111.271134 176.500451 
L 111.23135 176.164159 
L 111.733714 176.164159 
L 111.375 173.137539 
L 111.871525 173.137539 
L 111.752027 172.128666 
L 112.738652 172.128666 
L 112.616909 171.119792 
L 113.107047 171.119792 
L 112.822642 168.765754 
L 113.308204 168.765754 
L 113.186188 167.75688 
L 113.669205 167.75688 
L 113.424671 165.739133 
L 113.903724 165.739133 
L 113.740567 164.393969 
L 114.216667 164.393969 
L 114.134674 163.721386 
L 114.608795 163.721386 
L 114.444 162.376222 
L 114.915227 162.376222 
L 114.832435 161.70364 
L 115.77 161.70364 
L 115.68573 161.031057 
L 116.15209 161.031057 
L 116.067273 160.358475 
L 116.531731 160.358475 
L 116.234571 158.004437 
L 118.070116 158.004437 
L 117.982508 157.331854 
L 118.438105 157.331854 
L 118.306086 156.322981 
L 119.211832 156.322981 
L 119.167155 155.98669 
L 120.965625 155.98669 
L 120.919355 155.650399 
L 121.81215 155.650399 
L 121.392593 152.623778 
L 121.833916 152.623778 
L 121.740923 151.951196 
L 122.180533 151.951196 
L 122.133777 151.614905 
L 122.572086 151.614905 
L 122.525026 151.278614 
L 123.398165 151.278614 
L 123.065891 148.924575 
L 123.93 148.924575 
L 123.834375 148.251993 
L 124.26435 148.251993 
L 124.216298 147.915702 
L 124.645025 147.915702 
L 124.548445 147.24312 
L 125.8272 147.24312 
L 125.728743 146.570537 
L 127.418887 146.570537 
L 127.267493 145.561664 
L 127.686832 145.561664 
L 127.636202 145.225373 
L 129.303842 145.225373 
L 129.25187 144.889081 
L 130.080059 144.889081 
L 130.027478 144.55279 
L 132.082031 144.55279 
L 132.027805 144.216499 
L 132.435965 144.216499 
L 132.32714 143.543917 
L 133.949128 143.543917 
L 133.893514 143.207626 
L 134.296712 143.207626 
L 134.185135 142.535043 
L 134.987861 142.535043 
L 134.931569 142.198752 
L 135.331442 142.198752 
L 135.218522 141.52617 
L 135.61697 141.52617 
L 135.503828 140.853588 
L 135.90086 140.853588 
L 135.7875 140.181005 
L 136.183127 140.181005 
L 136.126286 139.844714 
L 136.914639 139.844714 
L 136.857265 139.508423 
L 137.641991 139.508423 
L 137.584091 139.172132 
L 138.365217 139.172132 
L 138.248491 138.499549 
L 139.025424 138.499549 
L 138.907895 137.826967 
L 139.294648 137.826967 
L 139.176945 137.154385 
L 139.56236 137.154385 
L 139.503368 136.818094 
L 139.887757 136.818094 
L 139.710531 135.80922 
L 141.237326 135.80922 
L 141.177273 135.472929 
L 141.556905 135.472929 
L 141.43654 134.800347 
L 141.81488 134.800347 
L 141.574309 133.455182 
L 141.950782 133.455182 
L 141.770642 132.446308 
L 144.380675 132.446308 
L 144.257143 131.773726 
L 146.09837 131.773726 
L 145.909756 130.764853 
L 147.367507 130.764853 
L 147.303777 130.428562 
L 150.185893 130.428562 
L 150.054545 129.755979 
L 150.767616 129.755979 
L 150.7016 129.419688 
L 151.411624 129.419688 
L 151.345213 129.083397 
L 152.052212 129.083397 
L 151.918728 128.410815 
L 152.622222 128.410815 
L 152.488204 127.738232 
L 153.537313 127.738232 
L 153.402279 127.06565 
L 154.097638 127.06565 
L 154.029808 126.729359 
L 154.722251 126.729359 
L 154.654054 126.393068 
L 154.999129 126.393068 
L 154.658716 124.711612 
L 155.686765 124.711612 
L 155.618323 124.375321 
L 155.959585 124.375321 
L 155.822586 123.702738 
L 157.179897 123.702738 
L 157.110644 123.366447 
L 158.121832 123.366447 
L 158.05201 123.030156 
L 158.722801 123.030156 
L 158.582609 122.357574 
L 161.569036 122.357574 
L 161.353671 121.3487 
L 162.009857 121.3487 
L 161.937879 121.012409 
L 162.264929 121.012409 
L 162.192857 120.676118 
L 164.142391 120.676118 
L 164.069173 120.339827 
L 165.036 120.339827 
L 164.962281 120.003536 
L 165.603741 120.003536 
L 165.455851 119.330953 
L 165.775373 119.330953 
L 165.627566 118.658371 
L 166.264215 118.658371 
L 166.190091 118.32208 
L 166.824237 118.32208 
L 166.749835 117.985789 
L 167.065926 117.985789 
L 166.768745 116.640624 
L 167.711538 116.640624 
L 167.636958 116.304333 
L 167.95 116.304333 
L 167.652117 114.959168 
L 169.515073 114.959168 
L 169.439757 114.622877 
L 170.670944 114.622877 
L 170.595 114.286586 
L 170.90137 114.286586 
L 170.825362 113.950295 
L 171.131054 113.950295 
L 171.054984 113.614003 
L 171.36 113.614003 
L 171.207859 112.941421 
L 172.723802 112.941421 
L 172.647007 112.60513 
L 174.15 112.60513 
L 174.072438 112.268839 
L 175.265558 112.268839 
L 175.187421 111.932548 
L 176.076796 111.932548 
L 175.998265 111.596256 
L 176.588504 111.596256 
L 176.509756 111.259965 
L 177.976411 111.259965 
L 177.896946 110.923674 
L 178.188732 110.923674 
L 177.950585 109.914801 
L 178.24142 109.914801 
L 178.16212 109.57851 
L 179.608696 109.57851 
L 179.528704 109.242218 
L 180.963292 109.242218 
L 180.721665 108.233345 
L 181.859493 108.233345 
L 181.778571 107.897054 
L 182.344555 107.897054 
L 182.263448 107.560763 
L 183.108716 107.560763 
L 183.027273 107.224471 
L 183.58833 107.224471 
L 183.425209 106.551889 
L 184.26269 106.551889 
L 184.099165 105.879307 
L 185.485034 105.879307 
L 185.402719 105.543016 
L 185.678491 105.543016 
L 185.596154 105.206724 
L 186.420542 105.206724 
L 186.337895 104.870433 
L 186.611721 104.870433 
L 186.529054 104.534142 
L 186.802326 104.534142 
L 186.637079 103.86156 
L 187.453587 103.86156 
L 187.205369 102.852686 
L 190.696307 102.852686 
L 190.61203 102.516395 
L 191.142889 102.516395 
L 190.974172 101.843813 
L 191.23875 101.843813 
L 190.986207 100.834939 
L 191.25 100.834939 
L 191.165934 100.498648 
L 191.954605 100.498648 
L 191.87027 100.162357 
L 192.655102 100.162357 
L 192.570503 99.826066 
L 194.129152 99.826066 
L 194.043913 99.489775 
L 194.560203 99.489775 
L 194.474837 99.153484 
L 195.246104 99.153484 
L 195.16049 98.817192 
L 196.183178 98.817192 
L 196.097198 98.480901 
L 198.124071 98.480901 
L 198.037259 98.14461 
L 201.774153 98.14461 
L 201.685745 97.808319 
L 202.42331 97.808319 
L 202.334694 97.472028 
L 203.79986 97.472028 
L 203.710714 97.135737 
L 204.196154 97.135737 
L 204.017807 96.463154 
L 204.742787 96.463154 
L 204.653482 96.126863 
L 204.894363 96.126863 
L 204.805076 95.790572 
L 206.242729 95.790572 
L 206.152941 95.454281 
L 207.578084 95.454281 
L 207.48781 95.11799 
L 212.382281 95.11799 
L 212.290095 94.781698 
L 213.206225 94.781698 
L 213.113793 94.445407 
L 213.341959 94.445407 
L 213.249561 94.109116 
L 214.38533 94.109116 
L 214.292603 93.772825 
L 216.986458 93.772825 
L 216.8928 93.436534 
L 219.980449 93.436534 
L 219.885743 93.100243 
L 220.104024 93.100243 
L 220.009361 92.763951 
L 221.096058 92.763951 
L 221.001116 92.42766 
L 222.51 92.42766 
L 222.414631 92.091369 
L 227.482958 92.091369 
L 227.385925 91.755078 
L 230.065583 91.755078 
L 229.967771 91.418787 
L 231.594297 91.418787 
L 231.496073 91.082496 
L 232.704795 91.082496 
L 232.606305 90.746205 
L 233.207048 90.746205 
L 233.108491 90.409913 
L 233.70678 90.409913 
L 233.608156 90.073622 
L 236.955307 90.073622 
L 236.855769 89.737331 
L 238.019963 89.737331 
L 237.920198 89.40104 
L 238.113333 89.40104 
L 238.013634 89.064749 
L 239.549724 89.064749 
L 239.449693 88.728458 
L 239.83125 88.728458 
L 239.731231 88.392166 
L 240.491326 88.392166 
L 240.391209 88.055875 
L 241.524088 88.055875 
L 241.423769 87.719584 
L 244.588267 87.719584 
L 244.487192 87.383293 
L 246.5 87.383293 
L 246.398507 87.047002 
L 247.485009 87.047002 
L 247.383353 86.710711 
L 249.710442 86.710711 
L 249.608314 86.374419 
L 252.423189 86.374419 
L 252.32049 86.038128 
L 256.275 86.038128 
L 256.171503 85.701837 
L 261.3375 85.701837 
L 261.233013 85.365546 
L 262.049154 85.365546 
L 261.94462 85.029255 
L 263.079293 85.029255 
L 262.974649 84.692964 
L 266.167388 84.692964 
L 266.062251 84.356672 
L 275.227629 84.356672 
L 275.121072 84.020381 
L 296.903111 84.020381 
L 296.794324 83.68409 
L 305.511392 83.68409 
L 305.402287 83.347799 
L 308.4048 83.347799 
L 308.29572 83.011508 
L 308.409732 83.011508 
L 315.059671 83.011508 
L 314.95064 82.675217 
L 315.058383 82.675217 
L 321.958137 82.675217 
L 321.849335 82.338925 
L 321.950775 82.338925 
L 322.254558 82.338925 
L 322.145865 82.002634 
L 322.24695 82.002634 
L 345.07497 82.002634 
L 344.968138 81.666343 
L 345.04998 81.666343 
L 381.695 81.666343 
L 381.695 81.666343 
" style="fill:none;stroke:#1f77b4;stroke-linecap:square;stroke-width:2;"/>
   </g>
   <g id="line2d_46">
    <path clip-path="url(#p198c5ef534)" d="M 76.5 448.223709 
L 76.5 412.576846 
L 80.891667 412.576846 
L 80.624348 410.222808 
L 88.661538 410.222808 
L 88.457143 409.550225 
L 92.31 409.550225 
L 90.982443 405.851023 
L 89.767133 401.815529 
L 88.584076 397.107452 
L 88.3575 396.098579 
L 91.229814 396.098579 
L 90.960366 395.089705 
L 93.747273 395.089705 
L 92.398324 390.381629 
L 91.093846 385.000971 
L 90.45 381.97435 
L 92.69561 381.97435 
L 92.462019 380.965477 
L 94.655024 380.965477 
L 93.289381 375.248527 
L 91.987347 368.858995 
L 91.206977 364.48721 
L 92.981467 364.48721 
L 91.691103 357.088804 
L 91.425524 355.407348 
L 93.026132 355.407348 
L 92.101974 349.690399 
L 93.605902 349.690399 
L 92.262236 340.946828 
L 90.9925 331.194385 
L 90.375798 325.813726 
L 91.597082 325.813726 
L 90.800503 318.751612 
L 93.1005 318.751612 
L 92.385646 312.698371 
L 93.479714 312.698371 
L 92.743151 306.308839 
L 93.78656 306.308839 
L 93.591892 304.627383 
L 94.619326 304.627383 
L 94.338717 302.273345 
L 95.346358 302.273345 
L 93.958896 290.166863 
L 92.730798 277.72409 
L 94.465909 277.72409 
L 94.034196 273.352305 
L 94.876937 273.352305 
L 94.642623 270.998267 
L 95.472 270.998267 
L 95.1 267.299064 
L 95.910854 267.299064 
L 95.340933 261.582114 
L 96.126207 261.582114 
L 96.092427 261.245823 
L 96.873711 261.245823 
L 96.734642 259.900659 
L 97.508177 259.900659 
L 97.087312 255.865165 
L 97.8435 255.865165 
L 97.221845 249.811924 
L 97.954604 249.811924 
L 97.782692 248.130468 
L 98.50752 248.130468 
L 98.367568 246.785303 
L 99.085714 246.785303 
L 98.767606 243.758683 
L 99.473906 243.758683 
L 98.777727 237.03286 
L 99.461573 237.03286 
L 99.085714 233.333657 
L 100.426113 233.333657 
L 100.320089 232.324783 
L 101.646981 232.324783 
L 101.210275 228.289289 
L 101.859971 228.289289 
L 101.251904 222.57234 
L 102.516456 222.57234 
L 102.479916 222.236049 
L 103.108696 222.236049 
L 103.034266 221.563466 
L 103.659637 221.563466 
L 103.138767 216.85539 
L 103.751163 216.85539 
L 103.566033 215.173934 
L 104.172863 215.173934 
L 104.060676 214.165061 
L 105.264825 214.165061 
L 104.958 211.474731 
L 105.551664 211.474731 
L 105.245455 208.784402 
L 106.416426 208.784402 
L 106.066753 205.757782 
L 106.64358 205.757782 
L 106.488 204.412617 
L 107.63166 204.412617 
L 107.236086 201.049705 
L 107.798985 201.049705 
L 107.214321 196.005338 
L 108.316398 196.005338 
L 108.198267 194.996464 
L 108.745365 194.996464 
L 108.586716 193.6513 
L 109.129975 193.6513 
L 108.12 184.90773 
L 108.646373 184.90773 
L 108.570107 184.235147 
L 109.094076 184.235147 
L 108.750176 181.208527 
L 109.784211 181.208527 
L 109.706534 180.535945 
L 110.220629 180.535945 
L 110.181374 180.199653 
L 110.693721 180.199653 
L 110.654007 179.863362 
L 111.164617 179.863362 
L 111.044393 178.854489 
L 111.552194 178.854489 
L 111.271134 176.500451 
L 112.77637 176.500451 
L 112.735006 176.164159 
L 113.233941 176.164159 
L 112.984615 174.146412 
L 113.479322 174.146412 
L 113.312936 172.801248 
L 113.804494 172.801248 
L 113.554688 170.783501 
L 114.528508 170.783501 
L 114.444 170.110919 
L 114.928302 170.110919 
L 114.885698 169.774627 
L 115.368439 169.774627 
L 115.282541 169.102045 
L 115.763245 169.102045 
L 115.633663 168.093172 
L 116.111868 168.093172 
L 116.025 167.420589 
L 117.450492 167.420589 
L 117.227935 165.739133 
L 117.698697 165.739133 
L 117.654013 165.402842 
L 118.591558 165.402842 
L 118.365016 163.721386 
L 118.83 163.721386 
L 118.784533 163.385095 
L 119.248069 163.385095 
L 119.110909 162.376222 
L 119.572115 162.376222 
L 119.297771 160.358475 
L 120.21197 160.358475 
L 120.165714 160.022184 
L 120.62093 160.022184 
L 120.342857 158.004437 
L 120.794544 158.004437 
L 120.471563 155.650399 
L 121.366216 155.650399 
L 121.273133 154.977816 
L 121.718238 154.977816 
L 121.671429 154.641525 
L 122.115202 154.641525 
L 121.880556 152.960069 
L 122.321377 152.960069 
L 122.087117 151.278614 
L 122.525026 151.278614 
L 122.478061 150.942322 
L 122.914679 150.942322 
L 122.867413 150.606031 
L 123.737195 150.606031 
L 123.545951 149.260867 
L 123.977958 149.260867 
L 123.882139 148.588284 
L 124.741994 148.588284 
L 124.693461 148.251993 
L 125.549096 148.251993 
L 125.450802 147.579411 
L 126.725574 147.579411 
L 126.575498 146.570537 
L 126.997612 146.570537 
L 126.897319 145.897955 
L 127.737562 145.897955 
L 127.535242 144.55279 
L 128.785039 144.55279 
L 128.631109 143.543917 
L 129.045 143.543917 
L 128.942172 142.871334 
L 129.354545 142.871334 
L 129.30293 142.535043 
L 130.124561 142.535043 
L 129.968222 141.52617 
L 130.376796 141.52617 
L 130.324539 141.189879 
L 130.731977 141.189879 
L 130.627079 140.517296 
L 131.033043 140.517296 
L 130.927869 139.844714 
L 131.33237 139.844714 
L 131.069511 138.163258 
L 131.471552 138.163258 
L 131.418947 137.826967 
L 131.819885 137.826967 
L 131.714313 137.154385 
L 132.512571 137.154385 
L 132.406084 136.481802 
L 132.803419 136.481802 
L 132.643466 135.472929 
L 133.039073 135.472929 
L 132.719944 133.455182 
L 133.112876 133.455182 
L 133.00666 132.7826 
L 133.398219 132.7826 
L 133.185714 131.437435 
L 133.57528 131.437435 
L 133.522088 131.101144 
L 133.910615 131.101144 
L 133.750696 130.09227 
L 134.13757 130.09227 
L 133.924492 128.747106 
L 134.309418 128.747106 
L 134.256089 128.410815 
L 134.64 128.410815 
L 134.479688 127.401941 
L 135.243578 127.401941 
L 135.028793 126.056776 
L 135.408493 126.056776 
L 135.354745 125.720485 
L 135.733455 125.720485 
L 135.679508 125.384194 
L 136.057234 125.384194 
L 135.8951 124.375321 
L 137.021538 124.375321 
L 136.966817 124.039029 
L 137.713809 124.039029 
L 137.275 121.3487 
L 137.64521 121.3487 
L 137.481429 120.339827 
L 137.850134 120.339827 
L 137.795455 120.003536 
L 138.8968 120.003536 
L 138.786069 119.330953 
L 139.15133 119.330953 
L 138.929947 117.985789 
L 139.293469 117.985789 
L 139.238095 117.649497 
L 139.600705 117.649497 
L 139.545158 117.313206 
L 140.628358 117.313206 
L 140.403937 115.968042 
L 141.120786 115.968042 
L 140.951916 114.959168 
L 141.664696 114.959168 
L 141.551563 114.286586 
L 141.906505 114.286586 
L 141.849827 113.950295 
L 143.614064 113.950295 
L 143.440792 112.941421 
L 143.791058 112.941421 
L 143.733247 112.60513 
L 144.082661 112.60513 
L 144.0247 112.268839 
L 145.415385 112.268839 
L 145.356533 111.932548 
L 145.702474 111.932548 
L 145.584583 111.259965 
L 146.273724 111.259965 
L 146.155263 110.587383 
L 147.18315 110.587383 
L 147.12335 110.251092 
L 147.464582 110.251092 
L 147.404645 109.914801 
L 149.101009 109.914801 
L 149.04 109.57851 
L 149.37733 109.57851 
L 149.316191 109.242218 
L 149.988693 109.242218 
L 149.927197 108.905927 
L 150.262375 108.905927 
L 150.139232 108.233345 
L 150.473394 108.233345 
L 150.41175 107.897054 
L 152.733803 107.897054 
L 152.544793 106.88818 
L 153.20198 106.88818 
L 153.075618 106.215598 
L 153.402963 106.215598 
L 153.33972 105.879307 
L 153.992365 105.879307 
L 153.928794 105.543016 
L 154.57887 105.543016 
L 154.3875 104.534142 
L 155.356724 104.534142 
L 155.292508 104.197851 
L 156.576623 104.197851 
L 156.511679 103.86156 
L 156.831199 103.86156 
L 156.766154 103.525269 
L 157.084951 103.525269 
L 157.019806 103.188977 
L 157.337884 103.188977 
L 157.272639 102.852686 
L 158.539019 102.852686 
L 158.473071 102.516395 
L 158.788193 102.516395 
L 158.722151 102.180104 
L 159.663891 102.180104 
L 159.59736 101.843813 
L 159.910072 101.843813 
L 159.84345 101.507522 
L 161.088535 101.507522 
L 161.021241 101.171231 
L 161.331081 101.171231 
L 161.129262 100.162357 
L 161.438035 100.162357 
L 161.370784 99.826066 
L 162.600237 99.826066 
L 162.532334 99.489775 
L 166.4726 99.489775 
L 166.262383 98.480901 
L 166.86042 98.480901 
L 166.79021 98.14461 
L 169.456944 98.14461 
L 169.385274 97.808319 
L 170.265462 97.808319 
L 170.19339 97.472028 
L 170.77759 97.472028 
L 170.705291 97.135737 
L 171.867661 97.135737 
L 171.794805 96.799445 
L 173.524106 96.799445 
L 173.45038 96.463154 
L 174.878653 96.463154 
L 174.804236 96.126863 
L 175.938462 96.126863 
L 175.863527 95.790572 
L 176.145858 95.790572 
L 176.07088 95.454281 
L 177.195349 95.454281 
L 177.044494 94.781698 
L 177.882511 94.781698 
L 177.806796 94.445407 
L 181.938922 94.445407 
L 181.861107 94.109116 
L 185.900584 94.109116 
L 185.820788 93.772825 
L 187.14702 93.772825 
L 187.066667 93.436534 
L 188.120203 93.436534 
L 188.039436 93.100243 
L 190.645474 93.100243 
L 190.563532 92.763951 
L 191.337679 92.763951 
L 191.255476 92.42766 
L 192.025929 92.42766 
L 191.943469 92.091369 
L 192.710256 92.091369 
L 192.627544 91.755078 
L 194.403187 91.755078 
L 194.236421 91.082496 
L 195.242243 91.082496 
L 195.158562 90.746205 
L 196.904348 90.746205 
L 196.819972 90.409913 
L 198.055936 90.409913 
L 197.97111 90.073622 
L 200.173232 90.073622 
L 200.087526 89.737331 
L 201.539752 89.737331 
L 201.453517 89.40104 
L 203.846301 89.40104 
L 203.759138 89.064749 
L 207.053085 89.064749 
L 206.964634 88.728458 
L 211.334448 88.728458 
L 211.244318 88.392166 
L 212.600732 88.392166 
L 212.51018 88.055875 
L 213.63183 88.055875 
L 213.540954 87.719584 
L 214.210119 87.719584 
L 214.119101 87.383293 
L 221.305692 87.383293 
L 221.212088 87.047002 
L 223.328902 87.047002 
L 223.23466 86.710711 
L 224.073496 86.710711 
L 223.979079 86.374419 
L 225.228872 86.374419 
L 225.039529 85.701837 
L 228.323819 85.701837 
L 228.228212 85.365546 
L 228.836455 85.365546 
L 228.740766 85.029255 
L 231.74692 85.029255 
L 231.650373 84.692964 
L 232.639678 84.692964 
L 232.542937 84.356672 
L 238.540486 84.356672 
L 238.442041 84.020381 
L 247.113526 84.020381 
L 247.01281 83.68409 
L 249.149648 83.68409 
L 248.947482 83.011508 
L 249.124108 83.011508 
L 249.023158 82.675217 
L 250.777674 82.675217 
L 250.676409 82.338925 
L 251.892188 82.338925 
L 251.790746 82.002634 
L 254.871551 82.002634 
L 254.667581 81.330052 
L 256.68552 81.330052 
L 256.583258 80.993761 
L 262.474138 80.993761 
L 262.370762 80.65747 
L 265.542056 80.65747 
L 265.438187 80.321179 
L 265.594893 80.321179 
L 265.491109 79.984887 
L 276.192076 79.984887 
L 276.086642 79.648596 
L 277.95936 79.648596 
L 277.853774 79.312305 
L 286.175305 79.312305 
L 286.068817 78.976014 
L 286.337443 78.976014 
L 286.231034 78.639723 
L 300.689741 78.639723 
L 300.582319 78.303432 
L 301.060976 78.303432 
L 300.953633 77.96714 
L 301.549356 77.96714 
L 301.442088 77.630849 
L 302.03495 77.630849 
L 301.927757 77.294558 
L 307.025698 77.294558 
L 306.918427 76.958267 
L 307.03186 76.958267 
L 310.496699 76.958267 
L 310.389459 76.621976 
L 310.499588 76.621976 
L 318.994521 76.621976 
L 318.887412 76.285685 
L 318.989801 76.285685 
L 330.653208 76.285685 
L 330.546689 75.949393 
L 330.638961 75.949393 
L 332.740083 75.949393 
L 332.633803 75.613102 
L 332.724254 75.613102 
L 337.499635 75.613102 
L 337.393839 75.276811 
L 337.480308 75.276811 
L 337.566707 75.276811 
L 337.461012 74.94052 
L 337.547349 74.94052 
L 351.274328 74.94052 
L 351.170326 74.604229 
L 351.245857 74.604229 
L 367.731066 74.604229 
L 367.630014 74.267938 
L 367.693548 74.267938 
L 378.285 74.267938 
L 378.285 74.267938 
" style="fill:none;stroke:#ff7f0e;stroke-linecap:square;stroke-width:2;"/>
   </g>
   <g id="line2d_47">
    <path clip-path="url(#p198c5ef534)" d="M 76.5 448.223709 
L 76.5 401.479237 
L 79.86383 401.479237 
L 79.306509 392.063085 
L 78.802427 379.620312 
L 78.345525 362.469463 
L 77.946037 338.59279 
L 77.595381 303.282218 
L 77.49434 288.485407 
L 78.484519 288.485407 
L 78.3972 281.087002 
L 79.34012 281.087002 
L 79.328827 280.414419 
L 80.264286 280.414419 
L 80.242012 279.405546 
L 81.168307 279.405546 
L 81.131836 278.060381 
L 82.047368 278.060381 
L 81.440625 256.874038 
L 82.254073 256.874038 
L 82.08 250.820797 
L 82.866443 250.820797 
L 82.466038 237.369151 
L 83.201256 237.369151 
L 82.768282 222.57234 
L 83.454545 222.57234 
L 83.38389 220.218302 
L 84.061304 220.218302 
L 83.716183 209.120693 
L 84.361326 209.120693 
L 84.15 202.39487 
L 84.776376 202.39487 
L 84.655952 198.695667 
L 85.271731 198.695667 
L 85.123636 194.323882 
L 85.727626 194.323882 
L 85.66817 192.642426 
L 86.266795 192.642426 
L 86.021706 185.916603 
L 86.604135 185.916603 
L 86.429926 181.208527 
L 87.001107 181.208527 
L 86.687828 172.801248 
L 87.241001 172.801248 
L 87.114488 169.438336 
L 87.66 169.438336 
L 87.530233 166.075425 
L 88.068293 166.075425 
L 88.001501 164.393969 
L 88.535294 164.393969 
L 88.507595 163.721386 
L 89.038966 163.721386 
L 88.896477 160.358475 
L 89.420772 160.358475 
L 89.376923 159.349601 
L 89.898305 159.349601 
L 89.748603 155.98669 
L 90.776589 155.98669 
L 90.69745 154.305234 
L 91.206977 154.305234 
L 91.142117 152.960069 
L 91.648348 152.960069 
L 91.499673 149.933449 
L 92 149.933449 
L 91.66951 143.207626 
L 92.158466 143.207626 
L 92.00981 140.181005 
L 92.493256 140.181005 
L 92.442857 139.172132 
L 92.92382 139.172132 
L 92.855172 137.826967 
L 93.333194 137.826967 
L 93.245794 136.145511 
L 93.720436 136.145511 
L 93.613918 134.127764 
L 94.084758 134.127764 
L 94.066667 133.791473 
L 94.536074 133.791473 
L 94.480635 132.7826 
L 94.947697 132.7826 
L 94.891224 131.773726 
L 95.355963 131.773726 
L 95.203438 129.083397 
L 95.663636 129.083397 
L 95.567337 127.401941 
L 96.024398 127.401941 
L 95.9463 126.056776 
L 96.400699 126.056776 
L 96.2625 123.702738 
L 96.712983 123.702738 
L 96.534283 120.676118 
L 96.980079 120.676118 
L 96.919961 119.667244 
L 97.363636 119.667244 
L 97.241983 117.649497 
L 97.68233 117.649497 
L 97.519075 114.959168 
L 97.955342 114.959168 
L 97.934712 114.622877 
L 98.369741 114.622877 
L 98.348752 114.286586 
L 98.78255 114.286586 
L 98.739904 113.614003 
L 99.172084 113.614003 
L 99.107245 112.60513 
L 100.395342 112.60513 
L 100.37265 112.268839 
L 100.8 112.268839 
L 100.63968 109.914801 
L 103.590169 109.914801 
L 103.539533 109.242218 
L 105.205307 109.242218 
L 105.045833 107.224471 
L 105.458187 107.224471 
L 105.351429 105.879307 
L 105.761602 105.879307 
L 105.734683 105.543016 
L 106.14375 105.543016 
L 106.089358 104.870433 
L 106.496975 104.870433 
L 106.442086 104.197851 
L 106.848263 104.197851 
L 106.792883 103.525269 
L 107.19763 103.525269 
L 107.141765 102.852686 
L 109.949729 102.852686 
L 109.769245 100.834939 
L 111.74342 100.834939 
L 111.711896 100.498648 
L 112.10429 100.498648 
L 112.0725 100.162357 
L 112.463872 100.162357 
L 112.399822 99.489775 
L 112.789858 99.489775 
L 112.7254 98.817192 
L 113.114108 98.817192 
L 113.016903 97.808319 
L 114.176081 97.808319 
L 114.076585 96.799445 
L 114.844112 96.799445 
L 114.810448 96.463154 
L 116.33622 96.463154 
L 116.231937 95.454281 
L 116.989024 95.454281 
L 116.953786 95.11799 
L 117.331043 95.11799 
L 117.189515 93.772825 
L 117.564935 93.772825 
L 117.529412 93.436534 
L 117.903889 93.436534 
L 117.868135 93.100243 
L 118.241674 93.100243 
L 118.133907 92.091369 
L 118.505933 92.091369 
L 118.469845 91.755078 
L 119.211407 91.755078 
L 119.138271 91.082496 
L 120.24415 91.082496 
L 120.206826 90.746205 
L 120.573913 90.746205 
L 120.498894 90.073622 
L 122.322203 90.073622 
L 122.24467 89.40104 
L 122.606932 89.40104 
L 122.490304 88.392166 
L 123.211364 88.392166 
L 123.172077 88.055875 
L 123.890176 88.055875 
L 123.850419 87.719584 
L 124.208298 87.719584 
L 124.088629 86.710711 
L 127.626866 86.710711 
L 127.457851 85.365546 
L 129.546711 85.365546 
L 129.503122 85.029255 
L 130.19434 85.029255 
L 130.106388 84.356672 
L 130.794358 84.356672 
L 130.75 84.020381 
L 131.092898 84.020381 
L 131.048369 83.68409 
L 131.390465 83.68409 
L 131.301139 83.011508 
L 133.676942 83.011508 
L 133.584572 82.338925 
L 135.262832 82.338925 
L 135.168434 81.666343 
L 135.502006 81.666343 
L 135.454691 81.330052 
L 135.7875 81.330052 
L 135.740032 80.993761 
L 136.403597 80.993761 
L 136.355751 80.65747 
L 139.313719 80.65747 
L 139.214252 79.984887 
L 139.539873 79.984887 
L 139.49004 79.648596 
L 141.10937 79.648596 
L 141.007783 78.976014 
L 141.972 78.976014 
L 141.92069 78.639723 
L 142.560563 78.639723 
L 142.508913 78.303432 
L 145.676416 78.303432 
L 145.622791 77.96714 
L 146.562877 77.96714 
L 146.508733 77.630849 
L 148.064896 77.630849 
L 148.009846 77.294558 
L 148.937222 77.294558 
L 148.881672 76.958267 
L 149.497167 76.958267 
L 149.441316 76.621976 
L 152.791047 76.621976 
L 152.733207 76.285685 
L 157.20922 76.285685 
L 157.148764 75.949393 
L 167.205547 75.949393 
L 167.139387 75.613102 
L 173.469512 75.613102 
L 173.330587 74.94052 
L 177.343373 74.94052 
L 177.271955 74.604229 
L 179.376338 74.604229 
L 179.303941 74.267938 
L 180.346737 74.267938 
L 180.273913 73.931646 
L 182.59777 73.931646 
L 182.523886 73.595355 
L 183.801735 73.595355 
L 183.727323 73.259064 
L 189.490239 73.259064 
L 189.413165 72.922773 
L 190.151191 72.922773 
L 190.073878 72.586482 
L 194.67683 72.586482 
L 194.597517 72.250191 
L 195.551205 72.250191 
L 195.471572 71.913899 
L 196.419746 71.913899 
L 196.3398 71.577608 
L 200.080805 71.577608 
L 199.999341 71.241317 
L 206.133808 71.241317 
L 206.049903 70.905026 
L 207.383559 70.905026 
L 207.299227 70.568735 
L 215.929899 70.568735 
L 215.842373 70.232444 
L 226.233394 70.232444 
L 226.142371 69.896153 
L 227.518039 69.896153 
L 227.426679 69.559861 
L 233.002081 69.559861 
L 232.909091 69.22357 
L 235.717314 69.22357 
L 235.623602 68.887279 
L 243.050172 68.887279 
L 242.954509 68.550988 
L 247.655769 68.550988 
L 247.559016 68.214697 
L 254.100166 68.214697 
L 254.00199 67.878406 
L 261.205825 67.878406 
L 261.106253 67.542114 
L 312.387445 67.542114 
L 312.282838 67.205823 
L 312.388564 67.205823 
L 320.257265 67.205823 
L 320.152828 66.869532 
L 320.251606 66.869532 
L 323.464485 66.869532 
L 323.360236 66.533241 
L 323.456203 66.533241 
L 327.136737 66.533241 
L 327.032739 66.19695 
L 327.12555 66.19695 
L 329.421059 66.19695 
L 329.317275 65.860659 
L 329.408121 65.860659 
L 358.989979 65.860659 
L 358.889627 65.524367 
L 358.957777 65.524367 
L 374.255 65.524367 
L 374.255 65.524367 
" style="fill:none;stroke:#2ca02c;stroke-linecap:square;stroke-width:2;"/>
   </g>
   <g id="patch_3">
    <path d="M 76.5 448.56 
L 76.5 60.48 
" style="fill:none;stroke:#000000;stroke-linecap:square;stroke-linejoin:miter;stroke-width:0.8;"/>
   </g>
   <g id="patch_4">
    <path d="M 550.8 448.56 
L 550.8 60.48 
" style="fill:none;stroke:#000000;stroke-linecap:square;stroke-linejoin:miter;stroke-width:0.8;"/>
   </g>
   <g id="patch_5">
    <path d="M 76.5 448.56 
L 550.8 448.56 
" style="fill:none;stroke:#000000;stroke-linecap:square;stroke-linejoin:miter;stroke-width:0.8;"/>
   </g>
   <g id="patch_6">
    <path d="M 76.5 60.48 
L 550.8 60.48 
" style="fill:none;stroke:#000000;stroke-linecap:square;stroke-linejoin:miter;stroke-width:0.8;"/>
   </g>
   <g id="text_25">
    <!-- graf: img1-img2 -->
    <defs>
     <path d="M 45.40625 27.984375 
Q 45.40625 37.75 41.375 43.109375 
Q 37.359375 48.484375 30.078125 48.484375 
Q 22.859375 48.484375 18.828125 43.109375 
Q 14.796875 37.75 14.796875 27.984375 
Q 14.796875 18.265625 18.828125 12.890625 
Q 22.859375 7.515625 30.078125 7.515625 
Q 37.359375 7.515625 41.375 12.890625 
Q 45.40625 18.265625 45.40625 27.984375 
z
M 54.390625 6.78125 
Q 54.390625 -7.171875 48.1875 -13.984375 
Q 42 -20.796875 29.203125 -20.796875 
Q 24.46875 -20.796875 20.265625 -20.09375 
Q 16.0625 -19.390625 12.109375 -17.921875 
L 12.109375 -9.1875 
Q 16.0625 -11.328125 19.921875 -12.34375 
Q 23.78125 -13.375 27.78125 -13.375 
Q 36.625 -13.375 41.015625 -8.765625 
Q 45.40625 -4.15625 45.40625 5.171875 
L 45.40625 9.625 
Q 42.625 4.78125 38.28125 2.390625 
Q 33.9375 0 27.875 0 
Q 17.828125 0 11.671875 7.65625 
Q 5.515625 15.328125 5.515625 27.984375 
Q 5.515625 40.671875 11.671875 48.328125 
Q 17.828125 56 27.875 56 
Q 33.9375 56 38.28125 53.609375 
Q 42.625 51.21875 45.40625 46.390625 
L 45.40625 54.6875 
L 54.390625 54.6875 
z
" id="DejaVuSans-103"/>
     <path d="M 34.28125 27.484375 
Q 23.390625 27.484375 19.1875 25 
Q 14.984375 22.515625 14.984375 16.5 
Q 14.984375 11.71875 18.140625 8.90625 
Q 21.296875 6.109375 26.703125 6.109375 
Q 34.1875 6.109375 38.703125 11.40625 
Q 43.21875 16.703125 43.21875 25.484375 
L 43.21875 27.484375 
z
M 52.203125 31.203125 
L 52.203125 0 
L 43.21875 0 
L 43.21875 8.296875 
Q 40.140625 3.328125 35.546875 0.953125 
Q 30.953125 -1.421875 24.3125 -1.421875 
Q 15.921875 -1.421875 10.953125 3.296875 
Q 6 8.015625 6 15.921875 
Q 6 25.140625 12.171875 29.828125 
Q 18.359375 34.515625 30.609375 34.515625 
L 43.21875 34.515625 
L 43.21875 35.40625 
Q 43.21875 41.609375 39.140625 45 
Q 35.0625 48.390625 27.6875 48.390625 
Q 23 48.390625 18.546875 47.265625 
Q 14.109375 46.140625 10.015625 43.890625 
L 10.015625 52.203125 
Q 14.9375 54.109375 19.578125 55.046875 
Q 24.21875 56 28.609375 56 
Q 40.484375 56 46.34375 49.84375 
Q 52.203125 43.703125 52.203125 31.203125 
z
" id="DejaVuSans-97"/>
     <path d="M 37.109375 75.984375 
L 37.109375 68.5 
L 28.515625 68.5 
Q 23.6875 68.5 21.796875 66.546875 
Q 19.921875 64.59375 19.921875 59.515625 
L 19.921875 54.6875 
L 34.71875 54.6875 
L 34.71875 47.703125 
L 19.921875 47.703125 
L 19.921875 0 
L 10.890625 0 
L 10.890625 47.703125 
L 2.296875 47.703125 
L 2.296875 54.6875 
L 10.890625 54.6875 
L 10.890625 58.5 
Q 10.890625 67.625 15.140625 71.796875 
Q 19.390625 75.984375 28.609375 75.984375 
z
" id="DejaVuSans-102"/>
     <path d="M 11.71875 12.40625 
L 22.015625 12.40625 
L 22.015625 0 
L 11.71875 0 
z
M 11.71875 51.703125 
L 22.015625 51.703125 
L 22.015625 39.3125 
L 11.71875 39.3125 
z
" id="DejaVuSans-58"/>
     <path id="DejaVuSans-32"/>
     <path d="M 52 44.1875 
Q 55.375 50.25 60.0625 53.125 
Q 64.75 56 71.09375 56 
Q 79.640625 56 84.28125 50.015625 
Q 88.921875 44.046875 88.921875 33.015625 
L 88.921875 0 
L 79.890625 0 
L 79.890625 32.71875 
Q 79.890625 40.578125 77.09375 44.375 
Q 74.3125 48.1875 68.609375 48.1875 
Q 61.625 48.1875 57.5625 43.546875 
Q 53.515625 38.921875 53.515625 30.90625 
L 53.515625 0 
L 44.484375 0 
L 44.484375 32.71875 
Q 44.484375 40.625 41.703125 44.40625 
Q 38.921875 48.1875 33.109375 48.1875 
Q 26.21875 48.1875 22.15625 43.53125 
Q 18.109375 38.875 18.109375 30.90625 
L 18.109375 0 
L 9.078125 0 
L 9.078125 54.6875 
L 18.109375 54.6875 
L 18.109375 46.1875 
Q 21.1875 51.21875 25.484375 53.609375 
Q 29.78125 56 35.6875 56 
Q 41.65625 56 45.828125 52.96875 
Q 50 49.953125 52 44.1875 
z
" id="DejaVuSans-109"/>
    </defs>
    <g transform="translate(265.219688 41.042625)scale(0.12 -0.12)">
     <use xlink:href="#DejaVuSans-103"/>
     <use x="63.476562" xlink:href="#DejaVuSans-114"/>
     <use x="104.589844" xlink:href="#DejaVuSans-97"/>
     <use x="165.869141" xlink:href="#DejaVuSans-102"/>
     <use x="201.027344" xlink:href="#DejaVuSans-58"/>
     <use x="234.71875" xlink:href="#DejaVuSans-32"/>
     <use x="266.505859" xlink:href="#DejaVuSans-105"/>
     <use x="294.289062" xlink:href="#DejaVuSans-109"/>
     <use x="391.701172" xlink:href="#DejaVuSans-103"/>
     <use x="455.177734" xlink:href="#DejaVuSans-49"/>
     <use x="518.800781" xlink:href="#DejaVuSans-45"/>
     <use x="554.884766" xlink:href="#DejaVuSans-105"/>
     <use x="582.667969" xlink:href="#DejaVuSans-109"/>
     <use x="680.080078" xlink:href="#DejaVuSans-103"/>
     <use x="743.556641" xlink:href="#DejaVuSans-50"/>
    </g>
    <!-- NearestNeighbours -->
    <defs>
     <path d="M 9.8125 72.90625 
L 23.09375 72.90625 
L 55.421875 11.921875 
L 55.421875 72.90625 
L 64.984375 72.90625 
L 64.984375 0 
L 51.703125 0 
L 19.390625 60.984375 
L 19.390625 0 
L 9.8125 0 
z
" id="DejaVuSans-78"/>
     <path d="M 54.890625 33.015625 
L 54.890625 0 
L 45.90625 0 
L 45.90625 32.71875 
Q 45.90625 40.484375 42.875 44.328125 
Q 39.84375 48.1875 33.796875 48.1875 
Q 26.515625 48.1875 22.3125 43.546875 
Q 18.109375 38.921875 18.109375 30.90625 
L 18.109375 0 
L 9.078125 0 
L 9.078125 75.984375 
L 18.109375 75.984375 
L 18.109375 46.1875 
Q 21.34375 51.125 25.703125 53.5625 
Q 30.078125 56 35.796875 56 
Q 45.21875 56 50.046875 50.171875 
Q 54.890625 44.34375 54.890625 33.015625 
z
" id="DejaVuSans-104"/>
     <path d="M 48.6875 27.296875 
Q 48.6875 37.203125 44.609375 42.84375 
Q 40.53125 48.484375 33.40625 48.484375 
Q 26.265625 48.484375 22.1875 42.84375 
Q 18.109375 37.203125 18.109375 27.296875 
Q 18.109375 17.390625 22.1875 11.75 
Q 26.265625 6.109375 33.40625 6.109375 
Q 40.53125 6.109375 44.609375 11.75 
Q 48.6875 17.390625 48.6875 27.296875 
z
M 18.109375 46.390625 
Q 20.953125 51.265625 25.265625 53.625 
Q 29.59375 56 35.59375 56 
Q 45.5625 56 51.78125 48.09375 
Q 58.015625 40.1875 58.015625 27.296875 
Q 58.015625 14.40625 51.78125 6.484375 
Q 45.5625 -1.421875 35.59375 -1.421875 
Q 29.59375 -1.421875 25.265625 0.953125 
Q 20.953125 3.328125 18.109375 8.203125 
L 18.109375 0 
L 9.078125 0 
L 9.078125 75.984375 
L 18.109375 75.984375 
z
" id="DejaVuSans-98"/>
     <path d="M 8.5 21.578125 
L 8.5 54.6875 
L 17.484375 54.6875 
L 17.484375 21.921875 
Q 17.484375 14.15625 20.5 10.265625 
Q 23.53125 6.390625 29.59375 6.390625 
Q 36.859375 6.390625 41.078125 11.03125 
Q 45.3125 15.671875 45.3125 23.6875 
L 45.3125 54.6875 
L 54.296875 54.6875 
L 54.296875 0 
L 45.3125 0 
L 45.3125 8.40625 
Q 42.046875 3.421875 37.71875 1 
Q 33.40625 -1.421875 27.6875 -1.421875 
Q 18.265625 -1.421875 13.375 4.4375 
Q 8.5 10.296875 8.5 21.578125 
z
M 31.109375 56 
z
" id="DejaVuSans-117"/>
    </defs>
    <g transform="translate(255.824063 54.48)scale(0.12 -0.12)">
     <use xlink:href="#DejaVuSans-78"/>
     <use x="74.804688" xlink:href="#DejaVuSans-101"/>
     <use x="136.328125" xlink:href="#DejaVuSans-97"/>
     <use x="197.607422" xlink:href="#DejaVuSans-114"/>
     <use x="238.689453" xlink:href="#DejaVuSans-101"/>
     <use x="300.212891" xlink:href="#DejaVuSans-115"/>
     <use x="352.3125" xlink:href="#DejaVuSans-116"/>
     <use x="391.521484" xlink:href="#DejaVuSans-78"/>
     <use x="466.326172" xlink:href="#DejaVuSans-101"/>
     <use x="527.849609" xlink:href="#DejaVuSans-105"/>
     <use x="555.632812" xlink:href="#DejaVuSans-103"/>
     <use x="619.109375" xlink:href="#DejaVuSans-104"/>
     <use x="682.488281" xlink:href="#DejaVuSans-98"/>
     <use x="745.964844" xlink:href="#DejaVuSans-111"/>
     <use x="807.146484" xlink:href="#DejaVuSans-117"/>
     <use x="870.525391" xlink:href="#DejaVuSans-114"/>
     <use x="911.638672" xlink:href="#DejaVuSans-115"/>
    </g>
   </g>
   <g id="legend_1">
    <g id="patch_7">
     <path d="M 362.264063 443.56 
L 543.8 443.56 
Q 545.8 443.56 545.8 441.56 
L 545.8 398.525625 
Q 545.8 396.525625 543.8 396.525625 
L 362.264063 396.525625 
Q 360.264063 396.525625 360.264063 398.525625 
L 360.264063 441.56 
Q 360.264063 443.56 362.264063 443.56 
z
" style="fill:#ffffff;opacity:0.8;stroke:#cccccc;stroke-linejoin:miter;"/>
    </g>
    <g id="line2d_48">
     <path d="M 364.264063 404.624063 
L 384.264063 404.624063 
" style="fill:none;stroke:#1f77b4;stroke-linecap:square;stroke-width:2;"/>
    </g>
    <g id="line2d_49"/>
    <g id="text_26">
     <!-- root-cvsift AP: 87.9, %In: 35.7 -->
     <defs>
      <path d="M 2.984375 54.6875 
L 12.5 54.6875 
L 29.59375 8.796875 
L 46.6875 54.6875 
L 56.203125 54.6875 
L 35.6875 0 
L 23.484375 0 
z
" id="DejaVuSans-118"/>
      <path d="M 34.1875 63.1875 
L 20.796875 26.90625 
L 47.609375 26.90625 
z
M 28.609375 72.90625 
L 39.796875 72.90625 
L 67.578125 0 
L 57.328125 0 
L 50.6875 18.703125 
L 17.828125 18.703125 
L 11.1875 0 
L 0.78125 0 
z
" id="DejaVuSans-65"/>
      <path d="M 19.671875 64.796875 
L 19.671875 37.40625 
L 32.078125 37.40625 
Q 38.96875 37.40625 42.71875 40.96875 
Q 46.484375 44.53125 46.484375 51.125 
Q 46.484375 57.671875 42.71875 61.234375 
Q 38.96875 64.796875 32.078125 64.796875 
z
M 9.8125 72.90625 
L 32.078125 72.90625 
Q 44.34375 72.90625 50.609375 67.359375 
Q 56.890625 61.8125 56.890625 51.125 
Q 56.890625 40.328125 50.609375 34.8125 
Q 44.34375 29.296875 32.078125 29.296875 
L 19.671875 29.296875 
L 19.671875 0 
L 9.8125 0 
z
" id="DejaVuSans-80"/>
      <path d="M 11.71875 12.40625 
L 22.015625 12.40625 
L 22.015625 4 
L 14.015625 -11.625 
L 7.71875 -11.625 
L 11.71875 4 
z
" id="DejaVuSans-44"/>
      <path d="M 72.703125 32.078125 
Q 68.453125 32.078125 66.03125 28.46875 
Q 63.625 24.859375 63.625 18.40625 
Q 63.625 12.0625 66.03125 8.421875 
Q 68.453125 4.78125 72.703125 4.78125 
Q 76.859375 4.78125 79.265625 8.421875 
Q 81.6875 12.0625 81.6875 18.40625 
Q 81.6875 24.8125 79.265625 28.4375 
Q 76.859375 32.078125 72.703125 32.078125 
z
M 72.703125 38.28125 
Q 80.421875 38.28125 84.953125 32.90625 
Q 89.5 27.546875 89.5 18.40625 
Q 89.5 9.28125 84.9375 3.921875 
Q 80.375 -1.421875 72.703125 -1.421875 
Q 64.890625 -1.421875 60.34375 3.921875 
Q 55.8125 9.28125 55.8125 18.40625 
Q 55.8125 27.59375 60.375 32.9375 
Q 64.9375 38.28125 72.703125 38.28125 
z
M 22.3125 68.015625 
Q 18.109375 68.015625 15.6875 64.375 
Q 13.28125 60.75 13.28125 54.390625 
Q 13.28125 47.953125 15.671875 44.328125 
Q 18.0625 40.71875 22.3125 40.71875 
Q 26.5625 40.71875 28.96875 44.328125 
Q 31.390625 47.953125 31.390625 54.390625 
Q 31.390625 60.6875 28.953125 64.34375 
Q 26.515625 68.015625 22.3125 68.015625 
z
M 66.40625 74.21875 
L 74.21875 74.21875 
L 28.609375 -1.421875 
L 20.796875 -1.421875 
z
M 22.3125 74.21875 
Q 30.03125 74.21875 34.609375 68.875 
Q 39.203125 63.53125 39.203125 54.390625 
Q 39.203125 45.171875 34.640625 39.84375 
Q 30.078125 34.515625 22.3125 34.515625 
Q 14.546875 34.515625 10.03125 39.859375 
Q 5.515625 45.21875 5.515625 54.390625 
Q 5.515625 63.484375 10.046875 68.84375 
Q 14.59375 74.21875 22.3125 74.21875 
z
" id="DejaVuSans-37"/>
      <path d="M 9.8125 72.90625 
L 19.671875 72.90625 
L 19.671875 0 
L 9.8125 0 
z
" id="DejaVuSans-73"/>
     </defs>
     <g transform="translate(392.264063 408.124063)scale(0.1 -0.1)">
      <use xlink:href="#DejaVuSans-114"/>
      <use x="41.082031" xlink:href="#DejaVuSans-111"/>
      <use x="102.263672" xlink:href="#DejaVuSans-111"/>
      <use x="163.445312" xlink:href="#DejaVuSans-116"/>
      <use x="202.654297" xlink:href="#DejaVuSans-45"/>
      <use x="238.738281" xlink:href="#DejaVuSans-99"/>
      <use x="293.71875" xlink:href="#DejaVuSans-118"/>
      <use x="352.898438" xlink:href="#DejaVuSans-115"/>
      <use x="404.998047" xlink:href="#DejaVuSans-105"/>
      <use x="432.78125" xlink:href="#DejaVuSans-102"/>
      <use x="467.970703" xlink:href="#DejaVuSans-116"/>
      <use x="507.179688" xlink:href="#DejaVuSans-32"/>
      <use x="538.966797" xlink:href="#DejaVuSans-65"/>
      <use x="607.375" xlink:href="#DejaVuSans-80"/>
      <use x="667.677734" xlink:href="#DejaVuSans-58"/>
      <use x="701.369141" xlink:href="#DejaVuSans-32"/>
      <use x="733.15625" xlink:href="#DejaVuSans-56"/>
      <use x="796.779297" xlink:href="#DejaVuSans-55"/>
      <use x="860.402344" xlink:href="#DejaVuSans-46"/>
      <use x="892.189453" xlink:href="#DejaVuSans-57"/>
      <use x="955.8125" xlink:href="#DejaVuSans-44"/>
      <use x="987.599609" xlink:href="#DejaVuSans-32"/>
      <use x="1019.386719" xlink:href="#DejaVuSans-37"/>
      <use x="1114.40625" xlink:href="#DejaVuSans-73"/>
      <use x="1143.898438" xlink:href="#DejaVuSans-110"/>
      <use x="1207.277344" xlink:href="#DejaVuSans-58"/>
      <use x="1240.96875" xlink:href="#DejaVuSans-32"/>
      <use x="1272.755859" xlink:href="#DejaVuSans-51"/>
      <use x="1336.378906" xlink:href="#DejaVuSans-53"/>
      <use x="1400.001953" xlink:href="#DejaVuSans-46"/>
      <use x="1431.789062" xlink:href="#DejaVuSans-55"/>
     </g>
    </g>
    <g id="line2d_50">
     <path d="M 364.264063 419.302188 
L 384.264063 419.302188 
" style="fill:none;stroke:#ff7f0e;stroke-linecap:square;stroke-width:2;"/>
    </g>
    <g id="line2d_51"/>
    <g id="text_27">
     <!-- tfeat AP: 89.4, %In: 36.4 -->
     <g transform="translate(392.264063 422.802188)scale(0.1 -0.1)">
      <use xlink:href="#DejaVuSans-116"/>
      <use x="39.208984" xlink:href="#DejaVuSans-102"/>
      <use x="74.414062" xlink:href="#DejaVuSans-101"/>
      <use x="135.9375" xlink:href="#DejaVuSans-97"/>
      <use x="197.216797" xlink:href="#DejaVuSans-116"/>
      <use x="236.425781" xlink:href="#DejaVuSans-32"/>
      <use x="268.212891" xlink:href="#DejaVuSans-65"/>
      <use x="336.621094" xlink:href="#DejaVuSans-80"/>
      <use x="396.923828" xlink:href="#DejaVuSans-58"/>
      <use x="430.615234" xlink:href="#DejaVuSans-32"/>
      <use x="462.402344" xlink:href="#DejaVuSans-56"/>
      <use x="526.025391" xlink:href="#DejaVuSans-57"/>
      <use x="589.648438" xlink:href="#DejaVuSans-46"/>
      <use x="621.435547" xlink:href="#DejaVuSans-52"/>
      <use x="685.058594" xlink:href="#DejaVuSans-44"/>
      <use x="716.845703" xlink:href="#DejaVuSans-32"/>
      <use x="748.632812" xlink:href="#DejaVuSans-37"/>
      <use x="843.652344" xlink:href="#DejaVuSans-73"/>
      <use x="873.144531" xlink:href="#DejaVuSans-110"/>
      <use x="936.523438" xlink:href="#DejaVuSans-58"/>
      <use x="970.214844" xlink:href="#DejaVuSans-32"/>
      <use x="1002.001953" xlink:href="#DejaVuSans-51"/>
      <use x="1065.625" xlink:href="#DejaVuSans-54"/>
      <use x="1129.248047" xlink:href="#DejaVuSans-46"/>
      <use x="1161.035156" xlink:href="#DejaVuSans-52"/>
     </g>
    </g>
    <g id="line2d_52">
     <path d="M 364.264063 433.980313 
L 384.264063 433.980313 
" style="fill:none;stroke:#2ca02c;stroke-linecap:square;stroke-width:2;"/>
    </g>
    <g id="line2d_53"/>
    <g id="text_28">
     <!-- hardnet AP: 95.8, %In: 37.2 -->
     <defs>
      <path d="M 45.40625 46.390625 
L 45.40625 75.984375 
L 54.390625 75.984375 
L 54.390625 0 
L 45.40625 0 
L 45.40625 8.203125 
Q 42.578125 3.328125 38.25 0.953125 
Q 33.9375 -1.421875 27.875 -1.421875 
Q 17.96875 -1.421875 11.734375 6.484375 
Q 5.515625 14.40625 5.515625 27.296875 
Q 5.515625 40.1875 11.734375 48.09375 
Q 17.96875 56 27.875 56 
Q 33.9375 56 38.25 53.625 
Q 42.578125 51.265625 45.40625 46.390625 
z
M 14.796875 27.296875 
Q 14.796875 17.390625 18.875 11.75 
Q 22.953125 6.109375 30.078125 6.109375 
Q 37.203125 6.109375 41.296875 11.75 
Q 45.40625 17.390625 45.40625 27.296875 
Q 45.40625 37.203125 41.296875 42.84375 
Q 37.203125 48.484375 30.078125 48.484375 
Q 22.953125 48.484375 18.875 42.84375 
Q 14.796875 37.203125 14.796875 27.296875 
z
" id="DejaVuSans-100"/>
     </defs>
     <g transform="translate(392.264063 437.480313)scale(0.1 -0.1)">
      <use xlink:href="#DejaVuSans-104"/>
      <use x="63.378906" xlink:href="#DejaVuSans-97"/>
      <use x="124.658203" xlink:href="#DejaVuSans-114"/>
      <use x="165.755859" xlink:href="#DejaVuSans-100"/>
      <use x="229.232422" xlink:href="#DejaVuSans-110"/>
      <use x="292.611328" xlink:href="#DejaVuSans-101"/>
      <use x="354.134766" xlink:href="#DejaVuSans-116"/>
      <use x="393.34375" xlink:href="#DejaVuSans-32"/>
      <use x="425.130859" xlink:href="#DejaVuSans-65"/>
      <use x="493.539062" xlink:href="#DejaVuSans-80"/>
      <use x="553.841797" xlink:href="#DejaVuSans-58"/>
      <use x="587.533203" xlink:href="#DejaVuSans-32"/>
      <use x="619.320312" xlink:href="#DejaVuSans-57"/>
      <use x="682.943359" xlink:href="#DejaVuSans-53"/>
      <use x="746.566406" xlink:href="#DejaVuSans-46"/>
      <use x="778.353516" xlink:href="#DejaVuSans-56"/>
      <use x="841.976562" xlink:href="#DejaVuSans-44"/>
      <use x="873.763672" xlink:href="#DejaVuSans-32"/>
      <use x="905.550781" xlink:href="#DejaVuSans-37"/>
      <use x="1000.570312" xlink:href="#DejaVuSans-73"/>
      <use x="1030.0625" xlink:href="#DejaVuSans-110"/>
      <use x="1093.441406" xlink:href="#DejaVuSans-58"/>
      <use x="1127.132812" xlink:href="#DejaVuSans-32"/>
      <use x="1158.919922" xlink:href="#DejaVuSans-51"/>
      <use x="1222.542969" xlink:href="#DejaVuSans-55"/>
      <use x="1286.166016" xlink:href="#DejaVuSans-46"/>
      <use x="1317.953125" xlink:href="#DejaVuSans-50"/>
     </g>
    </g>
   </g>
  </g>
 </g>
 <defs>
  <clipPath id="p198c5ef534">
   <rect height="388.08" width="474.3" x="76.5" y="60.48"/>
  </clipPath>
 </defs>
</svg>
