<?xml version="1.0" encoding="utf-8" standalone="no"?>
<!DOCTYPE svg PUBLIC "-//W3C//DTD SVG 1.1//EN"
  "http://www.w3.org/Graphics/SVG/1.1/DTD/svg11.dtd">
<!-- Created with matplotlib (https://matplotlib.org/) -->
<svg height="504pt" version="1.1" viewBox="0 0 612 504" width="612pt" xmlns="http://www.w3.org/2000/svg" xmlns:xlink="http://www.w3.org/1999/xlink">
 <defs>
  <style type="text/css">
*{stroke-linecap:butt;stroke-linejoin:round;}
  </style>
 </defs>
 <g id="figure_1">
  <g id="patch_1">
   <path d="M 0 504 
L 612 504 
L 612 0 
L 0 0 
z
" style="fill:#ffffff;"/>
  </g>
  <g id="axes_1">
   <g id="patch_2">
    <path d="M 76.5 448.56 
L 550.8 448.56 
L 550.8 60.48 
L 76.5 60.48 
z
" style="fill:#ffffff;"/>
   </g>
   <g id="matplotlib.axis_1">
    <g id="xtick_1">
     <g id="line2d_1">
      <path clip-path="url(#p95eb3e7a6d)" d="M 76.5 448.56 
L 76.5 60.48 
" style="fill:none;stroke:#b0b0b0;stroke-linecap:square;stroke-width:0.8;"/>
     </g>
     <g id="line2d_2">
      <defs>
       <path d="M 0 0 
L 0 3.5 
" id="m7395aae322" style="stroke:#000000;stroke-width:0.8;"/>
      </defs>
      <g>
       <use style="stroke:#000000;stroke-width:0.8;" x="76.5" xlink:href="#m7395aae322" y="448.56"/>
      </g>
     </g>
     <g id="text_1">
      <!-- 0.0 -->
      <defs>
       <path d="M 31.78125 66.40625 
Q 24.171875 66.40625 20.328125 58.90625 
Q 16.5 51.421875 16.5 36.375 
Q 16.5 21.390625 20.328125 13.890625 
Q 24.171875 6.390625 31.78125 6.390625 
Q 39.453125 6.390625 43.28125 13.890625 
Q 47.125 21.390625 47.125 36.375 
Q 47.125 51.421875 43.28125 58.90625 
Q 39.453125 66.40625 31.78125 66.40625 
z
M 31.78125 74.21875 
Q 44.046875 74.21875 50.515625 64.515625 
Q 56.984375 54.828125 56.984375 36.375 
Q 56.984375 17.96875 50.515625 8.265625 
Q 44.046875 -1.421875 31.78125 -1.421875 
Q 19.53125 -1.421875 13.0625 8.265625 
Q 6.59375 17.96875 6.59375 36.375 
Q 6.59375 54.828125 13.0625 64.515625 
Q 19.53125 74.21875 31.78125 74.21875 
z
" id="DejaVuSans-48"/>
       <path d="M 10.6875 12.40625 
L 21 12.40625 
L 21 0 
L 10.6875 0 
z
" id="DejaVuSans-46"/>
      </defs>
      <g transform="translate(68.548438 463.158437)scale(0.1 -0.1)">
       <use xlink:href="#DejaVuSans-48"/>
       <use x="63.623047" xlink:href="#DejaVuSans-46"/>
       <use x="95.410156" xlink:href="#DejaVuSans-48"/>
      </g>
     </g>
    </g>
    <g id="xtick_2">
     <g id="line2d_3">
      <path clip-path="url(#p95eb3e7a6d)" d="M 123.93 448.56 
L 123.93 60.48 
" style="fill:none;stroke:#b0b0b0;stroke-linecap:square;stroke-width:0.8;"/>
     </g>
     <g id="line2d_4">
      <g>
       <use style="stroke:#000000;stroke-width:0.8;" x="123.93" xlink:href="#m7395aae322" y="448.56"/>
      </g>
     </g>
     <g id="text_2">
      <!-- 0.1 -->
      <defs>
       <path d="M 12.40625 8.296875 
L 28.515625 8.296875 
L 28.515625 63.921875 
L 10.984375 60.40625 
L 10.984375 69.390625 
L 28.421875 72.90625 
L 38.28125 72.90625 
L 38.28125 8.296875 
L 54.390625 8.296875 
L 54.390625 0 
L 12.40625 0 
z
" id="DejaVuSans-49"/>
      </defs>
      <g transform="translate(115.978438 463.158437)scale(0.1 -0.1)">
       <use xlink:href="#DejaVuSans-48"/>
       <use x="63.623047" xlink:href="#DejaVuSans-46"/>
       <use x="95.410156" xlink:href="#DejaVuSans-49"/>
      </g>
     </g>
    </g>
    <g id="xtick_3">
     <g id="line2d_5">
      <path clip-path="url(#p95eb3e7a6d)" d="M 171.36 448.56 
L 171.36 60.48 
" style="fill:none;stroke:#b0b0b0;stroke-linecap:square;stroke-width:0.8;"/>
     </g>
     <g id="line2d_6">
      <g>
       <use style="stroke:#000000;stroke-width:0.8;" x="171.36" xlink:href="#m7395aae322" y="448.56"/>
      </g>
     </g>
     <g id="text_3">
      <!-- 0.2 -->
      <defs>
       <path d="M 19.1875 8.296875 
L 53.609375 8.296875 
L 53.609375 0 
L 7.328125 0 
L 7.328125 8.296875 
Q 12.9375 14.109375 22.625 23.890625 
Q 32.328125 33.6875 34.8125 36.53125 
Q 39.546875 41.84375 41.421875 45.53125 
Q 43.3125 49.21875 43.3125 52.78125 
Q 43.3125 58.59375 39.234375 62.25 
Q 35.15625 65.921875 28.609375 65.921875 
Q 23.96875 65.921875 18.8125 64.3125 
Q 13.671875 62.703125 7.8125 59.421875 
L 7.8125 69.390625 
Q 13.765625 71.78125 18.9375 73 
Q 24.125 74.21875 28.421875 74.21875 
Q 39.75 74.21875 46.484375 68.546875 
Q 53.21875 62.890625 53.21875 53.421875 
Q 53.21875 48.921875 51.53125 44.890625 
Q 49.859375 40.875 45.40625 35.40625 
Q 44.1875 33.984375 37.640625 27.21875 
Q 31.109375 20.453125 19.1875 8.296875 
z
" id="DejaVuSans-50"/>
      </defs>
      <g transform="translate(163.408438 463.158437)scale(0.1 -0.1)">
       <use xlink:href="#DejaVuSans-48"/>
       <use x="63.623047" xlink:href="#DejaVuSans-46"/>
       <use x="95.410156" xlink:href="#DejaVuSans-50"/>
      </g>
     </g>
    </g>
    <g id="xtick_4">
     <g id="line2d_7">
      <path clip-path="url(#p95eb3e7a6d)" d="M 218.79 448.56 
L 218.79 60.48 
" style="fill:none;stroke:#b0b0b0;stroke-linecap:square;stroke-width:0.8;"/>
     </g>
     <g id="line2d_8">
      <g>
       <use style="stroke:#000000;stroke-width:0.8;" x="218.79" xlink:href="#m7395aae322" y="448.56"/>
      </g>
     </g>
     <g id="text_4">
      <!-- 0.3 -->
      <defs>
       <path d="M 40.578125 39.3125 
Q 47.65625 37.796875 51.625 33 
Q 55.609375 28.21875 55.609375 21.1875 
Q 55.609375 10.40625 48.1875 4.484375 
Q 40.765625 -1.421875 27.09375 -1.421875 
Q 22.515625 -1.421875 17.65625 -0.515625 
Q 12.796875 0.390625 7.625 2.203125 
L 7.625 11.71875 
Q 11.71875 9.328125 16.59375 8.109375 
Q 21.484375 6.890625 26.8125 6.890625 
Q 36.078125 6.890625 40.9375 10.546875 
Q 45.796875 14.203125 45.796875 21.1875 
Q 45.796875 27.640625 41.28125 31.265625 
Q 36.765625 34.90625 28.71875 34.90625 
L 20.21875 34.90625 
L 20.21875 43.015625 
L 29.109375 43.015625 
Q 36.375 43.015625 40.234375 45.921875 
Q 44.09375 48.828125 44.09375 54.296875 
Q 44.09375 59.90625 40.109375 62.90625 
Q 36.140625 65.921875 28.71875 65.921875 
Q 24.65625 65.921875 20.015625 65.03125 
Q 15.375 64.15625 9.8125 62.3125 
L 9.8125 71.09375 
Q 15.4375 72.65625 20.34375 73.4375 
Q 25.25 74.21875 29.59375 74.21875 
Q 40.828125 74.21875 47.359375 69.109375 
Q 53.90625 64.015625 53.90625 55.328125 
Q 53.90625 49.265625 50.4375 45.09375 
Q 46.96875 40.921875 40.578125 39.3125 
z
" id="DejaVuSans-51"/>
      </defs>
      <g transform="translate(210.838438 463.158437)scale(0.1 -0.1)">
       <use xlink:href="#DejaVuSans-48"/>
       <use x="63.623047" xlink:href="#DejaVuSans-46"/>
       <use x="95.410156" xlink:href="#DejaVuSans-51"/>
      </g>
     </g>
    </g>
    <g id="xtick_5">
     <g id="line2d_9">
      <path clip-path="url(#p95eb3e7a6d)" d="M 266.22 448.56 
L 266.22 60.48 
" style="fill:none;stroke:#b0b0b0;stroke-linecap:square;stroke-width:0.8;"/>
     </g>
     <g id="line2d_10">
      <g>
       <use style="stroke:#000000;stroke-width:0.8;" x="266.22" xlink:href="#m7395aae322" y="448.56"/>
      </g>
     </g>
     <g id="text_5">
      <!-- 0.4 -->
      <defs>
       <path d="M 37.796875 64.3125 
L 12.890625 25.390625 
L 37.796875 25.390625 
z
M 35.203125 72.90625 
L 47.609375 72.90625 
L 47.609375 25.390625 
L 58.015625 25.390625 
L 58.015625 17.1875 
L 47.609375 17.1875 
L 47.609375 0 
L 37.796875 0 
L 37.796875 17.1875 
L 4.890625 17.1875 
L 4.890625 26.703125 
z
" id="DejaVuSans-52"/>
      </defs>
      <g transform="translate(258.268438 463.158437)scale(0.1 -0.1)">
       <use xlink:href="#DejaVuSans-48"/>
       <use x="63.623047" xlink:href="#DejaVuSans-46"/>
       <use x="95.410156" xlink:href="#DejaVuSans-52"/>
      </g>
     </g>
    </g>
    <g id="xtick_6">
     <g id="line2d_11">
      <path clip-path="url(#p95eb3e7a6d)" d="M 313.65 448.56 
L 313.65 60.48 
" style="fill:none;stroke:#b0b0b0;stroke-linecap:square;stroke-width:0.8;"/>
     </g>
     <g id="line2d_12">
      <g>
       <use style="stroke:#000000;stroke-width:0.8;" x="313.65" xlink:href="#m7395aae322" y="448.56"/>
      </g>
     </g>
     <g id="text_6">
      <!-- 0.5 -->
      <defs>
       <path d="M 10.796875 72.90625 
L 49.515625 72.90625 
L 49.515625 64.59375 
L 19.828125 64.59375 
L 19.828125 46.734375 
Q 21.96875 47.46875 24.109375 47.828125 
Q 26.265625 48.1875 28.421875 48.1875 
Q 40.625 48.1875 47.75 41.5 
Q 54.890625 34.8125 54.890625 23.390625 
Q 54.890625 11.625 47.5625 5.09375 
Q 40.234375 -1.421875 26.90625 -1.421875 
Q 22.3125 -1.421875 17.546875 -0.640625 
Q 12.796875 0.140625 7.71875 1.703125 
L 7.71875 11.625 
Q 12.109375 9.234375 16.796875 8.0625 
Q 21.484375 6.890625 26.703125 6.890625 
Q 35.15625 6.890625 40.078125 11.328125 
Q 45.015625 15.765625 45.015625 23.390625 
Q 45.015625 31 40.078125 35.4375 
Q 35.15625 39.890625 26.703125 39.890625 
Q 22.75 39.890625 18.8125 39.015625 
Q 14.890625 38.140625 10.796875 36.28125 
z
" id="DejaVuSans-53"/>
      </defs>
      <g transform="translate(305.698438 463.158437)scale(0.1 -0.1)">
       <use xlink:href="#DejaVuSans-48"/>
       <use x="63.623047" xlink:href="#DejaVuSans-46"/>
       <use x="95.410156" xlink:href="#DejaVuSans-53"/>
      </g>
     </g>
    </g>
    <g id="xtick_7">
     <g id="line2d_13">
      <path clip-path="url(#p95eb3e7a6d)" d="M 361.08 448.56 
L 361.08 60.48 
" style="fill:none;stroke:#b0b0b0;stroke-linecap:square;stroke-width:0.8;"/>
     </g>
     <g id="line2d_14">
      <g>
       <use style="stroke:#000000;stroke-width:0.8;" x="361.08" xlink:href="#m7395aae322" y="448.56"/>
      </g>
     </g>
     <g id="text_7">
      <!-- 0.6 -->
      <defs>
       <path d="M 33.015625 40.375 
Q 26.375 40.375 22.484375 35.828125 
Q 18.609375 31.296875 18.609375 23.390625 
Q 18.609375 15.53125 22.484375 10.953125 
Q 26.375 6.390625 33.015625 6.390625 
Q 39.65625 6.390625 43.53125 10.953125 
Q 47.40625 15.53125 47.40625 23.390625 
Q 47.40625 31.296875 43.53125 35.828125 
Q 39.65625 40.375 33.015625 40.375 
z
M 52.59375 71.296875 
L 52.59375 62.3125 
Q 48.875 64.0625 45.09375 64.984375 
Q 41.3125 65.921875 37.59375 65.921875 
Q 27.828125 65.921875 22.671875 59.328125 
Q 17.53125 52.734375 16.796875 39.40625 
Q 19.671875 43.65625 24.015625 45.921875 
Q 28.375 48.1875 33.59375 48.1875 
Q 44.578125 48.1875 50.953125 41.515625 
Q 57.328125 34.859375 57.328125 23.390625 
Q 57.328125 12.15625 50.6875 5.359375 
Q 44.046875 -1.421875 33.015625 -1.421875 
Q 20.359375 -1.421875 13.671875 8.265625 
Q 6.984375 17.96875 6.984375 36.375 
Q 6.984375 53.65625 15.1875 63.9375 
Q 23.390625 74.21875 37.203125 74.21875 
Q 40.921875 74.21875 44.703125 73.484375 
Q 48.484375 72.75 52.59375 71.296875 
z
" id="DejaVuSans-54"/>
      </defs>
      <g transform="translate(353.128438 463.158437)scale(0.1 -0.1)">
       <use xlink:href="#DejaVuSans-48"/>
       <use x="63.623047" xlink:href="#DejaVuSans-46"/>
       <use x="95.410156" xlink:href="#DejaVuSans-54"/>
      </g>
     </g>
    </g>
    <g id="xtick_8">
     <g id="line2d_15">
      <path clip-path="url(#p95eb3e7a6d)" d="M 408.51 448.56 
L 408.51 60.48 
" style="fill:none;stroke:#b0b0b0;stroke-linecap:square;stroke-width:0.8;"/>
     </g>
     <g id="line2d_16">
      <g>
       <use style="stroke:#000000;stroke-width:0.8;" x="408.51" xlink:href="#m7395aae322" y="448.56"/>
      </g>
     </g>
     <g id="text_8">
      <!-- 0.7 -->
      <defs>
       <path d="M 8.203125 72.90625 
L 55.078125 72.90625 
L 55.078125 68.703125 
L 28.609375 0 
L 18.3125 0 
L 43.21875 64.59375 
L 8.203125 64.59375 
z
" id="DejaVuSans-55"/>
      </defs>
      <g transform="translate(400.558438 463.158437)scale(0.1 -0.1)">
       <use xlink:href="#DejaVuSans-48"/>
       <use x="63.623047" xlink:href="#DejaVuSans-46"/>
       <use x="95.410156" xlink:href="#DejaVuSans-55"/>
      </g>
     </g>
    </g>
    <g id="xtick_9">
     <g id="line2d_17">
      <path clip-path="url(#p95eb3e7a6d)" d="M 455.94 448.56 
L 455.94 60.48 
" style="fill:none;stroke:#b0b0b0;stroke-linecap:square;stroke-width:0.8;"/>
     </g>
     <g id="line2d_18">
      <g>
       <use style="stroke:#000000;stroke-width:0.8;" x="455.94" xlink:href="#m7395aae322" y="448.56"/>
      </g>
     </g>
     <g id="text_9">
      <!-- 0.8 -->
      <defs>
       <path d="M 31.78125 34.625 
Q 24.75 34.625 20.71875 30.859375 
Q 16.703125 27.09375 16.703125 20.515625 
Q 16.703125 13.921875 20.71875 10.15625 
Q 24.75 6.390625 31.78125 6.390625 
Q 38.8125 6.390625 42.859375 10.171875 
Q 46.921875 13.96875 46.921875 20.515625 
Q 46.921875 27.09375 42.890625 30.859375 
Q 38.875 34.625 31.78125 34.625 
z
M 21.921875 38.8125 
Q 15.578125 40.375 12.03125 44.71875 
Q 8.5 49.078125 8.5 55.328125 
Q 8.5 64.0625 14.71875 69.140625 
Q 20.953125 74.21875 31.78125 74.21875 
Q 42.671875 74.21875 48.875 69.140625 
Q 55.078125 64.0625 55.078125 55.328125 
Q 55.078125 49.078125 51.53125 44.71875 
Q 48 40.375 41.703125 38.8125 
Q 48.828125 37.15625 52.796875 32.3125 
Q 56.78125 27.484375 56.78125 20.515625 
Q 56.78125 9.90625 50.3125 4.234375 
Q 43.84375 -1.421875 31.78125 -1.421875 
Q 19.734375 -1.421875 13.25 4.234375 
Q 6.78125 9.90625 6.78125 20.515625 
Q 6.78125 27.484375 10.78125 32.3125 
Q 14.796875 37.15625 21.921875 38.8125 
z
M 18.3125 54.390625 
Q 18.3125 48.734375 21.84375 45.5625 
Q 25.390625 42.390625 31.78125 42.390625 
Q 38.140625 42.390625 41.71875 45.5625 
Q 45.3125 48.734375 45.3125 54.390625 
Q 45.3125 60.0625 41.71875 63.234375 
Q 38.140625 66.40625 31.78125 66.40625 
Q 25.390625 66.40625 21.84375 63.234375 
Q 18.3125 60.0625 18.3125 54.390625 
z
" id="DejaVuSans-56"/>
      </defs>
      <g transform="translate(447.988438 463.158437)scale(0.1 -0.1)">
       <use xlink:href="#DejaVuSans-48"/>
       <use x="63.623047" xlink:href="#DejaVuSans-46"/>
       <use x="95.410156" xlink:href="#DejaVuSans-56"/>
      </g>
     </g>
    </g>
    <g id="xtick_10">
     <g id="line2d_19">
      <path clip-path="url(#p95eb3e7a6d)" d="M 503.37 448.56 
L 503.37 60.48 
" style="fill:none;stroke:#b0b0b0;stroke-linecap:square;stroke-width:0.8;"/>
     </g>
     <g id="line2d_20">
      <g>
       <use style="stroke:#000000;stroke-width:0.8;" x="503.37" xlink:href="#m7395aae322" y="448.56"/>
      </g>
     </g>
     <g id="text_10">
      <!-- 0.9 -->
      <defs>
       <path d="M 10.984375 1.515625 
L 10.984375 10.5 
Q 14.703125 8.734375 18.5 7.8125 
Q 22.3125 6.890625 25.984375 6.890625 
Q 35.75 6.890625 40.890625 13.453125 
Q 46.046875 20.015625 46.78125 33.40625 
Q 43.953125 29.203125 39.59375 26.953125 
Q 35.25 24.703125 29.984375 24.703125 
Q 19.046875 24.703125 12.671875 31.3125 
Q 6.296875 37.9375 6.296875 49.421875 
Q 6.296875 60.640625 12.9375 67.421875 
Q 19.578125 74.21875 30.609375 74.21875 
Q 43.265625 74.21875 49.921875 64.515625 
Q 56.59375 54.828125 56.59375 36.375 
Q 56.59375 19.140625 48.40625 8.859375 
Q 40.234375 -1.421875 26.421875 -1.421875 
Q 22.703125 -1.421875 18.890625 -0.6875 
Q 15.09375 0.046875 10.984375 1.515625 
z
M 30.609375 32.421875 
Q 37.25 32.421875 41.125 36.953125 
Q 45.015625 41.5 45.015625 49.421875 
Q 45.015625 57.28125 41.125 61.84375 
Q 37.25 66.40625 30.609375 66.40625 
Q 23.96875 66.40625 20.09375 61.84375 
Q 16.21875 57.28125 16.21875 49.421875 
Q 16.21875 41.5 20.09375 36.953125 
Q 23.96875 32.421875 30.609375 32.421875 
z
" id="DejaVuSans-57"/>
      </defs>
      <g transform="translate(495.418438 463.158437)scale(0.1 -0.1)">
       <use xlink:href="#DejaVuSans-48"/>
       <use x="63.623047" xlink:href="#DejaVuSans-46"/>
       <use x="95.410156" xlink:href="#DejaVuSans-57"/>
      </g>
     </g>
    </g>
    <g id="xtick_11">
     <g id="line2d_21">
      <path clip-path="url(#p95eb3e7a6d)" d="M 550.8 448.56 
L 550.8 60.48 
" style="fill:none;stroke:#b0b0b0;stroke-linecap:square;stroke-width:0.8;"/>
     </g>
     <g id="line2d_22">
      <g>
       <use style="stroke:#000000;stroke-width:0.8;" x="550.8" xlink:href="#m7395aae322" y="448.56"/>
      </g>
     </g>
     <g id="text_11">
      <!-- 1.0 -->
      <g transform="translate(542.848438 463.158437)scale(0.1 -0.1)">
       <use xlink:href="#DejaVuSans-49"/>
       <use x="63.623047" xlink:href="#DejaVuSans-46"/>
       <use x="95.410156" xlink:href="#DejaVuSans-48"/>
      </g>
     </g>
    </g>
    <g id="text_12">
     <!-- 1-precision -->
     <defs>
      <path d="M 4.890625 31.390625 
L 31.203125 31.390625 
L 31.203125 23.390625 
L 4.890625 23.390625 
z
" id="DejaVuSans-45"/>
      <path d="M 18.109375 8.203125 
L 18.109375 -20.796875 
L 9.078125 -20.796875 
L 9.078125 54.6875 
L 18.109375 54.6875 
L 18.109375 46.390625 
Q 20.953125 51.265625 25.265625 53.625 
Q 29.59375 56 35.59375 56 
Q 45.5625 56 51.78125 48.09375 
Q 58.015625 40.1875 58.015625 27.296875 
Q 58.015625 14.40625 51.78125 6.484375 
Q 45.5625 -1.421875 35.59375 -1.421875 
Q 29.59375 -1.421875 25.265625 0.953125 
Q 20.953125 3.328125 18.109375 8.203125 
z
M 48.6875 27.296875 
Q 48.6875 37.203125 44.609375 42.84375 
Q 40.53125 48.484375 33.40625 48.484375 
Q 26.265625 48.484375 22.1875 42.84375 
Q 18.109375 37.203125 18.109375 27.296875 
Q 18.109375 17.390625 22.1875 11.75 
Q 26.265625 6.109375 33.40625 6.109375 
Q 40.53125 6.109375 44.609375 11.75 
Q 48.6875 17.390625 48.6875 27.296875 
z
" id="DejaVuSans-112"/>
      <path d="M 41.109375 46.296875 
Q 39.59375 47.171875 37.8125 47.578125 
Q 36.03125 48 33.890625 48 
Q 26.265625 48 22.1875 43.046875 
Q 18.109375 38.09375 18.109375 28.8125 
L 18.109375 0 
L 9.078125 0 
L 9.078125 54.6875 
L 18.109375 54.6875 
L 18.109375 46.1875 
Q 20.953125 51.171875 25.484375 53.578125 
Q 30.03125 56 36.53125 56 
Q 37.453125 56 38.578125 55.875 
Q 39.703125 55.765625 41.0625 55.515625 
z
" id="DejaVuSans-114"/>
      <path d="M 56.203125 29.59375 
L 56.203125 25.203125 
L 14.890625 25.203125 
Q 15.484375 15.921875 20.484375 11.0625 
Q 25.484375 6.203125 34.421875 6.203125 
Q 39.59375 6.203125 44.453125 7.46875 
Q 49.3125 8.734375 54.109375 11.28125 
L 54.109375 2.78125 
Q 49.265625 0.734375 44.1875 -0.34375 
Q 39.109375 -1.421875 33.890625 -1.421875 
Q 20.796875 -1.421875 13.15625 6.1875 
Q 5.515625 13.8125 5.515625 26.8125 
Q 5.515625 40.234375 12.765625 48.109375 
Q 20.015625 56 32.328125 56 
Q 43.359375 56 49.78125 48.890625 
Q 56.203125 41.796875 56.203125 29.59375 
z
M 47.21875 32.234375 
Q 47.125 39.59375 43.09375 43.984375 
Q 39.0625 48.390625 32.421875 48.390625 
Q 24.90625 48.390625 20.390625 44.140625 
Q 15.875 39.890625 15.1875 32.171875 
z
" id="DejaVuSans-101"/>
      <path d="M 48.78125 52.59375 
L 48.78125 44.1875 
Q 44.96875 46.296875 41.140625 47.34375 
Q 37.3125 48.390625 33.40625 48.390625 
Q 24.65625 48.390625 19.8125 42.84375 
Q 14.984375 37.3125 14.984375 27.296875 
Q 14.984375 17.28125 19.8125 11.734375 
Q 24.65625 6.203125 33.40625 6.203125 
Q 37.3125 6.203125 41.140625 7.25 
Q 44.96875 8.296875 48.78125 10.40625 
L 48.78125 2.09375 
Q 45.015625 0.34375 40.984375 -0.53125 
Q 36.96875 -1.421875 32.421875 -1.421875 
Q 20.0625 -1.421875 12.78125 6.34375 
Q 5.515625 14.109375 5.515625 27.296875 
Q 5.515625 40.671875 12.859375 48.328125 
Q 20.21875 56 33.015625 56 
Q 37.15625 56 41.109375 55.140625 
Q 45.0625 54.296875 48.78125 52.59375 
z
" id="DejaVuSans-99"/>
      <path d="M 9.421875 54.6875 
L 18.40625 54.6875 
L 18.40625 0 
L 9.421875 0 
z
M 9.421875 75.984375 
L 18.40625 75.984375 
L 18.40625 64.59375 
L 9.421875 64.59375 
z
" id="DejaVuSans-105"/>
      <path d="M 44.28125 53.078125 
L 44.28125 44.578125 
Q 40.484375 46.53125 36.375 47.5 
Q 32.28125 48.484375 27.875 48.484375 
Q 21.1875 48.484375 17.84375 46.4375 
Q 14.5 44.390625 14.5 40.28125 
Q 14.5 37.15625 16.890625 35.375 
Q 19.28125 33.59375 26.515625 31.984375 
L 29.59375 31.296875 
Q 39.15625 29.25 43.1875 25.515625 
Q 47.21875 21.78125 47.21875 15.09375 
Q 47.21875 7.46875 41.1875 3.015625 
Q 35.15625 -1.421875 24.609375 -1.421875 
Q 20.21875 -1.421875 15.453125 -0.5625 
Q 10.6875 0.296875 5.421875 2 
L 5.421875 11.28125 
Q 10.40625 8.6875 15.234375 7.390625 
Q 20.0625 6.109375 24.8125 6.109375 
Q 31.15625 6.109375 34.5625 8.28125 
Q 37.984375 10.453125 37.984375 14.40625 
Q 37.984375 18.0625 35.515625 20.015625 
Q 33.0625 21.96875 24.703125 23.78125 
L 21.578125 24.515625 
Q 13.234375 26.265625 9.515625 29.90625 
Q 5.8125 33.546875 5.8125 39.890625 
Q 5.8125 47.609375 11.28125 51.796875 
Q 16.75 56 26.8125 56 
Q 31.78125 56 36.171875 55.265625 
Q 40.578125 54.546875 44.28125 53.078125 
z
" id="DejaVuSans-115"/>
      <path d="M 30.609375 48.390625 
Q 23.390625 48.390625 19.1875 42.75 
Q 14.984375 37.109375 14.984375 27.296875 
Q 14.984375 17.484375 19.15625 11.84375 
Q 23.34375 6.203125 30.609375 6.203125 
Q 37.796875 6.203125 41.984375 11.859375 
Q 46.1875 17.53125 46.1875 27.296875 
Q 46.1875 37.015625 41.984375 42.703125 
Q 37.796875 48.390625 30.609375 48.390625 
z
M 30.609375 56 
Q 42.328125 56 49.015625 48.375 
Q 55.71875 40.765625 55.71875 27.296875 
Q 55.71875 13.875 49.015625 6.21875 
Q 42.328125 -1.421875 30.609375 -1.421875 
Q 18.84375 -1.421875 12.171875 6.21875 
Q 5.515625 13.875 5.515625 27.296875 
Q 5.515625 40.765625 12.171875 48.375 
Q 18.84375 56 30.609375 56 
z
" id="DejaVuSans-111"/>
      <path d="M 54.890625 33.015625 
L 54.890625 0 
L 45.90625 0 
L 45.90625 32.71875 
Q 45.90625 40.484375 42.875 44.328125 
Q 39.84375 48.1875 33.796875 48.1875 
Q 26.515625 48.1875 22.3125 43.546875 
Q 18.109375 38.921875 18.109375 30.90625 
L 18.109375 0 
L 9.078125 0 
L 9.078125 54.6875 
L 18.109375 54.6875 
L 18.109375 46.1875 
Q 21.34375 51.125 25.703125 53.5625 
Q 30.078125 56 35.796875 56 
Q 45.21875 56 50.046875 50.171875 
Q 54.890625 44.34375 54.890625 33.015625 
z
" id="DejaVuSans-110"/>
     </defs>
     <g transform="translate(286 476.836563)scale(0.1 -0.1)">
      <use xlink:href="#DejaVuSans-49"/>
      <use x="63.623047" xlink:href="#DejaVuSans-45"/>
      <use x="99.707031" xlink:href="#DejaVuSans-112"/>
      <use x="163.183594" xlink:href="#DejaVuSans-114"/>
      <use x="204.265625" xlink:href="#DejaVuSans-101"/>
      <use x="265.789062" xlink:href="#DejaVuSans-99"/>
      <use x="320.769531" xlink:href="#DejaVuSans-105"/>
      <use x="348.552734" xlink:href="#DejaVuSans-115"/>
      <use x="400.652344" xlink:href="#DejaVuSans-105"/>
      <use x="428.435547" xlink:href="#DejaVuSans-111"/>
      <use x="489.617188" xlink:href="#DejaVuSans-110"/>
     </g>
    </g>
   </g>
   <g id="matplotlib.axis_2">
    <g id="ytick_1">
     <g id="line2d_23">
      <path clip-path="url(#p95eb3e7a6d)" d="M 76.5 448.56 
L 550.8 448.56 
" style="fill:none;stroke:#b0b0b0;stroke-linecap:square;stroke-width:0.8;"/>
     </g>
     <g id="line2d_24">
      <defs>
       <path d="M 0 0 
L -3.5 0 
" id="md38750a069" style="stroke:#000000;stroke-width:0.8;"/>
      </defs>
      <g>
       <use style="stroke:#000000;stroke-width:0.8;" x="76.5" xlink:href="#md38750a069" y="448.56"/>
      </g>
     </g>
     <g id="text_13">
      <!-- 0.0 -->
      <g transform="translate(53.596875 452.359219)scale(0.1 -0.1)">
       <use xlink:href="#DejaVuSans-48"/>
       <use x="63.623047" xlink:href="#DejaVuSans-46"/>
       <use x="95.410156" xlink:href="#DejaVuSans-48"/>
      </g>
     </g>
    </g>
    <g id="ytick_2">
     <g id="line2d_25">
      <path clip-path="url(#p95eb3e7a6d)" d="M 76.5 409.752 
L 550.8 409.752 
" style="fill:none;stroke:#b0b0b0;stroke-linecap:square;stroke-width:0.8;"/>
     </g>
     <g id="line2d_26">
      <g>
       <use style="stroke:#000000;stroke-width:0.8;" x="76.5" xlink:href="#md38750a069" y="409.752"/>
      </g>
     </g>
     <g id="text_14">
      <!-- 0.1 -->
      <g transform="translate(53.596875 413.551219)scale(0.1 -0.1)">
       <use xlink:href="#DejaVuSans-48"/>
       <use x="63.623047" xlink:href="#DejaVuSans-46"/>
       <use x="95.410156" xlink:href="#DejaVuSans-49"/>
      </g>
     </g>
    </g>
    <g id="ytick_3">
     <g id="line2d_27">
      <path clip-path="url(#p95eb3e7a6d)" d="M 76.5 370.944 
L 550.8 370.944 
" style="fill:none;stroke:#b0b0b0;stroke-linecap:square;stroke-width:0.8;"/>
     </g>
     <g id="line2d_28">
      <g>
       <use style="stroke:#000000;stroke-width:0.8;" x="76.5" xlink:href="#md38750a069" y="370.944"/>
      </g>
     </g>
     <g id="text_15">
      <!-- 0.2 -->
      <g transform="translate(53.596875 374.743219)scale(0.1 -0.1)">
       <use xlink:href="#DejaVuSans-48"/>
       <use x="63.623047" xlink:href="#DejaVuSans-46"/>
       <use x="95.410156" xlink:href="#DejaVuSans-50"/>
      </g>
     </g>
    </g>
    <g id="ytick_4">
     <g id="line2d_29">
      <path clip-path="url(#p95eb3e7a6d)" d="M 76.5 332.136 
L 550.8 332.136 
" style="fill:none;stroke:#b0b0b0;stroke-linecap:square;stroke-width:0.8;"/>
     </g>
     <g id="line2d_30">
      <g>
       <use style="stroke:#000000;stroke-width:0.8;" x="76.5" xlink:href="#md38750a069" y="332.136"/>
      </g>
     </g>
     <g id="text_16">
      <!-- 0.3 -->
      <g transform="translate(53.596875 335.935219)scale(0.1 -0.1)">
       <use xlink:href="#DejaVuSans-48"/>
       <use x="63.623047" xlink:href="#DejaVuSans-46"/>
       <use x="95.410156" xlink:href="#DejaVuSans-51"/>
      </g>
     </g>
    </g>
    <g id="ytick_5">
     <g id="line2d_31">
      <path clip-path="url(#p95eb3e7a6d)" d="M 76.5 293.328 
L 550.8 293.328 
" style="fill:none;stroke:#b0b0b0;stroke-linecap:square;stroke-width:0.8;"/>
     </g>
     <g id="line2d_32">
      <g>
       <use style="stroke:#000000;stroke-width:0.8;" x="76.5" xlink:href="#md38750a069" y="293.328"/>
      </g>
     </g>
     <g id="text_17">
      <!-- 0.4 -->
      <g transform="translate(53.596875 297.127219)scale(0.1 -0.1)">
       <use xlink:href="#DejaVuSans-48"/>
       <use x="63.623047" xlink:href="#DejaVuSans-46"/>
       <use x="95.410156" xlink:href="#DejaVuSans-52"/>
      </g>
     </g>
    </g>
    <g id="ytick_6">
     <g id="line2d_33">
      <path clip-path="url(#p95eb3e7a6d)" d="M 76.5 254.52 
L 550.8 254.52 
" style="fill:none;stroke:#b0b0b0;stroke-linecap:square;stroke-width:0.8;"/>
     </g>
     <g id="line2d_34">
      <g>
       <use style="stroke:#000000;stroke-width:0.8;" x="76.5" xlink:href="#md38750a069" y="254.52"/>
      </g>
     </g>
     <g id="text_18">
      <!-- 0.5 -->
      <g transform="translate(53.596875 258.319219)scale(0.1 -0.1)">
       <use xlink:href="#DejaVuSans-48"/>
       <use x="63.623047" xlink:href="#DejaVuSans-46"/>
       <use x="95.410156" xlink:href="#DejaVuSans-53"/>
      </g>
     </g>
    </g>
    <g id="ytick_7">
     <g id="line2d_35">
      <path clip-path="url(#p95eb3e7a6d)" d="M 76.5 215.712 
L 550.8 215.712 
" style="fill:none;stroke:#b0b0b0;stroke-linecap:square;stroke-width:0.8;"/>
     </g>
     <g id="line2d_36">
      <g>
       <use style="stroke:#000000;stroke-width:0.8;" x="76.5" xlink:href="#md38750a069" y="215.712"/>
      </g>
     </g>
     <g id="text_19">
      <!-- 0.6 -->
      <g transform="translate(53.596875 219.511219)scale(0.1 -0.1)">
       <use xlink:href="#DejaVuSans-48"/>
       <use x="63.623047" xlink:href="#DejaVuSans-46"/>
       <use x="95.410156" xlink:href="#DejaVuSans-54"/>
      </g>
     </g>
    </g>
    <g id="ytick_8">
     <g id="line2d_37">
      <path clip-path="url(#p95eb3e7a6d)" d="M 76.5 176.904 
L 550.8 176.904 
" style="fill:none;stroke:#b0b0b0;stroke-linecap:square;stroke-width:0.8;"/>
     </g>
     <g id="line2d_38">
      <g>
       <use style="stroke:#000000;stroke-width:0.8;" x="76.5" xlink:href="#md38750a069" y="176.904"/>
      </g>
     </g>
     <g id="text_20">
      <!-- 0.7 -->
      <g transform="translate(53.596875 180.703219)scale(0.1 -0.1)">
       <use xlink:href="#DejaVuSans-48"/>
       <use x="63.623047" xlink:href="#DejaVuSans-46"/>
       <use x="95.410156" xlink:href="#DejaVuSans-55"/>
      </g>
     </g>
    </g>
    <g id="ytick_9">
     <g id="line2d_39">
      <path clip-path="url(#p95eb3e7a6d)" d="M 76.5 138.096 
L 550.8 138.096 
" style="fill:none;stroke:#b0b0b0;stroke-linecap:square;stroke-width:0.8;"/>
     </g>
     <g id="line2d_40">
      <g>
       <use style="stroke:#000000;stroke-width:0.8;" x="76.5" xlink:href="#md38750a069" y="138.096"/>
      </g>
     </g>
     <g id="text_21">
      <!-- 0.8 -->
      <g transform="translate(53.596875 141.895219)scale(0.1 -0.1)">
       <use xlink:href="#DejaVuSans-48"/>
       <use x="63.623047" xlink:href="#DejaVuSans-46"/>
       <use x="95.410156" xlink:href="#DejaVuSans-56"/>
      </g>
     </g>
    </g>
    <g id="ytick_10">
     <g id="line2d_41">
      <path clip-path="url(#p95eb3e7a6d)" d="M 76.5 99.288 
L 550.8 99.288 
" style="fill:none;stroke:#b0b0b0;stroke-linecap:square;stroke-width:0.8;"/>
     </g>
     <g id="line2d_42">
      <g>
       <use style="stroke:#000000;stroke-width:0.8;" x="76.5" xlink:href="#md38750a069" y="99.288"/>
      </g>
     </g>
     <g id="text_22">
      <!-- 0.9 -->
      <g transform="translate(53.596875 103.087219)scale(0.1 -0.1)">
       <use xlink:href="#DejaVuSans-48"/>
       <use x="63.623047" xlink:href="#DejaVuSans-46"/>
       <use x="95.410156" xlink:href="#DejaVuSans-57"/>
      </g>
     </g>
    </g>
    <g id="ytick_11">
     <g id="line2d_43">
      <path clip-path="url(#p95eb3e7a6d)" d="M 76.5 60.48 
L 550.8 60.48 
" style="fill:none;stroke:#b0b0b0;stroke-linecap:square;stroke-width:0.8;"/>
     </g>
     <g id="line2d_44">
      <g>
       <use style="stroke:#000000;stroke-width:0.8;" x="76.5" xlink:href="#md38750a069" y="60.48"/>
      </g>
     </g>
     <g id="text_23">
      <!-- 1.0 -->
      <g transform="translate(53.596875 64.279219)scale(0.1 -0.1)">
       <use xlink:href="#DejaVuSans-49"/>
       <use x="63.623047" xlink:href="#DejaVuSans-46"/>
       <use x="95.410156" xlink:href="#DejaVuSans-48"/>
      </g>
     </g>
    </g>
    <g id="text_24">
     <!-- #correct/829 -->
     <defs>
      <path d="M 51.125 44 
L 36.921875 44 
L 32.8125 27.6875 
L 47.125 27.6875 
z
M 43.796875 71.78125 
L 38.71875 51.515625 
L 52.984375 51.515625 
L 58.109375 71.78125 
L 65.921875 71.78125 
L 60.890625 51.515625 
L 76.125 51.515625 
L 76.125 44 
L 58.984375 44 
L 54.984375 27.6875 
L 70.515625 27.6875 
L 70.515625 20.21875 
L 53.078125 20.21875 
L 48 0 
L 40.1875 0 
L 45.21875 20.21875 
L 30.90625 20.21875 
L 25.875 0 
L 18.015625 0 
L 23.09375 20.21875 
L 7.71875 20.21875 
L 7.71875 27.6875 
L 24.90625 27.6875 
L 29 44 
L 13.28125 44 
L 13.28125 51.515625 
L 30.90625 51.515625 
L 35.890625 71.78125 
z
" id="DejaVuSans-35"/>
      <path d="M 18.3125 70.21875 
L 18.3125 54.6875 
L 36.8125 54.6875 
L 36.8125 47.703125 
L 18.3125 47.703125 
L 18.3125 18.015625 
Q 18.3125 11.328125 20.140625 9.421875 
Q 21.96875 7.515625 27.59375 7.515625 
L 36.8125 7.515625 
L 36.8125 0 
L 27.59375 0 
Q 17.1875 0 13.234375 3.875 
Q 9.28125 7.765625 9.28125 18.015625 
L 9.28125 47.703125 
L 2.6875 47.703125 
L 2.6875 54.6875 
L 9.28125 54.6875 
L 9.28125 70.21875 
z
" id="DejaVuSans-116"/>
      <path d="M 25.390625 72.90625 
L 33.6875 72.90625 
L 8.296875 -9.28125 
L 0 -9.28125 
z
" id="DejaVuSans-47"/>
     </defs>
     <g transform="translate(47.517187 287.641094)rotate(-90)scale(0.1 -0.1)">
      <use xlink:href="#DejaVuSans-35"/>
      <use x="83.789062" xlink:href="#DejaVuSans-99"/>
      <use x="138.769531" xlink:href="#DejaVuSans-111"/>
      <use x="199.951172" xlink:href="#DejaVuSans-114"/>
      <use x="241.048828" xlink:href="#DejaVuSans-114"/>
      <use x="282.130859" xlink:href="#DejaVuSans-101"/>
      <use x="343.654297" xlink:href="#DejaVuSans-99"/>
      <use x="398.634766" xlink:href="#DejaVuSans-116"/>
      <use x="437.84375" xlink:href="#DejaVuSans-47"/>
      <use x="471.535156" xlink:href="#DejaVuSans-56"/>
      <use x="535.158203" xlink:href="#DejaVuSans-50"/>
      <use x="598.78125" xlink:href="#DejaVuSans-57"/>
     </g>
    </g>
   </g>
   <g id="line2d_45">
    <path clip-path="url(#p95eb3e7a6d)" d="M 76.5 448.09187 
L 76.5 381.61737 
L 79.79375 381.61737 
L 79.726531 380.212979 
L 82.909459 380.212979 
L 82.113018 370.382244 
L 81.364615 358.210856 
L 80.678855 343.230688 
L 80.502532 338.549385 
L 82.478571 338.549385 
L 82.036576 329.65491 
L 83.853488 329.65491 
L 83.526667 324.037346 
L 85.250923 324.037346 
L 84.326733 309.057177 
L 84.052548 303.907744 
L 85.534286 303.907744 
L 84.584659 286.586924 
L 84.339669 281.437491 
L 85.621154 281.437491 
L 85.596164 280.969361 
L 86.867213 280.969361 
L 86.645455 277.224318 
L 87.8832 277.224318 
L 87.587532 272.543016 
L 88.787565 272.543016 
L 87.819809 257.094717 
L 88.922143 257.094717 
L 88.577083 251.477153 
L 89.644573 251.477153 
L 89.204464 244.455199 
L 90.232517 244.455199 
L 89.962664 240.242027 
L 90.966667 240.242027 
L 90.935217 239.773896 
L 92.925974 239.773896 
L 92.82 238.369505 
L 93.80279 238.369505 
L 93.193789 230.411291 
L 94.139256 230.411291 
L 94.030595 229.0069 
L 94.966598 229.0069 
L 94.274556 220.112425 
L 95.173228 220.112425 
L 94.707294 214.026731 
L 96.451434 214.026731 
L 96.187925 210.749819 
L 97.044068 210.749819 
L 96.814525 207.941037 
L 97.658364 207.941037 
L 97.58 207.004777 
L 98.417745 207.004777 
L 98.256881 205.132256 
L 99.085714 205.132256 
L 99.003285 204.195995 
L 99.82623 204.195995 
L 99.615704 201.855344 
L 100.428649 201.855344 
L 100.342729 200.919083 
L 101.15 200.919083 
L 100.716021 196.23778 
L 101.50703 196.23778 
L 101.463158 195.76965 
L 102.250088 195.76965 
L 101.938235 192.492738 
L 103.486034 192.492738 
L 103.34717 191.088347 
L 104.113356 191.088347 
L 103.832542 188.279566 
L 104.588832 188.279566 
L 104.494098 187.343305 
L 105.994286 187.343305 
L 105.944799 186.875175 
L 106.68995 186.875175 
L 106.639465 186.407045 
L 107.380968 186.407045 
L 106.97397 182.662002 
L 107.703947 182.662002 
L 107.550736 181.257612 
L 109.71645 181.257612 
L 109.662439 180.789481 
L 110.378571 180.789481 
L 110.323663 180.321351 
L 111.036408 180.321351 
L 110.75923 177.9807 
L 111.464423 177.9807 
L 110.967299 173.767527 
L 111.661041 173.767527 
L 111.440596 171.895006 
L 112.128169 171.895006 
L 111.742105 168.618094 
L 112.420711 168.618094 
L 112.036239 165.341182 
L 112.706107 165.341182 
L 112.650915 164.873052 
L 113.317808 164.873052 
L 113.150455 163.468661 
L 113.812557 163.468661 
L 113.7 162.5324 
L 114.358283 162.5324 
L 114.244595 161.59614 
L 114.8991 161.59614 
L 114.841617 161.12801 
L 115.493274 161.12801 
L 115.089497 157.851098 
L 115.733087 157.851098 
L 115.445455 155.510446 
L 116.08287 155.510446 
L 115.967299 154.574186 
L 117.233188 154.574186 
L 117.056087 153.169795 
L 119.556052 153.169795 
L 119.370732 151.765404 
L 119.988825 151.765404 
L 119.435219 147.552232 
L 120.652045 147.552232 
L 120.589859 147.084101 
L 121.194937 147.084101 
L 121.132163 146.615971 
L 122.934965 146.615971 
L 122.805439 145.67971 
L 124.58875 145.67971 
L 124.45554 144.74345 
L 125.045228 144.74345 
L 124.91131 143.807189 
L 125.497934 143.807189 
L 125.363324 142.870929 
L 127.109302 142.870929 
L 127.040164 142.402799 
L 128.194823 142.402799 
L 128.12449 141.934668 
L 129.271506 141.934668 
L 128.915903 139.594017 
L 130.614765 139.594017 
L 130.111037 136.317105 
L 130.669721 136.317105 
L 130.526225 135.380844 
L 131.082143 135.380844 
L 130.652362 132.572063 
L 131.203014 132.572063 
L 130.988773 131.167672 
L 133.16961 131.167672 
L 133.022798 130.231411 
L 133.56326 130.231411 
L 133.489535 129.763281 
L 135.100772 129.763281 
L 135.02545 129.295151 
L 136.091538 129.295151 
L 136.015237 128.827021 
L 136.545652 128.827021 
L 136.392474 127.89076 
L 137.446947 127.89076 
L 137.292259 126.954499 
L 138.339114 126.954499 
L 138.260936 126.486369 
L 138.781818 126.486369 
L 138.624937 125.550109 
L 139.143396 125.550109 
L 139.064698 125.081978 
L 139.581305 125.081978 
L 139.03209 121.805066 
L 141.070545 121.805066 
L 140.752463 119.932545 
L 141.759951 119.932545 
L 141.520318 118.528154 
L 142.02066 118.528154 
L 141.860854 117.591894 
L 142.855839 117.591894 
L 142.614545 116.187503 
L 143.108717 116.187503 
L 142.787711 114.314982 
L 143.76851 114.314982 
L 143.607194 113.378721 
L 144.09485 113.378721 
L 144.013995 112.910591 
L 144.984845 112.910591 
L 144.740547 111.5062 
L 145.222803 111.5062 
L 145.141281 111.03807 
L 146.10142 111.03807 
L 146.019149 110.56994 
L 147.44947 110.56994 
L 147.116764 108.697419 
L 147.589461 108.697419 
L 147.423364 107.761158 
L 147.894049 107.761158 
L 147.810839 107.293028 
L 148.748023 107.293028 
L 148.496871 105.888637 
L 151.733793 105.888637 
L 151.561239 104.952376 
L 152.018557 104.952376 
L 151.845943 104.016116 
L 152.30137 104.016116 
L 152.214937 103.547986 
L 152.668907 103.547986 
L 152.582253 103.079855 
L 154.386183 103.079855 
L 154.298077 102.611725 
L 155.193115 102.611725 
L 154.839438 100.739204 
L 155.727242 100.739204 
L 155.638522 100.271074 
L 158.712 100.271074 
L 158.620755 99.802943 
L 159.922235 99.802943 
L 159.830055 99.334813 
L 160.692172 99.334813 
L 160.599449 98.866683 
L 161.457033 98.866683 
L 161.363776 98.398552 
L 163.06623 98.398552 
L 162.971725 97.930422 
L 163.394656 97.930422 
L 163.3 97.462292 
L 164.981128 97.462292 
L 164.78961 96.526031 
L 166.038835 96.526031 
L 165.846071 95.589771 
L 167.085193 95.589771 
L 166.988103 95.121641 
L 167.809091 95.121641 
L 167.711538 94.65351 
L 168.528358 94.65351 
L 168.430351 94.18538 
L 168.837128 94.18538 
L 168.739001 93.71725 
L 169.549311 93.71725 
L 169.450742 93.249119 
L 171.05981 93.249119 
L 170.960169 92.780989 
L 172.157143 92.780989 
L 171.956604 91.844729 
L 176.275026 91.844729 
L 176.171739 91.376598 
L 176.945764 91.376598 
L 176.73866 90.440338 
L 181.685554 90.440338 
L 181.578659 89.972207 
L 182.327586 89.972207 
L 182.220365 89.504077 
L 183.337273 89.504077 
L 183.229465 89.035947 
L 184.338833 89.035947 
L 184.122289 88.099686 
L 187.40597 88.099686 
L 187.075893 86.695296 
L 188.871175 86.695296 
L 188.760355 86.227165 
L 189.117044 86.227165 
L 189.006201 85.759035 
L 190.071344 85.759035 
L 189.96 85.290905 
L 191.720195 85.290905 
L 191.607895 84.822774 
L 192.655102 84.822774 
L 192.54233 84.354644 
L 215.949365 84.354644 
L 215.822937 83.886514 
L 219.13061 83.886514 
L 218.875 82.950253 
L 223.566519 82.950253 
L 223.436717 82.482123 
L 236.20916 82.482123 
L 236.073814 82.013993 
L 238.980605 82.013993 
L 238.844295 81.545862 
L 241.182015 81.545862 
L 241.045008 81.077732 
L 245.114039 81.077732 
L 244.975718 80.609602 
L 247.217101 80.609602 
L 247.078194 80.141472 
L 253.133254 80.141472 
L 252.99251 79.673341 
L 273.126597 79.673341 
L 272.980624 79.205211 
L 282.924052 79.205211 
L 282.776395 78.737081 
L 288.407143 78.737081 
L 288.258852 78.268951 
L 310.767179 78.268951 
L 310.767179 78.268951 
" style="fill:none;stroke:#1f77b4;stroke-linecap:square;stroke-width:2;"/>
   </g>
   <g id="line2d_46">
    <path clip-path="url(#p95eb3e7a6d)" d="M 76.5 448.09187 
L 76.5 447.155609 
L 195.075 447.155609 
L 171.36 446.687479 
L 155.55 446.219349 
L 144.257143 445.751218 
L 129.2 444.814958 
L 119.618182 443.878697 
L 112.984615 442.942437 
L 108.12 442.006176 
L 104.4 441.069916 
L 101.463158 440.133655 
L 99.085714 439.197394 
L 97.121739 438.261134 
L 116.025 438.261134 
L 111.633333 436.856743 
L 108.12 435.452352 
L 105.245455 434.047961 
L 102.85 432.643571 
L 100.823077 431.23918 
L 98.560465 429.366659 
L 96.682979 427.494138 
L 95.1 425.621616 
L 93.439286 423.280965 
L 92.05082 420.940314 
L 90.658209 418.131532 
L 90.45 417.663402 
L 97.121739 417.663402 
L 95.472 414.85462 
L 94.066667 412.045838 
L 92.669318 408.768926 
L 92.31 407.832666 
L 97.348352 407.832666 
L 96.9 406.896405 
L 101.728723 406.896405 
L 99.980198 403.619493 
L 99.524272 402.683233 
L 103.863462 402.683233 
L 102.137838 399.406321 
L 101.463158 398.00193 
L 105.370435 398.00193 
L 103.492683 394.256888 
L 101.652273 390.043715 
L 100.046809 385.830543 
L 98.487417 381.14924 
L 101.463158 381.14924 
L 99.778528 375.999807 
L 98.182286 370.382244 
L 98.059091 369.914113 
L 100.616949 369.914113 
L 98.966842 363.82842 
L 97.425 357.274596 
L 95.903182 349.784511 
L 97.961538 349.784511 
L 96.428571 341.826297 
L 95.173228 334.336212 
L 98.732812 334.336212 
L 97.196727 325.441737 
L 96.682979 322.164825 
L 98.287633 322.164825 
L 97.983972 320.292304 
L 99.55625 320.292304 
L 98.857576 316.079131 
L 100.374161 316.079131 
L 99.230032 309.057177 
L 100.668153 309.057177 
L 100.51519 308.120917 
L 101.935647 308.120917 
L 100.284956 297.822051 
L 99.736599 294.077008 
L 101.032759 294.077008 
L 99.82623 285.650663 
L 101.055041 285.650663 
L 100.403714 280.969361 
L 101.595238 280.969361 
L 100.215 270.670495 
L 102.456716 270.670495 
L 101.463158 263.18041 
L 102.535561 263.18041 
L 101.988084 258.967238 
L 104.075581 258.967238 
L 104.011601 258.499107 
L 105.045833 258.499107 
L 104.848966 257.094717 
L 105.871789 257.094717 
L 104.83208 249.604632 
L 105.816556 249.604632 
L 105.496507 247.263981 
L 106.466667 247.263981 
L 105.518354 240.242027 
L 106.455789 240.242027 
L 105.717659 234.624463 
L 106.629713 234.624463 
L 106.024699 229.94316 
L 106.916032 229.94316 
L 106.734263 228.53877 
L 107.617097 228.53877 
L 107.310827 226.198118 
L 108.182122 226.198118 
L 107.752326 222.921206 
L 109.462934 222.921206 
L 109.147801 220.580555 
L 109.990649 220.580555 
L 109.8 219.176164 
L 110.635227 219.176164 
L 110.570699 218.708034 
L 112.228814 218.708034 
L 112.094747 217.771773 
L 112.916292 217.771773 
L 112.645539 215.899252 
L 113.458442 215.899252 
L 112.785246 211.217949 
L 114.375136 211.217949 
L 114.238156 210.281689 
L 115.026173 210.281689 
L 114.956757 209.813559 
L 116.521724 209.813559 
L 116.45 209.345428 
L 117.227013 209.345428 
L 117.081818 208.409168 
L 117.853559 208.409168 
L 117.780107 207.941037 
L 118.547872 207.941037 
L 118.473451 207.472907 
L 119.237279 207.472907 
L 118.35 201.855344 
L 119.096891 201.855344 
L 118.87732 200.450953 
L 119.618182 200.450953 
L 119.470769 199.514692 
L 120.940375 199.514692 
L 120.565034 197.174041 
L 122.013636 197.174041 
L 121.483527 193.897129 
L 122.196678 193.897129 
L 122.120896 193.428999 
L 122.830629 193.428999 
L 122.75405 192.960869 
L 123.460396 192.960869 
L 123.229064 191.556478 
L 123.93 191.556478 
L 123.697879 190.152087 
L 124.393485 190.152087 
L 123.853623 186.875175 
L 124.540032 186.875175 
L 124.462921 186.407045 
L 125.146154 186.407045 
L 125.06832 185.938914 
L 125.748403 185.938914 
L 125.591561 185.002654 
L 126.941429 185.002654 
L 126.781804 184.066393 
L 127.451659 184.066393 
L 127.371293 183.598263 
L 128.03811 183.598263 
L 127.715493 181.725742 
L 129.035569 181.725742 
L 128.953738 181.257612 
L 130.26382 181.257612 
L 129.2 175.171918 
L 129.840729 175.171918 
L 129.438462 172.831267 
L 130.705714 172.831267 
L 130.624324 172.363136 
L 131.254273 172.363136 
L 130.927869 170.490615 
L 131.552679 170.490615 
L 131.389318 169.554355 
L 132.010667 169.554355 
L 131.92855 169.086224 
L 132.547267 169.086224 
L 131.811953 164.873052 
L 132.421834 164.873052 
L 132.340552 164.404922 
L 132.947896 164.404922 
L 132.380172 161.12801 
L 132.980488 161.12801 
L 132.818884 160.191749 
L 133.416 160.191749 
L 133.092614 158.319228 
L 133.685106 158.319228 
L 133.604108 157.851098 
L 134.782627 157.851098 
L 134.700423 157.382967 
L 135.870886 157.382967 
L 135.7875 156.914837 
L 136.369565 156.914837 
L 136.035565 155.042316 
L 136.613231 155.042316 
L 136.529624 154.574186 
L 137.105 154.574186 
L 136.770166 152.701665 
L 137.341241 152.701665 
L 137.257438 152.233534 
L 137.826272 152.233534 
L 137.407377 149.892883 
L 138.533787 149.892883 
L 138.197561 148.020362 
L 138.755886 148.020362 
L 138.089157 144.27532 
L 138.640909 144.27532 
L 138.557944 143.807189 
L 139.1076 143.807189 
L 138.446834 140.062147 
L 140.072405 140.062147 
L 139.988976 139.594017 
L 140.527392 139.594017 
L 140.443586 139.125887 
L 141.515013 139.125887 
L 141.345703 138.189626 
L 141.878153 138.189626 
L 141.70856 137.253366 
L 142.238472 137.253366 
L 142.068605 136.317105 
L 142.596 136.317105 
L 142.341131 134.912714 
L 142.865469 134.912714 
L 142.61087 133.508323 
L 143.652168 133.508323 
L 143.566624 133.040193 
L 144.084733 133.040193 
L 143.998856 132.572063 
L 144.515102 132.572063 
L 144.428897 132.103932 
L 144.943291 132.103932 
L 144.856764 131.635802 
L 145.88058 131.635802 
L 145.793199 131.167672 
L 147.317691 131.167672 
L 147.140426 130.231411 
L 147.645 130.231411 
L 147.55618 129.763281 
L 148.058978 129.763281 
L 147.969863 129.295151 
L 148.470896 129.295151 
L 148.381491 128.827021 
L 149.37881 128.827021 
L 149.19864 127.89076 
L 149.694444 127.89076 
L 149.514163 126.954499 
L 150.007749 126.954499 
L 149.917445 126.486369 
L 150.9 126.486369 
L 150.718093 125.550109 
L 152.180024 125.550109 
L 151.630955 122.741327 
L 153.073735 122.741327 
L 152.981588 122.273197 
L 153.459736 122.273197 
L 153.27518 121.336936 
L 153.751257 121.336936 
L 153.658852 120.868806 
L 154.133333 120.868806 
L 154.040692 120.400676 
L 155.456005 120.400676 
L 155.268683 119.464415 
L 156.204852 119.464415 
L 156.110638 118.996285 
L 157.041509 118.996285 
L 156.757579 117.591894 
L 157.681477 117.591894 
L 157.491579 116.655633 
L 159.32305 116.655633 
L 159.226744 116.187503 
L 160.135267 116.187503 
L 159.845202 114.783112 
L 161.644764 114.783112 
L 161.546897 114.314982 
L 162.884536 114.314982 
L 162.785698 113.846852 
L 164.553417 113.846852 
L 164.353295 112.910591 
L 165.229592 112.910591 
L 165.129105 112.442461 
L 165.565385 112.442461 
L 165.464746 111.974331 
L 168.059596 111.974331 
L 167.752349 110.56994 
L 170.306 110.56994 
L 170.201887 110.101809 
L 170.623836 110.101809 
L 170.519601 109.633679 
L 171.778808 109.633679 
L 171.568943 108.697419 
L 172.817783 108.697419 
L 172.712171 108.229288 
L 173.126287 108.229288 
L 172.704798 106.356767 
L 177.18653 106.356767 
L 176.97 105.420507 
L 177.371536 105.420507 
L 177.263305 104.952376 
L 178.461818 104.952376 
L 178.352885 104.484246 
L 180.331881 104.484246 
L 180.221656 104.016116 
L 180.614634 104.016116 
L 180.504343 103.547986 
L 187.81028 103.547986 
L 187.694813 103.079855 
L 188.446584 103.079855 
L 188.330817 102.611725 
L 189.451856 102.611725 
L 189.33553 102.143595 
L 190.07852 102.143595 
L 189.845538 101.207334 
L 190.215369 101.207334 
L 190.098976 100.739204 
L 194.114879 100.739204 
L 193.995956 100.271074 
L 195.790744 100.271074 
L 195.670854 99.802943 
L 196.738377 99.802943 
L 196.618018 99.334813 
L 199.082505 99.334813 
L 198.960775 98.866683 
L 200.005842 98.866683 
L 199.761759 97.930422 
L 201.143799 97.930422 
L 200.77684 96.526031 
L 209.158621 96.526031 
L 209.031675 96.057901 
L 211.628205 96.057901 
L 211.5 95.589771 
L 213.101983 95.589771 
L 212.844486 94.65351 
L 216 94.65351 
L 215.869869 94.18538 
L 217.114963 94.18538 
L 216.984401 93.71725 
L 219.750829 93.71725 
L 219.619043 93.249119 
L 222.638013 93.249119 
L 222.504918 92.780989 
L 223.101818 92.780989 
L 222.968665 92.312859 
L 227.084933 92.312859 
L 226.95 91.844729 
L 232.090476 91.844729 
L 231.953392 91.376598 
L 232.793937 91.376598 
L 232.656716 90.908468 
L 235.699826 90.908468 
L 235.561512 90.440338 
L 236.925 90.440338 
L 236.786344 89.972207 
L 237.868217 89.972207 
L 237.729346 89.504077 
L 241.719201 89.504077 
L 241.578947 89.035947 
L 242.103051 89.035947 
L 241.962828 88.567817 
L 246.090977 88.567817 
L 245.949416 88.099686 
L 246.20367 88.099686 
L 246.06225 87.631556 
L 249.576524 87.631556 
L 249.434074 87.163426 
L 252.13801 87.163426 
L 251.994866 86.695296 
L 257.022837 86.695296 
L 256.878303 86.227165 
L 258.748926 86.227165 
L 258.604054 85.759035 
L 263.176761 85.759035 
L 263.030805 85.290905 
L 268.547853 85.290905 
L 268.40069 84.822774 
L 272.453248 84.822774 
L 272.305358 84.354644 
L 276.242411 84.354644 
L 276.093903 83.886514 
L 314.408637 83.886514 
L 314.408637 83.886514 
" style="fill:none;stroke:#ff7f0e;stroke-linecap:square;stroke-width:2;"/>
   </g>
   <g id="line2d_47">
    <path clip-path="url(#p95eb3e7a6d)" d="M 76.5 448.09187 
L 76.5 437.793004 
L 96.2625 437.793004 
L 94.066667 436.388613 
L 92.31 434.984222 
L 90.872727 433.579831 
L 89.318919 431.70731 
L 88.068293 429.834789 
L 86.81087 427.494138 
L 85.8 425.153486 
L 84.821053 422.344704 
L 83.910938 419.067793 
L 82.99726 414.85462 
L 82.214458 410.173317 
L 81.440625 404.087624 
L 80.734821 396.597539 
L 80.093182 387.234934 
L 79.501899 375.063546 
L 78.970313 359.147117 
L 78.501266 338.081255 
L 78.484519 337.144994 
L 80.4525 337.144994 
L 79.840141 316.547262 
L 79.281818 289.863836 
L 79.135 280.969361 
L 80.441551 280.969361 
L 79.832319 250.072762 
L 79.824533 249.604632 
L 80.922378 249.604632 
L 80.881524 247.732111 
L 81.964286 247.732111 
L 81.482143 228.070639 
L 82.466038 228.070639 
L 82.441127 227.134379 
L 83.416875 227.134379 
L 83.048521 214.494861 
L 83.969291 214.494861 
L 83.896491 212.15421 
L 84.804864 212.15421 
L 84.756673 210.749819 
L 85.656371 210.749819 
L 85.449057 205.132256 
L 86.325424 205.132256 
L 86.270225 203.727865 
L 87.138505 203.727865 
L 86.943303 199.046562 
L 87.792857 199.046562 
L 87.751642 198.110302 
L 88.595082 198.110302 
L 88.507595 196.23778 
L 89.342058 196.23778 
L 89.025528 189.683957 
L 89.837083 189.683957 
L 89.697913 186.875175 
L 90.498437 186.875175 
L 90.236116 181.725742 
L 91.019388 181.725742 
L 90.896965 179.38509 
L 91.671212 179.38509 
L 91.620302 178.44883 
L 92.389447 178.44883 
L 92.127677 173.767527 
L 92.882072 173.767527 
L 92.801637 172.363136 
L 94.295922 172.363136 
L 94.010273 167.681834 
L 94.742308 167.681834 
L 94.597297 165.341182 
L 95.321429 165.341182 
L 95.202681 163.468661 
L 95.920157 163.468661 
L 95.889623 163.000531 
L 97.315674 163.000531 
L 97.026121 158.787358 
L 97.726389 158.787358 
L 97.435616 154.574186 
L 98.12462 154.574186 
L 98.026475 153.169795 
L 98.710423 153.169795 
L 98.610226 151.765404 
L 99.966117 151.765404 
L 99.930988 151.297274 
L 101.276866 151.297274 
L 101.129822 149.424753 
L 102.460207 149.424753 
L 102.421861 148.956622 
L 103.083186 148.956622 
L 102.88858 146.615971 
L 103.543421 146.615971 
L 103.425328 145.21158 
L 104.723948 145.21158 
L 104.642258 144.27532 
L 105.286994 144.27532 
L 104.75617 138.189626 
L 105.38796 138.189626 
L 105.3471 137.721496 
L 106.603667 137.721496 
L 106.561268 137.253366 
L 107.186076 137.253366 
L 107.1 136.317105 
L 107.721429 136.317105 
L 107.290193 131.635802 
L 108.511983 131.635802 
L 108.293023 129.295151 
L 109.500409 129.295151 
L 109.321303 127.42263 
L 110.516103 127.42263 
L 110.424291 126.486369 
L 111.01779 126.486369 
L 110.786747 124.145718 
L 111.375 124.145718 
L 111.282 123.209457 
L 111.867244 123.209457 
L 111.540633 119.932545 
L 112.119368 119.932545 
L 112.0725 119.464415 
L 113.79751 119.464415 
L 113.748691 118.996285 
L 114.32 118.996285 
L 114.270627 118.528154 
L 114.839765 118.528154 
L 114.69039 117.123764 
L 115.256031 117.123764 
L 115.205829 116.655633 
L 115.76934 116.655633 
L 115.718605 116.187503 
L 116.839948 116.187503 
L 116.633077 114.314982 
L 117.743478 114.314982 
L 117.58586 112.910591 
L 118.137023 112.910591 
L 118.084117 112.442461 
L 120.815909 112.442461 
L 120.648679 111.03807 
L 123.870787 111.03807 
L 123.811721 110.56994 
L 124.873881 110.56994 
L 124.813789 110.101809 
L 127.443333 110.101809 
L 127.130798 107.761158 
L 127.65 107.761158 
L 127.587393 107.293028 
L 129.64933 107.293028 
L 129.584672 106.824897 
L 130.096476 106.824897 
L 129.708565 104.016116 
L 130.215904 104.016116 
L 130.151264 103.547986 
L 131.161224 103.547986 
L 131.030299 102.611725 
L 131.532416 102.611725 
L 131.466667 102.143595 
L 132.964286 102.143595 
L 132.830166 101.207334 
L 133.325979 101.207334 
L 133.258649 100.739204 
L 133.752781 100.739204 
L 133.149415 96.526031 
L 133.637895 96.526031 
L 133.571145 96.057901 
L 134.057993 96.057901 
L 133.990909 95.589771 
L 134.960233 95.589771 
L 134.892334 95.121641 
L 135.374826 95.121641 
L 135.306605 94.65351 
L 136.267283 94.65351 
L 136.129412 93.71725 
L 136.607143 93.71725 
L 136.331422 91.844729 
L 137.279863 91.844729 
L 137.2104 91.376598 
L 137.682534 91.376598 
L 137.47372 89.972207 
L 137.943409 89.972207 
L 137.873666 89.504077 
L 138.808947 89.504077 
L 138.738462 89.035947 
L 141.056018 89.035947 
L 140.983483 88.567817 
L 141.902354 88.567817 
L 141.75604 87.631556 
L 142.669085 87.631556 
L 142.521715 86.695296 
L 143.881132 86.695296 
L 143.80643 86.227165 
L 144.257143 86.227165 
L 144.18219 85.759035 
L 144.631492 85.759035 
L 144.556291 85.290905 
L 145.89703 85.290905 
L 145.820769 84.822774 
L 148.912214 84.822774 
L 148.754625 83.886514 
L 150.496966 83.886514 
L 150.416883 83.418384 
L 150.84973 83.418384 
L 150.68932 82.482123 
L 151.120474 82.482123 
L 150.96 81.545862 
L 151.818026 81.545862 
L 151.737299 81.077732 
L 152.590909 81.077732 
L 152.509615 80.609602 
L 154.62593 80.609602 
L 154.542994 80.141472 
L 157.465859 80.141472 
L 157.295584 79.205211 
L 165.003402 79.205211 
L 164.912255 78.737081 
L 165.705447 78.737081 
L 165.522462 77.80082 
L 168.268839 77.80082 
L 168.175483 77.33269 
L 170.880909 77.33269 
L 170.785671 76.86456 
L 173.451102 76.86456 
L 173.354054 76.396429 
L 188.582421 76.396429 
L 188.474856 75.928299 
L 190.205158 75.928299 
L 190.09666 75.460169 
L 195.520771 75.460169 
L 195.409014 74.992039 
L 208.583544 74.992039 
L 208.464228 74.523908 
L 226.065039 74.523908 
L 225.936986 74.055778 
L 234.07212 74.055778 
L 233.8095 73.119517 
L 235.386567 73.119517 
L 235.25493 72.651387 
L 243.9 72.651387 
L 243.765217 72.183257 
L 253.808411 72.183257 
L 253.670428 71.715127 
L 270.879545 71.715127 
L 270.737143 71.246996 
L 277.152326 71.246996 
L 277.008798 70.778866 
L 291.125577 70.778866 
L 290.980068 70.310736 
L 297.84 70.310736 
L 297.693997 69.842606 
L 305.30499 69.842606 
L 305.30499 69.842606 
" style="fill:none;stroke:#2ca02c;stroke-linecap:square;stroke-width:2;"/>
   </g>
   <g id="patch_3">
    <path d="M 76.5 448.56 
L 76.5 60.48 
" style="fill:none;stroke:#000000;stroke-linecap:square;stroke-linejoin:miter;stroke-width:0.8;"/>
   </g>
   <g id="patch_4">
    <path d="M 550.8 448.56 
L 550.8 60.48 
" style="fill:none;stroke:#000000;stroke-linecap:square;stroke-linejoin:miter;stroke-width:0.8;"/>
   </g>
   <g id="patch_5">
    <path d="M 76.5 448.56 
L 550.8 448.56 
" style="fill:none;stroke:#000000;stroke-linecap:square;stroke-linejoin:miter;stroke-width:0.8;"/>
   </g>
   <g id="patch_6">
    <path d="M 76.5 60.48 
L 550.8 60.48 
" style="fill:none;stroke:#000000;stroke-linecap:square;stroke-linejoin:miter;stroke-width:0.8;"/>
   </g>
   <g id="text_25">
    <!-- leuven: img1-img4 -->
    <defs>
     <path d="M 9.421875 75.984375 
L 18.40625 75.984375 
L 18.40625 0 
L 9.421875 0 
z
" id="DejaVuSans-108"/>
     <path d="M 8.5 21.578125 
L 8.5 54.6875 
L 17.484375 54.6875 
L 17.484375 21.921875 
Q 17.484375 14.15625 20.5 10.265625 
Q 23.53125 6.390625 29.59375 6.390625 
Q 36.859375 6.390625 41.078125 11.03125 
Q 45.3125 15.671875 45.3125 23.6875 
L 45.3125 54.6875 
L 54.296875 54.6875 
L 54.296875 0 
L 45.3125 0 
L 45.3125 8.40625 
Q 42.046875 3.421875 37.71875 1 
Q 33.40625 -1.421875 27.6875 -1.421875 
Q 18.265625 -1.421875 13.375 4.4375 
Q 8.5 10.296875 8.5 21.578125 
z
M 31.109375 56 
z
" id="DejaVuSans-117"/>
     <path d="M 2.984375 54.6875 
L 12.5 54.6875 
L 29.59375 8.796875 
L 46.6875 54.6875 
L 56.203125 54.6875 
L 35.6875 0 
L 23.484375 0 
z
" id="DejaVuSans-118"/>
     <path d="M 11.71875 12.40625 
L 22.015625 12.40625 
L 22.015625 0 
L 11.71875 0 
z
M 11.71875 51.703125 
L 22.015625 51.703125 
L 22.015625 39.3125 
L 11.71875 39.3125 
z
" id="DejaVuSans-58"/>
     <path id="DejaVuSans-32"/>
     <path d="M 52 44.1875 
Q 55.375 50.25 60.0625 53.125 
Q 64.75 56 71.09375 56 
Q 79.640625 56 84.28125 50.015625 
Q 88.921875 44.046875 88.921875 33.015625 
L 88.921875 0 
L 79.890625 0 
L 79.890625 32.71875 
Q 79.890625 40.578125 77.09375 44.375 
Q 74.3125 48.1875 68.609375 48.1875 
Q 61.625 48.1875 57.5625 43.546875 
Q 53.515625 38.921875 53.515625 30.90625 
L 53.515625 0 
L 44.484375 0 
L 44.484375 32.71875 
Q 44.484375 40.625 41.703125 44.40625 
Q 38.921875 48.1875 33.109375 48.1875 
Q 26.21875 48.1875 22.15625 43.53125 
Q 18.109375 38.875 18.109375 30.90625 
L 18.109375 0 
L 9.078125 0 
L 9.078125 54.6875 
L 18.109375 54.6875 
L 18.109375 46.1875 
Q 21.1875 51.21875 25.484375 53.609375 
Q 29.78125 56 35.6875 56 
Q 41.65625 56 45.828125 52.96875 
Q 50 49.953125 52 44.1875 
z
" id="DejaVuSans-109"/>
     <path d="M 45.40625 27.984375 
Q 45.40625 37.75 41.375 43.109375 
Q 37.359375 48.484375 30.078125 48.484375 
Q 22.859375 48.484375 18.828125 43.109375 
Q 14.796875 37.75 14.796875 27.984375 
Q 14.796875 18.265625 18.828125 12.890625 
Q 22.859375 7.515625 30.078125 7.515625 
Q 37.359375 7.515625 41.375 12.890625 
Q 45.40625 18.265625 45.40625 27.984375 
z
M 54.390625 6.78125 
Q 54.390625 -7.171875 48.1875 -13.984375 
Q 42 -20.796875 29.203125 -20.796875 
Q 24.46875 -20.796875 20.265625 -20.09375 
Q 16.0625 -19.390625 12.109375 -17.921875 
L 12.109375 -9.1875 
Q 16.0625 -11.328125 19.921875 -12.34375 
Q 23.78125 -13.375 27.78125 -13.375 
Q 36.625 -13.375 41.015625 -8.765625 
Q 45.40625 -4.15625 45.40625 5.171875 
L 45.40625 9.625 
Q 42.625 4.78125 38.28125 2.390625 
Q 33.9375 0 27.875 0 
Q 17.828125 0 11.671875 7.65625 
Q 5.515625 15.328125 5.515625 27.984375 
Q 5.515625 40.671875 11.671875 48.328125 
Q 17.828125 56 27.875 56 
Q 33.9375 56 38.28125 53.609375 
Q 42.625 51.21875 45.40625 46.390625 
L 45.40625 54.6875 
L 54.390625 54.6875 
z
" id="DejaVuSans-103"/>
    </defs>
    <g transform="translate(257.074688 41.042625)scale(0.12 -0.12)">
     <use xlink:href="#DejaVuSans-108"/>
     <use x="27.783203" xlink:href="#DejaVuSans-101"/>
     <use x="89.306641" xlink:href="#DejaVuSans-117"/>
     <use x="152.685547" xlink:href="#DejaVuSans-118"/>
     <use x="211.865234" xlink:href="#DejaVuSans-101"/>
     <use x="273.388672" xlink:href="#DejaVuSans-110"/>
     <use x="336.767578" xlink:href="#DejaVuSans-58"/>
     <use x="370.458984" xlink:href="#DejaVuSans-32"/>
     <use x="402.246094" xlink:href="#DejaVuSans-105"/>
     <use x="430.029297" xlink:href="#DejaVuSans-109"/>
     <use x="527.441406" xlink:href="#DejaVuSans-103"/>
     <use x="590.917969" xlink:href="#DejaVuSans-49"/>
     <use x="654.541016" xlink:href="#DejaVuSans-45"/>
     <use x="690.625" xlink:href="#DejaVuSans-105"/>
     <use x="718.408203" xlink:href="#DejaVuSans-109"/>
     <use x="815.820312" xlink:href="#DejaVuSans-103"/>
     <use x="879.296875" xlink:href="#DejaVuSans-52"/>
    </g>
    <!-- NearestNeighbours -->
    <defs>
     <path d="M 9.8125 72.90625 
L 23.09375 72.90625 
L 55.421875 11.921875 
L 55.421875 72.90625 
L 64.984375 72.90625 
L 64.984375 0 
L 51.703125 0 
L 19.390625 60.984375 
L 19.390625 0 
L 9.8125 0 
z
" id="DejaVuSans-78"/>
     <path d="M 34.28125 27.484375 
Q 23.390625 27.484375 19.1875 25 
Q 14.984375 22.515625 14.984375 16.5 
Q 14.984375 11.71875 18.140625 8.90625 
Q 21.296875 6.109375 26.703125 6.109375 
Q 34.1875 6.109375 38.703125 11.40625 
Q 43.21875 16.703125 43.21875 25.484375 
L 43.21875 27.484375 
z
M 52.203125 31.203125 
L 52.203125 0 
L 43.21875 0 
L 43.21875 8.296875 
Q 40.140625 3.328125 35.546875 0.953125 
Q 30.953125 -1.421875 24.3125 -1.421875 
Q 15.921875 -1.421875 10.953125 3.296875 
Q 6 8.015625 6 15.921875 
Q 6 25.140625 12.171875 29.828125 
Q 18.359375 34.515625 30.609375 34.515625 
L 43.21875 34.515625 
L 43.21875 35.40625 
Q 43.21875 41.609375 39.140625 45 
Q 35.0625 48.390625 27.6875 48.390625 
Q 23 48.390625 18.546875 47.265625 
Q 14.109375 46.140625 10.015625 43.890625 
L 10.015625 52.203125 
Q 14.9375 54.109375 19.578125 55.046875 
Q 24.21875 56 28.609375 56 
Q 40.484375 56 46.34375 49.84375 
Q 52.203125 43.703125 52.203125 31.203125 
z
" id="DejaVuSans-97"/>
     <path d="M 54.890625 33.015625 
L 54.890625 0 
L 45.90625 0 
L 45.90625 32.71875 
Q 45.90625 40.484375 42.875 44.328125 
Q 39.84375 48.1875 33.796875 48.1875 
Q 26.515625 48.1875 22.3125 43.546875 
Q 18.109375 38.921875 18.109375 30.90625 
L 18.109375 0 
L 9.078125 0 
L 9.078125 75.984375 
L 18.109375 75.984375 
L 18.109375 46.1875 
Q 21.34375 51.125 25.703125 53.5625 
Q 30.078125 56 35.796875 56 
Q 45.21875 56 50.046875 50.171875 
Q 54.890625 44.34375 54.890625 33.015625 
z
" id="DejaVuSans-104"/>
     <path d="M 48.6875 27.296875 
Q 48.6875 37.203125 44.609375 42.84375 
Q 40.53125 48.484375 33.40625 48.484375 
Q 26.265625 48.484375 22.1875 42.84375 
Q 18.109375 37.203125 18.109375 27.296875 
Q 18.109375 17.390625 22.1875 11.75 
Q 26.265625 6.109375 33.40625 6.109375 
Q 40.53125 6.109375 44.609375 11.75 
Q 48.6875 17.390625 48.6875 27.296875 
z
M 18.109375 46.390625 
Q 20.953125 51.265625 25.265625 53.625 
Q 29.59375 56 35.59375 56 
Q 45.5625 56 51.78125 48.09375 
Q 58.015625 40.1875 58.015625 27.296875 
Q 58.015625 14.40625 51.78125 6.484375 
Q 45.5625 -1.421875 35.59375 -1.421875 
Q 29.59375 -1.421875 25.265625 0.953125 
Q 20.953125 3.328125 18.109375 8.203125 
L 18.109375 0 
L 9.078125 0 
L 9.078125 75.984375 
L 18.109375 75.984375 
z
" id="DejaVuSans-98"/>
    </defs>
    <g transform="translate(255.824063 54.48)scale(0.12 -0.12)">
     <use xlink:href="#DejaVuSans-78"/>
     <use x="74.804688" xlink:href="#DejaVuSans-101"/>
     <use x="136.328125" xlink:href="#DejaVuSans-97"/>
     <use x="197.607422" xlink:href="#DejaVuSans-114"/>
     <use x="238.689453" xlink:href="#DejaVuSans-101"/>
     <use x="300.212891" xlink:href="#DejaVuSans-115"/>
     <use x="352.3125" xlink:href="#DejaVuSans-116"/>
     <use x="391.521484" xlink:href="#DejaVuSans-78"/>
     <use x="466.326172" xlink:href="#DejaVuSans-101"/>
     <use x="527.849609" xlink:href="#DejaVuSans-105"/>
     <use x="555.632812" xlink:href="#DejaVuSans-103"/>
     <use x="619.109375" xlink:href="#DejaVuSans-104"/>
     <use x="682.488281" xlink:href="#DejaVuSans-98"/>
     <use x="745.964844" xlink:href="#DejaVuSans-111"/>
     <use x="807.146484" xlink:href="#DejaVuSans-117"/>
     <use x="870.525391" xlink:href="#DejaVuSans-114"/>
     <use x="911.638672" xlink:href="#DejaVuSans-115"/>
    </g>
   </g>
   <g id="legend_1">
    <g id="patch_7">
     <path d="M 362.264063 112.514375 
L 543.8 112.514375 
Q 545.8 112.514375 545.8 110.514375 
L 545.8 67.48 
Q 545.8 65.48 543.8 65.48 
L 362.264063 65.48 
Q 360.264063 65.48 360.264063 67.48 
L 360.264063 110.514375 
Q 360.264063 112.514375 362.264063 112.514375 
z
" style="fill:#ffffff;opacity:0.8;stroke:#cccccc;stroke-linejoin:miter;"/>
    </g>
    <g id="line2d_48">
     <path d="M 364.264063 73.578438 
L 384.264063 73.578438 
" style="fill:none;stroke:#1f77b4;stroke-linecap:square;stroke-width:2;"/>
    </g>
    <g id="line2d_49"/>
    <g id="text_26">
     <!-- root-cvsift AP: 90.3, %In: 50.6 -->
     <defs>
      <path d="M 37.109375 75.984375 
L 37.109375 68.5 
L 28.515625 68.5 
Q 23.6875 68.5 21.796875 66.546875 
Q 19.921875 64.59375 19.921875 59.515625 
L 19.921875 54.6875 
L 34.71875 54.6875 
L 34.71875 47.703125 
L 19.921875 47.703125 
L 19.921875 0 
L 10.890625 0 
L 10.890625 47.703125 
L 2.296875 47.703125 
L 2.296875 54.6875 
L 10.890625 54.6875 
L 10.890625 58.5 
Q 10.890625 67.625 15.140625 71.796875 
Q 19.390625 75.984375 28.609375 75.984375 
z
" id="DejaVuSans-102"/>
      <path d="M 34.1875 63.1875 
L 20.796875 26.90625 
L 47.609375 26.90625 
z
M 28.609375 72.90625 
L 39.796875 72.90625 
L 67.578125 0 
L 57.328125 0 
L 50.6875 18.703125 
L 17.828125 18.703125 
L 11.1875 0 
L 0.78125 0 
z
" id="DejaVuSans-65"/>
      <path d="M 19.671875 64.796875 
L 19.671875 37.40625 
L 32.078125 37.40625 
Q 38.96875 37.40625 42.71875 40.96875 
Q 46.484375 44.53125 46.484375 51.125 
Q 46.484375 57.671875 42.71875 61.234375 
Q 38.96875 64.796875 32.078125 64.796875 
z
M 9.8125 72.90625 
L 32.078125 72.90625 
Q 44.34375 72.90625 50.609375 67.359375 
Q 56.890625 61.8125 56.890625 51.125 
Q 56.890625 40.328125 50.609375 34.8125 
Q 44.34375 29.296875 32.078125 29.296875 
L 19.671875 29.296875 
L 19.671875 0 
L 9.8125 0 
z
" id="DejaVuSans-80"/>
      <path d="M 11.71875 12.40625 
L 22.015625 12.40625 
L 22.015625 4 
L 14.015625 -11.625 
L 7.71875 -11.625 
L 11.71875 4 
z
" id="DejaVuSans-44"/>
      <path d="M 72.703125 32.078125 
Q 68.453125 32.078125 66.03125 28.46875 
Q 63.625 24.859375 63.625 18.40625 
Q 63.625 12.0625 66.03125 8.421875 
Q 68.453125 4.78125 72.703125 4.78125 
Q 76.859375 4.78125 79.265625 8.421875 
Q 81.6875 12.0625 81.6875 18.40625 
Q 81.6875 24.8125 79.265625 28.4375 
Q 76.859375 32.078125 72.703125 32.078125 
z
M 72.703125 38.28125 
Q 80.421875 38.28125 84.953125 32.90625 
Q 89.5 27.546875 89.5 18.40625 
Q 89.5 9.28125 84.9375 3.921875 
Q 80.375 -1.421875 72.703125 -1.421875 
Q 64.890625 -1.421875 60.34375 3.921875 
Q 55.8125 9.28125 55.8125 18.40625 
Q 55.8125 27.59375 60.375 32.9375 
Q 64.9375 38.28125 72.703125 38.28125 
z
M 22.3125 68.015625 
Q 18.109375 68.015625 15.6875 64.375 
Q 13.28125 60.75 13.28125 54.390625 
Q 13.28125 47.953125 15.671875 44.328125 
Q 18.0625 40.71875 22.3125 40.71875 
Q 26.5625 40.71875 28.96875 44.328125 
Q 31.390625 47.953125 31.390625 54.390625 
Q 31.390625 60.6875 28.953125 64.34375 
Q 26.515625 68.015625 22.3125 68.015625 
z
M 66.40625 74.21875 
L 74.21875 74.21875 
L 28.609375 -1.421875 
L 20.796875 -1.421875 
z
M 22.3125 74.21875 
Q 30.03125 74.21875 34.609375 68.875 
Q 39.203125 63.53125 39.203125 54.390625 
Q 39.203125 45.171875 34.640625 39.84375 
Q 30.078125 34.515625 22.3125 34.515625 
Q 14.546875 34.515625 10.03125 39.859375 
Q 5.515625 45.21875 5.515625 54.390625 
Q 5.515625 63.484375 10.046875 68.84375 
Q 14.59375 74.21875 22.3125 74.21875 
z
" id="DejaVuSans-37"/>
      <path d="M 9.8125 72.90625 
L 19.671875 72.90625 
L 19.671875 0 
L 9.8125 0 
z
" id="DejaVuSans-73"/>
     </defs>
     <g transform="translate(392.264063 77.078438)scale(0.1 -0.1)">
      <use xlink:href="#DejaVuSans-114"/>
      <use x="41.082031" xlink:href="#DejaVuSans-111"/>
      <use x="102.263672" xlink:href="#DejaVuSans-111"/>
      <use x="163.445312" xlink:href="#DejaVuSans-116"/>
      <use x="202.654297" xlink:href="#DejaVuSans-45"/>
      <use x="238.738281" xlink:href="#DejaVuSans-99"/>
      <use x="293.71875" xlink:href="#DejaVuSans-118"/>
      <use x="352.898438" xlink:href="#DejaVuSans-115"/>
      <use x="404.998047" xlink:href="#DejaVuSans-105"/>
      <use x="432.78125" xlink:href="#DejaVuSans-102"/>
      <use x="467.970703" xlink:href="#DejaVuSans-116"/>
      <use x="507.179688" xlink:href="#DejaVuSans-32"/>
      <use x="538.966797" xlink:href="#DejaVuSans-65"/>
      <use x="607.375" xlink:href="#DejaVuSans-80"/>
      <use x="667.677734" xlink:href="#DejaVuSans-58"/>
      <use x="701.369141" xlink:href="#DejaVuSans-32"/>
      <use x="733.15625" xlink:href="#DejaVuSans-57"/>
      <use x="796.779297" xlink:href="#DejaVuSans-48"/>
      <use x="860.402344" xlink:href="#DejaVuSans-46"/>
      <use x="892.189453" xlink:href="#DejaVuSans-51"/>
      <use x="955.8125" xlink:href="#DejaVuSans-44"/>
      <use x="987.599609" xlink:href="#DejaVuSans-32"/>
      <use x="1019.386719" xlink:href="#DejaVuSans-37"/>
      <use x="1114.40625" xlink:href="#DejaVuSans-73"/>
      <use x="1143.898438" xlink:href="#DejaVuSans-110"/>
      <use x="1207.277344" xlink:href="#DejaVuSans-58"/>
      <use x="1240.96875" xlink:href="#DejaVuSans-32"/>
      <use x="1272.755859" xlink:href="#DejaVuSans-53"/>
      <use x="1336.378906" xlink:href="#DejaVuSans-48"/>
      <use x="1400.001953" xlink:href="#DejaVuSans-46"/>
      <use x="1431.789062" xlink:href="#DejaVuSans-54"/>
     </g>
    </g>
    <g id="line2d_50">
     <path d="M 364.264063 88.256563 
L 384.264063 88.256563 
" style="fill:none;stroke:#ff7f0e;stroke-linecap:square;stroke-width:2;"/>
    </g>
    <g id="line2d_51"/>
    <g id="text_27">
     <!-- tfeat AP: 85.4, %In: 49.8 -->
     <g transform="translate(392.264063 91.756563)scale(0.1 -0.1)">
      <use xlink:href="#DejaVuSans-116"/>
      <use x="39.208984" xlink:href="#DejaVuSans-102"/>
      <use x="74.414062" xlink:href="#DejaVuSans-101"/>
      <use x="135.9375" xlink:href="#DejaVuSans-97"/>
      <use x="197.216797" xlink:href="#DejaVuSans-116"/>
      <use x="236.425781" xlink:href="#DejaVuSans-32"/>
      <use x="268.212891" xlink:href="#DejaVuSans-65"/>
      <use x="336.621094" xlink:href="#DejaVuSans-80"/>
      <use x="396.923828" xlink:href="#DejaVuSans-58"/>
      <use x="430.615234" xlink:href="#DejaVuSans-32"/>
      <use x="462.402344" xlink:href="#DejaVuSans-56"/>
      <use x="526.025391" xlink:href="#DejaVuSans-53"/>
      <use x="589.648438" xlink:href="#DejaVuSans-46"/>
      <use x="621.435547" xlink:href="#DejaVuSans-52"/>
      <use x="685.058594" xlink:href="#DejaVuSans-44"/>
      <use x="716.845703" xlink:href="#DejaVuSans-32"/>
      <use x="748.632812" xlink:href="#DejaVuSans-37"/>
      <use x="843.652344" xlink:href="#DejaVuSans-73"/>
      <use x="873.144531" xlink:href="#DejaVuSans-110"/>
      <use x="936.523438" xlink:href="#DejaVuSans-58"/>
      <use x="970.214844" xlink:href="#DejaVuSans-32"/>
      <use x="1002.001953" xlink:href="#DejaVuSans-52"/>
      <use x="1065.625" xlink:href="#DejaVuSans-57"/>
      <use x="1129.248047" xlink:href="#DejaVuSans-46"/>
      <use x="1161.035156" xlink:href="#DejaVuSans-56"/>
     </g>
    </g>
    <g id="line2d_52">
     <path d="M 364.264063 102.934687 
L 384.264063 102.934687 
" style="fill:none;stroke:#2ca02c;stroke-linecap:square;stroke-width:2;"/>
    </g>
    <g id="line2d_53"/>
    <g id="text_28">
     <!-- hardnet AP: 93.9, %In: 51.8 -->
     <defs>
      <path d="M 45.40625 46.390625 
L 45.40625 75.984375 
L 54.390625 75.984375 
L 54.390625 0 
L 45.40625 0 
L 45.40625 8.203125 
Q 42.578125 3.328125 38.25 0.953125 
Q 33.9375 -1.421875 27.875 -1.421875 
Q 17.96875 -1.421875 11.734375 6.484375 
Q 5.515625 14.40625 5.515625 27.296875 
Q 5.515625 40.1875 11.734375 48.09375 
Q 17.96875 56 27.875 56 
Q 33.9375 56 38.25 53.625 
Q 42.578125 51.265625 45.40625 46.390625 
z
M 14.796875 27.296875 
Q 14.796875 17.390625 18.875 11.75 
Q 22.953125 6.109375 30.078125 6.109375 
Q 37.203125 6.109375 41.296875 11.75 
Q 45.40625 17.390625 45.40625 27.296875 
Q 45.40625 37.203125 41.296875 42.84375 
Q 37.203125 48.484375 30.078125 48.484375 
Q 22.953125 48.484375 18.875 42.84375 
Q 14.796875 37.203125 14.796875 27.296875 
z
" id="DejaVuSans-100"/>
     </defs>
     <g transform="translate(392.264063 106.434687)scale(0.1 -0.1)">
      <use xlink:href="#DejaVuSans-104"/>
      <use x="63.378906" xlink:href="#DejaVuSans-97"/>
      <use x="124.658203" xlink:href="#DejaVuSans-114"/>
      <use x="165.755859" xlink:href="#DejaVuSans-100"/>
      <use x="229.232422" xlink:href="#DejaVuSans-110"/>
      <use x="292.611328" xlink:href="#DejaVuSans-101"/>
      <use x="354.134766" xlink:href="#DejaVuSans-116"/>
      <use x="393.34375" xlink:href="#DejaVuSans-32"/>
      <use x="425.130859" xlink:href="#DejaVuSans-65"/>
      <use x="493.539062" xlink:href="#DejaVuSans-80"/>
      <use x="553.841797" xlink:href="#DejaVuSans-58"/>
      <use x="587.533203" xlink:href="#DejaVuSans-32"/>
      <use x="619.320312" xlink:href="#DejaVuSans-57"/>
      <use x="682.943359" xlink:href="#DejaVuSans-51"/>
      <use x="746.566406" xlink:href="#DejaVuSans-46"/>
      <use x="778.353516" xlink:href="#DejaVuSans-57"/>
      <use x="841.976562" xlink:href="#DejaVuSans-44"/>
      <use x="873.763672" xlink:href="#DejaVuSans-32"/>
      <use x="905.550781" xlink:href="#DejaVuSans-37"/>
      <use x="1000.570312" xlink:href="#DejaVuSans-73"/>
      <use x="1030.0625" xlink:href="#DejaVuSans-110"/>
      <use x="1093.441406" xlink:href="#DejaVuSans-58"/>
      <use x="1127.132812" xlink:href="#DejaVuSans-32"/>
      <use x="1158.919922" xlink:href="#DejaVuSans-53"/>
      <use x="1222.542969" xlink:href="#DejaVuSans-49"/>
      <use x="1286.166016" xlink:href="#DejaVuSans-46"/>
      <use x="1317.953125" xlink:href="#DejaVuSans-56"/>
     </g>
    </g>
   </g>
  </g>
 </g>
 <defs>
  <clipPath id="p95eb3e7a6d">
   <rect height="388.08" width="474.3" x="76.5" y="60.48"/>
  </clipPath>
 </defs>
</svg>
