<?xml version="1.0" encoding="utf-8" standalone="no"?>
<!DOCTYPE svg PUBLIC "-//W3C//DTD SVG 1.1//EN"
  "http://www.w3.org/Graphics/SVG/1.1/DTD/svg11.dtd">
<!-- Created with matplotlib (https://matplotlib.org/) -->
<svg height="504pt" version="1.1" viewBox="0 0 612 504" width="612pt" xmlns="http://www.w3.org/2000/svg" xmlns:xlink="http://www.w3.org/1999/xlink">
 <defs>
  <style type="text/css">
*{stroke-linecap:butt;stroke-linejoin:round;}
  </style>
 </defs>
 <g id="figure_1">
  <g id="patch_1">
   <path d="M 0 504 
L 612 504 
L 612 0 
L 0 0 
z
" style="fill:#ffffff;"/>
  </g>
  <g id="axes_1">
   <g id="patch_2">
    <path d="M 76.5 448.56 
L 550.8 448.56 
L 550.8 60.48 
L 76.5 60.48 
z
" style="fill:#ffffff;"/>
   </g>
   <g id="matplotlib.axis_1">
    <g id="xtick_1">
     <g id="line2d_1">
      <path clip-path="url(#pcbc0e6785b)" d="M 76.5 448.56 
L 76.5 60.48 
" style="fill:none;stroke:#b0b0b0;stroke-linecap:square;stroke-width:0.8;"/>
     </g>
     <g id="line2d_2">
      <defs>
       <path d="M 0 0 
L 0 3.5 
" id="m1c4b938454" style="stroke:#000000;stroke-width:0.8;"/>
      </defs>
      <g>
       <use style="stroke:#000000;stroke-width:0.8;" x="76.5" xlink:href="#m1c4b938454" y="448.56"/>
      </g>
     </g>
     <g id="text_1">
      <!-- 0.0 -->
      <defs>
       <path d="M 31.78125 66.40625 
Q 24.171875 66.40625 20.328125 58.90625 
Q 16.5 51.421875 16.5 36.375 
Q 16.5 21.390625 20.328125 13.890625 
Q 24.171875 6.390625 31.78125 6.390625 
Q 39.453125 6.390625 43.28125 13.890625 
Q 47.125 21.390625 47.125 36.375 
Q 47.125 51.421875 43.28125 58.90625 
Q 39.453125 66.40625 31.78125 66.40625 
z
M 31.78125 74.21875 
Q 44.046875 74.21875 50.515625 64.515625 
Q 56.984375 54.828125 56.984375 36.375 
Q 56.984375 17.96875 50.515625 8.265625 
Q 44.046875 -1.421875 31.78125 -1.421875 
Q 19.53125 -1.421875 13.0625 8.265625 
Q 6.59375 17.96875 6.59375 36.375 
Q 6.59375 54.828125 13.0625 64.515625 
Q 19.53125 74.21875 31.78125 74.21875 
z
" id="DejaVuSans-48"/>
       <path d="M 10.6875 12.40625 
L 21 12.40625 
L 21 0 
L 10.6875 0 
z
" id="DejaVuSans-46"/>
      </defs>
      <g transform="translate(68.548438 463.158437)scale(0.1 -0.1)">
       <use xlink:href="#DejaVuSans-48"/>
       <use x="63.623047" xlink:href="#DejaVuSans-46"/>
       <use x="95.410156" xlink:href="#DejaVuSans-48"/>
      </g>
     </g>
    </g>
    <g id="xtick_2">
     <g id="line2d_3">
      <path clip-path="url(#pcbc0e6785b)" d="M 123.93 448.56 
L 123.93 60.48 
" style="fill:none;stroke:#b0b0b0;stroke-linecap:square;stroke-width:0.8;"/>
     </g>
     <g id="line2d_4">
      <g>
       <use style="stroke:#000000;stroke-width:0.8;" x="123.93" xlink:href="#m1c4b938454" y="448.56"/>
      </g>
     </g>
     <g id="text_2">
      <!-- 0.1 -->
      <defs>
       <path d="M 12.40625 8.296875 
L 28.515625 8.296875 
L 28.515625 63.921875 
L 10.984375 60.40625 
L 10.984375 69.390625 
L 28.421875 72.90625 
L 38.28125 72.90625 
L 38.28125 8.296875 
L 54.390625 8.296875 
L 54.390625 0 
L 12.40625 0 
z
" id="DejaVuSans-49"/>
      </defs>
      <g transform="translate(115.978438 463.158437)scale(0.1 -0.1)">
       <use xlink:href="#DejaVuSans-48"/>
       <use x="63.623047" xlink:href="#DejaVuSans-46"/>
       <use x="95.410156" xlink:href="#DejaVuSans-49"/>
      </g>
     </g>
    </g>
    <g id="xtick_3">
     <g id="line2d_5">
      <path clip-path="url(#pcbc0e6785b)" d="M 171.36 448.56 
L 171.36 60.48 
" style="fill:none;stroke:#b0b0b0;stroke-linecap:square;stroke-width:0.8;"/>
     </g>
     <g id="line2d_6">
      <g>
       <use style="stroke:#000000;stroke-width:0.8;" x="171.36" xlink:href="#m1c4b938454" y="448.56"/>
      </g>
     </g>
     <g id="text_3">
      <!-- 0.2 -->
      <defs>
       <path d="M 19.1875 8.296875 
L 53.609375 8.296875 
L 53.609375 0 
L 7.328125 0 
L 7.328125 8.296875 
Q 12.9375 14.109375 22.625 23.890625 
Q 32.328125 33.6875 34.8125 36.53125 
Q 39.546875 41.84375 41.421875 45.53125 
Q 43.3125 49.21875 43.3125 52.78125 
Q 43.3125 58.59375 39.234375 62.25 
Q 35.15625 65.921875 28.609375 65.921875 
Q 23.96875 65.921875 18.8125 64.3125 
Q 13.671875 62.703125 7.8125 59.421875 
L 7.8125 69.390625 
Q 13.765625 71.78125 18.9375 73 
Q 24.125 74.21875 28.421875 74.21875 
Q 39.75 74.21875 46.484375 68.546875 
Q 53.21875 62.890625 53.21875 53.421875 
Q 53.21875 48.921875 51.53125 44.890625 
Q 49.859375 40.875 45.40625 35.40625 
Q 44.1875 33.984375 37.640625 27.21875 
Q 31.109375 20.453125 19.1875 8.296875 
z
" id="DejaVuSans-50"/>
      </defs>
      <g transform="translate(163.408438 463.158437)scale(0.1 -0.1)">
       <use xlink:href="#DejaVuSans-48"/>
       <use x="63.623047" xlink:href="#DejaVuSans-46"/>
       <use x="95.410156" xlink:href="#DejaVuSans-50"/>
      </g>
     </g>
    </g>
    <g id="xtick_4">
     <g id="line2d_7">
      <path clip-path="url(#pcbc0e6785b)" d="M 218.79 448.56 
L 218.79 60.48 
" style="fill:none;stroke:#b0b0b0;stroke-linecap:square;stroke-width:0.8;"/>
     </g>
     <g id="line2d_8">
      <g>
       <use style="stroke:#000000;stroke-width:0.8;" x="218.79" xlink:href="#m1c4b938454" y="448.56"/>
      </g>
     </g>
     <g id="text_4">
      <!-- 0.3 -->
      <defs>
       <path d="M 40.578125 39.3125 
Q 47.65625 37.796875 51.625 33 
Q 55.609375 28.21875 55.609375 21.1875 
Q 55.609375 10.40625 48.1875 4.484375 
Q 40.765625 -1.421875 27.09375 -1.421875 
Q 22.515625 -1.421875 17.65625 -0.515625 
Q 12.796875 0.390625 7.625 2.203125 
L 7.625 11.71875 
Q 11.71875 9.328125 16.59375 8.109375 
Q 21.484375 6.890625 26.8125 6.890625 
Q 36.078125 6.890625 40.9375 10.546875 
Q 45.796875 14.203125 45.796875 21.1875 
Q 45.796875 27.640625 41.28125 31.265625 
Q 36.765625 34.90625 28.71875 34.90625 
L 20.21875 34.90625 
L 20.21875 43.015625 
L 29.109375 43.015625 
Q 36.375 43.015625 40.234375 45.921875 
Q 44.09375 48.828125 44.09375 54.296875 
Q 44.09375 59.90625 40.109375 62.90625 
Q 36.140625 65.921875 28.71875 65.921875 
Q 24.65625 65.921875 20.015625 65.03125 
Q 15.375 64.15625 9.8125 62.3125 
L 9.8125 71.09375 
Q 15.4375 72.65625 20.34375 73.4375 
Q 25.25 74.21875 29.59375 74.21875 
Q 40.828125 74.21875 47.359375 69.109375 
Q 53.90625 64.015625 53.90625 55.328125 
Q 53.90625 49.265625 50.4375 45.09375 
Q 46.96875 40.921875 40.578125 39.3125 
z
" id="DejaVuSans-51"/>
      </defs>
      <g transform="translate(210.838438 463.158437)scale(0.1 -0.1)">
       <use xlink:href="#DejaVuSans-48"/>
       <use x="63.623047" xlink:href="#DejaVuSans-46"/>
       <use x="95.410156" xlink:href="#DejaVuSans-51"/>
      </g>
     </g>
    </g>
    <g id="xtick_5">
     <g id="line2d_9">
      <path clip-path="url(#pcbc0e6785b)" d="M 266.22 448.56 
L 266.22 60.48 
" style="fill:none;stroke:#b0b0b0;stroke-linecap:square;stroke-width:0.8;"/>
     </g>
     <g id="line2d_10">
      <g>
       <use style="stroke:#000000;stroke-width:0.8;" x="266.22" xlink:href="#m1c4b938454" y="448.56"/>
      </g>
     </g>
     <g id="text_5">
      <!-- 0.4 -->
      <defs>
       <path d="M 37.796875 64.3125 
L 12.890625 25.390625 
L 37.796875 25.390625 
z
M 35.203125 72.90625 
L 47.609375 72.90625 
L 47.609375 25.390625 
L 58.015625 25.390625 
L 58.015625 17.1875 
L 47.609375 17.1875 
L 47.609375 0 
L 37.796875 0 
L 37.796875 17.1875 
L 4.890625 17.1875 
L 4.890625 26.703125 
z
" id="DejaVuSans-52"/>
      </defs>
      <g transform="translate(258.268438 463.158437)scale(0.1 -0.1)">
       <use xlink:href="#DejaVuSans-48"/>
       <use x="63.623047" xlink:href="#DejaVuSans-46"/>
       <use x="95.410156" xlink:href="#DejaVuSans-52"/>
      </g>
     </g>
    </g>
    <g id="xtick_6">
     <g id="line2d_11">
      <path clip-path="url(#pcbc0e6785b)" d="M 313.65 448.56 
L 313.65 60.48 
" style="fill:none;stroke:#b0b0b0;stroke-linecap:square;stroke-width:0.8;"/>
     </g>
     <g id="line2d_12">
      <g>
       <use style="stroke:#000000;stroke-width:0.8;" x="313.65" xlink:href="#m1c4b938454" y="448.56"/>
      </g>
     </g>
     <g id="text_6">
      <!-- 0.5 -->
      <defs>
       <path d="M 10.796875 72.90625 
L 49.515625 72.90625 
L 49.515625 64.59375 
L 19.828125 64.59375 
L 19.828125 46.734375 
Q 21.96875 47.46875 24.109375 47.828125 
Q 26.265625 48.1875 28.421875 48.1875 
Q 40.625 48.1875 47.75 41.5 
Q 54.890625 34.8125 54.890625 23.390625 
Q 54.890625 11.625 47.5625 5.09375 
Q 40.234375 -1.421875 26.90625 -1.421875 
Q 22.3125 -1.421875 17.546875 -0.640625 
Q 12.796875 0.140625 7.71875 1.703125 
L 7.71875 11.625 
Q 12.109375 9.234375 16.796875 8.0625 
Q 21.484375 6.890625 26.703125 6.890625 
Q 35.15625 6.890625 40.078125 11.328125 
Q 45.015625 15.765625 45.015625 23.390625 
Q 45.015625 31 40.078125 35.4375 
Q 35.15625 39.890625 26.703125 39.890625 
Q 22.75 39.890625 18.8125 39.015625 
Q 14.890625 38.140625 10.796875 36.28125 
z
" id="DejaVuSans-53"/>
      </defs>
      <g transform="translate(305.698438 463.158437)scale(0.1 -0.1)">
       <use xlink:href="#DejaVuSans-48"/>
       <use x="63.623047" xlink:href="#DejaVuSans-46"/>
       <use x="95.410156" xlink:href="#DejaVuSans-53"/>
      </g>
     </g>
    </g>
    <g id="xtick_7">
     <g id="line2d_13">
      <path clip-path="url(#pcbc0e6785b)" d="M 361.08 448.56 
L 361.08 60.48 
" style="fill:none;stroke:#b0b0b0;stroke-linecap:square;stroke-width:0.8;"/>
     </g>
     <g id="line2d_14">
      <g>
       <use style="stroke:#000000;stroke-width:0.8;" x="361.08" xlink:href="#m1c4b938454" y="448.56"/>
      </g>
     </g>
     <g id="text_7">
      <!-- 0.6 -->
      <defs>
       <path d="M 33.015625 40.375 
Q 26.375 40.375 22.484375 35.828125 
Q 18.609375 31.296875 18.609375 23.390625 
Q 18.609375 15.53125 22.484375 10.953125 
Q 26.375 6.390625 33.015625 6.390625 
Q 39.65625 6.390625 43.53125 10.953125 
Q 47.40625 15.53125 47.40625 23.390625 
Q 47.40625 31.296875 43.53125 35.828125 
Q 39.65625 40.375 33.015625 40.375 
z
M 52.59375 71.296875 
L 52.59375 62.3125 
Q 48.875 64.0625 45.09375 64.984375 
Q 41.3125 65.921875 37.59375 65.921875 
Q 27.828125 65.921875 22.671875 59.328125 
Q 17.53125 52.734375 16.796875 39.40625 
Q 19.671875 43.65625 24.015625 45.921875 
Q 28.375 48.1875 33.59375 48.1875 
Q 44.578125 48.1875 50.953125 41.515625 
Q 57.328125 34.859375 57.328125 23.390625 
Q 57.328125 12.15625 50.6875 5.359375 
Q 44.046875 -1.421875 33.015625 -1.421875 
Q 20.359375 -1.421875 13.671875 8.265625 
Q 6.984375 17.96875 6.984375 36.375 
Q 6.984375 53.65625 15.1875 63.9375 
Q 23.390625 74.21875 37.203125 74.21875 
Q 40.921875 74.21875 44.703125 73.484375 
Q 48.484375 72.75 52.59375 71.296875 
z
" id="DejaVuSans-54"/>
      </defs>
      <g transform="translate(353.128438 463.158437)scale(0.1 -0.1)">
       <use xlink:href="#DejaVuSans-48"/>
       <use x="63.623047" xlink:href="#DejaVuSans-46"/>
       <use x="95.410156" xlink:href="#DejaVuSans-54"/>
      </g>
     </g>
    </g>
    <g id="xtick_8">
     <g id="line2d_15">
      <path clip-path="url(#pcbc0e6785b)" d="M 408.51 448.56 
L 408.51 60.48 
" style="fill:none;stroke:#b0b0b0;stroke-linecap:square;stroke-width:0.8;"/>
     </g>
     <g id="line2d_16">
      <g>
       <use style="stroke:#000000;stroke-width:0.8;" x="408.51" xlink:href="#m1c4b938454" y="448.56"/>
      </g>
     </g>
     <g id="text_8">
      <!-- 0.7 -->
      <defs>
       <path d="M 8.203125 72.90625 
L 55.078125 72.90625 
L 55.078125 68.703125 
L 28.609375 0 
L 18.3125 0 
L 43.21875 64.59375 
L 8.203125 64.59375 
z
" id="DejaVuSans-55"/>
      </defs>
      <g transform="translate(400.558438 463.158437)scale(0.1 -0.1)">
       <use xlink:href="#DejaVuSans-48"/>
       <use x="63.623047" xlink:href="#DejaVuSans-46"/>
       <use x="95.410156" xlink:href="#DejaVuSans-55"/>
      </g>
     </g>
    </g>
    <g id="xtick_9">
     <g id="line2d_17">
      <path clip-path="url(#pcbc0e6785b)" d="M 455.94 448.56 
L 455.94 60.48 
" style="fill:none;stroke:#b0b0b0;stroke-linecap:square;stroke-width:0.8;"/>
     </g>
     <g id="line2d_18">
      <g>
       <use style="stroke:#000000;stroke-width:0.8;" x="455.94" xlink:href="#m1c4b938454" y="448.56"/>
      </g>
     </g>
     <g id="text_9">
      <!-- 0.8 -->
      <defs>
       <path d="M 31.78125 34.625 
Q 24.75 34.625 20.71875 30.859375 
Q 16.703125 27.09375 16.703125 20.515625 
Q 16.703125 13.921875 20.71875 10.15625 
Q 24.75 6.390625 31.78125 6.390625 
Q 38.8125 6.390625 42.859375 10.171875 
Q 46.921875 13.96875 46.921875 20.515625 
Q 46.921875 27.09375 42.890625 30.859375 
Q 38.875 34.625 31.78125 34.625 
z
M 21.921875 38.8125 
Q 15.578125 40.375 12.03125 44.71875 
Q 8.5 49.078125 8.5 55.328125 
Q 8.5 64.0625 14.71875 69.140625 
Q 20.953125 74.21875 31.78125 74.21875 
Q 42.671875 74.21875 48.875 69.140625 
Q 55.078125 64.0625 55.078125 55.328125 
Q 55.078125 49.078125 51.53125 44.71875 
Q 48 40.375 41.703125 38.8125 
Q 48.828125 37.15625 52.796875 32.3125 
Q 56.78125 27.484375 56.78125 20.515625 
Q 56.78125 9.90625 50.3125 4.234375 
Q 43.84375 -1.421875 31.78125 -1.421875 
Q 19.734375 -1.421875 13.25 4.234375 
Q 6.78125 9.90625 6.78125 20.515625 
Q 6.78125 27.484375 10.78125 32.3125 
Q 14.796875 37.15625 21.921875 38.8125 
z
M 18.3125 54.390625 
Q 18.3125 48.734375 21.84375 45.5625 
Q 25.390625 42.390625 31.78125 42.390625 
Q 38.140625 42.390625 41.71875 45.5625 
Q 45.3125 48.734375 45.3125 54.390625 
Q 45.3125 60.0625 41.71875 63.234375 
Q 38.140625 66.40625 31.78125 66.40625 
Q 25.390625 66.40625 21.84375 63.234375 
Q 18.3125 60.0625 18.3125 54.390625 
z
" id="DejaVuSans-56"/>
      </defs>
      <g transform="translate(447.988438 463.158437)scale(0.1 -0.1)">
       <use xlink:href="#DejaVuSans-48"/>
       <use x="63.623047" xlink:href="#DejaVuSans-46"/>
       <use x="95.410156" xlink:href="#DejaVuSans-56"/>
      </g>
     </g>
    </g>
    <g id="xtick_10">
     <g id="line2d_19">
      <path clip-path="url(#pcbc0e6785b)" d="M 503.37 448.56 
L 503.37 60.48 
" style="fill:none;stroke:#b0b0b0;stroke-linecap:square;stroke-width:0.8;"/>
     </g>
     <g id="line2d_20">
      <g>
       <use style="stroke:#000000;stroke-width:0.8;" x="503.37" xlink:href="#m1c4b938454" y="448.56"/>
      </g>
     </g>
     <g id="text_10">
      <!-- 0.9 -->
      <defs>
       <path d="M 10.984375 1.515625 
L 10.984375 10.5 
Q 14.703125 8.734375 18.5 7.8125 
Q 22.3125 6.890625 25.984375 6.890625 
Q 35.75 6.890625 40.890625 13.453125 
Q 46.046875 20.015625 46.78125 33.40625 
Q 43.953125 29.203125 39.59375 26.953125 
Q 35.25 24.703125 29.984375 24.703125 
Q 19.046875 24.703125 12.671875 31.3125 
Q 6.296875 37.9375 6.296875 49.421875 
Q 6.296875 60.640625 12.9375 67.421875 
Q 19.578125 74.21875 30.609375 74.21875 
Q 43.265625 74.21875 49.921875 64.515625 
Q 56.59375 54.828125 56.59375 36.375 
Q 56.59375 19.140625 48.40625 8.859375 
Q 40.234375 -1.421875 26.421875 -1.421875 
Q 22.703125 -1.421875 18.890625 -0.6875 
Q 15.09375 0.046875 10.984375 1.515625 
z
M 30.609375 32.421875 
Q 37.25 32.421875 41.125 36.953125 
Q 45.015625 41.5 45.015625 49.421875 
Q 45.015625 57.28125 41.125 61.84375 
Q 37.25 66.40625 30.609375 66.40625 
Q 23.96875 66.40625 20.09375 61.84375 
Q 16.21875 57.28125 16.21875 49.421875 
Q 16.21875 41.5 20.09375 36.953125 
Q 23.96875 32.421875 30.609375 32.421875 
z
" id="DejaVuSans-57"/>
      </defs>
      <g transform="translate(495.418438 463.158437)scale(0.1 -0.1)">
       <use xlink:href="#DejaVuSans-48"/>
       <use x="63.623047" xlink:href="#DejaVuSans-46"/>
       <use x="95.410156" xlink:href="#DejaVuSans-57"/>
      </g>
     </g>
    </g>
    <g id="xtick_11">
     <g id="line2d_21">
      <path clip-path="url(#pcbc0e6785b)" d="M 550.8 448.56 
L 550.8 60.48 
" style="fill:none;stroke:#b0b0b0;stroke-linecap:square;stroke-width:0.8;"/>
     </g>
     <g id="line2d_22">
      <g>
       <use style="stroke:#000000;stroke-width:0.8;" x="550.8" xlink:href="#m1c4b938454" y="448.56"/>
      </g>
     </g>
     <g id="text_11">
      <!-- 1.0 -->
      <g transform="translate(542.848438 463.158437)scale(0.1 -0.1)">
       <use xlink:href="#DejaVuSans-49"/>
       <use x="63.623047" xlink:href="#DejaVuSans-46"/>
       <use x="95.410156" xlink:href="#DejaVuSans-48"/>
      </g>
     </g>
    </g>
    <g id="text_12">
     <!-- 1-precision -->
     <defs>
      <path d="M 4.890625 31.390625 
L 31.203125 31.390625 
L 31.203125 23.390625 
L 4.890625 23.390625 
z
" id="DejaVuSans-45"/>
      <path d="M 18.109375 8.203125 
L 18.109375 -20.796875 
L 9.078125 -20.796875 
L 9.078125 54.6875 
L 18.109375 54.6875 
L 18.109375 46.390625 
Q 20.953125 51.265625 25.265625 53.625 
Q 29.59375 56 35.59375 56 
Q 45.5625 56 51.78125 48.09375 
Q 58.015625 40.1875 58.015625 27.296875 
Q 58.015625 14.40625 51.78125 6.484375 
Q 45.5625 -1.421875 35.59375 -1.421875 
Q 29.59375 -1.421875 25.265625 0.953125 
Q 20.953125 3.328125 18.109375 8.203125 
z
M 48.6875 27.296875 
Q 48.6875 37.203125 44.609375 42.84375 
Q 40.53125 48.484375 33.40625 48.484375 
Q 26.265625 48.484375 22.1875 42.84375 
Q 18.109375 37.203125 18.109375 27.296875 
Q 18.109375 17.390625 22.1875 11.75 
Q 26.265625 6.109375 33.40625 6.109375 
Q 40.53125 6.109375 44.609375 11.75 
Q 48.6875 17.390625 48.6875 27.296875 
z
" id="DejaVuSans-112"/>
      <path d="M 41.109375 46.296875 
Q 39.59375 47.171875 37.8125 47.578125 
Q 36.03125 48 33.890625 48 
Q 26.265625 48 22.1875 43.046875 
Q 18.109375 38.09375 18.109375 28.8125 
L 18.109375 0 
L 9.078125 0 
L 9.078125 54.6875 
L 18.109375 54.6875 
L 18.109375 46.1875 
Q 20.953125 51.171875 25.484375 53.578125 
Q 30.03125 56 36.53125 56 
Q 37.453125 56 38.578125 55.875 
Q 39.703125 55.765625 41.0625 55.515625 
z
" id="DejaVuSans-114"/>
      <path d="M 56.203125 29.59375 
L 56.203125 25.203125 
L 14.890625 25.203125 
Q 15.484375 15.921875 20.484375 11.0625 
Q 25.484375 6.203125 34.421875 6.203125 
Q 39.59375 6.203125 44.453125 7.46875 
Q 49.3125 8.734375 54.109375 11.28125 
L 54.109375 2.78125 
Q 49.265625 0.734375 44.1875 -0.34375 
Q 39.109375 -1.421875 33.890625 -1.421875 
Q 20.796875 -1.421875 13.15625 6.1875 
Q 5.515625 13.8125 5.515625 26.8125 
Q 5.515625 40.234375 12.765625 48.109375 
Q 20.015625 56 32.328125 56 
Q 43.359375 56 49.78125 48.890625 
Q 56.203125 41.796875 56.203125 29.59375 
z
M 47.21875 32.234375 
Q 47.125 39.59375 43.09375 43.984375 
Q 39.0625 48.390625 32.421875 48.390625 
Q 24.90625 48.390625 20.390625 44.140625 
Q 15.875 39.890625 15.1875 32.171875 
z
" id="DejaVuSans-101"/>
      <path d="M 48.78125 52.59375 
L 48.78125 44.1875 
Q 44.96875 46.296875 41.140625 47.34375 
Q 37.3125 48.390625 33.40625 48.390625 
Q 24.65625 48.390625 19.8125 42.84375 
Q 14.984375 37.3125 14.984375 27.296875 
Q 14.984375 17.28125 19.8125 11.734375 
Q 24.65625 6.203125 33.40625 6.203125 
Q 37.3125 6.203125 41.140625 7.25 
Q 44.96875 8.296875 48.78125 10.40625 
L 48.78125 2.09375 
Q 45.015625 0.34375 40.984375 -0.53125 
Q 36.96875 -1.421875 32.421875 -1.421875 
Q 20.0625 -1.421875 12.78125 6.34375 
Q 5.515625 14.109375 5.515625 27.296875 
Q 5.515625 40.671875 12.859375 48.328125 
Q 20.21875 56 33.015625 56 
Q 37.15625 56 41.109375 55.140625 
Q 45.0625 54.296875 48.78125 52.59375 
z
" id="DejaVuSans-99"/>
      <path d="M 9.421875 54.6875 
L 18.40625 54.6875 
L 18.40625 0 
L 9.421875 0 
z
M 9.421875 75.984375 
L 18.40625 75.984375 
L 18.40625 64.59375 
L 9.421875 64.59375 
z
" id="DejaVuSans-105"/>
      <path d="M 44.28125 53.078125 
L 44.28125 44.578125 
Q 40.484375 46.53125 36.375 47.5 
Q 32.28125 48.484375 27.875 48.484375 
Q 21.1875 48.484375 17.84375 46.4375 
Q 14.5 44.390625 14.5 40.28125 
Q 14.5 37.15625 16.890625 35.375 
Q 19.28125 33.59375 26.515625 31.984375 
L 29.59375 31.296875 
Q 39.15625 29.25 43.1875 25.515625 
Q 47.21875 21.78125 47.21875 15.09375 
Q 47.21875 7.46875 41.1875 3.015625 
Q 35.15625 -1.421875 24.609375 -1.421875 
Q 20.21875 -1.421875 15.453125 -0.5625 
Q 10.6875 0.296875 5.421875 2 
L 5.421875 11.28125 
Q 10.40625 8.6875 15.234375 7.390625 
Q 20.0625 6.109375 24.8125 6.109375 
Q 31.15625 6.109375 34.5625 8.28125 
Q 37.984375 10.453125 37.984375 14.40625 
Q 37.984375 18.0625 35.515625 20.015625 
Q 33.0625 21.96875 24.703125 23.78125 
L 21.578125 24.515625 
Q 13.234375 26.265625 9.515625 29.90625 
Q 5.8125 33.546875 5.8125 39.890625 
Q 5.8125 47.609375 11.28125 51.796875 
Q 16.75 56 26.8125 56 
Q 31.78125 56 36.171875 55.265625 
Q 40.578125 54.546875 44.28125 53.078125 
z
" id="DejaVuSans-115"/>
      <path d="M 30.609375 48.390625 
Q 23.390625 48.390625 19.1875 42.75 
Q 14.984375 37.109375 14.984375 27.296875 
Q 14.984375 17.484375 19.15625 11.84375 
Q 23.34375 6.203125 30.609375 6.203125 
Q 37.796875 6.203125 41.984375 11.859375 
Q 46.1875 17.53125 46.1875 27.296875 
Q 46.1875 37.015625 41.984375 42.703125 
Q 37.796875 48.390625 30.609375 48.390625 
z
M 30.609375 56 
Q 42.328125 56 49.015625 48.375 
Q 55.71875 40.765625 55.71875 27.296875 
Q 55.71875 13.875 49.015625 6.21875 
Q 42.328125 -1.421875 30.609375 -1.421875 
Q 18.84375 -1.421875 12.171875 6.21875 
Q 5.515625 13.875 5.515625 27.296875 
Q 5.515625 40.765625 12.171875 48.375 
Q 18.84375 56 30.609375 56 
z
" id="DejaVuSans-111"/>
      <path d="M 54.890625 33.015625 
L 54.890625 0 
L 45.90625 0 
L 45.90625 32.71875 
Q 45.90625 40.484375 42.875 44.328125 
Q 39.84375 48.1875 33.796875 48.1875 
Q 26.515625 48.1875 22.3125 43.546875 
Q 18.109375 38.921875 18.109375 30.90625 
L 18.109375 0 
L 9.078125 0 
L 9.078125 54.6875 
L 18.109375 54.6875 
L 18.109375 46.1875 
Q 21.34375 51.125 25.703125 53.5625 
Q 30.078125 56 35.796875 56 
Q 45.21875 56 50.046875 50.171875 
Q 54.890625 44.34375 54.890625 33.015625 
z
" id="DejaVuSans-110"/>
     </defs>
     <g transform="translate(286 476.836563)scale(0.1 -0.1)">
      <use xlink:href="#DejaVuSans-49"/>
      <use x="63.623047" xlink:href="#DejaVuSans-45"/>
      <use x="99.707031" xlink:href="#DejaVuSans-112"/>
      <use x="163.183594" xlink:href="#DejaVuSans-114"/>
      <use x="204.265625" xlink:href="#DejaVuSans-101"/>
      <use x="265.789062" xlink:href="#DejaVuSans-99"/>
      <use x="320.769531" xlink:href="#DejaVuSans-105"/>
      <use x="348.552734" xlink:href="#DejaVuSans-115"/>
      <use x="400.652344" xlink:href="#DejaVuSans-105"/>
      <use x="428.435547" xlink:href="#DejaVuSans-111"/>
      <use x="489.617188" xlink:href="#DejaVuSans-110"/>
     </g>
    </g>
   </g>
   <g id="matplotlib.axis_2">
    <g id="ytick_1">
     <g id="line2d_23">
      <path clip-path="url(#pcbc0e6785b)" d="M 76.5 448.56 
L 550.8 448.56 
" style="fill:none;stroke:#b0b0b0;stroke-linecap:square;stroke-width:0.8;"/>
     </g>
     <g id="line2d_24">
      <defs>
       <path d="M 0 0 
L -3.5 0 
" id="m5d2d1042d0" style="stroke:#000000;stroke-width:0.8;"/>
      </defs>
      <g>
       <use style="stroke:#000000;stroke-width:0.8;" x="76.5" xlink:href="#m5d2d1042d0" y="448.56"/>
      </g>
     </g>
     <g id="text_13">
      <!-- 0.0 -->
      <g transform="translate(53.596875 452.359219)scale(0.1 -0.1)">
       <use xlink:href="#DejaVuSans-48"/>
       <use x="63.623047" xlink:href="#DejaVuSans-46"/>
       <use x="95.410156" xlink:href="#DejaVuSans-48"/>
      </g>
     </g>
    </g>
    <g id="ytick_2">
     <g id="line2d_25">
      <path clip-path="url(#pcbc0e6785b)" d="M 76.5 409.752 
L 550.8 409.752 
" style="fill:none;stroke:#b0b0b0;stroke-linecap:square;stroke-width:0.8;"/>
     </g>
     <g id="line2d_26">
      <g>
       <use style="stroke:#000000;stroke-width:0.8;" x="76.5" xlink:href="#m5d2d1042d0" y="409.752"/>
      </g>
     </g>
     <g id="text_14">
      <!-- 0.1 -->
      <g transform="translate(53.596875 413.551219)scale(0.1 -0.1)">
       <use xlink:href="#DejaVuSans-48"/>
       <use x="63.623047" xlink:href="#DejaVuSans-46"/>
       <use x="95.410156" xlink:href="#DejaVuSans-49"/>
      </g>
     </g>
    </g>
    <g id="ytick_3">
     <g id="line2d_27">
      <path clip-path="url(#pcbc0e6785b)" d="M 76.5 370.944 
L 550.8 370.944 
" style="fill:none;stroke:#b0b0b0;stroke-linecap:square;stroke-width:0.8;"/>
     </g>
     <g id="line2d_28">
      <g>
       <use style="stroke:#000000;stroke-width:0.8;" x="76.5" xlink:href="#m5d2d1042d0" y="370.944"/>
      </g>
     </g>
     <g id="text_15">
      <!-- 0.2 -->
      <g transform="translate(53.596875 374.743219)scale(0.1 -0.1)">
       <use xlink:href="#DejaVuSans-48"/>
       <use x="63.623047" xlink:href="#DejaVuSans-46"/>
       <use x="95.410156" xlink:href="#DejaVuSans-50"/>
      </g>
     </g>
    </g>
    <g id="ytick_4">
     <g id="line2d_29">
      <path clip-path="url(#pcbc0e6785b)" d="M 76.5 332.136 
L 550.8 332.136 
" style="fill:none;stroke:#b0b0b0;stroke-linecap:square;stroke-width:0.8;"/>
     </g>
     <g id="line2d_30">
      <g>
       <use style="stroke:#000000;stroke-width:0.8;" x="76.5" xlink:href="#m5d2d1042d0" y="332.136"/>
      </g>
     </g>
     <g id="text_16">
      <!-- 0.3 -->
      <g transform="translate(53.596875 335.935219)scale(0.1 -0.1)">
       <use xlink:href="#DejaVuSans-48"/>
       <use x="63.623047" xlink:href="#DejaVuSans-46"/>
       <use x="95.410156" xlink:href="#DejaVuSans-51"/>
      </g>
     </g>
    </g>
    <g id="ytick_5">
     <g id="line2d_31">
      <path clip-path="url(#pcbc0e6785b)" d="M 76.5 293.328 
L 550.8 293.328 
" style="fill:none;stroke:#b0b0b0;stroke-linecap:square;stroke-width:0.8;"/>
     </g>
     <g id="line2d_32">
      <g>
       <use style="stroke:#000000;stroke-width:0.8;" x="76.5" xlink:href="#m5d2d1042d0" y="293.328"/>
      </g>
     </g>
     <g id="text_17">
      <!-- 0.4 -->
      <g transform="translate(53.596875 297.127219)scale(0.1 -0.1)">
       <use xlink:href="#DejaVuSans-48"/>
       <use x="63.623047" xlink:href="#DejaVuSans-46"/>
       <use x="95.410156" xlink:href="#DejaVuSans-52"/>
      </g>
     </g>
    </g>
    <g id="ytick_6">
     <g id="line2d_33">
      <path clip-path="url(#pcbc0e6785b)" d="M 76.5 254.52 
L 550.8 254.52 
" style="fill:none;stroke:#b0b0b0;stroke-linecap:square;stroke-width:0.8;"/>
     </g>
     <g id="line2d_34">
      <g>
       <use style="stroke:#000000;stroke-width:0.8;" x="76.5" xlink:href="#m5d2d1042d0" y="254.52"/>
      </g>
     </g>
     <g id="text_18">
      <!-- 0.5 -->
      <g transform="translate(53.596875 258.319219)scale(0.1 -0.1)">
       <use xlink:href="#DejaVuSans-48"/>
       <use x="63.623047" xlink:href="#DejaVuSans-46"/>
       <use x="95.410156" xlink:href="#DejaVuSans-53"/>
      </g>
     </g>
    </g>
    <g id="ytick_7">
     <g id="line2d_35">
      <path clip-path="url(#pcbc0e6785b)" d="M 76.5 215.712 
L 550.8 215.712 
" style="fill:none;stroke:#b0b0b0;stroke-linecap:square;stroke-width:0.8;"/>
     </g>
     <g id="line2d_36">
      <g>
       <use style="stroke:#000000;stroke-width:0.8;" x="76.5" xlink:href="#m5d2d1042d0" y="215.712"/>
      </g>
     </g>
     <g id="text_19">
      <!-- 0.6 -->
      <g transform="translate(53.596875 219.511219)scale(0.1 -0.1)">
       <use xlink:href="#DejaVuSans-48"/>
       <use x="63.623047" xlink:href="#DejaVuSans-46"/>
       <use x="95.410156" xlink:href="#DejaVuSans-54"/>
      </g>
     </g>
    </g>
    <g id="ytick_8">
     <g id="line2d_37">
      <path clip-path="url(#pcbc0e6785b)" d="M 76.5 176.904 
L 550.8 176.904 
" style="fill:none;stroke:#b0b0b0;stroke-linecap:square;stroke-width:0.8;"/>
     </g>
     <g id="line2d_38">
      <g>
       <use style="stroke:#000000;stroke-width:0.8;" x="76.5" xlink:href="#m5d2d1042d0" y="176.904"/>
      </g>
     </g>
     <g id="text_20">
      <!-- 0.7 -->
      <g transform="translate(53.596875 180.703219)scale(0.1 -0.1)">
       <use xlink:href="#DejaVuSans-48"/>
       <use x="63.623047" xlink:href="#DejaVuSans-46"/>
       <use x="95.410156" xlink:href="#DejaVuSans-55"/>
      </g>
     </g>
    </g>
    <g id="ytick_9">
     <g id="line2d_39">
      <path clip-path="url(#pcbc0e6785b)" d="M 76.5 138.096 
L 550.8 138.096 
" style="fill:none;stroke:#b0b0b0;stroke-linecap:square;stroke-width:0.8;"/>
     </g>
     <g id="line2d_40">
      <g>
       <use style="stroke:#000000;stroke-width:0.8;" x="76.5" xlink:href="#m5d2d1042d0" y="138.096"/>
      </g>
     </g>
     <g id="text_21">
      <!-- 0.8 -->
      <g transform="translate(53.596875 141.895219)scale(0.1 -0.1)">
       <use xlink:href="#DejaVuSans-48"/>
       <use x="63.623047" xlink:href="#DejaVuSans-46"/>
       <use x="95.410156" xlink:href="#DejaVuSans-56"/>
      </g>
     </g>
    </g>
    <g id="ytick_10">
     <g id="line2d_41">
      <path clip-path="url(#pcbc0e6785b)" d="M 76.5 99.288 
L 550.8 99.288 
" style="fill:none;stroke:#b0b0b0;stroke-linecap:square;stroke-width:0.8;"/>
     </g>
     <g id="line2d_42">
      <g>
       <use style="stroke:#000000;stroke-width:0.8;" x="76.5" xlink:href="#m5d2d1042d0" y="99.288"/>
      </g>
     </g>
     <g id="text_22">
      <!-- 0.9 -->
      <g transform="translate(53.596875 103.087219)scale(0.1 -0.1)">
       <use xlink:href="#DejaVuSans-48"/>
       <use x="63.623047" xlink:href="#DejaVuSans-46"/>
       <use x="95.410156" xlink:href="#DejaVuSans-57"/>
      </g>
     </g>
    </g>
    <g id="ytick_11">
     <g id="line2d_43">
      <path clip-path="url(#pcbc0e6785b)" d="M 76.5 60.48 
L 550.8 60.48 
" style="fill:none;stroke:#b0b0b0;stroke-linecap:square;stroke-width:0.8;"/>
     </g>
     <g id="line2d_44">
      <g>
       <use style="stroke:#000000;stroke-width:0.8;" x="76.5" xlink:href="#m5d2d1042d0" y="60.48"/>
      </g>
     </g>
     <g id="text_23">
      <!-- 1.0 -->
      <g transform="translate(53.596875 64.279219)scale(0.1 -0.1)">
       <use xlink:href="#DejaVuSans-49"/>
       <use x="63.623047" xlink:href="#DejaVuSans-46"/>
       <use x="95.410156" xlink:href="#DejaVuSans-48"/>
      </g>
     </g>
    </g>
    <g id="text_24">
     <!-- #correct/1660 -->
     <defs>
      <path d="M 51.125 44 
L 36.921875 44 
L 32.8125 27.6875 
L 47.125 27.6875 
z
M 43.796875 71.78125 
L 38.71875 51.515625 
L 52.984375 51.515625 
L 58.109375 71.78125 
L 65.921875 71.78125 
L 60.890625 51.515625 
L 76.125 51.515625 
L 76.125 44 
L 58.984375 44 
L 54.984375 27.6875 
L 70.515625 27.6875 
L 70.515625 20.21875 
L 53.078125 20.21875 
L 48 0 
L 40.1875 0 
L 45.21875 20.21875 
L 30.90625 20.21875 
L 25.875 0 
L 18.015625 0 
L 23.09375 20.21875 
L 7.71875 20.21875 
L 7.71875 27.6875 
L 24.90625 27.6875 
L 29 44 
L 13.28125 44 
L 13.28125 51.515625 
L 30.90625 51.515625 
L 35.890625 71.78125 
z
" id="DejaVuSans-35"/>
      <path d="M 18.3125 70.21875 
L 18.3125 54.6875 
L 36.8125 54.6875 
L 36.8125 47.703125 
L 18.3125 47.703125 
L 18.3125 18.015625 
Q 18.3125 11.328125 20.140625 9.421875 
Q 21.96875 7.515625 27.59375 7.515625 
L 36.8125 7.515625 
L 36.8125 0 
L 27.59375 0 
Q 17.1875 0 13.234375 3.875 
Q 9.28125 7.765625 9.28125 18.015625 
L 9.28125 47.703125 
L 2.6875 47.703125 
L 2.6875 54.6875 
L 9.28125 54.6875 
L 9.28125 70.21875 
z
" id="DejaVuSans-116"/>
      <path d="M 25.390625 72.90625 
L 33.6875 72.90625 
L 8.296875 -9.28125 
L 0 -9.28125 
z
" id="DejaVuSans-47"/>
     </defs>
     <g transform="translate(47.517187 290.822344)rotate(-90)scale(0.1 -0.1)">
      <use xlink:href="#DejaVuSans-35"/>
      <use x="83.789062" xlink:href="#DejaVuSans-99"/>
      <use x="138.769531" xlink:href="#DejaVuSans-111"/>
      <use x="199.951172" xlink:href="#DejaVuSans-114"/>
      <use x="241.048828" xlink:href="#DejaVuSans-114"/>
      <use x="282.130859" xlink:href="#DejaVuSans-101"/>
      <use x="343.654297" xlink:href="#DejaVuSans-99"/>
      <use x="398.634766" xlink:href="#DejaVuSans-116"/>
      <use x="437.84375" xlink:href="#DejaVuSans-47"/>
      <use x="471.535156" xlink:href="#DejaVuSans-49"/>
      <use x="535.158203" xlink:href="#DejaVuSans-54"/>
      <use x="598.78125" xlink:href="#DejaVuSans-54"/>
      <use x="662.404297" xlink:href="#DejaVuSans-48"/>
     </g>
    </g>
   </g>
   <g id="line2d_45">
    <path clip-path="url(#pcbc0e6785b)" d="M 550.8 448.56 
L 313.65 448.326217 
L 234.6 448.092434 
L 361.08 448.092434 
L 313.65 447.858651 
L 392.7 447.858651 
L 361.08 447.624867 
L 450.947368 447.624867 
L 432.225 447.391084 
L 437.871429 447.391084 
L 451.9875 447.391084 
L 427.833333 446.923518 
L 440.13 446.923518 
L 421.445455 446.455952 
L 441.346154 446.455952 
L 432.225 446.222169 
L 435.117073 446.222169 
L 437.871429 446.222169 
L 421.445455 445.754602 
L 424.32 445.754602 
L 441.346154 445.754602 
L 434.462264 445.520819 
L 436.616667 445.520819 
L 449.719672 445.520819 
L 443.7 445.287036 
L 445.4 445.287036 
L 454.565217 445.287036 
L 445.4 444.81947 
L 448.248649 444.81947 
L 443.292 444.585687 
L 444.706579 444.585687 
L 466.809375 444.585687 
L 462.785567 444.351904 
L 464.563636 444.351904 
L 466.271287 444.351904 
L 462.45 444.11812 
L 464.149038 444.11812 
L 468.875455 444.11812 
L 465.340541 443.884337 
L 466.853097 443.884337 
L 467.589474 443.884337 
L 462.371186 443.416771 
L 467.985714 443.416771 
L 463.236923 442.949205 
L 465.850746 442.949205 
L 462.966667 442.715422 
L 464.248905 442.715422 
L 474.3 442.715422 
L 471.75 442.481639 
L 472.750633 442.481639 
L 477.830769 442.481639 
L 475.47 442.247855 
L 476.34593 442.247855 
L 477.622286 442.247855 
L 475.343182 442.014072 
L 476.191011 442.014072 
L 480.159574 442.014072 
L 478.02381 441.780289 
L 478.785864 441.780289 
L 480.622959 441.780289 
L 478.571574 441.546506 
L 479.297487 441.546506 
L 489.73133 441.546506 
L 487.965385 441.312723 
L 488.760759 441.312723 
L 489.53625 441.312723 
L 487.822407 441.07894 
L 488.596721 441.07894 
L 489.352227 441.07894 
L 487.6875 440.845157 
L 488.441833 440.845157 
L 489.178346 440.845157 
L 487.56 440.611373 
L 488.295349 440.611373 
L 489.249618 440.611373 
L 487.680228 440.37759 
L 488.392105 440.37759 
L 490.870397 440.37759 
L 486.659786 439.676241 
L 487.113074 439.676241 
L 491.706885 439.676241 
L 490.35 439.442458 
L 490.936893 439.442458 
L 491.321865 439.442458 
L 489.992308 439.208675 
L 490.571429 439.208675 
L 494.167164 439.208675 
L 492.037168 438.741108 
L 492.21 438.741108 
L 493.556897 438.741108 
L 492.361891 438.507325 
L 492.859943 438.507325 
L 493.024079 438.507325 
L 491.847458 438.273542 
L 492.342857 438.273542 
L 503.37 438.273542 
L 501.549887 437.805976 
L 501.881166 437.805976 
L 502.530531 437.805976 
L 500.653744 437.33841 
L 501.091703 437.33841 
L 501.307826 437.33841 
L 498.891631 436.63706 
L 501.434082 436.63706 
L 500.016364 436.169494 
L 500.11875 436.169494 
L 500.220724 436.169494 
L 499.36988 435.935711 
L 499.779681 435.935711 
L 502.926729 435.935711 
L 502.131157 435.701928 
L 502.491667 435.701928 
L 503.283607 435.701928 
L 502.000181 435.234361 
L 502.088108 435.234361 
L 503.453065 435.234361 
L 502.706643 435.000578 
L 503.040625 435.000578 
L 509.119091 435.000578 
L 508.464599 434.766795 
L 508.782432 434.766795 
L 508.845427 434.766795 
L 508.198204 434.533012 
L 508.51471 434.533012 
L 508.764549 434.533012 
L 508.126991 434.299229 
L 508.439385 434.299229 
L 508.929812 434.299229 
L 508.304913 434.065446 
L 508.609756 434.065446 
L 509.323836 434.065446 
L 508.714225 433.831663 
L 509.008531 433.831663 
L 510.145714 433.831663 
L 509.556522 433.59788 
L 509.834818 433.59788 
L 510.109383 433.59788 
L 509.528916 433.364096 
L 509.803324 433.364096 
L 510.234868 433.364096 
L 509.664915 433.130313 
L 509.93342 433.130313 
L 510.145714 433.130313 
L 508.179974 432.195181 
L 508.985139 432.195181 
L 508.006015 431.727614 
L 508.166292 431.727614 
L 509.951196 431.727614 
L 509.433333 431.493831 
L 509.678979 431.493831 
L 510.864706 431.493831 
L 510.364286 431.260048 
L 510.595876 431.260048 
L 511.051189 431.260048 
L 510.559615 431.026265 
L 510.785939 431.026265 
L 515.544797 431.026265 
L 515.110099 430.792482 
L 515.320866 430.792482 
L 516.729301 430.792482 
L 516.313598 430.558699 
L 516.540056 430.558699 
L 518.04565 430.558699 
L 517.65 430.324916 
L 517.856634 430.324916 
L 518.00266 430.324916 
L 517.611603 430.091133 
L 517.816109 430.091133 
L 519.286375 430.091133 
L 518.914286 429.857349 
L 519.100752 429.857349 
L 519.415385 429.857349 
L 519.049339 429.623566 
L 519.231964 429.623566 
L 519.717233 429.623566 
L 519.358933 429.389783 
L 519.560964 429.389783 
L 522.555556 429.389783 
L 522.231858 429.156 
L 522.417231 429.156 
L 522.780854 429.156 
L 522.308481 428.688434 
L 522.328602 428.688434 
L 523.869138 428.688434 
L 523.570494 428.454651 
L 523.733112 428.454651 
L 524.585476 428.454651 
L 524.061755 427.987084 
L 524.181122 427.987084 
L 524.215032 427.987084 
L 523.930045 427.753301 
L 524.1 427.753301 
L 525.492626 427.753301 
L 525.223607 427.519518 
L 525.391071 427.519518 
L 525.54142 427.519518 
L 525.101767 427.051952 
L 525.177217 427.051952 
L 525.836842 427.051952 
L 525.337864 426.584386 
L 525.482453 426.584386 
L 526.316639 426.584386 
L 525.891466 426.116819 
L 525.972955 426.116819 
L 526.51584 426.116819 
L 526.275959 425.883036 
L 526.431833 425.883036 
L 527.704066 425.883036 
L 527.477672 425.649253 
L 527.628814 425.649253 
L 528.137201 425.649253 
L 527.917105 425.41547 
L 528.061162 425.41547 
L 528.75507 425.41547 
L 528.542844 425.181687 
L 528.688112 425.181687 
L 529.280036 425.181687 
L 528.998017 424.71412 
L 529.007838 424.71412 
L 529.231297 424.71412 
L 529.029545 424.480337 
L 529.174104 424.480337 
L 530.055669 424.480337 
L 529.863158 424.246554 
L 530.004384 424.246554 
L 530.550739 424.246554 
L 530.364423 424.012771 
L 530.50599 424.012771 
L 530.751087 424.012771 
L 530.56829 423.778988 
L 530.705755 423.778988 
L 530.833439 423.778988 
L 530.52114 423.311422 
L 530.609066 423.311422 
L 530.64085 423.311422 
L 530.462195 423.077639 
L 530.597304 423.077639 
L 530.675944 423.077639 
L 530.499222 422.843855 
L 530.632625 422.843855 
L 531.526635 422.843855 
L 531.095625 422.142506 
L 531.153409 422.142506 
L 531.345953 422.142506 
L 531.180914 421.908723 
L 531.315243 421.908723 
L 532.193599 421.908723 
L 531.970842 421.441157 
L 532.009426 421.441157 
L 532.028659 421.441157 
L 531.873295 421.207373 
L 532.001524 421.207373 
L 532.00789 421.207373 
L 531.718966 420.739807 
L 531.828 420.739807 
L 531.9861 420.739807 
L 531.834322 420.506024 
L 531.966115 420.506024 
L 532.003435 420.506024 
L 531.853054 420.272241 
L 531.983508 420.272241 
L 532.328709 420.272241 
L 532.182046 420.038458 
L 532.312907 420.038458 
L 532.476821 420.038458 
L 532.332479 419.804675 
L 532.460201 419.804675 
L 532.557692 419.804675 
L 532.41513 419.570892 
L 532.540702 419.570892 
L 532.874611 419.570892 
L 532.735558 419.337108 
L 532.861271 419.337108 
L 532.920778 419.337108 
L 532.783178 419.103325 
L 532.907246 419.103325 
L 533.029616 419.103325 
L 532.893906 418.869542 
L 533.02075 418.869542 
L 534.489115 418.869542 
L 534.242803 418.168193 
L 534.569676 418.168193 
L 534.449132 417.93441 
L 534.572969 417.93441 
L 535.070051 417.93441 
L 534.902344 417.466843 
L 534.958237 417.466843 
L 535.293142 417.466843 
L 535.110096 416.999277 
L 535.190419 416.999277 
L 535.269925 416.999277 
L 535.07037 416.531711 
L 535.168752 416.531711 
L 535.449398 416.531711 
L 535.280297 416.064145 
L 535.353022 416.064145 
L 535.661607 416.064145 
L 535.556198 415.830361 
L 535.677704 415.830361 
L 536.254107 415.830361 
L 536.153417 415.596578 
L 536.274305 415.596578 
L 536.497968 415.596578 
L 536.412028 415.129012 
L 536.421179 415.129012 
L 536.878633 415.129012 
L 536.784158 414.895229 
L 536.903927 414.895229 
L 537.002182 414.895229 
L 536.90917 414.661446 
L 537.026016 414.661446 
L 537.072754 414.661446 
L 536.980842 414.427663 
L 537.098417 414.427663 
L 537.327665 414.427663 
L 537.253802 413.960096 
L 537.266859 413.960096 
L 537.552897 413.960096 
L 537.479461 413.49253 
L 537.496896 413.49253 
L 537.511804 413.49253 
L 537.425714 413.258747 
L 537.542077 413.258747 
L 537.571463 413.258747 
L 537.413558 412.791181 
L 537.518906 412.791181 
L 537.743523 412.791181 
L 537.601346 412.323614 
L 537.695455 412.323614 
L 537.824974 412.323614 
L 537.743568 412.089831 
L 537.860021 412.089831 
L 537.983302 412.089831 
L 537.903377 411.856048 
L 538.02068 411.856048 
L 538.086136 411.856048 
L 538.035325 411.388482 
L 538.043961 411.388482 
L 538.437098 411.388482 
L 538.361383 411.154699 
L 538.476518 411.154699 
L 538.92766 411.154699 
L 538.855326 410.920916 
L 538.970054 410.920916 
L 538.973718 410.920916 
L 538.920636 410.453349 
L 538.946136 410.453349 
L 538.973336 410.453349 
L 538.931711 409.985783 
L 538.947887 409.985783 
L 539.187075 409.985783 
L 539.118427 409.752 
L 539.233407 409.752 
L 539.245289 409.752 
L 539.126633 409.284434 
L 539.224985 409.284434 
L 539.308451 409.284434 
L 539.241716 409.050651 
L 539.357216 409.050651 
L 539.467227 409.050651 
L 539.401781 408.816867 
L 539.516625 408.816867 
L 539.920092 408.816867 
L 539.896552 408.349301 
L 539.909652 408.349301 
L 540.086986 408.349301 
L 539.966684 407.881735 
L 540.079267 407.881735 
L 540.436042 407.881735 
L 540.432787 407.414169 
L 540.461035 407.414169 
L 540.42323 406.946602 
L 540.460086 406.946602 
L 540.818279 406.946602 
L 540.777225 406.479036 
L 540.821739 406.479036 
L 541.322425 406.479036 
L 541.296246 406.01147 
L 541.332726 406.01147 
L 541.383332 406.01147 
L 541.332624 405.777687 
L 541.445878 405.777687 
L 541.543639 405.777687 
L 541.49405 405.543904 
L 541.606784 405.543904 
L 542.446291 405.543904 
L 542.401694 405.31012 
L 542.514306 405.31012 
L 542.700166 405.31012 
L 542.700166 405.31012 
" style="fill:none;stroke:#1f77b4;stroke-linecap:square;stroke-width:2;"/>
   </g>
   <g id="line2d_46">
    <path clip-path="url(#pcbc0e6785b)" d="M 550.8 448.56 
L 455.94 448.326217 
L 491.5125 448.326217 
L 445.4 448.092434 
L 455.94 448.092434 
L 421.445455 447.858651 
L 432.225 447.858651 
L 441.346154 447.858651 
L 392.7 447.391084 
L 402.58125 447.391084 
L 383.4 447.157301 
L 415.285714 447.157301 
L 399.886364 446.923518 
L 406.447826 446.923518 
L 417.996 446.923518 
L 404.861538 446.689735 
L 410.266667 446.689735 
L 415.285714 446.689735 
L 403.603448 446.455952 
L 408.51 446.455952 
L 417.403125 446.455952 
L 407.072727 446.222169 
L 411.3 446.222169 
L 422.610811 446.222169 
L 413.502632 445.988386 
L 417.023077 445.988386 
L 448.5 445.988386 
L 430.069091 445.287036 
L 440.13 445.287036 
L 428.4 444.81947 
L 430.342857 444.81947 
L 435.818182 444.81947 
L 430.455224 444.585687 
L 432.225 444.585687 
L 457.043023 444.585687 
L 452.668966 444.351904 
L 453.784091 444.351904 
L 455.94 444.351904 
L 451.77033 444.11812 
L 452.846739 444.11812 
L 461.575248 444.11812 
L 457.8 443.884337 
L 459.588462 443.884337 
L 466.103571 443.884337 
L 462.655752 443.650554 
L 464.188696 443.650554 
L 477.5625 443.650554 
L 468.906475 442.949205 
L 470.068085 442.949205 
L 470.63662 442.949205 
L 466.335616 442.481639 
L 467.477027 442.481639 
L 464.85302 442.247855 
L 465.991391 442.247855 
L 468.709615 442.247855 
L 466.211465 442.014072 
L 467.275472 442.014072 
L 470.312727 442.014072 
L 467.940361 441.780289 
L 468.926786 441.780289 
L 471.293064 441.780289 
L 467.730508 441.312723 
L 468.658659 441.312723 
L 466.48 441.07894 
L 467.406593 441.07894 
L 469.2 441.07894 
L 467.1 440.845157 
L 467.985714 440.845157 
L 479.976923 440.845157 
L 478.159459 440.611373 
L 478.808036 440.611373 
L 480.379913 440.611373 
L 475.157328 439.910024 
L 475.803846 439.910024 
L 477.064286 439.910024 
L 475.388285 439.676241 
L 476.014108 439.676241 
L 477.235102 439.676241 
L 470.79759 438.741108 
L 471.43506 438.741108 
L 472.68 438.741108 
L 471.132422 438.507325 
L 471.75 438.507325 
L 472.055212 438.507325 
L 470.533846 438.273542 
L 471.146565 438.273542 
L 475.186957 438.273542 
L 473.747653 438.039759 
L 474.3 438.039759 
L 491.014286 438.039759 
L 489.219613 437.572193 
L 490.875 437.572193 
L 489.764075 437.33841 
L 490.251064 437.33841 
L 491.666494 437.33841 
L 490.590933 437.104627 
L 491.05527 437.104627 
L 492.843142 437.104627 
L 491.807463 436.870843 
L 492.244444 436.870843 
L 495.261358 436.870843 
L 494.282944 436.63706 
L 494.676334 436.63706 
L 495.446911 436.63706 
L 494.490411 436.403277 
L 494.873469 436.403277 
L 497.530886 436.403277 
L 495.838197 435.935711 
L 496.073077 435.935711 
L 499.677844 435.935711 
L 498.3083 435.468145 
L 498.923438 435.468145 
L 498.1 435.234361 
L 498.406395 435.234361 
L 499.597159 435.234361 
L 498.797353 435.000578 
L 499.187617 435.000578 
L 502.367958 435.000578 
L 501.619508 434.766795 
L 501.962827 434.766795 
L 503.208673 434.766795 
L 502.484211 434.533012 
L 502.810118 434.533012 
L 504.9 434.533012 
L 504.210145 434.299229 
L 504.50832 434.299229 
L 504.655981 434.299229 
L 503.974204 434.065446 
L 504.27057 434.065446 
L 505.349304 434.065446 
L 504.242945 433.59788 
L 504.314242 433.59788 
L 504.876853 433.59788 
L 503.867766 433.130313 
L 506.334375 433.130313 
L 505.724681 432.89653 
L 505.978984 432.89653 
L 508.876385 432.89653 
L 508.02 432.428964 
L 509.582494 432.428964 
L 509.037736 432.195181 
L 509.29875 432.195181 
L 511.180668 432.195181 
L 510.662574 431.961398 
L 510.900355 431.961398 
L 512.092759 431.961398 
L 511.592652 431.727614 
L 511.816438 431.727614 
L 511.949488 431.727614 
L 511.454659 431.493831 
L 511.676949 431.493831 
L 512.200334 431.493831 
L 511.715145 431.260048 
L 511.931561 431.260048 
L 513.140987 431.260048 
L 512.288462 430.792482 
L 512.45234 430.792482 
L 513.714815 430.792482 
L 513.265468 430.558699 
L 513.495506 430.558699 
L 515.818103 430.558699 
L 515.397703 430.324916 
L 515.59981 430.324916 
L 515.73327 430.324916 
L 515.31733 430.091133 
L 515.517797 430.091133 
L 515.944465 430.091133 
L 515.536059 429.857349 
L 515.731608 429.857349 
L 515.79631 429.857349 
L 515.08595 429.389783 
L 515.184066 429.389783 
L 516.743433 429.389783 
L 516.358268 429.156 
L 516.567913 429.156 
L 517.99425 429.156 
L 517.626644 428.922217 
L 517.818874 428.922217 
L 517.981878 428.922217 
L 517.618519 428.688434 
L 517.808592 428.688434 
L 518.2875 428.688434 
L 517.931507 428.454651 
L 518.115865 428.454651 
L 519.130901 428.454651 
L 518.469713 427.987084 
L 518.619275 427.987084 
L 518.792025 427.987084 
L 518.288957 427.519518 
L 518.704511 427.519518 
L 518.163052 427.051952 
L 518.2118 427.051952 
L 520.135488 427.051952 
L 519.823947 426.818169 
L 519.996997 426.818169 
L 520.525532 426.818169 
L 520.220988 426.584386 
L 520.387858 426.584386 
L 520.8375 426.584386 
L 520.539087 426.350602 
L 520.700802 426.350602 
L 522.191429 426.350602 
L 521.773438 425.883036 
L 521.79174 425.883036 
L 522.540111 425.883036 
L 522.266298 425.649253 
L 522.423077 425.649253 
L 524.147821 425.649253 
L 523.891289 425.41547 
L 524.044615 425.41547 
L 524.509015 425.41547 
L 524.25831 425.181687 
L 524.42069 425.181687 
L 524.938495 425.181687 
L 524.694114 424.947904 
L 524.849675 424.947904 
L 525.480603 424.947904 
L 525.243423 424.71412 
L 525.391071 424.71412 
L 526.292097 424.71412 
L 526.064354 424.480337 
L 526.213739 424.480337 
L 526.651261 424.480337 
L 526.428854 424.246554 
L 526.572495 424.246554 
L 527.455372 424.246554 
L 527.129661 423.778988 
L 527.174154 423.778988 
L 527.599354 423.778988 
L 527.391282 423.545205 
L 527.530812 423.545205 
L 527.700273 423.545205 
L 527.494995 423.311422 
L 527.642495 423.311422 
L 528.450785 423.311422 
L 528.194714 422.843855 
L 528.30194 422.843855 
L 528.107198 422.610072 
L 528.243316 422.610072 
L 528.76262 422.610072 
L 528.573389 422.376289 
L 528.712017 422.376289 
L 528.812583 422.376289 
L 528.539728 421.908723 
L 528.576326 421.908723 
L 528.658231 421.908723 
L 528.473148 421.67494 
L 528.609398 421.67494 
L 528.779612 421.67494 
L 528.597094 421.441157 
L 528.730686 421.441157 
L 529.474884 421.441157 
L 529.232601 420.97359 
L 529.257506 420.97359 
L 529.551936 420.97359 
L 529.38 420.739807 
L 529.517308 420.739807 
L 529.581316 420.739807 
L 529.411048 420.506024 
L 529.546826 420.506024 
L 529.735603 420.506024 
L 529.567925 420.272241 
L 529.700625 420.272241 
L 529.824013 420.272241 
L 529.240909 419.337108 
L 529.295647 419.337108 
L 529.648555 419.337108 
L 529.486947 419.103325 
L 529.615385 419.103325 
L 530.978507 419.103325 
L 530.827818 418.869542 
L 530.959387 418.869542 
L 531.204652 418.869542 
L 531.05678 418.635759 
L 531.184362 418.635759 
L 531.32281 418.635759 
L 531.17694 418.401976 
L 531.302008 418.401976 
L 531.419354 418.401976 
L 531.275301 418.168193 
L 531.404278 418.168193 
L 531.716435 418.168193 
L 531.575588 417.93441 
L 531.699693 417.93441 
L 531.72315 417.93441 
L 531.583425 417.700627 
L 531.712317 417.700627 
L 532.027106 417.700627 
L 531.890558 417.466843 
L 532.014443 417.466843 
L 532.403412 417.466843 
L 532.270496 417.23306 
L 532.393918 417.23306 
L 532.646272 417.23306 
L 532.490378 416.765494 
L 532.511143 416.765494 
L 532.531861 416.765494 
L 532.402746 416.531711 
L 532.526912 416.531711 
L 532.542315 416.531711 
L 532.414213 416.297928 
L 532.537333 416.297928 
L 533.152817 416.297928 
L 533.02973 416.064145 
L 533.153399 416.064145 
L 533.312546 416.064145 
L 533.191408 415.830361 
L 533.311983 415.830361 
L 533.619664 415.830361 
L 533.501423 415.596578 
L 533.625809 415.596578 
L 534.139238 415.596578 
L 534.025255 415.362795 
L 534.145549 415.362795 
L 534.369017 415.362795 
L 534.258658 414.895229 
L 534.266667 414.895229 
L 534.710671 414.895229 
L 534.602756 414.661446 
L 534.723913 414.661446 
L 534.953571 414.661446 
L 534.847961 414.427663 
L 534.968313 414.427663 
L 535.136621 414.427663 
L 534.915374 413.726313 
L 534.943886 413.726313 
L 535.02529 413.726313 
L 534.922964 413.49253 
L 535.042525 413.49253 
L 535.15686 413.49253 
L 535.056034 413.258747 
L 535.176243 413.258747 
L 535.53587 413.258747 
L 535.438057 413.024964 
L 535.558224 413.024964 
L 536.259137 413.024964 
L 536.166425 412.791181 
L 536.283517 412.791181 
L 536.573789 412.791181 
L 536.483614 412.557398 
L 536.600505 412.557398 
L 537.584476 412.557398 
L 537.441849 412.089831 
L 537.535246 412.089831 
L 538.186498 412.089831 
L 538.107806 411.856048 
L 538.22356 411.856048 
L 538.672134 411.856048 
L 538.596873 411.622265 
L 538.713 411.622265 
L 538.718846 411.622265 
L 538.644306 411.154699 
L 538.685057 411.154699 
L 538.907193 411.154699 
L 538.834738 410.920916 
L 538.94986 410.920916 
L 538.999305 410.920916 
L 538.873413 410.219566 
L 538.90078 410.219566 
L 539.00364 410.219566 
L 538.93351 409.985783 
L 539.049324 409.985783 
L 539.381923 409.985783 
L 539.298896 409.518217 
L 539.362007 409.518217 
L 539.388373 409.518217 
L 539.293152 409.050651 
L 539.370269 409.050651 
L 539.892843 409.050651 
L 539.829796 408.816867 
L 539.94353 408.816867 
L 540.020455 408.816867 
L 539.989027 408.349301 
L 540.010475 408.349301 
L 540.096825 408.349301 
L 540.036009 408.115518 
L 540.150565 408.115518 
L 540.789765 408.115518 
L 540.73313 407.881735 
L 540.84725 407.881735 
L 540.865222 407.881735 
L 540.809328 407.647952 
L 540.923453 407.647952 
L 541.216522 407.647952 
L 541.162872 407.414169 
L 541.276121 407.414169 
L 541.736287 407.414169 
L 541.685778 407.180386 
L 541.799132 407.180386 
L 541.843305 407.180386 
L 541.793663 406.946602 
L 541.906563 406.946602 
L 543.006646 406.946602 
L 543.006646 406.946602 
" style="fill:none;stroke:#ff7f0e;stroke-linecap:square;stroke-width:2;"/>
   </g>
   <g id="line2d_47">
    <path clip-path="url(#pcbc0e6785b)" d="M 76.5 448.326217 
L 76.5 448.092434 
L 313.65 448.092434 
L 234.6 447.624867 
L 279.771429 447.624867 
L 234.6 447.157301 
L 205.854545 446.689735 
L 258.923077 446.689735 
L 224.71875 445.988386 
L 260.95 445.988386 
L 234.6 445.287036 
L 227.413636 445.053253 
L 241.473913 445.053253 
L 234.6 444.81947 
L 247.248 444.81947 
L 223.696552 443.884337 
L 234.6 443.884337 
L 224.71875 443.416771 
L 234.6 443.416771 
L 217.508108 442.481639 
L 234.6 442.481639 
L 230.6475 442.247855 
L 238.456098 442.247855 
L 230.923256 441.780289 
L 251.784783 441.780289 
L 234.6 440.611373 
L 231.559615 440.37759 
L 237.583019 440.37759 
L 228.953571 439.676241 
L 240.051724 439.676241 
L 237.279661 439.442458 
L 252.45 439.442458 
L 241.786364 438.507325 
L 246.398507 438.507325 
L 241.473913 438.039759 
L 245.892857 438.039759 
L 243.507042 437.805976 
L 247.775 437.805976 
L 243.145946 437.33841 
L 255.132468 437.33841 
L 248.43375 436.63706 
L 252.166667 436.63706 
L 250.02439 436.403277 
L 253.648193 436.403277 
L 251.539286 436.169494 
L 255.06 436.169494 
L 252.983721 435.935711 
L 256.406897 435.935711 
L 254.3625 435.701928 
L 260.95 435.701928 
L 256.940217 435.234361 
L 260.1 435.234361 
L 256.234737 434.766795 
L 259.303125 434.766795 
L 257.418557 434.533012 
L 260.412245 434.533012 
L 256.734 434.065446 
L 262.5 434.065446 
L 255.481132 433.130313 
L 260.95 433.130313 
L 255.964865 432.428964 
L 258.597321 432.428964 
L 256.985841 432.195181 
L 262.095652 432.195181 
L 260.49569 431.961398 
L 262.976923 431.961398 
L 261.39661 431.727614 
L 268.571901 431.727614 
L 265.44878 431.260048 
L 267.75 431.260048 
L 266.22 431.026265 
L 268.478571 431.026265 
L 266.966929 430.792482 
L 271.367442 430.792482 
L 264.096269 429.623566 
L 268.3125 429.623566 
L 266.912409 429.389783 
L 274.965957 429.389783 
L 272.19021 428.922217 
L 277.915068 428.922217 
L 276.544898 428.688434 
L 278.397973 428.688434 
L 273.084868 427.753301 
L 276.691558 427.753301 
L 274.125 427.285735 
L 284.372222 427.285735 
L 281.837195 426.818169 
L 283.467273 426.818169 
L 280.988623 426.350602 
L 282.594643 426.350602 
L 280.17 425.883036 
L 281.752632 425.883036 
L 280.559302 425.649253 
L 282.121387 425.649253 
L 280.939655 425.41547 
L 282.481714 425.41547 
L 281.311364 425.181687 
L 282.833898 425.181687 
L 281.674719 424.947904 
L 289.027869 424.947904 
L 287.872826 424.71412 
L 292.090909 424.71412 
L 289.809524 424.246554 
L 293.8875 424.246554 
L 289.45102 423.311422 
L 290.777665 423.311422 
L 288.624121 422.843855 
L 289.935 422.843855 
L 288.873134 422.610072 
L 290.169802 422.610072 
L 289.117241 422.376289 
L 291.670244 422.376289 
L 290.625728 422.142506 
L 297.989151 422.142506 
L 296.949296 421.908723 
L 298.135514 421.908723 
L 297.104651 421.67494 
L 299.442857 421.67494 
L 298.420183 421.441157 
L 300.714545 421.441157 
L 298.694595 420.97359 
L 311.623077 420.97359 
L 310.622553 420.739807 
L 311.640254 420.739807 
L 310.648101 420.506024 
L 311.657143 420.506024 
L 310.673222 420.272241 
L 311.67375 420.272241 
L 308.77037 419.570892 
L 309.762295 419.570892 
L 308.810204 419.337108 
L 310.769636 419.337108 
L 309.825 419.103325 
L 311.7528 419.103325 
L 310.815538 418.869542 
L 311.767857 418.869542 
L 309 418.168193 
L 314.558621 418.168193 
L 311.853409 417.466843 
L 318.88125 417.466843 
L 315.368478 416.531711 
L 316.218412 416.531711 
L 314.5 416.064145 
L 315.343929 416.064145 
L 314.49395 415.830361 
L 315.331915 415.830361 
L 312.817895 415.129012 
L 314.476307 415.129012 
L 311.205155 414.19388 
L 312.840614 414.19388 
L 312.036735 413.960096 
L 314.448485 413.960096 
L 313.65 413.726313 
L 314.443144 413.726313 
L 313.65 413.49253 
L 314.437874 413.49253 
L 313.65 413.258747 
L 315.210197 413.258747 
L 312.877524 412.557398 
L 313.65 412.557398 
L 312.882524 412.323614 
L 313.65 412.323614 
L 312.88746 412.089831 
L 318.124528 412.089831 
L 316.614375 411.622265 
L 317.343925 411.622265 
L 316.595963 411.388482 
L 318.041667 411.388482 
L 317.298462 411.154699 
L 323.590419 411.154699 
L 322.852836 410.920916 
L 325.542478 410.920916 
L 324.81 410.687133 
L 327.437791 410.687133 
L 326.710435 410.453349 
L 327.358092 410.453349 
L 325.916379 409.985783 
L 326.560745 409.985783 
L 325.846286 409.752 
L 327.124432 409.752 
L 326.414448 409.518217 
L 328.305337 409.518217 
L 327.6 409.284434 
L 329.46 409.284434 
L 328.062431 408.816867 
L 329.893151 408.816867 
L 328.512262 408.349301 
L 329.717073 408.349301 
L 329.032703 408.115518 
L 330.225 408.115518 
L 328.1952 407.414169 
L 328.787234 407.414169 
L 326.790237 406.712819 
L 328.549476 406.712819 
L 327.236719 406.245253 
L 327.817403 406.245253 
L 327.166321 406.01147 
L 327.744186 406.01147 
L 327.096649 405.777687 
L 329.942748 405.777687 
L 329.299492 405.543904 
L 329.860253 405.543904 
L 329.220455 405.31012 
L 334.144444 405.31012 
L 333.509852 405.076337 
L 334.575 405.076337 
L 333.94401 404.842554 
L 334.99927 404.842554 
L 334.371845 404.608771 
L 335.936386 404.608771 
L 335.31274 404.374988 
L 335.829496 404.374988 
L 335.209091 404.141205 
L 336.235714 404.141205 
L 335.004739 403.673639 
L 335.514894 403.673639 
L 334.904009 403.439855 
L 337.42028 403.439855 
L 336.813488 403.206072 
L 338.296074 403.206072 
L 337.692857 402.972289 
L 339.155835 402.972289 
L 337.365 402.27094 
L 338.330769 402.27094 
L 337.151351 401.803373 
L 338.109417 401.803373 
L 337.524161 401.56959 
L 338.000223 401.56959 
L 337.417817 401.335807 
L 337.892 401.335807 
L 337.312417 401.102024 
L 337.784735 401.102024 
L 336.6337 400.634458 
L 337.573026 400.634458 
L 337.001751 400.400675 
L 339.772354 400.400675 
L 339.204957 400.166892 
L 340.56424 400.166892 
L 339.438166 399.699325 
L 339.887872 399.699325 
L 339.328662 399.465542 
L 339.776695 399.465542 
L 339.220085 399.231759 
L 340.553571 399.231759 
L 340 398.997976 
L 342.186722 398.997976 
L 341.636646 398.764193 
L 343.35462 398.764193 
L 342.807787 398.53041 
L 344.078615 398.53041 
L 343.534756 398.296627 
L 344.373887 398.296627 
L 343.832727 398.062843 
L 344.25 398.062843 
L 343.174699 397.595277 
L 344.417964 397.595277 
L 343.352684 397.127711 
L 344.174257 397.127711 
L 343.118343 396.660145 
L 345.547368 396.660145 
L 345.02393 396.426361 
L 345.821512 396.426361 
L 345.30058 396.192578 
L 347.658126 396.192578 
L 347.140649 395.958795 
L 349.065595 395.958795 
L 348.551321 395.725012 
L 350.441495 395.725012 
L 349.93041 395.491229 
L 350.677138 395.491229 
L 350.16846 395.257446 
L 350.910166 395.257446 
L 350.403875 395.023663 
L 355.44982 395.023663 
L 354.45 394.556096 
L 355.5 394.556096 
L 355.003559 394.322313 
L 356.387279 394.322313 
L 355.893651 394.08853 
L 356.578735 394.08853 
L 355.597723 393.620964 
L 357.627556 393.620964 
L 357.141176 393.387181 
L 357.475648 393.387181 
L 356.991207 393.153398 
L 357.324785 393.153398 
L 356.842268 392.919614 
L 357.174957 392.919614 
L 356.694349 392.685831 
L 357.686371 392.685831 
L 357.208163 392.452048 
L 357.536842 392.452048 
L 357.060508 392.218265 
L 357.388325 392.218265 
L 356.913851 391.984482 
L 357.240809 391.984482 
L 356.768182 391.750699 
L 357.419295 391.750699 
L 356.948744 391.516916 
L 358.238935 391.516916 
L 357.77093 391.283133 
L 358.091045 391.283133 
L 357.624834 391.049349 
L 358.262376 391.049349 
L 357.798188 390.815566 
L 358.43202 390.815566 
L 357.509165 390.348 
L 360.315 390.348 
L 359.402412 389.880434 
L 360.32112 389.880434 
L 359.867732 389.646651 
L 361.68038 389.646651 
L 361.229858 389.412867 
L 362.715517 389.412867 
L 362.267606 389.179084 
L 362.562188 389.179084 
L 362.115913 388.945301 
L 362.409813 388.945301 
L 361.965163 388.711518 
L 363.71094 388.711518 
L 363.269077 388.477735 
L 363.557143 388.477735 
L 363.116871 388.243952 
L 365.11047 388.243952 
L 364.237216 387.776386 
L 364.519033 387.776386 
L 364.084615 387.542602 
L 366.585268 387.542602 
L 366.154235 387.308819 
L 369.123684 387.308819 
L 368.696496 387.075036 
L 368.961953 387.075036 
L 368.111773 386.60747 
L 368.641304 386.60747 
L 368.218524 386.373687 
L 369.007781 386.373687 
L 368.586906 386.139904 
L 373.435714 386.139904 
L 373.02042 385.90612 
L 374.744044 385.90612 
L 374.331535 385.672337 
L 375.543544 385.672337 
L 374.724247 385.204771 
L 375.683787 385.204771 
L 375.276735 384.970988 
L 381.050526 384.970988 
L 380.650329 384.737205 
L 384.154054 384.737205 
L 383.758612 384.503422 
L 383.973042 384.503422 
L 384.186923 384.503422 
L 383.613793 384.035855 
L 385.09519 384.035855 
L 384.315909 383.568289 
L 384.525851 383.568289 
L 385.152513 383.568289 
L 384.765245 383.334506 
L 384.973308 383.334506 
L 387.228059 383.334506 
L 386.844444 383.100723 
L 387.046609 383.100723 
L 387.449446 383.100723 
L 387.067445 382.86694 
L 387.268344 382.86694 
L 387.46875 382.86694 
L 386.708435 382.399373 
L 386.908791 382.399373 
L 387.308039 382.399373 
L 386.929927 382.16559 
L 387.12904 382.16559 
L 387.32767 382.16559 
L 386.950909 381.931807 
L 387.149274 381.931807 
L 387.347158 381.931807 
L 386.597226 381.464241 
L 386.79506 381.464241 
L 387.972129 381.464241 
L 387.6 381.230458 
L 387.794749 381.230458 
L 388.761566 381.230458 
L 388.022485 380.762892 
L 388.214894 380.762892 
L 389.170153 380.762892 
L 388.627166 380.295325 
L 389.383217 380.295325 
L 388.843902 379.827759 
L 389.964706 379.827759 
L 388.883793 379.12641 
L 389.06969 379.12641 
L 389.992808 379.12641 
L 389.278702 378.658843 
L 389.462457 378.658843 
L 390.193318 378.658843 
L 389.838462 378.42506 
L 390.020339 378.42506 
L 390.201806 378.42506 
L 389.676715 377.957494 
L 392.874311 377.957494 
L 391.831319 377.256145 
L 392.005818 377.256145 
L 394.070314 377.256145 
L 393.726623 377.022361 
L 393.896432 377.022361 
L 396.400213 377.022361 
L 395.721019 376.554795 
L 395.885472 376.554795 
L 396.213333 376.554795 
L 395.87537 376.321012 
L 396.038965 376.321012 
L 396.365121 376.321012 
L 396.028421 376.087229 
L 396.191167 376.087229 
L 397.8 376.087229 
L 397.13271 375.619663 
L 397.292116 375.619663 
L 397.609938 375.619663 
L 397.27787 375.38588 
L 397.436467 375.38588 
L 398.537538 375.38588 
L 398.207582 375.152096 
L 398.363767 375.152096 
L 400.060931 375.152096 
L 399.733771 374.918313 
L 399.886364 374.918313 
L 400.190625 374.918313 
L 399.864653 374.68453 
L 400.016499 374.68453 
L 401.369492 374.68453 
L 401.045916 374.450747 
L 401.194925 374.450747 
L 404.542121 374.450747 
L 404.223324 374.216964 
L 404.365631 374.216964 
L 405.773654 374.216964 
L 404.966379 373.515614 
L 405.937678 373.515614 
L 405.624525 373.281831 
L 405.762393 373.281831 
L 408.066729 373.281831 
L 407.581733 372.814265 
L 408.246011 372.814265 
L 407.938554 372.580482 
L 408.070833 372.580482 
L 408.202868 372.580482 
L 407.112431 371.645349 
L 408.163163 371.645349 
L 407.860274 371.411566 
L 407.990693 371.411566 
L 408.25082 371.411566 
L 407.948954 371.177783 
L 408.078818 371.177783 
L 408.724615 371.177783 
L 408.424231 370.944 
L 408.552846 370.944 
L 410.8288 370.944 
L 410.531883 370.710217 
L 410.656344 370.710217 
L 412.254474 370.710217 
L 411.96021 370.476434 
L 412.081786 370.476434 
L 412.806794 370.476434 
L 412.221913 370.008867 
L 412.342311 370.008867 
L 412.4625 370.008867 
L 411.58987 369.307518 
L 411.710294 369.307518 
L 411.83051 369.307518 
L 411.540933 369.073735 
L 411.661087 369.073735 
L 413.438842 369.073735 
L 413.152085 368.839952 
L 413.269133 368.839952 
L 413.735339 368.839952 
L 413.449788 368.606169 
L 413.56599 368.606169 
L 416.408451 368.606169 
L 416.12707 368.372386 
L 416.238462 368.372386 
L 416.792669 368.372386 
L 416.512593 368.138602 
L 416.623026 368.138602 
L 418.794175 368.138602 
L 418.517462 367.904819 
L 418.624313 367.904819 
L 419.05 367.904819 
L 418.774417 367.671036 
L 418.880547 367.671036 
L 420.140924 367.671036 
L 419.867542 367.437253 
L 419.971622 367.437253 
L 420.798341 367.437253 
L 420.526598 367.20347 
L 420.629338 367.20347 
L 421.54675 367.20347 
L 421.276761 366.969687 
L 421.37803 366.969687 
L 422.878284 366.969687 
L 422.610811 366.735904 
L 422.709722 366.735904 
L 423.787758 366.735904 
L 423.522248 366.50212 
L 423.619481 366.50212 
L 424.965306 366.50212 
L 424.439321 366.034554 
L 424.534615 366.034554 
L 424.724774 366.034554 
L 424.462754 365.800771 
L 424.557744 365.800771 
L 425.686587 365.800771 
L 425.426582 365.566988 
L 425.519866 365.566988 
L 426.445126 365.566988 
L 426.186863 365.333205 
L 426.278761 365.333205 
L 427.009091 365.333205 
L 426.752308 365.099422 
L 426.843119 365.099422 
L 427.114755 365.099422 
L 426.603282 364.631855 
L 426.693805 364.631855 
L 428.035977 364.631855 
L 427.277266 363.930506 
L 427.366068 363.930506 
L 427.98412 363.930506 
L 427.482 363.46294 
L 427.570021 363.46294 
L 427.920854 363.46294 
L 427.67091 363.229157 
L 427.758422 363.229157 
L 428.712906 363.229157 
L 428.464693 362.995373 
L 428.550845 362.995373 
L 428.894242 362.995373 
L 428.646947 362.76159 
L 428.732609 362.76159 
L 430.170686 362.76159 
L 429.925762 362.527807 
L 430.009412 362.527807 
L 430.092946 362.527807 
L 429.848583 362.294024 
L 429.932113 362.294024 
L 432.225 362.294024 
L 431.984157 362.060241 
L 432.064547 362.060241 
L 433.257468 362.060241 
L 432.859091 361.592675 
L 432.937876 361.592675 
L 433.330226 361.592675 
L 433.092814 361.358892 
L 433.249236 361.358892 
L 433.560835 361.358892 
L 433.324371 361.125108 
L 433.479762 361.125108 
L 434.556094 361.125108 
L 434.087435 360.657542 
L 434.24 360.657542 
L 434.543937 360.657542 
L 434.310684 360.423759 
L 434.462264 360.423759 
L 435.66085 360.423759 
L 435.42973 360.189976 
L 435.578021 360.189976 
L 436.020615 360.189976 
L 435.790595 359.956193 
L 435.937572 359.956193 
L 436.521742 359.956193 
L 436.293011 359.72241 
L 436.438325 359.72241 
L 436.8 359.72241 
L 436.57225 359.488627 
L 436.716477 359.488627 
L 438.975557 359.488627 
L 438.751391 359.254843 
L 438.889809 359.254843 
L 439.713182 359.254843 
L 439.490625 359.02106 
L 439.626867 359.02106 
L 439.830605 359.02106 
L 439.608791 358.787277 
L 439.74439 358.787277 
L 442.517479 358.787277 
L 442.3 358.553494 
L 442.428783 358.553494 
L 442.685435 358.553494 
L 442.468757 358.319711 
L 442.596809 358.319711 
L 443.295713 358.319711 
L 443.080458 358.085928 
L 443.206741 358.085928 
L 443.77137 358.085928 
L 443.557343 357.852145 
L 443.682189 357.852145 
L 445.4 357.852145 
L 445.098857 357.384578 
L 445.219521 357.384578 
L 445.009184 357.150795 
L 445.129744 357.150795 
L 447.71423 357.150795 
L 447.153744 356.449446 
L 447.211197 356.449446 
L 447.668543 356.449446 
L 447.463817 356.215663 
L 447.577686 356.215663 
L 448.813881 356.215663 
L 448.520206 355.748096 
L 448.797237 355.748096 
L 448.595669 355.514313 
L 448.70622 355.514313 
L 451.811327 355.514313 
L 451.614623 355.28053 
L 451.718482 355.28053 
L 453.949591 355.28053 
L 453.613337 354.812964 
L 453.662972 354.812964 
L 454.107422 354.812964 
L 453.915549 354.579181 
L 454.013909 354.579181 
L 454.161075 354.579181 
L 453.969757 354.345398 
L 454.067763 354.345398 
L 454.409228 354.345398 
L 454.21875 354.111614 
L 454.316012 354.111614 
L 454.895495 354.111614 
L 454.706203 353.877831 
L 454.802249 353.877831 
L 454.993766 353.877831 
L 454.805085 353.644048 
L 454.900697 353.644048 
L 455.611765 353.644048 
L 455.191966 352.942699 
L 455.426991 352.942699 
L 455.240786 352.708916 
L 455.381452 352.708916 
L 455.661546 352.708916 
L 455.476137 352.475133 
L 455.615771 352.475133 
L 455.893817 352.475133 
L 455.709197 352.241349 
L 455.847813 352.241349 
L 456.123837 352.241349 
L 455.94 352.007566 
L 456.077611 352.007566 
L 456.351639 352.007566 
L 456.168578 351.773783 
L 456.305197 351.773783 
L 456.802776 351.773783 
L 456.620813 351.54 
L 456.755805 351.54 
L 457.909722 351.54 
L 457.550071 351.072434 
L 457.68178 351.072434 
L 458.031191 351.072434 
L 457.538764 350.371084 
L 457.626006 350.371084 
L 458.016581 350.371084 
L 457.838966 350.137301 
L 457.968619 350.137301 
L 458.097911 350.137301 
L 457.920835 349.903518 
L 458.049954 349.903518 
L 458.605343 349.903518 
L 458.42942 349.669735 
L 458.556828 349.669735 
L 459.355652 349.669735 
L 458.916508 348.968386 
L 458.958273 348.968386 
L 459.124955 348.968386 
L 458.903033 348.500819 
L 460.497331 348.500819 
L 460.32659 348.267036 
L 460.447114 348.267036 
L 460.886301 348.267036 
L 460.716519 348.033253 
L 460.83573 348.033253 
L 461.23083 348.033253 
L 460.893199 347.565687 
L 461.011394 347.565687 
L 462.176471 347.565687 
L 461.843129 347.09812 
L 461.958308 347.09812 
L 462.416058 347.09812 
L 462.198972 346.630554 
L 462.426154 346.630554 
L 462.045652 345.929205 
L 462.646867 345.929205 
L 462.483453 345.695422 
L 462.595435 345.695422 
L 463.481172 345.695422 
L 463.319322 345.461639 
L 463.428947 345.461639 
L 463.574687 345.461639 
L 463.413339 345.227855 
L 463.522481 345.227855 
L 463.595092 345.227855 
L 463.434137 344.994072 
L 463.542982 344.994072 
L 463.579203 344.994072 
L 463.418589 344.760289 
L 463.527228 344.760289 
L 464.845224 344.760289 
L 464.686781 344.526506 
L 464.792054 344.526506 
L 465.69375 344.526506 
L 465.414539 344.05894 
L 465.48326 344.05894 
L 465.75704 344.05894 
L 465.600962 343.825157 
L 465.703324 343.825157 
L 468.120467 343.825157 
L 467.968145 343.591373 
L 468.096816 343.591373 
L 468.128921 343.591373 
L 467.97695 343.35759 
L 468.105308 343.35759 
L 468.772713 343.35759 
L 468.622013 343.123807 
L 468.748101 343.123807 
L 469.650797 343.123807 
L 469.501706 342.890024 
L 469.624839 342.890024 
L 469.778231 342.890024 
L 469.629656 342.656241 
L 469.752131 342.656241 
L 470.897471 342.656241 
L 470.750855 342.422458 
L 470.86971 342.422458 
L 471.604634 342.422458 
L 471.459375 342.188675 
L 471.575881 342.188675 
L 473.366738 342.188675 
L 473.22439 341.954892 
L 473.33553 341.954892 
L 473.363265 341.954892 
L 473.221224 341.721108 
L 473.33213 341.721108 
L 473.442719 341.721108 
L 473.301106 341.487325 
L 473.411543 341.487325 
L 474.148836 341.487325 
L 474.008571 341.253542 
L 474.116766 341.253542 
L 474.865678 341.253542 
L 474.726778 341.019759 
L 474.83273 341.019759 
L 475.017437 341.019759 
L 474.879063 340.785976 
L 474.984362 340.785976 
L 475.350621 340.785976 
L 475.179855 340.31841 
L 475.2319 340.31841 
L 475.094737 340.084627 
L 475.198763 340.084627 
L 475.405961 340.084627 
L 475.269349 339.850843 
L 475.372674 339.850843 
L 477.11156 339.850843 
L 476.977756 339.61706 
L 477.100834 339.61706 
L 478.094803 339.61706 
L 477.962743 339.383277 
L 478.082305 339.383277 
L 478.768098 339.383277 
L 478.637321 339.149494 
L 478.75443 339.149494 
L 480.46654 339.149494 
L 480.338581 338.915711 
L 480.45 338.915711 
L 480.516682 338.915711 
L 480.389071 338.681928 
L 480.500095 338.681928 
L 480.809105 338.681928 
L 480.555381 338.214361 
L 480.665414 338.214361 
L 481.102117 338.214361 
L 480.97619 337.980578 
L 481.08468 337.980578 
L 482.151316 337.980578 
L 482.027225 337.746795 
L 482.132254 337.746795 
L 483.489162 337.746795 
L 483.366667 337.279229 
L 484.573306 337.279229 
L 484.453636 337.045446 
L 484.57017 337.045446 
L 484.628283 337.045446 
L 484.508947 336.811663 
L 484.625044 336.811663 
L 485.764028 336.811663 
L 485.646659 336.57788 
L 485.758574 336.57788 
L 485.851544 336.57788 
L 485.734553 336.344096 
L 485.845934 336.344096 
L 486.177803 336.344096 
L 486.055565 335.87653 
L 486.220169 335.87653 
L 485.891563 335.175181 
L 485.983009 335.175181 
L 486.651785 335.175181 
L 486.537441 334.941398 
L 486.644754 334.941398 
L 486.733908 334.941398 
L 486.619922 334.707614 
L 486.726741 334.707614 
L 487.150482 334.707614 
L 487.037355 334.473831 
L 487.160077 334.473831 
L 487.869494 334.473831 
L 487.757679 334.240048 
L 487.877401 334.240048 
L 488.636317 334.240048 
L 488.525884 334.006265 
L 488.642471 334.006265 
L 488.725481 334.006265 
L 488.615407 333.772482 
L 488.731423 333.772482 
L 489.595979 333.772482 
L 489.487441 333.538699 
L 489.6 333.538699 
L 490.172408 333.538699 
L 489.973364 333.071133 
L 490.067963 333.071133 
L 490.0837 333.071133 
L 489.964003 332.603566 
L 489.979731 332.603566 
L 490.245869 332.603566 
L 490.139398 332.369783 
L 490.248472 332.369783 
L 490.604111 332.369783 
L 490.498392 332.136 
L 490.605963 332.136 
L 490.682566 332.136 
L 490.577176 331.902217 
L 490.684252 331.902217 
L 490.912424 331.902217 
L 490.763542 331.434651 
L 490.824154 331.434651 
L 491.110399 331.434651 
L 491.006278 331.200867 
L 491.126165 331.200867 
L 491.879287 331.200867 
L 491.776522 330.967084 
L 491.893111 330.967084 
L 491.907652 330.967084 
L 491.804557 330.499518 
L 491.819084 330.499518 
L 492.251601 330.499518 
L 492.15 330.265735 
L 492.264439 330.265735 
L 493.3435 330.265735 
L 493.243729 330.031952 
L 493.353727 330.031952 
L 493.408568 330.031952 
L 493.309091 329.798169 
L 493.418623 329.798169 
L 493.636441 329.798169 
L 493.5375 329.564386 
L 493.645952 329.564386 
L 494.20865 329.564386 
L 494.039508 329.096819 
L 494.132406 329.096819 
L 494.369895 329.096819 
L 494.188576 328.629253 
L 494.293753 328.629253 
L 494.671765 328.629253 
L 494.575323 328.39547 
L 494.691784 328.39547 
L 495.304849 328.39547 
L 495.209536 328.161687 
L 495.323166 328.161687 
L 495.574022 328.161687 
L 495.479295 327.927904 
L 495.591608 327.927904 
L 496.570264 327.927904 
L 496.477204 327.69412 
L 496.585297 327.69412 
L 496.823971 327.69412 
L 496.73147 327.460337 
L 496.850198 327.460337 
L 497.482422 327.460337 
L 497.391083 327.226554 
L 497.506711 327.226554 
L 497.518247 327.226554 
L 497.427137 326.992771 
L 497.542388 326.992771 
L 497.737177 326.992771 
L 497.646569 326.758988 
L 497.760657 326.758988 
L 497.998654 326.758988 
L 497.908609 326.525205 
L 498.02136 326.525205 
L 499.720033 326.525205 
L 499.608816 326.057639 
L 499.661481 326.057639 
L 499.995993 326.057639 
L 499.822926 325.590072 
L 499.937248 325.590072 
L 500.521524 325.590072 
L 500.436087 325.356289 
L 500.547467 325.356289 
L 500.658355 325.356289 
L 500.573285 325.122506 
L 500.68385 325.122506 
L 501.012644 325.122506 
L 500.928265 324.888723 
L 501.037069 324.888723 
L 501.046936 324.888723 
L 500.962768 324.65494 
L 501.071217 324.65494 
L 501.100712 324.65494 
L 501.021424 324.187373 
L 501.050868 324.187373 
L 501.517266 324.187373 
L 501.434271 323.95359 
L 501.549679 323.95359 
L 501.616751 323.95359 
L 501.53406 323.719807 
L 501.648787 323.719807 
L 501.791447 323.719807 
L 501.70917 323.486024 
L 501.822872 323.486024 
L 502.291015 323.486024 
L 502.209633 323.252241 
L 502.320824 323.252241 
L 502.440708 323.252241 
L 502.3597 323.018458 
L 502.47 323.018458 
L 502.978164 323.018458 
L 502.898104 322.784675 
L 503.014719 322.784675 
L 504.572935 322.784675 
L 504.495399 322.550892 
L 504.604174 322.550892 
L 504.869763 322.550892 
L 504.792815 322.317108 
L 504.908224 322.317108 
L 504.949302 322.317108 
L 504.795956 321.849542 
L 504.910925 321.849542 
L 505.066038 321.849542 
L 504.978796 321.381976 
L 505.027568 321.381976 
L 505.285941 321.381976 
L 505.210317 321.148193 
L 505.322607 321.148193 
L 505.545536 321.148193 
L 505.470436 320.91441 
L 505.581247 320.91441 
L 505.863717 320.91441 
L 505.722581 320.446843 
L 505.823983 320.446843 
L 506.301387 320.446843 
L 506.227816 320.21306 
L 506.341967 320.21306 
L 506.703353 320.21306 
L 506.572669 319.745494 
L 506.669757 319.745494 
L 508.069572 319.745494 
L 507.999019 319.511711 
L 508.11068 319.511711 
L 508.775345 319.511711 
L 508.70597 319.277928 
L 508.820503 319.277928 
L 509.24615 319.277928 
L 509.177602 319.044145 
L 509.289384 319.044145 
L 509.781861 319.044145 
L 509.714234 318.810361 
L 509.829339 318.810361 
L 509.931113 318.810361 
L 509.863831 318.576578 
L 509.977895 318.576578 
L 510.204126 318.576578 
L 510.137371 318.342795 
L 510.249716 318.342795 
L 510.274597 318.342795 
L 510.208067 318.109012 
L 510.319823 318.109012 
L 510.681855 318.109012 
L 510.568555 317.641446 
L 510.659755 317.641446 
L 511.233785 317.641446 
L 511.169035 317.407663 
L 511.28087 317.407663 
L 512.125247 317.407663 
L 512.061939 317.17388 
L 512.174207 317.17388 
L 512.374658 317.17388 
L 512.311833 316.940096 
L 512.422463 316.940096 
L 512.439003 316.940096 
L 512.424015 316.47253 
L 512.571826 316.47253 
L 512.509628 316.238747 
L 512.623976 316.238747 
L 513.127561 316.238747 
L 513.066297 316.004964 
L 513.177154 316.004964 
L 513.391723 316.004964 
L 513.33096 315.771181 
L 513.445258 315.771181 
L 513.491816 315.771181 
L 513.370815 315.303614 
L 513.484472 315.303614 
L 513.658772 315.303614 
L 513.598723 315.069831 
L 513.710805 315.069831 
L 513.746326 315.069831 
L 513.686512 314.836048 
L 513.797872 314.836048 
L 514.058451 314.836048 
L 513.999201 314.602265 
L 514.113458 314.602265 
L 514.310486 314.602265 
L 514.251712 314.368482 
L 514.364213 314.368482 
L 515.057818 314.368482 
L 515.000249 314.134699 
L 515.11268 314.134699 
L 515.173285 314.134699 
L 515.115987 313.900916 
L 515.2275 313.900916 
L 515.494133 313.900916 
L 515.437408 313.667133 
L 515.551275 313.667133 
L 516.393274 313.667133 
L 516.337976 313.433349 
L 516.450244 313.433349 
L 516.484641 313.433349 
L 516.429574 313.199566 
L 516.541055 313.199566 
L 516.904703 313.199566 
L 516.879727 312.732 
L 516.908929 312.732 
L 517.670846 312.732 
L 517.617815 312.498217 
L 517.729124 312.498217 
L 518.0353 312.498217 
L 517.982898 312.264434 
L 518.095458 312.264434 
L 518.371608 312.264434 
L 518.319794 312.030651 
L 518.42987 312.030651 
L 518.662722 312.030651 
L 518.611427 311.796867 
L 518.723064 311.796867 
L 518.734185 311.796867 
L 518.683083 311.563084 
L 518.794035 311.563084 
L 519.783395 311.563084 
L 519.687952 311.095518 
L 519.795175 311.095518 
L 520.991492 311.095518 
L 520.943988 310.861735 
L 521.055249 310.861735 
L 521.265937 310.861735 
L 521.218922 310.627952 
L 521.331066 310.627952 
L 521.402269 310.627952 
L 521.321197 310.160386 
L 521.419902 310.160386 
L 521.47207 310.160386 
L 521.425598 309.926602 
L 521.53867 309.926602 
L 522.452903 309.926602 
L 522.407961 309.692819 
L 522.519113 309.692819 
L 523.233053 309.692819 
L 523.189345 309.459036 
L 523.302338 309.459036 
L 524.749183 309.459036 
L 524.749183 309.459036 
" style="fill:none;stroke:#2ca02c;stroke-linecap:square;stroke-width:2;"/>
   </g>
   <g id="patch_3">
    <path d="M 76.5 448.56 
L 76.5 60.48 
" style="fill:none;stroke:#000000;stroke-linecap:square;stroke-linejoin:miter;stroke-width:0.8;"/>
   </g>
   <g id="patch_4">
    <path d="M 550.8 448.56 
L 550.8 60.48 
" style="fill:none;stroke:#000000;stroke-linecap:square;stroke-linejoin:miter;stroke-width:0.8;"/>
   </g>
   <g id="patch_5">
    <path d="M 76.5 448.56 
L 550.8 448.56 
" style="fill:none;stroke:#000000;stroke-linecap:square;stroke-linejoin:miter;stroke-width:0.8;"/>
   </g>
   <g id="patch_6">
    <path d="M 76.5 60.48 
L 550.8 60.48 
" style="fill:none;stroke:#000000;stroke-linecap:square;stroke-linejoin:miter;stroke-width:0.8;"/>
   </g>
   <g id="text_25">
    <!-- wall: img1-img6 -->
    <defs>
     <path d="M 4.203125 54.6875 
L 13.1875 54.6875 
L 24.421875 12.015625 
L 35.59375 54.6875 
L 46.1875 54.6875 
L 57.421875 12.015625 
L 68.609375 54.6875 
L 77.59375 54.6875 
L 63.28125 0 
L 52.6875 0 
L 40.921875 44.828125 
L 29.109375 0 
L 18.5 0 
z
" id="DejaVuSans-119"/>
     <path d="M 34.28125 27.484375 
Q 23.390625 27.484375 19.1875 25 
Q 14.984375 22.515625 14.984375 16.5 
Q 14.984375 11.71875 18.140625 8.90625 
Q 21.296875 6.109375 26.703125 6.109375 
Q 34.1875 6.109375 38.703125 11.40625 
Q 43.21875 16.703125 43.21875 25.484375 
L 43.21875 27.484375 
z
M 52.203125 31.203125 
L 52.203125 0 
L 43.21875 0 
L 43.21875 8.296875 
Q 40.140625 3.328125 35.546875 0.953125 
Q 30.953125 -1.421875 24.3125 -1.421875 
Q 15.921875 -1.421875 10.953125 3.296875 
Q 6 8.015625 6 15.921875 
Q 6 25.140625 12.171875 29.828125 
Q 18.359375 34.515625 30.609375 34.515625 
L 43.21875 34.515625 
L 43.21875 35.40625 
Q 43.21875 41.609375 39.140625 45 
Q 35.0625 48.390625 27.6875 48.390625 
Q 23 48.390625 18.546875 47.265625 
Q 14.109375 46.140625 10.015625 43.890625 
L 10.015625 52.203125 
Q 14.9375 54.109375 19.578125 55.046875 
Q 24.21875 56 28.609375 56 
Q 40.484375 56 46.34375 49.84375 
Q 52.203125 43.703125 52.203125 31.203125 
z
" id="DejaVuSans-97"/>
     <path d="M 9.421875 75.984375 
L 18.40625 75.984375 
L 18.40625 0 
L 9.421875 0 
z
" id="DejaVuSans-108"/>
     <path d="M 11.71875 12.40625 
L 22.015625 12.40625 
L 22.015625 0 
L 11.71875 0 
z
M 11.71875 51.703125 
L 22.015625 51.703125 
L 22.015625 39.3125 
L 11.71875 39.3125 
z
" id="DejaVuSans-58"/>
     <path id="DejaVuSans-32"/>
     <path d="M 52 44.1875 
Q 55.375 50.25 60.0625 53.125 
Q 64.75 56 71.09375 56 
Q 79.640625 56 84.28125 50.015625 
Q 88.921875 44.046875 88.921875 33.015625 
L 88.921875 0 
L 79.890625 0 
L 79.890625 32.71875 
Q 79.890625 40.578125 77.09375 44.375 
Q 74.3125 48.1875 68.609375 48.1875 
Q 61.625 48.1875 57.5625 43.546875 
Q 53.515625 38.921875 53.515625 30.90625 
L 53.515625 0 
L 44.484375 0 
L 44.484375 32.71875 
Q 44.484375 40.625 41.703125 44.40625 
Q 38.921875 48.1875 33.109375 48.1875 
Q 26.21875 48.1875 22.15625 43.53125 
Q 18.109375 38.875 18.109375 30.90625 
L 18.109375 0 
L 9.078125 0 
L 9.078125 54.6875 
L 18.109375 54.6875 
L 18.109375 46.1875 
Q 21.1875 51.21875 25.484375 53.609375 
Q 29.78125 56 35.6875 56 
Q 41.65625 56 45.828125 52.96875 
Q 50 49.953125 52 44.1875 
z
" id="DejaVuSans-109"/>
     <path d="M 45.40625 27.984375 
Q 45.40625 37.75 41.375 43.109375 
Q 37.359375 48.484375 30.078125 48.484375 
Q 22.859375 48.484375 18.828125 43.109375 
Q 14.796875 37.75 14.796875 27.984375 
Q 14.796875 18.265625 18.828125 12.890625 
Q 22.859375 7.515625 30.078125 7.515625 
Q 37.359375 7.515625 41.375 12.890625 
Q 45.40625 18.265625 45.40625 27.984375 
z
M 54.390625 6.78125 
Q 54.390625 -7.171875 48.1875 -13.984375 
Q 42 -20.796875 29.203125 -20.796875 
Q 24.46875 -20.796875 20.265625 -20.09375 
Q 16.0625 -19.390625 12.109375 -17.921875 
L 12.109375 -9.1875 
Q 16.0625 -11.328125 19.921875 -12.34375 
Q 23.78125 -13.375 27.78125 -13.375 
Q 36.625 -13.375 41.015625 -8.765625 
Q 45.40625 -4.15625 45.40625 5.171875 
L 45.40625 9.625 
Q 42.625 4.78125 38.28125 2.390625 
Q 33.9375 0 27.875 0 
Q 17.828125 0 11.671875 7.65625 
Q 5.515625 15.328125 5.515625 27.984375 
Q 5.515625 40.671875 11.671875 48.328125 
Q 17.828125 56 27.875 56 
Q 33.9375 56 38.28125 53.609375 
Q 42.625 51.21875 45.40625 46.390625 
L 45.40625 54.6875 
L 54.390625 54.6875 
z
" id="DejaVuSans-103"/>
    </defs>
    <g transform="translate(265.364063 41.042625)scale(0.12 -0.12)">
     <use xlink:href="#DejaVuSans-119"/>
     <use x="81.787109" xlink:href="#DejaVuSans-97"/>
     <use x="143.066406" xlink:href="#DejaVuSans-108"/>
     <use x="170.849609" xlink:href="#DejaVuSans-108"/>
     <use x="198.632812" xlink:href="#DejaVuSans-58"/>
     <use x="232.324219" xlink:href="#DejaVuSans-32"/>
     <use x="264.111328" xlink:href="#DejaVuSans-105"/>
     <use x="291.894531" xlink:href="#DejaVuSans-109"/>
     <use x="389.306641" xlink:href="#DejaVuSans-103"/>
     <use x="452.783203" xlink:href="#DejaVuSans-49"/>
     <use x="516.40625" xlink:href="#DejaVuSans-45"/>
     <use x="552.490234" xlink:href="#DejaVuSans-105"/>
     <use x="580.273438" xlink:href="#DejaVuSans-109"/>
     <use x="677.685547" xlink:href="#DejaVuSans-103"/>
     <use x="741.162109" xlink:href="#DejaVuSans-54"/>
    </g>
    <!-- NearestNeighbours -->
    <defs>
     <path d="M 9.8125 72.90625 
L 23.09375 72.90625 
L 55.421875 11.921875 
L 55.421875 72.90625 
L 64.984375 72.90625 
L 64.984375 0 
L 51.703125 0 
L 19.390625 60.984375 
L 19.390625 0 
L 9.8125 0 
z
" id="DejaVuSans-78"/>
     <path d="M 54.890625 33.015625 
L 54.890625 0 
L 45.90625 0 
L 45.90625 32.71875 
Q 45.90625 40.484375 42.875 44.328125 
Q 39.84375 48.1875 33.796875 48.1875 
Q 26.515625 48.1875 22.3125 43.546875 
Q 18.109375 38.921875 18.109375 30.90625 
L 18.109375 0 
L 9.078125 0 
L 9.078125 75.984375 
L 18.109375 75.984375 
L 18.109375 46.1875 
Q 21.34375 51.125 25.703125 53.5625 
Q 30.078125 56 35.796875 56 
Q 45.21875 56 50.046875 50.171875 
Q 54.890625 44.34375 54.890625 33.015625 
z
" id="DejaVuSans-104"/>
     <path d="M 48.6875 27.296875 
Q 48.6875 37.203125 44.609375 42.84375 
Q 40.53125 48.484375 33.40625 48.484375 
Q 26.265625 48.484375 22.1875 42.84375 
Q 18.109375 37.203125 18.109375 27.296875 
Q 18.109375 17.390625 22.1875 11.75 
Q 26.265625 6.109375 33.40625 6.109375 
Q 40.53125 6.109375 44.609375 11.75 
Q 48.6875 17.390625 48.6875 27.296875 
z
M 18.109375 46.390625 
Q 20.953125 51.265625 25.265625 53.625 
Q 29.59375 56 35.59375 56 
Q 45.5625 56 51.78125 48.09375 
Q 58.015625 40.1875 58.015625 27.296875 
Q 58.015625 14.40625 51.78125 6.484375 
Q 45.5625 -1.421875 35.59375 -1.421875 
Q 29.59375 -1.421875 25.265625 0.953125 
Q 20.953125 3.328125 18.109375 8.203125 
L 18.109375 0 
L 9.078125 0 
L 9.078125 75.984375 
L 18.109375 75.984375 
z
" id="DejaVuSans-98"/>
     <path d="M 8.5 21.578125 
L 8.5 54.6875 
L 17.484375 54.6875 
L 17.484375 21.921875 
Q 17.484375 14.15625 20.5 10.265625 
Q 23.53125 6.390625 29.59375 6.390625 
Q 36.859375 6.390625 41.078125 11.03125 
Q 45.3125 15.671875 45.3125 23.6875 
L 45.3125 54.6875 
L 54.296875 54.6875 
L 54.296875 0 
L 45.3125 0 
L 45.3125 8.40625 
Q 42.046875 3.421875 37.71875 1 
Q 33.40625 -1.421875 27.6875 -1.421875 
Q 18.265625 -1.421875 13.375 4.4375 
Q 8.5 10.296875 8.5 21.578125 
z
M 31.109375 56 
z
" id="DejaVuSans-117"/>
    </defs>
    <g transform="translate(255.824063 54.48)scale(0.12 -0.12)">
     <use xlink:href="#DejaVuSans-78"/>
     <use x="74.804688" xlink:href="#DejaVuSans-101"/>
     <use x="136.328125" xlink:href="#DejaVuSans-97"/>
     <use x="197.607422" xlink:href="#DejaVuSans-114"/>
     <use x="238.689453" xlink:href="#DejaVuSans-101"/>
     <use x="300.212891" xlink:href="#DejaVuSans-115"/>
     <use x="352.3125" xlink:href="#DejaVuSans-116"/>
     <use x="391.521484" xlink:href="#DejaVuSans-78"/>
     <use x="466.326172" xlink:href="#DejaVuSans-101"/>
     <use x="527.849609" xlink:href="#DejaVuSans-105"/>
     <use x="555.632812" xlink:href="#DejaVuSans-103"/>
     <use x="619.109375" xlink:href="#DejaVuSans-104"/>
     <use x="682.488281" xlink:href="#DejaVuSans-98"/>
     <use x="745.964844" xlink:href="#DejaVuSans-111"/>
     <use x="807.146484" xlink:href="#DejaVuSans-117"/>
     <use x="870.525391" xlink:href="#DejaVuSans-114"/>
     <use x="911.638672" xlink:href="#DejaVuSans-115"/>
    </g>
   </g>
   <g id="legend_1">
    <g id="patch_7">
     <path d="M 374.989063 112.514375 
L 543.8 112.514375 
Q 545.8 112.514375 545.8 110.514375 
L 545.8 67.48 
Q 545.8 65.48 543.8 65.48 
L 374.989063 65.48 
Q 372.989063 65.48 372.989063 67.48 
L 372.989063 110.514375 
Q 372.989063 112.514375 374.989063 112.514375 
z
" style="fill:#ffffff;opacity:0.8;stroke:#cccccc;stroke-linejoin:miter;"/>
    </g>
    <g id="line2d_48">
     <path d="M 376.989063 73.578438 
L 396.989063 73.578438 
" style="fill:none;stroke:#1f77b4;stroke-linecap:square;stroke-width:2;"/>
    </g>
    <g id="line2d_49"/>
    <g id="text_26">
     <!-- root-cvsift AP: 1.0, %In: 1.7 -->
     <defs>
      <path d="M 2.984375 54.6875 
L 12.5 54.6875 
L 29.59375 8.796875 
L 46.6875 54.6875 
L 56.203125 54.6875 
L 35.6875 0 
L 23.484375 0 
z
" id="DejaVuSans-118"/>
      <path d="M 37.109375 75.984375 
L 37.109375 68.5 
L 28.515625 68.5 
Q 23.6875 68.5 21.796875 66.546875 
Q 19.921875 64.59375 19.921875 59.515625 
L 19.921875 54.6875 
L 34.71875 54.6875 
L 34.71875 47.703125 
L 19.921875 47.703125 
L 19.921875 0 
L 10.890625 0 
L 10.890625 47.703125 
L 2.296875 47.703125 
L 2.296875 54.6875 
L 10.890625 54.6875 
L 10.890625 58.5 
Q 10.890625 67.625 15.140625 71.796875 
Q 19.390625 75.984375 28.609375 75.984375 
z
" id="DejaVuSans-102"/>
      <path d="M 34.1875 63.1875 
L 20.796875 26.90625 
L 47.609375 26.90625 
z
M 28.609375 72.90625 
L 39.796875 72.90625 
L 67.578125 0 
L 57.328125 0 
L 50.6875 18.703125 
L 17.828125 18.703125 
L 11.1875 0 
L 0.78125 0 
z
" id="DejaVuSans-65"/>
      <path d="M 19.671875 64.796875 
L 19.671875 37.40625 
L 32.078125 37.40625 
Q 38.96875 37.40625 42.71875 40.96875 
Q 46.484375 44.53125 46.484375 51.125 
Q 46.484375 57.671875 42.71875 61.234375 
Q 38.96875 64.796875 32.078125 64.796875 
z
M 9.8125 72.90625 
L 32.078125 72.90625 
Q 44.34375 72.90625 50.609375 67.359375 
Q 56.890625 61.8125 56.890625 51.125 
Q 56.890625 40.328125 50.609375 34.8125 
Q 44.34375 29.296875 32.078125 29.296875 
L 19.671875 29.296875 
L 19.671875 0 
L 9.8125 0 
z
" id="DejaVuSans-80"/>
      <path d="M 11.71875 12.40625 
L 22.015625 12.40625 
L 22.015625 4 
L 14.015625 -11.625 
L 7.71875 -11.625 
L 11.71875 4 
z
" id="DejaVuSans-44"/>
      <path d="M 72.703125 32.078125 
Q 68.453125 32.078125 66.03125 28.46875 
Q 63.625 24.859375 63.625 18.40625 
Q 63.625 12.0625 66.03125 8.421875 
Q 68.453125 4.78125 72.703125 4.78125 
Q 76.859375 4.78125 79.265625 8.421875 
Q 81.6875 12.0625 81.6875 18.40625 
Q 81.6875 24.8125 79.265625 28.4375 
Q 76.859375 32.078125 72.703125 32.078125 
z
M 72.703125 38.28125 
Q 80.421875 38.28125 84.953125 32.90625 
Q 89.5 27.546875 89.5 18.40625 
Q 89.5 9.28125 84.9375 3.921875 
Q 80.375 -1.421875 72.703125 -1.421875 
Q 64.890625 -1.421875 60.34375 3.921875 
Q 55.8125 9.28125 55.8125 18.40625 
Q 55.8125 27.59375 60.375 32.9375 
Q 64.9375 38.28125 72.703125 38.28125 
z
M 22.3125 68.015625 
Q 18.109375 68.015625 15.6875 64.375 
Q 13.28125 60.75 13.28125 54.390625 
Q 13.28125 47.953125 15.671875 44.328125 
Q 18.0625 40.71875 22.3125 40.71875 
Q 26.5625 40.71875 28.96875 44.328125 
Q 31.390625 47.953125 31.390625 54.390625 
Q 31.390625 60.6875 28.953125 64.34375 
Q 26.515625 68.015625 22.3125 68.015625 
z
M 66.40625 74.21875 
L 74.21875 74.21875 
L 28.609375 -1.421875 
L 20.796875 -1.421875 
z
M 22.3125 74.21875 
Q 30.03125 74.21875 34.609375 68.875 
Q 39.203125 63.53125 39.203125 54.390625 
Q 39.203125 45.171875 34.640625 39.84375 
Q 30.078125 34.515625 22.3125 34.515625 
Q 14.546875 34.515625 10.03125 39.859375 
Q 5.515625 45.21875 5.515625 54.390625 
Q 5.515625 63.484375 10.046875 68.84375 
Q 14.59375 74.21875 22.3125 74.21875 
z
" id="DejaVuSans-37"/>
      <path d="M 9.8125 72.90625 
L 19.671875 72.90625 
L 19.671875 0 
L 9.8125 0 
z
" id="DejaVuSans-73"/>
     </defs>
     <g transform="translate(404.989063 77.078438)scale(0.1 -0.1)">
      <use xlink:href="#DejaVuSans-114"/>
      <use x="41.082031" xlink:href="#DejaVuSans-111"/>
      <use x="102.263672" xlink:href="#DejaVuSans-111"/>
      <use x="163.445312" xlink:href="#DejaVuSans-116"/>
      <use x="202.654297" xlink:href="#DejaVuSans-45"/>
      <use x="238.738281" xlink:href="#DejaVuSans-99"/>
      <use x="293.71875" xlink:href="#DejaVuSans-118"/>
      <use x="352.898438" xlink:href="#DejaVuSans-115"/>
      <use x="404.998047" xlink:href="#DejaVuSans-105"/>
      <use x="432.78125" xlink:href="#DejaVuSans-102"/>
      <use x="467.970703" xlink:href="#DejaVuSans-116"/>
      <use x="507.179688" xlink:href="#DejaVuSans-32"/>
      <use x="538.966797" xlink:href="#DejaVuSans-65"/>
      <use x="607.375" xlink:href="#DejaVuSans-80"/>
      <use x="667.677734" xlink:href="#DejaVuSans-58"/>
      <use x="701.369141" xlink:href="#DejaVuSans-32"/>
      <use x="733.15625" xlink:href="#DejaVuSans-49"/>
      <use x="796.779297" xlink:href="#DejaVuSans-46"/>
      <use x="828.566406" xlink:href="#DejaVuSans-48"/>
      <use x="892.189453" xlink:href="#DejaVuSans-44"/>
      <use x="923.976562" xlink:href="#DejaVuSans-32"/>
      <use x="955.763672" xlink:href="#DejaVuSans-37"/>
      <use x="1050.783203" xlink:href="#DejaVuSans-73"/>
      <use x="1080.275391" xlink:href="#DejaVuSans-110"/>
      <use x="1143.654297" xlink:href="#DejaVuSans-58"/>
      <use x="1177.345703" xlink:href="#DejaVuSans-32"/>
      <use x="1209.132812" xlink:href="#DejaVuSans-49"/>
      <use x="1272.755859" xlink:href="#DejaVuSans-46"/>
      <use x="1304.542969" xlink:href="#DejaVuSans-55"/>
     </g>
    </g>
    <g id="line2d_50">
     <path d="M 376.989063 88.256563 
L 396.989063 88.256563 
" style="fill:none;stroke:#ff7f0e;stroke-linecap:square;stroke-width:2;"/>
    </g>
    <g id="line2d_51"/>
    <g id="text_27">
     <!-- tfeat AP: 1.0, %In: 1.6 -->
     <g transform="translate(404.989063 91.756563)scale(0.1 -0.1)">
      <use xlink:href="#DejaVuSans-116"/>
      <use x="39.208984" xlink:href="#DejaVuSans-102"/>
      <use x="74.414062" xlink:href="#DejaVuSans-101"/>
      <use x="135.9375" xlink:href="#DejaVuSans-97"/>
      <use x="197.216797" xlink:href="#DejaVuSans-116"/>
      <use x="236.425781" xlink:href="#DejaVuSans-32"/>
      <use x="268.212891" xlink:href="#DejaVuSans-65"/>
      <use x="336.621094" xlink:href="#DejaVuSans-80"/>
      <use x="396.923828" xlink:href="#DejaVuSans-58"/>
      <use x="430.615234" xlink:href="#DejaVuSans-32"/>
      <use x="462.402344" xlink:href="#DejaVuSans-49"/>
      <use x="526.025391" xlink:href="#DejaVuSans-46"/>
      <use x="557.8125" xlink:href="#DejaVuSans-48"/>
      <use x="621.435547" xlink:href="#DejaVuSans-44"/>
      <use x="653.222656" xlink:href="#DejaVuSans-32"/>
      <use x="685.009766" xlink:href="#DejaVuSans-37"/>
      <use x="780.029297" xlink:href="#DejaVuSans-73"/>
      <use x="809.521484" xlink:href="#DejaVuSans-110"/>
      <use x="872.900391" xlink:href="#DejaVuSans-58"/>
      <use x="906.591797" xlink:href="#DejaVuSans-32"/>
      <use x="938.378906" xlink:href="#DejaVuSans-49"/>
      <use x="1002.001953" xlink:href="#DejaVuSans-46"/>
      <use x="1033.789062" xlink:href="#DejaVuSans-54"/>
     </g>
    </g>
    <g id="line2d_52">
     <path d="M 376.989063 102.934687 
L 396.989063 102.934687 
" style="fill:none;stroke:#2ca02c;stroke-linecap:square;stroke-width:2;"/>
    </g>
    <g id="line2d_53"/>
    <g id="text_28">
     <!-- hardnet AP: 12.3, %In: 5.5 -->
     <defs>
      <path d="M 45.40625 46.390625 
L 45.40625 75.984375 
L 54.390625 75.984375 
L 54.390625 0 
L 45.40625 0 
L 45.40625 8.203125 
Q 42.578125 3.328125 38.25 0.953125 
Q 33.9375 -1.421875 27.875 -1.421875 
Q 17.96875 -1.421875 11.734375 6.484375 
Q 5.515625 14.40625 5.515625 27.296875 
Q 5.515625 40.1875 11.734375 48.09375 
Q 17.96875 56 27.875 56 
Q 33.9375 56 38.25 53.625 
Q 42.578125 51.265625 45.40625 46.390625 
z
M 14.796875 27.296875 
Q 14.796875 17.390625 18.875 11.75 
Q 22.953125 6.109375 30.078125 6.109375 
Q 37.203125 6.109375 41.296875 11.75 
Q 45.40625 17.390625 45.40625 27.296875 
Q 45.40625 37.203125 41.296875 42.84375 
Q 37.203125 48.484375 30.078125 48.484375 
Q 22.953125 48.484375 18.875 42.84375 
Q 14.796875 37.203125 14.796875 27.296875 
z
" id="DejaVuSans-100"/>
     </defs>
     <g transform="translate(404.989063 106.434687)scale(0.1 -0.1)">
      <use xlink:href="#DejaVuSans-104"/>
      <use x="63.378906" xlink:href="#DejaVuSans-97"/>
      <use x="124.658203" xlink:href="#DejaVuSans-114"/>
      <use x="165.755859" xlink:href="#DejaVuSans-100"/>
      <use x="229.232422" xlink:href="#DejaVuSans-110"/>
      <use x="292.611328" xlink:href="#DejaVuSans-101"/>
      <use x="354.134766" xlink:href="#DejaVuSans-116"/>
      <use x="393.34375" xlink:href="#DejaVuSans-32"/>
      <use x="425.130859" xlink:href="#DejaVuSans-65"/>
      <use x="493.539062" xlink:href="#DejaVuSans-80"/>
      <use x="553.841797" xlink:href="#DejaVuSans-58"/>
      <use x="587.533203" xlink:href="#DejaVuSans-32"/>
      <use x="619.320312" xlink:href="#DejaVuSans-49"/>
      <use x="682.943359" xlink:href="#DejaVuSans-50"/>
      <use x="746.566406" xlink:href="#DejaVuSans-46"/>
      <use x="778.353516" xlink:href="#DejaVuSans-51"/>
      <use x="841.976562" xlink:href="#DejaVuSans-44"/>
      <use x="873.763672" xlink:href="#DejaVuSans-32"/>
      <use x="905.550781" xlink:href="#DejaVuSans-37"/>
      <use x="1000.570312" xlink:href="#DejaVuSans-73"/>
      <use x="1030.0625" xlink:href="#DejaVuSans-110"/>
      <use x="1093.441406" xlink:href="#DejaVuSans-58"/>
      <use x="1127.132812" xlink:href="#DejaVuSans-32"/>
      <use x="1158.919922" xlink:href="#DejaVuSans-53"/>
      <use x="1222.542969" xlink:href="#DejaVuSans-46"/>
      <use x="1254.330078" xlink:href="#DejaVuSans-53"/>
     </g>
    </g>
   </g>
  </g>
 </g>
 <defs>
  <clipPath id="pcbc0e6785b">
   <rect height="388.08" width="474.3" x="76.5" y="60.48"/>
  </clipPath>
 </defs>
</svg>
