<?xml version="1.0" encoding="utf-8" standalone="no"?>
<!DOCTYPE svg PUBLIC "-//W3C//DTD SVG 1.1//EN"
  "http://www.w3.org/Graphics/SVG/1.1/DTD/svg11.dtd">
<!-- Created with matplotlib (https://matplotlib.org/) -->
<svg height="504pt" version="1.1" viewBox="0 0 612 504" width="612pt" xmlns="http://www.w3.org/2000/svg" xmlns:xlink="http://www.w3.org/1999/xlink">
 <defs>
  <style type="text/css">
*{stroke-linecap:butt;stroke-linejoin:round;}
  </style>
 </defs>
 <g id="figure_1">
  <g id="patch_1">
   <path d="M 0 504 
L 612 504 
L 612 0 
L 0 0 
z
" style="fill:#ffffff;"/>
  </g>
  <g id="axes_1">
   <g id="patch_2">
    <path d="M 76.5 448.56 
L 550.8 448.56 
L 550.8 60.48 
L 76.5 60.48 
z
" style="fill:#ffffff;"/>
   </g>
   <g id="matplotlib.axis_1">
    <g id="xtick_1">
     <g id="line2d_1">
      <path clip-path="url(#p110dd61dff)" d="M 76.5 448.56 
L 76.5 60.48 
" style="fill:none;stroke:#b0b0b0;stroke-linecap:square;stroke-width:0.8;"/>
     </g>
     <g id="line2d_2">
      <defs>
       <path d="M 0 0 
L 0 3.5 
" id="m8e7f273f36" style="stroke:#000000;stroke-width:0.8;"/>
      </defs>
      <g>
       <use style="stroke:#000000;stroke-width:0.8;" x="76.5" xlink:href="#m8e7f273f36" y="448.56"/>
      </g>
     </g>
     <g id="text_1">
      <!-- 0.0 -->
      <defs>
       <path d="M 31.78125 66.40625 
Q 24.171875 66.40625 20.328125 58.90625 
Q 16.5 51.421875 16.5 36.375 
Q 16.5 21.390625 20.328125 13.890625 
Q 24.171875 6.390625 31.78125 6.390625 
Q 39.453125 6.390625 43.28125 13.890625 
Q 47.125 21.390625 47.125 36.375 
Q 47.125 51.421875 43.28125 58.90625 
Q 39.453125 66.40625 31.78125 66.40625 
z
M 31.78125 74.21875 
Q 44.046875 74.21875 50.515625 64.515625 
Q 56.984375 54.828125 56.984375 36.375 
Q 56.984375 17.96875 50.515625 8.265625 
Q 44.046875 -1.421875 31.78125 -1.421875 
Q 19.53125 -1.421875 13.0625 8.265625 
Q 6.59375 17.96875 6.59375 36.375 
Q 6.59375 54.828125 13.0625 64.515625 
Q 19.53125 74.21875 31.78125 74.21875 
z
" id="DejaVuSans-48"/>
       <path d="M 10.6875 12.40625 
L 21 12.40625 
L 21 0 
L 10.6875 0 
z
" id="DejaVuSans-46"/>
      </defs>
      <g transform="translate(68.548438 463.158437)scale(0.1 -0.1)">
       <use xlink:href="#DejaVuSans-48"/>
       <use x="63.623047" xlink:href="#DejaVuSans-46"/>
       <use x="95.410156" xlink:href="#DejaVuSans-48"/>
      </g>
     </g>
    </g>
    <g id="xtick_2">
     <g id="line2d_3">
      <path clip-path="url(#p110dd61dff)" d="M 123.93 448.56 
L 123.93 60.48 
" style="fill:none;stroke:#b0b0b0;stroke-linecap:square;stroke-width:0.8;"/>
     </g>
     <g id="line2d_4">
      <g>
       <use style="stroke:#000000;stroke-width:0.8;" x="123.93" xlink:href="#m8e7f273f36" y="448.56"/>
      </g>
     </g>
     <g id="text_2">
      <!-- 0.1 -->
      <defs>
       <path d="M 12.40625 8.296875 
L 28.515625 8.296875 
L 28.515625 63.921875 
L 10.984375 60.40625 
L 10.984375 69.390625 
L 28.421875 72.90625 
L 38.28125 72.90625 
L 38.28125 8.296875 
L 54.390625 8.296875 
L 54.390625 0 
L 12.40625 0 
z
" id="DejaVuSans-49"/>
      </defs>
      <g transform="translate(115.978438 463.158437)scale(0.1 -0.1)">
       <use xlink:href="#DejaVuSans-48"/>
       <use x="63.623047" xlink:href="#DejaVuSans-46"/>
       <use x="95.410156" xlink:href="#DejaVuSans-49"/>
      </g>
     </g>
    </g>
    <g id="xtick_3">
     <g id="line2d_5">
      <path clip-path="url(#p110dd61dff)" d="M 171.36 448.56 
L 171.36 60.48 
" style="fill:none;stroke:#b0b0b0;stroke-linecap:square;stroke-width:0.8;"/>
     </g>
     <g id="line2d_6">
      <g>
       <use style="stroke:#000000;stroke-width:0.8;" x="171.36" xlink:href="#m8e7f273f36" y="448.56"/>
      </g>
     </g>
     <g id="text_3">
      <!-- 0.2 -->
      <defs>
       <path d="M 19.1875 8.296875 
L 53.609375 8.296875 
L 53.609375 0 
L 7.328125 0 
L 7.328125 8.296875 
Q 12.9375 14.109375 22.625 23.890625 
Q 32.328125 33.6875 34.8125 36.53125 
Q 39.546875 41.84375 41.421875 45.53125 
Q 43.3125 49.21875 43.3125 52.78125 
Q 43.3125 58.59375 39.234375 62.25 
Q 35.15625 65.921875 28.609375 65.921875 
Q 23.96875 65.921875 18.8125 64.3125 
Q 13.671875 62.703125 7.8125 59.421875 
L 7.8125 69.390625 
Q 13.765625 71.78125 18.9375 73 
Q 24.125 74.21875 28.421875 74.21875 
Q 39.75 74.21875 46.484375 68.546875 
Q 53.21875 62.890625 53.21875 53.421875 
Q 53.21875 48.921875 51.53125 44.890625 
Q 49.859375 40.875 45.40625 35.40625 
Q 44.1875 33.984375 37.640625 27.21875 
Q 31.109375 20.453125 19.1875 8.296875 
z
" id="DejaVuSans-50"/>
      </defs>
      <g transform="translate(163.408438 463.158437)scale(0.1 -0.1)">
       <use xlink:href="#DejaVuSans-48"/>
       <use x="63.623047" xlink:href="#DejaVuSans-46"/>
       <use x="95.410156" xlink:href="#DejaVuSans-50"/>
      </g>
     </g>
    </g>
    <g id="xtick_4">
     <g id="line2d_7">
      <path clip-path="url(#p110dd61dff)" d="M 218.79 448.56 
L 218.79 60.48 
" style="fill:none;stroke:#b0b0b0;stroke-linecap:square;stroke-width:0.8;"/>
     </g>
     <g id="line2d_8">
      <g>
       <use style="stroke:#000000;stroke-width:0.8;" x="218.79" xlink:href="#m8e7f273f36" y="448.56"/>
      </g>
     </g>
     <g id="text_4">
      <!-- 0.3 -->
      <defs>
       <path d="M 40.578125 39.3125 
Q 47.65625 37.796875 51.625 33 
Q 55.609375 28.21875 55.609375 21.1875 
Q 55.609375 10.40625 48.1875 4.484375 
Q 40.765625 -1.421875 27.09375 -1.421875 
Q 22.515625 -1.421875 17.65625 -0.515625 
Q 12.796875 0.390625 7.625 2.203125 
L 7.625 11.71875 
Q 11.71875 9.328125 16.59375 8.109375 
Q 21.484375 6.890625 26.8125 6.890625 
Q 36.078125 6.890625 40.9375 10.546875 
Q 45.796875 14.203125 45.796875 21.1875 
Q 45.796875 27.640625 41.28125 31.265625 
Q 36.765625 34.90625 28.71875 34.90625 
L 20.21875 34.90625 
L 20.21875 43.015625 
L 29.109375 43.015625 
Q 36.375 43.015625 40.234375 45.921875 
Q 44.09375 48.828125 44.09375 54.296875 
Q 44.09375 59.90625 40.109375 62.90625 
Q 36.140625 65.921875 28.71875 65.921875 
Q 24.65625 65.921875 20.015625 65.03125 
Q 15.375 64.15625 9.8125 62.3125 
L 9.8125 71.09375 
Q 15.4375 72.65625 20.34375 73.4375 
Q 25.25 74.21875 29.59375 74.21875 
Q 40.828125 74.21875 47.359375 69.109375 
Q 53.90625 64.015625 53.90625 55.328125 
Q 53.90625 49.265625 50.4375 45.09375 
Q 46.96875 40.921875 40.578125 39.3125 
z
" id="DejaVuSans-51"/>
      </defs>
      <g transform="translate(210.838438 463.158437)scale(0.1 -0.1)">
       <use xlink:href="#DejaVuSans-48"/>
       <use x="63.623047" xlink:href="#DejaVuSans-46"/>
       <use x="95.410156" xlink:href="#DejaVuSans-51"/>
      </g>
     </g>
    </g>
    <g id="xtick_5">
     <g id="line2d_9">
      <path clip-path="url(#p110dd61dff)" d="M 266.22 448.56 
L 266.22 60.48 
" style="fill:none;stroke:#b0b0b0;stroke-linecap:square;stroke-width:0.8;"/>
     </g>
     <g id="line2d_10">
      <g>
       <use style="stroke:#000000;stroke-width:0.8;" x="266.22" xlink:href="#m8e7f273f36" y="448.56"/>
      </g>
     </g>
     <g id="text_5">
      <!-- 0.4 -->
      <defs>
       <path d="M 37.796875 64.3125 
L 12.890625 25.390625 
L 37.796875 25.390625 
z
M 35.203125 72.90625 
L 47.609375 72.90625 
L 47.609375 25.390625 
L 58.015625 25.390625 
L 58.015625 17.1875 
L 47.609375 17.1875 
L 47.609375 0 
L 37.796875 0 
L 37.796875 17.1875 
L 4.890625 17.1875 
L 4.890625 26.703125 
z
" id="DejaVuSans-52"/>
      </defs>
      <g transform="translate(258.268438 463.158437)scale(0.1 -0.1)">
       <use xlink:href="#DejaVuSans-48"/>
       <use x="63.623047" xlink:href="#DejaVuSans-46"/>
       <use x="95.410156" xlink:href="#DejaVuSans-52"/>
      </g>
     </g>
    </g>
    <g id="xtick_6">
     <g id="line2d_11">
      <path clip-path="url(#p110dd61dff)" d="M 313.65 448.56 
L 313.65 60.48 
" style="fill:none;stroke:#b0b0b0;stroke-linecap:square;stroke-width:0.8;"/>
     </g>
     <g id="line2d_12">
      <g>
       <use style="stroke:#000000;stroke-width:0.8;" x="313.65" xlink:href="#m8e7f273f36" y="448.56"/>
      </g>
     </g>
     <g id="text_6">
      <!-- 0.5 -->
      <defs>
       <path d="M 10.796875 72.90625 
L 49.515625 72.90625 
L 49.515625 64.59375 
L 19.828125 64.59375 
L 19.828125 46.734375 
Q 21.96875 47.46875 24.109375 47.828125 
Q 26.265625 48.1875 28.421875 48.1875 
Q 40.625 48.1875 47.75 41.5 
Q 54.890625 34.8125 54.890625 23.390625 
Q 54.890625 11.625 47.5625 5.09375 
Q 40.234375 -1.421875 26.90625 -1.421875 
Q 22.3125 -1.421875 17.546875 -0.640625 
Q 12.796875 0.140625 7.71875 1.703125 
L 7.71875 11.625 
Q 12.109375 9.234375 16.796875 8.0625 
Q 21.484375 6.890625 26.703125 6.890625 
Q 35.15625 6.890625 40.078125 11.328125 
Q 45.015625 15.765625 45.015625 23.390625 
Q 45.015625 31 40.078125 35.4375 
Q 35.15625 39.890625 26.703125 39.890625 
Q 22.75 39.890625 18.8125 39.015625 
Q 14.890625 38.140625 10.796875 36.28125 
z
" id="DejaVuSans-53"/>
      </defs>
      <g transform="translate(305.698438 463.158437)scale(0.1 -0.1)">
       <use xlink:href="#DejaVuSans-48"/>
       <use x="63.623047" xlink:href="#DejaVuSans-46"/>
       <use x="95.410156" xlink:href="#DejaVuSans-53"/>
      </g>
     </g>
    </g>
    <g id="xtick_7">
     <g id="line2d_13">
      <path clip-path="url(#p110dd61dff)" d="M 361.08 448.56 
L 361.08 60.48 
" style="fill:none;stroke:#b0b0b0;stroke-linecap:square;stroke-width:0.8;"/>
     </g>
     <g id="line2d_14">
      <g>
       <use style="stroke:#000000;stroke-width:0.8;" x="361.08" xlink:href="#m8e7f273f36" y="448.56"/>
      </g>
     </g>
     <g id="text_7">
      <!-- 0.6 -->
      <defs>
       <path d="M 33.015625 40.375 
Q 26.375 40.375 22.484375 35.828125 
Q 18.609375 31.296875 18.609375 23.390625 
Q 18.609375 15.53125 22.484375 10.953125 
Q 26.375 6.390625 33.015625 6.390625 
Q 39.65625 6.390625 43.53125 10.953125 
Q 47.40625 15.53125 47.40625 23.390625 
Q 47.40625 31.296875 43.53125 35.828125 
Q 39.65625 40.375 33.015625 40.375 
z
M 52.59375 71.296875 
L 52.59375 62.3125 
Q 48.875 64.0625 45.09375 64.984375 
Q 41.3125 65.921875 37.59375 65.921875 
Q 27.828125 65.921875 22.671875 59.328125 
Q 17.53125 52.734375 16.796875 39.40625 
Q 19.671875 43.65625 24.015625 45.921875 
Q 28.375 48.1875 33.59375 48.1875 
Q 44.578125 48.1875 50.953125 41.515625 
Q 57.328125 34.859375 57.328125 23.390625 
Q 57.328125 12.15625 50.6875 5.359375 
Q 44.046875 -1.421875 33.015625 -1.421875 
Q 20.359375 -1.421875 13.671875 8.265625 
Q 6.984375 17.96875 6.984375 36.375 
Q 6.984375 53.65625 15.1875 63.9375 
Q 23.390625 74.21875 37.203125 74.21875 
Q 40.921875 74.21875 44.703125 73.484375 
Q 48.484375 72.75 52.59375 71.296875 
z
" id="DejaVuSans-54"/>
      </defs>
      <g transform="translate(353.128438 463.158437)scale(0.1 -0.1)">
       <use xlink:href="#DejaVuSans-48"/>
       <use x="63.623047" xlink:href="#DejaVuSans-46"/>
       <use x="95.410156" xlink:href="#DejaVuSans-54"/>
      </g>
     </g>
    </g>
    <g id="xtick_8">
     <g id="line2d_15">
      <path clip-path="url(#p110dd61dff)" d="M 408.51 448.56 
L 408.51 60.48 
" style="fill:none;stroke:#b0b0b0;stroke-linecap:square;stroke-width:0.8;"/>
     </g>
     <g id="line2d_16">
      <g>
       <use style="stroke:#000000;stroke-width:0.8;" x="408.51" xlink:href="#m8e7f273f36" y="448.56"/>
      </g>
     </g>
     <g id="text_8">
      <!-- 0.7 -->
      <defs>
       <path d="M 8.203125 72.90625 
L 55.078125 72.90625 
L 55.078125 68.703125 
L 28.609375 0 
L 18.3125 0 
L 43.21875 64.59375 
L 8.203125 64.59375 
z
" id="DejaVuSans-55"/>
      </defs>
      <g transform="translate(400.558438 463.158437)scale(0.1 -0.1)">
       <use xlink:href="#DejaVuSans-48"/>
       <use x="63.623047" xlink:href="#DejaVuSans-46"/>
       <use x="95.410156" xlink:href="#DejaVuSans-55"/>
      </g>
     </g>
    </g>
    <g id="xtick_9">
     <g id="line2d_17">
      <path clip-path="url(#p110dd61dff)" d="M 455.94 448.56 
L 455.94 60.48 
" style="fill:none;stroke:#b0b0b0;stroke-linecap:square;stroke-width:0.8;"/>
     </g>
     <g id="line2d_18">
      <g>
       <use style="stroke:#000000;stroke-width:0.8;" x="455.94" xlink:href="#m8e7f273f36" y="448.56"/>
      </g>
     </g>
     <g id="text_9">
      <!-- 0.8 -->
      <defs>
       <path d="M 31.78125 34.625 
Q 24.75 34.625 20.71875 30.859375 
Q 16.703125 27.09375 16.703125 20.515625 
Q 16.703125 13.921875 20.71875 10.15625 
Q 24.75 6.390625 31.78125 6.390625 
Q 38.8125 6.390625 42.859375 10.171875 
Q 46.921875 13.96875 46.921875 20.515625 
Q 46.921875 27.09375 42.890625 30.859375 
Q 38.875 34.625 31.78125 34.625 
z
M 21.921875 38.8125 
Q 15.578125 40.375 12.03125 44.71875 
Q 8.5 49.078125 8.5 55.328125 
Q 8.5 64.0625 14.71875 69.140625 
Q 20.953125 74.21875 31.78125 74.21875 
Q 42.671875 74.21875 48.875 69.140625 
Q 55.078125 64.0625 55.078125 55.328125 
Q 55.078125 49.078125 51.53125 44.71875 
Q 48 40.375 41.703125 38.8125 
Q 48.828125 37.15625 52.796875 32.3125 
Q 56.78125 27.484375 56.78125 20.515625 
Q 56.78125 9.90625 50.3125 4.234375 
Q 43.84375 -1.421875 31.78125 -1.421875 
Q 19.734375 -1.421875 13.25 4.234375 
Q 6.78125 9.90625 6.78125 20.515625 
Q 6.78125 27.484375 10.78125 32.3125 
Q 14.796875 37.15625 21.921875 38.8125 
z
M 18.3125 54.390625 
Q 18.3125 48.734375 21.84375 45.5625 
Q 25.390625 42.390625 31.78125 42.390625 
Q 38.140625 42.390625 41.71875 45.5625 
Q 45.3125 48.734375 45.3125 54.390625 
Q 45.3125 60.0625 41.71875 63.234375 
Q 38.140625 66.40625 31.78125 66.40625 
Q 25.390625 66.40625 21.84375 63.234375 
Q 18.3125 60.0625 18.3125 54.390625 
z
" id="DejaVuSans-56"/>
      </defs>
      <g transform="translate(447.988438 463.158437)scale(0.1 -0.1)">
       <use xlink:href="#DejaVuSans-48"/>
       <use x="63.623047" xlink:href="#DejaVuSans-46"/>
       <use x="95.410156" xlink:href="#DejaVuSans-56"/>
      </g>
     </g>
    </g>
    <g id="xtick_10">
     <g id="line2d_19">
      <path clip-path="url(#p110dd61dff)" d="M 503.37 448.56 
L 503.37 60.48 
" style="fill:none;stroke:#b0b0b0;stroke-linecap:square;stroke-width:0.8;"/>
     </g>
     <g id="line2d_20">
      <g>
       <use style="stroke:#000000;stroke-width:0.8;" x="503.37" xlink:href="#m8e7f273f36" y="448.56"/>
      </g>
     </g>
     <g id="text_10">
      <!-- 0.9 -->
      <defs>
       <path d="M 10.984375 1.515625 
L 10.984375 10.5 
Q 14.703125 8.734375 18.5 7.8125 
Q 22.3125 6.890625 25.984375 6.890625 
Q 35.75 6.890625 40.890625 13.453125 
Q 46.046875 20.015625 46.78125 33.40625 
Q 43.953125 29.203125 39.59375 26.953125 
Q 35.25 24.703125 29.984375 24.703125 
Q 19.046875 24.703125 12.671875 31.3125 
Q 6.296875 37.9375 6.296875 49.421875 
Q 6.296875 60.640625 12.9375 67.421875 
Q 19.578125 74.21875 30.609375 74.21875 
Q 43.265625 74.21875 49.921875 64.515625 
Q 56.59375 54.828125 56.59375 36.375 
Q 56.59375 19.140625 48.40625 8.859375 
Q 40.234375 -1.421875 26.421875 -1.421875 
Q 22.703125 -1.421875 18.890625 -0.6875 
Q 15.09375 0.046875 10.984375 1.515625 
z
M 30.609375 32.421875 
Q 37.25 32.421875 41.125 36.953125 
Q 45.015625 41.5 45.015625 49.421875 
Q 45.015625 57.28125 41.125 61.84375 
Q 37.25 66.40625 30.609375 66.40625 
Q 23.96875 66.40625 20.09375 61.84375 
Q 16.21875 57.28125 16.21875 49.421875 
Q 16.21875 41.5 20.09375 36.953125 
Q 23.96875 32.421875 30.609375 32.421875 
z
" id="DejaVuSans-57"/>
      </defs>
      <g transform="translate(495.418438 463.158437)scale(0.1 -0.1)">
       <use xlink:href="#DejaVuSans-48"/>
       <use x="63.623047" xlink:href="#DejaVuSans-46"/>
       <use x="95.410156" xlink:href="#DejaVuSans-57"/>
      </g>
     </g>
    </g>
    <g id="xtick_11">
     <g id="line2d_21">
      <path clip-path="url(#p110dd61dff)" d="M 550.8 448.56 
L 550.8 60.48 
" style="fill:none;stroke:#b0b0b0;stroke-linecap:square;stroke-width:0.8;"/>
     </g>
     <g id="line2d_22">
      <g>
       <use style="stroke:#000000;stroke-width:0.8;" x="550.8" xlink:href="#m8e7f273f36" y="448.56"/>
      </g>
     </g>
     <g id="text_11">
      <!-- 1.0 -->
      <g transform="translate(542.848438 463.158437)scale(0.1 -0.1)">
       <use xlink:href="#DejaVuSans-49"/>
       <use x="63.623047" xlink:href="#DejaVuSans-46"/>
       <use x="95.410156" xlink:href="#DejaVuSans-48"/>
      </g>
     </g>
    </g>
    <g id="text_12">
     <!-- 1-precision -->
     <defs>
      <path d="M 4.890625 31.390625 
L 31.203125 31.390625 
L 31.203125 23.390625 
L 4.890625 23.390625 
z
" id="DejaVuSans-45"/>
      <path d="M 18.109375 8.203125 
L 18.109375 -20.796875 
L 9.078125 -20.796875 
L 9.078125 54.6875 
L 18.109375 54.6875 
L 18.109375 46.390625 
Q 20.953125 51.265625 25.265625 53.625 
Q 29.59375 56 35.59375 56 
Q 45.5625 56 51.78125 48.09375 
Q 58.015625 40.1875 58.015625 27.296875 
Q 58.015625 14.40625 51.78125 6.484375 
Q 45.5625 -1.421875 35.59375 -1.421875 
Q 29.59375 -1.421875 25.265625 0.953125 
Q 20.953125 3.328125 18.109375 8.203125 
z
M 48.6875 27.296875 
Q 48.6875 37.203125 44.609375 42.84375 
Q 40.53125 48.484375 33.40625 48.484375 
Q 26.265625 48.484375 22.1875 42.84375 
Q 18.109375 37.203125 18.109375 27.296875 
Q 18.109375 17.390625 22.1875 11.75 
Q 26.265625 6.109375 33.40625 6.109375 
Q 40.53125 6.109375 44.609375 11.75 
Q 48.6875 17.390625 48.6875 27.296875 
z
" id="DejaVuSans-112"/>
      <path d="M 41.109375 46.296875 
Q 39.59375 47.171875 37.8125 47.578125 
Q 36.03125 48 33.890625 48 
Q 26.265625 48 22.1875 43.046875 
Q 18.109375 38.09375 18.109375 28.8125 
L 18.109375 0 
L 9.078125 0 
L 9.078125 54.6875 
L 18.109375 54.6875 
L 18.109375 46.1875 
Q 20.953125 51.171875 25.484375 53.578125 
Q 30.03125 56 36.53125 56 
Q 37.453125 56 38.578125 55.875 
Q 39.703125 55.765625 41.0625 55.515625 
z
" id="DejaVuSans-114"/>
      <path d="M 56.203125 29.59375 
L 56.203125 25.203125 
L 14.890625 25.203125 
Q 15.484375 15.921875 20.484375 11.0625 
Q 25.484375 6.203125 34.421875 6.203125 
Q 39.59375 6.203125 44.453125 7.46875 
Q 49.3125 8.734375 54.109375 11.28125 
L 54.109375 2.78125 
Q 49.265625 0.734375 44.1875 -0.34375 
Q 39.109375 -1.421875 33.890625 -1.421875 
Q 20.796875 -1.421875 13.15625 6.1875 
Q 5.515625 13.8125 5.515625 26.8125 
Q 5.515625 40.234375 12.765625 48.109375 
Q 20.015625 56 32.328125 56 
Q 43.359375 56 49.78125 48.890625 
Q 56.203125 41.796875 56.203125 29.59375 
z
M 47.21875 32.234375 
Q 47.125 39.59375 43.09375 43.984375 
Q 39.0625 48.390625 32.421875 48.390625 
Q 24.90625 48.390625 20.390625 44.140625 
Q 15.875 39.890625 15.1875 32.171875 
z
" id="DejaVuSans-101"/>
      <path d="M 48.78125 52.59375 
L 48.78125 44.1875 
Q 44.96875 46.296875 41.140625 47.34375 
Q 37.3125 48.390625 33.40625 48.390625 
Q 24.65625 48.390625 19.8125 42.84375 
Q 14.984375 37.3125 14.984375 27.296875 
Q 14.984375 17.28125 19.8125 11.734375 
Q 24.65625 6.203125 33.40625 6.203125 
Q 37.3125 6.203125 41.140625 7.25 
Q 44.96875 8.296875 48.78125 10.40625 
L 48.78125 2.09375 
Q 45.015625 0.34375 40.984375 -0.53125 
Q 36.96875 -1.421875 32.421875 -1.421875 
Q 20.0625 -1.421875 12.78125 6.34375 
Q 5.515625 14.109375 5.515625 27.296875 
Q 5.515625 40.671875 12.859375 48.328125 
Q 20.21875 56 33.015625 56 
Q 37.15625 56 41.109375 55.140625 
Q 45.0625 54.296875 48.78125 52.59375 
z
" id="DejaVuSans-99"/>
      <path d="M 9.421875 54.6875 
L 18.40625 54.6875 
L 18.40625 0 
L 9.421875 0 
z
M 9.421875 75.984375 
L 18.40625 75.984375 
L 18.40625 64.59375 
L 9.421875 64.59375 
z
" id="DejaVuSans-105"/>
      <path d="M 44.28125 53.078125 
L 44.28125 44.578125 
Q 40.484375 46.53125 36.375 47.5 
Q 32.28125 48.484375 27.875 48.484375 
Q 21.1875 48.484375 17.84375 46.4375 
Q 14.5 44.390625 14.5 40.28125 
Q 14.5 37.15625 16.890625 35.375 
Q 19.28125 33.59375 26.515625 31.984375 
L 29.59375 31.296875 
Q 39.15625 29.25 43.1875 25.515625 
Q 47.21875 21.78125 47.21875 15.09375 
Q 47.21875 7.46875 41.1875 3.015625 
Q 35.15625 -1.421875 24.609375 -1.421875 
Q 20.21875 -1.421875 15.453125 -0.5625 
Q 10.6875 0.296875 5.421875 2 
L 5.421875 11.28125 
Q 10.40625 8.6875 15.234375 7.390625 
Q 20.0625 6.109375 24.8125 6.109375 
Q 31.15625 6.109375 34.5625 8.28125 
Q 37.984375 10.453125 37.984375 14.40625 
Q 37.984375 18.0625 35.515625 20.015625 
Q 33.0625 21.96875 24.703125 23.78125 
L 21.578125 24.515625 
Q 13.234375 26.265625 9.515625 29.90625 
Q 5.8125 33.546875 5.8125 39.890625 
Q 5.8125 47.609375 11.28125 51.796875 
Q 16.75 56 26.8125 56 
Q 31.78125 56 36.171875 55.265625 
Q 40.578125 54.546875 44.28125 53.078125 
z
" id="DejaVuSans-115"/>
      <path d="M 30.609375 48.390625 
Q 23.390625 48.390625 19.1875 42.75 
Q 14.984375 37.109375 14.984375 27.296875 
Q 14.984375 17.484375 19.15625 11.84375 
Q 23.34375 6.203125 30.609375 6.203125 
Q 37.796875 6.203125 41.984375 11.859375 
Q 46.1875 17.53125 46.1875 27.296875 
Q 46.1875 37.015625 41.984375 42.703125 
Q 37.796875 48.390625 30.609375 48.390625 
z
M 30.609375 56 
Q 42.328125 56 49.015625 48.375 
Q 55.71875 40.765625 55.71875 27.296875 
Q 55.71875 13.875 49.015625 6.21875 
Q 42.328125 -1.421875 30.609375 -1.421875 
Q 18.84375 -1.421875 12.171875 6.21875 
Q 5.515625 13.875 5.515625 27.296875 
Q 5.515625 40.765625 12.171875 48.375 
Q 18.84375 56 30.609375 56 
z
" id="DejaVuSans-111"/>
      <path d="M 54.890625 33.015625 
L 54.890625 0 
L 45.90625 0 
L 45.90625 32.71875 
Q 45.90625 40.484375 42.875 44.328125 
Q 39.84375 48.1875 33.796875 48.1875 
Q 26.515625 48.1875 22.3125 43.546875 
Q 18.109375 38.921875 18.109375 30.90625 
L 18.109375 0 
L 9.078125 0 
L 9.078125 54.6875 
L 18.109375 54.6875 
L 18.109375 46.1875 
Q 21.34375 51.125 25.703125 53.5625 
Q 30.078125 56 35.796875 56 
Q 45.21875 56 50.046875 50.171875 
Q 54.890625 44.34375 54.890625 33.015625 
z
" id="DejaVuSans-110"/>
     </defs>
     <g transform="translate(286.110938 476.836563)scale(0.1 -0.1)">
      <use xlink:href="#DejaVuSans-49"/>
      <use x="63.623047" xlink:href="#DejaVuSans-45"/>
      <use x="99.707031" xlink:href="#DejaVuSans-112"/>
      <use x="163.183594" xlink:href="#DejaVuSans-114"/>
      <use x="202.046875" xlink:href="#DejaVuSans-101"/>
      <use x="263.570312" xlink:href="#DejaVuSans-99"/>
      <use x="318.550781" xlink:href="#DejaVuSans-105"/>
      <use x="346.333984" xlink:href="#DejaVuSans-115"/>
      <use x="398.433594" xlink:href="#DejaVuSans-105"/>
      <use x="426.216797" xlink:href="#DejaVuSans-111"/>
      <use x="487.398438" xlink:href="#DejaVuSans-110"/>
     </g>
    </g>
   </g>
   <g id="matplotlib.axis_2">
    <g id="ytick_1">
     <g id="line2d_23">
      <path clip-path="url(#p110dd61dff)" d="M 76.5 448.56 
L 550.8 448.56 
" style="fill:none;stroke:#b0b0b0;stroke-linecap:square;stroke-width:0.8;"/>
     </g>
     <g id="line2d_24">
      <defs>
       <path d="M 0 0 
L -3.5 0 
" id="m0d8b8ec86a" style="stroke:#000000;stroke-width:0.8;"/>
      </defs>
      <g>
       <use style="stroke:#000000;stroke-width:0.8;" x="76.5" xlink:href="#m0d8b8ec86a" y="448.56"/>
      </g>
     </g>
     <g id="text_13">
      <!-- 0.0 -->
      <g transform="translate(53.596875 452.359219)scale(0.1 -0.1)">
       <use xlink:href="#DejaVuSans-48"/>
       <use x="63.623047" xlink:href="#DejaVuSans-46"/>
       <use x="95.410156" xlink:href="#DejaVuSans-48"/>
      </g>
     </g>
    </g>
    <g id="ytick_2">
     <g id="line2d_25">
      <path clip-path="url(#p110dd61dff)" d="M 76.5 409.752 
L 550.8 409.752 
" style="fill:none;stroke:#b0b0b0;stroke-linecap:square;stroke-width:0.8;"/>
     </g>
     <g id="line2d_26">
      <g>
       <use style="stroke:#000000;stroke-width:0.8;" x="76.5" xlink:href="#m0d8b8ec86a" y="409.752"/>
      </g>
     </g>
     <g id="text_14">
      <!-- 0.1 -->
      <g transform="translate(53.596875 413.551219)scale(0.1 -0.1)">
       <use xlink:href="#DejaVuSans-48"/>
       <use x="63.623047" xlink:href="#DejaVuSans-46"/>
       <use x="95.410156" xlink:href="#DejaVuSans-49"/>
      </g>
     </g>
    </g>
    <g id="ytick_3">
     <g id="line2d_27">
      <path clip-path="url(#p110dd61dff)" d="M 76.5 370.944 
L 550.8 370.944 
" style="fill:none;stroke:#b0b0b0;stroke-linecap:square;stroke-width:0.8;"/>
     </g>
     <g id="line2d_28">
      <g>
       <use style="stroke:#000000;stroke-width:0.8;" x="76.5" xlink:href="#m0d8b8ec86a" y="370.944"/>
      </g>
     </g>
     <g id="text_15">
      <!-- 0.2 -->
      <g transform="translate(53.596875 374.743219)scale(0.1 -0.1)">
       <use xlink:href="#DejaVuSans-48"/>
       <use x="63.623047" xlink:href="#DejaVuSans-46"/>
       <use x="95.410156" xlink:href="#DejaVuSans-50"/>
      </g>
     </g>
    </g>
    <g id="ytick_4">
     <g id="line2d_29">
      <path clip-path="url(#p110dd61dff)" d="M 76.5 332.136 
L 550.8 332.136 
" style="fill:none;stroke:#b0b0b0;stroke-linecap:square;stroke-width:0.8;"/>
     </g>
     <g id="line2d_30">
      <g>
       <use style="stroke:#000000;stroke-width:0.8;" x="76.5" xlink:href="#m0d8b8ec86a" y="332.136"/>
      </g>
     </g>
     <g id="text_16">
      <!-- 0.3 -->
      <g transform="translate(53.596875 335.935219)scale(0.1 -0.1)">
       <use xlink:href="#DejaVuSans-48"/>
       <use x="63.623047" xlink:href="#DejaVuSans-46"/>
       <use x="95.410156" xlink:href="#DejaVuSans-51"/>
      </g>
     </g>
    </g>
    <g id="ytick_5">
     <g id="line2d_31">
      <path clip-path="url(#p110dd61dff)" d="M 76.5 293.328 
L 550.8 293.328 
" style="fill:none;stroke:#b0b0b0;stroke-linecap:square;stroke-width:0.8;"/>
     </g>
     <g id="line2d_32">
      <g>
       <use style="stroke:#000000;stroke-width:0.8;" x="76.5" xlink:href="#m0d8b8ec86a" y="293.328"/>
      </g>
     </g>
     <g id="text_17">
      <!-- 0.4 -->
      <g transform="translate(53.596875 297.127219)scale(0.1 -0.1)">
       <use xlink:href="#DejaVuSans-48"/>
       <use x="63.623047" xlink:href="#DejaVuSans-46"/>
       <use x="95.410156" xlink:href="#DejaVuSans-52"/>
      </g>
     </g>
    </g>
    <g id="ytick_6">
     <g id="line2d_33">
      <path clip-path="url(#p110dd61dff)" d="M 76.5 254.52 
L 550.8 254.52 
" style="fill:none;stroke:#b0b0b0;stroke-linecap:square;stroke-width:0.8;"/>
     </g>
     <g id="line2d_34">
      <g>
       <use style="stroke:#000000;stroke-width:0.8;" x="76.5" xlink:href="#m0d8b8ec86a" y="254.52"/>
      </g>
     </g>
     <g id="text_18">
      <!-- 0.5 -->
      <g transform="translate(53.596875 258.319219)scale(0.1 -0.1)">
       <use xlink:href="#DejaVuSans-48"/>
       <use x="63.623047" xlink:href="#DejaVuSans-46"/>
       <use x="95.410156" xlink:href="#DejaVuSans-53"/>
      </g>
     </g>
    </g>
    <g id="ytick_7">
     <g id="line2d_35">
      <path clip-path="url(#p110dd61dff)" d="M 76.5 215.712 
L 550.8 215.712 
" style="fill:none;stroke:#b0b0b0;stroke-linecap:square;stroke-width:0.8;"/>
     </g>
     <g id="line2d_36">
      <g>
       <use style="stroke:#000000;stroke-width:0.8;" x="76.5" xlink:href="#m0d8b8ec86a" y="215.712"/>
      </g>
     </g>
     <g id="text_19">
      <!-- 0.6 -->
      <g transform="translate(53.596875 219.511219)scale(0.1 -0.1)">
       <use xlink:href="#DejaVuSans-48"/>
       <use x="63.623047" xlink:href="#DejaVuSans-46"/>
       <use x="95.410156" xlink:href="#DejaVuSans-54"/>
      </g>
     </g>
    </g>
    <g id="ytick_8">
     <g id="line2d_37">
      <path clip-path="url(#p110dd61dff)" d="M 76.5 176.904 
L 550.8 176.904 
" style="fill:none;stroke:#b0b0b0;stroke-linecap:square;stroke-width:0.8;"/>
     </g>
     <g id="line2d_38">
      <g>
       <use style="stroke:#000000;stroke-width:0.8;" x="76.5" xlink:href="#m0d8b8ec86a" y="176.904"/>
      </g>
     </g>
     <g id="text_20">
      <!-- 0.7 -->
      <g transform="translate(53.596875 180.703219)scale(0.1 -0.1)">
       <use xlink:href="#DejaVuSans-48"/>
       <use x="63.623047" xlink:href="#DejaVuSans-46"/>
       <use x="95.410156" xlink:href="#DejaVuSans-55"/>
      </g>
     </g>
    </g>
    <g id="ytick_9">
     <g id="line2d_39">
      <path clip-path="url(#p110dd61dff)" d="M 76.5 138.096 
L 550.8 138.096 
" style="fill:none;stroke:#b0b0b0;stroke-linecap:square;stroke-width:0.8;"/>
     </g>
     <g id="line2d_40">
      <g>
       <use style="stroke:#000000;stroke-width:0.8;" x="76.5" xlink:href="#m0d8b8ec86a" y="138.096"/>
      </g>
     </g>
     <g id="text_21">
      <!-- 0.8 -->
      <g transform="translate(53.596875 141.895219)scale(0.1 -0.1)">
       <use xlink:href="#DejaVuSans-48"/>
       <use x="63.623047" xlink:href="#DejaVuSans-46"/>
       <use x="95.410156" xlink:href="#DejaVuSans-56"/>
      </g>
     </g>
    </g>
    <g id="ytick_10">
     <g id="line2d_41">
      <path clip-path="url(#p110dd61dff)" d="M 76.5 99.288 
L 550.8 99.288 
" style="fill:none;stroke:#b0b0b0;stroke-linecap:square;stroke-width:0.8;"/>
     </g>
     <g id="line2d_42">
      <g>
       <use style="stroke:#000000;stroke-width:0.8;" x="76.5" xlink:href="#m0d8b8ec86a" y="99.288"/>
      </g>
     </g>
     <g id="text_22">
      <!-- 0.9 -->
      <g transform="translate(53.596875 103.087219)scale(0.1 -0.1)">
       <use xlink:href="#DejaVuSans-48"/>
       <use x="63.623047" xlink:href="#DejaVuSans-46"/>
       <use x="95.410156" xlink:href="#DejaVuSans-57"/>
      </g>
     </g>
    </g>
    <g id="ytick_11">
     <g id="line2d_43">
      <path clip-path="url(#p110dd61dff)" d="M 76.5 60.48 
L 550.8 60.48 
" style="fill:none;stroke:#b0b0b0;stroke-linecap:square;stroke-width:0.8;"/>
     </g>
     <g id="line2d_44">
      <g>
       <use style="stroke:#000000;stroke-width:0.8;" x="76.5" xlink:href="#m0d8b8ec86a" y="60.48"/>
      </g>
     </g>
     <g id="text_23">
      <!-- 1.0 -->
      <g transform="translate(53.596875 64.279219)scale(0.1 -0.1)">
       <use xlink:href="#DejaVuSans-49"/>
       <use x="63.623047" xlink:href="#DejaVuSans-46"/>
       <use x="95.410156" xlink:href="#DejaVuSans-48"/>
      </g>
     </g>
    </g>
    <g id="text_24">
     <!-- #correct/653 -->
     <defs>
      <path d="M 51.125 44 
L 36.921875 44 
L 32.8125 27.6875 
L 47.125 27.6875 
z
M 43.796875 71.78125 
L 38.71875 51.515625 
L 52.984375 51.515625 
L 58.109375 71.78125 
L 65.921875 71.78125 
L 60.890625 51.515625 
L 76.125 51.515625 
L 76.125 44 
L 58.984375 44 
L 54.984375 27.6875 
L 70.515625 27.6875 
L 70.515625 20.21875 
L 53.078125 20.21875 
L 48 0 
L 40.1875 0 
L 45.21875 20.21875 
L 30.90625 20.21875 
L 25.875 0 
L 18.015625 0 
L 23.09375 20.21875 
L 7.71875 20.21875 
L 7.71875 27.6875 
L 24.90625 27.6875 
L 29 44 
L 13.28125 44 
L 13.28125 51.515625 
L 30.90625 51.515625 
L 35.890625 71.78125 
z
" id="DejaVuSans-35"/>
      <path d="M 18.3125 70.21875 
L 18.3125 54.6875 
L 36.8125 54.6875 
L 36.8125 47.703125 
L 18.3125 47.703125 
L 18.3125 18.015625 
Q 18.3125 11.328125 20.140625 9.421875 
Q 21.96875 7.515625 27.59375 7.515625 
L 36.8125 7.515625 
L 36.8125 0 
L 27.59375 0 
Q 17.1875 0 13.234375 3.875 
Q 9.28125 7.765625 9.28125 18.015625 
L 9.28125 47.703125 
L 2.6875 47.703125 
L 2.6875 54.6875 
L 9.28125 54.6875 
L 9.28125 70.21875 
z
" id="DejaVuSans-116"/>
      <path d="M 25.390625 72.90625 
L 33.6875 72.90625 
L 8.296875 -9.28125 
L 0 -9.28125 
z
" id="DejaVuSans-47"/>
     </defs>
     <g transform="translate(47.517187 287.443438)rotate(-90)scale(0.1 -0.1)">
      <use xlink:href="#DejaVuSans-35"/>
      <use x="83.789062" xlink:href="#DejaVuSans-99"/>
      <use x="138.769531" xlink:href="#DejaVuSans-111"/>
      <use x="199.951172" xlink:href="#DejaVuSans-114"/>
      <use x="239.314453" xlink:href="#DejaVuSans-114"/>
      <use x="278.177734" xlink:href="#DejaVuSans-101"/>
      <use x="339.701172" xlink:href="#DejaVuSans-99"/>
      <use x="394.681641" xlink:href="#DejaVuSans-116"/>
      <use x="433.890625" xlink:href="#DejaVuSans-47"/>
      <use x="467.582031" xlink:href="#DejaVuSans-54"/>
      <use x="531.205078" xlink:href="#DejaVuSans-53"/>
      <use x="594.828125" xlink:href="#DejaVuSans-51"/>
     </g>
    </g>
   </g>
   <g id="line2d_45">
    <path clip-path="url(#p110dd61dff)" d="M 76.5 447.965697 
L 76.5 261.354487 
L 78.000949 261.354487 
L 77.859026 241.742481 
L 79.210286 241.742481 
L 79.098904 232.827933 
L 80.387705 232.827933 
L 80.377112 232.233629 
L 81.655435 232.233629 
L 81.532361 226.8849 
L 82.77381 226.8849 
L 82.549745 218.564655 
L 84.92665 218.564655 
L 84.405 203.112772 
L 85.512827 203.112772 
L 85.324186 197.764043 
L 87.479167 197.764043 
L 87.182432 190.632404 
L 88.22427 190.632404 
L 88.042699 186.472282 
L 89.064238 186.472282 
L 88.927074 183.500766 
L 91.932755 183.500766 
L 91.8 181.123553 
L 92.784979 181.123553 
L 92.68081 179.340643 
L 93.655532 179.340643 
L 93.510759 176.96343 
L 94.473474 176.96343 
L 94.323382 174.586217 
L 95.274375 174.586217 
L 95.235343 173.991914 
L 96.180498 173.991914 
L 95.898773 169.831792 
L 97.751731 169.831792 
L 97.708537 169.237489 
L 99.542915 169.237489 
L 99.312024 166.265972 
L 100.215 166.265972 
L 100.120518 165.077366 
L 101.016501 165.077366 
L 100.823077 162.700153 
L 101.708858 162.700153 
L 101.61 161.511547 
L 102.489041 161.511547 
L 102.337354 159.728637 
L 103.208155 159.728637 
L 103.002312 157.351424 
L 103.863462 157.351424 
L 103.65458 154.974211 
L 107.042045 154.974211 
L 106.812406 152.596998 
L 108.475281 152.596998 
L 108.415514 152.002695 
L 109.240858 152.002695 
L 109.179888 151.408392 
L 110.000743 151.408392 
L 109.93859 150.814089 
L 110.755 150.814089 
L 110.628598 149.625482 
L 111.439227 149.625482 
L 111.375 149.031179 
L 113.785009 149.031179 
L 113.716971 148.436876 
L 115.306364 148.436876 
L 115.235935 147.842573 
L 119.927828 147.842573 
L 119.85 147.24827 
L 120.62093 147.24827 
L 120.542143 146.653966 
L 122.07331 146.653966 
L 121.911702 145.46536 
L 124.180952 145.46536 
L 124.097007 144.871057 
L 126.338879 144.871057 
L 126.251748 144.276753 
L 127.73101 144.276753 
L 127.464645 142.493844 
L 129.65431 142.493844 
L 129.562823 141.899541 
L 132.443077 141.899541 
L 132.347611 141.305237 
L 137.983333 141.305237 
L 137.777013 140.116631 
L 140.5305 140.116631 
L 140.42396 139.522328 
L 141.785075 139.522328 
L 141.676987 138.928025 
L 147.025 138.928025 
L 146.909951 138.333721 
L 148.223415 138.333721 
L 148.106981 137.739418 
L 149.410194 137.739418 
L 149.292407 137.145115 
L 150.585507 137.145115 
L 150.466399 136.550812 
L 151.749519 136.550812 
L 151.62912 135.956508 
L 155.424723 135.956508 
L 155.299842 135.362205 
L 158.404239 135.362205 
L 158.275862 134.767902 
L 163.736012 134.767902 
L 163.46718 133.579296 
L 166.42844 133.579296 
L 166.291145 132.984992 
L 166.877287 132.984992 
L 166.739726 132.390689 
L 172.497751 132.390689 
L 172.354042 131.796386 
L 177.385081 131.796386 
L 177.236283 131.202083 
L 184.793931 131.202083 
L 184.637662 130.607779 
L 191.888402 130.607779 
L 191.725424 130.013476 
L 200.628099 130.013476 
L 200.457359 129.419173 
L 204.74144 129.419173 
L 204.393902 128.230567 
L 211.294422 128.230567 
L 211.11565 127.636263 
L 215.56178 127.636263 
L 215.38 127.04196 
L 218.851358 127.04196 
L 218.667442 126.447657 
L 219.523454 126.447657 
L 219.339382 125.853354 
L 237.865735 125.853354 
L 237.669903 125.259051 
L 241.42446 125.259051 
L 241.226946 124.664747 
L 245.252128 124.664747 
L 245.052893 124.070444 
L 247.913684 124.070444 
L 247.713435 123.476141 
L 254.970924 123.476141 
L 254.767654 122.881838 
L 262.963455 122.881838 
L 262.75719 122.287534 
L 269.296541 122.287534 
L 269.088337 121.693231 
L 304.932893 121.693231 
L 304.717797 121.098928 
L 317.877273 121.098928 
L 317.662333 120.504625 
L 331.341827 120.504625 
L 331.128392 119.910322 
L 333.853846 119.910322 
L 333.641157 119.316018 
L 337.345735 119.316018 
L 337.13401 118.721715 
L 339.534751 118.721715 
L 339.323817 118.127412 
L 341.172973 118.127412 
L 340.962748 117.533109 
L 350.811279 117.533109 
L 350.603782 116.938806 
L 353.145482 116.938806 
L 352.93903 116.344502 
L 369.573958 116.344502 
L 369.37377 115.750199 
L 379.990997 115.750199 
L 379.795951 115.155896 
L 379.90578 115.155896 
L 380.561804 115.155896 
L 380.367391 114.561593 
L 380.476294 114.561593 
L 385.647212 114.561593 
L 385.455789 113.967289 
L 385.558106 113.967289 
L 386.776106 113.967289 
L 386.585635 113.372986 
L 386.68638 113.372986 
L 399.837698 113.372986 
L 399.65533 112.778683 
L 399.74053 112.778683 
L 404.762125 112.778683 
L 404.583333 112.18438 
L 404.662929 112.18438 
L 413.272439 112.18438 
L 413.1 111.590077 
L 413.170471 111.590077 
L 417.996 111.590077 
L 417.827443 110.995773 
L 417.893044 110.995773 
L 428.455586 110.995773 
L 428.295824 110.40147 
L 428.406939 110.40147 
L 430.748087 110.40147 
L 430.590574 109.807167 
L 430.697379 109.807167 
L 434.017711 109.807167 
L 433.863342 109.212864 
L 433.964236 109.212864 
L 436.092122 109.212864 
L 435.939881 108.61856 
L 436.037056 108.61856 
L 437.71138 108.61856 
L 437.560875 108.024257 
L 437.655162 108.024257 
L 442.350718 108.024257 
L 442.204787 107.429954 
L 442.291351 107.429954 
L 459.655641 107.429954 
L 459.52741 106.835651 
L 459.618957 106.835651 
L 464.740518 106.835651 
L 464.618044 106.241348 
L 464.726654 106.241348 
L 468.337941 106.241348 
L 468.219704 105.647044 
L 468.319259 105.647044 
L 472.384212 105.647044 
L 472.270811 105.052741 
L 472.383124 105.052741 
L 480.524327 105.052741 
L 480.420784 104.458438 
L 480.528838 104.458438 
L 482.247903 104.458438 
L 482.146643 103.864135 
L 482.24929 103.864135 
L 482.892323 103.864135 
L 482.892323 103.864135 
" style="fill:none;stroke:#1f77b4;stroke-linecap:square;stroke-width:2;"/>
   </g>
   <g id="line2d_46">
    <path clip-path="url(#p110dd61dff)" d="M 76.5 447.965697 
L 76.5 442.022665 
L 116.025 442.022665 
L 110.378571 440.834058 
L 106.14375 439.645452 
L 102.85 438.456845 
L 100.215 437.268239 
L 98.059091 436.079632 
L 96.2625 434.891026 
L 94.066667 433.108116 
L 110.378571 433.108116 
L 109.210345 432.513813 
L 137.7 432.513813 
L 135.7875 431.91951 
L 148.363636 431.91951 
L 146.25 431.325207 
L 179.051351 431.325207 
L 176.352632 430.730904 
L 203.75122 430.730904 
L 200.721429 430.1366 
L 208.862791 430.1366 
L 202.98 428.947994 
L 224.71875 428.947994 
L 221.693878 428.353691 
L 234.6 428.353691 
L 228.633962 427.165084 
L 245.892857 427.165084 
L 242.921053 426.570781 
L 258.315 426.570781 
L 255.334426 425.976478 
L 285.75 425.976478 
L 276.908451 424.193568 
L 301.488462 424.193568 
L 298.640506 423.599265 
L 324.429545 423.599265 
L 321.64382 423.004962 
L 356.562857 423.004962 
L 353.920755 422.410658 
L 357.566667 422.410658 
L 354.988073 421.816355 
L 375.853279 421.816355 
L 373.419512 421.222052 
L 381.669767 421.222052 
L 377.010687 420.033446 
L 378.327273 420.033446 
L 376.057895 419.439142 
L 381.159854 419.439142 
L 378.952174 418.844839 
L 394.780263 418.844839 
L 392.7 418.250536 
L 393.726623 418.250536 
L 391.68 417.656233 
L 392.7 417.656233 
L 390.685987 417.06193 
L 391.699367 417.06193 
L 389.716981 416.467626 
L 404.444571 416.467626 
L 402.58125 415.873323 
L 403.418644 415.873323 
L 401.582022 415.27902 
L 410.266667 415.27902 
L 408.51 414.684717 
L 411.443814 414.684717 
L 409.726154 414.090413 
L 411.158376 414.090413 
L 409.468182 413.49611 
L 418.175829 413.49611 
L 416.564151 412.901807 
L 438.317787 412.901807 
L 436.893307 412.307504 
L 437.34 412.307504 
L 435.930469 411.713201 
L 440.248872 411.713201 
L 438.886517 411.118897 
L 446.685366 411.118897 
L 445.4 410.524594 
L 449.952159 410.524594 
L 448.715563 409.930291 
L 449.052475 409.930291 
L 447.826974 409.335988 
L 465.036164 409.335988 
L 463.97459 408.741685 
L 465.604021 408.741685 
L 464.563636 408.147381 
L 466.148031 408.147381 
L 465.12801 407.553078 
L 466.669666 407.553078 
L 465.669231 406.958775 
L 466.959091 406.958775 
L 465.975567 406.364472 
L 466.188693 406.364472 
L 468.864964 406.364472 
L 467.912621 405.770168 
L 468.113317 405.770168 
L 476.722777 405.770168 
L 475.856494 405.175865 
L 476.018359 405.175865 
L 476.975053 405.175865 
L 475.274522 403.987259 
L 475.434534 403.987259 
L 479.797006 403.987259 
L 478.993625 403.392956 
L 479.136382 403.392956 
L 479.981139 403.392956 
L 479.19 402.798652 
L 479.330137 402.798652 
L 483.541989 402.798652 
L 482.79375 402.204349 
L 482.918532 402.204349 
L 483.535636 402.204349 
L 482.796915 401.610046 
L 482.920109 401.610046 
L 486.197069 401.610046 
L 485.49191 401.015743 
L 485.604124 401.015743 
L 487.56 401.015743 
L 486.87604 400.42144 
L 486.982226 400.42144 
L 489.428914 400.42144 
L 488.770335 399.827136 
L 488.869108 399.827136 
L 490.873035 399.827136 
L 490.235538 399.232833 
L 490.328571 399.232833 
L 490.880822 399.232833 
L 490.251064 398.63853 
L 490.342944 398.63853 
L 491.688427 398.63853 
L 491.073333 398.044227 
L 491.161686 398.044227 
L 494.80625 398.044227 
L 494.226075 397.449923 
L 494.304432 397.449923 
L 496.630279 397.449923 
L 496.073077 396.85562 
L 496.217857 396.85562 
L 502.024468 396.85562 
L 501.522078 396.261317 
L 501.638163 396.261317 
L 502.879908 396.261317 
L 502.39094 395.667014 
L 502.501716 395.667014 
L 503.048077 395.667014 
L 502.566102 395.072711 
L 502.674859 395.072711 
L 503.891209 395.072711 
L 503.422064 394.478407 
L 503.525849 394.478407 
L 505.029799 394.478407 
L 504.575847 393.884104 
L 504.673573 393.884104 
L 507.338247 393.884104 
L 506.909552 393.289801 
L 507.040179 393.289801 
L 508.589569 393.289801 
L 508.176482 392.695498 
L 508.298379 392.695498 
L 509.934555 392.695498 
L 509.537637 392.101194 
L 509.650685 392.101194 
L 510.243294 392.101194 
L 509.463881 390.912588 
L 509.575 390.912588 
L 509.685523 390.912588 
L 509.29875 390.318285 
L 509.409617 390.318285 
L 509.738693 390.318285 
L 509.356311 389.723982 
L 509.465757 389.723982 
L 511.539381 389.723982 
L 511.17594 389.129678 
L 511.275 389.129678 
L 513.716341 389.129678 
L 513.151284 387.941072 
L 513.268115 387.941072 
L 512.929535 387.346769 
L 513.0466 387.346769 
L 513.220846 387.346769 
L 512.885165 386.752466 
L 513.001379 386.752466 
L 513.174371 386.752466 
L 512.84154 386.158162 
L 512.956915 386.158162 
L 514.607049 386.158162 
L 514.288889 385.563859 
L 514.394642 385.563859 
L 515.691201 385.563859 
L 515.153236 384.375253 
L 515.20278 384.375253 
L 515.545767 384.375253 
L 515.24381 383.780949 
L 515.365661 383.780949 
L 516.720435 383.780949 
L 516.430435 383.186646 
L 516.54327 383.186646 
L 517.291329 383.186646 
L 516.72585 381.99804 
L 516.834783 381.99804 
L 517.178734 381.99804 
L 516.9 381.403737 
L 517.006873 381.403737 
L 517.070673 381.403737 
L 516.538379 380.21513 
L 516.624248 380.21513 
L 517.088937 380.21513 
L 516.8168 379.620827 
L 516.921429 379.620827 
L 518.089655 379.620827 
L 517.827273 379.026524 
L 517.944405 379.026524 
L 519.4125 379.026524 
L 519.162125 378.432221 
L 519.26907 378.432221 
L 520.250109 378.432221 
L 519.766194 377.243614 
L 519.884193 377.243614 
L 520.017956 377.243614 
L 519.778216 376.649311 
L 519.895153 376.649311 
L 520.32188 376.649311 
L 520.086306 376.055008 
L 520.2 376.055008 
L 520.296784 376.055008 
L 519.910714 374.866401 
L 519.943127 374.866401 
L 520.0721 374.866401 
L 519.84047 374.272098 
L 519.953226 374.272098 
L 520.658922 374.272098 
L 520.433232 373.677795 
L 520.540861 373.677795 
L 521.476251 373.677795 
L 521.258019 373.083492 
L 521.373473 373.083492 
L 522.480254 373.083492 
L 522.270677 372.489188 
L 522.377528 372.489188 
L 522.601951 372.489188 
L 522.394847 371.894885 
L 522.499954 371.894885 
L 522.630249 371.894885 
L 522.424942 371.300582 
L 522.54198 371.300582 
L 523.112977 371.300582 
L 522.912522 370.706279 
L 523.024721 370.706279 
L 523.808992 370.706279 
L 523.614763 370.111975 
L 523.720588 370.111975 
L 524.033177 370.111975 
L 523.841923 369.517672 
L 523.956638 369.517672 
L 524.65748 369.517672 
L 524.471831 368.923369 
L 524.580446 368.923369 
L 524.709606 368.923369 
L 524.374437 367.734763 
L 524.45 367.734763 
L 525.080383 367.734763 
L 524.816118 366.546156 
L 524.836731 366.546156 
L 524.959732 366.546156 
L 524.636879 365.35755 
L 524.719089 365.35755 
L 525.132431 365.35755 
L 524.95908 364.763247 
L 525.068449 364.763247 
L 525.157247 364.763247 
L 524.985282 364.168943 
L 525.093664 364.168943 
L 525.317367 364.168943 
L 525.147617 363.57464 
L 525.253898 363.57464 
L 525.378373 363.57464 
L 525.210191 362.980337 
L 525.32473 362.980337 
L 525.353204 362.980337 
L 525.186034 362.386034 
L 525.3 362.386034 
L 525.927125 362.386034 
L 525.620477 361.197427 
L 525.711083 361.197427 
L 525.80104 361.197427 
L 525.57848 360.008821 
L 525.587478 360.008821 
L 525.801521 360.008821 
L 525.642645 359.414518 
L 525.748944 359.414518 
L 525.950192 359.414518 
L 525.793261 358.820214 
L 525.906257 358.820214 
L 526.052488 358.820214 
L 525.897202 358.225911 
L 526.008528 358.225911 
L 526.068062 358.225911 
L 525.913889 357.631608 
L 526.024343 357.631608 
L 526.133821 357.631608 
L 525.870702 356.443002 
L 525.938147 356.443002 
L 526.179605 356.443002 
L 525.786849 354.660092 
L 525.836842 354.660092 
L 525.944478 354.660092 
L 525.795458 354.065789 
L 525.902773 354.065789 
L 526.889505 354.065789 
L 526.746751 353.471485 
L 526.860568 353.471485 
L 527.261538 353.471485 
L 527.121767 352.877182 
L 527.231389 352.877182 
L 527.267704 352.877182 
L 527.128835 352.282879 
L 527.237718 352.282879 
L 527.85 352.282879 
L 527.466816 350.499969 
L 527.556905 350.499969 
L 527.598251 350.499969 
L 527.420986 349.311363 
L 527.441669 349.311363 
L 527.530875 349.311363 
L 527.398414 348.71706 
L 527.507863 348.71706 
L 528.354254 348.71706 
L 528.017612 346.93415 
L 528.081429 346.93415 
L 528.314472 346.93415 
L 528.189246 346.339847 
L 528.301489 346.339847 
L 528.510492 346.339847 
L 528.269779 345.15124 
L 528.373859 345.15124 
L 529.156098 345.15124 
L 528.930259 343.962634 
L 529.02723 343.962634 
L 530.193532 343.962634 
L 530.193532 343.962634 
" style="fill:none;stroke:#ff7f0e;stroke-linecap:square;stroke-width:2;"/>
   </g>
   <g id="line2d_47">
    <path clip-path="url(#p110dd61dff)" d="M 76.5 447.965697 
L 76.5 357.037305 
L 79.56 357.037305 
L 79.540385 356.443002 
L 82.542038 356.443002 
L 82.355556 353.471485 
L 85.229448 353.471485 
L 85.17622 352.877182 
L 87.998182 352.877182 
L 86.981768 343.368331 
L 89.53022 343.368331 
L 88.787565 336.830995 
L 91.169072 336.830995 
L 90.800503 333.859479 
L 97.632178 333.859479 
L 97.425 332.670873 
L 99.636585 332.670873 
L 99.19378 330.29366 
L 101.344286 330.29366 
L 100.994366 328.51075 
L 103.096262 328.51075 
L 102.489041 325.539234 
L 110.530493 325.539234 
L 110.078761 323.756325 
L 112.020264 323.756325 
L 111.864474 323.162021 
L 123.119231 323.162021 
L 122.920851 322.567718 
L 124.733898 322.567718 
L 124.53038 321.973415 
L 126.321429 321.973415 
L 125.90625 320.784809 
L 127.669295 320.784809 
L 126.629268 317.813292 
L 128.346559 317.813292 
L 127.93012 316.624686 
L 131.299602 316.624686 
L 130.866403 315.43608 
L 134.16 315.43608 
L 133.489535 313.65317 
L 135.100772 313.65317 
L 134.209506 311.275957 
L 135.7875 311.275957 
L 135.563774 310.681654 
L 141.73829 310.681654 
L 141.496667 310.087351 
L 144.50625 310.087351 
L 143.764364 308.304441 
L 148.156835 308.304441 
L 147.9 307.710138 
L 149.338929 307.710138 
L 148.82234 306.521531 
L 151.653169 306.521531 
L 150.609375 304.144319 
L 151.994118 304.144319 
L 151.733793 303.550015 
L 157.163265 303.550015 
L 156.618243 302.361409 
L 159.263758 302.361409 
L 158.986957 301.767106 
L 161.590365 301.767106 
L 161.308609 301.172802 
L 162.594059 301.172802 
L 161.75 299.389893 
L 165.527184 299.389893 
L 165.24 298.79559 
L 166.479743 298.79559 
L 165.056013 295.824074 
L 166.272871 295.824074 
L 165.990566 295.22977 
L 170.770807 295.22977 
L 170.188889 294.041164 
L 180.475676 294.041164 
L 179.854925 292.852557 
L 185.31 292.852557 
L 184.990909 292.258254 
L 192.349138 292.258254 
L 192.017192 291.663951 
L 195.075 291.663951 
L 194.405085 290.475345 
L 196.407303 290.475345 
L 195.73743 289.286738 
L 197.71 289.286738 
L 197.374238 288.692435 
L 202.202459 288.692435 
L 201.180488 286.909525 
L 202.125405 286.909525 
L 201.786792 286.315222 
L 212.721932 286.315222 
L 212.014286 285.126616 
L 214.633763 285.126616 
L 214.278663 284.532312 
L 215.141538 284.532312 
L 214.434184 283.343706 
L 216.988861 283.343706 
L 216.281108 282.1551 
L 219.617955 282.1551 
L 219.26194 281.560796 
L 221.717778 281.560796 
L 221.360099 280.966493 
L 227.726087 280.966493 
L 227.361687 280.37219 
L 231.971259 280.37219 
L 231.23617 279.183583 
L 234.969393 279.183583 
L 234.6 278.58928 
L 237.521016 278.58928 
L 237.15 277.994977 
L 248.972727 277.994977 
L 248.59115 277.400674 
L 252.550218 277.400674 
L 252.166667 276.806371 
L 255.384698 276.806371 
L 255 276.212067 
L 255.634764 276.212067 
L 255.251178 275.617764 
L 259.615823 275.617764 
L 259.230316 275.023461 
L 264.652066 275.023461 
L 264.264124 274.429158 
L 265.440862 274.429158 
L 265.053689 273.834855 
L 266.799593 273.834855 
L 266.027586 272.646248 
L 266.604049 272.646248 
L 266.22 272.051945 
L 269.628144 272.051945 
L 268.860239 270.863338 
L 273.816211 270.863338 
L 273.431579 270.269035 
L 276.63815 270.269035 
L 276.253269 269.674732 
L 276.78023 269.674732 
L 276.396552 269.080429 
L 278.48327 269.080429 
L 278.1 268.486126 
L 280.154237 268.486126 
L 279.771429 267.891822 
L 281.79403 267.891822 
L 281.411732 267.297519 
L 283.403512 267.297519 
L 283.021771 266.703216 
L 284.00625 266.703216 
L 283.625505 266.108913 
L 290.316816 266.108913 
L 289.935 265.514609 
L 294.511579 265.514609 
L 294.129772 264.920306 
L 296.357813 264.920306 
L 295.976776 264.326003 
L 298.599314 264.326003 
L 297.84 263.137397 
L 300.831081 263.137397 
L 300.075758 261.94879 
L 300.497143 261.94879 
L 300.121309 261.354487 
L 301.7925 261.354487 
L 301.417637 260.760184 
L 303.066446 260.760184 
L 302.692574 260.165881 
L 305.525775 260.165881 
L 305.152769 259.571577 
L 308.312219 259.571577 
L 307.940128 258.977274 
L 308.329327 258.977274 
L 307.9584 258.382971 
L 308.346326 258.382971 
L 307.976555 257.788668 
L 311.78854 257.788668 
L 311.419749 257.194364 
L 311.794366 257.194364 
L 311.060218 256.005758 
L 312.546977 256.005758 
L 312.181579 255.411455 
L 315.100459 255.411455 
L 314.373018 254.222848 
L 314.732877 254.222848 
L 314.370821 253.628545 
L 316.507229 253.628545 
L 315.786486 252.439939 
L 316.49012 252.439939 
L 316.13139 251.845636 
L 317.526152 251.845636 
L 317.168546 251.251332 
L 317.859763 251.251332 
L 317.50325 250.657029 
L 318.873568 250.657029 
L 318.518182 250.062726 
L 319.197368 250.062726 
L 318.843066 249.468423 
L 320.523913 249.468423 
L 320.170767 248.874119 
L 321.498129 248.874119 
L 321.146121 248.279816 
L 322.13176 248.279816 
L 321.430956 247.09121 
L 322.083499 247.09121 
L 321.734659 246.496907 
L 323.989873 246.496907 
L 323.295652 245.3083 
L 325.5075 245.3083 
L 325.162136 244.713997 
L 326.407034 244.713997 
L 326.06281 244.119694 
L 326.371939 244.119694 
L 326.028709 243.525391 
L 326.951163 243.525391 
L 326.609016 242.931087 
L 327.827446 242.931087 
L 327.486431 242.336784 
L 330.475904 242.336784 
L 330.136364 241.742481 
L 332.471429 241.742481 
L 332.133289 241.148178 
L 332.421768 241.148178 
L 331.748289 239.959571 
L 333.18 239.959571 
L 332.844909 239.365268 
L 335.930502 239.365268 
L 335.597044 238.770965 
L 336.697826 238.770965 
L 336.365517 238.176662 
L 337.183969 238.176662 
L 336.852732 237.582358 
L 339.537139 237.582358 
L 339.207519 236.988055 
L 340.525031 236.988055 
L 340.196642 236.393752 
L 340.458261 236.393752 
L 340.130769 235.799449 
L 341.429593 235.799449 
L 341.103325 235.205145 
L 343.149146 235.205145 
L 342.824361 234.610842 
L 343.077372 234.610842 
L 342.753463 234.016539 
L 343.257818 234.016539 
L 342.934867 233.422236 
L 351.152791 233.422236 
L 350.515545 232.233629 
L 355.5 232.233629 
L 355.184746 231.639326 
L 357.370391 231.639326 
L 357.05692 231.045023 
L 358.983646 231.045023 
L 358.671854 230.45072 
L 360.353501 230.45072 
L 360.043279 229.856417 
L 362.917976 229.856417 
L 362.61 229.262113 
L 365.007325 229.262113 
L 364.701379 228.66781 
L 364.898517 228.66781 
L 364.593333 228.073507 
L 364.790169 228.073507 
L 364.485744 227.479204 
L 366.046492 227.479204 
L 365.743619 226.8849 
L 365.936991 226.8849 
L 365.634864 226.290597 
L 367.736842 226.290597 
L 367.436598 225.696294 
L 370.045427 225.696294 
L 369.747411 225.101991 
L 370.661818 225.101991 
L 370.364985 224.507688 
L 372.523729 224.507688 
L 372.228884 223.913384 
L 373.113776 223.913384 
L 372.820099 223.319081 
L 374.045133 223.319081 
L 373.752849 222.724778 
L 375.133333 222.724778 
L 374.842551 222.130475 
L 375.013716 222.130475 
L 374.723615 221.536172 
L 376.081967 221.536172 
L 375.793353 220.941868 
L 376.799138 220.941868 
L 376.51177 220.347565 
L 377.671483 220.347565 
L 377.38547 219.753262 
L 379.339437 219.753262 
L 379.055347 219.158959 
L 379.216307 219.158959 
L 378.932865 218.564655 
L 379.093639 218.564655 
L 378.810841 217.970352 
L 378.971429 217.970352 
L 378.689272 217.376049 
L 378.849674 217.376049 
L 378.568156 216.781746 
L 381.562123 216.781746 
L 381.283272 216.187443 
L 387.118358 216.187443 
L 386.844444 215.593139 
L 387.850307 215.593139 
L 387.577671 214.998836 
L 388.147382 214.998836 
L 387.875676 214.404533 
L 388.159269 214.404533 
L 387.888261 213.81023 
L 388.452946 213.81023 
L 388.182857 213.215926 
L 389.301462 213.215926 
L 389.032732 212.621623 
L 395.311065 212.621623 
L 395.04802 212.02732 
L 395.942412 212.02732 
L 395.680574 211.433017 
L 397.935945 211.433017 
L 397.676513 210.838714 
L 399.628685 210.838714 
L 399.371417 210.24441 
L 399.491885 210.24441 
L 400.804495 210.24441 
L 400.548936 209.650107 
L 400.667244 209.650107 
L 400.785366 209.650107 
L 400.530425 209.055804 
L 400.648468 209.055804 
L 402.050661 209.055804 
L 401.797512 208.461501 
L 401.913287 208.461501 
L 403.74152 208.461501 
L 403.352986 207.272894 
L 403.57844 207.272894 
L 403.328571 206.678591 
L 403.441145 206.678591 
L 404.335584 206.678591 
L 404.087036 206.084288 
L 404.198182 206.084288 
L 406.49396 206.084288 
L 406.248063 205.489985 
L 406.355696 205.489985 
L 408.266054 205.489985 
L 408.022467 204.895681 
L 408.127219 204.895681 
L 414.811888 204.895681 
L 414.575472 204.301378 
L 414.670601 204.301378 
L 416.174793 204.301378 
L 415.940373 203.707075 
L 416.033379 203.707075 
L 420.5256 203.707075 
L 420.296402 203.112772 
L 420.383289 203.112772 
L 422.097043 203.112772 
L 421.643504 201.924165 
L 421.728197 201.924165 
L 422.06586 201.924165 
L 421.84 201.329862 
L 421.924233 201.329862 
L 425.921013 201.329862 
L 425.7 200.735559 
L 425.779077 200.735559 
L 427.953354 200.735559 
L 427.735196 200.141256 
L 427.811538 200.141256 
L 428.945421 200.141256 
L 428.728931 199.546953 
L 428.803867 199.546953 
L 428.878712 199.546953 
L 428.5218 198.358346 
L 428.820586 198.358346 
L 428.605495 197.764043 
L 428.680049 197.764043 
L 432.992702 197.764043 
L 432.783 197.16974 
L 432.852381 197.16974 
L 434.493391 197.16974 
L 434.285979 196.575436 
L 434.353445 196.575436 
L 434.689607 196.575436 
L 434.48292 195.981133 
L 434.55 195.981133 
L 437.617799 195.981133 
L 437.415152 195.38683 
L 437.478744 195.38683 
L 437.858804 195.38683 
L 437.656927 194.792527 
L 437.720101 194.792527 
L 441.267226 194.792527 
L 441.070054 194.198224 
L 441.129335 194.198224 
L 441.306796 194.198224 
L 441.110135 193.60392 
L 441.169235 193.60392 
L 441.522503 193.60392 
L 441.32657 193.009617 
L 441.3853 193.009617 
L 443.004545 193.009617 
L 442.810935 192.415314 
L 442.924908 192.415314 
L 444.05154 192.415314 
L 443.859708 191.821011 
L 443.97122 191.821011 
L 444.193548 191.821011 
L 444.00234 191.226708 
L 444.113299 191.226708 
L 445.210334 191.226708 
L 445.020863 190.632404 
L 445.129466 190.632404 
L 445.453941 190.632404 
L 445.265217 190.038101 
L 445.373071 190.038101 
L 446.281003 190.038101 
L 446.093772 189.443798 
L 446.199697 189.443798 
L 450.316618 189.443798 
L 450.135066 188.849495 
L 450.232751 188.849495 
L 451.294911 188.849495 
L 451.115067 188.255191 
L 451.210642 188.255191 
L 452.390052 188.255191 
L 452.212074 187.660888 
L 452.305345 187.660888 
L 452.722892 187.660888 
L 452.545763 187.066585 
L 452.638194 187.066585 
L 457.047978 187.066585 
L 456.877099 186.472282 
L 456.961373 186.472282 
L 457.129467 186.472282 
L 456.959087 185.877979 
L 457.043023 185.877979 
L 457.460463 185.877979 
L 457.290921 185.283675 
L 457.374077 185.283675 
L 459.801776 185.283675 
L 459.635844 184.689372 
L 459.714706 184.689372 
L 463.815613 184.689372 
L 463.655698 184.095069 
L 463.763505 184.095069 
L 467.638652 184.095069 
L 467.4846 183.500766 
L 467.582927 183.500766 
L 468.585542 183.500766 
L 468.433217 182.906462 
L 468.529104 182.906462 
L 468.783714 182.906462 
L 468.632019 182.312159 
L 468.727231 182.312159 
L 470.434493 182.312159 
L 470.285558 181.717856 
L 470.376775 181.717856 
L 472.706601 181.717856 
L 472.561364 181.123553 
L 472.647309 181.123553 
L 474.40952 181.123553 
L 474.267156 180.52925 
L 474.376527 180.52925 
L 477.468049 180.52925 
L 477.330637 179.934946 
L 477.431211 179.934946 
L 479.717905 179.934946 
L 479.450696 178.74634 
L 479.545136 178.74634 
L 480.406996 178.74634 
L 480.275 178.152037 
L 480.367069 178.152037 
L 486.667311 178.152037 
L 486.545455 177.557734 
L 486.640759 177.557734 
L 488.037145 177.557734 
L 487.917755 176.96343 
L 488.02702 176.96343 
L 490.506509 176.96343 
L 490.391379 176.369127 
L 490.492004 176.369127 
L 496.301907 176.369127 
L 496.196614 175.774824 
L 496.305957 175.774824 
L 497.059269 175.774824 
L 497.059269 175.774824 
" style="fill:none;stroke:#2ca02c;stroke-linecap:square;stroke-width:2;"/>
   </g>
   <g id="patch_3">
    <path d="M 76.5 448.56 
L 76.5 60.48 
" style="fill:none;stroke:#000000;stroke-linecap:square;stroke-linejoin:miter;stroke-width:0.8;"/>
   </g>
   <g id="patch_4">
    <path d="M 550.8 448.56 
L 550.8 60.48 
" style="fill:none;stroke:#000000;stroke-linecap:square;stroke-linejoin:miter;stroke-width:0.8;"/>
   </g>
   <g id="patch_5">
    <path d="M 76.5 448.56 
L 550.8 448.56 
" style="fill:none;stroke:#000000;stroke-linecap:square;stroke-linejoin:miter;stroke-width:0.8;"/>
   </g>
   <g id="patch_6">
    <path d="M 76.5 60.48 
L 550.8 60.48 
" style="fill:none;stroke:#000000;stroke-linecap:square;stroke-linejoin:miter;stroke-width:0.8;"/>
   </g>
   <g id="text_25">
    <!-- bark: img1-img3 -->
    <defs>
     <path d="M 48.6875 27.296875 
Q 48.6875 37.203125 44.609375 42.84375 
Q 40.53125 48.484375 33.40625 48.484375 
Q 26.265625 48.484375 22.1875 42.84375 
Q 18.109375 37.203125 18.109375 27.296875 
Q 18.109375 17.390625 22.1875 11.75 
Q 26.265625 6.109375 33.40625 6.109375 
Q 40.53125 6.109375 44.609375 11.75 
Q 48.6875 17.390625 48.6875 27.296875 
z
M 18.109375 46.390625 
Q 20.953125 51.265625 25.265625 53.625 
Q 29.59375 56 35.59375 56 
Q 45.5625 56 51.78125 48.09375 
Q 58.015625 40.1875 58.015625 27.296875 
Q 58.015625 14.40625 51.78125 6.484375 
Q 45.5625 -1.421875 35.59375 -1.421875 
Q 29.59375 -1.421875 25.265625 0.953125 
Q 20.953125 3.328125 18.109375 8.203125 
L 18.109375 0 
L 9.078125 0 
L 9.078125 75.984375 
L 18.109375 75.984375 
z
" id="DejaVuSans-98"/>
     <path d="M 34.28125 27.484375 
Q 23.390625 27.484375 19.1875 25 
Q 14.984375 22.515625 14.984375 16.5 
Q 14.984375 11.71875 18.140625 8.90625 
Q 21.296875 6.109375 26.703125 6.109375 
Q 34.1875 6.109375 38.703125 11.40625 
Q 43.21875 16.703125 43.21875 25.484375 
L 43.21875 27.484375 
z
M 52.203125 31.203125 
L 52.203125 0 
L 43.21875 0 
L 43.21875 8.296875 
Q 40.140625 3.328125 35.546875 0.953125 
Q 30.953125 -1.421875 24.3125 -1.421875 
Q 15.921875 -1.421875 10.953125 3.296875 
Q 6 8.015625 6 15.921875 
Q 6 25.140625 12.171875 29.828125 
Q 18.359375 34.515625 30.609375 34.515625 
L 43.21875 34.515625 
L 43.21875 35.40625 
Q 43.21875 41.609375 39.140625 45 
Q 35.0625 48.390625 27.6875 48.390625 
Q 23 48.390625 18.546875 47.265625 
Q 14.109375 46.140625 10.015625 43.890625 
L 10.015625 52.203125 
Q 14.9375 54.109375 19.578125 55.046875 
Q 24.21875 56 28.609375 56 
Q 40.484375 56 46.34375 49.84375 
Q 52.203125 43.703125 52.203125 31.203125 
z
" id="DejaVuSans-97"/>
     <path d="M 9.078125 75.984375 
L 18.109375 75.984375 
L 18.109375 31.109375 
L 44.921875 54.6875 
L 56.390625 54.6875 
L 27.390625 29.109375 
L 57.625 0 
L 45.90625 0 
L 18.109375 26.703125 
L 18.109375 0 
L 9.078125 0 
z
" id="DejaVuSans-107"/>
     <path d="M 11.71875 12.40625 
L 22.015625 12.40625 
L 22.015625 0 
L 11.71875 0 
z
M 11.71875 51.703125 
L 22.015625 51.703125 
L 22.015625 39.3125 
L 11.71875 39.3125 
z
" id="DejaVuSans-58"/>
     <path id="DejaVuSans-32"/>
     <path d="M 52 44.1875 
Q 55.375 50.25 60.0625 53.125 
Q 64.75 56 71.09375 56 
Q 79.640625 56 84.28125 50.015625 
Q 88.921875 44.046875 88.921875 33.015625 
L 88.921875 0 
L 79.890625 0 
L 79.890625 32.71875 
Q 79.890625 40.578125 77.09375 44.375 
Q 74.3125 48.1875 68.609375 48.1875 
Q 61.625 48.1875 57.5625 43.546875 
Q 53.515625 38.921875 53.515625 30.90625 
L 53.515625 0 
L 44.484375 0 
L 44.484375 32.71875 
Q 44.484375 40.625 41.703125 44.40625 
Q 38.921875 48.1875 33.109375 48.1875 
Q 26.21875 48.1875 22.15625 43.53125 
Q 18.109375 38.875 18.109375 30.90625 
L 18.109375 0 
L 9.078125 0 
L 9.078125 54.6875 
L 18.109375 54.6875 
L 18.109375 46.1875 
Q 21.1875 51.21875 25.484375 53.609375 
Q 29.78125 56 35.6875 56 
Q 41.65625 56 45.828125 52.96875 
Q 50 49.953125 52 44.1875 
z
" id="DejaVuSans-109"/>
     <path d="M 45.40625 27.984375 
Q 45.40625 37.75 41.375 43.109375 
Q 37.359375 48.484375 30.078125 48.484375 
Q 22.859375 48.484375 18.828125 43.109375 
Q 14.796875 37.75 14.796875 27.984375 
Q 14.796875 18.265625 18.828125 12.890625 
Q 22.859375 7.515625 30.078125 7.515625 
Q 37.359375 7.515625 41.375 12.890625 
Q 45.40625 18.265625 45.40625 27.984375 
z
M 54.390625 6.78125 
Q 54.390625 -7.171875 48.1875 -13.984375 
Q 42 -20.796875 29.203125 -20.796875 
Q 24.46875 -20.796875 20.265625 -20.09375 
Q 16.0625 -19.390625 12.109375 -17.921875 
L 12.109375 -9.1875 
Q 16.0625 -11.328125 19.921875 -12.34375 
Q 23.78125 -13.375 27.78125 -13.375 
Q 36.625 -13.375 41.015625 -8.765625 
Q 45.40625 -4.15625 45.40625 5.171875 
L 45.40625 9.625 
Q 42.625 4.78125 38.28125 2.390625 
Q 33.9375 0 27.875 0 
Q 17.828125 0 11.671875 7.65625 
Q 5.515625 15.328125 5.515625 27.984375 
Q 5.515625 40.671875 11.671875 48.328125 
Q 17.828125 56 27.875 56 
Q 33.9375 56 38.28125 53.609375 
Q 42.625 51.21875 45.40625 46.390625 
L 45.40625 54.6875 
L 54.390625 54.6875 
z
" id="DejaVuSans-103"/>
    </defs>
    <g transform="translate(263.854688 41.042625)scale(0.12 -0.12)">
     <use xlink:href="#DejaVuSans-98"/>
     <use x="63.476562" xlink:href="#DejaVuSans-97"/>
     <use x="124.755859" xlink:href="#DejaVuSans-114"/>
     <use x="165.869141" xlink:href="#DejaVuSans-107"/>
     <use x="223.779297" xlink:href="#DejaVuSans-58"/>
     <use x="257.470703" xlink:href="#DejaVuSans-32"/>
     <use x="289.257812" xlink:href="#DejaVuSans-105"/>
     <use x="317.041016" xlink:href="#DejaVuSans-109"/>
     <use x="414.453125" xlink:href="#DejaVuSans-103"/>
     <use x="477.929688" xlink:href="#DejaVuSans-49"/>
     <use x="541.552734" xlink:href="#DejaVuSans-45"/>
     <use x="577.636719" xlink:href="#DejaVuSans-105"/>
     <use x="605.419922" xlink:href="#DejaVuSans-109"/>
     <use x="702.832031" xlink:href="#DejaVuSans-103"/>
     <use x="766.308594" xlink:href="#DejaVuSans-51"/>
    </g>
    <!-- NearestNeighbours -->
    <defs>
     <path d="M 9.8125 72.90625 
L 23.09375 72.90625 
L 55.421875 11.921875 
L 55.421875 72.90625 
L 64.984375 72.90625 
L 64.984375 0 
L 51.703125 0 
L 19.390625 60.984375 
L 19.390625 0 
L 9.8125 0 
z
" id="DejaVuSans-78"/>
     <path d="M 54.890625 33.015625 
L 54.890625 0 
L 45.90625 0 
L 45.90625 32.71875 
Q 45.90625 40.484375 42.875 44.328125 
Q 39.84375 48.1875 33.796875 48.1875 
Q 26.515625 48.1875 22.3125 43.546875 
Q 18.109375 38.921875 18.109375 30.90625 
L 18.109375 0 
L 9.078125 0 
L 9.078125 75.984375 
L 18.109375 75.984375 
L 18.109375 46.1875 
Q 21.34375 51.125 25.703125 53.5625 
Q 30.078125 56 35.796875 56 
Q 45.21875 56 50.046875 50.171875 
Q 54.890625 44.34375 54.890625 33.015625 
z
" id="DejaVuSans-104"/>
     <path d="M 8.5 21.578125 
L 8.5 54.6875 
L 17.484375 54.6875 
L 17.484375 21.921875 
Q 17.484375 14.15625 20.5 10.265625 
Q 23.53125 6.390625 29.59375 6.390625 
Q 36.859375 6.390625 41.078125 11.03125 
Q 45.3125 15.671875 45.3125 23.6875 
L 45.3125 54.6875 
L 54.296875 54.6875 
L 54.296875 0 
L 45.3125 0 
L 45.3125 8.40625 
Q 42.046875 3.421875 37.71875 1 
Q 33.40625 -1.421875 27.6875 -1.421875 
Q 18.265625 -1.421875 13.375 4.4375 
Q 8.5 10.296875 8.5 21.578125 
z
M 31.109375 56 
z
" id="DejaVuSans-117"/>
    </defs>
    <g transform="translate(255.957188 54.48)scale(0.12 -0.12)">
     <use xlink:href="#DejaVuSans-78"/>
     <use x="74.804688" xlink:href="#DejaVuSans-101"/>
     <use x="136.328125" xlink:href="#DejaVuSans-97"/>
     <use x="197.607422" xlink:href="#DejaVuSans-114"/>
     <use x="236.470703" xlink:href="#DejaVuSans-101"/>
     <use x="297.994141" xlink:href="#DejaVuSans-115"/>
     <use x="350.09375" xlink:href="#DejaVuSans-116"/>
     <use x="389.302734" xlink:href="#DejaVuSans-78"/>
     <use x="464.107422" xlink:href="#DejaVuSans-101"/>
     <use x="525.630859" xlink:href="#DejaVuSans-105"/>
     <use x="553.414062" xlink:href="#DejaVuSans-103"/>
     <use x="616.890625" xlink:href="#DejaVuSans-104"/>
     <use x="680.269531" xlink:href="#DejaVuSans-98"/>
     <use x="743.746094" xlink:href="#DejaVuSans-111"/>
     <use x="804.927734" xlink:href="#DejaVuSans-117"/>
     <use x="868.306641" xlink:href="#DejaVuSans-114"/>
     <use x="909.419922" xlink:href="#DejaVuSans-115"/>
    </g>
   </g>
   <g id="legend_1">
    <g id="patch_7">
     <path d="M 83.5 112.514375 
L 264.640625 112.514375 
Q 266.640625 112.514375 266.640625 110.514375 
L 266.640625 67.48 
Q 266.640625 65.48 264.640625 65.48 
L 83.5 65.48 
Q 81.5 65.48 81.5 67.48 
L 81.5 110.514375 
Q 81.5 112.514375 83.5 112.514375 
z
" style="fill:#ffffff;opacity:0.8;stroke:#cccccc;stroke-linejoin:miter;"/>
    </g>
    <g id="line2d_48">
     <path d="M 85.5 73.578438 
L 105.5 73.578438 
" style="fill:none;stroke:#1f77b4;stroke-linecap:square;stroke-width:2;"/>
    </g>
    <g id="line2d_49"/>
    <g id="text_26">
     <!-- root-cvsift AP: 83.5, %In: 14.3 -->
     <defs>
      <path d="M 2.984375 54.6875 
L 12.5 54.6875 
L 29.59375 8.796875 
L 46.6875 54.6875 
L 56.203125 54.6875 
L 35.6875 0 
L 23.484375 0 
z
" id="DejaVuSans-118"/>
      <path d="M 37.109375 75.984375 
L 37.109375 68.5 
L 28.515625 68.5 
Q 23.6875 68.5 21.796875 66.546875 
Q 19.921875 64.59375 19.921875 59.515625 
L 19.921875 54.6875 
L 34.71875 54.6875 
L 34.71875 47.703125 
L 19.921875 47.703125 
L 19.921875 0 
L 10.890625 0 
L 10.890625 47.703125 
L 2.296875 47.703125 
L 2.296875 54.6875 
L 10.890625 54.6875 
L 10.890625 58.5 
Q 10.890625 67.625 15.140625 71.796875 
Q 19.390625 75.984375 28.609375 75.984375 
z
" id="DejaVuSans-102"/>
      <path d="M 34.1875 63.1875 
L 20.796875 26.90625 
L 47.609375 26.90625 
z
M 28.609375 72.90625 
L 39.796875 72.90625 
L 67.578125 0 
L 57.328125 0 
L 50.6875 18.703125 
L 17.828125 18.703125 
L 11.1875 0 
L 0.78125 0 
z
" id="DejaVuSans-65"/>
      <path d="M 19.671875 64.796875 
L 19.671875 37.40625 
L 32.078125 37.40625 
Q 38.96875 37.40625 42.71875 40.96875 
Q 46.484375 44.53125 46.484375 51.125 
Q 46.484375 57.671875 42.71875 61.234375 
Q 38.96875 64.796875 32.078125 64.796875 
z
M 9.8125 72.90625 
L 32.078125 72.90625 
Q 44.34375 72.90625 50.609375 67.359375 
Q 56.890625 61.8125 56.890625 51.125 
Q 56.890625 40.328125 50.609375 34.8125 
Q 44.34375 29.296875 32.078125 29.296875 
L 19.671875 29.296875 
L 19.671875 0 
L 9.8125 0 
z
" id="DejaVuSans-80"/>
      <path d="M 11.71875 12.40625 
L 22.015625 12.40625 
L 22.015625 4 
L 14.015625 -11.625 
L 7.71875 -11.625 
L 11.71875 4 
z
" id="DejaVuSans-44"/>
      <path d="M 72.703125 32.078125 
Q 68.453125 32.078125 66.03125 28.46875 
Q 63.625 24.859375 63.625 18.40625 
Q 63.625 12.0625 66.03125 8.421875 
Q 68.453125 4.78125 72.703125 4.78125 
Q 76.859375 4.78125 79.265625 8.421875 
Q 81.6875 12.0625 81.6875 18.40625 
Q 81.6875 24.8125 79.265625 28.4375 
Q 76.859375 32.078125 72.703125 32.078125 
z
M 72.703125 38.28125 
Q 80.421875 38.28125 84.953125 32.90625 
Q 89.5 27.546875 89.5 18.40625 
Q 89.5 9.28125 84.9375 3.921875 
Q 80.375 -1.421875 72.703125 -1.421875 
Q 64.890625 -1.421875 60.34375 3.921875 
Q 55.8125 9.28125 55.8125 18.40625 
Q 55.8125 27.59375 60.375 32.9375 
Q 64.9375 38.28125 72.703125 38.28125 
z
M 22.3125 68.015625 
Q 18.109375 68.015625 15.6875 64.375 
Q 13.28125 60.75 13.28125 54.390625 
Q 13.28125 47.953125 15.671875 44.328125 
Q 18.0625 40.71875 22.3125 40.71875 
Q 26.5625 40.71875 28.96875 44.328125 
Q 31.390625 47.953125 31.390625 54.390625 
Q 31.390625 60.6875 28.953125 64.34375 
Q 26.515625 68.015625 22.3125 68.015625 
z
M 66.40625 74.21875 
L 74.21875 74.21875 
L 28.609375 -1.421875 
L 20.796875 -1.421875 
z
M 22.3125 74.21875 
Q 30.03125 74.21875 34.609375 68.875 
Q 39.203125 63.53125 39.203125 54.390625 
Q 39.203125 45.171875 34.640625 39.84375 
Q 30.078125 34.515625 22.3125 34.515625 
Q 14.546875 34.515625 10.03125 39.859375 
Q 5.515625 45.21875 5.515625 54.390625 
Q 5.515625 63.484375 10.046875 68.84375 
Q 14.59375 74.21875 22.3125 74.21875 
z
" id="DejaVuSans-37"/>
      <path d="M 9.8125 72.90625 
L 19.671875 72.90625 
L 19.671875 0 
L 9.8125 0 
z
" id="DejaVuSans-73"/>
     </defs>
     <g transform="translate(113.5 77.078438)scale(0.1 -0.1)">
      <use xlink:href="#DejaVuSans-114"/>
      <use x="38.863281" xlink:href="#DejaVuSans-111"/>
      <use x="100.044922" xlink:href="#DejaVuSans-111"/>
      <use x="161.226562" xlink:href="#DejaVuSans-116"/>
      <use x="200.435547" xlink:href="#DejaVuSans-45"/>
      <use x="236.519531" xlink:href="#DejaVuSans-99"/>
      <use x="291.5" xlink:href="#DejaVuSans-118"/>
      <use x="350.679688" xlink:href="#DejaVuSans-115"/>
      <use x="402.779297" xlink:href="#DejaVuSans-105"/>
      <use x="430.5625" xlink:href="#DejaVuSans-102"/>
      <use x="464.017578" xlink:href="#DejaVuSans-116"/>
      <use x="503.226562" xlink:href="#DejaVuSans-32"/>
      <use x="535.013672" xlink:href="#DejaVuSans-65"/>
      <use x="603.421875" xlink:href="#DejaVuSans-80"/>
      <use x="663.724609" xlink:href="#DejaVuSans-58"/>
      <use x="697.416016" xlink:href="#DejaVuSans-32"/>
      <use x="729.203125" xlink:href="#DejaVuSans-56"/>
      <use x="792.826172" xlink:href="#DejaVuSans-51"/>
      <use x="856.449219" xlink:href="#DejaVuSans-46"/>
      <use x="888.236328" xlink:href="#DejaVuSans-53"/>
      <use x="951.859375" xlink:href="#DejaVuSans-44"/>
      <use x="983.646484" xlink:href="#DejaVuSans-32"/>
      <use x="1015.433594" xlink:href="#DejaVuSans-37"/>
      <use x="1110.453125" xlink:href="#DejaVuSans-73"/>
      <use x="1139.945312" xlink:href="#DejaVuSans-110"/>
      <use x="1203.324219" xlink:href="#DejaVuSans-58"/>
      <use x="1237.015625" xlink:href="#DejaVuSans-32"/>
      <use x="1268.802734" xlink:href="#DejaVuSans-49"/>
      <use x="1332.425781" xlink:href="#DejaVuSans-52"/>
      <use x="1396.048828" xlink:href="#DejaVuSans-46"/>
      <use x="1427.835938" xlink:href="#DejaVuSans-51"/>
     </g>
    </g>
    <g id="line2d_50">
     <path d="M 85.5 88.256563 
L 105.5 88.256563 
" style="fill:none;stroke:#ff7f0e;stroke-linecap:square;stroke-width:2;"/>
    </g>
    <g id="line2d_51"/>
    <g id="text_27">
     <!-- tfeat AP: 7.9, %In: 4.3 -->
     <g transform="translate(113.5 91.756563)scale(0.1 -0.1)">
      <use xlink:href="#DejaVuSans-116"/>
      <use x="39.208984" xlink:href="#DejaVuSans-102"/>
      <use x="74.414062" xlink:href="#DejaVuSans-101"/>
      <use x="135.9375" xlink:href="#DejaVuSans-97"/>
      <use x="197.216797" xlink:href="#DejaVuSans-116"/>
      <use x="236.425781" xlink:href="#DejaVuSans-32"/>
      <use x="268.212891" xlink:href="#DejaVuSans-65"/>
      <use x="336.621094" xlink:href="#DejaVuSans-80"/>
      <use x="396.923828" xlink:href="#DejaVuSans-58"/>
      <use x="430.615234" xlink:href="#DejaVuSans-32"/>
      <use x="462.402344" xlink:href="#DejaVuSans-55"/>
      <use x="526.025391" xlink:href="#DejaVuSans-46"/>
      <use x="557.8125" xlink:href="#DejaVuSans-57"/>
      <use x="621.435547" xlink:href="#DejaVuSans-44"/>
      <use x="653.222656" xlink:href="#DejaVuSans-32"/>
      <use x="685.009766" xlink:href="#DejaVuSans-37"/>
      <use x="780.029297" xlink:href="#DejaVuSans-73"/>
      <use x="809.521484" xlink:href="#DejaVuSans-110"/>
      <use x="872.900391" xlink:href="#DejaVuSans-58"/>
      <use x="906.591797" xlink:href="#DejaVuSans-32"/>
      <use x="938.378906" xlink:href="#DejaVuSans-52"/>
      <use x="1002.001953" xlink:href="#DejaVuSans-46"/>
      <use x="1033.789062" xlink:href="#DejaVuSans-51"/>
     </g>
    </g>
    <g id="line2d_52">
     <path d="M 85.5 102.934687 
L 105.5 102.934687 
" style="fill:none;stroke:#2ca02c;stroke-linecap:square;stroke-width:2;"/>
    </g>
    <g id="line2d_53"/>
    <g id="text_28">
     <!-- hardnet AP: 51.4, %In: 11.3 -->
     <defs>
      <path d="M 45.40625 46.390625 
L 45.40625 75.984375 
L 54.390625 75.984375 
L 54.390625 0 
L 45.40625 0 
L 45.40625 8.203125 
Q 42.578125 3.328125 38.25 0.953125 
Q 33.9375 -1.421875 27.875 -1.421875 
Q 17.96875 -1.421875 11.734375 6.484375 
Q 5.515625 14.40625 5.515625 27.296875 
Q 5.515625 40.1875 11.734375 48.09375 
Q 17.96875 56 27.875 56 
Q 33.9375 56 38.25 53.625 
Q 42.578125 51.265625 45.40625 46.390625 
z
M 14.796875 27.296875 
Q 14.796875 17.390625 18.875 11.75 
Q 22.953125 6.109375 30.078125 6.109375 
Q 37.203125 6.109375 41.296875 11.75 
Q 45.40625 17.390625 45.40625 27.296875 
Q 45.40625 37.203125 41.296875 42.84375 
Q 37.203125 48.484375 30.078125 48.484375 
Q 22.953125 48.484375 18.875 42.84375 
Q 14.796875 37.203125 14.796875 27.296875 
z
" id="DejaVuSans-100"/>
     </defs>
     <g transform="translate(113.5 106.434687)scale(0.1 -0.1)">
      <use xlink:href="#DejaVuSans-104"/>
      <use x="63.378906" xlink:href="#DejaVuSans-97"/>
      <use x="124.658203" xlink:href="#DejaVuSans-114"/>
      <use x="164.021484" xlink:href="#DejaVuSans-100"/>
      <use x="227.498047" xlink:href="#DejaVuSans-110"/>
      <use x="290.876953" xlink:href="#DejaVuSans-101"/>
      <use x="352.400391" xlink:href="#DejaVuSans-116"/>
      <use x="391.609375" xlink:href="#DejaVuSans-32"/>
      <use x="423.396484" xlink:href="#DejaVuSans-65"/>
      <use x="491.804688" xlink:href="#DejaVuSans-80"/>
      <use x="552.107422" xlink:href="#DejaVuSans-58"/>
      <use x="585.798828" xlink:href="#DejaVuSans-32"/>
      <use x="617.585938" xlink:href="#DejaVuSans-53"/>
      <use x="681.208984" xlink:href="#DejaVuSans-49"/>
      <use x="744.832031" xlink:href="#DejaVuSans-46"/>
      <use x="776.619141" xlink:href="#DejaVuSans-52"/>
      <use x="840.242188" xlink:href="#DejaVuSans-44"/>
      <use x="872.029297" xlink:href="#DejaVuSans-32"/>
      <use x="903.816406" xlink:href="#DejaVuSans-37"/>
      <use x="998.835938" xlink:href="#DejaVuSans-73"/>
      <use x="1028.328125" xlink:href="#DejaVuSans-110"/>
      <use x="1091.707031" xlink:href="#DejaVuSans-58"/>
      <use x="1125.398438" xlink:href="#DejaVuSans-32"/>
      <use x="1157.185547" xlink:href="#DejaVuSans-49"/>
      <use x="1220.808594" xlink:href="#DejaVuSans-49"/>
      <use x="1284.431641" xlink:href="#DejaVuSans-46"/>
      <use x="1316.21875" xlink:href="#DejaVuSans-51"/>
     </g>
    </g>
   </g>
  </g>
 </g>
 <defs>
  <clipPath id="p110dd61dff">
   <rect height="388.08" width="474.3" x="76.5" y="60.48"/>
  </clipPath>
 </defs>
</svg>
