<?xml version="1.0" encoding="utf-8" standalone="no"?>
<!DOCTYPE svg PUBLIC "-//W3C//DTD SVG 1.1//EN"
  "http://www.w3.org/Graphics/SVG/1.1/DTD/svg11.dtd">
<!-- Created with matplotlib (https://matplotlib.org/) -->
<svg height="504pt" version="1.1" viewBox="0 0 612 504" width="612pt" xmlns="http://www.w3.org/2000/svg" xmlns:xlink="http://www.w3.org/1999/xlink">
 <defs>
  <style type="text/css">
*{stroke-linecap:butt;stroke-linejoin:round;}
  </style>
 </defs>
 <g id="figure_1">
  <g id="patch_1">
   <path d="M 0 504 
L 612 504 
L 612 0 
L 0 0 
z
" style="fill:#ffffff;"/>
  </g>
  <g id="axes_1">
   <g id="patch_2">
    <path d="M 76.5 448.56 
L 550.8 448.56 
L 550.8 60.48 
L 76.5 60.48 
z
" style="fill:#ffffff;"/>
   </g>
   <g id="matplotlib.axis_1">
    <g id="xtick_1">
     <g id="line2d_1">
      <path clip-path="url(#p13405c6ab9)" d="M 76.5 448.56 
L 76.5 60.48 
" style="fill:none;stroke:#b0b0b0;stroke-linecap:square;stroke-width:0.8;"/>
     </g>
     <g id="line2d_2">
      <defs>
       <path d="M 0 0 
L 0 3.5 
" id="m3c21ebbf52" style="stroke:#000000;stroke-width:0.8;"/>
      </defs>
      <g>
       <use style="stroke:#000000;stroke-width:0.8;" x="76.5" xlink:href="#m3c21ebbf52" y="448.56"/>
      </g>
     </g>
     <g id="text_1">
      <!-- 0.0 -->
      <defs>
       <path d="M 31.78125 66.40625 
Q 24.171875 66.40625 20.328125 58.90625 
Q 16.5 51.421875 16.5 36.375 
Q 16.5 21.390625 20.328125 13.890625 
Q 24.171875 6.390625 31.78125 6.390625 
Q 39.453125 6.390625 43.28125 13.890625 
Q 47.125 21.390625 47.125 36.375 
Q 47.125 51.421875 43.28125 58.90625 
Q 39.453125 66.40625 31.78125 66.40625 
z
M 31.78125 74.21875 
Q 44.046875 74.21875 50.515625 64.515625 
Q 56.984375 54.828125 56.984375 36.375 
Q 56.984375 17.96875 50.515625 8.265625 
Q 44.046875 -1.421875 31.78125 -1.421875 
Q 19.53125 -1.421875 13.0625 8.265625 
Q 6.59375 17.96875 6.59375 36.375 
Q 6.59375 54.828125 13.0625 64.515625 
Q 19.53125 74.21875 31.78125 74.21875 
z
" id="DejaVuSans-48"/>
       <path d="M 10.6875 12.40625 
L 21 12.40625 
L 21 0 
L 10.6875 0 
z
" id="DejaVuSans-46"/>
      </defs>
      <g transform="translate(68.548438 463.158437)scale(0.1 -0.1)">
       <use xlink:href="#DejaVuSans-48"/>
       <use x="63.623047" xlink:href="#DejaVuSans-46"/>
       <use x="95.410156" xlink:href="#DejaVuSans-48"/>
      </g>
     </g>
    </g>
    <g id="xtick_2">
     <g id="line2d_3">
      <path clip-path="url(#p13405c6ab9)" d="M 123.93 448.56 
L 123.93 60.48 
" style="fill:none;stroke:#b0b0b0;stroke-linecap:square;stroke-width:0.8;"/>
     </g>
     <g id="line2d_4">
      <g>
       <use style="stroke:#000000;stroke-width:0.8;" x="123.93" xlink:href="#m3c21ebbf52" y="448.56"/>
      </g>
     </g>
     <g id="text_2">
      <!-- 0.1 -->
      <defs>
       <path d="M 12.40625 8.296875 
L 28.515625 8.296875 
L 28.515625 63.921875 
L 10.984375 60.40625 
L 10.984375 69.390625 
L 28.421875 72.90625 
L 38.28125 72.90625 
L 38.28125 8.296875 
L 54.390625 8.296875 
L 54.390625 0 
L 12.40625 0 
z
" id="DejaVuSans-49"/>
      </defs>
      <g transform="translate(115.978438 463.158437)scale(0.1 -0.1)">
       <use xlink:href="#DejaVuSans-48"/>
       <use x="63.623047" xlink:href="#DejaVuSans-46"/>
       <use x="95.410156" xlink:href="#DejaVuSans-49"/>
      </g>
     </g>
    </g>
    <g id="xtick_3">
     <g id="line2d_5">
      <path clip-path="url(#p13405c6ab9)" d="M 171.36 448.56 
L 171.36 60.48 
" style="fill:none;stroke:#b0b0b0;stroke-linecap:square;stroke-width:0.8;"/>
     </g>
     <g id="line2d_6">
      <g>
       <use style="stroke:#000000;stroke-width:0.8;" x="171.36" xlink:href="#m3c21ebbf52" y="448.56"/>
      </g>
     </g>
     <g id="text_3">
      <!-- 0.2 -->
      <defs>
       <path d="M 19.1875 8.296875 
L 53.609375 8.296875 
L 53.609375 0 
L 7.328125 0 
L 7.328125 8.296875 
Q 12.9375 14.109375 22.625 23.890625 
Q 32.328125 33.6875 34.8125 36.53125 
Q 39.546875 41.84375 41.421875 45.53125 
Q 43.3125 49.21875 43.3125 52.78125 
Q 43.3125 58.59375 39.234375 62.25 
Q 35.15625 65.921875 28.609375 65.921875 
Q 23.96875 65.921875 18.8125 64.3125 
Q 13.671875 62.703125 7.8125 59.421875 
L 7.8125 69.390625 
Q 13.765625 71.78125 18.9375 73 
Q 24.125 74.21875 28.421875 74.21875 
Q 39.75 74.21875 46.484375 68.546875 
Q 53.21875 62.890625 53.21875 53.421875 
Q 53.21875 48.921875 51.53125 44.890625 
Q 49.859375 40.875 45.40625 35.40625 
Q 44.1875 33.984375 37.640625 27.21875 
Q 31.109375 20.453125 19.1875 8.296875 
z
" id="DejaVuSans-50"/>
      </defs>
      <g transform="translate(163.408438 463.158437)scale(0.1 -0.1)">
       <use xlink:href="#DejaVuSans-48"/>
       <use x="63.623047" xlink:href="#DejaVuSans-46"/>
       <use x="95.410156" xlink:href="#DejaVuSans-50"/>
      </g>
     </g>
    </g>
    <g id="xtick_4">
     <g id="line2d_7">
      <path clip-path="url(#p13405c6ab9)" d="M 218.79 448.56 
L 218.79 60.48 
" style="fill:none;stroke:#b0b0b0;stroke-linecap:square;stroke-width:0.8;"/>
     </g>
     <g id="line2d_8">
      <g>
       <use style="stroke:#000000;stroke-width:0.8;" x="218.79" xlink:href="#m3c21ebbf52" y="448.56"/>
      </g>
     </g>
     <g id="text_4">
      <!-- 0.3 -->
      <defs>
       <path d="M 40.578125 39.3125 
Q 47.65625 37.796875 51.625 33 
Q 55.609375 28.21875 55.609375 21.1875 
Q 55.609375 10.40625 48.1875 4.484375 
Q 40.765625 -1.421875 27.09375 -1.421875 
Q 22.515625 -1.421875 17.65625 -0.515625 
Q 12.796875 0.390625 7.625 2.203125 
L 7.625 11.71875 
Q 11.71875 9.328125 16.59375 8.109375 
Q 21.484375 6.890625 26.8125 6.890625 
Q 36.078125 6.890625 40.9375 10.546875 
Q 45.796875 14.203125 45.796875 21.1875 
Q 45.796875 27.640625 41.28125 31.265625 
Q 36.765625 34.90625 28.71875 34.90625 
L 20.21875 34.90625 
L 20.21875 43.015625 
L 29.109375 43.015625 
Q 36.375 43.015625 40.234375 45.921875 
Q 44.09375 48.828125 44.09375 54.296875 
Q 44.09375 59.90625 40.109375 62.90625 
Q 36.140625 65.921875 28.71875 65.921875 
Q 24.65625 65.921875 20.015625 65.03125 
Q 15.375 64.15625 9.8125 62.3125 
L 9.8125 71.09375 
Q 15.4375 72.65625 20.34375 73.4375 
Q 25.25 74.21875 29.59375 74.21875 
Q 40.828125 74.21875 47.359375 69.109375 
Q 53.90625 64.015625 53.90625 55.328125 
Q 53.90625 49.265625 50.4375 45.09375 
Q 46.96875 40.921875 40.578125 39.3125 
z
" id="DejaVuSans-51"/>
      </defs>
      <g transform="translate(210.838438 463.158437)scale(0.1 -0.1)">
       <use xlink:href="#DejaVuSans-48"/>
       <use x="63.623047" xlink:href="#DejaVuSans-46"/>
       <use x="95.410156" xlink:href="#DejaVuSans-51"/>
      </g>
     </g>
    </g>
    <g id="xtick_5">
     <g id="line2d_9">
      <path clip-path="url(#p13405c6ab9)" d="M 266.22 448.56 
L 266.22 60.48 
" style="fill:none;stroke:#b0b0b0;stroke-linecap:square;stroke-width:0.8;"/>
     </g>
     <g id="line2d_10">
      <g>
       <use style="stroke:#000000;stroke-width:0.8;" x="266.22" xlink:href="#m3c21ebbf52" y="448.56"/>
      </g>
     </g>
     <g id="text_5">
      <!-- 0.4 -->
      <defs>
       <path d="M 37.796875 64.3125 
L 12.890625 25.390625 
L 37.796875 25.390625 
z
M 35.203125 72.90625 
L 47.609375 72.90625 
L 47.609375 25.390625 
L 58.015625 25.390625 
L 58.015625 17.1875 
L 47.609375 17.1875 
L 47.609375 0 
L 37.796875 0 
L 37.796875 17.1875 
L 4.890625 17.1875 
L 4.890625 26.703125 
z
" id="DejaVuSans-52"/>
      </defs>
      <g transform="translate(258.268438 463.158437)scale(0.1 -0.1)">
       <use xlink:href="#DejaVuSans-48"/>
       <use x="63.623047" xlink:href="#DejaVuSans-46"/>
       <use x="95.410156" xlink:href="#DejaVuSans-52"/>
      </g>
     </g>
    </g>
    <g id="xtick_6">
     <g id="line2d_11">
      <path clip-path="url(#p13405c6ab9)" d="M 313.65 448.56 
L 313.65 60.48 
" style="fill:none;stroke:#b0b0b0;stroke-linecap:square;stroke-width:0.8;"/>
     </g>
     <g id="line2d_12">
      <g>
       <use style="stroke:#000000;stroke-width:0.8;" x="313.65" xlink:href="#m3c21ebbf52" y="448.56"/>
      </g>
     </g>
     <g id="text_6">
      <!-- 0.5 -->
      <defs>
       <path d="M 10.796875 72.90625 
L 49.515625 72.90625 
L 49.515625 64.59375 
L 19.828125 64.59375 
L 19.828125 46.734375 
Q 21.96875 47.46875 24.109375 47.828125 
Q 26.265625 48.1875 28.421875 48.1875 
Q 40.625 48.1875 47.75 41.5 
Q 54.890625 34.8125 54.890625 23.390625 
Q 54.890625 11.625 47.5625 5.09375 
Q 40.234375 -1.421875 26.90625 -1.421875 
Q 22.3125 -1.421875 17.546875 -0.640625 
Q 12.796875 0.140625 7.71875 1.703125 
L 7.71875 11.625 
Q 12.109375 9.234375 16.796875 8.0625 
Q 21.484375 6.890625 26.703125 6.890625 
Q 35.15625 6.890625 40.078125 11.328125 
Q 45.015625 15.765625 45.015625 23.390625 
Q 45.015625 31 40.078125 35.4375 
Q 35.15625 39.890625 26.703125 39.890625 
Q 22.75 39.890625 18.8125 39.015625 
Q 14.890625 38.140625 10.796875 36.28125 
z
" id="DejaVuSans-53"/>
      </defs>
      <g transform="translate(305.698438 463.158437)scale(0.1 -0.1)">
       <use xlink:href="#DejaVuSans-48"/>
       <use x="63.623047" xlink:href="#DejaVuSans-46"/>
       <use x="95.410156" xlink:href="#DejaVuSans-53"/>
      </g>
     </g>
    </g>
    <g id="xtick_7">
     <g id="line2d_13">
      <path clip-path="url(#p13405c6ab9)" d="M 361.08 448.56 
L 361.08 60.48 
" style="fill:none;stroke:#b0b0b0;stroke-linecap:square;stroke-width:0.8;"/>
     </g>
     <g id="line2d_14">
      <g>
       <use style="stroke:#000000;stroke-width:0.8;" x="361.08" xlink:href="#m3c21ebbf52" y="448.56"/>
      </g>
     </g>
     <g id="text_7">
      <!-- 0.6 -->
      <defs>
       <path d="M 33.015625 40.375 
Q 26.375 40.375 22.484375 35.828125 
Q 18.609375 31.296875 18.609375 23.390625 
Q 18.609375 15.53125 22.484375 10.953125 
Q 26.375 6.390625 33.015625 6.390625 
Q 39.65625 6.390625 43.53125 10.953125 
Q 47.40625 15.53125 47.40625 23.390625 
Q 47.40625 31.296875 43.53125 35.828125 
Q 39.65625 40.375 33.015625 40.375 
z
M 52.59375 71.296875 
L 52.59375 62.3125 
Q 48.875 64.0625 45.09375 64.984375 
Q 41.3125 65.921875 37.59375 65.921875 
Q 27.828125 65.921875 22.671875 59.328125 
Q 17.53125 52.734375 16.796875 39.40625 
Q 19.671875 43.65625 24.015625 45.921875 
Q 28.375 48.1875 33.59375 48.1875 
Q 44.578125 48.1875 50.953125 41.515625 
Q 57.328125 34.859375 57.328125 23.390625 
Q 57.328125 12.15625 50.6875 5.359375 
Q 44.046875 -1.421875 33.015625 -1.421875 
Q 20.359375 -1.421875 13.671875 8.265625 
Q 6.984375 17.96875 6.984375 36.375 
Q 6.984375 53.65625 15.1875 63.9375 
Q 23.390625 74.21875 37.203125 74.21875 
Q 40.921875 74.21875 44.703125 73.484375 
Q 48.484375 72.75 52.59375 71.296875 
z
" id="DejaVuSans-54"/>
      </defs>
      <g transform="translate(353.128438 463.158437)scale(0.1 -0.1)">
       <use xlink:href="#DejaVuSans-48"/>
       <use x="63.623047" xlink:href="#DejaVuSans-46"/>
       <use x="95.410156" xlink:href="#DejaVuSans-54"/>
      </g>
     </g>
    </g>
    <g id="xtick_8">
     <g id="line2d_15">
      <path clip-path="url(#p13405c6ab9)" d="M 408.51 448.56 
L 408.51 60.48 
" style="fill:none;stroke:#b0b0b0;stroke-linecap:square;stroke-width:0.8;"/>
     </g>
     <g id="line2d_16">
      <g>
       <use style="stroke:#000000;stroke-width:0.8;" x="408.51" xlink:href="#m3c21ebbf52" y="448.56"/>
      </g>
     </g>
     <g id="text_8">
      <!-- 0.7 -->
      <defs>
       <path d="M 8.203125 72.90625 
L 55.078125 72.90625 
L 55.078125 68.703125 
L 28.609375 0 
L 18.3125 0 
L 43.21875 64.59375 
L 8.203125 64.59375 
z
" id="DejaVuSans-55"/>
      </defs>
      <g transform="translate(400.558438 463.158437)scale(0.1 -0.1)">
       <use xlink:href="#DejaVuSans-48"/>
       <use x="63.623047" xlink:href="#DejaVuSans-46"/>
       <use x="95.410156" xlink:href="#DejaVuSans-55"/>
      </g>
     </g>
    </g>
    <g id="xtick_9">
     <g id="line2d_17">
      <path clip-path="url(#p13405c6ab9)" d="M 455.94 448.56 
L 455.94 60.48 
" style="fill:none;stroke:#b0b0b0;stroke-linecap:square;stroke-width:0.8;"/>
     </g>
     <g id="line2d_18">
      <g>
       <use style="stroke:#000000;stroke-width:0.8;" x="455.94" xlink:href="#m3c21ebbf52" y="448.56"/>
      </g>
     </g>
     <g id="text_9">
      <!-- 0.8 -->
      <defs>
       <path d="M 31.78125 34.625 
Q 24.75 34.625 20.71875 30.859375 
Q 16.703125 27.09375 16.703125 20.515625 
Q 16.703125 13.921875 20.71875 10.15625 
Q 24.75 6.390625 31.78125 6.390625 
Q 38.8125 6.390625 42.859375 10.171875 
Q 46.921875 13.96875 46.921875 20.515625 
Q 46.921875 27.09375 42.890625 30.859375 
Q 38.875 34.625 31.78125 34.625 
z
M 21.921875 38.8125 
Q 15.578125 40.375 12.03125 44.71875 
Q 8.5 49.078125 8.5 55.328125 
Q 8.5 64.0625 14.71875 69.140625 
Q 20.953125 74.21875 31.78125 74.21875 
Q 42.671875 74.21875 48.875 69.140625 
Q 55.078125 64.0625 55.078125 55.328125 
Q 55.078125 49.078125 51.53125 44.71875 
Q 48 40.375 41.703125 38.8125 
Q 48.828125 37.15625 52.796875 32.3125 
Q 56.78125 27.484375 56.78125 20.515625 
Q 56.78125 9.90625 50.3125 4.234375 
Q 43.84375 -1.421875 31.78125 -1.421875 
Q 19.734375 -1.421875 13.25 4.234375 
Q 6.78125 9.90625 6.78125 20.515625 
Q 6.78125 27.484375 10.78125 32.3125 
Q 14.796875 37.15625 21.921875 38.8125 
z
M 18.3125 54.390625 
Q 18.3125 48.734375 21.84375 45.5625 
Q 25.390625 42.390625 31.78125 42.390625 
Q 38.140625 42.390625 41.71875 45.5625 
Q 45.3125 48.734375 45.3125 54.390625 
Q 45.3125 60.0625 41.71875 63.234375 
Q 38.140625 66.40625 31.78125 66.40625 
Q 25.390625 66.40625 21.84375 63.234375 
Q 18.3125 60.0625 18.3125 54.390625 
z
" id="DejaVuSans-56"/>
      </defs>
      <g transform="translate(447.988438 463.158437)scale(0.1 -0.1)">
       <use xlink:href="#DejaVuSans-48"/>
       <use x="63.623047" xlink:href="#DejaVuSans-46"/>
       <use x="95.410156" xlink:href="#DejaVuSans-56"/>
      </g>
     </g>
    </g>
    <g id="xtick_10">
     <g id="line2d_19">
      <path clip-path="url(#p13405c6ab9)" d="M 503.37 448.56 
L 503.37 60.48 
" style="fill:none;stroke:#b0b0b0;stroke-linecap:square;stroke-width:0.8;"/>
     </g>
     <g id="line2d_20">
      <g>
       <use style="stroke:#000000;stroke-width:0.8;" x="503.37" xlink:href="#m3c21ebbf52" y="448.56"/>
      </g>
     </g>
     <g id="text_10">
      <!-- 0.9 -->
      <defs>
       <path d="M 10.984375 1.515625 
L 10.984375 10.5 
Q 14.703125 8.734375 18.5 7.8125 
Q 22.3125 6.890625 25.984375 6.890625 
Q 35.75 6.890625 40.890625 13.453125 
Q 46.046875 20.015625 46.78125 33.40625 
Q 43.953125 29.203125 39.59375 26.953125 
Q 35.25 24.703125 29.984375 24.703125 
Q 19.046875 24.703125 12.671875 31.3125 
Q 6.296875 37.9375 6.296875 49.421875 
Q 6.296875 60.640625 12.9375 67.421875 
Q 19.578125 74.21875 30.609375 74.21875 
Q 43.265625 74.21875 49.921875 64.515625 
Q 56.59375 54.828125 56.59375 36.375 
Q 56.59375 19.140625 48.40625 8.859375 
Q 40.234375 -1.421875 26.421875 -1.421875 
Q 22.703125 -1.421875 18.890625 -0.6875 
Q 15.09375 0.046875 10.984375 1.515625 
z
M 30.609375 32.421875 
Q 37.25 32.421875 41.125 36.953125 
Q 45.015625 41.5 45.015625 49.421875 
Q 45.015625 57.28125 41.125 61.84375 
Q 37.25 66.40625 30.609375 66.40625 
Q 23.96875 66.40625 20.09375 61.84375 
Q 16.21875 57.28125 16.21875 49.421875 
Q 16.21875 41.5 20.09375 36.953125 
Q 23.96875 32.421875 30.609375 32.421875 
z
" id="DejaVuSans-57"/>
      </defs>
      <g transform="translate(495.418438 463.158437)scale(0.1 -0.1)">
       <use xlink:href="#DejaVuSans-48"/>
       <use x="63.623047" xlink:href="#DejaVuSans-46"/>
       <use x="95.410156" xlink:href="#DejaVuSans-57"/>
      </g>
     </g>
    </g>
    <g id="xtick_11">
     <g id="line2d_21">
      <path clip-path="url(#p13405c6ab9)" d="M 550.8 448.56 
L 550.8 60.48 
" style="fill:none;stroke:#b0b0b0;stroke-linecap:square;stroke-width:0.8;"/>
     </g>
     <g id="line2d_22">
      <g>
       <use style="stroke:#000000;stroke-width:0.8;" x="550.8" xlink:href="#m3c21ebbf52" y="448.56"/>
      </g>
     </g>
     <g id="text_11">
      <!-- 1.0 -->
      <g transform="translate(542.848438 463.158437)scale(0.1 -0.1)">
       <use xlink:href="#DejaVuSans-49"/>
       <use x="63.623047" xlink:href="#DejaVuSans-46"/>
       <use x="95.410156" xlink:href="#DejaVuSans-48"/>
      </g>
     </g>
    </g>
    <g id="text_12">
     <!-- 1-precision -->
     <defs>
      <path d="M 4.890625 31.390625 
L 31.203125 31.390625 
L 31.203125 23.390625 
L 4.890625 23.390625 
z
" id="DejaVuSans-45"/>
      <path d="M 18.109375 8.203125 
L 18.109375 -20.796875 
L 9.078125 -20.796875 
L 9.078125 54.6875 
L 18.109375 54.6875 
L 18.109375 46.390625 
Q 20.953125 51.265625 25.265625 53.625 
Q 29.59375 56 35.59375 56 
Q 45.5625 56 51.78125 48.09375 
Q 58.015625 40.1875 58.015625 27.296875 
Q 58.015625 14.40625 51.78125 6.484375 
Q 45.5625 -1.421875 35.59375 -1.421875 
Q 29.59375 -1.421875 25.265625 0.953125 
Q 20.953125 3.328125 18.109375 8.203125 
z
M 48.6875 27.296875 
Q 48.6875 37.203125 44.609375 42.84375 
Q 40.53125 48.484375 33.40625 48.484375 
Q 26.265625 48.484375 22.1875 42.84375 
Q 18.109375 37.203125 18.109375 27.296875 
Q 18.109375 17.390625 22.1875 11.75 
Q 26.265625 6.109375 33.40625 6.109375 
Q 40.53125 6.109375 44.609375 11.75 
Q 48.6875 17.390625 48.6875 27.296875 
z
" id="DejaVuSans-112"/>
      <path d="M 41.109375 46.296875 
Q 39.59375 47.171875 37.8125 47.578125 
Q 36.03125 48 33.890625 48 
Q 26.265625 48 22.1875 43.046875 
Q 18.109375 38.09375 18.109375 28.8125 
L 18.109375 0 
L 9.078125 0 
L 9.078125 54.6875 
L 18.109375 54.6875 
L 18.109375 46.1875 
Q 20.953125 51.171875 25.484375 53.578125 
Q 30.03125 56 36.53125 56 
Q 37.453125 56 38.578125 55.875 
Q 39.703125 55.765625 41.0625 55.515625 
z
" id="DejaVuSans-114"/>
      <path d="M 56.203125 29.59375 
L 56.203125 25.203125 
L 14.890625 25.203125 
Q 15.484375 15.921875 20.484375 11.0625 
Q 25.484375 6.203125 34.421875 6.203125 
Q 39.59375 6.203125 44.453125 7.46875 
Q 49.3125 8.734375 54.109375 11.28125 
L 54.109375 2.78125 
Q 49.265625 0.734375 44.1875 -0.34375 
Q 39.109375 -1.421875 33.890625 -1.421875 
Q 20.796875 -1.421875 13.15625 6.1875 
Q 5.515625 13.8125 5.515625 26.8125 
Q 5.515625 40.234375 12.765625 48.109375 
Q 20.015625 56 32.328125 56 
Q 43.359375 56 49.78125 48.890625 
Q 56.203125 41.796875 56.203125 29.59375 
z
M 47.21875 32.234375 
Q 47.125 39.59375 43.09375 43.984375 
Q 39.0625 48.390625 32.421875 48.390625 
Q 24.90625 48.390625 20.390625 44.140625 
Q 15.875 39.890625 15.1875 32.171875 
z
" id="DejaVuSans-101"/>
      <path d="M 48.78125 52.59375 
L 48.78125 44.1875 
Q 44.96875 46.296875 41.140625 47.34375 
Q 37.3125 48.390625 33.40625 48.390625 
Q 24.65625 48.390625 19.8125 42.84375 
Q 14.984375 37.3125 14.984375 27.296875 
Q 14.984375 17.28125 19.8125 11.734375 
Q 24.65625 6.203125 33.40625 6.203125 
Q 37.3125 6.203125 41.140625 7.25 
Q 44.96875 8.296875 48.78125 10.40625 
L 48.78125 2.09375 
Q 45.015625 0.34375 40.984375 -0.53125 
Q 36.96875 -1.421875 32.421875 -1.421875 
Q 20.0625 -1.421875 12.78125 6.34375 
Q 5.515625 14.109375 5.515625 27.296875 
Q 5.515625 40.671875 12.859375 48.328125 
Q 20.21875 56 33.015625 56 
Q 37.15625 56 41.109375 55.140625 
Q 45.0625 54.296875 48.78125 52.59375 
z
" id="DejaVuSans-99"/>
      <path d="M 9.421875 54.6875 
L 18.40625 54.6875 
L 18.40625 0 
L 9.421875 0 
z
M 9.421875 75.984375 
L 18.40625 75.984375 
L 18.40625 64.59375 
L 9.421875 64.59375 
z
" id="DejaVuSans-105"/>
      <path d="M 44.28125 53.078125 
L 44.28125 44.578125 
Q 40.484375 46.53125 36.375 47.5 
Q 32.28125 48.484375 27.875 48.484375 
Q 21.1875 48.484375 17.84375 46.4375 
Q 14.5 44.390625 14.5 40.28125 
Q 14.5 37.15625 16.890625 35.375 
Q 19.28125 33.59375 26.515625 31.984375 
L 29.59375 31.296875 
Q 39.15625 29.25 43.1875 25.515625 
Q 47.21875 21.78125 47.21875 15.09375 
Q 47.21875 7.46875 41.1875 3.015625 
Q 35.15625 -1.421875 24.609375 -1.421875 
Q 20.21875 -1.421875 15.453125 -0.5625 
Q 10.6875 0.296875 5.421875 2 
L 5.421875 11.28125 
Q 10.40625 8.6875 15.234375 7.390625 
Q 20.0625 6.109375 24.8125 6.109375 
Q 31.15625 6.109375 34.5625 8.28125 
Q 37.984375 10.453125 37.984375 14.40625 
Q 37.984375 18.0625 35.515625 20.015625 
Q 33.0625 21.96875 24.703125 23.78125 
L 21.578125 24.515625 
Q 13.234375 26.265625 9.515625 29.90625 
Q 5.8125 33.546875 5.8125 39.890625 
Q 5.8125 47.609375 11.28125 51.796875 
Q 16.75 56 26.8125 56 
Q 31.78125 56 36.171875 55.265625 
Q 40.578125 54.546875 44.28125 53.078125 
z
" id="DejaVuSans-115"/>
      <path d="M 30.609375 48.390625 
Q 23.390625 48.390625 19.1875 42.75 
Q 14.984375 37.109375 14.984375 27.296875 
Q 14.984375 17.484375 19.15625 11.84375 
Q 23.34375 6.203125 30.609375 6.203125 
Q 37.796875 6.203125 41.984375 11.859375 
Q 46.1875 17.53125 46.1875 27.296875 
Q 46.1875 37.015625 41.984375 42.703125 
Q 37.796875 48.390625 30.609375 48.390625 
z
M 30.609375 56 
Q 42.328125 56 49.015625 48.375 
Q 55.71875 40.765625 55.71875 27.296875 
Q 55.71875 13.875 49.015625 6.21875 
Q 42.328125 -1.421875 30.609375 -1.421875 
Q 18.84375 -1.421875 12.171875 6.21875 
Q 5.515625 13.875 5.515625 27.296875 
Q 5.515625 40.765625 12.171875 48.375 
Q 18.84375 56 30.609375 56 
z
" id="DejaVuSans-111"/>
      <path d="M 54.890625 33.015625 
L 54.890625 0 
L 45.90625 0 
L 45.90625 32.71875 
Q 45.90625 40.484375 42.875 44.328125 
Q 39.84375 48.1875 33.796875 48.1875 
Q 26.515625 48.1875 22.3125 43.546875 
Q 18.109375 38.921875 18.109375 30.90625 
L 18.109375 0 
L 9.078125 0 
L 9.078125 54.6875 
L 18.109375 54.6875 
L 18.109375 46.1875 
Q 21.34375 51.125 25.703125 53.5625 
Q 30.078125 56 35.796875 56 
Q 45.21875 56 50.046875 50.171875 
Q 54.890625 44.34375 54.890625 33.015625 
z
" id="DejaVuSans-110"/>
     </defs>
     <g transform="translate(286.110938 476.836563)scale(0.1 -0.1)">
      <use xlink:href="#DejaVuSans-49"/>
      <use x="63.623047" xlink:href="#DejaVuSans-45"/>
      <use x="99.707031" xlink:href="#DejaVuSans-112"/>
      <use x="163.183594" xlink:href="#DejaVuSans-114"/>
      <use x="202.046875" xlink:href="#DejaVuSans-101"/>
      <use x="263.570312" xlink:href="#DejaVuSans-99"/>
      <use x="318.550781" xlink:href="#DejaVuSans-105"/>
      <use x="346.333984" xlink:href="#DejaVuSans-115"/>
      <use x="398.433594" xlink:href="#DejaVuSans-105"/>
      <use x="426.216797" xlink:href="#DejaVuSans-111"/>
      <use x="487.398438" xlink:href="#DejaVuSans-110"/>
     </g>
    </g>
   </g>
   <g id="matplotlib.axis_2">
    <g id="ytick_1">
     <g id="line2d_23">
      <path clip-path="url(#p13405c6ab9)" d="M 76.5 448.56 
L 550.8 448.56 
" style="fill:none;stroke:#b0b0b0;stroke-linecap:square;stroke-width:0.8;"/>
     </g>
     <g id="line2d_24">
      <defs>
       <path d="M 0 0 
L -3.5 0 
" id="me028076ce0" style="stroke:#000000;stroke-width:0.8;"/>
      </defs>
      <g>
       <use style="stroke:#000000;stroke-width:0.8;" x="76.5" xlink:href="#me028076ce0" y="448.56"/>
      </g>
     </g>
     <g id="text_13">
      <!-- 0.0 -->
      <g transform="translate(53.596875 452.359219)scale(0.1 -0.1)">
       <use xlink:href="#DejaVuSans-48"/>
       <use x="63.623047" xlink:href="#DejaVuSans-46"/>
       <use x="95.410156" xlink:href="#DejaVuSans-48"/>
      </g>
     </g>
    </g>
    <g id="ytick_2">
     <g id="line2d_25">
      <path clip-path="url(#p13405c6ab9)" d="M 76.5 409.752 
L 550.8 409.752 
" style="fill:none;stroke:#b0b0b0;stroke-linecap:square;stroke-width:0.8;"/>
     </g>
     <g id="line2d_26">
      <g>
       <use style="stroke:#000000;stroke-width:0.8;" x="76.5" xlink:href="#me028076ce0" y="409.752"/>
      </g>
     </g>
     <g id="text_14">
      <!-- 0.1 -->
      <g transform="translate(53.596875 413.551219)scale(0.1 -0.1)">
       <use xlink:href="#DejaVuSans-48"/>
       <use x="63.623047" xlink:href="#DejaVuSans-46"/>
       <use x="95.410156" xlink:href="#DejaVuSans-49"/>
      </g>
     </g>
    </g>
    <g id="ytick_3">
     <g id="line2d_27">
      <path clip-path="url(#p13405c6ab9)" d="M 76.5 370.944 
L 550.8 370.944 
" style="fill:none;stroke:#b0b0b0;stroke-linecap:square;stroke-width:0.8;"/>
     </g>
     <g id="line2d_28">
      <g>
       <use style="stroke:#000000;stroke-width:0.8;" x="76.5" xlink:href="#me028076ce0" y="370.944"/>
      </g>
     </g>
     <g id="text_15">
      <!-- 0.2 -->
      <g transform="translate(53.596875 374.743219)scale(0.1 -0.1)">
       <use xlink:href="#DejaVuSans-48"/>
       <use x="63.623047" xlink:href="#DejaVuSans-46"/>
       <use x="95.410156" xlink:href="#DejaVuSans-50"/>
      </g>
     </g>
    </g>
    <g id="ytick_4">
     <g id="line2d_29">
      <path clip-path="url(#p13405c6ab9)" d="M 76.5 332.136 
L 550.8 332.136 
" style="fill:none;stroke:#b0b0b0;stroke-linecap:square;stroke-width:0.8;"/>
     </g>
     <g id="line2d_30">
      <g>
       <use style="stroke:#000000;stroke-width:0.8;" x="76.5" xlink:href="#me028076ce0" y="332.136"/>
      </g>
     </g>
     <g id="text_16">
      <!-- 0.3 -->
      <g transform="translate(53.596875 335.935219)scale(0.1 -0.1)">
       <use xlink:href="#DejaVuSans-48"/>
       <use x="63.623047" xlink:href="#DejaVuSans-46"/>
       <use x="95.410156" xlink:href="#DejaVuSans-51"/>
      </g>
     </g>
    </g>
    <g id="ytick_5">
     <g id="line2d_31">
      <path clip-path="url(#p13405c6ab9)" d="M 76.5 293.328 
L 550.8 293.328 
" style="fill:none;stroke:#b0b0b0;stroke-linecap:square;stroke-width:0.8;"/>
     </g>
     <g id="line2d_32">
      <g>
       <use style="stroke:#000000;stroke-width:0.8;" x="76.5" xlink:href="#me028076ce0" y="293.328"/>
      </g>
     </g>
     <g id="text_17">
      <!-- 0.4 -->
      <g transform="translate(53.596875 297.127219)scale(0.1 -0.1)">
       <use xlink:href="#DejaVuSans-48"/>
       <use x="63.623047" xlink:href="#DejaVuSans-46"/>
       <use x="95.410156" xlink:href="#DejaVuSans-52"/>
      </g>
     </g>
    </g>
    <g id="ytick_6">
     <g id="line2d_33">
      <path clip-path="url(#p13405c6ab9)" d="M 76.5 254.52 
L 550.8 254.52 
" style="fill:none;stroke:#b0b0b0;stroke-linecap:square;stroke-width:0.8;"/>
     </g>
     <g id="line2d_34">
      <g>
       <use style="stroke:#000000;stroke-width:0.8;" x="76.5" xlink:href="#me028076ce0" y="254.52"/>
      </g>
     </g>
     <g id="text_18">
      <!-- 0.5 -->
      <g transform="translate(53.596875 258.319219)scale(0.1 -0.1)">
       <use xlink:href="#DejaVuSans-48"/>
       <use x="63.623047" xlink:href="#DejaVuSans-46"/>
       <use x="95.410156" xlink:href="#DejaVuSans-53"/>
      </g>
     </g>
    </g>
    <g id="ytick_7">
     <g id="line2d_35">
      <path clip-path="url(#p13405c6ab9)" d="M 76.5 215.712 
L 550.8 215.712 
" style="fill:none;stroke:#b0b0b0;stroke-linecap:square;stroke-width:0.8;"/>
     </g>
     <g id="line2d_36">
      <g>
       <use style="stroke:#000000;stroke-width:0.8;" x="76.5" xlink:href="#me028076ce0" y="215.712"/>
      </g>
     </g>
     <g id="text_19">
      <!-- 0.6 -->
      <g transform="translate(53.596875 219.511219)scale(0.1 -0.1)">
       <use xlink:href="#DejaVuSans-48"/>
       <use x="63.623047" xlink:href="#DejaVuSans-46"/>
       <use x="95.410156" xlink:href="#DejaVuSans-54"/>
      </g>
     </g>
    </g>
    <g id="ytick_8">
     <g id="line2d_37">
      <path clip-path="url(#p13405c6ab9)" d="M 76.5 176.904 
L 550.8 176.904 
" style="fill:none;stroke:#b0b0b0;stroke-linecap:square;stroke-width:0.8;"/>
     </g>
     <g id="line2d_38">
      <g>
       <use style="stroke:#000000;stroke-width:0.8;" x="76.5" xlink:href="#me028076ce0" y="176.904"/>
      </g>
     </g>
     <g id="text_20">
      <!-- 0.7 -->
      <g transform="translate(53.596875 180.703219)scale(0.1 -0.1)">
       <use xlink:href="#DejaVuSans-48"/>
       <use x="63.623047" xlink:href="#DejaVuSans-46"/>
       <use x="95.410156" xlink:href="#DejaVuSans-55"/>
      </g>
     </g>
    </g>
    <g id="ytick_9">
     <g id="line2d_39">
      <path clip-path="url(#p13405c6ab9)" d="M 76.5 138.096 
L 550.8 138.096 
" style="fill:none;stroke:#b0b0b0;stroke-linecap:square;stroke-width:0.8;"/>
     </g>
     <g id="line2d_40">
      <g>
       <use style="stroke:#000000;stroke-width:0.8;" x="76.5" xlink:href="#me028076ce0" y="138.096"/>
      </g>
     </g>
     <g id="text_21">
      <!-- 0.8 -->
      <g transform="translate(53.596875 141.895219)scale(0.1 -0.1)">
       <use xlink:href="#DejaVuSans-48"/>
       <use x="63.623047" xlink:href="#DejaVuSans-46"/>
       <use x="95.410156" xlink:href="#DejaVuSans-56"/>
      </g>
     </g>
    </g>
    <g id="ytick_10">
     <g id="line2d_41">
      <path clip-path="url(#p13405c6ab9)" d="M 76.5 99.288 
L 550.8 99.288 
" style="fill:none;stroke:#b0b0b0;stroke-linecap:square;stroke-width:0.8;"/>
     </g>
     <g id="line2d_42">
      <g>
       <use style="stroke:#000000;stroke-width:0.8;" x="76.5" xlink:href="#me028076ce0" y="99.288"/>
      </g>
     </g>
     <g id="text_22">
      <!-- 0.9 -->
      <g transform="translate(53.596875 103.087219)scale(0.1 -0.1)">
       <use xlink:href="#DejaVuSans-48"/>
       <use x="63.623047" xlink:href="#DejaVuSans-46"/>
       <use x="95.410156" xlink:href="#DejaVuSans-57"/>
      </g>
     </g>
    </g>
    <g id="ytick_11">
     <g id="line2d_43">
      <path clip-path="url(#p13405c6ab9)" d="M 76.5 60.48 
L 550.8 60.48 
" style="fill:none;stroke:#b0b0b0;stroke-linecap:square;stroke-width:0.8;"/>
     </g>
     <g id="line2d_44">
      <g>
       <use style="stroke:#000000;stroke-width:0.8;" x="76.5" xlink:href="#me028076ce0" y="60.48"/>
      </g>
     </g>
     <g id="text_23">
      <!-- 1.0 -->
      <g transform="translate(53.596875 64.279219)scale(0.1 -0.1)">
       <use xlink:href="#DejaVuSans-49"/>
       <use x="63.623047" xlink:href="#DejaVuSans-46"/>
       <use x="95.410156" xlink:href="#DejaVuSans-48"/>
      </g>
     </g>
    </g>
    <g id="text_24">
     <!-- #correct/887 -->
     <defs>
      <path d="M 51.125 44 
L 36.921875 44 
L 32.8125 27.6875 
L 47.125 27.6875 
z
M 43.796875 71.78125 
L 38.71875 51.515625 
L 52.984375 51.515625 
L 58.109375 71.78125 
L 65.921875 71.78125 
L 60.890625 51.515625 
L 76.125 51.515625 
L 76.125 44 
L 58.984375 44 
L 54.984375 27.6875 
L 70.515625 27.6875 
L 70.515625 20.21875 
L 53.078125 20.21875 
L 48 0 
L 40.1875 0 
L 45.21875 20.21875 
L 30.90625 20.21875 
L 25.875 0 
L 18.015625 0 
L 23.09375 20.21875 
L 7.71875 20.21875 
L 7.71875 27.6875 
L 24.90625 27.6875 
L 29 44 
L 13.28125 44 
L 13.28125 51.515625 
L 30.90625 51.515625 
L 35.890625 71.78125 
z
" id="DejaVuSans-35"/>
      <path d="M 18.3125 70.21875 
L 18.3125 54.6875 
L 36.8125 54.6875 
L 36.8125 47.703125 
L 18.3125 47.703125 
L 18.3125 18.015625 
Q 18.3125 11.328125 20.140625 9.421875 
Q 21.96875 7.515625 27.59375 7.515625 
L 36.8125 7.515625 
L 36.8125 0 
L 27.59375 0 
Q 17.1875 0 13.234375 3.875 
Q 9.28125 7.765625 9.28125 18.015625 
L 9.28125 47.703125 
L 2.6875 47.703125 
L 2.6875 54.6875 
L 9.28125 54.6875 
L 9.28125 70.21875 
z
" id="DejaVuSans-116"/>
      <path d="M 25.390625 72.90625 
L 33.6875 72.90625 
L 8.296875 -9.28125 
L 0 -9.28125 
z
" id="DejaVuSans-47"/>
     </defs>
     <g transform="translate(47.517187 287.443438)rotate(-90)scale(0.1 -0.1)">
      <use xlink:href="#DejaVuSans-35"/>
      <use x="83.789062" xlink:href="#DejaVuSans-99"/>
      <use x="138.769531" xlink:href="#DejaVuSans-111"/>
      <use x="199.951172" xlink:href="#DejaVuSans-114"/>
      <use x="239.314453" xlink:href="#DejaVuSans-114"/>
      <use x="278.177734" xlink:href="#DejaVuSans-101"/>
      <use x="339.701172" xlink:href="#DejaVuSans-99"/>
      <use x="394.681641" xlink:href="#DejaVuSans-116"/>
      <use x="433.890625" xlink:href="#DejaVuSans-47"/>
      <use x="467.582031" xlink:href="#DejaVuSans-56"/>
      <use x="531.205078" xlink:href="#DejaVuSans-56"/>
      <use x="594.828125" xlink:href="#DejaVuSans-55"/>
     </g>
    </g>
   </g>
   <g id="line2d_45">
    <path clip-path="url(#p13405c6ab9)" d="M 76.5 448.12248 
L 76.5 206.17407 
L 77.354595 206.17407 
L 77.336508 200.923833 
L 78.17007 200.923833 
L 78.164211 200.048794 
L 78.991944 200.048794 
L 78.961765 196.986156 
L 79.776684 196.986156 
L 79.759794 195.673596 
L 80.567753 195.673596 
L 80.560788 195.236077 
L 81.364615 195.236077 
L 81.331579 193.485998 
L 82.127288 193.485998 
L 82.08 191.298399 
L 82.866443 191.298399 
L 82.855779 190.860879 
L 83.638294 190.860879 
L 83.6145 189.98584 
L 84.391847 189.98584 
L 84.326733 187.798241 
L 85.095222 187.798241 
L 85.066995 186.923202 
L 85.830492 186.923202 
L 85.769707 185.173123 
L 87.279545 185.173123 
L 87.24466 184.298083 
L 87.993538 184.298083 
L 87.919743 182.548005 
L 88.661538 182.548005 
L 88.64208 182.110485 
L 89.380351 182.110485 
L 89.318919 180.797926 
L 90.051429 180.797926 
L 90.029952 180.360406 
L 92.210252 180.360406 
L 92.160849 179.485366 
L 95.027344 179.485366 
L 94.99844 179.047847 
L 95.708411 179.047847 
L 95.678538 178.610327 
L 97.792105 178.610327 
L 97.628571 176.422728 
L 99.707339 176.422728 
L 99.636585 175.547689 
L 101.69044 175.547689 
L 101.652273 175.110169 
L 103.009215 175.110169 
L 102.929367 174.23513 
L 104.274324 174.23513 
L 104.149776 172.92257 
L 104.816418 172.92257 
L 104.732143 172.047531 
L 105.394948 172.047531 
L 105.352077 171.610011 
L 108.632253 171.610011 
L 108.585 171.172492 
L 109.234361 171.172492 
L 109.186364 170.734972 
L 110.477632 170.734972 
L 110.378571 169.859932 
L 111.658866 169.859932 
L 111.607837 169.422413 
L 114.772046 169.422413 
L 114.716978 168.984893 
L 116.591261 168.984893 
L 116.533906 168.547373 
L 117.772896 168.547373 
L 117.714103 168.109853 
L 118.330156 168.109853 
L 118.270739 167.672334 
L 118.884255 167.672334 
L 118.764356 166.797294 
L 119.983075 166.797294 
L 119.79986 165.484735 
L 124.58875 165.484735 
L 124.522053 165.047215 
L 126.288398 165.047215 
L 126.219724 164.609696 
L 132.565353 164.609696 
L 132.489281 164.172176 
L 133.056098 164.172176 
L 132.979567 163.734656 
L 136.900134 163.734656 
L 136.819277 163.297136 
L 137.9247 163.297136 
L 137.8428 162.859617 
L 139.488048 162.859617 
L 139.404509 162.422097 
L 141.575462 162.422097 
L 141.489723 161.984577 
L 145.758931 161.984577 
L 145.578804 161.109538 
L 146.105065 161.109538 
L 146.014786 160.672018 
L 146.539119 160.672018 
L 146.448512 160.234498 
L 146.97093 160.234498 
L 146.88 159.796979 
L 148.437532 159.796979 
L 148.345186 159.359459 
L 149.88913 159.359459 
L 149.795402 158.921939 
L 150.81707 158.921939 
L 150.722519 158.484419 
L 152.748228 158.484419 
L 152.651833 158.0469 
L 155.152764 158.0469 
L 154.955639 157.17186 
L 158.397764 157.17186 
L 158.296154 156.73434 
L 167.799879 156.73434 
L 167.579348 155.859301 
L 172.603695 155.859301 
L 172.489286 155.421781 
L 174.282227 155.421781 
L 174.166509 154.984262 
L 181.165505 154.984262 
L 181.044084 154.546742 
L 182.751963 154.546742 
L 182.629412 154.109222 
L 183.476755 154.109222 
L 183.108716 152.796663 
L 190.949495 152.796663 
L 190.821188 152.359143 
L 192.428237 152.359143 
L 192.298997 151.921623 
L 195.075 151.921623 
L 194.943978 151.484104 
L 196.509901 151.484104 
L 196.378022 151.046584 
L 199.848966 151.046584 
L 199.714891 150.609064 
L 200.096091 150.609064 
L 199.962039 150.171545 
L 200.721429 150.171545 
L 200.453132 149.296505 
L 211.801881 149.296505 
L 211.660647 148.858985 
L 220.285758 148.858985 
L 219.993807 147.983946 
L 221.664545 147.983946 
L 221.371875 147.108906 
L 224.984746 147.108906 
L 224.541948 145.796347 
L 246.332839 145.796347 
L 246.17544 145.358828 
L 252.803717 145.358828 
L 252.644022 144.921308 
L 253.988278 144.921308 
L 253.828378 144.483788 
L 262.906114 144.483788 
L 262.743455 144.046268 
L 263.745391 144.046268 
L 263.582711 143.608749 
L 265.318912 143.608749 
L 265.155997 143.171229 
L 267.357021 143.171229 
L 267.193755 142.733709 
L 269.599237 142.733709 
L 269.435593 142.296189 
L 276.864356 142.296189 
L 276.699176 141.85867 
L 280.92638 141.85867 
L 280.760584 141.42115 
L 283.57801 141.42115 
L 283.411949 140.98363 
L 289.897887 140.98363 
L 289.73104 140.54611 
L 297.648218 140.54611 
L 297.480682 140.108591 
L 303.293338 140.108591 
L 303.125592 139.671071 
L 304.763409 139.671071 
L 304.595815 139.233551 
L 305.854711 139.233551 
L 305.687299 138.796032 
L 313.146497 138.796032 
L 312.979137 138.358512 
L 314.483275 138.358512 
L 314.316152 137.920992 
L 319.354639 137.920992 
L 319.187843 137.483472 
L 320.138372 137.483472 
L 319.971839 137.045953 
L 326.56255 137.045953 
L 326.396616 136.608433 
L 326.84245 136.608433 
L 326.67677 136.170913 
L 327.268515 136.170913 
L 327.1031 135.733393 
L 329.43936 135.733393 
L 329.274364 135.295874 
L 342.7125 135.295874 
L 342.549479 134.858354 
L 343.816981 134.858354 
L 343.65438 134.420834 
L 346.389796 134.420834 
L 346.227894 133.983315 
L 350.08093 133.983315 
L 349.92 133.545795 
L 350.038095 133.545795 
L 371.537008 133.545795 
L 371.382214 133.108275 
L 371.476298 133.108275 
L 381.591539 133.108275 
L 381.440653 132.670755 
L 381.52437 132.670755 
L 383.017246 132.670755 
L 382.86714 132.233236 
L 382.949339 132.233236 
L 388.586708 132.233236 
L 388.439149 131.795716 
L 388.515879 131.795716 
L 390.035393 131.795716 
L 389.888676 131.358196 
L 389.963938 131.358196 
L 392.772656 131.358196 
L 392.627377 130.920676 
L 392.7 130.920676 
L 411.896491 130.920676 
L 411.76125 130.483157 
L 411.873288 130.483157 
L 416.525818 130.483157 
L 416.39346 130.045637 
L 416.498016 130.045637 
L 436.161753 130.045637 
L 436.042383 129.608117 
L 436.156532 129.608117 
" style="fill:none;stroke:#1f77b4;stroke-linecap:square;stroke-width:2;"/>
   </g>
   <g id="line2d_46">
    <path clip-path="url(#p13405c6ab9)" d="M 76.5 448.12248 
L 76.5 441.559684 
L 104.4 441.559684 
L 101.463158 440.684645 
L 99.085714 439.809605 
L 96.2625 438.497046 
L 94.066667 437.184487 
L 93.439286 436.746967 
L 109.210345 436.746967 
L 107.1 435.871928 
L 133.990909 435.871928 
L 132.3 435.434408 
L 144.257143 435.434408 
L 142.375 434.996888 
L 153.413514 434.996888 
L 149.469231 434.121849 
L 159.5025 434.121849 
L 157.478049 433.684329 
L 166.842857 433.684329 
L 164.74186 433.246809 
L 173.515909 433.246809 
L 165.43125 431.496731 
L 161.874 430.621691 
L 169.5 430.621691 
L 165.990566 429.746652 
L 186.605357 429.746652 
L 179.265 427.996573 
L 185.355738 427.996573 
L 183.6 427.559053 
L 195.075 427.559053 
L 193.250769 427.121533 
L 198.668182 427.121533 
L 195.075 426.246494 
L 205.238571 426.246494 
L 201.6625 425.371454 
L 206.445205 425.371454 
L 204.689189 424.933935 
L 209.304 424.933935 
L 207.556579 424.496415 
L 212.014286 424.496415 
L 210.276923 424.058895 
L 214.587342 424.058895 
L 212.86125 423.621375 
L 232.74 423.621375 
L 230.923256 423.183856 
L 238.193182 423.183856 
L 234.6 422.308816 
L 248.055319 422.308816 
L 246.249474 421.871297 
L 258.554545 421.871297 
L 254.949505 420.996257 
L 271.539252 420.996257 
L 269.733333 420.558737 
L 286.841739 420.558737 
L 283.246154 419.683698 
L 287.742857 419.683698 
L 285.9825 419.246178 
L 300.57874 419.246178 
L 298.828125 418.808658 
L 308.300752 418.808658 
L 306.570896 418.371139 
L 311.918978 418.371139 
L 310.213043 417.933619 
L 320.2375 417.933619 
L 318.556552 417.496099 
L 326.298 417.496099 
L 324.643709 417.058579 
L 341.293252 417.058579 
L 339.678659 416.62106 
L 344.705357 416.62106 
L 343.118343 416.18354 
L 349.086207 416.18354 
L 347.528571 415.74602 
L 353.175 415.74602 
L 351.646409 415.308501 
L 360.07619 415.308501 
L 358.583684 414.870981 
L 359.590052 414.870981 
L 356.656477 413.995941 
L 359.628061 413.995941 
L 358.190863 413.558422 
L 366.605825 413.558422 
L 362.441627 412.245862 
L 364.227014 412.245862 
L 362.869811 411.808343 
L 366.35 411.808343 
L 365.014286 411.370823 
L 377.026293 411.370823 
L 375.736481 410.933303 
L 379.414286 410.933303 
L 376.89 410.058264 
L 378.327273 410.058264 
L 377.085185 409.620744 
L 381.271084 409.620744 
L 378.842629 408.745705 
L 389.750373 408.745705 
L 388.585874 408.308185 
L 390.962637 408.308185 
L 389.814964 407.870665 
L 393.264643 407.870665 
L 392.137367 407.433145 
L 394.364211 407.433145 
L 393.252797 406.995626 
L 405.45 406.995626 
L 404.392283 406.558106 
L 405.327796 406.558106 
L 402.206013 405.245547 
L 402.674763 405.245547 
L 401.649057 404.808027 
L 408.794012 404.808027 
L 407.80209 404.370507 
L 411.543314 404.370507 
L 410.572174 403.932988 
L 416.040669 403.932988 
L 414.159557 403.057948 
L 417.483243 403.057948 
L 415.65 402.182909 
L 418.84252 402.182909 
L 417.946335 401.745389 
L 418.293211 401.745389 
L 417.403125 401.307869 
L 420.788832 401.307869 
L 419.917215 400.870349 
L 425.62155 400.870349 
L 424.778261 400.43283 
L 435.373009 400.43283 
L 434.580795 399.99531 
L 436.1 399.99531 
L 435.318261 399.55779 
L 439.666946 399.55779 
L 438.908768 399.120271 
L 439.141875 399.120271 
L 438.387942 398.682751 
L 440.00041 398.682751 
L 439.257055 398.245231 
L 440.609091 398.245231 
L 439.143863 397.370192 
L 439.591383 397.370192 
L 438.8652 396.932672 
L 439.088623 396.932672 
L 436.930357 395.620113 
L 440.221387 395.620113 
L 438.131034 394.307554 
L 442.6875 394.307554 
L 442.015596 393.870034 
L 442.214835 393.870034 
L 443.004545 393.870034 
L 442.339383 393.432514 
L 442.53587 393.432514 
L 442.926715 393.432514 
L 442.266486 392.994994 
L 442.461691 392.994994 
L 442.656194 392.994994 
L 442 392.557475 
L 442.194633 392.557475 
L 443.157447 392.557475 
L 442.508496 392.119955 
L 442.699823 392.119955 
L 445.851973 392.119955 
L 445.219521 391.682435 
L 445.4 391.682435 
L 448.884298 391.682435 
L 448.269802 391.244915 
L 448.438715 391.244915 
L 448.607072 391.244915 
L 447.996059 390.807396 
L 448.16459 390.807396 
L 449.329011 390.807396 
L 448.725728 390.369876 
L 448.89063 390.369876 
L 451.14455 390.369876 
L 450.553628 389.932356 
L 450.711496 389.932356 
L 453.021231 389.932356 
L 452.442857 389.494837 
L 452.593712 389.494837 
L 452.894037 389.494837 
L 452.319389 389.057317 
L 452.469512 389.057317 
L 452.917147 389.057317 
L 452.346818 388.619797 
L 452.495764 388.619797 
L 453.087068 388.619797 
L 452.521622 388.182277 
L 452.668966 388.182277 
L 455.525764 388.182277 
L 454.425544 387.307238 
L 454.565217 387.307238 
L 456.612766 387.307238 
L 456.074363 386.869718 
L 456.208345 386.869718 
L 456.475176 386.869718 
L 455.94 386.432198 
L 456.073418 386.432198 
L 457.127399 386.432198 
L 456.59875 385.994679 
L 456.729404 385.994679 
L 460.727092 385.994679 
L 459.709272 385.119639 
L 459.829762 385.119639 
L 460.427464 385.119639 
L 459.923622 384.68212 
L 460.042726 384.68212 
L 461.792545 384.68212 
L 461.297946 384.2446 
L 461.412692 384.2446 
L 469.348949 384.2446 
L 468.529104 383.36956 
L 471.926451 383.36956 
L 471.485619 382.932041 
L 471.573942 382.932041 
L 474.052427 382.932041 
L 473.62403 382.494521 
L 473.707104 382.494521 
L 474.446802 382.494521 
L 474.023003 382.057001 
L 474.104681 382.057001 
L 474.348674 382.057001 
L 473.927225 381.619481 
L 474.008571 381.619481 
L 475.755636 381.619481 
L 475.343182 381.181962 
L 475.421053 381.181962 
L 475.498763 381.181962 
L 475.087848 380.744442 
L 475.165741 380.744442 
L 475.552815 380.744442 
L 474.737589 379.869402 
L 474.815204 379.869402 
L 475.430466 379.869402 
L 475.027098 379.431883 
L 475.103636 379.431883 
L 476.82231 379.431883 
L 476.427515 378.994363 
L 476.573917 378.994363 
L 477.009687 378.994363 
L 476.618182 378.556843 
L 476.762927 378.556843 
L 476.978988 378.556843 
L 476.589796 378.119324 
L 476.733754 378.119324 
L 477.374712 378.119324 
L 476.989625 377.681804 
L 477.13116 377.681804 
L 477.272153 377.681804 
L 476.889006 377.244284 
L 477.030057 377.244284 
L 477.170571 377.244284 
L 476.789343 376.806764 
L 476.929915 376.806764 
L 477 376.806764 
L 476.620379 376.369245 
L 476.760738 376.369245 
L 478.404533 376.369245 
L 478.033087 375.931725 
L 478.167343 375.931725 
L 478.301105 375.931725 
L 477.931463 375.494205 
L 478.065289 375.494205 
L 478.132018 375.494205 
L 477.763886 375.056685 
L 477.89753 375.056685 
L 478.030685 375.056685 
L 477.664325 374.619166 
L 477.797541 374.619166 
L 479.039302 374.619166 
L 478.679249 374.181646 
L 478.808036 374.181646 
L 479.128 374.181646 
L 478.47766 373.306607 
L 478.541718 373.306607 
L 478.860317 373.306607 
L 478.215831 372.431567 
L 478.279613 372.431567 
L 478.533625 372.431567 
L 478.18189 371.994047 
L 478.308734 371.994047 
L 479.369277 371.994047 
L 479.022872 371.556528 
L 479.146094 371.556528 
L 483.642478 371.556528 
L 483.315193 371.119008 
L 483.423515 371.119008 
L 484.066216 371.119008 
L 483.742494 370.681488 
L 483.84885 370.681488 
L 486.88978 370.681488 
L 486.318127 369.806449 
L 486.366792 369.806449 
L 486.897305 369.806449 
L 486.590352 369.368929 
L 486.686258 369.368929 
L 487.114318 369.368929 
L 486.55359 368.49389 
L 486.601109 368.49389 
L 487.674982 368.49389 
L 487.376163 368.05637 
L 487.468215 368.05637 
L 487.605793 368.05637 
L 487.308321 367.61885 
L 487.400072 367.61885 
L 487.719123 367.61885 
L 487.423707 367.18133 
L 487.514634 367.18133 
L 488.891368 367.18133 
L 488.444476 366.306291 
L 489.389256 366.306291 
L 488.863918 365.431251 
L 488.948936 365.431251 
L 489.118275 365.431251 
L 488.836047 364.993732 
L 488.962935 364.993732 
L 489.047239 364.993732 
L 488.766213 364.556212 
L 488.892726 364.556212 
L 489.227586 364.556212 
L 488.240915 362.806133 
L 488.948503 362.806133 
L 488.674269 362.368613 
L 488.797943 362.368613 
L 488.880119 362.368613 
L 488.416854 361.493574 
L 488.458058 361.493574 
L 488.663265 361.493574 
L 488.392105 361.056054 
L 488.515036 361.056054 
L 488.596721 361.056054 
L 488.326671 360.618534 
L 488.449248 360.618534 
L 488.571345 360.618534 
L 488.034094 359.743495 
L 488.156604 359.743495 
L 488.197334 359.743495 
L 487.929825 359.305975 
L 488.05214 359.305975 
L 488.092806 359.305975 
L 487.826231 358.868455 
L 487.948352 358.868455 
L 488.631522 358.868455 
L 488.105172 357.993416 
L 488.225048 357.993416 
L 488.502982 357.993416 
L 487.980798 357.118377 
L 488.1 357.118377 
L 489.457983 357.118377 
L 489.202597 356.680857 
L 489.316667 356.680857 
L 489.505846 356.680857 
L 489.251845 356.243337 
L 489.365193 356.243337 
L 489.740024 356.243337 
L 489.488049 355.805817 
L 489.6 355.805817 
L 492.169329 355.805817 
L 491.927098 355.368298 
L 492.029843 355.368298 
L 492.772487 355.368298 
L 492.533525 354.930778 
L 492.633696 354.930778 
L 492.998064 354.930778 
L 492.761013 354.493258 
L 492.859943 354.493258 
L 493.478752 354.493258 
L 493.244494 354.055738 
L 493.341335 354.055738 
L 493.566034 354.055738 
L 492.900502 352.743179 
L 492.964978 352.743179 
L 493.157547 352.743179 
L 492.926456 352.30566 
L 493.022591 352.30566 
L 493.966667 352.30566 
L 493.739412 351.86814 
L 493.863389 351.86814 
L 493.986829 351.86814 
L 493.565747 350.9931 
L 493.658509 350.9931 
L 494.02657 350.9931 
L 493.57882 350.118061 
L 493.701284 350.118061 
L 494.155892 350.118061 
L 493.743243 349.243021 
L 493.83381 349.243021 
L 494.103791 349.243021 
L 493.884 348.805502 
L 494.003571 348.805502 
L 494.300313 348.805502 
L 494.082141 348.367982 
L 494.200365 348.367982 
L 494.726329 348.367982 
L 494.196296 347.055423 
L 494.283513 347.055423 
L 493.913173 346.180383 
L 493.971429 346.180383 
L 494.461827 346.180383 
L 493.912804 344.867824 
L 493.941578 344.867824 
L 494.142188 344.867824 
L 493.931788 344.430304 
L 494.046154 344.430304 
L 494.583167 344.430304 
L 494.375062 343.992785 
L 494.487183 343.992785 
L 494.62671 343.992785 
L 494.419614 343.555265 
L 494.531092 343.555265 
L 494.558893 343.555265 
L 494.174149 342.680225 
L 494.257833 342.680225 
L 496.090467 342.680225 
L 495.890567 342.242706 
L 495.995007 342.242706 
L 496.125 342.242706 
L 495.779403 341.367666 
L 495.831457 341.367666 
L 496.141722 341.367666 
L 495.944429 340.930147 
L 496.047396 340.930147 
L 496.556485 340.930147 
L 496.361292 340.492627 
L 496.462291 340.492627 
L 496.61309 340.492627 
L 496.418863 340.055107 
L 496.519243 340.055107 
L 498.1 340.055107 
L 497.911196 339.617587 
L 498.029357 339.617587 
L 498.170455 339.617587 
L 497.982628 339.180068 
L 498.1 339.180068 
L 498.541296 339.180068 
L 498.355374 338.742548 
L 498.470637 338.742548 
L 499.06193 338.742548 
L 498.878367 338.305028 
L 498.990897 338.305028 
L 499.34774 338.305028 
L 499.165792 337.867508 
L 499.276642 337.867508 
L 500.082375 337.867508 
L 499.903422 337.429989 
L 500.010708 337.429989 
L 500.096212 337.429989 
L 499.918006 336.992469 
L 500.024811 336.992469 
L 500.046118 336.992469 
L 499.868456 336.554949 
L 499.975052 336.554949 
L 500.955665 336.554949 
L 500.781494 336.11743 
L 500.883907 336.11743 
L 500.985901 336.11743 
L 500.8125 335.67991 
L 500.914391 335.67991 
L 501.337833 335.67991 
L 501.166182 335.24239 
L 501.26625 335.24239 
L 501.3858 335.24239 
L 501.214958 334.80487 
L 501.314446 334.80487 
L 501.688889 334.80487 
L 501.519626 334.367351 
L 501.637053 334.367351 
L 502.234955 334.367351 
L 501.996831 333.492311 
L 502.015917 333.492311 
L 502.674653 333.492311 
L 502.510297 333.054791 
L 502.621778 333.054791 
L 502.934862 333.054791 
L 502.771914 332.617272 
L 502.881777 332.617272 
L 503.441485 332.617272 
L 503.280678 332.179752 
L 503.387824 332.179752 
L 503.54764 332.179752 
L 503.387757 331.742232 
L 503.494023 331.742232 
L 504.39542 331.742232 
L 504.238681 331.304713 
L 504.340789 331.304713 
L 504.543668 331.304713 
L 504.387959 330.867193 
L 504.505842 330.867193 
L 504.706539 330.867193 
L 504.551896 330.429673 
L 504.668516 330.429673 
L 506.007765 330.429673 
L 505.857587 329.992153 
L 505.967318 329.992153 
L 506.123149 329.992153 
L 505.887097 329.117114 
L 505.933784 329.117114 
L 506.273212 329.117114 
L 506.125473 328.679594 
L 506.232716 328.679594 
L 507.710411 328.679594 
L 507.710411 328.679594 
" style="fill:none;stroke:#ff7f0e;stroke-linecap:square;stroke-width:2;"/>
   </g>
   <g id="line2d_47">
    <path clip-path="url(#p13405c6ab9)" d="M 76.5 448.12248 
L 76.5 408.745705 
L 81.655435 408.745705 
L 80.93271 402.182909 
L 80.264286 393.870034 
L 80.176744 392.557475 
L 83.796923 392.557475 
L 83.32446 388.619797 
L 86.663571 388.619797 
L 85.621154 381.619481 
L 84.677586 373.744126 
L 84.449162 371.556528 
L 87.04 371.556528 
L 86.981768 371.119008 
L 89.53022 371.119008 
L 88.417085 363.681172 
L 93.01791 363.681172 
L 91.729817 356.243337 
L 91.455405 354.493258 
L 93.515247 354.493258 
L 93.439286 354.055738 
L 95.472 354.055738 
L 95.388053 353.618219 
L 97.394273 353.618219 
L 96.769231 350.555581 
L 98.701277 350.555581 
L 98.421429 349.243021 
L 100.314226 349.243021 
L 100.019008 347.930462 
L 101.874074 347.930462 
L 101.666939 347.055423 
L 103.492683 347.055423 
L 103.275 346.180383 
L 105.072289 346.180383 
L 104.844622 345.305344 
L 110.111811 345.305344 
L 109.849219 344.430304 
L 111.564981 344.430304 
L 111.027586 342.680225 
L 112.706107 342.680225 
L 111.120438 337.429989 
L 112.719273 337.429989 
L 112.588043 336.992469 
L 114.170036 336.992469 
L 113.9 336.11743 
L 115.460357 336.11743 
L 115.04735 334.80487 
L 116.58169 334.80487 
L 116.441053 334.367351 
L 120.965625 334.367351 
L 120.507216 333.054791 
L 121.980822 333.054791 
L 121.215152 330.867193 
L 124.088629 330.867193 
L 123.772425 329.992153 
L 126.591089 329.992153 
L 126.1 328.679594 
L 127.483388 328.679594 
L 127.153398 327.804555 
L 128.52 327.804555 
L 128.021406 326.491995 
L 129.367834 326.491995 
L 129.2 326.054476 
L 130.534177 326.054476 
L 130.363722 325.616956 
L 136.892236 325.616956 
L 136.334769 324.304397 
L 137.606135 324.304397 
L 137.419266 323.866877 
L 138.679573 323.866877 
L 138.490578 323.429357 
L 143.443243 323.429357 
L 142.845536 322.116798 
L 144.056083 322.116798 
L 143.856213 321.679278 
L 145.056637 321.679278 
L 144.855 321.241759 
L 148.405539 321.241759 
L 147.988696 320.366719 
L 151.461207 320.366719 
L 151.032857 319.49168 
L 155.55 319.49168 
L 155.105899 318.61664 
L 156.214286 318.61664 
L 155.99162 318.179121 
L 157.091365 318.179121 
L 156.8675 317.741601 
L 157.958726 317.741601 
L 157.066027 315.991522 
L 159.211717 315.991522 
L 158.986957 315.554002 
L 160.04878 315.554002 
L 159.822973 315.116483 
L 160.876819 315.116483 
L 160.65 314.678963 
L 161.695979 314.678963 
L 161.2416 313.803923 
L 162.27766 313.803923 
L 161.82381 312.928884 
L 163.871053 312.928884 
L 163.186684 311.616325 
L 165.20026 311.616325 
L 164.74186 310.741285 
L 166.726735 310.741285 
L 166.495385 310.303766 
L 169.429008 310.303766 
L 169.193147 309.866246 
L 174.91725 309.866246 
L 174.427612 308.991206 
L 175.361538 308.991206 
L 175.116832 308.553687 
L 179.709535 308.553687 
L 179.457805 308.116167 
L 181.260437 308.116167 
L 181.00678 307.678647 
L 182.788916 307.678647 
L 182.279137 306.803608 
L 183.160766 306.803608 
L 182.652857 305.928568 
L 186.125943 305.928568 
L 185.868 305.491048 
L 187.577283 305.491048 
L 187.059441 304.616009 
L 187.905349 304.616009 
L 187.646868 304.178489 
L 190.157143 304.178489 
L 189.376888 302.86593 
L 193.465385 302.86593 
L 193.201354 302.42841 
L 194.006757 302.42841 
L 192.698218 300.240812 
L 195.860265 300.240812 
L 195.597357 299.803292 
L 197.929103 299.803292 
L 197.663974 299.365772 
L 199.962039 299.365772 
L 199.428726 298.490733 
L 200.185991 298.490733 
L 199.92 298.053213 
L 204.389809 298.053213 
L 203.849049 297.178174 
L 204.581013 297.178174 
L 204.311368 296.740654 
L 205.039286 296.740654 
L 204.501464 295.865614 
L 205.944375 295.865614 
L 205.67526 295.428095 
L 207.104348 295.428095 
L 206.834504 294.990575 
L 209.653893 294.990575 
L 209.381595 294.553055 
L 214.2 294.553055 
L 213.922938 294.115536 
L 215.273146 294.115536 
L 214.9956 293.678016 
L 216.99841 293.678016 
L 216.44198 292.802976 
L 218.416535 292.802976 
L 217.86 291.927937 
L 220.450973 291.927937 
L 219.893023 291.052897 
L 220.533075 291.052897 
L 220.255019 290.615378 
L 222.158349 290.615378 
L 221.87931 290.177858 
L 223.134733 290.177858 
L 222.577186 289.302818 
L 223.820455 289.302818 
L 223.541966 288.865299 
L 225.387406 288.865299 
L 225.108068 288.427779 
L 232.279266 288.427779 
L 231.709689 287.55274 
L 232.872131 287.55274 
L 232.587818 287.11522 
L 234.314105 287.11522 
L 234.029242 286.6777 
L 236.3 286.6777 
L 236.014132 286.24018 
L 238.250622 286.24018 
L 237.96383 285.802661 
L 240.166901 285.802661 
L 239.879262 285.365141 
L 243.123652 285.365141 
L 242.834375 284.927621 
L 246.532075 284.927621 
L 246.240925 284.490101 
L 248.312755 284.490101 
L 248.021053 284.052582 
L 249.555405 284.052582 
L 249.263575 283.615062 
L 251.784783 283.615062 
L 251.2005 282.740023 
L 254.166832 282.740023 
L 253.582401 281.864983 
L 254.556885 281.864983 
L 253.685481 280.552424 
L 254.169381 280.552424 
L 253.880488 280.114904 
L 256.749275 280.114904 
L 256.459486 279.677384 
L 256.931942 279.677384 
L 256.642788 279.239865 
L 257.582588 279.239865 
L 257.29378 278.802345 
L 260.991496 278.802345 
L 260.412245 277.927306 
L 263.121928 277.927306 
L 262.832143 277.489786 
L 263.278605 277.489786 
L 262.989474 277.052266 
L 266.074732 277.052266 
L 265.495878 276.177227 
L 267.657273 276.177227 
L 267.368079 275.739707 
L 267.796224 275.739707 
L 267.507692 275.302187 
L 270.04843 275.302187 
L 269.759552 274.864667 
L 273.8925 274.864667 
L 273.602643 274.427148 
L 275.221314 274.427148 
L 274.354797 273.114589 
L 274.756023 273.114589 
L 274.468696 272.677069 
L 274.868596 272.677069 
L 274.581936 272.239549 
L 274.980519 272.239549 
L 274.694524 271.802029 
L 275.091799 271.802029 
L 274.806466 271.36451 
L 275.202439 271.36451 
L 274.917765 270.92699 
L 275.312446 270.92699 
L 274.462821 269.614431 
L 276.417115 269.614431 
L 276.134746 269.176911 
L 276.522144 269.176911 
L 276.240423 268.739391 
L 277.011657 268.739391 
L 276.730435 268.301871 
L 277.114286 268.301871 
L 276.833706 267.864352 
L 277.978412 267.864352 
L 277.698192 267.426832 
L 280.703439 267.426832 
L 280.42294 266.989312 
L 282.633106 266.989312 
L 282.072962 266.114273 
L 284.604711 266.114273 
L 284.325 265.676753 
L 284.682685 265.676753 
L 284.403619 265.239233 
L 286.529122 265.239233 
L 285.69457 263.926674 
L 286.045238 263.926674 
L 285.492348 263.051635 
L 287.230931 263.051635 
L 286.68 262.176595 
L 290.423969 262.176595 
L 290.148649 261.739076 
L 290.483676 261.739076 
L 289.935 260.864036 
L 294.534635 260.864036 
L 294.260377 260.426516 
L 295.86375 260.426516 
L 295.589888 259.988997 
L 297.487361 259.988997 
L 296.941038 259.113957 
L 298.190037 259.113957 
L 297.91769 258.676437 
L 299.154279 258.676437 
L 298.882418 258.238918 
L 300.106804 258.238918 
L 299.835437 257.801398 
L 306.650295 257.801398 
L 306.378892 257.363878 
L 307.811606 257.363878 
L 307.540749 256.926359 
L 308.956694 256.926359 
L 308.686395 256.488839 
L 309.528042 256.488839 
L 309.258333 256.051319 
L 310.094118 256.051319 
L 309.825 255.613799 
L 311.479291 255.613799 
L 311.210743 255.17628 
L 312.301024 255.17628 
L 312.033068 254.73876 
L 312.57449 254.73876 
L 311.774237 253.426201 
L 312.044018 253.426201 
L 311.513514 252.551161 
L 314.966038 252.551161 
L 314.701663 252.113641 
L 318.056066 252.113641 
L 317.792358 251.676122 
L 319.057329 251.676122 
L 318.794252 251.238602 
L 319.796436 251.238602 
L 319.533981 250.801082 
L 320.031862 250.801082 
L 319.77 250.363563 
L 320.759422 250.363563 
L 320.498182 249.926043 
L 320.744231 249.926043 
L 320.483565 249.488523 
L 321.706051 249.488523 
L 321.446023 249.051003 
L 328.745791 249.051003 
L 328.487077 248.613484 
L 328.714857 248.613484 
L 328.456704 248.175964 
L 328.684049 248.175964 
L 328.426456 247.738444 
L 330.897273 247.738444 
L 330.640565 247.300924 
L 331.083988 247.300924 
L 330.827867 246.863405 
L 332.1477 246.863405 
L 331.892308 246.425885 
L 332.328814 246.425885 
L 332.074004 245.988365 
L 332.941964 245.988365 
L 332.68781 245.550846 
L 333.549062 245.550846 
L 333.295562 245.113326 
L 334.362807 245.113326 
L 334.11 244.675806 
L 334.534051 244.675806 
L 334.281818 244.238286 
L 334.493262 244.238286 
L 334.241561 243.800767 
L 334.663291 243.800767 
L 334.41216 243.363247 
L 339.549573 243.363247 
L 339.3 242.925727 
L 341.287782 242.925727 
L 340.790994 242.050688 
L 340.987816 242.050688 
L 340.740169 241.613168 
L 341.523974 241.613168 
L 341.27698 241.175648 
L 342.248794 241.175648 
L 342.002502 240.738129 
L 346.915385 240.738129 
L 346.670886 240.300609 
L 347.406486 240.300609 
L 347.162646 239.863089 
L 347.893184 239.863089 
L 347.65 239.425569 
L 349.2752 239.425569 
L 349.032948 238.98805 
L 352.381048 238.98805 
L 352.140314 238.55053 
L 352.486411 238.55053 
L 352.246214 238.11301 
L 353.959362 238.11301 
L 353.720172 237.67549 
L 357.877975 237.67549 
L 357.640725 237.237971 
L 362.251111 237.237971 
L 362.016118 236.800451 
L 367.590742 236.800451 
L 367.358612 236.362931 
L 368.232143 236.362931 
L 368.000793 235.925411 
L 369.153191 235.925411 
L 368.922756 235.487892 
L 369.065854 235.487892 
L 368.835849 235.050372 
L 369.690141 235.050372 
L 369.460907 234.612852 
L 370.167056 234.612852 
L 369.938521 234.175333 
L 370.07916 234.175333 
L 369.851049 233.737813 
L 370.690719 233.737813 
L 370.236371 232.862773 
L 371.482592 232.862773 
L 371.256552 232.425254 
L 371.668349 232.425254 
L 371.442857 231.987734 
L 372.802654 231.987734 
L 372.578182 231.550214 
L 372.847806 231.550214 
L 372.62381 231.112694 
L 376.31658 231.112694 
L 376.094822 230.675175 
L 376.35288 230.675175 
L 376.131587 230.237655 
L 378.922222 230.237655 
L 378.702758 229.800135 
L 380.188489 229.800135 
L 379.970165 229.362616 
L 380.092888 229.362616 
L 380.46 229.362616 
L 380.242264 228.925096 
L 380.364352 228.925096 
L 384.646057 228.925096 
L 384.431172 228.487576 
L 384.547108 228.487576 
L 386.606676 228.487576 
L 386.393398 228.050056 
L 386.506392 228.050056 
L 387.739154 228.050056 
L 387.526994 227.612537 
L 387.638215 227.612537 
L 389.288537 227.612537 
L 389.077763 227.175017 
L 389.186667 227.175017 
L 391.228324 227.175017 
L 391.019203 226.737497 
L 391.125299 226.737497 
L 391.231254 226.737497 
L 391.022546 226.299977 
L 391.128429 226.299977 
L 395.050549 226.299977 
L 394.844767 225.862458 
L 394.945449 225.862458 
L 395.546817 225.862458 
L 395.341774 225.424938 
L 395.441618 225.424938 
L 395.640924 225.424938 
L 395.127639 224.112379 
L 395.425862 224.112379 
L 395.222336 223.674859 
L 395.321556 223.674859 
L 397.279723 223.674859 
L 397.077848 223.237339 
L 397.174528 223.237339 
L 397.367525 223.237339 
L 397.166102 222.79982 
L 397.262484 222.79982 
L 397.454887 222.79982 
L 397.253914 222.3623 
L 397.35 222.3623 
L 401.55283 222.3623 
L 401.355109 221.92478 
L 401.445957 221.92478 
L 401.898545 221.92478 
L 401.701454 221.48726 
L 401.791707 221.48726 
L 402.15163 221.48726 
L 401.9551 221.049741 
L 402.044873 221.049741 
L 402.492123 221.049741 
L 402.296214 220.612221 
L 402.385405 220.612221 
L 403.798037 220.612221 
L 403.409091 219.737182 
L 403.496615 219.737182 
L 404.711131 219.737182 
L 404.517952 219.299662 
L 404.604 219.299662 
L 406.135739 219.299662 
L 405.943979 218.862142 
L 406.028198 218.862142 
L 407.031236 218.862142 
L 406.840508 218.424622 
L 406.923529 218.424622 
L 411.580246 218.424622 
L 411.206689 217.549583 
L 411.284457 217.549583 
L 413.877966 217.549583 
L 413.693607 217.112063 
L 413.768487 217.112063 
L 414.067193 217.112063 
L 413.883333 216.674543 
L 413.957866 216.674543 
L 414.255187 216.674543 
L 414.071824 216.237024 
L 414.146012 216.237024 
L 416.977843 216.237024 
L 416.797026 215.799504 
L 416.868153 215.799504 
L 420.263218 215.799504 
L 420.085471 215.361984 
L 420.153023 215.361984 
L 423.636066 215.361984 
L 423.461538 214.924464 
L 423.525528 214.924464 
L 423.908116 214.924464 
L 423.734151 214.486945 
L 423.797748 214.486945 
L 423.988156 214.486945 
L 423.814585 214.049425 
L 423.877983 214.049425 
L 428.986488 214.049425 
L 428.817672 213.611905 
L 428.934402 213.611905 
L 430.03229 213.611905 
L 429.864739 213.174386 
L 429.979261 213.174386 
L 430.944011 213.174386 
L 430.777606 212.736866 
L 430.890197 212.736866 
L 432.55407 212.736866 
L 432.334488 211.861826 
L 436.452273 211.861826 
L 436.291938 211.424307 
L 436.393858 211.424307 
L 439.175771 211.424307 
L 439.018359 210.986787 
L 439.115308 210.986787 
L 441.485526 210.986787 
L 441.330675 210.549267 
L 441.423485 210.549267 
L 444.662937 210.549267 
L 444.511554 210.111747 
L 444.598891 210.111747 
L 448.990823 210.111747 
L 448.844173 209.674228 
L 448.92439 209.674228 
L 456.937079 209.674228 
L 456.661499 208.799188 
L 456.763676 208.799188 
L 464.074474 208.799188 
L 463.945197 208.361669 
L 464.060926 208.361669 
L 464.463561 208.361669 
L 464.463561 208.361669 
" style="fill:none;stroke:#2ca02c;stroke-linecap:square;stroke-width:2;"/>
   </g>
   <g id="patch_3">
    <path d="M 76.5 448.56 
L 76.5 60.48 
" style="fill:none;stroke:#000000;stroke-linecap:square;stroke-linejoin:miter;stroke-width:0.8;"/>
   </g>
   <g id="patch_4">
    <path d="M 550.8 448.56 
L 550.8 60.48 
" style="fill:none;stroke:#000000;stroke-linecap:square;stroke-linejoin:miter;stroke-width:0.8;"/>
   </g>
   <g id="patch_5">
    <path d="M 76.5 448.56 
L 550.8 448.56 
" style="fill:none;stroke:#000000;stroke-linecap:square;stroke-linejoin:miter;stroke-width:0.8;"/>
   </g>
   <g id="patch_6">
    <path d="M 76.5 60.48 
L 550.8 60.48 
" style="fill:none;stroke:#000000;stroke-linecap:square;stroke-linejoin:miter;stroke-width:0.8;"/>
   </g>
   <g id="text_25">
    <!-- bark: img1-img2 -->
    <defs>
     <path d="M 48.6875 27.296875 
Q 48.6875 37.203125 44.609375 42.84375 
Q 40.53125 48.484375 33.40625 48.484375 
Q 26.265625 48.484375 22.1875 42.84375 
Q 18.109375 37.203125 18.109375 27.296875 
Q 18.109375 17.390625 22.1875 11.75 
Q 26.265625 6.109375 33.40625 6.109375 
Q 40.53125 6.109375 44.609375 11.75 
Q 48.6875 17.390625 48.6875 27.296875 
z
M 18.109375 46.390625 
Q 20.953125 51.265625 25.265625 53.625 
Q 29.59375 56 35.59375 56 
Q 45.5625 56 51.78125 48.09375 
Q 58.015625 40.1875 58.015625 27.296875 
Q 58.015625 14.40625 51.78125 6.484375 
Q 45.5625 -1.421875 35.59375 -1.421875 
Q 29.59375 -1.421875 25.265625 0.953125 
Q 20.953125 3.328125 18.109375 8.203125 
L 18.109375 0 
L 9.078125 0 
L 9.078125 75.984375 
L 18.109375 75.984375 
z
" id="DejaVuSans-98"/>
     <path d="M 34.28125 27.484375 
Q 23.390625 27.484375 19.1875 25 
Q 14.984375 22.515625 14.984375 16.5 
Q 14.984375 11.71875 18.140625 8.90625 
Q 21.296875 6.109375 26.703125 6.109375 
Q 34.1875 6.109375 38.703125 11.40625 
Q 43.21875 16.703125 43.21875 25.484375 
L 43.21875 27.484375 
z
M 52.203125 31.203125 
L 52.203125 0 
L 43.21875 0 
L 43.21875 8.296875 
Q 40.140625 3.328125 35.546875 0.953125 
Q 30.953125 -1.421875 24.3125 -1.421875 
Q 15.921875 -1.421875 10.953125 3.296875 
Q 6 8.015625 6 15.921875 
Q 6 25.140625 12.171875 29.828125 
Q 18.359375 34.515625 30.609375 34.515625 
L 43.21875 34.515625 
L 43.21875 35.40625 
Q 43.21875 41.609375 39.140625 45 
Q 35.0625 48.390625 27.6875 48.390625 
Q 23 48.390625 18.546875 47.265625 
Q 14.109375 46.140625 10.015625 43.890625 
L 10.015625 52.203125 
Q 14.9375 54.109375 19.578125 55.046875 
Q 24.21875 56 28.609375 56 
Q 40.484375 56 46.34375 49.84375 
Q 52.203125 43.703125 52.203125 31.203125 
z
" id="DejaVuSans-97"/>
     <path d="M 9.078125 75.984375 
L 18.109375 75.984375 
L 18.109375 31.109375 
L 44.921875 54.6875 
L 56.390625 54.6875 
L 27.390625 29.109375 
L 57.625 0 
L 45.90625 0 
L 18.109375 26.703125 
L 18.109375 0 
L 9.078125 0 
z
" id="DejaVuSans-107"/>
     <path d="M 11.71875 12.40625 
L 22.015625 12.40625 
L 22.015625 0 
L 11.71875 0 
z
M 11.71875 51.703125 
L 22.015625 51.703125 
L 22.015625 39.3125 
L 11.71875 39.3125 
z
" id="DejaVuSans-58"/>
     <path id="DejaVuSans-32"/>
     <path d="M 52 44.1875 
Q 55.375 50.25 60.0625 53.125 
Q 64.75 56 71.09375 56 
Q 79.640625 56 84.28125 50.015625 
Q 88.921875 44.046875 88.921875 33.015625 
L 88.921875 0 
L 79.890625 0 
L 79.890625 32.71875 
Q 79.890625 40.578125 77.09375 44.375 
Q 74.3125 48.1875 68.609375 48.1875 
Q 61.625 48.1875 57.5625 43.546875 
Q 53.515625 38.921875 53.515625 30.90625 
L 53.515625 0 
L 44.484375 0 
L 44.484375 32.71875 
Q 44.484375 40.625 41.703125 44.40625 
Q 38.921875 48.1875 33.109375 48.1875 
Q 26.21875 48.1875 22.15625 43.53125 
Q 18.109375 38.875 18.109375 30.90625 
L 18.109375 0 
L 9.078125 0 
L 9.078125 54.6875 
L 18.109375 54.6875 
L 18.109375 46.1875 
Q 21.1875 51.21875 25.484375 53.609375 
Q 29.78125 56 35.6875 56 
Q 41.65625 56 45.828125 52.96875 
Q 50 49.953125 52 44.1875 
z
" id="DejaVuSans-109"/>
     <path d="M 45.40625 27.984375 
Q 45.40625 37.75 41.375 43.109375 
Q 37.359375 48.484375 30.078125 48.484375 
Q 22.859375 48.484375 18.828125 43.109375 
Q 14.796875 37.75 14.796875 27.984375 
Q 14.796875 18.265625 18.828125 12.890625 
Q 22.859375 7.515625 30.078125 7.515625 
Q 37.359375 7.515625 41.375 12.890625 
Q 45.40625 18.265625 45.40625 27.984375 
z
M 54.390625 6.78125 
Q 54.390625 -7.171875 48.1875 -13.984375 
Q 42 -20.796875 29.203125 -20.796875 
Q 24.46875 -20.796875 20.265625 -20.09375 
Q 16.0625 -19.390625 12.109375 -17.921875 
L 12.109375 -9.1875 
Q 16.0625 -11.328125 19.921875 -12.34375 
Q 23.78125 -13.375 27.78125 -13.375 
Q 36.625 -13.375 41.015625 -8.765625 
Q 45.40625 -4.15625 45.40625 5.171875 
L 45.40625 9.625 
Q 42.625 4.78125 38.28125 2.390625 
Q 33.9375 0 27.875 0 
Q 17.828125 0 11.671875 7.65625 
Q 5.515625 15.328125 5.515625 27.984375 
Q 5.515625 40.671875 11.671875 48.328125 
Q 17.828125 56 27.875 56 
Q 33.9375 56 38.28125 53.609375 
Q 42.625 51.21875 45.40625 46.390625 
L 45.40625 54.6875 
L 54.390625 54.6875 
z
" id="DejaVuSans-103"/>
    </defs>
    <g transform="translate(263.854688 41.042625)scale(0.12 -0.12)">
     <use xlink:href="#DejaVuSans-98"/>
     <use x="63.476562" xlink:href="#DejaVuSans-97"/>
     <use x="124.755859" xlink:href="#DejaVuSans-114"/>
     <use x="165.869141" xlink:href="#DejaVuSans-107"/>
     <use x="223.779297" xlink:href="#DejaVuSans-58"/>
     <use x="257.470703" xlink:href="#DejaVuSans-32"/>
     <use x="289.257812" xlink:href="#DejaVuSans-105"/>
     <use x="317.041016" xlink:href="#DejaVuSans-109"/>
     <use x="414.453125" xlink:href="#DejaVuSans-103"/>
     <use x="477.929688" xlink:href="#DejaVuSans-49"/>
     <use x="541.552734" xlink:href="#DejaVuSans-45"/>
     <use x="577.636719" xlink:href="#DejaVuSans-105"/>
     <use x="605.419922" xlink:href="#DejaVuSans-109"/>
     <use x="702.832031" xlink:href="#DejaVuSans-103"/>
     <use x="766.308594" xlink:href="#DejaVuSans-50"/>
    </g>
    <!-- NearestNeighbours -->
    <defs>
     <path d="M 9.8125 72.90625 
L 23.09375 72.90625 
L 55.421875 11.921875 
L 55.421875 72.90625 
L 64.984375 72.90625 
L 64.984375 0 
L 51.703125 0 
L 19.390625 60.984375 
L 19.390625 0 
L 9.8125 0 
z
" id="DejaVuSans-78"/>
     <path d="M 54.890625 33.015625 
L 54.890625 0 
L 45.90625 0 
L 45.90625 32.71875 
Q 45.90625 40.484375 42.875 44.328125 
Q 39.84375 48.1875 33.796875 48.1875 
Q 26.515625 48.1875 22.3125 43.546875 
Q 18.109375 38.921875 18.109375 30.90625 
L 18.109375 0 
L 9.078125 0 
L 9.078125 75.984375 
L 18.109375 75.984375 
L 18.109375 46.1875 
Q 21.34375 51.125 25.703125 53.5625 
Q 30.078125 56 35.796875 56 
Q 45.21875 56 50.046875 50.171875 
Q 54.890625 44.34375 54.890625 33.015625 
z
" id="DejaVuSans-104"/>
     <path d="M 8.5 21.578125 
L 8.5 54.6875 
L 17.484375 54.6875 
L 17.484375 21.921875 
Q 17.484375 14.15625 20.5 10.265625 
Q 23.53125 6.390625 29.59375 6.390625 
Q 36.859375 6.390625 41.078125 11.03125 
Q 45.3125 15.671875 45.3125 23.6875 
L 45.3125 54.6875 
L 54.296875 54.6875 
L 54.296875 0 
L 45.3125 0 
L 45.3125 8.40625 
Q 42.046875 3.421875 37.71875 1 
Q 33.40625 -1.421875 27.6875 -1.421875 
Q 18.265625 -1.421875 13.375 4.4375 
Q 8.5 10.296875 8.5 21.578125 
z
M 31.109375 56 
z
" id="DejaVuSans-117"/>
    </defs>
    <g transform="translate(255.957188 54.48)scale(0.12 -0.12)">
     <use xlink:href="#DejaVuSans-78"/>
     <use x="74.804688" xlink:href="#DejaVuSans-101"/>
     <use x="136.328125" xlink:href="#DejaVuSans-97"/>
     <use x="197.607422" xlink:href="#DejaVuSans-114"/>
     <use x="236.470703" xlink:href="#DejaVuSans-101"/>
     <use x="297.994141" xlink:href="#DejaVuSans-115"/>
     <use x="350.09375" xlink:href="#DejaVuSans-116"/>
     <use x="389.302734" xlink:href="#DejaVuSans-78"/>
     <use x="464.107422" xlink:href="#DejaVuSans-101"/>
     <use x="525.630859" xlink:href="#DejaVuSans-105"/>
     <use x="553.414062" xlink:href="#DejaVuSans-103"/>
     <use x="616.890625" xlink:href="#DejaVuSans-104"/>
     <use x="680.269531" xlink:href="#DejaVuSans-98"/>
     <use x="743.746094" xlink:href="#DejaVuSans-111"/>
     <use x="804.927734" xlink:href="#DejaVuSans-117"/>
     <use x="868.306641" xlink:href="#DejaVuSans-114"/>
     <use x="909.419922" xlink:href="#DejaVuSans-115"/>
    </g>
   </g>
   <g id="legend_1">
    <g id="patch_7">
     <path d="M 362.659375 112.514375 
L 543.8 112.514375 
Q 545.8 112.514375 545.8 110.514375 
L 545.8 67.48 
Q 545.8 65.48 543.8 65.48 
L 362.659375 65.48 
Q 360.659375 65.48 360.659375 67.48 
L 360.659375 110.514375 
Q 360.659375 112.514375 362.659375 112.514375 
z
" style="fill:#ffffff;opacity:0.8;stroke:#cccccc;stroke-linejoin:miter;"/>
    </g>
    <g id="line2d_48">
     <path d="M 364.659375 73.578438 
L 384.659375 73.578438 
" style="fill:none;stroke:#1f77b4;stroke-linecap:square;stroke-width:2;"/>
    </g>
    <g id="line2d_49"/>
    <g id="text_26">
     <!-- root-cvsift AP: 78.5, %In: 24.2 -->
     <defs>
      <path d="M 2.984375 54.6875 
L 12.5 54.6875 
L 29.59375 8.796875 
L 46.6875 54.6875 
L 56.203125 54.6875 
L 35.6875 0 
L 23.484375 0 
z
" id="DejaVuSans-118"/>
      <path d="M 37.109375 75.984375 
L 37.109375 68.5 
L 28.515625 68.5 
Q 23.6875 68.5 21.796875 66.546875 
Q 19.921875 64.59375 19.921875 59.515625 
L 19.921875 54.6875 
L 34.71875 54.6875 
L 34.71875 47.703125 
L 19.921875 47.703125 
L 19.921875 0 
L 10.890625 0 
L 10.890625 47.703125 
L 2.296875 47.703125 
L 2.296875 54.6875 
L 10.890625 54.6875 
L 10.890625 58.5 
Q 10.890625 67.625 15.140625 71.796875 
Q 19.390625 75.984375 28.609375 75.984375 
z
" id="DejaVuSans-102"/>
      <path d="M 34.1875 63.1875 
L 20.796875 26.90625 
L 47.609375 26.90625 
z
M 28.609375 72.90625 
L 39.796875 72.90625 
L 67.578125 0 
L 57.328125 0 
L 50.6875 18.703125 
L 17.828125 18.703125 
L 11.1875 0 
L 0.78125 0 
z
" id="DejaVuSans-65"/>
      <path d="M 19.671875 64.796875 
L 19.671875 37.40625 
L 32.078125 37.40625 
Q 38.96875 37.40625 42.71875 40.96875 
Q 46.484375 44.53125 46.484375 51.125 
Q 46.484375 57.671875 42.71875 61.234375 
Q 38.96875 64.796875 32.078125 64.796875 
z
M 9.8125 72.90625 
L 32.078125 72.90625 
Q 44.34375 72.90625 50.609375 67.359375 
Q 56.890625 61.8125 56.890625 51.125 
Q 56.890625 40.328125 50.609375 34.8125 
Q 44.34375 29.296875 32.078125 29.296875 
L 19.671875 29.296875 
L 19.671875 0 
L 9.8125 0 
z
" id="DejaVuSans-80"/>
      <path d="M 11.71875 12.40625 
L 22.015625 12.40625 
L 22.015625 4 
L 14.015625 -11.625 
L 7.71875 -11.625 
L 11.71875 4 
z
" id="DejaVuSans-44"/>
      <path d="M 72.703125 32.078125 
Q 68.453125 32.078125 66.03125 28.46875 
Q 63.625 24.859375 63.625 18.40625 
Q 63.625 12.0625 66.03125 8.421875 
Q 68.453125 4.78125 72.703125 4.78125 
Q 76.859375 4.78125 79.265625 8.421875 
Q 81.6875 12.0625 81.6875 18.40625 
Q 81.6875 24.8125 79.265625 28.4375 
Q 76.859375 32.078125 72.703125 32.078125 
z
M 72.703125 38.28125 
Q 80.421875 38.28125 84.953125 32.90625 
Q 89.5 27.546875 89.5 18.40625 
Q 89.5 9.28125 84.9375 3.921875 
Q 80.375 -1.421875 72.703125 -1.421875 
Q 64.890625 -1.421875 60.34375 3.921875 
Q 55.8125 9.28125 55.8125 18.40625 
Q 55.8125 27.59375 60.375 32.9375 
Q 64.9375 38.28125 72.703125 38.28125 
z
M 22.3125 68.015625 
Q 18.109375 68.015625 15.6875 64.375 
Q 13.28125 60.75 13.28125 54.390625 
Q 13.28125 47.953125 15.671875 44.328125 
Q 18.0625 40.71875 22.3125 40.71875 
Q 26.5625 40.71875 28.96875 44.328125 
Q 31.390625 47.953125 31.390625 54.390625 
Q 31.390625 60.6875 28.953125 64.34375 
Q 26.515625 68.015625 22.3125 68.015625 
z
M 66.40625 74.21875 
L 74.21875 74.21875 
L 28.609375 -1.421875 
L 20.796875 -1.421875 
z
M 22.3125 74.21875 
Q 30.03125 74.21875 34.609375 68.875 
Q 39.203125 63.53125 39.203125 54.390625 
Q 39.203125 45.171875 34.640625 39.84375 
Q 30.078125 34.515625 22.3125 34.515625 
Q 14.546875 34.515625 10.03125 39.859375 
Q 5.515625 45.21875 5.515625 54.390625 
Q 5.515625 63.484375 10.046875 68.84375 
Q 14.59375 74.21875 22.3125 74.21875 
z
" id="DejaVuSans-37"/>
      <path d="M 9.8125 72.90625 
L 19.671875 72.90625 
L 19.671875 0 
L 9.8125 0 
z
" id="DejaVuSans-73"/>
     </defs>
     <g transform="translate(392.659375 77.078438)scale(0.1 -0.1)">
      <use xlink:href="#DejaVuSans-114"/>
      <use x="38.863281" xlink:href="#DejaVuSans-111"/>
      <use x="100.044922" xlink:href="#DejaVuSans-111"/>
      <use x="161.226562" xlink:href="#DejaVuSans-116"/>
      <use x="200.435547" xlink:href="#DejaVuSans-45"/>
      <use x="236.519531" xlink:href="#DejaVuSans-99"/>
      <use x="291.5" xlink:href="#DejaVuSans-118"/>
      <use x="350.679688" xlink:href="#DejaVuSans-115"/>
      <use x="402.779297" xlink:href="#DejaVuSans-105"/>
      <use x="430.5625" xlink:href="#DejaVuSans-102"/>
      <use x="464.017578" xlink:href="#DejaVuSans-116"/>
      <use x="503.226562" xlink:href="#DejaVuSans-32"/>
      <use x="535.013672" xlink:href="#DejaVuSans-65"/>
      <use x="603.421875" xlink:href="#DejaVuSans-80"/>
      <use x="663.724609" xlink:href="#DejaVuSans-58"/>
      <use x="697.416016" xlink:href="#DejaVuSans-32"/>
      <use x="729.203125" xlink:href="#DejaVuSans-55"/>
      <use x="792.826172" xlink:href="#DejaVuSans-56"/>
      <use x="856.449219" xlink:href="#DejaVuSans-46"/>
      <use x="888.236328" xlink:href="#DejaVuSans-53"/>
      <use x="951.859375" xlink:href="#DejaVuSans-44"/>
      <use x="983.646484" xlink:href="#DejaVuSans-32"/>
      <use x="1015.433594" xlink:href="#DejaVuSans-37"/>
      <use x="1110.453125" xlink:href="#DejaVuSans-73"/>
      <use x="1139.945312" xlink:href="#DejaVuSans-110"/>
      <use x="1203.324219" xlink:href="#DejaVuSans-58"/>
      <use x="1237.015625" xlink:href="#DejaVuSans-32"/>
      <use x="1268.802734" xlink:href="#DejaVuSans-50"/>
      <use x="1332.425781" xlink:href="#DejaVuSans-52"/>
      <use x="1396.048828" xlink:href="#DejaVuSans-46"/>
      <use x="1427.835938" xlink:href="#DejaVuSans-50"/>
     </g>
    </g>
    <g id="line2d_50">
     <path d="M 364.659375 88.256563 
L 384.659375 88.256563 
" style="fill:none;stroke:#ff7f0e;stroke-linecap:square;stroke-width:2;"/>
    </g>
    <g id="line2d_51"/>
    <g id="text_27">
     <!-- tfeat AP: 10.8, %In: 9.1 -->
     <g transform="translate(392.659375 91.756563)scale(0.1 -0.1)">
      <use xlink:href="#DejaVuSans-116"/>
      <use x="39.208984" xlink:href="#DejaVuSans-102"/>
      <use x="74.414062" xlink:href="#DejaVuSans-101"/>
      <use x="135.9375" xlink:href="#DejaVuSans-97"/>
      <use x="197.216797" xlink:href="#DejaVuSans-116"/>
      <use x="236.425781" xlink:href="#DejaVuSans-32"/>
      <use x="268.212891" xlink:href="#DejaVuSans-65"/>
      <use x="336.621094" xlink:href="#DejaVuSans-80"/>
      <use x="396.923828" xlink:href="#DejaVuSans-58"/>
      <use x="430.615234" xlink:href="#DejaVuSans-32"/>
      <use x="462.402344" xlink:href="#DejaVuSans-49"/>
      <use x="526.025391" xlink:href="#DejaVuSans-48"/>
      <use x="589.648438" xlink:href="#DejaVuSans-46"/>
      <use x="621.435547" xlink:href="#DejaVuSans-56"/>
      <use x="685.058594" xlink:href="#DejaVuSans-44"/>
      <use x="716.845703" xlink:href="#DejaVuSans-32"/>
      <use x="748.632812" xlink:href="#DejaVuSans-37"/>
      <use x="843.652344" xlink:href="#DejaVuSans-73"/>
      <use x="873.144531" xlink:href="#DejaVuSans-110"/>
      <use x="936.523438" xlink:href="#DejaVuSans-58"/>
      <use x="970.214844" xlink:href="#DejaVuSans-32"/>
      <use x="1002.001953" xlink:href="#DejaVuSans-57"/>
      <use x="1065.625" xlink:href="#DejaVuSans-46"/>
      <use x="1097.412109" xlink:href="#DejaVuSans-49"/>
     </g>
    </g>
    <g id="line2d_52">
     <path d="M 364.659375 102.934687 
L 384.659375 102.934687 
" style="fill:none;stroke:#2ca02c;stroke-linecap:square;stroke-width:2;"/>
    </g>
    <g id="line2d_53"/>
    <g id="text_28">
     <!-- hardnet AP: 47.7, %In: 18.2 -->
     <defs>
      <path d="M 45.40625 46.390625 
L 45.40625 75.984375 
L 54.390625 75.984375 
L 54.390625 0 
L 45.40625 0 
L 45.40625 8.203125 
Q 42.578125 3.328125 38.25 0.953125 
Q 33.9375 -1.421875 27.875 -1.421875 
Q 17.96875 -1.421875 11.734375 6.484375 
Q 5.515625 14.40625 5.515625 27.296875 
Q 5.515625 40.1875 11.734375 48.09375 
Q 17.96875 56 27.875 56 
Q 33.9375 56 38.25 53.625 
Q 42.578125 51.265625 45.40625 46.390625 
z
M 14.796875 27.296875 
Q 14.796875 17.390625 18.875 11.75 
Q 22.953125 6.109375 30.078125 6.109375 
Q 37.203125 6.109375 41.296875 11.75 
Q 45.40625 17.390625 45.40625 27.296875 
Q 45.40625 37.203125 41.296875 42.84375 
Q 37.203125 48.484375 30.078125 48.484375 
Q 22.953125 48.484375 18.875 42.84375 
Q 14.796875 37.203125 14.796875 27.296875 
z
" id="DejaVuSans-100"/>
     </defs>
     <g transform="translate(392.659375 106.434687)scale(0.1 -0.1)">
      <use xlink:href="#DejaVuSans-104"/>
      <use x="63.378906" xlink:href="#DejaVuSans-97"/>
      <use x="124.658203" xlink:href="#DejaVuSans-114"/>
      <use x="164.021484" xlink:href="#DejaVuSans-100"/>
      <use x="227.498047" xlink:href="#DejaVuSans-110"/>
      <use x="290.876953" xlink:href="#DejaVuSans-101"/>
      <use x="352.400391" xlink:href="#DejaVuSans-116"/>
      <use x="391.609375" xlink:href="#DejaVuSans-32"/>
      <use x="423.396484" xlink:href="#DejaVuSans-65"/>
      <use x="491.804688" xlink:href="#DejaVuSans-80"/>
      <use x="552.107422" xlink:href="#DejaVuSans-58"/>
      <use x="585.798828" xlink:href="#DejaVuSans-32"/>
      <use x="617.585938" xlink:href="#DejaVuSans-52"/>
      <use x="681.208984" xlink:href="#DejaVuSans-55"/>
      <use x="744.832031" xlink:href="#DejaVuSans-46"/>
      <use x="776.619141" xlink:href="#DejaVuSans-55"/>
      <use x="840.242188" xlink:href="#DejaVuSans-44"/>
      <use x="872.029297" xlink:href="#DejaVuSans-32"/>
      <use x="903.816406" xlink:href="#DejaVuSans-37"/>
      <use x="998.835938" xlink:href="#DejaVuSans-73"/>
      <use x="1028.328125" xlink:href="#DejaVuSans-110"/>
      <use x="1091.707031" xlink:href="#DejaVuSans-58"/>
      <use x="1125.398438" xlink:href="#DejaVuSans-32"/>
      <use x="1157.185547" xlink:href="#DejaVuSans-49"/>
      <use x="1220.808594" xlink:href="#DejaVuSans-56"/>
      <use x="1284.431641" xlink:href="#DejaVuSans-46"/>
      <use x="1316.21875" xlink:href="#DejaVuSans-50"/>
     </g>
    </g>
   </g>
  </g>
 </g>
 <defs>
  <clipPath id="p13405c6ab9">
   <rect height="388.08" width="474.3" x="76.5" y="60.48"/>
  </clipPath>
 </defs>
</svg>
