<?xml version="1.0" encoding="utf-8" standalone="no"?>
<!DOCTYPE svg PUBLIC "-//W3C//DTD SVG 1.1//EN"
  "http://www.w3.org/Graphics/SVG/1.1/DTD/svg11.dtd">
<!-- Created with matplotlib (https://matplotlib.org/) -->
<svg height="504pt" version="1.1" viewBox="0 0 612 504" width="612pt" xmlns="http://www.w3.org/2000/svg" xmlns:xlink="http://www.w3.org/1999/xlink">
 <defs>
  <style type="text/css">
*{stroke-linecap:butt;stroke-linejoin:round;}
  </style>
 </defs>
 <g id="figure_1">
  <g id="patch_1">
   <path d="M 0 504 
L 612 504 
L 612 0 
L 0 0 
z
" style="fill:#ffffff;"/>
  </g>
  <g id="axes_1">
   <g id="patch_2">
    <path d="M 76.5 448.56 
L 550.8 448.56 
L 550.8 60.48 
L 76.5 60.48 
z
" style="fill:#ffffff;"/>
   </g>
   <g id="matplotlib.axis_1">
    <g id="xtick_1">
     <g id="line2d_1">
      <path clip-path="url(#pe7e2737d9e)" d="M 76.5 448.56 
L 76.5 60.48 
" style="fill:none;stroke:#b0b0b0;stroke-linecap:square;stroke-width:0.8;"/>
     </g>
     <g id="line2d_2">
      <defs>
       <path d="M 0 0 
L 0 3.5 
" id="md534e0b26b" style="stroke:#000000;stroke-width:0.8;"/>
      </defs>
      <g>
       <use style="stroke:#000000;stroke-width:0.8;" x="76.5" xlink:href="#md534e0b26b" y="448.56"/>
      </g>
     </g>
     <g id="text_1">
      <!-- 0.0 -->
      <defs>
       <path d="M 31.78125 66.40625 
Q 24.171875 66.40625 20.328125 58.90625 
Q 16.5 51.421875 16.5 36.375 
Q 16.5 21.390625 20.328125 13.890625 
Q 24.171875 6.390625 31.78125 6.390625 
Q 39.453125 6.390625 43.28125 13.890625 
Q 47.125 21.390625 47.125 36.375 
Q 47.125 51.421875 43.28125 58.90625 
Q 39.453125 66.40625 31.78125 66.40625 
z
M 31.78125 74.21875 
Q 44.046875 74.21875 50.515625 64.515625 
Q 56.984375 54.828125 56.984375 36.375 
Q 56.984375 17.96875 50.515625 8.265625 
Q 44.046875 -1.421875 31.78125 -1.421875 
Q 19.53125 -1.421875 13.0625 8.265625 
Q 6.59375 17.96875 6.59375 36.375 
Q 6.59375 54.828125 13.0625 64.515625 
Q 19.53125 74.21875 31.78125 74.21875 
z
" id="DejaVuSans-48"/>
       <path d="M 10.6875 12.40625 
L 21 12.40625 
L 21 0 
L 10.6875 0 
z
" id="DejaVuSans-46"/>
      </defs>
      <g transform="translate(68.548438 463.158437)scale(0.1 -0.1)">
       <use xlink:href="#DejaVuSans-48"/>
       <use x="63.623047" xlink:href="#DejaVuSans-46"/>
       <use x="95.410156" xlink:href="#DejaVuSans-48"/>
      </g>
     </g>
    </g>
    <g id="xtick_2">
     <g id="line2d_3">
      <path clip-path="url(#pe7e2737d9e)" d="M 123.93 448.56 
L 123.93 60.48 
" style="fill:none;stroke:#b0b0b0;stroke-linecap:square;stroke-width:0.8;"/>
     </g>
     <g id="line2d_4">
      <g>
       <use style="stroke:#000000;stroke-width:0.8;" x="123.93" xlink:href="#md534e0b26b" y="448.56"/>
      </g>
     </g>
     <g id="text_2">
      <!-- 0.1 -->
      <defs>
       <path d="M 12.40625 8.296875 
L 28.515625 8.296875 
L 28.515625 63.921875 
L 10.984375 60.40625 
L 10.984375 69.390625 
L 28.421875 72.90625 
L 38.28125 72.90625 
L 38.28125 8.296875 
L 54.390625 8.296875 
L 54.390625 0 
L 12.40625 0 
z
" id="DejaVuSans-49"/>
      </defs>
      <g transform="translate(115.978438 463.158437)scale(0.1 -0.1)">
       <use xlink:href="#DejaVuSans-48"/>
       <use x="63.623047" xlink:href="#DejaVuSans-46"/>
       <use x="95.410156" xlink:href="#DejaVuSans-49"/>
      </g>
     </g>
    </g>
    <g id="xtick_3">
     <g id="line2d_5">
      <path clip-path="url(#pe7e2737d9e)" d="M 171.36 448.56 
L 171.36 60.48 
" style="fill:none;stroke:#b0b0b0;stroke-linecap:square;stroke-width:0.8;"/>
     </g>
     <g id="line2d_6">
      <g>
       <use style="stroke:#000000;stroke-width:0.8;" x="171.36" xlink:href="#md534e0b26b" y="448.56"/>
      </g>
     </g>
     <g id="text_3">
      <!-- 0.2 -->
      <defs>
       <path d="M 19.1875 8.296875 
L 53.609375 8.296875 
L 53.609375 0 
L 7.328125 0 
L 7.328125 8.296875 
Q 12.9375 14.109375 22.625 23.890625 
Q 32.328125 33.6875 34.8125 36.53125 
Q 39.546875 41.84375 41.421875 45.53125 
Q 43.3125 49.21875 43.3125 52.78125 
Q 43.3125 58.59375 39.234375 62.25 
Q 35.15625 65.921875 28.609375 65.921875 
Q 23.96875 65.921875 18.8125 64.3125 
Q 13.671875 62.703125 7.8125 59.421875 
L 7.8125 69.390625 
Q 13.765625 71.78125 18.9375 73 
Q 24.125 74.21875 28.421875 74.21875 
Q 39.75 74.21875 46.484375 68.546875 
Q 53.21875 62.890625 53.21875 53.421875 
Q 53.21875 48.921875 51.53125 44.890625 
Q 49.859375 40.875 45.40625 35.40625 
Q 44.1875 33.984375 37.640625 27.21875 
Q 31.109375 20.453125 19.1875 8.296875 
z
" id="DejaVuSans-50"/>
      </defs>
      <g transform="translate(163.408438 463.158437)scale(0.1 -0.1)">
       <use xlink:href="#DejaVuSans-48"/>
       <use x="63.623047" xlink:href="#DejaVuSans-46"/>
       <use x="95.410156" xlink:href="#DejaVuSans-50"/>
      </g>
     </g>
    </g>
    <g id="xtick_4">
     <g id="line2d_7">
      <path clip-path="url(#pe7e2737d9e)" d="M 218.79 448.56 
L 218.79 60.48 
" style="fill:none;stroke:#b0b0b0;stroke-linecap:square;stroke-width:0.8;"/>
     </g>
     <g id="line2d_8">
      <g>
       <use style="stroke:#000000;stroke-width:0.8;" x="218.79" xlink:href="#md534e0b26b" y="448.56"/>
      </g>
     </g>
     <g id="text_4">
      <!-- 0.3 -->
      <defs>
       <path d="M 40.578125 39.3125 
Q 47.65625 37.796875 51.625 33 
Q 55.609375 28.21875 55.609375 21.1875 
Q 55.609375 10.40625 48.1875 4.484375 
Q 40.765625 -1.421875 27.09375 -1.421875 
Q 22.515625 -1.421875 17.65625 -0.515625 
Q 12.796875 0.390625 7.625 2.203125 
L 7.625 11.71875 
Q 11.71875 9.328125 16.59375 8.109375 
Q 21.484375 6.890625 26.8125 6.890625 
Q 36.078125 6.890625 40.9375 10.546875 
Q 45.796875 14.203125 45.796875 21.1875 
Q 45.796875 27.640625 41.28125 31.265625 
Q 36.765625 34.90625 28.71875 34.90625 
L 20.21875 34.90625 
L 20.21875 43.015625 
L 29.109375 43.015625 
Q 36.375 43.015625 40.234375 45.921875 
Q 44.09375 48.828125 44.09375 54.296875 
Q 44.09375 59.90625 40.109375 62.90625 
Q 36.140625 65.921875 28.71875 65.921875 
Q 24.65625 65.921875 20.015625 65.03125 
Q 15.375 64.15625 9.8125 62.3125 
L 9.8125 71.09375 
Q 15.4375 72.65625 20.34375 73.4375 
Q 25.25 74.21875 29.59375 74.21875 
Q 40.828125 74.21875 47.359375 69.109375 
Q 53.90625 64.015625 53.90625 55.328125 
Q 53.90625 49.265625 50.4375 45.09375 
Q 46.96875 40.921875 40.578125 39.3125 
z
" id="DejaVuSans-51"/>
      </defs>
      <g transform="translate(210.838438 463.158437)scale(0.1 -0.1)">
       <use xlink:href="#DejaVuSans-48"/>
       <use x="63.623047" xlink:href="#DejaVuSans-46"/>
       <use x="95.410156" xlink:href="#DejaVuSans-51"/>
      </g>
     </g>
    </g>
    <g id="xtick_5">
     <g id="line2d_9">
      <path clip-path="url(#pe7e2737d9e)" d="M 266.22 448.56 
L 266.22 60.48 
" style="fill:none;stroke:#b0b0b0;stroke-linecap:square;stroke-width:0.8;"/>
     </g>
     <g id="line2d_10">
      <g>
       <use style="stroke:#000000;stroke-width:0.8;" x="266.22" xlink:href="#md534e0b26b" y="448.56"/>
      </g>
     </g>
     <g id="text_5">
      <!-- 0.4 -->
      <defs>
       <path d="M 37.796875 64.3125 
L 12.890625 25.390625 
L 37.796875 25.390625 
z
M 35.203125 72.90625 
L 47.609375 72.90625 
L 47.609375 25.390625 
L 58.015625 25.390625 
L 58.015625 17.1875 
L 47.609375 17.1875 
L 47.609375 0 
L 37.796875 0 
L 37.796875 17.1875 
L 4.890625 17.1875 
L 4.890625 26.703125 
z
" id="DejaVuSans-52"/>
      </defs>
      <g transform="translate(258.268438 463.158437)scale(0.1 -0.1)">
       <use xlink:href="#DejaVuSans-48"/>
       <use x="63.623047" xlink:href="#DejaVuSans-46"/>
       <use x="95.410156" xlink:href="#DejaVuSans-52"/>
      </g>
     </g>
    </g>
    <g id="xtick_6">
     <g id="line2d_11">
      <path clip-path="url(#pe7e2737d9e)" d="M 313.65 448.56 
L 313.65 60.48 
" style="fill:none;stroke:#b0b0b0;stroke-linecap:square;stroke-width:0.8;"/>
     </g>
     <g id="line2d_12">
      <g>
       <use style="stroke:#000000;stroke-width:0.8;" x="313.65" xlink:href="#md534e0b26b" y="448.56"/>
      </g>
     </g>
     <g id="text_6">
      <!-- 0.5 -->
      <defs>
       <path d="M 10.796875 72.90625 
L 49.515625 72.90625 
L 49.515625 64.59375 
L 19.828125 64.59375 
L 19.828125 46.734375 
Q 21.96875 47.46875 24.109375 47.828125 
Q 26.265625 48.1875 28.421875 48.1875 
Q 40.625 48.1875 47.75 41.5 
Q 54.890625 34.8125 54.890625 23.390625 
Q 54.890625 11.625 47.5625 5.09375 
Q 40.234375 -1.421875 26.90625 -1.421875 
Q 22.3125 -1.421875 17.546875 -0.640625 
Q 12.796875 0.140625 7.71875 1.703125 
L 7.71875 11.625 
Q 12.109375 9.234375 16.796875 8.0625 
Q 21.484375 6.890625 26.703125 6.890625 
Q 35.15625 6.890625 40.078125 11.328125 
Q 45.015625 15.765625 45.015625 23.390625 
Q 45.015625 31 40.078125 35.4375 
Q 35.15625 39.890625 26.703125 39.890625 
Q 22.75 39.890625 18.8125 39.015625 
Q 14.890625 38.140625 10.796875 36.28125 
z
" id="DejaVuSans-53"/>
      </defs>
      <g transform="translate(305.698438 463.158437)scale(0.1 -0.1)">
       <use xlink:href="#DejaVuSans-48"/>
       <use x="63.623047" xlink:href="#DejaVuSans-46"/>
       <use x="95.410156" xlink:href="#DejaVuSans-53"/>
      </g>
     </g>
    </g>
    <g id="xtick_7">
     <g id="line2d_13">
      <path clip-path="url(#pe7e2737d9e)" d="M 361.08 448.56 
L 361.08 60.48 
" style="fill:none;stroke:#b0b0b0;stroke-linecap:square;stroke-width:0.8;"/>
     </g>
     <g id="line2d_14">
      <g>
       <use style="stroke:#000000;stroke-width:0.8;" x="361.08" xlink:href="#md534e0b26b" y="448.56"/>
      </g>
     </g>
     <g id="text_7">
      <!-- 0.6 -->
      <defs>
       <path d="M 33.015625 40.375 
Q 26.375 40.375 22.484375 35.828125 
Q 18.609375 31.296875 18.609375 23.390625 
Q 18.609375 15.53125 22.484375 10.953125 
Q 26.375 6.390625 33.015625 6.390625 
Q 39.65625 6.390625 43.53125 10.953125 
Q 47.40625 15.53125 47.40625 23.390625 
Q 47.40625 31.296875 43.53125 35.828125 
Q 39.65625 40.375 33.015625 40.375 
z
M 52.59375 71.296875 
L 52.59375 62.3125 
Q 48.875 64.0625 45.09375 64.984375 
Q 41.3125 65.921875 37.59375 65.921875 
Q 27.828125 65.921875 22.671875 59.328125 
Q 17.53125 52.734375 16.796875 39.40625 
Q 19.671875 43.65625 24.015625 45.921875 
Q 28.375 48.1875 33.59375 48.1875 
Q 44.578125 48.1875 50.953125 41.515625 
Q 57.328125 34.859375 57.328125 23.390625 
Q 57.328125 12.15625 50.6875 5.359375 
Q 44.046875 -1.421875 33.015625 -1.421875 
Q 20.359375 -1.421875 13.671875 8.265625 
Q 6.984375 17.96875 6.984375 36.375 
Q 6.984375 53.65625 15.1875 63.9375 
Q 23.390625 74.21875 37.203125 74.21875 
Q 40.921875 74.21875 44.703125 73.484375 
Q 48.484375 72.75 52.59375 71.296875 
z
" id="DejaVuSans-54"/>
      </defs>
      <g transform="translate(353.128438 463.158437)scale(0.1 -0.1)">
       <use xlink:href="#DejaVuSans-48"/>
       <use x="63.623047" xlink:href="#DejaVuSans-46"/>
       <use x="95.410156" xlink:href="#DejaVuSans-54"/>
      </g>
     </g>
    </g>
    <g id="xtick_8">
     <g id="line2d_15">
      <path clip-path="url(#pe7e2737d9e)" d="M 408.51 448.56 
L 408.51 60.48 
" style="fill:none;stroke:#b0b0b0;stroke-linecap:square;stroke-width:0.8;"/>
     </g>
     <g id="line2d_16">
      <g>
       <use style="stroke:#000000;stroke-width:0.8;" x="408.51" xlink:href="#md534e0b26b" y="448.56"/>
      </g>
     </g>
     <g id="text_8">
      <!-- 0.7 -->
      <defs>
       <path d="M 8.203125 72.90625 
L 55.078125 72.90625 
L 55.078125 68.703125 
L 28.609375 0 
L 18.3125 0 
L 43.21875 64.59375 
L 8.203125 64.59375 
z
" id="DejaVuSans-55"/>
      </defs>
      <g transform="translate(400.558438 463.158437)scale(0.1 -0.1)">
       <use xlink:href="#DejaVuSans-48"/>
       <use x="63.623047" xlink:href="#DejaVuSans-46"/>
       <use x="95.410156" xlink:href="#DejaVuSans-55"/>
      </g>
     </g>
    </g>
    <g id="xtick_9">
     <g id="line2d_17">
      <path clip-path="url(#pe7e2737d9e)" d="M 455.94 448.56 
L 455.94 60.48 
" style="fill:none;stroke:#b0b0b0;stroke-linecap:square;stroke-width:0.8;"/>
     </g>
     <g id="line2d_18">
      <g>
       <use style="stroke:#000000;stroke-width:0.8;" x="455.94" xlink:href="#md534e0b26b" y="448.56"/>
      </g>
     </g>
     <g id="text_9">
      <!-- 0.8 -->
      <defs>
       <path d="M 31.78125 34.625 
Q 24.75 34.625 20.71875 30.859375 
Q 16.703125 27.09375 16.703125 20.515625 
Q 16.703125 13.921875 20.71875 10.15625 
Q 24.75 6.390625 31.78125 6.390625 
Q 38.8125 6.390625 42.859375 10.171875 
Q 46.921875 13.96875 46.921875 20.515625 
Q 46.921875 27.09375 42.890625 30.859375 
Q 38.875 34.625 31.78125 34.625 
z
M 21.921875 38.8125 
Q 15.578125 40.375 12.03125 44.71875 
Q 8.5 49.078125 8.5 55.328125 
Q 8.5 64.0625 14.71875 69.140625 
Q 20.953125 74.21875 31.78125 74.21875 
Q 42.671875 74.21875 48.875 69.140625 
Q 55.078125 64.0625 55.078125 55.328125 
Q 55.078125 49.078125 51.53125 44.71875 
Q 48 40.375 41.703125 38.8125 
Q 48.828125 37.15625 52.796875 32.3125 
Q 56.78125 27.484375 56.78125 20.515625 
Q 56.78125 9.90625 50.3125 4.234375 
Q 43.84375 -1.421875 31.78125 -1.421875 
Q 19.734375 -1.421875 13.25 4.234375 
Q 6.78125 9.90625 6.78125 20.515625 
Q 6.78125 27.484375 10.78125 32.3125 
Q 14.796875 37.15625 21.921875 38.8125 
z
M 18.3125 54.390625 
Q 18.3125 48.734375 21.84375 45.5625 
Q 25.390625 42.390625 31.78125 42.390625 
Q 38.140625 42.390625 41.71875 45.5625 
Q 45.3125 48.734375 45.3125 54.390625 
Q 45.3125 60.0625 41.71875 63.234375 
Q 38.140625 66.40625 31.78125 66.40625 
Q 25.390625 66.40625 21.84375 63.234375 
Q 18.3125 60.0625 18.3125 54.390625 
z
" id="DejaVuSans-56"/>
      </defs>
      <g transform="translate(447.988438 463.158437)scale(0.1 -0.1)">
       <use xlink:href="#DejaVuSans-48"/>
       <use x="63.623047" xlink:href="#DejaVuSans-46"/>
       <use x="95.410156" xlink:href="#DejaVuSans-56"/>
      </g>
     </g>
    </g>
    <g id="xtick_10">
     <g id="line2d_19">
      <path clip-path="url(#pe7e2737d9e)" d="M 503.37 448.56 
L 503.37 60.48 
" style="fill:none;stroke:#b0b0b0;stroke-linecap:square;stroke-width:0.8;"/>
     </g>
     <g id="line2d_20">
      <g>
       <use style="stroke:#000000;stroke-width:0.8;" x="503.37" xlink:href="#md534e0b26b" y="448.56"/>
      </g>
     </g>
     <g id="text_10">
      <!-- 0.9 -->
      <defs>
       <path d="M 10.984375 1.515625 
L 10.984375 10.5 
Q 14.703125 8.734375 18.5 7.8125 
Q 22.3125 6.890625 25.984375 6.890625 
Q 35.75 6.890625 40.890625 13.453125 
Q 46.046875 20.015625 46.78125 33.40625 
Q 43.953125 29.203125 39.59375 26.953125 
Q 35.25 24.703125 29.984375 24.703125 
Q 19.046875 24.703125 12.671875 31.3125 
Q 6.296875 37.9375 6.296875 49.421875 
Q 6.296875 60.640625 12.9375 67.421875 
Q 19.578125 74.21875 30.609375 74.21875 
Q 43.265625 74.21875 49.921875 64.515625 
Q 56.59375 54.828125 56.59375 36.375 
Q 56.59375 19.140625 48.40625 8.859375 
Q 40.234375 -1.421875 26.421875 -1.421875 
Q 22.703125 -1.421875 18.890625 -0.6875 
Q 15.09375 0.046875 10.984375 1.515625 
z
M 30.609375 32.421875 
Q 37.25 32.421875 41.125 36.953125 
Q 45.015625 41.5 45.015625 49.421875 
Q 45.015625 57.28125 41.125 61.84375 
Q 37.25 66.40625 30.609375 66.40625 
Q 23.96875 66.40625 20.09375 61.84375 
Q 16.21875 57.28125 16.21875 49.421875 
Q 16.21875 41.5 20.09375 36.953125 
Q 23.96875 32.421875 30.609375 32.421875 
z
" id="DejaVuSans-57"/>
      </defs>
      <g transform="translate(495.418438 463.158437)scale(0.1 -0.1)">
       <use xlink:href="#DejaVuSans-48"/>
       <use x="63.623047" xlink:href="#DejaVuSans-46"/>
       <use x="95.410156" xlink:href="#DejaVuSans-57"/>
      </g>
     </g>
    </g>
    <g id="xtick_11">
     <g id="line2d_21">
      <path clip-path="url(#pe7e2737d9e)" d="M 550.8 448.56 
L 550.8 60.48 
" style="fill:none;stroke:#b0b0b0;stroke-linecap:square;stroke-width:0.8;"/>
     </g>
     <g id="line2d_22">
      <g>
       <use style="stroke:#000000;stroke-width:0.8;" x="550.8" xlink:href="#md534e0b26b" y="448.56"/>
      </g>
     </g>
     <g id="text_11">
      <!-- 1.0 -->
      <g transform="translate(542.848438 463.158437)scale(0.1 -0.1)">
       <use xlink:href="#DejaVuSans-49"/>
       <use x="63.623047" xlink:href="#DejaVuSans-46"/>
       <use x="95.410156" xlink:href="#DejaVuSans-48"/>
      </g>
     </g>
    </g>
    <g id="text_12">
     <!-- 1-precision -->
     <defs>
      <path d="M 4.890625 31.390625 
L 31.203125 31.390625 
L 31.203125 23.390625 
L 4.890625 23.390625 
z
" id="DejaVuSans-45"/>
      <path d="M 18.109375 8.203125 
L 18.109375 -20.796875 
L 9.078125 -20.796875 
L 9.078125 54.6875 
L 18.109375 54.6875 
L 18.109375 46.390625 
Q 20.953125 51.265625 25.265625 53.625 
Q 29.59375 56 35.59375 56 
Q 45.5625 56 51.78125 48.09375 
Q 58.015625 40.1875 58.015625 27.296875 
Q 58.015625 14.40625 51.78125 6.484375 
Q 45.5625 -1.421875 35.59375 -1.421875 
Q 29.59375 -1.421875 25.265625 0.953125 
Q 20.953125 3.328125 18.109375 8.203125 
z
M 48.6875 27.296875 
Q 48.6875 37.203125 44.609375 42.84375 
Q 40.53125 48.484375 33.40625 48.484375 
Q 26.265625 48.484375 22.1875 42.84375 
Q 18.109375 37.203125 18.109375 27.296875 
Q 18.109375 17.390625 22.1875 11.75 
Q 26.265625 6.109375 33.40625 6.109375 
Q 40.53125 6.109375 44.609375 11.75 
Q 48.6875 17.390625 48.6875 27.296875 
z
" id="DejaVuSans-112"/>
      <path d="M 41.109375 46.296875 
Q 39.59375 47.171875 37.8125 47.578125 
Q 36.03125 48 33.890625 48 
Q 26.265625 48 22.1875 43.046875 
Q 18.109375 38.09375 18.109375 28.8125 
L 18.109375 0 
L 9.078125 0 
L 9.078125 54.6875 
L 18.109375 54.6875 
L 18.109375 46.1875 
Q 20.953125 51.171875 25.484375 53.578125 
Q 30.03125 56 36.53125 56 
Q 37.453125 56 38.578125 55.875 
Q 39.703125 55.765625 41.0625 55.515625 
z
" id="DejaVuSans-114"/>
      <path d="M 56.203125 29.59375 
L 56.203125 25.203125 
L 14.890625 25.203125 
Q 15.484375 15.921875 20.484375 11.0625 
Q 25.484375 6.203125 34.421875 6.203125 
Q 39.59375 6.203125 44.453125 7.46875 
Q 49.3125 8.734375 54.109375 11.28125 
L 54.109375 2.78125 
Q 49.265625 0.734375 44.1875 -0.34375 
Q 39.109375 -1.421875 33.890625 -1.421875 
Q 20.796875 -1.421875 13.15625 6.1875 
Q 5.515625 13.8125 5.515625 26.8125 
Q 5.515625 40.234375 12.765625 48.109375 
Q 20.015625 56 32.328125 56 
Q 43.359375 56 49.78125 48.890625 
Q 56.203125 41.796875 56.203125 29.59375 
z
M 47.21875 32.234375 
Q 47.125 39.59375 43.09375 43.984375 
Q 39.0625 48.390625 32.421875 48.390625 
Q 24.90625 48.390625 20.390625 44.140625 
Q 15.875 39.890625 15.1875 32.171875 
z
" id="DejaVuSans-101"/>
      <path d="M 48.78125 52.59375 
L 48.78125 44.1875 
Q 44.96875 46.296875 41.140625 47.34375 
Q 37.3125 48.390625 33.40625 48.390625 
Q 24.65625 48.390625 19.8125 42.84375 
Q 14.984375 37.3125 14.984375 27.296875 
Q 14.984375 17.28125 19.8125 11.734375 
Q 24.65625 6.203125 33.40625 6.203125 
Q 37.3125 6.203125 41.140625 7.25 
Q 44.96875 8.296875 48.78125 10.40625 
L 48.78125 2.09375 
Q 45.015625 0.34375 40.984375 -0.53125 
Q 36.96875 -1.421875 32.421875 -1.421875 
Q 20.0625 -1.421875 12.78125 6.34375 
Q 5.515625 14.109375 5.515625 27.296875 
Q 5.515625 40.671875 12.859375 48.328125 
Q 20.21875 56 33.015625 56 
Q 37.15625 56 41.109375 55.140625 
Q 45.0625 54.296875 48.78125 52.59375 
z
" id="DejaVuSans-99"/>
      <path d="M 9.421875 54.6875 
L 18.40625 54.6875 
L 18.40625 0 
L 9.421875 0 
z
M 9.421875 75.984375 
L 18.40625 75.984375 
L 18.40625 64.59375 
L 9.421875 64.59375 
z
" id="DejaVuSans-105"/>
      <path d="M 44.28125 53.078125 
L 44.28125 44.578125 
Q 40.484375 46.53125 36.375 47.5 
Q 32.28125 48.484375 27.875 48.484375 
Q 21.1875 48.484375 17.84375 46.4375 
Q 14.5 44.390625 14.5 40.28125 
Q 14.5 37.15625 16.890625 35.375 
Q 19.28125 33.59375 26.515625 31.984375 
L 29.59375 31.296875 
Q 39.15625 29.25 43.1875 25.515625 
Q 47.21875 21.78125 47.21875 15.09375 
Q 47.21875 7.46875 41.1875 3.015625 
Q 35.15625 -1.421875 24.609375 -1.421875 
Q 20.21875 -1.421875 15.453125 -0.5625 
Q 10.6875 0.296875 5.421875 2 
L 5.421875 11.28125 
Q 10.40625 8.6875 15.234375 7.390625 
Q 20.0625 6.109375 24.8125 6.109375 
Q 31.15625 6.109375 34.5625 8.28125 
Q 37.984375 10.453125 37.984375 14.40625 
Q 37.984375 18.0625 35.515625 20.015625 
Q 33.0625 21.96875 24.703125 23.78125 
L 21.578125 24.515625 
Q 13.234375 26.265625 9.515625 29.90625 
Q 5.8125 33.546875 5.8125 39.890625 
Q 5.8125 47.609375 11.28125 51.796875 
Q 16.75 56 26.8125 56 
Q 31.78125 56 36.171875 55.265625 
Q 40.578125 54.546875 44.28125 53.078125 
z
" id="DejaVuSans-115"/>
      <path d="M 30.609375 48.390625 
Q 23.390625 48.390625 19.1875 42.75 
Q 14.984375 37.109375 14.984375 27.296875 
Q 14.984375 17.484375 19.15625 11.84375 
Q 23.34375 6.203125 30.609375 6.203125 
Q 37.796875 6.203125 41.984375 11.859375 
Q 46.1875 17.53125 46.1875 27.296875 
Q 46.1875 37.015625 41.984375 42.703125 
Q 37.796875 48.390625 30.609375 48.390625 
z
M 30.609375 56 
Q 42.328125 56 49.015625 48.375 
Q 55.71875 40.765625 55.71875 27.296875 
Q 55.71875 13.875 49.015625 6.21875 
Q 42.328125 -1.421875 30.609375 -1.421875 
Q 18.84375 -1.421875 12.171875 6.21875 
Q 5.515625 13.875 5.515625 27.296875 
Q 5.515625 40.765625 12.171875 48.375 
Q 18.84375 56 30.609375 56 
z
" id="DejaVuSans-111"/>
      <path d="M 54.890625 33.015625 
L 54.890625 0 
L 45.90625 0 
L 45.90625 32.71875 
Q 45.90625 40.484375 42.875 44.328125 
Q 39.84375 48.1875 33.796875 48.1875 
Q 26.515625 48.1875 22.3125 43.546875 
Q 18.109375 38.921875 18.109375 30.90625 
L 18.109375 0 
L 9.078125 0 
L 9.078125 54.6875 
L 18.109375 54.6875 
L 18.109375 46.1875 
Q 21.34375 51.125 25.703125 53.5625 
Q 30.078125 56 35.796875 56 
Q 45.21875 56 50.046875 50.171875 
Q 54.890625 44.34375 54.890625 33.015625 
z
" id="DejaVuSans-110"/>
     </defs>
     <g transform="translate(286.110938 476.836563)scale(0.1 -0.1)">
      <use xlink:href="#DejaVuSans-49"/>
      <use x="63.623047" xlink:href="#DejaVuSans-45"/>
      <use x="99.707031" xlink:href="#DejaVuSans-112"/>
      <use x="163.183594" xlink:href="#DejaVuSans-114"/>
      <use x="202.046875" xlink:href="#DejaVuSans-101"/>
      <use x="263.570312" xlink:href="#DejaVuSans-99"/>
      <use x="318.550781" xlink:href="#DejaVuSans-105"/>
      <use x="346.333984" xlink:href="#DejaVuSans-115"/>
      <use x="398.433594" xlink:href="#DejaVuSans-105"/>
      <use x="426.216797" xlink:href="#DejaVuSans-111"/>
      <use x="487.398438" xlink:href="#DejaVuSans-110"/>
     </g>
    </g>
   </g>
   <g id="matplotlib.axis_2">
    <g id="ytick_1">
     <g id="line2d_23">
      <path clip-path="url(#pe7e2737d9e)" d="M 76.5 448.56 
L 550.8 448.56 
" style="fill:none;stroke:#b0b0b0;stroke-linecap:square;stroke-width:0.8;"/>
     </g>
     <g id="line2d_24">
      <defs>
       <path d="M 0 0 
L -3.5 0 
" id="mb627fabda0" style="stroke:#000000;stroke-width:0.8;"/>
      </defs>
      <g>
       <use style="stroke:#000000;stroke-width:0.8;" x="76.5" xlink:href="#mb627fabda0" y="448.56"/>
      </g>
     </g>
     <g id="text_13">
      <!-- 0.0 -->
      <g transform="translate(53.596875 452.359219)scale(0.1 -0.1)">
       <use xlink:href="#DejaVuSans-48"/>
       <use x="63.623047" xlink:href="#DejaVuSans-46"/>
       <use x="95.410156" xlink:href="#DejaVuSans-48"/>
      </g>
     </g>
    </g>
    <g id="ytick_2">
     <g id="line2d_25">
      <path clip-path="url(#pe7e2737d9e)" d="M 76.5 409.752 
L 550.8 409.752 
" style="fill:none;stroke:#b0b0b0;stroke-linecap:square;stroke-width:0.8;"/>
     </g>
     <g id="line2d_26">
      <g>
       <use style="stroke:#000000;stroke-width:0.8;" x="76.5" xlink:href="#mb627fabda0" y="409.752"/>
      </g>
     </g>
     <g id="text_14">
      <!-- 0.1 -->
      <g transform="translate(53.596875 413.551219)scale(0.1 -0.1)">
       <use xlink:href="#DejaVuSans-48"/>
       <use x="63.623047" xlink:href="#DejaVuSans-46"/>
       <use x="95.410156" xlink:href="#DejaVuSans-49"/>
      </g>
     </g>
    </g>
    <g id="ytick_3">
     <g id="line2d_27">
      <path clip-path="url(#pe7e2737d9e)" d="M 76.5 370.944 
L 550.8 370.944 
" style="fill:none;stroke:#b0b0b0;stroke-linecap:square;stroke-width:0.8;"/>
     </g>
     <g id="line2d_28">
      <g>
       <use style="stroke:#000000;stroke-width:0.8;" x="76.5" xlink:href="#mb627fabda0" y="370.944"/>
      </g>
     </g>
     <g id="text_15">
      <!-- 0.2 -->
      <g transform="translate(53.596875 374.743219)scale(0.1 -0.1)">
       <use xlink:href="#DejaVuSans-48"/>
       <use x="63.623047" xlink:href="#DejaVuSans-46"/>
       <use x="95.410156" xlink:href="#DejaVuSans-50"/>
      </g>
     </g>
    </g>
    <g id="ytick_4">
     <g id="line2d_29">
      <path clip-path="url(#pe7e2737d9e)" d="M 76.5 332.136 
L 550.8 332.136 
" style="fill:none;stroke:#b0b0b0;stroke-linecap:square;stroke-width:0.8;"/>
     </g>
     <g id="line2d_30">
      <g>
       <use style="stroke:#000000;stroke-width:0.8;" x="76.5" xlink:href="#mb627fabda0" y="332.136"/>
      </g>
     </g>
     <g id="text_16">
      <!-- 0.3 -->
      <g transform="translate(53.596875 335.935219)scale(0.1 -0.1)">
       <use xlink:href="#DejaVuSans-48"/>
       <use x="63.623047" xlink:href="#DejaVuSans-46"/>
       <use x="95.410156" xlink:href="#DejaVuSans-51"/>
      </g>
     </g>
    </g>
    <g id="ytick_5">
     <g id="line2d_31">
      <path clip-path="url(#pe7e2737d9e)" d="M 76.5 293.328 
L 550.8 293.328 
" style="fill:none;stroke:#b0b0b0;stroke-linecap:square;stroke-width:0.8;"/>
     </g>
     <g id="line2d_32">
      <g>
       <use style="stroke:#000000;stroke-width:0.8;" x="76.5" xlink:href="#mb627fabda0" y="293.328"/>
      </g>
     </g>
     <g id="text_17">
      <!-- 0.4 -->
      <g transform="translate(53.596875 297.127219)scale(0.1 -0.1)">
       <use xlink:href="#DejaVuSans-48"/>
       <use x="63.623047" xlink:href="#DejaVuSans-46"/>
       <use x="95.410156" xlink:href="#DejaVuSans-52"/>
      </g>
     </g>
    </g>
    <g id="ytick_6">
     <g id="line2d_33">
      <path clip-path="url(#pe7e2737d9e)" d="M 76.5 254.52 
L 550.8 254.52 
" style="fill:none;stroke:#b0b0b0;stroke-linecap:square;stroke-width:0.8;"/>
     </g>
     <g id="line2d_34">
      <g>
       <use style="stroke:#000000;stroke-width:0.8;" x="76.5" xlink:href="#mb627fabda0" y="254.52"/>
      </g>
     </g>
     <g id="text_18">
      <!-- 0.5 -->
      <g transform="translate(53.596875 258.319219)scale(0.1 -0.1)">
       <use xlink:href="#DejaVuSans-48"/>
       <use x="63.623047" xlink:href="#DejaVuSans-46"/>
       <use x="95.410156" xlink:href="#DejaVuSans-53"/>
      </g>
     </g>
    </g>
    <g id="ytick_7">
     <g id="line2d_35">
      <path clip-path="url(#pe7e2737d9e)" d="M 76.5 215.712 
L 550.8 215.712 
" style="fill:none;stroke:#b0b0b0;stroke-linecap:square;stroke-width:0.8;"/>
     </g>
     <g id="line2d_36">
      <g>
       <use style="stroke:#000000;stroke-width:0.8;" x="76.5" xlink:href="#mb627fabda0" y="215.712"/>
      </g>
     </g>
     <g id="text_19">
      <!-- 0.6 -->
      <g transform="translate(53.596875 219.511219)scale(0.1 -0.1)">
       <use xlink:href="#DejaVuSans-48"/>
       <use x="63.623047" xlink:href="#DejaVuSans-46"/>
       <use x="95.410156" xlink:href="#DejaVuSans-54"/>
      </g>
     </g>
    </g>
    <g id="ytick_8">
     <g id="line2d_37">
      <path clip-path="url(#pe7e2737d9e)" d="M 76.5 176.904 
L 550.8 176.904 
" style="fill:none;stroke:#b0b0b0;stroke-linecap:square;stroke-width:0.8;"/>
     </g>
     <g id="line2d_38">
      <g>
       <use style="stroke:#000000;stroke-width:0.8;" x="76.5" xlink:href="#mb627fabda0" y="176.904"/>
      </g>
     </g>
     <g id="text_20">
      <!-- 0.7 -->
      <g transform="translate(53.596875 180.703219)scale(0.1 -0.1)">
       <use xlink:href="#DejaVuSans-48"/>
       <use x="63.623047" xlink:href="#DejaVuSans-46"/>
       <use x="95.410156" xlink:href="#DejaVuSans-55"/>
      </g>
     </g>
    </g>
    <g id="ytick_9">
     <g id="line2d_39">
      <path clip-path="url(#pe7e2737d9e)" d="M 76.5 138.096 
L 550.8 138.096 
" style="fill:none;stroke:#b0b0b0;stroke-linecap:square;stroke-width:0.8;"/>
     </g>
     <g id="line2d_40">
      <g>
       <use style="stroke:#000000;stroke-width:0.8;" x="76.5" xlink:href="#mb627fabda0" y="138.096"/>
      </g>
     </g>
     <g id="text_21">
      <!-- 0.8 -->
      <g transform="translate(53.596875 141.895219)scale(0.1 -0.1)">
       <use xlink:href="#DejaVuSans-48"/>
       <use x="63.623047" xlink:href="#DejaVuSans-46"/>
       <use x="95.410156" xlink:href="#DejaVuSans-56"/>
      </g>
     </g>
    </g>
    <g id="ytick_10">
     <g id="line2d_41">
      <path clip-path="url(#pe7e2737d9e)" d="M 76.5 99.288 
L 550.8 99.288 
" style="fill:none;stroke:#b0b0b0;stroke-linecap:square;stroke-width:0.8;"/>
     </g>
     <g id="line2d_42">
      <g>
       <use style="stroke:#000000;stroke-width:0.8;" x="76.5" xlink:href="#mb627fabda0" y="99.288"/>
      </g>
     </g>
     <g id="text_22">
      <!-- 0.9 -->
      <g transform="translate(53.596875 103.087219)scale(0.1 -0.1)">
       <use xlink:href="#DejaVuSans-48"/>
       <use x="63.623047" xlink:href="#DejaVuSans-46"/>
       <use x="95.410156" xlink:href="#DejaVuSans-57"/>
      </g>
     </g>
    </g>
    <g id="ytick_11">
     <g id="line2d_43">
      <path clip-path="url(#pe7e2737d9e)" d="M 76.5 60.48 
L 550.8 60.48 
" style="fill:none;stroke:#b0b0b0;stroke-linecap:square;stroke-width:0.8;"/>
     </g>
     <g id="line2d_44">
      <g>
       <use style="stroke:#000000;stroke-width:0.8;" x="76.5" xlink:href="#mb627fabda0" y="60.48"/>
      </g>
     </g>
     <g id="text_23">
      <!-- 1.0 -->
      <g transform="translate(53.596875 64.279219)scale(0.1 -0.1)">
       <use xlink:href="#DejaVuSans-49"/>
       <use x="63.623047" xlink:href="#DejaVuSans-46"/>
       <use x="95.410156" xlink:href="#DejaVuSans-48"/>
      </g>
     </g>
    </g>
    <g id="text_24">
     <!-- #correct/1039 -->
     <defs>
      <path d="M 51.125 44 
L 36.921875 44 
L 32.8125 27.6875 
L 47.125 27.6875 
z
M 43.796875 71.78125 
L 38.71875 51.515625 
L 52.984375 51.515625 
L 58.109375 71.78125 
L 65.921875 71.78125 
L 60.890625 51.515625 
L 76.125 51.515625 
L 76.125 44 
L 58.984375 44 
L 54.984375 27.6875 
L 70.515625 27.6875 
L 70.515625 20.21875 
L 53.078125 20.21875 
L 48 0 
L 40.1875 0 
L 45.21875 20.21875 
L 30.90625 20.21875 
L 25.875 0 
L 18.015625 0 
L 23.09375 20.21875 
L 7.71875 20.21875 
L 7.71875 27.6875 
L 24.90625 27.6875 
L 29 44 
L 13.28125 44 
L 13.28125 51.515625 
L 30.90625 51.515625 
L 35.890625 71.78125 
z
" id="DejaVuSans-35"/>
      <path d="M 18.3125 70.21875 
L 18.3125 54.6875 
L 36.8125 54.6875 
L 36.8125 47.703125 
L 18.3125 47.703125 
L 18.3125 18.015625 
Q 18.3125 11.328125 20.140625 9.421875 
Q 21.96875 7.515625 27.59375 7.515625 
L 36.8125 7.515625 
L 36.8125 0 
L 27.59375 0 
Q 17.1875 0 13.234375 3.875 
Q 9.28125 7.765625 9.28125 18.015625 
L 9.28125 47.703125 
L 2.6875 47.703125 
L 2.6875 54.6875 
L 9.28125 54.6875 
L 9.28125 70.21875 
z
" id="DejaVuSans-116"/>
      <path d="M 25.390625 72.90625 
L 33.6875 72.90625 
L 8.296875 -9.28125 
L 0 -9.28125 
z
" id="DejaVuSans-47"/>
     </defs>
     <g transform="translate(47.517187 290.624688)rotate(-90)scale(0.1 -0.1)">
      <use xlink:href="#DejaVuSans-35"/>
      <use x="83.789062" xlink:href="#DejaVuSans-99"/>
      <use x="138.769531" xlink:href="#DejaVuSans-111"/>
      <use x="199.951172" xlink:href="#DejaVuSans-114"/>
      <use x="239.314453" xlink:href="#DejaVuSans-114"/>
      <use x="278.177734" xlink:href="#DejaVuSans-101"/>
      <use x="339.701172" xlink:href="#DejaVuSans-99"/>
      <use x="394.681641" xlink:href="#DejaVuSans-116"/>
      <use x="433.890625" xlink:href="#DejaVuSans-47"/>
      <use x="467.582031" xlink:href="#DejaVuSans-49"/>
      <use x="531.205078" xlink:href="#DejaVuSans-48"/>
      <use x="594.828125" xlink:href="#DejaVuSans-51"/>
      <use x="658.451172" xlink:href="#DejaVuSans-57"/>
     </g>
    </g>
   </g>
   <g id="line2d_45">
    <path clip-path="url(#pe7e2737d9e)" d="M 76.5 448.186487 
L 76.5 370.869297 
L 78.769378 370.869297 
L 78.317241 351.446622 
L 78.146875 341.361771 
L 79.782353 341.361771 
L 79.348649 324.927199 
L 80.76018 324.927199 
L 80.553846 318.577478 
L 81.889773 318.577478 
L 81.844225 317.456939 
L 83.161517 317.456939 
L 83.069252 315.589374 
L 84.361326 315.589374 
L 84.233152 313.348296 
L 85.497561 313.348296 
L 85.401072 311.854244 
L 86.645455 311.854244 
L 86.591489 311.107218 
L 87.822812 311.107218 
L 87.703937 309.613167 
L 88.91623 309.613167 
L 88.538071 305.131011 
L 89.708354 305.131011 
L 89.510723 302.889933 
L 91.8 302.889933 
L 91.724444 302.142907 
L 92.855172 302.142907 
L 92.347733 297.287238 
L 94.525653 297.287238 
L 94.230841 294.672647 
L 95.295105 294.672647 
L 95.035862 292.431569 
L 96.081193 292.431569 
L 95.815385 290.190491 
L 99.895964 290.190491 
L 99.739644 289.069952 
L 101.739911 289.069952 
L 101.408534 286.828874 
L 102.389738 286.828874 
L 102.165584 285.334822 
L 104.099353 285.334822 
L 103.980901 284.587796 
L 105.890385 284.587796 
L 105.579704 282.720231 
L 107.454316 282.720231 
L 106.941615 279.732127 
L 107.858678 279.732127 
L 107.794021 279.358614 
L 108.705556 279.358614 
L 108.639425 278.985101 
L 109.545492 278.985101 
L 109.477914 278.611588 
L 111.27556 278.611588 
L 110.925 276.744023 
L 111.81006 276.744023 
L 111.668537 275.996997 
L 114.292829 275.996997 
L 114.068317 274.876458 
L 116.647441 274.876458 
L 116.25614 273.008893 
L 117.101556 273.008893 
L 117.022718 272.63538 
L 118.700774 272.63538 
L 118.619305 272.261867 
L 119.452023 272.261867 
L 119.28714 271.514841 
L 120.937285 271.514841 
L 120.768 270.767815 
L 122.4 270.767815 
L 122.226465 270.020789 
L 123.840678 270.020789 
L 123.663039 269.273763 
L 124.462921 269.273763 
L 124.017996 267.406198 
L 126.380258 267.406198 
L 125.924314 265.538633 
L 126.699635 265.538633 
L 126.33587 264.044581 
L 129.389568 264.044581 
L 129.294614 263.671068 
L 131.552679 263.671068 
L 131.356762 262.924042 
L 133.583894 262.924042 
L 133.483039 262.550529 
L 134.219048 262.550529 
L 133.71451 260.682964 
L 135.890609 260.682964 
L 135.378621 258.815399 
L 136.093632 258.815399 
L 135.991237 258.441886 
L 136.702744 258.441886 
L 136.496923 257.69486 
L 138.610714 257.69486 
L 138.505263 257.321347 
L 139.204068 257.321347 
L 139.09797 256.947834 
L 140.486509 256.947834 
L 139.951505 255.080269 
L 144.705124 255.080269 
L 144.592574 254.706756 
L 145.261779 254.706756 
L 145.035961 253.959731 
L 145.701148 253.959731 
L 145.587889 253.586218 
L 146.25 253.586218 
L 146.022801 252.839192 
L 149.292407 252.839192 
L 149.175 252.465679 
L 149.821739 252.465679 
L 149.703859 252.092166 
L 150.347673 252.092166 
L 150.229327 251.718653 
L 150.87024 251.718653 
L 150.751438 251.34514 
L 152.659459 251.34514 
L 152.538571 250.971627 
L 153.798892 250.971627 
L 153.192151 249.104062 
L 156.288785 249.104062 
L 156.040994 248.357036 
L 157.871406 248.357036 
L 157.745833 247.983523 
L 158.351464 247.983523 
L 157.974847 246.862984 
L 158.576417 246.862984 
L 158.450917 246.489471 
L 159.049924 246.489471 
L 158.79863 245.742445 
L 159.394377 245.742445 
L 159.268589 245.368932 
L 159.861818 245.368932 
L 159.60997 244.621906 
L 161.374737 244.621906 
L 161.247297 244.248393 
L 162.99417 244.248393 
L 162.736364 243.501367 
L 163.889599 243.501367 
L 163.759941 243.127854 
L 164.90503 243.127854 
L 164.774446 242.754341 
L 168.165593 242.754341 
L 167.764723 241.633802 
L 168.878198 241.633802 
L 168.744122 241.260289 
L 169.297826 241.260289 
L 169.163531 240.886776 
L 170.813256 240.886776 
L 170.407317 239.766237 
L 172.037571 239.766237 
L 171.494744 238.272185 
L 172.032766 238.272185 
L 171.627966 237.151646 
L 172.162764 237.151646 
L 172.028028 236.778133 
L 173.091994 236.778133 
L 172.956522 236.40462 
L 175.064435 236.40462 
L 174.790264 235.657594 
L 175.3125 235.657594 
L 174.90249 234.537055 
L 176.970702 234.537055 
L 176.557808 233.416516 
L 177.069767 233.416516 
L 176.795362 232.66949 
L 179.831935 232.66949 
L 179.692297 232.295977 
L 180.193117 232.295977 
L 180.053369 231.922464 
L 180.552355 231.922464 
L 180.27302 231.175438 
L 181.26506 231.175438 
L 181.125 230.801925 
L 181.618558 230.801925 
L 181.4784 230.428412 
L 182.949801 230.428412 
L 182.808621 230.054899 
L 189.045763 230.054899 
L 188.899219 229.681386 
L 189.369831 229.681386 
L 189.223247 229.307873 
L 192.94126 229.307873 
L 192.791784 228.93436 
L 193.250769 228.93436 
L 192.952174 228.187334 
L 201.87606 228.187334 
L 201.564179 227.440308 
L 203.722621 227.440308 
L 203.565556 227.066795 
L 203.993711 227.066795 
L 203.8367 226.693282 
L 205.113865 226.693282 
L 204.95625 226.319769 
L 205.801834 226.319769 
L 205.486463 225.572743 
L 207.162743 225.572743 
L 207.004364 225.19923 
L 209.486643 225.19923 
L 209.167347 224.452204 
L 209.576978 224.452204 
L 209.417605 224.078691 
L 209.825957 224.078691 
L 209.666667 223.705178 
L 210.073747 223.705178 
L 209.914541 223.331665 
L 210.725208 223.331665 
L 210.406762 222.584639 
L 211.61383 222.584639 
L 211.454309 222.211126 
L 213.049354 222.211126 
L 212.729191 221.4641 
L 213.914019 221.4641 
L 213.434109 220.343561 
L 216.547059 220.343561 
L 216.385714 219.970048 
L 218.301031 219.970048 
L 218.138787 219.596535 
L 218.518971 219.596535 
L 218.356849 219.223022 
L 219.491468 219.223022 
L 219.328977 218.849509 
L 219.705221 218.849509 
L 219.542857 218.475996 
L 221.038375 218.475996 
L 220.875423 218.102483 
L 221.246959 218.102483 
L 221.084139 217.72897 
L 222.193049 217.72897 
L 222.029899 217.355457 
L 222.397651 217.355457 
L 222.234637 216.981944 
L 222.601339 216.981944 
L 222.438462 216.608431 
L 222.80412 216.608431 
L 222.641379 216.234918 
L 224.095017 216.234918 
L 223.931748 215.861405 
L 224.292928 215.861405 
L 224.129801 215.487892 
L 224.489967 215.487892 
L 224.326982 215.114379 
L 225.044505 215.114379 
L 224.881449 214.740866 
L 229.466883 214.740866 
L 229.301514 214.367353 
L 230.685791 214.367353 
L 230.52 213.99384 
L 230.864017 213.99384 
L 230.698391 213.620327 
L 231.725455 213.620327 
L 231.559615 213.246814 
L 232.240299 213.246814 
L 232.074441 212.873301 
L 234.766948 212.873301 
L 234.6 212.499788 
L 235.265684 212.499788 
L 235.098738 212.126275 
L 236.749895 212.126275 
L 236.415344 211.379249 
L 236.74317 211.379249 
L 236.57625 211.005736 
L 237.55514 211.005736 
L 237.388071 210.632223 
L 239.005263 210.632223 
L 238.670546 209.885197 
L 241.537041 209.885197 
L 241.368807 209.511684 
L 241.68391 209.511684 
L 241.180812 208.391145 
L 242.433064 208.391145 
L 242.265455 208.017632 
L 244.124096 208.017632 
L 243.955968 207.644119 
L 244.8765 207.644119 
L 244.708292 207.270606 
L 245.926567 207.270606 
L 245.758151 206.897093 
L 246.665114 206.897093 
L 246.496634 206.52358 
L 247.098024 206.52358 
L 246.761538 205.776554 
L 247.360039 205.776554 
L 247.192035 205.403041 
L 247.787929 205.403041 
L 247.62 205.029528 
L 250.854704 205.029528 
L 250.685756 204.656015 
L 250.976283 204.656015 
L 250.807544 204.282502 
L 251.963584 204.282502 
L 251.794706 203.908989 
L 254.927143 203.908989 
L 254.587928 203.161963 
L 257.100566 203.161963 
L 256.760771 202.414937 
L 257.588274 202.414937 
L 257.418557 202.041424 
L 257.693258 202.041424 
L 257.523761 201.667911 
L 258.617055 201.667911 
L 258.278233 200.920885 
L 260.439058 200.920885 
L 260.269373 200.547372 
L 261.3375 200.547372 
L 261.167769 200.173859 
L 262.227722 200.173859 
L 262.057952 199.800346 
L 266.22 199.800346 
L 266.049235 199.426833 
L 269.091986 199.426833 
L 268.920641 199.053321 
L 270.665252 199.053321 
L 270.493728 198.679808 
L 270.988095 198.679808 
L 270.81674 198.306295 
L 271.063204 198.306295 
L 270.892084 197.932782 
L 273.574129 197.932782 
L 273.402611 197.559269 
L 273.643826 197.559269 
L 273.472546 197.185756 
L 274.910717 197.185756 
L 274.739378 196.812243 
L 275.926225 196.812243 
L 275.754897 196.43873 
L 277.399061 196.43873 
L 277.227645 196.065217 
L 286.474526 196.065217 
L 286.301565 195.691704 
L 287.602377 195.691704 
L 287.429484 195.318191 
L 290.625728 195.318191 
L 290.452627 194.944678 
L 294.594988 194.944678 
L 294.421622 194.571165 
L 297.84 194.571165 
L 297.666536 194.197652 
L 300.607668 194.197652 
L 300.434211 193.824139 
L 309.041704 193.824139 
L 308.868036 193.450626 
L 315.030786 193.450626 
L 314.857309 193.077113 
L 317.403453 193.077113 
L 317.230266 192.7036 
L 320.37766 192.7036 
L 320.204819 192.330087 
L 321.019068 192.330087 
L 320.846507 191.956574 
L 321.170613 191.956574 
L 320.826249 191.209548 
L 321.149473 191.209548 
L 320.806105 190.462522 
L 321.449895 190.462522 
L 321.278601 190.089009 
L 322.8725 190.089009 
L 322.701527 189.715496 
L 327.505231 189.715496 
L 327.334827 189.341983 
L 331.064219 189.341983 
L 330.894396 188.96847 
L 331.916534 188.96847 
L 331.747047 188.594957 
L 332.61573 188.594957 
L 332.446565 188.221444 
L 333.451479 188.221444 
L 333.282654 187.847931 
L 338.581154 187.847931 
L 338.413261 187.474418 
L 339.765181 187.474418 
L 339.59771 187.100905 
L 340.133756 187.100905 
L 339.966582 186.727392 
L 344.799814 186.727392 
L 344.633684 186.353879 
L 346.405525 186.353879 
L 346.239939 185.980366 
L 352.328036 185.980366 
L 352.16395 185.606853 
L 352.282045 185.606853 
L 355.418373 185.606853 
L 355.255263 185.23334 
L 355.36955 185.23334 
L 355.71161 185.23334 
L 355.548805 184.859827 
L 355.662587 184.859827 
L 356.003141 184.859827 
L 355.84064 184.486314 
L 355.953922 184.486314 
L 357.6375 184.486314 
L 357.475648 184.112801 
L 357.586881 184.112801 
L 358.251606 184.112801 
L 358.090143 183.739288 
L 358.200515 183.739288 
L 360.812034 183.739288 
L 360.651496 183.365775 
L 360.758804 183.365775 
L 363.506897 183.365775 
L 363.34736 182.992262 
L 363.4515 182.992262 
L 366.119113 182.992262 
L 365.960591 182.618749 
L 366.061707 182.618749 
L 367.166721 182.618749 
L 367.00875 182.245236 
L 367.108582 182.245236 
L 370.6317 182.245236 
L 370.47508 181.871723 
L 370.571048 181.871723 
L 372.09277 181.871723 
L 371.936867 181.49821 
L 372.031154 181.49821 
L 373.526346 181.49821 
L 373.30882 180.751184 
L 377.910778 180.751184 
L 377.757622 180.377671 
L 377.845505 180.377671 
L 380.013942 180.377671 
L 379.70982 179.630645 
L 379.795493 179.630645 
L 384.216585 179.630645 
L 384.066553 179.257132 
L 384.147807 179.257132 
L 392.846051 179.257132 
L 392.7 178.883619 
L 392.772958 178.883619 
L 394.859836 178.883619 
L 394.714929 178.510106 
L 394.785942 178.510106 
L 394.998592 178.510106 
L 394.853951 178.136593 
L 394.924739 178.136593 
L 396.048671 178.136593 
L 395.90473 177.76308 
L 395.974471 177.76308 
L 397.21916 177.76308 
L 397.075982 177.389567 
L 397.144578 177.389567 
L 398.503759 177.389567 
L 398.361406 177.016054 
L 398.428767 177.016054 
L 404.319074 177.016054 
L 404.179873 176.642541 
L 404.242105 176.642541 
L 405.659016 176.642541 
L 405.520714 176.269028 
L 405.58173 176.269028 
L 406.731375 176.269028 
L 406.593836 175.895515 
L 406.653872 175.895515 
L 415.179553 175.895515 
L 414.967606 175.148489 
L 415.020727 175.148489 
L 418.939916 175.148489 
L 418.809909 174.774976 
L 418.910053 174.774976 
L 422.889073 174.774976 
L 422.761677 174.401463 
L 422.855788 174.401463 
L 426.109384 174.401463 
L 425.984211 174.02795 
L 426.073524 174.02795 
L 426.95968 174.02795 
L 426.835227 173.654437 
L 426.923208 173.654437 
L 427.404878 173.654437 
L 427.280883 173.280924 
L 427.368114 173.280924 
L 427.62907 173.280924 
L 427.505389 172.907411 
L 427.592186 172.907411 
L 429.218409 172.907411 
L 429.095938 172.533898 
L 429.180396 172.533898 
L 429.222581 172.533898 
L 429.100277 172.160385 
L 429.184615 172.160385 
L 429.436929 172.160385 
L 429.314933 171.786872 
L 429.39886 171.786872 
L 439.297367 171.786872 
L 439.182303 171.413359 
L 439.288403 171.413359 
L 439.5 171.413359 
L 439.385236 171.039846 
L 439.490809 171.039846 
L 441.391462 171.039846 
L 441.278212 170.666333 
L 441.380093 170.666333 
L 442.58804 170.666333 
L 442.475812 170.29282 
L 442.575345 170.29282 
L 444.528271 170.29282 
L 444.417619 169.919307 
L 444.513488 169.919307 
L 450.593883 169.919307 
L 450.487967 169.545794 
L 450.601442 169.545794 
L 450.629771 169.545794 
L 450.524025 169.172281 
L 450.637267 169.172281 
L 456.469662 169.172281 
L 456.36866 168.798768 
L 456.468959 168.798768 
L 456.544044 168.798768 
L 456.443236 168.425255 
L 456.543243 168.425255 
L 459.611843 168.425255 
L 459.51366 168.051742 
L 459.607143 168.051742 
L 462.588187 168.051742 
L 462.492597 167.678229 
L 462.60178 167.678229 
L 462.992614 167.678229 
L 462.89749 167.304716 
L 463.005531 167.304716 
L 464.469833 167.304716 
L 464.376075 166.931203 
L 464.480377 166.931203 
L 466.255745 166.931203 
L 466.163626 166.55769 
L 466.263527 166.55769 
L 468.949371 166.55769 
L 468.859689 166.184177 
L 468.971885 166.184177 
L 469.546703 166.184177 
L 469.457657 165.810664 
L 469.568077 165.810664 
L 472.268701 165.810664 
L 472.182156 165.437151 
L 472.285171 165.437151 
L 473.015621 165.437151 
L 472.929851 165.063638 
L 473.030784 165.063638 
L 473.248578 165.063638 
L 473.163127 164.690125 
L 473.263325 164.690125 
L 473.908362 164.690125 
L 473.823608 164.316612 
L 473.921981 164.316612 
L 474.003766 164.316612 
L 473.919209 163.943099 
L 474.017208 163.943099 
L 474.422866 163.943099 
L 474.335514 163.196073 
L 474.367771 163.196073 
L 474.383889 163.196073 
L 474.3 162.82256 
L 474.412737 162.82256 
L 475.443925 162.82256 
L 475.361088 162.449047 
L 475.470578 162.449047 
L 479.729225 162.449047 
L 479.650362 162.075534 
L 479.761511 162.075534 
L 480.746447 162.075534 
L 480.668618 161.702021 
L 480.776471 161.702021 
L 481.666882 161.702021 
L 481.666882 161.702021 
" style="fill:none;stroke:#1f77b4;stroke-linecap:square;stroke-width:2;"/>
   </g>
   <g id="line2d_46">
    <path clip-path="url(#pe7e2737d9e)" d="M 76.5 448.186487 
L 76.5 447.812974 
L 234.6 447.812974 
L 195.075 447.439461 
L 171.36 447.065948 
L 144.257143 446.318922 
L 195.075 446.318922 
L 171.36 445.571896 
L 162.736364 445.198383 
L 195.075 445.198383 
L 178.135714 444.451357 
L 165.43125 443.704331 
L 160.2 443.330818 
L 201.315789 443.330818 
L 189.428571 442.583792 
L 205.854545 442.583792 
L 200.230435 442.210279 
L 228.276 442.210279 
L 217.033333 441.463253 
L 240.051724 441.463253 
L 224.71875 440.342714 
L 216 439.595688 
L 279.771429 439.595688 
L 275.044186 439.222175 
L 293.028261 439.222175 
L 288.421277 438.848662 
L 304.164 438.848662 
L 299.7 438.475149 
L 304.528846 438.475149 
L 296.083333 437.728123 
L 300.714545 437.728123 
L 296.710714 437.35461 
L 309.630508 437.35461 
L 305.745 436.981097 
L 309.762295 436.981097 
L 306 436.607584 
L 309.885714 436.607584 
L 302.704615 435.860558 
L 329.893151 435.860558 
L 326.468919 435.487045 
L 340.667089 435.487045 
L 337.365 435.113532 
L 340 435.113532 
L 336.786585 434.740019 
L 344.34 434.740019 
L 341.225581 434.366506 
L 359.061702 434.366506 
L 356.087368 433.992993 
L 358.115625 433.992993 
L 346.851 432.498941 
L 358.395283 432.498941 
L 355.760748 432.125428 
L 375.428571 432.125428 
L 372.9375 431.751915 
L 385.346512 431.751915 
L 382.970769 431.378402 
L 396.06383 431.378402 
L 393.81338 431.004889 
L 406.046104 431.004889 
L 401.821154 430.257863 
L 405.545625 430.257863 
L 403.501863 429.88435 
L 415.285714 429.88435 
L 413.360795 429.510837 
L 414.137288 429.510837 
L 412.240449 429.137324 
L 418.909091 429.137324 
L 417.087766 428.763811 
L 417.795238 428.763811 
L 415.998947 428.390298 
L 422.739 428.390298 
L 421.016418 428.016785 
L 427.167299 428.016785 
L 425.513208 427.643272 
L 438.254237 427.643272 
L 436.727848 427.269759 
L 446.417375 427.269759 
L 443.582759 426.522733 
L 443.991985 426.522733 
L 448.669708 426.522733 
L 447.316364 426.14922 
L 447.691304 426.14922 
L 448.8 426.14922 
L 447.470357 425.775707 
L 447.838078 425.775707 
L 451.716781 425.775707 
L 450.436177 425.402194 
L 450.777551 425.402194 
L 454.067763 425.402194 
L 452.829836 425.028681 
L 453.15 425.028681 
L 456.834906 425.028681 
L 455.642633 424.655168 
L 455.94 424.655168 
L 463.068208 424.655168 
L 461.954179 424.281655 
L 462.209483 424.281655 
L 466.566393 424.281655 
L 465.503542 423.908142 
L 465.735326 423.908142 
L 469.911628 423.908142 
L 468.101538 423.161116 
L 471.164444 423.161116 
L 470.192365 422.787603 
L 470.390418 422.787603 
L 476.757692 422.787603 
L 475.854176 422.41409 
L 476.022973 422.41409 
L 478.150109 422.41409 
L 477.273144 422.040577 
L 477.433333 422.040577 
L 477.751627 422.040577 
L 476.883117 421.667064 
L 477.042765 421.667064 
L 477.517597 421.667064 
L 476.658887 421.293551 
L 476.817308 421.293551 
L 477.132128 421.293551 
L 476.281529 420.920038 
L 476.439407 420.920038 
L 478.283058 420.920038 
L 477.454639 420.546526 
L 477.605556 420.546526 
L 480.219643 420.546526 
L 479.420198 420.173013 
L 479.561265 420.173013 
L 483.92282 420.173013 
L 483.168333 419.7995 
L 483.417897 419.7995 
L 485.815836 419.7995 
L 484.481947 419.052474 
L 484.599117 419.052474 
L 489.070675 419.052474 
L 488.392105 418.678961 
L 488.596721 418.678961 
L 492.153941 418.678961 
L 491.5125 418.305448 
L 491.694923 418.305448 
L 492.502124 418.305448 
L 491.871818 417.931935 
L 492.049849 417.931935 
L 494.270058 417.931935 
L 493.226012 417.184909 
L 493.639024 417.184909 
L 493.041404 416.811396 
L 493.206429 416.811396 
L 494.177107 416.811396 
L 493.591304 416.437883 
L 493.751329 416.437883 
L 494.382573 416.437883 
L 493.229793 415.690857 
L 493.388171 415.690857 
L 493.702326 415.690857 
L 493.132377 415.317344 
L 493.28951 415.317344 
L 496.191074 415.317344 
L 495.648837 414.943831 
L 495.790979 414.943831 
L 498.423313 414.943831 
L 497.90625 414.570318 
L 498.035575 414.570318 
L 500.670732 414.570318 
L 500.178654 414.196805 
L 500.35422 414.196805 
L 501.716085 414.196805 
L 501.238315 413.823292 
L 501.404815 413.823292 
L 503.522508 413.823292 
L 503.06531 413.449779 
L 503.218143 413.449779 
L 503.26887 413.449779 
L 502.814377 413.076266 
L 502.967197 413.076266 
L 503.961642 413.076266 
L 503.517757 412.702753 
L 503.664596 412.702753 
L 503.71334 412.702753 
L 503.272004 412.32924 
L 503.418847 412.32924 
L 503.806027 412.32924 
L 502.934862 411.582214 
L 503.080793 411.582214 
L 503.273988 411.582214 
L 502.842467 411.208701 
L 502.9875 411.208701 
L 504.070936 411.208701 
L 503.650098 410.835188 
L 503.788911 410.835188 
L 505.133365 410.835188 
L 504.725143 410.461675 
L 504.85641 410.461675 
L 505.880223 410.461675 
L 505.481911 410.088162 
L 505.607678 410.088162 
L 507.259091 410.088162 
L 506.875512 409.714649 
L 507.031411 409.714649 
L 508.129412 409.714649 
L 507.756353 409.341136 
L 507.904651 409.341136 
L 509.194737 409.341136 
L 508.833556 408.967623 
L 508.973211 408.967623 
L 509.925366 408.967623 
L 509.573274 408.59411 
L 509.706802 408.59411 
L 509.938406 408.59411 
L 509.589702 408.220597 
L 509.721893 408.220597 
L 510.016242 408.220597 
L 509.67136 407.847084 
L 509.801824 407.847084 
L 510.816473 407.847084 
L 510.480835 407.473571 
L 510.605085 407.473571 
L 510.881867 407.473571 
L 510.549771 407.100058 
L 510.672485 407.100058 
L 511.422812 407.100058 
L 511.097758 406.726545 
L 511.216095 406.726545 
L 511.74 406.726545 
L 511.420206 406.353032 
L 511.564348 406.353032 
L 512.186239 406.353032 
L 511.87257 405.979519 
L 512.012195 405.979519 
L 512.04 405.979519 
L 511.728009 405.606006 
L 511.867452 405.606006 
L 512.198089 405.606006 
L 511.665233 404.85898 
L 511.720352 404.85898 
L 512.343243 404.85898 
L 512.041413 404.485467 
L 512.175155 404.485467 
L 512.387234 404.485467 
L 512.088272 404.111954 
L 512.220574 404.111954 
L 512.817699 404.111954 
L 512.524277 403.738441 
L 512.652547 403.738441 
L 512.956915 403.738441 
L 512.66691 403.364928 
L 512.793179 403.364928 
L 513.363405 403.364928 
L 513.078618 402.991415 
L 513.20117 402.991415 
L 513.468 402.991415 
L 513.186267 402.617902 
L 513.307134 402.617902 
L 513.379282 402.617902 
L 513.099231 402.244389 
L 513.219681 402.244389 
L 513.387023 402.244389 
L 512.880076 401.497363 
L 512.952122 401.497363 
L 513.284746 401.497363 
L 512.760902 400.750337 
L 512.856 400.750337 
L 513.16181 400.750337 
L 512.891264 400.376824 
L 513.008338 400.376824 
L 513.124692 400.376824 
L 512.856 400.003311 
L 512.972393 400.003311 
L 514.098214 400.003311 
L 513.666192 399.256285 
L 513.71019 399.256285 
L 513.928622 399.256285 
L 513.67116 398.882772 
L 513.801818 398.882772 
L 514.48342 398.882772 
L 514.231415 398.509259 
L 514.357225 398.509259 
L 515.074199 398.509259 
L 514.827809 398.135746 
L 514.948656 398.135746 
L 515.925 398.135746 
L 515.685792 397.762233 
L 515.800109 397.762233 
L 515.970194 397.762233 
L 515.733028 397.38872 
L 515.846208 397.38872 
L 516.19984 397.38872 
L 515.965833 397.015207 
L 516.095122 397.015207 
L 516.150238 397.015207 
L 515.722345 396.268181 
L 515.814752 396.268181 
L 515.851579 396.268181 
L 515.620463 395.894668 
L 515.749528 395.894668 
L 516.309902 395.894668 
L 516.083196 395.521155 
L 516.208012 395.521155 
L 517.258865 395.521155 
L 516.938225 394.774129 
L 517.005245 394.774129 
L 516.787389 394.400616 
L 516.904731 394.400616 
L 517.878267 394.400616 
L 517.667081 394.027103 
L 517.793422 394.027103 
L 518.844393 394.027103 
L 518.64036 393.65359 
L 518.758594 393.65359 
L 519.064861 393.65359 
L 518.863512 393.280077 
L 518.979329 393.280077 
L 519.208461 393.280077 
L 519.009312 392.906564 
L 519.123308 392.906564 
L 519.912456 392.906564 
L 519.718742 392.533051 
L 519.84047 392.533051 
L 519.894266 392.533051 
L 519.701737 392.159538 
L 519.822794 392.159538 
L 520.009243 392.159538 
L 519.818651 391.786025 
L 519.938014 391.786025 
L 520.187006 391.786025 
L 519.998684 391.412512 
L 520.115899 391.412512 
L 520.663829 391.412512 
L 520.295228 390.665486 
L 520.408723 390.665486 
L 520.805508 390.665486 
L 520.443253 389.91846 
L 520.566504 389.91846 
L 520.615525 389.91846 
L 520.342124 389.171434 
L 520.366707 389.171434 
L 520.39125 389.171434 
L 520.212334 388.797921 
L 520.335126 388.797921 
L 520.359567 388.797921 
L 520.181596 388.424408 
L 520.303874 388.424408 
L 520.58144 388.424408 
L 520.35065 387.677382 
L 521.381849 387.677382 
L 521.212628 387.303869 
L 521.324744 387.303869 
L 521.590387 387.303869 
L 521.134045 386.18333 
L 521.200561 386.18333 
L 521.647221 386.18333 
L 521.483444 385.809817 
L 521.601612 385.809817 
L 521.84564 385.809817 
L 521.683872 385.436304 
L 521.799747 385.436304 
L 522.753569 385.436304 
L 522.597482 385.062791 
L 522.715361 385.062791 
L 523.034504 385.062791 
L 522.880792 384.689278 
L 522.995646 384.689278 
L 523.005175 384.689278 
L 522.766553 383.942252 
L 522.814359 383.942252 
L 522.842964 383.942252 
L 522.69094 383.568739 
L 522.80536 383.568739 
L 523.526966 383.568739 
L 523.379286 383.195226 
L 523.496546 383.195226 
L 523.692717 383.195226 
L 523.516575 382.4482 
L 523.631359 382.4482 
L 523.486703 382.074687 
L 523.601095 382.074687 
L 523.618609 382.074687 
L 523.474702 381.701174 
L 523.588558 381.701174 
L 524.076771 381.701174 
L 523.935935 381.327661 
L 524.053759 381.327661 
L 524.078873 381.327661 
L 523.93883 380.954148 
L 524.055981 380.954148 
L 524.328122 380.954148 
L 524.190074 380.580635 
L 524.30442 380.580635 
L 524.55415 380.580635 
L 524.417964 380.207122 
L 524.529752 380.207122 
L 524.553583 380.207122 
L 524.418138 379.833609 
L 524.52932 379.833609 
L 524.934203 379.833609 
L 524.684014 379.086583 
L 524.784134 379.086583 
L 525.243859 379.086583 
L 524.891705 377.966044 
L 524.966369 377.966044 
L 525.591142 377.966044 
L 525.452686 377.219018 
L 525.726294 377.219018 
L 525.458717 376.098479 
L 525.465694 376.098479 
L 525.604436 376.098479 
L 525.481495 375.724966 
L 525.591905 375.724966 
L 525.687727 375.724966 
L 525.565798 375.351453 
L 525.681708 375.351453 
L 525.789831 375.351453 
L 525.668989 374.97794 
L 525.783373 374.97794 
L 525.870144 374.97794 
L 525.75028 374.604427 
L 525.863356 374.604427 
L 525.916216 374.604427 
L 525.790772 373.857401 
L 526.077561 373.857401 
L 525.960422 373.483888 
L 526.076374 373.483888 
L 526.254609 373.483888 
L 525.881625 371.989836 
L 525.907143 371.989836 
L 526.178197 371.989836 
L 526.044554 371.24281 
L 526.063265 371.24281 
L 526.516028 371.24281 
L 526.404748 370.869297 
L 526.518828 370.869297 
L 526.608141 370.869297 
L 526.497794 370.495784 
L 526.610469 370.495784 
L 526.907809 370.495784 
L 526.783369 369.748758 
L 526.806401 369.748758 
L 526.835129 369.748758 
L 526.491418 368.254706 
L 526.514575 368.254706 
L 526.578029 368.254706 
L 526.471147 367.881193 
L 526.58615 367.881193 
L 526.728383 367.881193 
L 526.630435 367.134167 
L 526.942732 367.134167 
L 526.714453 366.013628 
L 526.742093 366.013628 
L 526.791686 366.013628 
L 526.651849 365.266603 
L 526.695875 365.266603 
L 526.837857 365.266603 
L 526.735855 364.89309 
L 526.849775 364.89309 
L 526.876739 364.89309 
L 526.775349 364.519577 
L 526.888393 364.519577 
L 526.909805 364.519577 
L 526.639946 363.399038 
L 526.720641 363.399038 
L 526.74742 363.399038 
L 526.647298 363.025525 
L 526.759562 363.025525 
L 526.960075 363.025525 
L 526.654949 361.531473 
L 526.676031 361.531473 
L 526.796546 361.531473 
L 526.698762 361.15796 
L 526.813356 361.15796 
L 526.839249 361.15796 
L 526.657152 360.037421 
L 526.662336 360.037421 
L 526.714056 360.037421 
L 526.513249 358.916882 
L 526.53913 358.916882 
L 526.835368 358.916882 
L 526.647674 357.796343 
L 526.662848 357.796343 
L 526.808555 357.796343 
L 526.701389 357.049317 
L 526.731338 357.049317 
L 526.835574 357.049317 
L 526.689669 356.302291 
L 526.76387 356.302291 
L 526.832713 356.302291 
L 526.740601 355.928778 
L 526.853257 355.928778 
L 527.056278 355.928778 
L 526.927441 355.181752 
L 526.984977 355.181752 
L 527.004094 355.181752 
L 526.913704 354.808239 
L 527.023427 354.808239 
L 527.598032 354.808239 
L 527.510133 354.434726 
L 527.623037 354.434726 
L 527.774841 354.434726 
L 527.687924 354.061213 
L 527.798677 354.061213 
L 528.025678 354.061213 
L 528.025678 354.061213 
" style="fill:none;stroke:#ff7f0e;stroke-linecap:square;stroke-width:2;"/>
   </g>
   <g id="line2d_47">
    <path clip-path="url(#pe7e2737d9e)" d="M 76.5 448.186487 
L 76.5 417.931935 
L 82.214458 417.931935 
L 81.6 414.196805 
L 86.591489 414.196805 
L 86.179592 412.702753 
L 90.872727 412.702753 
L 89.923585 410.088162 
L 94.230841 410.088162 
L 92.855172 406.726545 
L 92.577966 405.979519 
L 96.428571 405.979519 
L 95.625 404.111954 
L 99.2664 404.111954 
L 98.732812 402.991415 
L 109.085496 402.991415 
L 108.838636 402.617902 
L 112.161654 402.617902 
L 111.633333 401.870876 
L 114.8625 401.870876 
L 114.582482 401.497363 
L 117.743478 401.497363 
L 116.025 399.256285 
L 121.980822 399.256285 
L 121.065101 398.135746 
L 126.756954 398.135746 
L 125.777922 397.015207 
L 133.899363 397.015207 
L 133.536076 396.641694 
L 136.160377 396.641694 
L 135.055556 395.521155 
L 140.12561 395.521155 
L 138.610714 394.027103 
L 141.049704 394.027103 
L 139.923837 392.906564 
L 146.967429 392.906564 
L 146.567045 392.533051 
L 148.850847 392.533051 
L 147.251934 391.038999 
L 149.469231 391.038999 
L 147.518182 389.171434 
L 149.663298 389.171434 
L 148.514136 388.050895 
L 152.682902 388.050895 
L 151.901538 387.303869 
L 153.936735 387.303869 
L 153.543655 386.930356 
L 157.536181 386.930356 
L 155.939409 385.436304 
L 157.875 385.436304 
L 157.478049 385.062791 
L 159.387379 385.062791 
L 158.986957 384.689278 
L 160.870673 384.689278 
L 160.067143 383.942252 
L 161.918957 383.942252 
L 160.721495 382.821713 
L 162.535814 382.821713 
L 161.742857 382.074687 
L 165.29589 382.074687 
L 163.313839 380.207122 
L 175.055844 380.207122 
L 174.631034 379.833609 
L 179.433191 379.833609 
L 178.997034 379.460096 
L 180.565823 379.460096 
L 180.128571 379.086583 
L 181.679498 379.086583 
L 181.24125 378.71307 
L 184.295455 378.71307 
L 183.851852 378.339557 
L 186.847347 378.339557 
L 185.953846 377.592531 
L 206.841985 377.592531 
L 206.346388 377.219018 
L 221.377091 377.219018 
L 220.331047 376.471992 
L 231.845645 376.471992 
L 231.30625 376.098479 
L 233.509655 376.098479 
L 232.970103 375.724966 
L 236.213265 375.724966 
L 235.671864 375.351453 
L 236.736486 375.351453 
L 235.661074 374.604427 
L 236.71505 374.604427 
L 236.181 374.230914 
L 244.352922 374.230914 
L 243.27 373.483888 
L 245.241346 373.483888 
L 244.702236 373.110375 
L 259.58845 373.110375 
L 259.033636 372.736862 
L 263.388358 372.736862 
L 262.832143 372.363349 
L 273.558739 372.363349 
L 272.435897 371.616323 
L 274.794915 371.616323 
L 274.236338 371.24281 
L 277.317827 371.24281 
L 276.76 370.869297 
L 277.519114 370.869297 
L 276.41157 370.122271 
L 279.40218 370.122271 
L 278.302439 369.375245 
L 279.038919 369.375245 
L 278.492992 369.001732 
L 282.82679 369.001732 
L 282.280952 368.628219 
L 287.163117 368.628219 
L 286.617358 368.254706 
L 287.3 368.254706 
L 286.756701 367.881193 
L 295.952239 367.881193 
L 294.865842 367.134167 
L 296.752334 367.134167 
L 296.2125 366.760654 
L 299.902174 366.760654 
L 299.363855 366.387141 
L 305.28 366.387141 
L 304.742958 366.013628 
L 305.319204 366.013628 
L 304.784579 365.640115 
L 305.928837 365.640115 
L 305.39652 365.266603 
L 307.092857 365.266603 
L 306.562759 364.89309 
L 309.885714 364.89309 
L 309.357692 364.519577 
L 310.985393 364.519577 
L 310.459641 364.146064 
L 319.284233 364.146064 
L 318.760991 363.772551 
L 324.134526 363.772551 
L 323.614286 363.399038 
L 324.564854 363.399038 
L 324.046973 363.025525 
L 329.588798 363.025525 
L 329.07439 362.652012 
L 330.8625 362.652012 
L 330.350704 362.278499 
L 332.110778 362.278499 
L 331.601594 361.904986 
L 335.04 361.904986 
L 334.534051 361.531473 
L 346.903506 361.531473 
L 346.405525 361.15796 
L 348.639344 361.15796 
L 348.144545 360.784447 
L 349.607762 360.784447 
L 349.115676 360.410934 
L 350.2 360.410934 
L 349.710376 360.037421 
L 353.936427 360.037421 
L 352.968063 359.290395 
L 353.656174 359.290395 
L 353.175 358.916882 
L 358.516216 358.916882 
L 358.040641 358.543369 
L 361.551159 358.543369 
L 361.08 358.169856 
L 366.856731 358.169856 
L 366.39216 357.796343 
L 369.581604 357.796343 
L 369.121507 357.42283 
L 371.374884 357.42283 
L 370.918421 357.049317 
L 372.025385 357.049317 
L 371.118865 356.302291 
L 377.241333 356.302291 
L 376.79645 355.928778 
L 380.079536 355.928778 
L 379.639565 355.555265 
L 381.601289 355.555265 
L 381.164807 355.181752 
L 383.321186 355.181752 
L 382.888434 354.808239 
L 384.530028 354.808239 
L 384.100418 354.434726 
L 385.254848 354.434726 
L 384.401934 353.6877 
L 385.088583 353.6877 
L 384.664698 353.314187 
L 388.2375 353.314187 
L 387.81906 352.940674 
L 389.33617 352.940674 
L 388.920717 352.567161 
L 389.135411 352.567161 
L 388.721325 352.193648 
L 389.362797 352.193648 
L 388.950593 351.820135 
L 390.638722 351.820135 
L 390.229688 351.446622 
L 392.497047 351.446622 
L 392.091923 351.073109 
L 394.496591 351.073109 
L 394.095586 350.699596 
L 395.46675 350.699596 
L 394.671322 349.95257 
L 405.370035 349.95257 
L 404.988515 349.579057 
L 405.157474 349.579057 
L 404.777083 349.205544 
L 407.919139 349.205544 
L 407.544231 348.832031 
L 409.777617 348.832031 
L 409.406897 348.458518 
L 409.720755 348.458518 
L 409.35133 348.085005 
L 410.594835 348.085005 
L 410.228101 347.711492 
L 410.382237 347.711492 
L 410.536035 347.711492 
L 409.959825 346.964466 
L 411.179221 346.964466 
L 410.817405 346.590953 
L 410.968575 346.590953 
L 415.214764 346.590953 
L 414.86046 346.21744 
L 415.002508 346.21744 
L 416.960453 346.21744 
L 416.260637 345.470414 
L 416.398768 345.470414 
L 416.811464 345.470414 
L 416.463497 345.096901 
L 416.600715 345.096901 
L 419.811864 345.096901 
L 419.46992 344.723388 
L 419.600597 344.723388 
L 424.015962 344.723388 
L 423.138793 343.602849 
L 425.53844 343.602849 
L 424.883583 342.855823 
L 425.001593 342.855823 
L 425.937767 342.855823 
L 425.613011 342.48231 
L 425.729248 342.48231 
L 426.879853 342.48231 
L 426.557813 342.108797 
L 426.671901 342.108797 
L 427.577119 342.108797 
L 427.050818 341.361771 
L 431.077836 341.361771 
L 430.766257 340.988258 
L 430.871642 340.988258 
L 432.839378 340.988258 
L 432.531924 340.614745 
L 432.633879 340.614745 
L 435.418939 340.614745 
L 435.117073 340.241232 
L 435.214286 340.241232 
L 436.653112 340.241232 
L 436.354478 339.867719 
L 436.449296 339.867719 
L 436.827002 339.867719 
L 436.529703 339.494206 
L 436.623908 339.494206 
L 439.11 339.494206 
L 438.817808 339.120693 
L 438.907971 339.120693 
L 440.418824 339.120693 
L 440.13 338.74718 
L 440.217764 338.74718 
L 441.001417 338.74718 
L 440.714634 338.373667 
L 440.801179 338.373667 
L 445.518962 338.373667 
L 445.241504 338.000154 
L 445.320811 338.000154 
L 448.173684 338.000154 
L 447.902191 337.626641 
L 447.977299 337.626641 
L 448.201966 337.626641 
L 447.736265 336.879615 
L 448.627305 336.879615 
L 448.359395 336.506102 
L 448.433094 336.506102 
L 448.8 336.506102 
L 448.533309 336.132589 
L 448.606514 336.132589 
L 450.332512 336.132589 
L 450.06962 335.759076 
L 450.140408 335.759076 
L 450.773045 335.759076 
L 450.321115 335.01205 
L 451.634113 335.01205 
L 451.376289 334.638537 
L 451.444574 334.638537 
L 452.524524 334.638537 
L 452.269246 334.265024 
L 452.402847 334.265024 
L 453.131225 334.265024 
L 452.877942 333.891511 
L 453.009469 333.891511 
L 453.40194 333.891511 
L 453.15 333.517998 
L 453.280374 333.517998 
L 454.119391 333.517998 
L 453.684412 332.770972 
L 453.748515 332.770972 
L 453.940316 332.770972 
L 453.691837 332.397459 
L 453.819527 332.397459 
L 454.263809 332.397459 
L 453.77 331.650433 
L 453.896671 331.650433 
L 455.452601 331.650433 
L 455.209371 331.27692 
L 455.331923 331.27692 
L 456.6 331.27692 
L 456.359735 330.903407 
L 456.478977 330.903407 
L 457.65505 330.903407 
L 457.41757 330.529894 
L 457.53379 330.529894 
L 458.167862 330.529894 
L 457.754102 329.782868 
L 457.811467 329.782868 
L 458.607213 329.782868 
L 458.373794 329.409355 
L 458.486577 329.409355 
L 458.711321 329.409355 
L 458.478832 329.035842 
L 458.591009 329.035842 
L 459.147826 329.035842 
L 458.916898 328.662329 
L 459.027667 328.662329 
L 459.632156 328.662329 
L 459.402873 328.288816 
L 459.512134 328.288816 
L 464.270482 328.288816 
L 464.050906 327.915303 
L 464.149038 327.915303 
L 465.02234 327.915303 
L 464.587752 327.168277 
L 464.684078 327.168277 
L 464.828165 327.168277 
L 464.611706 326.794764 
L 464.707684 326.794764 
L 465.136953 326.794764 
L 464.921761 326.421251 
L 465.016759 326.421251 
L 465.815836 326.421251 
L 465.602629 326.047738 
L 465.695842 326.047738 
L 467.069968 326.047738 
L 466.859871 325.674225 
L 466.950081 325.674225 
L 467.885707 325.674225 
L 467.677854 325.300712 
L 467.766048 325.300712 
L 469.617946 325.300712 
L 469.252822 324.553686 
L 469.295031 324.553686 
L 469.839794 324.553686 
L 469.637667 324.180173 
L 469.762596 324.180173 
L 469.804154 324.180173 
L 469.602563 323.80666 
L 469.727226 323.80666 
L 469.851507 323.80666 
L 469.650613 323.433147 
L 469.774758 323.433147 
L 469.898523 323.433147 
L 469.698321 323.059634 
L 469.821951 323.059634 
L 470.027167 323.059634 
L 469.827812 322.686121 
L 469.950683 322.686121 
L 470.276524 322.686121 
L 470.078248 322.312608 
L 470.2 322.312608 
L 472.483732 322.312608 
L 472.290381 321.939095 
L 472.405217 321.939095 
L 472.595866 321.939095 
L 472.403306 321.565582 
L 472.517476 321.565582 
L 472.744821 321.565582 
L 472.55312 321.192069 
L 472.666522 321.192069 
L 474.652966 321.192069 
L 474.4656 320.818556 
L 474.573214 320.818556 
L 475.142071 320.818556 
L 474.956224 320.445043 
L 475.062151 320.445043 
L 476.036719 320.445043 
L 475.853192 320.07153 
L 475.95633 320.07153 
L 476.195885 320.07153 
L 475.933303 319.324504 
L 477.307927 319.324504 
L 477.128514 318.950991 
L 477.227313 318.950991 
L 477.846941 318.950991 
L 477.491453 318.203965 
L 477.588722 318.203965 
L 477.975231 318.203965 
L 477.798681 317.830452 
L 477.894862 317.830452 
L 478.466667 317.830452 
L 478.291594 317.456939 
L 478.386211 317.456939 
L 478.824514 317.456939 
L 478.650648 317.083426 
L 478.744066 317.083426 
L 479.330137 317.083426 
L 479.157766 316.709913 
L 479.249615 316.709913 
L 480.392977 316.709913 
L 480.223203 316.3364 
L 480.34167 316.3364 
L 481.561979 316.3364 
L 481.395012 315.962887 
L 481.509259 315.962887 
L 482.01875 315.962887 
L 481.853165 315.589374 
L 481.965593 315.589374 
L 482.13355 315.589374 
L 481.968659 315.215861 
L 482.080398 315.215861 
L 482.879783 315.215861 
L 482.71684 314.842348 
L 482.825861 314.842348 
L 483.015808 314.842348 
L 482.853591 314.468835 
L 482.961873 314.468835 
L 483.042857 314.468835 
L 482.881146 314.095322 
L 482.989039 314.095322 
L 484.644246 314.095322 
L 484.486174 313.721809 
L 484.588747 313.721809 
L 484.945269 313.721809 
L 484.682143 312.974783 
L 484.732886 312.974783 
L 487.150869 312.974783 
L 486.999113 312.60127 
L 487.116783 312.60127 
L 488.831156 312.60127 
L 488.683208 312.227757 
L 488.794448 312.227757 
L 488.949518 312.227757 
L 488.802214 311.854244 
L 488.912727 311.854244 
L 489.022847 311.854244 
L 488.876094 311.480731 
L 488.986044 311.480731 
L 489.637632 311.480731 
L 489.455205 310.733705 
L 489.690817 310.733705 
L 489.546597 310.360192 
L 489.65331 310.360192 
L 490.223196 310.360192 
L 490.080435 309.986679 
L 490.185016 309.986679 
L 490.496607 309.986679 
L 490.354779 309.613167 
L 490.45814 309.613167 
L 491.050728 309.613167 
L 490.910393 309.239654 
L 491.011592 309.239654 
L 492.063645 309.239654 
L 491.925722 308.866141 
L 492.042729 308.866141 
L 492.544433 308.866141 
L 492.407846 308.492628 
L 492.522641 308.492628 
L 493.480471 308.492628 
L 493.346134 308.119115 
L 493.456977 308.119115 
L 493.950526 308.119115 
L 493.793514 307.372089 
L 493.829743 307.372089 
L 493.697173 306.998576 
L 493.805802 306.998576 
L 494.554787 306.998576 
L 494.424023 306.625063 
L 494.529628 306.625063 
L 494.617332 306.625063 
L 494.487036 306.25155 
L 494.592131 306.25155 
L 494.801147 306.25155 
L 494.482375 305.131011 
L 494.517182 305.131011 
L 494.65598 305.131011 
L 494.527119 304.757498 
L 494.630975 304.757498 
L 495.515259 304.757498 
L 495.388438 304.383985 
L 495.505587 304.383985 
L 496.425245 304.383985 
L 496.256906 303.636959 
L 496.289218 303.636959 
L 496.369831 303.636959 
L 496.245683 303.263446 
L 496.358365 303.263446 
L 496.788671 303.263446 
L 496.665672 302.889933 
L 496.776343 302.889933 
L 496.902273 302.889933 
L 496.779814 302.51642 
L 496.889738 302.51642 
L 497.030415 302.51642 
L 496.908522 302.142907 
L 497.017645 302.142907 
L 497.234572 302.142907 
L 497.113393 301.769394 
L 497.221414 301.769394 
L 497.313659 301.769394 
L 497.192943 301.395881 
L 497.300372 301.395881 
L 497.770999 301.395881 
L 497.651489 301.022368 
L 497.756823 301.022368 
L 498.40948 301.022368 
L 498.188349 300.275342 
L 498.276402 300.275342 
L 498.451626 300.275342 
L 498.260938 299.528316 
L 498.319218 299.528316 
L 498.723583 299.528316 
L 498.607428 299.154803 
L 498.722042 299.154803 
L 498.807673 299.154803 
L 498.691973 298.78129 
L 498.805932 298.78129 
L 499.617465 298.78129 
L 499.345328 297.660751 
L 499.386745 297.660751 
L 499.551752 297.660751 
L 499.438636 297.287238 
L 499.548266 297.287238 
L 499.738995 297.287238 
L 499.626521 296.913725 
L 499.735084 296.913725 
L 500.01788 296.913725 
L 499.906222 296.540212 
L 500.013339 296.540212 
L 500.776652 296.540212 
L 500.666736 296.166699 
L 500.770424 296.166699 
L 500.976519 296.166699 
L 500.867259 295.793186 
L 500.982666 295.793186 
L 501.199207 295.793186 
L 501.090644 295.419673 
L 501.204744 295.419673 
L 502.232817 295.419673 
L 502.09322 294.672647 
L 502.129614 294.672647 
L 502.165953 294.672647 
L 502.06004 294.299134 
L 502.168942 294.299134 
L 502.49275 294.299134 
L 502.387722 293.925621 
L 502.494908 293.925621 
L 502.506788 293.925621 
L 502.252356 292.805082 
L 502.299975 292.805082 
L 502.454094 292.805082 
L 502.35 292.431569 
L 502.456328 292.431569 
L 502.503435 292.431569 
L 502.399683 292.058056 
L 502.505541 292.058056 
L 503.01647 292.058056 
L 502.915036 291.31103 
L 502.926516 291.31103 
L 503.527202 291.31103 
L 503.42613 290.937517 
L 503.537993 290.937517 
L 504.317278 290.937517 
L 504.217948 290.564004 
L 504.325851 290.564004 
L 504.336614 290.564004 
L 504.237555 290.190491 
L 504.345114 290.190491 
L 504.537474 290.190491 
L 504.439029 289.816978 
L 504.545411 289.816978 
L 504.872112 289.816978 
L 504.774533 289.443465 
L 504.879136 289.443465 
L 505.055875 289.443465 
L 504.958873 289.069952 
L 505.072725 289.069952 
L 505.421084 289.069952 
L 505.325 288.696439 
L 505.436782 288.696439 
L 505.558101 288.696439 
L 505.362503 287.5759 
L 505.382693 287.5759 
L 506.960562 287.5759 
L 506.868268 287.202387 
L 506.981009 287.202387 
L 507.536149 287.202387 
L 507.445155 286.828874 
L 507.554706 286.828874 
L 507.754119 286.828874 
L 507.663747 286.455361 
L 507.771948 286.455361 
L 507.798914 286.455361 
L 507.708835 286.081848 
L 507.816563 286.081848 
L 507.968258 286.081848 
L 507.878705 285.708335 
L 507.985342 285.708335 
L 508.275879 285.708335 
L 508.187109 285.334822 
L 508.300697 285.334822 
L 509.63434 285.334822 
L 509.548332 284.961309 
L 509.654545 284.961309 
L 510.872381 284.961309 
L 510.788912 284.587796 
L 510.896263 284.587796 
L 511.282501 284.587796 
L 511.282501 284.587796 
" style="fill:none;stroke:#2ca02c;stroke-linecap:square;stroke-width:2;"/>
   </g>
   <g id="patch_3">
    <path d="M 76.5 448.56 
L 76.5 60.48 
" style="fill:none;stroke:#000000;stroke-linecap:square;stroke-linejoin:miter;stroke-width:0.8;"/>
   </g>
   <g id="patch_4">
    <path d="M 550.8 448.56 
L 550.8 60.48 
" style="fill:none;stroke:#000000;stroke-linecap:square;stroke-linejoin:miter;stroke-width:0.8;"/>
   </g>
   <g id="patch_5">
    <path d="M 76.5 448.56 
L 550.8 448.56 
" style="fill:none;stroke:#000000;stroke-linecap:square;stroke-linejoin:miter;stroke-width:0.8;"/>
   </g>
   <g id="patch_6">
    <path d="M 76.5 60.48 
L 550.8 60.48 
" style="fill:none;stroke:#000000;stroke-linecap:square;stroke-linejoin:miter;stroke-width:0.8;"/>
   </g>
   <g id="text_25">
    <!-- boat: img1-img4 -->
    <defs>
     <path d="M 48.6875 27.296875 
Q 48.6875 37.203125 44.609375 42.84375 
Q 40.53125 48.484375 33.40625 48.484375 
Q 26.265625 48.484375 22.1875 42.84375 
Q 18.109375 37.203125 18.109375 27.296875 
Q 18.109375 17.390625 22.1875 11.75 
Q 26.265625 6.109375 33.40625 6.109375 
Q 40.53125 6.109375 44.609375 11.75 
Q 48.6875 17.390625 48.6875 27.296875 
z
M 18.109375 46.390625 
Q 20.953125 51.265625 25.265625 53.625 
Q 29.59375 56 35.59375 56 
Q 45.5625 56 51.78125 48.09375 
Q 58.015625 40.1875 58.015625 27.296875 
Q 58.015625 14.40625 51.78125 6.484375 
Q 45.5625 -1.421875 35.59375 -1.421875 
Q 29.59375 -1.421875 25.265625 0.953125 
Q 20.953125 3.328125 18.109375 8.203125 
L 18.109375 0 
L 9.078125 0 
L 9.078125 75.984375 
L 18.109375 75.984375 
z
" id="DejaVuSans-98"/>
     <path d="M 34.28125 27.484375 
Q 23.390625 27.484375 19.1875 25 
Q 14.984375 22.515625 14.984375 16.5 
Q 14.984375 11.71875 18.140625 8.90625 
Q 21.296875 6.109375 26.703125 6.109375 
Q 34.1875 6.109375 38.703125 11.40625 
Q 43.21875 16.703125 43.21875 25.484375 
L 43.21875 27.484375 
z
M 52.203125 31.203125 
L 52.203125 0 
L 43.21875 0 
L 43.21875 8.296875 
Q 40.140625 3.328125 35.546875 0.953125 
Q 30.953125 -1.421875 24.3125 -1.421875 
Q 15.921875 -1.421875 10.953125 3.296875 
Q 6 8.015625 6 15.921875 
Q 6 25.140625 12.171875 29.828125 
Q 18.359375 34.515625 30.609375 34.515625 
L 43.21875 34.515625 
L 43.21875 35.40625 
Q 43.21875 41.609375 39.140625 45 
Q 35.0625 48.390625 27.6875 48.390625 
Q 23 48.390625 18.546875 47.265625 
Q 14.109375 46.140625 10.015625 43.890625 
L 10.015625 52.203125 
Q 14.9375 54.109375 19.578125 55.046875 
Q 24.21875 56 28.609375 56 
Q 40.484375 56 46.34375 49.84375 
Q 52.203125 43.703125 52.203125 31.203125 
z
" id="DejaVuSans-97"/>
     <path d="M 11.71875 12.40625 
L 22.015625 12.40625 
L 22.015625 0 
L 11.71875 0 
z
M 11.71875 51.703125 
L 22.015625 51.703125 
L 22.015625 39.3125 
L 11.71875 39.3125 
z
" id="DejaVuSans-58"/>
     <path id="DejaVuSans-32"/>
     <path d="M 52 44.1875 
Q 55.375 50.25 60.0625 53.125 
Q 64.75 56 71.09375 56 
Q 79.640625 56 84.28125 50.015625 
Q 88.921875 44.046875 88.921875 33.015625 
L 88.921875 0 
L 79.890625 0 
L 79.890625 32.71875 
Q 79.890625 40.578125 77.09375 44.375 
Q 74.3125 48.1875 68.609375 48.1875 
Q 61.625 48.1875 57.5625 43.546875 
Q 53.515625 38.921875 53.515625 30.90625 
L 53.515625 0 
L 44.484375 0 
L 44.484375 32.71875 
Q 44.484375 40.625 41.703125 44.40625 
Q 38.921875 48.1875 33.109375 48.1875 
Q 26.21875 48.1875 22.15625 43.53125 
Q 18.109375 38.875 18.109375 30.90625 
L 18.109375 0 
L 9.078125 0 
L 9.078125 54.6875 
L 18.109375 54.6875 
L 18.109375 46.1875 
Q 21.1875 51.21875 25.484375 53.609375 
Q 29.78125 56 35.6875 56 
Q 41.65625 56 45.828125 52.96875 
Q 50 49.953125 52 44.1875 
z
" id="DejaVuSans-109"/>
     <path d="M 45.40625 27.984375 
Q 45.40625 37.75 41.375 43.109375 
Q 37.359375 48.484375 30.078125 48.484375 
Q 22.859375 48.484375 18.828125 43.109375 
Q 14.796875 37.75 14.796875 27.984375 
Q 14.796875 18.265625 18.828125 12.890625 
Q 22.859375 7.515625 30.078125 7.515625 
Q 37.359375 7.515625 41.375 12.890625 
Q 45.40625 18.265625 45.40625 27.984375 
z
M 54.390625 6.78125 
Q 54.390625 -7.171875 48.1875 -13.984375 
Q 42 -20.796875 29.203125 -20.796875 
Q 24.46875 -20.796875 20.265625 -20.09375 
Q 16.0625 -19.390625 12.109375 -17.921875 
L 12.109375 -9.1875 
Q 16.0625 -11.328125 19.921875 -12.34375 
Q 23.78125 -13.375 27.78125 -13.375 
Q 36.625 -13.375 41.015625 -8.765625 
Q 45.40625 -4.15625 45.40625 5.171875 
L 45.40625 9.625 
Q 42.625 4.78125 38.28125 2.390625 
Q 33.9375 0 27.875 0 
Q 17.828125 0 11.671875 7.65625 
Q 5.515625 15.328125 5.515625 27.984375 
Q 5.515625 40.671875 11.671875 48.328125 
Q 17.828125 56 27.875 56 
Q 33.9375 56 38.28125 53.609375 
Q 42.625 51.21875 45.40625 46.390625 
L 45.40625 54.6875 
L 54.390625 54.6875 
z
" id="DejaVuSans-103"/>
    </defs>
    <g transform="translate(263.772188 41.042625)scale(0.12 -0.12)">
     <use xlink:href="#DejaVuSans-98"/>
     <use x="63.476562" xlink:href="#DejaVuSans-111"/>
     <use x="124.658203" xlink:href="#DejaVuSans-97"/>
     <use x="185.9375" xlink:href="#DejaVuSans-116"/>
     <use x="225.146484" xlink:href="#DejaVuSans-58"/>
     <use x="258.837891" xlink:href="#DejaVuSans-32"/>
     <use x="290.625" xlink:href="#DejaVuSans-105"/>
     <use x="318.408203" xlink:href="#DejaVuSans-109"/>
     <use x="415.820312" xlink:href="#DejaVuSans-103"/>
     <use x="479.296875" xlink:href="#DejaVuSans-49"/>
     <use x="542.919922" xlink:href="#DejaVuSans-45"/>
     <use x="579.003906" xlink:href="#DejaVuSans-105"/>
     <use x="606.787109" xlink:href="#DejaVuSans-109"/>
     <use x="704.199219" xlink:href="#DejaVuSans-103"/>
     <use x="767.675781" xlink:href="#DejaVuSans-52"/>
    </g>
    <!-- NearestNeighbours -->
    <defs>
     <path d="M 9.8125 72.90625 
L 23.09375 72.90625 
L 55.421875 11.921875 
L 55.421875 72.90625 
L 64.984375 72.90625 
L 64.984375 0 
L 51.703125 0 
L 19.390625 60.984375 
L 19.390625 0 
L 9.8125 0 
z
" id="DejaVuSans-78"/>
     <path d="M 54.890625 33.015625 
L 54.890625 0 
L 45.90625 0 
L 45.90625 32.71875 
Q 45.90625 40.484375 42.875 44.328125 
Q 39.84375 48.1875 33.796875 48.1875 
Q 26.515625 48.1875 22.3125 43.546875 
Q 18.109375 38.921875 18.109375 30.90625 
L 18.109375 0 
L 9.078125 0 
L 9.078125 75.984375 
L 18.109375 75.984375 
L 18.109375 46.1875 
Q 21.34375 51.125 25.703125 53.5625 
Q 30.078125 56 35.796875 56 
Q 45.21875 56 50.046875 50.171875 
Q 54.890625 44.34375 54.890625 33.015625 
z
" id="DejaVuSans-104"/>
     <path d="M 8.5 21.578125 
L 8.5 54.6875 
L 17.484375 54.6875 
L 17.484375 21.921875 
Q 17.484375 14.15625 20.5 10.265625 
Q 23.53125 6.390625 29.59375 6.390625 
Q 36.859375 6.390625 41.078125 11.03125 
Q 45.3125 15.671875 45.3125 23.6875 
L 45.3125 54.6875 
L 54.296875 54.6875 
L 54.296875 0 
L 45.3125 0 
L 45.3125 8.40625 
Q 42.046875 3.421875 37.71875 1 
Q 33.40625 -1.421875 27.6875 -1.421875 
Q 18.265625 -1.421875 13.375 4.4375 
Q 8.5 10.296875 8.5 21.578125 
z
M 31.109375 56 
z
" id="DejaVuSans-117"/>
    </defs>
    <g transform="translate(255.957188 54.48)scale(0.12 -0.12)">
     <use xlink:href="#DejaVuSans-78"/>
     <use x="74.804688" xlink:href="#DejaVuSans-101"/>
     <use x="136.328125" xlink:href="#DejaVuSans-97"/>
     <use x="197.607422" xlink:href="#DejaVuSans-114"/>
     <use x="236.470703" xlink:href="#DejaVuSans-101"/>
     <use x="297.994141" xlink:href="#DejaVuSans-115"/>
     <use x="350.09375" xlink:href="#DejaVuSans-116"/>
     <use x="389.302734" xlink:href="#DejaVuSans-78"/>
     <use x="464.107422" xlink:href="#DejaVuSans-101"/>
     <use x="525.630859" xlink:href="#DejaVuSans-105"/>
     <use x="553.414062" xlink:href="#DejaVuSans-103"/>
     <use x="616.890625" xlink:href="#DejaVuSans-104"/>
     <use x="680.269531" xlink:href="#DejaVuSans-98"/>
     <use x="743.746094" xlink:href="#DejaVuSans-111"/>
     <use x="804.927734" xlink:href="#DejaVuSans-117"/>
     <use x="868.306641" xlink:href="#DejaVuSans-114"/>
     <use x="909.419922" xlink:href="#DejaVuSans-115"/>
    </g>
   </g>
   <g id="legend_1">
    <g id="patch_7">
     <path d="M 362.659375 112.514375 
L 543.8 112.514375 
Q 545.8 112.514375 545.8 110.514375 
L 545.8 67.48 
Q 545.8 65.48 543.8 65.48 
L 362.659375 65.48 
Q 360.659375 65.48 360.659375 67.48 
L 360.659375 110.514375 
Q 360.659375 112.514375 362.659375 112.514375 
z
" style="fill:#ffffff;opacity:0.8;stroke:#cccccc;stroke-linejoin:miter;"/>
    </g>
    <g id="line2d_48">
     <path d="M 364.659375 73.578438 
L 384.659375 73.578438 
" style="fill:none;stroke:#1f77b4;stroke-linecap:square;stroke-width:2;"/>
    </g>
    <g id="line2d_49"/>
    <g id="text_26">
     <!-- root-cvsift AP: 62.8, %In: 14.6 -->
     <defs>
      <path d="M 2.984375 54.6875 
L 12.5 54.6875 
L 29.59375 8.796875 
L 46.6875 54.6875 
L 56.203125 54.6875 
L 35.6875 0 
L 23.484375 0 
z
" id="DejaVuSans-118"/>
      <path d="M 37.109375 75.984375 
L 37.109375 68.5 
L 28.515625 68.5 
Q 23.6875 68.5 21.796875 66.546875 
Q 19.921875 64.59375 19.921875 59.515625 
L 19.921875 54.6875 
L 34.71875 54.6875 
L 34.71875 47.703125 
L 19.921875 47.703125 
L 19.921875 0 
L 10.890625 0 
L 10.890625 47.703125 
L 2.296875 47.703125 
L 2.296875 54.6875 
L 10.890625 54.6875 
L 10.890625 58.5 
Q 10.890625 67.625 15.140625 71.796875 
Q 19.390625 75.984375 28.609375 75.984375 
z
" id="DejaVuSans-102"/>
      <path d="M 34.1875 63.1875 
L 20.796875 26.90625 
L 47.609375 26.90625 
z
M 28.609375 72.90625 
L 39.796875 72.90625 
L 67.578125 0 
L 57.328125 0 
L 50.6875 18.703125 
L 17.828125 18.703125 
L 11.1875 0 
L 0.78125 0 
z
" id="DejaVuSans-65"/>
      <path d="M 19.671875 64.796875 
L 19.671875 37.40625 
L 32.078125 37.40625 
Q 38.96875 37.40625 42.71875 40.96875 
Q 46.484375 44.53125 46.484375 51.125 
Q 46.484375 57.671875 42.71875 61.234375 
Q 38.96875 64.796875 32.078125 64.796875 
z
M 9.8125 72.90625 
L 32.078125 72.90625 
Q 44.34375 72.90625 50.609375 67.359375 
Q 56.890625 61.8125 56.890625 51.125 
Q 56.890625 40.328125 50.609375 34.8125 
Q 44.34375 29.296875 32.078125 29.296875 
L 19.671875 29.296875 
L 19.671875 0 
L 9.8125 0 
z
" id="DejaVuSans-80"/>
      <path d="M 11.71875 12.40625 
L 22.015625 12.40625 
L 22.015625 4 
L 14.015625 -11.625 
L 7.71875 -11.625 
L 11.71875 4 
z
" id="DejaVuSans-44"/>
      <path d="M 72.703125 32.078125 
Q 68.453125 32.078125 66.03125 28.46875 
Q 63.625 24.859375 63.625 18.40625 
Q 63.625 12.0625 66.03125 8.421875 
Q 68.453125 4.78125 72.703125 4.78125 
Q 76.859375 4.78125 79.265625 8.421875 
Q 81.6875 12.0625 81.6875 18.40625 
Q 81.6875 24.8125 79.265625 28.4375 
Q 76.859375 32.078125 72.703125 32.078125 
z
M 72.703125 38.28125 
Q 80.421875 38.28125 84.953125 32.90625 
Q 89.5 27.546875 89.5 18.40625 
Q 89.5 9.28125 84.9375 3.921875 
Q 80.375 -1.421875 72.703125 -1.421875 
Q 64.890625 -1.421875 60.34375 3.921875 
Q 55.8125 9.28125 55.8125 18.40625 
Q 55.8125 27.59375 60.375 32.9375 
Q 64.9375 38.28125 72.703125 38.28125 
z
M 22.3125 68.015625 
Q 18.109375 68.015625 15.6875 64.375 
Q 13.28125 60.75 13.28125 54.390625 
Q 13.28125 47.953125 15.671875 44.328125 
Q 18.0625 40.71875 22.3125 40.71875 
Q 26.5625 40.71875 28.96875 44.328125 
Q 31.390625 47.953125 31.390625 54.390625 
Q 31.390625 60.6875 28.953125 64.34375 
Q 26.515625 68.015625 22.3125 68.015625 
z
M 66.40625 74.21875 
L 74.21875 74.21875 
L 28.609375 -1.421875 
L 20.796875 -1.421875 
z
M 22.3125 74.21875 
Q 30.03125 74.21875 34.609375 68.875 
Q 39.203125 63.53125 39.203125 54.390625 
Q 39.203125 45.171875 34.640625 39.84375 
Q 30.078125 34.515625 22.3125 34.515625 
Q 14.546875 34.515625 10.03125 39.859375 
Q 5.515625 45.21875 5.515625 54.390625 
Q 5.515625 63.484375 10.046875 68.84375 
Q 14.59375 74.21875 22.3125 74.21875 
z
" id="DejaVuSans-37"/>
      <path d="M 9.8125 72.90625 
L 19.671875 72.90625 
L 19.671875 0 
L 9.8125 0 
z
" id="DejaVuSans-73"/>
     </defs>
     <g transform="translate(392.659375 77.078438)scale(0.1 -0.1)">
      <use xlink:href="#DejaVuSans-114"/>
      <use x="38.863281" xlink:href="#DejaVuSans-111"/>
      <use x="100.044922" xlink:href="#DejaVuSans-111"/>
      <use x="161.226562" xlink:href="#DejaVuSans-116"/>
      <use x="200.435547" xlink:href="#DejaVuSans-45"/>
      <use x="236.519531" xlink:href="#DejaVuSans-99"/>
      <use x="291.5" xlink:href="#DejaVuSans-118"/>
      <use x="350.679688" xlink:href="#DejaVuSans-115"/>
      <use x="402.779297" xlink:href="#DejaVuSans-105"/>
      <use x="430.5625" xlink:href="#DejaVuSans-102"/>
      <use x="464.017578" xlink:href="#DejaVuSans-116"/>
      <use x="503.226562" xlink:href="#DejaVuSans-32"/>
      <use x="535.013672" xlink:href="#DejaVuSans-65"/>
      <use x="603.421875" xlink:href="#DejaVuSans-80"/>
      <use x="663.724609" xlink:href="#DejaVuSans-58"/>
      <use x="697.416016" xlink:href="#DejaVuSans-32"/>
      <use x="729.203125" xlink:href="#DejaVuSans-54"/>
      <use x="792.826172" xlink:href="#DejaVuSans-50"/>
      <use x="856.449219" xlink:href="#DejaVuSans-46"/>
      <use x="888.236328" xlink:href="#DejaVuSans-56"/>
      <use x="951.859375" xlink:href="#DejaVuSans-44"/>
      <use x="983.646484" xlink:href="#DejaVuSans-32"/>
      <use x="1015.433594" xlink:href="#DejaVuSans-37"/>
      <use x="1110.453125" xlink:href="#DejaVuSans-73"/>
      <use x="1139.945312" xlink:href="#DejaVuSans-110"/>
      <use x="1203.324219" xlink:href="#DejaVuSans-58"/>
      <use x="1237.015625" xlink:href="#DejaVuSans-32"/>
      <use x="1268.802734" xlink:href="#DejaVuSans-49"/>
      <use x="1332.425781" xlink:href="#DejaVuSans-52"/>
      <use x="1396.048828" xlink:href="#DejaVuSans-46"/>
      <use x="1427.835938" xlink:href="#DejaVuSans-54"/>
     </g>
    </g>
    <g id="line2d_50">
     <path d="M 364.659375 88.256563 
L 384.659375 88.256563 
" style="fill:none;stroke:#ff7f0e;stroke-linecap:square;stroke-width:2;"/>
    </g>
    <g id="line2d_51"/>
    <g id="text_27">
     <!-- tfeat AP: 4.5, %In: 4.8 -->
     <g transform="translate(392.659375 91.756563)scale(0.1 -0.1)">
      <use xlink:href="#DejaVuSans-116"/>
      <use x="39.208984" xlink:href="#DejaVuSans-102"/>
      <use x="74.414062" xlink:href="#DejaVuSans-101"/>
      <use x="135.9375" xlink:href="#DejaVuSans-97"/>
      <use x="197.216797" xlink:href="#DejaVuSans-116"/>
      <use x="236.425781" xlink:href="#DejaVuSans-32"/>
      <use x="268.212891" xlink:href="#DejaVuSans-65"/>
      <use x="336.621094" xlink:href="#DejaVuSans-80"/>
      <use x="396.923828" xlink:href="#DejaVuSans-58"/>
      <use x="430.615234" xlink:href="#DejaVuSans-32"/>
      <use x="462.402344" xlink:href="#DejaVuSans-52"/>
      <use x="526.025391" xlink:href="#DejaVuSans-46"/>
      <use x="557.8125" xlink:href="#DejaVuSans-53"/>
      <use x="621.435547" xlink:href="#DejaVuSans-44"/>
      <use x="653.222656" xlink:href="#DejaVuSans-32"/>
      <use x="685.009766" xlink:href="#DejaVuSans-37"/>
      <use x="780.029297" xlink:href="#DejaVuSans-73"/>
      <use x="809.521484" xlink:href="#DejaVuSans-110"/>
      <use x="872.900391" xlink:href="#DejaVuSans-58"/>
      <use x="906.591797" xlink:href="#DejaVuSans-32"/>
      <use x="938.378906" xlink:href="#DejaVuSans-52"/>
      <use x="1002.001953" xlink:href="#DejaVuSans-46"/>
      <use x="1033.789062" xlink:href="#DejaVuSans-56"/>
     </g>
    </g>
    <g id="line2d_52">
     <path d="M 364.659375 102.934687 
L 384.659375 102.934687 
" style="fill:none;stroke:#2ca02c;stroke-linecap:square;stroke-width:2;"/>
    </g>
    <g id="line2d_53"/>
    <g id="text_28">
     <!-- hardnet AP: 23.4, %In: 8.3 -->
     <defs>
      <path d="M 45.40625 46.390625 
L 45.40625 75.984375 
L 54.390625 75.984375 
L 54.390625 0 
L 45.40625 0 
L 45.40625 8.203125 
Q 42.578125 3.328125 38.25 0.953125 
Q 33.9375 -1.421875 27.875 -1.421875 
Q 17.96875 -1.421875 11.734375 6.484375 
Q 5.515625 14.40625 5.515625 27.296875 
Q 5.515625 40.1875 11.734375 48.09375 
Q 17.96875 56 27.875 56 
Q 33.9375 56 38.25 53.625 
Q 42.578125 51.265625 45.40625 46.390625 
z
M 14.796875 27.296875 
Q 14.796875 17.390625 18.875 11.75 
Q 22.953125 6.109375 30.078125 6.109375 
Q 37.203125 6.109375 41.296875 11.75 
Q 45.40625 17.390625 45.40625 27.296875 
Q 45.40625 37.203125 41.296875 42.84375 
Q 37.203125 48.484375 30.078125 48.484375 
Q 22.953125 48.484375 18.875 42.84375 
Q 14.796875 37.203125 14.796875 27.296875 
z
" id="DejaVuSans-100"/>
     </defs>
     <g transform="translate(392.659375 106.434687)scale(0.1 -0.1)">
      <use xlink:href="#DejaVuSans-104"/>
      <use x="63.378906" xlink:href="#DejaVuSans-97"/>
      <use x="124.658203" xlink:href="#DejaVuSans-114"/>
      <use x="164.021484" xlink:href="#DejaVuSans-100"/>
      <use x="227.498047" xlink:href="#DejaVuSans-110"/>
      <use x="290.876953" xlink:href="#DejaVuSans-101"/>
      <use x="352.400391" xlink:href="#DejaVuSans-116"/>
      <use x="391.609375" xlink:href="#DejaVuSans-32"/>
      <use x="423.396484" xlink:href="#DejaVuSans-65"/>
      <use x="491.804688" xlink:href="#DejaVuSans-80"/>
      <use x="552.107422" xlink:href="#DejaVuSans-58"/>
      <use x="585.798828" xlink:href="#DejaVuSans-32"/>
      <use x="617.585938" xlink:href="#DejaVuSans-50"/>
      <use x="681.208984" xlink:href="#DejaVuSans-51"/>
      <use x="744.832031" xlink:href="#DejaVuSans-46"/>
      <use x="776.619141" xlink:href="#DejaVuSans-52"/>
      <use x="840.242188" xlink:href="#DejaVuSans-44"/>
      <use x="872.029297" xlink:href="#DejaVuSans-32"/>
      <use x="903.816406" xlink:href="#DejaVuSans-37"/>
      <use x="998.835938" xlink:href="#DejaVuSans-73"/>
      <use x="1028.328125" xlink:href="#DejaVuSans-110"/>
      <use x="1091.707031" xlink:href="#DejaVuSans-58"/>
      <use x="1125.398438" xlink:href="#DejaVuSans-32"/>
      <use x="1157.185547" xlink:href="#DejaVuSans-56"/>
      <use x="1220.808594" xlink:href="#DejaVuSans-46"/>
      <use x="1252.595703" xlink:href="#DejaVuSans-51"/>
     </g>
    </g>
   </g>
  </g>
 </g>
 <defs>
  <clipPath id="pe7e2737d9e">
   <rect height="388.08" width="474.3" x="76.5" y="60.48"/>
  </clipPath>
 </defs>
</svg>
