<?xml version="1.0" encoding="utf-8" standalone="no"?>
<!DOCTYPE svg PUBLIC "-//W3C//DTD SVG 1.1//EN"
  "http://www.w3.org/Graphics/SVG/1.1/DTD/svg11.dtd">
<!-- Created with matplotlib (https://matplotlib.org/) -->
<svg height="504pt" version="1.1" viewBox="0 0 612 504" width="612pt" xmlns="http://www.w3.org/2000/svg" xmlns:xlink="http://www.w3.org/1999/xlink">
 <defs>
  <style type="text/css">
*{stroke-linecap:butt;stroke-linejoin:round;}
  </style>
 </defs>
 <g id="figure_1">
  <g id="patch_1">
   <path d="M 0 504 
L 612 504 
L 612 0 
L 0 0 
z
" style="fill:#ffffff;"/>
  </g>
  <g id="axes_1">
   <g id="patch_2">
    <path d="M 76.5 448.56 
L 550.8 448.56 
L 550.8 60.48 
L 76.5 60.48 
z
" style="fill:#ffffff;"/>
   </g>
   <g id="matplotlib.axis_1">
    <g id="xtick_1">
     <g id="line2d_1">
      <path clip-path="url(#pe061bf827d)" d="M 76.5 448.56 
L 76.5 60.48 
" style="fill:none;stroke:#b0b0b0;stroke-linecap:square;stroke-width:0.8;"/>
     </g>
     <g id="line2d_2">
      <defs>
       <path d="M 0 0 
L 0 3.5 
" id="m9d56d37732" style="stroke:#000000;stroke-width:0.8;"/>
      </defs>
      <g>
       <use style="stroke:#000000;stroke-width:0.8;" x="76.5" xlink:href="#m9d56d37732" y="448.56"/>
      </g>
     </g>
     <g id="text_1">
      <!-- 0.0 -->
      <defs>
       <path d="M 31.78125 66.40625 
Q 24.171875 66.40625 20.328125 58.90625 
Q 16.5 51.421875 16.5 36.375 
Q 16.5 21.390625 20.328125 13.890625 
Q 24.171875 6.390625 31.78125 6.390625 
Q 39.453125 6.390625 43.28125 13.890625 
Q 47.125 21.390625 47.125 36.375 
Q 47.125 51.421875 43.28125 58.90625 
Q 39.453125 66.40625 31.78125 66.40625 
z
M 31.78125 74.21875 
Q 44.046875 74.21875 50.515625 64.515625 
Q 56.984375 54.828125 56.984375 36.375 
Q 56.984375 17.96875 50.515625 8.265625 
Q 44.046875 -1.421875 31.78125 -1.421875 
Q 19.53125 -1.421875 13.0625 8.265625 
Q 6.59375 17.96875 6.59375 36.375 
Q 6.59375 54.828125 13.0625 64.515625 
Q 19.53125 74.21875 31.78125 74.21875 
z
" id="DejaVuSans-48"/>
       <path d="M 10.6875 12.40625 
L 21 12.40625 
L 21 0 
L 10.6875 0 
z
" id="DejaVuSans-46"/>
      </defs>
      <g transform="translate(68.548438 463.158437)scale(0.1 -0.1)">
       <use xlink:href="#DejaVuSans-48"/>
       <use x="63.623047" xlink:href="#DejaVuSans-46"/>
       <use x="95.410156" xlink:href="#DejaVuSans-48"/>
      </g>
     </g>
    </g>
    <g id="xtick_2">
     <g id="line2d_3">
      <path clip-path="url(#pe061bf827d)" d="M 123.93 448.56 
L 123.93 60.48 
" style="fill:none;stroke:#b0b0b0;stroke-linecap:square;stroke-width:0.8;"/>
     </g>
     <g id="line2d_4">
      <g>
       <use style="stroke:#000000;stroke-width:0.8;" x="123.93" xlink:href="#m9d56d37732" y="448.56"/>
      </g>
     </g>
     <g id="text_2">
      <!-- 0.1 -->
      <defs>
       <path d="M 12.40625 8.296875 
L 28.515625 8.296875 
L 28.515625 63.921875 
L 10.984375 60.40625 
L 10.984375 69.390625 
L 28.421875 72.90625 
L 38.28125 72.90625 
L 38.28125 8.296875 
L 54.390625 8.296875 
L 54.390625 0 
L 12.40625 0 
z
" id="DejaVuSans-49"/>
      </defs>
      <g transform="translate(115.978438 463.158437)scale(0.1 -0.1)">
       <use xlink:href="#DejaVuSans-48"/>
       <use x="63.623047" xlink:href="#DejaVuSans-46"/>
       <use x="95.410156" xlink:href="#DejaVuSans-49"/>
      </g>
     </g>
    </g>
    <g id="xtick_3">
     <g id="line2d_5">
      <path clip-path="url(#pe061bf827d)" d="M 171.36 448.56 
L 171.36 60.48 
" style="fill:none;stroke:#b0b0b0;stroke-linecap:square;stroke-width:0.8;"/>
     </g>
     <g id="line2d_6">
      <g>
       <use style="stroke:#000000;stroke-width:0.8;" x="171.36" xlink:href="#m9d56d37732" y="448.56"/>
      </g>
     </g>
     <g id="text_3">
      <!-- 0.2 -->
      <defs>
       <path d="M 19.1875 8.296875 
L 53.609375 8.296875 
L 53.609375 0 
L 7.328125 0 
L 7.328125 8.296875 
Q 12.9375 14.109375 22.625 23.890625 
Q 32.328125 33.6875 34.8125 36.53125 
Q 39.546875 41.84375 41.421875 45.53125 
Q 43.3125 49.21875 43.3125 52.78125 
Q 43.3125 58.59375 39.234375 62.25 
Q 35.15625 65.921875 28.609375 65.921875 
Q 23.96875 65.921875 18.8125 64.3125 
Q 13.671875 62.703125 7.8125 59.421875 
L 7.8125 69.390625 
Q 13.765625 71.78125 18.9375 73 
Q 24.125 74.21875 28.421875 74.21875 
Q 39.75 74.21875 46.484375 68.546875 
Q 53.21875 62.890625 53.21875 53.421875 
Q 53.21875 48.921875 51.53125 44.890625 
Q 49.859375 40.875 45.40625 35.40625 
Q 44.1875 33.984375 37.640625 27.21875 
Q 31.109375 20.453125 19.1875 8.296875 
z
" id="DejaVuSans-50"/>
      </defs>
      <g transform="translate(163.408438 463.158437)scale(0.1 -0.1)">
       <use xlink:href="#DejaVuSans-48"/>
       <use x="63.623047" xlink:href="#DejaVuSans-46"/>
       <use x="95.410156" xlink:href="#DejaVuSans-50"/>
      </g>
     </g>
    </g>
    <g id="xtick_4">
     <g id="line2d_7">
      <path clip-path="url(#pe061bf827d)" d="M 218.79 448.56 
L 218.79 60.48 
" style="fill:none;stroke:#b0b0b0;stroke-linecap:square;stroke-width:0.8;"/>
     </g>
     <g id="line2d_8">
      <g>
       <use style="stroke:#000000;stroke-width:0.8;" x="218.79" xlink:href="#m9d56d37732" y="448.56"/>
      </g>
     </g>
     <g id="text_4">
      <!-- 0.3 -->
      <defs>
       <path d="M 40.578125 39.3125 
Q 47.65625 37.796875 51.625 33 
Q 55.609375 28.21875 55.609375 21.1875 
Q 55.609375 10.40625 48.1875 4.484375 
Q 40.765625 -1.421875 27.09375 -1.421875 
Q 22.515625 -1.421875 17.65625 -0.515625 
Q 12.796875 0.390625 7.625 2.203125 
L 7.625 11.71875 
Q 11.71875 9.328125 16.59375 8.109375 
Q 21.484375 6.890625 26.8125 6.890625 
Q 36.078125 6.890625 40.9375 10.546875 
Q 45.796875 14.203125 45.796875 21.1875 
Q 45.796875 27.640625 41.28125 31.265625 
Q 36.765625 34.90625 28.71875 34.90625 
L 20.21875 34.90625 
L 20.21875 43.015625 
L 29.109375 43.015625 
Q 36.375 43.015625 40.234375 45.921875 
Q 44.09375 48.828125 44.09375 54.296875 
Q 44.09375 59.90625 40.109375 62.90625 
Q 36.140625 65.921875 28.71875 65.921875 
Q 24.65625 65.921875 20.015625 65.03125 
Q 15.375 64.15625 9.8125 62.3125 
L 9.8125 71.09375 
Q 15.4375 72.65625 20.34375 73.4375 
Q 25.25 74.21875 29.59375 74.21875 
Q 40.828125 74.21875 47.359375 69.109375 
Q 53.90625 64.015625 53.90625 55.328125 
Q 53.90625 49.265625 50.4375 45.09375 
Q 46.96875 40.921875 40.578125 39.3125 
z
" id="DejaVuSans-51"/>
      </defs>
      <g transform="translate(210.838438 463.158437)scale(0.1 -0.1)">
       <use xlink:href="#DejaVuSans-48"/>
       <use x="63.623047" xlink:href="#DejaVuSans-46"/>
       <use x="95.410156" xlink:href="#DejaVuSans-51"/>
      </g>
     </g>
    </g>
    <g id="xtick_5">
     <g id="line2d_9">
      <path clip-path="url(#pe061bf827d)" d="M 266.22 448.56 
L 266.22 60.48 
" style="fill:none;stroke:#b0b0b0;stroke-linecap:square;stroke-width:0.8;"/>
     </g>
     <g id="line2d_10">
      <g>
       <use style="stroke:#000000;stroke-width:0.8;" x="266.22" xlink:href="#m9d56d37732" y="448.56"/>
      </g>
     </g>
     <g id="text_5">
      <!-- 0.4 -->
      <defs>
       <path d="M 37.796875 64.3125 
L 12.890625 25.390625 
L 37.796875 25.390625 
z
M 35.203125 72.90625 
L 47.609375 72.90625 
L 47.609375 25.390625 
L 58.015625 25.390625 
L 58.015625 17.1875 
L 47.609375 17.1875 
L 47.609375 0 
L 37.796875 0 
L 37.796875 17.1875 
L 4.890625 17.1875 
L 4.890625 26.703125 
z
" id="DejaVuSans-52"/>
      </defs>
      <g transform="translate(258.268438 463.158437)scale(0.1 -0.1)">
       <use xlink:href="#DejaVuSans-48"/>
       <use x="63.623047" xlink:href="#DejaVuSans-46"/>
       <use x="95.410156" xlink:href="#DejaVuSans-52"/>
      </g>
     </g>
    </g>
    <g id="xtick_6">
     <g id="line2d_11">
      <path clip-path="url(#pe061bf827d)" d="M 313.65 448.56 
L 313.65 60.48 
" style="fill:none;stroke:#b0b0b0;stroke-linecap:square;stroke-width:0.8;"/>
     </g>
     <g id="line2d_12">
      <g>
       <use style="stroke:#000000;stroke-width:0.8;" x="313.65" xlink:href="#m9d56d37732" y="448.56"/>
      </g>
     </g>
     <g id="text_6">
      <!-- 0.5 -->
      <defs>
       <path d="M 10.796875 72.90625 
L 49.515625 72.90625 
L 49.515625 64.59375 
L 19.828125 64.59375 
L 19.828125 46.734375 
Q 21.96875 47.46875 24.109375 47.828125 
Q 26.265625 48.1875 28.421875 48.1875 
Q 40.625 48.1875 47.75 41.5 
Q 54.890625 34.8125 54.890625 23.390625 
Q 54.890625 11.625 47.5625 5.09375 
Q 40.234375 -1.421875 26.90625 -1.421875 
Q 22.3125 -1.421875 17.546875 -0.640625 
Q 12.796875 0.140625 7.71875 1.703125 
L 7.71875 11.625 
Q 12.109375 9.234375 16.796875 8.0625 
Q 21.484375 6.890625 26.703125 6.890625 
Q 35.15625 6.890625 40.078125 11.328125 
Q 45.015625 15.765625 45.015625 23.390625 
Q 45.015625 31 40.078125 35.4375 
Q 35.15625 39.890625 26.703125 39.890625 
Q 22.75 39.890625 18.8125 39.015625 
Q 14.890625 38.140625 10.796875 36.28125 
z
" id="DejaVuSans-53"/>
      </defs>
      <g transform="translate(305.698438 463.158437)scale(0.1 -0.1)">
       <use xlink:href="#DejaVuSans-48"/>
       <use x="63.623047" xlink:href="#DejaVuSans-46"/>
       <use x="95.410156" xlink:href="#DejaVuSans-53"/>
      </g>
     </g>
    </g>
    <g id="xtick_7">
     <g id="line2d_13">
      <path clip-path="url(#pe061bf827d)" d="M 361.08 448.56 
L 361.08 60.48 
" style="fill:none;stroke:#b0b0b0;stroke-linecap:square;stroke-width:0.8;"/>
     </g>
     <g id="line2d_14">
      <g>
       <use style="stroke:#000000;stroke-width:0.8;" x="361.08" xlink:href="#m9d56d37732" y="448.56"/>
      </g>
     </g>
     <g id="text_7">
      <!-- 0.6 -->
      <defs>
       <path d="M 33.015625 40.375 
Q 26.375 40.375 22.484375 35.828125 
Q 18.609375 31.296875 18.609375 23.390625 
Q 18.609375 15.53125 22.484375 10.953125 
Q 26.375 6.390625 33.015625 6.390625 
Q 39.65625 6.390625 43.53125 10.953125 
Q 47.40625 15.53125 47.40625 23.390625 
Q 47.40625 31.296875 43.53125 35.828125 
Q 39.65625 40.375 33.015625 40.375 
z
M 52.59375 71.296875 
L 52.59375 62.3125 
Q 48.875 64.0625 45.09375 64.984375 
Q 41.3125 65.921875 37.59375 65.921875 
Q 27.828125 65.921875 22.671875 59.328125 
Q 17.53125 52.734375 16.796875 39.40625 
Q 19.671875 43.65625 24.015625 45.921875 
Q 28.375 48.1875 33.59375 48.1875 
Q 44.578125 48.1875 50.953125 41.515625 
Q 57.328125 34.859375 57.328125 23.390625 
Q 57.328125 12.15625 50.6875 5.359375 
Q 44.046875 -1.421875 33.015625 -1.421875 
Q 20.359375 -1.421875 13.671875 8.265625 
Q 6.984375 17.96875 6.984375 36.375 
Q 6.984375 53.65625 15.1875 63.9375 
Q 23.390625 74.21875 37.203125 74.21875 
Q 40.921875 74.21875 44.703125 73.484375 
Q 48.484375 72.75 52.59375 71.296875 
z
" id="DejaVuSans-54"/>
      </defs>
      <g transform="translate(353.128438 463.158437)scale(0.1 -0.1)">
       <use xlink:href="#DejaVuSans-48"/>
       <use x="63.623047" xlink:href="#DejaVuSans-46"/>
       <use x="95.410156" xlink:href="#DejaVuSans-54"/>
      </g>
     </g>
    </g>
    <g id="xtick_8">
     <g id="line2d_15">
      <path clip-path="url(#pe061bf827d)" d="M 408.51 448.56 
L 408.51 60.48 
" style="fill:none;stroke:#b0b0b0;stroke-linecap:square;stroke-width:0.8;"/>
     </g>
     <g id="line2d_16">
      <g>
       <use style="stroke:#000000;stroke-width:0.8;" x="408.51" xlink:href="#m9d56d37732" y="448.56"/>
      </g>
     </g>
     <g id="text_8">
      <!-- 0.7 -->
      <defs>
       <path d="M 8.203125 72.90625 
L 55.078125 72.90625 
L 55.078125 68.703125 
L 28.609375 0 
L 18.3125 0 
L 43.21875 64.59375 
L 8.203125 64.59375 
z
" id="DejaVuSans-55"/>
      </defs>
      <g transform="translate(400.558438 463.158437)scale(0.1 -0.1)">
       <use xlink:href="#DejaVuSans-48"/>
       <use x="63.623047" xlink:href="#DejaVuSans-46"/>
       <use x="95.410156" xlink:href="#DejaVuSans-55"/>
      </g>
     </g>
    </g>
    <g id="xtick_9">
     <g id="line2d_17">
      <path clip-path="url(#pe061bf827d)" d="M 455.94 448.56 
L 455.94 60.48 
" style="fill:none;stroke:#b0b0b0;stroke-linecap:square;stroke-width:0.8;"/>
     </g>
     <g id="line2d_18">
      <g>
       <use style="stroke:#000000;stroke-width:0.8;" x="455.94" xlink:href="#m9d56d37732" y="448.56"/>
      </g>
     </g>
     <g id="text_9">
      <!-- 0.8 -->
      <defs>
       <path d="M 31.78125 34.625 
Q 24.75 34.625 20.71875 30.859375 
Q 16.703125 27.09375 16.703125 20.515625 
Q 16.703125 13.921875 20.71875 10.15625 
Q 24.75 6.390625 31.78125 6.390625 
Q 38.8125 6.390625 42.859375 10.171875 
Q 46.921875 13.96875 46.921875 20.515625 
Q 46.921875 27.09375 42.890625 30.859375 
Q 38.875 34.625 31.78125 34.625 
z
M 21.921875 38.8125 
Q 15.578125 40.375 12.03125 44.71875 
Q 8.5 49.078125 8.5 55.328125 
Q 8.5 64.0625 14.71875 69.140625 
Q 20.953125 74.21875 31.78125 74.21875 
Q 42.671875 74.21875 48.875 69.140625 
Q 55.078125 64.0625 55.078125 55.328125 
Q 55.078125 49.078125 51.53125 44.71875 
Q 48 40.375 41.703125 38.8125 
Q 48.828125 37.15625 52.796875 32.3125 
Q 56.78125 27.484375 56.78125 20.515625 
Q 56.78125 9.90625 50.3125 4.234375 
Q 43.84375 -1.421875 31.78125 -1.421875 
Q 19.734375 -1.421875 13.25 4.234375 
Q 6.78125 9.90625 6.78125 20.515625 
Q 6.78125 27.484375 10.78125 32.3125 
Q 14.796875 37.15625 21.921875 38.8125 
z
M 18.3125 54.390625 
Q 18.3125 48.734375 21.84375 45.5625 
Q 25.390625 42.390625 31.78125 42.390625 
Q 38.140625 42.390625 41.71875 45.5625 
Q 45.3125 48.734375 45.3125 54.390625 
Q 45.3125 60.0625 41.71875 63.234375 
Q 38.140625 66.40625 31.78125 66.40625 
Q 25.390625 66.40625 21.84375 63.234375 
Q 18.3125 60.0625 18.3125 54.390625 
z
" id="DejaVuSans-56"/>
      </defs>
      <g transform="translate(447.988438 463.158437)scale(0.1 -0.1)">
       <use xlink:href="#DejaVuSans-48"/>
       <use x="63.623047" xlink:href="#DejaVuSans-46"/>
       <use x="95.410156" xlink:href="#DejaVuSans-56"/>
      </g>
     </g>
    </g>
    <g id="xtick_10">
     <g id="line2d_19">
      <path clip-path="url(#pe061bf827d)" d="M 503.37 448.56 
L 503.37 60.48 
" style="fill:none;stroke:#b0b0b0;stroke-linecap:square;stroke-width:0.8;"/>
     </g>
     <g id="line2d_20">
      <g>
       <use style="stroke:#000000;stroke-width:0.8;" x="503.37" xlink:href="#m9d56d37732" y="448.56"/>
      </g>
     </g>
     <g id="text_10">
      <!-- 0.9 -->
      <defs>
       <path d="M 10.984375 1.515625 
L 10.984375 10.5 
Q 14.703125 8.734375 18.5 7.8125 
Q 22.3125 6.890625 25.984375 6.890625 
Q 35.75 6.890625 40.890625 13.453125 
Q 46.046875 20.015625 46.78125 33.40625 
Q 43.953125 29.203125 39.59375 26.953125 
Q 35.25 24.703125 29.984375 24.703125 
Q 19.046875 24.703125 12.671875 31.3125 
Q 6.296875 37.9375 6.296875 49.421875 
Q 6.296875 60.640625 12.9375 67.421875 
Q 19.578125 74.21875 30.609375 74.21875 
Q 43.265625 74.21875 49.921875 64.515625 
Q 56.59375 54.828125 56.59375 36.375 
Q 56.59375 19.140625 48.40625 8.859375 
Q 40.234375 -1.421875 26.421875 -1.421875 
Q 22.703125 -1.421875 18.890625 -0.6875 
Q 15.09375 0.046875 10.984375 1.515625 
z
M 30.609375 32.421875 
Q 37.25 32.421875 41.125 36.953125 
Q 45.015625 41.5 45.015625 49.421875 
Q 45.015625 57.28125 41.125 61.84375 
Q 37.25 66.40625 30.609375 66.40625 
Q 23.96875 66.40625 20.09375 61.84375 
Q 16.21875 57.28125 16.21875 49.421875 
Q 16.21875 41.5 20.09375 36.953125 
Q 23.96875 32.421875 30.609375 32.421875 
z
" id="DejaVuSans-57"/>
      </defs>
      <g transform="translate(495.418438 463.158437)scale(0.1 -0.1)">
       <use xlink:href="#DejaVuSans-48"/>
       <use x="63.623047" xlink:href="#DejaVuSans-46"/>
       <use x="95.410156" xlink:href="#DejaVuSans-57"/>
      </g>
     </g>
    </g>
    <g id="xtick_11">
     <g id="line2d_21">
      <path clip-path="url(#pe061bf827d)" d="M 550.8 448.56 
L 550.8 60.48 
" style="fill:none;stroke:#b0b0b0;stroke-linecap:square;stroke-width:0.8;"/>
     </g>
     <g id="line2d_22">
      <g>
       <use style="stroke:#000000;stroke-width:0.8;" x="550.8" xlink:href="#m9d56d37732" y="448.56"/>
      </g>
     </g>
     <g id="text_11">
      <!-- 1.0 -->
      <g transform="translate(542.848438 463.158437)scale(0.1 -0.1)">
       <use xlink:href="#DejaVuSans-49"/>
       <use x="63.623047" xlink:href="#DejaVuSans-46"/>
       <use x="95.410156" xlink:href="#DejaVuSans-48"/>
      </g>
     </g>
    </g>
    <g id="text_12">
     <!-- 1-precision -->
     <defs>
      <path d="M 4.890625 31.390625 
L 31.203125 31.390625 
L 31.203125 23.390625 
L 4.890625 23.390625 
z
" id="DejaVuSans-45"/>
      <path d="M 18.109375 8.203125 
L 18.109375 -20.796875 
L 9.078125 -20.796875 
L 9.078125 54.6875 
L 18.109375 54.6875 
L 18.109375 46.390625 
Q 20.953125 51.265625 25.265625 53.625 
Q 29.59375 56 35.59375 56 
Q 45.5625 56 51.78125 48.09375 
Q 58.015625 40.1875 58.015625 27.296875 
Q 58.015625 14.40625 51.78125 6.484375 
Q 45.5625 -1.421875 35.59375 -1.421875 
Q 29.59375 -1.421875 25.265625 0.953125 
Q 20.953125 3.328125 18.109375 8.203125 
z
M 48.6875 27.296875 
Q 48.6875 37.203125 44.609375 42.84375 
Q 40.53125 48.484375 33.40625 48.484375 
Q 26.265625 48.484375 22.1875 42.84375 
Q 18.109375 37.203125 18.109375 27.296875 
Q 18.109375 17.390625 22.1875 11.75 
Q 26.265625 6.109375 33.40625 6.109375 
Q 40.53125 6.109375 44.609375 11.75 
Q 48.6875 17.390625 48.6875 27.296875 
z
" id="DejaVuSans-112"/>
      <path d="M 41.109375 46.296875 
Q 39.59375 47.171875 37.8125 47.578125 
Q 36.03125 48 33.890625 48 
Q 26.265625 48 22.1875 43.046875 
Q 18.109375 38.09375 18.109375 28.8125 
L 18.109375 0 
L 9.078125 0 
L 9.078125 54.6875 
L 18.109375 54.6875 
L 18.109375 46.1875 
Q 20.953125 51.171875 25.484375 53.578125 
Q 30.03125 56 36.53125 56 
Q 37.453125 56 38.578125 55.875 
Q 39.703125 55.765625 41.0625 55.515625 
z
" id="DejaVuSans-114"/>
      <path d="M 56.203125 29.59375 
L 56.203125 25.203125 
L 14.890625 25.203125 
Q 15.484375 15.921875 20.484375 11.0625 
Q 25.484375 6.203125 34.421875 6.203125 
Q 39.59375 6.203125 44.453125 7.46875 
Q 49.3125 8.734375 54.109375 11.28125 
L 54.109375 2.78125 
Q 49.265625 0.734375 44.1875 -0.34375 
Q 39.109375 -1.421875 33.890625 -1.421875 
Q 20.796875 -1.421875 13.15625 6.1875 
Q 5.515625 13.8125 5.515625 26.8125 
Q 5.515625 40.234375 12.765625 48.109375 
Q 20.015625 56 32.328125 56 
Q 43.359375 56 49.78125 48.890625 
Q 56.203125 41.796875 56.203125 29.59375 
z
M 47.21875 32.234375 
Q 47.125 39.59375 43.09375 43.984375 
Q 39.0625 48.390625 32.421875 48.390625 
Q 24.90625 48.390625 20.390625 44.140625 
Q 15.875 39.890625 15.1875 32.171875 
z
" id="DejaVuSans-101"/>
      <path d="M 48.78125 52.59375 
L 48.78125 44.1875 
Q 44.96875 46.296875 41.140625 47.34375 
Q 37.3125 48.390625 33.40625 48.390625 
Q 24.65625 48.390625 19.8125 42.84375 
Q 14.984375 37.3125 14.984375 27.296875 
Q 14.984375 17.28125 19.8125 11.734375 
Q 24.65625 6.203125 33.40625 6.203125 
Q 37.3125 6.203125 41.140625 7.25 
Q 44.96875 8.296875 48.78125 10.40625 
L 48.78125 2.09375 
Q 45.015625 0.34375 40.984375 -0.53125 
Q 36.96875 -1.421875 32.421875 -1.421875 
Q 20.0625 -1.421875 12.78125 6.34375 
Q 5.515625 14.109375 5.515625 27.296875 
Q 5.515625 40.671875 12.859375 48.328125 
Q 20.21875 56 33.015625 56 
Q 37.15625 56 41.109375 55.140625 
Q 45.0625 54.296875 48.78125 52.59375 
z
" id="DejaVuSans-99"/>
      <path d="M 9.421875 54.6875 
L 18.40625 54.6875 
L 18.40625 0 
L 9.421875 0 
z
M 9.421875 75.984375 
L 18.40625 75.984375 
L 18.40625 64.59375 
L 9.421875 64.59375 
z
" id="DejaVuSans-105"/>
      <path d="M 44.28125 53.078125 
L 44.28125 44.578125 
Q 40.484375 46.53125 36.375 47.5 
Q 32.28125 48.484375 27.875 48.484375 
Q 21.1875 48.484375 17.84375 46.4375 
Q 14.5 44.390625 14.5 40.28125 
Q 14.5 37.15625 16.890625 35.375 
Q 19.28125 33.59375 26.515625 31.984375 
L 29.59375 31.296875 
Q 39.15625 29.25 43.1875 25.515625 
Q 47.21875 21.78125 47.21875 15.09375 
Q 47.21875 7.46875 41.1875 3.015625 
Q 35.15625 -1.421875 24.609375 -1.421875 
Q 20.21875 -1.421875 15.453125 -0.5625 
Q 10.6875 0.296875 5.421875 2 
L 5.421875 11.28125 
Q 10.40625 8.6875 15.234375 7.390625 
Q 20.0625 6.109375 24.8125 6.109375 
Q 31.15625 6.109375 34.5625 8.28125 
Q 37.984375 10.453125 37.984375 14.40625 
Q 37.984375 18.0625 35.515625 20.015625 
Q 33.0625 21.96875 24.703125 23.78125 
L 21.578125 24.515625 
Q 13.234375 26.265625 9.515625 29.90625 
Q 5.8125 33.546875 5.8125 39.890625 
Q 5.8125 47.609375 11.28125 51.796875 
Q 16.75 56 26.8125 56 
Q 31.78125 56 36.171875 55.265625 
Q 40.578125 54.546875 44.28125 53.078125 
z
" id="DejaVuSans-115"/>
      <path d="M 30.609375 48.390625 
Q 23.390625 48.390625 19.1875 42.75 
Q 14.984375 37.109375 14.984375 27.296875 
Q 14.984375 17.484375 19.15625 11.84375 
Q 23.34375 6.203125 30.609375 6.203125 
Q 37.796875 6.203125 41.984375 11.859375 
Q 46.1875 17.53125 46.1875 27.296875 
Q 46.1875 37.015625 41.984375 42.703125 
Q 37.796875 48.390625 30.609375 48.390625 
z
M 30.609375 56 
Q 42.328125 56 49.015625 48.375 
Q 55.71875 40.765625 55.71875 27.296875 
Q 55.71875 13.875 49.015625 6.21875 
Q 42.328125 -1.421875 30.609375 -1.421875 
Q 18.84375 -1.421875 12.171875 6.21875 
Q 5.515625 13.875 5.515625 27.296875 
Q 5.515625 40.765625 12.171875 48.375 
Q 18.84375 56 30.609375 56 
z
" id="DejaVuSans-111"/>
      <path d="M 54.890625 33.015625 
L 54.890625 0 
L 45.90625 0 
L 45.90625 32.71875 
Q 45.90625 40.484375 42.875 44.328125 
Q 39.84375 48.1875 33.796875 48.1875 
Q 26.515625 48.1875 22.3125 43.546875 
Q 18.109375 38.921875 18.109375 30.90625 
L 18.109375 0 
L 9.078125 0 
L 9.078125 54.6875 
L 18.109375 54.6875 
L 18.109375 46.1875 
Q 21.34375 51.125 25.703125 53.5625 
Q 30.078125 56 35.796875 56 
Q 45.21875 56 50.046875 50.171875 
Q 54.890625 44.34375 54.890625 33.015625 
z
" id="DejaVuSans-110"/>
     </defs>
     <g transform="translate(286.110938 476.836563)scale(0.1 -0.1)">
      <use xlink:href="#DejaVuSans-49"/>
      <use x="63.623047" xlink:href="#DejaVuSans-45"/>
      <use x="99.707031" xlink:href="#DejaVuSans-112"/>
      <use x="163.183594" xlink:href="#DejaVuSans-114"/>
      <use x="202.046875" xlink:href="#DejaVuSans-101"/>
      <use x="263.570312" xlink:href="#DejaVuSans-99"/>
      <use x="318.550781" xlink:href="#DejaVuSans-105"/>
      <use x="346.333984" xlink:href="#DejaVuSans-115"/>
      <use x="398.433594" xlink:href="#DejaVuSans-105"/>
      <use x="426.216797" xlink:href="#DejaVuSans-111"/>
      <use x="487.398438" xlink:href="#DejaVuSans-110"/>
     </g>
    </g>
   </g>
   <g id="matplotlib.axis_2">
    <g id="ytick_1">
     <g id="line2d_23">
      <path clip-path="url(#pe061bf827d)" d="M 76.5 448.56 
L 550.8 448.56 
" style="fill:none;stroke:#b0b0b0;stroke-linecap:square;stroke-width:0.8;"/>
     </g>
     <g id="line2d_24">
      <defs>
       <path d="M 0 0 
L -3.5 0 
" id="ma033611cfc" style="stroke:#000000;stroke-width:0.8;"/>
      </defs>
      <g>
       <use style="stroke:#000000;stroke-width:0.8;" x="76.5" xlink:href="#ma033611cfc" y="448.56"/>
      </g>
     </g>
     <g id="text_13">
      <!-- 0.0 -->
      <g transform="translate(53.596875 452.359219)scale(0.1 -0.1)">
       <use xlink:href="#DejaVuSans-48"/>
       <use x="63.623047" xlink:href="#DejaVuSans-46"/>
       <use x="95.410156" xlink:href="#DejaVuSans-48"/>
      </g>
     </g>
    </g>
    <g id="ytick_2">
     <g id="line2d_25">
      <path clip-path="url(#pe061bf827d)" d="M 76.5 409.752 
L 550.8 409.752 
" style="fill:none;stroke:#b0b0b0;stroke-linecap:square;stroke-width:0.8;"/>
     </g>
     <g id="line2d_26">
      <g>
       <use style="stroke:#000000;stroke-width:0.8;" x="76.5" xlink:href="#ma033611cfc" y="409.752"/>
      </g>
     </g>
     <g id="text_14">
      <!-- 0.1 -->
      <g transform="translate(53.596875 413.551219)scale(0.1 -0.1)">
       <use xlink:href="#DejaVuSans-48"/>
       <use x="63.623047" xlink:href="#DejaVuSans-46"/>
       <use x="95.410156" xlink:href="#DejaVuSans-49"/>
      </g>
     </g>
    </g>
    <g id="ytick_3">
     <g id="line2d_27">
      <path clip-path="url(#pe061bf827d)" d="M 76.5 370.944 
L 550.8 370.944 
" style="fill:none;stroke:#b0b0b0;stroke-linecap:square;stroke-width:0.8;"/>
     </g>
     <g id="line2d_28">
      <g>
       <use style="stroke:#000000;stroke-width:0.8;" x="76.5" xlink:href="#ma033611cfc" y="370.944"/>
      </g>
     </g>
     <g id="text_15">
      <!-- 0.2 -->
      <g transform="translate(53.596875 374.743219)scale(0.1 -0.1)">
       <use xlink:href="#DejaVuSans-48"/>
       <use x="63.623047" xlink:href="#DejaVuSans-46"/>
       <use x="95.410156" xlink:href="#DejaVuSans-50"/>
      </g>
     </g>
    </g>
    <g id="ytick_4">
     <g id="line2d_29">
      <path clip-path="url(#pe061bf827d)" d="M 76.5 332.136 
L 550.8 332.136 
" style="fill:none;stroke:#b0b0b0;stroke-linecap:square;stroke-width:0.8;"/>
     </g>
     <g id="line2d_30">
      <g>
       <use style="stroke:#000000;stroke-width:0.8;" x="76.5" xlink:href="#ma033611cfc" y="332.136"/>
      </g>
     </g>
     <g id="text_16">
      <!-- 0.3 -->
      <g transform="translate(53.596875 335.935219)scale(0.1 -0.1)">
       <use xlink:href="#DejaVuSans-48"/>
       <use x="63.623047" xlink:href="#DejaVuSans-46"/>
       <use x="95.410156" xlink:href="#DejaVuSans-51"/>
      </g>
     </g>
    </g>
    <g id="ytick_5">
     <g id="line2d_31">
      <path clip-path="url(#pe061bf827d)" d="M 76.5 293.328 
L 550.8 293.328 
" style="fill:none;stroke:#b0b0b0;stroke-linecap:square;stroke-width:0.8;"/>
     </g>
     <g id="line2d_32">
      <g>
       <use style="stroke:#000000;stroke-width:0.8;" x="76.5" xlink:href="#ma033611cfc" y="293.328"/>
      </g>
     </g>
     <g id="text_17">
      <!-- 0.4 -->
      <g transform="translate(53.596875 297.127219)scale(0.1 -0.1)">
       <use xlink:href="#DejaVuSans-48"/>
       <use x="63.623047" xlink:href="#DejaVuSans-46"/>
       <use x="95.410156" xlink:href="#DejaVuSans-52"/>
      </g>
     </g>
    </g>
    <g id="ytick_6">
     <g id="line2d_33">
      <path clip-path="url(#pe061bf827d)" d="M 76.5 254.52 
L 550.8 254.52 
" style="fill:none;stroke:#b0b0b0;stroke-linecap:square;stroke-width:0.8;"/>
     </g>
     <g id="line2d_34">
      <g>
       <use style="stroke:#000000;stroke-width:0.8;" x="76.5" xlink:href="#ma033611cfc" y="254.52"/>
      </g>
     </g>
     <g id="text_18">
      <!-- 0.5 -->
      <g transform="translate(53.596875 258.319219)scale(0.1 -0.1)">
       <use xlink:href="#DejaVuSans-48"/>
       <use x="63.623047" xlink:href="#DejaVuSans-46"/>
       <use x="95.410156" xlink:href="#DejaVuSans-53"/>
      </g>
     </g>
    </g>
    <g id="ytick_7">
     <g id="line2d_35">
      <path clip-path="url(#pe061bf827d)" d="M 76.5 215.712 
L 550.8 215.712 
" style="fill:none;stroke:#b0b0b0;stroke-linecap:square;stroke-width:0.8;"/>
     </g>
     <g id="line2d_36">
      <g>
       <use style="stroke:#000000;stroke-width:0.8;" x="76.5" xlink:href="#ma033611cfc" y="215.712"/>
      </g>
     </g>
     <g id="text_19">
      <!-- 0.6 -->
      <g transform="translate(53.596875 219.511219)scale(0.1 -0.1)">
       <use xlink:href="#DejaVuSans-48"/>
       <use x="63.623047" xlink:href="#DejaVuSans-46"/>
       <use x="95.410156" xlink:href="#DejaVuSans-54"/>
      </g>
     </g>
    </g>
    <g id="ytick_8">
     <g id="line2d_37">
      <path clip-path="url(#pe061bf827d)" d="M 76.5 176.904 
L 550.8 176.904 
" style="fill:none;stroke:#b0b0b0;stroke-linecap:square;stroke-width:0.8;"/>
     </g>
     <g id="line2d_38">
      <g>
       <use style="stroke:#000000;stroke-width:0.8;" x="76.5" xlink:href="#ma033611cfc" y="176.904"/>
      </g>
     </g>
     <g id="text_20">
      <!-- 0.7 -->
      <g transform="translate(53.596875 180.703219)scale(0.1 -0.1)">
       <use xlink:href="#DejaVuSans-48"/>
       <use x="63.623047" xlink:href="#DejaVuSans-46"/>
       <use x="95.410156" xlink:href="#DejaVuSans-55"/>
      </g>
     </g>
    </g>
    <g id="ytick_9">
     <g id="line2d_39">
      <path clip-path="url(#pe061bf827d)" d="M 76.5 138.096 
L 550.8 138.096 
" style="fill:none;stroke:#b0b0b0;stroke-linecap:square;stroke-width:0.8;"/>
     </g>
     <g id="line2d_40">
      <g>
       <use style="stroke:#000000;stroke-width:0.8;" x="76.5" xlink:href="#ma033611cfc" y="138.096"/>
      </g>
     </g>
     <g id="text_21">
      <!-- 0.8 -->
      <g transform="translate(53.596875 141.895219)scale(0.1 -0.1)">
       <use xlink:href="#DejaVuSans-48"/>
       <use x="63.623047" xlink:href="#DejaVuSans-46"/>
       <use x="95.410156" xlink:href="#DejaVuSans-56"/>
      </g>
     </g>
    </g>
    <g id="ytick_10">
     <g id="line2d_41">
      <path clip-path="url(#pe061bf827d)" d="M 76.5 99.288 
L 550.8 99.288 
" style="fill:none;stroke:#b0b0b0;stroke-linecap:square;stroke-width:0.8;"/>
     </g>
     <g id="line2d_42">
      <g>
       <use style="stroke:#000000;stroke-width:0.8;" x="76.5" xlink:href="#ma033611cfc" y="99.288"/>
      </g>
     </g>
     <g id="text_22">
      <!-- 0.9 -->
      <g transform="translate(53.596875 103.087219)scale(0.1 -0.1)">
       <use xlink:href="#DejaVuSans-48"/>
       <use x="63.623047" xlink:href="#DejaVuSans-46"/>
       <use x="95.410156" xlink:href="#DejaVuSans-57"/>
      </g>
     </g>
    </g>
    <g id="ytick_11">
     <g id="line2d_43">
      <path clip-path="url(#pe061bf827d)" d="M 76.5 60.48 
L 550.8 60.48 
" style="fill:none;stroke:#b0b0b0;stroke-linecap:square;stroke-width:0.8;"/>
     </g>
     <g id="line2d_44">
      <g>
       <use style="stroke:#000000;stroke-width:0.8;" x="76.5" xlink:href="#ma033611cfc" y="60.48"/>
      </g>
     </g>
     <g id="text_23">
      <!-- 1.0 -->
      <g transform="translate(53.596875 64.279219)scale(0.1 -0.1)">
       <use xlink:href="#DejaVuSans-49"/>
       <use x="63.623047" xlink:href="#DejaVuSans-46"/>
       <use x="95.410156" xlink:href="#DejaVuSans-48"/>
      </g>
     </g>
    </g>
    <g id="text_24">
     <!-- #correct/1154 -->
     <defs>
      <path d="M 51.125 44 
L 36.921875 44 
L 32.8125 27.6875 
L 47.125 27.6875 
z
M 43.796875 71.78125 
L 38.71875 51.515625 
L 52.984375 51.515625 
L 58.109375 71.78125 
L 65.921875 71.78125 
L 60.890625 51.515625 
L 76.125 51.515625 
L 76.125 44 
L 58.984375 44 
L 54.984375 27.6875 
L 70.515625 27.6875 
L 70.515625 20.21875 
L 53.078125 20.21875 
L 48 0 
L 40.1875 0 
L 45.21875 20.21875 
L 30.90625 20.21875 
L 25.875 0 
L 18.015625 0 
L 23.09375 20.21875 
L 7.71875 20.21875 
L 7.71875 27.6875 
L 24.90625 27.6875 
L 29 44 
L 13.28125 44 
L 13.28125 51.515625 
L 30.90625 51.515625 
L 35.890625 71.78125 
z
" id="DejaVuSans-35"/>
      <path d="M 18.3125 70.21875 
L 18.3125 54.6875 
L 36.8125 54.6875 
L 36.8125 47.703125 
L 18.3125 47.703125 
L 18.3125 18.015625 
Q 18.3125 11.328125 20.140625 9.421875 
Q 21.96875 7.515625 27.59375 7.515625 
L 36.8125 7.515625 
L 36.8125 0 
L 27.59375 0 
Q 17.1875 0 13.234375 3.875 
Q 9.28125 7.765625 9.28125 18.015625 
L 9.28125 47.703125 
L 2.6875 47.703125 
L 2.6875 54.6875 
L 9.28125 54.6875 
L 9.28125 70.21875 
z
" id="DejaVuSans-116"/>
      <path d="M 25.390625 72.90625 
L 33.6875 72.90625 
L 8.296875 -9.28125 
L 0 -9.28125 
z
" id="DejaVuSans-47"/>
     </defs>
     <g transform="translate(47.517187 290.624688)rotate(-90)scale(0.1 -0.1)">
      <use xlink:href="#DejaVuSans-35"/>
      <use x="83.789062" xlink:href="#DejaVuSans-99"/>
      <use x="138.769531" xlink:href="#DejaVuSans-111"/>
      <use x="199.951172" xlink:href="#DejaVuSans-114"/>
      <use x="239.314453" xlink:href="#DejaVuSans-114"/>
      <use x="278.177734" xlink:href="#DejaVuSans-101"/>
      <use x="339.701172" xlink:href="#DejaVuSans-99"/>
      <use x="394.681641" xlink:href="#DejaVuSans-116"/>
      <use x="433.890625" xlink:href="#DejaVuSans-47"/>
      <use x="467.582031" xlink:href="#DejaVuSans-49"/>
      <use x="531.205078" xlink:href="#DejaVuSans-49"/>
      <use x="594.828125" xlink:href="#DejaVuSans-53"/>
      <use x="658.451172" xlink:href="#DejaVuSans-52"/>
     </g>
    </g>
   </g>
   <g id="line2d_45">
    <path clip-path="url(#pe061bf827d)" d="M 76.5 448.223709 
L 76.5 415.267175 
L 81.243 415.267175 
L 80.553846 409.550225 
L 79.936957 402.488111 
L 79.662 398.452617 
L 82.782119 398.452617 
L 82.214458 393.40825 
L 85.020359 393.40825 
L 84.677586 391.054211 
L 87.341143 391.054211 
L 86.279381 384.664679 
L 85.283333 377.266274 
L 84.821053 373.23078 
L 86.855895 373.23078 
L 86.721983 372.221906 
L 88.713734 372.221906 
L 88.211111 368.858995 
L 90.106967 368.858995 
L 89.996341 368.186412 
L 91.861943 368.186412 
L 90.605576 360.788007 
L 89.406122 352.380728 
L 88.981579 349.017816 
L 90.495738 349.017816 
L 90.40456 348.345234 
L 93.384466 348.345234 
L 93.33 348.008943 
L 94.800965 348.008943 
L 93.439286 339.601664 
L 93.289381 338.59279 
L 94.635 338.59279 
L 93.255163 329.176638 
L 91.953383 318.751612 
L 91.6125 315.724991 
L 92.735208 315.724991 
L 92.31 312.025789 
L 93.39905 312.025789 
L 92.817661 306.981421 
L 93.865675 306.981421 
L 93.326608 302.273345 
L 94.338717 302.273345 
L 92.988957 289.830572 
L 92.248242 282.095875 
L 93.142105 282.095875 
L 92.981467 280.414419 
L 93.863584 280.414419 
L 93.004945 271.334558 
L 93.841865 271.334558 
L 93.778689 270.661976 
L 94.609636 270.661976 
L 93.584563 259.564367 
L 94.367466 259.564367 
L 93.833223 253.511127 
L 94.591045 253.511127 
L 94.151942 248.466759 
L 94.889661 248.466759 
L 94.539937 244.431265 
L 95.261867 244.431265 
L 94.826893 239.386898 
L 95.530556 239.386898 
L 95.1 234.34253 
L 95.786295 234.34253 
L 95.670808 232.997366 
L 96.351121 232.997366 
L 96.116544 230.307036 
L 96.787168 230.307036 
L 96.638653 228.625581 
L 97.302632 228.625581 
L 97.272263 228.289289 
L 97.933382 228.289289 
L 97.747543 226.271542 
L 98.401299 226.271542 
L 97.96761 221.563466 
L 98.607203 221.563466 
L 98.299304 218.200555 
L 98.928651 218.200555 
L 98.743034 216.182808 
L 99.986657 216.182808 
L 99.922222 215.510225 
L 100.539863 215.510225 
L 100.408856 214.165061 
L 101.021633 214.165061 
L 100.855946 212.483605 
L 101.463158 212.483605 
L 100.648433 204.076326 
L 101.235332 204.076326 
L 101.203125 203.740035 
L 101.787776 203.740035 
L 101.722179 203.067452 
L 102.884088 203.067452 
L 102.680873 201.049705 
L 103.255385 201.049705 
L 103.221127 200.713414 
L 104.933801 200.713414 
L 104.157692 193.315009 
L 105.263243 193.315009 
L 105.192222 192.642426 
L 105.741677 192.642426 
L 105.633907 191.633553 
L 106.180123 191.633553 
L 105.643735 186.589185 
L 106.179422 186.589185 
L 106.037246 185.244021 
L 106.569258 185.244021 
L 106.319573 182.889983 
L 107.371598 182.889983 
L 107.335106 182.553692 
L 108.381014 182.553692 
L 108.194138 180.872236 
L 109.229474 180.872236 
L 109.153092 180.199653 
L 109.667832 180.199653 
L 109.552265 179.19078 
L 110.064153 179.19078 
L 109.870588 177.509324 
L 110.378571 177.509324 
L 110.145995 175.491577 
L 110.6496 175.491577 
L 110.417026 173.47383 
L 111.911538 173.47383 
L 111.752027 172.128666 
L 112.245894 172.128666 
L 112.165657 171.456083 
L 113.14804 171.456083 
L 113.025335 170.44721 
L 113.513378 170.44721 
L 113.186188 167.75688 
L 113.669205 167.75688 
L 113.384228 165.402842 
L 113.862801 165.402842 
L 113.740567 164.393969 
L 114.216667 164.393969 
L 114.134674 163.721386 
L 114.608795 163.721386 
L 114.403024 162.039931 
L 114.873786 162.039931 
L 114.832435 161.70364 
L 115.77 161.70364 
L 115.68573 161.031057 
L 116.15209 161.031057 
L 115.940725 159.349601 
L 116.403834 159.349601 
L 116.234571 158.004437 
L 118.070116 158.004437 
L 117.982508 157.331854 
L 118.438105 157.331854 
L 118.35 156.659272 
L 118.803778 156.659272 
L 118.759434 156.322981 
L 120.113793 156.322981 
L 120.068267 155.98669 
L 120.517414 155.98669 
L 120.471563 155.650399 
L 121.81215 155.650399 
L 121.346454 152.287487 
L 121.787372 152.287487 
L 121.740923 151.951196 
L 122.180533 151.951196 
L 122.133777 151.614905 
L 122.572086 151.614905 
L 122.525026 151.278614 
L 123.398165 151.278614 
L 123.255183 150.26974 
L 123.689239 150.26974 
L 123.641379 149.933449 
L 124.074164 149.933449 
L 123.882139 148.588284 
L 124.3125 148.588284 
L 124.216298 147.915702 
L 124.645025 147.915702 
L 124.596687 147.579411 
L 125.024173 147.579411 
L 124.975551 147.24312 
L 125.8272 147.24312 
L 125.728743 146.570537 
L 126.575498 146.570537 
L 126.525672 146.234246 
L 126.947416 146.234246 
L 126.847321 145.561664 
L 128.105341 145.561664 
L 128.054348 145.225373 
L 129.303842 145.225373 
L 129.25187 144.889081 
L 131.726712 144.889081 
L 131.672727 144.55279 
L 132.082031 144.55279 
L 132.027805 144.216499 
L 132.435965 144.216499 
L 132.32714 143.543917 
L 133.544811 143.543917 
L 133.489535 143.207626 
L 133.893514 143.207626 
L 133.838008 142.871334 
L 134.24087 142.871334 
L 134.185135 142.535043 
L 134.987861 142.535043 
L 134.931569 142.198752 
L 135.331442 142.198752 
L 135.162224 141.189879 
L 135.957703 141.189879 
L 135.7875 140.181005 
L 136.578 140.181005 
L 136.520837 139.844714 
L 137.307692 139.844714 
L 137.25 139.508423 
L 138.033239 139.508423 
L 137.975024 139.172132 
L 138.365217 139.172132 
L 138.248491 138.499549 
L 139.412794 138.499549 
L 139.176945 137.154385 
L 139.56236 137.154385 
L 139.503368 136.818094 
L 139.887757 136.818094 
L 139.710531 135.80922 
L 140.475349 135.80922 
L 140.415892 135.472929 
L 141.177273 135.472929 
L 141.117331 135.136638 
L 141.496667 135.136638 
L 141.43654 134.800347 
L 141.81488 134.800347 
L 141.574309 133.455182 
L 141.950782 133.455182 
L 141.770642 132.446308 
L 144.009854 132.446308 
L 143.948314 132.110017 
L 144.318852 132.110017 
L 144.257143 131.773726 
L 146.09837 131.773726 
L 145.909756 130.764853 
L 147.730306 130.764853 
L 147.666307 130.428562 
L 149.827882 130.428562 
L 149.762411 130.09227 
L 150.120161 130.09227 
L 150.054545 129.755979 
L 150.767616 129.755979 
L 150.7016 129.419688 
L 151.765691 129.419688 
L 151.632478 128.747106 
L 151.985411 128.747106 
L 151.918728 128.410815 
L 152.622222 128.410815 
L 152.555154 128.074523 
L 152.905722 128.074523 
L 152.838522 127.738232 
L 153.188225 127.738232 
L 153.120896 127.401941 
L 153.469737 127.401941 
L 153.402279 127.06565 
L 153.750263 127.06565 
L 153.682677 126.729359 
L 154.722251 126.729359 
L 154.585976 126.056776 
L 154.930809 126.056776 
L 154.726562 125.047903 
L 155.070078 125.047903 
L 155.001993 124.711612 
L 156.369171 124.711612 
L 156.300259 124.375321 
L 156.640345 124.375321 
L 156.50241 123.702738 
L 157.517768 123.702738 
L 157.448285 123.366447 
L 158.121832 123.366447 
L 158.05201 123.030156 
L 158.722801 123.030156 
L 158.582609 122.357574 
L 160.578626 122.357574 
L 160.507373 122.021282 
L 161.167766 122.021282 
L 161.096196 121.684991 
L 161.425338 121.684991 
L 161.353671 121.3487 
L 161.68204 121.3487 
L 161.610278 121.012409 
L 162.264929 121.012409 
L 162.192857 120.676118 
L 164.142391 120.676118 
L 164.069173 120.339827 
L 164.391987 120.339827 
L 164.318682 120.003536 
L 165.603741 120.003536 
L 165.529734 119.667244 
L 165.849461 119.667244 
L 165.701408 118.994662 
L 166.020199 118.994662 
L 165.946154 118.658371 
L 166.264215 118.658371 
L 166.190091 118.32208 
L 166.824237 118.32208 
L 166.749835 117.985789 
L 167.065926 117.985789 
L 166.768745 116.640624 
L 167.711538 116.640624 
L 167.636958 116.304333 
L 167.95 116.304333 
L 167.652117 114.959168 
L 170.439774 114.959168 
L 170.288136 114.286586 
L 170.90137 114.286586 
L 170.825362 113.950295 
L 171.131054 113.950295 
L 171.054984 113.614003 
L 171.36 113.614003 
L 171.207859 112.941421 
L 172.421583 112.941421 
L 172.344968 112.60513 
L 174.15 112.60513 
L 174.072438 112.268839 
L 174.967987 112.268839 
L 174.890024 111.932548 
L 176.372319 111.932548 
L 176.293617 111.596256 
L 176.882927 111.596256 
L 176.804009 111.259965 
L 177.684 111.259965 
L 177.604702 110.923674 
L 178.188732 110.923674 
L 178.109226 110.587383 
L 178.400391 110.587383 
L 178.16212 109.57851 
L 179.32028 109.57851 
L 179.24045 109.242218 
L 180.963292 109.242218 
L 180.721665 108.233345 
L 181.291455 108.233345 
L 181.210846 107.897054 
L 182.344555 107.897054 
L 182.263448 107.560763 
L 183.108716 107.560763 
L 183.027273 107.224471 
L 183.58833 107.224471 
L 183.343836 106.215598 
L 184.459029 106.215598 
L 184.37718 105.879307 
L 184.654773 105.879307 
L 184.572899 105.543016 
L 185.402719 105.543016 
L 185.320528 105.206724 
L 186.14616 105.206724 
L 186.063657 104.870433 
L 186.337895 104.870433 
L 186.255372 104.534142 
L 186.529054 104.534142 
L 186.446512 104.197851 
L 186.71964 104.197851 
L 186.637079 103.86156 
L 187.181825 103.86156 
L 186.93403 102.852686 
L 190.696307 102.852686 
L 190.61203 102.516395 
L 191.142889 102.516395 
L 190.974172 101.843813 
L 191.23875 101.843813 
L 190.902273 100.498648 
L 191.954605 100.498648 
L 191.87027 100.162357 
L 192.655102 100.162357 
L 192.570503 99.826066 
L 194.387609 99.826066 
L 194.302245 99.489775 
L 194.817787 99.489775 
L 194.732298 99.153484 
L 195.502451 99.153484 
L 195.416715 98.817192 
L 196.437931 98.817192 
L 196.351831 98.480901 
L 198.124071 98.480901 
L 198.037259 98.14461 
L 201.774153 98.14461 
L 201.685745 97.808319 
L 202.668473 97.808319 
L 202.579747 97.472028 
L 203.79986 97.472028 
L 203.710714 97.135737 
L 204.196154 97.135737 
L 204.017807 96.463154 
L 204.501464 96.463154 
L 204.412265 96.126863 
L 204.894363 96.126863 
L 204.805076 95.790572 
L 206.242729 95.790572 
L 206.152941 95.454281 
L 207.578084 95.454281 
L 207.39766 94.781698 
L 211.830163 94.781698 
L 211.738289 94.445407 
L 212.885318 94.445407 
L 212.793103 94.109116 
L 213.477328 94.109116 
L 213.384963 93.772825 
L 214.51875 93.772825 
L 214.426058 93.436534 
L 216.446996 93.436534 
L 216.353636 93.100243 
L 219.667173 93.100243 
L 219.572673 92.763951 
L 219.791161 92.763951 
L 219.696704 92.42766 
L 220.784428 92.42766 
L 220.689691 92.091369 
L 222.414631 92.091369 
L 222.319386 91.755078 
L 227.177942 91.755078 
L 227.081105 91.418787 
L 229.763289 91.418787 
L 229.665669 91.082496 
L 231.293726 91.082496 
L 231.195693 90.746205 
L 232.204545 90.746205 
L 232.106309 90.409913 
L 232.708375 90.409913 
L 232.610069 90.073622 
L 233.40904 90.073622 
L 233.310602 89.737331 
L 236.855769 89.737331 
L 236.756355 89.40104 
L 238.113333 89.40104 
L 237.914057 88.728458 
L 238.875599 88.728458 
L 238.77586 88.392166 
L 239.349785 88.392166 
L 239.25 88.055875 
L 240.201588 88.055875 
L 240.101648 87.719584 
L 241.235584 87.719584 
L 241.135441 87.383293 
L 244.302888 87.383293 
L 244.201984 87.047002 
L 246.216667 87.047002 
L 246.115343 86.710711 
L 247.202855 86.710711 
L 247.101367 86.374419 
L 249.608314 86.374419 
L 249.506305 86.038128 
L 252.494632 86.038128 
L 252.392012 85.701837 
L 255.831873 85.701837 
L 255.728571 85.365546 
L 261.233013 85.365546 
L 261.128644 85.029255 
L 262.756011 85.029255 
L 262.651432 84.692964 
L 262.813131 84.692964 
L 262.708637 84.356672 
L 265.904326 84.356672 
L 265.799335 84.020381 
L 275.26881 84.020381 
L 275.162346 83.68409 
L 296.417647 83.68409 
L 296.308992 83.347799 
L 305.16824 83.347799 
L 305.059247 83.011508 
L 308.29572 83.011508 
L 308.186742 82.675217 
L 308.300752 82.675217 
L 314.95064 82.675217 
L 314.841709 82.338925 
L 314.949452 82.338925 
L 321.544474 82.338925 
L 321.435759 82.002634 
L 321.537472 82.002634 
L 322.04469 82.002634 
L 321.93609 81.666343 
L 322.037268 81.666343 
L 345.131757 81.666343 
L 345.02503 81.330052 
L 345.106751 81.330052 
L 381.54 81.330052 
L 381.54 81.330052 
" style="fill:none;stroke:#1f77b4;stroke-linecap:square;stroke-width:2;"/>
   </g>
   <g id="line2d_46">
    <path clip-path="url(#pe061bf827d)" d="M 76.5 448.223709 
L 76.5 404.842149 
L 80.120611 404.842149 
L 79.683221 398.788908 
L 82.824 398.788908 
L 82.740789 398.116326 
L 85.8 398.116326 
L 84.821053 392.063085 
L 83.910938 385.000971 
L 83.057143 376.593692 
L 82.260729 366.504957 
L 82.015116 362.805754 
L 83.825097 362.805754 
L 83.500738 358.77026 
L 85.21875 358.77026 
L 84.879859 355.071057 
L 86.520423 355.071057 
L 86.38125 353.725893 
L 87.988235 353.725893 
L 86.907837 343.637158 
L 86.440419 338.59279 
L 87.826567 338.59279 
L 87.726036 337.583917 
L 89.092035 337.583917 
L 88.626989 333.212132 
L 89.936261 333.212132 
L 89.353659 327.831473 
L 90.600811 327.831473 
L 89.775573 320.096776 
L 90.945685 320.096776 
L 90.909114 319.760485 
L 92.070455 319.760485 
L 90.806032 307.990295 
L 89.591083 294.538648 
L 89.535729 293.866066 
L 90.508861 293.866066 
L 90.45 293.193484 
L 91.415094 293.193484 
L 91.04908 289.15799 
L 91.987347 289.15799 
L 91.292982 281.423293 
L 92.186965 281.423293 
L 92.095938 280.414419 
L 92.981467 280.414419 
L 92.638752 276.715217 
L 93.503208 276.715217 
L 93.439286 276.042634 
L 95.152247 276.042634 
L 94.642623 270.998267 
L 95.472 270.998267 
L 95.335018 269.653102 
L 96.155676 269.653102 
L 95.773675 265.953899 
L 96.57619 265.953899 
L 96.194118 262.254697 
L 96.979275 262.254697 
L 96.769231 260.23695 
L 97.544027 260.23695 
L 97.401356 258.891785 
L 98.168528 258.891785 
L 98.131926 258.555494 
L 98.895278 258.555494 
L 98.560465 255.528873 
L 99.310448 255.528873 
L 99.122862 253.847418 
L 99.864532 253.847418 
L 99.487076 250.484506 
L 100.215 250.484506 
L 98.913567 238.378024 
L 99.60137 238.378024 
L 99.531259 237.705442 
L 100.215 237.705442 
L 99.756909 233.333657 
L 101.093333 233.333657 
L 100.489162 227.616707 
L 101.138961 227.616707 
L 101.103458 227.280416 
L 101.750504 227.280416 
L 101.714224 226.944125 
L 103.001003 226.944125 
L 102.479916 222.236049 
L 103.735714 222.236049 
L 103.50875 220.218302 
L 104.747784 220.218302 
L 104.592149 218.873137 
L 105.205915 218.873137 
L 105.087945 217.864263 
L 106.305738 217.864263 
L 106.265075 217.527972 
L 106.870708 217.527972 
L 106.829388 217.191681 
L 108.034193 217.191681 
L 107.863968 215.846516 
L 108.460916 215.846516 
L 107.827609 210.802149 
L 108.994862 210.802149 
L 108.909461 210.129567 
L 109.48937 210.129567 
L 109.40301 209.456984 
L 109.98 209.456984 
L 109.336154 204.412617 
L 109.901408 204.412617 
L 109.816092 203.740035 
L 110.378571 203.740035 
L 110.206599 202.39487 
L 110.765019 202.39487 
L 110.721646 202.058579 
L 111.278003 202.058579 
L 111.103019 200.713414 
L 111.655402 200.713414 
L 111.523404 199.704541 
L 112.0725 199.704541 
L 111.939601 198.695667 
L 112.485448 198.695667 
L 112.440745 198.359376 
L 113.527138 198.359376 
L 113.481312 198.023085 
L 115.099014 198.023085 
L 114.260917 191.969844 
L 115.311552 191.969844 
L 114.987351 189.615806 
L 116.541974 189.615806 
L 116.494418 189.279515 
L 117.009609 189.279515 
L 116.961611 188.943224 
L 117.47503 188.943224 
L 117.426596 188.606932 
L 117.938253 188.606932 
L 117.69507 186.925477 
L 118.709368 186.925477 
L 118.66 186.589185 
L 119.668495 186.589185 
L 119.567986 185.916603 
L 120.069419 185.916603 
L 119.867708 184.571438 
L 120.365896 184.571438 
L 120.315242 184.235147 
L 120.811765 184.235147 
L 120.709781 183.562565 
L 121.697359 183.562565 
L 121.337016 181.208527 
L 122.313068 181.208527 
L 122.209184 180.535945 
L 122.694564 180.535945 
L 122.642308 180.199653 
L 123.126102 180.199653 
L 123.073476 179.863362 
L 123.555693 179.863362 
L 123.449831 179.19078 
L 123.93 179.19078 
L 123.665028 177.509324 
L 124.141741 177.509324 
L 123.982759 176.500451 
L 124.457 176.500451 
L 124.403774 176.164159 
L 124.876497 176.164159 
L 124.50396 173.810121 
L 127.761681 173.810121 
L 127.428091 171.792374 
L 127.886782 171.792374 
L 127.720302 170.783501 
L 128.632112 170.783501 
L 128.464125 169.774627 
L 128.917275 169.774627 
L 128.805032 169.102045 
L 129.256364 169.102045 
L 129.087633 168.093172 
L 129.536741 168.093172 
L 129.480319 167.75688 
L 130.374841 167.75688 
L 130.20381 166.748007 
L 130.648414 166.748007 
L 130.534177 166.075425 
L 130.977028 166.075425 
L 130.805357 165.066551 
L 131.246065 165.066551 
L 131.074268 164.057678 
L 131.512853 164.057678 
L 131.398123 163.385095 
L 132.270968 163.385095 
L 132.097407 162.376222 
L 132.531295 162.376222 
L 132.473292 162.039931 
L 134.198351 162.039931 
L 133.961396 160.694766 
L 134.388923 160.694766 
L 134.21135 159.685893 
L 134.636874 159.685893 
L 134.518349 159.01331 
L 135.7875 159.01331 
L 135.72731 158.677019 
L 136.148276 158.677019 
L 136.087842 158.340728 
L 136.507591 158.340728 
L 136.446916 158.004437 
L 137.283148 158.004437 
L 137.160725 157.331854 
L 137.576861 157.331854 
L 137.393079 156.322981 
L 137.807315 156.322981 
L 137.745946 155.98669 
L 138.159 155.98669 
L 138.035928 155.314107 
L 138.447458 155.314107 
L 138.20139 153.968943 
L 138.610714 153.968943 
L 138.426409 152.960069 
L 138.833893 152.960069 
L 138.710947 152.287487 
L 139.116946 152.287487 
L 138.993805 151.614905 
L 139.802061 151.614905 
L 139.74 151.278614 
L 140.544423 151.278614 
L 140.481818 150.942322 
L 140.88252 150.942322 
L 140.757018 150.26974 
L 141.15628 150.26974 
L 141.030612 149.597158 
L 141.428447 149.597158 
L 141.302616 148.924575 
L 142.094681 148.924575 
L 141.96805 148.251993 
L 142.362295 148.251993 
L 142.235515 147.579411 
L 143.020461 147.579411 
L 142.892905 146.906828 
L 144.062811 146.906828 
L 143.998281 146.570537 
L 145.546527 146.570537 
L 145.415385 145.897955 
L 145.8 145.897955 
L 145.407736 143.880208 
L 145.789821 143.880208 
L 145.659454 143.207626 
L 146.799625 143.207626 
L 146.733739 142.871334 
L 147.112079 142.871334 
L 147.046024 142.535043 
L 148.551165 142.535043 
L 148.417116 141.862461 
L 149.164345 141.862461 
L 149.029657 141.189879 
L 149.401667 141.189879 
L 149.334228 140.853588 
L 150.075623 140.853588 
L 150.007749 140.517296 
L 151.113891 140.517296 
L 151.045313 140.181005 
L 152.874016 140.181005 
L 152.804205 139.844714 
L 153.167671 139.844714 
L 153.097719 139.508423 
L 153.460255 139.508423 
L 153.390164 139.172132 
L 153.751774 139.172132 
L 153.611444 138.499549 
L 153.971869 138.499549 
L 153.831522 137.826967 
L 154.907317 137.826967 
L 154.836552 137.490676 
L 155.55 137.490676 
L 155.478848 137.154385 
L 156.189218 137.154385 
L 156.117684 136.818094 
L 158.582248 136.818094 
L 158.436064 136.145511 
L 159.1336 136.145511 
L 159.060213 135.80922 
L 160.101151 135.80922 
L 160.027168 135.472929 
L 160.372679 135.472929 
L 160.298587 135.136638 
L 160.643248 135.136638 
L 160.569048 134.800347 
L 160.912863 134.800347 
L 160.838556 134.464055 
L 161.523902 134.464055 
L 161.449254 134.127764 
L 161.790789 134.127764 
L 161.716039 133.791473 
L 162.056743 133.791473 
L 161.98189 133.455182 
L 162.999738 133.455182 
L 162.924324 133.118891 
L 163.599478 133.118891 
L 163.448132 132.446308 
L 163.784375 132.446308 
L 163.708673 132.110017 
L 164.044107 132.110017 
L 163.968312 131.773726 
L 165.63569 131.773726 
L 165.558915 131.437435 
L 166.22141 131.437435 
L 166.14433 131.101144 
L 166.804117 131.101144 
L 166.726735 130.764853 
L 167.383832 130.764853 
L 167.306154 130.428562 
L 167.633646 130.428562 
L 167.555887 130.09227 
L 167.882609 130.09227 
L 167.80477 129.755979 
L 168.456122 129.755979 
L 168.377995 129.419688 
L 168.702632 129.419688 
L 168.546356 128.747106 
L 169.193147 128.747106 
L 169.114793 128.410815 
L 169.758987 128.410815 
L 169.680354 128.074523 
L 170.32197 128.074523 
L 170.243061 127.738232 
L 170.562857 127.738232 
L 170.483879 127.401941 
L 170.802936 127.401941 
L 170.723889 127.06565 
L 173.883292 127.06565 
L 173.72166 126.393068 
L 174.658113 126.393068 
L 174.576923 126.056776 
L 174.887851 126.056776 
L 174.806606 125.720485 
L 175.116832 125.720485 
L 174.954366 125.047903 
L 176.18867 125.047903 
L 176.025246 124.375321 
L 176.638625 124.375321 
L 176.393388 123.366447 
L 177.003667 123.366447 
L 176.921824 123.030156 
L 177.832981 123.030156 
L 177.750731 122.693865 
L 178.355348 122.693865 
L 178.190534 122.021282 
L 178.491754 122.021282 
L 178.40937 121.684991 
L 178.709927 121.684991 
L 178.545205 121.012409 
L 178.844928 121.012409 
L 178.762591 120.676118 
L 180.846 120.676118 
L 180.76259 120.339827 
L 181.058147 120.339827 
L 180.974701 120.003536 
L 184.482925 120.003536 
L 184.39763 119.667244 
L 185.551654 119.667244 
L 185.465854 119.330953 
L 186.039827 119.330953 
L 185.868 118.658371 
L 187.009304 118.658371 
L 186.836768 117.985789 
L 187.120671 117.985789 
L 187.034451 117.649497 
L 187.600623 117.649497 
L 187.427972 116.976915 
L 189.114153 116.976915 
L 189.027125 116.640624 
L 189.585417 116.640624 
L 189.498227 116.304333 
L 190.885714 116.304333 
L 190.797928 115.968042 
L 191.899694 115.968042 
L 191.811468 115.63175 
L 193.450685 115.63175 
L 193.361749 115.295459 
L 195.254387 115.295459 
L 195.075 114.622877 
L 198.533807 114.622877 
L 198.351531 113.950295 
L 200.444766 113.950295 
L 200.352819 113.614003 
L 202.420354 113.614003 
L 202.327561 113.277712 
L 203.861555 113.277712 
L 203.581845 112.268839 
L 204.089474 112.268839 
L 203.996275 111.932548 
L 204.249416 111.932548 
L 204.063192 111.259965 
L 205.823278 111.259965 
L 205.729565 110.923674 
L 206.478091 110.923674 
L 206.384176 110.587383 
L 207.376729 110.587383 
L 207.282505 110.251092 
L 207.52964 110.251092 
L 207.435442 109.914801 
L 208.42 109.914801 
L 208.325501 109.57851 
L 209.547752 109.57851 
L 209.35809 108.905927 
L 210.570597 108.905927 
L 210.475444 108.569636 
L 212.873784 108.569636 
L 212.777746 108.233345 
L 213.490372 108.233345 
L 213.394171 107.897054 
L 215.27912 107.897054 
L 215.085565 107.224471 
L 215.553134 107.224471 
L 215.359736 106.551889 
L 217.676312 106.551889 
L 217.578882 106.215598 
L 221.442974 106.215598 
L 221.344172 105.879307 
L 221.568597 105.879307 
L 221.469843 105.543016 
L 223.031707 105.543016 
L 222.932498 105.206724 
L 223.15433 105.206724 
L 223.055172 104.870433 
L 223.497772 104.870433 
L 223.398583 104.534142 
L 224.937743 104.534142 
L 224.838121 104.197851 
L 227.0112 104.197851 
L 226.810786 103.525269 
L 227.241622 103.525269 
L 227.141462 103.188977 
L 231.386164 103.188977 
L 231.284666 102.852686 
L 234.189351 102.852686 
L 234.087021 102.516395 
L 235.519186 102.516395 
L 235.416527 102.180104 
L 236.431274 102.180104 
L 236.328424 101.843813 
L 237.938004 101.843813 
L 237.834783 101.507522 
L 238.43395 101.507522 
L 238.330676 101.171231 
L 242.654151 101.171231 
L 242.549717 100.834939 
L 242.743342 100.834939 
L 242.638983 100.498648 
L 244.370225 100.498648 
L 244.265502 100.162357 
L 244.838107 100.162357 
L 244.733354 99.826066 
L 245.113797 99.826066 
L 245.009068 99.489775 
L 248.946291 99.489775 
L 248.840625 99.153484 
L 251.044708 99.153484 
L 250.938602 98.817192 
L 252.750453 98.817192 
L 252.644022 98.480901 
L 252.823959 98.480901 
L 252.717612 98.14461 
L 255.390197 98.14461 
L 255.283333 97.808319 
L 256.51392 97.808319 
L 256.3 97.135737 
L 256.998281 97.135737 
L 256.891351 96.799445 
L 260.332904 96.799445 
L 260.225336 96.463154 
L 261.410664 96.463154 
L 261.30297 96.126863 
L 261.639791 96.126863 
L 261.532151 95.790572 
L 264.198214 95.790572 
L 264.090155 95.454281 
L 266.544863 95.454281 
L 266.436452 95.11799 
L 270.119088 95.11799 
L 270.010129 94.781698 
L 270.95502 94.781698 
L 270.84602 94.445407 
L 274.103102 94.445407 
L 273.993688 94.109116 
L 274.910265 94.109116 
L 274.800827 93.772825 
L 280.612905 93.772825 
L 280.502752 93.436534 
L 281.809237 93.436534 
L 281.699034 93.100243 
L 283.278602 93.100243 
L 283.16832 92.763951 
L 297.871875 92.763951 
L 297.760353 92.42766 
L 301.898266 92.42766 
L 301.786627 92.091369 
L 306.029796 92.091369 
L 305.918102 91.755078 
L 312.527131 91.755078 
L 312.415428 91.418787 
L 312.528193 91.418787 
L 313.314569 91.418787 
L 313.202969 91.082496 
L 313.314885 91.082496 
L 317.058275 91.082496 
L 316.946803 90.746205 
L 317.055118 90.746205 
L 317.271448 90.746205 
L 317.160083 90.409913 
L 317.2681 90.409913 
L 319.08922 90.409913 
L 318.977992 90.073622 
L 319.084235 90.073622 
L 320.351595 90.073622 
L 320.240501 89.737331 
L 320.345492 89.737331 
L 326.076155 89.737331 
L 325.965379 89.40104 
L 326.065129 89.40104 
L 327.452381 89.40104 
L 327.341781 89.064749 
L 327.44022 89.064749 
L 328.419868 89.064749 
L 328.309426 88.728458 
L 328.406924 88.728458 
L 329.280576 88.728458 
L 329.170288 88.392166 
L 329.266943 88.392166 
L 329.845107 88.392166 
L 329.734957 88.055875 
L 329.83103 88.055875 
L 339.034236 88.055875 
L 338.924938 87.719584 
L 339.013109 87.719584 
L 340.674525 87.719584 
L 340.565497 87.383293 
L 340.652228 87.383293 
L 341.429593 87.383293 
L 341.320748 87.047002 
L 341.406776 87.047002 
L 344.874111 87.047002 
L 344.765765 86.710711 
L 344.84891 86.710711 
L 346.82446 86.710711 
L 346.71646 86.374419 
L 346.797963 86.374419 
L 350.948239 86.374419 
L 350.840907 86.038128 
L 350.919077 86.038128 
L 357.93112 86.038128 
L 357.825 85.701837 
L 357.897738 85.701837 
L 362.163914 85.701837 
L 362.058659 85.365546 
L 362.128177 85.365546 
L 370.177997 85.365546 
L 370.07448 85.029255 
L 370.138161 85.029255 
L 374.426316 85.029255 
L 374.323865 84.692964 
L 374.384531 84.692964 
L 375.947325 84.692964 
L 375.845334 84.356672 
L 375.904903 84.356672 
L 381.719388 84.356672 
L 381.618954 84.020381 
L 381.73022 84.020381 
L 382.78 84.020381 
L 382.78 84.020381 
" style="fill:none;stroke:#ff7f0e;stroke-linecap:square;stroke-width:2;"/>
   </g>
   <g id="line2d_47">
    <path clip-path="url(#pe061bf827d)" d="M 76.5 448.223709 
L 76.5 292.520901 
L 77.52 292.520901 
L 77.39322 270.325685 
L 78.283083 270.325685 
L 78.075748 246.785303 
L 78.859701 246.785303 
L 78.798708 241.404645 
L 79.56 241.404645 
L 79.473668 235.351404 
L 80.211268 235.351404 
L 80.199688 234.678821 
L 80.93271 234.678821 
L 80.766567 226.271542 
L 81.47021 226.271542 
L 81.332751 219.88201 
L 82.015116 219.88201 
L 81.719257 206.766655 
L 82.363599 206.766655 
L 82.245222 201.722288 
L 82.875 201.722288 
L 82.65974 192.978718 
L 83.266926 192.978718 
L 83.249418 192.306135 
L 83.853488 192.306135 
L 83.844 191.969844 
L 84.445747 191.969844 
L 84.415148 190.960971 
L 85.013077 190.960971 
L 84.991304 190.288388 
L 85.586207 190.288388 
L 85.272503 180.872236 
L 85.845813 180.872236 
L 85.788617 179.19078 
L 86.35709 179.19078 
L 86.064769 170.783501 
L 87.164734 170.783501 
L 87.077113 168.429463 
L 87.62075 168.429463 
L 87.291809 159.685893 
L 87.818523 159.685893 
L 87.792857 159.01331 
L 89.362373 159.01331 
L 89.232886 155.98669 
L 89.748603 155.98669 
L 89.645787 153.632652 
L 90.156478 153.632652 
L 90.066337 151.614905 
L 90.572637 151.614905 
L 90.284822 145.225373 
L 90.78 145.225373 
L 90.688462 143.207626 
L 91.179509 143.207626 
L 91.13266 142.198752 
L 92.108599 142.198752 
L 92.07553 141.52617 
L 92.560952 141.52617 
L 92.510127 140.517296 
L 92.993045 140.517296 
L 92.855172 137.826967 
L 93.333194 137.826967 
L 93.298125 137.154385 
L 93.774194 137.154385 
L 93.631579 134.464055 
L 94.573223 134.464055 
L 94.536074 133.791473 
L 95.472 133.791473 
L 95.433163 133.118891 
L 95.898773 133.118891 
L 95.878958 132.7826 
L 97.730112 132.7826 
L 97.687005 132.110017 
L 98.146552 132.110017 
L 98.08089 131.101144 
L 98.538182 131.101144 
L 98.405422 129.083397 
L 99.312024 129.083397 
L 99.153134 126.729359 
L 99.602087 126.729359 
L 99.579146 126.393068 
L 101.364392 126.393068 
L 101.339822 126.056776 
L 101.783514 126.056776 
L 101.708858 125.047903 
L 102.150442 125.047903 
L 102.100098 124.375321 
L 103.417221 124.375321 
L 103.390909 124.039029 
L 104.699123 124.039029 
L 104.671665 123.702738 
L 105.538776 123.702738 
L 105.510583 123.366447 
L 107.233172 123.366447 
L 107.144262 122.357574 
L 107.571676 122.357574 
L 107.511923 121.684991 
L 107.937752 121.684991 
L 107.847414 120.676118 
L 108.271292 120.676118 
L 108.180344 119.667244 
L 108.602288 119.667244 
L 108.510741 118.658371 
L 108.930769 118.658371 
L 108.9 118.32208 
L 110.570699 118.32208 
L 110.538527 117.985789 
L 110.953868 117.985789 
L 110.824342 116.640624 
L 111.237465 116.640624 
L 111.204878 116.304333 
L 111.61687 116.304333 
L 111.583989 115.968042 
L 113.222854 115.968042 
L 113.120372 114.959168 
L 113.527138 114.959168 
L 113.458442 114.286586 
L 114.268333 114.286586 
L 114.198521 113.614003 
L 114.601662 113.614003 
L 114.566513 113.277712 
L 114.968571 113.277712 
L 114.757012 111.259965 
L 115.156319 111.259965 
L 115.120952 110.923674 
L 115.519196 110.923674 
L 115.447993 110.251092 
L 116.240984 110.251092 
L 116.168727 109.57851 
L 116.563488 109.57851 
L 116.418462 108.233345 
L 116.811212 108.233345 
L 116.774797 107.897054 
L 117.166516 107.897054 
L 117.093243 107.224471 
L 117.483618 107.224471 
L 117.37325 106.215598 
L 118.537332 106.215598 
L 118.312734 104.197851 
L 118.697509 104.197851 
L 118.66 103.86156 
L 119.426886 103.86156 
L 119.237279 102.180104 
L 120.377974 102.180104 
L 120.339349 101.843813 
L 120.717942 101.843813 
L 120.679086 101.507522 
L 121.056716 101.507522 
L 121.017632 101.171231 
L 121.770315 101.171231 
L 121.691171 100.498648 
L 122.813514 100.498648 
L 122.773171 100.162357 
L 132.964286 100.162357 
L 132.916313 99.826066 
L 133.271053 99.826066 
L 133.222901 99.489775 
L 133.57678 99.489775 
L 133.52845 99.153484 
L 134.233897 99.153484 
L 134.185135 98.817192 
L 134.88769 98.817192 
L 134.8385 98.480901 
L 137.277136 98.480901 
L 137.226276 98.14461 
L 138.606005 98.14461 
L 138.55425 97.808319 
L 139.240183 97.808319 
L 139.18803 97.472028 
L 139.5299 97.472028 
L 139.477593 97.135737 
L 140.838462 97.135737 
L 140.785289 96.799445 
L 141.79934 96.799445 
L 141.745552 96.463154 
L 142.418339 96.463154 
L 142.364174 96.126863 
L 149.616465 96.126863 
L 149.5575 95.790572 
L 149.880822 95.790572 
L 149.821739 95.454281 
L 151.429511 95.454281 
L 151.369471 95.11799 
L 151.689271 95.11799 
L 151.62912 94.781698 
L 151.948201 94.781698 
L 151.887939 94.445407 
L 152.206305 94.445407 
L 152.145933 94.109116 
L 152.463586 94.109116 
L 152.282432 93.100243 
L 152.598967 93.100243 
L 152.538571 92.763951 
L 157.224 92.763951 
L 157.160737 92.42766 
L 157.776761 92.42766 
L 157.713213 92.091369 
L 160.156643 92.091369 
L 160.091693 91.755078 
L 160.999613 91.755078 
L 160.934211 91.418787 
L 170.356949 91.418787 
L 170.286113 91.082496 
L 172.001427 91.082496 
L 171.92973 90.746205 
L 173.6287 90.746205 
L 173.556161 90.409913 
L 175.239033 90.409913 
L 175.165676 90.073622 
L 177.935841 90.073622 
L 177.861091 89.737331 
L 178.68375 89.737331 
L 178.60867 89.40104 
L 179.97101 89.40104 
L 179.895318 89.064749 
L 181.516169 89.064749 
L 181.439738 88.728458 
L 183.045652 88.728458 
L 182.968501 88.392166 
L 183.765824 88.392166 
L 183.688375 88.055875 
L 183.953247 88.055875 
L 183.875775 87.719584 
L 188.060228 87.719584 
L 187.980769 87.383293 
L 192.573418 87.383293 
L 192.491848 87.047002 
L 194.743785 87.047002 
L 194.66127 86.710711 
L 199.804952 86.710711 
L 199.720206 86.374419 
L 200.682728 86.374419 
L 200.597671 86.038128 
L 201.315789 86.038128 
L 201.230533 85.701837 
L 201.945399 85.701837 
L 201.859946 85.365546 
L 202.571584 85.365546 
L 202.485938 85.029255 
L 207.155027 85.029255 
L 207.067515 84.692964 
L 208.6716 84.692964 
L 208.583544 84.356672 
L 215.07 84.356672 
L 214.979491 84.020381 
L 219.309865 84.020381 
L 219.217848 83.68409 
L 225.916477 83.68409 
L 225.822208 83.347799 
L 234.405774 83.347799 
L 234.30884 83.011508 
L 243.367621 83.011508 
L 243.268176 82.675217 
L 250.603141 82.675217 
L 250.501919 82.338925 
L 252.410225 82.338925 
L 252.308661 82.002634 
L 252.4809 82.002634 
L 252.27804 81.330052 
L 255.343297 81.330052 
L 255.241334 80.993761 
L 264.068861 80.993761 
L 263.965174 80.65747 
L 267.720786 80.65747 
L 267.616521 80.321179 
L 275.424337 80.321179 
L 275.318919 79.984887 
L 277.347712 79.984887 
L 277.242114 79.648596 
L 278.245207 79.648596 
L 278.139581 79.312305 
L 279.700885 79.312305 
L 279.595161 78.976014 
L 282.664352 78.976014 
L 282.558355 78.639723 
L 316.419946 78.639723 
L 316.312214 78.303432 
L 316.41746 78.303432 
L 323.160811 78.303432 
L 323.053333 77.96714 
L 323.152526 77.96714 
L 327.719078 77.96714 
L 327.611903 77.630849 
L 327.707079 77.630849 
L 334.799628 77.630849 
L 334.693025 77.294558 
L 334.782178 77.294558 
L 379.68 77.294558 
L 379.68 77.294558 
" style="fill:none;stroke:#2ca02c;stroke-linecap:square;stroke-width:2;"/>
   </g>
   <g id="patch_3">
    <path d="M 76.5 448.56 
L 76.5 60.48 
" style="fill:none;stroke:#000000;stroke-linecap:square;stroke-linejoin:miter;stroke-width:0.8;"/>
   </g>
   <g id="patch_4">
    <path d="M 550.8 448.56 
L 550.8 60.48 
" style="fill:none;stroke:#000000;stroke-linecap:square;stroke-linejoin:miter;stroke-width:0.8;"/>
   </g>
   <g id="patch_5">
    <path d="M 76.5 448.56 
L 550.8 448.56 
" style="fill:none;stroke:#000000;stroke-linecap:square;stroke-linejoin:miter;stroke-width:0.8;"/>
   </g>
   <g id="patch_6">
    <path d="M 76.5 60.48 
L 550.8 60.48 
" style="fill:none;stroke:#000000;stroke-linecap:square;stroke-linejoin:miter;stroke-width:0.8;"/>
   </g>
   <g id="text_25">
    <!-- graf: img1-img2 -->
    <defs>
     <path d="M 45.40625 27.984375 
Q 45.40625 37.75 41.375 43.109375 
Q 37.359375 48.484375 30.078125 48.484375 
Q 22.859375 48.484375 18.828125 43.109375 
Q 14.796875 37.75 14.796875 27.984375 
Q 14.796875 18.265625 18.828125 12.890625 
Q 22.859375 7.515625 30.078125 7.515625 
Q 37.359375 7.515625 41.375 12.890625 
Q 45.40625 18.265625 45.40625 27.984375 
z
M 54.390625 6.78125 
Q 54.390625 -7.171875 48.1875 -13.984375 
Q 42 -20.796875 29.203125 -20.796875 
Q 24.46875 -20.796875 20.265625 -20.09375 
Q 16.0625 -19.390625 12.109375 -17.921875 
L 12.109375 -9.1875 
Q 16.0625 -11.328125 19.921875 -12.34375 
Q 23.78125 -13.375 27.78125 -13.375 
Q 36.625 -13.375 41.015625 -8.765625 
Q 45.40625 -4.15625 45.40625 5.171875 
L 45.40625 9.625 
Q 42.625 4.78125 38.28125 2.390625 
Q 33.9375 0 27.875 0 
Q 17.828125 0 11.671875 7.65625 
Q 5.515625 15.328125 5.515625 27.984375 
Q 5.515625 40.671875 11.671875 48.328125 
Q 17.828125 56 27.875 56 
Q 33.9375 56 38.28125 53.609375 
Q 42.625 51.21875 45.40625 46.390625 
L 45.40625 54.6875 
L 54.390625 54.6875 
z
" id="DejaVuSans-103"/>
     <path d="M 34.28125 27.484375 
Q 23.390625 27.484375 19.1875 25 
Q 14.984375 22.515625 14.984375 16.5 
Q 14.984375 11.71875 18.140625 8.90625 
Q 21.296875 6.109375 26.703125 6.109375 
Q 34.1875 6.109375 38.703125 11.40625 
Q 43.21875 16.703125 43.21875 25.484375 
L 43.21875 27.484375 
z
M 52.203125 31.203125 
L 52.203125 0 
L 43.21875 0 
L 43.21875 8.296875 
Q 40.140625 3.328125 35.546875 0.953125 
Q 30.953125 -1.421875 24.3125 -1.421875 
Q 15.921875 -1.421875 10.953125 3.296875 
Q 6 8.015625 6 15.921875 
Q 6 25.140625 12.171875 29.828125 
Q 18.359375 34.515625 30.609375 34.515625 
L 43.21875 34.515625 
L 43.21875 35.40625 
Q 43.21875 41.609375 39.140625 45 
Q 35.0625 48.390625 27.6875 48.390625 
Q 23 48.390625 18.546875 47.265625 
Q 14.109375 46.140625 10.015625 43.890625 
L 10.015625 52.203125 
Q 14.9375 54.109375 19.578125 55.046875 
Q 24.21875 56 28.609375 56 
Q 40.484375 56 46.34375 49.84375 
Q 52.203125 43.703125 52.203125 31.203125 
z
" id="DejaVuSans-97"/>
     <path d="M 37.109375 75.984375 
L 37.109375 68.5 
L 28.515625 68.5 
Q 23.6875 68.5 21.796875 66.546875 
Q 19.921875 64.59375 19.921875 59.515625 
L 19.921875 54.6875 
L 34.71875 54.6875 
L 34.71875 47.703125 
L 19.921875 47.703125 
L 19.921875 0 
L 10.890625 0 
L 10.890625 47.703125 
L 2.296875 47.703125 
L 2.296875 54.6875 
L 10.890625 54.6875 
L 10.890625 58.5 
Q 10.890625 67.625 15.140625 71.796875 
Q 19.390625 75.984375 28.609375 75.984375 
z
" id="DejaVuSans-102"/>
     <path d="M 11.71875 12.40625 
L 22.015625 12.40625 
L 22.015625 0 
L 11.71875 0 
z
M 11.71875 51.703125 
L 22.015625 51.703125 
L 22.015625 39.3125 
L 11.71875 39.3125 
z
" id="DejaVuSans-58"/>
     <path id="DejaVuSans-32"/>
     <path d="M 52 44.1875 
Q 55.375 50.25 60.0625 53.125 
Q 64.75 56 71.09375 56 
Q 79.640625 56 84.28125 50.015625 
Q 88.921875 44.046875 88.921875 33.015625 
L 88.921875 0 
L 79.890625 0 
L 79.890625 32.71875 
Q 79.890625 40.578125 77.09375 44.375 
Q 74.3125 48.1875 68.609375 48.1875 
Q 61.625 48.1875 57.5625 43.546875 
Q 53.515625 38.921875 53.515625 30.90625 
L 53.515625 0 
L 44.484375 0 
L 44.484375 32.71875 
Q 44.484375 40.625 41.703125 44.40625 
Q 38.921875 48.1875 33.109375 48.1875 
Q 26.21875 48.1875 22.15625 43.53125 
Q 18.109375 38.875 18.109375 30.90625 
L 18.109375 0 
L 9.078125 0 
L 9.078125 54.6875 
L 18.109375 54.6875 
L 18.109375 46.1875 
Q 21.1875 51.21875 25.484375 53.609375 
Q 29.78125 56 35.6875 56 
Q 41.65625 56 45.828125 52.96875 
Q 50 49.953125 52 44.1875 
z
" id="DejaVuSans-109"/>
    </defs>
    <g transform="translate(265.434375 41.042625)scale(0.12 -0.12)">
     <use xlink:href="#DejaVuSans-103"/>
     <use x="63.476562" xlink:href="#DejaVuSans-114"/>
     <use x="104.589844" xlink:href="#DejaVuSans-97"/>
     <use x="165.869141" xlink:href="#DejaVuSans-102"/>
     <use x="197.449219" xlink:href="#DejaVuSans-58"/>
     <use x="231.140625" xlink:href="#DejaVuSans-32"/>
     <use x="262.927734" xlink:href="#DejaVuSans-105"/>
     <use x="290.710938" xlink:href="#DejaVuSans-109"/>
     <use x="388.123047" xlink:href="#DejaVuSans-103"/>
     <use x="451.599609" xlink:href="#DejaVuSans-49"/>
     <use x="515.222656" xlink:href="#DejaVuSans-45"/>
     <use x="551.306641" xlink:href="#DejaVuSans-105"/>
     <use x="579.089844" xlink:href="#DejaVuSans-109"/>
     <use x="676.501953" xlink:href="#DejaVuSans-103"/>
     <use x="739.978516" xlink:href="#DejaVuSans-50"/>
    </g>
    <!-- NearestNeighbours -->
    <defs>
     <path d="M 9.8125 72.90625 
L 23.09375 72.90625 
L 55.421875 11.921875 
L 55.421875 72.90625 
L 64.984375 72.90625 
L 64.984375 0 
L 51.703125 0 
L 19.390625 60.984375 
L 19.390625 0 
L 9.8125 0 
z
" id="DejaVuSans-78"/>
     <path d="M 54.890625 33.015625 
L 54.890625 0 
L 45.90625 0 
L 45.90625 32.71875 
Q 45.90625 40.484375 42.875 44.328125 
Q 39.84375 48.1875 33.796875 48.1875 
Q 26.515625 48.1875 22.3125 43.546875 
Q 18.109375 38.921875 18.109375 30.90625 
L 18.109375 0 
L 9.078125 0 
L 9.078125 75.984375 
L 18.109375 75.984375 
L 18.109375 46.1875 
Q 21.34375 51.125 25.703125 53.5625 
Q 30.078125 56 35.796875 56 
Q 45.21875 56 50.046875 50.171875 
Q 54.890625 44.34375 54.890625 33.015625 
z
" id="DejaVuSans-104"/>
     <path d="M 48.6875 27.296875 
Q 48.6875 37.203125 44.609375 42.84375 
Q 40.53125 48.484375 33.40625 48.484375 
Q 26.265625 48.484375 22.1875 42.84375 
Q 18.109375 37.203125 18.109375 27.296875 
Q 18.109375 17.390625 22.1875 11.75 
Q 26.265625 6.109375 33.40625 6.109375 
Q 40.53125 6.109375 44.609375 11.75 
Q 48.6875 17.390625 48.6875 27.296875 
z
M 18.109375 46.390625 
Q 20.953125 51.265625 25.265625 53.625 
Q 29.59375 56 35.59375 56 
Q 45.5625 56 51.78125 48.09375 
Q 58.015625 40.1875 58.015625 27.296875 
Q 58.015625 14.40625 51.78125 6.484375 
Q 45.5625 -1.421875 35.59375 -1.421875 
Q 29.59375 -1.421875 25.265625 0.953125 
Q 20.953125 3.328125 18.109375 8.203125 
L 18.109375 0 
L 9.078125 0 
L 9.078125 75.984375 
L 18.109375 75.984375 
z
" id="DejaVuSans-98"/>
     <path d="M 8.5 21.578125 
L 8.5 54.6875 
L 17.484375 54.6875 
L 17.484375 21.921875 
Q 17.484375 14.15625 20.5 10.265625 
Q 23.53125 6.390625 29.59375 6.390625 
Q 36.859375 6.390625 41.078125 11.03125 
Q 45.3125 15.671875 45.3125 23.6875 
L 45.3125 54.6875 
L 54.296875 54.6875 
L 54.296875 0 
L 45.3125 0 
L 45.3125 8.40625 
Q 42.046875 3.421875 37.71875 1 
Q 33.40625 -1.421875 27.6875 -1.421875 
Q 18.265625 -1.421875 13.375 4.4375 
Q 8.5 10.296875 8.5 21.578125 
z
M 31.109375 56 
z
" id="DejaVuSans-117"/>
    </defs>
    <g transform="translate(255.957188 54.48)scale(0.12 -0.12)">
     <use xlink:href="#DejaVuSans-78"/>
     <use x="74.804688" xlink:href="#DejaVuSans-101"/>
     <use x="136.328125" xlink:href="#DejaVuSans-97"/>
     <use x="197.607422" xlink:href="#DejaVuSans-114"/>
     <use x="236.470703" xlink:href="#DejaVuSans-101"/>
     <use x="297.994141" xlink:href="#DejaVuSans-115"/>
     <use x="350.09375" xlink:href="#DejaVuSans-116"/>
     <use x="389.302734" xlink:href="#DejaVuSans-78"/>
     <use x="464.107422" xlink:href="#DejaVuSans-101"/>
     <use x="525.630859" xlink:href="#DejaVuSans-105"/>
     <use x="553.414062" xlink:href="#DejaVuSans-103"/>
     <use x="616.890625" xlink:href="#DejaVuSans-104"/>
     <use x="680.269531" xlink:href="#DejaVuSans-98"/>
     <use x="743.746094" xlink:href="#DejaVuSans-111"/>
     <use x="804.927734" xlink:href="#DejaVuSans-117"/>
     <use x="868.306641" xlink:href="#DejaVuSans-114"/>
     <use x="909.419922" xlink:href="#DejaVuSans-115"/>
    </g>
   </g>
   <g id="legend_1">
    <g id="patch_7">
     <path d="M 362.659375 443.56 
L 543.8 443.56 
Q 545.8 443.56 545.8 441.56 
L 545.8 398.525625 
Q 545.8 396.525625 543.8 396.525625 
L 362.659375 396.525625 
Q 360.659375 396.525625 360.659375 398.525625 
L 360.659375 441.56 
Q 360.659375 443.56 362.659375 443.56 
z
" style="fill:#ffffff;opacity:0.8;stroke:#cccccc;stroke-linejoin:miter;"/>
    </g>
    <g id="line2d_48">
     <path d="M 364.659375 404.624063 
L 384.659375 404.624063 
" style="fill:none;stroke:#1f77b4;stroke-linecap:square;stroke-width:2;"/>
    </g>
    <g id="line2d_49"/>
    <g id="text_26">
     <!-- root-cvsift AP: 88.0, %In: 35.7 -->
     <defs>
      <path d="M 2.984375 54.6875 
L 12.5 54.6875 
L 29.59375 8.796875 
L 46.6875 54.6875 
L 56.203125 54.6875 
L 35.6875 0 
L 23.484375 0 
z
" id="DejaVuSans-118"/>
      <path d="M 34.1875 63.1875 
L 20.796875 26.90625 
L 47.609375 26.90625 
z
M 28.609375 72.90625 
L 39.796875 72.90625 
L 67.578125 0 
L 57.328125 0 
L 50.6875 18.703125 
L 17.828125 18.703125 
L 11.1875 0 
L 0.78125 0 
z
" id="DejaVuSans-65"/>
      <path d="M 19.671875 64.796875 
L 19.671875 37.40625 
L 32.078125 37.40625 
Q 38.96875 37.40625 42.71875 40.96875 
Q 46.484375 44.53125 46.484375 51.125 
Q 46.484375 57.671875 42.71875 61.234375 
Q 38.96875 64.796875 32.078125 64.796875 
z
M 9.8125 72.90625 
L 32.078125 72.90625 
Q 44.34375 72.90625 50.609375 67.359375 
Q 56.890625 61.8125 56.890625 51.125 
Q 56.890625 40.328125 50.609375 34.8125 
Q 44.34375 29.296875 32.078125 29.296875 
L 19.671875 29.296875 
L 19.671875 0 
L 9.8125 0 
z
" id="DejaVuSans-80"/>
      <path d="M 11.71875 12.40625 
L 22.015625 12.40625 
L 22.015625 4 
L 14.015625 -11.625 
L 7.71875 -11.625 
L 11.71875 4 
z
" id="DejaVuSans-44"/>
      <path d="M 72.703125 32.078125 
Q 68.453125 32.078125 66.03125 28.46875 
Q 63.625 24.859375 63.625 18.40625 
Q 63.625 12.0625 66.03125 8.421875 
Q 68.453125 4.78125 72.703125 4.78125 
Q 76.859375 4.78125 79.265625 8.421875 
Q 81.6875 12.0625 81.6875 18.40625 
Q 81.6875 24.8125 79.265625 28.4375 
Q 76.859375 32.078125 72.703125 32.078125 
z
M 72.703125 38.28125 
Q 80.421875 38.28125 84.953125 32.90625 
Q 89.5 27.546875 89.5 18.40625 
Q 89.5 9.28125 84.9375 3.921875 
Q 80.375 -1.421875 72.703125 -1.421875 
Q 64.890625 -1.421875 60.34375 3.921875 
Q 55.8125 9.28125 55.8125 18.40625 
Q 55.8125 27.59375 60.375 32.9375 
Q 64.9375 38.28125 72.703125 38.28125 
z
M 22.3125 68.015625 
Q 18.109375 68.015625 15.6875 64.375 
Q 13.28125 60.75 13.28125 54.390625 
Q 13.28125 47.953125 15.671875 44.328125 
Q 18.0625 40.71875 22.3125 40.71875 
Q 26.5625 40.71875 28.96875 44.328125 
Q 31.390625 47.953125 31.390625 54.390625 
Q 31.390625 60.6875 28.953125 64.34375 
Q 26.515625 68.015625 22.3125 68.015625 
z
M 66.40625 74.21875 
L 74.21875 74.21875 
L 28.609375 -1.421875 
L 20.796875 -1.421875 
z
M 22.3125 74.21875 
Q 30.03125 74.21875 34.609375 68.875 
Q 39.203125 63.53125 39.203125 54.390625 
Q 39.203125 45.171875 34.640625 39.84375 
Q 30.078125 34.515625 22.3125 34.515625 
Q 14.546875 34.515625 10.03125 39.859375 
Q 5.515625 45.21875 5.515625 54.390625 
Q 5.515625 63.484375 10.046875 68.84375 
Q 14.59375 74.21875 22.3125 74.21875 
z
" id="DejaVuSans-37"/>
      <path d="M 9.8125 72.90625 
L 19.671875 72.90625 
L 19.671875 0 
L 9.8125 0 
z
" id="DejaVuSans-73"/>
     </defs>
     <g transform="translate(392.659375 408.124063)scale(0.1 -0.1)">
      <use xlink:href="#DejaVuSans-114"/>
      <use x="38.863281" xlink:href="#DejaVuSans-111"/>
      <use x="100.044922" xlink:href="#DejaVuSans-111"/>
      <use x="161.226562" xlink:href="#DejaVuSans-116"/>
      <use x="200.435547" xlink:href="#DejaVuSans-45"/>
      <use x="236.519531" xlink:href="#DejaVuSans-99"/>
      <use x="291.5" xlink:href="#DejaVuSans-118"/>
      <use x="350.679688" xlink:href="#DejaVuSans-115"/>
      <use x="402.779297" xlink:href="#DejaVuSans-105"/>
      <use x="430.5625" xlink:href="#DejaVuSans-102"/>
      <use x="464.017578" xlink:href="#DejaVuSans-116"/>
      <use x="503.226562" xlink:href="#DejaVuSans-32"/>
      <use x="535.013672" xlink:href="#DejaVuSans-65"/>
      <use x="603.421875" xlink:href="#DejaVuSans-80"/>
      <use x="663.724609" xlink:href="#DejaVuSans-58"/>
      <use x="697.416016" xlink:href="#DejaVuSans-32"/>
      <use x="729.203125" xlink:href="#DejaVuSans-56"/>
      <use x="792.826172" xlink:href="#DejaVuSans-56"/>
      <use x="856.449219" xlink:href="#DejaVuSans-46"/>
      <use x="888.236328" xlink:href="#DejaVuSans-48"/>
      <use x="951.859375" xlink:href="#DejaVuSans-44"/>
      <use x="983.646484" xlink:href="#DejaVuSans-32"/>
      <use x="1015.433594" xlink:href="#DejaVuSans-37"/>
      <use x="1110.453125" xlink:href="#DejaVuSans-73"/>
      <use x="1139.945312" xlink:href="#DejaVuSans-110"/>
      <use x="1203.324219" xlink:href="#DejaVuSans-58"/>
      <use x="1237.015625" xlink:href="#DejaVuSans-32"/>
      <use x="1268.802734" xlink:href="#DejaVuSans-51"/>
      <use x="1332.425781" xlink:href="#DejaVuSans-53"/>
      <use x="1396.048828" xlink:href="#DejaVuSans-46"/>
      <use x="1427.835938" xlink:href="#DejaVuSans-55"/>
     </g>
    </g>
    <g id="line2d_50">
     <path d="M 364.659375 419.302188 
L 384.659375 419.302188 
" style="fill:none;stroke:#ff7f0e;stroke-linecap:square;stroke-width:2;"/>
    </g>
    <g id="line2d_51"/>
    <g id="text_27">
     <!-- tfeat AP: 85.9, %In: 35.4 -->
     <g transform="translate(392.659375 422.802188)scale(0.1 -0.1)">
      <use xlink:href="#DejaVuSans-116"/>
      <use x="39.208984" xlink:href="#DejaVuSans-102"/>
      <use x="74.414062" xlink:href="#DejaVuSans-101"/>
      <use x="135.9375" xlink:href="#DejaVuSans-97"/>
      <use x="197.216797" xlink:href="#DejaVuSans-116"/>
      <use x="236.425781" xlink:href="#DejaVuSans-32"/>
      <use x="268.212891" xlink:href="#DejaVuSans-65"/>
      <use x="336.621094" xlink:href="#DejaVuSans-80"/>
      <use x="396.923828" xlink:href="#DejaVuSans-58"/>
      <use x="430.615234" xlink:href="#DejaVuSans-32"/>
      <use x="462.402344" xlink:href="#DejaVuSans-56"/>
      <use x="526.025391" xlink:href="#DejaVuSans-53"/>
      <use x="589.648438" xlink:href="#DejaVuSans-46"/>
      <use x="621.435547" xlink:href="#DejaVuSans-57"/>
      <use x="685.058594" xlink:href="#DejaVuSans-44"/>
      <use x="716.845703" xlink:href="#DejaVuSans-32"/>
      <use x="748.632812" xlink:href="#DejaVuSans-37"/>
      <use x="843.652344" xlink:href="#DejaVuSans-73"/>
      <use x="873.144531" xlink:href="#DejaVuSans-110"/>
      <use x="936.523438" xlink:href="#DejaVuSans-58"/>
      <use x="970.214844" xlink:href="#DejaVuSans-32"/>
      <use x="1002.001953" xlink:href="#DejaVuSans-51"/>
      <use x="1065.625" xlink:href="#DejaVuSans-53"/>
      <use x="1129.248047" xlink:href="#DejaVuSans-46"/>
      <use x="1161.035156" xlink:href="#DejaVuSans-52"/>
     </g>
    </g>
    <g id="line2d_52">
     <path d="M 364.659375 433.980313 
L 384.659375 433.980313 
" style="fill:none;stroke:#2ca02c;stroke-linecap:square;stroke-width:2;"/>
    </g>
    <g id="line2d_53"/>
    <g id="text_28">
     <!-- hardnet AP: 92.9, %In: 36.1 -->
     <defs>
      <path d="M 45.40625 46.390625 
L 45.40625 75.984375 
L 54.390625 75.984375 
L 54.390625 0 
L 45.40625 0 
L 45.40625 8.203125 
Q 42.578125 3.328125 38.25 0.953125 
Q 33.9375 -1.421875 27.875 -1.421875 
Q 17.96875 -1.421875 11.734375 6.484375 
Q 5.515625 14.40625 5.515625 27.296875 
Q 5.515625 40.1875 11.734375 48.09375 
Q 17.96875 56 27.875 56 
Q 33.9375 56 38.25 53.625 
Q 42.578125 51.265625 45.40625 46.390625 
z
M 14.796875 27.296875 
Q 14.796875 17.390625 18.875 11.75 
Q 22.953125 6.109375 30.078125 6.109375 
Q 37.203125 6.109375 41.296875 11.75 
Q 45.40625 17.390625 45.40625 27.296875 
Q 45.40625 37.203125 41.296875 42.84375 
Q 37.203125 48.484375 30.078125 48.484375 
Q 22.953125 48.484375 18.875 42.84375 
Q 14.796875 37.203125 14.796875 27.296875 
z
" id="DejaVuSans-100"/>
     </defs>
     <g transform="translate(392.659375 437.480313)scale(0.1 -0.1)">
      <use xlink:href="#DejaVuSans-104"/>
      <use x="63.378906" xlink:href="#DejaVuSans-97"/>
      <use x="124.658203" xlink:href="#DejaVuSans-114"/>
      <use x="164.021484" xlink:href="#DejaVuSans-100"/>
      <use x="227.498047" xlink:href="#DejaVuSans-110"/>
      <use x="290.876953" xlink:href="#DejaVuSans-101"/>
      <use x="352.400391" xlink:href="#DejaVuSans-116"/>
      <use x="391.609375" xlink:href="#DejaVuSans-32"/>
      <use x="423.396484" xlink:href="#DejaVuSans-65"/>
      <use x="491.804688" xlink:href="#DejaVuSans-80"/>
      <use x="552.107422" xlink:href="#DejaVuSans-58"/>
      <use x="585.798828" xlink:href="#DejaVuSans-32"/>
      <use x="617.585938" xlink:href="#DejaVuSans-57"/>
      <use x="681.208984" xlink:href="#DejaVuSans-50"/>
      <use x="744.832031" xlink:href="#DejaVuSans-46"/>
      <use x="776.619141" xlink:href="#DejaVuSans-57"/>
      <use x="840.242188" xlink:href="#DejaVuSans-44"/>
      <use x="872.029297" xlink:href="#DejaVuSans-32"/>
      <use x="903.816406" xlink:href="#DejaVuSans-37"/>
      <use x="998.835938" xlink:href="#DejaVuSans-73"/>
      <use x="1028.328125" xlink:href="#DejaVuSans-110"/>
      <use x="1091.707031" xlink:href="#DejaVuSans-58"/>
      <use x="1125.398438" xlink:href="#DejaVuSans-32"/>
      <use x="1157.185547" xlink:href="#DejaVuSans-51"/>
      <use x="1220.808594" xlink:href="#DejaVuSans-54"/>
      <use x="1284.431641" xlink:href="#DejaVuSans-46"/>
      <use x="1316.21875" xlink:href="#DejaVuSans-49"/>
     </g>
    </g>
   </g>
  </g>
 </g>
 <defs>
  <clipPath id="pe061bf827d">
   <rect height="388.08" width="474.3" x="76.5" y="60.48"/>
  </clipPath>
 </defs>
</svg>
