<?xml version="1.0" encoding="utf-8" standalone="no"?>
<!DOCTYPE svg PUBLIC "-//W3C//DTD SVG 1.1//EN"
  "http://www.w3.org/Graphics/SVG/1.1/DTD/svg11.dtd">
<!-- Created with matplotlib (https://matplotlib.org/) -->
<svg height="504pt" version="1.1" viewBox="0 0 612 504" width="612pt" xmlns="http://www.w3.org/2000/svg" xmlns:xlink="http://www.w3.org/1999/xlink">
 <defs>
  <style type="text/css">
*{stroke-linecap:butt;stroke-linejoin:round;}
  </style>
 </defs>
 <g id="figure_1">
  <g id="patch_1">
   <path d="M 0 504 
L 612 504 
L 612 0 
L 0 0 
z
" style="fill:#ffffff;"/>
  </g>
  <g id="axes_1">
   <g id="patch_2">
    <path d="M 76.5 448.56 
L 550.8 448.56 
L 550.8 60.48 
L 76.5 60.48 
z
" style="fill:#ffffff;"/>
   </g>
   <g id="matplotlib.axis_1">
    <g id="xtick_1">
     <g id="line2d_1">
      <path clip-path="url(#pb3ef5f125e)" d="M 76.5 448.56 
L 76.5 60.48 
" style="fill:none;stroke:#b0b0b0;stroke-linecap:square;stroke-width:0.8;"/>
     </g>
     <g id="line2d_2">
      <defs>
       <path d="M 0 0 
L 0 3.5 
" id="m9cd0f7a278" style="stroke:#000000;stroke-width:0.8;"/>
      </defs>
      <g>
       <use style="stroke:#000000;stroke-width:0.8;" x="76.5" xlink:href="#m9cd0f7a278" y="448.56"/>
      </g>
     </g>
     <g id="text_1">
      <!-- 0.0 -->
      <defs>
       <path d="M 31.78125 66.40625 
Q 24.171875 66.40625 20.328125 58.90625 
Q 16.5 51.421875 16.5 36.375 
Q 16.5 21.390625 20.328125 13.890625 
Q 24.171875 6.390625 31.78125 6.390625 
Q 39.453125 6.390625 43.28125 13.890625 
Q 47.125 21.390625 47.125 36.375 
Q 47.125 51.421875 43.28125 58.90625 
Q 39.453125 66.40625 31.78125 66.40625 
z
M 31.78125 74.21875 
Q 44.046875 74.21875 50.515625 64.515625 
Q 56.984375 54.828125 56.984375 36.375 
Q 56.984375 17.96875 50.515625 8.265625 
Q 44.046875 -1.421875 31.78125 -1.421875 
Q 19.53125 -1.421875 13.0625 8.265625 
Q 6.59375 17.96875 6.59375 36.375 
Q 6.59375 54.828125 13.0625 64.515625 
Q 19.53125 74.21875 31.78125 74.21875 
z
" id="DejaVuSans-48"/>
       <path d="M 10.6875 12.40625 
L 21 12.40625 
L 21 0 
L 10.6875 0 
z
" id="DejaVuSans-46"/>
      </defs>
      <g transform="translate(68.548438 463.158437)scale(0.1 -0.1)">
       <use xlink:href="#DejaVuSans-48"/>
       <use x="63.623047" xlink:href="#DejaVuSans-46"/>
       <use x="95.410156" xlink:href="#DejaVuSans-48"/>
      </g>
     </g>
    </g>
    <g id="xtick_2">
     <g id="line2d_3">
      <path clip-path="url(#pb3ef5f125e)" d="M 123.93 448.56 
L 123.93 60.48 
" style="fill:none;stroke:#b0b0b0;stroke-linecap:square;stroke-width:0.8;"/>
     </g>
     <g id="line2d_4">
      <g>
       <use style="stroke:#000000;stroke-width:0.8;" x="123.93" xlink:href="#m9cd0f7a278" y="448.56"/>
      </g>
     </g>
     <g id="text_2">
      <!-- 0.1 -->
      <defs>
       <path d="M 12.40625 8.296875 
L 28.515625 8.296875 
L 28.515625 63.921875 
L 10.984375 60.40625 
L 10.984375 69.390625 
L 28.421875 72.90625 
L 38.28125 72.90625 
L 38.28125 8.296875 
L 54.390625 8.296875 
L 54.390625 0 
L 12.40625 0 
z
" id="DejaVuSans-49"/>
      </defs>
      <g transform="translate(115.978438 463.158437)scale(0.1 -0.1)">
       <use xlink:href="#DejaVuSans-48"/>
       <use x="63.623047" xlink:href="#DejaVuSans-46"/>
       <use x="95.410156" xlink:href="#DejaVuSans-49"/>
      </g>
     </g>
    </g>
    <g id="xtick_3">
     <g id="line2d_5">
      <path clip-path="url(#pb3ef5f125e)" d="M 171.36 448.56 
L 171.36 60.48 
" style="fill:none;stroke:#b0b0b0;stroke-linecap:square;stroke-width:0.8;"/>
     </g>
     <g id="line2d_6">
      <g>
       <use style="stroke:#000000;stroke-width:0.8;" x="171.36" xlink:href="#m9cd0f7a278" y="448.56"/>
      </g>
     </g>
     <g id="text_3">
      <!-- 0.2 -->
      <defs>
       <path d="M 19.1875 8.296875 
L 53.609375 8.296875 
L 53.609375 0 
L 7.328125 0 
L 7.328125 8.296875 
Q 12.9375 14.109375 22.625 23.890625 
Q 32.328125 33.6875 34.8125 36.53125 
Q 39.546875 41.84375 41.421875 45.53125 
Q 43.3125 49.21875 43.3125 52.78125 
Q 43.3125 58.59375 39.234375 62.25 
Q 35.15625 65.921875 28.609375 65.921875 
Q 23.96875 65.921875 18.8125 64.3125 
Q 13.671875 62.703125 7.8125 59.421875 
L 7.8125 69.390625 
Q 13.765625 71.78125 18.9375 73 
Q 24.125 74.21875 28.421875 74.21875 
Q 39.75 74.21875 46.484375 68.546875 
Q 53.21875 62.890625 53.21875 53.421875 
Q 53.21875 48.921875 51.53125 44.890625 
Q 49.859375 40.875 45.40625 35.40625 
Q 44.1875 33.984375 37.640625 27.21875 
Q 31.109375 20.453125 19.1875 8.296875 
z
" id="DejaVuSans-50"/>
      </defs>
      <g transform="translate(163.408438 463.158437)scale(0.1 -0.1)">
       <use xlink:href="#DejaVuSans-48"/>
       <use x="63.623047" xlink:href="#DejaVuSans-46"/>
       <use x="95.410156" xlink:href="#DejaVuSans-50"/>
      </g>
     </g>
    </g>
    <g id="xtick_4">
     <g id="line2d_7">
      <path clip-path="url(#pb3ef5f125e)" d="M 218.79 448.56 
L 218.79 60.48 
" style="fill:none;stroke:#b0b0b0;stroke-linecap:square;stroke-width:0.8;"/>
     </g>
     <g id="line2d_8">
      <g>
       <use style="stroke:#000000;stroke-width:0.8;" x="218.79" xlink:href="#m9cd0f7a278" y="448.56"/>
      </g>
     </g>
     <g id="text_4">
      <!-- 0.3 -->
      <defs>
       <path d="M 40.578125 39.3125 
Q 47.65625 37.796875 51.625 33 
Q 55.609375 28.21875 55.609375 21.1875 
Q 55.609375 10.40625 48.1875 4.484375 
Q 40.765625 -1.421875 27.09375 -1.421875 
Q 22.515625 -1.421875 17.65625 -0.515625 
Q 12.796875 0.390625 7.625 2.203125 
L 7.625 11.71875 
Q 11.71875 9.328125 16.59375 8.109375 
Q 21.484375 6.890625 26.8125 6.890625 
Q 36.078125 6.890625 40.9375 10.546875 
Q 45.796875 14.203125 45.796875 21.1875 
Q 45.796875 27.640625 41.28125 31.265625 
Q 36.765625 34.90625 28.71875 34.90625 
L 20.21875 34.90625 
L 20.21875 43.015625 
L 29.109375 43.015625 
Q 36.375 43.015625 40.234375 45.921875 
Q 44.09375 48.828125 44.09375 54.296875 
Q 44.09375 59.90625 40.109375 62.90625 
Q 36.140625 65.921875 28.71875 65.921875 
Q 24.65625 65.921875 20.015625 65.03125 
Q 15.375 64.15625 9.8125 62.3125 
L 9.8125 71.09375 
Q 15.4375 72.65625 20.34375 73.4375 
Q 25.25 74.21875 29.59375 74.21875 
Q 40.828125 74.21875 47.359375 69.109375 
Q 53.90625 64.015625 53.90625 55.328125 
Q 53.90625 49.265625 50.4375 45.09375 
Q 46.96875 40.921875 40.578125 39.3125 
z
" id="DejaVuSans-51"/>
      </defs>
      <g transform="translate(210.838438 463.158437)scale(0.1 -0.1)">
       <use xlink:href="#DejaVuSans-48"/>
       <use x="63.623047" xlink:href="#DejaVuSans-46"/>
       <use x="95.410156" xlink:href="#DejaVuSans-51"/>
      </g>
     </g>
    </g>
    <g id="xtick_5">
     <g id="line2d_9">
      <path clip-path="url(#pb3ef5f125e)" d="M 266.22 448.56 
L 266.22 60.48 
" style="fill:none;stroke:#b0b0b0;stroke-linecap:square;stroke-width:0.8;"/>
     </g>
     <g id="line2d_10">
      <g>
       <use style="stroke:#000000;stroke-width:0.8;" x="266.22" xlink:href="#m9cd0f7a278" y="448.56"/>
      </g>
     </g>
     <g id="text_5">
      <!-- 0.4 -->
      <defs>
       <path d="M 37.796875 64.3125 
L 12.890625 25.390625 
L 37.796875 25.390625 
z
M 35.203125 72.90625 
L 47.609375 72.90625 
L 47.609375 25.390625 
L 58.015625 25.390625 
L 58.015625 17.1875 
L 47.609375 17.1875 
L 47.609375 0 
L 37.796875 0 
L 37.796875 17.1875 
L 4.890625 17.1875 
L 4.890625 26.703125 
z
" id="DejaVuSans-52"/>
      </defs>
      <g transform="translate(258.268438 463.158437)scale(0.1 -0.1)">
       <use xlink:href="#DejaVuSans-48"/>
       <use x="63.623047" xlink:href="#DejaVuSans-46"/>
       <use x="95.410156" xlink:href="#DejaVuSans-52"/>
      </g>
     </g>
    </g>
    <g id="xtick_6">
     <g id="line2d_11">
      <path clip-path="url(#pb3ef5f125e)" d="M 313.65 448.56 
L 313.65 60.48 
" style="fill:none;stroke:#b0b0b0;stroke-linecap:square;stroke-width:0.8;"/>
     </g>
     <g id="line2d_12">
      <g>
       <use style="stroke:#000000;stroke-width:0.8;" x="313.65" xlink:href="#m9cd0f7a278" y="448.56"/>
      </g>
     </g>
     <g id="text_6">
      <!-- 0.5 -->
      <defs>
       <path d="M 10.796875 72.90625 
L 49.515625 72.90625 
L 49.515625 64.59375 
L 19.828125 64.59375 
L 19.828125 46.734375 
Q 21.96875 47.46875 24.109375 47.828125 
Q 26.265625 48.1875 28.421875 48.1875 
Q 40.625 48.1875 47.75 41.5 
Q 54.890625 34.8125 54.890625 23.390625 
Q 54.890625 11.625 47.5625 5.09375 
Q 40.234375 -1.421875 26.90625 -1.421875 
Q 22.3125 -1.421875 17.546875 -0.640625 
Q 12.796875 0.140625 7.71875 1.703125 
L 7.71875 11.625 
Q 12.109375 9.234375 16.796875 8.0625 
Q 21.484375 6.890625 26.703125 6.890625 
Q 35.15625 6.890625 40.078125 11.328125 
Q 45.015625 15.765625 45.015625 23.390625 
Q 45.015625 31 40.078125 35.4375 
Q 35.15625 39.890625 26.703125 39.890625 
Q 22.75 39.890625 18.8125 39.015625 
Q 14.890625 38.140625 10.796875 36.28125 
z
" id="DejaVuSans-53"/>
      </defs>
      <g transform="translate(305.698438 463.158437)scale(0.1 -0.1)">
       <use xlink:href="#DejaVuSans-48"/>
       <use x="63.623047" xlink:href="#DejaVuSans-46"/>
       <use x="95.410156" xlink:href="#DejaVuSans-53"/>
      </g>
     </g>
    </g>
    <g id="xtick_7">
     <g id="line2d_13">
      <path clip-path="url(#pb3ef5f125e)" d="M 361.08 448.56 
L 361.08 60.48 
" style="fill:none;stroke:#b0b0b0;stroke-linecap:square;stroke-width:0.8;"/>
     </g>
     <g id="line2d_14">
      <g>
       <use style="stroke:#000000;stroke-width:0.8;" x="361.08" xlink:href="#m9cd0f7a278" y="448.56"/>
      </g>
     </g>
     <g id="text_7">
      <!-- 0.6 -->
      <defs>
       <path d="M 33.015625 40.375 
Q 26.375 40.375 22.484375 35.828125 
Q 18.609375 31.296875 18.609375 23.390625 
Q 18.609375 15.53125 22.484375 10.953125 
Q 26.375 6.390625 33.015625 6.390625 
Q 39.65625 6.390625 43.53125 10.953125 
Q 47.40625 15.53125 47.40625 23.390625 
Q 47.40625 31.296875 43.53125 35.828125 
Q 39.65625 40.375 33.015625 40.375 
z
M 52.59375 71.296875 
L 52.59375 62.3125 
Q 48.875 64.0625 45.09375 64.984375 
Q 41.3125 65.921875 37.59375 65.921875 
Q 27.828125 65.921875 22.671875 59.328125 
Q 17.53125 52.734375 16.796875 39.40625 
Q 19.671875 43.65625 24.015625 45.921875 
Q 28.375 48.1875 33.59375 48.1875 
Q 44.578125 48.1875 50.953125 41.515625 
Q 57.328125 34.859375 57.328125 23.390625 
Q 57.328125 12.15625 50.6875 5.359375 
Q 44.046875 -1.421875 33.015625 -1.421875 
Q 20.359375 -1.421875 13.671875 8.265625 
Q 6.984375 17.96875 6.984375 36.375 
Q 6.984375 53.65625 15.1875 63.9375 
Q 23.390625 74.21875 37.203125 74.21875 
Q 40.921875 74.21875 44.703125 73.484375 
Q 48.484375 72.75 52.59375 71.296875 
z
" id="DejaVuSans-54"/>
      </defs>
      <g transform="translate(353.128438 463.158437)scale(0.1 -0.1)">
       <use xlink:href="#DejaVuSans-48"/>
       <use x="63.623047" xlink:href="#DejaVuSans-46"/>
       <use x="95.410156" xlink:href="#DejaVuSans-54"/>
      </g>
     </g>
    </g>
    <g id="xtick_8">
     <g id="line2d_15">
      <path clip-path="url(#pb3ef5f125e)" d="M 408.51 448.56 
L 408.51 60.48 
" style="fill:none;stroke:#b0b0b0;stroke-linecap:square;stroke-width:0.8;"/>
     </g>
     <g id="line2d_16">
      <g>
       <use style="stroke:#000000;stroke-width:0.8;" x="408.51" xlink:href="#m9cd0f7a278" y="448.56"/>
      </g>
     </g>
     <g id="text_8">
      <!-- 0.7 -->
      <defs>
       <path d="M 8.203125 72.90625 
L 55.078125 72.90625 
L 55.078125 68.703125 
L 28.609375 0 
L 18.3125 0 
L 43.21875 64.59375 
L 8.203125 64.59375 
z
" id="DejaVuSans-55"/>
      </defs>
      <g transform="translate(400.558438 463.158437)scale(0.1 -0.1)">
       <use xlink:href="#DejaVuSans-48"/>
       <use x="63.623047" xlink:href="#DejaVuSans-46"/>
       <use x="95.410156" xlink:href="#DejaVuSans-55"/>
      </g>
     </g>
    </g>
    <g id="xtick_9">
     <g id="line2d_17">
      <path clip-path="url(#pb3ef5f125e)" d="M 455.94 448.56 
L 455.94 60.48 
" style="fill:none;stroke:#b0b0b0;stroke-linecap:square;stroke-width:0.8;"/>
     </g>
     <g id="line2d_18">
      <g>
       <use style="stroke:#000000;stroke-width:0.8;" x="455.94" xlink:href="#m9cd0f7a278" y="448.56"/>
      </g>
     </g>
     <g id="text_9">
      <!-- 0.8 -->
      <defs>
       <path d="M 31.78125 34.625 
Q 24.75 34.625 20.71875 30.859375 
Q 16.703125 27.09375 16.703125 20.515625 
Q 16.703125 13.921875 20.71875 10.15625 
Q 24.75 6.390625 31.78125 6.390625 
Q 38.8125 6.390625 42.859375 10.171875 
Q 46.921875 13.96875 46.921875 20.515625 
Q 46.921875 27.09375 42.890625 30.859375 
Q 38.875 34.625 31.78125 34.625 
z
M 21.921875 38.8125 
Q 15.578125 40.375 12.03125 44.71875 
Q 8.5 49.078125 8.5 55.328125 
Q 8.5 64.0625 14.71875 69.140625 
Q 20.953125 74.21875 31.78125 74.21875 
Q 42.671875 74.21875 48.875 69.140625 
Q 55.078125 64.0625 55.078125 55.328125 
Q 55.078125 49.078125 51.53125 44.71875 
Q 48 40.375 41.703125 38.8125 
Q 48.828125 37.15625 52.796875 32.3125 
Q 56.78125 27.484375 56.78125 20.515625 
Q 56.78125 9.90625 50.3125 4.234375 
Q 43.84375 -1.421875 31.78125 -1.421875 
Q 19.734375 -1.421875 13.25 4.234375 
Q 6.78125 9.90625 6.78125 20.515625 
Q 6.78125 27.484375 10.78125 32.3125 
Q 14.796875 37.15625 21.921875 38.8125 
z
M 18.3125 54.390625 
Q 18.3125 48.734375 21.84375 45.5625 
Q 25.390625 42.390625 31.78125 42.390625 
Q 38.140625 42.390625 41.71875 45.5625 
Q 45.3125 48.734375 45.3125 54.390625 
Q 45.3125 60.0625 41.71875 63.234375 
Q 38.140625 66.40625 31.78125 66.40625 
Q 25.390625 66.40625 21.84375 63.234375 
Q 18.3125 60.0625 18.3125 54.390625 
z
" id="DejaVuSans-56"/>
      </defs>
      <g transform="translate(447.988438 463.158437)scale(0.1 -0.1)">
       <use xlink:href="#DejaVuSans-48"/>
       <use x="63.623047" xlink:href="#DejaVuSans-46"/>
       <use x="95.410156" xlink:href="#DejaVuSans-56"/>
      </g>
     </g>
    </g>
    <g id="xtick_10">
     <g id="line2d_19">
      <path clip-path="url(#pb3ef5f125e)" d="M 503.37 448.56 
L 503.37 60.48 
" style="fill:none;stroke:#b0b0b0;stroke-linecap:square;stroke-width:0.8;"/>
     </g>
     <g id="line2d_20">
      <g>
       <use style="stroke:#000000;stroke-width:0.8;" x="503.37" xlink:href="#m9cd0f7a278" y="448.56"/>
      </g>
     </g>
     <g id="text_10">
      <!-- 0.9 -->
      <defs>
       <path d="M 10.984375 1.515625 
L 10.984375 10.5 
Q 14.703125 8.734375 18.5 7.8125 
Q 22.3125 6.890625 25.984375 6.890625 
Q 35.75 6.890625 40.890625 13.453125 
Q 46.046875 20.015625 46.78125 33.40625 
Q 43.953125 29.203125 39.59375 26.953125 
Q 35.25 24.703125 29.984375 24.703125 
Q 19.046875 24.703125 12.671875 31.3125 
Q 6.296875 37.9375 6.296875 49.421875 
Q 6.296875 60.640625 12.9375 67.421875 
Q 19.578125 74.21875 30.609375 74.21875 
Q 43.265625 74.21875 49.921875 64.515625 
Q 56.59375 54.828125 56.59375 36.375 
Q 56.59375 19.140625 48.40625 8.859375 
Q 40.234375 -1.421875 26.421875 -1.421875 
Q 22.703125 -1.421875 18.890625 -0.6875 
Q 15.09375 0.046875 10.984375 1.515625 
z
M 30.609375 32.421875 
Q 37.25 32.421875 41.125 36.953125 
Q 45.015625 41.5 45.015625 49.421875 
Q 45.015625 57.28125 41.125 61.84375 
Q 37.25 66.40625 30.609375 66.40625 
Q 23.96875 66.40625 20.09375 61.84375 
Q 16.21875 57.28125 16.21875 49.421875 
Q 16.21875 41.5 20.09375 36.953125 
Q 23.96875 32.421875 30.609375 32.421875 
z
" id="DejaVuSans-57"/>
      </defs>
      <g transform="translate(495.418438 463.158437)scale(0.1 -0.1)">
       <use xlink:href="#DejaVuSans-48"/>
       <use x="63.623047" xlink:href="#DejaVuSans-46"/>
       <use x="95.410156" xlink:href="#DejaVuSans-57"/>
      </g>
     </g>
    </g>
    <g id="xtick_11">
     <g id="line2d_21">
      <path clip-path="url(#pb3ef5f125e)" d="M 550.8 448.56 
L 550.8 60.48 
" style="fill:none;stroke:#b0b0b0;stroke-linecap:square;stroke-width:0.8;"/>
     </g>
     <g id="line2d_22">
      <g>
       <use style="stroke:#000000;stroke-width:0.8;" x="550.8" xlink:href="#m9cd0f7a278" y="448.56"/>
      </g>
     </g>
     <g id="text_11">
      <!-- 1.0 -->
      <g transform="translate(542.848438 463.158437)scale(0.1 -0.1)">
       <use xlink:href="#DejaVuSans-49"/>
       <use x="63.623047" xlink:href="#DejaVuSans-46"/>
       <use x="95.410156" xlink:href="#DejaVuSans-48"/>
      </g>
     </g>
    </g>
    <g id="text_12">
     <!-- 1-precision -->
     <defs>
      <path d="M 4.890625 31.390625 
L 31.203125 31.390625 
L 31.203125 23.390625 
L 4.890625 23.390625 
z
" id="DejaVuSans-45"/>
      <path d="M 18.109375 8.203125 
L 18.109375 -20.796875 
L 9.078125 -20.796875 
L 9.078125 54.6875 
L 18.109375 54.6875 
L 18.109375 46.390625 
Q 20.953125 51.265625 25.265625 53.625 
Q 29.59375 56 35.59375 56 
Q 45.5625 56 51.78125 48.09375 
Q 58.015625 40.1875 58.015625 27.296875 
Q 58.015625 14.40625 51.78125 6.484375 
Q 45.5625 -1.421875 35.59375 -1.421875 
Q 29.59375 -1.421875 25.265625 0.953125 
Q 20.953125 3.328125 18.109375 8.203125 
z
M 48.6875 27.296875 
Q 48.6875 37.203125 44.609375 42.84375 
Q 40.53125 48.484375 33.40625 48.484375 
Q 26.265625 48.484375 22.1875 42.84375 
Q 18.109375 37.203125 18.109375 27.296875 
Q 18.109375 17.390625 22.1875 11.75 
Q 26.265625 6.109375 33.40625 6.109375 
Q 40.53125 6.109375 44.609375 11.75 
Q 48.6875 17.390625 48.6875 27.296875 
z
" id="DejaVuSans-112"/>
      <path d="M 41.109375 46.296875 
Q 39.59375 47.171875 37.8125 47.578125 
Q 36.03125 48 33.890625 48 
Q 26.265625 48 22.1875 43.046875 
Q 18.109375 38.09375 18.109375 28.8125 
L 18.109375 0 
L 9.078125 0 
L 9.078125 54.6875 
L 18.109375 54.6875 
L 18.109375 46.1875 
Q 20.953125 51.171875 25.484375 53.578125 
Q 30.03125 56 36.53125 56 
Q 37.453125 56 38.578125 55.875 
Q 39.703125 55.765625 41.0625 55.515625 
z
" id="DejaVuSans-114"/>
      <path d="M 56.203125 29.59375 
L 56.203125 25.203125 
L 14.890625 25.203125 
Q 15.484375 15.921875 20.484375 11.0625 
Q 25.484375 6.203125 34.421875 6.203125 
Q 39.59375 6.203125 44.453125 7.46875 
Q 49.3125 8.734375 54.109375 11.28125 
L 54.109375 2.78125 
Q 49.265625 0.734375 44.1875 -0.34375 
Q 39.109375 -1.421875 33.890625 -1.421875 
Q 20.796875 -1.421875 13.15625 6.1875 
Q 5.515625 13.8125 5.515625 26.8125 
Q 5.515625 40.234375 12.765625 48.109375 
Q 20.015625 56 32.328125 56 
Q 43.359375 56 49.78125 48.890625 
Q 56.203125 41.796875 56.203125 29.59375 
z
M 47.21875 32.234375 
Q 47.125 39.59375 43.09375 43.984375 
Q 39.0625 48.390625 32.421875 48.390625 
Q 24.90625 48.390625 20.390625 44.140625 
Q 15.875 39.890625 15.1875 32.171875 
z
" id="DejaVuSans-101"/>
      <path d="M 48.78125 52.59375 
L 48.78125 44.1875 
Q 44.96875 46.296875 41.140625 47.34375 
Q 37.3125 48.390625 33.40625 48.390625 
Q 24.65625 48.390625 19.8125 42.84375 
Q 14.984375 37.3125 14.984375 27.296875 
Q 14.984375 17.28125 19.8125 11.734375 
Q 24.65625 6.203125 33.40625 6.203125 
Q 37.3125 6.203125 41.140625 7.25 
Q 44.96875 8.296875 48.78125 10.40625 
L 48.78125 2.09375 
Q 45.015625 0.34375 40.984375 -0.53125 
Q 36.96875 -1.421875 32.421875 -1.421875 
Q 20.0625 -1.421875 12.78125 6.34375 
Q 5.515625 14.109375 5.515625 27.296875 
Q 5.515625 40.671875 12.859375 48.328125 
Q 20.21875 56 33.015625 56 
Q 37.15625 56 41.109375 55.140625 
Q 45.0625 54.296875 48.78125 52.59375 
z
" id="DejaVuSans-99"/>
      <path d="M 9.421875 54.6875 
L 18.40625 54.6875 
L 18.40625 0 
L 9.421875 0 
z
M 9.421875 75.984375 
L 18.40625 75.984375 
L 18.40625 64.59375 
L 9.421875 64.59375 
z
" id="DejaVuSans-105"/>
      <path d="M 44.28125 53.078125 
L 44.28125 44.578125 
Q 40.484375 46.53125 36.375 47.5 
Q 32.28125 48.484375 27.875 48.484375 
Q 21.1875 48.484375 17.84375 46.4375 
Q 14.5 44.390625 14.5 40.28125 
Q 14.5 37.15625 16.890625 35.375 
Q 19.28125 33.59375 26.515625 31.984375 
L 29.59375 31.296875 
Q 39.15625 29.25 43.1875 25.515625 
Q 47.21875 21.78125 47.21875 15.09375 
Q 47.21875 7.46875 41.1875 3.015625 
Q 35.15625 -1.421875 24.609375 -1.421875 
Q 20.21875 -1.421875 15.453125 -0.5625 
Q 10.6875 0.296875 5.421875 2 
L 5.421875 11.28125 
Q 10.40625 8.6875 15.234375 7.390625 
Q 20.0625 6.109375 24.8125 6.109375 
Q 31.15625 6.109375 34.5625 8.28125 
Q 37.984375 10.453125 37.984375 14.40625 
Q 37.984375 18.0625 35.515625 20.015625 
Q 33.0625 21.96875 24.703125 23.78125 
L 21.578125 24.515625 
Q 13.234375 26.265625 9.515625 29.90625 
Q 5.8125 33.546875 5.8125 39.890625 
Q 5.8125 47.609375 11.28125 51.796875 
Q 16.75 56 26.8125 56 
Q 31.78125 56 36.171875 55.265625 
Q 40.578125 54.546875 44.28125 53.078125 
z
" id="DejaVuSans-115"/>
      <path d="M 30.609375 48.390625 
Q 23.390625 48.390625 19.1875 42.75 
Q 14.984375 37.109375 14.984375 27.296875 
Q 14.984375 17.484375 19.15625 11.84375 
Q 23.34375 6.203125 30.609375 6.203125 
Q 37.796875 6.203125 41.984375 11.859375 
Q 46.1875 17.53125 46.1875 27.296875 
Q 46.1875 37.015625 41.984375 42.703125 
Q 37.796875 48.390625 30.609375 48.390625 
z
M 30.609375 56 
Q 42.328125 56 49.015625 48.375 
Q 55.71875 40.765625 55.71875 27.296875 
Q 55.71875 13.875 49.015625 6.21875 
Q 42.328125 -1.421875 30.609375 -1.421875 
Q 18.84375 -1.421875 12.171875 6.21875 
Q 5.515625 13.875 5.515625 27.296875 
Q 5.515625 40.765625 12.171875 48.375 
Q 18.84375 56 30.609375 56 
z
" id="DejaVuSans-111"/>
      <path d="M 54.890625 33.015625 
L 54.890625 0 
L 45.90625 0 
L 45.90625 32.71875 
Q 45.90625 40.484375 42.875 44.328125 
Q 39.84375 48.1875 33.796875 48.1875 
Q 26.515625 48.1875 22.3125 43.546875 
Q 18.109375 38.921875 18.109375 30.90625 
L 18.109375 0 
L 9.078125 0 
L 9.078125 54.6875 
L 18.109375 54.6875 
L 18.109375 46.1875 
Q 21.34375 51.125 25.703125 53.5625 
Q 30.078125 56 35.796875 56 
Q 45.21875 56 50.046875 50.171875 
Q 54.890625 44.34375 54.890625 33.015625 
z
" id="DejaVuSans-110"/>
     </defs>
     <g transform="translate(286.110938 476.836563)scale(0.1 -0.1)">
      <use xlink:href="#DejaVuSans-49"/>
      <use x="63.623047" xlink:href="#DejaVuSans-45"/>
      <use x="99.707031" xlink:href="#DejaVuSans-112"/>
      <use x="163.183594" xlink:href="#DejaVuSans-114"/>
      <use x="202.046875" xlink:href="#DejaVuSans-101"/>
      <use x="263.570312" xlink:href="#DejaVuSans-99"/>
      <use x="318.550781" xlink:href="#DejaVuSans-105"/>
      <use x="346.333984" xlink:href="#DejaVuSans-115"/>
      <use x="398.433594" xlink:href="#DejaVuSans-105"/>
      <use x="426.216797" xlink:href="#DejaVuSans-111"/>
      <use x="487.398438" xlink:href="#DejaVuSans-110"/>
     </g>
    </g>
   </g>
   <g id="matplotlib.axis_2">
    <g id="ytick_1">
     <g id="line2d_23">
      <path clip-path="url(#pb3ef5f125e)" d="M 76.5 448.56 
L 550.8 448.56 
" style="fill:none;stroke:#b0b0b0;stroke-linecap:square;stroke-width:0.8;"/>
     </g>
     <g id="line2d_24">
      <defs>
       <path d="M 0 0 
L -3.5 0 
" id="m4b00d3ae69" style="stroke:#000000;stroke-width:0.8;"/>
      </defs>
      <g>
       <use style="stroke:#000000;stroke-width:0.8;" x="76.5" xlink:href="#m4b00d3ae69" y="448.56"/>
      </g>
     </g>
     <g id="text_13">
      <!-- 0.0 -->
      <g transform="translate(53.596875 452.359219)scale(0.1 -0.1)">
       <use xlink:href="#DejaVuSans-48"/>
       <use x="63.623047" xlink:href="#DejaVuSans-46"/>
       <use x="95.410156" xlink:href="#DejaVuSans-48"/>
      </g>
     </g>
    </g>
    <g id="ytick_2">
     <g id="line2d_25">
      <path clip-path="url(#pb3ef5f125e)" d="M 76.5 409.752 
L 550.8 409.752 
" style="fill:none;stroke:#b0b0b0;stroke-linecap:square;stroke-width:0.8;"/>
     </g>
     <g id="line2d_26">
      <g>
       <use style="stroke:#000000;stroke-width:0.8;" x="76.5" xlink:href="#m4b00d3ae69" y="409.752"/>
      </g>
     </g>
     <g id="text_14">
      <!-- 0.1 -->
      <g transform="translate(53.596875 413.551219)scale(0.1 -0.1)">
       <use xlink:href="#DejaVuSans-48"/>
       <use x="63.623047" xlink:href="#DejaVuSans-46"/>
       <use x="95.410156" xlink:href="#DejaVuSans-49"/>
      </g>
     </g>
    </g>
    <g id="ytick_3">
     <g id="line2d_27">
      <path clip-path="url(#pb3ef5f125e)" d="M 76.5 370.944 
L 550.8 370.944 
" style="fill:none;stroke:#b0b0b0;stroke-linecap:square;stroke-width:0.8;"/>
     </g>
     <g id="line2d_28">
      <g>
       <use style="stroke:#000000;stroke-width:0.8;" x="76.5" xlink:href="#m4b00d3ae69" y="370.944"/>
      </g>
     </g>
     <g id="text_15">
      <!-- 0.2 -->
      <g transform="translate(53.596875 374.743219)scale(0.1 -0.1)">
       <use xlink:href="#DejaVuSans-48"/>
       <use x="63.623047" xlink:href="#DejaVuSans-46"/>
       <use x="95.410156" xlink:href="#DejaVuSans-50"/>
      </g>
     </g>
    </g>
    <g id="ytick_4">
     <g id="line2d_29">
      <path clip-path="url(#pb3ef5f125e)" d="M 76.5 332.136 
L 550.8 332.136 
" style="fill:none;stroke:#b0b0b0;stroke-linecap:square;stroke-width:0.8;"/>
     </g>
     <g id="line2d_30">
      <g>
       <use style="stroke:#000000;stroke-width:0.8;" x="76.5" xlink:href="#m4b00d3ae69" y="332.136"/>
      </g>
     </g>
     <g id="text_16">
      <!-- 0.3 -->
      <g transform="translate(53.596875 335.935219)scale(0.1 -0.1)">
       <use xlink:href="#DejaVuSans-48"/>
       <use x="63.623047" xlink:href="#DejaVuSans-46"/>
       <use x="95.410156" xlink:href="#DejaVuSans-51"/>
      </g>
     </g>
    </g>
    <g id="ytick_5">
     <g id="line2d_31">
      <path clip-path="url(#pb3ef5f125e)" d="M 76.5 293.328 
L 550.8 293.328 
" style="fill:none;stroke:#b0b0b0;stroke-linecap:square;stroke-width:0.8;"/>
     </g>
     <g id="line2d_32">
      <g>
       <use style="stroke:#000000;stroke-width:0.8;" x="76.5" xlink:href="#m4b00d3ae69" y="293.328"/>
      </g>
     </g>
     <g id="text_17">
      <!-- 0.4 -->
      <g transform="translate(53.596875 297.127219)scale(0.1 -0.1)">
       <use xlink:href="#DejaVuSans-48"/>
       <use x="63.623047" xlink:href="#DejaVuSans-46"/>
       <use x="95.410156" xlink:href="#DejaVuSans-52"/>
      </g>
     </g>
    </g>
    <g id="ytick_6">
     <g id="line2d_33">
      <path clip-path="url(#pb3ef5f125e)" d="M 76.5 254.52 
L 550.8 254.52 
" style="fill:none;stroke:#b0b0b0;stroke-linecap:square;stroke-width:0.8;"/>
     </g>
     <g id="line2d_34">
      <g>
       <use style="stroke:#000000;stroke-width:0.8;" x="76.5" xlink:href="#m4b00d3ae69" y="254.52"/>
      </g>
     </g>
     <g id="text_18">
      <!-- 0.5 -->
      <g transform="translate(53.596875 258.319219)scale(0.1 -0.1)">
       <use xlink:href="#DejaVuSans-48"/>
       <use x="63.623047" xlink:href="#DejaVuSans-46"/>
       <use x="95.410156" xlink:href="#DejaVuSans-53"/>
      </g>
     </g>
    </g>
    <g id="ytick_7">
     <g id="line2d_35">
      <path clip-path="url(#pb3ef5f125e)" d="M 76.5 215.712 
L 550.8 215.712 
" style="fill:none;stroke:#b0b0b0;stroke-linecap:square;stroke-width:0.8;"/>
     </g>
     <g id="line2d_36">
      <g>
       <use style="stroke:#000000;stroke-width:0.8;" x="76.5" xlink:href="#m4b00d3ae69" y="215.712"/>
      </g>
     </g>
     <g id="text_19">
      <!-- 0.6 -->
      <g transform="translate(53.596875 219.511219)scale(0.1 -0.1)">
       <use xlink:href="#DejaVuSans-48"/>
       <use x="63.623047" xlink:href="#DejaVuSans-46"/>
       <use x="95.410156" xlink:href="#DejaVuSans-54"/>
      </g>
     </g>
    </g>
    <g id="ytick_8">
     <g id="line2d_37">
      <path clip-path="url(#pb3ef5f125e)" d="M 76.5 176.904 
L 550.8 176.904 
" style="fill:none;stroke:#b0b0b0;stroke-linecap:square;stroke-width:0.8;"/>
     </g>
     <g id="line2d_38">
      <g>
       <use style="stroke:#000000;stroke-width:0.8;" x="76.5" xlink:href="#m4b00d3ae69" y="176.904"/>
      </g>
     </g>
     <g id="text_20">
      <!-- 0.7 -->
      <g transform="translate(53.596875 180.703219)scale(0.1 -0.1)">
       <use xlink:href="#DejaVuSans-48"/>
       <use x="63.623047" xlink:href="#DejaVuSans-46"/>
       <use x="95.410156" xlink:href="#DejaVuSans-55"/>
      </g>
     </g>
    </g>
    <g id="ytick_9">
     <g id="line2d_39">
      <path clip-path="url(#pb3ef5f125e)" d="M 76.5 138.096 
L 550.8 138.096 
" style="fill:none;stroke:#b0b0b0;stroke-linecap:square;stroke-width:0.8;"/>
     </g>
     <g id="line2d_40">
      <g>
       <use style="stroke:#000000;stroke-width:0.8;" x="76.5" xlink:href="#m4b00d3ae69" y="138.096"/>
      </g>
     </g>
     <g id="text_21">
      <!-- 0.8 -->
      <g transform="translate(53.596875 141.895219)scale(0.1 -0.1)">
       <use xlink:href="#DejaVuSans-48"/>
       <use x="63.623047" xlink:href="#DejaVuSans-46"/>
       <use x="95.410156" xlink:href="#DejaVuSans-56"/>
      </g>
     </g>
    </g>
    <g id="ytick_10">
     <g id="line2d_41">
      <path clip-path="url(#pb3ef5f125e)" d="M 76.5 99.288 
L 550.8 99.288 
" style="fill:none;stroke:#b0b0b0;stroke-linecap:square;stroke-width:0.8;"/>
     </g>
     <g id="line2d_42">
      <g>
       <use style="stroke:#000000;stroke-width:0.8;" x="76.5" xlink:href="#m4b00d3ae69" y="99.288"/>
      </g>
     </g>
     <g id="text_22">
      <!-- 0.9 -->
      <g transform="translate(53.596875 103.087219)scale(0.1 -0.1)">
       <use xlink:href="#DejaVuSans-48"/>
       <use x="63.623047" xlink:href="#DejaVuSans-46"/>
       <use x="95.410156" xlink:href="#DejaVuSans-57"/>
      </g>
     </g>
    </g>
    <g id="ytick_11">
     <g id="line2d_43">
      <path clip-path="url(#pb3ef5f125e)" d="M 76.5 60.48 
L 550.8 60.48 
" style="fill:none;stroke:#b0b0b0;stroke-linecap:square;stroke-width:0.8;"/>
     </g>
     <g id="line2d_44">
      <g>
       <use style="stroke:#000000;stroke-width:0.8;" x="76.5" xlink:href="#m4b00d3ae69" y="60.48"/>
      </g>
     </g>
     <g id="text_23">
      <!-- 1.0 -->
      <g transform="translate(53.596875 64.279219)scale(0.1 -0.1)">
       <use xlink:href="#DejaVuSans-49"/>
       <use x="63.623047" xlink:href="#DejaVuSans-46"/>
       <use x="95.410156" xlink:href="#DejaVuSans-48"/>
      </g>
     </g>
    </g>
    <g id="text_24">
     <!-- #correct/744 -->
     <defs>
      <path d="M 51.125 44 
L 36.921875 44 
L 32.8125 27.6875 
L 47.125 27.6875 
z
M 43.796875 71.78125 
L 38.71875 51.515625 
L 52.984375 51.515625 
L 58.109375 71.78125 
L 65.921875 71.78125 
L 60.890625 51.515625 
L 76.125 51.515625 
L 76.125 44 
L 58.984375 44 
L 54.984375 27.6875 
L 70.515625 27.6875 
L 70.515625 20.21875 
L 53.078125 20.21875 
L 48 0 
L 40.1875 0 
L 45.21875 20.21875 
L 30.90625 20.21875 
L 25.875 0 
L 18.015625 0 
L 23.09375 20.21875 
L 7.71875 20.21875 
L 7.71875 27.6875 
L 24.90625 27.6875 
L 29 44 
L 13.28125 44 
L 13.28125 51.515625 
L 30.90625 51.515625 
L 35.890625 71.78125 
z
" id="DejaVuSans-35"/>
      <path d="M 18.3125 70.21875 
L 18.3125 54.6875 
L 36.8125 54.6875 
L 36.8125 47.703125 
L 18.3125 47.703125 
L 18.3125 18.015625 
Q 18.3125 11.328125 20.140625 9.421875 
Q 21.96875 7.515625 27.59375 7.515625 
L 36.8125 7.515625 
L 36.8125 0 
L 27.59375 0 
Q 17.1875 0 13.234375 3.875 
Q 9.28125 7.765625 9.28125 18.015625 
L 9.28125 47.703125 
L 2.6875 47.703125 
L 2.6875 54.6875 
L 9.28125 54.6875 
L 9.28125 70.21875 
z
" id="DejaVuSans-116"/>
      <path d="M 25.390625 72.90625 
L 33.6875 72.90625 
L 8.296875 -9.28125 
L 0 -9.28125 
z
" id="DejaVuSans-47"/>
     </defs>
     <g transform="translate(47.517187 287.443438)rotate(-90)scale(0.1 -0.1)">
      <use xlink:href="#DejaVuSans-35"/>
      <use x="83.789062" xlink:href="#DejaVuSans-99"/>
      <use x="138.769531" xlink:href="#DejaVuSans-111"/>
      <use x="199.951172" xlink:href="#DejaVuSans-114"/>
      <use x="239.314453" xlink:href="#DejaVuSans-114"/>
      <use x="278.177734" xlink:href="#DejaVuSans-101"/>
      <use x="339.701172" xlink:href="#DejaVuSans-99"/>
      <use x="394.681641" xlink:href="#DejaVuSans-116"/>
      <use x="433.890625" xlink:href="#DejaVuSans-47"/>
      <use x="467.582031" xlink:href="#DejaVuSans-55"/>
      <use x="531.205078" xlink:href="#DejaVuSans-52"/>
      <use x="594.828125" xlink:href="#DejaVuSans-52"/>
     </g>
    </g>
   </g>
   <g id="line2d_45">
    <path clip-path="url(#pb3ef5f125e)" d="M 76.5 448.038387 
L 76.5 391.704194 
L 80.811818 391.704194 
L 80.176744 381.793548 
L 79.57987 368.753226 
L 79.483019 366.145161 
L 82.42875 366.145161 
L 81.983237 359.364194 
L 84.677586 359.364194 
L 83.759694 347.88871 
L 83.275714 340.586129 
L 85.491469 340.586129 
L 84.677586 329.632258 
L 86.678112 329.632258 
L 86.024096 321.286452 
L 87.8832 321.286452 
L 86.81087 307.724516 
L 86.591489 304.594839 
L 88.231802 304.594839 
L 87.604013 296.249032 
L 89.148 296.249032 
L 88.819481 292.076129 
L 90.314563 292.076129 
L 90.27 291.554516 
L 91.750804 291.554516 
L 91.557143 289.468065 
L 93.010443 289.468065 
L 92.652632 285.816774 
L 94.066667 285.816774 
L 94.012615 285.295161 
L 98.190549 285.295161 
L 96.711648 272.776452 
L 96.04533 266.517097 
L 97.291233 266.517097 
L 96.790909 261.822581 
L 98.0016 261.822581 
L 97.830952 260.257742 
L 99.026121 260.257742 
L 98.390769 254.52 
L 99.547826 254.52 
L 99.489031 253.998387 
L 100.637405 253.998387 
L 99.75 246.174194 
L 100.852812 246.174194 
L 100.500723 243.044516 
L 101.583173 243.044516 
L 100.432569 232.612258 
L 101.463158 232.612258 
L 101.180769 230.004194 
L 102.195711 230.004194 
L 101.965772 227.917742 
L 102.967634 227.917742 
L 102.617841 224.788065 
L 103.602857 224.788065 
L 103.134557 220.615161 
L 104.099353 220.615161 
L 103.805117 218.007097 
L 104.75617 218.007097 
L 104.696178 217.485484 
L 105.641314 217.485484 
L 105.579704 216.963871 
L 106.518987 216.963871 
L 106.392857 215.920645 
L 107.324528 215.920645 
L 106.941615 212.790968 
L 108.771959 212.790968 
L 108.705556 212.269355 
L 109.613347 212.269355 
L 108.817034 206.01 
L 109.701 206.01 
L 109.568725 204.966774 
L 110.445924 204.966774 
L 110.045776 201.837097 
L 110.91 201.837097 
L 110.842661 201.315484 
L 111.701953 201.315484 
L 111.633333 200.793871 
L 112.487743 200.793871 
L 112.0725 197.664194 
L 112.914587 197.664194 
L 112.637143 195.577742 
L 113.470152 195.577742 
L 113.330114 194.534516 
L 114.980943 194.534516 
L 114.764353 192.969677 
L 115.580899 192.969677 
L 115.36257 191.404839 
L 116.171933 191.404839 
L 115.879151 189.318387 
L 116.68011 189.318387 
L 116.313504 186.710323 
L 117.104918 186.710323 
L 116.957532 185.667097 
L 118.526582 185.667097 
L 118.450722 185.145484 
L 119.22973 185.145484 
L 118.697509 181.494194 
L 120.229787 181.494194 
L 119.998413 179.929355 
L 122.265789 179.929355 
L 122.185639 179.407742 
L 122.934965 179.407742 
L 122.373575 175.756452 
L 123.112241 175.756452 
L 122.872384 174.191613 
L 124.335385 174.191613 
L 124.172402 173.148387 
L 124.897959 173.148387 
L 124.815789 172.626774 
L 125.537797 172.626774 
L 125.454822 172.105161 
L 126.889376 172.105161 
L 126.72 171.061935 
L 127.431544 171.061935 
L 127.261204 170.01871 
L 127.96828 170.01871 
L 127.797005 168.975484 
L 129.898013 168.975484 
L 129.809752 168.453871 
L 131.19687 168.453871 
L 131.017241 167.410645 
L 131.70541 167.410645 
L 131.525 166.367419 
L 132.208972 166.367419 
L 132.027805 165.324194 
L 133.385251 165.324194 
L 133.201454 164.280968 
L 133.875 164.280968 
L 133.782609 163.759355 
L 134.453055 163.759355 
L 134.267308 162.716129 
L 134.93376 162.716129 
L 134.840415 162.194516 
L 136.824324 162.194516 
L 136.443128 160.108065 
L 137.096688 160.108065 
L 137.00126 159.586452 
L 138.300471 159.586452 
L 138.203605 159.064839 
L 139.492969 159.064839 
L 139.394696 158.543226 
L 140.035514 158.543226 
L 139.838199 157.5 
L 140.475349 157.5 
L 140.376316 156.978387 
L 141.643056 156.978387 
L 141.442615 155.935161 
L 143.323277 155.935161 
L 143.119237 154.891935 
L 143.740701 154.891935 
L 143.638356 154.370323 
L 144.257143 154.370323 
L 144.154325 153.84871 
L 145.38472 153.84871 
L 145.176923 152.805484 
L 146.396842 152.805484 
L 146.082934 151.240645 
L 147.291045 151.240645 
L 147.185544 150.719032 
L 147.786161 150.719032 
L 147.680238 150.197419 
L 149.469231 150.197419 
L 149.361448 149.675806 
L 151.1325 149.675806 
L 151.022907 149.154194 
L 152.776316 149.154194 
L 152.553936 148.110968 
L 153.711628 148.110968 
L 153.599565 147.589355 
L 154.175217 147.589355 
L 154.062808 147.067742 
L 155.77781 147.067742 
L 155.436585 145.502903 
L 156.567811 145.502903 
L 156.453429 144.98129 
L 157.576923 144.98129 
L 156.66338 140.808387 
L 157.217722 140.808387 
L 156.991304 139.765161 
L 157.542857 139.765161 
L 157.42951 139.243548 
L 157.978911 139.243548 
L 157.75195 138.200323 
L 158.84375 138.200323 
L 158.615651 137.157097 
L 159.158091 137.157097 
L 159.043923 136.635484 
L 159.584276 136.635484 
L 159.241896 135.070645 
L 160.314658 135.070645 
L 160.085656 134.027419 
L 162.209103 134.027419 
L 162.092809 133.505806 
L 163.668649 133.505806 
L 163.551012 132.984194 
L 164.072911 132.984194 
L 163.955047 132.462581 
L 164.475 132.462581 
L 164.356913 131.940968 
L 164.874933 131.940968 
L 164.286551 129.332903 
L 165.313147 129.332903 
L 165.195358 128.81129 
L 165.706093 128.81129 
L 165.588095 128.289677 
L 166.604485 128.289677 
L 166.485771 127.768065 
L 167.998819 127.768065 
L 167.878899 127.246452 
L 168.380105 127.246452 
L 167.901563 125.16 
L 168.39948 125.16 
L 168.28013 124.638387 
L 168.776265 124.638387 
L 168.656736 124.116774 
L 169.1511 124.116774 
L 168.555656 121.50871 
L 173.884791 121.50871 
L 173.515909 119.943871 
L 175.882811 119.943871 
L 175.758271 119.422258 
L 176.22766 119.422258 
L 176.103 118.900645 
L 176.570787 118.900645 
L 176.321544 117.857419 
L 178.177695 117.857419 
L 178.051856 117.335806 
L 179.888054 117.335806 
L 179.634029 116.292581 
L 180.99694 116.292581 
L 180.869193 115.770968 
L 181.320879 115.770968 
L 181.06553 114.727742 
L 182.41165 114.727742 
L 182.155206 113.684516 
L 183.045652 113.684516 
L 182.788916 112.64129 
L 183.673558 112.64129 
L 183.544898 112.119677 
L 184.424551 112.119677 
L 184.295455 111.598065 
L 184.733333 111.598065 
L 184.604177 111.076452 
L 188.495277 111.076452 
L 188.363208 110.554839 
L 190.064789 110.554839 
L 189.931653 110.033226 
L 195.348845 110.033226 
L 195.211765 109.511613 
L 195.621429 109.511613 
L 195.48435 108.99 
L 199.526621 108.99 
L 199.386818 108.468387 
L 203.335281 108.468387 
L 203.192929 107.946774 
L 205.902561 107.946774 
L 205.758621 107.425161 
L 206.142 107.425161 
L 205.998113 106.903548 
L 206.761794 106.903548 
L 206.473923 105.860323 
L 207.989109 105.860323 
L 207.700439 104.817097 
L 208.076645 104.817097 
L 207.93253 104.295484 
L 210.171055 104.295484 
L 210.025761 103.773871 
L 214.052095 103.773871 
L 213.904506 103.252258 
L 214.265595 103.252258 
L 213.824038 101.687419 
L 214.900639 101.687419 
L 214.753404 101.165806 
L 222.779439 101.165806 
L 222.627697 100.644194 
L 224.657629 100.644194 
L 224.200822 99.079355 
L 228.833435 99.079355 
L 228.525379 98.036129 
L 229.175782 98.036129 
L 229.021875 97.514516 
L 242.985246 97.514516 
L 242.824855 96.992903 
L 243.417115 96.992903 
L 243.256772 96.47129 
L 245.602193 96.47129 
L 245.441143 95.949677 
L 245.731684 95.949677 
L 245.570817 95.428065 
L 246.726989 95.428065 
L 246.565941 94.906452 
L 247.426981 94.906452 
L 247.265881 94.384839 
L 252.329472 94.384839 
L 252.166667 93.863226 
L 253.542857 93.863226 
L 253.379834 93.341613 
L 255.824384 93.341613 
L 255.660766 92.82 
L 259.907374 92.82 
L 259.742588 92.298387 
L 260.78487 92.298387 
L 260.620036 91.776774 
L 266.966929 91.776774 
L 266.800437 91.255161 
L 271.199742 91.255161 
L 271.03233 90.733548 
L 276.226329 90.733548 
L 276.057926 90.211935 
L 288.656718 90.211935 
L 288.486174 89.690323 
L 295.464789 89.690323 
L 295.293589 89.16871 
L 299.227483 89.16871 
L 299.056154 88.647097 
L 305.104054 88.647097 
L 304.932558 88.125484 
L 324.459323 88.125484 
L 324.459323 88.125484 
" style="fill:none;stroke:#1f77b4;stroke-linecap:square;stroke-width:2;"/>
   </g>
   <g id="line2d_46">
    <path clip-path="url(#pb3ef5f125e)" d="M 76.5 448.038387 
L 76.5 419.349677 
L 84.821053 419.349677 
L 84.27541 417.263226 
L 91.8 417.263226 
L 90.45 414.133548 
L 89.148 410.482258 
L 88.507595 408.395806 
L 94.28625 408.395806 
L 92.855172 404.744516 
L 91.477895 400.571613 
L 90.181731 395.877097 
L 89.318919 392.225806 
L 93.439286 392.225806 
L 92.855172 390.139355 
L 96.769231 390.139355 
L 95.321429 385.444839 
L 93.9375 380.22871 
L 93.561151 378.663871 
L 96.827143 378.663871 
L 96.540845 377.620645 
L 102.85 377.620645 
L 102.312245 376.055806 
L 105.342568 376.055806 
L 105.148993 375.534194 
L 108.12 375.534194 
L 107.298701 373.447742 
L 110.16 373.447742 
L 108.705556 369.796452 
L 111.417791 369.796452 
L 110.378571 367.188387 
L 112.984615 367.188387 
L 112.557895 366.145161 
L 115.105814 366.145161 
L 112.984615 360.929032 
L 112.588043 359.885806 
L 114.956757 359.885806 
L 114.343085 358.320968 
L 116.652381 358.320968 
L 116.441053 357.799355 
L 118.715183 357.799355 
L 118.27772 356.756129 
L 120.507216 356.756129 
L 118.974627 353.104839 
L 121.112376 353.104839 
L 119.209479 348.410323 
L 121.245283 348.410323 
L 119.815068 344.759032 
L 121.774091 344.759032 
L 121.569231 344.237419 
L 123.502703 344.237419 
L 122.670796 342.150968 
L 124.556828 342.150968 
L 123.521121 339.542903 
L 125.354936 339.542903 
L 124.328571 336.934839 
L 126.112971 336.934839 
L 125.90625 336.413226 
L 129.417769 336.413226 
L 129.2 335.891613 
L 130.927869 335.891613 
L 130.266802 334.326774 
L 133.644578 334.326774 
L 133.416 333.805161 
L 135.078884 333.805161 
L 133.051154 329.110645 
L 134.651724 329.110645 
L 133.990909 327.545806 
L 135.563774 327.545806 
L 135.341729 327.024194 
L 136.897753 327.024194 
L 136.448699 325.980968 
L 137.983333 325.980968 
L 137.53125 324.937742 
L 140.54781 324.937742 
L 140.314909 324.416129 
L 144.744604 324.416129 
L 143.068421 320.764839 
L 144.494056 320.764839 
L 143.325773 318.156774 
L 144.721233 318.156774 
L 143.347651 315.027097 
L 144.710368 315.027097 
L 144.257143 313.983871 
L 146.940594 313.983871 
L 146.708882 313.462258 
L 148.03377 313.462258 
L 147.107767 311.375806 
L 148.41 311.375806 
L 147.720767 309.810968 
L 149.004459 309.810968 
L 147.423364 306.159677 
L 148.676087 306.159677 
L 146.926364 301.986774 
L 148.146526 301.986774 
L 145.639942 295.727419 
L 147.988696 295.727419 
L 147.576657 294.684194 
L 148.735345 294.684194 
L 147.914489 292.597742 
L 150.190678 292.597742 
L 149.571429 291.032903 
L 150.692179 291.032903 
L 150.075623 289.468065 
L 151.182597 289.468065 
L 149.964946 286.338387 
L 151.05122 286.338387 
L 150.45 284.773548 
L 151.523324 284.773548 
L 151.322727 284.251935 
L 154.501592 284.251935 
L 154.089974 283.20871 
L 155.133947 283.20871 
L 154.314844 281.122258 
L 157.388372 281.122258 
L 157.179897 280.600645 
L 158.191774 280.600645 
L 157.773913 279.557419 
L 158.776531 279.557419 
L 158.358883 278.514194 
L 159.352405 278.514194 
L 157.909701 274.862903 
L 159.854703 274.862903 
L 158.634878 271.733226 
L 159.589051 271.733226 
L 159.387379 271.211613 
L 160.335109 271.211613 
L 160.132609 270.69 
L 161.073976 270.69 
L 160.668345 269.646774 
L 164.375059 269.646774 
L 163.959574 268.603548 
L 164.871934 268.603548 
L 164.251054 267.03871 
L 165.154206 267.03871 
L 164.74186 265.995484 
L 165.637587 265.995484 
L 165.021429 264.430645 
L 166.791055 264.430645 
L 165.364334 260.779355 
L 167.096629 260.779355 
L 166.691275 259.736129 
L 167.548661 259.736129 
L 166.543709 257.128065 
L 168.232747 257.128065 
L 167.831291 256.084839 
L 168.667467 256.084839 
L 167.672138 253.476774 
L 168.497845 253.476774 
L 167.517058 250.86871 
L 168.332553 250.86871 
L 167.750106 249.303871 
L 168.558228 249.303871 
L 168.171429 248.260645 
L 169.772385 248.260645 
L 169.190644 246.695806 
L 169.982365 246.695806 
L 169.212963 244.609355 
L 169.996509 244.609355 
L 169.424082 243.044516 
L 171.744828 243.044516 
L 170.599599 239.914839 
L 171.36 239.914839 
L 170.982072 238.871613 
L 171.737177 238.871613 
L 171.548214 238.35 
L 172.299208 238.35 
L 171.921302 237.306774 
L 172.667126 237.306774 
L 172.478193 236.785161 
L 173.22 236.785161 
L 172.467315 234.69871 
L 173.201942 234.69871 
L 173.014535 234.177097 
L 173.745261 234.177097 
L 173.557529 233.655484 
L 174.284393 233.655484 
L 173.909021 232.612258 
L 174.631034 232.612258 
L 174.070286 231.047419 
L 174.786502 231.047419 
L 173.861017 228.439355 
L 174.569549 228.439355 
L 174.385553 227.917742 
L 177.189385 227.917742 
L 176.260517 225.309677 
L 178.322202 225.309677 
L 177.580328 223.223226 
L 181.615135 223.223226 
L 180.490909 220.093548 
L 183.762191 220.093548 
L 183.573016 219.571935 
L 184.219542 219.571935 
L 183.841579 218.52871 
L 184.484238 218.52871 
L 183.733043 216.442258 
L 185.005373 216.442258 
L 183.704795 212.790968 
L 184.332308 212.790968 
L 183.964906 211.747742 
L 190.712709 211.747742 
L 189.953821 209.66129 
L 190.552239 209.66129 
L 190.363411 209.139677 
L 191.55297 209.139677 
L 191.174507 208.096452 
L 191.765025 208.096452 
L 191.576066 207.574839 
L 192.163993 207.574839 
L 191.786623 206.531613 
L 192.371336 206.531613 
L 192.182927 206.01 
L 192.765097 206.01 
L 192.576661 205.488387 
L 194.31 205.488387 
L 193.36752 202.880323 
L 194.507656 202.880323 
L 193.945714 201.315484 
L 194.511252 201.315484 
L 194.324525 200.793871 
L 195.449054 200.793871 
L 195.075 199.750645 
L 195.633438 199.750645 
L 195.075 198.185806 
L 195.629953 198.185806 
L 195.075 196.620968 
L 196.72442 196.620968 
L 195.256031 192.448065 
L 196.338356 192.448065 
L 196.156231 191.926452 
L 196.694385 191.926452 
L 196.512273 191.404839 
L 200.230435 191.404839 
L 200.04521 190.883226 
L 201.092239 190.883226 
L 200.906557 190.361613 
L 201.94636 190.361613 
L 201.760237 189.84 
L 202.792899 189.84 
L 202.606352 189.318387 
L 203.119912 189.318387 
L 202.562115 187.753548 
L 203.072727 187.753548 
L 202.887408 187.231935 
L 204.408892 187.231935 
L 204.222707 186.710323 
L 206.228944 186.710323 
L 205.854545 185.667097 
L 206.847194 185.667097 
L 206.473171 184.623871 
L 206.966476 184.623871 
L 206.779828 184.102258 
L 207.271286 184.102258 
L 207.084736 183.580645 
L 207.574359 183.580645 
L 207.201989 182.537419 
L 208.659972 182.537419 
L 208.473305 182.015806 
L 208.956135 182.015806 
L 208.769577 181.494194 
L 209.730337 181.494194 
L 209.543478 180.972581 
L 210.021429 180.972581 
L 209.648464 179.929355 
L 210.124268 179.929355 
L 209.938162 179.407742 
L 210.412239 179.407742 
L 210.040777 178.364516 
L 210.512742 178.364516 
L 210.142541 177.32129 
L 210.612414 177.32129 
L 210.427686 176.799677 
L 212.29274 176.799677 
L 212.106977 176.278065 
L 215.319512 176.278065 
L 215.131664 175.756452 
L 217.3875 175.756452 
L 217.198389 175.234839 
L 219.4224 175.234839 
L 218.664191 173.148387 
L 219.980449 173.148387 
L 219.038976 170.540323 
L 219.473788 170.540323 
L 219.286649 170.01871 
L 220.583312 170.01871 
L 220.395703 169.497097 
L 220.825358 169.497097 
L 220.637922 168.975484 
L 221.493264 168.975484 
L 221.118605 167.932258 
L 221.544 167.932258 
L 221.170656 166.889032 
L 223.278261 166.889032 
L 222.717325 165.324194 
L 223.966371 165.324194 
L 223.593038 164.280968 
L 224.419318 164.280968 
L 223.861132 162.716129 
L 224.271859 162.716129 
L 223.901504 161.672903 
L 224.71875 161.672903 
L 224.349127 160.629677 
L 225.565714 160.629677 
L 225.380769 160.108065 
L 225.784015 160.108065 
L 225.599257 159.586452 
L 226.802219 159.586452 
L 225.698409 156.456774 
L 226.095844 156.456774 
L 225.913187 155.935161 
L 227.492224 155.935161 
L 227.308981 155.413548 
L 229.260072 155.413548 
L 229.076024 154.891935 
L 229.463177 154.891935 
L 229.279327 154.370323 
L 230.05036 154.370323 
L 229.866467 153.84871 
L 230.250359 153.84871 
L 230.066667 153.327097 
L 231.212143 153.327097 
L 231.028181 152.805484 
L 231.786833 152.805484 
L 231.602844 152.283871 
L 232.357447 152.283871 
L 232.173436 151.762258 
L 234.04331 151.762258 
L 233.674356 150.719032 
L 235.88686 150.719032 
L 235.701742 150.197419 
L 237.158844 150.197419 
L 236.788235 149.154194 
L 237.871034 149.154194 
L 237.500917 148.110968 
L 239.641913 148.110968 
L 239.456314 147.589355 
L 239.810114 147.589355 
L 239.255266 146.024516 
L 239.959322 146.024516 
L 239.590755 144.98129 
L 241.335202 144.98129 
L 241.150616 144.459677 
L 245.930209 144.459677 
L 245.743612 143.938065 
L 246.079208 143.938065 
L 245.892857 143.416452 
L 249.207065 143.416452 
L 249.019544 142.894839 
L 250.649028 142.894839 
L 250.461165 142.373226 
L 252.072425 142.373226 
L 251.884244 141.851613 
L 253.160299 141.851613 
L 252.784026 140.808387 
L 254.048144 140.808387 
L 253.298205 138.721935 
L 257.937006 138.721935 
L 257.748598 138.200323 
L 258.658696 138.200323 
L 258.470321 137.67871 
L 259.374433 137.67871 
L 259.186097 137.157097 
L 259.785509 137.157097 
L 259.597331 136.635484 
L 261.380204 136.635484 
L 261.191743 136.113871 
L 261.780977 136.113871 
L 261.592683 135.592258 
L 262.471733 135.592258 
L 262.283502 135.070645 
L 264.313266 135.070645 
L 264.124699 134.549032 
L 265.2714 134.549032 
L 265.082817 134.027419 
L 265.652542 134.027419 
L 265.464143 133.505806 
L 266.031412 133.505806 
L 265.843198 132.984194 
L 267.251087 132.984194 
L 267.062784 132.462581 
L 269.285994 132.462581 
L 269.097358 131.940968 
L 269.647559 131.940968 
L 269.459122 131.419355 
L 270.007011 131.419355 
L 269.630904 130.376129 
L 270.448256 130.376129 
L 270.073114 129.332903 
L 275.4 129.332903 
L 275.211469 128.81129 
L 277.799155 128.81129 
L 277.610319 128.289677 
L 278.376988 128.289677 
L 278.188318 127.768065 
L 281.211738 127.768065 
L 281.022715 127.246452 
L 283.000917 127.246452 
L 282.811813 126.724839 
L 285.002452 126.724839 
L 284.813249 126.203226 
L 287.678456 126.203226 
L 287.489058 125.681613 
L 288.430295 125.681613 
L 288.241071 125.16 
L 288.47529 125.16 
L 288.097774 124.116774 
L 288.5648 124.116774 
L 288.376465 123.595161 
L 289.073782 123.595161 
L 288.885664 123.073548 
L 289.34841 123.073548 
L 289.160547 122.551935 
L 290.767105 122.551935 
L 290.579316 122.030323 
L 292.391123 122.030323 
L 292.203391 121.50871 
L 292.652344 121.50871 
L 292.464874 120.987097 
L 292.688735 120.987097 
L 292.501558 120.465484 
L 296.030828 120.465484 
L 295.843515 119.943871 
L 296.494468 119.943871 
L 296.307398 119.422258 
L 297.599239 119.422258 
L 297.22576 118.379032 
L 298.079545 118.379032 
L 297.893188 117.857419 
L 301.04402 117.857419 
L 300.857676 117.335806 
L 304.938367 117.335806 
L 304.752039 116.814194 
L 308.506988 116.814194 
L 308.320787 116.292581 
L 310.059681 116.292581 
L 309.873726 115.770968 
L 313.835709 115.770968 
L 313.65 115.249355 
L 313.835418 115.249355 
L 313.65 114.727742 
L 315.852632 114.727742 
L 315.667517 114.206129 
L 318.00804 114.206129 
L 317.823259 113.684516 
L 324.068354 113.684516 
L 323.884152 113.162903 
L 326.22349 113.162903 
L 326.039735 112.64129 
L 328.977778 112.64129 
L 328.794557 112.119677 
L 329.43712 112.119677 
L 328.889242 110.554839 
L 331.892308 110.554839 
L 331.710534 110.033226 
L 331.866358 110.033226 
L 331.684861 109.511613 
L 333.690845 109.511613 
L 333.509852 108.99 
L 337.561533 108.99 
L 337.561533 108.99 
" style="fill:none;stroke:#ff7f0e;stroke-linecap:square;stroke-width:2;"/>
   </g>
   <g id="line2d_47">
    <path clip-path="url(#pb3ef5f125e)" d="M 76.5 448.038387 
L 76.5 393.269032 
L 80.93271 393.269032 
L 80.624348 389.096129 
L 84.677586 389.096129 
L 84.27541 385.966452 
L 88.068293 385.966452 
L 86.9625 379.185484 
L 85.923179 371.36129 
L 85.071687 363.537097 
L 87.860479 363.537097 
L 86.755135 354.148065 
L 85.754634 343.715806 
L 85.163014 336.413226 
L 87.279545 336.413226 
L 86.678112 329.632258 
L 88.661538 329.632258 
L 88.507595 328.067419 
L 90.45 328.067419 
L 90.106967 324.937742 
L 93.852439 324.937742 
L 92.48764 313.983871 
L 91.910469 308.767742 
L 93.561151 308.767742 
L 92.205298 296.249032 
L 91.184211 285.295161 
L 92.602778 285.295161 
L 92.214759 281.122258 
L 93.591892 281.122258 
L 93.540719 280.600645 
L 94.905672 280.600645 
L 94.796439 279.557419 
L 96.145562 279.557419 
L 94.692329 265.473871 
L 93.569923 252.955161 
L 94.742308 252.955161 
L 94.153846 246.174194 
L 95.284158 246.174194 
L 94.964234 242.522903 
L 96.070631 242.522903 
L 95.929157 240.958065 
L 97.022596 240.958065 
L 96.77886 238.35 
L 97.854739 238.35 
L 97.604684 235.741935 
L 98.663551 235.741935 
L 98.509281 234.177097 
L 99.55625 234.177097 
L 99.137045 230.004194 
L 100.161224 230.004194 
L 100.107692 229.482581 
L 101.125056 229.482581 
L 101.069595 228.960968 
L 102.080225 228.960968 
L 101.965772 227.917742 
L 102.967634 227.917742 
L 102.617841 224.788065 
L 103.602857 224.788065 
L 103.134557 220.615161 
L 104.099353 220.615161 
L 103.805117 218.007097 
L 104.75617 218.007097 
L 104.696178 217.485484 
L 105.641314 217.485484 
L 105.335849 214.877419 
L 106.267782 214.877419 
L 105.89876 211.747742 
L 107.72963 211.747742 
L 107.601639 210.704516 
L 109.410612 210.704516 
L 109.14413 208.618065 
L 110.036364 208.618065 
L 109.113949 201.315484 
L 110.842661 201.315484 
L 110.708772 200.272258 
L 111.564981 200.272258 
L 111.496893 199.750645 
L 112.348256 199.750645 
L 112.209846 198.707419 
L 113.054913 198.707419 
L 112.914587 197.664194 
L 113.753448 197.664194 
L 113.61126 196.620968 
L 114.444 196.620968 
L 113.944737 192.969677 
L 114.764353 192.969677 
L 114.621308 191.926452 
L 115.435075 191.926452 
L 115.36257 191.404839 
L 116.171933 191.404839 
L 116.09833 190.883226 
L 116.903333 190.883226 
L 116.68011 189.318387 
L 117.478125 189.318387 
L 117.179015 187.231935 
L 117.968852 187.231935 
L 117.3 182.537419 
L 119.618182 182.537419 
L 119.465009 181.494194 
L 120.229787 181.494194 
L 119.921831 179.407742 
L 120.679086 179.407742 
L 120.601579 178.886129 
L 121.354991 178.886129 
L 121.198429 177.842903 
L 121.946864 177.842903 
L 121.867826 177.32129 
L 123.354593 177.32129 
L 122.792979 173.67 
L 124.253754 173.67 
L 123.93 171.583548 
L 124.652284 171.583548 
L 124.570946 171.061935 
L 126.006061 171.061935 
L 125.511 167.932258 
L 126.218636 167.932258 
L 125.808416 165.324194 
L 126.508567 165.324194 
L 126.426316 164.802581 
L 127.123153 164.802581 
L 127.040164 164.280968 
L 127.733715 164.280968 
L 127.566558 163.237742 
L 128.942927 163.237742 
L 128.857792 162.716129 
L 129.541653 162.716129 
L 129.455825 162.194516 
L 130.136511 162.194516 
L 130.05 161.672903 
L 131.402894 161.672903 
L 131.314767 161.15129 
L 131.987019 161.15129 
L 131.721531 159.586452 
L 133.054054 159.586452 
L 132.785601 158.021613 
L 133.445972 158.021613 
L 133.356151 157.5 
L 134.013543 157.5 
L 133.743103 155.935161 
L 134.395775 155.935161 
L 133.946273 153.327097 
L 134.592558 153.327097 
L 134.502632 152.805484 
L 135.146059 152.805484 
L 134.785714 150.719032 
L 135.423773 150.719032 
L 135.243578 149.675806 
L 135.878015 149.675806 
L 135.517602 147.589355 
L 138.023077 147.589355 
L 137.838045 146.546129 
L 138.458108 146.546129 
L 137.996423 143.938065 
L 142.860088 143.938065 
L 142.7625 143.416452 
L 144.554758 143.416452 
L 144.455263 142.894839 
L 145.048467 142.894839 
L 144.453256 139.765161 
L 145.625974 139.765161 
L 145.526369 139.243548 
L 146.109496 139.243548 
L 146.009483 138.721935 
L 148.322571 138.721935 
L 148.220114 138.200323 
L 148.79359 138.200323 
L 148.58821 137.157097 
L 149.72762 137.157097 
L 149.624045 136.635484 
L 151.319155 136.635484 
L 151.213924 136.113871 
L 152.334783 136.113871 
L 151.911715 134.027419 
L 156.313241 134.027419 
L 156.203306 133.505806 
L 156.74608 133.505806 
L 156.635852 132.984194 
L 157.715753 132.984194 
L 157.604651 132.462581 
L 158.67749 132.462581 
L 158.342527 130.897742 
L 158.875034 130.897742 
L 158.763415 130.376129 
L 159.822973 130.376129 
L 159.598383 129.332903 
L 161.695979 129.332903 
L 161.581928 128.81129 
L 162.102273 128.81129 
L 161.76032 127.246452 
L 162.27766 127.246452 
L 162.050133 126.203226 
L 166.131496 126.203226 
L 165.896859 125.16 
L 166.4 125.16 
L 166.282637 124.638387 
L 166.783963 124.638387 
L 166.549155 123.595161 
L 167.545914 123.595161 
L 167.427979 123.073548 
L 168.912 123.073548 
L 168.792912 122.551935 
L 169.284556 122.551935 
L 169.165296 122.030323 
L 169.655199 122.030323 
L 169.535769 121.50871 
L 170.023944 121.50871 
L 169.785057 120.465484 
L 171.721601 120.465484 
L 171.480228 119.422258 
L 173.393569 119.422258 
L 173.271537 118.900645 
L 173.746415 118.900645 
L 173.624246 118.379032 
L 174.097491 118.379032 
L 173.853191 117.335806 
L 174.324375 117.335806 
L 174.202247 116.814194 
L 174.67182 116.814194 
L 174.549564 116.292581 
L 177.801111 116.292581 
L 177.427306 114.727742 
L 177.885995 114.727742 
L 177.761595 114.206129 
L 179.129707 114.206129 
L 179.004396 113.684516 
L 179.91011 113.684516 
L 179.784307 113.162903 
L 183.360361 113.162903 
L 182.97551 111.598065 
L 183.416547 111.598065 
L 183.288503 111.076452 
L 184.604177 111.076452 
L 184.475328 110.554839 
L 186.645498 110.554839 
L 186.515148 110.033226 
L 186.945745 110.033226 
L 186.815348 109.511613 
L 188.526204 109.511613 
L 188.394718 108.99 
L 189.666316 108.99 
L 189.534112 108.468387 
L 190.795809 108.468387 
L 190.662907 107.946774 
L 192.744624 107.946774 
L 192.610393 107.425161 
L 193.435714 107.425161 
L 193.301151 106.903548 
L 194.939175 106.903548 
L 194.803661 106.381935 
L 197.632236 106.381935 
L 197.221154 104.817097 
L 199.99899 104.817097 
L 199.860538 104.295484 
L 200.253527 104.295484 
L 200.115101 103.773871 
L 201.28796 103.773871 
L 201.148998 103.252258 
L 201.926 103.252258 
L 201.647894 102.209032 
L 202.420354 102.209032 
L 202.281215 101.687419 
L 202.665894 101.687419 
L 202.526792 101.165806 
L 206.324755 101.165806 
L 206.183333 100.644194 
L 206.558324 100.644194 
L 206.416957 100.122581 
L 210.12 100.122581 
L 209.976477 99.600968 
L 210.342167 99.600968 
L 210.198714 99.079355 
L 210.927273 99.079355 
L 210.783654 98.557742 
L 211.869968 98.557742 
L 211.725957 98.036129 
L 213.162712 98.036129 
L 213.018095 97.514516 
L 213.375159 97.514516 
L 213.230623 96.992903 
L 215.003571 96.992903 
L 214.858237 96.47129 
L 215.56178 96.47129 
L 215.416318 95.949677 
L 216.116493 95.949677 
L 215.970907 95.428065 
L 217.707573 95.428065 
L 217.561244 94.906452 
L 222.32666 94.906452 
L 222.177857 94.384839 
L 225.168352 94.384839 
L 225.018182 93.863226 
L 225.675 93.863226 
L 225.524773 93.341613 
L 227.8017 93.341613 
L 227.650549 92.82 
L 230.530099 92.82 
L 230.377745 92.298387 
L 231.954626 92.298387 
L 231.80177 91.776774 
L 235.827961 91.776774 
L 235.673424 91.255161 
L 237.496721 91.255161 
L 237.341618 90.733548 
L 242.392607 90.733548 
L 242.235511 90.211935 
L 243.978814 90.211935 
L 243.821261 89.690323 
L 270.698369 89.690323 
L 270.531818 89.16871 
L 276.414861 89.16871 
L 276.247148 88.647097 
L 279.883609 88.647097 
L 279.715385 88.125484 
L 282.15959 88.125484 
L 281.991155 87.603871 
L 288.017294 87.603871 
L 287.84808 87.082258 
L 291.171327 87.082258 
L 291.001894 86.560645 
L 302.374189 86.560645 
L 302.203846 86.039032 
L 321.08676 86.039032 
L 320.916435 85.517419 
L 322.821547 85.517419 
L 322.821547 85.517419 
" style="fill:none;stroke:#2ca02c;stroke-linecap:square;stroke-width:2;"/>
   </g>
   <g id="patch_3">
    <path d="M 76.5 448.56 
L 76.5 60.48 
" style="fill:none;stroke:#000000;stroke-linecap:square;stroke-linejoin:miter;stroke-width:0.8;"/>
   </g>
   <g id="patch_4">
    <path d="M 550.8 448.56 
L 550.8 60.48 
" style="fill:none;stroke:#000000;stroke-linecap:square;stroke-linejoin:miter;stroke-width:0.8;"/>
   </g>
   <g id="patch_5">
    <path d="M 76.5 448.56 
L 550.8 448.56 
" style="fill:none;stroke:#000000;stroke-linecap:square;stroke-linejoin:miter;stroke-width:0.8;"/>
   </g>
   <g id="patch_6">
    <path d="M 76.5 60.48 
L 550.8 60.48 
" style="fill:none;stroke:#000000;stroke-linecap:square;stroke-linejoin:miter;stroke-width:0.8;"/>
   </g>
   <g id="text_25">
    <!-- leuven: img1-img5 -->
    <defs>
     <path d="M 9.421875 75.984375 
L 18.40625 75.984375 
L 18.40625 0 
L 9.421875 0 
z
" id="DejaVuSans-108"/>
     <path d="M 8.5 21.578125 
L 8.5 54.6875 
L 17.484375 54.6875 
L 17.484375 21.921875 
Q 17.484375 14.15625 20.5 10.265625 
Q 23.53125 6.390625 29.59375 6.390625 
Q 36.859375 6.390625 41.078125 11.03125 
Q 45.3125 15.671875 45.3125 23.6875 
L 45.3125 54.6875 
L 54.296875 54.6875 
L 54.296875 0 
L 45.3125 0 
L 45.3125 8.40625 
Q 42.046875 3.421875 37.71875 1 
Q 33.40625 -1.421875 27.6875 -1.421875 
Q 18.265625 -1.421875 13.375 4.4375 
Q 8.5 10.296875 8.5 21.578125 
z
M 31.109375 56 
z
" id="DejaVuSans-117"/>
     <path d="M 2.984375 54.6875 
L 12.5 54.6875 
L 29.59375 8.796875 
L 46.6875 54.6875 
L 56.203125 54.6875 
L 35.6875 0 
L 23.484375 0 
z
" id="DejaVuSans-118"/>
     <path d="M 11.71875 12.40625 
L 22.015625 12.40625 
L 22.015625 0 
L 11.71875 0 
z
M 11.71875 51.703125 
L 22.015625 51.703125 
L 22.015625 39.3125 
L 11.71875 39.3125 
z
" id="DejaVuSans-58"/>
     <path id="DejaVuSans-32"/>
     <path d="M 52 44.1875 
Q 55.375 50.25 60.0625 53.125 
Q 64.75 56 71.09375 56 
Q 79.640625 56 84.28125 50.015625 
Q 88.921875 44.046875 88.921875 33.015625 
L 88.921875 0 
L 79.890625 0 
L 79.890625 32.71875 
Q 79.890625 40.578125 77.09375 44.375 
Q 74.3125 48.1875 68.609375 48.1875 
Q 61.625 48.1875 57.5625 43.546875 
Q 53.515625 38.921875 53.515625 30.90625 
L 53.515625 0 
L 44.484375 0 
L 44.484375 32.71875 
Q 44.484375 40.625 41.703125 44.40625 
Q 38.921875 48.1875 33.109375 48.1875 
Q 26.21875 48.1875 22.15625 43.53125 
Q 18.109375 38.875 18.109375 30.90625 
L 18.109375 0 
L 9.078125 0 
L 9.078125 54.6875 
L 18.109375 54.6875 
L 18.109375 46.1875 
Q 21.1875 51.21875 25.484375 53.609375 
Q 29.78125 56 35.6875 56 
Q 41.65625 56 45.828125 52.96875 
Q 50 49.953125 52 44.1875 
z
" id="DejaVuSans-109"/>
     <path d="M 45.40625 27.984375 
Q 45.40625 37.75 41.375 43.109375 
Q 37.359375 48.484375 30.078125 48.484375 
Q 22.859375 48.484375 18.828125 43.109375 
Q 14.796875 37.75 14.796875 27.984375 
Q 14.796875 18.265625 18.828125 12.890625 
Q 22.859375 7.515625 30.078125 7.515625 
Q 37.359375 7.515625 41.375 12.890625 
Q 45.40625 18.265625 45.40625 27.984375 
z
M 54.390625 6.78125 
Q 54.390625 -7.171875 48.1875 -13.984375 
Q 42 -20.796875 29.203125 -20.796875 
Q 24.46875 -20.796875 20.265625 -20.09375 
Q 16.0625 -19.390625 12.109375 -17.921875 
L 12.109375 -9.1875 
Q 16.0625 -11.328125 19.921875 -12.34375 
Q 23.78125 -13.375 27.78125 -13.375 
Q 36.625 -13.375 41.015625 -8.765625 
Q 45.40625 -4.15625 45.40625 5.171875 
L 45.40625 9.625 
Q 42.625 4.78125 38.28125 2.390625 
Q 33.9375 0 27.875 0 
Q 17.828125 0 11.671875 7.65625 
Q 5.515625 15.328125 5.515625 27.984375 
Q 5.515625 40.671875 11.671875 48.328125 
Q 17.828125 56 27.875 56 
Q 33.9375 56 38.28125 53.609375 
Q 42.625 51.21875 45.40625 46.390625 
L 45.40625 54.6875 
L 54.390625 54.6875 
z
" id="DejaVuSans-103"/>
    </defs>
    <g transform="translate(257.074688 41.042625)scale(0.12 -0.12)">
     <use xlink:href="#DejaVuSans-108"/>
     <use x="27.783203" xlink:href="#DejaVuSans-101"/>
     <use x="89.306641" xlink:href="#DejaVuSans-117"/>
     <use x="152.685547" xlink:href="#DejaVuSans-118"/>
     <use x="211.865234" xlink:href="#DejaVuSans-101"/>
     <use x="273.388672" xlink:href="#DejaVuSans-110"/>
     <use x="336.767578" xlink:href="#DejaVuSans-58"/>
     <use x="370.458984" xlink:href="#DejaVuSans-32"/>
     <use x="402.246094" xlink:href="#DejaVuSans-105"/>
     <use x="430.029297" xlink:href="#DejaVuSans-109"/>
     <use x="527.441406" xlink:href="#DejaVuSans-103"/>
     <use x="590.917969" xlink:href="#DejaVuSans-49"/>
     <use x="654.541016" xlink:href="#DejaVuSans-45"/>
     <use x="690.625" xlink:href="#DejaVuSans-105"/>
     <use x="718.408203" xlink:href="#DejaVuSans-109"/>
     <use x="815.820312" xlink:href="#DejaVuSans-103"/>
     <use x="879.296875" xlink:href="#DejaVuSans-53"/>
    </g>
    <!-- NearestNeighbours -->
    <defs>
     <path d="M 9.8125 72.90625 
L 23.09375 72.90625 
L 55.421875 11.921875 
L 55.421875 72.90625 
L 64.984375 72.90625 
L 64.984375 0 
L 51.703125 0 
L 19.390625 60.984375 
L 19.390625 0 
L 9.8125 0 
z
" id="DejaVuSans-78"/>
     <path d="M 34.28125 27.484375 
Q 23.390625 27.484375 19.1875 25 
Q 14.984375 22.515625 14.984375 16.5 
Q 14.984375 11.71875 18.140625 8.90625 
Q 21.296875 6.109375 26.703125 6.109375 
Q 34.1875 6.109375 38.703125 11.40625 
Q 43.21875 16.703125 43.21875 25.484375 
L 43.21875 27.484375 
z
M 52.203125 31.203125 
L 52.203125 0 
L 43.21875 0 
L 43.21875 8.296875 
Q 40.140625 3.328125 35.546875 0.953125 
Q 30.953125 -1.421875 24.3125 -1.421875 
Q 15.921875 -1.421875 10.953125 3.296875 
Q 6 8.015625 6 15.921875 
Q 6 25.140625 12.171875 29.828125 
Q 18.359375 34.515625 30.609375 34.515625 
L 43.21875 34.515625 
L 43.21875 35.40625 
Q 43.21875 41.609375 39.140625 45 
Q 35.0625 48.390625 27.6875 48.390625 
Q 23 48.390625 18.546875 47.265625 
Q 14.109375 46.140625 10.015625 43.890625 
L 10.015625 52.203125 
Q 14.9375 54.109375 19.578125 55.046875 
Q 24.21875 56 28.609375 56 
Q 40.484375 56 46.34375 49.84375 
Q 52.203125 43.703125 52.203125 31.203125 
z
" id="DejaVuSans-97"/>
     <path d="M 54.890625 33.015625 
L 54.890625 0 
L 45.90625 0 
L 45.90625 32.71875 
Q 45.90625 40.484375 42.875 44.328125 
Q 39.84375 48.1875 33.796875 48.1875 
Q 26.515625 48.1875 22.3125 43.546875 
Q 18.109375 38.921875 18.109375 30.90625 
L 18.109375 0 
L 9.078125 0 
L 9.078125 75.984375 
L 18.109375 75.984375 
L 18.109375 46.1875 
Q 21.34375 51.125 25.703125 53.5625 
Q 30.078125 56 35.796875 56 
Q 45.21875 56 50.046875 50.171875 
Q 54.890625 44.34375 54.890625 33.015625 
z
" id="DejaVuSans-104"/>
     <path d="M 48.6875 27.296875 
Q 48.6875 37.203125 44.609375 42.84375 
Q 40.53125 48.484375 33.40625 48.484375 
Q 26.265625 48.484375 22.1875 42.84375 
Q 18.109375 37.203125 18.109375 27.296875 
Q 18.109375 17.390625 22.1875 11.75 
Q 26.265625 6.109375 33.40625 6.109375 
Q 40.53125 6.109375 44.609375 11.75 
Q 48.6875 17.390625 48.6875 27.296875 
z
M 18.109375 46.390625 
Q 20.953125 51.265625 25.265625 53.625 
Q 29.59375 56 35.59375 56 
Q 45.5625 56 51.78125 48.09375 
Q 58.015625 40.1875 58.015625 27.296875 
Q 58.015625 14.40625 51.78125 6.484375 
Q 45.5625 -1.421875 35.59375 -1.421875 
Q 29.59375 -1.421875 25.265625 0.953125 
Q 20.953125 3.328125 18.109375 8.203125 
L 18.109375 0 
L 9.078125 0 
L 9.078125 75.984375 
L 18.109375 75.984375 
z
" id="DejaVuSans-98"/>
    </defs>
    <g transform="translate(255.957188 54.48)scale(0.12 -0.12)">
     <use xlink:href="#DejaVuSans-78"/>
     <use x="74.804688" xlink:href="#DejaVuSans-101"/>
     <use x="136.328125" xlink:href="#DejaVuSans-97"/>
     <use x="197.607422" xlink:href="#DejaVuSans-114"/>
     <use x="236.470703" xlink:href="#DejaVuSans-101"/>
     <use x="297.994141" xlink:href="#DejaVuSans-115"/>
     <use x="350.09375" xlink:href="#DejaVuSans-116"/>
     <use x="389.302734" xlink:href="#DejaVuSans-78"/>
     <use x="464.107422" xlink:href="#DejaVuSans-101"/>
     <use x="525.630859" xlink:href="#DejaVuSans-105"/>
     <use x="553.414062" xlink:href="#DejaVuSans-103"/>
     <use x="616.890625" xlink:href="#DejaVuSans-104"/>
     <use x="680.269531" xlink:href="#DejaVuSans-98"/>
     <use x="743.746094" xlink:href="#DejaVuSans-111"/>
     <use x="804.927734" xlink:href="#DejaVuSans-117"/>
     <use x="868.306641" xlink:href="#DejaVuSans-114"/>
     <use x="909.419922" xlink:href="#DejaVuSans-115"/>
    </g>
   </g>
   <g id="legend_1">
    <g id="patch_7">
     <path d="M 362.659375 112.514375 
L 543.8 112.514375 
Q 545.8 112.514375 545.8 110.514375 
L 545.8 67.48 
Q 545.8 65.48 543.8 65.48 
L 362.659375 65.48 
Q 360.659375 65.48 360.659375 67.48 
L 360.659375 110.514375 
Q 360.659375 112.514375 362.659375 112.514375 
z
" style="fill:#ffffff;opacity:0.8;stroke:#cccccc;stroke-linejoin:miter;"/>
    </g>
    <g id="line2d_48">
     <path d="M 364.659375 73.578438 
L 384.659375 73.578438 
" style="fill:none;stroke:#1f77b4;stroke-linecap:square;stroke-width:2;"/>
    </g>
    <g id="line2d_49"/>
    <g id="text_26">
     <!-- root-cvsift AP: 85.9, %In: 47.7 -->
     <defs>
      <path d="M 37.109375 75.984375 
L 37.109375 68.5 
L 28.515625 68.5 
Q 23.6875 68.5 21.796875 66.546875 
Q 19.921875 64.59375 19.921875 59.515625 
L 19.921875 54.6875 
L 34.71875 54.6875 
L 34.71875 47.703125 
L 19.921875 47.703125 
L 19.921875 0 
L 10.890625 0 
L 10.890625 47.703125 
L 2.296875 47.703125 
L 2.296875 54.6875 
L 10.890625 54.6875 
L 10.890625 58.5 
Q 10.890625 67.625 15.140625 71.796875 
Q 19.390625 75.984375 28.609375 75.984375 
z
" id="DejaVuSans-102"/>
      <path d="M 34.1875 63.1875 
L 20.796875 26.90625 
L 47.609375 26.90625 
z
M 28.609375 72.90625 
L 39.796875 72.90625 
L 67.578125 0 
L 57.328125 0 
L 50.6875 18.703125 
L 17.828125 18.703125 
L 11.1875 0 
L 0.78125 0 
z
" id="DejaVuSans-65"/>
      <path d="M 19.671875 64.796875 
L 19.671875 37.40625 
L 32.078125 37.40625 
Q 38.96875 37.40625 42.71875 40.96875 
Q 46.484375 44.53125 46.484375 51.125 
Q 46.484375 57.671875 42.71875 61.234375 
Q 38.96875 64.796875 32.078125 64.796875 
z
M 9.8125 72.90625 
L 32.078125 72.90625 
Q 44.34375 72.90625 50.609375 67.359375 
Q 56.890625 61.8125 56.890625 51.125 
Q 56.890625 40.328125 50.609375 34.8125 
Q 44.34375 29.296875 32.078125 29.296875 
L 19.671875 29.296875 
L 19.671875 0 
L 9.8125 0 
z
" id="DejaVuSans-80"/>
      <path d="M 11.71875 12.40625 
L 22.015625 12.40625 
L 22.015625 4 
L 14.015625 -11.625 
L 7.71875 -11.625 
L 11.71875 4 
z
" id="DejaVuSans-44"/>
      <path d="M 72.703125 32.078125 
Q 68.453125 32.078125 66.03125 28.46875 
Q 63.625 24.859375 63.625 18.40625 
Q 63.625 12.0625 66.03125 8.421875 
Q 68.453125 4.78125 72.703125 4.78125 
Q 76.859375 4.78125 79.265625 8.421875 
Q 81.6875 12.0625 81.6875 18.40625 
Q 81.6875 24.8125 79.265625 28.4375 
Q 76.859375 32.078125 72.703125 32.078125 
z
M 72.703125 38.28125 
Q 80.421875 38.28125 84.953125 32.90625 
Q 89.5 27.546875 89.5 18.40625 
Q 89.5 9.28125 84.9375 3.921875 
Q 80.375 -1.421875 72.703125 -1.421875 
Q 64.890625 -1.421875 60.34375 3.921875 
Q 55.8125 9.28125 55.8125 18.40625 
Q 55.8125 27.59375 60.375 32.9375 
Q 64.9375 38.28125 72.703125 38.28125 
z
M 22.3125 68.015625 
Q 18.109375 68.015625 15.6875 64.375 
Q 13.28125 60.75 13.28125 54.390625 
Q 13.28125 47.953125 15.671875 44.328125 
Q 18.0625 40.71875 22.3125 40.71875 
Q 26.5625 40.71875 28.96875 44.328125 
Q 31.390625 47.953125 31.390625 54.390625 
Q 31.390625 60.6875 28.953125 64.34375 
Q 26.515625 68.015625 22.3125 68.015625 
z
M 66.40625 74.21875 
L 74.21875 74.21875 
L 28.609375 -1.421875 
L 20.796875 -1.421875 
z
M 22.3125 74.21875 
Q 30.03125 74.21875 34.609375 68.875 
Q 39.203125 63.53125 39.203125 54.390625 
Q 39.203125 45.171875 34.640625 39.84375 
Q 30.078125 34.515625 22.3125 34.515625 
Q 14.546875 34.515625 10.03125 39.859375 
Q 5.515625 45.21875 5.515625 54.390625 
Q 5.515625 63.484375 10.046875 68.84375 
Q 14.59375 74.21875 22.3125 74.21875 
z
" id="DejaVuSans-37"/>
      <path d="M 9.8125 72.90625 
L 19.671875 72.90625 
L 19.671875 0 
L 9.8125 0 
z
" id="DejaVuSans-73"/>
     </defs>
     <g transform="translate(392.659375 77.078438)scale(0.1 -0.1)">
      <use xlink:href="#DejaVuSans-114"/>
      <use x="38.863281" xlink:href="#DejaVuSans-111"/>
      <use x="100.044922" xlink:href="#DejaVuSans-111"/>
      <use x="161.226562" xlink:href="#DejaVuSans-116"/>
      <use x="200.435547" xlink:href="#DejaVuSans-45"/>
      <use x="236.519531" xlink:href="#DejaVuSans-99"/>
      <use x="291.5" xlink:href="#DejaVuSans-118"/>
      <use x="350.679688" xlink:href="#DejaVuSans-115"/>
      <use x="402.779297" xlink:href="#DejaVuSans-105"/>
      <use x="430.5625" xlink:href="#DejaVuSans-102"/>
      <use x="464.017578" xlink:href="#DejaVuSans-116"/>
      <use x="503.226562" xlink:href="#DejaVuSans-32"/>
      <use x="535.013672" xlink:href="#DejaVuSans-65"/>
      <use x="603.421875" xlink:href="#DejaVuSans-80"/>
      <use x="663.724609" xlink:href="#DejaVuSans-58"/>
      <use x="697.416016" xlink:href="#DejaVuSans-32"/>
      <use x="729.203125" xlink:href="#DejaVuSans-56"/>
      <use x="792.826172" xlink:href="#DejaVuSans-53"/>
      <use x="856.449219" xlink:href="#DejaVuSans-46"/>
      <use x="888.236328" xlink:href="#DejaVuSans-57"/>
      <use x="951.859375" xlink:href="#DejaVuSans-44"/>
      <use x="983.646484" xlink:href="#DejaVuSans-32"/>
      <use x="1015.433594" xlink:href="#DejaVuSans-37"/>
      <use x="1110.453125" xlink:href="#DejaVuSans-73"/>
      <use x="1139.945312" xlink:href="#DejaVuSans-110"/>
      <use x="1203.324219" xlink:href="#DejaVuSans-58"/>
      <use x="1237.015625" xlink:href="#DejaVuSans-32"/>
      <use x="1268.802734" xlink:href="#DejaVuSans-52"/>
      <use x="1332.425781" xlink:href="#DejaVuSans-55"/>
      <use x="1396.048828" xlink:href="#DejaVuSans-46"/>
      <use x="1427.835938" xlink:href="#DejaVuSans-55"/>
     </g>
    </g>
    <g id="line2d_50">
     <path d="M 364.659375 88.256563 
L 384.659375 88.256563 
" style="fill:none;stroke:#ff7f0e;stroke-linecap:square;stroke-width:2;"/>
    </g>
    <g id="line2d_51"/>
    <g id="text_27">
     <!-- tfeat AP: 71.5, %In: 45.0 -->
     <g transform="translate(392.659375 91.756563)scale(0.1 -0.1)">
      <use xlink:href="#DejaVuSans-116"/>
      <use x="39.208984" xlink:href="#DejaVuSans-102"/>
      <use x="74.414062" xlink:href="#DejaVuSans-101"/>
      <use x="135.9375" xlink:href="#DejaVuSans-97"/>
      <use x="197.216797" xlink:href="#DejaVuSans-116"/>
      <use x="236.425781" xlink:href="#DejaVuSans-32"/>
      <use x="268.212891" xlink:href="#DejaVuSans-65"/>
      <use x="336.621094" xlink:href="#DejaVuSans-80"/>
      <use x="396.923828" xlink:href="#DejaVuSans-58"/>
      <use x="430.615234" xlink:href="#DejaVuSans-32"/>
      <use x="462.402344" xlink:href="#DejaVuSans-55"/>
      <use x="526.025391" xlink:href="#DejaVuSans-49"/>
      <use x="589.648438" xlink:href="#DejaVuSans-46"/>
      <use x="621.435547" xlink:href="#DejaVuSans-53"/>
      <use x="685.058594" xlink:href="#DejaVuSans-44"/>
      <use x="716.845703" xlink:href="#DejaVuSans-32"/>
      <use x="748.632812" xlink:href="#DejaVuSans-37"/>
      <use x="843.652344" xlink:href="#DejaVuSans-73"/>
      <use x="873.144531" xlink:href="#DejaVuSans-110"/>
      <use x="936.523438" xlink:href="#DejaVuSans-58"/>
      <use x="970.214844" xlink:href="#DejaVuSans-32"/>
      <use x="1002.001953" xlink:href="#DejaVuSans-52"/>
      <use x="1065.625" xlink:href="#DejaVuSans-53"/>
      <use x="1129.248047" xlink:href="#DejaVuSans-46"/>
      <use x="1161.035156" xlink:href="#DejaVuSans-48"/>
     </g>
    </g>
    <g id="line2d_52">
     <path d="M 364.659375 102.934687 
L 384.659375 102.934687 
" style="fill:none;stroke:#2ca02c;stroke-linecap:square;stroke-width:2;"/>
    </g>
    <g id="line2d_53"/>
    <g id="text_28">
     <!-- hardnet AP: 86.6, %In: 48.1 -->
     <defs>
      <path d="M 45.40625 46.390625 
L 45.40625 75.984375 
L 54.390625 75.984375 
L 54.390625 0 
L 45.40625 0 
L 45.40625 8.203125 
Q 42.578125 3.328125 38.25 0.953125 
Q 33.9375 -1.421875 27.875 -1.421875 
Q 17.96875 -1.421875 11.734375 6.484375 
Q 5.515625 14.40625 5.515625 27.296875 
Q 5.515625 40.1875 11.734375 48.09375 
Q 17.96875 56 27.875 56 
Q 33.9375 56 38.25 53.625 
Q 42.578125 51.265625 45.40625 46.390625 
z
M 14.796875 27.296875 
Q 14.796875 17.390625 18.875 11.75 
Q 22.953125 6.109375 30.078125 6.109375 
Q 37.203125 6.109375 41.296875 11.75 
Q 45.40625 17.390625 45.40625 27.296875 
Q 45.40625 37.203125 41.296875 42.84375 
Q 37.203125 48.484375 30.078125 48.484375 
Q 22.953125 48.484375 18.875 42.84375 
Q 14.796875 37.203125 14.796875 27.296875 
z
" id="DejaVuSans-100"/>
     </defs>
     <g transform="translate(392.659375 106.434687)scale(0.1 -0.1)">
      <use xlink:href="#DejaVuSans-104"/>
      <use x="63.378906" xlink:href="#DejaVuSans-97"/>
      <use x="124.658203" xlink:href="#DejaVuSans-114"/>
      <use x="164.021484" xlink:href="#DejaVuSans-100"/>
      <use x="227.498047" xlink:href="#DejaVuSans-110"/>
      <use x="290.876953" xlink:href="#DejaVuSans-101"/>
      <use x="352.400391" xlink:href="#DejaVuSans-116"/>
      <use x="391.609375" xlink:href="#DejaVuSans-32"/>
      <use x="423.396484" xlink:href="#DejaVuSans-65"/>
      <use x="491.804688" xlink:href="#DejaVuSans-80"/>
      <use x="552.107422" xlink:href="#DejaVuSans-58"/>
      <use x="585.798828" xlink:href="#DejaVuSans-32"/>
      <use x="617.585938" xlink:href="#DejaVuSans-56"/>
      <use x="681.208984" xlink:href="#DejaVuSans-54"/>
      <use x="744.832031" xlink:href="#DejaVuSans-46"/>
      <use x="776.619141" xlink:href="#DejaVuSans-54"/>
      <use x="840.242188" xlink:href="#DejaVuSans-44"/>
      <use x="872.029297" xlink:href="#DejaVuSans-32"/>
      <use x="903.816406" xlink:href="#DejaVuSans-37"/>
      <use x="998.835938" xlink:href="#DejaVuSans-73"/>
      <use x="1028.328125" xlink:href="#DejaVuSans-110"/>
      <use x="1091.707031" xlink:href="#DejaVuSans-58"/>
      <use x="1125.398438" xlink:href="#DejaVuSans-32"/>
      <use x="1157.185547" xlink:href="#DejaVuSans-52"/>
      <use x="1220.808594" xlink:href="#DejaVuSans-56"/>
      <use x="1284.431641" xlink:href="#DejaVuSans-46"/>
      <use x="1316.21875" xlink:href="#DejaVuSans-49"/>
     </g>
    </g>
   </g>
  </g>
 </g>
 <defs>
  <clipPath id="pb3ef5f125e">
   <rect height="388.08" width="474.3" x="76.5" y="60.48"/>
  </clipPath>
 </defs>
</svg>
