<?xml version="1.0" encoding="utf-8" standalone="no"?>
<!DOCTYPE svg PUBLIC "-//W3C//DTD SVG 1.1//EN"
  "http://www.w3.org/Graphics/SVG/1.1/DTD/svg11.dtd">
<!-- Created with matplotlib (https://matplotlib.org/) -->
<svg height="504pt" version="1.1" viewBox="0 0 612 504" width="612pt" xmlns="http://www.w3.org/2000/svg" xmlns:xlink="http://www.w3.org/1999/xlink">
 <defs>
  <style type="text/css">
*{stroke-linecap:butt;stroke-linejoin:round;}
  </style>
 </defs>
 <g id="figure_1">
  <g id="patch_1">
   <path d="M 0 504 
L 612 504 
L 612 0 
L 0 0 
z
" style="fill:#ffffff;"/>
  </g>
  <g id="axes_1">
   <g id="patch_2">
    <path d="M 76.5 448.56 
L 550.8 448.56 
L 550.8 60.48 
L 76.5 60.48 
z
" style="fill:#ffffff;"/>
   </g>
   <g id="matplotlib.axis_1">
    <g id="xtick_1">
     <g id="line2d_1">
      <path clip-path="url(#p1527a7c0c4)" d="M 76.5 448.56 
L 76.5 60.48 
" style="fill:none;stroke:#b0b0b0;stroke-linecap:square;stroke-width:0.8;"/>
     </g>
     <g id="line2d_2">
      <defs>
       <path d="M 0 0 
L 0 3.5 
" id="m311bb0ee1e" style="stroke:#000000;stroke-width:0.8;"/>
      </defs>
      <g>
       <use style="stroke:#000000;stroke-width:0.8;" x="76.5" xlink:href="#m311bb0ee1e" y="448.56"/>
      </g>
     </g>
     <g id="text_1">
      <!-- 0.0 -->
      <defs>
       <path d="M 31.78125 66.40625 
Q 24.171875 66.40625 20.328125 58.90625 
Q 16.5 51.421875 16.5 36.375 
Q 16.5 21.390625 20.328125 13.890625 
Q 24.171875 6.390625 31.78125 6.390625 
Q 39.453125 6.390625 43.28125 13.890625 
Q 47.125 21.390625 47.125 36.375 
Q 47.125 51.421875 43.28125 58.90625 
Q 39.453125 66.40625 31.78125 66.40625 
z
M 31.78125 74.21875 
Q 44.046875 74.21875 50.515625 64.515625 
Q 56.984375 54.828125 56.984375 36.375 
Q 56.984375 17.96875 50.515625 8.265625 
Q 44.046875 -1.421875 31.78125 -1.421875 
Q 19.53125 -1.421875 13.0625 8.265625 
Q 6.59375 17.96875 6.59375 36.375 
Q 6.59375 54.828125 13.0625 64.515625 
Q 19.53125 74.21875 31.78125 74.21875 
z
" id="DejaVuSans-48"/>
       <path d="M 10.6875 12.40625 
L 21 12.40625 
L 21 0 
L 10.6875 0 
z
" id="DejaVuSans-46"/>
      </defs>
      <g transform="translate(68.548438 463.158437)scale(0.1 -0.1)">
       <use xlink:href="#DejaVuSans-48"/>
       <use x="63.623047" xlink:href="#DejaVuSans-46"/>
       <use x="95.410156" xlink:href="#DejaVuSans-48"/>
      </g>
     </g>
    </g>
    <g id="xtick_2">
     <g id="line2d_3">
      <path clip-path="url(#p1527a7c0c4)" d="M 123.93 448.56 
L 123.93 60.48 
" style="fill:none;stroke:#b0b0b0;stroke-linecap:square;stroke-width:0.8;"/>
     </g>
     <g id="line2d_4">
      <g>
       <use style="stroke:#000000;stroke-width:0.8;" x="123.93" xlink:href="#m311bb0ee1e" y="448.56"/>
      </g>
     </g>
     <g id="text_2">
      <!-- 0.1 -->
      <defs>
       <path d="M 12.40625 8.296875 
L 28.515625 8.296875 
L 28.515625 63.921875 
L 10.984375 60.40625 
L 10.984375 69.390625 
L 28.421875 72.90625 
L 38.28125 72.90625 
L 38.28125 8.296875 
L 54.390625 8.296875 
L 54.390625 0 
L 12.40625 0 
z
" id="DejaVuSans-49"/>
      </defs>
      <g transform="translate(115.978438 463.158437)scale(0.1 -0.1)">
       <use xlink:href="#DejaVuSans-48"/>
       <use x="63.623047" xlink:href="#DejaVuSans-46"/>
       <use x="95.410156" xlink:href="#DejaVuSans-49"/>
      </g>
     </g>
    </g>
    <g id="xtick_3">
     <g id="line2d_5">
      <path clip-path="url(#p1527a7c0c4)" d="M 171.36 448.56 
L 171.36 60.48 
" style="fill:none;stroke:#b0b0b0;stroke-linecap:square;stroke-width:0.8;"/>
     </g>
     <g id="line2d_6">
      <g>
       <use style="stroke:#000000;stroke-width:0.8;" x="171.36" xlink:href="#m311bb0ee1e" y="448.56"/>
      </g>
     </g>
     <g id="text_3">
      <!-- 0.2 -->
      <defs>
       <path d="M 19.1875 8.296875 
L 53.609375 8.296875 
L 53.609375 0 
L 7.328125 0 
L 7.328125 8.296875 
Q 12.9375 14.109375 22.625 23.890625 
Q 32.328125 33.6875 34.8125 36.53125 
Q 39.546875 41.84375 41.421875 45.53125 
Q 43.3125 49.21875 43.3125 52.78125 
Q 43.3125 58.59375 39.234375 62.25 
Q 35.15625 65.921875 28.609375 65.921875 
Q 23.96875 65.921875 18.8125 64.3125 
Q 13.671875 62.703125 7.8125 59.421875 
L 7.8125 69.390625 
Q 13.765625 71.78125 18.9375 73 
Q 24.125 74.21875 28.421875 74.21875 
Q 39.75 74.21875 46.484375 68.546875 
Q 53.21875 62.890625 53.21875 53.421875 
Q 53.21875 48.921875 51.53125 44.890625 
Q 49.859375 40.875 45.40625 35.40625 
Q 44.1875 33.984375 37.640625 27.21875 
Q 31.109375 20.453125 19.1875 8.296875 
z
" id="DejaVuSans-50"/>
      </defs>
      <g transform="translate(163.408438 463.158437)scale(0.1 -0.1)">
       <use xlink:href="#DejaVuSans-48"/>
       <use x="63.623047" xlink:href="#DejaVuSans-46"/>
       <use x="95.410156" xlink:href="#DejaVuSans-50"/>
      </g>
     </g>
    </g>
    <g id="xtick_4">
     <g id="line2d_7">
      <path clip-path="url(#p1527a7c0c4)" d="M 218.79 448.56 
L 218.79 60.48 
" style="fill:none;stroke:#b0b0b0;stroke-linecap:square;stroke-width:0.8;"/>
     </g>
     <g id="line2d_8">
      <g>
       <use style="stroke:#000000;stroke-width:0.8;" x="218.79" xlink:href="#m311bb0ee1e" y="448.56"/>
      </g>
     </g>
     <g id="text_4">
      <!-- 0.3 -->
      <defs>
       <path d="M 40.578125 39.3125 
Q 47.65625 37.796875 51.625 33 
Q 55.609375 28.21875 55.609375 21.1875 
Q 55.609375 10.40625 48.1875 4.484375 
Q 40.765625 -1.421875 27.09375 -1.421875 
Q 22.515625 -1.421875 17.65625 -0.515625 
Q 12.796875 0.390625 7.625 2.203125 
L 7.625 11.71875 
Q 11.71875 9.328125 16.59375 8.109375 
Q 21.484375 6.890625 26.8125 6.890625 
Q 36.078125 6.890625 40.9375 10.546875 
Q 45.796875 14.203125 45.796875 21.1875 
Q 45.796875 27.640625 41.28125 31.265625 
Q 36.765625 34.90625 28.71875 34.90625 
L 20.21875 34.90625 
L 20.21875 43.015625 
L 29.109375 43.015625 
Q 36.375 43.015625 40.234375 45.921875 
Q 44.09375 48.828125 44.09375 54.296875 
Q 44.09375 59.90625 40.109375 62.90625 
Q 36.140625 65.921875 28.71875 65.921875 
Q 24.65625 65.921875 20.015625 65.03125 
Q 15.375 64.15625 9.8125 62.3125 
L 9.8125 71.09375 
Q 15.4375 72.65625 20.34375 73.4375 
Q 25.25 74.21875 29.59375 74.21875 
Q 40.828125 74.21875 47.359375 69.109375 
Q 53.90625 64.015625 53.90625 55.328125 
Q 53.90625 49.265625 50.4375 45.09375 
Q 46.96875 40.921875 40.578125 39.3125 
z
" id="DejaVuSans-51"/>
      </defs>
      <g transform="translate(210.838438 463.158437)scale(0.1 -0.1)">
       <use xlink:href="#DejaVuSans-48"/>
       <use x="63.623047" xlink:href="#DejaVuSans-46"/>
       <use x="95.410156" xlink:href="#DejaVuSans-51"/>
      </g>
     </g>
    </g>
    <g id="xtick_5">
     <g id="line2d_9">
      <path clip-path="url(#p1527a7c0c4)" d="M 266.22 448.56 
L 266.22 60.48 
" style="fill:none;stroke:#b0b0b0;stroke-linecap:square;stroke-width:0.8;"/>
     </g>
     <g id="line2d_10">
      <g>
       <use style="stroke:#000000;stroke-width:0.8;" x="266.22" xlink:href="#m311bb0ee1e" y="448.56"/>
      </g>
     </g>
     <g id="text_5">
      <!-- 0.4 -->
      <defs>
       <path d="M 37.796875 64.3125 
L 12.890625 25.390625 
L 37.796875 25.390625 
z
M 35.203125 72.90625 
L 47.609375 72.90625 
L 47.609375 25.390625 
L 58.015625 25.390625 
L 58.015625 17.1875 
L 47.609375 17.1875 
L 47.609375 0 
L 37.796875 0 
L 37.796875 17.1875 
L 4.890625 17.1875 
L 4.890625 26.703125 
z
" id="DejaVuSans-52"/>
      </defs>
      <g transform="translate(258.268438 463.158437)scale(0.1 -0.1)">
       <use xlink:href="#DejaVuSans-48"/>
       <use x="63.623047" xlink:href="#DejaVuSans-46"/>
       <use x="95.410156" xlink:href="#DejaVuSans-52"/>
      </g>
     </g>
    </g>
    <g id="xtick_6">
     <g id="line2d_11">
      <path clip-path="url(#p1527a7c0c4)" d="M 313.65 448.56 
L 313.65 60.48 
" style="fill:none;stroke:#b0b0b0;stroke-linecap:square;stroke-width:0.8;"/>
     </g>
     <g id="line2d_12">
      <g>
       <use style="stroke:#000000;stroke-width:0.8;" x="313.65" xlink:href="#m311bb0ee1e" y="448.56"/>
      </g>
     </g>
     <g id="text_6">
      <!-- 0.5 -->
      <defs>
       <path d="M 10.796875 72.90625 
L 49.515625 72.90625 
L 49.515625 64.59375 
L 19.828125 64.59375 
L 19.828125 46.734375 
Q 21.96875 47.46875 24.109375 47.828125 
Q 26.265625 48.1875 28.421875 48.1875 
Q 40.625 48.1875 47.75 41.5 
Q 54.890625 34.8125 54.890625 23.390625 
Q 54.890625 11.625 47.5625 5.09375 
Q 40.234375 -1.421875 26.90625 -1.421875 
Q 22.3125 -1.421875 17.546875 -0.640625 
Q 12.796875 0.140625 7.71875 1.703125 
L 7.71875 11.625 
Q 12.109375 9.234375 16.796875 8.0625 
Q 21.484375 6.890625 26.703125 6.890625 
Q 35.15625 6.890625 40.078125 11.328125 
Q 45.015625 15.765625 45.015625 23.390625 
Q 45.015625 31 40.078125 35.4375 
Q 35.15625 39.890625 26.703125 39.890625 
Q 22.75 39.890625 18.8125 39.015625 
Q 14.890625 38.140625 10.796875 36.28125 
z
" id="DejaVuSans-53"/>
      </defs>
      <g transform="translate(305.698438 463.158437)scale(0.1 -0.1)">
       <use xlink:href="#DejaVuSans-48"/>
       <use x="63.623047" xlink:href="#DejaVuSans-46"/>
       <use x="95.410156" xlink:href="#DejaVuSans-53"/>
      </g>
     </g>
    </g>
    <g id="xtick_7">
     <g id="line2d_13">
      <path clip-path="url(#p1527a7c0c4)" d="M 361.08 448.56 
L 361.08 60.48 
" style="fill:none;stroke:#b0b0b0;stroke-linecap:square;stroke-width:0.8;"/>
     </g>
     <g id="line2d_14">
      <g>
       <use style="stroke:#000000;stroke-width:0.8;" x="361.08" xlink:href="#m311bb0ee1e" y="448.56"/>
      </g>
     </g>
     <g id="text_7">
      <!-- 0.6 -->
      <defs>
       <path d="M 33.015625 40.375 
Q 26.375 40.375 22.484375 35.828125 
Q 18.609375 31.296875 18.609375 23.390625 
Q 18.609375 15.53125 22.484375 10.953125 
Q 26.375 6.390625 33.015625 6.390625 
Q 39.65625 6.390625 43.53125 10.953125 
Q 47.40625 15.53125 47.40625 23.390625 
Q 47.40625 31.296875 43.53125 35.828125 
Q 39.65625 40.375 33.015625 40.375 
z
M 52.59375 71.296875 
L 52.59375 62.3125 
Q 48.875 64.0625 45.09375 64.984375 
Q 41.3125 65.921875 37.59375 65.921875 
Q 27.828125 65.921875 22.671875 59.328125 
Q 17.53125 52.734375 16.796875 39.40625 
Q 19.671875 43.65625 24.015625 45.921875 
Q 28.375 48.1875 33.59375 48.1875 
Q 44.578125 48.1875 50.953125 41.515625 
Q 57.328125 34.859375 57.328125 23.390625 
Q 57.328125 12.15625 50.6875 5.359375 
Q 44.046875 -1.421875 33.015625 -1.421875 
Q 20.359375 -1.421875 13.671875 8.265625 
Q 6.984375 17.96875 6.984375 36.375 
Q 6.984375 53.65625 15.1875 63.9375 
Q 23.390625 74.21875 37.203125 74.21875 
Q 40.921875 74.21875 44.703125 73.484375 
Q 48.484375 72.75 52.59375 71.296875 
z
" id="DejaVuSans-54"/>
      </defs>
      <g transform="translate(353.128438 463.158437)scale(0.1 -0.1)">
       <use xlink:href="#DejaVuSans-48"/>
       <use x="63.623047" xlink:href="#DejaVuSans-46"/>
       <use x="95.410156" xlink:href="#DejaVuSans-54"/>
      </g>
     </g>
    </g>
    <g id="xtick_8">
     <g id="line2d_15">
      <path clip-path="url(#p1527a7c0c4)" d="M 408.51 448.56 
L 408.51 60.48 
" style="fill:none;stroke:#b0b0b0;stroke-linecap:square;stroke-width:0.8;"/>
     </g>
     <g id="line2d_16">
      <g>
       <use style="stroke:#000000;stroke-width:0.8;" x="408.51" xlink:href="#m311bb0ee1e" y="448.56"/>
      </g>
     </g>
     <g id="text_8">
      <!-- 0.7 -->
      <defs>
       <path d="M 8.203125 72.90625 
L 55.078125 72.90625 
L 55.078125 68.703125 
L 28.609375 0 
L 18.3125 0 
L 43.21875 64.59375 
L 8.203125 64.59375 
z
" id="DejaVuSans-55"/>
      </defs>
      <g transform="translate(400.558438 463.158437)scale(0.1 -0.1)">
       <use xlink:href="#DejaVuSans-48"/>
       <use x="63.623047" xlink:href="#DejaVuSans-46"/>
       <use x="95.410156" xlink:href="#DejaVuSans-55"/>
      </g>
     </g>
    </g>
    <g id="xtick_9">
     <g id="line2d_17">
      <path clip-path="url(#p1527a7c0c4)" d="M 455.94 448.56 
L 455.94 60.48 
" style="fill:none;stroke:#b0b0b0;stroke-linecap:square;stroke-width:0.8;"/>
     </g>
     <g id="line2d_18">
      <g>
       <use style="stroke:#000000;stroke-width:0.8;" x="455.94" xlink:href="#m311bb0ee1e" y="448.56"/>
      </g>
     </g>
     <g id="text_9">
      <!-- 0.8 -->
      <defs>
       <path d="M 31.78125 34.625 
Q 24.75 34.625 20.71875 30.859375 
Q 16.703125 27.09375 16.703125 20.515625 
Q 16.703125 13.921875 20.71875 10.15625 
Q 24.75 6.390625 31.78125 6.390625 
Q 38.8125 6.390625 42.859375 10.171875 
Q 46.921875 13.96875 46.921875 20.515625 
Q 46.921875 27.09375 42.890625 30.859375 
Q 38.875 34.625 31.78125 34.625 
z
M 21.921875 38.8125 
Q 15.578125 40.375 12.03125 44.71875 
Q 8.5 49.078125 8.5 55.328125 
Q 8.5 64.0625 14.71875 69.140625 
Q 20.953125 74.21875 31.78125 74.21875 
Q 42.671875 74.21875 48.875 69.140625 
Q 55.078125 64.0625 55.078125 55.328125 
Q 55.078125 49.078125 51.53125 44.71875 
Q 48 40.375 41.703125 38.8125 
Q 48.828125 37.15625 52.796875 32.3125 
Q 56.78125 27.484375 56.78125 20.515625 
Q 56.78125 9.90625 50.3125 4.234375 
Q 43.84375 -1.421875 31.78125 -1.421875 
Q 19.734375 -1.421875 13.25 4.234375 
Q 6.78125 9.90625 6.78125 20.515625 
Q 6.78125 27.484375 10.78125 32.3125 
Q 14.796875 37.15625 21.921875 38.8125 
z
M 18.3125 54.390625 
Q 18.3125 48.734375 21.84375 45.5625 
Q 25.390625 42.390625 31.78125 42.390625 
Q 38.140625 42.390625 41.71875 45.5625 
Q 45.3125 48.734375 45.3125 54.390625 
Q 45.3125 60.0625 41.71875 63.234375 
Q 38.140625 66.40625 31.78125 66.40625 
Q 25.390625 66.40625 21.84375 63.234375 
Q 18.3125 60.0625 18.3125 54.390625 
z
" id="DejaVuSans-56"/>
      </defs>
      <g transform="translate(447.988438 463.158437)scale(0.1 -0.1)">
       <use xlink:href="#DejaVuSans-48"/>
       <use x="63.623047" xlink:href="#DejaVuSans-46"/>
       <use x="95.410156" xlink:href="#DejaVuSans-56"/>
      </g>
     </g>
    </g>
    <g id="xtick_10">
     <g id="line2d_19">
      <path clip-path="url(#p1527a7c0c4)" d="M 503.37 448.56 
L 503.37 60.48 
" style="fill:none;stroke:#b0b0b0;stroke-linecap:square;stroke-width:0.8;"/>
     </g>
     <g id="line2d_20">
      <g>
       <use style="stroke:#000000;stroke-width:0.8;" x="503.37" xlink:href="#m311bb0ee1e" y="448.56"/>
      </g>
     </g>
     <g id="text_10">
      <!-- 0.9 -->
      <defs>
       <path d="M 10.984375 1.515625 
L 10.984375 10.5 
Q 14.703125 8.734375 18.5 7.8125 
Q 22.3125 6.890625 25.984375 6.890625 
Q 35.75 6.890625 40.890625 13.453125 
Q 46.046875 20.015625 46.78125 33.40625 
Q 43.953125 29.203125 39.59375 26.953125 
Q 35.25 24.703125 29.984375 24.703125 
Q 19.046875 24.703125 12.671875 31.3125 
Q 6.296875 37.9375 6.296875 49.421875 
Q 6.296875 60.640625 12.9375 67.421875 
Q 19.578125 74.21875 30.609375 74.21875 
Q 43.265625 74.21875 49.921875 64.515625 
Q 56.59375 54.828125 56.59375 36.375 
Q 56.59375 19.140625 48.40625 8.859375 
Q 40.234375 -1.421875 26.421875 -1.421875 
Q 22.703125 -1.421875 18.890625 -0.6875 
Q 15.09375 0.046875 10.984375 1.515625 
z
M 30.609375 32.421875 
Q 37.25 32.421875 41.125 36.953125 
Q 45.015625 41.5 45.015625 49.421875 
Q 45.015625 57.28125 41.125 61.84375 
Q 37.25 66.40625 30.609375 66.40625 
Q 23.96875 66.40625 20.09375 61.84375 
Q 16.21875 57.28125 16.21875 49.421875 
Q 16.21875 41.5 20.09375 36.953125 
Q 23.96875 32.421875 30.609375 32.421875 
z
" id="DejaVuSans-57"/>
      </defs>
      <g transform="translate(495.418438 463.158437)scale(0.1 -0.1)">
       <use xlink:href="#DejaVuSans-48"/>
       <use x="63.623047" xlink:href="#DejaVuSans-46"/>
       <use x="95.410156" xlink:href="#DejaVuSans-57"/>
      </g>
     </g>
    </g>
    <g id="xtick_11">
     <g id="line2d_21">
      <path clip-path="url(#p1527a7c0c4)" d="M 550.8 448.56 
L 550.8 60.48 
" style="fill:none;stroke:#b0b0b0;stroke-linecap:square;stroke-width:0.8;"/>
     </g>
     <g id="line2d_22">
      <g>
       <use style="stroke:#000000;stroke-width:0.8;" x="550.8" xlink:href="#m311bb0ee1e" y="448.56"/>
      </g>
     </g>
     <g id="text_11">
      <!-- 1.0 -->
      <g transform="translate(542.848438 463.158437)scale(0.1 -0.1)">
       <use xlink:href="#DejaVuSans-49"/>
       <use x="63.623047" xlink:href="#DejaVuSans-46"/>
       <use x="95.410156" xlink:href="#DejaVuSans-48"/>
      </g>
     </g>
    </g>
    <g id="text_12">
     <!-- 1-precision -->
     <defs>
      <path d="M 4.890625 31.390625 
L 31.203125 31.390625 
L 31.203125 23.390625 
L 4.890625 23.390625 
z
" id="DejaVuSans-45"/>
      <path d="M 18.109375 8.203125 
L 18.109375 -20.796875 
L 9.078125 -20.796875 
L 9.078125 54.6875 
L 18.109375 54.6875 
L 18.109375 46.390625 
Q 20.953125 51.265625 25.265625 53.625 
Q 29.59375 56 35.59375 56 
Q 45.5625 56 51.78125 48.09375 
Q 58.015625 40.1875 58.015625 27.296875 
Q 58.015625 14.40625 51.78125 6.484375 
Q 45.5625 -1.421875 35.59375 -1.421875 
Q 29.59375 -1.421875 25.265625 0.953125 
Q 20.953125 3.328125 18.109375 8.203125 
z
M 48.6875 27.296875 
Q 48.6875 37.203125 44.609375 42.84375 
Q 40.53125 48.484375 33.40625 48.484375 
Q 26.265625 48.484375 22.1875 42.84375 
Q 18.109375 37.203125 18.109375 27.296875 
Q 18.109375 17.390625 22.1875 11.75 
Q 26.265625 6.109375 33.40625 6.109375 
Q 40.53125 6.109375 44.609375 11.75 
Q 48.6875 17.390625 48.6875 27.296875 
z
" id="DejaVuSans-112"/>
      <path d="M 41.109375 46.296875 
Q 39.59375 47.171875 37.8125 47.578125 
Q 36.03125 48 33.890625 48 
Q 26.265625 48 22.1875 43.046875 
Q 18.109375 38.09375 18.109375 28.8125 
L 18.109375 0 
L 9.078125 0 
L 9.078125 54.6875 
L 18.109375 54.6875 
L 18.109375 46.1875 
Q 20.953125 51.171875 25.484375 53.578125 
Q 30.03125 56 36.53125 56 
Q 37.453125 56 38.578125 55.875 
Q 39.703125 55.765625 41.0625 55.515625 
z
" id="DejaVuSans-114"/>
      <path d="M 56.203125 29.59375 
L 56.203125 25.203125 
L 14.890625 25.203125 
Q 15.484375 15.921875 20.484375 11.0625 
Q 25.484375 6.203125 34.421875 6.203125 
Q 39.59375 6.203125 44.453125 7.46875 
Q 49.3125 8.734375 54.109375 11.28125 
L 54.109375 2.78125 
Q 49.265625 0.734375 44.1875 -0.34375 
Q 39.109375 -1.421875 33.890625 -1.421875 
Q 20.796875 -1.421875 13.15625 6.1875 
Q 5.515625 13.8125 5.515625 26.8125 
Q 5.515625 40.234375 12.765625 48.109375 
Q 20.015625 56 32.328125 56 
Q 43.359375 56 49.78125 48.890625 
Q 56.203125 41.796875 56.203125 29.59375 
z
M 47.21875 32.234375 
Q 47.125 39.59375 43.09375 43.984375 
Q 39.0625 48.390625 32.421875 48.390625 
Q 24.90625 48.390625 20.390625 44.140625 
Q 15.875 39.890625 15.1875 32.171875 
z
" id="DejaVuSans-101"/>
      <path d="M 48.78125 52.59375 
L 48.78125 44.1875 
Q 44.96875 46.296875 41.140625 47.34375 
Q 37.3125 48.390625 33.40625 48.390625 
Q 24.65625 48.390625 19.8125 42.84375 
Q 14.984375 37.3125 14.984375 27.296875 
Q 14.984375 17.28125 19.8125 11.734375 
Q 24.65625 6.203125 33.40625 6.203125 
Q 37.3125 6.203125 41.140625 7.25 
Q 44.96875 8.296875 48.78125 10.40625 
L 48.78125 2.09375 
Q 45.015625 0.34375 40.984375 -0.53125 
Q 36.96875 -1.421875 32.421875 -1.421875 
Q 20.0625 -1.421875 12.78125 6.34375 
Q 5.515625 14.109375 5.515625 27.296875 
Q 5.515625 40.671875 12.859375 48.328125 
Q 20.21875 56 33.015625 56 
Q 37.15625 56 41.109375 55.140625 
Q 45.0625 54.296875 48.78125 52.59375 
z
" id="DejaVuSans-99"/>
      <path d="M 9.421875 54.6875 
L 18.40625 54.6875 
L 18.40625 0 
L 9.421875 0 
z
M 9.421875 75.984375 
L 18.40625 75.984375 
L 18.40625 64.59375 
L 9.421875 64.59375 
z
" id="DejaVuSans-105"/>
      <path d="M 44.28125 53.078125 
L 44.28125 44.578125 
Q 40.484375 46.53125 36.375 47.5 
Q 32.28125 48.484375 27.875 48.484375 
Q 21.1875 48.484375 17.84375 46.4375 
Q 14.5 44.390625 14.5 40.28125 
Q 14.5 37.15625 16.890625 35.375 
Q 19.28125 33.59375 26.515625 31.984375 
L 29.59375 31.296875 
Q 39.15625 29.25 43.1875 25.515625 
Q 47.21875 21.78125 47.21875 15.09375 
Q 47.21875 7.46875 41.1875 3.015625 
Q 35.15625 -1.421875 24.609375 -1.421875 
Q 20.21875 -1.421875 15.453125 -0.5625 
Q 10.6875 0.296875 5.421875 2 
L 5.421875 11.28125 
Q 10.40625 8.6875 15.234375 7.390625 
Q 20.0625 6.109375 24.8125 6.109375 
Q 31.15625 6.109375 34.5625 8.28125 
Q 37.984375 10.453125 37.984375 14.40625 
Q 37.984375 18.0625 35.515625 20.015625 
Q 33.0625 21.96875 24.703125 23.78125 
L 21.578125 24.515625 
Q 13.234375 26.265625 9.515625 29.90625 
Q 5.8125 33.546875 5.8125 39.890625 
Q 5.8125 47.609375 11.28125 51.796875 
Q 16.75 56 26.8125 56 
Q 31.78125 56 36.171875 55.265625 
Q 40.578125 54.546875 44.28125 53.078125 
z
" id="DejaVuSans-115"/>
      <path d="M 30.609375 48.390625 
Q 23.390625 48.390625 19.1875 42.75 
Q 14.984375 37.109375 14.984375 27.296875 
Q 14.984375 17.484375 19.15625 11.84375 
Q 23.34375 6.203125 30.609375 6.203125 
Q 37.796875 6.203125 41.984375 11.859375 
Q 46.1875 17.53125 46.1875 27.296875 
Q 46.1875 37.015625 41.984375 42.703125 
Q 37.796875 48.390625 30.609375 48.390625 
z
M 30.609375 56 
Q 42.328125 56 49.015625 48.375 
Q 55.71875 40.765625 55.71875 27.296875 
Q 55.71875 13.875 49.015625 6.21875 
Q 42.328125 -1.421875 30.609375 -1.421875 
Q 18.84375 -1.421875 12.171875 6.21875 
Q 5.515625 13.875 5.515625 27.296875 
Q 5.515625 40.765625 12.171875 48.375 
Q 18.84375 56 30.609375 56 
z
" id="DejaVuSans-111"/>
      <path d="M 54.890625 33.015625 
L 54.890625 0 
L 45.90625 0 
L 45.90625 32.71875 
Q 45.90625 40.484375 42.875 44.328125 
Q 39.84375 48.1875 33.796875 48.1875 
Q 26.515625 48.1875 22.3125 43.546875 
Q 18.109375 38.921875 18.109375 30.90625 
L 18.109375 0 
L 9.078125 0 
L 9.078125 54.6875 
L 18.109375 54.6875 
L 18.109375 46.1875 
Q 21.34375 51.125 25.703125 53.5625 
Q 30.078125 56 35.796875 56 
Q 45.21875 56 50.046875 50.171875 
Q 54.890625 44.34375 54.890625 33.015625 
z
" id="DejaVuSans-110"/>
     </defs>
     <g transform="translate(286.110938 476.836563)scale(0.1 -0.1)">
      <use xlink:href="#DejaVuSans-49"/>
      <use x="63.623047" xlink:href="#DejaVuSans-45"/>
      <use x="99.707031" xlink:href="#DejaVuSans-112"/>
      <use x="163.183594" xlink:href="#DejaVuSans-114"/>
      <use x="202.046875" xlink:href="#DejaVuSans-101"/>
      <use x="263.570312" xlink:href="#DejaVuSans-99"/>
      <use x="318.550781" xlink:href="#DejaVuSans-105"/>
      <use x="346.333984" xlink:href="#DejaVuSans-115"/>
      <use x="398.433594" xlink:href="#DejaVuSans-105"/>
      <use x="426.216797" xlink:href="#DejaVuSans-111"/>
      <use x="487.398438" xlink:href="#DejaVuSans-110"/>
     </g>
    </g>
   </g>
   <g id="matplotlib.axis_2">
    <g id="ytick_1">
     <g id="line2d_23">
      <path clip-path="url(#p1527a7c0c4)" d="M 76.5 448.56 
L 550.8 448.56 
" style="fill:none;stroke:#b0b0b0;stroke-linecap:square;stroke-width:0.8;"/>
     </g>
     <g id="line2d_24">
      <defs>
       <path d="M 0 0 
L -3.5 0 
" id="m48f154d9ef" style="stroke:#000000;stroke-width:0.8;"/>
      </defs>
      <g>
       <use style="stroke:#000000;stroke-width:0.8;" x="76.5" xlink:href="#m48f154d9ef" y="448.56"/>
      </g>
     </g>
     <g id="text_13">
      <!-- 0.0 -->
      <g transform="translate(53.596875 452.359219)scale(0.1 -0.1)">
       <use xlink:href="#DejaVuSans-48"/>
       <use x="63.623047" xlink:href="#DejaVuSans-46"/>
       <use x="95.410156" xlink:href="#DejaVuSans-48"/>
      </g>
     </g>
    </g>
    <g id="ytick_2">
     <g id="line2d_25">
      <path clip-path="url(#p1527a7c0c4)" d="M 76.5 409.752 
L 550.8 409.752 
" style="fill:none;stroke:#b0b0b0;stroke-linecap:square;stroke-width:0.8;"/>
     </g>
     <g id="line2d_26">
      <g>
       <use style="stroke:#000000;stroke-width:0.8;" x="76.5" xlink:href="#m48f154d9ef" y="409.752"/>
      </g>
     </g>
     <g id="text_14">
      <!-- 0.1 -->
      <g transform="translate(53.596875 413.551219)scale(0.1 -0.1)">
       <use xlink:href="#DejaVuSans-48"/>
       <use x="63.623047" xlink:href="#DejaVuSans-46"/>
       <use x="95.410156" xlink:href="#DejaVuSans-49"/>
      </g>
     </g>
    </g>
    <g id="ytick_3">
     <g id="line2d_27">
      <path clip-path="url(#p1527a7c0c4)" d="M 76.5 370.944 
L 550.8 370.944 
" style="fill:none;stroke:#b0b0b0;stroke-linecap:square;stroke-width:0.8;"/>
     </g>
     <g id="line2d_28">
      <g>
       <use style="stroke:#000000;stroke-width:0.8;" x="76.5" xlink:href="#m48f154d9ef" y="370.944"/>
      </g>
     </g>
     <g id="text_15">
      <!-- 0.2 -->
      <g transform="translate(53.596875 374.743219)scale(0.1 -0.1)">
       <use xlink:href="#DejaVuSans-48"/>
       <use x="63.623047" xlink:href="#DejaVuSans-46"/>
       <use x="95.410156" xlink:href="#DejaVuSans-50"/>
      </g>
     </g>
    </g>
    <g id="ytick_4">
     <g id="line2d_29">
      <path clip-path="url(#p1527a7c0c4)" d="M 76.5 332.136 
L 550.8 332.136 
" style="fill:none;stroke:#b0b0b0;stroke-linecap:square;stroke-width:0.8;"/>
     </g>
     <g id="line2d_30">
      <g>
       <use style="stroke:#000000;stroke-width:0.8;" x="76.5" xlink:href="#m48f154d9ef" y="332.136"/>
      </g>
     </g>
     <g id="text_16">
      <!-- 0.3 -->
      <g transform="translate(53.596875 335.935219)scale(0.1 -0.1)">
       <use xlink:href="#DejaVuSans-48"/>
       <use x="63.623047" xlink:href="#DejaVuSans-46"/>
       <use x="95.410156" xlink:href="#DejaVuSans-51"/>
      </g>
     </g>
    </g>
    <g id="ytick_5">
     <g id="line2d_31">
      <path clip-path="url(#p1527a7c0c4)" d="M 76.5 293.328 
L 550.8 293.328 
" style="fill:none;stroke:#b0b0b0;stroke-linecap:square;stroke-width:0.8;"/>
     </g>
     <g id="line2d_32">
      <g>
       <use style="stroke:#000000;stroke-width:0.8;" x="76.5" xlink:href="#m48f154d9ef" y="293.328"/>
      </g>
     </g>
     <g id="text_17">
      <!-- 0.4 -->
      <g transform="translate(53.596875 297.127219)scale(0.1 -0.1)">
       <use xlink:href="#DejaVuSans-48"/>
       <use x="63.623047" xlink:href="#DejaVuSans-46"/>
       <use x="95.410156" xlink:href="#DejaVuSans-52"/>
      </g>
     </g>
    </g>
    <g id="ytick_6">
     <g id="line2d_33">
      <path clip-path="url(#p1527a7c0c4)" d="M 76.5 254.52 
L 550.8 254.52 
" style="fill:none;stroke:#b0b0b0;stroke-linecap:square;stroke-width:0.8;"/>
     </g>
     <g id="line2d_34">
      <g>
       <use style="stroke:#000000;stroke-width:0.8;" x="76.5" xlink:href="#m48f154d9ef" y="254.52"/>
      </g>
     </g>
     <g id="text_18">
      <!-- 0.5 -->
      <g transform="translate(53.596875 258.319219)scale(0.1 -0.1)">
       <use xlink:href="#DejaVuSans-48"/>
       <use x="63.623047" xlink:href="#DejaVuSans-46"/>
       <use x="95.410156" xlink:href="#DejaVuSans-53"/>
      </g>
     </g>
    </g>
    <g id="ytick_7">
     <g id="line2d_35">
      <path clip-path="url(#p1527a7c0c4)" d="M 76.5 215.712 
L 550.8 215.712 
" style="fill:none;stroke:#b0b0b0;stroke-linecap:square;stroke-width:0.8;"/>
     </g>
     <g id="line2d_36">
      <g>
       <use style="stroke:#000000;stroke-width:0.8;" x="76.5" xlink:href="#m48f154d9ef" y="215.712"/>
      </g>
     </g>
     <g id="text_19">
      <!-- 0.6 -->
      <g transform="translate(53.596875 219.511219)scale(0.1 -0.1)">
       <use xlink:href="#DejaVuSans-48"/>
       <use x="63.623047" xlink:href="#DejaVuSans-46"/>
       <use x="95.410156" xlink:href="#DejaVuSans-54"/>
      </g>
     </g>
    </g>
    <g id="ytick_8">
     <g id="line2d_37">
      <path clip-path="url(#p1527a7c0c4)" d="M 76.5 176.904 
L 550.8 176.904 
" style="fill:none;stroke:#b0b0b0;stroke-linecap:square;stroke-width:0.8;"/>
     </g>
     <g id="line2d_38">
      <g>
       <use style="stroke:#000000;stroke-width:0.8;" x="76.5" xlink:href="#m48f154d9ef" y="176.904"/>
      </g>
     </g>
     <g id="text_20">
      <!-- 0.7 -->
      <g transform="translate(53.596875 180.703219)scale(0.1 -0.1)">
       <use xlink:href="#DejaVuSans-48"/>
       <use x="63.623047" xlink:href="#DejaVuSans-46"/>
       <use x="95.410156" xlink:href="#DejaVuSans-55"/>
      </g>
     </g>
    </g>
    <g id="ytick_9">
     <g id="line2d_39">
      <path clip-path="url(#p1527a7c0c4)" d="M 76.5 138.096 
L 550.8 138.096 
" style="fill:none;stroke:#b0b0b0;stroke-linecap:square;stroke-width:0.8;"/>
     </g>
     <g id="line2d_40">
      <g>
       <use style="stroke:#000000;stroke-width:0.8;" x="76.5" xlink:href="#m48f154d9ef" y="138.096"/>
      </g>
     </g>
     <g id="text_21">
      <!-- 0.8 -->
      <g transform="translate(53.596875 141.895219)scale(0.1 -0.1)">
       <use xlink:href="#DejaVuSans-48"/>
       <use x="63.623047" xlink:href="#DejaVuSans-46"/>
       <use x="95.410156" xlink:href="#DejaVuSans-56"/>
      </g>
     </g>
    </g>
    <g id="ytick_10">
     <g id="line2d_41">
      <path clip-path="url(#p1527a7c0c4)" d="M 76.5 99.288 
L 550.8 99.288 
" style="fill:none;stroke:#b0b0b0;stroke-linecap:square;stroke-width:0.8;"/>
     </g>
     <g id="line2d_42">
      <g>
       <use style="stroke:#000000;stroke-width:0.8;" x="76.5" xlink:href="#m48f154d9ef" y="99.288"/>
      </g>
     </g>
     <g id="text_22">
      <!-- 0.9 -->
      <g transform="translate(53.596875 103.087219)scale(0.1 -0.1)">
       <use xlink:href="#DejaVuSans-48"/>
       <use x="63.623047" xlink:href="#DejaVuSans-46"/>
       <use x="95.410156" xlink:href="#DejaVuSans-57"/>
      </g>
     </g>
    </g>
    <g id="ytick_11">
     <g id="line2d_43">
      <path clip-path="url(#p1527a7c0c4)" d="M 76.5 60.48 
L 550.8 60.48 
" style="fill:none;stroke:#b0b0b0;stroke-linecap:square;stroke-width:0.8;"/>
     </g>
     <g id="line2d_44">
      <g>
       <use style="stroke:#000000;stroke-width:0.8;" x="76.5" xlink:href="#m48f154d9ef" y="60.48"/>
      </g>
     </g>
     <g id="text_23">
      <!-- 1.0 -->
      <g transform="translate(53.596875 64.279219)scale(0.1 -0.1)">
       <use xlink:href="#DejaVuSans-49"/>
       <use x="63.623047" xlink:href="#DejaVuSans-46"/>
       <use x="95.410156" xlink:href="#DejaVuSans-48"/>
      </g>
     </g>
    </g>
    <g id="text_24">
     <!-- #correct/1258 -->
     <defs>
      <path d="M 51.125 44 
L 36.921875 44 
L 32.8125 27.6875 
L 47.125 27.6875 
z
M 43.796875 71.78125 
L 38.71875 51.515625 
L 52.984375 51.515625 
L 58.109375 71.78125 
L 65.921875 71.78125 
L 60.890625 51.515625 
L 76.125 51.515625 
L 76.125 44 
L 58.984375 44 
L 54.984375 27.6875 
L 70.515625 27.6875 
L 70.515625 20.21875 
L 53.078125 20.21875 
L 48 0 
L 40.1875 0 
L 45.21875 20.21875 
L 30.90625 20.21875 
L 25.875 0 
L 18.015625 0 
L 23.09375 20.21875 
L 7.71875 20.21875 
L 7.71875 27.6875 
L 24.90625 27.6875 
L 29 44 
L 13.28125 44 
L 13.28125 51.515625 
L 30.90625 51.515625 
L 35.890625 71.78125 
z
" id="DejaVuSans-35"/>
      <path d="M 18.3125 70.21875 
L 18.3125 54.6875 
L 36.8125 54.6875 
L 36.8125 47.703125 
L 18.3125 47.703125 
L 18.3125 18.015625 
Q 18.3125 11.328125 20.140625 9.421875 
Q 21.96875 7.515625 27.59375 7.515625 
L 36.8125 7.515625 
L 36.8125 0 
L 27.59375 0 
Q 17.1875 0 13.234375 3.875 
Q 9.28125 7.765625 9.28125 18.015625 
L 9.28125 47.703125 
L 2.6875 47.703125 
L 2.6875 54.6875 
L 9.28125 54.6875 
L 9.28125 70.21875 
z
" id="DejaVuSans-116"/>
      <path d="M 25.390625 72.90625 
L 33.6875 72.90625 
L 8.296875 -9.28125 
L 0 -9.28125 
z
" id="DejaVuSans-47"/>
     </defs>
     <g transform="translate(47.517187 290.624688)rotate(-90)scale(0.1 -0.1)">
      <use xlink:href="#DejaVuSans-35"/>
      <use x="83.789062" xlink:href="#DejaVuSans-99"/>
      <use x="138.769531" xlink:href="#DejaVuSans-111"/>
      <use x="199.951172" xlink:href="#DejaVuSans-114"/>
      <use x="239.314453" xlink:href="#DejaVuSans-114"/>
      <use x="278.177734" xlink:href="#DejaVuSans-101"/>
      <use x="339.701172" xlink:href="#DejaVuSans-99"/>
      <use x="394.681641" xlink:href="#DejaVuSans-116"/>
      <use x="433.890625" xlink:href="#DejaVuSans-47"/>
      <use x="467.582031" xlink:href="#DejaVuSans-49"/>
      <use x="531.205078" xlink:href="#DejaVuSans-50"/>
      <use x="594.828125" xlink:href="#DejaVuSans-53"/>
      <use x="658.451172" xlink:href="#DejaVuSans-56"/>
     </g>
    </g>
   </g>
   <g id="line2d_45">
    <path clip-path="url(#p1527a7c0c4)" d="M 76.5 448.25151 
L 76.5 267.476566 
L 77.306633 267.476566 
L 77.243417 252.052083 
L 77.984507 252.052083 
L 77.975272 250.818124 
L 78.709472 250.818124 
L 78.669055 247.116248 
L 79.387671 247.116248 
L 79.07422 222.437075 
L 79.713415 222.437075 
L 79.696092 221.203116 
L 80.330148 221.203116 
L 80.205469 213.490874 
L 80.817425 213.490874 
L 80.795084 212.256916 
L 81.402326 212.256916 
L 81.333631 208.863529 
L 81.930916 208.863529 
L 81.835875 204.544674 
L 82.421348 204.544674 
L 82.221351 195.906963 
L 82.785904 195.906963 
L 82.630787 189.42868 
L 83.180282 189.42868 
L 82.960386 180.48248 
L 83.490816 180.48248 
L 83.459255 179.248521 
L 83.986133 179.248521 
L 83.845354 174.004197 
L 84.876159 174.004197 
L 84.802845 171.53628 
L 85.312131 171.53628 
L 84.864212 156.420286 
L 85.347047 156.420286 
L 85.337888 156.111797 
L 85.819235 156.111797 
L 85.723849 153.0269 
L 86.199387 153.0269 
L 86.12069 150.558983 
L 86.591489 150.558983 
L 86.400895 144.697679 
L 86.862066 144.697679 
L 86.831287 143.77221 
L 87.290208 143.77221 
L 87.17407 140.378824 
L 87.627273 140.378824 
L 87.605561 139.761844 
L 88.057018 139.761844 
L 87.989826 137.910906 
L 88.88501 137.910906 
L 88.813558 136.059968 
L 89.257349 136.059968 
L 89.208517 134.82601 
L 89.649809 134.82601 
L 89.599714 133.592051 
L 90.038535 133.592051 
L 90.025665 133.283561 
L 90.9 133.283561 
L 90.872727 132.666582 
L 91.307852 132.666582 
L 91.265943 131.741113 
L 92.131356 131.741113 
L 92.014486 129.273196 
L 92.442857 129.273196 
L 92.368773 127.730747 
L 92.794429 127.730747 
L 92.629688 124.337361 
L 93.050413 124.337361 
L 93.020073 123.720382 
L 93.439286 123.720382 
L 93.209756 119.093037 
L 93.622744 119.093037 
L 93.607304 118.784547 
L 94.019189 118.784547 
L 94.00342 118.476057 
L 94.414209 118.476057 
L 94.35 117.242099 
L 94.758639 117.242099 
L 94.742308 116.933609 
L 95.149866 116.933609 
L 95.0504 115.082671 
L 95.859184 115.082671 
L 95.824889 114.465692 
L 97.030654 114.465692 
L 96.904478 112.306264 
L 97.302632 112.306264 
L 97.068083 108.295898 
L 97.461265 108.295898 
L 97.425 107.678919 
L 97.816854 107.678919 
L 97.798446 107.370429 
L 98.189301 107.370429 
L 98.114703 106.136471 
L 98.891845 106.136471 
L 98.834332 105.211002 
L 99.220958 105.211002 
L 99.201538 104.902512 
L 99.58719 104.902512 
L 99.547826 104.285533 
L 99.932198 104.285533 
L 99.872472 103.360064 
L 101.018898 103.360064 
L 100.977411 102.743084 
L 101.35765 102.743084 
L 101.336655 102.434595 
L 102.094604 102.434595 
L 102.030025 101.509126 
L 102.783627 101.509126 
L 102.761577 101.200636 
L 103.137133 101.200636 
L 103.114824 100.892146 
L 104.236842 100.892146 
L 104.121464 99.349698 
L 104.492768 99.349698 
L 104.446307 98.732719 
L 104.816418 98.732719 
L 104.769536 98.115739 
L 105.138462 98.115739 
L 105.114793 97.80725 
L 105.482824 97.80725 
L 105.387407 96.573291 
L 106.119392 96.573291 
L 106.095074 96.264801 
L 106.459885 96.264801 
L 106.410811 95.647822 
L 107.137531 95.647822 
L 106.987958 93.796884 
L 107.34878 93.796884 
L 107.298701 93.179905 
L 108.017504 93.179905 
L 107.966505 92.562925 
L 108.324495 92.562925 
L 108.298788 92.254436 
L 109.0125 92.254436 
L 108.907958 91.020477 
L 109.262892 91.020477 
L 109.236597 90.711987 
L 110.6496 90.711987 
L 110.595048 90.095008 
L 111.297129 90.095008 
L 111.24172 89.478029 
L 111.940541 89.478029 
L 111.912391 89.169539 
L 112.260714 89.169539 
L 112.175772 88.24407 
L 112.869249 88.24407 
L 112.811839 87.627091 
L 113.157256 87.627091 
L 113.128369 87.318601 
L 113.472992 87.318601 
L 113.443902 87.010111 
L 113.787736 87.010111 
L 113.758445 86.701622 
L 114.444 86.701622 
L 114.414263 86.393132 
L 115.097183 86.393132 
L 115.067005 86.084642 
L 118.111724 86.084642 
L 118.047209 85.467663 
L 118.382417 85.467663 
L 118.35 85.159173 
L 119.018393 85.159173 
L 118.952778 84.542194 
L 119.618182 84.542194 
L 119.551846 83.925215 
L 119.883321 83.925215 
L 119.816731 83.308235 
L 121.46422 83.308235 
L 121.42987 82.999746 
L 124.038041 82.999746 
L 123.965959 82.382766 
L 124.289318 82.382766 
L 124.21702 81.765787 
L 127.101503 81.765787 
L 127.063514 81.457297 
L 127.381395 81.457297 
L 127.343253 81.148808 
L 127.977171 81.148808 
L 127.938669 80.840318 
L 128.570276 80.840318 
L 128.531418 80.531828 
L 129.16073 80.531828 
L 129.121519 80.223339 
L 129.74855 80.223339 
L 129.70899 79.914849 
L 130.645441 79.914849 
L 130.605333 79.606359 
L 133.388079 79.606359 
L 133.304482 78.98938 
L 133.611013 78.98938 
L 133.569112 78.68089 
L 135.094079 78.68089 
L 135.051278 78.372401 
L 135.354745 78.372401 
L 135.183406 77.138442 
L 136.088889 77.138442 
L 136.045646 76.829952 
L 136.34641 76.829952 
L 136.259739 76.212973 
L 141.007516 76.212973 
L 140.915297 75.595994 
L 142.375 75.595994 
L 142.281294 74.979014 
L 142.861577 74.979014 
L 142.767447 74.362035 
L 144.496398 74.362035 
L 144.448412 74.053545 
L 145.592259 74.053545 
L 145.543671 73.745056 
L 146.680435 73.745056 
L 146.631254 73.436566 
L 147.761006 73.436566 
L 147.711243 73.128076 
L 148.273431 73.128076 
L 148.223415 72.819587 
L 148.783716 72.819587 
L 148.733449 72.511097 
L 150.681176 72.511097 
L 150.578645 71.894118 
L 151.131056 71.894118 
L 151.079586 71.585628 
L 154.902049 71.585628 
L 154.848532 71.277138 
L 159.390486 71.277138 
L 159.334592 70.968649 
L 160.65 70.968649 
L 160.593486 70.660159 
L 169.304596 70.660159 
L 169.243701 70.351669 
L 169.743775 70.351669 
L 169.682711 70.04318 
L 171.174364 70.04318 
L 171.112647 69.73469 
L 172.591948 69.73469 
L 172.529591 69.4262 
L 173.019896 69.4262 
L 172.957383 69.117711 
L 174.662669 69.117711 
L 174.59942 68.809221 
L 175.083591 68.809221 
L 174.956877 68.192242 
L 177.833227 68.192242 
L 177.768642 67.883752 
L 179.661002 67.883752 
L 179.595627 67.575262 
L 182.628724 67.575262 
L 182.56206 67.266773 
L 185.544673 67.266773 
L 185.476775 66.958283 
L 190.192071 66.958283 
L 190.122236 66.649793 
L 195.577132 66.649793 
L 195.505139 66.341304 
L 198.48723 66.341304 
L 198.41414 66.032814 
L 212.793103 66.032814 
L 212.714819 65.724324 
L 217.689474 65.724324 
L 217.609615 65.415835 
L 263.863517 65.415835 
L 263.772298 65.107345 
L 270.193194 65.107345 
L 270.101047 64.798855 
L 272.089939 64.798855 
L 272.089939 64.798855 
" style="fill:none;stroke:#1f77b4;stroke-linecap:square;stroke-width:2;"/>
   </g>
   <g id="line2d_46">
    <path clip-path="url(#p1527a7c0c4)" d="M 76.5 448.25151 
L 76.5 428.816661 
L 83.796923 428.816661 
L 82.909459 426.040254 
L 82.08 422.646868 
L 81.339796 418.636502 
L 80.660526 413.700668 
L 80.093182 408.147854 
L 83.632331 408.147854 
L 83.579104 407.839364 
L 87.04 407.839364 
L 86.179592 404.137488 
L 89.318919 404.137488 
L 88.139264 399.510143 
L 87.04 394.265819 
L 85.986 388.096025 
L 85.845813 387.170556 
L 88.125 387.170556 
L 87.04 380.692273 
L 86.993363 380.383784 
L 89.036564 380.383784 
L 87.8832 373.288521 
L 89.72749 373.288521 
L 89.368605 371.129094 
L 91.150193 371.129094 
L 89.907774 363.725342 
L 88.74 355.396121 
L 88.469716 353.236693 
L 91.368339 353.236693 
L 90.12931 344.290493 
L 88.948819 334.110334 
L 88.692802 331.642417 
L 89.877692 331.642417 
L 89.843478 331.333927 
L 91.019388 331.333927 
L 89.798131 320.228299 
L 90.872727 320.228299 
L 90.54533 317.143402 
L 92.632653 317.143402 
L 92.067834 312.207568 
L 93.069432 312.207568 
L 92.68081 308.814181 
L 93.655532 308.814181 
L 93.159298 304.495326 
L 94.102887 304.495326 
L 93.472962 298.942512 
L 94.380357 298.942512 
L 93.763793 293.389698 
L 94.637667 293.389698 
L 94.001845 287.528394 
L 94.843094 287.528394 
L 94.67573 285.985946 
L 95.506557 285.985946 
L 94.521762 276.731256 
L 95.308448 276.731256 
L 94.989661 273.646359 
L 96.529561 273.646359 
L 96.361809 272.103911 
L 97.121739 272.103911 
L 96.199361 263.4662 
L 96.924402 263.4662 
L 96.171429 256.062448 
L 98.947786 256.062448 
L 98.543928 252.360572 
L 99.220958 252.360572 
L 98.754545 248.041717 
L 100.076316 248.041717 
L 100.041898 247.733227 
L 100.69898 247.733227 
L 100.558696 246.499269 
L 101.210275 246.499269 
L 101.174566 246.190779 
L 101.823377 246.190779 
L 101.786888 245.882289 
L 102.43295 245.882289 
L 102.358537 245.26531 
L 103.001003 245.26531 
L 102.084647 237.553068 
L 102.70442 237.553068 
L 101.89759 230.457806 
L 102.497727 230.457806 
L 102.256689 228.298378 
L 103.441744 228.298378 
L 103.264961 226.75593 
L 103.851507 226.75593 
L 103.602857 224.596502 
L 104.761399 224.596502 
L 104.543445 222.745564 
L 105.116303 222.745564 
L 104.86145 220.586137 
L 105.428081 220.586137 
L 104.711152 214.416343 
L 105.263243 214.416343 
L 105.121552 213.182385 
L 105.669742 213.182385 
L 105.106755 208.24655 
L 106.713822 208.24655 
L 106.641367 207.629571 
L 108.233333 207.629571 
L 108.082402 206.395612 
L 109.13274 206.395612 
L 109.055503 205.778633 
L 109.57766 205.778633 
L 109.344718 203.927695 
L 109.862251 203.927695 
L 109.823185 203.619205 
L 110.853505 203.619205 
L 110.693721 202.385246 
L 111.204878 202.385246 
L 110.925 200.225819 
L 111.431185 200.225819 
L 111.23135 198.68337 
L 111.733714 198.68337 
L 111.653364 198.066391 
L 112.153531 198.066391 
L 111.991837 196.832432 
L 112.488788 196.832432 
L 112.286149 195.289984 
L 112.779415 195.289984 
L 112.69798 194.673005 
L 113.679171 194.673005 
L 113.637584 194.364515 
L 114.126034 194.364515 
L 113.669205 190.971129 
L 114.151158 190.971129 
L 113.903724 189.120191 
L 114.381729 189.120191 
L 114.175626 187.577742 
L 114.650217 187.577742 
L 114.11865 183.567377 
L 114.586188 183.567377 
L 114.383387 182.024928 
L 114.84766 182.024928 
L 114.685169 180.79097 
L 115.146667 180.79097 
L 115.065048 180.17399 
L 115.524684 180.17399 
L 115.483562 179.865501 
L 116.399054 179.865501 
L 116.107516 177.706073 
L 116.560792 177.706073 
L 116.519063 177.397583 
L 117.421933 177.397583 
L 117.294715 176.472114 
L 117.743478 176.472114 
L 117.615789 175.546645 
L 118.062371 175.546645 
L 117.722393 173.078728 
L 118.16476 173.078728 
L 118.122245 172.770238 
L 119.003462 172.770238 
L 118.960224 172.461749 
L 119.399085 172.461749 
L 119.225405 171.22779 
L 119.66178 171.22779 
L 119.53125 170.302321 
L 119.965559 170.302321 
L 119.921831 169.993831 
L 120.354874 169.993831 
L 120.223046 169.068362 
L 120.654054 169.068362 
L 120.346819 166.908935 
L 120.77428 166.908935 
L 120.252895 163.207059 
L 120.675 163.207059 
L 120.545455 162.28159 
L 121.384976 162.28159 
L 121.167087 160.739141 
L 121.583802 160.739141 
L 121.496515 160.122162 
L 122.326087 160.122162 
L 122.018234 157.962734 
L 123.249187 157.962734 
L 123.070925 156.728776 
L 123.884872 156.728776 
L 123.615894 154.877838 
L 124.422663 154.877838 
L 124.287288 153.952369 
L 125.089004 153.952369 
L 125.04338 153.643879 
L 125.442777 153.643879 
L 125.214286 152.101431 
L 125.611287 152.101431 
L 125.383287 150.558983 
L 125.777922 150.558983 
L 125.550416 149.016534 
L 125.942712 149.016534 
L 125.897143 148.708045 
L 126.288398 148.708045 
L 126.06022 147.165596 
L 126.449176 147.165596 
L 126.403477 146.857107 
L 126.791408 146.857107 
L 126.155957 142.538251 
L 126.921081 142.538251 
L 126.875698 142.229762 
L 127.256924 142.229762 
L 126.894375 139.761844 
L 127.65 139.761844 
L 127.377926 137.910906 
L 127.752967 137.910906 
L 127.617138 136.985437 
L 127.990644 136.985437 
L 127.854665 136.059968 
L 128.226649 136.059968 
L 128.135821 135.442989 
L 128.506579 135.442989 
L 128.460999 135.134499 
L 129.2 135.134499 
L 129.062042 134.20903 
L 129.796777 134.20903 
L 129.611719 132.975072 
L 130.341681 132.975072 
L 130.248529 132.358092 
L 130.612014 132.358092 
L 130.565285 132.049603 
L 130.927869 132.049603 
L 130.834109 131.432623 
L 131.195525 131.432623 
L 131.101546 130.815644 
L 132.180463 130.815644 
L 132.132791 130.507154 
L 132.490932 130.507154 
L 132.157653 128.347727 
L 132.513339 128.347727 
L 132.465789 128.039237 
L 132.820611 128.039237 
L 132.535443 126.188299 
L 133.240185 126.188299 
L 133.192424 125.879809 
L 133.54365 125.879809 
L 133.447859 125.26283 
L 134.496482 125.26283 
L 134.158451 123.103402 
L 134.505075 123.103402 
L 134.312687 121.869444 
L 134.657746 121.869444 
L 134.609603 121.560954 
L 134.953846 121.560954 
L 134.905537 121.252464 
L 135.248968 121.252464 
L 135.152102 120.635485 
L 137.87543 120.635485 
L 137.775061 120.018506 
L 138.1125 120.018506 
L 137.861839 118.476057 
L 138.532738 118.476057 
L 138.381929 117.550588 
L 138.71587 117.550588 
L 138.665534 117.242099 
L 138.998707 117.242099 
L 138.497514 114.157202 
L 139.157726 114.157202 
L 139.1076 113.848712 
L 140.093296 113.848712 
L 140.042584 113.540223 
L 140.696656 113.540223 
L 140.645585 113.231733 
L 141.622143 113.231733 
L 141.5705 112.923243 
L 141.89477 112.923243 
L 141.739684 111.997774 
L 142.062796 111.997774 
L 142.01105 111.689285 
L 142.333438 111.689285 
L 142.28156 111.380795 
L 142.603228 111.380795 
L 142.395683 110.146836 
L 142.716 110.146836 
L 142.149611 106.75345 
L 142.467133 106.75345 
L 142.313721 105.827981 
L 142.946053 105.827981 
L 142.792124 104.902512 
L 143.106944 104.902512 
L 143.05559 104.594022 
L 143.996538 104.594022 
L 143.892857 103.977043 
L 144.205142 103.977043 
L 144.101379 103.360064 
L 144.412787 103.360064 
L 144.360826 103.051574 
L 144.67156 103.051574 
L 144.619481 102.743084 
L 145.548247 102.743084 
L 145.495659 102.434595 
L 146.112091 102.434595 
L 145.900986 101.200636 
L 146.207727 101.200636 
L 145.944679 99.658188 
L 146.25 99.658188 
L 146.092551 98.732719 
L 146.700676 98.732719 
L 146.647973 98.424229 
L 147.55618 98.424229 
L 147.449888 97.80725 
L 148.052353 97.80725 
L 147.998955 97.49876 
L 148.898734 97.49876 
L 148.844866 97.19027 
L 149.442125 97.19027 
L 149.387973 96.881781 
L 150.576462 96.881781 
L 150.521672 96.573291 
L 151.407897 96.573291 
L 151.352655 96.264801 
L 151.940943 96.264801 
L 151.88543 95.956312 
L 152.764097 95.956312 
L 152.652273 95.339332 
L 152.943956 95.339332 
L 152.832114 94.722353 
L 153.413514 94.722353 
L 153.357372 94.413863 
L 153.647265 94.413863 
L 153.591035 94.105374 
L 154.457673 94.105374 
L 154.401017 93.796884 
L 154.976343 93.796884 
L 154.919434 93.488394 
L 155.492759 93.488394 
L 155.435601 93.179905 
L 156.006936 93.179905 
L 155.949531 92.871415 
L 156.234416 92.871415 
L 156.119524 92.254436 
L 156.97074 92.254436 
L 156.912931 91.945946 
L 158.041547 91.945946 
L 157.983178 91.637456 
L 158.264163 91.637456 
L 158.205718 91.328967 
L 160.437953 91.328967 
L 160.378338 91.020477 
L 160.655429 91.020477 
L 160.595745 90.711987 
L 162.523359 90.711987 
L 162.34162 89.786518 
L 162.614989 89.786518 
L 162.55443 89.478029 
L 163.099719 89.478029 
L 162.978261 88.861049 
L 163.250035 88.861049 
L 163.068042 87.93558 
L 164.419024 87.93558 
L 164.29666 87.318601 
L 164.833843 87.318601 
L 164.7725 87.010111 
L 165.307906 87.010111 
L 165.184903 86.393132 
L 165.451765 86.393132 
L 165.390249 86.084642 
L 165.922583 86.084642 
L 165.737698 85.159173 
L 166.532187 85.159173 
L 166.470309 84.850684 
L 168.571907 84.850684 
L 168.446212 84.233704 
L 169.227589 84.233704 
L 169.101429 83.616725 
L 171.167456 83.616725 
L 170.975692 82.691256 
L 172.253701 82.691256 
L 172.189307 82.382766 
L 174.215318 82.382766 
L 174.08477 81.765787 
L 175.588623 81.765787 
L 175.522739 81.457297 
L 177.261284 81.457297 
L 177.194643 81.148808 
L 178.916327 81.148808 
L 178.848947 80.840318 
L 179.093491 80.840318 
L 179.026084 80.531828 
L 179.27019 80.531828 
L 179.202756 80.223339 
L 180.175524 80.223339 
L 180.107717 79.914849 
L 182.276918 79.914849 
L 182.070993 78.98938 
L 183.738372 78.98938 
L 183.6 78.372401 
L 183.83675 78.372401 
L 183.76759 78.063911 
L 184.711118 78.063911 
L 184.572208 77.446932 
L 185.041731 77.446932 
L 184.972197 77.138442 
L 189.6 77.138442 
L 189.528508 76.829952 
L 190.212303 76.829952 
L 190.140605 76.521463 
L 191.047925 76.521463 
L 190.975927 76.212973 
L 191.653137 76.212973 
L 191.508835 75.595994 
L 193.746015 75.595994 
L 193.673055 75.287504 
L 195.221933 75.287504 
L 195.148421 74.979014 
L 196.683292 74.979014 
L 196.609242 74.670525 
L 199.852747 74.670525 
L 199.777486 74.362035 
L 215.137281 74.362035 
L 215.056443 74.053545 
L 216.032442 74.053545 
L 215.951365 73.745056 
L 216.921379 73.745056 
L 216.840069 73.436566 
L 220.663309 73.436566 
L 220.580835 73.128076 
L 223.761416 73.128076 
L 223.678029 72.819587 
L 224.048077 72.819587 
L 223.881356 72.202607 
L 229.686792 72.202607 
L 229.60183 71.894118 
L 229.957729 71.894118 
L 229.872757 71.585628 
L 236.826761 71.585628 
L 236.739957 71.277138 
L 248.365746 71.277138 
L 248.276186 70.968649 
L 252.320206 70.968649 
L 252.229856 70.660159 
L 261.448655 70.660159 
L 261.356595 70.351669 
L 261.931744 70.351669 
L 261.839672 70.04318 
L 265.242542 70.04318 
L 265.149975 69.73469 
L 268.609884 69.73469 
L 268.516852 69.4262 
L 275.45059 69.4262 
L 275.45059 69.4262 
" style="fill:none;stroke:#ff7f0e;stroke-linecap:square;stroke-width:2;"/>
   </g>
   <g id="line2d_47">
    <path clip-path="url(#p1527a7c0c4)" d="M 76.5 448.25151 
L 76.5 422.646868 
L 82.08 422.646868 
L 81.339796 418.636502 
L 80.660526 413.700668 
L 80.039552 407.530874 
L 79.464375 399.510143 
L 78.944845 389.021494 
L 78.47625 374.83097 
L 78.129897 359.097997 
L 79.74863 359.097997 
L 79.64106 356.0131 
L 81.19604 356.0131 
L 80.530878 340.588617 
L 79.920433 321.153768 
L 81.04964 321.153768 
L 80.912093 317.143402 
L 82.00232 317.143402 
L 81.545745 305.112305 
L 82.542038 305.112305 
L 81.9 287.836884 
L 82.788068 287.836884 
L 82.49296 279.816153 
L 83.336757 279.816153 
L 83.263636 277.965215 
L 84.095552 277.965215 
L 83.898094 273.33787 
L 84.705882 273.33787 
L 84.137681 260.072814 
L 85.635795 260.072814 
L 85.60656 259.455835 
L 86.349681 259.455835 
L 85.77203 247.424738 
L 86.47027 247.424738 
L 86.455322 247.116248 
L 87.150449 247.116248 
L 86.232558 227.681399 
L 86.867213 227.681399 
L 86.741296 224.904992 
L 87.366712 224.904992 
L 87.352086 224.596502 
L 87.975 224.596502 
L 87.822812 221.511606 
L 89.047619 221.511606 
L 88.883812 218.426709 
L 89.48605 218.426709 
L 88.811867 205.470143 
L 89.382222 205.470143 
L 88.922143 196.215453 
L 89.471344 196.215453 
L 89.425237 195.289984 
L 89.971243 195.289984 
L 89.892 193.747536 
L 90.433608 193.747536 
L 90.09805 187.269253 
L 90.625773 187.269253 
L 90.497503 184.801335 
L 91.019388 184.801335 
L 90.905062 182.641908 
L 91.421798 182.641908 
L 91.338436 181.099459 
L 91.851228 181.099459 
L 91.631683 177.089094 
L 92.136264 177.089094 
L 92.067834 175.855135 
L 92.56918 175.855135 
L 92.534133 175.238156 
L 93.033333 175.238156 
L 92.82 171.53628 
L 93.311923 171.53628 
L 93.293884 171.22779 
L 93.784244 171.22779 
L 93.546723 167.217424 
L 94.029567 167.217424 
L 93.974211 166.291955 
L 94.454574 166.291955 
L 94.379372 165.057997 
L 94.856799 165.057997 
L 94.499077 159.196693 
L 94.966598 159.196693 
L 94.77931 156.111797 
L 95.241337 156.111797 
L 95.203438 155.494817 
L 95.663636 155.494817 
L 95.472 152.409921 
L 95.926873 152.409921 
L 95.907485 152.101431 
L 96.361017 152.101431 
L 96.068369 147.474086 
L 96.96 147.474086 
L 96.741707 144.0807 
L 97.181686 144.0807 
L 96.904876 139.761844 
L 97.338395 139.761844 
L 97.318511 139.453355 
L 97.75081 139.453355 
L 97.550142 136.368458 
L 97.977736 136.368458 
L 97.957493 136.059968 
L 98.383898 136.059968 
L 98.28135 134.51752 
L 98.705056 134.51752 
L 98.560465 132.358092 
L 98.980762 132.358092 
L 98.8561 130.507154 
L 99.273407 130.507154 
L 99.231429 129.890175 
L 100.062282 129.890175 
L 99.847493 126.805278 
L 100.668153 126.805278 
L 100.624251 126.188299 
L 101.032759 126.188299 
L 100.944033 124.95434 
L 102.565135 124.95434 
L 102.171961 119.710016 
L 102.569681 119.710016 
L 102.54659 119.401526 
L 102.943274 119.401526 
L 102.896555 118.784547 
L 103.29188 118.784547 
L 103.197625 117.550588 
L 104.375526 117.550588 
L 104.351096 117.242099 
L 105.132283 117.242099 
L 105.107255 116.933609 
L 105.496507 116.933609 
L 105.395561 115.69965 
L 105.78287 115.69965 
L 105.605704 113.540223 
L 106.373943 113.540223 
L 106.322481 112.923243 
L 106.704991 112.923243 
L 106.396252 109.221367 
L 106.774468 109.221367 
L 106.723025 108.604388 
L 107.1 108.604388 
L 106.919241 106.44496 
L 108.040152 106.44496 
L 107.987143 105.827981 
L 109.470603 105.827981 
L 109.443013 105.519491 
L 109.81204 105.519491 
L 109.784211 105.211002 
L 110.152337 105.211002 
L 110.12427 104.902512 
L 111.954319 104.902512 
L 111.924896 104.594022 
L 112.288806 104.594022 
L 112.170496 103.360064 
L 112.5327 103.360064 
L 112.414074 102.126105 
L 113.134511 102.126105 
L 113.044426 101.200636 
L 113.760884 101.200636 
L 113.730417 100.892146 
L 114.799918 100.892146 
L 114.644354 99.349698 
L 114.998377 99.349698 
L 114.873786 98.115739 
L 115.929298 98.115739 
L 115.8975 97.80725 
L 116.247945 97.80725 
L 116.120241 96.573291 
L 116.817402 96.573291 
L 116.752842 95.956312 
L 117.10008 95.956312 
L 117.067626 95.647822 
L 117.759936 95.647822 
L 117.661385 94.722353 
L 118.35 94.722353 
L 118.250436 93.796884 
L 119.277057 93.796884 
L 119.209479 93.179905 
L 119.550118 93.179905 
L 119.516167 92.871415 
L 119.856028 92.871415 
L 119.787805 92.254436 
L 120.126651 92.254436 
L 120.058163 91.637456 
L 121.070086 91.637456 
L 121.035211 91.328967 
L 121.706719 91.328967 
L 121.671429 91.020477 
L 122.006162 91.020477 
L 121.93528 90.403498 
L 122.269027 90.403498 
L 122.091628 88.861049 
L 122.423703 88.861049 
L 122.388158 88.55256 
L 123.050309 88.55256 
L 122.657931 85.159173 
L 123.639908 85.159173 
L 123.388973 82.999746 
L 123.713754 82.999746 
L 123.642109 82.382766 
L 124.289318 82.382766 
L 124.253142 82.074277 
L 125.219637 82.074277 
L 125.146154 81.457297 
L 126.106998 81.457297 
L 126.069699 81.148808 
L 126.388805 81.148808 
L 126.313953 80.531828 
L 126.949888 80.531828 
L 126.912126 80.223339 
L 127.22917 80.223339 
L 127.153398 79.606359 
L 127.785235 79.606359 
L 127.747019 79.29787 
L 128.062025 79.29787 
L 128.023661 78.98938 
L 130.214212 78.98938 
L 130.01615 77.446932 
L 130.635862 77.446932 
L 130.596026 77.138442 
L 131.8292 77.138442 
L 131.788636 76.829952 
L 133.623723 76.829952 
L 133.582057 76.521463 
L 135.4 76.521463 
L 135.314576 75.904483 
L 137.114513 75.904483 
L 137.027109 75.287504 
L 137.920144 75.287504 
L 137.875988 74.979014 
L 139.354943 74.979014 
L 139.130621 73.436566 
L 140.302633 73.436566 
L 140.257255 73.128076 
L 141.712048 73.128076 
L 141.665864 72.819587 
L 144.543038 72.819587 
L 144.495221 72.511097 
L 146.766667 72.511097 
L 146.717598 72.202607 
L 147.562369 72.202607 
L 147.463466 71.585628 
L 151.355065 71.585628 
L 151.303512 71.277138 
L 151.578458 71.277138 
L 151.526823 70.968649 
L 152.075275 70.968649 
L 151.919877 70.04318 
L 154.095092 70.04318 
L 154.042234 69.73469 
L 154.851394 69.73469 
L 154.798166 69.4262 
L 155.335482 69.4262 
L 155.282034 69.117711 
L 156.884402 69.117711 
L 156.830162 68.809221 
L 158.68227 68.809221 
L 158.627114 68.500731 
L 162.019162 68.500731 
L 161.962301 68.192242 
L 163.507351 68.192242 
L 163.392262 67.575262 
L 163.648315 67.575262 
L 163.590753 67.266773 
L 167.138482 67.266773 
L 167.079202 66.958283 
L 173.252317 66.958283 
L 173.190096 66.649793 
L 174.88233 66.649793 
L 174.819386 66.341304 
L 179.1 66.341304 
L 179.035145 66.032814 
L 182.296241 66.032814 
L 182.229994 65.724324 
L 183.150843 65.724324 
L 183.08427 65.415835 
L 184.911429 65.415835 
L 184.844134 65.107345 
L 189.331637 65.107345 
L 189.2625 64.798855 
L 213.061477 64.798855 
L 212.983352 64.490366 
L 221.09397 64.490366 
L 221.013281 64.181876 
L 252.175543 64.181876 
L 252.086818 63.873386 
L 271.417808 63.873386 
L 271.417808 63.873386 
" style="fill:none;stroke:#2ca02c;stroke-linecap:square;stroke-width:2;"/>
   </g>
   <g id="patch_3">
    <path d="M 76.5 448.56 
L 76.5 60.48 
" style="fill:none;stroke:#000000;stroke-linecap:square;stroke-linejoin:miter;stroke-width:0.8;"/>
   </g>
   <g id="patch_4">
    <path d="M 550.8 448.56 
L 550.8 60.48 
" style="fill:none;stroke:#000000;stroke-linecap:square;stroke-linejoin:miter;stroke-width:0.8;"/>
   </g>
   <g id="patch_5">
    <path d="M 76.5 448.56 
L 550.8 448.56 
" style="fill:none;stroke:#000000;stroke-linecap:square;stroke-linejoin:miter;stroke-width:0.8;"/>
   </g>
   <g id="patch_6">
    <path d="M 76.5 60.48 
L 550.8 60.48 
" style="fill:none;stroke:#000000;stroke-linecap:square;stroke-linejoin:miter;stroke-width:0.8;"/>
   </g>
   <g id="text_25">
    <!-- leuven: img1-img2 -->
    <defs>
     <path d="M 9.421875 75.984375 
L 18.40625 75.984375 
L 18.40625 0 
L 9.421875 0 
z
" id="DejaVuSans-108"/>
     <path d="M 8.5 21.578125 
L 8.5 54.6875 
L 17.484375 54.6875 
L 17.484375 21.921875 
Q 17.484375 14.15625 20.5 10.265625 
Q 23.53125 6.390625 29.59375 6.390625 
Q 36.859375 6.390625 41.078125 11.03125 
Q 45.3125 15.671875 45.3125 23.6875 
L 45.3125 54.6875 
L 54.296875 54.6875 
L 54.296875 0 
L 45.3125 0 
L 45.3125 8.40625 
Q 42.046875 3.421875 37.71875 1 
Q 33.40625 -1.421875 27.6875 -1.421875 
Q 18.265625 -1.421875 13.375 4.4375 
Q 8.5 10.296875 8.5 21.578125 
z
M 31.109375 56 
z
" id="DejaVuSans-117"/>
     <path d="M 2.984375 54.6875 
L 12.5 54.6875 
L 29.59375 8.796875 
L 46.6875 54.6875 
L 56.203125 54.6875 
L 35.6875 0 
L 23.484375 0 
z
" id="DejaVuSans-118"/>
     <path d="M 11.71875 12.40625 
L 22.015625 12.40625 
L 22.015625 0 
L 11.71875 0 
z
M 11.71875 51.703125 
L 22.015625 51.703125 
L 22.015625 39.3125 
L 11.71875 39.3125 
z
" id="DejaVuSans-58"/>
     <path id="DejaVuSans-32"/>
     <path d="M 52 44.1875 
Q 55.375 50.25 60.0625 53.125 
Q 64.75 56 71.09375 56 
Q 79.640625 56 84.28125 50.015625 
Q 88.921875 44.046875 88.921875 33.015625 
L 88.921875 0 
L 79.890625 0 
L 79.890625 32.71875 
Q 79.890625 40.578125 77.09375 44.375 
Q 74.3125 48.1875 68.609375 48.1875 
Q 61.625 48.1875 57.5625 43.546875 
Q 53.515625 38.921875 53.515625 30.90625 
L 53.515625 0 
L 44.484375 0 
L 44.484375 32.71875 
Q 44.484375 40.625 41.703125 44.40625 
Q 38.921875 48.1875 33.109375 48.1875 
Q 26.21875 48.1875 22.15625 43.53125 
Q 18.109375 38.875 18.109375 30.90625 
L 18.109375 0 
L 9.078125 0 
L 9.078125 54.6875 
L 18.109375 54.6875 
L 18.109375 46.1875 
Q 21.1875 51.21875 25.484375 53.609375 
Q 29.78125 56 35.6875 56 
Q 41.65625 56 45.828125 52.96875 
Q 50 49.953125 52 44.1875 
z
" id="DejaVuSans-109"/>
     <path d="M 45.40625 27.984375 
Q 45.40625 37.75 41.375 43.109375 
Q 37.359375 48.484375 30.078125 48.484375 
Q 22.859375 48.484375 18.828125 43.109375 
Q 14.796875 37.75 14.796875 27.984375 
Q 14.796875 18.265625 18.828125 12.890625 
Q 22.859375 7.515625 30.078125 7.515625 
Q 37.359375 7.515625 41.375 12.890625 
Q 45.40625 18.265625 45.40625 27.984375 
z
M 54.390625 6.78125 
Q 54.390625 -7.171875 48.1875 -13.984375 
Q 42 -20.796875 29.203125 -20.796875 
Q 24.46875 -20.796875 20.265625 -20.09375 
Q 16.0625 -19.390625 12.109375 -17.921875 
L 12.109375 -9.1875 
Q 16.0625 -11.328125 19.921875 -12.34375 
Q 23.78125 -13.375 27.78125 -13.375 
Q 36.625 -13.375 41.015625 -8.765625 
Q 45.40625 -4.15625 45.40625 5.171875 
L 45.40625 9.625 
Q 42.625 4.78125 38.28125 2.390625 
Q 33.9375 0 27.875 0 
Q 17.828125 0 11.671875 7.65625 
Q 5.515625 15.328125 5.515625 27.984375 
Q 5.515625 40.671875 11.671875 48.328125 
Q 17.828125 56 27.875 56 
Q 33.9375 56 38.28125 53.609375 
Q 42.625 51.21875 45.40625 46.390625 
L 45.40625 54.6875 
L 54.390625 54.6875 
z
" id="DejaVuSans-103"/>
    </defs>
    <g transform="translate(257.074688 41.042625)scale(0.12 -0.12)">
     <use xlink:href="#DejaVuSans-108"/>
     <use x="27.783203" xlink:href="#DejaVuSans-101"/>
     <use x="89.306641" xlink:href="#DejaVuSans-117"/>
     <use x="152.685547" xlink:href="#DejaVuSans-118"/>
     <use x="211.865234" xlink:href="#DejaVuSans-101"/>
     <use x="273.388672" xlink:href="#DejaVuSans-110"/>
     <use x="336.767578" xlink:href="#DejaVuSans-58"/>
     <use x="370.458984" xlink:href="#DejaVuSans-32"/>
     <use x="402.246094" xlink:href="#DejaVuSans-105"/>
     <use x="430.029297" xlink:href="#DejaVuSans-109"/>
     <use x="527.441406" xlink:href="#DejaVuSans-103"/>
     <use x="590.917969" xlink:href="#DejaVuSans-49"/>
     <use x="654.541016" xlink:href="#DejaVuSans-45"/>
     <use x="690.625" xlink:href="#DejaVuSans-105"/>
     <use x="718.408203" xlink:href="#DejaVuSans-109"/>
     <use x="815.820312" xlink:href="#DejaVuSans-103"/>
     <use x="879.296875" xlink:href="#DejaVuSans-50"/>
    </g>
    <!-- NearestNeighbours -->
    <defs>
     <path d="M 9.8125 72.90625 
L 23.09375 72.90625 
L 55.421875 11.921875 
L 55.421875 72.90625 
L 64.984375 72.90625 
L 64.984375 0 
L 51.703125 0 
L 19.390625 60.984375 
L 19.390625 0 
L 9.8125 0 
z
" id="DejaVuSans-78"/>
     <path d="M 34.28125 27.484375 
Q 23.390625 27.484375 19.1875 25 
Q 14.984375 22.515625 14.984375 16.5 
Q 14.984375 11.71875 18.140625 8.90625 
Q 21.296875 6.109375 26.703125 6.109375 
Q 34.1875 6.109375 38.703125 11.40625 
Q 43.21875 16.703125 43.21875 25.484375 
L 43.21875 27.484375 
z
M 52.203125 31.203125 
L 52.203125 0 
L 43.21875 0 
L 43.21875 8.296875 
Q 40.140625 3.328125 35.546875 0.953125 
Q 30.953125 -1.421875 24.3125 -1.421875 
Q 15.921875 -1.421875 10.953125 3.296875 
Q 6 8.015625 6 15.921875 
Q 6 25.140625 12.171875 29.828125 
Q 18.359375 34.515625 30.609375 34.515625 
L 43.21875 34.515625 
L 43.21875 35.40625 
Q 43.21875 41.609375 39.140625 45 
Q 35.0625 48.390625 27.6875 48.390625 
Q 23 48.390625 18.546875 47.265625 
Q 14.109375 46.140625 10.015625 43.890625 
L 10.015625 52.203125 
Q 14.9375 54.109375 19.578125 55.046875 
Q 24.21875 56 28.609375 56 
Q 40.484375 56 46.34375 49.84375 
Q 52.203125 43.703125 52.203125 31.203125 
z
" id="DejaVuSans-97"/>
     <path d="M 54.890625 33.015625 
L 54.890625 0 
L 45.90625 0 
L 45.90625 32.71875 
Q 45.90625 40.484375 42.875 44.328125 
Q 39.84375 48.1875 33.796875 48.1875 
Q 26.515625 48.1875 22.3125 43.546875 
Q 18.109375 38.921875 18.109375 30.90625 
L 18.109375 0 
L 9.078125 0 
L 9.078125 75.984375 
L 18.109375 75.984375 
L 18.109375 46.1875 
Q 21.34375 51.125 25.703125 53.5625 
Q 30.078125 56 35.796875 56 
Q 45.21875 56 50.046875 50.171875 
Q 54.890625 44.34375 54.890625 33.015625 
z
" id="DejaVuSans-104"/>
     <path d="M 48.6875 27.296875 
Q 48.6875 37.203125 44.609375 42.84375 
Q 40.53125 48.484375 33.40625 48.484375 
Q 26.265625 48.484375 22.1875 42.84375 
Q 18.109375 37.203125 18.109375 27.296875 
Q 18.109375 17.390625 22.1875 11.75 
Q 26.265625 6.109375 33.40625 6.109375 
Q 40.53125 6.109375 44.609375 11.75 
Q 48.6875 17.390625 48.6875 27.296875 
z
M 18.109375 46.390625 
Q 20.953125 51.265625 25.265625 53.625 
Q 29.59375 56 35.59375 56 
Q 45.5625 56 51.78125 48.09375 
Q 58.015625 40.1875 58.015625 27.296875 
Q 58.015625 14.40625 51.78125 6.484375 
Q 45.5625 -1.421875 35.59375 -1.421875 
Q 29.59375 -1.421875 25.265625 0.953125 
Q 20.953125 3.328125 18.109375 8.203125 
L 18.109375 0 
L 9.078125 0 
L 9.078125 75.984375 
L 18.109375 75.984375 
z
" id="DejaVuSans-98"/>
    </defs>
    <g transform="translate(255.957188 54.48)scale(0.12 -0.12)">
     <use xlink:href="#DejaVuSans-78"/>
     <use x="74.804688" xlink:href="#DejaVuSans-101"/>
     <use x="136.328125" xlink:href="#DejaVuSans-97"/>
     <use x="197.607422" xlink:href="#DejaVuSans-114"/>
     <use x="236.470703" xlink:href="#DejaVuSans-101"/>
     <use x="297.994141" xlink:href="#DejaVuSans-115"/>
     <use x="350.09375" xlink:href="#DejaVuSans-116"/>
     <use x="389.302734" xlink:href="#DejaVuSans-78"/>
     <use x="464.107422" xlink:href="#DejaVuSans-101"/>
     <use x="525.630859" xlink:href="#DejaVuSans-105"/>
     <use x="553.414062" xlink:href="#DejaVuSans-103"/>
     <use x="616.890625" xlink:href="#DejaVuSans-104"/>
     <use x="680.269531" xlink:href="#DejaVuSans-98"/>
     <use x="743.746094" xlink:href="#DejaVuSans-111"/>
     <use x="804.927734" xlink:href="#DejaVuSans-117"/>
     <use x="868.306641" xlink:href="#DejaVuSans-114"/>
     <use x="909.419922" xlink:href="#DejaVuSans-115"/>
    </g>
   </g>
   <g id="legend_1">
    <g id="patch_7">
     <path d="M 362.659375 112.514375 
L 543.8 112.514375 
Q 545.8 112.514375 545.8 110.514375 
L 545.8 67.48 
Q 545.8 65.48 543.8 65.48 
L 362.659375 65.48 
Q 360.659375 65.48 360.659375 67.48 
L 360.659375 110.514375 
Q 360.659375 112.514375 362.659375 112.514375 
z
" style="fill:#ffffff;opacity:0.8;stroke:#cccccc;stroke-linejoin:miter;"/>
    </g>
    <g id="line2d_48">
     <path d="M 364.659375 73.578438 
L 384.659375 73.578438 
" style="fill:none;stroke:#1f77b4;stroke-linecap:square;stroke-width:2;"/>
    </g>
    <g id="line2d_49"/>
    <g id="text_26">
     <!-- root-cvsift AP: 96.9, %In: 58.8 -->
     <defs>
      <path d="M 37.109375 75.984375 
L 37.109375 68.5 
L 28.515625 68.5 
Q 23.6875 68.5 21.796875 66.546875 
Q 19.921875 64.59375 19.921875 59.515625 
L 19.921875 54.6875 
L 34.71875 54.6875 
L 34.71875 47.703125 
L 19.921875 47.703125 
L 19.921875 0 
L 10.890625 0 
L 10.890625 47.703125 
L 2.296875 47.703125 
L 2.296875 54.6875 
L 10.890625 54.6875 
L 10.890625 58.5 
Q 10.890625 67.625 15.140625 71.796875 
Q 19.390625 75.984375 28.609375 75.984375 
z
" id="DejaVuSans-102"/>
      <path d="M 34.1875 63.1875 
L 20.796875 26.90625 
L 47.609375 26.90625 
z
M 28.609375 72.90625 
L 39.796875 72.90625 
L 67.578125 0 
L 57.328125 0 
L 50.6875 18.703125 
L 17.828125 18.703125 
L 11.1875 0 
L 0.78125 0 
z
" id="DejaVuSans-65"/>
      <path d="M 19.671875 64.796875 
L 19.671875 37.40625 
L 32.078125 37.40625 
Q 38.96875 37.40625 42.71875 40.96875 
Q 46.484375 44.53125 46.484375 51.125 
Q 46.484375 57.671875 42.71875 61.234375 
Q 38.96875 64.796875 32.078125 64.796875 
z
M 9.8125 72.90625 
L 32.078125 72.90625 
Q 44.34375 72.90625 50.609375 67.359375 
Q 56.890625 61.8125 56.890625 51.125 
Q 56.890625 40.328125 50.609375 34.8125 
Q 44.34375 29.296875 32.078125 29.296875 
L 19.671875 29.296875 
L 19.671875 0 
L 9.8125 0 
z
" id="DejaVuSans-80"/>
      <path d="M 11.71875 12.40625 
L 22.015625 12.40625 
L 22.015625 4 
L 14.015625 -11.625 
L 7.71875 -11.625 
L 11.71875 4 
z
" id="DejaVuSans-44"/>
      <path d="M 72.703125 32.078125 
Q 68.453125 32.078125 66.03125 28.46875 
Q 63.625 24.859375 63.625 18.40625 
Q 63.625 12.0625 66.03125 8.421875 
Q 68.453125 4.78125 72.703125 4.78125 
Q 76.859375 4.78125 79.265625 8.421875 
Q 81.6875 12.0625 81.6875 18.40625 
Q 81.6875 24.8125 79.265625 28.4375 
Q 76.859375 32.078125 72.703125 32.078125 
z
M 72.703125 38.28125 
Q 80.421875 38.28125 84.953125 32.90625 
Q 89.5 27.546875 89.5 18.40625 
Q 89.5 9.28125 84.9375 3.921875 
Q 80.375 -1.421875 72.703125 -1.421875 
Q 64.890625 -1.421875 60.34375 3.921875 
Q 55.8125 9.28125 55.8125 18.40625 
Q 55.8125 27.59375 60.375 32.9375 
Q 64.9375 38.28125 72.703125 38.28125 
z
M 22.3125 68.015625 
Q 18.109375 68.015625 15.6875 64.375 
Q 13.28125 60.75 13.28125 54.390625 
Q 13.28125 47.953125 15.671875 44.328125 
Q 18.0625 40.71875 22.3125 40.71875 
Q 26.5625 40.71875 28.96875 44.328125 
Q 31.390625 47.953125 31.390625 54.390625 
Q 31.390625 60.6875 28.953125 64.34375 
Q 26.515625 68.015625 22.3125 68.015625 
z
M 66.40625 74.21875 
L 74.21875 74.21875 
L 28.609375 -1.421875 
L 20.796875 -1.421875 
z
M 22.3125 74.21875 
Q 30.03125 74.21875 34.609375 68.875 
Q 39.203125 63.53125 39.203125 54.390625 
Q 39.203125 45.171875 34.640625 39.84375 
Q 30.078125 34.515625 22.3125 34.515625 
Q 14.546875 34.515625 10.03125 39.859375 
Q 5.515625 45.21875 5.515625 54.390625 
Q 5.515625 63.484375 10.046875 68.84375 
Q 14.59375 74.21875 22.3125 74.21875 
z
" id="DejaVuSans-37"/>
      <path d="M 9.8125 72.90625 
L 19.671875 72.90625 
L 19.671875 0 
L 9.8125 0 
z
" id="DejaVuSans-73"/>
     </defs>
     <g transform="translate(392.659375 77.078438)scale(0.1 -0.1)">
      <use xlink:href="#DejaVuSans-114"/>
      <use x="38.863281" xlink:href="#DejaVuSans-111"/>
      <use x="100.044922" xlink:href="#DejaVuSans-111"/>
      <use x="161.226562" xlink:href="#DejaVuSans-116"/>
      <use x="200.435547" xlink:href="#DejaVuSans-45"/>
      <use x="236.519531" xlink:href="#DejaVuSans-99"/>
      <use x="291.5" xlink:href="#DejaVuSans-118"/>
      <use x="350.679688" xlink:href="#DejaVuSans-115"/>
      <use x="402.779297" xlink:href="#DejaVuSans-105"/>
      <use x="430.5625" xlink:href="#DejaVuSans-102"/>
      <use x="464.017578" xlink:href="#DejaVuSans-116"/>
      <use x="503.226562" xlink:href="#DejaVuSans-32"/>
      <use x="535.013672" xlink:href="#DejaVuSans-65"/>
      <use x="603.421875" xlink:href="#DejaVuSans-80"/>
      <use x="663.724609" xlink:href="#DejaVuSans-58"/>
      <use x="697.416016" xlink:href="#DejaVuSans-32"/>
      <use x="729.203125" xlink:href="#DejaVuSans-57"/>
      <use x="792.826172" xlink:href="#DejaVuSans-54"/>
      <use x="856.449219" xlink:href="#DejaVuSans-46"/>
      <use x="888.236328" xlink:href="#DejaVuSans-57"/>
      <use x="951.859375" xlink:href="#DejaVuSans-44"/>
      <use x="983.646484" xlink:href="#DejaVuSans-32"/>
      <use x="1015.433594" xlink:href="#DejaVuSans-37"/>
      <use x="1110.453125" xlink:href="#DejaVuSans-73"/>
      <use x="1139.945312" xlink:href="#DejaVuSans-110"/>
      <use x="1203.324219" xlink:href="#DejaVuSans-58"/>
      <use x="1237.015625" xlink:href="#DejaVuSans-32"/>
      <use x="1268.802734" xlink:href="#DejaVuSans-53"/>
      <use x="1332.425781" xlink:href="#DejaVuSans-56"/>
      <use x="1396.048828" xlink:href="#DejaVuSans-46"/>
      <use x="1427.835938" xlink:href="#DejaVuSans-56"/>
     </g>
    </g>
    <g id="line2d_50">
     <path d="M 364.659375 88.256563 
L 384.659375 88.256563 
" style="fill:none;stroke:#ff7f0e;stroke-linecap:square;stroke-width:2;"/>
    </g>
    <g id="line2d_51"/>
    <g id="text_27">
     <!-- tfeat AP: 91.1, %In: 58.1 -->
     <g transform="translate(392.659375 91.756563)scale(0.1 -0.1)">
      <use xlink:href="#DejaVuSans-116"/>
      <use x="39.208984" xlink:href="#DejaVuSans-102"/>
      <use x="74.414062" xlink:href="#DejaVuSans-101"/>
      <use x="135.9375" xlink:href="#DejaVuSans-97"/>
      <use x="197.216797" xlink:href="#DejaVuSans-116"/>
      <use x="236.425781" xlink:href="#DejaVuSans-32"/>
      <use x="268.212891" xlink:href="#DejaVuSans-65"/>
      <use x="336.621094" xlink:href="#DejaVuSans-80"/>
      <use x="396.923828" xlink:href="#DejaVuSans-58"/>
      <use x="430.615234" xlink:href="#DejaVuSans-32"/>
      <use x="462.402344" xlink:href="#DejaVuSans-57"/>
      <use x="526.025391" xlink:href="#DejaVuSans-49"/>
      <use x="589.648438" xlink:href="#DejaVuSans-46"/>
      <use x="621.435547" xlink:href="#DejaVuSans-49"/>
      <use x="685.058594" xlink:href="#DejaVuSans-44"/>
      <use x="716.845703" xlink:href="#DejaVuSans-32"/>
      <use x="748.632812" xlink:href="#DejaVuSans-37"/>
      <use x="843.652344" xlink:href="#DejaVuSans-73"/>
      <use x="873.144531" xlink:href="#DejaVuSans-110"/>
      <use x="936.523438" xlink:href="#DejaVuSans-58"/>
      <use x="970.214844" xlink:href="#DejaVuSans-32"/>
      <use x="1002.001953" xlink:href="#DejaVuSans-53"/>
      <use x="1065.625" xlink:href="#DejaVuSans-56"/>
      <use x="1129.248047" xlink:href="#DejaVuSans-46"/>
      <use x="1161.035156" xlink:href="#DejaVuSans-49"/>
     </g>
    </g>
    <g id="line2d_52">
     <path d="M 364.659375 102.934687 
L 384.659375 102.934687 
" style="fill:none;stroke:#2ca02c;stroke-linecap:square;stroke-width:2;"/>
    </g>
    <g id="line2d_53"/>
    <g id="text_28">
     <!-- hardnet AP: 96.0, %In: 58.9 -->
     <defs>
      <path d="M 45.40625 46.390625 
L 45.40625 75.984375 
L 54.390625 75.984375 
L 54.390625 0 
L 45.40625 0 
L 45.40625 8.203125 
Q 42.578125 3.328125 38.25 0.953125 
Q 33.9375 -1.421875 27.875 -1.421875 
Q 17.96875 -1.421875 11.734375 6.484375 
Q 5.515625 14.40625 5.515625 27.296875 
Q 5.515625 40.1875 11.734375 48.09375 
Q 17.96875 56 27.875 56 
Q 33.9375 56 38.25 53.625 
Q 42.578125 51.265625 45.40625 46.390625 
z
M 14.796875 27.296875 
Q 14.796875 17.390625 18.875 11.75 
Q 22.953125 6.109375 30.078125 6.109375 
Q 37.203125 6.109375 41.296875 11.75 
Q 45.40625 17.390625 45.40625 27.296875 
Q 45.40625 37.203125 41.296875 42.84375 
Q 37.203125 48.484375 30.078125 48.484375 
Q 22.953125 48.484375 18.875 42.84375 
Q 14.796875 37.203125 14.796875 27.296875 
z
" id="DejaVuSans-100"/>
     </defs>
     <g transform="translate(392.659375 106.434687)scale(0.1 -0.1)">
      <use xlink:href="#DejaVuSans-104"/>
      <use x="63.378906" xlink:href="#DejaVuSans-97"/>
      <use x="124.658203" xlink:href="#DejaVuSans-114"/>
      <use x="164.021484" xlink:href="#DejaVuSans-100"/>
      <use x="227.498047" xlink:href="#DejaVuSans-110"/>
      <use x="290.876953" xlink:href="#DejaVuSans-101"/>
      <use x="352.400391" xlink:href="#DejaVuSans-116"/>
      <use x="391.609375" xlink:href="#DejaVuSans-32"/>
      <use x="423.396484" xlink:href="#DejaVuSans-65"/>
      <use x="491.804688" xlink:href="#DejaVuSans-80"/>
      <use x="552.107422" xlink:href="#DejaVuSans-58"/>
      <use x="585.798828" xlink:href="#DejaVuSans-32"/>
      <use x="617.585938" xlink:href="#DejaVuSans-57"/>
      <use x="681.208984" xlink:href="#DejaVuSans-54"/>
      <use x="744.832031" xlink:href="#DejaVuSans-46"/>
      <use x="776.619141" xlink:href="#DejaVuSans-48"/>
      <use x="840.242188" xlink:href="#DejaVuSans-44"/>
      <use x="872.029297" xlink:href="#DejaVuSans-32"/>
      <use x="903.816406" xlink:href="#DejaVuSans-37"/>
      <use x="998.835938" xlink:href="#DejaVuSans-73"/>
      <use x="1028.328125" xlink:href="#DejaVuSans-110"/>
      <use x="1091.707031" xlink:href="#DejaVuSans-58"/>
      <use x="1125.398438" xlink:href="#DejaVuSans-32"/>
      <use x="1157.185547" xlink:href="#DejaVuSans-53"/>
      <use x="1220.808594" xlink:href="#DejaVuSans-56"/>
      <use x="1284.431641" xlink:href="#DejaVuSans-46"/>
      <use x="1316.21875" xlink:href="#DejaVuSans-57"/>
     </g>
    </g>
   </g>
  </g>
 </g>
 <defs>
  <clipPath id="p1527a7c0c4">
   <rect height="388.08" width="474.3" x="76.5" y="60.48"/>
  </clipPath>
 </defs>
</svg>
